<?xml version="1.0" encoding="utf-8" standalone="no"?>
<!DOCTYPE svg PUBLIC "-//W3C//DTD SVG 1.1//EN"
  "http://www.w3.org/Graphics/SVG/1.1/DTD/svg11.dtd">
<!-- Created with matplotlib (https://matplotlib.org/) -->
<svg height="345.6pt" version="1.1" viewBox="0 0 460.8 345.6" width="460.8pt" xmlns="http://www.w3.org/2000/svg" xmlns:xlink="http://www.w3.org/1999/xlink">
 <defs>
  <style type="text/css">
*{stroke-linecap:butt;stroke-linejoin:round;}
  </style>
 </defs>
 <g id="figure_1">
  <g id="patch_1">
   <path d="M 0 345.6 
L 460.8 345.6 
L 460.8 0 
L 0 0 
z
" style="fill:#ffffff;"/>
  </g>
  <g id="axes_1">
   <g id="patch_2">
    <path d="M 34.16 291.28 
L 450.672 291.28 
L 450.672 5.52 
L 34.16 5.52 
z
" style="fill:#ffffff;"/>
   </g>
   <g id="matplotlib.axis_1">
    <g id="xtick_1">
     <g id="line2d_1">
      <path clip-path="url(#pa28afa0d1a)" d="M 120.188764 291.28 
L 120.188764 5.52 
" style="fill:none;stroke:#b0b0b0;stroke-linecap:square;stroke-width:0.8;"/>
     </g>
     <g id="line2d_2">
      <defs>
       <path d="M 0 0 
L 0 3.5 
" id="m6c4d384d34" style="stroke:#000000;stroke-width:0.8;"/>
      </defs>
      <g>
       <use style="stroke:#000000;stroke-width:0.8;" x="120.188764" xlink:href="#m6c4d384d34" y="291.28"/>
      </g>
     </g>
     <g id="text_1">
      <!-- -2 -->
      <defs>
       <path d="M 4.890625 31.390625 
L 31.203125 31.390625 
L 31.203125 23.390625 
L 4.890625 23.390625 
z
" id="DejaVuSans-45"/>
       <path d="M 19.1875 8.296875 
L 53.609375 8.296875 
L 53.609375 0 
L 7.328125 0 
L 7.328125 8.296875 
Q 12.9375 14.109375 22.625 23.890625 
Q 32.328125 33.6875 34.8125 36.53125 
Q 39.546875 41.84375 41.421875 45.53125 
Q 43.3125 49.21875 43.3125 52.78125 
Q 43.3125 58.59375 39.234375 62.25 
Q 35.15625 65.921875 28.609375 65.921875 
Q 23.96875 65.921875 18.8125 64.3125 
Q 13.671875 62.703125 7.8125 59.421875 
L 7.8125 69.390625 
Q 13.765625 71.78125 18.9375 73 
Q 24.125 74.21875 28.421875 74.21875 
Q 39.75 74.21875 46.484375 68.546875 
Q 53.21875 62.890625 53.21875 53.421875 
Q 53.21875 48.921875 51.53125 44.890625 
Q 49.859375 40.875 45.40625 35.40625 
Q 44.1875 33.984375 37.640625 27.21875 
Q 31.109375 20.453125 19.1875 8.296875 
z
" id="DejaVuSans-50"/>
      </defs>
      <g transform="translate(110.218451 313.476875)scale(0.2 -0.2)">
       <use xlink:href="#DejaVuSans-45"/>
       <use x="36.083984" xlink:href="#DejaVuSans-50"/>
      </g>
     </g>
    </g>
    <g id="xtick_2">
     <g id="line2d_3">
      <path clip-path="url(#pa28afa0d1a)" d="M 242.416 291.28 
L 242.416 5.52 
" style="fill:none;stroke:#b0b0b0;stroke-linecap:square;stroke-width:0.8;"/>
     </g>
     <g id="line2d_4">
      <g>
       <use style="stroke:#000000;stroke-width:0.8;" x="242.416" xlink:href="#m6c4d384d34" y="291.28"/>
      </g>
     </g>
     <g id="text_2">
      <!-- 0 -->
      <defs>
       <path d="M 31.78125 66.40625 
Q 24.171875 66.40625 20.328125 58.90625 
Q 16.5 51.421875 16.5 36.375 
Q 16.5 21.390625 20.328125 13.890625 
Q 24.171875 6.390625 31.78125 6.390625 
Q 39.453125 6.390625 43.28125 13.890625 
Q 47.125 21.390625 47.125 36.375 
Q 47.125 51.421875 43.28125 58.90625 
Q 39.453125 66.40625 31.78125 66.40625 
z
M 31.78125 74.21875 
Q 44.046875 74.21875 50.515625 64.515625 
Q 56.984375 54.828125 56.984375 36.375 
Q 56.984375 17.96875 50.515625 8.265625 
Q 44.046875 -1.421875 31.78125 -1.421875 
Q 19.53125 -1.421875 13.0625 8.265625 
Q 6.59375 17.96875 6.59375 36.375 
Q 6.59375 54.828125 13.0625 64.515625 
Q 19.53125 74.21875 31.78125 74.21875 
z
" id="DejaVuSans-48"/>
      </defs>
      <g transform="translate(236.0535 313.476875)scale(0.2 -0.2)">
       <use xlink:href="#DejaVuSans-48"/>
      </g>
     </g>
    </g>
    <g id="xtick_3">
     <g id="line2d_5">
      <path clip-path="url(#pa28afa0d1a)" d="M 364.643236 291.28 
L 364.643236 5.52 
" style="fill:none;stroke:#b0b0b0;stroke-linecap:square;stroke-width:0.8;"/>
     </g>
     <g id="line2d_6">
      <g>
       <use style="stroke:#000000;stroke-width:0.8;" x="364.643236" xlink:href="#m6c4d384d34" y="291.28"/>
      </g>
     </g>
     <g id="text_3">
      <!-- 2 -->
      <g transform="translate(358.280736 313.476875)scale(0.2 -0.2)">
       <use xlink:href="#DejaVuSans-50"/>
      </g>
     </g>
    </g>
    <g id="text_4">
     <!-- log10 of FEvals ratio -->
     <defs>
      <path d="M 9.421875 75.984375 
L 18.40625 75.984375 
L 18.40625 0 
L 9.421875 0 
z
" id="DejaVuSans-108"/>
      <path d="M 30.609375 48.390625 
Q 23.390625 48.390625 19.1875 42.75 
Q 14.984375 37.109375 14.984375 27.296875 
Q 14.984375 17.484375 19.15625 11.84375 
Q 23.34375 6.203125 30.609375 6.203125 
Q 37.796875 6.203125 41.984375 11.859375 
Q 46.1875 17.53125 46.1875 27.296875 
Q 46.1875 37.015625 41.984375 42.703125 
Q 37.796875 48.390625 30.609375 48.390625 
z
M 30.609375 56 
Q 42.328125 56 49.015625 48.375 
Q 55.71875 40.765625 55.71875 27.296875 
Q 55.71875 13.875 49.015625 6.21875 
Q 42.328125 -1.421875 30.609375 -1.421875 
Q 18.84375 -1.421875 12.171875 6.21875 
Q 5.515625 13.875 5.515625 27.296875 
Q 5.515625 40.765625 12.171875 48.375 
Q 18.84375 56 30.609375 56 
z
" id="DejaVuSans-111"/>
      <path d="M 45.40625 27.984375 
Q 45.40625 37.75 41.375 43.109375 
Q 37.359375 48.484375 30.078125 48.484375 
Q 22.859375 48.484375 18.828125 43.109375 
Q 14.796875 37.75 14.796875 27.984375 
Q 14.796875 18.265625 18.828125 12.890625 
Q 22.859375 7.515625 30.078125 7.515625 
Q 37.359375 7.515625 41.375 12.890625 
Q 45.40625 18.265625 45.40625 27.984375 
z
M 54.390625 6.78125 
Q 54.390625 -7.171875 48.1875 -13.984375 
Q 42 -20.796875 29.203125 -20.796875 
Q 24.46875 -20.796875 20.265625 -20.09375 
Q 16.0625 -19.390625 12.109375 -17.921875 
L 12.109375 -9.1875 
Q 16.0625 -11.328125 19.921875 -12.34375 
Q 23.78125 -13.375 27.78125 -13.375 
Q 36.625 -13.375 41.015625 -8.765625 
Q 45.40625 -4.15625 45.40625 5.171875 
L 45.40625 9.625 
Q 42.625 4.78125 38.28125 2.390625 
Q 33.9375 0 27.875 0 
Q 17.828125 0 11.671875 7.65625 
Q 5.515625 15.328125 5.515625 27.984375 
Q 5.515625 40.671875 11.671875 48.328125 
Q 17.828125 56 27.875 56 
Q 33.9375 56 38.28125 53.609375 
Q 42.625 51.21875 45.40625 46.390625 
L 45.40625 54.6875 
L 54.390625 54.6875 
z
" id="DejaVuSans-103"/>
      <path d="M 12.40625 8.296875 
L 28.515625 8.296875 
L 28.515625 63.921875 
L 10.984375 60.40625 
L 10.984375 69.390625 
L 28.421875 72.90625 
L 38.28125 72.90625 
L 38.28125 8.296875 
L 54.390625 8.296875 
L 54.390625 0 
L 12.40625 0 
z
" id="DejaVuSans-49"/>
      <path id="DejaVuSans-32"/>
      <path d="M 37.109375 75.984375 
L 37.109375 68.5 
L 28.515625 68.5 
Q 23.6875 68.5 21.796875 66.546875 
Q 19.921875 64.59375 19.921875 59.515625 
L 19.921875 54.6875 
L 34.71875 54.6875 
L 34.71875 47.703125 
L 19.921875 47.703125 
L 19.921875 0 
L 10.890625 0 
L 10.890625 47.703125 
L 2.296875 47.703125 
L 2.296875 54.6875 
L 10.890625 54.6875 
L 10.890625 58.5 
Q 10.890625 67.625 15.140625 71.796875 
Q 19.390625 75.984375 28.609375 75.984375 
z
" id="DejaVuSans-102"/>
      <path d="M 9.8125 72.90625 
L 51.703125 72.90625 
L 51.703125 64.59375 
L 19.671875 64.59375 
L 19.671875 43.109375 
L 48.578125 43.109375 
L 48.578125 34.8125 
L 19.671875 34.8125 
L 19.671875 0 
L 9.8125 0 
z
" id="DejaVuSans-70"/>
      <path d="M 9.8125 72.90625 
L 55.90625 72.90625 
L 55.90625 64.59375 
L 19.671875 64.59375 
L 19.671875 43.015625 
L 54.390625 43.015625 
L 54.390625 34.71875 
L 19.671875 34.71875 
L 19.671875 8.296875 
L 56.78125 8.296875 
L 56.78125 0 
L 9.8125 0 
z
" id="DejaVuSans-69"/>
      <path d="M 2.984375 54.6875 
L 12.5 54.6875 
L 29.59375 8.796875 
L 46.6875 54.6875 
L 56.203125 54.6875 
L 35.6875 0 
L 23.484375 0 
z
" id="DejaVuSans-118"/>
      <path d="M 34.28125 27.484375 
Q 23.390625 27.484375 19.1875 25 
Q 14.984375 22.515625 14.984375 16.5 
Q 14.984375 11.71875 18.140625 8.90625 
Q 21.296875 6.109375 26.703125 6.109375 
Q 34.1875 6.109375 38.703125 11.40625 
Q 43.21875 16.703125 43.21875 25.484375 
L 43.21875 27.484375 
z
M 52.203125 31.203125 
L 52.203125 0 
L 43.21875 0 
L 43.21875 8.296875 
Q 40.140625 3.328125 35.546875 0.953125 
Q 30.953125 -1.421875 24.3125 -1.421875 
Q 15.921875 -1.421875 10.953125 3.296875 
Q 6 8.015625 6 15.921875 
Q 6 25.140625 12.171875 29.828125 
Q 18.359375 34.515625 30.609375 34.515625 
L 43.21875 34.515625 
L 43.21875 35.40625 
Q 43.21875 41.609375 39.140625 45 
Q 35.0625 48.390625 27.6875 48.390625 
Q 23 48.390625 18.546875 47.265625 
Q 14.109375 46.140625 10.015625 43.890625 
L 10.015625 52.203125 
Q 14.9375 54.109375 19.578125 55.046875 
Q 24.21875 56 28.609375 56 
Q 40.484375 56 46.34375 49.84375 
Q 52.203125 43.703125 52.203125 31.203125 
z
" id="DejaVuSans-97"/>
      <path d="M 44.28125 53.078125 
L 44.28125 44.578125 
Q 40.484375 46.53125 36.375 47.5 
Q 32.28125 48.484375 27.875 48.484375 
Q 21.1875 48.484375 17.84375 46.4375 
Q 14.5 44.390625 14.5 40.28125 
Q 14.5 37.15625 16.890625 35.375 
Q 19.28125 33.59375 26.515625 31.984375 
L 29.59375 31.296875 
Q 39.15625 29.25 43.1875 25.515625 
Q 47.21875 21.78125 47.21875 15.09375 
Q 47.21875 7.46875 41.1875 3.015625 
Q 35.15625 -1.421875 24.609375 -1.421875 
Q 20.21875 -1.421875 15.453125 -0.5625 
Q 10.6875 0.296875 5.421875 2 
L 5.421875 11.28125 
Q 10.40625 8.6875 15.234375 7.390625 
Q 20.0625 6.109375 24.8125 6.109375 
Q 31.15625 6.109375 34.5625 8.28125 
Q 37.984375 10.453125 37.984375 14.40625 
Q 37.984375 18.0625 35.515625 20.015625 
Q 33.0625 21.96875 24.703125 23.78125 
L 21.578125 24.515625 
Q 13.234375 26.265625 9.515625 29.90625 
Q 5.8125 33.546875 5.8125 39.890625 
Q 5.8125 47.609375 11.28125 51.796875 
Q 16.75 56 26.8125 56 
Q 31.78125 56 36.171875 55.265625 
Q 40.578125 54.546875 44.28125 53.078125 
z
" id="DejaVuSans-115"/>
      <path d="M 41.109375 46.296875 
Q 39.59375 47.171875 37.8125 47.578125 
Q 36.03125 48 33.890625 48 
Q 26.265625 48 22.1875 43.046875 
Q 18.109375 38.09375 18.109375 28.8125 
L 18.109375 0 
L 9.078125 0 
L 9.078125 54.6875 
L 18.109375 54.6875 
L 18.109375 46.1875 
Q 20.953125 51.171875 25.484375 53.578125 
Q 30.03125 56 36.53125 56 
Q 37.453125 56 38.578125 55.875 
Q 39.703125 55.765625 41.0625 55.515625 
z
" id="DejaVuSans-114"/>
      <path d="M 18.3125 70.21875 
L 18.3125 54.6875 
L 36.8125 54.6875 
L 36.8125 47.703125 
L 18.3125 47.703125 
L 18.3125 18.015625 
Q 18.3125 11.328125 20.140625 9.421875 
Q 21.96875 7.515625 27.59375 7.515625 
L 36.8125 7.515625 
L 36.8125 0 
L 27.59375 0 
Q 17.1875 0 13.234375 3.875 
Q 9.28125 7.765625 9.28125 18.015625 
L 9.28125 47.703125 
L 2.6875 47.703125 
L 2.6875 54.6875 
L 9.28125 54.6875 
L 9.28125 70.21875 
z
" id="DejaVuSans-116"/>
      <path d="M 9.421875 54.6875 
L 18.40625 54.6875 
L 18.40625 0 
L 9.421875 0 
z
M 9.421875 75.984375 
L 18.40625 75.984375 
L 18.40625 64.59375 
L 9.421875 64.59375 
z
" id="DejaVuSans-105"/>
     </defs>
     <g transform="translate(140.111312 336.833125)scale(0.2 -0.2)">
      <use xlink:href="#DejaVuSans-108"/>
      <use x="27.783203" xlink:href="#DejaVuSans-111"/>
      <use x="88.964844" xlink:href="#DejaVuSans-103"/>
      <use x="152.441406" xlink:href="#DejaVuSans-49"/>
      <use x="216.064453" xlink:href="#DejaVuSans-48"/>
      <use x="279.6875" xlink:href="#DejaVuSans-32"/>
      <use x="311.474609" xlink:href="#DejaVuSans-111"/>
      <use x="372.65625" xlink:href="#DejaVuSans-102"/>
      <use x="407.861328" xlink:href="#DejaVuSans-32"/>
      <use x="439.648438" xlink:href="#DejaVuSans-70"/>
      <use x="497.167969" xlink:href="#DejaVuSans-69"/>
      <use x="560.351562" xlink:href="#DejaVuSans-118"/>
      <use x="619.53125" xlink:href="#DejaVuSans-97"/>
      <use x="680.810547" xlink:href="#DejaVuSans-108"/>
      <use x="708.59375" xlink:href="#DejaVuSans-115"/>
      <use x="760.693359" xlink:href="#DejaVuSans-32"/>
      <use x="792.480469" xlink:href="#DejaVuSans-114"/>
      <use x="833.59375" xlink:href="#DejaVuSans-97"/>
      <use x="894.873047" xlink:href="#DejaVuSans-116"/>
      <use x="934.082031" xlink:href="#DejaVuSans-105"/>
      <use x="961.865234" xlink:href="#DejaVuSans-111"/>
     </g>
    </g>
   </g>
   <g id="matplotlib.axis_2">
    <g id="ytick_1">
     <g id="line2d_7">
      <path clip-path="url(#pa28afa0d1a)" d="M 34.16 288.478431 
L 450.672 288.478431 
" style="fill:none;stroke:#b0b0b0;stroke-linecap:square;stroke-width:0.8;"/>
     </g>
     <g id="line2d_8">
      <defs>
       <path d="M 0 0 
L -3.5 0 
" id="m47249504bf" style="stroke:#000000;stroke-width:0.8;"/>
      </defs>
      <g>
       <use style="stroke:#000000;stroke-width:0.8;" x="34.16" xlink:href="#m47249504bf" y="288.478431"/>
      </g>
     </g>
    </g>
    <g id="ytick_2">
     <g id="line2d_9">
      <path clip-path="url(#pa28afa0d1a)" d="M 34.16 218.439216 
L 450.672 218.439216 
" style="fill:none;stroke:#b0b0b0;stroke-linecap:square;stroke-width:0.8;"/>
     </g>
     <g id="line2d_10">
      <g>
       <use style="stroke:#000000;stroke-width:0.8;" x="34.16" xlink:href="#m47249504bf" y="218.439216"/>
      </g>
     </g>
    </g>
    <g id="ytick_3">
     <g id="line2d_11">
      <path clip-path="url(#pa28afa0d1a)" d="M 34.16 148.4 
L 450.672 148.4 
" style="fill:none;stroke:#b0b0b0;stroke-linecap:square;stroke-width:0.8;"/>
     </g>
     <g id="line2d_12">
      <g>
       <use style="stroke:#000000;stroke-width:0.8;" x="34.16" xlink:href="#m47249504bf" y="148.4"/>
      </g>
     </g>
    </g>
    <g id="ytick_4">
     <g id="line2d_13">
      <path clip-path="url(#pa28afa0d1a)" d="M 34.16 78.360784 
L 450.672 78.360784 
" style="fill:none;stroke:#b0b0b0;stroke-linecap:square;stroke-width:0.8;"/>
     </g>
     <g id="line2d_14">
      <g>
       <use style="stroke:#000000;stroke-width:0.8;" x="34.16" xlink:href="#m47249504bf" y="78.360784"/>
      </g>
     </g>
    </g>
    <g id="ytick_5">
     <g id="line2d_15">
      <path clip-path="url(#pa28afa0d1a)" d="M 34.16 8.321569 
L 450.672 8.321569 
" style="fill:none;stroke:#b0b0b0;stroke-linecap:square;stroke-width:0.8;"/>
     </g>
     <g id="line2d_16">
      <g>
       <use style="stroke:#000000;stroke-width:0.8;" x="34.16" xlink:href="#m47249504bf" y="8.321569"/>
      </g>
     </g>
    </g>
    <g id="text_5">
     <!-- proportion of trials -->
     <defs>
      <path d="M 18.109375 8.203125 
L 18.109375 -20.796875 
L 9.078125 -20.796875 
L 9.078125 54.6875 
L 18.109375 54.6875 
L 18.109375 46.390625 
Q 20.953125 51.265625 25.265625 53.625 
Q 29.59375 56 35.59375 56 
Q 45.5625 56 51.78125 48.09375 
Q 58.015625 40.1875 58.015625 27.296875 
Q 58.015625 14.40625 51.78125 6.484375 
Q 45.5625 -1.421875 35.59375 -1.421875 
Q 29.59375 -1.421875 25.265625 0.953125 
Q 20.953125 3.328125 18.109375 8.203125 
z
M 48.6875 27.296875 
Q 48.6875 37.203125 44.609375 42.84375 
Q 40.53125 48.484375 33.40625 48.484375 
Q 26.265625 48.484375 22.1875 42.84375 
Q 18.109375 37.203125 18.109375 27.296875 
Q 18.109375 17.390625 22.1875 11.75 
Q 26.265625 6.109375 33.40625 6.109375 
Q 40.53125 6.109375 44.609375 11.75 
Q 48.6875 17.390625 48.6875 27.296875 
z
" id="DejaVuSans-112"/>
      <path d="M 54.890625 33.015625 
L 54.890625 0 
L 45.90625 0 
L 45.90625 32.71875 
Q 45.90625 40.484375 42.875 44.328125 
Q 39.84375 48.1875 33.796875 48.1875 
Q 26.515625 48.1875 22.3125 43.546875 
Q 18.109375 38.921875 18.109375 30.90625 
L 18.109375 0 
L 9.078125 0 
L 9.078125 54.6875 
L 18.109375 54.6875 
L 18.109375 46.1875 
Q 21.34375 51.125 25.703125 53.5625 
Q 30.078125 56 35.796875 56 
Q 45.21875 56 50.046875 50.171875 
Q 54.890625 44.34375 54.890625 33.015625 
z
" id="DejaVuSans-110"/>
     </defs>
     <g transform="translate(19.000625 241.628125)rotate(-90)scale(0.2 -0.2)">
      <use xlink:href="#DejaVuSans-112"/>
      <use x="63.476562" xlink:href="#DejaVuSans-114"/>
      <use x="104.558594" xlink:href="#DejaVuSans-111"/>
      <use x="165.740234" xlink:href="#DejaVuSans-112"/>
      <use x="229.216797" xlink:href="#DejaVuSans-111"/>
      <use x="290.398438" xlink:href="#DejaVuSans-114"/>
      <use x="331.511719" xlink:href="#DejaVuSans-116"/>
      <use x="370.720703" xlink:href="#DejaVuSans-105"/>
      <use x="398.503906" xlink:href="#DejaVuSans-111"/>
      <use x="459.685547" xlink:href="#DejaVuSans-110"/>
      <use x="523.064453" xlink:href="#DejaVuSans-32"/>
      <use x="554.851562" xlink:href="#DejaVuSans-111"/>
      <use x="616.033203" xlink:href="#DejaVuSans-102"/>
      <use x="651.238281" xlink:href="#DejaVuSans-32"/>
      <use x="683.025391" xlink:href="#DejaVuSans-116"/>
      <use x="722.234375" xlink:href="#DejaVuSans-114"/>
      <use x="763.347656" xlink:href="#DejaVuSans-105"/>
      <use x="791.130859" xlink:href="#DejaVuSans-97"/>
      <use x="852.410156" xlink:href="#DejaVuSans-108"/>
      <use x="880.193359" xlink:href="#DejaVuSans-115"/>
     </g>
    </g>
   </g>
   <g id="line2d_17">
    <path clip-path="url(#pa28afa0d1a)" d="M 34.16 278.197446 
L 106.157055 278.197446 
L 106.157055 277.911863 
L 107.99615 277.911863 
L 107.99615 277.62628 
L 108.762344 277.62628 
L 108.762344 277.340697 
L 110.5359 277.340697 
L 110.5359 277.055114 
L 113.03802 277.055114 
L 113.03802 276.769531 
L 113.673227 276.769531 
L 113.673227 276.483948 
L 118.571989 276.483948 
L 118.571989 276.198365 
L 118.868543 276.198365 
L 118.868543 275.912782 
L 120.992982 275.912782 
L 120.992982 275.627199 
L 123.085991 275.627199 
L 123.085991 275.341616 
L 125.134194 275.341616 
L 125.134194 274.77045 
L 126.783253 274.77045 
L 126.783253 274.199284 
L 127.904071 274.199284 
L 127.904071 273.913702 
L 132.033807 273.913702 
L 132.033807 273.342536 
L 140.873753 273.342536 
L 140.873753 273.056953 
L 143.531226 273.056953 
L 143.531226 272.200204 
L 143.999868 272.200204 
L 143.999868 271.914621 
L 145.180285 271.914621 
L 145.180285 271.057872 
L 150.430839 271.057872 
L 150.430839 270.201123 
L 154.493416 270.201123 
L 154.505356 269.629957 
L 155.44433 269.629957 
L 155.44433 269.344374 
L 155.585884 269.344374 
L 155.585884 269.058792 
L 157.619532 269.058792 
L 157.619532 268.773209 
L 159.697405 268.773209 
L 159.697405 268.487626 
L 161.928259 268.487626 
L 161.928259 267.630877 
L 163.577317 267.630877 
L 163.624155 266.488545 
L 165.632016 266.488545 
L 165.632016 266.202962 
L 166.461015 266.202962 
L 166.461015 265.917379 
L 167.218814 265.917379 
L 167.218814 265.346213 
L 168.125019 265.346213 
L 168.125019 265.06063 
L 168.827871 265.06063 
L 168.827871 264.203882 
L 169.063993 264.203882 
L 169.063993 263.918299 
L 169.205547 263.918299 
L 169.205547 263.632716 
L 170.540808 263.632716 
L 170.540808 263.06155 
L 173.317068 263.06155 
L 173.317068 262.775967 
L 173.565744 262.775967 
L 173.565744 262.490384 
L 174.123719 262.490384 
L 174.123719 262.204801 
L 174.604877 262.204801 
L 174.604877 261.919218 
L 176.433591 261.919218 
L 176.433591 261.633635 
L 176.691859 261.633635 
L 176.781193 261.062469 
L 176.99076 261.062469 
L 176.99076 260.776886 
L 177.243818 260.776886 
L 177.243818 260.491303 
L 177.528885 260.491303 
L 177.528885 260.20572 
L 177.730992 260.20572 
L 177.730992 259.920138 
L 177.910469 259.920138 
L 177.910469 259.634555 
L 178.272686 259.634555 
L 178.272686 259.348972 
L 178.430252 259.348972 
L 178.503596 258.777806 
L 178.761557 258.777806 
L 178.761557 258.492223 
L 179.03888 258.492223 
L 179.03888 258.20664 
L 179.251679 258.20664 
L 179.251679 257.921057 
L 179.749564 257.921057 
L 179.749564 257.635474 
L 180.116876 257.635474 
L 180.158348 257.064308 
L 180.325291 257.064308 
L 180.34269 256.207559 
L 180.515758 256.207559 
L 180.515758 255.921976 
L 180.655001 255.921976 
L 180.655001 255.636393 
L 180.812436 255.636393 
L 180.812436 255.35081 
L 181.108884 255.35081 
L 181.108884 255.065228 
L 181.692815 255.065228 
L 181.692815 254.779645 
L 181.887673 254.779645 
L 181.97435 253.922896 
L 182.289314 253.922896 
L 182.309095 253.35173 
L 182.882441 253.35173 
L 182.882441 253.066147 
L 183.314556 253.066147 
L 183.314556 252.780564 
L 183.451407 252.780564 
L 183.451407 252.209398 
L 183.680806 252.209398 
L 183.680806 251.923815 
L 183.949762 251.923815 
L 183.949762 251.638232 
L 184.14819 251.638232 
L 184.14819 251.352649 
L 184.791434 251.352649 
L 184.791434 251.067066 
L 184.914384 251.067066 
L 184.914384 250.781483 
L 185.100465 250.781483 
L 185.100465 250.210318 
L 185.38456 250.210318 
L 185.42664 249.639152 
L 185.615847 249.639152 
L 185.615847 248.782403 
L 186.019767 248.782403 
L 186.019767 248.49682 
L 186.68794 248.49682 
L 186.68794 248.211237 
L 187.197347 248.211237 
L 187.224903 246.783322 
L 187.743383 246.783322 
L 187.743383 246.497739 
L 188.136321 246.497739 
L 188.23648 245.926574 
L 188.277875 245.926574 
L 188.277875 245.640991 
L 188.848525 245.640991 
L 188.93784 244.498659 
L 189.145079 244.498659 
L 189.19006 243.64191 
L 189.317008 243.64191 
L 189.317008 243.356327 
L 189.825267 243.356327 
L 189.825267 243.070744 
L 190.317639 243.070744 
L 190.351019 241.928412 
L 190.621957 241.928412 
L 190.622364 241.357247 
L 190.769001 241.357247 
L 190.769001 239.643749 
L 190.91853 239.643749 
L 190.91853 239.358166 
L 191.086865 239.358166 
L 191.160488 238.787 
L 191.215084 238.787 
L 191.269518 238.215834 
L 191.561338 238.215834 
L 191.561338 237.930251 
L 191.702892 237.930251 
L 191.702892 237.644668 
L 192.099463 237.644668 
L 192.099463 237.359085 
L 192.241017 237.359085 
L 192.241017 237.073502 
L 192.389396 237.073502 
L 192.39316 236.502337 
L 192.735924 236.502337 
L 192.746396 235.931171 
L 193.161451 235.931171 
L 193.161451 235.645588 
L 193.332134 235.645588 
L 193.428529 234.503256 
L 193.473688 234.503256 
L 193.473688 234.217673 
L 193.778011 234.217673 
L 193.778011 233.93209 
L 194.72403 233.93209 
L 194.72403 233.646507 
L 194.839405 233.646507 
L 194.860362 232.218592 
L 195.020584 232.218592 
L 195.020584 231.93301 
L 195.178225 231.93301 
L 195.178225 231.647427 
L 195.432532 231.647427 
L 195.432532 231.361844 
L 195.814413 231.361844 
L 195.814413 231.076261 
L 196.316145 231.076261 
L 196.352538 230.505095 
L 196.827284 230.505095 
L 196.827284 230.219512 
L 197.145022 230.219512 
L 197.145022 229.933929 
L 197.355278 229.933929 
L 197.355278 229.648346 
L 197.585209 229.648346 
L 197.585209 229.362763 
L 197.986477 229.362763 
L 197.986477 229.07718 
L 198.180607 229.07718 
L 198.180607 228.791597 
L 198.324007 228.791597 
L 198.324007 228.506014 
L 199.238031 228.506014 
L 199.238031 228.220431 
L 199.36314 228.220431 
L 199.36314 227.934848 
L 199.657485 227.934848 
L 199.741162 227.363683 
L 200.250611 227.363683 
L 200.279287 226.792517 
L 201.511959 226.792517 
L 201.511959 226.506934 
L 201.749023 226.506934 
L 201.749023 226.221351 
L 202.077838 226.221351 
L 202.077838 225.935768 
L 202.287148 225.935768 
L 202.287148 225.650185 
L 203.51982 225.650185 
L 203.51982 225.364602 
L 204.012879 225.364602 
L 204.056111 224.22227 
L 205.621936 224.22227 
L 205.621936 223.365521 
L 206.730715 223.365521 
L 206.81571 222.794355 
L 207.334872 222.794355 
L 207.334872 221.937607 
L 207.854843 221.937607 
L 207.854843 221.652024 
L 209.166033 221.652024 
L 209.166033 219.081777 
L 210.240727 219.081777 
L 210.240727 218.796194 
L 210.778852 218.796194 
L 210.778852 218.510611 
L 212.011524 218.510611 
L 212.011524 218.225028 
L 212.467098 218.225028 
L 212.467098 217.939446 
L 212.850339 217.939446 
L 212.850339 217.653863 
L 213.257394 217.653863 
L 213.257394 214.798033 
L 213.448211 214.798033 
L 213.448211 214.51245 
L 213.889472 214.51245 
L 213.889472 214.226867 
L 216.275356 214.226867 
L 216.275356 213.941284 
L 216.81348 213.941284 
L 216.81348 213.655701 
L 218.046152 213.655701 
L 218.046152 213.370119 
L 218.865813 213.370119 
L 218.865813 213.084536 
L 219.140272 213.084536 
L 219.140272 212.798953 
L 220.979366 212.798953 
L 220.979366 212.51337 
L 221.74556 212.51337 
L 221.74556 212.227787 
L 222.122353 212.227787 
L 222.187807 211.656621 
L 222.409911 211.656621 
L 222.409911 211.085455 
L 223.422996 211.085455 
L 223.519117 210.514289 
L 223.957601 210.514289 
L 224.018968 209.371957 
L 225.050417 209.371957 
L 225.050417 209.086374 
L 225.248469 209.086374 
L 225.248469 208.800792 
L 225.536027 208.800792 
L 225.536027 208.229626 
L 225.731904 208.229626 
L 225.731904 207.65846 
L 226.021236 207.65846 
L 226.061614 207.087294 
L 226.252732 207.087294 
L 226.252732 206.801711 
L 226.643915 206.801711 
L 226.656443 206.230545 
L 226.889511 206.230545 
L 226.889511 205.944962 
L 227.007206 205.944962 
L 227.083716 205.373796 
L 227.563065 205.373796 
L 227.655705 201.946801 
L 227.991575 201.946801 
L 228.091826 201.375635 
L 228.85802 201.375635 
L 228.85802 200.518886 
L 229.18773 200.518886 
L 229.18773 200.233303 
L 229.429262 200.233303 
L 229.429262 199.94772 
L 229.830669 199.94772 
L 229.852375 199.376555 
L 230.133322 199.376555 
L 230.133322 199.090972 
L 230.596864 199.090972 
L 230.631577 198.519806 
L 230.759489 198.519806 
L 230.759489 198.234223 
L 231.555206 198.234223 
L 231.654426 194.236062 
L 231.691469 194.236062 
L 231.691469 193.950479 
L 231.85176 193.950479 
L 231.931381 193.379313 
L 232.37042 193.379313 
L 232.457663 192.808147 
L 232.566588 192.808147 
L 232.566588 192.522564 
L 233.133696 192.522564 
L 233.171485 191.951398 
L 233.768903 191.951398 
L 233.768903 191.665815 
L 233.976198 191.665815 
L 233.976198 191.380232 
L 234.231219 191.380232 
L 234.231219 191.094649 
L 234.69875 191.094649 
L 234.69875 190.809066 
L 234.872539 190.809066 
L 234.872539 190.523483 
L 235.245375 190.523483 
L 235.245375 190.237901 
L 235.507746 190.237901 
L 235.507746 189.952318 
L 235.753957 189.952318 
L 235.811991 189.381152 
L 236.069208 189.381152 
L 236.069208 189.095569 
L 236.493478 189.095569 
L 236.493478 188.809986 
L 236.692931 188.809986 
L 236.733339 188.23882 
L 236.834485 188.23882 
L 236.834485 187.953237 
L 237.042659 187.953237 
L 237.042659 187.667654 
L 237.24185 187.667654 
L 237.262846 187.096488 
L 237.368546 187.096488 
L 237.465351 186.525322 
L 237.589204 186.525322 
L 237.651085 185.954156 
L 237.761905 185.954156 
L 237.761905 185.668573 
L 238.239762 185.668573 
L 238.239762 185.097408 
L 238.371491 185.097408 
L 238.417279 184.526242 
L 238.528178 184.526242 
L 238.528178 184.240659 
L 238.667666 184.240659 
L 238.669732 183.669493 
L 238.871902 183.669493 
L 238.96422 183.098327 
L 239.080945 183.098327 
L 239.080945 182.812744 
L 239.399333 182.812744 
L 239.399333 182.527161 
L 239.693218 182.527161 
L 239.693218 182.241578 
L 239.847139 182.241578 
L 239.886343 181.670412 
L 240.078856 181.670412 
L 240.078856 181.099246 
L 240.190836 181.099246 
L 240.263578 180.528081 
L 240.406509 180.528081 
L 240.406509 180.242498 
L 240.584839 180.242498 
L 240.63881 179.385749 
L 240.703063 179.385749 
L 240.773746 178.814583 
L 240.84505 178.814583 
L 240.946006 177.672251 
L 241.088658 177.672251 
L 241.088658 177.386668 
L 241.212179 177.386668 
L 241.264977 176.815502 
L 241.577784 176.815502 
L 241.668308 175.958754 
L 241.719338 175.958754 
L 241.719338 175.673171 
L 241.964862 175.673171 
L 241.979353 175.102005 
L 242.203951 175.102005 
L 242.267309 174.530839 
L 242.345505 174.530839 
L 242.416 171.675009 
L 242.525449 171.675009 
L 242.618606 170.532678 
L 242.692955 170.532678 
L 242.781253 169.961512 
L 242.827501 169.961512 
L 242.827501 169.675929 
L 243.029699 169.675929 
L 243.029699 169.390346 
L 243.181668 169.390346 
L 243.181668 169.104763 
L 243.328162 169.104763 
L 243.341953 168.533597 
L 244.122815 168.533597 
L 244.122815 168.248014 
L 244.688301 168.248014 
L 244.758022 167.676848 
L 244.872755 167.676848 
L 244.920511 166.8201 
L 245.120726 166.8201 
L 245.204238 165.677768 
L 245.542116 165.677768 
L 245.637076 164.821019 
L 245.706274 164.821019 
L 245.755933 163.96427 
L 245.830859 163.96427 
L 245.830859 163.678687 
L 245.960098 163.678687 
L 245.960098 161.96519 
L 246.143212 161.96519 
L 246.143212 161.679607 
L 246.284766 161.679607 
L 246.284766 161.394024 
L 246.457026 161.394024 
L 246.507361 160.537275 
L 246.708002 160.537275 
L 246.797432 159.680526 
L 246.880617 159.680526 
L 246.880617 159.394943 
L 247.224737 159.394943 
L 247.224737 159.10936 
L 247.545368 159.10936 
L 247.545368 158.823777 
L 247.999747 158.823777 
L 247.999747 158.538194 
L 248.226925 158.538194 
L 248.311562 157.967028 
L 248.523479 157.967028 
L 248.523479 157.681446 
L 248.715864 157.681446 
L 248.812016 157.11028 
L 248.876979 157.11028 
L 248.91092 156.539114 
L 249.086213 156.539114 
L 249.086213 154.825616 
L 249.413674 154.825616 
L 249.413674 154.540033 
L 249.656785 154.540033 
L 249.757608 153.683284 
L 249.815953 153.683284 
L 249.815953 153.397701 
L 249.953339 153.397701 
L 250.051458 149.970706 
L 250.085119 149.970706 
L 250.085119 149.685123 
L 250.305444 149.685123 
L 250.396287 148.828374 
L 250.647917 148.828374 
L 250.716945 147.40046 
L 250.819877 147.40046 
L 250.819877 147.114877 
L 250.95125 147.114877 
L 250.95125 146.543711 
L 251.134927 146.543711 
L 251.134927 146.258128 
L 251.431481 146.258128 
L 251.431481 145.972545 
L 251.59939 145.972545 
L 251.59939 145.686962 
L 251.765469 145.686962 
L 251.765469 145.401379 
L 251.970943 145.401379 
L 252.077777 144.830213 
L 252.267497 144.830213 
L 252.267497 144.54463 
L 252.391637 144.54463 
L 252.496318 143.973464 
L 252.587238 143.973464 
L 252.587238 143.687882 
L 252.740927 143.687882 
L 252.808573 143.116716 
L 252.98024 143.116716 
L 253.07909 141.688801 
L 253.177574 141.688801 
L 253.276794 139.68972 
L 253.332334 139.68972 
L 253.375644 139.118554 
L 253.55947 139.118554 
L 253.644588 138.547389 
L 253.969911 138.547389 
L 254.069028 137.976223 
L 254.111465 137.976223 
L 254.170786 137.405057 
L 254.323036 137.405057 
L 254.341631 136.833891 
L 254.440481 136.833891 
L 254.440481 136.548308 
L 254.5949 136.548308 
L 254.653885 135.977142 
L 254.752736 135.977142 
L 254.752736 135.691559 
L 255.103695 135.691559 
L 255.168697 134.83481 
L 255.37232 134.83481 
L 255.430916 134.263645 
L 255.722402 134.263645 
L 255.796445 133.406896 
L 255.885361 133.406896 
L 255.939711 132.83573 
L 256.092999 132.83573 
L 256.181915 131.693398 
L 256.330898 131.693398 
L 256.440213 131.122232 
L 256.539063 131.122232 
L 256.539063 130.836649 
L 256.691356 130.836649 
L 256.721672 129.694318 
L 256.949008 129.694318 
L 257.047858 129.123152 
L 257.15412 129.123152 
L 257.246752 127.695237 
L 257.268935 127.695237 
L 257.268935 127.124071 
L 257.470091 127.124071 
L 257.565489 125.410573 
L 257.995777 125.410573 
L 257.995777 125.124991 
L 258.121208 125.124991 
L 258.222986 124.553825 
L 258.417762 124.553825 
L 258.417762 124.268242 
L 258.536669 124.268242 
L 258.635519 123.12591 
L 258.880497 123.12591 
L 258.988866 122.269161 
L 259.256418 122.269161 
L 259.345334 120.841246 
L 259.540003 120.841246 
L 259.540003 120.555663 
L 259.765213 120.555663 
L 259.854129 119.413332 
L 259.945334 119.413332 
L 260.003638 118.271 
L 260.078128 118.271 
L 260.183565 117.128668 
L 260.257173 117.128668 
L 260.284507 116.271919 
L 260.375039 116.271919 
L 260.437619 115.700754 
L 260.5422 115.700754 
L 260.608079 114.844005 
L 260.728908 114.844005 
L 260.813032 111.131427 
L 260.88334 111.131427 
L 260.88334 110.845844 
L 261.01958 110.845844 
L 261.035758 109.989095 
L 261.237702 109.989095 
L 261.32364 109.132346 
L 261.352874 109.132346 
L 261.44179 107.990014 
L 261.502456 107.990014 
L 261.540237 107.418848 
L 261.617376 107.418848 
L 261.716226 106.847682 
L 261.81471 106.847682 
L 261.836791 106.276517 
L 261.967184 106.276517 
L 262.071053 104.848602 
L 262.100595 104.848602 
L 262.149735 103.70627 
L 262.263738 103.70627 
L 262.263738 103.420687 
L 262.412849 103.420687 
L 262.412849 103.135104 
L 262.530583 103.135104 
L 262.63521 102.278355 
L 262.664179 102.278355 
L 262.760923 101.70719 
L 262.825363 101.70719 
L 262.901628 100.279275 
L 263.026089 100.279275 
L 263.033338 99.708109 
L 263.165882 99.708109 
L 263.242196 98.85136 
L 263.299047 98.85136 
L 263.328575 98.280194 
L 263.437987 98.280194 
L 263.437987 97.994611 
L 263.601038 97.994611 
L 263.709523 97.137863 
L 263.862105 97.137863 
L 263.862105 96.85228 
L 264.109832 96.85228 
L 264.199177 95.709948 
L 264.230719 95.709948 
L 264.247648 95.138782 
L 264.433581 95.138782 
L 264.542974 93.710867 
L 264.707971 93.710867 
L 264.707971 93.425284 
L 264.822601 93.425284 
L 264.914865 89.998289 
L 264.933998 89.998289 
L 265.00021 88.855957 
L 265.189021 88.855957 
L 265.189021 88.570374 
L 265.34621 88.570374 
L 265.427157 87.999208 
L 265.48032 87.999208 
L 265.509004 87.14246 
L 265.697493 87.14246 
L 265.697493 86.856877 
L 265.90607 86.856877 
L 265.935952 86.285711 
L 266.025037 86.285711 
L 266.025037 86.000128 
L 266.291802 86.000128 
L 266.329301 84.572213 
L 266.469679 84.572213 
L 266.469679 84.28663 
L 266.838096 84.28663 
L 266.917969 83.715464 
L 267.034333 83.715464 
L 267.133184 82.858716 
L 267.221079 82.858716 
L 267.221079 82.573133 
L 267.453289 82.573133 
L 267.523613 82.001967 
L 267.63258 82.001967 
L 267.687607 80.859635 
L 267.776523 80.859635 
L 267.776523 80.574052 
L 268.425757 80.574052 
L 268.495342 78.860554 
L 268.7782 78.860554 
L 268.7782 78.574972 
L 269.160096 78.574972 
L 269.189702 77.718223 
L 269.313491 77.718223 
L 269.37634 77.147057 
L 269.787841 77.147057 
L 269.850539 76.004725 
L 269.939454 76.004725 
L 269.939454 75.719142 
L 270.177373 75.719142 
L 270.177373 75.433559 
L 270.475105 75.433559 
L 270.475105 75.147976 
L 270.588874 75.147976 
L 270.60432 74.291227 
L 270.85723 74.291227 
L 270.85723 74.005645 
L 271.015821 74.005645 
L 271.015821 73.434479 
L 271.323028 73.434479 
L 271.323028 73.148896 
L 271.506464 73.148896 
L 271.574606 71.720981 
L 271.917966 71.720981 
L 271.917966 71.149815 
L 272.032226 71.149815 
L 272.032226 70.864232 
L 272.328365 70.864232 
L 272.328365 70.293066 
L 272.630366 70.293066 
L 272.6493 69.436317 
L 273.164381 69.436317 
L 273.164381 68.865152 
L 273.431399 68.865152 
L 273.431399 68.579569 
L 273.858346 68.579569 
L 273.858346 68.293986 
L 274.173678 68.293986 
L 274.272528 66.866071 
L 274.371012 66.866071 
L 274.371012 66.580488 
L 274.52997 66.580488 
L 274.52997 66.294905 
L 274.76049 66.294905 
L 274.793297 65.723739 
L 275.207028 65.723739 
L 275.207028 65.438156 
L 275.59433 65.438156 
L 275.59433 65.152573 
L 276.021277 65.152573 
L 276.021277 64.86699 
L 276.216325 64.86699 
L 276.315175 64.295825 
L 276.923422 64.295825 
L 276.989883 62.86791 
L 277.078799 62.86791 
L 277.078799 62.296744 
L 278.462373 62.296744 
L 278.462373 61.725578 
L 278.683928 61.725578 
L 278.683928 61.439995 
L 279.03253 61.439995 
L 279.121446 60.583246 
L 279.210064 60.583246 
L 279.210064 58.298583 
L 279.777381 58.298583 
L 279.777381 57.727417 
L 280.505019 57.727417 
L 280.505019 57.441834 
L 281.334503 57.441834 
L 281.334503 56.870668 
L 281.602911 56.870668 
L 281.602911 56.585085 
L 281.820028 56.585085 
L 281.820028 56.299502 
L 281.932642 56.299502 
L 281.932642 55.728336 
L 282.105665 55.728336 
L 282.105665 55.442753 
L 282.642044 55.442753 
L 282.743634 54.300422 
L 283.144798 54.300422 
L 283.160622 53.443673 
L 283.301425 53.443673 
L 283.377149 52.586924 
L 283.724747 52.586924 
L 283.724747 52.301341 
L 283.975288 52.301341 
L 284.062766 51.444592 
L 284.220512 51.444592 
L 284.220512 51.159009 
L 284.543789 51.159009 
L 284.543789 50.873426 
L 284.776321 50.873426 
L 284.813638 50.302261 
L 285.027928 50.302261 
L 285.027928 50.016678 
L 285.201625 50.016678 
L 285.203269 49.445512 
L 285.530682 49.445512 
L 285.566053 48.874346 
L 285.794752 48.874346 
L 285.794752 48.588763 
L 286.068807 48.588763 
L 286.105413 48.017597 
L 286.798724 48.017597 
L 286.798724 47.732014 
L 287.301479 47.732014 
L 287.301479 47.446431 
L 288.619138 47.446431 
L 288.619138 47.160848 
L 289.600251 47.160848 
L 289.600251 46.875265 
L 294.062999 46.875265 
L 294.062999 46.304099 
L 297.607097 46.304099 
L 297.607097 45.161768 
L 299.775588 45.161768 
L 299.775588 44.876185 
L 300.733212 44.876185 
L 300.733212 43.733853 
L 303.300855 43.733853 
L 303.300855 43.44827 
L 304.671597 43.44827 
L 304.671597 43.162687 
L 306.144667 43.162687 
L 306.144667 42.877104 
L 306.506844 42.877104 
L 306.506844 42.591521 
L 307.892516 42.591521 
L 307.892516 42.305938 
L 308.368671 42.305938 
L 308.368671 41.734772 
L 308.610858 41.734772 
L 308.610858 41.44919 
L 308.841116 41.44919 
L 308.841116 41.163607 
L 309.211 41.163607 
L 309.211 40.878024 
L 309.556449 40.878024 
L 309.556449 40.592441 
L 309.727763 40.592441 
L 309.727763 40.306858 
L 310.182617 40.306858 
L 310.182617 40.021275 
L 310.413315 40.021275 
L 310.413315 39.735692 
L 310.676364 39.735692 
L 310.676364 39.450109 
L 311.831777 39.450109 
L 311.831777 39.164526 
L 312.054813 39.164526 
L 312.152158 38.59336 
L 312.460031 38.59336 
L 312.460031 38.022194 
L 312.777369 38.022194 
L 312.780377 37.451028 
L 313.257127 37.451028 
L 313.257127 37.165445 
L 313.403536 37.165445 
L 313.403536 36.879862 
L 313.725969 36.879862 
L 313.725969 36.59428 
L 314.012958 36.59428 
L 314.121878 36.023114 
L 314.352137 36.023114 
L 314.352137 35.737531 
L 314.995971 35.737531 
L 314.995971 35.451948 
L 316.85677 35.451948 
L 316.85677 35.166365 
L 317.342797 35.166365 
L 317.342797 34.880782 
L 317.794618 34.880782 
L 317.794618 34.595199 
L 318.291398 34.595199 
L 318.291398 34.309616 
L 319.972574 34.309616 
L 319.972574 34.024033 
L 321.015538 34.024033 
L 321.015538 33.73845 
L 321.402434 33.73845 
L 321.402434 33.452867 
L 321.948576 33.452867 
L 321.964138 32.881701 
L 322.400345 32.881701 
L 322.400345 32.310535 
L 322.816386 32.310535 
L 322.816386 32.024953 
L 323.538662 32.024953 
L 323.538662 31.73937 
L 324.246246 31.73937 
L 324.246246 31.453787 
L 324.813488 31.453787 
L 324.813488 31.168204 
L 325.169496 31.168204 
L 325.244157 30.311455 
L 325.450314 30.311455 
L 325.450314 30.025872 
L 326.118096 30.025872 
L 326.118096 29.740289 
L 326.431428 29.740289 
L 326.431428 29.454706 
L 329.866857 29.454706 
L 329.866857 29.169123 
L 330.159521 29.169123 
L 330.159521 28.88354 
L 330.662275 28.88354 
L 330.662275 28.597957 
L 331.360459 28.597957 
L 331.360459 28.312374 
L 331.994768 28.312374 
L 331.994768 28.026791 
L 332.341573 28.026791 
L 332.341573 27.741208 
L 332.497522 27.741208 
L 332.562774 27.170043 
L 332.710669 27.170043 
L 332.710669 26.88446 
L 333.543888 26.88446 
L 333.543888 26.598877 
L 334.098782 26.598877 
L 334.098782 26.313294 
L 334.301618 26.313294 
L 334.301618 26.027711 
L 334.601536 26.027711 
L 334.601536 25.742128 
L 335.044374 25.742128 
L 335.044374 25.456545 
L 335.282731 25.456545 
L 335.282731 25.170962 
L 335.547128 25.170962 
L 335.547128 24.885379 
L 335.670541 24.885379 
L 335.670541 24.599796 
L 336.162417 24.599796 
L 336.173295 24.02863 
L 337.14353 24.02863 
L 337.14353 23.743047 
L 338.770461 23.743047 
L 338.770461 23.457464 
L 339.609802 23.457464 
L 339.609802 23.171881 
L 340.112556 23.171881 
L 340.112556 22.886298 
L 342.122033 22.886298 
L 342.122033 22.600716 
L 343.103147 22.600716 
L 343.103147 22.315133 
L 343.282543 22.315133 
L 343.282543 22.02955 
L 343.551893 22.02955 
L 343.551893 21.743967 
L 343.785297 21.743967 
L 343.785297 21.458384 
L 344.533006 21.458384 
L 344.549804 20.601635 
L 345.530917 20.601635 
L 345.530917 20.030469 
L 347.436501 20.030469 
L 347.436501 19.744886 
L 347.939255 19.744886 
L 347.939255 19.459303 
L 352.016316 19.459303 
L 352.016316 19.17372 
L 352.99743 19.17372 
L 352.99743 18.888137 
L 363.808362 18.888137 
L 363.808362 18.602554 
L 450.672 18.602554 
L 450.672 18.602554 
" style="fill:none;stroke:#000000;stroke-linecap:square;stroke-width:3;"/>
   </g>
   <g id="line2d_18">
    <path clip-path="url(#pa28afa0d1a)" style="fill:none;stroke:#000000;stroke-linecap:square;stroke-width:3;"/>
   </g>
   <g id="line2d_19">
    <path clip-path="url(#pa28afa0d1a)" d="M 34.16 223.826848 
L 85.31528 223.826848 
L 85.31528 223.31374 
L 86.413209 223.31374 
L 86.413209 222.800632 
L 96.792553 222.800632 
L 96.792553 222.287524 
L 97.890482 222.287524 
L 97.890482 221.774416 
L 162.978622 221.774416 
L 162.978622 221.261309 
L 174.455895 221.261309 
L 174.455895 220.748201 
L 179.369191 220.748201 
L 179.369191 220.235093 
L 179.913381 220.235093 
L 179.913381 219.721985 
L 186.946134 219.721985 
L 186.946134 219.208877 
L 188.044063 219.208877 
L 188.044063 218.69577 
L 190.846463 218.69577 
L 190.846463 218.182662 
L 191.390654 218.182662 
L 191.390654 217.669554 
L 200.634141 217.669554 
L 200.634141 217.156446 
L 201.732071 217.156446 
L 201.732071 216.643338 
L 206.914115 216.643338 
L 206.914115 216.130231 
L 208.462574 216.130231 
L 208.462574 215.617123 
L 209.560503 215.617123 
L 209.560503 215.104015 
L 212.735077 215.104015 
L 212.735077 214.590907 
L 215.448537 214.590907 
L 215.448537 214.077799 
L 219.139234 214.077799 
L 219.139234 213.564692 
L 221.234805 213.564692 
L 221.325938 210.999152 
L 221.366727 210.999152 
L 221.366727 210.486045 
L 221.506977 210.486045 
L 221.547767 209.459829 
L 221.685771 209.459829 
L 221.786291 206.89429 
L 221.823508 206.89429 
L 221.868356 205.354967 
L 221.947938 205.354967 
L 222.049395 203.302535 
L 222.067344 203.302535 
L 222.171559 201.763212 
L 222.180627 201.763212 
L 222.274474 200.223889 
L 222.365926 200.223889 
L 222.448968 197.658349 
L 222.490356 197.658349 
L 222.51831 196.632134 
L 222.609762 196.632134 
L 222.672797 195.09281 
L 222.760262 195.09281 
L 222.859145 194.066595 
L 222.884692 194.066595 
L 222.950597 193.040379 
L 223.004098 193.040379 
L 223.108594 190.987948 
L 223.174426 190.987948 
L 223.174426 190.47484 
L 223.300293 190.47484 
L 223.344933 188.935517 
L 223.414586 188.935517 
L 223.518771 187.396193 
L 223.568762 187.396193 
L 223.610223 186.369978 
L 223.751259 186.369978 
L 223.842711 185.343762 
L 223.865552 185.343762 
L 223.957004 184.317547 
L 224.004559 184.317547 
L 224.004559 183.804439 
L 224.21235 183.804439 
L 224.237048 182.778223 
L 224.35134 182.778223 
L 224.35134 182.265115 
L 229.248724 182.265115 
L 229.248724 181.752007 
L 232.924389 181.752007 
L 232.924389 181.2389 
L 235.861131 181.2389 
L 235.861131 180.725792 
L 239.217701 180.725792 
L 239.217701 180.212684 
L 240.725997 180.212684 
L 240.725997 179.699576 
L 241.458811 179.699576 
L 241.458811 179.186468 
L 242.051313 179.186468 
L 242.142446 177.647145 
L 242.323485 177.647145 
L 242.323485 177.134037 
L 242.640016 177.134037 
L 242.640016 176.620929 
L 242.764445 176.620929 
L 242.764445 176.107822 
L 242.883852 176.107822 
L 242.883852 175.594714 
L 243.224686 175.594714 
L 243.224686 175.081606 
L 243.448516 175.081606 
L 243.448516 174.568498 
L 243.65276 174.568498 
L 243.743894 173.029175 
L 243.855641 173.029175 
L 243.924933 170.976744 
L 244.047099 170.976744 
L 244.138232 168.924312 
L 244.201438 168.924312 
L 244.306607 165.845665 
L 244.319271 165.845665 
L 244.398059 163.793234 
L 244.444187 163.793234 
L 244.536147 161.227695 
L 244.618212 161.227695 
L 244.64771 159.175264 
L 244.729775 159.175264 
L 244.826134 156.096617 
L 244.879638 156.096617 
L 244.914571 154.557294 
L 245.033977 154.557294 
L 245.115782 153.01797 
L 245.149508 153.01797 
L 245.240212 150.965539 
L 245.266463 150.965539 
L 245.374811 147.886892 
L 245.444302 147.886892 
L 245.542116 144.295138 
L 245.597983 144.295138 
L 245.700453 142.755814 
L 245.718249 142.755814 
L 245.82881 139.677167 
L 245.832541 139.677167 
L 245.924282 136.085413 
L 245.979596 136.085413 
L 246.078188 134.032981 
L 246.095553 134.032981 
L 246.112587 131.98055 
L 246.219983 131.98055 
L 246.312726 129.928119 
L 246.33939 129.928119 
L 246.439836 126.336364 
L 246.471642 126.336364 
L 246.541943 124.797041 
L 246.592567 124.797041 
L 246.680224 122.231502 
L 246.70413 122.231502 
L 246.763692 120.692178 
L 246.81545 120.692178 
L 246.904054 118.126639 
L 246.97939 118.126639 
L 247.002183 117.100424 
L 247.099463 117.100424 
L 247.203219 116.074208 
L 247.226013 116.074208 
L 247.331951 114.021777 
L 247.33985 114.021777 
L 247.446244 112.482453 
L 247.572339 112.482453 
L 247.66181 110.94313 
L 247.686631 110.94313 
L 247.752204 109.916914 
L 247.871504 109.916914 
L 247.90644 108.377591 
L 247.985797 108.377591 
L 248.08625 106.838268 
L 249.408434 106.838268 
L 249.408434 106.32516 
L 250.506363 106.32516 
L 250.506363 105.812052 
L 254.303393 105.812052 
L 254.303393 105.298944 
L 256.440862 105.298944 
L 256.440862 104.785836 
L 260.131559 104.785836 
L 260.131559 104.272729 
L 260.346428 104.272729 
L 260.346428 103.759621 
L 261.295495 103.759621 
L 261.295495 103.246513 
L 264.170057 103.246513 
L 264.170057 102.733405 
L 264.609476 102.733405 
L 264.672149 101.70719 
L 265.227975 101.70719 
L 265.227975 101.194082 
L 265.780666 101.194082 
L 265.780666 100.680974 
L 266.273597 100.680974 
L 266.273597 100.167866 
L 266.667935 100.167866 
L 266.667935 99.654758 
L 266.822274 99.654758 
L 266.822274 99.141651 
L 267.129233 99.141651 
L 267.147915 98.115435 
L 267.259478 98.115435 
L 267.259478 97.602327 
L 267.631958 97.602327 
L 267.631958 97.089219 
L 267.887299 97.089219 
L 267.887299 96.576111 
L 268.127686 96.576111 
L 268.164717 95.549896 
L 268.426852 95.549896 
L 268.449646 94.52368 
L 268.730681 94.52368 
L 268.730681 94.010572 
L 268.88085 94.010572 
L 268.88085 93.497465 
L 269.12502 93.497465 
L 269.233405 91.958141 
L 269.279359 91.958141 
L 269.279359 91.445033 
L 269.605 91.445033 
L 269.627744 90.418818 
L 269.716563 90.418818 
L 269.782083 89.392602 
L 270.107724 89.392602 
L 270.107724 88.879494 
L 270.219287 88.879494 
L 270.219287 88.366387 
L 270.344384 88.366387 
L 270.344384 87.853279 
L 270.584771 87.853279 
L 270.584771 87.340171 
L 270.847108 87.340171 
L 270.906731 85.800848 
L 271.087495 85.800848 
L 271.087495 85.28774 
L 271.386661 85.28774 
L 271.409455 84.261524 
L 272.571547 84.261524 
L 272.571547 83.748416 
L 278.297483 83.748416 
L 278.297483 83.235308 
L 280.210026 83.235308 
L 280.210026 82.722201 
L 280.65818 82.722201 
L 280.65818 82.209093 
L 281.000044 82.209093 
L 281.000044 81.695985 
L 281.544235 81.695985 
L 281.544235 81.182877 
L 286.125915 81.182877 
L 286.125915 80.669769 
L 287.305769 80.669769 
L 287.305769 80.156662 
L 290.180332 80.156662 
L 290.242511 79.130446 
L 292.650014 79.130446 
L 292.650014 78.617338 
L 293.117074 78.617338 
L 293.117074 78.10423 
L 294.688052 78.10423 
L 294.688052 77.591123 
L 295.232243 77.591123 
L 295.232243 77.078015 
L 302.287821 77.078015 
L 302.287821 76.564907 
L 302.516484 76.564907 
L 302.516484 76.051799 
L 303.060675 76.051799 
L 303.060675 75.538691 
L 305.162383 75.538691 
L 305.162383 75.025584 
L 314.365931 75.025584 
L 314.365931 74.512476 
L 314.727808 74.512476 
L 314.727808 73.999368 
L 317.60237 73.999368 
L 317.60237 73.48626 
L 322.107528 73.48626 
L 322.107528 72.973152 
L 326.94632 72.973152 
L 326.94632 72.460045 
L 327.071776 72.460045 
L 327.071776 71.946937 
L 328.053938 71.946937 
L 328.053938 71.433829 
L 330.879577 71.433829 
L 330.879577 70.920721 
L 335.480743 70.920721 
L 335.480743 70.407613 
L 335.882371 70.407613 
L 335.882371 69.894505 
L 338.498097 69.894505 
L 338.498097 69.381398 
L 339.042288 69.381398 
L 339.042288 68.86829 
L 339.17144 68.86829 
L 339.17144 68.355182 
L 343.462344 68.355182 
L 343.462344 67.842074 
L 344.006535 67.842074 
L 344.006535 67.328966 
L 344.567585 67.328966 
L 344.567585 66.815859 
L 352.396017 66.815859 
L 352.396017 66.302751 
L 355.934247 66.302751 
L 355.934247 65.789643 
L 359.249907 65.789643 
L 359.249907 65.276535 
L 369.622254 65.276535 
L 369.622254 64.763427 
L 370.811761 64.763427 
L 370.811761 64.25032 
L 371.863984 64.25032 
L 371.863984 63.737212 
L 376.828231 63.737212 
L 376.828231 63.224104 
L 377.450686 63.224104 
L 377.450686 62.710996 
L 381.327701 62.710996 
L 381.327701 62.197888 
L 384.202263 62.197888 
L 384.202263 61.684781 
L 384.499768 61.684781 
L 384.499768 61.171673 
L 388.37763 61.171673 
L 388.37763 60.658565 
L 392.3282 60.658565 
L 392.3282 60.145457 
L 393.341878 60.145457 
L 393.341878 59.632349 
L 413.432299 59.632349 
L 413.432299 59.119242 
L 418.396547 59.119242 
L 418.396547 58.606134 
L 428.309813 58.606134 
L 428.309813 58.093026 
L 433.274061 58.093026 
L 433.274061 57.579918 
L 450.672 57.579918 
L 450.672 57.579918 
" style="fill:none;stroke:#00bfbf;stroke-linecap:square;stroke-width:3;"/>
   </g>
   <g id="line2d_20">
    <path clip-path="url(#pa28afa0d1a)" style="fill:none;stroke:#00bfbf;stroke-linecap:square;stroke-width:3;"/>
   </g>
   <g id="line2d_21">
    <path clip-path="url(#pa28afa0d1a)" d="M 34.16 238.301083 
L 97.759502 238.301083 
L 97.759502 237.604175 
L 100.682311 237.604175 
L 100.682311 236.907268 
L 109.269685 236.907268 
L 109.269685 236.21036 
L 112.192494 236.21036 
L 112.192494 235.513452 
L 164.978179 235.513452 
L 164.978179 234.816545 
L 176.488361 234.816545 
L 176.488361 234.119637 
L 180.912846 234.119637 
L 180.912846 233.422729 
L 181.649555 233.422729 
L 181.649555 232.725822 
L 192.423029 232.725822 
L 192.423029 232.028914 
L 193.159738 232.028914 
L 193.159738 231.332007 
L 196.716939 231.332007 
L 196.716939 230.635099 
L 199.639748 230.635099 
L 199.639748 229.938191 
L 209.077266 229.938191 
L 209.077266 229.241284 
L 212.000075 229.241284 
L 212.000075 228.544376 
L 214.166827 228.544376 
L 214.166827 227.847469 
L 217.110251 227.847469 
L 217.110251 227.150561 
L 220.03306 227.150561 
L 220.03306 226.453653 
L 221.99372 226.453653 
L 222.07623 224.36293 
L 222.169024 224.36293 
L 222.278571 220.181485 
L 222.369349 220.181485 
L 222.477201 216.696947 
L 222.53165 216.696947 
L 222.53165 216.000039 
L 222.6498 216.000039 
L 222.729016 213.212409 
L 222.90432 213.212409 
L 222.90432 212.515501 
L 223.073015 212.515501 
L 223.073015 211.818593 
L 223.248319 211.818593 
L 223.317409 210.424778 
L 223.373478 210.424778 
L 223.399918 209.030963 
L 223.517734 209.030963 
L 223.602259 206.94024 
L 223.798185 206.94024 
L 223.871927 204.15261 
L 223.927996 204.15261 
L 223.954436 202.758794 
L 224.052705 202.758794 
L 224.156777 199.971164 
L 224.352702 199.971164 
L 224.409857 197.183533 
L 224.607222 197.183533 
L 224.607222 196.486626 
L 224.951221 196.486626 
L 224.951221 195.789718 
L 225.677009 195.789718 
L 225.677009 195.09281 
L 230.660734 195.09281 
L 230.660734 194.395903 
L 239.975408 194.395903 
L 239.975408 193.698995 
L 242.170917 193.698995 
L 242.170917 193.002088 
L 242.673331 193.002088 
L 242.673331 192.30518 
L 242.848635 192.30518 
L 242.898217 190.911365 
L 243.807827 190.911365 
L 243.807827 190.214457 
L 243.997019 190.214457 
L 243.997019 189.51755 
L 244.236076 189.51755 
L 244.336581 186.033011 
L 244.363021 186.033011 
L 244.473145 183.245381 
L 244.474133 183.245381 
L 244.565362 177.67012 
L 244.607455 177.67012 
L 244.716851 171.397951 
L 244.719557 171.397951 
L 244.830555 165.125783 
L 244.836236 165.125783 
L 244.915081 160.24743 
L 244.955005 160.24743 
L 245.038015 154.672169 
L 245.084808 154.672169 
L 245.16816 149.793815 
L 245.280734 149.793815 
L 245.365526 143.521647 
L 245.409913 143.521647 
L 245.49637 138.643293 
L 245.535254 138.643293 
L 245.638693 134.461848 
L 245.650079 134.461848 
L 245.709525 132.371125 
L 245.834619 132.371125 
L 245.903893 127.492771 
L 245.949952 127.492771 
L 245.986402 125.402049 
L 246.089139 125.402049 
L 246.188743 121.91751 
L 246.294819 121.91751 
L 246.403674 119.12988 
L 246.40834 119.12988 
L 246.491316 114.948434 
L 246.578978 114.948434 
L 246.646397 111.463896 
L 246.693191 111.463896 
L 246.730636 110.070081 
L 246.849336 110.070081 
L 246.94627 106.585543 
L 246.970827 106.585543 
L 246.997266 104.49482 
L 247.115082 104.49482 
L 247.199607 101.010282 
L 247.395533 101.010282 
L 247.487635 98.222651 
L 247.650053 98.222651 
L 247.727363 96.828836 
L 247.994051 96.828836 
L 247.994051 96.131929 
L 248.28188 96.131929 
L 248.28188 95.435021 
L 255.267588 95.435021 
L 255.267588 94.738113 
L 263.935616 94.738113 
L 263.935616 94.041206 
L 264.915686 94.041206 
L 264.960122 92.64739 
L 265.096686 92.64739 
L 265.096686 91.950483 
L 265.230996 91.950483 
L 265.309841 90.556668 
L 265.479568 90.556668 
L 265.479568 89.85976 
L 266.033453 89.85976 
L 266.091632 88.465945 
L 266.583503 88.465945 
L 266.583503 87.769037 
L 266.77777 87.769037 
L 266.77777 87.07213 
L 267.087951 87.07213 
L 267.087951 86.375222 
L 267.213485 86.375222 
L 267.257922 84.981407 
L 267.394485 84.981407 
L 267.394485 84.284499 
L 267.528795 84.284499 
L 267.60764 80.799961 
L 267.713212 80.799961 
L 267.777368 79.406146 
L 267.847522 79.406146 
L 267.926367 78.012331 
L 268.096095 78.012331 
L 268.096095 77.315423 
L 268.331253 77.315423 
L 268.389432 75.921608 
L 268.64603 75.921608 
L 268.708159 73.133977 
L 268.827029 73.133977 
L 268.881303 71.740162 
L 268.961339 71.740162 
L 269.040184 70.346347 
L 269.20003 70.346347 
L 269.209912 68.952531 
L 269.38575 68.952531 
L 269.38575 68.255624 
L 269.704477 68.255624 
L 269.763797 66.861809 
L 269.821976 66.861809 
L 269.892167 65.467993 
L 270.210894 65.467993 
L 270.313847 63.377271 
L 270.818294 63.377271 
L 270.818294 62.680363 
L 271.324711 62.680363 
L 271.324711 61.983455 
L 276.295943 61.983455 
L 276.295943 61.286548 
L 279.870284 61.286548 
L 279.870284 60.58964 
L 280.606992 60.58964 
L 280.606992 59.892732 
L 281.754736 59.892732 
L 281.754736 59.195825 
L 284.328928 59.195825 
L 284.328928 58.498917 
L 292.230611 58.498917 
L 292.230611 57.80201 
L 292.967319 57.80201 
L 292.967319 57.105102 
L 300.263595 57.105102 
L 300.263595 56.408194 
L 301.000304 56.408194 
L 301.000304 55.711287 
L 307.194085 55.711287 
L 307.194085 55.014379 
L 311.026504 55.014379 
L 311.026504 54.317471 
L 313.124264 54.317471 
L 313.124264 53.620564 
L 323.128753 53.620564 
L 323.128753 52.923656 
L 323.865461 52.923656 
L 323.865461 52.226749 
L 325.484591 52.226749 
L 325.484591 51.529841 
L 326.961171 51.529841 
L 326.961171 50.832933 
L 327.69788 50.832933 
L 327.69788 50.136026 
L 329.618172 50.136026 
L 329.618172 49.439118 
L 333.517576 49.439118 
L 333.517576 48.742211 
L 341.978499 48.742211 
L 341.978499 48.045303 
L 350.011483 48.045303 
L 350.011483 47.348395 
L 354.225025 47.348395 
L 354.225025 46.651488 
L 356.382733 46.651488 
L 356.382733 45.95458 
L 360.215152 45.95458 
L 360.215152 45.257672 
L 366.585352 45.257672 
L 366.585352 44.560765 
L 369.201991 44.560765 
L 369.201991 43.863857 
L 372.87664 43.863857 
L 372.87664 43.16695 
L 374.618337 43.16695 
L 374.618337 42.470042 
L 376.709059 42.470042 
L 376.709059 41.773134 
L 381.562318 41.773134 
L 381.562318 41.076227 
L 389.595303 41.076227 
L 389.595303 40.379319 
L 397.483494 40.379319 
L 397.483494 39.682411 
L 401.315913 39.682411 
L 401.315913 38.985504 
L 412.46046 38.985504 
L 412.46046 38.288596 
L 416.292879 38.288596 
L 416.292879 37.591689 
L 450.672 37.591689 
L 450.672 37.591689 
" style="fill:none;stroke:#bf00bf;stroke-linecap:square;stroke-width:3;"/>
   </g>
   <g id="line2d_22">
    <path clip-path="url(#pa28afa0d1a)" style="fill:none;stroke:#bf00bf;stroke-linecap:square;stroke-width:3;"/>
   </g>
   <g id="line2d_23">
    <path clip-path="url(#pa28afa0d1a)" d="M 34.16 238.301083 
L 108.27729 238.301083 
L 108.27729 237.604175 
L 110.324763 237.604175 
L 110.324763 236.907268 
L 119.758744 236.907268 
L 119.758744 236.21036 
L 121.806216 236.21036 
L 121.806216 235.513452 
L 166.815601 235.513452 
L 166.815601 234.816545 
L 178.297055 234.816545 
L 178.297055 234.119637 
L 182.314096 234.119637 
L 182.314096 233.422729 
L 183.020899 233.422729 
L 183.020899 232.725822 
L 193.79555 232.725822 
L 193.79555 232.028914 
L 194.502353 232.028914 
L 194.502353 231.332007 
L 204.174349 231.332007 
L 204.174349 230.635099 
L 206.221822 230.635099 
L 206.221822 229.938191 
L 215.480543 229.938191 
L 215.480543 229.241284 
L 215.830042 229.241284 
L 215.830042 228.544376 
L 217.877515 228.544376 
L 217.877515 227.847469 
L 220.997634 227.847469 
L 220.997634 227.150561 
L 222.837676 227.150561 
L 222.922364 225.059838 
L 222.984923 225.059838 
L 223.077332 220.878392 
L 223.12422 220.878392 
L 223.224578 218.787669 
L 223.271467 218.787669 
L 223.378605 216.000039 
L 223.465604 216.000039 
L 223.565687 213.212409 
L 223.712934 213.212409 
L 223.712934 212.515501 
L 223.919212 212.515501 
L 223.919212 211.818593 
L 224.066459 211.818593 
L 224.160388 209.72787 
L 224.184317 209.72787 
L 224.293152 208.334055 
L 224.339284 208.334055 
L 224.386173 206.94024 
L 224.58031 206.94024 
L 224.681818 202.758794 
L 224.790653 202.758794 
L 224.883674 199.971164 
L 225.077811 199.971164 
L 225.181165 197.183533 
L 225.325141 197.183533 
L 225.325141 196.486626 
L 225.678666 196.486626 
L 225.678666 195.789718 
L 226.961997 195.789718 
L 226.961997 195.09281 
L 231.317578 195.09281 
L 231.317578 194.395903 
L 240.009046 194.395903 
L 240.009046 193.698995 
L 242.056519 193.698995 
L 242.056519 193.002088 
L 242.799032 193.002088 
L 242.799032 192.30518 
L 243.509251 192.30518 
L 243.509251 191.608272 
L 243.656498 191.608272 
L 243.656498 190.911365 
L 243.981653 190.911365 
L 243.981653 190.214457 
L 244.771204 190.214457 
L 244.771204 189.51755 
L 244.9633 189.51755 
L 245.071805 186.033011 
L 245.095735 186.033011 
L 245.20457 181.851566 
L 245.226824 181.851566 
L 245.335659 175.579397 
L 245.359148 175.579397 
L 245.467983 170.004136 
L 245.491728 170.004136 
L 245.592135 163.03506 
L 245.616064 163.03506 
L 245.724899 158.156707 
L 245.739058 158.156707 
L 245.81792 151.884538 
L 245.870147 151.884538 
L 245.952332 149.793815 
L 246.002471 149.793815 
L 246.092583 142.127831 
L 246.114478 142.127831 
L 246.223671 137.946386 
L 246.259387 137.946386 
L 246.355995 133.068032 
L 246.372771 133.068032 
L 246.413641 131.674217 
L 246.510471 131.674217 
L 246.612912 126.795864 
L 246.627156 126.795864 
L 246.678671 124.705141 
L 246.757801 124.705141 
L 246.833638 121.91751 
L 246.880527 121.91751 
L 246.880527 121.220603 
L 247.067038 121.220603 
L 247.167762 114.948434 
L 247.233889 114.948434 
L 247.321994 112.160804 
L 247.357474 112.160804 
L 247.388431 110.070081 
L 247.551611 110.070081 
L 247.639559 105.888635 
L 247.663488 105.888635 
L 247.772323 103.797912 
L 247.798941 103.797912 
L 247.885932 101.010282 
L 248.059482 101.010282 
L 248.152465 98.222651 
L 248.306812 98.222651 
L 248.306812 97.525744 
L 248.495841 97.525744 
L 248.495841 96.828836 
L 248.660336 96.828836 
L 248.660336 96.131929 
L 248.993342 96.131929 
L 248.993342 95.435021 
L 256.025732 95.435021 
L 256.025732 94.738113 
L 262.71266 94.738113 
L 262.71266 94.041206 
L 265.634874 94.041206 
L 265.682622 92.64739 
L 265.813711 92.64739 
L 265.813711 91.950483 
L 265.946034 91.950483 
L 266.00368 90.556668 
L 266.202951 90.556668 
L 266.202951 89.85976 
L 266.701364 89.85976 
L 266.757801 88.465945 
L 267.265558 88.465945 
L 267.265558 87.769037 
L 267.507186 87.769037 
L 267.507186 87.07213 
L 267.742504 87.07213 
L 267.742504 86.375222 
L 267.930709 86.375222 
L 267.978456 84.981407 
L 268.109545 84.981407 
L 268.109545 84.284499 
L 268.241869 84.284499 
L 268.299849 80.799961 
L 268.430938 80.799961 
L 268.498785 79.406146 
L 268.563262 79.406146 
L 268.620908 78.012331 
L 268.820178 78.012331 
L 268.820178 77.315423 
L 268.997199 77.315423 
L 269.053636 75.921608 
L 269.318592 75.921608 
L 269.407259 73.133977 
L 269.538348 73.133977 
L 269.561392 71.740162 
L 269.670672 71.740162 
L 269.728318 70.346347 
L 269.882785 70.346347 
L 269.927588 68.952531 
L 270.038339 68.952531 
L 270.038339 68.255624 
L 270.359732 68.255624 
L 270.426002 66.861809 
L 270.482439 66.861809 
L 270.54621 65.467993 
L 270.867603 65.467993 
L 270.867603 64.771086 
L 270.990195 64.771086 
L 270.990195 64.074178 
L 271.170673 64.074178 
L 271.170673 63.377271 
L 271.467142 63.377271 
L 271.467142 62.680363 
L 271.975013 62.680363 
L 271.975013 61.983455 
L 274.368353 61.983455 
L 274.368353 61.286548 
L 278.211155 61.286548 
L 278.211155 60.58964 
L 278.917958 60.58964 
L 278.917958 59.892732 
L 279.535945 59.892732 
L 279.535945 59.195825 
L 282.652127 59.195825 
L 282.652127 58.498917 
L 289.866848 58.498917 
L 289.866848 57.80201 
L 290.573651 57.80201 
L 290.573651 57.105102 
L 295.03444 57.105102 
L 295.03444 56.408194 
L 295.741243 56.408194 
L 295.741243 55.711287 
L 298.547357 55.711287 
L 298.547357 55.014379 
L 302.519964 55.014379 
L 302.519964 54.317471 
L 311.377603 54.317471 
L 311.377603 53.620564 
L 314.045852 53.620564 
L 314.045852 52.923656 
L 314.752655 52.923656 
L 314.752655 52.226749 
L 318.018459 52.226749 
L 318.018459 51.529841 
L 318.725262 51.529841 
L 318.725262 50.832933 
L 323.033295 50.832933 
L 323.033295 50.136026 
L 327.214637 50.136026 
L 327.214637 49.439118 
L 328.200888 49.439118 
L 328.200888 48.742211 
L 338.87033 48.742211 
L 338.87033 48.045303 
L 344.037922 48.045303 
L 344.037922 47.348395 
L 347.212299 47.348395 
L 347.212299 46.651488 
L 351.184906 46.651488 
L 351.184906 45.95458 
L 351.922791 45.95458 
L 351.922791 45.257672 
L 363.049334 45.257672 
L 363.049334 44.560765 
L 363.578484 44.560765 
L 363.578484 43.863857 
L 367.021941 43.863857 
L 367.067733 42.470042 
L 368.746076 42.470042 
L 368.746076 41.773134 
L 378.723425 41.773134 
L 378.723425 41.076227 
L 383.891018 41.076227 
L 383.891018 40.379319 
L 387.757488 40.379319 
L 387.757488 39.682411 
L 391.730095 39.682411 
L 391.730095 38.985504 
L 402.902429 38.985504 
L 402.902429 38.288596 
L 406.875036 38.288596 
L 406.875036 37.591689 
L 450.672 37.591689 
L 450.672 37.591689 
" style="fill:none;stroke:#ff0000;stroke-linecap:square;stroke-width:3;"/>
   </g>
   <g id="line2d_24">
    <path clip-path="url(#pa28afa0d1a)" style="fill:none;stroke:#ff0000;stroke-linecap:square;stroke-width:3;"/>
   </g>
   <g id="line2d_25">
    <path clip-path="url(#pa28afa0d1a)" d="M 242.416 291.28 
L 242.416 5.52 
" style="fill:none;stroke:#000000;stroke-linecap:square;stroke-width:1.5;"/>
   </g>
   <g id="line2d_26">
    <path clip-path="url(#pa28afa0d1a)" d="M 34.16 148.4 
L 450.672 148.4 
" style="fill:none;stroke:#000000;stroke-dasharray:2,3.3;stroke-dashoffset:0;stroke-width:2;"/>
   </g>
   <g id="patch_3">
    <path d="M 34.16 291.28 
L 34.16 5.52 
" style="fill:none;stroke:#000000;stroke-linecap:square;stroke-linejoin:miter;stroke-width:0.8;"/>
   </g>
   <g id="patch_4">
    <path d="M 450.672 291.28 
L 450.672 5.52 
" style="fill:none;stroke:#000000;stroke-linecap:square;stroke-linejoin:miter;stroke-width:0.8;"/>
   </g>
   <g id="patch_5">
    <path d="M 34.16 291.28 
L 450.672 291.28 
" style="fill:none;stroke:#000000;stroke-linecap:square;stroke-linejoin:miter;stroke-width:0.8;"/>
   </g>
   <g id="patch_6">
    <path d="M 34.16 5.52 
L 450.672 5.52 
" style="fill:none;stroke:#000000;stroke-linecap:square;stroke-linejoin:miter;stroke-width:0.8;"/>
   </g>
   <g id="text_6">
    <!-- f20-f24,20-D -->
    <defs>
     <path d="M 37.796875 64.3125 
L 12.890625 25.390625 
L 37.796875 25.390625 
z
M 35.203125 72.90625 
L 47.609375 72.90625 
L 47.609375 25.390625 
L 58.015625 25.390625 
L 58.015625 17.1875 
L 47.609375 17.1875 
L 47.609375 0 
L 37.796875 0 
L 37.796875 17.1875 
L 4.890625 17.1875 
L 4.890625 26.703125 
z
" id="DejaVuSans-52"/>
     <path d="M 11.71875 12.40625 
L 22.015625 12.40625 
L 22.015625 4 
L 14.015625 -11.625 
L 7.71875 -11.625 
L 11.71875 4 
z
" id="DejaVuSans-44"/>
     <path d="M 19.671875 64.796875 
L 19.671875 8.109375 
L 31.59375 8.109375 
Q 46.6875 8.109375 53.6875 14.9375 
Q 60.6875 21.78125 60.6875 36.53125 
Q 60.6875 51.171875 53.6875 57.984375 
Q 46.6875 64.796875 31.59375 64.796875 
z
M 9.8125 72.90625 
L 30.078125 72.90625 
Q 51.265625 72.90625 61.171875 64.09375 
Q 71.09375 55.28125 71.09375 36.53125 
Q 71.09375 17.671875 61.125 8.828125 
Q 51.171875 0 30.078125 0 
L 9.8125 0 
z
" id="DejaVuSans-68"/>
    </defs>
    <g transform="translate(315.72301 285.5648)scale(0.2 -0.2)">
     <use xlink:href="#DejaVuSans-102"/>
     <use x="35.205078" xlink:href="#DejaVuSans-50"/>
     <use x="98.828125" xlink:href="#DejaVuSans-48"/>
     <use x="162.451172" xlink:href="#DejaVuSans-45"/>
     <use x="198.535156" xlink:href="#DejaVuSans-102"/>
     <use x="233.740234" xlink:href="#DejaVuSans-50"/>
     <use x="297.363281" xlink:href="#DejaVuSans-52"/>
     <use x="360.986328" xlink:href="#DejaVuSans-44"/>
     <use x="392.773438" xlink:href="#DejaVuSans-50"/>
     <use x="456.396484" xlink:href="#DejaVuSans-48"/>
     <use x="520.019531" xlink:href="#DejaVuSans-45"/>
     <use x="556.103516" xlink:href="#DejaVuSans-68"/>
    </g>
   </g>
   <g id="text_7">
    <!-- v2.3.1.30 -->
    <defs>
     <path d="M 10.6875 12.40625 
L 21 12.40625 
L 21 0 
L 10.6875 0 
z
" id="DejaVuSans-46"/>
     <path d="M 40.578125 39.3125 
Q 47.65625 37.796875 51.625 33 
Q 55.609375 28.21875 55.609375 21.1875 
Q 55.609375 10.40625 48.1875 4.484375 
Q 40.765625 -1.421875 27.09375 -1.421875 
Q 22.515625 -1.421875 17.65625 -0.515625 
Q 12.796875 0.390625 7.625 2.203125 
L 7.625 11.71875 
Q 11.71875 9.328125 16.59375 8.109375 
Q 21.484375 6.890625 26.8125 6.890625 
Q 36.078125 6.890625 40.9375 10.546875 
Q 45.796875 14.203125 45.796875 21.1875 
Q 45.796875 27.640625 41.28125 31.265625 
Q 36.765625 34.90625 28.71875 34.90625 
L 20.21875 34.90625 
L 20.21875 43.015625 
L 29.109375 43.015625 
Q 36.375 43.015625 40.234375 45.921875 
Q 44.09375 48.828125 44.09375 54.296875 
Q 44.09375 59.90625 40.109375 62.90625 
Q 36.140625 65.921875 28.71875 65.921875 
Q 24.65625 65.921875 20.015625 65.03125 
Q 15.375 64.15625 9.8125 62.3125 
L 9.8125 71.09375 
Q 15.4375 72.65625 20.34375 73.4375 
Q 25.25 74.21875 29.59375 74.21875 
Q 40.828125 74.21875 47.359375 69.109375 
Q 53.90625 64.015625 53.90625 55.328125 
Q 53.90625 49.265625 50.4375 45.09375 
Q 46.96875 40.921875 40.578125 39.3125 
z
" id="DejaVuSans-51"/>
    </defs>
    <g style="fill:#808080;" transform="translate(218.783187 286.342713)scale(0.1 -0.1)">
     <use xlink:href="#DejaVuSans-118"/>
     <use x="59.179688" xlink:href="#DejaVuSans-50"/>
     <use x="122.802734" xlink:href="#DejaVuSans-46"/>
     <use x="154.589844" xlink:href="#DejaVuSans-51"/>
     <use x="218.212891" xlink:href="#DejaVuSans-46"/>
     <use x="250" xlink:href="#DejaVuSans-49"/>
     <use x="313.623047" xlink:href="#DejaVuSans-46"/>
     <use x="345.410156" xlink:href="#DejaVuSans-51"/>
     <use x="409.033203" xlink:href="#DejaVuSans-48"/>
    </g>
   </g>
   <g id="legend_1">
    <g id="patch_7">
     <path d="M 48.16 138.945 
L 177.381875 138.945 
Q 181.381875 138.945 181.381875 134.945 
L 181.381875 19.52 
Q 181.381875 15.52 177.381875 15.52 
L 48.16 15.52 
Q 44.16 15.52 44.16 19.52 
L 44.16 134.945 
Q 44.16 138.945 48.16 138.945 
z
" style="fill:#ffffff;opacity:0.2;stroke:#cccccc;stroke-linejoin:miter;"/>
    </g>
    <g id="line2d_27">
     <path d="M 52.16 31.716875 
L 92.16 31.716875 
" style="fill:none;stroke:#000000;stroke-linecap:square;stroke-width:3;"/>
    </g>
    <g id="line2d_28"/>
    <g id="text_8">
     <!-- 1: 5/5 -->
     <defs>
      <path d="M 11.71875 12.40625 
L 22.015625 12.40625 
L 22.015625 0 
L 11.71875 0 
z
M 11.71875 51.703125 
L 22.015625 51.703125 
L 22.015625 39.3125 
L 11.71875 39.3125 
z
" id="DejaVuSans-58"/>
      <path d="M 10.796875 72.90625 
L 49.515625 72.90625 
L 49.515625 64.59375 
L 19.828125 64.59375 
L 19.828125 46.734375 
Q 21.96875 47.46875 24.109375 47.828125 
Q 26.265625 48.1875 28.421875 48.1875 
Q 40.625 48.1875 47.75 41.5 
Q 54.890625 34.8125 54.890625 23.390625 
Q 54.890625 11.625 47.5625 5.09375 
Q 40.234375 -1.421875 26.90625 -1.421875 
Q 22.3125 -1.421875 17.546875 -0.640625 
Q 12.796875 0.140625 7.71875 1.703125 
L 7.71875 11.625 
Q 12.109375 9.234375 16.796875 8.0625 
Q 21.484375 6.890625 26.703125 6.890625 
Q 35.15625 6.890625 40.078125 11.328125 
Q 45.015625 15.765625 45.015625 23.390625 
Q 45.015625 31 40.078125 35.4375 
Q 35.15625 39.890625 26.703125 39.890625 
Q 22.75 39.890625 18.8125 39.015625 
Q 14.890625 38.140625 10.796875 36.28125 
z
" id="DejaVuSans-53"/>
      <path d="M 25.390625 72.90625 
L 33.6875 72.90625 
L 8.296875 -9.28125 
L 0 -9.28125 
z
" id="DejaVuSans-47"/>
     </defs>
     <g transform="translate(108.16 38.716875)scale(0.2 -0.2)">
      <use xlink:href="#DejaVuSans-49"/>
      <use x="63.623047" xlink:href="#DejaVuSans-58"/>
      <use x="97.314453" xlink:href="#DejaVuSans-32"/>
      <use x="129.101562" xlink:href="#DejaVuSans-53"/>
      <use x="192.724609" xlink:href="#DejaVuSans-47"/>
      <use x="226.416016" xlink:href="#DejaVuSans-53"/>
     </g>
    </g>
    <g id="line2d_29">
     <path d="M 52.16 61.073125 
L 92.16 61.073125 
" style="fill:none;stroke:#00bfbf;stroke-linecap:square;stroke-width:3;"/>
    </g>
    <g id="line2d_30"/>
    <g id="text_9">
     <!-- -1: 3/3 -->
     <g transform="translate(108.16 68.073125)scale(0.2 -0.2)">
      <use xlink:href="#DejaVuSans-45"/>
      <use x="36.083984" xlink:href="#DejaVuSans-49"/>
      <use x="99.707031" xlink:href="#DejaVuSans-58"/>
      <use x="133.398438" xlink:href="#DejaVuSans-32"/>
      <use x="165.185547" xlink:href="#DejaVuSans-51"/>
      <use x="228.808594" xlink:href="#DejaVuSans-47"/>
      <use x="262.5" xlink:href="#DejaVuSans-51"/>
     </g>
    </g>
    <g id="line2d_31">
     <path d="M 52.16 90.429375 
L 92.16 90.429375 
" style="fill:none;stroke:#bf00bf;stroke-linecap:square;stroke-width:3;"/>
    </g>
    <g id="line2d_32"/>
    <g id="text_10">
     <!-- -4: 2/2 -->
     <g transform="translate(108.16 97.429375)scale(0.2 -0.2)">
      <use xlink:href="#DejaVuSans-45"/>
      <use x="36.083984" xlink:href="#DejaVuSans-52"/>
      <use x="99.707031" xlink:href="#DejaVuSans-58"/>
      <use x="133.398438" xlink:href="#DejaVuSans-32"/>
      <use x="165.185547" xlink:href="#DejaVuSans-50"/>
      <use x="228.808594" xlink:href="#DejaVuSans-47"/>
      <use x="262.5" xlink:href="#DejaVuSans-50"/>
     </g>
    </g>
    <g id="line2d_33">
     <path d="M 52.16 119.785625 
L 92.16 119.785625 
" style="fill:none;stroke:#ff0000;stroke-linecap:square;stroke-width:3;"/>
    </g>
    <g id="line2d_34"/>
    <g id="text_11">
     <!-- -8: 2/2 -->
     <defs>
      <path d="M 31.78125 34.625 
Q 24.75 34.625 20.71875 30.859375 
Q 16.703125 27.09375 16.703125 20.515625 
Q 16.703125 13.921875 20.71875 10.15625 
Q 24.75 6.390625 31.78125 6.390625 
Q 38.8125 6.390625 42.859375 10.171875 
Q 46.921875 13.96875 46.921875 20.515625 
Q 46.921875 27.09375 42.890625 30.859375 
Q 38.875 34.625 31.78125 34.625 
z
M 21.921875 38.8125 
Q 15.578125 40.375 12.03125 44.71875 
Q 8.5 49.078125 8.5 55.328125 
Q 8.5 64.0625 14.71875 69.140625 
Q 20.953125 74.21875 31.78125 74.21875 
Q 42.671875 74.21875 48.875 69.140625 
Q 55.078125 64.0625 55.078125 55.328125 
Q 55.078125 49.078125 51.53125 44.71875 
Q 48 40.375 41.703125 38.8125 
Q 48.828125 37.15625 52.796875 32.3125 
Q 56.78125 27.484375 56.78125 20.515625 
Q 56.78125 9.90625 50.3125 4.234375 
Q 43.84375 -1.421875 31.78125 -1.421875 
Q 19.734375 -1.421875 13.25 4.234375 
Q 6.78125 9.90625 6.78125 20.515625 
Q 6.78125 27.484375 10.78125 32.3125 
Q 14.796875 37.15625 21.921875 38.8125 
z
M 18.3125 54.390625 
Q 18.3125 48.734375 21.84375 45.5625 
Q 25.390625 42.390625 31.78125 42.390625 
Q 38.140625 42.390625 41.71875 45.5625 
Q 45.3125 48.734375 45.3125 54.390625 
Q 45.3125 60.0625 41.71875 63.234375 
Q 38.140625 66.40625 31.78125 66.40625 
Q 25.390625 66.40625 21.84375 63.234375 
Q 18.3125 60.0625 18.3125 54.390625 
z
" id="DejaVuSans-56"/>
     </defs>
     <g transform="translate(108.16 126.785625)scale(0.2 -0.2)">
      <use xlink:href="#DejaVuSans-45"/>
      <use x="36.083984" xlink:href="#DejaVuSans-56"/>
      <use x="99.707031" xlink:href="#DejaVuSans-58"/>
      <use x="133.398438" xlink:href="#DejaVuSans-32"/>
      <use x="165.185547" xlink:href="#DejaVuSans-50"/>
      <use x="228.808594" xlink:href="#DejaVuSans-47"/>
      <use x="262.5" xlink:href="#DejaVuSans-50"/>
     </g>
    </g>
   </g>
  </g>
 </g>
 <defs>
  <clipPath id="pa28afa0d1a">
   <rect height="285.76" width="416.512" x="34.16" y="5.52"/>
  </clipPath>
 </defs>
</svg>
