<?xml version="1.0" encoding="utf-8" standalone="no"?>
<!DOCTYPE svg PUBLIC "-//W3C//DTD SVG 1.1//EN"
  "http://www.w3.org/Graphics/SVG/1.1/DTD/svg11.dtd">
<!-- Created with matplotlib (https://matplotlib.org/) -->
<svg height="345.6pt" version="1.1" viewBox="0 0 460.8 345.6" width="460.8pt" xmlns="http://www.w3.org/2000/svg" xmlns:xlink="http://www.w3.org/1999/xlink">
 <defs>
  <style type="text/css">
*{stroke-linecap:butt;stroke-linejoin:round;}
  </style>
 </defs>
 <g id="figure_1">
  <g id="patch_1">
   <path d="M 0 345.6 
L 460.8 345.6 
L 460.8 0 
L 0 0 
z
" style="fill:#ffffff;"/>
  </g>
  <g id="axes_1">
   <g id="patch_2">
    <path d="M 59.72 52.002867 
L 450.672 52.002867 
L 450.672 6.845228 
L 59.72 6.845228 
z
" style="fill:#ffffff;"/>
   </g>
   <g id="line2d_1"/>
   <g id="line2d_2"/>
   <g id="line2d_3">
    <path clip-path="url(#pd33e77437c)" d="M 192.068641 52.002867 
L 192.068641 51.406727 
L 221.619716 51.406727 
L 221.619716 50.810586 
L 234.679748 50.810586 
L 234.679748 50.214446 
L 256.206168 50.214446 
L 256.206168 49.618305 
L 260.577111 49.618305 
L 260.577111 49.022165 
L 260.86689 49.022165 
L 260.86689 48.426025 
L 262.677628 48.426025 
L 262.677628 47.829884 
L 269.172581 47.829884 
L 269.172581 47.233744 
L 277.780491 47.233744 
L 277.780491 46.637603 
L 283.794196 46.637603 
L 283.794196 46.041463 
L 284.536769 46.041463 
L 284.536769 45.445322 
L 288.206775 45.445322 
L 288.206775 44.849182 
L 298.363279 44.849182 
L 298.363279 44.253041 
L 322.679149 44.253041 
L 322.679149 43.656901 
L 324.157565 43.656901 
L 324.157565 43.06076 
L 324.962785 43.06076 
L 324.962785 42.46462 
L 324.962785 42.46462 
L 324.962785 42.46462 
L 450.672 42.46462 
" style="fill:none;stroke:#f5deb3;stroke-linecap:square;stroke-width:1.5;"/>
   </g>
   <g id="line2d_4">
    <path clip-path="url(#pd33e77437c)" d="M 217.055328 52.002867 
L 217.055328 51.406727 
L 224.318749 51.406727 
L 224.318749 50.810586 
L 228.202706 50.810586 
L 228.202706 50.214446 
L 242.944047 50.214446 
L 242.944047 49.618305 
L 245.507099 49.618305 
L 245.507099 49.022165 
L 278.388185 49.022165 
L 278.388185 48.426025 
L 280.503801 48.426025 
L 280.503801 47.829884 
L 283.360513 47.829884 
L 283.360513 47.233744 
L 287.632727 47.233744 
L 287.632727 46.637603 
L 289.140613 46.637603 
L 289.140613 46.041463 
L 293.471355 46.041463 
L 293.471355 45.445322 
L 295.505883 45.445322 
L 295.505883 44.849182 
L 296.606733 44.849182 
L 296.606733 44.253041 
L 299.46287 44.253041 
L 299.46287 43.656901 
L 302.642141 43.656901 
L 302.642141 43.06076 
L 302.769032 43.06076 
L 302.769032 42.46462 
L 303.763347 42.46462 
L 303.763347 41.86848 
L 305.88258 41.86848 
L 305.88258 41.272339 
L 307.944932 41.272339 
L 307.944932 40.676199 
L 308.073128 40.676199 
L 308.073128 40.080058 
L 309.985822 40.080058 
L 309.985822 39.483918 
L 310.211829 39.483918 
L 310.211829 38.887777 
L 314.562585 38.887777 
L 314.562585 38.291637 
L 317.302263 38.291637 
L 317.302263 37.695496 
L 317.667836 37.695496 
L 317.667836 37.099356 
L 319.859763 37.099356 
L 319.859763 36.503215 
L 319.859763 36.503215 
L 319.859763 36.503215 
L 450.672 36.503215 
" style="fill:none;stroke:#f5deb3;stroke-linecap:square;stroke-width:1.5;"/>
   </g>
   <g id="line2d_5"/>
   <g id="line2d_6"/>
   <g id="line2d_7">
    <path clip-path="url(#pd33e77437c)" d="M 196.105808 52.002867 
L 196.105808 51.406727 
L 250.030075 51.406727 
L 250.030075 50.810586 
L 250.7774 50.810586 
L 250.7774 50.214446 
L 280.11843 50.214446 
L 280.11843 49.618305 
L 281.869343 49.618305 
L 281.869343 49.022165 
L 304.220097 49.022165 
L 304.220097 48.426025 
L 308.887735 48.426025 
L 308.887735 47.829884 
L 312.537546 47.829884 
L 312.537546 47.233744 
L 315.12816 47.233744 
L 315.12816 46.637603 
L 332.095463 46.637603 
L 332.095463 46.041463 
L 346.799676 46.041463 
L 346.799676 45.445322 
L 351.246684 45.445322 
L 351.246684 44.849182 
L 353.397626 44.849182 
L 353.397626 44.253041 
L 359.020741 44.253041 
L 359.020741 43.656901 
L 386.814926 43.656901 
L 386.814926 43.06076 
L 394.336992 43.06076 
L 394.336992 42.46462 
L 436.944468 42.46462 
L 436.944468 41.86848 
L 442.5146 41.86848 
L 442.5146 41.272339 
L 445.004437 41.272339 
L 445.004437 40.676199 
L 449.272474 40.676199 
L 449.272474 40.080058 
L 461.8 40.080058 
" style="fill:none;stroke:#f5deb3;stroke-linecap:square;stroke-width:1.5;"/>
   </g>
   <g id="line2d_8"/>
   <g id="line2d_9">
    <path clip-path="url(#pd33e77437c)" d="M 195.976481 52.002867 
L 195.976481 51.406727 
L 196.907525 51.406727 
L 196.907525 50.810586 
L 233.026414 50.810586 
L 233.026414 50.214446 
L 256.600326 50.214446 
L 256.600326 49.618305 
L 274.508515 49.618305 
L 274.508515 49.022165 
L 276.810709 49.022165 
L 276.810709 48.426025 
L 305.276319 48.426025 
L 305.276319 47.829884 
L 318.281416 47.829884 
L 318.281416 47.233744 
L 330.828839 47.233744 
L 330.828839 46.637603 
L 333.589555 46.637603 
L 333.589555 46.041463 
L 334.016964 46.041463 
L 334.016964 45.445322 
L 334.18739 45.445322 
L 334.18739 44.849182 
L 345.085992 44.849182 
L 345.085992 44.253041 
L 345.300628 44.253041 
L 345.300628 43.656901 
L 345.993471 43.656901 
L 345.993471 43.06076 
L 346.520009 43.06076 
L 346.520009 42.46462 
L 347.977331 42.46462 
L 347.977331 41.86848 
L 356.737639 41.86848 
L 356.737639 41.272339 
L 357.133487 41.272339 
L 357.133487 40.676199 
L 361.720321 40.676199 
L 361.720321 40.080058 
L 362.53848 40.080058 
L 362.53848 39.483918 
L 362.839134 39.483918 
L 362.839134 38.887777 
L 363.386586 38.887777 
L 363.386586 38.291637 
L 369.93136 38.291637 
L 369.93136 37.695496 
L 371.306969 37.695496 
L 371.306969 37.099356 
L 372.9335 37.099356 
L 372.9335 36.503215 
L 375.582861 36.503215 
L 375.582861 35.907075 
L 375.65306 35.907075 
L 375.65306 35.310935 
L 377.180708 35.310935 
L 377.180708 34.714794 
L 377.655039 34.714794 
L 377.655039 34.118654 
L 377.743533 34.118654 
L 377.743533 33.522513 
L 390.285152 33.522513 
L 390.285152 32.926373 
L 394.379756 32.926373 
L 394.379756 32.330232 
L 400.542392 32.330232 
L 400.542392 31.734092 
L 400.834243 31.734092 
L 400.834243 31.137951 
L 402.531171 31.137951 
L 402.531171 30.541811 
L 402.660146 30.541811 
L 402.660146 29.94567 
L 403.779129 29.94567 
L 403.779129 29.34953 
L 425.069306 29.34953 
L 425.069306 28.75339 
L 425.10478 28.75339 
L 425.10478 28.157249 
L 425.315069 28.157249 
L 425.315069 27.561109 
L 425.390492 27.561109 
L 425.390492 26.964968 
L 425.412208 26.964968 
L 425.412208 26.368828 
L 425.751094 26.368828 
L 425.751094 25.772687 
L 426.025721 25.772687 
L 426.025721 25.176547 
L 426.35178 25.176547 
L 426.35178 24.580406 
L 426.451319 24.580406 
L 426.451319 23.984266 
L 431.702905 23.984266 
L 431.702905 23.388125 
L 436.42835 23.388125 
L 436.42835 22.791985 
L 441.47462 22.791985 
L 441.47462 22.195844 
L 441.47462 22.195844 
L 441.47462 22.195844 
L 450.672 22.195844 
" style="fill:none;stroke:#f5deb3;stroke-linecap:square;stroke-width:1.5;"/>
   </g>
   <g id="line2d_10">
    <path clip-path="url(#pd33e77437c)" d="M 341.229071 52.002867 
L 341.229071 51.406727 
L 373.269462 51.406727 
L 373.269462 50.810586 
L 373.269462 50.810586 
L 373.269462 50.810586 
L 450.672 50.810586 
" style="fill:none;stroke:#f5deb3;stroke-linecap:square;stroke-width:1.5;"/>
   </g>
   <g id="line2d_11">
    <path clip-path="url(#pd33e77437c)" d="M 216.639792 52.002867 
L 216.639792 51.406727 
L 233.337699 51.406727 
L 233.337699 50.810586 
L 249.573038 50.810586 
L 249.573038 50.214446 
L 250.576206 50.214446 
L 250.576206 49.618305 
L 257.599748 49.618305 
L 257.599748 49.022165 
L 268.72098 49.022165 
L 268.72098 48.426025 
L 276.606733 48.426025 
L 276.606733 47.829884 
L 286.858279 47.829884 
L 286.858279 47.233744 
L 287.044271 47.233744 
L 287.044271 46.637603 
L 294.179879 46.637603 
L 294.179879 46.041463 
L 294.585517 46.041463 
L 294.585517 45.445322 
L 295.028947 45.445322 
L 295.028947 44.849182 
L 300.048205 44.849182 
L 300.048205 44.253041 
L 308.164425 44.253041 
L 308.164425 43.656901 
L 310.699041 43.656901 
L 310.699041 43.06076 
L 311.7649 43.06076 
L 311.7649 42.46462 
L 313.515975 42.46462 
L 313.515975 41.86848 
L 320.077962 41.86848 
L 320.077962 41.272339 
L 320.88546 41.272339 
L 320.88546 40.676199 
L 322.053774 40.676199 
L 322.053774 40.080058 
L 327.540871 40.080058 
L 327.540871 39.483918 
L 330.632921 39.483918 
L 330.632921 38.887777 
L 332.112395 38.887777 
L 332.112395 38.291637 
L 334.930361 38.291637 
L 334.930361 37.695496 
L 338.57583 37.695496 
L 338.57583 37.099356 
L 351.887143 37.099356 
L 351.887143 36.503215 
L 354.974056 36.503215 
L 354.974056 35.907075 
L 359.220946 35.907075 
L 359.220946 35.310935 
L 365.357617 35.310935 
L 365.357617 34.714794 
L 374.489557 34.714794 
L 374.489557 34.118654 
L 374.489557 34.118654 
L 374.489557 34.118654 
L 450.672 34.118654 
" style="fill:none;stroke:#f5deb3;stroke-linecap:square;stroke-width:1.5;"/>
   </g>
   <g id="line2d_12">
    <path clip-path="url(#pd33e77437c)" d="M 227.040473 52.002867 
L 227.040473 51.406727 
L 291.510938 51.406727 
L 291.510938 50.810586 
L 291.510938 50.810586 
L 291.510938 50.810586 
L 450.672 50.810586 
" style="fill:none;stroke:#f5deb3;stroke-linecap:square;stroke-width:1.5;"/>
   </g>
   <g id="line2d_13"/>
   <g id="line2d_14">
    <path clip-path="url(#pd33e77437c)" d="M 180.222479 52.002867 
L 180.222479 51.406727 
L 204.073858 51.406727 
L 204.073858 50.810586 
L 226.350852 50.810586 
L 226.350852 50.214446 
L 237.840081 50.214446 
L 237.840081 49.618305 
L 244.60313 49.618305 
L 244.60313 49.022165 
L 247.082176 49.022165 
L 247.082176 48.426025 
L 250.586005 48.426025 
L 250.586005 47.829884 
L 260.069253 47.829884 
L 260.069253 47.233744 
L 266.879582 47.233744 
L 266.879582 46.637603 
L 275.602647 46.637603 
L 275.602647 46.041463 
L 283.786742 46.041463 
L 283.786742 45.445322 
L 295.598929 45.445322 
L 295.598929 44.849182 
L 301.240913 44.849182 
L 301.240913 44.253041 
L 313.122354 44.253041 
L 313.122354 43.656901 
L 314.501249 43.656901 
L 314.501249 43.06076 
L 315.201595 43.06076 
L 315.201595 42.46462 
L 317.452692 42.46462 
L 317.452692 41.86848 
L 318.281416 41.86848 
L 318.281416 41.272339 
L 319.015324 41.272339 
L 319.015324 40.676199 
L 321.636648 40.676199 
L 321.636648 40.080058 
L 324.763874 40.080058 
L 324.763874 39.483918 
L 325.197134 39.483918 
L 325.197134 38.887777 
L 325.197134 38.887777 
L 325.197134 38.887777 
L 450.672 38.887777 
" style="fill:none;stroke:#f5deb3;stroke-linecap:square;stroke-width:1.5;"/>
   </g>
   <g id="line2d_15"/>
   <g id="line2d_16">
    <path clip-path="url(#pd33e77437c)" d="M 263.178793 52.002867 
L 263.178793 51.406727 
L 289.810111 51.406727 
L 289.810111 50.810586 
L 296.75468 50.810586 
L 296.75468 50.214446 
L 298.393655 50.214446 
L 298.393655 49.618305 
L 305.513437 49.618305 
L 305.513437 49.022165 
L 324.507449 49.022165 
L 324.507449 48.426025 
L 343.881999 48.426025 
L 343.881999 47.829884 
L 343.960048 47.829884 
L 343.960048 47.233744 
L 350.309777 47.233744 
L 350.309777 46.637603 
L 361.076012 46.637603 
L 361.076012 46.041463 
L 369.03862 46.041463 
L 369.03862 45.445322 
L 378.438042 45.445322 
L 378.438042 44.849182 
L 380.350115 44.849182 
L 380.350115 44.253041 
L 380.983515 44.253041 
L 380.983515 43.656901 
L 381.463281 43.656901 
L 381.463281 43.06076 
L 382.278213 43.06076 
L 382.278213 42.46462 
L 388.863042 42.46462 
L 388.863042 41.86848 
L 395.854248 41.86848 
L 395.854248 41.272339 
L 396.8854 41.272339 
L 396.8854 40.676199 
L 410.706225 40.676199 
L 410.706225 40.080058 
L 412.748759 40.080058 
L 412.748759 39.483918 
L 413.028198 39.483918 
L 413.028198 38.887777 
L 416.337449 38.887777 
L 416.337449 38.291637 
L 420.276645 38.291637 
L 420.276645 37.695496 
L 423.368037 37.695496 
L 423.368037 37.099356 
L 424.708966 37.099356 
L 424.708966 36.503215 
L 434.063776 36.503215 
L 434.063776 35.907075 
L 435.41235 35.907075 
L 435.41235 35.310935 
L 443.613678 35.310935 
L 443.613678 34.714794 
L 443.613678 34.714794 
L 443.613678 34.714794 
L 450.672 34.714794 
" style="fill:none;stroke:#f5deb3;stroke-linecap:square;stroke-width:1.5;"/>
   </g>
   <g id="line2d_17"/>
   <g id="line2d_18">
    <path clip-path="url(#pd33e77437c)" d="M 173.565105 52.002867 
L 173.565105 51.406727 
L 212.199994 51.406727 
L 212.199994 50.810586 
L 218.618772 50.810586 
L 218.618772 50.214446 
L 222.585563 50.214446 
L 222.585563 49.618305 
L 225.091117 49.618305 
L 225.091117 49.022165 
L 229.065341 49.022165 
L 229.065341 48.426025 
L 229.458717 48.426025 
L 229.458717 47.829884 
L 236.681199 47.829884 
L 236.681199 47.233744 
L 239.911131 47.233744 
L 239.911131 46.637603 
L 247.597382 46.637603 
L 247.597382 46.041463 
L 251.659229 46.041463 
L 251.659229 45.445322 
L 252.973212 45.445322 
L 252.973212 44.849182 
L 260.539642 44.849182 
L 260.539642 44.253041 
L 261.456714 44.253041 
L 261.456714 43.656901 
L 262.206971 43.656901 
L 262.206971 43.06076 
L 264.308548 43.06076 
L 264.308548 42.46462 
L 265.067606 42.46462 
L 265.067606 41.86848 
L 278.10825 41.86848 
L 278.10825 41.272339 
L 288.536534 41.272339 
L 288.536534 40.676199 
L 289.235447 40.676199 
L 289.235447 40.080058 
L 296.50848 40.080058 
L 296.50848 39.483918 
L 297.349893 39.483918 
L 297.349893 38.887777 
L 297.349893 38.887777 
L 297.349893 38.887777 
L 450.672 38.887777 
" style="fill:none;stroke:#f5deb3;stroke-linecap:square;stroke-width:1.5;"/>
   </g>
   <g id="line2d_19">
    <path clip-path="url(#pd33e77437c)" d="M 306.614913 52.002867 
L 306.614913 51.406727 
L 310.227016 51.406727 
L 310.227016 50.810586 
L 312.678516 50.810586 
L 312.678516 50.214446 
L 316.34865 50.214446 
L 316.34865 49.618305 
L 316.411417 49.618305 
L 316.411417 49.022165 
L 316.62046 49.022165 
L 316.62046 48.426025 
L 317.788609 48.426025 
L 317.788609 47.829884 
L 318.294222 47.829884 
L 318.294222 47.233744 
L 318.811864 47.233744 
L 318.811864 46.637603 
L 318.876891 46.637603 
L 318.876891 46.041463 
L 324.546756 46.041463 
L 324.546756 45.445322 
L 331.624674 45.445322 
L 331.624674 44.849182 
L 337.51808 44.849182 
L 337.51808 44.253041 
L 340.653338 44.253041 
L 340.653338 43.656901 
L 358.242419 43.656901 
L 358.242419 43.06076 
L 418.726607 43.06076 
L 418.726607 42.46462 
L 418.726607 42.46462 
L 418.726607 42.46462 
L 450.672 42.46462 
" style="fill:none;stroke:#f5deb3;stroke-linecap:square;stroke-width:1.5;"/>
   </g>
   <g id="line2d_20">
    <path clip-path="url(#pd33e77437c)" d="M 202.410774 52.002867 
L 202.410774 51.406727 
L 207.217033 51.406727 
L 207.217033 50.810586 
L 239.476985 50.810586 
L 239.476985 50.214446 
L 244.943356 50.214446 
L 244.943356 49.618305 
L 249.988096 49.618305 
L 249.988096 49.022165 
L 252.114427 49.022165 
L 252.114427 48.426025 
L 253.738773 48.426025 
L 253.738773 47.829884 
L 253.954081 47.829884 
L 253.954081 47.233744 
L 264.386451 47.233744 
L 264.386451 46.637603 
L 274.652895 46.637603 
L 274.652895 46.041463 
L 277.009328 46.041463 
L 277.009328 45.445322 
L 278.828893 45.445322 
L 278.828893 44.849182 
L 278.956942 44.849182 
L 278.956942 44.253041 
L 279.418049 44.253041 
L 279.418049 43.656901 
L 280.557345 43.656901 
L 280.557345 43.06076 
L 286.189711 43.06076 
L 286.189711 42.46462 
L 286.352766 42.46462 
L 286.352766 41.86848 
L 287.203693 41.86848 
L 287.203693 41.272339 
L 288.204109 41.272339 
L 288.204109 40.676199 
L 291.91052 40.676199 
L 291.91052 40.080058 
L 294.338592 40.080058 
L 294.338592 39.483918 
L 298.680467 39.483918 
L 298.680467 38.887777 
L 311.972076 38.887777 
L 311.972076 38.291637 
L 323.034976 38.291637 
L 323.034976 37.695496 
L 336.061405 37.695496 
L 336.061405 37.099356 
L 336.457032 37.099356 
L 336.457032 36.503215 
L 341.099172 36.503215 
L 341.099172 35.907075 
L 343.484543 35.907075 
L 343.484543 35.310935 
L 343.484543 35.310935 
L 343.484543 35.310935 
L 450.672 35.310935 
" style="fill:none;stroke:#f5deb3;stroke-linecap:square;stroke-width:1.5;"/>
   </g>
   <g id="line2d_21">
    <path clip-path="url(#pd33e77437c)" d="M 322.181615 52.002867 
L 322.181615 51.406727 
L 322.181615 51.406727 
L 322.181615 51.406727 
L 450.672 51.406727 
" style="fill:none;stroke:#f5deb3;stroke-linecap:square;stroke-width:1.5;"/>
   </g>
   <g id="line2d_22">
    <path clip-path="url(#pd33e77437c)" d="M 277.248688 52.002867 
L 277.248688 51.406727 
L 297.327734 51.406727 
L 297.327734 50.810586 
L 304.842681 50.810586 
L 304.842681 50.214446 
L 306.673235 50.214446 
L 306.673235 49.618305 
L 308.901289 49.618305 
L 308.901289 49.022165 
L 313.498198 49.022165 
L 313.498198 48.426025 
L 321.321628 48.426025 
L 321.321628 47.829884 
L 321.501819 47.829884 
L 321.501819 47.233744 
L 323.66316 47.233744 
L 323.66316 46.637603 
L 323.66316 46.637603 
L 323.66316 46.637603 
L 450.672 46.637603 
" style="fill:none;stroke:#f5deb3;stroke-linecap:square;stroke-width:1.5;"/>
   </g>
   <g id="line2d_23">
    <path clip-path="url(#pd33e77437c)" d="M 260.478477 52.002867 
L 260.478477 51.406727 
L 260.478477 51.406727 
L 260.478477 51.406727 
L 450.672 51.406727 
" style="fill:none;stroke:#f5deb3;stroke-linecap:square;stroke-width:1.5;"/>
   </g>
   <g id="line2d_24">
    <path clip-path="url(#pd33e77437c)" d="M 308.042541 52.002867 
L 308.042541 51.406727 
L 313.215428 51.406727 
L 313.215428 50.810586 
L 315.420996 50.810586 
L 315.420996 50.214446 
L 345.997587 50.214446 
L 345.997587 49.618305 
L 346.025733 49.618305 
L 346.025733 49.022165 
L 346.988118 49.022165 
L 346.988118 48.426025 
L 347.095578 48.426025 
L 347.095578 47.829884 
L 347.253153 47.829884 
L 347.253153 47.233744 
L 350.515727 47.233744 
L 350.515727 46.637603 
L 353.041336 46.637603 
L 353.041336 46.041463 
L 354.579056 46.041463 
L 354.579056 45.445322 
L 357.254949 45.445322 
L 357.254949 44.849182 
L 373.311872 44.849182 
L 373.311872 44.253041 
L 381.450747 44.253041 
L 381.450747 43.656901 
L 383.421356 43.656901 
L 383.421356 43.06076 
L 417.365076 43.06076 
L 417.365076 42.46462 
L 418.466383 42.46462 
L 418.466383 41.86848 
L 423.432364 41.86848 
L 423.432364 41.272339 
L 437.468181 41.272339 
L 437.468181 40.676199 
L 438.306565 40.676199 
L 438.306565 40.080058 
L 438.732575 40.080058 
L 438.732575 39.483918 
L 439.955349 39.483918 
L 439.955349 38.887777 
L 442.628123 38.887777 
L 442.628123 38.291637 
L 456.364184 38.291637 
L 456.364184 37.695496 
L 456.364184 37.695496 
" style="fill:none;stroke:#f5deb3;stroke-linecap:square;stroke-width:1.5;"/>
   </g>
   <g id="line2d_25">
    <path clip-path="url(#pd33e77437c)" d="M 310.949435 52.002867 
L 310.949435 51.406727 
L 311.288514 51.406727 
L 311.288514 50.810586 
L 312.152175 50.810586 
L 312.152175 50.214446 
L 312.152175 50.214446 
L 312.152175 50.214446 
L 450.672 50.214446 
" style="fill:none;stroke:#f5deb3;stroke-linecap:square;stroke-width:1.5;"/>
   </g>
   <g id="line2d_26">
    <path clip-path="url(#pd33e77437c)" d="M 245.938344 52.002867 
L 245.938344 51.500502 
L 303.069978 51.500502 
L 303.069978 50.998136 
L 323.600701 50.998136 
L 323.600701 50.495771 
L 325.343713 50.495771 
L 325.343713 49.993405 
L 346.749067 49.993405 
L 346.749067 49.49104 
L 351.242529 49.49104 
L 351.242529 48.988674 
L 351.242529 48.988674 
L 351.242529 48.988674 
L 450.672 48.988674 
" style="fill:none;stroke:#f5deb3;stroke-linecap:square;stroke-width:1.5;"/>
   </g>
   <g id="line2d_27">
    <path clip-path="url(#pd33e77437c)" d="M 191.225534 52.002867 
L 191.225534 51.406727 
L 224.690718 51.406727 
L 224.690718 50.810586 
L 227.194936 50.810586 
L 227.194936 50.214446 
L 230.40754 50.214446 
L 230.40754 49.618305 
L 242.22298 49.618305 
L 242.22298 49.022165 
L 247.394589 49.022165 
L 247.394589 48.426025 
L 258.275881 48.426025 
L 258.275881 47.829884 
L 258.938026 47.829884 
L 258.938026 47.233744 
L 267.04748 47.233744 
L 267.04748 46.637603 
L 280.033662 46.637603 
L 280.033662 46.041463 
L 289.333559 46.041463 
L 289.333559 45.445322 
L 293.789133 45.445322 
L 293.789133 44.849182 
L 294.667928 44.849182 
L 294.667928 44.253041 
L 305.242623 44.253041 
L 305.242623 43.656901 
L 308.3528 43.656901 
L 308.3528 43.06076 
L 313.66199 43.06076 
L 313.66199 42.46462 
L 316.558945 42.46462 
L 316.558945 41.86848 
L 316.793912 41.86848 
L 316.793912 41.272339 
L 320.29804 41.272339 
L 320.29804 40.676199 
L 328.168868 40.676199 
L 328.168868 40.080058 
L 338.597944 40.080058 
L 338.597944 39.483918 
L 343.80849 39.483918 
L 343.80849 38.887777 
L 345.559755 38.887777 
L 345.559755 38.291637 
L 353.416066 38.291637 
L 353.416066 37.695496 
L 353.416066 37.695496 
L 353.416066 37.695496 
L 450.672 37.695496 
" style="fill:none;stroke:#f5deb3;stroke-linecap:square;stroke-width:1.5;"/>
   </g>
   <g id="line2d_28">
    <path clip-path="url(#pd33e77437c)" d="M 305.119924 52.002867 
L 305.119924 51.406727 
L 305.266273 51.406727 
L 305.266273 50.810586 
L 307.155837 50.810586 
L 307.155837 50.214446 
L 338.001134 50.214446 
L 338.001134 49.618305 
L 338.393799 49.618305 
L 338.393799 49.022165 
L 362.487671 49.022165 
L 362.487671 48.426025 
L 364.519967 48.426025 
L 364.519967 47.829884 
L 365.248392 47.829884 
L 365.248392 47.233744 
L 378.54432 47.233744 
L 378.54432 46.637603 
L 383.284755 46.637603 
L 383.284755 46.041463 
L 384.300074 46.041463 
L 384.300074 45.445322 
L 385.354058 45.445322 
L 385.354058 44.849182 
L 388.790568 44.849182 
L 388.790568 44.253041 
L 392.901026 44.253041 
L 392.901026 43.656901 
L 394.199314 43.656901 
L 394.199314 43.06076 
L 394.437244 43.06076 
L 394.437244 42.46462 
L 400.101226 42.46462 
L 400.101226 41.86848 
L 405.838884 41.86848 
L 405.838884 41.272339 
L 414.370126 41.272339 
L 414.370126 40.676199 
L 415.622883 40.676199 
L 415.622883 40.080058 
L 415.884219 40.080058 
L 415.884219 39.483918 
L 421.358845 39.483918 
L 421.358845 38.887777 
L 426.250382 38.887777 
L 426.250382 38.291637 
L 429.654549 38.291637 
L 429.654549 37.695496 
L 436.717132 37.695496 
L 436.717132 37.099356 
L 437.42835 37.099356 
L 437.42835 36.503215 
L 439.865019 36.503215 
L 439.865019 35.907075 
L 439.865019 35.907075 
L 439.865019 35.907075 
L 450.672 35.907075 
" style="fill:none;stroke:#f5deb3;stroke-linecap:square;stroke-width:1.5;"/>
   </g>
   <g id="line2d_29">
    <path clip-path="url(#pd33e77437c)" d="M 278.171699 52.002867 
L 278.171699 51.406727 
L 296.553254 51.406727 
L 296.553254 50.810586 
L 296.553254 50.810586 
L 296.553254 50.810586 
L 450.672 50.810586 
" style="fill:none;stroke:#f5deb3;stroke-linecap:square;stroke-width:1.5;"/>
   </g>
   <g id="line2d_30">
    <path clip-path="url(#pd33e77437c)" d="M 236.272558 52.002867 
L 236.272558 51.406727 
L 255.896384 51.406727 
L 255.896384 50.810586 
L 275.582024 50.810586 
L 275.582024 50.214446 
L 281.002696 50.214446 
L 281.002696 49.618305 
L 298.623629 49.618305 
L 298.623629 49.022165 
L 304.446858 49.022165 
L 304.446858 48.426025 
L 313.357159 48.426025 
L 313.357159 47.829884 
L 323.902349 47.829884 
L 323.902349 47.233744 
L 324.628385 47.233744 
L 324.628385 46.637603 
L 325.326594 46.637603 
L 325.326594 46.041463 
L 325.326594 46.041463 
L 325.326594 46.041463 
L 450.672 46.041463 
" style="fill:none;stroke:#f5deb3;stroke-linecap:square;stroke-width:1.5;"/>
   </g>
   <g id="matplotlib.axis_1">
    <g id="xtick_1">
     <g id="line2d_31">
      <path clip-path="url(#pd33e77437c)" d="M 59.72 52.002867 
L 59.72 6.845228 
" style="fill:none;stroke:#b0b0b0;stroke-linecap:square;stroke-width:0.8;"/>
     </g>
     <g id="line2d_32">
      <defs>
       <path d="M 0 0 
L 0 3.5 
" id="mbbe40c705f" style="stroke:#000000;stroke-width:0.8;"/>
      </defs>
      <g>
       <use style="stroke:#000000;stroke-width:0.8;" x="59.72" xlink:href="#mbbe40c705f" y="52.002867"/>
      </g>
     </g>
     <g id="text_1">
      <!-- 0 -->
      <defs>
       <path d="M 31.78125 66.40625 
Q 24.171875 66.40625 20.328125 58.90625 
Q 16.5 51.421875 16.5 36.375 
Q 16.5 21.390625 20.328125 13.890625 
Q 24.171875 6.390625 31.78125 6.390625 
Q 39.453125 6.390625 43.28125 13.890625 
Q 47.125 21.390625 47.125 36.375 
Q 47.125 51.421875 43.28125 58.90625 
Q 39.453125 66.40625 31.78125 66.40625 
z
M 31.78125 74.21875 
Q 44.046875 74.21875 50.515625 64.515625 
Q 56.984375 54.828125 56.984375 36.375 
Q 56.984375 17.96875 50.515625 8.265625 
Q 44.046875 -1.421875 31.78125 -1.421875 
Q 19.53125 -1.421875 13.0625 8.265625 
Q 6.59375 17.96875 6.59375 36.375 
Q 6.59375 54.828125 13.0625 64.515625 
Q 19.53125 74.21875 31.78125 74.21875 
z
" id="DejaVuSans-48"/>
      </defs>
      <g transform="translate(53.3575 74.199742)scale(0.2 -0.2)">
       <use xlink:href="#DejaVuSans-48"/>
      </g>
     </g>
    </g>
    <g id="xtick_2">
     <g id="line2d_33">
      <path clip-path="url(#pd33e77437c)" d="M 192.8301 52.002867 
L 192.8301 6.845228 
" style="fill:none;stroke:#b0b0b0;stroke-linecap:square;stroke-width:0.8;"/>
     </g>
     <g id="line2d_34">
      <g>
       <use style="stroke:#000000;stroke-width:0.8;" x="192.8301" xlink:href="#mbbe40c705f" y="52.002867"/>
      </g>
     </g>
     <g id="text_2">
      <!-- 2 -->
      <defs>
       <path d="M 19.1875 8.296875 
L 53.609375 8.296875 
L 53.609375 0 
L 7.328125 0 
L 7.328125 8.296875 
Q 12.9375 14.109375 22.625 23.890625 
Q 32.328125 33.6875 34.8125 36.53125 
Q 39.546875 41.84375 41.421875 45.53125 
Q 43.3125 49.21875 43.3125 52.78125 
Q 43.3125 58.59375 39.234375 62.25 
Q 35.15625 65.921875 28.609375 65.921875 
Q 23.96875 65.921875 18.8125 64.3125 
Q 13.671875 62.703125 7.8125 59.421875 
L 7.8125 69.390625 
Q 13.765625 71.78125 18.9375 73 
Q 24.125 74.21875 28.421875 74.21875 
Q 39.75 74.21875 46.484375 68.546875 
Q 53.21875 62.890625 53.21875 53.421875 
Q 53.21875 48.921875 51.53125 44.890625 
Q 49.859375 40.875 45.40625 35.40625 
Q 44.1875 33.984375 37.640625 27.21875 
Q 31.109375 20.453125 19.1875 8.296875 
z
" id="DejaVuSans-50"/>
      </defs>
      <g transform="translate(186.4676 74.199742)scale(0.2 -0.2)">
       <use xlink:href="#DejaVuSans-50"/>
      </g>
     </g>
    </g>
    <g id="xtick_3">
     <g id="line2d_35">
      <path clip-path="url(#pd33e77437c)" d="M 325.9402 52.002867 
L 325.9402 6.845228 
" style="fill:none;stroke:#b0b0b0;stroke-linecap:square;stroke-width:0.8;"/>
     </g>
     <g id="line2d_36">
      <g>
       <use style="stroke:#000000;stroke-width:0.8;" x="325.9402" xlink:href="#mbbe40c705f" y="52.002867"/>
      </g>
     </g>
     <g id="text_3">
      <!-- 4 -->
      <defs>
       <path d="M 37.796875 64.3125 
L 12.890625 25.390625 
L 37.796875 25.390625 
z
M 35.203125 72.90625 
L 47.609375 72.90625 
L 47.609375 25.390625 
L 58.015625 25.390625 
L 58.015625 17.1875 
L 47.609375 17.1875 
L 47.609375 0 
L 37.796875 0 
L 37.796875 17.1875 
L 4.890625 17.1875 
L 4.890625 26.703125 
z
" id="DejaVuSans-52"/>
      </defs>
      <g transform="translate(319.5777 74.199742)scale(0.2 -0.2)">
       <use xlink:href="#DejaVuSans-52"/>
      </g>
     </g>
    </g>
    <g id="xtick_4">
     <g id="line2d_37">
      <path clip-path="url(#pd33e77437c)" d="M 79.755066 52.002867 
L 79.755066 6.845228 
" style="fill:none;stroke:#b0b0b0;stroke-linecap:square;stroke-width:0.8;"/>
     </g>
     <g id="line2d_38">
      <defs>
       <path d="M 0 0 
L 0 2 
" id="m71c62fa74f" style="stroke:#000000;stroke-width:0.6;"/>
      </defs>
      <g>
       <use style="stroke:#000000;stroke-width:0.6;" x="79.755066" xlink:href="#m71c62fa74f" y="52.002867"/>
      </g>
     </g>
    </g>
    <g id="xtick_5">
     <g id="line2d_39">
      <path clip-path="url(#pd33e77437c)" d="M 91.474829 52.002867 
L 91.474829 6.845228 
" style="fill:none;stroke:#b0b0b0;stroke-linecap:square;stroke-width:0.8;"/>
     </g>
     <g id="line2d_40">
      <g>
       <use style="stroke:#000000;stroke-width:0.6;" x="91.474829" xlink:href="#m71c62fa74f" y="52.002867"/>
      </g>
     </g>
    </g>
    <g id="xtick_6">
     <g id="line2d_41">
      <path clip-path="url(#pd33e77437c)" d="M 99.790133 52.002867 
L 99.790133 6.845228 
" style="fill:none;stroke:#b0b0b0;stroke-linecap:square;stroke-width:0.8;"/>
     </g>
     <g id="line2d_42">
      <g>
       <use style="stroke:#000000;stroke-width:0.6;" x="99.790133" xlink:href="#m71c62fa74f" y="52.002867"/>
      </g>
     </g>
    </g>
    <g id="xtick_7">
     <g id="line2d_43">
      <path clip-path="url(#pd33e77437c)" d="M 106.239984 52.002867 
L 106.239984 6.845228 
" style="fill:none;stroke:#b0b0b0;stroke-linecap:square;stroke-width:0.8;"/>
     </g>
     <g id="line2d_44">
      <g>
       <use style="stroke:#000000;stroke-width:0.6;" x="106.239984" xlink:href="#m71c62fa74f" y="52.002867"/>
      </g>
     </g>
    </g>
    <g id="xtick_8">
     <g id="line2d_45">
      <path clip-path="url(#pd33e77437c)" d="M 111.509895 52.002867 
L 111.509895 6.845228 
" style="fill:none;stroke:#b0b0b0;stroke-linecap:square;stroke-width:0.8;"/>
     </g>
     <g id="line2d_46">
      <g>
       <use style="stroke:#000000;stroke-width:0.6;" x="111.509895" xlink:href="#m71c62fa74f" y="52.002867"/>
      </g>
     </g>
    </g>
    <g id="xtick_9">
     <g id="line2d_47">
      <path clip-path="url(#pd33e77437c)" d="M 115.965542 52.002867 
L 115.965542 6.845228 
" style="fill:none;stroke:#b0b0b0;stroke-linecap:square;stroke-width:0.8;"/>
     </g>
     <g id="line2d_48">
      <g>
       <use style="stroke:#000000;stroke-width:0.6;" x="115.965542" xlink:href="#m71c62fa74f" y="52.002867"/>
      </g>
     </g>
    </g>
    <g id="xtick_10">
     <g id="line2d_49">
      <path clip-path="url(#pd33e77437c)" d="M 119.825199 52.002867 
L 119.825199 6.845228 
" style="fill:none;stroke:#b0b0b0;stroke-linecap:square;stroke-width:0.8;"/>
     </g>
     <g id="line2d_50">
      <g>
       <use style="stroke:#000000;stroke-width:0.6;" x="119.825199" xlink:href="#m71c62fa74f" y="52.002867"/>
      </g>
     </g>
    </g>
    <g id="xtick_11">
     <g id="line2d_51">
      <path clip-path="url(#pd33e77437c)" d="M 123.229658 52.002867 
L 123.229658 6.845228 
" style="fill:none;stroke:#b0b0b0;stroke-linecap:square;stroke-width:0.8;"/>
     </g>
     <g id="line2d_52">
      <g>
       <use style="stroke:#000000;stroke-width:0.6;" x="123.229658" xlink:href="#m71c62fa74f" y="52.002867"/>
      </g>
     </g>
    </g>
    <g id="xtick_12">
     <g id="line2d_53">
      <path clip-path="url(#pd33e77437c)" d="M 146.310117 52.002867 
L 146.310117 6.845228 
" style="fill:none;stroke:#b0b0b0;stroke-linecap:square;stroke-width:0.8;"/>
     </g>
     <g id="line2d_54">
      <g>
       <use style="stroke:#000000;stroke-width:0.6;" x="146.310117" xlink:href="#m71c62fa74f" y="52.002867"/>
      </g>
     </g>
    </g>
    <g id="xtick_13">
     <g id="line2d_55">
      <path clip-path="url(#pd33e77437c)" d="M 158.029879 52.002867 
L 158.029879 6.845228 
" style="fill:none;stroke:#b0b0b0;stroke-linecap:square;stroke-width:0.8;"/>
     </g>
     <g id="line2d_56">
      <g>
       <use style="stroke:#000000;stroke-width:0.6;" x="158.029879" xlink:href="#m71c62fa74f" y="52.002867"/>
      </g>
     </g>
    </g>
    <g id="xtick_14">
     <g id="line2d_57">
      <path clip-path="url(#pd33e77437c)" d="M 166.345183 52.002867 
L 166.345183 6.845228 
" style="fill:none;stroke:#b0b0b0;stroke-linecap:square;stroke-width:0.8;"/>
     </g>
     <g id="line2d_58">
      <g>
       <use style="stroke:#000000;stroke-width:0.6;" x="166.345183" xlink:href="#m71c62fa74f" y="52.002867"/>
      </g>
     </g>
    </g>
    <g id="xtick_15">
     <g id="line2d_59">
      <path clip-path="url(#pd33e77437c)" d="M 172.795034 52.002867 
L 172.795034 6.845228 
" style="fill:none;stroke:#b0b0b0;stroke-linecap:square;stroke-width:0.8;"/>
     </g>
     <g id="line2d_60">
      <g>
       <use style="stroke:#000000;stroke-width:0.6;" x="172.795034" xlink:href="#m71c62fa74f" y="52.002867"/>
      </g>
     </g>
    </g>
    <g id="xtick_16">
     <g id="line2d_61">
      <path clip-path="url(#pd33e77437c)" d="M 178.064945 52.002867 
L 178.064945 6.845228 
" style="fill:none;stroke:#b0b0b0;stroke-linecap:square;stroke-width:0.8;"/>
     </g>
     <g id="line2d_62">
      <g>
       <use style="stroke:#000000;stroke-width:0.6;" x="178.064945" xlink:href="#m71c62fa74f" y="52.002867"/>
      </g>
     </g>
    </g>
    <g id="xtick_17">
     <g id="line2d_63">
      <path clip-path="url(#pd33e77437c)" d="M 182.520592 52.002867 
L 182.520592 6.845228 
" style="fill:none;stroke:#b0b0b0;stroke-linecap:square;stroke-width:0.8;"/>
     </g>
     <g id="line2d_64">
      <g>
       <use style="stroke:#000000;stroke-width:0.6;" x="182.520592" xlink:href="#m71c62fa74f" y="52.002867"/>
      </g>
     </g>
    </g>
    <g id="xtick_18">
     <g id="line2d_65">
      <path clip-path="url(#pd33e77437c)" d="M 186.380249 52.002867 
L 186.380249 6.845228 
" style="fill:none;stroke:#b0b0b0;stroke-linecap:square;stroke-width:0.8;"/>
     </g>
     <g id="line2d_66">
      <g>
       <use style="stroke:#000000;stroke-width:0.6;" x="186.380249" xlink:href="#m71c62fa74f" y="52.002867"/>
      </g>
     </g>
    </g>
    <g id="xtick_19">
     <g id="line2d_67">
      <path clip-path="url(#pd33e77437c)" d="M 189.784708 52.002867 
L 189.784708 6.845228 
" style="fill:none;stroke:#b0b0b0;stroke-linecap:square;stroke-width:0.8;"/>
     </g>
     <g id="line2d_68">
      <g>
       <use style="stroke:#000000;stroke-width:0.6;" x="189.784708" xlink:href="#m71c62fa74f" y="52.002867"/>
      </g>
     </g>
    </g>
    <g id="xtick_20">
     <g id="line2d_69">
      <path clip-path="url(#pd33e77437c)" d="M 212.865167 52.002867 
L 212.865167 6.845228 
" style="fill:none;stroke:#b0b0b0;stroke-linecap:square;stroke-width:0.8;"/>
     </g>
     <g id="line2d_70">
      <g>
       <use style="stroke:#000000;stroke-width:0.6;" x="212.865167" xlink:href="#m71c62fa74f" y="52.002867"/>
      </g>
     </g>
    </g>
    <g id="xtick_21">
     <g id="line2d_71">
      <path clip-path="url(#pd33e77437c)" d="M 224.584929 52.002867 
L 224.584929 6.845228 
" style="fill:none;stroke:#b0b0b0;stroke-linecap:square;stroke-width:0.8;"/>
     </g>
     <g id="line2d_72">
      <g>
       <use style="stroke:#000000;stroke-width:0.6;" x="224.584929" xlink:href="#m71c62fa74f" y="52.002867"/>
      </g>
     </g>
    </g>
    <g id="xtick_22">
     <g id="line2d_73">
      <path clip-path="url(#pd33e77437c)" d="M 232.900233 52.002867 
L 232.900233 6.845228 
" style="fill:none;stroke:#b0b0b0;stroke-linecap:square;stroke-width:0.8;"/>
     </g>
     <g id="line2d_74">
      <g>
       <use style="stroke:#000000;stroke-width:0.6;" x="232.900233" xlink:href="#m71c62fa74f" y="52.002867"/>
      </g>
     </g>
    </g>
    <g id="xtick_23">
     <g id="line2d_75">
      <path clip-path="url(#pd33e77437c)" d="M 239.350084 52.002867 
L 239.350084 6.845228 
" style="fill:none;stroke:#b0b0b0;stroke-linecap:square;stroke-width:0.8;"/>
     </g>
     <g id="line2d_76">
      <g>
       <use style="stroke:#000000;stroke-width:0.6;" x="239.350084" xlink:href="#m71c62fa74f" y="52.002867"/>
      </g>
     </g>
    </g>
    <g id="xtick_24">
     <g id="line2d_77">
      <path clip-path="url(#pd33e77437c)" d="M 244.619996 52.002867 
L 244.619996 6.845228 
" style="fill:none;stroke:#b0b0b0;stroke-linecap:square;stroke-width:0.8;"/>
     </g>
     <g id="line2d_78">
      <g>
       <use style="stroke:#000000;stroke-width:0.6;" x="244.619996" xlink:href="#m71c62fa74f" y="52.002867"/>
      </g>
     </g>
    </g>
    <g id="xtick_25">
     <g id="line2d_79">
      <path clip-path="url(#pd33e77437c)" d="M 249.075643 52.002867 
L 249.075643 6.845228 
" style="fill:none;stroke:#b0b0b0;stroke-linecap:square;stroke-width:0.8;"/>
     </g>
     <g id="line2d_80">
      <g>
       <use style="stroke:#000000;stroke-width:0.6;" x="249.075643" xlink:href="#m71c62fa74f" y="52.002867"/>
      </g>
     </g>
    </g>
    <g id="xtick_26">
     <g id="line2d_81">
      <path clip-path="url(#pd33e77437c)" d="M 252.935299 52.002867 
L 252.935299 6.845228 
" style="fill:none;stroke:#b0b0b0;stroke-linecap:square;stroke-width:0.8;"/>
     </g>
     <g id="line2d_82">
      <g>
       <use style="stroke:#000000;stroke-width:0.6;" x="252.935299" xlink:href="#m71c62fa74f" y="52.002867"/>
      </g>
     </g>
    </g>
    <g id="xtick_27">
     <g id="line2d_83">
      <path clip-path="url(#pd33e77437c)" d="M 256.339758 52.002867 
L 256.339758 6.845228 
" style="fill:none;stroke:#b0b0b0;stroke-linecap:square;stroke-width:0.8;"/>
     </g>
     <g id="line2d_84">
      <g>
       <use style="stroke:#000000;stroke-width:0.6;" x="256.339758" xlink:href="#m71c62fa74f" y="52.002867"/>
      </g>
     </g>
    </g>
    <g id="xtick_28">
     <g id="line2d_85">
      <path clip-path="url(#pd33e77437c)" d="M 279.420217 52.002867 
L 279.420217 6.845228 
" style="fill:none;stroke:#b0b0b0;stroke-linecap:square;stroke-width:0.8;"/>
     </g>
     <g id="line2d_86">
      <g>
       <use style="stroke:#000000;stroke-width:0.6;" x="279.420217" xlink:href="#m71c62fa74f" y="52.002867"/>
      </g>
     </g>
    </g>
    <g id="xtick_29">
     <g id="line2d_87">
      <path clip-path="url(#pd33e77437c)" d="M 291.139979 52.002867 
L 291.139979 6.845228 
" style="fill:none;stroke:#b0b0b0;stroke-linecap:square;stroke-width:0.8;"/>
     </g>
     <g id="line2d_88">
      <g>
       <use style="stroke:#000000;stroke-width:0.6;" x="291.139979" xlink:href="#m71c62fa74f" y="52.002867"/>
      </g>
     </g>
    </g>
    <g id="xtick_30">
     <g id="line2d_89">
      <path clip-path="url(#pd33e77437c)" d="M 299.455283 52.002867 
L 299.455283 6.845228 
" style="fill:none;stroke:#b0b0b0;stroke-linecap:square;stroke-width:0.8;"/>
     </g>
     <g id="line2d_90">
      <g>
       <use style="stroke:#000000;stroke-width:0.6;" x="299.455283" xlink:href="#m71c62fa74f" y="52.002867"/>
      </g>
     </g>
    </g>
    <g id="xtick_31">
     <g id="line2d_91">
      <path clip-path="url(#pd33e77437c)" d="M 305.905134 52.002867 
L 305.905134 6.845228 
" style="fill:none;stroke:#b0b0b0;stroke-linecap:square;stroke-width:0.8;"/>
     </g>
     <g id="line2d_92">
      <g>
       <use style="stroke:#000000;stroke-width:0.6;" x="305.905134" xlink:href="#m71c62fa74f" y="52.002867"/>
      </g>
     </g>
    </g>
    <g id="xtick_32">
     <g id="line2d_93">
      <path clip-path="url(#pd33e77437c)" d="M 311.175046 52.002867 
L 311.175046 6.845228 
" style="fill:none;stroke:#b0b0b0;stroke-linecap:square;stroke-width:0.8;"/>
     </g>
     <g id="line2d_94">
      <g>
       <use style="stroke:#000000;stroke-width:0.6;" x="311.175046" xlink:href="#m71c62fa74f" y="52.002867"/>
      </g>
     </g>
    </g>
    <g id="xtick_33">
     <g id="line2d_95">
      <path clip-path="url(#pd33e77437c)" d="M 315.630693 52.002867 
L 315.630693 6.845228 
" style="fill:none;stroke:#b0b0b0;stroke-linecap:square;stroke-width:0.8;"/>
     </g>
     <g id="line2d_96">
      <g>
       <use style="stroke:#000000;stroke-width:0.6;" x="315.630693" xlink:href="#m71c62fa74f" y="52.002867"/>
      </g>
     </g>
    </g>
    <g id="xtick_34">
     <g id="line2d_97">
      <path clip-path="url(#pd33e77437c)" d="M 319.49035 52.002867 
L 319.49035 6.845228 
" style="fill:none;stroke:#b0b0b0;stroke-linecap:square;stroke-width:0.8;"/>
     </g>
     <g id="line2d_98">
      <g>
       <use style="stroke:#000000;stroke-width:0.6;" x="319.49035" xlink:href="#m71c62fa74f" y="52.002867"/>
      </g>
     </g>
    </g>
    <g id="xtick_35">
     <g id="line2d_99">
      <path clip-path="url(#pd33e77437c)" d="M 322.894808 52.002867 
L 322.894808 6.845228 
" style="fill:none;stroke:#b0b0b0;stroke-linecap:square;stroke-width:0.8;"/>
     </g>
     <g id="line2d_100">
      <g>
       <use style="stroke:#000000;stroke-width:0.6;" x="322.894808" xlink:href="#m71c62fa74f" y="52.002867"/>
      </g>
     </g>
    </g>
    <g id="xtick_36">
     <g id="line2d_101">
      <path clip-path="url(#pd33e77437c)" d="M 345.975267 52.002867 
L 345.975267 6.845228 
" style="fill:none;stroke:#b0b0b0;stroke-linecap:square;stroke-width:0.8;"/>
     </g>
     <g id="line2d_102">
      <g>
       <use style="stroke:#000000;stroke-width:0.6;" x="345.975267" xlink:href="#m71c62fa74f" y="52.002867"/>
      </g>
     </g>
    </g>
    <g id="xtick_37">
     <g id="line2d_103">
      <path clip-path="url(#pd33e77437c)" d="M 357.695029 52.002867 
L 357.695029 6.845228 
" style="fill:none;stroke:#b0b0b0;stroke-linecap:square;stroke-width:0.8;"/>
     </g>
     <g id="line2d_104">
      <g>
       <use style="stroke:#000000;stroke-width:0.6;" x="357.695029" xlink:href="#m71c62fa74f" y="52.002867"/>
      </g>
     </g>
    </g>
    <g id="xtick_38">
     <g id="line2d_105">
      <path clip-path="url(#pd33e77437c)" d="M 366.010333 52.002867 
L 366.010333 6.845228 
" style="fill:none;stroke:#b0b0b0;stroke-linecap:square;stroke-width:0.8;"/>
     </g>
     <g id="line2d_106">
      <g>
       <use style="stroke:#000000;stroke-width:0.6;" x="366.010333" xlink:href="#m71c62fa74f" y="52.002867"/>
      </g>
     </g>
    </g>
    <g id="xtick_39">
     <g id="line2d_107">
      <path clip-path="url(#pd33e77437c)" d="M 372.460184 52.002867 
L 372.460184 6.845228 
" style="fill:none;stroke:#b0b0b0;stroke-linecap:square;stroke-width:0.8;"/>
     </g>
     <g id="line2d_108">
      <g>
       <use style="stroke:#000000;stroke-width:0.6;" x="372.460184" xlink:href="#m71c62fa74f" y="52.002867"/>
      </g>
     </g>
    </g>
    <g id="xtick_40">
     <g id="line2d_109">
      <path clip-path="url(#pd33e77437c)" d="M 377.730096 52.002867 
L 377.730096 6.845228 
" style="fill:none;stroke:#b0b0b0;stroke-linecap:square;stroke-width:0.8;"/>
     </g>
     <g id="line2d_110">
      <g>
       <use style="stroke:#000000;stroke-width:0.6;" x="377.730096" xlink:href="#m71c62fa74f" y="52.002867"/>
      </g>
     </g>
    </g>
    <g id="xtick_41">
     <g id="line2d_111">
      <path clip-path="url(#pd33e77437c)" d="M 382.185743 52.002867 
L 382.185743 6.845228 
" style="fill:none;stroke:#b0b0b0;stroke-linecap:square;stroke-width:0.8;"/>
     </g>
     <g id="line2d_112">
      <g>
       <use style="stroke:#000000;stroke-width:0.6;" x="382.185743" xlink:href="#m71c62fa74f" y="52.002867"/>
      </g>
     </g>
    </g>
    <g id="xtick_42">
     <g id="line2d_113">
      <path clip-path="url(#pd33e77437c)" d="M 386.0454 52.002867 
L 386.0454 6.845228 
" style="fill:none;stroke:#b0b0b0;stroke-linecap:square;stroke-width:0.8;"/>
     </g>
     <g id="line2d_114">
      <g>
       <use style="stroke:#000000;stroke-width:0.6;" x="386.0454" xlink:href="#m71c62fa74f" y="52.002867"/>
      </g>
     </g>
    </g>
    <g id="xtick_43">
     <g id="line2d_115">
      <path clip-path="url(#pd33e77437c)" d="M 389.449858 52.002867 
L 389.449858 6.845228 
" style="fill:none;stroke:#b0b0b0;stroke-linecap:square;stroke-width:0.8;"/>
     </g>
     <g id="line2d_116">
      <g>
       <use style="stroke:#000000;stroke-width:0.6;" x="389.449858" xlink:href="#m71c62fa74f" y="52.002867"/>
      </g>
     </g>
    </g>
    <g id="xtick_44">
     <g id="line2d_117">
      <path clip-path="url(#pd33e77437c)" d="M 412.530317 52.002867 
L 412.530317 6.845228 
" style="fill:none;stroke:#b0b0b0;stroke-linecap:square;stroke-width:0.8;"/>
     </g>
     <g id="line2d_118">
      <g>
       <use style="stroke:#000000;stroke-width:0.6;" x="412.530317" xlink:href="#m71c62fa74f" y="52.002867"/>
      </g>
     </g>
    </g>
    <g id="xtick_45">
     <g id="line2d_119">
      <path clip-path="url(#pd33e77437c)" d="M 424.250079 52.002867 
L 424.250079 6.845228 
" style="fill:none;stroke:#b0b0b0;stroke-linecap:square;stroke-width:0.8;"/>
     </g>
     <g id="line2d_120">
      <g>
       <use style="stroke:#000000;stroke-width:0.6;" x="424.250079" xlink:href="#m71c62fa74f" y="52.002867"/>
      </g>
     </g>
    </g>
    <g id="xtick_46">
     <g id="line2d_121">
      <path clip-path="url(#pd33e77437c)" d="M 432.565383 52.002867 
L 432.565383 6.845228 
" style="fill:none;stroke:#b0b0b0;stroke-linecap:square;stroke-width:0.8;"/>
     </g>
     <g id="line2d_122">
      <g>
       <use style="stroke:#000000;stroke-width:0.6;" x="432.565383" xlink:href="#m71c62fa74f" y="52.002867"/>
      </g>
     </g>
    </g>
    <g id="xtick_47">
     <g id="line2d_123">
      <path clip-path="url(#pd33e77437c)" d="M 439.015234 52.002867 
L 439.015234 6.845228 
" style="fill:none;stroke:#b0b0b0;stroke-linecap:square;stroke-width:0.8;"/>
     </g>
     <g id="line2d_124">
      <g>
       <use style="stroke:#000000;stroke-width:0.6;" x="439.015234" xlink:href="#m71c62fa74f" y="52.002867"/>
      </g>
     </g>
    </g>
    <g id="xtick_48">
     <g id="line2d_125">
      <path clip-path="url(#pd33e77437c)" d="M 444.285146 52.002867 
L 444.285146 6.845228 
" style="fill:none;stroke:#b0b0b0;stroke-linecap:square;stroke-width:0.8;"/>
     </g>
     <g id="line2d_126">
      <g>
       <use style="stroke:#000000;stroke-width:0.6;" x="444.285146" xlink:href="#m71c62fa74f" y="52.002867"/>
      </g>
     </g>
    </g>
    <g id="xtick_49">
     <g id="line2d_127">
      <path clip-path="url(#pd33e77437c)" d="M 448.740793 52.002867 
L 448.740793 6.845228 
" style="fill:none;stroke:#b0b0b0;stroke-linecap:square;stroke-width:0.8;"/>
     </g>
     <g id="line2d_128">
      <g>
       <use style="stroke:#000000;stroke-width:0.6;" x="448.740793" xlink:href="#m71c62fa74f" y="52.002867"/>
      </g>
     </g>
    </g>
    <g id="text_4">
     <!-- log10 of FEvals / DIM -->
     <defs>
      <path d="M 9.421875 75.984375 
L 18.40625 75.984375 
L 18.40625 0 
L 9.421875 0 
z
" id="DejaVuSans-108"/>
      <path d="M 30.609375 48.390625 
Q 23.390625 48.390625 19.1875 42.75 
Q 14.984375 37.109375 14.984375 27.296875 
Q 14.984375 17.484375 19.15625 11.84375 
Q 23.34375 6.203125 30.609375 6.203125 
Q 37.796875 6.203125 41.984375 11.859375 
Q 46.1875 17.53125 46.1875 27.296875 
Q 46.1875 37.015625 41.984375 42.703125 
Q 37.796875 48.390625 30.609375 48.390625 
z
M 30.609375 56 
Q 42.328125 56 49.015625 48.375 
Q 55.71875 40.765625 55.71875 27.296875 
Q 55.71875 13.875 49.015625 6.21875 
Q 42.328125 -1.421875 30.609375 -1.421875 
Q 18.84375 -1.421875 12.171875 6.21875 
Q 5.515625 13.875 5.515625 27.296875 
Q 5.515625 40.765625 12.171875 48.375 
Q 18.84375 56 30.609375 56 
z
" id="DejaVuSans-111"/>
      <path d="M 45.40625 27.984375 
Q 45.40625 37.75 41.375 43.109375 
Q 37.359375 48.484375 30.078125 48.484375 
Q 22.859375 48.484375 18.828125 43.109375 
Q 14.796875 37.75 14.796875 27.984375 
Q 14.796875 18.265625 18.828125 12.890625 
Q 22.859375 7.515625 30.078125 7.515625 
Q 37.359375 7.515625 41.375 12.890625 
Q 45.40625 18.265625 45.40625 27.984375 
z
M 54.390625 6.78125 
Q 54.390625 -7.171875 48.1875 -13.984375 
Q 42 -20.796875 29.203125 -20.796875 
Q 24.46875 -20.796875 20.265625 -20.09375 
Q 16.0625 -19.390625 12.109375 -17.921875 
L 12.109375 -9.1875 
Q 16.0625 -11.328125 19.921875 -12.34375 
Q 23.78125 -13.375 27.78125 -13.375 
Q 36.625 -13.375 41.015625 -8.765625 
Q 45.40625 -4.15625 45.40625 5.171875 
L 45.40625 9.625 
Q 42.625 4.78125 38.28125 2.390625 
Q 33.9375 0 27.875 0 
Q 17.828125 0 11.671875 7.65625 
Q 5.515625 15.328125 5.515625 27.984375 
Q 5.515625 40.671875 11.671875 48.328125 
Q 17.828125 56 27.875 56 
Q 33.9375 56 38.28125 53.609375 
Q 42.625 51.21875 45.40625 46.390625 
L 45.40625 54.6875 
L 54.390625 54.6875 
z
" id="DejaVuSans-103"/>
      <path d="M 12.40625 8.296875 
L 28.515625 8.296875 
L 28.515625 63.921875 
L 10.984375 60.40625 
L 10.984375 69.390625 
L 28.421875 72.90625 
L 38.28125 72.90625 
L 38.28125 8.296875 
L 54.390625 8.296875 
L 54.390625 0 
L 12.40625 0 
z
" id="DejaVuSans-49"/>
      <path id="DejaVuSans-32"/>
      <path d="M 37.109375 75.984375 
L 37.109375 68.5 
L 28.515625 68.5 
Q 23.6875 68.5 21.796875 66.546875 
Q 19.921875 64.59375 19.921875 59.515625 
L 19.921875 54.6875 
L 34.71875 54.6875 
L 34.71875 47.703125 
L 19.921875 47.703125 
L 19.921875 0 
L 10.890625 0 
L 10.890625 47.703125 
L 2.296875 47.703125 
L 2.296875 54.6875 
L 10.890625 54.6875 
L 10.890625 58.5 
Q 10.890625 67.625 15.140625 71.796875 
Q 19.390625 75.984375 28.609375 75.984375 
z
" id="DejaVuSans-102"/>
      <path d="M 9.8125 72.90625 
L 51.703125 72.90625 
L 51.703125 64.59375 
L 19.671875 64.59375 
L 19.671875 43.109375 
L 48.578125 43.109375 
L 48.578125 34.8125 
L 19.671875 34.8125 
L 19.671875 0 
L 9.8125 0 
z
" id="DejaVuSans-70"/>
      <path d="M 9.8125 72.90625 
L 55.90625 72.90625 
L 55.90625 64.59375 
L 19.671875 64.59375 
L 19.671875 43.015625 
L 54.390625 43.015625 
L 54.390625 34.71875 
L 19.671875 34.71875 
L 19.671875 8.296875 
L 56.78125 8.296875 
L 56.78125 0 
L 9.8125 0 
z
" id="DejaVuSans-69"/>
      <path d="M 2.984375 54.6875 
L 12.5 54.6875 
L 29.59375 8.796875 
L 46.6875 54.6875 
L 56.203125 54.6875 
L 35.6875 0 
L 23.484375 0 
z
" id="DejaVuSans-118"/>
      <path d="M 34.28125 27.484375 
Q 23.390625 27.484375 19.1875 25 
Q 14.984375 22.515625 14.984375 16.5 
Q 14.984375 11.71875 18.140625 8.90625 
Q 21.296875 6.109375 26.703125 6.109375 
Q 34.1875 6.109375 38.703125 11.40625 
Q 43.21875 16.703125 43.21875 25.484375 
L 43.21875 27.484375 
z
M 52.203125 31.203125 
L 52.203125 0 
L 43.21875 0 
L 43.21875 8.296875 
Q 40.140625 3.328125 35.546875 0.953125 
Q 30.953125 -1.421875 24.3125 -1.421875 
Q 15.921875 -1.421875 10.953125 3.296875 
Q 6 8.015625 6 15.921875 
Q 6 25.140625 12.171875 29.828125 
Q 18.359375 34.515625 30.609375 34.515625 
L 43.21875 34.515625 
L 43.21875 35.40625 
Q 43.21875 41.609375 39.140625 45 
Q 35.0625 48.390625 27.6875 48.390625 
Q 23 48.390625 18.546875 47.265625 
Q 14.109375 46.140625 10.015625 43.890625 
L 10.015625 52.203125 
Q 14.9375 54.109375 19.578125 55.046875 
Q 24.21875 56 28.609375 56 
Q 40.484375 56 46.34375 49.84375 
Q 52.203125 43.703125 52.203125 31.203125 
z
" id="DejaVuSans-97"/>
      <path d="M 44.28125 53.078125 
L 44.28125 44.578125 
Q 40.484375 46.53125 36.375 47.5 
Q 32.28125 48.484375 27.875 48.484375 
Q 21.1875 48.484375 17.84375 46.4375 
Q 14.5 44.390625 14.5 40.28125 
Q 14.5 37.15625 16.890625 35.375 
Q 19.28125 33.59375 26.515625 31.984375 
L 29.59375 31.296875 
Q 39.15625 29.25 43.1875 25.515625 
Q 47.21875 21.78125 47.21875 15.09375 
Q 47.21875 7.46875 41.1875 3.015625 
Q 35.15625 -1.421875 24.609375 -1.421875 
Q 20.21875 -1.421875 15.453125 -0.5625 
Q 10.6875 0.296875 5.421875 2 
L 5.421875 11.28125 
Q 10.40625 8.6875 15.234375 7.390625 
Q 20.0625 6.109375 24.8125 6.109375 
Q 31.15625 6.109375 34.5625 8.28125 
Q 37.984375 10.453125 37.984375 14.40625 
Q 37.984375 18.0625 35.515625 20.015625 
Q 33.0625 21.96875 24.703125 23.78125 
L 21.578125 24.515625 
Q 13.234375 26.265625 9.515625 29.90625 
Q 5.8125 33.546875 5.8125 39.890625 
Q 5.8125 47.609375 11.28125 51.796875 
Q 16.75 56 26.8125 56 
Q 31.78125 56 36.171875 55.265625 
Q 40.578125 54.546875 44.28125 53.078125 
z
" id="DejaVuSans-115"/>
      <path d="M 25.390625 72.90625 
L 33.6875 72.90625 
L 8.296875 -9.28125 
L 0 -9.28125 
z
" id="DejaVuSans-47"/>
      <path d="M 19.671875 64.796875 
L 19.671875 8.109375 
L 31.59375 8.109375 
Q 46.6875 8.109375 53.6875 14.9375 
Q 60.6875 21.78125 60.6875 36.53125 
Q 60.6875 51.171875 53.6875 57.984375 
Q 46.6875 64.796875 31.59375 64.796875 
z
M 9.8125 72.90625 
L 30.078125 72.90625 
Q 51.265625 72.90625 61.171875 64.09375 
Q 71.09375 55.28125 71.09375 36.53125 
Q 71.09375 17.671875 61.125 8.828125 
Q 51.171875 0 30.078125 0 
L 9.8125 0 
z
" id="DejaVuSans-68"/>
      <path d="M 9.8125 72.90625 
L 19.671875 72.90625 
L 19.671875 0 
L 9.8125 0 
z
" id="DejaVuSans-73"/>
      <path d="M 9.8125 72.90625 
L 24.515625 72.90625 
L 43.109375 23.296875 
L 61.8125 72.90625 
L 76.515625 72.90625 
L 76.515625 0 
L 66.890625 0 
L 66.890625 64.015625 
L 48.09375 14.015625 
L 38.1875 14.015625 
L 19.390625 64.015625 
L 19.390625 0 
L 9.8125 0 
z
" id="DejaVuSans-77"/>
     </defs>
     <g transform="translate(150.122563 97.555992)scale(0.2 -0.2)">
      <use xlink:href="#DejaVuSans-108"/>
      <use x="27.783203" xlink:href="#DejaVuSans-111"/>
      <use x="88.964844" xlink:href="#DejaVuSans-103"/>
      <use x="152.441406" xlink:href="#DejaVuSans-49"/>
      <use x="216.064453" xlink:href="#DejaVuSans-48"/>
      <use x="279.6875" xlink:href="#DejaVuSans-32"/>
      <use x="311.474609" xlink:href="#DejaVuSans-111"/>
      <use x="372.65625" xlink:href="#DejaVuSans-102"/>
      <use x="407.861328" xlink:href="#DejaVuSans-32"/>
      <use x="439.648438" xlink:href="#DejaVuSans-70"/>
      <use x="497.167969" xlink:href="#DejaVuSans-69"/>
      <use x="560.351562" xlink:href="#DejaVuSans-118"/>
      <use x="619.53125" xlink:href="#DejaVuSans-97"/>
      <use x="680.810547" xlink:href="#DejaVuSans-108"/>
      <use x="708.59375" xlink:href="#DejaVuSans-115"/>
      <use x="760.693359" xlink:href="#DejaVuSans-32"/>
      <use x="792.480469" xlink:href="#DejaVuSans-47"/>
      <use x="826.171875" xlink:href="#DejaVuSans-32"/>
      <use x="857.958984" xlink:href="#DejaVuSans-68"/>
      <use x="934.960938" xlink:href="#DejaVuSans-73"/>
      <use x="964.453125" xlink:href="#DejaVuSans-77"/>
     </g>
    </g>
   </g>
   <g id="matplotlib.axis_2">
    <g id="ytick_1">
     <g id="line2d_129">
      <path clip-path="url(#pd33e77437c)" d="M 59.72 52.002867 
L 450.672 52.002867 
" style="fill:none;stroke:#b0b0b0;stroke-linecap:square;stroke-width:0.8;"/>
     </g>
     <g id="line2d_130">
      <defs>
       <path d="M 0 0 
L -3.5 0 
" id="ma841d8a34c" style="stroke:#000000;stroke-width:0.8;"/>
      </defs>
      <g>
       <use style="stroke:#000000;stroke-width:0.8;" x="59.72" xlink:href="#ma841d8a34c" y="52.002867"/>
      </g>
     </g>
     <g id="text_5">
      <!-- 0.0 -->
      <defs>
       <path d="M 10.6875 12.40625 
L 21 12.40625 
L 21 0 
L 10.6875 0 
z
" id="DejaVuSans-46"/>
      </defs>
      <g transform="translate(27.275 58.081617)scale(0.16 -0.16)">
       <use xlink:href="#DejaVuSans-48"/>
       <use x="63.623047" xlink:href="#DejaVuSans-46"/>
       <use x="95.410156" xlink:href="#DejaVuSans-48"/>
      </g>
     </g>
    </g>
    <g id="ytick_2">
     <g id="line2d_131">
      <path clip-path="url(#pd33e77437c)" d="M 59.72 43.06076 
L 450.672 43.06076 
" style="fill:none;stroke:#b0b0b0;stroke-linecap:square;stroke-width:0.8;"/>
     </g>
     <g id="line2d_132">
      <g>
       <use style="stroke:#000000;stroke-width:0.8;" x="59.72" xlink:href="#ma841d8a34c" y="43.06076"/>
      </g>
     </g>
     <g id="text_6">
      <!-- 0.2 -->
      <g transform="translate(27.275 49.13951)scale(0.16 -0.16)">
       <use xlink:href="#DejaVuSans-48"/>
       <use x="63.623047" xlink:href="#DejaVuSans-46"/>
       <use x="95.410156" xlink:href="#DejaVuSans-50"/>
      </g>
     </g>
    </g>
    <g id="ytick_3">
     <g id="line2d_133">
      <path clip-path="url(#pd33e77437c)" d="M 59.72 34.118654 
L 450.672 34.118654 
" style="fill:none;stroke:#b0b0b0;stroke-linecap:square;stroke-width:0.8;"/>
     </g>
     <g id="line2d_134">
      <g>
       <use style="stroke:#000000;stroke-width:0.8;" x="59.72" xlink:href="#ma841d8a34c" y="34.118654"/>
      </g>
     </g>
     <g id="text_7">
      <!-- 0.4 -->
      <g transform="translate(27.275 40.197404)scale(0.16 -0.16)">
       <use xlink:href="#DejaVuSans-48"/>
       <use x="63.623047" xlink:href="#DejaVuSans-46"/>
       <use x="95.410156" xlink:href="#DejaVuSans-52"/>
      </g>
     </g>
    </g>
    <g id="ytick_4">
     <g id="line2d_135">
      <path clip-path="url(#pd33e77437c)" d="M 59.72 25.176547 
L 450.672 25.176547 
" style="fill:none;stroke:#b0b0b0;stroke-linecap:square;stroke-width:0.8;"/>
     </g>
     <g id="line2d_136">
      <g>
       <use style="stroke:#000000;stroke-width:0.8;" x="59.72" xlink:href="#ma841d8a34c" y="25.176547"/>
      </g>
     </g>
     <g id="text_8">
      <!-- 0.6 -->
      <defs>
       <path d="M 33.015625 40.375 
Q 26.375 40.375 22.484375 35.828125 
Q 18.609375 31.296875 18.609375 23.390625 
Q 18.609375 15.53125 22.484375 10.953125 
Q 26.375 6.390625 33.015625 6.390625 
Q 39.65625 6.390625 43.53125 10.953125 
Q 47.40625 15.53125 47.40625 23.390625 
Q 47.40625 31.296875 43.53125 35.828125 
Q 39.65625 40.375 33.015625 40.375 
z
M 52.59375 71.296875 
L 52.59375 62.3125 
Q 48.875 64.0625 45.09375 64.984375 
Q 41.3125 65.921875 37.59375 65.921875 
Q 27.828125 65.921875 22.671875 59.328125 
Q 17.53125 52.734375 16.796875 39.40625 
Q 19.671875 43.65625 24.015625 45.921875 
Q 28.375 48.1875 33.59375 48.1875 
Q 44.578125 48.1875 50.953125 41.515625 
Q 57.328125 34.859375 57.328125 23.390625 
Q 57.328125 12.15625 50.6875 5.359375 
Q 44.046875 -1.421875 33.015625 -1.421875 
Q 20.359375 -1.421875 13.671875 8.265625 
Q 6.984375 17.96875 6.984375 36.375 
Q 6.984375 53.65625 15.1875 63.9375 
Q 23.390625 74.21875 37.203125 74.21875 
Q 40.921875 74.21875 44.703125 73.484375 
Q 48.484375 72.75 52.59375 71.296875 
z
" id="DejaVuSans-54"/>
      </defs>
      <g transform="translate(27.275 31.255297)scale(0.16 -0.16)">
       <use xlink:href="#DejaVuSans-48"/>
       <use x="63.623047" xlink:href="#DejaVuSans-46"/>
       <use x="95.410156" xlink:href="#DejaVuSans-54"/>
      </g>
     </g>
    </g>
    <g id="ytick_5">
     <g id="line2d_137">
      <path clip-path="url(#pd33e77437c)" d="M 59.72 16.23444 
L 450.672 16.23444 
" style="fill:none;stroke:#b0b0b0;stroke-linecap:square;stroke-width:0.8;"/>
     </g>
     <g id="line2d_138">
      <g>
       <use style="stroke:#000000;stroke-width:0.8;" x="59.72" xlink:href="#ma841d8a34c" y="16.23444"/>
      </g>
     </g>
     <g id="text_9">
      <!-- 0.8 -->
      <defs>
       <path d="M 31.78125 34.625 
Q 24.75 34.625 20.71875 30.859375 
Q 16.703125 27.09375 16.703125 20.515625 
Q 16.703125 13.921875 20.71875 10.15625 
Q 24.75 6.390625 31.78125 6.390625 
Q 38.8125 6.390625 42.859375 10.171875 
Q 46.921875 13.96875 46.921875 20.515625 
Q 46.921875 27.09375 42.890625 30.859375 
Q 38.875 34.625 31.78125 34.625 
z
M 21.921875 38.8125 
Q 15.578125 40.375 12.03125 44.71875 
Q 8.5 49.078125 8.5 55.328125 
Q 8.5 64.0625 14.71875 69.140625 
Q 20.953125 74.21875 31.78125 74.21875 
Q 42.671875 74.21875 48.875 69.140625 
Q 55.078125 64.0625 55.078125 55.328125 
Q 55.078125 49.078125 51.53125 44.71875 
Q 48 40.375 41.703125 38.8125 
Q 48.828125 37.15625 52.796875 32.3125 
Q 56.78125 27.484375 56.78125 20.515625 
Q 56.78125 9.90625 50.3125 4.234375 
Q 43.84375 -1.421875 31.78125 -1.421875 
Q 19.734375 -1.421875 13.25 4.234375 
Q 6.78125 9.90625 6.78125 20.515625 
Q 6.78125 27.484375 10.78125 32.3125 
Q 14.796875 37.15625 21.921875 38.8125 
z
M 18.3125 54.390625 
Q 18.3125 48.734375 21.84375 45.5625 
Q 25.390625 42.390625 31.78125 42.390625 
Q 38.140625 42.390625 41.71875 45.5625 
Q 45.3125 48.734375 45.3125 54.390625 
Q 45.3125 60.0625 41.71875 63.234375 
Q 38.140625 66.40625 31.78125 66.40625 
Q 25.390625 66.40625 21.84375 63.234375 
Q 18.3125 60.0625 18.3125 54.390625 
z
" id="DejaVuSans-56"/>
      </defs>
      <g transform="translate(27.275 22.31319)scale(0.16 -0.16)">
       <use xlink:href="#DejaVuSans-48"/>
       <use x="63.623047" xlink:href="#DejaVuSans-46"/>
       <use x="95.410156" xlink:href="#DejaVuSans-56"/>
      </g>
     </g>
    </g>
    <g id="ytick_6">
     <g id="line2d_139">
      <path clip-path="url(#pd33e77437c)" d="M 59.72 7.292333 
L 450.672 7.292333 
" style="fill:none;stroke:#b0b0b0;stroke-linecap:square;stroke-width:0.8;"/>
     </g>
     <g id="line2d_140">
      <g>
       <use style="stroke:#000000;stroke-width:0.8;" x="59.72" xlink:href="#ma841d8a34c" y="7.292333"/>
      </g>
     </g>
     <g id="text_10">
      <!-- 1.0 -->
      <g transform="translate(27.275 13.371083)scale(0.16 -0.16)">
       <use xlink:href="#DejaVuSans-49"/>
       <use x="63.623047" xlink:href="#DejaVuSans-46"/>
       <use x="95.410156" xlink:href="#DejaVuSans-48"/>
      </g>
     </g>
    </g>
    <g id="text_11">
     <!-- proportion of trials -->
     <defs>
      <path d="M 18.109375 8.203125 
L 18.109375 -20.796875 
L 9.078125 -20.796875 
L 9.078125 54.6875 
L 18.109375 54.6875 
L 18.109375 46.390625 
Q 20.953125 51.265625 25.265625 53.625 
Q 29.59375 56 35.59375 56 
Q 45.5625 56 51.78125 48.09375 
Q 58.015625 40.1875 58.015625 27.296875 
Q 58.015625 14.40625 51.78125 6.484375 
Q 45.5625 -1.421875 35.59375 -1.421875 
Q 29.59375 -1.421875 25.265625 0.953125 
Q 20.953125 3.328125 18.109375 8.203125 
z
M 48.6875 27.296875 
Q 48.6875 37.203125 44.609375 42.84375 
Q 40.53125 48.484375 33.40625 48.484375 
Q 26.265625 48.484375 22.1875 42.84375 
Q 18.109375 37.203125 18.109375 27.296875 
Q 18.109375 17.390625 22.1875 11.75 
Q 26.265625 6.109375 33.40625 6.109375 
Q 40.53125 6.109375 44.609375 11.75 
Q 48.6875 17.390625 48.6875 27.296875 
z
" id="DejaVuSans-112"/>
      <path d="M 41.109375 46.296875 
Q 39.59375 47.171875 37.8125 47.578125 
Q 36.03125 48 33.890625 48 
Q 26.265625 48 22.1875 43.046875 
Q 18.109375 38.09375 18.109375 28.8125 
L 18.109375 0 
L 9.078125 0 
L 9.078125 54.6875 
L 18.109375 54.6875 
L 18.109375 46.1875 
Q 20.953125 51.171875 25.484375 53.578125 
Q 30.03125 56 36.53125 56 
Q 37.453125 56 38.578125 55.875 
Q 39.703125 55.765625 41.0625 55.515625 
z
" id="DejaVuSans-114"/>
      <path d="M 18.3125 70.21875 
L 18.3125 54.6875 
L 36.8125 54.6875 
L 36.8125 47.703125 
L 18.3125 47.703125 
L 18.3125 18.015625 
Q 18.3125 11.328125 20.140625 9.421875 
Q 21.96875 7.515625 27.59375 7.515625 
L 36.8125 7.515625 
L 36.8125 0 
L 27.59375 0 
Q 17.1875 0 13.234375 3.875 
Q 9.28125 7.765625 9.28125 18.015625 
L 9.28125 47.703125 
L 2.6875 47.703125 
L 2.6875 54.6875 
L 9.28125 54.6875 
L 9.28125 70.21875 
z
" id="DejaVuSans-116"/>
      <path d="M 9.421875 54.6875 
L 18.40625 54.6875 
L 18.40625 0 
L 9.421875 0 
z
M 9.421875 75.984375 
L 18.40625 75.984375 
L 18.40625 64.59375 
L 9.421875 64.59375 
z
" id="DejaVuSans-105"/>
      <path d="M 54.890625 33.015625 
L 54.890625 0 
L 45.90625 0 
L 45.90625 32.71875 
Q 45.90625 40.484375 42.875 44.328125 
Q 39.84375 48.1875 33.796875 48.1875 
Q 26.515625 48.1875 22.3125 43.546875 
Q 18.109375 38.921875 18.109375 30.90625 
L 18.109375 0 
L 9.078125 0 
L 9.078125 54.6875 
L 18.109375 54.6875 
L 18.109375 46.1875 
Q 21.34375 51.125 25.703125 53.5625 
Q 30.078125 56 35.796875 56 
Q 45.21875 56 50.046875 50.171875 
Q 54.890625 44.34375 54.890625 33.015625 
z
" id="DejaVuSans-110"/>
     </defs>
     <g transform="translate(19.115625 122.652173)rotate(-90)scale(0.2 -0.2)">
      <use xlink:href="#DejaVuSans-112"/>
      <use x="63.476562" xlink:href="#DejaVuSans-114"/>
      <use x="104.558594" xlink:href="#DejaVuSans-111"/>
      <use x="165.740234" xlink:href="#DejaVuSans-112"/>
      <use x="229.216797" xlink:href="#DejaVuSans-111"/>
      <use x="290.398438" xlink:href="#DejaVuSans-114"/>
      <use x="331.511719" xlink:href="#DejaVuSans-116"/>
      <use x="370.720703" xlink:href="#DejaVuSans-105"/>
      <use x="398.503906" xlink:href="#DejaVuSans-111"/>
      <use x="459.685547" xlink:href="#DejaVuSans-110"/>
      <use x="523.064453" xlink:href="#DejaVuSans-32"/>
      <use x="554.851562" xlink:href="#DejaVuSans-111"/>
      <use x="616.033203" xlink:href="#DejaVuSans-102"/>
      <use x="651.238281" xlink:href="#DejaVuSans-32"/>
      <use x="683.025391" xlink:href="#DejaVuSans-116"/>
      <use x="722.234375" xlink:href="#DejaVuSans-114"/>
      <use x="763.347656" xlink:href="#DejaVuSans-105"/>
      <use x="791.130859" xlink:href="#DejaVuSans-97"/>
      <use x="852.410156" xlink:href="#DejaVuSans-108"/>
      <use x="880.193359" xlink:href="#DejaVuSans-115"/>
     </g>
    </g>
   </g>
   <g id="line2d_141">
    <path clip-path="url(#pd33e77437c)" d="M -1 50.810586 
L 4.884712 50.810586 
L 4.884712 49.618305 
L 24.919779 49.618305 
L 24.919779 48.426025 
L 29.375426 48.426025 
L 29.375426 46.637603 
L 33.235083 46.637603 
L 33.235083 46.041463 
L 51.404696 46.041463 
L 51.404696 45.445322 
L 55.022473 45.445322 
L 55.022473 44.849182 
L 93.340282 44.849182 
L 93.340282 44.253041 
L 97.92468 44.253041 
L 97.92468 43.656901 
L 99.058335 43.656901 
L 99.058335 43.06076 
L 100.149199 43.06076 
L 100.149199 41.86848 
L 100.854222 41.86848 
L 100.854222 41.272339 
L 107.924217 41.272339 
L 107.924217 40.676199 
L 110.279731 40.676199 
L 110.279731 40.080058 
L 113.375349 40.080058 
L 113.375349 38.887777 
L 113.823489 38.887777 
L 113.823489 38.291637 
L 117.178496 38.291637 
L 117.178496 37.695496 
L 118.907519 37.695496 
L 118.907519 37.099356 
L 119.461616 37.099356 
L 119.461616 36.503215 
L 121.406995 36.503215 
L 121.406995 35.907075 
L 121.747051 35.907075 
L 121.747051 35.310935 
L 122.906699 35.310935 
L 122.906699 34.714794 
L 123.229658 34.714794 
L 123.229658 34.118654 
L 125.838198 34.118654 
L 125.838198 33.522513 
L 131.784835 33.522513 
L 131.784835 32.926373 
L 133.969513 32.926373 
L 133.969513 31.734092 
L 135.056276 31.734092 
L 135.056276 31.137951 
L 136.308652 31.137951 
L 136.308652 30.541811 
L 136.613448 30.541811 
L 136.613448 29.94567 
L 140.308406 29.94567 
L 140.308406 29.34953 
L 143.103696 29.34953 
L 143.103696 28.75339 
L 144.598411 28.75339 
L 144.598411 28.157249 
L 145.130178 28.157249 
L 145.130178 27.561109 
L 145.280331 27.561109 
L 145.280331 26.964968 
L 146.310117 26.964968 
L 146.310117 26.368828 
L 147.023844 26.368828 
L 147.023844 25.772687 
L 148.33321 25.772687 
L 148.33321 25.176547 
L 148.601467 25.176547 
L 148.601467 24.580406 
L 150.600121 24.580406 
L 150.600121 23.984266 
L 154.769583 23.984266 
L 154.769583 23.388125 
L 194.880132 23.388125 
L 194.880132 22.791985 
L 197.821675 22.791985 
L 197.821675 22.195844 
L 199.024466 22.195844 
L 199.024466 21.599704 
L 199.164101 21.599704 
L 199.164101 21.003564 
L 199.670403 21.003564 
L 199.750139 19.215142 
L 201.278779 19.215142 
L 201.278779 18.619002 
L 202.348457 18.619002 
L 202.348457 18.022861 
L 203.480113 18.022861 
L 203.480113 17.426721 
L 224.250601 17.426721 
L 224.250601 16.83058 
L 239.082932 16.83058 
L 239.082932 16.23444 
L 242.160105 16.23444 
L 242.160105 15.638299 
L 277.812594 15.638299 
L 277.812594 15.042159 
L 370.756727 15.042159 
L 370.756727 14.446019 
L 370.756727 14.446019 
L 450.672 14.446019 
L 450.672 14.446019 
" style="fill:none;stroke:#000000;stroke-linecap:square;stroke-width:1.5;"/>
   </g>
   <g id="line2d_142">
    <defs>
     <path d="M 0 -10 
L -8.660254 -5 
L -8.660254 5 
L -0 10 
L 8.660254 5 
L 8.660254 -5 
z
" id="m5381fe9d97" style="stroke:#000000;stroke-linejoin:miter;stroke-width:1.5;"/>
    </defs>
    <g clip-path="url(#pd33e77437c)">
     <use style="fill-opacity:0;stroke:#000000;stroke-linejoin:miter;stroke-width:1.5;" x="113.823489" xlink:href="#m5381fe9d97" y="38.887777"/>
     <use style="fill-opacity:0;stroke:#000000;stroke-linejoin:miter;stroke-width:1.5;" x="146.310117" xlink:href="#m5381fe9d97" y="26.964968"/>
     <use style="fill-opacity:0;stroke:#000000;stroke-linejoin:miter;stroke-width:1.5;" x="199.164101" xlink:href="#m5381fe9d97" y="21.599704"/>
     <use style="fill-opacity:0;stroke:#000000;stroke-linejoin:miter;stroke-width:1.5;" x="242.160105" xlink:href="#m5381fe9d97" y="16.23444"/>
     <use style="fill-opacity:0;stroke:#000000;stroke-linejoin:miter;stroke-width:1.5;" x="277.812594" xlink:href="#m5381fe9d97" y="15.638299"/>
     <use style="fill-opacity:0;stroke:#000000;stroke-linejoin:miter;stroke-width:1.5;" x="370.756727" xlink:href="#m5381fe9d97" y="14.446019"/>
    </g>
   </g>
   <g id="line2d_143">
    <path clip-path="url(#pd33e77437c)" d="M -1 96.713402 
L 450.672 96.713402 
" style="fill:none;stroke:#000000;stroke-linecap:square;stroke-width:1.5;"/>
    <g clip-path="url(#pd33e77437c)">
     <use style="fill-opacity:0;stroke:#000000;stroke-linejoin:miter;stroke-width:1.5;" x="-1" xlink:href="#m5381fe9d97" y="96.713402"/>
     <use style="fill-opacity:0;stroke:#000000;stroke-linejoin:miter;stroke-width:1.5;" x="450.672" xlink:href="#m5381fe9d97" y="96.713402"/>
    </g>
   </g>
   <g id="line2d_144">
    <path clip-path="url(#pd33e77437c)" d="M -1 49.022165 
L 13.200016 49.022165 
L 13.200016 47.233744 
L 29.375426 47.233744 
L 29.375426 46.637603 
L 33.235083 46.637603 
L 33.235083 45.445322 
L 36.639541 45.445322 
L 36.639541 44.253041 
L 44.954845 44.253041 
L 44.954845 43.656901 
L 49.410492 43.656901 
L 49.410492 43.06076 
L 122.415393 43.06076 
L 122.415393 42.46462 
L 128.49957 42.46462 
L 128.49957 41.86848 
L 129.421431 41.86848 
L 129.421431 41.272339 
L 131.424275 41.272339 
L 131.424275 40.676199 
L 131.904028 40.676199 
L 131.904028 40.080058 
L 132.258689 40.080058 
L 132.258689 39.483918 
L 132.724901 39.483918 
L 132.724901 38.887777 
L 133.635354 38.887777 
L 133.635354 38.291637 
L 134.19016 38.291637 
L 134.19016 37.695496 
L 134.734516 37.695496 
L 134.842168 36.503215 
L 136.915063 36.503215 
L 136.915063 35.907075 
L 137.606827 35.907075 
L 137.606827 35.310935 
L 137.801471 35.310935 
L 137.898303 33.522513 
L 139.405067 33.522513 
L 139.405067 32.926373 
L 140.837162 32.926373 
L 140.837162 32.330232 
L 142.532926 32.330232 
L 142.532926 31.734092 
L 142.941766 31.734092 
L 142.941766 31.137951 
L 143.184322 31.137951 
L 143.264724 29.94567 
L 143.344903 29.94567 
L 143.344903 29.34953 
L 144.056678 29.34953 
L 144.056678 28.75339 
L 144.367482 28.75339 
L 144.367482 28.157249 
L 144.521639 28.157249 
L 144.521639 26.964968 
L 145.504109 26.964968 
L 145.578318 25.772687 
L 147.857685 25.772687 
L 147.857685 25.176547 
L 148.999242 25.176547 
L 148.999242 24.580406 
L 153.104757 24.580406 
L 153.104757 23.984266 
L 153.275621 23.984266 
L 153.275621 23.388125 
L 155.462258 23.388125 
L 155.462258 22.791985 
L 164.710046 22.791985 
L 164.710046 22.195844 
L 171.281985 22.195844 
L 171.281985 21.599704 
L 218.398829 21.599704 
L 218.398829 21.003564 
L 221.075501 21.003564 
L 221.075501 20.407423 
L 221.906532 20.407423 
L 221.906532 19.811283 
L 222.939595 19.811283 
L 222.939595 19.215142 
L 224.172521 19.215142 
L 224.172521 18.619002 
L 245.197103 18.619002 
L 245.197103 18.022861 
L 246.156146 18.022861 
L 246.265573 16.83058 
L 246.703665 16.83058 
L 246.703665 16.23444 
L 288.038866 16.23444 
L 288.038866 15.638299 
L 304.626873 15.638299 
L 304.626873 15.042159 
L 331.894097 15.042159 
L 331.894097 14.446019 
L 331.894097 14.446019 
L 450.672 14.446019 
L 450.672 14.446019 
" style="fill:none;stroke:#000000;stroke-linecap:square;stroke-width:1.5;"/>
   </g>
   <g id="line2d_145">
    <defs>
     <path d="M 0 7.5 
C 1.989023 7.5 3.896849 6.709753 5.303301 5.303301 
C 6.709753 3.896849 7.5 1.989023 7.5 0 
C 7.5 -1.989023 6.709753 -3.896849 5.303301 -5.303301 
C 3.896849 -6.709753 1.989023 -7.5 0 -7.5 
C -1.989023 -7.5 -3.896849 -6.709753 -5.303301 -5.303301 
C -6.709753 -3.896849 -7.5 -1.989023 -7.5 0 
C -7.5 1.989023 -6.709753 3.896849 -5.303301 5.303301 
C -3.896849 6.709753 -1.989023 7.5 0 7.5 
z
" id="m0b3b84d090" style="stroke:#000000;stroke-width:1.5;"/>
    </defs>
    <g clip-path="url(#pd33e77437c)">
     <use style="fill-opacity:0;stroke:#000000;stroke-width:1.5;" x="134.734516" xlink:href="#m0b3b84d090" y="37.695496"/>
     <use style="fill-opacity:0;stroke:#000000;stroke-width:1.5;" x="155.462258" xlink:href="#m0b3b84d090" y="23.388125"/>
     <use style="fill-opacity:0;stroke:#000000;stroke-width:1.5;" x="171.281985" xlink:href="#m0b3b84d090" y="22.195844"/>
     <use style="fill-opacity:0;stroke:#000000;stroke-width:1.5;" x="246.703665" xlink:href="#m0b3b84d090" y="16.83058"/>
     <use style="fill-opacity:0;stroke:#000000;stroke-width:1.5;" x="331.894097" xlink:href="#m0b3b84d090" y="15.042159"/>
     <use style="fill-opacity:0;stroke:#000000;stroke-width:1.5;" x="331.894097" xlink:href="#m0b3b84d090" y="14.446019"/>
    </g>
   </g>
   <g id="line2d_146">
    <path clip-path="url(#pd33e77437c)" d="M -1 96.713402 
L 450.672 96.713402 
" style="fill:none;stroke:#000000;stroke-linecap:square;stroke-width:1.5;"/>
   </g>
   <g id="line2d_147">
    <path clip-path="url(#pd33e77437c)" d="M 156.241402 52.002867 
L 156.241402 51.406727 
L 161.647656 51.406727 
L 161.647656 50.810586 
L 200.832999 50.810586 
L 200.832999 50.214446 
L 209.358458 50.214446 
L 209.358458 49.618305 
L 216.115055 49.618305 
L 216.115055 49.022165 
L 219.245563 49.022165 
L 219.245563 48.426025 
L 224.265218 48.426025 
L 224.265218 47.829884 
L 243.289119 47.829884 
L 243.289119 47.233744 
L 265.155332 47.233744 
L 265.155332 46.637603 
L 269.174641 46.637603 
L 269.174641 46.041463 
L 278.468951 46.041463 
L 278.468951 45.445322 
L 322.44589 45.445322 
L 322.44589 44.849182 
L 334.945076 44.849182 
L 334.945076 44.253041 
L 382.500138 44.253041 
L 382.500138 43.656901 
L 382.524962 43.656901 
L 382.524962 43.06076 
L 382.850765 43.06076 
L 382.850765 42.46462 
L 383.112556 42.46462 
L 383.112556 41.86848 
L 383.796277 41.86848 
L 383.796277 41.272339 
L 383.917773 41.272339 
L 383.917773 40.676199 
L 384.272408 40.676199 
L 384.272408 40.080058 
L 384.440489 40.080058 
L 384.440489 39.483918 
L 384.869939 39.483918 
L 384.869939 38.887777 
L 386.613976 38.887777 
L 386.613976 38.291637 
L 408.263783 38.291637 
L 408.263783 37.695496 
L 408.69323 37.695496 
L 408.69323 37.099356 
L 408.792824 37.099356 
L 408.792824 36.503215 
L 409.239523 36.503215 
L 409.239523 35.907075 
L 409.283944 35.907075 
L 409.283944 35.310935 
L 409.283944 35.310935 
L 409.283944 35.310935 
L 450.672 35.310935 
" style="fill:none;stroke:#00bfbf;stroke-linecap:square;stroke-width:1.5;"/>
   </g>
   <g id="line2d_148">
    <defs>
     <path d="M 0 -10 
L -8.660254 -5 
L -8.660254 5 
L -0 10 
L 8.660254 5 
L 8.660254 -5 
z
" id="mdbde61b1a8" style="stroke:#00bfbf;stroke-linejoin:miter;stroke-width:1.5;"/>
    </defs>
    <g clip-path="url(#pd33e77437c)">
     <use style="fill-opacity:0;stroke:#00bfbf;stroke-linejoin:miter;stroke-width:1.5;" x="200.832999" xlink:href="#mdbde61b1a8" y="50.810586"/>
     <use style="fill-opacity:0;stroke:#00bfbf;stroke-linejoin:miter;stroke-width:1.5;" x="224.265218" xlink:href="#mdbde61b1a8" y="48.426025"/>
     <use style="fill-opacity:0;stroke:#00bfbf;stroke-linejoin:miter;stroke-width:1.5;" x="278.468951" xlink:href="#mdbde61b1a8" y="46.041463"/>
     <use style="fill-opacity:0;stroke:#00bfbf;stroke-linejoin:miter;stroke-width:1.5;" x="334.945076" xlink:href="#mdbde61b1a8" y="44.849182"/>
     <use style="fill-opacity:0;stroke:#00bfbf;stroke-linejoin:miter;stroke-width:1.5;" x="386.613976" xlink:href="#mdbde61b1a8" y="38.887777"/>
     <use style="fill-opacity:0;stroke:#00bfbf;stroke-linejoin:miter;stroke-width:1.5;" x="409.283944" xlink:href="#mdbde61b1a8" y="35.310935"/>
    </g>
   </g>
   <g id="line2d_149">
    <path clip-path="url(#pd33e77437c)" d="M -1 96.713402 
L 450.672 96.713402 
" style="fill:none;stroke:#00bfbf;stroke-linecap:square;stroke-width:1.5;"/>
    <g clip-path="url(#pd33e77437c)">
     <use style="fill-opacity:0;stroke:#00bfbf;stroke-linejoin:miter;stroke-width:1.5;" x="-1" xlink:href="#mdbde61b1a8" y="96.713402"/>
     <use style="fill-opacity:0;stroke:#00bfbf;stroke-linejoin:miter;stroke-width:1.5;" x="450.672" xlink:href="#mdbde61b1a8" y="96.713402"/>
    </g>
   </g>
   <g id="line2d_150">
    <path clip-path="url(#pd33e77437c)" d="M 163.856428 52.002867 
L 163.856428 51.406727 
L 165.052115 51.406727 
L 165.052115 50.810586 
L 239.80605 50.810586 
L 239.80605 50.214446 
L 248.434755 50.214446 
L 248.434755 49.618305 
L 266.284707 49.618305 
L 266.284707 49.022165 
L 266.877351 49.022165 
L 266.877351 48.426025 
L 268.132226 48.426025 
L 268.132226 47.829884 
L 271.330449 47.829884 
L 271.330449 47.233744 
L 284.448248 47.233744 
L 284.448248 46.637603 
L 297.995867 46.637603 
L 297.995867 46.041463 
L 302.621424 46.041463 
L 302.621424 45.445322 
L 320.605412 45.445322 
L 320.605412 44.849182 
L 347.890898 44.849182 
L 347.890898 44.253041 
L 364.093075 44.253041 
L 364.093075 43.656901 
L 370.525678 43.656901 
L 370.525678 43.06076 
L 386.216818 43.06076 
L 386.216818 42.46462 
L 386.226693 42.46462 
L 386.226693 41.86848 
L 386.316065 41.86848 
L 386.316065 41.272339 
L 386.513224 41.272339 
L 386.513224 40.676199 
L 386.857938 40.676199 
L 386.857938 40.080058 
L 386.993447 40.080058 
L 386.993447 39.483918 
L 387.123485 39.483918 
L 387.123485 38.887777 
L 387.494666 38.887777 
L 387.494666 38.291637 
L 387.738425 38.291637 
L 387.738425 37.695496 
L 388.213025 37.695496 
L 388.213025 37.099356 
L 388.466213 37.099356 
L 388.466213 36.503215 
L 388.590682 36.503215 
L 388.590682 35.907075 
L 410.851767 35.907075 
L 410.851767 35.310935 
L 413.527626 35.310935 
L 413.527626 34.714794 
L 414.075111 34.714794 
L 414.075111 34.118654 
L 414.075111 34.118654 
L 414.075111 34.118654 
L 450.672 34.118654 
" style="fill:none;stroke:#00bfbf;stroke-linecap:square;stroke-width:1.5;"/>
   </g>
   <g id="line2d_151">
    <defs>
     <path d="M 0 7.5 
C 1.989023 7.5 3.896849 6.709753 5.303301 5.303301 
C 6.709753 3.896849 7.5 1.989023 7.5 0 
C 7.5 -1.989023 6.709753 -3.896849 5.303301 -5.303301 
C 3.896849 -6.709753 1.989023 -7.5 0 -7.5 
C -1.989023 -7.5 -3.896849 -6.709753 -5.303301 -5.303301 
C -6.709753 -3.896849 -7.5 -1.989023 -7.5 0 
C -7.5 1.989023 -6.709753 3.896849 -5.303301 5.303301 
C -3.896849 6.709753 -1.989023 7.5 0 7.5 
z
" id="m68a41aefda" style="stroke:#00bfbf;stroke-width:1.5;"/>
    </defs>
    <g clip-path="url(#pd33e77437c)">
     <use style="fill-opacity:0;stroke:#00bfbf;stroke-width:1.5;" x="165.052115" xlink:href="#m68a41aefda" y="51.406727"/>
     <use style="fill-opacity:0;stroke:#00bfbf;stroke-width:1.5;" x="284.448248" xlink:href="#m68a41aefda" y="47.233744"/>
     <use style="fill-opacity:0;stroke:#00bfbf;stroke-width:1.5;" x="320.605412" xlink:href="#m68a41aefda" y="45.445322"/>
     <use style="fill-opacity:0;stroke:#00bfbf;stroke-width:1.5;" x="387.738425" xlink:href="#m68a41aefda" y="38.291637"/>
     <use style="fill-opacity:0;stroke:#00bfbf;stroke-width:1.5;" x="414.075111" xlink:href="#m68a41aefda" y="34.714794"/>
     <use style="fill-opacity:0;stroke:#00bfbf;stroke-width:1.5;" x="414.075111" xlink:href="#m68a41aefda" y="34.118654"/>
    </g>
   </g>
   <g id="line2d_152">
    <path clip-path="url(#pd33e77437c)" d="M -1 96.713402 
L 450.672 96.713402 
" style="fill:none;stroke:#00bfbf;stroke-linecap:square;stroke-width:1.5;"/>
   </g>
   <g id="line2d_153">
    <path clip-path="url(#pd33e77437c)" d="M 176.404308 52.002867 
L 176.404308 51.406727 
L 180.577958 51.406727 
L 180.577958 50.810586 
L 205.478982 50.810586 
L 205.478982 50.214446 
L 214.227207 50.214446 
L 214.227207 49.618305 
L 227.688072 49.618305 
L 227.688072 49.022165 
L 322.921452 49.022165 
L 322.921452 48.426025 
L 335.456478 48.426025 
L 335.456478 47.829884 
L 383.589174 47.829884 
L 383.589174 47.233744 
L 384.802163 47.233744 
L 384.802163 46.637603 
L 385.149269 46.637603 
L 385.149269 46.041463 
L 387.651659 46.041463 
L 387.651659 45.445322 
L 408.997147 45.445322 
L 408.997147 44.849182 
L 409.371775 44.849182 
L 409.371775 44.253041 
L 409.586714 44.253041 
L 409.586714 43.656901 
L 409.646011 43.656901 
L 409.646011 43.06076 
L 409.648957 43.06076 
L 409.648957 42.46462 
L 409.862327 42.46462 
L 409.862327 41.86848 
L 409.913287 41.86848 
L 409.913287 41.272339 
L 409.954379 41.272339 
L 409.954379 40.676199 
L 410.082684 40.676199 
L 410.082684 40.080058 
L 410.111478 40.080058 
L 410.111478 39.483918 
L 410.17254 39.483918 
L 410.17254 38.887777 
L 410.17254 38.887777 
L 410.17254 38.887777 
L 450.672 38.887777 
" style="fill:none;stroke:#bf00bf;stroke-linecap:square;stroke-width:1.5;"/>
   </g>
   <g id="line2d_154">
    <defs>
     <path d="M 0 -10 
L -8.660254 -5 
L -8.660254 5 
L -0 10 
L 8.660254 5 
L 8.660254 -5 
z
" id="m3b0719dac7" style="stroke:#bf00bf;stroke-linejoin:miter;stroke-width:1.5;"/>
    </defs>
    <g clip-path="url(#pd33e77437c)">
     <use style="fill-opacity:0;stroke:#bf00bf;stroke-linejoin:miter;stroke-width:1.5;" x="180.577958" xlink:href="#m3b0719dac7" y="51.406727"/>
     <use style="fill-opacity:0;stroke:#bf00bf;stroke-linejoin:miter;stroke-width:1.5;" x="214.227207" xlink:href="#m3b0719dac7" y="50.214446"/>
     <use style="fill-opacity:0;stroke:#bf00bf;stroke-linejoin:miter;stroke-width:1.5;" x="227.688072" xlink:href="#m3b0719dac7" y="49.618305"/>
     <use style="fill-opacity:0;stroke:#bf00bf;stroke-linejoin:miter;stroke-width:1.5;" x="335.456478" xlink:href="#m3b0719dac7" y="48.426025"/>
     <use style="fill-opacity:0;stroke:#bf00bf;stroke-linejoin:miter;stroke-width:1.5;" x="409.371775" xlink:href="#m3b0719dac7" y="44.849182"/>
     <use style="fill-opacity:0;stroke:#bf00bf;stroke-linejoin:miter;stroke-width:1.5;" x="410.17254" xlink:href="#m3b0719dac7" y="38.887777"/>
    </g>
   </g>
   <g id="line2d_155">
    <path clip-path="url(#pd33e77437c)" d="M -1 96.713402 
L 450.672 96.713402 
" style="fill:none;stroke:#bf00bf;stroke-linecap:square;stroke-width:1.5;"/>
    <g clip-path="url(#pd33e77437c)">
     <use style="fill-opacity:0;stroke:#bf00bf;stroke-linejoin:miter;stroke-width:1.5;" x="-1" xlink:href="#m3b0719dac7" y="96.713402"/>
     <use style="fill-opacity:0;stroke:#bf00bf;stroke-linejoin:miter;stroke-width:1.5;" x="450.672" xlink:href="#m3b0719dac7" y="96.713402"/>
    </g>
   </g>
   <g id="line2d_156">
    <path clip-path="url(#pd33e77437c)" d="M 177.920061 52.002867 
L 177.920061 51.406727 
L 181.103111 51.406727 
L 181.103111 50.810586 
L 251.123751 50.810586 
L 251.123751 50.214446 
L 268.477209 50.214446 
L 268.477209 49.618305 
L 269.279513 49.618305 
L 269.279513 49.022165 
L 304.692056 49.022165 
L 304.692056 48.426025 
L 322.654547 48.426025 
L 322.654547 47.829884 
L 349.452345 47.829884 
L 349.452345 47.233744 
L 365.76283 47.233744 
L 365.76283 46.637603 
L 387.931902 46.637603 
L 387.931902 46.041463 
L 388.122815 46.041463 
L 388.122815 45.445322 
L 389.37345 45.445322 
L 389.37345 44.849182 
L 389.97734 44.849182 
L 389.97734 44.253041 
L 412.154672 44.253041 
L 412.154672 43.656901 
L 412.203064 43.656901 
L 412.203064 43.06076 
L 412.351787 43.06076 
L 412.351787 42.46462 
L 412.498056 42.46462 
L 412.498056 41.86848 
L 412.583921 41.86848 
L 412.583921 41.272339 
L 412.768761 41.272339 
L 412.768761 40.676199 
L 413.371963 40.676199 
L 413.371963 40.080058 
L 413.435322 40.080058 
L 413.435322 39.483918 
L 413.970988 39.483918 
L 413.970988 38.887777 
L 414.52035 38.887777 
L 414.52035 38.291637 
L 415.071857 38.291637 
L 415.071857 37.695496 
L 415.071857 37.695496 
L 415.071857 37.695496 
L 450.672 37.695496 
" style="fill:none;stroke:#bf00bf;stroke-linecap:square;stroke-width:1.5;"/>
   </g>
   <g id="line2d_157">
    <defs>
     <path d="M 0 7.5 
C 1.989023 7.5 3.896849 6.709753 5.303301 5.303301 
C 6.709753 3.896849 7.5 1.989023 7.5 0 
C 7.5 -1.989023 6.709753 -3.896849 5.303301 -5.303301 
C 3.896849 -6.709753 1.989023 -7.5 0 -7.5 
C -1.989023 -7.5 -3.896849 -6.709753 -5.303301 -5.303301 
C -6.709753 -3.896849 -7.5 -1.989023 -7.5 0 
C -7.5 1.989023 -6.709753 3.896849 -5.303301 5.303301 
C -3.896849 6.709753 -1.989023 7.5 0 7.5 
z
" id="m0f2768ee1f" style="stroke:#bf00bf;stroke-width:1.5;"/>
    </defs>
    <g clip-path="url(#pd33e77437c)">
     <use style="fill-opacity:0;stroke:#bf00bf;stroke-width:1.5;" x="177.920061" xlink:href="#m0f2768ee1f" y="52.002867"/>
     <use style="fill-opacity:0;stroke:#bf00bf;stroke-width:1.5;" x="251.123751" xlink:href="#m0f2768ee1f" y="50.810586"/>
     <use style="fill-opacity:0;stroke:#bf00bf;stroke-width:1.5;" x="304.692056" xlink:href="#m0f2768ee1f" y="49.022165"/>
     <use style="fill-opacity:0;stroke:#bf00bf;stroke-width:1.5;" x="349.452345" xlink:href="#m0f2768ee1f" y="47.829884"/>
     <use style="fill-opacity:0;stroke:#bf00bf;stroke-width:1.5;" x="412.154672" xlink:href="#m0f2768ee1f" y="44.253041"/>
     <use style="fill-opacity:0;stroke:#bf00bf;stroke-width:1.5;" x="415.071857" xlink:href="#m0f2768ee1f" y="37.695496"/>
    </g>
   </g>
   <g id="line2d_158">
    <path clip-path="url(#pd33e77437c)" d="M -1 96.713402 
L 450.672 96.713402 
" style="fill:none;stroke:#bf00bf;stroke-linecap:square;stroke-width:1.5;"/>
   </g>
   <g id="line2d_159">
    <path clip-path="url(#pd33e77437c)" d="M 188.604769 52.002867 
L 188.604769 51.406727 
L 192.931089 51.406727 
L 192.931089 50.810586 
L 213.635238 50.810586 
L 213.635238 50.214446 
L 219.262942 50.214446 
L 219.262942 49.618305 
L 231.956434 49.618305 
L 231.956434 49.022165 
L 323.888233 49.022165 
L 323.888233 48.426025 
L 336.391972 48.426025 
L 336.391972 47.829884 
L 383.632037 47.829884 
L 383.632037 47.233744 
L 384.838049 47.233744 
L 384.838049 46.637603 
L 385.188058 46.637603 
L 385.188058 46.041463 
L 387.688309 46.041463 
L 387.688309 45.445322 
L 409.022605 45.445322 
L 409.022605 44.849182 
L 409.407606 44.849182 
L 409.407606 44.253041 
L 409.611346 44.253041 
L 409.611346 43.656901 
L 409.674206 43.656901 
L 409.674206 43.06076 
L 409.676958 43.06076 
L 409.676958 42.46462 
L 409.888381 42.46462 
L 409.888381 41.86848 
L 409.939444 41.86848 
L 409.939444 41.272339 
L 409.989684 41.272339 
L 409.989684 40.676199 
L 410.10821 40.676199 
L 410.10821 40.080058 
L 410.13427 40.080058 
L 410.13427 39.483918 
L 410.200438 39.483918 
L 410.200438 38.887777 
L 410.200438 38.887777 
L 410.200438 38.887777 
L 450.672 38.887777 
" style="fill:none;stroke:#ff0000;stroke-linecap:square;stroke-width:3;"/>
   </g>
   <g id="line2d_160">
    <defs>
     <path d="M 0 -10 
L -8.660254 -5 
L -8.660254 5 
L -0 10 
L 8.660254 5 
L 8.660254 -5 
z
" id="m7ad8247380" style="stroke:#ff0000;stroke-linejoin:miter;stroke-width:3;"/>
    </defs>
    <g clip-path="url(#pd33e77437c)">
     <use style="fill-opacity:0;stroke:#ff0000;stroke-linejoin:miter;stroke-width:3;" x="219.262942" xlink:href="#m7ad8247380" y="50.214446"/>
     <use style="fill-opacity:0;stroke:#ff0000;stroke-linejoin:miter;stroke-width:3;" x="231.956434" xlink:href="#m7ad8247380" y="49.618305"/>
     <use style="fill-opacity:0;stroke:#ff0000;stroke-linejoin:miter;stroke-width:3;" x="231.956434" xlink:href="#m7ad8247380" y="49.618305"/>
     <use style="fill-opacity:0;stroke:#ff0000;stroke-linejoin:miter;stroke-width:3;" x="384.838049" xlink:href="#m7ad8247380" y="47.233744"/>
     <use style="fill-opacity:0;stroke:#ff0000;stroke-linejoin:miter;stroke-width:3;" x="409.939444" xlink:href="#m7ad8247380" y="41.86848"/>
     <use style="fill-opacity:0;stroke:#ff0000;stroke-linejoin:miter;stroke-width:3;" x="410.200438" xlink:href="#m7ad8247380" y="38.887777"/>
    </g>
   </g>
   <g id="line2d_161">
    <path clip-path="url(#pd33e77437c)" d="M -1 96.713402 
L 450.672 96.713402 
" style="fill:none;stroke:#ff0000;stroke-linecap:square;stroke-width:3;"/>
    <g clip-path="url(#pd33e77437c)">
     <use style="fill-opacity:0;stroke:#ff0000;stroke-linejoin:miter;stroke-width:3;" x="-1" xlink:href="#m7ad8247380" y="96.713402"/>
     <use style="fill-opacity:0;stroke:#ff0000;stroke-linejoin:miter;stroke-width:3;" x="450.672" xlink:href="#m7ad8247380" y="96.713402"/>
    </g>
   </g>
   <g id="line2d_162">
    <path clip-path="url(#pd33e77437c)" d="M 190.309825 52.002867 
L 190.309825 51.406727 
L 192.5396 51.406727 
L 192.5396 50.810586 
L 254.060268 50.810586 
L 254.060268 50.214446 
L 270.938717 50.214446 
L 270.938717 49.618305 
L 271.708452 49.618305 
L 271.708452 49.022165 
L 307.058237 49.022165 
L 307.058237 48.426025 
L 324.305369 48.426025 
L 324.305369 47.829884 
L 351.213487 47.829884 
L 351.213487 47.233744 
L 367.706903 47.233744 
L 367.706903 46.637603 
L 388.8789 46.637603 
L 388.8789 46.041463 
L 389.039258 46.041463 
L 389.039258 45.445322 
L 390.253215 45.445322 
L 390.253215 44.849182 
L 390.795012 44.849182 
L 390.795012 44.253041 
L 412.974544 44.253041 
L 412.974544 43.656901 
L 413.026543 43.656901 
L 413.026543 43.06076 
L 413.169304 43.06076 
L 413.169304 42.46462 
L 413.313409 42.46462 
L 413.313409 41.86848 
L 413.376188 41.86848 
L 413.376188 41.272339 
L 413.593201 41.272339 
L 413.593201 40.676199 
L 414.135992 40.676199 
L 414.135992 40.080058 
L 414.197454 40.080058 
L 414.197454 39.483918 
L 414.75042 39.483918 
L 414.75042 38.887777 
L 415.269833 38.887777 
L 415.269833 38.291637 
L 415.822924 38.291637 
L 415.822924 37.695496 
L 415.822924 37.695496 
L 415.822924 37.695496 
L 450.672 37.695496 
" style="fill:none;stroke:#ff0000;stroke-linecap:square;stroke-width:3;"/>
   </g>
   <g id="line2d_163">
    <defs>
     <path d="M 0 7.5 
C 1.989023 7.5 3.896849 6.709753 5.303301 5.303301 
C 6.709753 3.896849 7.5 1.989023 7.5 0 
C 7.5 -1.989023 6.709753 -3.896849 5.303301 -5.303301 
C 3.896849 -6.709753 1.989023 -7.5 0 -7.5 
C -1.989023 -7.5 -3.896849 -6.709753 -5.303301 -5.303301 
C -6.709753 -3.896849 -7.5 -1.989023 -7.5 0 
C -7.5 1.989023 -6.709753 3.896849 -5.303301 5.303301 
C -3.896849 6.709753 -1.989023 7.5 0 7.5 
z
" id="m9804f19220" style="stroke:#ff0000;stroke-width:3;"/>
    </defs>
    <g clip-path="url(#pd33e77437c)">
     <use style="fill-opacity:0;stroke:#ff0000;stroke-width:3;" x="192.5396" xlink:href="#m9804f19220" y="51.406727"/>
     <use style="fill-opacity:0;stroke:#ff0000;stroke-width:3;" x="271.708452" xlink:href="#m9804f19220" y="49.618305"/>
     <use style="fill-opacity:0;stroke:#ff0000;stroke-width:3;" x="324.305369" xlink:href="#m9804f19220" y="48.426025"/>
     <use style="fill-opacity:0;stroke:#ff0000;stroke-width:3;" x="390.253215" xlink:href="#m9804f19220" y="45.445322"/>
     <use style="fill-opacity:0;stroke:#ff0000;stroke-width:3;" x="415.822924" xlink:href="#m9804f19220" y="38.291637"/>
     <use style="fill-opacity:0;stroke:#ff0000;stroke-width:3;" x="415.822924" xlink:href="#m9804f19220" y="37.695496"/>
    </g>
   </g>
   <g id="line2d_164">
    <path clip-path="url(#pd33e77437c)" d="M -1 96.713402 
L 450.672 96.713402 
" style="fill:none;stroke:#ff0000;stroke-linecap:square;stroke-width:3;"/>
   </g>
   <g id="line2d_165">
    <path clip-path="url(#pd33e77437c)" d="M 432.055238 52.002867 
L 432.055238 6.845228 
" style="fill:none;stroke:#000000;stroke-linecap:square;stroke-width:1.5;"/>
    <defs>
     <path d="M -10 0 
L 10 0 
M 0 10 
L 0 -10 
" id="mfd581985e9" style="stroke:#000000;stroke-width:3;"/>
    </defs>
    <g clip-path="url(#pd33e77437c)">
     <use style="stroke:#000000;stroke-width:3;" x="432.055238" xlink:href="#mfd581985e9" y="52.002867"/>
     <use style="stroke:#000000;stroke-width:3;" x="432.055238" xlink:href="#mfd581985e9" y="6.845228"/>
    </g>
   </g>
   <g id="line2d_166">
    <path clip-path="url(#pd33e77437c)" d="M 430.148474 52.002867 
L 430.148474 6.845228 
" style="fill:none;stroke:#000000;stroke-linecap:square;stroke-width:1.5;"/>
    <defs>
     <path d="M 0 7.5 
C 1.989023 7.5 3.896849 6.709753 5.303301 5.303301 
C 6.709753 3.896849 7.5 1.989023 7.5 0 
C 7.5 -1.989023 6.709753 -3.896849 5.303301 -5.303301 
C 3.896849 -6.709753 1.989023 -7.5 0 -7.5 
C -1.989023 -7.5 -3.896849 -6.709753 -5.303301 -5.303301 
C -6.709753 -3.896849 -7.5 -1.989023 -7.5 0 
C -7.5 1.989023 -6.709753 3.896849 -5.303301 5.303301 
C -3.896849 6.709753 -1.989023 7.5 0 7.5 
z
" id="mb071127118" style="stroke:#000000;stroke-width:3;"/>
    </defs>
    <g clip-path="url(#pd33e77437c)">
     <use style="fill-opacity:0;stroke:#000000;stroke-width:3;" x="430.148474" xlink:href="#mb071127118" y="52.002867"/>
     <use style="fill-opacity:0;stroke:#000000;stroke-width:3;" x="430.148474" xlink:href="#mb071127118" y="6.845228"/>
    </g>
   </g>
   <g id="patch_3">
    <path d="M 59.72 52.002867 
L 59.72 6.845228 
" style="fill:none;stroke:#000000;stroke-linecap:square;stroke-linejoin:miter;stroke-width:0.8;"/>
   </g>
   <g id="patch_4">
    <path d="M 450.672 52.002867 
L 450.672 6.845228 
" style="fill:none;stroke:#000000;stroke-linecap:square;stroke-linejoin:miter;stroke-width:0.8;"/>
   </g>
   <g id="patch_5">
    <path d="M 59.72 52.002867 
L 450.672 52.002867 
" style="fill:none;stroke:#000000;stroke-linecap:square;stroke-linejoin:miter;stroke-width:0.8;"/>
   </g>
   <g id="patch_6">
    <path d="M 59.72 6.845228 
L 450.672 6.845228 
" style="fill:none;stroke:#000000;stroke-linecap:square;stroke-linejoin:miter;stroke-width:0.8;"/>
   </g>
   <g id="text_12">
    <!-- f20-f24 -->
    <defs>
     <path d="M 4.890625 31.390625 
L 31.203125 31.390625 
L 31.203125 23.390625 
L 4.890625 23.390625 
z
" id="DejaVuSans-45"/>
    </defs>
    <g transform="translate(219.097563 22.945256)scale(0.2 -0.2)">
     <use xlink:href="#DejaVuSans-102"/>
     <use x="35.205078" xlink:href="#DejaVuSans-50"/>
     <use x="98.828125" xlink:href="#DejaVuSans-48"/>
     <use x="162.451172" xlink:href="#DejaVuSans-45"/>
     <use x="198.535156" xlink:href="#DejaVuSans-102"/>
     <use x="233.740234" xlink:href="#DejaVuSans-50"/>
     <use x="297.363281" xlink:href="#DejaVuSans-52"/>
    </g>
   </g>
   <g id="text_13">
    <!-- absolute targets -->
    <defs>
     <path d="M 48.6875 27.296875 
Q 48.6875 37.203125 44.609375 42.84375 
Q 40.53125 48.484375 33.40625 48.484375 
Q 26.265625 48.484375 22.1875 42.84375 
Q 18.109375 37.203125 18.109375 27.296875 
Q 18.109375 17.390625 22.1875 11.75 
Q 26.265625 6.109375 33.40625 6.109375 
Q 40.53125 6.109375 44.609375 11.75 
Q 48.6875 17.390625 48.6875 27.296875 
z
M 18.109375 46.390625 
Q 20.953125 51.265625 25.265625 53.625 
Q 29.59375 56 35.59375 56 
Q 45.5625 56 51.78125 48.09375 
Q 58.015625 40.1875 58.015625 27.296875 
Q 58.015625 14.40625 51.78125 6.484375 
Q 45.5625 -1.421875 35.59375 -1.421875 
Q 29.59375 -1.421875 25.265625 0.953125 
Q 20.953125 3.328125 18.109375 8.203125 
L 18.109375 0 
L 9.078125 0 
L 9.078125 75.984375 
L 18.109375 75.984375 
z
" id="DejaVuSans-98"/>
     <path d="M 8.5 21.578125 
L 8.5 54.6875 
L 17.484375 54.6875 
L 17.484375 21.921875 
Q 17.484375 14.15625 20.5 10.265625 
Q 23.53125 6.390625 29.59375 6.390625 
Q 36.859375 6.390625 41.078125 11.03125 
Q 45.3125 15.671875 45.3125 23.6875 
L 45.3125 54.6875 
L 54.296875 54.6875 
L 54.296875 0 
L 45.3125 0 
L 45.3125 8.40625 
Q 42.046875 3.421875 37.71875 1 
Q 33.40625 -1.421875 27.6875 -1.421875 
Q 18.265625 -1.421875 13.375 4.4375 
Q 8.5 10.296875 8.5 21.578125 
z
M 31.109375 56 
z
" id="DejaVuSans-117"/>
     <path d="M 56.203125 29.59375 
L 56.203125 25.203125 
L 14.890625 25.203125 
Q 15.484375 15.921875 20.484375 11.0625 
Q 25.484375 6.203125 34.421875 6.203125 
Q 39.59375 6.203125 44.453125 7.46875 
Q 49.3125 8.734375 54.109375 11.28125 
L 54.109375 2.78125 
Q 49.265625 0.734375 44.1875 -0.34375 
Q 39.109375 -1.421875 33.890625 -1.421875 
Q 20.796875 -1.421875 13.15625 6.1875 
Q 5.515625 13.8125 5.515625 26.8125 
Q 5.515625 40.234375 12.765625 48.109375 
Q 20.015625 56 32.328125 56 
Q 43.359375 56 49.78125 48.890625 
Q 56.203125 41.796875 56.203125 29.59375 
z
M 47.21875 32.234375 
Q 47.125 39.59375 43.09375 43.984375 
Q 39.0625 48.390625 32.421875 48.390625 
Q 24.90625 48.390625 20.390625 44.140625 
Q 15.875 39.890625 15.1875 32.171875 
z
" id="DejaVuSans-101"/>
    </defs>
    <g transform="translate(59.72 100.826771)scale(0.14 -0.14)">
     <use xlink:href="#DejaVuSans-97"/>
     <use x="61.279297" xlink:href="#DejaVuSans-98"/>
     <use x="124.755859" xlink:href="#DejaVuSans-115"/>
     <use x="176.855469" xlink:href="#DejaVuSans-111"/>
     <use x="238.037109" xlink:href="#DejaVuSans-108"/>
     <use x="265.820312" xlink:href="#DejaVuSans-117"/>
     <use x="329.199219" xlink:href="#DejaVuSans-116"/>
     <use x="368.408203" xlink:href="#DejaVuSans-101"/>
     <use x="429.931641" xlink:href="#DejaVuSans-32"/>
     <use x="461.71875" xlink:href="#DejaVuSans-116"/>
     <use x="500.927734" xlink:href="#DejaVuSans-97"/>
     <use x="562.207031" xlink:href="#DejaVuSans-114"/>
     <use x="603.304688" xlink:href="#DejaVuSans-103"/>
     <use x="666.78125" xlink:href="#DejaVuSans-101"/>
     <use x="728.304688" xlink:href="#DejaVuSans-116"/>
     <use x="767.513672" xlink:href="#DejaVuSans-115"/>
    </g>
   </g>
   <g id="text_14">
    <!-- v2.3.1.30 -->
    <defs>
     <path d="M 40.578125 39.3125 
Q 47.65625 37.796875 51.625 33 
Q 55.609375 28.21875 55.609375 21.1875 
Q 55.609375 10.40625 48.1875 4.484375 
Q 40.765625 -1.421875 27.09375 -1.421875 
Q 22.515625 -1.421875 17.65625 -0.515625 
Q 12.796875 0.390625 7.625 2.203125 
L 7.625 11.71875 
Q 11.71875 9.328125 16.59375 8.109375 
Q 21.484375 6.890625 26.8125 6.890625 
Q 36.078125 6.890625 40.9375 10.546875 
Q 45.796875 14.203125 45.796875 21.1875 
Q 45.796875 27.640625 41.28125 31.265625 
Q 36.765625 34.90625 28.71875 34.90625 
L 20.21875 34.90625 
L 20.21875 43.015625 
L 29.109375 43.015625 
Q 36.375 43.015625 40.234375 45.921875 
Q 44.09375 48.828125 44.09375 54.296875 
Q 44.09375 59.90625 40.109375 62.90625 
Q 36.140625 65.921875 28.71875 65.921875 
Q 24.65625 65.921875 20.015625 65.03125 
Q 15.375 64.15625 9.8125 62.3125 
L 9.8125 71.09375 
Q 15.4375 72.65625 20.34375 73.4375 
Q 25.25 74.21875 29.59375 74.21875 
Q 40.828125 74.21875 47.359375 69.109375 
Q 53.90625 64.015625 53.90625 55.328125 
Q 53.90625 49.265625 50.4375 45.09375 
Q 46.96875 40.921875 40.578125 39.3125 
z
" id="DejaVuSans-51"/>
    </defs>
    <g style="fill:#808080;" transform="translate(231.563188 49.471603)scale(0.1 -0.1)">
     <use xlink:href="#DejaVuSans-118"/>
     <use x="59.179688" xlink:href="#DejaVuSans-50"/>
     <use x="122.802734" xlink:href="#DejaVuSans-46"/>
     <use x="154.589844" xlink:href="#DejaVuSans-51"/>
     <use x="218.212891" xlink:href="#DejaVuSans-46"/>
     <use x="250" xlink:href="#DejaVuSans-49"/>
     <use x="313.623047" xlink:href="#DejaVuSans-46"/>
     <use x="345.410156" xlink:href="#DejaVuSans-51"/>
     <use x="409.033203" xlink:href="#DejaVuSans-48"/>
    </g>
   </g>
   <g id="legend_1">
    <g id="patch_7">
     <path d="M 213.225687 42.002867 
L 297.166313 42.002867 
Q 301.166313 42.002867 301.166313 38.002867 
L 301.166313 -77.422133 
Q 301.166313 -81.422133 297.166313 -81.422133 
L 213.225687 -81.422133 
Q 209.225687 -81.422133 209.225687 -77.422133 
L 209.225687 38.002867 
Q 209.225687 42.002867 213.225687 42.002867 
z
" style="fill:#ffffff;opacity:0.2;stroke:#cccccc;stroke-linejoin:miter;"/>
    </g>
    <g id="line2d_167">
     <path style="fill:none;stroke:#000000;stroke-linecap:square;stroke-width:1.5;"/>
    </g>
    <g id="line2d_168"/>
    <g id="text_15">
     <!-- 1 -->
     <g transform="translate(273.225687 -58.225258)scale(0.2 -0.2)">
      <use xlink:href="#DejaVuSans-49"/>
     </g>
    </g>
    <g id="line2d_169">
     <path style="fill:none;stroke:#00bfbf;stroke-linecap:square;stroke-width:1.5;"/>
    </g>
    <g id="line2d_170"/>
    <g id="text_16">
     <!-- -1 -->
     <g transform="translate(273.225687 -28.869008)scale(0.2 -0.2)">
      <use xlink:href="#DejaVuSans-45"/>
      <use x="36.083984" xlink:href="#DejaVuSans-49"/>
     </g>
    </g>
    <g id="line2d_171">
     <path style="fill:none;stroke:#bf00bf;stroke-linecap:square;stroke-width:1.5;"/>
    </g>
    <g id="line2d_172"/>
    <g id="text_17">
     <!-- -4 -->
     <g transform="translate(273.225687 0.487242)scale(0.2 -0.2)">
      <use xlink:href="#DejaVuSans-45"/>
      <use x="36.083984" xlink:href="#DejaVuSans-52"/>
     </g>
    </g>
    <g id="line2d_173">
     <path d="M 217.225687 22.843492 
L 257.225687 22.843492 
" style="fill:none;stroke:#ff0000;stroke-linecap:square;stroke-width:3;"/>
    </g>
    <g id="line2d_174"/>
    <g id="text_18">
     <!-- -8 -->
     <g transform="translate(273.225687 29.843492)scale(0.2 -0.2)">
      <use xlink:href="#DejaVuSans-45"/>
      <use x="36.083984" xlink:href="#DejaVuSans-56"/>
     </g>
    </g>
   </g>
  </g>
 </g>
 <defs>
  <clipPath id="pd33e77437c">
   <rect height="45.15764" width="390.952" x="59.72" y="6.845228"/>
  </clipPath>
 </defs>
</svg>
