<?xml version="1.0" encoding="utf-8" standalone="no"?>
<!DOCTYPE svg PUBLIC "-//W3C//DTD SVG 1.1//EN"
  "http://www.w3.org/Graphics/SVG/1.1/DTD/svg11.dtd">
<!-- Created with matplotlib (https://matplotlib.org/) -->
<svg height="345.6pt" version="1.1" viewBox="0 0 460.8 345.6" width="460.8pt" xmlns="http://www.w3.org/2000/svg" xmlns:xlink="http://www.w3.org/1999/xlink">
 <defs>
  <style type="text/css">
*{stroke-linecap:butt;stroke-linejoin:round;}
  </style>
 </defs>
 <g id="figure_1">
  <g id="patch_1">
   <path d="M 0 345.6 
L 460.8 345.6 
L 460.8 0 
L 0 0 
z
" style="fill:#ffffff;"/>
  </g>
  <g id="axes_1">
   <g id="patch_2">
    <path d="M 57.6 298.944 
L 338.688 298.944 
L 338.688 41.472 
L 57.6 41.472 
z
" style="fill:#ffffff;"/>
   </g>
   <g id="line2d_1">
    <path d="M 17.444571 298.944 
L 17.444571 297.944303 
L 36.60358 297.944303 
L 36.60358 296.944606 
L 53.708537 296.944606 
L 53.708537 295.944909 
L 65.796525 295.944909 
L 65.796525 293.945514 
L 68.79347 293.945514 
L 68.79347 292.945817 
L 69.687988 292.945817 
L 69.687988 243.960657 
L 71.35013 243.960657 
L 71.35013 238.962171 
L 72.125336 238.962171 
L 72.125336 196.974891 
L 91.284345 196.974891 
L 91.284345 195.975194 
L 97.403108 195.975194 
L 97.403108 194.975497 
L 103.498249 194.975497 
L 103.498249 193.9758 
L 104.474128 193.9758 
L 104.474128 192.976103 
L 108.483824 192.976103 
L 108.577836 187.977617 
L 108.671345 187.977617 
L 108.671345 186.97792 
L 108.856871 186.97792 
L 108.948899 180.979737 
L 109.040444 180.979737 
L 109.131511 167.983674 
L 109.222105 167.983674 
L 109.31223 150.988822 
L 109.401893 150.988822 
L 109.491096 141.991548 
L 121.400219 141.991548 
L 121.400219 140.991851 
L 135.158519 140.991851 
L 135.158519 139.992154 
L 140.026805 139.992154 
L 140.026805 138.992457 
L 144.111818 138.992457 
L 144.111818 137.992759 
L 144.282077 137.992759 
L 144.282077 136.993062 
L 147.56019 136.993062 
L 147.56019 135.993365 
L 147.759612 135.993365 
L 147.759612 134.993668 
L 149.25057 134.993668 
L 149.25057 133.993971 
L 151.928441 133.993971 
L 151.928441 132.994274 
L 153.946025 132.994274 
L 153.946025 131.994577 
L 154.873541 131.994577 
L 154.873541 130.994879 
L 157.613546 130.994879 
L 157.613546 129.995182 
L 160.191194 129.995182 
L 160.292966 121.997605 
L 160.302628 121.997605 
L 160.37492 117.998817 
L 160.418152 117.998817 
L 160.528149 81.010022 
L 160.537682 81.010022 
L 160.613753 77.011234 
L 160.670589 77.011234 
L 160.760203 69.013656 
L 160.886762 69.013656 
L 160.993852 58.016988 
L 160.998493 58.016988 
L 161.072584 52.018805 
L 196.492788 52.018805 
L 196.495213 44.021228 
L 338.688 44.021228 
L 338.688 44.021228 
" style="fill:none;stroke:#f5deb3;stroke-linecap:square;stroke-width:4;"/>
   </g>
   <g id="line2d_2">
    <defs>
     <path d="M -0 7.778175 
L 7.778175 0 
L 0 -7.778175 
L -7.778175 -0 
z
" id="m72c6016ccc" style="stroke:#f5deb3;stroke-linejoin:miter;stroke-width:1.5;"/>
    </defs>
    <g>
     <use style="fill:#f5deb3;stroke:#f5deb3;stroke-linejoin:miter;stroke-width:1.5;" x="69.687988" xlink:href="#m72c6016ccc" y="292.945817"/>
     <use style="fill:#f5deb3;stroke:#f5deb3;stroke-linejoin:miter;stroke-width:1.5;" x="108.577836" xlink:href="#m72c6016ccc" y="191.976405"/>
     <use style="fill:#f5deb3;stroke:#f5deb3;stroke-linejoin:miter;stroke-width:1.5;" x="160.475629" xlink:href="#m72c6016ccc" y="95.005782"/>
     <use style="fill:#f5deb3;stroke:#f5deb3;stroke-linejoin:miter;stroke-width:1.5;" x="196.495213" xlink:href="#m72c6016ccc" y="46.020622"/>
     <use style="fill:#f5deb3;stroke:#f5deb3;stroke-linejoin:miter;stroke-width:1.5;" x="196.495213" xlink:href="#m72c6016ccc" y="44.021228"/>
     <use style="fill:#f5deb3;stroke:#f5deb3;stroke-linejoin:miter;stroke-width:1.5;" x="338.688" xlink:href="#m72c6016ccc" y="44.021228"/>
    </g>
   </g>
   <g id="line2d_3">
    <path style="fill:none;stroke:#f5deb3;stroke-linecap:square;stroke-width:4;"/>
    <g/>
   </g>
   <g id="line2d_4">
    <path d="M 338.688 44.021228 
L 369.60768 49.119683 
" style="fill:none;stroke:#f5deb3;stroke-linecap:square;stroke-width:4;"/>
    <g>
     <use style="fill:#f5deb3;stroke:#f5deb3;stroke-linejoin:miter;stroke-width:1.5;" x="338.688" xlink:href="#m72c6016ccc" y="44.021228"/>
     <use style="fill:#f5deb3;stroke:#f5deb3;stroke-linejoin:miter;stroke-width:1.5;" x="369.60768" xlink:href="#m72c6016ccc" y="49.119683"/>
    </g>
   </g>
   <g id="matplotlib.axis_1">
    <g id="xtick_1">
     <g id="line2d_5">
      <path clip-path="url(#p5fae0155be)" d="M 57.6 298.944 
L 57.6 41.472 
" style="fill:none;stroke:#b0b0b0;stroke-linecap:square;stroke-width:0.8;"/>
     </g>
     <g id="line2d_6">
      <defs>
       <path d="M 0 0 
L 0 3.5 
" id="m98d51c8ea8" style="stroke:#000000;stroke-width:0.8;"/>
      </defs>
      <g>
       <use style="stroke:#000000;stroke-width:0.8;" x="57.6" xlink:href="#m98d51c8ea8" y="298.944"/>
      </g>
     </g>
     <g id="text_1">
      <!-- 0 -->
      <defs>
       <path d="M 31.78125 66.40625 
Q 24.171875 66.40625 20.328125 58.90625 
Q 16.5 51.421875 16.5 36.375 
Q 16.5 21.390625 20.328125 13.890625 
Q 24.171875 6.390625 31.78125 6.390625 
Q 39.453125 6.390625 43.28125 13.890625 
Q 47.125 21.390625 47.125 36.375 
Q 47.125 51.421875 43.28125 58.90625 
Q 39.453125 66.40625 31.78125 66.40625 
z
M 31.78125 74.21875 
Q 44.046875 74.21875 50.515625 64.515625 
Q 56.984375 54.828125 56.984375 36.375 
Q 56.984375 17.96875 50.515625 8.265625 
Q 44.046875 -1.421875 31.78125 -1.421875 
Q 19.53125 -1.421875 13.0625 8.265625 
Q 6.59375 17.96875 6.59375 36.375 
Q 6.59375 54.828125 13.0625 64.515625 
Q 19.53125 74.21875 31.78125 74.21875 
z
" id="DejaVuSans-48"/>
      </defs>
      <g transform="translate(51.2375 321.140875)scale(0.2 -0.2)">
       <use xlink:href="#DejaVuSans-48"/>
      </g>
     </g>
    </g>
    <g id="xtick_2">
     <g id="line2d_7">
      <path clip-path="url(#p5fae0155be)" d="M 137.910857 298.944 
L 137.910857 41.472 
" style="fill:none;stroke:#b0b0b0;stroke-linecap:square;stroke-width:0.8;"/>
     </g>
     <g id="line2d_8">
      <g>
       <use style="stroke:#000000;stroke-width:0.8;" x="137.910857" xlink:href="#m98d51c8ea8" y="298.944"/>
      </g>
     </g>
     <g id="text_2">
      <!-- 2 -->
      <defs>
       <path d="M 19.1875 8.296875 
L 53.609375 8.296875 
L 53.609375 0 
L 7.328125 0 
L 7.328125 8.296875 
Q 12.9375 14.109375 22.625 23.890625 
Q 32.328125 33.6875 34.8125 36.53125 
Q 39.546875 41.84375 41.421875 45.53125 
Q 43.3125 49.21875 43.3125 52.78125 
Q 43.3125 58.59375 39.234375 62.25 
Q 35.15625 65.921875 28.609375 65.921875 
Q 23.96875 65.921875 18.8125 64.3125 
Q 13.671875 62.703125 7.8125 59.421875 
L 7.8125 69.390625 
Q 13.765625 71.78125 18.9375 73 
Q 24.125 74.21875 28.421875 74.21875 
Q 39.75 74.21875 46.484375 68.546875 
Q 53.21875 62.890625 53.21875 53.421875 
Q 53.21875 48.921875 51.53125 44.890625 
Q 49.859375 40.875 45.40625 35.40625 
Q 44.1875 33.984375 37.640625 27.21875 
Q 31.109375 20.453125 19.1875 8.296875 
z
" id="DejaVuSans-50"/>
      </defs>
      <g transform="translate(131.548357 321.140875)scale(0.2 -0.2)">
       <use xlink:href="#DejaVuSans-50"/>
      </g>
     </g>
    </g>
    <g id="xtick_3">
     <g id="line2d_9">
      <path clip-path="url(#p5fae0155be)" d="M 218.221714 298.944 
L 218.221714 41.472 
" style="fill:none;stroke:#b0b0b0;stroke-linecap:square;stroke-width:0.8;"/>
     </g>
     <g id="line2d_10">
      <g>
       <use style="stroke:#000000;stroke-width:0.8;" x="218.221714" xlink:href="#m98d51c8ea8" y="298.944"/>
      </g>
     </g>
     <g id="text_3">
      <!-- 4 -->
      <defs>
       <path d="M 37.796875 64.3125 
L 12.890625 25.390625 
L 37.796875 25.390625 
z
M 35.203125 72.90625 
L 47.609375 72.90625 
L 47.609375 25.390625 
L 58.015625 25.390625 
L 58.015625 17.1875 
L 47.609375 17.1875 
L 47.609375 0 
L 37.796875 0 
L 37.796875 17.1875 
L 4.890625 17.1875 
L 4.890625 26.703125 
z
" id="DejaVuSans-52"/>
      </defs>
      <g transform="translate(211.859214 321.140875)scale(0.2 -0.2)">
       <use xlink:href="#DejaVuSans-52"/>
      </g>
     </g>
    </g>
    <g id="xtick_4">
     <g id="line2d_11">
      <path clip-path="url(#p5fae0155be)" d="M 298.532571 298.944 
L 298.532571 41.472 
" style="fill:none;stroke:#b0b0b0;stroke-linecap:square;stroke-width:0.8;"/>
     </g>
     <g id="line2d_12">
      <g>
       <use style="stroke:#000000;stroke-width:0.8;" x="298.532571" xlink:href="#m98d51c8ea8" y="298.944"/>
      </g>
     </g>
     <g id="text_4">
      <!-- 6 -->
      <defs>
       <path d="M 33.015625 40.375 
Q 26.375 40.375 22.484375 35.828125 
Q 18.609375 31.296875 18.609375 23.390625 
Q 18.609375 15.53125 22.484375 10.953125 
Q 26.375 6.390625 33.015625 6.390625 
Q 39.65625 6.390625 43.53125 10.953125 
Q 47.40625 15.53125 47.40625 23.390625 
Q 47.40625 31.296875 43.53125 35.828125 
Q 39.65625 40.375 33.015625 40.375 
z
M 52.59375 71.296875 
L 52.59375 62.3125 
Q 48.875 64.0625 45.09375 64.984375 
Q 41.3125 65.921875 37.59375 65.921875 
Q 27.828125 65.921875 22.671875 59.328125 
Q 17.53125 52.734375 16.796875 39.40625 
Q 19.671875 43.65625 24.015625 45.921875 
Q 28.375 48.1875 33.59375 48.1875 
Q 44.578125 48.1875 50.953125 41.515625 
Q 57.328125 34.859375 57.328125 23.390625 
Q 57.328125 12.15625 50.6875 5.359375 
Q 44.046875 -1.421875 33.015625 -1.421875 
Q 20.359375 -1.421875 13.671875 8.265625 
Q 6.984375 17.96875 6.984375 36.375 
Q 6.984375 53.65625 15.1875 63.9375 
Q 23.390625 74.21875 37.203125 74.21875 
Q 40.921875 74.21875 44.703125 73.484375 
Q 48.484375 72.75 52.59375 71.296875 
z
" id="DejaVuSans-54"/>
      </defs>
      <g transform="translate(292.170071 321.140875)scale(0.2 -0.2)">
       <use xlink:href="#DejaVuSans-54"/>
      </g>
     </g>
    </g>
    <g id="xtick_5">
     <g id="line2d_13">
      <path clip-path="url(#p5fae0155be)" d="M 57.6 298.944 
L 57.6 41.472 
" style="fill:none;stroke:#b0b0b0;stroke-linecap:square;stroke-width:0.8;"/>
     </g>
     <g id="line2d_14">
      <defs>
       <path d="M 0 0 
L 0 2 
" id="mecb28d0328" style="stroke:#000000;stroke-width:0.6;"/>
      </defs>
      <g>
       <use style="stroke:#000000;stroke-width:0.6;" x="57.6" xlink:href="#mecb28d0328" y="298.944"/>
      </g>
     </g>
    </g>
    <g id="xtick_6">
     <g id="line2d_15">
      <path clip-path="url(#p5fae0155be)" d="M 97.755429 298.944 
L 97.755429 41.472 
" style="fill:none;stroke:#b0b0b0;stroke-linecap:square;stroke-width:0.8;"/>
     </g>
     <g id="line2d_16">
      <g>
       <use style="stroke:#000000;stroke-width:0.6;" x="97.755429" xlink:href="#mecb28d0328" y="298.944"/>
      </g>
     </g>
    </g>
    <g id="xtick_7">
     <g id="line2d_17">
      <path clip-path="url(#p5fae0155be)" d="M 137.910857 298.944 
L 137.910857 41.472 
" style="fill:none;stroke:#b0b0b0;stroke-linecap:square;stroke-width:0.8;"/>
     </g>
     <g id="line2d_18">
      <g>
       <use style="stroke:#000000;stroke-width:0.6;" x="137.910857" xlink:href="#mecb28d0328" y="298.944"/>
      </g>
     </g>
    </g>
    <g id="xtick_8">
     <g id="line2d_19">
      <path clip-path="url(#p5fae0155be)" d="M 178.066286 298.944 
L 178.066286 41.472 
" style="fill:none;stroke:#b0b0b0;stroke-linecap:square;stroke-width:0.8;"/>
     </g>
     <g id="line2d_20">
      <g>
       <use style="stroke:#000000;stroke-width:0.6;" x="178.066286" xlink:href="#mecb28d0328" y="298.944"/>
      </g>
     </g>
    </g>
    <g id="xtick_9">
     <g id="line2d_21">
      <path clip-path="url(#p5fae0155be)" d="M 218.221714 298.944 
L 218.221714 41.472 
" style="fill:none;stroke:#b0b0b0;stroke-linecap:square;stroke-width:0.8;"/>
     </g>
     <g id="line2d_22">
      <g>
       <use style="stroke:#000000;stroke-width:0.6;" x="218.221714" xlink:href="#mecb28d0328" y="298.944"/>
      </g>
     </g>
    </g>
    <g id="xtick_10">
     <g id="line2d_23">
      <path clip-path="url(#p5fae0155be)" d="M 258.377143 298.944 
L 258.377143 41.472 
" style="fill:none;stroke:#b0b0b0;stroke-linecap:square;stroke-width:0.8;"/>
     </g>
     <g id="line2d_24">
      <g>
       <use style="stroke:#000000;stroke-width:0.6;" x="258.377143" xlink:href="#mecb28d0328" y="298.944"/>
      </g>
     </g>
    </g>
    <g id="xtick_11">
     <g id="line2d_25">
      <path clip-path="url(#p5fae0155be)" d="M 298.532571 298.944 
L 298.532571 41.472 
" style="fill:none;stroke:#b0b0b0;stroke-linecap:square;stroke-width:0.8;"/>
     </g>
     <g id="line2d_26">
      <g>
       <use style="stroke:#000000;stroke-width:0.6;" x="298.532571" xlink:href="#mecb28d0328" y="298.944"/>
      </g>
     </g>
    </g>
    <g id="xtick_12">
     <g id="line2d_27">
      <path clip-path="url(#p5fae0155be)" d="M 338.688 298.944 
L 338.688 41.472 
" style="fill:none;stroke:#b0b0b0;stroke-linecap:square;stroke-width:0.8;"/>
     </g>
     <g id="line2d_28">
      <g>
       <use style="stroke:#000000;stroke-width:0.6;" x="338.688" xlink:href="#mecb28d0328" y="298.944"/>
      </g>
     </g>
    </g>
    <g id="text_5">
     <!-- log10(# f-evals / dimension) -->
     <defs>
      <path d="M 9.421875 75.984375 
L 18.40625 75.984375 
L 18.40625 0 
L 9.421875 0 
z
" id="DejaVuSans-108"/>
      <path d="M 30.609375 48.390625 
Q 23.390625 48.390625 19.1875 42.75 
Q 14.984375 37.109375 14.984375 27.296875 
Q 14.984375 17.484375 19.15625 11.84375 
Q 23.34375 6.203125 30.609375 6.203125 
Q 37.796875 6.203125 41.984375 11.859375 
Q 46.1875 17.53125 46.1875 27.296875 
Q 46.1875 37.015625 41.984375 42.703125 
Q 37.796875 48.390625 30.609375 48.390625 
z
M 30.609375 56 
Q 42.328125 56 49.015625 48.375 
Q 55.71875 40.765625 55.71875 27.296875 
Q 55.71875 13.875 49.015625 6.21875 
Q 42.328125 -1.421875 30.609375 -1.421875 
Q 18.84375 -1.421875 12.171875 6.21875 
Q 5.515625 13.875 5.515625 27.296875 
Q 5.515625 40.765625 12.171875 48.375 
Q 18.84375 56 30.609375 56 
z
" id="DejaVuSans-111"/>
      <path d="M 45.40625 27.984375 
Q 45.40625 37.75 41.375 43.109375 
Q 37.359375 48.484375 30.078125 48.484375 
Q 22.859375 48.484375 18.828125 43.109375 
Q 14.796875 37.75 14.796875 27.984375 
Q 14.796875 18.265625 18.828125 12.890625 
Q 22.859375 7.515625 30.078125 7.515625 
Q 37.359375 7.515625 41.375 12.890625 
Q 45.40625 18.265625 45.40625 27.984375 
z
M 54.390625 6.78125 
Q 54.390625 -7.171875 48.1875 -13.984375 
Q 42 -20.796875 29.203125 -20.796875 
Q 24.46875 -20.796875 20.265625 -20.09375 
Q 16.0625 -19.390625 12.109375 -17.921875 
L 12.109375 -9.1875 
Q 16.0625 -11.328125 19.921875 -12.34375 
Q 23.78125 -13.375 27.78125 -13.375 
Q 36.625 -13.375 41.015625 -8.765625 
Q 45.40625 -4.15625 45.40625 5.171875 
L 45.40625 9.625 
Q 42.625 4.78125 38.28125 2.390625 
Q 33.9375 0 27.875 0 
Q 17.828125 0 11.671875 7.65625 
Q 5.515625 15.328125 5.515625 27.984375 
Q 5.515625 40.671875 11.671875 48.328125 
Q 17.828125 56 27.875 56 
Q 33.9375 56 38.28125 53.609375 
Q 42.625 51.21875 45.40625 46.390625 
L 45.40625 54.6875 
L 54.390625 54.6875 
z
" id="DejaVuSans-103"/>
      <path d="M 12.40625 8.296875 
L 28.515625 8.296875 
L 28.515625 63.921875 
L 10.984375 60.40625 
L 10.984375 69.390625 
L 28.421875 72.90625 
L 38.28125 72.90625 
L 38.28125 8.296875 
L 54.390625 8.296875 
L 54.390625 0 
L 12.40625 0 
z
" id="DejaVuSans-49"/>
      <path d="M 31 75.875 
Q 24.46875 64.65625 21.28125 53.65625 
Q 18.109375 42.671875 18.109375 31.390625 
Q 18.109375 20.125 21.3125 9.0625 
Q 24.515625 -2 31 -13.1875 
L 23.1875 -13.1875 
Q 15.875 -1.703125 12.234375 9.375 
Q 8.59375 20.453125 8.59375 31.390625 
Q 8.59375 42.28125 12.203125 53.3125 
Q 15.828125 64.359375 23.1875 75.875 
z
" id="DejaVuSans-40"/>
      <path d="M 51.125 44 
L 36.921875 44 
L 32.8125 27.6875 
L 47.125 27.6875 
z
M 43.796875 71.78125 
L 38.71875 51.515625 
L 52.984375 51.515625 
L 58.109375 71.78125 
L 65.921875 71.78125 
L 60.890625 51.515625 
L 76.125 51.515625 
L 76.125 44 
L 58.984375 44 
L 54.984375 27.6875 
L 70.515625 27.6875 
L 70.515625 20.21875 
L 53.078125 20.21875 
L 48 0 
L 40.1875 0 
L 45.21875 20.21875 
L 30.90625 20.21875 
L 25.875 0 
L 18.015625 0 
L 23.09375 20.21875 
L 7.71875 20.21875 
L 7.71875 27.6875 
L 24.90625 27.6875 
L 29 44 
L 13.28125 44 
L 13.28125 51.515625 
L 30.90625 51.515625 
L 35.890625 71.78125 
z
" id="DejaVuSans-35"/>
      <path id="DejaVuSans-32"/>
      <path d="M 37.109375 75.984375 
L 37.109375 68.5 
L 28.515625 68.5 
Q 23.6875 68.5 21.796875 66.546875 
Q 19.921875 64.59375 19.921875 59.515625 
L 19.921875 54.6875 
L 34.71875 54.6875 
L 34.71875 47.703125 
L 19.921875 47.703125 
L 19.921875 0 
L 10.890625 0 
L 10.890625 47.703125 
L 2.296875 47.703125 
L 2.296875 54.6875 
L 10.890625 54.6875 
L 10.890625 58.5 
Q 10.890625 67.625 15.140625 71.796875 
Q 19.390625 75.984375 28.609375 75.984375 
z
" id="DejaVuSans-102"/>
      <path d="M 4.890625 31.390625 
L 31.203125 31.390625 
L 31.203125 23.390625 
L 4.890625 23.390625 
z
" id="DejaVuSans-45"/>
      <path d="M 56.203125 29.59375 
L 56.203125 25.203125 
L 14.890625 25.203125 
Q 15.484375 15.921875 20.484375 11.0625 
Q 25.484375 6.203125 34.421875 6.203125 
Q 39.59375 6.203125 44.453125 7.46875 
Q 49.3125 8.734375 54.109375 11.28125 
L 54.109375 2.78125 
Q 49.265625 0.734375 44.1875 -0.34375 
Q 39.109375 -1.421875 33.890625 -1.421875 
Q 20.796875 -1.421875 13.15625 6.1875 
Q 5.515625 13.8125 5.515625 26.8125 
Q 5.515625 40.234375 12.765625 48.109375 
Q 20.015625 56 32.328125 56 
Q 43.359375 56 49.78125 48.890625 
Q 56.203125 41.796875 56.203125 29.59375 
z
M 47.21875 32.234375 
Q 47.125 39.59375 43.09375 43.984375 
Q 39.0625 48.390625 32.421875 48.390625 
Q 24.90625 48.390625 20.390625 44.140625 
Q 15.875 39.890625 15.1875 32.171875 
z
" id="DejaVuSans-101"/>
      <path d="M 2.984375 54.6875 
L 12.5 54.6875 
L 29.59375 8.796875 
L 46.6875 54.6875 
L 56.203125 54.6875 
L 35.6875 0 
L 23.484375 0 
z
" id="DejaVuSans-118"/>
      <path d="M 34.28125 27.484375 
Q 23.390625 27.484375 19.1875 25 
Q 14.984375 22.515625 14.984375 16.5 
Q 14.984375 11.71875 18.140625 8.90625 
Q 21.296875 6.109375 26.703125 6.109375 
Q 34.1875 6.109375 38.703125 11.40625 
Q 43.21875 16.703125 43.21875 25.484375 
L 43.21875 27.484375 
z
M 52.203125 31.203125 
L 52.203125 0 
L 43.21875 0 
L 43.21875 8.296875 
Q 40.140625 3.328125 35.546875 0.953125 
Q 30.953125 -1.421875 24.3125 -1.421875 
Q 15.921875 -1.421875 10.953125 3.296875 
Q 6 8.015625 6 15.921875 
Q 6 25.140625 12.171875 29.828125 
Q 18.359375 34.515625 30.609375 34.515625 
L 43.21875 34.515625 
L 43.21875 35.40625 
Q 43.21875 41.609375 39.140625 45 
Q 35.0625 48.390625 27.6875 48.390625 
Q 23 48.390625 18.546875 47.265625 
Q 14.109375 46.140625 10.015625 43.890625 
L 10.015625 52.203125 
Q 14.9375 54.109375 19.578125 55.046875 
Q 24.21875 56 28.609375 56 
Q 40.484375 56 46.34375 49.84375 
Q 52.203125 43.703125 52.203125 31.203125 
z
" id="DejaVuSans-97"/>
      <path d="M 44.28125 53.078125 
L 44.28125 44.578125 
Q 40.484375 46.53125 36.375 47.5 
Q 32.28125 48.484375 27.875 48.484375 
Q 21.1875 48.484375 17.84375 46.4375 
Q 14.5 44.390625 14.5 40.28125 
Q 14.5 37.15625 16.890625 35.375 
Q 19.28125 33.59375 26.515625 31.984375 
L 29.59375 31.296875 
Q 39.15625 29.25 43.1875 25.515625 
Q 47.21875 21.78125 47.21875 15.09375 
Q 47.21875 7.46875 41.1875 3.015625 
Q 35.15625 -1.421875 24.609375 -1.421875 
Q 20.21875 -1.421875 15.453125 -0.5625 
Q 10.6875 0.296875 5.421875 2 
L 5.421875 11.28125 
Q 10.40625 8.6875 15.234375 7.390625 
Q 20.0625 6.109375 24.8125 6.109375 
Q 31.15625 6.109375 34.5625 8.28125 
Q 37.984375 10.453125 37.984375 14.40625 
Q 37.984375 18.0625 35.515625 20.015625 
Q 33.0625 21.96875 24.703125 23.78125 
L 21.578125 24.515625 
Q 13.234375 26.265625 9.515625 29.90625 
Q 5.8125 33.546875 5.8125 39.890625 
Q 5.8125 47.609375 11.28125 51.796875 
Q 16.75 56 26.8125 56 
Q 31.78125 56 36.171875 55.265625 
Q 40.578125 54.546875 44.28125 53.078125 
z
" id="DejaVuSans-115"/>
      <path d="M 25.390625 72.90625 
L 33.6875 72.90625 
L 8.296875 -9.28125 
L 0 -9.28125 
z
" id="DejaVuSans-47"/>
      <path d="M 45.40625 46.390625 
L 45.40625 75.984375 
L 54.390625 75.984375 
L 54.390625 0 
L 45.40625 0 
L 45.40625 8.203125 
Q 42.578125 3.328125 38.25 0.953125 
Q 33.9375 -1.421875 27.875 -1.421875 
Q 17.96875 -1.421875 11.734375 6.484375 
Q 5.515625 14.40625 5.515625 27.296875 
Q 5.515625 40.1875 11.734375 48.09375 
Q 17.96875 56 27.875 56 
Q 33.9375 56 38.25 53.625 
Q 42.578125 51.265625 45.40625 46.390625 
z
M 14.796875 27.296875 
Q 14.796875 17.390625 18.875 11.75 
Q 22.953125 6.109375 30.078125 6.109375 
Q 37.203125 6.109375 41.296875 11.75 
Q 45.40625 17.390625 45.40625 27.296875 
Q 45.40625 37.203125 41.296875 42.84375 
Q 37.203125 48.484375 30.078125 48.484375 
Q 22.953125 48.484375 18.875 42.84375 
Q 14.796875 37.203125 14.796875 27.296875 
z
" id="DejaVuSans-100"/>
      <path d="M 9.421875 54.6875 
L 18.40625 54.6875 
L 18.40625 0 
L 9.421875 0 
z
M 9.421875 75.984375 
L 18.40625 75.984375 
L 18.40625 64.59375 
L 9.421875 64.59375 
z
" id="DejaVuSans-105"/>
      <path d="M 52 44.1875 
Q 55.375 50.25 60.0625 53.125 
Q 64.75 56 71.09375 56 
Q 79.640625 56 84.28125 50.015625 
Q 88.921875 44.046875 88.921875 33.015625 
L 88.921875 0 
L 79.890625 0 
L 79.890625 32.71875 
Q 79.890625 40.578125 77.09375 44.375 
Q 74.3125 48.1875 68.609375 48.1875 
Q 61.625 48.1875 57.5625 43.546875 
Q 53.515625 38.921875 53.515625 30.90625 
L 53.515625 0 
L 44.484375 0 
L 44.484375 32.71875 
Q 44.484375 40.625 41.703125 44.40625 
Q 38.921875 48.1875 33.109375 48.1875 
Q 26.21875 48.1875 22.15625 43.53125 
Q 18.109375 38.875 18.109375 30.90625 
L 18.109375 0 
L 9.078125 0 
L 9.078125 54.6875 
L 18.109375 54.6875 
L 18.109375 46.1875 
Q 21.1875 51.21875 25.484375 53.609375 
Q 29.78125 56 35.6875 56 
Q 41.65625 56 45.828125 52.96875 
Q 50 49.953125 52 44.1875 
z
" id="DejaVuSans-109"/>
      <path d="M 54.890625 33.015625 
L 54.890625 0 
L 45.90625 0 
L 45.90625 32.71875 
Q 45.90625 40.484375 42.875 44.328125 
Q 39.84375 48.1875 33.796875 48.1875 
Q 26.515625 48.1875 22.3125 43.546875 
Q 18.109375 38.921875 18.109375 30.90625 
L 18.109375 0 
L 9.078125 0 
L 9.078125 54.6875 
L 18.109375 54.6875 
L 18.109375 46.1875 
Q 21.34375 51.125 25.703125 53.5625 
Q 30.078125 56 35.796875 56 
Q 45.21875 56 50.046875 50.171875 
Q 54.890625 44.34375 54.890625 33.015625 
z
" id="DejaVuSans-110"/>
      <path d="M 8.015625 75.875 
L 15.828125 75.875 
Q 23.140625 64.359375 26.78125 53.3125 
Q 30.421875 42.28125 30.421875 31.390625 
Q 30.421875 20.453125 26.78125 9.375 
Q 23.140625 -1.703125 15.828125 -13.1875 
L 8.015625 -13.1875 
Q 14.5 -2 17.703125 9.0625 
Q 20.90625 20.125 20.90625 31.390625 
Q 20.90625 42.671875 17.703125 53.65625 
Q 14.5 64.65625 8.015625 75.875 
z
" id="DejaVuSans-41"/>
     </defs>
     <g transform="translate(77.303219 342.217594)scale(0.17 -0.17)">
      <use xlink:href="#DejaVuSans-108"/>
      <use x="27.783203" xlink:href="#DejaVuSans-111"/>
      <use x="88.964844" xlink:href="#DejaVuSans-103"/>
      <use x="152.441406" xlink:href="#DejaVuSans-49"/>
      <use x="216.064453" xlink:href="#DejaVuSans-48"/>
      <use x="279.6875" xlink:href="#DejaVuSans-40"/>
      <use x="318.701172" xlink:href="#DejaVuSans-35"/>
      <use x="402.490234" xlink:href="#DejaVuSans-32"/>
      <use x="434.277344" xlink:href="#DejaVuSans-102"/>
      <use x="469.404297" xlink:href="#DejaVuSans-45"/>
      <use x="505.488281" xlink:href="#DejaVuSans-101"/>
      <use x="567.011719" xlink:href="#DejaVuSans-118"/>
      <use x="626.191406" xlink:href="#DejaVuSans-97"/>
      <use x="687.470703" xlink:href="#DejaVuSans-108"/>
      <use x="715.253906" xlink:href="#DejaVuSans-115"/>
      <use x="767.353516" xlink:href="#DejaVuSans-32"/>
      <use x="799.140625" xlink:href="#DejaVuSans-47"/>
      <use x="832.832031" xlink:href="#DejaVuSans-32"/>
      <use x="864.619141" xlink:href="#DejaVuSans-100"/>
      <use x="928.095703" xlink:href="#DejaVuSans-105"/>
      <use x="955.878906" xlink:href="#DejaVuSans-109"/>
      <use x="1053.291016" xlink:href="#DejaVuSans-101"/>
      <use x="1114.814453" xlink:href="#DejaVuSans-110"/>
      <use x="1178.193359" xlink:href="#DejaVuSans-115"/>
      <use x="1230.292969" xlink:href="#DejaVuSans-105"/>
      <use x="1258.076172" xlink:href="#DejaVuSans-111"/>
      <use x="1319.257812" xlink:href="#DejaVuSans-110"/>
      <use x="1382.636719" xlink:href="#DejaVuSans-41"/>
     </g>
    </g>
   </g>
   <g id="matplotlib.axis_2">
    <g id="ytick_1">
     <g id="line2d_29">
      <path clip-path="url(#p5fae0155be)" d="M 57.6 298.944 
L 338.688 298.944 
" style="fill:none;stroke:#b0b0b0;stroke-linecap:square;stroke-width:0.8;"/>
     </g>
     <g id="line2d_30">
      <defs>
       <path d="M 0 0 
L -3.5 0 
" id="maebf7a2f26" style="stroke:#000000;stroke-width:0.8;"/>
      </defs>
      <g>
       <use style="stroke:#000000;stroke-width:0.8;" x="57.6" xlink:href="#maebf7a2f26" y="298.944"/>
      </g>
     </g>
     <g id="text_6">
      <!-- 0.0 -->
      <defs>
       <path d="M 10.6875 12.40625 
L 21 12.40625 
L 21 0 
L 10.6875 0 
z
" id="DejaVuSans-46"/>
      </defs>
      <g transform="translate(25.155 305.02275)scale(0.16 -0.16)">
       <use xlink:href="#DejaVuSans-48"/>
       <use x="63.623047" xlink:href="#DejaVuSans-46"/>
       <use x="95.410156" xlink:href="#DejaVuSans-48"/>
      </g>
     </g>
    </g>
    <g id="ytick_2">
     <g id="line2d_31">
      <path clip-path="url(#p5fae0155be)" d="M 57.6 247.959446 
L 338.688 247.959446 
" style="fill:none;stroke:#b0b0b0;stroke-linecap:square;stroke-width:0.8;"/>
     </g>
     <g id="line2d_32">
      <g>
       <use style="stroke:#000000;stroke-width:0.8;" x="57.6" xlink:href="#maebf7a2f26" y="247.959446"/>
      </g>
     </g>
     <g id="text_7">
      <!-- 0.2 -->
      <g transform="translate(25.155 254.038196)scale(0.16 -0.16)">
       <use xlink:href="#DejaVuSans-48"/>
       <use x="63.623047" xlink:href="#DejaVuSans-46"/>
       <use x="95.410156" xlink:href="#DejaVuSans-50"/>
      </g>
     </g>
    </g>
    <g id="ytick_3">
     <g id="line2d_33">
      <path clip-path="url(#p5fae0155be)" d="M 57.6 196.974891 
L 338.688 196.974891 
" style="fill:none;stroke:#b0b0b0;stroke-linecap:square;stroke-width:0.8;"/>
     </g>
     <g id="line2d_34">
      <g>
       <use style="stroke:#000000;stroke-width:0.8;" x="57.6" xlink:href="#maebf7a2f26" y="196.974891"/>
      </g>
     </g>
     <g id="text_8">
      <!-- 0.4 -->
      <g transform="translate(25.155 203.053641)scale(0.16 -0.16)">
       <use xlink:href="#DejaVuSans-48"/>
       <use x="63.623047" xlink:href="#DejaVuSans-46"/>
       <use x="95.410156" xlink:href="#DejaVuSans-52"/>
      </g>
     </g>
    </g>
    <g id="ytick_4">
     <g id="line2d_35">
      <path clip-path="url(#p5fae0155be)" d="M 57.6 145.990337 
L 338.688 145.990337 
" style="fill:none;stroke:#b0b0b0;stroke-linecap:square;stroke-width:0.8;"/>
     </g>
     <g id="line2d_36">
      <g>
       <use style="stroke:#000000;stroke-width:0.8;" x="57.6" xlink:href="#maebf7a2f26" y="145.990337"/>
      </g>
     </g>
     <g id="text_9">
      <!-- 0.6 -->
      <g transform="translate(25.155 152.069087)scale(0.16 -0.16)">
       <use xlink:href="#DejaVuSans-48"/>
       <use x="63.623047" xlink:href="#DejaVuSans-46"/>
       <use x="95.410156" xlink:href="#DejaVuSans-54"/>
      </g>
     </g>
    </g>
    <g id="ytick_5">
     <g id="line2d_37">
      <path clip-path="url(#p5fae0155be)" d="M 57.6 95.005782 
L 338.688 95.005782 
" style="fill:none;stroke:#b0b0b0;stroke-linecap:square;stroke-width:0.8;"/>
     </g>
     <g id="line2d_38">
      <g>
       <use style="stroke:#000000;stroke-width:0.8;" x="57.6" xlink:href="#maebf7a2f26" y="95.005782"/>
      </g>
     </g>
     <g id="text_10">
      <!-- 0.8 -->
      <defs>
       <path d="M 31.78125 34.625 
Q 24.75 34.625 20.71875 30.859375 
Q 16.703125 27.09375 16.703125 20.515625 
Q 16.703125 13.921875 20.71875 10.15625 
Q 24.75 6.390625 31.78125 6.390625 
Q 38.8125 6.390625 42.859375 10.171875 
Q 46.921875 13.96875 46.921875 20.515625 
Q 46.921875 27.09375 42.890625 30.859375 
Q 38.875 34.625 31.78125 34.625 
z
M 21.921875 38.8125 
Q 15.578125 40.375 12.03125 44.71875 
Q 8.5 49.078125 8.5 55.328125 
Q 8.5 64.0625 14.71875 69.140625 
Q 20.953125 74.21875 31.78125 74.21875 
Q 42.671875 74.21875 48.875 69.140625 
Q 55.078125 64.0625 55.078125 55.328125 
Q 55.078125 49.078125 51.53125 44.71875 
Q 48 40.375 41.703125 38.8125 
Q 48.828125 37.15625 52.796875 32.3125 
Q 56.78125 27.484375 56.78125 20.515625 
Q 56.78125 9.90625 50.3125 4.234375 
Q 43.84375 -1.421875 31.78125 -1.421875 
Q 19.734375 -1.421875 13.25 4.234375 
Q 6.78125 9.90625 6.78125 20.515625 
Q 6.78125 27.484375 10.78125 32.3125 
Q 14.796875 37.15625 21.921875 38.8125 
z
M 18.3125 54.390625 
Q 18.3125 48.734375 21.84375 45.5625 
Q 25.390625 42.390625 31.78125 42.390625 
Q 38.140625 42.390625 41.71875 45.5625 
Q 45.3125 48.734375 45.3125 54.390625 
Q 45.3125 60.0625 41.71875 63.234375 
Q 38.140625 66.40625 31.78125 66.40625 
Q 25.390625 66.40625 21.84375 63.234375 
Q 18.3125 60.0625 18.3125 54.390625 
z
" id="DejaVuSans-56"/>
      </defs>
      <g transform="translate(25.155 101.084532)scale(0.16 -0.16)">
       <use xlink:href="#DejaVuSans-48"/>
       <use x="63.623047" xlink:href="#DejaVuSans-46"/>
       <use x="95.410156" xlink:href="#DejaVuSans-56"/>
      </g>
     </g>
    </g>
    <g id="ytick_6">
     <g id="line2d_39">
      <path clip-path="url(#p5fae0155be)" d="M 57.6 44.021228 
L 338.688 44.021228 
" style="fill:none;stroke:#b0b0b0;stroke-linecap:square;stroke-width:0.8;"/>
     </g>
     <g id="line2d_40">
      <g>
       <use style="stroke:#000000;stroke-width:0.8;" x="57.6" xlink:href="#maebf7a2f26" y="44.021228"/>
      </g>
     </g>
     <g id="text_11">
      <!-- 1.0 -->
      <g transform="translate(25.155 50.099978)scale(0.16 -0.16)">
       <use xlink:href="#DejaVuSans-49"/>
       <use x="63.623047" xlink:href="#DejaVuSans-46"/>
       <use x="95.410156" xlink:href="#DejaVuSans-48"/>
      </g>
     </g>
    </g>
    <g id="text_12">
     <!-- Fraction of function,target pairs -->
     <defs>
      <path d="M 9.8125 72.90625 
L 51.703125 72.90625 
L 51.703125 64.59375 
L 19.671875 64.59375 
L 19.671875 43.109375 
L 48.578125 43.109375 
L 48.578125 34.8125 
L 19.671875 34.8125 
L 19.671875 0 
L 9.8125 0 
z
" id="DejaVuSans-70"/>
      <path d="M 41.109375 46.296875 
Q 39.59375 47.171875 37.8125 47.578125 
Q 36.03125 48 33.890625 48 
Q 26.265625 48 22.1875 43.046875 
Q 18.109375 38.09375 18.109375 28.8125 
L 18.109375 0 
L 9.078125 0 
L 9.078125 54.6875 
L 18.109375 54.6875 
L 18.109375 46.1875 
Q 20.953125 51.171875 25.484375 53.578125 
Q 30.03125 56 36.53125 56 
Q 37.453125 56 38.578125 55.875 
Q 39.703125 55.765625 41.0625 55.515625 
z
" id="DejaVuSans-114"/>
      <path d="M 48.78125 52.59375 
L 48.78125 44.1875 
Q 44.96875 46.296875 41.140625 47.34375 
Q 37.3125 48.390625 33.40625 48.390625 
Q 24.65625 48.390625 19.8125 42.84375 
Q 14.984375 37.3125 14.984375 27.296875 
Q 14.984375 17.28125 19.8125 11.734375 
Q 24.65625 6.203125 33.40625 6.203125 
Q 37.3125 6.203125 41.140625 7.25 
Q 44.96875 8.296875 48.78125 10.40625 
L 48.78125 2.09375 
Q 45.015625 0.34375 40.984375 -0.53125 
Q 36.96875 -1.421875 32.421875 -1.421875 
Q 20.0625 -1.421875 12.78125 6.34375 
Q 5.515625 14.109375 5.515625 27.296875 
Q 5.515625 40.671875 12.859375 48.328125 
Q 20.21875 56 33.015625 56 
Q 37.15625 56 41.109375 55.140625 
Q 45.0625 54.296875 48.78125 52.59375 
z
" id="DejaVuSans-99"/>
      <path d="M 18.3125 70.21875 
L 18.3125 54.6875 
L 36.8125 54.6875 
L 36.8125 47.703125 
L 18.3125 47.703125 
L 18.3125 18.015625 
Q 18.3125 11.328125 20.140625 9.421875 
Q 21.96875 7.515625 27.59375 7.515625 
L 36.8125 7.515625 
L 36.8125 0 
L 27.59375 0 
Q 17.1875 0 13.234375 3.875 
Q 9.28125 7.765625 9.28125 18.015625 
L 9.28125 47.703125 
L 2.6875 47.703125 
L 2.6875 54.6875 
L 9.28125 54.6875 
L 9.28125 70.21875 
z
" id="DejaVuSans-116"/>
      <path d="M 8.5 21.578125 
L 8.5 54.6875 
L 17.484375 54.6875 
L 17.484375 21.921875 
Q 17.484375 14.15625 20.5 10.265625 
Q 23.53125 6.390625 29.59375 6.390625 
Q 36.859375 6.390625 41.078125 11.03125 
Q 45.3125 15.671875 45.3125 23.6875 
L 45.3125 54.6875 
L 54.296875 54.6875 
L 54.296875 0 
L 45.3125 0 
L 45.3125 8.40625 
Q 42.046875 3.421875 37.71875 1 
Q 33.40625 -1.421875 27.6875 -1.421875 
Q 18.265625 -1.421875 13.375 4.4375 
Q 8.5 10.296875 8.5 21.578125 
z
M 31.109375 56 
z
" id="DejaVuSans-117"/>
      <path d="M 11.71875 12.40625 
L 22.015625 12.40625 
L 22.015625 4 
L 14.015625 -11.625 
L 7.71875 -11.625 
L 11.71875 4 
z
" id="DejaVuSans-44"/>
      <path d="M 18.109375 8.203125 
L 18.109375 -20.796875 
L 9.078125 -20.796875 
L 9.078125 54.6875 
L 18.109375 54.6875 
L 18.109375 46.390625 
Q 20.953125 51.265625 25.265625 53.625 
Q 29.59375 56 35.59375 56 
Q 45.5625 56 51.78125 48.09375 
Q 58.015625 40.1875 58.015625 27.296875 
Q 58.015625 14.40625 51.78125 6.484375 
Q 45.5625 -1.421875 35.59375 -1.421875 
Q 29.59375 -1.421875 25.265625 0.953125 
Q 20.953125 3.328125 18.109375 8.203125 
z
M 48.6875 27.296875 
Q 48.6875 37.203125 44.609375 42.84375 
Q 40.53125 48.484375 33.40625 48.484375 
Q 26.265625 48.484375 22.1875 42.84375 
Q 18.109375 37.203125 18.109375 27.296875 
Q 18.109375 17.390625 22.1875 11.75 
Q 26.265625 6.109375 33.40625 6.109375 
Q 40.53125 6.109375 44.609375 11.75 
Q 48.6875 17.390625 48.6875 27.296875 
z
" id="DejaVuSans-112"/>
     </defs>
     <g transform="translate(17.619531 305.347375)rotate(-90)scale(0.17 -0.17)">
      <use xlink:href="#DejaVuSans-70"/>
      <use x="57.410156" xlink:href="#DejaVuSans-114"/>
      <use x="98.523438" xlink:href="#DejaVuSans-97"/>
      <use x="159.802734" xlink:href="#DejaVuSans-99"/>
      <use x="214.783203" xlink:href="#DejaVuSans-116"/>
      <use x="253.992188" xlink:href="#DejaVuSans-105"/>
      <use x="281.775391" xlink:href="#DejaVuSans-111"/>
      <use x="342.957031" xlink:href="#DejaVuSans-110"/>
      <use x="406.335938" xlink:href="#DejaVuSans-32"/>
      <use x="438.123047" xlink:href="#DejaVuSans-111"/>
      <use x="499.304688" xlink:href="#DejaVuSans-102"/>
      <use x="534.509766" xlink:href="#DejaVuSans-32"/>
      <use x="566.296875" xlink:href="#DejaVuSans-102"/>
      <use x="601.501953" xlink:href="#DejaVuSans-117"/>
      <use x="664.880859" xlink:href="#DejaVuSans-110"/>
      <use x="728.259766" xlink:href="#DejaVuSans-99"/>
      <use x="783.240234" xlink:href="#DejaVuSans-116"/>
      <use x="822.449219" xlink:href="#DejaVuSans-105"/>
      <use x="850.232422" xlink:href="#DejaVuSans-111"/>
      <use x="911.414062" xlink:href="#DejaVuSans-110"/>
      <use x="974.792969" xlink:href="#DejaVuSans-44"/>
      <use x="1006.580078" xlink:href="#DejaVuSans-116"/>
      <use x="1045.789062" xlink:href="#DejaVuSans-97"/>
      <use x="1107.068359" xlink:href="#DejaVuSans-114"/>
      <use x="1148.166016" xlink:href="#DejaVuSans-103"/>
      <use x="1211.642578" xlink:href="#DejaVuSans-101"/>
      <use x="1273.166016" xlink:href="#DejaVuSans-116"/>
      <use x="1312.375" xlink:href="#DejaVuSans-32"/>
      <use x="1344.162109" xlink:href="#DejaVuSans-112"/>
      <use x="1407.638672" xlink:href="#DejaVuSans-97"/>
      <use x="1468.917969" xlink:href="#DejaVuSans-105"/>
      <use x="1496.701172" xlink:href="#DejaVuSans-114"/>
      <use x="1537.814453" xlink:href="#DejaVuSans-115"/>
     </g>
    </g>
   </g>
   <g id="line2d_41">
    <defs>
     <path d="M 0 1.5 
C 0.397805 1.5 0.77937 1.341951 1.06066 1.06066 
C 1.341951 0.77937 1.5 0.397805 1.5 0 
C 1.5 -0.397805 1.341951 -0.77937 1.06066 -1.06066 
C 0.77937 -1.341951 0.397805 -1.5 0 -1.5 
C -0.397805 -1.5 -0.77937 -1.341951 -1.06066 -1.06066 
C -1.341951 -0.77937 -1.5 -0.397805 -1.5 0 
C -1.5 0.397805 -1.341951 0.77937 -1.06066 1.06066 
C -0.77937 1.341951 -0.397805 1.5 0 1.5 
z
" id="mb2c74e5003" style="stroke:#f5deb3;"/>
    </defs>
    <g>
     <use style="fill:#f5deb3;stroke:#f5deb3;" x="196.495213" xlink:href="#mb2c74e5003" y="44.021228"/>
     <use style="fill:#f5deb3;stroke:#f5deb3;" x="196.495213" xlink:href="#mb2c74e5003" y="44.021228"/>
    </g>
   </g>
   <g id="line2d_42">
    <defs>
     <path d="M 0 1.5 
C 0.397805 1.5 0.77937 1.341951 1.06066 1.06066 
C 1.341951 0.77937 1.5 0.397805 1.5 0 
C 1.5 -0.397805 1.341951 -0.77937 1.06066 -1.06066 
C 0.77937 -1.341951 0.397805 -1.5 0 -1.5 
C -0.397805 -1.5 -0.77937 -1.341951 -1.06066 -1.06066 
C -1.341951 -0.77937 -1.5 -0.397805 -1.5 0 
C -1.5 0.397805 -1.341951 0.77937 -1.06066 1.06066 
C -0.77937 1.341951 -0.397805 1.5 0 1.5 
z
" id="m0779729909" style="stroke:#000080;"/>
    </defs>
    <g>
     <use style="fill:#000080;stroke:#000080;" x="320.368581" xlink:href="#m0779729909" y="88.007902"/>
     <use style="fill:#000080;stroke:#000080;" x="320.368581" xlink:href="#m0779729909" y="88.007902"/>
    </g>
   </g>
   <g id="line2d_43">
    <path d="M 17.444571 298.944 
L 17.444571 297.144545 
L 57.6 297.044575 
L 57.6 296.944606 
L 60.779557 296.944606 
L 60.779557 296.644697 
L 62.175444 296.644697 
L 62.175444 296.144848 
L 64.67102 296.144848 
L 64.67102 295.944909 
L 68.79347 295.844939 
L 68.79347 295.744969 
L 71.35013 295.644999 
L 71.35013 295.44506 
L 73.579452 295.34509 
L 73.579452 295.245121 
L 76.759008 295.145151 
L 76.759008 295.045181 
L 77.330839 295.045181 
L 77.330839 294.845242 
L 78.421149 294.745272 
L 78.421149 294.545333 
L 78.941764 294.545333 
L 78.941764 294.345393 
L 79.447285 294.345393 
L 79.447285 294.145454 
L 80.416384 294.145454 
L 80.416384 293.945514 
L 82.626842 293.845545 
L 82.626842 293.545635 
L 83.438118 293.445666 
L 83.438118 293.245726 
L 84.213325 293.145757 
L 84.213325 292.845847 
L 84.955534 292.745878 
L 84.955534 292.645908 
L 86.012784 292.545938 
L 86.012784 292.445969 
L 87.009585 292.445969 
L 87.009585 292.246029 
L 88.255778 292.146059 
L 88.255778 292.04609 
L 89.418828 291.94612 
L 89.418828 291.84615 
L 89.697862 291.84615 
L 89.697862 291.646211 
L 90.242884 291.546241 
L 90.242884 291.446271 
L 91.535274 291.346302 
L 91.535274 291.046393 
L 91.782644 291.046393 
L 91.782644 290.846453 
L 92.267099 290.746483 
L 92.267099 290.446574 
L 92.504372 290.446574 
L 92.504372 290.046695 
L 93.863965 289.946726 
L 93.863965 289.846756 
L 94.080605 289.846756 
L 94.080605 289.646817 
L 94.294587 289.646817 
L 94.294587 288.747089 
L 94.505975 288.747089 
L 94.505975 285.548058 
L 94.921215 285.548058 
L 94.921215 285.348119 
L 95.125186 285.348119 
L 95.125186 284.84827 
L 95.526106 284.748301 
L 95.526106 284.648331 
L 95.723163 284.648331 
L 95.723163 284.448391 
L 96.301313 284.348422 
L 96.301313 284.048513 
L 96.676366 283.948543 
L 96.676366 283.848573 
L 96.86091 283.848573 
L 96.86091 283.648634 
L 97.403108 283.548664 
L 97.403108 281.34933 
L 98.100772 281.249361 
L 98.100772 281.049421 
L 98.935347 280.949451 
L 98.935347 280.749512 
L 99.097574 280.749512 
L 99.097574 277.95036 
L 99.258306 277.95036 
L 99.258306 277.750421 
L 99.41757 277.750421 
L 99.41757 277.550481 
L 99.575392 277.550481 
L 99.575392 275.151208 
L 99.731799 275.151208 
L 99.731799 274.55139 
L 100.040467 274.55139 
L 100.040467 271.652268 
L 100.493461 271.552298 
L 100.493461 271.452328 
L 100.934985 271.452328 
L 100.934985 271.152419 
L 101.223245 271.05245 
L 101.223245 270.75254 
L 101.365607 270.75254 
L 101.365607 268.253298 
L 101.506816 268.253298 
L 101.506816 268.053358 
L 101.646892 268.053358 
L 101.646892 264.954297 
L 101.923711 264.854327 
L 101.923711 264.754358 
L 102.196206 264.754358 
L 102.196206 261.555327 
L 102.464508 261.555327 
L 102.464508 255.957023 
L 102.728744 255.857053 
L 102.728744 252.658022 
L 103.245502 252.558052 
L 103.245502 252.458083 
L 103.372333 252.458083 
L 103.372333 252.258143 
L 103.870632 252.158174 
L 103.870632 252.058204 
L 103.993014 252.058204 
L 103.993014 251.858264 
L 104.355088 251.758295 
L 104.355088 251.658325 
L 104.474128 251.658325 
L 104.474128 248.959143 
L 104.942325 248.959143 
L 104.942325 248.259355 
L 105.057436 248.259355 
L 105.057436 247.959446 
L 105.285403 247.859476 
L 105.285403 247.659536 
L 105.842616 247.559567 
L 105.842616 247.459597 
L 106.06061 247.459597 
L 106.06061 247.159688 
L 106.382575 247.059718 
L 106.48859 244.160596 
L 107.614095 244.060627 
L 107.712901 243.860687 
L 108.198707 243.760718 
L 108.294265 243.560778 
L 108.671345 243.460808 
L 108.671345 243.360839 
L 109.040444 243.260869 
L 109.131511 242.661051 
L 109.401893 242.561081 
L 109.401893 239.36205 
L 110.016944 239.26208 
L 110.016944 239.162111 
L 110.941652 239.062141 
L 110.941652 238.962171 
L 111.104637 238.962171 
L 111.185562 236.662868 
L 111.663381 236.562898 
L 111.663381 236.362959 
L 111.974805 236.262989 
L 112.051799 236.06305 
L 112.204777 235.96308 
L 112.280765 235.463231 
L 112.950158 235.363262 
L 112.950158 235.263292 
L 113.095487 235.263292 
L 113.095487 235.063352 
L 113.594805 235.063352 
L 113.664983 234.763443 
L 113.873839 234.763443 
L 113.942906 234.363564 
L 115.077025 234.263595 
L 115.077025 234.163625 
L 115.205729 234.163625 
L 115.269727 233.863716 
L 115.523393 233.763746 
L 115.586238 233.563807 
L 115.897107 233.463837 
L 115.897107 233.363867 
L 116.797786 233.263897 
L 116.797786 233.063958 
L 117.316679 232.963988 
L 117.373392 232.764049 
L 117.654224 232.764049 
L 117.654224 232.564109 
L 118.148599 232.46414 
L 118.202674 232.2642 
L 118.838828 232.164231 
L 118.838828 231.864321 
L 119.148409 231.764352 
L 119.199476 231.464443 
L 119.702083 231.364473 
L 119.702083 231.264503 
L 119.850084 231.264503 
L 119.850084 231.064564 
L 120.045484 231.064564 
L 120.142369 230.664685 
L 120.33454 230.564715 
L 120.429836 230.264806 
L 120.852343 230.164836 
L 120.898662 229.964897 
L 120.990934 229.964897 
L 120.990934 229.764957 
L 121.623516 229.664988 
L 121.623516 229.465048 
L 121.931406 229.465048 
L 121.931406 229.265109 
L 122.362027 229.165139 
L 122.44689 228.76526 
L 122.947573 228.665291 
L 122.988655 228.465351 
L 123.273551 228.365381 
L 123.354102 227.965503 
L 123.829748 227.865533 
L 123.829748 227.765563 
L 124.062793 227.665593 
L 124.139788 227.065775 
L 124.406624 226.965805 
L 124.482119 226.765866 
L 124.743806 226.665896 
L 124.817858 226.465957 
L 125.038147 226.365987 
L 125.147256 226.066078 
L 125.219619 226.066078 
L 125.219619 225.766169 
L 125.612332 225.666199 
L 125.717918 225.166351 
L 125.752972 225.166351 
L 125.752972 224.866441 
L 125.996395 224.766472 
L 126.099688 224.366593 
L 126.270496 224.266623 
L 126.372183 223.966714 
L 126.540355 223.866744 
L 126.540355 223.766775 
L 126.806101 223.666805 
L 126.904721 223.466865 
L 127.261631 223.366896 
L 127.293718 222.967017 
L 127.54831 222.867047 
L 127.642832 222.567138 
L 127.736845 222.467168 
L 127.736845 222.367199 
L 128.015879 222.367199 
L 128.107907 222.067289 
L 128.32077 221.96732 
L 128.32077 221.86735 
L 128.560901 221.76738 
L 128.650105 221.467471 
L 128.885774 221.367501 
L 128.91501 221.067592 
L 129.204706 220.967623 
L 129.204706 220.767683 
L 129.51791 220.667713 
L 129.51791 220.367804 
L 129.658437 220.267835 
L 129.658437 220.167865 
L 129.991152 220.067895 
L 130.100661 219.767986 
L 130.317637 219.668016 
L 130.317637 219.568047 
L 130.585116 219.468077 
L 130.585116 219.368107 
L 130.848555 219.268137 
L 130.952826 218.968228 
L 131.082294 218.868259 
L 131.159516 218.668319 
L 131.338382 218.568349 
L 131.389151 217.968531 
L 131.515432 217.868561 
L 131.590764 217.668622 
L 131.740458 217.568652 
L 131.814826 217.168773 
L 131.913493 217.068804 
L 131.913493 216.968834 
L 132.350712 216.868864 
L 132.422528 216.468985 
L 132.470242 216.468985 
L 132.494049 216.169076 
L 132.753813 216.169076 
L 132.80063 215.669228 
L 132.893889 215.569258 
L 132.963507 215.169379 
L 133.284766 215.069409 
L 133.375477 214.669531 
L 133.443203 214.569561 
L 133.510666 214.269652 
L 133.57787 214.269652 
L 133.667073 213.769803 
L 133.733678 213.669833 
L 133.733678 213.569864 
L 133.888106 213.469894 
L 133.997581 213.269955 
L 134.084669 213.169985 
L 134.192921 212.870076 
L 134.321942 212.770106 
L 134.428735 212.570167 
L 134.513701 212.470197 
L 134.513701 212.270257 
L 134.703375 212.170288 
L 134.807865 211.870379 
L 134.891008 211.770409 
L 134.973757 211.4705 
L 135.014985 211.4705 
L 135.097149 211.170591 
L 135.158519 211.070621 
L 135.240011 210.770712 
L 135.381712 210.670742 
L 135.421987 210.370833 
L 135.582166 210.270863 
L 135.661706 209.970954 
L 135.819708 209.870984 
L 135.858985 209.671045 
L 136.015217 209.671045 
L 136.112156 209.171196 
L 136.170062 209.171196 
L 136.189322 208.771317 
L 136.380754 208.671348 
L 136.456742 208.471408 
L 136.645276 208.471408 
L 136.738785 207.97156 
L 136.86886 207.87159 
L 136.942755 207.271772 
L 136.997972 207.271772 
L 137.107884 206.971863 
L 137.162581 206.871893 
L 137.235245 206.472014 
L 137.451437 206.372044 
L 137.558536 205.972165 
L 137.664982 205.872196 
L 137.770782 205.472317 
L 137.805906 205.372347 
L 137.858461 205.072438 
L 137.945701 205.072438 
L 138.032507 204.572589 
L 138.067109 204.572589 
L 138.136107 204.072741 
L 138.239095 203.972771 
L 138.341479 203.572892 
L 138.426341 203.472923 
L 138.527635 203.073044 
L 138.645071 202.973074 
L 138.67848 202.773135 
L 138.943469 202.673165 
L 139.041811 202.173316 
L 139.36567 202.073347 
L 139.413734 201.673468 
L 139.493548 201.673468 
L 139.557137 201.173619 
L 139.620495 201.173619 
L 139.715103 200.573801 
L 139.933878 200.473831 
L 139.964909 199.973983 
L 140.134598 199.874013 
L 140.211187 199.474134 
L 140.272217 199.474134 
L 140.363363 198.874316 
L 140.454035 198.774346 
L 140.544239 198.574407 
L 140.708409 198.474437 
L 140.79731 197.774649 
L 140.900458 197.674679 
L 141.002999 197.2748 
L 141.017599 197.2748 
L 141.119455 196.674982 
L 141.235139 196.575012 
L 141.321401 195.575315 
L 141.521035 195.475345 
L 141.521035 195.375376 
L 141.648175 195.375376 
L 141.69035 194.975497 
L 141.788363 194.875527 
L 141.885829 194.175739 
L 141.982752 194.075769 
L 142.092866 193.77586 
L 142.215919 193.675891 
L 142.324576 193.276012 
L 142.365148 193.176042 
L 142.432559 192.776163 
L 142.499711 192.676193 
L 142.553247 191.976405 
L 142.686372 191.976405 
L 142.765762 191.676496 
L 142.857929 191.576526 
L 142.923465 191.376587 
L 143.040814 191.276617 
L 143.105668 190.976708 
L 143.183176 190.876738 
L 143.260342 190.47686 
L 143.337167 190.37689 
L 143.42637 190.17695 
L 143.60342 190.076981 
L 143.703791 189.577132 
L 143.803587 189.477162 
L 143.902815 189.177253 
L 143.927534 189.177253 
L 144.026061 188.277526 
L 144.294175 188.177556 
L 144.390658 187.677708 
L 144.426702 187.577738 
L 144.438701 187.377798 
L 144.712404 187.277829 
L 144.712404 187.177859 
L 145.016721 187.077889 
L 145.016721 186.97792 
L 145.155404 186.87795 
L 145.155404 186.77798 
L 145.76618 186.67801 
L 145.76618 186.578041 
L 146.356287 186.478071 
L 146.356287 186.378101 
L 146.728368 186.278132 
L 146.728368 186.078192 
L 146.885432 185.978222 
L 146.885432 185.878253 
L 147.113265 185.778283 
L 147.113265 185.678313 
L 147.670154 185.578344 
L 147.670154 185.478374 
L 147.986163 185.378404 
L 147.995947 185.178465 
L 148.723886 185.078495 
L 148.723886 184.978525 
L 149.095146 184.878556 
L 149.095146 184.778586 
L 149.503579 184.678616 
L 149.503579 184.578646 
L 150.137805 184.478677 
L 150.172372 184.278737 
L 150.395406 184.178768 
L 150.395406 184.078798 
L 151.219462 183.978828 
L 151.284383 183.778889 
L 151.461678 183.678919 
L 151.461678 183.578949 
L 151.850203 183.47898 
L 151.936246 183.17907 
L 152.337344 183.079101 
L 152.337344 182.979131 
L 152.594699 182.879161 
L 152.594699 182.779192 
L 153.112882 182.679222 
L 153.15659 182.279343 
L 153.616112 182.179373 
L 153.67271 181.779494 
L 153.862384 181.679525 
L 153.897283 181.479585 
L 154.187714 181.379616 
L 154.276638 181.079706 
L 154.331136 180.979737 
L 154.358321 180.579858 
L 154.453136 180.579858 
L 154.493614 180.179979 
L 154.721232 180.080009 
L 154.734529 179.68013 
L 154.85375 179.580161 
L 154.85375 179.480191 
L 155.148284 179.380221 
L 155.25182 178.880373 
L 155.488919 178.780403 
L 155.596784 178.280554 
L 155.691409 178.180585 
L 155.735392 177.680736 
L 155.885354 177.580766 
L 155.966049 177.280857 
L 156.021696 177.180888 
L 156.095618 176.681039 
L 156.212023 176.581069 
L 156.260804 176.18119 
L 156.351903 176.081221 
L 156.454576 175.681342 
L 156.49067 175.581372 
L 156.562634 175.181493 
L 156.664077 175.081524 
L 156.711612 174.281766 
L 156.812195 174.181796 
L 156.900466 173.681948 
L 156.970762 173.581978 
L 157.069866 173.182099 
L 157.104709 173.082129 
L 157.179966 172.582281 
L 157.226117 172.482311 
L 157.283635 172.082432 
L 157.352406 171.982462 
L 157.443681 170.882796 
L 157.528821 170.782826 
L 157.63607 169.983068 
L 157.658565 169.883098 
L 157.731474 169.38325 
L 157.781772 169.28328 
L 157.881934 168.883401 
L 157.898572 168.883401 
L 157.992555 168.183613 
L 158.053098 168.183613 
L 158.129851 167.583795 
L 158.173558 167.483825 
L 158.260646 166.884007 
L 158.336493 166.784037 
L 158.428151 166.284189 
L 158.471118 166.184219 
L 158.551397 165.084552 
L 158.631308 165.084552 
L 158.716146 164.484734 
L 158.76896 164.384764 
L 158.853132 163.485037 
L 158.910765 163.485037 
L 159.020266 162.18543 
L 159.087709 162.085461 
L 159.190962 161.085764 
L 159.237226 160.985794 
L 159.319173 160.286006 
L 159.3651 160.186036 
L 159.400737 159.686188 
L 159.481921 159.586218 
L 159.582872 158.386581 
L 159.653192 158.286612 
L 159.758143 157.186945 
L 159.792986 157.186945 
L 159.872369 156.587126 
L 159.931669 156.487157 
L 160.030058 155.987308 
L 160.079044 155.887338 
L 160.181471 155.48746 
L 160.191194 155.48746 
L 160.263949 154.687702 
L 160.350856 154.587732 
L 160.456491 153.488065 
L 160.48519 153.388096 
L 160.537682 153.088186 
L 160.623238 152.988217 
L 160.713095 152.288429 
L 160.741375 152.288429 
L 160.849359 151.088792 
L 160.872745 150.988822 
L 160.961329 149.989125 
L 161.007772 149.889156 
L 161.109513 148.989428 
L 161.12334 148.989428 
L 161.206078 148.589549 
L 161.26102 148.489579 
L 161.370386 147.889761 
L 161.402155 147.789791 
L 161.420284 147.389913 
L 161.564634 147.389913 
L 161.654251 146.190276 
L 161.685508 146.090306 
L 161.787817 145.190579 
L 161.827689 145.190579 
L 161.933569 144.390821 
L 162.02569 144.290851 
L 162.082474 143.890973 
L 162.147765 143.890973 
L 162.251725 142.891275 
L 162.273306 142.791306 
L 162.38081 142.391427 
L 162.41935 142.291457 
L 162.521708 141.491699 
L 162.602318 141.39173 
L 162.695193 140.791911 
L 162.749842 140.691942 
L 162.825228 140.192093 
L 162.912768 140.092123 
L 162.995734 139.492305 
L 163.0577 139.392335 
L 163.15639 138.792517 
L 163.197346 138.792517 
L 163.246367 138.492608 
L 163.477355 138.392638 
L 163.48138 138.192699 
L 163.66156 138.092729 
L 163.717238 137.592881 
L 163.788565 137.592881 
L 163.788565 137.392941 
L 164.125377 137.292971 
L 164.175729 137.093032 
L 164.398623 136.993062 
L 164.463418 136.793123 
L 165.215452 136.693153 
L 165.324425 136.393244 
L 165.657978 136.293274 
L 165.657978 136.193305 
L 166.439517 136.093335 
L 166.476842 135.893395 
L 167.410635 135.793426 
L 167.410635 135.693456 
L 167.817104 135.593486 
L 167.817104 135.493517 
L 168.32137 135.393547 
L 168.32137 135.293577 
L 168.796634 135.193607 
L 168.835167 134.993668 
L 169.560096 134.893698 
L 169.560096 134.793729 
L 179.210311 134.693759 
L 179.210311 134.593789 
L 179.554757 134.493819 
L 179.554757 134.39385 
L 179.77118 134.29388 
L 179.77118 134.19391 
L 180.549068 134.093941 
L 180.549068 133.993971 
L 180.945347 133.894001 
L 180.945347 133.794031 
L 181.419369 133.694062 
L 181.419369 133.594092 
L 182.035702 133.494122 
L 182.035702 133.394153 
L 185.569061 133.294183 
L 185.569061 133.194213 
L 191.184421 133.094243 
L 191.243501 132.894304 
L 191.585005 132.794334 
L 191.678737 132.594395 
L 192.15554 132.494425 
L 192.15554 132.394455 
L 192.522486 132.294486 
L 192.598445 131.994577 
L 192.962222 131.894607 
L 192.962222 131.794637 
L 193.513831 131.694667 
L 193.513831 131.594698 
L 193.736783 131.494728 
L 193.822487 131.294789 
L 194.3945 131.194819 
L 194.3945 131.094849 
L 194.524611 130.994879 
L 194.524611 130.89491 
L 194.659148 130.89491 
L 194.659148 130.69497 
L 195.040175 130.595001 
L 195.131523 130.395061 
L 195.279682 130.295091 
L 195.279682 130.195122 
L 195.688843 130.095152 
L 195.742089 129.895213 
L 195.985322 129.795243 
L 196.032693 129.595303 
L 196.317921 129.495334 
L 196.317921 129.395364 
L 196.618433 129.295394 
L 196.618433 128.995485 
L 201.991965 128.895515 
L 201.991965 128.795546 
L 203.374034 128.695576 
L 203.374034 128.595606 
L 204.223304 128.495637 
L 204.223304 128.395667 
L 213.427011 128.295697 
L 213.427011 128.195727 
L 213.67389 128.095758 
L 213.763295 127.895818 
L 213.873517 127.795849 
L 213.873517 127.695879 
L 214.152999 127.595909 
L 214.152999 127.495939 
L 214.951026 127.39597 
L 214.957336 127.19603 
L 215.083892 127.096061 
L 215.179871 126.896121 
L 215.492436 126.796151 
L 215.492436 126.696182 
L 215.814919 126.596212 
L 215.814919 126.496242 
L 215.994374 126.396273 
L 215.994374 126.096363 
L 216.342981 125.996394 
L 216.395731 125.696485 
L 216.762291 125.596515 
L 216.819838 125.296606 
L 216.9979 125.196636 
L 216.9979 125.096666 
L 222.536583 124.996697 
L 222.536583 124.896727 
L 222.883604 124.796757 
L 222.883604 124.696787 
L 223.153809 124.596818 
L 223.153809 124.396878 
L 223.649046 124.296909 
L 223.649557 124.096969 
L 223.916794 123.996999 
L 223.999003 123.69709 
L 224.180865 123.597121 
L 224.252218 123.197242 
L 224.396992 123.097272 
L 224.452225 122.797363 
L 224.616155 122.697393 
L 224.616155 122.397484 
L 224.762387 122.397484 
L 224.762387 122.197545 
L 224.912274 122.097575 
L 224.912274 121.997605 
L 225.171518 121.897635 
L 225.213847 121.697696 
L 225.363047 121.597726 
L 225.363047 121.497757 
L 257.151795 121.397787 
L 257.151795 121.297817 
L 263.160573 121.197847 
L 263.160573 121.097878 
L 263.59457 120.997908 
L 263.60694 120.797969 
L 264.078977 120.697999 
L 264.169013 119.998211 
L 264.304319 119.898241 
L 264.405832 119.198453 
L 264.458368 119.098483 
L 264.458368 118.998514 
L 264.76508 118.898544 
L 264.86732 118.498665 
L 264.907925 118.398695 
L 265.001188 118.098786 
L 265.133681 117.998817 
L 265.142309 117.798877 
L 265.259958 117.698907 
L 265.350544 117.398998 
L 265.396781 117.299029 
L 265.494351 117.099089 
L 265.641466 116.999119 
L 265.730738 116.399301 
L 265.787065 116.299331 
L 265.889284 115.999422 
L 266.10929 115.899453 
L 266.10929 115.799483 
L 266.451987 115.699513 
L 266.50608 115.299634 
L 267.114404 115.199665 
L 267.114404 115.099695 
L 275.495706 114.999725 
L 275.495706 114.899755 
L 275.768518 114.799786 
L 275.87577 114.599846 
L 275.900139 114.499877 
L 275.950748 114.199967 
L 276.160368 114.099998 
L 276.250545 113.700119 
L 276.395504 113.600149 
L 276.470343 113.30024 
L 276.655695 113.20027 
L 276.740146 112.700422 
L 276.817807 112.600452 
L 276.899893 111.900664 
L 276.963823 111.800694 
L 277.062587 111.100906 
L 277.109669 111.000937 
L 277.175287 110.800997 
L 277.243964 110.701027 
L 277.327279 110.301149 
L 277.552159 110.201179 
L 277.626664 109.90127 
L 277.733467 109.8013 
L 277.838436 109.601361 
L 282.767163 109.501391 
L 282.785771 109.301451 
L 283.042587 109.201482 
L 283.149163 108.801603 
L 283.169885 108.701633 
L 283.270677 108.001845 
L 283.316578 107.901875 
L 283.416661 107.501997 
L 283.509542 107.402027 
L 283.599772 106.902178 
L 283.632251 106.802209 
L 283.73402 106.30236 
L 283.812434 106.20239 
L 283.839216 106.002451 
L 283.956671 105.902481 
L 284.064818 105.302663 
L 284.126065 105.202693 
L 284.199554 104.602875 
L 284.422448 104.502905 
L 284.507175 104.302966 
L 287.617182 104.202996 
L 287.617182 104.103026 
L 288.004928 104.003056 
L 288.029443 103.803117 
L 288.127727 103.703147 
L 288.201655 103.503208 
L 288.301918 103.403238 
L 288.391394 102.90339 
L 288.510638 102.80342 
L 288.616484 102.503511 
L 288.648819 102.403541 
L 288.754285 101.903692 
L 288.832606 101.803723 
L 288.911495 101.503814 
L 289.011539 101.403844 
L 289.063191 101.103935 
L 289.400183 101.003965 
L 289.400183 100.903995 
L 291.762196 100.804026 
L 291.84527 100.604086 
L 292.068255 100.504116 
L 292.14477 100.304177 
L 292.241894 100.204207 
L 292.352315 99.704359 
L 292.435205 99.604389 
L 292.517013 99.004571 
L 292.626833 98.904601 
L 292.727826 98.404752 
L 292.767638 98.304783 
L 292.767638 98.204813 
L 295.187047 98.104843 
L 295.261978 97.804934 
L 295.394899 97.704964 
L 295.49972 97.205116 
L 295.573217 97.105146 
L 295.654066 96.605298 
L 295.717004 96.505328 
L 295.803364 96.205419 
L 295.886561 96.105449 
L 295.932056 95.90551 
L 297.531667 95.80554 
L 297.531667 95.70557 
L 297.90823 95.6056 
L 297.90823 95.505631 
L 298.190587 95.405661 
L 298.296252 95.005782 
L 298.312366 94.905812 
L 298.401096 94.605903 
L 298.469542 94.505934 
L 298.469542 94.405964 
L 299.071221 94.305994 
L 299.071221 94.206024 
L 300.22758 94.106055 
L 300.250952 93.906115 
L 300.448373 93.806146 
L 300.448373 93.706176 
L 300.632047 93.606206 
L 300.713122 93.206327 
L 301.042213 93.106358 
L 301.042213 93.006388 
L 302.475339 92.906418 
L 302.566081 92.606509 
L 302.688726 92.506539 
L 302.71499 92.20663 
L 302.847859 92.10666 
L 302.847859 92.006691 
L 303.91002 91.906721 
L 303.91002 91.806751 
L 304.421825 91.706782 
L 304.471631 91.506842 
L 305.727931 91.406872 
L 305.727931 91.306903 
L 305.915877 91.206933 
L 305.980052 90.907024 
L 306.131977 90.807054 
L 306.230283 90.507145 
L 307.186158 90.407175 
L 307.186158 90.307206 
L 307.588138 90.207236 
L 307.634865 90.007296 
L 308.859931 89.907327 
L 308.859931 89.807357 
L 309.238046 89.707387 
L 309.331654 89.507448 
L 311.004618 89.407478 
L 311.004618 89.307508 
L 311.329329 89.207539 
L 311.414242 89.007599 
L 313.681931 88.90763 
L 313.785155 88.70769 
L 315.746802 88.60772 
L 315.746802 88.507751 
L 317.96263 88.407781 
L 317.96263 88.307811 
L 319.965229 88.207842 
L 319.965229 88.107872 
L 338.688 88.007902 
L 338.688 88.007902 
" style="fill:none;stroke:#000080;stroke-linecap:square;stroke-width:1.5;"/>
   </g>
   <g id="line2d_44">
    <defs>
     <path d="M 0 6 
C 1.591219 6 3.117479 5.367802 4.242641 4.242641 
C 5.367802 3.117479 6 1.591219 6 0 
C 6 -1.591219 5.367802 -3.117479 4.242641 -4.242641 
C 3.117479 -5.367802 1.591219 -6 0 -6 
C -1.591219 -6 -3.117479 -5.367802 -4.242641 -4.242641 
C -5.367802 -3.117479 -6 -1.591219 -6 0 
C -6 1.591219 -5.367802 3.117479 -4.242641 4.242641 
C -3.117479 5.367802 -1.591219 6 0 6 
z
" id="mc8bc2dc1a1" style="stroke:#000080;stroke-width:1.5;"/>
    </defs>
    <g>
     <use style="fill-opacity:0;stroke:#000080;stroke-width:1.5;" x="68.79347" xlink:href="#mc8bc2dc1a1" y="295.844939"/>
     <use style="fill-opacity:0;stroke:#000080;stroke-width:1.5;" x="118.202674" xlink:href="#mc8bc2dc1a1" y="232.36417"/>
     <use style="fill-opacity:0;stroke:#000080;stroke-width:1.5;" x="170.09983" xlink:href="#mc8bc2dc1a1" y="134.693759"/>
     <use style="fill-opacity:0;stroke:#000080;stroke-width:1.5;" x="267.05285" xlink:href="#mc8bc2dc1a1" y="115.199665"/>
     <use style="fill-opacity:0;stroke:#000080;stroke-width:1.5;" x="320.368581" xlink:href="#mc8bc2dc1a1" y="88.007902"/>
     <use style="fill-opacity:0;stroke:#000080;stroke-width:1.5;" x="338.688" xlink:href="#mc8bc2dc1a1" y="88.007902"/>
    </g>
   </g>
   <g id="line2d_45">
    <path style="fill:none;stroke:#000080;stroke-linecap:square;stroke-width:1.5;"/>
    <g/>
   </g>
   <g id="line2d_46">
    <path clip-path="url(#p5fae0155be)" d="M 264.079908 120.598029 
" style="fill:none;stroke:#000080;stroke-linecap:square;stroke-width:1.5;"/>
    <defs>
     <path d="M -12 12 
L 12 -12 
M -12 -12 
L 12 12 
" id="m791ac00e66" style="stroke:#000080;"/>
    </defs>
    <g clip-path="url(#p5fae0155be)">
     <use style="fill:#000080;stroke:#000080;" x="264.079908" xlink:href="#m791ac00e66" y="120.598029"/>
    </g>
   </g>
   <g id="line2d_47">
    <defs>
     <path d="M 0 1.5 
C 0.397805 1.5 0.77937 1.341951 1.06066 1.06066 
C 1.341951 0.77937 1.5 0.397805 1.5 0 
C 1.5 -0.397805 1.341951 -0.77937 1.06066 -1.06066 
C 0.77937 -1.341951 0.397805 -1.5 0 -1.5 
C -0.397805 -1.5 -0.77937 -1.341951 -1.06066 -1.06066 
C -1.341951 -0.77937 -1.5 -0.397805 -1.5 0 
C -1.5 0.397805 -1.341951 0.77937 -1.06066 1.06066 
C -0.77937 1.341951 -0.397805 1.5 0 1.5 
z
" id="m69cb305edf" style="stroke:#ff00ff;"/>
    </defs>
    <g>
     <use style="fill:#ff00ff;stroke:#ff00ff;" x="333.355975" xlink:href="#m69cb305edf" y="127.995788"/>
     <use style="fill:#ff00ff;stroke:#ff00ff;" x="333.355975" xlink:href="#m69cb305edf" y="127.995788"/>
    </g>
   </g>
   <g id="line2d_48">
    <path d="M 17.444571 298.944 
L 17.444571 297.044575 
L 53.708537 296.944606 
L 53.708537 296.844636 
L 57.6 296.744666 
L 57.6 296.444757 
L 59.262141 296.444757 
L 59.262141 295.44506 
L 60.779557 295.44506 
L 60.779557 295.145151 
L 63.467834 295.145151 
L 63.467834 294.845242 
L 64.67102 294.845242 
L 64.67102 294.245423 
L 67.850577 294.145454 
L 67.850577 294.045484 
L 68.79347 294.045484 
L 68.79347 293.745575 
L 69.687988 293.745575 
L 69.687988 293.545635 
L 72.125336 293.445666 
L 72.125336 292.945817 
L 72.867545 292.945817 
L 72.867545 292.645908 
L 73.579452 292.645908 
L 73.579452 291.746181 
L 76.16779 291.646211 
L 76.16779 288.747089 
L 77.330839 288.647119 
L 77.330839 288.247241 
L 77.884514 288.247241 
L 77.884514 287.847362 
L 78.421149 287.847362 
L 78.421149 281.249361 
L 78.941764 281.249361 
L 78.941764 276.050935 
L 79.447285 276.050935 
L 79.447285 272.851904 
L 79.938565 272.851904 
L 79.938565 272.152116 
L 80.416384 272.152116 
L 80.416384 271.552298 
L 80.881459 271.552298 
L 80.881459 268.453237 
L 81.334453 268.453237 
L 81.334453 264.654388 
L 81.775977 264.654388 
L 81.775977 264.254509 
L 82.206598 264.254509 
L 82.206598 256.256932 
L 82.626842 256.256932 
L 82.626842 253.45778 
L 83.037197 253.45778 
L 83.037197 250.158779 
L 83.438118 250.158779 
L 83.438118 246.25996 
L 83.830028 246.25996 
L 83.830028 245.760112 
L 84.213325 245.760112 
L 84.213325 242.561081 
L 84.588378 242.561081 
L 84.588378 241.761323 
L 85.315119 241.661354 
L 85.315119 241.061535 
L 85.66744 241.061535 
L 85.66744 240.661656 
L 86.012784 240.661656 
L 86.012784 240.061838 
L 86.351421 240.061838 
L 86.351421 238.962171 
L 86.683608 238.962171 
L 86.683608 238.562292 
L 87.009585 238.562292 
L 87.009585 237.562595 
L 87.643811 237.462626 
L 87.643811 234.763443 
L 87.952479 234.763443 
L 87.952479 233.563807 
L 88.255778 233.563807 
L 88.255778 233.063958 
L 88.553893 233.063958 
L 88.553893 229.465048 
L 88.846997 229.465048 
L 88.846997 228.9652 
L 89.135256 228.9652 
L 89.135256 228.165442 
L 89.418828 228.165442 
L 89.418828 227.665593 
L 89.697862 227.665593 
L 89.697862 226.865836 
L 90.242884 226.765866 
L 90.242884 226.166048 
L 90.509138 226.166048 
L 90.509138 225.566229 
L 90.771388 225.566229 
L 90.771388 225.36629 
L 91.029752 225.36629 
L 91.029752 223.466865 
L 91.284345 223.466865 
L 91.284345 223.266926 
L 91.535274 223.266926 
L 91.535274 223.066987 
L 91.782644 223.066987 
L 91.782644 222.567138 
L 92.026554 222.567138 
L 92.026554 219.867956 
L 92.267099 219.867956 
L 92.267099 218.768289 
L 92.504372 218.768289 
L 92.504372 217.968531 
L 92.73846 217.968531 
L 92.73846 217.368713 
L 92.969447 217.368713 
L 92.969447 216.968834 
L 93.197415 216.968834 
L 93.197415 216.768895 
L 93.644601 216.668925 
L 93.644601 216.568955 
L 93.863965 216.568955 
L 93.863965 214.86947 
L 94.080605 214.86947 
L 94.080605 214.169682 
L 94.294587 214.169682 
L 94.294587 213.869773 
L 94.505975 213.869773 
L 94.505975 212.970045 
L 94.714831 212.970045 
L 94.714831 212.370227 
L 94.921215 212.370227 
L 94.921215 211.670439 
L 95.125186 211.670439 
L 95.125186 210.770712 
L 95.326798 210.770712 
L 95.326798 209.970954 
L 95.526106 209.970954 
L 95.526106 209.471105 
L 96.110718 209.371136 
L 96.110718 208.271469 
L 96.301313 208.271469 
L 96.301313 207.87159 
L 96.489848 207.87159 
L 96.489848 206.971863 
L 96.676366 206.971863 
L 96.676366 206.072135 
L 96.86091 206.072135 
L 96.86091 205.172408 
L 97.224242 205.072438 
L 97.224242 204.872499 
L 97.403108 204.872499 
L 97.403108 204.27268 
L 97.580158 204.27268 
L 97.580158 203.772832 
L 97.755429 203.772832 
L 97.755429 203.472923 
L 97.928955 203.472923 
L 97.928955 202.973074 
L 98.100772 202.973074 
L 98.100772 202.273286 
L 98.270913 202.273286 
L 98.270913 200.97368 
L 98.606294 200.97368 
L 98.606294 200.173922 
L 98.771596 200.173922 
L 98.771596 199.774043 
L 98.935347 199.774043 
L 98.935347 199.174225 
L 99.097574 199.174225 
L 99.097574 198.474437 
L 99.41757 198.374467 
L 99.41757 197.47474 
L 99.575392 197.47474 
L 99.575392 197.2748 
L 100.040467 197.174831 
L 100.040467 196.774952 
L 100.192776 196.774952 
L 100.192776 196.375073 
L 100.493461 196.275103 
L 100.493461 196.175133 
L 101.079711 196.175133 
L 101.079711 195.975194 
L 104.114542 195.875224 
L 104.114542 195.775255 
L 107.009204 195.675285 
L 107.009204 195.575315 
L 108.671345 195.475345 
L 108.764355 195.275406 
L 109.756002 195.175436 
L 109.843417 194.975497 
L 110.941652 194.875527 
L 111.023335 194.675588 
L 111.266113 194.575618 
L 111.266113 194.375679 
L 111.974805 194.275709 
L 112.051799 193.9758 
L 112.204777 193.9758 
L 112.204777 193.675891 
L 112.356423 193.675891 
L 112.431755 193.375981 
L 112.877038 193.375981 
L 112.950158 192.876133 
L 113.095487 192.776163 
L 113.167699 192.576224 
L 113.382559 192.476254 
L 113.453595 191.976405 
L 113.804498 191.876436 
L 113.804498 191.776466 
L 114.080224 191.676496 
L 114.080224 191.476557 
L 114.552496 191.376587 
L 114.552496 191.276617 
L 115.012316 191.176648 
L 115.012316 191.076678 
L 115.269727 190.976708 
L 115.269727 190.776769 
L 115.773423 190.676799 
L 115.773423 190.576829 
L 116.019919 190.576829 
L 116.081002 190.17695 
L 116.202531 190.17695 
L 116.262979 189.877041 
L 116.323218 189.877041 
L 116.323218 189.477162 
L 116.443076 189.477162 
L 116.443076 189.277223 
L 116.680349 189.177253 
L 116.739166 188.877344 
L 117.030313 188.777374 
L 117.030313 188.377496 
L 117.259781 188.377496 
L 117.259781 188.177556 
L 117.654224 188.077586 
L 117.709852 187.877647 
L 118.094355 187.777677 
L 118.148599 186.97792 
L 118.363901 186.87795 
L 118.470564 186.67801 
L 118.523652 186.67801 
L 118.629344 186.178162 
L 118.942633 186.178162 
L 119.045825 185.378404 
L 119.097192 185.378404 
L 119.199476 184.678616 
L 119.250393 184.678616 
L 119.351785 184.278737 
L 119.40226 184.278737 
L 119.502775 183.978828 
L 119.552816 183.978828 
L 119.65247 183.37901 
L 119.850084 183.27904 
L 119.948058 182.479282 
L 119.996839 182.479282 
L 120.093994 181.579555 
L 120.286695 181.479585 
L 120.382253 180.979737 
L 120.524615 180.879767 
L 120.524615 180.779797 
L 120.665825 180.779797 
L 120.712642 180.080009 
L 120.852343 179.98004 
L 120.898662 179.7801 
L 120.990934 179.7801 
L 121.08272 179.280252 
L 121.128432 179.280252 
L 121.219499 178.780403 
L 121.264855 178.780403 
L 121.355214 178.180585 
L 121.489881 178.080615 
L 121.53454 177.880676 
L 121.623516 177.880676 
L 121.712041 177.480797 
L 121.800118 177.380827 
L 121.887753 176.781009 
L 122.148045 176.681039 
L 122.233953 176.28116 
L 122.276749 176.28116 
L 122.276749 176.081221 
L 122.44689 176.081221 
L 122.531342 175.681342 
L 122.573415 175.681342 
L 122.615387 175.181493 
L 122.740699 175.081524 
L 122.823744 174.481705 
L 122.865118 174.481705 
L 122.906394 173.482008 
L 122.988655 173.482008 
L 123.07053 172.88219 
L 123.233135 172.78222 
L 123.313873 172.382341 
L 123.354102 172.382341 
L 123.434283 171.582584 
L 123.474235 171.582584 
L 123.553867 170.982765 
L 123.672636 170.882796 
L 123.751369 170.682856 
L 123.907776 170.682856 
L 123.907776 170.382947 
L 124.062793 170.382947 
L 124.139788 169.883098 
L 124.178158 169.883098 
L 124.216444 169.18331 
L 124.444412 169.083341 
L 124.519744 168.183613 
L 124.594752 168.183613 
L 124.669438 167.683765 
L 124.706662 167.683765 
L 124.743806 167.083946 
L 124.817858 167.083946 
L 124.92835 166.384158 
L 124.965026 166.384158 
L 125.074593 164.984582 
L 125.110962 164.984582 
L 125.183475 164.184825 
L 125.255688 164.184825 
L 125.363449 163.485037 
L 125.506102 163.485037 
L 125.541584 162.985188 
L 125.682793 162.885218 
L 125.682793 162.785249 
L 125.857712 162.685279 
L 125.961828 161.785552 
L 125.996395 161.785552 
L 126.099688 161.285703 
L 126.133984 161.285703 
L 126.236468 160.385976 
L 126.270496 160.385976 
L 126.372183 158.9864 
L 126.405947 158.9864 
L 126.439646 158.586521 
L 126.573795 158.486551 
L 126.673734 157.986702 
L 126.740043 157.886733 
L 126.806101 157.186945 
L 126.904721 157.086975 
L 127.002787 156.187248 
L 127.067859 156.087278 
L 127.165014 155.587429 
L 127.261631 155.48746 
L 127.325746 155.18755 
L 127.421479 155.087581 
L 127.48501 154.687702 
L 127.54831 154.687702 
L 127.611382 154.187853 
L 127.674226 154.187853 
L 127.76807 153.588035 
L 127.830353 153.488065 
L 127.923363 152.588338 
L 128.015879 152.488368 
L 128.107907 151.78858 
L 128.138476 151.78858 
L 128.138476 151.588641 
L 128.381113 151.488671 
L 128.471239 150.688913 
L 128.531065 150.688913 
L 128.620421 150.189065 
L 128.709321 150.089095 
L 128.797771 149.189368 
L 128.856489 149.189368 
L 128.856489 148.989428 
L 129.002426 148.989428 
L 129.002426 148.789489 
L 129.175952 148.689519 
L 129.262072 148.089701 
L 129.290685 148.089701 
L 129.347769 147.489882 
L 129.404667 147.489882 
L 129.489668 146.890064 
L 129.51791 146.890064 
L 129.602362 146.590155 
L 129.686407 146.490185 
L 129.742212 146.190276 
L 129.853291 146.190276 
L 129.936138 145.890367 
L 130.155159 145.790397 
L 130.263646 145.190579 
L 130.398313 145.190579 
L 130.505303 144.7907 
L 130.717333 144.69073 
L 130.822389 144.390821 
L 130.978796 144.290851 
L 130.978796 143.990942 
L 131.26195 143.890973 
L 131.312942 143.691033 
L 131.439773 143.591063 
L 131.540579 143.291154 
L 131.615802 143.191185 
L 131.615802 143.091215 
L 131.814826 142.991245 
L 131.913493 142.791306 
L 131.987128 142.691336 
L 132.036046 142.391427 
L 132.181982 142.291457 
L 132.254495 141.891578 
L 132.517825 141.791609 
L 132.612604 141.39173 
L 132.777237 141.29176 
L 132.847322 141.091821 
L 132.986651 140.991851 
L 133.0559 140.791911 
L 133.307488 140.691942 
L 133.398082 140.292063 
L 133.57787 140.192093 
L 133.644815 139.792214 
L 133.910056 139.692245 
L 134.019394 139.492305 
L 134.062938 139.392335 
L 134.106373 139.192396 
L 134.279041 139.092426 
L 134.321942 138.692547 
L 134.745246 138.592578 
L 134.745246 138.492608 
L 135.117629 138.492608 
L 135.178927 138.092729 
L 135.300881 138.092729 
L 135.300881 137.89279 
L 135.937276 137.79282 
L 135.956794 137.592881 
L 136.997972 137.492911 
L 136.997972 137.392941 
L 137.629572 137.292971 
L 137.629572 137.193002 
L 140.514223 137.093032 
L 140.514223 136.993062 
L 156.095618 136.893093 
L 156.095618 136.793123 
L 156.418408 136.693153 
L 156.418408 136.593183 
L 156.818094 136.493214 
L 156.818094 136.393244 
L 157.84305 136.293274 
L 157.84861 135.993365 
L 158.293192 135.893395 
L 158.293192 135.793426 
L 158.858379 135.693456 
L 158.858379 135.593486 
L 159.385473 135.493517 
L 159.385473 135.393547 
L 160.263949 135.293577 
L 160.263949 135.193607 
L 161.551152 135.093638 
L 161.551152 134.993668 
L 163.465273 134.893698 
L 163.465273 134.793729 
L 171.793735 134.693759 
L 171.793735 134.593789 
L 173.072554 134.493819 
L 173.072554 134.39385 
L 174.003955 134.29388 
L 174.100548 134.093941 
L 174.13554 133.993971 
L 174.216192 133.694062 
L 174.909037 133.594092 
L 174.909037 133.494122 
L 176.907265 133.394153 
L 176.907265 133.294183 
L 183.01467 133.194213 
L 183.01467 133.094243 
L 184.897325 132.994274 
L 184.897325 132.894304 
L 188.166041 132.794334 
L 188.221656 132.594395 
L 190.544014 132.494425 
L 190.544014 132.394455 
L 194.188848 132.294486 
L 194.238592 132.094546 
L 196.905568 131.994577 
L 196.917996 131.794637 
L 199.20893 131.694667 
L 199.20893 131.594698 
L 206.455459 131.494728 
L 206.455459 131.394758 
L 207.492334 131.294789 
L 207.492334 131.194819 
L 208.98793 131.094849 
L 208.98793 130.994879 
L 217.18379 130.89491 
L 217.18379 130.79494 
L 228.768839 130.69497 
L 228.768839 130.595001 
L 244.007794 130.495031 
L 244.007794 130.395061 
L 255.711905 130.295091 
L 255.711905 130.195122 
L 260.747821 130.095152 
L 260.747821 129.995182 
L 285.311438 129.895213 
L 285.311438 129.795243 
L 291.950265 129.695273 
L 291.950265 129.595303 
L 299.463731 129.495334 
L 299.463731 129.395364 
L 300.94258 129.295394 
L 300.979237 129.095455 
L 304.041516 128.995485 
L 304.041516 128.895515 
L 307.23989 128.795546 
L 307.23989 128.695576 
L 308.367337 128.595606 
L 308.367337 128.495637 
L 320.76545 128.395667 
L 320.76545 128.295697 
L 330.298768 128.195727 
L 330.298768 128.095758 
L 338.688 127.995788 
L 338.688 127.995788 
" style="fill:none;stroke:#ff00ff;stroke-linecap:square;stroke-width:1.5;"/>
   </g>
   <g id="line2d_49">
    <defs>
     <path d="M -0 8.485281 
L 5.091169 0 
L 0 -8.485281 
L -5.091169 -0 
z
" id="m05323b8a2f" style="stroke:#ff00ff;stroke-linejoin:miter;stroke-width:1.5;"/>
    </defs>
    <g>
     <use style="fill-opacity:0;stroke:#ff00ff;stroke-linejoin:miter;stroke-width:1.5;" x="108.948899" xlink:href="#m05323b8a2f" y="195.275406"/>
     <use style="fill-opacity:0;stroke:#ff00ff;stroke-linejoin:miter;stroke-width:1.5;" x="159.842643" xlink:href="#m05323b8a2f" y="135.293577"/>
     <use style="fill-opacity:0;stroke:#ff00ff;stroke-linejoin:miter;stroke-width:1.5;" x="244.007794" xlink:href="#m05323b8a2f" y="130.495031"/>
     <use style="fill-opacity:0;stroke:#ff00ff;stroke-linejoin:miter;stroke-width:1.5;" x="333.355975" xlink:href="#m05323b8a2f" y="127.995788"/>
     <use style="fill-opacity:0;stroke:#ff00ff;stroke-linejoin:miter;stroke-width:1.5;" x="338.688" xlink:href="#m05323b8a2f" y="127.995788"/>
    </g>
   </g>
   <g id="line2d_50">
    <path style="fill:none;stroke:#ff00ff;stroke-linecap:square;stroke-width:1.5;"/>
    <g/>
   </g>
   <g id="line2d_51">
    <path clip-path="url(#p5fae0155be)" d="M 262.00706 129.895213 
" style="fill:none;stroke:#ff00ff;stroke-linecap:square;stroke-width:1.5;"/>
    <defs>
     <path d="M -12 12 
L 12 -12 
M -12 -12 
L 12 12 
" id="mc682742636" style="stroke:#ff00ff;"/>
    </defs>
    <g clip-path="url(#p5fae0155be)">
     <use style="fill:#ff00ff;stroke:#ff00ff;" x="262.00706" xlink:href="#mc682742636" y="129.895213"/>
    </g>
   </g>
   <g id="line2d_52">
    <path d="M 338.688 127.995788 
L 369.60768 293.845545 
" style="fill:none;stroke:#ff00ff;stroke-linecap:square;stroke-width:1.5;"/>
    <g>
     <use style="fill-opacity:0;stroke:#ff00ff;stroke-linejoin:miter;stroke-width:1.5;" x="338.688" xlink:href="#m05323b8a2f" y="127.995788"/>
     <use style="fill-opacity:0;stroke:#ff00ff;stroke-linejoin:miter;stroke-width:1.5;" x="369.60768" xlink:href="#m05323b8a2f" y="293.845545"/>
    </g>
   </g>
   <g id="line2d_53">
    <path d="M 338.688 88.007902 
L 369.60768 171.482614 
" style="fill:none;stroke:#000080;stroke-linecap:square;stroke-width:1.5;"/>
    <g>
     <use style="fill-opacity:0;stroke:#000080;stroke-width:1.5;" x="338.688" xlink:href="#mc8bc2dc1a1" y="88.007902"/>
     <use style="fill-opacity:0;stroke:#000080;stroke-width:1.5;" x="369.60768" xlink:href="#mc8bc2dc1a1" y="171.482614"/>
    </g>
   </g>
   <g id="line2d_54">
    <path d="M 338.688 298.944 
L 338.688 44.021228 
" style="fill:none;stroke:#000000;stroke-linecap:square;stroke-width:1.5;"/>
   </g>
   <g id="patch_3">
    <path d="M 57.6 298.944 
L 57.6 41.472 
" style="fill:none;stroke:#000000;stroke-linecap:square;stroke-linejoin:miter;stroke-width:0.8;"/>
   </g>
   <g id="patch_4">
    <path d="M 338.688 298.944 
L 338.688 41.472 
" style="fill:none;stroke:#000000;stroke-linecap:square;stroke-linejoin:miter;stroke-width:0.8;"/>
   </g>
   <g id="patch_5">
    <path d="M 57.6 298.944 
L 338.688 298.944 
" style="fill:none;stroke:#000000;stroke-linecap:square;stroke-linejoin:miter;stroke-width:0.8;"/>
   </g>
   <g id="patch_6">
    <path d="M 57.6 41.472 
L 338.688 41.472 
" style="fill:none;stroke:#000000;stroke-linecap:square;stroke-linejoin:miter;stroke-width:0.8;"/>
   </g>
   <g id="text_13">
    <!-- lq-CMA-ES -->
    <defs>
     <path d="M 14.796875 27.296875 
Q 14.796875 17.390625 18.875 11.75 
Q 22.953125 6.109375 30.078125 6.109375 
Q 37.203125 6.109375 41.296875 11.75 
Q 45.40625 17.390625 45.40625 27.296875 
Q 45.40625 37.203125 41.296875 42.84375 
Q 37.203125 48.484375 30.078125 48.484375 
Q 22.953125 48.484375 18.875 42.84375 
Q 14.796875 37.203125 14.796875 27.296875 
z
M 45.40625 8.203125 
Q 42.578125 3.328125 38.25 0.953125 
Q 33.9375 -1.421875 27.875 -1.421875 
Q 17.96875 -1.421875 11.734375 6.484375 
Q 5.515625 14.40625 5.515625 27.296875 
Q 5.515625 40.1875 11.734375 48.09375 
Q 17.96875 56 27.875 56 
Q 33.9375 56 38.25 53.625 
Q 42.578125 51.265625 45.40625 46.390625 
L 45.40625 54.6875 
L 54.390625 54.6875 
L 54.390625 -20.796875 
L 45.40625 -20.796875 
z
" id="DejaVuSans-113"/>
     <path d="M 64.40625 67.28125 
L 64.40625 56.890625 
Q 59.421875 61.53125 53.78125 63.8125 
Q 48.140625 66.109375 41.796875 66.109375 
Q 29.296875 66.109375 22.65625 58.46875 
Q 16.015625 50.828125 16.015625 36.375 
Q 16.015625 21.96875 22.65625 14.328125 
Q 29.296875 6.6875 41.796875 6.6875 
Q 48.140625 6.6875 53.78125 8.984375 
Q 59.421875 11.28125 64.40625 15.921875 
L 64.40625 5.609375 
Q 59.234375 2.09375 53.4375 0.328125 
Q 47.65625 -1.421875 41.21875 -1.421875 
Q 24.65625 -1.421875 15.125 8.703125 
Q 5.609375 18.84375 5.609375 36.375 
Q 5.609375 53.953125 15.125 64.078125 
Q 24.65625 74.21875 41.21875 74.21875 
Q 47.75 74.21875 53.53125 72.484375 
Q 59.328125 70.75 64.40625 67.28125 
z
" id="DejaVuSans-67"/>
     <path d="M 9.8125 72.90625 
L 24.515625 72.90625 
L 43.109375 23.296875 
L 61.8125 72.90625 
L 76.515625 72.90625 
L 76.515625 0 
L 66.890625 0 
L 66.890625 64.015625 
L 48.09375 14.015625 
L 38.1875 14.015625 
L 19.390625 64.015625 
L 19.390625 0 
L 9.8125 0 
z
" id="DejaVuSans-77"/>
     <path d="M 34.1875 63.1875 
L 20.796875 26.90625 
L 47.609375 26.90625 
z
M 28.609375 72.90625 
L 39.796875 72.90625 
L 67.578125 0 
L 57.328125 0 
L 50.6875 18.703125 
L 17.828125 18.703125 
L 11.1875 0 
L 0.78125 0 
z
" id="DejaVuSans-65"/>
     <path d="M 9.8125 72.90625 
L 55.90625 72.90625 
L 55.90625 64.59375 
L 19.671875 64.59375 
L 19.671875 43.015625 
L 54.390625 43.015625 
L 54.390625 34.71875 
L 19.671875 34.71875 
L 19.671875 8.296875 
L 56.78125 8.296875 
L 56.78125 0 
L 9.8125 0 
z
" id="DejaVuSans-69"/>
     <path d="M 53.515625 70.515625 
L 53.515625 60.890625 
Q 47.90625 63.578125 42.921875 64.890625 
Q 37.9375 66.21875 33.296875 66.21875 
Q 25.25 66.21875 20.875 63.09375 
Q 16.5 59.96875 16.5 54.203125 
Q 16.5 49.359375 19.40625 46.890625 
Q 22.3125 44.4375 30.421875 42.921875 
L 36.375 41.703125 
Q 47.40625 39.59375 52.65625 34.296875 
Q 57.90625 29 57.90625 20.125 
Q 57.90625 9.515625 50.796875 4.046875 
Q 43.703125 -1.421875 29.984375 -1.421875 
Q 24.8125 -1.421875 18.96875 -0.25 
Q 13.140625 0.921875 6.890625 3.21875 
L 6.890625 13.375 
Q 12.890625 10.015625 18.65625 8.296875 
Q 24.421875 6.59375 29.984375 6.59375 
Q 38.421875 6.59375 43.015625 9.90625 
Q 47.609375 13.234375 47.609375 19.390625 
Q 47.609375 24.75 44.3125 27.78125 
Q 41.015625 30.8125 33.5 32.328125 
L 27.484375 33.5 
Q 16.453125 35.6875 11.515625 40.375 
Q 6.59375 45.0625 6.59375 53.421875 
Q 6.59375 63.09375 13.40625 68.65625 
Q 20.21875 74.21875 32.171875 74.21875 
Q 37.3125 74.21875 42.625 73.28125 
Q 47.953125 72.359375 53.515625 70.515625 
z
" id="DejaVuSans-83"/>
    </defs>
    <g transform="translate(375.22944 298.536482)scale(0.17 -0.17)">
     <use xlink:href="#DejaVuSans-108"/>
     <use x="27.783203" xlink:href="#DejaVuSans-113"/>
     <use x="91.259766" xlink:href="#DejaVuSans-45"/>
     <use x="127.34375" xlink:href="#DejaVuSans-67"/>
     <use x="197.167969" xlink:href="#DejaVuSans-77"/>
     <use x="283.447266" xlink:href="#DejaVuSans-65"/>
     <use x="351.824219" xlink:href="#DejaVuSans-45"/>
     <use x="387.908203" xlink:href="#DejaVuSans-69"/>
     <use x="451.091797" xlink:href="#DejaVuSans-83"/>
    </g>
   </g>
   <g id="text_14">
    <!-- CMA-ES  2 -->
    <g transform="translate(375.22944 176.173551)scale(0.17 -0.17)">
     <use xlink:href="#DejaVuSans-67"/>
     <use x="69.824219" xlink:href="#DejaVuSans-77"/>
     <use x="156.103516" xlink:href="#DejaVuSans-65"/>
     <use x="224.480469" xlink:href="#DejaVuSans-45"/>
     <use x="260.564453" xlink:href="#DejaVuSans-69"/>
     <use x="323.748047" xlink:href="#DejaVuSans-83"/>
     <use x="387.224609" xlink:href="#DejaVuSans-32"/>
     <use x="419.011719" xlink:href="#DejaVuSans-32"/>
     <use x="450.798828" xlink:href="#DejaVuSans-50"/>
    </g>
   </g>
   <g id="text_15">
    <!-- best 2009 -->
    <defs>
     <path d="M 48.6875 27.296875 
Q 48.6875 37.203125 44.609375 42.84375 
Q 40.53125 48.484375 33.40625 48.484375 
Q 26.265625 48.484375 22.1875 42.84375 
Q 18.109375 37.203125 18.109375 27.296875 
Q 18.109375 17.390625 22.1875 11.75 
Q 26.265625 6.109375 33.40625 6.109375 
Q 40.53125 6.109375 44.609375 11.75 
Q 48.6875 17.390625 48.6875 27.296875 
z
M 18.109375 46.390625 
Q 20.953125 51.265625 25.265625 53.625 
Q 29.59375 56 35.59375 56 
Q 45.5625 56 51.78125 48.09375 
Q 58.015625 40.1875 58.015625 27.296875 
Q 58.015625 14.40625 51.78125 6.484375 
Q 45.5625 -1.421875 35.59375 -1.421875 
Q 29.59375 -1.421875 25.265625 0.953125 
Q 20.953125 3.328125 18.109375 8.203125 
L 18.109375 0 
L 9.078125 0 
L 9.078125 75.984375 
L 18.109375 75.984375 
z
" id="DejaVuSans-98"/>
     <path d="M 10.984375 1.515625 
L 10.984375 10.5 
Q 14.703125 8.734375 18.5 7.8125 
Q 22.3125 6.890625 25.984375 6.890625 
Q 35.75 6.890625 40.890625 13.453125 
Q 46.046875 20.015625 46.78125 33.40625 
Q 43.953125 29.203125 39.59375 26.953125 
Q 35.25 24.703125 29.984375 24.703125 
Q 19.046875 24.703125 12.671875 31.3125 
Q 6.296875 37.9375 6.296875 49.421875 
Q 6.296875 60.640625 12.9375 67.421875 
Q 19.578125 74.21875 30.609375 74.21875 
Q 43.265625 74.21875 49.921875 64.515625 
Q 56.59375 54.828125 56.59375 36.375 
Q 56.59375 19.140625 48.40625 8.859375 
Q 40.234375 -1.421875 26.421875 -1.421875 
Q 22.703125 -1.421875 18.890625 -0.6875 
Q 15.09375 0.046875 10.984375 1.515625 
z
M 30.609375 32.421875 
Q 37.25 32.421875 41.125 36.953125 
Q 45.015625 41.5 45.015625 49.421875 
Q 45.015625 57.28125 41.125 61.84375 
Q 37.25 66.40625 30.609375 66.40625 
Q 23.96875 66.40625 20.09375 61.84375 
Q 16.21875 57.28125 16.21875 49.421875 
Q 16.21875 41.5 20.09375 36.953125 
Q 23.96875 32.421875 30.609375 32.421875 
z
" id="DejaVuSans-57"/>
    </defs>
    <g transform="translate(375.22944 53.810621)scale(0.17 -0.17)">
     <use xlink:href="#DejaVuSans-98"/>
     <use x="63.476562" xlink:href="#DejaVuSans-101"/>
     <use x="125" xlink:href="#DejaVuSans-115"/>
     <use x="177.099609" xlink:href="#DejaVuSans-116"/>
     <use x="216.308594" xlink:href="#DejaVuSans-32"/>
     <use x="248.095703" xlink:href="#DejaVuSans-50"/>
     <use x="311.71875" xlink:href="#DejaVuSans-48"/>
     <use x="375.341797" xlink:href="#DejaVuSans-48"/>
     <use x="438.964844" xlink:href="#DejaVuSans-57"/>
    </g>
   </g>
   <g id="text_16">
    <!-- bbob f1-f5, 10-D -->
    <defs>
     <path d="M 10.796875 72.90625 
L 49.515625 72.90625 
L 49.515625 64.59375 
L 19.828125 64.59375 
L 19.828125 46.734375 
Q 21.96875 47.46875 24.109375 47.828125 
Q 26.265625 48.1875 28.421875 48.1875 
Q 40.625 48.1875 47.75 41.5 
Q 54.890625 34.8125 54.890625 23.390625 
Q 54.890625 11.625 47.5625 5.09375 
Q 40.234375 -1.421875 26.90625 -1.421875 
Q 22.3125 -1.421875 17.546875 -0.640625 
Q 12.796875 0.140625 7.71875 1.703125 
L 7.71875 11.625 
Q 12.109375 9.234375 16.796875 8.0625 
Q 21.484375 6.890625 26.703125 6.890625 
Q 35.15625 6.890625 40.078125 11.328125 
Q 45.015625 15.765625 45.015625 23.390625 
Q 45.015625 31 40.078125 35.4375 
Q 35.15625 39.890625 26.703125 39.890625 
Q 22.75 39.890625 18.8125 39.015625 
Q 14.890625 38.140625 10.796875 36.28125 
z
" id="DejaVuSans-53"/>
     <path d="M 19.671875 64.796875 
L 19.671875 8.109375 
L 31.59375 8.109375 
Q 46.6875 8.109375 53.6875 14.9375 
Q 60.6875 21.78125 60.6875 36.53125 
Q 60.6875 51.171875 53.6875 57.984375 
Q 46.6875 64.796875 31.59375 64.796875 
z
M 9.8125 72.90625 
L 30.078125 72.90625 
Q 51.265625 72.90625 61.171875 64.09375 
Q 71.09375 55.28125 71.09375 36.53125 
Q 71.09375 17.671875 61.125 8.828125 
Q 51.171875 0 30.078125 0 
L 9.8125 0 
z
" id="DejaVuSans-68"/>
    </defs>
    <g transform="translate(60.41088 51.797126)scale(0.102 -0.102)">
     <use xlink:href="#DejaVuSans-98"/>
     <use x="63.476562" xlink:href="#DejaVuSans-98"/>
     <use x="126.953125" xlink:href="#DejaVuSans-111"/>
     <use x="188.134766" xlink:href="#DejaVuSans-98"/>
     <use x="251.611328" xlink:href="#DejaVuSans-32"/>
     <use x="283.398438" xlink:href="#DejaVuSans-102"/>
     <use x="318.603516" xlink:href="#DejaVuSans-49"/>
     <use x="382.226562" xlink:href="#DejaVuSans-45"/>
     <use x="418.310547" xlink:href="#DejaVuSans-102"/>
     <use x="453.515625" xlink:href="#DejaVuSans-53"/>
     <use x="517.138672" xlink:href="#DejaVuSans-44"/>
     <use x="548.925781" xlink:href="#DejaVuSans-32"/>
     <use x="580.712891" xlink:href="#DejaVuSans-49"/>
     <use x="644.335938" xlink:href="#DejaVuSans-48"/>
     <use x="707.958984" xlink:href="#DejaVuSans-45"/>
     <use x="744.042969" xlink:href="#DejaVuSans-68"/>
    </g>
    <!-- 51 targets: 100..1e-08 -->
    <defs>
     <path d="M 11.71875 12.40625 
L 22.015625 12.40625 
L 22.015625 0 
L 11.71875 0 
z
M 11.71875 51.703125 
L 22.015625 51.703125 
L 22.015625 39.3125 
L 11.71875 39.3125 
z
" id="DejaVuSans-58"/>
    </defs>
    <g transform="translate(60.41088 63.218895)scale(0.102 -0.102)">
     <use xlink:href="#DejaVuSans-53"/>
     <use x="63.623047" xlink:href="#DejaVuSans-49"/>
     <use x="127.246094" xlink:href="#DejaVuSans-32"/>
     <use x="159.033203" xlink:href="#DejaVuSans-116"/>
     <use x="198.242188" xlink:href="#DejaVuSans-97"/>
     <use x="259.521484" xlink:href="#DejaVuSans-114"/>
     <use x="300.619141" xlink:href="#DejaVuSans-103"/>
     <use x="364.095703" xlink:href="#DejaVuSans-101"/>
     <use x="425.619141" xlink:href="#DejaVuSans-116"/>
     <use x="464.828125" xlink:href="#DejaVuSans-115"/>
     <use x="516.927734" xlink:href="#DejaVuSans-58"/>
     <use x="550.619141" xlink:href="#DejaVuSans-32"/>
     <use x="582.40625" xlink:href="#DejaVuSans-49"/>
     <use x="646.029297" xlink:href="#DejaVuSans-48"/>
     <use x="709.652344" xlink:href="#DejaVuSans-48"/>
     <use x="773.275391" xlink:href="#DejaVuSans-46"/>
     <use x="805.0625" xlink:href="#DejaVuSans-46"/>
     <use x="836.849609" xlink:href="#DejaVuSans-49"/>
     <use x="900.472656" xlink:href="#DejaVuSans-101"/>
     <use x="961.996094" xlink:href="#DejaVuSans-45"/>
     <use x="998.080078" xlink:href="#DejaVuSans-48"/>
     <use x="1061.703125" xlink:href="#DejaVuSans-56"/>
    </g>
    <!-- 15 instances -->
    <g transform="translate(60.41088 74.640664)scale(0.102 -0.102)">
     <use xlink:href="#DejaVuSans-49"/>
     <use x="63.623047" xlink:href="#DejaVuSans-53"/>
     <use x="127.246094" xlink:href="#DejaVuSans-32"/>
     <use x="159.033203" xlink:href="#DejaVuSans-105"/>
     <use x="186.816406" xlink:href="#DejaVuSans-110"/>
     <use x="250.195312" xlink:href="#DejaVuSans-115"/>
     <use x="302.294922" xlink:href="#DejaVuSans-116"/>
     <use x="341.503906" xlink:href="#DejaVuSans-97"/>
     <use x="402.783203" xlink:href="#DejaVuSans-110"/>
     <use x="466.162109" xlink:href="#DejaVuSans-99"/>
     <use x="521.142578" xlink:href="#DejaVuSans-101"/>
     <use x="582.666016" xlink:href="#DejaVuSans-115"/>
    </g>
   </g>
   <g id="text_17">
    <!-- v2.3.1.30 -->
    <defs>
     <path d="M 40.578125 39.3125 
Q 47.65625 37.796875 51.625 33 
Q 55.609375 28.21875 55.609375 21.1875 
Q 55.609375 10.40625 48.1875 4.484375 
Q 40.765625 -1.421875 27.09375 -1.421875 
Q 22.515625 -1.421875 17.65625 -0.515625 
Q 12.796875 0.390625 7.625 2.203125 
L 7.625 11.71875 
Q 11.71875 9.328125 16.59375 8.109375 
Q 21.484375 6.890625 26.8125 6.890625 
Q 36.078125 6.890625 40.9375 10.546875 
Q 45.796875 14.203125 45.796875 21.1875 
Q 45.796875 27.640625 41.28125 31.265625 
Q 36.765625 34.90625 28.71875 34.90625 
L 20.21875 34.90625 
L 20.21875 43.015625 
L 29.109375 43.015625 
Q 36.375 43.015625 40.234375 45.921875 
Q 44.09375 48.828125 44.09375 54.296875 
Q 44.09375 59.90625 40.109375 62.90625 
Q 36.140625 65.921875 28.71875 65.921875 
Q 24.65625 65.921875 20.015625 65.03125 
Q 15.375 64.15625 9.8125 62.3125 
L 9.8125 71.09375 
Q 15.4375 72.65625 20.34375 73.4375 
Q 25.25 74.21875 29.59375 74.21875 
Q 40.828125 74.21875 47.359375 69.109375 
Q 53.90625 64.015625 53.90625 55.328125 
Q 53.90625 49.265625 50.4375 45.09375 
Q 46.96875 40.921875 40.578125 39.3125 
z
" id="DejaVuSans-51"/>
    </defs>
    <g style="fill:#808080;" transform="translate(174.511187 294.289592)scale(0.1 -0.1)">
     <use xlink:href="#DejaVuSans-118"/>
     <use x="59.179688" xlink:href="#DejaVuSans-50"/>
     <use x="122.802734" xlink:href="#DejaVuSans-46"/>
     <use x="154.589844" xlink:href="#DejaVuSans-51"/>
     <use x="218.212891" xlink:href="#DejaVuSans-46"/>
     <use x="250" xlink:href="#DejaVuSans-49"/>
     <use x="313.623047" xlink:href="#DejaVuSans-46"/>
     <use x="345.410156" xlink:href="#DejaVuSans-51"/>
     <use x="409.033203" xlink:href="#DejaVuSans-48"/>
    </g>
   </g>
  </g>
 </g>
 <defs>
  <clipPath id="p5fae0155be">
   <rect height="257.472" width="281.088" x="57.6" y="41.472"/>
  </clipPath>
 </defs>
</svg>
