<?xml version="1.0" encoding="utf-8" standalone="no"?>
<!DOCTYPE svg PUBLIC "-//W3C//DTD SVG 1.1//EN"
  "http://www.w3.org/Graphics/SVG/1.1/DTD/svg11.dtd">
<!-- Created with matplotlib (https://matplotlib.org/) -->
<svg height="345.6pt" version="1.1" viewBox="0 0 460.8 345.6" width="460.8pt" xmlns="http://www.w3.org/2000/svg" xmlns:xlink="http://www.w3.org/1999/xlink">
 <defs>
  <style type="text/css">
*{stroke-linecap:butt;stroke-linejoin:round;}
  </style>
 </defs>
 <g id="figure_1">
  <g id="patch_1">
   <path d="M 0 345.6 
L 460.8 345.6 
L 460.8 0 
L 0 0 
z
" style="fill:#ffffff;"/>
  </g>
  <g id="axes_1">
   <g id="patch_2">
    <path d="M 57.6 298.944 
L 338.688 298.944 
L 338.688 41.472 
L 57.6 41.472 
z
" style="fill:#ffffff;"/>
   </g>
   <g id="line2d_1">
    <path d="M 45.512012 298.944 
L 45.512012 292.945817 
L 57.6 292.945817 
L 57.6 290.946423 
L 69.687988 290.946423 
L 69.687988 288.947029 
L 73.579452 288.947029 
L 73.579452 287.947331 
L 79.447285 287.947331 
L 79.447285 286.947634 
L 83.830028 286.947634 
L 83.830028 285.947937 
L 87.329581 285.947937 
L 87.329581 282.948846 
L 88.846997 282.948846 
L 88.846997 281.949149 
L 91.535274 281.949149 
L 91.535274 278.950057 
L 92.73846 278.950057 
L 92.73846 274.951268 
L 93.863965 274.951268 
L 93.863965 273.951571 
L 95.918017 273.951571 
L 95.918017 270.95248 
L 96.86091 270.95248 
L 96.86091 268.953086 
L 97.755429 268.953086 
L 97.755429 266.953691 
L 98.606294 266.953691 
L 98.606294 264.954297 
L 99.41757 264.954297 
L 99.41757 263.9546 
L 100.192776 263.9546 
L 100.192776 261.955206 
L 100.934985 261.955206 
L 100.934985 258.956114 
L 102.330873 258.956114 
L 102.330873 257.956417 
L 102.989037 257.956417 
L 102.989037 256.95672 
L 103.623262 256.95672 
L 103.623262 255.957023 
L 104.826449 255.957023 
L 104.826449 254.957326 
L 105.398279 254.957326 
L 105.398279 251.958234 
L 105.951954 251.958234 
L 105.951954 250.958537 
L 106.48859 250.958537 
L 106.48859 248.959143 
L 107.514726 248.959143 
L 107.514726 244.960354 
L 108.483824 244.960354 
L 108.483824 243.960657 
L 108.948899 243.960657 
L 108.948899 239.961868 
L 109.401893 239.961868 
L 109.401893 238.962171 
L 109.843417 238.962171 
L 109.843417 234.963383 
L 110.694282 234.963383 
L 110.694282 229.964897 
L 111.104637 229.964897 
L 111.104637 228.9652 
L 111.505558 228.9652 
L 111.505558 227.965503 
L 111.897469 227.965503 
L 111.897469 225.966108 
L 112.280765 225.966108 
L 112.280765 219.967925 
L 113.022974 219.967925 
L 113.022974 217.968531 
L 113.382559 217.968531 
L 113.382559 215.969137 
L 113.73488 215.969137 
L 113.73488 212.970045 
L 114.080224 212.970045 
L 114.080224 208.971257 
L 114.751048 208.971257 
L 114.751048 206.971863 
L 115.077025 206.971863 
L 115.077025 204.972468 
L 115.397021 204.972468 
L 115.397021 202.973074 
L 115.711251 202.973074 
L 115.711251 198.974285 
L 116.019919 198.974285 
L 116.019919 197.974588 
L 116.323218 197.974588 
L 116.323218 195.975194 
L 116.621333 195.975194 
L 116.621333 193.9758 
L 116.914437 193.9758 
L 116.914437 191.976405 
L 117.202696 191.976405 
L 117.202696 190.976708 
L 117.486268 190.976708 
L 117.486268 185.978222 
L 117.765302 185.978222 
L 117.765302 184.978525 
L 118.039942 184.978525 
L 118.039942 181.979434 
L 118.310324 181.979434 
L 118.310324 178.980342 
L 118.576578 178.980342 
L 118.576578 177.980645 
L 118.838828 177.980645 
L 118.838828 172.98216 
L 119.097192 172.98216 
L 119.097192 169.983068 
L 119.351785 169.983068 
L 119.351785 168.983371 
L 119.602714 168.983371 
L 119.602714 165.98428 
L 119.850084 165.98428 
L 119.850084 164.984582 
L 120.093994 164.984582 
L 120.093994 163.984885 
L 120.33454 163.984885 
L 120.33454 161.985491 
L 120.571812 161.985491 
L 120.571812 158.9864 
L 120.8059 158.9864 
L 120.8059 155.987308 
L 121.036887 155.987308 
L 121.036887 152.988217 
L 121.264855 152.988217 
L 121.264855 151.98852 
L 121.489881 151.98852 
L 121.489881 149.989125 
L 121.712041 149.989125 
L 121.712041 146.990034 
L 121.931406 146.990034 
L 121.931406 144.990639 
L 122.148045 144.990639 
L 122.148045 138.992457 
L 122.362027 138.992457 
L 122.362027 137.992759 
L 122.573415 137.992759 
L 122.573415 135.993365 
L 122.782271 135.993365 
L 122.782271 132.994274 
L 122.988655 132.994274 
L 122.988655 131.994577 
L 123.192626 131.994577 
L 123.192626 129.995182 
L 123.394238 129.995182 
L 123.394238 126.996091 
L 123.593547 126.996091 
L 123.593547 123.996999 
L 123.790603 123.996999 
L 123.790603 121.997605 
L 123.985457 121.997605 
L 123.985457 118.998514 
L 124.178158 118.998514 
L 124.178158 114.999725 
L 124.368753 114.999725 
L 124.368753 114.000028 
L 124.557288 114.000028 
L 124.557288 111.000937 
L 124.743806 111.000937 
L 124.743806 109.001542 
L 124.92835 109.001542 
L 124.92835 107.002148 
L 125.110962 107.002148 
L 125.110962 103.003359 
L 125.291682 103.003359 
L 125.291682 101.003965 
L 125.470548 101.003965 
L 125.470548 98.004874 
L 125.647598 98.004874 
L 125.647598 94.006085 
L 125.822869 94.006085 
L 125.822869 91.006994 
L 125.996395 91.006994 
L 125.996395 87.008205 
L 126.168212 87.008205 
L 126.168212 84.009114 
L 126.50685 84.009114 
L 126.50685 82.009719 
L 126.673734 82.009719 
L 126.673734 80.010325 
L 127.165014 80.010325 
L 127.165014 78.010931 
L 127.799239 78.010931 
L 127.799239 76.011536 
L 128.107907 76.011536 
L 128.107907 75.011839 
L 128.411207 75.011839 
L 128.411207 73.012445 
L 128.709321 73.012445 
L 128.709321 72.012748 
L 129.002426 72.012748 
L 129.002426 71.013051 
L 129.290685 71.013051 
L 129.290685 70.013354 
L 129.574256 70.013354 
L 129.574256 69.013656 
L 129.714332 69.013656 
L 129.714332 68.013959 
L 129.991152 68.013959 
L 129.991152 67.014262 
L 130.127931 67.014262 
L 130.127931 66.014565 
L 130.398313 66.014565 
L 130.398313 65.014868 
L 130.664567 65.014868 
L 130.664567 64.015171 
L 130.796184 64.015171 
L 130.796184 63.015474 
L 131.056477 63.015474 
L 131.056477 62.015776 
L 131.938072 62.015776 
L 131.938072 61.016079 
L 132.659801 61.016079 
L 132.659801 60.016382 
L 133.239232 60.016382 
L 133.239232 59.016685 
L 133.57787 59.016685 
L 133.57787 58.016988 
L 134.019394 58.016988 
L 134.019394 57.017291 
L 134.55603 57.017291 
L 134.55603 56.017593 
L 135.076644 56.017593 
L 135.076644 55.017896 
L 135.582166 55.017896 
L 135.582166 54.018199 
L 136.073445 54.018199 
L 136.073445 53.018502 
L 136.456742 53.018502 
L 136.456742 52.018805 
L 136.738785 52.018805 
L 136.738785 51.019108 
L 137.107884 51.019108 
L 137.107884 50.019411 
L 137.469333 50.019411 
L 137.469333 49.019713 
L 137.910857 49.019713 
L 137.910857 48.020016 
L 138.084384 48.020016 
L 138.084384 47.020319 
L 138.256201 47.020319 
L 138.256201 46.020622 
L 138.594838 46.020622 
L 138.594838 45.020925 
L 138.84457 45.020925 
L 138.84457 44.021228 
L 338.688 44.021228 
L 338.688 44.021228 
" style="fill:none;stroke:#f5deb3;stroke-linecap:square;stroke-width:4;"/>
   </g>
   <g id="line2d_2">
    <defs>
     <path d="M -0 7.778175 
L 7.778175 0 
L 0 -7.778175 
L -7.778175 -0 
z
" id="m2b90397822" style="stroke:#f5deb3;stroke-linejoin:miter;stroke-width:1.5;"/>
    </defs>
    <g>
     <use style="fill:#f5deb3;stroke:#f5deb3;stroke-linejoin:miter;stroke-width:1.5;" x="98.606294" xlink:href="#m2b90397822" y="266.953691"/>
     <use style="fill:#f5deb3;stroke:#f5deb3;stroke-linejoin:miter;stroke-width:1.5;" x="118.576578" xlink:href="#m2b90397822" y="177.980645"/>
     <use style="fill:#f5deb3;stroke:#f5deb3;stroke-linejoin:miter;stroke-width:1.5;" x="127.165014" xlink:href="#m2b90397822" y="78.010931"/>
     <use style="fill:#f5deb3;stroke:#f5deb3;stroke-linejoin:miter;stroke-width:1.5;" x="138.84457" xlink:href="#m2b90397822" y="45.020925"/>
     <use style="fill:#f5deb3;stroke:#f5deb3;stroke-linejoin:miter;stroke-width:1.5;" x="138.84457" xlink:href="#m2b90397822" y="44.021228"/>
     <use style="fill:#f5deb3;stroke:#f5deb3;stroke-linejoin:miter;stroke-width:1.5;" x="338.688" xlink:href="#m2b90397822" y="44.021228"/>
    </g>
   </g>
   <g id="line2d_3">
    <path style="fill:none;stroke:#f5deb3;stroke-linecap:square;stroke-width:4;"/>
    <g/>
   </g>
   <g id="line2d_4">
    <path d="M 338.688 44.021228 
L 369.60768 49.119683 
" style="fill:none;stroke:#f5deb3;stroke-linecap:square;stroke-width:4;"/>
    <g>
     <use style="fill:#f5deb3;stroke:#f5deb3;stroke-linejoin:miter;stroke-width:1.5;" x="338.688" xlink:href="#m2b90397822" y="44.021228"/>
     <use style="fill:#f5deb3;stroke:#f5deb3;stroke-linejoin:miter;stroke-width:1.5;" x="369.60768" xlink:href="#m2b90397822" y="49.119683"/>
    </g>
   </g>
   <g id="matplotlib.axis_1">
    <g id="xtick_1">
     <g id="line2d_5">
      <path clip-path="url(#p93942daf6a)" d="M 57.6 298.944 
L 57.6 41.472 
" style="fill:none;stroke:#b0b0b0;stroke-linecap:square;stroke-width:0.8;"/>
     </g>
     <g id="line2d_6">
      <defs>
       <path d="M 0 0 
L 0 3.5 
" id="md5bc035e37" style="stroke:#000000;stroke-width:0.8;"/>
      </defs>
      <g>
       <use style="stroke:#000000;stroke-width:0.8;" x="57.6" xlink:href="#md5bc035e37" y="298.944"/>
      </g>
     </g>
     <g id="text_1">
      <!-- 0 -->
      <defs>
       <path d="M 31.78125 66.40625 
Q 24.171875 66.40625 20.328125 58.90625 
Q 16.5 51.421875 16.5 36.375 
Q 16.5 21.390625 20.328125 13.890625 
Q 24.171875 6.390625 31.78125 6.390625 
Q 39.453125 6.390625 43.28125 13.890625 
Q 47.125 21.390625 47.125 36.375 
Q 47.125 51.421875 43.28125 58.90625 
Q 39.453125 66.40625 31.78125 66.40625 
z
M 31.78125 74.21875 
Q 44.046875 74.21875 50.515625 64.515625 
Q 56.984375 54.828125 56.984375 36.375 
Q 56.984375 17.96875 50.515625 8.265625 
Q 44.046875 -1.421875 31.78125 -1.421875 
Q 19.53125 -1.421875 13.0625 8.265625 
Q 6.59375 17.96875 6.59375 36.375 
Q 6.59375 54.828125 13.0625 64.515625 
Q 19.53125 74.21875 31.78125 74.21875 
z
" id="DejaVuSans-48"/>
      </defs>
      <g transform="translate(51.2375 321.140875)scale(0.2 -0.2)">
       <use xlink:href="#DejaVuSans-48"/>
      </g>
     </g>
    </g>
    <g id="xtick_2">
     <g id="line2d_7">
      <path clip-path="url(#p93942daf6a)" d="M 137.910857 298.944 
L 137.910857 41.472 
" style="fill:none;stroke:#b0b0b0;stroke-linecap:square;stroke-width:0.8;"/>
     </g>
     <g id="line2d_8">
      <g>
       <use style="stroke:#000000;stroke-width:0.8;" x="137.910857" xlink:href="#md5bc035e37" y="298.944"/>
      </g>
     </g>
     <g id="text_2">
      <!-- 2 -->
      <defs>
       <path d="M 19.1875 8.296875 
L 53.609375 8.296875 
L 53.609375 0 
L 7.328125 0 
L 7.328125 8.296875 
Q 12.9375 14.109375 22.625 23.890625 
Q 32.328125 33.6875 34.8125 36.53125 
Q 39.546875 41.84375 41.421875 45.53125 
Q 43.3125 49.21875 43.3125 52.78125 
Q 43.3125 58.59375 39.234375 62.25 
Q 35.15625 65.921875 28.609375 65.921875 
Q 23.96875 65.921875 18.8125 64.3125 
Q 13.671875 62.703125 7.8125 59.421875 
L 7.8125 69.390625 
Q 13.765625 71.78125 18.9375 73 
Q 24.125 74.21875 28.421875 74.21875 
Q 39.75 74.21875 46.484375 68.546875 
Q 53.21875 62.890625 53.21875 53.421875 
Q 53.21875 48.921875 51.53125 44.890625 
Q 49.859375 40.875 45.40625 35.40625 
Q 44.1875 33.984375 37.640625 27.21875 
Q 31.109375 20.453125 19.1875 8.296875 
z
" id="DejaVuSans-50"/>
      </defs>
      <g transform="translate(131.548357 321.140875)scale(0.2 -0.2)">
       <use xlink:href="#DejaVuSans-50"/>
      </g>
     </g>
    </g>
    <g id="xtick_3">
     <g id="line2d_9">
      <path clip-path="url(#p93942daf6a)" d="M 218.221714 298.944 
L 218.221714 41.472 
" style="fill:none;stroke:#b0b0b0;stroke-linecap:square;stroke-width:0.8;"/>
     </g>
     <g id="line2d_10">
      <g>
       <use style="stroke:#000000;stroke-width:0.8;" x="218.221714" xlink:href="#md5bc035e37" y="298.944"/>
      </g>
     </g>
     <g id="text_3">
      <!-- 4 -->
      <defs>
       <path d="M 37.796875 64.3125 
L 12.890625 25.390625 
L 37.796875 25.390625 
z
M 35.203125 72.90625 
L 47.609375 72.90625 
L 47.609375 25.390625 
L 58.015625 25.390625 
L 58.015625 17.1875 
L 47.609375 17.1875 
L 47.609375 0 
L 37.796875 0 
L 37.796875 17.1875 
L 4.890625 17.1875 
L 4.890625 26.703125 
z
" id="DejaVuSans-52"/>
      </defs>
      <g transform="translate(211.859214 321.140875)scale(0.2 -0.2)">
       <use xlink:href="#DejaVuSans-52"/>
      </g>
     </g>
    </g>
    <g id="xtick_4">
     <g id="line2d_11">
      <path clip-path="url(#p93942daf6a)" d="M 298.532571 298.944 
L 298.532571 41.472 
" style="fill:none;stroke:#b0b0b0;stroke-linecap:square;stroke-width:0.8;"/>
     </g>
     <g id="line2d_12">
      <g>
       <use style="stroke:#000000;stroke-width:0.8;" x="298.532571" xlink:href="#md5bc035e37" y="298.944"/>
      </g>
     </g>
     <g id="text_4">
      <!-- 6 -->
      <defs>
       <path d="M 33.015625 40.375 
Q 26.375 40.375 22.484375 35.828125 
Q 18.609375 31.296875 18.609375 23.390625 
Q 18.609375 15.53125 22.484375 10.953125 
Q 26.375 6.390625 33.015625 6.390625 
Q 39.65625 6.390625 43.53125 10.953125 
Q 47.40625 15.53125 47.40625 23.390625 
Q 47.40625 31.296875 43.53125 35.828125 
Q 39.65625 40.375 33.015625 40.375 
z
M 52.59375 71.296875 
L 52.59375 62.3125 
Q 48.875 64.0625 45.09375 64.984375 
Q 41.3125 65.921875 37.59375 65.921875 
Q 27.828125 65.921875 22.671875 59.328125 
Q 17.53125 52.734375 16.796875 39.40625 
Q 19.671875 43.65625 24.015625 45.921875 
Q 28.375 48.1875 33.59375 48.1875 
Q 44.578125 48.1875 50.953125 41.515625 
Q 57.328125 34.859375 57.328125 23.390625 
Q 57.328125 12.15625 50.6875 5.359375 
Q 44.046875 -1.421875 33.015625 -1.421875 
Q 20.359375 -1.421875 13.671875 8.265625 
Q 6.984375 17.96875 6.984375 36.375 
Q 6.984375 53.65625 15.1875 63.9375 
Q 23.390625 74.21875 37.203125 74.21875 
Q 40.921875 74.21875 44.703125 73.484375 
Q 48.484375 72.75 52.59375 71.296875 
z
" id="DejaVuSans-54"/>
      </defs>
      <g transform="translate(292.170071 321.140875)scale(0.2 -0.2)">
       <use xlink:href="#DejaVuSans-54"/>
      </g>
     </g>
    </g>
    <g id="xtick_5">
     <g id="line2d_13">
      <path clip-path="url(#p93942daf6a)" d="M 57.6 298.944 
L 57.6 41.472 
" style="fill:none;stroke:#b0b0b0;stroke-linecap:square;stroke-width:0.8;"/>
     </g>
     <g id="line2d_14">
      <defs>
       <path d="M 0 0 
L 0 2 
" id="m708d3cfd26" style="stroke:#000000;stroke-width:0.6;"/>
      </defs>
      <g>
       <use style="stroke:#000000;stroke-width:0.6;" x="57.6" xlink:href="#m708d3cfd26" y="298.944"/>
      </g>
     </g>
    </g>
    <g id="xtick_6">
     <g id="line2d_15">
      <path clip-path="url(#p93942daf6a)" d="M 97.755429 298.944 
L 97.755429 41.472 
" style="fill:none;stroke:#b0b0b0;stroke-linecap:square;stroke-width:0.8;"/>
     </g>
     <g id="line2d_16">
      <g>
       <use style="stroke:#000000;stroke-width:0.6;" x="97.755429" xlink:href="#m708d3cfd26" y="298.944"/>
      </g>
     </g>
    </g>
    <g id="xtick_7">
     <g id="line2d_17">
      <path clip-path="url(#p93942daf6a)" d="M 137.910857 298.944 
L 137.910857 41.472 
" style="fill:none;stroke:#b0b0b0;stroke-linecap:square;stroke-width:0.8;"/>
     </g>
     <g id="line2d_18">
      <g>
       <use style="stroke:#000000;stroke-width:0.6;" x="137.910857" xlink:href="#m708d3cfd26" y="298.944"/>
      </g>
     </g>
    </g>
    <g id="xtick_8">
     <g id="line2d_19">
      <path clip-path="url(#p93942daf6a)" d="M 178.066286 298.944 
L 178.066286 41.472 
" style="fill:none;stroke:#b0b0b0;stroke-linecap:square;stroke-width:0.8;"/>
     </g>
     <g id="line2d_20">
      <g>
       <use style="stroke:#000000;stroke-width:0.6;" x="178.066286" xlink:href="#m708d3cfd26" y="298.944"/>
      </g>
     </g>
    </g>
    <g id="xtick_9">
     <g id="line2d_21">
      <path clip-path="url(#p93942daf6a)" d="M 218.221714 298.944 
L 218.221714 41.472 
" style="fill:none;stroke:#b0b0b0;stroke-linecap:square;stroke-width:0.8;"/>
     </g>
     <g id="line2d_22">
      <g>
       <use style="stroke:#000000;stroke-width:0.6;" x="218.221714" xlink:href="#m708d3cfd26" y="298.944"/>
      </g>
     </g>
    </g>
    <g id="xtick_10">
     <g id="line2d_23">
      <path clip-path="url(#p93942daf6a)" d="M 258.377143 298.944 
L 258.377143 41.472 
" style="fill:none;stroke:#b0b0b0;stroke-linecap:square;stroke-width:0.8;"/>
     </g>
     <g id="line2d_24">
      <g>
       <use style="stroke:#000000;stroke-width:0.6;" x="258.377143" xlink:href="#m708d3cfd26" y="298.944"/>
      </g>
     </g>
    </g>
    <g id="xtick_11">
     <g id="line2d_25">
      <path clip-path="url(#p93942daf6a)" d="M 298.532571 298.944 
L 298.532571 41.472 
" style="fill:none;stroke:#b0b0b0;stroke-linecap:square;stroke-width:0.8;"/>
     </g>
     <g id="line2d_26">
      <g>
       <use style="stroke:#000000;stroke-width:0.6;" x="298.532571" xlink:href="#m708d3cfd26" y="298.944"/>
      </g>
     </g>
    </g>
    <g id="xtick_12">
     <g id="line2d_27">
      <path clip-path="url(#p93942daf6a)" d="M 338.688 298.944 
L 338.688 41.472 
" style="fill:none;stroke:#b0b0b0;stroke-linecap:square;stroke-width:0.8;"/>
     </g>
     <g id="line2d_28">
      <g>
       <use style="stroke:#000000;stroke-width:0.6;" x="338.688" xlink:href="#m708d3cfd26" y="298.944"/>
      </g>
     </g>
    </g>
    <g id="text_5">
     <!-- log10(# f-evals / dimension) -->
     <defs>
      <path d="M 9.421875 75.984375 
L 18.40625 75.984375 
L 18.40625 0 
L 9.421875 0 
z
" id="DejaVuSans-108"/>
      <path d="M 30.609375 48.390625 
Q 23.390625 48.390625 19.1875 42.75 
Q 14.984375 37.109375 14.984375 27.296875 
Q 14.984375 17.484375 19.15625 11.84375 
Q 23.34375 6.203125 30.609375 6.203125 
Q 37.796875 6.203125 41.984375 11.859375 
Q 46.1875 17.53125 46.1875 27.296875 
Q 46.1875 37.015625 41.984375 42.703125 
Q 37.796875 48.390625 30.609375 48.390625 
z
M 30.609375 56 
Q 42.328125 56 49.015625 48.375 
Q 55.71875 40.765625 55.71875 27.296875 
Q 55.71875 13.875 49.015625 6.21875 
Q 42.328125 -1.421875 30.609375 -1.421875 
Q 18.84375 -1.421875 12.171875 6.21875 
Q 5.515625 13.875 5.515625 27.296875 
Q 5.515625 40.765625 12.171875 48.375 
Q 18.84375 56 30.609375 56 
z
" id="DejaVuSans-111"/>
      <path d="M 45.40625 27.984375 
Q 45.40625 37.75 41.375 43.109375 
Q 37.359375 48.484375 30.078125 48.484375 
Q 22.859375 48.484375 18.828125 43.109375 
Q 14.796875 37.75 14.796875 27.984375 
Q 14.796875 18.265625 18.828125 12.890625 
Q 22.859375 7.515625 30.078125 7.515625 
Q 37.359375 7.515625 41.375 12.890625 
Q 45.40625 18.265625 45.40625 27.984375 
z
M 54.390625 6.78125 
Q 54.390625 -7.171875 48.1875 -13.984375 
Q 42 -20.796875 29.203125 -20.796875 
Q 24.46875 -20.796875 20.265625 -20.09375 
Q 16.0625 -19.390625 12.109375 -17.921875 
L 12.109375 -9.1875 
Q 16.0625 -11.328125 19.921875 -12.34375 
Q 23.78125 -13.375 27.78125 -13.375 
Q 36.625 -13.375 41.015625 -8.765625 
Q 45.40625 -4.15625 45.40625 5.171875 
L 45.40625 9.625 
Q 42.625 4.78125 38.28125 2.390625 
Q 33.9375 0 27.875 0 
Q 17.828125 0 11.671875 7.65625 
Q 5.515625 15.328125 5.515625 27.984375 
Q 5.515625 40.671875 11.671875 48.328125 
Q 17.828125 56 27.875 56 
Q 33.9375 56 38.28125 53.609375 
Q 42.625 51.21875 45.40625 46.390625 
L 45.40625 54.6875 
L 54.390625 54.6875 
z
" id="DejaVuSans-103"/>
      <path d="M 12.40625 8.296875 
L 28.515625 8.296875 
L 28.515625 63.921875 
L 10.984375 60.40625 
L 10.984375 69.390625 
L 28.421875 72.90625 
L 38.28125 72.90625 
L 38.28125 8.296875 
L 54.390625 8.296875 
L 54.390625 0 
L 12.40625 0 
z
" id="DejaVuSans-49"/>
      <path d="M 31 75.875 
Q 24.46875 64.65625 21.28125 53.65625 
Q 18.109375 42.671875 18.109375 31.390625 
Q 18.109375 20.125 21.3125 9.0625 
Q 24.515625 -2 31 -13.1875 
L 23.1875 -13.1875 
Q 15.875 -1.703125 12.234375 9.375 
Q 8.59375 20.453125 8.59375 31.390625 
Q 8.59375 42.28125 12.203125 53.3125 
Q 15.828125 64.359375 23.1875 75.875 
z
" id="DejaVuSans-40"/>
      <path d="M 51.125 44 
L 36.921875 44 
L 32.8125 27.6875 
L 47.125 27.6875 
z
M 43.796875 71.78125 
L 38.71875 51.515625 
L 52.984375 51.515625 
L 58.109375 71.78125 
L 65.921875 71.78125 
L 60.890625 51.515625 
L 76.125 51.515625 
L 76.125 44 
L 58.984375 44 
L 54.984375 27.6875 
L 70.515625 27.6875 
L 70.515625 20.21875 
L 53.078125 20.21875 
L 48 0 
L 40.1875 0 
L 45.21875 20.21875 
L 30.90625 20.21875 
L 25.875 0 
L 18.015625 0 
L 23.09375 20.21875 
L 7.71875 20.21875 
L 7.71875 27.6875 
L 24.90625 27.6875 
L 29 44 
L 13.28125 44 
L 13.28125 51.515625 
L 30.90625 51.515625 
L 35.890625 71.78125 
z
" id="DejaVuSans-35"/>
      <path id="DejaVuSans-32"/>
      <path d="M 37.109375 75.984375 
L 37.109375 68.5 
L 28.515625 68.5 
Q 23.6875 68.5 21.796875 66.546875 
Q 19.921875 64.59375 19.921875 59.515625 
L 19.921875 54.6875 
L 34.71875 54.6875 
L 34.71875 47.703125 
L 19.921875 47.703125 
L 19.921875 0 
L 10.890625 0 
L 10.890625 47.703125 
L 2.296875 47.703125 
L 2.296875 54.6875 
L 10.890625 54.6875 
L 10.890625 58.5 
Q 10.890625 67.625 15.140625 71.796875 
Q 19.390625 75.984375 28.609375 75.984375 
z
" id="DejaVuSans-102"/>
      <path d="M 4.890625 31.390625 
L 31.203125 31.390625 
L 31.203125 23.390625 
L 4.890625 23.390625 
z
" id="DejaVuSans-45"/>
      <path d="M 56.203125 29.59375 
L 56.203125 25.203125 
L 14.890625 25.203125 
Q 15.484375 15.921875 20.484375 11.0625 
Q 25.484375 6.203125 34.421875 6.203125 
Q 39.59375 6.203125 44.453125 7.46875 
Q 49.3125 8.734375 54.109375 11.28125 
L 54.109375 2.78125 
Q 49.265625 0.734375 44.1875 -0.34375 
Q 39.109375 -1.421875 33.890625 -1.421875 
Q 20.796875 -1.421875 13.15625 6.1875 
Q 5.515625 13.8125 5.515625 26.8125 
Q 5.515625 40.234375 12.765625 48.109375 
Q 20.015625 56 32.328125 56 
Q 43.359375 56 49.78125 48.890625 
Q 56.203125 41.796875 56.203125 29.59375 
z
M 47.21875 32.234375 
Q 47.125 39.59375 43.09375 43.984375 
Q 39.0625 48.390625 32.421875 48.390625 
Q 24.90625 48.390625 20.390625 44.140625 
Q 15.875 39.890625 15.1875 32.171875 
z
" id="DejaVuSans-101"/>
      <path d="M 2.984375 54.6875 
L 12.5 54.6875 
L 29.59375 8.796875 
L 46.6875 54.6875 
L 56.203125 54.6875 
L 35.6875 0 
L 23.484375 0 
z
" id="DejaVuSans-118"/>
      <path d="M 34.28125 27.484375 
Q 23.390625 27.484375 19.1875 25 
Q 14.984375 22.515625 14.984375 16.5 
Q 14.984375 11.71875 18.140625 8.90625 
Q 21.296875 6.109375 26.703125 6.109375 
Q 34.1875 6.109375 38.703125 11.40625 
Q 43.21875 16.703125 43.21875 25.484375 
L 43.21875 27.484375 
z
M 52.203125 31.203125 
L 52.203125 0 
L 43.21875 0 
L 43.21875 8.296875 
Q 40.140625 3.328125 35.546875 0.953125 
Q 30.953125 -1.421875 24.3125 -1.421875 
Q 15.921875 -1.421875 10.953125 3.296875 
Q 6 8.015625 6 15.921875 
Q 6 25.140625 12.171875 29.828125 
Q 18.359375 34.515625 30.609375 34.515625 
L 43.21875 34.515625 
L 43.21875 35.40625 
Q 43.21875 41.609375 39.140625 45 
Q 35.0625 48.390625 27.6875 48.390625 
Q 23 48.390625 18.546875 47.265625 
Q 14.109375 46.140625 10.015625 43.890625 
L 10.015625 52.203125 
Q 14.9375 54.109375 19.578125 55.046875 
Q 24.21875 56 28.609375 56 
Q 40.484375 56 46.34375 49.84375 
Q 52.203125 43.703125 52.203125 31.203125 
z
" id="DejaVuSans-97"/>
      <path d="M 44.28125 53.078125 
L 44.28125 44.578125 
Q 40.484375 46.53125 36.375 47.5 
Q 32.28125 48.484375 27.875 48.484375 
Q 21.1875 48.484375 17.84375 46.4375 
Q 14.5 44.390625 14.5 40.28125 
Q 14.5 37.15625 16.890625 35.375 
Q 19.28125 33.59375 26.515625 31.984375 
L 29.59375 31.296875 
Q 39.15625 29.25 43.1875 25.515625 
Q 47.21875 21.78125 47.21875 15.09375 
Q 47.21875 7.46875 41.1875 3.015625 
Q 35.15625 -1.421875 24.609375 -1.421875 
Q 20.21875 -1.421875 15.453125 -0.5625 
Q 10.6875 0.296875 5.421875 2 
L 5.421875 11.28125 
Q 10.40625 8.6875 15.234375 7.390625 
Q 20.0625 6.109375 24.8125 6.109375 
Q 31.15625 6.109375 34.5625 8.28125 
Q 37.984375 10.453125 37.984375 14.40625 
Q 37.984375 18.0625 35.515625 20.015625 
Q 33.0625 21.96875 24.703125 23.78125 
L 21.578125 24.515625 
Q 13.234375 26.265625 9.515625 29.90625 
Q 5.8125 33.546875 5.8125 39.890625 
Q 5.8125 47.609375 11.28125 51.796875 
Q 16.75 56 26.8125 56 
Q 31.78125 56 36.171875 55.265625 
Q 40.578125 54.546875 44.28125 53.078125 
z
" id="DejaVuSans-115"/>
      <path d="M 25.390625 72.90625 
L 33.6875 72.90625 
L 8.296875 -9.28125 
L 0 -9.28125 
z
" id="DejaVuSans-47"/>
      <path d="M 45.40625 46.390625 
L 45.40625 75.984375 
L 54.390625 75.984375 
L 54.390625 0 
L 45.40625 0 
L 45.40625 8.203125 
Q 42.578125 3.328125 38.25 0.953125 
Q 33.9375 -1.421875 27.875 -1.421875 
Q 17.96875 -1.421875 11.734375 6.484375 
Q 5.515625 14.40625 5.515625 27.296875 
Q 5.515625 40.1875 11.734375 48.09375 
Q 17.96875 56 27.875 56 
Q 33.9375 56 38.25 53.625 
Q 42.578125 51.265625 45.40625 46.390625 
z
M 14.796875 27.296875 
Q 14.796875 17.390625 18.875 11.75 
Q 22.953125 6.109375 30.078125 6.109375 
Q 37.203125 6.109375 41.296875 11.75 
Q 45.40625 17.390625 45.40625 27.296875 
Q 45.40625 37.203125 41.296875 42.84375 
Q 37.203125 48.484375 30.078125 48.484375 
Q 22.953125 48.484375 18.875 42.84375 
Q 14.796875 37.203125 14.796875 27.296875 
z
" id="DejaVuSans-100"/>
      <path d="M 9.421875 54.6875 
L 18.40625 54.6875 
L 18.40625 0 
L 9.421875 0 
z
M 9.421875 75.984375 
L 18.40625 75.984375 
L 18.40625 64.59375 
L 9.421875 64.59375 
z
" id="DejaVuSans-105"/>
      <path d="M 52 44.1875 
Q 55.375 50.25 60.0625 53.125 
Q 64.75 56 71.09375 56 
Q 79.640625 56 84.28125 50.015625 
Q 88.921875 44.046875 88.921875 33.015625 
L 88.921875 0 
L 79.890625 0 
L 79.890625 32.71875 
Q 79.890625 40.578125 77.09375 44.375 
Q 74.3125 48.1875 68.609375 48.1875 
Q 61.625 48.1875 57.5625 43.546875 
Q 53.515625 38.921875 53.515625 30.90625 
L 53.515625 0 
L 44.484375 0 
L 44.484375 32.71875 
Q 44.484375 40.625 41.703125 44.40625 
Q 38.921875 48.1875 33.109375 48.1875 
Q 26.21875 48.1875 22.15625 43.53125 
Q 18.109375 38.875 18.109375 30.90625 
L 18.109375 0 
L 9.078125 0 
L 9.078125 54.6875 
L 18.109375 54.6875 
L 18.109375 46.1875 
Q 21.1875 51.21875 25.484375 53.609375 
Q 29.78125 56 35.6875 56 
Q 41.65625 56 45.828125 52.96875 
Q 50 49.953125 52 44.1875 
z
" id="DejaVuSans-109"/>
      <path d="M 54.890625 33.015625 
L 54.890625 0 
L 45.90625 0 
L 45.90625 32.71875 
Q 45.90625 40.484375 42.875 44.328125 
Q 39.84375 48.1875 33.796875 48.1875 
Q 26.515625 48.1875 22.3125 43.546875 
Q 18.109375 38.921875 18.109375 30.90625 
L 18.109375 0 
L 9.078125 0 
L 9.078125 54.6875 
L 18.109375 54.6875 
L 18.109375 46.1875 
Q 21.34375 51.125 25.703125 53.5625 
Q 30.078125 56 35.796875 56 
Q 45.21875 56 50.046875 50.171875 
Q 54.890625 44.34375 54.890625 33.015625 
z
" id="DejaVuSans-110"/>
      <path d="M 8.015625 75.875 
L 15.828125 75.875 
Q 23.140625 64.359375 26.78125 53.3125 
Q 30.421875 42.28125 30.421875 31.390625 
Q 30.421875 20.453125 26.78125 9.375 
Q 23.140625 -1.703125 15.828125 -13.1875 
L 8.015625 -13.1875 
Q 14.5 -2 17.703125 9.0625 
Q 20.90625 20.125 20.90625 31.390625 
Q 20.90625 42.671875 17.703125 53.65625 
Q 14.5 64.65625 8.015625 75.875 
z
" id="DejaVuSans-41"/>
     </defs>
     <g transform="translate(77.303219 342.217594)scale(0.17 -0.17)">
      <use xlink:href="#DejaVuSans-108"/>
      <use x="27.783203" xlink:href="#DejaVuSans-111"/>
      <use x="88.964844" xlink:href="#DejaVuSans-103"/>
      <use x="152.441406" xlink:href="#DejaVuSans-49"/>
      <use x="216.064453" xlink:href="#DejaVuSans-48"/>
      <use x="279.6875" xlink:href="#DejaVuSans-40"/>
      <use x="318.701172" xlink:href="#DejaVuSans-35"/>
      <use x="402.490234" xlink:href="#DejaVuSans-32"/>
      <use x="434.277344" xlink:href="#DejaVuSans-102"/>
      <use x="469.404297" xlink:href="#DejaVuSans-45"/>
      <use x="505.488281" xlink:href="#DejaVuSans-101"/>
      <use x="567.011719" xlink:href="#DejaVuSans-118"/>
      <use x="626.191406" xlink:href="#DejaVuSans-97"/>
      <use x="687.470703" xlink:href="#DejaVuSans-108"/>
      <use x="715.253906" xlink:href="#DejaVuSans-115"/>
      <use x="767.353516" xlink:href="#DejaVuSans-32"/>
      <use x="799.140625" xlink:href="#DejaVuSans-47"/>
      <use x="832.832031" xlink:href="#DejaVuSans-32"/>
      <use x="864.619141" xlink:href="#DejaVuSans-100"/>
      <use x="928.095703" xlink:href="#DejaVuSans-105"/>
      <use x="955.878906" xlink:href="#DejaVuSans-109"/>
      <use x="1053.291016" xlink:href="#DejaVuSans-101"/>
      <use x="1114.814453" xlink:href="#DejaVuSans-110"/>
      <use x="1178.193359" xlink:href="#DejaVuSans-115"/>
      <use x="1230.292969" xlink:href="#DejaVuSans-105"/>
      <use x="1258.076172" xlink:href="#DejaVuSans-111"/>
      <use x="1319.257812" xlink:href="#DejaVuSans-110"/>
      <use x="1382.636719" xlink:href="#DejaVuSans-41"/>
     </g>
    </g>
   </g>
   <g id="matplotlib.axis_2">
    <g id="ytick_1">
     <g id="line2d_29">
      <path clip-path="url(#p93942daf6a)" d="M 57.6 298.944 
L 338.688 298.944 
" style="fill:none;stroke:#b0b0b0;stroke-linecap:square;stroke-width:0.8;"/>
     </g>
     <g id="line2d_30">
      <defs>
       <path d="M 0 0 
L -3.5 0 
" id="m452d94e919" style="stroke:#000000;stroke-width:0.8;"/>
      </defs>
      <g>
       <use style="stroke:#000000;stroke-width:0.8;" x="57.6" xlink:href="#m452d94e919" y="298.944"/>
      </g>
     </g>
     <g id="text_6">
      <!-- 0.0 -->
      <defs>
       <path d="M 10.6875 12.40625 
L 21 12.40625 
L 21 0 
L 10.6875 0 
z
" id="DejaVuSans-46"/>
      </defs>
      <g transform="translate(25.155 305.02275)scale(0.16 -0.16)">
       <use xlink:href="#DejaVuSans-48"/>
       <use x="63.623047" xlink:href="#DejaVuSans-46"/>
       <use x="95.410156" xlink:href="#DejaVuSans-48"/>
      </g>
     </g>
    </g>
    <g id="ytick_2">
     <g id="line2d_31">
      <path clip-path="url(#p93942daf6a)" d="M 57.6 247.959446 
L 338.688 247.959446 
" style="fill:none;stroke:#b0b0b0;stroke-linecap:square;stroke-width:0.8;"/>
     </g>
     <g id="line2d_32">
      <g>
       <use style="stroke:#000000;stroke-width:0.8;" x="57.6" xlink:href="#m452d94e919" y="247.959446"/>
      </g>
     </g>
     <g id="text_7">
      <!-- 0.2 -->
      <g transform="translate(25.155 254.038196)scale(0.16 -0.16)">
       <use xlink:href="#DejaVuSans-48"/>
       <use x="63.623047" xlink:href="#DejaVuSans-46"/>
       <use x="95.410156" xlink:href="#DejaVuSans-50"/>
      </g>
     </g>
    </g>
    <g id="ytick_3">
     <g id="line2d_33">
      <path clip-path="url(#p93942daf6a)" d="M 57.6 196.974891 
L 338.688 196.974891 
" style="fill:none;stroke:#b0b0b0;stroke-linecap:square;stroke-width:0.8;"/>
     </g>
     <g id="line2d_34">
      <g>
       <use style="stroke:#000000;stroke-width:0.8;" x="57.6" xlink:href="#m452d94e919" y="196.974891"/>
      </g>
     </g>
     <g id="text_8">
      <!-- 0.4 -->
      <g transform="translate(25.155 203.053641)scale(0.16 -0.16)">
       <use xlink:href="#DejaVuSans-48"/>
       <use x="63.623047" xlink:href="#DejaVuSans-46"/>
       <use x="95.410156" xlink:href="#DejaVuSans-52"/>
      </g>
     </g>
    </g>
    <g id="ytick_4">
     <g id="line2d_35">
      <path clip-path="url(#p93942daf6a)" d="M 57.6 145.990337 
L 338.688 145.990337 
" style="fill:none;stroke:#b0b0b0;stroke-linecap:square;stroke-width:0.8;"/>
     </g>
     <g id="line2d_36">
      <g>
       <use style="stroke:#000000;stroke-width:0.8;" x="57.6" xlink:href="#m452d94e919" y="145.990337"/>
      </g>
     </g>
     <g id="text_9">
      <!-- 0.6 -->
      <g transform="translate(25.155 152.069087)scale(0.16 -0.16)">
       <use xlink:href="#DejaVuSans-48"/>
       <use x="63.623047" xlink:href="#DejaVuSans-46"/>
       <use x="95.410156" xlink:href="#DejaVuSans-54"/>
      </g>
     </g>
    </g>
    <g id="ytick_5">
     <g id="line2d_37">
      <path clip-path="url(#p93942daf6a)" d="M 57.6 95.005782 
L 338.688 95.005782 
" style="fill:none;stroke:#b0b0b0;stroke-linecap:square;stroke-width:0.8;"/>
     </g>
     <g id="line2d_38">
      <g>
       <use style="stroke:#000000;stroke-width:0.8;" x="57.6" xlink:href="#m452d94e919" y="95.005782"/>
      </g>
     </g>
     <g id="text_10">
      <!-- 0.8 -->
      <defs>
       <path d="M 31.78125 34.625 
Q 24.75 34.625 20.71875 30.859375 
Q 16.703125 27.09375 16.703125 20.515625 
Q 16.703125 13.921875 20.71875 10.15625 
Q 24.75 6.390625 31.78125 6.390625 
Q 38.8125 6.390625 42.859375 10.171875 
Q 46.921875 13.96875 46.921875 20.515625 
Q 46.921875 27.09375 42.890625 30.859375 
Q 38.875 34.625 31.78125 34.625 
z
M 21.921875 38.8125 
Q 15.578125 40.375 12.03125 44.71875 
Q 8.5 49.078125 8.5 55.328125 
Q 8.5 64.0625 14.71875 69.140625 
Q 20.953125 74.21875 31.78125 74.21875 
Q 42.671875 74.21875 48.875 69.140625 
Q 55.078125 64.0625 55.078125 55.328125 
Q 55.078125 49.078125 51.53125 44.71875 
Q 48 40.375 41.703125 38.8125 
Q 48.828125 37.15625 52.796875 32.3125 
Q 56.78125 27.484375 56.78125 20.515625 
Q 56.78125 9.90625 50.3125 4.234375 
Q 43.84375 -1.421875 31.78125 -1.421875 
Q 19.734375 -1.421875 13.25 4.234375 
Q 6.78125 9.90625 6.78125 20.515625 
Q 6.78125 27.484375 10.78125 32.3125 
Q 14.796875 37.15625 21.921875 38.8125 
z
M 18.3125 54.390625 
Q 18.3125 48.734375 21.84375 45.5625 
Q 25.390625 42.390625 31.78125 42.390625 
Q 38.140625 42.390625 41.71875 45.5625 
Q 45.3125 48.734375 45.3125 54.390625 
Q 45.3125 60.0625 41.71875 63.234375 
Q 38.140625 66.40625 31.78125 66.40625 
Q 25.390625 66.40625 21.84375 63.234375 
Q 18.3125 60.0625 18.3125 54.390625 
z
" id="DejaVuSans-56"/>
      </defs>
      <g transform="translate(25.155 101.084532)scale(0.16 -0.16)">
       <use xlink:href="#DejaVuSans-48"/>
       <use x="63.623047" xlink:href="#DejaVuSans-46"/>
       <use x="95.410156" xlink:href="#DejaVuSans-56"/>
      </g>
     </g>
    </g>
    <g id="ytick_6">
     <g id="line2d_39">
      <path clip-path="url(#p93942daf6a)" d="M 57.6 44.021228 
L 338.688 44.021228 
" style="fill:none;stroke:#b0b0b0;stroke-linecap:square;stroke-width:0.8;"/>
     </g>
     <g id="line2d_40">
      <g>
       <use style="stroke:#000000;stroke-width:0.8;" x="57.6" xlink:href="#m452d94e919" y="44.021228"/>
      </g>
     </g>
     <g id="text_11">
      <!-- 1.0 -->
      <g transform="translate(25.155 50.099978)scale(0.16 -0.16)">
       <use xlink:href="#DejaVuSans-49"/>
       <use x="63.623047" xlink:href="#DejaVuSans-46"/>
       <use x="95.410156" xlink:href="#DejaVuSans-48"/>
      </g>
     </g>
    </g>
    <g id="text_12">
     <!-- Fraction of function,target pairs -->
     <defs>
      <path d="M 9.8125 72.90625 
L 51.703125 72.90625 
L 51.703125 64.59375 
L 19.671875 64.59375 
L 19.671875 43.109375 
L 48.578125 43.109375 
L 48.578125 34.8125 
L 19.671875 34.8125 
L 19.671875 0 
L 9.8125 0 
z
" id="DejaVuSans-70"/>
      <path d="M 41.109375 46.296875 
Q 39.59375 47.171875 37.8125 47.578125 
Q 36.03125 48 33.890625 48 
Q 26.265625 48 22.1875 43.046875 
Q 18.109375 38.09375 18.109375 28.8125 
L 18.109375 0 
L 9.078125 0 
L 9.078125 54.6875 
L 18.109375 54.6875 
L 18.109375 46.1875 
Q 20.953125 51.171875 25.484375 53.578125 
Q 30.03125 56 36.53125 56 
Q 37.453125 56 38.578125 55.875 
Q 39.703125 55.765625 41.0625 55.515625 
z
" id="DejaVuSans-114"/>
      <path d="M 48.78125 52.59375 
L 48.78125 44.1875 
Q 44.96875 46.296875 41.140625 47.34375 
Q 37.3125 48.390625 33.40625 48.390625 
Q 24.65625 48.390625 19.8125 42.84375 
Q 14.984375 37.3125 14.984375 27.296875 
Q 14.984375 17.28125 19.8125 11.734375 
Q 24.65625 6.203125 33.40625 6.203125 
Q 37.3125 6.203125 41.140625 7.25 
Q 44.96875 8.296875 48.78125 10.40625 
L 48.78125 2.09375 
Q 45.015625 0.34375 40.984375 -0.53125 
Q 36.96875 -1.421875 32.421875 -1.421875 
Q 20.0625 -1.421875 12.78125 6.34375 
Q 5.515625 14.109375 5.515625 27.296875 
Q 5.515625 40.671875 12.859375 48.328125 
Q 20.21875 56 33.015625 56 
Q 37.15625 56 41.109375 55.140625 
Q 45.0625 54.296875 48.78125 52.59375 
z
" id="DejaVuSans-99"/>
      <path d="M 18.3125 70.21875 
L 18.3125 54.6875 
L 36.8125 54.6875 
L 36.8125 47.703125 
L 18.3125 47.703125 
L 18.3125 18.015625 
Q 18.3125 11.328125 20.140625 9.421875 
Q 21.96875 7.515625 27.59375 7.515625 
L 36.8125 7.515625 
L 36.8125 0 
L 27.59375 0 
Q 17.1875 0 13.234375 3.875 
Q 9.28125 7.765625 9.28125 18.015625 
L 9.28125 47.703125 
L 2.6875 47.703125 
L 2.6875 54.6875 
L 9.28125 54.6875 
L 9.28125 70.21875 
z
" id="DejaVuSans-116"/>
      <path d="M 8.5 21.578125 
L 8.5 54.6875 
L 17.484375 54.6875 
L 17.484375 21.921875 
Q 17.484375 14.15625 20.5 10.265625 
Q 23.53125 6.390625 29.59375 6.390625 
Q 36.859375 6.390625 41.078125 11.03125 
Q 45.3125 15.671875 45.3125 23.6875 
L 45.3125 54.6875 
L 54.296875 54.6875 
L 54.296875 0 
L 45.3125 0 
L 45.3125 8.40625 
Q 42.046875 3.421875 37.71875 1 
Q 33.40625 -1.421875 27.6875 -1.421875 
Q 18.265625 -1.421875 13.375 4.4375 
Q 8.5 10.296875 8.5 21.578125 
z
M 31.109375 56 
z
" id="DejaVuSans-117"/>
      <path d="M 11.71875 12.40625 
L 22.015625 12.40625 
L 22.015625 4 
L 14.015625 -11.625 
L 7.71875 -11.625 
L 11.71875 4 
z
" id="DejaVuSans-44"/>
      <path d="M 18.109375 8.203125 
L 18.109375 -20.796875 
L 9.078125 -20.796875 
L 9.078125 54.6875 
L 18.109375 54.6875 
L 18.109375 46.390625 
Q 20.953125 51.265625 25.265625 53.625 
Q 29.59375 56 35.59375 56 
Q 45.5625 56 51.78125 48.09375 
Q 58.015625 40.1875 58.015625 27.296875 
Q 58.015625 14.40625 51.78125 6.484375 
Q 45.5625 -1.421875 35.59375 -1.421875 
Q 29.59375 -1.421875 25.265625 0.953125 
Q 20.953125 3.328125 18.109375 8.203125 
z
M 48.6875 27.296875 
Q 48.6875 37.203125 44.609375 42.84375 
Q 40.53125 48.484375 33.40625 48.484375 
Q 26.265625 48.484375 22.1875 42.84375 
Q 18.109375 37.203125 18.109375 27.296875 
Q 18.109375 17.390625 22.1875 11.75 
Q 26.265625 6.109375 33.40625 6.109375 
Q 40.53125 6.109375 44.609375 11.75 
Q 48.6875 17.390625 48.6875 27.296875 
z
" id="DejaVuSans-112"/>
     </defs>
     <g transform="translate(17.619531 305.347375)rotate(-90)scale(0.17 -0.17)">
      <use xlink:href="#DejaVuSans-70"/>
      <use x="57.410156" xlink:href="#DejaVuSans-114"/>
      <use x="98.523438" xlink:href="#DejaVuSans-97"/>
      <use x="159.802734" xlink:href="#DejaVuSans-99"/>
      <use x="214.783203" xlink:href="#DejaVuSans-116"/>
      <use x="253.992188" xlink:href="#DejaVuSans-105"/>
      <use x="281.775391" xlink:href="#DejaVuSans-111"/>
      <use x="342.957031" xlink:href="#DejaVuSans-110"/>
      <use x="406.335938" xlink:href="#DejaVuSans-32"/>
      <use x="438.123047" xlink:href="#DejaVuSans-111"/>
      <use x="499.304688" xlink:href="#DejaVuSans-102"/>
      <use x="534.509766" xlink:href="#DejaVuSans-32"/>
      <use x="566.296875" xlink:href="#DejaVuSans-102"/>
      <use x="601.501953" xlink:href="#DejaVuSans-117"/>
      <use x="664.880859" xlink:href="#DejaVuSans-110"/>
      <use x="728.259766" xlink:href="#DejaVuSans-99"/>
      <use x="783.240234" xlink:href="#DejaVuSans-116"/>
      <use x="822.449219" xlink:href="#DejaVuSans-105"/>
      <use x="850.232422" xlink:href="#DejaVuSans-111"/>
      <use x="911.414062" xlink:href="#DejaVuSans-110"/>
      <use x="974.792969" xlink:href="#DejaVuSans-44"/>
      <use x="1006.580078" xlink:href="#DejaVuSans-116"/>
      <use x="1045.789062" xlink:href="#DejaVuSans-97"/>
      <use x="1107.068359" xlink:href="#DejaVuSans-114"/>
      <use x="1148.166016" xlink:href="#DejaVuSans-103"/>
      <use x="1211.642578" xlink:href="#DejaVuSans-101"/>
      <use x="1273.166016" xlink:href="#DejaVuSans-116"/>
      <use x="1312.375" xlink:href="#DejaVuSans-32"/>
      <use x="1344.162109" xlink:href="#DejaVuSans-112"/>
      <use x="1407.638672" xlink:href="#DejaVuSans-97"/>
      <use x="1468.917969" xlink:href="#DejaVuSans-105"/>
      <use x="1496.701172" xlink:href="#DejaVuSans-114"/>
      <use x="1537.814453" xlink:href="#DejaVuSans-115"/>
     </g>
    </g>
   </g>
   <g id="line2d_41">
    <defs>
     <path d="M 0 1.5 
C 0.397805 1.5 0.77937 1.341951 1.06066 1.06066 
C 1.341951 0.77937 1.5 0.397805 1.5 0 
C 1.5 -0.397805 1.341951 -0.77937 1.06066 -1.06066 
C 0.77937 -1.341951 0.397805 -1.5 0 -1.5 
C -0.397805 -1.5 -0.77937 -1.341951 -1.06066 -1.06066 
C -1.341951 -0.77937 -1.5 -0.397805 -1.5 0 
C -1.5 0.397805 -1.341951 0.77937 -1.06066 1.06066 
C -0.77937 1.341951 -0.397805 1.5 0 1.5 
z
" id="m136935332d" style="stroke:#f5deb3;"/>
    </defs>
    <g>
     <use style="fill:#f5deb3;stroke:#f5deb3;" x="138.84457" xlink:href="#m136935332d" y="44.021228"/>
     <use style="fill:#f5deb3;stroke:#f5deb3;" x="138.84457" xlink:href="#m136935332d" y="44.021228"/>
    </g>
   </g>
   <g id="line2d_42">
    <defs>
     <path d="M 0 1.5 
C 0.397805 1.5 0.77937 1.341951 1.06066 1.06066 
C 1.341951 0.77937 1.5 0.397805 1.5 0 
C 1.5 -0.397805 1.341951 -0.77937 1.06066 -1.06066 
C 0.77937 -1.341951 0.397805 -1.5 0 -1.5 
C -0.397805 -1.5 -0.77937 -1.341951 -1.06066 -1.06066 
C -1.341951 -0.77937 -1.5 -0.397805 -1.5 0 
C -1.5 0.397805 -1.341951 0.77937 -1.06066 1.06066 
C -0.77937 1.341951 -0.397805 1.5 0 1.5 
z
" id="ma6be52e088" style="stroke:#000080;"/>
    </defs>
    <g>
     <use style="fill:#000080;stroke:#000080;" x="185.114038" xlink:href="#ma6be52e088" y="44.021228"/>
     <use style="fill:#000080;stroke:#000080;" x="185.114038" xlink:href="#ma6be52e088" y="44.021228"/>
    </g>
   </g>
   <g id="line2d_43">
    <path d="M 45.512012 298.944 
L 45.512012 292.945817 
L 57.6 292.945817 
L 57.6 291.94612 
L 64.67102 291.94612 
L 64.67102 291.046393 
L 69.687988 291.046393 
L 69.687988 290.246635 
L 76.759008 290.146665 
L 76.759008 289.546847 
L 79.447285 289.546847 
L 79.447285 288.54715 
L 81.775977 288.54715 
L 81.775977 287.347513 
L 83.830028 287.347513 
L 83.830028 287.147574 
L 85.66744 287.147574 
L 85.66744 286.747695 
L 87.329581 286.747695 
L 87.329581 286.447786 
L 88.846997 286.447786 
L 88.846997 285.648028 
L 90.242884 285.648028 
L 90.242884 285.448089 
L 91.535274 285.448089 
L 91.535274 285.248149 
L 92.73846 285.248149 
L 92.73846 284.94824 
L 94.921215 284.84827 
L 94.921215 284.648331 
L 95.918017 284.648331 
L 95.918017 284.248452 
L 96.86091 284.248452 
L 96.86091 283.748603 
L 97.755429 283.748603 
L 97.755429 283.548664 
L 98.606294 283.548664 
L 98.606294 282.948846 
L 100.192776 282.848876 
L 100.192776 282.149088 
L 100.934985 282.149088 
L 100.934985 281.849179 
L 102.330873 281.749209 
L 102.330873 281.34933 
L 102.989037 281.34933 
L 102.989037 280.849482 
L 103.623262 280.849482 
L 103.623262 280.449603 
L 104.23523 280.449603 
L 104.23523 279.749815 
L 104.826449 279.749815 
L 104.826449 279.149997 
L 105.951954 279.149997 
L 105.951954 278.650148 
L 107.514726 278.550178 
L 107.514726 278.250269 
L 108.483824 278.250269 
L 108.483824 278.05033 
L 108.948899 278.05033 
L 108.948899 277.550481 
L 109.843417 277.550481 
L 109.843417 276.950663 
L 110.274038 276.950663 
L 110.274038 276.750723 
L 110.694282 276.750723 
L 110.694282 276.550784 
L 111.104637 276.550784 
L 111.104637 276.150905 
L 111.505558 276.150905 
L 111.505558 275.351147 
L 111.897469 275.351147 
L 111.897469 274.751329 
L 112.280765 274.751329 
L 112.280765 274.55139 
L 113.022974 274.45142 
L 113.022974 274.051541 
L 113.382559 274.051541 
L 113.382559 273.851602 
L 113.73488 273.851602 
L 113.73488 273.551692 
L 114.418861 273.551692 
L 114.418861 273.351753 
L 114.751048 273.351753 
L 114.751048 273.051844 
L 115.711251 272.951874 
L 115.711251 272.651965 
L 116.019919 272.651965 
L 116.019919 271.852207 
L 116.323218 271.852207 
L 116.323218 271.552298 
L 116.621333 271.552298 
L 116.621333 271.05245 
L 116.914437 271.05245 
L 116.914437 270.052752 
L 117.202696 270.052752 
L 117.202696 269.652874 
L 117.765302 269.652874 
L 117.765302 269.352964 
L 118.039942 269.352964 
L 118.039942 268.453237 
L 118.576578 268.353267 
L 118.576578 267.853419 
L 118.838828 267.853419 
L 118.838828 267.35357 
L 119.097192 267.35357 
L 119.097192 266.953691 
L 119.351785 266.953691 
L 119.351785 266.453843 
L 119.602714 266.453843 
L 119.602714 265.754055 
L 119.850084 265.754055 
L 119.850084 265.554115 
L 120.093994 265.554115 
L 120.093994 264.554418 
L 120.571812 264.554418 
L 120.571812 263.9546 
L 120.8059 263.9546 
L 120.8059 263.75466 
L 121.036887 263.75466 
L 121.036887 263.454751 
L 121.264855 263.454751 
L 121.264855 263.254812 
L 121.489881 263.254812 
L 121.489881 262.654994 
L 121.712041 262.654994 
L 121.712041 262.355084 
L 121.931406 262.355084 
L 121.931406 262.155145 
L 122.148045 262.155145 
L 122.148045 261.555327 
L 122.362027 261.555327 
L 122.362027 260.755569 
L 122.573415 260.755569 
L 122.573415 259.955811 
L 123.192626 259.955811 
L 123.192626 259.655902 
L 123.394238 259.655902 
L 123.394238 259.355993 
L 123.593547 259.355993 
L 123.593547 258.856144 
L 123.985457 258.856144 
L 123.985457 258.556235 
L 124.368753 258.456266 
L 124.368753 257.856447 
L 124.557288 257.856447 
L 124.557288 257.556538 
L 124.743806 257.556538 
L 124.743806 256.75678 
L 124.92835 256.75678 
L 124.92835 256.156962 
L 125.110962 256.156962 
L 125.110962 255.857053 
L 125.470548 255.757083 
L 125.470548 255.257235 
L 125.647598 255.257235 
L 125.647598 254.157568 
L 125.822869 254.157568 
L 125.822869 253.957628 
L 125.996395 253.957628 
L 125.996395 253.45778 
L 126.50685 253.35781 
L 126.50685 252.658022 
L 126.673734 252.658022 
L 126.673734 251.758295 
L 127.002787 251.658325 
L 127.002787 251.258446 
L 127.165014 251.258446 
L 127.165014 250.758598 
L 127.325746 250.758598 
L 127.325746 250.558658 
L 127.48501 250.558658 
L 127.48501 249.85887 
L 127.642832 249.85887 
L 127.642832 248.259355 
L 127.954256 248.259355 
L 127.954256 248.059415 
L 128.107907 248.059415 
L 128.107907 247.859476 
L 128.260216 247.859476 
L 128.260216 247.559567 
L 128.411207 247.559567 
L 128.411207 247.359627 
L 128.856489 247.359627 
L 128.856489 247.159688 
L 129.002426 247.159688 
L 129.002426 246.959748 
L 129.147151 246.959748 
L 129.147151 245.960051 
L 129.290685 245.960051 
L 129.290685 245.660142 
L 129.574256 245.560172 
L 129.574256 245.360233 
L 129.714332 245.360233 
L 129.714332 243.960657 
L 129.853291 243.960657 
L 129.853291 243.660748 
L 129.991152 243.660748 
L 129.991152 243.06093 
L 130.263646 242.96096 
L 130.263646 241.761323 
L 130.398313 241.761323 
L 130.398313 241.161505 
L 130.664567 241.161505 
L 130.664567 240.761626 
L 130.796184 240.761626 
L 130.796184 240.061838 
L 130.926816 240.061838 
L 130.926816 239.761929 
L 131.056477 239.761929 
L 131.056477 239.46202 
L 131.185181 239.46202 
L 131.185181 238.762232 
L 131.565689 238.762232 
L 131.565689 238.162414 
L 131.690703 238.162414 
L 131.690703 237.762535 
L 131.814826 237.762535 
L 131.814826 237.462626 
L 131.938072 237.462626 
L 131.938072 236.662868 
L 132.30267 236.662868 
L 132.30267 236.362959 
L 132.422528 236.362959 
L 132.422528 236.163019 
L 132.541568 236.163019 
L 132.541568 235.96308 
L 132.659801 235.96308 
L 132.659801 235.463231 
L 132.893889 235.463231 
L 132.893889 235.063352 
L 133.124876 234.963383 
L 133.124876 234.363564 
L 133.239232 234.363564 
L 133.239232 233.963685 
L 133.352844 233.963685 
L 133.352844 233.663776 
L 133.57787 233.663776 
L 133.57787 233.463837 
L 133.689303 233.463837 
L 133.800029 232.664079 
L 134.019394 232.564109 
L 134.019394 232.2642 
L 134.236034 232.2642 
L 134.343353 231.864321 
L 134.450015 231.864321 
L 134.55603 231.464443 
L 134.661403 231.464443 
L 134.766144 230.564715 
L 135.076644 230.464745 
L 135.178927 230.164836 
L 135.482227 230.064867 
L 135.582166 229.365079 
L 135.681535 229.365079 
L 135.780341 228.265412 
L 135.878591 228.265412 
L 135.97629 227.665593 
L 136.170062 227.665593 
L 136.170062 227.465654 
L 136.361705 227.465654 
L 136.456742 226.765866 
L 136.551264 226.765866 
L 136.645276 225.966108 
L 136.738785 225.966108 
L 136.831795 224.866441 
L 136.924311 224.866441 
L 137.016339 223.866744 
L 137.289545 223.766775 
L 137.289545 223.666805 
L 137.469333 223.666805 
L 137.469333 223.366896 
L 137.647286 223.366896 
L 137.735587 222.567138 
L 137.823442 222.567138 
L 137.910857 221.86735 
L 137.997836 221.86735 
L 138.084384 221.567441 
L 138.170504 221.567441 
L 138.256201 220.367804 
L 138.426341 220.267835 
L 138.510793 219.568047 
L 138.594838 219.568047 
L 138.67848 218.568349 
L 138.927025 218.568349 
L 139.009092 217.468683 
L 139.090775 217.468683 
L 139.172077 216.668925 
L 139.413734 216.668925 
L 139.493548 215.669228 
L 139.652088 215.569258 
L 139.730821 214.069712 
L 139.887228 214.069712 
L 139.964909 213.169985 
L 140.042245 213.169985 
L 140.042245 212.670136 
L 140.195896 212.670136 
L 140.272217 211.770409 
L 140.348205 211.770409 
L 140.423864 211.070621 
L 140.574203 211.070621 
L 140.64889 210.170893 
L 140.723258 210.170893 
L 140.79731 208.971257 
L 140.871049 208.971257 
L 140.944478 207.571681 
L 141.017599 207.571681 
L 141.090414 206.871893 
L 141.162927 206.871893 
L 141.235139 205.772226 
L 141.307054 205.772226 
L 141.378673 204.872499 
L 141.45 204.872499 
L 141.521035 204.172711 
L 141.591783 204.172711 
L 141.662245 203.272983 
L 141.732423 203.272983 
L 141.80232 202.873104 
L 141.871938 202.873104 
L 141.941279 201.473528 
L 142.010346 201.473528 
L 142.07914 200.073952 
L 142.147664 200.073952 
L 142.215919 198.674376 
L 142.351634 198.574407 
L 142.419098 197.774649 
L 142.486301 197.774649 
L 142.553247 195.775255 
L 142.619936 195.775255 
L 142.686372 193.87583 
L 142.752555 193.87583 
L 142.818488 191.876436 
L 142.884173 191.876436 
L 142.949611 190.27692 
L 143.014805 190.27692 
L 143.079756 188.977314 
L 143.144465 188.977314 
L 143.208936 187.777677 
L 143.273169 187.777677 
L 143.337167 185.878253 
L 143.40093 185.878253 
L 143.464461 184.778586 
L 143.527762 184.778586 
L 143.590833 183.47898 
L 143.653678 183.47898 
L 143.716296 182.579252 
L 143.778691 182.579252 
L 143.840863 181.679525 
L 143.902815 181.679525 
L 143.964547 180.479888 
L 144.087359 180.379918 
L 144.148442 178.480494 
L 144.209312 178.480494 
L 144.269971 177.180888 
L 144.330419 177.180888 
L 144.390658 175.281463 
L 144.45069 175.281463 
L 144.510517 173.482008 
L 144.570138 173.482008 
L 144.570138 173.282069 
L 144.688773 173.282069 
L 144.747789 172.582281 
L 144.806606 172.582281 
L 144.865226 171.382644 
L 144.923649 171.382644 
L 144.981877 170.382947 
L 145.039911 170.382947 
L 145.097753 169.683159 
L 145.155404 169.683159 
L 145.212864 168.283583 
L 145.270136 168.283583 
L 145.327221 167.583795 
L 145.384119 167.583795 
L 145.440832 166.884007 
L 145.497361 166.884007 
L 145.553708 166.184219 
L 145.609873 166.184219 
L 145.665858 165.78434 
L 145.721664 165.78434 
L 145.832743 162.885218 
L 145.888018 162.885218 
L 145.943118 161.485642 
L 146.052799 161.485642 
L 146.161795 160.086066 
L 146.216039 160.086066 
L 146.324022 159.186339 
L 146.377764 159.186339 
L 146.484754 156.187248 
L 146.538004 156.187248 
L 146.644018 153.488065 
L 146.696785 153.488065 
L 146.801841 150.788883 
L 146.854132 150.788883 
L 146.958248 148.689519 
L 147.010073 148.689519 
L 147.113265 147.589852 
L 147.164632 147.589852 
L 147.266916 145.990337 
L 147.317833 145.990337 
L 147.419225 144.69073 
L 147.4697 144.69073 
L 147.570215 141.29176 
L 147.620256 141.29176 
L 147.71991 138.992457 
L 147.769524 138.992457 
L 147.86833 137.292971 
L 147.917524 137.292971 
L 148.015498 136.193305 
L 148.064279 136.193305 
L 148.161434 134.693759 
L 148.209809 134.693759 
L 148.306159 132.494425 
L 148.354135 132.494425 
L 148.449693 130.595001 
L 148.497276 130.595001 
L 148.592055 129.695273 
L 148.639252 129.695273 
L 148.733265 128.395667 
L 148.780082 128.395667 
L 148.87334 126.396273 
L 148.919783 126.396273 
L 149.012299 123.79706 
L 149.058374 123.79706 
L 149.15016 121.797666 
L 149.195872 121.797666 
L 149.286939 118.598635 
L 149.332295 118.598635 
L 149.422654 116.099392 
L 149.467659 116.099392 
L 149.557321 114.499877 
L 149.60198 114.499877 
L 149.690956 112.000634 
L 149.735275 112.000634 
L 149.823575 110.701027 
L 149.867558 110.701027 
L 149.955193 109.101512 
L 149.998846 109.101512 
L 150.085825 107.501997 
L 150.129152 107.501997 
L 150.215485 106.002451 
L 150.258492 106.002451 
L 150.301393 105.102723 
L 150.429467 105.002754 
L 150.51433 103.203299 
L 150.556607 103.203299 
L 150.640855 100.903995 
L 150.682827 100.903995 
L 150.766468 99.30448 
L 150.849711 99.20451 
L 150.932558 98.004874 
L 150.973835 98.004874 
L 151.056095 96.705267 
L 151.097081 96.705267 
L 151.178764 94.605903 
L 151.219462 94.605903 
L 151.300575 92.906418 
L 151.340991 92.906418 
L 151.421542 91.606812 
L 151.461678 91.606812 
L 151.541675 89.007599 
L 151.621307 89.007599 
L 151.700576 87.707993 
L 151.740076 87.707993 
L 151.818809 86.508356 
L 151.858043 86.508356 
L 151.897188 85.808568 
L 152.0141 85.708599 
L 152.091608 84.408992 
L 152.130233 84.408992 
L 152.168773 83.209356 
L 152.283884 83.209356 
L 152.360205 81.80978 
L 152.398241 81.80978 
L 152.474064 79.110598 
L 152.587184 79.010628 
L 152.662192 77.910961 
L 152.736878 77.910961 
L 152.811246 76.411415 
L 152.848312 76.411415 
L 152.959038 74.412021 
L 152.995791 74.412021 
L 153.105587 72.512596 
L 153.214697 72.512596 
L 153.287059 69.813414 
L 153.359122 69.813414 
L 153.430889 69.213596 
L 153.502361 69.213596 
L 153.609024 67.314171 
L 153.644434 67.314171 
L 153.715038 66.114535 
L 153.820412 66.114535 
L 153.925152 64.515019 
L 153.959927 64.515019 
L 154.063835 63.015474 
L 154.098334 63.015474 
L 154.201424 62.315685 
L 154.337936 62.215716 
L 154.439623 60.6162 
L 154.473387 60.6162 
L 154.57429 59.816443 
L 154.607795 59.816443 
L 154.707925 58.816745 
L 154.77436 58.816745 
L 154.873541 57.3172 
L 155.004911 57.21723 
L 155.004911 56.817351 
L 155.135299 56.817351 
L 155.232454 55.817654 
L 155.296925 55.817654 
L 155.393186 55.217836 
L 155.61575 55.217836 
L 155.678822 54.118169 
L 155.773004 54.018199 
L 155.86668 53.218441 
L 155.959855 53.118472 
L 156.052535 52.618623 
L 156.114049 52.618623 
L 156.205916 51.818865 
L 156.236431 51.818865 
L 156.236431 51.618926 
L 156.448553 51.518956 
L 156.508689 51.119077 
L 156.628341 51.019108 
L 156.717545 50.719199 
L 156.835778 50.619229 
L 156.835778 50.519259 
L 156.98245 50.519259 
L 156.98245 50.11938 
L 157.156845 50.019411 
L 157.156845 49.919441 
L 157.38669 49.819471 
L 157.38669 49.619532 
L 158.195371 49.519562 
L 158.195371 49.319623 
L 158.599388 49.219653 
L 158.625992 48.919744 
L 159.380382 48.919744 
L 159.405822 48.519865 
L 160.005512 48.419895 
L 160.005512 48.319925 
L 161.146363 48.219956 
L 161.146363 48.119986 
L 161.510643 48.020016 
L 161.510643 47.920047 
L 163.847782 47.820077 
L 163.847782 47.720107 
L 164.543127 47.620137 
L 164.543127 47.520168 
L 164.880672 47.420198 
L 164.880672 47.320228 
L 165.500963 47.220259 
L 165.500963 47.120289 
L 165.960849 47.020319 
L 165.960849 46.920349 
L 166.74592 46.82038 
L 166.74592 46.62044 
L 169.085039 46.520471 
L 169.085039 46.420501 
L 169.316986 46.420501 
L 169.316986 46.120592 
L 171.846131 46.020622 
L 171.846131 45.920652 
L 173.349008 45.820683 
L 173.349008 45.720713 
L 174.261802 45.620743 
L 174.261802 45.520773 
L 174.455933 45.420804 
L 174.455933 45.320834 
L 177.153401 45.220864 
L 177.153401 45.120895 
L 179.057758 45.020925 
L 179.057758 44.920955 
L 180.011487 44.820985 
L 180.011487 44.721016 
L 182.124367 44.621046 
L 182.124367 44.521076 
L 183.441416 44.421107 
L 183.441416 44.321137 
L 184.382961 44.221167 
L 184.382961 44.121197 
L 338.688 44.021228 
L 338.688 44.021228 
" style="fill:none;stroke:#000080;stroke-linecap:square;stroke-width:1.5;"/>
   </g>
   <g id="line2d_44">
    <defs>
     <path d="M 0 6 
C 1.591219 6 3.117479 5.367802 4.242641 4.242641 
C 5.367802 3.117479 6 1.591219 6 0 
C 6 -1.591219 5.367802 -3.117479 4.242641 -4.242641 
C 3.117479 -5.367802 1.591219 -6 0 -6 
C -1.591219 -6 -3.117479 -5.367802 -4.242641 -4.242641 
C -5.367802 -3.117479 -6 -1.591219 -6 0 
C -6 1.591219 -5.367802 3.117479 -4.242641 4.242641 
C -3.117479 5.367802 -1.591219 6 0 6 
z
" id="m26ebd84d00" style="stroke:#000080;stroke-width:1.5;"/>
    </defs>
    <g>
     <use style="fill-opacity:0;stroke:#000080;stroke-width:1.5;" x="99.41757" xlink:href="#m26ebd84d00" y="282.848876"/>
     <use style="fill-opacity:0;stroke:#000080;stroke-width:1.5;" x="145.097753" xlink:href="#m26ebd84d00" y="170.083038"/>
     <use style="fill-opacity:0;stroke:#000080;stroke-width:1.5;" x="171.846131" xlink:href="#m26ebd84d00" y="45.920652"/>
     <use style="fill-opacity:0;stroke:#000080;stroke-width:1.5;" x="185.114038" xlink:href="#m26ebd84d00" y="44.021228"/>
     <use style="fill-opacity:0;stroke:#000080;stroke-width:1.5;" x="185.114038" xlink:href="#m26ebd84d00" y="44.021228"/>
     <use style="fill-opacity:0;stroke:#000080;stroke-width:1.5;" x="338.688" xlink:href="#m26ebd84d00" y="44.021228"/>
    </g>
   </g>
   <g id="line2d_45">
    <path style="fill:none;stroke:#000080;stroke-linecap:square;stroke-width:1.5;"/>
    <g/>
   </g>
   <g id="line2d_46">
    <defs>
     <path d="M 0 1.5 
C 0.397805 1.5 0.77937 1.341951 1.06066 1.06066 
C 1.341951 0.77937 1.5 0.397805 1.5 0 
C 1.5 -0.397805 1.341951 -0.77937 1.06066 -1.06066 
C 0.77937 -1.341951 0.397805 -1.5 0 -1.5 
C -0.397805 -1.5 -0.77937 -1.341951 -1.06066 -1.06066 
C -1.341951 -0.77937 -1.5 -0.397805 -1.5 0 
C -1.5 0.397805 -1.341951 0.77937 -1.06066 1.06066 
C -0.77937 1.341951 -0.397805 1.5 0 1.5 
z
" id="mb28dab200f" style="stroke:#ff00ff;"/>
    </defs>
    <g>
     <use style="fill:#ff00ff;stroke:#ff00ff;" x="171.771231" xlink:href="#mb28dab200f" y="44.021228"/>
     <use style="fill:#ff00ff;stroke:#ff00ff;" x="171.771231" xlink:href="#mb28dab200f" y="44.021228"/>
    </g>
   </g>
   <g id="line2d_47">
    <path d="M 45.512012 298.944 
L 45.512012 292.445969 
L 57.6 292.445969 
L 57.6 291.246332 
L 64.67102 291.246332 
L 64.67102 290.146665 
L 69.687988 290.146665 
L 69.687988 289.046998 
L 73.579452 289.046998 
L 73.579452 288.647119 
L 79.447285 288.54715 
L 79.447285 288.047301 
L 83.830028 287.947331 
L 83.830028 287.747392 
L 85.66744 287.747392 
L 85.66744 286.747695 
L 87.329581 286.747695 
L 87.329581 285.648028 
L 88.846997 285.648028 
L 88.846997 283.948543 
L 90.242884 283.948543 
L 90.242884 282.448997 
L 91.535274 282.448997 
L 91.535274 281.4493 
L 92.73846 281.4493 
L 92.73846 279.449906 
L 93.863965 279.449906 
L 93.863965 277.050632 
L 94.921215 277.050632 
L 94.921215 275.351147 
L 95.918017 275.351147 
L 95.918017 274.35145 
L 96.86091 274.35145 
L 96.86091 272.951874 
L 97.755429 272.951874 
L 97.755429 271.252389 
L 98.606294 271.252389 
L 98.606294 267.753449 
L 99.41757 267.753449 
L 99.41757 265.754055 
L 100.192776 265.754055 
L 100.192776 264.05457 
L 100.934985 264.05457 
L 100.934985 262.055175 
L 101.646892 262.055175 
L 101.646892 261.055478 
L 102.330873 261.055478 
L 102.330873 259.056084 
L 102.989037 259.056084 
L 102.989037 258.256326 
L 103.623262 258.256326 
L 103.623262 256.156962 
L 104.23523 256.156962 
L 104.23523 254.557447 
L 104.826449 254.557447 
L 104.826449 252.857962 
L 105.398279 252.857962 
L 105.398279 250.258749 
L 105.951954 250.258749 
L 105.951954 247.959446 
L 106.48859 247.959446 
L 106.48859 246.35993 
L 107.009204 246.35993 
L 107.009204 246.060021 
L 107.514726 246.060021 
L 107.514726 244.260566 
L 108.006005 244.260566 
L 108.006005 243.760718 
L 108.483824 243.760718 
L 108.483824 241.761323 
L 108.948899 241.761323 
L 108.948899 240.461717 
L 109.401893 240.461717 
L 109.401893 238.962171 
L 109.843417 238.962171 
L 109.843417 236.862807 
L 110.274038 236.862807 
L 110.274038 235.563201 
L 110.694282 235.563201 
L 110.694282 234.463534 
L 111.104637 234.463534 
L 111.104637 232.36417 
L 111.505558 232.36417 
L 111.505558 229.664988 
L 111.897469 229.664988 
L 111.897469 227.865533 
L 112.280765 227.865533 
L 112.280765 225.46626 
L 112.655818 225.46626 
L 112.655818 222.967017 
L 113.022974 222.967017 
L 113.022974 222.167259 
L 113.382559 222.167259 
L 113.382559 220.367804 
L 113.73488 220.367804 
L 113.73488 217.268743 
L 114.080224 217.268743 
L 114.080224 215.069409 
L 114.418861 215.069409 
L 114.418861 212.170288 
L 114.751048 212.170288 
L 114.751048 209.571075 
L 115.077025 209.571075 
L 115.077025 208.871287 
L 115.397021 208.871287 
L 115.397021 207.071832 
L 115.711251 207.071832 
L 115.711251 204.672559 
L 116.019919 204.672559 
L 116.019919 201.873407 
L 116.323218 201.873407 
L 116.323218 198.674376 
L 116.621333 198.674376 
L 116.621333 195.575315 
L 116.914437 195.575315 
L 116.914437 193.575921 
L 117.202696 193.575921 
L 117.202696 190.27692 
L 117.486268 190.27692 
L 117.486268 186.378101 
L 117.765302 186.378101 
L 117.765302 184.278737 
L 118.039942 184.278737 
L 118.039942 181.179676 
L 118.310324 181.179676 
L 118.310324 178.180585 
L 118.576578 178.180585 
L 118.576578 173.581978 
L 118.838828 173.581978 
L 118.838828 172.182402 
L 119.097192 172.182402 
L 119.097192 170.882796 
L 119.351785 170.882796 
L 119.351785 167.483825 
L 119.602714 167.483825 
L 119.602714 164.984582 
L 119.850084 164.984582 
L 119.850084 163.285097 
L 120.093994 163.285097 
L 120.093994 161.385673 
L 120.33454 161.385673 
L 120.33454 159.886127 
L 120.571812 159.886127 
L 120.571812 157.586824 
L 120.8059 157.586824 
L 120.8059 156.187248 
L 121.036887 156.187248 
L 121.036887 153.488065 
L 121.264855 153.488065 
L 121.264855 152.188459 
L 121.489881 152.188459 
L 121.489881 149.989125 
L 121.712041 149.989125 
L 121.712041 148.18967 
L 121.931406 148.18967 
L 121.931406 145.890367 
L 122.148045 145.890367 
L 122.148045 144.490791 
L 122.362027 144.490791 
L 122.362027 142.791306 
L 122.573415 142.791306 
L 122.573415 141.19179 
L 122.782271 141.19179 
L 122.782271 138.292669 
L 122.988655 138.292669 
L 122.988655 136.193305 
L 123.192626 136.193305 
L 123.192626 135.193607 
L 123.394238 135.193607 
L 123.394238 133.194213 
L 123.593547 133.194213 
L 123.593547 131.494728 
L 123.790603 131.494728 
L 123.790603 129.595303 
L 123.985457 129.595303 
L 123.985457 128.795546 
L 124.178158 128.795546 
L 124.178158 126.996091 
L 124.368753 126.996091 
L 124.368753 126.296303 
L 124.557288 126.296303 
L 124.557288 125.596515 
L 124.743806 125.596515 
L 124.743806 124.296909 
L 124.92835 124.296909 
L 124.92835 123.597121 
L 125.110962 123.597121 
L 125.110962 121.697696 
L 125.291682 121.697696 
L 125.291682 120.098181 
L 125.470548 120.098181 
L 125.470548 119.198453 
L 125.647598 119.198453 
L 125.647598 118.398695 
L 125.822869 118.398695 
L 125.822869 116.199362 
L 125.996395 116.199362 
L 125.996395 114.899755 
L 126.168212 114.899755 
L 126.168212 114.199967 
L 126.338353 114.199967 
L 126.338353 112.100603 
L 126.50685 112.100603 
L 126.50685 111.000937 
L 126.673734 111.000937 
L 126.673734 110.501088 
L 126.839037 110.501088 
L 126.839037 109.301451 
L 127.002787 109.301451 
L 127.002787 108.401724 
L 127.165014 108.401724 
L 127.165014 108.001845 
L 127.325746 108.001845 
L 127.325746 107.002148 
L 127.48501 107.002148 
L 127.48501 106.102421 
L 127.642832 106.102421 
L 127.642832 105.402632 
L 127.799239 105.402632 
L 127.799239 104.802814 
L 127.954256 104.802814 
L 127.954256 104.602875 
L 128.107907 104.602875 
L 128.107907 103.003359 
L 128.260216 103.003359 
L 128.260216 102.403541 
L 128.411207 102.403541 
L 128.411207 102.103632 
L 128.560901 102.103632 
L 128.560901 101.803723 
L 128.709321 101.803723 
L 128.709321 100.903995 
L 128.856489 100.903995 
L 128.856489 100.704056 
L 129.002426 100.704056 
L 129.002426 99.904298 
L 129.147151 99.904298 
L 129.147151 99.30448 
L 129.290685 99.30448 
L 129.290685 98.404752 
L 129.433047 98.404752 
L 129.433047 98.004874 
L 129.574256 98.004874 
L 129.574256 97.405055 
L 129.714332 97.405055 
L 129.714332 97.005176 
L 129.853291 97.005176 
L 129.853291 96.305388 
L 129.991152 96.305388 
L 129.991152 96.105449 
L 130.127931 96.105449 
L 130.127931 95.005782 
L 130.398313 95.005782 
L 130.398313 94.106055 
L 130.664567 94.106055 
L 130.664567 93.906115 
L 130.796184 93.906115 
L 130.796184 92.906418 
L 130.926816 92.906418 
L 130.926816 92.3066 
L 131.056477 92.3066 
L 131.056477 92.10666 
L 131.312942 92.006691 
L 131.312942 91.606812 
L 131.439773 91.606812 
L 131.439773 91.306903 
L 131.565689 91.306903 
L 131.565689 90.807054 
L 131.690703 90.807054 
L 131.690703 90.007296 
L 131.938072 89.907327 
L 131.938072 89.307508 
L 132.060454 89.307508 
L 132.060454 89.107569 
L 132.181982 89.107569 
L 132.181982 88.007902 
L 132.30267 88.007902 
L 132.30267 87.108175 
L 132.422528 87.108175 
L 132.422528 86.208447 
L 132.541568 86.208447 
L 132.541568 85.808568 
L 132.659801 85.808568 
L 132.659801 85.30872 
L 132.777237 85.30872 
L 132.777237 85.008811 
L 132.893889 85.008811 
L 132.893889 84.508962 
L 133.009765 84.508962 
L 133.009765 82.709507 
L 133.352844 82.609538 
L 133.352844 82.209659 
L 133.46572 82.209659 
L 133.46572 81.80978 
L 133.57787 81.80978 
L 133.57787 81.010022 
L 133.689303 81.010022 
L 133.800029 79.810386 
L 133.910056 79.810386 
L 133.910056 79.410507 
L 134.236034 79.310537 
L 134.343353 78.610749 
L 134.450015 78.610749 
L 134.55603 77.810991 
L 134.661403 77.810991 
L 134.766144 77.211173 
L 134.973757 77.111203 
L 135.076644 76.711324 
L 135.178927 76.711324 
L 135.280614 75.811597 
L 135.582166 75.711627 
L 135.681535 75.411718 
L 135.780341 75.411718 
L 135.878591 74.61196 
L 136.073445 74.61196 
L 136.170062 74.112112 
L 136.266147 74.112112 
L 136.361705 73.412324 
L 136.456742 73.412324 
L 136.551264 72.512596 
L 136.645276 72.512596 
L 136.738785 71.912778 
L 137.016339 71.912778 
L 137.107884 71.31296 
L 137.198951 71.31296 
L 137.289545 70.613172 
L 137.37967 70.613172 
L 137.469333 70.013354 
L 137.558536 70.013354 
L 137.647286 69.413535 
L 137.823442 69.413535 
L 137.910857 68.713747 
L 138.084384 68.613778 
L 138.170504 67.114232 
L 138.510793 67.014262 
L 138.510793 66.414444 
L 138.67848 66.414444 
L 138.761723 65.114838 
L 138.927025 65.114838 
L 138.927025 64.714959 
L 139.172077 64.614989 
L 139.172077 64.41505 
L 139.333553 64.41505 
L 139.413734 64.11514 
L 139.493548 64.11514 
L 139.572998 63.515322 
L 139.652088 63.515322 
L 139.652088 62.415655 
L 139.8092 62.415655 
L 139.887228 62.115746 
L 140.042245 62.015776 
L 140.11924 61.815837 
L 140.272217 61.715867 
L 140.272217 61.515928 
L 140.423864 61.515928 
L 140.423864 61.216019 
L 140.723258 61.216019 
L 140.723258 60.916109 
L 140.944478 60.916109 
L 140.944478 60.6162 
L 141.090414 60.6162 
L 141.162927 60.316291 
L 141.235139 60.316291 
L 141.235139 60.116352 
L 141.378673 60.116352 
L 141.45 58.416867 
L 141.732423 58.316897 
L 141.80232 57.817048 
L 142.07914 57.817048 
L 142.07914 57.417169 
L 142.619936 57.3172 
L 142.619936 57.21723 
L 142.818488 57.11726 
L 142.884173 56.717381 
L 143.079756 56.617412 
L 143.144465 56.217533 
L 143.590833 56.117563 
L 143.653678 55.817654 
L 143.902815 55.717684 
L 143.902815 55.617715 
L 144.269971 55.517745 
L 144.330419 55.217836 
L 144.45069 55.217836 
L 144.510517 54.917927 
L 144.629556 54.817957 
L 144.688773 54.318108 
L 144.981877 54.218139 
L 144.981877 54.018199 
L 145.212864 54.018199 
L 145.212864 53.418381 
L 145.777292 53.318411 
L 145.777292 53.118472 
L 146.052799 53.118472 
L 146.161795 52.618623 
L 146.377764 52.618623 
L 146.431341 51.718896 
L 146.538004 51.718896 
L 146.644018 51.418987 
L 147.419225 51.319017 
L 147.419225 51.219047 
L 147.769524 51.119077 
L 147.818997 50.619229 
L 148.258051 50.519259 
L 148.258051 50.21935 
L 149.467659 50.11938 
L 149.467659 50.019411 
L 150.085825 50.019411 
L 150.085825 49.719501 
L 153.785358 49.619532 
L 153.785358 49.519562 
L 160.656397 49.419592 
L 160.703658 49.219653 
L 163.185069 49.119683 
L 163.185069 49.019713 
L 163.50953 49.019713 
L 163.50953 48.719804 
L 164.102088 48.619835 
L 164.179597 48.219956 
L 164.599841 48.119986 
L 164.599841 48.020016 
L 165.55465 47.920047 
L 165.59035 47.620137 
L 165.785402 47.620137 
L 165.785402 47.420198 
L 166.013141 47.420198 
L 166.013141 47.220259 
L 166.510705 47.220259 
L 166.510705 46.62044 
L 168.125111 46.62044 
L 168.232714 46.020622 
L 169.403177 46.020622 
L 169.403177 45.720713 
L 169.813865 45.620743 
L 169.813865 44.621046 
L 171.683438 44.621046 
L 171.771231 44.021228 
L 338.688 44.021228 
L 338.688 44.021228 
" style="fill:none;stroke:#ff00ff;stroke-linecap:square;stroke-width:1.5;"/>
   </g>
   <g id="line2d_48">
    <defs>
     <path d="M -0 8.485281 
L 5.091169 0 
L 0 -8.485281 
L -5.091169 -0 
z
" id="m1d4f56b490" style="stroke:#ff00ff;stroke-linejoin:miter;stroke-width:1.5;"/>
    </defs>
    <g>
     <use style="fill-opacity:0;stroke:#ff00ff;stroke-linejoin:miter;stroke-width:1.5;" x="113.73488" xlink:href="#m1d4f56b490" y="220.367804"/>
     <use style="fill-opacity:0;stroke:#ff00ff;stroke-linejoin:miter;stroke-width:1.5;" x="125.822869" xlink:href="#m1d4f56b490" y="116.199362"/>
     <use style="fill-opacity:0;stroke:#ff00ff;stroke-linejoin:miter;stroke-width:1.5;" x="171.771231" xlink:href="#m1d4f56b490" y="44.421107"/>
     <use style="fill-opacity:0;stroke:#ff00ff;stroke-linejoin:miter;stroke-width:1.5;" x="171.771231" xlink:href="#m1d4f56b490" y="44.021228"/>
     <use style="fill-opacity:0;stroke:#ff00ff;stroke-linejoin:miter;stroke-width:1.5;" x="171.771231" xlink:href="#m1d4f56b490" y="44.021228"/>
     <use style="fill-opacity:0;stroke:#ff00ff;stroke-linejoin:miter;stroke-width:1.5;" x="338.688" xlink:href="#m1d4f56b490" y="44.021228"/>
    </g>
   </g>
   <g id="line2d_49">
    <path style="fill:none;stroke:#ff00ff;stroke-linecap:square;stroke-width:1.5;"/>
    <g/>
   </g>
   <g id="line2d_50">
    <path d="M 338.688 44.021228 
L 369.60768 293.845545 
" style="fill:none;stroke:#000080;stroke-linecap:square;stroke-width:1.5;"/>
    <g>
     <use style="fill-opacity:0;stroke:#000080;stroke-width:1.5;" x="338.688" xlink:href="#m26ebd84d00" y="44.021228"/>
     <use style="fill-opacity:0;stroke:#000080;stroke-width:1.5;" x="369.60768" xlink:href="#m26ebd84d00" y="293.845545"/>
    </g>
   </g>
   <g id="line2d_51">
    <path d="M 338.688 44.021228 
L 369.60768 171.482614 
" style="fill:none;stroke:#ff00ff;stroke-linecap:square;stroke-width:1.5;"/>
    <g>
     <use style="fill-opacity:0;stroke:#ff00ff;stroke-linejoin:miter;stroke-width:1.5;" x="338.688" xlink:href="#m1d4f56b490" y="44.021228"/>
     <use style="fill-opacity:0;stroke:#ff00ff;stroke-linejoin:miter;stroke-width:1.5;" x="369.60768" xlink:href="#m1d4f56b490" y="171.482614"/>
    </g>
   </g>
   <g id="line2d_52">
    <path d="M 338.688 298.944 
L 338.688 44.021228 
" style="fill:none;stroke:#000000;stroke-linecap:square;stroke-width:1.5;"/>
   </g>
   <g id="patch_3">
    <path d="M 57.6 298.944 
L 57.6 41.472 
" style="fill:none;stroke:#000000;stroke-linecap:square;stroke-linejoin:miter;stroke-width:0.8;"/>
   </g>
   <g id="patch_4">
    <path d="M 338.688 298.944 
L 338.688 41.472 
" style="fill:none;stroke:#000000;stroke-linecap:square;stroke-linejoin:miter;stroke-width:0.8;"/>
   </g>
   <g id="patch_5">
    <path d="M 57.6 298.944 
L 338.688 298.944 
" style="fill:none;stroke:#000000;stroke-linecap:square;stroke-linejoin:miter;stroke-width:0.8;"/>
   </g>
   <g id="patch_6">
    <path d="M 57.6 41.472 
L 338.688 41.472 
" style="fill:none;stroke:#000000;stroke-linecap:square;stroke-linejoin:miter;stroke-width:0.8;"/>
   </g>
   <g id="text_13">
    <!-- CMA-ES  2 -->
    <defs>
     <path d="M 64.40625 67.28125 
L 64.40625 56.890625 
Q 59.421875 61.53125 53.78125 63.8125 
Q 48.140625 66.109375 41.796875 66.109375 
Q 29.296875 66.109375 22.65625 58.46875 
Q 16.015625 50.828125 16.015625 36.375 
Q 16.015625 21.96875 22.65625 14.328125 
Q 29.296875 6.6875 41.796875 6.6875 
Q 48.140625 6.6875 53.78125 8.984375 
Q 59.421875 11.28125 64.40625 15.921875 
L 64.40625 5.609375 
Q 59.234375 2.09375 53.4375 0.328125 
Q 47.65625 -1.421875 41.21875 -1.421875 
Q 24.65625 -1.421875 15.125 8.703125 
Q 5.609375 18.84375 5.609375 36.375 
Q 5.609375 53.953125 15.125 64.078125 
Q 24.65625 74.21875 41.21875 74.21875 
Q 47.75 74.21875 53.53125 72.484375 
Q 59.328125 70.75 64.40625 67.28125 
z
" id="DejaVuSans-67"/>
     <path d="M 9.8125 72.90625 
L 24.515625 72.90625 
L 43.109375 23.296875 
L 61.8125 72.90625 
L 76.515625 72.90625 
L 76.515625 0 
L 66.890625 0 
L 66.890625 64.015625 
L 48.09375 14.015625 
L 38.1875 14.015625 
L 19.390625 64.015625 
L 19.390625 0 
L 9.8125 0 
z
" id="DejaVuSans-77"/>
     <path d="M 34.1875 63.1875 
L 20.796875 26.90625 
L 47.609375 26.90625 
z
M 28.609375 72.90625 
L 39.796875 72.90625 
L 67.578125 0 
L 57.328125 0 
L 50.6875 18.703125 
L 17.828125 18.703125 
L 11.1875 0 
L 0.78125 0 
z
" id="DejaVuSans-65"/>
     <path d="M 9.8125 72.90625 
L 55.90625 72.90625 
L 55.90625 64.59375 
L 19.671875 64.59375 
L 19.671875 43.015625 
L 54.390625 43.015625 
L 54.390625 34.71875 
L 19.671875 34.71875 
L 19.671875 8.296875 
L 56.78125 8.296875 
L 56.78125 0 
L 9.8125 0 
z
" id="DejaVuSans-69"/>
     <path d="M 53.515625 70.515625 
L 53.515625 60.890625 
Q 47.90625 63.578125 42.921875 64.890625 
Q 37.9375 66.21875 33.296875 66.21875 
Q 25.25 66.21875 20.875 63.09375 
Q 16.5 59.96875 16.5 54.203125 
Q 16.5 49.359375 19.40625 46.890625 
Q 22.3125 44.4375 30.421875 42.921875 
L 36.375 41.703125 
Q 47.40625 39.59375 52.65625 34.296875 
Q 57.90625 29 57.90625 20.125 
Q 57.90625 9.515625 50.796875 4.046875 
Q 43.703125 -1.421875 29.984375 -1.421875 
Q 24.8125 -1.421875 18.96875 -0.25 
Q 13.140625 0.921875 6.890625 3.21875 
L 6.890625 13.375 
Q 12.890625 10.015625 18.65625 8.296875 
Q 24.421875 6.59375 29.984375 6.59375 
Q 38.421875 6.59375 43.015625 9.90625 
Q 47.609375 13.234375 47.609375 19.390625 
Q 47.609375 24.75 44.3125 27.78125 
Q 41.015625 30.8125 33.5 32.328125 
L 27.484375 33.5 
Q 16.453125 35.6875 11.515625 40.375 
Q 6.59375 45.0625 6.59375 53.421875 
Q 6.59375 63.09375 13.40625 68.65625 
Q 20.21875 74.21875 32.171875 74.21875 
Q 37.3125 74.21875 42.625 73.28125 
Q 47.953125 72.359375 53.515625 70.515625 
z
" id="DejaVuSans-83"/>
    </defs>
    <g transform="translate(375.22944 298.536482)scale(0.17 -0.17)">
     <use xlink:href="#DejaVuSans-67"/>
     <use x="69.824219" xlink:href="#DejaVuSans-77"/>
     <use x="156.103516" xlink:href="#DejaVuSans-65"/>
     <use x="224.480469" xlink:href="#DejaVuSans-45"/>
     <use x="260.564453" xlink:href="#DejaVuSans-69"/>
     <use x="323.748047" xlink:href="#DejaVuSans-83"/>
     <use x="387.224609" xlink:href="#DejaVuSans-32"/>
     <use x="419.011719" xlink:href="#DejaVuSans-32"/>
     <use x="450.798828" xlink:href="#DejaVuSans-50"/>
    </g>
   </g>
   <g id="text_14">
    <!-- lq-CMA-ES -->
    <defs>
     <path d="M 14.796875 27.296875 
Q 14.796875 17.390625 18.875 11.75 
Q 22.953125 6.109375 30.078125 6.109375 
Q 37.203125 6.109375 41.296875 11.75 
Q 45.40625 17.390625 45.40625 27.296875 
Q 45.40625 37.203125 41.296875 42.84375 
Q 37.203125 48.484375 30.078125 48.484375 
Q 22.953125 48.484375 18.875 42.84375 
Q 14.796875 37.203125 14.796875 27.296875 
z
M 45.40625 8.203125 
Q 42.578125 3.328125 38.25 0.953125 
Q 33.9375 -1.421875 27.875 -1.421875 
Q 17.96875 -1.421875 11.734375 6.484375 
Q 5.515625 14.40625 5.515625 27.296875 
Q 5.515625 40.1875 11.734375 48.09375 
Q 17.96875 56 27.875 56 
Q 33.9375 56 38.25 53.625 
Q 42.578125 51.265625 45.40625 46.390625 
L 45.40625 54.6875 
L 54.390625 54.6875 
L 54.390625 -20.796875 
L 45.40625 -20.796875 
z
" id="DejaVuSans-113"/>
    </defs>
    <g transform="translate(375.22944 176.173551)scale(0.17 -0.17)">
     <use xlink:href="#DejaVuSans-108"/>
     <use x="27.783203" xlink:href="#DejaVuSans-113"/>
     <use x="91.259766" xlink:href="#DejaVuSans-45"/>
     <use x="127.34375" xlink:href="#DejaVuSans-67"/>
     <use x="197.167969" xlink:href="#DejaVuSans-77"/>
     <use x="283.447266" xlink:href="#DejaVuSans-65"/>
     <use x="351.824219" xlink:href="#DejaVuSans-45"/>
     <use x="387.908203" xlink:href="#DejaVuSans-69"/>
     <use x="451.091797" xlink:href="#DejaVuSans-83"/>
    </g>
   </g>
   <g id="text_15">
    <!-- best 2009 -->
    <defs>
     <path d="M 48.6875 27.296875 
Q 48.6875 37.203125 44.609375 42.84375 
Q 40.53125 48.484375 33.40625 48.484375 
Q 26.265625 48.484375 22.1875 42.84375 
Q 18.109375 37.203125 18.109375 27.296875 
Q 18.109375 17.390625 22.1875 11.75 
Q 26.265625 6.109375 33.40625 6.109375 
Q 40.53125 6.109375 44.609375 11.75 
Q 48.6875 17.390625 48.6875 27.296875 
z
M 18.109375 46.390625 
Q 20.953125 51.265625 25.265625 53.625 
Q 29.59375 56 35.59375 56 
Q 45.5625 56 51.78125 48.09375 
Q 58.015625 40.1875 58.015625 27.296875 
Q 58.015625 14.40625 51.78125 6.484375 
Q 45.5625 -1.421875 35.59375 -1.421875 
Q 29.59375 -1.421875 25.265625 0.953125 
Q 20.953125 3.328125 18.109375 8.203125 
L 18.109375 0 
L 9.078125 0 
L 9.078125 75.984375 
L 18.109375 75.984375 
z
" id="DejaVuSans-98"/>
     <path d="M 10.984375 1.515625 
L 10.984375 10.5 
Q 14.703125 8.734375 18.5 7.8125 
Q 22.3125 6.890625 25.984375 6.890625 
Q 35.75 6.890625 40.890625 13.453125 
Q 46.046875 20.015625 46.78125 33.40625 
Q 43.953125 29.203125 39.59375 26.953125 
Q 35.25 24.703125 29.984375 24.703125 
Q 19.046875 24.703125 12.671875 31.3125 
Q 6.296875 37.9375 6.296875 49.421875 
Q 6.296875 60.640625 12.9375 67.421875 
Q 19.578125 74.21875 30.609375 74.21875 
Q 43.265625 74.21875 49.921875 64.515625 
Q 56.59375 54.828125 56.59375 36.375 
Q 56.59375 19.140625 48.40625 8.859375 
Q 40.234375 -1.421875 26.421875 -1.421875 
Q 22.703125 -1.421875 18.890625 -0.6875 
Q 15.09375 0.046875 10.984375 1.515625 
z
M 30.609375 32.421875 
Q 37.25 32.421875 41.125 36.953125 
Q 45.015625 41.5 45.015625 49.421875 
Q 45.015625 57.28125 41.125 61.84375 
Q 37.25 66.40625 30.609375 66.40625 
Q 23.96875 66.40625 20.09375 61.84375 
Q 16.21875 57.28125 16.21875 49.421875 
Q 16.21875 41.5 20.09375 36.953125 
Q 23.96875 32.421875 30.609375 32.421875 
z
" id="DejaVuSans-57"/>
    </defs>
    <g transform="translate(375.22944 53.810621)scale(0.17 -0.17)">
     <use xlink:href="#DejaVuSans-98"/>
     <use x="63.476562" xlink:href="#DejaVuSans-101"/>
     <use x="125" xlink:href="#DejaVuSans-115"/>
     <use x="177.099609" xlink:href="#DejaVuSans-116"/>
     <use x="216.308594" xlink:href="#DejaVuSans-32"/>
     <use x="248.095703" xlink:href="#DejaVuSans-50"/>
     <use x="311.71875" xlink:href="#DejaVuSans-48"/>
     <use x="375.341797" xlink:href="#DejaVuSans-48"/>
     <use x="438.964844" xlink:href="#DejaVuSans-57"/>
    </g>
   </g>
   <g id="text_16">
    <!-- bbob f10-f14, 2-D -->
    <defs>
     <path d="M 19.671875 64.796875 
L 19.671875 8.109375 
L 31.59375 8.109375 
Q 46.6875 8.109375 53.6875 14.9375 
Q 60.6875 21.78125 60.6875 36.53125 
Q 60.6875 51.171875 53.6875 57.984375 
Q 46.6875 64.796875 31.59375 64.796875 
z
M 9.8125 72.90625 
L 30.078125 72.90625 
Q 51.265625 72.90625 61.171875 64.09375 
Q 71.09375 55.28125 71.09375 36.53125 
Q 71.09375 17.671875 61.125 8.828125 
Q 51.171875 0 30.078125 0 
L 9.8125 0 
z
" id="DejaVuSans-68"/>
    </defs>
    <g transform="translate(60.41088 51.797126)scale(0.102 -0.102)">
     <use xlink:href="#DejaVuSans-98"/>
     <use x="63.476562" xlink:href="#DejaVuSans-98"/>
     <use x="126.953125" xlink:href="#DejaVuSans-111"/>
     <use x="188.134766" xlink:href="#DejaVuSans-98"/>
     <use x="251.611328" xlink:href="#DejaVuSans-32"/>
     <use x="283.398438" xlink:href="#DejaVuSans-102"/>
     <use x="318.603516" xlink:href="#DejaVuSans-49"/>
     <use x="382.226562" xlink:href="#DejaVuSans-48"/>
     <use x="445.849609" xlink:href="#DejaVuSans-45"/>
     <use x="481.933594" xlink:href="#DejaVuSans-102"/>
     <use x="517.138672" xlink:href="#DejaVuSans-49"/>
     <use x="580.761719" xlink:href="#DejaVuSans-52"/>
     <use x="644.384766" xlink:href="#DejaVuSans-44"/>
     <use x="676.171875" xlink:href="#DejaVuSans-32"/>
     <use x="707.958984" xlink:href="#DejaVuSans-50"/>
     <use x="771.582031" xlink:href="#DejaVuSans-45"/>
     <use x="807.666016" xlink:href="#DejaVuSans-68"/>
    </g>
    <!-- 51 targets: 100..1e-08 -->
    <defs>
     <path d="M 10.796875 72.90625 
L 49.515625 72.90625 
L 49.515625 64.59375 
L 19.828125 64.59375 
L 19.828125 46.734375 
Q 21.96875 47.46875 24.109375 47.828125 
Q 26.265625 48.1875 28.421875 48.1875 
Q 40.625 48.1875 47.75 41.5 
Q 54.890625 34.8125 54.890625 23.390625 
Q 54.890625 11.625 47.5625 5.09375 
Q 40.234375 -1.421875 26.90625 -1.421875 
Q 22.3125 -1.421875 17.546875 -0.640625 
Q 12.796875 0.140625 7.71875 1.703125 
L 7.71875 11.625 
Q 12.109375 9.234375 16.796875 8.0625 
Q 21.484375 6.890625 26.703125 6.890625 
Q 35.15625 6.890625 40.078125 11.328125 
Q 45.015625 15.765625 45.015625 23.390625 
Q 45.015625 31 40.078125 35.4375 
Q 35.15625 39.890625 26.703125 39.890625 
Q 22.75 39.890625 18.8125 39.015625 
Q 14.890625 38.140625 10.796875 36.28125 
z
" id="DejaVuSans-53"/>
     <path d="M 11.71875 12.40625 
L 22.015625 12.40625 
L 22.015625 0 
L 11.71875 0 
z
M 11.71875 51.703125 
L 22.015625 51.703125 
L 22.015625 39.3125 
L 11.71875 39.3125 
z
" id="DejaVuSans-58"/>
    </defs>
    <g transform="translate(60.41088 63.218895)scale(0.102 -0.102)">
     <use xlink:href="#DejaVuSans-53"/>
     <use x="63.623047" xlink:href="#DejaVuSans-49"/>
     <use x="127.246094" xlink:href="#DejaVuSans-32"/>
     <use x="159.033203" xlink:href="#DejaVuSans-116"/>
     <use x="198.242188" xlink:href="#DejaVuSans-97"/>
     <use x="259.521484" xlink:href="#DejaVuSans-114"/>
     <use x="300.619141" xlink:href="#DejaVuSans-103"/>
     <use x="364.095703" xlink:href="#DejaVuSans-101"/>
     <use x="425.619141" xlink:href="#DejaVuSans-116"/>
     <use x="464.828125" xlink:href="#DejaVuSans-115"/>
     <use x="516.927734" xlink:href="#DejaVuSans-58"/>
     <use x="550.619141" xlink:href="#DejaVuSans-32"/>
     <use x="582.40625" xlink:href="#DejaVuSans-49"/>
     <use x="646.029297" xlink:href="#DejaVuSans-48"/>
     <use x="709.652344" xlink:href="#DejaVuSans-48"/>
     <use x="773.275391" xlink:href="#DejaVuSans-46"/>
     <use x="805.0625" xlink:href="#DejaVuSans-46"/>
     <use x="836.849609" xlink:href="#DejaVuSans-49"/>
     <use x="900.472656" xlink:href="#DejaVuSans-101"/>
     <use x="961.996094" xlink:href="#DejaVuSans-45"/>
     <use x="998.080078" xlink:href="#DejaVuSans-48"/>
     <use x="1061.703125" xlink:href="#DejaVuSans-56"/>
    </g>
    <!-- 15 instances -->
    <g transform="translate(60.41088 74.640664)scale(0.102 -0.102)">
     <use xlink:href="#DejaVuSans-49"/>
     <use x="63.623047" xlink:href="#DejaVuSans-53"/>
     <use x="127.246094" xlink:href="#DejaVuSans-32"/>
     <use x="159.033203" xlink:href="#DejaVuSans-105"/>
     <use x="186.816406" xlink:href="#DejaVuSans-110"/>
     <use x="250.195312" xlink:href="#DejaVuSans-115"/>
     <use x="302.294922" xlink:href="#DejaVuSans-116"/>
     <use x="341.503906" xlink:href="#DejaVuSans-97"/>
     <use x="402.783203" xlink:href="#DejaVuSans-110"/>
     <use x="466.162109" xlink:href="#DejaVuSans-99"/>
     <use x="521.142578" xlink:href="#DejaVuSans-101"/>
     <use x="582.666016" xlink:href="#DejaVuSans-115"/>
    </g>
   </g>
   <g id="text_17">
    <!-- v2.3.1.30 -->
    <defs>
     <path d="M 40.578125 39.3125 
Q 47.65625 37.796875 51.625 33 
Q 55.609375 28.21875 55.609375 21.1875 
Q 55.609375 10.40625 48.1875 4.484375 
Q 40.765625 -1.421875 27.09375 -1.421875 
Q 22.515625 -1.421875 17.65625 -0.515625 
Q 12.796875 0.390625 7.625 2.203125 
L 7.625 11.71875 
Q 11.71875 9.328125 16.59375 8.109375 
Q 21.484375 6.890625 26.8125 6.890625 
Q 36.078125 6.890625 40.9375 10.546875 
Q 45.796875 14.203125 45.796875 21.1875 
Q 45.796875 27.640625 41.28125 31.265625 
Q 36.765625 34.90625 28.71875 34.90625 
L 20.21875 34.90625 
L 20.21875 43.015625 
L 29.109375 43.015625 
Q 36.375 43.015625 40.234375 45.921875 
Q 44.09375 48.828125 44.09375 54.296875 
Q 44.09375 59.90625 40.109375 62.90625 
Q 36.140625 65.921875 28.71875 65.921875 
Q 24.65625 65.921875 20.015625 65.03125 
Q 15.375 64.15625 9.8125 62.3125 
L 9.8125 71.09375 
Q 15.4375 72.65625 20.34375 73.4375 
Q 25.25 74.21875 29.59375 74.21875 
Q 40.828125 74.21875 47.359375 69.109375 
Q 53.90625 64.015625 53.90625 55.328125 
Q 53.90625 49.265625 50.4375 45.09375 
Q 46.96875 40.921875 40.578125 39.3125 
z
" id="DejaVuSans-51"/>
    </defs>
    <g style="fill:#808080;" transform="translate(174.511187 294.289592)scale(0.1 -0.1)">
     <use xlink:href="#DejaVuSans-118"/>
     <use x="59.179688" xlink:href="#DejaVuSans-50"/>
     <use x="122.802734" xlink:href="#DejaVuSans-46"/>
     <use x="154.589844" xlink:href="#DejaVuSans-51"/>
     <use x="218.212891" xlink:href="#DejaVuSans-46"/>
     <use x="250" xlink:href="#DejaVuSans-49"/>
     <use x="313.623047" xlink:href="#DejaVuSans-46"/>
     <use x="345.410156" xlink:href="#DejaVuSans-51"/>
     <use x="409.033203" xlink:href="#DejaVuSans-48"/>
    </g>
   </g>
  </g>
 </g>
 <defs>
  <clipPath id="p93942daf6a">
   <rect height="257.472" width="281.088" x="57.6" y="41.472"/>
  </clipPath>
 </defs>
</svg>
