<?xml version="1.0" encoding="utf-8" standalone="no"?>
<!DOCTYPE svg PUBLIC "-//W3C//DTD SVG 1.1//EN"
  "http://www.w3.org/Graphics/SVG/1.1/DTD/svg11.dtd">
<!-- Created with matplotlib (https://matplotlib.org/) -->
<svg height="345.6pt" version="1.1" viewBox="0 0 460.8 345.6" width="460.8pt" xmlns="http://www.w3.org/2000/svg" xmlns:xlink="http://www.w3.org/1999/xlink">
 <defs>
  <style type="text/css">
*{stroke-linecap:butt;stroke-linejoin:round;}
  </style>
 </defs>
 <g id="figure_1">
  <g id="patch_1">
   <path d="M 0 345.6 
L 460.8 345.6 
L 460.8 0 
L 0 0 
z
" style="fill:#ffffff;"/>
  </g>
  <g id="axes_1">
   <g id="patch_2">
    <path d="M 57.6 298.944 
L 338.688 298.944 
L 338.688 41.472 
L 57.6 41.472 
z
" style="fill:#ffffff;"/>
   </g>
   <g id="line2d_1">
    <path d="M 117.245527 298.944 
L 117.245527 293.945514 
L 117.903163 293.945514 
L 117.903163 288.947029 
L 129.567223 288.947029 
L 129.567223 283.948543 
L 131.332025 283.948543 
L 131.332025 278.950057 
L 135.194218 278.950057 
L 135.194218 273.951571 
L 138.632527 273.951571 
L 138.632527 268.953086 
L 142.133981 268.953086 
L 142.133981 263.9546 
L 143.483476 263.9546 
L 143.483476 258.956114 
L 145.61548 258.956114 
L 145.61548 253.957628 
L 147.238848 253.957628 
L 147.238848 248.959143 
L 148.76137 248.959143 
L 148.76137 243.960657 
L 150.072806 243.960657 
L 150.072806 238.962171 
L 150.872533 238.962171 
L 150.872533 233.963685 
L 151.497722 233.963685 
L 151.497722 228.9652 
L 152.045145 228.9652 
L 152.045145 223.966714 
L 152.386839 223.966714 
L 152.386839 218.968228 
L 153.27261 218.968228 
L 153.27261 213.969743 
L 154.11728 213.969743 
L 154.11728 208.971257 
L 154.498668 208.971257 
L 154.498668 203.972771 
L 154.848799 203.972771 
L 154.848799 198.974285 
L 155.153151 198.974285 
L 155.153151 193.9758 
L 155.433138 193.9758 
L 155.433138 188.977314 
L 155.798033 188.977314 
L 155.798033 183.978828 
L 157.010179 183.978828 
L 157.010179 178.980342 
L 157.279327 178.980342 
L 157.279327 173.981857 
L 158.660518 173.981857 
L 158.660518 168.983371 
L 165.417421 168.983371 
L 165.417421 163.984885 
L 165.803907 163.984885 
L 165.803907 158.9864 
L 166.179429 158.9864 
L 166.179429 153.987914 
L 166.536903 153.987914 
L 166.536903 148.989428 
L 166.86815 148.989428 
L 166.86815 143.990942 
L 167.181018 143.990942 
L 167.181018 138.992457 
L 167.457159 138.992457 
L 167.457159 133.993971 
L 167.733726 133.993971 
L 167.733726 128.995485 
L 167.979563 128.995485 
L 167.979563 123.996999 
L 168.231181 123.996999 
L 168.231181 118.998514 
L 168.430803 118.998514 
L 168.430803 114.000028 
L 168.628915 114.000028 
L 168.628915 109.001542 
L 168.839608 109.001542 
L 168.839608 104.003056 
L 169.045591 104.003056 
L 169.045591 99.004571 
L 169.239048 99.004571 
L 169.239048 94.006085 
L 169.40461 94.006085 
L 169.40461 89.007599 
L 169.563646 89.007599 
L 169.563646 84.009114 
L 169.714208 84.009114 
L 169.714208 79.010628 
L 169.873248 79.010628 
L 169.873248 74.012142 
L 170.003182 74.012142 
L 170.003182 69.013656 
L 170.12872 69.013656 
L 170.12872 64.015171 
L 170.251995 64.015171 
L 170.251995 59.016685 
L 170.386599 59.016685 
L 170.386599 54.018199 
L 170.560447 54.018199 
L 170.560447 49.019713 
L 171.193164 49.019713 
L 171.193164 44.021228 
L 338.688 44.021228 
" style="fill:none;stroke:#faf0e6;stroke-linecap:square;stroke-width:4;"/>
   </g>
   <g id="line2d_2">
    <defs>
     <path d="M -0 7.778175 
L 7.778175 0 
L 0 -7.778175 
L -7.778175 -0 
z
" id="m19fec286a4" style="stroke:#faf0e6;stroke-linejoin:miter;stroke-width:1.5;"/>
    </defs>
    <g>
     <use style="fill:#faf0e6;stroke:#faf0e6;stroke-linejoin:miter;stroke-width:1.5;" x="153.27261" xlink:href="#m19fec286a4" y="218.968228"/>
     <use style="fill:#faf0e6;stroke:#faf0e6;stroke-linejoin:miter;stroke-width:1.5;" x="169.40461" xlink:href="#m19fec286a4" y="89.007599"/>
     <use style="fill:#faf0e6;stroke:#faf0e6;stroke-linejoin:miter;stroke-width:1.5;" x="171.193164" xlink:href="#m19fec286a4" y="49.019713"/>
     <use style="fill:#faf0e6;stroke:#faf0e6;stroke-linejoin:miter;stroke-width:1.5;" x="171.193164" xlink:href="#m19fec286a4" y="44.021228"/>
     <use style="fill:#faf0e6;stroke:#faf0e6;stroke-linejoin:miter;stroke-width:1.5;" x="338.688" xlink:href="#m19fec286a4" y="44.021228"/>
    </g>
   </g>
   <g id="line2d_3">
    <path style="fill:none;stroke:#faf0e6;stroke-linecap:square;stroke-width:4;"/>
    <g/>
   </g>
   <g id="line2d_4">
    <path d="M 338.688 44.021228 
L 369.60768 49.119683 
" style="fill:none;stroke:#faf0e6;stroke-linecap:square;stroke-width:4;"/>
    <g>
     <use style="fill:#faf0e6;stroke:#faf0e6;stroke-linejoin:miter;stroke-width:1.5;" x="338.688" xlink:href="#m19fec286a4" y="44.021228"/>
     <use style="fill:#faf0e6;stroke:#faf0e6;stroke-linejoin:miter;stroke-width:1.5;" x="369.60768" xlink:href="#m19fec286a4" y="49.119683"/>
    </g>
   </g>
   <g id="matplotlib.axis_1">
    <g id="xtick_1">
     <g id="line2d_5">
      <path clip-path="url(#p7560676e97)" d="M 57.6 298.944 
L 57.6 41.472 
" style="fill:none;stroke:#b0b0b0;stroke-linecap:square;stroke-width:0.8;"/>
     </g>
     <g id="line2d_6">
      <defs>
       <path d="M 0 0 
L 0 3.5 
" id="meb2e19a45f" style="stroke:#000000;stroke-width:0.8;"/>
      </defs>
      <g>
       <use style="stroke:#000000;stroke-width:0.8;" x="57.6" xlink:href="#meb2e19a45f" y="298.944"/>
      </g>
     </g>
     <g id="text_1">
      <!-- 0 -->
      <defs>
       <path d="M 31.78125 66.40625 
Q 24.171875 66.40625 20.328125 58.90625 
Q 16.5 51.421875 16.5 36.375 
Q 16.5 21.390625 20.328125 13.890625 
Q 24.171875 6.390625 31.78125 6.390625 
Q 39.453125 6.390625 43.28125 13.890625 
Q 47.125 21.390625 47.125 36.375 
Q 47.125 51.421875 43.28125 58.90625 
Q 39.453125 66.40625 31.78125 66.40625 
z
M 31.78125 74.21875 
Q 44.046875 74.21875 50.515625 64.515625 
Q 56.984375 54.828125 56.984375 36.375 
Q 56.984375 17.96875 50.515625 8.265625 
Q 44.046875 -1.421875 31.78125 -1.421875 
Q 19.53125 -1.421875 13.0625 8.265625 
Q 6.59375 17.96875 6.59375 36.375 
Q 6.59375 54.828125 13.0625 64.515625 
Q 19.53125 74.21875 31.78125 74.21875 
z
" id="DejaVuSans-48"/>
      </defs>
      <g transform="translate(51.2375 321.140875)scale(0.2 -0.2)">
       <use xlink:href="#DejaVuSans-48"/>
      </g>
     </g>
    </g>
    <g id="xtick_2">
     <g id="line2d_7">
      <path clip-path="url(#p7560676e97)" d="M 137.910857 298.944 
L 137.910857 41.472 
" style="fill:none;stroke:#b0b0b0;stroke-linecap:square;stroke-width:0.8;"/>
     </g>
     <g id="line2d_8">
      <g>
       <use style="stroke:#000000;stroke-width:0.8;" x="137.910857" xlink:href="#meb2e19a45f" y="298.944"/>
      </g>
     </g>
     <g id="text_2">
      <!-- 2 -->
      <defs>
       <path d="M 19.1875 8.296875 
L 53.609375 8.296875 
L 53.609375 0 
L 7.328125 0 
L 7.328125 8.296875 
Q 12.9375 14.109375 22.625 23.890625 
Q 32.328125 33.6875 34.8125 36.53125 
Q 39.546875 41.84375 41.421875 45.53125 
Q 43.3125 49.21875 43.3125 52.78125 
Q 43.3125 58.59375 39.234375 62.25 
Q 35.15625 65.921875 28.609375 65.921875 
Q 23.96875 65.921875 18.8125 64.3125 
Q 13.671875 62.703125 7.8125 59.421875 
L 7.8125 69.390625 
Q 13.765625 71.78125 18.9375 73 
Q 24.125 74.21875 28.421875 74.21875 
Q 39.75 74.21875 46.484375 68.546875 
Q 53.21875 62.890625 53.21875 53.421875 
Q 53.21875 48.921875 51.53125 44.890625 
Q 49.859375 40.875 45.40625 35.40625 
Q 44.1875 33.984375 37.640625 27.21875 
Q 31.109375 20.453125 19.1875 8.296875 
z
" id="DejaVuSans-50"/>
      </defs>
      <g transform="translate(131.548357 321.140875)scale(0.2 -0.2)">
       <use xlink:href="#DejaVuSans-50"/>
      </g>
     </g>
    </g>
    <g id="xtick_3">
     <g id="line2d_9">
      <path clip-path="url(#p7560676e97)" d="M 218.221714 298.944 
L 218.221714 41.472 
" style="fill:none;stroke:#b0b0b0;stroke-linecap:square;stroke-width:0.8;"/>
     </g>
     <g id="line2d_10">
      <g>
       <use style="stroke:#000000;stroke-width:0.8;" x="218.221714" xlink:href="#meb2e19a45f" y="298.944"/>
      </g>
     </g>
     <g id="text_3">
      <!-- 4 -->
      <defs>
       <path d="M 37.796875 64.3125 
L 12.890625 25.390625 
L 37.796875 25.390625 
z
M 35.203125 72.90625 
L 47.609375 72.90625 
L 47.609375 25.390625 
L 58.015625 25.390625 
L 58.015625 17.1875 
L 47.609375 17.1875 
L 47.609375 0 
L 37.796875 0 
L 37.796875 17.1875 
L 4.890625 17.1875 
L 4.890625 26.703125 
z
" id="DejaVuSans-52"/>
      </defs>
      <g transform="translate(211.859214 321.140875)scale(0.2 -0.2)">
       <use xlink:href="#DejaVuSans-52"/>
      </g>
     </g>
    </g>
    <g id="xtick_4">
     <g id="line2d_11">
      <path clip-path="url(#p7560676e97)" d="M 298.532571 298.944 
L 298.532571 41.472 
" style="fill:none;stroke:#b0b0b0;stroke-linecap:square;stroke-width:0.8;"/>
     </g>
     <g id="line2d_12">
      <g>
       <use style="stroke:#000000;stroke-width:0.8;" x="298.532571" xlink:href="#meb2e19a45f" y="298.944"/>
      </g>
     </g>
     <g id="text_4">
      <!-- 6 -->
      <defs>
       <path d="M 33.015625 40.375 
Q 26.375 40.375 22.484375 35.828125 
Q 18.609375 31.296875 18.609375 23.390625 
Q 18.609375 15.53125 22.484375 10.953125 
Q 26.375 6.390625 33.015625 6.390625 
Q 39.65625 6.390625 43.53125 10.953125 
Q 47.40625 15.53125 47.40625 23.390625 
Q 47.40625 31.296875 43.53125 35.828125 
Q 39.65625 40.375 33.015625 40.375 
z
M 52.59375 71.296875 
L 52.59375 62.3125 
Q 48.875 64.0625 45.09375 64.984375 
Q 41.3125 65.921875 37.59375 65.921875 
Q 27.828125 65.921875 22.671875 59.328125 
Q 17.53125 52.734375 16.796875 39.40625 
Q 19.671875 43.65625 24.015625 45.921875 
Q 28.375 48.1875 33.59375 48.1875 
Q 44.578125 48.1875 50.953125 41.515625 
Q 57.328125 34.859375 57.328125 23.390625 
Q 57.328125 12.15625 50.6875 5.359375 
Q 44.046875 -1.421875 33.015625 -1.421875 
Q 20.359375 -1.421875 13.671875 8.265625 
Q 6.984375 17.96875 6.984375 36.375 
Q 6.984375 53.65625 15.1875 63.9375 
Q 23.390625 74.21875 37.203125 74.21875 
Q 40.921875 74.21875 44.703125 73.484375 
Q 48.484375 72.75 52.59375 71.296875 
z
" id="DejaVuSans-54"/>
      </defs>
      <g transform="translate(292.170071 321.140875)scale(0.2 -0.2)">
       <use xlink:href="#DejaVuSans-54"/>
      </g>
     </g>
    </g>
    <g id="xtick_5">
     <g id="line2d_13">
      <path clip-path="url(#p7560676e97)" d="M 57.6 298.944 
L 57.6 41.472 
" style="fill:none;stroke:#b0b0b0;stroke-linecap:square;stroke-width:0.8;"/>
     </g>
     <g id="line2d_14">
      <defs>
       <path d="M 0 0 
L 0 2 
" id="mce9b859113" style="stroke:#000000;stroke-width:0.6;"/>
      </defs>
      <g>
       <use style="stroke:#000000;stroke-width:0.6;" x="57.6" xlink:href="#mce9b859113" y="298.944"/>
      </g>
     </g>
    </g>
    <g id="xtick_6">
     <g id="line2d_15">
      <path clip-path="url(#p7560676e97)" d="M 97.755429 298.944 
L 97.755429 41.472 
" style="fill:none;stroke:#b0b0b0;stroke-linecap:square;stroke-width:0.8;"/>
     </g>
     <g id="line2d_16">
      <g>
       <use style="stroke:#000000;stroke-width:0.6;" x="97.755429" xlink:href="#mce9b859113" y="298.944"/>
      </g>
     </g>
    </g>
    <g id="xtick_7">
     <g id="line2d_17">
      <path clip-path="url(#p7560676e97)" d="M 137.910857 298.944 
L 137.910857 41.472 
" style="fill:none;stroke:#b0b0b0;stroke-linecap:square;stroke-width:0.8;"/>
     </g>
     <g id="line2d_18">
      <g>
       <use style="stroke:#000000;stroke-width:0.6;" x="137.910857" xlink:href="#mce9b859113" y="298.944"/>
      </g>
     </g>
    </g>
    <g id="xtick_8">
     <g id="line2d_19">
      <path clip-path="url(#p7560676e97)" d="M 178.066286 298.944 
L 178.066286 41.472 
" style="fill:none;stroke:#b0b0b0;stroke-linecap:square;stroke-width:0.8;"/>
     </g>
     <g id="line2d_20">
      <g>
       <use style="stroke:#000000;stroke-width:0.6;" x="178.066286" xlink:href="#mce9b859113" y="298.944"/>
      </g>
     </g>
    </g>
    <g id="xtick_9">
     <g id="line2d_21">
      <path clip-path="url(#p7560676e97)" d="M 218.221714 298.944 
L 218.221714 41.472 
" style="fill:none;stroke:#b0b0b0;stroke-linecap:square;stroke-width:0.8;"/>
     </g>
     <g id="line2d_22">
      <g>
       <use style="stroke:#000000;stroke-width:0.6;" x="218.221714" xlink:href="#mce9b859113" y="298.944"/>
      </g>
     </g>
    </g>
    <g id="xtick_10">
     <g id="line2d_23">
      <path clip-path="url(#p7560676e97)" d="M 258.377143 298.944 
L 258.377143 41.472 
" style="fill:none;stroke:#b0b0b0;stroke-linecap:square;stroke-width:0.8;"/>
     </g>
     <g id="line2d_24">
      <g>
       <use style="stroke:#000000;stroke-width:0.6;" x="258.377143" xlink:href="#mce9b859113" y="298.944"/>
      </g>
     </g>
    </g>
    <g id="xtick_11">
     <g id="line2d_25">
      <path clip-path="url(#p7560676e97)" d="M 298.532571 298.944 
L 298.532571 41.472 
" style="fill:none;stroke:#b0b0b0;stroke-linecap:square;stroke-width:0.8;"/>
     </g>
     <g id="line2d_26">
      <g>
       <use style="stroke:#000000;stroke-width:0.6;" x="298.532571" xlink:href="#mce9b859113" y="298.944"/>
      </g>
     </g>
    </g>
    <g id="xtick_12">
     <g id="line2d_27">
      <path clip-path="url(#p7560676e97)" d="M 338.688 298.944 
L 338.688 41.472 
" style="fill:none;stroke:#b0b0b0;stroke-linecap:square;stroke-width:0.8;"/>
     </g>
     <g id="line2d_28">
      <g>
       <use style="stroke:#000000;stroke-width:0.6;" x="338.688" xlink:href="#mce9b859113" y="298.944"/>
      </g>
     </g>
    </g>
    <g id="text_5">
     <!-- log10(# f-evals / dimension) -->
     <defs>
      <path d="M 9.421875 75.984375 
L 18.40625 75.984375 
L 18.40625 0 
L 9.421875 0 
z
" id="DejaVuSans-108"/>
      <path d="M 30.609375 48.390625 
Q 23.390625 48.390625 19.1875 42.75 
Q 14.984375 37.109375 14.984375 27.296875 
Q 14.984375 17.484375 19.15625 11.84375 
Q 23.34375 6.203125 30.609375 6.203125 
Q 37.796875 6.203125 41.984375 11.859375 
Q 46.1875 17.53125 46.1875 27.296875 
Q 46.1875 37.015625 41.984375 42.703125 
Q 37.796875 48.390625 30.609375 48.390625 
z
M 30.609375 56 
Q 42.328125 56 49.015625 48.375 
Q 55.71875 40.765625 55.71875 27.296875 
Q 55.71875 13.875 49.015625 6.21875 
Q 42.328125 -1.421875 30.609375 -1.421875 
Q 18.84375 -1.421875 12.171875 6.21875 
Q 5.515625 13.875 5.515625 27.296875 
Q 5.515625 40.765625 12.171875 48.375 
Q 18.84375 56 30.609375 56 
z
" id="DejaVuSans-111"/>
      <path d="M 45.40625 27.984375 
Q 45.40625 37.75 41.375 43.109375 
Q 37.359375 48.484375 30.078125 48.484375 
Q 22.859375 48.484375 18.828125 43.109375 
Q 14.796875 37.75 14.796875 27.984375 
Q 14.796875 18.265625 18.828125 12.890625 
Q 22.859375 7.515625 30.078125 7.515625 
Q 37.359375 7.515625 41.375 12.890625 
Q 45.40625 18.265625 45.40625 27.984375 
z
M 54.390625 6.78125 
Q 54.390625 -7.171875 48.1875 -13.984375 
Q 42 -20.796875 29.203125 -20.796875 
Q 24.46875 -20.796875 20.265625 -20.09375 
Q 16.0625 -19.390625 12.109375 -17.921875 
L 12.109375 -9.1875 
Q 16.0625 -11.328125 19.921875 -12.34375 
Q 23.78125 -13.375 27.78125 -13.375 
Q 36.625 -13.375 41.015625 -8.765625 
Q 45.40625 -4.15625 45.40625 5.171875 
L 45.40625 9.625 
Q 42.625 4.78125 38.28125 2.390625 
Q 33.9375 0 27.875 0 
Q 17.828125 0 11.671875 7.65625 
Q 5.515625 15.328125 5.515625 27.984375 
Q 5.515625 40.671875 11.671875 48.328125 
Q 17.828125 56 27.875 56 
Q 33.9375 56 38.28125 53.609375 
Q 42.625 51.21875 45.40625 46.390625 
L 45.40625 54.6875 
L 54.390625 54.6875 
z
" id="DejaVuSans-103"/>
      <path d="M 12.40625 8.296875 
L 28.515625 8.296875 
L 28.515625 63.921875 
L 10.984375 60.40625 
L 10.984375 69.390625 
L 28.421875 72.90625 
L 38.28125 72.90625 
L 38.28125 8.296875 
L 54.390625 8.296875 
L 54.390625 0 
L 12.40625 0 
z
" id="DejaVuSans-49"/>
      <path d="M 31 75.875 
Q 24.46875 64.65625 21.28125 53.65625 
Q 18.109375 42.671875 18.109375 31.390625 
Q 18.109375 20.125 21.3125 9.0625 
Q 24.515625 -2 31 -13.1875 
L 23.1875 -13.1875 
Q 15.875 -1.703125 12.234375 9.375 
Q 8.59375 20.453125 8.59375 31.390625 
Q 8.59375 42.28125 12.203125 53.3125 
Q 15.828125 64.359375 23.1875 75.875 
z
" id="DejaVuSans-40"/>
      <path d="M 51.125 44 
L 36.921875 44 
L 32.8125 27.6875 
L 47.125 27.6875 
z
M 43.796875 71.78125 
L 38.71875 51.515625 
L 52.984375 51.515625 
L 58.109375 71.78125 
L 65.921875 71.78125 
L 60.890625 51.515625 
L 76.125 51.515625 
L 76.125 44 
L 58.984375 44 
L 54.984375 27.6875 
L 70.515625 27.6875 
L 70.515625 20.21875 
L 53.078125 20.21875 
L 48 0 
L 40.1875 0 
L 45.21875 20.21875 
L 30.90625 20.21875 
L 25.875 0 
L 18.015625 0 
L 23.09375 20.21875 
L 7.71875 20.21875 
L 7.71875 27.6875 
L 24.90625 27.6875 
L 29 44 
L 13.28125 44 
L 13.28125 51.515625 
L 30.90625 51.515625 
L 35.890625 71.78125 
z
" id="DejaVuSans-35"/>
      <path id="DejaVuSans-32"/>
      <path d="M 37.109375 75.984375 
L 37.109375 68.5 
L 28.515625 68.5 
Q 23.6875 68.5 21.796875 66.546875 
Q 19.921875 64.59375 19.921875 59.515625 
L 19.921875 54.6875 
L 34.71875 54.6875 
L 34.71875 47.703125 
L 19.921875 47.703125 
L 19.921875 0 
L 10.890625 0 
L 10.890625 47.703125 
L 2.296875 47.703125 
L 2.296875 54.6875 
L 10.890625 54.6875 
L 10.890625 58.5 
Q 10.890625 67.625 15.140625 71.796875 
Q 19.390625 75.984375 28.609375 75.984375 
z
" id="DejaVuSans-102"/>
      <path d="M 4.890625 31.390625 
L 31.203125 31.390625 
L 31.203125 23.390625 
L 4.890625 23.390625 
z
" id="DejaVuSans-45"/>
      <path d="M 56.203125 29.59375 
L 56.203125 25.203125 
L 14.890625 25.203125 
Q 15.484375 15.921875 20.484375 11.0625 
Q 25.484375 6.203125 34.421875 6.203125 
Q 39.59375 6.203125 44.453125 7.46875 
Q 49.3125 8.734375 54.109375 11.28125 
L 54.109375 2.78125 
Q 49.265625 0.734375 44.1875 -0.34375 
Q 39.109375 -1.421875 33.890625 -1.421875 
Q 20.796875 -1.421875 13.15625 6.1875 
Q 5.515625 13.8125 5.515625 26.8125 
Q 5.515625 40.234375 12.765625 48.109375 
Q 20.015625 56 32.328125 56 
Q 43.359375 56 49.78125 48.890625 
Q 56.203125 41.796875 56.203125 29.59375 
z
M 47.21875 32.234375 
Q 47.125 39.59375 43.09375 43.984375 
Q 39.0625 48.390625 32.421875 48.390625 
Q 24.90625 48.390625 20.390625 44.140625 
Q 15.875 39.890625 15.1875 32.171875 
z
" id="DejaVuSans-101"/>
      <path d="M 2.984375 54.6875 
L 12.5 54.6875 
L 29.59375 8.796875 
L 46.6875 54.6875 
L 56.203125 54.6875 
L 35.6875 0 
L 23.484375 0 
z
" id="DejaVuSans-118"/>
      <path d="M 34.28125 27.484375 
Q 23.390625 27.484375 19.1875 25 
Q 14.984375 22.515625 14.984375 16.5 
Q 14.984375 11.71875 18.140625 8.90625 
Q 21.296875 6.109375 26.703125 6.109375 
Q 34.1875 6.109375 38.703125 11.40625 
Q 43.21875 16.703125 43.21875 25.484375 
L 43.21875 27.484375 
z
M 52.203125 31.203125 
L 52.203125 0 
L 43.21875 0 
L 43.21875 8.296875 
Q 40.140625 3.328125 35.546875 0.953125 
Q 30.953125 -1.421875 24.3125 -1.421875 
Q 15.921875 -1.421875 10.953125 3.296875 
Q 6 8.015625 6 15.921875 
Q 6 25.140625 12.171875 29.828125 
Q 18.359375 34.515625 30.609375 34.515625 
L 43.21875 34.515625 
L 43.21875 35.40625 
Q 43.21875 41.609375 39.140625 45 
Q 35.0625 48.390625 27.6875 48.390625 
Q 23 48.390625 18.546875 47.265625 
Q 14.109375 46.140625 10.015625 43.890625 
L 10.015625 52.203125 
Q 14.9375 54.109375 19.578125 55.046875 
Q 24.21875 56 28.609375 56 
Q 40.484375 56 46.34375 49.84375 
Q 52.203125 43.703125 52.203125 31.203125 
z
" id="DejaVuSans-97"/>
      <path d="M 44.28125 53.078125 
L 44.28125 44.578125 
Q 40.484375 46.53125 36.375 47.5 
Q 32.28125 48.484375 27.875 48.484375 
Q 21.1875 48.484375 17.84375 46.4375 
Q 14.5 44.390625 14.5 40.28125 
Q 14.5 37.15625 16.890625 35.375 
Q 19.28125 33.59375 26.515625 31.984375 
L 29.59375 31.296875 
Q 39.15625 29.25 43.1875 25.515625 
Q 47.21875 21.78125 47.21875 15.09375 
Q 47.21875 7.46875 41.1875 3.015625 
Q 35.15625 -1.421875 24.609375 -1.421875 
Q 20.21875 -1.421875 15.453125 -0.5625 
Q 10.6875 0.296875 5.421875 2 
L 5.421875 11.28125 
Q 10.40625 8.6875 15.234375 7.390625 
Q 20.0625 6.109375 24.8125 6.109375 
Q 31.15625 6.109375 34.5625 8.28125 
Q 37.984375 10.453125 37.984375 14.40625 
Q 37.984375 18.0625 35.515625 20.015625 
Q 33.0625 21.96875 24.703125 23.78125 
L 21.578125 24.515625 
Q 13.234375 26.265625 9.515625 29.90625 
Q 5.8125 33.546875 5.8125 39.890625 
Q 5.8125 47.609375 11.28125 51.796875 
Q 16.75 56 26.8125 56 
Q 31.78125 56 36.171875 55.265625 
Q 40.578125 54.546875 44.28125 53.078125 
z
" id="DejaVuSans-115"/>
      <path d="M 25.390625 72.90625 
L 33.6875 72.90625 
L 8.296875 -9.28125 
L 0 -9.28125 
z
" id="DejaVuSans-47"/>
      <path d="M 45.40625 46.390625 
L 45.40625 75.984375 
L 54.390625 75.984375 
L 54.390625 0 
L 45.40625 0 
L 45.40625 8.203125 
Q 42.578125 3.328125 38.25 0.953125 
Q 33.9375 -1.421875 27.875 -1.421875 
Q 17.96875 -1.421875 11.734375 6.484375 
Q 5.515625 14.40625 5.515625 27.296875 
Q 5.515625 40.1875 11.734375 48.09375 
Q 17.96875 56 27.875 56 
Q 33.9375 56 38.25 53.625 
Q 42.578125 51.265625 45.40625 46.390625 
z
M 14.796875 27.296875 
Q 14.796875 17.390625 18.875 11.75 
Q 22.953125 6.109375 30.078125 6.109375 
Q 37.203125 6.109375 41.296875 11.75 
Q 45.40625 17.390625 45.40625 27.296875 
Q 45.40625 37.203125 41.296875 42.84375 
Q 37.203125 48.484375 30.078125 48.484375 
Q 22.953125 48.484375 18.875 42.84375 
Q 14.796875 37.203125 14.796875 27.296875 
z
" id="DejaVuSans-100"/>
      <path d="M 9.421875 54.6875 
L 18.40625 54.6875 
L 18.40625 0 
L 9.421875 0 
z
M 9.421875 75.984375 
L 18.40625 75.984375 
L 18.40625 64.59375 
L 9.421875 64.59375 
z
" id="DejaVuSans-105"/>
      <path d="M 52 44.1875 
Q 55.375 50.25 60.0625 53.125 
Q 64.75 56 71.09375 56 
Q 79.640625 56 84.28125 50.015625 
Q 88.921875 44.046875 88.921875 33.015625 
L 88.921875 0 
L 79.890625 0 
L 79.890625 32.71875 
Q 79.890625 40.578125 77.09375 44.375 
Q 74.3125 48.1875 68.609375 48.1875 
Q 61.625 48.1875 57.5625 43.546875 
Q 53.515625 38.921875 53.515625 30.90625 
L 53.515625 0 
L 44.484375 0 
L 44.484375 32.71875 
Q 44.484375 40.625 41.703125 44.40625 
Q 38.921875 48.1875 33.109375 48.1875 
Q 26.21875 48.1875 22.15625 43.53125 
Q 18.109375 38.875 18.109375 30.90625 
L 18.109375 0 
L 9.078125 0 
L 9.078125 54.6875 
L 18.109375 54.6875 
L 18.109375 46.1875 
Q 21.1875 51.21875 25.484375 53.609375 
Q 29.78125 56 35.6875 56 
Q 41.65625 56 45.828125 52.96875 
Q 50 49.953125 52 44.1875 
z
" id="DejaVuSans-109"/>
      <path d="M 54.890625 33.015625 
L 54.890625 0 
L 45.90625 0 
L 45.90625 32.71875 
Q 45.90625 40.484375 42.875 44.328125 
Q 39.84375 48.1875 33.796875 48.1875 
Q 26.515625 48.1875 22.3125 43.546875 
Q 18.109375 38.921875 18.109375 30.90625 
L 18.109375 0 
L 9.078125 0 
L 9.078125 54.6875 
L 18.109375 54.6875 
L 18.109375 46.1875 
Q 21.34375 51.125 25.703125 53.5625 
Q 30.078125 56 35.796875 56 
Q 45.21875 56 50.046875 50.171875 
Q 54.890625 44.34375 54.890625 33.015625 
z
" id="DejaVuSans-110"/>
      <path d="M 8.015625 75.875 
L 15.828125 75.875 
Q 23.140625 64.359375 26.78125 53.3125 
Q 30.421875 42.28125 30.421875 31.390625 
Q 30.421875 20.453125 26.78125 9.375 
Q 23.140625 -1.703125 15.828125 -13.1875 
L 8.015625 -13.1875 
Q 14.5 -2 17.703125 9.0625 
Q 20.90625 20.125 20.90625 31.390625 
Q 20.90625 42.671875 17.703125 53.65625 
Q 14.5 64.65625 8.015625 75.875 
z
" id="DejaVuSans-41"/>
     </defs>
     <g transform="translate(77.303219 342.217594)scale(0.17 -0.17)">
      <use xlink:href="#DejaVuSans-108"/>
      <use x="27.783203" xlink:href="#DejaVuSans-111"/>
      <use x="88.964844" xlink:href="#DejaVuSans-103"/>
      <use x="152.441406" xlink:href="#DejaVuSans-49"/>
      <use x="216.064453" xlink:href="#DejaVuSans-48"/>
      <use x="279.6875" xlink:href="#DejaVuSans-40"/>
      <use x="318.701172" xlink:href="#DejaVuSans-35"/>
      <use x="402.490234" xlink:href="#DejaVuSans-32"/>
      <use x="434.277344" xlink:href="#DejaVuSans-102"/>
      <use x="469.404297" xlink:href="#DejaVuSans-45"/>
      <use x="505.488281" xlink:href="#DejaVuSans-101"/>
      <use x="567.011719" xlink:href="#DejaVuSans-118"/>
      <use x="626.191406" xlink:href="#DejaVuSans-97"/>
      <use x="687.470703" xlink:href="#DejaVuSans-108"/>
      <use x="715.253906" xlink:href="#DejaVuSans-115"/>
      <use x="767.353516" xlink:href="#DejaVuSans-32"/>
      <use x="799.140625" xlink:href="#DejaVuSans-47"/>
      <use x="832.832031" xlink:href="#DejaVuSans-32"/>
      <use x="864.619141" xlink:href="#DejaVuSans-100"/>
      <use x="928.095703" xlink:href="#DejaVuSans-105"/>
      <use x="955.878906" xlink:href="#DejaVuSans-109"/>
      <use x="1053.291016" xlink:href="#DejaVuSans-101"/>
      <use x="1114.814453" xlink:href="#DejaVuSans-110"/>
      <use x="1178.193359" xlink:href="#DejaVuSans-115"/>
      <use x="1230.292969" xlink:href="#DejaVuSans-105"/>
      <use x="1258.076172" xlink:href="#DejaVuSans-111"/>
      <use x="1319.257812" xlink:href="#DejaVuSans-110"/>
      <use x="1382.636719" xlink:href="#DejaVuSans-41"/>
     </g>
    </g>
   </g>
   <g id="matplotlib.axis_2">
    <g id="ytick_1">
     <g id="line2d_29">
      <path clip-path="url(#p7560676e97)" d="M 57.6 298.944 
L 338.688 298.944 
" style="fill:none;stroke:#b0b0b0;stroke-linecap:square;stroke-width:0.8;"/>
     </g>
     <g id="line2d_30">
      <defs>
       <path d="M 0 0 
L -3.5 0 
" id="mbab86c2d71" style="stroke:#000000;stroke-width:0.8;"/>
      </defs>
      <g>
       <use style="stroke:#000000;stroke-width:0.8;" x="57.6" xlink:href="#mbab86c2d71" y="298.944"/>
      </g>
     </g>
     <g id="text_6">
      <!-- 0.0 -->
      <defs>
       <path d="M 10.6875 12.40625 
L 21 12.40625 
L 21 0 
L 10.6875 0 
z
" id="DejaVuSans-46"/>
      </defs>
      <g transform="translate(25.155 305.02275)scale(0.16 -0.16)">
       <use xlink:href="#DejaVuSans-48"/>
       <use x="63.623047" xlink:href="#DejaVuSans-46"/>
       <use x="95.410156" xlink:href="#DejaVuSans-48"/>
      </g>
     </g>
    </g>
    <g id="ytick_2">
     <g id="line2d_31">
      <path clip-path="url(#p7560676e97)" d="M 57.6 247.959446 
L 338.688 247.959446 
" style="fill:none;stroke:#b0b0b0;stroke-linecap:square;stroke-width:0.8;"/>
     </g>
     <g id="line2d_32">
      <g>
       <use style="stroke:#000000;stroke-width:0.8;" x="57.6" xlink:href="#mbab86c2d71" y="247.959446"/>
      </g>
     </g>
     <g id="text_7">
      <!-- 0.2 -->
      <g transform="translate(25.155 254.038196)scale(0.16 -0.16)">
       <use xlink:href="#DejaVuSans-48"/>
       <use x="63.623047" xlink:href="#DejaVuSans-46"/>
       <use x="95.410156" xlink:href="#DejaVuSans-50"/>
      </g>
     </g>
    </g>
    <g id="ytick_3">
     <g id="line2d_33">
      <path clip-path="url(#p7560676e97)" d="M 57.6 196.974891 
L 338.688 196.974891 
" style="fill:none;stroke:#b0b0b0;stroke-linecap:square;stroke-width:0.8;"/>
     </g>
     <g id="line2d_34">
      <g>
       <use style="stroke:#000000;stroke-width:0.8;" x="57.6" xlink:href="#mbab86c2d71" y="196.974891"/>
      </g>
     </g>
     <g id="text_8">
      <!-- 0.4 -->
      <g transform="translate(25.155 203.053641)scale(0.16 -0.16)">
       <use xlink:href="#DejaVuSans-48"/>
       <use x="63.623047" xlink:href="#DejaVuSans-46"/>
       <use x="95.410156" xlink:href="#DejaVuSans-52"/>
      </g>
     </g>
    </g>
    <g id="ytick_4">
     <g id="line2d_35">
      <path clip-path="url(#p7560676e97)" d="M 57.6 145.990337 
L 338.688 145.990337 
" style="fill:none;stroke:#b0b0b0;stroke-linecap:square;stroke-width:0.8;"/>
     </g>
     <g id="line2d_36">
      <g>
       <use style="stroke:#000000;stroke-width:0.8;" x="57.6" xlink:href="#mbab86c2d71" y="145.990337"/>
      </g>
     </g>
     <g id="text_9">
      <!-- 0.6 -->
      <g transform="translate(25.155 152.069087)scale(0.16 -0.16)">
       <use xlink:href="#DejaVuSans-48"/>
       <use x="63.623047" xlink:href="#DejaVuSans-46"/>
       <use x="95.410156" xlink:href="#DejaVuSans-54"/>
      </g>
     </g>
    </g>
    <g id="ytick_5">
     <g id="line2d_37">
      <path clip-path="url(#p7560676e97)" d="M 57.6 95.005782 
L 338.688 95.005782 
" style="fill:none;stroke:#b0b0b0;stroke-linecap:square;stroke-width:0.8;"/>
     </g>
     <g id="line2d_38">
      <g>
       <use style="stroke:#000000;stroke-width:0.8;" x="57.6" xlink:href="#mbab86c2d71" y="95.005782"/>
      </g>
     </g>
     <g id="text_10">
      <!-- 0.8 -->
      <defs>
       <path d="M 31.78125 34.625 
Q 24.75 34.625 20.71875 30.859375 
Q 16.703125 27.09375 16.703125 20.515625 
Q 16.703125 13.921875 20.71875 10.15625 
Q 24.75 6.390625 31.78125 6.390625 
Q 38.8125 6.390625 42.859375 10.171875 
Q 46.921875 13.96875 46.921875 20.515625 
Q 46.921875 27.09375 42.890625 30.859375 
Q 38.875 34.625 31.78125 34.625 
z
M 21.921875 38.8125 
Q 15.578125 40.375 12.03125 44.71875 
Q 8.5 49.078125 8.5 55.328125 
Q 8.5 64.0625 14.71875 69.140625 
Q 20.953125 74.21875 31.78125 74.21875 
Q 42.671875 74.21875 48.875 69.140625 
Q 55.078125 64.0625 55.078125 55.328125 
Q 55.078125 49.078125 51.53125 44.71875 
Q 48 40.375 41.703125 38.8125 
Q 48.828125 37.15625 52.796875 32.3125 
Q 56.78125 27.484375 56.78125 20.515625 
Q 56.78125 9.90625 50.3125 4.234375 
Q 43.84375 -1.421875 31.78125 -1.421875 
Q 19.734375 -1.421875 13.25 4.234375 
Q 6.78125 9.90625 6.78125 20.515625 
Q 6.78125 27.484375 10.78125 32.3125 
Q 14.796875 37.15625 21.921875 38.8125 
z
M 18.3125 54.390625 
Q 18.3125 48.734375 21.84375 45.5625 
Q 25.390625 42.390625 31.78125 42.390625 
Q 38.140625 42.390625 41.71875 45.5625 
Q 45.3125 48.734375 45.3125 54.390625 
Q 45.3125 60.0625 41.71875 63.234375 
Q 38.140625 66.40625 31.78125 66.40625 
Q 25.390625 66.40625 21.84375 63.234375 
Q 18.3125 60.0625 18.3125 54.390625 
z
" id="DejaVuSans-56"/>
      </defs>
      <g transform="translate(25.155 101.084532)scale(0.16 -0.16)">
       <use xlink:href="#DejaVuSans-48"/>
       <use x="63.623047" xlink:href="#DejaVuSans-46"/>
       <use x="95.410156" xlink:href="#DejaVuSans-56"/>
      </g>
     </g>
    </g>
    <g id="ytick_6">
     <g id="line2d_39">
      <path clip-path="url(#p7560676e97)" d="M 57.6 44.021228 
L 338.688 44.021228 
" style="fill:none;stroke:#b0b0b0;stroke-linecap:square;stroke-width:0.8;"/>
     </g>
     <g id="line2d_40">
      <g>
       <use style="stroke:#000000;stroke-width:0.8;" x="57.6" xlink:href="#mbab86c2d71" y="44.021228"/>
      </g>
     </g>
     <g id="text_11">
      <!-- 1.0 -->
      <g transform="translate(25.155 50.099978)scale(0.16 -0.16)">
       <use xlink:href="#DejaVuSans-49"/>
       <use x="63.623047" xlink:href="#DejaVuSans-46"/>
       <use x="95.410156" xlink:href="#DejaVuSans-48"/>
      </g>
     </g>
    </g>
    <g id="text_12">
     <!-- Fraction of function,target pairs -->
     <defs>
      <path d="M 9.8125 72.90625 
L 51.703125 72.90625 
L 51.703125 64.59375 
L 19.671875 64.59375 
L 19.671875 43.109375 
L 48.578125 43.109375 
L 48.578125 34.8125 
L 19.671875 34.8125 
L 19.671875 0 
L 9.8125 0 
z
" id="DejaVuSans-70"/>
      <path d="M 41.109375 46.296875 
Q 39.59375 47.171875 37.8125 47.578125 
Q 36.03125 48 33.890625 48 
Q 26.265625 48 22.1875 43.046875 
Q 18.109375 38.09375 18.109375 28.8125 
L 18.109375 0 
L 9.078125 0 
L 9.078125 54.6875 
L 18.109375 54.6875 
L 18.109375 46.1875 
Q 20.953125 51.171875 25.484375 53.578125 
Q 30.03125 56 36.53125 56 
Q 37.453125 56 38.578125 55.875 
Q 39.703125 55.765625 41.0625 55.515625 
z
" id="DejaVuSans-114"/>
      <path d="M 48.78125 52.59375 
L 48.78125 44.1875 
Q 44.96875 46.296875 41.140625 47.34375 
Q 37.3125 48.390625 33.40625 48.390625 
Q 24.65625 48.390625 19.8125 42.84375 
Q 14.984375 37.3125 14.984375 27.296875 
Q 14.984375 17.28125 19.8125 11.734375 
Q 24.65625 6.203125 33.40625 6.203125 
Q 37.3125 6.203125 41.140625 7.25 
Q 44.96875 8.296875 48.78125 10.40625 
L 48.78125 2.09375 
Q 45.015625 0.34375 40.984375 -0.53125 
Q 36.96875 -1.421875 32.421875 -1.421875 
Q 20.0625 -1.421875 12.78125 6.34375 
Q 5.515625 14.109375 5.515625 27.296875 
Q 5.515625 40.671875 12.859375 48.328125 
Q 20.21875 56 33.015625 56 
Q 37.15625 56 41.109375 55.140625 
Q 45.0625 54.296875 48.78125 52.59375 
z
" id="DejaVuSans-99"/>
      <path d="M 18.3125 70.21875 
L 18.3125 54.6875 
L 36.8125 54.6875 
L 36.8125 47.703125 
L 18.3125 47.703125 
L 18.3125 18.015625 
Q 18.3125 11.328125 20.140625 9.421875 
Q 21.96875 7.515625 27.59375 7.515625 
L 36.8125 7.515625 
L 36.8125 0 
L 27.59375 0 
Q 17.1875 0 13.234375 3.875 
Q 9.28125 7.765625 9.28125 18.015625 
L 9.28125 47.703125 
L 2.6875 47.703125 
L 2.6875 54.6875 
L 9.28125 54.6875 
L 9.28125 70.21875 
z
" id="DejaVuSans-116"/>
      <path d="M 8.5 21.578125 
L 8.5 54.6875 
L 17.484375 54.6875 
L 17.484375 21.921875 
Q 17.484375 14.15625 20.5 10.265625 
Q 23.53125 6.390625 29.59375 6.390625 
Q 36.859375 6.390625 41.078125 11.03125 
Q 45.3125 15.671875 45.3125 23.6875 
L 45.3125 54.6875 
L 54.296875 54.6875 
L 54.296875 0 
L 45.3125 0 
L 45.3125 8.40625 
Q 42.046875 3.421875 37.71875 1 
Q 33.40625 -1.421875 27.6875 -1.421875 
Q 18.265625 -1.421875 13.375 4.4375 
Q 8.5 10.296875 8.5 21.578125 
z
M 31.109375 56 
z
" id="DejaVuSans-117"/>
      <path d="M 11.71875 12.40625 
L 22.015625 12.40625 
L 22.015625 4 
L 14.015625 -11.625 
L 7.71875 -11.625 
L 11.71875 4 
z
" id="DejaVuSans-44"/>
      <path d="M 18.109375 8.203125 
L 18.109375 -20.796875 
L 9.078125 -20.796875 
L 9.078125 54.6875 
L 18.109375 54.6875 
L 18.109375 46.390625 
Q 20.953125 51.265625 25.265625 53.625 
Q 29.59375 56 35.59375 56 
Q 45.5625 56 51.78125 48.09375 
Q 58.015625 40.1875 58.015625 27.296875 
Q 58.015625 14.40625 51.78125 6.484375 
Q 45.5625 -1.421875 35.59375 -1.421875 
Q 29.59375 -1.421875 25.265625 0.953125 
Q 20.953125 3.328125 18.109375 8.203125 
z
M 48.6875 27.296875 
Q 48.6875 37.203125 44.609375 42.84375 
Q 40.53125 48.484375 33.40625 48.484375 
Q 26.265625 48.484375 22.1875 42.84375 
Q 18.109375 37.203125 18.109375 27.296875 
Q 18.109375 17.390625 22.1875 11.75 
Q 26.265625 6.109375 33.40625 6.109375 
Q 40.53125 6.109375 44.609375 11.75 
Q 48.6875 17.390625 48.6875 27.296875 
z
" id="DejaVuSans-112"/>
     </defs>
     <g transform="translate(17.619531 305.347375)rotate(-90)scale(0.17 -0.17)">
      <use xlink:href="#DejaVuSans-70"/>
      <use x="57.410156" xlink:href="#DejaVuSans-114"/>
      <use x="98.523438" xlink:href="#DejaVuSans-97"/>
      <use x="159.802734" xlink:href="#DejaVuSans-99"/>
      <use x="214.783203" xlink:href="#DejaVuSans-116"/>
      <use x="253.992188" xlink:href="#DejaVuSans-105"/>
      <use x="281.775391" xlink:href="#DejaVuSans-111"/>
      <use x="342.957031" xlink:href="#DejaVuSans-110"/>
      <use x="406.335938" xlink:href="#DejaVuSans-32"/>
      <use x="438.123047" xlink:href="#DejaVuSans-111"/>
      <use x="499.304688" xlink:href="#DejaVuSans-102"/>
      <use x="534.509766" xlink:href="#DejaVuSans-32"/>
      <use x="566.296875" xlink:href="#DejaVuSans-102"/>
      <use x="601.501953" xlink:href="#DejaVuSans-117"/>
      <use x="664.880859" xlink:href="#DejaVuSans-110"/>
      <use x="728.259766" xlink:href="#DejaVuSans-99"/>
      <use x="783.240234" xlink:href="#DejaVuSans-116"/>
      <use x="822.449219" xlink:href="#DejaVuSans-105"/>
      <use x="850.232422" xlink:href="#DejaVuSans-111"/>
      <use x="911.414062" xlink:href="#DejaVuSans-110"/>
      <use x="974.792969" xlink:href="#DejaVuSans-44"/>
      <use x="1006.580078" xlink:href="#DejaVuSans-116"/>
      <use x="1045.789062" xlink:href="#DejaVuSans-97"/>
      <use x="1107.068359" xlink:href="#DejaVuSans-114"/>
      <use x="1148.166016" xlink:href="#DejaVuSans-103"/>
      <use x="1211.642578" xlink:href="#DejaVuSans-101"/>
      <use x="1273.166016" xlink:href="#DejaVuSans-116"/>
      <use x="1312.375" xlink:href="#DejaVuSans-32"/>
      <use x="1344.162109" xlink:href="#DejaVuSans-112"/>
      <use x="1407.638672" xlink:href="#DejaVuSans-97"/>
      <use x="1468.917969" xlink:href="#DejaVuSans-105"/>
      <use x="1496.701172" xlink:href="#DejaVuSans-114"/>
      <use x="1537.814453" xlink:href="#DejaVuSans-115"/>
     </g>
    </g>
   </g>
   <g id="line2d_41">
    <defs>
     <path d="M 0 1.5 
C 0.397805 1.5 0.77937 1.341951 1.06066 1.06066 
C 1.341951 0.77937 1.5 0.397805 1.5 0 
C 1.5 -0.397805 1.341951 -0.77937 1.06066 -1.06066 
C 0.77937 -1.341951 0.397805 -1.5 0 -1.5 
C -0.397805 -1.5 -0.77937 -1.341951 -1.06066 -1.06066 
C -1.341951 -0.77937 -1.5 -0.397805 -1.5 0 
C -1.5 0.397805 -1.341951 0.77937 -1.06066 1.06066 
C -0.77937 1.341951 -0.397805 1.5 0 1.5 
z
" id="m13ba05995e" style="stroke:#faf0e6;"/>
    </defs>
    <g>
     <use style="fill:#faf0e6;stroke:#faf0e6;" x="171.193164" xlink:href="#m13ba05995e" y="44.021228"/>
     <use style="fill:#faf0e6;stroke:#faf0e6;" x="171.193164" xlink:href="#m13ba05995e" y="44.021228"/>
    </g>
   </g>
   <g id="line2d_42">
    <defs>
     <path d="M 0 1.5 
C 0.397805 1.5 0.77937 1.341951 1.06066 1.06066 
C 1.341951 0.77937 1.5 0.397805 1.5 0 
C 1.5 -0.397805 1.341951 -0.77937 1.06066 -1.06066 
C 0.77937 -1.341951 0.397805 -1.5 0 -1.5 
C -0.397805 -1.5 -0.77937 -1.341951 -1.06066 -1.06066 
C -1.341951 -0.77937 -1.5 -0.397805 -1.5 0 
C -1.5 0.397805 -1.341951 0.77937 -1.06066 1.06066 
C -0.77937 1.341951 -0.397805 1.5 0 1.5 
z
" id="m4ac5727e38" style="stroke:#000080;"/>
    </defs>
    <g>
     <use style="fill:#000080;stroke:#000080;" x="176.293184" xlink:href="#m4ac5727e38" y="44.021228"/>
     <use style="fill:#000080;stroke:#000080;" x="176.293184" xlink:href="#m4ac5727e38" y="44.021228"/>
    </g>
   </g>
   <g id="line2d_43">
    <path d="M 107.289052 298.944 
L 107.289052 298.444151 
L 107.564481 298.444151 
L 107.564481 297.944303 
L 107.78664 297.944303 
L 107.78664 295.944909 
L 108.948899 295.944909 
L 108.948899 295.44506 
L 114.833115 295.44506 
L 114.833115 294.445363 
L 115.301637 294.445363 
L 115.301637 293.945514 
L 116.187386 293.945514 
L 116.187386 292.945817 
L 117.145424 292.945817 
L 117.145424 292.445969 
L 118.994305 292.445969 
L 119.020084 291.446271 
L 119.702083 291.446271 
L 119.702083 290.946423 
L 119.972465 290.946423 
L 119.972465 289.946726 
L 120.118198 289.946726 
L 120.118198 288.947029 
L 120.406061 288.947029 
L 120.406061 288.44718 
L 120.829137 288.44718 
L 120.829137 287.947331 
L 121.059819 287.947331 
L 121.059819 287.447483 
L 121.219499 287.447483 
L 121.219499 286.947634 
L 121.366476 286.947634 
L 121.456312 285.947937 
L 121.767141 285.947937 
L 121.767141 285.448089 
L 122.05089 285.448089 
L 122.05089 284.448391 
L 122.425713 284.448391 
L 122.425713 283.948543 
L 122.604903 283.948543 
L 122.604903 283.448694 
L 122.937288 283.448694 
L 122.937288 282.448997 
L 123.303801 282.448997 
L 123.303801 281.949149 
L 123.494177 281.949149 
L 123.494177 281.4493 
L 123.907776 281.4493 
L 123.907776 280.949451 
L 124.273716 280.949451 
L 124.273716 279.949754 
L 124.557288 279.949754 
L 124.585393 278.950057 
L 124.882397 278.950057 
L 124.965026 277.450511 
L 125.110962 277.450511 
L 125.110962 276.950663 
L 125.246677 276.950663 
L 125.246677 276.450814 
L 125.399222 276.450814 
L 125.399222 275.950966 
L 125.559298 275.950966 
L 125.629974 274.45142 
L 125.79669 274.45142 
L 125.79669 273.451723 
L 125.944518 273.451723 
L 125.944518 272.951874 
L 126.056724 272.951874 
L 126.133984 271.452328 
L 126.557083 271.452328 
L 126.557083 270.95248 
L 126.830809 270.95248 
L 126.830809 269.952783 
L 127.010934 269.952783 
L 127.100304 268.953086 
L 127.349728 268.953086 
L 127.349728 267.953388 
L 127.492935 267.953388 
L 127.492935 266.953691 
L 127.884669 266.953691 
L 127.985095 264.954297 
L 128.184228 264.954297 
L 128.207059 262.954903 
L 128.418722 262.954903 
L 128.418722 262.455054 
L 128.531065 262.455054 
L 128.531065 261.955206 
L 128.863815 261.955206 
L 128.863815 260.955508 
L 129.06046 260.955508 
L 129.06046 259.455963 
L 129.46138 259.455963 
L 129.46138 258.456266 
L 129.908566 258.456266 
L 129.908566 257.956417 
L 130.08018 257.956417 
L 130.175551 256.456871 
L 130.351298 256.456871 
L 130.351298 255.957023 
L 130.671171 255.957023 
L 130.671171 254.957326 
L 130.89425 254.957326 
L 130.89425 254.457477 
L 131.172353 254.457477 
L 131.172353 253.957628 
L 131.90119 253.957628 
L 131.90119 253.45778 
L 132.30267 253.45778 
L 132.30267 252.957931 
L 132.565279 252.957931 
L 132.565279 252.458083 
L 132.730358 252.458083 
L 132.730358 251.958234 
L 132.946128 251.958234 
L 132.946128 250.958537 
L 133.49944 250.958537 
L 133.49944 249.458991 
L 133.683748 249.458991 
L 133.683748 248.959143 
L 133.827601 248.959143 
L 133.827601 248.459294 
L 134.03029 248.459294 
L 134.111795 246.959748 
L 142.626591 246.959748 
L 142.626591 245.960051 
L 143.527762 245.960051 
L 143.527762 244.960354 
L 144.285103 244.960354 
L 144.285103 243.960657 
L 144.602843 243.960657 
L 144.602843 243.460808 
L 146.950461 243.460808 
L 146.950461 242.96096 
L 147.355924 242.96096 
L 147.355924 242.461111 
L 148.833766 242.461111 
L 148.833766 241.961263 
L 149.429412 241.961263 
L 149.519271 240.961566 
L 151.899143 240.961566 
L 151.998557 239.46202 
L 152.203386 239.46202 
L 152.203386 238.962171 
L 152.438089 238.962171 
L 152.438089 238.462323 
L 152.673415 238.462323 
L 152.673415 237.962474 
L 152.852014 237.962474 
L 152.929579 235.96308 
L 153.713276 235.96308 
L 153.785358 234.463534 
L 154.108671 234.463534 
L 154.108671 232.963988 
L 154.373594 232.963988 
L 154.461577 231.464443 
L 154.5424 231.464443 
L 154.5424 230.964594 
L 154.697938 230.964594 
L 154.697938 230.464745 
L 155.409178 230.464745 
L 155.506413 229.465048 
L 155.63154 229.465048 
L 155.63154 228.9652 
L 155.902456 228.9652 
L 155.902456 228.465351 
L 156.040206 228.465351 
L 156.040206 227.965503 
L 156.385187 227.965503 
L 156.385187 227.465654 
L 156.529687 227.465654 
L 156.634302 225.46626 
L 156.664077 225.46626 
L 156.664077 224.466563 
L 157.286505 224.466563 
L 157.299419 222.467168 
L 157.419483 222.467168 
L 157.419483 221.96732 
L 157.56841 221.96732 
L 157.56841 221.467471 
L 157.984282 221.467471 
L 158.075062 219.967925 
L 158.198096 219.967925 
L 158.283706 217.968531 
L 158.637951 217.968531 
L 158.738611 216.468985 
L 158.935593 216.468985 
L 158.935593 215.469288 
L 159.130375 215.469288 
L 159.241076 212.970045 
L 159.331943 212.970045 
L 159.331943 211.970348 
L 159.494572 211.970348 
L 159.494572 211.4705 
L 159.666971 211.4705 
L 159.751913 208.971257 
L 160.225184 208.971257 
L 160.225184 208.471408 
L 160.451703 208.471408 
L 160.55078 205.972165 
L 160.757851 205.972165 
L 160.757851 205.472317 
L 160.956678 205.472317 
L 161.028631 204.47262 
L 161.227847 204.47262 
L 161.338558 203.472923 
L 161.371521 203.472923 
L 161.415753 202.473225 
L 161.708914 202.473225 
L 161.758965 201.473528 
L 161.94566 201.473528 
L 162.045367 199.474134 
L 162.291628 199.474134 
L 162.387239 197.47474 
L 162.576903 197.47474 
L 162.576903 196.974891 
L 162.788623 196.974891 
L 162.897168 194.975497 
L 162.985385 194.975497 
L 162.985385 194.475648 
L 163.098888 194.475648 
L 163.135875 191.476557 
L 163.247387 191.476557 
L 163.247387 190.976708 
L 163.420904 190.976708 
L 163.470308 188.977314 
L 163.562691 188.977314 
L 163.664547 187.977617 
L 163.787576 187.977617 
L 163.883215 185.478374 
L 163.925445 185.478374 
L 163.986154 184.478677 
L 164.105972 184.478677 
L 164.207608 180.979737 
L 164.229793 180.979737 
L 164.268307 179.480191 
L 164.431051 179.480191 
L 164.538393 176.980948 
L 164.548807 176.980948 
L 164.589457 175.481402 
L 164.737077 175.481402 
L 164.769816 173.981857 
L 164.871384 173.981857 
L 164.974211 170.982765 
L 165.047026 170.982765 
L 165.077353 169.48322 
L 165.245488 169.48322 
L 165.354274 166.983977 
L 165.359695 166.983977 
L 165.426423 164.984582 
L 165.568939 164.984582 
L 165.642874 162.985188 
L 165.706757 162.985188 
L 165.706757 161.985491 
L 165.864572 161.985491 
L 165.939015 158.9864 
L 165.980041 158.9864 
L 166.06007 157.486854 
L 166.092152 157.486854 
L 166.092152 156.987005 
L 166.225913 156.987005 
L 166.312524 154.487762 
L 166.351829 154.487762 
L 166.398707 152.988217 
L 166.471757 152.988217 
L 166.505629 151.488671 
L 166.594233 151.488671 
L 166.594233 150.988822 
L 166.782596 150.988822 
L 166.849082 148.989428 
L 166.906223 148.989428 
L 166.970593 146.990034 
L 167.030622 146.990034 
L 167.132118 142.991245 
L 167.324479 142.991245 
L 167.404208 141.991548 
L 167.44113 141.991548 
L 167.549836 140.492002 
L 167.629337 140.492002 
L 167.6737 138.492608 
L 167.769171 138.492608 
L 167.857078 134.993668 
L 167.88055 134.993668 
L 167.921939 132.994274 
L 168.047843 132.994274 
L 168.118942 131.494728 
L 168.22275 131.494728 
L 168.318321 127.495939 
L 168.412612 127.495939 
L 168.46864 125.496545 
L 168.558365 125.496545 
L 168.632659 120.997908 
L 168.683507 120.997908 
L 168.789214 118.998514 
L 168.857359 118.998514 
L 168.94511 116.999119 
L 169.038277 116.999119 
L 169.124397 115.999422 
L 169.180365 115.999422 
L 169.180365 115.499574 
L 169.297534 115.499574 
L 169.370905 114.499877 
L 169.519575 114.499877 
L 169.59698 113.000331 
L 169.650042 113.000331 
L 169.699421 110.501088 
L 169.847424 110.501088 
L 169.938684 108.001845 
L 170.090189 108.001845 
L 170.14658 106.002451 
L 170.248583 106.002451 
L 170.294936 101.503814 
L 170.383213 101.503814 
L 170.477109 99.504419 
L 170.500672 99.504419 
L 170.512778 98.504722 
L 170.611998 98.504722 
L 170.642723 96.505328 
L 170.739218 96.505328 
L 170.766406 94.006085 
L 170.881321 94.006085 
L 170.881321 93.506236 
L 171.009865 93.506236 
L 171.090052 90.507145 
L 171.133576 90.507145 
L 171.231917 87.508054 
L 171.254483 87.508054 
L 171.346379 85.508659 
L 171.467097 85.508659 
L 171.576236 84.508962 
L 171.593938 84.508962 
L 171.699776 81.010022 
L 171.75496 81.010022 
L 171.847377 79.510476 
L 171.93435 79.510476 
L 171.978292 76.011536 
L 172.060925 76.011536 
L 172.136432 73.512294 
L 172.211004 73.512294 
L 172.283435 72.012748 
L 172.382767 72.012748 
L 172.382767 71.512899 
L 172.510338 71.512899 
L 172.557041 69.513505 
L 172.666718 69.513505 
L 172.77453 68.513808 
L 172.864062 68.513808 
L 172.864062 67.514111 
L 172.998087 67.514111 
L 173.091121 66.514414 
L 173.171544 66.514414 
L 173.176162 65.514716 
L 173.303236 65.514716 
L 173.394091 64.515019 
L 173.503175 64.515019 
L 173.608205 63.015474 
L 173.621148 63.015474 
L 173.621148 62.515625 
L 173.816384 62.515625 
L 173.816384 61.515928 
L 173.940551 61.515928 
L 173.969249 60.516231 
L 174.125706 60.516231 
L 174.186263 59.516533 
L 174.276979 59.516533 
L 174.346191 58.516836 
L 174.474692 58.516836 
L 174.582034 56.017593 
L 174.641561 56.017593 
L 174.641561 54.518048 
L 174.863519 54.518048 
L 174.863519 53.518351 
L 175.001796 53.518351 
L 175.012708 52.518653 
L 175.183277 52.518653 
L 175.183277 51.518956 
L 175.315479 51.518956 
L 175.389341 50.519259 
L 175.442632 50.519259 
L 175.442632 50.019411 
L 175.578422 50.019411 
L 175.596514 49.019713 
L 175.704678 49.019713 
L 175.757513 47.520168 
L 175.860728 47.520168 
L 175.971695 46.020622 
L 176.059963 46.020622 
L 176.159463 45.020925 
L 176.271451 45.020925 
L 176.293184 44.021228 
L 338.688 44.021228 
L 338.688 44.021228 
" style="fill:none;stroke:#000080;stroke-linecap:square;stroke-width:1.5;"/>
   </g>
   <g id="line2d_44">
    <defs>
     <path d="M 0 6 
C 1.591219 6 3.117479 5.367802 4.242641 4.242641 
C 5.367802 3.117479 6 1.591219 6 0 
C 6 -1.591219 5.367802 -3.117479 4.242641 -4.242641 
C 3.117479 -5.367802 1.591219 -6 0 -6 
C -1.591219 -6 -3.117479 -5.367802 -4.242641 -4.242641 
C -5.367802 -3.117479 -6 -1.591219 -6 0 
C -6 1.591219 -5.367802 3.117479 -4.242641 4.242641 
C -3.117479 5.367802 -1.591219 6 0 6 
z
" id="m6d4a325dbd" style="stroke:#000080;stroke-width:1.5;"/>
    </defs>
    <g>
     <use style="fill-opacity:0;stroke:#000080;stroke-width:1.5;" x="162.369017" xlink:href="#m6d4a325dbd" y="197.974588"/>
     <use style="fill-opacity:0;stroke:#000080;stroke-width:1.5;" x="176.293184" xlink:href="#m6d4a325dbd" y="44.521076"/>
     <use style="fill-opacity:0;stroke:#000080;stroke-width:1.5;" x="176.293184" xlink:href="#m6d4a325dbd" y="44.021228"/>
     <use style="fill-opacity:0;stroke:#000080;stroke-width:1.5;" x="176.293184" xlink:href="#m6d4a325dbd" y="44.021228"/>
     <use style="fill-opacity:0;stroke:#000080;stroke-width:1.5;" x="338.688" xlink:href="#m6d4a325dbd" y="44.021228"/>
    </g>
   </g>
   <g id="line2d_45">
    <path style="fill:none;stroke:#000080;stroke-linecap:square;stroke-width:1.5;"/>
    <g/>
   </g>
   <g id="line2d_46">
    <defs>
     <path d="M 0 1.5 
C 0.397805 1.5 0.77937 1.341951 1.06066 1.06066 
C 1.341951 0.77937 1.5 0.397805 1.5 0 
C 1.5 -0.397805 1.341951 -0.77937 1.06066 -1.06066 
C 0.77937 -1.341951 0.397805 -1.5 0 -1.5 
C -0.397805 -1.5 -0.77937 -1.341951 -1.06066 -1.06066 
C -1.341951 -0.77937 -1.5 -0.397805 -1.5 0 
C -1.5 0.397805 -1.341951 0.77937 -1.06066 1.06066 
C -0.77937 1.341951 -0.397805 1.5 0 1.5 
z
" id="ma6eef55f1d" style="stroke:#ff00ff;"/>
    </defs>
    <g>
     <use style="fill:#ff00ff;stroke:#ff00ff;" x="307.992741" xlink:href="#ma6eef55f1d" y="69.013656"/>
     <use style="fill:#ff00ff;stroke:#ff00ff;" x="307.992741" xlink:href="#ma6eef55f1d" y="69.013656"/>
    </g>
   </g>
   <g id="line2d_47">
    <path d="M 117.359231 298.944 
L 117.359231 298.444151 
L 117.930605 298.444151 
L 117.930605 297.444454 
L 118.483851 297.444454 
L 118.483851 295.944909 
L 121.013926 295.944909 
L 121.013926 294.445363 
L 121.478699 294.445363 
L 121.478699 292.445969 
L 121.931406 292.445969 
L 121.931406 291.446271 
L 122.372657 291.446271 
L 122.372657 290.446574 
L 122.80302 290.446574 
L 122.80302 288.947029 
L 123.223017 288.947029 
L 123.223017 288.44718 
L 123.633136 288.44718 
L 123.633136 287.447483 
L 124.033832 287.447483 
L 124.033832 286.447786 
L 124.425528 286.447786 
L 124.425528 285.947937 
L 124.808619 285.947937 
L 124.808619 284.94824 
L 125.183475 284.94824 
L 125.183475 282.948846 
L 125.550443 282.948846 
L 125.550443 280.949451 
L 125.909848 280.949451 
L 125.909848 277.95036 
L 126.261995 277.95036 
L 126.261995 277.450511 
L 127.277682 277.450511 
L 127.277682 276.950663 
L 127.60351 276.950663 
L 127.60351 275.950966 
L 128.237455 275.950966 
L 128.237455 273.451723 
L 128.545989 273.451723 
L 128.545989 272.951874 
L 129.728278 272.951874 
L 129.728278 270.452631 
L 130.011737 270.452631 
L 130.011737 266.953691 
L 130.565197 266.953691 
L 130.565197 264.954297 
L 130.835477 264.954297 
L 130.835477 264.454448 
L 132.61851 264.454448 
L 132.61851 263.9546 
L 133.096169 263.9546 
L 133.096169 262.954903 
L 133.33018 262.954903 
L 133.33018 261.955206 
L 138.170504 261.955206 
L 138.170504 260.955508 
L 140.165274 260.955508 
L 140.165274 260.45566 
L 141.083146 260.45566 
L 141.083146 259.955811 
L 142.375276 259.955811 
L 142.375276 258.456266 
L 142.785553 258.456266 
L 142.785553 257.956417 
L 143.053804 257.956417 
L 143.053804 257.456568 
L 143.706918 257.456568 
L 143.706918 256.456871 
L 144.21235 256.456871 
L 144.21235 254.957326 
L 144.336452 254.957326 
L 144.336452 253.45778 
L 144.582038 253.45778 
L 144.582038 252.957931 
L 144.703546 252.957931 
L 144.703546 252.458083 
L 144.824213 252.458083 
L 144.824213 250.958537 
L 145.298702 250.958537 
L 145.298702 250.458688 
L 145.646284 250.458688 
L 145.646284 249.458991 
L 145.874215 249.458991 
L 145.874215 248.459294 
L 145.987073 248.459294 
L 145.987073 247.959446 
L 146.210622 247.959446 
L 146.210622 247.459597 
L 146.540662 247.459597 
L 146.540662 246.959748 
L 146.757269 246.959748 
L 146.864572 245.960051 
L 146.971219 245.960051 
L 146.971219 245.460203 
L 147.182575 245.460203 
L 147.287301 243.960657 
L 147.391401 243.960657 
L 147.391401 243.460808 
L 147.597756 243.460808 
L 147.597756 242.96096 
L 148.003281 242.96096 
L 148.103206 241.461414 
L 148.691022 241.461414 
L 148.787094 238.962171 
L 148.882639 238.962171 
L 148.977663 236.462928 
L 149.072173 236.462928 
L 149.166173 234.963383 
L 149.259669 234.963383 
L 149.352667 233.963685 
L 149.445171 233.963685 
L 149.445171 232.963988 
L 149.628721 232.963988 
L 149.719776 231.464443 
L 149.810358 231.464443 
L 149.810358 230.464745 
L 149.990124 230.464745 
L 150.079316 229.465048 
L 150.431594 229.465048 
L 150.518562 226.965805 
L 150.691209 226.965805 
L 150.776896 223.466865 
L 151.031458 223.466865 
L 151.115493 222.467168 
L 151.199125 222.467168 
L 151.282358 220.467774 
L 151.365195 220.467774 
L 151.447641 218.968228 
L 151.529699 218.968228 
L 151.529699 218.46838 
L 151.692666 218.46838 
L 151.773581 215.969137 
L 151.934295 215.969137 
L 152.0141 212.470197 
L 152.093541 212.470197 
L 152.093541 211.970348 
L 152.251347 211.970348 
L 152.329717 210.970651 
L 152.407737 210.970651 
L 152.485409 208.971257 
L 152.562737 208.971257 
L 152.562737 208.471408 
L 153.019639 208.471408 
L 153.019639 206.971863 
L 153.317722 206.971863 
L 153.391454 203.472923 
L 153.464875 203.472923 
L 153.464875 202.973074 
L 153.610796 202.973074 
L 153.683301 200.473831 
L 153.755507 200.473831 
L 153.755507 199.973983 
L 153.899026 199.973983 
L 153.899026 198.974285 
L 154.530637 198.974285 
L 154.530637 198.474437 
L 154.667942 198.474437 
L 154.736191 197.47474 
L 154.804174 197.47474 
L 154.804174 196.974891 
L 155.206599 196.974891 
L 155.272776 195.475345 
L 155.338703 195.475345 
L 155.338703 194.975497 
L 155.599947 194.975497 
L 155.664651 192.976103 
L 155.729115 192.976103 
L 155.729115 192.476254 
L 155.857335 192.476254 
L 155.857335 191.476557 
L 155.984618 191.476557 
L 156.047913 189.477162 
L 156.110979 189.477162 
L 156.110979 187.977617 
L 156.29882 187.977617 
L 156.29882 187.477768 
L 156.422933 187.477768 
L 156.422933 186.478071 
L 156.668539 186.478071 
L 156.729404 184.478677 
L 157.0902 184.478677 
L 157.0902 183.978828 
L 157.326648 183.978828 
L 157.326648 183.47898 
L 157.675417 183.47898 
L 157.675417 182.479282 
L 158.407973 182.479282 
L 158.407973 181.979434 
L 159.269283 181.979434 
L 159.374016 178.480494 
L 159.426147 178.480494 
L 159.478124 176.4811 
L 159.581614 176.4811 
L 159.581614 175.981251 
L 160.090047 175.981251 
L 160.090047 175.481402 
L 160.289342 175.481402 
L 160.289342 173.981857 
L 160.486384 173.981857 
L 160.486384 172.98216 
L 160.969465 172.98216 
L 160.969465 171.982462 
L 161.253018 171.982462 
L 161.346521 169.983068 
L 161.393084 169.983068 
L 161.439524 168.983371 
L 162.077022 168.983371 
L 162.077022 167.983674 
L 162.299167 167.983674 
L 162.299167 167.483825 
L 162.431109 167.483825 
L 162.518519 165.98428 
L 163.202459 165.98428 
L 163.202459 165.484431 
L 163.698367 165.484431 
L 163.698367 164.984582 
L 163.820172 164.984582 
L 163.820172 164.484734 
L 164.021308 164.484734 
L 164.021308 163.984885 
L 164.416752 163.984885 
L 164.455807 162.985188 
L 165.367825 162.985188 
L 165.367825 162.48534 
L 165.625087 162.48534 
L 165.625087 160.985794 
L 166.093018 160.985794 
L 166.093018 159.986097 
L 166.409769 159.986097 
L 166.409769 159.486248 
L 166.617785 159.486248 
L 166.617785 158.9864 
L 167.026517 158.9864 
L 167.026517 157.486854 
L 167.557006 157.486854 
L 167.557006 156.987005 
L 167.816319 156.987005 
L 167.816319 155.48746 
L 168.135131 155.48746 
L 168.229649 154.487762 
L 170.273138 154.487762 
L 170.273138 153.987914 
L 172.327114 153.987914 
L 172.327114 152.988217 
L 174.605976 152.988217 
L 174.714629 150.988822 
L 174.736278 150.988822 
L 174.779497 149.489277 
L 175.352703 149.489277 
L 175.394423 148.489579 
L 176.406237 148.489579 
L 176.406237 147.989731 
L 177.54768 147.989731 
L 177.602837 144.490791 
L 177.767269 144.490791 
L 177.767269 143.990942 
L 178.233768 143.990942 
L 178.322066 142.991245 
L 178.409919 142.991245 
L 178.479885 140.492002 
L 181.30967 140.492002 
L 181.30967 139.992154 
L 181.965072 139.992154 
L 181.97936 138.992457 
L 182.234569 138.992457 
L 182.234569 138.492608 
L 182.458327 138.492608 
L 182.458327 136.993062 
L 183.601172 136.993062 
L 183.601172 136.493214 
L 184.771337 136.493214 
L 184.856316 132.994274 
L 185.707168 132.994274 
L 185.764741 131.994577 
L 186.341383 131.994577 
L 186.363613 130.994879 
L 186.474337 130.994879 
L 186.573391 127.995788 
L 187.596376 127.995788 
L 187.627397 126.996091 
L 188.076145 126.996091 
L 188.076145 126.496242 
L 191.319314 126.496242 
L 191.352722 124.996697 
L 191.435964 124.996697 
L 191.435964 124.496848 
L 195.012314 124.496848 
L 195.019077 121.997605 
L 202.72523 121.997605 
L 202.768643 117.498968 
L 203.209623 117.498968 
L 203.209623 115.999422 
L 204.426044 115.999422 
L 204.437868 114.999725 
L 205.492795 114.999725 
L 205.526143 114.000028 
L 209.158771 114.000028 
L 209.158771 113.500179 
L 209.290524 113.500179 
L 209.293507 112.000634 
L 210.222734 112.000634 
L 210.239693 110.001239 
L 212.682067 110.001239 
L 212.684523 109.001542 
L 216.044434 109.001542 
L 216.044434 108.501694 
L 216.586775 108.501694 
L 216.586775 107.501997 
L 221.724053 107.501997 
L 221.735747 106.002451 
L 224.146258 106.002451 
L 224.146258 105.502602 
L 227.782599 105.502602 
L 227.782599 105.002754 
L 232.07199 105.002754 
L 232.076167 103.003359 
L 232.517874 103.003359 
L 232.517874 102.503511 
L 234.391588 102.503511 
L 234.391588 102.003662 
L 235.009261 102.003662 
L 235.010626 101.003965 
L 236.311058 101.003965 
L 236.311058 100.504116 
L 236.508235 100.504116 
L 236.596335 99.504419 
L 236.677171 99.504419 
L 236.677171 99.004571 
L 236.992552 99.004571 
L 236.992552 98.504722 
L 237.736208 98.504722 
L 237.736208 98.004874 
L 239.16534 98.004874 
L 239.16534 97.505025 
L 239.299972 97.505025 
L 239.299972 97.005176 
L 239.4908 97.005176 
L 239.4908 96.505328 
L 240.118184 96.505328 
L 240.227337 95.505631 
L 240.246682 95.505631 
L 240.246682 95.005782 
L 240.408212 95.005782 
L 240.408212 94.505934 
L 240.703227 94.505934 
L 240.786749 93.506236 
L 241.100591 93.506236 
L 241.100591 93.006388 
L 242.742223 93.006388 
L 242.742223 92.506539 
L 244.142187 92.506539 
L 244.160777 91.506842 
L 245.80473 91.506842 
L 245.894153 90.507145 
L 245.950077 90.507145 
L 245.950077 90.007296 
L 249.086625 90.007296 
L 249.086625 89.507448 
L 249.682035 89.507448 
L 249.682035 89.007599 
L 250.57018 89.007599 
L 250.57018 88.507751 
L 251.998287 88.507751 
L 251.998287 88.007902 
L 252.665916 88.007902 
L 252.665916 87.508054 
L 255.096091 87.508054 
L 255.096091 87.008205 
L 255.620189 87.008205 
L 255.620189 86.508356 
L 256.664637 86.508356 
L 256.664637 86.008508 
L 256.91524 86.008508 
L 256.91524 85.508659 
L 257.75429 85.508659 
L 257.75429 85.008811 
L 259.730087 85.008811 
L 259.730087 84.508962 
L 261.960564 84.508962 
L 261.960564 84.009114 
L 262.360856 84.009114 
L 262.360856 83.509265 
L 262.925444 83.509265 
L 262.925444 83.009416 
L 263.137745 83.009416 
L 263.137745 82.509568 
L 263.344534 82.509568 
L 263.344534 82.009719 
L 265.079344 82.009719 
L 265.079344 81.509871 
L 267.665726 81.509871 
L 267.665726 81.010022 
L 271.06151 81.010022 
L 271.06151 80.510174 
L 271.654447 80.510174 
L 271.654447 80.010325 
L 272.051379 80.010325 
L 272.051379 79.510476 
L 272.620801 79.510476 
L 272.620801 79.010628 
L 273.007454 79.010628 
L 273.007454 78.510779 
L 275.464557 78.510779 
L 275.516348 77.511082 
L 275.860414 77.511082 
L 275.913072 76.511385 
L 277.870827 76.511385 
L 277.870827 76.011536 
L 279.376232 76.011536 
L 279.376232 75.511688 
L 280.429327 75.511688 
L 280.429327 75.011839 
L 280.574946 75.011839 
L 280.574946 74.511991 
L 281.670091 74.511991 
L 281.670091 74.012142 
L 281.847496 74.012142 
L 281.847496 73.512294 
L 285.30496 73.512294 
L 285.30496 73.012445 
L 290.168039 73.012445 
L 290.168039 72.512596 
L 291.499946 72.512596 
L 291.499946 72.012748 
L 294.601855 72.012748 
L 294.601855 71.512899 
L 294.725325 71.512899 
L 294.725325 71.013051 
L 295.748856 71.013051 
L 295.748856 70.513202 
L 296.196125 70.513202 
L 296.196125 70.013354 
L 302.85587 70.013354 
L 302.85587 69.513505 
L 307.992741 69.513505 
L 307.992741 69.013656 
L 338.688 69.013656 
L 338.688 69.013656 
" style="fill:none;stroke:#ff00ff;stroke-linecap:square;stroke-width:1.5;"/>
   </g>
   <g id="line2d_48">
    <defs>
     <path d="M -0 8.485281 
L 5.091169 0 
L 0 -8.485281 
L -5.091169 -0 
z
" id="m7a65e6b4f8" style="stroke:#ff00ff;stroke-linejoin:miter;stroke-width:1.5;"/>
    </defs>
    <g>
     <use style="fill-opacity:0;stroke:#ff00ff;stroke-linejoin:miter;stroke-width:1.5;" x="156.29882" xlink:href="#m7a65e6b4f8" y="187.477768"/>
     <use style="fill-opacity:0;stroke:#ff00ff;stroke-linejoin:miter;stroke-width:1.5;" x="234.391588" xlink:href="#m7a65e6b4f8" y="102.003662"/>
     <use style="fill-opacity:0;stroke:#ff00ff;stroke-linejoin:miter;stroke-width:1.5;" x="285.30496" xlink:href="#m7a65e6b4f8" y="73.012445"/>
     <use style="fill-opacity:0;stroke:#ff00ff;stroke-linejoin:miter;stroke-width:1.5;" x="307.992741" xlink:href="#m7a65e6b4f8" y="69.013656"/>
     <use style="fill-opacity:0;stroke:#ff00ff;stroke-linejoin:miter;stroke-width:1.5;" x="338.688" xlink:href="#m7a65e6b4f8" y="69.013656"/>
    </g>
   </g>
   <g id="line2d_49">
    <path style="fill:none;stroke:#ff00ff;stroke-linecap:square;stroke-width:1.5;"/>
    <g/>
   </g>
   <g id="line2d_50">
    <path clip-path="url(#p7560676e97)" d="M 235.811054 101.003965 
" style="fill:none;stroke:#ff00ff;stroke-linecap:square;stroke-width:1.5;"/>
    <defs>
     <path d="M -12 12 
L 12 -12 
M -12 -12 
L 12 12 
" id="mb8e375ac68" style="stroke:#ff00ff;"/>
    </defs>
    <g clip-path="url(#p7560676e97)">
     <use style="fill:#ff00ff;stroke:#ff00ff;" x="235.811054" xlink:href="#mb8e375ac68" y="101.003965"/>
    </g>
   </g>
   <g id="line2d_51">
    <defs>
     <path d="M 0 1.5 
C 0.397805 1.5 0.77937 1.341951 1.06066 1.06066 
C 1.341951 0.77937 1.5 0.397805 1.5 0 
C 1.5 -0.397805 1.341951 -0.77937 1.06066 -1.06066 
C 0.77937 -1.341951 0.397805 -1.5 0 -1.5 
C -0.397805 -1.5 -0.77937 -1.341951 -1.06066 -1.06066 
C -1.341951 -0.77937 -1.5 -0.397805 -1.5 0 
C -1.5 0.397805 -1.341951 0.77937 -1.06066 1.06066 
C -0.77937 1.341951 -0.397805 1.5 0 1.5 
z
" id="m4479c0d26e" style="stroke:#00bfbf;"/>
    </defs>
    <g>
     <use style="fill:#00bfbf;stroke:#00bfbf;" x="211.31429" xlink:href="#m4479c0d26e" y="44.021228"/>
     <use style="fill:#00bfbf;stroke:#00bfbf;" x="211.31429" xlink:href="#m4479c0d26e" y="44.021228"/>
    </g>
   </g>
   <g id="line2d_52">
    <path d="M 140.745506 298.944 
L 140.745506 298.444151 
L 145.005114 298.444151 
L 145.005114 295.44506 
L 145.126602 295.44506 
L 145.126602 293.445666 
L 145.48607 293.445666 
L 145.48607 290.446574 
L 145.604265 290.446574 
L 145.604265 286.947634 
L 145.721664 286.947634 
L 145.721664 284.448391 
L 145.838278 284.448391 
L 145.838278 280.949451 
L 145.954117 280.949451 
L 145.954117 278.950057 
L 146.069192 278.950057 
L 146.069192 277.95036 
L 146.183513 277.95036 
L 146.183513 276.950663 
L 146.522046 276.950663 
L 146.522046 275.451117 
L 147.287301 275.451117 
L 147.287301 273.451723 
L 147.917524 273.451723 
L 147.917524 270.95248 
L 148.919783 270.95248 
L 148.919783 269.952783 
L 149.588594 269.952783 
L 149.682079 267.953388 
L 149.867558 267.953388 
L 149.867558 266.953691 
L 150.142129 266.953691 
L 150.142129 266.453843 
L 150.501627 266.453843 
L 150.501627 265.953994 
L 150.853863 265.953994 
L 150.940821 262.954903 
L 151.027348 262.954903 
L 151.027348 261.955206 
L 151.199125 261.955206 
L 151.199125 260.955508 
L 151.453659 260.955508 
L 151.453659 259.955811 
L 151.70453 259.955811 
L 151.787359 255.457174 
L 152.1957 255.457174 
L 152.1957 253.45778 
L 152.436193 253.45778 
L 152.436193 252.458083 
L 152.594699 252.458083 
L 152.594699 251.458386 
L 152.751777 251.458386 
L 152.751777 250.958537 
L 152.984773 250.958537 
L 152.984773 248.459294 
L 153.214697 248.459294 
L 153.214697 246.959748 
L 153.366312 246.959748 
L 153.441628 243.460808 
L 153.516621 243.460808 
L 153.516621 242.96096 
L 153.739682 242.96096 
L 153.813407 241.461414 
L 153.959927 241.461414 
L 154.032728 235.463231 
L 154.105226 235.463231 
L 154.105226 234.963383 
L 154.249325 234.963383 
L 154.32093 230.464745 
L 154.392243 230.464745 
L 154.463265 228.465351 
L 154.533999 228.465351 
L 154.533999 227.965503 
L 154.674612 227.965503 
L 154.744496 224.966411 
L 154.8141 224.966411 
L 154.883428 221.467471 
L 154.952482 221.467471 
L 154.955763 219.468077 
L 155.158017 219.468077 
L 155.158017 217.968531 
L 155.428349 217.968531 
L 155.428349 217.468683 
L 155.760475 217.468683 
L 155.826148 214.469591 
L 156.215076 214.469591 
L 156.282103 211.4705 
L 156.532685 211.4705 
L 156.532685 210.470803 
L 156.782672 210.470803 
L 156.782672 209.471105 
L 156.906335 209.471105 
L 156.906335 207.471711 
L 157.211708 207.471711 
L 157.272146 205.972165 
L 157.630442 205.972165 
L 157.692253 202.473225 
L 157.86528 202.473225 
L 157.86528 199.973983 
L 158.096998 199.973983 
L 158.15445 195.975194 
L 158.325678 195.975194 
L 158.325678 194.475648 
L 158.438903 194.475648 
L 158.438903 193.9758 
L 158.551397 193.9758 
L 158.551397 191.476557 
L 158.774233 191.476557 
L 158.829499 187.977617 
L 158.994256 187.977617 
L 159.103236 180.479888 
L 159.265439 180.479888 
L 159.372742 177.480797 
L 159.426147 177.480797 
L 159.479389 175.981251 
L 159.585388 175.981251 
L 159.638147 171.982462 
L 159.743188 171.982462 
L 159.745682 168.483522 
L 159.899573 168.483522 
L 159.951391 166.983977 
L 160.105929 166.983977 
L 160.105929 164.484734 
L 160.259108 164.484734 
L 160.309871 161.985491 
L 160.410954 161.985491 
L 160.511455 157.986702 
L 160.56149 157.986702 
L 160.661129 153.488065 
L 160.713095 153.488065 
L 160.80953 151.98852 
L 160.858717 151.98852 
L 160.956678 147.989731 
L 161.005452 147.989731 
L 161.005452 146.990034 
L 161.150963 146.990034 
L 161.199199 144.490791 
L 161.29527 144.490791 
L 161.390816 140.991851 
L 161.438393 140.991851 
L 161.488097 137.992759 
L 161.580351 137.992759 
L 161.674351 136.493214 
L 161.721162 136.493214 
L 161.767848 135.493517 
L 161.907159 135.493517 
L 161.95335 130.495031 
L 162.091193 130.495031 
L 162.182487 125.996394 
L 162.227956 125.996394 
L 162.318538 122.497454 
L 162.408653 122.497454 
L 162.498304 118.998514 
L 162.587497 118.998514 
L 162.676236 114.000028 
L 162.720437 114.000028 
L 162.808504 109.501391 
L 162.852371 109.501391 
L 162.896128 104.003056 
L 162.983314 104.003056 
L 163.070067 99.504419 
L 163.113282 99.504419 
L 163.199392 94.505934 
L 163.327764 94.505934 
L 163.370346 92.006691 
L 163.497471 92.006691 
L 163.541647 88.507751 
L 164.40435 88.507751 
L 164.40435 87.508054 
L 164.761403 87.508054 
L 164.761403 86.508356 
L 164.995441 86.508356 
L 164.995441 85.008811 
L 165.302685 85.008811 
L 165.302685 84.009114 
L 165.753633 84.009114 
L 165.864572 83.009416 
L 165.974809 83.009416 
L 165.974809 82.509568 
L 166.120716 82.509568 
L 166.229351 80.510174 
L 166.337313 80.510174 
L 166.444611 78.510779 
L 166.621987 78.510779 
L 166.621987 78.010931 
L 166.7626 78.010931 
L 166.867321 75.011839 
L 167.04047 75.011839 
L 167.04047 74.012142 
L 167.177763 74.012142 
L 167.177763 73.012445 
L 167.347872 73.012445 
L 167.415453 71.013051 
L 167.616641 71.013051 
L 167.716371 69.013656 
L 167.848464 69.013656 
L 167.946881 65.014868 
L 168.012185 65.014868 
L 168.109685 62.515625 
L 168.206643 62.515625 
L 168.206643 61.515928 
L 168.335087 61.515928 
L 168.430803 59.516533 
L 168.652119 59.516533 
L 168.652119 57.017291 
L 168.839608 57.017291 
L 168.932602 54.518048 
L 169.055827 54.518048 
L 169.055827 53.518351 
L 169.178188 53.518351 
L 169.178188 52.018805 
L 178.696104 52.018805 
L 178.749009 51.019108 
L 179.011152 51.019108 
L 179.028489 50.019411 
L 180.212329 50.019411 
L 180.293096 48.519865 
L 189.48342 48.519865 
L 189.48342 47.520168 
L 196.999011 47.520168 
L 197.103814 45.520773 
L 200.090921 45.520773 
L 200.090921 44.521076 
L 211.31429 44.521076 
L 211.31429 44.021228 
L 338.688 44.021228 
L 338.688 44.021228 
" style="fill:none;stroke:#00bfbf;stroke-linecap:square;stroke-width:1.5;"/>
   </g>
   <g id="line2d_53">
    <defs>
     <path d="M 0 -6 
L -5.706339 -1.854102 
L -3.526712 4.854102 
L 3.526712 4.854102 
L 5.706339 -1.854102 
z
" id="m16229e85b9" style="stroke:#00bfbf;stroke-linejoin:miter;stroke-width:1.5;"/>
    </defs>
    <g>
     <use style="fill-opacity:0;stroke:#00bfbf;stroke-linejoin:miter;stroke-width:1.5;" x="154.955763" xlink:href="#m16229e85b9" y="220.467774"/>
     <use style="fill-opacity:0;stroke:#00bfbf;stroke-linejoin:miter;stroke-width:1.5;" x="169.055827" xlink:href="#m16229e85b9" y="53.518351"/>
     <use style="fill-opacity:0;stroke:#00bfbf;stroke-linejoin:miter;stroke-width:1.5;" x="211.31429" xlink:href="#m16229e85b9" y="44.521076"/>
     <use style="fill-opacity:0;stroke:#00bfbf;stroke-linejoin:miter;stroke-width:1.5;" x="211.31429" xlink:href="#m16229e85b9" y="44.021228"/>
     <use style="fill-opacity:0;stroke:#00bfbf;stroke-linejoin:miter;stroke-width:1.5;" x="338.688" xlink:href="#m16229e85b9" y="44.021228"/>
    </g>
   </g>
   <g id="line2d_54">
    <path style="fill:none;stroke:#00bfbf;stroke-linecap:square;stroke-width:1.5;"/>
    <g/>
   </g>
   <g id="line2d_55">
    <path d="M 338.688 69.013656 
L 369.60768 293.845545 
" style="fill:none;stroke:#ff00ff;stroke-linecap:square;stroke-width:1.5;"/>
    <g>
     <use style="fill-opacity:0;stroke:#ff00ff;stroke-linejoin:miter;stroke-width:1.5;" x="338.688" xlink:href="#m7a65e6b4f8" y="69.013656"/>
     <use style="fill-opacity:0;stroke:#ff00ff;stroke-linejoin:miter;stroke-width:1.5;" x="369.60768" xlink:href="#m7a65e6b4f8" y="293.845545"/>
    </g>
   </g>
   <g id="line2d_56">
    <path d="M 338.688 44.021228 
L 369.60768 212.270257 
" style="fill:none;stroke:#00bfbf;stroke-linecap:square;stroke-width:1.5;"/>
    <g>
     <use style="fill-opacity:0;stroke:#00bfbf;stroke-linejoin:miter;stroke-width:1.5;" x="338.688" xlink:href="#m16229e85b9" y="44.021228"/>
     <use style="fill-opacity:0;stroke:#00bfbf;stroke-linejoin:miter;stroke-width:1.5;" x="369.60768" xlink:href="#m16229e85b9" y="212.270257"/>
    </g>
   </g>
   <g id="line2d_57">
    <path d="M 338.688 44.021228 
L 369.60768 130.69497 
" style="fill:none;stroke:#000080;stroke-linecap:square;stroke-width:1.5;"/>
    <g>
     <use style="fill-opacity:0;stroke:#000080;stroke-width:1.5;" x="338.688" xlink:href="#m6d4a325dbd" y="44.021228"/>
     <use style="fill-opacity:0;stroke:#000080;stroke-width:1.5;" x="369.60768" xlink:href="#m6d4a325dbd" y="130.69497"/>
    </g>
   </g>
   <g id="line2d_58">
    <path d="M 338.688 298.944 
L 338.688 44.021228 
" style="fill:none;stroke:#000000;stroke-linecap:square;stroke-width:1.5;"/>
   </g>
   <g id="patch_3">
    <path d="M 57.6 298.944 
L 57.6 41.472 
" style="fill:none;stroke:#000000;stroke-linecap:square;stroke-linejoin:miter;stroke-width:0.8;"/>
   </g>
   <g id="patch_4">
    <path d="M 338.688 298.944 
L 338.688 41.472 
" style="fill:none;stroke:#000000;stroke-linecap:square;stroke-linejoin:miter;stroke-width:0.8;"/>
   </g>
   <g id="patch_5">
    <path d="M 57.6 298.944 
L 338.688 298.944 
" style="fill:none;stroke:#000000;stroke-linecap:square;stroke-linejoin:miter;stroke-width:0.8;"/>
   </g>
   <g id="patch_6">
    <path d="M 57.6 41.472 
L 338.688 41.472 
" style="fill:none;stroke:#000000;stroke-linecap:square;stroke-linejoin:miter;stroke-width:0.8;"/>
   </g>
   <g id="text_13">
    <!-- BFGS ros  -->
    <defs>
     <path d="M 19.671875 34.8125 
L 19.671875 8.109375 
L 35.5 8.109375 
Q 43.453125 8.109375 47.28125 11.40625 
Q 51.125 14.703125 51.125 21.484375 
Q 51.125 28.328125 47.28125 31.5625 
Q 43.453125 34.8125 35.5 34.8125 
z
M 19.671875 64.796875 
L 19.671875 42.828125 
L 34.28125 42.828125 
Q 41.5 42.828125 45.03125 45.53125 
Q 48.578125 48.25 48.578125 53.8125 
Q 48.578125 59.328125 45.03125 62.0625 
Q 41.5 64.796875 34.28125 64.796875 
z
M 9.8125 72.90625 
L 35.015625 72.90625 
Q 46.296875 72.90625 52.390625 68.21875 
Q 58.5 63.53125 58.5 54.890625 
Q 58.5 48.1875 55.375 44.234375 
Q 52.25 40.28125 46.1875 39.3125 
Q 53.46875 37.75 57.5 32.78125 
Q 61.53125 27.828125 61.53125 20.40625 
Q 61.53125 10.640625 54.890625 5.3125 
Q 48.25 0 35.984375 0 
L 9.8125 0 
z
" id="DejaVuSans-66"/>
     <path d="M 59.515625 10.40625 
L 59.515625 29.984375 
L 43.40625 29.984375 
L 43.40625 38.09375 
L 69.28125 38.09375 
L 69.28125 6.78125 
Q 63.578125 2.734375 56.6875 0.65625 
Q 49.8125 -1.421875 42 -1.421875 
Q 24.90625 -1.421875 15.25 8.5625 
Q 5.609375 18.5625 5.609375 36.375 
Q 5.609375 54.25 15.25 64.234375 
Q 24.90625 74.21875 42 74.21875 
Q 49.125 74.21875 55.546875 72.453125 
Q 61.96875 70.703125 67.390625 67.28125 
L 67.390625 56.78125 
Q 61.921875 61.421875 55.765625 63.765625 
Q 49.609375 66.109375 42.828125 66.109375 
Q 29.4375 66.109375 22.71875 58.640625 
Q 16.015625 51.171875 16.015625 36.375 
Q 16.015625 21.625 22.71875 14.15625 
Q 29.4375 6.6875 42.828125 6.6875 
Q 48.046875 6.6875 52.140625 7.59375 
Q 56.25 8.5 59.515625 10.40625 
z
" id="DejaVuSans-71"/>
     <path d="M 53.515625 70.515625 
L 53.515625 60.890625 
Q 47.90625 63.578125 42.921875 64.890625 
Q 37.9375 66.21875 33.296875 66.21875 
Q 25.25 66.21875 20.875 63.09375 
Q 16.5 59.96875 16.5 54.203125 
Q 16.5 49.359375 19.40625 46.890625 
Q 22.3125 44.4375 30.421875 42.921875 
L 36.375 41.703125 
Q 47.40625 39.59375 52.65625 34.296875 
Q 57.90625 29 57.90625 20.125 
Q 57.90625 9.515625 50.796875 4.046875 
Q 43.703125 -1.421875 29.984375 -1.421875 
Q 24.8125 -1.421875 18.96875 -0.25 
Q 13.140625 0.921875 6.890625 3.21875 
L 6.890625 13.375 
Q 12.890625 10.015625 18.65625 8.296875 
Q 24.421875 6.59375 29.984375 6.59375 
Q 38.421875 6.59375 43.015625 9.90625 
Q 47.609375 13.234375 47.609375 19.390625 
Q 47.609375 24.75 44.3125 27.78125 
Q 41.015625 30.8125 33.5 32.328125 
L 27.484375 33.5 
Q 16.453125 35.6875 11.515625 40.375 
Q 6.59375 45.0625 6.59375 53.421875 
Q 6.59375 63.09375 13.40625 68.65625 
Q 20.21875 74.21875 32.171875 74.21875 
Q 37.3125 74.21875 42.625 73.28125 
Q 47.953125 72.359375 53.515625 70.515625 
z
" id="DejaVuSans-83"/>
    </defs>
    <g transform="translate(375.22944 298.536482)scale(0.17 -0.17)">
     <use xlink:href="#DejaVuSans-66"/>
     <use x="68.603516" xlink:href="#DejaVuSans-70"/>
     <use x="126.123047" xlink:href="#DejaVuSans-71"/>
     <use x="203.613281" xlink:href="#DejaVuSans-83"/>
     <use x="267.089844" xlink:href="#DejaVuSans-32"/>
     <use x="298.876953" xlink:href="#DejaVuSans-114"/>
     <use x="339.958984" xlink:href="#DejaVuSans-111"/>
     <use x="401.140625" xlink:href="#DejaVuSans-115"/>
     <use x="453.240234" xlink:href="#DejaVuSans-32"/>
    </g>
   </g>
   <g id="text_14">
    <!-- BFGS-P-St -->
    <defs>
     <path d="M 19.671875 64.796875 
L 19.671875 37.40625 
L 32.078125 37.40625 
Q 38.96875 37.40625 42.71875 40.96875 
Q 46.484375 44.53125 46.484375 51.125 
Q 46.484375 57.671875 42.71875 61.234375 
Q 38.96875 64.796875 32.078125 64.796875 
z
M 9.8125 72.90625 
L 32.078125 72.90625 
Q 44.34375 72.90625 50.609375 67.359375 
Q 56.890625 61.8125 56.890625 51.125 
Q 56.890625 40.328125 50.609375 34.8125 
Q 44.34375 29.296875 32.078125 29.296875 
L 19.671875 29.296875 
L 19.671875 0 
L 9.8125 0 
z
" id="DejaVuSans-80"/>
    </defs>
    <g transform="translate(375.22944 216.961195)scale(0.17 -0.17)">
     <use xlink:href="#DejaVuSans-66"/>
     <use x="68.603516" xlink:href="#DejaVuSans-70"/>
     <use x="126.123047" xlink:href="#DejaVuSans-71"/>
     <use x="203.613281" xlink:href="#DejaVuSans-83"/>
     <use x="267.089844" xlink:href="#DejaVuSans-45"/>
     <use x="303.173828" xlink:href="#DejaVuSans-80"/>
     <use x="363.445312" xlink:href="#DejaVuSans-45"/>
     <use x="399.529297" xlink:href="#DejaVuSans-83"/>
     <use x="463.005859" xlink:href="#DejaVuSans-116"/>
    </g>
   </g>
   <g id="text_15">
    <!-- NEWUOA ro -->
    <defs>
     <path d="M 9.8125 72.90625 
L 23.09375 72.90625 
L 55.421875 11.921875 
L 55.421875 72.90625 
L 64.984375 72.90625 
L 64.984375 0 
L 51.703125 0 
L 19.390625 60.984375 
L 19.390625 0 
L 9.8125 0 
z
" id="DejaVuSans-78"/>
     <path d="M 9.8125 72.90625 
L 55.90625 72.90625 
L 55.90625 64.59375 
L 19.671875 64.59375 
L 19.671875 43.015625 
L 54.390625 43.015625 
L 54.390625 34.71875 
L 19.671875 34.71875 
L 19.671875 8.296875 
L 56.78125 8.296875 
L 56.78125 0 
L 9.8125 0 
z
" id="DejaVuSans-69"/>
     <path d="M 3.328125 72.90625 
L 13.28125 72.90625 
L 28.609375 11.28125 
L 43.890625 72.90625 
L 54.984375 72.90625 
L 70.3125 11.28125 
L 85.59375 72.90625 
L 95.609375 72.90625 
L 77.296875 0 
L 64.890625 0 
L 49.515625 63.28125 
L 33.984375 0 
L 21.578125 0 
z
" id="DejaVuSans-87"/>
     <path d="M 8.6875 72.90625 
L 18.609375 72.90625 
L 18.609375 28.609375 
Q 18.609375 16.890625 22.84375 11.734375 
Q 27.09375 6.59375 36.625 6.59375 
Q 46.09375 6.59375 50.34375 11.734375 
Q 54.59375 16.890625 54.59375 28.609375 
L 54.59375 72.90625 
L 64.5 72.90625 
L 64.5 27.390625 
Q 64.5 13.140625 57.4375 5.859375 
Q 50.390625 -1.421875 36.625 -1.421875 
Q 22.796875 -1.421875 15.734375 5.859375 
Q 8.6875 13.140625 8.6875 27.390625 
z
" id="DejaVuSans-85"/>
     <path d="M 39.40625 66.21875 
Q 28.65625 66.21875 22.328125 58.203125 
Q 16.015625 50.203125 16.015625 36.375 
Q 16.015625 22.609375 22.328125 14.59375 
Q 28.65625 6.59375 39.40625 6.59375 
Q 50.140625 6.59375 56.421875 14.59375 
Q 62.703125 22.609375 62.703125 36.375 
Q 62.703125 50.203125 56.421875 58.203125 
Q 50.140625 66.21875 39.40625 66.21875 
z
M 39.40625 74.21875 
Q 54.734375 74.21875 63.90625 63.9375 
Q 73.09375 53.65625 73.09375 36.375 
Q 73.09375 19.140625 63.90625 8.859375 
Q 54.734375 -1.421875 39.40625 -1.421875 
Q 24.03125 -1.421875 14.8125 8.828125 
Q 5.609375 19.09375 5.609375 36.375 
Q 5.609375 53.65625 14.8125 63.9375 
Q 24.03125 74.21875 39.40625 74.21875 
z
" id="DejaVuSans-79"/>
     <path d="M 34.1875 63.1875 
L 20.796875 26.90625 
L 47.609375 26.90625 
z
M 28.609375 72.90625 
L 39.796875 72.90625 
L 67.578125 0 
L 57.328125 0 
L 50.6875 18.703125 
L 17.828125 18.703125 
L 11.1875 0 
L 0.78125 0 
z
" id="DejaVuSans-65"/>
    </defs>
    <g transform="translate(375.22944 135.385908)scale(0.17 -0.17)">
     <use xlink:href="#DejaVuSans-78"/>
     <use x="74.804688" xlink:href="#DejaVuSans-69"/>
     <use x="137.988281" xlink:href="#DejaVuSans-87"/>
     <use x="236.865234" xlink:href="#DejaVuSans-85"/>
     <use x="310.058594" xlink:href="#DejaVuSans-79"/>
     <use x="388.753906" xlink:href="#DejaVuSans-65"/>
     <use x="457.162109" xlink:href="#DejaVuSans-32"/>
     <use x="488.949219" xlink:href="#DejaVuSans-114"/>
     <use x="530.03125" xlink:href="#DejaVuSans-111"/>
    </g>
   </g>
   <g id="text_16">
    <!-- best 2009 -->
    <defs>
     <path d="M 48.6875 27.296875 
Q 48.6875 37.203125 44.609375 42.84375 
Q 40.53125 48.484375 33.40625 48.484375 
Q 26.265625 48.484375 22.1875 42.84375 
Q 18.109375 37.203125 18.109375 27.296875 
Q 18.109375 17.390625 22.1875 11.75 
Q 26.265625 6.109375 33.40625 6.109375 
Q 40.53125 6.109375 44.609375 11.75 
Q 48.6875 17.390625 48.6875 27.296875 
z
M 18.109375 46.390625 
Q 20.953125 51.265625 25.265625 53.625 
Q 29.59375 56 35.59375 56 
Q 45.5625 56 51.78125 48.09375 
Q 58.015625 40.1875 58.015625 27.296875 
Q 58.015625 14.40625 51.78125 6.484375 
Q 45.5625 -1.421875 35.59375 -1.421875 
Q 29.59375 -1.421875 25.265625 0.953125 
Q 20.953125 3.328125 18.109375 8.203125 
L 18.109375 0 
L 9.078125 0 
L 9.078125 75.984375 
L 18.109375 75.984375 
z
" id="DejaVuSans-98"/>
     <path d="M 10.984375 1.515625 
L 10.984375 10.5 
Q 14.703125 8.734375 18.5 7.8125 
Q 22.3125 6.890625 25.984375 6.890625 
Q 35.75 6.890625 40.890625 13.453125 
Q 46.046875 20.015625 46.78125 33.40625 
Q 43.953125 29.203125 39.59375 26.953125 
Q 35.25 24.703125 29.984375 24.703125 
Q 19.046875 24.703125 12.671875 31.3125 
Q 6.296875 37.9375 6.296875 49.421875 
Q 6.296875 60.640625 12.9375 67.421875 
Q 19.578125 74.21875 30.609375 74.21875 
Q 43.265625 74.21875 49.921875 64.515625 
Q 56.59375 54.828125 56.59375 36.375 
Q 56.59375 19.140625 48.40625 8.859375 
Q 40.234375 -1.421875 26.421875 -1.421875 
Q 22.703125 -1.421875 18.890625 -0.6875 
Q 15.09375 0.046875 10.984375 1.515625 
z
M 30.609375 32.421875 
Q 37.25 32.421875 41.125 36.953125 
Q 45.015625 41.5 45.015625 49.421875 
Q 45.015625 57.28125 41.125 61.84375 
Q 37.25 66.40625 30.609375 66.40625 
Q 23.96875 66.40625 20.09375 61.84375 
Q 16.21875 57.28125 16.21875 49.421875 
Q 16.21875 41.5 20.09375 36.953125 
Q 23.96875 32.421875 30.609375 32.421875 
z
" id="DejaVuSans-57"/>
    </defs>
    <g transform="translate(375.22944 53.810621)scale(0.17 -0.17)">
     <use xlink:href="#DejaVuSans-98"/>
     <use x="63.476562" xlink:href="#DejaVuSans-101"/>
     <use x="125" xlink:href="#DejaVuSans-115"/>
     <use x="177.099609" xlink:href="#DejaVuSans-116"/>
     <use x="216.308594" xlink:href="#DejaVuSans-32"/>
     <use x="248.095703" xlink:href="#DejaVuSans-50"/>
     <use x="311.71875" xlink:href="#DejaVuSans-48"/>
     <use x="375.341797" xlink:href="#DejaVuSans-48"/>
     <use x="438.964844" xlink:href="#DejaVuSans-57"/>
    </g>
   </g>
   <g id="text_17">
    <!-- bbob f12, 40-D -->
    <defs>
     <path d="M 19.671875 64.796875 
L 19.671875 8.109375 
L 31.59375 8.109375 
Q 46.6875 8.109375 53.6875 14.9375 
Q 60.6875 21.78125 60.6875 36.53125 
Q 60.6875 51.171875 53.6875 57.984375 
Q 46.6875 64.796875 31.59375 64.796875 
z
M 9.8125 72.90625 
L 30.078125 72.90625 
Q 51.265625 72.90625 61.171875 64.09375 
Q 71.09375 55.28125 71.09375 36.53125 
Q 71.09375 17.671875 61.125 8.828125 
Q 51.171875 0 30.078125 0 
L 9.8125 0 
z
" id="DejaVuSans-68"/>
    </defs>
    <g transform="translate(60.41088 51.797126)scale(0.102 -0.102)">
     <use xlink:href="#DejaVuSans-98"/>
     <use x="63.476562" xlink:href="#DejaVuSans-98"/>
     <use x="126.953125" xlink:href="#DejaVuSans-111"/>
     <use x="188.134766" xlink:href="#DejaVuSans-98"/>
     <use x="251.611328" xlink:href="#DejaVuSans-32"/>
     <use x="283.398438" xlink:href="#DejaVuSans-102"/>
     <use x="318.603516" xlink:href="#DejaVuSans-49"/>
     <use x="382.226562" xlink:href="#DejaVuSans-50"/>
     <use x="445.849609" xlink:href="#DejaVuSans-44"/>
     <use x="477.636719" xlink:href="#DejaVuSans-32"/>
     <use x="509.423828" xlink:href="#DejaVuSans-52"/>
     <use x="573.046875" xlink:href="#DejaVuSans-48"/>
     <use x="636.669922" xlink:href="#DejaVuSans-45"/>
     <use x="672.753906" xlink:href="#DejaVuSans-68"/>
    </g>
    <!-- 51 targets: 100..1e-08 -->
    <defs>
     <path d="M 10.796875 72.90625 
L 49.515625 72.90625 
L 49.515625 64.59375 
L 19.828125 64.59375 
L 19.828125 46.734375 
Q 21.96875 47.46875 24.109375 47.828125 
Q 26.265625 48.1875 28.421875 48.1875 
Q 40.625 48.1875 47.75 41.5 
Q 54.890625 34.8125 54.890625 23.390625 
Q 54.890625 11.625 47.5625 5.09375 
Q 40.234375 -1.421875 26.90625 -1.421875 
Q 22.3125 -1.421875 17.546875 -0.640625 
Q 12.796875 0.140625 7.71875 1.703125 
L 7.71875 11.625 
Q 12.109375 9.234375 16.796875 8.0625 
Q 21.484375 6.890625 26.703125 6.890625 
Q 35.15625 6.890625 40.078125 11.328125 
Q 45.015625 15.765625 45.015625 23.390625 
Q 45.015625 31 40.078125 35.4375 
Q 35.15625 39.890625 26.703125 39.890625 
Q 22.75 39.890625 18.8125 39.015625 
Q 14.890625 38.140625 10.796875 36.28125 
z
" id="DejaVuSans-53"/>
     <path d="M 11.71875 12.40625 
L 22.015625 12.40625 
L 22.015625 0 
L 11.71875 0 
z
M 11.71875 51.703125 
L 22.015625 51.703125 
L 22.015625 39.3125 
L 11.71875 39.3125 
z
" id="DejaVuSans-58"/>
    </defs>
    <g transform="translate(60.41088 63.218895)scale(0.102 -0.102)">
     <use xlink:href="#DejaVuSans-53"/>
     <use x="63.623047" xlink:href="#DejaVuSans-49"/>
     <use x="127.246094" xlink:href="#DejaVuSans-32"/>
     <use x="159.033203" xlink:href="#DejaVuSans-116"/>
     <use x="198.242188" xlink:href="#DejaVuSans-97"/>
     <use x="259.521484" xlink:href="#DejaVuSans-114"/>
     <use x="300.619141" xlink:href="#DejaVuSans-103"/>
     <use x="364.095703" xlink:href="#DejaVuSans-101"/>
     <use x="425.619141" xlink:href="#DejaVuSans-116"/>
     <use x="464.828125" xlink:href="#DejaVuSans-115"/>
     <use x="516.927734" xlink:href="#DejaVuSans-58"/>
     <use x="550.619141" xlink:href="#DejaVuSans-32"/>
     <use x="582.40625" xlink:href="#DejaVuSans-49"/>
     <use x="646.029297" xlink:href="#DejaVuSans-48"/>
     <use x="709.652344" xlink:href="#DejaVuSans-48"/>
     <use x="773.275391" xlink:href="#DejaVuSans-46"/>
     <use x="805.0625" xlink:href="#DejaVuSans-46"/>
     <use x="836.849609" xlink:href="#DejaVuSans-49"/>
     <use x="900.472656" xlink:href="#DejaVuSans-101"/>
     <use x="961.996094" xlink:href="#DejaVuSans-45"/>
     <use x="998.080078" xlink:href="#DejaVuSans-48"/>
     <use x="1061.703125" xlink:href="#DejaVuSans-56"/>
    </g>
    <!-- 15 instances -->
    <g transform="translate(60.41088 74.640664)scale(0.102 -0.102)">
     <use xlink:href="#DejaVuSans-49"/>
     <use x="63.623047" xlink:href="#DejaVuSans-53"/>
     <use x="127.246094" xlink:href="#DejaVuSans-32"/>
     <use x="159.033203" xlink:href="#DejaVuSans-105"/>
     <use x="186.816406" xlink:href="#DejaVuSans-110"/>
     <use x="250.195312" xlink:href="#DejaVuSans-115"/>
     <use x="302.294922" xlink:href="#DejaVuSans-116"/>
     <use x="341.503906" xlink:href="#DejaVuSans-97"/>
     <use x="402.783203" xlink:href="#DejaVuSans-110"/>
     <use x="466.162109" xlink:href="#DejaVuSans-99"/>
     <use x="521.142578" xlink:href="#DejaVuSans-101"/>
     <use x="582.666016" xlink:href="#DejaVuSans-115"/>
    </g>
   </g>
   <g id="text_18">
    <!-- v2.2.1.244 -->
    <g style="fill:#808080;" transform="translate(171.329937 294.289592)scale(0.1 -0.1)">
     <use xlink:href="#DejaVuSans-118"/>
     <use x="59.179688" xlink:href="#DejaVuSans-50"/>
     <use x="122.802734" xlink:href="#DejaVuSans-46"/>
     <use x="154.589844" xlink:href="#DejaVuSans-50"/>
     <use x="218.212891" xlink:href="#DejaVuSans-46"/>
     <use x="250" xlink:href="#DejaVuSans-49"/>
     <use x="313.623047" xlink:href="#DejaVuSans-46"/>
     <use x="345.410156" xlink:href="#DejaVuSans-50"/>
     <use x="409.033203" xlink:href="#DejaVuSans-52"/>
     <use x="472.65625" xlink:href="#DejaVuSans-52"/>
    </g>
   </g>
   <g id="text_19">
    <!-- 12 Bent cigar -->
    <g transform="translate(130.926812 35.472)scale(0.2 -0.2)">
     <use xlink:href="#DejaVuSans-49"/>
     <use x="63.623047" xlink:href="#DejaVuSans-50"/>
     <use x="127.246094" xlink:href="#DejaVuSans-32"/>
     <use x="159.033203" xlink:href="#DejaVuSans-66"/>
     <use x="227.636719" xlink:href="#DejaVuSans-101"/>
     <use x="289.160156" xlink:href="#DejaVuSans-110"/>
     <use x="352.539062" xlink:href="#DejaVuSans-116"/>
     <use x="391.748047" xlink:href="#DejaVuSans-32"/>
     <use x="423.535156" xlink:href="#DejaVuSans-99"/>
     <use x="478.515625" xlink:href="#DejaVuSans-105"/>
     <use x="506.298828" xlink:href="#DejaVuSans-103"/>
     <use x="569.775391" xlink:href="#DejaVuSans-97"/>
     <use x="631.054688" xlink:href="#DejaVuSans-114"/>
    </g>
   </g>
  </g>
 </g>
 <defs>
  <clipPath id="p7560676e97">
   <rect height="257.472" width="281.088" x="57.6" y="41.472"/>
  </clipPath>
 </defs>
</svg>
