<?xml version="1.0" encoding="utf-8" standalone="no"?>
<!DOCTYPE svg PUBLIC "-//W3C//DTD SVG 1.1//EN"
  "http://www.w3.org/Graphics/SVG/1.1/DTD/svg11.dtd">
<!-- Created with matplotlib (https://matplotlib.org/) -->
<svg height="345.6pt" version="1.1" viewBox="0 0 460.8 345.6" width="460.8pt" xmlns="http://www.w3.org/2000/svg" xmlns:xlink="http://www.w3.org/1999/xlink">
 <defs>
  <style type="text/css">
*{stroke-linecap:butt;stroke-linejoin:round;}
  </style>
 </defs>
 <g id="figure_1">
  <g id="patch_1">
   <path d="M 0 345.6 
L 460.8 345.6 
L 460.8 0 
L 0 0 
z
" style="fill:#ffffff;"/>
  </g>
  <g id="axes_1">
   <g id="patch_2">
    <path d="M 57.6 298.944 
L 338.688 298.944 
L 338.688 41.472 
L 57.6 41.472 
z
" style="fill:#ffffff;"/>
   </g>
   <g id="line2d_1">
    <path d="M 80.881459 298.944 
L 80.881459 293.945514 
L 92.026554 293.945514 
L 92.026554 288.947029 
L 102.330873 288.947029 
L 102.330873 283.948543 
L 105.732589 283.948543 
L 105.732589 278.950057 
L 135.44209 278.950057 
L 135.44209 273.951571 
L 146.302479 273.951571 
L 146.302479 268.953086 
L 149.610898 268.953086 
L 149.610898 263.9546 
L 152.161072 263.9546 
L 152.161072 258.956114 
L 156.272978 258.956114 
L 156.272978 253.957628 
L 158.508628 253.957628 
L 158.508628 248.959143 
L 158.551397 248.959143 
L 158.551397 243.960657 
L 158.962994 243.960657 
L 158.962994 238.962171 
L 158.994256 238.962171 
L 158.994256 233.963685 
L 159.066985 233.963685 
L 159.066985 228.9652 
L 159.098062 228.9652 
L 159.098062 223.966714 
L 159.129083 223.966714 
L 159.129083 218.968228 
L 159.466728 218.968228 
L 159.466728 213.969743 
L 159.577838 213.969743 
L 159.577838 203.972771 
L 159.658204 203.972771 
L 159.658204 198.974285 
L 159.837683 198.974285 
L 159.837683 193.9758 
L 159.966168 193.9758 
L 159.966168 188.977314 
L 160.123015 188.977314 
L 160.123015 183.978828 
L 160.326759 183.978828 
L 160.326759 178.980342 
L 160.346039 178.980342 
L 160.346039 173.981857 
L 160.413354 173.981857 
L 160.413354 168.983371 
L 160.461277 168.983371 
L 160.461277 163.984885 
L 160.594766 163.984885 
L 160.594766 153.987914 
L 160.736665 153.987914 
L 160.736665 138.992457 
L 160.764907 138.992457 
L 160.764907 133.993971 
L 160.970627 133.993971 
L 160.970627 128.995485 
L 161.044837 128.995485 
L 161.044837 123.996999 
L 161.06334 123.996999 
L 161.06334 114.000028 
L 161.127947 114.000028 
L 161.127947 109.001542 
L 161.137157 109.001542 
L 161.137157 99.004571 
L 161.173949 99.004571 
L 161.173949 94.006085 
L 161.201492 94.006085 
L 161.201492 79.010628 
L 161.210663 79.010628 
L 161.210663 74.012142 
L 161.21983 74.012142 
L 161.21983 69.013656 
L 161.228992 69.013656 
L 161.228992 59.016685 
L 161.238149 59.016685 
L 161.238149 54.018199 
L 161.274728 54.018199 
L 161.274728 49.019713 
L 192.535423 49.019713 
L 192.535423 44.021228 
L 338.688 44.021228 
" style="fill:none;stroke:#faf0e6;stroke-linecap:square;stroke-width:4;"/>
   </g>
   <g id="line2d_2">
    <defs>
     <path d="M -0 7.778175 
L 7.778175 0 
L 0 -7.778175 
L -7.778175 -0 
z
" id="m1d5a5ac1cd" style="stroke:#faf0e6;stroke-linejoin:miter;stroke-width:1.5;"/>
    </defs>
    <g>
     <use style="fill:#faf0e6;stroke:#faf0e6;stroke-linejoin:miter;stroke-width:1.5;" x="156.272978" xlink:href="#m1d5a5ac1cd" y="253.957628"/>
     <use style="fill:#faf0e6;stroke:#faf0e6;stroke-linejoin:miter;stroke-width:1.5;" x="161.127947" xlink:href="#m1d5a5ac1cd" y="109.001542"/>
     <use style="fill:#faf0e6;stroke:#faf0e6;stroke-linejoin:miter;stroke-width:1.5;" x="192.535423" xlink:href="#m1d5a5ac1cd" y="44.021228"/>
     <use style="fill:#faf0e6;stroke:#faf0e6;stroke-linejoin:miter;stroke-width:1.5;" x="192.535423" xlink:href="#m1d5a5ac1cd" y="44.021228"/>
     <use style="fill:#faf0e6;stroke:#faf0e6;stroke-linejoin:miter;stroke-width:1.5;" x="338.688" xlink:href="#m1d5a5ac1cd" y="44.021228"/>
    </g>
   </g>
   <g id="line2d_3">
    <path style="fill:none;stroke:#faf0e6;stroke-linecap:square;stroke-width:4;"/>
    <g/>
   </g>
   <g id="line2d_4">
    <path d="M 338.688 44.021228 
L 369.60768 49.119683 
" style="fill:none;stroke:#faf0e6;stroke-linecap:square;stroke-width:4;"/>
    <g>
     <use style="fill:#faf0e6;stroke:#faf0e6;stroke-linejoin:miter;stroke-width:1.5;" x="338.688" xlink:href="#m1d5a5ac1cd" y="44.021228"/>
     <use style="fill:#faf0e6;stroke:#faf0e6;stroke-linejoin:miter;stroke-width:1.5;" x="369.60768" xlink:href="#m1d5a5ac1cd" y="49.119683"/>
    </g>
   </g>
   <g id="matplotlib.axis_1">
    <g id="xtick_1">
     <g id="line2d_5">
      <path clip-path="url(#pe57f915842)" d="M 57.6 298.944 
L 57.6 41.472 
" style="fill:none;stroke:#b0b0b0;stroke-linecap:square;stroke-width:0.8;"/>
     </g>
     <g id="line2d_6">
      <defs>
       <path d="M 0 0 
L 0 3.5 
" id="m82441d60a2" style="stroke:#000000;stroke-width:0.8;"/>
      </defs>
      <g>
       <use style="stroke:#000000;stroke-width:0.8;" x="57.6" xlink:href="#m82441d60a2" y="298.944"/>
      </g>
     </g>
     <g id="text_1">
      <!-- 0 -->
      <defs>
       <path d="M 31.78125 66.40625 
Q 24.171875 66.40625 20.328125 58.90625 
Q 16.5 51.421875 16.5 36.375 
Q 16.5 21.390625 20.328125 13.890625 
Q 24.171875 6.390625 31.78125 6.390625 
Q 39.453125 6.390625 43.28125 13.890625 
Q 47.125 21.390625 47.125 36.375 
Q 47.125 51.421875 43.28125 58.90625 
Q 39.453125 66.40625 31.78125 66.40625 
z
M 31.78125 74.21875 
Q 44.046875 74.21875 50.515625 64.515625 
Q 56.984375 54.828125 56.984375 36.375 
Q 56.984375 17.96875 50.515625 8.265625 
Q 44.046875 -1.421875 31.78125 -1.421875 
Q 19.53125 -1.421875 13.0625 8.265625 
Q 6.59375 17.96875 6.59375 36.375 
Q 6.59375 54.828125 13.0625 64.515625 
Q 19.53125 74.21875 31.78125 74.21875 
z
" id="DejaVuSans-48"/>
      </defs>
      <g transform="translate(51.2375 321.140875)scale(0.2 -0.2)">
       <use xlink:href="#DejaVuSans-48"/>
      </g>
     </g>
    </g>
    <g id="xtick_2">
     <g id="line2d_7">
      <path clip-path="url(#pe57f915842)" d="M 137.910857 298.944 
L 137.910857 41.472 
" style="fill:none;stroke:#b0b0b0;stroke-linecap:square;stroke-width:0.8;"/>
     </g>
     <g id="line2d_8">
      <g>
       <use style="stroke:#000000;stroke-width:0.8;" x="137.910857" xlink:href="#m82441d60a2" y="298.944"/>
      </g>
     </g>
     <g id="text_2">
      <!-- 2 -->
      <defs>
       <path d="M 19.1875 8.296875 
L 53.609375 8.296875 
L 53.609375 0 
L 7.328125 0 
L 7.328125 8.296875 
Q 12.9375 14.109375 22.625 23.890625 
Q 32.328125 33.6875 34.8125 36.53125 
Q 39.546875 41.84375 41.421875 45.53125 
Q 43.3125 49.21875 43.3125 52.78125 
Q 43.3125 58.59375 39.234375 62.25 
Q 35.15625 65.921875 28.609375 65.921875 
Q 23.96875 65.921875 18.8125 64.3125 
Q 13.671875 62.703125 7.8125 59.421875 
L 7.8125 69.390625 
Q 13.765625 71.78125 18.9375 73 
Q 24.125 74.21875 28.421875 74.21875 
Q 39.75 74.21875 46.484375 68.546875 
Q 53.21875 62.890625 53.21875 53.421875 
Q 53.21875 48.921875 51.53125 44.890625 
Q 49.859375 40.875 45.40625 35.40625 
Q 44.1875 33.984375 37.640625 27.21875 
Q 31.109375 20.453125 19.1875 8.296875 
z
" id="DejaVuSans-50"/>
      </defs>
      <g transform="translate(131.548357 321.140875)scale(0.2 -0.2)">
       <use xlink:href="#DejaVuSans-50"/>
      </g>
     </g>
    </g>
    <g id="xtick_3">
     <g id="line2d_9">
      <path clip-path="url(#pe57f915842)" d="M 218.221714 298.944 
L 218.221714 41.472 
" style="fill:none;stroke:#b0b0b0;stroke-linecap:square;stroke-width:0.8;"/>
     </g>
     <g id="line2d_10">
      <g>
       <use style="stroke:#000000;stroke-width:0.8;" x="218.221714" xlink:href="#m82441d60a2" y="298.944"/>
      </g>
     </g>
     <g id="text_3">
      <!-- 4 -->
      <defs>
       <path d="M 37.796875 64.3125 
L 12.890625 25.390625 
L 37.796875 25.390625 
z
M 35.203125 72.90625 
L 47.609375 72.90625 
L 47.609375 25.390625 
L 58.015625 25.390625 
L 58.015625 17.1875 
L 47.609375 17.1875 
L 47.609375 0 
L 37.796875 0 
L 37.796875 17.1875 
L 4.890625 17.1875 
L 4.890625 26.703125 
z
" id="DejaVuSans-52"/>
      </defs>
      <g transform="translate(211.859214 321.140875)scale(0.2 -0.2)">
       <use xlink:href="#DejaVuSans-52"/>
      </g>
     </g>
    </g>
    <g id="xtick_4">
     <g id="line2d_11">
      <path clip-path="url(#pe57f915842)" d="M 298.532571 298.944 
L 298.532571 41.472 
" style="fill:none;stroke:#b0b0b0;stroke-linecap:square;stroke-width:0.8;"/>
     </g>
     <g id="line2d_12">
      <g>
       <use style="stroke:#000000;stroke-width:0.8;" x="298.532571" xlink:href="#m82441d60a2" y="298.944"/>
      </g>
     </g>
     <g id="text_4">
      <!-- 6 -->
      <defs>
       <path d="M 33.015625 40.375 
Q 26.375 40.375 22.484375 35.828125 
Q 18.609375 31.296875 18.609375 23.390625 
Q 18.609375 15.53125 22.484375 10.953125 
Q 26.375 6.390625 33.015625 6.390625 
Q 39.65625 6.390625 43.53125 10.953125 
Q 47.40625 15.53125 47.40625 23.390625 
Q 47.40625 31.296875 43.53125 35.828125 
Q 39.65625 40.375 33.015625 40.375 
z
M 52.59375 71.296875 
L 52.59375 62.3125 
Q 48.875 64.0625 45.09375 64.984375 
Q 41.3125 65.921875 37.59375 65.921875 
Q 27.828125 65.921875 22.671875 59.328125 
Q 17.53125 52.734375 16.796875 39.40625 
Q 19.671875 43.65625 24.015625 45.921875 
Q 28.375 48.1875 33.59375 48.1875 
Q 44.578125 48.1875 50.953125 41.515625 
Q 57.328125 34.859375 57.328125 23.390625 
Q 57.328125 12.15625 50.6875 5.359375 
Q 44.046875 -1.421875 33.015625 -1.421875 
Q 20.359375 -1.421875 13.671875 8.265625 
Q 6.984375 17.96875 6.984375 36.375 
Q 6.984375 53.65625 15.1875 63.9375 
Q 23.390625 74.21875 37.203125 74.21875 
Q 40.921875 74.21875 44.703125 73.484375 
Q 48.484375 72.75 52.59375 71.296875 
z
" id="DejaVuSans-54"/>
      </defs>
      <g transform="translate(292.170071 321.140875)scale(0.2 -0.2)">
       <use xlink:href="#DejaVuSans-54"/>
      </g>
     </g>
    </g>
    <g id="xtick_5">
     <g id="line2d_13">
      <path clip-path="url(#pe57f915842)" d="M 57.6 298.944 
L 57.6 41.472 
" style="fill:none;stroke:#b0b0b0;stroke-linecap:square;stroke-width:0.8;"/>
     </g>
     <g id="line2d_14">
      <defs>
       <path d="M 0 0 
L 0 2 
" id="m4b8f9747ae" style="stroke:#000000;stroke-width:0.6;"/>
      </defs>
      <g>
       <use style="stroke:#000000;stroke-width:0.6;" x="57.6" xlink:href="#m4b8f9747ae" y="298.944"/>
      </g>
     </g>
    </g>
    <g id="xtick_6">
     <g id="line2d_15">
      <path clip-path="url(#pe57f915842)" d="M 97.755429 298.944 
L 97.755429 41.472 
" style="fill:none;stroke:#b0b0b0;stroke-linecap:square;stroke-width:0.8;"/>
     </g>
     <g id="line2d_16">
      <g>
       <use style="stroke:#000000;stroke-width:0.6;" x="97.755429" xlink:href="#m4b8f9747ae" y="298.944"/>
      </g>
     </g>
    </g>
    <g id="xtick_7">
     <g id="line2d_17">
      <path clip-path="url(#pe57f915842)" d="M 137.910857 298.944 
L 137.910857 41.472 
" style="fill:none;stroke:#b0b0b0;stroke-linecap:square;stroke-width:0.8;"/>
     </g>
     <g id="line2d_18">
      <g>
       <use style="stroke:#000000;stroke-width:0.6;" x="137.910857" xlink:href="#m4b8f9747ae" y="298.944"/>
      </g>
     </g>
    </g>
    <g id="xtick_8">
     <g id="line2d_19">
      <path clip-path="url(#pe57f915842)" d="M 178.066286 298.944 
L 178.066286 41.472 
" style="fill:none;stroke:#b0b0b0;stroke-linecap:square;stroke-width:0.8;"/>
     </g>
     <g id="line2d_20">
      <g>
       <use style="stroke:#000000;stroke-width:0.6;" x="178.066286" xlink:href="#m4b8f9747ae" y="298.944"/>
      </g>
     </g>
    </g>
    <g id="xtick_9">
     <g id="line2d_21">
      <path clip-path="url(#pe57f915842)" d="M 218.221714 298.944 
L 218.221714 41.472 
" style="fill:none;stroke:#b0b0b0;stroke-linecap:square;stroke-width:0.8;"/>
     </g>
     <g id="line2d_22">
      <g>
       <use style="stroke:#000000;stroke-width:0.6;" x="218.221714" xlink:href="#m4b8f9747ae" y="298.944"/>
      </g>
     </g>
    </g>
    <g id="xtick_10">
     <g id="line2d_23">
      <path clip-path="url(#pe57f915842)" d="M 258.377143 298.944 
L 258.377143 41.472 
" style="fill:none;stroke:#b0b0b0;stroke-linecap:square;stroke-width:0.8;"/>
     </g>
     <g id="line2d_24">
      <g>
       <use style="stroke:#000000;stroke-width:0.6;" x="258.377143" xlink:href="#m4b8f9747ae" y="298.944"/>
      </g>
     </g>
    </g>
    <g id="xtick_11">
     <g id="line2d_25">
      <path clip-path="url(#pe57f915842)" d="M 298.532571 298.944 
L 298.532571 41.472 
" style="fill:none;stroke:#b0b0b0;stroke-linecap:square;stroke-width:0.8;"/>
     </g>
     <g id="line2d_26">
      <g>
       <use style="stroke:#000000;stroke-width:0.6;" x="298.532571" xlink:href="#m4b8f9747ae" y="298.944"/>
      </g>
     </g>
    </g>
    <g id="xtick_12">
     <g id="line2d_27">
      <path clip-path="url(#pe57f915842)" d="M 338.688 298.944 
L 338.688 41.472 
" style="fill:none;stroke:#b0b0b0;stroke-linecap:square;stroke-width:0.8;"/>
     </g>
     <g id="line2d_28">
      <g>
       <use style="stroke:#000000;stroke-width:0.6;" x="338.688" xlink:href="#m4b8f9747ae" y="298.944"/>
      </g>
     </g>
    </g>
    <g id="text_5">
     <!-- log10(# f-evals / dimension) -->
     <defs>
      <path d="M 9.421875 75.984375 
L 18.40625 75.984375 
L 18.40625 0 
L 9.421875 0 
z
" id="DejaVuSans-108"/>
      <path d="M 30.609375 48.390625 
Q 23.390625 48.390625 19.1875 42.75 
Q 14.984375 37.109375 14.984375 27.296875 
Q 14.984375 17.484375 19.15625 11.84375 
Q 23.34375 6.203125 30.609375 6.203125 
Q 37.796875 6.203125 41.984375 11.859375 
Q 46.1875 17.53125 46.1875 27.296875 
Q 46.1875 37.015625 41.984375 42.703125 
Q 37.796875 48.390625 30.609375 48.390625 
z
M 30.609375 56 
Q 42.328125 56 49.015625 48.375 
Q 55.71875 40.765625 55.71875 27.296875 
Q 55.71875 13.875 49.015625 6.21875 
Q 42.328125 -1.421875 30.609375 -1.421875 
Q 18.84375 -1.421875 12.171875 6.21875 
Q 5.515625 13.875 5.515625 27.296875 
Q 5.515625 40.765625 12.171875 48.375 
Q 18.84375 56 30.609375 56 
z
" id="DejaVuSans-111"/>
      <path d="M 45.40625 27.984375 
Q 45.40625 37.75 41.375 43.109375 
Q 37.359375 48.484375 30.078125 48.484375 
Q 22.859375 48.484375 18.828125 43.109375 
Q 14.796875 37.75 14.796875 27.984375 
Q 14.796875 18.265625 18.828125 12.890625 
Q 22.859375 7.515625 30.078125 7.515625 
Q 37.359375 7.515625 41.375 12.890625 
Q 45.40625 18.265625 45.40625 27.984375 
z
M 54.390625 6.78125 
Q 54.390625 -7.171875 48.1875 -13.984375 
Q 42 -20.796875 29.203125 -20.796875 
Q 24.46875 -20.796875 20.265625 -20.09375 
Q 16.0625 -19.390625 12.109375 -17.921875 
L 12.109375 -9.1875 
Q 16.0625 -11.328125 19.921875 -12.34375 
Q 23.78125 -13.375 27.78125 -13.375 
Q 36.625 -13.375 41.015625 -8.765625 
Q 45.40625 -4.15625 45.40625 5.171875 
L 45.40625 9.625 
Q 42.625 4.78125 38.28125 2.390625 
Q 33.9375 0 27.875 0 
Q 17.828125 0 11.671875 7.65625 
Q 5.515625 15.328125 5.515625 27.984375 
Q 5.515625 40.671875 11.671875 48.328125 
Q 17.828125 56 27.875 56 
Q 33.9375 56 38.28125 53.609375 
Q 42.625 51.21875 45.40625 46.390625 
L 45.40625 54.6875 
L 54.390625 54.6875 
z
" id="DejaVuSans-103"/>
      <path d="M 12.40625 8.296875 
L 28.515625 8.296875 
L 28.515625 63.921875 
L 10.984375 60.40625 
L 10.984375 69.390625 
L 28.421875 72.90625 
L 38.28125 72.90625 
L 38.28125 8.296875 
L 54.390625 8.296875 
L 54.390625 0 
L 12.40625 0 
z
" id="DejaVuSans-49"/>
      <path d="M 31 75.875 
Q 24.46875 64.65625 21.28125 53.65625 
Q 18.109375 42.671875 18.109375 31.390625 
Q 18.109375 20.125 21.3125 9.0625 
Q 24.515625 -2 31 -13.1875 
L 23.1875 -13.1875 
Q 15.875 -1.703125 12.234375 9.375 
Q 8.59375 20.453125 8.59375 31.390625 
Q 8.59375 42.28125 12.203125 53.3125 
Q 15.828125 64.359375 23.1875 75.875 
z
" id="DejaVuSans-40"/>
      <path d="M 51.125 44 
L 36.921875 44 
L 32.8125 27.6875 
L 47.125 27.6875 
z
M 43.796875 71.78125 
L 38.71875 51.515625 
L 52.984375 51.515625 
L 58.109375 71.78125 
L 65.921875 71.78125 
L 60.890625 51.515625 
L 76.125 51.515625 
L 76.125 44 
L 58.984375 44 
L 54.984375 27.6875 
L 70.515625 27.6875 
L 70.515625 20.21875 
L 53.078125 20.21875 
L 48 0 
L 40.1875 0 
L 45.21875 20.21875 
L 30.90625 20.21875 
L 25.875 0 
L 18.015625 0 
L 23.09375 20.21875 
L 7.71875 20.21875 
L 7.71875 27.6875 
L 24.90625 27.6875 
L 29 44 
L 13.28125 44 
L 13.28125 51.515625 
L 30.90625 51.515625 
L 35.890625 71.78125 
z
" id="DejaVuSans-35"/>
      <path id="DejaVuSans-32"/>
      <path d="M 37.109375 75.984375 
L 37.109375 68.5 
L 28.515625 68.5 
Q 23.6875 68.5 21.796875 66.546875 
Q 19.921875 64.59375 19.921875 59.515625 
L 19.921875 54.6875 
L 34.71875 54.6875 
L 34.71875 47.703125 
L 19.921875 47.703125 
L 19.921875 0 
L 10.890625 0 
L 10.890625 47.703125 
L 2.296875 47.703125 
L 2.296875 54.6875 
L 10.890625 54.6875 
L 10.890625 58.5 
Q 10.890625 67.625 15.140625 71.796875 
Q 19.390625 75.984375 28.609375 75.984375 
z
" id="DejaVuSans-102"/>
      <path d="M 4.890625 31.390625 
L 31.203125 31.390625 
L 31.203125 23.390625 
L 4.890625 23.390625 
z
" id="DejaVuSans-45"/>
      <path d="M 56.203125 29.59375 
L 56.203125 25.203125 
L 14.890625 25.203125 
Q 15.484375 15.921875 20.484375 11.0625 
Q 25.484375 6.203125 34.421875 6.203125 
Q 39.59375 6.203125 44.453125 7.46875 
Q 49.3125 8.734375 54.109375 11.28125 
L 54.109375 2.78125 
Q 49.265625 0.734375 44.1875 -0.34375 
Q 39.109375 -1.421875 33.890625 -1.421875 
Q 20.796875 -1.421875 13.15625 6.1875 
Q 5.515625 13.8125 5.515625 26.8125 
Q 5.515625 40.234375 12.765625 48.109375 
Q 20.015625 56 32.328125 56 
Q 43.359375 56 49.78125 48.890625 
Q 56.203125 41.796875 56.203125 29.59375 
z
M 47.21875 32.234375 
Q 47.125 39.59375 43.09375 43.984375 
Q 39.0625 48.390625 32.421875 48.390625 
Q 24.90625 48.390625 20.390625 44.140625 
Q 15.875 39.890625 15.1875 32.171875 
z
" id="DejaVuSans-101"/>
      <path d="M 2.984375 54.6875 
L 12.5 54.6875 
L 29.59375 8.796875 
L 46.6875 54.6875 
L 56.203125 54.6875 
L 35.6875 0 
L 23.484375 0 
z
" id="DejaVuSans-118"/>
      <path d="M 34.28125 27.484375 
Q 23.390625 27.484375 19.1875 25 
Q 14.984375 22.515625 14.984375 16.5 
Q 14.984375 11.71875 18.140625 8.90625 
Q 21.296875 6.109375 26.703125 6.109375 
Q 34.1875 6.109375 38.703125 11.40625 
Q 43.21875 16.703125 43.21875 25.484375 
L 43.21875 27.484375 
z
M 52.203125 31.203125 
L 52.203125 0 
L 43.21875 0 
L 43.21875 8.296875 
Q 40.140625 3.328125 35.546875 0.953125 
Q 30.953125 -1.421875 24.3125 -1.421875 
Q 15.921875 -1.421875 10.953125 3.296875 
Q 6 8.015625 6 15.921875 
Q 6 25.140625 12.171875 29.828125 
Q 18.359375 34.515625 30.609375 34.515625 
L 43.21875 34.515625 
L 43.21875 35.40625 
Q 43.21875 41.609375 39.140625 45 
Q 35.0625 48.390625 27.6875 48.390625 
Q 23 48.390625 18.546875 47.265625 
Q 14.109375 46.140625 10.015625 43.890625 
L 10.015625 52.203125 
Q 14.9375 54.109375 19.578125 55.046875 
Q 24.21875 56 28.609375 56 
Q 40.484375 56 46.34375 49.84375 
Q 52.203125 43.703125 52.203125 31.203125 
z
" id="DejaVuSans-97"/>
      <path d="M 44.28125 53.078125 
L 44.28125 44.578125 
Q 40.484375 46.53125 36.375 47.5 
Q 32.28125 48.484375 27.875 48.484375 
Q 21.1875 48.484375 17.84375 46.4375 
Q 14.5 44.390625 14.5 40.28125 
Q 14.5 37.15625 16.890625 35.375 
Q 19.28125 33.59375 26.515625 31.984375 
L 29.59375 31.296875 
Q 39.15625 29.25 43.1875 25.515625 
Q 47.21875 21.78125 47.21875 15.09375 
Q 47.21875 7.46875 41.1875 3.015625 
Q 35.15625 -1.421875 24.609375 -1.421875 
Q 20.21875 -1.421875 15.453125 -0.5625 
Q 10.6875 0.296875 5.421875 2 
L 5.421875 11.28125 
Q 10.40625 8.6875 15.234375 7.390625 
Q 20.0625 6.109375 24.8125 6.109375 
Q 31.15625 6.109375 34.5625 8.28125 
Q 37.984375 10.453125 37.984375 14.40625 
Q 37.984375 18.0625 35.515625 20.015625 
Q 33.0625 21.96875 24.703125 23.78125 
L 21.578125 24.515625 
Q 13.234375 26.265625 9.515625 29.90625 
Q 5.8125 33.546875 5.8125 39.890625 
Q 5.8125 47.609375 11.28125 51.796875 
Q 16.75 56 26.8125 56 
Q 31.78125 56 36.171875 55.265625 
Q 40.578125 54.546875 44.28125 53.078125 
z
" id="DejaVuSans-115"/>
      <path d="M 25.390625 72.90625 
L 33.6875 72.90625 
L 8.296875 -9.28125 
L 0 -9.28125 
z
" id="DejaVuSans-47"/>
      <path d="M 45.40625 46.390625 
L 45.40625 75.984375 
L 54.390625 75.984375 
L 54.390625 0 
L 45.40625 0 
L 45.40625 8.203125 
Q 42.578125 3.328125 38.25 0.953125 
Q 33.9375 -1.421875 27.875 -1.421875 
Q 17.96875 -1.421875 11.734375 6.484375 
Q 5.515625 14.40625 5.515625 27.296875 
Q 5.515625 40.1875 11.734375 48.09375 
Q 17.96875 56 27.875 56 
Q 33.9375 56 38.25 53.625 
Q 42.578125 51.265625 45.40625 46.390625 
z
M 14.796875 27.296875 
Q 14.796875 17.390625 18.875 11.75 
Q 22.953125 6.109375 30.078125 6.109375 
Q 37.203125 6.109375 41.296875 11.75 
Q 45.40625 17.390625 45.40625 27.296875 
Q 45.40625 37.203125 41.296875 42.84375 
Q 37.203125 48.484375 30.078125 48.484375 
Q 22.953125 48.484375 18.875 42.84375 
Q 14.796875 37.203125 14.796875 27.296875 
z
" id="DejaVuSans-100"/>
      <path d="M 9.421875 54.6875 
L 18.40625 54.6875 
L 18.40625 0 
L 9.421875 0 
z
M 9.421875 75.984375 
L 18.40625 75.984375 
L 18.40625 64.59375 
L 9.421875 64.59375 
z
" id="DejaVuSans-105"/>
      <path d="M 52 44.1875 
Q 55.375 50.25 60.0625 53.125 
Q 64.75 56 71.09375 56 
Q 79.640625 56 84.28125 50.015625 
Q 88.921875 44.046875 88.921875 33.015625 
L 88.921875 0 
L 79.890625 0 
L 79.890625 32.71875 
Q 79.890625 40.578125 77.09375 44.375 
Q 74.3125 48.1875 68.609375 48.1875 
Q 61.625 48.1875 57.5625 43.546875 
Q 53.515625 38.921875 53.515625 30.90625 
L 53.515625 0 
L 44.484375 0 
L 44.484375 32.71875 
Q 44.484375 40.625 41.703125 44.40625 
Q 38.921875 48.1875 33.109375 48.1875 
Q 26.21875 48.1875 22.15625 43.53125 
Q 18.109375 38.875 18.109375 30.90625 
L 18.109375 0 
L 9.078125 0 
L 9.078125 54.6875 
L 18.109375 54.6875 
L 18.109375 46.1875 
Q 21.1875 51.21875 25.484375 53.609375 
Q 29.78125 56 35.6875 56 
Q 41.65625 56 45.828125 52.96875 
Q 50 49.953125 52 44.1875 
z
" id="DejaVuSans-109"/>
      <path d="M 54.890625 33.015625 
L 54.890625 0 
L 45.90625 0 
L 45.90625 32.71875 
Q 45.90625 40.484375 42.875 44.328125 
Q 39.84375 48.1875 33.796875 48.1875 
Q 26.515625 48.1875 22.3125 43.546875 
Q 18.109375 38.921875 18.109375 30.90625 
L 18.109375 0 
L 9.078125 0 
L 9.078125 54.6875 
L 18.109375 54.6875 
L 18.109375 46.1875 
Q 21.34375 51.125 25.703125 53.5625 
Q 30.078125 56 35.796875 56 
Q 45.21875 56 50.046875 50.171875 
Q 54.890625 44.34375 54.890625 33.015625 
z
" id="DejaVuSans-110"/>
      <path d="M 8.015625 75.875 
L 15.828125 75.875 
Q 23.140625 64.359375 26.78125 53.3125 
Q 30.421875 42.28125 30.421875 31.390625 
Q 30.421875 20.453125 26.78125 9.375 
Q 23.140625 -1.703125 15.828125 -13.1875 
L 8.015625 -13.1875 
Q 14.5 -2 17.703125 9.0625 
Q 20.90625 20.125 20.90625 31.390625 
Q 20.90625 42.671875 17.703125 53.65625 
Q 14.5 64.65625 8.015625 75.875 
z
" id="DejaVuSans-41"/>
     </defs>
     <g transform="translate(77.303219 342.217594)scale(0.17 -0.17)">
      <use xlink:href="#DejaVuSans-108"/>
      <use x="27.783203" xlink:href="#DejaVuSans-111"/>
      <use x="88.964844" xlink:href="#DejaVuSans-103"/>
      <use x="152.441406" xlink:href="#DejaVuSans-49"/>
      <use x="216.064453" xlink:href="#DejaVuSans-48"/>
      <use x="279.6875" xlink:href="#DejaVuSans-40"/>
      <use x="318.701172" xlink:href="#DejaVuSans-35"/>
      <use x="402.490234" xlink:href="#DejaVuSans-32"/>
      <use x="434.277344" xlink:href="#DejaVuSans-102"/>
      <use x="469.404297" xlink:href="#DejaVuSans-45"/>
      <use x="505.488281" xlink:href="#DejaVuSans-101"/>
      <use x="567.011719" xlink:href="#DejaVuSans-118"/>
      <use x="626.191406" xlink:href="#DejaVuSans-97"/>
      <use x="687.470703" xlink:href="#DejaVuSans-108"/>
      <use x="715.253906" xlink:href="#DejaVuSans-115"/>
      <use x="767.353516" xlink:href="#DejaVuSans-32"/>
      <use x="799.140625" xlink:href="#DejaVuSans-47"/>
      <use x="832.832031" xlink:href="#DejaVuSans-32"/>
      <use x="864.619141" xlink:href="#DejaVuSans-100"/>
      <use x="928.095703" xlink:href="#DejaVuSans-105"/>
      <use x="955.878906" xlink:href="#DejaVuSans-109"/>
      <use x="1053.291016" xlink:href="#DejaVuSans-101"/>
      <use x="1114.814453" xlink:href="#DejaVuSans-110"/>
      <use x="1178.193359" xlink:href="#DejaVuSans-115"/>
      <use x="1230.292969" xlink:href="#DejaVuSans-105"/>
      <use x="1258.076172" xlink:href="#DejaVuSans-111"/>
      <use x="1319.257812" xlink:href="#DejaVuSans-110"/>
      <use x="1382.636719" xlink:href="#DejaVuSans-41"/>
     </g>
    </g>
   </g>
   <g id="matplotlib.axis_2">
    <g id="ytick_1">
     <g id="line2d_29">
      <path clip-path="url(#pe57f915842)" d="M 57.6 298.944 
L 338.688 298.944 
" style="fill:none;stroke:#b0b0b0;stroke-linecap:square;stroke-width:0.8;"/>
     </g>
     <g id="line2d_30">
      <defs>
       <path d="M 0 0 
L -3.5 0 
" id="m838bd7c55c" style="stroke:#000000;stroke-width:0.8;"/>
      </defs>
      <g>
       <use style="stroke:#000000;stroke-width:0.8;" x="57.6" xlink:href="#m838bd7c55c" y="298.944"/>
      </g>
     </g>
     <g id="text_6">
      <!-- 0.0 -->
      <defs>
       <path d="M 10.6875 12.40625 
L 21 12.40625 
L 21 0 
L 10.6875 0 
z
" id="DejaVuSans-46"/>
      </defs>
      <g transform="translate(25.155 305.02275)scale(0.16 -0.16)">
       <use xlink:href="#DejaVuSans-48"/>
       <use x="63.623047" xlink:href="#DejaVuSans-46"/>
       <use x="95.410156" xlink:href="#DejaVuSans-48"/>
      </g>
     </g>
    </g>
    <g id="ytick_2">
     <g id="line2d_31">
      <path clip-path="url(#pe57f915842)" d="M 57.6 247.959446 
L 338.688 247.959446 
" style="fill:none;stroke:#b0b0b0;stroke-linecap:square;stroke-width:0.8;"/>
     </g>
     <g id="line2d_32">
      <g>
       <use style="stroke:#000000;stroke-width:0.8;" x="57.6" xlink:href="#m838bd7c55c" y="247.959446"/>
      </g>
     </g>
     <g id="text_7">
      <!-- 0.2 -->
      <g transform="translate(25.155 254.038196)scale(0.16 -0.16)">
       <use xlink:href="#DejaVuSans-48"/>
       <use x="63.623047" xlink:href="#DejaVuSans-46"/>
       <use x="95.410156" xlink:href="#DejaVuSans-50"/>
      </g>
     </g>
    </g>
    <g id="ytick_3">
     <g id="line2d_33">
      <path clip-path="url(#pe57f915842)" d="M 57.6 196.974891 
L 338.688 196.974891 
" style="fill:none;stroke:#b0b0b0;stroke-linecap:square;stroke-width:0.8;"/>
     </g>
     <g id="line2d_34">
      <g>
       <use style="stroke:#000000;stroke-width:0.8;" x="57.6" xlink:href="#m838bd7c55c" y="196.974891"/>
      </g>
     </g>
     <g id="text_8">
      <!-- 0.4 -->
      <g transform="translate(25.155 203.053641)scale(0.16 -0.16)">
       <use xlink:href="#DejaVuSans-48"/>
       <use x="63.623047" xlink:href="#DejaVuSans-46"/>
       <use x="95.410156" xlink:href="#DejaVuSans-52"/>
      </g>
     </g>
    </g>
    <g id="ytick_4">
     <g id="line2d_35">
      <path clip-path="url(#pe57f915842)" d="M 57.6 145.990337 
L 338.688 145.990337 
" style="fill:none;stroke:#b0b0b0;stroke-linecap:square;stroke-width:0.8;"/>
     </g>
     <g id="line2d_36">
      <g>
       <use style="stroke:#000000;stroke-width:0.8;" x="57.6" xlink:href="#m838bd7c55c" y="145.990337"/>
      </g>
     </g>
     <g id="text_9">
      <!-- 0.6 -->
      <g transform="translate(25.155 152.069087)scale(0.16 -0.16)">
       <use xlink:href="#DejaVuSans-48"/>
       <use x="63.623047" xlink:href="#DejaVuSans-46"/>
       <use x="95.410156" xlink:href="#DejaVuSans-54"/>
      </g>
     </g>
    </g>
    <g id="ytick_5">
     <g id="line2d_37">
      <path clip-path="url(#pe57f915842)" d="M 57.6 95.005782 
L 338.688 95.005782 
" style="fill:none;stroke:#b0b0b0;stroke-linecap:square;stroke-width:0.8;"/>
     </g>
     <g id="line2d_38">
      <g>
       <use style="stroke:#000000;stroke-width:0.8;" x="57.6" xlink:href="#m838bd7c55c" y="95.005782"/>
      </g>
     </g>
     <g id="text_10">
      <!-- 0.8 -->
      <defs>
       <path d="M 31.78125 34.625 
Q 24.75 34.625 20.71875 30.859375 
Q 16.703125 27.09375 16.703125 20.515625 
Q 16.703125 13.921875 20.71875 10.15625 
Q 24.75 6.390625 31.78125 6.390625 
Q 38.8125 6.390625 42.859375 10.171875 
Q 46.921875 13.96875 46.921875 20.515625 
Q 46.921875 27.09375 42.890625 30.859375 
Q 38.875 34.625 31.78125 34.625 
z
M 21.921875 38.8125 
Q 15.578125 40.375 12.03125 44.71875 
Q 8.5 49.078125 8.5 55.328125 
Q 8.5 64.0625 14.71875 69.140625 
Q 20.953125 74.21875 31.78125 74.21875 
Q 42.671875 74.21875 48.875 69.140625 
Q 55.078125 64.0625 55.078125 55.328125 
Q 55.078125 49.078125 51.53125 44.71875 
Q 48 40.375 41.703125 38.8125 
Q 48.828125 37.15625 52.796875 32.3125 
Q 56.78125 27.484375 56.78125 20.515625 
Q 56.78125 9.90625 50.3125 4.234375 
Q 43.84375 -1.421875 31.78125 -1.421875 
Q 19.734375 -1.421875 13.25 4.234375 
Q 6.78125 9.90625 6.78125 20.515625 
Q 6.78125 27.484375 10.78125 32.3125 
Q 14.796875 37.15625 21.921875 38.8125 
z
M 18.3125 54.390625 
Q 18.3125 48.734375 21.84375 45.5625 
Q 25.390625 42.390625 31.78125 42.390625 
Q 38.140625 42.390625 41.71875 45.5625 
Q 45.3125 48.734375 45.3125 54.390625 
Q 45.3125 60.0625 41.71875 63.234375 
Q 38.140625 66.40625 31.78125 66.40625 
Q 25.390625 66.40625 21.84375 63.234375 
Q 18.3125 60.0625 18.3125 54.390625 
z
" id="DejaVuSans-56"/>
      </defs>
      <g transform="translate(25.155 101.084532)scale(0.16 -0.16)">
       <use xlink:href="#DejaVuSans-48"/>
       <use x="63.623047" xlink:href="#DejaVuSans-46"/>
       <use x="95.410156" xlink:href="#DejaVuSans-56"/>
      </g>
     </g>
    </g>
    <g id="ytick_6">
     <g id="line2d_39">
      <path clip-path="url(#pe57f915842)" d="M 57.6 44.021228 
L 338.688 44.021228 
" style="fill:none;stroke:#b0b0b0;stroke-linecap:square;stroke-width:0.8;"/>
     </g>
     <g id="line2d_40">
      <g>
       <use style="stroke:#000000;stroke-width:0.8;" x="57.6" xlink:href="#m838bd7c55c" y="44.021228"/>
      </g>
     </g>
     <g id="text_11">
      <!-- 1.0 -->
      <g transform="translate(25.155 50.099978)scale(0.16 -0.16)">
       <use xlink:href="#DejaVuSans-49"/>
       <use x="63.623047" xlink:href="#DejaVuSans-46"/>
       <use x="95.410156" xlink:href="#DejaVuSans-48"/>
      </g>
     </g>
    </g>
    <g id="text_12">
     <!-- Fraction of function,target pairs -->
     <defs>
      <path d="M 9.8125 72.90625 
L 51.703125 72.90625 
L 51.703125 64.59375 
L 19.671875 64.59375 
L 19.671875 43.109375 
L 48.578125 43.109375 
L 48.578125 34.8125 
L 19.671875 34.8125 
L 19.671875 0 
L 9.8125 0 
z
" id="DejaVuSans-70"/>
      <path d="M 41.109375 46.296875 
Q 39.59375 47.171875 37.8125 47.578125 
Q 36.03125 48 33.890625 48 
Q 26.265625 48 22.1875 43.046875 
Q 18.109375 38.09375 18.109375 28.8125 
L 18.109375 0 
L 9.078125 0 
L 9.078125 54.6875 
L 18.109375 54.6875 
L 18.109375 46.1875 
Q 20.953125 51.171875 25.484375 53.578125 
Q 30.03125 56 36.53125 56 
Q 37.453125 56 38.578125 55.875 
Q 39.703125 55.765625 41.0625 55.515625 
z
" id="DejaVuSans-114"/>
      <path d="M 48.78125 52.59375 
L 48.78125 44.1875 
Q 44.96875 46.296875 41.140625 47.34375 
Q 37.3125 48.390625 33.40625 48.390625 
Q 24.65625 48.390625 19.8125 42.84375 
Q 14.984375 37.3125 14.984375 27.296875 
Q 14.984375 17.28125 19.8125 11.734375 
Q 24.65625 6.203125 33.40625 6.203125 
Q 37.3125 6.203125 41.140625 7.25 
Q 44.96875 8.296875 48.78125 10.40625 
L 48.78125 2.09375 
Q 45.015625 0.34375 40.984375 -0.53125 
Q 36.96875 -1.421875 32.421875 -1.421875 
Q 20.0625 -1.421875 12.78125 6.34375 
Q 5.515625 14.109375 5.515625 27.296875 
Q 5.515625 40.671875 12.859375 48.328125 
Q 20.21875 56 33.015625 56 
Q 37.15625 56 41.109375 55.140625 
Q 45.0625 54.296875 48.78125 52.59375 
z
" id="DejaVuSans-99"/>
      <path d="M 18.3125 70.21875 
L 18.3125 54.6875 
L 36.8125 54.6875 
L 36.8125 47.703125 
L 18.3125 47.703125 
L 18.3125 18.015625 
Q 18.3125 11.328125 20.140625 9.421875 
Q 21.96875 7.515625 27.59375 7.515625 
L 36.8125 7.515625 
L 36.8125 0 
L 27.59375 0 
Q 17.1875 0 13.234375 3.875 
Q 9.28125 7.765625 9.28125 18.015625 
L 9.28125 47.703125 
L 2.6875 47.703125 
L 2.6875 54.6875 
L 9.28125 54.6875 
L 9.28125 70.21875 
z
" id="DejaVuSans-116"/>
      <path d="M 8.5 21.578125 
L 8.5 54.6875 
L 17.484375 54.6875 
L 17.484375 21.921875 
Q 17.484375 14.15625 20.5 10.265625 
Q 23.53125 6.390625 29.59375 6.390625 
Q 36.859375 6.390625 41.078125 11.03125 
Q 45.3125 15.671875 45.3125 23.6875 
L 45.3125 54.6875 
L 54.296875 54.6875 
L 54.296875 0 
L 45.3125 0 
L 45.3125 8.40625 
Q 42.046875 3.421875 37.71875 1 
Q 33.40625 -1.421875 27.6875 -1.421875 
Q 18.265625 -1.421875 13.375 4.4375 
Q 8.5 10.296875 8.5 21.578125 
z
M 31.109375 56 
z
" id="DejaVuSans-117"/>
      <path d="M 11.71875 12.40625 
L 22.015625 12.40625 
L 22.015625 4 
L 14.015625 -11.625 
L 7.71875 -11.625 
L 11.71875 4 
z
" id="DejaVuSans-44"/>
      <path d="M 18.109375 8.203125 
L 18.109375 -20.796875 
L 9.078125 -20.796875 
L 9.078125 54.6875 
L 18.109375 54.6875 
L 18.109375 46.390625 
Q 20.953125 51.265625 25.265625 53.625 
Q 29.59375 56 35.59375 56 
Q 45.5625 56 51.78125 48.09375 
Q 58.015625 40.1875 58.015625 27.296875 
Q 58.015625 14.40625 51.78125 6.484375 
Q 45.5625 -1.421875 35.59375 -1.421875 
Q 29.59375 -1.421875 25.265625 0.953125 
Q 20.953125 3.328125 18.109375 8.203125 
z
M 48.6875 27.296875 
Q 48.6875 37.203125 44.609375 42.84375 
Q 40.53125 48.484375 33.40625 48.484375 
Q 26.265625 48.484375 22.1875 42.84375 
Q 18.109375 37.203125 18.109375 27.296875 
Q 18.109375 17.390625 22.1875 11.75 
Q 26.265625 6.109375 33.40625 6.109375 
Q 40.53125 6.109375 44.609375 11.75 
Q 48.6875 17.390625 48.6875 27.296875 
z
" id="DejaVuSans-112"/>
     </defs>
     <g transform="translate(17.619531 305.347375)rotate(-90)scale(0.17 -0.17)">
      <use xlink:href="#DejaVuSans-70"/>
      <use x="57.410156" xlink:href="#DejaVuSans-114"/>
      <use x="98.523438" xlink:href="#DejaVuSans-97"/>
      <use x="159.802734" xlink:href="#DejaVuSans-99"/>
      <use x="214.783203" xlink:href="#DejaVuSans-116"/>
      <use x="253.992188" xlink:href="#DejaVuSans-105"/>
      <use x="281.775391" xlink:href="#DejaVuSans-111"/>
      <use x="342.957031" xlink:href="#DejaVuSans-110"/>
      <use x="406.335938" xlink:href="#DejaVuSans-32"/>
      <use x="438.123047" xlink:href="#DejaVuSans-111"/>
      <use x="499.304688" xlink:href="#DejaVuSans-102"/>
      <use x="534.509766" xlink:href="#DejaVuSans-32"/>
      <use x="566.296875" xlink:href="#DejaVuSans-102"/>
      <use x="601.501953" xlink:href="#DejaVuSans-117"/>
      <use x="664.880859" xlink:href="#DejaVuSans-110"/>
      <use x="728.259766" xlink:href="#DejaVuSans-99"/>
      <use x="783.240234" xlink:href="#DejaVuSans-116"/>
      <use x="822.449219" xlink:href="#DejaVuSans-105"/>
      <use x="850.232422" xlink:href="#DejaVuSans-111"/>
      <use x="911.414062" xlink:href="#DejaVuSans-110"/>
      <use x="974.792969" xlink:href="#DejaVuSans-44"/>
      <use x="1006.580078" xlink:href="#DejaVuSans-116"/>
      <use x="1045.789062" xlink:href="#DejaVuSans-97"/>
      <use x="1107.068359" xlink:href="#DejaVuSans-114"/>
      <use x="1148.166016" xlink:href="#DejaVuSans-103"/>
      <use x="1211.642578" xlink:href="#DejaVuSans-101"/>
      <use x="1273.166016" xlink:href="#DejaVuSans-116"/>
      <use x="1312.375" xlink:href="#DejaVuSans-32"/>
      <use x="1344.162109" xlink:href="#DejaVuSans-112"/>
      <use x="1407.638672" xlink:href="#DejaVuSans-97"/>
      <use x="1468.917969" xlink:href="#DejaVuSans-105"/>
      <use x="1496.701172" xlink:href="#DejaVuSans-114"/>
      <use x="1537.814453" xlink:href="#DejaVuSans-115"/>
     </g>
    </g>
   </g>
   <g id="line2d_41">
    <defs>
     <path d="M 0 1.5 
C 0.397805 1.5 0.77937 1.341951 1.06066 1.06066 
C 1.341951 0.77937 1.5 0.397805 1.5 0 
C 1.5 -0.397805 1.341951 -0.77937 1.06066 -1.06066 
C 0.77937 -1.341951 0.397805 -1.5 0 -1.5 
C -0.397805 -1.5 -0.77937 -1.341951 -1.06066 -1.06066 
C -1.341951 -0.77937 -1.5 -0.397805 -1.5 0 
C -1.5 0.397805 -1.341951 0.77937 -1.06066 1.06066 
C -0.77937 1.341951 -0.397805 1.5 0 1.5 
z
" id="m89f69dce8c" style="stroke:#faf0e6;"/>
    </defs>
    <g>
     <use style="fill:#faf0e6;stroke:#faf0e6;" x="192.535423" xlink:href="#m89f69dce8c" y="44.021228"/>
     <use style="fill:#faf0e6;stroke:#faf0e6;" x="192.535423" xlink:href="#m89f69dce8c" y="44.021228"/>
    </g>
   </g>
   <g id="line2d_42">
    <defs>
     <path d="M 0 1.5 
C 0.397805 1.5 0.77937 1.341951 1.06066 1.06066 
C 1.341951 0.77937 1.5 0.397805 1.5 0 
C 1.5 -0.397805 1.341951 -0.77937 1.06066 -1.06066 
C 0.77937 -1.341951 0.397805 -1.5 0 -1.5 
C -0.397805 -1.5 -0.77937 -1.341951 -1.06066 -1.06066 
C -1.341951 -0.77937 -1.5 -0.397805 -1.5 0 
C -1.5 0.397805 -1.341951 0.77937 -1.06066 1.06066 
C -0.77937 1.341951 -0.397805 1.5 0 1.5 
z
" id="m444960961b" style="stroke:#000080;"/>
    </defs>
    <g>
     <use style="fill:#000080;stroke:#000080;" x="283.920776" xlink:href="#m444960961b" y="243.960657"/>
     <use style="fill:#000080;stroke:#000080;" x="283.920776" xlink:href="#m444960961b" y="243.960657"/>
    </g>
   </g>
   <g id="line2d_43">
    <path d="M 88.846997 298.944 
L 88.846997 297.444454 
L 93.863965 297.444454 
L 93.863965 296.944606 
L 96.676366 296.944606 
L 96.676366 295.44506 
L 97.755429 295.44506 
L 97.755429 294.945211 
L 99.097574 294.945211 
L 99.097574 293.945514 
L 127.293718 293.945514 
L 127.293718 293.445666 
L 140.165274 293.445666 
L 140.165274 292.945817 
L 140.559227 292.945817 
L 140.559227 292.445969 
L 146.452726 292.445969 
L 146.452726 291.446271 
L 147.02042 291.446271 
L 147.12355 289.946726 
L 148.334961 289.946726 
L 148.334961 289.446877 
L 152.973748 289.446877 
L 152.973748 288.947029 
L 153.090987 288.947029 
L 153.192929 287.947331 
L 153.366312 287.947331 
L 153.366312 287.447483 
L 154.453136 287.447483 
L 154.453136 286.947634 
L 158.636623 286.947634 
L 158.636623 286.447786 
L 159.956318 286.447786 
L 159.956318 284.94824 
L 161.456484 284.94824 
L 161.456484 284.448391 
L 165.331666 284.448391 
L 165.331666 283.948543 
L 165.654426 283.948543 
L 165.654426 283.448694 
L 170.782963 283.448694 
L 170.782963 282.948846 
L 172.942027 282.948846 
L 173.00275 280.949451 
L 174.862995 280.949451 
L 174.862995 280.449603 
L 175.058874 280.449603 
L 175.058874 279.949754 
L 178.770377 279.949754 
L 178.787119 278.950057 
L 178.897209 278.950057 
L 178.897209 278.450209 
L 181.170108 278.450209 
L 181.170108 277.95036 
L 183.821648 277.95036 
L 183.821648 277.450511 
L 185.148928 277.450511 
L 185.148928 276.950663 
L 185.356816 276.950663 
L 185.356816 276.450814 
L 186.058892 276.450814 
L 186.058892 274.951268 
L 186.345452 274.951268 
L 186.406095 272.452026 
L 186.516014 272.452026 
L 186.516014 271.952177 
L 188.417333 271.952177 
L 188.44236 270.95248 
L 193.336737 270.95248 
L 193.445376 268.953086 
L 193.475673 268.953086 
L 193.475673 267.953388 
L 195.907129 267.953388 
L 195.930937 266.953691 
L 196.111566 266.953691 
L 196.111566 266.453843 
L 203.573909 266.453843 
L 203.573909 265.953994 
L 204.877893 265.953994 
L 204.885388 264.954297 
L 206.564347 264.954297 
L 206.564347 264.454448 
L 207.866748 264.454448 
L 207.866748 263.9546 
L 210.825757 263.9546 
L 210.825757 262.954903 
L 217.018279 262.954903 
L 217.018279 262.455054 
L 217.467976 262.455054 
L 217.467976 261.955206 
L 218.178061 261.955206 
L 218.178061 261.455357 
L 223.185587 261.455357 
L 223.185587 260.955508 
L 226.373057 260.955508 
L 226.373057 260.45566 
L 226.491548 260.45566 
L 226.491548 259.955811 
L 226.703854 259.955811 
L 226.703854 259.455963 
L 226.936263 259.455963 
L 226.936263 258.956114 
L 232.144899 258.956114 
L 232.144899 258.456266 
L 232.580662 258.456266 
L 232.617826 257.456568 
L 232.919076 257.456568 
L 232.919076 256.95672 
L 236.283593 256.95672 
L 236.283593 256.456871 
L 239.844841 256.456871 
L 239.844841 255.957023 
L 240.902013 255.957023 
L 240.902013 255.457174 
L 243.435152 255.457174 
L 243.435152 254.957326 
L 243.821352 254.957326 
L 243.821352 254.457477 
L 246.682441 254.457477 
L 246.682441 253.957628 
L 248.19419 253.957628 
L 248.19419 253.45778 
L 248.697058 253.45778 
L 248.697058 252.957931 
L 249.102149 252.957931 
L 249.102149 252.458083 
L 250.712781 252.458083 
L 250.712781 251.958234 
L 251.821539 251.958234 
L 251.821539 251.458386 
L 254.320535 251.458386 
L 254.395592 250.458688 
L 255.078959 250.458688 
L 255.078959 249.95884 
L 255.485429 249.95884 
L 255.485429 249.458991 
L 258.377666 249.458991 
L 258.377666 248.959143 
L 259.508816 248.959143 
L 259.508816 248.459294 
L 260.588168 248.459294 
L 260.588168 247.959446 
L 261.670266 247.959446 
L 261.670266 247.459597 
L 262.50743 247.459597 
L 262.50743 246.959748 
L 263.413859 246.959748 
L 263.413859 246.4599 
L 270.660728 246.4599 
L 270.660728 245.960051 
L 272.378139 245.960051 
L 272.378139 245.460203 
L 279.130125 245.460203 
L 279.130125 244.960354 
L 283.231868 244.960354 
L 283.231868 244.460506 
L 283.920776 244.460506 
L 283.920776 243.960657 
L 338.688 243.960657 
L 338.688 243.960657 
" style="fill:none;stroke:#000080;stroke-linecap:square;stroke-width:1.5;"/>
   </g>
   <g id="line2d_44">
    <defs>
     <path d="M 0 6 
C 1.591219 6 3.117479 5.367802 4.242641 4.242641 
C 5.367802 3.117479 6 1.591219 6 0 
C 6 -1.591219 5.367802 -3.117479 4.242641 -4.242641 
C 3.117479 -5.367802 1.591219 -6 0 -6 
C -1.591219 -6 -3.117479 -5.367802 -4.242641 -4.242641 
C -5.367802 -3.117479 -6 -1.591219 -6 0 
C -6 1.591219 -5.367802 3.117479 -4.242641 4.242641 
C -3.117479 5.367802 -1.591219 6 0 6 
z
" id="m89e68af86f" style="stroke:#000080;stroke-width:1.5;"/>
    </defs>
    <g>
     <use style="fill-opacity:0;stroke:#000080;stroke-width:1.5;" x="188.44236" xlink:href="#m89e68af86f" y="270.95248"/>
     <use style="fill-opacity:0;stroke:#000080;stroke-width:1.5;" x="248.697058" xlink:href="#m89e68af86f" y="253.45778"/>
     <use style="fill-opacity:0;stroke:#000080;stroke-width:1.5;" x="283.920776" xlink:href="#m89e68af86f" y="243.960657"/>
     <use style="fill-opacity:0;stroke:#000080;stroke-width:1.5;" x="283.920776" xlink:href="#m89e68af86f" y="243.960657"/>
     <use style="fill-opacity:0;stroke:#000080;stroke-width:1.5;" x="338.688" xlink:href="#m89e68af86f" y="243.960657"/>
    </g>
   </g>
   <g id="line2d_45">
    <path style="fill:none;stroke:#000080;stroke-linecap:square;stroke-width:1.5;"/>
    <g/>
   </g>
   <g id="line2d_46">
    <path clip-path="url(#pe57f915842)" d="M 211.639067 262.954903 
" style="fill:none;stroke:#000080;stroke-linecap:square;stroke-width:1.5;"/>
    <defs>
     <path d="M -12 12 
L 12 -12 
M -12 -12 
L 12 12 
" id="ma80c059d46" style="stroke:#000080;"/>
    </defs>
    <g clip-path="url(#pe57f915842)">
     <use style="fill:#000080;stroke:#000080;" x="211.639067" xlink:href="#ma80c059d46" y="262.954903"/>
    </g>
   </g>
   <g id="line2d_47">
    <defs>
     <path d="M 0 1.5 
C 0.397805 1.5 0.77937 1.341951 1.06066 1.06066 
C 1.341951 0.77937 1.5 0.397805 1.5 0 
C 1.5 -0.397805 1.341951 -0.77937 1.06066 -1.06066 
C 0.77937 -1.341951 0.397805 -1.5 0 -1.5 
C -0.397805 -1.5 -0.77937 -1.341951 -1.06066 -1.06066 
C -1.341951 -0.77937 -1.5 -0.397805 -1.5 0 
C -1.5 0.397805 -1.341951 0.77937 -1.06066 1.06066 
C -0.77937 1.341951 -0.397805 1.5 0 1.5 
z
" id="me5fe03e4a4" style="stroke:#ff00ff;"/>
    </defs>
    <g>
     <use style="fill:#ff00ff;stroke:#ff00ff;" x="244.633172" xlink:href="#me5fe03e4a4" y="268.953086"/>
     <use style="fill:#ff00ff;stroke:#ff00ff;" x="244.633172" xlink:href="#me5fe03e4a4" y="268.953086"/>
    </g>
   </g>
   <g id="line2d_48">
    <path d="M 108.198707 298.944 
L 108.198707 297.944303 
L 117.030313 297.944303 
L 117.030313 296.944606 
L 136.342635 296.944606 
L 136.342635 296.444757 
L 136.79465 296.444757 
L 136.79465 295.44506 
L 137.016339 295.44506 
L 137.016339 294.445363 
L 140.589166 294.445363 
L 140.589166 293.945514 
L 142.459451 293.945514 
L 142.459451 292.945817 
L 148.411533 292.945817 
L 148.411533 292.445969 
L 149.413639 292.445969 
L 149.413639 291.446271 
L 158.67908 291.446271 
L 158.67908 290.946423 
L 163.242288 290.946423 
L 163.242288 290.446574 
L 163.629664 290.446574 
L 163.629664 289.446877 
L 166.371448 289.446877 
L 166.371448 288.947029 
L 169.914348 288.947029 
L 169.914348 288.44718 
L 170.37576 288.44718 
L 170.37576 287.447483 
L 177.204779 287.447483 
L 177.204779 286.947634 
L 179.19724 286.947634 
L 179.19724 285.947937 
L 180.427645 285.947937 
L 180.427645 284.94824 
L 182.65514 284.94824 
L 182.65514 283.948543 
L 182.687281 283.948543 
L 182.687281 283.448694 
L 187.165502 283.448694 
L 187.165502 282.948846 
L 189.725266 282.948846 
L 189.725266 281.949149 
L 191.66195 281.949149 
L 191.66195 281.4493 
L 198.888492 281.4493 
L 198.888492 280.949451 
L 201.367009 280.949451 
L 201.367009 280.449603 
L 201.388999 280.449603 
L 201.388999 279.949754 
L 208.018299 279.949754 
L 208.018299 278.950057 
L 208.415705 278.950057 
L 208.415705 278.450209 
L 208.900948 278.450209 
L 208.900948 277.95036 
L 211.414292 277.95036 
L 211.414292 277.450511 
L 211.775382 277.450511 
L 211.775382 276.950663 
L 213.716618 276.950663 
L 213.716618 276.450814 
L 213.765322 276.450814 
L 213.765322 275.950966 
L 216.857219 275.950966 
L 216.857219 275.451117 
L 217.299639 275.451117 
L 217.299639 274.951268 
L 217.855508 274.951268 
L 217.855508 274.45142 
L 224.206497 274.45142 
L 224.206497 273.951571 
L 225.445759 273.951571 
L 225.445759 273.451723 
L 226.42456 273.451723 
L 226.42456 272.951874 
L 228.94615 272.951874 
L 228.94615 272.452026 
L 231.925012 272.452026 
L 231.925012 271.952177 
L 234.118798 271.952177 
L 234.118798 271.452328 
L 237.127182 271.452328 
L 237.127182 270.95248 
L 237.574382 270.95248 
L 237.574382 270.452631 
L 237.994919 270.452631 
L 237.994919 269.952783 
L 239.273538 269.952783 
L 239.273538 269.452934 
L 244.633172 269.452934 
L 244.633172 268.953086 
L 338.688 268.953086 
" style="fill:none;stroke:#ff00ff;stroke-linecap:square;stroke-width:1.5;"/>
   </g>
   <g id="line2d_49">
    <defs>
     <path d="M -0 8.485281 
L 5.091169 0 
L 0 -8.485281 
L -5.091169 -0 
z
" id="m2880ab3fa4" style="stroke:#ff00ff;stroke-linejoin:miter;stroke-width:1.5;"/>
    </defs>
    <g>
     <use style="fill-opacity:0;stroke:#ff00ff;stroke-linejoin:miter;stroke-width:1.5;" x="136.79465" xlink:href="#m2880ab3fa4" y="295.44506"/>
     <use style="fill-opacity:0;stroke:#ff00ff;stroke-linejoin:miter;stroke-width:1.5;" x="217.299639" xlink:href="#m2880ab3fa4" y="275.451117"/>
     <use style="fill-opacity:0;stroke:#ff00ff;stroke-linejoin:miter;stroke-width:1.5;" x="244.633172" xlink:href="#m2880ab3fa4" y="269.452934"/>
     <use style="fill-opacity:0;stroke:#ff00ff;stroke-linejoin:miter;stroke-width:1.5;" x="244.633172" xlink:href="#m2880ab3fa4" y="268.953086"/>
     <use style="fill-opacity:0;stroke:#ff00ff;stroke-linejoin:miter;stroke-width:1.5;" x="338.688" xlink:href="#m2880ab3fa4" y="268.953086"/>
    </g>
   </g>
   <g id="line2d_50">
    <path style="fill:none;stroke:#ff00ff;stroke-linecap:square;stroke-width:1.5;"/>
    <g/>
   </g>
   <g id="line2d_51">
    <path clip-path="url(#pe57f915842)" d="M 201.784633 279.949754 
" style="fill:none;stroke:#ff00ff;stroke-linecap:square;stroke-width:1.5;"/>
    <defs>
     <path d="M -12 12 
L 12 -12 
M -12 -12 
L 12 12 
" id="m1a2ce2161f" style="stroke:#ff00ff;"/>
    </defs>
    <g clip-path="url(#pe57f915842)">
     <use style="fill:#ff00ff;stroke:#ff00ff;" x="201.784633" xlink:href="#m1a2ce2161f" y="279.949754"/>
    </g>
   </g>
   <g id="line2d_52">
    <defs>
     <path d="M 0 1.5 
C 0.397805 1.5 0.77937 1.341951 1.06066 1.06066 
C 1.341951 0.77937 1.5 0.397805 1.5 0 
C 1.5 -0.397805 1.341951 -0.77937 1.06066 -1.06066 
C 0.77937 -1.341951 0.397805 -1.5 0 -1.5 
C -0.397805 -1.5 -0.77937 -1.341951 -1.06066 -1.06066 
C -1.341951 -0.77937 -1.5 -0.397805 -1.5 0 
C -1.5 0.397805 -1.341951 0.77937 -1.06066 1.06066 
C -0.77937 1.341951 -0.397805 1.5 0 1.5 
z
" id="m65300f608c" style="stroke:#6495ed;"/>
    </defs>
    <g>
     <use style="fill:#6495ed;stroke:#6495ed;" x="243.761299" xlink:href="#m65300f608c" y="253.957628"/>
     <use style="fill:#6495ed;stroke:#6495ed;" x="243.761299" xlink:href="#m65300f608c" y="253.957628"/>
    </g>
   </g>
   <g id="line2d_53">
    <path d="M 80.881459 298.944 
L 80.881459 298.444151 
L 93.863965 298.444151 
L 93.863965 297.444454 
L 97.755429 297.444454 
L 97.755429 295.44506 
L 98.43941 295.44506 
L 98.43941 293.945514 
L 99.41757 293.945514 
L 99.41757 290.446574 
L 100.040467 290.446574 
L 100.040467 286.947634 
L 100.343767 286.947634 
L 100.343767 284.94824 
L 103.372333 284.94824 
L 103.372333 283.948543 
L 108.198707 283.948543 
L 108.198707 283.448694 
L 108.389302 283.448694 
L 108.389302 281.4493 
L 108.577836 281.4493 
L 108.577836 279.449906 
L 111.346294 279.449906 
L 111.346294 277.450511 
L 112.877038 277.450511 
L 112.877038 276.450814 
L 143.75376 276.450814 
L 143.75376 275.451117 
L 155.86668 275.451117 
L 155.86668 272.951874 
L 159.497101 272.951874 
L 159.497101 271.952177 
L 159.728221 271.952177 
L 159.728221 271.452328 
L 160.528149 271.452328 
L 160.528149 270.95248 
L 167.372038 270.95248 
L 167.372038 270.452631 
L 168.512429 270.452631 
L 168.512429 269.952783 
L 185.939384 269.952783 
L 185.939384 268.453237 
L 186.319397 268.453237 
L 186.319397 267.45354 
L 187.065861 267.45354 
L 187.065861 266.453843 
L 188.675499 266.453843 
L 188.675499 265.454146 
L 188.720998 265.454146 
L 188.720998 263.454751 
L 189.941972 263.454751 
L 189.941972 262.954903 
L 191.345598 262.954903 
L 191.345598 261.955206 
L 191.389519 261.955206 
L 191.389519 260.45566 
L 191.397641 260.45566 
L 191.397641 257.956417 
L 194.816697 257.956417 
L 194.816697 256.456871 
L 197.087563 256.456871 
L 197.087563 255.957023 
L 211.758716 255.957023 
L 211.758716 255.457174 
L 216.221554 255.457174 
L 216.221554 254.957326 
L 221.691531 254.957326 
L 221.691531 254.457477 
L 243.761299 254.457477 
L 243.761299 253.957628 
L 338.688 253.957628 
" style="fill:none;stroke:#6495ed;stroke-linecap:square;stroke-width:1.5;"/>
   </g>
   <g id="line2d_54">
    <defs>
     <path d="M -0 6 
L 6 -6 
L -6 -6 
z
" id="m7a6e3cd02a" style="stroke:#6495ed;stroke-linejoin:miter;stroke-width:1.5;"/>
    </defs>
    <g>
     <use style="fill-opacity:0;stroke:#6495ed;stroke-linejoin:miter;stroke-width:1.5;" x="160.528149" xlink:href="#m7a6e3cd02a" y="271.452328"/>
     <use style="fill-opacity:0;stroke:#6495ed;stroke-linejoin:miter;stroke-width:1.5;" x="243.761299" xlink:href="#m7a6e3cd02a" y="254.457477"/>
     <use style="fill-opacity:0;stroke:#6495ed;stroke-linejoin:miter;stroke-width:1.5;" x="243.761299" xlink:href="#m7a6e3cd02a" y="253.957628"/>
     <use style="fill-opacity:0;stroke:#6495ed;stroke-linejoin:miter;stroke-width:1.5;" x="243.761299" xlink:href="#m7a6e3cd02a" y="253.957628"/>
     <use style="fill-opacity:0;stroke:#6495ed;stroke-linejoin:miter;stroke-width:1.5;" x="338.688" xlink:href="#m7a6e3cd02a" y="253.957628"/>
    </g>
   </g>
   <g id="line2d_55">
    <path style="fill:none;stroke:#6495ed;stroke-linecap:square;stroke-width:1.5;"/>
    <g/>
   </g>
   <g id="line2d_56">
    <path clip-path="url(#pe57f915842)" d="M 218.315286 254.957326 
" style="fill:none;stroke:#6495ed;stroke-linecap:square;stroke-width:1.5;"/>
    <defs>
     <path d="M -12 12 
L 12 -12 
M -12 -12 
L 12 12 
" id="mabce547084" style="stroke:#6495ed;"/>
    </defs>
    <g clip-path="url(#pe57f915842)">
     <use style="fill:#6495ed;stroke:#6495ed;" x="218.315286" xlink:href="#mabce547084" y="254.957326"/>
    </g>
   </g>
   <g id="line2d_57">
    <defs>
     <path d="M 0 1.5 
C 0.397805 1.5 0.77937 1.341951 1.06066 1.06066 
C 1.341951 0.77937 1.5 0.397805 1.5 0 
C 1.5 -0.397805 1.341951 -0.77937 1.06066 -1.06066 
C 0.77937 -1.341951 0.397805 -1.5 0 -1.5 
C -0.397805 -1.5 -0.77937 -1.341951 -1.06066 -1.06066 
C -1.341951 -0.77937 -1.5 -0.397805 -1.5 0 
C -1.5 0.397805 -1.341951 0.77937 -1.06066 1.06066 
C -0.77937 1.341951 -0.397805 1.5 0 1.5 
z
" id="m5b91d149fb" style="stroke:#9acd32;"/>
    </defs>
    <g>
     <use style="fill:#9acd32;stroke:#9acd32;" x="310.386478" xlink:href="#m5b91d149fb" y="44.021228"/>
     <use style="fill:#9acd32;stroke:#9acd32;" x="310.386478" xlink:href="#m5b91d149fb" y="44.021228"/>
    </g>
   </g>
   <g id="line2d_58">
    <path d="M 48.691568 298.944 
L 48.691568 298.444151 
L 71.35013 298.444151 
L 71.35013 297.944303 
L 79.938565 297.944303 
L 79.938565 296.444757 
L 84.955534 296.444757 
L 84.955534 295.944909 
L 86.351421 295.944909 
L 86.351421 295.44506 
L 87.009585 295.44506 
L 87.009585 294.445363 
L 87.643811 294.445363 
L 87.643811 293.445666 
L 88.255778 293.445666 
L 88.255778 292.445969 
L 92.026554 292.445969 
L 92.026554 291.446271 
L 92.504372 291.446271 
L 92.504372 290.446574 
L 92.969447 290.446574 
L 92.969447 289.946726 
L 95.526106 289.946726 
L 95.526106 288.44718 
L 98.771596 288.44718 
L 98.771596 287.447483 
L 103.623262 287.447483 
L 103.623262 285.947937 
L 104.114542 285.947937 
L 104.114542 284.94824 
L 104.826449 284.94824 
L 104.826449 284.448391 
L 105.951954 284.448391 
L 105.951954 283.948543 
L 107.614095 283.948543 
L 107.614095 283.448694 
L 109.131511 283.448694 
L 109.131511 282.448997 
L 109.31223 282.448997 
L 109.31223 281.949149 
L 113.873839 281.949149 
L 113.873839 281.4493 
L 117.598418 281.4493 
L 117.598418 280.949451 
L 118.039942 280.949451 
L 118.039942 280.449603 
L 134.911732 280.449603 
L 134.911732 279.949754 
L 137.089613 279.949754 
L 137.089613 279.449906 
L 154.520548 279.449906 
L 154.520548 278.450209 
L 161.823263 278.450209 
L 161.823263 277.95036 
L 162.00818 277.95036 
L 162.00818 277.450511 
L 163.835954 277.450511 
L 163.835954 276.950663 
L 165.382267 276.950663 
L 165.382267 276.450814 
L 167.754214 276.450814 
L 167.754214 275.950966 
L 171.030109 275.950966 
L 171.030109 274.951268 
L 171.422484 274.951268 
L 171.422484 274.45142 
L 171.554716 274.45142 
L 171.554716 273.451723 
L 172.22076 273.451723 
L 172.22076 272.951874 
L 176.950079 272.951874 
L 176.950079 271.952177 
L 177.248698 271.952177 
L 177.248698 271.452328 
L 179.76327 271.452328 
L 179.76327 270.95248 
L 180.681664 270.95248 
L 180.681664 270.452631 
L 185.758572 270.452631 
L 185.758572 269.452934 
L 188.096517 269.452934 
L 188.155287 266.953691 
L 188.709634 266.953691 
L 188.709634 266.453843 
L 189.041785 266.453843 
L 189.041785 265.953994 
L 189.279937 265.953994 
L 189.279937 265.454146 
L 190.595101 265.454146 
L 190.640951 264.454448 
L 192.344209 264.454448 
L 192.344209 263.9546 
L 196.305057 263.9546 
L 196.305057 263.454751 
L 197.67632 263.454751 
L 197.67632 262.954903 
L 199.527662 262.954903 
L 199.527662 262.455054 
L 204.426813 262.455054 
L 204.426813 261.955206 
L 208.717854 261.955206 
L 208.717854 261.455357 
L 212.618818 261.455357 
L 212.618818 260.955508 
L 223.419632 260.955508 
L 223.419632 260.45566 
L 223.572225 260.45566 
L 223.64598 255.457174 
L 223.686055 255.457174 
L 223.752728 248.459294 
L 225.695658 248.459294 
L 225.695658 247.959446 
L 231.6192 247.959446 
L 231.6192 247.459597 
L 231.894305 247.459597 
L 231.894623 245.960051 
L 239.29074 245.960051 
L 239.398566 240.961566 
L 239.413679 240.961566 
L 239.426712 238.462323 
L 243.276271 238.462323 
L 243.276271 237.962474 
L 247.482693 237.962474 
L 247.545507 227.465654 
L 252.997126 227.465654 
L 253.064422 214.96944 
L 254.93114 214.96944 
L 254.93114 214.469591 
L 257.181815 214.469591 
L 257.25 207.471711 
L 258.725598 207.471711 
L 258.725598 206.971863 
L 260.581991 206.971863 
L 260.616688 200.97368 
L 263.410958 200.97368 
L 263.44769 188.977314 
L 265.84895 188.977314 
L 265.877786 178.980342 
L 267.98513 178.980342 
L 268.010844 170.982765 
L 269.88245 170.982765 
L 269.911097 162.48534 
L 271.59857 162.48534 
L 271.622478 154.487762 
L 273.150229 154.487762 
L 273.179538 148.989428 
L 274.593216 148.989428 
L 274.61532 139.992154 
L 275.915354 139.992154 
L 275.935921 132.994274 
L 277.148002 132.994274 
L 277.16681 128.995485 
L 278.295851 128.995485 
L 278.315408 120.997908 
L 279.379446 120.997908 
L 279.395996 114.999725 
L 280.395478 114.999725 
L 280.408982 111.500785 
L 281.355569 111.500785 
L 281.368873 108.001845 
L 282.263707 108.001845 
L 282.275131 105.502602 
L 283.131307 105.502602 
L 283.141662 102.503511 
L 283.952229 102.503511 
L 283.965349 96.505328 
L 284.741293 96.505328 
L 284.751935 93.506236 
L 285.498891 93.506236 
L 285.503228 91.506842 
L 286.210377 91.506842 
L 286.220555 89.007599 
L 286.907433 89.007599 
L 286.917905 85.508659 
L 287.578061 85.508659 
L 287.582106 84.009114 
L 288.214054 84.009114 
L 288.218377 81.509871 
L 288.838883 81.509871 
L 288.84337 79.010628 
L 289.437486 79.010628 
L 289.438855 78.010931 
L 290.012913 78.010931 
L 290.01945 74.511991 
L 290.574771 74.511991 
L 290.575646 73.512294 
L 291.111763 73.512294 
L 291.119512 70.513202 
L 291.637323 70.513202 
L 291.64101 69.513505 
L 292.640924 69.513505 
L 292.648784 67.514111 
L 293.127993 67.514111 
L 293.132358 65.514716 
L 293.591959 65.514716 
L 293.601545 64.015171 
L 294.058044 64.015171 
L 294.058044 63.515322 
L 294.499714 63.515322 
L 294.500321 62.515625 
L 295.358661 62.515625 
L 295.358661 62.015776 
L 295.769778 62.015776 
L 295.771719 60.516231 
L 296.173567 60.516231 
L 296.174525 59.516533 
L 296.57118 59.516533 
L 296.571941 58.516836 
L 296.954955 58.516836 
L 296.955696 57.517139 
L 297.329327 57.517139 
L 297.329327 57.017291 
L 297.705781 57.017291 
L 297.705781 56.517442 
L 298.065121 56.517442 
L 298.065676 55.517745 
L 298.419029 55.517745 
L 298.420563 54.518048 
L 298.765969 54.518048 
L 298.765969 54.018199 
L 299.10685 54.018199 
L 299.108666 53.018502 
L 299.766932 53.018502 
L 299.770185 52.018805 
L 300.404139 52.018805 
L 300.409229 50.519259 
L 301.018124 50.519259 
L 301.021953 49.519562 
L 301.321717 49.519562 
L 301.321717 49.019713 
L 301.617304 49.019713 
L 301.617304 48.519865 
L 302.192495 48.519865 
L 302.192495 48.020016 
L 303.549779 48.020016 
L 303.552606 47.020319 
L 303.812973 47.020319 
L 303.812973 46.520471 
L 304.318465 46.520471 
L 304.318465 46.020622 
L 304.567804 46.020622 
L 304.567804 45.520773 
L 306.215202 45.520773 
L 306.215202 45.020925 
L 308.123552 45.020925 
L 308.123552 44.521076 
L 310.386478 44.521076 
L 310.386478 44.021228 
L 338.688 44.021228 
L 338.688 44.021228 
" style="fill:none;stroke:#9acd32;stroke-linecap:square;stroke-width:1.5;"/>
   </g>
   <g id="line2d_59">
    <defs>
     <path d="M 0 -6 
L -6 6 
L 6 6 
z
" id="m38f1cf9cb4" style="stroke:#9acd32;stroke-linejoin:miter;stroke-width:1.5;"/>
    </defs>
    <g>
     <use style="fill-opacity:0;stroke:#9acd32;stroke-linejoin:miter;stroke-width:1.5;" x="137.089613" xlink:href="#m38f1cf9cb4" y="279.449906"/>
     <use style="fill-opacity:0;stroke:#9acd32;stroke-linejoin:miter;stroke-width:1.5;" x="212.618818" xlink:href="#m38f1cf9cb4" y="261.455357"/>
     <use style="fill-opacity:0;stroke:#9acd32;stroke-linejoin:miter;stroke-width:1.5;" x="275.919436" xlink:href="#m38f1cf9cb4" y="139.492305"/>
     <use style="fill-opacity:0;stroke:#9acd32;stroke-linejoin:miter;stroke-width:1.5;" x="310.386478" xlink:href="#m38f1cf9cb4" y="44.521076"/>
     <use style="fill-opacity:0;stroke:#9acd32;stroke-linejoin:miter;stroke-width:1.5;" x="310.386478" xlink:href="#m38f1cf9cb4" y="44.021228"/>
     <use style="fill-opacity:0;stroke:#9acd32;stroke-linejoin:miter;stroke-width:1.5;" x="338.688" xlink:href="#m38f1cf9cb4" y="44.021228"/>
    </g>
   </g>
   <g id="line2d_60">
    <path style="fill:none;stroke:#9acd32;stroke-linecap:square;stroke-width:1.5;"/>
    <g/>
   </g>
   <g id="line2d_61">
    <path clip-path="url(#pe57f915842)" d="M 230.310575 247.959446 
" style="fill:none;stroke:#9acd32;stroke-linecap:square;stroke-width:1.5;"/>
    <defs>
     <path d="M -12 12 
L 12 -12 
M -12 -12 
L 12 12 
" id="m9808b570f1" style="stroke:#9acd32;"/>
    </defs>
    <g clip-path="url(#pe57f915842)">
     <use style="fill:#9acd32;stroke:#9acd32;" x="230.310575" xlink:href="#m9808b570f1" y="247.959446"/>
    </g>
   </g>
   <g id="line2d_62">
    <defs>
     <path d="M 0 1.5 
C 0.397805 1.5 0.77937 1.341951 1.06066 1.06066 
C 1.341951 0.77937 1.5 0.397805 1.5 0 
C 1.5 -0.397805 1.341951 -0.77937 1.06066 -1.06066 
C 0.77937 -1.341951 0.397805 -1.5 0 -1.5 
C -0.397805 -1.5 -0.77937 -1.341951 -1.06066 -1.06066 
C -1.341951 -0.77937 -1.5 -0.397805 -1.5 0 
C -1.5 0.397805 -1.341951 0.77937 -1.06066 1.06066 
C -0.77937 1.341951 -0.397805 1.5 0 1.5 
z
" id="m7034ad97c7" style="stroke:#ff0000;"/>
    </defs>
    <g>
     <use style="fill:#ff0000;stroke:#ff0000;" x="268.72318" xlink:href="#m7034ad97c7" y="258.956114"/>
     <use style="fill:#ff0000;stroke:#ff0000;" x="268.72318" xlink:href="#m7034ad97c7" y="258.956114"/>
    </g>
   </g>
   <g id="line2d_63">
    <path d="M 74.263433 298.944 
L 74.263433 298.444151 
L 75.555822 298.444151 
L 75.555822 297.944303 
L 82.626842 297.944303 
L 82.626842 297.444454 
L 85.66744 297.444454 
L 85.66744 296.944606 
L 88.846997 296.944606 
L 88.846997 296.444757 
L 109.843417 296.444757 
L 109.843417 295.944909 
L 111.819788 295.944909 
L 111.819788 295.44506 
L 119.602714 295.44506 
L 119.602714 294.945211 
L 121.400219 294.945211 
L 121.400219 294.445363 
L 123.111324 294.445363 
L 123.111324 293.445666 
L 124.743806 293.445666 
L 124.743806 292.945817 
L 125.327602 292.945817 
L 125.327602 292.445969 
L 131.690703 292.445969 
L 131.690703 291.94612 
L 132.374684 291.94612 
L 132.374684 291.446271 
L 133.533096 291.446271 
L 133.533096 290.946423 
L 139.793552 290.946423 
L 139.793552 290.446574 
L 142.432559 290.446574 
L 142.432559 289.946726 
L 143.247504 289.946726 
L 143.247504 289.446877 
L 149.981398 289.446877 
L 149.981398 288.947029 
L 156.526689 288.947029 
L 156.526689 287.447483 
L 160.307457 287.447483 
L 160.307457 286.447786 
L 160.518612 286.447786 
L 160.518612 285.947937 
L 162.182487 285.947937 
L 162.182487 285.448089 
L 162.38081 285.448089 
L 162.38081 284.94824 
L 163.709295 284.94824 
L 163.709295 284.448391 
L 168.548585 284.448391 
L 168.548585 283.948543 
L 168.710367 283.948543 
L 168.71633 282.948846 
L 170.288808 282.948846 
L 170.381181 281.4493 
L 172.568398 281.4493 
L 172.568398 280.949451 
L 176.600793 280.949451 
L 176.600793 280.449603 
L 180.305371 280.449603 
L 180.326831 279.449906 
L 182.711348 279.449906 
L 182.711348 278.950057 
L 183.141578 278.950057 
L 183.141578 277.95036 
L 183.36179 277.95036 
L 183.36179 277.450511 
L 183.510473 277.450511 
L 183.510473 276.950663 
L 196.577456 276.950663 
L 196.577456 276.450814 
L 197.156564 276.450814 
L 197.156564 275.950966 
L 198.954948 275.950966 
L 198.954948 274.951268 
L 202.729788 274.951268 
L 202.729788 274.45142 
L 210.190149 274.45142 
L 210.203411 272.951874 
L 215.540702 272.951874 
L 215.540702 271.952177 
L 218.653697 271.952177 
L 218.71653 270.95248 
L 219.232288 270.95248 
L 219.232288 270.452631 
L 220.239454 270.452631 
L 220.239454 269.952783 
L 224.134334 269.952783 
L 224.134334 269.452934 
L 227.217541 269.452934 
L 227.217541 268.953086 
L 228.199472 268.953086 
L 228.199472 267.45354 
L 228.812125 267.45354 
L 228.812125 266.453843 
L 229.53337 266.453843 
L 229.539933 265.454146 
L 230.031608 265.454146 
L 230.031608 264.954297 
L 230.337235 264.954297 
L 230.337235 264.454448 
L 235.629519 264.454448 
L 235.629519 263.9546 
L 235.892707 263.9546 
L 235.892707 263.454751 
L 242.120216 263.454751 
L 242.120216 262.954903 
L 245.353173 262.954903 
L 245.353173 262.455054 
L 254.560942 262.455054 
L 254.560942 261.955206 
L 256.113066 261.955206 
L 256.113066 261.455357 
L 258.388823 261.455357 
L 258.388823 260.955508 
L 264.310574 260.955508 
L 264.310574 260.45566 
L 266.653011 260.45566 
L 266.707566 259.455963 
L 268.72318 259.455963 
L 268.72318 258.956114 
L 338.688 258.956114 
L 338.688 258.956114 
" style="fill:none;stroke:#ff0000;stroke-linecap:square;stroke-width:1.5;"/>
   </g>
   <g id="line2d_64">
    <defs>
     <path d="M 0 -6 
L -5.196152 -3 
L -5.196152 3 
L -0 6 
L 5.196152 3 
L 5.196152 -3 
z
" id="mab6cb1afc7" style="stroke:#ff0000;stroke-linejoin:miter;stroke-width:1.5;"/>
    </defs>
    <g>
     <use style="fill-opacity:0;stroke:#ff0000;stroke-linejoin:miter;stroke-width:1.5;" x="149.981398" xlink:href="#mab6cb1afc7" y="288.947029"/>
     <use style="fill-opacity:0;stroke:#ff0000;stroke-linejoin:miter;stroke-width:1.5;" x="242.120216" xlink:href="#mab6cb1afc7" y="262.954903"/>
     <use style="fill-opacity:0;stroke:#ff0000;stroke-linejoin:miter;stroke-width:1.5;" x="268.72318" xlink:href="#mab6cb1afc7" y="258.956114"/>
     <use style="fill-opacity:0;stroke:#ff0000;stroke-linejoin:miter;stroke-width:1.5;" x="268.72318" xlink:href="#mab6cb1afc7" y="258.956114"/>
     <use style="fill-opacity:0;stroke:#ff0000;stroke-linejoin:miter;stroke-width:1.5;" x="338.688" xlink:href="#mab6cb1afc7" y="258.956114"/>
    </g>
   </g>
   <g id="line2d_65">
    <path style="fill:none;stroke:#ff0000;stroke-linecap:square;stroke-width:1.5;"/>
    <g/>
   </g>
   <g id="line2d_66">
    <path clip-path="url(#pe57f915842)" d="M 230.50342 264.454448 
" style="fill:none;stroke:#ff0000;stroke-linecap:square;stroke-width:1.5;"/>
    <defs>
     <path d="M -12 12 
L 12 -12 
M -12 -12 
L 12 12 
" id="m29b8d7f5a0" style="stroke:#ff0000;"/>
    </defs>
    <g clip-path="url(#pe57f915842)">
     <use style="fill:#ff0000;stroke:#ff0000;" x="230.50342" xlink:href="#m29b8d7f5a0" y="264.454448"/>
    </g>
   </g>
   <g id="line2d_67">
    <defs>
     <path d="M 0 1.5 
C 0.397805 1.5 0.77937 1.341951 1.06066 1.06066 
C 1.341951 0.77937 1.5 0.397805 1.5 0 
C 1.5 -0.397805 1.341951 -0.77937 1.06066 -1.06066 
C 0.77937 -1.341951 0.397805 -1.5 0 -1.5 
C -0.397805 -1.5 -0.77937 -1.341951 -1.06066 -1.06066 
C -1.341951 -0.77937 -1.5 -0.397805 -1.5 0 
C -1.5 0.397805 -1.341951 0.77937 -1.06066 1.06066 
C -0.77937 1.341951 -0.397805 1.5 0 1.5 
z
" id="m392c498844" style="stroke:#00bfbf;"/>
    </defs>
    <g>
     <use style="fill:#00bfbf;stroke:#00bfbf;" x="242.889201" xlink:href="#m392c498844" y="273.951571"/>
     <use style="fill:#00bfbf;stroke:#00bfbf;" x="242.889201" xlink:href="#m392c498844" y="273.951571"/>
    </g>
   </g>
   <g id="line2d_68">
    <path d="M 84.213325 298.944 
L 84.213325 297.444454 
L 107.213174 297.444454 
L 107.213174 296.444757 
L 109.843417 296.444757 
L 109.843417 295.44506 
L 122.362027 295.44506 
L 122.362027 294.945211 
L 127.100304 294.945211 
L 127.100304 294.445363 
L 139.317473 294.445363 
L 139.317473 293.945514 
L 164.410075 293.945514 
L 164.410075 292.945817 
L 166.364626 292.945817 
L 166.364626 291.94612 
L 172.191475 291.94612 
L 172.191475 291.446271 
L 172.395445 291.446271 
L 172.395445 290.946423 
L 173.724353 290.946423 
L 173.724353 290.446574 
L 178.25362 290.446574 
L 178.25362 289.946726 
L 179.543545 289.946726 
L 179.543545 289.446877 
L 180.79239 289.446877 
L 180.79239 288.947029 
L 184.954987 288.947029 
L 184.954987 288.44718 
L 190.001889 288.44718 
L 190.001889 287.447483 
L 190.051078 287.447483 
L 190.051078 286.947634 
L 194.690772 286.947634 
L 194.690772 285.947937 
L 197.465458 285.947937 
L 197.465458 285.448089 
L 197.513553 285.448089 
L 197.513553 284.448391 
L 197.627536 284.448391 
L 197.627536 283.948543 
L 199.242102 283.948543 
L 199.242102 283.448694 
L 200.442595 283.448694 
L 200.442595 282.948846 
L 204.144515 282.948846 
L 204.144515 282.448997 
L 204.576185 282.448997 
L 204.576185 281.4493 
L 210.973838 281.4493 
L 210.973838 280.949451 
L 211.749114 280.949451 
L 211.749114 280.449603 
L 212.006542 280.449603 
L 212.006542 279.949754 
L 216.693514 279.949754 
L 216.693514 279.449906 
L 217.405223 279.449906 
L 217.405223 278.950057 
L 217.409243 278.950057 
L 217.409243 278.450209 
L 221.099297 278.450209 
L 221.099297 277.95036 
L 221.329915 277.95036 
L 221.329915 277.450511 
L 224.925934 277.450511 
L 224.925934 276.950663 
L 225.420387 276.950663 
L 225.420387 276.450814 
L 227.996351 276.450814 
L 227.996351 275.950966 
L 231.286341 275.950966 
L 231.286341 275.451117 
L 235.248631 275.451117 
L 235.248631 274.951268 
L 240.23246 274.951268 
L 240.23246 274.45142 
L 242.889201 274.45142 
L 242.889201 273.951571 
L 338.688 273.951571 
" style="fill:none;stroke:#00bfbf;stroke-linecap:square;stroke-width:1.5;"/>
   </g>
   <g id="line2d_69">
    <defs>
     <path d="M 0 -6 
L -5.706339 -1.854102 
L -3.526712 4.854102 
L 3.526712 4.854102 
L 5.706339 -1.854102 
z
" id="m86cef2351d" style="stroke:#00bfbf;stroke-linejoin:miter;stroke-width:1.5;"/>
    </defs>
    <g>
     <use style="fill-opacity:0;stroke:#00bfbf;stroke-linejoin:miter;stroke-width:1.5;" x="139.317473" xlink:href="#m86cef2351d" y="293.945514"/>
     <use style="fill-opacity:0;stroke:#00bfbf;stroke-linejoin:miter;stroke-width:1.5;" x="217.409243" xlink:href="#m86cef2351d" y="278.950057"/>
     <use style="fill-opacity:0;stroke:#00bfbf;stroke-linejoin:miter;stroke-width:1.5;" x="242.889201" xlink:href="#m86cef2351d" y="273.951571"/>
     <use style="fill-opacity:0;stroke:#00bfbf;stroke-linejoin:miter;stroke-width:1.5;" x="242.889201" xlink:href="#m86cef2351d" y="273.951571"/>
     <use style="fill-opacity:0;stroke:#00bfbf;stroke-linejoin:miter;stroke-width:1.5;" x="338.688" xlink:href="#m86cef2351d" y="273.951571"/>
    </g>
   </g>
   <g id="line2d_70">
    <path style="fill:none;stroke:#00bfbf;stroke-linecap:square;stroke-width:1.5;"/>
    <g/>
   </g>
   <g id="line2d_71">
    <path clip-path="url(#pe57f915842)" d="M 209.808437 281.4493 
" style="fill:none;stroke:#00bfbf;stroke-linecap:square;stroke-width:1.5;"/>
    <defs>
     <path d="M -12 12 
L 12 -12 
M -12 -12 
L 12 12 
" id="mf03a3e8ec9" style="stroke:#00bfbf;"/>
    </defs>
    <g clip-path="url(#pe57f915842)">
     <use style="fill:#00bfbf;stroke:#00bfbf;" x="209.808437" xlink:href="#mf03a3e8ec9" y="281.4493"/>
    </g>
   </g>
   <g id="line2d_72">
    <path d="M 338.688 273.951571 
L 369.60768 293.845545 
" style="fill:none;stroke:#00bfbf;stroke-linecap:square;stroke-width:1.5;"/>
    <g>
     <use style="fill-opacity:0;stroke:#00bfbf;stroke-linejoin:miter;stroke-width:1.5;" x="338.688" xlink:href="#m86cef2351d" y="273.951571"/>
     <use style="fill-opacity:0;stroke:#00bfbf;stroke-linejoin:miter;stroke-width:1.5;" x="369.60768" xlink:href="#m86cef2351d" y="293.845545"/>
    </g>
   </g>
   <g id="line2d_73">
    <path d="M 338.688 268.953086 
L 369.60768 253.057901 
" style="fill:none;stroke:#ff00ff;stroke-linecap:square;stroke-width:1.5;"/>
    <g>
     <use style="fill-opacity:0;stroke:#ff00ff;stroke-linejoin:miter;stroke-width:1.5;" x="338.688" xlink:href="#m2880ab3fa4" y="268.953086"/>
     <use style="fill-opacity:0;stroke:#ff00ff;stroke-linejoin:miter;stroke-width:1.5;" x="369.60768" xlink:href="#m2880ab3fa4" y="253.057901"/>
    </g>
   </g>
   <g id="line2d_74">
    <path d="M 338.688 258.956114 
L 369.60768 212.270257 
" style="fill:none;stroke:#ff0000;stroke-linecap:square;stroke-width:1.5;"/>
    <g>
     <use style="fill-opacity:0;stroke:#ff0000;stroke-linejoin:miter;stroke-width:1.5;" x="338.688" xlink:href="#mab6cb1afc7" y="258.956114"/>
     <use style="fill-opacity:0;stroke:#ff0000;stroke-linejoin:miter;stroke-width:1.5;" x="369.60768" xlink:href="#mab6cb1afc7" y="212.270257"/>
    </g>
   </g>
   <g id="line2d_75">
    <path d="M 338.688 253.957628 
L 369.60768 171.482614 
" style="fill:none;stroke:#6495ed;stroke-linecap:square;stroke-width:1.5;"/>
    <g>
     <use style="fill-opacity:0;stroke:#6495ed;stroke-linejoin:miter;stroke-width:1.5;" x="338.688" xlink:href="#m7a6e3cd02a" y="253.957628"/>
     <use style="fill-opacity:0;stroke:#6495ed;stroke-linejoin:miter;stroke-width:1.5;" x="369.60768" xlink:href="#m7a6e3cd02a" y="171.482614"/>
    </g>
   </g>
   <g id="line2d_76">
    <path d="M 338.688 243.960657 
L 369.60768 130.69497 
" style="fill:none;stroke:#000080;stroke-linecap:square;stroke-width:1.5;"/>
    <g>
     <use style="fill-opacity:0;stroke:#000080;stroke-width:1.5;" x="338.688" xlink:href="#m89e68af86f" y="243.960657"/>
     <use style="fill-opacity:0;stroke:#000080;stroke-width:1.5;" x="369.60768" xlink:href="#m89e68af86f" y="130.69497"/>
    </g>
   </g>
   <g id="line2d_77">
    <path d="M 338.688 44.021228 
L 369.60768 89.907327 
" style="fill:none;stroke:#9acd32;stroke-linecap:square;stroke-width:1.5;"/>
    <g>
     <use style="fill-opacity:0;stroke:#9acd32;stroke-linejoin:miter;stroke-width:1.5;" x="338.688" xlink:href="#m38f1cf9cb4" y="44.021228"/>
     <use style="fill-opacity:0;stroke:#9acd32;stroke-linejoin:miter;stroke-width:1.5;" x="369.60768" xlink:href="#m38f1cf9cb4" y="89.907327"/>
    </g>
   </g>
   <g id="line2d_78">
    <path d="M 338.688 298.944 
L 338.688 44.021228 
" style="fill:none;stroke:#000000;stroke-linecap:square;stroke-width:1.5;"/>
   </g>
   <g id="patch_3">
    <path d="M 57.6 298.944 
L 57.6 41.472 
" style="fill:none;stroke:#000000;stroke-linecap:square;stroke-linejoin:miter;stroke-width:0.8;"/>
   </g>
   <g id="patch_4">
    <path d="M 338.688 298.944 
L 338.688 41.472 
" style="fill:none;stroke:#000000;stroke-linecap:square;stroke-linejoin:miter;stroke-width:0.8;"/>
   </g>
   <g id="patch_5">
    <path d="M 57.6 298.944 
L 338.688 298.944 
" style="fill:none;stroke:#000000;stroke-linecap:square;stroke-linejoin:miter;stroke-width:0.8;"/>
   </g>
   <g id="patch_6">
    <path d="M 57.6 41.472 
L 338.688 41.472 
" style="fill:none;stroke:#000000;stroke-linecap:square;stroke-linejoin:miter;stroke-width:0.8;"/>
   </g>
   <g id="text_13">
    <!-- BFGS-P-St -->
    <defs>
     <path d="M 19.671875 34.8125 
L 19.671875 8.109375 
L 35.5 8.109375 
Q 43.453125 8.109375 47.28125 11.40625 
Q 51.125 14.703125 51.125 21.484375 
Q 51.125 28.328125 47.28125 31.5625 
Q 43.453125 34.8125 35.5 34.8125 
z
M 19.671875 64.796875 
L 19.671875 42.828125 
L 34.28125 42.828125 
Q 41.5 42.828125 45.03125 45.53125 
Q 48.578125 48.25 48.578125 53.8125 
Q 48.578125 59.328125 45.03125 62.0625 
Q 41.5 64.796875 34.28125 64.796875 
z
M 9.8125 72.90625 
L 35.015625 72.90625 
Q 46.296875 72.90625 52.390625 68.21875 
Q 58.5 63.53125 58.5 54.890625 
Q 58.5 48.1875 55.375 44.234375 
Q 52.25 40.28125 46.1875 39.3125 
Q 53.46875 37.75 57.5 32.78125 
Q 61.53125 27.828125 61.53125 20.40625 
Q 61.53125 10.640625 54.890625 5.3125 
Q 48.25 0 35.984375 0 
L 9.8125 0 
z
" id="DejaVuSans-66"/>
     <path d="M 59.515625 10.40625 
L 59.515625 29.984375 
L 43.40625 29.984375 
L 43.40625 38.09375 
L 69.28125 38.09375 
L 69.28125 6.78125 
Q 63.578125 2.734375 56.6875 0.65625 
Q 49.8125 -1.421875 42 -1.421875 
Q 24.90625 -1.421875 15.25 8.5625 
Q 5.609375 18.5625 5.609375 36.375 
Q 5.609375 54.25 15.25 64.234375 
Q 24.90625 74.21875 42 74.21875 
Q 49.125 74.21875 55.546875 72.453125 
Q 61.96875 70.703125 67.390625 67.28125 
L 67.390625 56.78125 
Q 61.921875 61.421875 55.765625 63.765625 
Q 49.609375 66.109375 42.828125 66.109375 
Q 29.4375 66.109375 22.71875 58.640625 
Q 16.015625 51.171875 16.015625 36.375 
Q 16.015625 21.625 22.71875 14.15625 
Q 29.4375 6.6875 42.828125 6.6875 
Q 48.046875 6.6875 52.140625 7.59375 
Q 56.25 8.5 59.515625 10.40625 
z
" id="DejaVuSans-71"/>
     <path d="M 53.515625 70.515625 
L 53.515625 60.890625 
Q 47.90625 63.578125 42.921875 64.890625 
Q 37.9375 66.21875 33.296875 66.21875 
Q 25.25 66.21875 20.875 63.09375 
Q 16.5 59.96875 16.5 54.203125 
Q 16.5 49.359375 19.40625 46.890625 
Q 22.3125 44.4375 30.421875 42.921875 
L 36.375 41.703125 
Q 47.40625 39.59375 52.65625 34.296875 
Q 57.90625 29 57.90625 20.125 
Q 57.90625 9.515625 50.796875 4.046875 
Q 43.703125 -1.421875 29.984375 -1.421875 
Q 24.8125 -1.421875 18.96875 -0.25 
Q 13.140625 0.921875 6.890625 3.21875 
L 6.890625 13.375 
Q 12.890625 10.015625 18.65625 8.296875 
Q 24.421875 6.59375 29.984375 6.59375 
Q 38.421875 6.59375 43.015625 9.90625 
Q 47.609375 13.234375 47.609375 19.390625 
Q 47.609375 24.75 44.3125 27.78125 
Q 41.015625 30.8125 33.5 32.328125 
L 27.484375 33.5 
Q 16.453125 35.6875 11.515625 40.375 
Q 6.59375 45.0625 6.59375 53.421875 
Q 6.59375 63.09375 13.40625 68.65625 
Q 20.21875 74.21875 32.171875 74.21875 
Q 37.3125 74.21875 42.625 73.28125 
Q 47.953125 72.359375 53.515625 70.515625 
z
" id="DejaVuSans-83"/>
     <path d="M 19.671875 64.796875 
L 19.671875 37.40625 
L 32.078125 37.40625 
Q 38.96875 37.40625 42.71875 40.96875 
Q 46.484375 44.53125 46.484375 51.125 
Q 46.484375 57.671875 42.71875 61.234375 
Q 38.96875 64.796875 32.078125 64.796875 
z
M 9.8125 72.90625 
L 32.078125 72.90625 
Q 44.34375 72.90625 50.609375 67.359375 
Q 56.890625 61.8125 56.890625 51.125 
Q 56.890625 40.328125 50.609375 34.8125 
Q 44.34375 29.296875 32.078125 29.296875 
L 19.671875 29.296875 
L 19.671875 0 
L 9.8125 0 
z
" id="DejaVuSans-80"/>
    </defs>
    <g transform="translate(375.22944 298.536482)scale(0.17 -0.17)">
     <use xlink:href="#DejaVuSans-66"/>
     <use x="68.603516" xlink:href="#DejaVuSans-70"/>
     <use x="126.123047" xlink:href="#DejaVuSans-71"/>
     <use x="203.613281" xlink:href="#DejaVuSans-83"/>
     <use x="267.089844" xlink:href="#DejaVuSans-45"/>
     <use x="303.173828" xlink:href="#DejaVuSans-80"/>
     <use x="363.445312" xlink:href="#DejaVuSans-45"/>
     <use x="399.529297" xlink:href="#DejaVuSans-83"/>
     <use x="463.005859" xlink:href="#DejaVuSans-116"/>
    </g>
   </g>
   <g id="text_14">
    <!-- BFGS ros  -->
    <g transform="translate(375.22944 257.748838)scale(0.17 -0.17)">
     <use xlink:href="#DejaVuSans-66"/>
     <use x="68.603516" xlink:href="#DejaVuSans-70"/>
     <use x="126.123047" xlink:href="#DejaVuSans-71"/>
     <use x="203.613281" xlink:href="#DejaVuSans-83"/>
     <use x="267.089844" xlink:href="#DejaVuSans-32"/>
     <use x="298.876953" xlink:href="#DejaVuSans-114"/>
     <use x="339.958984" xlink:href="#DejaVuSans-111"/>
     <use x="401.140625" xlink:href="#DejaVuSans-115"/>
     <use x="453.240234" xlink:href="#DejaVuSans-32"/>
    </g>
   </g>
   <g id="text_15">
    <!-- SLSQP-11  -->
    <defs>
     <path d="M 9.8125 72.90625 
L 19.671875 72.90625 
L 19.671875 8.296875 
L 55.171875 8.296875 
L 55.171875 0 
L 9.8125 0 
z
" id="DejaVuSans-76"/>
     <path d="M 39.40625 66.21875 
Q 28.65625 66.21875 22.328125 58.203125 
Q 16.015625 50.203125 16.015625 36.375 
Q 16.015625 22.609375 22.328125 14.59375 
Q 28.65625 6.59375 39.40625 6.59375 
Q 50.140625 6.59375 56.421875 14.59375 
Q 62.703125 22.609375 62.703125 36.375 
Q 62.703125 50.203125 56.421875 58.203125 
Q 50.140625 66.21875 39.40625 66.21875 
z
M 53.21875 1.3125 
L 66.21875 -12.890625 
L 54.296875 -12.890625 
L 43.5 -1.21875 
Q 41.890625 -1.3125 41.03125 -1.359375 
Q 40.1875 -1.421875 39.40625 -1.421875 
Q 24.03125 -1.421875 14.8125 8.859375 
Q 5.609375 19.140625 5.609375 36.375 
Q 5.609375 53.65625 14.8125 63.9375 
Q 24.03125 74.21875 39.40625 74.21875 
Q 54.734375 74.21875 63.90625 63.9375 
Q 73.09375 53.65625 73.09375 36.375 
Q 73.09375 23.6875 67.984375 14.640625 
Q 62.890625 5.609375 53.21875 1.3125 
z
" id="DejaVuSans-81"/>
    </defs>
    <g transform="translate(375.22944 216.961195)scale(0.17 -0.17)">
     <use xlink:href="#DejaVuSans-83"/>
     <use x="63.476562" xlink:href="#DejaVuSans-76"/>
     <use x="119.189453" xlink:href="#DejaVuSans-83"/>
     <use x="182.666016" xlink:href="#DejaVuSans-81"/>
     <use x="261.376953" xlink:href="#DejaVuSans-80"/>
     <use x="321.648438" xlink:href="#DejaVuSans-45"/>
     <use x="357.732422" xlink:href="#DejaVuSans-49"/>
     <use x="421.355469" xlink:href="#DejaVuSans-49"/>
     <use x="484.978516" xlink:href="#DejaVuSans-32"/>
    </g>
   </g>
   <g id="text_16">
    <!-- MCS huyer -->
    <defs>
     <path d="M 9.8125 72.90625 
L 24.515625 72.90625 
L 43.109375 23.296875 
L 61.8125 72.90625 
L 76.515625 72.90625 
L 76.515625 0 
L 66.890625 0 
L 66.890625 64.015625 
L 48.09375 14.015625 
L 38.1875 14.015625 
L 19.390625 64.015625 
L 19.390625 0 
L 9.8125 0 
z
" id="DejaVuSans-77"/>
     <path d="M 64.40625 67.28125 
L 64.40625 56.890625 
Q 59.421875 61.53125 53.78125 63.8125 
Q 48.140625 66.109375 41.796875 66.109375 
Q 29.296875 66.109375 22.65625 58.46875 
Q 16.015625 50.828125 16.015625 36.375 
Q 16.015625 21.96875 22.65625 14.328125 
Q 29.296875 6.6875 41.796875 6.6875 
Q 48.140625 6.6875 53.78125 8.984375 
Q 59.421875 11.28125 64.40625 15.921875 
L 64.40625 5.609375 
Q 59.234375 2.09375 53.4375 0.328125 
Q 47.65625 -1.421875 41.21875 -1.421875 
Q 24.65625 -1.421875 15.125 8.703125 
Q 5.609375 18.84375 5.609375 36.375 
Q 5.609375 53.953125 15.125 64.078125 
Q 24.65625 74.21875 41.21875 74.21875 
Q 47.75 74.21875 53.53125 72.484375 
Q 59.328125 70.75 64.40625 67.28125 
z
" id="DejaVuSans-67"/>
     <path d="M 54.890625 33.015625 
L 54.890625 0 
L 45.90625 0 
L 45.90625 32.71875 
Q 45.90625 40.484375 42.875 44.328125 
Q 39.84375 48.1875 33.796875 48.1875 
Q 26.515625 48.1875 22.3125 43.546875 
Q 18.109375 38.921875 18.109375 30.90625 
L 18.109375 0 
L 9.078125 0 
L 9.078125 75.984375 
L 18.109375 75.984375 
L 18.109375 46.1875 
Q 21.34375 51.125 25.703125 53.5625 
Q 30.078125 56 35.796875 56 
Q 45.21875 56 50.046875 50.171875 
Q 54.890625 44.34375 54.890625 33.015625 
z
" id="DejaVuSans-104"/>
     <path d="M 32.171875 -5.078125 
Q 28.375 -14.84375 24.75 -17.8125 
Q 21.140625 -20.796875 15.09375 -20.796875 
L 7.90625 -20.796875 
L 7.90625 -13.28125 
L 13.1875 -13.28125 
Q 16.890625 -13.28125 18.9375 -11.515625 
Q 21 -9.765625 23.484375 -3.21875 
L 25.09375 0.875 
L 2.984375 54.6875 
L 12.5 54.6875 
L 29.59375 11.921875 
L 46.6875 54.6875 
L 56.203125 54.6875 
z
" id="DejaVuSans-121"/>
    </defs>
    <g transform="translate(375.22944 176.173551)scale(0.17 -0.17)">
     <use xlink:href="#DejaVuSans-77"/>
     <use x="86.279297" xlink:href="#DejaVuSans-67"/>
     <use x="156.103516" xlink:href="#DejaVuSans-83"/>
     <use x="219.580078" xlink:href="#DejaVuSans-32"/>
     <use x="251.367188" xlink:href="#DejaVuSans-104"/>
     <use x="314.746094" xlink:href="#DejaVuSans-117"/>
     <use x="378.125" xlink:href="#DejaVuSans-121"/>
     <use x="437.304688" xlink:href="#DejaVuSans-101"/>
     <use x="498.828125" xlink:href="#DejaVuSans-114"/>
    </g>
   </g>
   <g id="text_17">
    <!-- NEWUOA ro -->
    <defs>
     <path d="M 9.8125 72.90625 
L 23.09375 72.90625 
L 55.421875 11.921875 
L 55.421875 72.90625 
L 64.984375 72.90625 
L 64.984375 0 
L 51.703125 0 
L 19.390625 60.984375 
L 19.390625 0 
L 9.8125 0 
z
" id="DejaVuSans-78"/>
     <path d="M 9.8125 72.90625 
L 55.90625 72.90625 
L 55.90625 64.59375 
L 19.671875 64.59375 
L 19.671875 43.015625 
L 54.390625 43.015625 
L 54.390625 34.71875 
L 19.671875 34.71875 
L 19.671875 8.296875 
L 56.78125 8.296875 
L 56.78125 0 
L 9.8125 0 
z
" id="DejaVuSans-69"/>
     <path d="M 3.328125 72.90625 
L 13.28125 72.90625 
L 28.609375 11.28125 
L 43.890625 72.90625 
L 54.984375 72.90625 
L 70.3125 11.28125 
L 85.59375 72.90625 
L 95.609375 72.90625 
L 77.296875 0 
L 64.890625 0 
L 49.515625 63.28125 
L 33.984375 0 
L 21.578125 0 
z
" id="DejaVuSans-87"/>
     <path d="M 8.6875 72.90625 
L 18.609375 72.90625 
L 18.609375 28.609375 
Q 18.609375 16.890625 22.84375 11.734375 
Q 27.09375 6.59375 36.625 6.59375 
Q 46.09375 6.59375 50.34375 11.734375 
Q 54.59375 16.890625 54.59375 28.609375 
L 54.59375 72.90625 
L 64.5 72.90625 
L 64.5 27.390625 
Q 64.5 13.140625 57.4375 5.859375 
Q 50.390625 -1.421875 36.625 -1.421875 
Q 22.796875 -1.421875 15.734375 5.859375 
Q 8.6875 13.140625 8.6875 27.390625 
z
" id="DejaVuSans-85"/>
     <path d="M 39.40625 66.21875 
Q 28.65625 66.21875 22.328125 58.203125 
Q 16.015625 50.203125 16.015625 36.375 
Q 16.015625 22.609375 22.328125 14.59375 
Q 28.65625 6.59375 39.40625 6.59375 
Q 50.140625 6.59375 56.421875 14.59375 
Q 62.703125 22.609375 62.703125 36.375 
Q 62.703125 50.203125 56.421875 58.203125 
Q 50.140625 66.21875 39.40625 66.21875 
z
M 39.40625 74.21875 
Q 54.734375 74.21875 63.90625 63.9375 
Q 73.09375 53.65625 73.09375 36.375 
Q 73.09375 19.140625 63.90625 8.859375 
Q 54.734375 -1.421875 39.40625 -1.421875 
Q 24.03125 -1.421875 14.8125 8.828125 
Q 5.609375 19.09375 5.609375 36.375 
Q 5.609375 53.65625 14.8125 63.9375 
Q 24.03125 74.21875 39.40625 74.21875 
z
" id="DejaVuSans-79"/>
     <path d="M 34.1875 63.1875 
L 20.796875 26.90625 
L 47.609375 26.90625 
z
M 28.609375 72.90625 
L 39.796875 72.90625 
L 67.578125 0 
L 57.328125 0 
L 50.6875 18.703125 
L 17.828125 18.703125 
L 11.1875 0 
L 0.78125 0 
z
" id="DejaVuSans-65"/>
    </defs>
    <g transform="translate(375.22944 135.385908)scale(0.17 -0.17)">
     <use xlink:href="#DejaVuSans-78"/>
     <use x="74.804688" xlink:href="#DejaVuSans-69"/>
     <use x="137.988281" xlink:href="#DejaVuSans-87"/>
     <use x="236.865234" xlink:href="#DejaVuSans-85"/>
     <use x="310.058594" xlink:href="#DejaVuSans-79"/>
     <use x="388.753906" xlink:href="#DejaVuSans-65"/>
     <use x="457.162109" xlink:href="#DejaVuSans-32"/>
     <use x="488.949219" xlink:href="#DejaVuSans-114"/>
     <use x="530.03125" xlink:href="#DejaVuSans-111"/>
    </g>
   </g>
   <g id="text_18">
    <!-- NELDERDOE -->
    <defs>
     <path d="M 19.671875 64.796875 
L 19.671875 8.109375 
L 31.59375 8.109375 
Q 46.6875 8.109375 53.6875 14.9375 
Q 60.6875 21.78125 60.6875 36.53125 
Q 60.6875 51.171875 53.6875 57.984375 
Q 46.6875 64.796875 31.59375 64.796875 
z
M 9.8125 72.90625 
L 30.078125 72.90625 
Q 51.265625 72.90625 61.171875 64.09375 
Q 71.09375 55.28125 71.09375 36.53125 
Q 71.09375 17.671875 61.125 8.828125 
Q 51.171875 0 30.078125 0 
L 9.8125 0 
z
" id="DejaVuSans-68"/>
     <path d="M 44.390625 34.1875 
Q 47.5625 33.109375 50.5625 29.59375 
Q 53.5625 26.078125 56.59375 19.921875 
L 66.609375 0 
L 56 0 
L 46.6875 18.703125 
Q 43.0625 26.03125 39.671875 28.421875 
Q 36.28125 30.8125 30.421875 30.8125 
L 19.671875 30.8125 
L 19.671875 0 
L 9.8125 0 
L 9.8125 72.90625 
L 32.078125 72.90625 
Q 44.578125 72.90625 50.734375 67.671875 
Q 56.890625 62.453125 56.890625 51.90625 
Q 56.890625 45.015625 53.6875 40.46875 
Q 50.484375 35.9375 44.390625 34.1875 
z
M 19.671875 64.796875 
L 19.671875 38.921875 
L 32.078125 38.921875 
Q 39.203125 38.921875 42.84375 42.21875 
Q 46.484375 45.515625 46.484375 51.90625 
Q 46.484375 58.296875 42.84375 61.546875 
Q 39.203125 64.796875 32.078125 64.796875 
z
" id="DejaVuSans-82"/>
    </defs>
    <g transform="translate(375.22944 94.598264)scale(0.17 -0.17)">
     <use xlink:href="#DejaVuSans-78"/>
     <use x="74.804688" xlink:href="#DejaVuSans-69"/>
     <use x="137.988281" xlink:href="#DejaVuSans-76"/>
     <use x="193.701172" xlink:href="#DejaVuSans-68"/>
     <use x="270.703125" xlink:href="#DejaVuSans-69"/>
     <use x="333.886719" xlink:href="#DejaVuSans-82"/>
     <use x="403.369141" xlink:href="#DejaVuSans-68"/>
     <use x="480.371094" xlink:href="#DejaVuSans-79"/>
     <use x="559.082031" xlink:href="#DejaVuSans-69"/>
    </g>
   </g>
   <g id="text_19">
    <!-- best 2009 -->
    <defs>
     <path d="M 48.6875 27.296875 
Q 48.6875 37.203125 44.609375 42.84375 
Q 40.53125 48.484375 33.40625 48.484375 
Q 26.265625 48.484375 22.1875 42.84375 
Q 18.109375 37.203125 18.109375 27.296875 
Q 18.109375 17.390625 22.1875 11.75 
Q 26.265625 6.109375 33.40625 6.109375 
Q 40.53125 6.109375 44.609375 11.75 
Q 48.6875 17.390625 48.6875 27.296875 
z
M 18.109375 46.390625 
Q 20.953125 51.265625 25.265625 53.625 
Q 29.59375 56 35.59375 56 
Q 45.5625 56 51.78125 48.09375 
Q 58.015625 40.1875 58.015625 27.296875 
Q 58.015625 14.40625 51.78125 6.484375 
Q 45.5625 -1.421875 35.59375 -1.421875 
Q 29.59375 -1.421875 25.265625 0.953125 
Q 20.953125 3.328125 18.109375 8.203125 
L 18.109375 0 
L 9.078125 0 
L 9.078125 75.984375 
L 18.109375 75.984375 
z
" id="DejaVuSans-98"/>
     <path d="M 10.984375 1.515625 
L 10.984375 10.5 
Q 14.703125 8.734375 18.5 7.8125 
Q 22.3125 6.890625 25.984375 6.890625 
Q 35.75 6.890625 40.890625 13.453125 
Q 46.046875 20.015625 46.78125 33.40625 
Q 43.953125 29.203125 39.59375 26.953125 
Q 35.25 24.703125 29.984375 24.703125 
Q 19.046875 24.703125 12.671875 31.3125 
Q 6.296875 37.9375 6.296875 49.421875 
Q 6.296875 60.640625 12.9375 67.421875 
Q 19.578125 74.21875 30.609375 74.21875 
Q 43.265625 74.21875 49.921875 64.515625 
Q 56.59375 54.828125 56.59375 36.375 
Q 56.59375 19.140625 48.40625 8.859375 
Q 40.234375 -1.421875 26.421875 -1.421875 
Q 22.703125 -1.421875 18.890625 -0.6875 
Q 15.09375 0.046875 10.984375 1.515625 
z
M 30.609375 32.421875 
Q 37.25 32.421875 41.125 36.953125 
Q 45.015625 41.5 45.015625 49.421875 
Q 45.015625 57.28125 41.125 61.84375 
Q 37.25 66.40625 30.609375 66.40625 
Q 23.96875 66.40625 20.09375 61.84375 
Q 16.21875 57.28125 16.21875 49.421875 
Q 16.21875 41.5 20.09375 36.953125 
Q 23.96875 32.421875 30.609375 32.421875 
z
" id="DejaVuSans-57"/>
    </defs>
    <g transform="translate(375.22944 53.810621)scale(0.17 -0.17)">
     <use xlink:href="#DejaVuSans-98"/>
     <use x="63.476562" xlink:href="#DejaVuSans-101"/>
     <use x="125" xlink:href="#DejaVuSans-115"/>
     <use x="177.099609" xlink:href="#DejaVuSans-116"/>
     <use x="216.308594" xlink:href="#DejaVuSans-32"/>
     <use x="248.095703" xlink:href="#DejaVuSans-50"/>
     <use x="311.71875" xlink:href="#DejaVuSans-48"/>
     <use x="375.341797" xlink:href="#DejaVuSans-48"/>
     <use x="438.964844" xlink:href="#DejaVuSans-57"/>
    </g>
   </g>
   <g id="text_20">
    <!-- bbob f4, 5-D -->
    <defs>
     <path d="M 10.796875 72.90625 
L 49.515625 72.90625 
L 49.515625 64.59375 
L 19.828125 64.59375 
L 19.828125 46.734375 
Q 21.96875 47.46875 24.109375 47.828125 
Q 26.265625 48.1875 28.421875 48.1875 
Q 40.625 48.1875 47.75 41.5 
Q 54.890625 34.8125 54.890625 23.390625 
Q 54.890625 11.625 47.5625 5.09375 
Q 40.234375 -1.421875 26.90625 -1.421875 
Q 22.3125 -1.421875 17.546875 -0.640625 
Q 12.796875 0.140625 7.71875 1.703125 
L 7.71875 11.625 
Q 12.109375 9.234375 16.796875 8.0625 
Q 21.484375 6.890625 26.703125 6.890625 
Q 35.15625 6.890625 40.078125 11.328125 
Q 45.015625 15.765625 45.015625 23.390625 
Q 45.015625 31 40.078125 35.4375 
Q 35.15625 39.890625 26.703125 39.890625 
Q 22.75 39.890625 18.8125 39.015625 
Q 14.890625 38.140625 10.796875 36.28125 
z
" id="DejaVuSans-53"/>
    </defs>
    <g transform="translate(60.41088 51.797126)scale(0.102 -0.102)">
     <use xlink:href="#DejaVuSans-98"/>
     <use x="63.476562" xlink:href="#DejaVuSans-98"/>
     <use x="126.953125" xlink:href="#DejaVuSans-111"/>
     <use x="188.134766" xlink:href="#DejaVuSans-98"/>
     <use x="251.611328" xlink:href="#DejaVuSans-32"/>
     <use x="283.398438" xlink:href="#DejaVuSans-102"/>
     <use x="318.603516" xlink:href="#DejaVuSans-52"/>
     <use x="382.226562" xlink:href="#DejaVuSans-44"/>
     <use x="414.013672" xlink:href="#DejaVuSans-32"/>
     <use x="445.800781" xlink:href="#DejaVuSans-53"/>
     <use x="509.423828" xlink:href="#DejaVuSans-45"/>
     <use x="545.507812" xlink:href="#DejaVuSans-68"/>
    </g>
    <!-- 51 targets: 100..1e-08 -->
    <defs>
     <path d="M 11.71875 12.40625 
L 22.015625 12.40625 
L 22.015625 0 
L 11.71875 0 
z
M 11.71875 51.703125 
L 22.015625 51.703125 
L 22.015625 39.3125 
L 11.71875 39.3125 
z
" id="DejaVuSans-58"/>
    </defs>
    <g transform="translate(60.41088 63.218895)scale(0.102 -0.102)">
     <use xlink:href="#DejaVuSans-53"/>
     <use x="63.623047" xlink:href="#DejaVuSans-49"/>
     <use x="127.246094" xlink:href="#DejaVuSans-32"/>
     <use x="159.033203" xlink:href="#DejaVuSans-116"/>
     <use x="198.242188" xlink:href="#DejaVuSans-97"/>
     <use x="259.521484" xlink:href="#DejaVuSans-114"/>
     <use x="300.619141" xlink:href="#DejaVuSans-103"/>
     <use x="364.095703" xlink:href="#DejaVuSans-101"/>
     <use x="425.619141" xlink:href="#DejaVuSans-116"/>
     <use x="464.828125" xlink:href="#DejaVuSans-115"/>
     <use x="516.927734" xlink:href="#DejaVuSans-58"/>
     <use x="550.619141" xlink:href="#DejaVuSans-32"/>
     <use x="582.40625" xlink:href="#DejaVuSans-49"/>
     <use x="646.029297" xlink:href="#DejaVuSans-48"/>
     <use x="709.652344" xlink:href="#DejaVuSans-48"/>
     <use x="773.275391" xlink:href="#DejaVuSans-46"/>
     <use x="805.0625" xlink:href="#DejaVuSans-46"/>
     <use x="836.849609" xlink:href="#DejaVuSans-49"/>
     <use x="900.472656" xlink:href="#DejaVuSans-101"/>
     <use x="961.996094" xlink:href="#DejaVuSans-45"/>
     <use x="998.080078" xlink:href="#DejaVuSans-48"/>
     <use x="1061.703125" xlink:href="#DejaVuSans-56"/>
    </g>
    <!-- 15 instances -->
    <g transform="translate(60.41088 74.640664)scale(0.102 -0.102)">
     <use xlink:href="#DejaVuSans-49"/>
     <use x="63.623047" xlink:href="#DejaVuSans-53"/>
     <use x="127.246094" xlink:href="#DejaVuSans-32"/>
     <use x="159.033203" xlink:href="#DejaVuSans-105"/>
     <use x="186.816406" xlink:href="#DejaVuSans-110"/>
     <use x="250.195312" xlink:href="#DejaVuSans-115"/>
     <use x="302.294922" xlink:href="#DejaVuSans-116"/>
     <use x="341.503906" xlink:href="#DejaVuSans-97"/>
     <use x="402.783203" xlink:href="#DejaVuSans-110"/>
     <use x="466.162109" xlink:href="#DejaVuSans-99"/>
     <use x="521.142578" xlink:href="#DejaVuSans-101"/>
     <use x="582.666016" xlink:href="#DejaVuSans-115"/>
    </g>
   </g>
   <g id="text_21">
    <!-- v2.2.1.244 -->
    <g style="fill:#808080;" transform="translate(171.329937 294.289592)scale(0.1 -0.1)">
     <use xlink:href="#DejaVuSans-118"/>
     <use x="59.179688" xlink:href="#DejaVuSans-50"/>
     <use x="122.802734" xlink:href="#DejaVuSans-46"/>
     <use x="154.589844" xlink:href="#DejaVuSans-50"/>
     <use x="218.212891" xlink:href="#DejaVuSans-46"/>
     <use x="250" xlink:href="#DejaVuSans-49"/>
     <use x="313.623047" xlink:href="#DejaVuSans-46"/>
     <use x="345.410156" xlink:href="#DejaVuSans-50"/>
     <use x="409.033203" xlink:href="#DejaVuSans-52"/>
     <use x="472.65625" xlink:href="#DejaVuSans-52"/>
    </g>
   </g>
   <g id="text_22">
    <!-- 4 Skew Rastrigin-Bueche separ -->
    <defs>
     <path d="M 9.078125 75.984375 
L 18.109375 75.984375 
L 18.109375 31.109375 
L 44.921875 54.6875 
L 56.390625 54.6875 
L 27.390625 29.109375 
L 57.625 0 
L 45.90625 0 
L 18.109375 26.703125 
L 18.109375 0 
L 9.078125 0 
z
" id="DejaVuSans-107"/>
     <path d="M 4.203125 54.6875 
L 13.1875 54.6875 
L 24.421875 12.015625 
L 35.59375 54.6875 
L 46.1875 54.6875 
L 57.421875 12.015625 
L 68.609375 54.6875 
L 77.59375 54.6875 
L 63.28125 0 
L 52.6875 0 
L 40.921875 44.828125 
L 29.109375 0 
L 18.5 0 
z
" id="DejaVuSans-119"/>
    </defs>
    <g transform="translate(42.3315 35.472)scale(0.2 -0.2)">
     <use xlink:href="#DejaVuSans-52"/>
     <use x="63.623047" xlink:href="#DejaVuSans-32"/>
     <use x="95.410156" xlink:href="#DejaVuSans-83"/>
     <use x="158.886719" xlink:href="#DejaVuSans-107"/>
     <use x="216.75" xlink:href="#DejaVuSans-101"/>
     <use x="278.273438" xlink:href="#DejaVuSans-119"/>
     <use x="360.060547" xlink:href="#DejaVuSans-32"/>
     <use x="391.847656" xlink:href="#DejaVuSans-82"/>
     <use x="461.298828" xlink:href="#DejaVuSans-97"/>
     <use x="522.578125" xlink:href="#DejaVuSans-115"/>
     <use x="574.677734" xlink:href="#DejaVuSans-116"/>
     <use x="613.886719" xlink:href="#DejaVuSans-114"/>
     <use x="655" xlink:href="#DejaVuSans-105"/>
     <use x="682.783203" xlink:href="#DejaVuSans-103"/>
     <use x="746.259766" xlink:href="#DejaVuSans-105"/>
     <use x="774.042969" xlink:href="#DejaVuSans-110"/>
     <use x="837.421875" xlink:href="#DejaVuSans-45"/>
     <use x="873.458984" xlink:href="#DejaVuSans-66"/>
     <use x="942.0625" xlink:href="#DejaVuSans-117"/>
     <use x="1005.441406" xlink:href="#DejaVuSans-101"/>
     <use x="1066.964844" xlink:href="#DejaVuSans-99"/>
     <use x="1121.945312" xlink:href="#DejaVuSans-104"/>
     <use x="1185.324219" xlink:href="#DejaVuSans-101"/>
     <use x="1246.847656" xlink:href="#DejaVuSans-32"/>
     <use x="1278.634766" xlink:href="#DejaVuSans-115"/>
     <use x="1330.734375" xlink:href="#DejaVuSans-101"/>
     <use x="1392.257812" xlink:href="#DejaVuSans-112"/>
     <use x="1455.734375" xlink:href="#DejaVuSans-97"/>
     <use x="1517.013672" xlink:href="#DejaVuSans-114"/>
    </g>
   </g>
  </g>
 </g>
 <defs>
  <clipPath id="pe57f915842">
   <rect height="257.472" width="281.088" x="57.6" y="41.472"/>
  </clipPath>
 </defs>
</svg>
