<?xml version="1.0" encoding="utf-8" standalone="no"?>
<!DOCTYPE svg PUBLIC "-//W3C//DTD SVG 1.1//EN"
  "http://www.w3.org/Graphics/SVG/1.1/DTD/svg11.dtd">
<!-- Created with matplotlib (https://matplotlib.org/) -->
<svg height="345.6pt" version="1.1" viewBox="0 0 460.8 345.6" width="460.8pt" xmlns="http://www.w3.org/2000/svg" xmlns:xlink="http://www.w3.org/1999/xlink">
 <defs>
  <style type="text/css">
*{stroke-linecap:butt;stroke-linejoin:round;}
  </style>
 </defs>
 <g id="figure_1">
  <g id="patch_1">
   <path d="M 0 345.6 
L 460.8 345.6 
L 460.8 0 
L 0 0 
z
" style="fill:#ffffff;"/>
  </g>
  <g id="axes_1">
   <g id="patch_2">
    <path d="M 22.78 315.44 
L 450.672 315.44 
L 450.672 25.56 
L 22.78 25.56 
z
" style="fill:#ffffff;"/>
   </g>
   <g id="matplotlib.axis_1">
    <g id="xtick_1">
     <g id="line2d_1">
      <path clip-path="url(#pc69a0526b0)" d="M 36.785797 315.44 
L 36.785797 25.56 
" style="fill:none;stroke:#b0b0b0;stroke-linecap:square;stroke-width:0.8;"/>
     </g>
     <g id="line2d_2">
      <defs>
       <path d="M 0 0 
L 0 3.5 
" id="m5c6aed1ba9" style="stroke:#000000;stroke-width:0.8;"/>
      </defs>
      <g>
       <use style="stroke:#000000;stroke-width:0.8;" x="36.785797" xlink:href="#m5c6aed1ba9" y="315.44"/>
      </g>
     </g>
     <g id="text_1">
      <!-- 2 -->
      <defs>
       <path d="M 19.1875 8.296875 
L 53.609375 8.296875 
L 53.609375 0 
L 7.328125 0 
L 7.328125 8.296875 
Q 12.9375 14.109375 22.625 23.890625 
Q 32.328125 33.6875 34.8125 36.53125 
Q 39.546875 41.84375 41.421875 45.53125 
Q 43.3125 49.21875 43.3125 52.78125 
Q 43.3125 58.59375 39.234375 62.25 
Q 35.15625 65.921875 28.609375 65.921875 
Q 23.96875 65.921875 18.8125 64.3125 
Q 13.671875 62.703125 7.8125 59.421875 
L 7.8125 69.390625 
Q 13.765625 71.78125 18.9375 73 
Q 24.125 74.21875 28.421875 74.21875 
Q 39.75 74.21875 46.484375 68.546875 
Q 53.21875 62.890625 53.21875 53.421875 
Q 53.21875 48.921875 51.53125 44.890625 
Q 49.859375 40.875 45.40625 35.40625 
Q 44.1875 33.984375 37.640625 27.21875 
Q 31.109375 20.453125 19.1875 8.296875 
z
" id="DejaVuSans-50"/>
      </defs>
      <g transform="translate(30.423297 337.636875)scale(0.2 -0.2)">
       <use xlink:href="#DejaVuSans-50"/>
      </g>
     </g>
    </g>
    <g id="xtick_2">
     <g id="line2d_3">
      <path clip-path="url(#pc69a0526b0)" d="M 90.685135 315.44 
L 90.685135 25.56 
" style="fill:none;stroke:#b0b0b0;stroke-linecap:square;stroke-width:0.8;"/>
     </g>
     <g id="line2d_4">
      <g>
       <use style="stroke:#000000;stroke-width:0.8;" x="90.685135" xlink:href="#m5c6aed1ba9" y="315.44"/>
      </g>
     </g>
     <g id="text_2">
      <!-- 3 -->
      <defs>
       <path d="M 40.578125 39.3125 
Q 47.65625 37.796875 51.625 33 
Q 55.609375 28.21875 55.609375 21.1875 
Q 55.609375 10.40625 48.1875 4.484375 
Q 40.765625 -1.421875 27.09375 -1.421875 
Q 22.515625 -1.421875 17.65625 -0.515625 
Q 12.796875 0.390625 7.625 2.203125 
L 7.625 11.71875 
Q 11.71875 9.328125 16.59375 8.109375 
Q 21.484375 6.890625 26.8125 6.890625 
Q 36.078125 6.890625 40.9375 10.546875 
Q 45.796875 14.203125 45.796875 21.1875 
Q 45.796875 27.640625 41.28125 31.265625 
Q 36.765625 34.90625 28.71875 34.90625 
L 20.21875 34.90625 
L 20.21875 43.015625 
L 29.109375 43.015625 
Q 36.375 43.015625 40.234375 45.921875 
Q 44.09375 48.828125 44.09375 54.296875 
Q 44.09375 59.90625 40.109375 62.90625 
Q 36.140625 65.921875 28.71875 65.921875 
Q 24.65625 65.921875 20.015625 65.03125 
Q 15.375 64.15625 9.8125 62.3125 
L 9.8125 71.09375 
Q 15.4375 72.65625 20.34375 73.4375 
Q 25.25 74.21875 29.59375 74.21875 
Q 40.828125 74.21875 47.359375 69.109375 
Q 53.90625 64.015625 53.90625 55.328125 
Q 53.90625 49.265625 50.4375 45.09375 
Q 46.96875 40.921875 40.578125 39.3125 
z
" id="DejaVuSans-51"/>
      </defs>
      <g transform="translate(84.322635 337.636875)scale(0.2 -0.2)">
       <use xlink:href="#DejaVuSans-51"/>
      </g>
     </g>
    </g>
    <g id="xtick_3">
     <g id="line2d_5">
      <path clip-path="url(#pc69a0526b0)" d="M 158.59027 315.44 
L 158.59027 25.56 
" style="fill:none;stroke:#b0b0b0;stroke-linecap:square;stroke-width:0.8;"/>
     </g>
     <g id="line2d_6">
      <g>
       <use style="stroke:#000000;stroke-width:0.8;" x="158.59027" xlink:href="#m5c6aed1ba9" y="315.44"/>
      </g>
     </g>
     <g id="text_3">
      <!-- 5 -->
      <defs>
       <path d="M 10.796875 72.90625 
L 49.515625 72.90625 
L 49.515625 64.59375 
L 19.828125 64.59375 
L 19.828125 46.734375 
Q 21.96875 47.46875 24.109375 47.828125 
Q 26.265625 48.1875 28.421875 48.1875 
Q 40.625 48.1875 47.75 41.5 
Q 54.890625 34.8125 54.890625 23.390625 
Q 54.890625 11.625 47.5625 5.09375 
Q 40.234375 -1.421875 26.90625 -1.421875 
Q 22.3125 -1.421875 17.546875 -0.640625 
Q 12.796875 0.140625 7.71875 1.703125 
L 7.71875 11.625 
Q 12.109375 9.234375 16.796875 8.0625 
Q 21.484375 6.890625 26.703125 6.890625 
Q 35.15625 6.890625 40.078125 11.328125 
Q 45.015625 15.765625 45.015625 23.390625 
Q 45.015625 31 40.078125 35.4375 
Q 35.15625 39.890625 26.703125 39.890625 
Q 22.75 39.890625 18.8125 39.015625 
Q 14.890625 38.140625 10.796875 36.28125 
z
" id="DejaVuSans-53"/>
      </defs>
      <g transform="translate(152.22777 337.636875)scale(0.2 -0.2)">
       <use xlink:href="#DejaVuSans-53"/>
      </g>
     </g>
    </g>
    <g id="xtick_4">
     <g id="line2d_7">
      <path clip-path="url(#pc69a0526b0)" d="M 250.731797 315.44 
L 250.731797 25.56 
" style="fill:none;stroke:#b0b0b0;stroke-linecap:square;stroke-width:0.8;"/>
     </g>
     <g id="line2d_8">
      <g>
       <use style="stroke:#000000;stroke-width:0.8;" x="250.731797" xlink:href="#m5c6aed1ba9" y="315.44"/>
      </g>
     </g>
     <g id="text_4">
      <!-- 10 -->
      <defs>
       <path d="M 12.40625 8.296875 
L 28.515625 8.296875 
L 28.515625 63.921875 
L 10.984375 60.40625 
L 10.984375 69.390625 
L 28.421875 72.90625 
L 38.28125 72.90625 
L 38.28125 8.296875 
L 54.390625 8.296875 
L 54.390625 0 
L 12.40625 0 
z
" id="DejaVuSans-49"/>
       <path d="M 31.78125 66.40625 
Q 24.171875 66.40625 20.328125 58.90625 
Q 16.5 51.421875 16.5 36.375 
Q 16.5 21.390625 20.328125 13.890625 
Q 24.171875 6.390625 31.78125 6.390625 
Q 39.453125 6.390625 43.28125 13.890625 
Q 47.125 21.390625 47.125 36.375 
Q 47.125 51.421875 43.28125 58.90625 
Q 39.453125 66.40625 31.78125 66.40625 
z
M 31.78125 74.21875 
Q 44.046875 74.21875 50.515625 64.515625 
Q 56.984375 54.828125 56.984375 36.375 
Q 56.984375 17.96875 50.515625 8.265625 
Q 44.046875 -1.421875 31.78125 -1.421875 
Q 19.53125 -1.421875 13.0625 8.265625 
Q 6.59375 17.96875 6.59375 36.375 
Q 6.59375 54.828125 13.0625 64.515625 
Q 19.53125 74.21875 31.78125 74.21875 
z
" id="DejaVuSans-48"/>
      </defs>
      <g transform="translate(238.006797 337.636875)scale(0.2 -0.2)">
       <use xlink:href="#DejaVuSans-49"/>
       <use x="63.623047" xlink:href="#DejaVuSans-48"/>
      </g>
     </g>
    </g>
    <g id="xtick_5">
     <g id="line2d_9">
      <path clip-path="url(#pc69a0526b0)" d="M 342.873324 315.44 
L 342.873324 25.56 
" style="fill:none;stroke:#b0b0b0;stroke-linecap:square;stroke-width:0.8;"/>
     </g>
     <g id="line2d_10">
      <g>
       <use style="stroke:#000000;stroke-width:0.8;" x="342.873324" xlink:href="#m5c6aed1ba9" y="315.44"/>
      </g>
     </g>
     <g id="text_5">
      <!-- 20 -->
      <g transform="translate(330.148324 337.636875)scale(0.2 -0.2)">
       <use xlink:href="#DejaVuSans-50"/>
       <use x="63.623047" xlink:href="#DejaVuSans-48"/>
      </g>
     </g>
    </g>
    <g id="xtick_6">
     <g id="line2d_11">
      <path clip-path="url(#pc69a0526b0)" d="M 435.014851 315.44 
L 435.014851 25.56 
" style="fill:none;stroke:#b0b0b0;stroke-linecap:square;stroke-width:0.8;"/>
     </g>
     <g id="line2d_12">
      <g>
       <use style="stroke:#000000;stroke-width:0.8;" x="435.014851" xlink:href="#m5c6aed1ba9" y="315.44"/>
      </g>
     </g>
     <g id="text_6">
      <!-- 40 -->
      <defs>
       <path d="M 37.796875 64.3125 
L 12.890625 25.390625 
L 37.796875 25.390625 
z
M 35.203125 72.90625 
L 47.609375 72.90625 
L 47.609375 25.390625 
L 58.015625 25.390625 
L 58.015625 17.1875 
L 47.609375 17.1875 
L 47.609375 0 
L 37.796875 0 
L 37.796875 17.1875 
L 4.890625 17.1875 
L 4.890625 26.703125 
z
" id="DejaVuSans-52"/>
      </defs>
      <g transform="translate(422.289851 337.636875)scale(0.2 -0.2)">
       <use xlink:href="#DejaVuSans-52"/>
       <use x="63.623047" xlink:href="#DejaVuSans-48"/>
      </g>
     </g>
    </g>
    <g id="xtick_7">
     <g id="line2d_13">
      <defs>
       <path d="M 0 0 
L 0 2 
" id="m54d38a3a00" style="stroke:#000000;stroke-width:0.6;"/>
      </defs>
      <g>
       <use style="stroke:#000000;stroke-width:0.6;" x="36.785797" xlink:href="#m54d38a3a00" y="315.44"/>
      </g>
     </g>
    </g>
    <g id="xtick_8">
     <g id="line2d_14">
      <g>
       <use style="stroke:#000000;stroke-width:0.6;" x="90.685135" xlink:href="#m54d38a3a00" y="315.44"/>
      </g>
     </g>
    </g>
    <g id="xtick_9">
     <g id="line2d_15">
      <g>
       <use style="stroke:#000000;stroke-width:0.6;" x="128.927324" xlink:href="#m54d38a3a00" y="315.44"/>
      </g>
     </g>
    </g>
    <g id="xtick_10">
     <g id="line2d_16">
      <g>
       <use style="stroke:#000000;stroke-width:0.6;" x="158.59027" xlink:href="#m54d38a3a00" y="315.44"/>
      </g>
     </g>
    </g>
    <g id="xtick_11">
     <g id="line2d_17">
      <g>
       <use style="stroke:#000000;stroke-width:0.6;" x="182.826662" xlink:href="#m54d38a3a00" y="315.44"/>
      </g>
     </g>
    </g>
    <g id="xtick_12">
     <g id="line2d_18">
      <g>
       <use style="stroke:#000000;stroke-width:0.6;" x="203.318239" xlink:href="#m54d38a3a00" y="315.44"/>
      </g>
     </g>
    </g>
    <g id="xtick_13">
     <g id="line2d_19">
      <g>
       <use style="stroke:#000000;stroke-width:0.6;" x="221.068851" xlink:href="#m54d38a3a00" y="315.44"/>
      </g>
     </g>
    </g>
    <g id="xtick_14">
     <g id="line2d_20">
      <g>
       <use style="stroke:#000000;stroke-width:0.6;" x="236.726" xlink:href="#m54d38a3a00" y="315.44"/>
      </g>
     </g>
    </g>
    <g id="xtick_15">
     <g id="line2d_21">
      <g>
       <use style="stroke:#000000;stroke-width:0.6;" x="342.873324" xlink:href="#m54d38a3a00" y="315.44"/>
      </g>
     </g>
    </g>
    <g id="xtick_16">
     <g id="line2d_22">
      <g>
       <use style="stroke:#000000;stroke-width:0.6;" x="396.772662" xlink:href="#m54d38a3a00" y="315.44"/>
      </g>
     </g>
    </g>
    <g id="xtick_17">
     <g id="line2d_23">
      <g>
       <use style="stroke:#000000;stroke-width:0.6;" x="435.014851" xlink:href="#m54d38a3a00" y="315.44"/>
      </g>
     </g>
    </g>
   </g>
   <g id="matplotlib.axis_2">
    <g id="ytick_1">
     <g id="line2d_24">
      <path clip-path="url(#pc69a0526b0)" d="M 22.78 267.534549 
L 450.672 267.534549 
" style="fill:none;stroke:#b0b0b0;stroke-linecap:square;stroke-width:0.8;"/>
     </g>
     <g id="line2d_25">
      <defs>
       <path d="M 0 0 
L -3.5 0 
" id="m482fd627bf" style="stroke:#000000;stroke-width:0.8;"/>
      </defs>
      <g>
       <use style="stroke:#000000;stroke-width:0.8;" x="22.78" xlink:href="#m482fd627bf" y="267.534549"/>
      </g>
     </g>
     <g id="text_7">
      <!-- 1 -->
      <g transform="translate(3.055 275.132987)scale(0.2 -0.2)">
       <use xlink:href="#DejaVuSans-49"/>
      </g>
     </g>
    </g>
    <g id="ytick_2">
     <g id="line2d_26">
      <path clip-path="url(#pc69a0526b0)" d="M 22.78 187.692132 
L 450.672 187.692132 
" style="fill:none;stroke:#b0b0b0;stroke-linecap:square;stroke-width:0.8;"/>
     </g>
     <g id="line2d_27">
      <g>
       <use style="stroke:#000000;stroke-width:0.8;" x="22.78" xlink:href="#m482fd627bf" y="187.692132"/>
      </g>
     </g>
     <g id="text_8">
      <!-- 3 -->
      <g transform="translate(3.055 195.290569)scale(0.2 -0.2)">
       <use xlink:href="#DejaVuSans-51"/>
      </g>
     </g>
    </g>
    <g id="ytick_3">
     <g id="line2d_28">
      <path clip-path="url(#pc69a0526b0)" d="M 22.78 107.849714 
L 450.672 107.849714 
" style="fill:none;stroke:#b0b0b0;stroke-linecap:square;stroke-width:0.8;"/>
     </g>
     <g id="line2d_29">
      <g>
       <use style="stroke:#000000;stroke-width:0.8;" x="22.78" xlink:href="#m482fd627bf" y="107.849714"/>
      </g>
     </g>
     <g id="text_9">
      <!-- 5 -->
      <g transform="translate(3.055 115.448151)scale(0.2 -0.2)">
       <use xlink:href="#DejaVuSans-53"/>
      </g>
     </g>
    </g>
    <g id="ytick_4">
     <g id="line2d_30">
      <path clip-path="url(#pc69a0526b0)" d="M 22.78 28.007296 
L 450.672 28.007296 
" style="fill:none;stroke:#b0b0b0;stroke-linecap:square;stroke-width:0.8;"/>
     </g>
     <g id="line2d_31">
      <g>
       <use style="stroke:#000000;stroke-width:0.8;" x="22.78" xlink:href="#m482fd627bf" y="28.007296"/>
      </g>
     </g>
     <g id="text_10">
      <!-- 7 -->
      <defs>
       <path d="M 8.203125 72.90625 
L 55.078125 72.90625 
L 55.078125 68.703125 
L 28.609375 0 
L 18.3125 0 
L 43.21875 64.59375 
L 8.203125 64.59375 
z
" id="DejaVuSans-55"/>
      </defs>
      <g transform="translate(3.055 35.605733)scale(0.2 -0.2)">
       <use xlink:href="#DejaVuSans-55"/>
      </g>
     </g>
    </g>
   </g>
   <g id="line2d_32">
    <path clip-path="url(#pc69a0526b0)" d="M 90.685135 45.45257 
" style="fill:none;stroke:#000080;stroke-linecap:square;stroke-width:4;"/>
    <defs>
     <path d="M 0 7.5 
C 1.989023 7.5 3.896849 6.709753 5.303301 5.303301 
C 6.709753 3.896849 7.5 1.989023 7.5 0 
C 7.5 -1.989023 6.709753 -3.896849 5.303301 -5.303301 
C 3.896849 -6.709753 1.989023 -7.5 0 -7.5 
C -1.989023 -7.5 -3.896849 -6.709753 -5.303301 -5.303301 
C -6.709753 -3.896849 -7.5 -1.989023 -7.5 0 
C -7.5 1.989023 -6.709753 3.896849 -5.303301 5.303301 
C -3.896849 6.709753 -1.989023 7.5 0 7.5 
z
" id="macb6641944" style="stroke:#000080;stroke-width:3;"/>
    </defs>
    <g clip-path="url(#pc69a0526b0)">
     <use style="fill-opacity:0;stroke:#000080;stroke-width:3;" x="90.685135" xlink:href="#macb6641944" y="45.45257"/>
    </g>
   </g>
   <g id="line2d_33">
    <path clip-path="url(#pc69a0526b0)" d="M 435.014851 47.279271 
" style="fill:none;stroke:#000080;stroke-linecap:square;stroke-width:4;"/>
    <g clip-path="url(#pc69a0526b0)">
     <use style="fill-opacity:0;stroke:#000080;stroke-width:3;" x="435.014851" xlink:href="#macb6641944" y="47.279271"/>
    </g>
   </g>
   <g id="line2d_34"/>
   <g id="line2d_35">
    <defs>
     <path d="M 0 10 
C 2.652031 10 5.195799 8.946337 7.071068 7.071068 
C 8.946337 5.195799 10 2.652031 10 0 
C 10 -2.652031 8.946337 -5.195799 7.071068 -7.071068 
C 5.195799 -8.946337 2.652031 -10 0 -10 
C -2.652031 -10 -5.195799 -8.946337 -7.071068 -7.071068 
C -8.946337 -5.195799 -10 -2.652031 -10 0 
C -10 2.652031 -8.946337 5.195799 -7.071068 7.071068 
C -5.195799 8.946337 -2.652031 10 0 10 
z
" id="m155827c8d9" style="stroke:#000080;"/>
    </defs>
    <g clip-path="url(#pc69a0526b0)">
     <use style="fill-opacity:0;stroke:#000080;" x="36.785797" xlink:href="#m155827c8d9" y="88.124188"/>
     <use style="fill-opacity:0;stroke:#000080;" x="90.685135" xlink:href="#m155827c8d9" y="90.19793"/>
     <use style="fill-opacity:0;stroke:#000080;" x="158.59027" xlink:href="#m155827c8d9" y="83.882822"/>
     <use style="fill-opacity:0;stroke:#000080;" x="250.731797" xlink:href="#m155827c8d9" y="84.076604"/>
     <use style="fill-opacity:0;stroke:#000080;" x="342.873324" xlink:href="#m155827c8d9" y="88.777754"/>
     <use style="fill-opacity:0;stroke:#000080;" x="435.014851" xlink:href="#m155827c8d9" y="91.999183"/>
    </g>
   </g>
   <g id="line2d_36"/>
   <g id="line2d_37">
    <defs>
     <path d="M -0 14.142136 
L 8.485281 0 
L -0 -14.142136 
L -8.485281 -0 
z
" id="mefb24af8a5" style="stroke:#ff00ff;stroke-linejoin:miter;"/>
    </defs>
    <g clip-path="url(#pc69a0526b0)">
     <use style="fill-opacity:0;stroke:#ff00ff;stroke-linejoin:miter;" x="36.785797" xlink:href="#mefb24af8a5" y="191.334821"/>
     <use style="fill-opacity:0;stroke:#ff00ff;stroke-linejoin:miter;" x="90.685135" xlink:href="#mefb24af8a5" y="194.489416"/>
     <use style="fill-opacity:0;stroke:#ff00ff;stroke-linejoin:miter;" x="158.59027" xlink:href="#mefb24af8a5" y="197.658298"/>
     <use style="fill-opacity:0;stroke:#ff00ff;stroke-linejoin:miter;" x="250.731797" xlink:href="#mefb24af8a5" y="200.309344"/>
     <use style="fill-opacity:0;stroke:#ff00ff;stroke-linejoin:miter;" x="342.873324" xlink:href="#mefb24af8a5" y="201.845342"/>
    </g>
   </g>
   <g id="line2d_38">
    <path clip-path="url(#pc69a0526b0)" d="M 36.785797 34.422956 
" style="fill:none;stroke:#ffa500;stroke-linecap:square;stroke-width:3.333333;"/>
    <defs>
     <path d="M 0 -8 
L -1.796112 -2.472136 
L -7.608452 -2.472136 
L -2.90617 0.944272 
L -4.702282 6.472136 
L -0 3.055728 
L 4.702282 6.472136 
L 2.90617 0.944272 
L 7.608452 -2.472136 
L 1.796112 -2.472136 
z
" id="mc147f85b8a" style="stroke:#ffa500;stroke-linejoin:bevel;stroke-width:2;"/>
    </defs>
    <g clip-path="url(#pc69a0526b0)">
     <use style="fill-opacity:0;stroke:#ffa500;stroke-linejoin:bevel;stroke-width:2;" x="36.785797" xlink:href="#mc147f85b8a" y="34.422956"/>
    </g>
   </g>
   <g id="line2d_39"/>
   <g id="line2d_40">
    <defs>
     <path d="M 0 -10 
L -2.24514 -3.09017 
L -9.510565 -3.09017 
L -3.632713 1.18034 
L -5.877853 8.09017 
L -0 3.81966 
L 5.877853 8.09017 
L 3.632713 1.18034 
L 9.510565 -3.09017 
L 2.24514 -3.09017 
z
" id="m9f236a0dec" style="stroke:#ffa500;stroke-linejoin:bevel;"/>
    </defs>
    <g clip-path="url(#pc69a0526b0)">
     <use style="fill-opacity:0;stroke:#ffa500;stroke-linejoin:bevel;" x="36.785797" xlink:href="#m9f236a0dec" y="67.905427"/>
     <use style="fill-opacity:0;stroke:#ffa500;stroke-linejoin:bevel;" x="90.685135" xlink:href="#m9f236a0dec" y="67.907995"/>
     <use style="fill-opacity:0;stroke:#ffa500;stroke-linejoin:bevel;" x="158.59027" xlink:href="#m9f236a0dec" y="67.887934"/>
     <use style="fill-opacity:0;stroke:#ffa500;stroke-linejoin:bevel;" x="250.731797" xlink:href="#m9f236a0dec" y="67.921623"/>
     <use style="fill-opacity:0;stroke:#ffa500;stroke-linejoin:bevel;" x="342.873324" xlink:href="#m9f236a0dec" y="67.924067"/>
    </g>
   </g>
   <g id="line2d_41"/>
   <g id="line2d_42">
    <defs>
     <path d="M -0 10 
L 10 -10 
L -10 -10 
z
" id="m0a9588370d" style="stroke:#6495ed;stroke-linejoin:miter;"/>
    </defs>
    <g clip-path="url(#pc69a0526b0)">
     <use style="fill-opacity:0;stroke:#6495ed;stroke-linejoin:miter;" x="36.785797" xlink:href="#m0a9588370d" y="211.588946"/>
     <use style="fill-opacity:0;stroke:#6495ed;stroke-linejoin:miter;" x="90.685135" xlink:href="#m0a9588370d" y="211.588946"/>
     <use style="fill-opacity:0;stroke:#6495ed;stroke-linejoin:miter;" x="158.59027" xlink:href="#m0a9588370d" y="211.657882"/>
     <use style="fill-opacity:0;stroke:#6495ed;stroke-linejoin:miter;" x="250.731797" xlink:href="#m0a9588370d" y="211.664791"/>
     <use style="fill-opacity:0;stroke:#6495ed;stroke-linejoin:miter;" x="342.873324" xlink:href="#m0a9588370d" y="211.682075"/>
    </g>
   </g>
   <g id="line2d_43">
    <path clip-path="url(#pc69a0526b0)" d="M 36.785797 65.463974 
" style="fill:none;stroke:#ff0000;stroke-linecap:square;stroke-width:2.666667;"/>
    <defs>
     <path d="M 0 -7.5 
L -6.495191 -3.75 
L -6.495191 3.75 
L -0 7.5 
L 6.495191 3.75 
L 6.495191 -3.75 
z
" id="mff03cc1258" style="stroke:#ff0000;stroke-linejoin:miter;"/>
    </defs>
    <g clip-path="url(#pc69a0526b0)">
     <use style="fill-opacity:0;stroke:#ff0000;stroke-linejoin:miter;" x="36.785797" xlink:href="#mff03cc1258" y="65.463974"/>
    </g>
   </g>
   <g id="line2d_44">
    <path clip-path="url(#pc69a0526b0)" d="M 158.59027 40.959235 
" style="fill:none;stroke:#ff0000;stroke-linecap:square;stroke-width:2.666667;"/>
    <g clip-path="url(#pc69a0526b0)">
     <use style="fill-opacity:0;stroke:#ff0000;stroke-linejoin:miter;" x="158.59027" xlink:href="#mff03cc1258" y="40.959235"/>
    </g>
   </g>
   <g id="line2d_45"/>
   <g id="line2d_46">
    <defs>
     <path d="M 0 -10 
L -8.660254 -5 
L -8.660254 5 
L -0 10 
L 8.660254 5 
L 8.660254 -5 
z
" id="maaf72d52fa" style="stroke:#ff0000;stroke-linejoin:miter;"/>
    </defs>
    <g clip-path="url(#pc69a0526b0)">
     <use style="fill-opacity:0;stroke:#ff0000;stroke-linejoin:miter;" x="36.785797" xlink:href="#maaf72d52fa" y="87.936421"/>
     <use style="fill-opacity:0;stroke:#ff0000;stroke-linejoin:miter;" x="90.685135" xlink:href="#maaf72d52fa" y="91.022519"/>
     <use style="fill-opacity:0;stroke:#ff0000;stroke-linejoin:miter;" x="158.59027" xlink:href="#maaf72d52fa" y="83.643292"/>
     <use style="fill-opacity:0;stroke:#ff0000;stroke-linejoin:miter;" x="250.731797" xlink:href="#maaf72d52fa" y="84.876056"/>
     <use style="fill-opacity:0;stroke:#ff0000;stroke-linejoin:miter;" x="342.873324" xlink:href="#maaf72d52fa" y="92.243041"/>
     <use style="fill-opacity:0;stroke:#ff0000;stroke-linejoin:miter;" x="435.014851" xlink:href="#maaf72d52fa" y="165.104216"/>
    </g>
   </g>
   <g id="line2d_47">
    <path clip-path="url(#pc69a0526b0)" d="M 36.785797 72.187658 
L 90.685135 46.611867 
" style="fill:none;stroke:#9acd32;stroke-linecap:square;stroke-width:2.333333;"/>
    <defs>
     <path d="M 0 -6 
L -6 6 
L 6 6 
z
" id="m410b761348" style="stroke:#9acd32;stroke-linejoin:miter;"/>
    </defs>
    <g clip-path="url(#pc69a0526b0)">
     <use style="fill-opacity:0;stroke:#9acd32;stroke-linejoin:miter;" x="36.785797" xlink:href="#m410b761348" y="72.187658"/>
     <use style="fill-opacity:0;stroke:#9acd32;stroke-linejoin:miter;" x="90.685135" xlink:href="#m410b761348" y="46.611867"/>
    </g>
   </g>
   <g id="line2d_48">
    <path clip-path="url(#pc69a0526b0)" d="M 90.685135 46.611867 
L 158.59027 45.169592 
" style="fill:none;stroke:#9acd32;stroke-linecap:square;stroke-width:2.333333;"/>
    <g clip-path="url(#pc69a0526b0)">
     <use style="fill-opacity:0;stroke:#9acd32;stroke-linejoin:miter;" x="90.685135" xlink:href="#m410b761348" y="46.611867"/>
     <use style="fill-opacity:0;stroke:#9acd32;stroke-linejoin:miter;" x="158.59027" xlink:href="#m410b761348" y="45.169592"/>
    </g>
   </g>
   <g id="line2d_49">
    <path clip-path="url(#pc69a0526b0)" d="M 158.59027 45.169592 
L 250.731797 39.560178 
" style="fill:none;stroke:#9acd32;stroke-linecap:square;stroke-width:2.333333;"/>
    <g clip-path="url(#pc69a0526b0)">
     <use style="fill-opacity:0;stroke:#9acd32;stroke-linejoin:miter;" x="158.59027" xlink:href="#m410b761348" y="45.169592"/>
     <use style="fill-opacity:0;stroke:#9acd32;stroke-linejoin:miter;" x="250.731797" xlink:href="#m410b761348" y="39.560178"/>
    </g>
   </g>
   <g id="line2d_50">
    <path clip-path="url(#pc69a0526b0)" d="M 250.731797 39.560178 
" style="fill:none;stroke:#9acd32;stroke-linecap:square;stroke-width:2.333333;"/>
    <g clip-path="url(#pc69a0526b0)">
     <use style="fill-opacity:0;stroke:#9acd32;stroke-linejoin:miter;" x="250.731797" xlink:href="#m410b761348" y="39.560178"/>
    </g>
   </g>
   <g id="line2d_51"/>
   <g id="line2d_52">
    <defs>
     <path d="M 0 -10 
L -10 10 
L 10 10 
z
" id="m205b3c5c6f" style="stroke:#9acd32;stroke-linejoin:miter;"/>
    </defs>
    <g clip-path="url(#pc69a0526b0)">
     <use style="fill-opacity:0;stroke:#9acd32;stroke-linejoin:miter;" x="36.785797" xlink:href="#m205b3c5c6f" y="89.089502"/>
     <use style="fill-opacity:0;stroke:#9acd32;stroke-linejoin:miter;" x="90.685135" xlink:href="#m205b3c5c6f" y="90.450237"/>
     <use style="fill-opacity:0;stroke:#9acd32;stroke-linejoin:miter;" x="158.59027" xlink:href="#m205b3c5c6f" y="83.769818"/>
     <use style="fill-opacity:0;stroke:#9acd32;stroke-linejoin:miter;" x="250.731797" xlink:href="#m205b3c5c6f" y="84.636867"/>
     <use style="fill-opacity:0;stroke:#9acd32;stroke-linejoin:miter;" x="342.873324" xlink:href="#m205b3c5c6f" y="90.04612"/>
     <use style="fill-opacity:0;stroke:#9acd32;stroke-linejoin:miter;" x="435.014851" xlink:href="#m205b3c5c6f" y="92.885794"/>
    </g>
   </g>
   <g id="line2d_53"/>
   <g id="line2d_54">
    <path clip-path="url(#pc69a0526b0)" d="M 42.74303 346.6 
L 461.8 291.944846 
" style="fill:none;stroke:#000000;stroke-dasharray:0.5,0.825;stroke-dashoffset:0;stroke-width:0.5;"/>
   </g>
   <g id="line2d_55">
    <path clip-path="url(#pc69a0526b0)" d="M -1 272.46273 
L 461.8 212.102428 
" style="fill:none;stroke:#000000;stroke-dasharray:0.5,0.825;stroke-dashoffset:0;stroke-width:0.5;"/>
   </g>
   <g id="line2d_56">
    <path clip-path="url(#pc69a0526b0)" d="M -1 192.620312 
L 461.8 132.260011 
" style="fill:none;stroke:#000000;stroke-dasharray:0.5,0.825;stroke-dashoffset:0;stroke-width:0.5;"/>
   </g>
   <g id="line2d_57">
    <path clip-path="url(#pc69a0526b0)" d="M -1 112.777895 
L 461.8 52.417593 
" style="fill:none;stroke:#000000;stroke-dasharray:0.5,0.825;stroke-dashoffset:0;stroke-width:0.5;"/>
   </g>
   <g id="line2d_58">
    <path clip-path="url(#pc69a0526b0)" d="M -1 32.935477 
L 259.193177 -1 
" style="fill:none;stroke:#000000;stroke-dasharray:0.5,0.825;stroke-dashoffset:0;stroke-width:0.5;"/>
   </g>
   <g id="patch_3">
    <path d="M 22.78 315.44 
L 22.78 25.56 
" style="fill:none;stroke:#000000;stroke-linecap:square;stroke-linejoin:miter;stroke-width:0.8;"/>
   </g>
   <g id="patch_4">
    <path d="M 450.672 315.44 
L 450.672 25.56 
" style="fill:none;stroke:#000000;stroke-linecap:square;stroke-linejoin:miter;stroke-width:0.8;"/>
   </g>
   <g id="patch_5">
    <path d="M 22.78 315.44 
L 450.672 315.44 
" style="fill:none;stroke:#000000;stroke-linecap:square;stroke-linejoin:miter;stroke-width:0.8;"/>
   </g>
   <g id="patch_6">
    <path d="M 22.78 25.56 
L 450.672 25.56 
" style="fill:none;stroke:#000000;stroke-linecap:square;stroke-linejoin:miter;stroke-width:0.8;"/>
   </g>
   <g id="text_11">
    <!-- 30, 15 instances -->
    <defs>
     <path d="M 11.71875 12.40625 
L 22.015625 12.40625 
L 22.015625 4 
L 14.015625 -11.625 
L 7.71875 -11.625 
L 11.71875 4 
z
" id="DejaVuSans-44"/>
     <path id="DejaVuSans-32"/>
     <path d="M 9.421875 54.6875 
L 18.40625 54.6875 
L 18.40625 0 
L 9.421875 0 
z
M 9.421875 75.984375 
L 18.40625 75.984375 
L 18.40625 64.59375 
L 9.421875 64.59375 
z
" id="DejaVuSans-105"/>
     <path d="M 54.890625 33.015625 
L 54.890625 0 
L 45.90625 0 
L 45.90625 32.71875 
Q 45.90625 40.484375 42.875 44.328125 
Q 39.84375 48.1875 33.796875 48.1875 
Q 26.515625 48.1875 22.3125 43.546875 
Q 18.109375 38.921875 18.109375 30.90625 
L 18.109375 0 
L 9.078125 0 
L 9.078125 54.6875 
L 18.109375 54.6875 
L 18.109375 46.1875 
Q 21.34375 51.125 25.703125 53.5625 
Q 30.078125 56 35.796875 56 
Q 45.21875 56 50.046875 50.171875 
Q 54.890625 44.34375 54.890625 33.015625 
z
" id="DejaVuSans-110"/>
     <path d="M 44.28125 53.078125 
L 44.28125 44.578125 
Q 40.484375 46.53125 36.375 47.5 
Q 32.28125 48.484375 27.875 48.484375 
Q 21.1875 48.484375 17.84375 46.4375 
Q 14.5 44.390625 14.5 40.28125 
Q 14.5 37.15625 16.890625 35.375 
Q 19.28125 33.59375 26.515625 31.984375 
L 29.59375 31.296875 
Q 39.15625 29.25 43.1875 25.515625 
Q 47.21875 21.78125 47.21875 15.09375 
Q 47.21875 7.46875 41.1875 3.015625 
Q 35.15625 -1.421875 24.609375 -1.421875 
Q 20.21875 -1.421875 15.453125 -0.5625 
Q 10.6875 0.296875 5.421875 2 
L 5.421875 11.28125 
Q 10.40625 8.6875 15.234375 7.390625 
Q 20.0625 6.109375 24.8125 6.109375 
Q 31.15625 6.109375 34.5625 8.28125 
Q 37.984375 10.453125 37.984375 14.40625 
Q 37.984375 18.0625 35.515625 20.015625 
Q 33.0625 21.96875 24.703125 23.78125 
L 21.578125 24.515625 
Q 13.234375 26.265625 9.515625 29.90625 
Q 5.8125 33.546875 5.8125 39.890625 
Q 5.8125 47.609375 11.28125 51.796875 
Q 16.75 56 26.8125 56 
Q 31.78125 56 36.171875 55.265625 
Q 40.578125 54.546875 44.28125 53.078125 
z
" id="DejaVuSans-115"/>
     <path d="M 18.3125 70.21875 
L 18.3125 54.6875 
L 36.8125 54.6875 
L 36.8125 47.703125 
L 18.3125 47.703125 
L 18.3125 18.015625 
Q 18.3125 11.328125 20.140625 9.421875 
Q 21.96875 7.515625 27.59375 7.515625 
L 36.8125 7.515625 
L 36.8125 0 
L 27.59375 0 
Q 17.1875 0 13.234375 3.875 
Q 9.28125 7.765625 9.28125 18.015625 
L 9.28125 47.703125 
L 2.6875 47.703125 
L 2.6875 54.6875 
L 9.28125 54.6875 
L 9.28125 70.21875 
z
" id="DejaVuSans-116"/>
     <path d="M 34.28125 27.484375 
Q 23.390625 27.484375 19.1875 25 
Q 14.984375 22.515625 14.984375 16.5 
Q 14.984375 11.71875 18.140625 8.90625 
Q 21.296875 6.109375 26.703125 6.109375 
Q 34.1875 6.109375 38.703125 11.40625 
Q 43.21875 16.703125 43.21875 25.484375 
L 43.21875 27.484375 
z
M 52.203125 31.203125 
L 52.203125 0 
L 43.21875 0 
L 43.21875 8.296875 
Q 40.140625 3.328125 35.546875 0.953125 
Q 30.953125 -1.421875 24.3125 -1.421875 
Q 15.921875 -1.421875 10.953125 3.296875 
Q 6 8.015625 6 15.921875 
Q 6 25.140625 12.171875 29.828125 
Q 18.359375 34.515625 30.609375 34.515625 
L 43.21875 34.515625 
L 43.21875 35.40625 
Q 43.21875 41.609375 39.140625 45 
Q 35.0625 48.390625 27.6875 48.390625 
Q 23 48.390625 18.546875 47.265625 
Q 14.109375 46.140625 10.015625 43.890625 
L 10.015625 52.203125 
Q 14.9375 54.109375 19.578125 55.046875 
Q 24.21875 56 28.609375 56 
Q 40.484375 56 46.34375 49.84375 
Q 52.203125 43.703125 52.203125 31.203125 
z
" id="DejaVuSans-97"/>
     <path d="M 48.78125 52.59375 
L 48.78125 44.1875 
Q 44.96875 46.296875 41.140625 47.34375 
Q 37.3125 48.390625 33.40625 48.390625 
Q 24.65625 48.390625 19.8125 42.84375 
Q 14.984375 37.3125 14.984375 27.296875 
Q 14.984375 17.28125 19.8125 11.734375 
Q 24.65625 6.203125 33.40625 6.203125 
Q 37.3125 6.203125 41.140625 7.25 
Q 44.96875 8.296875 48.78125 10.40625 
L 48.78125 2.09375 
Q 45.015625 0.34375 40.984375 -0.53125 
Q 36.96875 -1.421875 32.421875 -1.421875 
Q 20.0625 -1.421875 12.78125 6.34375 
Q 5.515625 14.109375 5.515625 27.296875 
Q 5.515625 40.671875 12.859375 48.328125 
Q 20.21875 56 33.015625 56 
Q 37.15625 56 41.109375 55.140625 
Q 45.0625 54.296875 48.78125 52.59375 
z
" id="DejaVuSans-99"/>
     <path d="M 56.203125 29.59375 
L 56.203125 25.203125 
L 14.890625 25.203125 
Q 15.484375 15.921875 20.484375 11.0625 
Q 25.484375 6.203125 34.421875 6.203125 
Q 39.59375 6.203125 44.453125 7.46875 
Q 49.3125 8.734375 54.109375 11.28125 
L 54.109375 2.78125 
Q 49.265625 0.734375 44.1875 -0.34375 
Q 39.109375 -1.421875 33.890625 -1.421875 
Q 20.796875 -1.421875 13.15625 6.1875 
Q 5.515625 13.8125 5.515625 26.8125 
Q 5.515625 40.234375 12.765625 48.109375 
Q 20.015625 56 32.328125 56 
Q 43.359375 56 49.78125 48.890625 
Q 56.203125 41.796875 56.203125 29.59375 
z
M 47.21875 32.234375 
Q 47.125 39.59375 43.09375 43.984375 
Q 39.0625 48.390625 32.421875 48.390625 
Q 24.90625 48.390625 20.390625 44.140625 
Q 15.875 39.890625 15.1875 32.171875 
z
" id="DejaVuSans-101"/>
    </defs>
    <g transform="translate(22.78 296.8515)scale(0.14 -0.14)">
     <use xlink:href="#DejaVuSans-51"/>
     <use x="63.623047" xlink:href="#DejaVuSans-48"/>
     <use x="127.246094" xlink:href="#DejaVuSans-44"/>
     <use x="159.033203" xlink:href="#DejaVuSans-32"/>
     <use x="190.820312" xlink:href="#DejaVuSans-49"/>
     <use x="254.443359" xlink:href="#DejaVuSans-53"/>
     <use x="318.066406" xlink:href="#DejaVuSans-32"/>
     <use x="349.853516" xlink:href="#DejaVuSans-105"/>
     <use x="377.636719" xlink:href="#DejaVuSans-110"/>
     <use x="441.015625" xlink:href="#DejaVuSans-115"/>
     <use x="493.115234" xlink:href="#DejaVuSans-116"/>
     <use x="532.324219" xlink:href="#DejaVuSans-97"/>
     <use x="593.603516" xlink:href="#DejaVuSans-110"/>
     <use x="656.982422" xlink:href="#DejaVuSans-99"/>
     <use x="711.962891" xlink:href="#DejaVuSans-101"/>
     <use x="773.486328" xlink:href="#DejaVuSans-115"/>
    </g>
    <!-- target Df: 1e-8 -->
    <defs>
     <path d="M 41.109375 46.296875 
Q 39.59375 47.171875 37.8125 47.578125 
Q 36.03125 48 33.890625 48 
Q 26.265625 48 22.1875 43.046875 
Q 18.109375 38.09375 18.109375 28.8125 
L 18.109375 0 
L 9.078125 0 
L 9.078125 54.6875 
L 18.109375 54.6875 
L 18.109375 46.1875 
Q 20.953125 51.171875 25.484375 53.578125 
Q 30.03125 56 36.53125 56 
Q 37.453125 56 38.578125 55.875 
Q 39.703125 55.765625 41.0625 55.515625 
z
" id="DejaVuSans-114"/>
     <path d="M 45.40625 27.984375 
Q 45.40625 37.75 41.375 43.109375 
Q 37.359375 48.484375 30.078125 48.484375 
Q 22.859375 48.484375 18.828125 43.109375 
Q 14.796875 37.75 14.796875 27.984375 
Q 14.796875 18.265625 18.828125 12.890625 
Q 22.859375 7.515625 30.078125 7.515625 
Q 37.359375 7.515625 41.375 12.890625 
Q 45.40625 18.265625 45.40625 27.984375 
z
M 54.390625 6.78125 
Q 54.390625 -7.171875 48.1875 -13.984375 
Q 42 -20.796875 29.203125 -20.796875 
Q 24.46875 -20.796875 20.265625 -20.09375 
Q 16.0625 -19.390625 12.109375 -17.921875 
L 12.109375 -9.1875 
Q 16.0625 -11.328125 19.921875 -12.34375 
Q 23.78125 -13.375 27.78125 -13.375 
Q 36.625 -13.375 41.015625 -8.765625 
Q 45.40625 -4.15625 45.40625 5.171875 
L 45.40625 9.625 
Q 42.625 4.78125 38.28125 2.390625 
Q 33.9375 0 27.875 0 
Q 17.828125 0 11.671875 7.65625 
Q 5.515625 15.328125 5.515625 27.984375 
Q 5.515625 40.671875 11.671875 48.328125 
Q 17.828125 56 27.875 56 
Q 33.9375 56 38.28125 53.609375 
Q 42.625 51.21875 45.40625 46.390625 
L 45.40625 54.6875 
L 54.390625 54.6875 
z
" id="DejaVuSans-103"/>
     <path d="M 19.671875 64.796875 
L 19.671875 8.109375 
L 31.59375 8.109375 
Q 46.6875 8.109375 53.6875 14.9375 
Q 60.6875 21.78125 60.6875 36.53125 
Q 60.6875 51.171875 53.6875 57.984375 
Q 46.6875 64.796875 31.59375 64.796875 
z
M 9.8125 72.90625 
L 30.078125 72.90625 
Q 51.265625 72.90625 61.171875 64.09375 
Q 71.09375 55.28125 71.09375 36.53125 
Q 71.09375 17.671875 61.125 8.828125 
Q 51.171875 0 30.078125 0 
L 9.8125 0 
z
" id="DejaVuSans-68"/>
     <path d="M 37.109375 75.984375 
L 37.109375 68.5 
L 28.515625 68.5 
Q 23.6875 68.5 21.796875 66.546875 
Q 19.921875 64.59375 19.921875 59.515625 
L 19.921875 54.6875 
L 34.71875 54.6875 
L 34.71875 47.703125 
L 19.921875 47.703125 
L 19.921875 0 
L 10.890625 0 
L 10.890625 47.703125 
L 2.296875 47.703125 
L 2.296875 54.6875 
L 10.890625 54.6875 
L 10.890625 58.5 
Q 10.890625 67.625 15.140625 71.796875 
Q 19.390625 75.984375 28.609375 75.984375 
z
" id="DejaVuSans-102"/>
     <path d="M 11.71875 12.40625 
L 22.015625 12.40625 
L 22.015625 0 
L 11.71875 0 
z
M 11.71875 51.703125 
L 22.015625 51.703125 
L 22.015625 39.3125 
L 11.71875 39.3125 
z
" id="DejaVuSans-58"/>
     <path d="M 4.890625 31.390625 
L 31.203125 31.390625 
L 31.203125 23.390625 
L 4.890625 23.390625 
z
" id="DejaVuSans-45"/>
     <path d="M 31.78125 34.625 
Q 24.75 34.625 20.71875 30.859375 
Q 16.703125 27.09375 16.703125 20.515625 
Q 16.703125 13.921875 20.71875 10.15625 
Q 24.75 6.390625 31.78125 6.390625 
Q 38.8125 6.390625 42.859375 10.171875 
Q 46.921875 13.96875 46.921875 20.515625 
Q 46.921875 27.09375 42.890625 30.859375 
Q 38.875 34.625 31.78125 34.625 
z
M 21.921875 38.8125 
Q 15.578125 40.375 12.03125 44.71875 
Q 8.5 49.078125 8.5 55.328125 
Q 8.5 64.0625 14.71875 69.140625 
Q 20.953125 74.21875 31.78125 74.21875 
Q 42.671875 74.21875 48.875 69.140625 
Q 55.078125 64.0625 55.078125 55.328125 
Q 55.078125 49.078125 51.53125 44.71875 
Q 48 40.375 41.703125 38.8125 
Q 48.828125 37.15625 52.796875 32.3125 
Q 56.78125 27.484375 56.78125 20.515625 
Q 56.78125 9.90625 50.3125 4.234375 
Q 43.84375 -1.421875 31.78125 -1.421875 
Q 19.734375 -1.421875 13.25 4.234375 
Q 6.78125 9.90625 6.78125 20.515625 
Q 6.78125 27.484375 10.78125 32.3125 
Q 14.796875 37.15625 21.921875 38.8125 
z
M 18.3125 54.390625 
Q 18.3125 48.734375 21.84375 45.5625 
Q 25.390625 42.390625 31.78125 42.390625 
Q 38.140625 42.390625 41.71875 45.5625 
Q 45.3125 48.734375 45.3125 54.390625 
Q 45.3125 60.0625 41.71875 63.234375 
Q 38.140625 66.40625 31.78125 66.40625 
Q 25.390625 66.40625 21.84375 63.234375 
Q 18.3125 60.0625 18.3125 54.390625 
z
" id="DejaVuSans-56"/>
    </defs>
    <g transform="translate(22.78 312.528437)scale(0.14 -0.14)">
     <use xlink:href="#DejaVuSans-116"/>
     <use x="39.208984" xlink:href="#DejaVuSans-97"/>
     <use x="100.488281" xlink:href="#DejaVuSans-114"/>
     <use x="141.585938" xlink:href="#DejaVuSans-103"/>
     <use x="205.0625" xlink:href="#DejaVuSans-101"/>
     <use x="266.585938" xlink:href="#DejaVuSans-116"/>
     <use x="305.794922" xlink:href="#DejaVuSans-32"/>
     <use x="337.582031" xlink:href="#DejaVuSans-68"/>
     <use x="414.583984" xlink:href="#DejaVuSans-102"/>
     <use x="449.742188" xlink:href="#DejaVuSans-58"/>
     <use x="483.433594" xlink:href="#DejaVuSans-32"/>
     <use x="515.220703" xlink:href="#DejaVuSans-49"/>
     <use x="578.84375" xlink:href="#DejaVuSans-101"/>
     <use x="640.367188" xlink:href="#DejaVuSans-45"/>
     <use x="676.451172" xlink:href="#DejaVuSans-56"/>
    </g>
   </g>
   <g id="text_12">
    <!-- v2.3.17 -->
    <defs>
     <path d="M 2.984375 54.6875 
L 12.5 54.6875 
L 29.59375 8.796875 
L 46.6875 54.6875 
L 56.203125 54.6875 
L 35.6875 0 
L 23.484375 0 
z
" id="DejaVuSans-118"/>
     <path d="M 10.6875 12.40625 
L 21 12.40625 
L 21 0 
L 10.6875 0 
z
" id="DejaVuSans-46"/>
    </defs>
    <g style="fill:#808080;" transform="translate(217.8635 310.461512)scale(0.1 -0.1)">
     <use xlink:href="#DejaVuSans-118"/>
     <use x="59.179688" xlink:href="#DejaVuSans-50"/>
     <use x="122.802734" xlink:href="#DejaVuSans-46"/>
     <use x="154.589844" xlink:href="#DejaVuSans-51"/>
     <use x="218.212891" xlink:href="#DejaVuSans-46"/>
     <use x="250" xlink:href="#DejaVuSans-49"/>
     <use x="313.623047" xlink:href="#DejaVuSans-55"/>
    </g>
   </g>
   <g id="text_13">
    <!-- 24 Lunacek bi-Rastrigin -->
    <defs>
     <path d="M 9.8125 72.90625 
L 19.671875 72.90625 
L 19.671875 8.296875 
L 55.171875 8.296875 
L 55.171875 0 
L 9.8125 0 
z
" id="DejaVuSans-76"/>
     <path d="M 8.5 21.578125 
L 8.5 54.6875 
L 17.484375 54.6875 
L 17.484375 21.921875 
Q 17.484375 14.15625 20.5 10.265625 
Q 23.53125 6.390625 29.59375 6.390625 
Q 36.859375 6.390625 41.078125 11.03125 
Q 45.3125 15.671875 45.3125 23.6875 
L 45.3125 54.6875 
L 54.296875 54.6875 
L 54.296875 0 
L 45.3125 0 
L 45.3125 8.40625 
Q 42.046875 3.421875 37.71875 1 
Q 33.40625 -1.421875 27.6875 -1.421875 
Q 18.265625 -1.421875 13.375 4.4375 
Q 8.5 10.296875 8.5 21.578125 
z
M 31.109375 56 
z
" id="DejaVuSans-117"/>
     <path d="M 9.078125 75.984375 
L 18.109375 75.984375 
L 18.109375 31.109375 
L 44.921875 54.6875 
L 56.390625 54.6875 
L 27.390625 29.109375 
L 57.625 0 
L 45.90625 0 
L 18.109375 26.703125 
L 18.109375 0 
L 9.078125 0 
z
" id="DejaVuSans-107"/>
     <path d="M 48.6875 27.296875 
Q 48.6875 37.203125 44.609375 42.84375 
Q 40.53125 48.484375 33.40625 48.484375 
Q 26.265625 48.484375 22.1875 42.84375 
Q 18.109375 37.203125 18.109375 27.296875 
Q 18.109375 17.390625 22.1875 11.75 
Q 26.265625 6.109375 33.40625 6.109375 
Q 40.53125 6.109375 44.609375 11.75 
Q 48.6875 17.390625 48.6875 27.296875 
z
M 18.109375 46.390625 
Q 20.953125 51.265625 25.265625 53.625 
Q 29.59375 56 35.59375 56 
Q 45.5625 56 51.78125 48.09375 
Q 58.015625 40.1875 58.015625 27.296875 
Q 58.015625 14.40625 51.78125 6.484375 
Q 45.5625 -1.421875 35.59375 -1.421875 
Q 29.59375 -1.421875 25.265625 0.953125 
Q 20.953125 3.328125 18.109375 8.203125 
L 18.109375 0 
L 9.078125 0 
L 9.078125 75.984375 
L 18.109375 75.984375 
z
" id="DejaVuSans-98"/>
     <path d="M 44.390625 34.1875 
Q 47.5625 33.109375 50.5625 29.59375 
Q 53.5625 26.078125 56.59375 19.921875 
L 66.609375 0 
L 56 0 
L 46.6875 18.703125 
Q 43.0625 26.03125 39.671875 28.421875 
Q 36.28125 30.8125 30.421875 30.8125 
L 19.671875 30.8125 
L 19.671875 0 
L 9.8125 0 
L 9.8125 72.90625 
L 32.078125 72.90625 
Q 44.578125 72.90625 50.734375 67.671875 
Q 56.890625 62.453125 56.890625 51.90625 
Q 56.890625 45.015625 53.6875 40.46875 
Q 50.484375 35.9375 44.390625 34.1875 
z
M 19.671875 64.796875 
L 19.671875 38.921875 
L 32.078125 38.921875 
Q 39.203125 38.921875 42.84375 42.21875 
Q 46.484375 45.515625 46.484375 51.90625 
Q 46.484375 58.296875 42.84375 61.546875 
Q 39.203125 64.796875 32.078125 64.796875 
z
" id="DejaVuSans-82"/>
    </defs>
    <g transform="translate(109.0835 19.56)scale(0.216 -0.216)">
     <use xlink:href="#DejaVuSans-50"/>
     <use x="63.623047" xlink:href="#DejaVuSans-52"/>
     <use x="127.246094" xlink:href="#DejaVuSans-32"/>
     <use x="159.033203" xlink:href="#DejaVuSans-76"/>
     <use x="214.730469" xlink:href="#DejaVuSans-117"/>
     <use x="278.109375" xlink:href="#DejaVuSans-110"/>
     <use x="341.488281" xlink:href="#DejaVuSans-97"/>
     <use x="402.767578" xlink:href="#DejaVuSans-99"/>
     <use x="457.748047" xlink:href="#DejaVuSans-101"/>
     <use x="519.271484" xlink:href="#DejaVuSans-107"/>
     <use x="577.181641" xlink:href="#DejaVuSans-32"/>
     <use x="608.96875" xlink:href="#DejaVuSans-98"/>
     <use x="672.445312" xlink:href="#DejaVuSans-105"/>
     <use x="700.228516" xlink:href="#DejaVuSans-45"/>
     <use x="736.3125" xlink:href="#DejaVuSans-82"/>
     <use x="805.763672" xlink:href="#DejaVuSans-97"/>
     <use x="867.042969" xlink:href="#DejaVuSans-115"/>
     <use x="919.142578" xlink:href="#DejaVuSans-116"/>
     <use x="958.351562" xlink:href="#DejaVuSans-114"/>
     <use x="999.464844" xlink:href="#DejaVuSans-105"/>
     <use x="1027.248047" xlink:href="#DejaVuSans-103"/>
     <use x="1090.724609" xlink:href="#DejaVuSans-105"/>
     <use x="1118.507812" xlink:href="#DejaVuSans-110"/>
    </g>
   </g>
   <g id="legend_1">
    <g id="patch_7">
     <path d="M 280.385793 308.922102 
L 441.546942 308.922102 
Q 444.154102 308.922102 444.154102 306.314942 
L 444.154102 192.813888 
Q 444.154102 190.206729 441.546942 190.206729 
L 280.385793 190.206729 
Q 277.778634 190.206729 277.778634 192.813888 
L 277.778634 306.314942 
Q 277.778634 308.922102 280.385793 308.922102 
z
" style="fill:#ffffff;opacity:0.2;stroke:#cccccc;stroke-linejoin:miter;"/>
    </g>
    <g id="line2d_59">
     <path d="M 282.992952 200.763688 
L 309.064546 200.763688 
" style="fill:none;stroke:#000080;stroke-linecap:square;stroke-width:4;"/>
    </g>
    <g id="line2d_60">
     <defs>
      <path d="M 0 6 
C 1.591219 6 3.117479 5.367802 4.242641 4.242641 
C 5.367802 3.117479 6 1.591219 6 0 
C 6 -1.591219 5.367802 -3.117479 4.242641 -4.242641 
C 3.117479 -5.367802 1.591219 -6 0 -6 
C -1.591219 -6 -3.117479 -5.367802 -4.242641 -4.242641 
C -5.367802 -3.117479 -6 -1.591219 -6 0 
C -6 1.591219 -5.367802 3.117479 -4.242641 4.242641 
C -3.117479 5.367802 -1.591219 6 0 6 
z
" id="m9839ace0c9" style="stroke:#000080;stroke-width:3;"/>
     </defs>
     <g>
      <use style="fill-opacity:0;stroke:#000080;stroke-width:3;" x="296.028749" xlink:href="#m9839ace0c9" y="200.763688"/>
     </g>
    </g>
    <g id="text_14">
     <!-- CMA-ES  2019-g -->
     <defs>
      <path d="M 64.40625 67.28125 
L 64.40625 56.890625 
Q 59.421875 61.53125 53.78125 63.8125 
Q 48.140625 66.109375 41.796875 66.109375 
Q 29.296875 66.109375 22.65625 58.46875 
Q 16.015625 50.828125 16.015625 36.375 
Q 16.015625 21.96875 22.65625 14.328125 
Q 29.296875 6.6875 41.796875 6.6875 
Q 48.140625 6.6875 53.78125 8.984375 
Q 59.421875 11.28125 64.40625 15.921875 
L 64.40625 5.609375 
Q 59.234375 2.09375 53.4375 0.328125 
Q 47.65625 -1.421875 41.21875 -1.421875 
Q 24.65625 -1.421875 15.125 8.703125 
Q 5.609375 18.84375 5.609375 36.375 
Q 5.609375 53.953125 15.125 64.078125 
Q 24.65625 74.21875 41.21875 74.21875 
Q 47.75 74.21875 53.53125 72.484375 
Q 59.328125 70.75 64.40625 67.28125 
z
" id="DejaVuSans-67"/>
      <path d="M 9.8125 72.90625 
L 24.515625 72.90625 
L 43.109375 23.296875 
L 61.8125 72.90625 
L 76.515625 72.90625 
L 76.515625 0 
L 66.890625 0 
L 66.890625 64.015625 
L 48.09375 14.015625 
L 38.1875 14.015625 
L 19.390625 64.015625 
L 19.390625 0 
L 9.8125 0 
z
" id="DejaVuSans-77"/>
      <path d="M 34.1875 63.1875 
L 20.796875 26.90625 
L 47.609375 26.90625 
z
M 28.609375 72.90625 
L 39.796875 72.90625 
L 67.578125 0 
L 57.328125 0 
L 50.6875 18.703125 
L 17.828125 18.703125 
L 11.1875 0 
L 0.78125 0 
z
" id="DejaVuSans-65"/>
      <path d="M 9.8125 72.90625 
L 55.90625 72.90625 
L 55.90625 64.59375 
L 19.671875 64.59375 
L 19.671875 43.015625 
L 54.390625 43.015625 
L 54.390625 34.71875 
L 19.671875 34.71875 
L 19.671875 8.296875 
L 56.78125 8.296875 
L 56.78125 0 
L 9.8125 0 
z
" id="DejaVuSans-69"/>
      <path d="M 53.515625 70.515625 
L 53.515625 60.890625 
Q 47.90625 63.578125 42.921875 64.890625 
Q 37.9375 66.21875 33.296875 66.21875 
Q 25.25 66.21875 20.875 63.09375 
Q 16.5 59.96875 16.5 54.203125 
Q 16.5 49.359375 19.40625 46.890625 
Q 22.3125 44.4375 30.421875 42.921875 
L 36.375 41.703125 
Q 47.40625 39.59375 52.65625 34.296875 
Q 57.90625 29 57.90625 20.125 
Q 57.90625 9.515625 50.796875 4.046875 
Q 43.703125 -1.421875 29.984375 -1.421875 
Q 24.8125 -1.421875 18.96875 -0.25 
Q 13.140625 0.921875 6.890625 3.21875 
L 6.890625 13.375 
Q 12.890625 10.015625 18.65625 8.296875 
Q 24.421875 6.59375 29.984375 6.59375 
Q 38.421875 6.59375 43.015625 9.90625 
Q 47.609375 13.234375 47.609375 19.390625 
Q 47.609375 24.75 44.3125 27.78125 
Q 41.015625 30.8125 33.5 32.328125 
L 27.484375 33.5 
Q 16.453125 35.6875 11.515625 40.375 
Q 6.59375 45.0625 6.59375 53.421875 
Q 6.59375 63.09375 13.40625 68.65625 
Q 20.21875 74.21875 32.171875 74.21875 
Q 37.3125 74.21875 42.625 73.28125 
Q 47.953125 72.359375 53.515625 70.515625 
z
" id="DejaVuSans-83"/>
      <path d="M 10.984375 1.515625 
L 10.984375 10.5 
Q 14.703125 8.734375 18.5 7.8125 
Q 22.3125 6.890625 25.984375 6.890625 
Q 35.75 6.890625 40.890625 13.453125 
Q 46.046875 20.015625 46.78125 33.40625 
Q 43.953125 29.203125 39.59375 26.953125 
Q 35.25 24.703125 29.984375 24.703125 
Q 19.046875 24.703125 12.671875 31.3125 
Q 6.296875 37.9375 6.296875 49.421875 
Q 6.296875 60.640625 12.9375 67.421875 
Q 19.578125 74.21875 30.609375 74.21875 
Q 43.265625 74.21875 49.921875 64.515625 
Q 56.59375 54.828125 56.59375 36.375 
Q 56.59375 19.140625 48.40625 8.859375 
Q 40.234375 -1.421875 26.421875 -1.421875 
Q 22.703125 -1.421875 18.890625 -0.6875 
Q 15.09375 0.046875 10.984375 1.515625 
z
M 30.609375 32.421875 
Q 37.25 32.421875 41.125 36.953125 
Q 45.015625 41.5 45.015625 49.421875 
Q 45.015625 57.28125 41.125 61.84375 
Q 37.25 66.40625 30.609375 66.40625 
Q 23.96875 66.40625 20.09375 61.84375 
Q 16.21875 57.28125 16.21875 49.421875 
Q 16.21875 41.5 20.09375 36.953125 
Q 23.96875 32.421875 30.609375 32.421875 
z
" id="DejaVuSans-57"/>
     </defs>
     <g transform="translate(319.493183 205.326216)scale(0.130358 -0.130358)">
      <use xlink:href="#DejaVuSans-67"/>
      <use x="69.824219" xlink:href="#DejaVuSans-77"/>
      <use x="156.103516" xlink:href="#DejaVuSans-65"/>
      <use x="224.480469" xlink:href="#DejaVuSans-45"/>
      <use x="260.564453" xlink:href="#DejaVuSans-69"/>
      <use x="323.748047" xlink:href="#DejaVuSans-83"/>
      <use x="387.224609" xlink:href="#DejaVuSans-32"/>
      <use x="419.011719" xlink:href="#DejaVuSans-32"/>
      <use x="450.798828" xlink:href="#DejaVuSans-50"/>
      <use x="514.421875" xlink:href="#DejaVuSans-48"/>
      <use x="578.044922" xlink:href="#DejaVuSans-49"/>
      <use x="641.667969" xlink:href="#DejaVuSans-57"/>
      <use x="705.291016" xlink:href="#DejaVuSans-45"/>
      <use x="741.375" xlink:href="#DejaVuSans-103"/>
     </g>
    </g>
    <g id="line2d_61">
     <path d="M 282.992952 219.897793 
L 309.064546 219.897793 
" style="fill:none;stroke:#ff00ff;stroke-linecap:square;stroke-width:3.666667;"/>
    </g>
    <g id="line2d_62">
     <defs>
      <path d="M -0 8.485281 
L 5.091169 0 
L 0 -8.485281 
L -5.091169 -0 
z
" id="md39bc57288" style="stroke:#ff00ff;stroke-linejoin:miter;stroke-width:2.5;"/>
     </defs>
     <g>
      <use style="fill-opacity:0;stroke:#ff00ff;stroke-linejoin:miter;stroke-width:2.5;" x="296.028749" xlink:href="#md39bc57288" y="219.897793"/>
     </g>
    </g>
    <g id="text_15">
     <!-- lmm-CMA-ES aug -->
     <defs>
      <path d="M 9.421875 75.984375 
L 18.40625 75.984375 
L 18.40625 0 
L 9.421875 0 
z
" id="DejaVuSans-108"/>
      <path d="M 52 44.1875 
Q 55.375 50.25 60.0625 53.125 
Q 64.75 56 71.09375 56 
Q 79.640625 56 84.28125 50.015625 
Q 88.921875 44.046875 88.921875 33.015625 
L 88.921875 0 
L 79.890625 0 
L 79.890625 32.71875 
Q 79.890625 40.578125 77.09375 44.375 
Q 74.3125 48.1875 68.609375 48.1875 
Q 61.625 48.1875 57.5625 43.546875 
Q 53.515625 38.921875 53.515625 30.90625 
L 53.515625 0 
L 44.484375 0 
L 44.484375 32.71875 
Q 44.484375 40.625 41.703125 44.40625 
Q 38.921875 48.1875 33.109375 48.1875 
Q 26.21875 48.1875 22.15625 43.53125 
Q 18.109375 38.875 18.109375 30.90625 
L 18.109375 0 
L 9.078125 0 
L 9.078125 54.6875 
L 18.109375 54.6875 
L 18.109375 46.1875 
Q 21.1875 51.21875 25.484375 53.609375 
Q 29.78125 56 35.6875 56 
Q 41.65625 56 45.828125 52.96875 
Q 50 49.953125 52 44.1875 
z
" id="DejaVuSans-109"/>
     </defs>
     <g transform="translate(319.493183 224.460322)scale(0.130358 -0.130358)">
      <use xlink:href="#DejaVuSans-108"/>
      <use x="27.783203" xlink:href="#DejaVuSans-109"/>
      <use x="125.195312" xlink:href="#DejaVuSans-109"/>
      <use x="222.607422" xlink:href="#DejaVuSans-45"/>
      <use x="258.691406" xlink:href="#DejaVuSans-67"/>
      <use x="328.515625" xlink:href="#DejaVuSans-77"/>
      <use x="414.794922" xlink:href="#DejaVuSans-65"/>
      <use x="483.171875" xlink:href="#DejaVuSans-45"/>
      <use x="519.255859" xlink:href="#DejaVuSans-69"/>
      <use x="582.439453" xlink:href="#DejaVuSans-83"/>
      <use x="645.916016" xlink:href="#DejaVuSans-32"/>
      <use x="677.703125" xlink:href="#DejaVuSans-97"/>
      <use x="738.982422" xlink:href="#DejaVuSans-117"/>
      <use x="802.361328" xlink:href="#DejaVuSans-103"/>
     </g>
    </g>
    <g id="line2d_63">
     <path d="M 282.992952 239.031899 
L 309.064546 239.031899 
" style="fill:none;stroke:#ffa500;stroke-linecap:square;stroke-width:3.333333;"/>
    </g>
    <g id="line2d_64">
     <defs>
      <path d="M 0 -6 
L -1.347084 -1.854102 
L -5.706339 -1.854102 
L -2.179628 0.708204 
L -3.526712 4.854102 
L -0 2.291796 
L 3.526712 4.854102 
L 2.179628 0.708204 
L 5.706339 -1.854102 
L 1.347084 -1.854102 
z
" id="me963e5ee36" style="stroke:#ffa500;stroke-linejoin:bevel;stroke-width:2;"/>
     </defs>
     <g>
      <use style="fill-opacity:0;stroke:#ffa500;stroke-linejoin:bevel;stroke-width:2;" x="296.028749" xlink:href="#me963e5ee36" y="239.031899"/>
     </g>
    </g>
    <g id="text_16">
     <!-- IPOPsaACM losh -->
     <defs>
      <path d="M 9.8125 72.90625 
L 19.671875 72.90625 
L 19.671875 0 
L 9.8125 0 
z
" id="DejaVuSans-73"/>
      <path d="M 19.671875 64.796875 
L 19.671875 37.40625 
L 32.078125 37.40625 
Q 38.96875 37.40625 42.71875 40.96875 
Q 46.484375 44.53125 46.484375 51.125 
Q 46.484375 57.671875 42.71875 61.234375 
Q 38.96875 64.796875 32.078125 64.796875 
z
M 9.8125 72.90625 
L 32.078125 72.90625 
Q 44.34375 72.90625 50.609375 67.359375 
Q 56.890625 61.8125 56.890625 51.125 
Q 56.890625 40.328125 50.609375 34.8125 
Q 44.34375 29.296875 32.078125 29.296875 
L 19.671875 29.296875 
L 19.671875 0 
L 9.8125 0 
z
" id="DejaVuSans-80"/>
      <path d="M 39.40625 66.21875 
Q 28.65625 66.21875 22.328125 58.203125 
Q 16.015625 50.203125 16.015625 36.375 
Q 16.015625 22.609375 22.328125 14.59375 
Q 28.65625 6.59375 39.40625 6.59375 
Q 50.140625 6.59375 56.421875 14.59375 
Q 62.703125 22.609375 62.703125 36.375 
Q 62.703125 50.203125 56.421875 58.203125 
Q 50.140625 66.21875 39.40625 66.21875 
z
M 39.40625 74.21875 
Q 54.734375 74.21875 63.90625 63.9375 
Q 73.09375 53.65625 73.09375 36.375 
Q 73.09375 19.140625 63.90625 8.859375 
Q 54.734375 -1.421875 39.40625 -1.421875 
Q 24.03125 -1.421875 14.8125 8.828125 
Q 5.609375 19.09375 5.609375 36.375 
Q 5.609375 53.65625 14.8125 63.9375 
Q 24.03125 74.21875 39.40625 74.21875 
z
" id="DejaVuSans-79"/>
      <path d="M 30.609375 48.390625 
Q 23.390625 48.390625 19.1875 42.75 
Q 14.984375 37.109375 14.984375 27.296875 
Q 14.984375 17.484375 19.15625 11.84375 
Q 23.34375 6.203125 30.609375 6.203125 
Q 37.796875 6.203125 41.984375 11.859375 
Q 46.1875 17.53125 46.1875 27.296875 
Q 46.1875 37.015625 41.984375 42.703125 
Q 37.796875 48.390625 30.609375 48.390625 
z
M 30.609375 56 
Q 42.328125 56 49.015625 48.375 
Q 55.71875 40.765625 55.71875 27.296875 
Q 55.71875 13.875 49.015625 6.21875 
Q 42.328125 -1.421875 30.609375 -1.421875 
Q 18.84375 -1.421875 12.171875 6.21875 
Q 5.515625 13.875 5.515625 27.296875 
Q 5.515625 40.765625 12.171875 48.375 
Q 18.84375 56 30.609375 56 
z
" id="DejaVuSans-111"/>
      <path d="M 54.890625 33.015625 
L 54.890625 0 
L 45.90625 0 
L 45.90625 32.71875 
Q 45.90625 40.484375 42.875 44.328125 
Q 39.84375 48.1875 33.796875 48.1875 
Q 26.515625 48.1875 22.3125 43.546875 
Q 18.109375 38.921875 18.109375 30.90625 
L 18.109375 0 
L 9.078125 0 
L 9.078125 75.984375 
L 18.109375 75.984375 
L 18.109375 46.1875 
Q 21.34375 51.125 25.703125 53.5625 
Q 30.078125 56 35.796875 56 
Q 45.21875 56 50.046875 50.171875 
Q 54.890625 44.34375 54.890625 33.015625 
z
" id="DejaVuSans-104"/>
     </defs>
     <g transform="translate(319.493183 243.594428)scale(0.130358 -0.130358)">
      <use xlink:href="#DejaVuSans-73"/>
      <use x="29.492188" xlink:href="#DejaVuSans-80"/>
      <use x="89.794922" xlink:href="#DejaVuSans-79"/>
      <use x="168.505859" xlink:href="#DejaVuSans-80"/>
      <use x="228.792969" xlink:href="#DejaVuSans-115"/>
      <use x="280.892578" xlink:href="#DejaVuSans-97"/>
      <use x="342.171875" xlink:href="#DejaVuSans-65"/>
      <use x="410.564453" xlink:href="#DejaVuSans-67"/>
      <use x="480.388672" xlink:href="#DejaVuSans-77"/>
      <use x="566.667969" xlink:href="#DejaVuSans-32"/>
      <use x="598.455078" xlink:href="#DejaVuSans-108"/>
      <use x="626.238281" xlink:href="#DejaVuSans-111"/>
      <use x="687.419922" xlink:href="#DejaVuSans-115"/>
      <use x="739.519531" xlink:href="#DejaVuSans-104"/>
     </g>
    </g>
    <g id="line2d_65">
     <path d="M 282.992952 258.166004 
L 309.064546 258.166004 
" style="fill:none;stroke:#6495ed;stroke-linecap:square;stroke-width:3;"/>
    </g>
    <g id="line2d_66">
     <defs>
      <path d="M -0 6 
L 6 -6 
L -6 -6 
z
" id="m03400c09b4" style="stroke:#6495ed;stroke-linejoin:miter;stroke-width:1.5;"/>
     </defs>
     <g>
      <use style="fill-opacity:0;stroke:#6495ed;stroke-linejoin:miter;stroke-width:1.5;" x="296.028749" xlink:href="#m03400c09b4" y="258.166004"/>
     </g>
    </g>
    <g id="text_17">
     <!-- DTS5-CMA -->
     <defs>
      <path d="M -0.296875 72.90625 
L 61.375 72.90625 
L 61.375 64.59375 
L 35.5 64.59375 
L 35.5 0 
L 25.59375 0 
L 25.59375 64.59375 
L -0.296875 64.59375 
z
" id="DejaVuSans-84"/>
     </defs>
     <g transform="translate(319.493183 262.728533)scale(0.130358 -0.130358)">
      <use xlink:href="#DejaVuSans-68"/>
      <use x="77.001953" xlink:href="#DejaVuSans-84"/>
      <use x="138.085938" xlink:href="#DejaVuSans-83"/>
      <use x="201.5625" xlink:href="#DejaVuSans-53"/>
      <use x="265.185547" xlink:href="#DejaVuSans-45"/>
      <use x="301.269531" xlink:href="#DejaVuSans-67"/>
      <use x="371.09375" xlink:href="#DejaVuSans-77"/>
      <use x="457.373047" xlink:href="#DejaVuSans-65"/>
     </g>
    </g>
    <g id="line2d_67">
     <path d="M 282.992952 277.30011 
L 309.064546 277.30011 
" style="fill:none;stroke:#ff0000;stroke-linecap:square;stroke-width:2.666667;"/>
    </g>
    <g id="line2d_68">
     <defs>
      <path d="M 0 -6 
L -5.196152 -3 
L -5.196152 3 
L -0 6 
L 5.196152 3 
L 5.196152 -3 
z
" id="m2c07980449" style="stroke:#ff0000;stroke-linejoin:miter;"/>
     </defs>
     <g>
      <use style="fill-opacity:0;stroke:#ff0000;stroke-linejoin:miter;" x="296.028749" xlink:href="#m2c07980449" y="277.30011"/>
     </g>
    </g>
    <g id="text_18">
     <!-- lq-CMA-ES 2019 -->
     <defs>
      <path d="M 14.796875 27.296875 
Q 14.796875 17.390625 18.875 11.75 
Q 22.953125 6.109375 30.078125 6.109375 
Q 37.203125 6.109375 41.296875 11.75 
Q 45.40625 17.390625 45.40625 27.296875 
Q 45.40625 37.203125 41.296875 42.84375 
Q 37.203125 48.484375 30.078125 48.484375 
Q 22.953125 48.484375 18.875 42.84375 
Q 14.796875 37.203125 14.796875 27.296875 
z
M 45.40625 8.203125 
Q 42.578125 3.328125 38.25 0.953125 
Q 33.9375 -1.421875 27.875 -1.421875 
Q 17.96875 -1.421875 11.734375 6.484375 
Q 5.515625 14.40625 5.515625 27.296875 
Q 5.515625 40.1875 11.734375 48.09375 
Q 17.96875 56 27.875 56 
Q 33.9375 56 38.25 53.625 
Q 42.578125 51.265625 45.40625 46.390625 
L 45.40625 54.6875 
L 54.390625 54.6875 
L 54.390625 -20.796875 
L 45.40625 -20.796875 
z
" id="DejaVuSans-113"/>
     </defs>
     <g transform="translate(319.493183 281.862639)scale(0.130358 -0.130358)">
      <use xlink:href="#DejaVuSans-108"/>
      <use x="27.783203" xlink:href="#DejaVuSans-113"/>
      <use x="91.259766" xlink:href="#DejaVuSans-45"/>
      <use x="127.34375" xlink:href="#DejaVuSans-67"/>
      <use x="197.167969" xlink:href="#DejaVuSans-77"/>
      <use x="283.447266" xlink:href="#DejaVuSans-65"/>
      <use x="351.824219" xlink:href="#DejaVuSans-45"/>
      <use x="387.908203" xlink:href="#DejaVuSans-69"/>
      <use x="451.091797" xlink:href="#DejaVuSans-83"/>
      <use x="514.568359" xlink:href="#DejaVuSans-32"/>
      <use x="546.355469" xlink:href="#DejaVuSans-50"/>
      <use x="609.978516" xlink:href="#DejaVuSans-48"/>
      <use x="673.601562" xlink:href="#DejaVuSans-49"/>
      <use x="737.224609" xlink:href="#DejaVuSans-57"/>
     </g>
    </g>
    <g id="line2d_69">
     <path d="M 282.992952 296.434216 
L 309.064546 296.434216 
" style="fill:none;stroke:#9acd32;stroke-linecap:square;stroke-width:2.333333;"/>
    </g>
    <g id="line2d_70">
     <g>
      <use style="fill-opacity:0;stroke:#9acd32;stroke-linejoin:miter;" x="296.028749" xlink:href="#m410b761348" y="296.434216"/>
     </g>
    </g>
    <g id="text_19">
     <!-- SLSQP+CMA 2019 -->
     <defs>
      <path d="M 39.40625 66.21875 
Q 28.65625 66.21875 22.328125 58.203125 
Q 16.015625 50.203125 16.015625 36.375 
Q 16.015625 22.609375 22.328125 14.59375 
Q 28.65625 6.59375 39.40625 6.59375 
Q 50.140625 6.59375 56.421875 14.59375 
Q 62.703125 22.609375 62.703125 36.375 
Q 62.703125 50.203125 56.421875 58.203125 
Q 50.140625 66.21875 39.40625 66.21875 
z
M 53.21875 1.3125 
L 66.21875 -12.890625 
L 54.296875 -12.890625 
L 43.5 -1.21875 
Q 41.890625 -1.3125 41.03125 -1.359375 
Q 40.1875 -1.421875 39.40625 -1.421875 
Q 24.03125 -1.421875 14.8125 8.859375 
Q 5.609375 19.140625 5.609375 36.375 
Q 5.609375 53.65625 14.8125 63.9375 
Q 24.03125 74.21875 39.40625 74.21875 
Q 54.734375 74.21875 63.90625 63.9375 
Q 73.09375 53.65625 73.09375 36.375 
Q 73.09375 23.6875 67.984375 14.640625 
Q 62.890625 5.609375 53.21875 1.3125 
z
" id="DejaVuSans-81"/>
      <path d="M 46 62.703125 
L 46 35.5 
L 73.1875 35.5 
L 73.1875 27.203125 
L 46 27.203125 
L 46 0 
L 37.796875 0 
L 37.796875 27.203125 
L 10.59375 27.203125 
L 10.59375 35.5 
L 37.796875 35.5 
L 37.796875 62.703125 
z
" id="DejaVuSans-43"/>
     </defs>
     <g transform="translate(319.493183 300.996744)scale(0.130358 -0.130358)">
      <use xlink:href="#DejaVuSans-83"/>
      <use x="63.476562" xlink:href="#DejaVuSans-76"/>
      <use x="119.189453" xlink:href="#DejaVuSans-83"/>
      <use x="182.666016" xlink:href="#DejaVuSans-81"/>
      <use x="261.376953" xlink:href="#DejaVuSans-80"/>
      <use x="321.679688" xlink:href="#DejaVuSans-43"/>
      <use x="405.46875" xlink:href="#DejaVuSans-67"/>
      <use x="475.292969" xlink:href="#DejaVuSans-77"/>
      <use x="561.572266" xlink:href="#DejaVuSans-65"/>
      <use x="629.980469" xlink:href="#DejaVuSans-32"/>
      <use x="661.767578" xlink:href="#DejaVuSans-50"/>
      <use x="725.390625" xlink:href="#DejaVuSans-48"/>
      <use x="789.013672" xlink:href="#DejaVuSans-49"/>
      <use x="852.636719" xlink:href="#DejaVuSans-57"/>
     </g>
    </g>
   </g>
  </g>
 </g>
 <defs>
  <clipPath id="pc69a0526b0">
   <rect height="289.88" width="427.892" x="22.78" y="25.56"/>
  </clipPath>
 </defs>
</svg>
