<?xml version="1.0" encoding="utf-8" standalone="no"?>
<!DOCTYPE svg PUBLIC "-//W3C//DTD SVG 1.1//EN"
  "http://www.w3.org/Graphics/SVG/1.1/DTD/svg11.dtd">
<!-- Created with matplotlib (https://matplotlib.org/) -->
<svg height="345.6pt" version="1.1" viewBox="0 0 460.8 345.6" width="460.8pt" xmlns="http://www.w3.org/2000/svg" xmlns:xlink="http://www.w3.org/1999/xlink">
 <defs>
  <style type="text/css">
*{stroke-linecap:butt;stroke-linejoin:round;}
  </style>
 </defs>
 <g id="figure_1">
  <g id="patch_1">
   <path d="M 0 345.6 
L 460.8 345.6 
L 460.8 0 
L 0 0 
z
" style="fill:#ffffff;"/>
  </g>
  <g id="axes_1">
   <g id="patch_2">
    <path d="M 57.6 298.944 
L 338.688 298.944 
L 338.688 27.648 
L 57.6 27.648 
z
" style="fill:#ffffff;"/>
   </g>
   <g id="matplotlib.axis_1">
    <g id="xtick_1">
     <g id="line2d_1">
      <path clip-path="url(#p91e71a3067)" d="M 57.6 298.944 
L 57.6 27.648 
" style="fill:none;stroke:#b0b0b0;stroke-linecap:square;stroke-width:0.8;"/>
     </g>
     <g id="line2d_2">
      <defs>
       <path d="M 0 0 
L 0 3.5 
" id="md4789ee1ba" style="stroke:#000000;stroke-width:0.8;"/>
      </defs>
      <g>
       <use style="stroke:#000000;stroke-width:0.8;" x="57.6" xlink:href="#md4789ee1ba" y="298.944"/>
      </g>
     </g>
     <g id="text_1">
      <!-- 0 -->
      <defs>
       <path d="M 31.78125 66.40625 
Q 24.171875 66.40625 20.328125 58.90625 
Q 16.5 51.421875 16.5 36.375 
Q 16.5 21.390625 20.328125 13.890625 
Q 24.171875 6.390625 31.78125 6.390625 
Q 39.453125 6.390625 43.28125 13.890625 
Q 47.125 21.390625 47.125 36.375 
Q 47.125 51.421875 43.28125 58.90625 
Q 39.453125 66.40625 31.78125 66.40625 
z
M 31.78125 74.21875 
Q 44.046875 74.21875 50.515625 64.515625 
Q 56.984375 54.828125 56.984375 36.375 
Q 56.984375 17.96875 50.515625 8.265625 
Q 44.046875 -1.421875 31.78125 -1.421875 
Q 19.53125 -1.421875 13.0625 8.265625 
Q 6.59375 17.96875 6.59375 36.375 
Q 6.59375 54.828125 13.0625 64.515625 
Q 19.53125 74.21875 31.78125 74.21875 
z
" id="DejaVuSans-48"/>
      </defs>
      <g transform="translate(51.2375 321.140875)scale(0.2 -0.2)">
       <use xlink:href="#DejaVuSans-48"/>
      </g>
     </g>
    </g>
    <g id="xtick_2">
     <g id="line2d_3">
      <path clip-path="url(#p91e71a3067)" d="M 137.910857 298.944 
L 137.910857 27.648 
" style="fill:none;stroke:#b0b0b0;stroke-linecap:square;stroke-width:0.8;"/>
     </g>
     <g id="line2d_4">
      <g>
       <use style="stroke:#000000;stroke-width:0.8;" x="137.910857" xlink:href="#md4789ee1ba" y="298.944"/>
      </g>
     </g>
     <g id="text_2">
      <!-- 2 -->
      <defs>
       <path d="M 19.1875 8.296875 
L 53.609375 8.296875 
L 53.609375 0 
L 7.328125 0 
L 7.328125 8.296875 
Q 12.9375 14.109375 22.625 23.890625 
Q 32.328125 33.6875 34.8125 36.53125 
Q 39.546875 41.84375 41.421875 45.53125 
Q 43.3125 49.21875 43.3125 52.78125 
Q 43.3125 58.59375 39.234375 62.25 
Q 35.15625 65.921875 28.609375 65.921875 
Q 23.96875 65.921875 18.8125 64.3125 
Q 13.671875 62.703125 7.8125 59.421875 
L 7.8125 69.390625 
Q 13.765625 71.78125 18.9375 73 
Q 24.125 74.21875 28.421875 74.21875 
Q 39.75 74.21875 46.484375 68.546875 
Q 53.21875 62.890625 53.21875 53.421875 
Q 53.21875 48.921875 51.53125 44.890625 
Q 49.859375 40.875 45.40625 35.40625 
Q 44.1875 33.984375 37.640625 27.21875 
Q 31.109375 20.453125 19.1875 8.296875 
z
" id="DejaVuSans-50"/>
      </defs>
      <g transform="translate(131.548357 321.140875)scale(0.2 -0.2)">
       <use xlink:href="#DejaVuSans-50"/>
      </g>
     </g>
    </g>
    <g id="xtick_3">
     <g id="line2d_5">
      <path clip-path="url(#p91e71a3067)" d="M 218.221714 298.944 
L 218.221714 27.648 
" style="fill:none;stroke:#b0b0b0;stroke-linecap:square;stroke-width:0.8;"/>
     </g>
     <g id="line2d_6">
      <g>
       <use style="stroke:#000000;stroke-width:0.8;" x="218.221714" xlink:href="#md4789ee1ba" y="298.944"/>
      </g>
     </g>
     <g id="text_3">
      <!-- 4 -->
      <defs>
       <path d="M 37.796875 64.3125 
L 12.890625 25.390625 
L 37.796875 25.390625 
z
M 35.203125 72.90625 
L 47.609375 72.90625 
L 47.609375 25.390625 
L 58.015625 25.390625 
L 58.015625 17.1875 
L 47.609375 17.1875 
L 47.609375 0 
L 37.796875 0 
L 37.796875 17.1875 
L 4.890625 17.1875 
L 4.890625 26.703125 
z
" id="DejaVuSans-52"/>
      </defs>
      <g transform="translate(211.859214 321.140875)scale(0.2 -0.2)">
       <use xlink:href="#DejaVuSans-52"/>
      </g>
     </g>
    </g>
    <g id="xtick_4">
     <g id="line2d_7">
      <path clip-path="url(#p91e71a3067)" d="M 298.532571 298.944 
L 298.532571 27.648 
" style="fill:none;stroke:#b0b0b0;stroke-linecap:square;stroke-width:0.8;"/>
     </g>
     <g id="line2d_8">
      <g>
       <use style="stroke:#000000;stroke-width:0.8;" x="298.532571" xlink:href="#md4789ee1ba" y="298.944"/>
      </g>
     </g>
     <g id="text_4">
      <!-- 6 -->
      <defs>
       <path d="M 33.015625 40.375 
Q 26.375 40.375 22.484375 35.828125 
Q 18.609375 31.296875 18.609375 23.390625 
Q 18.609375 15.53125 22.484375 10.953125 
Q 26.375 6.390625 33.015625 6.390625 
Q 39.65625 6.390625 43.53125 10.953125 
Q 47.40625 15.53125 47.40625 23.390625 
Q 47.40625 31.296875 43.53125 35.828125 
Q 39.65625 40.375 33.015625 40.375 
z
M 52.59375 71.296875 
L 52.59375 62.3125 
Q 48.875 64.0625 45.09375 64.984375 
Q 41.3125 65.921875 37.59375 65.921875 
Q 27.828125 65.921875 22.671875 59.328125 
Q 17.53125 52.734375 16.796875 39.40625 
Q 19.671875 43.65625 24.015625 45.921875 
Q 28.375 48.1875 33.59375 48.1875 
Q 44.578125 48.1875 50.953125 41.515625 
Q 57.328125 34.859375 57.328125 23.390625 
Q 57.328125 12.15625 50.6875 5.359375 
Q 44.046875 -1.421875 33.015625 -1.421875 
Q 20.359375 -1.421875 13.671875 8.265625 
Q 6.984375 17.96875 6.984375 36.375 
Q 6.984375 53.65625 15.1875 63.9375 
Q 23.390625 74.21875 37.203125 74.21875 
Q 40.921875 74.21875 44.703125 73.484375 
Q 48.484375 72.75 52.59375 71.296875 
z
" id="DejaVuSans-54"/>
      </defs>
      <g transform="translate(292.170071 321.140875)scale(0.2 -0.2)">
       <use xlink:href="#DejaVuSans-54"/>
      </g>
     </g>
    </g>
    <g id="xtick_5">
     <g id="line2d_9">
      <path clip-path="url(#p91e71a3067)" d="M 57.6 298.944 
L 57.6 27.648 
" style="fill:none;stroke:#b0b0b0;stroke-linecap:square;stroke-width:0.8;"/>
     </g>
     <g id="line2d_10">
      <defs>
       <path d="M 0 0 
L 0 2 
" id="mec3b83afd5" style="stroke:#000000;stroke-width:0.6;"/>
      </defs>
      <g>
       <use style="stroke:#000000;stroke-width:0.6;" x="57.6" xlink:href="#mec3b83afd5" y="298.944"/>
      </g>
     </g>
    </g>
    <g id="xtick_6">
     <g id="line2d_11">
      <path clip-path="url(#p91e71a3067)" d="M 97.755429 298.944 
L 97.755429 27.648 
" style="fill:none;stroke:#b0b0b0;stroke-linecap:square;stroke-width:0.8;"/>
     </g>
     <g id="line2d_12">
      <g>
       <use style="stroke:#000000;stroke-width:0.6;" x="97.755429" xlink:href="#mec3b83afd5" y="298.944"/>
      </g>
     </g>
    </g>
    <g id="xtick_7">
     <g id="line2d_13">
      <path clip-path="url(#p91e71a3067)" d="M 137.910857 298.944 
L 137.910857 27.648 
" style="fill:none;stroke:#b0b0b0;stroke-linecap:square;stroke-width:0.8;"/>
     </g>
     <g id="line2d_14">
      <g>
       <use style="stroke:#000000;stroke-width:0.6;" x="137.910857" xlink:href="#mec3b83afd5" y="298.944"/>
      </g>
     </g>
    </g>
    <g id="xtick_8">
     <g id="line2d_15">
      <path clip-path="url(#p91e71a3067)" d="M 178.066286 298.944 
L 178.066286 27.648 
" style="fill:none;stroke:#b0b0b0;stroke-linecap:square;stroke-width:0.8;"/>
     </g>
     <g id="line2d_16">
      <g>
       <use style="stroke:#000000;stroke-width:0.6;" x="178.066286" xlink:href="#mec3b83afd5" y="298.944"/>
      </g>
     </g>
    </g>
    <g id="xtick_9">
     <g id="line2d_17">
      <path clip-path="url(#p91e71a3067)" d="M 218.221714 298.944 
L 218.221714 27.648 
" style="fill:none;stroke:#b0b0b0;stroke-linecap:square;stroke-width:0.8;"/>
     </g>
     <g id="line2d_18">
      <g>
       <use style="stroke:#000000;stroke-width:0.6;" x="218.221714" xlink:href="#mec3b83afd5" y="298.944"/>
      </g>
     </g>
    </g>
    <g id="xtick_10">
     <g id="line2d_19">
      <path clip-path="url(#p91e71a3067)" d="M 258.377143 298.944 
L 258.377143 27.648 
" style="fill:none;stroke:#b0b0b0;stroke-linecap:square;stroke-width:0.8;"/>
     </g>
     <g id="line2d_20">
      <g>
       <use style="stroke:#000000;stroke-width:0.6;" x="258.377143" xlink:href="#mec3b83afd5" y="298.944"/>
      </g>
     </g>
    </g>
    <g id="xtick_11">
     <g id="line2d_21">
      <path clip-path="url(#p91e71a3067)" d="M 298.532571 298.944 
L 298.532571 27.648 
" style="fill:none;stroke:#b0b0b0;stroke-linecap:square;stroke-width:0.8;"/>
     </g>
     <g id="line2d_22">
      <g>
       <use style="stroke:#000000;stroke-width:0.6;" x="298.532571" xlink:href="#mec3b83afd5" y="298.944"/>
      </g>
     </g>
    </g>
    <g id="xtick_12">
     <g id="line2d_23">
      <path clip-path="url(#p91e71a3067)" d="M 338.688 298.944 
L 338.688 27.648 
" style="fill:none;stroke:#b0b0b0;stroke-linecap:square;stroke-width:0.8;"/>
     </g>
     <g id="line2d_24">
      <g>
       <use style="stroke:#000000;stroke-width:0.6;" x="338.688" xlink:href="#mec3b83afd5" y="298.944"/>
      </g>
     </g>
    </g>
    <g id="text_5">
     <!-- log10(# f-evals / dimension) -->
     <defs>
      <path d="M 9.421875 75.984375 
L 18.40625 75.984375 
L 18.40625 0 
L 9.421875 0 
z
" id="DejaVuSans-108"/>
      <path d="M 30.609375 48.390625 
Q 23.390625 48.390625 19.1875 42.75 
Q 14.984375 37.109375 14.984375 27.296875 
Q 14.984375 17.484375 19.15625 11.84375 
Q 23.34375 6.203125 30.609375 6.203125 
Q 37.796875 6.203125 41.984375 11.859375 
Q 46.1875 17.53125 46.1875 27.296875 
Q 46.1875 37.015625 41.984375 42.703125 
Q 37.796875 48.390625 30.609375 48.390625 
z
M 30.609375 56 
Q 42.328125 56 49.015625 48.375 
Q 55.71875 40.765625 55.71875 27.296875 
Q 55.71875 13.875 49.015625 6.21875 
Q 42.328125 -1.421875 30.609375 -1.421875 
Q 18.84375 -1.421875 12.171875 6.21875 
Q 5.515625 13.875 5.515625 27.296875 
Q 5.515625 40.765625 12.171875 48.375 
Q 18.84375 56 30.609375 56 
z
" id="DejaVuSans-111"/>
      <path d="M 45.40625 27.984375 
Q 45.40625 37.75 41.375 43.109375 
Q 37.359375 48.484375 30.078125 48.484375 
Q 22.859375 48.484375 18.828125 43.109375 
Q 14.796875 37.75 14.796875 27.984375 
Q 14.796875 18.265625 18.828125 12.890625 
Q 22.859375 7.515625 30.078125 7.515625 
Q 37.359375 7.515625 41.375 12.890625 
Q 45.40625 18.265625 45.40625 27.984375 
z
M 54.390625 6.78125 
Q 54.390625 -7.171875 48.1875 -13.984375 
Q 42 -20.796875 29.203125 -20.796875 
Q 24.46875 -20.796875 20.265625 -20.09375 
Q 16.0625 -19.390625 12.109375 -17.921875 
L 12.109375 -9.1875 
Q 16.0625 -11.328125 19.921875 -12.34375 
Q 23.78125 -13.375 27.78125 -13.375 
Q 36.625 -13.375 41.015625 -8.765625 
Q 45.40625 -4.15625 45.40625 5.171875 
L 45.40625 9.625 
Q 42.625 4.78125 38.28125 2.390625 
Q 33.9375 0 27.875 0 
Q 17.828125 0 11.671875 7.65625 
Q 5.515625 15.328125 5.515625 27.984375 
Q 5.515625 40.671875 11.671875 48.328125 
Q 17.828125 56 27.875 56 
Q 33.9375 56 38.28125 53.609375 
Q 42.625 51.21875 45.40625 46.390625 
L 45.40625 54.6875 
L 54.390625 54.6875 
z
" id="DejaVuSans-103"/>
      <path d="M 12.40625 8.296875 
L 28.515625 8.296875 
L 28.515625 63.921875 
L 10.984375 60.40625 
L 10.984375 69.390625 
L 28.421875 72.90625 
L 38.28125 72.90625 
L 38.28125 8.296875 
L 54.390625 8.296875 
L 54.390625 0 
L 12.40625 0 
z
" id="DejaVuSans-49"/>
      <path d="M 31 75.875 
Q 24.46875 64.65625 21.28125 53.65625 
Q 18.109375 42.671875 18.109375 31.390625 
Q 18.109375 20.125 21.3125 9.0625 
Q 24.515625 -2 31 -13.1875 
L 23.1875 -13.1875 
Q 15.875 -1.703125 12.234375 9.375 
Q 8.59375 20.453125 8.59375 31.390625 
Q 8.59375 42.28125 12.203125 53.3125 
Q 15.828125 64.359375 23.1875 75.875 
z
" id="DejaVuSans-40"/>
      <path d="M 51.125 44 
L 36.921875 44 
L 32.8125 27.6875 
L 47.125 27.6875 
z
M 43.796875 71.78125 
L 38.71875 51.515625 
L 52.984375 51.515625 
L 58.109375 71.78125 
L 65.921875 71.78125 
L 60.890625 51.515625 
L 76.125 51.515625 
L 76.125 44 
L 58.984375 44 
L 54.984375 27.6875 
L 70.515625 27.6875 
L 70.515625 20.21875 
L 53.078125 20.21875 
L 48 0 
L 40.1875 0 
L 45.21875 20.21875 
L 30.90625 20.21875 
L 25.875 0 
L 18.015625 0 
L 23.09375 20.21875 
L 7.71875 20.21875 
L 7.71875 27.6875 
L 24.90625 27.6875 
L 29 44 
L 13.28125 44 
L 13.28125 51.515625 
L 30.90625 51.515625 
L 35.890625 71.78125 
z
" id="DejaVuSans-35"/>
      <path id="DejaVuSans-32"/>
      <path d="M 37.109375 75.984375 
L 37.109375 68.5 
L 28.515625 68.5 
Q 23.6875 68.5 21.796875 66.546875 
Q 19.921875 64.59375 19.921875 59.515625 
L 19.921875 54.6875 
L 34.71875 54.6875 
L 34.71875 47.703125 
L 19.921875 47.703125 
L 19.921875 0 
L 10.890625 0 
L 10.890625 47.703125 
L 2.296875 47.703125 
L 2.296875 54.6875 
L 10.890625 54.6875 
L 10.890625 58.5 
Q 10.890625 67.625 15.140625 71.796875 
Q 19.390625 75.984375 28.609375 75.984375 
z
" id="DejaVuSans-102"/>
      <path d="M 4.890625 31.390625 
L 31.203125 31.390625 
L 31.203125 23.390625 
L 4.890625 23.390625 
z
" id="DejaVuSans-45"/>
      <path d="M 56.203125 29.59375 
L 56.203125 25.203125 
L 14.890625 25.203125 
Q 15.484375 15.921875 20.484375 11.0625 
Q 25.484375 6.203125 34.421875 6.203125 
Q 39.59375 6.203125 44.453125 7.46875 
Q 49.3125 8.734375 54.109375 11.28125 
L 54.109375 2.78125 
Q 49.265625 0.734375 44.1875 -0.34375 
Q 39.109375 -1.421875 33.890625 -1.421875 
Q 20.796875 -1.421875 13.15625 6.1875 
Q 5.515625 13.8125 5.515625 26.8125 
Q 5.515625 40.234375 12.765625 48.109375 
Q 20.015625 56 32.328125 56 
Q 43.359375 56 49.78125 48.890625 
Q 56.203125 41.796875 56.203125 29.59375 
z
M 47.21875 32.234375 
Q 47.125 39.59375 43.09375 43.984375 
Q 39.0625 48.390625 32.421875 48.390625 
Q 24.90625 48.390625 20.390625 44.140625 
Q 15.875 39.890625 15.1875 32.171875 
z
" id="DejaVuSans-101"/>
      <path d="M 2.984375 54.6875 
L 12.5 54.6875 
L 29.59375 8.796875 
L 46.6875 54.6875 
L 56.203125 54.6875 
L 35.6875 0 
L 23.484375 0 
z
" id="DejaVuSans-118"/>
      <path d="M 34.28125 27.484375 
Q 23.390625 27.484375 19.1875 25 
Q 14.984375 22.515625 14.984375 16.5 
Q 14.984375 11.71875 18.140625 8.90625 
Q 21.296875 6.109375 26.703125 6.109375 
Q 34.1875 6.109375 38.703125 11.40625 
Q 43.21875 16.703125 43.21875 25.484375 
L 43.21875 27.484375 
z
M 52.203125 31.203125 
L 52.203125 0 
L 43.21875 0 
L 43.21875 8.296875 
Q 40.140625 3.328125 35.546875 0.953125 
Q 30.953125 -1.421875 24.3125 -1.421875 
Q 15.921875 -1.421875 10.953125 3.296875 
Q 6 8.015625 6 15.921875 
Q 6 25.140625 12.171875 29.828125 
Q 18.359375 34.515625 30.609375 34.515625 
L 43.21875 34.515625 
L 43.21875 35.40625 
Q 43.21875 41.609375 39.140625 45 
Q 35.0625 48.390625 27.6875 48.390625 
Q 23 48.390625 18.546875 47.265625 
Q 14.109375 46.140625 10.015625 43.890625 
L 10.015625 52.203125 
Q 14.9375 54.109375 19.578125 55.046875 
Q 24.21875 56 28.609375 56 
Q 40.484375 56 46.34375 49.84375 
Q 52.203125 43.703125 52.203125 31.203125 
z
" id="DejaVuSans-97"/>
      <path d="M 44.28125 53.078125 
L 44.28125 44.578125 
Q 40.484375 46.53125 36.375 47.5 
Q 32.28125 48.484375 27.875 48.484375 
Q 21.1875 48.484375 17.84375 46.4375 
Q 14.5 44.390625 14.5 40.28125 
Q 14.5 37.15625 16.890625 35.375 
Q 19.28125 33.59375 26.515625 31.984375 
L 29.59375 31.296875 
Q 39.15625 29.25 43.1875 25.515625 
Q 47.21875 21.78125 47.21875 15.09375 
Q 47.21875 7.46875 41.1875 3.015625 
Q 35.15625 -1.421875 24.609375 -1.421875 
Q 20.21875 -1.421875 15.453125 -0.5625 
Q 10.6875 0.296875 5.421875 2 
L 5.421875 11.28125 
Q 10.40625 8.6875 15.234375 7.390625 
Q 20.0625 6.109375 24.8125 6.109375 
Q 31.15625 6.109375 34.5625 8.28125 
Q 37.984375 10.453125 37.984375 14.40625 
Q 37.984375 18.0625 35.515625 20.015625 
Q 33.0625 21.96875 24.703125 23.78125 
L 21.578125 24.515625 
Q 13.234375 26.265625 9.515625 29.90625 
Q 5.8125 33.546875 5.8125 39.890625 
Q 5.8125 47.609375 11.28125 51.796875 
Q 16.75 56 26.8125 56 
Q 31.78125 56 36.171875 55.265625 
Q 40.578125 54.546875 44.28125 53.078125 
z
" id="DejaVuSans-115"/>
      <path d="M 25.390625 72.90625 
L 33.6875 72.90625 
L 8.296875 -9.28125 
L 0 -9.28125 
z
" id="DejaVuSans-47"/>
      <path d="M 45.40625 46.390625 
L 45.40625 75.984375 
L 54.390625 75.984375 
L 54.390625 0 
L 45.40625 0 
L 45.40625 8.203125 
Q 42.578125 3.328125 38.25 0.953125 
Q 33.9375 -1.421875 27.875 -1.421875 
Q 17.96875 -1.421875 11.734375 6.484375 
Q 5.515625 14.40625 5.515625 27.296875 
Q 5.515625 40.1875 11.734375 48.09375 
Q 17.96875 56 27.875 56 
Q 33.9375 56 38.25 53.625 
Q 42.578125 51.265625 45.40625 46.390625 
z
M 14.796875 27.296875 
Q 14.796875 17.390625 18.875 11.75 
Q 22.953125 6.109375 30.078125 6.109375 
Q 37.203125 6.109375 41.296875 11.75 
Q 45.40625 17.390625 45.40625 27.296875 
Q 45.40625 37.203125 41.296875 42.84375 
Q 37.203125 48.484375 30.078125 48.484375 
Q 22.953125 48.484375 18.875 42.84375 
Q 14.796875 37.203125 14.796875 27.296875 
z
" id="DejaVuSans-100"/>
      <path d="M 9.421875 54.6875 
L 18.40625 54.6875 
L 18.40625 0 
L 9.421875 0 
z
M 9.421875 75.984375 
L 18.40625 75.984375 
L 18.40625 64.59375 
L 9.421875 64.59375 
z
" id="DejaVuSans-105"/>
      <path d="M 52 44.1875 
Q 55.375 50.25 60.0625 53.125 
Q 64.75 56 71.09375 56 
Q 79.640625 56 84.28125 50.015625 
Q 88.921875 44.046875 88.921875 33.015625 
L 88.921875 0 
L 79.890625 0 
L 79.890625 32.71875 
Q 79.890625 40.578125 77.09375 44.375 
Q 74.3125 48.1875 68.609375 48.1875 
Q 61.625 48.1875 57.5625 43.546875 
Q 53.515625 38.921875 53.515625 30.90625 
L 53.515625 0 
L 44.484375 0 
L 44.484375 32.71875 
Q 44.484375 40.625 41.703125 44.40625 
Q 38.921875 48.1875 33.109375 48.1875 
Q 26.21875 48.1875 22.15625 43.53125 
Q 18.109375 38.875 18.109375 30.90625 
L 18.109375 0 
L 9.078125 0 
L 9.078125 54.6875 
L 18.109375 54.6875 
L 18.109375 46.1875 
Q 21.1875 51.21875 25.484375 53.609375 
Q 29.78125 56 35.6875 56 
Q 41.65625 56 45.828125 52.96875 
Q 50 49.953125 52 44.1875 
z
" id="DejaVuSans-109"/>
      <path d="M 54.890625 33.015625 
L 54.890625 0 
L 45.90625 0 
L 45.90625 32.71875 
Q 45.90625 40.484375 42.875 44.328125 
Q 39.84375 48.1875 33.796875 48.1875 
Q 26.515625 48.1875 22.3125 43.546875 
Q 18.109375 38.921875 18.109375 30.90625 
L 18.109375 0 
L 9.078125 0 
L 9.078125 54.6875 
L 18.109375 54.6875 
L 18.109375 46.1875 
Q 21.34375 51.125 25.703125 53.5625 
Q 30.078125 56 35.796875 56 
Q 45.21875 56 50.046875 50.171875 
Q 54.890625 44.34375 54.890625 33.015625 
z
" id="DejaVuSans-110"/>
      <path d="M 8.015625 75.875 
L 15.828125 75.875 
Q 23.140625 64.359375 26.78125 53.3125 
Q 30.421875 42.28125 30.421875 31.390625 
Q 30.421875 20.453125 26.78125 9.375 
Q 23.140625 -1.703125 15.828125 -13.1875 
L 8.015625 -13.1875 
Q 14.5 -2 17.703125 9.0625 
Q 20.90625 20.125 20.90625 31.390625 
Q 20.90625 42.671875 17.703125 53.65625 
Q 14.5 64.65625 8.015625 75.875 
z
" id="DejaVuSans-41"/>
     </defs>
     <g transform="translate(77.303219 342.217594)scale(0.17 -0.17)">
      <use xlink:href="#DejaVuSans-108"/>
      <use x="27.783203" xlink:href="#DejaVuSans-111"/>
      <use x="88.964844" xlink:href="#DejaVuSans-103"/>
      <use x="152.441406" xlink:href="#DejaVuSans-49"/>
      <use x="216.064453" xlink:href="#DejaVuSans-48"/>
      <use x="279.6875" xlink:href="#DejaVuSans-40"/>
      <use x="318.701172" xlink:href="#DejaVuSans-35"/>
      <use x="402.490234" xlink:href="#DejaVuSans-32"/>
      <use x="434.277344" xlink:href="#DejaVuSans-102"/>
      <use x="469.404297" xlink:href="#DejaVuSans-45"/>
      <use x="505.488281" xlink:href="#DejaVuSans-101"/>
      <use x="567.011719" xlink:href="#DejaVuSans-118"/>
      <use x="626.191406" xlink:href="#DejaVuSans-97"/>
      <use x="687.470703" xlink:href="#DejaVuSans-108"/>
      <use x="715.253906" xlink:href="#DejaVuSans-115"/>
      <use x="767.353516" xlink:href="#DejaVuSans-32"/>
      <use x="799.140625" xlink:href="#DejaVuSans-47"/>
      <use x="832.832031" xlink:href="#DejaVuSans-32"/>
      <use x="864.619141" xlink:href="#DejaVuSans-100"/>
      <use x="928.095703" xlink:href="#DejaVuSans-105"/>
      <use x="955.878906" xlink:href="#DejaVuSans-109"/>
      <use x="1053.291016" xlink:href="#DejaVuSans-101"/>
      <use x="1114.814453" xlink:href="#DejaVuSans-110"/>
      <use x="1178.193359" xlink:href="#DejaVuSans-115"/>
      <use x="1230.292969" xlink:href="#DejaVuSans-105"/>
      <use x="1258.076172" xlink:href="#DejaVuSans-111"/>
      <use x="1319.257812" xlink:href="#DejaVuSans-110"/>
      <use x="1382.636719" xlink:href="#DejaVuSans-41"/>
     </g>
    </g>
   </g>
   <g id="matplotlib.axis_2">
    <g id="ytick_1">
     <g id="line2d_25">
      <path clip-path="url(#p91e71a3067)" d="M 57.6 298.944 
L 338.688 298.944 
" style="fill:none;stroke:#b0b0b0;stroke-linecap:square;stroke-width:0.8;"/>
     </g>
     <g id="line2d_26">
      <defs>
       <path d="M 0 0 
L -3.5 0 
" id="m09934f7525" style="stroke:#000000;stroke-width:0.8;"/>
      </defs>
      <g>
       <use style="stroke:#000000;stroke-width:0.8;" x="57.6" xlink:href="#m09934f7525" y="298.944"/>
      </g>
     </g>
     <g id="text_6">
      <!-- 0.0 -->
      <defs>
       <path d="M 10.6875 12.40625 
L 21 12.40625 
L 21 0 
L 10.6875 0 
z
" id="DejaVuSans-46"/>
      </defs>
      <g transform="translate(25.155 305.02275)scale(0.16 -0.16)">
       <use xlink:href="#DejaVuSans-48"/>
       <use x="63.623047" xlink:href="#DejaVuSans-46"/>
       <use x="95.410156" xlink:href="#DejaVuSans-48"/>
      </g>
     </g>
    </g>
    <g id="ytick_2">
     <g id="line2d_27">
      <path clip-path="url(#p91e71a3067)" d="M 57.6 245.22202 
L 338.688 245.22202 
" style="fill:none;stroke:#b0b0b0;stroke-linecap:square;stroke-width:0.8;"/>
     </g>
     <g id="line2d_28">
      <g>
       <use style="stroke:#000000;stroke-width:0.8;" x="57.6" xlink:href="#m09934f7525" y="245.22202"/>
      </g>
     </g>
     <g id="text_7">
      <!-- 0.2 -->
      <g transform="translate(25.155 251.30077)scale(0.16 -0.16)">
       <use xlink:href="#DejaVuSans-48"/>
       <use x="63.623047" xlink:href="#DejaVuSans-46"/>
       <use x="95.410156" xlink:href="#DejaVuSans-50"/>
      </g>
     </g>
    </g>
    <g id="ytick_3">
     <g id="line2d_29">
      <path clip-path="url(#p91e71a3067)" d="M 57.6 191.50004 
L 338.688 191.50004 
" style="fill:none;stroke:#b0b0b0;stroke-linecap:square;stroke-width:0.8;"/>
     </g>
     <g id="line2d_30">
      <g>
       <use style="stroke:#000000;stroke-width:0.8;" x="57.6" xlink:href="#m09934f7525" y="191.50004"/>
      </g>
     </g>
     <g id="text_8">
      <!-- 0.4 -->
      <g transform="translate(25.155 197.57879)scale(0.16 -0.16)">
       <use xlink:href="#DejaVuSans-48"/>
       <use x="63.623047" xlink:href="#DejaVuSans-46"/>
       <use x="95.410156" xlink:href="#DejaVuSans-52"/>
      </g>
     </g>
    </g>
    <g id="ytick_4">
     <g id="line2d_31">
      <path clip-path="url(#p91e71a3067)" d="M 57.6 137.778059 
L 338.688 137.778059 
" style="fill:none;stroke:#b0b0b0;stroke-linecap:square;stroke-width:0.8;"/>
     </g>
     <g id="line2d_32">
      <g>
       <use style="stroke:#000000;stroke-width:0.8;" x="57.6" xlink:href="#m09934f7525" y="137.778059"/>
      </g>
     </g>
     <g id="text_9">
      <!-- 0.6 -->
      <g transform="translate(25.155 143.856809)scale(0.16 -0.16)">
       <use xlink:href="#DejaVuSans-48"/>
       <use x="63.623047" xlink:href="#DejaVuSans-46"/>
       <use x="95.410156" xlink:href="#DejaVuSans-54"/>
      </g>
     </g>
    </g>
    <g id="ytick_5">
     <g id="line2d_33">
      <path clip-path="url(#p91e71a3067)" d="M 57.6 84.056079 
L 338.688 84.056079 
" style="fill:none;stroke:#b0b0b0;stroke-linecap:square;stroke-width:0.8;"/>
     </g>
     <g id="line2d_34">
      <g>
       <use style="stroke:#000000;stroke-width:0.8;" x="57.6" xlink:href="#m09934f7525" y="84.056079"/>
      </g>
     </g>
     <g id="text_10">
      <!-- 0.8 -->
      <defs>
       <path d="M 31.78125 34.625 
Q 24.75 34.625 20.71875 30.859375 
Q 16.703125 27.09375 16.703125 20.515625 
Q 16.703125 13.921875 20.71875 10.15625 
Q 24.75 6.390625 31.78125 6.390625 
Q 38.8125 6.390625 42.859375 10.171875 
Q 46.921875 13.96875 46.921875 20.515625 
Q 46.921875 27.09375 42.890625 30.859375 
Q 38.875 34.625 31.78125 34.625 
z
M 21.921875 38.8125 
Q 15.578125 40.375 12.03125 44.71875 
Q 8.5 49.078125 8.5 55.328125 
Q 8.5 64.0625 14.71875 69.140625 
Q 20.953125 74.21875 31.78125 74.21875 
Q 42.671875 74.21875 48.875 69.140625 
Q 55.078125 64.0625 55.078125 55.328125 
Q 55.078125 49.078125 51.53125 44.71875 
Q 48 40.375 41.703125 38.8125 
Q 48.828125 37.15625 52.796875 32.3125 
Q 56.78125 27.484375 56.78125 20.515625 
Q 56.78125 9.90625 50.3125 4.234375 
Q 43.84375 -1.421875 31.78125 -1.421875 
Q 19.734375 -1.421875 13.25 4.234375 
Q 6.78125 9.90625 6.78125 20.515625 
Q 6.78125 27.484375 10.78125 32.3125 
Q 14.796875 37.15625 21.921875 38.8125 
z
M 18.3125 54.390625 
Q 18.3125 48.734375 21.84375 45.5625 
Q 25.390625 42.390625 31.78125 42.390625 
Q 38.140625 42.390625 41.71875 45.5625 
Q 45.3125 48.734375 45.3125 54.390625 
Q 45.3125 60.0625 41.71875 63.234375 
Q 38.140625 66.40625 31.78125 66.40625 
Q 25.390625 66.40625 21.84375 63.234375 
Q 18.3125 60.0625 18.3125 54.390625 
z
" id="DejaVuSans-56"/>
      </defs>
      <g transform="translate(25.155 90.134829)scale(0.16 -0.16)">
       <use xlink:href="#DejaVuSans-48"/>
       <use x="63.623047" xlink:href="#DejaVuSans-46"/>
       <use x="95.410156" xlink:href="#DejaVuSans-56"/>
      </g>
     </g>
    </g>
    <g id="ytick_6">
     <g id="line2d_35">
      <path clip-path="url(#p91e71a3067)" d="M 57.6 30.334099 
L 338.688 30.334099 
" style="fill:none;stroke:#b0b0b0;stroke-linecap:square;stroke-width:0.8;"/>
     </g>
     <g id="line2d_36">
      <g>
       <use style="stroke:#000000;stroke-width:0.8;" x="57.6" xlink:href="#m09934f7525" y="30.334099"/>
      </g>
     </g>
     <g id="text_11">
      <!-- 1.0 -->
      <g transform="translate(25.155 36.412849)scale(0.16 -0.16)">
       <use xlink:href="#DejaVuSans-49"/>
       <use x="63.623047" xlink:href="#DejaVuSans-46"/>
       <use x="95.410156" xlink:href="#DejaVuSans-48"/>
      </g>
     </g>
    </g>
    <g id="text_12">
     <!-- Fraction of function,target pairs -->
     <defs>
      <path d="M 9.8125 72.90625 
L 51.703125 72.90625 
L 51.703125 64.59375 
L 19.671875 64.59375 
L 19.671875 43.109375 
L 48.578125 43.109375 
L 48.578125 34.8125 
L 19.671875 34.8125 
L 19.671875 0 
L 9.8125 0 
z
" id="DejaVuSans-70"/>
      <path d="M 41.109375 46.296875 
Q 39.59375 47.171875 37.8125 47.578125 
Q 36.03125 48 33.890625 48 
Q 26.265625 48 22.1875 43.046875 
Q 18.109375 38.09375 18.109375 28.8125 
L 18.109375 0 
L 9.078125 0 
L 9.078125 54.6875 
L 18.109375 54.6875 
L 18.109375 46.1875 
Q 20.953125 51.171875 25.484375 53.578125 
Q 30.03125 56 36.53125 56 
Q 37.453125 56 38.578125 55.875 
Q 39.703125 55.765625 41.0625 55.515625 
z
" id="DejaVuSans-114"/>
      <path d="M 48.78125 52.59375 
L 48.78125 44.1875 
Q 44.96875 46.296875 41.140625 47.34375 
Q 37.3125 48.390625 33.40625 48.390625 
Q 24.65625 48.390625 19.8125 42.84375 
Q 14.984375 37.3125 14.984375 27.296875 
Q 14.984375 17.28125 19.8125 11.734375 
Q 24.65625 6.203125 33.40625 6.203125 
Q 37.3125 6.203125 41.140625 7.25 
Q 44.96875 8.296875 48.78125 10.40625 
L 48.78125 2.09375 
Q 45.015625 0.34375 40.984375 -0.53125 
Q 36.96875 -1.421875 32.421875 -1.421875 
Q 20.0625 -1.421875 12.78125 6.34375 
Q 5.515625 14.109375 5.515625 27.296875 
Q 5.515625 40.671875 12.859375 48.328125 
Q 20.21875 56 33.015625 56 
Q 37.15625 56 41.109375 55.140625 
Q 45.0625 54.296875 48.78125 52.59375 
z
" id="DejaVuSans-99"/>
      <path d="M 18.3125 70.21875 
L 18.3125 54.6875 
L 36.8125 54.6875 
L 36.8125 47.703125 
L 18.3125 47.703125 
L 18.3125 18.015625 
Q 18.3125 11.328125 20.140625 9.421875 
Q 21.96875 7.515625 27.59375 7.515625 
L 36.8125 7.515625 
L 36.8125 0 
L 27.59375 0 
Q 17.1875 0 13.234375 3.875 
Q 9.28125 7.765625 9.28125 18.015625 
L 9.28125 47.703125 
L 2.6875 47.703125 
L 2.6875 54.6875 
L 9.28125 54.6875 
L 9.28125 70.21875 
z
" id="DejaVuSans-116"/>
      <path d="M 8.5 21.578125 
L 8.5 54.6875 
L 17.484375 54.6875 
L 17.484375 21.921875 
Q 17.484375 14.15625 20.5 10.265625 
Q 23.53125 6.390625 29.59375 6.390625 
Q 36.859375 6.390625 41.078125 11.03125 
Q 45.3125 15.671875 45.3125 23.6875 
L 45.3125 54.6875 
L 54.296875 54.6875 
L 54.296875 0 
L 45.3125 0 
L 45.3125 8.40625 
Q 42.046875 3.421875 37.71875 1 
Q 33.40625 -1.421875 27.6875 -1.421875 
Q 18.265625 -1.421875 13.375 4.4375 
Q 8.5 10.296875 8.5 21.578125 
z
M 31.109375 56 
z
" id="DejaVuSans-117"/>
      <path d="M 11.71875 12.40625 
L 22.015625 12.40625 
L 22.015625 4 
L 14.015625 -11.625 
L 7.71875 -11.625 
L 11.71875 4 
z
" id="DejaVuSans-44"/>
      <path d="M 18.109375 8.203125 
L 18.109375 -20.796875 
L 9.078125 -20.796875 
L 9.078125 54.6875 
L 18.109375 54.6875 
L 18.109375 46.390625 
Q 20.953125 51.265625 25.265625 53.625 
Q 29.59375 56 35.59375 56 
Q 45.5625 56 51.78125 48.09375 
Q 58.015625 40.1875 58.015625 27.296875 
Q 58.015625 14.40625 51.78125 6.484375 
Q 45.5625 -1.421875 35.59375 -1.421875 
Q 29.59375 -1.421875 25.265625 0.953125 
Q 20.953125 3.328125 18.109375 8.203125 
z
M 48.6875 27.296875 
Q 48.6875 37.203125 44.609375 42.84375 
Q 40.53125 48.484375 33.40625 48.484375 
Q 26.265625 48.484375 22.1875 42.84375 
Q 18.109375 37.203125 18.109375 27.296875 
Q 18.109375 17.390625 22.1875 11.75 
Q 26.265625 6.109375 33.40625 6.109375 
Q 40.53125 6.109375 44.609375 11.75 
Q 48.6875 17.390625 48.6875 27.296875 
z
" id="DejaVuSans-112"/>
     </defs>
     <g transform="translate(17.619531 298.435375)rotate(-90)scale(0.17 -0.17)">
      <use xlink:href="#DejaVuSans-70"/>
      <use x="57.410156" xlink:href="#DejaVuSans-114"/>
      <use x="98.523438" xlink:href="#DejaVuSans-97"/>
      <use x="159.802734" xlink:href="#DejaVuSans-99"/>
      <use x="214.783203" xlink:href="#DejaVuSans-116"/>
      <use x="253.992188" xlink:href="#DejaVuSans-105"/>
      <use x="281.775391" xlink:href="#DejaVuSans-111"/>
      <use x="342.957031" xlink:href="#DejaVuSans-110"/>
      <use x="406.335938" xlink:href="#DejaVuSans-32"/>
      <use x="438.123047" xlink:href="#DejaVuSans-111"/>
      <use x="499.304688" xlink:href="#DejaVuSans-102"/>
      <use x="534.509766" xlink:href="#DejaVuSans-32"/>
      <use x="566.296875" xlink:href="#DejaVuSans-102"/>
      <use x="601.501953" xlink:href="#DejaVuSans-117"/>
      <use x="664.880859" xlink:href="#DejaVuSans-110"/>
      <use x="728.259766" xlink:href="#DejaVuSans-99"/>
      <use x="783.240234" xlink:href="#DejaVuSans-116"/>
      <use x="822.449219" xlink:href="#DejaVuSans-105"/>
      <use x="850.232422" xlink:href="#DejaVuSans-111"/>
      <use x="911.414062" xlink:href="#DejaVuSans-110"/>
      <use x="974.792969" xlink:href="#DejaVuSans-44"/>
      <use x="1006.580078" xlink:href="#DejaVuSans-116"/>
      <use x="1045.789062" xlink:href="#DejaVuSans-97"/>
      <use x="1107.068359" xlink:href="#DejaVuSans-114"/>
      <use x="1148.166016" xlink:href="#DejaVuSans-103"/>
      <use x="1211.642578" xlink:href="#DejaVuSans-101"/>
      <use x="1273.166016" xlink:href="#DejaVuSans-116"/>
      <use x="1312.375" xlink:href="#DejaVuSans-32"/>
      <use x="1344.162109" xlink:href="#DejaVuSans-112"/>
      <use x="1407.638672" xlink:href="#DejaVuSans-97"/>
      <use x="1468.917969" xlink:href="#DejaVuSans-105"/>
      <use x="1496.701172" xlink:href="#DejaVuSans-114"/>
      <use x="1537.814453" xlink:href="#DejaVuSans-115"/>
     </g>
    </g>
   </g>
   <g id="line2d_37">
    <defs>
     <path d="M 0 1.5 
C 0.397805 1.5 0.77937 1.341951 1.06066 1.06066 
C 1.341951 0.77937 1.5 0.397805 1.5 0 
C 1.5 -0.397805 1.341951 -0.77937 1.06066 -1.06066 
C 0.77937 -1.341951 0.397805 -1.5 0 -1.5 
C -0.397805 -1.5 -0.77937 -1.341951 -1.06066 -1.06066 
C -1.341951 -0.77937 -1.5 -0.397805 -1.5 0 
C -1.5 0.397805 -1.341951 0.77937 -1.06066 1.06066 
C -0.77937 1.341951 -0.397805 1.5 0 1.5 
z
" id="m3c8a880cfc" style="stroke:#000080;"/>
    </defs>
    <g>
     <use style="fill:#000080;stroke:#000080;" x="185.114038" xlink:href="#m3c8a880cfc" y="30.334099"/>
     <use style="fill:#000080;stroke:#000080;" x="185.114038" xlink:href="#m3c8a880cfc" y="30.334099"/>
    </g>
   </g>
   <g id="line2d_38">
    <path d="M 104.826449 298.944 
L 104.826449 297.890628 
L 105.951954 297.890628 
L 105.951954 295.783884 
L 116.019919 295.783884 
L 116.019919 294.203825 
L 116.914437 294.203825 
L 116.914437 293.150453 
L 119.097192 293.150453 
L 119.097192 292.097081 
L 119.602714 292.097081 
L 119.602714 291.570395 
L 120.093994 291.570395 
L 120.093994 290.517023 
L 120.571812 290.517023 
L 120.571812 288.936964 
L 121.489881 288.936964 
L 121.489881 286.303534 
L 121.712041 286.303534 
L 121.712041 284.723476 
L 122.573415 284.723476 
L 122.573415 280.509987 
L 124.743806 280.509987 
L 124.743806 279.456615 
L 125.470548 279.456615 
L 125.470548 278.403243 
L 125.647598 278.403243 
L 125.647598 275.243126 
L 125.822869 275.243126 
L 125.822869 273.136382 
L 126.168212 273.136382 
L 126.168212 272.609696 
L 126.50685 272.609696 
L 126.50685 271.556324 
L 126.673734 271.556324 
L 126.673734 269.449579 
L 127.165014 269.449579 
L 127.165014 267.342835 
L 127.48501 267.342835 
L 127.48501 266.816149 
L 127.642832 266.816149 
L 127.642832 263.656033 
L 129.002426 263.656033 
L 129.002426 263.129347 
L 129.147151 263.129347 
L 129.147151 258.915858 
L 129.714332 258.915858 
L 129.714332 257.862486 
L 130.796184 257.862486 
L 130.796184 257.3358 
L 130.926816 257.3358 
L 130.926816 256.809114 
L 131.565689 256.809114 
L 131.565689 256.282427 
L 131.690703 256.282427 
L 131.690703 255.755741 
L 133.124876 255.755741 
L 133.124876 255.229055 
L 133.46572 255.229055 
L 133.46572 254.175683 
L 133.689303 254.175683 
L 133.689303 253.122311 
L 134.343353 253.122311 
L 134.343353 249.962195 
L 135.780341 249.962195 
L 135.878591 248.908822 
L 136.361705 248.908822 
L 136.361705 248.382136 
L 136.924311 248.382136 
L 137.016339 244.695334 
L 137.37967 244.695334 
L 137.37967 244.168648 
L 137.735587 244.168648 
L 137.735587 243.641962 
L 138.084384 243.641962 
L 138.084384 243.115275 
L 138.256201 243.115275 
L 138.256201 242.588589 
L 138.426341 242.588589 
L 138.426341 242.061903 
L 138.927025 242.061903 
L 139.009092 241.008531 
L 139.493548 241.008531 
L 139.572998 239.428473 
L 140.348205 239.428473 
L 140.348205 238.375101 
L 140.64889 238.375101 
L 140.64889 237.848415 
L 140.79731 237.848415 
L 140.79731 237.321729 
L 140.944478 237.321729 
L 140.944478 236.795043 
L 141.378673 236.795043 
L 141.378673 236.268356 
L 141.591783 236.268356 
L 141.662245 233.10824 
L 141.732423 233.10824 
L 141.732423 232.054868 
L 141.941279 232.054868 
L 141.941279 231.001496 
L 142.486301 231.001496 
L 142.486301 230.47481 
L 142.619936 230.47481 
L 142.686372 228.894751 
L 142.752555 228.894751 
L 142.818488 226.261321 
L 142.884173 226.261321 
L 142.949611 225.207949 
L 143.014805 225.207949 
L 143.079756 223.627891 
L 143.208936 223.627891 
L 143.208936 223.101204 
L 143.337167 223.101204 
L 143.40093 218.887716 
L 143.464461 218.887716 
L 143.527762 217.834344 
L 143.590833 217.834344 
L 143.653678 216.780971 
L 143.716296 216.780971 
L 143.778691 215.200913 
L 143.964547 215.200913 
L 144.026061 213.620855 
L 144.087359 213.620855 
L 144.148442 210.987425 
L 144.330419 210.987425 
L 144.330419 207.827308 
L 144.45069 207.827308 
L 144.510517 205.193878 
L 144.688773 205.193878 
L 144.747789 203.087133 
L 144.806606 203.087133 
L 144.865226 200.980389 
L 144.923649 200.980389 
L 144.981877 197.293586 
L 145.039911 197.293586 
L 145.039911 196.240214 
L 145.155404 196.240214 
L 145.155404 194.660156 
L 145.270136 194.660156 
L 145.270136 193.606784 
L 145.440832 193.606784 
L 145.440832 193.080098 
L 145.553708 193.080098 
L 145.553708 190.973354 
L 145.665858 190.973354 
L 145.665858 189.919981 
L 145.777292 189.919981 
L 145.832743 187.286551 
L 146.052799 187.286551 
L 146.161795 184.126434 
L 146.270114 184.126434 
L 146.270114 183.073062 
L 146.538004 183.073062 
L 146.591092 179.38626 
L 146.696785 179.38626 
L 146.801841 176.226143 
L 146.958248 176.226143 
L 147.061745 175.172771 
L 147.113265 175.172771 
L 147.164632 170.959282 
L 147.4697 170.959282 
L 147.52003 167.27248 
L 147.71991 167.27248 
L 147.71991 164.63905 
L 148.064279 164.63905 
L 148.161434 163.058991 
L 148.306159 163.058991 
L 148.354135 156.738758 
L 148.449693 156.738758 
L 148.449693 156.212072 
L 148.686322 156.212072 
L 148.686322 155.685386 
L 149.012299 155.685386 
L 149.058374 149.365153 
L 149.15016 149.365153 
L 149.15016 145.678351 
L 149.332295 145.678351 
L 149.422654 144.624978 
L 149.690956 144.624978 
L 149.779481 141.991548 
L 149.867558 141.991548 
L 149.867558 137.778059 
L 150.042389 137.778059 
L 150.129152 136.198001 
L 150.172372 136.198001 
L 150.258492 134.091257 
L 150.301393 134.091257 
L 150.38688 129.877768 
L 150.47195 129.877768 
L 150.556607 128.824396 
L 150.640855 128.824396 
L 150.724698 126.717652 
L 150.891184 126.717652 
L 150.932558 125.66428 
L 151.015013 125.66428 
L 151.097081 122.504163 
L 151.178764 122.504163 
L 151.260066 116.710616 
L 151.461678 116.710616 
L 151.461678 114.603872 
L 151.779487 114.603872 
L 151.818809 110.390383 
L 151.975216 110.390383 
L 152.052897 109.337011 
L 152.130233 109.337011 
L 152.168773 107.230267 
L 152.436193 107.230267 
L 152.436193 105.123522 
L 152.587184 105.123522 
L 152.662192 101.963406 
L 152.736878 101.963406 
L 152.774102 98.276603 
L 152.848312 98.276603 
L 152.848312 97.223231 
L 152.995791 97.223231 
L 153.032466 96.169859 
L 153.214697 96.169859 
L 153.287059 93.536429 
L 153.430889 93.536429 
L 153.502361 90.902998 
L 153.609024 90.902998 
L 153.715038 84.582765 
L 153.820412 84.582765 
L 153.925152 79.315904 
L 153.994632 79.315904 
L 154.029268 77.735846 
L 154.439623 77.735846 
L 154.439623 75.102416 
L 154.641235 75.102416 
L 154.641235 73.522358 
L 154.873541 73.522358 
L 154.972161 70.888927 
L 155.004911 70.888927 
L 155.004911 69.835555 
L 155.135299 69.835555 
L 155.232454 66.675439 
L 155.361158 66.675439 
L 155.361158 65.09538 
L 155.83551 65.09538 
L 155.928852 62.988636 
L 156.114049 62.988636 
L 156.114049 61.935264 
L 156.357959 61.935264 
L 156.357959 60.881892 
L 156.628341 60.881892 
L 156.717545 59.82852 
L 156.98245 59.82852 
L 156.98245 58.775147 
L 157.098907 58.775147 
L 157.098907 58.248461 
L 157.214591 58.248461 
L 157.214591 57.721775 
L 158.625992 57.721775 
L 158.625992 57.195089 
L 159.931669 57.195089 
L 159.931669 56.668403 
L 160.513841 56.668403 
L 160.513841 56.141717 
L 160.774311 56.141717 
L 160.774311 55.615031 
L 161.146363 55.615031 
L 161.146363 55.088345 
L 161.329454 55.088345 
L 161.329454 54.561659 
L 162.854457 54.561659 
L 162.854457 54.034973 
L 163.041197 54.034973 
L 163.041197 53.508287 
L 163.847782 53.508287 
L 163.847782 52.9816 
L 164.004716 52.9816 
L 164.004716 52.454914 
L 164.543127 52.454914 
L 164.543127 51.928228 
L 164.880672 51.928228 
L 164.880672 51.401542 
L 165.065412 51.401542 
L 165.065412 50.874856 
L 165.7501 50.874856 
L 165.7501 50.34817 
L 166.510705 50.34817 
L 166.6119 49.294798 
L 166.74592 49.294798 
L 166.74592 48.241426 
L 168.400474 48.241426 
L 168.400474 47.71474 
L 168.596677 47.71474 
L 168.596677 47.188054 
L 169.085039 47.188054 
L 169.085039 46.661368 
L 169.316986 46.661368 
L 169.316986 45.081309 
L 171.160157 45.081309 
L 171.198983 44.027937 
L 171.796233 44.027937 
L 171.846131 42.974565 
L 173.326137 42.974565 
L 173.349008 41.921193 
L 173.530906 41.921193 
L 173.530906 41.394507 
L 173.844732 41.394507 
L 173.844732 40.867821 
L 174.261802 40.867821 
L 174.261802 40.341135 
L 174.445204 40.341135 
L 174.455933 39.287762 
L 175.036065 39.287762 
L 175.036065 38.761076 
L 175.232072 38.761076 
L 175.232072 38.23439 
L 176.593204 38.23439 
L 176.593204 37.707704 
L 177.153401 37.707704 
L 177.153401 37.181018 
L 177.417845 37.181018 
L 177.417845 36.654332 
L 178.403079 36.654332 
L 178.403079 36.127646 
L 179.057758 36.127646 
L 179.057758 35.60096 
L 179.311276 35.60096 
L 179.311276 35.074274 
L 180.594385 35.074274 
L 180.594385 34.547588 
L 181.282137 34.547588 
L 181.282137 34.020902 
L 181.612545 34.020902 
L 181.612545 33.494215 
L 182.124367 33.494215 
L 182.124367 32.967529 
L 182.581258 32.967529 
L 182.581258 32.440843 
L 183.670549 32.440843 
L 183.670549 31.914157 
L 183.89671 31.914157 
L 183.89671 31.387471 
L 184.382961 31.387471 
L 184.382961 30.860785 
L 185.114038 30.860785 
L 185.114038 30.334099 
L 338.688 30.334099 
L 338.688 30.334099 
" style="fill:none;stroke:#000080;stroke-linecap:square;stroke-width:1.5;"/>
   </g>
   <g id="line2d_39">
    <defs>
     <path d="M 0 6 
C 1.591219 6 3.117479 5.367802 4.242641 4.242641 
C 5.367802 3.117479 6 1.591219 6 0 
C 6 -1.591219 5.367802 -3.117479 4.242641 -4.242641 
C 3.117479 -5.367802 1.591219 -6 0 -6 
C -1.591219 -6 -3.117479 -5.367802 -4.242641 -4.242641 
C -5.367802 -3.117479 -6 -1.591219 -6 0 
C -6 1.591219 -5.367802 3.117479 -4.242641 4.242641 
C -3.117479 5.367802 -1.591219 6 0 6 
z
" id="m01c73f6e2f" style="stroke:#000080;stroke-width:1.5;"/>
    </defs>
    <g>
     <use style="fill-opacity:0;stroke:#000080;stroke-width:1.5;" x="144.923649" xlink:href="#m01c73f6e2f" y="200.453703"/>
     <use style="fill-opacity:0;stroke:#000080;stroke-width:1.5;" x="159.931669" xlink:href="#m01c73f6e2f" y="56.668403"/>
     <use style="fill-opacity:0;stroke:#000080;stroke-width:1.5;" x="185.114038" xlink:href="#m01c73f6e2f" y="30.334099"/>
     <use style="fill-opacity:0;stroke:#000080;stroke-width:1.5;" x="185.114038" xlink:href="#m01c73f6e2f" y="30.334099"/>
     <use style="fill-opacity:0;stroke:#000080;stroke-width:1.5;" x="338.688" xlink:href="#m01c73f6e2f" y="30.334099"/>
    </g>
   </g>
   <g id="line2d_40">
    <path style="fill:none;stroke:#000080;stroke-linecap:square;stroke-width:1.5;"/>
    <g/>
   </g>
   <g id="line2d_41">
    <defs>
     <path d="M 0 1.5 
C 0.397805 1.5 0.77937 1.341951 1.06066 1.06066 
C 1.341951 0.77937 1.5 0.397805 1.5 0 
C 1.5 -0.397805 1.341951 -0.77937 1.06066 -1.06066 
C 0.77937 -1.341951 0.397805 -1.5 0 -1.5 
C -0.397805 -1.5 -0.77937 -1.341951 -1.06066 -1.06066 
C -1.341951 -0.77937 -1.5 -0.397805 -1.5 0 
C -1.5 0.397805 -1.341951 0.77937 -1.06066 1.06066 
C -0.77937 1.341951 -0.397805 1.5 0 1.5 
z
" id="m575821ba94" style="stroke:#ff0000;"/>
    </defs>
    <g>
     <use style="fill:#ff0000;stroke:#ff0000;" x="171.683438" xlink:href="#m575821ba94" y="30.334099"/>
     <use style="fill:#ff0000;stroke:#ff0000;" x="171.683438" xlink:href="#m575821ba94" y="30.334099"/>
    </g>
   </g>
   <g id="line2d_42">
    <path d="M 88.846997 298.944 
L 88.846997 294.203825 
L 91.535274 294.203825 
L 91.535274 292.623767 
L 92.73846 292.623767 
L 92.73846 292.097081 
L 93.863965 292.097081 
L 93.863965 291.043709 
L 95.918017 291.043709 
L 95.918017 289.990337 
L 96.86091 289.990337 
L 96.86091 289.463651 
L 97.755429 289.463651 
L 97.755429 288.936964 
L 98.606294 288.936964 
L 98.606294 286.303534 
L 99.41757 286.303534 
L 99.41757 285.776848 
L 100.192776 285.776848 
L 100.192776 284.19679 
L 100.934985 284.19679 
L 100.934985 282.090045 
L 101.646892 282.090045 
L 101.646892 281.563359 
L 102.330873 281.563359 
L 102.330873 275.769812 
L 102.989037 275.769812 
L 102.989037 275.243126 
L 103.623262 275.243126 
L 103.623262 273.136382 
L 104.23523 273.136382 
L 104.23523 271.556324 
L 104.826449 271.556324 
L 104.826449 270.502952 
L 105.398279 270.502952 
L 105.398279 262.60266 
L 105.951954 262.60266 
L 105.951954 262.075974 
L 106.48859 262.075974 
L 106.48859 261.549288 
L 107.514726 261.549288 
L 107.514726 255.755741 
L 108.006005 255.755741 
L 108.006005 254.175683 
L 108.483824 254.175683 
L 108.483824 253.648997 
L 108.948899 253.648997 
L 108.948899 249.962195 
L 109.843417 249.962195 
L 109.843417 247.328764 
L 110.274038 247.328764 
L 110.274038 246.802078 
L 110.694282 246.802078 
L 110.694282 246.275392 
L 111.505558 246.275392 
L 111.505558 238.375101 
L 111.897469 238.375101 
L 111.897469 237.321729 
L 112.280765 237.321729 
L 112.280765 236.268356 
L 112.655818 236.268356 
L 112.655818 234.161612 
L 113.022974 234.161612 
L 113.022974 233.634926 
L 113.382559 233.634926 
L 113.382559 230.47481 
L 113.73488 230.47481 
L 113.73488 228.894751 
L 114.080224 228.894751 
L 114.080224 227.841379 
L 114.418861 227.841379 
L 114.418861 224.154577 
L 115.397021 224.154577 
L 115.397021 223.627891 
L 116.019919 223.627891 
L 116.019919 222.574518 
L 116.323218 222.574518 
L 116.323218 220.467774 
L 116.621333 220.467774 
L 116.621333 217.307658 
L 117.486268 217.307658 
L 117.486268 215.727599 
L 117.765302 215.727599 
L 117.765302 214.674227 
L 118.039942 214.674227 
L 118.039942 210.987425 
L 118.310324 210.987425 
L 118.310324 210.460738 
L 118.576578 210.460738 
L 118.576578 206.773936 
L 119.097192 206.773936 
L 119.097192 206.24725 
L 119.351785 206.24725 
L 119.351785 204.140506 
L 119.602714 204.140506 
L 119.602714 203.087133 
L 120.093994 203.087133 
L 120.093994 200.980389 
L 120.33454 200.980389 
L 120.33454 200.453703 
L 120.8059 200.453703 
L 120.8059 199.400331 
L 121.036887 199.400331 
L 121.036887 195.186842 
L 121.264855 195.186842 
L 121.264855 194.13347 
L 121.489881 194.13347 
L 121.489881 193.080098 
L 121.712041 193.080098 
L 121.712041 192.553412 
L 121.931406 192.553412 
L 121.931406 192.026726 
L 122.148045 192.026726 
L 122.148045 191.50004 
L 122.362027 191.50004 
L 122.362027 188.866609 
L 122.573415 188.866609 
L 122.573415 187.813237 
L 122.782271 187.813237 
L 122.782271 187.286551 
L 122.988655 187.286551 
L 122.988655 183.599748 
L 123.192626 183.599748 
L 123.192626 183.073062 
L 123.593547 183.073062 
L 123.593547 180.966318 
L 123.790603 180.966318 
L 123.790603 179.38626 
L 125.110962 179.38626 
L 125.110962 178.332888 
L 125.822869 178.332888 
L 125.822869 173.066027 
L 125.996395 173.066027 
L 125.996395 172.539341 
L 126.168212 172.539341 
L 126.168212 171.485969 
L 126.338353 171.485969 
L 126.338353 170.959282 
L 126.50685 170.959282 
L 126.50685 168.325852 
L 127.002787 168.325852 
L 127.002787 167.799166 
L 127.325746 167.799166 
L 127.325746 166.745794 
L 127.48501 166.745794 
L 127.48501 164.112363 
L 127.642832 164.112363 
L 127.642832 163.058991 
L 127.799239 163.058991 
L 127.799239 160.952247 
L 127.954256 160.952247 
L 127.954256 160.425561 
L 128.107907 160.425561 
L 128.107907 158.318817 
L 128.260216 158.318817 
L 128.260216 157.79213 
L 128.709321 157.79213 
L 128.709321 155.1587 
L 129.147151 155.1587 
L 129.147151 154.632014 
L 129.290685 154.632014 
L 129.290685 151.998584 
L 129.433047 151.998584 
L 129.433047 150.945211 
L 129.714332 150.945211 
L 129.714332 150.418525 
L 129.991152 150.418525 
L 129.991152 149.891839 
L 130.127931 149.891839 
L 130.127931 148.838467 
L 130.664567 148.838467 
L 130.664567 148.311781 
L 130.926816 148.311781 
L 130.926816 147.258409 
L 131.690703 147.258409 
L 131.690703 144.098292 
L 131.938072 144.098292 
L 131.938072 143.571606 
L 132.181982 143.571606 
L 132.181982 142.518234 
L 132.422528 142.518234 
L 132.422528 140.41149 
L 132.541568 140.41149 
L 132.541568 138.831432 
L 132.659801 138.831432 
L 132.659801 137.778059 
L 132.777237 137.778059 
L 132.777237 136.724687 
L 133.009765 136.724687 
L 133.009765 129.351082 
L 133.239232 129.351082 
L 133.239232 128.824396 
L 133.352844 128.824396 
L 133.352844 127.771024 
L 133.57787 127.771024 
L 133.57787 123.030849 
L 133.689303 123.030849 
L 133.800029 121.450791 
L 134.55603 121.450791 
L 134.661403 120.397419 
L 134.973757 120.397419 
L 134.973757 119.870733 
L 135.178927 119.870733 
L 135.280614 117.237302 
L 135.381712 117.237302 
L 135.381712 116.18393 
L 135.681535 116.18393 
L 135.780341 113.5505 
L 135.878591 113.5505 
L 135.97629 112.497128 
L 136.170062 112.497128 
L 136.170062 111.970441 
L 136.738785 111.970441 
L 136.738785 111.443755 
L 136.924311 111.443755 
L 137.016339 109.337011 
L 137.37967 109.337011 
L 137.469333 108.283639 
L 137.558536 108.283639 
L 137.558536 106.176895 
L 137.823442 106.176895 
L 137.823442 103.016778 
L 138.084384 103.016778 
L 138.170504 99.329976 
L 138.256201 99.329976 
L 138.256201 98.803289 
L 138.426341 98.803289 
L 138.510793 96.169859 
L 138.594838 96.169859 
L 138.67848 91.429684 
L 138.927025 91.429684 
L 138.927025 89.849626 
L 139.090775 89.849626 
L 139.172077 88.796254 
L 139.333553 88.796254 
L 139.333553 88.269568 
L 139.493548 88.269568 
L 139.572998 85.636137 
L 139.652088 85.636137 
L 139.652088 81.949335 
L 141.090414 81.949335 
L 141.090414 81.422649 
L 141.235139 81.422649 
L 141.235139 79.842591 
L 141.45 79.842591 
L 141.45 74.57573 
L 142.553247 74.57573 
L 142.553247 74.049044 
L 142.884173 74.049044 
L 142.884173 72.468985 
L 143.144465 72.468985 
L 143.144465 70.888927 
L 143.590833 70.888927 
L 143.590833 69.308869 
L 144.209312 69.308869 
L 144.209312 68.782183 
L 144.330419 68.782183 
L 144.330419 68.255497 
L 144.45069 68.255497 
L 144.45069 67.728811 
L 144.629556 67.728811 
L 144.688773 66.675439 
L 145.212864 66.675439 
L 145.212864 65.09538 
L 145.777292 65.09538 
L 145.777292 64.568694 
L 146.052799 64.568694 
L 146.052799 64.042008 
L 146.377764 64.042008 
L 146.431341 60.881892 
L 147.620256 60.881892 
L 147.620256 60.355206 
L 147.769524 60.355206 
L 147.769524 59.82852 
L 148.966103 59.82852 
L 148.966103 59.301833 
L 149.467659 59.301833 
L 149.467659 58.775147 
L 150.085825 58.775147 
L 150.085825 56.668403 
L 150.640855 56.668403 
L 150.640855 56.141717 
L 152.587184 56.141717 
L 152.587184 55.615031 
L 153.785358 55.615031 
L 153.785358 55.088345 
L 154.607795 55.088345 
L 154.607795 54.561659 
L 156.568618 54.561659 
L 156.568618 54.034973 
L 158.546057 54.034973 
L 158.546057 53.508287 
L 158.811096 53.508287 
L 158.811096 52.9816 
L 159.507213 52.9816 
L 159.507213 52.454914 
L 160.656397 52.454914 
L 160.656397 51.928228 
L 162.979172 51.928228 
L 162.979172 51.401542 
L 163.50953 51.401542 
L 163.50953 50.34817 
L 163.847782 50.34817 
L 163.847782 49.821484 
L 164.102088 49.821484 
L 164.179597 48.768112 
L 164.562052 48.768112 
L 164.599841 47.71474 
L 164.899235 47.71474 
L 164.899235 46.661368 
L 165.266391 46.661368 
L 165.266391 46.134681 
L 165.55465 46.134681 
L 165.55465 45.081309 
L 165.785402 45.081309 
L 165.785402 44.554623 
L 166.013141 44.554623 
L 166.013141 43.501251 
L 166.510705 43.501251 
L 166.510705 40.867821 
L 168.232714 40.867821 
L 168.232714 39.287762 
L 169.403177 39.287762 
L 169.403177 37.707704 
L 169.645097 37.707704 
L 169.645097 37.181018 
L 169.813865 37.181018 
L 169.813865 31.914157 
L 171.683438 31.914157 
L 171.683438 30.334099 
L 338.688 30.334099 
L 338.688 30.334099 
" style="fill:none;stroke:#ff0000;stroke-linecap:square;stroke-width:1.5;"/>
   </g>
   <g id="line2d_43">
    <defs>
     <path d="M 0 -6 
L -5.196152 -3 
L -5.196152 3 
L -0 6 
L 5.196152 3 
L 5.196152 -3 
z
" id="mbf1ea13497" style="stroke:#ff0000;stroke-linejoin:miter;stroke-width:1.5;"/>
    </defs>
    <g>
     <use style="fill-opacity:0;stroke:#ff0000;stroke-linejoin:miter;stroke-width:1.5;" x="132.422528" xlink:href="#mbf1ea13497" y="142.518234"/>
     <use style="fill-opacity:0;stroke:#ff0000;stroke-linejoin:miter;stroke-width:1.5;" x="171.683438" xlink:href="#mbf1ea13497" y="31.914157"/>
     <use style="fill-opacity:0;stroke:#ff0000;stroke-linejoin:miter;stroke-width:1.5;" x="171.683438" xlink:href="#mbf1ea13497" y="30.334099"/>
     <use style="fill-opacity:0;stroke:#ff0000;stroke-linejoin:miter;stroke-width:1.5;" x="171.683438" xlink:href="#mbf1ea13497" y="30.334099"/>
     <use style="fill-opacity:0;stroke:#ff0000;stroke-linejoin:miter;stroke-width:1.5;" x="338.688" xlink:href="#mbf1ea13497" y="30.334099"/>
    </g>
   </g>
   <g id="line2d_44">
    <path style="fill:none;stroke:#ff0000;stroke-linecap:square;stroke-width:1.5;"/>
    <g/>
   </g>
   <g id="line2d_45">
    <defs>
     <path d="M 0 1.5 
C 0.397805 1.5 0.77937 1.341951 1.06066 1.06066 
C 1.341951 0.77937 1.5 0.397805 1.5 0 
C 1.5 -0.397805 1.341951 -0.77937 1.06066 -1.06066 
C 0.77937 -1.341951 0.397805 -1.5 0 -1.5 
C -0.397805 -1.5 -0.77937 -1.341951 -1.06066 -1.06066 
C -1.341951 -0.77937 -1.5 -0.397805 -1.5 0 
C -1.5 0.397805 -1.341951 0.77937 -1.06066 1.06066 
C -0.77937 1.341951 -0.397805 1.5 0 1.5 
z
" id="m5e5f4c8e57" style="stroke:#bebebe;"/>
    </defs>
    <g>
     <use style="fill:#bebebe;stroke:#bebebe;" x="160.321935" xlink:href="#m5e5f4c8e57" y="30.334099"/>
     <use style="fill:#bebebe;stroke:#bebebe;" x="160.321935" xlink:href="#m5e5f4c8e57" y="30.334099"/>
    </g>
   </g>
   <g id="line2d_46">
    <path d="M 90.242884 298.944 
L 90.242884 286.83022 
L 94.921215 286.83022 
L 94.921215 285.250162 
L 97.755429 285.250162 
L 97.755429 284.723476 
L 99.41757 284.723476 
L 99.41757 239.955159 
L 100.934985 239.955159 
L 100.934985 236.268356 
L 102.330873 236.268356 
L 102.330873 228.368065 
L 104.23523 228.368065 
L 104.23523 227.841379 
L 104.826449 227.841379 
L 104.826449 227.314693 
L 105.398279 227.314693 
L 105.398279 215.727599 
L 107.514726 215.727599 
L 107.514726 215.200913 
L 108.948899 215.200913 
L 108.948899 214.674227 
L 110.694282 214.674227 
L 110.694282 203.613819 
L 111.505558 203.613819 
L 111.505558 201.507075 
L 111.897469 201.507075 
L 111.897469 199.927017 
L 113.022974 199.927017 
L 113.022974 194.13347 
L 113.382559 194.13347 
L 113.382559 192.553412 
L 113.73488 192.553412 
L 113.73488 192.026726 
L 114.751048 192.026726 
L 114.751048 189.393295 
L 115.077025 189.393295 
L 115.077025 173.592713 
L 115.397021 173.592713 
L 115.397021 173.066027 
L 115.711251 173.066027 
L 115.711251 172.012655 
L 116.019919 172.012655 
L 116.019919 162.532305 
L 116.323218 162.532305 
L 116.323218 150.418525 
L 116.621333 150.418525 
L 116.621333 149.365153 
L 116.914437 149.365153 
L 116.914437 147.785095 
L 117.202696 147.785095 
L 117.202696 144.098292 
L 117.486268 144.098292 
L 117.486268 143.04492 
L 117.765302 143.04492 
L 117.765302 141.464862 
L 118.039942 141.464862 
L 118.039942 128.29771 
L 118.310324 128.29771 
L 118.310324 123.557535 
L 118.576578 123.557535 
L 118.576578 121.977477 
L 118.838828 121.977477 
L 118.838828 121.450791 
L 119.351785 121.450791 
L 119.351785 104.07015 
L 119.602714 104.07015 
L 119.602714 85.109451 
L 120.093994 85.109451 
L 120.093994 81.949335 
L 120.571812 81.949335 
L 120.571812 64.568694 
L 121.489881 64.568694 
L 121.489881 64.042008 
L 121.712041 64.042008 
L 121.712041 62.988636 
L 122.362027 62.988636 
L 122.362027 62.46195 
L 124.368753 62.46195 
L 124.368753 60.355206 
L 125.110962 60.355206 
L 125.110962 56.141717 
L 126.168212 56.141717 
L 126.168212 55.615031 
L 129.290685 55.615031 
L 129.290685 55.088345 
L 130.664567 55.088345 
L 130.664567 54.561659 
L 131.938072 54.561659 
L 131.938072 54.034973 
L 132.541568 54.034973 
L 132.541568 53.508287 
L 133.124876 53.508287 
L 133.124876 52.9816 
L 133.689303 52.9816 
L 133.689303 52.454914 
L 134.236034 52.454914 
L 134.236034 51.401542 
L 134.766144 51.401542 
L 134.766144 49.294798 
L 151.897188 49.294798 
L 151.897188 48.241426 
L 152.511852 48.241426 
L 152.511852 47.71474 
L 153.032466 47.71474 
L 153.105587 45.607995 
L 154.269814 45.607995 
L 154.269814 45.081309 
L 154.707925 45.081309 
L 154.707925 44.554623 
L 154.93935 44.554623 
L 154.93935 44.027937 
L 156.598505 44.027937 
L 156.598505 43.501251 
L 157.156845 43.501251 
L 157.156845 42.974565 
L 157.272146 42.974565 
L 157.300853 38.761076 
L 157.697862 38.761076 
L 157.697862 38.23439 
L 158.003578 38.23439 
L 158.003578 37.707704 
L 158.304027 37.707704 
L 158.304027 37.181018 
L 158.438903 37.181018 
L 158.51933 35.60096 
L 158.968208 35.60096 
L 159.020266 34.547588 
L 159.303838 34.547588 
L 159.303838 34.020902 
L 159.481921 34.020902 
L 159.481921 32.967529 
L 159.608019 32.967529 
L 159.608019 31.914157 
L 159.758143 31.914157 
L 159.758143 31.387471 
L 159.906985 31.387471 
L 159.906985 30.860785 
L 160.321935 30.860785 
L 160.321935 30.334099 
L 338.688 30.334099 
L 338.688 30.334099 
" style="fill:none;stroke:#bebebe;stroke-linecap:square;stroke-width:1.5;"/>
   </g>
   <g id="line2d_47">
    <defs>
     <path d="M 0 0 
L -6 -0 
M 0 0 
L 3 4.8 
M 0 0 
L 3 -4.8 
" id="m9f4cedbcf7" style="stroke:#bebebe;stroke-width:1.5;"/>
    </defs>
    <g>
     <use style="fill-opacity:0;stroke:#bebebe;stroke-width:1.5;" x="119.602714" xlink:href="#m9f4cedbcf7" y="104.07015"/>
     <use style="fill-opacity:0;stroke:#bebebe;stroke-width:1.5;" x="160.321935" xlink:href="#m9f4cedbcf7" y="30.860785"/>
     <use style="fill-opacity:0;stroke:#bebebe;stroke-width:1.5;" x="160.321935" xlink:href="#m9f4cedbcf7" y="30.334099"/>
     <use style="fill-opacity:0;stroke:#bebebe;stroke-width:1.5;" x="160.321935" xlink:href="#m9f4cedbcf7" y="30.334099"/>
     <use style="fill-opacity:0;stroke:#bebebe;stroke-width:1.5;" x="338.688" xlink:href="#m9f4cedbcf7" y="30.334099"/>
    </g>
   </g>
   <g id="line2d_48">
    <path style="fill:none;stroke:#bebebe;stroke-linecap:square;stroke-width:1.5;"/>
    <g/>
   </g>
   <g id="line2d_49">
    <defs>
     <path d="M 0 1.5 
C 0.397805 1.5 0.77937 1.341951 1.06066 1.06066 
C 1.341951 0.77937 1.5 0.397805 1.5 0 
C 1.5 -0.397805 1.341951 -0.77937 1.06066 -1.06066 
C 0.77937 -1.341951 0.397805 -1.5 0 -1.5 
C -0.397805 -1.5 -0.77937 -1.341951 -1.06066 -1.06066 
C -1.341951 -0.77937 -1.5 -0.397805 -1.5 0 
C -1.5 0.397805 -1.341951 0.77937 -1.06066 1.06066 
C -0.77937 1.341951 -0.397805 1.5 0 1.5 
z
" id="mdbbf26f4ac" style="stroke:#6495ed;"/>
    </defs>
    <g>
     <use style="fill:#6495ed;stroke:#6495ed;" x="185.032355" xlink:href="#mdbbf26f4ac" y="30.334099"/>
     <use style="fill:#6495ed;stroke:#6495ed;" x="185.032355" xlink:href="#mdbbf26f4ac" y="30.334099"/>
    </g>
   </g>
   <g id="line2d_50">
    <path d="M 90.242884 298.944 
L 90.242884 285.250162 
L 94.921215 285.250162 
L 94.921215 283.143418 
L 95.918017 283.143418 
L 95.918017 282.616732 
L 97.755429 282.616732 
L 97.755429 282.090045 
L 99.41757 282.090045 
L 99.41757 238.375101 
L 100.934985 238.375101 
L 100.934985 235.74167 
L 102.330873 235.74167 
L 102.330873 222.047832 
L 104.23523 222.047832 
L 104.23523 219.941088 
L 104.826449 219.941088 
L 104.826449 218.36103 
L 105.398279 218.36103 
L 105.398279 205.720564 
L 107.514726 205.720564 
L 107.514726 205.193878 
L 108.948899 205.193878 
L 108.948899 204.667192 
L 110.694282 204.667192 
L 110.694282 195.713528 
L 111.505558 195.713528 
L 111.505558 193.606784 
L 111.897469 193.606784 
L 111.897469 191.50004 
L 113.022974 191.50004 
L 113.022974 184.653121 
L 113.382559 184.653121 
L 113.382559 183.599748 
L 113.73488 183.599748 
L 113.73488 183.073062 
L 114.751048 183.073062 
L 114.751048 181.493004 
L 115.077025 181.493004 
L 115.077025 164.63905 
L 115.397021 164.63905 
L 115.397021 163.058991 
L 115.711251 163.058991 
L 115.711251 161.478933 
L 116.019919 161.478933 
L 116.019919 154.632014 
L 116.323218 154.632014 
L 116.323218 143.04492 
L 116.914437 143.04492 
L 116.914437 141.991548 
L 117.202696 141.991548 
L 117.202696 138.831432 
L 118.039942 138.831432 
L 118.039942 124.084221 
L 118.310324 124.084221 
L 118.310324 119.344047 
L 118.576578 119.344047 
L 118.576578 117.763988 
L 118.838828 117.763988 
L 118.838828 116.710616 
L 119.351785 116.710616 
L 119.351785 100.383348 
L 119.602714 100.383348 
L 119.602714 83.529393 
L 120.093994 83.529393 
L 120.093994 81.422649 
L 120.33454 81.422649 
L 120.33454 80.895963 
L 120.571812 80.895963 
L 120.571812 65.09538 
L 121.489881 65.09538 
L 121.489881 64.042008 
L 122.362027 64.042008 
L 122.362027 62.46195 
L 124.368753 62.46195 
L 124.368753 60.355206 
L 125.110962 60.355206 
L 125.110962 56.668403 
L 127.002787 56.668403 
L 127.002787 56.141717 
L 128.560901 56.141717 
L 128.560901 55.615031 
L 129.290685 55.615031 
L 129.290685 55.088345 
L 130.664567 55.088345 
L 130.664567 54.561659 
L 133.124876 54.561659 
L 133.124876 54.034973 
L 134.236034 54.034973 
L 134.236034 52.454914 
L 134.766144 52.454914 
L 134.766144 49.821484 
L 147.570215 49.821484 
L 147.620256 48.768112 
L 147.818997 48.768112 
L 147.917524 47.188054 
L 152.398241 47.188054 
L 152.398241 46.661368 
L 154.439623 46.661368 
L 154.439623 46.134681 
L 154.807483 46.134681 
L 154.807483 45.607995 
L 154.972161 45.607995 
L 154.972161 44.554623 
L 155.425155 44.554623 
L 155.425155 44.027937 
L 156.021696 44.027937 
L 156.021696 43.501251 
L 156.144725 43.501251 
L 156.144725 42.974565 
L 156.508689 42.974565 
L 156.508689 41.921193 
L 157.156845 41.921193 
L 157.156845 41.394507 
L 157.781772 41.394507 
L 157.781772 40.867821 
L 167.368818 40.867821 
L 167.368818 40.341135 
L 167.608702 40.341135 
L 167.672117 39.287762 
L 167.735303 39.287762 
L 167.829655 37.181018 
L 167.923499 37.181018 
L 167.923499 36.654332 
L 168.400474 36.654332 
L 168.400474 36.127646 
L 169.51744 36.127646 
L 169.51744 35.60096 
L 169.645097 35.60096 
L 169.645097 34.547588 
L 169.799863 34.547588 
L 169.855803 33.494215 
L 169.911564 33.494215 
L 169.911564 32.967529 
L 170.96472 32.967529 
L 170.96472 31.914157 
L 171.455636 31.914157 
L 171.455636 31.387471 
L 175.527057 31.387471 
L 175.527057 30.860785 
L 185.032355 30.860785 
L 185.032355 30.334099 
L 338.688 30.334099 
L 338.688 30.334099 
" style="fill:none;stroke:#6495ed;stroke-linecap:square;stroke-width:1.5;"/>
   </g>
   <g id="line2d_51">
    <defs>
     <path d="M -0 6 
L 6 -6 
L -6 -6 
z
" id="m15e3940811" style="stroke:#6495ed;stroke-linejoin:miter;stroke-width:1.5;"/>
    </defs>
    <g>
     <use style="fill-opacity:0;stroke:#6495ed;stroke-linejoin:miter;stroke-width:1.5;" x="113.022974" xlink:href="#m15e3940811" y="191.50004"/>
     <use style="fill-opacity:0;stroke:#6495ed;stroke-linejoin:miter;stroke-width:1.5;" x="134.766144" xlink:href="#m15e3940811" y="49.821484"/>
     <use style="fill-opacity:0;stroke:#6495ed;stroke-linejoin:miter;stroke-width:1.5;" x="185.032355" xlink:href="#m15e3940811" y="30.860785"/>
     <use style="fill-opacity:0;stroke:#6495ed;stroke-linejoin:miter;stroke-width:1.5;" x="185.032355" xlink:href="#m15e3940811" y="30.334099"/>
     <use style="fill-opacity:0;stroke:#6495ed;stroke-linejoin:miter;stroke-width:1.5;" x="338.688" xlink:href="#m15e3940811" y="30.334099"/>
    </g>
   </g>
   <g id="line2d_52">
    <path style="fill:none;stroke:#6495ed;stroke-linecap:square;stroke-width:1.5;"/>
    <g/>
   </g>
   <g id="line2d_53">
    <path d="M 338.688 30.334099 
L 369.60768 293.571802 
" style="fill:none;stroke:#000080;stroke-linecap:square;stroke-width:1.5;"/>
    <g>
     <use style="fill-opacity:0;stroke:#000080;stroke-width:1.5;" x="338.688" xlink:href="#m01c73f6e2f" y="30.334099"/>
     <use style="fill-opacity:0;stroke:#000080;stroke-width:1.5;" x="369.60768" xlink:href="#m01c73f6e2f" y="293.571802"/>
    </g>
   </g>
   <g id="line2d_54">
    <path d="M 338.688 30.334099 
L 369.60768 207.616634 
" style="fill:none;stroke:#6495ed;stroke-linecap:square;stroke-width:1.5;"/>
    <g>
     <use style="fill-opacity:0;stroke:#6495ed;stroke-linejoin:miter;stroke-width:1.5;" x="338.688" xlink:href="#m15e3940811" y="30.334099"/>
     <use style="fill-opacity:0;stroke:#6495ed;stroke-linejoin:miter;stroke-width:1.5;" x="369.60768" xlink:href="#m15e3940811" y="207.616634"/>
    </g>
   </g>
   <g id="line2d_55">
    <path d="M 338.688 30.334099 
L 369.60768 121.661465 
" style="fill:none;stroke:#ff0000;stroke-linecap:square;stroke-width:1.5;"/>
    <g>
     <use style="fill-opacity:0;stroke:#ff0000;stroke-linejoin:miter;stroke-width:1.5;" x="338.688" xlink:href="#mbf1ea13497" y="30.334099"/>
     <use style="fill-opacity:0;stroke:#ff0000;stroke-linejoin:miter;stroke-width:1.5;" x="369.60768" xlink:href="#mbf1ea13497" y="121.661465"/>
    </g>
   </g>
   <g id="line2d_56">
    <path d="M 338.688 30.334099 
L 369.60768 35.706297 
" style="fill:none;stroke:#bebebe;stroke-linecap:square;stroke-width:1.5;"/>
    <g>
     <use style="fill-opacity:0;stroke:#bebebe;stroke-width:1.5;" x="338.688" xlink:href="#m9f4cedbcf7" y="30.334099"/>
     <use style="fill-opacity:0;stroke:#bebebe;stroke-width:1.5;" x="369.60768" xlink:href="#m9f4cedbcf7" y="35.706297"/>
    </g>
   </g>
   <g id="line2d_57">
    <path d="M 338.688 298.944 
L 338.688 30.334099 
" style="fill:none;stroke:#000000;stroke-linecap:square;stroke-width:1.5;"/>
   </g>
   <g id="patch_3">
    <path d="M 57.6 298.944 
L 57.6 27.648 
" style="fill:none;stroke:#000000;stroke-linecap:square;stroke-linejoin:miter;stroke-width:0.8;"/>
   </g>
   <g id="patch_4">
    <path d="M 338.688 298.944 
L 338.688 27.648 
" style="fill:none;stroke:#000000;stroke-linecap:square;stroke-linejoin:miter;stroke-width:0.8;"/>
   </g>
   <g id="patch_5">
    <path d="M 57.6 298.944 
L 338.688 298.944 
" style="fill:none;stroke:#000000;stroke-linecap:square;stroke-linejoin:miter;stroke-width:0.8;"/>
   </g>
   <g id="patch_6">
    <path d="M 57.6 27.648 
L 338.688 27.648 
" style="fill:none;stroke:#000000;stroke-linecap:square;stroke-linejoin:miter;stroke-width:0.8;"/>
   </g>
   <g id="text_13">
    <!-- CMA-ES  2 -->
    <defs>
     <path d="M 64.40625 67.28125 
L 64.40625 56.890625 
Q 59.421875 61.53125 53.78125 63.8125 
Q 48.140625 66.109375 41.796875 66.109375 
Q 29.296875 66.109375 22.65625 58.46875 
Q 16.015625 50.828125 16.015625 36.375 
Q 16.015625 21.96875 22.65625 14.328125 
Q 29.296875 6.6875 41.796875 6.6875 
Q 48.140625 6.6875 53.78125 8.984375 
Q 59.421875 11.28125 64.40625 15.921875 
L 64.40625 5.609375 
Q 59.234375 2.09375 53.4375 0.328125 
Q 47.65625 -1.421875 41.21875 -1.421875 
Q 24.65625 -1.421875 15.125 8.703125 
Q 5.609375 18.84375 5.609375 36.375 
Q 5.609375 53.953125 15.125 64.078125 
Q 24.65625 74.21875 41.21875 74.21875 
Q 47.75 74.21875 53.53125 72.484375 
Q 59.328125 70.75 64.40625 67.28125 
z
" id="DejaVuSans-67"/>
     <path d="M 9.8125 72.90625 
L 24.515625 72.90625 
L 43.109375 23.296875 
L 61.8125 72.90625 
L 76.515625 72.90625 
L 76.515625 0 
L 66.890625 0 
L 66.890625 64.015625 
L 48.09375 14.015625 
L 38.1875 14.015625 
L 19.390625 64.015625 
L 19.390625 0 
L 9.8125 0 
z
" id="DejaVuSans-77"/>
     <path d="M 34.1875 63.1875 
L 20.796875 26.90625 
L 47.609375 26.90625 
z
M 28.609375 72.90625 
L 39.796875 72.90625 
L 67.578125 0 
L 57.328125 0 
L 50.6875 18.703125 
L 17.828125 18.703125 
L 11.1875 0 
L 0.78125 0 
z
" id="DejaVuSans-65"/>
     <path d="M 9.8125 72.90625 
L 55.90625 72.90625 
L 55.90625 64.59375 
L 19.671875 64.59375 
L 19.671875 43.015625 
L 54.390625 43.015625 
L 54.390625 34.71875 
L 19.671875 34.71875 
L 19.671875 8.296875 
L 56.78125 8.296875 
L 56.78125 0 
L 9.8125 0 
z
" id="DejaVuSans-69"/>
     <path d="M 53.515625 70.515625 
L 53.515625 60.890625 
Q 47.90625 63.578125 42.921875 64.890625 
Q 37.9375 66.21875 33.296875 66.21875 
Q 25.25 66.21875 20.875 63.09375 
Q 16.5 59.96875 16.5 54.203125 
Q 16.5 49.359375 19.40625 46.890625 
Q 22.3125 44.4375 30.421875 42.921875 
L 36.375 41.703125 
Q 47.40625 39.59375 52.65625 34.296875 
Q 57.90625 29 57.90625 20.125 
Q 57.90625 9.515625 50.796875 4.046875 
Q 43.703125 -1.421875 29.984375 -1.421875 
Q 24.8125 -1.421875 18.96875 -0.25 
Q 13.140625 0.921875 6.890625 3.21875 
L 6.890625 13.375 
Q 12.890625 10.015625 18.65625 8.296875 
Q 24.421875 6.59375 29.984375 6.59375 
Q 38.421875 6.59375 43.015625 9.90625 
Q 47.609375 13.234375 47.609375 19.390625 
Q 47.609375 24.75 44.3125 27.78125 
Q 41.015625 30.8125 33.5 32.328125 
L 27.484375 33.5 
Q 16.453125 35.6875 11.515625 40.375 
Q 6.59375 45.0625 6.59375 53.421875 
Q 6.59375 63.09375 13.40625 68.65625 
Q 20.21875 74.21875 32.171875 74.21875 
Q 37.3125 74.21875 42.625 73.28125 
Q 47.953125 72.359375 53.515625 70.515625 
z
" id="DejaVuSans-83"/>
    </defs>
    <g transform="translate(375.22944 298.262739)scale(0.17 -0.17)">
     <use xlink:href="#DejaVuSans-67"/>
     <use x="69.824219" xlink:href="#DejaVuSans-77"/>
     <use x="156.103516" xlink:href="#DejaVuSans-65"/>
     <use x="224.480469" xlink:href="#DejaVuSans-45"/>
     <use x="260.564453" xlink:href="#DejaVuSans-69"/>
     <use x="323.748047" xlink:href="#DejaVuSans-83"/>
     <use x="387.224609" xlink:href="#DejaVuSans-32"/>
     <use x="419.011719" xlink:href="#DejaVuSans-32"/>
     <use x="450.798828" xlink:href="#DejaVuSans-50"/>
    </g>
   </g>
   <g id="text_14">
    <!-- SLSQP-11  -->
    <defs>
     <path d="M 9.8125 72.90625 
L 19.671875 72.90625 
L 19.671875 8.296875 
L 55.171875 8.296875 
L 55.171875 0 
L 9.8125 0 
z
" id="DejaVuSans-76"/>
     <path d="M 39.40625 66.21875 
Q 28.65625 66.21875 22.328125 58.203125 
Q 16.015625 50.203125 16.015625 36.375 
Q 16.015625 22.609375 22.328125 14.59375 
Q 28.65625 6.59375 39.40625 6.59375 
Q 50.140625 6.59375 56.421875 14.59375 
Q 62.703125 22.609375 62.703125 36.375 
Q 62.703125 50.203125 56.421875 58.203125 
Q 50.140625 66.21875 39.40625 66.21875 
z
M 53.21875 1.3125 
L 66.21875 -12.890625 
L 54.296875 -12.890625 
L 43.5 -1.21875 
Q 41.890625 -1.3125 41.03125 -1.359375 
Q 40.1875 -1.421875 39.40625 -1.421875 
Q 24.03125 -1.421875 14.8125 8.859375 
Q 5.609375 19.140625 5.609375 36.375 
Q 5.609375 53.65625 14.8125 63.9375 
Q 24.03125 74.21875 39.40625 74.21875 
Q 54.734375 74.21875 63.90625 63.9375 
Q 73.09375 53.65625 73.09375 36.375 
Q 73.09375 23.6875 67.984375 14.640625 
Q 62.890625 5.609375 53.21875 1.3125 
z
" id="DejaVuSans-81"/>
     <path d="M 19.671875 64.796875 
L 19.671875 37.40625 
L 32.078125 37.40625 
Q 38.96875 37.40625 42.71875 40.96875 
Q 46.484375 44.53125 46.484375 51.125 
Q 46.484375 57.671875 42.71875 61.234375 
Q 38.96875 64.796875 32.078125 64.796875 
z
M 9.8125 72.90625 
L 32.078125 72.90625 
Q 44.34375 72.90625 50.609375 67.359375 
Q 56.890625 61.8125 56.890625 51.125 
Q 56.890625 40.328125 50.609375 34.8125 
Q 44.34375 29.296875 32.078125 29.296875 
L 19.671875 29.296875 
L 19.671875 0 
L 9.8125 0 
z
" id="DejaVuSans-80"/>
    </defs>
    <g transform="translate(375.22944 212.307571)scale(0.17 -0.17)">
     <use xlink:href="#DejaVuSans-83"/>
     <use x="63.476562" xlink:href="#DejaVuSans-76"/>
     <use x="119.189453" xlink:href="#DejaVuSans-83"/>
     <use x="182.666016" xlink:href="#DejaVuSans-81"/>
     <use x="261.376953" xlink:href="#DejaVuSans-80"/>
     <use x="321.648438" xlink:href="#DejaVuSans-45"/>
     <use x="357.732422" xlink:href="#DejaVuSans-49"/>
     <use x="421.355469" xlink:href="#DejaVuSans-49"/>
     <use x="484.978516" xlink:href="#DejaVuSans-32"/>
    </g>
   </g>
   <g id="text_15">
    <!-- lq-CMA-ES -->
    <defs>
     <path d="M 14.796875 27.296875 
Q 14.796875 17.390625 18.875 11.75 
Q 22.953125 6.109375 30.078125 6.109375 
Q 37.203125 6.109375 41.296875 11.75 
Q 45.40625 17.390625 45.40625 27.296875 
Q 45.40625 37.203125 41.296875 42.84375 
Q 37.203125 48.484375 30.078125 48.484375 
Q 22.953125 48.484375 18.875 42.84375 
Q 14.796875 37.203125 14.796875 27.296875 
z
M 45.40625 8.203125 
Q 42.578125 3.328125 38.25 0.953125 
Q 33.9375 -1.421875 27.875 -1.421875 
Q 17.96875 -1.421875 11.734375 6.484375 
Q 5.515625 14.40625 5.515625 27.296875 
Q 5.515625 40.1875 11.734375 48.09375 
Q 17.96875 56 27.875 56 
Q 33.9375 56 38.25 53.625 
Q 42.578125 51.265625 45.40625 46.390625 
L 45.40625 54.6875 
L 54.390625 54.6875 
L 54.390625 -20.796875 
L 45.40625 -20.796875 
z
" id="DejaVuSans-113"/>
    </defs>
    <g transform="translate(375.22944 126.352403)scale(0.17 -0.17)">
     <use xlink:href="#DejaVuSans-108"/>
     <use x="27.783203" xlink:href="#DejaVuSans-113"/>
     <use x="91.259766" xlink:href="#DejaVuSans-45"/>
     <use x="127.34375" xlink:href="#DejaVuSans-67"/>
     <use x="197.167969" xlink:href="#DejaVuSans-77"/>
     <use x="283.447266" xlink:href="#DejaVuSans-65"/>
     <use x="351.824219" xlink:href="#DejaVuSans-45"/>
     <use x="387.908203" xlink:href="#DejaVuSans-69"/>
     <use x="451.091797" xlink:href="#DejaVuSans-83"/>
    </g>
   </g>
   <g id="text_16">
    <!-- SLSQP+CMA -->
    <defs>
     <path d="M 46 62.703125 
L 46 35.5 
L 73.1875 35.5 
L 73.1875 27.203125 
L 46 27.203125 
L 46 0 
L 37.796875 0 
L 37.796875 27.203125 
L 10.59375 27.203125 
L 10.59375 35.5 
L 37.796875 35.5 
L 37.796875 62.703125 
z
" id="DejaVuSans-43"/>
    </defs>
    <g transform="translate(375.22944 40.397235)scale(0.17 -0.17)">
     <use xlink:href="#DejaVuSans-83"/>
     <use x="63.476562" xlink:href="#DejaVuSans-76"/>
     <use x="119.189453" xlink:href="#DejaVuSans-83"/>
     <use x="182.666016" xlink:href="#DejaVuSans-81"/>
     <use x="261.376953" xlink:href="#DejaVuSans-80"/>
     <use x="321.679688" xlink:href="#DejaVuSans-43"/>
     <use x="405.46875" xlink:href="#DejaVuSans-67"/>
     <use x="475.292969" xlink:href="#DejaVuSans-77"/>
     <use x="561.572266" xlink:href="#DejaVuSans-65"/>
    </g>
   </g>
   <g id="text_17">
    <!-- bbob f12, 2-D -->
    <defs>
     <path d="M 48.6875 27.296875 
Q 48.6875 37.203125 44.609375 42.84375 
Q 40.53125 48.484375 33.40625 48.484375 
Q 26.265625 48.484375 22.1875 42.84375 
Q 18.109375 37.203125 18.109375 27.296875 
Q 18.109375 17.390625 22.1875 11.75 
Q 26.265625 6.109375 33.40625 6.109375 
Q 40.53125 6.109375 44.609375 11.75 
Q 48.6875 17.390625 48.6875 27.296875 
z
M 18.109375 46.390625 
Q 20.953125 51.265625 25.265625 53.625 
Q 29.59375 56 35.59375 56 
Q 45.5625 56 51.78125 48.09375 
Q 58.015625 40.1875 58.015625 27.296875 
Q 58.015625 14.40625 51.78125 6.484375 
Q 45.5625 -1.421875 35.59375 -1.421875 
Q 29.59375 -1.421875 25.265625 0.953125 
Q 20.953125 3.328125 18.109375 8.203125 
L 18.109375 0 
L 9.078125 0 
L 9.078125 75.984375 
L 18.109375 75.984375 
z
" id="DejaVuSans-98"/>
     <path d="M 19.671875 64.796875 
L 19.671875 8.109375 
L 31.59375 8.109375 
Q 46.6875 8.109375 53.6875 14.9375 
Q 60.6875 21.78125 60.6875 36.53125 
Q 60.6875 51.171875 53.6875 57.984375 
Q 46.6875 64.796875 31.59375 64.796875 
z
M 9.8125 72.90625 
L 30.078125 72.90625 
Q 51.265625 72.90625 61.171875 64.09375 
Q 71.09375 55.28125 71.09375 36.53125 
Q 71.09375 17.671875 61.125 8.828125 
Q 51.171875 0 30.078125 0 
L 9.8125 0 
z
" id="DejaVuSans-68"/>
    </defs>
    <g transform="translate(60.41088 38.111366)scale(0.102 -0.102)">
     <use xlink:href="#DejaVuSans-98"/>
     <use x="63.476562" xlink:href="#DejaVuSans-98"/>
     <use x="126.953125" xlink:href="#DejaVuSans-111"/>
     <use x="188.134766" xlink:href="#DejaVuSans-98"/>
     <use x="251.611328" xlink:href="#DejaVuSans-32"/>
     <use x="283.398438" xlink:href="#DejaVuSans-102"/>
     <use x="318.603516" xlink:href="#DejaVuSans-49"/>
     <use x="382.226562" xlink:href="#DejaVuSans-50"/>
     <use x="445.849609" xlink:href="#DejaVuSans-44"/>
     <use x="477.636719" xlink:href="#DejaVuSans-32"/>
     <use x="509.423828" xlink:href="#DejaVuSans-50"/>
     <use x="573.046875" xlink:href="#DejaVuSans-45"/>
     <use x="609.130859" xlink:href="#DejaVuSans-68"/>
    </g>
    <!-- 51 targets: 100..1e-08 -->
    <defs>
     <path d="M 10.796875 72.90625 
L 49.515625 72.90625 
L 49.515625 64.59375 
L 19.828125 64.59375 
L 19.828125 46.734375 
Q 21.96875 47.46875 24.109375 47.828125 
Q 26.265625 48.1875 28.421875 48.1875 
Q 40.625 48.1875 47.75 41.5 
Q 54.890625 34.8125 54.890625 23.390625 
Q 54.890625 11.625 47.5625 5.09375 
Q 40.234375 -1.421875 26.90625 -1.421875 
Q 22.3125 -1.421875 17.546875 -0.640625 
Q 12.796875 0.140625 7.71875 1.703125 
L 7.71875 11.625 
Q 12.109375 9.234375 16.796875 8.0625 
Q 21.484375 6.890625 26.703125 6.890625 
Q 35.15625 6.890625 40.078125 11.328125 
Q 45.015625 15.765625 45.015625 23.390625 
Q 45.015625 31 40.078125 35.4375 
Q 35.15625 39.890625 26.703125 39.890625 
Q 22.75 39.890625 18.8125 39.015625 
Q 14.890625 38.140625 10.796875 36.28125 
z
" id="DejaVuSans-53"/>
     <path d="M 11.71875 12.40625 
L 22.015625 12.40625 
L 22.015625 0 
L 11.71875 0 
z
M 11.71875 51.703125 
L 22.015625 51.703125 
L 22.015625 39.3125 
L 11.71875 39.3125 
z
" id="DejaVuSans-58"/>
    </defs>
    <g transform="translate(60.41088 49.533135)scale(0.102 -0.102)">
     <use xlink:href="#DejaVuSans-53"/>
     <use x="63.623047" xlink:href="#DejaVuSans-49"/>
     <use x="127.246094" xlink:href="#DejaVuSans-32"/>
     <use x="159.033203" xlink:href="#DejaVuSans-116"/>
     <use x="198.242188" xlink:href="#DejaVuSans-97"/>
     <use x="259.521484" xlink:href="#DejaVuSans-114"/>
     <use x="300.619141" xlink:href="#DejaVuSans-103"/>
     <use x="364.095703" xlink:href="#DejaVuSans-101"/>
     <use x="425.619141" xlink:href="#DejaVuSans-116"/>
     <use x="464.828125" xlink:href="#DejaVuSans-115"/>
     <use x="516.927734" xlink:href="#DejaVuSans-58"/>
     <use x="550.619141" xlink:href="#DejaVuSans-32"/>
     <use x="582.40625" xlink:href="#DejaVuSans-49"/>
     <use x="646.029297" xlink:href="#DejaVuSans-48"/>
     <use x="709.652344" xlink:href="#DejaVuSans-48"/>
     <use x="773.275391" xlink:href="#DejaVuSans-46"/>
     <use x="805.0625" xlink:href="#DejaVuSans-46"/>
     <use x="836.849609" xlink:href="#DejaVuSans-49"/>
     <use x="900.472656" xlink:href="#DejaVuSans-101"/>
     <use x="961.996094" xlink:href="#DejaVuSans-45"/>
     <use x="998.080078" xlink:href="#DejaVuSans-48"/>
     <use x="1061.703125" xlink:href="#DejaVuSans-56"/>
    </g>
    <!-- 15 instances -->
    <g transform="translate(60.41088 60.954904)scale(0.102 -0.102)">
     <use xlink:href="#DejaVuSans-49"/>
     <use x="63.623047" xlink:href="#DejaVuSans-53"/>
     <use x="127.246094" xlink:href="#DejaVuSans-32"/>
     <use x="159.033203" xlink:href="#DejaVuSans-105"/>
     <use x="186.816406" xlink:href="#DejaVuSans-110"/>
     <use x="250.195312" xlink:href="#DejaVuSans-115"/>
     <use x="302.294922" xlink:href="#DejaVuSans-116"/>
     <use x="341.503906" xlink:href="#DejaVuSans-97"/>
     <use x="402.783203" xlink:href="#DejaVuSans-110"/>
     <use x="466.162109" xlink:href="#DejaVuSans-99"/>
     <use x="521.142578" xlink:href="#DejaVuSans-101"/>
     <use x="582.666016" xlink:href="#DejaVuSans-115"/>
    </g>
   </g>
   <g id="text_18">
    <!-- v2.3.2 -->
    <defs>
     <path d="M 40.578125 39.3125 
Q 47.65625 37.796875 51.625 33 
Q 55.609375 28.21875 55.609375 21.1875 
Q 55.609375 10.40625 48.1875 4.484375 
Q 40.765625 -1.421875 27.09375 -1.421875 
Q 22.515625 -1.421875 17.65625 -0.515625 
Q 12.796875 0.390625 7.625 2.203125 
L 7.625 11.71875 
Q 11.71875 9.328125 16.59375 8.109375 
Q 21.484375 6.890625 26.8125 6.890625 
Q 36.078125 6.890625 40.9375 10.546875 
Q 45.796875 14.203125 45.796875 21.1875 
Q 45.796875 27.640625 41.28125 31.265625 
Q 36.765625 34.90625 28.71875 34.90625 
L 20.21875 34.90625 
L 20.21875 43.015625 
L 29.109375 43.015625 
Q 36.375 43.015625 40.234375 45.921875 
Q 44.09375 48.828125 44.09375 54.296875 
Q 44.09375 59.90625 40.109375 62.90625 
Q 36.140625 65.921875 28.71875 65.921875 
Q 24.65625 65.921875 20.015625 65.03125 
Q 15.375 64.15625 9.8125 62.3125 
L 9.8125 71.09375 
Q 15.4375 72.65625 20.34375 73.4375 
Q 25.25 74.21875 29.59375 74.21875 
Q 40.828125 74.21875 47.359375 69.109375 
Q 53.90625 64.015625 53.90625 55.328125 
Q 53.90625 49.265625 50.4375 45.09375 
Q 46.96875 40.921875 40.578125 39.3125 
z
" id="DejaVuSans-51"/>
    </defs>
    <g style="fill:#808080;" transform="translate(182.46275 294.151352)scale(0.1 -0.1)">
     <use xlink:href="#DejaVuSans-118"/>
     <use x="59.179688" xlink:href="#DejaVuSans-50"/>
     <use x="122.802734" xlink:href="#DejaVuSans-46"/>
     <use x="154.589844" xlink:href="#DejaVuSans-51"/>
     <use x="218.212891" xlink:href="#DejaVuSans-46"/>
     <use x="250" xlink:href="#DejaVuSans-50"/>
    </g>
   </g>
   <g id="text_19">
    <!-- 12 Bent cigar -->
    <defs>
     <path d="M 19.671875 34.8125 
L 19.671875 8.109375 
L 35.5 8.109375 
Q 43.453125 8.109375 47.28125 11.40625 
Q 51.125 14.703125 51.125 21.484375 
Q 51.125 28.328125 47.28125 31.5625 
Q 43.453125 34.8125 35.5 34.8125 
z
M 19.671875 64.796875 
L 19.671875 42.828125 
L 34.28125 42.828125 
Q 41.5 42.828125 45.03125 45.53125 
Q 48.578125 48.25 48.578125 53.8125 
Q 48.578125 59.328125 45.03125 62.0625 
Q 41.5 64.796875 34.28125 64.796875 
z
M 9.8125 72.90625 
L 35.015625 72.90625 
Q 46.296875 72.90625 52.390625 68.21875 
Q 58.5 63.53125 58.5 54.890625 
Q 58.5 48.1875 55.375 44.234375 
Q 52.25 40.28125 46.1875 39.3125 
Q 53.46875 37.75 57.5 32.78125 
Q 61.53125 27.828125 61.53125 20.40625 
Q 61.53125 10.640625 54.890625 5.3125 
Q 48.25 0 35.984375 0 
L 9.8125 0 
z
" id="DejaVuSans-66"/>
    </defs>
    <g transform="translate(130.926812 21.648)scale(0.2 -0.2)">
     <use xlink:href="#DejaVuSans-49"/>
     <use x="63.623047" xlink:href="#DejaVuSans-50"/>
     <use x="127.246094" xlink:href="#DejaVuSans-32"/>
     <use x="159.033203" xlink:href="#DejaVuSans-66"/>
     <use x="227.636719" xlink:href="#DejaVuSans-101"/>
     <use x="289.160156" xlink:href="#DejaVuSans-110"/>
     <use x="352.539062" xlink:href="#DejaVuSans-116"/>
     <use x="391.748047" xlink:href="#DejaVuSans-32"/>
     <use x="423.535156" xlink:href="#DejaVuSans-99"/>
     <use x="478.515625" xlink:href="#DejaVuSans-105"/>
     <use x="506.298828" xlink:href="#DejaVuSans-103"/>
     <use x="569.775391" xlink:href="#DejaVuSans-97"/>
     <use x="631.054688" xlink:href="#DejaVuSans-114"/>
    </g>
   </g>
  </g>
 </g>
 <defs>
  <clipPath id="p91e71a3067">
   <rect height="271.296" width="281.088" x="57.6" y="27.648"/>
  </clipPath>
 </defs>
</svg>
