<?xml version="1.0" encoding="utf-8" standalone="no"?>
<!DOCTYPE svg PUBLIC "-//W3C//DTD SVG 1.1//EN"
  "http://www.w3.org/Graphics/SVG/1.1/DTD/svg11.dtd">
<!-- Created with matplotlib (https://matplotlib.org/) -->
<svg height="345.6pt" version="1.1" viewBox="0 0 460.8 345.6" width="460.8pt" xmlns="http://www.w3.org/2000/svg" xmlns:xlink="http://www.w3.org/1999/xlink">
 <defs>
  <style type="text/css">
*{stroke-linecap:butt;stroke-linejoin:round;}
  </style>
 </defs>
 <g id="figure_1">
  <g id="patch_1">
   <path d="M 0 345.6 
L 460.8 345.6 
L 460.8 0 
L 0 0 
z
" style="fill:#ffffff;"/>
  </g>
  <g id="axes_1">
   <g id="patch_2">
    <path d="M 57.6 298.944 
L 338.688 298.944 
L 338.688 27.648 
L 57.6 27.648 
z
" style="fill:#ffffff;"/>
   </g>
   <g id="matplotlib.axis_1">
    <g id="xtick_1">
     <g id="line2d_1">
      <path clip-path="url(#pfcb1bee171)" d="M 57.6 298.944 
L 57.6 27.648 
" style="fill:none;stroke:#b0b0b0;stroke-linecap:square;stroke-width:0.8;"/>
     </g>
     <g id="line2d_2">
      <defs>
       <path d="M 0 0 
L 0 3.5 
" id="m9cef9de174" style="stroke:#000000;stroke-width:0.8;"/>
      </defs>
      <g>
       <use style="stroke:#000000;stroke-width:0.8;" x="57.6" xlink:href="#m9cef9de174" y="298.944"/>
      </g>
     </g>
     <g id="text_1">
      <!-- 0 -->
      <defs>
       <path d="M 31.78125 66.40625 
Q 24.171875 66.40625 20.328125 58.90625 
Q 16.5 51.421875 16.5 36.375 
Q 16.5 21.390625 20.328125 13.890625 
Q 24.171875 6.390625 31.78125 6.390625 
Q 39.453125 6.390625 43.28125 13.890625 
Q 47.125 21.390625 47.125 36.375 
Q 47.125 51.421875 43.28125 58.90625 
Q 39.453125 66.40625 31.78125 66.40625 
z
M 31.78125 74.21875 
Q 44.046875 74.21875 50.515625 64.515625 
Q 56.984375 54.828125 56.984375 36.375 
Q 56.984375 17.96875 50.515625 8.265625 
Q 44.046875 -1.421875 31.78125 -1.421875 
Q 19.53125 -1.421875 13.0625 8.265625 
Q 6.59375 17.96875 6.59375 36.375 
Q 6.59375 54.828125 13.0625 64.515625 
Q 19.53125 74.21875 31.78125 74.21875 
z
" id="DejaVuSans-48"/>
      </defs>
      <g transform="translate(51.2375 321.140875)scale(0.2 -0.2)">
       <use xlink:href="#DejaVuSans-48"/>
      </g>
     </g>
    </g>
    <g id="xtick_2">
     <g id="line2d_3">
      <path clip-path="url(#pfcb1bee171)" d="M 137.910857 298.944 
L 137.910857 27.648 
" style="fill:none;stroke:#b0b0b0;stroke-linecap:square;stroke-width:0.8;"/>
     </g>
     <g id="line2d_4">
      <g>
       <use style="stroke:#000000;stroke-width:0.8;" x="137.910857" xlink:href="#m9cef9de174" y="298.944"/>
      </g>
     </g>
     <g id="text_2">
      <!-- 2 -->
      <defs>
       <path d="M 19.1875 8.296875 
L 53.609375 8.296875 
L 53.609375 0 
L 7.328125 0 
L 7.328125 8.296875 
Q 12.9375 14.109375 22.625 23.890625 
Q 32.328125 33.6875 34.8125 36.53125 
Q 39.546875 41.84375 41.421875 45.53125 
Q 43.3125 49.21875 43.3125 52.78125 
Q 43.3125 58.59375 39.234375 62.25 
Q 35.15625 65.921875 28.609375 65.921875 
Q 23.96875 65.921875 18.8125 64.3125 
Q 13.671875 62.703125 7.8125 59.421875 
L 7.8125 69.390625 
Q 13.765625 71.78125 18.9375 73 
Q 24.125 74.21875 28.421875 74.21875 
Q 39.75 74.21875 46.484375 68.546875 
Q 53.21875 62.890625 53.21875 53.421875 
Q 53.21875 48.921875 51.53125 44.890625 
Q 49.859375 40.875 45.40625 35.40625 
Q 44.1875 33.984375 37.640625 27.21875 
Q 31.109375 20.453125 19.1875 8.296875 
z
" id="DejaVuSans-50"/>
      </defs>
      <g transform="translate(131.548357 321.140875)scale(0.2 -0.2)">
       <use xlink:href="#DejaVuSans-50"/>
      </g>
     </g>
    </g>
    <g id="xtick_3">
     <g id="line2d_5">
      <path clip-path="url(#pfcb1bee171)" d="M 218.221714 298.944 
L 218.221714 27.648 
" style="fill:none;stroke:#b0b0b0;stroke-linecap:square;stroke-width:0.8;"/>
     </g>
     <g id="line2d_6">
      <g>
       <use style="stroke:#000000;stroke-width:0.8;" x="218.221714" xlink:href="#m9cef9de174" y="298.944"/>
      </g>
     </g>
     <g id="text_3">
      <!-- 4 -->
      <defs>
       <path d="M 37.796875 64.3125 
L 12.890625 25.390625 
L 37.796875 25.390625 
z
M 35.203125 72.90625 
L 47.609375 72.90625 
L 47.609375 25.390625 
L 58.015625 25.390625 
L 58.015625 17.1875 
L 47.609375 17.1875 
L 47.609375 0 
L 37.796875 0 
L 37.796875 17.1875 
L 4.890625 17.1875 
L 4.890625 26.703125 
z
" id="DejaVuSans-52"/>
      </defs>
      <g transform="translate(211.859214 321.140875)scale(0.2 -0.2)">
       <use xlink:href="#DejaVuSans-52"/>
      </g>
     </g>
    </g>
    <g id="xtick_4">
     <g id="line2d_7">
      <path clip-path="url(#pfcb1bee171)" d="M 298.532571 298.944 
L 298.532571 27.648 
" style="fill:none;stroke:#b0b0b0;stroke-linecap:square;stroke-width:0.8;"/>
     </g>
     <g id="line2d_8">
      <g>
       <use style="stroke:#000000;stroke-width:0.8;" x="298.532571" xlink:href="#m9cef9de174" y="298.944"/>
      </g>
     </g>
     <g id="text_4">
      <!-- 6 -->
      <defs>
       <path d="M 33.015625 40.375 
Q 26.375 40.375 22.484375 35.828125 
Q 18.609375 31.296875 18.609375 23.390625 
Q 18.609375 15.53125 22.484375 10.953125 
Q 26.375 6.390625 33.015625 6.390625 
Q 39.65625 6.390625 43.53125 10.953125 
Q 47.40625 15.53125 47.40625 23.390625 
Q 47.40625 31.296875 43.53125 35.828125 
Q 39.65625 40.375 33.015625 40.375 
z
M 52.59375 71.296875 
L 52.59375 62.3125 
Q 48.875 64.0625 45.09375 64.984375 
Q 41.3125 65.921875 37.59375 65.921875 
Q 27.828125 65.921875 22.671875 59.328125 
Q 17.53125 52.734375 16.796875 39.40625 
Q 19.671875 43.65625 24.015625 45.921875 
Q 28.375 48.1875 33.59375 48.1875 
Q 44.578125 48.1875 50.953125 41.515625 
Q 57.328125 34.859375 57.328125 23.390625 
Q 57.328125 12.15625 50.6875 5.359375 
Q 44.046875 -1.421875 33.015625 -1.421875 
Q 20.359375 -1.421875 13.671875 8.265625 
Q 6.984375 17.96875 6.984375 36.375 
Q 6.984375 53.65625 15.1875 63.9375 
Q 23.390625 74.21875 37.203125 74.21875 
Q 40.921875 74.21875 44.703125 73.484375 
Q 48.484375 72.75 52.59375 71.296875 
z
" id="DejaVuSans-54"/>
      </defs>
      <g transform="translate(292.170071 321.140875)scale(0.2 -0.2)">
       <use xlink:href="#DejaVuSans-54"/>
      </g>
     </g>
    </g>
    <g id="xtick_5">
     <g id="line2d_9">
      <path clip-path="url(#pfcb1bee171)" d="M 57.6 298.944 
L 57.6 27.648 
" style="fill:none;stroke:#b0b0b0;stroke-linecap:square;stroke-width:0.8;"/>
     </g>
     <g id="line2d_10">
      <defs>
       <path d="M 0 0 
L 0 2 
" id="m3db4dd017c" style="stroke:#000000;stroke-width:0.6;"/>
      </defs>
      <g>
       <use style="stroke:#000000;stroke-width:0.6;" x="57.6" xlink:href="#m3db4dd017c" y="298.944"/>
      </g>
     </g>
    </g>
    <g id="xtick_6">
     <g id="line2d_11">
      <path clip-path="url(#pfcb1bee171)" d="M 97.755429 298.944 
L 97.755429 27.648 
" style="fill:none;stroke:#b0b0b0;stroke-linecap:square;stroke-width:0.8;"/>
     </g>
     <g id="line2d_12">
      <g>
       <use style="stroke:#000000;stroke-width:0.6;" x="97.755429" xlink:href="#m3db4dd017c" y="298.944"/>
      </g>
     </g>
    </g>
    <g id="xtick_7">
     <g id="line2d_13">
      <path clip-path="url(#pfcb1bee171)" d="M 137.910857 298.944 
L 137.910857 27.648 
" style="fill:none;stroke:#b0b0b0;stroke-linecap:square;stroke-width:0.8;"/>
     </g>
     <g id="line2d_14">
      <g>
       <use style="stroke:#000000;stroke-width:0.6;" x="137.910857" xlink:href="#m3db4dd017c" y="298.944"/>
      </g>
     </g>
    </g>
    <g id="xtick_8">
     <g id="line2d_15">
      <path clip-path="url(#pfcb1bee171)" d="M 178.066286 298.944 
L 178.066286 27.648 
" style="fill:none;stroke:#b0b0b0;stroke-linecap:square;stroke-width:0.8;"/>
     </g>
     <g id="line2d_16">
      <g>
       <use style="stroke:#000000;stroke-width:0.6;" x="178.066286" xlink:href="#m3db4dd017c" y="298.944"/>
      </g>
     </g>
    </g>
    <g id="xtick_9">
     <g id="line2d_17">
      <path clip-path="url(#pfcb1bee171)" d="M 218.221714 298.944 
L 218.221714 27.648 
" style="fill:none;stroke:#b0b0b0;stroke-linecap:square;stroke-width:0.8;"/>
     </g>
     <g id="line2d_18">
      <g>
       <use style="stroke:#000000;stroke-width:0.6;" x="218.221714" xlink:href="#m3db4dd017c" y="298.944"/>
      </g>
     </g>
    </g>
    <g id="xtick_10">
     <g id="line2d_19">
      <path clip-path="url(#pfcb1bee171)" d="M 258.377143 298.944 
L 258.377143 27.648 
" style="fill:none;stroke:#b0b0b0;stroke-linecap:square;stroke-width:0.8;"/>
     </g>
     <g id="line2d_20">
      <g>
       <use style="stroke:#000000;stroke-width:0.6;" x="258.377143" xlink:href="#m3db4dd017c" y="298.944"/>
      </g>
     </g>
    </g>
    <g id="xtick_11">
     <g id="line2d_21">
      <path clip-path="url(#pfcb1bee171)" d="M 298.532571 298.944 
L 298.532571 27.648 
" style="fill:none;stroke:#b0b0b0;stroke-linecap:square;stroke-width:0.8;"/>
     </g>
     <g id="line2d_22">
      <g>
       <use style="stroke:#000000;stroke-width:0.6;" x="298.532571" xlink:href="#m3db4dd017c" y="298.944"/>
      </g>
     </g>
    </g>
    <g id="xtick_12">
     <g id="line2d_23">
      <path clip-path="url(#pfcb1bee171)" d="M 338.688 298.944 
L 338.688 27.648 
" style="fill:none;stroke:#b0b0b0;stroke-linecap:square;stroke-width:0.8;"/>
     </g>
     <g id="line2d_24">
      <g>
       <use style="stroke:#000000;stroke-width:0.6;" x="338.688" xlink:href="#m3db4dd017c" y="298.944"/>
      </g>
     </g>
    </g>
    <g id="text_5">
     <!-- log10(# f-evals / dimension) -->
     <defs>
      <path d="M 9.421875 75.984375 
L 18.40625 75.984375 
L 18.40625 0 
L 9.421875 0 
z
" id="DejaVuSans-108"/>
      <path d="M 30.609375 48.390625 
Q 23.390625 48.390625 19.1875 42.75 
Q 14.984375 37.109375 14.984375 27.296875 
Q 14.984375 17.484375 19.15625 11.84375 
Q 23.34375 6.203125 30.609375 6.203125 
Q 37.796875 6.203125 41.984375 11.859375 
Q 46.1875 17.53125 46.1875 27.296875 
Q 46.1875 37.015625 41.984375 42.703125 
Q 37.796875 48.390625 30.609375 48.390625 
z
M 30.609375 56 
Q 42.328125 56 49.015625 48.375 
Q 55.71875 40.765625 55.71875 27.296875 
Q 55.71875 13.875 49.015625 6.21875 
Q 42.328125 -1.421875 30.609375 -1.421875 
Q 18.84375 -1.421875 12.171875 6.21875 
Q 5.515625 13.875 5.515625 27.296875 
Q 5.515625 40.765625 12.171875 48.375 
Q 18.84375 56 30.609375 56 
z
" id="DejaVuSans-111"/>
      <path d="M 45.40625 27.984375 
Q 45.40625 37.75 41.375 43.109375 
Q 37.359375 48.484375 30.078125 48.484375 
Q 22.859375 48.484375 18.828125 43.109375 
Q 14.796875 37.75 14.796875 27.984375 
Q 14.796875 18.265625 18.828125 12.890625 
Q 22.859375 7.515625 30.078125 7.515625 
Q 37.359375 7.515625 41.375 12.890625 
Q 45.40625 18.265625 45.40625 27.984375 
z
M 54.390625 6.78125 
Q 54.390625 -7.171875 48.1875 -13.984375 
Q 42 -20.796875 29.203125 -20.796875 
Q 24.46875 -20.796875 20.265625 -20.09375 
Q 16.0625 -19.390625 12.109375 -17.921875 
L 12.109375 -9.1875 
Q 16.0625 -11.328125 19.921875 -12.34375 
Q 23.78125 -13.375 27.78125 -13.375 
Q 36.625 -13.375 41.015625 -8.765625 
Q 45.40625 -4.15625 45.40625 5.171875 
L 45.40625 9.625 
Q 42.625 4.78125 38.28125 2.390625 
Q 33.9375 0 27.875 0 
Q 17.828125 0 11.671875 7.65625 
Q 5.515625 15.328125 5.515625 27.984375 
Q 5.515625 40.671875 11.671875 48.328125 
Q 17.828125 56 27.875 56 
Q 33.9375 56 38.28125 53.609375 
Q 42.625 51.21875 45.40625 46.390625 
L 45.40625 54.6875 
L 54.390625 54.6875 
z
" id="DejaVuSans-103"/>
      <path d="M 12.40625 8.296875 
L 28.515625 8.296875 
L 28.515625 63.921875 
L 10.984375 60.40625 
L 10.984375 69.390625 
L 28.421875 72.90625 
L 38.28125 72.90625 
L 38.28125 8.296875 
L 54.390625 8.296875 
L 54.390625 0 
L 12.40625 0 
z
" id="DejaVuSans-49"/>
      <path d="M 31 75.875 
Q 24.46875 64.65625 21.28125 53.65625 
Q 18.109375 42.671875 18.109375 31.390625 
Q 18.109375 20.125 21.3125 9.0625 
Q 24.515625 -2 31 -13.1875 
L 23.1875 -13.1875 
Q 15.875 -1.703125 12.234375 9.375 
Q 8.59375 20.453125 8.59375 31.390625 
Q 8.59375 42.28125 12.203125 53.3125 
Q 15.828125 64.359375 23.1875 75.875 
z
" id="DejaVuSans-40"/>
      <path d="M 51.125 44 
L 36.921875 44 
L 32.8125 27.6875 
L 47.125 27.6875 
z
M 43.796875 71.78125 
L 38.71875 51.515625 
L 52.984375 51.515625 
L 58.109375 71.78125 
L 65.921875 71.78125 
L 60.890625 51.515625 
L 76.125 51.515625 
L 76.125 44 
L 58.984375 44 
L 54.984375 27.6875 
L 70.515625 27.6875 
L 70.515625 20.21875 
L 53.078125 20.21875 
L 48 0 
L 40.1875 0 
L 45.21875 20.21875 
L 30.90625 20.21875 
L 25.875 0 
L 18.015625 0 
L 23.09375 20.21875 
L 7.71875 20.21875 
L 7.71875 27.6875 
L 24.90625 27.6875 
L 29 44 
L 13.28125 44 
L 13.28125 51.515625 
L 30.90625 51.515625 
L 35.890625 71.78125 
z
" id="DejaVuSans-35"/>
      <path id="DejaVuSans-32"/>
      <path d="M 37.109375 75.984375 
L 37.109375 68.5 
L 28.515625 68.5 
Q 23.6875 68.5 21.796875 66.546875 
Q 19.921875 64.59375 19.921875 59.515625 
L 19.921875 54.6875 
L 34.71875 54.6875 
L 34.71875 47.703125 
L 19.921875 47.703125 
L 19.921875 0 
L 10.890625 0 
L 10.890625 47.703125 
L 2.296875 47.703125 
L 2.296875 54.6875 
L 10.890625 54.6875 
L 10.890625 58.5 
Q 10.890625 67.625 15.140625 71.796875 
Q 19.390625 75.984375 28.609375 75.984375 
z
" id="DejaVuSans-102"/>
      <path d="M 4.890625 31.390625 
L 31.203125 31.390625 
L 31.203125 23.390625 
L 4.890625 23.390625 
z
" id="DejaVuSans-45"/>
      <path d="M 56.203125 29.59375 
L 56.203125 25.203125 
L 14.890625 25.203125 
Q 15.484375 15.921875 20.484375 11.0625 
Q 25.484375 6.203125 34.421875 6.203125 
Q 39.59375 6.203125 44.453125 7.46875 
Q 49.3125 8.734375 54.109375 11.28125 
L 54.109375 2.78125 
Q 49.265625 0.734375 44.1875 -0.34375 
Q 39.109375 -1.421875 33.890625 -1.421875 
Q 20.796875 -1.421875 13.15625 6.1875 
Q 5.515625 13.8125 5.515625 26.8125 
Q 5.515625 40.234375 12.765625 48.109375 
Q 20.015625 56 32.328125 56 
Q 43.359375 56 49.78125 48.890625 
Q 56.203125 41.796875 56.203125 29.59375 
z
M 47.21875 32.234375 
Q 47.125 39.59375 43.09375 43.984375 
Q 39.0625 48.390625 32.421875 48.390625 
Q 24.90625 48.390625 20.390625 44.140625 
Q 15.875 39.890625 15.1875 32.171875 
z
" id="DejaVuSans-101"/>
      <path d="M 2.984375 54.6875 
L 12.5 54.6875 
L 29.59375 8.796875 
L 46.6875 54.6875 
L 56.203125 54.6875 
L 35.6875 0 
L 23.484375 0 
z
" id="DejaVuSans-118"/>
      <path d="M 34.28125 27.484375 
Q 23.390625 27.484375 19.1875 25 
Q 14.984375 22.515625 14.984375 16.5 
Q 14.984375 11.71875 18.140625 8.90625 
Q 21.296875 6.109375 26.703125 6.109375 
Q 34.1875 6.109375 38.703125 11.40625 
Q 43.21875 16.703125 43.21875 25.484375 
L 43.21875 27.484375 
z
M 52.203125 31.203125 
L 52.203125 0 
L 43.21875 0 
L 43.21875 8.296875 
Q 40.140625 3.328125 35.546875 0.953125 
Q 30.953125 -1.421875 24.3125 -1.421875 
Q 15.921875 -1.421875 10.953125 3.296875 
Q 6 8.015625 6 15.921875 
Q 6 25.140625 12.171875 29.828125 
Q 18.359375 34.515625 30.609375 34.515625 
L 43.21875 34.515625 
L 43.21875 35.40625 
Q 43.21875 41.609375 39.140625 45 
Q 35.0625 48.390625 27.6875 48.390625 
Q 23 48.390625 18.546875 47.265625 
Q 14.109375 46.140625 10.015625 43.890625 
L 10.015625 52.203125 
Q 14.9375 54.109375 19.578125 55.046875 
Q 24.21875 56 28.609375 56 
Q 40.484375 56 46.34375 49.84375 
Q 52.203125 43.703125 52.203125 31.203125 
z
" id="DejaVuSans-97"/>
      <path d="M 44.28125 53.078125 
L 44.28125 44.578125 
Q 40.484375 46.53125 36.375 47.5 
Q 32.28125 48.484375 27.875 48.484375 
Q 21.1875 48.484375 17.84375 46.4375 
Q 14.5 44.390625 14.5 40.28125 
Q 14.5 37.15625 16.890625 35.375 
Q 19.28125 33.59375 26.515625 31.984375 
L 29.59375 31.296875 
Q 39.15625 29.25 43.1875 25.515625 
Q 47.21875 21.78125 47.21875 15.09375 
Q 47.21875 7.46875 41.1875 3.015625 
Q 35.15625 -1.421875 24.609375 -1.421875 
Q 20.21875 -1.421875 15.453125 -0.5625 
Q 10.6875 0.296875 5.421875 2 
L 5.421875 11.28125 
Q 10.40625 8.6875 15.234375 7.390625 
Q 20.0625 6.109375 24.8125 6.109375 
Q 31.15625 6.109375 34.5625 8.28125 
Q 37.984375 10.453125 37.984375 14.40625 
Q 37.984375 18.0625 35.515625 20.015625 
Q 33.0625 21.96875 24.703125 23.78125 
L 21.578125 24.515625 
Q 13.234375 26.265625 9.515625 29.90625 
Q 5.8125 33.546875 5.8125 39.890625 
Q 5.8125 47.609375 11.28125 51.796875 
Q 16.75 56 26.8125 56 
Q 31.78125 56 36.171875 55.265625 
Q 40.578125 54.546875 44.28125 53.078125 
z
" id="DejaVuSans-115"/>
      <path d="M 25.390625 72.90625 
L 33.6875 72.90625 
L 8.296875 -9.28125 
L 0 -9.28125 
z
" id="DejaVuSans-47"/>
      <path d="M 45.40625 46.390625 
L 45.40625 75.984375 
L 54.390625 75.984375 
L 54.390625 0 
L 45.40625 0 
L 45.40625 8.203125 
Q 42.578125 3.328125 38.25 0.953125 
Q 33.9375 -1.421875 27.875 -1.421875 
Q 17.96875 -1.421875 11.734375 6.484375 
Q 5.515625 14.40625 5.515625 27.296875 
Q 5.515625 40.1875 11.734375 48.09375 
Q 17.96875 56 27.875 56 
Q 33.9375 56 38.25 53.625 
Q 42.578125 51.265625 45.40625 46.390625 
z
M 14.796875 27.296875 
Q 14.796875 17.390625 18.875 11.75 
Q 22.953125 6.109375 30.078125 6.109375 
Q 37.203125 6.109375 41.296875 11.75 
Q 45.40625 17.390625 45.40625 27.296875 
Q 45.40625 37.203125 41.296875 42.84375 
Q 37.203125 48.484375 30.078125 48.484375 
Q 22.953125 48.484375 18.875 42.84375 
Q 14.796875 37.203125 14.796875 27.296875 
z
" id="DejaVuSans-100"/>
      <path d="M 9.421875 54.6875 
L 18.40625 54.6875 
L 18.40625 0 
L 9.421875 0 
z
M 9.421875 75.984375 
L 18.40625 75.984375 
L 18.40625 64.59375 
L 9.421875 64.59375 
z
" id="DejaVuSans-105"/>
      <path d="M 52 44.1875 
Q 55.375 50.25 60.0625 53.125 
Q 64.75 56 71.09375 56 
Q 79.640625 56 84.28125 50.015625 
Q 88.921875 44.046875 88.921875 33.015625 
L 88.921875 0 
L 79.890625 0 
L 79.890625 32.71875 
Q 79.890625 40.578125 77.09375 44.375 
Q 74.3125 48.1875 68.609375 48.1875 
Q 61.625 48.1875 57.5625 43.546875 
Q 53.515625 38.921875 53.515625 30.90625 
L 53.515625 0 
L 44.484375 0 
L 44.484375 32.71875 
Q 44.484375 40.625 41.703125 44.40625 
Q 38.921875 48.1875 33.109375 48.1875 
Q 26.21875 48.1875 22.15625 43.53125 
Q 18.109375 38.875 18.109375 30.90625 
L 18.109375 0 
L 9.078125 0 
L 9.078125 54.6875 
L 18.109375 54.6875 
L 18.109375 46.1875 
Q 21.1875 51.21875 25.484375 53.609375 
Q 29.78125 56 35.6875 56 
Q 41.65625 56 45.828125 52.96875 
Q 50 49.953125 52 44.1875 
z
" id="DejaVuSans-109"/>
      <path d="M 54.890625 33.015625 
L 54.890625 0 
L 45.90625 0 
L 45.90625 32.71875 
Q 45.90625 40.484375 42.875 44.328125 
Q 39.84375 48.1875 33.796875 48.1875 
Q 26.515625 48.1875 22.3125 43.546875 
Q 18.109375 38.921875 18.109375 30.90625 
L 18.109375 0 
L 9.078125 0 
L 9.078125 54.6875 
L 18.109375 54.6875 
L 18.109375 46.1875 
Q 21.34375 51.125 25.703125 53.5625 
Q 30.078125 56 35.796875 56 
Q 45.21875 56 50.046875 50.171875 
Q 54.890625 44.34375 54.890625 33.015625 
z
" id="DejaVuSans-110"/>
      <path d="M 8.015625 75.875 
L 15.828125 75.875 
Q 23.140625 64.359375 26.78125 53.3125 
Q 30.421875 42.28125 30.421875 31.390625 
Q 30.421875 20.453125 26.78125 9.375 
Q 23.140625 -1.703125 15.828125 -13.1875 
L 8.015625 -13.1875 
Q 14.5 -2 17.703125 9.0625 
Q 20.90625 20.125 20.90625 31.390625 
Q 20.90625 42.671875 17.703125 53.65625 
Q 14.5 64.65625 8.015625 75.875 
z
" id="DejaVuSans-41"/>
     </defs>
     <g transform="translate(77.303219 342.217594)scale(0.17 -0.17)">
      <use xlink:href="#DejaVuSans-108"/>
      <use x="27.783203" xlink:href="#DejaVuSans-111"/>
      <use x="88.964844" xlink:href="#DejaVuSans-103"/>
      <use x="152.441406" xlink:href="#DejaVuSans-49"/>
      <use x="216.064453" xlink:href="#DejaVuSans-48"/>
      <use x="279.6875" xlink:href="#DejaVuSans-40"/>
      <use x="318.701172" xlink:href="#DejaVuSans-35"/>
      <use x="402.490234" xlink:href="#DejaVuSans-32"/>
      <use x="434.277344" xlink:href="#DejaVuSans-102"/>
      <use x="469.404297" xlink:href="#DejaVuSans-45"/>
      <use x="505.488281" xlink:href="#DejaVuSans-101"/>
      <use x="567.011719" xlink:href="#DejaVuSans-118"/>
      <use x="626.191406" xlink:href="#DejaVuSans-97"/>
      <use x="687.470703" xlink:href="#DejaVuSans-108"/>
      <use x="715.253906" xlink:href="#DejaVuSans-115"/>
      <use x="767.353516" xlink:href="#DejaVuSans-32"/>
      <use x="799.140625" xlink:href="#DejaVuSans-47"/>
      <use x="832.832031" xlink:href="#DejaVuSans-32"/>
      <use x="864.619141" xlink:href="#DejaVuSans-100"/>
      <use x="928.095703" xlink:href="#DejaVuSans-105"/>
      <use x="955.878906" xlink:href="#DejaVuSans-109"/>
      <use x="1053.291016" xlink:href="#DejaVuSans-101"/>
      <use x="1114.814453" xlink:href="#DejaVuSans-110"/>
      <use x="1178.193359" xlink:href="#DejaVuSans-115"/>
      <use x="1230.292969" xlink:href="#DejaVuSans-105"/>
      <use x="1258.076172" xlink:href="#DejaVuSans-111"/>
      <use x="1319.257812" xlink:href="#DejaVuSans-110"/>
      <use x="1382.636719" xlink:href="#DejaVuSans-41"/>
     </g>
    </g>
   </g>
   <g id="matplotlib.axis_2">
    <g id="ytick_1">
     <g id="line2d_25">
      <path clip-path="url(#pfcb1bee171)" d="M 57.6 298.944 
L 338.688 298.944 
" style="fill:none;stroke:#b0b0b0;stroke-linecap:square;stroke-width:0.8;"/>
     </g>
     <g id="line2d_26">
      <defs>
       <path d="M 0 0 
L -3.5 0 
" id="m87077bdb75" style="stroke:#000000;stroke-width:0.8;"/>
      </defs>
      <g>
       <use style="stroke:#000000;stroke-width:0.8;" x="57.6" xlink:href="#m87077bdb75" y="298.944"/>
      </g>
     </g>
     <g id="text_6">
      <!-- 0.0 -->
      <defs>
       <path d="M 10.6875 12.40625 
L 21 12.40625 
L 21 0 
L 10.6875 0 
z
" id="DejaVuSans-46"/>
      </defs>
      <g transform="translate(25.155 305.02275)scale(0.16 -0.16)">
       <use xlink:href="#DejaVuSans-48"/>
       <use x="63.623047" xlink:href="#DejaVuSans-46"/>
       <use x="95.410156" xlink:href="#DejaVuSans-48"/>
      </g>
     </g>
    </g>
    <g id="ytick_2">
     <g id="line2d_27">
      <path clip-path="url(#pfcb1bee171)" d="M 57.6 245.22202 
L 338.688 245.22202 
" style="fill:none;stroke:#b0b0b0;stroke-linecap:square;stroke-width:0.8;"/>
     </g>
     <g id="line2d_28">
      <g>
       <use style="stroke:#000000;stroke-width:0.8;" x="57.6" xlink:href="#m87077bdb75" y="245.22202"/>
      </g>
     </g>
     <g id="text_7">
      <!-- 0.2 -->
      <g transform="translate(25.155 251.30077)scale(0.16 -0.16)">
       <use xlink:href="#DejaVuSans-48"/>
       <use x="63.623047" xlink:href="#DejaVuSans-46"/>
       <use x="95.410156" xlink:href="#DejaVuSans-50"/>
      </g>
     </g>
    </g>
    <g id="ytick_3">
     <g id="line2d_29">
      <path clip-path="url(#pfcb1bee171)" d="M 57.6 191.50004 
L 338.688 191.50004 
" style="fill:none;stroke:#b0b0b0;stroke-linecap:square;stroke-width:0.8;"/>
     </g>
     <g id="line2d_30">
      <g>
       <use style="stroke:#000000;stroke-width:0.8;" x="57.6" xlink:href="#m87077bdb75" y="191.50004"/>
      </g>
     </g>
     <g id="text_8">
      <!-- 0.4 -->
      <g transform="translate(25.155 197.57879)scale(0.16 -0.16)">
       <use xlink:href="#DejaVuSans-48"/>
       <use x="63.623047" xlink:href="#DejaVuSans-46"/>
       <use x="95.410156" xlink:href="#DejaVuSans-52"/>
      </g>
     </g>
    </g>
    <g id="ytick_4">
     <g id="line2d_31">
      <path clip-path="url(#pfcb1bee171)" d="M 57.6 137.778059 
L 338.688 137.778059 
" style="fill:none;stroke:#b0b0b0;stroke-linecap:square;stroke-width:0.8;"/>
     </g>
     <g id="line2d_32">
      <g>
       <use style="stroke:#000000;stroke-width:0.8;" x="57.6" xlink:href="#m87077bdb75" y="137.778059"/>
      </g>
     </g>
     <g id="text_9">
      <!-- 0.6 -->
      <g transform="translate(25.155 143.856809)scale(0.16 -0.16)">
       <use xlink:href="#DejaVuSans-48"/>
       <use x="63.623047" xlink:href="#DejaVuSans-46"/>
       <use x="95.410156" xlink:href="#DejaVuSans-54"/>
      </g>
     </g>
    </g>
    <g id="ytick_5">
     <g id="line2d_33">
      <path clip-path="url(#pfcb1bee171)" d="M 57.6 84.056079 
L 338.688 84.056079 
" style="fill:none;stroke:#b0b0b0;stroke-linecap:square;stroke-width:0.8;"/>
     </g>
     <g id="line2d_34">
      <g>
       <use style="stroke:#000000;stroke-width:0.8;" x="57.6" xlink:href="#m87077bdb75" y="84.056079"/>
      </g>
     </g>
     <g id="text_10">
      <!-- 0.8 -->
      <defs>
       <path d="M 31.78125 34.625 
Q 24.75 34.625 20.71875 30.859375 
Q 16.703125 27.09375 16.703125 20.515625 
Q 16.703125 13.921875 20.71875 10.15625 
Q 24.75 6.390625 31.78125 6.390625 
Q 38.8125 6.390625 42.859375 10.171875 
Q 46.921875 13.96875 46.921875 20.515625 
Q 46.921875 27.09375 42.890625 30.859375 
Q 38.875 34.625 31.78125 34.625 
z
M 21.921875 38.8125 
Q 15.578125 40.375 12.03125 44.71875 
Q 8.5 49.078125 8.5 55.328125 
Q 8.5 64.0625 14.71875 69.140625 
Q 20.953125 74.21875 31.78125 74.21875 
Q 42.671875 74.21875 48.875 69.140625 
Q 55.078125 64.0625 55.078125 55.328125 
Q 55.078125 49.078125 51.53125 44.71875 
Q 48 40.375 41.703125 38.8125 
Q 48.828125 37.15625 52.796875 32.3125 
Q 56.78125 27.484375 56.78125 20.515625 
Q 56.78125 9.90625 50.3125 4.234375 
Q 43.84375 -1.421875 31.78125 -1.421875 
Q 19.734375 -1.421875 13.25 4.234375 
Q 6.78125 9.90625 6.78125 20.515625 
Q 6.78125 27.484375 10.78125 32.3125 
Q 14.796875 37.15625 21.921875 38.8125 
z
M 18.3125 54.390625 
Q 18.3125 48.734375 21.84375 45.5625 
Q 25.390625 42.390625 31.78125 42.390625 
Q 38.140625 42.390625 41.71875 45.5625 
Q 45.3125 48.734375 45.3125 54.390625 
Q 45.3125 60.0625 41.71875 63.234375 
Q 38.140625 66.40625 31.78125 66.40625 
Q 25.390625 66.40625 21.84375 63.234375 
Q 18.3125 60.0625 18.3125 54.390625 
z
" id="DejaVuSans-56"/>
      </defs>
      <g transform="translate(25.155 90.134829)scale(0.16 -0.16)">
       <use xlink:href="#DejaVuSans-48"/>
       <use x="63.623047" xlink:href="#DejaVuSans-46"/>
       <use x="95.410156" xlink:href="#DejaVuSans-56"/>
      </g>
     </g>
    </g>
    <g id="ytick_6">
     <g id="line2d_35">
      <path clip-path="url(#pfcb1bee171)" d="M 57.6 30.334099 
L 338.688 30.334099 
" style="fill:none;stroke:#b0b0b0;stroke-linecap:square;stroke-width:0.8;"/>
     </g>
     <g id="line2d_36">
      <g>
       <use style="stroke:#000000;stroke-width:0.8;" x="57.6" xlink:href="#m87077bdb75" y="30.334099"/>
      </g>
     </g>
     <g id="text_11">
      <!-- 1.0 -->
      <g transform="translate(25.155 36.412849)scale(0.16 -0.16)">
       <use xlink:href="#DejaVuSans-49"/>
       <use x="63.623047" xlink:href="#DejaVuSans-46"/>
       <use x="95.410156" xlink:href="#DejaVuSans-48"/>
      </g>
     </g>
    </g>
    <g id="text_12">
     <!-- Fraction of function,target pairs -->
     <defs>
      <path d="M 9.8125 72.90625 
L 51.703125 72.90625 
L 51.703125 64.59375 
L 19.671875 64.59375 
L 19.671875 43.109375 
L 48.578125 43.109375 
L 48.578125 34.8125 
L 19.671875 34.8125 
L 19.671875 0 
L 9.8125 0 
z
" id="DejaVuSans-70"/>
      <path d="M 41.109375 46.296875 
Q 39.59375 47.171875 37.8125 47.578125 
Q 36.03125 48 33.890625 48 
Q 26.265625 48 22.1875 43.046875 
Q 18.109375 38.09375 18.109375 28.8125 
L 18.109375 0 
L 9.078125 0 
L 9.078125 54.6875 
L 18.109375 54.6875 
L 18.109375 46.1875 
Q 20.953125 51.171875 25.484375 53.578125 
Q 30.03125 56 36.53125 56 
Q 37.453125 56 38.578125 55.875 
Q 39.703125 55.765625 41.0625 55.515625 
z
" id="DejaVuSans-114"/>
      <path d="M 48.78125 52.59375 
L 48.78125 44.1875 
Q 44.96875 46.296875 41.140625 47.34375 
Q 37.3125 48.390625 33.40625 48.390625 
Q 24.65625 48.390625 19.8125 42.84375 
Q 14.984375 37.3125 14.984375 27.296875 
Q 14.984375 17.28125 19.8125 11.734375 
Q 24.65625 6.203125 33.40625 6.203125 
Q 37.3125 6.203125 41.140625 7.25 
Q 44.96875 8.296875 48.78125 10.40625 
L 48.78125 2.09375 
Q 45.015625 0.34375 40.984375 -0.53125 
Q 36.96875 -1.421875 32.421875 -1.421875 
Q 20.0625 -1.421875 12.78125 6.34375 
Q 5.515625 14.109375 5.515625 27.296875 
Q 5.515625 40.671875 12.859375 48.328125 
Q 20.21875 56 33.015625 56 
Q 37.15625 56 41.109375 55.140625 
Q 45.0625 54.296875 48.78125 52.59375 
z
" id="DejaVuSans-99"/>
      <path d="M 18.3125 70.21875 
L 18.3125 54.6875 
L 36.8125 54.6875 
L 36.8125 47.703125 
L 18.3125 47.703125 
L 18.3125 18.015625 
Q 18.3125 11.328125 20.140625 9.421875 
Q 21.96875 7.515625 27.59375 7.515625 
L 36.8125 7.515625 
L 36.8125 0 
L 27.59375 0 
Q 17.1875 0 13.234375 3.875 
Q 9.28125 7.765625 9.28125 18.015625 
L 9.28125 47.703125 
L 2.6875 47.703125 
L 2.6875 54.6875 
L 9.28125 54.6875 
L 9.28125 70.21875 
z
" id="DejaVuSans-116"/>
      <path d="M 8.5 21.578125 
L 8.5 54.6875 
L 17.484375 54.6875 
L 17.484375 21.921875 
Q 17.484375 14.15625 20.5 10.265625 
Q 23.53125 6.390625 29.59375 6.390625 
Q 36.859375 6.390625 41.078125 11.03125 
Q 45.3125 15.671875 45.3125 23.6875 
L 45.3125 54.6875 
L 54.296875 54.6875 
L 54.296875 0 
L 45.3125 0 
L 45.3125 8.40625 
Q 42.046875 3.421875 37.71875 1 
Q 33.40625 -1.421875 27.6875 -1.421875 
Q 18.265625 -1.421875 13.375 4.4375 
Q 8.5 10.296875 8.5 21.578125 
z
M 31.109375 56 
z
" id="DejaVuSans-117"/>
      <path d="M 11.71875 12.40625 
L 22.015625 12.40625 
L 22.015625 4 
L 14.015625 -11.625 
L 7.71875 -11.625 
L 11.71875 4 
z
" id="DejaVuSans-44"/>
      <path d="M 18.109375 8.203125 
L 18.109375 -20.796875 
L 9.078125 -20.796875 
L 9.078125 54.6875 
L 18.109375 54.6875 
L 18.109375 46.390625 
Q 20.953125 51.265625 25.265625 53.625 
Q 29.59375 56 35.59375 56 
Q 45.5625 56 51.78125 48.09375 
Q 58.015625 40.1875 58.015625 27.296875 
Q 58.015625 14.40625 51.78125 6.484375 
Q 45.5625 -1.421875 35.59375 -1.421875 
Q 29.59375 -1.421875 25.265625 0.953125 
Q 20.953125 3.328125 18.109375 8.203125 
z
M 48.6875 27.296875 
Q 48.6875 37.203125 44.609375 42.84375 
Q 40.53125 48.484375 33.40625 48.484375 
Q 26.265625 48.484375 22.1875 42.84375 
Q 18.109375 37.203125 18.109375 27.296875 
Q 18.109375 17.390625 22.1875 11.75 
Q 26.265625 6.109375 33.40625 6.109375 
Q 40.53125 6.109375 44.609375 11.75 
Q 48.6875 17.390625 48.6875 27.296875 
z
" id="DejaVuSans-112"/>
     </defs>
     <g transform="translate(17.619531 298.435375)rotate(-90)scale(0.17 -0.17)">
      <use xlink:href="#DejaVuSans-70"/>
      <use x="57.410156" xlink:href="#DejaVuSans-114"/>
      <use x="98.523438" xlink:href="#DejaVuSans-97"/>
      <use x="159.802734" xlink:href="#DejaVuSans-99"/>
      <use x="214.783203" xlink:href="#DejaVuSans-116"/>
      <use x="253.992188" xlink:href="#DejaVuSans-105"/>
      <use x="281.775391" xlink:href="#DejaVuSans-111"/>
      <use x="342.957031" xlink:href="#DejaVuSans-110"/>
      <use x="406.335938" xlink:href="#DejaVuSans-32"/>
      <use x="438.123047" xlink:href="#DejaVuSans-111"/>
      <use x="499.304688" xlink:href="#DejaVuSans-102"/>
      <use x="534.509766" xlink:href="#DejaVuSans-32"/>
      <use x="566.296875" xlink:href="#DejaVuSans-102"/>
      <use x="601.501953" xlink:href="#DejaVuSans-117"/>
      <use x="664.880859" xlink:href="#DejaVuSans-110"/>
      <use x="728.259766" xlink:href="#DejaVuSans-99"/>
      <use x="783.240234" xlink:href="#DejaVuSans-116"/>
      <use x="822.449219" xlink:href="#DejaVuSans-105"/>
      <use x="850.232422" xlink:href="#DejaVuSans-111"/>
      <use x="911.414062" xlink:href="#DejaVuSans-110"/>
      <use x="974.792969" xlink:href="#DejaVuSans-44"/>
      <use x="1006.580078" xlink:href="#DejaVuSans-116"/>
      <use x="1045.789062" xlink:href="#DejaVuSans-97"/>
      <use x="1107.068359" xlink:href="#DejaVuSans-114"/>
      <use x="1148.166016" xlink:href="#DejaVuSans-103"/>
      <use x="1211.642578" xlink:href="#DejaVuSans-101"/>
      <use x="1273.166016" xlink:href="#DejaVuSans-116"/>
      <use x="1312.375" xlink:href="#DejaVuSans-32"/>
      <use x="1344.162109" xlink:href="#DejaVuSans-112"/>
      <use x="1407.638672" xlink:href="#DejaVuSans-97"/>
      <use x="1468.917969" xlink:href="#DejaVuSans-105"/>
      <use x="1496.701172" xlink:href="#DejaVuSans-114"/>
      <use x="1537.814453" xlink:href="#DejaVuSans-115"/>
     </g>
    </g>
   </g>
   <g id="line2d_37">
    <defs>
     <path d="M 0 1.5 
C 0.397805 1.5 0.77937 1.341951 1.06066 1.06066 
C 1.341951 0.77937 1.5 0.397805 1.5 0 
C 1.5 -0.397805 1.341951 -0.77937 1.06066 -1.06066 
C 0.77937 -1.341951 0.397805 -1.5 0 -1.5 
C -0.397805 -1.5 -0.77937 -1.341951 -1.06066 -1.06066 
C -1.341951 -0.77937 -1.5 -0.397805 -1.5 0 
C -1.5 0.397805 -1.341951 0.77937 -1.06066 1.06066 
C -0.77937 1.341951 -0.397805 1.5 0 1.5 
z
" id="med154a3b35" style="stroke:#000080;"/>
    </defs>
    <g>
     <use style="fill:#000080;stroke:#000080;" x="158.562073" xlink:href="#med154a3b35" y="30.334099"/>
     <use style="fill:#000080;stroke:#000080;" x="158.562073" xlink:href="#med154a3b35" y="30.334099"/>
    </g>
   </g>
   <g id="line2d_38">
    <path d="M 133.488207 298.944 
L 133.488207 298.417314 
L 134.019394 298.417314 
L 134.062938 295.783884 
L 134.149701 295.783884 
L 134.149701 295.257197 
L 134.279041 295.257197 
L 134.279041 294.203825 
L 134.703375 294.203825 
L 134.703375 293.677139 
L 134.828688 293.677139 
L 134.911732 292.623767 
L 135.117629 292.623767 
L 135.158519 291.570395 
L 135.280614 291.570395 
L 135.321124 290.517023 
L 135.839358 290.517023 
L 135.839358 289.990337 
L 136.073445 289.990337 
L 136.073445 289.463651 
L 136.304433 289.463651 
L 136.304433 288.936964 
L 136.456742 288.936964 
L 136.456742 287.883592 
L 136.68274 287.883592 
L 136.68274 286.83022 
L 137.016339 286.83022 
L 137.016339 285.776848 
L 137.307607 285.776848 
L 137.415591 283.143418 
L 137.48721 283.143418 
L 137.594091 281.036673 
L 138.358484 281.036673 
L 138.358484 279.983301 
L 138.493936 279.983301 
L 138.493936 279.456615 
L 138.69516 279.456615 
L 138.69516 278.929929 
L 139.188293 278.929929 
L 139.188293 278.403243 
L 139.445704 278.403243 
L 139.445704 276.823185 
L 139.69937 276.823185 
L 139.69937 276.296499 
L 139.918342 276.296499 
L 140.011351 274.71644 
L 140.103868 274.71644 
L 140.134598 273.663068 
L 140.378508 273.663068 
L 140.378508 273.136382 
L 140.589166 273.136382 
L 140.678675 272.08301 
L 140.973763 272.08301 
L 141.032186 270.502952 
L 141.321401 270.502952 
L 141.407239 268.922893 
L 141.435758 268.922893 
L 141.435758 268.396207 
L 141.577657 268.396207 
L 141.577657 267.869521 
L 141.69035 267.869521 
L 141.69035 265.762777 
L 141.858037 265.762777 
L 141.858037 265.236091 
L 142.106582 265.236091 
L 142.106582 264.709405 
L 142.297475 264.709405 
L 142.297475 264.182719 
L 142.459451 264.182719 
L 142.486301 263.129347 
L 142.593291 263.129347 
L 142.673105 262.075974 
L 142.778958 262.075974 
L 142.778958 261.549288 
L 142.962669 261.549288 
L 142.962669 261.022602 
L 143.60342 261.022602 
L 143.678752 258.915858 
L 143.778691 258.915858 
L 143.87806 257.862486 
L 144.050606 257.862486 
L 144.050606 256.809114 
L 144.172816 256.809114 
L 144.197155 255.755741 
L 144.366588 255.755741 
L 144.366588 255.229055 
L 144.510517 255.229055 
L 144.582038 253.122311 
L 144.629556 253.122311 
L 144.700592 251.542253 
L 144.91198 251.542253 
L 144.981877 250.488881 
L 145.097753 250.488881 
L 145.120836 249.435508 
L 145.304409 249.435508 
L 145.304409 247.85545 
L 145.418169 247.85545 
L 145.463466 246.275392 
L 145.553708 246.275392 
L 145.553708 245.748706 
L 145.688202 245.748706 
L 145.688202 245.22202 
L 145.843812 245.22202 
L 145.843812 244.695334 
L 146.06373 244.695334 
L 146.06373 244.168648 
L 146.194362 244.168648 
L 146.237689 242.061903 
L 146.474085 242.061903 
L 146.516724 241.008531 
L 146.686244 241.008531 
L 146.686244 240.481845 
L 146.833235 240.481845 
L 146.854132 238.375101 
L 147.082371 238.375101 
L 147.185137 236.268356 
L 147.307662 236.268356 
L 147.307662 235.74167 
L 147.509976 235.74167 
L 147.590249 233.634926 
L 147.70997 233.634926 
L 147.809113 231.528182 
L 147.86833 231.528182 
L 147.888024 229.948123 
L 148.005725 229.948123 
L 148.005725 229.421437 
L 148.161434 229.421437 
L 148.258051 223.101204 
L 148.334961 223.101204 
L 148.411533 221.521146 
L 148.48777 221.521146 
L 148.582601 218.887716 
L 148.601505 218.887716 
L 148.639252 217.834344 
L 148.975352 217.834344 
L 149.030744 215.727599 
L 149.122675 215.727599 
L 149.232356 211.514111 
L 149.25057 211.514111 
L 149.341352 208.88068 
L 149.377533 208.88068 
L 149.485628 206.24725 
L 149.503579 206.24725 
L 149.575199 203.613819 
L 149.628721 203.613819 
L 149.717561 200.980389 
L 149.752971 200.980389 
L 149.85877 197.293586 
L 149.876341 197.293586 
L 149.928949 196.240214 
L 150.033689 196.240214 
L 150.137805 193.080098 
L 150.206871 193.080098 
L 150.309961 187.286551 
L 150.327083 187.286551 
L 150.412445 184.653121 
L 150.446473 184.653121 
L 150.446473 184.126434 
L 150.56505 184.126434 
L 150.598782 182.01969 
L 150.73306 182.01969 
L 150.816462 177.806202 
L 150.849711 177.806202 
L 150.932558 174.646085 
L 150.965587 174.646085 
L 151.015013 172.012655 
L 151.113448 172.012655 
L 151.21133 168.852538 
L 151.243836 168.852538 
L 151.340991 165.165736 
L 151.389366 165.165736 
L 151.485716 161.478933 
L 151.517715 161.478933 
L 151.565603 159.898875 
L 151.740076 159.898875 
L 151.834513 157.265444 
L 151.897188 157.265444 
L 151.944047 155.685386 
L 152.052897 155.685386 
L 152.161072 151.471897 
L 152.176471 151.471897 
L 152.237931 149.365153 
L 152.299175 149.365153 
L 152.39064 143.571606 
L 152.421022 143.571606 
L 152.526944 139.884804 
L 152.602211 139.884804 
L 152.707042 136.724687 
L 152.751777 136.724687 
L 152.855715 130.93114 
L 152.900071 130.93114 
L 153.003132 128.29771 
L 153.120174 128.29771 
L 153.178403 125.137593 
L 153.279836 125.137593 
L 153.380683 120.924105 
L 153.40939 120.924105 
L 153.495227 117.237302 
L 153.523746 117.237302 
L 153.609024 112.497128 
L 153.651507 112.497128 
L 153.736164 109.337011 
L 153.778339 109.337011 
L 153.876352 106.703581 
L 153.904255 106.703581 
L 153.973817 105.650209 
L 154.015422 105.650209 
L 154.098334 101.43672 
L 154.167129 101.43672 
L 154.262987 97.749917 
L 154.331136 97.749917 
L 154.412564 93.009743 
L 154.453136 93.009743 
L 154.547439 85.636137 
L 154.667942 85.636137 
L 154.761093 81.422649 
L 154.89331 81.422649 
L 154.998366 80.369277 
L 155.076745 80.369277 
L 155.180705 78.262532 
L 155.193657 78.262532 
L 155.296925 76.682474 
L 155.335493 76.682474 
L 155.437927 74.049044 
L 155.450689 74.049044 
L 155.55245 69.835555 
L 155.565128 69.835555 
L 155.666226 66.675439 
L 155.691409 66.675439 
L 155.779264 64.568694 
L 155.816782 64.568694 
L 155.916435 60.881892 
L 155.928852 60.881892 
L 156.015522 58.775147 
L 156.052535 58.775147 
L 156.150854 54.034973 
L 156.199806 54.034973 
L 156.199806 53.508287 
L 156.370066 53.508287 
L 156.418408 51.928228 
L 156.49067 51.928228 
L 156.598505 48.768112 
L 156.646219 48.768112 
L 156.705677 46.134681 
L 156.776762 46.134681 
L 156.859328 44.554623 
L 156.953214 44.554623 
L 157.023299 42.974565 
L 157.174189 42.974565 
L 157.197287 40.341135 
L 157.300853 40.341135 
L 157.300853 38.761076 
L 157.58535 38.761076 
L 157.686643 37.181018 
L 157.709073 37.181018 
L 157.709073 36.654332 
L 157.831925 36.654332 
L 157.831925 36.127646 
L 157.953917 36.127646 
L 157.953917 35.60096 
L 158.096998 35.60096 
L 158.173558 32.967529 
L 158.325678 32.967529 
L 158.325678 31.914157 
L 158.51933 31.914157 
L 158.562073 30.334099 
L 338.688 30.334099 
L 338.688 30.334099 
" style="fill:none;stroke:#000080;stroke-linecap:square;stroke-width:1.5;"/>
   </g>
   <g id="line2d_39">
    <defs>
     <path d="M 0 6 
C 1.591219 6 3.117479 5.367802 4.242641 4.242641 
C 5.367802 3.117479 6 1.591219 6 0 
C 6 -1.591219 5.367802 -3.117479 4.242641 -4.242641 
C 3.117479 -5.367802 1.591219 -6 0 -6 
C -1.591219 -6 -3.117479 -5.367802 -4.242641 -4.242641 
C -5.367802 -3.117479 -6 -1.591219 -6 0 
C -6 1.591219 -5.367802 3.117479 -4.242641 4.242641 
C -3.117479 5.367802 -1.591219 6 0 6 
z
" id="ma24aa2c4f8" style="stroke:#000080;stroke-width:1.5;"/>
    </defs>
    <g>
     <use style="fill-opacity:0;stroke:#000080;stroke-width:1.5;" x="150.982078" xlink:href="#ma24aa2c4f8" y="174.119399"/>
     <use style="fill-opacity:0;stroke:#000080;stroke-width:1.5;" x="158.562073" xlink:href="#ma24aa2c4f8" y="31.387471"/>
     <use style="fill-opacity:0;stroke:#000080;stroke-width:1.5;" x="158.562073" xlink:href="#ma24aa2c4f8" y="30.334099"/>
     <use style="fill-opacity:0;stroke:#000080;stroke-width:1.5;" x="158.562073" xlink:href="#ma24aa2c4f8" y="30.334099"/>
     <use style="fill-opacity:0;stroke:#000080;stroke-width:1.5;" x="338.688" xlink:href="#ma24aa2c4f8" y="30.334099"/>
    </g>
   </g>
   <g id="line2d_40">
    <path style="fill:none;stroke:#000080;stroke-linecap:square;stroke-width:1.5;"/>
    <g/>
   </g>
   <g id="line2d_41">
    <defs>
     <path d="M 0 1.5 
C 0.397805 1.5 0.77937 1.341951 1.06066 1.06066 
C 1.341951 0.77937 1.5 0.397805 1.5 0 
C 1.5 -0.397805 1.341951 -0.77937 1.06066 -1.06066 
C 0.77937 -1.341951 0.397805 -1.5 0 -1.5 
C -0.397805 -1.5 -0.77937 -1.341951 -1.06066 -1.06066 
C -1.341951 -0.77937 -1.5 -0.397805 -1.5 0 
C -1.5 0.397805 -1.341951 0.77937 -1.06066 1.06066 
C -0.77937 1.341951 -0.397805 1.5 0 1.5 
z
" id="m86917afc19" style="stroke:#ff0000;"/>
    </defs>
    <g>
     <use style="fill:#ff0000;stroke:#ff0000;" x="135.721125" xlink:href="#m86917afc19" y="30.334099"/>
     <use style="fill:#ff0000;stroke:#ff0000;" x="135.721125" xlink:href="#m86917afc19" y="30.334099"/>
    </g>
   </g>
   <g id="line2d_42">
    <path d="M 104.826449 298.944 
L 104.826449 298.417314 
L 105.51043 298.417314 
L 105.51043 297.890628 
L 105.732589 297.890628 
L 105.732589 297.363942 
L 106.168594 297.363942 
L 106.168594 296.31057 
L 106.382575 296.31057 
L 106.382575 295.257197 
L 106.593963 295.257197 
L 106.593963 293.150453 
L 106.802819 293.150453 
L 106.802819 291.043709 
L 107.009204 291.043709 
L 107.009204 290.517023 
L 107.213174 290.517023 
L 107.213174 289.463651 
L 107.614095 289.463651 
L 107.614095 288.936964 
L 107.811151 288.936964 
L 107.811151 287.356906 
L 108.389302 287.356906 
L 108.389302 285.776848 
L 108.577836 285.776848 
L 108.577836 285.250162 
L 108.764355 285.250162 
L 108.764355 284.723476 
L 109.31223 284.723476 
L 109.31223 283.143418 
L 109.491096 283.143418 
L 109.491096 282.616732 
L 109.668146 282.616732 
L 109.668146 279.983301 
L 109.843417 279.983301 
L 109.843417 279.456615 
L 110.016944 279.456615 
L 110.016944 276.296499 
L 110.358901 276.296499 
L 110.358901 275.769812 
L 110.527398 275.769812 
L 110.527398 275.243126 
L 110.859585 275.243126 
L 110.859585 274.189754 
L 111.185562 274.189754 
L 111.185562 273.663068 
L 111.346294 273.663068 
L 111.346294 271.556324 
L 111.505558 271.556324 
L 111.505558 270.502952 
L 111.663381 270.502952 
L 111.663381 269.976266 
L 111.819788 269.976266 
L 111.819788 268.396207 
L 112.128456 268.396207 
L 112.128456 265.236091 
L 112.431755 265.236091 
L 112.431755 262.60266 
L 112.58145 262.60266 
L 112.58145 262.075974 
L 112.72987 262.075974 
L 112.72987 258.389172 
L 112.877038 258.389172 
L 112.877038 256.282427 
L 113.022974 256.282427 
L 113.022974 255.229055 
L 113.167699 255.229055 
L 113.167699 254.175683 
L 113.311233 254.175683 
L 113.311233 251.542253 
L 113.453595 251.542253 
L 113.453595 249.962195 
L 113.594805 249.962195 
L 113.594805 246.275392 
L 113.73488 246.275392 
L 113.73488 244.168648 
L 113.873839 244.168648 
L 113.873839 242.588589 
L 114.0117 242.588589 
L 114.0117 241.535217 
L 114.148479 241.535217 
L 114.148479 238.375101 
L 114.284194 238.375101 
L 114.284194 235.74167 
L 114.418861 235.74167 
L 114.418861 234.161612 
L 114.552496 234.161612 
L 114.552496 229.948123 
L 114.816733 229.948123 
L 114.816733 226.261321 
L 114.947365 226.261321 
L 114.947365 224.154577 
L 115.077025 224.154577 
L 115.077025 223.101204 
L 115.205729 223.101204 
L 115.205729 220.99446 
L 115.33349 220.99446 
L 115.33349 219.941088 
L 115.460322 219.941088 
L 115.460322 214.674227 
L 115.711251 214.674227 
L 115.711251 214.147541 
L 115.835374 214.147541 
L 115.835374 213.094169 
L 115.958621 213.094169 
L 115.958621 210.460738 
L 116.081002 210.460738 
L 116.081002 208.88068 
L 116.202531 208.88068 
L 116.202531 205.720564 
L 116.323218 205.720564 
L 116.323218 202.033761 
L 116.443076 202.033761 
L 116.443076 199.400331 
L 116.562116 199.400331 
L 116.562116 197.293586 
L 116.680349 197.293586 
L 116.680349 195.713528 
L 116.797786 195.713528 
L 116.797786 192.553412 
L 116.914437 192.553412 
L 116.914437 190.973354 
L 117.030313 190.973354 
L 117.030313 186.759865 
L 117.145424 186.759865 
L 117.145424 185.179807 
L 117.259781 185.179807 
L 117.259781 178.859574 
L 117.373392 178.859574 
L 117.373392 176.226143 
L 117.486268 176.226143 
L 117.486268 174.646085 
L 117.598418 174.646085 
L 117.598418 174.119399 
L 117.709852 174.119399 
L 117.820578 172.539341 
L 117.930605 172.539341 
L 118.039942 167.27248 
L 118.148599 167.27248 
L 118.256582 160.952247 
L 118.363901 160.952247 
L 118.470564 156.212072 
L 118.576578 156.212072 
L 118.681952 149.891839 
L 118.786692 149.891839 
L 118.890808 142.518234 
L 118.994305 142.518234 
L 118.994305 139.358118 
L 119.199476 139.358118 
L 119.301163 134.091257 
L 119.40226 134.091257 
L 119.502775 130.93114 
L 119.602714 130.93114 
L 119.702083 125.66428 
L 119.80089 125.66428 
L 119.89914 120.924105 
L 119.996839 120.924105 
L 120.093994 117.763988 
L 120.190611 117.763988 
L 120.286695 114.603872 
L 120.382253 114.603872 
L 120.47729 111.970441 
L 120.571812 111.970441 
L 120.665825 103.543464 
L 120.759333 103.543464 
L 120.759333 101.43672 
L 120.944859 101.43672 
L 121.036887 96.169859 
L 121.128432 96.169859 
L 121.219499 90.902998 
L 121.310093 90.902998 
L 121.310093 89.849626 
L 121.489881 89.849626 
L 121.579085 88.796254 
L 121.667835 88.796254 
L 121.756135 86.68951 
L 121.84399 86.68951 
L 121.84399 86.162824 
L 122.104932 86.162824 
L 122.104932 85.636137 
L 122.276749 85.636137 
L 122.362027 82.476021 
L 122.44689 82.476021 
L 122.531342 79.842591 
L 122.615387 79.842591 
L 122.615387 79.315904 
L 122.782271 79.315904 
L 122.865118 76.682474 
L 123.029641 76.682474 
L 123.029641 76.155788 
L 123.354102 76.155788 
L 123.434283 71.942299 
L 123.829748 71.942299 
L 123.907776 69.835555 
L 123.985457 69.835555 
L 123.985457 68.255497 
L 124.368753 68.255497 
L 124.368753 67.202125 
L 124.669438 67.202125 
L 124.669438 66.675439 
L 124.817858 66.675439 
L 124.817858 66.148752 
L 125.327602 66.148752 
L 125.327602 65.09538 
L 125.541584 65.09538 
L 125.612332 62.988636 
L 125.752972 62.988636 
L 125.752972 62.46195 
L 126.168212 62.46195 
L 126.168212 61.408578 
L 126.304457 61.408578 
L 126.372183 58.775147 
L 126.439646 58.775147 
L 126.439646 58.248461 
L 126.573795 58.248461 
L 126.573795 57.721775 
L 126.70692 57.721775 
L 126.773103 56.668403 
L 126.904721 56.668403 
L 126.904721 55.615031 
L 127.293718 55.615031 
L 127.293718 54.561659 
L 127.611382 54.561659 
L 127.674226 53.508287 
L 127.985095 53.508287 
L 128.046609 51.401542 
L 128.229861 51.401542 
L 128.229861 50.34817 
L 128.768338 50.34817 
L 128.768338 48.241426 
L 128.885774 48.241426 
L 128.944197 46.661368 
L 129.118302 46.661368 
L 129.175952 45.081309 
L 129.233413 45.081309 
L 129.233413 44.554623 
L 129.574256 44.554623 
L 129.630422 42.974565 
L 129.853291 42.974565 
L 129.853291 41.921193 
L 130.182344 41.921193 
L 130.182344 41.394507 
L 130.61164 41.394507 
L 130.664567 40.341135 
L 131.133813 40.341135 
L 131.133813 39.814448 
L 131.287464 39.814448 
L 131.338382 38.761076 
L 131.439773 38.761076 
L 131.439773 38.23439 
L 131.640805 38.23439 
L 131.690703 36.654332 
L 132.036046 36.654332 
L 132.036046 36.127646 
L 132.326708 36.127646 
L 132.326708 35.60096 
L 132.70687 35.60096 
L 132.753813 34.020902 
L 133.711505 34.020902 
L 133.711505 33.494215 
L 134.062938 33.494215 
L 134.149701 32.440843 
L 134.61933 32.440843 
L 134.61933 31.914157 
L 135.117629 31.914157 
L 135.117629 31.387471 
L 135.280614 31.387471 
L 135.280614 30.860785 
L 135.721125 30.860785 
L 135.721125 30.334099 
L 338.688 30.334099 
L 338.688 30.334099 
" style="fill:none;stroke:#ff0000;stroke-linecap:square;stroke-width:1.5;"/>
   </g>
   <g id="line2d_43">
    <defs>
     <path d="M 0 -6 
L -5.196152 -3 
L -5.196152 3 
L -0 6 
L 5.196152 3 
L 5.196152 -3 
z
" id="m371640400e" style="stroke:#ff0000;stroke-linejoin:miter;stroke-width:1.5;"/>
    </defs>
    <g>
     <use style="fill-opacity:0;stroke:#ff0000;stroke-linejoin:miter;stroke-width:1.5;" x="124.669438" xlink:href="#m371640400e" y="67.202125"/>
     <use style="fill-opacity:0;stroke:#ff0000;stroke-linejoin:miter;stroke-width:1.5;" x="135.721125" xlink:href="#m371640400e" y="30.860785"/>
     <use style="fill-opacity:0;stroke:#ff0000;stroke-linejoin:miter;stroke-width:1.5;" x="135.721125" xlink:href="#m371640400e" y="30.334099"/>
     <use style="fill-opacity:0;stroke:#ff0000;stroke-linejoin:miter;stroke-width:1.5;" x="135.721125" xlink:href="#m371640400e" y="30.334099"/>
     <use style="fill-opacity:0;stroke:#ff0000;stroke-linejoin:miter;stroke-width:1.5;" x="338.688" xlink:href="#m371640400e" y="30.334099"/>
    </g>
   </g>
   <g id="line2d_44">
    <path style="fill:none;stroke:#ff0000;stroke-linecap:square;stroke-width:1.5;"/>
    <g/>
   </g>
   <g id="line2d_45">
    <defs>
     <path d="M 0 1.5 
C 0.397805 1.5 0.77937 1.341951 1.06066 1.06066 
C 1.341951 0.77937 1.5 0.397805 1.5 0 
C 1.5 -0.397805 1.341951 -0.77937 1.06066 -1.06066 
C 0.77937 -1.341951 0.397805 -1.5 0 -1.5 
C -0.397805 -1.5 -0.77937 -1.341951 -1.06066 -1.06066 
C -1.341951 -0.77937 -1.5 -0.397805 -1.5 0 
C -1.5 0.397805 -1.341951 0.77937 -1.06066 1.06066 
C -0.77937 1.341951 -0.397805 1.5 0 1.5 
z
" id="ma914f2776d" style="stroke:#bebebe;"/>
    </defs>
    <g>
     <use style="fill:#bebebe;stroke:#bebebe;" x="182.764712" xlink:href="#ma914f2776d" y="30.334099"/>
     <use style="fill:#bebebe;stroke:#bebebe;" x="182.764712" xlink:href="#ma914f2776d" y="30.334099"/>
    </g>
   </g>
   <g id="line2d_46">
    <path d="M 99.41757 298.944 
L 99.41757 298.417314 
L 101.506816 298.417314 
L 101.506816 296.31057 
L 103.117741 296.31057 
L 103.117741 295.257197 
L 103.372333 295.257197 
L 103.372333 291.043709 
L 103.623262 291.043709 
L 103.623262 290.517023 
L 103.870632 290.517023 
L 103.870632 289.990337 
L 104.826449 289.990337 
L 104.826449 285.776848 
L 105.057436 285.776848 
L 105.057436 280.509987 
L 105.285403 280.509987 
L 105.285403 278.929929 
L 105.51043 278.929929 
L 105.51043 278.403243 
L 106.382575 278.403243 
L 106.382575 275.243126 
L 106.593963 275.243126 
L 106.593963 262.60266 
L 106.802819 262.60266 
L 106.802819 259.442544 
L 107.009204 259.442544 
L 107.009204 258.915858 
L 107.811151 258.915858 
L 107.811151 255.229055 
L 108.006005 255.229055 
L 108.006005 247.328764 
L 108.198707 247.328764 
L 108.198707 245.748706 
L 108.389302 245.748706 
L 108.389302 241.535217 
L 108.577836 241.535217 
L 108.577836 241.008531 
L 109.131511 241.008531 
L 109.131511 236.268356 
L 109.31223 236.268356 
L 109.31223 232.054868 
L 109.491096 232.054868 
L 109.491096 228.368065 
L 109.668146 228.368065 
L 109.668146 225.207949 
L 110.358901 225.207949 
L 110.358901 223.101204 
L 110.527398 223.101204 
L 110.527398 217.834344 
L 110.694282 217.834344 
L 110.694282 216.780971 
L 110.859585 216.780971 
L 110.859585 213.620855 
L 111.023335 213.620855 
L 111.023335 213.094169 
L 111.505558 213.094169 
L 111.505558 211.514111 
L 111.663381 211.514111 
L 111.663381 205.720564 
L 111.819788 205.720564 
L 111.819788 203.613819 
L 111.974805 203.613819 
L 111.974805 200.453703 
L 112.128456 200.453703 
L 112.128456 198.873645 
L 112.72987 198.873645 
L 112.72987 187.813237 
L 113.022974 187.813237 
L 113.022974 183.599748 
L 113.167699 183.599748 
L 113.167699 181.493004 
L 113.311233 181.493004 
L 113.311233 179.38626 
L 113.594805 179.38626 
L 113.594805 177.279515 
L 113.73488 177.279515 
L 113.73488 176.226143 
L 113.873839 176.226143 
L 113.873839 173.066027 
L 114.0117 173.066027 
L 114.0117 172.539341 
L 114.148479 172.539341 
L 114.148479 167.799166 
L 114.284194 167.799166 
L 114.284194 165.692422 
L 114.685115 165.692422 
L 114.685115 162.005619 
L 114.816733 162.005619 
L 114.816733 160.952247 
L 115.077025 160.952247 
L 115.077025 157.79213 
L 115.205729 157.79213 
L 115.205729 156.738758 
L 115.33349 156.738758 
L 115.33349 156.212072 
L 115.586238 156.212072 
L 115.586238 155.685386 
L 115.711251 155.685386 
L 115.711251 155.1587 
L 115.958621 155.1587 
L 115.958621 154.105328 
L 116.081002 154.105328 
L 116.081002 152.52527 
L 116.443076 152.52527 
L 116.443076 150.418525 
L 116.562116 150.418525 
L 116.562116 149.891839 
L 116.680349 149.891839 
L 116.680349 149.365153 
L 116.797786 149.365153 
L 116.797786 148.838467 
L 116.914437 148.838467 
L 116.914437 144.624978 
L 117.030313 144.624978 
L 117.030313 143.571606 
L 117.259781 143.571606 
L 117.259781 142.518234 
L 117.486268 142.518234 
L 117.486268 141.991548 
L 117.598418 141.991548 
L 117.598418 139.884804 
L 117.709852 139.884804 
L 117.820578 136.198001 
L 117.930605 136.198001 
L 117.930605 135.144629 
L 118.256582 135.144629 
L 118.363901 131.984513 
L 118.470564 131.984513 
L 118.576578 129.351082 
L 119.097192 129.351082 
L 119.097192 125.66428 
L 119.40226 125.66428 
L 119.502775 124.610907 
L 119.80089 124.610907 
L 119.80089 123.030849 
L 119.996839 123.030849 
L 119.996839 121.977477 
L 120.190611 121.977477 
L 120.286695 120.924105 
L 120.47729 120.924105 
L 120.571812 119.344047 
L 120.759333 119.344047 
L 120.759333 117.763988 
L 120.944859 117.763988 
L 120.944859 116.710616 
L 121.128432 116.710616 
L 121.219499 115.657244 
L 121.400219 115.657244 
L 121.400219 114.603872 
L 121.579085 114.603872 
L 121.579085 114.077186 
L 121.84399 114.077186 
L 121.84399 112.497128 
L 122.018385 112.497128 
L 122.018385 110.917069 
L 122.276749 110.917069 
L 122.276749 110.390383 
L 122.44689 110.390383 
L 122.44689 109.863697 
L 122.699028 109.863697 
L 122.699028 108.810325 
L 122.865118 108.810325 
L 122.865118 108.283639 
L 123.111324 108.283639 
L 123.111324 107.756953 
L 123.273551 107.756953 
L 123.273551 107.230267 
L 124.062793 107.230267 
L 124.062793 106.703581 
L 124.444412 106.703581 
L 124.444412 106.176895 
L 124.669438 106.176895 
L 124.669438 105.650209 
L 125.255688 105.650209 
L 125.255688 105.123522 
L 125.541584 105.123522 
L 125.541584 104.596836 
L 125.682793 104.596836 
L 125.682793 103.543464 
L 126.168212 103.543464 
L 126.168212 103.016778 
L 126.50685 103.016778 
L 126.50685 102.490092 
L 126.70692 102.490092 
L 126.70692 101.963406 
L 127.100304 101.963406 
L 127.100304 101.43672 
L 128.885774 101.43672 
L 128.885774 100.910034 
L 129.686407 100.910034 
L 129.686407 100.383348 
L 130.505303 100.383348 
L 130.505303 99.856662 
L 131.236397 99.856662 
L 131.236397 98.803289 
L 131.590764 98.803289 
L 131.590764 97.749917 
L 132.470242 97.749917 
L 132.470242 97.223231 
L 155.063706 97.223231 
L 155.063706 96.169859 
L 155.928852 96.169859 
L 155.928852 95.643173 
L 156.077167 95.643173 
L 156.077167 95.116487 
L 156.333721 95.116487 
L 156.394253 93.009743 
L 156.454576 93.009743 
L 156.454576 91.95637 
L 156.717545 91.95637 
L 156.717545 90.902998 
L 156.999969 90.902998 
L 157.069866 87.742882 
L 157.197287 87.742882 
L 157.197287 87.216196 
L 157.312322 87.216196 
L 157.312322 86.68951 
L 157.517493 86.68951 
L 157.551454 84.056079 
L 157.652944 84.056079 
L 157.652944 83.529393 
L 157.787352 83.529393 
L 157.831925 82.476021 
L 158.075062 82.476021 
L 158.118907 80.895963 
L 158.195371 80.895963 
L 158.304027 77.735846 
L 158.444276 77.735846 
L 158.551397 75.629102 
L 158.763686 75.629102 
L 158.774233 74.57573 
L 158.9003 74.57573 
L 158.9003 74.049044 
L 159.035853 74.049044 
L 159.129083 71.942299 
L 159.201253 71.942299 
L 159.293606 68.782183 
L 159.334496 68.782183 
L 159.436301 66.148752 
L 159.728221 66.148752 
L 159.758143 63.515322 
L 159.916863 63.515322 
L 160.015335 59.82852 
L 160.074152 59.82852 
L 160.123015 57.721775 
L 160.518612 57.721775 
L 160.518612 57.195089 
L 160.632719 57.195089 
L 160.632719 56.668403 
L 160.746084 56.668403 
L 160.746084 56.141717 
L 160.961329 56.141717 
L 161.054091 54.561659 
L 161.100288 54.561659 
L 161.137157 52.454914 
L 161.274728 52.454914 
L 161.338558 50.34817 
L 161.902754 50.34817 
L 161.902754 49.821484 
L 162.034438 49.821484 
L 162.078112 48.768112 
L 162.440724 48.768112 
L 162.534461 47.188054 
L 162.787576 47.188054 
L 162.787576 46.661368 
L 175.281243 46.661368 
L 175.362888 44.554623 
L 175.415753 44.554623 
L 175.415753 44.027937 
L 175.565343 44.027937 
L 175.565343 43.501251 
L 175.681699 43.501251 
L 175.713661 42.447879 
L 175.825069 42.447879 
L 175.825069 41.394507 
L 181.164269 41.394507 
L 181.245843 39.287762 
L 181.390568 39.287762 
L 181.428 36.654332 
L 181.619658 36.654332 
L 181.69347 35.60096 
L 181.738737 35.60096 
L 181.738737 34.547588 
L 182.357718 34.547588 
L 182.357718 34.020902 
L 182.582604 34.020902 
L 182.644413 31.387471 
L 182.764712 31.387471 
L 182.764712 30.334099 
L 338.688 30.334099 
L 338.688 30.334099 
" style="fill:none;stroke:#bebebe;stroke-linecap:square;stroke-width:1.5;"/>
   </g>
   <g id="line2d_47">
    <defs>
     <path d="M 0 0 
L -6 -0 
M 0 0 
L 3 4.8 
M 0 0 
L 3 -4.8 
" id="m18fca95b47" style="stroke:#bebebe;stroke-width:1.5;"/>
    </defs>
    <g>
     <use style="fill-opacity:0;stroke:#bebebe;stroke-width:1.5;" x="132.470242" xlink:href="#m18fca95b47" y="97.223231"/>
     <use style="fill-opacity:0;stroke:#bebebe;stroke-width:1.5;" x="182.764712" xlink:href="#m18fca95b47" y="31.387471"/>
     <use style="fill-opacity:0;stroke:#bebebe;stroke-width:1.5;" x="182.764712" xlink:href="#m18fca95b47" y="30.334099"/>
     <use style="fill-opacity:0;stroke:#bebebe;stroke-width:1.5;" x="182.764712" xlink:href="#m18fca95b47" y="30.334099"/>
     <use style="fill-opacity:0;stroke:#bebebe;stroke-width:1.5;" x="338.688" xlink:href="#m18fca95b47" y="30.334099"/>
    </g>
   </g>
   <g id="line2d_48">
    <path style="fill:none;stroke:#bebebe;stroke-linecap:square;stroke-width:1.5;"/>
    <g/>
   </g>
   <g id="line2d_49">
    <defs>
     <path d="M 0 1.5 
C 0.397805 1.5 0.77937 1.341951 1.06066 1.06066 
C 1.341951 0.77937 1.5 0.397805 1.5 0 
C 1.5 -0.397805 1.341951 -0.77937 1.06066 -1.06066 
C 0.77937 -1.341951 0.397805 -1.5 0 -1.5 
C -0.397805 -1.5 -0.77937 -1.341951 -1.06066 -1.06066 
C -1.341951 -0.77937 -1.5 -0.397805 -1.5 0 
C -1.5 0.397805 -1.341951 0.77937 -1.06066 1.06066 
C -0.77937 1.341951 -0.397805 1.5 0 1.5 
z
" id="mdd4f4c8b22" style="stroke:#6495ed;"/>
    </defs>
    <g>
     <use style="fill:#6495ed;stroke:#6495ed;" x="254.225384" xlink:href="#mdd4f4c8b22" y="30.334099"/>
     <use style="fill:#6495ed;stroke:#6495ed;" x="254.225384" xlink:href="#mdd4f4c8b22" y="30.334099"/>
    </g>
   </g>
   <g id="line2d_50">
    <path d="M 99.41757 298.944 
L 99.41757 297.890628 
L 101.506816 297.890628 
L 101.506816 296.837256 
L 103.117741 296.837256 
L 103.117741 295.783884 
L 103.372333 295.783884 
L 103.372333 291.043709 
L 103.623262 291.043709 
L 103.623262 290.517023 
L 103.870632 290.517023 
L 103.870632 289.990337 
L 104.826449 289.990337 
L 104.826449 286.303534 
L 105.057436 286.303534 
L 105.057436 282.616732 
L 105.285403 282.616732 
L 105.285403 279.456615 
L 105.51043 279.456615 
L 105.51043 278.403243 
L 106.382575 278.403243 
L 106.382575 274.71644 
L 106.593963 274.71644 
L 106.593963 266.289463 
L 106.802819 266.289463 
L 106.802819 263.656033 
L 107.009204 263.656033 
L 107.009204 263.129347 
L 107.811151 263.129347 
L 107.811151 258.915858 
L 108.006005 258.915858 
L 108.006005 253.122311 
L 108.198707 253.122311 
L 108.198707 252.068939 
L 108.389302 252.068939 
L 108.389302 246.275392 
L 108.577836 246.275392 
L 108.577836 245.748706 
L 109.131511 245.748706 
L 109.131511 243.641962 
L 109.31223 243.641962 
L 109.31223 239.955159 
L 109.491096 239.955159 
L 109.491096 236.795043 
L 109.668146 236.795043 
L 109.668146 230.47481 
L 110.358901 230.47481 
L 110.358901 229.948123 
L 110.527398 229.948123 
L 110.527398 220.467774 
L 110.694282 220.467774 
L 110.694282 217.834344 
L 110.859585 217.834344 
L 110.859585 213.620855 
L 111.185562 213.620855 
L 111.185562 213.094169 
L 111.505558 213.094169 
L 111.505558 211.514111 
L 111.663381 211.514111 
L 111.663381 203.613819 
L 111.819788 203.613819 
L 111.819788 200.980389 
L 111.974805 200.980389 
L 111.974805 198.346959 
L 112.128456 198.346959 
L 112.128456 196.7669 
L 112.58145 196.7669 
L 112.58145 195.186842 
L 112.72987 195.186842 
L 112.72987 190.446667 
L 112.877038 190.446667 
L 112.877038 188.866609 
L 113.022974 188.866609 
L 113.022974 182.546376 
L 113.167699 182.546376 
L 113.167699 180.966318 
L 113.311233 180.966318 
L 113.311233 179.38626 
L 113.73488 179.38626 
L 113.73488 175.172771 
L 113.873839 175.172771 
L 113.873839 171.485969 
L 114.0117 171.485969 
L 114.0117 166.219108 
L 114.148479 166.219108 
L 114.148479 164.112363 
L 114.284194 164.112363 
L 114.284194 162.005619 
L 114.685115 162.005619 
L 114.685115 158.318817 
L 114.816733 158.318817 
L 114.816733 150.418525 
L 114.947365 150.418525 
L 114.947365 145.151665 
L 115.077025 145.151665 
L 115.077025 141.464862 
L 115.460322 141.464862 
L 115.460322 140.938176 
L 115.711251 140.938176 
L 115.711251 137.778059 
L 115.835374 137.778059 
L 115.835374 133.564571 
L 115.958621 133.564571 
L 115.958621 130.93114 
L 116.081002 130.93114 
L 116.081002 128.29771 
L 116.202531 128.29771 
L 116.202531 127.771024 
L 116.323218 127.771024 
L 116.323218 126.717652 
L 116.443076 126.717652 
L 116.443076 126.190966 
L 116.562116 126.190966 
L 116.562116 122.504163 
L 116.797786 122.504163 
L 116.797786 117.237302 
L 116.914437 117.237302 
L 116.914437 114.603872 
L 117.030313 114.603872 
L 117.030313 114.077186 
L 117.373392 114.077186 
L 117.373392 113.5505 
L 117.486268 113.5505 
L 117.486268 112.497128 
L 117.598418 112.497128 
L 117.598418 108.283639 
L 117.709852 108.283639 
L 117.820578 106.176895 
L 118.363901 106.176895 
L 118.470564 104.596836 
L 118.576578 104.596836 
L 118.681952 100.910034 
L 119.097192 100.910034 
L 119.199476 99.329976 
L 119.40226 99.329976 
L 119.502775 97.749917 
L 119.702083 97.749917 
L 119.702083 97.223231 
L 119.89914 97.223231 
L 119.89914 93.536429 
L 120.190611 93.536429 
L 120.190611 93.009743 
L 121.400219 93.009743 
L 121.400219 92.483056 
L 122.018385 92.483056 
L 122.104932 90.376312 
L 122.699028 90.376312 
L 122.782271 88.269568 
L 123.192626 88.269568 
L 123.192626 87.742882 
L 123.354102 87.742882 
L 123.434283 86.68951 
L 123.985457 86.68951 
L 124.062793 84.056079 
L 124.292765 84.056079 
L 124.292765 83.529393 
L 124.594752 83.529393 
L 124.594752 83.002707 
L 124.965026 83.002707 
L 124.965026 82.476021 
L 125.183475 82.476021 
L 125.183475 81.949335 
L 126.304457 81.949335 
L 126.304457 81.422649 
L 127.293718 81.422649 
L 127.293718 80.895963 
L 127.799239 80.895963 
L 127.799239 80.369277 
L 128.885774 80.369277 
L 128.885774 79.842591 
L 130.558552 79.842591 
L 130.558552 79.315904 
L 136.304433 79.315904 
L 136.342635 78.262532 
L 136.570107 78.262532 
L 136.570107 77.735846 
L 136.831795 77.735846 
L 136.905847 76.682474 
L 138.153314 76.682474 
L 138.153314 76.155788 
L 138.861092 76.155788 
L 138.861092 74.57573 
L 139.285267 74.57573 
L 139.285267 74.049044 
L 139.541262 74.049044 
L 139.541262 73.522358 
L 143.066785 73.522358 
L 143.066785 72.995672 
L 143.40093 72.995672 
L 143.40093 72.468985 
L 143.828447 72.468985 
L 143.828447 71.942299 
L 144.245733 71.942299 
L 144.245733 71.415613 
L 144.55823 71.415613 
L 144.55823 70.888927 
L 144.724207 70.888927 
L 144.724207 70.362241 
L 147.368603 70.362241 
L 147.368603 69.835555 
L 147.630247 69.835555 
L 147.630247 69.308869 
L 149.449671 69.308869 
L 149.449671 68.782183 
L 150.998554 68.782183 
L 150.998554 68.255497 
L 156.502685 68.255497 
L 156.586556 66.675439 
L 156.670026 66.675439 
L 156.670026 64.568694 
L 157.231877 64.568694 
L 157.231877 64.042008 
L 158.228039 64.042008 
L 158.293192 62.988636 
L 158.422772 62.988636 
L 158.422772 62.46195 
L 159.827761 62.46195 
L 159.827761 61.935264 
L 160.670589 61.935264 
L 160.670589 61.408578 
L 160.802491 61.408578 
L 160.802491 60.881892 
L 163.66156 60.881892 
L 163.66156 59.301833 
L 168.734207 59.301833 
L 168.829244 58.248461 
L 177.696161 58.248461 
L 177.785001 55.088345 
L 177.838089 55.088345 
L 177.838089 54.561659 
L 185.810104 54.561659 
L 185.830228 53.508287 
L 186.498817 53.508287 
L 186.60388 51.928228 
L 186.640183 51.928228 
L 186.640183 51.401542 
L 188.586052 51.401542 
L 188.586052 50.874856 
L 195.377545 50.874856 
L 195.387883 49.821484 
L 207.033684 49.821484 
L 207.084621 47.71474 
L 214.045421 47.71474 
L 214.045421 47.188054 
L 214.2253 47.188054 
L 214.22837 45.081309 
L 214.479588 45.081309 
L 214.564106 41.394507 
L 219.012685 41.394507 
L 219.012685 40.867821 
L 219.163029 40.867821 
L 219.256956 38.761076 
L 219.814913 38.761076 
L 219.818415 37.181018 
L 222.958993 37.181018 
L 222.958993 36.654332 
L 223.076091 36.654332 
L 223.076091 36.127646 
L 226.456129 36.127646 
L 226.456129 35.60096 
L 228.735565 35.60096 
L 228.748539 33.494215 
L 232.179086 33.494215 
L 232.179086 32.967529 
L 232.736584 32.967529 
L 232.736584 32.440843 
L 233.001467 32.440843 
L 233.001467 31.914157 
L 237.073307 31.914157 
L 237.073307 31.387471 
L 238.712423 31.387471 
L 238.712423 30.860785 
L 254.225384 30.860785 
L 254.225384 30.334099 
L 338.688 30.334099 
L 338.688 30.334099 
" style="fill:none;stroke:#6495ed;stroke-linecap:square;stroke-width:1.5;"/>
   </g>
   <g id="line2d_51">
    <defs>
     <path d="M -0 6 
L 6 -6 
L -6 -6 
z
" id="m699a3e6db3" style="stroke:#6495ed;stroke-linejoin:miter;stroke-width:1.5;"/>
    </defs>
    <g>
     <use style="fill-opacity:0;stroke:#6495ed;stroke-linejoin:miter;stroke-width:1.5;" x="118.681952" xlink:href="#m699a3e6db3" y="103.543464"/>
     <use style="fill-opacity:0;stroke:#6495ed;stroke-linejoin:miter;stroke-width:1.5;" x="177.838089" xlink:href="#m699a3e6db3" y="54.561659"/>
     <use style="fill-opacity:0;stroke:#6495ed;stroke-linejoin:miter;stroke-width:1.5;" x="254.225384" xlink:href="#m699a3e6db3" y="30.334099"/>
     <use style="fill-opacity:0;stroke:#6495ed;stroke-linejoin:miter;stroke-width:1.5;" x="254.225384" xlink:href="#m699a3e6db3" y="30.334099"/>
     <use style="fill-opacity:0;stroke:#6495ed;stroke-linejoin:miter;stroke-width:1.5;" x="338.688" xlink:href="#m699a3e6db3" y="30.334099"/>
    </g>
   </g>
   <g id="line2d_52">
    <path style="fill:none;stroke:#6495ed;stroke-linecap:square;stroke-width:1.5;"/>
    <g/>
   </g>
   <g id="line2d_53">
    <path clip-path="url(#pfcb1bee171)" d="M 230.858679 33.494215 
" style="fill:none;stroke:#6495ed;stroke-linecap:square;stroke-width:1.5;"/>
    <defs>
     <path d="M -12 12 
L 12 -12 
M -12 -12 
L 12 12 
" id="m77f253c15d" style="stroke:#6495ed;"/>
    </defs>
    <g clip-path="url(#pfcb1bee171)">
     <use style="fill:#6495ed;stroke:#6495ed;" x="230.858679" xlink:href="#m77f253c15d" y="33.494215"/>
    </g>
   </g>
   <g id="line2d_54">
    <path d="M 338.688 30.334099 
L 369.60768 293.571802 
" style="fill:none;stroke:#6495ed;stroke-linecap:square;stroke-width:1.5;"/>
    <g>
     <use style="fill-opacity:0;stroke:#6495ed;stroke-linejoin:miter;stroke-width:1.5;" x="338.688" xlink:href="#m699a3e6db3" y="30.334099"/>
     <use style="fill-opacity:0;stroke:#6495ed;stroke-linejoin:miter;stroke-width:1.5;" x="369.60768" xlink:href="#m699a3e6db3" y="293.571802"/>
    </g>
   </g>
   <g id="line2d_55">
    <path d="M 338.688 30.334099 
L 369.60768 207.616634 
" style="fill:none;stroke:#bebebe;stroke-linecap:square;stroke-width:1.5;"/>
    <g>
     <use style="fill-opacity:0;stroke:#bebebe;stroke-width:1.5;" x="338.688" xlink:href="#m18fca95b47" y="30.334099"/>
     <use style="fill-opacity:0;stroke:#bebebe;stroke-width:1.5;" x="369.60768" xlink:href="#m18fca95b47" y="207.616634"/>
    </g>
   </g>
   <g id="line2d_56">
    <path d="M 338.688 30.334099 
L 369.60768 121.661465 
" style="fill:none;stroke:#000080;stroke-linecap:square;stroke-width:1.5;"/>
    <g>
     <use style="fill-opacity:0;stroke:#000080;stroke-width:1.5;" x="338.688" xlink:href="#ma24aa2c4f8" y="30.334099"/>
     <use style="fill-opacity:0;stroke:#000080;stroke-width:1.5;" x="369.60768" xlink:href="#ma24aa2c4f8" y="121.661465"/>
    </g>
   </g>
   <g id="line2d_57">
    <path d="M 338.688 30.334099 
L 369.60768 35.706297 
" style="fill:none;stroke:#ff0000;stroke-linecap:square;stroke-width:1.5;"/>
    <g>
     <use style="fill-opacity:0;stroke:#ff0000;stroke-linejoin:miter;stroke-width:1.5;" x="338.688" xlink:href="#m371640400e" y="30.334099"/>
     <use style="fill-opacity:0;stroke:#ff0000;stroke-linejoin:miter;stroke-width:1.5;" x="369.60768" xlink:href="#m371640400e" y="35.706297"/>
    </g>
   </g>
   <g id="line2d_58">
    <path d="M 338.688 298.944 
L 338.688 30.334099 
" style="fill:none;stroke:#000000;stroke-linecap:square;stroke-width:1.5;"/>
   </g>
   <g id="patch_3">
    <path d="M 57.6 298.944 
L 57.6 27.648 
" style="fill:none;stroke:#000000;stroke-linecap:square;stroke-linejoin:miter;stroke-width:0.8;"/>
   </g>
   <g id="patch_4">
    <path d="M 338.688 298.944 
L 338.688 27.648 
" style="fill:none;stroke:#000000;stroke-linecap:square;stroke-linejoin:miter;stroke-width:0.8;"/>
   </g>
   <g id="patch_5">
    <path d="M 57.6 298.944 
L 338.688 298.944 
" style="fill:none;stroke:#000000;stroke-linecap:square;stroke-linejoin:miter;stroke-width:0.8;"/>
   </g>
   <g id="patch_6">
    <path d="M 57.6 27.648 
L 338.688 27.648 
" style="fill:none;stroke:#000000;stroke-linecap:square;stroke-linejoin:miter;stroke-width:0.8;"/>
   </g>
   <g id="text_13">
    <!-- SLSQP-11  -->
    <defs>
     <path d="M 53.515625 70.515625 
L 53.515625 60.890625 
Q 47.90625 63.578125 42.921875 64.890625 
Q 37.9375 66.21875 33.296875 66.21875 
Q 25.25 66.21875 20.875 63.09375 
Q 16.5 59.96875 16.5 54.203125 
Q 16.5 49.359375 19.40625 46.890625 
Q 22.3125 44.4375 30.421875 42.921875 
L 36.375 41.703125 
Q 47.40625 39.59375 52.65625 34.296875 
Q 57.90625 29 57.90625 20.125 
Q 57.90625 9.515625 50.796875 4.046875 
Q 43.703125 -1.421875 29.984375 -1.421875 
Q 24.8125 -1.421875 18.96875 -0.25 
Q 13.140625 0.921875 6.890625 3.21875 
L 6.890625 13.375 
Q 12.890625 10.015625 18.65625 8.296875 
Q 24.421875 6.59375 29.984375 6.59375 
Q 38.421875 6.59375 43.015625 9.90625 
Q 47.609375 13.234375 47.609375 19.390625 
Q 47.609375 24.75 44.3125 27.78125 
Q 41.015625 30.8125 33.5 32.328125 
L 27.484375 33.5 
Q 16.453125 35.6875 11.515625 40.375 
Q 6.59375 45.0625 6.59375 53.421875 
Q 6.59375 63.09375 13.40625 68.65625 
Q 20.21875 74.21875 32.171875 74.21875 
Q 37.3125 74.21875 42.625 73.28125 
Q 47.953125 72.359375 53.515625 70.515625 
z
" id="DejaVuSans-83"/>
     <path d="M 9.8125 72.90625 
L 19.671875 72.90625 
L 19.671875 8.296875 
L 55.171875 8.296875 
L 55.171875 0 
L 9.8125 0 
z
" id="DejaVuSans-76"/>
     <path d="M 39.40625 66.21875 
Q 28.65625 66.21875 22.328125 58.203125 
Q 16.015625 50.203125 16.015625 36.375 
Q 16.015625 22.609375 22.328125 14.59375 
Q 28.65625 6.59375 39.40625 6.59375 
Q 50.140625 6.59375 56.421875 14.59375 
Q 62.703125 22.609375 62.703125 36.375 
Q 62.703125 50.203125 56.421875 58.203125 
Q 50.140625 66.21875 39.40625 66.21875 
z
M 53.21875 1.3125 
L 66.21875 -12.890625 
L 54.296875 -12.890625 
L 43.5 -1.21875 
Q 41.890625 -1.3125 41.03125 -1.359375 
Q 40.1875 -1.421875 39.40625 -1.421875 
Q 24.03125 -1.421875 14.8125 8.859375 
Q 5.609375 19.140625 5.609375 36.375 
Q 5.609375 53.65625 14.8125 63.9375 
Q 24.03125 74.21875 39.40625 74.21875 
Q 54.734375 74.21875 63.90625 63.9375 
Q 73.09375 53.65625 73.09375 36.375 
Q 73.09375 23.6875 67.984375 14.640625 
Q 62.890625 5.609375 53.21875 1.3125 
z
" id="DejaVuSans-81"/>
     <path d="M 19.671875 64.796875 
L 19.671875 37.40625 
L 32.078125 37.40625 
Q 38.96875 37.40625 42.71875 40.96875 
Q 46.484375 44.53125 46.484375 51.125 
Q 46.484375 57.671875 42.71875 61.234375 
Q 38.96875 64.796875 32.078125 64.796875 
z
M 9.8125 72.90625 
L 32.078125 72.90625 
Q 44.34375 72.90625 50.609375 67.359375 
Q 56.890625 61.8125 56.890625 51.125 
Q 56.890625 40.328125 50.609375 34.8125 
Q 44.34375 29.296875 32.078125 29.296875 
L 19.671875 29.296875 
L 19.671875 0 
L 9.8125 0 
z
" id="DejaVuSans-80"/>
    </defs>
    <g transform="translate(375.22944 298.262739)scale(0.17 -0.17)">
     <use xlink:href="#DejaVuSans-83"/>
     <use x="63.476562" xlink:href="#DejaVuSans-76"/>
     <use x="119.189453" xlink:href="#DejaVuSans-83"/>
     <use x="182.666016" xlink:href="#DejaVuSans-81"/>
     <use x="261.376953" xlink:href="#DejaVuSans-80"/>
     <use x="321.648438" xlink:href="#DejaVuSans-45"/>
     <use x="357.732422" xlink:href="#DejaVuSans-49"/>
     <use x="421.355469" xlink:href="#DejaVuSans-49"/>
     <use x="484.978516" xlink:href="#DejaVuSans-32"/>
    </g>
   </g>
   <g id="text_14">
    <!-- SLSQP+CMA -->
    <defs>
     <path d="M 46 62.703125 
L 46 35.5 
L 73.1875 35.5 
L 73.1875 27.203125 
L 46 27.203125 
L 46 0 
L 37.796875 0 
L 37.796875 27.203125 
L 10.59375 27.203125 
L 10.59375 35.5 
L 37.796875 35.5 
L 37.796875 62.703125 
z
" id="DejaVuSans-43"/>
     <path d="M 64.40625 67.28125 
L 64.40625 56.890625 
Q 59.421875 61.53125 53.78125 63.8125 
Q 48.140625 66.109375 41.796875 66.109375 
Q 29.296875 66.109375 22.65625 58.46875 
Q 16.015625 50.828125 16.015625 36.375 
Q 16.015625 21.96875 22.65625 14.328125 
Q 29.296875 6.6875 41.796875 6.6875 
Q 48.140625 6.6875 53.78125 8.984375 
Q 59.421875 11.28125 64.40625 15.921875 
L 64.40625 5.609375 
Q 59.234375 2.09375 53.4375 0.328125 
Q 47.65625 -1.421875 41.21875 -1.421875 
Q 24.65625 -1.421875 15.125 8.703125 
Q 5.609375 18.84375 5.609375 36.375 
Q 5.609375 53.953125 15.125 64.078125 
Q 24.65625 74.21875 41.21875 74.21875 
Q 47.75 74.21875 53.53125 72.484375 
Q 59.328125 70.75 64.40625 67.28125 
z
" id="DejaVuSans-67"/>
     <path d="M 9.8125 72.90625 
L 24.515625 72.90625 
L 43.109375 23.296875 
L 61.8125 72.90625 
L 76.515625 72.90625 
L 76.515625 0 
L 66.890625 0 
L 66.890625 64.015625 
L 48.09375 14.015625 
L 38.1875 14.015625 
L 19.390625 64.015625 
L 19.390625 0 
L 9.8125 0 
z
" id="DejaVuSans-77"/>
     <path d="M 34.1875 63.1875 
L 20.796875 26.90625 
L 47.609375 26.90625 
z
M 28.609375 72.90625 
L 39.796875 72.90625 
L 67.578125 0 
L 57.328125 0 
L 50.6875 18.703125 
L 17.828125 18.703125 
L 11.1875 0 
L 0.78125 0 
z
" id="DejaVuSans-65"/>
    </defs>
    <g transform="translate(375.22944 212.307571)scale(0.17 -0.17)">
     <use xlink:href="#DejaVuSans-83"/>
     <use x="63.476562" xlink:href="#DejaVuSans-76"/>
     <use x="119.189453" xlink:href="#DejaVuSans-83"/>
     <use x="182.666016" xlink:href="#DejaVuSans-81"/>
     <use x="261.376953" xlink:href="#DejaVuSans-80"/>
     <use x="321.679688" xlink:href="#DejaVuSans-43"/>
     <use x="405.46875" xlink:href="#DejaVuSans-67"/>
     <use x="475.292969" xlink:href="#DejaVuSans-77"/>
     <use x="561.572266" xlink:href="#DejaVuSans-65"/>
    </g>
   </g>
   <g id="text_15">
    <!-- CMA-ES  2 -->
    <defs>
     <path d="M 9.8125 72.90625 
L 55.90625 72.90625 
L 55.90625 64.59375 
L 19.671875 64.59375 
L 19.671875 43.015625 
L 54.390625 43.015625 
L 54.390625 34.71875 
L 19.671875 34.71875 
L 19.671875 8.296875 
L 56.78125 8.296875 
L 56.78125 0 
L 9.8125 0 
z
" id="DejaVuSans-69"/>
    </defs>
    <g transform="translate(375.22944 126.352403)scale(0.17 -0.17)">
     <use xlink:href="#DejaVuSans-67"/>
     <use x="69.824219" xlink:href="#DejaVuSans-77"/>
     <use x="156.103516" xlink:href="#DejaVuSans-65"/>
     <use x="224.480469" xlink:href="#DejaVuSans-45"/>
     <use x="260.564453" xlink:href="#DejaVuSans-69"/>
     <use x="323.748047" xlink:href="#DejaVuSans-83"/>
     <use x="387.224609" xlink:href="#DejaVuSans-32"/>
     <use x="419.011719" xlink:href="#DejaVuSans-32"/>
     <use x="450.798828" xlink:href="#DejaVuSans-50"/>
    </g>
   </g>
   <g id="text_16">
    <!-- lq-CMA-ES -->
    <defs>
     <path d="M 14.796875 27.296875 
Q 14.796875 17.390625 18.875 11.75 
Q 22.953125 6.109375 30.078125 6.109375 
Q 37.203125 6.109375 41.296875 11.75 
Q 45.40625 17.390625 45.40625 27.296875 
Q 45.40625 37.203125 41.296875 42.84375 
Q 37.203125 48.484375 30.078125 48.484375 
Q 22.953125 48.484375 18.875 42.84375 
Q 14.796875 37.203125 14.796875 27.296875 
z
M 45.40625 8.203125 
Q 42.578125 3.328125 38.25 0.953125 
Q 33.9375 -1.421875 27.875 -1.421875 
Q 17.96875 -1.421875 11.734375 6.484375 
Q 5.515625 14.40625 5.515625 27.296875 
Q 5.515625 40.1875 11.734375 48.09375 
Q 17.96875 56 27.875 56 
Q 33.9375 56 38.25 53.625 
Q 42.578125 51.265625 45.40625 46.390625 
L 45.40625 54.6875 
L 54.390625 54.6875 
L 54.390625 -20.796875 
L 45.40625 -20.796875 
z
" id="DejaVuSans-113"/>
    </defs>
    <g transform="translate(375.22944 40.397235)scale(0.17 -0.17)">
     <use xlink:href="#DejaVuSans-108"/>
     <use x="27.783203" xlink:href="#DejaVuSans-113"/>
     <use x="91.259766" xlink:href="#DejaVuSans-45"/>
     <use x="127.34375" xlink:href="#DejaVuSans-67"/>
     <use x="197.167969" xlink:href="#DejaVuSans-77"/>
     <use x="283.447266" xlink:href="#DejaVuSans-65"/>
     <use x="351.824219" xlink:href="#DejaVuSans-45"/>
     <use x="387.908203" xlink:href="#DejaVuSans-69"/>
     <use x="451.091797" xlink:href="#DejaVuSans-83"/>
    </g>
   </g>
   <g id="text_17">
    <!-- bbob f10, 5-D -->
    <defs>
     <path d="M 48.6875 27.296875 
Q 48.6875 37.203125 44.609375 42.84375 
Q 40.53125 48.484375 33.40625 48.484375 
Q 26.265625 48.484375 22.1875 42.84375 
Q 18.109375 37.203125 18.109375 27.296875 
Q 18.109375 17.390625 22.1875 11.75 
Q 26.265625 6.109375 33.40625 6.109375 
Q 40.53125 6.109375 44.609375 11.75 
Q 48.6875 17.390625 48.6875 27.296875 
z
M 18.109375 46.390625 
Q 20.953125 51.265625 25.265625 53.625 
Q 29.59375 56 35.59375 56 
Q 45.5625 56 51.78125 48.09375 
Q 58.015625 40.1875 58.015625 27.296875 
Q 58.015625 14.40625 51.78125 6.484375 
Q 45.5625 -1.421875 35.59375 -1.421875 
Q 29.59375 -1.421875 25.265625 0.953125 
Q 20.953125 3.328125 18.109375 8.203125 
L 18.109375 0 
L 9.078125 0 
L 9.078125 75.984375 
L 18.109375 75.984375 
z
" id="DejaVuSans-98"/>
     <path d="M 10.796875 72.90625 
L 49.515625 72.90625 
L 49.515625 64.59375 
L 19.828125 64.59375 
L 19.828125 46.734375 
Q 21.96875 47.46875 24.109375 47.828125 
Q 26.265625 48.1875 28.421875 48.1875 
Q 40.625 48.1875 47.75 41.5 
Q 54.890625 34.8125 54.890625 23.390625 
Q 54.890625 11.625 47.5625 5.09375 
Q 40.234375 -1.421875 26.90625 -1.421875 
Q 22.3125 -1.421875 17.546875 -0.640625 
Q 12.796875 0.140625 7.71875 1.703125 
L 7.71875 11.625 
Q 12.109375 9.234375 16.796875 8.0625 
Q 21.484375 6.890625 26.703125 6.890625 
Q 35.15625 6.890625 40.078125 11.328125 
Q 45.015625 15.765625 45.015625 23.390625 
Q 45.015625 31 40.078125 35.4375 
Q 35.15625 39.890625 26.703125 39.890625 
Q 22.75 39.890625 18.8125 39.015625 
Q 14.890625 38.140625 10.796875 36.28125 
z
" id="DejaVuSans-53"/>
     <path d="M 19.671875 64.796875 
L 19.671875 8.109375 
L 31.59375 8.109375 
Q 46.6875 8.109375 53.6875 14.9375 
Q 60.6875 21.78125 60.6875 36.53125 
Q 60.6875 51.171875 53.6875 57.984375 
Q 46.6875 64.796875 31.59375 64.796875 
z
M 9.8125 72.90625 
L 30.078125 72.90625 
Q 51.265625 72.90625 61.171875 64.09375 
Q 71.09375 55.28125 71.09375 36.53125 
Q 71.09375 17.671875 61.125 8.828125 
Q 51.171875 0 30.078125 0 
L 9.8125 0 
z
" id="DejaVuSans-68"/>
    </defs>
    <g transform="translate(60.41088 38.111366)scale(0.102 -0.102)">
     <use xlink:href="#DejaVuSans-98"/>
     <use x="63.476562" xlink:href="#DejaVuSans-98"/>
     <use x="126.953125" xlink:href="#DejaVuSans-111"/>
     <use x="188.134766" xlink:href="#DejaVuSans-98"/>
     <use x="251.611328" xlink:href="#DejaVuSans-32"/>
     <use x="283.398438" xlink:href="#DejaVuSans-102"/>
     <use x="318.603516" xlink:href="#DejaVuSans-49"/>
     <use x="382.226562" xlink:href="#DejaVuSans-48"/>
     <use x="445.849609" xlink:href="#DejaVuSans-44"/>
     <use x="477.636719" xlink:href="#DejaVuSans-32"/>
     <use x="509.423828" xlink:href="#DejaVuSans-53"/>
     <use x="573.046875" xlink:href="#DejaVuSans-45"/>
     <use x="609.130859" xlink:href="#DejaVuSans-68"/>
    </g>
    <!-- 51 targets: 100..1e-08 -->
    <defs>
     <path d="M 11.71875 12.40625 
L 22.015625 12.40625 
L 22.015625 0 
L 11.71875 0 
z
M 11.71875 51.703125 
L 22.015625 51.703125 
L 22.015625 39.3125 
L 11.71875 39.3125 
z
" id="DejaVuSans-58"/>
    </defs>
    <g transform="translate(60.41088 49.533135)scale(0.102 -0.102)">
     <use xlink:href="#DejaVuSans-53"/>
     <use x="63.623047" xlink:href="#DejaVuSans-49"/>
     <use x="127.246094" xlink:href="#DejaVuSans-32"/>
     <use x="159.033203" xlink:href="#DejaVuSans-116"/>
     <use x="198.242188" xlink:href="#DejaVuSans-97"/>
     <use x="259.521484" xlink:href="#DejaVuSans-114"/>
     <use x="300.619141" xlink:href="#DejaVuSans-103"/>
     <use x="364.095703" xlink:href="#DejaVuSans-101"/>
     <use x="425.619141" xlink:href="#DejaVuSans-116"/>
     <use x="464.828125" xlink:href="#DejaVuSans-115"/>
     <use x="516.927734" xlink:href="#DejaVuSans-58"/>
     <use x="550.619141" xlink:href="#DejaVuSans-32"/>
     <use x="582.40625" xlink:href="#DejaVuSans-49"/>
     <use x="646.029297" xlink:href="#DejaVuSans-48"/>
     <use x="709.652344" xlink:href="#DejaVuSans-48"/>
     <use x="773.275391" xlink:href="#DejaVuSans-46"/>
     <use x="805.0625" xlink:href="#DejaVuSans-46"/>
     <use x="836.849609" xlink:href="#DejaVuSans-49"/>
     <use x="900.472656" xlink:href="#DejaVuSans-101"/>
     <use x="961.996094" xlink:href="#DejaVuSans-45"/>
     <use x="998.080078" xlink:href="#DejaVuSans-48"/>
     <use x="1061.703125" xlink:href="#DejaVuSans-56"/>
    </g>
    <!-- 15 instances -->
    <g transform="translate(60.41088 60.954904)scale(0.102 -0.102)">
     <use xlink:href="#DejaVuSans-49"/>
     <use x="63.623047" xlink:href="#DejaVuSans-53"/>
     <use x="127.246094" xlink:href="#DejaVuSans-32"/>
     <use x="159.033203" xlink:href="#DejaVuSans-105"/>
     <use x="186.816406" xlink:href="#DejaVuSans-110"/>
     <use x="250.195312" xlink:href="#DejaVuSans-115"/>
     <use x="302.294922" xlink:href="#DejaVuSans-116"/>
     <use x="341.503906" xlink:href="#DejaVuSans-97"/>
     <use x="402.783203" xlink:href="#DejaVuSans-110"/>
     <use x="466.162109" xlink:href="#DejaVuSans-99"/>
     <use x="521.142578" xlink:href="#DejaVuSans-101"/>
     <use x="582.666016" xlink:href="#DejaVuSans-115"/>
    </g>
   </g>
   <g id="text_18">
    <!-- v2.3.2 -->
    <defs>
     <path d="M 40.578125 39.3125 
Q 47.65625 37.796875 51.625 33 
Q 55.609375 28.21875 55.609375 21.1875 
Q 55.609375 10.40625 48.1875 4.484375 
Q 40.765625 -1.421875 27.09375 -1.421875 
Q 22.515625 -1.421875 17.65625 -0.515625 
Q 12.796875 0.390625 7.625 2.203125 
L 7.625 11.71875 
Q 11.71875 9.328125 16.59375 8.109375 
Q 21.484375 6.890625 26.8125 6.890625 
Q 36.078125 6.890625 40.9375 10.546875 
Q 45.796875 14.203125 45.796875 21.1875 
Q 45.796875 27.640625 41.28125 31.265625 
Q 36.765625 34.90625 28.71875 34.90625 
L 20.21875 34.90625 
L 20.21875 43.015625 
L 29.109375 43.015625 
Q 36.375 43.015625 40.234375 45.921875 
Q 44.09375 48.828125 44.09375 54.296875 
Q 44.09375 59.90625 40.109375 62.90625 
Q 36.140625 65.921875 28.71875 65.921875 
Q 24.65625 65.921875 20.015625 65.03125 
Q 15.375 64.15625 9.8125 62.3125 
L 9.8125 71.09375 
Q 15.4375 72.65625 20.34375 73.4375 
Q 25.25 74.21875 29.59375 74.21875 
Q 40.828125 74.21875 47.359375 69.109375 
Q 53.90625 64.015625 53.90625 55.328125 
Q 53.90625 49.265625 50.4375 45.09375 
Q 46.96875 40.921875 40.578125 39.3125 
z
" id="DejaVuSans-51"/>
    </defs>
    <g style="fill:#808080;" transform="translate(182.46275 294.151352)scale(0.1 -0.1)">
     <use xlink:href="#DejaVuSans-118"/>
     <use x="59.179688" xlink:href="#DejaVuSans-50"/>
     <use x="122.802734" xlink:href="#DejaVuSans-46"/>
     <use x="154.589844" xlink:href="#DejaVuSans-51"/>
     <use x="218.212891" xlink:href="#DejaVuSans-46"/>
     <use x="250" xlink:href="#DejaVuSans-50"/>
    </g>
   </g>
   <g id="text_19">
    <!-- 10 Ellipsoid -->
    <g transform="translate(140.784625 21.648)scale(0.2 -0.2)">
     <use xlink:href="#DejaVuSans-49"/>
     <use x="63.623047" xlink:href="#DejaVuSans-48"/>
     <use x="127.246094" xlink:href="#DejaVuSans-32"/>
     <use x="159.033203" xlink:href="#DejaVuSans-69"/>
     <use x="222.216797" xlink:href="#DejaVuSans-108"/>
     <use x="250" xlink:href="#DejaVuSans-108"/>
     <use x="277.783203" xlink:href="#DejaVuSans-105"/>
     <use x="305.566406" xlink:href="#DejaVuSans-112"/>
     <use x="369.042969" xlink:href="#DejaVuSans-115"/>
     <use x="421.142578" xlink:href="#DejaVuSans-111"/>
     <use x="482.324219" xlink:href="#DejaVuSans-105"/>
     <use x="510.107422" xlink:href="#DejaVuSans-100"/>
    </g>
   </g>
  </g>
 </g>
 <defs>
  <clipPath id="pfcb1bee171">
   <rect height="271.296" width="281.088" x="57.6" y="27.648"/>
  </clipPath>
 </defs>
</svg>
