<?xml version="1.0" encoding="utf-8" standalone="no"?>
<!DOCTYPE svg PUBLIC "-//W3C//DTD SVG 1.1//EN"
  "http://www.w3.org/Graphics/SVG/1.1/DTD/svg11.dtd">
<!-- Created with matplotlib (https://matplotlib.org/) -->
<svg height="345.6pt" version="1.1" viewBox="0 0 460.8 345.6" width="460.8pt" xmlns="http://www.w3.org/2000/svg" xmlns:xlink="http://www.w3.org/1999/xlink">
 <defs>
  <style type="text/css">
*{stroke-linecap:butt;stroke-linejoin:round;}
  </style>
 </defs>
 <g id="figure_1">
  <g id="patch_1">
   <path d="M 0 345.6 
L 460.8 345.6 
L 460.8 0 
L 0 0 
z
" style="fill:#ffffff;"/>
  </g>
  <g id="axes_1">
   <g id="patch_2">
    <path d="M 57.6 298.944 
L 338.688 298.944 
L 338.688 27.648 
L 57.6 27.648 
z
" style="fill:#ffffff;"/>
   </g>
   <g id="matplotlib.axis_1">
    <g id="xtick_1">
     <g id="line2d_1">
      <path clip-path="url(#p05252cf86a)" d="M 57.6 298.944 
L 57.6 27.648 
" style="fill:none;stroke:#b0b0b0;stroke-linecap:square;stroke-width:0.8;"/>
     </g>
     <g id="line2d_2">
      <defs>
       <path d="M 0 0 
L 0 3.5 
" id="m085197984e" style="stroke:#000000;stroke-width:0.8;"/>
      </defs>
      <g>
       <use style="stroke:#000000;stroke-width:0.8;" x="57.6" xlink:href="#m085197984e" y="298.944"/>
      </g>
     </g>
     <g id="text_1">
      <!-- 0 -->
      <defs>
       <path d="M 31.78125 66.40625 
Q 24.171875 66.40625 20.328125 58.90625 
Q 16.5 51.421875 16.5 36.375 
Q 16.5 21.390625 20.328125 13.890625 
Q 24.171875 6.390625 31.78125 6.390625 
Q 39.453125 6.390625 43.28125 13.890625 
Q 47.125 21.390625 47.125 36.375 
Q 47.125 51.421875 43.28125 58.90625 
Q 39.453125 66.40625 31.78125 66.40625 
z
M 31.78125 74.21875 
Q 44.046875 74.21875 50.515625 64.515625 
Q 56.984375 54.828125 56.984375 36.375 
Q 56.984375 17.96875 50.515625 8.265625 
Q 44.046875 -1.421875 31.78125 -1.421875 
Q 19.53125 -1.421875 13.0625 8.265625 
Q 6.59375 17.96875 6.59375 36.375 
Q 6.59375 54.828125 13.0625 64.515625 
Q 19.53125 74.21875 31.78125 74.21875 
z
" id="DejaVuSans-48"/>
      </defs>
      <g transform="translate(51.2375 321.140875)scale(0.2 -0.2)">
       <use xlink:href="#DejaVuSans-48"/>
      </g>
     </g>
    </g>
    <g id="xtick_2">
     <g id="line2d_3">
      <path clip-path="url(#p05252cf86a)" d="M 137.910857 298.944 
L 137.910857 27.648 
" style="fill:none;stroke:#b0b0b0;stroke-linecap:square;stroke-width:0.8;"/>
     </g>
     <g id="line2d_4">
      <g>
       <use style="stroke:#000000;stroke-width:0.8;" x="137.910857" xlink:href="#m085197984e" y="298.944"/>
      </g>
     </g>
     <g id="text_2">
      <!-- 2 -->
      <defs>
       <path d="M 19.1875 8.296875 
L 53.609375 8.296875 
L 53.609375 0 
L 7.328125 0 
L 7.328125 8.296875 
Q 12.9375 14.109375 22.625 23.890625 
Q 32.328125 33.6875 34.8125 36.53125 
Q 39.546875 41.84375 41.421875 45.53125 
Q 43.3125 49.21875 43.3125 52.78125 
Q 43.3125 58.59375 39.234375 62.25 
Q 35.15625 65.921875 28.609375 65.921875 
Q 23.96875 65.921875 18.8125 64.3125 
Q 13.671875 62.703125 7.8125 59.421875 
L 7.8125 69.390625 
Q 13.765625 71.78125 18.9375 73 
Q 24.125 74.21875 28.421875 74.21875 
Q 39.75 74.21875 46.484375 68.546875 
Q 53.21875 62.890625 53.21875 53.421875 
Q 53.21875 48.921875 51.53125 44.890625 
Q 49.859375 40.875 45.40625 35.40625 
Q 44.1875 33.984375 37.640625 27.21875 
Q 31.109375 20.453125 19.1875 8.296875 
z
" id="DejaVuSans-50"/>
      </defs>
      <g transform="translate(131.548357 321.140875)scale(0.2 -0.2)">
       <use xlink:href="#DejaVuSans-50"/>
      </g>
     </g>
    </g>
    <g id="xtick_3">
     <g id="line2d_5">
      <path clip-path="url(#p05252cf86a)" d="M 218.221714 298.944 
L 218.221714 27.648 
" style="fill:none;stroke:#b0b0b0;stroke-linecap:square;stroke-width:0.8;"/>
     </g>
     <g id="line2d_6">
      <g>
       <use style="stroke:#000000;stroke-width:0.8;" x="218.221714" xlink:href="#m085197984e" y="298.944"/>
      </g>
     </g>
     <g id="text_3">
      <!-- 4 -->
      <defs>
       <path d="M 37.796875 64.3125 
L 12.890625 25.390625 
L 37.796875 25.390625 
z
M 35.203125 72.90625 
L 47.609375 72.90625 
L 47.609375 25.390625 
L 58.015625 25.390625 
L 58.015625 17.1875 
L 47.609375 17.1875 
L 47.609375 0 
L 37.796875 0 
L 37.796875 17.1875 
L 4.890625 17.1875 
L 4.890625 26.703125 
z
" id="DejaVuSans-52"/>
      </defs>
      <g transform="translate(211.859214 321.140875)scale(0.2 -0.2)">
       <use xlink:href="#DejaVuSans-52"/>
      </g>
     </g>
    </g>
    <g id="xtick_4">
     <g id="line2d_7">
      <path clip-path="url(#p05252cf86a)" d="M 298.532571 298.944 
L 298.532571 27.648 
" style="fill:none;stroke:#b0b0b0;stroke-linecap:square;stroke-width:0.8;"/>
     </g>
     <g id="line2d_8">
      <g>
       <use style="stroke:#000000;stroke-width:0.8;" x="298.532571" xlink:href="#m085197984e" y="298.944"/>
      </g>
     </g>
     <g id="text_4">
      <!-- 6 -->
      <defs>
       <path d="M 33.015625 40.375 
Q 26.375 40.375 22.484375 35.828125 
Q 18.609375 31.296875 18.609375 23.390625 
Q 18.609375 15.53125 22.484375 10.953125 
Q 26.375 6.390625 33.015625 6.390625 
Q 39.65625 6.390625 43.53125 10.953125 
Q 47.40625 15.53125 47.40625 23.390625 
Q 47.40625 31.296875 43.53125 35.828125 
Q 39.65625 40.375 33.015625 40.375 
z
M 52.59375 71.296875 
L 52.59375 62.3125 
Q 48.875 64.0625 45.09375 64.984375 
Q 41.3125 65.921875 37.59375 65.921875 
Q 27.828125 65.921875 22.671875 59.328125 
Q 17.53125 52.734375 16.796875 39.40625 
Q 19.671875 43.65625 24.015625 45.921875 
Q 28.375 48.1875 33.59375 48.1875 
Q 44.578125 48.1875 50.953125 41.515625 
Q 57.328125 34.859375 57.328125 23.390625 
Q 57.328125 12.15625 50.6875 5.359375 
Q 44.046875 -1.421875 33.015625 -1.421875 
Q 20.359375 -1.421875 13.671875 8.265625 
Q 6.984375 17.96875 6.984375 36.375 
Q 6.984375 53.65625 15.1875 63.9375 
Q 23.390625 74.21875 37.203125 74.21875 
Q 40.921875 74.21875 44.703125 73.484375 
Q 48.484375 72.75 52.59375 71.296875 
z
" id="DejaVuSans-54"/>
      </defs>
      <g transform="translate(292.170071 321.140875)scale(0.2 -0.2)">
       <use xlink:href="#DejaVuSans-54"/>
      </g>
     </g>
    </g>
    <g id="xtick_5">
     <g id="line2d_9">
      <path clip-path="url(#p05252cf86a)" d="M 57.6 298.944 
L 57.6 27.648 
" style="fill:none;stroke:#b0b0b0;stroke-linecap:square;stroke-width:0.8;"/>
     </g>
     <g id="line2d_10">
      <defs>
       <path d="M 0 0 
L 0 2 
" id="m6aee9f1edf" style="stroke:#000000;stroke-width:0.6;"/>
      </defs>
      <g>
       <use style="stroke:#000000;stroke-width:0.6;" x="57.6" xlink:href="#m6aee9f1edf" y="298.944"/>
      </g>
     </g>
    </g>
    <g id="xtick_6">
     <g id="line2d_11">
      <path clip-path="url(#p05252cf86a)" d="M 97.755429 298.944 
L 97.755429 27.648 
" style="fill:none;stroke:#b0b0b0;stroke-linecap:square;stroke-width:0.8;"/>
     </g>
     <g id="line2d_12">
      <g>
       <use style="stroke:#000000;stroke-width:0.6;" x="97.755429" xlink:href="#m6aee9f1edf" y="298.944"/>
      </g>
     </g>
    </g>
    <g id="xtick_7">
     <g id="line2d_13">
      <path clip-path="url(#p05252cf86a)" d="M 137.910857 298.944 
L 137.910857 27.648 
" style="fill:none;stroke:#b0b0b0;stroke-linecap:square;stroke-width:0.8;"/>
     </g>
     <g id="line2d_14">
      <g>
       <use style="stroke:#000000;stroke-width:0.6;" x="137.910857" xlink:href="#m6aee9f1edf" y="298.944"/>
      </g>
     </g>
    </g>
    <g id="xtick_8">
     <g id="line2d_15">
      <path clip-path="url(#p05252cf86a)" d="M 178.066286 298.944 
L 178.066286 27.648 
" style="fill:none;stroke:#b0b0b0;stroke-linecap:square;stroke-width:0.8;"/>
     </g>
     <g id="line2d_16">
      <g>
       <use style="stroke:#000000;stroke-width:0.6;" x="178.066286" xlink:href="#m6aee9f1edf" y="298.944"/>
      </g>
     </g>
    </g>
    <g id="xtick_9">
     <g id="line2d_17">
      <path clip-path="url(#p05252cf86a)" d="M 218.221714 298.944 
L 218.221714 27.648 
" style="fill:none;stroke:#b0b0b0;stroke-linecap:square;stroke-width:0.8;"/>
     </g>
     <g id="line2d_18">
      <g>
       <use style="stroke:#000000;stroke-width:0.6;" x="218.221714" xlink:href="#m6aee9f1edf" y="298.944"/>
      </g>
     </g>
    </g>
    <g id="xtick_10">
     <g id="line2d_19">
      <path clip-path="url(#p05252cf86a)" d="M 258.377143 298.944 
L 258.377143 27.648 
" style="fill:none;stroke:#b0b0b0;stroke-linecap:square;stroke-width:0.8;"/>
     </g>
     <g id="line2d_20">
      <g>
       <use style="stroke:#000000;stroke-width:0.6;" x="258.377143" xlink:href="#m6aee9f1edf" y="298.944"/>
      </g>
     </g>
    </g>
    <g id="xtick_11">
     <g id="line2d_21">
      <path clip-path="url(#p05252cf86a)" d="M 298.532571 298.944 
L 298.532571 27.648 
" style="fill:none;stroke:#b0b0b0;stroke-linecap:square;stroke-width:0.8;"/>
     </g>
     <g id="line2d_22">
      <g>
       <use style="stroke:#000000;stroke-width:0.6;" x="298.532571" xlink:href="#m6aee9f1edf" y="298.944"/>
      </g>
     </g>
    </g>
    <g id="xtick_12">
     <g id="line2d_23">
      <path clip-path="url(#p05252cf86a)" d="M 338.688 298.944 
L 338.688 27.648 
" style="fill:none;stroke:#b0b0b0;stroke-linecap:square;stroke-width:0.8;"/>
     </g>
     <g id="line2d_24">
      <g>
       <use style="stroke:#000000;stroke-width:0.6;" x="338.688" xlink:href="#m6aee9f1edf" y="298.944"/>
      </g>
     </g>
    </g>
    <g id="text_5">
     <!-- log10(# f-evals / dimension) -->
     <defs>
      <path d="M 9.421875 75.984375 
L 18.40625 75.984375 
L 18.40625 0 
L 9.421875 0 
z
" id="DejaVuSans-108"/>
      <path d="M 30.609375 48.390625 
Q 23.390625 48.390625 19.1875 42.75 
Q 14.984375 37.109375 14.984375 27.296875 
Q 14.984375 17.484375 19.15625 11.84375 
Q 23.34375 6.203125 30.609375 6.203125 
Q 37.796875 6.203125 41.984375 11.859375 
Q 46.1875 17.53125 46.1875 27.296875 
Q 46.1875 37.015625 41.984375 42.703125 
Q 37.796875 48.390625 30.609375 48.390625 
z
M 30.609375 56 
Q 42.328125 56 49.015625 48.375 
Q 55.71875 40.765625 55.71875 27.296875 
Q 55.71875 13.875 49.015625 6.21875 
Q 42.328125 -1.421875 30.609375 -1.421875 
Q 18.84375 -1.421875 12.171875 6.21875 
Q 5.515625 13.875 5.515625 27.296875 
Q 5.515625 40.765625 12.171875 48.375 
Q 18.84375 56 30.609375 56 
z
" id="DejaVuSans-111"/>
      <path d="M 45.40625 27.984375 
Q 45.40625 37.75 41.375 43.109375 
Q 37.359375 48.484375 30.078125 48.484375 
Q 22.859375 48.484375 18.828125 43.109375 
Q 14.796875 37.75 14.796875 27.984375 
Q 14.796875 18.265625 18.828125 12.890625 
Q 22.859375 7.515625 30.078125 7.515625 
Q 37.359375 7.515625 41.375 12.890625 
Q 45.40625 18.265625 45.40625 27.984375 
z
M 54.390625 6.78125 
Q 54.390625 -7.171875 48.1875 -13.984375 
Q 42 -20.796875 29.203125 -20.796875 
Q 24.46875 -20.796875 20.265625 -20.09375 
Q 16.0625 -19.390625 12.109375 -17.921875 
L 12.109375 -9.1875 
Q 16.0625 -11.328125 19.921875 -12.34375 
Q 23.78125 -13.375 27.78125 -13.375 
Q 36.625 -13.375 41.015625 -8.765625 
Q 45.40625 -4.15625 45.40625 5.171875 
L 45.40625 9.625 
Q 42.625 4.78125 38.28125 2.390625 
Q 33.9375 0 27.875 0 
Q 17.828125 0 11.671875 7.65625 
Q 5.515625 15.328125 5.515625 27.984375 
Q 5.515625 40.671875 11.671875 48.328125 
Q 17.828125 56 27.875 56 
Q 33.9375 56 38.28125 53.609375 
Q 42.625 51.21875 45.40625 46.390625 
L 45.40625 54.6875 
L 54.390625 54.6875 
z
" id="DejaVuSans-103"/>
      <path d="M 12.40625 8.296875 
L 28.515625 8.296875 
L 28.515625 63.921875 
L 10.984375 60.40625 
L 10.984375 69.390625 
L 28.421875 72.90625 
L 38.28125 72.90625 
L 38.28125 8.296875 
L 54.390625 8.296875 
L 54.390625 0 
L 12.40625 0 
z
" id="DejaVuSans-49"/>
      <path d="M 31 75.875 
Q 24.46875 64.65625 21.28125 53.65625 
Q 18.109375 42.671875 18.109375 31.390625 
Q 18.109375 20.125 21.3125 9.0625 
Q 24.515625 -2 31 -13.1875 
L 23.1875 -13.1875 
Q 15.875 -1.703125 12.234375 9.375 
Q 8.59375 20.453125 8.59375 31.390625 
Q 8.59375 42.28125 12.203125 53.3125 
Q 15.828125 64.359375 23.1875 75.875 
z
" id="DejaVuSans-40"/>
      <path d="M 51.125 44 
L 36.921875 44 
L 32.8125 27.6875 
L 47.125 27.6875 
z
M 43.796875 71.78125 
L 38.71875 51.515625 
L 52.984375 51.515625 
L 58.109375 71.78125 
L 65.921875 71.78125 
L 60.890625 51.515625 
L 76.125 51.515625 
L 76.125 44 
L 58.984375 44 
L 54.984375 27.6875 
L 70.515625 27.6875 
L 70.515625 20.21875 
L 53.078125 20.21875 
L 48 0 
L 40.1875 0 
L 45.21875 20.21875 
L 30.90625 20.21875 
L 25.875 0 
L 18.015625 0 
L 23.09375 20.21875 
L 7.71875 20.21875 
L 7.71875 27.6875 
L 24.90625 27.6875 
L 29 44 
L 13.28125 44 
L 13.28125 51.515625 
L 30.90625 51.515625 
L 35.890625 71.78125 
z
" id="DejaVuSans-35"/>
      <path id="DejaVuSans-32"/>
      <path d="M 37.109375 75.984375 
L 37.109375 68.5 
L 28.515625 68.5 
Q 23.6875 68.5 21.796875 66.546875 
Q 19.921875 64.59375 19.921875 59.515625 
L 19.921875 54.6875 
L 34.71875 54.6875 
L 34.71875 47.703125 
L 19.921875 47.703125 
L 19.921875 0 
L 10.890625 0 
L 10.890625 47.703125 
L 2.296875 47.703125 
L 2.296875 54.6875 
L 10.890625 54.6875 
L 10.890625 58.5 
Q 10.890625 67.625 15.140625 71.796875 
Q 19.390625 75.984375 28.609375 75.984375 
z
" id="DejaVuSans-102"/>
      <path d="M 4.890625 31.390625 
L 31.203125 31.390625 
L 31.203125 23.390625 
L 4.890625 23.390625 
z
" id="DejaVuSans-45"/>
      <path d="M 56.203125 29.59375 
L 56.203125 25.203125 
L 14.890625 25.203125 
Q 15.484375 15.921875 20.484375 11.0625 
Q 25.484375 6.203125 34.421875 6.203125 
Q 39.59375 6.203125 44.453125 7.46875 
Q 49.3125 8.734375 54.109375 11.28125 
L 54.109375 2.78125 
Q 49.265625 0.734375 44.1875 -0.34375 
Q 39.109375 -1.421875 33.890625 -1.421875 
Q 20.796875 -1.421875 13.15625 6.1875 
Q 5.515625 13.8125 5.515625 26.8125 
Q 5.515625 40.234375 12.765625 48.109375 
Q 20.015625 56 32.328125 56 
Q 43.359375 56 49.78125 48.890625 
Q 56.203125 41.796875 56.203125 29.59375 
z
M 47.21875 32.234375 
Q 47.125 39.59375 43.09375 43.984375 
Q 39.0625 48.390625 32.421875 48.390625 
Q 24.90625 48.390625 20.390625 44.140625 
Q 15.875 39.890625 15.1875 32.171875 
z
" id="DejaVuSans-101"/>
      <path d="M 2.984375 54.6875 
L 12.5 54.6875 
L 29.59375 8.796875 
L 46.6875 54.6875 
L 56.203125 54.6875 
L 35.6875 0 
L 23.484375 0 
z
" id="DejaVuSans-118"/>
      <path d="M 34.28125 27.484375 
Q 23.390625 27.484375 19.1875 25 
Q 14.984375 22.515625 14.984375 16.5 
Q 14.984375 11.71875 18.140625 8.90625 
Q 21.296875 6.109375 26.703125 6.109375 
Q 34.1875 6.109375 38.703125 11.40625 
Q 43.21875 16.703125 43.21875 25.484375 
L 43.21875 27.484375 
z
M 52.203125 31.203125 
L 52.203125 0 
L 43.21875 0 
L 43.21875 8.296875 
Q 40.140625 3.328125 35.546875 0.953125 
Q 30.953125 -1.421875 24.3125 -1.421875 
Q 15.921875 -1.421875 10.953125 3.296875 
Q 6 8.015625 6 15.921875 
Q 6 25.140625 12.171875 29.828125 
Q 18.359375 34.515625 30.609375 34.515625 
L 43.21875 34.515625 
L 43.21875 35.40625 
Q 43.21875 41.609375 39.140625 45 
Q 35.0625 48.390625 27.6875 48.390625 
Q 23 48.390625 18.546875 47.265625 
Q 14.109375 46.140625 10.015625 43.890625 
L 10.015625 52.203125 
Q 14.9375 54.109375 19.578125 55.046875 
Q 24.21875 56 28.609375 56 
Q 40.484375 56 46.34375 49.84375 
Q 52.203125 43.703125 52.203125 31.203125 
z
" id="DejaVuSans-97"/>
      <path d="M 44.28125 53.078125 
L 44.28125 44.578125 
Q 40.484375 46.53125 36.375 47.5 
Q 32.28125 48.484375 27.875 48.484375 
Q 21.1875 48.484375 17.84375 46.4375 
Q 14.5 44.390625 14.5 40.28125 
Q 14.5 37.15625 16.890625 35.375 
Q 19.28125 33.59375 26.515625 31.984375 
L 29.59375 31.296875 
Q 39.15625 29.25 43.1875 25.515625 
Q 47.21875 21.78125 47.21875 15.09375 
Q 47.21875 7.46875 41.1875 3.015625 
Q 35.15625 -1.421875 24.609375 -1.421875 
Q 20.21875 -1.421875 15.453125 -0.5625 
Q 10.6875 0.296875 5.421875 2 
L 5.421875 11.28125 
Q 10.40625 8.6875 15.234375 7.390625 
Q 20.0625 6.109375 24.8125 6.109375 
Q 31.15625 6.109375 34.5625 8.28125 
Q 37.984375 10.453125 37.984375 14.40625 
Q 37.984375 18.0625 35.515625 20.015625 
Q 33.0625 21.96875 24.703125 23.78125 
L 21.578125 24.515625 
Q 13.234375 26.265625 9.515625 29.90625 
Q 5.8125 33.546875 5.8125 39.890625 
Q 5.8125 47.609375 11.28125 51.796875 
Q 16.75 56 26.8125 56 
Q 31.78125 56 36.171875 55.265625 
Q 40.578125 54.546875 44.28125 53.078125 
z
" id="DejaVuSans-115"/>
      <path d="M 25.390625 72.90625 
L 33.6875 72.90625 
L 8.296875 -9.28125 
L 0 -9.28125 
z
" id="DejaVuSans-47"/>
      <path d="M 45.40625 46.390625 
L 45.40625 75.984375 
L 54.390625 75.984375 
L 54.390625 0 
L 45.40625 0 
L 45.40625 8.203125 
Q 42.578125 3.328125 38.25 0.953125 
Q 33.9375 -1.421875 27.875 -1.421875 
Q 17.96875 -1.421875 11.734375 6.484375 
Q 5.515625 14.40625 5.515625 27.296875 
Q 5.515625 40.1875 11.734375 48.09375 
Q 17.96875 56 27.875 56 
Q 33.9375 56 38.25 53.625 
Q 42.578125 51.265625 45.40625 46.390625 
z
M 14.796875 27.296875 
Q 14.796875 17.390625 18.875 11.75 
Q 22.953125 6.109375 30.078125 6.109375 
Q 37.203125 6.109375 41.296875 11.75 
Q 45.40625 17.390625 45.40625 27.296875 
Q 45.40625 37.203125 41.296875 42.84375 
Q 37.203125 48.484375 30.078125 48.484375 
Q 22.953125 48.484375 18.875 42.84375 
Q 14.796875 37.203125 14.796875 27.296875 
z
" id="DejaVuSans-100"/>
      <path d="M 9.421875 54.6875 
L 18.40625 54.6875 
L 18.40625 0 
L 9.421875 0 
z
M 9.421875 75.984375 
L 18.40625 75.984375 
L 18.40625 64.59375 
L 9.421875 64.59375 
z
" id="DejaVuSans-105"/>
      <path d="M 52 44.1875 
Q 55.375 50.25 60.0625 53.125 
Q 64.75 56 71.09375 56 
Q 79.640625 56 84.28125 50.015625 
Q 88.921875 44.046875 88.921875 33.015625 
L 88.921875 0 
L 79.890625 0 
L 79.890625 32.71875 
Q 79.890625 40.578125 77.09375 44.375 
Q 74.3125 48.1875 68.609375 48.1875 
Q 61.625 48.1875 57.5625 43.546875 
Q 53.515625 38.921875 53.515625 30.90625 
L 53.515625 0 
L 44.484375 0 
L 44.484375 32.71875 
Q 44.484375 40.625 41.703125 44.40625 
Q 38.921875 48.1875 33.109375 48.1875 
Q 26.21875 48.1875 22.15625 43.53125 
Q 18.109375 38.875 18.109375 30.90625 
L 18.109375 0 
L 9.078125 0 
L 9.078125 54.6875 
L 18.109375 54.6875 
L 18.109375 46.1875 
Q 21.1875 51.21875 25.484375 53.609375 
Q 29.78125 56 35.6875 56 
Q 41.65625 56 45.828125 52.96875 
Q 50 49.953125 52 44.1875 
z
" id="DejaVuSans-109"/>
      <path d="M 54.890625 33.015625 
L 54.890625 0 
L 45.90625 0 
L 45.90625 32.71875 
Q 45.90625 40.484375 42.875 44.328125 
Q 39.84375 48.1875 33.796875 48.1875 
Q 26.515625 48.1875 22.3125 43.546875 
Q 18.109375 38.921875 18.109375 30.90625 
L 18.109375 0 
L 9.078125 0 
L 9.078125 54.6875 
L 18.109375 54.6875 
L 18.109375 46.1875 
Q 21.34375 51.125 25.703125 53.5625 
Q 30.078125 56 35.796875 56 
Q 45.21875 56 50.046875 50.171875 
Q 54.890625 44.34375 54.890625 33.015625 
z
" id="DejaVuSans-110"/>
      <path d="M 8.015625 75.875 
L 15.828125 75.875 
Q 23.140625 64.359375 26.78125 53.3125 
Q 30.421875 42.28125 30.421875 31.390625 
Q 30.421875 20.453125 26.78125 9.375 
Q 23.140625 -1.703125 15.828125 -13.1875 
L 8.015625 -13.1875 
Q 14.5 -2 17.703125 9.0625 
Q 20.90625 20.125 20.90625 31.390625 
Q 20.90625 42.671875 17.703125 53.65625 
Q 14.5 64.65625 8.015625 75.875 
z
" id="DejaVuSans-41"/>
     </defs>
     <g transform="translate(77.303219 342.217594)scale(0.17 -0.17)">
      <use xlink:href="#DejaVuSans-108"/>
      <use x="27.783203" xlink:href="#DejaVuSans-111"/>
      <use x="88.964844" xlink:href="#DejaVuSans-103"/>
      <use x="152.441406" xlink:href="#DejaVuSans-49"/>
      <use x="216.064453" xlink:href="#DejaVuSans-48"/>
      <use x="279.6875" xlink:href="#DejaVuSans-40"/>
      <use x="318.701172" xlink:href="#DejaVuSans-35"/>
      <use x="402.490234" xlink:href="#DejaVuSans-32"/>
      <use x="434.277344" xlink:href="#DejaVuSans-102"/>
      <use x="469.404297" xlink:href="#DejaVuSans-45"/>
      <use x="505.488281" xlink:href="#DejaVuSans-101"/>
      <use x="567.011719" xlink:href="#DejaVuSans-118"/>
      <use x="626.191406" xlink:href="#DejaVuSans-97"/>
      <use x="687.470703" xlink:href="#DejaVuSans-108"/>
      <use x="715.253906" xlink:href="#DejaVuSans-115"/>
      <use x="767.353516" xlink:href="#DejaVuSans-32"/>
      <use x="799.140625" xlink:href="#DejaVuSans-47"/>
      <use x="832.832031" xlink:href="#DejaVuSans-32"/>
      <use x="864.619141" xlink:href="#DejaVuSans-100"/>
      <use x="928.095703" xlink:href="#DejaVuSans-105"/>
      <use x="955.878906" xlink:href="#DejaVuSans-109"/>
      <use x="1053.291016" xlink:href="#DejaVuSans-101"/>
      <use x="1114.814453" xlink:href="#DejaVuSans-110"/>
      <use x="1178.193359" xlink:href="#DejaVuSans-115"/>
      <use x="1230.292969" xlink:href="#DejaVuSans-105"/>
      <use x="1258.076172" xlink:href="#DejaVuSans-111"/>
      <use x="1319.257812" xlink:href="#DejaVuSans-110"/>
      <use x="1382.636719" xlink:href="#DejaVuSans-41"/>
     </g>
    </g>
   </g>
   <g id="matplotlib.axis_2">
    <g id="ytick_1">
     <g id="line2d_25">
      <path clip-path="url(#p05252cf86a)" d="M 57.6 298.944 
L 338.688 298.944 
" style="fill:none;stroke:#b0b0b0;stroke-linecap:square;stroke-width:0.8;"/>
     </g>
     <g id="line2d_26">
      <defs>
       <path d="M 0 0 
L -3.5 0 
" id="ma1758916a1" style="stroke:#000000;stroke-width:0.8;"/>
      </defs>
      <g>
       <use style="stroke:#000000;stroke-width:0.8;" x="57.6" xlink:href="#ma1758916a1" y="298.944"/>
      </g>
     </g>
     <g id="text_6">
      <!-- 0.0 -->
      <defs>
       <path d="M 10.6875 12.40625 
L 21 12.40625 
L 21 0 
L 10.6875 0 
z
" id="DejaVuSans-46"/>
      </defs>
      <g transform="translate(25.155 305.02275)scale(0.16 -0.16)">
       <use xlink:href="#DejaVuSans-48"/>
       <use x="63.623047" xlink:href="#DejaVuSans-46"/>
       <use x="95.410156" xlink:href="#DejaVuSans-48"/>
      </g>
     </g>
    </g>
    <g id="ytick_2">
     <g id="line2d_27">
      <path clip-path="url(#p05252cf86a)" d="M 57.6 245.22202 
L 338.688 245.22202 
" style="fill:none;stroke:#b0b0b0;stroke-linecap:square;stroke-width:0.8;"/>
     </g>
     <g id="line2d_28">
      <g>
       <use style="stroke:#000000;stroke-width:0.8;" x="57.6" xlink:href="#ma1758916a1" y="245.22202"/>
      </g>
     </g>
     <g id="text_7">
      <!-- 0.2 -->
      <g transform="translate(25.155 251.30077)scale(0.16 -0.16)">
       <use xlink:href="#DejaVuSans-48"/>
       <use x="63.623047" xlink:href="#DejaVuSans-46"/>
       <use x="95.410156" xlink:href="#DejaVuSans-50"/>
      </g>
     </g>
    </g>
    <g id="ytick_3">
     <g id="line2d_29">
      <path clip-path="url(#p05252cf86a)" d="M 57.6 191.50004 
L 338.688 191.50004 
" style="fill:none;stroke:#b0b0b0;stroke-linecap:square;stroke-width:0.8;"/>
     </g>
     <g id="line2d_30">
      <g>
       <use style="stroke:#000000;stroke-width:0.8;" x="57.6" xlink:href="#ma1758916a1" y="191.50004"/>
      </g>
     </g>
     <g id="text_8">
      <!-- 0.4 -->
      <g transform="translate(25.155 197.57879)scale(0.16 -0.16)">
       <use xlink:href="#DejaVuSans-48"/>
       <use x="63.623047" xlink:href="#DejaVuSans-46"/>
       <use x="95.410156" xlink:href="#DejaVuSans-52"/>
      </g>
     </g>
    </g>
    <g id="ytick_4">
     <g id="line2d_31">
      <path clip-path="url(#p05252cf86a)" d="M 57.6 137.778059 
L 338.688 137.778059 
" style="fill:none;stroke:#b0b0b0;stroke-linecap:square;stroke-width:0.8;"/>
     </g>
     <g id="line2d_32">
      <g>
       <use style="stroke:#000000;stroke-width:0.8;" x="57.6" xlink:href="#ma1758916a1" y="137.778059"/>
      </g>
     </g>
     <g id="text_9">
      <!-- 0.6 -->
      <g transform="translate(25.155 143.856809)scale(0.16 -0.16)">
       <use xlink:href="#DejaVuSans-48"/>
       <use x="63.623047" xlink:href="#DejaVuSans-46"/>
       <use x="95.410156" xlink:href="#DejaVuSans-54"/>
      </g>
     </g>
    </g>
    <g id="ytick_5">
     <g id="line2d_33">
      <path clip-path="url(#p05252cf86a)" d="M 57.6 84.056079 
L 338.688 84.056079 
" style="fill:none;stroke:#b0b0b0;stroke-linecap:square;stroke-width:0.8;"/>
     </g>
     <g id="line2d_34">
      <g>
       <use style="stroke:#000000;stroke-width:0.8;" x="57.6" xlink:href="#ma1758916a1" y="84.056079"/>
      </g>
     </g>
     <g id="text_10">
      <!-- 0.8 -->
      <defs>
       <path d="M 31.78125 34.625 
Q 24.75 34.625 20.71875 30.859375 
Q 16.703125 27.09375 16.703125 20.515625 
Q 16.703125 13.921875 20.71875 10.15625 
Q 24.75 6.390625 31.78125 6.390625 
Q 38.8125 6.390625 42.859375 10.171875 
Q 46.921875 13.96875 46.921875 20.515625 
Q 46.921875 27.09375 42.890625 30.859375 
Q 38.875 34.625 31.78125 34.625 
z
M 21.921875 38.8125 
Q 15.578125 40.375 12.03125 44.71875 
Q 8.5 49.078125 8.5 55.328125 
Q 8.5 64.0625 14.71875 69.140625 
Q 20.953125 74.21875 31.78125 74.21875 
Q 42.671875 74.21875 48.875 69.140625 
Q 55.078125 64.0625 55.078125 55.328125 
Q 55.078125 49.078125 51.53125 44.71875 
Q 48 40.375 41.703125 38.8125 
Q 48.828125 37.15625 52.796875 32.3125 
Q 56.78125 27.484375 56.78125 20.515625 
Q 56.78125 9.90625 50.3125 4.234375 
Q 43.84375 -1.421875 31.78125 -1.421875 
Q 19.734375 -1.421875 13.25 4.234375 
Q 6.78125 9.90625 6.78125 20.515625 
Q 6.78125 27.484375 10.78125 32.3125 
Q 14.796875 37.15625 21.921875 38.8125 
z
M 18.3125 54.390625 
Q 18.3125 48.734375 21.84375 45.5625 
Q 25.390625 42.390625 31.78125 42.390625 
Q 38.140625 42.390625 41.71875 45.5625 
Q 45.3125 48.734375 45.3125 54.390625 
Q 45.3125 60.0625 41.71875 63.234375 
Q 38.140625 66.40625 31.78125 66.40625 
Q 25.390625 66.40625 21.84375 63.234375 
Q 18.3125 60.0625 18.3125 54.390625 
z
" id="DejaVuSans-56"/>
      </defs>
      <g transform="translate(25.155 90.134829)scale(0.16 -0.16)">
       <use xlink:href="#DejaVuSans-48"/>
       <use x="63.623047" xlink:href="#DejaVuSans-46"/>
       <use x="95.410156" xlink:href="#DejaVuSans-56"/>
      </g>
     </g>
    </g>
    <g id="ytick_6">
     <g id="line2d_35">
      <path clip-path="url(#p05252cf86a)" d="M 57.6 30.334099 
L 338.688 30.334099 
" style="fill:none;stroke:#b0b0b0;stroke-linecap:square;stroke-width:0.8;"/>
     </g>
     <g id="line2d_36">
      <g>
       <use style="stroke:#000000;stroke-width:0.8;" x="57.6" xlink:href="#ma1758916a1" y="30.334099"/>
      </g>
     </g>
     <g id="text_11">
      <!-- 1.0 -->
      <g transform="translate(25.155 36.412849)scale(0.16 -0.16)">
       <use xlink:href="#DejaVuSans-49"/>
       <use x="63.623047" xlink:href="#DejaVuSans-46"/>
       <use x="95.410156" xlink:href="#DejaVuSans-48"/>
      </g>
     </g>
    </g>
    <g id="text_12">
     <!-- Fraction of function,target pairs -->
     <defs>
      <path d="M 9.8125 72.90625 
L 51.703125 72.90625 
L 51.703125 64.59375 
L 19.671875 64.59375 
L 19.671875 43.109375 
L 48.578125 43.109375 
L 48.578125 34.8125 
L 19.671875 34.8125 
L 19.671875 0 
L 9.8125 0 
z
" id="DejaVuSans-70"/>
      <path d="M 41.109375 46.296875 
Q 39.59375 47.171875 37.8125 47.578125 
Q 36.03125 48 33.890625 48 
Q 26.265625 48 22.1875 43.046875 
Q 18.109375 38.09375 18.109375 28.8125 
L 18.109375 0 
L 9.078125 0 
L 9.078125 54.6875 
L 18.109375 54.6875 
L 18.109375 46.1875 
Q 20.953125 51.171875 25.484375 53.578125 
Q 30.03125 56 36.53125 56 
Q 37.453125 56 38.578125 55.875 
Q 39.703125 55.765625 41.0625 55.515625 
z
" id="DejaVuSans-114"/>
      <path d="M 48.78125 52.59375 
L 48.78125 44.1875 
Q 44.96875 46.296875 41.140625 47.34375 
Q 37.3125 48.390625 33.40625 48.390625 
Q 24.65625 48.390625 19.8125 42.84375 
Q 14.984375 37.3125 14.984375 27.296875 
Q 14.984375 17.28125 19.8125 11.734375 
Q 24.65625 6.203125 33.40625 6.203125 
Q 37.3125 6.203125 41.140625 7.25 
Q 44.96875 8.296875 48.78125 10.40625 
L 48.78125 2.09375 
Q 45.015625 0.34375 40.984375 -0.53125 
Q 36.96875 -1.421875 32.421875 -1.421875 
Q 20.0625 -1.421875 12.78125 6.34375 
Q 5.515625 14.109375 5.515625 27.296875 
Q 5.515625 40.671875 12.859375 48.328125 
Q 20.21875 56 33.015625 56 
Q 37.15625 56 41.109375 55.140625 
Q 45.0625 54.296875 48.78125 52.59375 
z
" id="DejaVuSans-99"/>
      <path d="M 18.3125 70.21875 
L 18.3125 54.6875 
L 36.8125 54.6875 
L 36.8125 47.703125 
L 18.3125 47.703125 
L 18.3125 18.015625 
Q 18.3125 11.328125 20.140625 9.421875 
Q 21.96875 7.515625 27.59375 7.515625 
L 36.8125 7.515625 
L 36.8125 0 
L 27.59375 0 
Q 17.1875 0 13.234375 3.875 
Q 9.28125 7.765625 9.28125 18.015625 
L 9.28125 47.703125 
L 2.6875 47.703125 
L 2.6875 54.6875 
L 9.28125 54.6875 
L 9.28125 70.21875 
z
" id="DejaVuSans-116"/>
      <path d="M 8.5 21.578125 
L 8.5 54.6875 
L 17.484375 54.6875 
L 17.484375 21.921875 
Q 17.484375 14.15625 20.5 10.265625 
Q 23.53125 6.390625 29.59375 6.390625 
Q 36.859375 6.390625 41.078125 11.03125 
Q 45.3125 15.671875 45.3125 23.6875 
L 45.3125 54.6875 
L 54.296875 54.6875 
L 54.296875 0 
L 45.3125 0 
L 45.3125 8.40625 
Q 42.046875 3.421875 37.71875 1 
Q 33.40625 -1.421875 27.6875 -1.421875 
Q 18.265625 -1.421875 13.375 4.4375 
Q 8.5 10.296875 8.5 21.578125 
z
M 31.109375 56 
z
" id="DejaVuSans-117"/>
      <path d="M 11.71875 12.40625 
L 22.015625 12.40625 
L 22.015625 4 
L 14.015625 -11.625 
L 7.71875 -11.625 
L 11.71875 4 
z
" id="DejaVuSans-44"/>
      <path d="M 18.109375 8.203125 
L 18.109375 -20.796875 
L 9.078125 -20.796875 
L 9.078125 54.6875 
L 18.109375 54.6875 
L 18.109375 46.390625 
Q 20.953125 51.265625 25.265625 53.625 
Q 29.59375 56 35.59375 56 
Q 45.5625 56 51.78125 48.09375 
Q 58.015625 40.1875 58.015625 27.296875 
Q 58.015625 14.40625 51.78125 6.484375 
Q 45.5625 -1.421875 35.59375 -1.421875 
Q 29.59375 -1.421875 25.265625 0.953125 
Q 20.953125 3.328125 18.109375 8.203125 
z
M 48.6875 27.296875 
Q 48.6875 37.203125 44.609375 42.84375 
Q 40.53125 48.484375 33.40625 48.484375 
Q 26.265625 48.484375 22.1875 42.84375 
Q 18.109375 37.203125 18.109375 27.296875 
Q 18.109375 17.390625 22.1875 11.75 
Q 26.265625 6.109375 33.40625 6.109375 
Q 40.53125 6.109375 44.609375 11.75 
Q 48.6875 17.390625 48.6875 27.296875 
z
" id="DejaVuSans-112"/>
     </defs>
     <g transform="translate(17.619531 298.435375)rotate(-90)scale(0.17 -0.17)">
      <use xlink:href="#DejaVuSans-70"/>
      <use x="57.410156" xlink:href="#DejaVuSans-114"/>
      <use x="98.523438" xlink:href="#DejaVuSans-97"/>
      <use x="159.802734" xlink:href="#DejaVuSans-99"/>
      <use x="214.783203" xlink:href="#DejaVuSans-116"/>
      <use x="253.992188" xlink:href="#DejaVuSans-105"/>
      <use x="281.775391" xlink:href="#DejaVuSans-111"/>
      <use x="342.957031" xlink:href="#DejaVuSans-110"/>
      <use x="406.335938" xlink:href="#DejaVuSans-32"/>
      <use x="438.123047" xlink:href="#DejaVuSans-111"/>
      <use x="499.304688" xlink:href="#DejaVuSans-102"/>
      <use x="534.509766" xlink:href="#DejaVuSans-32"/>
      <use x="566.296875" xlink:href="#DejaVuSans-102"/>
      <use x="601.501953" xlink:href="#DejaVuSans-117"/>
      <use x="664.880859" xlink:href="#DejaVuSans-110"/>
      <use x="728.259766" xlink:href="#DejaVuSans-99"/>
      <use x="783.240234" xlink:href="#DejaVuSans-116"/>
      <use x="822.449219" xlink:href="#DejaVuSans-105"/>
      <use x="850.232422" xlink:href="#DejaVuSans-111"/>
      <use x="911.414062" xlink:href="#DejaVuSans-110"/>
      <use x="974.792969" xlink:href="#DejaVuSans-44"/>
      <use x="1006.580078" xlink:href="#DejaVuSans-116"/>
      <use x="1045.789062" xlink:href="#DejaVuSans-97"/>
      <use x="1107.068359" xlink:href="#DejaVuSans-114"/>
      <use x="1148.166016" xlink:href="#DejaVuSans-103"/>
      <use x="1211.642578" xlink:href="#DejaVuSans-101"/>
      <use x="1273.166016" xlink:href="#DejaVuSans-116"/>
      <use x="1312.375" xlink:href="#DejaVuSans-32"/>
      <use x="1344.162109" xlink:href="#DejaVuSans-112"/>
      <use x="1407.638672" xlink:href="#DejaVuSans-97"/>
      <use x="1468.917969" xlink:href="#DejaVuSans-105"/>
      <use x="1496.701172" xlink:href="#DejaVuSans-114"/>
      <use x="1537.814453" xlink:href="#DejaVuSans-115"/>
     </g>
    </g>
   </g>
   <g id="line2d_37">
    <defs>
     <path d="M 0 1.5 
C 0.397805 1.5 0.77937 1.341951 1.06066 1.06066 
C 1.341951 0.77937 1.5 0.397805 1.5 0 
C 1.5 -0.397805 1.341951 -0.77937 1.06066 -1.06066 
C 0.77937 -1.341951 0.397805 -1.5 0 -1.5 
C -0.397805 -1.5 -0.77937 -1.341951 -1.06066 -1.06066 
C -1.341951 -0.77937 -1.5 -0.397805 -1.5 0 
C -1.5 0.397805 -1.341951 0.77937 -1.06066 1.06066 
C -0.77937 1.341951 -0.397805 1.5 0 1.5 
z
" id="m0094c1745d" style="stroke:#000080;"/>
    </defs>
    <g>
     <use style="fill:#000080;stroke:#000080;" x="161.084903" xlink:href="#m0094c1745d" y="30.334099"/>
     <use style="fill:#000080;stroke:#000080;" x="161.084903" xlink:href="#m0094c1745d" y="30.334099"/>
    </g>
   </g>
   <g id="line2d_38">
    <path d="M 72.376266 298.944 
L 72.376266 298.417314 
L 80.258561 298.417314 
L 80.258561 297.363942 
L 84.464254 297.363942 
L 84.464254 296.31057 
L 85.66744 296.31057 
L 85.66744 295.783884 
L 86.792945 295.783884 
L 86.792945 293.677139 
L 88.846997 293.677139 
L 88.846997 291.043709 
L 95.259853 291.043709 
L 95.259853 286.83022 
L 97.16421 286.83022 
L 97.16421 286.303534 
L 97.755429 286.303534 
L 97.755429 285.776848 
L 98.32726 285.776848 
L 98.32726 285.250162 
L 99.41757 285.250162 
L 99.41757 284.723476 
L 99.938184 284.723476 
L 99.938184 284.19679 
L 100.934985 284.19679 
L 100.934985 283.143418 
L 101.877879 283.143418 
L 101.877879 281.563359 
L 102.330873 281.563359 
L 102.330873 279.456615 
L 104.033617 279.456615 
L 104.033617 278.929929 
L 104.826449 278.929929 
L 104.826449 278.403243 
L 105.584798 278.403243 
L 105.584798 277.876557 
L 105.951954 277.876557 
L 105.951954 275.769812 
L 106.66386 275.769812 
L 106.66386 275.243126 
L 107.009204 275.243126 
L 107.009204 274.71644 
L 107.347841 274.71644 
L 107.347841 274.189754 
L 107.680028 274.189754 
L 107.680028 272.609696 
L 108.326001 272.609696 
L 108.326001 272.08301 
L 108.640231 272.08301 
L 108.640231 269.976266 
L 109.843417 269.976266 
L 109.843417 269.449579 
L 110.131676 269.449579 
L 110.131676 267.869521 
L 110.968922 267.869521 
L 110.968922 267.342835 
L 111.239304 267.342835 
L 111.239304 266.816149 
L 111.767808 266.816149 
L 111.767808 266.289463 
L 112.026172 266.289463 
L 112.026172 265.762777 
L 113.022974 265.762777 
L 113.022974 264.709405 
L 113.500792 264.709405 
L 113.500792 263.656033 
L 114.418861 263.656033 
L 114.418861 262.075974 
L 115.917635 262.075974 
L 115.917635 259.96923 
L 116.522527 259.96923 
L 116.522527 258.915858 
L 116.914437 258.915858 
L 116.914437 258.389172 
L 117.486268 258.389172 
L 117.486268 257.862486 
L 118.399528 257.862486 
L 118.399528 256.282427 
L 120.254726 256.282427 
L 120.254726 255.755741 
L 120.41399 255.755741 
L 120.41399 254.702369 
L 120.728219 254.702369 
L 120.728219 253.648997 
L 122.362027 253.648997 
L 122.362027 252.068939 
L 122.782271 252.068939 
L 122.782271 251.542253 
L 123.327293 251.542253 
L 123.327293 251.015567 
L 123.985457 251.015567 
L 123.985457 250.488881 
L 124.619683 250.488881 
L 124.619683 248.382136 
L 125.706218 248.382136 
L 125.706218 247.85545 
L 126.053856 247.85545 
L 126.053856 247.328764 
L 126.50685 247.328764 
L 126.50685 246.802078 
L 127.378995 246.802078 
L 127.48501 245.748706 
L 128.107907 245.748706 
L 128.107907 245.22202 
L 128.709321 245.22202 
L 128.709321 244.695334 
L 129.290685 244.695334 
L 129.290685 244.168648 
L 129.667765 244.168648 
L 129.760775 243.115275 
L 131.856005 243.115275 
L 131.938072 241.008531 
L 133.124876 241.008531 
L 133.124876 240.481845 
L 134.520763 240.481845 
L 134.520763 239.955159 
L 135.348078 239.955159 
L 135.415281 238.375101 
L 135.482227 238.375101 
L 135.482227 237.321729 
L 135.943785 237.321729 
L 135.943785 236.795043 
L 136.769843 236.795043 
L 136.769843 235.74167 
L 137.259399 235.74167 
L 137.259399 235.214984 
L 137.617753 235.214984 
L 137.617753 234.688298 
L 137.852629 234.688298 
L 137.910857 233.634926 
L 138.369812 233.634926 
L 138.369812 233.10824 
L 138.538853 233.10824 
L 138.538853 232.054868 
L 139.036363 232.054868 
L 139.145019 230.47481 
L 139.990725 230.47481 
L 139.990725 229.948123 
L 140.144829 229.948123 
L 140.246813 228.894751 
L 140.348205 228.894751 
L 140.39868 227.841379 
L 140.499195 227.841379 
L 140.499195 226.788007 
L 140.698504 226.788007 
L 140.698504 226.261321 
L 141.138789 226.261321 
L 141.235139 224.681263 
L 141.283115 224.681263 
L 141.283115 224.154577 
L 141.47371 224.154577 
L 141.47371 223.101204 
L 141.709062 223.101204 
L 141.709062 222.574518 
L 141.941279 222.574518 
L 141.941279 221.521146 
L 142.124852 221.521146 
L 142.124852 220.99446 
L 142.306513 220.99446 
L 142.306513 220.467774 
L 142.53096 220.467774 
L 142.53096 219.941088 
L 142.796538 219.941088 
L 142.796538 219.414402 
L 142.927826 219.414402 
L 142.971369 217.834344 
L 143.144465 217.834344 
L 143.144465 216.254285 
L 143.569835 216.254285 
L 143.569835 215.727599 
L 143.695448 215.727599 
L 143.695448 214.674227 
L 143.861538 214.674227 
L 143.902815 213.094169 
L 143.985075 213.094169 
L 143.985075 212.567483 
L 144.229555 212.567483 
L 144.310293 210.460738 
L 144.430703 210.460738 
L 144.510517 209.407366 
L 144.589967 209.407366 
L 144.669057 207.300622 
L 144.787023 207.300622 
L 144.787023 206.773936 
L 144.904196 206.773936 
L 144.981877 204.667192 
L 145.097753 204.667192 
L 145.097753 204.140506 
L 145.212864 204.140506 
L 145.251067 202.560447 
L 145.327221 202.560447 
L 145.327221 202.033761 
L 145.478539 202.033761 
L 145.553708 199.927017 
L 145.703082 199.927017 
L 145.740226 198.346959 
L 145.814278 198.346959 
L 145.814278 197.820273 
L 145.998045 197.820273 
L 146.071013 195.713528 
L 146.143677 195.713528 
L 146.179895 193.080098 
L 146.431341 193.080098 
L 146.502522 192.026726 
L 146.679213 192.026726 
L 146.784375 189.919981 
L 146.819289 189.919981 
L 146.888907 185.706493 
L 146.992815 185.706493 
L 147.061745 184.126434 
L 147.130404 184.126434 
L 147.164632 182.546376 
L 147.266916 182.546376 
L 147.266916 182.01969 
L 147.402367 182.01969 
L 147.402367 181.493004 
L 147.536775 181.493004 
L 147.636905 180.439632 
L 147.670154 180.439632 
L 147.736463 178.859574 
L 147.835457 178.859574 
L 147.835457 178.332888 
L 147.96658 178.332888 
L 147.96658 176.752829 
L 148.129109 176.752829 
L 148.193699 175.172771 
L 148.258051 175.172771 
L 148.322166 172.539341 
L 148.449693 172.539341 
L 148.54473 170.432596 
L 148.701984 170.432596 
L 148.701984 169.90591 
L 148.888835 169.90591 
L 148.888835 169.379224 
L 149.012299 169.379224 
L 149.104327 166.745794 
L 149.31719 166.745794 
L 149.407627 162.532305 
L 149.467659 162.532305 
L 149.497598 159.898875 
L 149.587107 159.898875 
L 149.646525 158.318817 
L 149.705742 158.318817 
L 149.794191 155.685386 
L 149.823575 155.685386 
L 149.823575 154.105328 
L 149.969756 154.105328 
L 150.05688 152.52527 
L 150.201126 152.52527 
L 150.258492 148.838467 
L 150.401087 148.838467 
L 150.486088 145.151665 
L 150.542526 145.151665 
L 150.626842 141.991548 
L 150.710752 141.991548 
L 150.79426 139.884804 
L 150.822008 139.884804 
L 150.822008 139.358118 
L 150.960087 139.358118 
L 151.042412 137.778059 
L 151.097081 137.778059 
L 151.178764 133.564571 
L 151.233007 133.564571 
L 151.233007 133.037885 
L 151.394733 133.037885 
L 151.421542 131.457826 
L 151.528368 131.457826 
L 151.581536 129.877768 
L 151.660987 129.877768 
L 151.76636 127.771024 
L 151.818809 127.771024 
L 151.897188 122.504163 
L 151.949246 122.504163 
L 152.027042 117.237302 
L 152.155936 117.237302 
L 152.232818 113.5505 
L 152.360205 113.5505 
L 152.461449 110.917069 
L 152.511852 110.917069 
L 152.587184 109.863697 
L 152.637225 109.863697 
L 152.637225 108.283639 
L 152.835965 108.283639 
L 152.934492 106.703581 
L 153.008024 106.703581 
L 153.105587 105.123522 
L 153.29909 105.123522 
L 153.395042 103.543464 
L 153.442821 103.543464 
L 153.537988 99.856662 
L 153.561699 99.856662 
L 153.656221 97.749917 
L 153.679772 97.749917 
L 153.726778 95.116487 
L 153.79705 95.116487 
L 153.867041 91.95637 
L 154.075343 91.95637 
L 154.167129 88.269568 
L 154.349264 88.269568 
L 154.417077 87.216196 
L 154.507086 87.216196 
L 154.507086 86.68951 
L 154.77436 86.68951 
L 154.81851 81.949335 
L 154.928399 81.949335 
L 154.994001 78.789218 
L 155.167744 78.789218 
L 155.167744 77.20916 
L 155.318362 77.20916 
L 155.339773 76.155788 
L 155.446436 76.155788 
L 155.446436 75.629102 
L 155.61575 75.629102 
L 155.720743 72.995672 
L 155.741666 72.995672 
L 155.804285 70.888927 
L 155.887428 70.888927 
L 155.970177 68.782183 
L 156.216093 68.782183 
L 156.216093 66.675439 
L 156.357959 66.675439 
L 156.398281 65.622066 
L 156.478647 65.622066 
L 156.478647 64.568694 
L 156.618401 64.568694 
L 156.658127 62.46195 
L 156.796456 62.46195 
L 156.835778 61.408578 
L 156.914157 61.408578 
L 156.914157 58.775147 
L 157.262567 58.775147 
L 157.300853 56.668403 
L 157.547684 56.668403 
L 157.641697 55.088345 
L 157.697862 55.088345 
L 157.753847 52.9816 
L 157.846757 52.9816 
L 157.957601 50.874856 
L 158.067744 50.874856 
L 158.159001 48.768112 
L 158.322071 48.768112 
L 158.412011 47.188054 
L 158.51933 47.188054 
L 158.608261 45.081309 
L 158.802326 45.081309 
L 158.907277 43.501251 
L 158.942121 43.501251 
L 158.959517 41.921193 
L 159.337899 41.921193 
L 159.337899 41.394507 
L 159.741526 41.394507 
L 159.807898 36.654332 
L 159.923445 36.654332 
L 159.923445 35.074274 
L 160.442124 35.074274 
L 160.458086 33.494215 
L 160.648508 33.494215 
L 160.69579 31.387471 
L 161.084903 31.387471 
L 161.084903 30.334099 
L 338.688 30.334099 
L 338.688 30.334099 
" style="fill:none;stroke:#000080;stroke-linecap:square;stroke-width:1.5;"/>
   </g>
   <g id="line2d_39">
    <defs>
     <path d="M 0 6 
C 1.591219 6 3.117479 5.367802 4.242641 4.242641 
C 5.367802 3.117479 6 1.591219 6 0 
C 6 -1.591219 5.367802 -3.117479 4.242641 -4.242641 
C 3.117479 -5.367802 1.591219 -6 0 -6 
C -1.591219 -6 -3.117479 -5.367802 -4.242641 -4.242641 
C -5.367802 -3.117479 -6 -1.591219 -6 0 
C -6 1.591219 -5.367802 3.117479 -4.242641 4.242641 
C -3.117479 5.367802 -1.591219 6 0 6 
z
" id="me8d5f6955b" style="stroke:#000080;stroke-width:1.5;"/>
    </defs>
    <g>
     <use style="fill-opacity:0;stroke:#000080;stroke-width:1.5;" x="148.54473" xlink:href="#me8d5f6955b" y="170.959282"/>
     <use style="fill-opacity:0;stroke:#000080;stroke-width:1.5;" x="161.084903" xlink:href="#me8d5f6955b" y="31.387471"/>
     <use style="fill-opacity:0;stroke:#000080;stroke-width:1.5;" x="161.084903" xlink:href="#me8d5f6955b" y="30.334099"/>
     <use style="fill-opacity:0;stroke:#000080;stroke-width:1.5;" x="161.084903" xlink:href="#me8d5f6955b" y="30.334099"/>
     <use style="fill-opacity:0;stroke:#000080;stroke-width:1.5;" x="338.688" xlink:href="#me8d5f6955b" y="30.334099"/>
    </g>
   </g>
   <g id="line2d_40">
    <path style="fill:none;stroke:#000080;stroke-linecap:square;stroke-width:1.5;"/>
    <g/>
   </g>
   <g id="line2d_41">
    <defs>
     <path d="M 0 1.5 
C 0.397805 1.5 0.77937 1.341951 1.06066 1.06066 
C 1.341951 0.77937 1.5 0.397805 1.5 0 
C 1.5 -0.397805 1.341951 -0.77937 1.06066 -1.06066 
C 0.77937 -1.341951 0.397805 -1.5 0 -1.5 
C -0.397805 -1.5 -0.77937 -1.341951 -1.06066 -1.06066 
C -1.341951 -0.77937 -1.5 -0.397805 -1.5 0 
C -1.5 0.397805 -1.341951 0.77937 -1.06066 1.06066 
C -0.77937 1.341951 -0.397805 1.5 0 1.5 
z
" id="m0c46508166" style="stroke:#ff0000;"/>
    </defs>
    <g>
     <use style="fill:#ff0000;stroke:#ff0000;" x="142.619936" xlink:href="#m0c46508166" y="30.334099"/>
     <use style="fill:#ff0000;stroke:#ff0000;" x="142.619936" xlink:href="#m0c46508166" y="30.334099"/>
    </g>
   </g>
   <g id="line2d_42">
    <path d="M 57.6 298.944 
L 57.6 296.837256 
L 62.616969 296.837256 
L 62.616969 295.257197 
L 80.258561 295.257197 
L 80.258561 294.730511 
L 84.464254 294.730511 
L 84.464254 292.623767 
L 85.66744 292.623767 
L 85.66744 289.990337 
L 86.792945 289.990337 
L 86.792945 286.303534 
L 87.850195 286.303534 
L 87.850195 283.670104 
L 88.846997 283.670104 
L 88.846997 282.090045 
L 89.78989 282.090045 
L 89.78989 281.036673 
L 90.684409 281.036673 
L 90.684409 280.509987 
L 91.535274 280.509987 
L 91.535274 279.983301 
L 92.34655 279.983301 
L 92.34655 278.403243 
L 93.121756 278.403243 
L 93.121756 277.876557 
L 93.863965 277.876557 
L 93.863965 274.189754 
L 94.575872 274.189754 
L 94.575872 271.029638 
L 95.259853 271.029638 
L 95.259853 269.976266 
L 95.918017 269.976266 
L 95.918017 269.449579 
L 96.552242 269.449579 
L 96.552242 266.289463 
L 97.16421 266.289463 
L 97.16421 265.762777 
L 98.32726 265.762777 
L 98.32726 265.236091 
L 98.880934 265.236091 
L 98.880934 263.656033 
L 99.938184 263.656033 
L 99.938184 261.549288 
L 100.443706 261.549288 
L 100.443706 261.022602 
L 101.877879 261.022602 
L 101.877879 259.96923 
L 102.772397 259.96923 
L 102.772397 258.915858 
L 103.203018 258.915858 
L 103.203018 256.809114 
L 105.209745 256.809114 
L 105.209745 255.755741 
L 107.347841 255.755741 
L 107.347841 255.229055 
L 108.326001 255.229055 
L 108.326001 253.648997 
L 108.640231 253.648997 
L 108.640231 252.068939 
L 108.948899 252.068939 
L 108.948899 251.542253 
L 110.131676 251.542253 
L 110.131676 251.015567 
L 110.694282 251.015567 
L 110.694282 249.435508 
L 111.239304 249.435508 
L 111.239304 247.85545 
L 111.505558 247.85545 
L 111.505558 245.22202 
L 113.26352 245.22202 
L 113.26352 244.695334 
L 113.965867 244.695334 
L 113.965867 244.168648 
L 114.641021 244.168648 
L 114.641021 243.115275 
L 114.860386 243.115275 
L 114.860386 242.588589 
L 115.077025 242.588589 
L 115.077025 242.061903 
L 115.502395 242.061903 
L 115.502395 241.535217 
L 116.121606 241.535217 
L 116.121606 239.955159 
L 116.323218 239.955159 
L 116.323218 238.901787 
L 116.719583 238.901787 
L 116.719583 237.848415 
L 116.914437 237.848415 
L 116.914437 236.795043 
L 117.107138 236.795043 
L 117.107138 234.688298 
L 117.297733 234.688298 
L 117.297733 234.161612 
L 117.486268 234.161612 
L 117.486268 233.10824 
L 117.857331 233.10824 
L 117.857331 232.581554 
L 118.399528 232.581554 
L 118.399528 232.054868 
L 118.576578 232.054868 
L 118.576578 231.001496 
L 118.751849 231.001496 
L 118.751849 229.948123 
L 118.925375 229.948123 
L 118.925375 229.421437 
L 119.097192 229.421437 
L 119.097192 228.368065 
L 119.267333 228.368065 
L 119.267333 227.314693 
L 119.43583 227.314693 
L 119.43583 226.788007 
L 119.602714 226.788007 
L 119.602714 225.734635 
L 119.931767 225.734635 
L 119.931767 222.047832 
L 120.093994 222.047832 
L 120.093994 220.467774 
L 120.254726 220.467774 
L 120.254726 219.414402 
L 120.41399 219.414402 
L 120.41399 218.887716 
L 120.571812 218.887716 
L 120.571812 217.307658 
L 120.728219 217.307658 
L 120.728219 216.780971 
L 120.883236 216.780971 
L 120.883236 216.254285 
L 121.036887 216.254285 
L 121.036887 213.094169 
L 121.189196 213.094169 
L 121.189196 209.934052 
L 121.340187 209.934052 
L 121.340187 209.407366 
L 121.489881 209.407366 
L 121.489881 208.88068 
L 121.785469 208.88068 
L 121.785469 205.193878 
L 121.931406 205.193878 
L 121.931406 203.613819 
L 122.076131 203.613819 
L 122.076131 203.087133 
L 122.362027 203.087133 
L 122.362027 202.560447 
L 122.503236 202.560447 
L 122.503236 200.980389 
L 122.643312 200.980389 
L 122.643312 199.927017 
L 122.782271 199.927017 
L 122.782271 198.346959 
L 122.920132 198.346959 
L 122.920132 197.820273 
L 123.056911 197.820273 
L 123.056911 195.186842 
L 123.192626 195.186842 
L 123.192626 194.660156 
L 123.327293 194.660156 
L 123.327293 191.50004 
L 123.460928 191.50004 
L 123.460928 189.393295 
L 123.593547 189.393295 
L 123.593547 186.233179 
L 123.725164 186.233179 
L 123.725164 185.706493 
L 123.855796 185.706493 
L 123.855796 184.653121 
L 123.985457 184.653121 
L 123.985457 183.599748 
L 124.114161 183.599748 
L 124.114161 182.546376 
L 124.241922 182.546376 
L 124.241922 179.38626 
L 124.368753 179.38626 
L 124.368753 177.806202 
L 124.494669 177.806202 
L 124.494669 176.226143 
L 124.619683 176.226143 
L 124.619683 173.592713 
L 124.743806 173.592713 
L 124.743806 172.539341 
L 124.867052 172.539341 
L 124.867052 170.432596 
L 124.989434 170.432596 
L 124.989434 167.799166 
L 125.110962 167.799166 
L 125.110962 165.692422 
L 125.351508 165.692422 
L 125.351508 159.898875 
L 125.470548 159.898875 
L 125.470548 154.632014 
L 125.588781 154.632014 
L 125.588781 153.051956 
L 125.706218 153.051956 
L 125.706218 151.471897 
L 125.822869 151.471897 
L 125.822869 149.365153 
L 125.938745 149.365153 
L 125.938745 148.311781 
L 126.053856 148.311781 
L 126.053856 147.785095 
L 126.168212 147.785095 
L 126.168212 146.731723 
L 126.281824 146.731723 
L 126.281824 145.151665 
L 126.3947 145.151665 
L 126.3947 142.518234 
L 126.50685 142.518234 
L 126.50685 137.251373 
L 126.618283 137.251373 
L 126.729009 133.037885 
L 126.839037 133.037885 
L 126.839037 131.457826 
L 127.05703 131.457826 
L 127.165014 129.351082 
L 127.272333 129.351082 
L 127.378995 126.190966 
L 127.48501 126.190966 
L 127.48501 125.66428 
L 127.902737 125.66428 
L 128.005624 120.924105 
L 128.107907 120.924105 
L 128.107907 119.870733 
L 128.310692 119.870733 
L 128.411207 118.817361 
L 128.610515 118.817361 
L 128.709321 115.657244 
L 129.195127 115.657244 
L 129.195127 114.603872 
L 129.480244 114.603872 
L 129.574256 112.497128 
L 129.760775 112.497128 
L 129.760775 110.917069 
L 129.945319 110.917069 
L 130.036864 107.756953 
L 130.487516 107.756953 
L 130.487516 106.703581 
L 130.664567 106.703581 
L 130.752422 105.650209 
L 131.013364 105.650209 
L 131.099484 104.07015 
L 131.270459 104.07015 
L 131.355321 101.963406 
L 131.523818 101.963406 
L 131.523818 100.910034 
L 131.690703 100.910034 
L 131.77355 99.329976 
L 131.856005 99.329976 
L 131.938072 98.276603 
L 132.019755 98.276603 
L 132.101058 96.169859 
L 132.262533 96.169859 
L 132.342714 92.483056 
L 132.422528 92.483056 
L 132.501978 91.429684 
L 132.73818 91.429684 
L 132.816208 88.796254 
L 132.893889 88.796254 
L 132.971225 86.162824 
L 133.201197 86.162824 
L 133.277185 85.109451 
L 133.352844 85.109451 
L 133.352844 84.056079 
L 133.57787 84.056079 
L 133.652238 81.422649 
L 133.946579 81.422649 
L 133.946579 80.895963 
L 134.091907 80.895963 
L 134.091907 77.20916 
L 134.236034 77.20916 
L 134.307653 76.155788 
L 134.37898 76.155788 
L 134.450015 75.102416 
L 134.520763 75.102416 
L 134.591225 72.995672 
L 134.661403 72.995672 
L 134.7313 70.888927 
L 134.800918 70.888927 
L 134.800918 69.308869 
L 135.00812 69.308869 
L 135.00812 68.782183 
L 135.144899 68.782183 
L 135.212889 65.09538 
L 135.482227 65.09538 
L 135.548916 62.988636 
L 135.615352 62.988636 
L 135.615352 61.935264 
L 135.747468 61.935264 
L 135.813153 59.301833 
L 135.943785 59.301833 
L 136.008736 55.615031 
L 136.073445 55.615031 
L 136.073445 53.508287 
L 136.202149 53.508287 
L 136.266147 51.928228 
L 136.456742 51.928228 
L 136.456742 50.34817 
L 136.582658 50.34817 
L 136.645276 48.241426 
L 136.769843 48.241426 
L 136.769843 47.71474 
L 136.955041 47.71474 
L 137.016339 46.134681 
L 137.37967 46.134681 
L 137.439497 44.027937 
L 137.558536 44.027937 
L 137.558536 43.501251 
L 137.735587 43.501251 
L 137.794206 42.447879 
L 138.313099 42.447879 
L 138.313099 41.921193 
L 139.145019 41.921193 
L 139.145019 41.394507 
L 139.678372 41.394507 
L 139.678372 40.867821 
L 140.79731 40.867821 
L 140.79731 40.341135 
L 141.138789 40.341135 
L 141.138789 39.814448 
L 141.568232 39.814448 
L 141.615302 38.23439 
L 141.755753 38.23439 
L 141.848763 34.547588 
L 142.261275 34.547588 
L 142.351634 32.967529 
L 142.575505 32.967529 
L 142.619936 30.334099 
L 338.688 30.334099 
L 338.688 30.334099 
" style="fill:none;stroke:#ff0000;stroke-linecap:square;stroke-width:1.5;"/>
   </g>
   <g id="line2d_43">
    <defs>
     <path d="M 0 -6 
L -5.196152 -3 
L -5.196152 3 
L -0 6 
L 5.196152 3 
L 5.196152 -3 
z
" id="mb159b3a145" style="stroke:#ff0000;stroke-linejoin:miter;stroke-width:1.5;"/>
    </defs>
    <g>
     <use style="fill-opacity:0;stroke:#ff0000;stroke-linejoin:miter;stroke-width:1.5;" x="122.503236" xlink:href="#mb159b3a145" y="200.980389"/>
     <use style="fill-opacity:0;stroke:#ff0000;stroke-linejoin:miter;stroke-width:1.5;" x="142.619936" xlink:href="#mb159b3a145" y="31.387471"/>
     <use style="fill-opacity:0;stroke:#ff0000;stroke-linejoin:miter;stroke-width:1.5;" x="142.619936" xlink:href="#mb159b3a145" y="30.334099"/>
     <use style="fill-opacity:0;stroke:#ff0000;stroke-linejoin:miter;stroke-width:1.5;" x="142.619936" xlink:href="#mb159b3a145" y="30.334099"/>
     <use style="fill-opacity:0;stroke:#ff0000;stroke-linejoin:miter;stroke-width:1.5;" x="338.688" xlink:href="#mb159b3a145" y="30.334099"/>
    </g>
   </g>
   <g id="line2d_44">
    <path style="fill:none;stroke:#ff0000;stroke-linecap:square;stroke-width:1.5;"/>
    <g/>
   </g>
   <g id="line2d_45">
    <defs>
     <path d="M 0 1.5 
C 0.397805 1.5 0.77937 1.341951 1.06066 1.06066 
C 1.341951 0.77937 1.5 0.397805 1.5 0 
C 1.5 -0.397805 1.341951 -0.77937 1.06066 -1.06066 
C 0.77937 -1.341951 0.397805 -1.5 0 -1.5 
C -0.397805 -1.5 -0.77937 -1.341951 -1.06066 -1.06066 
C -1.341951 -0.77937 -1.5 -0.397805 -1.5 0 
C -1.5 0.397805 -1.341951 0.77937 -1.06066 1.06066 
C -0.77937 1.341951 -0.397805 1.5 0 1.5 
z
" id="mbaa58c8a6a" style="stroke:#bebebe;"/>
    </defs>
    <g>
     <use style="fill:#bebebe;stroke:#bebebe;" x="142.575505" xlink:href="#mbaa58c8a6a" y="30.334099"/>
     <use style="fill:#bebebe;stroke:#bebebe;" x="142.575505" xlink:href="#mbaa58c8a6a" y="30.334099"/>
    </g>
   </g>
   <g id="line2d_46">
    <path d="M 38.440992 298.944 
L 38.440992 298.417314 
L 78.59642 298.417314 
L 78.59642 297.890628 
L 80.258561 297.890628 
L 80.258561 295.257197 
L 88.846997 295.257197 
L 88.846997 292.623767 
L 89.78989 292.623767 
L 89.78989 291.043709 
L 90.684409 291.043709 
L 90.684409 290.517023 
L 94.575872 290.517023 
L 94.575872 288.936964 
L 95.259853 288.936964 
L 95.259853 284.723476 
L 95.918017 284.723476 
L 95.918017 280.509987 
L 98.32726 280.509987 
L 98.32726 277.876557 
L 98.880934 277.876557 
L 98.880934 276.823185 
L 99.938184 276.823185 
L 99.938184 276.296499 
L 100.934985 276.296499 
L 100.934985 271.029638 
L 101.412804 271.029638 
L 101.412804 268.922893 
L 102.330873 268.922893 
L 102.330873 266.816149 
L 103.203018 266.816149 
L 103.203018 263.656033 
L 103.623262 263.656033 
L 103.623262 259.96923 
L 104.434538 259.96923 
L 104.434538 258.389172 
L 104.826449 258.389172 
L 104.826449 255.755741 
L 105.209745 255.755741 
L 105.209745 255.229055 
L 105.584798 255.229055 
L 105.584798 253.122311 
L 106.311539 253.122311 
L 106.311539 252.595625 
L 107.009204 252.595625 
L 107.009204 251.542253 
L 107.347841 251.542253 
L 107.347841 249.962195 
L 108.006005 249.962195 
L 108.006005 249.435508 
L 108.640231 249.435508 
L 108.640231 248.382136 
L 108.948899 248.382136 
L 108.948899 246.802078 
L 109.550313 246.802078 
L 109.550313 246.275392 
L 110.131676 246.275392 
L 110.131676 245.748706 
L 111.505558 245.748706 
L 111.505558 245.22202 
L 112.280765 245.22202 
L 112.280765 244.695334 
L 112.779064 244.695334 
L 112.779064 243.641962 
L 113.022974 243.641962 
L 113.022974 242.588589 
L 113.26352 242.588589 
L 113.26352 242.061903 
L 113.965867 242.061903 
L 113.965867 241.535217 
L 115.077025 241.535217 
L 115.077025 241.008531 
L 115.502395 241.008531 
L 115.502395 239.955159 
L 115.711251 239.955159 
L 115.711251 239.428473 
L 116.121606 239.428473 
L 116.121606 238.901787 
L 116.323218 238.901787 
L 116.323218 237.848415 
L 116.522527 237.848415 
L 116.522527 235.74167 
L 117.107138 235.74167 
L 117.107138 235.214984 
L 117.297733 235.214984 
L 117.297733 234.688298 
L 117.486268 234.688298 
L 117.486268 231.001496 
L 117.672786 231.001496 
L 117.672786 230.47481 
L 117.857331 230.47481 
L 117.857331 229.948123 
L 118.220662 229.948123 
L 118.220662 229.421437 
L 118.399528 229.421437 
L 118.399528 226.261321 
L 118.576578 226.261321 
L 118.576578 224.681263 
L 118.751849 224.681263 
L 118.751849 224.154577 
L 119.097192 224.154577 
L 119.097192 223.101204 
L 119.267333 223.101204 
L 119.267333 221.521146 
L 119.43583 221.521146 
L 119.43583 219.941088 
L 119.931767 219.941088 
L 119.931767 218.887716 
L 120.254726 218.887716 
L 120.254726 216.780971 
L 120.41399 216.780971 
L 120.41399 215.727599 
L 120.728219 215.727599 
L 120.728219 215.200913 
L 121.036887 215.200913 
L 121.036887 213.620855 
L 121.189196 213.620855 
L 121.189196 212.567483 
L 121.340187 212.567483 
L 121.340187 212.040797 
L 121.489881 212.040797 
L 121.489881 210.987425 
L 121.638301 210.987425 
L 121.638301 210.460738 
L 121.785469 210.460738 
L 121.785469 207.300622 
L 121.931406 207.300622 
L 121.931406 205.193878 
L 122.219665 205.193878 
L 122.219665 204.667192 
L 122.503236 204.667192 
L 122.503236 201.507075 
L 122.643312 201.507075 
L 122.643312 198.346959 
L 122.920132 198.346959 
L 122.920132 196.7669 
L 123.192626 196.7669 
L 123.192626 196.240214 
L 123.327293 196.240214 
L 123.327293 191.50004 
L 123.460928 191.50004 
L 123.460928 190.973354 
L 123.593547 190.973354 
L 123.593547 189.393295 
L 123.855796 189.393295 
L 123.855796 188.339923 
L 123.985457 188.339923 
L 123.985457 182.546376 
L 124.241922 182.546376 
L 124.241922 181.493004 
L 124.494669 181.493004 
L 124.494669 179.38626 
L 124.619683 179.38626 
L 124.619683 175.699457 
L 124.743806 175.699457 
L 124.743806 174.646085 
L 124.867052 174.646085 
L 124.867052 171.485969 
L 125.110962 171.485969 
L 125.110962 169.90591 
L 125.351508 169.90591 
L 125.351508 167.799166 
L 125.470548 167.799166 
L 125.470548 163.058991 
L 125.588781 163.058991 
L 125.588781 162.532305 
L 125.706218 162.532305 
L 125.706218 159.898875 
L 125.822869 159.898875 
L 125.822869 157.79213 
L 125.938745 157.79213 
L 125.938745 156.212072 
L 126.281824 156.212072 
L 126.281824 151.471897 
L 126.3947 151.471897 
L 126.3947 149.891839 
L 126.50685 149.891839 
L 126.50685 147.785095 
L 126.618283 147.785095 
L 126.729009 145.678351 
L 126.839037 145.678351 
L 126.948374 140.41149 
L 127.05703 140.41149 
L 127.165014 135.671315 
L 127.272333 135.671315 
L 127.378995 134.617943 
L 127.48501 134.617943 
L 127.590383 129.877768 
L 127.695124 129.877768 
L 127.799239 124.610907 
L 127.902737 124.610907 
L 128.005624 122.504163 
L 128.107907 122.504163 
L 128.209594 118.290674 
L 128.310692 118.290674 
L 128.411207 115.657244 
L 128.610515 115.657244 
L 128.610515 113.5505 
L 128.807571 113.5505 
L 128.905271 109.863697 
L 129.002426 109.863697 
L 129.099042 103.543464 
L 129.195127 103.543464 
L 129.290685 100.910034 
L 129.385722 100.910034 
L 129.480244 98.803289 
L 129.667765 98.803289 
L 129.760775 95.643173 
L 129.853291 95.643173 
L 129.945319 92.483056 
L 130.127931 92.483056 
L 130.218525 91.429684 
L 130.398313 91.429684 
L 130.398313 89.849626 
L 130.576266 89.849626 
L 130.576266 89.32294 
L 130.839837 89.32294 
L 130.839837 88.796254 
L 131.013364 88.796254 
L 131.099484 86.68951 
L 131.185181 86.68951 
L 131.270459 84.582765 
L 131.439773 84.582765 
L 131.439773 83.002707 
L 131.690703 83.002707 
L 131.690703 80.369277 
L 131.856005 80.369277 
L 131.938072 78.789218 
L 132.101058 78.789218 
L 132.101058 77.735846 
L 132.262533 77.735846 
L 132.342714 75.629102 
L 132.659801 75.629102 
L 132.73818 72.995672 
L 133.04822 72.995672 
L 133.124876 71.942299 
L 133.503183 71.942299 
L 133.503183 69.835555 
L 133.72629 69.835555 
L 133.72629 69.308869 
L 133.873458 69.308869 
L 133.873458 67.202125 
L 134.019394 67.202125 
L 134.019394 66.675439 
L 134.236034 66.675439 
L 134.236034 61.935264 
L 134.520763 61.935264 
L 134.591225 60.355206 
L 134.870259 60.355206 
L 134.870259 59.82852 
L 135.943785 59.82852 
L 135.943785 59.301833 
L 136.266147 59.301833 
L 136.266147 58.775147 
L 136.582658 58.775147 
L 136.582658 57.721775 
L 136.893527 57.721775 
L 136.893527 57.195089 
L 137.198951 57.195089 
L 137.198951 55.615031 
L 137.499118 55.615031 
L 137.499118 54.561659 
L 137.794206 54.561659 
L 137.794206 52.9816 
L 138.084384 52.9816 
L 138.084384 49.294798 
L 138.369812 49.294798 
L 138.369812 46.661368 
L 138.482688 46.661368 
L 138.482688 46.134681 
L 139.036363 46.134681 
L 139.036363 45.607995 
L 139.625765 45.607995 
L 139.625765 45.081309 
L 139.887228 45.081309 
L 139.887228 44.554623 
L 140.144829 44.554623 
L 140.144829 44.027937 
L 140.64889 44.027937 
L 140.64889 42.974565 
L 140.89556 42.974565 
L 140.944478 41.921193 
L 141.187031 41.921193 
L 141.187031 41.394507 
L 141.426256 41.394507 
L 141.426256 40.867821 
L 141.662245 40.867821 
L 141.662245 39.814448 
L 141.895083 39.814448 
L 141.895083 37.181018 
L 142.124852 37.181018 
L 142.124852 35.074274 
L 142.351634 35.074274 
L 142.351634 32.967529 
L 142.575505 32.967529 
L 142.575505 30.334099 
L 338.688 30.334099 
L 338.688 30.334099 
" style="fill:none;stroke:#bebebe;stroke-linecap:square;stroke-width:1.5;"/>
   </g>
   <g id="line2d_47">
    <defs>
     <path d="M 0 0 
L -6 -0 
M 0 0 
L 3 4.8 
M 0 0 
L 3 -4.8 
" id="ma7934f3847" style="stroke:#bebebe;stroke-width:1.5;"/>
    </defs>
    <g>
     <use style="fill-opacity:0;stroke:#bebebe;stroke-width:1.5;" x="119.267333" xlink:href="#ma7934f3847" y="223.101204"/>
     <use style="fill-opacity:0;stroke:#bebebe;stroke-width:1.5;" x="135.943785" xlink:href="#ma7934f3847" y="59.82852"/>
     <use style="fill-opacity:0;stroke:#bebebe;stroke-width:1.5;" x="142.575505" xlink:href="#ma7934f3847" y="32.967529"/>
     <use style="fill-opacity:0;stroke:#bebebe;stroke-width:1.5;" x="142.575505" xlink:href="#ma7934f3847" y="30.334099"/>
     <use style="fill-opacity:0;stroke:#bebebe;stroke-width:1.5;" x="142.575505" xlink:href="#ma7934f3847" y="30.334099"/>
     <use style="fill-opacity:0;stroke:#bebebe;stroke-width:1.5;" x="338.688" xlink:href="#ma7934f3847" y="30.334099"/>
    </g>
   </g>
   <g id="line2d_48">
    <path style="fill:none;stroke:#bebebe;stroke-linecap:square;stroke-width:1.5;"/>
    <g/>
   </g>
   <g id="line2d_49">
    <defs>
     <path d="M 0 1.5 
C 0.397805 1.5 0.77937 1.341951 1.06066 1.06066 
C 1.341951 0.77937 1.5 0.397805 1.5 0 
C 1.5 -0.397805 1.341951 -0.77937 1.06066 -1.06066 
C 0.77937 -1.341951 0.397805 -1.5 0 -1.5 
C -0.397805 -1.5 -0.77937 -1.341951 -1.06066 -1.06066 
C -1.341951 -0.77937 -1.5 -0.397805 -1.5 0 
C -1.5 0.397805 -1.341951 0.77937 -1.06066 1.06066 
C -0.77937 1.341951 -0.397805 1.5 0 1.5 
z
" id="m289c7079ea" style="stroke:#6495ed;"/>
    </defs>
    <g>
     <use style="fill:#6495ed;stroke:#6495ed;" x="143.058132" xlink:href="#m289c7079ea" y="30.334099"/>
     <use style="fill:#6495ed;stroke:#6495ed;" x="143.058132" xlink:href="#m289c7079ea" y="30.334099"/>
    </g>
   </g>
   <g id="line2d_50">
    <path d="M 78.59642 298.944 
L 78.59642 298.417314 
L 80.258561 298.417314 
L 80.258561 296.31057 
L 88.846997 296.31057 
L 88.846997 293.150453 
L 89.78989 293.150453 
L 89.78989 291.043709 
L 90.684409 291.043709 
L 90.684409 289.990337 
L 94.575872 289.990337 
L 94.575872 288.410278 
L 95.259853 288.410278 
L 95.259853 282.090045 
L 95.918017 282.090045 
L 95.918017 277.349871 
L 98.32726 277.349871 
L 98.32726 274.189754 
L 98.880934 274.189754 
L 98.880934 273.136382 
L 100.934985 273.136382 
L 100.934985 270.502952 
L 101.412804 270.502952 
L 101.412804 266.816149 
L 102.330873 266.816149 
L 102.330873 264.182719 
L 103.203018 264.182719 
L 103.203018 262.60266 
L 103.623262 262.60266 
L 103.623262 259.442544 
L 104.434538 259.442544 
L 104.434538 257.862486 
L 104.826449 257.862486 
L 104.826449 255.229055 
L 105.584798 255.229055 
L 105.584798 251.542253 
L 106.311539 251.542253 
L 106.311539 251.015567 
L 107.009204 251.015567 
L 107.009204 249.962195 
L 107.347841 249.962195 
L 107.347841 249.435508 
L 108.006005 249.435508 
L 108.006005 248.908822 
L 108.640231 248.908822 
L 108.640231 247.85545 
L 108.948899 247.85545 
L 108.948899 246.275392 
L 110.131676 246.275392 
L 110.131676 245.22202 
L 110.415248 245.22202 
L 110.415248 244.168648 
L 111.505558 244.168648 
L 111.505558 243.641962 
L 112.779064 243.641962 
L 112.779064 243.115275 
L 113.022974 243.115275 
L 113.022974 242.061903 
L 113.26352 242.061903 
L 113.26352 241.535217 
L 114.418861 241.535217 
L 114.418861 241.008531 
L 115.077025 241.008531 
L 115.077025 240.481845 
L 115.502395 240.481845 
L 115.502395 238.375101 
L 116.121606 238.375101 
L 116.121606 237.848415 
L 116.323218 237.848415 
L 116.323218 236.795043 
L 116.522527 236.795043 
L 116.522527 235.214984 
L 116.719583 235.214984 
L 116.719583 233.634926 
L 117.297733 233.634926 
L 117.297733 233.10824 
L 117.486268 233.10824 
L 117.486268 229.421437 
L 117.672786 229.421437 
L 117.672786 228.894751 
L 117.857331 228.894751 
L 117.857331 228.368065 
L 118.220662 228.368065 
L 118.220662 227.841379 
L 118.399528 227.841379 
L 118.399528 224.154577 
L 118.576578 224.154577 
L 118.576578 223.101204 
L 118.751849 223.101204 
L 118.751849 222.574518 
L 119.097192 222.574518 
L 119.097192 222.047832 
L 119.267333 222.047832 
L 119.267333 218.887716 
L 119.43583 218.887716 
L 119.43583 216.780971 
L 119.931767 216.780971 
L 119.931767 216.254285 
L 120.254726 216.254285 
L 120.254726 213.094169 
L 120.41399 213.094169 
L 120.41399 212.567483 
L 121.036887 212.567483 
L 121.036887 211.514111 
L 121.189196 211.514111 
L 121.189196 209.934052 
L 121.340187 209.934052 
L 121.340187 209.407366 
L 121.489881 209.407366 
L 121.489881 208.353994 
L 121.785469 208.353994 
L 121.785469 204.140506 
L 121.931406 204.140506 
L 121.931406 202.033761 
L 122.219665 202.033761 
L 122.219665 200.980389 
L 122.503236 200.980389 
L 122.503236 195.186842 
L 122.643312 195.186842 
L 122.643312 192.553412 
L 122.920132 192.553412 
L 122.920132 192.026726 
L 123.192626 192.026726 
L 123.192626 189.919981 
L 123.327293 189.919981 
L 123.327293 187.813237 
L 123.460928 187.813237 
L 123.460928 187.286551 
L 123.593547 187.286551 
L 123.593547 185.706493 
L 123.855796 185.706493 
L 123.855796 185.179807 
L 123.985457 185.179807 
L 123.985457 180.966318 
L 124.114161 180.966318 
L 124.114161 180.439632 
L 124.241922 180.439632 
L 124.241922 178.859574 
L 124.494669 178.859574 
L 124.494669 177.279515 
L 124.619683 177.279515 
L 124.619683 173.066027 
L 124.743806 173.066027 
L 124.743806 171.485969 
L 124.867052 171.485969 
L 124.867052 168.325852 
L 125.110962 168.325852 
L 125.110962 166.745794 
L 125.23165 166.745794 
L 125.23165 165.692422 
L 125.351508 165.692422 
L 125.351508 164.63905 
L 125.470548 164.63905 
L 125.470548 162.005619 
L 125.588781 162.005619 
L 125.588781 161.478933 
L 125.706218 161.478933 
L 125.706218 159.372189 
L 125.822869 159.372189 
L 125.822869 157.79213 
L 125.938745 157.79213 
L 125.938745 157.265444 
L 126.053856 157.265444 
L 126.053856 156.738758 
L 126.168212 156.738758 
L 126.168212 155.685386 
L 126.281824 155.685386 
L 126.281824 153.051956 
L 126.3947 153.051956 
L 126.3947 151.471897 
L 126.50685 151.471897 
L 126.50685 149.891839 
L 126.618283 149.891839 
L 126.729009 148.311781 
L 126.839037 148.311781 
L 126.948374 144.624978 
L 127.05703 144.624978 
L 127.165014 140.41149 
L 127.272333 140.41149 
L 127.378995 138.304745 
L 127.48501 138.304745 
L 127.590383 131.457826 
L 127.695124 131.457826 
L 127.799239 126.190966 
L 127.902737 126.190966 
L 127.902737 124.610907 
L 128.107907 124.610907 
L 128.209594 119.870733 
L 128.310692 119.870733 
L 128.411207 118.290674 
L 128.610515 118.290674 
L 128.610515 117.763988 
L 128.807571 117.763988 
L 128.905271 113.5505 
L 129.099042 113.5505 
L 129.195127 109.337011 
L 129.290685 109.337011 
L 129.385722 104.07015 
L 129.574256 104.07015 
L 129.667765 103.016778 
L 129.760775 103.016778 
L 129.853291 99.329976 
L 130.036864 99.329976 
L 130.127931 97.749917 
L 130.218525 97.749917 
L 130.218525 97.223231 
L 130.487516 97.223231 
L 130.487516 95.116487 
L 130.664567 95.116487 
L 130.664567 94.063115 
L 130.926816 94.063115 
L 131.013364 90.376312 
L 131.185181 90.376312 
L 131.185181 89.849626 
L 131.355321 89.849626 
L 131.439773 85.109451 
L 131.77355 85.109451 
L 131.856005 83.529393 
L 132.019755 83.529393 
L 132.019755 82.476021 
L 132.181982 82.476021 
L 132.262533 78.789218 
L 132.422528 78.789218 
L 132.422528 78.262532 
L 132.581068 78.262532 
L 132.659801 72.995672 
L 132.816208 72.995672 
L 132.816208 71.942299 
L 132.971225 71.942299 
L 133.04822 69.835555 
L 133.201197 69.835555 
L 133.201197 68.255497 
L 133.57787 68.255497 
L 133.57787 66.148752 
L 133.946579 66.148752 
L 134.019394 61.935264 
L 134.307653 61.935264 
L 134.307653 58.775147 
L 134.450015 58.775147 
L 134.450015 58.248461 
L 134.661403 58.248461 
L 134.661403 57.721775 
L 135.212889 57.721775 
L 135.212889 57.195089 
L 136.202149 57.195089 
L 136.202149 56.668403 
L 136.519813 56.668403 
L 136.519813 56.141717 
L 136.831795 56.141717 
L 136.831795 55.615031 
L 137.138292 55.615031 
L 137.138292 55.088345 
L 137.499118 55.088345 
L 137.499118 54.561659 
L 137.794206 54.561659 
L 137.794206 54.034973 
L 138.084384 54.034973 
L 138.084384 52.9816 
L 138.369812 52.9816 
L 138.369812 52.454914 
L 138.650644 52.454914 
L 138.650644 50.874856 
L 138.816998 50.874856 
L 138.927025 48.768112 
L 139.199094 48.768112 
L 139.199094 46.134681 
L 139.466984 46.134681 
L 139.466984 44.027937 
L 139.678372 44.027937 
L 139.678372 43.501251 
L 140.195896 43.501251 
L 140.195896 42.447879 
L 140.993259 42.447879 
L 140.993259 41.921193 
L 141.709062 41.921193 
L 141.709062 41.394507 
L 141.941279 41.394507 
L 141.941279 40.341135 
L 142.170445 40.341135 
L 142.170445 39.287762 
L 142.396639 39.287762 
L 142.396639 38.23439 
L 142.619936 38.23439 
L 142.619936 37.181018 
L 142.840411 37.181018 
L 142.840411 36.127646 
L 143.058132 36.127646 
L 143.058132 30.334099 
L 338.688 30.334099 
L 338.688 30.334099 
" style="fill:none;stroke:#6495ed;stroke-linecap:square;stroke-width:1.5;"/>
   </g>
   <g id="line2d_51">
    <defs>
     <path d="M -0 6 
L 6 -6 
L -6 -6 
z
" id="m0e8465eac0" style="stroke:#6495ed;stroke-linejoin:miter;stroke-width:1.5;"/>
    </defs>
    <g>
     <use style="fill-opacity:0;stroke:#6495ed;stroke-linejoin:miter;stroke-width:1.5;" x="130.487516" xlink:href="#m0e8465eac0" y="95.116487"/>
     <use style="fill-opacity:0;stroke:#6495ed;stroke-linejoin:miter;stroke-width:1.5;" x="143.058132" xlink:href="#m0e8465eac0" y="36.127646"/>
     <use style="fill-opacity:0;stroke:#6495ed;stroke-linejoin:miter;stroke-width:1.5;" x="143.058132" xlink:href="#m0e8465eac0" y="30.334099"/>
     <use style="fill-opacity:0;stroke:#6495ed;stroke-linejoin:miter;stroke-width:1.5;" x="143.058132" xlink:href="#m0e8465eac0" y="30.334099"/>
     <use style="fill-opacity:0;stroke:#6495ed;stroke-linejoin:miter;stroke-width:1.5;" x="338.688" xlink:href="#m0e8465eac0" y="30.334099"/>
    </g>
   </g>
   <g id="line2d_52">
    <path style="fill:none;stroke:#6495ed;stroke-linecap:square;stroke-width:1.5;"/>
    <g/>
   </g>
   <g id="line2d_53">
    <path d="M 338.688 30.334099 
L 369.60768 293.571802 
" style="fill:none;stroke:#000080;stroke-linecap:square;stroke-width:1.5;"/>
    <g>
     <use style="fill-opacity:0;stroke:#000080;stroke-width:1.5;" x="338.688" xlink:href="#me8d5f6955b" y="30.334099"/>
     <use style="fill-opacity:0;stroke:#000080;stroke-width:1.5;" x="369.60768" xlink:href="#me8d5f6955b" y="293.571802"/>
    </g>
   </g>
   <g id="line2d_54">
    <path d="M 338.688 30.334099 
L 369.60768 207.616634 
" style="fill:none;stroke:#6495ed;stroke-linecap:square;stroke-width:1.5;"/>
    <g>
     <use style="fill-opacity:0;stroke:#6495ed;stroke-linejoin:miter;stroke-width:1.5;" x="338.688" xlink:href="#m0e8465eac0" y="30.334099"/>
     <use style="fill-opacity:0;stroke:#6495ed;stroke-linejoin:miter;stroke-width:1.5;" x="369.60768" xlink:href="#m0e8465eac0" y="207.616634"/>
    </g>
   </g>
   <g id="line2d_55">
    <path d="M 338.688 30.334099 
L 369.60768 121.661465 
" style="fill:none;stroke:#ff0000;stroke-linecap:square;stroke-width:1.5;"/>
    <g>
     <use style="fill-opacity:0;stroke:#ff0000;stroke-linejoin:miter;stroke-width:1.5;" x="338.688" xlink:href="#mb159b3a145" y="30.334099"/>
     <use style="fill-opacity:0;stroke:#ff0000;stroke-linejoin:miter;stroke-width:1.5;" x="369.60768" xlink:href="#mb159b3a145" y="121.661465"/>
    </g>
   </g>
   <g id="line2d_56">
    <path d="M 338.688 30.334099 
L 369.60768 35.706297 
" style="fill:none;stroke:#bebebe;stroke-linecap:square;stroke-width:1.5;"/>
    <g>
     <use style="fill-opacity:0;stroke:#bebebe;stroke-width:1.5;" x="338.688" xlink:href="#ma7934f3847" y="30.334099"/>
     <use style="fill-opacity:0;stroke:#bebebe;stroke-width:1.5;" x="369.60768" xlink:href="#ma7934f3847" y="35.706297"/>
    </g>
   </g>
   <g id="line2d_57">
    <path d="M 338.688 298.944 
L 338.688 30.334099 
" style="fill:none;stroke:#000000;stroke-linecap:square;stroke-width:1.5;"/>
   </g>
   <g id="patch_3">
    <path d="M 57.6 298.944 
L 57.6 27.648 
" style="fill:none;stroke:#000000;stroke-linecap:square;stroke-linejoin:miter;stroke-width:0.8;"/>
   </g>
   <g id="patch_4">
    <path d="M 338.688 298.944 
L 338.688 27.648 
" style="fill:none;stroke:#000000;stroke-linecap:square;stroke-linejoin:miter;stroke-width:0.8;"/>
   </g>
   <g id="patch_5">
    <path d="M 57.6 298.944 
L 338.688 298.944 
" style="fill:none;stroke:#000000;stroke-linecap:square;stroke-linejoin:miter;stroke-width:0.8;"/>
   </g>
   <g id="patch_6">
    <path d="M 57.6 27.648 
L 338.688 27.648 
" style="fill:none;stroke:#000000;stroke-linecap:square;stroke-linejoin:miter;stroke-width:0.8;"/>
   </g>
   <g id="text_13">
    <!-- CMA-ES  2 -->
    <defs>
     <path d="M 64.40625 67.28125 
L 64.40625 56.890625 
Q 59.421875 61.53125 53.78125 63.8125 
Q 48.140625 66.109375 41.796875 66.109375 
Q 29.296875 66.109375 22.65625 58.46875 
Q 16.015625 50.828125 16.015625 36.375 
Q 16.015625 21.96875 22.65625 14.328125 
Q 29.296875 6.6875 41.796875 6.6875 
Q 48.140625 6.6875 53.78125 8.984375 
Q 59.421875 11.28125 64.40625 15.921875 
L 64.40625 5.609375 
Q 59.234375 2.09375 53.4375 0.328125 
Q 47.65625 -1.421875 41.21875 -1.421875 
Q 24.65625 -1.421875 15.125 8.703125 
Q 5.609375 18.84375 5.609375 36.375 
Q 5.609375 53.953125 15.125 64.078125 
Q 24.65625 74.21875 41.21875 74.21875 
Q 47.75 74.21875 53.53125 72.484375 
Q 59.328125 70.75 64.40625 67.28125 
z
" id="DejaVuSans-67"/>
     <path d="M 9.8125 72.90625 
L 24.515625 72.90625 
L 43.109375 23.296875 
L 61.8125 72.90625 
L 76.515625 72.90625 
L 76.515625 0 
L 66.890625 0 
L 66.890625 64.015625 
L 48.09375 14.015625 
L 38.1875 14.015625 
L 19.390625 64.015625 
L 19.390625 0 
L 9.8125 0 
z
" id="DejaVuSans-77"/>
     <path d="M 34.1875 63.1875 
L 20.796875 26.90625 
L 47.609375 26.90625 
z
M 28.609375 72.90625 
L 39.796875 72.90625 
L 67.578125 0 
L 57.328125 0 
L 50.6875 18.703125 
L 17.828125 18.703125 
L 11.1875 0 
L 0.78125 0 
z
" id="DejaVuSans-65"/>
     <path d="M 9.8125 72.90625 
L 55.90625 72.90625 
L 55.90625 64.59375 
L 19.671875 64.59375 
L 19.671875 43.015625 
L 54.390625 43.015625 
L 54.390625 34.71875 
L 19.671875 34.71875 
L 19.671875 8.296875 
L 56.78125 8.296875 
L 56.78125 0 
L 9.8125 0 
z
" id="DejaVuSans-69"/>
     <path d="M 53.515625 70.515625 
L 53.515625 60.890625 
Q 47.90625 63.578125 42.921875 64.890625 
Q 37.9375 66.21875 33.296875 66.21875 
Q 25.25 66.21875 20.875 63.09375 
Q 16.5 59.96875 16.5 54.203125 
Q 16.5 49.359375 19.40625 46.890625 
Q 22.3125 44.4375 30.421875 42.921875 
L 36.375 41.703125 
Q 47.40625 39.59375 52.65625 34.296875 
Q 57.90625 29 57.90625 20.125 
Q 57.90625 9.515625 50.796875 4.046875 
Q 43.703125 -1.421875 29.984375 -1.421875 
Q 24.8125 -1.421875 18.96875 -0.25 
Q 13.140625 0.921875 6.890625 3.21875 
L 6.890625 13.375 
Q 12.890625 10.015625 18.65625 8.296875 
Q 24.421875 6.59375 29.984375 6.59375 
Q 38.421875 6.59375 43.015625 9.90625 
Q 47.609375 13.234375 47.609375 19.390625 
Q 47.609375 24.75 44.3125 27.78125 
Q 41.015625 30.8125 33.5 32.328125 
L 27.484375 33.5 
Q 16.453125 35.6875 11.515625 40.375 
Q 6.59375 45.0625 6.59375 53.421875 
Q 6.59375 63.09375 13.40625 68.65625 
Q 20.21875 74.21875 32.171875 74.21875 
Q 37.3125 74.21875 42.625 73.28125 
Q 47.953125 72.359375 53.515625 70.515625 
z
" id="DejaVuSans-83"/>
    </defs>
    <g transform="translate(375.22944 298.262739)scale(0.17 -0.17)">
     <use xlink:href="#DejaVuSans-67"/>
     <use x="69.824219" xlink:href="#DejaVuSans-77"/>
     <use x="156.103516" xlink:href="#DejaVuSans-65"/>
     <use x="224.480469" xlink:href="#DejaVuSans-45"/>
     <use x="260.564453" xlink:href="#DejaVuSans-69"/>
     <use x="323.748047" xlink:href="#DejaVuSans-83"/>
     <use x="387.224609" xlink:href="#DejaVuSans-32"/>
     <use x="419.011719" xlink:href="#DejaVuSans-32"/>
     <use x="450.798828" xlink:href="#DejaVuSans-50"/>
    </g>
   </g>
   <g id="text_14">
    <!-- SLSQP-11  -->
    <defs>
     <path d="M 9.8125 72.90625 
L 19.671875 72.90625 
L 19.671875 8.296875 
L 55.171875 8.296875 
L 55.171875 0 
L 9.8125 0 
z
" id="DejaVuSans-76"/>
     <path d="M 39.40625 66.21875 
Q 28.65625 66.21875 22.328125 58.203125 
Q 16.015625 50.203125 16.015625 36.375 
Q 16.015625 22.609375 22.328125 14.59375 
Q 28.65625 6.59375 39.40625 6.59375 
Q 50.140625 6.59375 56.421875 14.59375 
Q 62.703125 22.609375 62.703125 36.375 
Q 62.703125 50.203125 56.421875 58.203125 
Q 50.140625 66.21875 39.40625 66.21875 
z
M 53.21875 1.3125 
L 66.21875 -12.890625 
L 54.296875 -12.890625 
L 43.5 -1.21875 
Q 41.890625 -1.3125 41.03125 -1.359375 
Q 40.1875 -1.421875 39.40625 -1.421875 
Q 24.03125 -1.421875 14.8125 8.859375 
Q 5.609375 19.140625 5.609375 36.375 
Q 5.609375 53.65625 14.8125 63.9375 
Q 24.03125 74.21875 39.40625 74.21875 
Q 54.734375 74.21875 63.90625 63.9375 
Q 73.09375 53.65625 73.09375 36.375 
Q 73.09375 23.6875 67.984375 14.640625 
Q 62.890625 5.609375 53.21875 1.3125 
z
" id="DejaVuSans-81"/>
     <path d="M 19.671875 64.796875 
L 19.671875 37.40625 
L 32.078125 37.40625 
Q 38.96875 37.40625 42.71875 40.96875 
Q 46.484375 44.53125 46.484375 51.125 
Q 46.484375 57.671875 42.71875 61.234375 
Q 38.96875 64.796875 32.078125 64.796875 
z
M 9.8125 72.90625 
L 32.078125 72.90625 
Q 44.34375 72.90625 50.609375 67.359375 
Q 56.890625 61.8125 56.890625 51.125 
Q 56.890625 40.328125 50.609375 34.8125 
Q 44.34375 29.296875 32.078125 29.296875 
L 19.671875 29.296875 
L 19.671875 0 
L 9.8125 0 
z
" id="DejaVuSans-80"/>
    </defs>
    <g transform="translate(375.22944 212.307571)scale(0.17 -0.17)">
     <use xlink:href="#DejaVuSans-83"/>
     <use x="63.476562" xlink:href="#DejaVuSans-76"/>
     <use x="119.189453" xlink:href="#DejaVuSans-83"/>
     <use x="182.666016" xlink:href="#DejaVuSans-81"/>
     <use x="261.376953" xlink:href="#DejaVuSans-80"/>
     <use x="321.648438" xlink:href="#DejaVuSans-45"/>
     <use x="357.732422" xlink:href="#DejaVuSans-49"/>
     <use x="421.355469" xlink:href="#DejaVuSans-49"/>
     <use x="484.978516" xlink:href="#DejaVuSans-32"/>
    </g>
   </g>
   <g id="text_15">
    <!-- lq-CMA-ES -->
    <defs>
     <path d="M 14.796875 27.296875 
Q 14.796875 17.390625 18.875 11.75 
Q 22.953125 6.109375 30.078125 6.109375 
Q 37.203125 6.109375 41.296875 11.75 
Q 45.40625 17.390625 45.40625 27.296875 
Q 45.40625 37.203125 41.296875 42.84375 
Q 37.203125 48.484375 30.078125 48.484375 
Q 22.953125 48.484375 18.875 42.84375 
Q 14.796875 37.203125 14.796875 27.296875 
z
M 45.40625 8.203125 
Q 42.578125 3.328125 38.25 0.953125 
Q 33.9375 -1.421875 27.875 -1.421875 
Q 17.96875 -1.421875 11.734375 6.484375 
Q 5.515625 14.40625 5.515625 27.296875 
Q 5.515625 40.1875 11.734375 48.09375 
Q 17.96875 56 27.875 56 
Q 33.9375 56 38.25 53.625 
Q 42.578125 51.265625 45.40625 46.390625 
L 45.40625 54.6875 
L 54.390625 54.6875 
L 54.390625 -20.796875 
L 45.40625 -20.796875 
z
" id="DejaVuSans-113"/>
    </defs>
    <g transform="translate(375.22944 126.352403)scale(0.17 -0.17)">
     <use xlink:href="#DejaVuSans-108"/>
     <use x="27.783203" xlink:href="#DejaVuSans-113"/>
     <use x="91.259766" xlink:href="#DejaVuSans-45"/>
     <use x="127.34375" xlink:href="#DejaVuSans-67"/>
     <use x="197.167969" xlink:href="#DejaVuSans-77"/>
     <use x="283.447266" xlink:href="#DejaVuSans-65"/>
     <use x="351.824219" xlink:href="#DejaVuSans-45"/>
     <use x="387.908203" xlink:href="#DejaVuSans-69"/>
     <use x="451.091797" xlink:href="#DejaVuSans-83"/>
    </g>
   </g>
   <g id="text_16">
    <!-- SLSQP+CMA -->
    <defs>
     <path d="M 46 62.703125 
L 46 35.5 
L 73.1875 35.5 
L 73.1875 27.203125 
L 46 27.203125 
L 46 0 
L 37.796875 0 
L 37.796875 27.203125 
L 10.59375 27.203125 
L 10.59375 35.5 
L 37.796875 35.5 
L 37.796875 62.703125 
z
" id="DejaVuSans-43"/>
    </defs>
    <g transform="translate(375.22944 40.397235)scale(0.17 -0.17)">
     <use xlink:href="#DejaVuSans-83"/>
     <use x="63.476562" xlink:href="#DejaVuSans-76"/>
     <use x="119.189453" xlink:href="#DejaVuSans-83"/>
     <use x="182.666016" xlink:href="#DejaVuSans-81"/>
     <use x="261.376953" xlink:href="#DejaVuSans-80"/>
     <use x="321.679688" xlink:href="#DejaVuSans-43"/>
     <use x="405.46875" xlink:href="#DejaVuSans-67"/>
     <use x="475.292969" xlink:href="#DejaVuSans-77"/>
     <use x="561.572266" xlink:href="#DejaVuSans-65"/>
    </g>
   </g>
   <g id="text_17">
    <!-- bbob f8, 3-D -->
    <defs>
     <path d="M 48.6875 27.296875 
Q 48.6875 37.203125 44.609375 42.84375 
Q 40.53125 48.484375 33.40625 48.484375 
Q 26.265625 48.484375 22.1875 42.84375 
Q 18.109375 37.203125 18.109375 27.296875 
Q 18.109375 17.390625 22.1875 11.75 
Q 26.265625 6.109375 33.40625 6.109375 
Q 40.53125 6.109375 44.609375 11.75 
Q 48.6875 17.390625 48.6875 27.296875 
z
M 18.109375 46.390625 
Q 20.953125 51.265625 25.265625 53.625 
Q 29.59375 56 35.59375 56 
Q 45.5625 56 51.78125 48.09375 
Q 58.015625 40.1875 58.015625 27.296875 
Q 58.015625 14.40625 51.78125 6.484375 
Q 45.5625 -1.421875 35.59375 -1.421875 
Q 29.59375 -1.421875 25.265625 0.953125 
Q 20.953125 3.328125 18.109375 8.203125 
L 18.109375 0 
L 9.078125 0 
L 9.078125 75.984375 
L 18.109375 75.984375 
z
" id="DejaVuSans-98"/>
     <path d="M 40.578125 39.3125 
Q 47.65625 37.796875 51.625 33 
Q 55.609375 28.21875 55.609375 21.1875 
Q 55.609375 10.40625 48.1875 4.484375 
Q 40.765625 -1.421875 27.09375 -1.421875 
Q 22.515625 -1.421875 17.65625 -0.515625 
Q 12.796875 0.390625 7.625 2.203125 
L 7.625 11.71875 
Q 11.71875 9.328125 16.59375 8.109375 
Q 21.484375 6.890625 26.8125 6.890625 
Q 36.078125 6.890625 40.9375 10.546875 
Q 45.796875 14.203125 45.796875 21.1875 
Q 45.796875 27.640625 41.28125 31.265625 
Q 36.765625 34.90625 28.71875 34.90625 
L 20.21875 34.90625 
L 20.21875 43.015625 
L 29.109375 43.015625 
Q 36.375 43.015625 40.234375 45.921875 
Q 44.09375 48.828125 44.09375 54.296875 
Q 44.09375 59.90625 40.109375 62.90625 
Q 36.140625 65.921875 28.71875 65.921875 
Q 24.65625 65.921875 20.015625 65.03125 
Q 15.375 64.15625 9.8125 62.3125 
L 9.8125 71.09375 
Q 15.4375 72.65625 20.34375 73.4375 
Q 25.25 74.21875 29.59375 74.21875 
Q 40.828125 74.21875 47.359375 69.109375 
Q 53.90625 64.015625 53.90625 55.328125 
Q 53.90625 49.265625 50.4375 45.09375 
Q 46.96875 40.921875 40.578125 39.3125 
z
" id="DejaVuSans-51"/>
     <path d="M 19.671875 64.796875 
L 19.671875 8.109375 
L 31.59375 8.109375 
Q 46.6875 8.109375 53.6875 14.9375 
Q 60.6875 21.78125 60.6875 36.53125 
Q 60.6875 51.171875 53.6875 57.984375 
Q 46.6875 64.796875 31.59375 64.796875 
z
M 9.8125 72.90625 
L 30.078125 72.90625 
Q 51.265625 72.90625 61.171875 64.09375 
Q 71.09375 55.28125 71.09375 36.53125 
Q 71.09375 17.671875 61.125 8.828125 
Q 51.171875 0 30.078125 0 
L 9.8125 0 
z
" id="DejaVuSans-68"/>
    </defs>
    <g transform="translate(60.41088 38.111366)scale(0.102 -0.102)">
     <use xlink:href="#DejaVuSans-98"/>
     <use x="63.476562" xlink:href="#DejaVuSans-98"/>
     <use x="126.953125" xlink:href="#DejaVuSans-111"/>
     <use x="188.134766" xlink:href="#DejaVuSans-98"/>
     <use x="251.611328" xlink:href="#DejaVuSans-32"/>
     <use x="283.398438" xlink:href="#DejaVuSans-102"/>
     <use x="318.603516" xlink:href="#DejaVuSans-56"/>
     <use x="382.226562" xlink:href="#DejaVuSans-44"/>
     <use x="414.013672" xlink:href="#DejaVuSans-32"/>
     <use x="445.800781" xlink:href="#DejaVuSans-51"/>
     <use x="509.423828" xlink:href="#DejaVuSans-45"/>
     <use x="545.507812" xlink:href="#DejaVuSans-68"/>
    </g>
    <!-- 51 targets: 100..1e-08 -->
    <defs>
     <path d="M 10.796875 72.90625 
L 49.515625 72.90625 
L 49.515625 64.59375 
L 19.828125 64.59375 
L 19.828125 46.734375 
Q 21.96875 47.46875 24.109375 47.828125 
Q 26.265625 48.1875 28.421875 48.1875 
Q 40.625 48.1875 47.75 41.5 
Q 54.890625 34.8125 54.890625 23.390625 
Q 54.890625 11.625 47.5625 5.09375 
Q 40.234375 -1.421875 26.90625 -1.421875 
Q 22.3125 -1.421875 17.546875 -0.640625 
Q 12.796875 0.140625 7.71875 1.703125 
L 7.71875 11.625 
Q 12.109375 9.234375 16.796875 8.0625 
Q 21.484375 6.890625 26.703125 6.890625 
Q 35.15625 6.890625 40.078125 11.328125 
Q 45.015625 15.765625 45.015625 23.390625 
Q 45.015625 31 40.078125 35.4375 
Q 35.15625 39.890625 26.703125 39.890625 
Q 22.75 39.890625 18.8125 39.015625 
Q 14.890625 38.140625 10.796875 36.28125 
z
" id="DejaVuSans-53"/>
     <path d="M 11.71875 12.40625 
L 22.015625 12.40625 
L 22.015625 0 
L 11.71875 0 
z
M 11.71875 51.703125 
L 22.015625 51.703125 
L 22.015625 39.3125 
L 11.71875 39.3125 
z
" id="DejaVuSans-58"/>
    </defs>
    <g transform="translate(60.41088 49.533135)scale(0.102 -0.102)">
     <use xlink:href="#DejaVuSans-53"/>
     <use x="63.623047" xlink:href="#DejaVuSans-49"/>
     <use x="127.246094" xlink:href="#DejaVuSans-32"/>
     <use x="159.033203" xlink:href="#DejaVuSans-116"/>
     <use x="198.242188" xlink:href="#DejaVuSans-97"/>
     <use x="259.521484" xlink:href="#DejaVuSans-114"/>
     <use x="300.619141" xlink:href="#DejaVuSans-103"/>
     <use x="364.095703" xlink:href="#DejaVuSans-101"/>
     <use x="425.619141" xlink:href="#DejaVuSans-116"/>
     <use x="464.828125" xlink:href="#DejaVuSans-115"/>
     <use x="516.927734" xlink:href="#DejaVuSans-58"/>
     <use x="550.619141" xlink:href="#DejaVuSans-32"/>
     <use x="582.40625" xlink:href="#DejaVuSans-49"/>
     <use x="646.029297" xlink:href="#DejaVuSans-48"/>
     <use x="709.652344" xlink:href="#DejaVuSans-48"/>
     <use x="773.275391" xlink:href="#DejaVuSans-46"/>
     <use x="805.0625" xlink:href="#DejaVuSans-46"/>
     <use x="836.849609" xlink:href="#DejaVuSans-49"/>
     <use x="900.472656" xlink:href="#DejaVuSans-101"/>
     <use x="961.996094" xlink:href="#DejaVuSans-45"/>
     <use x="998.080078" xlink:href="#DejaVuSans-48"/>
     <use x="1061.703125" xlink:href="#DejaVuSans-56"/>
    </g>
    <!-- 15 instances -->
    <g transform="translate(60.41088 60.954904)scale(0.102 -0.102)">
     <use xlink:href="#DejaVuSans-49"/>
     <use x="63.623047" xlink:href="#DejaVuSans-53"/>
     <use x="127.246094" xlink:href="#DejaVuSans-32"/>
     <use x="159.033203" xlink:href="#DejaVuSans-105"/>
     <use x="186.816406" xlink:href="#DejaVuSans-110"/>
     <use x="250.195312" xlink:href="#DejaVuSans-115"/>
     <use x="302.294922" xlink:href="#DejaVuSans-116"/>
     <use x="341.503906" xlink:href="#DejaVuSans-97"/>
     <use x="402.783203" xlink:href="#DejaVuSans-110"/>
     <use x="466.162109" xlink:href="#DejaVuSans-99"/>
     <use x="521.142578" xlink:href="#DejaVuSans-101"/>
     <use x="582.666016" xlink:href="#DejaVuSans-115"/>
    </g>
   </g>
   <g id="text_18">
    <!-- v2.3.2 -->
    <g style="fill:#808080;" transform="translate(182.46275 294.151352)scale(0.1 -0.1)">
     <use xlink:href="#DejaVuSans-118"/>
     <use x="59.179688" xlink:href="#DejaVuSans-50"/>
     <use x="122.802734" xlink:href="#DejaVuSans-46"/>
     <use x="154.589844" xlink:href="#DejaVuSans-51"/>
     <use x="218.212891" xlink:href="#DejaVuSans-46"/>
     <use x="250" xlink:href="#DejaVuSans-50"/>
    </g>
   </g>
   <g id="text_19">
    <!-- 8 Rosenbrock original -->
    <defs>
     <path d="M 44.390625 34.1875 
Q 47.5625 33.109375 50.5625 29.59375 
Q 53.5625 26.078125 56.59375 19.921875 
L 66.609375 0 
L 56 0 
L 46.6875 18.703125 
Q 43.0625 26.03125 39.671875 28.421875 
Q 36.28125 30.8125 30.421875 30.8125 
L 19.671875 30.8125 
L 19.671875 0 
L 9.8125 0 
L 9.8125 72.90625 
L 32.078125 72.90625 
Q 44.578125 72.90625 50.734375 67.671875 
Q 56.890625 62.453125 56.890625 51.90625 
Q 56.890625 45.015625 53.6875 40.46875 
Q 50.484375 35.9375 44.390625 34.1875 
z
M 19.671875 64.796875 
L 19.671875 38.921875 
L 32.078125 38.921875 
Q 39.203125 38.921875 42.84375 42.21875 
Q 46.484375 45.515625 46.484375 51.90625 
Q 46.484375 58.296875 42.84375 61.546875 
Q 39.203125 64.796875 32.078125 64.796875 
z
" id="DejaVuSans-82"/>
     <path d="M 9.078125 75.984375 
L 18.109375 75.984375 
L 18.109375 31.109375 
L 44.921875 54.6875 
L 56.390625 54.6875 
L 27.390625 29.109375 
L 57.625 0 
L 45.90625 0 
L 18.109375 26.703125 
L 18.109375 0 
L 9.078125 0 
z
" id="DejaVuSans-107"/>
    </defs>
    <g transform="translate(89.422125 21.648)scale(0.2 -0.2)">
     <use xlink:href="#DejaVuSans-56"/>
     <use x="63.623047" xlink:href="#DejaVuSans-32"/>
     <use x="95.410156" xlink:href="#DejaVuSans-82"/>
     <use x="164.830078" xlink:href="#DejaVuSans-111"/>
     <use x="226.011719" xlink:href="#DejaVuSans-115"/>
     <use x="278.111328" xlink:href="#DejaVuSans-101"/>
     <use x="339.634766" xlink:href="#DejaVuSans-110"/>
     <use x="403.013672" xlink:href="#DejaVuSans-98"/>
     <use x="466.490234" xlink:href="#DejaVuSans-114"/>
     <use x="507.572266" xlink:href="#DejaVuSans-111"/>
     <use x="568.753906" xlink:href="#DejaVuSans-99"/>
     <use x="623.734375" xlink:href="#DejaVuSans-107"/>
     <use x="681.644531" xlink:href="#DejaVuSans-32"/>
     <use x="713.431641" xlink:href="#DejaVuSans-111"/>
     <use x="774.613281" xlink:href="#DejaVuSans-114"/>
     <use x="815.726562" xlink:href="#DejaVuSans-105"/>
     <use x="843.509766" xlink:href="#DejaVuSans-103"/>
     <use x="906.986328" xlink:href="#DejaVuSans-105"/>
     <use x="934.769531" xlink:href="#DejaVuSans-110"/>
     <use x="998.148438" xlink:href="#DejaVuSans-97"/>
     <use x="1059.427734" xlink:href="#DejaVuSans-108"/>
    </g>
   </g>
  </g>
 </g>
 <defs>
  <clipPath id="p05252cf86a">
   <rect height="271.296" width="281.088" x="57.6" y="27.648"/>
  </clipPath>
 </defs>
</svg>
