<?xml version="1.0" encoding="utf-8" standalone="no"?>
<!DOCTYPE svg PUBLIC "-//W3C//DTD SVG 1.1//EN"
  "http://www.w3.org/Graphics/SVG/1.1/DTD/svg11.dtd">
<!-- Created with matplotlib (https://matplotlib.org/) -->
<svg height="345.6pt" version="1.1" viewBox="0 0 460.8 345.6" width="460.8pt" xmlns="http://www.w3.org/2000/svg" xmlns:xlink="http://www.w3.org/1999/xlink">
 <defs>
  <style type="text/css">
*{stroke-linecap:butt;stroke-linejoin:round;}
  </style>
 </defs>
 <g id="figure_1">
  <g id="patch_1">
   <path d="M 0 345.6 
L 460.8 345.6 
L 460.8 0 
L 0 0 
z
" style="fill:#ffffff;"/>
  </g>
  <g id="axes_1">
   <g id="patch_2">
    <path d="M 57.6 298.944 
L 338.688 298.944 
L 338.688 27.648 
L 57.6 27.648 
z
" style="fill:#ffffff;"/>
   </g>
   <g id="matplotlib.axis_1">
    <g id="xtick_1">
     <g id="line2d_1">
      <path clip-path="url(#pe0ea0a7b71)" d="M 57.6 298.944 
L 57.6 27.648 
" style="fill:none;stroke:#b0b0b0;stroke-linecap:square;stroke-width:0.8;"/>
     </g>
     <g id="line2d_2">
      <defs>
       <path d="M 0 0 
L 0 3.5 
" id="m2285203037" style="stroke:#000000;stroke-width:0.8;"/>
      </defs>
      <g>
       <use style="stroke:#000000;stroke-width:0.8;" x="57.6" xlink:href="#m2285203037" y="298.944"/>
      </g>
     </g>
     <g id="text_1">
      <!-- 0 -->
      <defs>
       <path d="M 31.78125 66.40625 
Q 24.171875 66.40625 20.328125 58.90625 
Q 16.5 51.421875 16.5 36.375 
Q 16.5 21.390625 20.328125 13.890625 
Q 24.171875 6.390625 31.78125 6.390625 
Q 39.453125 6.390625 43.28125 13.890625 
Q 47.125 21.390625 47.125 36.375 
Q 47.125 51.421875 43.28125 58.90625 
Q 39.453125 66.40625 31.78125 66.40625 
z
M 31.78125 74.21875 
Q 44.046875 74.21875 50.515625 64.515625 
Q 56.984375 54.828125 56.984375 36.375 
Q 56.984375 17.96875 50.515625 8.265625 
Q 44.046875 -1.421875 31.78125 -1.421875 
Q 19.53125 -1.421875 13.0625 8.265625 
Q 6.59375 17.96875 6.59375 36.375 
Q 6.59375 54.828125 13.0625 64.515625 
Q 19.53125 74.21875 31.78125 74.21875 
z
" id="DejaVuSans-48"/>
      </defs>
      <g transform="translate(51.2375 321.140875)scale(0.2 -0.2)">
       <use xlink:href="#DejaVuSans-48"/>
      </g>
     </g>
    </g>
    <g id="xtick_2">
     <g id="line2d_3">
      <path clip-path="url(#pe0ea0a7b71)" d="M 137.910857 298.944 
L 137.910857 27.648 
" style="fill:none;stroke:#b0b0b0;stroke-linecap:square;stroke-width:0.8;"/>
     </g>
     <g id="line2d_4">
      <g>
       <use style="stroke:#000000;stroke-width:0.8;" x="137.910857" xlink:href="#m2285203037" y="298.944"/>
      </g>
     </g>
     <g id="text_2">
      <!-- 2 -->
      <defs>
       <path d="M 19.1875 8.296875 
L 53.609375 8.296875 
L 53.609375 0 
L 7.328125 0 
L 7.328125 8.296875 
Q 12.9375 14.109375 22.625 23.890625 
Q 32.328125 33.6875 34.8125 36.53125 
Q 39.546875 41.84375 41.421875 45.53125 
Q 43.3125 49.21875 43.3125 52.78125 
Q 43.3125 58.59375 39.234375 62.25 
Q 35.15625 65.921875 28.609375 65.921875 
Q 23.96875 65.921875 18.8125 64.3125 
Q 13.671875 62.703125 7.8125 59.421875 
L 7.8125 69.390625 
Q 13.765625 71.78125 18.9375 73 
Q 24.125 74.21875 28.421875 74.21875 
Q 39.75 74.21875 46.484375 68.546875 
Q 53.21875 62.890625 53.21875 53.421875 
Q 53.21875 48.921875 51.53125 44.890625 
Q 49.859375 40.875 45.40625 35.40625 
Q 44.1875 33.984375 37.640625 27.21875 
Q 31.109375 20.453125 19.1875 8.296875 
z
" id="DejaVuSans-50"/>
      </defs>
      <g transform="translate(131.548357 321.140875)scale(0.2 -0.2)">
       <use xlink:href="#DejaVuSans-50"/>
      </g>
     </g>
    </g>
    <g id="xtick_3">
     <g id="line2d_5">
      <path clip-path="url(#pe0ea0a7b71)" d="M 218.221714 298.944 
L 218.221714 27.648 
" style="fill:none;stroke:#b0b0b0;stroke-linecap:square;stroke-width:0.8;"/>
     </g>
     <g id="line2d_6">
      <g>
       <use style="stroke:#000000;stroke-width:0.8;" x="218.221714" xlink:href="#m2285203037" y="298.944"/>
      </g>
     </g>
     <g id="text_3">
      <!-- 4 -->
      <defs>
       <path d="M 37.796875 64.3125 
L 12.890625 25.390625 
L 37.796875 25.390625 
z
M 35.203125 72.90625 
L 47.609375 72.90625 
L 47.609375 25.390625 
L 58.015625 25.390625 
L 58.015625 17.1875 
L 47.609375 17.1875 
L 47.609375 0 
L 37.796875 0 
L 37.796875 17.1875 
L 4.890625 17.1875 
L 4.890625 26.703125 
z
" id="DejaVuSans-52"/>
      </defs>
      <g transform="translate(211.859214 321.140875)scale(0.2 -0.2)">
       <use xlink:href="#DejaVuSans-52"/>
      </g>
     </g>
    </g>
    <g id="xtick_4">
     <g id="line2d_7">
      <path clip-path="url(#pe0ea0a7b71)" d="M 298.532571 298.944 
L 298.532571 27.648 
" style="fill:none;stroke:#b0b0b0;stroke-linecap:square;stroke-width:0.8;"/>
     </g>
     <g id="line2d_8">
      <g>
       <use style="stroke:#000000;stroke-width:0.8;" x="298.532571" xlink:href="#m2285203037" y="298.944"/>
      </g>
     </g>
     <g id="text_4">
      <!-- 6 -->
      <defs>
       <path d="M 33.015625 40.375 
Q 26.375 40.375 22.484375 35.828125 
Q 18.609375 31.296875 18.609375 23.390625 
Q 18.609375 15.53125 22.484375 10.953125 
Q 26.375 6.390625 33.015625 6.390625 
Q 39.65625 6.390625 43.53125 10.953125 
Q 47.40625 15.53125 47.40625 23.390625 
Q 47.40625 31.296875 43.53125 35.828125 
Q 39.65625 40.375 33.015625 40.375 
z
M 52.59375 71.296875 
L 52.59375 62.3125 
Q 48.875 64.0625 45.09375 64.984375 
Q 41.3125 65.921875 37.59375 65.921875 
Q 27.828125 65.921875 22.671875 59.328125 
Q 17.53125 52.734375 16.796875 39.40625 
Q 19.671875 43.65625 24.015625 45.921875 
Q 28.375 48.1875 33.59375 48.1875 
Q 44.578125 48.1875 50.953125 41.515625 
Q 57.328125 34.859375 57.328125 23.390625 
Q 57.328125 12.15625 50.6875 5.359375 
Q 44.046875 -1.421875 33.015625 -1.421875 
Q 20.359375 -1.421875 13.671875 8.265625 
Q 6.984375 17.96875 6.984375 36.375 
Q 6.984375 53.65625 15.1875 63.9375 
Q 23.390625 74.21875 37.203125 74.21875 
Q 40.921875 74.21875 44.703125 73.484375 
Q 48.484375 72.75 52.59375 71.296875 
z
" id="DejaVuSans-54"/>
      </defs>
      <g transform="translate(292.170071 321.140875)scale(0.2 -0.2)">
       <use xlink:href="#DejaVuSans-54"/>
      </g>
     </g>
    </g>
    <g id="xtick_5">
     <g id="line2d_9">
      <path clip-path="url(#pe0ea0a7b71)" d="M 57.6 298.944 
L 57.6 27.648 
" style="fill:none;stroke:#b0b0b0;stroke-linecap:square;stroke-width:0.8;"/>
     </g>
     <g id="line2d_10">
      <defs>
       <path d="M 0 0 
L 0 2 
" id="mdc0af22c6e" style="stroke:#000000;stroke-width:0.6;"/>
      </defs>
      <g>
       <use style="stroke:#000000;stroke-width:0.6;" x="57.6" xlink:href="#mdc0af22c6e" y="298.944"/>
      </g>
     </g>
    </g>
    <g id="xtick_6">
     <g id="line2d_11">
      <path clip-path="url(#pe0ea0a7b71)" d="M 97.755429 298.944 
L 97.755429 27.648 
" style="fill:none;stroke:#b0b0b0;stroke-linecap:square;stroke-width:0.8;"/>
     </g>
     <g id="line2d_12">
      <g>
       <use style="stroke:#000000;stroke-width:0.6;" x="97.755429" xlink:href="#mdc0af22c6e" y="298.944"/>
      </g>
     </g>
    </g>
    <g id="xtick_7">
     <g id="line2d_13">
      <path clip-path="url(#pe0ea0a7b71)" d="M 137.910857 298.944 
L 137.910857 27.648 
" style="fill:none;stroke:#b0b0b0;stroke-linecap:square;stroke-width:0.8;"/>
     </g>
     <g id="line2d_14">
      <g>
       <use style="stroke:#000000;stroke-width:0.6;" x="137.910857" xlink:href="#mdc0af22c6e" y="298.944"/>
      </g>
     </g>
    </g>
    <g id="xtick_8">
     <g id="line2d_15">
      <path clip-path="url(#pe0ea0a7b71)" d="M 178.066286 298.944 
L 178.066286 27.648 
" style="fill:none;stroke:#b0b0b0;stroke-linecap:square;stroke-width:0.8;"/>
     </g>
     <g id="line2d_16">
      <g>
       <use style="stroke:#000000;stroke-width:0.6;" x="178.066286" xlink:href="#mdc0af22c6e" y="298.944"/>
      </g>
     </g>
    </g>
    <g id="xtick_9">
     <g id="line2d_17">
      <path clip-path="url(#pe0ea0a7b71)" d="M 218.221714 298.944 
L 218.221714 27.648 
" style="fill:none;stroke:#b0b0b0;stroke-linecap:square;stroke-width:0.8;"/>
     </g>
     <g id="line2d_18">
      <g>
       <use style="stroke:#000000;stroke-width:0.6;" x="218.221714" xlink:href="#mdc0af22c6e" y="298.944"/>
      </g>
     </g>
    </g>
    <g id="xtick_10">
     <g id="line2d_19">
      <path clip-path="url(#pe0ea0a7b71)" d="M 258.377143 298.944 
L 258.377143 27.648 
" style="fill:none;stroke:#b0b0b0;stroke-linecap:square;stroke-width:0.8;"/>
     </g>
     <g id="line2d_20">
      <g>
       <use style="stroke:#000000;stroke-width:0.6;" x="258.377143" xlink:href="#mdc0af22c6e" y="298.944"/>
      </g>
     </g>
    </g>
    <g id="xtick_11">
     <g id="line2d_21">
      <path clip-path="url(#pe0ea0a7b71)" d="M 298.532571 298.944 
L 298.532571 27.648 
" style="fill:none;stroke:#b0b0b0;stroke-linecap:square;stroke-width:0.8;"/>
     </g>
     <g id="line2d_22">
      <g>
       <use style="stroke:#000000;stroke-width:0.6;" x="298.532571" xlink:href="#mdc0af22c6e" y="298.944"/>
      </g>
     </g>
    </g>
    <g id="xtick_12">
     <g id="line2d_23">
      <path clip-path="url(#pe0ea0a7b71)" d="M 338.688 298.944 
L 338.688 27.648 
" style="fill:none;stroke:#b0b0b0;stroke-linecap:square;stroke-width:0.8;"/>
     </g>
     <g id="line2d_24">
      <g>
       <use style="stroke:#000000;stroke-width:0.6;" x="338.688" xlink:href="#mdc0af22c6e" y="298.944"/>
      </g>
     </g>
    </g>
    <g id="text_5">
     <!-- log10(# f-evals / dimension) -->
     <defs>
      <path d="M 9.421875 75.984375 
L 18.40625 75.984375 
L 18.40625 0 
L 9.421875 0 
z
" id="DejaVuSans-108"/>
      <path d="M 30.609375 48.390625 
Q 23.390625 48.390625 19.1875 42.75 
Q 14.984375 37.109375 14.984375 27.296875 
Q 14.984375 17.484375 19.15625 11.84375 
Q 23.34375 6.203125 30.609375 6.203125 
Q 37.796875 6.203125 41.984375 11.859375 
Q 46.1875 17.53125 46.1875 27.296875 
Q 46.1875 37.015625 41.984375 42.703125 
Q 37.796875 48.390625 30.609375 48.390625 
z
M 30.609375 56 
Q 42.328125 56 49.015625 48.375 
Q 55.71875 40.765625 55.71875 27.296875 
Q 55.71875 13.875 49.015625 6.21875 
Q 42.328125 -1.421875 30.609375 -1.421875 
Q 18.84375 -1.421875 12.171875 6.21875 
Q 5.515625 13.875 5.515625 27.296875 
Q 5.515625 40.765625 12.171875 48.375 
Q 18.84375 56 30.609375 56 
z
" id="DejaVuSans-111"/>
      <path d="M 45.40625 27.984375 
Q 45.40625 37.75 41.375 43.109375 
Q 37.359375 48.484375 30.078125 48.484375 
Q 22.859375 48.484375 18.828125 43.109375 
Q 14.796875 37.75 14.796875 27.984375 
Q 14.796875 18.265625 18.828125 12.890625 
Q 22.859375 7.515625 30.078125 7.515625 
Q 37.359375 7.515625 41.375 12.890625 
Q 45.40625 18.265625 45.40625 27.984375 
z
M 54.390625 6.78125 
Q 54.390625 -7.171875 48.1875 -13.984375 
Q 42 -20.796875 29.203125 -20.796875 
Q 24.46875 -20.796875 20.265625 -20.09375 
Q 16.0625 -19.390625 12.109375 -17.921875 
L 12.109375 -9.1875 
Q 16.0625 -11.328125 19.921875 -12.34375 
Q 23.78125 -13.375 27.78125 -13.375 
Q 36.625 -13.375 41.015625 -8.765625 
Q 45.40625 -4.15625 45.40625 5.171875 
L 45.40625 9.625 
Q 42.625 4.78125 38.28125 2.390625 
Q 33.9375 0 27.875 0 
Q 17.828125 0 11.671875 7.65625 
Q 5.515625 15.328125 5.515625 27.984375 
Q 5.515625 40.671875 11.671875 48.328125 
Q 17.828125 56 27.875 56 
Q 33.9375 56 38.28125 53.609375 
Q 42.625 51.21875 45.40625 46.390625 
L 45.40625 54.6875 
L 54.390625 54.6875 
z
" id="DejaVuSans-103"/>
      <path d="M 12.40625 8.296875 
L 28.515625 8.296875 
L 28.515625 63.921875 
L 10.984375 60.40625 
L 10.984375 69.390625 
L 28.421875 72.90625 
L 38.28125 72.90625 
L 38.28125 8.296875 
L 54.390625 8.296875 
L 54.390625 0 
L 12.40625 0 
z
" id="DejaVuSans-49"/>
      <path d="M 31 75.875 
Q 24.46875 64.65625 21.28125 53.65625 
Q 18.109375 42.671875 18.109375 31.390625 
Q 18.109375 20.125 21.3125 9.0625 
Q 24.515625 -2 31 -13.1875 
L 23.1875 -13.1875 
Q 15.875 -1.703125 12.234375 9.375 
Q 8.59375 20.453125 8.59375 31.390625 
Q 8.59375 42.28125 12.203125 53.3125 
Q 15.828125 64.359375 23.1875 75.875 
z
" id="DejaVuSans-40"/>
      <path d="M 51.125 44 
L 36.921875 44 
L 32.8125 27.6875 
L 47.125 27.6875 
z
M 43.796875 71.78125 
L 38.71875 51.515625 
L 52.984375 51.515625 
L 58.109375 71.78125 
L 65.921875 71.78125 
L 60.890625 51.515625 
L 76.125 51.515625 
L 76.125 44 
L 58.984375 44 
L 54.984375 27.6875 
L 70.515625 27.6875 
L 70.515625 20.21875 
L 53.078125 20.21875 
L 48 0 
L 40.1875 0 
L 45.21875 20.21875 
L 30.90625 20.21875 
L 25.875 0 
L 18.015625 0 
L 23.09375 20.21875 
L 7.71875 20.21875 
L 7.71875 27.6875 
L 24.90625 27.6875 
L 29 44 
L 13.28125 44 
L 13.28125 51.515625 
L 30.90625 51.515625 
L 35.890625 71.78125 
z
" id="DejaVuSans-35"/>
      <path id="DejaVuSans-32"/>
      <path d="M 37.109375 75.984375 
L 37.109375 68.5 
L 28.515625 68.5 
Q 23.6875 68.5 21.796875 66.546875 
Q 19.921875 64.59375 19.921875 59.515625 
L 19.921875 54.6875 
L 34.71875 54.6875 
L 34.71875 47.703125 
L 19.921875 47.703125 
L 19.921875 0 
L 10.890625 0 
L 10.890625 47.703125 
L 2.296875 47.703125 
L 2.296875 54.6875 
L 10.890625 54.6875 
L 10.890625 58.5 
Q 10.890625 67.625 15.140625 71.796875 
Q 19.390625 75.984375 28.609375 75.984375 
z
" id="DejaVuSans-102"/>
      <path d="M 4.890625 31.390625 
L 31.203125 31.390625 
L 31.203125 23.390625 
L 4.890625 23.390625 
z
" id="DejaVuSans-45"/>
      <path d="M 56.203125 29.59375 
L 56.203125 25.203125 
L 14.890625 25.203125 
Q 15.484375 15.921875 20.484375 11.0625 
Q 25.484375 6.203125 34.421875 6.203125 
Q 39.59375 6.203125 44.453125 7.46875 
Q 49.3125 8.734375 54.109375 11.28125 
L 54.109375 2.78125 
Q 49.265625 0.734375 44.1875 -0.34375 
Q 39.109375 -1.421875 33.890625 -1.421875 
Q 20.796875 -1.421875 13.15625 6.1875 
Q 5.515625 13.8125 5.515625 26.8125 
Q 5.515625 40.234375 12.765625 48.109375 
Q 20.015625 56 32.328125 56 
Q 43.359375 56 49.78125 48.890625 
Q 56.203125 41.796875 56.203125 29.59375 
z
M 47.21875 32.234375 
Q 47.125 39.59375 43.09375 43.984375 
Q 39.0625 48.390625 32.421875 48.390625 
Q 24.90625 48.390625 20.390625 44.140625 
Q 15.875 39.890625 15.1875 32.171875 
z
" id="DejaVuSans-101"/>
      <path d="M 2.984375 54.6875 
L 12.5 54.6875 
L 29.59375 8.796875 
L 46.6875 54.6875 
L 56.203125 54.6875 
L 35.6875 0 
L 23.484375 0 
z
" id="DejaVuSans-118"/>
      <path d="M 34.28125 27.484375 
Q 23.390625 27.484375 19.1875 25 
Q 14.984375 22.515625 14.984375 16.5 
Q 14.984375 11.71875 18.140625 8.90625 
Q 21.296875 6.109375 26.703125 6.109375 
Q 34.1875 6.109375 38.703125 11.40625 
Q 43.21875 16.703125 43.21875 25.484375 
L 43.21875 27.484375 
z
M 52.203125 31.203125 
L 52.203125 0 
L 43.21875 0 
L 43.21875 8.296875 
Q 40.140625 3.328125 35.546875 0.953125 
Q 30.953125 -1.421875 24.3125 -1.421875 
Q 15.921875 -1.421875 10.953125 3.296875 
Q 6 8.015625 6 15.921875 
Q 6 25.140625 12.171875 29.828125 
Q 18.359375 34.515625 30.609375 34.515625 
L 43.21875 34.515625 
L 43.21875 35.40625 
Q 43.21875 41.609375 39.140625 45 
Q 35.0625 48.390625 27.6875 48.390625 
Q 23 48.390625 18.546875 47.265625 
Q 14.109375 46.140625 10.015625 43.890625 
L 10.015625 52.203125 
Q 14.9375 54.109375 19.578125 55.046875 
Q 24.21875 56 28.609375 56 
Q 40.484375 56 46.34375 49.84375 
Q 52.203125 43.703125 52.203125 31.203125 
z
" id="DejaVuSans-97"/>
      <path d="M 44.28125 53.078125 
L 44.28125 44.578125 
Q 40.484375 46.53125 36.375 47.5 
Q 32.28125 48.484375 27.875 48.484375 
Q 21.1875 48.484375 17.84375 46.4375 
Q 14.5 44.390625 14.5 40.28125 
Q 14.5 37.15625 16.890625 35.375 
Q 19.28125 33.59375 26.515625 31.984375 
L 29.59375 31.296875 
Q 39.15625 29.25 43.1875 25.515625 
Q 47.21875 21.78125 47.21875 15.09375 
Q 47.21875 7.46875 41.1875 3.015625 
Q 35.15625 -1.421875 24.609375 -1.421875 
Q 20.21875 -1.421875 15.453125 -0.5625 
Q 10.6875 0.296875 5.421875 2 
L 5.421875 11.28125 
Q 10.40625 8.6875 15.234375 7.390625 
Q 20.0625 6.109375 24.8125 6.109375 
Q 31.15625 6.109375 34.5625 8.28125 
Q 37.984375 10.453125 37.984375 14.40625 
Q 37.984375 18.0625 35.515625 20.015625 
Q 33.0625 21.96875 24.703125 23.78125 
L 21.578125 24.515625 
Q 13.234375 26.265625 9.515625 29.90625 
Q 5.8125 33.546875 5.8125 39.890625 
Q 5.8125 47.609375 11.28125 51.796875 
Q 16.75 56 26.8125 56 
Q 31.78125 56 36.171875 55.265625 
Q 40.578125 54.546875 44.28125 53.078125 
z
" id="DejaVuSans-115"/>
      <path d="M 25.390625 72.90625 
L 33.6875 72.90625 
L 8.296875 -9.28125 
L 0 -9.28125 
z
" id="DejaVuSans-47"/>
      <path d="M 45.40625 46.390625 
L 45.40625 75.984375 
L 54.390625 75.984375 
L 54.390625 0 
L 45.40625 0 
L 45.40625 8.203125 
Q 42.578125 3.328125 38.25 0.953125 
Q 33.9375 -1.421875 27.875 -1.421875 
Q 17.96875 -1.421875 11.734375 6.484375 
Q 5.515625 14.40625 5.515625 27.296875 
Q 5.515625 40.1875 11.734375 48.09375 
Q 17.96875 56 27.875 56 
Q 33.9375 56 38.25 53.625 
Q 42.578125 51.265625 45.40625 46.390625 
z
M 14.796875 27.296875 
Q 14.796875 17.390625 18.875 11.75 
Q 22.953125 6.109375 30.078125 6.109375 
Q 37.203125 6.109375 41.296875 11.75 
Q 45.40625 17.390625 45.40625 27.296875 
Q 45.40625 37.203125 41.296875 42.84375 
Q 37.203125 48.484375 30.078125 48.484375 
Q 22.953125 48.484375 18.875 42.84375 
Q 14.796875 37.203125 14.796875 27.296875 
z
" id="DejaVuSans-100"/>
      <path d="M 9.421875 54.6875 
L 18.40625 54.6875 
L 18.40625 0 
L 9.421875 0 
z
M 9.421875 75.984375 
L 18.40625 75.984375 
L 18.40625 64.59375 
L 9.421875 64.59375 
z
" id="DejaVuSans-105"/>
      <path d="M 52 44.1875 
Q 55.375 50.25 60.0625 53.125 
Q 64.75 56 71.09375 56 
Q 79.640625 56 84.28125 50.015625 
Q 88.921875 44.046875 88.921875 33.015625 
L 88.921875 0 
L 79.890625 0 
L 79.890625 32.71875 
Q 79.890625 40.578125 77.09375 44.375 
Q 74.3125 48.1875 68.609375 48.1875 
Q 61.625 48.1875 57.5625 43.546875 
Q 53.515625 38.921875 53.515625 30.90625 
L 53.515625 0 
L 44.484375 0 
L 44.484375 32.71875 
Q 44.484375 40.625 41.703125 44.40625 
Q 38.921875 48.1875 33.109375 48.1875 
Q 26.21875 48.1875 22.15625 43.53125 
Q 18.109375 38.875 18.109375 30.90625 
L 18.109375 0 
L 9.078125 0 
L 9.078125 54.6875 
L 18.109375 54.6875 
L 18.109375 46.1875 
Q 21.1875 51.21875 25.484375 53.609375 
Q 29.78125 56 35.6875 56 
Q 41.65625 56 45.828125 52.96875 
Q 50 49.953125 52 44.1875 
z
" id="DejaVuSans-109"/>
      <path d="M 54.890625 33.015625 
L 54.890625 0 
L 45.90625 0 
L 45.90625 32.71875 
Q 45.90625 40.484375 42.875 44.328125 
Q 39.84375 48.1875 33.796875 48.1875 
Q 26.515625 48.1875 22.3125 43.546875 
Q 18.109375 38.921875 18.109375 30.90625 
L 18.109375 0 
L 9.078125 0 
L 9.078125 54.6875 
L 18.109375 54.6875 
L 18.109375 46.1875 
Q 21.34375 51.125 25.703125 53.5625 
Q 30.078125 56 35.796875 56 
Q 45.21875 56 50.046875 50.171875 
Q 54.890625 44.34375 54.890625 33.015625 
z
" id="DejaVuSans-110"/>
      <path d="M 8.015625 75.875 
L 15.828125 75.875 
Q 23.140625 64.359375 26.78125 53.3125 
Q 30.421875 42.28125 30.421875 31.390625 
Q 30.421875 20.453125 26.78125 9.375 
Q 23.140625 -1.703125 15.828125 -13.1875 
L 8.015625 -13.1875 
Q 14.5 -2 17.703125 9.0625 
Q 20.90625 20.125 20.90625 31.390625 
Q 20.90625 42.671875 17.703125 53.65625 
Q 14.5 64.65625 8.015625 75.875 
z
" id="DejaVuSans-41"/>
     </defs>
     <g transform="translate(77.303219 342.217594)scale(0.17 -0.17)">
      <use xlink:href="#DejaVuSans-108"/>
      <use x="27.783203" xlink:href="#DejaVuSans-111"/>
      <use x="88.964844" xlink:href="#DejaVuSans-103"/>
      <use x="152.441406" xlink:href="#DejaVuSans-49"/>
      <use x="216.064453" xlink:href="#DejaVuSans-48"/>
      <use x="279.6875" xlink:href="#DejaVuSans-40"/>
      <use x="318.701172" xlink:href="#DejaVuSans-35"/>
      <use x="402.490234" xlink:href="#DejaVuSans-32"/>
      <use x="434.277344" xlink:href="#DejaVuSans-102"/>
      <use x="469.404297" xlink:href="#DejaVuSans-45"/>
      <use x="505.488281" xlink:href="#DejaVuSans-101"/>
      <use x="567.011719" xlink:href="#DejaVuSans-118"/>
      <use x="626.191406" xlink:href="#DejaVuSans-97"/>
      <use x="687.470703" xlink:href="#DejaVuSans-108"/>
      <use x="715.253906" xlink:href="#DejaVuSans-115"/>
      <use x="767.353516" xlink:href="#DejaVuSans-32"/>
      <use x="799.140625" xlink:href="#DejaVuSans-47"/>
      <use x="832.832031" xlink:href="#DejaVuSans-32"/>
      <use x="864.619141" xlink:href="#DejaVuSans-100"/>
      <use x="928.095703" xlink:href="#DejaVuSans-105"/>
      <use x="955.878906" xlink:href="#DejaVuSans-109"/>
      <use x="1053.291016" xlink:href="#DejaVuSans-101"/>
      <use x="1114.814453" xlink:href="#DejaVuSans-110"/>
      <use x="1178.193359" xlink:href="#DejaVuSans-115"/>
      <use x="1230.292969" xlink:href="#DejaVuSans-105"/>
      <use x="1258.076172" xlink:href="#DejaVuSans-111"/>
      <use x="1319.257812" xlink:href="#DejaVuSans-110"/>
      <use x="1382.636719" xlink:href="#DejaVuSans-41"/>
     </g>
    </g>
   </g>
   <g id="matplotlib.axis_2">
    <g id="ytick_1">
     <g id="line2d_25">
      <path clip-path="url(#pe0ea0a7b71)" d="M 57.6 298.944 
L 338.688 298.944 
" style="fill:none;stroke:#b0b0b0;stroke-linecap:square;stroke-width:0.8;"/>
     </g>
     <g id="line2d_26">
      <defs>
       <path d="M 0 0 
L -3.5 0 
" id="mfedeb18719" style="stroke:#000000;stroke-width:0.8;"/>
      </defs>
      <g>
       <use style="stroke:#000000;stroke-width:0.8;" x="57.6" xlink:href="#mfedeb18719" y="298.944"/>
      </g>
     </g>
     <g id="text_6">
      <!-- 0.0 -->
      <defs>
       <path d="M 10.6875 12.40625 
L 21 12.40625 
L 21 0 
L 10.6875 0 
z
" id="DejaVuSans-46"/>
      </defs>
      <g transform="translate(25.155 305.02275)scale(0.16 -0.16)">
       <use xlink:href="#DejaVuSans-48"/>
       <use x="63.623047" xlink:href="#DejaVuSans-46"/>
       <use x="95.410156" xlink:href="#DejaVuSans-48"/>
      </g>
     </g>
    </g>
    <g id="ytick_2">
     <g id="line2d_27">
      <path clip-path="url(#pe0ea0a7b71)" d="M 57.6 245.22202 
L 338.688 245.22202 
" style="fill:none;stroke:#b0b0b0;stroke-linecap:square;stroke-width:0.8;"/>
     </g>
     <g id="line2d_28">
      <g>
       <use style="stroke:#000000;stroke-width:0.8;" x="57.6" xlink:href="#mfedeb18719" y="245.22202"/>
      </g>
     </g>
     <g id="text_7">
      <!-- 0.2 -->
      <g transform="translate(25.155 251.30077)scale(0.16 -0.16)">
       <use xlink:href="#DejaVuSans-48"/>
       <use x="63.623047" xlink:href="#DejaVuSans-46"/>
       <use x="95.410156" xlink:href="#DejaVuSans-50"/>
      </g>
     </g>
    </g>
    <g id="ytick_3">
     <g id="line2d_29">
      <path clip-path="url(#pe0ea0a7b71)" d="M 57.6 191.50004 
L 338.688 191.50004 
" style="fill:none;stroke:#b0b0b0;stroke-linecap:square;stroke-width:0.8;"/>
     </g>
     <g id="line2d_30">
      <g>
       <use style="stroke:#000000;stroke-width:0.8;" x="57.6" xlink:href="#mfedeb18719" y="191.50004"/>
      </g>
     </g>
     <g id="text_8">
      <!-- 0.4 -->
      <g transform="translate(25.155 197.57879)scale(0.16 -0.16)">
       <use xlink:href="#DejaVuSans-48"/>
       <use x="63.623047" xlink:href="#DejaVuSans-46"/>
       <use x="95.410156" xlink:href="#DejaVuSans-52"/>
      </g>
     </g>
    </g>
    <g id="ytick_4">
     <g id="line2d_31">
      <path clip-path="url(#pe0ea0a7b71)" d="M 57.6 137.778059 
L 338.688 137.778059 
" style="fill:none;stroke:#b0b0b0;stroke-linecap:square;stroke-width:0.8;"/>
     </g>
     <g id="line2d_32">
      <g>
       <use style="stroke:#000000;stroke-width:0.8;" x="57.6" xlink:href="#mfedeb18719" y="137.778059"/>
      </g>
     </g>
     <g id="text_9">
      <!-- 0.6 -->
      <g transform="translate(25.155 143.856809)scale(0.16 -0.16)">
       <use xlink:href="#DejaVuSans-48"/>
       <use x="63.623047" xlink:href="#DejaVuSans-46"/>
       <use x="95.410156" xlink:href="#DejaVuSans-54"/>
      </g>
     </g>
    </g>
    <g id="ytick_5">
     <g id="line2d_33">
      <path clip-path="url(#pe0ea0a7b71)" d="M 57.6 84.056079 
L 338.688 84.056079 
" style="fill:none;stroke:#b0b0b0;stroke-linecap:square;stroke-width:0.8;"/>
     </g>
     <g id="line2d_34">
      <g>
       <use style="stroke:#000000;stroke-width:0.8;" x="57.6" xlink:href="#mfedeb18719" y="84.056079"/>
      </g>
     </g>
     <g id="text_10">
      <!-- 0.8 -->
      <defs>
       <path d="M 31.78125 34.625 
Q 24.75 34.625 20.71875 30.859375 
Q 16.703125 27.09375 16.703125 20.515625 
Q 16.703125 13.921875 20.71875 10.15625 
Q 24.75 6.390625 31.78125 6.390625 
Q 38.8125 6.390625 42.859375 10.171875 
Q 46.921875 13.96875 46.921875 20.515625 
Q 46.921875 27.09375 42.890625 30.859375 
Q 38.875 34.625 31.78125 34.625 
z
M 21.921875 38.8125 
Q 15.578125 40.375 12.03125 44.71875 
Q 8.5 49.078125 8.5 55.328125 
Q 8.5 64.0625 14.71875 69.140625 
Q 20.953125 74.21875 31.78125 74.21875 
Q 42.671875 74.21875 48.875 69.140625 
Q 55.078125 64.0625 55.078125 55.328125 
Q 55.078125 49.078125 51.53125 44.71875 
Q 48 40.375 41.703125 38.8125 
Q 48.828125 37.15625 52.796875 32.3125 
Q 56.78125 27.484375 56.78125 20.515625 
Q 56.78125 9.90625 50.3125 4.234375 
Q 43.84375 -1.421875 31.78125 -1.421875 
Q 19.734375 -1.421875 13.25 4.234375 
Q 6.78125 9.90625 6.78125 20.515625 
Q 6.78125 27.484375 10.78125 32.3125 
Q 14.796875 37.15625 21.921875 38.8125 
z
M 18.3125 54.390625 
Q 18.3125 48.734375 21.84375 45.5625 
Q 25.390625 42.390625 31.78125 42.390625 
Q 38.140625 42.390625 41.71875 45.5625 
Q 45.3125 48.734375 45.3125 54.390625 
Q 45.3125 60.0625 41.71875 63.234375 
Q 38.140625 66.40625 31.78125 66.40625 
Q 25.390625 66.40625 21.84375 63.234375 
Q 18.3125 60.0625 18.3125 54.390625 
z
" id="DejaVuSans-56"/>
      </defs>
      <g transform="translate(25.155 90.134829)scale(0.16 -0.16)">
       <use xlink:href="#DejaVuSans-48"/>
       <use x="63.623047" xlink:href="#DejaVuSans-46"/>
       <use x="95.410156" xlink:href="#DejaVuSans-56"/>
      </g>
     </g>
    </g>
    <g id="ytick_6">
     <g id="line2d_35">
      <path clip-path="url(#pe0ea0a7b71)" d="M 57.6 30.334099 
L 338.688 30.334099 
" style="fill:none;stroke:#b0b0b0;stroke-linecap:square;stroke-width:0.8;"/>
     </g>
     <g id="line2d_36">
      <g>
       <use style="stroke:#000000;stroke-width:0.8;" x="57.6" xlink:href="#mfedeb18719" y="30.334099"/>
      </g>
     </g>
     <g id="text_11">
      <!-- 1.0 -->
      <g transform="translate(25.155 36.412849)scale(0.16 -0.16)">
       <use xlink:href="#DejaVuSans-49"/>
       <use x="63.623047" xlink:href="#DejaVuSans-46"/>
       <use x="95.410156" xlink:href="#DejaVuSans-48"/>
      </g>
     </g>
    </g>
    <g id="text_12">
     <!-- Fraction of function,target pairs -->
     <defs>
      <path d="M 9.8125 72.90625 
L 51.703125 72.90625 
L 51.703125 64.59375 
L 19.671875 64.59375 
L 19.671875 43.109375 
L 48.578125 43.109375 
L 48.578125 34.8125 
L 19.671875 34.8125 
L 19.671875 0 
L 9.8125 0 
z
" id="DejaVuSans-70"/>
      <path d="M 41.109375 46.296875 
Q 39.59375 47.171875 37.8125 47.578125 
Q 36.03125 48 33.890625 48 
Q 26.265625 48 22.1875 43.046875 
Q 18.109375 38.09375 18.109375 28.8125 
L 18.109375 0 
L 9.078125 0 
L 9.078125 54.6875 
L 18.109375 54.6875 
L 18.109375 46.1875 
Q 20.953125 51.171875 25.484375 53.578125 
Q 30.03125 56 36.53125 56 
Q 37.453125 56 38.578125 55.875 
Q 39.703125 55.765625 41.0625 55.515625 
z
" id="DejaVuSans-114"/>
      <path d="M 48.78125 52.59375 
L 48.78125 44.1875 
Q 44.96875 46.296875 41.140625 47.34375 
Q 37.3125 48.390625 33.40625 48.390625 
Q 24.65625 48.390625 19.8125 42.84375 
Q 14.984375 37.3125 14.984375 27.296875 
Q 14.984375 17.28125 19.8125 11.734375 
Q 24.65625 6.203125 33.40625 6.203125 
Q 37.3125 6.203125 41.140625 7.25 
Q 44.96875 8.296875 48.78125 10.40625 
L 48.78125 2.09375 
Q 45.015625 0.34375 40.984375 -0.53125 
Q 36.96875 -1.421875 32.421875 -1.421875 
Q 20.0625 -1.421875 12.78125 6.34375 
Q 5.515625 14.109375 5.515625 27.296875 
Q 5.515625 40.671875 12.859375 48.328125 
Q 20.21875 56 33.015625 56 
Q 37.15625 56 41.109375 55.140625 
Q 45.0625 54.296875 48.78125 52.59375 
z
" id="DejaVuSans-99"/>
      <path d="M 18.3125 70.21875 
L 18.3125 54.6875 
L 36.8125 54.6875 
L 36.8125 47.703125 
L 18.3125 47.703125 
L 18.3125 18.015625 
Q 18.3125 11.328125 20.140625 9.421875 
Q 21.96875 7.515625 27.59375 7.515625 
L 36.8125 7.515625 
L 36.8125 0 
L 27.59375 0 
Q 17.1875 0 13.234375 3.875 
Q 9.28125 7.765625 9.28125 18.015625 
L 9.28125 47.703125 
L 2.6875 47.703125 
L 2.6875 54.6875 
L 9.28125 54.6875 
L 9.28125 70.21875 
z
" id="DejaVuSans-116"/>
      <path d="M 8.5 21.578125 
L 8.5 54.6875 
L 17.484375 54.6875 
L 17.484375 21.921875 
Q 17.484375 14.15625 20.5 10.265625 
Q 23.53125 6.390625 29.59375 6.390625 
Q 36.859375 6.390625 41.078125 11.03125 
Q 45.3125 15.671875 45.3125 23.6875 
L 45.3125 54.6875 
L 54.296875 54.6875 
L 54.296875 0 
L 45.3125 0 
L 45.3125 8.40625 
Q 42.046875 3.421875 37.71875 1 
Q 33.40625 -1.421875 27.6875 -1.421875 
Q 18.265625 -1.421875 13.375 4.4375 
Q 8.5 10.296875 8.5 21.578125 
z
M 31.109375 56 
z
" id="DejaVuSans-117"/>
      <path d="M 11.71875 12.40625 
L 22.015625 12.40625 
L 22.015625 4 
L 14.015625 -11.625 
L 7.71875 -11.625 
L 11.71875 4 
z
" id="DejaVuSans-44"/>
      <path d="M 18.109375 8.203125 
L 18.109375 -20.796875 
L 9.078125 -20.796875 
L 9.078125 54.6875 
L 18.109375 54.6875 
L 18.109375 46.390625 
Q 20.953125 51.265625 25.265625 53.625 
Q 29.59375 56 35.59375 56 
Q 45.5625 56 51.78125 48.09375 
Q 58.015625 40.1875 58.015625 27.296875 
Q 58.015625 14.40625 51.78125 6.484375 
Q 45.5625 -1.421875 35.59375 -1.421875 
Q 29.59375 -1.421875 25.265625 0.953125 
Q 20.953125 3.328125 18.109375 8.203125 
z
M 48.6875 27.296875 
Q 48.6875 37.203125 44.609375 42.84375 
Q 40.53125 48.484375 33.40625 48.484375 
Q 26.265625 48.484375 22.1875 42.84375 
Q 18.109375 37.203125 18.109375 27.296875 
Q 18.109375 17.390625 22.1875 11.75 
Q 26.265625 6.109375 33.40625 6.109375 
Q 40.53125 6.109375 44.609375 11.75 
Q 48.6875 17.390625 48.6875 27.296875 
z
" id="DejaVuSans-112"/>
     </defs>
     <g transform="translate(17.619531 298.435375)rotate(-90)scale(0.17 -0.17)">
      <use xlink:href="#DejaVuSans-70"/>
      <use x="57.410156" xlink:href="#DejaVuSans-114"/>
      <use x="98.523438" xlink:href="#DejaVuSans-97"/>
      <use x="159.802734" xlink:href="#DejaVuSans-99"/>
      <use x="214.783203" xlink:href="#DejaVuSans-116"/>
      <use x="253.992188" xlink:href="#DejaVuSans-105"/>
      <use x="281.775391" xlink:href="#DejaVuSans-111"/>
      <use x="342.957031" xlink:href="#DejaVuSans-110"/>
      <use x="406.335938" xlink:href="#DejaVuSans-32"/>
      <use x="438.123047" xlink:href="#DejaVuSans-111"/>
      <use x="499.304688" xlink:href="#DejaVuSans-102"/>
      <use x="534.509766" xlink:href="#DejaVuSans-32"/>
      <use x="566.296875" xlink:href="#DejaVuSans-102"/>
      <use x="601.501953" xlink:href="#DejaVuSans-117"/>
      <use x="664.880859" xlink:href="#DejaVuSans-110"/>
      <use x="728.259766" xlink:href="#DejaVuSans-99"/>
      <use x="783.240234" xlink:href="#DejaVuSans-116"/>
      <use x="822.449219" xlink:href="#DejaVuSans-105"/>
      <use x="850.232422" xlink:href="#DejaVuSans-111"/>
      <use x="911.414062" xlink:href="#DejaVuSans-110"/>
      <use x="974.792969" xlink:href="#DejaVuSans-44"/>
      <use x="1006.580078" xlink:href="#DejaVuSans-116"/>
      <use x="1045.789062" xlink:href="#DejaVuSans-97"/>
      <use x="1107.068359" xlink:href="#DejaVuSans-114"/>
      <use x="1148.166016" xlink:href="#DejaVuSans-103"/>
      <use x="1211.642578" xlink:href="#DejaVuSans-101"/>
      <use x="1273.166016" xlink:href="#DejaVuSans-116"/>
      <use x="1312.375" xlink:href="#DejaVuSans-32"/>
      <use x="1344.162109" xlink:href="#DejaVuSans-112"/>
      <use x="1407.638672" xlink:href="#DejaVuSans-97"/>
      <use x="1468.917969" xlink:href="#DejaVuSans-105"/>
      <use x="1496.701172" xlink:href="#DejaVuSans-114"/>
      <use x="1537.814453" xlink:href="#DejaVuSans-115"/>
     </g>
    </g>
   </g>
   <g id="line2d_37">
    <defs>
     <path d="M 0 1.5 
C 0.397805 1.5 0.77937 1.341951 1.06066 1.06066 
C 1.341951 0.77937 1.5 0.397805 1.5 0 
C 1.5 -0.397805 1.341951 -0.77937 1.06066 -1.06066 
C 0.77937 -1.341951 0.397805 -1.5 0 -1.5 
C -0.397805 -1.5 -0.77937 -1.341951 -1.06066 -1.06066 
C -1.341951 -0.77937 -1.5 -0.397805 -1.5 0 
C -1.5 0.397805 -1.341951 0.77937 -1.06066 1.06066 
C -0.77937 1.341951 -0.397805 1.5 0 1.5 
z
" id="mfeec1a7851" style="stroke:#000080;"/>
    </defs>
    <g>
     <use style="fill:#000080;stroke:#000080;" x="159.380382" xlink:href="#mfeec1a7851" y="30.334099"/>
     <use style="fill:#000080;stroke:#000080;" x="159.380382" xlink:href="#mfeec1a7851" y="30.334099"/>
    </g>
   </g>
   <g id="line2d_38">
    <path d="M 75.555822 298.944 
L 75.555822 297.890628 
L 101.365607 297.890628 
L 101.365607 296.837256 
L 102.859376 296.837256 
L 102.859376 296.31057 
L 110.61104 296.31057 
L 110.61104 295.783884 
L 135.721125 295.783884 
L 135.721125 295.257197 
L 136.361705 295.257197 
L 136.361705 294.730511 
L 136.570107 294.730511 
L 136.570107 294.203825 
L 137.770782 294.203825 
L 137.770782 293.677139 
L 138.290362 293.677139 
L 138.290362 293.150453 
L 138.561269 293.150453 
L 138.661784 292.097081 
L 138.99271 292.097081 
L 138.99271 291.570395 
L 139.667863 291.570395 
L 139.683624 290.517023 
L 139.887228 290.517023 
L 139.887228 289.990337 
L 140.195896 289.990337 
L 140.272217 287.883592 
L 140.423864 287.883592 
L 140.423864 287.356906 
L 140.841591 287.356906 
L 140.841591 286.83022 
L 141.263941 286.83022 
L 141.263941 286.303534 
L 141.662245 286.303534 
L 141.662245 285.776848 
L 141.982752 285.776848 
L 141.982752 285.250162 
L 142.120287 285.250162 
L 142.147664 283.143418 
L 142.378651 283.143418 
L 142.392144 281.563359 
L 142.686372 281.563359 
L 142.686372 281.036673 
L 142.844792 281.036673 
L 142.844792 280.509987 
L 142.962669 280.509987 
L 143.040814 279.456615 
L 143.349938 279.456615 
L 143.439077 277.876557 
L 143.553018 277.876557 
L 143.653678 276.296499 
L 143.853271 276.296499 
L 143.890442 275.243126 
L 144.075117 275.243126 
L 144.111818 274.189754 
L 144.197155 274.189754 
L 144.245733 273.136382 
L 144.35454 273.136382 
L 144.35454 272.609696 
L 144.498568 272.609696 
L 144.59393 271.029638 
L 144.665111 271.029638 
L 144.77134 268.922893 
L 144.830078 268.922893 
L 144.888619 266.816149 
L 144.946964 266.816149 
L 144.946964 266.289463 
L 145.074639 266.289463 
L 145.074639 265.762777 
L 145.189903 265.762777 
L 145.189903 265.236091 
L 145.304409 265.236091 
L 145.338615 264.182719 
L 145.463466 264.182719 
L 145.497361 263.129347 
L 145.587429 263.129347 
L 145.688202 261.022602 
L 145.710517 261.022602 
L 145.743936 259.96923 
L 145.843812 259.96923 
L 145.876977 258.915858 
L 146.06373 258.915858 
L 146.06373 258.389172 
L 146.259313 258.389172 
L 146.345539 256.809114 
L 146.40993 256.809114 
L 146.463409 255.755741 
L 146.548634 255.755741 
L 146.633446 253.122311 
L 146.707319 253.122311 
L 146.801841 251.542253 
L 146.947864 251.542253 
L 147.030761 249.962195 
L 147.082371 249.962195 
L 147.082371 249.435508 
L 147.246507 249.435508 
L 147.348313 247.85545 
L 147.378739 247.85545 
L 147.459617 243.115275 
L 147.509976 243.115275 
L 147.509976 242.588589 
L 147.650212 242.588589 
L 147.759612 239.955159 
L 147.848613 239.955159 
L 147.95678 238.901787 
L 148.025265 238.901787 
L 148.122637 237.848415 
L 148.17112 237.848415 
L 148.258051 236.268356 
L 148.325365 236.268356 
L 148.392421 234.688298 
L 148.563676 234.688298 
L 148.629823 232.054868 
L 148.686322 232.054868 
L 148.742638 231.001496 
L 148.817445 231.001496 
L 148.882639 228.368065 
L 149.00307 228.368065 
L 149.039959 227.314693 
L 149.122675 227.314693 
L 149.168459 224.681263 
L 149.241465 224.681263 
L 149.29602 222.047832 
L 149.395596 222.047832 
L 149.467659 220.467774 
L 149.521512 220.467774 
L 149.521512 219.941088 
L 149.664311 219.941088 
L 149.752971 217.834344 
L 149.823575 217.834344 
L 149.928949 215.200913 
L 149.937701 215.200913 
L 150.033689 213.620855 
L 150.068464 213.620855 
L 150.163737 209.934052 
L 150.181003 209.934052 
L 150.224095 207.827308 
L 150.344189 207.827308 
L 150.403927 205.720564 
L 150.47195 205.720564 
L 150.581924 200.980389 
L 150.607205 200.980389 
L 150.691209 198.346959 
L 150.749772 198.346959 
L 150.858013 195.713528 
L 150.874606 195.713528 
L 150.973835 194.13347 
L 151.031458 194.13347 
L 151.13797 190.973354 
L 151.146137 190.973354 
L 151.227591 188.866609 
L 151.260066 188.866609 
L 151.260066 188.339923 
L 151.373256 188.339923 
L 151.469695 185.179807 
L 151.493721 185.179807 
L 151.557631 184.126434 
L 151.621307 184.126434 
L 151.676833 182.01969 
L 151.740076 182.01969 
L 151.850203 177.806202 
L 151.858043 177.806202 
L 151.873711 176.226143 
L 151.983 176.226143 
L 152.052897 174.119399 
L 152.114793 174.119399 
L 152.207228 170.959282 
L 152.26858 170.959282 
L 152.322086 167.27248 
L 152.413432 167.27248 
L 152.5194 163.585677 
L 152.549559 163.585677 
L 152.624728 162.532305 
L 152.662192 162.532305 
L 152.766663 160.425561 
L 152.877907 160.425561 
L 152.988446 156.738758 
L 153.017805 156.738758 
L 153.054435 155.685386 
L 153.13475 155.685386 
L 153.221946 150.418525 
L 153.250915 150.418525 
L 153.359122 146.731723 
L 153.366312 146.731723 
L 153.466662 143.571606 
L 153.48095 143.571606 
L 153.580644 141.464862 
L 153.59484 141.464862 
L 153.67271 136.724687 
L 153.820412 136.724687 
L 153.918189 133.564571 
L 153.959927 133.564571 
L 154.063835 130.93114 
L 154.112115 130.93114 
L 154.221969 126.717652 
L 154.24249 126.717652 
L 154.351528 121.450791 
L 154.419333 121.450791 
L 154.513818 117.237302 
L 154.56087 117.237302 
L 154.667942 113.5505 
L 154.687945 113.5505 
L 154.747816 110.390383 
L 154.807483 110.390383 
L 154.899894 107.756953 
L 154.926208 107.756953 
L 155.031067 104.07015 
L 155.0376 104.07015 
L 155.141793 100.910034 
L 155.187182 100.910034 
L 155.290488 98.276603 
L 155.303359 98.276603 
L 155.380382 96.169859 
L 155.437927 96.169859 
L 155.539762 92.483056 
L 155.55879 92.483056 
L 155.653621 87.216196 
L 155.678822 87.216196 
L 155.773004 85.109451 
L 155.791779 85.109451 
L 155.885354 83.002707 
L 155.928852 83.002707 
L 155.996986 79.842591 
L 156.040206 79.842591 
L 156.150854 75.629102 
L 156.181465 75.629102 
L 156.291223 71.415613 
L 156.315521 71.415613 
L 156.424441 66.148752 
L 156.430472 66.148752 
L 156.448553 64.568694 
L 156.556648 64.568694 
L 156.622378 59.301833 
L 156.735331 59.301833 
L 156.841668 56.141717 
L 156.894595 56.141717 
L 156.999969 54.034973 
L 157.029126 54.034973 
L 157.104709 51.401542 
L 157.15106 51.401542 
L 157.249147 48.241426 
L 157.300853 48.241426 
L 157.403807 46.661368 
L 157.455057 46.661368 
L 157.540141 43.501251 
L 157.613546 43.501251 
L 157.613546 42.447879 
L 157.725877 42.447879 
L 157.826359 39.814448 
L 157.904114 39.814448 
L 157.998067 37.707704 
L 158.047603 37.707704 
L 158.140788 36.127646 
L 158.276927 36.127646 
L 158.368898 34.547588 
L 158.508628 34.547588 
L 158.604712 32.967529 
L 158.726721 32.967529 
L 158.726721 32.440843 
L 158.853132 32.440843 
L 158.962994 30.860785 
L 159.380382 30.860785 
L 159.380382 30.334099 
L 338.688 30.334099 
L 338.688 30.334099 
" style="fill:none;stroke:#000080;stroke-linecap:square;stroke-width:1.5;"/>
   </g>
   <g id="line2d_39">
    <defs>
     <path d="M 0 6 
C 1.591219 6 3.117479 5.367802 4.242641 4.242641 
C 5.367802 3.117479 6 1.591219 6 0 
C 6 -1.591219 5.367802 -3.117479 4.242641 -4.242641 
C 3.117479 -5.367802 1.591219 -6 0 -6 
C -1.591219 -6 -3.117479 -5.367802 -4.242641 -4.242641 
C -5.367802 -3.117479 -6 -1.591219 -6 0 
C -6 1.591219 -5.367802 3.117479 -4.242641 4.242641 
C -3.117479 5.367802 -1.591219 6 0 6 
z
" id="m328c781755" style="stroke:#000080;stroke-width:1.5;"/>
    </defs>
    <g>
     <use style="fill-opacity:0;stroke:#000080;stroke-width:1.5;" x="152.26858" xlink:href="#m328c781755" y="169.90591"/>
     <use style="fill-opacity:0;stroke:#000080;stroke-width:1.5;" x="159.380382" xlink:href="#m328c781755" y="30.860785"/>
     <use style="fill-opacity:0;stroke:#000080;stroke-width:1.5;" x="159.380382" xlink:href="#m328c781755" y="30.334099"/>
     <use style="fill-opacity:0;stroke:#000080;stroke-width:1.5;" x="159.380382" xlink:href="#m328c781755" y="30.334099"/>
     <use style="fill-opacity:0;stroke:#000080;stroke-width:1.5;" x="338.688" xlink:href="#m328c781755" y="30.334099"/>
    </g>
   </g>
   <g id="line2d_40">
    <path style="fill:none;stroke:#000080;stroke-linecap:square;stroke-width:1.5;"/>
    <g/>
   </g>
   <g id="line2d_41">
    <defs>
     <path d="M 0 1.5 
C 0.397805 1.5 0.77937 1.341951 1.06066 1.06066 
C 1.341951 0.77937 1.5 0.397805 1.5 0 
C 1.5 -0.397805 1.341951 -0.77937 1.06066 -1.06066 
C 0.77937 -1.341951 0.397805 -1.5 0 -1.5 
C -0.397805 -1.5 -0.77937 -1.341951 -1.06066 -1.06066 
C -1.341951 -0.77937 -1.5 -0.397805 -1.5 0 
C -1.5 0.397805 -1.341951 0.77937 -1.06066 1.06066 
C -0.77937 1.341951 -0.397805 1.5 0 1.5 
z
" id="m3c307756eb" style="stroke:#ff0000;"/>
    </defs>
    <g>
     <use style="fill:#ff0000;stroke:#ff0000;" x="140.841591" xlink:href="#m3c307756eb" y="30.334099"/>
     <use style="fill:#ff0000;stroke:#ff0000;" x="140.841591" xlink:href="#m3c307756eb" y="30.334099"/>
    </g>
   </g>
   <g id="line2d_42">
    <path d="M 98.43941 298.944 
L 98.43941 297.890628 
L 99.258306 297.890628 
L 99.258306 297.363942 
L 105.398279 297.363942 
L 105.398279 296.837256 
L 107.614095 296.837256 
L 107.614095 296.31057 
L 110.188761 296.31057 
L 110.188761 295.783884 
L 116.856209 295.783884 
L 116.856209 295.257197 
L 117.985359 295.257197 
L 117.985359 294.730511 
L 118.256582 294.730511 
L 118.256582 294.203825 
L 118.890808 294.203825 
L 118.890808 293.677139 
L 119.40226 293.677139 
L 119.502775 292.097081 
L 119.751557 292.097081 
L 119.751557 291.570395 
L 119.89914 291.570395 
L 119.89914 291.043709 
L 120.429836 291.043709 
L 120.524615 289.463651 
L 120.712642 289.463651 
L 120.712642 288.936964 
L 120.990934 288.936964 
L 121.036887 287.356906 
L 121.174025 287.356906 
L 121.264855 284.723476 
L 121.355214 284.723476 
L 121.445108 283.670104 
L 121.53454 283.670104 
L 121.53454 282.616732 
L 121.667835 282.616732 
L 121.756135 281.036673 
L 121.931406 281.036673 
L 121.974949 279.456615 
L 122.104932 279.456615 
L 122.148045 277.876557 
L 122.233953 277.876557 
L 122.31944 274.71644 
L 122.362027 274.71644 
L 122.44689 273.136382 
L 122.531342 273.136382 
L 122.531342 272.609696 
L 122.657258 272.609696 
L 122.740699 271.556324 
L 122.823744 271.556324 
L 122.865118 270.502952 
L 122.947573 270.502952 
L 123.029641 268.396207 
L 123.07053 268.396207 
L 123.07053 267.342835 
L 123.192626 267.342835 
L 123.273551 264.709405 
L 123.313873 264.709405 
L 123.394238 262.60266 
L 123.474235 262.60266 
L 123.553867 260.495916 
L 123.593547 260.495916 
L 123.593547 259.96923 
L 123.751369 259.96923 
L 123.790603 258.915858 
L 123.907776 258.915858 
L 123.985457 256.282427 
L 124.024168 256.282427 
L 124.062793 253.122311 
L 124.139788 253.122311 
L 124.139788 252.595625 
L 124.330801 252.595625 
L 124.406624 251.015567 
L 124.444412 251.015567 
L 124.482119 249.962195 
L 124.594752 249.962195 
L 124.669438 247.85545 
L 124.706662 247.85545 
L 124.780872 244.695334 
L 124.817858 244.695334 
L 124.92835 242.588589 
L 124.965026 242.588589 
L 125.074593 238.901787 
L 125.255688 238.901787 
L 125.327602 236.268356 
L 125.399222 236.268356 
L 125.434921 234.161612 
L 125.541584 234.161612 
L 125.647598 227.314693 
L 125.752972 227.314693 
L 125.787955 224.681263 
L 125.927192 224.681263 
L 126.030894 222.574518 
L 126.133984 222.574518 
L 126.202373 218.36103 
L 126.270496 218.36103 
L 126.338353 216.254285 
L 126.405947 216.254285 
L 126.47328 211.514111 
L 126.673734 211.514111 
L 126.740043 206.773936 
L 126.839037 206.773936 
L 126.937471 202.560447 
L 127.035353 202.560447 
L 127.067859 201.507075 
L 127.165014 201.507075 
L 127.261631 198.873645 
L 127.357715 198.873645 
L 127.453273 196.240214 
L 127.516689 196.240214 
L 127.611382 191.50004 
L 127.642832 191.50004 
L 127.736845 189.393295 
L 127.892415 189.393295 
L 127.985095 186.233179 
L 128.015879 186.233179 
L 128.107907 184.126434 
L 128.138476 184.126434 
L 128.229861 177.806202 
L 128.290519 177.806202 
L 128.350967 173.066027 
L 128.471239 173.066027 
L 128.501178 171.485969 
L 128.620421 171.485969 
L 128.709321 168.852538 
L 128.768338 168.852538 
L 128.856489 165.692422 
L 128.885774 165.692422 
L 128.973336 164.112363 
L 129.002426 164.112363 
L 129.06046 159.898875 
L 129.118302 159.898875 
L 129.175952 156.212072 
L 129.233413 156.212072 
L 129.290685 153.051956 
L 129.347769 153.051956 
L 129.433047 149.891839 
L 129.46138 149.891839 
L 129.546106 147.258409 
L 129.574256 147.258409 
L 129.630422 144.098292 
L 129.714332 144.098292 
L 129.742212 143.04492 
L 129.825588 143.04492 
L 129.936138 139.358118 
L 129.963666 139.358118 
L 130.073348 133.037885 
L 130.127931 133.037885 
L 130.236587 123.030849 
L 130.263646 123.030849 
L 130.371462 120.397419 
L 130.45189 120.397419 
L 130.478617 118.817361 
L 130.61164 118.817361 
L 130.69097 114.077186 
L 130.743656 114.077186 
L 130.822389 110.390383 
L 130.874681 110.390383 
L 130.952826 108.283639 
L 131.108073 108.283639 
L 131.159516 107.230267 
L 131.26195 107.230267 
L 131.287464 105.650209 
L 131.439773 105.650209 
L 131.540579 103.543464 
L 131.565689 103.543464 
L 131.665771 98.276603 
L 131.740458 98.276603 
L 131.790072 93.009743 
L 131.864229 93.009743 
L 131.864229 90.902998 
L 132.060454 90.902998 
L 132.133473 89.32294 
L 132.181982 89.32294 
L 132.278599 87.742882 
L 132.326708 87.742882 
L 132.422528 85.636137 
L 132.565279 85.636137 
L 132.565279 84.582765 
L 132.777237 84.582765 
L 132.847322 82.476021 
L 132.893889 82.476021 
L 132.963507 78.789218 
L 133.078923 78.789218 
L 133.147807 76.155788 
L 133.19358 76.155788 
L 133.262014 74.57573 
L 133.352844 74.57573 
L 133.420657 73.522358 
L 133.46572 73.522358 
L 133.533096 70.888927 
L 133.57787 70.888927 
L 133.600213 69.835555 
L 133.77794 69.835555 
L 133.77794 69.308869 
L 133.997581 69.308869 
L 134.106373 64.568694 
L 134.12805 64.568694 
L 134.236034 61.408578 
L 134.321942 61.408578 
L 134.321942 60.881892 
L 134.47127 60.881892 
L 134.577155 58.775147 
L 134.703375 58.775147 
L 134.745246 57.721775 
L 134.932432 57.721775 
L 135.014985 54.561659 
L 135.097149 54.561659 
L 135.097149 54.034973 
L 135.219673 54.034973 
L 135.219673 53.508287 
L 135.361539 53.508287 
L 135.401861 51.928228 
L 135.522271 51.928228 
L 135.602085 49.294798 
L 135.740886 49.294798 
L 135.760625 48.241426 
L 136.034648 48.241426 
L 136.092812 46.661368 
L 136.170062 46.661368 
L 136.20856 45.607995 
L 136.513517 45.607995 
L 136.513517 44.554623 
L 136.887363 44.554623 
L 136.887363 44.027937 
L 137.034686 44.027937 
L 137.126135 42.447879 
L 137.48721 42.447879 
L 137.558536 41.394507 
L 137.770782 41.394507 
L 137.823442 39.814448 
L 137.980475 39.814448 
L 138.084384 37.707704 
L 138.118883 37.707704 
L 138.136107 36.654332 
L 138.392446 36.654332 
L 138.426341 35.60096 
L 138.828032 35.60096 
L 138.828032 35.074274 
L 139.123342 35.074274 
L 139.204493 32.967529 
L 139.572998 32.967529 
L 139.572998 32.440843 
L 139.87165 32.440843 
L 139.87165 31.914157 
L 140.042245 31.914157 
L 140.042245 31.387471 
L 140.333034 31.387471 
L 140.333034 30.860785 
L 140.841591 30.860785 
L 140.841591 30.334099 
L 338.688 30.334099 
L 338.688 30.334099 
" style="fill:none;stroke:#ff0000;stroke-linecap:square;stroke-width:1.5;"/>
   </g>
   <g id="line2d_43">
    <defs>
     <path d="M 0 -6 
L -5.196152 -3 
L -5.196152 3 
L -0 6 
L 5.196152 3 
L 5.196152 -3 
z
" id="md370bad868" style="stroke:#ff0000;stroke-linejoin:miter;stroke-width:1.5;"/>
    </defs>
    <g>
     <use style="fill-opacity:0;stroke:#ff0000;stroke-linejoin:miter;stroke-width:1.5;" x="124.406624" xlink:href="#md370bad868" y="251.015567"/>
     <use style="fill-opacity:0;stroke:#ff0000;stroke-linejoin:miter;stroke-width:1.5;" x="138.828032" xlink:href="#md370bad868" y="35.60096"/>
     <use style="fill-opacity:0;stroke:#ff0000;stroke-linejoin:miter;stroke-width:1.5;" x="140.841591" xlink:href="#md370bad868" y="30.334099"/>
     <use style="fill-opacity:0;stroke:#ff0000;stroke-linejoin:miter;stroke-width:1.5;" x="140.841591" xlink:href="#md370bad868" y="30.334099"/>
     <use style="fill-opacity:0;stroke:#ff0000;stroke-linejoin:miter;stroke-width:1.5;" x="338.688" xlink:href="#md370bad868" y="30.334099"/>
    </g>
   </g>
   <g id="line2d_44">
    <path style="fill:none;stroke:#ff0000;stroke-linecap:square;stroke-width:1.5;"/>
    <g/>
   </g>
   <g id="line2d_45">
    <defs>
     <path d="M 0 1.5 
C 0.397805 1.5 0.77937 1.341951 1.06066 1.06066 
C 1.341951 0.77937 1.5 0.397805 1.5 0 
C 1.5 -0.397805 1.341951 -0.77937 1.06066 -1.06066 
C 0.77937 -1.341951 0.397805 -1.5 0 -1.5 
C -0.397805 -1.5 -0.77937 -1.341951 -1.06066 -1.06066 
C -1.341951 -0.77937 -1.5 -0.397805 -1.5 0 
C -1.5 0.397805 -1.341951 0.77937 -1.06066 1.06066 
C -0.77937 1.341951 -0.397805 1.5 0 1.5 
z
" id="m7854844577" style="stroke:#bebebe;"/>
    </defs>
    <g>
     <use style="fill:#bebebe;stroke:#bebebe;" x="177.385234" xlink:href="#m7854844577" y="30.334099"/>
     <use style="fill:#bebebe;stroke:#bebebe;" x="177.385234" xlink:href="#m7854844577" y="30.334099"/>
    </g>
   </g>
   <g id="line2d_46">
    <path d="M 69.687988 298.944 
L 69.687988 298.417314 
L 70.538854 298.417314 
L 70.538854 297.890628 
L 77.884514 297.890628 
L 77.884514 296.837256 
L 78.421149 296.837256 
L 78.421149 295.257197 
L 78.941764 295.257197 
L 78.941764 292.623767 
L 83.438118 292.623767 
L 83.438118 287.883592 
L 83.830028 287.883592 
L 83.830028 283.670104 
L 84.213325 283.670104 
L 84.213325 282.616732 
L 84.588378 282.616732 
L 84.588378 282.090045 
L 87.643811 282.090045 
L 87.643811 280.509987 
L 87.952479 280.509987 
L 87.952479 273.136382 
L 88.255778 273.136382 
L 88.255778 271.556324 
L 88.553893 271.556324 
L 88.553893 271.029638 
L 88.846997 271.029638 
L 88.846997 270.502952 
L 89.697862 270.502952 
L 89.697862 269.976266 
L 91.029752 269.976266 
L 91.029752 269.449579 
L 91.284345 269.449579 
L 91.284345 266.289463 
L 91.535274 266.289463 
L 91.535274 264.182719 
L 91.782644 264.182719 
L 91.782644 262.075974 
L 92.026554 262.075974 
L 92.026554 261.549288 
L 92.73846 261.549288 
L 92.73846 259.442544 
L 93.863965 259.442544 
L 93.863965 258.389172 
L 94.080605 258.389172 
L 94.080605 256.809114 
L 94.294587 256.809114 
L 94.294587 251.015567 
L 94.505975 251.015567 
L 94.505975 246.275392 
L 94.921215 246.275392 
L 94.921215 245.748706 
L 95.526106 245.748706 
L 95.526106 243.641962 
L 96.489848 243.641962 
L 96.489848 238.901787 
L 96.676366 238.901787 
L 96.676366 232.054868 
L 96.86091 232.054868 
L 96.86091 227.841379 
L 97.043522 227.841379 
L 97.043522 227.314693 
L 98.606294 227.314693 
L 98.606294 225.207949 
L 98.771596 225.207949 
L 98.771596 218.36103 
L 98.935347 218.36103 
L 98.935347 216.254285 
L 99.097574 216.254285 
L 99.097574 214.674227 
L 99.258306 214.674227 
L 99.258306 214.147541 
L 99.731799 214.147541 
L 99.731799 212.567483 
L 100.493461 212.567483 
L 100.493461 212.040797 
L 100.641881 212.040797 
L 100.641881 206.773936 
L 100.789049 206.773936 
L 100.789049 200.980389 
L 100.934985 200.980389 
L 100.934985 198.346959 
L 101.079711 198.346959 
L 101.079711 197.293586 
L 101.506816 197.293586 
L 101.506816 196.240214 
L 102.330873 196.240214 
L 102.330873 192.026726 
L 102.464508 192.026726 
L 102.464508 188.339923 
L 102.597126 188.339923 
L 102.597126 187.813237 
L 102.728744 187.813237 
L 102.728744 186.759865 
L 103.870632 186.759865 
L 103.870632 184.653121 
L 103.993014 184.653121 
L 103.993014 174.646085 
L 104.114542 174.646085 
L 104.114542 173.066027 
L 104.23523 173.066027 
L 104.23523 172.012655 
L 104.355088 172.012655 
L 104.355088 171.485969 
L 104.826449 171.485969 
L 104.826449 170.432596 
L 105.285403 170.432596 
L 105.285403 169.379224 
L 105.398279 169.379224 
L 105.398279 164.112363 
L 105.51043 164.112363 
L 105.51043 163.058991 
L 105.621863 163.058991 
L 105.621863 162.005619 
L 106.168594 162.005619 
L 106.168594 161.478933 
L 106.593963 161.478933 
L 106.698704 158.318817 
L 106.802819 158.318817 
L 106.906317 155.685386 
L 107.009204 155.685386 
L 107.009204 155.1587 
L 107.414787 155.1587 
L 107.414787 153.578642 
L 107.90885 153.578642 
L 107.90885 148.311781 
L 108.102622 148.311781 
L 108.198707 145.151665 
L 108.483824 145.151665 
L 108.483824 144.624978 
L 109.040444 144.624978 
L 109.131511 142.518234 
L 109.222105 142.518234 
L 109.31223 139.358118 
L 110.188761 139.358118 
L 110.274038 137.251373 
L 110.358901 137.251373 
L 110.358901 136.198001 
L 110.61104 136.198001 
L 110.694282 131.457826 
L 111.023335 131.457826 
L 111.023335 130.93114 
L 111.266113 130.93114 
L 111.346294 128.824396 
L 111.663381 128.824396 
L 111.663381 126.717652 
L 111.974805 126.717652 
L 111.974805 125.66428 
L 112.204777 125.66428 
L 112.280765 121.977477 
L 112.58145 121.977477 
L 112.58145 120.397419 
L 113.167699 120.397419 
L 113.167699 119.344047 
L 113.382559 119.344047 
L 113.382559 118.817361 
L 113.73488 118.817361 
L 113.804498 117.763988 
L 114.0117 117.763988 
L 114.0117 117.237302 
L 114.351658 117.237302 
L 114.351658 116.710616 
L 114.618932 116.710616 
L 114.618932 116.18393 
L 114.882171 116.18393 
L 114.882171 115.130558 
L 115.711251 115.130558 
L 115.711251 114.603872 
L 115.897107 114.603872 
L 115.897107 114.077186 
L 116.202531 114.077186 
L 116.202531 113.5505 
L 116.323218 113.5505 
L 116.323218 113.023814 
L 116.914437 113.023814 
L 116.914437 112.497128 
L 117.087964 112.497128 
L 117.087964 111.970441 
L 117.765302 111.970441 
L 117.765302 111.443755 
L 118.363901 111.443755 
L 118.363901 110.917069 
L 119.89914 110.917069 
L 119.89914 110.390383 
L 121.667835 110.390383 
L 121.667835 109.863697 
L 122.699028 109.863697 
L 122.699028 109.337011 
L 123.474235 109.337011 
L 123.474235 108.810325 
L 124.216444 108.810325 
L 124.216444 108.283639 
L 124.594752 108.283639 
L 124.594752 107.756953 
L 125.363449 107.756953 
L 125.363449 107.230267 
L 125.506102 107.230267 
L 125.506102 106.176895 
L 130.45189 106.176895 
L 130.45189 105.650209 
L 134.019394 105.650209 
L 134.019394 105.123522 
L 155.476185 105.123522 
L 155.476185 104.596836 
L 155.773004 104.596836 
L 155.773004 103.543464 
L 156.169227 103.543464 
L 156.205916 102.490092 
L 156.303376 102.490092 
L 156.303376 101.963406 
L 157.283635 101.963406 
L 157.306589 100.910034 
L 157.426604 100.910034 
L 157.426604 100.383348 
L 157.56276 100.383348 
L 157.63607 99.329976 
L 157.837488 99.329976 
L 157.887482 97.749917 
L 157.970486 97.749917 
L 157.970486 97.223231 
L 158.293192 97.223231 
L 158.358103 96.169859 
L 158.412011 96.169859 
L 158.497919 95.116487 
L 158.588735 95.116487 
L 158.668475 93.536429 
L 158.790041 93.536429 
L 158.889829 92.483056 
L 159.072168 92.483056 
L 159.118749 90.376312 
L 159.206397 90.376312 
L 159.278248 88.796254 
L 159.380382 88.796254 
L 159.46166 86.68951 
L 159.497101 86.68951 
L 159.577838 85.636137 
L 159.623089 85.636137 
L 159.643163 83.529393 
L 159.743188 83.529393 
L 159.852557 81.422649 
L 159.862466 81.422649 
L 159.887213 79.315904 
L 160.074152 79.315904 
L 160.147395 77.20916 
L 160.21548 77.20916 
L 160.21548 76.682474 
L 160.331581 76.682474 
L 160.37011 75.629102 
L 160.461277 75.629102 
L 160.55197 74.049044 
L 160.618496 74.049044 
L 160.684769 72.468985 
L 160.741375 72.468985 
L 160.741375 71.942299 
L 160.858717 71.942299 
L 160.933404 69.835555 
L 161.072584 69.835555 
L 161.160161 68.255497 
L 161.215247 68.255497 
L 161.26102 66.675439 
L 161.370386 66.675439 
L 161.451963 65.09538 
L 161.506136 65.09538 
L 161.591568 62.46195 
L 161.622937 62.46195 
L 161.636364 61.408578 
L 161.876297 61.408578 
L 161.955547 59.301833 
L 161.999419 59.301833 
L 162.082474 57.195089 
L 162.121678 57.195089 
L 162.178151 56.141717 
L 162.256044 56.141717 
L 162.281931 55.088345 
L 162.444996 55.088345 
L 162.444996 54.561659 
L 163.433016 54.561659 
L 163.541647 52.9816 
L 163.946031 52.9816 
L 163.946031 52.454914 
L 164.070989 52.454914 
L 164.175729 50.874856 
L 164.295217 50.874856 
L 164.295217 50.34817 
L 164.527973 50.34817 
L 164.554485 48.768112 
L 164.77262 48.768112 
L 164.84721 46.661368 
L 164.984368 46.661368 
L 164.984368 46.134681 
L 165.35337 46.134681 
L 165.35337 45.607995 
L 165.475853 45.607995 
L 165.475853 45.081309 
L 176.037938 45.081309 
L 176.037938 44.554623 
L 176.160922 44.554623 
L 176.255981 42.974565 
L 176.302352 42.974565 
L 176.390886 40.867821 
L 176.4369 40.867821 
L 176.507601 37.707704 
L 176.553308 37.707704 
L 176.619751 35.60096 
L 176.665166 35.60096 
L 176.719885 34.020902 
L 176.80258 34.020902 
L 176.879286 31.914157 
L 177.04649 31.914157 
L 177.076048 30.860785 
L 177.385234 30.860785 
L 177.385234 30.334099 
L 338.688 30.334099 
L 338.688 30.334099 
" style="fill:none;stroke:#bebebe;stroke-linecap:square;stroke-width:1.5;"/>
   </g>
   <g id="line2d_47">
    <defs>
     <path d="M 0 0 
L -6 -0 
M 0 0 
L 3 4.8 
M 0 0 
L 3 -4.8 
" id="mea1e36fdc9" style="stroke:#bebebe;stroke-width:1.5;"/>
    </defs>
    <g>
     <use style="fill-opacity:0;stroke:#bebebe;stroke-width:1.5;" x="105.51043" xlink:href="#mea1e36fdc9" y="164.112363"/>
     <use style="fill-opacity:0;stroke:#bebebe;stroke-width:1.5;" x="155.476185" xlink:href="#mea1e36fdc9" y="104.596836"/>
     <use style="fill-opacity:0;stroke:#bebebe;stroke-width:1.5;" x="177.385234" xlink:href="#mea1e36fdc9" y="30.860785"/>
     <use style="fill-opacity:0;stroke:#bebebe;stroke-width:1.5;" x="177.385234" xlink:href="#mea1e36fdc9" y="30.334099"/>
     <use style="fill-opacity:0;stroke:#bebebe;stroke-width:1.5;" x="338.688" xlink:href="#mea1e36fdc9" y="30.334099"/>
    </g>
   </g>
   <g id="line2d_48">
    <path style="fill:none;stroke:#bebebe;stroke-linecap:square;stroke-width:1.5;"/>
    <g/>
   </g>
   <g id="line2d_49">
    <defs>
     <path d="M 0 1.5 
C 0.397805 1.5 0.77937 1.341951 1.06066 1.06066 
C 1.341951 0.77937 1.5 0.397805 1.5 0 
C 1.5 -0.397805 1.341951 -0.77937 1.06066 -1.06066 
C 0.77937 -1.341951 0.397805 -1.5 0 -1.5 
C -0.397805 -1.5 -0.77937 -1.341951 -1.06066 -1.06066 
C -1.341951 -0.77937 -1.5 -0.397805 -1.5 0 
C -1.5 0.397805 -1.341951 0.77937 -1.06066 1.06066 
C -0.77937 1.341951 -0.397805 1.5 0 1.5 
z
" id="m78b946828c" style="stroke:#6495ed;"/>
    </defs>
    <g>
     <use style="fill:#6495ed;stroke:#6495ed;" x="281.550275" xlink:href="#m78b946828c" y="46.134681"/>
     <use style="fill:#6495ed;stroke:#6495ed;" x="281.550275" xlink:href="#m78b946828c" y="46.134681"/>
    </g>
   </g>
   <g id="line2d_50">
    <path d="M 69.687988 298.944 
L 69.687988 298.417314 
L 70.538854 298.417314 
L 70.538854 297.363942 
L 77.884514 297.363942 
L 77.884514 295.783884 
L 78.421149 295.783884 
L 78.421149 294.203825 
L 78.941764 294.203825 
L 78.941764 292.623767 
L 83.438118 292.623767 
L 83.438118 286.83022 
L 83.830028 286.83022 
L 83.830028 284.19679 
L 84.588378 284.19679 
L 84.588378 283.670104 
L 87.643811 283.670104 
L 87.643811 281.563359 
L 87.952479 281.563359 
L 87.952479 273.663068 
L 88.255778 273.663068 
L 88.255778 272.08301 
L 88.553893 272.08301 
L 88.553893 271.556324 
L 88.846997 271.556324 
L 88.846997 271.029638 
L 91.029752 271.029638 
L 91.029752 269.449579 
L 91.284345 269.449579 
L 91.284345 265.236091 
L 91.535274 265.236091 
L 91.535274 262.60266 
L 91.782644 262.60266 
L 91.782644 261.022602 
L 92.026554 261.022602 
L 92.026554 260.495916 
L 92.73846 260.495916 
L 92.73846 258.389172 
L 93.863965 258.389172 
L 93.863965 256.282427 
L 94.080605 256.282427 
L 94.080605 254.702369 
L 94.294587 254.702369 
L 94.294587 249.962195 
L 94.505975 249.962195 
L 94.505975 246.802078 
L 94.921215 246.802078 
L 94.921215 245.22202 
L 95.526106 245.22202 
L 95.526106 243.641962 
L 96.489848 243.641962 
L 96.489848 238.901787 
L 96.676366 238.901787 
L 96.676366 229.948123 
L 96.86091 229.948123 
L 96.86091 226.788007 
L 97.043522 226.788007 
L 97.043522 225.207949 
L 97.224242 225.207949 
L 97.224242 224.681263 
L 97.755429 224.681263 
L 97.755429 224.154577 
L 98.606294 224.154577 
L 98.606294 223.101204 
L 98.771596 223.101204 
L 98.771596 217.834344 
L 98.935347 217.834344 
L 98.935347 216.254285 
L 99.097574 216.254285 
L 99.097574 214.147541 
L 99.258306 214.147541 
L 99.258306 213.620855 
L 99.731799 213.620855 
L 99.731799 213.094169 
L 100.493461 213.094169 
L 100.493461 211.514111 
L 100.641881 211.514111 
L 100.641881 205.193878 
L 100.789049 205.193878 
L 100.789049 203.613819 
L 101.079711 203.613819 
L 101.079711 201.507075 
L 101.506816 201.507075 
L 101.506816 199.927017 
L 102.196206 199.927017 
L 102.196206 197.820273 
L 102.330873 197.820273 
L 102.330873 192.026726 
L 102.464508 192.026726 
L 102.464508 186.233179 
L 102.728744 186.233179 
L 102.728744 185.706493 
L 102.859376 185.706493 
L 102.859376 184.126434 
L 103.245502 184.126434 
L 103.245502 183.599748 
L 103.870632 183.599748 
L 103.870632 179.38626 
L 103.993014 179.38626 
L 103.993014 174.646085 
L 104.114542 174.646085 
L 104.114542 173.066027 
L 104.355088 173.066027 
L 104.355088 172.012655 
L 105.285403 172.012655 
L 105.285403 169.90591 
L 105.398279 169.90591 
L 105.398279 164.112363 
L 105.51043 164.112363 
L 105.51043 160.952247 
L 105.621863 160.952247 
L 105.732589 157.265444 
L 106.06061 157.265444 
L 106.06061 154.632014 
L 106.593963 154.632014 
L 106.698704 153.578642 
L 106.802819 153.578642 
L 106.906317 148.311781 
L 107.009204 148.311781 
L 107.111487 146.205037 
L 107.811151 146.205037 
L 107.90885 144.624978 
L 108.006005 144.624978 
L 108.102622 141.464862 
L 108.198707 141.464862 
L 108.294265 137.778059 
L 108.483824 137.778059 
L 108.577836 136.198001 
L 108.671345 136.198001 
L 108.671345 134.617943 
L 108.948899 134.617943 
L 108.948899 134.091257 
L 109.222105 134.091257 
L 109.31223 131.457826 
L 109.401893 131.457826 
L 109.401893 128.29771 
L 109.756002 128.29771 
L 109.756002 126.717652 
L 110.016944 126.717652 
L 110.016944 126.190966 
L 110.274038 126.190966 
L 110.358901 123.557535 
L 110.443353 123.557535 
L 110.443353 122.504163 
L 111.023335 122.504163 
L 111.023335 121.450791 
L 111.346294 121.450791 
L 111.426108 120.397419 
L 111.505558 120.397419 
L 111.505558 118.817361 
L 111.74176 118.817361 
L 111.74176 117.763988 
L 111.974805 117.763988 
L 111.974805 115.657244 
L 112.280765 115.657244 
L 112.280765 114.077186 
L 112.431755 114.077186 
L 112.431755 113.023814 
L 113.311233 113.023814 
L 113.382559 110.390383 
L 114.351658 110.390383 
L 114.351658 109.863697 
L 114.552496 109.863697 
L 114.552496 109.337011 
L 114.947365 109.337011 
L 115.012316 107.230267 
L 115.835374 107.230267 
L 115.835374 106.703581 
L 116.019919 106.703581 
L 116.019919 106.176895 
L 118.202674 106.176895 
L 118.202674 105.650209 
L 120.712642 105.650209 
L 120.712642 105.123522 
L 123.514096 105.123522 
L 123.514096 104.07015 
L 124.482119 104.07015 
L 124.482119 103.543464 
L 124.92835 103.543464 
L 124.92835 103.016778 
L 125.434921 103.016778 
L 125.434921 102.490092 
L 126.236468 102.490092 
L 126.236468 101.963406 
L 126.372183 101.963406 
L 126.372183 101.43672 
L 129.742212 101.43672 
L 129.742212 100.910034 
L 130.478617 100.910034 
L 130.478617 100.383348 
L 137.217107 100.383348 
L 137.217107 99.856662 
L 137.433523 99.856662 
L 137.433523 98.803289 
L 137.664982 98.803289 
L 137.664982 98.276603 
L 137.893409 98.276603 
L 137.893409 97.749917 
L 142.579953 97.749917 
L 142.579953 97.223231 
L 147.368603 97.223231 
L 147.368603 96.169859 
L 152.647216 96.169859 
L 152.647216 95.643173 
L 154.601099 95.643173 
L 154.601099 95.116487 
L 154.959044 95.116487 
L 155.0376 93.536429 
L 155.128803 93.536429 
L 155.128803 93.009743 
L 155.653621 93.009743 
L 155.653621 92.483056 
L 160.816565 92.483056 
L 160.816565 91.95637 
L 163.942112 91.95637 
L 163.989086 89.849626 
L 164.333587 89.849626 
L 164.333587 89.32294 
L 168.192825 89.32294 
L 168.272512 86.68951 
L 176.793203 86.68951 
L 176.860608 85.109451 
L 190.242989 85.109451 
L 190.299288 83.529393 
L 194.44707 83.529393 
L 194.53004 82.476021 
L 194.563253 82.476021 
L 194.563253 81.949335 
L 195.281632 81.949335 
L 195.281632 80.895963 
L 196.038916 80.895963 
L 196.038916 80.369277 
L 196.712077 80.369277 
L 196.787943 78.262532 
L 198.031813 78.262532 
L 198.031813 76.155788 
L 210.962207 76.155788 
L 210.96538 75.102416 
L 211.439011 75.102416 
L 211.439011 73.522358 
L 211.709385 73.522358 
L 211.709385 72.995672 
L 212.832958 72.995672 
L 212.939286 69.308869 
L 212.960757 69.308869 
L 212.960757 68.782183 
L 213.601079 68.782183 
L 213.601079 68.255497 
L 214.58195 68.255497 
L 214.58775 67.202125 
L 226.363438 67.202125 
L 226.460153 66.148752 
L 227.37869 66.148752 
L 227.37869 65.622066 
L 228.250375 65.622066 
L 228.26695 64.568694 
L 231.396636 64.568694 
L 231.396636 64.042008 
L 231.602124 64.042008 
L 231.602124 63.515322 
L 231.762029 63.515322 
L 231.762029 62.988636 
L 231.914438 62.988636 
L 231.959156 61.408578 
L 232.334432 61.408578 
L 232.334432 60.881892 
L 232.885483 60.881892 
L 232.885483 59.82852 
L 233.648967 59.82852 
L 233.648967 59.301833 
L 234.652532 59.301833 
L 234.652532 58.775147 
L 236.738012 58.775147 
L 236.738012 58.248461 
L 243.309322 58.248461 
L 243.309322 57.721775 
L 243.666048 57.721775 
L 243.666048 57.195089 
L 243.980263 57.195089 
L 243.980263 56.668403 
L 245.05078 56.668403 
L 245.05078 56.141717 
L 246.209519 56.141717 
L 246.209519 55.615031 
L 250.980839 55.615031 
L 250.980839 55.088345 
L 251.415446 55.088345 
L 251.415446 54.561659 
L 251.912124 54.561659 
L 251.912124 54.034973 
L 252.335102 54.034973 
L 252.335102 53.508287 
L 254.466857 53.508287 
L 254.466857 52.9816 
L 255.923338 52.9816 
L 255.923338 52.454914 
L 256.165766 52.454914 
L 256.176255 51.401542 
L 257.12948 51.401542 
L 257.12948 50.874856 
L 259.832758 50.874856 
L 259.832758 50.34817 
L 263.024824 50.34817 
L 263.024824 49.821484 
L 263.9725 49.821484 
L 263.9725 49.294798 
L 265.100207 49.294798 
L 265.100207 48.768112 
L 266.237345 48.768112 
L 266.237345 48.241426 
L 273.835926 48.241426 
L 273.835926 47.71474 
L 275.573516 47.71474 
L 275.573516 47.188054 
L 280.652036 47.188054 
L 280.652036 46.661368 
L 281.550275 46.661368 
L 281.550275 46.134681 
L 338.688 46.134681 
L 338.688 46.134681 
" style="fill:none;stroke:#6495ed;stroke-linecap:square;stroke-width:1.5;"/>
   </g>
   <g id="line2d_51">
    <defs>
     <path d="M -0 6 
L 6 -6 
L -6 -6 
z
" id="me96bc36bc4" style="stroke:#6495ed;stroke-linejoin:miter;stroke-width:1.5;"/>
    </defs>
    <g>
     <use style="fill-opacity:0;stroke:#6495ed;stroke-linejoin:miter;stroke-width:1.5;" x="112.431755" xlink:href="#me96bc36bc4" y="114.077186"/>
     <use style="fill-opacity:0;stroke:#6495ed;stroke-linejoin:miter;stroke-width:1.5;" x="226.460153" xlink:href="#me96bc36bc4" y="66.675439"/>
     <use style="fill-opacity:0;stroke:#6495ed;stroke-linejoin:miter;stroke-width:1.5;" x="281.550275" xlink:href="#me96bc36bc4" y="46.661368"/>
     <use style="fill-opacity:0;stroke:#6495ed;stroke-linejoin:miter;stroke-width:1.5;" x="281.550275" xlink:href="#me96bc36bc4" y="46.134681"/>
     <use style="fill-opacity:0;stroke:#6495ed;stroke-linejoin:miter;stroke-width:1.5;" x="338.688" xlink:href="#me96bc36bc4" y="46.134681"/>
    </g>
   </g>
   <g id="line2d_52">
    <path style="fill:none;stroke:#6495ed;stroke-linecap:square;stroke-width:1.5;"/>
    <g/>
   </g>
   <g id="line2d_53">
    <path clip-path="url(#pe0ea0a7b71)" d="M 231.834805 62.988636 
" style="fill:none;stroke:#6495ed;stroke-linecap:square;stroke-width:1.5;"/>
    <defs>
     <path d="M -12 12 
L 12 -12 
M -12 -12 
L 12 12 
" id="m8fcc661eda" style="stroke:#6495ed;"/>
    </defs>
    <g clip-path="url(#pe0ea0a7b71)">
     <use style="fill:#6495ed;stroke:#6495ed;" x="231.834805" xlink:href="#m8fcc661eda" y="62.988636"/>
    </g>
   </g>
   <g id="line2d_54">
    <path d="M 338.688 46.134681 
L 369.60768 293.571802 
" style="fill:none;stroke:#6495ed;stroke-linecap:square;stroke-width:1.5;"/>
    <g>
     <use style="fill-opacity:0;stroke:#6495ed;stroke-linejoin:miter;stroke-width:1.5;" x="338.688" xlink:href="#me96bc36bc4" y="46.134681"/>
     <use style="fill-opacity:0;stroke:#6495ed;stroke-linejoin:miter;stroke-width:1.5;" x="369.60768" xlink:href="#me96bc36bc4" y="293.571802"/>
    </g>
   </g>
   <g id="line2d_55">
    <path d="M 338.688 30.334099 
L 369.60768 207.616634 
" style="fill:none;stroke:#bebebe;stroke-linecap:square;stroke-width:1.5;"/>
    <g>
     <use style="fill-opacity:0;stroke:#bebebe;stroke-width:1.5;" x="338.688" xlink:href="#mea1e36fdc9" y="30.334099"/>
     <use style="fill-opacity:0;stroke:#bebebe;stroke-width:1.5;" x="369.60768" xlink:href="#mea1e36fdc9" y="207.616634"/>
    </g>
   </g>
   <g id="line2d_56">
    <path d="M 338.688 30.334099 
L 369.60768 121.661465 
" style="fill:none;stroke:#000080;stroke-linecap:square;stroke-width:1.5;"/>
    <g>
     <use style="fill-opacity:0;stroke:#000080;stroke-width:1.5;" x="338.688" xlink:href="#m328c781755" y="30.334099"/>
     <use style="fill-opacity:0;stroke:#000080;stroke-width:1.5;" x="369.60768" xlink:href="#m328c781755" y="121.661465"/>
    </g>
   </g>
   <g id="line2d_57">
    <path d="M 338.688 30.334099 
L 369.60768 35.706297 
" style="fill:none;stroke:#ff0000;stroke-linecap:square;stroke-width:1.5;"/>
    <g>
     <use style="fill-opacity:0;stroke:#ff0000;stroke-linejoin:miter;stroke-width:1.5;" x="338.688" xlink:href="#md370bad868" y="30.334099"/>
     <use style="fill-opacity:0;stroke:#ff0000;stroke-linejoin:miter;stroke-width:1.5;" x="369.60768" xlink:href="#md370bad868" y="35.706297"/>
    </g>
   </g>
   <g id="line2d_58">
    <path d="M 338.688 298.944 
L 338.688 30.334099 
" style="fill:none;stroke:#000000;stroke-linecap:square;stroke-width:1.5;"/>
   </g>
   <g id="patch_3">
    <path d="M 57.6 298.944 
L 57.6 27.648 
" style="fill:none;stroke:#000000;stroke-linecap:square;stroke-linejoin:miter;stroke-width:0.8;"/>
   </g>
   <g id="patch_4">
    <path d="M 338.688 298.944 
L 338.688 27.648 
" style="fill:none;stroke:#000000;stroke-linecap:square;stroke-linejoin:miter;stroke-width:0.8;"/>
   </g>
   <g id="patch_5">
    <path d="M 57.6 298.944 
L 338.688 298.944 
" style="fill:none;stroke:#000000;stroke-linecap:square;stroke-linejoin:miter;stroke-width:0.8;"/>
   </g>
   <g id="patch_6">
    <path d="M 57.6 27.648 
L 338.688 27.648 
" style="fill:none;stroke:#000000;stroke-linecap:square;stroke-linejoin:miter;stroke-width:0.8;"/>
   </g>
   <g id="text_13">
    <!-- SLSQP-11  -->
    <defs>
     <path d="M 53.515625 70.515625 
L 53.515625 60.890625 
Q 47.90625 63.578125 42.921875 64.890625 
Q 37.9375 66.21875 33.296875 66.21875 
Q 25.25 66.21875 20.875 63.09375 
Q 16.5 59.96875 16.5 54.203125 
Q 16.5 49.359375 19.40625 46.890625 
Q 22.3125 44.4375 30.421875 42.921875 
L 36.375 41.703125 
Q 47.40625 39.59375 52.65625 34.296875 
Q 57.90625 29 57.90625 20.125 
Q 57.90625 9.515625 50.796875 4.046875 
Q 43.703125 -1.421875 29.984375 -1.421875 
Q 24.8125 -1.421875 18.96875 -0.25 
Q 13.140625 0.921875 6.890625 3.21875 
L 6.890625 13.375 
Q 12.890625 10.015625 18.65625 8.296875 
Q 24.421875 6.59375 29.984375 6.59375 
Q 38.421875 6.59375 43.015625 9.90625 
Q 47.609375 13.234375 47.609375 19.390625 
Q 47.609375 24.75 44.3125 27.78125 
Q 41.015625 30.8125 33.5 32.328125 
L 27.484375 33.5 
Q 16.453125 35.6875 11.515625 40.375 
Q 6.59375 45.0625 6.59375 53.421875 
Q 6.59375 63.09375 13.40625 68.65625 
Q 20.21875 74.21875 32.171875 74.21875 
Q 37.3125 74.21875 42.625 73.28125 
Q 47.953125 72.359375 53.515625 70.515625 
z
" id="DejaVuSans-83"/>
     <path d="M 9.8125 72.90625 
L 19.671875 72.90625 
L 19.671875 8.296875 
L 55.171875 8.296875 
L 55.171875 0 
L 9.8125 0 
z
" id="DejaVuSans-76"/>
     <path d="M 39.40625 66.21875 
Q 28.65625 66.21875 22.328125 58.203125 
Q 16.015625 50.203125 16.015625 36.375 
Q 16.015625 22.609375 22.328125 14.59375 
Q 28.65625 6.59375 39.40625 6.59375 
Q 50.140625 6.59375 56.421875 14.59375 
Q 62.703125 22.609375 62.703125 36.375 
Q 62.703125 50.203125 56.421875 58.203125 
Q 50.140625 66.21875 39.40625 66.21875 
z
M 53.21875 1.3125 
L 66.21875 -12.890625 
L 54.296875 -12.890625 
L 43.5 -1.21875 
Q 41.890625 -1.3125 41.03125 -1.359375 
Q 40.1875 -1.421875 39.40625 -1.421875 
Q 24.03125 -1.421875 14.8125 8.859375 
Q 5.609375 19.140625 5.609375 36.375 
Q 5.609375 53.65625 14.8125 63.9375 
Q 24.03125 74.21875 39.40625 74.21875 
Q 54.734375 74.21875 63.90625 63.9375 
Q 73.09375 53.65625 73.09375 36.375 
Q 73.09375 23.6875 67.984375 14.640625 
Q 62.890625 5.609375 53.21875 1.3125 
z
" id="DejaVuSans-81"/>
     <path d="M 19.671875 64.796875 
L 19.671875 37.40625 
L 32.078125 37.40625 
Q 38.96875 37.40625 42.71875 40.96875 
Q 46.484375 44.53125 46.484375 51.125 
Q 46.484375 57.671875 42.71875 61.234375 
Q 38.96875 64.796875 32.078125 64.796875 
z
M 9.8125 72.90625 
L 32.078125 72.90625 
Q 44.34375 72.90625 50.609375 67.359375 
Q 56.890625 61.8125 56.890625 51.125 
Q 56.890625 40.328125 50.609375 34.8125 
Q 44.34375 29.296875 32.078125 29.296875 
L 19.671875 29.296875 
L 19.671875 0 
L 9.8125 0 
z
" id="DejaVuSans-80"/>
    </defs>
    <g transform="translate(375.22944 298.262739)scale(0.17 -0.17)">
     <use xlink:href="#DejaVuSans-83"/>
     <use x="63.476562" xlink:href="#DejaVuSans-76"/>
     <use x="119.189453" xlink:href="#DejaVuSans-83"/>
     <use x="182.666016" xlink:href="#DejaVuSans-81"/>
     <use x="261.376953" xlink:href="#DejaVuSans-80"/>
     <use x="321.648438" xlink:href="#DejaVuSans-45"/>
     <use x="357.732422" xlink:href="#DejaVuSans-49"/>
     <use x="421.355469" xlink:href="#DejaVuSans-49"/>
     <use x="484.978516" xlink:href="#DejaVuSans-32"/>
    </g>
   </g>
   <g id="text_14">
    <!-- SLSQP+CMA -->
    <defs>
     <path d="M 46 62.703125 
L 46 35.5 
L 73.1875 35.5 
L 73.1875 27.203125 
L 46 27.203125 
L 46 0 
L 37.796875 0 
L 37.796875 27.203125 
L 10.59375 27.203125 
L 10.59375 35.5 
L 37.796875 35.5 
L 37.796875 62.703125 
z
" id="DejaVuSans-43"/>
     <path d="M 64.40625 67.28125 
L 64.40625 56.890625 
Q 59.421875 61.53125 53.78125 63.8125 
Q 48.140625 66.109375 41.796875 66.109375 
Q 29.296875 66.109375 22.65625 58.46875 
Q 16.015625 50.828125 16.015625 36.375 
Q 16.015625 21.96875 22.65625 14.328125 
Q 29.296875 6.6875 41.796875 6.6875 
Q 48.140625 6.6875 53.78125 8.984375 
Q 59.421875 11.28125 64.40625 15.921875 
L 64.40625 5.609375 
Q 59.234375 2.09375 53.4375 0.328125 
Q 47.65625 -1.421875 41.21875 -1.421875 
Q 24.65625 -1.421875 15.125 8.703125 
Q 5.609375 18.84375 5.609375 36.375 
Q 5.609375 53.953125 15.125 64.078125 
Q 24.65625 74.21875 41.21875 74.21875 
Q 47.75 74.21875 53.53125 72.484375 
Q 59.328125 70.75 64.40625 67.28125 
z
" id="DejaVuSans-67"/>
     <path d="M 9.8125 72.90625 
L 24.515625 72.90625 
L 43.109375 23.296875 
L 61.8125 72.90625 
L 76.515625 72.90625 
L 76.515625 0 
L 66.890625 0 
L 66.890625 64.015625 
L 48.09375 14.015625 
L 38.1875 14.015625 
L 19.390625 64.015625 
L 19.390625 0 
L 9.8125 0 
z
" id="DejaVuSans-77"/>
     <path d="M 34.1875 63.1875 
L 20.796875 26.90625 
L 47.609375 26.90625 
z
M 28.609375 72.90625 
L 39.796875 72.90625 
L 67.578125 0 
L 57.328125 0 
L 50.6875 18.703125 
L 17.828125 18.703125 
L 11.1875 0 
L 0.78125 0 
z
" id="DejaVuSans-65"/>
    </defs>
    <g transform="translate(375.22944 212.307571)scale(0.17 -0.17)">
     <use xlink:href="#DejaVuSans-83"/>
     <use x="63.476562" xlink:href="#DejaVuSans-76"/>
     <use x="119.189453" xlink:href="#DejaVuSans-83"/>
     <use x="182.666016" xlink:href="#DejaVuSans-81"/>
     <use x="261.376953" xlink:href="#DejaVuSans-80"/>
     <use x="321.679688" xlink:href="#DejaVuSans-43"/>
     <use x="405.46875" xlink:href="#DejaVuSans-67"/>
     <use x="475.292969" xlink:href="#DejaVuSans-77"/>
     <use x="561.572266" xlink:href="#DejaVuSans-65"/>
    </g>
   </g>
   <g id="text_15">
    <!-- CMA-ES  2 -->
    <defs>
     <path d="M 9.8125 72.90625 
L 55.90625 72.90625 
L 55.90625 64.59375 
L 19.671875 64.59375 
L 19.671875 43.015625 
L 54.390625 43.015625 
L 54.390625 34.71875 
L 19.671875 34.71875 
L 19.671875 8.296875 
L 56.78125 8.296875 
L 56.78125 0 
L 9.8125 0 
z
" id="DejaVuSans-69"/>
    </defs>
    <g transform="translate(375.22944 126.352403)scale(0.17 -0.17)">
     <use xlink:href="#DejaVuSans-67"/>
     <use x="69.824219" xlink:href="#DejaVuSans-77"/>
     <use x="156.103516" xlink:href="#DejaVuSans-65"/>
     <use x="224.480469" xlink:href="#DejaVuSans-45"/>
     <use x="260.564453" xlink:href="#DejaVuSans-69"/>
     <use x="323.748047" xlink:href="#DejaVuSans-83"/>
     <use x="387.224609" xlink:href="#DejaVuSans-32"/>
     <use x="419.011719" xlink:href="#DejaVuSans-32"/>
     <use x="450.798828" xlink:href="#DejaVuSans-50"/>
    </g>
   </g>
   <g id="text_16">
    <!-- lq-CMA-ES -->
    <defs>
     <path d="M 14.796875 27.296875 
Q 14.796875 17.390625 18.875 11.75 
Q 22.953125 6.109375 30.078125 6.109375 
Q 37.203125 6.109375 41.296875 11.75 
Q 45.40625 17.390625 45.40625 27.296875 
Q 45.40625 37.203125 41.296875 42.84375 
Q 37.203125 48.484375 30.078125 48.484375 
Q 22.953125 48.484375 18.875 42.84375 
Q 14.796875 37.203125 14.796875 27.296875 
z
M 45.40625 8.203125 
Q 42.578125 3.328125 38.25 0.953125 
Q 33.9375 -1.421875 27.875 -1.421875 
Q 17.96875 -1.421875 11.734375 6.484375 
Q 5.515625 14.40625 5.515625 27.296875 
Q 5.515625 40.1875 11.734375 48.09375 
Q 17.96875 56 27.875 56 
Q 33.9375 56 38.25 53.625 
Q 42.578125 51.265625 45.40625 46.390625 
L 45.40625 54.6875 
L 54.390625 54.6875 
L 54.390625 -20.796875 
L 45.40625 -20.796875 
z
" id="DejaVuSans-113"/>
    </defs>
    <g transform="translate(375.22944 40.397235)scale(0.17 -0.17)">
     <use xlink:href="#DejaVuSans-108"/>
     <use x="27.783203" xlink:href="#DejaVuSans-113"/>
     <use x="91.259766" xlink:href="#DejaVuSans-45"/>
     <use x="127.34375" xlink:href="#DejaVuSans-67"/>
     <use x="197.167969" xlink:href="#DejaVuSans-77"/>
     <use x="283.447266" xlink:href="#DejaVuSans-65"/>
     <use x="351.824219" xlink:href="#DejaVuSans-45"/>
     <use x="387.908203" xlink:href="#DejaVuSans-69"/>
     <use x="451.091797" xlink:href="#DejaVuSans-83"/>
    </g>
   </g>
   <g id="text_17">
    <!-- bbob f11, 10-D -->
    <defs>
     <path d="M 48.6875 27.296875 
Q 48.6875 37.203125 44.609375 42.84375 
Q 40.53125 48.484375 33.40625 48.484375 
Q 26.265625 48.484375 22.1875 42.84375 
Q 18.109375 37.203125 18.109375 27.296875 
Q 18.109375 17.390625 22.1875 11.75 
Q 26.265625 6.109375 33.40625 6.109375 
Q 40.53125 6.109375 44.609375 11.75 
Q 48.6875 17.390625 48.6875 27.296875 
z
M 18.109375 46.390625 
Q 20.953125 51.265625 25.265625 53.625 
Q 29.59375 56 35.59375 56 
Q 45.5625 56 51.78125 48.09375 
Q 58.015625 40.1875 58.015625 27.296875 
Q 58.015625 14.40625 51.78125 6.484375 
Q 45.5625 -1.421875 35.59375 -1.421875 
Q 29.59375 -1.421875 25.265625 0.953125 
Q 20.953125 3.328125 18.109375 8.203125 
L 18.109375 0 
L 9.078125 0 
L 9.078125 75.984375 
L 18.109375 75.984375 
z
" id="DejaVuSans-98"/>
     <path d="M 19.671875 64.796875 
L 19.671875 8.109375 
L 31.59375 8.109375 
Q 46.6875 8.109375 53.6875 14.9375 
Q 60.6875 21.78125 60.6875 36.53125 
Q 60.6875 51.171875 53.6875 57.984375 
Q 46.6875 64.796875 31.59375 64.796875 
z
M 9.8125 72.90625 
L 30.078125 72.90625 
Q 51.265625 72.90625 61.171875 64.09375 
Q 71.09375 55.28125 71.09375 36.53125 
Q 71.09375 17.671875 61.125 8.828125 
Q 51.171875 0 30.078125 0 
L 9.8125 0 
z
" id="DejaVuSans-68"/>
    </defs>
    <g transform="translate(60.41088 38.111366)scale(0.102 -0.102)">
     <use xlink:href="#DejaVuSans-98"/>
     <use x="63.476562" xlink:href="#DejaVuSans-98"/>
     <use x="126.953125" xlink:href="#DejaVuSans-111"/>
     <use x="188.134766" xlink:href="#DejaVuSans-98"/>
     <use x="251.611328" xlink:href="#DejaVuSans-32"/>
     <use x="283.398438" xlink:href="#DejaVuSans-102"/>
     <use x="318.603516" xlink:href="#DejaVuSans-49"/>
     <use x="382.226562" xlink:href="#DejaVuSans-49"/>
     <use x="445.849609" xlink:href="#DejaVuSans-44"/>
     <use x="477.636719" xlink:href="#DejaVuSans-32"/>
     <use x="509.423828" xlink:href="#DejaVuSans-49"/>
     <use x="573.046875" xlink:href="#DejaVuSans-48"/>
     <use x="636.669922" xlink:href="#DejaVuSans-45"/>
     <use x="672.753906" xlink:href="#DejaVuSans-68"/>
    </g>
    <!-- 51 targets: 100..1e-08 -->
    <defs>
     <path d="M 10.796875 72.90625 
L 49.515625 72.90625 
L 49.515625 64.59375 
L 19.828125 64.59375 
L 19.828125 46.734375 
Q 21.96875 47.46875 24.109375 47.828125 
Q 26.265625 48.1875 28.421875 48.1875 
Q 40.625 48.1875 47.75 41.5 
Q 54.890625 34.8125 54.890625 23.390625 
Q 54.890625 11.625 47.5625 5.09375 
Q 40.234375 -1.421875 26.90625 -1.421875 
Q 22.3125 -1.421875 17.546875 -0.640625 
Q 12.796875 0.140625 7.71875 1.703125 
L 7.71875 11.625 
Q 12.109375 9.234375 16.796875 8.0625 
Q 21.484375 6.890625 26.703125 6.890625 
Q 35.15625 6.890625 40.078125 11.328125 
Q 45.015625 15.765625 45.015625 23.390625 
Q 45.015625 31 40.078125 35.4375 
Q 35.15625 39.890625 26.703125 39.890625 
Q 22.75 39.890625 18.8125 39.015625 
Q 14.890625 38.140625 10.796875 36.28125 
z
" id="DejaVuSans-53"/>
     <path d="M 11.71875 12.40625 
L 22.015625 12.40625 
L 22.015625 0 
L 11.71875 0 
z
M 11.71875 51.703125 
L 22.015625 51.703125 
L 22.015625 39.3125 
L 11.71875 39.3125 
z
" id="DejaVuSans-58"/>
    </defs>
    <g transform="translate(60.41088 49.533135)scale(0.102 -0.102)">
     <use xlink:href="#DejaVuSans-53"/>
     <use x="63.623047" xlink:href="#DejaVuSans-49"/>
     <use x="127.246094" xlink:href="#DejaVuSans-32"/>
     <use x="159.033203" xlink:href="#DejaVuSans-116"/>
     <use x="198.242188" xlink:href="#DejaVuSans-97"/>
     <use x="259.521484" xlink:href="#DejaVuSans-114"/>
     <use x="300.619141" xlink:href="#DejaVuSans-103"/>
     <use x="364.095703" xlink:href="#DejaVuSans-101"/>
     <use x="425.619141" xlink:href="#DejaVuSans-116"/>
     <use x="464.828125" xlink:href="#DejaVuSans-115"/>
     <use x="516.927734" xlink:href="#DejaVuSans-58"/>
     <use x="550.619141" xlink:href="#DejaVuSans-32"/>
     <use x="582.40625" xlink:href="#DejaVuSans-49"/>
     <use x="646.029297" xlink:href="#DejaVuSans-48"/>
     <use x="709.652344" xlink:href="#DejaVuSans-48"/>
     <use x="773.275391" xlink:href="#DejaVuSans-46"/>
     <use x="805.0625" xlink:href="#DejaVuSans-46"/>
     <use x="836.849609" xlink:href="#DejaVuSans-49"/>
     <use x="900.472656" xlink:href="#DejaVuSans-101"/>
     <use x="961.996094" xlink:href="#DejaVuSans-45"/>
     <use x="998.080078" xlink:href="#DejaVuSans-48"/>
     <use x="1061.703125" xlink:href="#DejaVuSans-56"/>
    </g>
    <!-- 15 instances -->
    <g transform="translate(60.41088 60.954904)scale(0.102 -0.102)">
     <use xlink:href="#DejaVuSans-49"/>
     <use x="63.623047" xlink:href="#DejaVuSans-53"/>
     <use x="127.246094" xlink:href="#DejaVuSans-32"/>
     <use x="159.033203" xlink:href="#DejaVuSans-105"/>
     <use x="186.816406" xlink:href="#DejaVuSans-110"/>
     <use x="250.195312" xlink:href="#DejaVuSans-115"/>
     <use x="302.294922" xlink:href="#DejaVuSans-116"/>
     <use x="341.503906" xlink:href="#DejaVuSans-97"/>
     <use x="402.783203" xlink:href="#DejaVuSans-110"/>
     <use x="466.162109" xlink:href="#DejaVuSans-99"/>
     <use x="521.142578" xlink:href="#DejaVuSans-101"/>
     <use x="582.666016" xlink:href="#DejaVuSans-115"/>
    </g>
   </g>
   <g id="text_18">
    <!-- v2.3.2 -->
    <defs>
     <path d="M 40.578125 39.3125 
Q 47.65625 37.796875 51.625 33 
Q 55.609375 28.21875 55.609375 21.1875 
Q 55.609375 10.40625 48.1875 4.484375 
Q 40.765625 -1.421875 27.09375 -1.421875 
Q 22.515625 -1.421875 17.65625 -0.515625 
Q 12.796875 0.390625 7.625 2.203125 
L 7.625 11.71875 
Q 11.71875 9.328125 16.59375 8.109375 
Q 21.484375 6.890625 26.8125 6.890625 
Q 36.078125 6.890625 40.9375 10.546875 
Q 45.796875 14.203125 45.796875 21.1875 
Q 45.796875 27.640625 41.28125 31.265625 
Q 36.765625 34.90625 28.71875 34.90625 
L 20.21875 34.90625 
L 20.21875 43.015625 
L 29.109375 43.015625 
Q 36.375 43.015625 40.234375 45.921875 
Q 44.09375 48.828125 44.09375 54.296875 
Q 44.09375 59.90625 40.109375 62.90625 
Q 36.140625 65.921875 28.71875 65.921875 
Q 24.65625 65.921875 20.015625 65.03125 
Q 15.375 64.15625 9.8125 62.3125 
L 9.8125 71.09375 
Q 15.4375 72.65625 20.34375 73.4375 
Q 25.25 74.21875 29.59375 74.21875 
Q 40.828125 74.21875 47.359375 69.109375 
Q 53.90625 64.015625 53.90625 55.328125 
Q 53.90625 49.265625 50.4375 45.09375 
Q 46.96875 40.921875 40.578125 39.3125 
z
" id="DejaVuSans-51"/>
    </defs>
    <g style="fill:#808080;" transform="translate(182.46275 294.151352)scale(0.1 -0.1)">
     <use xlink:href="#DejaVuSans-118"/>
     <use x="59.179688" xlink:href="#DejaVuSans-50"/>
     <use x="122.802734" xlink:href="#DejaVuSans-46"/>
     <use x="154.589844" xlink:href="#DejaVuSans-51"/>
     <use x="218.212891" xlink:href="#DejaVuSans-46"/>
     <use x="250" xlink:href="#DejaVuSans-50"/>
    </g>
   </g>
   <g id="text_19">
    <!-- 11 Discus -->
    <g transform="translate(149.508062 21.648)scale(0.2 -0.2)">
     <use xlink:href="#DejaVuSans-49"/>
     <use x="63.623047" xlink:href="#DejaVuSans-49"/>
     <use x="127.246094" xlink:href="#DejaVuSans-32"/>
     <use x="159.033203" xlink:href="#DejaVuSans-68"/>
     <use x="236.035156" xlink:href="#DejaVuSans-105"/>
     <use x="263.818359" xlink:href="#DejaVuSans-115"/>
     <use x="315.917969" xlink:href="#DejaVuSans-99"/>
     <use x="370.898438" xlink:href="#DejaVuSans-117"/>
     <use x="434.277344" xlink:href="#DejaVuSans-115"/>
    </g>
   </g>
  </g>
 </g>
 <defs>
  <clipPath id="pe0ea0a7b71">
   <rect height="271.296" width="281.088" x="57.6" y="27.648"/>
  </clipPath>
 </defs>
</svg>
