<?xml version="1.0" encoding="utf-8" standalone="no"?>
<!DOCTYPE svg PUBLIC "-//W3C//DTD SVG 1.1//EN"
  "http://www.w3.org/Graphics/SVG/1.1/DTD/svg11.dtd">
<!-- Created with matplotlib (https://matplotlib.org/) -->
<svg height="345.6pt" version="1.1" viewBox="0 0 460.8 345.6" width="460.8pt" xmlns="http://www.w3.org/2000/svg" xmlns:xlink="http://www.w3.org/1999/xlink">
 <defs>
  <style type="text/css">
*{stroke-linecap:butt;stroke-linejoin:round;}
  </style>
 </defs>
 <g id="figure_1">
  <g id="patch_1">
   <path d="M 0 345.6 
L 460.8 345.6 
L 460.8 0 
L 0 0 
z
" style="fill:#ffffff;"/>
  </g>
  <g id="axes_1">
   <g id="patch_2">
    <path d="M 57.6 298.944 
L 338.688 298.944 
L 338.688 27.648 
L 57.6 27.648 
z
" style="fill:#ffffff;"/>
   </g>
   <g id="matplotlib.axis_1">
    <g id="xtick_1">
     <g id="line2d_1">
      <path clip-path="url(#p7db1181c5b)" d="M 57.6 298.944 
L 57.6 27.648 
" style="fill:none;stroke:#b0b0b0;stroke-linecap:square;stroke-width:0.8;"/>
     </g>
     <g id="line2d_2">
      <defs>
       <path d="M 0 0 
L 0 3.5 
" id="m30fa3ea3ac" style="stroke:#000000;stroke-width:0.8;"/>
      </defs>
      <g>
       <use style="stroke:#000000;stroke-width:0.8;" x="57.6" xlink:href="#m30fa3ea3ac" y="298.944"/>
      </g>
     </g>
     <g id="text_1">
      <!-- 0 -->
      <defs>
       <path d="M 31.78125 66.40625 
Q 24.171875 66.40625 20.328125 58.90625 
Q 16.5 51.421875 16.5 36.375 
Q 16.5 21.390625 20.328125 13.890625 
Q 24.171875 6.390625 31.78125 6.390625 
Q 39.453125 6.390625 43.28125 13.890625 
Q 47.125 21.390625 47.125 36.375 
Q 47.125 51.421875 43.28125 58.90625 
Q 39.453125 66.40625 31.78125 66.40625 
z
M 31.78125 74.21875 
Q 44.046875 74.21875 50.515625 64.515625 
Q 56.984375 54.828125 56.984375 36.375 
Q 56.984375 17.96875 50.515625 8.265625 
Q 44.046875 -1.421875 31.78125 -1.421875 
Q 19.53125 -1.421875 13.0625 8.265625 
Q 6.59375 17.96875 6.59375 36.375 
Q 6.59375 54.828125 13.0625 64.515625 
Q 19.53125 74.21875 31.78125 74.21875 
z
" id="DejaVuSans-48"/>
      </defs>
      <g transform="translate(51.2375 321.140875)scale(0.2 -0.2)">
       <use xlink:href="#DejaVuSans-48"/>
      </g>
     </g>
    </g>
    <g id="xtick_2">
     <g id="line2d_3">
      <path clip-path="url(#p7db1181c5b)" d="M 137.910857 298.944 
L 137.910857 27.648 
" style="fill:none;stroke:#b0b0b0;stroke-linecap:square;stroke-width:0.8;"/>
     </g>
     <g id="line2d_4">
      <g>
       <use style="stroke:#000000;stroke-width:0.8;" x="137.910857" xlink:href="#m30fa3ea3ac" y="298.944"/>
      </g>
     </g>
     <g id="text_2">
      <!-- 2 -->
      <defs>
       <path d="M 19.1875 8.296875 
L 53.609375 8.296875 
L 53.609375 0 
L 7.328125 0 
L 7.328125 8.296875 
Q 12.9375 14.109375 22.625 23.890625 
Q 32.328125 33.6875 34.8125 36.53125 
Q 39.546875 41.84375 41.421875 45.53125 
Q 43.3125 49.21875 43.3125 52.78125 
Q 43.3125 58.59375 39.234375 62.25 
Q 35.15625 65.921875 28.609375 65.921875 
Q 23.96875 65.921875 18.8125 64.3125 
Q 13.671875 62.703125 7.8125 59.421875 
L 7.8125 69.390625 
Q 13.765625 71.78125 18.9375 73 
Q 24.125 74.21875 28.421875 74.21875 
Q 39.75 74.21875 46.484375 68.546875 
Q 53.21875 62.890625 53.21875 53.421875 
Q 53.21875 48.921875 51.53125 44.890625 
Q 49.859375 40.875 45.40625 35.40625 
Q 44.1875 33.984375 37.640625 27.21875 
Q 31.109375 20.453125 19.1875 8.296875 
z
" id="DejaVuSans-50"/>
      </defs>
      <g transform="translate(131.548357 321.140875)scale(0.2 -0.2)">
       <use xlink:href="#DejaVuSans-50"/>
      </g>
     </g>
    </g>
    <g id="xtick_3">
     <g id="line2d_5">
      <path clip-path="url(#p7db1181c5b)" d="M 218.221714 298.944 
L 218.221714 27.648 
" style="fill:none;stroke:#b0b0b0;stroke-linecap:square;stroke-width:0.8;"/>
     </g>
     <g id="line2d_6">
      <g>
       <use style="stroke:#000000;stroke-width:0.8;" x="218.221714" xlink:href="#m30fa3ea3ac" y="298.944"/>
      </g>
     </g>
     <g id="text_3">
      <!-- 4 -->
      <defs>
       <path d="M 37.796875 64.3125 
L 12.890625 25.390625 
L 37.796875 25.390625 
z
M 35.203125 72.90625 
L 47.609375 72.90625 
L 47.609375 25.390625 
L 58.015625 25.390625 
L 58.015625 17.1875 
L 47.609375 17.1875 
L 47.609375 0 
L 37.796875 0 
L 37.796875 17.1875 
L 4.890625 17.1875 
L 4.890625 26.703125 
z
" id="DejaVuSans-52"/>
      </defs>
      <g transform="translate(211.859214 321.140875)scale(0.2 -0.2)">
       <use xlink:href="#DejaVuSans-52"/>
      </g>
     </g>
    </g>
    <g id="xtick_4">
     <g id="line2d_7">
      <path clip-path="url(#p7db1181c5b)" d="M 298.532571 298.944 
L 298.532571 27.648 
" style="fill:none;stroke:#b0b0b0;stroke-linecap:square;stroke-width:0.8;"/>
     </g>
     <g id="line2d_8">
      <g>
       <use style="stroke:#000000;stroke-width:0.8;" x="298.532571" xlink:href="#m30fa3ea3ac" y="298.944"/>
      </g>
     </g>
     <g id="text_4">
      <!-- 6 -->
      <defs>
       <path d="M 33.015625 40.375 
Q 26.375 40.375 22.484375 35.828125 
Q 18.609375 31.296875 18.609375 23.390625 
Q 18.609375 15.53125 22.484375 10.953125 
Q 26.375 6.390625 33.015625 6.390625 
Q 39.65625 6.390625 43.53125 10.953125 
Q 47.40625 15.53125 47.40625 23.390625 
Q 47.40625 31.296875 43.53125 35.828125 
Q 39.65625 40.375 33.015625 40.375 
z
M 52.59375 71.296875 
L 52.59375 62.3125 
Q 48.875 64.0625 45.09375 64.984375 
Q 41.3125 65.921875 37.59375 65.921875 
Q 27.828125 65.921875 22.671875 59.328125 
Q 17.53125 52.734375 16.796875 39.40625 
Q 19.671875 43.65625 24.015625 45.921875 
Q 28.375 48.1875 33.59375 48.1875 
Q 44.578125 48.1875 50.953125 41.515625 
Q 57.328125 34.859375 57.328125 23.390625 
Q 57.328125 12.15625 50.6875 5.359375 
Q 44.046875 -1.421875 33.015625 -1.421875 
Q 20.359375 -1.421875 13.671875 8.265625 
Q 6.984375 17.96875 6.984375 36.375 
Q 6.984375 53.65625 15.1875 63.9375 
Q 23.390625 74.21875 37.203125 74.21875 
Q 40.921875 74.21875 44.703125 73.484375 
Q 48.484375 72.75 52.59375 71.296875 
z
" id="DejaVuSans-54"/>
      </defs>
      <g transform="translate(292.170071 321.140875)scale(0.2 -0.2)">
       <use xlink:href="#DejaVuSans-54"/>
      </g>
     </g>
    </g>
    <g id="xtick_5">
     <g id="line2d_9">
      <path clip-path="url(#p7db1181c5b)" d="M 57.6 298.944 
L 57.6 27.648 
" style="fill:none;stroke:#b0b0b0;stroke-linecap:square;stroke-width:0.8;"/>
     </g>
     <g id="line2d_10">
      <defs>
       <path d="M 0 0 
L 0 2 
" id="m76d78f6142" style="stroke:#000000;stroke-width:0.6;"/>
      </defs>
      <g>
       <use style="stroke:#000000;stroke-width:0.6;" x="57.6" xlink:href="#m76d78f6142" y="298.944"/>
      </g>
     </g>
    </g>
    <g id="xtick_6">
     <g id="line2d_11">
      <path clip-path="url(#p7db1181c5b)" d="M 97.755429 298.944 
L 97.755429 27.648 
" style="fill:none;stroke:#b0b0b0;stroke-linecap:square;stroke-width:0.8;"/>
     </g>
     <g id="line2d_12">
      <g>
       <use style="stroke:#000000;stroke-width:0.6;" x="97.755429" xlink:href="#m76d78f6142" y="298.944"/>
      </g>
     </g>
    </g>
    <g id="xtick_7">
     <g id="line2d_13">
      <path clip-path="url(#p7db1181c5b)" d="M 137.910857 298.944 
L 137.910857 27.648 
" style="fill:none;stroke:#b0b0b0;stroke-linecap:square;stroke-width:0.8;"/>
     </g>
     <g id="line2d_14">
      <g>
       <use style="stroke:#000000;stroke-width:0.6;" x="137.910857" xlink:href="#m76d78f6142" y="298.944"/>
      </g>
     </g>
    </g>
    <g id="xtick_8">
     <g id="line2d_15">
      <path clip-path="url(#p7db1181c5b)" d="M 178.066286 298.944 
L 178.066286 27.648 
" style="fill:none;stroke:#b0b0b0;stroke-linecap:square;stroke-width:0.8;"/>
     </g>
     <g id="line2d_16">
      <g>
       <use style="stroke:#000000;stroke-width:0.6;" x="178.066286" xlink:href="#m76d78f6142" y="298.944"/>
      </g>
     </g>
    </g>
    <g id="xtick_9">
     <g id="line2d_17">
      <path clip-path="url(#p7db1181c5b)" d="M 218.221714 298.944 
L 218.221714 27.648 
" style="fill:none;stroke:#b0b0b0;stroke-linecap:square;stroke-width:0.8;"/>
     </g>
     <g id="line2d_18">
      <g>
       <use style="stroke:#000000;stroke-width:0.6;" x="218.221714" xlink:href="#m76d78f6142" y="298.944"/>
      </g>
     </g>
    </g>
    <g id="xtick_10">
     <g id="line2d_19">
      <path clip-path="url(#p7db1181c5b)" d="M 258.377143 298.944 
L 258.377143 27.648 
" style="fill:none;stroke:#b0b0b0;stroke-linecap:square;stroke-width:0.8;"/>
     </g>
     <g id="line2d_20">
      <g>
       <use style="stroke:#000000;stroke-width:0.6;" x="258.377143" xlink:href="#m76d78f6142" y="298.944"/>
      </g>
     </g>
    </g>
    <g id="xtick_11">
     <g id="line2d_21">
      <path clip-path="url(#p7db1181c5b)" d="M 298.532571 298.944 
L 298.532571 27.648 
" style="fill:none;stroke:#b0b0b0;stroke-linecap:square;stroke-width:0.8;"/>
     </g>
     <g id="line2d_22">
      <g>
       <use style="stroke:#000000;stroke-width:0.6;" x="298.532571" xlink:href="#m76d78f6142" y="298.944"/>
      </g>
     </g>
    </g>
    <g id="xtick_12">
     <g id="line2d_23">
      <path clip-path="url(#p7db1181c5b)" d="M 338.688 298.944 
L 338.688 27.648 
" style="fill:none;stroke:#b0b0b0;stroke-linecap:square;stroke-width:0.8;"/>
     </g>
     <g id="line2d_24">
      <g>
       <use style="stroke:#000000;stroke-width:0.6;" x="338.688" xlink:href="#m76d78f6142" y="298.944"/>
      </g>
     </g>
    </g>
    <g id="text_5">
     <!-- log10(# f-evals / dimension) -->
     <defs>
      <path d="M 9.421875 75.984375 
L 18.40625 75.984375 
L 18.40625 0 
L 9.421875 0 
z
" id="DejaVuSans-108"/>
      <path d="M 30.609375 48.390625 
Q 23.390625 48.390625 19.1875 42.75 
Q 14.984375 37.109375 14.984375 27.296875 
Q 14.984375 17.484375 19.15625 11.84375 
Q 23.34375 6.203125 30.609375 6.203125 
Q 37.796875 6.203125 41.984375 11.859375 
Q 46.1875 17.53125 46.1875 27.296875 
Q 46.1875 37.015625 41.984375 42.703125 
Q 37.796875 48.390625 30.609375 48.390625 
z
M 30.609375 56 
Q 42.328125 56 49.015625 48.375 
Q 55.71875 40.765625 55.71875 27.296875 
Q 55.71875 13.875 49.015625 6.21875 
Q 42.328125 -1.421875 30.609375 -1.421875 
Q 18.84375 -1.421875 12.171875 6.21875 
Q 5.515625 13.875 5.515625 27.296875 
Q 5.515625 40.765625 12.171875 48.375 
Q 18.84375 56 30.609375 56 
z
" id="DejaVuSans-111"/>
      <path d="M 45.40625 27.984375 
Q 45.40625 37.75 41.375 43.109375 
Q 37.359375 48.484375 30.078125 48.484375 
Q 22.859375 48.484375 18.828125 43.109375 
Q 14.796875 37.75 14.796875 27.984375 
Q 14.796875 18.265625 18.828125 12.890625 
Q 22.859375 7.515625 30.078125 7.515625 
Q 37.359375 7.515625 41.375 12.890625 
Q 45.40625 18.265625 45.40625 27.984375 
z
M 54.390625 6.78125 
Q 54.390625 -7.171875 48.1875 -13.984375 
Q 42 -20.796875 29.203125 -20.796875 
Q 24.46875 -20.796875 20.265625 -20.09375 
Q 16.0625 -19.390625 12.109375 -17.921875 
L 12.109375 -9.1875 
Q 16.0625 -11.328125 19.921875 -12.34375 
Q 23.78125 -13.375 27.78125 -13.375 
Q 36.625 -13.375 41.015625 -8.765625 
Q 45.40625 -4.15625 45.40625 5.171875 
L 45.40625 9.625 
Q 42.625 4.78125 38.28125 2.390625 
Q 33.9375 0 27.875 0 
Q 17.828125 0 11.671875 7.65625 
Q 5.515625 15.328125 5.515625 27.984375 
Q 5.515625 40.671875 11.671875 48.328125 
Q 17.828125 56 27.875 56 
Q 33.9375 56 38.28125 53.609375 
Q 42.625 51.21875 45.40625 46.390625 
L 45.40625 54.6875 
L 54.390625 54.6875 
z
" id="DejaVuSans-103"/>
      <path d="M 12.40625 8.296875 
L 28.515625 8.296875 
L 28.515625 63.921875 
L 10.984375 60.40625 
L 10.984375 69.390625 
L 28.421875 72.90625 
L 38.28125 72.90625 
L 38.28125 8.296875 
L 54.390625 8.296875 
L 54.390625 0 
L 12.40625 0 
z
" id="DejaVuSans-49"/>
      <path d="M 31 75.875 
Q 24.46875 64.65625 21.28125 53.65625 
Q 18.109375 42.671875 18.109375 31.390625 
Q 18.109375 20.125 21.3125 9.0625 
Q 24.515625 -2 31 -13.1875 
L 23.1875 -13.1875 
Q 15.875 -1.703125 12.234375 9.375 
Q 8.59375 20.453125 8.59375 31.390625 
Q 8.59375 42.28125 12.203125 53.3125 
Q 15.828125 64.359375 23.1875 75.875 
z
" id="DejaVuSans-40"/>
      <path d="M 51.125 44 
L 36.921875 44 
L 32.8125 27.6875 
L 47.125 27.6875 
z
M 43.796875 71.78125 
L 38.71875 51.515625 
L 52.984375 51.515625 
L 58.109375 71.78125 
L 65.921875 71.78125 
L 60.890625 51.515625 
L 76.125 51.515625 
L 76.125 44 
L 58.984375 44 
L 54.984375 27.6875 
L 70.515625 27.6875 
L 70.515625 20.21875 
L 53.078125 20.21875 
L 48 0 
L 40.1875 0 
L 45.21875 20.21875 
L 30.90625 20.21875 
L 25.875 0 
L 18.015625 0 
L 23.09375 20.21875 
L 7.71875 20.21875 
L 7.71875 27.6875 
L 24.90625 27.6875 
L 29 44 
L 13.28125 44 
L 13.28125 51.515625 
L 30.90625 51.515625 
L 35.890625 71.78125 
z
" id="DejaVuSans-35"/>
      <path id="DejaVuSans-32"/>
      <path d="M 37.109375 75.984375 
L 37.109375 68.5 
L 28.515625 68.5 
Q 23.6875 68.5 21.796875 66.546875 
Q 19.921875 64.59375 19.921875 59.515625 
L 19.921875 54.6875 
L 34.71875 54.6875 
L 34.71875 47.703125 
L 19.921875 47.703125 
L 19.921875 0 
L 10.890625 0 
L 10.890625 47.703125 
L 2.296875 47.703125 
L 2.296875 54.6875 
L 10.890625 54.6875 
L 10.890625 58.5 
Q 10.890625 67.625 15.140625 71.796875 
Q 19.390625 75.984375 28.609375 75.984375 
z
" id="DejaVuSans-102"/>
      <path d="M 4.890625 31.390625 
L 31.203125 31.390625 
L 31.203125 23.390625 
L 4.890625 23.390625 
z
" id="DejaVuSans-45"/>
      <path d="M 56.203125 29.59375 
L 56.203125 25.203125 
L 14.890625 25.203125 
Q 15.484375 15.921875 20.484375 11.0625 
Q 25.484375 6.203125 34.421875 6.203125 
Q 39.59375 6.203125 44.453125 7.46875 
Q 49.3125 8.734375 54.109375 11.28125 
L 54.109375 2.78125 
Q 49.265625 0.734375 44.1875 -0.34375 
Q 39.109375 -1.421875 33.890625 -1.421875 
Q 20.796875 -1.421875 13.15625 6.1875 
Q 5.515625 13.8125 5.515625 26.8125 
Q 5.515625 40.234375 12.765625 48.109375 
Q 20.015625 56 32.328125 56 
Q 43.359375 56 49.78125 48.890625 
Q 56.203125 41.796875 56.203125 29.59375 
z
M 47.21875 32.234375 
Q 47.125 39.59375 43.09375 43.984375 
Q 39.0625 48.390625 32.421875 48.390625 
Q 24.90625 48.390625 20.390625 44.140625 
Q 15.875 39.890625 15.1875 32.171875 
z
" id="DejaVuSans-101"/>
      <path d="M 2.984375 54.6875 
L 12.5 54.6875 
L 29.59375 8.796875 
L 46.6875 54.6875 
L 56.203125 54.6875 
L 35.6875 0 
L 23.484375 0 
z
" id="DejaVuSans-118"/>
      <path d="M 34.28125 27.484375 
Q 23.390625 27.484375 19.1875 25 
Q 14.984375 22.515625 14.984375 16.5 
Q 14.984375 11.71875 18.140625 8.90625 
Q 21.296875 6.109375 26.703125 6.109375 
Q 34.1875 6.109375 38.703125 11.40625 
Q 43.21875 16.703125 43.21875 25.484375 
L 43.21875 27.484375 
z
M 52.203125 31.203125 
L 52.203125 0 
L 43.21875 0 
L 43.21875 8.296875 
Q 40.140625 3.328125 35.546875 0.953125 
Q 30.953125 -1.421875 24.3125 -1.421875 
Q 15.921875 -1.421875 10.953125 3.296875 
Q 6 8.015625 6 15.921875 
Q 6 25.140625 12.171875 29.828125 
Q 18.359375 34.515625 30.609375 34.515625 
L 43.21875 34.515625 
L 43.21875 35.40625 
Q 43.21875 41.609375 39.140625 45 
Q 35.0625 48.390625 27.6875 48.390625 
Q 23 48.390625 18.546875 47.265625 
Q 14.109375 46.140625 10.015625 43.890625 
L 10.015625 52.203125 
Q 14.9375 54.109375 19.578125 55.046875 
Q 24.21875 56 28.609375 56 
Q 40.484375 56 46.34375 49.84375 
Q 52.203125 43.703125 52.203125 31.203125 
z
" id="DejaVuSans-97"/>
      <path d="M 44.28125 53.078125 
L 44.28125 44.578125 
Q 40.484375 46.53125 36.375 47.5 
Q 32.28125 48.484375 27.875 48.484375 
Q 21.1875 48.484375 17.84375 46.4375 
Q 14.5 44.390625 14.5 40.28125 
Q 14.5 37.15625 16.890625 35.375 
Q 19.28125 33.59375 26.515625 31.984375 
L 29.59375 31.296875 
Q 39.15625 29.25 43.1875 25.515625 
Q 47.21875 21.78125 47.21875 15.09375 
Q 47.21875 7.46875 41.1875 3.015625 
Q 35.15625 -1.421875 24.609375 -1.421875 
Q 20.21875 -1.421875 15.453125 -0.5625 
Q 10.6875 0.296875 5.421875 2 
L 5.421875 11.28125 
Q 10.40625 8.6875 15.234375 7.390625 
Q 20.0625 6.109375 24.8125 6.109375 
Q 31.15625 6.109375 34.5625 8.28125 
Q 37.984375 10.453125 37.984375 14.40625 
Q 37.984375 18.0625 35.515625 20.015625 
Q 33.0625 21.96875 24.703125 23.78125 
L 21.578125 24.515625 
Q 13.234375 26.265625 9.515625 29.90625 
Q 5.8125 33.546875 5.8125 39.890625 
Q 5.8125 47.609375 11.28125 51.796875 
Q 16.75 56 26.8125 56 
Q 31.78125 56 36.171875 55.265625 
Q 40.578125 54.546875 44.28125 53.078125 
z
" id="DejaVuSans-115"/>
      <path d="M 25.390625 72.90625 
L 33.6875 72.90625 
L 8.296875 -9.28125 
L 0 -9.28125 
z
" id="DejaVuSans-47"/>
      <path d="M 45.40625 46.390625 
L 45.40625 75.984375 
L 54.390625 75.984375 
L 54.390625 0 
L 45.40625 0 
L 45.40625 8.203125 
Q 42.578125 3.328125 38.25 0.953125 
Q 33.9375 -1.421875 27.875 -1.421875 
Q 17.96875 -1.421875 11.734375 6.484375 
Q 5.515625 14.40625 5.515625 27.296875 
Q 5.515625 40.1875 11.734375 48.09375 
Q 17.96875 56 27.875 56 
Q 33.9375 56 38.25 53.625 
Q 42.578125 51.265625 45.40625 46.390625 
z
M 14.796875 27.296875 
Q 14.796875 17.390625 18.875 11.75 
Q 22.953125 6.109375 30.078125 6.109375 
Q 37.203125 6.109375 41.296875 11.75 
Q 45.40625 17.390625 45.40625 27.296875 
Q 45.40625 37.203125 41.296875 42.84375 
Q 37.203125 48.484375 30.078125 48.484375 
Q 22.953125 48.484375 18.875 42.84375 
Q 14.796875 37.203125 14.796875 27.296875 
z
" id="DejaVuSans-100"/>
      <path d="M 9.421875 54.6875 
L 18.40625 54.6875 
L 18.40625 0 
L 9.421875 0 
z
M 9.421875 75.984375 
L 18.40625 75.984375 
L 18.40625 64.59375 
L 9.421875 64.59375 
z
" id="DejaVuSans-105"/>
      <path d="M 52 44.1875 
Q 55.375 50.25 60.0625 53.125 
Q 64.75 56 71.09375 56 
Q 79.640625 56 84.28125 50.015625 
Q 88.921875 44.046875 88.921875 33.015625 
L 88.921875 0 
L 79.890625 0 
L 79.890625 32.71875 
Q 79.890625 40.578125 77.09375 44.375 
Q 74.3125 48.1875 68.609375 48.1875 
Q 61.625 48.1875 57.5625 43.546875 
Q 53.515625 38.921875 53.515625 30.90625 
L 53.515625 0 
L 44.484375 0 
L 44.484375 32.71875 
Q 44.484375 40.625 41.703125 44.40625 
Q 38.921875 48.1875 33.109375 48.1875 
Q 26.21875 48.1875 22.15625 43.53125 
Q 18.109375 38.875 18.109375 30.90625 
L 18.109375 0 
L 9.078125 0 
L 9.078125 54.6875 
L 18.109375 54.6875 
L 18.109375 46.1875 
Q 21.1875 51.21875 25.484375 53.609375 
Q 29.78125 56 35.6875 56 
Q 41.65625 56 45.828125 52.96875 
Q 50 49.953125 52 44.1875 
z
" id="DejaVuSans-109"/>
      <path d="M 54.890625 33.015625 
L 54.890625 0 
L 45.90625 0 
L 45.90625 32.71875 
Q 45.90625 40.484375 42.875 44.328125 
Q 39.84375 48.1875 33.796875 48.1875 
Q 26.515625 48.1875 22.3125 43.546875 
Q 18.109375 38.921875 18.109375 30.90625 
L 18.109375 0 
L 9.078125 0 
L 9.078125 54.6875 
L 18.109375 54.6875 
L 18.109375 46.1875 
Q 21.34375 51.125 25.703125 53.5625 
Q 30.078125 56 35.796875 56 
Q 45.21875 56 50.046875 50.171875 
Q 54.890625 44.34375 54.890625 33.015625 
z
" id="DejaVuSans-110"/>
      <path d="M 8.015625 75.875 
L 15.828125 75.875 
Q 23.140625 64.359375 26.78125 53.3125 
Q 30.421875 42.28125 30.421875 31.390625 
Q 30.421875 20.453125 26.78125 9.375 
Q 23.140625 -1.703125 15.828125 -13.1875 
L 8.015625 -13.1875 
Q 14.5 -2 17.703125 9.0625 
Q 20.90625 20.125 20.90625 31.390625 
Q 20.90625 42.671875 17.703125 53.65625 
Q 14.5 64.65625 8.015625 75.875 
z
" id="DejaVuSans-41"/>
     </defs>
     <g transform="translate(77.303219 342.217594)scale(0.17 -0.17)">
      <use xlink:href="#DejaVuSans-108"/>
      <use x="27.783203" xlink:href="#DejaVuSans-111"/>
      <use x="88.964844" xlink:href="#DejaVuSans-103"/>
      <use x="152.441406" xlink:href="#DejaVuSans-49"/>
      <use x="216.064453" xlink:href="#DejaVuSans-48"/>
      <use x="279.6875" xlink:href="#DejaVuSans-40"/>
      <use x="318.701172" xlink:href="#DejaVuSans-35"/>
      <use x="402.490234" xlink:href="#DejaVuSans-32"/>
      <use x="434.277344" xlink:href="#DejaVuSans-102"/>
      <use x="469.404297" xlink:href="#DejaVuSans-45"/>
      <use x="505.488281" xlink:href="#DejaVuSans-101"/>
      <use x="567.011719" xlink:href="#DejaVuSans-118"/>
      <use x="626.191406" xlink:href="#DejaVuSans-97"/>
      <use x="687.470703" xlink:href="#DejaVuSans-108"/>
      <use x="715.253906" xlink:href="#DejaVuSans-115"/>
      <use x="767.353516" xlink:href="#DejaVuSans-32"/>
      <use x="799.140625" xlink:href="#DejaVuSans-47"/>
      <use x="832.832031" xlink:href="#DejaVuSans-32"/>
      <use x="864.619141" xlink:href="#DejaVuSans-100"/>
      <use x="928.095703" xlink:href="#DejaVuSans-105"/>
      <use x="955.878906" xlink:href="#DejaVuSans-109"/>
      <use x="1053.291016" xlink:href="#DejaVuSans-101"/>
      <use x="1114.814453" xlink:href="#DejaVuSans-110"/>
      <use x="1178.193359" xlink:href="#DejaVuSans-115"/>
      <use x="1230.292969" xlink:href="#DejaVuSans-105"/>
      <use x="1258.076172" xlink:href="#DejaVuSans-111"/>
      <use x="1319.257812" xlink:href="#DejaVuSans-110"/>
      <use x="1382.636719" xlink:href="#DejaVuSans-41"/>
     </g>
    </g>
   </g>
   <g id="matplotlib.axis_2">
    <g id="ytick_1">
     <g id="line2d_25">
      <path clip-path="url(#p7db1181c5b)" d="M 57.6 298.944 
L 338.688 298.944 
" style="fill:none;stroke:#b0b0b0;stroke-linecap:square;stroke-width:0.8;"/>
     </g>
     <g id="line2d_26">
      <defs>
       <path d="M 0 0 
L -3.5 0 
" id="m380561171e" style="stroke:#000000;stroke-width:0.8;"/>
      </defs>
      <g>
       <use style="stroke:#000000;stroke-width:0.8;" x="57.6" xlink:href="#m380561171e" y="298.944"/>
      </g>
     </g>
     <g id="text_6">
      <!-- 0.0 -->
      <defs>
       <path d="M 10.6875 12.40625 
L 21 12.40625 
L 21 0 
L 10.6875 0 
z
" id="DejaVuSans-46"/>
      </defs>
      <g transform="translate(25.155 305.02275)scale(0.16 -0.16)">
       <use xlink:href="#DejaVuSans-48"/>
       <use x="63.623047" xlink:href="#DejaVuSans-46"/>
       <use x="95.410156" xlink:href="#DejaVuSans-48"/>
      </g>
     </g>
    </g>
    <g id="ytick_2">
     <g id="line2d_27">
      <path clip-path="url(#p7db1181c5b)" d="M 57.6 245.22202 
L 338.688 245.22202 
" style="fill:none;stroke:#b0b0b0;stroke-linecap:square;stroke-width:0.8;"/>
     </g>
     <g id="line2d_28">
      <g>
       <use style="stroke:#000000;stroke-width:0.8;" x="57.6" xlink:href="#m380561171e" y="245.22202"/>
      </g>
     </g>
     <g id="text_7">
      <!-- 0.2 -->
      <g transform="translate(25.155 251.30077)scale(0.16 -0.16)">
       <use xlink:href="#DejaVuSans-48"/>
       <use x="63.623047" xlink:href="#DejaVuSans-46"/>
       <use x="95.410156" xlink:href="#DejaVuSans-50"/>
      </g>
     </g>
    </g>
    <g id="ytick_3">
     <g id="line2d_29">
      <path clip-path="url(#p7db1181c5b)" d="M 57.6 191.50004 
L 338.688 191.50004 
" style="fill:none;stroke:#b0b0b0;stroke-linecap:square;stroke-width:0.8;"/>
     </g>
     <g id="line2d_30">
      <g>
       <use style="stroke:#000000;stroke-width:0.8;" x="57.6" xlink:href="#m380561171e" y="191.50004"/>
      </g>
     </g>
     <g id="text_8">
      <!-- 0.4 -->
      <g transform="translate(25.155 197.57879)scale(0.16 -0.16)">
       <use xlink:href="#DejaVuSans-48"/>
       <use x="63.623047" xlink:href="#DejaVuSans-46"/>
       <use x="95.410156" xlink:href="#DejaVuSans-52"/>
      </g>
     </g>
    </g>
    <g id="ytick_4">
     <g id="line2d_31">
      <path clip-path="url(#p7db1181c5b)" d="M 57.6 137.778059 
L 338.688 137.778059 
" style="fill:none;stroke:#b0b0b0;stroke-linecap:square;stroke-width:0.8;"/>
     </g>
     <g id="line2d_32">
      <g>
       <use style="stroke:#000000;stroke-width:0.8;" x="57.6" xlink:href="#m380561171e" y="137.778059"/>
      </g>
     </g>
     <g id="text_9">
      <!-- 0.6 -->
      <g transform="translate(25.155 143.856809)scale(0.16 -0.16)">
       <use xlink:href="#DejaVuSans-48"/>
       <use x="63.623047" xlink:href="#DejaVuSans-46"/>
       <use x="95.410156" xlink:href="#DejaVuSans-54"/>
      </g>
     </g>
    </g>
    <g id="ytick_5">
     <g id="line2d_33">
      <path clip-path="url(#p7db1181c5b)" d="M 57.6 84.056079 
L 338.688 84.056079 
" style="fill:none;stroke:#b0b0b0;stroke-linecap:square;stroke-width:0.8;"/>
     </g>
     <g id="line2d_34">
      <g>
       <use style="stroke:#000000;stroke-width:0.8;" x="57.6" xlink:href="#m380561171e" y="84.056079"/>
      </g>
     </g>
     <g id="text_10">
      <!-- 0.8 -->
      <defs>
       <path d="M 31.78125 34.625 
Q 24.75 34.625 20.71875 30.859375 
Q 16.703125 27.09375 16.703125 20.515625 
Q 16.703125 13.921875 20.71875 10.15625 
Q 24.75 6.390625 31.78125 6.390625 
Q 38.8125 6.390625 42.859375 10.171875 
Q 46.921875 13.96875 46.921875 20.515625 
Q 46.921875 27.09375 42.890625 30.859375 
Q 38.875 34.625 31.78125 34.625 
z
M 21.921875 38.8125 
Q 15.578125 40.375 12.03125 44.71875 
Q 8.5 49.078125 8.5 55.328125 
Q 8.5 64.0625 14.71875 69.140625 
Q 20.953125 74.21875 31.78125 74.21875 
Q 42.671875 74.21875 48.875 69.140625 
Q 55.078125 64.0625 55.078125 55.328125 
Q 55.078125 49.078125 51.53125 44.71875 
Q 48 40.375 41.703125 38.8125 
Q 48.828125 37.15625 52.796875 32.3125 
Q 56.78125 27.484375 56.78125 20.515625 
Q 56.78125 9.90625 50.3125 4.234375 
Q 43.84375 -1.421875 31.78125 -1.421875 
Q 19.734375 -1.421875 13.25 4.234375 
Q 6.78125 9.90625 6.78125 20.515625 
Q 6.78125 27.484375 10.78125 32.3125 
Q 14.796875 37.15625 21.921875 38.8125 
z
M 18.3125 54.390625 
Q 18.3125 48.734375 21.84375 45.5625 
Q 25.390625 42.390625 31.78125 42.390625 
Q 38.140625 42.390625 41.71875 45.5625 
Q 45.3125 48.734375 45.3125 54.390625 
Q 45.3125 60.0625 41.71875 63.234375 
Q 38.140625 66.40625 31.78125 66.40625 
Q 25.390625 66.40625 21.84375 63.234375 
Q 18.3125 60.0625 18.3125 54.390625 
z
" id="DejaVuSans-56"/>
      </defs>
      <g transform="translate(25.155 90.134829)scale(0.16 -0.16)">
       <use xlink:href="#DejaVuSans-48"/>
       <use x="63.623047" xlink:href="#DejaVuSans-46"/>
       <use x="95.410156" xlink:href="#DejaVuSans-56"/>
      </g>
     </g>
    </g>
    <g id="ytick_6">
     <g id="line2d_35">
      <path clip-path="url(#p7db1181c5b)" d="M 57.6 30.334099 
L 338.688 30.334099 
" style="fill:none;stroke:#b0b0b0;stroke-linecap:square;stroke-width:0.8;"/>
     </g>
     <g id="line2d_36">
      <g>
       <use style="stroke:#000000;stroke-width:0.8;" x="57.6" xlink:href="#m380561171e" y="30.334099"/>
      </g>
     </g>
     <g id="text_11">
      <!-- 1.0 -->
      <g transform="translate(25.155 36.412849)scale(0.16 -0.16)">
       <use xlink:href="#DejaVuSans-49"/>
       <use x="63.623047" xlink:href="#DejaVuSans-46"/>
       <use x="95.410156" xlink:href="#DejaVuSans-48"/>
      </g>
     </g>
    </g>
    <g id="text_12">
     <!-- Fraction of function,target pairs -->
     <defs>
      <path d="M 9.8125 72.90625 
L 51.703125 72.90625 
L 51.703125 64.59375 
L 19.671875 64.59375 
L 19.671875 43.109375 
L 48.578125 43.109375 
L 48.578125 34.8125 
L 19.671875 34.8125 
L 19.671875 0 
L 9.8125 0 
z
" id="DejaVuSans-70"/>
      <path d="M 41.109375 46.296875 
Q 39.59375 47.171875 37.8125 47.578125 
Q 36.03125 48 33.890625 48 
Q 26.265625 48 22.1875 43.046875 
Q 18.109375 38.09375 18.109375 28.8125 
L 18.109375 0 
L 9.078125 0 
L 9.078125 54.6875 
L 18.109375 54.6875 
L 18.109375 46.1875 
Q 20.953125 51.171875 25.484375 53.578125 
Q 30.03125 56 36.53125 56 
Q 37.453125 56 38.578125 55.875 
Q 39.703125 55.765625 41.0625 55.515625 
z
" id="DejaVuSans-114"/>
      <path d="M 48.78125 52.59375 
L 48.78125 44.1875 
Q 44.96875 46.296875 41.140625 47.34375 
Q 37.3125 48.390625 33.40625 48.390625 
Q 24.65625 48.390625 19.8125 42.84375 
Q 14.984375 37.3125 14.984375 27.296875 
Q 14.984375 17.28125 19.8125 11.734375 
Q 24.65625 6.203125 33.40625 6.203125 
Q 37.3125 6.203125 41.140625 7.25 
Q 44.96875 8.296875 48.78125 10.40625 
L 48.78125 2.09375 
Q 45.015625 0.34375 40.984375 -0.53125 
Q 36.96875 -1.421875 32.421875 -1.421875 
Q 20.0625 -1.421875 12.78125 6.34375 
Q 5.515625 14.109375 5.515625 27.296875 
Q 5.515625 40.671875 12.859375 48.328125 
Q 20.21875 56 33.015625 56 
Q 37.15625 56 41.109375 55.140625 
Q 45.0625 54.296875 48.78125 52.59375 
z
" id="DejaVuSans-99"/>
      <path d="M 18.3125 70.21875 
L 18.3125 54.6875 
L 36.8125 54.6875 
L 36.8125 47.703125 
L 18.3125 47.703125 
L 18.3125 18.015625 
Q 18.3125 11.328125 20.140625 9.421875 
Q 21.96875 7.515625 27.59375 7.515625 
L 36.8125 7.515625 
L 36.8125 0 
L 27.59375 0 
Q 17.1875 0 13.234375 3.875 
Q 9.28125 7.765625 9.28125 18.015625 
L 9.28125 47.703125 
L 2.6875 47.703125 
L 2.6875 54.6875 
L 9.28125 54.6875 
L 9.28125 70.21875 
z
" id="DejaVuSans-116"/>
      <path d="M 8.5 21.578125 
L 8.5 54.6875 
L 17.484375 54.6875 
L 17.484375 21.921875 
Q 17.484375 14.15625 20.5 10.265625 
Q 23.53125 6.390625 29.59375 6.390625 
Q 36.859375 6.390625 41.078125 11.03125 
Q 45.3125 15.671875 45.3125 23.6875 
L 45.3125 54.6875 
L 54.296875 54.6875 
L 54.296875 0 
L 45.3125 0 
L 45.3125 8.40625 
Q 42.046875 3.421875 37.71875 1 
Q 33.40625 -1.421875 27.6875 -1.421875 
Q 18.265625 -1.421875 13.375 4.4375 
Q 8.5 10.296875 8.5 21.578125 
z
M 31.109375 56 
z
" id="DejaVuSans-117"/>
      <path d="M 11.71875 12.40625 
L 22.015625 12.40625 
L 22.015625 4 
L 14.015625 -11.625 
L 7.71875 -11.625 
L 11.71875 4 
z
" id="DejaVuSans-44"/>
      <path d="M 18.109375 8.203125 
L 18.109375 -20.796875 
L 9.078125 -20.796875 
L 9.078125 54.6875 
L 18.109375 54.6875 
L 18.109375 46.390625 
Q 20.953125 51.265625 25.265625 53.625 
Q 29.59375 56 35.59375 56 
Q 45.5625 56 51.78125 48.09375 
Q 58.015625 40.1875 58.015625 27.296875 
Q 58.015625 14.40625 51.78125 6.484375 
Q 45.5625 -1.421875 35.59375 -1.421875 
Q 29.59375 -1.421875 25.265625 0.953125 
Q 20.953125 3.328125 18.109375 8.203125 
z
M 48.6875 27.296875 
Q 48.6875 37.203125 44.609375 42.84375 
Q 40.53125 48.484375 33.40625 48.484375 
Q 26.265625 48.484375 22.1875 42.84375 
Q 18.109375 37.203125 18.109375 27.296875 
Q 18.109375 17.390625 22.1875 11.75 
Q 26.265625 6.109375 33.40625 6.109375 
Q 40.53125 6.109375 44.609375 11.75 
Q 48.6875 17.390625 48.6875 27.296875 
z
" id="DejaVuSans-112"/>
     </defs>
     <g transform="translate(17.619531 298.435375)rotate(-90)scale(0.17 -0.17)">
      <use xlink:href="#DejaVuSans-70"/>
      <use x="57.410156" xlink:href="#DejaVuSans-114"/>
      <use x="98.523438" xlink:href="#DejaVuSans-97"/>
      <use x="159.802734" xlink:href="#DejaVuSans-99"/>
      <use x="214.783203" xlink:href="#DejaVuSans-116"/>
      <use x="253.992188" xlink:href="#DejaVuSans-105"/>
      <use x="281.775391" xlink:href="#DejaVuSans-111"/>
      <use x="342.957031" xlink:href="#DejaVuSans-110"/>
      <use x="406.335938" xlink:href="#DejaVuSans-32"/>
      <use x="438.123047" xlink:href="#DejaVuSans-111"/>
      <use x="499.304688" xlink:href="#DejaVuSans-102"/>
      <use x="534.509766" xlink:href="#DejaVuSans-32"/>
      <use x="566.296875" xlink:href="#DejaVuSans-102"/>
      <use x="601.501953" xlink:href="#DejaVuSans-117"/>
      <use x="664.880859" xlink:href="#DejaVuSans-110"/>
      <use x="728.259766" xlink:href="#DejaVuSans-99"/>
      <use x="783.240234" xlink:href="#DejaVuSans-116"/>
      <use x="822.449219" xlink:href="#DejaVuSans-105"/>
      <use x="850.232422" xlink:href="#DejaVuSans-111"/>
      <use x="911.414062" xlink:href="#DejaVuSans-110"/>
      <use x="974.792969" xlink:href="#DejaVuSans-44"/>
      <use x="1006.580078" xlink:href="#DejaVuSans-116"/>
      <use x="1045.789062" xlink:href="#DejaVuSans-97"/>
      <use x="1107.068359" xlink:href="#DejaVuSans-114"/>
      <use x="1148.166016" xlink:href="#DejaVuSans-103"/>
      <use x="1211.642578" xlink:href="#DejaVuSans-101"/>
      <use x="1273.166016" xlink:href="#DejaVuSans-116"/>
      <use x="1312.375" xlink:href="#DejaVuSans-32"/>
      <use x="1344.162109" xlink:href="#DejaVuSans-112"/>
      <use x="1407.638672" xlink:href="#DejaVuSans-97"/>
      <use x="1468.917969" xlink:href="#DejaVuSans-105"/>
      <use x="1496.701172" xlink:href="#DejaVuSans-114"/>
      <use x="1537.814453" xlink:href="#DejaVuSans-115"/>
     </g>
    </g>
   </g>
   <g id="line2d_37">
    <defs>
     <path d="M 0 1.5 
C 0.397805 1.5 0.77937 1.341951 1.06066 1.06066 
C 1.341951 0.77937 1.5 0.397805 1.5 0 
C 1.5 -0.397805 1.341951 -0.77937 1.06066 -1.06066 
C 0.77937 -1.341951 0.397805 -1.5 0 -1.5 
C -0.397805 -1.5 -0.77937 -1.341951 -1.06066 -1.06066 
C -1.341951 -0.77937 -1.5 -0.397805 -1.5 0 
C -1.5 0.397805 -1.341951 0.77937 -1.06066 1.06066 
C -0.77937 1.341951 -0.397805 1.5 0 1.5 
z
" id="m6723230ce1" style="stroke:#000080;"/>
    </defs>
    <g>
     <use style="fill:#000080;stroke:#000080;" x="307.999087" xlink:href="#m6723230ce1" y="30.334099"/>
     <use style="fill:#000080;stroke:#000080;" x="307.999087" xlink:href="#m6723230ce1" y="30.334099"/>
    </g>
   </g>
   <g id="line2d_38">
    <path d="M 29.53256 298.944 
L 29.53256 297.890628 
L 48.691568 297.890628 
L 48.691568 297.363942 
L 53.708537 297.363942 
L 53.708537 296.31057 
L 75.555822 296.31057 
L 75.555822 295.783884 
L 76.759008 295.783884 
L 76.759008 295.257197 
L 86.351421 295.257197 
L 86.351421 294.730511 
L 88.846997 294.730511 
L 88.846997 293.677139 
L 92.026554 293.677139 
L 92.026554 293.150453 
L 92.504372 293.150453 
L 92.504372 292.623767 
L 92.969447 292.623767 
L 92.969447 292.097081 
L 93.863965 292.097081 
L 93.863965 291.570395 
L 95.526106 291.570395 
L 95.526106 290.517023 
L 99.097574 290.517023 
L 99.097574 289.990337 
L 100.934985 289.990337 
L 100.934985 289.463651 
L 101.785851 289.463651 
L 101.785851 288.936964 
L 104.592361 288.936964 
L 104.592361 287.883592 
L 105.057436 287.883592 
L 105.057436 287.356906 
L 105.732589 287.356906 
L 105.732589 286.303534 
L 106.593963 286.303534 
L 106.593963 285.776848 
L 107.811151 285.776848 
L 107.811151 285.250162 
L 108.764355 285.250162 
L 108.764355 284.723476 
L 114.418861 284.723476 
L 114.418861 284.19679 
L 116.443076 284.19679 
L 116.443076 283.670104 
L 116.914437 283.670104 
L 116.914437 282.616732 
L 117.030313 282.616732 
L 117.030313 282.090045 
L 117.486268 282.090045 
L 117.486268 281.563359 
L 117.930605 281.563359 
L 117.930605 281.036673 
L 118.148599 281.036673 
L 118.256582 279.983301 
L 120.759333 279.983301 
L 120.759333 279.456615 
L 121.84399 279.456615 
L 121.84399 278.929929 
L 122.104932 278.929929 
L 122.104932 277.876557 
L 123.111324 277.876557 
L 123.111324 276.823185 
L 124.817858 276.823185 
L 124.891598 275.769812 
L 125.612332 275.769812 
L 125.612332 275.243126 
L 126.439646 275.243126 
L 126.439646 274.71644 
L 126.573795 274.71644 
L 126.573795 274.189754 
L 129.347769 274.189754 
L 129.347769 273.663068 
L 130.018593 273.663068 
L 130.018593 272.609696 
L 130.505303 272.609696 
L 130.505303 271.556324 
L 132.036046 271.556324 
L 132.036046 271.029638 
L 134.192921 271.029638 
L 134.192921 270.502952 
L 134.450015 270.502952 
L 134.450015 268.922893 
L 135.44209 268.922893 
L 135.44209 268.396207 
L 136.227776 268.396207 
L 136.227776 267.869521 
L 136.86886 267.869521 
L 136.86886 267.342835 
L 137.053015 267.342835 
L 137.053015 266.816149 
L 142.486301 266.816149 
L 142.486301 266.289463 
L 143.828447 266.289463 
L 143.828447 265.762777 
L 148.826773 265.762777 
L 148.826773 265.236091 
L 162.669913 265.236091 
L 162.669913 264.709405 
L 162.962595 264.709405 
L 162.962595 263.129347 
L 163.851722 263.129347 
L 163.851722 262.60266 
L 164.607388 262.60266 
L 164.607388 262.075974 
L 164.891812 262.075974 
L 164.891812 261.549288 
L 165.076435 261.549288 
L 165.14974 260.495916 
L 165.547501 260.495916 
L 165.547501 259.96923 
L 167.46837 259.96923 
L 167.46837 259.442544 
L 167.935973 259.442544 
L 167.935973 258.915858 
L 168.367051 258.915858 
L 168.367051 258.389172 
L 176.931477 258.389172 
L 176.931477 257.3358 
L 177.667636 257.3358 
L 177.667636 256.809114 
L 178.0872 256.809114 
L 178.0872 256.282427 
L 178.880573 256.282427 
L 178.913829 255.229055 
L 179.272262 255.229055 
L 179.285276 254.175683 
L 179.414889 254.175683 
L 179.414889 253.648997 
L 179.591547 253.648997 
L 179.591547 253.122311 
L 179.801203 253.122311 
L 179.801203 252.595625 
L 179.939585 252.595625 
L 179.939585 252.068939 
L 180.169872 252.068939 
L 180.169872 251.542253 
L 180.296166 251.542253 
L 180.296166 251.015567 
L 180.445913 251.015567 
L 180.494532 249.962195 
L 180.606449 249.962195 
L 180.687667 248.382136 
L 180.747586 248.382136 
L 180.813259 247.328764 
L 180.896488 247.328764 
L 180.979321 245.748706 
L 181.085245 245.748706 
L 181.167189 243.641962 
L 181.327037 243.641962 
L 181.355943 242.588589 
L 181.631034 242.588589 
L 181.656603 241.008531 
L 181.940999 241.008531 
L 182.030146 238.375101 
L 182.292147 238.375101 
L 182.324963 237.321729 
L 182.41761 237.321729 
L 182.509766 234.161612 
L 182.609505 234.161612 
L 182.609505 233.634926 
L 182.92119 233.634926 
L 182.92119 233.10824 
L 183.034356 233.10824 
L 183.102427 232.054868 
L 183.183243 232.054868 
L 183.193644 231.001496 
L 183.307643 231.001496 
L 183.338605 229.948123 
L 183.665489 229.948123 
L 183.751298 228.368065 
L 183.801577 228.368065 
L 183.804087 226.788007 
L 183.966477 226.788007 
L 183.966477 226.261321 
L 184.159369 226.261321 
L 184.159369 225.207949 
L 187.434578 225.207949 
L 187.434578 224.154577 
L 188.057226 224.154577 
L 188.057226 223.627891 
L 188.785252 223.627891 
L 188.785252 223.101204 
L 189.489536 223.101204 
L 189.49497 222.047832 
L 190.608699 222.047832 
L 190.608699 221.521146 
L 190.813084 221.521146 
L 190.813084 220.99446 
L 191.365132 220.99446 
L 191.365132 220.467774 
L 191.480264 220.467774 
L 191.480264 219.941088 
L 191.91128 219.941088 
L 191.91128 219.414402 
L 192.183505 219.414402 
L 192.225369 218.36103 
L 192.529336 218.36103 
L 192.61284 216.780971 
L 192.720047 216.780971 
L 192.825103 214.147541 
L 193.165899 214.147541 
L 193.165899 213.094169 
L 193.659216 213.094169 
L 193.71618 210.987425 
L 193.891592 210.987425 
L 193.898629 209.934052 
L 194.17639 209.934052 
L 194.248248 208.88068 
L 194.358223 208.88068 
L 194.44707 207.300622 
L 194.708241 207.300622 
L 194.708241 206.773936 
L 200.25012 206.773936 
L 200.25012 205.720564 
L 200.701685 205.720564 
L 200.701685 205.193878 
L 201.195637 205.193878 
L 201.195637 204.667192 
L 201.460277 204.667192 
L 201.56665 201.507075 
L 201.850749 201.507075 
L 201.933486 199.400331 
L 202.010531 199.400331 
L 202.070515 196.7669 
L 202.150465 196.7669 
L 202.214337 195.186842 
L 202.363912 195.186842 
L 202.425283 192.553412 
L 202.545667 192.553412 
L 202.574779 191.50004 
L 202.677137 191.50004 
L 202.778898 187.813237 
L 202.973133 187.813237 
L 202.973133 186.759865 
L 203.142055 186.759865 
L 203.252671 185.179807 
L 203.289662 185.179807 
L 203.396084 184.126434 
L 203.443356 184.126434 
L 203.536708 182.01969 
L 203.605387 182.01969 
L 203.66978 180.966318 
L 203.723527 180.966318 
L 203.725129 179.38626 
L 203.9345 179.38626 
L 204.044936 177.806202 
L 211.308847 177.806202 
L 211.308847 177.279515 
L 211.539582 177.279515 
L 211.539582 176.226143 
L 211.717743 176.226143 
L 211.795057 175.172771 
L 211.837358 175.172771 
L 211.837358 174.646085 
L 212.049328 174.646085 
L 212.055289 173.592713 
L 212.180512 173.592713 
L 212.274456 172.539341 
L 212.392761 172.539341 
L 212.397633 170.959282 
L 212.517528 170.959282 
L 212.518011 169.90591 
L 212.649091 169.90591 
L 212.649091 169.379224 
L 212.763937 169.379224 
L 212.803479 168.325852 
L 212.93905 168.325852 
L 213.025717 166.745794 
L 213.059982 166.745794 
L 213.059982 166.219108 
L 213.189392 166.219108 
L 213.298896 163.058991 
L 213.650106 163.058991 
L 213.712553 161.478933 
L 218.474143 161.478933 
L 218.474143 160.952247 
L 229.228785 160.952247 
L 229.228785 159.898875 
L 231.111003 159.898875 
L 231.111003 159.372189 
L 232.768571 159.372189 
L 232.768571 158.845503 
L 244.598927 158.845503 
L 244.598927 158.318817 
L 252.132506 158.318817 
L 252.132506 157.79213 
L 265.170044 157.79213 
L 265.18216 155.685386 
L 265.307806 155.685386 
L 265.307806 155.1587 
L 265.498038 155.1587 
L 265.608907 152.52527 
L 265.724204 152.52527 
L 265.807202 149.365153 
L 265.861717 149.365153 
L 265.970712 145.678351 
L 265.977277 145.678351 
L 266.082976 138.304745 
L 266.092256 138.304745 
L 266.1943 131.457826 
L 266.211624 131.457826 
L 266.304696 129.351082 
L 266.33396 129.351082 
L 266.397715 123.557535 
L 266.678728 123.557535 
L 266.750583 121.977477 
L 267.43211 121.977477 
L 267.447584 120.924105 
L 267.560362 120.924105 
L 267.576031 119.344047 
L 267.683424 119.344047 
L 267.754911 115.657244 
L 267.80282 115.657244 
L 267.809441 114.603872 
L 267.927295 114.603872 
L 268.03207 112.497128 
L 268.04626 112.497128 
L 268.061479 111.443755 
L 268.580453 111.443755 
L 268.580453 110.917069 
L 277.206321 110.917069 
L 277.206321 110.390383 
L 277.498465 110.390383 
L 277.608838 106.176895 
L 277.61819 106.176895 
L 277.701906 102.490092 
L 277.753067 102.490092 
L 277.838665 99.329976 
L 277.883512 99.329976 
L 277.981353 96.696545 
L 277.998084 96.696545 
L 278.087516 93.009743 
L 278.127942 93.009743 
L 278.203736 90.902998 
L 278.252265 90.902998 
L 278.295962 89.849626 
L 278.440217 89.849626 
L 278.506731 88.796254 
L 278.627912 88.796254 
L 278.627912 88.269568 
L 278.785893 88.269568 
L 278.892683 85.636137 
L 278.919091 85.636137 
L 278.995263 81.422649 
L 279.068251 81.422649 
L 279.177681 78.262532 
L 279.224928 78.262532 
L 279.229592 77.20916 
L 279.735907 77.20916 
L 279.735907 76.682474 
L 279.914977 76.682474 
L 279.914977 76.155788 
L 284.431321 76.155788 
L 284.431321 75.629102 
L 284.610543 75.629102 
L 284.610543 75.102416 
L 284.723263 75.102416 
L 284.831625 72.995672 
L 284.866887 72.995672 
L 284.926797 71.415613 
L 285.000898 71.415613 
L 285.099116 67.202125 
L 285.116363 67.202125 
L 285.219078 65.622066 
L 285.392749 65.622066 
L 285.488835 63.515322 
L 285.611336 63.515322 
L 285.669665 61.408578 
L 285.786474 61.408578 
L 285.786474 60.881892 
L 286.141201 60.881892 
L 286.24162 58.248461 
L 286.270989 58.248461 
L 286.283223 57.195089 
L 289.677724 57.195089 
L 289.731514 55.615031 
L 289.807178 55.615031 
L 289.807178 55.088345 
L 289.929201 55.088345 
L 289.997779 53.508287 
L 290.07073 53.508287 
L 290.146181 51.928228 
L 290.302268 51.928228 
L 290.387434 49.821484 
L 290.518775 49.821484 
L 290.549817 48.768112 
L 290.796809 48.768112 
L 290.847385 47.188054 
L 290.91546 47.188054 
L 290.91546 46.661368 
L 291.18688 46.661368 
L 291.18688 46.134681 
L 293.665152 46.134681 
L 293.665152 45.607995 
L 294.182709 45.607995 
L 294.241513 44.554623 
L 294.348122 44.554623 
L 294.348122 44.027937 
L 294.532591 44.027937 
L 294.611436 42.974565 
L 294.67348 42.974565 
L 294.67348 42.447879 
L 294.91988 42.447879 
L 294.91988 41.921193 
L 295.22616 41.921193 
L 295.228259 40.867821 
L 297.185952 40.867821 
L 297.185952 40.341135 
L 297.328295 40.341135 
L 297.33687 39.287762 
L 297.442236 39.287762 
L 297.442236 38.761076 
L 297.925075 38.761076 
L 297.983764 36.654332 
L 299.765967 36.654332 
L 299.873809 34.547588 
L 300.265401 34.547588 
L 300.266636 33.494215 
L 300.524711 33.494215 
L 300.524711 32.967529 
L 302.437278 32.967529 
L 302.437278 32.440843 
L 302.624581 32.440843 
L 302.624581 31.914157 
L 302.905289 31.914157 
L 302.905289 31.387471 
L 304.11514 31.387471 
L 304.11514 30.860785 
L 307.999087 30.860785 
L 307.999087 30.334099 
L 338.688 30.334099 
L 338.688 30.334099 
" style="fill:none;stroke:#000080;stroke-linecap:square;stroke-width:1.5;"/>
   </g>
   <g id="line2d_39">
    <defs>
     <path d="M 0 6 
C 1.591219 6 3.117479 5.367802 4.242641 4.242641 
C 5.367802 3.117479 6 1.591219 6 0 
C 6 -1.591219 5.367802 -3.117479 4.242641 -4.242641 
C 3.117479 -5.367802 1.591219 -6 0 -6 
C -1.591219 -6 -3.117479 -5.367802 -4.242641 -4.242641 
C -5.367802 -3.117479 -6 -1.591219 -6 0 
C -6 1.591219 -5.367802 3.117479 -4.242641 4.242641 
C -3.117479 5.367802 -1.591219 6 0 6 
z
" id="m9d9b2d727a" style="stroke:#000080;stroke-width:1.5;"/>
    </defs>
    <g>
     <use style="fill-opacity:0;stroke:#000080;stroke-width:1.5;" x="130.505303" xlink:href="#m9d9b2d727a" y="272.609696"/>
     <use style="fill-opacity:0;stroke:#000080;stroke-width:1.5;" x="192.825103" xlink:href="#m9d9b2d727a" y="215.200913"/>
     <use style="fill-opacity:0;stroke:#000080;stroke-width:1.5;" x="265.76686" xlink:href="#m9d9b2d727a" y="149.891839"/>
     <use style="fill-opacity:0;stroke:#000080;stroke-width:1.5;" x="284.723263" xlink:href="#m9d9b2d727a" y="74.57573"/>
     <use style="fill-opacity:0;stroke:#000080;stroke-width:1.5;" x="307.999087" xlink:href="#m9d9b2d727a" y="30.334099"/>
     <use style="fill-opacity:0;stroke:#000080;stroke-width:1.5;" x="338.688" xlink:href="#m9d9b2d727a" y="30.334099"/>
    </g>
   </g>
   <g id="line2d_40">
    <path style="fill:none;stroke:#000080;stroke-linecap:square;stroke-width:1.5;"/>
    <g/>
   </g>
   <g id="line2d_41">
    <path clip-path="url(#p7db1181c5b)" d="M 265.842018 149.365153 
" style="fill:none;stroke:#000080;stroke-linecap:square;stroke-width:1.5;"/>
    <defs>
     <path d="M -12 12 
L 12 -12 
M -12 -12 
L 12 12 
" id="m3e753d8cd9" style="stroke:#000080;"/>
    </defs>
    <g clip-path="url(#p7db1181c5b)">
     <use style="fill:#000080;stroke:#000080;" x="265.842018" xlink:href="#m3e753d8cd9" y="149.365153"/>
    </g>
   </g>
   <g id="line2d_42">
    <defs>
     <path d="M 0 1.5 
C 0.397805 1.5 0.77937 1.341951 1.06066 1.06066 
C 1.341951 0.77937 1.5 0.397805 1.5 0 
C 1.5 -0.397805 1.341951 -0.77937 1.06066 -1.06066 
C 0.77937 -1.341951 0.397805 -1.5 0 -1.5 
C -0.397805 -1.5 -0.77937 -1.341951 -1.06066 -1.06066 
C -1.341951 -0.77937 -1.5 -0.397805 -1.5 0 
C -1.5 0.397805 -1.341951 0.77937 -1.06066 1.06066 
C -0.77937 1.341951 -0.397805 1.5 0 1.5 
z
" id="m9ef6f2d64c" style="stroke:#ff0000;"/>
    </defs>
    <g>
     <use style="fill:#ff0000;stroke:#ff0000;" x="309.021068" xlink:href="#m9ef6f2d64c" y="30.334099"/>
     <use style="fill:#ff0000;stroke:#ff0000;" x="309.021068" xlink:href="#m9ef6f2d64c" y="30.334099"/>
    </g>
   </g>
   <g id="line2d_43">
    <path d="M 29.53256 298.944 
L 29.53256 297.890628 
L 60.779557 297.890628 
L 60.779557 296.837256 
L 65.796525 296.837256 
L 65.796525 295.783884 
L 67.850577 295.783884 
L 67.850577 295.257197 
L 71.35013 295.257197 
L 71.35013 294.730511 
L 77.884514 294.730511 
L 77.884514 294.203825 
L 78.941764 294.203825 
L 78.941764 293.677139 
L 80.881459 293.677139 
L 80.881459 293.150453 
L 81.775977 293.150453 
L 81.775977 291.043709 
L 82.626842 291.043709 
L 82.626842 289.990337 
L 83.438118 289.990337 
L 83.438118 288.936964 
L 84.213325 288.936964 
L 84.213325 288.410278 
L 87.009585 288.410278 
L 87.009585 286.83022 
L 88.846997 286.83022 
L 88.846997 286.303534 
L 89.418828 286.303534 
L 89.418828 285.776848 
L 89.972502 285.776848 
L 89.972502 285.250162 
L 92.026554 285.250162 
L 92.026554 284.723476 
L 94.294587 284.723476 
L 94.294587 284.19679 
L 95.526106 284.19679 
L 95.526106 283.670104 
L 96.301313 283.670104 
L 96.301313 283.143418 
L 98.43941 283.143418 
L 98.43941 282.616732 
L 100.040467 282.616732 
L 100.040467 281.036673 
L 101.785851 281.036673 
L 101.785851 280.509987 
L 102.597126 280.509987 
L 102.597126 279.983301 
L 106.168594 279.983301 
L 106.168594 279.456615 
L 108.764355 279.456615 
L 108.764355 278.929929 
L 111.346294 278.929929 
L 111.346294 278.403243 
L 112.877038 278.403243 
L 112.877038 277.876557 
L 113.311233 277.876557 
L 113.311233 277.349871 
L 114.284194 277.349871 
L 114.284194 276.823185 
L 117.486268 276.823185 
L 117.486268 276.296499 
L 117.820578 276.296499 
L 117.820578 275.769812 
L 120.093994 275.769812 
L 120.093994 275.243126 
L 121.128432 275.243126 
L 121.128432 274.71644 
L 122.018385 274.71644 
L 122.018385 274.189754 
L 123.829748 274.189754 
L 123.829748 273.663068 
L 124.062793 273.663068 
L 124.062793 273.136382 
L 124.965026 273.136382 
L 124.965026 272.609696 
L 125.752972 272.609696 
L 125.752972 272.08301 
L 127.293718 272.08301 
L 127.293718 271.556324 
L 129.175952 271.556324 
L 129.175952 271.029638 
L 129.290685 271.029638 
L 129.290685 270.502952 
L 129.742212 270.502952 
L 129.742212 269.449579 
L 130.45189 269.449579 
L 130.558552 268.396207 
L 130.978796 268.396207 
L 131.030622 267.342835 
L 132.084827 267.342835 
L 132.084827 266.816149 
L 132.326708 266.816149 
L 132.326708 266.289463 
L 132.847322 266.289463 
L 132.847322 265.762777 
L 134.236034 265.762777 
L 134.236034 265.236091 
L 135.721125 265.236091 
L 135.721125 264.709405 
L 138.661784 264.709405 
L 138.69516 263.656033 
L 151.308666 263.656033 
L 151.308666 263.129347 
L 154.385464 263.129347 
L 154.385464 262.60266 
L 155.0376 262.60266 
L 155.0376 262.075974 
L 156.040206 262.075974 
L 156.040206 261.549288 
L 156.92979 261.549288 
L 156.92979 261.022602 
L 169.047054 261.022602 
L 169.157854 258.915858 
L 169.163666 258.915858 
L 169.221681 253.648997 
L 169.331381 253.648997 
L 169.406043 247.328764 
L 169.446113 247.328764 
L 169.548731 245.22202 
L 169.560096 245.22202 
L 169.582803 244.168648 
L 170.58055 244.168648 
L 170.58055 243.641962 
L 170.925369 243.641962 
L 170.925369 243.115275 
L 171.32008 243.115275 
L 171.32008 242.588589 
L 171.595202 242.588589 
L 171.696007 241.535217 
L 172.501342 241.535217 
L 172.501342 241.008531 
L 172.786927 241.008531 
L 172.786927 240.481845 
L 173.298652 240.481845 
L 173.298652 239.955159 
L 173.728826 239.955159 
L 173.728826 239.428473 
L 174.126799 239.428473 
L 174.148644 238.375101 
L 176.182307 238.375101 
L 176.182307 237.848415 
L 176.781943 237.848415 
L 176.85687 236.795043 
L 177.042792 236.795043 
L 177.146049 228.368065 
L 177.16075 228.368065 
L 177.241386 225.207949 
L 177.274266 225.207949 
L 177.343477 222.047832 
L 180.711659 222.047832 
L 180.711659 221.521146 
L 180.834104 221.521146 
L 180.834104 220.99446 
L 182.817913 220.99446 
L 182.817913 220.467774 
L 185.609844 220.467774 
L 185.609844 219.414402 
L 185.805629 219.414402 
L 185.832462 217.834344 
L 186.419063 217.834344 
L 186.52031 213.620855 
L 186.550356 213.620855 
L 186.650846 208.353994 
L 186.663633 208.353994 
L 186.754999 203.613819 
L 193.348358 203.613819 
L 193.348358 203.087133 
L 194.277183 203.087133 
L 194.277183 202.560447 
L 195.334838 202.560447 
L 195.334838 202.033761 
L 195.558851 202.033761 
L 195.646893 200.453703 
L 195.795173 200.453703 
L 195.899604 193.606784 
L 195.907129 193.606784 
L 195.999672 188.339923 
L 196.080556 188.339923 
L 196.102889 187.286551 
L 196.662917 187.286551 
L 196.744375 186.233179 
L 196.848042 186.233179 
L 196.848042 185.706493 
L 197.3169 185.706493 
L 197.3169 184.653121 
L 198.753751 184.653121 
L 198.753751 184.126434 
L 201.194711 184.126434 
L 201.263097 179.912946 
L 201.317429 179.912946 
L 201.426502 174.646085 
L 203.355229 174.646085 
L 203.355229 174.119399 
L 205.497227 174.119399 
L 205.497227 173.592713 
L 205.868738 173.592713 
L 205.868738 173.066027 
L 206.646501 173.066027 
L 206.646501 172.539341 
L 220.814261 172.539341 
L 220.814261 172.012655 
L 246.221008 172.012655 
L 246.221008 171.485969 
L 253.580649 171.485969 
L 253.580649 170.959282 
L 254.834485 170.959282 
L 254.834485 170.432596 
L 256.754763 170.432596 
L 256.754763 168.852538 
L 260.836223 168.852538 
L 260.9471 165.165736 
L 260.99102 165.165736 
L 261.047523 163.058991 
L 261.154154 163.058991 
L 261.265044 156.738758 
L 261.265399 156.738758 
L 261.365891 152.52527 
L 261.389061 152.52527 
L 261.49783 150.945211 
L 261.567451 150.945211 
L 261.619368 148.838467 
L 261.680947 148.838467 
L 261.778162 147.258409 
L 261.827053 147.258409 
L 261.923317 145.678351 
L 262.055075 145.678351 
L 262.090263 144.098292 
L 262.709215 144.098292 
L 262.756898 142.518234 
L 262.838646 142.518234 
L 262.84742 140.938176 
L 262.961921 140.938176 
L 263.004265 138.831432 
L 263.127707 138.831432 
L 263.128159 137.778059 
L 263.779877 137.778059 
L 263.867827 135.144629 
L 264.010872 135.144629 
L 264.014533 133.564571 
L 265.719787 133.564571 
L 265.75937 131.984513 
L 265.834515 131.984513 
L 265.836789 130.404454 
L 265.964618 130.404454 
L 265.969967 128.824396 
L 266.081452 128.824396 
L 266.081452 128.29771 
L 273.064711 128.29771 
L 273.173029 125.137593 
L 273.195665 125.137593 
L 273.29987 123.030849 
L 273.331118 123.030849 
L 273.411145 121.450791 
L 273.460989 121.450791 
L 273.562895 120.397419 
L 273.586402 120.397419 
L 273.619383 118.817361 
L 273.890799 118.817361 
L 273.999319 115.657244 
L 274.01876 115.657244 
L 274.119108 113.5505 
L 274.214452 113.5505 
L 274.320255 110.917069 
L 274.418832 110.917069 
L 274.517477 109.337011 
L 274.613698 109.337011 
L 274.613698 108.810325 
L 274.756659 108.810325 
L 274.854841 107.230267 
L 274.899554 107.230267 
L 274.899554 106.703581 
L 275.048395 106.703581 
L 275.048395 106.176895 
L 275.274166 106.176895 
L 275.345575 104.596836 
L 275.632409 104.596836 
L 275.72622 102.490092 
L 275.768023 102.490092 
L 275.807197 101.43672 
L 276.328642 101.43672 
L 276.392084 98.803289 
L 276.999211 98.803289 
L 276.999211 98.276603 
L 277.830379 98.276603 
L 277.830379 97.749917 
L 280.038978 97.749917 
L 280.083831 96.696545 
L 280.218129 96.696545 
L 280.218129 96.169859 
L 280.393485 96.169859 
L 280.481984 94.589801 
L 280.512093 94.589801 
L 280.583698 93.009743 
L 280.638962 93.009743 
L 280.735578 91.95637 
L 280.789321 91.95637 
L 280.789321 91.429684 
L 280.924193 91.429684 
L 281.026738 89.32294 
L 281.124879 89.32294 
L 281.198494 87.216196 
L 281.254157 87.216196 
L 281.32533 85.636137 
L 281.37407 85.636137 
L 281.472907 84.582765 
L 281.732973 84.582765 
L 281.80994 83.529393 
L 281.868187 83.529393 
L 281.910117 82.476021 
L 282.077049 82.476021 
L 282.17397 81.422649 
L 282.36955 81.422649 
L 282.42611 80.369277 
L 282.526898 80.369277 
L 282.526898 79.842591 
L 282.743171 79.842591 
L 282.743171 79.315904 
L 282.979632 79.315904 
L 283.018653 78.262532 
L 283.220131 78.262532 
L 283.220131 77.735846 
L 283.347015 77.735846 
L 283.454461 76.682474 
L 284.440996 76.682474 
L 284.440996 76.155788 
L 285.145103 76.155788 
L 285.145103 75.629102 
L 285.290467 75.629102 
L 285.358944 74.57573 
L 285.453533 74.57573 
L 285.549602 72.995672 
L 285.63944 72.995672 
L 285.741736 71.415613 
L 285.781156 71.415613 
L 285.781156 70.888927 
L 285.894919 70.888927 
L 285.988335 68.782183 
L 286.15269 68.782183 
L 286.172724 67.728811 
L 286.275005 67.728811 
L 286.275005 67.202125 
L 286.415791 67.202125 
L 286.481724 66.148752 
L 286.543018 66.148752 
L 286.612017 64.568694 
L 286.836997 64.568694 
L 286.915868 62.988636 
L 286.962431 62.988636 
L 286.962431 62.46195 
L 287.095942 62.46195 
L 287.198583 61.408578 
L 287.337915 61.408578 
L 287.337915 60.881892 
L 287.761682 60.881892 
L 287.761682 60.355206 
L 289.123747 60.355206 
L 289.123747 59.82852 
L 289.297414 59.82852 
L 289.349033 58.775147 
L 289.509543 58.775147 
L 289.509543 58.248461 
L 289.628278 58.248461 
L 289.707619 57.195089 
L 289.785915 57.195089 
L 289.785915 56.668403 
L 289.979391 56.668403 
L 289.989601 55.615031 
L 290.093946 55.615031 
L 290.168823 54.034973 
L 290.366612 54.034973 
L 290.366612 53.508287 
L 290.478022 53.508287 
L 290.478022 52.9816 
L 290.826524 52.9816 
L 290.851937 51.401542 
L 290.992381 51.401542 
L 290.992381 50.874856 
L 291.416058 50.874856 
L 291.416058 50.34817 
L 292.635329 50.34817 
L 292.667513 48.768112 
L 292.848076 48.768112 
L 292.848076 48.241426 
L 293.075948 48.241426 
L 293.075948 47.71474 
L 293.218091 47.71474 
L 293.31538 46.661368 
L 293.438112 46.661368 
L 293.505327 45.607995 
L 293.639668 45.607995 
L 293.639668 45.081309 
L 293.77825 45.081309 
L 293.85225 44.027937 
L 294.520874 44.027937 
L 294.520874 43.501251 
L 295.093528 43.501251 
L 295.093528 42.974565 
L 295.216642 42.974565 
L 295.216642 42.447879 
L 295.4321 42.447879 
L 295.4321 41.921193 
L 295.640211 41.921193 
L 295.640211 41.394507 
L 295.752009 41.394507 
L 295.774343 40.341135 
L 297.037688 40.341135 
L 297.037688 39.814448 
L 298.124473 39.814448 
L 298.124473 39.287762 
L 298.467009 39.287762 
L 298.467009 38.761076 
L 298.759894 38.761076 
L 298.771777 37.707704 
L 299.271962 37.707704 
L 299.271962 37.181018 
L 299.81634 37.181018 
L 299.905109 36.127646 
L 300.285386 36.127646 
L 300.285386 35.60096 
L 300.524929 35.60096 
L 300.593938 34.547588 
L 300.722035 34.547588 
L 300.749221 33.494215 
L 301.387513 33.494215 
L 301.387513 32.967529 
L 302.059484 32.967529 
L 302.059484 32.440843 
L 302.313702 32.440843 
L 302.313702 31.914157 
L 302.775193 31.914157 
L 302.775193 31.387471 
L 304.306502 31.387471 
L 304.306502 30.860785 
L 309.021068 30.860785 
L 309.021068 30.334099 
L 338.688 30.334099 
L 338.688 30.334099 
" style="fill:none;stroke:#ff0000;stroke-linecap:square;stroke-width:1.5;"/>
   </g>
   <g id="line2d_44">
    <defs>
     <path d="M 0 -6 
L -5.196152 -3 
L -5.196152 3 
L -0 6 
L 5.196152 3 
L 5.196152 -3 
z
" id="m2e97b9a9d5" style="stroke:#ff0000;stroke-linejoin:miter;stroke-width:1.5;"/>
    </defs>
    <g>
     <use style="fill-opacity:0;stroke:#ff0000;stroke-linejoin:miter;stroke-width:1.5;" x="129.290685" xlink:href="#m2e97b9a9d5" y="270.502952"/>
     <use style="fill-opacity:0;stroke:#ff0000;stroke-linejoin:miter;stroke-width:1.5;" x="201.257562" xlink:href="#m2e97b9a9d5" y="180.439632"/>
     <use style="fill-opacity:0;stroke:#ff0000;stroke-linejoin:miter;stroke-width:1.5;" x="266.081452" xlink:href="#m2e97b9a9d5" y="128.824396"/>
     <use style="fill-opacity:0;stroke:#ff0000;stroke-linejoin:miter;stroke-width:1.5;" x="309.021068" xlink:href="#m2e97b9a9d5" y="30.334099"/>
     <use style="fill-opacity:0;stroke:#ff0000;stroke-linejoin:miter;stroke-width:1.5;" x="309.021068" xlink:href="#m2e97b9a9d5" y="30.334099"/>
     <use style="fill-opacity:0;stroke:#ff0000;stroke-linejoin:miter;stroke-width:1.5;" x="338.688" xlink:href="#m2e97b9a9d5" y="30.334099"/>
    </g>
   </g>
   <g id="line2d_45">
    <path style="fill:none;stroke:#ff0000;stroke-linecap:square;stroke-width:1.5;"/>
    <g/>
   </g>
   <g id="line2d_46">
    <path clip-path="url(#p7db1181c5b)" d="M 261.123193 163.058991 
" style="fill:none;stroke:#ff0000;stroke-linecap:square;stroke-width:1.5;"/>
    <defs>
     <path d="M -12 12 
L 12 -12 
M -12 -12 
L 12 12 
" id="md83eb1a7f6" style="stroke:#ff0000;"/>
    </defs>
    <g clip-path="url(#p7db1181c5b)">
     <use style="fill:#ff0000;stroke:#ff0000;" x="261.123193" xlink:href="#md83eb1a7f6" y="163.058991"/>
    </g>
   </g>
   <g id="line2d_47">
    <defs>
     <path d="M 0 1.5 
C 0.397805 1.5 0.77937 1.341951 1.06066 1.06066 
C 1.341951 0.77937 1.5 0.397805 1.5 0 
C 1.5 -0.397805 1.341951 -0.77937 1.06066 -1.06066 
C 0.77937 -1.341951 0.397805 -1.5 0 -1.5 
C -0.397805 -1.5 -0.77937 -1.341951 -1.06066 -1.06066 
C -1.341951 -0.77937 -1.5 -0.397805 -1.5 0 
C -1.5 0.397805 -1.341951 0.77937 -1.06066 1.06066 
C -0.77937 1.341951 -0.397805 1.5 0 1.5 
z
" id="me9a5e082d0" style="stroke:#bebebe;"/>
    </defs>
    <g>
     <use style="fill:#bebebe;stroke:#bebebe;" x="313.996362" xlink:href="#me9a5e082d0" y="30.334099"/>
     <use style="fill:#bebebe;stroke:#bebebe;" x="313.996362" xlink:href="#me9a5e082d0" y="30.334099"/>
    </g>
   </g>
   <g id="line2d_48">
    <path d="M 29.53256 298.944 
L 29.53256 297.890628 
L 76.759008 297.890628 
L 76.759008 297.363942 
L 84.213325 297.363942 
L 84.213325 296.837256 
L 84.955534 296.837256 
L 84.955534 296.31057 
L 85.66744 296.31057 
L 85.66744 295.257197 
L 87.009585 295.257197 
L 87.009585 294.730511 
L 92.026554 294.730511 
L 92.026554 294.203825 
L 92.504372 294.203825 
L 92.504372 293.677139 
L 102.060491 293.677139 
L 102.060491 293.150453 
L 104.826449 293.150453 
L 104.826449 292.623767 
L 106.168594 292.623767 
L 106.168594 292.097081 
L 106.802819 292.097081 
L 106.802819 291.570395 
L 108.198707 291.570395 
L 108.198707 291.043709 
L 109.131511 291.043709 
L 109.131511 290.517023 
L 112.72987 290.517023 
L 112.72987 289.990337 
L 114.947365 289.990337 
L 114.947365 289.463651 
L 115.586238 289.463651 
L 115.586238 288.936964 
L 116.680349 288.936964 
L 116.680349 288.410278 
L 118.256582 288.410278 
L 118.256582 287.883592 
L 118.576578 287.883592 
L 118.576578 286.83022 
L 118.994305 286.83022 
L 118.994305 286.303534 
L 120.190611 286.303534 
L 120.190611 285.776848 
L 120.47729 285.776848 
L 120.47729 285.250162 
L 124.216444 285.250162 
L 124.216444 284.19679 
L 124.594752 284.19679 
L 124.594752 283.670104 
L 125.183475 283.670104 
L 125.183475 283.143418 
L 125.399222 283.143418 
L 125.399222 282.616732 
L 127.736845 282.616732 
L 127.736845 282.090045 
L 127.923363 282.090045 
L 127.923363 281.563359 
L 129.290685 281.563359 
L 129.290685 281.036673 
L 129.404667 281.036673 
L 129.404667 280.509987 
L 129.686407 280.509987 
L 129.686407 279.983301 
L 130.978796 279.983301 
L 130.978796 279.456615 
L 132.278599 279.456615 
L 132.278599 278.929929 
L 132.753813 278.929929 
L 132.753813 278.403243 
L 133.262014 278.403243 
L 133.262014 277.349871 
L 133.975741 277.349871 
L 133.975741 276.823185 
L 134.236034 276.823185 
L 134.236034 276.296499 
L 134.61933 276.296499 
L 134.61933 275.769812 
L 134.953107 275.769812 
L 134.953107 275.243126 
L 135.321124 275.243126 
L 135.321124 274.71644 
L 138.493936 274.71644 
L 138.561269 273.663068 
L 138.761723 273.663068 
L 138.761723 273.136382 
L 140.738093 273.136382 
L 140.738093 272.08301 
L 141.46423 272.08301 
L 141.46423 271.556324 
L 141.941279 271.556324 
L 141.941279 271.029638 
L 142.619936 271.029638 
L 142.673105 269.976266 
L 143.273169 269.976266 
L 143.273169 269.449579 
L 143.451774 269.449579 
L 143.451774 268.922893 
L 144.605813 268.922893 
L 144.605813 268.396207 
L 144.77134 268.396207 
L 144.77134 267.869521 
L 144.981877 267.869521 
L 144.981877 267.342835 
L 147.429332 267.342835 
L 147.429332 266.816149 
L 148.993835 266.816149 
L 148.993835 266.289463 
L 149.25057 266.289463 
L 149.25057 265.762777 
L 149.770648 265.762777 
L 149.770648 265.236091 
L 162.737246 265.236091 
L 162.737246 264.709405 
L 163.788565 264.709405 
L 163.788565 264.182719 
L 164.402441 264.182719 
L 164.425332 263.129347 
L 164.569616 263.129347 
L 164.569616 262.60266 
L 165.317182 262.60266 
L 165.317182 262.075974 
L 165.447111 262.075974 
L 165.447111 261.549288 
L 166.047915 261.549288 
L 166.047915 261.022602 
L 166.500553 261.022602 
L 166.601807 259.96923 
L 166.789256 259.96923 
L 166.789256 259.442544 
L 167.001045 259.442544 
L 167.001045 258.915858 
L 167.184273 258.915858 
L 167.184273 257.862486 
L 167.30752 257.862486 
L 167.30752 257.3358 
L 167.741609 257.3358 
L 167.741609 256.809114 
L 167.960895 256.809114 
L 167.960895 255.755741 
L 168.072606 255.755741 
L 168.072606 255.229055 
L 168.494323 255.229055 
L 168.494323 254.702369 
L 169.041203 254.702369 
L 169.041203 254.175683 
L 169.446113 254.175683 
L 169.446113 253.648997 
L 171.18605 253.648997 
L 171.18605 253.122311 
L 180.543017 253.122311 
L 180.573251 251.015567 
L 180.681664 251.015567 
L 180.681664 249.435508 
L 181.023534 249.435508 
L 181.023534 248.908822 
L 181.146739 248.908822 
L 181.146739 248.382136 
L 181.468223 248.382136 
L 181.468223 247.85545 
L 181.582635 247.85545 
L 181.582635 247.328764 
L 181.707628 247.328764 
L 181.707628 245.22202 
L 182.024587 245.22202 
L 182.124367 244.168648 
L 182.286671 244.168648 
L 182.286671 243.115275 
L 182.488126 243.115275 
L 182.55027 241.535217 
L 182.772702 241.535217 
L 182.772702 241.008531 
L 182.907984 241.008531 
L 183.002848 239.428473 
L 183.242962 239.428473 
L 183.255917 238.375101 
L 183.402933 238.375101 
L 183.402933 237.848415 
L 183.551266 237.848415 
L 183.551266 236.268356 
L 184.119975 236.268356 
L 184.119975 235.74167 
L 190.555948 235.74167 
L 190.555948 235.214984 
L 190.906871 235.214984 
L 191.000156 233.10824 
L 191.615503 233.10824 
L 191.615503 232.581554 
L 191.91601 232.581554 
L 191.91601 232.054868 
L 192.164867 232.054868 
L 192.248583 231.001496 
L 193.206936 231.001496 
L 193.206936 230.47481 
L 193.394762 230.47481 
L 193.394762 229.948123 
L 194.251006 229.948123 
L 194.251006 229.421437 
L 199.955375 229.421437 
L 199.955375 228.894751 
L 200.457091 228.894751 
L 200.457091 228.368065 
L 200.610962 228.368065 
L 200.610962 227.841379 
L 200.742594 227.841379 
L 200.799517 226.788007 
L 200.914691 226.788007 
L 200.914691 226.261321 
L 201.139994 226.261321 
L 201.228013 223.627891 
L 201.331215 223.627891 
L 201.431984 219.941088 
L 201.664269 219.941088 
L 201.752378 218.887716 
L 201.786423 218.887716 
L 201.786423 218.36103 
L 201.943246 218.36103 
L 201.950341 217.307658 
L 202.060826 217.307658 
L 202.144328 215.727599 
L 202.249237 215.727599 
L 202.249237 214.147541 
L 202.400242 214.147541 
L 202.437359 211.514111 
L 202.517366 211.514111 
L 202.563654 209.407366 
L 202.792422 209.407366 
L 202.866614 208.353994 
L 202.970624 208.353994 
L 202.970624 207.827308 
L 203.09645 207.827308 
L 203.204879 205.193878 
L 203.234559 205.193878 
L 203.336404 203.613819 
L 203.382204 203.613819 
L 203.382204 203.087133 
L 203.49537 203.087133 
L 203.554509 202.033761 
L 203.612643 202.033761 
L 203.612643 201.507075 
L 203.822564 201.507075 
L 203.928168 199.927017 
L 203.989805 199.927017 
L 204.095188 196.7669 
L 204.128871 196.7669 
L 204.200718 194.13347 
L 204.368248 194.13347 
L 204.462933 192.026726 
L 204.523477 192.026726 
L 204.572371 189.919981 
L 204.657608 189.919981 
L 204.657608 188.339923 
L 204.83511 188.339923 
L 204.942992 185.706493 
L 205.035358 185.706493 
L 205.035358 184.126434 
L 205.263422 184.126434 
L 205.359217 182.546376 
L 205.429084 182.546376 
L 205.429084 182.01969 
L 211.742541 182.01969 
L 211.742541 180.966318 
L 211.866004 180.966318 
L 211.866004 180.439632 
L 212.111825 180.439632 
L 212.111825 178.332888 
L 212.328331 178.332888 
L 212.415159 177.279515 
L 212.451129 177.279515 
L 212.506398 176.226143 
L 212.760598 176.226143 
L 212.770136 175.172771 
L 212.984792 175.172771 
L 212.984792 173.592713 
L 213.233091 173.592713 
L 213.233555 172.012655 
L 213.44078 172.012655 
L 213.453164 170.432596 
L 213.616982 170.432596 
L 213.695832 168.852538 
L 213.808052 168.852538 
L 213.808052 167.27248 
L 264.492641 167.27248 
L 264.517603 165.165736 
L 264.87113 165.165736 
L 264.973147 160.952247 
L 265.030423 160.952247 
L 265.037947 159.898875 
L 265.221638 159.898875 
L 265.281557 158.318817 
L 265.390425 158.318817 
L 265.390425 157.79213 
L 265.535975 157.79213 
L 265.619318 155.1587 
L 265.81927 155.1587 
L 265.929548 151.998584 
L 265.978608 151.998584 
L 266.07672 150.418525 
L 266.104196 150.418525 
L 266.187036 145.151665 
L 266.22177 145.151665 
L 266.30246 141.991548 
L 266.336767 141.991548 
L 266.43078 137.778059 
L 266.474484 137.778059 
L 266.573821 135.671315 
L 266.589073 135.671315 
L 266.62243 134.617943 
L 266.737285 134.617943 
L 266.835634 131.457826 
L 266.849008 131.457826 
L 266.849008 130.93114 
L 267.014431 130.93114 
L 267.117342 128.824396 
L 267.158855 128.824396 
L 267.181059 127.771024 
L 267.414649 127.771024 
L 267.414649 127.244338 
L 267.732406 127.244338 
L 267.738932 125.66428 
L 268.010503 125.66428 
L 268.050267 124.610907 
L 277.052806 124.610907 
L 277.148418 123.557535 
L 277.165373 123.557535 
L 277.269086 121.977477 
L 277.306929 121.977477 
L 277.386064 120.924105 
L 277.4751 120.924105 
L 277.571749 116.18393 
L 277.589144 116.18393 
L 277.693636 114.077186 
L 277.700697 114.077186 
L 277.750517 113.023814 
L 277.823015 113.023814 
L 277.924379 109.337011 
L 278.017921 109.337011 
L 278.121951 107.756953 
L 278.156901 107.756953 
L 278.255523 105.123522 
L 278.291732 105.123522 
L 278.343136 103.016778 
L 278.424645 103.016778 
L 278.430942 101.963406 
L 278.563952 101.963406 
L 278.652248 100.910034 
L 278.699209 100.910034 
L 278.80054 98.803289 
L 278.824496 98.803289 
L 278.926436 95.643173 
L 278.953736 95.643173 
L 279.036522 94.589801 
L 279.299411 94.589801 
L 279.299411 94.063115 
L 279.556542 94.063115 
L 279.556542 93.536429 
L 284.046947 93.536429 
L 284.046947 93.009743 
L 284.199193 93.009743 
L 284.27206 90.902998 
L 284.338532 90.902998 
L 284.43569 89.849626 
L 284.47971 89.849626 
L 284.543763 87.742882 
L 284.610589 87.742882 
L 284.610589 87.216196 
L 284.726697 87.216196 
L 284.833171 85.636137 
L 284.867207 85.636137 
L 284.918309 84.056079 
L 285.106514 84.056079 
L 285.204808 82.476021 
L 285.236752 82.476021 
L 285.339996 79.315904 
L 285.348362 79.315904 
L 285.348362 78.789218 
L 285.635531 78.789218 
L 285.635531 78.262532 
L 285.753149 78.262532 
L 285.75611 77.20916 
L 285.90811 77.20916 
L 285.910829 76.155788 
L 286.176727 76.155788 
L 286.176727 75.629102 
L 289.054899 75.629102 
L 289.054899 75.102416 
L 289.182168 75.102416 
L 289.182168 74.57573 
L 289.297467 74.57573 
L 289.297467 74.049044 
L 289.489947 74.049044 
L 289.581559 72.468985 
L 289.675006 72.468985 
L 289.781607 70.362241 
L 289.924996 70.362241 
L 290.006028 68.782183 
L 290.097459 68.782183 
L 290.169212 65.09538 
L 290.212496 65.09538 
L 290.314754 62.46195 
L 290.326467 62.46195 
L 290.421987 60.355206 
L 290.446575 60.355206 
L 290.491816 58.775147 
L 290.655382 58.775147 
L 290.665259 57.721775 
L 290.958888 57.721775 
L 290.958888 57.195089 
L 293.186524 57.195089 
L 293.186524 56.668403 
L 293.321636 56.668403 
L 293.40353 55.615031 
L 293.503005 55.615031 
L 293.503005 55.088345 
L 293.671624 55.088345 
L 293.723762 54.034973 
L 293.818023 54.034973 
L 293.923052 51.928228 
L 294.032961 51.928228 
L 294.032961 51.401542 
L 294.15217 51.401542 
L 294.199061 50.34817 
L 294.504654 50.34817 
L 294.596345 49.294798 
L 294.777438 49.294798 
L 294.777438 48.768112 
L 296.410795 48.768112 
L 296.410795 48.241426 
L 296.660743 48.241426 
L 296.741475 46.661368 
L 296.83985 46.661368 
L 296.948994 43.501251 
L 296.974749 43.501251 
L 297.018293 41.921193 
L 297.157629 41.921193 
L 297.195618 39.814448 
L 297.709134 39.814448 
L 297.757526 38.761076 
L 299.043284 38.761076 
L 299.043284 38.23439 
L 299.68492 38.23439 
L 299.68492 37.707704 
L 299.969426 37.707704 
L 299.969426 37.181018 
L 301.496192 37.181018 
L 301.496192 36.654332 
L 301.92128 36.654332 
L 301.92128 36.127646 
L 303.536888 36.127646 
L 303.536888 35.60096 
L 303.963541 35.60096 
L 303.963541 35.074274 
L 304.077341 35.074274 
L 304.077341 34.547588 
L 304.214706 34.547588 
L 304.28746 33.494215 
L 305.881528 33.494215 
L 305.881528 32.967529 
L 306.189544 32.967529 
L 306.189544 32.440843 
L 307.00452 32.440843 
L 307.00452 31.914157 
L 307.748551 31.914157 
L 307.748551 31.387471 
L 311.787748 31.387471 
L 311.787748 30.860785 
L 313.996362 30.860785 
L 313.996362 30.334099 
L 338.688 30.334099 
L 338.688 30.334099 
" style="fill:none;stroke:#bebebe;stroke-linecap:square;stroke-width:1.5;"/>
   </g>
   <g id="line2d_49">
    <defs>
     <path d="M 0 0 
L -6 -0 
M 0 0 
L 3 4.8 
M 0 0 
L 3 -4.8 
" id="mdea7c1032c" style="stroke:#bebebe;stroke-width:1.5;"/>
    </defs>
    <g>
     <use style="fill-opacity:0;stroke:#bebebe;stroke-width:1.5;" x="134.236034" xlink:href="#mdea7c1032c" y="276.296499"/>
     <use style="fill-opacity:0;stroke:#bebebe;stroke-width:1.5;" x="203.302795" xlink:href="#mdea7c1032c" y="204.140506"/>
     <use style="fill-opacity:0;stroke:#bebebe;stroke-width:1.5;" x="267.181059" xlink:href="#mdea7c1032c" y="127.771024"/>
     <use style="fill-opacity:0;stroke:#bebebe;stroke-width:1.5;" x="313.996362" xlink:href="#mdea7c1032c" y="30.334099"/>
     <use style="fill-opacity:0;stroke:#bebebe;stroke-width:1.5;" x="313.996362" xlink:href="#mdea7c1032c" y="30.334099"/>
     <use style="fill-opacity:0;stroke:#bebebe;stroke-width:1.5;" x="338.688" xlink:href="#mdea7c1032c" y="30.334099"/>
    </g>
   </g>
   <g id="line2d_50">
    <path style="fill:none;stroke:#bebebe;stroke-linecap:square;stroke-width:1.5;"/>
    <g/>
   </g>
   <g id="line2d_51">
    <path clip-path="url(#p7db1181c5b)" d="M 265.643156 155.1587 
" style="fill:none;stroke:#bebebe;stroke-linecap:square;stroke-width:1.5;"/>
    <defs>
     <path d="M -12 12 
L 12 -12 
M -12 -12 
L 12 12 
" id="m3516f76883" style="stroke:#bebebe;"/>
    </defs>
    <g clip-path="url(#p7db1181c5b)">
     <use style="fill:#bebebe;stroke:#bebebe;" x="265.643156" xlink:href="#m3516f76883" y="155.1587"/>
    </g>
   </g>
   <g id="line2d_52">
    <defs>
     <path d="M 0 1.5 
C 0.397805 1.5 0.77937 1.341951 1.06066 1.06066 
C 1.341951 0.77937 1.5 0.397805 1.5 0 
C 1.5 -0.397805 1.341951 -0.77937 1.06066 -1.06066 
C 0.77937 -1.341951 0.397805 -1.5 0 -1.5 
C -0.397805 -1.5 -0.77937 -1.341951 -1.06066 -1.06066 
C -1.341951 -0.77937 -1.5 -0.397805 -1.5 0 
C -1.5 0.397805 -1.341951 0.77937 -1.06066 1.06066 
C -0.77937 1.341951 -0.397805 1.5 0 1.5 
z
" id="ma44c8976c6" style="stroke:#6495ed;"/>
    </defs>
    <g>
     <use style="fill:#6495ed;stroke:#6495ed;" x="297.685233" xlink:href="#ma44c8976c6" y="241.008531"/>
     <use style="fill:#6495ed;stroke:#6495ed;" x="297.685233" xlink:href="#ma44c8976c6" y="241.008531"/>
    </g>
   </g>
   <g id="line2d_53">
    <path d="M 29.53256 298.944 
L 29.53256 298.417314 
L 71.35013 298.417314 
L 71.35013 297.890628 
L 74.263433 297.890628 
L 74.263433 297.363942 
L 84.213325 297.363942 
L 84.213325 296.837256 
L 85.66744 296.837256 
L 85.66744 296.31057 
L 92.026554 296.31057 
L 92.026554 295.783884 
L 92.504372 295.783884 
L 92.504372 295.257197 
L 102.060491 295.257197 
L 102.060491 294.203825 
L 106.168594 294.203825 
L 106.168594 293.677139 
L 106.802819 293.677139 
L 106.802819 293.150453 
L 108.198707 293.150453 
L 108.198707 292.623767 
L 112.72987 292.623767 
L 112.72987 292.097081 
L 114.947365 292.097081 
L 114.947365 291.570395 
L 119.40226 291.570395 
L 119.40226 291.043709 
L 124.891598 291.043709 
L 124.891598 290.517023 
L 125.038147 290.517023 
L 125.038147 289.990337 
L 125.682793 289.990337 
L 125.682793 289.463651 
L 131.490249 289.463651 
L 131.490249 288.936964 
L 133.667073 288.936964 
L 133.667073 288.410278 
L 134.279041 288.410278 
L 134.279041 287.883592 
L 134.787017 287.883592 
L 134.787017 287.356906 
L 135.117629 287.356906 
L 135.117629 286.83022 
L 135.641855 286.83022 
L 135.641855 286.303534 
L 135.917737 286.303534 
L 135.917737 285.776848 
L 136.720123 285.776848 
L 136.720123 285.250162 
L 138.426341 285.250162 
L 138.426341 284.723476 
L 138.628343 284.723476 
L 138.628343 284.19679 
L 140.042245 284.19679 
L 140.042245 283.670104 
L 140.287441 283.670104 
L 140.287441 283.143418 
L 140.708409 283.143418 
L 140.708409 282.616732 
L 140.973763 282.616732 
L 140.973763 282.090045 
L 143.47714 282.090045 
L 143.47714 281.563359 
L 144.342484 281.563359 
L 144.342484 281.036673 
L 144.747789 281.036673 
L 144.747789 280.509987 
L 151.097081 280.509987 
L 151.146137 279.456615 
L 156.776762 279.456615 
L 156.776762 278.929929 
L 157.069866 278.929929 
L 157.069866 278.403243 
L 162.432178 278.403243 
L 162.432178 277.876557 
L 166.735904 277.876557 
L 166.735904 277.349871 
L 169.221681 277.349871 
L 169.221681 276.296499 
L 169.348639 276.296499 
L 169.348639 275.769812 
L 170.419074 275.769812 
L 170.419074 275.243126 
L 172.288901 275.243126 
L 172.288901 274.71644 
L 173.058616 274.71644 
L 173.058616 274.189754 
L 173.813602 274.189754 
L 173.849174 273.136382 
L 181.724604 273.136382 
L 181.724604 272.609696 
L 183.336027 272.609696 
L 183.336027 272.08301 
L 184.739845 272.08301 
L 184.773118 271.029638 
L 186.262811 271.029638 
L 186.262811 270.502952 
L 187.625129 270.502952 
L 187.64125 269.449579 
L 188.916799 269.449579 
L 188.984067 267.342835 
L 190.412203 267.342835 
L 190.424227 266.289463 
L 192.772654 266.289463 
L 192.772654 265.762777 
L 204.113996 265.762777 
L 204.113996 265.236091 
L 204.304063 265.236091 
L 204.304063 264.709405 
L 208.374652 264.709405 
L 208.379559 263.656033 
L 212.108854 263.656033 
L 212.108854 263.129347 
L 212.819176 263.129347 
L 212.834383 261.549288 
L 213.221944 261.549288 
L 213.221944 261.022602 
L 216.437315 261.022602 
L 216.437315 260.495916 
L 217.391328 260.495916 
L 217.391328 259.96923 
L 219.190765 259.96923 
L 219.190765 259.442544 
L 219.894316 259.442544 
L 219.894316 258.915858 
L 220.857795 258.915858 
L 220.857795 258.389172 
L 222.082178 258.389172 
L 222.082178 257.862486 
L 222.341594 257.862486 
L 222.341594 257.3358 
L 222.82611 257.3358 
L 222.82611 256.809114 
L 228.665759 256.809114 
L 228.665759 256.282427 
L 230.348027 256.282427 
L 230.348027 255.755741 
L 232.031827 255.755741 
L 232.062135 254.175683 
L 233.921015 254.175683 
L 233.921015 253.648997 
L 234.830597 253.648997 
L 234.830597 253.122311 
L 237.833335 253.122311 
L 237.833335 252.595625 
L 241.697135 252.595625 
L 241.697135 252.068939 
L 243.384138 252.068939 
L 243.392788 250.488881 
L 249.845315 250.488881 
L 249.845315 249.962195 
L 250.190883 249.962195 
L 250.190883 249.435508 
L 255.081403 249.435508 
L 255.081403 248.908822 
L 255.872496 248.908822 
L 255.872496 248.382136 
L 258.887615 248.382136 
L 258.887615 247.85545 
L 262.020042 247.85545 
L 262.020042 247.328764 
L 262.551714 247.328764 
L 262.551714 246.802078 
L 266.968268 246.802078 
L 266.972892 245.748706 
L 269.001175 245.748706 
L 269.001175 245.22202 
L 270.825395 245.22202 
L 270.825395 244.695334 
L 272.471481 244.695334 
L 272.471481 244.168648 
L 276.646503 244.168648 
L 276.646503 243.641962 
L 280.010219 243.641962 
L 280.010219 243.115275 
L 281.941943 243.115275 
L 281.941943 242.588589 
L 282.828644 242.588589 
L 282.828644 242.061903 
L 286.706305 242.061903 
L 286.706305 241.535217 
L 297.685233 241.535217 
L 297.685233 241.008531 
L 338.688 241.008531 
L 338.688 241.008531 
" style="fill:none;stroke:#6495ed;stroke-linecap:square;stroke-width:1.5;"/>
   </g>
   <g id="line2d_54">
    <defs>
     <path d="M -0 6 
L 6 -6 
L -6 -6 
z
" id="m73e90a74c4" style="stroke:#6495ed;stroke-linejoin:miter;stroke-width:1.5;"/>
    </defs>
    <g>
     <use style="fill-opacity:0;stroke:#6495ed;stroke-linejoin:miter;stroke-width:1.5;" x="114.947365" xlink:href="#m73e90a74c4" y="292.097081"/>
     <use style="fill-opacity:0;stroke:#6495ed;stroke-linejoin:miter;stroke-width:1.5;" x="181.724604" xlink:href="#m73e90a74c4" y="272.609696"/>
     <use style="fill-opacity:0;stroke:#6495ed;stroke-linejoin:miter;stroke-width:1.5;" x="234.830597" xlink:href="#m73e90a74c4" y="253.122311"/>
     <use style="fill-opacity:0;stroke:#6495ed;stroke-linejoin:miter;stroke-width:1.5;" x="297.685233" xlink:href="#m73e90a74c4" y="241.535217"/>
     <use style="fill-opacity:0;stroke:#6495ed;stroke-linejoin:miter;stroke-width:1.5;" x="297.685233" xlink:href="#m73e90a74c4" y="241.008531"/>
     <use style="fill-opacity:0;stroke:#6495ed;stroke-linejoin:miter;stroke-width:1.5;" x="338.688" xlink:href="#m73e90a74c4" y="241.008531"/>
    </g>
   </g>
   <g id="line2d_55">
    <path style="fill:none;stroke:#6495ed;stroke-linecap:square;stroke-width:1.5;"/>
    <g/>
   </g>
   <g id="line2d_56">
    <path clip-path="url(#p7db1181c5b)" d="M 230.509455 255.755741 
" style="fill:none;stroke:#6495ed;stroke-linecap:square;stroke-width:1.5;"/>
    <defs>
     <path d="M -12 12 
L 12 -12 
M -12 -12 
L 12 12 
" id="mb0180677a8" style="stroke:#6495ed;"/>
    </defs>
    <g clip-path="url(#p7db1181c5b)">
     <use style="fill:#6495ed;stroke:#6495ed;" x="230.509455" xlink:href="#mb0180677a8" y="255.755741"/>
    </g>
   </g>
   <g id="line2d_57">
    <path d="M 338.688 241.008531 
L 369.60768 293.571802 
" style="fill:none;stroke:#6495ed;stroke-linecap:square;stroke-width:1.5;"/>
    <g>
     <use style="fill-opacity:0;stroke:#6495ed;stroke-linejoin:miter;stroke-width:1.5;" x="338.688" xlink:href="#m73e90a74c4" y="241.008531"/>
     <use style="fill-opacity:0;stroke:#6495ed;stroke-linejoin:miter;stroke-width:1.5;" x="369.60768" xlink:href="#m73e90a74c4" y="293.571802"/>
    </g>
   </g>
   <g id="line2d_58">
    <path d="M 338.688 30.334099 
L 369.60768 207.616634 
" style="fill:none;stroke:#bebebe;stroke-linecap:square;stroke-width:1.5;"/>
    <g>
     <use style="fill-opacity:0;stroke:#bebebe;stroke-width:1.5;" x="338.688" xlink:href="#mdea7c1032c" y="30.334099"/>
     <use style="fill-opacity:0;stroke:#bebebe;stroke-width:1.5;" x="369.60768" xlink:href="#mdea7c1032c" y="207.616634"/>
    </g>
   </g>
   <g id="line2d_59">
    <path d="M 338.688 30.334099 
L 369.60768 121.661465 
" style="fill:none;stroke:#ff0000;stroke-linecap:square;stroke-width:1.5;"/>
    <g>
     <use style="fill-opacity:0;stroke:#ff0000;stroke-linejoin:miter;stroke-width:1.5;" x="338.688" xlink:href="#m2e97b9a9d5" y="30.334099"/>
     <use style="fill-opacity:0;stroke:#ff0000;stroke-linejoin:miter;stroke-width:1.5;" x="369.60768" xlink:href="#m2e97b9a9d5" y="121.661465"/>
    </g>
   </g>
   <g id="line2d_60">
    <path d="M 338.688 30.334099 
L 369.60768 35.706297 
" style="fill:none;stroke:#000080;stroke-linecap:square;stroke-width:1.5;"/>
    <g>
     <use style="fill-opacity:0;stroke:#000080;stroke-width:1.5;" x="338.688" xlink:href="#m9d9b2d727a" y="30.334099"/>
     <use style="fill-opacity:0;stroke:#000080;stroke-width:1.5;" x="369.60768" xlink:href="#m9d9b2d727a" y="35.706297"/>
    </g>
   </g>
   <g id="line2d_61">
    <path d="M 338.688 298.944 
L 338.688 30.334099 
" style="fill:none;stroke:#000000;stroke-linecap:square;stroke-width:1.5;"/>
   </g>
   <g id="patch_3">
    <path d="M 57.6 298.944 
L 57.6 27.648 
" style="fill:none;stroke:#000000;stroke-linecap:square;stroke-linejoin:miter;stroke-width:0.8;"/>
   </g>
   <g id="patch_4">
    <path d="M 338.688 298.944 
L 338.688 27.648 
" style="fill:none;stroke:#000000;stroke-linecap:square;stroke-linejoin:miter;stroke-width:0.8;"/>
   </g>
   <g id="patch_5">
    <path d="M 57.6 298.944 
L 338.688 298.944 
" style="fill:none;stroke:#000000;stroke-linecap:square;stroke-linejoin:miter;stroke-width:0.8;"/>
   </g>
   <g id="patch_6">
    <path d="M 57.6 27.648 
L 338.688 27.648 
" style="fill:none;stroke:#000000;stroke-linecap:square;stroke-linejoin:miter;stroke-width:0.8;"/>
   </g>
   <g id="text_13">
    <!-- SLSQP-11  -->
    <defs>
     <path d="M 53.515625 70.515625 
L 53.515625 60.890625 
Q 47.90625 63.578125 42.921875 64.890625 
Q 37.9375 66.21875 33.296875 66.21875 
Q 25.25 66.21875 20.875 63.09375 
Q 16.5 59.96875 16.5 54.203125 
Q 16.5 49.359375 19.40625 46.890625 
Q 22.3125 44.4375 30.421875 42.921875 
L 36.375 41.703125 
Q 47.40625 39.59375 52.65625 34.296875 
Q 57.90625 29 57.90625 20.125 
Q 57.90625 9.515625 50.796875 4.046875 
Q 43.703125 -1.421875 29.984375 -1.421875 
Q 24.8125 -1.421875 18.96875 -0.25 
Q 13.140625 0.921875 6.890625 3.21875 
L 6.890625 13.375 
Q 12.890625 10.015625 18.65625 8.296875 
Q 24.421875 6.59375 29.984375 6.59375 
Q 38.421875 6.59375 43.015625 9.90625 
Q 47.609375 13.234375 47.609375 19.390625 
Q 47.609375 24.75 44.3125 27.78125 
Q 41.015625 30.8125 33.5 32.328125 
L 27.484375 33.5 
Q 16.453125 35.6875 11.515625 40.375 
Q 6.59375 45.0625 6.59375 53.421875 
Q 6.59375 63.09375 13.40625 68.65625 
Q 20.21875 74.21875 32.171875 74.21875 
Q 37.3125 74.21875 42.625 73.28125 
Q 47.953125 72.359375 53.515625 70.515625 
z
" id="DejaVuSans-83"/>
     <path d="M 9.8125 72.90625 
L 19.671875 72.90625 
L 19.671875 8.296875 
L 55.171875 8.296875 
L 55.171875 0 
L 9.8125 0 
z
" id="DejaVuSans-76"/>
     <path d="M 39.40625 66.21875 
Q 28.65625 66.21875 22.328125 58.203125 
Q 16.015625 50.203125 16.015625 36.375 
Q 16.015625 22.609375 22.328125 14.59375 
Q 28.65625 6.59375 39.40625 6.59375 
Q 50.140625 6.59375 56.421875 14.59375 
Q 62.703125 22.609375 62.703125 36.375 
Q 62.703125 50.203125 56.421875 58.203125 
Q 50.140625 66.21875 39.40625 66.21875 
z
M 53.21875 1.3125 
L 66.21875 -12.890625 
L 54.296875 -12.890625 
L 43.5 -1.21875 
Q 41.890625 -1.3125 41.03125 -1.359375 
Q 40.1875 -1.421875 39.40625 -1.421875 
Q 24.03125 -1.421875 14.8125 8.859375 
Q 5.609375 19.140625 5.609375 36.375 
Q 5.609375 53.65625 14.8125 63.9375 
Q 24.03125 74.21875 39.40625 74.21875 
Q 54.734375 74.21875 63.90625 63.9375 
Q 73.09375 53.65625 73.09375 36.375 
Q 73.09375 23.6875 67.984375 14.640625 
Q 62.890625 5.609375 53.21875 1.3125 
z
" id="DejaVuSans-81"/>
     <path d="M 19.671875 64.796875 
L 19.671875 37.40625 
L 32.078125 37.40625 
Q 38.96875 37.40625 42.71875 40.96875 
Q 46.484375 44.53125 46.484375 51.125 
Q 46.484375 57.671875 42.71875 61.234375 
Q 38.96875 64.796875 32.078125 64.796875 
z
M 9.8125 72.90625 
L 32.078125 72.90625 
Q 44.34375 72.90625 50.609375 67.359375 
Q 56.890625 61.8125 56.890625 51.125 
Q 56.890625 40.328125 50.609375 34.8125 
Q 44.34375 29.296875 32.078125 29.296875 
L 19.671875 29.296875 
L 19.671875 0 
L 9.8125 0 
z
" id="DejaVuSans-80"/>
    </defs>
    <g transform="translate(375.22944 298.262739)scale(0.17 -0.17)">
     <use xlink:href="#DejaVuSans-83"/>
     <use x="63.476562" xlink:href="#DejaVuSans-76"/>
     <use x="119.189453" xlink:href="#DejaVuSans-83"/>
     <use x="182.666016" xlink:href="#DejaVuSans-81"/>
     <use x="261.376953" xlink:href="#DejaVuSans-80"/>
     <use x="321.648438" xlink:href="#DejaVuSans-45"/>
     <use x="357.732422" xlink:href="#DejaVuSans-49"/>
     <use x="421.355469" xlink:href="#DejaVuSans-49"/>
     <use x="484.978516" xlink:href="#DejaVuSans-32"/>
    </g>
   </g>
   <g id="text_14">
    <!-- SLSQP+CMA -->
    <defs>
     <path d="M 46 62.703125 
L 46 35.5 
L 73.1875 35.5 
L 73.1875 27.203125 
L 46 27.203125 
L 46 0 
L 37.796875 0 
L 37.796875 27.203125 
L 10.59375 27.203125 
L 10.59375 35.5 
L 37.796875 35.5 
L 37.796875 62.703125 
z
" id="DejaVuSans-43"/>
     <path d="M 64.40625 67.28125 
L 64.40625 56.890625 
Q 59.421875 61.53125 53.78125 63.8125 
Q 48.140625 66.109375 41.796875 66.109375 
Q 29.296875 66.109375 22.65625 58.46875 
Q 16.015625 50.828125 16.015625 36.375 
Q 16.015625 21.96875 22.65625 14.328125 
Q 29.296875 6.6875 41.796875 6.6875 
Q 48.140625 6.6875 53.78125 8.984375 
Q 59.421875 11.28125 64.40625 15.921875 
L 64.40625 5.609375 
Q 59.234375 2.09375 53.4375 0.328125 
Q 47.65625 -1.421875 41.21875 -1.421875 
Q 24.65625 -1.421875 15.125 8.703125 
Q 5.609375 18.84375 5.609375 36.375 
Q 5.609375 53.953125 15.125 64.078125 
Q 24.65625 74.21875 41.21875 74.21875 
Q 47.75 74.21875 53.53125 72.484375 
Q 59.328125 70.75 64.40625 67.28125 
z
" id="DejaVuSans-67"/>
     <path d="M 9.8125 72.90625 
L 24.515625 72.90625 
L 43.109375 23.296875 
L 61.8125 72.90625 
L 76.515625 72.90625 
L 76.515625 0 
L 66.890625 0 
L 66.890625 64.015625 
L 48.09375 14.015625 
L 38.1875 14.015625 
L 19.390625 64.015625 
L 19.390625 0 
L 9.8125 0 
z
" id="DejaVuSans-77"/>
     <path d="M 34.1875 63.1875 
L 20.796875 26.90625 
L 47.609375 26.90625 
z
M 28.609375 72.90625 
L 39.796875 72.90625 
L 67.578125 0 
L 57.328125 0 
L 50.6875 18.703125 
L 17.828125 18.703125 
L 11.1875 0 
L 0.78125 0 
z
" id="DejaVuSans-65"/>
    </defs>
    <g transform="translate(375.22944 212.307571)scale(0.17 -0.17)">
     <use xlink:href="#DejaVuSans-83"/>
     <use x="63.476562" xlink:href="#DejaVuSans-76"/>
     <use x="119.189453" xlink:href="#DejaVuSans-83"/>
     <use x="182.666016" xlink:href="#DejaVuSans-81"/>
     <use x="261.376953" xlink:href="#DejaVuSans-80"/>
     <use x="321.679688" xlink:href="#DejaVuSans-43"/>
     <use x="405.46875" xlink:href="#DejaVuSans-67"/>
     <use x="475.292969" xlink:href="#DejaVuSans-77"/>
     <use x="561.572266" xlink:href="#DejaVuSans-65"/>
    </g>
   </g>
   <g id="text_15">
    <!-- lq-CMA-ES -->
    <defs>
     <path d="M 14.796875 27.296875 
Q 14.796875 17.390625 18.875 11.75 
Q 22.953125 6.109375 30.078125 6.109375 
Q 37.203125 6.109375 41.296875 11.75 
Q 45.40625 17.390625 45.40625 27.296875 
Q 45.40625 37.203125 41.296875 42.84375 
Q 37.203125 48.484375 30.078125 48.484375 
Q 22.953125 48.484375 18.875 42.84375 
Q 14.796875 37.203125 14.796875 27.296875 
z
M 45.40625 8.203125 
Q 42.578125 3.328125 38.25 0.953125 
Q 33.9375 -1.421875 27.875 -1.421875 
Q 17.96875 -1.421875 11.734375 6.484375 
Q 5.515625 14.40625 5.515625 27.296875 
Q 5.515625 40.1875 11.734375 48.09375 
Q 17.96875 56 27.875 56 
Q 33.9375 56 38.25 53.625 
Q 42.578125 51.265625 45.40625 46.390625 
L 45.40625 54.6875 
L 54.390625 54.6875 
L 54.390625 -20.796875 
L 45.40625 -20.796875 
z
" id="DejaVuSans-113"/>
     <path d="M 9.8125 72.90625 
L 55.90625 72.90625 
L 55.90625 64.59375 
L 19.671875 64.59375 
L 19.671875 43.015625 
L 54.390625 43.015625 
L 54.390625 34.71875 
L 19.671875 34.71875 
L 19.671875 8.296875 
L 56.78125 8.296875 
L 56.78125 0 
L 9.8125 0 
z
" id="DejaVuSans-69"/>
    </defs>
    <g transform="translate(375.22944 126.352403)scale(0.17 -0.17)">
     <use xlink:href="#DejaVuSans-108"/>
     <use x="27.783203" xlink:href="#DejaVuSans-113"/>
     <use x="91.259766" xlink:href="#DejaVuSans-45"/>
     <use x="127.34375" xlink:href="#DejaVuSans-67"/>
     <use x="197.167969" xlink:href="#DejaVuSans-77"/>
     <use x="283.447266" xlink:href="#DejaVuSans-65"/>
     <use x="351.824219" xlink:href="#DejaVuSans-45"/>
     <use x="387.908203" xlink:href="#DejaVuSans-69"/>
     <use x="451.091797" xlink:href="#DejaVuSans-83"/>
    </g>
   </g>
   <g id="text_16">
    <!-- CMA-ES  2 -->
    <g transform="translate(375.22944 40.397235)scale(0.17 -0.17)">
     <use xlink:href="#DejaVuSans-67"/>
     <use x="69.824219" xlink:href="#DejaVuSans-77"/>
     <use x="156.103516" xlink:href="#DejaVuSans-65"/>
     <use x="224.480469" xlink:href="#DejaVuSans-45"/>
     <use x="260.564453" xlink:href="#DejaVuSans-69"/>
     <use x="323.748047" xlink:href="#DejaVuSans-83"/>
     <use x="387.224609" xlink:href="#DejaVuSans-32"/>
     <use x="419.011719" xlink:href="#DejaVuSans-32"/>
     <use x="450.798828" xlink:href="#DejaVuSans-50"/>
    </g>
   </g>
   <g id="text_17">
    <!-- bbob f3, 5-D -->
    <defs>
     <path d="M 48.6875 27.296875 
Q 48.6875 37.203125 44.609375 42.84375 
Q 40.53125 48.484375 33.40625 48.484375 
Q 26.265625 48.484375 22.1875 42.84375 
Q 18.109375 37.203125 18.109375 27.296875 
Q 18.109375 17.390625 22.1875 11.75 
Q 26.265625 6.109375 33.40625 6.109375 
Q 40.53125 6.109375 44.609375 11.75 
Q 48.6875 17.390625 48.6875 27.296875 
z
M 18.109375 46.390625 
Q 20.953125 51.265625 25.265625 53.625 
Q 29.59375 56 35.59375 56 
Q 45.5625 56 51.78125 48.09375 
Q 58.015625 40.1875 58.015625 27.296875 
Q 58.015625 14.40625 51.78125 6.484375 
Q 45.5625 -1.421875 35.59375 -1.421875 
Q 29.59375 -1.421875 25.265625 0.953125 
Q 20.953125 3.328125 18.109375 8.203125 
L 18.109375 0 
L 9.078125 0 
L 9.078125 75.984375 
L 18.109375 75.984375 
z
" id="DejaVuSans-98"/>
     <path d="M 40.578125 39.3125 
Q 47.65625 37.796875 51.625 33 
Q 55.609375 28.21875 55.609375 21.1875 
Q 55.609375 10.40625 48.1875 4.484375 
Q 40.765625 -1.421875 27.09375 -1.421875 
Q 22.515625 -1.421875 17.65625 -0.515625 
Q 12.796875 0.390625 7.625 2.203125 
L 7.625 11.71875 
Q 11.71875 9.328125 16.59375 8.109375 
Q 21.484375 6.890625 26.8125 6.890625 
Q 36.078125 6.890625 40.9375 10.546875 
Q 45.796875 14.203125 45.796875 21.1875 
Q 45.796875 27.640625 41.28125 31.265625 
Q 36.765625 34.90625 28.71875 34.90625 
L 20.21875 34.90625 
L 20.21875 43.015625 
L 29.109375 43.015625 
Q 36.375 43.015625 40.234375 45.921875 
Q 44.09375 48.828125 44.09375 54.296875 
Q 44.09375 59.90625 40.109375 62.90625 
Q 36.140625 65.921875 28.71875 65.921875 
Q 24.65625 65.921875 20.015625 65.03125 
Q 15.375 64.15625 9.8125 62.3125 
L 9.8125 71.09375 
Q 15.4375 72.65625 20.34375 73.4375 
Q 25.25 74.21875 29.59375 74.21875 
Q 40.828125 74.21875 47.359375 69.109375 
Q 53.90625 64.015625 53.90625 55.328125 
Q 53.90625 49.265625 50.4375 45.09375 
Q 46.96875 40.921875 40.578125 39.3125 
z
" id="DejaVuSans-51"/>
     <path d="M 10.796875 72.90625 
L 49.515625 72.90625 
L 49.515625 64.59375 
L 19.828125 64.59375 
L 19.828125 46.734375 
Q 21.96875 47.46875 24.109375 47.828125 
Q 26.265625 48.1875 28.421875 48.1875 
Q 40.625 48.1875 47.75 41.5 
Q 54.890625 34.8125 54.890625 23.390625 
Q 54.890625 11.625 47.5625 5.09375 
Q 40.234375 -1.421875 26.90625 -1.421875 
Q 22.3125 -1.421875 17.546875 -0.640625 
Q 12.796875 0.140625 7.71875 1.703125 
L 7.71875 11.625 
Q 12.109375 9.234375 16.796875 8.0625 
Q 21.484375 6.890625 26.703125 6.890625 
Q 35.15625 6.890625 40.078125 11.328125 
Q 45.015625 15.765625 45.015625 23.390625 
Q 45.015625 31 40.078125 35.4375 
Q 35.15625 39.890625 26.703125 39.890625 
Q 22.75 39.890625 18.8125 39.015625 
Q 14.890625 38.140625 10.796875 36.28125 
z
" id="DejaVuSans-53"/>
     <path d="M 19.671875 64.796875 
L 19.671875 8.109375 
L 31.59375 8.109375 
Q 46.6875 8.109375 53.6875 14.9375 
Q 60.6875 21.78125 60.6875 36.53125 
Q 60.6875 51.171875 53.6875 57.984375 
Q 46.6875 64.796875 31.59375 64.796875 
z
M 9.8125 72.90625 
L 30.078125 72.90625 
Q 51.265625 72.90625 61.171875 64.09375 
Q 71.09375 55.28125 71.09375 36.53125 
Q 71.09375 17.671875 61.125 8.828125 
Q 51.171875 0 30.078125 0 
L 9.8125 0 
z
" id="DejaVuSans-68"/>
    </defs>
    <g transform="translate(60.41088 38.111366)scale(0.102 -0.102)">
     <use xlink:href="#DejaVuSans-98"/>
     <use x="63.476562" xlink:href="#DejaVuSans-98"/>
     <use x="126.953125" xlink:href="#DejaVuSans-111"/>
     <use x="188.134766" xlink:href="#DejaVuSans-98"/>
     <use x="251.611328" xlink:href="#DejaVuSans-32"/>
     <use x="283.398438" xlink:href="#DejaVuSans-102"/>
     <use x="318.603516" xlink:href="#DejaVuSans-51"/>
     <use x="382.226562" xlink:href="#DejaVuSans-44"/>
     <use x="414.013672" xlink:href="#DejaVuSans-32"/>
     <use x="445.800781" xlink:href="#DejaVuSans-53"/>
     <use x="509.423828" xlink:href="#DejaVuSans-45"/>
     <use x="545.507812" xlink:href="#DejaVuSans-68"/>
    </g>
    <!-- 51 targets: 100..1e-08 -->
    <defs>
     <path d="M 11.71875 12.40625 
L 22.015625 12.40625 
L 22.015625 0 
L 11.71875 0 
z
M 11.71875 51.703125 
L 22.015625 51.703125 
L 22.015625 39.3125 
L 11.71875 39.3125 
z
" id="DejaVuSans-58"/>
    </defs>
    <g transform="translate(60.41088 49.533135)scale(0.102 -0.102)">
     <use xlink:href="#DejaVuSans-53"/>
     <use x="63.623047" xlink:href="#DejaVuSans-49"/>
     <use x="127.246094" xlink:href="#DejaVuSans-32"/>
     <use x="159.033203" xlink:href="#DejaVuSans-116"/>
     <use x="198.242188" xlink:href="#DejaVuSans-97"/>
     <use x="259.521484" xlink:href="#DejaVuSans-114"/>
     <use x="300.619141" xlink:href="#DejaVuSans-103"/>
     <use x="364.095703" xlink:href="#DejaVuSans-101"/>
     <use x="425.619141" xlink:href="#DejaVuSans-116"/>
     <use x="464.828125" xlink:href="#DejaVuSans-115"/>
     <use x="516.927734" xlink:href="#DejaVuSans-58"/>
     <use x="550.619141" xlink:href="#DejaVuSans-32"/>
     <use x="582.40625" xlink:href="#DejaVuSans-49"/>
     <use x="646.029297" xlink:href="#DejaVuSans-48"/>
     <use x="709.652344" xlink:href="#DejaVuSans-48"/>
     <use x="773.275391" xlink:href="#DejaVuSans-46"/>
     <use x="805.0625" xlink:href="#DejaVuSans-46"/>
     <use x="836.849609" xlink:href="#DejaVuSans-49"/>
     <use x="900.472656" xlink:href="#DejaVuSans-101"/>
     <use x="961.996094" xlink:href="#DejaVuSans-45"/>
     <use x="998.080078" xlink:href="#DejaVuSans-48"/>
     <use x="1061.703125" xlink:href="#DejaVuSans-56"/>
    </g>
    <!-- 15 instances -->
    <g transform="translate(60.41088 60.954904)scale(0.102 -0.102)">
     <use xlink:href="#DejaVuSans-49"/>
     <use x="63.623047" xlink:href="#DejaVuSans-53"/>
     <use x="127.246094" xlink:href="#DejaVuSans-32"/>
     <use x="159.033203" xlink:href="#DejaVuSans-105"/>
     <use x="186.816406" xlink:href="#DejaVuSans-110"/>
     <use x="250.195312" xlink:href="#DejaVuSans-115"/>
     <use x="302.294922" xlink:href="#DejaVuSans-116"/>
     <use x="341.503906" xlink:href="#DejaVuSans-97"/>
     <use x="402.783203" xlink:href="#DejaVuSans-110"/>
     <use x="466.162109" xlink:href="#DejaVuSans-99"/>
     <use x="521.142578" xlink:href="#DejaVuSans-101"/>
     <use x="582.666016" xlink:href="#DejaVuSans-115"/>
    </g>
   </g>
   <g id="text_18">
    <!-- v2.3.2 -->
    <g style="fill:#808080;" transform="translate(182.46275 294.151352)scale(0.1 -0.1)">
     <use xlink:href="#DejaVuSans-118"/>
     <use x="59.179688" xlink:href="#DejaVuSans-50"/>
     <use x="122.802734" xlink:href="#DejaVuSans-46"/>
     <use x="154.589844" xlink:href="#DejaVuSans-51"/>
     <use x="218.212891" xlink:href="#DejaVuSans-46"/>
     <use x="250" xlink:href="#DejaVuSans-50"/>
    </g>
   </g>
   <g id="text_19">
    <!-- 3 Rastrigin separable -->
    <defs>
     <path d="M 44.390625 34.1875 
Q 47.5625 33.109375 50.5625 29.59375 
Q 53.5625 26.078125 56.59375 19.921875 
L 66.609375 0 
L 56 0 
L 46.6875 18.703125 
Q 43.0625 26.03125 39.671875 28.421875 
Q 36.28125 30.8125 30.421875 30.8125 
L 19.671875 30.8125 
L 19.671875 0 
L 9.8125 0 
L 9.8125 72.90625 
L 32.078125 72.90625 
Q 44.578125 72.90625 50.734375 67.671875 
Q 56.890625 62.453125 56.890625 51.90625 
Q 56.890625 45.015625 53.6875 40.46875 
Q 50.484375 35.9375 44.390625 34.1875 
z
M 19.671875 64.796875 
L 19.671875 38.921875 
L 32.078125 38.921875 
Q 39.203125 38.921875 42.84375 42.21875 
Q 46.484375 45.515625 46.484375 51.90625 
Q 46.484375 58.296875 42.84375 61.546875 
Q 39.203125 64.796875 32.078125 64.796875 
z
" id="DejaVuSans-82"/>
    </defs>
    <g transform="translate(91.511187 21.648)scale(0.2 -0.2)">
     <use xlink:href="#DejaVuSans-51"/>
     <use x="63.623047" xlink:href="#DejaVuSans-32"/>
     <use x="95.410156" xlink:href="#DejaVuSans-82"/>
     <use x="164.861328" xlink:href="#DejaVuSans-97"/>
     <use x="226.140625" xlink:href="#DejaVuSans-115"/>
     <use x="278.240234" xlink:href="#DejaVuSans-116"/>
     <use x="317.449219" xlink:href="#DejaVuSans-114"/>
     <use x="358.5625" xlink:href="#DejaVuSans-105"/>
     <use x="386.345703" xlink:href="#DejaVuSans-103"/>
     <use x="449.822266" xlink:href="#DejaVuSans-105"/>
     <use x="477.605469" xlink:href="#DejaVuSans-110"/>
     <use x="540.984375" xlink:href="#DejaVuSans-32"/>
     <use x="572.771484" xlink:href="#DejaVuSans-115"/>
     <use x="624.871094" xlink:href="#DejaVuSans-101"/>
     <use x="686.394531" xlink:href="#DejaVuSans-112"/>
     <use x="749.871094" xlink:href="#DejaVuSans-97"/>
     <use x="811.150391" xlink:href="#DejaVuSans-114"/>
     <use x="852.263672" xlink:href="#DejaVuSans-97"/>
     <use x="913.542969" xlink:href="#DejaVuSans-98"/>
     <use x="977.019531" xlink:href="#DejaVuSans-108"/>
     <use x="1004.802734" xlink:href="#DejaVuSans-101"/>
    </g>
   </g>
  </g>
 </g>
 <defs>
  <clipPath id="p7db1181c5b">
   <rect height="271.296" width="281.088" x="57.6" y="27.648"/>
  </clipPath>
 </defs>
</svg>
