<?xml version="1.0" encoding="utf-8" standalone="no"?>
<!DOCTYPE svg PUBLIC "-//W3C//DTD SVG 1.1//EN"
  "http://www.w3.org/Graphics/SVG/1.1/DTD/svg11.dtd">
<!-- Created with matplotlib (https://matplotlib.org/) -->
<svg height="345.6pt" version="1.1" viewBox="0 0 460.8 345.6" width="460.8pt" xmlns="http://www.w3.org/2000/svg" xmlns:xlink="http://www.w3.org/1999/xlink">
 <defs>
  <style type="text/css">
*{stroke-linecap:butt;stroke-linejoin:round;}
  </style>
 </defs>
 <g id="figure_1">
  <g id="patch_1">
   <path d="M 0 345.6 
L 460.8 345.6 
L 460.8 0 
L 0 0 
z
" style="fill:#ffffff;"/>
  </g>
  <g id="axes_1">
   <g id="patch_2">
    <path d="M 57.6 298.944 
L 338.688 298.944 
L 338.688 27.648 
L 57.6 27.648 
z
" style="fill:#ffffff;"/>
   </g>
   <g id="matplotlib.axis_1">
    <g id="xtick_1">
     <g id="line2d_1">
      <path clip-path="url(#p04c7bb8225)" d="M 57.6 298.944 
L 57.6 27.648 
" style="fill:none;stroke:#b0b0b0;stroke-linecap:square;stroke-width:0.8;"/>
     </g>
     <g id="line2d_2">
      <defs>
       <path d="M 0 0 
L 0 3.5 
" id="m3bab514340" style="stroke:#000000;stroke-width:0.8;"/>
      </defs>
      <g>
       <use style="stroke:#000000;stroke-width:0.8;" x="57.6" xlink:href="#m3bab514340" y="298.944"/>
      </g>
     </g>
     <g id="text_1">
      <!-- 0 -->
      <defs>
       <path d="M 31.78125 66.40625 
Q 24.171875 66.40625 20.328125 58.90625 
Q 16.5 51.421875 16.5 36.375 
Q 16.5 21.390625 20.328125 13.890625 
Q 24.171875 6.390625 31.78125 6.390625 
Q 39.453125 6.390625 43.28125 13.890625 
Q 47.125 21.390625 47.125 36.375 
Q 47.125 51.421875 43.28125 58.90625 
Q 39.453125 66.40625 31.78125 66.40625 
z
M 31.78125 74.21875 
Q 44.046875 74.21875 50.515625 64.515625 
Q 56.984375 54.828125 56.984375 36.375 
Q 56.984375 17.96875 50.515625 8.265625 
Q 44.046875 -1.421875 31.78125 -1.421875 
Q 19.53125 -1.421875 13.0625 8.265625 
Q 6.59375 17.96875 6.59375 36.375 
Q 6.59375 54.828125 13.0625 64.515625 
Q 19.53125 74.21875 31.78125 74.21875 
z
" id="DejaVuSans-48"/>
      </defs>
      <g transform="translate(51.2375 321.140875)scale(0.2 -0.2)">
       <use xlink:href="#DejaVuSans-48"/>
      </g>
     </g>
    </g>
    <g id="xtick_2">
     <g id="line2d_3">
      <path clip-path="url(#p04c7bb8225)" d="M 137.910857 298.944 
L 137.910857 27.648 
" style="fill:none;stroke:#b0b0b0;stroke-linecap:square;stroke-width:0.8;"/>
     </g>
     <g id="line2d_4">
      <g>
       <use style="stroke:#000000;stroke-width:0.8;" x="137.910857" xlink:href="#m3bab514340" y="298.944"/>
      </g>
     </g>
     <g id="text_2">
      <!-- 2 -->
      <defs>
       <path d="M 19.1875 8.296875 
L 53.609375 8.296875 
L 53.609375 0 
L 7.328125 0 
L 7.328125 8.296875 
Q 12.9375 14.109375 22.625 23.890625 
Q 32.328125 33.6875 34.8125 36.53125 
Q 39.546875 41.84375 41.421875 45.53125 
Q 43.3125 49.21875 43.3125 52.78125 
Q 43.3125 58.59375 39.234375 62.25 
Q 35.15625 65.921875 28.609375 65.921875 
Q 23.96875 65.921875 18.8125 64.3125 
Q 13.671875 62.703125 7.8125 59.421875 
L 7.8125 69.390625 
Q 13.765625 71.78125 18.9375 73 
Q 24.125 74.21875 28.421875 74.21875 
Q 39.75 74.21875 46.484375 68.546875 
Q 53.21875 62.890625 53.21875 53.421875 
Q 53.21875 48.921875 51.53125 44.890625 
Q 49.859375 40.875 45.40625 35.40625 
Q 44.1875 33.984375 37.640625 27.21875 
Q 31.109375 20.453125 19.1875 8.296875 
z
" id="DejaVuSans-50"/>
      </defs>
      <g transform="translate(131.548357 321.140875)scale(0.2 -0.2)">
       <use xlink:href="#DejaVuSans-50"/>
      </g>
     </g>
    </g>
    <g id="xtick_3">
     <g id="line2d_5">
      <path clip-path="url(#p04c7bb8225)" d="M 218.221714 298.944 
L 218.221714 27.648 
" style="fill:none;stroke:#b0b0b0;stroke-linecap:square;stroke-width:0.8;"/>
     </g>
     <g id="line2d_6">
      <g>
       <use style="stroke:#000000;stroke-width:0.8;" x="218.221714" xlink:href="#m3bab514340" y="298.944"/>
      </g>
     </g>
     <g id="text_3">
      <!-- 4 -->
      <defs>
       <path d="M 37.796875 64.3125 
L 12.890625 25.390625 
L 37.796875 25.390625 
z
M 35.203125 72.90625 
L 47.609375 72.90625 
L 47.609375 25.390625 
L 58.015625 25.390625 
L 58.015625 17.1875 
L 47.609375 17.1875 
L 47.609375 0 
L 37.796875 0 
L 37.796875 17.1875 
L 4.890625 17.1875 
L 4.890625 26.703125 
z
" id="DejaVuSans-52"/>
      </defs>
      <g transform="translate(211.859214 321.140875)scale(0.2 -0.2)">
       <use xlink:href="#DejaVuSans-52"/>
      </g>
     </g>
    </g>
    <g id="xtick_4">
     <g id="line2d_7">
      <path clip-path="url(#p04c7bb8225)" d="M 298.532571 298.944 
L 298.532571 27.648 
" style="fill:none;stroke:#b0b0b0;stroke-linecap:square;stroke-width:0.8;"/>
     </g>
     <g id="line2d_8">
      <g>
       <use style="stroke:#000000;stroke-width:0.8;" x="298.532571" xlink:href="#m3bab514340" y="298.944"/>
      </g>
     </g>
     <g id="text_4">
      <!-- 6 -->
      <defs>
       <path d="M 33.015625 40.375 
Q 26.375 40.375 22.484375 35.828125 
Q 18.609375 31.296875 18.609375 23.390625 
Q 18.609375 15.53125 22.484375 10.953125 
Q 26.375 6.390625 33.015625 6.390625 
Q 39.65625 6.390625 43.53125 10.953125 
Q 47.40625 15.53125 47.40625 23.390625 
Q 47.40625 31.296875 43.53125 35.828125 
Q 39.65625 40.375 33.015625 40.375 
z
M 52.59375 71.296875 
L 52.59375 62.3125 
Q 48.875 64.0625 45.09375 64.984375 
Q 41.3125 65.921875 37.59375 65.921875 
Q 27.828125 65.921875 22.671875 59.328125 
Q 17.53125 52.734375 16.796875 39.40625 
Q 19.671875 43.65625 24.015625 45.921875 
Q 28.375 48.1875 33.59375 48.1875 
Q 44.578125 48.1875 50.953125 41.515625 
Q 57.328125 34.859375 57.328125 23.390625 
Q 57.328125 12.15625 50.6875 5.359375 
Q 44.046875 -1.421875 33.015625 -1.421875 
Q 20.359375 -1.421875 13.671875 8.265625 
Q 6.984375 17.96875 6.984375 36.375 
Q 6.984375 53.65625 15.1875 63.9375 
Q 23.390625 74.21875 37.203125 74.21875 
Q 40.921875 74.21875 44.703125 73.484375 
Q 48.484375 72.75 52.59375 71.296875 
z
" id="DejaVuSans-54"/>
      </defs>
      <g transform="translate(292.170071 321.140875)scale(0.2 -0.2)">
       <use xlink:href="#DejaVuSans-54"/>
      </g>
     </g>
    </g>
    <g id="xtick_5">
     <g id="line2d_9">
      <path clip-path="url(#p04c7bb8225)" d="M 57.6 298.944 
L 57.6 27.648 
" style="fill:none;stroke:#b0b0b0;stroke-linecap:square;stroke-width:0.8;"/>
     </g>
     <g id="line2d_10">
      <defs>
       <path d="M 0 0 
L 0 2 
" id="m56b361912a" style="stroke:#000000;stroke-width:0.6;"/>
      </defs>
      <g>
       <use style="stroke:#000000;stroke-width:0.6;" x="57.6" xlink:href="#m56b361912a" y="298.944"/>
      </g>
     </g>
    </g>
    <g id="xtick_6">
     <g id="line2d_11">
      <path clip-path="url(#p04c7bb8225)" d="M 97.755429 298.944 
L 97.755429 27.648 
" style="fill:none;stroke:#b0b0b0;stroke-linecap:square;stroke-width:0.8;"/>
     </g>
     <g id="line2d_12">
      <g>
       <use style="stroke:#000000;stroke-width:0.6;" x="97.755429" xlink:href="#m56b361912a" y="298.944"/>
      </g>
     </g>
    </g>
    <g id="xtick_7">
     <g id="line2d_13">
      <path clip-path="url(#p04c7bb8225)" d="M 137.910857 298.944 
L 137.910857 27.648 
" style="fill:none;stroke:#b0b0b0;stroke-linecap:square;stroke-width:0.8;"/>
     </g>
     <g id="line2d_14">
      <g>
       <use style="stroke:#000000;stroke-width:0.6;" x="137.910857" xlink:href="#m56b361912a" y="298.944"/>
      </g>
     </g>
    </g>
    <g id="xtick_8">
     <g id="line2d_15">
      <path clip-path="url(#p04c7bb8225)" d="M 178.066286 298.944 
L 178.066286 27.648 
" style="fill:none;stroke:#b0b0b0;stroke-linecap:square;stroke-width:0.8;"/>
     </g>
     <g id="line2d_16">
      <g>
       <use style="stroke:#000000;stroke-width:0.6;" x="178.066286" xlink:href="#m56b361912a" y="298.944"/>
      </g>
     </g>
    </g>
    <g id="xtick_9">
     <g id="line2d_17">
      <path clip-path="url(#p04c7bb8225)" d="M 218.221714 298.944 
L 218.221714 27.648 
" style="fill:none;stroke:#b0b0b0;stroke-linecap:square;stroke-width:0.8;"/>
     </g>
     <g id="line2d_18">
      <g>
       <use style="stroke:#000000;stroke-width:0.6;" x="218.221714" xlink:href="#m56b361912a" y="298.944"/>
      </g>
     </g>
    </g>
    <g id="xtick_10">
     <g id="line2d_19">
      <path clip-path="url(#p04c7bb8225)" d="M 258.377143 298.944 
L 258.377143 27.648 
" style="fill:none;stroke:#b0b0b0;stroke-linecap:square;stroke-width:0.8;"/>
     </g>
     <g id="line2d_20">
      <g>
       <use style="stroke:#000000;stroke-width:0.6;" x="258.377143" xlink:href="#m56b361912a" y="298.944"/>
      </g>
     </g>
    </g>
    <g id="xtick_11">
     <g id="line2d_21">
      <path clip-path="url(#p04c7bb8225)" d="M 298.532571 298.944 
L 298.532571 27.648 
" style="fill:none;stroke:#b0b0b0;stroke-linecap:square;stroke-width:0.8;"/>
     </g>
     <g id="line2d_22">
      <g>
       <use style="stroke:#000000;stroke-width:0.6;" x="298.532571" xlink:href="#m56b361912a" y="298.944"/>
      </g>
     </g>
    </g>
    <g id="xtick_12">
     <g id="line2d_23">
      <path clip-path="url(#p04c7bb8225)" d="M 338.688 298.944 
L 338.688 27.648 
" style="fill:none;stroke:#b0b0b0;stroke-linecap:square;stroke-width:0.8;"/>
     </g>
     <g id="line2d_24">
      <g>
       <use style="stroke:#000000;stroke-width:0.6;" x="338.688" xlink:href="#m56b361912a" y="298.944"/>
      </g>
     </g>
    </g>
    <g id="text_5">
     <!-- log10(# f-evals / dimension) -->
     <defs>
      <path d="M 9.421875 75.984375 
L 18.40625 75.984375 
L 18.40625 0 
L 9.421875 0 
z
" id="DejaVuSans-108"/>
      <path d="M 30.609375 48.390625 
Q 23.390625 48.390625 19.1875 42.75 
Q 14.984375 37.109375 14.984375 27.296875 
Q 14.984375 17.484375 19.15625 11.84375 
Q 23.34375 6.203125 30.609375 6.203125 
Q 37.796875 6.203125 41.984375 11.859375 
Q 46.1875 17.53125 46.1875 27.296875 
Q 46.1875 37.015625 41.984375 42.703125 
Q 37.796875 48.390625 30.609375 48.390625 
z
M 30.609375 56 
Q 42.328125 56 49.015625 48.375 
Q 55.71875 40.765625 55.71875 27.296875 
Q 55.71875 13.875 49.015625 6.21875 
Q 42.328125 -1.421875 30.609375 -1.421875 
Q 18.84375 -1.421875 12.171875 6.21875 
Q 5.515625 13.875 5.515625 27.296875 
Q 5.515625 40.765625 12.171875 48.375 
Q 18.84375 56 30.609375 56 
z
" id="DejaVuSans-111"/>
      <path d="M 45.40625 27.984375 
Q 45.40625 37.75 41.375 43.109375 
Q 37.359375 48.484375 30.078125 48.484375 
Q 22.859375 48.484375 18.828125 43.109375 
Q 14.796875 37.75 14.796875 27.984375 
Q 14.796875 18.265625 18.828125 12.890625 
Q 22.859375 7.515625 30.078125 7.515625 
Q 37.359375 7.515625 41.375 12.890625 
Q 45.40625 18.265625 45.40625 27.984375 
z
M 54.390625 6.78125 
Q 54.390625 -7.171875 48.1875 -13.984375 
Q 42 -20.796875 29.203125 -20.796875 
Q 24.46875 -20.796875 20.265625 -20.09375 
Q 16.0625 -19.390625 12.109375 -17.921875 
L 12.109375 -9.1875 
Q 16.0625 -11.328125 19.921875 -12.34375 
Q 23.78125 -13.375 27.78125 -13.375 
Q 36.625 -13.375 41.015625 -8.765625 
Q 45.40625 -4.15625 45.40625 5.171875 
L 45.40625 9.625 
Q 42.625 4.78125 38.28125 2.390625 
Q 33.9375 0 27.875 0 
Q 17.828125 0 11.671875 7.65625 
Q 5.515625 15.328125 5.515625 27.984375 
Q 5.515625 40.671875 11.671875 48.328125 
Q 17.828125 56 27.875 56 
Q 33.9375 56 38.28125 53.609375 
Q 42.625 51.21875 45.40625 46.390625 
L 45.40625 54.6875 
L 54.390625 54.6875 
z
" id="DejaVuSans-103"/>
      <path d="M 12.40625 8.296875 
L 28.515625 8.296875 
L 28.515625 63.921875 
L 10.984375 60.40625 
L 10.984375 69.390625 
L 28.421875 72.90625 
L 38.28125 72.90625 
L 38.28125 8.296875 
L 54.390625 8.296875 
L 54.390625 0 
L 12.40625 0 
z
" id="DejaVuSans-49"/>
      <path d="M 31 75.875 
Q 24.46875 64.65625 21.28125 53.65625 
Q 18.109375 42.671875 18.109375 31.390625 
Q 18.109375 20.125 21.3125 9.0625 
Q 24.515625 -2 31 -13.1875 
L 23.1875 -13.1875 
Q 15.875 -1.703125 12.234375 9.375 
Q 8.59375 20.453125 8.59375 31.390625 
Q 8.59375 42.28125 12.203125 53.3125 
Q 15.828125 64.359375 23.1875 75.875 
z
" id="DejaVuSans-40"/>
      <path d="M 51.125 44 
L 36.921875 44 
L 32.8125 27.6875 
L 47.125 27.6875 
z
M 43.796875 71.78125 
L 38.71875 51.515625 
L 52.984375 51.515625 
L 58.109375 71.78125 
L 65.921875 71.78125 
L 60.890625 51.515625 
L 76.125 51.515625 
L 76.125 44 
L 58.984375 44 
L 54.984375 27.6875 
L 70.515625 27.6875 
L 70.515625 20.21875 
L 53.078125 20.21875 
L 48 0 
L 40.1875 0 
L 45.21875 20.21875 
L 30.90625 20.21875 
L 25.875 0 
L 18.015625 0 
L 23.09375 20.21875 
L 7.71875 20.21875 
L 7.71875 27.6875 
L 24.90625 27.6875 
L 29 44 
L 13.28125 44 
L 13.28125 51.515625 
L 30.90625 51.515625 
L 35.890625 71.78125 
z
" id="DejaVuSans-35"/>
      <path id="DejaVuSans-32"/>
      <path d="M 37.109375 75.984375 
L 37.109375 68.5 
L 28.515625 68.5 
Q 23.6875 68.5 21.796875 66.546875 
Q 19.921875 64.59375 19.921875 59.515625 
L 19.921875 54.6875 
L 34.71875 54.6875 
L 34.71875 47.703125 
L 19.921875 47.703125 
L 19.921875 0 
L 10.890625 0 
L 10.890625 47.703125 
L 2.296875 47.703125 
L 2.296875 54.6875 
L 10.890625 54.6875 
L 10.890625 58.5 
Q 10.890625 67.625 15.140625 71.796875 
Q 19.390625 75.984375 28.609375 75.984375 
z
" id="DejaVuSans-102"/>
      <path d="M 4.890625 31.390625 
L 31.203125 31.390625 
L 31.203125 23.390625 
L 4.890625 23.390625 
z
" id="DejaVuSans-45"/>
      <path d="M 56.203125 29.59375 
L 56.203125 25.203125 
L 14.890625 25.203125 
Q 15.484375 15.921875 20.484375 11.0625 
Q 25.484375 6.203125 34.421875 6.203125 
Q 39.59375 6.203125 44.453125 7.46875 
Q 49.3125 8.734375 54.109375 11.28125 
L 54.109375 2.78125 
Q 49.265625 0.734375 44.1875 -0.34375 
Q 39.109375 -1.421875 33.890625 -1.421875 
Q 20.796875 -1.421875 13.15625 6.1875 
Q 5.515625 13.8125 5.515625 26.8125 
Q 5.515625 40.234375 12.765625 48.109375 
Q 20.015625 56 32.328125 56 
Q 43.359375 56 49.78125 48.890625 
Q 56.203125 41.796875 56.203125 29.59375 
z
M 47.21875 32.234375 
Q 47.125 39.59375 43.09375 43.984375 
Q 39.0625 48.390625 32.421875 48.390625 
Q 24.90625 48.390625 20.390625 44.140625 
Q 15.875 39.890625 15.1875 32.171875 
z
" id="DejaVuSans-101"/>
      <path d="M 2.984375 54.6875 
L 12.5 54.6875 
L 29.59375 8.796875 
L 46.6875 54.6875 
L 56.203125 54.6875 
L 35.6875 0 
L 23.484375 0 
z
" id="DejaVuSans-118"/>
      <path d="M 34.28125 27.484375 
Q 23.390625 27.484375 19.1875 25 
Q 14.984375 22.515625 14.984375 16.5 
Q 14.984375 11.71875 18.140625 8.90625 
Q 21.296875 6.109375 26.703125 6.109375 
Q 34.1875 6.109375 38.703125 11.40625 
Q 43.21875 16.703125 43.21875 25.484375 
L 43.21875 27.484375 
z
M 52.203125 31.203125 
L 52.203125 0 
L 43.21875 0 
L 43.21875 8.296875 
Q 40.140625 3.328125 35.546875 0.953125 
Q 30.953125 -1.421875 24.3125 -1.421875 
Q 15.921875 -1.421875 10.953125 3.296875 
Q 6 8.015625 6 15.921875 
Q 6 25.140625 12.171875 29.828125 
Q 18.359375 34.515625 30.609375 34.515625 
L 43.21875 34.515625 
L 43.21875 35.40625 
Q 43.21875 41.609375 39.140625 45 
Q 35.0625 48.390625 27.6875 48.390625 
Q 23 48.390625 18.546875 47.265625 
Q 14.109375 46.140625 10.015625 43.890625 
L 10.015625 52.203125 
Q 14.9375 54.109375 19.578125 55.046875 
Q 24.21875 56 28.609375 56 
Q 40.484375 56 46.34375 49.84375 
Q 52.203125 43.703125 52.203125 31.203125 
z
" id="DejaVuSans-97"/>
      <path d="M 44.28125 53.078125 
L 44.28125 44.578125 
Q 40.484375 46.53125 36.375 47.5 
Q 32.28125 48.484375 27.875 48.484375 
Q 21.1875 48.484375 17.84375 46.4375 
Q 14.5 44.390625 14.5 40.28125 
Q 14.5 37.15625 16.890625 35.375 
Q 19.28125 33.59375 26.515625 31.984375 
L 29.59375 31.296875 
Q 39.15625 29.25 43.1875 25.515625 
Q 47.21875 21.78125 47.21875 15.09375 
Q 47.21875 7.46875 41.1875 3.015625 
Q 35.15625 -1.421875 24.609375 -1.421875 
Q 20.21875 -1.421875 15.453125 -0.5625 
Q 10.6875 0.296875 5.421875 2 
L 5.421875 11.28125 
Q 10.40625 8.6875 15.234375 7.390625 
Q 20.0625 6.109375 24.8125 6.109375 
Q 31.15625 6.109375 34.5625 8.28125 
Q 37.984375 10.453125 37.984375 14.40625 
Q 37.984375 18.0625 35.515625 20.015625 
Q 33.0625 21.96875 24.703125 23.78125 
L 21.578125 24.515625 
Q 13.234375 26.265625 9.515625 29.90625 
Q 5.8125 33.546875 5.8125 39.890625 
Q 5.8125 47.609375 11.28125 51.796875 
Q 16.75 56 26.8125 56 
Q 31.78125 56 36.171875 55.265625 
Q 40.578125 54.546875 44.28125 53.078125 
z
" id="DejaVuSans-115"/>
      <path d="M 25.390625 72.90625 
L 33.6875 72.90625 
L 8.296875 -9.28125 
L 0 -9.28125 
z
" id="DejaVuSans-47"/>
      <path d="M 45.40625 46.390625 
L 45.40625 75.984375 
L 54.390625 75.984375 
L 54.390625 0 
L 45.40625 0 
L 45.40625 8.203125 
Q 42.578125 3.328125 38.25 0.953125 
Q 33.9375 -1.421875 27.875 -1.421875 
Q 17.96875 -1.421875 11.734375 6.484375 
Q 5.515625 14.40625 5.515625 27.296875 
Q 5.515625 40.1875 11.734375 48.09375 
Q 17.96875 56 27.875 56 
Q 33.9375 56 38.25 53.625 
Q 42.578125 51.265625 45.40625 46.390625 
z
M 14.796875 27.296875 
Q 14.796875 17.390625 18.875 11.75 
Q 22.953125 6.109375 30.078125 6.109375 
Q 37.203125 6.109375 41.296875 11.75 
Q 45.40625 17.390625 45.40625 27.296875 
Q 45.40625 37.203125 41.296875 42.84375 
Q 37.203125 48.484375 30.078125 48.484375 
Q 22.953125 48.484375 18.875 42.84375 
Q 14.796875 37.203125 14.796875 27.296875 
z
" id="DejaVuSans-100"/>
      <path d="M 9.421875 54.6875 
L 18.40625 54.6875 
L 18.40625 0 
L 9.421875 0 
z
M 9.421875 75.984375 
L 18.40625 75.984375 
L 18.40625 64.59375 
L 9.421875 64.59375 
z
" id="DejaVuSans-105"/>
      <path d="M 52 44.1875 
Q 55.375 50.25 60.0625 53.125 
Q 64.75 56 71.09375 56 
Q 79.640625 56 84.28125 50.015625 
Q 88.921875 44.046875 88.921875 33.015625 
L 88.921875 0 
L 79.890625 0 
L 79.890625 32.71875 
Q 79.890625 40.578125 77.09375 44.375 
Q 74.3125 48.1875 68.609375 48.1875 
Q 61.625 48.1875 57.5625 43.546875 
Q 53.515625 38.921875 53.515625 30.90625 
L 53.515625 0 
L 44.484375 0 
L 44.484375 32.71875 
Q 44.484375 40.625 41.703125 44.40625 
Q 38.921875 48.1875 33.109375 48.1875 
Q 26.21875 48.1875 22.15625 43.53125 
Q 18.109375 38.875 18.109375 30.90625 
L 18.109375 0 
L 9.078125 0 
L 9.078125 54.6875 
L 18.109375 54.6875 
L 18.109375 46.1875 
Q 21.1875 51.21875 25.484375 53.609375 
Q 29.78125 56 35.6875 56 
Q 41.65625 56 45.828125 52.96875 
Q 50 49.953125 52 44.1875 
z
" id="DejaVuSans-109"/>
      <path d="M 54.890625 33.015625 
L 54.890625 0 
L 45.90625 0 
L 45.90625 32.71875 
Q 45.90625 40.484375 42.875 44.328125 
Q 39.84375 48.1875 33.796875 48.1875 
Q 26.515625 48.1875 22.3125 43.546875 
Q 18.109375 38.921875 18.109375 30.90625 
L 18.109375 0 
L 9.078125 0 
L 9.078125 54.6875 
L 18.109375 54.6875 
L 18.109375 46.1875 
Q 21.34375 51.125 25.703125 53.5625 
Q 30.078125 56 35.796875 56 
Q 45.21875 56 50.046875 50.171875 
Q 54.890625 44.34375 54.890625 33.015625 
z
" id="DejaVuSans-110"/>
      <path d="M 8.015625 75.875 
L 15.828125 75.875 
Q 23.140625 64.359375 26.78125 53.3125 
Q 30.421875 42.28125 30.421875 31.390625 
Q 30.421875 20.453125 26.78125 9.375 
Q 23.140625 -1.703125 15.828125 -13.1875 
L 8.015625 -13.1875 
Q 14.5 -2 17.703125 9.0625 
Q 20.90625 20.125 20.90625 31.390625 
Q 20.90625 42.671875 17.703125 53.65625 
Q 14.5 64.65625 8.015625 75.875 
z
" id="DejaVuSans-41"/>
     </defs>
     <g transform="translate(77.303219 342.217594)scale(0.17 -0.17)">
      <use xlink:href="#DejaVuSans-108"/>
      <use x="27.783203" xlink:href="#DejaVuSans-111"/>
      <use x="88.964844" xlink:href="#DejaVuSans-103"/>
      <use x="152.441406" xlink:href="#DejaVuSans-49"/>
      <use x="216.064453" xlink:href="#DejaVuSans-48"/>
      <use x="279.6875" xlink:href="#DejaVuSans-40"/>
      <use x="318.701172" xlink:href="#DejaVuSans-35"/>
      <use x="402.490234" xlink:href="#DejaVuSans-32"/>
      <use x="434.277344" xlink:href="#DejaVuSans-102"/>
      <use x="469.404297" xlink:href="#DejaVuSans-45"/>
      <use x="505.488281" xlink:href="#DejaVuSans-101"/>
      <use x="567.011719" xlink:href="#DejaVuSans-118"/>
      <use x="626.191406" xlink:href="#DejaVuSans-97"/>
      <use x="687.470703" xlink:href="#DejaVuSans-108"/>
      <use x="715.253906" xlink:href="#DejaVuSans-115"/>
      <use x="767.353516" xlink:href="#DejaVuSans-32"/>
      <use x="799.140625" xlink:href="#DejaVuSans-47"/>
      <use x="832.832031" xlink:href="#DejaVuSans-32"/>
      <use x="864.619141" xlink:href="#DejaVuSans-100"/>
      <use x="928.095703" xlink:href="#DejaVuSans-105"/>
      <use x="955.878906" xlink:href="#DejaVuSans-109"/>
      <use x="1053.291016" xlink:href="#DejaVuSans-101"/>
      <use x="1114.814453" xlink:href="#DejaVuSans-110"/>
      <use x="1178.193359" xlink:href="#DejaVuSans-115"/>
      <use x="1230.292969" xlink:href="#DejaVuSans-105"/>
      <use x="1258.076172" xlink:href="#DejaVuSans-111"/>
      <use x="1319.257812" xlink:href="#DejaVuSans-110"/>
      <use x="1382.636719" xlink:href="#DejaVuSans-41"/>
     </g>
    </g>
   </g>
   <g id="matplotlib.axis_2">
    <g id="ytick_1">
     <g id="line2d_25">
      <path clip-path="url(#p04c7bb8225)" d="M 57.6 298.944 
L 338.688 298.944 
" style="fill:none;stroke:#b0b0b0;stroke-linecap:square;stroke-width:0.8;"/>
     </g>
     <g id="line2d_26">
      <defs>
       <path d="M 0 0 
L -3.5 0 
" id="ma27419c3dc" style="stroke:#000000;stroke-width:0.8;"/>
      </defs>
      <g>
       <use style="stroke:#000000;stroke-width:0.8;" x="57.6" xlink:href="#ma27419c3dc" y="298.944"/>
      </g>
     </g>
     <g id="text_6">
      <!-- 0.0 -->
      <defs>
       <path d="M 10.6875 12.40625 
L 21 12.40625 
L 21 0 
L 10.6875 0 
z
" id="DejaVuSans-46"/>
      </defs>
      <g transform="translate(25.155 305.02275)scale(0.16 -0.16)">
       <use xlink:href="#DejaVuSans-48"/>
       <use x="63.623047" xlink:href="#DejaVuSans-46"/>
       <use x="95.410156" xlink:href="#DejaVuSans-48"/>
      </g>
     </g>
    </g>
    <g id="ytick_2">
     <g id="line2d_27">
      <path clip-path="url(#p04c7bb8225)" d="M 57.6 245.22202 
L 338.688 245.22202 
" style="fill:none;stroke:#b0b0b0;stroke-linecap:square;stroke-width:0.8;"/>
     </g>
     <g id="line2d_28">
      <g>
       <use style="stroke:#000000;stroke-width:0.8;" x="57.6" xlink:href="#ma27419c3dc" y="245.22202"/>
      </g>
     </g>
     <g id="text_7">
      <!-- 0.2 -->
      <g transform="translate(25.155 251.30077)scale(0.16 -0.16)">
       <use xlink:href="#DejaVuSans-48"/>
       <use x="63.623047" xlink:href="#DejaVuSans-46"/>
       <use x="95.410156" xlink:href="#DejaVuSans-50"/>
      </g>
     </g>
    </g>
    <g id="ytick_3">
     <g id="line2d_29">
      <path clip-path="url(#p04c7bb8225)" d="M 57.6 191.50004 
L 338.688 191.50004 
" style="fill:none;stroke:#b0b0b0;stroke-linecap:square;stroke-width:0.8;"/>
     </g>
     <g id="line2d_30">
      <g>
       <use style="stroke:#000000;stroke-width:0.8;" x="57.6" xlink:href="#ma27419c3dc" y="191.50004"/>
      </g>
     </g>
     <g id="text_8">
      <!-- 0.4 -->
      <g transform="translate(25.155 197.57879)scale(0.16 -0.16)">
       <use xlink:href="#DejaVuSans-48"/>
       <use x="63.623047" xlink:href="#DejaVuSans-46"/>
       <use x="95.410156" xlink:href="#DejaVuSans-52"/>
      </g>
     </g>
    </g>
    <g id="ytick_4">
     <g id="line2d_31">
      <path clip-path="url(#p04c7bb8225)" d="M 57.6 137.778059 
L 338.688 137.778059 
" style="fill:none;stroke:#b0b0b0;stroke-linecap:square;stroke-width:0.8;"/>
     </g>
     <g id="line2d_32">
      <g>
       <use style="stroke:#000000;stroke-width:0.8;" x="57.6" xlink:href="#ma27419c3dc" y="137.778059"/>
      </g>
     </g>
     <g id="text_9">
      <!-- 0.6 -->
      <g transform="translate(25.155 143.856809)scale(0.16 -0.16)">
       <use xlink:href="#DejaVuSans-48"/>
       <use x="63.623047" xlink:href="#DejaVuSans-46"/>
       <use x="95.410156" xlink:href="#DejaVuSans-54"/>
      </g>
     </g>
    </g>
    <g id="ytick_5">
     <g id="line2d_33">
      <path clip-path="url(#p04c7bb8225)" d="M 57.6 84.056079 
L 338.688 84.056079 
" style="fill:none;stroke:#b0b0b0;stroke-linecap:square;stroke-width:0.8;"/>
     </g>
     <g id="line2d_34">
      <g>
       <use style="stroke:#000000;stroke-width:0.8;" x="57.6" xlink:href="#ma27419c3dc" y="84.056079"/>
      </g>
     </g>
     <g id="text_10">
      <!-- 0.8 -->
      <defs>
       <path d="M 31.78125 34.625 
Q 24.75 34.625 20.71875 30.859375 
Q 16.703125 27.09375 16.703125 20.515625 
Q 16.703125 13.921875 20.71875 10.15625 
Q 24.75 6.390625 31.78125 6.390625 
Q 38.8125 6.390625 42.859375 10.171875 
Q 46.921875 13.96875 46.921875 20.515625 
Q 46.921875 27.09375 42.890625 30.859375 
Q 38.875 34.625 31.78125 34.625 
z
M 21.921875 38.8125 
Q 15.578125 40.375 12.03125 44.71875 
Q 8.5 49.078125 8.5 55.328125 
Q 8.5 64.0625 14.71875 69.140625 
Q 20.953125 74.21875 31.78125 74.21875 
Q 42.671875 74.21875 48.875 69.140625 
Q 55.078125 64.0625 55.078125 55.328125 
Q 55.078125 49.078125 51.53125 44.71875 
Q 48 40.375 41.703125 38.8125 
Q 48.828125 37.15625 52.796875 32.3125 
Q 56.78125 27.484375 56.78125 20.515625 
Q 56.78125 9.90625 50.3125 4.234375 
Q 43.84375 -1.421875 31.78125 -1.421875 
Q 19.734375 -1.421875 13.25 4.234375 
Q 6.78125 9.90625 6.78125 20.515625 
Q 6.78125 27.484375 10.78125 32.3125 
Q 14.796875 37.15625 21.921875 38.8125 
z
M 18.3125 54.390625 
Q 18.3125 48.734375 21.84375 45.5625 
Q 25.390625 42.390625 31.78125 42.390625 
Q 38.140625 42.390625 41.71875 45.5625 
Q 45.3125 48.734375 45.3125 54.390625 
Q 45.3125 60.0625 41.71875 63.234375 
Q 38.140625 66.40625 31.78125 66.40625 
Q 25.390625 66.40625 21.84375 63.234375 
Q 18.3125 60.0625 18.3125 54.390625 
z
" id="DejaVuSans-56"/>
      </defs>
      <g transform="translate(25.155 90.134829)scale(0.16 -0.16)">
       <use xlink:href="#DejaVuSans-48"/>
       <use x="63.623047" xlink:href="#DejaVuSans-46"/>
       <use x="95.410156" xlink:href="#DejaVuSans-56"/>
      </g>
     </g>
    </g>
    <g id="ytick_6">
     <g id="line2d_35">
      <path clip-path="url(#p04c7bb8225)" d="M 57.6 30.334099 
L 338.688 30.334099 
" style="fill:none;stroke:#b0b0b0;stroke-linecap:square;stroke-width:0.8;"/>
     </g>
     <g id="line2d_36">
      <g>
       <use style="stroke:#000000;stroke-width:0.8;" x="57.6" xlink:href="#ma27419c3dc" y="30.334099"/>
      </g>
     </g>
     <g id="text_11">
      <!-- 1.0 -->
      <g transform="translate(25.155 36.412849)scale(0.16 -0.16)">
       <use xlink:href="#DejaVuSans-49"/>
       <use x="63.623047" xlink:href="#DejaVuSans-46"/>
       <use x="95.410156" xlink:href="#DejaVuSans-48"/>
      </g>
     </g>
    </g>
    <g id="text_12">
     <!-- Fraction of function,target pairs -->
     <defs>
      <path d="M 9.8125 72.90625 
L 51.703125 72.90625 
L 51.703125 64.59375 
L 19.671875 64.59375 
L 19.671875 43.109375 
L 48.578125 43.109375 
L 48.578125 34.8125 
L 19.671875 34.8125 
L 19.671875 0 
L 9.8125 0 
z
" id="DejaVuSans-70"/>
      <path d="M 41.109375 46.296875 
Q 39.59375 47.171875 37.8125 47.578125 
Q 36.03125 48 33.890625 48 
Q 26.265625 48 22.1875 43.046875 
Q 18.109375 38.09375 18.109375 28.8125 
L 18.109375 0 
L 9.078125 0 
L 9.078125 54.6875 
L 18.109375 54.6875 
L 18.109375 46.1875 
Q 20.953125 51.171875 25.484375 53.578125 
Q 30.03125 56 36.53125 56 
Q 37.453125 56 38.578125 55.875 
Q 39.703125 55.765625 41.0625 55.515625 
z
" id="DejaVuSans-114"/>
      <path d="M 48.78125 52.59375 
L 48.78125 44.1875 
Q 44.96875 46.296875 41.140625 47.34375 
Q 37.3125 48.390625 33.40625 48.390625 
Q 24.65625 48.390625 19.8125 42.84375 
Q 14.984375 37.3125 14.984375 27.296875 
Q 14.984375 17.28125 19.8125 11.734375 
Q 24.65625 6.203125 33.40625 6.203125 
Q 37.3125 6.203125 41.140625 7.25 
Q 44.96875 8.296875 48.78125 10.40625 
L 48.78125 2.09375 
Q 45.015625 0.34375 40.984375 -0.53125 
Q 36.96875 -1.421875 32.421875 -1.421875 
Q 20.0625 -1.421875 12.78125 6.34375 
Q 5.515625 14.109375 5.515625 27.296875 
Q 5.515625 40.671875 12.859375 48.328125 
Q 20.21875 56 33.015625 56 
Q 37.15625 56 41.109375 55.140625 
Q 45.0625 54.296875 48.78125 52.59375 
z
" id="DejaVuSans-99"/>
      <path d="M 18.3125 70.21875 
L 18.3125 54.6875 
L 36.8125 54.6875 
L 36.8125 47.703125 
L 18.3125 47.703125 
L 18.3125 18.015625 
Q 18.3125 11.328125 20.140625 9.421875 
Q 21.96875 7.515625 27.59375 7.515625 
L 36.8125 7.515625 
L 36.8125 0 
L 27.59375 0 
Q 17.1875 0 13.234375 3.875 
Q 9.28125 7.765625 9.28125 18.015625 
L 9.28125 47.703125 
L 2.6875 47.703125 
L 2.6875 54.6875 
L 9.28125 54.6875 
L 9.28125 70.21875 
z
" id="DejaVuSans-116"/>
      <path d="M 8.5 21.578125 
L 8.5 54.6875 
L 17.484375 54.6875 
L 17.484375 21.921875 
Q 17.484375 14.15625 20.5 10.265625 
Q 23.53125 6.390625 29.59375 6.390625 
Q 36.859375 6.390625 41.078125 11.03125 
Q 45.3125 15.671875 45.3125 23.6875 
L 45.3125 54.6875 
L 54.296875 54.6875 
L 54.296875 0 
L 45.3125 0 
L 45.3125 8.40625 
Q 42.046875 3.421875 37.71875 1 
Q 33.40625 -1.421875 27.6875 -1.421875 
Q 18.265625 -1.421875 13.375 4.4375 
Q 8.5 10.296875 8.5 21.578125 
z
M 31.109375 56 
z
" id="DejaVuSans-117"/>
      <path d="M 11.71875 12.40625 
L 22.015625 12.40625 
L 22.015625 4 
L 14.015625 -11.625 
L 7.71875 -11.625 
L 11.71875 4 
z
" id="DejaVuSans-44"/>
      <path d="M 18.109375 8.203125 
L 18.109375 -20.796875 
L 9.078125 -20.796875 
L 9.078125 54.6875 
L 18.109375 54.6875 
L 18.109375 46.390625 
Q 20.953125 51.265625 25.265625 53.625 
Q 29.59375 56 35.59375 56 
Q 45.5625 56 51.78125 48.09375 
Q 58.015625 40.1875 58.015625 27.296875 
Q 58.015625 14.40625 51.78125 6.484375 
Q 45.5625 -1.421875 35.59375 -1.421875 
Q 29.59375 -1.421875 25.265625 0.953125 
Q 20.953125 3.328125 18.109375 8.203125 
z
M 48.6875 27.296875 
Q 48.6875 37.203125 44.609375 42.84375 
Q 40.53125 48.484375 33.40625 48.484375 
Q 26.265625 48.484375 22.1875 42.84375 
Q 18.109375 37.203125 18.109375 27.296875 
Q 18.109375 17.390625 22.1875 11.75 
Q 26.265625 6.109375 33.40625 6.109375 
Q 40.53125 6.109375 44.609375 11.75 
Q 48.6875 17.390625 48.6875 27.296875 
z
" id="DejaVuSans-112"/>
     </defs>
     <g transform="translate(17.619531 298.435375)rotate(-90)scale(0.17 -0.17)">
      <use xlink:href="#DejaVuSans-70"/>
      <use x="57.410156" xlink:href="#DejaVuSans-114"/>
      <use x="98.523438" xlink:href="#DejaVuSans-97"/>
      <use x="159.802734" xlink:href="#DejaVuSans-99"/>
      <use x="214.783203" xlink:href="#DejaVuSans-116"/>
      <use x="253.992188" xlink:href="#DejaVuSans-105"/>
      <use x="281.775391" xlink:href="#DejaVuSans-111"/>
      <use x="342.957031" xlink:href="#DejaVuSans-110"/>
      <use x="406.335938" xlink:href="#DejaVuSans-32"/>
      <use x="438.123047" xlink:href="#DejaVuSans-111"/>
      <use x="499.304688" xlink:href="#DejaVuSans-102"/>
      <use x="534.509766" xlink:href="#DejaVuSans-32"/>
      <use x="566.296875" xlink:href="#DejaVuSans-102"/>
      <use x="601.501953" xlink:href="#DejaVuSans-117"/>
      <use x="664.880859" xlink:href="#DejaVuSans-110"/>
      <use x="728.259766" xlink:href="#DejaVuSans-99"/>
      <use x="783.240234" xlink:href="#DejaVuSans-116"/>
      <use x="822.449219" xlink:href="#DejaVuSans-105"/>
      <use x="850.232422" xlink:href="#DejaVuSans-111"/>
      <use x="911.414062" xlink:href="#DejaVuSans-110"/>
      <use x="974.792969" xlink:href="#DejaVuSans-44"/>
      <use x="1006.580078" xlink:href="#DejaVuSans-116"/>
      <use x="1045.789062" xlink:href="#DejaVuSans-97"/>
      <use x="1107.068359" xlink:href="#DejaVuSans-114"/>
      <use x="1148.166016" xlink:href="#DejaVuSans-103"/>
      <use x="1211.642578" xlink:href="#DejaVuSans-101"/>
      <use x="1273.166016" xlink:href="#DejaVuSans-116"/>
      <use x="1312.375" xlink:href="#DejaVuSans-32"/>
      <use x="1344.162109" xlink:href="#DejaVuSans-112"/>
      <use x="1407.638672" xlink:href="#DejaVuSans-97"/>
      <use x="1468.917969" xlink:href="#DejaVuSans-105"/>
      <use x="1496.701172" xlink:href="#DejaVuSans-114"/>
      <use x="1537.814453" xlink:href="#DejaVuSans-115"/>
     </g>
    </g>
   </g>
   <g id="line2d_37">
    <defs>
     <path d="M 0 1.5 
C 0.397805 1.5 0.77937 1.341951 1.06066 1.06066 
C 1.341951 0.77937 1.5 0.397805 1.5 0 
C 1.5 -0.397805 1.341951 -0.77937 1.06066 -1.06066 
C 0.77937 -1.341951 0.397805 -1.5 0 -1.5 
C -0.397805 -1.5 -0.77937 -1.341951 -1.06066 -1.06066 
C -1.341951 -0.77937 -1.5 -0.397805 -1.5 0 
C -1.5 0.397805 -1.341951 0.77937 -1.06066 1.06066 
C -0.77937 1.341951 -0.397805 1.5 0 1.5 
z
" id="m61a9fadcfa" style="stroke:#000080;"/>
    </defs>
    <g>
     <use style="fill:#000080;stroke:#000080;" x="343.544823" xlink:href="#m61a9fadcfa" y="225.207949"/>
     <use style="fill:#000080;stroke:#000080;" x="343.544823" xlink:href="#m61a9fadcfa" y="225.207949"/>
    </g>
   </g>
   <g id="line2d_38">
    <path d="M 29.53256 298.944 
L 29.53256 298.417314 
L 85.315119 298.417314 
L 85.315119 297.890628 
L 96.301313 297.890628 
L 96.301313 297.363942 
L 98.270913 297.363942 
L 98.270913 296.837256 
L 101.506816 296.837256 
L 101.506816 296.31057 
L 102.728744 296.31057 
L 102.728744 295.783884 
L 104.114542 295.783884 
L 104.114542 295.257197 
L 110.103064 295.257197 
L 110.103064 294.730511 
L 111.663381 294.730511 
L 111.663381 294.203825 
L 113.73488 294.203825 
L 113.73488 293.677139 
L 114.485807 293.677139 
L 114.485807 293.150453 
L 118.994305 293.150453 
L 118.994305 292.623767 
L 124.632135 292.623767 
L 124.632135 292.097081 
L 127.067859 292.097081 
L 127.067859 291.570395 
L 127.799239 291.570395 
L 127.799239 291.043709 
L 131.338382 291.043709 
L 131.338382 290.517023 
L 131.913493 290.517023 
L 131.913493 289.990337 
L 133.600213 289.990337 
L 133.600213 289.463651 
L 134.598256 289.463651 
L 134.598256 288.936964 
L 138.084384 288.936964 
L 138.084384 288.410278 
L 141.061324 288.410278 
L 141.061324 287.883592 
L 152.114793 287.883592 
L 152.114793 287.356906 
L 152.684631 287.356906 
L 152.684631 286.83022 
L 154.249325 286.83022 
L 154.249325 286.303534 
L 154.952482 286.303534 
L 154.952482 285.776848 
L 155.741666 285.776848 
L 155.741666 285.250162 
L 158.276927 285.250162 
L 158.276927 284.723476 
L 159.390562 284.723476 
L 159.390562 284.19679 
L 160.741375 284.19679 
L 160.741375 283.670104 
L 161.716709 283.670104 
L 161.716709 283.143418 
L 161.893939 283.143418 
L 161.92917 282.090045 
L 163.871412 282.090045 
L 163.871412 281.563359 
L 167.643609 281.563359 
L 167.643609 281.036673 
L 169.008987 281.036673 
L 169.008987 280.509987 
L 176.79883 280.509987 
L 176.79883 279.983301 
L 177.305262 279.983301 
L 177.305262 279.456615 
L 177.726417 279.456615 
L 177.726417 278.929929 
L 178.647678 278.929929 
L 178.647678 277.876557 
L 179.179252 277.876557 
L 179.179252 277.349871 
L 179.999004 277.349871 
L 179.999004 276.823185 
L 180.946826 276.823185 
L 180.946826 276.296499 
L 181.7458 276.296499 
L 181.7458 275.769812 
L 182.474588 275.769812 
L 182.474588 275.243126 
L 182.684605 275.243126 
L 182.684605 274.71644 
L 184.003738 274.71644 
L 184.003738 274.189754 
L 184.851294 274.189754 
L 184.851294 273.663068 
L 184.984334 273.663068 
L 184.984334 273.136382 
L 188.525846 273.136382 
L 188.525846 272.609696 
L 189.13263 272.609696 
L 189.13263 272.08301 
L 193.488642 272.08301 
L 193.488642 271.556324 
L 196.859919 271.556324 
L 196.859919 271.029638 
L 197.395943 271.029638 
L 197.395943 270.502952 
L 198.160109 270.502952 
L 198.160109 269.976266 
L 200.050553 269.976266 
L 200.050553 269.449579 
L 217.674879 269.449579 
L 217.674879 268.922893 
L 217.843037 268.922893 
L 217.843037 268.396207 
L 218.01753 268.396207 
L 218.01753 267.869521 
L 222.97374 267.869521 
L 222.97374 267.342835 
L 223.894512 267.342835 
L 223.894512 266.816149 
L 224.148617 266.816149 
L 224.235426 265.762777 
L 225.560741 265.762777 
L 225.655964 264.709405 
L 225.784046 264.709405 
L 225.784046 264.182719 
L 237.925924 264.182719 
L 237.925924 263.656033 
L 238.259192 263.656033 
L 238.259192 263.129347 
L 279.697654 263.129347 
L 279.697654 262.60266 
L 280.210815 262.60266 
L 280.210815 262.075974 
L 280.671507 262.075974 
L 280.671507 261.549288 
L 280.79179 261.549288 
L 280.885608 259.96923 
L 280.955532 259.96923 
L 280.955532 259.442544 
L 281.098393 259.442544 
L 281.098393 258.915858 
L 281.622373 258.915858 
L 281.622373 258.389172 
L 281.778319 258.389172 
L 281.778319 257.862486 
L 282.186174 257.862486 
L 282.186174 257.3358 
L 282.341855 257.3358 
L 282.341855 256.809114 
L 283.35385 256.809114 
L 283.35385 256.282427 
L 283.474339 256.282427 
L 283.474339 255.755741 
L 292.80723 255.755741 
L 292.887217 254.702369 
L 293.385332 254.702369 
L 293.449042 253.122311 
L 293.594112 253.122311 
L 293.687483 252.068939 
L 293.763924 252.068939 
L 293.80633 251.015567 
L 293.911313 251.015567 
L 293.911313 250.488881 
L 300.007714 250.488881 
L 300.075749 249.435508 
L 300.229336 249.435508 
L 300.340337 248.382136 
L 300.442326 248.382136 
L 300.442326 247.85545 
L 300.692926 247.85545 
L 300.776035 246.802078 
L 300.825488 246.802078 
L 300.925924 245.748706 
L 301.337979 245.748706 
L 301.337979 245.22202 
L 301.480042 245.22202 
L 301.480042 244.695334 
L 304.362166 244.695334 
L 304.362166 244.168648 
L 304.814222 244.168648 
L 304.814222 243.641962 
L 305.001604 243.641962 
L 305.099738 242.588589 
L 306.177797 242.588589 
L 306.177797 242.061903 
L 308.790619 242.061903 
L 308.790619 241.535217 
L 309.657742 241.535217 
L 309.657742 241.008531 
L 309.940887 241.008531 
L 309.940887 240.481845 
L 312.078204 240.481845 
L 312.078204 239.955159 
L 312.459757 239.955159 
L 312.459757 239.428473 
L 312.730676 239.428473 
L 312.730676 238.901787 
L 312.936108 238.901787 
L 312.936108 238.375101 
L 314.827786 238.375101 
L 314.827786 237.848415 
L 315.494071 237.848415 
L 315.494071 237.321729 
L 315.890277 237.321729 
L 315.890277 236.795043 
L 317.22491 236.795043 
L 317.22491 236.268356 
L 317.608179 236.268356 
L 317.608179 235.74167 
L 321.321028 235.74167 
L 321.321028 235.214984 
L 322.218782 235.214984 
L 322.218782 234.688298 
L 323.020265 234.688298 
L 323.020265 234.161612 
L 323.388424 234.161612 
L 323.388424 233.634926 
L 324.210564 233.634926 
L 324.263428 232.581554 
L 324.687276 232.581554 
L 324.687276 232.054868 
L 324.842288 232.054868 
L 324.842288 231.528182 
L 326.655919 231.528182 
L 326.655919 231.001496 
L 330.895751 231.001496 
L 330.895751 230.47481 
L 331.752961 230.47481 
L 331.828647 229.421437 
L 334.46139 229.421437 
L 334.46139 228.894751 
L 338.193369 228.894751 
L 338.193369 228.368065 
L 338.688 228.368065 
L 338.688 228.368065 
" style="fill:none;stroke:#000080;stroke-linecap:square;stroke-width:1.5;"/>
   </g>
   <g id="line2d_39">
    <defs>
     <path d="M 0 6 
C 1.591219 6 3.117479 5.367802 4.242641 4.242641 
C 5.367802 3.117479 6 1.591219 6 0 
C 6 -1.591219 5.367802 -3.117479 4.242641 -4.242641 
C 3.117479 -5.367802 1.591219 -6 0 -6 
C -1.591219 -6 -3.117479 -5.367802 -4.242641 -4.242641 
C -5.367802 -3.117479 -6 -1.591219 -6 0 
C -6 1.591219 -5.367802 3.117479 -4.242641 4.242641 
C -3.117479 5.367802 -1.591219 6 0 6 
z
" id="m9bc831c273" style="stroke:#000080;stroke-width:1.5;"/>
    </defs>
    <g>
     <use style="fill-opacity:0;stroke:#000080;stroke-width:1.5;" x="127.067859" xlink:href="#m9bc831c273" y="292.097081"/>
     <use style="fill-opacity:0;stroke:#000080;stroke-width:1.5;" x="184.984334" xlink:href="#m9bc831c273" y="273.136382"/>
     <use style="fill-opacity:0;stroke:#000080;stroke-width:1.5;" x="238.259192" xlink:href="#m9bc831c273" y="263.656033"/>
     <use style="fill-opacity:0;stroke:#000080;stroke-width:1.5;" x="315.890277" xlink:href="#m9bc831c273" y="236.795043"/>
     <use style="fill-opacity:0;stroke:#000080;stroke-width:1.5;" x="338.193369" xlink:href="#m9bc831c273" y="228.368065"/>
     <use style="fill-opacity:0;stroke:#000080;stroke-width:1.5;" x="338.688" xlink:href="#m9bc831c273" y="228.368065"/>
    </g>
   </g>
   <g id="line2d_40">
    <path style="fill:none;stroke:#000080;stroke-linecap:square;stroke-width:1.5;"/>
    <g/>
   </g>
   <g id="line2d_41">
    <path clip-path="url(#p04c7bb8225)" d="M 281.639688 258.389172 
" style="fill:none;stroke:#000080;stroke-linecap:square;stroke-width:1.5;"/>
    <defs>
     <path d="M -12 12 
L 12 -12 
M -12 -12 
L 12 12 
" id="m6412d5da47" style="stroke:#000080;"/>
    </defs>
    <g clip-path="url(#p04c7bb8225)">
     <use style="fill:#000080;stroke:#000080;" x="281.639688" xlink:href="#m6412d5da47" y="258.389172"/>
    </g>
   </g>
   <g id="line2d_42">
    <defs>
     <path d="M 0 1.5 
C 0.397805 1.5 0.77937 1.341951 1.06066 1.06066 
C 1.341951 0.77937 1.5 0.397805 1.5 0 
C 1.5 -0.397805 1.341951 -0.77937 1.06066 -1.06066 
C 0.77937 -1.341951 0.397805 -1.5 0 -1.5 
C -0.397805 -1.5 -0.77937 -1.341951 -1.06066 -1.06066 
C -1.341951 -0.77937 -1.5 -0.397805 -1.5 0 
C -1.5 0.397805 -1.341951 0.77937 -1.06066 1.06066 
C -0.77937 1.341951 -0.397805 1.5 0 1.5 
z
" id="m764c6619f0" style="stroke:#ff0000;"/>
    </defs>
    <g>
     <use style="fill:#ff0000;stroke:#ff0000;" x="342.448085" xlink:href="#m764c6619f0" y="230.47481"/>
     <use style="fill:#ff0000;stroke:#ff0000;" x="342.448085" xlink:href="#m764c6619f0" y="230.47481"/>
    </g>
   </g>
   <g id="line2d_43">
    <path d="M 85.66744 298.944 
L 85.66744 298.417314 
L 97.224242 298.417314 
L 97.224242 297.890628 
L 98.771596 297.890628 
L 98.771596 297.363942 
L 99.41757 297.363942 
L 99.41757 296.837256 
L 101.506816 296.837256 
L 101.506816 296.31057 
L 102.330873 296.31057 
L 102.330873 295.783884 
L 102.859376 295.783884 
L 102.859376 295.257197 
L 106.698704 295.257197 
L 106.698704 294.730511 
L 109.131511 294.730511 
L 109.131511 294.203825 
L 112.655818 294.203825 
L 112.655818 293.677139 
L 121.756135 293.677139 
L 121.756135 293.150453 
L 123.751369 293.150453 
L 123.751369 292.623767 
L 130.018593 292.623767 
L 130.018593 292.097081 
L 130.182344 292.097081 
L 130.236587 291.043709 
L 131.185181 291.043709 
L 131.185181 290.517023 
L 134.745246 290.517023 
L 134.745246 289.990337 
L 135.681535 289.990337 
L 135.681535 289.463651 
L 136.437776 289.463651 
L 136.437776 288.936964 
L 137.469333 288.936964 
L 137.469333 288.410278 
L 137.753193 288.410278 
L 137.753193 287.883592 
L 139.220677 287.883592 
L 139.220677 287.356906 
L 139.525372 287.356906 
L 139.525372 286.83022 
L 140.738093 286.83022 
L 140.738093 286.303534 
L 140.871049 286.303534 
L 140.973763 285.250162 
L 141.407239 285.250162 
L 141.492656 284.19679 
L 142.844792 284.19679 
L 142.857929 283.143418 
L 143.144465 283.143418 
L 143.247504 282.090045 
L 144.546314 282.090045 
L 144.546314 281.563359 
L 144.724207 281.563359 
L 144.830078 280.509987 
L 144.853518 280.509987 
L 144.853518 279.983301 
L 145.304409 279.983301 
L 145.304409 279.456615 
L 146.580487 279.456615 
L 146.580487 278.929929 
L 147.670154 278.929929 
L 147.729844 277.876557 
L 148.780082 277.876557 
L 148.780082 277.349871 
L 154.473387 277.349871 
L 154.473387 276.823185 
L 159.783038 276.823185 
L 159.783038 276.296499 
L 161.863054 276.296499 
L 161.863054 275.769812 
L 166.782596 275.769812 
L 166.782596 275.243126 
L 168.122027 275.243126 
L 168.18668 274.189754 
L 168.33661 274.189754 
L 168.33661 273.663068 
L 170.097076 273.663068 
L 170.097076 273.136382 
L 174.346191 273.136382 
L 174.346191 272.609696 
L 178.858923 272.609696 
L 178.93707 271.556324 
L 184.99723 271.556324 
L 184.99723 271.029638 
L 188.194358 271.029638 
L 188.194358 270.502952 
L 194.218573 270.502952 
L 194.218573 269.976266 
L 194.343828 269.976266 
L 194.343828 269.449579 
L 233.381384 269.449579 
L 233.430813 268.396207 
L 233.841512 268.396207 
L 233.845642 266.816149 
L 246.551619 266.816149 
L 246.551619 266.289463 
L 246.726172 266.289463 
L 246.726172 265.762777 
L 246.857452 265.762777 
L 246.943094 264.709405 
L 246.985272 264.709405 
L 246.991504 263.656033 
L 280.168153 263.656033 
L 280.20727 262.60266 
L 281.197047 262.60266 
L 281.197047 262.075974 
L 281.582949 262.075974 
L 281.582949 261.549288 
L 290.438111 261.549288 
L 290.438111 261.022602 
L 292.193364 261.022602 
L 292.193364 260.495916 
L 292.505698 260.495916 
L 292.605731 259.442544 
L 292.637254 259.442544 
L 292.637254 258.915858 
L 292.989998 258.915858 
L 292.989998 258.389172 
L 293.135604 258.389172 
L 293.135604 257.862486 
L 294.231306 257.862486 
L 294.231306 257.3358 
L 298.638158 257.3358 
L 298.656678 256.282427 
L 298.998031 256.282427 
L 298.998031 255.755741 
L 299.263888 255.755741 
L 299.319399 254.702369 
L 299.685774 254.702369 
L 299.698016 253.648997 
L 300.018731 253.648997 
L 300.018731 253.122311 
L 300.149868 253.122311 
L 300.149868 252.595625 
L 300.735288 252.595625 
L 300.735288 252.068939 
L 304.696074 252.068939 
L 304.696074 251.542253 
L 305.226827 251.542253 
L 305.226827 251.015567 
L 305.370015 251.015567 
L 305.370015 250.488881 
L 308.076282 250.488881 
L 308.076282 249.962195 
L 308.445207 249.962195 
L 308.445207 249.435508 
L 310.878032 249.435508 
L 310.976945 248.382136 
L 311.286273 248.382136 
L 311.286273 247.85545 
L 312.005097 247.85545 
L 312.005097 247.328764 
L 313.674979 247.328764 
L 313.674979 246.802078 
L 314.06551 246.802078 
L 314.085243 245.748706 
L 315.907175 245.748706 
L 315.907175 245.22202 
L 316.417417 245.22202 
L 316.417417 244.695334 
L 316.776177 244.695334 
L 316.776177 244.168648 
L 317.150994 244.168648 
L 317.150994 243.641962 
L 318.492355 243.641962 
L 318.492355 243.115275 
L 319.783111 243.115275 
L 319.870378 242.061903 
L 320.184427 242.061903 
L 320.205994 241.008531 
L 321.096767 241.008531 
L 321.096767 240.481845 
L 321.531155 240.481845 
L 321.531155 239.955159 
L 322.305408 239.955159 
L 322.305408 239.428473 
L 322.770935 239.428473 
L 322.770935 238.901787 
L 323.199544 238.901787 
L 323.199544 238.375101 
L 323.617529 238.375101 
L 323.617529 237.848415 
L 324.957427 237.848415 
L 325.025141 236.268356 
L 325.468477 236.268356 
L 325.468477 235.74167 
L 327.869352 235.74167 
L 327.869352 235.214984 
L 328.110589 235.214984 
L 328.110589 234.688298 
L 328.408246 234.688298 
L 328.420357 233.634926 
L 328.948869 233.634926 
L 328.948869 233.10824 
L 331.152228 233.10824 
L 331.152228 232.581554 
L 335.266514 232.581554 
L 335.266514 232.054868 
L 337.502999 232.054868 
L 337.502999 231.528182 
L 338.688 231.528182 
L 338.688 231.528182 
" style="fill:none;stroke:#ff0000;stroke-linecap:square;stroke-width:1.5;"/>
   </g>
   <g id="line2d_44">
    <defs>
     <path d="M 0 -6 
L -5.196152 -3 
L -5.196152 3 
L -0 6 
L 5.196152 3 
L 5.196152 -3 
z
" id="m4c1cef766f" style="stroke:#ff0000;stroke-linejoin:miter;stroke-width:1.5;"/>
    </defs>
    <g>
     <use style="fill-opacity:0;stroke:#ff0000;stroke-linejoin:miter;stroke-width:1.5;" x="112.655818" xlink:href="#m4c1cef766f" y="294.203825"/>
     <use style="fill-opacity:0;stroke:#ff0000;stroke-linejoin:miter;stroke-width:1.5;" x="188.194358" xlink:href="#m4c1cef766f" y="271.029638"/>
     <use style="fill-opacity:0;stroke:#ff0000;stroke-linejoin:miter;stroke-width:1.5;" x="246.991504" xlink:href="#m4c1cef766f" y="263.656033"/>
     <use style="fill-opacity:0;stroke:#ff0000;stroke-linejoin:miter;stroke-width:1.5;" x="337.502999" xlink:href="#m4c1cef766f" y="231.528182"/>
     <use style="fill-opacity:0;stroke:#ff0000;stroke-linejoin:miter;stroke-width:1.5;" x="338.688" xlink:href="#m4c1cef766f" y="231.528182"/>
    </g>
   </g>
   <g id="line2d_45">
    <path style="fill:none;stroke:#ff0000;stroke-linecap:square;stroke-width:1.5;"/>
    <g/>
   </g>
   <g id="line2d_46">
    <path clip-path="url(#p04c7bb8225)" d="M 280.002752 263.656033 
" style="fill:none;stroke:#ff0000;stroke-linecap:square;stroke-width:1.5;"/>
    <defs>
     <path d="M -12 12 
L 12 -12 
M -12 -12 
L 12 12 
" id="m9cdc942fdb" style="stroke:#ff0000;"/>
    </defs>
    <g clip-path="url(#p04c7bb8225)">
     <use style="fill:#ff0000;stroke:#ff0000;" x="280.002752" xlink:href="#m9cdc942fdb" y="263.656033"/>
    </g>
   </g>
   <g id="line2d_47">
    <defs>
     <path d="M 0 1.5 
C 0.397805 1.5 0.77937 1.341951 1.06066 1.06066 
C 1.341951 0.77937 1.5 0.397805 1.5 0 
C 1.5 -0.397805 1.341951 -0.77937 1.06066 -1.06066 
C 0.77937 -1.341951 0.397805 -1.5 0 -1.5 
C -0.397805 -1.5 -0.77937 -1.341951 -1.06066 -1.06066 
C -1.341951 -0.77937 -1.5 -0.397805 -1.5 0 
C -1.5 0.397805 -1.341951 0.77937 -1.06066 1.06066 
C -0.77937 1.341951 -0.397805 1.5 0 1.5 
z
" id="m10dddaed44" style="stroke:#bebebe;"/>
    </defs>
    <g>
     <use style="fill:#bebebe;stroke:#bebebe;" x="354.768488" xlink:href="#m10dddaed44" y="30.334099"/>
     <use style="fill:#bebebe;stroke:#bebebe;" x="354.768488" xlink:href="#m10dddaed44" y="30.334099"/>
    </g>
   </g>
   <g id="line2d_48">
    <path d="M 71.35013 298.944 
L 71.35013 298.417314 
L 93.644601 298.417314 
L 93.644601 297.890628 
L 93.863965 297.890628 
L 93.863965 297.363942 
L 94.080605 297.363942 
L 94.080605 296.837256 
L 98.100772 296.837256 
L 98.100772 296.31057 
L 100.192776 296.31057 
L 100.192776 295.783884 
L 103.372333 295.783884 
L 103.372333 295.257197 
L 109.31223 295.257197 
L 109.31223 294.730511 
L 109.668146 294.730511 
L 109.668146 294.203825 
L 109.843417 294.203825 
L 109.843417 293.677139 
L 111.346294 293.677139 
L 111.426108 292.623767 
L 112.877038 292.623767 
L 112.877038 292.097081 
L 113.873839 292.097081 
L 113.873839 291.570395 
L 114.418861 291.570395 
L 114.418861 291.043709 
L 115.648856 291.043709 
L 115.648856 290.517023 
L 116.443076 290.517023 
L 116.443076 289.990337 
L 118.256582 289.990337 
L 118.256582 289.463651 
L 118.890808 289.463651 
L 118.890808 288.936964 
L 119.148409 288.936964 
L 119.148409 288.410278 
L 155.412374 288.410278 
L 155.412374 287.883592 
L 157.191515 287.883592 
L 157.191515 287.356906 
L 157.358125 287.356906 
L 157.358125 286.83022 
L 158.12438 286.83022 
L 158.12438 286.303534 
L 158.874111 286.303534 
L 158.874111 285.776848 
L 159.723229 285.776848 
L 159.723229 285.250162 
L 160.083935 285.250162 
L 160.142522 284.19679 
L 161.854219 284.19679 
L 161.955547 283.143418 
L 163.070067 283.143418 
L 163.152289 282.090045 
L 164.167992 282.090045 
L 164.167992 281.563359 
L 165.035985 281.563359 
L 165.035985 281.036673 
L 166.275702 281.036673 
L 166.275702 280.509987 
L 167.119055 280.509987 
L 167.119055 279.983301 
L 167.757364 279.983301 
L 167.757364 279.456615 
L 168.238843 279.456615 
L 168.238843 278.929929 
L 168.644637 278.929929 
L 168.644637 278.403243 
L 169.221681 278.403243 
L 169.221681 277.876557 
L 182.84843 277.876557 
L 182.84843 277.349871 
L 184.179033 277.349871 
L 184.179033 276.823185 
L 189.830403 276.823185 
L 189.830403 276.296499 
L 190.014199 276.296499 
L 190.014199 275.769812 
L 190.158633 275.769812 
L 190.158633 275.243126 
L 190.672298 275.243126 
L 190.672298 274.71644 
L 193.259556 274.71644 
L 193.259556 274.189754 
L 193.801277 274.189754 
L 193.801277 273.663068 
L 194.347942 273.663068 
L 194.347942 273.136382 
L 195.510174 273.136382 
L 195.510174 272.609696 
L 195.743355 272.609696 
L 195.743355 272.08301 
L 199.096505 272.08301 
L 199.096505 271.556324 
L 203.045729 271.556324 
L 203.045729 271.029638 
L 205.706147 271.029638 
L 205.706147 270.502952 
L 224.20761 270.502952 
L 224.312461 268.922893 
L 224.395891 268.922893 
L 224.395891 268.396207 
L 224.522478 268.396207 
L 224.522478 267.869521 
L 224.695501 267.869521 
L 224.695501 267.342835 
L 235.213056 267.342835 
L 235.213056 266.816149 
L 235.609712 266.816149 
L 235.624762 265.762777 
L 235.721953 265.762777 
L 235.7915 264.182719 
L 235.932293 264.182719 
L 235.932293 263.656033 
L 259.760883 263.656033 
L 259.760883 263.129347 
L 259.900647 263.129347 
L 259.900647 262.60266 
L 260.026041 262.60266 
L 260.026041 261.549288 
L 260.306926 261.549288 
L 260.306926 261.022602 
L 260.428249 261.022602 
L 260.537459 258.915858 
L 260.570984 258.915858 
L 260.620584 257.3358 
L 260.690642 257.3358 
L 260.760816 255.229055 
L 260.84941 255.229055 
L 260.922868 253.122311 
L 260.962715 253.122311 
L 261.044231 251.015567 
L 261.116681 251.015567 
L 261.213823 248.908822 
L 261.237713 248.908822 
L 261.336054 246.802078 
L 279.937223 246.802078 
L 279.937223 246.275392 
L 280.391323 246.275392 
L 280.488704 244.695334 
L 280.520393 244.695334 
L 280.622513 243.641962 
L 280.957797 243.641962 
L 281.060363 242.061903 
L 281.340928 242.061903 
L 281.447103 241.008531 
L 281.899012 241.008531 
L 281.899012 240.481845 
L 282.470975 240.481845 
L 282.482733 239.428473 
L 284.277787 239.428473 
L 284.327316 238.375101 
L 284.424728 238.375101 
L 284.504333 236.268356 
L 284.585386 236.268356 
L 284.607532 235.214984 
L 284.741178 235.214984 
L 284.806674 233.634926 
L 285.039611 233.634926 
L 285.141078 232.054868 
L 285.541497 232.054868 
L 285.606682 231.001496 
L 285.729363 231.001496 
L 285.833442 229.948123 
L 285.887066 229.948123 
L 285.968475 227.841379 
L 286.020907 227.841379 
L 286.085534 226.261321 
L 286.186606 226.261321 
L 286.186606 225.734635 
L 286.328895 225.734635 
L 286.328895 225.207949 
L 292.400454 225.207949 
L 292.400454 224.681263 
L 292.554213 224.681263 
L 292.554213 224.154577 
L 293.074587 224.154577 
L 293.168698 223.101204 
L 293.280235 223.101204 
L 293.280235 222.574518 
L 293.802577 222.574518 
L 293.802577 222.047832 
L 294.069625 222.047832 
L 294.069625 221.521146 
L 294.492665 221.521146 
L 294.555926 219.941088 
L 294.617215 219.941088 
L 294.617215 219.414402 
L 294.919342 219.414402 
L 295.028152 217.307658 
L 295.036288 217.307658 
L 295.13695 213.620855 
L 295.211837 213.620855 
L 295.313297 212.040797 
L 295.354125 212.040797 
L 295.423911 210.460738 
L 295.472316 210.460738 
L 295.494097 209.407366 
L 295.61492 209.407366 
L 295.61492 208.88068 
L 295.757782 208.88068 
L 295.757782 208.353994 
L 295.890017 208.353994 
L 295.961609 206.773936 
L 296.022283 206.773936 
L 296.053231 205.720564 
L 296.160645 205.720564 
L 296.160645 205.193878 
L 299.314122 205.193878 
L 299.314122 204.667192 
L 299.587165 204.667192 
L 299.587165 204.140506 
L 300.061289 204.140506 
L 300.061289 203.613819 
L 300.694981 203.613819 
L 300.694981 203.087133 
L 301.007499 203.087133 
L 301.087748 202.033761 
L 301.184633 202.033761 
L 301.246935 200.980389 
L 301.316014 200.980389 
L 301.316014 200.453703 
L 301.518064 200.453703 
L 301.553829 199.400331 
L 301.637308 199.400331 
L 301.693627 197.293586 
L 301.813406 197.293586 
L 301.876547 196.240214 
L 302.31256 196.240214 
L 302.31256 195.713528 
L 302.50211 195.713528 
L 302.50211 195.186842 
L 304.311452 195.186842 
L 304.311452 194.660156 
L 304.490404 194.660156 
L 304.490404 194.13347 
L 305.587086 194.13347 
L 305.587086 193.606784 
L 305.838807 193.606784 
L 305.907293 191.50004 
L 305.975189 191.50004 
L 306.033185 189.919981 
L 306.102951 189.919981 
L 306.102951 189.393295 
L 306.31785 189.393295 
L 306.419081 186.759865 
L 306.435485 186.759865 
L 306.460988 185.179807 
L 306.795377 185.179807 
L 306.795377 184.653121 
L 306.916668 184.653121 
L 306.916668 184.126434 
L 308.603091 184.126434 
L 308.603091 183.599748 
L 309.244881 183.599748 
L 309.307352 182.546376 
L 309.487573 182.546376 
L 309.591426 180.966318 
L 309.659932 180.966318 
L 309.757165 178.859574 
L 309.803603 178.859574 
L 309.902371 175.699457 
L 310.036961 175.699457 
L 310.081409 173.592713 
L 310.234853 173.592713 
L 310.316257 172.012655 
L 311.735347 172.012655 
L 311.813944 170.959282 
L 312.251966 170.959282 
L 312.251966 170.432596 
L 312.390435 170.432596 
L 312.390435 169.90591 
L 312.604266 169.90591 
L 312.714052 167.799166 
L 312.718051 167.799166 
L 312.80472 165.692422 
L 312.832311 165.692422 
L 312.926578 162.532305 
L 313.003214 162.532305 
L 313.054926 160.425561 
L 313.117528 160.425561 
L 313.224242 159.372189 
L 314.551747 159.372189 
L 314.626933 158.318817 
L 314.800767 158.318817 
L 314.800767 157.79213 
L 314.98487 157.79213 
L 315.037176 156.738758 
L 315.105182 156.738758 
L 315.215201 155.1587 
L 315.276696 155.1587 
L 315.385488 154.105328 
L 315.426361 154.105328 
L 315.489589 151.471897 
L 315.606526 151.471897 
L 315.641807 149.891839 
L 315.794365 149.891839 
L 315.877279 148.838467 
L 315.934479 148.838467 
L 315.982048 147.258409 
L 316.51908 147.258409 
L 316.51908 146.731723 
L 316.83905 146.731723 
L 316.894949 145.678351 
L 316.965419 145.678351 
L 316.967131 144.624978 
L 317.271972 144.624978 
L 317.380035 143.571606 
L 317.427773 143.571606 
L 317.455664 142.518234 
L 317.692051 142.518234 
L 317.796485 139.884804 
L 317.899652 139.884804 
L 317.899652 139.358118 
L 318.888068 139.358118 
L 318.888068 138.831432 
L 319.009136 138.831432 
L 319.009136 138.304745 
L 319.31334 138.304745 
L 319.414419 136.724687 
L 319.427928 136.724687 
L 319.534346 135.144629 
L 319.545703 135.144629 
L 319.631587 131.984513 
L 319.704452 131.984513 
L 319.738844 130.93114 
L 319.819913 130.93114 
L 319.922278 128.824396 
L 320.066731 128.824396 
L 320.066731 128.29771 
L 320.488709 128.29771 
L 320.554446 127.244338 
L 320.966083 127.244338 
L 320.966083 126.717652 
L 321.08328 126.717652 
L 321.144311 125.137593 
L 321.286322 125.137593 
L 321.353834 122.504163 
L 321.443002 122.504163 
L 321.461397 120.924105 
L 321.604881 120.924105 
L 321.709261 118.817361 
L 321.727543 118.817361 
L 321.819113 117.237302 
L 322.538217 117.237302 
L 322.539673 116.18393 
L 322.702878 116.18393 
L 322.790224 114.603872 
L 322.825479 114.603872 
L 322.936206 113.023814 
L 322.975841 113.023814 
L 323.051235 110.390383 
L 323.140443 110.390383 
L 323.140443 109.863697 
L 323.289869 109.863697 
L 323.311086 108.810325 
L 324.167957 108.810325 
L 324.167957 108.283639 
L 324.356094 108.283639 
L 324.39084 106.703581 
L 324.47339 106.703581 
L 324.555458 105.123522 
L 324.619728 105.123522 
L 324.625647 104.07015 
L 324.805359 104.07015 
L 324.805359 103.543464 
L 325.165465 103.543464 
L 325.256763 102.490092 
L 325.29631 102.490092 
L 325.29631 101.963406 
L 325.859076 101.963406 
L 325.936964 98.803289 
L 325.987862 98.803289 
L 326.067667 97.223231 
L 326.169256 97.223231 
L 326.18239 96.169859 
L 326.503433 96.169859 
L 326.503433 95.643173 
L 326.87353 95.643173 
L 326.92181 94.063115 
L 327.059245 94.063115 
L 327.059245 93.536429 
L 327.196795 93.536429 
L 327.274979 91.429684 
L 327.388283 91.429684 
L 327.494122 90.376312 
L 327.781961 90.376312 
L 327.781961 89.849626 
L 327.901794 89.849626 
L 327.988599 88.796254 
L 328.069768 88.796254 
L 328.116501 87.742882 
L 328.192485 87.742882 
L 328.192485 87.216196 
L 328.352392 87.216196 
L 328.352392 86.68951 
L 328.476287 86.68951 
L 328.476287 86.162824 
L 328.997164 86.162824 
L 328.997164 85.636137 
L 329.168 85.636137 
L 329.254983 84.582765 
L 329.290091 84.582765 
L 329.290091 84.056079 
L 329.539993 84.056079 
L 329.570837 82.476021 
L 330.002928 82.476021 
L 330.002928 81.949335 
L 330.339904 81.949335 
L 330.420083 79.842591 
L 330.478096 79.842591 
L 330.509113 78.789218 
L 331.262313 78.789218 
L 331.31958 76.682474 
L 331.488426 76.682474 
L 331.576542 75.629102 
L 332.212088 75.629102 
L 332.272479 74.049044 
L 332.355744 74.049044 
L 332.374072 72.995672 
L 333.08742 72.995672 
L 333.182872 71.415613 
L 333.362778 71.415613 
L 333.383139 70.362241 
L 333.888962 70.362241 
L 333.974258 69.308869 
L 334.032552 69.308869 
L 334.032552 68.782183 
L 334.825255 68.782183 
L 334.825255 68.255497 
L 334.953736 68.255497 
L 334.985824 67.202125 
L 335.094791 67.202125 
L 335.094791 66.675439 
L 335.401262 66.675439 
L 335.437573 65.622066 
L 335.52605 65.622066 
L 335.551409 64.568694 
L 335.654396 64.568694 
L 335.764216 63.515322 
L 336.004502 63.515322 
L 336.004502 62.988636 
L 336.123447 62.988636 
L 336.123447 62.46195 
L 336.242063 62.46195 
L 336.299647 60.881892 
L 336.35745 60.881892 
L 336.428014 59.82852 
L 336.656799 59.82852 
L 336.656799 59.301833 
L 337.1301 59.301833 
L 337.227323 57.721775 
L 337.539855 57.721775 
L 337.605467 56.141717 
L 337.870596 56.141717 
L 337.97933 54.561659 
L 338.425469 54.561659 
L 338.499392 53.508287 
L 338.688 53.508287 
L 338.688 53.508287 
" style="fill:none;stroke:#bebebe;stroke-linecap:square;stroke-width:1.5;"/>
   </g>
   <g id="line2d_49">
    <defs>
     <path d="M 0 0 
L -6 -0 
M 0 0 
L 3 4.8 
M 0 0 
L 3 -4.8 
" id="m8a99a561e8" style="stroke:#bebebe;stroke-width:1.5;"/>
    </defs>
    <g>
     <use style="fill-opacity:0;stroke:#bebebe;stroke-width:1.5;" x="158.12438" xlink:href="#m8a99a561e8" y="286.83022"/>
     <use style="fill-opacity:0;stroke:#bebebe;stroke-width:1.5;" x="260.026041" xlink:href="#m8a99a561e8" y="261.549288"/>
     <use style="fill-opacity:0;stroke:#bebebe;stroke-width:1.5;" x="320.554446" xlink:href="#m8a99a561e8" y="127.244338"/>
     <use style="fill-opacity:0;stroke:#bebebe;stroke-width:1.5;" x="338.499392" xlink:href="#m8a99a561e8" y="53.508287"/>
     <use style="fill-opacity:0;stroke:#bebebe;stroke-width:1.5;" x="338.688" xlink:href="#m8a99a561e8" y="53.508287"/>
    </g>
   </g>
   <g id="line2d_50">
    <path style="fill:none;stroke:#bebebe;stroke-linecap:square;stroke-width:1.5;"/>
    <g/>
   </g>
   <g id="line2d_51">
    <path clip-path="url(#p04c7bb8225)" d="M 281.112586 242.061903 
" style="fill:none;stroke:#bebebe;stroke-linecap:square;stroke-width:1.5;"/>
    <defs>
     <path d="M -12 12 
L 12 -12 
M -12 -12 
L 12 12 
" id="mee2af2561d" style="stroke:#bebebe;"/>
    </defs>
    <g clip-path="url(#p04c7bb8225)">
     <use style="fill:#bebebe;stroke:#bebebe;" x="281.112586" xlink:href="#mee2af2561d" y="242.061903"/>
    </g>
   </g>
   <g id="line2d_52">
    <defs>
     <path d="M 0 1.5 
C 0.397805 1.5 0.77937 1.341951 1.06066 1.06066 
C 1.341951 0.77937 1.5 0.397805 1.5 0 
C 1.5 -0.397805 1.341951 -0.77937 1.06066 -1.06066 
C 0.77937 -1.341951 0.397805 -1.5 0 -1.5 
C -0.397805 -1.5 -0.77937 -1.341951 -1.06066 -1.06066 
C -1.341951 -0.77937 -1.5 -0.397805 -1.5 0 
C -1.5 0.397805 -1.341951 0.77937 -1.06066 1.06066 
C -0.77937 1.341951 -0.397805 1.5 0 1.5 
z
" id="m09e8610c5a" style="stroke:#6495ed;"/>
    </defs>
    <g>
     <use style="fill:#6495ed;stroke:#6495ed;" x="296.682023" xlink:href="#m09e8610c5a" y="272.609696"/>
     <use style="fill:#6495ed;stroke:#6495ed;" x="296.682023" xlink:href="#m09e8610c5a" y="272.609696"/>
    </g>
   </g>
   <g id="line2d_53">
    <path d="M 71.35013 298.944 
L 71.35013 298.417314 
L 72.125336 298.417314 
L 72.125336 297.890628 
L 93.863965 297.890628 
L 93.863965 297.363942 
L 94.080605 297.363942 
L 94.080605 296.837256 
L 100.040467 296.837256 
L 100.040467 296.31057 
L 103.372333 296.31057 
L 103.372333 295.783884 
L 109.31223 295.783884 
L 109.31223 295.257197 
L 109.756002 295.257197 
L 109.756002 294.730511 
L 109.843417 294.730511 
L 109.843417 294.203825 
L 111.346294 294.203825 
L 111.346294 293.677139 
L 111.426108 293.677139 
L 111.426108 293.150453 
L 112.877038 293.150453 
L 112.877038 292.623767 
L 112.950158 292.623767 
L 112.950158 292.097081 
L 114.284194 292.097081 
L 114.284194 291.570395 
L 114.418861 291.570395 
L 114.418861 291.043709 
L 114.618932 291.043709 
L 114.618932 290.517023 
L 115.33349 290.517023 
L 115.33349 289.990337 
L 116.443076 289.990337 
L 116.443076 289.463651 
L 117.598418 289.463651 
L 117.598418 288.936964 
L 118.890808 288.936964 
L 118.890808 288.410278 
L 168.229649 288.410278 
L 168.229649 287.883592 
L 205.555371 287.883592 
L 205.555371 287.356906 
L 206.464017 287.356906 
L 206.464017 286.83022 
L 211.725844 286.83022 
L 211.725844 286.303534 
L 220.238367 286.303534 
L 220.238367 285.776848 
L 220.969582 285.776848 
L 220.969582 285.250162 
L 226.205717 285.250162 
L 226.205717 284.723476 
L 231.59443 284.723476 
L 231.59443 284.19679 
L 231.604229 284.19679 
L 231.604229 283.670104 
L 233.585852 283.670104 
L 233.585852 283.143418 
L 233.594088 283.143418 
L 233.594088 282.616732 
L 237.189885 282.616732 
L 237.189885 282.090045 
L 246.262661 282.090045 
L 246.262661 281.563359 
L 250.751305 281.563359 
L 250.751305 281.036673 
L 251.043225 281.036673 
L 251.043225 280.509987 
L 252.188152 280.509987 
L 252.188152 279.983301 
L 255.509599 279.983301 
L 255.509599 279.456615 
L 256.610642 279.456615 
L 256.610642 278.929929 
L 263.05535 278.929929 
L 263.05535 278.403243 
L 265.567723 278.403243 
L 265.567723 277.876557 
L 269.704964 277.876557 
L 269.704964 277.349871 
L 270.994807 277.349871 
L 270.994807 276.823185 
L 273.048666 276.823185 
L 273.048666 276.296499 
L 274.119999 276.296499 
L 274.119999 275.769812 
L 277.101607 275.769812 
L 277.101607 275.243126 
L 280.383124 275.243126 
L 280.383124 274.71644 
L 280.387315 274.71644 
L 280.387315 274.189754 
L 280.38776 274.189754 
L 280.38776 273.663068 
L 289.930249 273.663068 
L 289.930249 273.136382 
L 296.682023 273.136382 
L 296.682023 272.609696 
L 338.688 272.609696 
" style="fill:none;stroke:#6495ed;stroke-linecap:square;stroke-width:1.5;"/>
   </g>
   <g id="line2d_54">
    <defs>
     <path d="M -0 6 
L 6 -6 
L -6 -6 
z
" id="m9c8439b5cb" style="stroke:#6495ed;stroke-linejoin:miter;stroke-width:1.5;"/>
    </defs>
    <g>
     <use style="fill-opacity:0;stroke:#6495ed;stroke-linejoin:miter;stroke-width:1.5;" x="168.229649" xlink:href="#m9c8439b5cb" y="288.410278"/>
     <use style="fill-opacity:0;stroke:#6495ed;stroke-linejoin:miter;stroke-width:1.5;" x="233.594088" xlink:href="#m9c8439b5cb" y="282.616732"/>
     <use style="fill-opacity:0;stroke:#6495ed;stroke-linejoin:miter;stroke-width:1.5;" x="296.682023" xlink:href="#m9c8439b5cb" y="273.136382"/>
     <use style="fill-opacity:0;stroke:#6495ed;stroke-linejoin:miter;stroke-width:1.5;" x="296.682023" xlink:href="#m9c8439b5cb" y="272.609696"/>
     <use style="fill-opacity:0;stroke:#6495ed;stroke-linejoin:miter;stroke-width:1.5;" x="338.688" xlink:href="#m9c8439b5cb" y="272.609696"/>
    </g>
   </g>
   <g id="line2d_55">
    <path style="fill:none;stroke:#6495ed;stroke-linecap:square;stroke-width:1.5;"/>
    <g/>
   </g>
   <g id="line2d_56">
    <path clip-path="url(#p04c7bb8225)" d="M 230.506265 284.723476 
" style="fill:none;stroke:#6495ed;stroke-linecap:square;stroke-width:1.5;"/>
    <defs>
     <path d="M -12 12 
L 12 -12 
M -12 -12 
L 12 12 
" id="m61364422d2" style="stroke:#6495ed;"/>
    </defs>
    <g clip-path="url(#p04c7bb8225)">
     <use style="fill:#6495ed;stroke:#6495ed;" x="230.506265" xlink:href="#m61364422d2" y="284.723476"/>
    </g>
   </g>
   <g id="line2d_57">
    <path d="M 338.688 272.609696 
L 369.60768 293.571802 
" style="fill:none;stroke:#6495ed;stroke-linecap:square;stroke-width:1.5;"/>
    <g>
     <use style="fill-opacity:0;stroke:#6495ed;stroke-linejoin:miter;stroke-width:1.5;" x="338.688" xlink:href="#m9c8439b5cb" y="272.609696"/>
     <use style="fill-opacity:0;stroke:#6495ed;stroke-linejoin:miter;stroke-width:1.5;" x="369.60768" xlink:href="#m9c8439b5cb" y="293.571802"/>
    </g>
   </g>
   <g id="line2d_58">
    <path d="M 338.688 231.528182 
L 369.60768 207.616634 
" style="fill:none;stroke:#ff0000;stroke-linecap:square;stroke-width:1.5;"/>
    <g>
     <use style="fill-opacity:0;stroke:#ff0000;stroke-linejoin:miter;stroke-width:1.5;" x="338.688" xlink:href="#m4c1cef766f" y="231.528182"/>
     <use style="fill-opacity:0;stroke:#ff0000;stroke-linejoin:miter;stroke-width:1.5;" x="369.60768" xlink:href="#m4c1cef766f" y="207.616634"/>
    </g>
   </g>
   <g id="line2d_59">
    <path d="M 338.688 228.368065 
L 369.60768 121.661465 
" style="fill:none;stroke:#000080;stroke-linecap:square;stroke-width:1.5;"/>
    <g>
     <use style="fill-opacity:0;stroke:#000080;stroke-width:1.5;" x="338.688" xlink:href="#m9bc831c273" y="228.368065"/>
     <use style="fill-opacity:0;stroke:#000080;stroke-width:1.5;" x="369.60768" xlink:href="#m9bc831c273" y="121.661465"/>
    </g>
   </g>
   <g id="line2d_60">
    <path d="M 338.688 53.508287 
L 369.60768 35.706297 
" style="fill:none;stroke:#bebebe;stroke-linecap:square;stroke-width:1.5;"/>
    <g>
     <use style="fill-opacity:0;stroke:#bebebe;stroke-width:1.5;" x="338.688" xlink:href="#m8a99a561e8" y="53.508287"/>
     <use style="fill-opacity:0;stroke:#bebebe;stroke-width:1.5;" x="369.60768" xlink:href="#m8a99a561e8" y="35.706297"/>
    </g>
   </g>
   <g id="line2d_61">
    <path d="M 338.688 298.944 
L 338.688 30.334099 
" style="fill:none;stroke:#000000;stroke-linecap:square;stroke-width:1.5;"/>
   </g>
   <g id="patch_3">
    <path d="M 57.6 298.944 
L 57.6 27.648 
" style="fill:none;stroke:#000000;stroke-linecap:square;stroke-linejoin:miter;stroke-width:0.8;"/>
   </g>
   <g id="patch_4">
    <path d="M 338.688 298.944 
L 338.688 27.648 
" style="fill:none;stroke:#000000;stroke-linecap:square;stroke-linejoin:miter;stroke-width:0.8;"/>
   </g>
   <g id="patch_5">
    <path d="M 57.6 298.944 
L 338.688 298.944 
" style="fill:none;stroke:#000000;stroke-linecap:square;stroke-linejoin:miter;stroke-width:0.8;"/>
   </g>
   <g id="patch_6">
    <path d="M 57.6 27.648 
L 338.688 27.648 
" style="fill:none;stroke:#000000;stroke-linecap:square;stroke-linejoin:miter;stroke-width:0.8;"/>
   </g>
   <g id="text_13">
    <!-- SLSQP-11  -->
    <defs>
     <path d="M 53.515625 70.515625 
L 53.515625 60.890625 
Q 47.90625 63.578125 42.921875 64.890625 
Q 37.9375 66.21875 33.296875 66.21875 
Q 25.25 66.21875 20.875 63.09375 
Q 16.5 59.96875 16.5 54.203125 
Q 16.5 49.359375 19.40625 46.890625 
Q 22.3125 44.4375 30.421875 42.921875 
L 36.375 41.703125 
Q 47.40625 39.59375 52.65625 34.296875 
Q 57.90625 29 57.90625 20.125 
Q 57.90625 9.515625 50.796875 4.046875 
Q 43.703125 -1.421875 29.984375 -1.421875 
Q 24.8125 -1.421875 18.96875 -0.25 
Q 13.140625 0.921875 6.890625 3.21875 
L 6.890625 13.375 
Q 12.890625 10.015625 18.65625 8.296875 
Q 24.421875 6.59375 29.984375 6.59375 
Q 38.421875 6.59375 43.015625 9.90625 
Q 47.609375 13.234375 47.609375 19.390625 
Q 47.609375 24.75 44.3125 27.78125 
Q 41.015625 30.8125 33.5 32.328125 
L 27.484375 33.5 
Q 16.453125 35.6875 11.515625 40.375 
Q 6.59375 45.0625 6.59375 53.421875 
Q 6.59375 63.09375 13.40625 68.65625 
Q 20.21875 74.21875 32.171875 74.21875 
Q 37.3125 74.21875 42.625 73.28125 
Q 47.953125 72.359375 53.515625 70.515625 
z
" id="DejaVuSans-83"/>
     <path d="M 9.8125 72.90625 
L 19.671875 72.90625 
L 19.671875 8.296875 
L 55.171875 8.296875 
L 55.171875 0 
L 9.8125 0 
z
" id="DejaVuSans-76"/>
     <path d="M 39.40625 66.21875 
Q 28.65625 66.21875 22.328125 58.203125 
Q 16.015625 50.203125 16.015625 36.375 
Q 16.015625 22.609375 22.328125 14.59375 
Q 28.65625 6.59375 39.40625 6.59375 
Q 50.140625 6.59375 56.421875 14.59375 
Q 62.703125 22.609375 62.703125 36.375 
Q 62.703125 50.203125 56.421875 58.203125 
Q 50.140625 66.21875 39.40625 66.21875 
z
M 53.21875 1.3125 
L 66.21875 -12.890625 
L 54.296875 -12.890625 
L 43.5 -1.21875 
Q 41.890625 -1.3125 41.03125 -1.359375 
Q 40.1875 -1.421875 39.40625 -1.421875 
Q 24.03125 -1.421875 14.8125 8.859375 
Q 5.609375 19.140625 5.609375 36.375 
Q 5.609375 53.65625 14.8125 63.9375 
Q 24.03125 74.21875 39.40625 74.21875 
Q 54.734375 74.21875 63.90625 63.9375 
Q 73.09375 53.65625 73.09375 36.375 
Q 73.09375 23.6875 67.984375 14.640625 
Q 62.890625 5.609375 53.21875 1.3125 
z
" id="DejaVuSans-81"/>
     <path d="M 19.671875 64.796875 
L 19.671875 37.40625 
L 32.078125 37.40625 
Q 38.96875 37.40625 42.71875 40.96875 
Q 46.484375 44.53125 46.484375 51.125 
Q 46.484375 57.671875 42.71875 61.234375 
Q 38.96875 64.796875 32.078125 64.796875 
z
M 9.8125 72.90625 
L 32.078125 72.90625 
Q 44.34375 72.90625 50.609375 67.359375 
Q 56.890625 61.8125 56.890625 51.125 
Q 56.890625 40.328125 50.609375 34.8125 
Q 44.34375 29.296875 32.078125 29.296875 
L 19.671875 29.296875 
L 19.671875 0 
L 9.8125 0 
z
" id="DejaVuSans-80"/>
    </defs>
    <g transform="translate(375.22944 298.262739)scale(0.17 -0.17)">
     <use xlink:href="#DejaVuSans-83"/>
     <use x="63.476562" xlink:href="#DejaVuSans-76"/>
     <use x="119.189453" xlink:href="#DejaVuSans-83"/>
     <use x="182.666016" xlink:href="#DejaVuSans-81"/>
     <use x="261.376953" xlink:href="#DejaVuSans-80"/>
     <use x="321.648438" xlink:href="#DejaVuSans-45"/>
     <use x="357.732422" xlink:href="#DejaVuSans-49"/>
     <use x="421.355469" xlink:href="#DejaVuSans-49"/>
     <use x="484.978516" xlink:href="#DejaVuSans-32"/>
    </g>
   </g>
   <g id="text_14">
    <!-- lq-CMA-ES -->
    <defs>
     <path d="M 14.796875 27.296875 
Q 14.796875 17.390625 18.875 11.75 
Q 22.953125 6.109375 30.078125 6.109375 
Q 37.203125 6.109375 41.296875 11.75 
Q 45.40625 17.390625 45.40625 27.296875 
Q 45.40625 37.203125 41.296875 42.84375 
Q 37.203125 48.484375 30.078125 48.484375 
Q 22.953125 48.484375 18.875 42.84375 
Q 14.796875 37.203125 14.796875 27.296875 
z
M 45.40625 8.203125 
Q 42.578125 3.328125 38.25 0.953125 
Q 33.9375 -1.421875 27.875 -1.421875 
Q 17.96875 -1.421875 11.734375 6.484375 
Q 5.515625 14.40625 5.515625 27.296875 
Q 5.515625 40.1875 11.734375 48.09375 
Q 17.96875 56 27.875 56 
Q 33.9375 56 38.25 53.625 
Q 42.578125 51.265625 45.40625 46.390625 
L 45.40625 54.6875 
L 54.390625 54.6875 
L 54.390625 -20.796875 
L 45.40625 -20.796875 
z
" id="DejaVuSans-113"/>
     <path d="M 64.40625 67.28125 
L 64.40625 56.890625 
Q 59.421875 61.53125 53.78125 63.8125 
Q 48.140625 66.109375 41.796875 66.109375 
Q 29.296875 66.109375 22.65625 58.46875 
Q 16.015625 50.828125 16.015625 36.375 
Q 16.015625 21.96875 22.65625 14.328125 
Q 29.296875 6.6875 41.796875 6.6875 
Q 48.140625 6.6875 53.78125 8.984375 
Q 59.421875 11.28125 64.40625 15.921875 
L 64.40625 5.609375 
Q 59.234375 2.09375 53.4375 0.328125 
Q 47.65625 -1.421875 41.21875 -1.421875 
Q 24.65625 -1.421875 15.125 8.703125 
Q 5.609375 18.84375 5.609375 36.375 
Q 5.609375 53.953125 15.125 64.078125 
Q 24.65625 74.21875 41.21875 74.21875 
Q 47.75 74.21875 53.53125 72.484375 
Q 59.328125 70.75 64.40625 67.28125 
z
" id="DejaVuSans-67"/>
     <path d="M 9.8125 72.90625 
L 24.515625 72.90625 
L 43.109375 23.296875 
L 61.8125 72.90625 
L 76.515625 72.90625 
L 76.515625 0 
L 66.890625 0 
L 66.890625 64.015625 
L 48.09375 14.015625 
L 38.1875 14.015625 
L 19.390625 64.015625 
L 19.390625 0 
L 9.8125 0 
z
" id="DejaVuSans-77"/>
     <path d="M 34.1875 63.1875 
L 20.796875 26.90625 
L 47.609375 26.90625 
z
M 28.609375 72.90625 
L 39.796875 72.90625 
L 67.578125 0 
L 57.328125 0 
L 50.6875 18.703125 
L 17.828125 18.703125 
L 11.1875 0 
L 0.78125 0 
z
" id="DejaVuSans-65"/>
     <path d="M 9.8125 72.90625 
L 55.90625 72.90625 
L 55.90625 64.59375 
L 19.671875 64.59375 
L 19.671875 43.015625 
L 54.390625 43.015625 
L 54.390625 34.71875 
L 19.671875 34.71875 
L 19.671875 8.296875 
L 56.78125 8.296875 
L 56.78125 0 
L 9.8125 0 
z
" id="DejaVuSans-69"/>
    </defs>
    <g transform="translate(375.22944 212.307571)scale(0.17 -0.17)">
     <use xlink:href="#DejaVuSans-108"/>
     <use x="27.783203" xlink:href="#DejaVuSans-113"/>
     <use x="91.259766" xlink:href="#DejaVuSans-45"/>
     <use x="127.34375" xlink:href="#DejaVuSans-67"/>
     <use x="197.167969" xlink:href="#DejaVuSans-77"/>
     <use x="283.447266" xlink:href="#DejaVuSans-65"/>
     <use x="351.824219" xlink:href="#DejaVuSans-45"/>
     <use x="387.908203" xlink:href="#DejaVuSans-69"/>
     <use x="451.091797" xlink:href="#DejaVuSans-83"/>
    </g>
   </g>
   <g id="text_15">
    <!-- CMA-ES  2 -->
    <g transform="translate(375.22944 126.352403)scale(0.17 -0.17)">
     <use xlink:href="#DejaVuSans-67"/>
     <use x="69.824219" xlink:href="#DejaVuSans-77"/>
     <use x="156.103516" xlink:href="#DejaVuSans-65"/>
     <use x="224.480469" xlink:href="#DejaVuSans-45"/>
     <use x="260.564453" xlink:href="#DejaVuSans-69"/>
     <use x="323.748047" xlink:href="#DejaVuSans-83"/>
     <use x="387.224609" xlink:href="#DejaVuSans-32"/>
     <use x="419.011719" xlink:href="#DejaVuSans-32"/>
     <use x="450.798828" xlink:href="#DejaVuSans-50"/>
    </g>
   </g>
   <g id="text_16">
    <!-- SLSQP+CMA -->
    <defs>
     <path d="M 46 62.703125 
L 46 35.5 
L 73.1875 35.5 
L 73.1875 27.203125 
L 46 27.203125 
L 46 0 
L 37.796875 0 
L 37.796875 27.203125 
L 10.59375 27.203125 
L 10.59375 35.5 
L 37.796875 35.5 
L 37.796875 62.703125 
z
" id="DejaVuSans-43"/>
    </defs>
    <g transform="translate(375.22944 40.397235)scale(0.17 -0.17)">
     <use xlink:href="#DejaVuSans-83"/>
     <use x="63.476562" xlink:href="#DejaVuSans-76"/>
     <use x="119.189453" xlink:href="#DejaVuSans-83"/>
     <use x="182.666016" xlink:href="#DejaVuSans-81"/>
     <use x="261.376953" xlink:href="#DejaVuSans-80"/>
     <use x="321.679688" xlink:href="#DejaVuSans-43"/>
     <use x="405.46875" xlink:href="#DejaVuSans-67"/>
     <use x="475.292969" xlink:href="#DejaVuSans-77"/>
     <use x="561.572266" xlink:href="#DejaVuSans-65"/>
    </g>
   </g>
   <g id="text_17">
    <!-- bbob f24, 10-D -->
    <defs>
     <path d="M 48.6875 27.296875 
Q 48.6875 37.203125 44.609375 42.84375 
Q 40.53125 48.484375 33.40625 48.484375 
Q 26.265625 48.484375 22.1875 42.84375 
Q 18.109375 37.203125 18.109375 27.296875 
Q 18.109375 17.390625 22.1875 11.75 
Q 26.265625 6.109375 33.40625 6.109375 
Q 40.53125 6.109375 44.609375 11.75 
Q 48.6875 17.390625 48.6875 27.296875 
z
M 18.109375 46.390625 
Q 20.953125 51.265625 25.265625 53.625 
Q 29.59375 56 35.59375 56 
Q 45.5625 56 51.78125 48.09375 
Q 58.015625 40.1875 58.015625 27.296875 
Q 58.015625 14.40625 51.78125 6.484375 
Q 45.5625 -1.421875 35.59375 -1.421875 
Q 29.59375 -1.421875 25.265625 0.953125 
Q 20.953125 3.328125 18.109375 8.203125 
L 18.109375 0 
L 9.078125 0 
L 9.078125 75.984375 
L 18.109375 75.984375 
z
" id="DejaVuSans-98"/>
     <path d="M 19.671875 64.796875 
L 19.671875 8.109375 
L 31.59375 8.109375 
Q 46.6875 8.109375 53.6875 14.9375 
Q 60.6875 21.78125 60.6875 36.53125 
Q 60.6875 51.171875 53.6875 57.984375 
Q 46.6875 64.796875 31.59375 64.796875 
z
M 9.8125 72.90625 
L 30.078125 72.90625 
Q 51.265625 72.90625 61.171875 64.09375 
Q 71.09375 55.28125 71.09375 36.53125 
Q 71.09375 17.671875 61.125 8.828125 
Q 51.171875 0 30.078125 0 
L 9.8125 0 
z
" id="DejaVuSans-68"/>
    </defs>
    <g transform="translate(60.41088 38.111366)scale(0.102 -0.102)">
     <use xlink:href="#DejaVuSans-98"/>
     <use x="63.476562" xlink:href="#DejaVuSans-98"/>
     <use x="126.953125" xlink:href="#DejaVuSans-111"/>
     <use x="188.134766" xlink:href="#DejaVuSans-98"/>
     <use x="251.611328" xlink:href="#DejaVuSans-32"/>
     <use x="283.398438" xlink:href="#DejaVuSans-102"/>
     <use x="318.603516" xlink:href="#DejaVuSans-50"/>
     <use x="382.226562" xlink:href="#DejaVuSans-52"/>
     <use x="445.849609" xlink:href="#DejaVuSans-44"/>
     <use x="477.636719" xlink:href="#DejaVuSans-32"/>
     <use x="509.423828" xlink:href="#DejaVuSans-49"/>
     <use x="573.046875" xlink:href="#DejaVuSans-48"/>
     <use x="636.669922" xlink:href="#DejaVuSans-45"/>
     <use x="672.753906" xlink:href="#DejaVuSans-68"/>
    </g>
    <!-- 51 targets: 100..1e-08 -->
    <defs>
     <path d="M 10.796875 72.90625 
L 49.515625 72.90625 
L 49.515625 64.59375 
L 19.828125 64.59375 
L 19.828125 46.734375 
Q 21.96875 47.46875 24.109375 47.828125 
Q 26.265625 48.1875 28.421875 48.1875 
Q 40.625 48.1875 47.75 41.5 
Q 54.890625 34.8125 54.890625 23.390625 
Q 54.890625 11.625 47.5625 5.09375 
Q 40.234375 -1.421875 26.90625 -1.421875 
Q 22.3125 -1.421875 17.546875 -0.640625 
Q 12.796875 0.140625 7.71875 1.703125 
L 7.71875 11.625 
Q 12.109375 9.234375 16.796875 8.0625 
Q 21.484375 6.890625 26.703125 6.890625 
Q 35.15625 6.890625 40.078125 11.328125 
Q 45.015625 15.765625 45.015625 23.390625 
Q 45.015625 31 40.078125 35.4375 
Q 35.15625 39.890625 26.703125 39.890625 
Q 22.75 39.890625 18.8125 39.015625 
Q 14.890625 38.140625 10.796875 36.28125 
z
" id="DejaVuSans-53"/>
     <path d="M 11.71875 12.40625 
L 22.015625 12.40625 
L 22.015625 0 
L 11.71875 0 
z
M 11.71875 51.703125 
L 22.015625 51.703125 
L 22.015625 39.3125 
L 11.71875 39.3125 
z
" id="DejaVuSans-58"/>
    </defs>
    <g transform="translate(60.41088 49.533135)scale(0.102 -0.102)">
     <use xlink:href="#DejaVuSans-53"/>
     <use x="63.623047" xlink:href="#DejaVuSans-49"/>
     <use x="127.246094" xlink:href="#DejaVuSans-32"/>
     <use x="159.033203" xlink:href="#DejaVuSans-116"/>
     <use x="198.242188" xlink:href="#DejaVuSans-97"/>
     <use x="259.521484" xlink:href="#DejaVuSans-114"/>
     <use x="300.619141" xlink:href="#DejaVuSans-103"/>
     <use x="364.095703" xlink:href="#DejaVuSans-101"/>
     <use x="425.619141" xlink:href="#DejaVuSans-116"/>
     <use x="464.828125" xlink:href="#DejaVuSans-115"/>
     <use x="516.927734" xlink:href="#DejaVuSans-58"/>
     <use x="550.619141" xlink:href="#DejaVuSans-32"/>
     <use x="582.40625" xlink:href="#DejaVuSans-49"/>
     <use x="646.029297" xlink:href="#DejaVuSans-48"/>
     <use x="709.652344" xlink:href="#DejaVuSans-48"/>
     <use x="773.275391" xlink:href="#DejaVuSans-46"/>
     <use x="805.0625" xlink:href="#DejaVuSans-46"/>
     <use x="836.849609" xlink:href="#DejaVuSans-49"/>
     <use x="900.472656" xlink:href="#DejaVuSans-101"/>
     <use x="961.996094" xlink:href="#DejaVuSans-45"/>
     <use x="998.080078" xlink:href="#DejaVuSans-48"/>
     <use x="1061.703125" xlink:href="#DejaVuSans-56"/>
    </g>
    <!-- 15 instances -->
    <g transform="translate(60.41088 60.954904)scale(0.102 -0.102)">
     <use xlink:href="#DejaVuSans-49"/>
     <use x="63.623047" xlink:href="#DejaVuSans-53"/>
     <use x="127.246094" xlink:href="#DejaVuSans-32"/>
     <use x="159.033203" xlink:href="#DejaVuSans-105"/>
     <use x="186.816406" xlink:href="#DejaVuSans-110"/>
     <use x="250.195312" xlink:href="#DejaVuSans-115"/>
     <use x="302.294922" xlink:href="#DejaVuSans-116"/>
     <use x="341.503906" xlink:href="#DejaVuSans-97"/>
     <use x="402.783203" xlink:href="#DejaVuSans-110"/>
     <use x="466.162109" xlink:href="#DejaVuSans-99"/>
     <use x="521.142578" xlink:href="#DejaVuSans-101"/>
     <use x="582.666016" xlink:href="#DejaVuSans-115"/>
    </g>
   </g>
   <g id="text_18">
    <!-- v2.3.2 -->
    <defs>
     <path d="M 40.578125 39.3125 
Q 47.65625 37.796875 51.625 33 
Q 55.609375 28.21875 55.609375 21.1875 
Q 55.609375 10.40625 48.1875 4.484375 
Q 40.765625 -1.421875 27.09375 -1.421875 
Q 22.515625 -1.421875 17.65625 -0.515625 
Q 12.796875 0.390625 7.625 2.203125 
L 7.625 11.71875 
Q 11.71875 9.328125 16.59375 8.109375 
Q 21.484375 6.890625 26.8125 6.890625 
Q 36.078125 6.890625 40.9375 10.546875 
Q 45.796875 14.203125 45.796875 21.1875 
Q 45.796875 27.640625 41.28125 31.265625 
Q 36.765625 34.90625 28.71875 34.90625 
L 20.21875 34.90625 
L 20.21875 43.015625 
L 29.109375 43.015625 
Q 36.375 43.015625 40.234375 45.921875 
Q 44.09375 48.828125 44.09375 54.296875 
Q 44.09375 59.90625 40.109375 62.90625 
Q 36.140625 65.921875 28.71875 65.921875 
Q 24.65625 65.921875 20.015625 65.03125 
Q 15.375 64.15625 9.8125 62.3125 
L 9.8125 71.09375 
Q 15.4375 72.65625 20.34375 73.4375 
Q 25.25 74.21875 29.59375 74.21875 
Q 40.828125 74.21875 47.359375 69.109375 
Q 53.90625 64.015625 53.90625 55.328125 
Q 53.90625 49.265625 50.4375 45.09375 
Q 46.96875 40.921875 40.578125 39.3125 
z
" id="DejaVuSans-51"/>
    </defs>
    <g style="fill:#808080;" transform="translate(182.46275 294.151352)scale(0.1 -0.1)">
     <use xlink:href="#DejaVuSans-118"/>
     <use x="59.179688" xlink:href="#DejaVuSans-50"/>
     <use x="122.802734" xlink:href="#DejaVuSans-46"/>
     <use x="154.589844" xlink:href="#DejaVuSans-51"/>
     <use x="218.212891" xlink:href="#DejaVuSans-46"/>
     <use x="250" xlink:href="#DejaVuSans-50"/>
    </g>
   </g>
   <g id="text_19">
    <!-- 24 Lunacek bi-Rastrigin -->
    <defs>
     <path d="M 9.078125 75.984375 
L 18.109375 75.984375 
L 18.109375 31.109375 
L 44.921875 54.6875 
L 56.390625 54.6875 
L 27.390625 29.109375 
L 57.625 0 
L 45.90625 0 
L 18.109375 26.703125 
L 18.109375 0 
L 9.078125 0 
z
" id="DejaVuSans-107"/>
     <path d="M 44.390625 34.1875 
Q 47.5625 33.109375 50.5625 29.59375 
Q 53.5625 26.078125 56.59375 19.921875 
L 66.609375 0 
L 56 0 
L 46.6875 18.703125 
Q 43.0625 26.03125 39.671875 28.421875 
Q 36.28125 30.8125 30.421875 30.8125 
L 19.671875 30.8125 
L 19.671875 0 
L 9.8125 0 
L 9.8125 72.90625 
L 32.078125 72.90625 
Q 44.578125 72.90625 50.734375 67.671875 
Q 56.890625 62.453125 56.890625 51.90625 
Q 56.890625 45.015625 53.6875 40.46875 
Q 50.484375 35.9375 44.390625 34.1875 
z
M 19.671875 64.796875 
L 19.671875 38.921875 
L 32.078125 38.921875 
Q 39.203125 38.921875 42.84375 42.21875 
Q 46.484375 45.515625 46.484375 51.90625 
Q 46.484375 58.296875 42.84375 61.546875 
Q 39.203125 64.796875 32.078125 64.796875 
z
" id="DejaVuSans-82"/>
    </defs>
    <g transform="translate(79.9565 21.648)scale(0.2 -0.2)">
     <use xlink:href="#DejaVuSans-50"/>
     <use x="63.623047" xlink:href="#DejaVuSans-52"/>
     <use x="127.246094" xlink:href="#DejaVuSans-32"/>
     <use x="159.033203" xlink:href="#DejaVuSans-76"/>
     <use x="214.730469" xlink:href="#DejaVuSans-117"/>
     <use x="278.109375" xlink:href="#DejaVuSans-110"/>
     <use x="341.488281" xlink:href="#DejaVuSans-97"/>
     <use x="402.767578" xlink:href="#DejaVuSans-99"/>
     <use x="457.748047" xlink:href="#DejaVuSans-101"/>
     <use x="519.271484" xlink:href="#DejaVuSans-107"/>
     <use x="577.181641" xlink:href="#DejaVuSans-32"/>
     <use x="608.96875" xlink:href="#DejaVuSans-98"/>
     <use x="672.445312" xlink:href="#DejaVuSans-105"/>
     <use x="700.228516" xlink:href="#DejaVuSans-45"/>
     <use x="736.3125" xlink:href="#DejaVuSans-82"/>
     <use x="805.763672" xlink:href="#DejaVuSans-97"/>
     <use x="867.042969" xlink:href="#DejaVuSans-115"/>
     <use x="919.142578" xlink:href="#DejaVuSans-116"/>
     <use x="958.351562" xlink:href="#DejaVuSans-114"/>
     <use x="999.464844" xlink:href="#DejaVuSans-105"/>
     <use x="1027.248047" xlink:href="#DejaVuSans-103"/>
     <use x="1090.724609" xlink:href="#DejaVuSans-105"/>
     <use x="1118.507812" xlink:href="#DejaVuSans-110"/>
    </g>
   </g>
  </g>
 </g>
 <defs>
  <clipPath id="p04c7bb8225">
   <rect height="271.296" width="281.088" x="57.6" y="27.648"/>
  </clipPath>
 </defs>
</svg>
