<?xml version="1.0" encoding="utf-8" standalone="no"?>
<!DOCTYPE svg PUBLIC "-//W3C//DTD SVG 1.1//EN"
  "http://www.w3.org/Graphics/SVG/1.1/DTD/svg11.dtd">
<!-- Created with matplotlib (https://matplotlib.org/) -->
<svg height="345.6pt" version="1.1" viewBox="0 0 460.8 345.6" width="460.8pt" xmlns="http://www.w3.org/2000/svg" xmlns:xlink="http://www.w3.org/1999/xlink">
 <defs>
  <style type="text/css">
*{stroke-linecap:butt;stroke-linejoin:round;}
  </style>
 </defs>
 <g id="figure_1">
  <g id="patch_1">
   <path d="M 0 345.6 
L 460.8 345.6 
L 460.8 0 
L 0 0 
z
" style="fill:#ffffff;"/>
  </g>
  <g id="axes_1">
   <g id="patch_2">
    <path d="M 57.6 298.944 
L 338.688 298.944 
L 338.688 27.648 
L 57.6 27.648 
z
" style="fill:#ffffff;"/>
   </g>
   <g id="matplotlib.axis_1">
    <g id="xtick_1">
     <g id="line2d_1">
      <path clip-path="url(#pa2e8bbecb6)" d="M 57.6 298.944 
L 57.6 27.648 
" style="fill:none;stroke:#b0b0b0;stroke-linecap:square;stroke-width:0.8;"/>
     </g>
     <g id="line2d_2">
      <defs>
       <path d="M 0 0 
L 0 3.5 
" id="me6e7d58923" style="stroke:#000000;stroke-width:0.8;"/>
      </defs>
      <g>
       <use style="stroke:#000000;stroke-width:0.8;" x="57.6" xlink:href="#me6e7d58923" y="298.944"/>
      </g>
     </g>
     <g id="text_1">
      <!-- 0 -->
      <defs>
       <path d="M 31.78125 66.40625 
Q 24.171875 66.40625 20.328125 58.90625 
Q 16.5 51.421875 16.5 36.375 
Q 16.5 21.390625 20.328125 13.890625 
Q 24.171875 6.390625 31.78125 6.390625 
Q 39.453125 6.390625 43.28125 13.890625 
Q 47.125 21.390625 47.125 36.375 
Q 47.125 51.421875 43.28125 58.90625 
Q 39.453125 66.40625 31.78125 66.40625 
z
M 31.78125 74.21875 
Q 44.046875 74.21875 50.515625 64.515625 
Q 56.984375 54.828125 56.984375 36.375 
Q 56.984375 17.96875 50.515625 8.265625 
Q 44.046875 -1.421875 31.78125 -1.421875 
Q 19.53125 -1.421875 13.0625 8.265625 
Q 6.59375 17.96875 6.59375 36.375 
Q 6.59375 54.828125 13.0625 64.515625 
Q 19.53125 74.21875 31.78125 74.21875 
z
" id="DejaVuSans-48"/>
      </defs>
      <g transform="translate(51.2375 321.140875)scale(0.2 -0.2)">
       <use xlink:href="#DejaVuSans-48"/>
      </g>
     </g>
    </g>
    <g id="xtick_2">
     <g id="line2d_3">
      <path clip-path="url(#pa2e8bbecb6)" d="M 137.910857 298.944 
L 137.910857 27.648 
" style="fill:none;stroke:#b0b0b0;stroke-linecap:square;stroke-width:0.8;"/>
     </g>
     <g id="line2d_4">
      <g>
       <use style="stroke:#000000;stroke-width:0.8;" x="137.910857" xlink:href="#me6e7d58923" y="298.944"/>
      </g>
     </g>
     <g id="text_2">
      <!-- 2 -->
      <defs>
       <path d="M 19.1875 8.296875 
L 53.609375 8.296875 
L 53.609375 0 
L 7.328125 0 
L 7.328125 8.296875 
Q 12.9375 14.109375 22.625 23.890625 
Q 32.328125 33.6875 34.8125 36.53125 
Q 39.546875 41.84375 41.421875 45.53125 
Q 43.3125 49.21875 43.3125 52.78125 
Q 43.3125 58.59375 39.234375 62.25 
Q 35.15625 65.921875 28.609375 65.921875 
Q 23.96875 65.921875 18.8125 64.3125 
Q 13.671875 62.703125 7.8125 59.421875 
L 7.8125 69.390625 
Q 13.765625 71.78125 18.9375 73 
Q 24.125 74.21875 28.421875 74.21875 
Q 39.75 74.21875 46.484375 68.546875 
Q 53.21875 62.890625 53.21875 53.421875 
Q 53.21875 48.921875 51.53125 44.890625 
Q 49.859375 40.875 45.40625 35.40625 
Q 44.1875 33.984375 37.640625 27.21875 
Q 31.109375 20.453125 19.1875 8.296875 
z
" id="DejaVuSans-50"/>
      </defs>
      <g transform="translate(131.548357 321.140875)scale(0.2 -0.2)">
       <use xlink:href="#DejaVuSans-50"/>
      </g>
     </g>
    </g>
    <g id="xtick_3">
     <g id="line2d_5">
      <path clip-path="url(#pa2e8bbecb6)" d="M 218.221714 298.944 
L 218.221714 27.648 
" style="fill:none;stroke:#b0b0b0;stroke-linecap:square;stroke-width:0.8;"/>
     </g>
     <g id="line2d_6">
      <g>
       <use style="stroke:#000000;stroke-width:0.8;" x="218.221714" xlink:href="#me6e7d58923" y="298.944"/>
      </g>
     </g>
     <g id="text_3">
      <!-- 4 -->
      <defs>
       <path d="M 37.796875 64.3125 
L 12.890625 25.390625 
L 37.796875 25.390625 
z
M 35.203125 72.90625 
L 47.609375 72.90625 
L 47.609375 25.390625 
L 58.015625 25.390625 
L 58.015625 17.1875 
L 47.609375 17.1875 
L 47.609375 0 
L 37.796875 0 
L 37.796875 17.1875 
L 4.890625 17.1875 
L 4.890625 26.703125 
z
" id="DejaVuSans-52"/>
      </defs>
      <g transform="translate(211.859214 321.140875)scale(0.2 -0.2)">
       <use xlink:href="#DejaVuSans-52"/>
      </g>
     </g>
    </g>
    <g id="xtick_4">
     <g id="line2d_7">
      <path clip-path="url(#pa2e8bbecb6)" d="M 298.532571 298.944 
L 298.532571 27.648 
" style="fill:none;stroke:#b0b0b0;stroke-linecap:square;stroke-width:0.8;"/>
     </g>
     <g id="line2d_8">
      <g>
       <use style="stroke:#000000;stroke-width:0.8;" x="298.532571" xlink:href="#me6e7d58923" y="298.944"/>
      </g>
     </g>
     <g id="text_4">
      <!-- 6 -->
      <defs>
       <path d="M 33.015625 40.375 
Q 26.375 40.375 22.484375 35.828125 
Q 18.609375 31.296875 18.609375 23.390625 
Q 18.609375 15.53125 22.484375 10.953125 
Q 26.375 6.390625 33.015625 6.390625 
Q 39.65625 6.390625 43.53125 10.953125 
Q 47.40625 15.53125 47.40625 23.390625 
Q 47.40625 31.296875 43.53125 35.828125 
Q 39.65625 40.375 33.015625 40.375 
z
M 52.59375 71.296875 
L 52.59375 62.3125 
Q 48.875 64.0625 45.09375 64.984375 
Q 41.3125 65.921875 37.59375 65.921875 
Q 27.828125 65.921875 22.671875 59.328125 
Q 17.53125 52.734375 16.796875 39.40625 
Q 19.671875 43.65625 24.015625 45.921875 
Q 28.375 48.1875 33.59375 48.1875 
Q 44.578125 48.1875 50.953125 41.515625 
Q 57.328125 34.859375 57.328125 23.390625 
Q 57.328125 12.15625 50.6875 5.359375 
Q 44.046875 -1.421875 33.015625 -1.421875 
Q 20.359375 -1.421875 13.671875 8.265625 
Q 6.984375 17.96875 6.984375 36.375 
Q 6.984375 53.65625 15.1875 63.9375 
Q 23.390625 74.21875 37.203125 74.21875 
Q 40.921875 74.21875 44.703125 73.484375 
Q 48.484375 72.75 52.59375 71.296875 
z
" id="DejaVuSans-54"/>
      </defs>
      <g transform="translate(292.170071 321.140875)scale(0.2 -0.2)">
       <use xlink:href="#DejaVuSans-54"/>
      </g>
     </g>
    </g>
    <g id="xtick_5">
     <g id="line2d_9">
      <path clip-path="url(#pa2e8bbecb6)" d="M 57.6 298.944 
L 57.6 27.648 
" style="fill:none;stroke:#b0b0b0;stroke-linecap:square;stroke-width:0.8;"/>
     </g>
     <g id="line2d_10">
      <defs>
       <path d="M 0 0 
L 0 2 
" id="m4f15fa5276" style="stroke:#000000;stroke-width:0.6;"/>
      </defs>
      <g>
       <use style="stroke:#000000;stroke-width:0.6;" x="57.6" xlink:href="#m4f15fa5276" y="298.944"/>
      </g>
     </g>
    </g>
    <g id="xtick_6">
     <g id="line2d_11">
      <path clip-path="url(#pa2e8bbecb6)" d="M 97.755429 298.944 
L 97.755429 27.648 
" style="fill:none;stroke:#b0b0b0;stroke-linecap:square;stroke-width:0.8;"/>
     </g>
     <g id="line2d_12">
      <g>
       <use style="stroke:#000000;stroke-width:0.6;" x="97.755429" xlink:href="#m4f15fa5276" y="298.944"/>
      </g>
     </g>
    </g>
    <g id="xtick_7">
     <g id="line2d_13">
      <path clip-path="url(#pa2e8bbecb6)" d="M 137.910857 298.944 
L 137.910857 27.648 
" style="fill:none;stroke:#b0b0b0;stroke-linecap:square;stroke-width:0.8;"/>
     </g>
     <g id="line2d_14">
      <g>
       <use style="stroke:#000000;stroke-width:0.6;" x="137.910857" xlink:href="#m4f15fa5276" y="298.944"/>
      </g>
     </g>
    </g>
    <g id="xtick_8">
     <g id="line2d_15">
      <path clip-path="url(#pa2e8bbecb6)" d="M 178.066286 298.944 
L 178.066286 27.648 
" style="fill:none;stroke:#b0b0b0;stroke-linecap:square;stroke-width:0.8;"/>
     </g>
     <g id="line2d_16">
      <g>
       <use style="stroke:#000000;stroke-width:0.6;" x="178.066286" xlink:href="#m4f15fa5276" y="298.944"/>
      </g>
     </g>
    </g>
    <g id="xtick_9">
     <g id="line2d_17">
      <path clip-path="url(#pa2e8bbecb6)" d="M 218.221714 298.944 
L 218.221714 27.648 
" style="fill:none;stroke:#b0b0b0;stroke-linecap:square;stroke-width:0.8;"/>
     </g>
     <g id="line2d_18">
      <g>
       <use style="stroke:#000000;stroke-width:0.6;" x="218.221714" xlink:href="#m4f15fa5276" y="298.944"/>
      </g>
     </g>
    </g>
    <g id="xtick_10">
     <g id="line2d_19">
      <path clip-path="url(#pa2e8bbecb6)" d="M 258.377143 298.944 
L 258.377143 27.648 
" style="fill:none;stroke:#b0b0b0;stroke-linecap:square;stroke-width:0.8;"/>
     </g>
     <g id="line2d_20">
      <g>
       <use style="stroke:#000000;stroke-width:0.6;" x="258.377143" xlink:href="#m4f15fa5276" y="298.944"/>
      </g>
     </g>
    </g>
    <g id="xtick_11">
     <g id="line2d_21">
      <path clip-path="url(#pa2e8bbecb6)" d="M 298.532571 298.944 
L 298.532571 27.648 
" style="fill:none;stroke:#b0b0b0;stroke-linecap:square;stroke-width:0.8;"/>
     </g>
     <g id="line2d_22">
      <g>
       <use style="stroke:#000000;stroke-width:0.6;" x="298.532571" xlink:href="#m4f15fa5276" y="298.944"/>
      </g>
     </g>
    </g>
    <g id="xtick_12">
     <g id="line2d_23">
      <path clip-path="url(#pa2e8bbecb6)" d="M 338.688 298.944 
L 338.688 27.648 
" style="fill:none;stroke:#b0b0b0;stroke-linecap:square;stroke-width:0.8;"/>
     </g>
     <g id="line2d_24">
      <g>
       <use style="stroke:#000000;stroke-width:0.6;" x="338.688" xlink:href="#m4f15fa5276" y="298.944"/>
      </g>
     </g>
    </g>
    <g id="text_5">
     <!-- log10(# f-evals / dimension) -->
     <defs>
      <path d="M 9.421875 75.984375 
L 18.40625 75.984375 
L 18.40625 0 
L 9.421875 0 
z
" id="DejaVuSans-108"/>
      <path d="M 30.609375 48.390625 
Q 23.390625 48.390625 19.1875 42.75 
Q 14.984375 37.109375 14.984375 27.296875 
Q 14.984375 17.484375 19.15625 11.84375 
Q 23.34375 6.203125 30.609375 6.203125 
Q 37.796875 6.203125 41.984375 11.859375 
Q 46.1875 17.53125 46.1875 27.296875 
Q 46.1875 37.015625 41.984375 42.703125 
Q 37.796875 48.390625 30.609375 48.390625 
z
M 30.609375 56 
Q 42.328125 56 49.015625 48.375 
Q 55.71875 40.765625 55.71875 27.296875 
Q 55.71875 13.875 49.015625 6.21875 
Q 42.328125 -1.421875 30.609375 -1.421875 
Q 18.84375 -1.421875 12.171875 6.21875 
Q 5.515625 13.875 5.515625 27.296875 
Q 5.515625 40.765625 12.171875 48.375 
Q 18.84375 56 30.609375 56 
z
" id="DejaVuSans-111"/>
      <path d="M 45.40625 27.984375 
Q 45.40625 37.75 41.375 43.109375 
Q 37.359375 48.484375 30.078125 48.484375 
Q 22.859375 48.484375 18.828125 43.109375 
Q 14.796875 37.75 14.796875 27.984375 
Q 14.796875 18.265625 18.828125 12.890625 
Q 22.859375 7.515625 30.078125 7.515625 
Q 37.359375 7.515625 41.375 12.890625 
Q 45.40625 18.265625 45.40625 27.984375 
z
M 54.390625 6.78125 
Q 54.390625 -7.171875 48.1875 -13.984375 
Q 42 -20.796875 29.203125 -20.796875 
Q 24.46875 -20.796875 20.265625 -20.09375 
Q 16.0625 -19.390625 12.109375 -17.921875 
L 12.109375 -9.1875 
Q 16.0625 -11.328125 19.921875 -12.34375 
Q 23.78125 -13.375 27.78125 -13.375 
Q 36.625 -13.375 41.015625 -8.765625 
Q 45.40625 -4.15625 45.40625 5.171875 
L 45.40625 9.625 
Q 42.625 4.78125 38.28125 2.390625 
Q 33.9375 0 27.875 0 
Q 17.828125 0 11.671875 7.65625 
Q 5.515625 15.328125 5.515625 27.984375 
Q 5.515625 40.671875 11.671875 48.328125 
Q 17.828125 56 27.875 56 
Q 33.9375 56 38.28125 53.609375 
Q 42.625 51.21875 45.40625 46.390625 
L 45.40625 54.6875 
L 54.390625 54.6875 
z
" id="DejaVuSans-103"/>
      <path d="M 12.40625 8.296875 
L 28.515625 8.296875 
L 28.515625 63.921875 
L 10.984375 60.40625 
L 10.984375 69.390625 
L 28.421875 72.90625 
L 38.28125 72.90625 
L 38.28125 8.296875 
L 54.390625 8.296875 
L 54.390625 0 
L 12.40625 0 
z
" id="DejaVuSans-49"/>
      <path d="M 31 75.875 
Q 24.46875 64.65625 21.28125 53.65625 
Q 18.109375 42.671875 18.109375 31.390625 
Q 18.109375 20.125 21.3125 9.0625 
Q 24.515625 -2 31 -13.1875 
L 23.1875 -13.1875 
Q 15.875 -1.703125 12.234375 9.375 
Q 8.59375 20.453125 8.59375 31.390625 
Q 8.59375 42.28125 12.203125 53.3125 
Q 15.828125 64.359375 23.1875 75.875 
z
" id="DejaVuSans-40"/>
      <path d="M 51.125 44 
L 36.921875 44 
L 32.8125 27.6875 
L 47.125 27.6875 
z
M 43.796875 71.78125 
L 38.71875 51.515625 
L 52.984375 51.515625 
L 58.109375 71.78125 
L 65.921875 71.78125 
L 60.890625 51.515625 
L 76.125 51.515625 
L 76.125 44 
L 58.984375 44 
L 54.984375 27.6875 
L 70.515625 27.6875 
L 70.515625 20.21875 
L 53.078125 20.21875 
L 48 0 
L 40.1875 0 
L 45.21875 20.21875 
L 30.90625 20.21875 
L 25.875 0 
L 18.015625 0 
L 23.09375 20.21875 
L 7.71875 20.21875 
L 7.71875 27.6875 
L 24.90625 27.6875 
L 29 44 
L 13.28125 44 
L 13.28125 51.515625 
L 30.90625 51.515625 
L 35.890625 71.78125 
z
" id="DejaVuSans-35"/>
      <path id="DejaVuSans-32"/>
      <path d="M 37.109375 75.984375 
L 37.109375 68.5 
L 28.515625 68.5 
Q 23.6875 68.5 21.796875 66.546875 
Q 19.921875 64.59375 19.921875 59.515625 
L 19.921875 54.6875 
L 34.71875 54.6875 
L 34.71875 47.703125 
L 19.921875 47.703125 
L 19.921875 0 
L 10.890625 0 
L 10.890625 47.703125 
L 2.296875 47.703125 
L 2.296875 54.6875 
L 10.890625 54.6875 
L 10.890625 58.5 
Q 10.890625 67.625 15.140625 71.796875 
Q 19.390625 75.984375 28.609375 75.984375 
z
" id="DejaVuSans-102"/>
      <path d="M 4.890625 31.390625 
L 31.203125 31.390625 
L 31.203125 23.390625 
L 4.890625 23.390625 
z
" id="DejaVuSans-45"/>
      <path d="M 56.203125 29.59375 
L 56.203125 25.203125 
L 14.890625 25.203125 
Q 15.484375 15.921875 20.484375 11.0625 
Q 25.484375 6.203125 34.421875 6.203125 
Q 39.59375 6.203125 44.453125 7.46875 
Q 49.3125 8.734375 54.109375 11.28125 
L 54.109375 2.78125 
Q 49.265625 0.734375 44.1875 -0.34375 
Q 39.109375 -1.421875 33.890625 -1.421875 
Q 20.796875 -1.421875 13.15625 6.1875 
Q 5.515625 13.8125 5.515625 26.8125 
Q 5.515625 40.234375 12.765625 48.109375 
Q 20.015625 56 32.328125 56 
Q 43.359375 56 49.78125 48.890625 
Q 56.203125 41.796875 56.203125 29.59375 
z
M 47.21875 32.234375 
Q 47.125 39.59375 43.09375 43.984375 
Q 39.0625 48.390625 32.421875 48.390625 
Q 24.90625 48.390625 20.390625 44.140625 
Q 15.875 39.890625 15.1875 32.171875 
z
" id="DejaVuSans-101"/>
      <path d="M 2.984375 54.6875 
L 12.5 54.6875 
L 29.59375 8.796875 
L 46.6875 54.6875 
L 56.203125 54.6875 
L 35.6875 0 
L 23.484375 0 
z
" id="DejaVuSans-118"/>
      <path d="M 34.28125 27.484375 
Q 23.390625 27.484375 19.1875 25 
Q 14.984375 22.515625 14.984375 16.5 
Q 14.984375 11.71875 18.140625 8.90625 
Q 21.296875 6.109375 26.703125 6.109375 
Q 34.1875 6.109375 38.703125 11.40625 
Q 43.21875 16.703125 43.21875 25.484375 
L 43.21875 27.484375 
z
M 52.203125 31.203125 
L 52.203125 0 
L 43.21875 0 
L 43.21875 8.296875 
Q 40.140625 3.328125 35.546875 0.953125 
Q 30.953125 -1.421875 24.3125 -1.421875 
Q 15.921875 -1.421875 10.953125 3.296875 
Q 6 8.015625 6 15.921875 
Q 6 25.140625 12.171875 29.828125 
Q 18.359375 34.515625 30.609375 34.515625 
L 43.21875 34.515625 
L 43.21875 35.40625 
Q 43.21875 41.609375 39.140625 45 
Q 35.0625 48.390625 27.6875 48.390625 
Q 23 48.390625 18.546875 47.265625 
Q 14.109375 46.140625 10.015625 43.890625 
L 10.015625 52.203125 
Q 14.9375 54.109375 19.578125 55.046875 
Q 24.21875 56 28.609375 56 
Q 40.484375 56 46.34375 49.84375 
Q 52.203125 43.703125 52.203125 31.203125 
z
" id="DejaVuSans-97"/>
      <path d="M 44.28125 53.078125 
L 44.28125 44.578125 
Q 40.484375 46.53125 36.375 47.5 
Q 32.28125 48.484375 27.875 48.484375 
Q 21.1875 48.484375 17.84375 46.4375 
Q 14.5 44.390625 14.5 40.28125 
Q 14.5 37.15625 16.890625 35.375 
Q 19.28125 33.59375 26.515625 31.984375 
L 29.59375 31.296875 
Q 39.15625 29.25 43.1875 25.515625 
Q 47.21875 21.78125 47.21875 15.09375 
Q 47.21875 7.46875 41.1875 3.015625 
Q 35.15625 -1.421875 24.609375 -1.421875 
Q 20.21875 -1.421875 15.453125 -0.5625 
Q 10.6875 0.296875 5.421875 2 
L 5.421875 11.28125 
Q 10.40625 8.6875 15.234375 7.390625 
Q 20.0625 6.109375 24.8125 6.109375 
Q 31.15625 6.109375 34.5625 8.28125 
Q 37.984375 10.453125 37.984375 14.40625 
Q 37.984375 18.0625 35.515625 20.015625 
Q 33.0625 21.96875 24.703125 23.78125 
L 21.578125 24.515625 
Q 13.234375 26.265625 9.515625 29.90625 
Q 5.8125 33.546875 5.8125 39.890625 
Q 5.8125 47.609375 11.28125 51.796875 
Q 16.75 56 26.8125 56 
Q 31.78125 56 36.171875 55.265625 
Q 40.578125 54.546875 44.28125 53.078125 
z
" id="DejaVuSans-115"/>
      <path d="M 25.390625 72.90625 
L 33.6875 72.90625 
L 8.296875 -9.28125 
L 0 -9.28125 
z
" id="DejaVuSans-47"/>
      <path d="M 45.40625 46.390625 
L 45.40625 75.984375 
L 54.390625 75.984375 
L 54.390625 0 
L 45.40625 0 
L 45.40625 8.203125 
Q 42.578125 3.328125 38.25 0.953125 
Q 33.9375 -1.421875 27.875 -1.421875 
Q 17.96875 -1.421875 11.734375 6.484375 
Q 5.515625 14.40625 5.515625 27.296875 
Q 5.515625 40.1875 11.734375 48.09375 
Q 17.96875 56 27.875 56 
Q 33.9375 56 38.25 53.625 
Q 42.578125 51.265625 45.40625 46.390625 
z
M 14.796875 27.296875 
Q 14.796875 17.390625 18.875 11.75 
Q 22.953125 6.109375 30.078125 6.109375 
Q 37.203125 6.109375 41.296875 11.75 
Q 45.40625 17.390625 45.40625 27.296875 
Q 45.40625 37.203125 41.296875 42.84375 
Q 37.203125 48.484375 30.078125 48.484375 
Q 22.953125 48.484375 18.875 42.84375 
Q 14.796875 37.203125 14.796875 27.296875 
z
" id="DejaVuSans-100"/>
      <path d="M 9.421875 54.6875 
L 18.40625 54.6875 
L 18.40625 0 
L 9.421875 0 
z
M 9.421875 75.984375 
L 18.40625 75.984375 
L 18.40625 64.59375 
L 9.421875 64.59375 
z
" id="DejaVuSans-105"/>
      <path d="M 52 44.1875 
Q 55.375 50.25 60.0625 53.125 
Q 64.75 56 71.09375 56 
Q 79.640625 56 84.28125 50.015625 
Q 88.921875 44.046875 88.921875 33.015625 
L 88.921875 0 
L 79.890625 0 
L 79.890625 32.71875 
Q 79.890625 40.578125 77.09375 44.375 
Q 74.3125 48.1875 68.609375 48.1875 
Q 61.625 48.1875 57.5625 43.546875 
Q 53.515625 38.921875 53.515625 30.90625 
L 53.515625 0 
L 44.484375 0 
L 44.484375 32.71875 
Q 44.484375 40.625 41.703125 44.40625 
Q 38.921875 48.1875 33.109375 48.1875 
Q 26.21875 48.1875 22.15625 43.53125 
Q 18.109375 38.875 18.109375 30.90625 
L 18.109375 0 
L 9.078125 0 
L 9.078125 54.6875 
L 18.109375 54.6875 
L 18.109375 46.1875 
Q 21.1875 51.21875 25.484375 53.609375 
Q 29.78125 56 35.6875 56 
Q 41.65625 56 45.828125 52.96875 
Q 50 49.953125 52 44.1875 
z
" id="DejaVuSans-109"/>
      <path d="M 54.890625 33.015625 
L 54.890625 0 
L 45.90625 0 
L 45.90625 32.71875 
Q 45.90625 40.484375 42.875 44.328125 
Q 39.84375 48.1875 33.796875 48.1875 
Q 26.515625 48.1875 22.3125 43.546875 
Q 18.109375 38.921875 18.109375 30.90625 
L 18.109375 0 
L 9.078125 0 
L 9.078125 54.6875 
L 18.109375 54.6875 
L 18.109375 46.1875 
Q 21.34375 51.125 25.703125 53.5625 
Q 30.078125 56 35.796875 56 
Q 45.21875 56 50.046875 50.171875 
Q 54.890625 44.34375 54.890625 33.015625 
z
" id="DejaVuSans-110"/>
      <path d="M 8.015625 75.875 
L 15.828125 75.875 
Q 23.140625 64.359375 26.78125 53.3125 
Q 30.421875 42.28125 30.421875 31.390625 
Q 30.421875 20.453125 26.78125 9.375 
Q 23.140625 -1.703125 15.828125 -13.1875 
L 8.015625 -13.1875 
Q 14.5 -2 17.703125 9.0625 
Q 20.90625 20.125 20.90625 31.390625 
Q 20.90625 42.671875 17.703125 53.65625 
Q 14.5 64.65625 8.015625 75.875 
z
" id="DejaVuSans-41"/>
     </defs>
     <g transform="translate(77.303219 342.217594)scale(0.17 -0.17)">
      <use xlink:href="#DejaVuSans-108"/>
      <use x="27.783203" xlink:href="#DejaVuSans-111"/>
      <use x="88.964844" xlink:href="#DejaVuSans-103"/>
      <use x="152.441406" xlink:href="#DejaVuSans-49"/>
      <use x="216.064453" xlink:href="#DejaVuSans-48"/>
      <use x="279.6875" xlink:href="#DejaVuSans-40"/>
      <use x="318.701172" xlink:href="#DejaVuSans-35"/>
      <use x="402.490234" xlink:href="#DejaVuSans-32"/>
      <use x="434.277344" xlink:href="#DejaVuSans-102"/>
      <use x="469.404297" xlink:href="#DejaVuSans-45"/>
      <use x="505.488281" xlink:href="#DejaVuSans-101"/>
      <use x="567.011719" xlink:href="#DejaVuSans-118"/>
      <use x="626.191406" xlink:href="#DejaVuSans-97"/>
      <use x="687.470703" xlink:href="#DejaVuSans-108"/>
      <use x="715.253906" xlink:href="#DejaVuSans-115"/>
      <use x="767.353516" xlink:href="#DejaVuSans-32"/>
      <use x="799.140625" xlink:href="#DejaVuSans-47"/>
      <use x="832.832031" xlink:href="#DejaVuSans-32"/>
      <use x="864.619141" xlink:href="#DejaVuSans-100"/>
      <use x="928.095703" xlink:href="#DejaVuSans-105"/>
      <use x="955.878906" xlink:href="#DejaVuSans-109"/>
      <use x="1053.291016" xlink:href="#DejaVuSans-101"/>
      <use x="1114.814453" xlink:href="#DejaVuSans-110"/>
      <use x="1178.193359" xlink:href="#DejaVuSans-115"/>
      <use x="1230.292969" xlink:href="#DejaVuSans-105"/>
      <use x="1258.076172" xlink:href="#DejaVuSans-111"/>
      <use x="1319.257812" xlink:href="#DejaVuSans-110"/>
      <use x="1382.636719" xlink:href="#DejaVuSans-41"/>
     </g>
    </g>
   </g>
   <g id="matplotlib.axis_2">
    <g id="ytick_1">
     <g id="line2d_25">
      <path clip-path="url(#pa2e8bbecb6)" d="M 57.6 298.944 
L 338.688 298.944 
" style="fill:none;stroke:#b0b0b0;stroke-linecap:square;stroke-width:0.8;"/>
     </g>
     <g id="line2d_26">
      <defs>
       <path d="M 0 0 
L -3.5 0 
" id="m146a2bac1f" style="stroke:#000000;stroke-width:0.8;"/>
      </defs>
      <g>
       <use style="stroke:#000000;stroke-width:0.8;" x="57.6" xlink:href="#m146a2bac1f" y="298.944"/>
      </g>
     </g>
     <g id="text_6">
      <!-- 0.0 -->
      <defs>
       <path d="M 10.6875 12.40625 
L 21 12.40625 
L 21 0 
L 10.6875 0 
z
" id="DejaVuSans-46"/>
      </defs>
      <g transform="translate(25.155 305.02275)scale(0.16 -0.16)">
       <use xlink:href="#DejaVuSans-48"/>
       <use x="63.623047" xlink:href="#DejaVuSans-46"/>
       <use x="95.410156" xlink:href="#DejaVuSans-48"/>
      </g>
     </g>
    </g>
    <g id="ytick_2">
     <g id="line2d_27">
      <path clip-path="url(#pa2e8bbecb6)" d="M 57.6 245.22202 
L 338.688 245.22202 
" style="fill:none;stroke:#b0b0b0;stroke-linecap:square;stroke-width:0.8;"/>
     </g>
     <g id="line2d_28">
      <g>
       <use style="stroke:#000000;stroke-width:0.8;" x="57.6" xlink:href="#m146a2bac1f" y="245.22202"/>
      </g>
     </g>
     <g id="text_7">
      <!-- 0.2 -->
      <g transform="translate(25.155 251.30077)scale(0.16 -0.16)">
       <use xlink:href="#DejaVuSans-48"/>
       <use x="63.623047" xlink:href="#DejaVuSans-46"/>
       <use x="95.410156" xlink:href="#DejaVuSans-50"/>
      </g>
     </g>
    </g>
    <g id="ytick_3">
     <g id="line2d_29">
      <path clip-path="url(#pa2e8bbecb6)" d="M 57.6 191.50004 
L 338.688 191.50004 
" style="fill:none;stroke:#b0b0b0;stroke-linecap:square;stroke-width:0.8;"/>
     </g>
     <g id="line2d_30">
      <g>
       <use style="stroke:#000000;stroke-width:0.8;" x="57.6" xlink:href="#m146a2bac1f" y="191.50004"/>
      </g>
     </g>
     <g id="text_8">
      <!-- 0.4 -->
      <g transform="translate(25.155 197.57879)scale(0.16 -0.16)">
       <use xlink:href="#DejaVuSans-48"/>
       <use x="63.623047" xlink:href="#DejaVuSans-46"/>
       <use x="95.410156" xlink:href="#DejaVuSans-52"/>
      </g>
     </g>
    </g>
    <g id="ytick_4">
     <g id="line2d_31">
      <path clip-path="url(#pa2e8bbecb6)" d="M 57.6 137.778059 
L 338.688 137.778059 
" style="fill:none;stroke:#b0b0b0;stroke-linecap:square;stroke-width:0.8;"/>
     </g>
     <g id="line2d_32">
      <g>
       <use style="stroke:#000000;stroke-width:0.8;" x="57.6" xlink:href="#m146a2bac1f" y="137.778059"/>
      </g>
     </g>
     <g id="text_9">
      <!-- 0.6 -->
      <g transform="translate(25.155 143.856809)scale(0.16 -0.16)">
       <use xlink:href="#DejaVuSans-48"/>
       <use x="63.623047" xlink:href="#DejaVuSans-46"/>
       <use x="95.410156" xlink:href="#DejaVuSans-54"/>
      </g>
     </g>
    </g>
    <g id="ytick_5">
     <g id="line2d_33">
      <path clip-path="url(#pa2e8bbecb6)" d="M 57.6 84.056079 
L 338.688 84.056079 
" style="fill:none;stroke:#b0b0b0;stroke-linecap:square;stroke-width:0.8;"/>
     </g>
     <g id="line2d_34">
      <g>
       <use style="stroke:#000000;stroke-width:0.8;" x="57.6" xlink:href="#m146a2bac1f" y="84.056079"/>
      </g>
     </g>
     <g id="text_10">
      <!-- 0.8 -->
      <defs>
       <path d="M 31.78125 34.625 
Q 24.75 34.625 20.71875 30.859375 
Q 16.703125 27.09375 16.703125 20.515625 
Q 16.703125 13.921875 20.71875 10.15625 
Q 24.75 6.390625 31.78125 6.390625 
Q 38.8125 6.390625 42.859375 10.171875 
Q 46.921875 13.96875 46.921875 20.515625 
Q 46.921875 27.09375 42.890625 30.859375 
Q 38.875 34.625 31.78125 34.625 
z
M 21.921875 38.8125 
Q 15.578125 40.375 12.03125 44.71875 
Q 8.5 49.078125 8.5 55.328125 
Q 8.5 64.0625 14.71875 69.140625 
Q 20.953125 74.21875 31.78125 74.21875 
Q 42.671875 74.21875 48.875 69.140625 
Q 55.078125 64.0625 55.078125 55.328125 
Q 55.078125 49.078125 51.53125 44.71875 
Q 48 40.375 41.703125 38.8125 
Q 48.828125 37.15625 52.796875 32.3125 
Q 56.78125 27.484375 56.78125 20.515625 
Q 56.78125 9.90625 50.3125 4.234375 
Q 43.84375 -1.421875 31.78125 -1.421875 
Q 19.734375 -1.421875 13.25 4.234375 
Q 6.78125 9.90625 6.78125 20.515625 
Q 6.78125 27.484375 10.78125 32.3125 
Q 14.796875 37.15625 21.921875 38.8125 
z
M 18.3125 54.390625 
Q 18.3125 48.734375 21.84375 45.5625 
Q 25.390625 42.390625 31.78125 42.390625 
Q 38.140625 42.390625 41.71875 45.5625 
Q 45.3125 48.734375 45.3125 54.390625 
Q 45.3125 60.0625 41.71875 63.234375 
Q 38.140625 66.40625 31.78125 66.40625 
Q 25.390625 66.40625 21.84375 63.234375 
Q 18.3125 60.0625 18.3125 54.390625 
z
" id="DejaVuSans-56"/>
      </defs>
      <g transform="translate(25.155 90.134829)scale(0.16 -0.16)">
       <use xlink:href="#DejaVuSans-48"/>
       <use x="63.623047" xlink:href="#DejaVuSans-46"/>
       <use x="95.410156" xlink:href="#DejaVuSans-56"/>
      </g>
     </g>
    </g>
    <g id="ytick_6">
     <g id="line2d_35">
      <path clip-path="url(#pa2e8bbecb6)" d="M 57.6 30.334099 
L 338.688 30.334099 
" style="fill:none;stroke:#b0b0b0;stroke-linecap:square;stroke-width:0.8;"/>
     </g>
     <g id="line2d_36">
      <g>
       <use style="stroke:#000000;stroke-width:0.8;" x="57.6" xlink:href="#m146a2bac1f" y="30.334099"/>
      </g>
     </g>
     <g id="text_11">
      <!-- 1.0 -->
      <g transform="translate(25.155 36.412849)scale(0.16 -0.16)">
       <use xlink:href="#DejaVuSans-49"/>
       <use x="63.623047" xlink:href="#DejaVuSans-46"/>
       <use x="95.410156" xlink:href="#DejaVuSans-48"/>
      </g>
     </g>
    </g>
    <g id="text_12">
     <!-- Fraction of function,target pairs -->
     <defs>
      <path d="M 9.8125 72.90625 
L 51.703125 72.90625 
L 51.703125 64.59375 
L 19.671875 64.59375 
L 19.671875 43.109375 
L 48.578125 43.109375 
L 48.578125 34.8125 
L 19.671875 34.8125 
L 19.671875 0 
L 9.8125 0 
z
" id="DejaVuSans-70"/>
      <path d="M 41.109375 46.296875 
Q 39.59375 47.171875 37.8125 47.578125 
Q 36.03125 48 33.890625 48 
Q 26.265625 48 22.1875 43.046875 
Q 18.109375 38.09375 18.109375 28.8125 
L 18.109375 0 
L 9.078125 0 
L 9.078125 54.6875 
L 18.109375 54.6875 
L 18.109375 46.1875 
Q 20.953125 51.171875 25.484375 53.578125 
Q 30.03125 56 36.53125 56 
Q 37.453125 56 38.578125 55.875 
Q 39.703125 55.765625 41.0625 55.515625 
z
" id="DejaVuSans-114"/>
      <path d="M 48.78125 52.59375 
L 48.78125 44.1875 
Q 44.96875 46.296875 41.140625 47.34375 
Q 37.3125 48.390625 33.40625 48.390625 
Q 24.65625 48.390625 19.8125 42.84375 
Q 14.984375 37.3125 14.984375 27.296875 
Q 14.984375 17.28125 19.8125 11.734375 
Q 24.65625 6.203125 33.40625 6.203125 
Q 37.3125 6.203125 41.140625 7.25 
Q 44.96875 8.296875 48.78125 10.40625 
L 48.78125 2.09375 
Q 45.015625 0.34375 40.984375 -0.53125 
Q 36.96875 -1.421875 32.421875 -1.421875 
Q 20.0625 -1.421875 12.78125 6.34375 
Q 5.515625 14.109375 5.515625 27.296875 
Q 5.515625 40.671875 12.859375 48.328125 
Q 20.21875 56 33.015625 56 
Q 37.15625 56 41.109375 55.140625 
Q 45.0625 54.296875 48.78125 52.59375 
z
" id="DejaVuSans-99"/>
      <path d="M 18.3125 70.21875 
L 18.3125 54.6875 
L 36.8125 54.6875 
L 36.8125 47.703125 
L 18.3125 47.703125 
L 18.3125 18.015625 
Q 18.3125 11.328125 20.140625 9.421875 
Q 21.96875 7.515625 27.59375 7.515625 
L 36.8125 7.515625 
L 36.8125 0 
L 27.59375 0 
Q 17.1875 0 13.234375 3.875 
Q 9.28125 7.765625 9.28125 18.015625 
L 9.28125 47.703125 
L 2.6875 47.703125 
L 2.6875 54.6875 
L 9.28125 54.6875 
L 9.28125 70.21875 
z
" id="DejaVuSans-116"/>
      <path d="M 8.5 21.578125 
L 8.5 54.6875 
L 17.484375 54.6875 
L 17.484375 21.921875 
Q 17.484375 14.15625 20.5 10.265625 
Q 23.53125 6.390625 29.59375 6.390625 
Q 36.859375 6.390625 41.078125 11.03125 
Q 45.3125 15.671875 45.3125 23.6875 
L 45.3125 54.6875 
L 54.296875 54.6875 
L 54.296875 0 
L 45.3125 0 
L 45.3125 8.40625 
Q 42.046875 3.421875 37.71875 1 
Q 33.40625 -1.421875 27.6875 -1.421875 
Q 18.265625 -1.421875 13.375 4.4375 
Q 8.5 10.296875 8.5 21.578125 
z
M 31.109375 56 
z
" id="DejaVuSans-117"/>
      <path d="M 11.71875 12.40625 
L 22.015625 12.40625 
L 22.015625 4 
L 14.015625 -11.625 
L 7.71875 -11.625 
L 11.71875 4 
z
" id="DejaVuSans-44"/>
      <path d="M 18.109375 8.203125 
L 18.109375 -20.796875 
L 9.078125 -20.796875 
L 9.078125 54.6875 
L 18.109375 54.6875 
L 18.109375 46.390625 
Q 20.953125 51.265625 25.265625 53.625 
Q 29.59375 56 35.59375 56 
Q 45.5625 56 51.78125 48.09375 
Q 58.015625 40.1875 58.015625 27.296875 
Q 58.015625 14.40625 51.78125 6.484375 
Q 45.5625 -1.421875 35.59375 -1.421875 
Q 29.59375 -1.421875 25.265625 0.953125 
Q 20.953125 3.328125 18.109375 8.203125 
z
M 48.6875 27.296875 
Q 48.6875 37.203125 44.609375 42.84375 
Q 40.53125 48.484375 33.40625 48.484375 
Q 26.265625 48.484375 22.1875 42.84375 
Q 18.109375 37.203125 18.109375 27.296875 
Q 18.109375 17.390625 22.1875 11.75 
Q 26.265625 6.109375 33.40625 6.109375 
Q 40.53125 6.109375 44.609375 11.75 
Q 48.6875 17.390625 48.6875 27.296875 
z
" id="DejaVuSans-112"/>
     </defs>
     <g transform="translate(17.619531 298.435375)rotate(-90)scale(0.17 -0.17)">
      <use xlink:href="#DejaVuSans-70"/>
      <use x="57.410156" xlink:href="#DejaVuSans-114"/>
      <use x="98.523438" xlink:href="#DejaVuSans-97"/>
      <use x="159.802734" xlink:href="#DejaVuSans-99"/>
      <use x="214.783203" xlink:href="#DejaVuSans-116"/>
      <use x="253.992188" xlink:href="#DejaVuSans-105"/>
      <use x="281.775391" xlink:href="#DejaVuSans-111"/>
      <use x="342.957031" xlink:href="#DejaVuSans-110"/>
      <use x="406.335938" xlink:href="#DejaVuSans-32"/>
      <use x="438.123047" xlink:href="#DejaVuSans-111"/>
      <use x="499.304688" xlink:href="#DejaVuSans-102"/>
      <use x="534.509766" xlink:href="#DejaVuSans-32"/>
      <use x="566.296875" xlink:href="#DejaVuSans-102"/>
      <use x="601.501953" xlink:href="#DejaVuSans-117"/>
      <use x="664.880859" xlink:href="#DejaVuSans-110"/>
      <use x="728.259766" xlink:href="#DejaVuSans-99"/>
      <use x="783.240234" xlink:href="#DejaVuSans-116"/>
      <use x="822.449219" xlink:href="#DejaVuSans-105"/>
      <use x="850.232422" xlink:href="#DejaVuSans-111"/>
      <use x="911.414062" xlink:href="#DejaVuSans-110"/>
      <use x="974.792969" xlink:href="#DejaVuSans-44"/>
      <use x="1006.580078" xlink:href="#DejaVuSans-116"/>
      <use x="1045.789062" xlink:href="#DejaVuSans-97"/>
      <use x="1107.068359" xlink:href="#DejaVuSans-114"/>
      <use x="1148.166016" xlink:href="#DejaVuSans-103"/>
      <use x="1211.642578" xlink:href="#DejaVuSans-101"/>
      <use x="1273.166016" xlink:href="#DejaVuSans-116"/>
      <use x="1312.375" xlink:href="#DejaVuSans-32"/>
      <use x="1344.162109" xlink:href="#DejaVuSans-112"/>
      <use x="1407.638672" xlink:href="#DejaVuSans-97"/>
      <use x="1468.917969" xlink:href="#DejaVuSans-105"/>
      <use x="1496.701172" xlink:href="#DejaVuSans-114"/>
      <use x="1537.814453" xlink:href="#DejaVuSans-115"/>
     </g>
    </g>
   </g>
   <g id="line2d_37">
    <defs>
     <path d="M 0 1.5 
C 0.397805 1.5 0.77937 1.341951 1.06066 1.06066 
C 1.341951 0.77937 1.5 0.397805 1.5 0 
C 1.5 -0.397805 1.341951 -0.77937 1.06066 -1.06066 
C 0.77937 -1.341951 0.397805 -1.5 0 -1.5 
C -0.397805 -1.5 -0.77937 -1.341951 -1.06066 -1.06066 
C -1.341951 -0.77937 -1.5 -0.397805 -1.5 0 
C -1.5 0.397805 -1.341951 0.77937 -1.06066 1.06066 
C -0.77937 1.341951 -0.397805 1.5 0 1.5 
z
" id="m51f5790042" style="stroke:#000080;"/>
    </defs>
    <g>
     <use style="fill:#000080;stroke:#000080;" x="187.910083" xlink:href="#m51f5790042" y="30.334099"/>
     <use style="fill:#000080;stroke:#000080;" x="187.910083" xlink:href="#m51f5790042" y="30.334099"/>
    </g>
   </g>
   <g id="line2d_38">
    <path d="M 45.512012 298.944 
L 45.512012 278.929929 
L 57.6 278.929929 
L 57.6 276.296499 
L 64.67102 276.296499 
L 64.67102 269.976266 
L 69.687988 269.976266 
L 69.687988 267.869521 
L 73.579452 267.869521 
L 73.579452 266.816149 
L 76.759008 266.816149 
L 76.759008 264.182719 
L 79.447285 264.182719 
L 79.447285 263.129347 
L 81.775977 263.129347 
L 81.775977 262.075974 
L 83.830028 262.075974 
L 83.830028 261.549288 
L 85.66744 261.549288 
L 85.66744 259.96923 
L 87.329581 259.96923 
L 87.329581 259.442544 
L 88.846997 259.442544 
L 88.846997 258.915858 
L 90.242884 258.915858 
L 90.242884 257.3358 
L 91.535274 257.3358 
L 91.535274 256.809114 
L 93.863965 256.809114 
L 93.863965 256.282427 
L 94.921215 256.282427 
L 94.921215 254.702369 
L 97.755429 254.702369 
L 97.755429 253.648997 
L 100.192776 253.648997 
L 100.192776 252.595625 
L 102.330873 252.595625 
L 102.330873 251.542253 
L 102.989037 251.542253 
L 102.989037 249.435508 
L 103.623262 249.435508 
L 103.623262 248.382136 
L 104.826449 248.382136 
L 104.826449 246.802078 
L 106.48859 246.802078 
L 106.48859 246.275392 
L 107.514726 246.275392 
L 107.514726 245.748706 
L 108.483824 245.748706 
L 108.483824 245.22202 
L 108.948899 245.22202 
L 108.948899 244.168648 
L 110.274038 244.168648 
L 110.274038 242.061903 
L 110.694282 242.061903 
L 110.694282 241.008531 
L 112.280765 241.008531 
L 112.280765 240.481845 
L 112.655818 240.481845 
L 112.655818 239.955159 
L 113.022974 239.955159 
L 113.022974 238.901787 
L 114.418861 238.901787 
L 114.418861 237.848415 
L 114.751048 237.848415 
L 114.751048 236.795043 
L 117.765302 236.795043 
L 117.765302 235.214984 
L 119.097192 235.214984 
L 119.097192 234.688298 
L 119.850084 234.688298 
L 119.850084 233.634926 
L 120.33454 233.634926 
L 120.33454 233.10824 
L 120.571812 233.10824 
L 120.571812 232.054868 
L 122.362027 232.054868 
L 122.362027 231.528182 
L 122.782271 231.528182 
L 122.782271 231.001496 
L 122.988655 231.001496 
L 122.988655 229.948123 
L 123.790603 229.948123 
L 123.790603 228.894751 
L 123.985457 228.894751 
L 123.985457 227.841379 
L 124.178158 227.841379 
L 124.178158 226.788007 
L 124.743806 226.788007 
L 124.743806 226.261321 
L 125.110962 226.261321 
L 125.110962 225.734635 
L 125.470548 225.734635 
L 125.470548 225.207949 
L 126.50685 225.207949 
L 126.50685 224.681263 
L 126.673734 224.681263 
L 126.673734 224.154577 
L 127.002787 224.154577 
L 127.002787 223.627891 
L 127.165014 223.627891 
L 127.165014 222.574518 
L 127.799239 222.574518 
L 127.799239 222.047832 
L 128.260216 222.047832 
L 128.260216 219.941088 
L 128.560901 219.941088 
L 128.560901 218.36103 
L 129.290685 218.36103 
L 129.290685 217.834344 
L 129.714332 217.834344 
L 129.714332 216.254285 
L 130.664567 216.254285 
L 130.664567 215.727599 
L 130.796184 215.727599 
L 130.796184 214.674227 
L 131.056477 214.674227 
L 131.056477 214.147541 
L 131.565689 214.147541 
L 131.565689 212.567483 
L 131.814826 212.567483 
L 131.814826 211.514111 
L 132.060454 211.514111 
L 132.060454 210.460738 
L 132.30267 210.460738 
L 132.30267 208.353994 
L 132.893889 208.353994 
L 132.893889 205.720564 
L 133.009765 205.720564 
L 133.009765 204.667192 
L 133.689303 204.667192 
L 133.689303 203.613819 
L 134.12805 203.613819 
L 134.236034 200.980389 
L 134.343353 200.980389 
L 134.343353 199.927017 
L 134.973757 199.927017 
L 134.973757 199.400331 
L 135.482227 199.400331 
L 135.582166 198.346959 
L 135.878591 198.346959 
L 135.878591 197.293586 
L 136.645276 197.293586 
L 136.645276 195.713528 
L 136.831795 195.713528 
L 136.831795 195.186842 
L 137.016339 195.186842 
L 137.107884 191.50004 
L 137.647286 191.50004 
L 137.647286 190.973354 
L 138.256201 190.973354 
L 138.256201 189.919981 
L 138.510793 189.919981 
L 138.510793 189.393295 
L 138.84457 189.393295 
L 138.84457 187.286551 
L 139.333553 187.286551 
L 139.333553 186.233179 
L 139.493548 186.233179 
L 139.493548 185.706493 
L 139.730821 185.706493 
L 139.730821 184.653121 
L 139.887228 184.653121 
L 139.964909 183.073062 
L 140.11924 183.073062 
L 140.11924 182.546376 
L 140.272217 182.546376 
L 140.272217 181.493004 
L 140.723258 181.493004 
L 140.723258 180.966318 
L 140.871049 180.966318 
L 140.944478 177.806202 
L 141.45 177.806202 
L 141.45 176.226143 
L 142.147664 176.226143 
L 142.215919 174.119399 
L 142.619936 174.119399 
L 142.619936 173.066027 
L 142.884173 173.066027 
L 142.949611 172.012655 
L 143.079756 172.012655 
L 143.079756 170.432596 
L 143.590833 170.432596 
L 143.590833 169.90591 
L 143.778691 169.90591 
L 143.778691 169.379224 
L 143.964547 169.379224 
L 144.026061 167.27248 
L 144.148442 167.27248 
L 144.148442 166.745794 
L 144.45069 166.745794 
L 144.45069 165.692422 
L 145.155404 165.692422 
L 145.212864 163.585677 
L 145.270136 163.585677 
L 145.270136 163.058991 
L 145.609873 163.058991 
L 145.665858 160.425561 
L 145.777292 160.425561 
L 145.777292 159.372189 
L 145.998045 159.372189 
L 146.052799 156.738758 
L 146.906268 156.738758 
L 146.958248 155.685386 
L 147.368603 155.685386 
L 147.368603 153.578642 
L 148.064279 153.578642 
L 148.064279 152.52527 
L 148.354135 152.52527 
L 148.354135 150.945211 
L 148.592055 150.945211 
L 148.592055 150.418525 
L 148.780082 150.418525 
L 148.780082 147.258409 
L 149.058374 147.258409 
L 149.058374 145.678351 
L 149.512548 145.678351 
L 149.512548 145.151665 
L 150.429467 145.151665 
L 150.429467 144.098292 
L 150.932558 144.098292 
L 150.932558 143.571606 
L 151.975216 143.571606 
L 152.052897 141.464862 
L 152.207228 141.464862 
L 152.207228 140.41149 
L 152.774102 140.41149 
L 152.811246 138.304745 
L 153.142033 138.304745 
L 153.142033 137.778059 
L 153.430889 137.778059 
L 153.537988 135.144629 
L 153.785358 135.144629 
L 153.785358 133.037885 
L 153.925152 133.037885 
L 154.029268 131.457826 
L 154.303908 131.457826 
L 154.303908 130.404454 
L 154.77436 130.404454 
L 154.77436 129.351082 
L 154.906477 129.351082 
L 155.004911 127.771024 
L 155.329071 127.771024 
L 155.329071 126.717652 
L 155.86668 126.717652 
L 155.86668 125.66428 
L 156.205916 125.66428 
L 156.205916 125.137593 
L 156.478647 125.137593 
L 156.478647 124.610907 
L 156.687861 124.610907 
L 156.687861 123.557535 
L 156.835778 123.557535 
L 156.835778 123.030849 
L 157.58535 123.030849 
L 157.669802 120.924105 
L 157.837488 120.924105 
L 157.837488 120.397419 
L 158.058592 120.397419 
L 158.058592 118.817361 
L 158.492562 118.817361 
L 158.492562 118.290674 
L 158.863624 118.290674 
L 158.863624 117.763988 
L 159.354904 117.763988 
L 159.431225 116.18393 
L 159.857512 116.18393 
L 159.857512 115.657244 
L 165.02862 115.657244 
L 165.02862 115.130558 
L 165.59035 115.130558 
L 165.59035 114.077186 
L 165.76776 114.077186 
L 165.76776 113.5505 
L 166.117256 113.5505 
L 166.134549 112.497128 
L 166.628709 112.497128 
L 166.628709 111.443755 
L 167.0929 111.443755 
L 167.0929 110.390383 
L 167.223287 110.390383 
L 167.255733 108.283639 
L 167.465168 108.283639 
L 167.465168 107.230267 
L 167.592812 107.230267 
L 167.592812 105.650209 
L 168.109685 105.650209 
L 168.109685 104.596836 
L 168.293904 104.596836 
L 168.293904 103.543464 
L 168.430803 103.543464 
L 168.476198 102.490092 
L 168.596677 102.490092 
L 168.671556 101.43672 
L 168.731229 101.43672 
L 168.731229 100.910034 
L 168.894283 100.910034 
L 168.894283 99.329976 
L 169.099626 99.329976 
L 169.201398 97.223231 
L 169.27373 97.223231 
L 169.374494 93.536429 
L 169.503198 93.536429 
L 169.51744 91.429684 
L 169.771826 91.429684 
L 169.771826 90.902998 
L 170.174022 90.902998 
L 170.174022 89.849626 
L 170.392016 89.849626 
L 170.486538 86.68951 
L 170.951613 86.68951 
L 170.951613 86.162824 
L 171.250617 86.162824 
L 171.250617 85.109451 
L 171.379036 85.109451 
L 171.379036 84.056079 
L 171.58256 84.056079 
L 171.633072 82.476021 
L 171.73366 82.476021 
L 171.73366 80.895963 
L 172.044307 80.895963 
L 172.093501 79.842591 
L 172.191475 79.842591 
L 172.240256 76.155788 
L 172.66137 76.155788 
L 172.66137 75.629102 
L 172.897518 75.629102 
L 173.00275 73.522358 
L 173.485609 73.522358 
L 173.587362 68.782183 
L 173.666095 68.782183 
L 173.666095 68.255497 
L 173.83362 68.255497 
L 173.900183 66.148752 
L 174.16392 66.148752 
L 174.196608 64.568694 
L 174.315944 64.568694 
L 174.315944 64.042008 
L 174.530849 64.042008 
L 174.616074 62.46195 
L 174.647927 62.46195 
L 174.732584 60.881892 
L 174.816832 60.881892 
L 174.921573 57.721775 
L 175.036065 57.721775 
L 175.139502 55.088345 
L 175.211544 55.088345 
L 175.242328 52.9816 
L 175.62763 52.9816 
L 175.62763 52.454914 
L 182.874923 52.454914 
L 182.874923 50.874856 
L 183.345048 50.874856 
L 183.409353 49.821484 
L 183.632568 49.821484 
L 183.632568 49.294798 
L 183.796556 49.294798 
L 183.834181 47.188054 
L 183.93412 47.188054 
L 183.97145 45.607995 
L 184.309967 45.607995 
L 184.309967 45.081309 
L 184.844202 45.081309 
L 184.844202 44.027937 
L 185.008946 44.027937 
L 185.049891 42.974565 
L 185.333839 42.974565 
L 185.44271 40.867821 
L 185.680986 40.867821 
L 185.697882 39.287762 
L 185.882663 39.287762 
L 185.916051 37.707704 
L 186.082035 37.707704 
L 186.142502 35.074274 
L 186.403933 35.074274 
L 186.420143 34.020902 
L 187.170676 34.020902 
L 187.222333 30.860785 
L 187.910083 30.860785 
L 187.910083 30.334099 
L 338.688 30.334099 
L 338.688 30.334099 
" style="fill:none;stroke:#000080;stroke-linecap:square;stroke-width:1.5;"/>
   </g>
   <g id="line2d_39">
    <defs>
     <path d="M 0 6 
C 1.591219 6 3.117479 5.367802 4.242641 4.242641 
C 5.367802 3.117479 6 1.591219 6 0 
C 6 -1.591219 5.367802 -3.117479 4.242641 -4.242641 
C 3.117479 -5.367802 1.591219 -6 0 -6 
C -1.591219 -6 -3.117479 -5.367802 -4.242641 -4.242641 
C -5.367802 -3.117479 -6 -1.591219 -6 0 
C -6 1.591219 -5.367802 3.117479 -4.242641 4.242641 
C -3.117479 5.367802 -1.591219 6 0 6 
z
" id="ma90c5e0971" style="stroke:#000080;stroke-width:1.5;"/>
    </defs>
    <g>
     <use style="fill-opacity:0;stroke:#000080;stroke-width:1.5;" x="108.483824" xlink:href="#ma90c5e0971" y="245.748706"/>
     <use style="fill-opacity:0;stroke:#000080;stroke-width:1.5;" x="145.777292" xlink:href="#ma90c5e0971" y="159.372189"/>
     <use style="fill-opacity:0;stroke:#000080;stroke-width:1.5;" x="174.732584" xlink:href="#ma90c5e0971" y="60.881892"/>
     <use style="fill-opacity:0;stroke:#000080;stroke-width:1.5;" x="187.910083" xlink:href="#ma90c5e0971" y="30.860785"/>
     <use style="fill-opacity:0;stroke:#000080;stroke-width:1.5;" x="187.910083" xlink:href="#ma90c5e0971" y="30.334099"/>
     <use style="fill-opacity:0;stroke:#000080;stroke-width:1.5;" x="338.688" xlink:href="#ma90c5e0971" y="30.334099"/>
    </g>
   </g>
   <g id="line2d_40">
    <path style="fill:none;stroke:#000080;stroke-linecap:square;stroke-width:1.5;"/>
    <g/>
   </g>
   <g id="line2d_41">
    <defs>
     <path d="M 0 1.5 
C 0.397805 1.5 0.77937 1.341951 1.06066 1.06066 
C 1.341951 0.77937 1.5 0.397805 1.5 0 
C 1.5 -0.397805 1.341951 -0.77937 1.06066 -1.06066 
C 0.77937 -1.341951 0.397805 -1.5 0 -1.5 
C -0.397805 -1.5 -0.77937 -1.341951 -1.06066 -1.06066 
C -1.341951 -0.77937 -1.5 -0.397805 -1.5 0 
C -1.5 0.397805 -1.341951 0.77937 -1.06066 1.06066 
C -0.77937 1.341951 -0.397805 1.5 0 1.5 
z
" id="ma4aa1154bd" style="stroke:#ff0000;"/>
    </defs>
    <g>
     <use style="fill:#ff0000;stroke:#ff0000;" x="194.438888" xlink:href="#ma4aa1154bd" y="30.334099"/>
     <use style="fill:#ff0000;stroke:#ff0000;" x="194.438888" xlink:href="#ma4aa1154bd" y="30.334099"/>
    </g>
   </g>
   <g id="line2d_42">
    <path d="M 45.512012 298.944 
L 45.512012 277.349871 
L 57.6 277.349871 
L 57.6 274.71644 
L 64.67102 274.71644 
L 64.67102 267.869521 
L 69.687988 267.869521 
L 69.687988 265.762777 
L 73.579452 265.762777 
L 73.579452 264.709405 
L 81.775977 264.709405 
L 81.775977 263.656033 
L 83.830028 263.656033 
L 83.830028 263.129347 
L 85.66744 263.129347 
L 85.66744 260.495916 
L 88.846997 260.495916 
L 88.846997 258.915858 
L 92.73846 258.915858 
L 92.73846 257.862486 
L 97.755429 257.862486 
L 97.755429 256.809114 
L 99.41757 256.809114 
L 99.41757 254.702369 
L 100.192776 254.702369 
L 100.192776 253.122311 
L 100.934985 253.122311 
L 100.934985 252.595625 
L 101.646892 252.595625 
L 101.646892 252.068939 
L 102.989037 252.068939 
L 102.989037 251.542253 
L 103.623262 251.542253 
L 103.623262 250.488881 
L 104.826449 250.488881 
L 104.826449 249.962195 
L 105.398279 249.962195 
L 105.398279 249.435508 
L 105.951954 249.435508 
L 105.951954 247.85545 
L 107.514726 247.85545 
L 107.514726 247.328764 
L 108.006005 247.328764 
L 108.006005 246.802078 
L 108.483824 246.802078 
L 108.483824 245.22202 
L 108.948899 245.22202 
L 108.948899 244.695334 
L 109.843417 244.695334 
L 109.843417 244.168648 
L 110.694282 244.168648 
L 110.694282 243.641962 
L 111.505558 243.641962 
L 111.505558 243.115275 
L 111.897469 243.115275 
L 111.897469 241.535217 
L 112.280765 241.535217 
L 112.280765 240.481845 
L 112.655818 240.481845 
L 112.655818 238.901787 
L 113.022974 238.901787 
L 113.022974 236.795043 
L 114.080224 236.795043 
L 114.080224 236.268356 
L 115.077025 236.268356 
L 115.077025 234.688298 
L 115.711251 234.688298 
L 115.711251 234.161612 
L 116.323218 234.161612 
L 116.323218 233.634926 
L 117.765302 233.634926 
L 117.765302 232.054868 
L 118.310324 232.054868 
L 118.310324 231.528182 
L 120.33454 231.528182 
L 120.33454 229.421437 
L 121.036887 229.421437 
L 121.036887 228.894751 
L 122.573415 228.894751 
L 122.573415 228.368065 
L 122.988655 228.368065 
L 122.988655 227.841379 
L 123.192626 227.841379 
L 123.192626 226.788007 
L 123.593547 226.788007 
L 123.593547 226.261321 
L 124.368753 226.261321 
L 124.368753 225.207949 
L 124.557288 225.207949 
L 124.557288 224.681263 
L 124.743806 224.681263 
L 124.743806 224.154577 
L 124.92835 224.154577 
L 124.92835 222.574518 
L 125.470548 222.574518 
L 125.470548 221.521146 
L 127.325746 221.521146 
L 127.325746 220.467774 
L 127.642832 220.467774 
L 127.642832 219.941088 
L 127.799239 219.941088 
L 127.799239 218.887716 
L 127.954256 218.887716 
L 127.954256 218.36103 
L 128.560901 218.36103 
L 128.560901 217.307658 
L 128.709321 217.307658 
L 128.709321 216.780971 
L 129.290685 216.780971 
L 129.290685 216.254285 
L 130.263646 216.254285 
L 130.263646 214.674227 
L 130.664567 214.674227 
L 130.664567 214.147541 
L 131.056477 214.147541 
L 131.056477 213.094169 
L 131.312942 213.094169 
L 131.312942 212.567483 
L 131.439773 212.567483 
L 131.439773 211.514111 
L 131.565689 211.514111 
L 131.565689 210.987425 
L 132.060454 210.987425 
L 132.060454 210.460738 
L 132.541568 210.460738 
L 132.541568 209.934052 
L 132.777237 209.934052 
L 132.777237 208.88068 
L 133.800029 208.88068 
L 133.800029 208.353994 
L 134.12805 208.353994 
L 134.12805 207.827308 
L 134.343353 207.827308 
L 134.450015 205.720564 
L 134.766144 205.720564 
L 134.766144 205.193878 
L 135.280614 205.193878 
L 135.280614 203.613819 
L 135.582166 203.613819 
L 135.681535 202.033761 
L 135.97629 202.033761 
L 135.97629 200.980389 
L 136.551264 200.980389 
L 136.645276 199.400331 
L 136.738785 199.400331 
L 136.738785 198.873645 
L 137.107884 198.873645 
L 137.198951 197.820273 
L 137.289545 197.820273 
L 137.37967 196.240214 
L 137.558536 196.240214 
L 137.558536 195.186842 
L 137.910857 195.186842 
L 137.910857 193.606784 
L 138.084384 193.606784 
L 138.084384 190.973354 
L 138.84457 190.973354 
L 138.84457 190.446667 
L 139.172077 190.446667 
L 139.172077 189.919981 
L 139.413734 189.919981 
L 139.413734 189.393295 
L 139.652088 189.393295 
L 139.730821 187.813237 
L 140.11924 187.813237 
L 140.11924 186.759865 
L 140.423864 186.759865 
L 140.499195 184.126434 
L 140.574203 184.126434 
L 140.64889 182.546376 
L 141.235139 182.546376 
L 141.235139 182.01969 
L 141.378673 182.01969 
L 141.378673 181.493004 
L 141.80232 181.493004 
L 141.871938 179.38626 
L 141.941279 179.38626 
L 141.941279 178.332888 
L 142.283909 178.332888 
L 142.283909 177.806202 
L 143.079756 177.806202 
L 143.079756 177.279515 
L 143.40093 177.279515 
L 143.40093 175.172771 
L 143.527762 175.172771 
L 143.527762 174.646085 
L 144.026061 174.646085 
L 144.026061 173.592713 
L 144.269971 173.592713 
L 144.269971 172.012655 
L 144.806606 172.012655 
L 144.865226 170.432596 
L 145.155404 170.432596 
L 145.155404 169.90591 
L 145.440832 169.90591 
L 145.440832 168.852538 
L 145.943118 168.852538 
L 145.998045 167.27248 
L 146.324022 167.27248 
L 146.324022 166.745794 
L 146.591092 166.745794 
L 146.696785 165.165736 
L 146.958248 165.165736 
L 147.061745 164.112363 
L 147.113265 164.112363 
L 147.113265 163.058991 
L 147.71991 163.058991 
L 147.71991 160.952247 
L 147.917524 160.952247 
L 147.917524 160.425561 
L 148.112924 160.425561 
L 148.209809 158.845503 
L 148.966103 158.845503 
L 148.966103 157.79213 
L 149.512548 157.79213 
L 149.557321 154.105328 
L 149.911431 154.105328 
L 149.911431 153.578642 
L 150.344189 153.578642 
L 150.344189 153.051956 
L 150.808139 153.051956 
L 150.808139 151.998584 
L 152.168773 151.998584 
L 152.207228 149.891839 
L 152.511852 149.891839 
L 152.511852 149.365153 
L 154.473387 149.365153 
L 154.473387 148.838467 
L 157.809652 148.838467 
L 157.809652 148.311781 
L 158.942121 148.311781 
L 158.942121 147.785095 
L 159.532469 147.785095 
L 159.532469 147.258409 
L 160.127894 147.258409 
L 160.127894 145.151665 
L 160.297798 145.151665 
L 160.297798 144.624978 
L 162.043181 144.624978 
L 162.043181 144.098292 
L 162.367945 144.098292 
L 162.367945 143.04492 
L 162.517456 143.04492 
L 162.581141 141.464862 
L 162.770815 141.464862 
L 162.770815 140.938176 
L 163.041197 140.938176 
L 163.041197 140.41149 
L 163.926426 140.41149 
L 163.926426 138.304745 
L 164.390984 138.304745 
L 164.410075 136.724687 
L 165.320804 136.724687 
L 165.320804 136.198001 
L 165.978297 136.198001 
L 166.065276 134.617943 
L 166.374858 134.617943 
L 166.391896 131.457826 
L 167.174506 131.457826 
L 167.255733 128.824396 
L 167.672117 128.824396 
L 167.672117 126.717652 
L 167.813965 126.717652 
L 167.813965 126.190966 
L 168.309168 126.190966 
L 168.339657 123.557535 
L 168.71633 123.557535 
L 168.820356 120.397419 
L 169.215888 120.397419 
L 169.215888 119.344047 
L 169.460402 119.344047 
L 169.460402 118.817361 
L 169.743743 118.817361 
L 169.743743 117.763988 
L 170.540321 117.763988 
L 170.59394 116.18393 
L 170.713981 116.18393 
L 170.740545 115.130558 
L 170.938496 115.130558 
L 170.938496 114.603872 
L 171.417378 114.603872 
L 171.417378 113.023814 
L 171.758716 113.023814 
L 171.758716 112.497128 
L 171.920711 112.497128 
L 171.970255 111.443755 
L 172.093501 111.443755 
L 172.093501 110.917069 
L 172.554051 110.917069 
L 172.637578 109.863697 
L 172.756213 109.863697 
L 172.756213 109.337011 
L 173.176739 109.337011 
L 173.176739 107.756953 
L 173.576085 107.756953 
L 173.598631 106.176895 
L 173.811376 106.176895 
L 173.811376 105.123522 
L 174.272644 105.123522 
L 174.369919 104.07015 
L 174.47737 104.07015 
L 174.47737 103.016778 
L 174.785287 103.016778 
L 174.785287 102.490092 
L 175.129186 102.490092 
L 175.129186 101.963406 
L 175.62763 101.963406 
L 175.62763 100.910034 
L 175.85677 100.910034 
L 175.896315 98.803289 
L 177.678338 98.803289 
L 177.678338 97.749917 
L 177.838089 97.749917 
L 177.838089 96.169859 
L 178.63249 96.169859 
L 178.63249 95.116487 
L 178.867253 95.116487 
L 178.908845 93.009743 
L 179.082454 93.009743 
L 179.082454 92.483056 
L 179.238053 92.483056 
L 179.286902 91.429684 
L 179.70463 91.429684 
L 179.70463 90.902998 
L 179.854799 90.902998 
L 179.854799 89.849626 
L 180.182234 89.849626 
L 180.220807 84.582765 
L 180.2977 84.582765 
L 180.397157 81.422649 
L 180.420028 81.422649 
L 180.45808 79.315904 
L 180.549068 79.315904 
L 180.639584 75.629102 
L 180.781946 75.629102 
L 180.781946 75.102416 
L 181.033834 75.102416 
L 181.033834 74.57573 
L 181.318355 74.57573 
L 181.426562 71.415613 
L 181.462482 71.415613 
L 181.462482 70.888927 
L 181.584061 70.888927 
L 181.690637 66.675439 
L 181.733085 66.675439 
L 181.754271 64.568694 
L 181.929824 64.568694 
L 181.985629 62.46195 
L 182.138181 62.46195 
L 182.241433 60.355206 
L 182.255154 60.355206 
L 182.337254 56.668403 
L 182.405376 56.668403 
L 182.405376 56.141717 
L 182.755385 56.141717 
L 182.835168 53.508287 
L 182.987073 53.508287 
L 182.993648 52.454914 
L 183.2287 52.454914 
L 183.267569 50.34817 
L 183.492595 50.34817 
L 183.492595 49.821484 
L 183.790277 49.821484 
L 183.834181 48.241426 
L 183.965233 48.241426 
L 184.0087 46.661368 
L 184.242788 46.661368 
L 184.242788 46.134681 
L 184.413285 46.134681 
L 184.419343 44.027937 
L 184.570125 44.027937 
L 184.665945 42.974565 
L 184.689818 42.974565 
L 184.796844 41.394507 
L 185.131492 41.394507 
L 185.241629 38.761076 
L 185.556581 38.761076 
L 185.556581 37.181018 
L 191.637141 37.181018 
L 191.637141 36.127646 
L 192.227692 36.127646 
L 192.227692 35.60096 
L 192.727572 35.60096 
L 192.727572 34.020902 
L 193.088693 34.020902 
L 193.088693 33.494215 
L 193.29382 33.494215 
L 193.29382 32.967529 
L 193.824606 32.967529 
L 193.824606 32.440843 
L 194.101454 32.440843 
L 194.15006 31.387471 
L 194.438888 31.387471 
L 194.438888 30.334099 
L 338.688 30.334099 
L 338.688 30.334099 
" style="fill:none;stroke:#ff0000;stroke-linecap:square;stroke-width:1.5;"/>
   </g>
   <g id="line2d_43">
    <defs>
     <path d="M 0 -6 
L -5.196152 -3 
L -5.196152 3 
L -0 6 
L 5.196152 3 
L 5.196152 -3 
z
" id="ma7834865e4" style="stroke:#ff0000;stroke-linejoin:miter;stroke-width:1.5;"/>
    </defs>
    <g>
     <use style="fill-opacity:0;stroke:#ff0000;stroke-linejoin:miter;stroke-width:1.5;" x="116.323218" xlink:href="#ma7834865e4" y="233.634926"/>
     <use style="fill-opacity:0;stroke:#ff0000;stroke-linejoin:miter;stroke-width:1.5;" x="162.043181" xlink:href="#ma7834865e4" y="144.098292"/>
     <use style="fill-opacity:0;stroke:#ff0000;stroke-linejoin:miter;stroke-width:1.5;" x="191.637141" xlink:href="#ma7834865e4" y="37.181018"/>
     <use style="fill-opacity:0;stroke:#ff0000;stroke-linejoin:miter;stroke-width:1.5;" x="194.438888" xlink:href="#ma7834865e4" y="30.334099"/>
     <use style="fill-opacity:0;stroke:#ff0000;stroke-linejoin:miter;stroke-width:1.5;" x="194.438888" xlink:href="#ma7834865e4" y="30.334099"/>
     <use style="fill-opacity:0;stroke:#ff0000;stroke-linejoin:miter;stroke-width:1.5;" x="338.688" xlink:href="#ma7834865e4" y="30.334099"/>
    </g>
   </g>
   <g id="line2d_44">
    <path style="fill:none;stroke:#ff0000;stroke-linecap:square;stroke-width:1.5;"/>
    <g/>
   </g>
   <g id="line2d_45">
    <defs>
     <path d="M 0 1.5 
C 0.397805 1.5 0.77937 1.341951 1.06066 1.06066 
C 1.341951 0.77937 1.5 0.397805 1.5 0 
C 1.5 -0.397805 1.341951 -0.77937 1.06066 -1.06066 
C 0.77937 -1.341951 0.397805 -1.5 0 -1.5 
C -0.397805 -1.5 -0.77937 -1.341951 -1.06066 -1.06066 
C -1.341951 -0.77937 -1.5 -0.397805 -1.5 0 
C -1.5 0.397805 -1.341951 0.77937 -1.06066 1.06066 
C -0.77937 1.341951 -0.397805 1.5 0 1.5 
z
" id="mbf0802f7aa" style="stroke:#bebebe;"/>
    </defs>
    <g>
     <use style="fill:#bebebe;stroke:#bebebe;" x="195.859415" xlink:href="#mbf0802f7aa" y="30.334099"/>
     <use style="fill:#bebebe;stroke:#bebebe;" x="195.859415" xlink:href="#mbf0802f7aa" y="30.334099"/>
    </g>
   </g>
   <g id="line2d_46">
    <path d="M 45.512012 298.944 
L 45.512012 278.403243 
L 76.759008 278.403243 
L 76.759008 277.349871 
L 79.447285 277.349871 
L 79.447285 275.243126 
L 81.775977 275.243126 
L 81.775977 271.029638 
L 83.830028 271.029638 
L 83.830028 267.869521 
L 85.66744 267.869521 
L 85.66744 267.342835 
L 88.846997 267.342835 
L 88.846997 266.816149 
L 90.242884 266.816149 
L 90.242884 264.709405 
L 92.73846 264.709405 
L 92.73846 264.182719 
L 93.863965 264.182719 
L 93.863965 263.656033 
L 101.646892 263.656033 
L 101.646892 262.60266 
L 102.330873 262.60266 
L 102.330873 262.075974 
L 102.989037 262.075974 
L 102.989037 261.549288 
L 107.009204 261.549288 
L 107.009204 261.022602 
L 108.483824 261.022602 
L 108.483824 260.495916 
L 109.843417 260.495916 
L 109.843417 259.442544 
L 110.274038 259.442544 
L 110.274038 258.915858 
L 111.104637 258.915858 
L 111.104637 257.862486 
L 111.897469 257.862486 
L 111.897469 256.809114 
L 112.280765 256.809114 
L 112.280765 256.282427 
L 113.73488 256.282427 
L 113.73488 255.755741 
L 114.080224 255.755741 
L 114.080224 254.702369 
L 114.418861 254.702369 
L 114.418861 254.175683 
L 114.751048 254.175683 
L 114.751048 253.648997 
L 115.077025 253.648997 
L 115.077025 253.122311 
L 116.019919 253.122311 
L 116.019919 252.595625 
L 117.486268 252.595625 
L 117.486268 252.068939 
L 118.039942 252.068939 
L 118.039942 251.542253 
L 119.351785 251.542253 
L 119.351785 249.435508 
L 119.602714 249.435508 
L 119.602714 248.908822 
L 119.850084 248.908822 
L 119.850084 248.382136 
L 120.093994 248.382136 
L 120.093994 247.85545 
L 120.33454 247.85545 
L 120.33454 247.328764 
L 121.712041 247.328764 
L 121.712041 246.802078 
L 122.148045 246.802078 
L 122.148045 245.748706 
L 122.573415 245.748706 
L 122.573415 245.22202 
L 122.782271 245.22202 
L 122.782271 243.115275 
L 122.988655 243.115275 
L 122.988655 242.588589 
L 123.985457 242.588589 
L 123.985457 242.061903 
L 124.368753 242.061903 
L 124.368753 241.535217 
L 124.743806 241.535217 
L 124.743806 241.008531 
L 125.110962 241.008531 
L 125.110962 240.481845 
L 125.822869 240.481845 
L 125.822869 238.901787 
L 126.839037 238.901787 
L 126.839037 238.375101 
L 127.325746 238.375101 
L 127.325746 236.795043 
L 127.642832 236.795043 
L 127.642832 236.268356 
L 127.799239 236.268356 
L 127.799239 233.634926 
L 127.954256 233.634926 
L 127.954256 232.054868 
L 129.147151 232.054868 
L 129.147151 231.001496 
L 129.853291 231.001496 
L 129.853291 230.47481 
L 129.991152 230.47481 
L 129.991152 229.948123 
L 130.398313 229.948123 
L 130.398313 229.421437 
L 130.531948 229.421437 
L 130.531948 228.368065 
L 131.056477 228.368065 
L 131.056477 227.841379 
L 131.565689 227.841379 
L 131.565689 227.314693 
L 131.690703 227.314693 
L 131.690703 226.788007 
L 132.777237 226.788007 
L 132.777237 225.734635 
L 133.124876 225.734635 
L 133.124876 224.681263 
L 133.352844 224.681263 
L 133.352844 223.627891 
L 133.46572 223.627891 
L 133.46572 223.101204 
L 133.57787 223.101204 
L 133.57787 220.467774 
L 134.343353 220.467774 
L 134.343353 219.941088 
L 134.973757 219.941088 
L 134.973757 218.36103 
L 135.780341 218.36103 
L 135.878591 217.307658 
L 136.073445 217.307658 
L 136.073445 215.727599 
L 136.266147 215.727599 
L 136.266147 215.200913 
L 136.738785 215.200913 
L 136.738785 214.147541 
L 137.469333 214.147541 
L 137.469333 213.620855 
L 138.084384 213.620855 
L 138.170504 210.460738 
L 138.256201 210.460738 
L 138.341479 209.407366 
L 138.426341 209.407366 
L 138.426341 207.827308 
L 138.84457 207.827308 
L 138.84457 207.300622 
L 139.493548 207.300622 
L 139.493548 206.773936 
L 139.652088 206.773936 
L 139.652088 206.24725 
L 139.964909 206.24725 
L 140.042245 203.613819 
L 140.499195 203.613819 
L 140.499195 202.033761 
L 140.723258 202.033761 
L 140.723258 201.507075 
L 141.017599 201.507075 
L 141.017599 199.927017 
L 141.307054 199.927017 
L 141.307054 199.400331 
L 141.80232 199.400331 
L 141.80232 198.873645 
L 142.07914 198.873645 
L 142.07914 198.346959 
L 142.553247 198.346959 
L 142.553247 197.820273 
L 142.686372 197.820273 
L 142.686372 197.293586 
L 143.014805 197.293586 
L 143.014805 196.7669 
L 143.527762 196.7669 
L 143.527762 195.186842 
L 143.716296 195.186842 
L 143.716296 194.660156 
L 143.840863 194.660156 
L 143.902815 192.553412 
L 144.148442 192.553412 
L 144.148442 191.50004 
L 144.390658 191.50004 
L 144.45069 188.866609 
L 145.039911 188.866609 
L 145.097753 186.759865 
L 145.440832 186.759865 
L 145.440832 184.653121 
L 145.609873 184.653121 
L 145.609873 184.126434 
L 145.777292 184.126434 
L 145.888018 182.546376 
L 146.161795 182.546376 
L 146.270114 180.439632 
L 146.324022 180.439632 
L 146.431341 178.332888 
L 146.484754 178.332888 
L 146.484754 177.806202 
L 146.644018 177.806202 
L 146.749392 175.172771 
L 147.215849 175.172771 
L 147.317833 173.592713 
L 147.670154 173.592713 
L 147.670154 172.539341 
L 148.209809 172.539341 
L 148.209809 172.012655 
L 148.639252 172.012655 
L 148.639252 171.485969 
L 148.780082 171.485969 
L 148.87334 168.852538 
L 149.60198 168.852538 
L 149.60198 167.799166 
L 150.129152 167.799166 
L 150.215485 166.745794 
L 150.301393 166.745794 
L 150.301393 165.692422 
L 150.51433 165.692422 
L 150.51433 165.165736 
L 150.682827 165.165736 
L 150.724698 164.112363 
L 151.421542 164.112363 
L 151.501723 160.952247 
L 151.621307 160.952247 
L 151.700576 159.372189 
L 151.858043 159.372189 
L 151.936246 154.632014 
L 152.130233 154.632014 
L 152.130233 153.051956 
L 153.142033 153.051956 
L 153.142033 151.998584 
L 154.674612 151.998584 
L 154.674612 149.365153 
L 155.488919 149.365153 
L 155.488919 148.838467 
L 155.83551 148.838467 
L 155.928852 147.258409 
L 156.052535 147.258409 
L 156.052535 146.205037 
L 156.38821 146.205037 
L 156.38821 144.624978 
L 156.628341 144.624978 
L 156.628341 144.098292 
L 157.011638 144.098292 
L 157.011638 143.571606 
L 157.358125 143.571606 
L 157.358125 143.04492 
L 157.472107 143.04492 
L 157.472107 142.518234 
L 157.613546 142.518234 
L 157.613546 141.991548 
L 157.976006 141.991548 
L 157.976006 141.464862 
L 158.168101 141.464862 
L 158.222599 139.358118 
L 158.465753 139.358118 
L 158.465753 138.304745 
L 158.625992 138.304745 
L 158.625992 137.251373 
L 158.784773 137.251373 
L 158.784773 136.724687 
L 159.046236 136.724687 
L 159.046236 135.671315 
L 159.507213 135.671315 
L 159.582872 134.617943 
L 159.683242 134.617943 
L 159.683242 131.984513 
L 159.956318 131.984513 
L 159.956318 130.93114 
L 160.418152 130.93114 
L 160.418152 130.404454 
L 161.667653 130.404454 
L 161.667653 129.877768 
L 162.559939 129.877768 
L 162.559939 129.351082 
L 162.999872 129.351082 
L 162.999872 128.824396 
L 163.205526 128.824396 
L 163.266752 127.771024 
L 163.50953 127.771024 
L 163.50953 127.244338 
L 163.669525 127.244338 
L 163.729146 126.190966 
L 164.295217 126.190966 
L 164.295217 125.137593 
L 164.448194 125.137593 
L 164.448194 124.084221 
L 165.266391 124.084221 
L 165.266391 123.030849 
L 165.803027 123.030849 
L 165.855793 121.977477 
L 166.134549 121.977477 
L 166.134549 121.450791 
L 166.374858 121.450791 
L 166.425924 120.397419 
L 166.527611 120.397419 
L 166.527611 119.344047 
L 166.679039 119.344047 
L 166.679039 118.290674 
L 167.109252 118.290674 
L 167.109252 117.763988 
L 167.43311 117.763988 
L 167.43311 116.18393 
L 167.608702 116.18393 
L 167.608702 115.657244 
L 167.813965 115.657244 
L 167.813965 115.130558 
L 168.078792 115.130558 
L 168.078792 114.077186 
L 168.430803 114.077186 
L 168.430803 112.497128 
L 168.849965 112.497128 
L 168.849965 111.443755 
L 169.157854 111.443755 
L 169.157854 110.917069 
L 169.545889 110.917069 
L 169.645097 107.756953 
L 169.78585 107.756953 
L 169.883706 106.176895 
L 170.105336 106.176895 
L 170.105336 105.123522 
L 170.419074 105.123522 
L 170.419074 104.07015 
L 170.687376 104.07015 
L 170.687376 101.963406 
L 170.833202 101.963406 
L 170.833202 100.910034 
L 170.977818 100.910034 
L 170.977818 100.383348 
L 171.147196 100.383348 
L 171.147196 99.329976 
L 171.404607 99.329976 
L 171.404607 98.803289 
L 171.73366 98.803289 
L 171.73366 98.276603 
L 171.858583 98.276603 
L 171.858583 97.749917 
L 172.031987 97.749917 
L 172.130306 95.116487 
L 172.240256 95.116487 
L 172.240256 93.009743 
L 172.373705 93.009743 
L 172.446067 91.95637 
L 172.589897 91.95637 
L 172.589897 91.429684 
L 172.803442 91.429684 
L 172.897518 89.32294 
L 173.00275 89.32294 
L 173.09576 85.636137 
L 173.280304 85.636137 
L 173.383259 84.582765 
L 173.394661 84.582765 
L 173.485609 81.422649 
L 173.576085 81.422649 
L 173.643636 76.682474 
L 173.766803 76.682474 
L 173.766803 76.155788 
L 173.900183 76.155788 
L 173.900183 75.629102 
L 174.272644 75.629102 
L 174.305129 74.57573 
L 174.785287 74.57573 
L 174.827334 72.995672 
L 174.921573 72.995672 
L 174.921573 72.468985 
L 175.252577 72.468985 
L 175.354741 70.362241 
L 175.395439 70.362241 
L 175.436043 68.782183 
L 175.667697 68.782183 
L 175.727626 67.728811 
L 175.827052 67.728811 
L 175.827052 67.202125 
L 175.975136 67.202125 
L 176.004603 66.148752 
L 176.092705 66.148752 
L 176.092705 65.622066 
L 176.228874 65.622066 
L 176.30621 62.988636 
L 176.440729 62.988636 
L 176.440729 62.46195 
L 182.344078 62.46195 
L 182.344078 60.881892 
L 182.874923 60.881892 
L 182.874923 59.82852 
L 183.170233 59.82852 
L 183.170233 59.301833 
L 183.796556 59.301833 
L 183.852963 58.248461 
L 183.909189 58.248461 
L 183.990085 56.668403 
L 184.261135 56.668403 
L 184.261135 56.141717 
L 184.431454 56.141717 
L 184.479812 54.561659 
L 184.707702 54.561659 
L 184.707702 51.401542 
L 184.844202 51.401542 
L 184.944411 48.768112 
L 185.160543 48.768112 
L 185.160543 48.241426 
L 185.596261 48.241426 
L 185.697882 46.661368 
L 185.84363 46.661368 
L 185.84363 45.607995 
L 185.954922 45.607995 
L 185.982634 43.501251 
L 186.219158 43.501251 
L 186.230082 42.447879 
L 186.344367 42.447879 
L 186.409338 39.814448 
L 186.565359 39.814448 
L 186.565359 39.287762 
L 186.741219 39.287762 
L 186.741219 38.761076 
L 186.999115 38.761076 
L 186.999115 38.23439 
L 187.765688 38.23439 
L 187.765688 36.654332 
L 192.940682 36.654332 
L 192.940682 34.547588 
L 194.070135 34.547588 
L 194.070135 34.020902 
L 194.336283 34.020902 
L 194.336283 33.494215 
L 194.669247 33.494215 
L 194.669247 32.967529 
L 194.956292 32.967529 
L 194.956292 31.914157 
L 195.780654 31.914157 
L 195.859415 30.334099 
L 338.688 30.334099 
L 338.688 30.334099 
" style="fill:none;stroke:#bebebe;stroke-linecap:square;stroke-width:1.5;"/>
   </g>
   <g id="line2d_47">
    <defs>
     <path d="M 0 0 
L -6 -0 
M 0 0 
L 3 4.8 
M 0 0 
L 3 -4.8 
" id="md860e01112" style="stroke:#bebebe;stroke-width:1.5;"/>
    </defs>
    <g>
     <use style="fill-opacity:0;stroke:#bebebe;stroke-width:1.5;" x="135.780341" xlink:href="#md860e01112" y="217.834344"/>
     <use style="fill-opacity:0;stroke:#bebebe;stroke-width:1.5;" x="166.425924" xlink:href="#md860e01112" y="120.397419"/>
     <use style="fill-opacity:0;stroke:#bebebe;stroke-width:1.5;" x="195.859415" xlink:href="#md860e01112" y="30.860785"/>
     <use style="fill-opacity:0;stroke:#bebebe;stroke-width:1.5;" x="195.859415" xlink:href="#md860e01112" y="30.334099"/>
     <use style="fill-opacity:0;stroke:#bebebe;stroke-width:1.5;" x="195.859415" xlink:href="#md860e01112" y="30.334099"/>
     <use style="fill-opacity:0;stroke:#bebebe;stroke-width:1.5;" x="338.688" xlink:href="#md860e01112" y="30.334099"/>
    </g>
   </g>
   <g id="line2d_48">
    <path style="fill:none;stroke:#bebebe;stroke-linecap:square;stroke-width:1.5;"/>
    <g/>
   </g>
   <g id="line2d_49">
    <defs>
     <path d="M 0 1.5 
C 0.397805 1.5 0.77937 1.341951 1.06066 1.06066 
C 1.341951 0.77937 1.5 0.397805 1.5 0 
C 1.5 -0.397805 1.341951 -0.77937 1.06066 -1.06066 
C 0.77937 -1.341951 0.397805 -1.5 0 -1.5 
C -0.397805 -1.5 -0.77937 -1.341951 -1.06066 -1.06066 
C -1.341951 -0.77937 -1.5 -0.397805 -1.5 0 
C -1.5 0.397805 -1.341951 0.77937 -1.06066 1.06066 
C -0.77937 1.341951 -0.397805 1.5 0 1.5 
z
" id="m8a99031e62" style="stroke:#6495ed;"/>
    </defs>
    <g>
     <use style="fill:#6495ed;stroke:#6495ed;" x="304.190183" xlink:href="#m8a99031e62" y="177.806202"/>
     <use style="fill:#6495ed;stroke:#6495ed;" x="304.190183" xlink:href="#m8a99031e62" y="177.806202"/>
    </g>
   </g>
   <g id="line2d_50">
    <path d="M 45.512012 298.944 
L 45.512012 277.876557 
L 76.759008 277.876557 
L 76.759008 277.349871 
L 79.447285 277.349871 
L 79.447285 276.296499 
L 81.775977 276.296499 
L 81.775977 273.136382 
L 83.830028 273.136382 
L 83.830028 268.922893 
L 85.66744 268.922893 
L 85.66744 267.869521 
L 90.242884 267.869521 
L 90.242884 266.816149 
L 91.535274 266.816149 
L 91.535274 266.289463 
L 92.73846 266.289463 
L 92.73846 265.762777 
L 93.863965 265.762777 
L 93.863965 265.236091 
L 102.989037 265.236091 
L 102.989037 264.709405 
L 105.951954 264.709405 
L 105.951954 264.182719 
L 109.843417 264.182719 
L 109.843417 262.60266 
L 112.280765 262.60266 
L 112.280765 261.549288 
L 114.080224 261.549288 
L 114.080224 259.96923 
L 118.039942 259.96923 
L 118.039942 259.442544 
L 119.850084 259.442544 
L 119.850084 258.915858 
L 120.093994 258.915858 
L 120.093994 258.389172 
L 124.743806 258.389172 
L 124.743806 257.862486 
L 125.647598 257.862486 
L 125.647598 256.809114 
L 126.50685 256.809114 
L 126.50685 256.282427 
L 127.002787 256.282427 
L 127.002787 255.755741 
L 130.263646 255.755741 
L 130.263646 255.229055 
L 130.796184 255.229055 
L 130.796184 253.648997 
L 136.456742 253.648997 
L 136.456742 252.068939 
L 139.730821 252.068939 
L 139.730821 251.542253 
L 139.964909 251.542253 
L 139.964909 251.015567 
L 140.272217 251.015567 
L 140.272217 249.962195 
L 140.871049 249.962195 
L 140.871049 249.435508 
L 141.307054 249.435508 
L 141.307054 248.908822 
L 145.832743 248.908822 
L 145.832743 247.85545 
L 147.317833 247.85545 
L 147.317833 247.328764 
L 148.497276 247.328764 
L 148.497276 246.802078 
L 151.015013 246.802078 
L 151.015013 246.275392 
L 151.660987 246.275392 
L 151.660987 245.748706 
L 153.679772 245.748706 
L 153.679772 245.22202 
L 157.753847 245.22202 
L 157.753847 244.168648 
L 159.582872 244.168648 
L 159.582872 241.535217 
L 160.938061 241.535217 
L 160.938061 241.008531 
L 163.185069 241.008531 
L 163.185069 240.481845 
L 164.467222 240.481845 
L 164.467222 239.428473 
L 165.55465 239.428473 
L 165.55465 237.848415 
L 165.679281 237.848415 
L 165.679281 237.321729 
L 166.237944 237.321729 
L 166.237944 236.795043 
L 167.141909 236.795043 
L 167.141909 236.268356 
L 168.551595 236.268356 
L 168.551595 235.74167 
L 173.474266 235.74167 
L 173.564801 233.634926 
L 174.858804 233.634926 
L 174.858804 232.581554 
L 179.351823 232.581554 
L 179.432635 231.001496 
L 179.6808 231.001496 
L 179.6808 230.47481 
L 181.173027 230.47481 
L 181.173027 228.368065 
L 187.046072 228.368065 
L 187.046072 227.314693 
L 187.604956 227.314693 
L 187.604956 226.788007 
L 188.466391 226.788007 
L 188.466391 226.261321 
L 191.528685 226.261321 
L 191.593036 224.681263 
L 193.814006 224.681263 
L 193.884553 223.627891 
L 193.968835 223.627891 
L 193.968835 223.101204 
L 194.992669 223.101204 
L 194.992669 222.047832 
L 198.597018 222.047832 
L 198.623864 220.99446 
L 201.112106 220.99446 
L 201.1632 217.307658 
L 202.955564 217.307658 
L 202.955564 216.780971 
L 205.106533 216.780971 
L 205.106533 216.254285 
L 206.999533 216.254285 
L 206.999533 215.727599 
L 209.899172 215.727599 
L 209.979088 213.620855 
L 211.415065 213.620855 
L 211.485776 212.567483 
L 211.56259 212.567483 
L 211.56259 212.040797 
L 213.388629 212.040797 
L 213.388629 211.514111 
L 215.648158 211.514111 
L 215.662301 208.88068 
L 219.179379 208.88068 
L 219.179379 208.353994 
L 222.01384 208.353994 
L 222.092238 207.300622 
L 226.000175 207.300622 
L 226.000175 206.773936 
L 226.438937 206.773936 
L 226.444923 205.720564 
L 229.386708 205.720564 
L 229.386708 205.193878 
L 233.465628 205.193878 
L 233.470357 204.140506 
L 235.531358 204.140506 
L 235.531358 203.613819 
L 236.705413 203.613819 
L 236.705413 203.087133 
L 237.823817 203.087133 
L 237.823817 202.560447 
L 238.85264 202.560447 
L 238.85264 202.033761 
L 244.137147 202.033761 
L 244.137147 201.507075 
L 245.955331 201.507075 
L 245.956753 200.453703 
L 246.631249 200.453703 
L 246.631249 199.927017 
L 250.701248 199.927017 
L 250.701248 199.400331 
L 251.972404 199.400331 
L 251.977691 196.7669 
L 252.835459 196.7669 
L 252.835459 196.240214 
L 256.818935 196.240214 
L 256.818935 195.713528 
L 259.989352 195.713528 
L 259.989352 195.186842 
L 262.941181 195.186842 
L 262.941181 194.660156 
L 264.888487 194.660156 
L 264.888487 194.13347 
L 267.159645 194.13347 
L 267.159645 193.606784 
L 267.665762 193.606784 
L 267.666837 192.553412 
L 271.377548 192.553412 
L 271.377962 191.50004 
L 272.974476 191.50004 
L 272.979195 190.446667 
L 274.440276 190.446667 
L 274.440276 189.919981 
L 275.793847 189.919981 
L 275.793847 189.393295 
L 277.043456 189.393295 
L 277.043785 188.339923 
L 278.212221 188.339923 
L 278.213787 187.286551 
L 279.307159 187.286551 
L 279.307316 185.706493 
L 280.335932 185.706493 
L 280.339694 184.126434 
L 281.311525 184.126434 
L 281.311525 183.599748 
L 283.108369 183.599748 
L 283.108369 183.073062 
L 286.923508 183.073062 
L 286.926477 182.01969 
L 288.246171 182.01969 
L 288.246171 181.493004 
L 289.472766 181.493004 
L 289.472766 180.966318 
L 291.167541 180.966318 
L 291.167541 180.439632 
L 295.010468 180.439632 
L 295.010468 179.912946 
L 295.43939 179.912946 
L 295.43939 179.38626 
L 295.854081 179.38626 
L 295.854488 178.332888 
L 304.190183 178.332888 
L 304.190183 177.806202 
L 338.688 177.806202 
L 338.688 177.806202 
" style="fill:none;stroke:#6495ed;stroke-linecap:square;stroke-width:1.5;"/>
   </g>
   <g id="line2d_51">
    <defs>
     <path d="M -0 6 
L 6 -6 
L -6 -6 
z
" id="mef58b8e0b2" style="stroke:#6495ed;stroke-linejoin:miter;stroke-width:1.5;"/>
    </defs>
    <g>
     <use style="fill-opacity:0;stroke:#6495ed;stroke-linejoin:miter;stroke-width:1.5;" x="136.456742" xlink:href="#mef58b8e0b2" y="253.648997"/>
     <use style="fill-opacity:0;stroke:#6495ed;stroke-linejoin:miter;stroke-width:1.5;" x="188.466391" xlink:href="#mef58b8e0b2" y="226.788007"/>
     <use style="fill-opacity:0;stroke:#6495ed;stroke-linejoin:miter;stroke-width:1.5;" x="256.818935" xlink:href="#mef58b8e0b2" y="195.713528"/>
     <use style="fill-opacity:0;stroke:#6495ed;stroke-linejoin:miter;stroke-width:1.5;" x="304.190183" xlink:href="#mef58b8e0b2" y="177.806202"/>
     <use style="fill-opacity:0;stroke:#6495ed;stroke-linejoin:miter;stroke-width:1.5;" x="304.190183" xlink:href="#mef58b8e0b2" y="177.806202"/>
     <use style="fill-opacity:0;stroke:#6495ed;stroke-linejoin:miter;stroke-width:1.5;" x="338.688" xlink:href="#mef58b8e0b2" y="177.806202"/>
    </g>
   </g>
   <g id="line2d_52">
    <path style="fill:none;stroke:#6495ed;stroke-linecap:square;stroke-width:1.5;"/>
    <g/>
   </g>
   <g id="line2d_53">
    <path clip-path="url(#pa2e8bbecb6)" d="M 230.495312 205.193878 
" style="fill:none;stroke:#6495ed;stroke-linecap:square;stroke-width:1.5;"/>
    <defs>
     <path d="M -12 12 
L 12 -12 
M -12 -12 
L 12 12 
" id="m640a4c0d92" style="stroke:#6495ed;"/>
    </defs>
    <g clip-path="url(#pa2e8bbecb6)">
     <use style="fill:#6495ed;stroke:#6495ed;" x="230.495312" xlink:href="#m640a4c0d92" y="205.193878"/>
    </g>
   </g>
   <g id="line2d_54">
    <path d="M 338.688 177.806202 
L 369.60768 293.571802 
" style="fill:none;stroke:#6495ed;stroke-linecap:square;stroke-width:1.5;"/>
    <g>
     <use style="fill-opacity:0;stroke:#6495ed;stroke-linejoin:miter;stroke-width:1.5;" x="338.688" xlink:href="#mef58b8e0b2" y="177.806202"/>
     <use style="fill-opacity:0;stroke:#6495ed;stroke-linejoin:miter;stroke-width:1.5;" x="369.60768" xlink:href="#mef58b8e0b2" y="293.571802"/>
    </g>
   </g>
   <g id="line2d_55">
    <path d="M 338.688 30.334099 
L 369.60768 207.616634 
" style="fill:none;stroke:#bebebe;stroke-linecap:square;stroke-width:1.5;"/>
    <g>
     <use style="fill-opacity:0;stroke:#bebebe;stroke-width:1.5;" x="338.688" xlink:href="#md860e01112" y="30.334099"/>
     <use style="fill-opacity:0;stroke:#bebebe;stroke-width:1.5;" x="369.60768" xlink:href="#md860e01112" y="207.616634"/>
    </g>
   </g>
   <g id="line2d_56">
    <path d="M 338.688 30.334099 
L 369.60768 121.661465 
" style="fill:none;stroke:#ff0000;stroke-linecap:square;stroke-width:1.5;"/>
    <g>
     <use style="fill-opacity:0;stroke:#ff0000;stroke-linejoin:miter;stroke-width:1.5;" x="338.688" xlink:href="#ma7834865e4" y="30.334099"/>
     <use style="fill-opacity:0;stroke:#ff0000;stroke-linejoin:miter;stroke-width:1.5;" x="369.60768" xlink:href="#ma7834865e4" y="121.661465"/>
    </g>
   </g>
   <g id="line2d_57">
    <path d="M 338.688 30.334099 
L 369.60768 35.706297 
" style="fill:none;stroke:#000080;stroke-linecap:square;stroke-width:1.5;"/>
    <g>
     <use style="fill-opacity:0;stroke:#000080;stroke-width:1.5;" x="338.688" xlink:href="#ma90c5e0971" y="30.334099"/>
     <use style="fill-opacity:0;stroke:#000080;stroke-width:1.5;" x="369.60768" xlink:href="#ma90c5e0971" y="35.706297"/>
    </g>
   </g>
   <g id="line2d_58">
    <path d="M 338.688 298.944 
L 338.688 30.334099 
" style="fill:none;stroke:#000000;stroke-linecap:square;stroke-width:1.5;"/>
   </g>
   <g id="patch_3">
    <path d="M 57.6 298.944 
L 57.6 27.648 
" style="fill:none;stroke:#000000;stroke-linecap:square;stroke-linejoin:miter;stroke-width:0.8;"/>
   </g>
   <g id="patch_4">
    <path d="M 338.688 298.944 
L 338.688 27.648 
" style="fill:none;stroke:#000000;stroke-linecap:square;stroke-linejoin:miter;stroke-width:0.8;"/>
   </g>
   <g id="patch_5">
    <path d="M 57.6 298.944 
L 338.688 298.944 
" style="fill:none;stroke:#000000;stroke-linecap:square;stroke-linejoin:miter;stroke-width:0.8;"/>
   </g>
   <g id="patch_6">
    <path d="M 57.6 27.648 
L 338.688 27.648 
" style="fill:none;stroke:#000000;stroke-linecap:square;stroke-linejoin:miter;stroke-width:0.8;"/>
   </g>
   <g id="text_13">
    <!-- SLSQP-11  -->
    <defs>
     <path d="M 53.515625 70.515625 
L 53.515625 60.890625 
Q 47.90625 63.578125 42.921875 64.890625 
Q 37.9375 66.21875 33.296875 66.21875 
Q 25.25 66.21875 20.875 63.09375 
Q 16.5 59.96875 16.5 54.203125 
Q 16.5 49.359375 19.40625 46.890625 
Q 22.3125 44.4375 30.421875 42.921875 
L 36.375 41.703125 
Q 47.40625 39.59375 52.65625 34.296875 
Q 57.90625 29 57.90625 20.125 
Q 57.90625 9.515625 50.796875 4.046875 
Q 43.703125 -1.421875 29.984375 -1.421875 
Q 24.8125 -1.421875 18.96875 -0.25 
Q 13.140625 0.921875 6.890625 3.21875 
L 6.890625 13.375 
Q 12.890625 10.015625 18.65625 8.296875 
Q 24.421875 6.59375 29.984375 6.59375 
Q 38.421875 6.59375 43.015625 9.90625 
Q 47.609375 13.234375 47.609375 19.390625 
Q 47.609375 24.75 44.3125 27.78125 
Q 41.015625 30.8125 33.5 32.328125 
L 27.484375 33.5 
Q 16.453125 35.6875 11.515625 40.375 
Q 6.59375 45.0625 6.59375 53.421875 
Q 6.59375 63.09375 13.40625 68.65625 
Q 20.21875 74.21875 32.171875 74.21875 
Q 37.3125 74.21875 42.625 73.28125 
Q 47.953125 72.359375 53.515625 70.515625 
z
" id="DejaVuSans-83"/>
     <path d="M 9.8125 72.90625 
L 19.671875 72.90625 
L 19.671875 8.296875 
L 55.171875 8.296875 
L 55.171875 0 
L 9.8125 0 
z
" id="DejaVuSans-76"/>
     <path d="M 39.40625 66.21875 
Q 28.65625 66.21875 22.328125 58.203125 
Q 16.015625 50.203125 16.015625 36.375 
Q 16.015625 22.609375 22.328125 14.59375 
Q 28.65625 6.59375 39.40625 6.59375 
Q 50.140625 6.59375 56.421875 14.59375 
Q 62.703125 22.609375 62.703125 36.375 
Q 62.703125 50.203125 56.421875 58.203125 
Q 50.140625 66.21875 39.40625 66.21875 
z
M 53.21875 1.3125 
L 66.21875 -12.890625 
L 54.296875 -12.890625 
L 43.5 -1.21875 
Q 41.890625 -1.3125 41.03125 -1.359375 
Q 40.1875 -1.421875 39.40625 -1.421875 
Q 24.03125 -1.421875 14.8125 8.859375 
Q 5.609375 19.140625 5.609375 36.375 
Q 5.609375 53.65625 14.8125 63.9375 
Q 24.03125 74.21875 39.40625 74.21875 
Q 54.734375 74.21875 63.90625 63.9375 
Q 73.09375 53.65625 73.09375 36.375 
Q 73.09375 23.6875 67.984375 14.640625 
Q 62.890625 5.609375 53.21875 1.3125 
z
" id="DejaVuSans-81"/>
     <path d="M 19.671875 64.796875 
L 19.671875 37.40625 
L 32.078125 37.40625 
Q 38.96875 37.40625 42.71875 40.96875 
Q 46.484375 44.53125 46.484375 51.125 
Q 46.484375 57.671875 42.71875 61.234375 
Q 38.96875 64.796875 32.078125 64.796875 
z
M 9.8125 72.90625 
L 32.078125 72.90625 
Q 44.34375 72.90625 50.609375 67.359375 
Q 56.890625 61.8125 56.890625 51.125 
Q 56.890625 40.328125 50.609375 34.8125 
Q 44.34375 29.296875 32.078125 29.296875 
L 19.671875 29.296875 
L 19.671875 0 
L 9.8125 0 
z
" id="DejaVuSans-80"/>
    </defs>
    <g transform="translate(375.22944 298.262739)scale(0.17 -0.17)">
     <use xlink:href="#DejaVuSans-83"/>
     <use x="63.476562" xlink:href="#DejaVuSans-76"/>
     <use x="119.189453" xlink:href="#DejaVuSans-83"/>
     <use x="182.666016" xlink:href="#DejaVuSans-81"/>
     <use x="261.376953" xlink:href="#DejaVuSans-80"/>
     <use x="321.648438" xlink:href="#DejaVuSans-45"/>
     <use x="357.732422" xlink:href="#DejaVuSans-49"/>
     <use x="421.355469" xlink:href="#DejaVuSans-49"/>
     <use x="484.978516" xlink:href="#DejaVuSans-32"/>
    </g>
   </g>
   <g id="text_14">
    <!-- SLSQP+CMA -->
    <defs>
     <path d="M 46 62.703125 
L 46 35.5 
L 73.1875 35.5 
L 73.1875 27.203125 
L 46 27.203125 
L 46 0 
L 37.796875 0 
L 37.796875 27.203125 
L 10.59375 27.203125 
L 10.59375 35.5 
L 37.796875 35.5 
L 37.796875 62.703125 
z
" id="DejaVuSans-43"/>
     <path d="M 64.40625 67.28125 
L 64.40625 56.890625 
Q 59.421875 61.53125 53.78125 63.8125 
Q 48.140625 66.109375 41.796875 66.109375 
Q 29.296875 66.109375 22.65625 58.46875 
Q 16.015625 50.828125 16.015625 36.375 
Q 16.015625 21.96875 22.65625 14.328125 
Q 29.296875 6.6875 41.796875 6.6875 
Q 48.140625 6.6875 53.78125 8.984375 
Q 59.421875 11.28125 64.40625 15.921875 
L 64.40625 5.609375 
Q 59.234375 2.09375 53.4375 0.328125 
Q 47.65625 -1.421875 41.21875 -1.421875 
Q 24.65625 -1.421875 15.125 8.703125 
Q 5.609375 18.84375 5.609375 36.375 
Q 5.609375 53.953125 15.125 64.078125 
Q 24.65625 74.21875 41.21875 74.21875 
Q 47.75 74.21875 53.53125 72.484375 
Q 59.328125 70.75 64.40625 67.28125 
z
" id="DejaVuSans-67"/>
     <path d="M 9.8125 72.90625 
L 24.515625 72.90625 
L 43.109375 23.296875 
L 61.8125 72.90625 
L 76.515625 72.90625 
L 76.515625 0 
L 66.890625 0 
L 66.890625 64.015625 
L 48.09375 14.015625 
L 38.1875 14.015625 
L 19.390625 64.015625 
L 19.390625 0 
L 9.8125 0 
z
" id="DejaVuSans-77"/>
     <path d="M 34.1875 63.1875 
L 20.796875 26.90625 
L 47.609375 26.90625 
z
M 28.609375 72.90625 
L 39.796875 72.90625 
L 67.578125 0 
L 57.328125 0 
L 50.6875 18.703125 
L 17.828125 18.703125 
L 11.1875 0 
L 0.78125 0 
z
" id="DejaVuSans-65"/>
    </defs>
    <g transform="translate(375.22944 212.307571)scale(0.17 -0.17)">
     <use xlink:href="#DejaVuSans-83"/>
     <use x="63.476562" xlink:href="#DejaVuSans-76"/>
     <use x="119.189453" xlink:href="#DejaVuSans-83"/>
     <use x="182.666016" xlink:href="#DejaVuSans-81"/>
     <use x="261.376953" xlink:href="#DejaVuSans-80"/>
     <use x="321.679688" xlink:href="#DejaVuSans-43"/>
     <use x="405.46875" xlink:href="#DejaVuSans-67"/>
     <use x="475.292969" xlink:href="#DejaVuSans-77"/>
     <use x="561.572266" xlink:href="#DejaVuSans-65"/>
    </g>
   </g>
   <g id="text_15">
    <!-- lq-CMA-ES -->
    <defs>
     <path d="M 14.796875 27.296875 
Q 14.796875 17.390625 18.875 11.75 
Q 22.953125 6.109375 30.078125 6.109375 
Q 37.203125 6.109375 41.296875 11.75 
Q 45.40625 17.390625 45.40625 27.296875 
Q 45.40625 37.203125 41.296875 42.84375 
Q 37.203125 48.484375 30.078125 48.484375 
Q 22.953125 48.484375 18.875 42.84375 
Q 14.796875 37.203125 14.796875 27.296875 
z
M 45.40625 8.203125 
Q 42.578125 3.328125 38.25 0.953125 
Q 33.9375 -1.421875 27.875 -1.421875 
Q 17.96875 -1.421875 11.734375 6.484375 
Q 5.515625 14.40625 5.515625 27.296875 
Q 5.515625 40.1875 11.734375 48.09375 
Q 17.96875 56 27.875 56 
Q 33.9375 56 38.25 53.625 
Q 42.578125 51.265625 45.40625 46.390625 
L 45.40625 54.6875 
L 54.390625 54.6875 
L 54.390625 -20.796875 
L 45.40625 -20.796875 
z
" id="DejaVuSans-113"/>
     <path d="M 9.8125 72.90625 
L 55.90625 72.90625 
L 55.90625 64.59375 
L 19.671875 64.59375 
L 19.671875 43.015625 
L 54.390625 43.015625 
L 54.390625 34.71875 
L 19.671875 34.71875 
L 19.671875 8.296875 
L 56.78125 8.296875 
L 56.78125 0 
L 9.8125 0 
z
" id="DejaVuSans-69"/>
    </defs>
    <g transform="translate(375.22944 126.352403)scale(0.17 -0.17)">
     <use xlink:href="#DejaVuSans-108"/>
     <use x="27.783203" xlink:href="#DejaVuSans-113"/>
     <use x="91.259766" xlink:href="#DejaVuSans-45"/>
     <use x="127.34375" xlink:href="#DejaVuSans-67"/>
     <use x="197.167969" xlink:href="#DejaVuSans-77"/>
     <use x="283.447266" xlink:href="#DejaVuSans-65"/>
     <use x="351.824219" xlink:href="#DejaVuSans-45"/>
     <use x="387.908203" xlink:href="#DejaVuSans-69"/>
     <use x="451.091797" xlink:href="#DejaVuSans-83"/>
    </g>
   </g>
   <g id="text_16">
    <!-- CMA-ES  2 -->
    <g transform="translate(375.22944 40.397235)scale(0.17 -0.17)">
     <use xlink:href="#DejaVuSans-67"/>
     <use x="69.824219" xlink:href="#DejaVuSans-77"/>
     <use x="156.103516" xlink:href="#DejaVuSans-65"/>
     <use x="224.480469" xlink:href="#DejaVuSans-45"/>
     <use x="260.564453" xlink:href="#DejaVuSans-69"/>
     <use x="323.748047" xlink:href="#DejaVuSans-83"/>
     <use x="387.224609" xlink:href="#DejaVuSans-32"/>
     <use x="419.011719" xlink:href="#DejaVuSans-32"/>
     <use x="450.798828" xlink:href="#DejaVuSans-50"/>
    </g>
   </g>
   <g id="text_17">
    <!-- bbob f17, 2-D -->
    <defs>
     <path d="M 48.6875 27.296875 
Q 48.6875 37.203125 44.609375 42.84375 
Q 40.53125 48.484375 33.40625 48.484375 
Q 26.265625 48.484375 22.1875 42.84375 
Q 18.109375 37.203125 18.109375 27.296875 
Q 18.109375 17.390625 22.1875 11.75 
Q 26.265625 6.109375 33.40625 6.109375 
Q 40.53125 6.109375 44.609375 11.75 
Q 48.6875 17.390625 48.6875 27.296875 
z
M 18.109375 46.390625 
Q 20.953125 51.265625 25.265625 53.625 
Q 29.59375 56 35.59375 56 
Q 45.5625 56 51.78125 48.09375 
Q 58.015625 40.1875 58.015625 27.296875 
Q 58.015625 14.40625 51.78125 6.484375 
Q 45.5625 -1.421875 35.59375 -1.421875 
Q 29.59375 -1.421875 25.265625 0.953125 
Q 20.953125 3.328125 18.109375 8.203125 
L 18.109375 0 
L 9.078125 0 
L 9.078125 75.984375 
L 18.109375 75.984375 
z
" id="DejaVuSans-98"/>
     <path d="M 8.203125 72.90625 
L 55.078125 72.90625 
L 55.078125 68.703125 
L 28.609375 0 
L 18.3125 0 
L 43.21875 64.59375 
L 8.203125 64.59375 
z
" id="DejaVuSans-55"/>
     <path d="M 19.671875 64.796875 
L 19.671875 8.109375 
L 31.59375 8.109375 
Q 46.6875 8.109375 53.6875 14.9375 
Q 60.6875 21.78125 60.6875 36.53125 
Q 60.6875 51.171875 53.6875 57.984375 
Q 46.6875 64.796875 31.59375 64.796875 
z
M 9.8125 72.90625 
L 30.078125 72.90625 
Q 51.265625 72.90625 61.171875 64.09375 
Q 71.09375 55.28125 71.09375 36.53125 
Q 71.09375 17.671875 61.125 8.828125 
Q 51.171875 0 30.078125 0 
L 9.8125 0 
z
" id="DejaVuSans-68"/>
    </defs>
    <g transform="translate(60.41088 38.111366)scale(0.102 -0.102)">
     <use xlink:href="#DejaVuSans-98"/>
     <use x="63.476562" xlink:href="#DejaVuSans-98"/>
     <use x="126.953125" xlink:href="#DejaVuSans-111"/>
     <use x="188.134766" xlink:href="#DejaVuSans-98"/>
     <use x="251.611328" xlink:href="#DejaVuSans-32"/>
     <use x="283.398438" xlink:href="#DejaVuSans-102"/>
     <use x="318.603516" xlink:href="#DejaVuSans-49"/>
     <use x="382.226562" xlink:href="#DejaVuSans-55"/>
     <use x="445.849609" xlink:href="#DejaVuSans-44"/>
     <use x="477.636719" xlink:href="#DejaVuSans-32"/>
     <use x="509.423828" xlink:href="#DejaVuSans-50"/>
     <use x="573.046875" xlink:href="#DejaVuSans-45"/>
     <use x="609.130859" xlink:href="#DejaVuSans-68"/>
    </g>
    <!-- 51 targets: 100..1e-08 -->
    <defs>
     <path d="M 10.796875 72.90625 
L 49.515625 72.90625 
L 49.515625 64.59375 
L 19.828125 64.59375 
L 19.828125 46.734375 
Q 21.96875 47.46875 24.109375 47.828125 
Q 26.265625 48.1875 28.421875 48.1875 
Q 40.625 48.1875 47.75 41.5 
Q 54.890625 34.8125 54.890625 23.390625 
Q 54.890625 11.625 47.5625 5.09375 
Q 40.234375 -1.421875 26.90625 -1.421875 
Q 22.3125 -1.421875 17.546875 -0.640625 
Q 12.796875 0.140625 7.71875 1.703125 
L 7.71875 11.625 
Q 12.109375 9.234375 16.796875 8.0625 
Q 21.484375 6.890625 26.703125 6.890625 
Q 35.15625 6.890625 40.078125 11.328125 
Q 45.015625 15.765625 45.015625 23.390625 
Q 45.015625 31 40.078125 35.4375 
Q 35.15625 39.890625 26.703125 39.890625 
Q 22.75 39.890625 18.8125 39.015625 
Q 14.890625 38.140625 10.796875 36.28125 
z
" id="DejaVuSans-53"/>
     <path d="M 11.71875 12.40625 
L 22.015625 12.40625 
L 22.015625 0 
L 11.71875 0 
z
M 11.71875 51.703125 
L 22.015625 51.703125 
L 22.015625 39.3125 
L 11.71875 39.3125 
z
" id="DejaVuSans-58"/>
    </defs>
    <g transform="translate(60.41088 49.533135)scale(0.102 -0.102)">
     <use xlink:href="#DejaVuSans-53"/>
     <use x="63.623047" xlink:href="#DejaVuSans-49"/>
     <use x="127.246094" xlink:href="#DejaVuSans-32"/>
     <use x="159.033203" xlink:href="#DejaVuSans-116"/>
     <use x="198.242188" xlink:href="#DejaVuSans-97"/>
     <use x="259.521484" xlink:href="#DejaVuSans-114"/>
     <use x="300.619141" xlink:href="#DejaVuSans-103"/>
     <use x="364.095703" xlink:href="#DejaVuSans-101"/>
     <use x="425.619141" xlink:href="#DejaVuSans-116"/>
     <use x="464.828125" xlink:href="#DejaVuSans-115"/>
     <use x="516.927734" xlink:href="#DejaVuSans-58"/>
     <use x="550.619141" xlink:href="#DejaVuSans-32"/>
     <use x="582.40625" xlink:href="#DejaVuSans-49"/>
     <use x="646.029297" xlink:href="#DejaVuSans-48"/>
     <use x="709.652344" xlink:href="#DejaVuSans-48"/>
     <use x="773.275391" xlink:href="#DejaVuSans-46"/>
     <use x="805.0625" xlink:href="#DejaVuSans-46"/>
     <use x="836.849609" xlink:href="#DejaVuSans-49"/>
     <use x="900.472656" xlink:href="#DejaVuSans-101"/>
     <use x="961.996094" xlink:href="#DejaVuSans-45"/>
     <use x="998.080078" xlink:href="#DejaVuSans-48"/>
     <use x="1061.703125" xlink:href="#DejaVuSans-56"/>
    </g>
    <!-- 15 instances -->
    <g transform="translate(60.41088 60.954904)scale(0.102 -0.102)">
     <use xlink:href="#DejaVuSans-49"/>
     <use x="63.623047" xlink:href="#DejaVuSans-53"/>
     <use x="127.246094" xlink:href="#DejaVuSans-32"/>
     <use x="159.033203" xlink:href="#DejaVuSans-105"/>
     <use x="186.816406" xlink:href="#DejaVuSans-110"/>
     <use x="250.195312" xlink:href="#DejaVuSans-115"/>
     <use x="302.294922" xlink:href="#DejaVuSans-116"/>
     <use x="341.503906" xlink:href="#DejaVuSans-97"/>
     <use x="402.783203" xlink:href="#DejaVuSans-110"/>
     <use x="466.162109" xlink:href="#DejaVuSans-99"/>
     <use x="521.142578" xlink:href="#DejaVuSans-101"/>
     <use x="582.666016" xlink:href="#DejaVuSans-115"/>
    </g>
   </g>
   <g id="text_18">
    <!-- v2.3.2 -->
    <defs>
     <path d="M 40.578125 39.3125 
Q 47.65625 37.796875 51.625 33 
Q 55.609375 28.21875 55.609375 21.1875 
Q 55.609375 10.40625 48.1875 4.484375 
Q 40.765625 -1.421875 27.09375 -1.421875 
Q 22.515625 -1.421875 17.65625 -0.515625 
Q 12.796875 0.390625 7.625 2.203125 
L 7.625 11.71875 
Q 11.71875 9.328125 16.59375 8.109375 
Q 21.484375 6.890625 26.8125 6.890625 
Q 36.078125 6.890625 40.9375 10.546875 
Q 45.796875 14.203125 45.796875 21.1875 
Q 45.796875 27.640625 41.28125 31.265625 
Q 36.765625 34.90625 28.71875 34.90625 
L 20.21875 34.90625 
L 20.21875 43.015625 
L 29.109375 43.015625 
Q 36.375 43.015625 40.234375 45.921875 
Q 44.09375 48.828125 44.09375 54.296875 
Q 44.09375 59.90625 40.109375 62.90625 
Q 36.140625 65.921875 28.71875 65.921875 
Q 24.65625 65.921875 20.015625 65.03125 
Q 15.375 64.15625 9.8125 62.3125 
L 9.8125 71.09375 
Q 15.4375 72.65625 20.34375 73.4375 
Q 25.25 74.21875 29.59375 74.21875 
Q 40.828125 74.21875 47.359375 69.109375 
Q 53.90625 64.015625 53.90625 55.328125 
Q 53.90625 49.265625 50.4375 45.09375 
Q 46.96875 40.921875 40.578125 39.3125 
z
" id="DejaVuSans-51"/>
    </defs>
    <g style="fill:#808080;" transform="translate(182.46275 294.151352)scale(0.1 -0.1)">
     <use xlink:href="#DejaVuSans-118"/>
     <use x="59.179688" xlink:href="#DejaVuSans-50"/>
     <use x="122.802734" xlink:href="#DejaVuSans-46"/>
     <use x="154.589844" xlink:href="#DejaVuSans-51"/>
     <use x="218.212891" xlink:href="#DejaVuSans-46"/>
     <use x="250" xlink:href="#DejaVuSans-50"/>
    </g>
   </g>
   <g id="text_19">
    <!-- 17 Schaffer F7, condition 10 -->
    <defs>
     <path d="M 54.890625 33.015625 
L 54.890625 0 
L 45.90625 0 
L 45.90625 32.71875 
Q 45.90625 40.484375 42.875 44.328125 
Q 39.84375 48.1875 33.796875 48.1875 
Q 26.515625 48.1875 22.3125 43.546875 
Q 18.109375 38.921875 18.109375 30.90625 
L 18.109375 0 
L 9.078125 0 
L 9.078125 75.984375 
L 18.109375 75.984375 
L 18.109375 46.1875 
Q 21.34375 51.125 25.703125 53.5625 
Q 30.078125 56 35.796875 56 
Q 45.21875 56 50.046875 50.171875 
Q 54.890625 44.34375 54.890625 33.015625 
z
" id="DejaVuSans-104"/>
    </defs>
    <g transform="translate(56.836187 21.648)scale(0.2 -0.2)">
     <use xlink:href="#DejaVuSans-49"/>
     <use x="63.623047" xlink:href="#DejaVuSans-55"/>
     <use x="127.246094" xlink:href="#DejaVuSans-32"/>
     <use x="159.033203" xlink:href="#DejaVuSans-83"/>
     <use x="222.509766" xlink:href="#DejaVuSans-99"/>
     <use x="277.490234" xlink:href="#DejaVuSans-104"/>
     <use x="340.869141" xlink:href="#DejaVuSans-97"/>
     <use x="402.148438" xlink:href="#DejaVuSans-102"/>
     <use x="437.353516" xlink:href="#DejaVuSans-102"/>
     <use x="472.558594" xlink:href="#DejaVuSans-101"/>
     <use x="534.082031" xlink:href="#DejaVuSans-114"/>
     <use x="575.195312" xlink:href="#DejaVuSans-32"/>
     <use x="606.982422" xlink:href="#DejaVuSans-70"/>
     <use x="664.501953" xlink:href="#DejaVuSans-55"/>
     <use x="728.125" xlink:href="#DejaVuSans-44"/>
     <use x="759.912109" xlink:href="#DejaVuSans-32"/>
     <use x="791.699219" xlink:href="#DejaVuSans-99"/>
     <use x="846.679688" xlink:href="#DejaVuSans-111"/>
     <use x="907.861328" xlink:href="#DejaVuSans-110"/>
     <use x="971.240234" xlink:href="#DejaVuSans-100"/>
     <use x="1034.716797" xlink:href="#DejaVuSans-105"/>
     <use x="1062.5" xlink:href="#DejaVuSans-116"/>
     <use x="1101.708984" xlink:href="#DejaVuSans-105"/>
     <use x="1129.492188" xlink:href="#DejaVuSans-111"/>
     <use x="1190.673828" xlink:href="#DejaVuSans-110"/>
     <use x="1254.052734" xlink:href="#DejaVuSans-32"/>
     <use x="1285.839844" xlink:href="#DejaVuSans-49"/>
     <use x="1349.462891" xlink:href="#DejaVuSans-48"/>
    </g>
   </g>
  </g>
 </g>
 <defs>
  <clipPath id="pa2e8bbecb6">
   <rect height="271.296" width="281.088" x="57.6" y="27.648"/>
  </clipPath>
 </defs>
</svg>
