<?xml version="1.0" encoding="utf-8" standalone="no"?>
<!DOCTYPE svg PUBLIC "-//W3C//DTD SVG 1.1//EN"
  "http://www.w3.org/Graphics/SVG/1.1/DTD/svg11.dtd">
<!-- Created with matplotlib (https://matplotlib.org/) -->
<svg height="345.6pt" version="1.1" viewBox="0 0 460.8 345.6" width="460.8pt" xmlns="http://www.w3.org/2000/svg" xmlns:xlink="http://www.w3.org/1999/xlink">
 <defs>
  <style type="text/css">
*{stroke-linecap:butt;stroke-linejoin:round;}
  </style>
 </defs>
 <g id="figure_1">
  <g id="patch_1">
   <path d="M 0 345.6 
L 460.8 345.6 
L 460.8 0 
L 0 0 
z
" style="fill:#ffffff;"/>
  </g>
  <g id="axes_1">
   <g id="patch_2">
    <path d="M 57.6 298.944 
L 338.688 298.944 
L 338.688 27.648 
L 57.6 27.648 
z
" style="fill:#ffffff;"/>
   </g>
   <g id="matplotlib.axis_1">
    <g id="xtick_1">
     <g id="line2d_1">
      <path clip-path="url(#p640af90818)" d="M 57.6 298.944 
L 57.6 27.648 
" style="fill:none;stroke:#b0b0b0;stroke-linecap:square;stroke-width:0.8;"/>
     </g>
     <g id="line2d_2">
      <defs>
       <path d="M 0 0 
L 0 3.5 
" id="mbe6836ffaf" style="stroke:#000000;stroke-width:0.8;"/>
      </defs>
      <g>
       <use style="stroke:#000000;stroke-width:0.8;" x="57.6" xlink:href="#mbe6836ffaf" y="298.944"/>
      </g>
     </g>
     <g id="text_1">
      <!-- 0 -->
      <defs>
       <path d="M 31.78125 66.40625 
Q 24.171875 66.40625 20.328125 58.90625 
Q 16.5 51.421875 16.5 36.375 
Q 16.5 21.390625 20.328125 13.890625 
Q 24.171875 6.390625 31.78125 6.390625 
Q 39.453125 6.390625 43.28125 13.890625 
Q 47.125 21.390625 47.125 36.375 
Q 47.125 51.421875 43.28125 58.90625 
Q 39.453125 66.40625 31.78125 66.40625 
z
M 31.78125 74.21875 
Q 44.046875 74.21875 50.515625 64.515625 
Q 56.984375 54.828125 56.984375 36.375 
Q 56.984375 17.96875 50.515625 8.265625 
Q 44.046875 -1.421875 31.78125 -1.421875 
Q 19.53125 -1.421875 13.0625 8.265625 
Q 6.59375 17.96875 6.59375 36.375 
Q 6.59375 54.828125 13.0625 64.515625 
Q 19.53125 74.21875 31.78125 74.21875 
z
" id="DejaVuSans-48"/>
      </defs>
      <g transform="translate(51.2375 321.140875)scale(0.2 -0.2)">
       <use xlink:href="#DejaVuSans-48"/>
      </g>
     </g>
    </g>
    <g id="xtick_2">
     <g id="line2d_3">
      <path clip-path="url(#p640af90818)" d="M 137.910857 298.944 
L 137.910857 27.648 
" style="fill:none;stroke:#b0b0b0;stroke-linecap:square;stroke-width:0.8;"/>
     </g>
     <g id="line2d_4">
      <g>
       <use style="stroke:#000000;stroke-width:0.8;" x="137.910857" xlink:href="#mbe6836ffaf" y="298.944"/>
      </g>
     </g>
     <g id="text_2">
      <!-- 2 -->
      <defs>
       <path d="M 19.1875 8.296875 
L 53.609375 8.296875 
L 53.609375 0 
L 7.328125 0 
L 7.328125 8.296875 
Q 12.9375 14.109375 22.625 23.890625 
Q 32.328125 33.6875 34.8125 36.53125 
Q 39.546875 41.84375 41.421875 45.53125 
Q 43.3125 49.21875 43.3125 52.78125 
Q 43.3125 58.59375 39.234375 62.25 
Q 35.15625 65.921875 28.609375 65.921875 
Q 23.96875 65.921875 18.8125 64.3125 
Q 13.671875 62.703125 7.8125 59.421875 
L 7.8125 69.390625 
Q 13.765625 71.78125 18.9375 73 
Q 24.125 74.21875 28.421875 74.21875 
Q 39.75 74.21875 46.484375 68.546875 
Q 53.21875 62.890625 53.21875 53.421875 
Q 53.21875 48.921875 51.53125 44.890625 
Q 49.859375 40.875 45.40625 35.40625 
Q 44.1875 33.984375 37.640625 27.21875 
Q 31.109375 20.453125 19.1875 8.296875 
z
" id="DejaVuSans-50"/>
      </defs>
      <g transform="translate(131.548357 321.140875)scale(0.2 -0.2)">
       <use xlink:href="#DejaVuSans-50"/>
      </g>
     </g>
    </g>
    <g id="xtick_3">
     <g id="line2d_5">
      <path clip-path="url(#p640af90818)" d="M 218.221714 298.944 
L 218.221714 27.648 
" style="fill:none;stroke:#b0b0b0;stroke-linecap:square;stroke-width:0.8;"/>
     </g>
     <g id="line2d_6">
      <g>
       <use style="stroke:#000000;stroke-width:0.8;" x="218.221714" xlink:href="#mbe6836ffaf" y="298.944"/>
      </g>
     </g>
     <g id="text_3">
      <!-- 4 -->
      <defs>
       <path d="M 37.796875 64.3125 
L 12.890625 25.390625 
L 37.796875 25.390625 
z
M 35.203125 72.90625 
L 47.609375 72.90625 
L 47.609375 25.390625 
L 58.015625 25.390625 
L 58.015625 17.1875 
L 47.609375 17.1875 
L 47.609375 0 
L 37.796875 0 
L 37.796875 17.1875 
L 4.890625 17.1875 
L 4.890625 26.703125 
z
" id="DejaVuSans-52"/>
      </defs>
      <g transform="translate(211.859214 321.140875)scale(0.2 -0.2)">
       <use xlink:href="#DejaVuSans-52"/>
      </g>
     </g>
    </g>
    <g id="xtick_4">
     <g id="line2d_7">
      <path clip-path="url(#p640af90818)" d="M 298.532571 298.944 
L 298.532571 27.648 
" style="fill:none;stroke:#b0b0b0;stroke-linecap:square;stroke-width:0.8;"/>
     </g>
     <g id="line2d_8">
      <g>
       <use style="stroke:#000000;stroke-width:0.8;" x="298.532571" xlink:href="#mbe6836ffaf" y="298.944"/>
      </g>
     </g>
     <g id="text_4">
      <!-- 6 -->
      <defs>
       <path d="M 33.015625 40.375 
Q 26.375 40.375 22.484375 35.828125 
Q 18.609375 31.296875 18.609375 23.390625 
Q 18.609375 15.53125 22.484375 10.953125 
Q 26.375 6.390625 33.015625 6.390625 
Q 39.65625 6.390625 43.53125 10.953125 
Q 47.40625 15.53125 47.40625 23.390625 
Q 47.40625 31.296875 43.53125 35.828125 
Q 39.65625 40.375 33.015625 40.375 
z
M 52.59375 71.296875 
L 52.59375 62.3125 
Q 48.875 64.0625 45.09375 64.984375 
Q 41.3125 65.921875 37.59375 65.921875 
Q 27.828125 65.921875 22.671875 59.328125 
Q 17.53125 52.734375 16.796875 39.40625 
Q 19.671875 43.65625 24.015625 45.921875 
Q 28.375 48.1875 33.59375 48.1875 
Q 44.578125 48.1875 50.953125 41.515625 
Q 57.328125 34.859375 57.328125 23.390625 
Q 57.328125 12.15625 50.6875 5.359375 
Q 44.046875 -1.421875 33.015625 -1.421875 
Q 20.359375 -1.421875 13.671875 8.265625 
Q 6.984375 17.96875 6.984375 36.375 
Q 6.984375 53.65625 15.1875 63.9375 
Q 23.390625 74.21875 37.203125 74.21875 
Q 40.921875 74.21875 44.703125 73.484375 
Q 48.484375 72.75 52.59375 71.296875 
z
" id="DejaVuSans-54"/>
      </defs>
      <g transform="translate(292.170071 321.140875)scale(0.2 -0.2)">
       <use xlink:href="#DejaVuSans-54"/>
      </g>
     </g>
    </g>
    <g id="xtick_5">
     <g id="line2d_9">
      <path clip-path="url(#p640af90818)" d="M 57.6 298.944 
L 57.6 27.648 
" style="fill:none;stroke:#b0b0b0;stroke-linecap:square;stroke-width:0.8;"/>
     </g>
     <g id="line2d_10">
      <defs>
       <path d="M 0 0 
L 0 2 
" id="m1ef7174dcb" style="stroke:#000000;stroke-width:0.6;"/>
      </defs>
      <g>
       <use style="stroke:#000000;stroke-width:0.6;" x="57.6" xlink:href="#m1ef7174dcb" y="298.944"/>
      </g>
     </g>
    </g>
    <g id="xtick_6">
     <g id="line2d_11">
      <path clip-path="url(#p640af90818)" d="M 97.755429 298.944 
L 97.755429 27.648 
" style="fill:none;stroke:#b0b0b0;stroke-linecap:square;stroke-width:0.8;"/>
     </g>
     <g id="line2d_12">
      <g>
       <use style="stroke:#000000;stroke-width:0.6;" x="97.755429" xlink:href="#m1ef7174dcb" y="298.944"/>
      </g>
     </g>
    </g>
    <g id="xtick_7">
     <g id="line2d_13">
      <path clip-path="url(#p640af90818)" d="M 137.910857 298.944 
L 137.910857 27.648 
" style="fill:none;stroke:#b0b0b0;stroke-linecap:square;stroke-width:0.8;"/>
     </g>
     <g id="line2d_14">
      <g>
       <use style="stroke:#000000;stroke-width:0.6;" x="137.910857" xlink:href="#m1ef7174dcb" y="298.944"/>
      </g>
     </g>
    </g>
    <g id="xtick_8">
     <g id="line2d_15">
      <path clip-path="url(#p640af90818)" d="M 178.066286 298.944 
L 178.066286 27.648 
" style="fill:none;stroke:#b0b0b0;stroke-linecap:square;stroke-width:0.8;"/>
     </g>
     <g id="line2d_16">
      <g>
       <use style="stroke:#000000;stroke-width:0.6;" x="178.066286" xlink:href="#m1ef7174dcb" y="298.944"/>
      </g>
     </g>
    </g>
    <g id="xtick_9">
     <g id="line2d_17">
      <path clip-path="url(#p640af90818)" d="M 218.221714 298.944 
L 218.221714 27.648 
" style="fill:none;stroke:#b0b0b0;stroke-linecap:square;stroke-width:0.8;"/>
     </g>
     <g id="line2d_18">
      <g>
       <use style="stroke:#000000;stroke-width:0.6;" x="218.221714" xlink:href="#m1ef7174dcb" y="298.944"/>
      </g>
     </g>
    </g>
    <g id="xtick_10">
     <g id="line2d_19">
      <path clip-path="url(#p640af90818)" d="M 258.377143 298.944 
L 258.377143 27.648 
" style="fill:none;stroke:#b0b0b0;stroke-linecap:square;stroke-width:0.8;"/>
     </g>
     <g id="line2d_20">
      <g>
       <use style="stroke:#000000;stroke-width:0.6;" x="258.377143" xlink:href="#m1ef7174dcb" y="298.944"/>
      </g>
     </g>
    </g>
    <g id="xtick_11">
     <g id="line2d_21">
      <path clip-path="url(#p640af90818)" d="M 298.532571 298.944 
L 298.532571 27.648 
" style="fill:none;stroke:#b0b0b0;stroke-linecap:square;stroke-width:0.8;"/>
     </g>
     <g id="line2d_22">
      <g>
       <use style="stroke:#000000;stroke-width:0.6;" x="298.532571" xlink:href="#m1ef7174dcb" y="298.944"/>
      </g>
     </g>
    </g>
    <g id="xtick_12">
     <g id="line2d_23">
      <path clip-path="url(#p640af90818)" d="M 338.688 298.944 
L 338.688 27.648 
" style="fill:none;stroke:#b0b0b0;stroke-linecap:square;stroke-width:0.8;"/>
     </g>
     <g id="line2d_24">
      <g>
       <use style="stroke:#000000;stroke-width:0.6;" x="338.688" xlink:href="#m1ef7174dcb" y="298.944"/>
      </g>
     </g>
    </g>
    <g id="text_5">
     <!-- log10(# f-evals / dimension) -->
     <defs>
      <path d="M 9.421875 75.984375 
L 18.40625 75.984375 
L 18.40625 0 
L 9.421875 0 
z
" id="DejaVuSans-108"/>
      <path d="M 30.609375 48.390625 
Q 23.390625 48.390625 19.1875 42.75 
Q 14.984375 37.109375 14.984375 27.296875 
Q 14.984375 17.484375 19.15625 11.84375 
Q 23.34375 6.203125 30.609375 6.203125 
Q 37.796875 6.203125 41.984375 11.859375 
Q 46.1875 17.53125 46.1875 27.296875 
Q 46.1875 37.015625 41.984375 42.703125 
Q 37.796875 48.390625 30.609375 48.390625 
z
M 30.609375 56 
Q 42.328125 56 49.015625 48.375 
Q 55.71875 40.765625 55.71875 27.296875 
Q 55.71875 13.875 49.015625 6.21875 
Q 42.328125 -1.421875 30.609375 -1.421875 
Q 18.84375 -1.421875 12.171875 6.21875 
Q 5.515625 13.875 5.515625 27.296875 
Q 5.515625 40.765625 12.171875 48.375 
Q 18.84375 56 30.609375 56 
z
" id="DejaVuSans-111"/>
      <path d="M 45.40625 27.984375 
Q 45.40625 37.75 41.375 43.109375 
Q 37.359375 48.484375 30.078125 48.484375 
Q 22.859375 48.484375 18.828125 43.109375 
Q 14.796875 37.75 14.796875 27.984375 
Q 14.796875 18.265625 18.828125 12.890625 
Q 22.859375 7.515625 30.078125 7.515625 
Q 37.359375 7.515625 41.375 12.890625 
Q 45.40625 18.265625 45.40625 27.984375 
z
M 54.390625 6.78125 
Q 54.390625 -7.171875 48.1875 -13.984375 
Q 42 -20.796875 29.203125 -20.796875 
Q 24.46875 -20.796875 20.265625 -20.09375 
Q 16.0625 -19.390625 12.109375 -17.921875 
L 12.109375 -9.1875 
Q 16.0625 -11.328125 19.921875 -12.34375 
Q 23.78125 -13.375 27.78125 -13.375 
Q 36.625 -13.375 41.015625 -8.765625 
Q 45.40625 -4.15625 45.40625 5.171875 
L 45.40625 9.625 
Q 42.625 4.78125 38.28125 2.390625 
Q 33.9375 0 27.875 0 
Q 17.828125 0 11.671875 7.65625 
Q 5.515625 15.328125 5.515625 27.984375 
Q 5.515625 40.671875 11.671875 48.328125 
Q 17.828125 56 27.875 56 
Q 33.9375 56 38.28125 53.609375 
Q 42.625 51.21875 45.40625 46.390625 
L 45.40625 54.6875 
L 54.390625 54.6875 
z
" id="DejaVuSans-103"/>
      <path d="M 12.40625 8.296875 
L 28.515625 8.296875 
L 28.515625 63.921875 
L 10.984375 60.40625 
L 10.984375 69.390625 
L 28.421875 72.90625 
L 38.28125 72.90625 
L 38.28125 8.296875 
L 54.390625 8.296875 
L 54.390625 0 
L 12.40625 0 
z
" id="DejaVuSans-49"/>
      <path d="M 31 75.875 
Q 24.46875 64.65625 21.28125 53.65625 
Q 18.109375 42.671875 18.109375 31.390625 
Q 18.109375 20.125 21.3125 9.0625 
Q 24.515625 -2 31 -13.1875 
L 23.1875 -13.1875 
Q 15.875 -1.703125 12.234375 9.375 
Q 8.59375 20.453125 8.59375 31.390625 
Q 8.59375 42.28125 12.203125 53.3125 
Q 15.828125 64.359375 23.1875 75.875 
z
" id="DejaVuSans-40"/>
      <path d="M 51.125 44 
L 36.921875 44 
L 32.8125 27.6875 
L 47.125 27.6875 
z
M 43.796875 71.78125 
L 38.71875 51.515625 
L 52.984375 51.515625 
L 58.109375 71.78125 
L 65.921875 71.78125 
L 60.890625 51.515625 
L 76.125 51.515625 
L 76.125 44 
L 58.984375 44 
L 54.984375 27.6875 
L 70.515625 27.6875 
L 70.515625 20.21875 
L 53.078125 20.21875 
L 48 0 
L 40.1875 0 
L 45.21875 20.21875 
L 30.90625 20.21875 
L 25.875 0 
L 18.015625 0 
L 23.09375 20.21875 
L 7.71875 20.21875 
L 7.71875 27.6875 
L 24.90625 27.6875 
L 29 44 
L 13.28125 44 
L 13.28125 51.515625 
L 30.90625 51.515625 
L 35.890625 71.78125 
z
" id="DejaVuSans-35"/>
      <path id="DejaVuSans-32"/>
      <path d="M 37.109375 75.984375 
L 37.109375 68.5 
L 28.515625 68.5 
Q 23.6875 68.5 21.796875 66.546875 
Q 19.921875 64.59375 19.921875 59.515625 
L 19.921875 54.6875 
L 34.71875 54.6875 
L 34.71875 47.703125 
L 19.921875 47.703125 
L 19.921875 0 
L 10.890625 0 
L 10.890625 47.703125 
L 2.296875 47.703125 
L 2.296875 54.6875 
L 10.890625 54.6875 
L 10.890625 58.5 
Q 10.890625 67.625 15.140625 71.796875 
Q 19.390625 75.984375 28.609375 75.984375 
z
" id="DejaVuSans-102"/>
      <path d="M 4.890625 31.390625 
L 31.203125 31.390625 
L 31.203125 23.390625 
L 4.890625 23.390625 
z
" id="DejaVuSans-45"/>
      <path d="M 56.203125 29.59375 
L 56.203125 25.203125 
L 14.890625 25.203125 
Q 15.484375 15.921875 20.484375 11.0625 
Q 25.484375 6.203125 34.421875 6.203125 
Q 39.59375 6.203125 44.453125 7.46875 
Q 49.3125 8.734375 54.109375 11.28125 
L 54.109375 2.78125 
Q 49.265625 0.734375 44.1875 -0.34375 
Q 39.109375 -1.421875 33.890625 -1.421875 
Q 20.796875 -1.421875 13.15625 6.1875 
Q 5.515625 13.8125 5.515625 26.8125 
Q 5.515625 40.234375 12.765625 48.109375 
Q 20.015625 56 32.328125 56 
Q 43.359375 56 49.78125 48.890625 
Q 56.203125 41.796875 56.203125 29.59375 
z
M 47.21875 32.234375 
Q 47.125 39.59375 43.09375 43.984375 
Q 39.0625 48.390625 32.421875 48.390625 
Q 24.90625 48.390625 20.390625 44.140625 
Q 15.875 39.890625 15.1875 32.171875 
z
" id="DejaVuSans-101"/>
      <path d="M 2.984375 54.6875 
L 12.5 54.6875 
L 29.59375 8.796875 
L 46.6875 54.6875 
L 56.203125 54.6875 
L 35.6875 0 
L 23.484375 0 
z
" id="DejaVuSans-118"/>
      <path d="M 34.28125 27.484375 
Q 23.390625 27.484375 19.1875 25 
Q 14.984375 22.515625 14.984375 16.5 
Q 14.984375 11.71875 18.140625 8.90625 
Q 21.296875 6.109375 26.703125 6.109375 
Q 34.1875 6.109375 38.703125 11.40625 
Q 43.21875 16.703125 43.21875 25.484375 
L 43.21875 27.484375 
z
M 52.203125 31.203125 
L 52.203125 0 
L 43.21875 0 
L 43.21875 8.296875 
Q 40.140625 3.328125 35.546875 0.953125 
Q 30.953125 -1.421875 24.3125 -1.421875 
Q 15.921875 -1.421875 10.953125 3.296875 
Q 6 8.015625 6 15.921875 
Q 6 25.140625 12.171875 29.828125 
Q 18.359375 34.515625 30.609375 34.515625 
L 43.21875 34.515625 
L 43.21875 35.40625 
Q 43.21875 41.609375 39.140625 45 
Q 35.0625 48.390625 27.6875 48.390625 
Q 23 48.390625 18.546875 47.265625 
Q 14.109375 46.140625 10.015625 43.890625 
L 10.015625 52.203125 
Q 14.9375 54.109375 19.578125 55.046875 
Q 24.21875 56 28.609375 56 
Q 40.484375 56 46.34375 49.84375 
Q 52.203125 43.703125 52.203125 31.203125 
z
" id="DejaVuSans-97"/>
      <path d="M 44.28125 53.078125 
L 44.28125 44.578125 
Q 40.484375 46.53125 36.375 47.5 
Q 32.28125 48.484375 27.875 48.484375 
Q 21.1875 48.484375 17.84375 46.4375 
Q 14.5 44.390625 14.5 40.28125 
Q 14.5 37.15625 16.890625 35.375 
Q 19.28125 33.59375 26.515625 31.984375 
L 29.59375 31.296875 
Q 39.15625 29.25 43.1875 25.515625 
Q 47.21875 21.78125 47.21875 15.09375 
Q 47.21875 7.46875 41.1875 3.015625 
Q 35.15625 -1.421875 24.609375 -1.421875 
Q 20.21875 -1.421875 15.453125 -0.5625 
Q 10.6875 0.296875 5.421875 2 
L 5.421875 11.28125 
Q 10.40625 8.6875 15.234375 7.390625 
Q 20.0625 6.109375 24.8125 6.109375 
Q 31.15625 6.109375 34.5625 8.28125 
Q 37.984375 10.453125 37.984375 14.40625 
Q 37.984375 18.0625 35.515625 20.015625 
Q 33.0625 21.96875 24.703125 23.78125 
L 21.578125 24.515625 
Q 13.234375 26.265625 9.515625 29.90625 
Q 5.8125 33.546875 5.8125 39.890625 
Q 5.8125 47.609375 11.28125 51.796875 
Q 16.75 56 26.8125 56 
Q 31.78125 56 36.171875 55.265625 
Q 40.578125 54.546875 44.28125 53.078125 
z
" id="DejaVuSans-115"/>
      <path d="M 25.390625 72.90625 
L 33.6875 72.90625 
L 8.296875 -9.28125 
L 0 -9.28125 
z
" id="DejaVuSans-47"/>
      <path d="M 45.40625 46.390625 
L 45.40625 75.984375 
L 54.390625 75.984375 
L 54.390625 0 
L 45.40625 0 
L 45.40625 8.203125 
Q 42.578125 3.328125 38.25 0.953125 
Q 33.9375 -1.421875 27.875 -1.421875 
Q 17.96875 -1.421875 11.734375 6.484375 
Q 5.515625 14.40625 5.515625 27.296875 
Q 5.515625 40.1875 11.734375 48.09375 
Q 17.96875 56 27.875 56 
Q 33.9375 56 38.25 53.625 
Q 42.578125 51.265625 45.40625 46.390625 
z
M 14.796875 27.296875 
Q 14.796875 17.390625 18.875 11.75 
Q 22.953125 6.109375 30.078125 6.109375 
Q 37.203125 6.109375 41.296875 11.75 
Q 45.40625 17.390625 45.40625 27.296875 
Q 45.40625 37.203125 41.296875 42.84375 
Q 37.203125 48.484375 30.078125 48.484375 
Q 22.953125 48.484375 18.875 42.84375 
Q 14.796875 37.203125 14.796875 27.296875 
z
" id="DejaVuSans-100"/>
      <path d="M 9.421875 54.6875 
L 18.40625 54.6875 
L 18.40625 0 
L 9.421875 0 
z
M 9.421875 75.984375 
L 18.40625 75.984375 
L 18.40625 64.59375 
L 9.421875 64.59375 
z
" id="DejaVuSans-105"/>
      <path d="M 52 44.1875 
Q 55.375 50.25 60.0625 53.125 
Q 64.75 56 71.09375 56 
Q 79.640625 56 84.28125 50.015625 
Q 88.921875 44.046875 88.921875 33.015625 
L 88.921875 0 
L 79.890625 0 
L 79.890625 32.71875 
Q 79.890625 40.578125 77.09375 44.375 
Q 74.3125 48.1875 68.609375 48.1875 
Q 61.625 48.1875 57.5625 43.546875 
Q 53.515625 38.921875 53.515625 30.90625 
L 53.515625 0 
L 44.484375 0 
L 44.484375 32.71875 
Q 44.484375 40.625 41.703125 44.40625 
Q 38.921875 48.1875 33.109375 48.1875 
Q 26.21875 48.1875 22.15625 43.53125 
Q 18.109375 38.875 18.109375 30.90625 
L 18.109375 0 
L 9.078125 0 
L 9.078125 54.6875 
L 18.109375 54.6875 
L 18.109375 46.1875 
Q 21.1875 51.21875 25.484375 53.609375 
Q 29.78125 56 35.6875 56 
Q 41.65625 56 45.828125 52.96875 
Q 50 49.953125 52 44.1875 
z
" id="DejaVuSans-109"/>
      <path d="M 54.890625 33.015625 
L 54.890625 0 
L 45.90625 0 
L 45.90625 32.71875 
Q 45.90625 40.484375 42.875 44.328125 
Q 39.84375 48.1875 33.796875 48.1875 
Q 26.515625 48.1875 22.3125 43.546875 
Q 18.109375 38.921875 18.109375 30.90625 
L 18.109375 0 
L 9.078125 0 
L 9.078125 54.6875 
L 18.109375 54.6875 
L 18.109375 46.1875 
Q 21.34375 51.125 25.703125 53.5625 
Q 30.078125 56 35.796875 56 
Q 45.21875 56 50.046875 50.171875 
Q 54.890625 44.34375 54.890625 33.015625 
z
" id="DejaVuSans-110"/>
      <path d="M 8.015625 75.875 
L 15.828125 75.875 
Q 23.140625 64.359375 26.78125 53.3125 
Q 30.421875 42.28125 30.421875 31.390625 
Q 30.421875 20.453125 26.78125 9.375 
Q 23.140625 -1.703125 15.828125 -13.1875 
L 8.015625 -13.1875 
Q 14.5 -2 17.703125 9.0625 
Q 20.90625 20.125 20.90625 31.390625 
Q 20.90625 42.671875 17.703125 53.65625 
Q 14.5 64.65625 8.015625 75.875 
z
" id="DejaVuSans-41"/>
     </defs>
     <g transform="translate(77.303219 342.217594)scale(0.17 -0.17)">
      <use xlink:href="#DejaVuSans-108"/>
      <use x="27.783203" xlink:href="#DejaVuSans-111"/>
      <use x="88.964844" xlink:href="#DejaVuSans-103"/>
      <use x="152.441406" xlink:href="#DejaVuSans-49"/>
      <use x="216.064453" xlink:href="#DejaVuSans-48"/>
      <use x="279.6875" xlink:href="#DejaVuSans-40"/>
      <use x="318.701172" xlink:href="#DejaVuSans-35"/>
      <use x="402.490234" xlink:href="#DejaVuSans-32"/>
      <use x="434.277344" xlink:href="#DejaVuSans-102"/>
      <use x="469.404297" xlink:href="#DejaVuSans-45"/>
      <use x="505.488281" xlink:href="#DejaVuSans-101"/>
      <use x="567.011719" xlink:href="#DejaVuSans-118"/>
      <use x="626.191406" xlink:href="#DejaVuSans-97"/>
      <use x="687.470703" xlink:href="#DejaVuSans-108"/>
      <use x="715.253906" xlink:href="#DejaVuSans-115"/>
      <use x="767.353516" xlink:href="#DejaVuSans-32"/>
      <use x="799.140625" xlink:href="#DejaVuSans-47"/>
      <use x="832.832031" xlink:href="#DejaVuSans-32"/>
      <use x="864.619141" xlink:href="#DejaVuSans-100"/>
      <use x="928.095703" xlink:href="#DejaVuSans-105"/>
      <use x="955.878906" xlink:href="#DejaVuSans-109"/>
      <use x="1053.291016" xlink:href="#DejaVuSans-101"/>
      <use x="1114.814453" xlink:href="#DejaVuSans-110"/>
      <use x="1178.193359" xlink:href="#DejaVuSans-115"/>
      <use x="1230.292969" xlink:href="#DejaVuSans-105"/>
      <use x="1258.076172" xlink:href="#DejaVuSans-111"/>
      <use x="1319.257812" xlink:href="#DejaVuSans-110"/>
      <use x="1382.636719" xlink:href="#DejaVuSans-41"/>
     </g>
    </g>
   </g>
   <g id="matplotlib.axis_2">
    <g id="ytick_1">
     <g id="line2d_25">
      <path clip-path="url(#p640af90818)" d="M 57.6 298.944 
L 338.688 298.944 
" style="fill:none;stroke:#b0b0b0;stroke-linecap:square;stroke-width:0.8;"/>
     </g>
     <g id="line2d_26">
      <defs>
       <path d="M 0 0 
L -3.5 0 
" id="m0bcfab680b" style="stroke:#000000;stroke-width:0.8;"/>
      </defs>
      <g>
       <use style="stroke:#000000;stroke-width:0.8;" x="57.6" xlink:href="#m0bcfab680b" y="298.944"/>
      </g>
     </g>
     <g id="text_6">
      <!-- 0.0 -->
      <defs>
       <path d="M 10.6875 12.40625 
L 21 12.40625 
L 21 0 
L 10.6875 0 
z
" id="DejaVuSans-46"/>
      </defs>
      <g transform="translate(25.155 305.02275)scale(0.16 -0.16)">
       <use xlink:href="#DejaVuSans-48"/>
       <use x="63.623047" xlink:href="#DejaVuSans-46"/>
       <use x="95.410156" xlink:href="#DejaVuSans-48"/>
      </g>
     </g>
    </g>
    <g id="ytick_2">
     <g id="line2d_27">
      <path clip-path="url(#p640af90818)" d="M 57.6 245.22202 
L 338.688 245.22202 
" style="fill:none;stroke:#b0b0b0;stroke-linecap:square;stroke-width:0.8;"/>
     </g>
     <g id="line2d_28">
      <g>
       <use style="stroke:#000000;stroke-width:0.8;" x="57.6" xlink:href="#m0bcfab680b" y="245.22202"/>
      </g>
     </g>
     <g id="text_7">
      <!-- 0.2 -->
      <g transform="translate(25.155 251.30077)scale(0.16 -0.16)">
       <use xlink:href="#DejaVuSans-48"/>
       <use x="63.623047" xlink:href="#DejaVuSans-46"/>
       <use x="95.410156" xlink:href="#DejaVuSans-50"/>
      </g>
     </g>
    </g>
    <g id="ytick_3">
     <g id="line2d_29">
      <path clip-path="url(#p640af90818)" d="M 57.6 191.50004 
L 338.688 191.50004 
" style="fill:none;stroke:#b0b0b0;stroke-linecap:square;stroke-width:0.8;"/>
     </g>
     <g id="line2d_30">
      <g>
       <use style="stroke:#000000;stroke-width:0.8;" x="57.6" xlink:href="#m0bcfab680b" y="191.50004"/>
      </g>
     </g>
     <g id="text_8">
      <!-- 0.4 -->
      <g transform="translate(25.155 197.57879)scale(0.16 -0.16)">
       <use xlink:href="#DejaVuSans-48"/>
       <use x="63.623047" xlink:href="#DejaVuSans-46"/>
       <use x="95.410156" xlink:href="#DejaVuSans-52"/>
      </g>
     </g>
    </g>
    <g id="ytick_4">
     <g id="line2d_31">
      <path clip-path="url(#p640af90818)" d="M 57.6 137.778059 
L 338.688 137.778059 
" style="fill:none;stroke:#b0b0b0;stroke-linecap:square;stroke-width:0.8;"/>
     </g>
     <g id="line2d_32">
      <g>
       <use style="stroke:#000000;stroke-width:0.8;" x="57.6" xlink:href="#m0bcfab680b" y="137.778059"/>
      </g>
     </g>
     <g id="text_9">
      <!-- 0.6 -->
      <g transform="translate(25.155 143.856809)scale(0.16 -0.16)">
       <use xlink:href="#DejaVuSans-48"/>
       <use x="63.623047" xlink:href="#DejaVuSans-46"/>
       <use x="95.410156" xlink:href="#DejaVuSans-54"/>
      </g>
     </g>
    </g>
    <g id="ytick_5">
     <g id="line2d_33">
      <path clip-path="url(#p640af90818)" d="M 57.6 84.056079 
L 338.688 84.056079 
" style="fill:none;stroke:#b0b0b0;stroke-linecap:square;stroke-width:0.8;"/>
     </g>
     <g id="line2d_34">
      <g>
       <use style="stroke:#000000;stroke-width:0.8;" x="57.6" xlink:href="#m0bcfab680b" y="84.056079"/>
      </g>
     </g>
     <g id="text_10">
      <!-- 0.8 -->
      <defs>
       <path d="M 31.78125 34.625 
Q 24.75 34.625 20.71875 30.859375 
Q 16.703125 27.09375 16.703125 20.515625 
Q 16.703125 13.921875 20.71875 10.15625 
Q 24.75 6.390625 31.78125 6.390625 
Q 38.8125 6.390625 42.859375 10.171875 
Q 46.921875 13.96875 46.921875 20.515625 
Q 46.921875 27.09375 42.890625 30.859375 
Q 38.875 34.625 31.78125 34.625 
z
M 21.921875 38.8125 
Q 15.578125 40.375 12.03125 44.71875 
Q 8.5 49.078125 8.5 55.328125 
Q 8.5 64.0625 14.71875 69.140625 
Q 20.953125 74.21875 31.78125 74.21875 
Q 42.671875 74.21875 48.875 69.140625 
Q 55.078125 64.0625 55.078125 55.328125 
Q 55.078125 49.078125 51.53125 44.71875 
Q 48 40.375 41.703125 38.8125 
Q 48.828125 37.15625 52.796875 32.3125 
Q 56.78125 27.484375 56.78125 20.515625 
Q 56.78125 9.90625 50.3125 4.234375 
Q 43.84375 -1.421875 31.78125 -1.421875 
Q 19.734375 -1.421875 13.25 4.234375 
Q 6.78125 9.90625 6.78125 20.515625 
Q 6.78125 27.484375 10.78125 32.3125 
Q 14.796875 37.15625 21.921875 38.8125 
z
M 18.3125 54.390625 
Q 18.3125 48.734375 21.84375 45.5625 
Q 25.390625 42.390625 31.78125 42.390625 
Q 38.140625 42.390625 41.71875 45.5625 
Q 45.3125 48.734375 45.3125 54.390625 
Q 45.3125 60.0625 41.71875 63.234375 
Q 38.140625 66.40625 31.78125 66.40625 
Q 25.390625 66.40625 21.84375 63.234375 
Q 18.3125 60.0625 18.3125 54.390625 
z
" id="DejaVuSans-56"/>
      </defs>
      <g transform="translate(25.155 90.134829)scale(0.16 -0.16)">
       <use xlink:href="#DejaVuSans-48"/>
       <use x="63.623047" xlink:href="#DejaVuSans-46"/>
       <use x="95.410156" xlink:href="#DejaVuSans-56"/>
      </g>
     </g>
    </g>
    <g id="ytick_6">
     <g id="line2d_35">
      <path clip-path="url(#p640af90818)" d="M 57.6 30.334099 
L 338.688 30.334099 
" style="fill:none;stroke:#b0b0b0;stroke-linecap:square;stroke-width:0.8;"/>
     </g>
     <g id="line2d_36">
      <g>
       <use style="stroke:#000000;stroke-width:0.8;" x="57.6" xlink:href="#m0bcfab680b" y="30.334099"/>
      </g>
     </g>
     <g id="text_11">
      <!-- 1.0 -->
      <g transform="translate(25.155 36.412849)scale(0.16 -0.16)">
       <use xlink:href="#DejaVuSans-49"/>
       <use x="63.623047" xlink:href="#DejaVuSans-46"/>
       <use x="95.410156" xlink:href="#DejaVuSans-48"/>
      </g>
     </g>
    </g>
    <g id="text_12">
     <!-- Fraction of function,target pairs -->
     <defs>
      <path d="M 9.8125 72.90625 
L 51.703125 72.90625 
L 51.703125 64.59375 
L 19.671875 64.59375 
L 19.671875 43.109375 
L 48.578125 43.109375 
L 48.578125 34.8125 
L 19.671875 34.8125 
L 19.671875 0 
L 9.8125 0 
z
" id="DejaVuSans-70"/>
      <path d="M 41.109375 46.296875 
Q 39.59375 47.171875 37.8125 47.578125 
Q 36.03125 48 33.890625 48 
Q 26.265625 48 22.1875 43.046875 
Q 18.109375 38.09375 18.109375 28.8125 
L 18.109375 0 
L 9.078125 0 
L 9.078125 54.6875 
L 18.109375 54.6875 
L 18.109375 46.1875 
Q 20.953125 51.171875 25.484375 53.578125 
Q 30.03125 56 36.53125 56 
Q 37.453125 56 38.578125 55.875 
Q 39.703125 55.765625 41.0625 55.515625 
z
" id="DejaVuSans-114"/>
      <path d="M 48.78125 52.59375 
L 48.78125 44.1875 
Q 44.96875 46.296875 41.140625 47.34375 
Q 37.3125 48.390625 33.40625 48.390625 
Q 24.65625 48.390625 19.8125 42.84375 
Q 14.984375 37.3125 14.984375 27.296875 
Q 14.984375 17.28125 19.8125 11.734375 
Q 24.65625 6.203125 33.40625 6.203125 
Q 37.3125 6.203125 41.140625 7.25 
Q 44.96875 8.296875 48.78125 10.40625 
L 48.78125 2.09375 
Q 45.015625 0.34375 40.984375 -0.53125 
Q 36.96875 -1.421875 32.421875 -1.421875 
Q 20.0625 -1.421875 12.78125 6.34375 
Q 5.515625 14.109375 5.515625 27.296875 
Q 5.515625 40.671875 12.859375 48.328125 
Q 20.21875 56 33.015625 56 
Q 37.15625 56 41.109375 55.140625 
Q 45.0625 54.296875 48.78125 52.59375 
z
" id="DejaVuSans-99"/>
      <path d="M 18.3125 70.21875 
L 18.3125 54.6875 
L 36.8125 54.6875 
L 36.8125 47.703125 
L 18.3125 47.703125 
L 18.3125 18.015625 
Q 18.3125 11.328125 20.140625 9.421875 
Q 21.96875 7.515625 27.59375 7.515625 
L 36.8125 7.515625 
L 36.8125 0 
L 27.59375 0 
Q 17.1875 0 13.234375 3.875 
Q 9.28125 7.765625 9.28125 18.015625 
L 9.28125 47.703125 
L 2.6875 47.703125 
L 2.6875 54.6875 
L 9.28125 54.6875 
L 9.28125 70.21875 
z
" id="DejaVuSans-116"/>
      <path d="M 8.5 21.578125 
L 8.5 54.6875 
L 17.484375 54.6875 
L 17.484375 21.921875 
Q 17.484375 14.15625 20.5 10.265625 
Q 23.53125 6.390625 29.59375 6.390625 
Q 36.859375 6.390625 41.078125 11.03125 
Q 45.3125 15.671875 45.3125 23.6875 
L 45.3125 54.6875 
L 54.296875 54.6875 
L 54.296875 0 
L 45.3125 0 
L 45.3125 8.40625 
Q 42.046875 3.421875 37.71875 1 
Q 33.40625 -1.421875 27.6875 -1.421875 
Q 18.265625 -1.421875 13.375 4.4375 
Q 8.5 10.296875 8.5 21.578125 
z
M 31.109375 56 
z
" id="DejaVuSans-117"/>
      <path d="M 11.71875 12.40625 
L 22.015625 12.40625 
L 22.015625 4 
L 14.015625 -11.625 
L 7.71875 -11.625 
L 11.71875 4 
z
" id="DejaVuSans-44"/>
      <path d="M 18.109375 8.203125 
L 18.109375 -20.796875 
L 9.078125 -20.796875 
L 9.078125 54.6875 
L 18.109375 54.6875 
L 18.109375 46.390625 
Q 20.953125 51.265625 25.265625 53.625 
Q 29.59375 56 35.59375 56 
Q 45.5625 56 51.78125 48.09375 
Q 58.015625 40.1875 58.015625 27.296875 
Q 58.015625 14.40625 51.78125 6.484375 
Q 45.5625 -1.421875 35.59375 -1.421875 
Q 29.59375 -1.421875 25.265625 0.953125 
Q 20.953125 3.328125 18.109375 8.203125 
z
M 48.6875 27.296875 
Q 48.6875 37.203125 44.609375 42.84375 
Q 40.53125 48.484375 33.40625 48.484375 
Q 26.265625 48.484375 22.1875 42.84375 
Q 18.109375 37.203125 18.109375 27.296875 
Q 18.109375 17.390625 22.1875 11.75 
Q 26.265625 6.109375 33.40625 6.109375 
Q 40.53125 6.109375 44.609375 11.75 
Q 48.6875 17.390625 48.6875 27.296875 
z
" id="DejaVuSans-112"/>
     </defs>
     <g transform="translate(17.619531 298.435375)rotate(-90)scale(0.17 -0.17)">
      <use xlink:href="#DejaVuSans-70"/>
      <use x="57.410156" xlink:href="#DejaVuSans-114"/>
      <use x="98.523438" xlink:href="#DejaVuSans-97"/>
      <use x="159.802734" xlink:href="#DejaVuSans-99"/>
      <use x="214.783203" xlink:href="#DejaVuSans-116"/>
      <use x="253.992188" xlink:href="#DejaVuSans-105"/>
      <use x="281.775391" xlink:href="#DejaVuSans-111"/>
      <use x="342.957031" xlink:href="#DejaVuSans-110"/>
      <use x="406.335938" xlink:href="#DejaVuSans-32"/>
      <use x="438.123047" xlink:href="#DejaVuSans-111"/>
      <use x="499.304688" xlink:href="#DejaVuSans-102"/>
      <use x="534.509766" xlink:href="#DejaVuSans-32"/>
      <use x="566.296875" xlink:href="#DejaVuSans-102"/>
      <use x="601.501953" xlink:href="#DejaVuSans-117"/>
      <use x="664.880859" xlink:href="#DejaVuSans-110"/>
      <use x="728.259766" xlink:href="#DejaVuSans-99"/>
      <use x="783.240234" xlink:href="#DejaVuSans-116"/>
      <use x="822.449219" xlink:href="#DejaVuSans-105"/>
      <use x="850.232422" xlink:href="#DejaVuSans-111"/>
      <use x="911.414062" xlink:href="#DejaVuSans-110"/>
      <use x="974.792969" xlink:href="#DejaVuSans-44"/>
      <use x="1006.580078" xlink:href="#DejaVuSans-116"/>
      <use x="1045.789062" xlink:href="#DejaVuSans-97"/>
      <use x="1107.068359" xlink:href="#DejaVuSans-114"/>
      <use x="1148.166016" xlink:href="#DejaVuSans-103"/>
      <use x="1211.642578" xlink:href="#DejaVuSans-101"/>
      <use x="1273.166016" xlink:href="#DejaVuSans-116"/>
      <use x="1312.375" xlink:href="#DejaVuSans-32"/>
      <use x="1344.162109" xlink:href="#DejaVuSans-112"/>
      <use x="1407.638672" xlink:href="#DejaVuSans-97"/>
      <use x="1468.917969" xlink:href="#DejaVuSans-105"/>
      <use x="1496.701172" xlink:href="#DejaVuSans-114"/>
      <use x="1537.814453" xlink:href="#DejaVuSans-115"/>
     </g>
    </g>
   </g>
   <g id="line2d_37">
    <defs>
     <path d="M 0 1.5 
C 0.397805 1.5 0.77937 1.341951 1.06066 1.06066 
C 1.341951 0.77937 1.5 0.397805 1.5 0 
C 1.5 -0.397805 1.341951 -0.77937 1.06066 -1.06066 
C 0.77937 -1.341951 0.397805 -1.5 0 -1.5 
C -0.397805 -1.5 -0.77937 -1.341951 -1.06066 -1.06066 
C -1.341951 -0.77937 -1.5 -0.397805 -1.5 0 
C -1.5 0.397805 -1.341951 0.77937 -1.06066 1.06066 
C -0.77937 1.341951 -0.397805 1.5 0 1.5 
z
" id="m4bebba2346" style="stroke:#000080;"/>
    </defs>
    <g>
     <use style="fill:#000080;stroke:#000080;" x="268.131157" xlink:href="#m4bebba2346" y="30.334099"/>
     <use style="fill:#000080;stroke:#000080;" x="268.131157" xlink:href="#m4bebba2346" y="30.334099"/>
    </g>
   </g>
   <g id="line2d_38">
    <path d="M 38.440992 298.944 
L 38.440992 293.150453 
L 50.52898 293.150453 
L 50.52898 291.043709 
L 62.616969 291.043709 
L 62.616969 289.990337 
L 66.508432 289.990337 
L 66.508432 289.463651 
L 69.687988 289.463651 
L 69.687988 288.410278 
L 72.376266 288.410278 
L 72.376266 284.723476 
L 76.759008 284.723476 
L 76.759008 283.670104 
L 80.258561 283.670104 
L 80.258561 282.616732 
L 81.775977 282.616732 
L 81.775977 281.563359 
L 85.66744 281.563359 
L 85.66744 279.983301 
L 87.850195 279.983301 
L 87.850195 279.456615 
L 95.918017 279.456615 
L 95.918017 278.929929 
L 99.41757 278.929929 
L 99.41757 277.349871 
L 104.434538 277.349871 
L 104.434538 275.769812 
L 105.209745 275.769812 
L 105.209745 274.71644 
L 109.252198 274.71644 
L 109.252198 274.189754 
L 112.026172 274.189754 
L 112.026172 273.663068 
L 113.022974 273.663068 
L 113.022974 273.136382 
L 113.500792 273.136382 
L 113.500792 272.609696 
L 115.077025 272.609696 
L 115.077025 272.08301 
L 116.522527 272.08301 
L 116.522527 271.556324 
L 116.719583 271.556324 
L 116.719583 271.029638 
L 117.486268 271.029638 
L 117.486268 270.502952 
L 119.43583 270.502952 
L 119.43583 269.449579 
L 120.571812 269.449579 
L 120.571812 268.922893 
L 121.189196 268.922893 
L 121.189196 268.396207 
L 122.782271 268.396207 
L 122.782271 267.869521 
L 123.593547 267.869521 
L 123.593547 266.816149 
L 123.855796 266.816149 
L 123.855796 266.289463 
L 125.351508 266.289463 
L 125.351508 265.762777 
L 126.50685 265.762777 
L 126.50685 264.709405 
L 127.48501 264.709405 
L 127.48501 264.182719 
L 127.799239 264.182719 
L 127.799239 263.656033 
L 132.101058 263.656033 
L 132.101058 263.129347 
L 132.659801 263.129347 
L 132.659801 262.075974 
L 133.124876 262.075974 
L 133.201197 261.022602 
L 133.503183 261.022602 
L 133.503183 260.495916 
L 134.307653 260.495916 
L 134.307653 259.96923 
L 134.591225 259.96923 
L 134.591225 258.915858 
L 135.813153 258.915858 
L 135.813153 258.389172 
L 137.016339 258.389172 
L 137.016339 257.3358 
L 137.37967 257.3358 
L 137.37967 256.809114 
L 137.910857 256.809114 
L 137.910857 256.282427 
L 139.520072 256.282427 
L 139.520072 255.755741 
L 139.939053 255.755741 
L 139.939053 255.229055 
L 140.348205 255.229055 
L 140.39868 253.648997 
L 141.47371 253.648997 
L 141.47371 253.122311 
L 141.987354 253.122311 
L 141.987354 252.068939 
L 142.884173 252.068939 
L 142.884173 251.542253 
L 143.778691 251.542253 
L 143.778691 251.015567 
L 144.06695 251.015567 
L 144.06695 250.488881 
L 144.269971 250.488881 
L 144.269971 248.382136 
L 145.703082 248.382136 
L 145.703082 246.275392 
L 147.50327 246.275392 
L 147.50327 245.748706 
L 148.576295 245.748706 
L 148.576295 244.695334 
L 148.950676 244.695334 
L 148.950676 244.168648 
L 149.497598 244.168648 
L 149.497598 243.641962 
L 150.344189 243.641962 
L 150.344189 243.115275 
L 161.79373 243.115275 
L 161.79373 242.588589 
L 161.955547 242.588589 
L 161.955547 242.061903 
L 162.231559 242.061903 
L 162.231559 241.535217 
L 162.46065 241.535217 
L 162.46065 241.008531 
L 162.9377 241.008531 
L 162.9377 240.481845 
L 163.841212 240.481845 
L 163.867476 239.428473 
L 164.063205 239.428473 
L 164.063205 238.901787 
L 164.435497 238.901787 
L 164.435497 238.375101 
L 164.599841 238.375101 
L 164.599841 237.848415 
L 165.399101 237.848415 
L 165.423123 236.268356 
L 165.93173 236.268356 
L 165.93173 235.74167 
L 166.07106 235.74167 
L 166.07106 235.214984 
L 166.186323 235.214984 
L 166.186323 234.688298 
L 166.335035 234.688298 
L 166.335035 234.161612 
L 166.516342 234.161612 
L 166.606293 232.581554 
L 166.718084 232.581554 
L 166.807003 229.421437 
L 166.884438 229.421437 
L 166.884438 228.894751 
L 167.320442 228.894751 
L 167.320442 226.788007 
L 167.523787 226.788007 
L 167.619287 225.734635 
L 168.506396 225.734635 
L 168.506396 225.207949 
L 168.626667 225.207949 
L 168.626667 224.154577 
L 168.86475 224.154577 
L 168.913944 223.101204 
L 169.041203 223.101204 
L 169.138466 220.467774 
L 169.720307 220.467774 
L 169.720307 219.941088 
L 175.737594 219.941088 
L 175.737594 219.414402 
L 177.220651 219.414402 
L 177.220651 218.887716 
L 177.553068 218.887716 
L 177.553068 218.36103 
L 178.6156 218.36103 
L 178.6156 217.834344 
L 178.822779 217.834344 
L 178.822779 217.307658 
L 179.659591 217.307658 
L 179.659591 215.727599 
L 180.402242 215.727599 
L 180.402242 215.200913 
L 180.819217 215.200913 
L 180.819217 213.620855 
L 181.095021 213.620855 
L 181.095021 213.094169 
L 181.332822 213.094169 
L 181.332822 212.567483 
L 181.681189 212.567483 
L 181.770731 209.934052 
L 181.86449 209.934052 
L 181.86449 208.88068 
L 182.073625 208.88068 
L 182.073625 207.300622 
L 182.248295 207.300622 
L 182.248295 206.773936 
L 182.461942 206.773936 
L 182.552068 203.613819 
L 182.681928 203.613819 
L 182.784238 202.560447 
L 182.8064 202.560447 
L 182.8064 202.033761 
L 182.92559 202.033761 
L 182.934387 200.980389 
L 183.131146 200.980389 
L 183.131146 200.453703 
L 183.3042 200.453703 
L 183.390086 199.400331 
L 183.539378 199.400331 
L 183.539378 197.293586 
L 183.68319 197.293586 
L 183.68319 196.7669 
L 183.979734 196.7669 
L 183.979734 195.713528 
L 184.165107 195.713528 
L 184.165107 193.080098 
L 184.836318 193.080098 
L 184.836318 192.553412 
L 185.2185 192.553412 
L 185.253182 189.919981 
L 188.474394 189.919981 
L 188.474394 188.339923 
L 188.624171 188.339923 
L 188.624171 187.286551 
L 189.062839 187.286551 
L 189.121531 185.179807 
L 189.656017 185.179807 
L 189.656017 184.653121 
L 190.174608 184.653121 
L 190.174608 183.599748 
L 190.647169 183.599748 
L 190.647169 182.546376 
L 190.821479 182.546376 
L 190.930239 180.439632 
L 191.09625 180.439632 
L 191.195103 179.38626 
L 191.24432 179.38626 
L 191.287952 177.806202 
L 191.372181 177.806202 
L 191.44791 174.119399 
L 191.641145 174.119399 
L 191.713059 170.432596 
L 191.850732 170.432596 
L 191.921789 167.799166 
L 192.070855 167.799166 
L 192.159168 166.745794 
L 192.285662 166.745794 
L 192.331899 165.692422 
L 192.429112 165.692422 
L 192.485145 164.112363 
L 192.551136 164.112363 
L 192.551136 163.585677 
L 192.807638 163.585677 
L 192.887338 160.425561 
L 193.065341 160.425561 
L 193.170789 157.79213 
L 193.28775 157.79213 
L 193.28775 157.265444 
L 193.413578 157.265444 
L 193.461733 153.578642 
L 193.588704 153.578642 
L 193.588704 153.051956 
L 193.823429 153.051956 
L 193.823429 151.471897 
L 194.064329 151.471897 
L 194.136187 149.891839 
L 194.230771 149.891839 
L 194.230771 148.838467 
L 194.459336 148.838467 
L 194.459336 148.311781 
L 194.588291 148.311781 
L 194.588291 146.205037 
L 194.743128 146.205037 
L 194.743128 145.151665 
L 195.129775 145.151665 
L 195.129775 144.624978 
L 199.300002 144.624978 
L 199.300002 144.098292 
L 199.588346 144.098292 
L 199.588346 143.571606 
L 199.908588 143.571606 
L 199.918553 141.991548 
L 200.085453 141.991548 
L 200.138001 140.938176 
L 200.367672 140.938176 
L 200.441951 138.304745 
L 200.517519 138.304745 
L 200.621491 135.671315 
L 200.789727 135.671315 
L 200.789727 135.144629 
L 200.907789 135.144629 
L 200.907789 133.564571 
L 201.121407 133.564571 
L 201.121407 132.511199 
L 201.251102 132.511199 
L 201.347745 129.877768 
L 201.382894 129.877768 
L 201.481847 127.244338 
L 201.498537 127.244338 
L 201.506118 124.610907 
L 201.626973 124.610907 
L 201.654051 121.977477 
L 201.826059 121.977477 
L 201.827547 120.924105 
L 202.005229 120.924105 
L 202.097792 118.817361 
L 202.160689 118.817361 
L 202.160689 118.290674 
L 202.358139 118.290674 
L 202.358139 117.237302 
L 202.716781 117.237302 
L 202.781717 116.18393 
L 202.863248 116.18393 
L 202.877267 114.603872 
L 203.040454 114.603872 
L 203.040454 113.5505 
L 203.822299 113.5505 
L 203.822299 113.023814 
L 204.043887 113.023814 
L 204.043887 112.497128 
L 204.287269 112.497128 
L 204.287269 111.970441 
L 204.524752 111.970441 
L 204.613773 109.863697 
L 204.898122 109.863697 
L 204.898122 108.283639 
L 205.17791 108.283639 
L 205.223291 105.650209 
L 205.38909 105.650209 
L 205.456905 104.596836 
L 205.501567 104.596836 
L 205.594147 103.016778 
L 205.631281 103.016778 
L 205.631281 102.490092 
L 207.599231 102.490092 
L 207.599231 101.963406 
L 208.854857 101.963406 
L 208.854857 100.910034 
L 209.301653 100.910034 
L 209.301653 100.383348 
L 210.402418 100.383348 
L 210.402418 99.856662 
L 211.292248 99.856662 
L 211.292248 99.329976 
L 211.843896 99.329976 
L 211.919152 97.749917 
L 212.201378 97.749917 
L 212.201378 97.223231 
L 212.678353 97.223231 
L 212.711074 96.169859 
L 212.855588 96.169859 
L 212.942355 95.116487 
L 212.995778 95.116487 
L 213.063889 93.536429 
L 213.221015 93.536429 
L 213.221015 92.483056 
L 213.367525 92.483056 
L 213.367525 90.902998 
L 213.568317 90.902998 
L 213.624399 89.32294 
L 213.887236 89.32294 
L 213.971998 87.742882 
L 214.192373 87.742882 
L 214.192373 87.216196 
L 221.244585 87.216196 
L 221.291934 86.162824 
L 221.855035 86.162824 
L 221.95434 84.056079 
L 223.020642 84.056079 
L 223.049314 81.949335 
L 223.26961 81.949335 
L 223.26961 80.369277 
L 223.561786 80.369277 
L 223.614348 79.315904 
L 223.724936 79.315904 
L 223.793066 75.102416 
L 223.847463 75.102416 
L 223.928532 73.522358 
L 224.016316 73.522358 
L 224.127292 71.942299 
L 224.309058 71.942299 
L 224.323403 69.835555 
L 224.424712 69.835555 
L 224.424712 69.308869 
L 224.546481 69.308869 
L 224.546481 68.255497 
L 224.678248 68.255497 
L 224.73876 67.202125 
L 224.791885 67.202125 
L 224.846837 65.09538 
L 224.99963 65.09538 
L 224.99963 62.988636 
L 225.166327 62.988636 
L 225.272183 60.881892 
L 225.329898 60.881892 
L 225.40322 58.775147 
L 225.717683 58.775147 
L 225.778092 57.195089 
L 234.132903 57.195089 
L 234.132903 56.668403 
L 235.606924 56.668403 
L 235.606924 56.141717 
L 251.205295 56.141717 
L 251.205295 54.561659 
L 251.788136 54.561659 
L 251.788136 53.508287 
L 252.507704 53.508287 
L 252.507704 52.9816 
L 252.948991 52.9816 
L 253.028642 51.401542 
L 253.258654 51.401542 
L 253.258654 47.188054 
L 253.655675 47.188054 
L 253.655675 45.607995 
L 254.035956 45.607995 
L 254.087104 44.027937 
L 264.069203 44.027937 
L 264.069203 43.501251 
L 265.641439 43.501251 
L 265.678194 41.921193 
L 266.587251 41.921193 
L 266.587251 41.394507 
L 266.710573 41.394507 
L 266.817451 40.341135 
L 266.868645 40.341135 
L 266.892955 37.181018 
L 267.076414 37.181018 
L 267.076414 36.654332 
L 267.204223 36.654332 
L 267.204223 36.127646 
L 267.445075 36.127646 
L 267.474255 34.547588 
L 267.587094 34.547588 
L 267.587094 34.020902 
L 267.762718 34.020902 
L 267.830123 32.440843 
L 267.925701 32.440843 
L 267.925701 30.860785 
L 268.131157 30.860785 
L 268.131157 30.334099 
L 338.688 30.334099 
L 338.688 30.334099 
" style="fill:none;stroke:#000080;stroke-linecap:square;stroke-width:1.5;"/>
   </g>
   <g id="line2d_39">
    <defs>
     <path d="M 0 6 
C 1.591219 6 3.117479 5.367802 4.242641 4.242641 
C 5.367802 3.117479 6 1.591219 6 0 
C 6 -1.591219 5.367802 -3.117479 4.242641 -4.242641 
C 3.117479 -5.367802 1.591219 -6 0 -6 
C -1.591219 -6 -3.117479 -5.367802 -4.242641 -4.242641 
C -5.367802 -3.117479 -6 -1.591219 -6 0 
C -6 1.591219 -5.367802 3.117479 -4.242641 4.242641 
C -3.117479 5.367802 -1.591219 6 0 6 
z
" id="m0cf1073732" style="stroke:#000080;stroke-width:1.5;"/>
    </defs>
    <g>
     <use style="fill-opacity:0;stroke:#000080;stroke-width:1.5;" x="150.344189" xlink:href="#m0cf1073732" y="243.641962"/>
     <use style="fill-opacity:0;stroke:#000080;stroke-width:1.5;" x="201.498537" xlink:href="#m0cf1073732" y="126.717652"/>
     <use style="fill-opacity:0;stroke:#000080;stroke-width:1.5;" x="235.606924" xlink:href="#m0cf1073732" y="56.668403"/>
     <use style="fill-opacity:0;stroke:#000080;stroke-width:1.5;" x="268.131157" xlink:href="#m0cf1073732" y="30.334099"/>
     <use style="fill-opacity:0;stroke:#000080;stroke-width:1.5;" x="268.131157" xlink:href="#m0cf1073732" y="30.334099"/>
     <use style="fill-opacity:0;stroke:#000080;stroke-width:1.5;" x="338.688" xlink:href="#m0cf1073732" y="30.334099"/>
    </g>
   </g>
   <g id="line2d_40">
    <path style="fill:none;stroke:#000080;stroke-linecap:square;stroke-width:1.5;"/>
    <g/>
   </g>
   <g id="line2d_41">
    <defs>
     <path d="M 0 1.5 
C 0.397805 1.5 0.77937 1.341951 1.06066 1.06066 
C 1.341951 0.77937 1.5 0.397805 1.5 0 
C 1.5 -0.397805 1.341951 -0.77937 1.06066 -1.06066 
C 0.77937 -1.341951 0.397805 -1.5 0 -1.5 
C -0.397805 -1.5 -0.77937 -1.341951 -1.06066 -1.06066 
C -1.341951 -0.77937 -1.5 -0.397805 -1.5 0 
C -1.5 0.397805 -1.341951 0.77937 -1.06066 1.06066 
C -0.77937 1.341951 -0.397805 1.5 0 1.5 
z
" id="mfe60b60ccb" style="stroke:#ff0000;"/>
    </defs>
    <g>
     <use style="fill:#ff0000;stroke:#ff0000;" x="251.298273" xlink:href="#mfe60b60ccb" y="30.334099"/>
     <use style="fill:#ff0000;stroke:#ff0000;" x="251.298273" xlink:href="#mfe60b60ccb" y="30.334099"/>
    </g>
   </g>
   <g id="line2d_42">
    <path d="M 38.440992 298.944 
L 38.440992 293.150453 
L 50.52898 293.150453 
L 50.52898 291.043709 
L 57.6 291.043709 
L 57.6 289.990337 
L 62.616969 289.990337 
L 62.616969 288.936964 
L 66.508432 288.936964 
L 66.508432 287.883592 
L 72.376266 287.883592 
L 72.376266 287.356906 
L 74.704957 287.356906 
L 74.704957 286.303534 
L 80.258561 286.303534 
L 80.258561 285.250162 
L 83.171864 285.250162 
L 83.171864 284.723476 
L 84.464254 284.723476 
L 84.464254 281.563359 
L 87.850195 281.563359 
L 87.850195 279.983301 
L 92.34655 279.983301 
L 92.34655 279.456615 
L 93.121756 279.456615 
L 93.121756 278.929929 
L 94.575872 278.929929 
L 94.575872 277.876557 
L 95.918017 277.876557 
L 95.918017 276.823185 
L 98.32726 276.823185 
L 98.32726 275.769812 
L 102.330873 275.769812 
L 102.330873 275.243126 
L 104.033617 275.243126 
L 104.033617 274.71644 
L 104.826449 274.71644 
L 104.826449 274.189754 
L 107.347841 274.189754 
L 107.347841 273.136382 
L 108.948899 273.136382 
L 108.948899 271.556324 
L 110.131676 271.556324 
L 110.131676 271.029638 
L 111.239304 271.029638 
L 111.239304 269.976266 
L 116.914437 269.976266 
L 116.914437 269.449579 
L 117.857331 269.449579 
L 117.857331 268.922893 
L 120.571812 268.922893 
L 120.571812 268.396207 
L 121.036887 268.396207 
L 121.036887 267.342835 
L 124.368753 267.342835 
L 124.368753 265.762777 
L 124.867052 265.762777 
L 124.867052 264.709405 
L 125.470548 264.709405 
L 125.470548 264.182719 
L 125.588781 264.182719 
L 125.588781 263.129347 
L 126.839037 263.129347 
L 126.839037 262.60266 
L 127.590383 262.60266 
L 127.695124 261.549288 
L 128.610515 261.549288 
L 128.709321 258.915858 
L 129.002426 258.915858 
L 129.002426 258.389172 
L 129.290685 258.389172 
L 129.290685 257.862486 
L 131.099484 257.862486 
L 131.099484 256.282427 
L 132.019755 256.282427 
L 132.019755 255.755741 
L 133.428175 255.755741 
L 133.428175 255.229055 
L 133.946579 255.229055 
L 133.946579 254.702369 
L 134.591225 254.702369 
L 134.661403 252.595625 
L 134.939326 252.595625 
L 135.00812 251.542253 
L 135.144899 251.542253 
L 135.144899 246.275392 
L 135.548916 246.275392 
L 135.548916 244.168648 
L 136.008736 244.168648 
L 136.008736 243.641962 
L 136.32991 243.641962 
L 136.32991 242.588589 
L 136.582658 242.588589 
L 136.582658 242.061903 
L 136.707671 242.061903 
L 136.707671 241.535217 
L 136.893527 241.535217 
L 136.893527 241.008531 
L 137.077422 241.008531 
L 137.077422 239.955159 
L 150.738632 239.955159 
L 150.738632 238.901787 
L 152.562109 238.901787 
L 152.562109 237.848415 
L 152.687123 237.848415 
L 152.687123 237.321729 
L 155.741666 237.321729 
L 155.741666 236.795043 
L 155.970177 236.795043 
L 155.970177 236.268356 
L 156.317544 236.268356 
L 156.418408 234.688298 
L 156.518691 234.688298 
L 156.518691 234.161612 
L 156.835778 234.161612 
L 156.914157 229.948123 
L 157.1279 229.948123 
L 157.224197 226.788007 
L 157.358125 226.788007 
L 157.453162 223.101204 
L 157.547684 223.101204 
L 157.604152 220.99446 
L 160.233268 220.99446 
L 160.233268 220.467774 
L 161.70483 220.467774 
L 161.70483 219.941088 
L 165.755989 219.941088 
L 165.755989 219.414402 
L 165.98992 219.414402 
L 165.98992 218.36103 
L 166.651096 218.36103 
L 166.695783 216.780971 
L 166.7626 216.780971 
L 166.862349 211.514111 
L 166.884438 211.514111 
L 166.983494 209.934052 
L 167.00543 209.934052 
L 167.114699 206.24725 
L 167.125588 206.24725 
L 167.169078 204.140506 
L 167.309674 204.140506 
L 167.309674 203.613819 
L 169.264103 203.613819 
L 169.264103 203.087133 
L 171.340609 203.087133 
L 171.340609 200.980389 
L 172.142557 200.980389 
L 172.142557 200.453703 
L 172.569992 200.453703 
L 172.60183 199.400331 
L 173.417442 199.400331 
L 173.417442 197.820273 
L 173.666095 197.820273 
L 173.763084 194.660156 
L 173.785389 194.660156 
L 173.866933 188.866609 
L 173.903873 188.866609 
L 174.00689 182.01969 
L 178.508246 182.01969 
L 178.508246 180.966318 
L 181.841098 180.966318 
L 181.901854 176.752829 
L 182.013465 176.752829 
L 182.064383 171.485969 
L 182.151983 171.485969 
L 182.26201 167.799166 
L 182.271148 167.799166 
L 182.271148 166.745794 
L 182.443861 166.745794 
L 182.443861 166.219108 
L 182.601439 166.219108 
L 182.673003 164.112363 
L 182.810829 164.112363 
L 182.88154 154.632014 
L 183.00022 154.632014 
L 183.052709 151.471897 
L 184.965949 151.471897 
L 184.965949 149.891839 
L 185.596261 149.891839 
L 185.667834 147.258409 
L 185.750342 147.258409 
L 185.839908 143.04492 
L 185.88452 143.04492 
L 185.895655 139.884804 
L 185.99924 139.884804 
L 186.10588 138.831432 
L 188.728569 138.831432 
L 188.728569 136.724687 
L 192.03436 136.724687 
L 192.03436 136.198001 
L 192.169529 136.198001 
L 192.169529 135.671315 
L 192.637057 135.671315 
L 192.637057 135.144629 
L 193.129177 135.144629 
L 193.129177 133.564571 
L 193.36529 133.564571 
L 193.36529 133.037885 
L 193.519344 133.037885 
L 193.600635 130.93114 
L 193.726603 130.93114 
L 193.740806 127.771024 
L 193.839906 127.771024 
L 193.893938 124.610907 
L 194.045737 124.610907 
L 194.066652 121.450791 
L 194.375116 121.450791 
L 194.375116 120.924105 
L 194.872226 120.924105 
L 194.892173 119.870733 
L 194.989365 119.870733 
L 195.099157 110.390383 
L 195.199559 110.390383 
L 195.269064 106.703581 
L 195.321012 106.703581 
L 195.364183 105.650209 
L 195.650711 105.650209 
L 195.650711 104.596836 
L 196.156535 104.596836 
L 196.164774 101.963406 
L 196.300154 101.963406 
L 196.389827 96.169859 
L 196.46083 96.169859 
L 196.48915 94.589801 
L 202.623189 94.589801 
L 202.623189 93.536429 
L 203.230989 93.536429 
L 203.230989 92.483056 
L 203.52645 92.483056 
L 203.52645 90.902998 
L 203.884575 90.902998 
L 203.991383 87.742882 
L 204.07793 87.742882 
L 204.131479 84.582765 
L 204.235494 84.582765 
L 204.235494 80.369277 
L 204.417322 80.369277 
L 204.509445 75.102416 
L 204.5324 75.102416 
L 204.5324 74.049044 
L 204.747718 74.049044 
L 204.747718 72.468985 
L 204.870645 72.468985 
L 204.921818 69.308869 
L 204.985263 69.308869 
L 205.062083 66.675439 
L 205.176681 66.675439 
L 205.176681 66.148752 
L 205.333187 66.148752 
L 205.333187 65.622066 
L 205.714843 65.622066 
L 205.721987 62.46195 
L 205.891388 62.46195 
L 205.903173 59.301833 
L 206.084827 59.301833 
L 206.132563 52.9816 
L 206.285368 52.9816 
L 206.285368 52.454914 
L 207.219949 52.454914 
L 207.271217 49.821484 
L 207.349464 49.821484 
L 207.416563 47.71474 
L 207.494162 47.71474 
L 207.589608 44.027937 
L 214.495142 44.027937 
L 214.495142 42.447879 
L 231.39456 42.447879 
L 231.39456 41.921193 
L 249.175213 41.921193 
L 249.175213 41.394507 
L 249.344646 41.394507 
L 249.344646 40.867821 
L 250.687069 40.867821 
L 250.687069 39.287762 
L 251.001251 39.287762 
L 251.070945 37.707704 
L 251.171936 37.707704 
L 251.224403 32.967529 
L 251.284397 32.967529 
L 251.298273 30.334099 
L 338.688 30.334099 
L 338.688 30.334099 
" style="fill:none;stroke:#ff0000;stroke-linecap:square;stroke-width:1.5;"/>
   </g>
   <g id="line2d_43">
    <defs>
     <path d="M 0 -6 
L -5.196152 -3 
L -5.196152 3 
L -0 6 
L 5.196152 3 
L 5.196152 -3 
z
" id="m570ff87310" style="stroke:#ff0000;stroke-linejoin:miter;stroke-width:1.5;"/>
    </defs>
    <g>
     <use style="fill-opacity:0;stroke:#ff0000;stroke-linejoin:miter;stroke-width:1.5;" x="110.131676" xlink:href="#m570ff87310" y="271.029638"/>
     <use style="fill-opacity:0;stroke:#ff0000;stroke-linejoin:miter;stroke-width:1.5;" x="178.508246" xlink:href="#m570ff87310" y="182.01969"/>
     <use style="fill-opacity:0;stroke:#ff0000;stroke-linejoin:miter;stroke-width:1.5;" x="204.50051" xlink:href="#m570ff87310" y="78.262532"/>
     <use style="fill-opacity:0;stroke:#ff0000;stroke-linejoin:miter;stroke-width:1.5;" x="251.298273" xlink:href="#m570ff87310" y="30.334099"/>
     <use style="fill-opacity:0;stroke:#ff0000;stroke-linejoin:miter;stroke-width:1.5;" x="251.298273" xlink:href="#m570ff87310" y="30.334099"/>
     <use style="fill-opacity:0;stroke:#ff0000;stroke-linejoin:miter;stroke-width:1.5;" x="338.688" xlink:href="#m570ff87310" y="30.334099"/>
    </g>
   </g>
   <g id="line2d_44">
    <path style="fill:none;stroke:#ff0000;stroke-linecap:square;stroke-width:1.5;"/>
    <g/>
   </g>
   <g id="line2d_45">
    <defs>
     <path d="M 0 1.5 
C 0.397805 1.5 0.77937 1.341951 1.06066 1.06066 
C 1.341951 0.77937 1.5 0.397805 1.5 0 
C 1.5 -0.397805 1.341951 -0.77937 1.06066 -1.06066 
C 0.77937 -1.341951 0.397805 -1.5 0 -1.5 
C -0.397805 -1.5 -0.77937 -1.341951 -1.06066 -1.06066 
C -1.341951 -0.77937 -1.5 -0.397805 -1.5 0 
C -1.5 0.397805 -1.341951 0.77937 -1.06066 1.06066 
C -0.77937 1.341951 -0.397805 1.5 0 1.5 
z
" id="mca4244054d" style="stroke:#bebebe;"/>
    </defs>
    <g>
     <use style="fill:#bebebe;stroke:#bebebe;" x="266.920971" xlink:href="#mca4244054d" y="30.334099"/>
     <use style="fill:#bebebe;stroke:#bebebe;" x="266.920971" xlink:href="#mca4244054d" y="30.334099"/>
    </g>
   </g>
   <g id="line2d_46">
    <path d="M 38.440992 298.944 
L 38.440992 293.150453 
L 76.759008 293.150453 
L 76.759008 289.463651 
L 80.258561 289.463651 
L 80.258561 288.936964 
L 84.464254 288.936964 
L 84.464254 288.410278 
L 87.850195 288.410278 
L 87.850195 287.356906 
L 89.78989 287.356906 
L 89.78989 285.776848 
L 90.684409 285.776848 
L 90.684409 285.250162 
L 92.34655 285.250162 
L 92.34655 284.723476 
L 94.575872 284.723476 
L 94.575872 284.19679 
L 95.918017 284.19679 
L 95.918017 283.670104 
L 97.755429 283.670104 
L 97.755429 283.143418 
L 101.412804 283.143418 
L 101.412804 282.090045 
L 102.772397 282.090045 
L 102.772397 281.563359 
L 103.203018 281.563359 
L 103.203018 280.509987 
L 103.623262 280.509987 
L 103.623262 279.456615 
L 104.033617 279.456615 
L 104.033617 278.929929 
L 105.209745 278.929929 
L 105.209745 277.876557 
L 106.66386 277.876557 
L 106.66386 277.349871 
L 107.009204 277.349871 
L 107.009204 276.823185 
L 108.326001 276.823185 
L 108.326001 276.296499 
L 116.522527 276.296499 
L 116.522527 275.769812 
L 118.399528 275.769812 
L 118.399528 275.243126 
L 119.768017 275.243126 
L 119.768017 274.71644 
L 124.114161 274.71644 
L 124.114161 274.189754 
L 124.743806 274.189754 
L 124.743806 273.663068 
L 125.351508 273.663068 
L 125.351508 273.136382 
L 125.588781 273.136382 
L 125.588781 272.609696 
L 126.618283 272.609696 
L 126.618283 272.08301 
L 127.902737 272.08301 
L 127.902737 271.556324 
L 128.411207 271.556324 
L 128.411207 271.029638 
L 129.574256 271.029638 
L 129.574256 269.976266 
L 129.945319 269.976266 
L 129.945319 269.449579 
L 130.30865 269.449579 
L 130.30865 266.289463 
L 131.099484 266.289463 
L 131.099484 265.236091 
L 132.262533 265.236091 
L 132.262533 264.709405 
L 132.501978 264.709405 
L 132.501978 264.182719 
L 133.201197 264.182719 
L 133.201197 263.656033 
L 133.72629 263.656033 
L 133.72629 262.60266 
L 133.873458 262.60266 
L 133.873458 262.075974 
L 134.164119 262.075974 
L 134.236034 261.022602 
L 135.144899 261.022602 
L 135.144899 260.495916 
L 136.202149 260.495916 
L 136.202149 259.442544 
L 136.955041 259.442544 
L 136.955041 257.3358 
L 137.198951 257.3358 
L 137.198951 256.282427 
L 138.369812 256.282427 
L 138.369812 255.755741 
L 138.482688 255.755741 
L 138.482688 255.229055 
L 139.990725 255.229055 
L 139.990725 254.702369 
L 140.499195 254.702369 
L 140.499195 254.175683 
L 140.747977 254.175683 
L 140.79731 252.595625 
L 141.33096 252.595625 
L 141.33096 251.015567 
L 141.47371 251.015567 
L 141.47371 250.488881 
L 141.987354 250.488881 
L 141.987354 249.962195 
L 142.441528 249.962195 
L 142.441528 249.435508 
L 143.358447 249.435508 
L 143.44331 248.382136 
L 144.06695 248.382136 
L 144.107744 246.275392 
L 146.107383 246.275392 
L 146.107383 245.748706 
L 146.854132 245.748706 
L 146.854132 245.22202 
L 146.992815 245.22202 
L 146.992815 244.695334 
L 147.4697 244.695334 
L 147.4697 243.115275 
L 148.161434 243.115275 
L 148.161434 242.588589 
L 148.919783 242.588589 
L 148.919783 239.428473 
L 149.823575 239.428473 
L 149.823575 238.901787 
L 151.260066 238.901787 
L 151.314058 237.321729 
L 151.581536 237.321729 
L 151.581536 235.74167 
L 152.334802 235.74167 
L 152.334802 235.214984 
L 152.612222 235.214984 
L 152.612222 234.161612 
L 153.202607 234.161612 
L 153.202607 233.10824 
L 153.466662 233.10824 
L 153.466662 232.581554 
L 164.899235 232.581554 
L 164.899235 232.054868 
L 165.302685 232.054868 
L 165.302685 231.528182 
L 165.637836 231.528182 
L 165.673366 230.47481 
L 166.047915 230.47481 
L 166.08262 228.894751 
L 166.255117 228.894751 
L 166.255117 228.368065 
L 166.795913 228.368065 
L 166.795913 227.841379 
L 167.374185 227.841379 
L 167.481174 225.734635 
L 168.099393 225.734635 
L 168.140524 224.154577 
L 168.425752 224.154577 
L 168.425752 223.627891 
L 168.71633 223.627891 
L 168.71633 223.101204 
L 168.8746 223.101204 
L 168.943394 220.99446 
L 169.48419 220.99446 
L 169.48419 219.941088 
L 169.75779 219.941088 
L 169.75779 219.414402 
L 170.07319 219.414402 
L 170.07319 218.887716 
L 170.508968 218.887716 
L 170.508968 218.36103 
L 170.995266 218.36103 
L 170.995266 217.834344 
L 171.168792 217.834344 
L 171.254912 216.254285 
L 171.687629 216.254285 
L 171.687629 215.727599 
L 175.651014 215.727599 
L 175.651014 215.200913 
L 177.843977 215.200913 
L 177.843977 214.147541 
L 178.268566 214.147541 
L 178.268566 212.040797 
L 178.400227 212.040797 
L 178.474207 209.407366 
L 178.576125 209.407366 
L 178.576125 208.88068 
L 178.694282 208.88068 
L 178.694282 208.353994 
L 178.867253 208.353994 
L 178.883902 203.613819 
L 179.082454 203.613819 
L 179.082454 203.087133 
L 179.289612 203.087133 
L 179.289612 202.033761 
L 179.69669 202.033761 
L 179.781193 198.873645 
L 179.812776 198.873645 
L 179.901953 197.293586 
L 179.933319 197.293586 
L 179.948981 194.660156 
L 180.279789 194.660156 
L 180.290026 192.553412 
L 180.599412 192.553412 
L 180.659634 189.393295 
L 180.819217 189.393295 
L 180.878686 187.286551 
L 180.933022 187.286551 
L 180.977353 184.653121 
L 181.109673 184.653121 
L 181.207046 181.493004 
L 181.255528 181.493004 
L 181.352092 178.859574 
L 181.400174 178.859574 
L 181.443334 177.806202 
L 181.581685 177.806202 
L 181.690637 174.646085 
L 181.761327 174.646085 
L 181.836415 172.539341 
L 181.906518 172.539341 
L 181.906518 172.012655 
L 182.022734 172.012655 
L 182.124367 164.63905 
L 182.170369 164.63905 
L 182.170369 164.112363 
L 182.726484 164.112363 
L 182.832957 160.952247 
L 183.398652 160.952247 
L 183.428598 158.845503 
L 183.700032 158.845503 
L 183.700032 158.318817 
L 183.90087 158.318817 
L 183.90087 157.79213 
L 184.598127 157.79213 
L 184.685842 156.212072 
L 185.01285 156.212072 
L 185.063517 154.632014 
L 185.172149 154.632014 
L 185.172149 154.105328 
L 185.433187 154.105328 
L 185.433187 153.578642 
L 185.566037 153.578642 
L 185.58871 151.998584 
L 189.01326 151.998584 
L 189.01326 150.945211 
L 189.247514 150.945211 
L 189.339123 149.891839 
L 189.617094 149.891839 
L 189.656017 148.311781 
L 189.946679 148.311781 
L 189.95256 147.258409 
L 190.209411 147.258409 
L 190.247037 146.205037 
L 190.479659 146.205037 
L 190.567873 143.571606 
L 190.633035 143.571606 
L 190.726105 140.41149 
L 190.843844 140.41149 
L 190.843844 139.358118 
L 191.087987 139.358118 
L 191.159471 137.778059 
L 191.296121 137.778059 
L 191.312448 136.198001 
L 191.525998 136.198001 
L 191.633136 134.091257 
L 191.750232 134.091257 
L 191.808486 132.511199 
L 191.924415 132.511199 
L 192.018696 127.771024 
L 192.065646 127.771024 
L 192.065646 127.244338 
L 192.190231 127.244338 
L 192.298518 122.504163 
L 192.669797 122.504163 
L 192.710009 120.397419 
L 192.86247 120.397419 
L 192.86247 118.817361 
L 192.983982 118.817361 
L 193.075177 117.237302 
L 193.173234 117.237302 
L 193.265879 115.130558 
L 193.353197 115.130558 
L 193.353197 114.603872 
L 193.752633 114.603872 
L 193.752633 114.077186 
L 193.879859 114.077186 
L 193.936107 112.497128 
L 194.068974 112.497128 
L 194.175467 110.390383 
L 194.260655 110.390383 
L 194.343143 108.810325 
L 194.377398 108.810325 
L 194.459336 106.703581 
L 194.495631 106.703581 
L 194.504692 104.596836 
L 194.649043 104.596836 
L 194.649043 103.016778 
L 194.776607 103.016778 
L 194.86779 101.43672 
L 195.020177 101.43672 
L 195.105722 99.856662 
L 195.134145 99.856662 
L 195.216961 97.223231 
L 195.379268 97.223231 
L 195.396492 94.589801 
L 195.516586 94.589801 
L 195.589099 93.536429 
L 195.66555 93.536429 
L 195.775391 91.429684 
L 195.823754 91.429684 
L 195.823754 89.849626 
L 195.95763 89.849626 
L 196.032486 88.796254 
L 196.082211 88.796254 
L 196.152415 87.742882 
L 196.212071 87.742882 
L 196.289935 86.162824 
L 196.349123 86.162824 
L 196.359308 84.056079 
L 196.472972 84.056079 
L 196.579869 82.476021 
L 196.612012 82.476021 
L 196.612012 81.949335 
L 199.090586 81.949335 
L 199.090586 81.422649 
L 199.220686 81.422649 
L 199.220686 79.842591 
L 199.633974 79.842591 
L 199.633974 79.315904 
L 200.38223 79.315904 
L 200.38223 78.789218 
L 200.696286 78.789218 
L 200.696286 78.262532 
L 201.246487 78.262532 
L 201.356921 77.20916 
L 201.451459 77.20916 
L 201.560607 75.102416 
L 201.697587 75.102416 
L 201.697587 74.049044 
L 201.969837 74.049044 
L 202.027312 68.255497 
L 202.106582 68.255497 
L 202.106582 67.202125 
L 202.381222 67.202125 
L 202.381222 66.148752 
L 202.509067 66.148752 
L 202.586181 65.09538 
L 202.672884 65.09538 
L 202.701218 62.988636 
L 202.825341 62.988636 
L 202.825341 62.46195 
L 202.945796 62.46195 
L 202.945796 61.408578 
L 203.145644 61.408578 
L 203.181484 59.82852 
L 203.326847 59.82852 
L 203.326847 59.301833 
L 203.438472 59.301833 
L 203.438472 58.248461 
L 203.687714 58.248461 
L 203.738472 54.561659 
L 204.001896 54.561659 
L 204.001896 54.034973 
L 209.840991 54.034973 
L 209.840991 53.508287 
L 231.549821 53.508287 
L 231.549821 52.9816 
L 233.72192 52.9816 
L 233.72192 50.34817 
L 236.498438 50.34817 
L 236.498438 49.821484 
L 236.619092 49.821484 
L 236.619092 48.768112 
L 237.15174 48.768112 
L 237.216996 46.134681 
L 237.572849 46.134681 
L 237.572849 45.607995 
L 237.92384 45.607995 
L 237.92384 45.081309 
L 238.163914 45.081309 
L 238.192606 43.501251 
L 248.154203 43.501251 
L 248.154203 42.974565 
L 249.238845 42.974565 
L 249.238845 42.447879 
L 249.770402 42.447879 
L 249.770402 41.921193 
L 250.381289 41.921193 
L 250.381289 39.287762 
L 265.495688 39.287762 
L 265.495688 38.761076 
L 265.906514 38.761076 
L 265.92089 36.654332 
L 266.026256 36.654332 
L 266.026256 35.60096 
L 266.255829 35.60096 
L 266.255829 35.074274 
L 266.445163 35.074274 
L 266.445163 33.494215 
L 266.595417 33.494215 
L 266.595417 32.440843 
L 266.822931 32.440843 
L 266.920971 30.334099 
L 338.688 30.334099 
L 338.688 30.334099 
" style="fill:none;stroke:#bebebe;stroke-linecap:square;stroke-width:1.5;"/>
   </g>
   <g id="line2d_47">
    <defs>
     <path d="M 0 0 
L -6 -0 
M 0 0 
L 3 4.8 
M 0 0 
L 3 -4.8 
" id="mfab477de6b" style="stroke:#bebebe;stroke-width:1.5;"/>
    </defs>
    <g>
     <use style="fill-opacity:0;stroke:#bebebe;stroke-width:1.5;" x="108.326001" xlink:href="#mfab477de6b" y="276.823185"/>
     <use style="fill-opacity:0;stroke:#bebebe;stroke-width:1.5;" x="171.687629" xlink:href="#mfab477de6b" y="216.254285"/>
     <use style="fill-opacity:0;stroke:#bebebe;stroke-width:1.5;" x="204.001896" xlink:href="#mfab477de6b" y="54.561659"/>
     <use style="fill-opacity:0;stroke:#bebebe;stroke-width:1.5;" x="266.920971" xlink:href="#mfab477de6b" y="30.860785"/>
     <use style="fill-opacity:0;stroke:#bebebe;stroke-width:1.5;" x="266.920971" xlink:href="#mfab477de6b" y="30.334099"/>
     <use style="fill-opacity:0;stroke:#bebebe;stroke-width:1.5;" x="338.688" xlink:href="#mfab477de6b" y="30.334099"/>
    </g>
   </g>
   <g id="line2d_48">
    <path style="fill:none;stroke:#bebebe;stroke-linecap:square;stroke-width:1.5;"/>
    <g/>
   </g>
   <g id="line2d_49">
    <defs>
     <path d="M 0 1.5 
C 0.397805 1.5 0.77937 1.341951 1.06066 1.06066 
C 1.341951 0.77937 1.5 0.397805 1.5 0 
C 1.5 -0.397805 1.341951 -0.77937 1.06066 -1.06066 
C 0.77937 -1.341951 0.397805 -1.5 0 -1.5 
C -0.397805 -1.5 -0.77937 -1.341951 -1.06066 -1.06066 
C -1.341951 -0.77937 -1.5 -0.397805 -1.5 0 
C -1.5 0.397805 -1.341951 0.77937 -1.06066 1.06066 
C -0.77937 1.341951 -0.397805 1.5 0 1.5 
z
" id="m57d19bfeb3" style="stroke:#6495ed;"/>
    </defs>
    <g>
     <use style="fill:#6495ed;stroke:#6495ed;" x="250.412339" xlink:href="#m57d19bfeb3" y="30.334099"/>
     <use style="fill:#6495ed;stroke:#6495ed;" x="250.412339" xlink:href="#m57d19bfeb3" y="30.334099"/>
    </g>
   </g>
   <g id="line2d_50">
    <path d="M 38.440992 298.944 
L 38.440992 293.677139 
L 76.759008 293.677139 
L 76.759008 290.517023 
L 80.258561 290.517023 
L 80.258561 289.463651 
L 81.775977 289.463651 
L 81.775977 288.936964 
L 84.464254 288.936964 
L 84.464254 288.410278 
L 87.850195 288.410278 
L 87.850195 287.883592 
L 89.78989 287.883592 
L 89.78989 286.83022 
L 90.684409 286.83022 
L 90.684409 286.303534 
L 92.34655 286.303534 
L 92.34655 285.250162 
L 97.755429 285.250162 
L 97.755429 284.723476 
L 101.412804 284.723476 
L 101.412804 284.19679 
L 103.203018 284.19679 
L 103.203018 283.670104 
L 103.623262 283.670104 
L 103.623262 282.616732 
L 104.033617 282.616732 
L 104.033617 282.090045 
L 105.209745 282.090045 
L 105.209745 281.036673 
L 105.951954 281.036673 
L 105.951954 279.983301 
L 106.66386 279.983301 
L 106.66386 279.456615 
L 107.009204 279.456615 
L 107.009204 278.929929 
L 108.326001 278.929929 
L 108.326001 278.403243 
L 108.640231 278.403243 
L 108.640231 277.876557 
L 113.022974 277.876557 
L 113.022974 277.349871 
L 114.418861 277.349871 
L 114.418861 276.296499 
L 116.914437 276.296499 
L 116.914437 275.769812 
L 118.039942 275.769812 
L 118.039942 275.243126 
L 118.576578 275.243126 
L 118.576578 274.71644 
L 120.571812 274.71644 
L 120.571812 274.189754 
L 121.340187 274.189754 
L 121.340187 273.136382 
L 125.822869 273.136382 
L 125.822869 272.609696 
L 126.729009 272.609696 
L 126.729009 272.08301 
L 126.948374 272.08301 
L 126.948374 271.556324 
L 133.72629 271.556324 
L 133.72629 271.029638 
L 136.008736 271.029638 
L 136.008736 270.502952 
L 137.910857 270.502952 
L 137.910857 269.976266 
L 140.093612 269.976266 
L 140.093612 269.449579 
L 141.47371 269.449579 
L 141.47371 268.922893 
L 142.215919 268.922893 
L 142.215919 268.396207 
L 143.737119 268.396207 
L 143.737119 267.869521 
L 144.390658 267.869521 
L 144.390658 267.342835 
L 144.550287 267.342835 
L 144.550287 266.816149 
L 146.179895 266.816149 
L 146.179895 266.289463 
L 148.031773 266.289463 
L 148.031773 265.762777 
L 151.394733 265.762777 
L 151.394733 265.236091 
L 151.554972 265.236091 
L 151.554972 264.709405 
L 151.68739 264.709405 
L 151.68739 264.182719 
L 153.561699 264.182719 
L 153.561699 263.129347 
L 154.928399 263.129347 
L 155.0376 262.075974 
L 155.059358 262.075974 
L 155.059358 261.549288 
L 158.924708 261.549288 
L 158.924708 261.022602 
L 162.360793 261.022602 
L 162.360793 260.495916 
L 162.517456 260.495916 
L 162.517456 259.96923 
L 163.293895 259.96923 
L 163.293895 259.442544 
L 167.08199 259.442544 
L 167.190782 257.862486 
L 167.975417 257.862486 
L 168.078792 255.755741 
L 168.51645 255.755741 
L 168.51645 255.229055 
L 170.72284 255.229055 
L 170.767069 253.648997 
L 171.306381 253.648997 
L 171.391826 252.068939 
L 171.527673 252.068939 
L 171.612043 250.488881 
L 171.812882 250.488881 
L 171.812882 249.962195 
L 172.474127 249.962195 
L 172.554051 248.908822 
L 179.954198 248.908822 
L 179.980262 247.85545 
L 181.138942 247.85545 
L 181.138942 247.328764 
L 183.10504 247.328764 
L 183.10504 246.802078 
L 185.191477 246.802078 
L 185.233922 245.748706 
L 186.943298 245.748706 
L 187.037386 240.481845 
L 187.072105 240.481845 
L 187.14479 235.74167 
L 187.224052 235.74167 
L 187.278979 234.161612 
L 187.343981 234.161612 
L 187.415544 232.581554 
L 187.466482 232.581554 
L 187.500357 229.948123 
L 188.778963 229.948123 
L 188.778963 229.421437 
L 193.910349 229.421437 
L 193.971171 227.841379 
L 195.057517 227.841379 
L 195.162521 220.99446 
L 195.175602 220.99446 
L 195.210437 215.727599 
L 203.987439 215.727599 
L 204.056989 201.507075 
L 206.545054 201.507075 
L 206.58022 189.393295 
L 206.733662 189.393295 
L 206.840051 179.912946 
L 206.845632 179.912946 
L 206.869055 174.646085 
L 209.320063 174.646085 
L 209.396405 159.372189 
L 210.479614 159.372189 
L 210.56639 141.464862 
L 214.014964 141.464862 
L 214.048228 127.244338 
L 214.678444 127.244338 
L 214.7126 117.237302 
L 223.342572 117.237302 
L 223.360332 103.016778 
L 226.195195 103.016778 
L 226.224243 90.376312 
L 230.298945 90.376312 
L 230.310575 76.155788 
L 231.887615 76.155788 
L 231.930575 72.468985 
L 232.663699 72.468985 
L 232.669031 69.308869 
L 233.951045 69.308869 
L 233.964721 68.255497 
L 234.439494 68.255497 
L 234.510454 58.775147 
L 235.043836 58.775147 
L 235.048931 56.141717 
L 235.307914 56.141717 
L 235.330377 51.928228 
L 236.231225 51.928228 
L 236.241984 48.241426 
L 236.420812 48.241426 
L 236.427363 45.607995 
L 239.377497 45.607995 
L 239.385789 42.447879 
L 240.570611 42.447879 
L 240.576581 39.814448 
L 242.490743 39.814448 
L 242.494645 37.707704 
L 243.701039 37.707704 
L 243.707646 36.654332 
L 244.406212 36.654332 
L 244.406212 36.127646 
L 244.67559 36.127646 
L 244.708971 34.547588 
L 245.006313 34.547588 
L 245.008816 33.494215 
L 245.163029 33.494215 
L 245.172823 32.440843 
L 245.801541 32.440843 
L 245.801541 31.914157 
L 248.354673 31.914157 
L 248.354673 31.387471 
L 249.603345 31.387471 
L 249.603345 30.860785 
L 250.412339 30.860785 
L 250.412339 30.334099 
L 338.688 30.334099 
L 338.688 30.334099 
" style="fill:none;stroke:#6495ed;stroke-linecap:square;stroke-width:1.5;"/>
   </g>
   <g id="line2d_51">
    <defs>
     <path d="M -0 6 
L 6 -6 
L -6 -6 
z
" id="m51a6343fcc" style="stroke:#6495ed;stroke-linejoin:miter;stroke-width:1.5;"/>
    </defs>
    <g>
     <use style="fill-opacity:0;stroke:#6495ed;stroke-linejoin:miter;stroke-width:1.5;" x="136.008736" xlink:href="#m51a6343fcc" y="271.029638"/>
     <use style="fill-opacity:0;stroke:#6495ed;stroke-linejoin:miter;stroke-width:1.5;" x="195.210437" xlink:href="#m51a6343fcc" y="215.727599"/>
     <use style="fill-opacity:0;stroke:#6495ed;stroke-linejoin:miter;stroke-width:1.5;" x="223.360332" xlink:href="#m51a6343fcc" y="103.543464"/>
     <use style="fill-opacity:0;stroke:#6495ed;stroke-linejoin:miter;stroke-width:1.5;" x="250.412339" xlink:href="#m51a6343fcc" y="30.860785"/>
     <use style="fill-opacity:0;stroke:#6495ed;stroke-linejoin:miter;stroke-width:1.5;" x="250.412339" xlink:href="#m51a6343fcc" y="30.334099"/>
     <use style="fill-opacity:0;stroke:#6495ed;stroke-linejoin:miter;stroke-width:1.5;" x="338.688" xlink:href="#m51a6343fcc" y="30.334099"/>
    </g>
   </g>
   <g id="line2d_52">
    <path style="fill:none;stroke:#6495ed;stroke-linecap:square;stroke-width:1.5;"/>
    <g/>
   </g>
   <g id="line2d_53">
    <path clip-path="url(#p640af90818)" d="M 230.505949 76.155788 
" style="fill:none;stroke:#6495ed;stroke-linecap:square;stroke-width:1.5;"/>
    <defs>
     <path d="M -12 12 
L 12 -12 
M -12 -12 
L 12 12 
" id="m68af443049" style="stroke:#6495ed;"/>
    </defs>
    <g clip-path="url(#p640af90818)">
     <use style="fill:#6495ed;stroke:#6495ed;" x="230.505949" xlink:href="#m68af443049" y="76.155788"/>
    </g>
   </g>
   <g id="line2d_54">
    <path d="M 338.688 30.334099 
L 369.60768 293.571802 
" style="fill:none;stroke:#000080;stroke-linecap:square;stroke-width:1.5;"/>
    <g>
     <use style="fill-opacity:0;stroke:#000080;stroke-width:1.5;" x="338.688" xlink:href="#m0cf1073732" y="30.334099"/>
     <use style="fill-opacity:0;stroke:#000080;stroke-width:1.5;" x="369.60768" xlink:href="#m0cf1073732" y="293.571802"/>
    </g>
   </g>
   <g id="line2d_55">
    <path d="M 338.688 30.334099 
L 369.60768 207.616634 
" style="fill:none;stroke:#bebebe;stroke-linecap:square;stroke-width:1.5;"/>
    <g>
     <use style="fill-opacity:0;stroke:#bebebe;stroke-width:1.5;" x="338.688" xlink:href="#mfab477de6b" y="30.334099"/>
     <use style="fill-opacity:0;stroke:#bebebe;stroke-width:1.5;" x="369.60768" xlink:href="#mfab477de6b" y="207.616634"/>
    </g>
   </g>
   <g id="line2d_56">
    <path d="M 338.688 30.334099 
L 369.60768 121.661465 
" style="fill:none;stroke:#ff0000;stroke-linecap:square;stroke-width:1.5;"/>
    <g>
     <use style="fill-opacity:0;stroke:#ff0000;stroke-linejoin:miter;stroke-width:1.5;" x="338.688" xlink:href="#m570ff87310" y="30.334099"/>
     <use style="fill-opacity:0;stroke:#ff0000;stroke-linejoin:miter;stroke-width:1.5;" x="369.60768" xlink:href="#m570ff87310" y="121.661465"/>
    </g>
   </g>
   <g id="line2d_57">
    <path d="M 338.688 30.334099 
L 369.60768 35.706297 
" style="fill:none;stroke:#6495ed;stroke-linecap:square;stroke-width:1.5;"/>
    <g>
     <use style="fill-opacity:0;stroke:#6495ed;stroke-linejoin:miter;stroke-width:1.5;" x="338.688" xlink:href="#m51a6343fcc" y="30.334099"/>
     <use style="fill-opacity:0;stroke:#6495ed;stroke-linejoin:miter;stroke-width:1.5;" x="369.60768" xlink:href="#m51a6343fcc" y="35.706297"/>
    </g>
   </g>
   <g id="line2d_58">
    <path d="M 338.688 298.944 
L 338.688 30.334099 
" style="fill:none;stroke:#000000;stroke-linecap:square;stroke-width:1.5;"/>
   </g>
   <g id="patch_3">
    <path d="M 57.6 298.944 
L 57.6 27.648 
" style="fill:none;stroke:#000000;stroke-linecap:square;stroke-linejoin:miter;stroke-width:0.8;"/>
   </g>
   <g id="patch_4">
    <path d="M 338.688 298.944 
L 338.688 27.648 
" style="fill:none;stroke:#000000;stroke-linecap:square;stroke-linejoin:miter;stroke-width:0.8;"/>
   </g>
   <g id="patch_5">
    <path d="M 57.6 298.944 
L 338.688 298.944 
" style="fill:none;stroke:#000000;stroke-linecap:square;stroke-linejoin:miter;stroke-width:0.8;"/>
   </g>
   <g id="patch_6">
    <path d="M 57.6 27.648 
L 338.688 27.648 
" style="fill:none;stroke:#000000;stroke-linecap:square;stroke-linejoin:miter;stroke-width:0.8;"/>
   </g>
   <g id="text_13">
    <!-- CMA-ES  2 -->
    <defs>
     <path d="M 64.40625 67.28125 
L 64.40625 56.890625 
Q 59.421875 61.53125 53.78125 63.8125 
Q 48.140625 66.109375 41.796875 66.109375 
Q 29.296875 66.109375 22.65625 58.46875 
Q 16.015625 50.828125 16.015625 36.375 
Q 16.015625 21.96875 22.65625 14.328125 
Q 29.296875 6.6875 41.796875 6.6875 
Q 48.140625 6.6875 53.78125 8.984375 
Q 59.421875 11.28125 64.40625 15.921875 
L 64.40625 5.609375 
Q 59.234375 2.09375 53.4375 0.328125 
Q 47.65625 -1.421875 41.21875 -1.421875 
Q 24.65625 -1.421875 15.125 8.703125 
Q 5.609375 18.84375 5.609375 36.375 
Q 5.609375 53.953125 15.125 64.078125 
Q 24.65625 74.21875 41.21875 74.21875 
Q 47.75 74.21875 53.53125 72.484375 
Q 59.328125 70.75 64.40625 67.28125 
z
" id="DejaVuSans-67"/>
     <path d="M 9.8125 72.90625 
L 24.515625 72.90625 
L 43.109375 23.296875 
L 61.8125 72.90625 
L 76.515625 72.90625 
L 76.515625 0 
L 66.890625 0 
L 66.890625 64.015625 
L 48.09375 14.015625 
L 38.1875 14.015625 
L 19.390625 64.015625 
L 19.390625 0 
L 9.8125 0 
z
" id="DejaVuSans-77"/>
     <path d="M 34.1875 63.1875 
L 20.796875 26.90625 
L 47.609375 26.90625 
z
M 28.609375 72.90625 
L 39.796875 72.90625 
L 67.578125 0 
L 57.328125 0 
L 50.6875 18.703125 
L 17.828125 18.703125 
L 11.1875 0 
L 0.78125 0 
z
" id="DejaVuSans-65"/>
     <path d="M 9.8125 72.90625 
L 55.90625 72.90625 
L 55.90625 64.59375 
L 19.671875 64.59375 
L 19.671875 43.015625 
L 54.390625 43.015625 
L 54.390625 34.71875 
L 19.671875 34.71875 
L 19.671875 8.296875 
L 56.78125 8.296875 
L 56.78125 0 
L 9.8125 0 
z
" id="DejaVuSans-69"/>
     <path d="M 53.515625 70.515625 
L 53.515625 60.890625 
Q 47.90625 63.578125 42.921875 64.890625 
Q 37.9375 66.21875 33.296875 66.21875 
Q 25.25 66.21875 20.875 63.09375 
Q 16.5 59.96875 16.5 54.203125 
Q 16.5 49.359375 19.40625 46.890625 
Q 22.3125 44.4375 30.421875 42.921875 
L 36.375 41.703125 
Q 47.40625 39.59375 52.65625 34.296875 
Q 57.90625 29 57.90625 20.125 
Q 57.90625 9.515625 50.796875 4.046875 
Q 43.703125 -1.421875 29.984375 -1.421875 
Q 24.8125 -1.421875 18.96875 -0.25 
Q 13.140625 0.921875 6.890625 3.21875 
L 6.890625 13.375 
Q 12.890625 10.015625 18.65625 8.296875 
Q 24.421875 6.59375 29.984375 6.59375 
Q 38.421875 6.59375 43.015625 9.90625 
Q 47.609375 13.234375 47.609375 19.390625 
Q 47.609375 24.75 44.3125 27.78125 
Q 41.015625 30.8125 33.5 32.328125 
L 27.484375 33.5 
Q 16.453125 35.6875 11.515625 40.375 
Q 6.59375 45.0625 6.59375 53.421875 
Q 6.59375 63.09375 13.40625 68.65625 
Q 20.21875 74.21875 32.171875 74.21875 
Q 37.3125 74.21875 42.625 73.28125 
Q 47.953125 72.359375 53.515625 70.515625 
z
" id="DejaVuSans-83"/>
    </defs>
    <g transform="translate(375.22944 298.262739)scale(0.17 -0.17)">
     <use xlink:href="#DejaVuSans-67"/>
     <use x="69.824219" xlink:href="#DejaVuSans-77"/>
     <use x="156.103516" xlink:href="#DejaVuSans-65"/>
     <use x="224.480469" xlink:href="#DejaVuSans-45"/>
     <use x="260.564453" xlink:href="#DejaVuSans-69"/>
     <use x="323.748047" xlink:href="#DejaVuSans-83"/>
     <use x="387.224609" xlink:href="#DejaVuSans-32"/>
     <use x="419.011719" xlink:href="#DejaVuSans-32"/>
     <use x="450.798828" xlink:href="#DejaVuSans-50"/>
    </g>
   </g>
   <g id="text_14">
    <!-- SLSQP+CMA -->
    <defs>
     <path d="M 9.8125 72.90625 
L 19.671875 72.90625 
L 19.671875 8.296875 
L 55.171875 8.296875 
L 55.171875 0 
L 9.8125 0 
z
" id="DejaVuSans-76"/>
     <path d="M 39.40625 66.21875 
Q 28.65625 66.21875 22.328125 58.203125 
Q 16.015625 50.203125 16.015625 36.375 
Q 16.015625 22.609375 22.328125 14.59375 
Q 28.65625 6.59375 39.40625 6.59375 
Q 50.140625 6.59375 56.421875 14.59375 
Q 62.703125 22.609375 62.703125 36.375 
Q 62.703125 50.203125 56.421875 58.203125 
Q 50.140625 66.21875 39.40625 66.21875 
z
M 53.21875 1.3125 
L 66.21875 -12.890625 
L 54.296875 -12.890625 
L 43.5 -1.21875 
Q 41.890625 -1.3125 41.03125 -1.359375 
Q 40.1875 -1.421875 39.40625 -1.421875 
Q 24.03125 -1.421875 14.8125 8.859375 
Q 5.609375 19.140625 5.609375 36.375 
Q 5.609375 53.65625 14.8125 63.9375 
Q 24.03125 74.21875 39.40625 74.21875 
Q 54.734375 74.21875 63.90625 63.9375 
Q 73.09375 53.65625 73.09375 36.375 
Q 73.09375 23.6875 67.984375 14.640625 
Q 62.890625 5.609375 53.21875 1.3125 
z
" id="DejaVuSans-81"/>
     <path d="M 19.671875 64.796875 
L 19.671875 37.40625 
L 32.078125 37.40625 
Q 38.96875 37.40625 42.71875 40.96875 
Q 46.484375 44.53125 46.484375 51.125 
Q 46.484375 57.671875 42.71875 61.234375 
Q 38.96875 64.796875 32.078125 64.796875 
z
M 9.8125 72.90625 
L 32.078125 72.90625 
Q 44.34375 72.90625 50.609375 67.359375 
Q 56.890625 61.8125 56.890625 51.125 
Q 56.890625 40.328125 50.609375 34.8125 
Q 44.34375 29.296875 32.078125 29.296875 
L 19.671875 29.296875 
L 19.671875 0 
L 9.8125 0 
z
" id="DejaVuSans-80"/>
     <path d="M 46 62.703125 
L 46 35.5 
L 73.1875 35.5 
L 73.1875 27.203125 
L 46 27.203125 
L 46 0 
L 37.796875 0 
L 37.796875 27.203125 
L 10.59375 27.203125 
L 10.59375 35.5 
L 37.796875 35.5 
L 37.796875 62.703125 
z
" id="DejaVuSans-43"/>
    </defs>
    <g transform="translate(375.22944 212.307571)scale(0.17 -0.17)">
     <use xlink:href="#DejaVuSans-83"/>
     <use x="63.476562" xlink:href="#DejaVuSans-76"/>
     <use x="119.189453" xlink:href="#DejaVuSans-83"/>
     <use x="182.666016" xlink:href="#DejaVuSans-81"/>
     <use x="261.376953" xlink:href="#DejaVuSans-80"/>
     <use x="321.679688" xlink:href="#DejaVuSans-43"/>
     <use x="405.46875" xlink:href="#DejaVuSans-67"/>
     <use x="475.292969" xlink:href="#DejaVuSans-77"/>
     <use x="561.572266" xlink:href="#DejaVuSans-65"/>
    </g>
   </g>
   <g id="text_15">
    <!-- lq-CMA-ES -->
    <defs>
     <path d="M 14.796875 27.296875 
Q 14.796875 17.390625 18.875 11.75 
Q 22.953125 6.109375 30.078125 6.109375 
Q 37.203125 6.109375 41.296875 11.75 
Q 45.40625 17.390625 45.40625 27.296875 
Q 45.40625 37.203125 41.296875 42.84375 
Q 37.203125 48.484375 30.078125 48.484375 
Q 22.953125 48.484375 18.875 42.84375 
Q 14.796875 37.203125 14.796875 27.296875 
z
M 45.40625 8.203125 
Q 42.578125 3.328125 38.25 0.953125 
Q 33.9375 -1.421875 27.875 -1.421875 
Q 17.96875 -1.421875 11.734375 6.484375 
Q 5.515625 14.40625 5.515625 27.296875 
Q 5.515625 40.1875 11.734375 48.09375 
Q 17.96875 56 27.875 56 
Q 33.9375 56 38.25 53.625 
Q 42.578125 51.265625 45.40625 46.390625 
L 45.40625 54.6875 
L 54.390625 54.6875 
L 54.390625 -20.796875 
L 45.40625 -20.796875 
z
" id="DejaVuSans-113"/>
    </defs>
    <g transform="translate(375.22944 126.352403)scale(0.17 -0.17)">
     <use xlink:href="#DejaVuSans-108"/>
     <use x="27.783203" xlink:href="#DejaVuSans-113"/>
     <use x="91.259766" xlink:href="#DejaVuSans-45"/>
     <use x="127.34375" xlink:href="#DejaVuSans-67"/>
     <use x="197.167969" xlink:href="#DejaVuSans-77"/>
     <use x="283.447266" xlink:href="#DejaVuSans-65"/>
     <use x="351.824219" xlink:href="#DejaVuSans-45"/>
     <use x="387.908203" xlink:href="#DejaVuSans-69"/>
     <use x="451.091797" xlink:href="#DejaVuSans-83"/>
    </g>
   </g>
   <g id="text_16">
    <!-- SLSQP-11  -->
    <g transform="translate(375.22944 40.397235)scale(0.17 -0.17)">
     <use xlink:href="#DejaVuSans-83"/>
     <use x="63.476562" xlink:href="#DejaVuSans-76"/>
     <use x="119.189453" xlink:href="#DejaVuSans-83"/>
     <use x="182.666016" xlink:href="#DejaVuSans-81"/>
     <use x="261.376953" xlink:href="#DejaVuSans-80"/>
     <use x="321.648438" xlink:href="#DejaVuSans-45"/>
     <use x="357.732422" xlink:href="#DejaVuSans-49"/>
     <use x="421.355469" xlink:href="#DejaVuSans-49"/>
     <use x="484.978516" xlink:href="#DejaVuSans-32"/>
    </g>
   </g>
   <g id="text_17">
    <!-- bbob f3, 3-D -->
    <defs>
     <path d="M 48.6875 27.296875 
Q 48.6875 37.203125 44.609375 42.84375 
Q 40.53125 48.484375 33.40625 48.484375 
Q 26.265625 48.484375 22.1875 42.84375 
Q 18.109375 37.203125 18.109375 27.296875 
Q 18.109375 17.390625 22.1875 11.75 
Q 26.265625 6.109375 33.40625 6.109375 
Q 40.53125 6.109375 44.609375 11.75 
Q 48.6875 17.390625 48.6875 27.296875 
z
M 18.109375 46.390625 
Q 20.953125 51.265625 25.265625 53.625 
Q 29.59375 56 35.59375 56 
Q 45.5625 56 51.78125 48.09375 
Q 58.015625 40.1875 58.015625 27.296875 
Q 58.015625 14.40625 51.78125 6.484375 
Q 45.5625 -1.421875 35.59375 -1.421875 
Q 29.59375 -1.421875 25.265625 0.953125 
Q 20.953125 3.328125 18.109375 8.203125 
L 18.109375 0 
L 9.078125 0 
L 9.078125 75.984375 
L 18.109375 75.984375 
z
" id="DejaVuSans-98"/>
     <path d="M 40.578125 39.3125 
Q 47.65625 37.796875 51.625 33 
Q 55.609375 28.21875 55.609375 21.1875 
Q 55.609375 10.40625 48.1875 4.484375 
Q 40.765625 -1.421875 27.09375 -1.421875 
Q 22.515625 -1.421875 17.65625 -0.515625 
Q 12.796875 0.390625 7.625 2.203125 
L 7.625 11.71875 
Q 11.71875 9.328125 16.59375 8.109375 
Q 21.484375 6.890625 26.8125 6.890625 
Q 36.078125 6.890625 40.9375 10.546875 
Q 45.796875 14.203125 45.796875 21.1875 
Q 45.796875 27.640625 41.28125 31.265625 
Q 36.765625 34.90625 28.71875 34.90625 
L 20.21875 34.90625 
L 20.21875 43.015625 
L 29.109375 43.015625 
Q 36.375 43.015625 40.234375 45.921875 
Q 44.09375 48.828125 44.09375 54.296875 
Q 44.09375 59.90625 40.109375 62.90625 
Q 36.140625 65.921875 28.71875 65.921875 
Q 24.65625 65.921875 20.015625 65.03125 
Q 15.375 64.15625 9.8125 62.3125 
L 9.8125 71.09375 
Q 15.4375 72.65625 20.34375 73.4375 
Q 25.25 74.21875 29.59375 74.21875 
Q 40.828125 74.21875 47.359375 69.109375 
Q 53.90625 64.015625 53.90625 55.328125 
Q 53.90625 49.265625 50.4375 45.09375 
Q 46.96875 40.921875 40.578125 39.3125 
z
" id="DejaVuSans-51"/>
     <path d="M 19.671875 64.796875 
L 19.671875 8.109375 
L 31.59375 8.109375 
Q 46.6875 8.109375 53.6875 14.9375 
Q 60.6875 21.78125 60.6875 36.53125 
Q 60.6875 51.171875 53.6875 57.984375 
Q 46.6875 64.796875 31.59375 64.796875 
z
M 9.8125 72.90625 
L 30.078125 72.90625 
Q 51.265625 72.90625 61.171875 64.09375 
Q 71.09375 55.28125 71.09375 36.53125 
Q 71.09375 17.671875 61.125 8.828125 
Q 51.171875 0 30.078125 0 
L 9.8125 0 
z
" id="DejaVuSans-68"/>
    </defs>
    <g transform="translate(60.41088 38.111366)scale(0.102 -0.102)">
     <use xlink:href="#DejaVuSans-98"/>
     <use x="63.476562" xlink:href="#DejaVuSans-98"/>
     <use x="126.953125" xlink:href="#DejaVuSans-111"/>
     <use x="188.134766" xlink:href="#DejaVuSans-98"/>
     <use x="251.611328" xlink:href="#DejaVuSans-32"/>
     <use x="283.398438" xlink:href="#DejaVuSans-102"/>
     <use x="318.603516" xlink:href="#DejaVuSans-51"/>
     <use x="382.226562" xlink:href="#DejaVuSans-44"/>
     <use x="414.013672" xlink:href="#DejaVuSans-32"/>
     <use x="445.800781" xlink:href="#DejaVuSans-51"/>
     <use x="509.423828" xlink:href="#DejaVuSans-45"/>
     <use x="545.507812" xlink:href="#DejaVuSans-68"/>
    </g>
    <!-- 51 targets: 100..1e-08 -->
    <defs>
     <path d="M 10.796875 72.90625 
L 49.515625 72.90625 
L 49.515625 64.59375 
L 19.828125 64.59375 
L 19.828125 46.734375 
Q 21.96875 47.46875 24.109375 47.828125 
Q 26.265625 48.1875 28.421875 48.1875 
Q 40.625 48.1875 47.75 41.5 
Q 54.890625 34.8125 54.890625 23.390625 
Q 54.890625 11.625 47.5625 5.09375 
Q 40.234375 -1.421875 26.90625 -1.421875 
Q 22.3125 -1.421875 17.546875 -0.640625 
Q 12.796875 0.140625 7.71875 1.703125 
L 7.71875 11.625 
Q 12.109375 9.234375 16.796875 8.0625 
Q 21.484375 6.890625 26.703125 6.890625 
Q 35.15625 6.890625 40.078125 11.328125 
Q 45.015625 15.765625 45.015625 23.390625 
Q 45.015625 31 40.078125 35.4375 
Q 35.15625 39.890625 26.703125 39.890625 
Q 22.75 39.890625 18.8125 39.015625 
Q 14.890625 38.140625 10.796875 36.28125 
z
" id="DejaVuSans-53"/>
     <path d="M 11.71875 12.40625 
L 22.015625 12.40625 
L 22.015625 0 
L 11.71875 0 
z
M 11.71875 51.703125 
L 22.015625 51.703125 
L 22.015625 39.3125 
L 11.71875 39.3125 
z
" id="DejaVuSans-58"/>
    </defs>
    <g transform="translate(60.41088 49.533135)scale(0.102 -0.102)">
     <use xlink:href="#DejaVuSans-53"/>
     <use x="63.623047" xlink:href="#DejaVuSans-49"/>
     <use x="127.246094" xlink:href="#DejaVuSans-32"/>
     <use x="159.033203" xlink:href="#DejaVuSans-116"/>
     <use x="198.242188" xlink:href="#DejaVuSans-97"/>
     <use x="259.521484" xlink:href="#DejaVuSans-114"/>
     <use x="300.619141" xlink:href="#DejaVuSans-103"/>
     <use x="364.095703" xlink:href="#DejaVuSans-101"/>
     <use x="425.619141" xlink:href="#DejaVuSans-116"/>
     <use x="464.828125" xlink:href="#DejaVuSans-115"/>
     <use x="516.927734" xlink:href="#DejaVuSans-58"/>
     <use x="550.619141" xlink:href="#DejaVuSans-32"/>
     <use x="582.40625" xlink:href="#DejaVuSans-49"/>
     <use x="646.029297" xlink:href="#DejaVuSans-48"/>
     <use x="709.652344" xlink:href="#DejaVuSans-48"/>
     <use x="773.275391" xlink:href="#DejaVuSans-46"/>
     <use x="805.0625" xlink:href="#DejaVuSans-46"/>
     <use x="836.849609" xlink:href="#DejaVuSans-49"/>
     <use x="900.472656" xlink:href="#DejaVuSans-101"/>
     <use x="961.996094" xlink:href="#DejaVuSans-45"/>
     <use x="998.080078" xlink:href="#DejaVuSans-48"/>
     <use x="1061.703125" xlink:href="#DejaVuSans-56"/>
    </g>
    <!-- 15 instances -->
    <g transform="translate(60.41088 60.954904)scale(0.102 -0.102)">
     <use xlink:href="#DejaVuSans-49"/>
     <use x="63.623047" xlink:href="#DejaVuSans-53"/>
     <use x="127.246094" xlink:href="#DejaVuSans-32"/>
     <use x="159.033203" xlink:href="#DejaVuSans-105"/>
     <use x="186.816406" xlink:href="#DejaVuSans-110"/>
     <use x="250.195312" xlink:href="#DejaVuSans-115"/>
     <use x="302.294922" xlink:href="#DejaVuSans-116"/>
     <use x="341.503906" xlink:href="#DejaVuSans-97"/>
     <use x="402.783203" xlink:href="#DejaVuSans-110"/>
     <use x="466.162109" xlink:href="#DejaVuSans-99"/>
     <use x="521.142578" xlink:href="#DejaVuSans-101"/>
     <use x="582.666016" xlink:href="#DejaVuSans-115"/>
    </g>
   </g>
   <g id="text_18">
    <!-- v2.3.2 -->
    <g style="fill:#808080;" transform="translate(182.46275 294.151352)scale(0.1 -0.1)">
     <use xlink:href="#DejaVuSans-118"/>
     <use x="59.179688" xlink:href="#DejaVuSans-50"/>
     <use x="122.802734" xlink:href="#DejaVuSans-46"/>
     <use x="154.589844" xlink:href="#DejaVuSans-51"/>
     <use x="218.212891" xlink:href="#DejaVuSans-46"/>
     <use x="250" xlink:href="#DejaVuSans-50"/>
    </g>
   </g>
   <g id="text_19">
    <!-- 3 Rastrigin separable -->
    <defs>
     <path d="M 44.390625 34.1875 
Q 47.5625 33.109375 50.5625 29.59375 
Q 53.5625 26.078125 56.59375 19.921875 
L 66.609375 0 
L 56 0 
L 46.6875 18.703125 
Q 43.0625 26.03125 39.671875 28.421875 
Q 36.28125 30.8125 30.421875 30.8125 
L 19.671875 30.8125 
L 19.671875 0 
L 9.8125 0 
L 9.8125 72.90625 
L 32.078125 72.90625 
Q 44.578125 72.90625 50.734375 67.671875 
Q 56.890625 62.453125 56.890625 51.90625 
Q 56.890625 45.015625 53.6875 40.46875 
Q 50.484375 35.9375 44.390625 34.1875 
z
M 19.671875 64.796875 
L 19.671875 38.921875 
L 32.078125 38.921875 
Q 39.203125 38.921875 42.84375 42.21875 
Q 46.484375 45.515625 46.484375 51.90625 
Q 46.484375 58.296875 42.84375 61.546875 
Q 39.203125 64.796875 32.078125 64.796875 
z
" id="DejaVuSans-82"/>
    </defs>
    <g transform="translate(91.511187 21.648)scale(0.2 -0.2)">
     <use xlink:href="#DejaVuSans-51"/>
     <use x="63.623047" xlink:href="#DejaVuSans-32"/>
     <use x="95.410156" xlink:href="#DejaVuSans-82"/>
     <use x="164.861328" xlink:href="#DejaVuSans-97"/>
     <use x="226.140625" xlink:href="#DejaVuSans-115"/>
     <use x="278.240234" xlink:href="#DejaVuSans-116"/>
     <use x="317.449219" xlink:href="#DejaVuSans-114"/>
     <use x="358.5625" xlink:href="#DejaVuSans-105"/>
     <use x="386.345703" xlink:href="#DejaVuSans-103"/>
     <use x="449.822266" xlink:href="#DejaVuSans-105"/>
     <use x="477.605469" xlink:href="#DejaVuSans-110"/>
     <use x="540.984375" xlink:href="#DejaVuSans-32"/>
     <use x="572.771484" xlink:href="#DejaVuSans-115"/>
     <use x="624.871094" xlink:href="#DejaVuSans-101"/>
     <use x="686.394531" xlink:href="#DejaVuSans-112"/>
     <use x="749.871094" xlink:href="#DejaVuSans-97"/>
     <use x="811.150391" xlink:href="#DejaVuSans-114"/>
     <use x="852.263672" xlink:href="#DejaVuSans-97"/>
     <use x="913.542969" xlink:href="#DejaVuSans-98"/>
     <use x="977.019531" xlink:href="#DejaVuSans-108"/>
     <use x="1004.802734" xlink:href="#DejaVuSans-101"/>
    </g>
   </g>
  </g>
 </g>
 <defs>
  <clipPath id="p640af90818">
   <rect height="271.296" width="281.088" x="57.6" y="27.648"/>
  </clipPath>
 </defs>
</svg>
