<?xml version="1.0" encoding="utf-8" standalone="no"?>
<!DOCTYPE svg PUBLIC "-//W3C//DTD SVG 1.1//EN"
  "http://www.w3.org/Graphics/SVG/1.1/DTD/svg11.dtd">
<!-- Created with matplotlib (https://matplotlib.org/) -->
<svg height="345.6pt" version="1.1" viewBox="0 0 460.8 345.6" width="460.8pt" xmlns="http://www.w3.org/2000/svg" xmlns:xlink="http://www.w3.org/1999/xlink">
 <defs>
  <style type="text/css">
*{stroke-linecap:butt;stroke-linejoin:round;}
  </style>
 </defs>
 <g id="figure_1">
  <g id="patch_1">
   <path d="M 0 345.6 
L 460.8 345.6 
L 460.8 0 
L 0 0 
z
" style="fill:#ffffff;"/>
  </g>
  <g id="axes_1">
   <g id="patch_2">
    <path d="M 57.6 298.944 
L 338.688 298.944 
L 338.688 27.648 
L 57.6 27.648 
z
" style="fill:#ffffff;"/>
   </g>
   <g id="matplotlib.axis_1">
    <g id="xtick_1">
     <g id="line2d_1">
      <path clip-path="url(#p5e7ae5b1bb)" d="M 57.6 298.944 
L 57.6 27.648 
" style="fill:none;stroke:#b0b0b0;stroke-linecap:square;stroke-width:0.8;"/>
     </g>
     <g id="line2d_2">
      <defs>
       <path d="M 0 0 
L 0 3.5 
" id="m681557a322" style="stroke:#000000;stroke-width:0.8;"/>
      </defs>
      <g>
       <use style="stroke:#000000;stroke-width:0.8;" x="57.6" xlink:href="#m681557a322" y="298.944"/>
      </g>
     </g>
     <g id="text_1">
      <!-- 0 -->
      <defs>
       <path d="M 31.78125 66.40625 
Q 24.171875 66.40625 20.328125 58.90625 
Q 16.5 51.421875 16.5 36.375 
Q 16.5 21.390625 20.328125 13.890625 
Q 24.171875 6.390625 31.78125 6.390625 
Q 39.453125 6.390625 43.28125 13.890625 
Q 47.125 21.390625 47.125 36.375 
Q 47.125 51.421875 43.28125 58.90625 
Q 39.453125 66.40625 31.78125 66.40625 
z
M 31.78125 74.21875 
Q 44.046875 74.21875 50.515625 64.515625 
Q 56.984375 54.828125 56.984375 36.375 
Q 56.984375 17.96875 50.515625 8.265625 
Q 44.046875 -1.421875 31.78125 -1.421875 
Q 19.53125 -1.421875 13.0625 8.265625 
Q 6.59375 17.96875 6.59375 36.375 
Q 6.59375 54.828125 13.0625 64.515625 
Q 19.53125 74.21875 31.78125 74.21875 
z
" id="DejaVuSans-48"/>
      </defs>
      <g transform="translate(51.2375 321.140875)scale(0.2 -0.2)">
       <use xlink:href="#DejaVuSans-48"/>
      </g>
     </g>
    </g>
    <g id="xtick_2">
     <g id="line2d_3">
      <path clip-path="url(#p5e7ae5b1bb)" d="M 137.910857 298.944 
L 137.910857 27.648 
" style="fill:none;stroke:#b0b0b0;stroke-linecap:square;stroke-width:0.8;"/>
     </g>
     <g id="line2d_4">
      <g>
       <use style="stroke:#000000;stroke-width:0.8;" x="137.910857" xlink:href="#m681557a322" y="298.944"/>
      </g>
     </g>
     <g id="text_2">
      <!-- 2 -->
      <defs>
       <path d="M 19.1875 8.296875 
L 53.609375 8.296875 
L 53.609375 0 
L 7.328125 0 
L 7.328125 8.296875 
Q 12.9375 14.109375 22.625 23.890625 
Q 32.328125 33.6875 34.8125 36.53125 
Q 39.546875 41.84375 41.421875 45.53125 
Q 43.3125 49.21875 43.3125 52.78125 
Q 43.3125 58.59375 39.234375 62.25 
Q 35.15625 65.921875 28.609375 65.921875 
Q 23.96875 65.921875 18.8125 64.3125 
Q 13.671875 62.703125 7.8125 59.421875 
L 7.8125 69.390625 
Q 13.765625 71.78125 18.9375 73 
Q 24.125 74.21875 28.421875 74.21875 
Q 39.75 74.21875 46.484375 68.546875 
Q 53.21875 62.890625 53.21875 53.421875 
Q 53.21875 48.921875 51.53125 44.890625 
Q 49.859375 40.875 45.40625 35.40625 
Q 44.1875 33.984375 37.640625 27.21875 
Q 31.109375 20.453125 19.1875 8.296875 
z
" id="DejaVuSans-50"/>
      </defs>
      <g transform="translate(131.548357 321.140875)scale(0.2 -0.2)">
       <use xlink:href="#DejaVuSans-50"/>
      </g>
     </g>
    </g>
    <g id="xtick_3">
     <g id="line2d_5">
      <path clip-path="url(#p5e7ae5b1bb)" d="M 218.221714 298.944 
L 218.221714 27.648 
" style="fill:none;stroke:#b0b0b0;stroke-linecap:square;stroke-width:0.8;"/>
     </g>
     <g id="line2d_6">
      <g>
       <use style="stroke:#000000;stroke-width:0.8;" x="218.221714" xlink:href="#m681557a322" y="298.944"/>
      </g>
     </g>
     <g id="text_3">
      <!-- 4 -->
      <defs>
       <path d="M 37.796875 64.3125 
L 12.890625 25.390625 
L 37.796875 25.390625 
z
M 35.203125 72.90625 
L 47.609375 72.90625 
L 47.609375 25.390625 
L 58.015625 25.390625 
L 58.015625 17.1875 
L 47.609375 17.1875 
L 47.609375 0 
L 37.796875 0 
L 37.796875 17.1875 
L 4.890625 17.1875 
L 4.890625 26.703125 
z
" id="DejaVuSans-52"/>
      </defs>
      <g transform="translate(211.859214 321.140875)scale(0.2 -0.2)">
       <use xlink:href="#DejaVuSans-52"/>
      </g>
     </g>
    </g>
    <g id="xtick_4">
     <g id="line2d_7">
      <path clip-path="url(#p5e7ae5b1bb)" d="M 298.532571 298.944 
L 298.532571 27.648 
" style="fill:none;stroke:#b0b0b0;stroke-linecap:square;stroke-width:0.8;"/>
     </g>
     <g id="line2d_8">
      <g>
       <use style="stroke:#000000;stroke-width:0.8;" x="298.532571" xlink:href="#m681557a322" y="298.944"/>
      </g>
     </g>
     <g id="text_4">
      <!-- 6 -->
      <defs>
       <path d="M 33.015625 40.375 
Q 26.375 40.375 22.484375 35.828125 
Q 18.609375 31.296875 18.609375 23.390625 
Q 18.609375 15.53125 22.484375 10.953125 
Q 26.375 6.390625 33.015625 6.390625 
Q 39.65625 6.390625 43.53125 10.953125 
Q 47.40625 15.53125 47.40625 23.390625 
Q 47.40625 31.296875 43.53125 35.828125 
Q 39.65625 40.375 33.015625 40.375 
z
M 52.59375 71.296875 
L 52.59375 62.3125 
Q 48.875 64.0625 45.09375 64.984375 
Q 41.3125 65.921875 37.59375 65.921875 
Q 27.828125 65.921875 22.671875 59.328125 
Q 17.53125 52.734375 16.796875 39.40625 
Q 19.671875 43.65625 24.015625 45.921875 
Q 28.375 48.1875 33.59375 48.1875 
Q 44.578125 48.1875 50.953125 41.515625 
Q 57.328125 34.859375 57.328125 23.390625 
Q 57.328125 12.15625 50.6875 5.359375 
Q 44.046875 -1.421875 33.015625 -1.421875 
Q 20.359375 -1.421875 13.671875 8.265625 
Q 6.984375 17.96875 6.984375 36.375 
Q 6.984375 53.65625 15.1875 63.9375 
Q 23.390625 74.21875 37.203125 74.21875 
Q 40.921875 74.21875 44.703125 73.484375 
Q 48.484375 72.75 52.59375 71.296875 
z
" id="DejaVuSans-54"/>
      </defs>
      <g transform="translate(292.170071 321.140875)scale(0.2 -0.2)">
       <use xlink:href="#DejaVuSans-54"/>
      </g>
     </g>
    </g>
    <g id="xtick_5">
     <g id="line2d_9">
      <path clip-path="url(#p5e7ae5b1bb)" d="M 57.6 298.944 
L 57.6 27.648 
" style="fill:none;stroke:#b0b0b0;stroke-linecap:square;stroke-width:0.8;"/>
     </g>
     <g id="line2d_10">
      <defs>
       <path d="M 0 0 
L 0 2 
" id="m09d171765c" style="stroke:#000000;stroke-width:0.6;"/>
      </defs>
      <g>
       <use style="stroke:#000000;stroke-width:0.6;" x="57.6" xlink:href="#m09d171765c" y="298.944"/>
      </g>
     </g>
    </g>
    <g id="xtick_6">
     <g id="line2d_11">
      <path clip-path="url(#p5e7ae5b1bb)" d="M 97.755429 298.944 
L 97.755429 27.648 
" style="fill:none;stroke:#b0b0b0;stroke-linecap:square;stroke-width:0.8;"/>
     </g>
     <g id="line2d_12">
      <g>
       <use style="stroke:#000000;stroke-width:0.6;" x="97.755429" xlink:href="#m09d171765c" y="298.944"/>
      </g>
     </g>
    </g>
    <g id="xtick_7">
     <g id="line2d_13">
      <path clip-path="url(#p5e7ae5b1bb)" d="M 137.910857 298.944 
L 137.910857 27.648 
" style="fill:none;stroke:#b0b0b0;stroke-linecap:square;stroke-width:0.8;"/>
     </g>
     <g id="line2d_14">
      <g>
       <use style="stroke:#000000;stroke-width:0.6;" x="137.910857" xlink:href="#m09d171765c" y="298.944"/>
      </g>
     </g>
    </g>
    <g id="xtick_8">
     <g id="line2d_15">
      <path clip-path="url(#p5e7ae5b1bb)" d="M 178.066286 298.944 
L 178.066286 27.648 
" style="fill:none;stroke:#b0b0b0;stroke-linecap:square;stroke-width:0.8;"/>
     </g>
     <g id="line2d_16">
      <g>
       <use style="stroke:#000000;stroke-width:0.6;" x="178.066286" xlink:href="#m09d171765c" y="298.944"/>
      </g>
     </g>
    </g>
    <g id="xtick_9">
     <g id="line2d_17">
      <path clip-path="url(#p5e7ae5b1bb)" d="M 218.221714 298.944 
L 218.221714 27.648 
" style="fill:none;stroke:#b0b0b0;stroke-linecap:square;stroke-width:0.8;"/>
     </g>
     <g id="line2d_18">
      <g>
       <use style="stroke:#000000;stroke-width:0.6;" x="218.221714" xlink:href="#m09d171765c" y="298.944"/>
      </g>
     </g>
    </g>
    <g id="xtick_10">
     <g id="line2d_19">
      <path clip-path="url(#p5e7ae5b1bb)" d="M 258.377143 298.944 
L 258.377143 27.648 
" style="fill:none;stroke:#b0b0b0;stroke-linecap:square;stroke-width:0.8;"/>
     </g>
     <g id="line2d_20">
      <g>
       <use style="stroke:#000000;stroke-width:0.6;" x="258.377143" xlink:href="#m09d171765c" y="298.944"/>
      </g>
     </g>
    </g>
    <g id="xtick_11">
     <g id="line2d_21">
      <path clip-path="url(#p5e7ae5b1bb)" d="M 298.532571 298.944 
L 298.532571 27.648 
" style="fill:none;stroke:#b0b0b0;stroke-linecap:square;stroke-width:0.8;"/>
     </g>
     <g id="line2d_22">
      <g>
       <use style="stroke:#000000;stroke-width:0.6;" x="298.532571" xlink:href="#m09d171765c" y="298.944"/>
      </g>
     </g>
    </g>
    <g id="xtick_12">
     <g id="line2d_23">
      <path clip-path="url(#p5e7ae5b1bb)" d="M 338.688 298.944 
L 338.688 27.648 
" style="fill:none;stroke:#b0b0b0;stroke-linecap:square;stroke-width:0.8;"/>
     </g>
     <g id="line2d_24">
      <g>
       <use style="stroke:#000000;stroke-width:0.6;" x="338.688" xlink:href="#m09d171765c" y="298.944"/>
      </g>
     </g>
    </g>
    <g id="text_5">
     <!-- log10(# f-evals / dimension) -->
     <defs>
      <path d="M 9.421875 75.984375 
L 18.40625 75.984375 
L 18.40625 0 
L 9.421875 0 
z
" id="DejaVuSans-108"/>
      <path d="M 30.609375 48.390625 
Q 23.390625 48.390625 19.1875 42.75 
Q 14.984375 37.109375 14.984375 27.296875 
Q 14.984375 17.484375 19.15625 11.84375 
Q 23.34375 6.203125 30.609375 6.203125 
Q 37.796875 6.203125 41.984375 11.859375 
Q 46.1875 17.53125 46.1875 27.296875 
Q 46.1875 37.015625 41.984375 42.703125 
Q 37.796875 48.390625 30.609375 48.390625 
z
M 30.609375 56 
Q 42.328125 56 49.015625 48.375 
Q 55.71875 40.765625 55.71875 27.296875 
Q 55.71875 13.875 49.015625 6.21875 
Q 42.328125 -1.421875 30.609375 -1.421875 
Q 18.84375 -1.421875 12.171875 6.21875 
Q 5.515625 13.875 5.515625 27.296875 
Q 5.515625 40.765625 12.171875 48.375 
Q 18.84375 56 30.609375 56 
z
" id="DejaVuSans-111"/>
      <path d="M 45.40625 27.984375 
Q 45.40625 37.75 41.375 43.109375 
Q 37.359375 48.484375 30.078125 48.484375 
Q 22.859375 48.484375 18.828125 43.109375 
Q 14.796875 37.75 14.796875 27.984375 
Q 14.796875 18.265625 18.828125 12.890625 
Q 22.859375 7.515625 30.078125 7.515625 
Q 37.359375 7.515625 41.375 12.890625 
Q 45.40625 18.265625 45.40625 27.984375 
z
M 54.390625 6.78125 
Q 54.390625 -7.171875 48.1875 -13.984375 
Q 42 -20.796875 29.203125 -20.796875 
Q 24.46875 -20.796875 20.265625 -20.09375 
Q 16.0625 -19.390625 12.109375 -17.921875 
L 12.109375 -9.1875 
Q 16.0625 -11.328125 19.921875 -12.34375 
Q 23.78125 -13.375 27.78125 -13.375 
Q 36.625 -13.375 41.015625 -8.765625 
Q 45.40625 -4.15625 45.40625 5.171875 
L 45.40625 9.625 
Q 42.625 4.78125 38.28125 2.390625 
Q 33.9375 0 27.875 0 
Q 17.828125 0 11.671875 7.65625 
Q 5.515625 15.328125 5.515625 27.984375 
Q 5.515625 40.671875 11.671875 48.328125 
Q 17.828125 56 27.875 56 
Q 33.9375 56 38.28125 53.609375 
Q 42.625 51.21875 45.40625 46.390625 
L 45.40625 54.6875 
L 54.390625 54.6875 
z
" id="DejaVuSans-103"/>
      <path d="M 12.40625 8.296875 
L 28.515625 8.296875 
L 28.515625 63.921875 
L 10.984375 60.40625 
L 10.984375 69.390625 
L 28.421875 72.90625 
L 38.28125 72.90625 
L 38.28125 8.296875 
L 54.390625 8.296875 
L 54.390625 0 
L 12.40625 0 
z
" id="DejaVuSans-49"/>
      <path d="M 31 75.875 
Q 24.46875 64.65625 21.28125 53.65625 
Q 18.109375 42.671875 18.109375 31.390625 
Q 18.109375 20.125 21.3125 9.0625 
Q 24.515625 -2 31 -13.1875 
L 23.1875 -13.1875 
Q 15.875 -1.703125 12.234375 9.375 
Q 8.59375 20.453125 8.59375 31.390625 
Q 8.59375 42.28125 12.203125 53.3125 
Q 15.828125 64.359375 23.1875 75.875 
z
" id="DejaVuSans-40"/>
      <path d="M 51.125 44 
L 36.921875 44 
L 32.8125 27.6875 
L 47.125 27.6875 
z
M 43.796875 71.78125 
L 38.71875 51.515625 
L 52.984375 51.515625 
L 58.109375 71.78125 
L 65.921875 71.78125 
L 60.890625 51.515625 
L 76.125 51.515625 
L 76.125 44 
L 58.984375 44 
L 54.984375 27.6875 
L 70.515625 27.6875 
L 70.515625 20.21875 
L 53.078125 20.21875 
L 48 0 
L 40.1875 0 
L 45.21875 20.21875 
L 30.90625 20.21875 
L 25.875 0 
L 18.015625 0 
L 23.09375 20.21875 
L 7.71875 20.21875 
L 7.71875 27.6875 
L 24.90625 27.6875 
L 29 44 
L 13.28125 44 
L 13.28125 51.515625 
L 30.90625 51.515625 
L 35.890625 71.78125 
z
" id="DejaVuSans-35"/>
      <path id="DejaVuSans-32"/>
      <path d="M 37.109375 75.984375 
L 37.109375 68.5 
L 28.515625 68.5 
Q 23.6875 68.5 21.796875 66.546875 
Q 19.921875 64.59375 19.921875 59.515625 
L 19.921875 54.6875 
L 34.71875 54.6875 
L 34.71875 47.703125 
L 19.921875 47.703125 
L 19.921875 0 
L 10.890625 0 
L 10.890625 47.703125 
L 2.296875 47.703125 
L 2.296875 54.6875 
L 10.890625 54.6875 
L 10.890625 58.5 
Q 10.890625 67.625 15.140625 71.796875 
Q 19.390625 75.984375 28.609375 75.984375 
z
" id="DejaVuSans-102"/>
      <path d="M 4.890625 31.390625 
L 31.203125 31.390625 
L 31.203125 23.390625 
L 4.890625 23.390625 
z
" id="DejaVuSans-45"/>
      <path d="M 56.203125 29.59375 
L 56.203125 25.203125 
L 14.890625 25.203125 
Q 15.484375 15.921875 20.484375 11.0625 
Q 25.484375 6.203125 34.421875 6.203125 
Q 39.59375 6.203125 44.453125 7.46875 
Q 49.3125 8.734375 54.109375 11.28125 
L 54.109375 2.78125 
Q 49.265625 0.734375 44.1875 -0.34375 
Q 39.109375 -1.421875 33.890625 -1.421875 
Q 20.796875 -1.421875 13.15625 6.1875 
Q 5.515625 13.8125 5.515625 26.8125 
Q 5.515625 40.234375 12.765625 48.109375 
Q 20.015625 56 32.328125 56 
Q 43.359375 56 49.78125 48.890625 
Q 56.203125 41.796875 56.203125 29.59375 
z
M 47.21875 32.234375 
Q 47.125 39.59375 43.09375 43.984375 
Q 39.0625 48.390625 32.421875 48.390625 
Q 24.90625 48.390625 20.390625 44.140625 
Q 15.875 39.890625 15.1875 32.171875 
z
" id="DejaVuSans-101"/>
      <path d="M 2.984375 54.6875 
L 12.5 54.6875 
L 29.59375 8.796875 
L 46.6875 54.6875 
L 56.203125 54.6875 
L 35.6875 0 
L 23.484375 0 
z
" id="DejaVuSans-118"/>
      <path d="M 34.28125 27.484375 
Q 23.390625 27.484375 19.1875 25 
Q 14.984375 22.515625 14.984375 16.5 
Q 14.984375 11.71875 18.140625 8.90625 
Q 21.296875 6.109375 26.703125 6.109375 
Q 34.1875 6.109375 38.703125 11.40625 
Q 43.21875 16.703125 43.21875 25.484375 
L 43.21875 27.484375 
z
M 52.203125 31.203125 
L 52.203125 0 
L 43.21875 0 
L 43.21875 8.296875 
Q 40.140625 3.328125 35.546875 0.953125 
Q 30.953125 -1.421875 24.3125 -1.421875 
Q 15.921875 -1.421875 10.953125 3.296875 
Q 6 8.015625 6 15.921875 
Q 6 25.140625 12.171875 29.828125 
Q 18.359375 34.515625 30.609375 34.515625 
L 43.21875 34.515625 
L 43.21875 35.40625 
Q 43.21875 41.609375 39.140625 45 
Q 35.0625 48.390625 27.6875 48.390625 
Q 23 48.390625 18.546875 47.265625 
Q 14.109375 46.140625 10.015625 43.890625 
L 10.015625 52.203125 
Q 14.9375 54.109375 19.578125 55.046875 
Q 24.21875 56 28.609375 56 
Q 40.484375 56 46.34375 49.84375 
Q 52.203125 43.703125 52.203125 31.203125 
z
" id="DejaVuSans-97"/>
      <path d="M 44.28125 53.078125 
L 44.28125 44.578125 
Q 40.484375 46.53125 36.375 47.5 
Q 32.28125 48.484375 27.875 48.484375 
Q 21.1875 48.484375 17.84375 46.4375 
Q 14.5 44.390625 14.5 40.28125 
Q 14.5 37.15625 16.890625 35.375 
Q 19.28125 33.59375 26.515625 31.984375 
L 29.59375 31.296875 
Q 39.15625 29.25 43.1875 25.515625 
Q 47.21875 21.78125 47.21875 15.09375 
Q 47.21875 7.46875 41.1875 3.015625 
Q 35.15625 -1.421875 24.609375 -1.421875 
Q 20.21875 -1.421875 15.453125 -0.5625 
Q 10.6875 0.296875 5.421875 2 
L 5.421875 11.28125 
Q 10.40625 8.6875 15.234375 7.390625 
Q 20.0625 6.109375 24.8125 6.109375 
Q 31.15625 6.109375 34.5625 8.28125 
Q 37.984375 10.453125 37.984375 14.40625 
Q 37.984375 18.0625 35.515625 20.015625 
Q 33.0625 21.96875 24.703125 23.78125 
L 21.578125 24.515625 
Q 13.234375 26.265625 9.515625 29.90625 
Q 5.8125 33.546875 5.8125 39.890625 
Q 5.8125 47.609375 11.28125 51.796875 
Q 16.75 56 26.8125 56 
Q 31.78125 56 36.171875 55.265625 
Q 40.578125 54.546875 44.28125 53.078125 
z
" id="DejaVuSans-115"/>
      <path d="M 25.390625 72.90625 
L 33.6875 72.90625 
L 8.296875 -9.28125 
L 0 -9.28125 
z
" id="DejaVuSans-47"/>
      <path d="M 45.40625 46.390625 
L 45.40625 75.984375 
L 54.390625 75.984375 
L 54.390625 0 
L 45.40625 0 
L 45.40625 8.203125 
Q 42.578125 3.328125 38.25 0.953125 
Q 33.9375 -1.421875 27.875 -1.421875 
Q 17.96875 -1.421875 11.734375 6.484375 
Q 5.515625 14.40625 5.515625 27.296875 
Q 5.515625 40.1875 11.734375 48.09375 
Q 17.96875 56 27.875 56 
Q 33.9375 56 38.25 53.625 
Q 42.578125 51.265625 45.40625 46.390625 
z
M 14.796875 27.296875 
Q 14.796875 17.390625 18.875 11.75 
Q 22.953125 6.109375 30.078125 6.109375 
Q 37.203125 6.109375 41.296875 11.75 
Q 45.40625 17.390625 45.40625 27.296875 
Q 45.40625 37.203125 41.296875 42.84375 
Q 37.203125 48.484375 30.078125 48.484375 
Q 22.953125 48.484375 18.875 42.84375 
Q 14.796875 37.203125 14.796875 27.296875 
z
" id="DejaVuSans-100"/>
      <path d="M 9.421875 54.6875 
L 18.40625 54.6875 
L 18.40625 0 
L 9.421875 0 
z
M 9.421875 75.984375 
L 18.40625 75.984375 
L 18.40625 64.59375 
L 9.421875 64.59375 
z
" id="DejaVuSans-105"/>
      <path d="M 52 44.1875 
Q 55.375 50.25 60.0625 53.125 
Q 64.75 56 71.09375 56 
Q 79.640625 56 84.28125 50.015625 
Q 88.921875 44.046875 88.921875 33.015625 
L 88.921875 0 
L 79.890625 0 
L 79.890625 32.71875 
Q 79.890625 40.578125 77.09375 44.375 
Q 74.3125 48.1875 68.609375 48.1875 
Q 61.625 48.1875 57.5625 43.546875 
Q 53.515625 38.921875 53.515625 30.90625 
L 53.515625 0 
L 44.484375 0 
L 44.484375 32.71875 
Q 44.484375 40.625 41.703125 44.40625 
Q 38.921875 48.1875 33.109375 48.1875 
Q 26.21875 48.1875 22.15625 43.53125 
Q 18.109375 38.875 18.109375 30.90625 
L 18.109375 0 
L 9.078125 0 
L 9.078125 54.6875 
L 18.109375 54.6875 
L 18.109375 46.1875 
Q 21.1875 51.21875 25.484375 53.609375 
Q 29.78125 56 35.6875 56 
Q 41.65625 56 45.828125 52.96875 
Q 50 49.953125 52 44.1875 
z
" id="DejaVuSans-109"/>
      <path d="M 54.890625 33.015625 
L 54.890625 0 
L 45.90625 0 
L 45.90625 32.71875 
Q 45.90625 40.484375 42.875 44.328125 
Q 39.84375 48.1875 33.796875 48.1875 
Q 26.515625 48.1875 22.3125 43.546875 
Q 18.109375 38.921875 18.109375 30.90625 
L 18.109375 0 
L 9.078125 0 
L 9.078125 54.6875 
L 18.109375 54.6875 
L 18.109375 46.1875 
Q 21.34375 51.125 25.703125 53.5625 
Q 30.078125 56 35.796875 56 
Q 45.21875 56 50.046875 50.171875 
Q 54.890625 44.34375 54.890625 33.015625 
z
" id="DejaVuSans-110"/>
      <path d="M 8.015625 75.875 
L 15.828125 75.875 
Q 23.140625 64.359375 26.78125 53.3125 
Q 30.421875 42.28125 30.421875 31.390625 
Q 30.421875 20.453125 26.78125 9.375 
Q 23.140625 -1.703125 15.828125 -13.1875 
L 8.015625 -13.1875 
Q 14.5 -2 17.703125 9.0625 
Q 20.90625 20.125 20.90625 31.390625 
Q 20.90625 42.671875 17.703125 53.65625 
Q 14.5 64.65625 8.015625 75.875 
z
" id="DejaVuSans-41"/>
     </defs>
     <g transform="translate(77.303219 342.217594)scale(0.17 -0.17)">
      <use xlink:href="#DejaVuSans-108"/>
      <use x="27.783203" xlink:href="#DejaVuSans-111"/>
      <use x="88.964844" xlink:href="#DejaVuSans-103"/>
      <use x="152.441406" xlink:href="#DejaVuSans-49"/>
      <use x="216.064453" xlink:href="#DejaVuSans-48"/>
      <use x="279.6875" xlink:href="#DejaVuSans-40"/>
      <use x="318.701172" xlink:href="#DejaVuSans-35"/>
      <use x="402.490234" xlink:href="#DejaVuSans-32"/>
      <use x="434.277344" xlink:href="#DejaVuSans-102"/>
      <use x="469.404297" xlink:href="#DejaVuSans-45"/>
      <use x="505.488281" xlink:href="#DejaVuSans-101"/>
      <use x="567.011719" xlink:href="#DejaVuSans-118"/>
      <use x="626.191406" xlink:href="#DejaVuSans-97"/>
      <use x="687.470703" xlink:href="#DejaVuSans-108"/>
      <use x="715.253906" xlink:href="#DejaVuSans-115"/>
      <use x="767.353516" xlink:href="#DejaVuSans-32"/>
      <use x="799.140625" xlink:href="#DejaVuSans-47"/>
      <use x="832.832031" xlink:href="#DejaVuSans-32"/>
      <use x="864.619141" xlink:href="#DejaVuSans-100"/>
      <use x="928.095703" xlink:href="#DejaVuSans-105"/>
      <use x="955.878906" xlink:href="#DejaVuSans-109"/>
      <use x="1053.291016" xlink:href="#DejaVuSans-101"/>
      <use x="1114.814453" xlink:href="#DejaVuSans-110"/>
      <use x="1178.193359" xlink:href="#DejaVuSans-115"/>
      <use x="1230.292969" xlink:href="#DejaVuSans-105"/>
      <use x="1258.076172" xlink:href="#DejaVuSans-111"/>
      <use x="1319.257812" xlink:href="#DejaVuSans-110"/>
      <use x="1382.636719" xlink:href="#DejaVuSans-41"/>
     </g>
    </g>
   </g>
   <g id="matplotlib.axis_2">
    <g id="ytick_1">
     <g id="line2d_25">
      <path clip-path="url(#p5e7ae5b1bb)" d="M 57.6 298.944 
L 338.688 298.944 
" style="fill:none;stroke:#b0b0b0;stroke-linecap:square;stroke-width:0.8;"/>
     </g>
     <g id="line2d_26">
      <defs>
       <path d="M 0 0 
L -3.5 0 
" id="m0b8116815a" style="stroke:#000000;stroke-width:0.8;"/>
      </defs>
      <g>
       <use style="stroke:#000000;stroke-width:0.8;" x="57.6" xlink:href="#m0b8116815a" y="298.944"/>
      </g>
     </g>
     <g id="text_6">
      <!-- 0.0 -->
      <defs>
       <path d="M 10.6875 12.40625 
L 21 12.40625 
L 21 0 
L 10.6875 0 
z
" id="DejaVuSans-46"/>
      </defs>
      <g transform="translate(25.155 305.02275)scale(0.16 -0.16)">
       <use xlink:href="#DejaVuSans-48"/>
       <use x="63.623047" xlink:href="#DejaVuSans-46"/>
       <use x="95.410156" xlink:href="#DejaVuSans-48"/>
      </g>
     </g>
    </g>
    <g id="ytick_2">
     <g id="line2d_27">
      <path clip-path="url(#p5e7ae5b1bb)" d="M 57.6 245.22202 
L 338.688 245.22202 
" style="fill:none;stroke:#b0b0b0;stroke-linecap:square;stroke-width:0.8;"/>
     </g>
     <g id="line2d_28">
      <g>
       <use style="stroke:#000000;stroke-width:0.8;" x="57.6" xlink:href="#m0b8116815a" y="245.22202"/>
      </g>
     </g>
     <g id="text_7">
      <!-- 0.2 -->
      <g transform="translate(25.155 251.30077)scale(0.16 -0.16)">
       <use xlink:href="#DejaVuSans-48"/>
       <use x="63.623047" xlink:href="#DejaVuSans-46"/>
       <use x="95.410156" xlink:href="#DejaVuSans-50"/>
      </g>
     </g>
    </g>
    <g id="ytick_3">
     <g id="line2d_29">
      <path clip-path="url(#p5e7ae5b1bb)" d="M 57.6 191.50004 
L 338.688 191.50004 
" style="fill:none;stroke:#b0b0b0;stroke-linecap:square;stroke-width:0.8;"/>
     </g>
     <g id="line2d_30">
      <g>
       <use style="stroke:#000000;stroke-width:0.8;" x="57.6" xlink:href="#m0b8116815a" y="191.50004"/>
      </g>
     </g>
     <g id="text_8">
      <!-- 0.4 -->
      <g transform="translate(25.155 197.57879)scale(0.16 -0.16)">
       <use xlink:href="#DejaVuSans-48"/>
       <use x="63.623047" xlink:href="#DejaVuSans-46"/>
       <use x="95.410156" xlink:href="#DejaVuSans-52"/>
      </g>
     </g>
    </g>
    <g id="ytick_4">
     <g id="line2d_31">
      <path clip-path="url(#p5e7ae5b1bb)" d="M 57.6 137.778059 
L 338.688 137.778059 
" style="fill:none;stroke:#b0b0b0;stroke-linecap:square;stroke-width:0.8;"/>
     </g>
     <g id="line2d_32">
      <g>
       <use style="stroke:#000000;stroke-width:0.8;" x="57.6" xlink:href="#m0b8116815a" y="137.778059"/>
      </g>
     </g>
     <g id="text_9">
      <!-- 0.6 -->
      <g transform="translate(25.155 143.856809)scale(0.16 -0.16)">
       <use xlink:href="#DejaVuSans-48"/>
       <use x="63.623047" xlink:href="#DejaVuSans-46"/>
       <use x="95.410156" xlink:href="#DejaVuSans-54"/>
      </g>
     </g>
    </g>
    <g id="ytick_5">
     <g id="line2d_33">
      <path clip-path="url(#p5e7ae5b1bb)" d="M 57.6 84.056079 
L 338.688 84.056079 
" style="fill:none;stroke:#b0b0b0;stroke-linecap:square;stroke-width:0.8;"/>
     </g>
     <g id="line2d_34">
      <g>
       <use style="stroke:#000000;stroke-width:0.8;" x="57.6" xlink:href="#m0b8116815a" y="84.056079"/>
      </g>
     </g>
     <g id="text_10">
      <!-- 0.8 -->
      <defs>
       <path d="M 31.78125 34.625 
Q 24.75 34.625 20.71875 30.859375 
Q 16.703125 27.09375 16.703125 20.515625 
Q 16.703125 13.921875 20.71875 10.15625 
Q 24.75 6.390625 31.78125 6.390625 
Q 38.8125 6.390625 42.859375 10.171875 
Q 46.921875 13.96875 46.921875 20.515625 
Q 46.921875 27.09375 42.890625 30.859375 
Q 38.875 34.625 31.78125 34.625 
z
M 21.921875 38.8125 
Q 15.578125 40.375 12.03125 44.71875 
Q 8.5 49.078125 8.5 55.328125 
Q 8.5 64.0625 14.71875 69.140625 
Q 20.953125 74.21875 31.78125 74.21875 
Q 42.671875 74.21875 48.875 69.140625 
Q 55.078125 64.0625 55.078125 55.328125 
Q 55.078125 49.078125 51.53125 44.71875 
Q 48 40.375 41.703125 38.8125 
Q 48.828125 37.15625 52.796875 32.3125 
Q 56.78125 27.484375 56.78125 20.515625 
Q 56.78125 9.90625 50.3125 4.234375 
Q 43.84375 -1.421875 31.78125 -1.421875 
Q 19.734375 -1.421875 13.25 4.234375 
Q 6.78125 9.90625 6.78125 20.515625 
Q 6.78125 27.484375 10.78125 32.3125 
Q 14.796875 37.15625 21.921875 38.8125 
z
M 18.3125 54.390625 
Q 18.3125 48.734375 21.84375 45.5625 
Q 25.390625 42.390625 31.78125 42.390625 
Q 38.140625 42.390625 41.71875 45.5625 
Q 45.3125 48.734375 45.3125 54.390625 
Q 45.3125 60.0625 41.71875 63.234375 
Q 38.140625 66.40625 31.78125 66.40625 
Q 25.390625 66.40625 21.84375 63.234375 
Q 18.3125 60.0625 18.3125 54.390625 
z
" id="DejaVuSans-56"/>
      </defs>
      <g transform="translate(25.155 90.134829)scale(0.16 -0.16)">
       <use xlink:href="#DejaVuSans-48"/>
       <use x="63.623047" xlink:href="#DejaVuSans-46"/>
       <use x="95.410156" xlink:href="#DejaVuSans-56"/>
      </g>
     </g>
    </g>
    <g id="ytick_6">
     <g id="line2d_35">
      <path clip-path="url(#p5e7ae5b1bb)" d="M 57.6 30.334099 
L 338.688 30.334099 
" style="fill:none;stroke:#b0b0b0;stroke-linecap:square;stroke-width:0.8;"/>
     </g>
     <g id="line2d_36">
      <g>
       <use style="stroke:#000000;stroke-width:0.8;" x="57.6" xlink:href="#m0b8116815a" y="30.334099"/>
      </g>
     </g>
     <g id="text_11">
      <!-- 1.0 -->
      <g transform="translate(25.155 36.412849)scale(0.16 -0.16)">
       <use xlink:href="#DejaVuSans-49"/>
       <use x="63.623047" xlink:href="#DejaVuSans-46"/>
       <use x="95.410156" xlink:href="#DejaVuSans-48"/>
      </g>
     </g>
    </g>
    <g id="text_12">
     <!-- Fraction of function,target pairs -->
     <defs>
      <path d="M 9.8125 72.90625 
L 51.703125 72.90625 
L 51.703125 64.59375 
L 19.671875 64.59375 
L 19.671875 43.109375 
L 48.578125 43.109375 
L 48.578125 34.8125 
L 19.671875 34.8125 
L 19.671875 0 
L 9.8125 0 
z
" id="DejaVuSans-70"/>
      <path d="M 41.109375 46.296875 
Q 39.59375 47.171875 37.8125 47.578125 
Q 36.03125 48 33.890625 48 
Q 26.265625 48 22.1875 43.046875 
Q 18.109375 38.09375 18.109375 28.8125 
L 18.109375 0 
L 9.078125 0 
L 9.078125 54.6875 
L 18.109375 54.6875 
L 18.109375 46.1875 
Q 20.953125 51.171875 25.484375 53.578125 
Q 30.03125 56 36.53125 56 
Q 37.453125 56 38.578125 55.875 
Q 39.703125 55.765625 41.0625 55.515625 
z
" id="DejaVuSans-114"/>
      <path d="M 48.78125 52.59375 
L 48.78125 44.1875 
Q 44.96875 46.296875 41.140625 47.34375 
Q 37.3125 48.390625 33.40625 48.390625 
Q 24.65625 48.390625 19.8125 42.84375 
Q 14.984375 37.3125 14.984375 27.296875 
Q 14.984375 17.28125 19.8125 11.734375 
Q 24.65625 6.203125 33.40625 6.203125 
Q 37.3125 6.203125 41.140625 7.25 
Q 44.96875 8.296875 48.78125 10.40625 
L 48.78125 2.09375 
Q 45.015625 0.34375 40.984375 -0.53125 
Q 36.96875 -1.421875 32.421875 -1.421875 
Q 20.0625 -1.421875 12.78125 6.34375 
Q 5.515625 14.109375 5.515625 27.296875 
Q 5.515625 40.671875 12.859375 48.328125 
Q 20.21875 56 33.015625 56 
Q 37.15625 56 41.109375 55.140625 
Q 45.0625 54.296875 48.78125 52.59375 
z
" id="DejaVuSans-99"/>
      <path d="M 18.3125 70.21875 
L 18.3125 54.6875 
L 36.8125 54.6875 
L 36.8125 47.703125 
L 18.3125 47.703125 
L 18.3125 18.015625 
Q 18.3125 11.328125 20.140625 9.421875 
Q 21.96875 7.515625 27.59375 7.515625 
L 36.8125 7.515625 
L 36.8125 0 
L 27.59375 0 
Q 17.1875 0 13.234375 3.875 
Q 9.28125 7.765625 9.28125 18.015625 
L 9.28125 47.703125 
L 2.6875 47.703125 
L 2.6875 54.6875 
L 9.28125 54.6875 
L 9.28125 70.21875 
z
" id="DejaVuSans-116"/>
      <path d="M 8.5 21.578125 
L 8.5 54.6875 
L 17.484375 54.6875 
L 17.484375 21.921875 
Q 17.484375 14.15625 20.5 10.265625 
Q 23.53125 6.390625 29.59375 6.390625 
Q 36.859375 6.390625 41.078125 11.03125 
Q 45.3125 15.671875 45.3125 23.6875 
L 45.3125 54.6875 
L 54.296875 54.6875 
L 54.296875 0 
L 45.3125 0 
L 45.3125 8.40625 
Q 42.046875 3.421875 37.71875 1 
Q 33.40625 -1.421875 27.6875 -1.421875 
Q 18.265625 -1.421875 13.375 4.4375 
Q 8.5 10.296875 8.5 21.578125 
z
M 31.109375 56 
z
" id="DejaVuSans-117"/>
      <path d="M 11.71875 12.40625 
L 22.015625 12.40625 
L 22.015625 4 
L 14.015625 -11.625 
L 7.71875 -11.625 
L 11.71875 4 
z
" id="DejaVuSans-44"/>
      <path d="M 18.109375 8.203125 
L 18.109375 -20.796875 
L 9.078125 -20.796875 
L 9.078125 54.6875 
L 18.109375 54.6875 
L 18.109375 46.390625 
Q 20.953125 51.265625 25.265625 53.625 
Q 29.59375 56 35.59375 56 
Q 45.5625 56 51.78125 48.09375 
Q 58.015625 40.1875 58.015625 27.296875 
Q 58.015625 14.40625 51.78125 6.484375 
Q 45.5625 -1.421875 35.59375 -1.421875 
Q 29.59375 -1.421875 25.265625 0.953125 
Q 20.953125 3.328125 18.109375 8.203125 
z
M 48.6875 27.296875 
Q 48.6875 37.203125 44.609375 42.84375 
Q 40.53125 48.484375 33.40625 48.484375 
Q 26.265625 48.484375 22.1875 42.84375 
Q 18.109375 37.203125 18.109375 27.296875 
Q 18.109375 17.390625 22.1875 11.75 
Q 26.265625 6.109375 33.40625 6.109375 
Q 40.53125 6.109375 44.609375 11.75 
Q 48.6875 17.390625 48.6875 27.296875 
z
" id="DejaVuSans-112"/>
     </defs>
     <g transform="translate(17.619531 298.435375)rotate(-90)scale(0.17 -0.17)">
      <use xlink:href="#DejaVuSans-70"/>
      <use x="57.410156" xlink:href="#DejaVuSans-114"/>
      <use x="98.523438" xlink:href="#DejaVuSans-97"/>
      <use x="159.802734" xlink:href="#DejaVuSans-99"/>
      <use x="214.783203" xlink:href="#DejaVuSans-116"/>
      <use x="253.992188" xlink:href="#DejaVuSans-105"/>
      <use x="281.775391" xlink:href="#DejaVuSans-111"/>
      <use x="342.957031" xlink:href="#DejaVuSans-110"/>
      <use x="406.335938" xlink:href="#DejaVuSans-32"/>
      <use x="438.123047" xlink:href="#DejaVuSans-111"/>
      <use x="499.304688" xlink:href="#DejaVuSans-102"/>
      <use x="534.509766" xlink:href="#DejaVuSans-32"/>
      <use x="566.296875" xlink:href="#DejaVuSans-102"/>
      <use x="601.501953" xlink:href="#DejaVuSans-117"/>
      <use x="664.880859" xlink:href="#DejaVuSans-110"/>
      <use x="728.259766" xlink:href="#DejaVuSans-99"/>
      <use x="783.240234" xlink:href="#DejaVuSans-116"/>
      <use x="822.449219" xlink:href="#DejaVuSans-105"/>
      <use x="850.232422" xlink:href="#DejaVuSans-111"/>
      <use x="911.414062" xlink:href="#DejaVuSans-110"/>
      <use x="974.792969" xlink:href="#DejaVuSans-44"/>
      <use x="1006.580078" xlink:href="#DejaVuSans-116"/>
      <use x="1045.789062" xlink:href="#DejaVuSans-97"/>
      <use x="1107.068359" xlink:href="#DejaVuSans-114"/>
      <use x="1148.166016" xlink:href="#DejaVuSans-103"/>
      <use x="1211.642578" xlink:href="#DejaVuSans-101"/>
      <use x="1273.166016" xlink:href="#DejaVuSans-116"/>
      <use x="1312.375" xlink:href="#DejaVuSans-32"/>
      <use x="1344.162109" xlink:href="#DejaVuSans-112"/>
      <use x="1407.638672" xlink:href="#DejaVuSans-97"/>
      <use x="1468.917969" xlink:href="#DejaVuSans-105"/>
      <use x="1496.701172" xlink:href="#DejaVuSans-114"/>
      <use x="1537.814453" xlink:href="#DejaVuSans-115"/>
     </g>
    </g>
   </g>
   <g id="line2d_37">
    <defs>
     <path d="M 0 1.5 
C 0.397805 1.5 0.77937 1.341951 1.06066 1.06066 
C 1.341951 0.77937 1.5 0.397805 1.5 0 
C 1.5 -0.397805 1.341951 -0.77937 1.06066 -1.06066 
C 0.77937 -1.341951 0.397805 -1.5 0 -1.5 
C -0.397805 -1.5 -0.77937 -1.341951 -1.06066 -1.06066 
C -1.341951 -0.77937 -1.5 -0.397805 -1.5 0 
C -1.5 0.397805 -1.341951 0.77937 -1.06066 1.06066 
C -0.77937 1.341951 -0.397805 1.5 0 1.5 
z
" id="ma3fd35088f" style="stroke:#000080;"/>
    </defs>
    <g>
     <use style="fill:#000080;stroke:#000080;" x="296.47061" xlink:href="#ma3fd35088f" y="30.334099"/>
     <use style="fill:#000080;stroke:#000080;" x="296.47061" xlink:href="#ma3fd35088f" y="30.334099"/>
    </g>
   </g>
   <g id="line2d_38">
    <path d="M 17.444571 298.944 
L 17.444571 293.677139 
L 72.125336 293.677139 
L 72.125336 292.623767 
L 73.579452 292.623767 
L 73.579452 292.097081 
L 76.16779 292.097081 
L 76.16779 291.570395 
L 80.416384 291.570395 
L 80.416384 291.043709 
L 83.037197 291.043709 
L 83.037197 290.517023 
L 83.438118 290.517023 
L 83.438118 289.990337 
L 83.830028 289.990337 
L 83.830028 289.463651 
L 84.213325 289.463651 
L 84.213325 288.936964 
L 85.315119 288.936964 
L 85.315119 288.410278 
L 86.683608 288.410278 
L 86.683608 287.883592 
L 90.242884 287.883592 
L 90.242884 287.356906 
L 90.509138 287.356906 
L 90.509138 286.83022 
L 95.125186 286.83022 
L 95.125186 286.303534 
L 95.326798 286.303534 
L 95.326798 285.776848 
L 95.723163 285.776848 
L 95.723163 285.250162 
L 96.86091 285.250162 
L 96.86091 284.19679 
L 98.270913 284.19679 
L 98.270913 283.670104 
L 98.771596 283.670104 
L 98.771596 282.616732 
L 99.258306 282.616732 
L 99.258306 282.090045 
L 99.575392 282.090045 
L 99.575392 281.563359 
L 100.493461 281.563359 
L 100.493461 281.036673 
L 101.223245 281.036673 
L 101.223245 280.509987 
L 101.365607 280.509987 
L 101.365607 279.983301 
L 102.464508 279.983301 
L 102.464508 279.456615 
L 102.597126 279.456615 
L 102.597126 278.929929 
L 102.989037 278.929929 
L 102.989037 278.403243 
L 103.747386 278.403243 
L 103.747386 277.876557 
L 104.355088 277.876557 
L 104.355088 276.823185 
L 104.592361 276.823185 
L 104.592361 276.296499 
L 104.709797 276.296499 
L 104.709797 275.769812 
L 105.285403 275.769812 
L 105.285403 275.243126 
L 105.621863 275.243126 
L 105.732589 274.189754 
L 106.275913 274.189754 
L 106.382575 273.136382 
L 106.48859 273.136382 
L 106.48859 272.609696 
L 108.294265 272.609696 
L 108.294265 272.08301 
L 110.188761 272.08301 
L 110.188761 271.556324 
L 110.358901 271.556324 
L 110.358901 271.029638 
L 112.128456 271.029638 
L 112.128456 270.502952 
L 112.431755 270.502952 
L 112.431755 269.976266 
L 112.58145 269.976266 
L 112.58145 269.449579 
L 113.594805 269.449579 
L 113.594805 268.922893 
L 114.0117 268.922893 
L 114.0117 268.396207 
L 114.284194 268.396207 
L 114.284194 267.869521 
L 115.586238 267.869521 
L 115.586238 267.342835 
L 117.030313 267.342835 
L 117.030313 266.816149 
L 117.316679 266.816149 
L 117.316679 266.289463 
L 117.429921 266.289463 
L 117.429921 265.762777 
L 117.820578 265.762777 
L 117.820578 265.236091 
L 118.310324 265.236091 
L 118.417314 264.182719 
L 118.734401 264.182719 
L 118.734401 263.656033 
L 118.994305 263.656033 
L 118.994305 263.129347 
L 120.093994 263.129347 
L 120.093994 262.60266 
L 121.712041 262.60266 
L 121.712041 262.075974 
L 123.029641 262.075974 
L 123.029641 261.549288 
L 154.412564 261.549288 
L 154.412564 261.022602 
L 155.128803 261.022602 
L 155.238912 259.96923 
L 155.760475 259.96923 
L 155.766741 258.915858 
L 156.236431 258.915858 
L 156.236431 258.389172 
L 156.424441 258.389172 
L 156.424441 257.862486 
L 156.544671 257.862486 
L 156.544671 257.3358 
L 156.806295 257.3358 
L 156.853444 255.755741 
L 156.988292 255.755741 
L 156.988292 255.229055 
L 157.380981 255.229055 
L 157.380981 254.175683 
L 157.787352 254.175683 
L 157.787352 253.648997 
L 158.884591 253.648997 
L 158.884591 253.122311 
L 159.196108 253.122311 
L 159.196108 252.068939 
L 159.643163 252.068939 
L 159.643163 251.542253 
L 159.936602 251.542253 
L 159.936602 250.488881 
L 160.408554 250.488881 
L 160.408554 248.908822 
L 160.55197 248.908822 
L 160.55197 247.85545 
L 161.044837 247.85545 
L 161.044837 246.802078 
L 161.384008 246.802078 
L 161.424813 245.748706 
L 161.627414 245.748706 
L 161.627414 243.641962 
L 161.765627 243.641962 
L 161.765627 242.588589 
L 162.056289 242.588589 
L 162.095552 241.535217 
L 162.273306 241.535217 
L 162.273306 240.481845 
L 162.712026 240.481845 
L 162.800135 239.428473 
L 162.846111 239.428473 
L 162.846111 238.901787 
L 163.045324 238.901787 
L 163.045324 238.375101 
L 181.303877 238.375101 
L 181.303877 237.848415 
L 181.696302 237.848415 
L 181.696302 237.321729 
L 182.431193 237.321729 
L 182.448835 236.268356 
L 182.691294 236.268356 
L 182.691294 235.214984 
L 182.859032 235.214984 
L 182.859032 234.688298 
L 183.68319 234.688298 
L 183.68319 234.161612 
L 192.398727 234.161612 
L 192.398727 233.634926 
L 193.187895 233.634926 
L 193.23765 232.581554 
L 193.381723 232.581554 
L 193.448985 231.528182 
L 193.549035 231.528182 
L 193.549035 231.001496 
L 193.78075 231.001496 
L 193.78075 229.948123 
L 193.937277 229.948123 
L 193.982143 227.841379 
L 194.193691 227.841379 
L 194.295072 225.734635 
L 194.313629 225.734635 
L 194.328049 224.681263 
L 194.599782 224.681263 
L 194.599782 223.101204 
L 194.803344 223.101204 
L 194.911212 222.047832 
L 195.077035 222.047832 
L 195.111848 219.414402 
L 195.206086 219.414402 
L 195.313445 217.834344 
L 195.373021 217.834344 
L 195.452353 215.200913 
L 195.52556 215.200913 
L 195.533889 214.147541 
L 195.714853 214.147541 
L 195.823544 212.040797 
L 195.840545 212.040797 
L 195.94971 210.460738 
L 196.102269 210.460738 
L 196.209196 208.88068 
L 196.226441 208.88068 
L 196.265793 206.773936 
L 196.420495 206.773936 
L 196.420495 205.720564 
L 202.987342 205.720564 
L 202.987342 204.667192 
L 203.317968 204.667192 
L 203.413622 203.087133 
L 203.43725 203.087133 
L 203.43725 202.560447 
L 203.615061 202.560447 
L 203.615061 202.033761 
L 203.740739 202.033761 
L 203.740739 201.507075 
L 203.983888 201.507075 
L 204.034317 199.927017 
L 204.328837 199.927017 
L 204.403334 197.293586 
L 204.659885 197.293586 
L 204.659885 196.7669 
L 204.775264 196.7669 
L 204.775264 196.240214 
L 204.949339 196.240214 
L 205.012684 193.606784 
L 205.284674 193.606784 
L 205.284674 191.50004 
L 205.508437 191.50004 
L 205.583831 189.919981 
L 205.630204 189.919981 
L 205.725796 188.866609 
L 247.806297 188.866609 
L 247.901761 187.813237 
L 247.917875 187.813237 
L 247.917875 187.286551 
L 248.572969 187.286551 
L 248.658767 185.179807 
L 248.717007 185.179807 
L 248.814568 182.01969 
L 248.889846 182.01969 
L 248.980471 179.912946 
L 249.070656 179.912946 
L 249.07244 178.859574 
L 249.312778 178.859574 
L 249.423397 172.539341 
L 249.424301 172.539341 
L 249.465543 170.432596 
L 249.602422 170.432596 
L 249.692641 166.745794 
L 249.714493 166.745794 
L 249.821092 161.478933 
L 249.904039 161.478933 
L 250.013237 156.212072 
L 250.020757 156.212072 
L 250.119907 154.105328 
L 250.249124 154.105328 
L 250.355525 151.471897 
L 250.368725 151.471897 
L 250.478352 148.311781 
L 250.483014 148.311781 
L 250.588766 142.518234 
L 250.971988 142.518234 
L 250.997381 140.938176 
L 260.336331 140.938176 
L 260.337437 139.884804 
L 260.57678 139.884804 
L 260.57678 139.358118 
L 260.720185 139.358118 
L 260.825572 137.251373 
L 261.039621 137.251373 
L 261.060895 135.671315 
L 261.164784 135.671315 
L 261.225602 133.564571 
L 261.317706 133.564571 
L 261.420301 129.877768 
L 261.433303 129.877768 
L 261.539921 127.771024 
L 261.581388 127.771024 
L 261.687843 125.137593 
L 261.708831 125.137593 
L 261.724787 123.030849 
L 261.846946 123.030849 
L 261.955391 118.817361 
L 262.052547 118.817361 
L 262.163543 117.237302 
L 262.165859 117.237302 
L 262.223974 116.18393 
L 262.292461 116.18393 
L 262.328063 115.130558 
L 262.527057 115.130558 
L 262.527057 114.603872 
L 262.83658 114.603872 
L 262.893771 113.5505 
L 267.33283 113.5505 
L 267.33283 113.023814 
L 267.760502 113.023814 
L 267.798959 111.970441 
L 267.932649 111.970441 
L 268.032582 110.390383 
L 268.049626 110.390383 
L 268.049626 109.863697 
L 268.194391 109.863697 
L 268.262532 108.283639 
L 268.312887 108.283639 
L 268.406167 105.650209 
L 268.426976 105.650209 
L 268.527252 103.016778 
L 268.543829 103.016778 
L 268.618407 101.43672 
L 268.690832 101.43672 
L 268.762651 98.803289 
L 268.850004 98.803289 
L 268.960064 95.116487 
L 268.967658 95.116487 
L 269.049936 93.009743 
L 269.239877 93.009743 
L 269.239877 92.483056 
L 269.781831 92.483056 
L 269.781831 91.95637 
L 272.649297 91.95637 
L 272.661425 90.902998 
L 272.779647 90.902998 
L 272.880917 89.849626 
L 273.051951 89.849626 
L 273.162671 87.216196 
L 273.196231 87.216196 
L 273.258606 85.636137 
L 273.372322 85.636137 
L 273.478693 80.895963 
L 273.498569 80.895963 
L 273.60917 76.682474 
L 273.687855 76.682474 
L 273.78883 74.049044 
L 273.886005 74.049044 
L 273.886005 73.522358 
L 274.174685 73.522358 
L 274.255994 72.468985 
L 276.719002 72.468985 
L 276.750402 71.415613 
L 276.967253 71.415613 
L 277.049877 69.835555 
L 277.092653 69.835555 
L 277.185717 67.202125 
L 277.224398 67.202125 
L 277.323914 65.09538 
L 277.363041 65.09538 
L 277.447048 62.988636 
L 277.530355 62.988636 
L 277.640318 61.408578 
L 277.649498 61.408578 
L 277.739346 58.775147 
L 277.99155 58.775147 
L 278.004508 57.721775 
L 279.916331 57.721775 
L 280.024559 56.141717 
L 280.295237 56.141717 
L 280.354928 54.561659 
L 280.409288 54.561659 
L 280.409288 54.034973 
L 280.524841 54.034973 
L 280.540638 52.454914 
L 280.747917 52.454914 
L 280.755333 50.874856 
L 280.878051 50.874856 
L 280.878051 50.34817 
L 281.031149 50.34817 
L 281.031149 49.821484 
L 282.730471 49.821484 
L 282.750096 48.768112 
L 282.910778 48.768112 
L 282.910778 48.241426 
L 283.067097 48.241426 
L 283.13304 47.188054 
L 283.18716 47.188054 
L 283.240848 45.081309 
L 283.396759 45.081309 
L 283.449811 42.974565 
L 283.524526 42.974565 
L 283.524526 42.447879 
L 284.916398 42.447879 
L 284.916398 41.921193 
L 285.349963 41.921193 
L 285.349963 41.394507 
L 285.490608 41.394507 
L 285.493584 40.341135 
L 285.868442 40.341135 
L 285.868442 39.814448 
L 287.529186 39.814448 
L 287.529186 39.287762 
L 287.803478 39.287762 
L 287.803478 38.761076 
L 287.996072 38.761076 
L 287.996072 38.23439 
L 289.094206 38.23439 
L 289.193812 37.181018 
L 289.440676 37.181018 
L 289.499958 35.60096 
L 289.573417 35.60096 
L 289.573417 35.074274 
L 290.916936 35.074274 
L 290.972619 34.020902 
L 291.044034 34.020902 
L 291.05592 32.967529 
L 291.165088 32.967529 
L 291.165088 32.440843 
L 292.510686 32.440843 
L 292.510686 31.914157 
L 293.658857 31.914157 
L 293.658857 31.387471 
L 295.21341 31.387471 
L 295.21341 30.860785 
L 296.47061 30.860785 
L 296.47061 30.334099 
L 338.688 30.334099 
L 338.688 30.334099 
" style="fill:none;stroke:#000080;stroke-linecap:square;stroke-width:1.5;"/>
   </g>
   <g id="line2d_39">
    <defs>
     <path d="M 0 6 
C 1.591219 6 3.117479 5.367802 4.242641 4.242641 
C 5.367802 3.117479 6 1.591219 6 0 
C 6 -1.591219 5.367802 -3.117479 4.242641 -4.242641 
C 3.117479 -5.367802 1.591219 -6 0 -6 
C -1.591219 -6 -3.117479 -5.367802 -4.242641 -4.242641 
C -5.367802 -3.117479 -6 -1.591219 -6 0 
C -6 1.591219 -5.367802 3.117479 -4.242641 4.242641 
C -3.117479 5.367802 -1.591219 6 0 6 
z
" id="m4614961e8d" style="stroke:#000080;stroke-width:1.5;"/>
    </defs>
    <g>
     <use style="fill-opacity:0;stroke:#000080;stroke-width:1.5;" x="113.594805" xlink:href="#m4614961e8d" y="268.922893"/>
     <use style="fill-opacity:0;stroke:#000080;stroke-width:1.5;" x="204.034317" xlink:href="#m4614961e8d" y="199.927017"/>
     <use style="fill-opacity:0;stroke:#000080;stroke-width:1.5;" x="250.368725" xlink:href="#m4614961e8d" y="151.471897"/>
     <use style="fill-opacity:0;stroke:#000080;stroke-width:1.5;" x="285.490608" xlink:href="#m4614961e8d" y="40.867821"/>
     <use style="fill-opacity:0;stroke:#000080;stroke-width:1.5;" x="296.47061" xlink:href="#m4614961e8d" y="30.334099"/>
     <use style="fill-opacity:0;stroke:#000080;stroke-width:1.5;" x="338.688" xlink:href="#m4614961e8d" y="30.334099"/>
    </g>
   </g>
   <g id="line2d_40">
    <path style="fill:none;stroke:#000080;stroke-linecap:square;stroke-width:1.5;"/>
    <g/>
   </g>
   <g id="line2d_41">
    <path clip-path="url(#p5e7ae5b1bb)" d="M 248.971381 180.966318 
" style="fill:none;stroke:#000080;stroke-linecap:square;stroke-width:1.5;"/>
    <defs>
     <path d="M -12 12 
L 12 -12 
M -12 -12 
L 12 12 
" id="md61c3cb67f" style="stroke:#000080;"/>
    </defs>
    <g clip-path="url(#p5e7ae5b1bb)">
     <use style="fill:#000080;stroke:#000080;" x="248.971381" xlink:href="#md61c3cb67f" y="180.966318"/>
    </g>
   </g>
   <g id="line2d_42">
    <defs>
     <path d="M 0 1.5 
C 0.397805 1.5 0.77937 1.341951 1.06066 1.06066 
C 1.341951 0.77937 1.5 0.397805 1.5 0 
C 1.5 -0.397805 1.341951 -0.77937 1.06066 -1.06066 
C 0.77937 -1.341951 0.397805 -1.5 0 -1.5 
C -0.397805 -1.5 -0.77937 -1.341951 -1.06066 -1.06066 
C -1.341951 -0.77937 -1.5 -0.397805 -1.5 0 
C -1.5 0.397805 -1.341951 0.77937 -1.06066 1.06066 
C -0.77937 1.341951 -0.397805 1.5 0 1.5 
z
" id="m1abc1bc803" style="stroke:#ff0000;"/>
    </defs>
    <g>
     <use style="fill:#ff0000;stroke:#ff0000;" x="285.606429" xlink:href="#m1abc1bc803" y="30.334099"/>
     <use style="fill:#ff0000;stroke:#ff0000;" x="285.606429" xlink:href="#m1abc1bc803" y="30.334099"/>
    </g>
   </g>
   <g id="line2d_43">
    <path d="M 17.444571 298.944 
L 17.444571 293.677139 
L 59.262141 293.677139 
L 59.262141 293.150453 
L 84.213325 293.150453 
L 84.213325 292.623767 
L 86.351421 292.623767 
L 86.351421 292.097081 
L 90.509138 292.097081 
L 90.509138 291.043709 
L 91.029752 291.043709 
L 91.029752 290.517023 
L 92.267099 290.517023 
L 92.267099 289.990337 
L 92.73846 289.990337 
L 92.73846 289.463651 
L 93.422441 289.463651 
L 93.422441 288.936964 
L 96.301313 288.936964 
L 96.301313 288.410278 
L 97.403108 288.410278 
L 97.403108 287.883592 
L 97.580158 287.883592 
L 97.580158 287.356906 
L 98.43941 287.356906 
L 98.43941 286.83022 
L 99.886816 286.83022 
L 99.886816 286.303534 
L 100.040467 286.303534 
L 100.040467 285.776848 
L 100.641881 285.776848 
L 100.641881 285.250162 
L 100.789049 285.250162 
L 100.789049 284.723476 
L 101.785851 284.723476 
L 101.785851 284.19679 
L 102.859376 284.19679 
L 102.859376 283.670104 
L 103.245502 283.670104 
L 103.245502 283.143418 
L 103.623262 283.143418 
L 103.623262 282.090045 
L 103.870632 282.090045 
L 103.870632 281.563359 
L 103.993014 281.563359 
L 103.993014 280.509987 
L 104.355088 280.509987 
L 104.355088 279.983301 
L 105.285403 279.983301 
L 105.285403 278.403243 
L 106.275913 278.403243 
L 106.382575 277.349871 
L 106.698704 277.349871 
L 106.698704 276.823185 
L 107.514726 276.823185 
L 107.514726 276.296499 
L 108.389302 276.296499 
L 108.389302 275.769812 
L 108.671345 275.769812 
L 108.671345 275.243126 
L 109.222105 275.243126 
L 109.222105 274.71644 
L 109.491096 274.71644 
L 109.579846 273.663068 
L 109.930396 273.663068 
L 109.930396 273.136382 
L 110.103064 273.136382 
L 110.103064 272.609696 
L 110.358901 272.609696 
L 110.358901 272.08301 
L 110.77713 272.08301 
L 110.77713 271.029638 
L 111.023335 271.029638 
L 111.023335 270.502952 
L 111.346294 270.502952 
L 111.346294 269.976266 
L 112.051799 269.976266 
L 112.051799 269.449579 
L 112.431755 269.449579 
L 112.431755 268.922893 
L 113.382559 268.922893 
L 113.382559 268.396207 
L 114.284194 268.396207 
L 114.284194 267.342835 
L 114.816733 267.342835 
L 114.816733 266.816149 
L 115.586238 266.816149 
L 115.586238 266.289463 
L 116.262979 266.289463 
L 116.262979 265.762777 
L 116.739166 265.762777 
L 116.739166 265.236091 
L 117.930605 265.236091 
L 117.930605 264.709405 
L 118.256582 264.709405 
L 118.256582 264.182719 
L 119.996839 264.182719 
L 119.996839 263.656033 
L 120.142369 263.656033 
L 120.142369 263.129347 
L 120.852343 263.129347 
L 120.852343 262.60266 
L 122.906394 262.60266 
L 122.906394 262.075974 
L 123.434283 262.075974 
L 123.434283 261.549288 
L 123.790603 261.549288 
L 123.829748 260.495916 
L 123.907776 260.495916 
L 123.907776 259.96923 
L 124.139788 259.96923 
L 124.139788 258.915858 
L 125.147256 258.915858 
L 125.147256 258.389172 
L 125.434921 258.389172 
L 125.434921 257.862486 
L 126.168212 257.862486 
L 126.168212 257.3358 
L 126.405947 257.3358 
L 126.405947 256.282427 
L 127.100304 256.282427 
L 127.100304 255.755741 
L 127.325746 255.755741 
L 127.389626 254.702369 
L 128.32077 254.702369 
L 128.32077 254.175683 
L 129.404667 254.175683 
L 129.404667 253.648997 
L 129.602362 253.648997 
L 129.602362 253.122311 
L 129.963666 253.122311 
L 129.963666 252.068939 
L 130.236587 252.068939 
L 130.236587 251.542253 
L 130.371462 251.542253 
L 130.371462 251.015567 
L 130.900768 251.015567 
L 130.900768 249.962195 
L 131.133813 249.962195 
L 131.133813 249.435508 
L 131.414481 249.435508 
L 131.414481 248.908822 
L 132.230358 248.908822 
L 132.230358 248.382136 
L 132.823992 248.382136 
L 132.823992 247.85545 
L 133.555497 247.85545 
L 133.555497 247.328764 
L 133.689303 247.328764 
L 133.689303 246.802078 
L 134.807865 246.802078 
L 134.870259 245.22202 
L 135.300881 245.22202 
L 135.300881 244.695334 
L 135.819708 244.695334 
L 135.819708 244.168648 
L 136.015217 244.168648 
L 136.015217 243.641962 
L 136.831795 243.641962 
L 136.831795 243.115275 
L 137.198951 243.115275 
L 137.198951 242.588589 
L 137.39764 242.588589 
L 137.39764 242.061903 
L 138.493936 242.061903 
L 138.493936 241.535217 
L 139.980403 241.535217 
L 140.073083 239.955159 
L 140.149942 239.955159 
L 140.149942 239.428473 
L 140.438956 239.428473 
L 140.438956 238.901787 
L 141.506851 238.901787 
L 141.591783 237.848415 
L 141.620002 237.848415 
L 141.620002 237.321729 
L 141.732423 237.321729 
L 141.788363 236.268356 
L 142.256745 236.268356 
L 142.256745 235.74167 
L 142.606619 235.74167 
L 142.606619 235.214984 
L 142.752555 235.214984 
L 142.752555 234.688298 
L 142.910378 234.688298 
L 142.910378 234.161612 
L 143.86567 234.161612 
L 143.86567 233.634926 
L 154.324333 233.634926 
L 154.324333 233.10824 
L 154.453136 233.10824 
L 154.547439 231.001496 
L 155.55879 231.001496 
L 155.55879 230.47481 
L 157.528821 230.47481 
L 157.528821 229.948123 
L 157.652944 229.948123 
L 157.652944 229.421437 
L 157.920731 229.421437 
L 157.920731 228.894751 
L 158.140788 228.894751 
L 158.184468 227.314693 
L 158.471118 227.314693 
L 158.471118 226.261321 
L 158.594062 226.261321 
L 158.594062 225.734635 
L 158.811096 225.734635 
L 158.832127 224.154577 
L 159.154893 224.154577 
L 159.154893 223.627891 
L 159.385473 223.627891 
L 159.385473 222.574518 
L 159.507213 222.574518 
L 159.507213 222.047832 
L 159.638147 222.047832 
L 159.718236 219.941088 
L 160.069258 219.941088 
L 160.157138 218.887716 
L 160.437332 218.887716 
L 160.532916 217.834344 
L 160.675317 217.834344 
L 160.736665 216.254285 
L 166.285986 216.254285 
L 166.285986 215.727599 
L 178.187935 215.727599 
L 178.277758 214.674227 
L 186.944696 214.674227 
L 186.944696 214.147541 
L 187.171711 214.147541 
L 187.171711 213.094169 
L 188.116129 213.094169 
L 188.116129 212.567483 
L 196.977061 212.567483 
L 196.977061 212.040797 
L 199.088671 212.040797 
L 199.088671 211.514111 
L 203.281038 211.514111 
L 203.281038 210.987425 
L 203.69507 210.987425 
L 203.705496 209.934052 
L 203.836496 209.934052 
L 203.836496 209.407366 
L 206.955668 209.407366 
L 206.955668 208.88068 
L 216.186901 208.88068 
L 216.186901 208.353994 
L 216.302924 208.353994 
L 216.302924 207.300622 
L 216.430939 207.300622 
L 216.430939 205.720564 
L 216.677898 205.720564 
L 216.677898 205.193878 
L 216.79071 205.193878 
L 216.890566 202.033761 
L 217.13096 202.033761 
L 217.196186 198.873645 
L 217.244946 198.873645 
L 217.244946 197.820273 
L 217.489814 197.820273 
L 217.489814 195.713528 
L 225.581451 195.713528 
L 225.618576 193.606784 
L 225.905584 193.606784 
L 225.94785 192.026726 
L 226.035641 192.026726 
L 226.078927 189.919981 
L 226.27234 189.919981 
L 226.371527 186.759865 
L 226.612797 186.759865 
L 226.648115 184.653121 
L 226.87861 184.653121 
L 226.910534 182.01969 
L 227.783783 182.01969 
L 227.783783 181.493004 
L 228.076318 181.493004 
L 228.076318 180.966318 
L 230.101372 180.966318 
L 230.156701 179.912946 
L 230.355247 179.912946 
L 230.380363 178.332888 
L 230.512386 178.332888 
L 230.512386 177.806202 
L 231.319371 177.806202 
L 231.327763 176.226143 
L 231.568327 176.226143 
L 231.568327 175.699457 
L 232.682482 175.699457 
L 232.704462 174.119399 
L 232.83501 174.119399 
L 232.891049 173.066027 
L 233.019392 173.066027 
L 233.063975 171.485969 
L 233.2265 171.485969 
L 233.26651 169.90591 
L 233.460971 169.90591 
L 233.524538 167.27248 
L 233.607373 167.27248 
L 233.714438 164.63905 
L 233.897323 164.63905 
L 233.919172 163.585677 
L 234.202352 163.585677 
L 234.226887 162.532305 
L 234.338049 162.532305 
L 234.338049 162.005619 
L 234.467753 162.005619 
L 234.467753 161.478933 
L 234.688861 161.478933 
L 234.688861 160.952247 
L 235.309485 160.952247 
L 235.349763 159.898875 
L 235.444857 159.898875 
L 235.447715 158.845503 
L 235.600187 158.845503 
L 235.615567 156.738758 
L 235.944354 156.738758 
L 235.944354 156.212072 
L 236.405061 156.212072 
L 236.405061 155.685386 
L 236.783489 155.685386 
L 236.783489 155.1587 
L 238.172694 155.1587 
L 238.172694 154.632014 
L 238.413225 154.632014 
L 238.449349 153.578642 
L 238.664208 153.578642 
L 238.664208 153.051956 
L 238.829171 153.051956 
L 238.829171 152.52527 
L 238.944982 152.52527 
L 238.944982 151.998584 
L 239.247495 151.998584 
L 239.305998 150.418525 
L 239.381989 150.418525 
L 239.473846 148.311781 
L 240.072886 148.311781 
L 240.072886 147.785095 
L 240.390831 147.785095 
L 240.390831 147.258409 
L 240.527793 147.258409 
L 240.601311 146.205037 
L 240.66128 146.205037 
L 240.66128 145.678351 
L 241.041586 145.678351 
L 241.041586 145.151665 
L 241.185565 145.151665 
L 241.185565 144.624978 
L 241.696318 144.624978 
L 241.707616 143.571606 
L 241.956435 143.571606 
L 242.031886 142.518234 
L 242.178017 142.518234 
L 242.21198 141.464862 
L 242.477034 141.464862 
L 242.58261 140.41149 
L 242.807203 140.41149 
L 242.807203 139.884804 
L 242.919566 139.884804 
L 242.919566 139.358118 
L 243.130526 139.358118 
L 243.171655 138.304745 
L 243.265448 138.304745 
L 243.269762 137.251373 
L 243.65737 137.251373 
L 243.758074 135.671315 
L 244.264294 135.671315 
L 244.264294 135.144629 
L 244.507537 135.144629 
L 244.507537 134.617943 
L 244.622199 134.617943 
L 244.622199 134.091257 
L 244.882137 134.091257 
L 244.965195 131.984513 
L 245.05063 131.984513 
L 245.153489 130.404454 
L 245.266474 130.404454 
L 245.316148 128.29771 
L 245.488774 128.29771 
L 245.574596 126.717652 
L 245.796005 126.717652 
L 245.881081 125.66428 
L 245.934947 125.66428 
L 245.934947 125.137593 
L 246.063431 125.137593 
L 246.121915 124.084221 
L 246.35158 124.084221 
L 246.445371 122.504163 
L 246.553165 122.504163 
L 246.653261 120.397419 
L 246.920571 120.397419 
L 246.920571 119.870733 
L 247.300616 119.870733 
L 247.379135 118.817361 
L 247.728816 118.817361 
L 247.728816 118.290674 
L 247.994143 118.290674 
L 248.097551 116.710616 
L 248.433686 116.710616 
L 248.433686 116.18393 
L 248.559471 116.18393 
L 248.559471 115.657244 
L 248.677634 115.657244 
L 248.736447 113.5505 
L 249.10755 113.5505 
L 249.10755 113.023814 
L 249.254908 113.023814 
L 249.357063 110.917069 
L 249.385969 110.917069 
L 249.490206 109.337011 
L 249.643936 109.337011 
L 249.643936 108.810325 
L 249.859077 108.810325 
L 249.92424 107.756953 
L 250.305786 107.756953 
L 250.392668 106.703581 
L 250.436635 106.703581 
L 250.436635 106.176895 
L 250.689816 106.176895 
L 250.689816 105.650209 
L 250.828879 105.650209 
L 250.888568 104.07015 
L 250.954274 104.07015 
L 250.954274 103.543464 
L 251.22732 103.543464 
L 251.315912 102.490092 
L 251.381906 102.490092 
L 251.381906 101.963406 
L 251.861874 101.963406 
L 251.944106 100.910034 
L 252.190962 100.910034 
L 252.234867 99.856662 
L 252.351838 99.856662 
L 252.384304 98.276603 
L 252.49014 98.276603 
L 252.49014 97.749917 
L 252.621629 97.749917 
L 252.633487 96.696545 
L 252.841161 96.696545 
L 252.845137 95.643173 
L 253.046675 95.643173 
L 253.105689 94.589801 
L 253.188239 94.589801 
L 253.225747 93.009743 
L 253.414477 93.009743 
L 253.414477 92.483056 
L 253.581338 92.483056 
L 253.673779 91.429684 
L 253.814599 91.429684 
L 253.84364 90.376312 
L 253.974977 90.376312 
L 253.974977 89.849626 
L 254.27287 89.849626 
L 254.27287 89.32294 
L 254.434573 89.32294 
L 254.434573 88.796254 
L 254.775047 88.796254 
L 254.775047 88.269568 
L 254.902812 88.269568 
L 254.999534 87.216196 
L 255.123045 87.216196 
L 255.123045 86.68951 
L 255.61976 86.68951 
L 255.683965 85.636137 
L 255.767491 85.636137 
L 255.827462 84.582765 
L 255.977514 84.582765 
L 256.035492 83.002707 
L 256.152259 83.002707 
L 256.152259 82.476021 
L 256.431427 82.476021 
L 256.463043 80.895963 
L 256.679305 80.895963 
L 256.690163 79.842591 
L 256.821261 79.842591 
L 256.908843 78.789218 
L 257.056758 78.789218 
L 257.056758 78.262532 
L 257.207663 78.262532 
L 257.257645 77.20916 
L 257.323997 77.20916 
L 257.323997 76.682474 
L 257.63187 76.682474 
L 257.63187 76.155788 
L 258.006109 76.155788 
L 258.006109 75.629102 
L 258.145235 75.629102 
L 258.145235 75.102416 
L 258.400217 75.102416 
L 258.400217 74.57573 
L 258.756716 74.57573 
L 258.837615 73.522358 
L 258.869433 73.522358 
L 258.951499 71.942299 
L 259.107377 71.942299 
L 259.130491 70.888927 
L 259.3174 70.888927 
L 259.380737 69.835555 
L 259.512101 69.835555 
L 259.512101 69.308869 
L 259.685653 69.308869 
L 259.76499 68.255497 
L 260.12579 68.255497 
L 260.230586 67.202125 
L 261.016252 67.202125 
L 261.032389 66.148752 
L 261.366743 66.148752 
L 261.384203 65.09538 
L 261.551525 65.09538 
L 261.591021 64.042008 
L 262.152226 64.042008 
L 262.152226 63.515322 
L 262.871453 63.515322 
L 262.871453 62.988636 
L 263.04816 62.988636 
L 263.127907 61.935264 
L 263.243318 61.935264 
L 263.243318 61.408578 
L 263.41591 61.408578 
L 263.511167 60.355206 
L 263.712133 60.355206 
L 263.722328 59.301833 
L 264.041675 59.301833 
L 264.114016 57.195089 
L 264.161067 57.195089 
L 264.239794 56.141717 
L 264.410485 56.141717 
L 264.488797 55.088345 
L 264.857185 55.088345 
L 264.929724 53.508287 
L 265.061226 53.508287 
L 265.061226 52.9816 
L 265.183506 52.9816 
L 265.183506 52.454914 
L 265.804354 52.454914 
L 265.804354 51.928228 
L 265.978078 51.928228 
L 265.978078 51.401542 
L 266.168951 51.401542 
L 266.168951 50.874856 
L 266.687696 50.874856 
L 266.763623 49.821484 
L 267.204958 49.821484 
L 267.204958 49.294798 
L 267.424534 49.294798 
L 267.424534 48.768112 
L 267.620564 48.768112 
L 267.662414 47.71474 
L 267.797527 47.71474 
L 267.797527 47.188054 
L 267.972268 47.188054 
L 267.972268 46.661368 
L 268.389527 46.661368 
L 268.389527 46.134681 
L 268.709386 46.134681 
L 268.709386 45.607995 
L 268.927087 45.607995 
L 268.998842 44.554623 
L 269.535571 44.554623 
L 269.56841 42.974565 
L 269.853936 42.974565 
L 269.853936 42.447879 
L 270.156949 42.447879 
L 270.156949 41.921193 
L 270.318709 41.921193 
L 270.38059 40.867821 
L 271.2746 40.867821 
L 271.2746 40.341135 
L 271.406173 40.341135 
L 271.406173 39.814448 
L 271.916085 39.814448 
L 271.916085 39.287762 
L 272.22462 39.287762 
L 272.22462 38.761076 
L 272.64034 38.761076 
L 272.646758 37.707704 
L 272.887308 37.707704 
L 272.89507 36.654332 
L 273.316101 36.654332 
L 273.415343 35.60096 
L 274.331576 35.60096 
L 274.331576 35.074274 
L 274.46082 35.074274 
L 274.46082 34.547588 
L 274.686188 34.547588 
L 274.686188 34.020902 
L 275.077929 34.020902 
L 275.077929 33.494215 
L 275.448521 33.494215 
L 275.448521 32.967529 
L 277.737024 32.967529 
L 277.737024 32.440843 
L 278.468067 32.440843 
L 278.468067 31.914157 
L 282.209494 31.914157 
L 282.209494 31.387471 
L 284.898998 31.387471 
L 284.898998 30.860785 
L 285.606429 30.860785 
L 285.606429 30.334099 
L 338.688 30.334099 
L 338.688 30.334099 
" style="fill:none;stroke:#ff0000;stroke-linecap:square;stroke-width:1.5;"/>
   </g>
   <g id="line2d_44">
    <defs>
     <path d="M 0 -6 
L -5.196152 -3 
L -5.196152 3 
L -0 6 
L 5.196152 3 
L 5.196152 -3 
z
" id="m69b2d96c68" style="stroke:#ff0000;stroke-linejoin:miter;stroke-width:1.5;"/>
    </defs>
    <g>
     <use style="fill-opacity:0;stroke:#ff0000;stroke-linejoin:miter;stroke-width:1.5;" x="134.870259" xlink:href="#m69b2d96c68" y="245.22202"/>
     <use style="fill-opacity:0;stroke:#ff0000;stroke-linejoin:miter;stroke-width:1.5;" x="203.836496" xlink:href="#m69b2d96c68" y="209.934052"/>
     <use style="fill-opacity:0;stroke:#ff0000;stroke-linejoin:miter;stroke-width:1.5;" x="252.234867" xlink:href="#m69b2d96c68" y="99.856662"/>
     <use style="fill-opacity:0;stroke:#ff0000;stroke-linejoin:miter;stroke-width:1.5;" x="285.606429" xlink:href="#m69b2d96c68" y="30.334099"/>
     <use style="fill-opacity:0;stroke:#ff0000;stroke-linejoin:miter;stroke-width:1.5;" x="285.606429" xlink:href="#m69b2d96c68" y="30.334099"/>
     <use style="fill-opacity:0;stroke:#ff0000;stroke-linejoin:miter;stroke-width:1.5;" x="338.688" xlink:href="#m69b2d96c68" y="30.334099"/>
    </g>
   </g>
   <g id="line2d_45">
    <path style="fill:none;stroke:#ff0000;stroke-linecap:square;stroke-width:1.5;"/>
    <g/>
   </g>
   <g id="line2d_46">
    <path clip-path="url(#p5e7ae5b1bb)" d="M 231.282713 177.806202 
" style="fill:none;stroke:#ff0000;stroke-linecap:square;stroke-width:1.5;"/>
    <defs>
     <path d="M -12 12 
L 12 -12 
M -12 -12 
L 12 12 
" id="mc968cc57d7" style="stroke:#ff0000;"/>
    </defs>
    <g clip-path="url(#p5e7ae5b1bb)">
     <use style="fill:#ff0000;stroke:#ff0000;" x="231.282713" xlink:href="#mc968cc57d7" y="177.806202"/>
    </g>
   </g>
   <g id="line2d_47">
    <defs>
     <path d="M 0 1.5 
C 0.397805 1.5 0.77937 1.341951 1.06066 1.06066 
C 1.341951 0.77937 1.5 0.397805 1.5 0 
C 1.5 -0.397805 1.341951 -0.77937 1.06066 -1.06066 
C 0.77937 -1.341951 0.397805 -1.5 0 -1.5 
C -0.397805 -1.5 -0.77937 -1.341951 -1.06066 -1.06066 
C -1.341951 -0.77937 -1.5 -0.397805 -1.5 0 
C -1.5 0.397805 -1.341951 0.77937 -1.06066 1.06066 
C -0.77937 1.341951 -0.397805 1.5 0 1.5 
z
" id="ma56829bc2e" style="stroke:#bebebe;"/>
    </defs>
    <g>
     <use style="fill:#bebebe;stroke:#bebebe;" x="261.327678" xlink:href="#ma56829bc2e" y="241.008531"/>
     <use style="fill:#bebebe;stroke:#bebebe;" x="261.327678" xlink:href="#ma56829bc2e" y="241.008531"/>
    </g>
   </g>
   <g id="line2d_48">
    <path d="M 17.444571 298.944 
L 17.444571 293.677139 
L 63.467834 293.677139 
L 63.467834 286.83022 
L 65.796525 286.83022 
L 65.796525 286.303534 
L 74.263433 286.303534 
L 74.263433 284.723476 
L 74.921597 284.723476 
L 74.921597 281.036673 
L 75.555822 281.036673 
L 75.555822 278.929929 
L 77.330839 278.929929 
L 77.330839 278.403243 
L 81.775977 278.403243 
L 81.775977 277.349871 
L 82.206598 277.349871 
L 82.206598 274.189754 
L 82.626842 274.189754 
L 82.626842 273.136382 
L 83.037197 273.136382 
L 83.037197 272.609696 
L 86.683608 272.609696 
L 86.683608 269.976266 
L 88.255778 269.976266 
L 88.255778 269.449579 
L 90.509138 269.449579 
L 90.509138 268.922893 
L 90.771388 268.922893 
L 90.771388 268.396207 
L 91.284345 268.396207 
L 91.284345 267.342835 
L 91.535274 267.342835 
L 91.535274 266.816149 
L 93.863965 266.816149 
L 93.863965 266.289463 
L 94.294587 266.289463 
L 94.294587 265.762777 
L 94.714831 265.762777 
L 94.714831 265.236091 
L 97.403108 265.236091 
L 97.403108 264.709405 
L 99.097574 264.709405 
L 99.097574 264.182719 
L 117.202696 264.182719 
L 117.202696 263.129347 
L 120.990934 263.129347 
L 120.990934 262.60266 
L 121.931406 262.60266 
L 121.931406 262.075974 
L 122.865118 262.075974 
L 122.865118 261.022602 
L 123.790603 261.022602 
L 123.790603 260.495916 
L 124.891598 260.495916 
L 124.891598 259.96923 
L 125.147256 259.96923 
L 125.147256 259.442544 
L 125.327602 259.442544 
L 125.327602 258.915858 
L 125.961828 258.915858 
L 125.961828 258.389172 
L 126.405947 258.389172 
L 126.405947 257.862486 
L 128.077285 257.862486 
L 128.077285 257.3358 
L 129.686407 257.3358 
L 129.686407 256.809114 
L 131.082294 256.809114 
L 131.082294 256.282427 
L 155.373976 256.282427 
L 155.373976 255.755741 
L 158.705563 255.755741 
L 158.705563 255.229055 
L 158.905533 255.229055 
L 158.905533 254.702369 
L 159.618067 254.702369 
L 159.618067 254.175683 
L 160.456491 254.175683 
L 160.456491 253.648997 
L 161.003133 253.648997 
L 161.003133 253.122311 
L 161.150963 253.122311 
L 161.150963 252.595625 
L 162.268992 252.595625 
L 162.268992 252.068939 
L 162.50469 252.068939 
L 162.50469 251.542253 
L 170.464978 251.542253 
L 170.464978 251.015567 
L 170.867492 251.015567 
L 170.867492 250.488881 
L 184.139683 250.488881 
L 184.139683 249.962195 
L 201.405016 249.962195 
L 201.405016 249.435508 
L 201.834689 249.435508 
L 201.834689 248.908822 
L 202.103066 248.908822 
L 202.124148 247.85545 
L 202.804668 247.85545 
L 202.804668 247.328764 
L 212.24549 247.328764 
L 212.24549 246.802078 
L 221.13888 246.802078 
L 221.13888 246.275392 
L 248.189686 246.275392 
L 248.189686 245.748706 
L 249.194396 245.748706 
L 249.194396 245.22202 
L 249.316648 245.22202 
L 249.414391 243.641962 
L 249.815992 243.641962 
L 249.815992 243.115275 
L 251.255729 243.115275 
L 251.255729 242.588589 
L 260.511046 242.588589 
L 260.5137 241.535217 
L 261.327678 241.535217 
L 261.327678 241.008531 
L 338.688 241.008531 
L 338.688 241.008531 
" style="fill:none;stroke:#bebebe;stroke-linecap:square;stroke-width:1.5;"/>
   </g>
   <g id="line2d_49">
    <defs>
     <path d="M 0 0 
L -6 -0 
M 0 0 
L 3 4.8 
M 0 0 
L 3 -4.8 
" id="m6181eef63a" style="stroke:#bebebe;stroke-width:1.5;"/>
    </defs>
    <g>
     <use style="fill-opacity:0;stroke:#bebebe;stroke-width:1.5;" x="75.555822" xlink:href="#m6181eef63a" y="278.929929"/>
     <use style="fill-opacity:0;stroke:#bebebe;stroke-width:1.5;" x="131.082294" xlink:href="#m6181eef63a" y="256.809114"/>
     <use style="fill-opacity:0;stroke:#bebebe;stroke-width:1.5;" x="184.139683" xlink:href="#m6181eef63a" y="249.962195"/>
     <use style="fill-opacity:0;stroke:#bebebe;stroke-width:1.5;" x="261.327678" xlink:href="#m6181eef63a" y="241.535217"/>
     <use style="fill-opacity:0;stroke:#bebebe;stroke-width:1.5;" x="261.327678" xlink:href="#m6181eef63a" y="241.008531"/>
     <use style="fill-opacity:0;stroke:#bebebe;stroke-width:1.5;" x="338.688" xlink:href="#m6181eef63a" y="241.008531"/>
    </g>
   </g>
   <g id="line2d_50">
    <path style="fill:none;stroke:#bebebe;stroke-linecap:square;stroke-width:1.5;"/>
    <g/>
   </g>
   <g id="line2d_51">
    <path clip-path="url(#p5e7ae5b1bb)" d="M 249.328489 244.695334 
" style="fill:none;stroke:#bebebe;stroke-linecap:square;stroke-width:1.5;"/>
    <defs>
     <path d="M -12 12 
L 12 -12 
M -12 -12 
L 12 12 
" id="me6941c7384" style="stroke:#bebebe;"/>
    </defs>
    <g clip-path="url(#p5e7ae5b1bb)">
     <use style="fill:#bebebe;stroke:#bebebe;" x="249.328489" xlink:href="#me6941c7384" y="244.695334"/>
    </g>
   </g>
   <g id="line2d_52">
    <defs>
     <path d="M 0 1.5 
C 0.397805 1.5 0.77937 1.341951 1.06066 1.06066 
C 1.341951 0.77937 1.5 0.397805 1.5 0 
C 1.5 -0.397805 1.341951 -0.77937 1.06066 -1.06066 
C 0.77937 -1.341951 0.397805 -1.5 0 -1.5 
C -0.397805 -1.5 -0.77937 -1.341951 -1.06066 -1.06066 
C -1.341951 -0.77937 -1.5 -0.397805 -1.5 0 
C -1.5 0.397805 -1.341951 0.77937 -1.06066 1.06066 
C -0.77937 1.341951 -0.397805 1.5 0 1.5 
z
" id="m5315e4cb7c" style="stroke:#6495ed;"/>
    </defs>
    <g>
     <use style="fill:#6495ed;stroke:#6495ed;" x="238.186964" xlink:href="#m5315e4cb7c" y="30.334099"/>
     <use style="fill:#6495ed;stroke:#6495ed;" x="238.186964" xlink:href="#m5315e4cb7c" y="30.334099"/>
    </g>
   </g>
   <g id="line2d_53">
    <path d="M 17.444571 298.944 
L 17.444571 293.677139 
L 63.467834 293.677139 
L 63.467834 286.303534 
L 74.263433 286.303534 
L 74.263433 285.250162 
L 74.921597 285.250162 
L 74.921597 282.090045 
L 75.555822 282.090045 
L 75.555822 278.403243 
L 76.16779 278.403243 
L 76.16779 277.876557 
L 77.330839 277.876557 
L 77.330839 277.349871 
L 81.775977 277.349871 
L 81.775977 276.823185 
L 82.206598 276.823185 
L 82.206598 273.663068 
L 82.626842 273.663068 
L 82.626842 272.609696 
L 83.037197 272.609696 
L 83.037197 272.08301 
L 86.683608 272.08301 
L 86.683608 269.449579 
L 87.952479 269.449579 
L 87.952479 268.922893 
L 88.255778 268.922893 
L 88.255778 268.396207 
L 90.509138 268.396207 
L 90.509138 267.869521 
L 90.771388 267.869521 
L 90.771388 267.342835 
L 91.284345 267.342835 
L 91.284345 266.816149 
L 91.535274 266.816149 
L 91.535274 266.289463 
L 93.644601 266.289463 
L 93.644601 265.762777 
L 93.863965 265.762777 
L 93.863965 265.236091 
L 94.294587 265.236091 
L 94.294587 264.182719 
L 94.714831 264.182719 
L 94.714831 263.656033 
L 97.403108 263.656033 
L 97.403108 263.129347 
L 98.771596 263.129347 
L 98.771596 261.549288 
L 99.097574 261.549288 
L 99.097574 261.022602 
L 100.789049 261.022602 
L 100.789049 259.96923 
L 102.728744 259.96923 
L 102.728744 259.442544 
L 112.877038 259.442544 
L 112.877038 258.915858 
L 113.453595 258.915858 
L 113.453595 257.862486 
L 114.351658 257.862486 
L 114.351658 257.3358 
L 116.262979 257.3358 
L 116.262979 256.282427 
L 117.259781 256.282427 
L 117.259781 255.229055 
L 119.045825 255.229055 
L 119.045825 254.702369 
L 119.602714 254.702369 
L 119.602714 254.175683 
L 123.029641 254.175683 
L 123.029641 253.648997 
L 127.985095 253.648997 
L 127.985095 253.122311 
L 128.797771 253.122311 
L 128.797771 252.068939 
L 129.147151 252.068939 
L 129.147151 251.542253 
L 129.825588 251.542253 
L 129.825588 250.488881 
L 130.822389 250.488881 
L 130.822389 249.962195 
L 131.439773 249.962195 
L 131.439773 249.435508 
L 131.888878 249.435508 
L 131.888878 248.382136 
L 132.181982 248.382136 
L 132.181982 246.275392 
L 132.350712 246.275392 
L 132.350712 244.695334 
L 132.753813 244.695334 
L 132.753813 244.168648 
L 133.0559 244.168648 
L 133.0559 243.641962 
L 133.600213 243.641962 
L 133.600213 242.588589 
L 133.77794 242.588589 
L 133.77794 242.061903 
L 134.062938 242.061903 
L 134.12805 241.008531 
L 134.321942 241.008531 
L 134.321942 239.428473 
L 134.577155 239.428473 
L 134.577155 238.375101 
L 134.766144 238.375101 
L 134.828688 237.321729 
L 134.911732 237.321729 
L 135.014985 236.268356 
L 135.076644 236.268356 
L 135.076644 231.528182 
L 135.341343 231.528182 
L 135.341343 231.001496 
L 135.878591 231.001496 
L 135.97629 229.421437 
L 136.979586 229.421437 
L 137.034686 226.788007 
L 137.107884 226.788007 
L 137.217107 223.101204 
L 137.37967 223.101204 
L 137.433523 220.99446 
L 137.858461 220.99446 
L 137.858461 220.467774 
L 138.01518 220.467774 
L 138.101642 216.780971 
L 138.27329 216.780971 
L 138.27329 216.254285 
L 139.269142 216.254285 
L 139.269142 215.727599 
L 139.413734 215.727599 
L 139.413734 215.200913 
L 139.604677 215.200913 
L 139.604677 214.674227 
L 139.840453 214.674227 
L 139.840453 214.147541 
L 139.964909 214.147541 
L 140.057671 213.094169 
L 140.333034 213.094169 
L 140.423864 212.040797 
L 140.529237 212.040797 
L 140.559227 208.88068 
L 140.752916 208.88068 
L 140.752916 208.353994 
L 141.061324 208.353994 
L 141.148448 205.720564 
L 141.249546 205.720564 
L 141.263941 198.346959 
L 141.492656 198.346959 
L 141.492656 197.820273 
L 141.605898 197.820273 
L 141.605898 197.293586 
L 141.760416 197.293586 
L 141.830201 196.240214 
L 141.996555 196.240214 
L 141.996555 195.713528 
L 142.44601 195.713528 
L 142.486301 194.660156 
L 142.579953 194.660156 
L 142.606619 193.606784 
L 142.89728 193.606784 
L 142.89728 193.080098 
L 143.079756 193.080098 
L 143.079756 192.553412 
L 143.196061 192.553412 
L 143.273169 190.973354 
L 143.40093 190.973354 
L 143.42637 189.919981 
L 143.527762 189.919981 
L 143.527762 187.286551 
L 143.678752 187.286551 
L 143.703791 186.233179 
L 144.026061 186.233179 
L 144.136243 184.126434 
L 144.269971 184.126434 
L 144.342484 183.073062 
L 144.486611 183.073062 
L 144.582038 180.439632 
L 144.91198 180.439632 
L 145.005114 177.806202 
L 145.051495 177.806202 
L 145.051495 177.279515 
L 145.327221 177.279515 
L 145.327221 176.752829 
L 145.463466 176.752829 
L 145.463466 176.226143 
L 145.998045 176.226143 
L 146.08557 175.172771 
L 146.140051 175.172771 
L 146.226867 173.066027 
L 146.367029 173.066027 
L 146.367029 170.959282 
L 146.495417 170.959282 
L 146.495417 168.852538 
L 146.749392 168.852538 
L 146.791364 167.799166 
L 146.864572 167.799166 
L 146.875005 166.745794 
L 146.989362 166.745794 
L 146.989362 166.219108 
L 147.164632 166.219108 
L 147.164632 165.692422 
L 147.368603 165.692422 
L 147.419225 164.112363 
L 147.48985 164.112363 
L 147.540122 163.058991 
L 147.670154 163.058991 
L 147.729844 161.478933 
L 147.78933 161.478933 
L 147.78933 160.952247 
L 147.907696 160.952247 
L 147.907696 160.425561 
L 148.025265 160.425561 
L 148.025265 158.318817 
L 148.142046 158.318817 
L 148.209809 157.265444 
L 148.48777 157.265444 
L 148.554206 156.212072 
L 148.76137 156.212072 
L 148.76137 155.685386 
L 148.87334 155.685386 
L 148.891932 154.105328 
L 148.984596 154.105328 
L 149.095146 151.471897 
L 149.113504 151.471897 
L 149.113504 150.945211 
L 149.314167 150.945211 
L 149.314167 150.418525 
L 149.530471 150.418525 
L 149.637625 148.838467 
L 149.65542 148.838467 
L 149.699829 146.731723 
L 149.814765 146.731723 
L 149.911431 145.678351 
L 150.016276 145.678351 
L 150.077146 143.571606 
L 150.129152 143.571606 
L 150.18963 142.518234 
L 150.615623 142.518234 
L 150.716332 140.938176 
L 150.833094 140.938176 
L 150.882897 136.724687 
L 151.031458 136.724687 
L 151.13797 135.671315 
L 151.178764 135.671315 
L 151.276281 133.037885 
L 151.324836 133.037885 
L 151.421542 131.984513 
L 151.485716 131.984513 
L 151.485716 130.404454 
L 151.660987 130.404454 
L 151.716387 129.351082 
L 151.850203 129.351082 
L 151.850203 128.824396 
L 151.998557 128.824396 
L 152.091608 127.244338 
L 152.184165 127.244338 
L 152.184165 125.66428 
L 152.322086 125.66428 
L 152.322086 125.137593 
L 152.458925 125.137593 
L 152.458925 124.610907 
L 152.914832 124.610907 
L 152.914832 123.557535 
L 153.402218 123.557535 
L 153.402218 123.030849 
L 153.93907 123.030849 
L 154.022346 121.977477 
L 154.249325 121.977477 
L 154.358321 120.924105 
L 154.493614 120.924105 
L 154.601099 119.344047 
L 154.687945 119.344047 
L 154.767728 117.763988 
L 154.93278 117.763988 
L 154.93278 117.237302 
L 155.55245 117.237302 
L 155.55245 116.710616 
L 155.703987 116.710616 
L 155.779264 115.130558 
L 156.193695 115.130558 
L 156.193695 114.603872 
L 158.064083 114.603872 
L 158.064083 114.077186 
L 160.166875 114.077186 
L 160.166875 111.443755 
L 160.398951 111.443755 
L 160.398951 109.863697 
L 160.689494 109.863697 
L 160.689494 109.337011 
L 160.844678 109.337011 
L 160.844678 108.810325 
L 161.012409 108.810325 
L 161.072584 106.176895 
L 161.137157 106.176895 
L 161.183135 105.123522 
L 161.292989 105.123522 
L 161.292989 104.596836 
L 161.515149 104.596836 
L 161.622937 102.490092 
L 161.734513 102.490092 
L 161.783382 101.43672 
L 161.893939 101.43672 
L 161.951153 100.383348 
L 162.104265 100.383348 
L 162.104265 99.856662 
L 162.363654 99.856662 
L 162.41935 97.749917 
L 162.572663 97.749917 
L 162.627697 96.696545 
L 163.58171 96.696545 
L 163.58171 96.169859 
L 167.047033 96.169859 
L 167.125588 95.116487 
L 172.093501 95.116487 
L 172.093501 94.589801 
L 175.409661 94.589801 
L 175.436043 93.536429 
L 179.717325 93.536429 
L 179.813828 91.429684 
L 179.83275 91.429684 
L 179.928618 89.32294 
L 180.079986 89.32294 
L 180.155954 86.68951 
L 180.266984 86.68951 
L 180.377311 85.109451 
L 180.597401 85.109451 
L 180.690668 83.529393 
L 180.708662 83.529393 
L 180.708662 83.002707 
L 181.256013 83.002707 
L 181.256013 82.476021 
L 181.535531 82.476021 
L 181.621081 80.895963 
L 181.663699 80.895963 
L 181.663699 80.369277 
L 183.739965 80.369277 
L 183.816632 78.262532 
L 184.214617 78.262532 
L 184.28801 76.155788 
L 184.639647 76.155788 
L 184.726757 70.362241 
L 184.755301 70.362241 
L 184.826458 69.308869 
L 185.081411 69.308869 
L 185.181429 65.09538 
L 185.19534 65.09538 
L 185.252027 63.515322 
L 188.890569 63.515322 
L 188.950465 62.46195 
L 189.62129 62.46195 
L 189.62129 61.935264 
L 191.098728 61.935264 
L 191.098728 61.408578 
L 193.739623 61.408578 
L 193.748849 59.82852 
L 194.010125 59.82852 
L 194.052712 58.775147 
L 198.424217 58.775147 
L 198.529182 50.874856 
L 198.542123 50.874856 
L 198.652276 48.768112 
L 198.659238 48.768112 
L 198.758011 44.554623 
L 199.734777 44.554623 
L 199.734777 44.027937 
L 200.187448 44.027937 
L 200.234962 42.974565 
L 202.428303 42.974565 
L 202.433479 41.394507 
L 209.462619 41.394507 
L 209.469822 39.814448 
L 213.180547 39.814448 
L 213.180547 39.287762 
L 213.409325 39.287762 
L 213.409325 38.761076 
L 217.81789 38.761076 
L 217.822351 37.707704 
L 220.190142 37.707704 
L 220.190142 37.181018 
L 223.308084 37.181018 
L 223.311601 36.127646 
L 225.68111 36.127646 
L 225.689863 34.547588 
L 226.661341 34.547588 
L 226.661341 34.020902 
L 228.174851 34.020902 
L 228.174851 33.494215 
L 230.639994 33.494215 
L 230.675124 31.914157 
L 231.6554 31.914157 
L 231.6554 31.387471 
L 232.103331 31.387471 
L 232.103331 30.860785 
L 238.186964 30.860785 
L 238.186964 30.334099 
L 338.688 30.334099 
L 338.688 30.334099 
" style="fill:none;stroke:#6495ed;stroke-linecap:square;stroke-width:1.5;"/>
   </g>
   <g id="line2d_54">
    <defs>
     <path d="M -0 6 
L 6 -6 
L -6 -6 
z
" id="mf089e45f16" style="stroke:#6495ed;stroke-linejoin:miter;stroke-width:1.5;"/>
    </defs>
    <g>
     <use style="fill-opacity:0;stroke:#6495ed;stroke-linejoin:miter;stroke-width:1.5;" x="63.467834" xlink:href="#mf089e45f16" y="293.677139"/>
     <use style="fill-opacity:0;stroke:#6495ed;stroke-linejoin:miter;stroke-width:1.5;" x="134.062938" xlink:href="#mf089e45f16" y="242.061903"/>
     <use style="fill-opacity:0;stroke:#6495ed;stroke-linejoin:miter;stroke-width:1.5;" x="180.708662" xlink:href="#mf089e45f16" y="83.529393"/>
     <use style="fill-opacity:0;stroke:#6495ed;stroke-linejoin:miter;stroke-width:1.5;" x="238.186964" xlink:href="#mf089e45f16" y="30.860785"/>
     <use style="fill-opacity:0;stroke:#6495ed;stroke-linejoin:miter;stroke-width:1.5;" x="238.186964" xlink:href="#mf089e45f16" y="30.334099"/>
     <use style="fill-opacity:0;stroke:#6495ed;stroke-linejoin:miter;stroke-width:1.5;" x="338.688" xlink:href="#mf089e45f16" y="30.334099"/>
    </g>
   </g>
   <g id="line2d_55">
    <path style="fill:none;stroke:#6495ed;stroke-linecap:square;stroke-width:1.5;"/>
    <g/>
   </g>
   <g id="line2d_56">
    <path clip-path="url(#p5e7ae5b1bb)" d="M 230.508464 33.494215 
" style="fill:none;stroke:#6495ed;stroke-linecap:square;stroke-width:1.5;"/>
    <defs>
     <path d="M -12 12 
L 12 -12 
M -12 -12 
L 12 12 
" id="mc528332cb1" style="stroke:#6495ed;"/>
    </defs>
    <g clip-path="url(#p5e7ae5b1bb)">
     <use style="fill:#6495ed;stroke:#6495ed;" x="230.508464" xlink:href="#mc528332cb1" y="33.494215"/>
    </g>
   </g>
   <g id="line2d_57">
    <path d="M 338.688 241.008531 
L 369.60768 293.571802 
" style="fill:none;stroke:#bebebe;stroke-linecap:square;stroke-width:1.5;"/>
    <g>
     <use style="fill-opacity:0;stroke:#bebebe;stroke-width:1.5;" x="338.688" xlink:href="#m6181eef63a" y="241.008531"/>
     <use style="fill-opacity:0;stroke:#bebebe;stroke-width:1.5;" x="369.60768" xlink:href="#m6181eef63a" y="293.571802"/>
    </g>
   </g>
   <g id="line2d_58">
    <path d="M 338.688 30.334099 
L 369.60768 207.616634 
" style="fill:none;stroke:#000080;stroke-linecap:square;stroke-width:1.5;"/>
    <g>
     <use style="fill-opacity:0;stroke:#000080;stroke-width:1.5;" x="338.688" xlink:href="#m4614961e8d" y="30.334099"/>
     <use style="fill-opacity:0;stroke:#000080;stroke-width:1.5;" x="369.60768" xlink:href="#m4614961e8d" y="207.616634"/>
    </g>
   </g>
   <g id="line2d_59">
    <path d="M 338.688 30.334099 
L 369.60768 121.661465 
" style="fill:none;stroke:#ff0000;stroke-linecap:square;stroke-width:1.5;"/>
    <g>
     <use style="fill-opacity:0;stroke:#ff0000;stroke-linejoin:miter;stroke-width:1.5;" x="338.688" xlink:href="#m69b2d96c68" y="30.334099"/>
     <use style="fill-opacity:0;stroke:#ff0000;stroke-linejoin:miter;stroke-width:1.5;" x="369.60768" xlink:href="#m69b2d96c68" y="121.661465"/>
    </g>
   </g>
   <g id="line2d_60">
    <path d="M 338.688 30.334099 
L 369.60768 35.706297 
" style="fill:none;stroke:#6495ed;stroke-linecap:square;stroke-width:1.5;"/>
    <g>
     <use style="fill-opacity:0;stroke:#6495ed;stroke-linejoin:miter;stroke-width:1.5;" x="338.688" xlink:href="#mf089e45f16" y="30.334099"/>
     <use style="fill-opacity:0;stroke:#6495ed;stroke-linejoin:miter;stroke-width:1.5;" x="369.60768" xlink:href="#mf089e45f16" y="35.706297"/>
    </g>
   </g>
   <g id="line2d_61">
    <path d="M 338.688 298.944 
L 338.688 30.334099 
" style="fill:none;stroke:#000000;stroke-linecap:square;stroke-width:1.5;"/>
   </g>
   <g id="patch_3">
    <path d="M 57.6 298.944 
L 57.6 27.648 
" style="fill:none;stroke:#000000;stroke-linecap:square;stroke-linejoin:miter;stroke-width:0.8;"/>
   </g>
   <g id="patch_4">
    <path d="M 338.688 298.944 
L 338.688 27.648 
" style="fill:none;stroke:#000000;stroke-linecap:square;stroke-linejoin:miter;stroke-width:0.8;"/>
   </g>
   <g id="patch_5">
    <path d="M 57.6 298.944 
L 338.688 298.944 
" style="fill:none;stroke:#000000;stroke-linecap:square;stroke-linejoin:miter;stroke-width:0.8;"/>
   </g>
   <g id="patch_6">
    <path d="M 57.6 27.648 
L 338.688 27.648 
" style="fill:none;stroke:#000000;stroke-linecap:square;stroke-linejoin:miter;stroke-width:0.8;"/>
   </g>
   <g id="text_13">
    <!-- SLSQP+CMA -->
    <defs>
     <path d="M 53.515625 70.515625 
L 53.515625 60.890625 
Q 47.90625 63.578125 42.921875 64.890625 
Q 37.9375 66.21875 33.296875 66.21875 
Q 25.25 66.21875 20.875 63.09375 
Q 16.5 59.96875 16.5 54.203125 
Q 16.5 49.359375 19.40625 46.890625 
Q 22.3125 44.4375 30.421875 42.921875 
L 36.375 41.703125 
Q 47.40625 39.59375 52.65625 34.296875 
Q 57.90625 29 57.90625 20.125 
Q 57.90625 9.515625 50.796875 4.046875 
Q 43.703125 -1.421875 29.984375 -1.421875 
Q 24.8125 -1.421875 18.96875 -0.25 
Q 13.140625 0.921875 6.890625 3.21875 
L 6.890625 13.375 
Q 12.890625 10.015625 18.65625 8.296875 
Q 24.421875 6.59375 29.984375 6.59375 
Q 38.421875 6.59375 43.015625 9.90625 
Q 47.609375 13.234375 47.609375 19.390625 
Q 47.609375 24.75 44.3125 27.78125 
Q 41.015625 30.8125 33.5 32.328125 
L 27.484375 33.5 
Q 16.453125 35.6875 11.515625 40.375 
Q 6.59375 45.0625 6.59375 53.421875 
Q 6.59375 63.09375 13.40625 68.65625 
Q 20.21875 74.21875 32.171875 74.21875 
Q 37.3125 74.21875 42.625 73.28125 
Q 47.953125 72.359375 53.515625 70.515625 
z
" id="DejaVuSans-83"/>
     <path d="M 9.8125 72.90625 
L 19.671875 72.90625 
L 19.671875 8.296875 
L 55.171875 8.296875 
L 55.171875 0 
L 9.8125 0 
z
" id="DejaVuSans-76"/>
     <path d="M 39.40625 66.21875 
Q 28.65625 66.21875 22.328125 58.203125 
Q 16.015625 50.203125 16.015625 36.375 
Q 16.015625 22.609375 22.328125 14.59375 
Q 28.65625 6.59375 39.40625 6.59375 
Q 50.140625 6.59375 56.421875 14.59375 
Q 62.703125 22.609375 62.703125 36.375 
Q 62.703125 50.203125 56.421875 58.203125 
Q 50.140625 66.21875 39.40625 66.21875 
z
M 53.21875 1.3125 
L 66.21875 -12.890625 
L 54.296875 -12.890625 
L 43.5 -1.21875 
Q 41.890625 -1.3125 41.03125 -1.359375 
Q 40.1875 -1.421875 39.40625 -1.421875 
Q 24.03125 -1.421875 14.8125 8.859375 
Q 5.609375 19.140625 5.609375 36.375 
Q 5.609375 53.65625 14.8125 63.9375 
Q 24.03125 74.21875 39.40625 74.21875 
Q 54.734375 74.21875 63.90625 63.9375 
Q 73.09375 53.65625 73.09375 36.375 
Q 73.09375 23.6875 67.984375 14.640625 
Q 62.890625 5.609375 53.21875 1.3125 
z
" id="DejaVuSans-81"/>
     <path d="M 19.671875 64.796875 
L 19.671875 37.40625 
L 32.078125 37.40625 
Q 38.96875 37.40625 42.71875 40.96875 
Q 46.484375 44.53125 46.484375 51.125 
Q 46.484375 57.671875 42.71875 61.234375 
Q 38.96875 64.796875 32.078125 64.796875 
z
M 9.8125 72.90625 
L 32.078125 72.90625 
Q 44.34375 72.90625 50.609375 67.359375 
Q 56.890625 61.8125 56.890625 51.125 
Q 56.890625 40.328125 50.609375 34.8125 
Q 44.34375 29.296875 32.078125 29.296875 
L 19.671875 29.296875 
L 19.671875 0 
L 9.8125 0 
z
" id="DejaVuSans-80"/>
     <path d="M 46 62.703125 
L 46 35.5 
L 73.1875 35.5 
L 73.1875 27.203125 
L 46 27.203125 
L 46 0 
L 37.796875 0 
L 37.796875 27.203125 
L 10.59375 27.203125 
L 10.59375 35.5 
L 37.796875 35.5 
L 37.796875 62.703125 
z
" id="DejaVuSans-43"/>
     <path d="M 64.40625 67.28125 
L 64.40625 56.890625 
Q 59.421875 61.53125 53.78125 63.8125 
Q 48.140625 66.109375 41.796875 66.109375 
Q 29.296875 66.109375 22.65625 58.46875 
Q 16.015625 50.828125 16.015625 36.375 
Q 16.015625 21.96875 22.65625 14.328125 
Q 29.296875 6.6875 41.796875 6.6875 
Q 48.140625 6.6875 53.78125 8.984375 
Q 59.421875 11.28125 64.40625 15.921875 
L 64.40625 5.609375 
Q 59.234375 2.09375 53.4375 0.328125 
Q 47.65625 -1.421875 41.21875 -1.421875 
Q 24.65625 -1.421875 15.125 8.703125 
Q 5.609375 18.84375 5.609375 36.375 
Q 5.609375 53.953125 15.125 64.078125 
Q 24.65625 74.21875 41.21875 74.21875 
Q 47.75 74.21875 53.53125 72.484375 
Q 59.328125 70.75 64.40625 67.28125 
z
" id="DejaVuSans-67"/>
     <path d="M 9.8125 72.90625 
L 24.515625 72.90625 
L 43.109375 23.296875 
L 61.8125 72.90625 
L 76.515625 72.90625 
L 76.515625 0 
L 66.890625 0 
L 66.890625 64.015625 
L 48.09375 14.015625 
L 38.1875 14.015625 
L 19.390625 64.015625 
L 19.390625 0 
L 9.8125 0 
z
" id="DejaVuSans-77"/>
     <path d="M 34.1875 63.1875 
L 20.796875 26.90625 
L 47.609375 26.90625 
z
M 28.609375 72.90625 
L 39.796875 72.90625 
L 67.578125 0 
L 57.328125 0 
L 50.6875 18.703125 
L 17.828125 18.703125 
L 11.1875 0 
L 0.78125 0 
z
" id="DejaVuSans-65"/>
    </defs>
    <g transform="translate(375.22944 298.262739)scale(0.17 -0.17)">
     <use xlink:href="#DejaVuSans-83"/>
     <use x="63.476562" xlink:href="#DejaVuSans-76"/>
     <use x="119.189453" xlink:href="#DejaVuSans-83"/>
     <use x="182.666016" xlink:href="#DejaVuSans-81"/>
     <use x="261.376953" xlink:href="#DejaVuSans-80"/>
     <use x="321.679688" xlink:href="#DejaVuSans-43"/>
     <use x="405.46875" xlink:href="#DejaVuSans-67"/>
     <use x="475.292969" xlink:href="#DejaVuSans-77"/>
     <use x="561.572266" xlink:href="#DejaVuSans-65"/>
    </g>
   </g>
   <g id="text_14">
    <!-- CMA-ES  2 -->
    <defs>
     <path d="M 9.8125 72.90625 
L 55.90625 72.90625 
L 55.90625 64.59375 
L 19.671875 64.59375 
L 19.671875 43.015625 
L 54.390625 43.015625 
L 54.390625 34.71875 
L 19.671875 34.71875 
L 19.671875 8.296875 
L 56.78125 8.296875 
L 56.78125 0 
L 9.8125 0 
z
" id="DejaVuSans-69"/>
    </defs>
    <g transform="translate(375.22944 212.307571)scale(0.17 -0.17)">
     <use xlink:href="#DejaVuSans-67"/>
     <use x="69.824219" xlink:href="#DejaVuSans-77"/>
     <use x="156.103516" xlink:href="#DejaVuSans-65"/>
     <use x="224.480469" xlink:href="#DejaVuSans-45"/>
     <use x="260.564453" xlink:href="#DejaVuSans-69"/>
     <use x="323.748047" xlink:href="#DejaVuSans-83"/>
     <use x="387.224609" xlink:href="#DejaVuSans-32"/>
     <use x="419.011719" xlink:href="#DejaVuSans-32"/>
     <use x="450.798828" xlink:href="#DejaVuSans-50"/>
    </g>
   </g>
   <g id="text_15">
    <!-- lq-CMA-ES -->
    <defs>
     <path d="M 14.796875 27.296875 
Q 14.796875 17.390625 18.875 11.75 
Q 22.953125 6.109375 30.078125 6.109375 
Q 37.203125 6.109375 41.296875 11.75 
Q 45.40625 17.390625 45.40625 27.296875 
Q 45.40625 37.203125 41.296875 42.84375 
Q 37.203125 48.484375 30.078125 48.484375 
Q 22.953125 48.484375 18.875 42.84375 
Q 14.796875 37.203125 14.796875 27.296875 
z
M 45.40625 8.203125 
Q 42.578125 3.328125 38.25 0.953125 
Q 33.9375 -1.421875 27.875 -1.421875 
Q 17.96875 -1.421875 11.734375 6.484375 
Q 5.515625 14.40625 5.515625 27.296875 
Q 5.515625 40.1875 11.734375 48.09375 
Q 17.96875 56 27.875 56 
Q 33.9375 56 38.25 53.625 
Q 42.578125 51.265625 45.40625 46.390625 
L 45.40625 54.6875 
L 54.390625 54.6875 
L 54.390625 -20.796875 
L 45.40625 -20.796875 
z
" id="DejaVuSans-113"/>
    </defs>
    <g transform="translate(375.22944 126.352403)scale(0.17 -0.17)">
     <use xlink:href="#DejaVuSans-108"/>
     <use x="27.783203" xlink:href="#DejaVuSans-113"/>
     <use x="91.259766" xlink:href="#DejaVuSans-45"/>
     <use x="127.34375" xlink:href="#DejaVuSans-67"/>
     <use x="197.167969" xlink:href="#DejaVuSans-77"/>
     <use x="283.447266" xlink:href="#DejaVuSans-65"/>
     <use x="351.824219" xlink:href="#DejaVuSans-45"/>
     <use x="387.908203" xlink:href="#DejaVuSans-69"/>
     <use x="451.091797" xlink:href="#DejaVuSans-83"/>
    </g>
   </g>
   <g id="text_16">
    <!-- SLSQP-11  -->
    <g transform="translate(375.22944 40.397235)scale(0.17 -0.17)">
     <use xlink:href="#DejaVuSans-83"/>
     <use x="63.476562" xlink:href="#DejaVuSans-76"/>
     <use x="119.189453" xlink:href="#DejaVuSans-83"/>
     <use x="182.666016" xlink:href="#DejaVuSans-81"/>
     <use x="261.376953" xlink:href="#DejaVuSans-80"/>
     <use x="321.648438" xlink:href="#DejaVuSans-45"/>
     <use x="357.732422" xlink:href="#DejaVuSans-49"/>
     <use x="421.355469" xlink:href="#DejaVuSans-49"/>
     <use x="484.978516" xlink:href="#DejaVuSans-32"/>
    </g>
   </g>
   <g id="text_17">
    <!-- bbob f22, 10-D -->
    <defs>
     <path d="M 48.6875 27.296875 
Q 48.6875 37.203125 44.609375 42.84375 
Q 40.53125 48.484375 33.40625 48.484375 
Q 26.265625 48.484375 22.1875 42.84375 
Q 18.109375 37.203125 18.109375 27.296875 
Q 18.109375 17.390625 22.1875 11.75 
Q 26.265625 6.109375 33.40625 6.109375 
Q 40.53125 6.109375 44.609375 11.75 
Q 48.6875 17.390625 48.6875 27.296875 
z
M 18.109375 46.390625 
Q 20.953125 51.265625 25.265625 53.625 
Q 29.59375 56 35.59375 56 
Q 45.5625 56 51.78125 48.09375 
Q 58.015625 40.1875 58.015625 27.296875 
Q 58.015625 14.40625 51.78125 6.484375 
Q 45.5625 -1.421875 35.59375 -1.421875 
Q 29.59375 -1.421875 25.265625 0.953125 
Q 20.953125 3.328125 18.109375 8.203125 
L 18.109375 0 
L 9.078125 0 
L 9.078125 75.984375 
L 18.109375 75.984375 
z
" id="DejaVuSans-98"/>
     <path d="M 19.671875 64.796875 
L 19.671875 8.109375 
L 31.59375 8.109375 
Q 46.6875 8.109375 53.6875 14.9375 
Q 60.6875 21.78125 60.6875 36.53125 
Q 60.6875 51.171875 53.6875 57.984375 
Q 46.6875 64.796875 31.59375 64.796875 
z
M 9.8125 72.90625 
L 30.078125 72.90625 
Q 51.265625 72.90625 61.171875 64.09375 
Q 71.09375 55.28125 71.09375 36.53125 
Q 71.09375 17.671875 61.125 8.828125 
Q 51.171875 0 30.078125 0 
L 9.8125 0 
z
" id="DejaVuSans-68"/>
    </defs>
    <g transform="translate(60.41088 38.111366)scale(0.102 -0.102)">
     <use xlink:href="#DejaVuSans-98"/>
     <use x="63.476562" xlink:href="#DejaVuSans-98"/>
     <use x="126.953125" xlink:href="#DejaVuSans-111"/>
     <use x="188.134766" xlink:href="#DejaVuSans-98"/>
     <use x="251.611328" xlink:href="#DejaVuSans-32"/>
     <use x="283.398438" xlink:href="#DejaVuSans-102"/>
     <use x="318.603516" xlink:href="#DejaVuSans-50"/>
     <use x="382.226562" xlink:href="#DejaVuSans-50"/>
     <use x="445.849609" xlink:href="#DejaVuSans-44"/>
     <use x="477.636719" xlink:href="#DejaVuSans-32"/>
     <use x="509.423828" xlink:href="#DejaVuSans-49"/>
     <use x="573.046875" xlink:href="#DejaVuSans-48"/>
     <use x="636.669922" xlink:href="#DejaVuSans-45"/>
     <use x="672.753906" xlink:href="#DejaVuSans-68"/>
    </g>
    <!-- 51 targets: 100..1e-08 -->
    <defs>
     <path d="M 10.796875 72.90625 
L 49.515625 72.90625 
L 49.515625 64.59375 
L 19.828125 64.59375 
L 19.828125 46.734375 
Q 21.96875 47.46875 24.109375 47.828125 
Q 26.265625 48.1875 28.421875 48.1875 
Q 40.625 48.1875 47.75 41.5 
Q 54.890625 34.8125 54.890625 23.390625 
Q 54.890625 11.625 47.5625 5.09375 
Q 40.234375 -1.421875 26.90625 -1.421875 
Q 22.3125 -1.421875 17.546875 -0.640625 
Q 12.796875 0.140625 7.71875 1.703125 
L 7.71875 11.625 
Q 12.109375 9.234375 16.796875 8.0625 
Q 21.484375 6.890625 26.703125 6.890625 
Q 35.15625 6.890625 40.078125 11.328125 
Q 45.015625 15.765625 45.015625 23.390625 
Q 45.015625 31 40.078125 35.4375 
Q 35.15625 39.890625 26.703125 39.890625 
Q 22.75 39.890625 18.8125 39.015625 
Q 14.890625 38.140625 10.796875 36.28125 
z
" id="DejaVuSans-53"/>
     <path d="M 11.71875 12.40625 
L 22.015625 12.40625 
L 22.015625 0 
L 11.71875 0 
z
M 11.71875 51.703125 
L 22.015625 51.703125 
L 22.015625 39.3125 
L 11.71875 39.3125 
z
" id="DejaVuSans-58"/>
    </defs>
    <g transform="translate(60.41088 49.533135)scale(0.102 -0.102)">
     <use xlink:href="#DejaVuSans-53"/>
     <use x="63.623047" xlink:href="#DejaVuSans-49"/>
     <use x="127.246094" xlink:href="#DejaVuSans-32"/>
     <use x="159.033203" xlink:href="#DejaVuSans-116"/>
     <use x="198.242188" xlink:href="#DejaVuSans-97"/>
     <use x="259.521484" xlink:href="#DejaVuSans-114"/>
     <use x="300.619141" xlink:href="#DejaVuSans-103"/>
     <use x="364.095703" xlink:href="#DejaVuSans-101"/>
     <use x="425.619141" xlink:href="#DejaVuSans-116"/>
     <use x="464.828125" xlink:href="#DejaVuSans-115"/>
     <use x="516.927734" xlink:href="#DejaVuSans-58"/>
     <use x="550.619141" xlink:href="#DejaVuSans-32"/>
     <use x="582.40625" xlink:href="#DejaVuSans-49"/>
     <use x="646.029297" xlink:href="#DejaVuSans-48"/>
     <use x="709.652344" xlink:href="#DejaVuSans-48"/>
     <use x="773.275391" xlink:href="#DejaVuSans-46"/>
     <use x="805.0625" xlink:href="#DejaVuSans-46"/>
     <use x="836.849609" xlink:href="#DejaVuSans-49"/>
     <use x="900.472656" xlink:href="#DejaVuSans-101"/>
     <use x="961.996094" xlink:href="#DejaVuSans-45"/>
     <use x="998.080078" xlink:href="#DejaVuSans-48"/>
     <use x="1061.703125" xlink:href="#DejaVuSans-56"/>
    </g>
    <!-- 15 instances -->
    <g transform="translate(60.41088 60.954904)scale(0.102 -0.102)">
     <use xlink:href="#DejaVuSans-49"/>
     <use x="63.623047" xlink:href="#DejaVuSans-53"/>
     <use x="127.246094" xlink:href="#DejaVuSans-32"/>
     <use x="159.033203" xlink:href="#DejaVuSans-105"/>
     <use x="186.816406" xlink:href="#DejaVuSans-110"/>
     <use x="250.195312" xlink:href="#DejaVuSans-115"/>
     <use x="302.294922" xlink:href="#DejaVuSans-116"/>
     <use x="341.503906" xlink:href="#DejaVuSans-97"/>
     <use x="402.783203" xlink:href="#DejaVuSans-110"/>
     <use x="466.162109" xlink:href="#DejaVuSans-99"/>
     <use x="521.142578" xlink:href="#DejaVuSans-101"/>
     <use x="582.666016" xlink:href="#DejaVuSans-115"/>
    </g>
   </g>
   <g id="text_18">
    <!-- v2.3.2 -->
    <defs>
     <path d="M 40.578125 39.3125 
Q 47.65625 37.796875 51.625 33 
Q 55.609375 28.21875 55.609375 21.1875 
Q 55.609375 10.40625 48.1875 4.484375 
Q 40.765625 -1.421875 27.09375 -1.421875 
Q 22.515625 -1.421875 17.65625 -0.515625 
Q 12.796875 0.390625 7.625 2.203125 
L 7.625 11.71875 
Q 11.71875 9.328125 16.59375 8.109375 
Q 21.484375 6.890625 26.8125 6.890625 
Q 36.078125 6.890625 40.9375 10.546875 
Q 45.796875 14.203125 45.796875 21.1875 
Q 45.796875 27.640625 41.28125 31.265625 
Q 36.765625 34.90625 28.71875 34.90625 
L 20.21875 34.90625 
L 20.21875 43.015625 
L 29.109375 43.015625 
Q 36.375 43.015625 40.234375 45.921875 
Q 44.09375 48.828125 44.09375 54.296875 
Q 44.09375 59.90625 40.109375 62.90625 
Q 36.140625 65.921875 28.71875 65.921875 
Q 24.65625 65.921875 20.015625 65.03125 
Q 15.375 64.15625 9.8125 62.3125 
L 9.8125 71.09375 
Q 15.4375 72.65625 20.34375 73.4375 
Q 25.25 74.21875 29.59375 74.21875 
Q 40.828125 74.21875 47.359375 69.109375 
Q 53.90625 64.015625 53.90625 55.328125 
Q 53.90625 49.265625 50.4375 45.09375 
Q 46.96875 40.921875 40.578125 39.3125 
z
" id="DejaVuSans-51"/>
    </defs>
    <g style="fill:#808080;" transform="translate(182.46275 294.151352)scale(0.1 -0.1)">
     <use xlink:href="#DejaVuSans-118"/>
     <use x="59.179688" xlink:href="#DejaVuSans-50"/>
     <use x="122.802734" xlink:href="#DejaVuSans-46"/>
     <use x="154.589844" xlink:href="#DejaVuSans-51"/>
     <use x="218.212891" xlink:href="#DejaVuSans-46"/>
     <use x="250" xlink:href="#DejaVuSans-50"/>
    </g>
   </g>
   <g id="text_19">
    <!-- 22 Gallagher 21 peaks -->
    <defs>
     <path d="M 59.515625 10.40625 
L 59.515625 29.984375 
L 43.40625 29.984375 
L 43.40625 38.09375 
L 69.28125 38.09375 
L 69.28125 6.78125 
Q 63.578125 2.734375 56.6875 0.65625 
Q 49.8125 -1.421875 42 -1.421875 
Q 24.90625 -1.421875 15.25 8.5625 
Q 5.609375 18.5625 5.609375 36.375 
Q 5.609375 54.25 15.25 64.234375 
Q 24.90625 74.21875 42 74.21875 
Q 49.125 74.21875 55.546875 72.453125 
Q 61.96875 70.703125 67.390625 67.28125 
L 67.390625 56.78125 
Q 61.921875 61.421875 55.765625 63.765625 
Q 49.609375 66.109375 42.828125 66.109375 
Q 29.4375 66.109375 22.71875 58.640625 
Q 16.015625 51.171875 16.015625 36.375 
Q 16.015625 21.625 22.71875 14.15625 
Q 29.4375 6.6875 42.828125 6.6875 
Q 48.046875 6.6875 52.140625 7.59375 
Q 56.25 8.5 59.515625 10.40625 
z
" id="DejaVuSans-71"/>
     <path d="M 54.890625 33.015625 
L 54.890625 0 
L 45.90625 0 
L 45.90625 32.71875 
Q 45.90625 40.484375 42.875 44.328125 
Q 39.84375 48.1875 33.796875 48.1875 
Q 26.515625 48.1875 22.3125 43.546875 
Q 18.109375 38.921875 18.109375 30.90625 
L 18.109375 0 
L 9.078125 0 
L 9.078125 75.984375 
L 18.109375 75.984375 
L 18.109375 46.1875 
Q 21.34375 51.125 25.703125 53.5625 
Q 30.078125 56 35.796875 56 
Q 45.21875 56 50.046875 50.171875 
Q 54.890625 44.34375 54.890625 33.015625 
z
" id="DejaVuSans-104"/>
     <path d="M 9.078125 75.984375 
L 18.109375 75.984375 
L 18.109375 31.109375 
L 44.921875 54.6875 
L 56.390625 54.6875 
L 27.390625 29.109375 
L 57.625 0 
L 45.90625 0 
L 18.109375 26.703125 
L 18.109375 0 
L 9.078125 0 
z
" id="DejaVuSans-107"/>
    </defs>
    <g transform="translate(85.019 21.648)scale(0.2 -0.2)">
     <use xlink:href="#DejaVuSans-50"/>
     <use x="63.623047" xlink:href="#DejaVuSans-50"/>
     <use x="127.246094" xlink:href="#DejaVuSans-32"/>
     <use x="159.033203" xlink:href="#DejaVuSans-71"/>
     <use x="236.523438" xlink:href="#DejaVuSans-97"/>
     <use x="297.802734" xlink:href="#DejaVuSans-108"/>
     <use x="325.585938" xlink:href="#DejaVuSans-108"/>
     <use x="353.369141" xlink:href="#DejaVuSans-97"/>
     <use x="414.648438" xlink:href="#DejaVuSans-103"/>
     <use x="478.125" xlink:href="#DejaVuSans-104"/>
     <use x="541.503906" xlink:href="#DejaVuSans-101"/>
     <use x="603.027344" xlink:href="#DejaVuSans-114"/>
     <use x="644.140625" xlink:href="#DejaVuSans-32"/>
     <use x="675.927734" xlink:href="#DejaVuSans-50"/>
     <use x="739.550781" xlink:href="#DejaVuSans-49"/>
     <use x="803.173828" xlink:href="#DejaVuSans-32"/>
     <use x="834.960938" xlink:href="#DejaVuSans-112"/>
     <use x="898.4375" xlink:href="#DejaVuSans-101"/>
     <use x="959.960938" xlink:href="#DejaVuSans-97"/>
     <use x="1021.240234" xlink:href="#DejaVuSans-107"/>
     <use x="1079.150391" xlink:href="#DejaVuSans-115"/>
    </g>
   </g>
  </g>
 </g>
 <defs>
  <clipPath id="p5e7ae5b1bb">
   <rect height="271.296" width="281.088" x="57.6" y="27.648"/>
  </clipPath>
 </defs>
</svg>
