<?xml version="1.0" encoding="utf-8" standalone="no"?>
<!DOCTYPE svg PUBLIC "-//W3C//DTD SVG 1.1//EN"
  "http://www.w3.org/Graphics/SVG/1.1/DTD/svg11.dtd">
<!-- Created with matplotlib (https://matplotlib.org/) -->
<svg height="345.6pt" version="1.1" viewBox="0 0 460.8 345.6" width="460.8pt" xmlns="http://www.w3.org/2000/svg" xmlns:xlink="http://www.w3.org/1999/xlink">
 <defs>
  <style type="text/css">
*{stroke-linecap:butt;stroke-linejoin:round;}
  </style>
 </defs>
 <g id="figure_1">
  <g id="patch_1">
   <path d="M 0 345.6 
L 460.8 345.6 
L 460.8 0 
L 0 0 
z
" style="fill:#ffffff;"/>
  </g>
  <g id="axes_1">
   <g id="patch_2">
    <path d="M 57.6 298.944 
L 338.688 298.944 
L 338.688 27.648 
L 57.6 27.648 
z
" style="fill:#ffffff;"/>
   </g>
   <g id="matplotlib.axis_1">
    <g id="xtick_1">
     <g id="line2d_1">
      <path clip-path="url(#p472fabfb54)" d="M 57.6 298.944 
L 57.6 27.648 
" style="fill:none;stroke:#b0b0b0;stroke-linecap:square;stroke-width:0.8;"/>
     </g>
     <g id="line2d_2">
      <defs>
       <path d="M 0 0 
L 0 3.5 
" id="mb5da683480" style="stroke:#000000;stroke-width:0.8;"/>
      </defs>
      <g>
       <use style="stroke:#000000;stroke-width:0.8;" x="57.6" xlink:href="#mb5da683480" y="298.944"/>
      </g>
     </g>
     <g id="text_1">
      <!-- 0 -->
      <defs>
       <path d="M 31.78125 66.40625 
Q 24.171875 66.40625 20.328125 58.90625 
Q 16.5 51.421875 16.5 36.375 
Q 16.5 21.390625 20.328125 13.890625 
Q 24.171875 6.390625 31.78125 6.390625 
Q 39.453125 6.390625 43.28125 13.890625 
Q 47.125 21.390625 47.125 36.375 
Q 47.125 51.421875 43.28125 58.90625 
Q 39.453125 66.40625 31.78125 66.40625 
z
M 31.78125 74.21875 
Q 44.046875 74.21875 50.515625 64.515625 
Q 56.984375 54.828125 56.984375 36.375 
Q 56.984375 17.96875 50.515625 8.265625 
Q 44.046875 -1.421875 31.78125 -1.421875 
Q 19.53125 -1.421875 13.0625 8.265625 
Q 6.59375 17.96875 6.59375 36.375 
Q 6.59375 54.828125 13.0625 64.515625 
Q 19.53125 74.21875 31.78125 74.21875 
z
" id="DejaVuSans-48"/>
      </defs>
      <g transform="translate(51.2375 321.140875)scale(0.2 -0.2)">
       <use xlink:href="#DejaVuSans-48"/>
      </g>
     </g>
    </g>
    <g id="xtick_2">
     <g id="line2d_3">
      <path clip-path="url(#p472fabfb54)" d="M 137.910857 298.944 
L 137.910857 27.648 
" style="fill:none;stroke:#b0b0b0;stroke-linecap:square;stroke-width:0.8;"/>
     </g>
     <g id="line2d_4">
      <g>
       <use style="stroke:#000000;stroke-width:0.8;" x="137.910857" xlink:href="#mb5da683480" y="298.944"/>
      </g>
     </g>
     <g id="text_2">
      <!-- 2 -->
      <defs>
       <path d="M 19.1875 8.296875 
L 53.609375 8.296875 
L 53.609375 0 
L 7.328125 0 
L 7.328125 8.296875 
Q 12.9375 14.109375 22.625 23.890625 
Q 32.328125 33.6875 34.8125 36.53125 
Q 39.546875 41.84375 41.421875 45.53125 
Q 43.3125 49.21875 43.3125 52.78125 
Q 43.3125 58.59375 39.234375 62.25 
Q 35.15625 65.921875 28.609375 65.921875 
Q 23.96875 65.921875 18.8125 64.3125 
Q 13.671875 62.703125 7.8125 59.421875 
L 7.8125 69.390625 
Q 13.765625 71.78125 18.9375 73 
Q 24.125 74.21875 28.421875 74.21875 
Q 39.75 74.21875 46.484375 68.546875 
Q 53.21875 62.890625 53.21875 53.421875 
Q 53.21875 48.921875 51.53125 44.890625 
Q 49.859375 40.875 45.40625 35.40625 
Q 44.1875 33.984375 37.640625 27.21875 
Q 31.109375 20.453125 19.1875 8.296875 
z
" id="DejaVuSans-50"/>
      </defs>
      <g transform="translate(131.548357 321.140875)scale(0.2 -0.2)">
       <use xlink:href="#DejaVuSans-50"/>
      </g>
     </g>
    </g>
    <g id="xtick_3">
     <g id="line2d_5">
      <path clip-path="url(#p472fabfb54)" d="M 218.221714 298.944 
L 218.221714 27.648 
" style="fill:none;stroke:#b0b0b0;stroke-linecap:square;stroke-width:0.8;"/>
     </g>
     <g id="line2d_6">
      <g>
       <use style="stroke:#000000;stroke-width:0.8;" x="218.221714" xlink:href="#mb5da683480" y="298.944"/>
      </g>
     </g>
     <g id="text_3">
      <!-- 4 -->
      <defs>
       <path d="M 37.796875 64.3125 
L 12.890625 25.390625 
L 37.796875 25.390625 
z
M 35.203125 72.90625 
L 47.609375 72.90625 
L 47.609375 25.390625 
L 58.015625 25.390625 
L 58.015625 17.1875 
L 47.609375 17.1875 
L 47.609375 0 
L 37.796875 0 
L 37.796875 17.1875 
L 4.890625 17.1875 
L 4.890625 26.703125 
z
" id="DejaVuSans-52"/>
      </defs>
      <g transform="translate(211.859214 321.140875)scale(0.2 -0.2)">
       <use xlink:href="#DejaVuSans-52"/>
      </g>
     </g>
    </g>
    <g id="xtick_4">
     <g id="line2d_7">
      <path clip-path="url(#p472fabfb54)" d="M 298.532571 298.944 
L 298.532571 27.648 
" style="fill:none;stroke:#b0b0b0;stroke-linecap:square;stroke-width:0.8;"/>
     </g>
     <g id="line2d_8">
      <g>
       <use style="stroke:#000000;stroke-width:0.8;" x="298.532571" xlink:href="#mb5da683480" y="298.944"/>
      </g>
     </g>
     <g id="text_4">
      <!-- 6 -->
      <defs>
       <path d="M 33.015625 40.375 
Q 26.375 40.375 22.484375 35.828125 
Q 18.609375 31.296875 18.609375 23.390625 
Q 18.609375 15.53125 22.484375 10.953125 
Q 26.375 6.390625 33.015625 6.390625 
Q 39.65625 6.390625 43.53125 10.953125 
Q 47.40625 15.53125 47.40625 23.390625 
Q 47.40625 31.296875 43.53125 35.828125 
Q 39.65625 40.375 33.015625 40.375 
z
M 52.59375 71.296875 
L 52.59375 62.3125 
Q 48.875 64.0625 45.09375 64.984375 
Q 41.3125 65.921875 37.59375 65.921875 
Q 27.828125 65.921875 22.671875 59.328125 
Q 17.53125 52.734375 16.796875 39.40625 
Q 19.671875 43.65625 24.015625 45.921875 
Q 28.375 48.1875 33.59375 48.1875 
Q 44.578125 48.1875 50.953125 41.515625 
Q 57.328125 34.859375 57.328125 23.390625 
Q 57.328125 12.15625 50.6875 5.359375 
Q 44.046875 -1.421875 33.015625 -1.421875 
Q 20.359375 -1.421875 13.671875 8.265625 
Q 6.984375 17.96875 6.984375 36.375 
Q 6.984375 53.65625 15.1875 63.9375 
Q 23.390625 74.21875 37.203125 74.21875 
Q 40.921875 74.21875 44.703125 73.484375 
Q 48.484375 72.75 52.59375 71.296875 
z
" id="DejaVuSans-54"/>
      </defs>
      <g transform="translate(292.170071 321.140875)scale(0.2 -0.2)">
       <use xlink:href="#DejaVuSans-54"/>
      </g>
     </g>
    </g>
    <g id="xtick_5">
     <g id="line2d_9">
      <path clip-path="url(#p472fabfb54)" d="M 57.6 298.944 
L 57.6 27.648 
" style="fill:none;stroke:#b0b0b0;stroke-linecap:square;stroke-width:0.8;"/>
     </g>
     <g id="line2d_10">
      <defs>
       <path d="M 0 0 
L 0 2 
" id="m6bfdb003d8" style="stroke:#000000;stroke-width:0.6;"/>
      </defs>
      <g>
       <use style="stroke:#000000;stroke-width:0.6;" x="57.6" xlink:href="#m6bfdb003d8" y="298.944"/>
      </g>
     </g>
    </g>
    <g id="xtick_6">
     <g id="line2d_11">
      <path clip-path="url(#p472fabfb54)" d="M 97.755429 298.944 
L 97.755429 27.648 
" style="fill:none;stroke:#b0b0b0;stroke-linecap:square;stroke-width:0.8;"/>
     </g>
     <g id="line2d_12">
      <g>
       <use style="stroke:#000000;stroke-width:0.6;" x="97.755429" xlink:href="#m6bfdb003d8" y="298.944"/>
      </g>
     </g>
    </g>
    <g id="xtick_7">
     <g id="line2d_13">
      <path clip-path="url(#p472fabfb54)" d="M 137.910857 298.944 
L 137.910857 27.648 
" style="fill:none;stroke:#b0b0b0;stroke-linecap:square;stroke-width:0.8;"/>
     </g>
     <g id="line2d_14">
      <g>
       <use style="stroke:#000000;stroke-width:0.6;" x="137.910857" xlink:href="#m6bfdb003d8" y="298.944"/>
      </g>
     </g>
    </g>
    <g id="xtick_8">
     <g id="line2d_15">
      <path clip-path="url(#p472fabfb54)" d="M 178.066286 298.944 
L 178.066286 27.648 
" style="fill:none;stroke:#b0b0b0;stroke-linecap:square;stroke-width:0.8;"/>
     </g>
     <g id="line2d_16">
      <g>
       <use style="stroke:#000000;stroke-width:0.6;" x="178.066286" xlink:href="#m6bfdb003d8" y="298.944"/>
      </g>
     </g>
    </g>
    <g id="xtick_9">
     <g id="line2d_17">
      <path clip-path="url(#p472fabfb54)" d="M 218.221714 298.944 
L 218.221714 27.648 
" style="fill:none;stroke:#b0b0b0;stroke-linecap:square;stroke-width:0.8;"/>
     </g>
     <g id="line2d_18">
      <g>
       <use style="stroke:#000000;stroke-width:0.6;" x="218.221714" xlink:href="#m6bfdb003d8" y="298.944"/>
      </g>
     </g>
    </g>
    <g id="xtick_10">
     <g id="line2d_19">
      <path clip-path="url(#p472fabfb54)" d="M 258.377143 298.944 
L 258.377143 27.648 
" style="fill:none;stroke:#b0b0b0;stroke-linecap:square;stroke-width:0.8;"/>
     </g>
     <g id="line2d_20">
      <g>
       <use style="stroke:#000000;stroke-width:0.6;" x="258.377143" xlink:href="#m6bfdb003d8" y="298.944"/>
      </g>
     </g>
    </g>
    <g id="xtick_11">
     <g id="line2d_21">
      <path clip-path="url(#p472fabfb54)" d="M 298.532571 298.944 
L 298.532571 27.648 
" style="fill:none;stroke:#b0b0b0;stroke-linecap:square;stroke-width:0.8;"/>
     </g>
     <g id="line2d_22">
      <g>
       <use style="stroke:#000000;stroke-width:0.6;" x="298.532571" xlink:href="#m6bfdb003d8" y="298.944"/>
      </g>
     </g>
    </g>
    <g id="xtick_12">
     <g id="line2d_23">
      <path clip-path="url(#p472fabfb54)" d="M 338.688 298.944 
L 338.688 27.648 
" style="fill:none;stroke:#b0b0b0;stroke-linecap:square;stroke-width:0.8;"/>
     </g>
     <g id="line2d_24">
      <g>
       <use style="stroke:#000000;stroke-width:0.6;" x="338.688" xlink:href="#m6bfdb003d8" y="298.944"/>
      </g>
     </g>
    </g>
    <g id="text_5">
     <!-- log10(# f-evals / dimension) -->
     <defs>
      <path d="M 9.421875 75.984375 
L 18.40625 75.984375 
L 18.40625 0 
L 9.421875 0 
z
" id="DejaVuSans-108"/>
      <path d="M 30.609375 48.390625 
Q 23.390625 48.390625 19.1875 42.75 
Q 14.984375 37.109375 14.984375 27.296875 
Q 14.984375 17.484375 19.15625 11.84375 
Q 23.34375 6.203125 30.609375 6.203125 
Q 37.796875 6.203125 41.984375 11.859375 
Q 46.1875 17.53125 46.1875 27.296875 
Q 46.1875 37.015625 41.984375 42.703125 
Q 37.796875 48.390625 30.609375 48.390625 
z
M 30.609375 56 
Q 42.328125 56 49.015625 48.375 
Q 55.71875 40.765625 55.71875 27.296875 
Q 55.71875 13.875 49.015625 6.21875 
Q 42.328125 -1.421875 30.609375 -1.421875 
Q 18.84375 -1.421875 12.171875 6.21875 
Q 5.515625 13.875 5.515625 27.296875 
Q 5.515625 40.765625 12.171875 48.375 
Q 18.84375 56 30.609375 56 
z
" id="DejaVuSans-111"/>
      <path d="M 45.40625 27.984375 
Q 45.40625 37.75 41.375 43.109375 
Q 37.359375 48.484375 30.078125 48.484375 
Q 22.859375 48.484375 18.828125 43.109375 
Q 14.796875 37.75 14.796875 27.984375 
Q 14.796875 18.265625 18.828125 12.890625 
Q 22.859375 7.515625 30.078125 7.515625 
Q 37.359375 7.515625 41.375 12.890625 
Q 45.40625 18.265625 45.40625 27.984375 
z
M 54.390625 6.78125 
Q 54.390625 -7.171875 48.1875 -13.984375 
Q 42 -20.796875 29.203125 -20.796875 
Q 24.46875 -20.796875 20.265625 -20.09375 
Q 16.0625 -19.390625 12.109375 -17.921875 
L 12.109375 -9.1875 
Q 16.0625 -11.328125 19.921875 -12.34375 
Q 23.78125 -13.375 27.78125 -13.375 
Q 36.625 -13.375 41.015625 -8.765625 
Q 45.40625 -4.15625 45.40625 5.171875 
L 45.40625 9.625 
Q 42.625 4.78125 38.28125 2.390625 
Q 33.9375 0 27.875 0 
Q 17.828125 0 11.671875 7.65625 
Q 5.515625 15.328125 5.515625 27.984375 
Q 5.515625 40.671875 11.671875 48.328125 
Q 17.828125 56 27.875 56 
Q 33.9375 56 38.28125 53.609375 
Q 42.625 51.21875 45.40625 46.390625 
L 45.40625 54.6875 
L 54.390625 54.6875 
z
" id="DejaVuSans-103"/>
      <path d="M 12.40625 8.296875 
L 28.515625 8.296875 
L 28.515625 63.921875 
L 10.984375 60.40625 
L 10.984375 69.390625 
L 28.421875 72.90625 
L 38.28125 72.90625 
L 38.28125 8.296875 
L 54.390625 8.296875 
L 54.390625 0 
L 12.40625 0 
z
" id="DejaVuSans-49"/>
      <path d="M 31 75.875 
Q 24.46875 64.65625 21.28125 53.65625 
Q 18.109375 42.671875 18.109375 31.390625 
Q 18.109375 20.125 21.3125 9.0625 
Q 24.515625 -2 31 -13.1875 
L 23.1875 -13.1875 
Q 15.875 -1.703125 12.234375 9.375 
Q 8.59375 20.453125 8.59375 31.390625 
Q 8.59375 42.28125 12.203125 53.3125 
Q 15.828125 64.359375 23.1875 75.875 
z
" id="DejaVuSans-40"/>
      <path d="M 51.125 44 
L 36.921875 44 
L 32.8125 27.6875 
L 47.125 27.6875 
z
M 43.796875 71.78125 
L 38.71875 51.515625 
L 52.984375 51.515625 
L 58.109375 71.78125 
L 65.921875 71.78125 
L 60.890625 51.515625 
L 76.125 51.515625 
L 76.125 44 
L 58.984375 44 
L 54.984375 27.6875 
L 70.515625 27.6875 
L 70.515625 20.21875 
L 53.078125 20.21875 
L 48 0 
L 40.1875 0 
L 45.21875 20.21875 
L 30.90625 20.21875 
L 25.875 0 
L 18.015625 0 
L 23.09375 20.21875 
L 7.71875 20.21875 
L 7.71875 27.6875 
L 24.90625 27.6875 
L 29 44 
L 13.28125 44 
L 13.28125 51.515625 
L 30.90625 51.515625 
L 35.890625 71.78125 
z
" id="DejaVuSans-35"/>
      <path id="DejaVuSans-32"/>
      <path d="M 37.109375 75.984375 
L 37.109375 68.5 
L 28.515625 68.5 
Q 23.6875 68.5 21.796875 66.546875 
Q 19.921875 64.59375 19.921875 59.515625 
L 19.921875 54.6875 
L 34.71875 54.6875 
L 34.71875 47.703125 
L 19.921875 47.703125 
L 19.921875 0 
L 10.890625 0 
L 10.890625 47.703125 
L 2.296875 47.703125 
L 2.296875 54.6875 
L 10.890625 54.6875 
L 10.890625 58.5 
Q 10.890625 67.625 15.140625 71.796875 
Q 19.390625 75.984375 28.609375 75.984375 
z
" id="DejaVuSans-102"/>
      <path d="M 4.890625 31.390625 
L 31.203125 31.390625 
L 31.203125 23.390625 
L 4.890625 23.390625 
z
" id="DejaVuSans-45"/>
      <path d="M 56.203125 29.59375 
L 56.203125 25.203125 
L 14.890625 25.203125 
Q 15.484375 15.921875 20.484375 11.0625 
Q 25.484375 6.203125 34.421875 6.203125 
Q 39.59375 6.203125 44.453125 7.46875 
Q 49.3125 8.734375 54.109375 11.28125 
L 54.109375 2.78125 
Q 49.265625 0.734375 44.1875 -0.34375 
Q 39.109375 -1.421875 33.890625 -1.421875 
Q 20.796875 -1.421875 13.15625 6.1875 
Q 5.515625 13.8125 5.515625 26.8125 
Q 5.515625 40.234375 12.765625 48.109375 
Q 20.015625 56 32.328125 56 
Q 43.359375 56 49.78125 48.890625 
Q 56.203125 41.796875 56.203125 29.59375 
z
M 47.21875 32.234375 
Q 47.125 39.59375 43.09375 43.984375 
Q 39.0625 48.390625 32.421875 48.390625 
Q 24.90625 48.390625 20.390625 44.140625 
Q 15.875 39.890625 15.1875 32.171875 
z
" id="DejaVuSans-101"/>
      <path d="M 2.984375 54.6875 
L 12.5 54.6875 
L 29.59375 8.796875 
L 46.6875 54.6875 
L 56.203125 54.6875 
L 35.6875 0 
L 23.484375 0 
z
" id="DejaVuSans-118"/>
      <path d="M 34.28125 27.484375 
Q 23.390625 27.484375 19.1875 25 
Q 14.984375 22.515625 14.984375 16.5 
Q 14.984375 11.71875 18.140625 8.90625 
Q 21.296875 6.109375 26.703125 6.109375 
Q 34.1875 6.109375 38.703125 11.40625 
Q 43.21875 16.703125 43.21875 25.484375 
L 43.21875 27.484375 
z
M 52.203125 31.203125 
L 52.203125 0 
L 43.21875 0 
L 43.21875 8.296875 
Q 40.140625 3.328125 35.546875 0.953125 
Q 30.953125 -1.421875 24.3125 -1.421875 
Q 15.921875 -1.421875 10.953125 3.296875 
Q 6 8.015625 6 15.921875 
Q 6 25.140625 12.171875 29.828125 
Q 18.359375 34.515625 30.609375 34.515625 
L 43.21875 34.515625 
L 43.21875 35.40625 
Q 43.21875 41.609375 39.140625 45 
Q 35.0625 48.390625 27.6875 48.390625 
Q 23 48.390625 18.546875 47.265625 
Q 14.109375 46.140625 10.015625 43.890625 
L 10.015625 52.203125 
Q 14.9375 54.109375 19.578125 55.046875 
Q 24.21875 56 28.609375 56 
Q 40.484375 56 46.34375 49.84375 
Q 52.203125 43.703125 52.203125 31.203125 
z
" id="DejaVuSans-97"/>
      <path d="M 44.28125 53.078125 
L 44.28125 44.578125 
Q 40.484375 46.53125 36.375 47.5 
Q 32.28125 48.484375 27.875 48.484375 
Q 21.1875 48.484375 17.84375 46.4375 
Q 14.5 44.390625 14.5 40.28125 
Q 14.5 37.15625 16.890625 35.375 
Q 19.28125 33.59375 26.515625 31.984375 
L 29.59375 31.296875 
Q 39.15625 29.25 43.1875 25.515625 
Q 47.21875 21.78125 47.21875 15.09375 
Q 47.21875 7.46875 41.1875 3.015625 
Q 35.15625 -1.421875 24.609375 -1.421875 
Q 20.21875 -1.421875 15.453125 -0.5625 
Q 10.6875 0.296875 5.421875 2 
L 5.421875 11.28125 
Q 10.40625 8.6875 15.234375 7.390625 
Q 20.0625 6.109375 24.8125 6.109375 
Q 31.15625 6.109375 34.5625 8.28125 
Q 37.984375 10.453125 37.984375 14.40625 
Q 37.984375 18.0625 35.515625 20.015625 
Q 33.0625 21.96875 24.703125 23.78125 
L 21.578125 24.515625 
Q 13.234375 26.265625 9.515625 29.90625 
Q 5.8125 33.546875 5.8125 39.890625 
Q 5.8125 47.609375 11.28125 51.796875 
Q 16.75 56 26.8125 56 
Q 31.78125 56 36.171875 55.265625 
Q 40.578125 54.546875 44.28125 53.078125 
z
" id="DejaVuSans-115"/>
      <path d="M 25.390625 72.90625 
L 33.6875 72.90625 
L 8.296875 -9.28125 
L 0 -9.28125 
z
" id="DejaVuSans-47"/>
      <path d="M 45.40625 46.390625 
L 45.40625 75.984375 
L 54.390625 75.984375 
L 54.390625 0 
L 45.40625 0 
L 45.40625 8.203125 
Q 42.578125 3.328125 38.25 0.953125 
Q 33.9375 -1.421875 27.875 -1.421875 
Q 17.96875 -1.421875 11.734375 6.484375 
Q 5.515625 14.40625 5.515625 27.296875 
Q 5.515625 40.1875 11.734375 48.09375 
Q 17.96875 56 27.875 56 
Q 33.9375 56 38.25 53.625 
Q 42.578125 51.265625 45.40625 46.390625 
z
M 14.796875 27.296875 
Q 14.796875 17.390625 18.875 11.75 
Q 22.953125 6.109375 30.078125 6.109375 
Q 37.203125 6.109375 41.296875 11.75 
Q 45.40625 17.390625 45.40625 27.296875 
Q 45.40625 37.203125 41.296875 42.84375 
Q 37.203125 48.484375 30.078125 48.484375 
Q 22.953125 48.484375 18.875 42.84375 
Q 14.796875 37.203125 14.796875 27.296875 
z
" id="DejaVuSans-100"/>
      <path d="M 9.421875 54.6875 
L 18.40625 54.6875 
L 18.40625 0 
L 9.421875 0 
z
M 9.421875 75.984375 
L 18.40625 75.984375 
L 18.40625 64.59375 
L 9.421875 64.59375 
z
" id="DejaVuSans-105"/>
      <path d="M 52 44.1875 
Q 55.375 50.25 60.0625 53.125 
Q 64.75 56 71.09375 56 
Q 79.640625 56 84.28125 50.015625 
Q 88.921875 44.046875 88.921875 33.015625 
L 88.921875 0 
L 79.890625 0 
L 79.890625 32.71875 
Q 79.890625 40.578125 77.09375 44.375 
Q 74.3125 48.1875 68.609375 48.1875 
Q 61.625 48.1875 57.5625 43.546875 
Q 53.515625 38.921875 53.515625 30.90625 
L 53.515625 0 
L 44.484375 0 
L 44.484375 32.71875 
Q 44.484375 40.625 41.703125 44.40625 
Q 38.921875 48.1875 33.109375 48.1875 
Q 26.21875 48.1875 22.15625 43.53125 
Q 18.109375 38.875 18.109375 30.90625 
L 18.109375 0 
L 9.078125 0 
L 9.078125 54.6875 
L 18.109375 54.6875 
L 18.109375 46.1875 
Q 21.1875 51.21875 25.484375 53.609375 
Q 29.78125 56 35.6875 56 
Q 41.65625 56 45.828125 52.96875 
Q 50 49.953125 52 44.1875 
z
" id="DejaVuSans-109"/>
      <path d="M 54.890625 33.015625 
L 54.890625 0 
L 45.90625 0 
L 45.90625 32.71875 
Q 45.90625 40.484375 42.875 44.328125 
Q 39.84375 48.1875 33.796875 48.1875 
Q 26.515625 48.1875 22.3125 43.546875 
Q 18.109375 38.921875 18.109375 30.90625 
L 18.109375 0 
L 9.078125 0 
L 9.078125 54.6875 
L 18.109375 54.6875 
L 18.109375 46.1875 
Q 21.34375 51.125 25.703125 53.5625 
Q 30.078125 56 35.796875 56 
Q 45.21875 56 50.046875 50.171875 
Q 54.890625 44.34375 54.890625 33.015625 
z
" id="DejaVuSans-110"/>
      <path d="M 8.015625 75.875 
L 15.828125 75.875 
Q 23.140625 64.359375 26.78125 53.3125 
Q 30.421875 42.28125 30.421875 31.390625 
Q 30.421875 20.453125 26.78125 9.375 
Q 23.140625 -1.703125 15.828125 -13.1875 
L 8.015625 -13.1875 
Q 14.5 -2 17.703125 9.0625 
Q 20.90625 20.125 20.90625 31.390625 
Q 20.90625 42.671875 17.703125 53.65625 
Q 14.5 64.65625 8.015625 75.875 
z
" id="DejaVuSans-41"/>
     </defs>
     <g transform="translate(77.303219 342.217594)scale(0.17 -0.17)">
      <use xlink:href="#DejaVuSans-108"/>
      <use x="27.783203" xlink:href="#DejaVuSans-111"/>
      <use x="88.964844" xlink:href="#DejaVuSans-103"/>
      <use x="152.441406" xlink:href="#DejaVuSans-49"/>
      <use x="216.064453" xlink:href="#DejaVuSans-48"/>
      <use x="279.6875" xlink:href="#DejaVuSans-40"/>
      <use x="318.701172" xlink:href="#DejaVuSans-35"/>
      <use x="402.490234" xlink:href="#DejaVuSans-32"/>
      <use x="434.277344" xlink:href="#DejaVuSans-102"/>
      <use x="469.404297" xlink:href="#DejaVuSans-45"/>
      <use x="505.488281" xlink:href="#DejaVuSans-101"/>
      <use x="567.011719" xlink:href="#DejaVuSans-118"/>
      <use x="626.191406" xlink:href="#DejaVuSans-97"/>
      <use x="687.470703" xlink:href="#DejaVuSans-108"/>
      <use x="715.253906" xlink:href="#DejaVuSans-115"/>
      <use x="767.353516" xlink:href="#DejaVuSans-32"/>
      <use x="799.140625" xlink:href="#DejaVuSans-47"/>
      <use x="832.832031" xlink:href="#DejaVuSans-32"/>
      <use x="864.619141" xlink:href="#DejaVuSans-100"/>
      <use x="928.095703" xlink:href="#DejaVuSans-105"/>
      <use x="955.878906" xlink:href="#DejaVuSans-109"/>
      <use x="1053.291016" xlink:href="#DejaVuSans-101"/>
      <use x="1114.814453" xlink:href="#DejaVuSans-110"/>
      <use x="1178.193359" xlink:href="#DejaVuSans-115"/>
      <use x="1230.292969" xlink:href="#DejaVuSans-105"/>
      <use x="1258.076172" xlink:href="#DejaVuSans-111"/>
      <use x="1319.257812" xlink:href="#DejaVuSans-110"/>
      <use x="1382.636719" xlink:href="#DejaVuSans-41"/>
     </g>
    </g>
   </g>
   <g id="matplotlib.axis_2">
    <g id="ytick_1">
     <g id="line2d_25">
      <path clip-path="url(#p472fabfb54)" d="M 57.6 298.944 
L 338.688 298.944 
" style="fill:none;stroke:#b0b0b0;stroke-linecap:square;stroke-width:0.8;"/>
     </g>
     <g id="line2d_26">
      <defs>
       <path d="M 0 0 
L -3.5 0 
" id="m2e30cff5ae" style="stroke:#000000;stroke-width:0.8;"/>
      </defs>
      <g>
       <use style="stroke:#000000;stroke-width:0.8;" x="57.6" xlink:href="#m2e30cff5ae" y="298.944"/>
      </g>
     </g>
     <g id="text_6">
      <!-- 0.0 -->
      <defs>
       <path d="M 10.6875 12.40625 
L 21 12.40625 
L 21 0 
L 10.6875 0 
z
" id="DejaVuSans-46"/>
      </defs>
      <g transform="translate(25.155 305.02275)scale(0.16 -0.16)">
       <use xlink:href="#DejaVuSans-48"/>
       <use x="63.623047" xlink:href="#DejaVuSans-46"/>
       <use x="95.410156" xlink:href="#DejaVuSans-48"/>
      </g>
     </g>
    </g>
    <g id="ytick_2">
     <g id="line2d_27">
      <path clip-path="url(#p472fabfb54)" d="M 57.6 245.22202 
L 338.688 245.22202 
" style="fill:none;stroke:#b0b0b0;stroke-linecap:square;stroke-width:0.8;"/>
     </g>
     <g id="line2d_28">
      <g>
       <use style="stroke:#000000;stroke-width:0.8;" x="57.6" xlink:href="#m2e30cff5ae" y="245.22202"/>
      </g>
     </g>
     <g id="text_7">
      <!-- 0.2 -->
      <g transform="translate(25.155 251.30077)scale(0.16 -0.16)">
       <use xlink:href="#DejaVuSans-48"/>
       <use x="63.623047" xlink:href="#DejaVuSans-46"/>
       <use x="95.410156" xlink:href="#DejaVuSans-50"/>
      </g>
     </g>
    </g>
    <g id="ytick_3">
     <g id="line2d_29">
      <path clip-path="url(#p472fabfb54)" d="M 57.6 191.50004 
L 338.688 191.50004 
" style="fill:none;stroke:#b0b0b0;stroke-linecap:square;stroke-width:0.8;"/>
     </g>
     <g id="line2d_30">
      <g>
       <use style="stroke:#000000;stroke-width:0.8;" x="57.6" xlink:href="#m2e30cff5ae" y="191.50004"/>
      </g>
     </g>
     <g id="text_8">
      <!-- 0.4 -->
      <g transform="translate(25.155 197.57879)scale(0.16 -0.16)">
       <use xlink:href="#DejaVuSans-48"/>
       <use x="63.623047" xlink:href="#DejaVuSans-46"/>
       <use x="95.410156" xlink:href="#DejaVuSans-52"/>
      </g>
     </g>
    </g>
    <g id="ytick_4">
     <g id="line2d_31">
      <path clip-path="url(#p472fabfb54)" d="M 57.6 137.778059 
L 338.688 137.778059 
" style="fill:none;stroke:#b0b0b0;stroke-linecap:square;stroke-width:0.8;"/>
     </g>
     <g id="line2d_32">
      <g>
       <use style="stroke:#000000;stroke-width:0.8;" x="57.6" xlink:href="#m2e30cff5ae" y="137.778059"/>
      </g>
     </g>
     <g id="text_9">
      <!-- 0.6 -->
      <g transform="translate(25.155 143.856809)scale(0.16 -0.16)">
       <use xlink:href="#DejaVuSans-48"/>
       <use x="63.623047" xlink:href="#DejaVuSans-46"/>
       <use x="95.410156" xlink:href="#DejaVuSans-54"/>
      </g>
     </g>
    </g>
    <g id="ytick_5">
     <g id="line2d_33">
      <path clip-path="url(#p472fabfb54)" d="M 57.6 84.056079 
L 338.688 84.056079 
" style="fill:none;stroke:#b0b0b0;stroke-linecap:square;stroke-width:0.8;"/>
     </g>
     <g id="line2d_34">
      <g>
       <use style="stroke:#000000;stroke-width:0.8;" x="57.6" xlink:href="#m2e30cff5ae" y="84.056079"/>
      </g>
     </g>
     <g id="text_10">
      <!-- 0.8 -->
      <defs>
       <path d="M 31.78125 34.625 
Q 24.75 34.625 20.71875 30.859375 
Q 16.703125 27.09375 16.703125 20.515625 
Q 16.703125 13.921875 20.71875 10.15625 
Q 24.75 6.390625 31.78125 6.390625 
Q 38.8125 6.390625 42.859375 10.171875 
Q 46.921875 13.96875 46.921875 20.515625 
Q 46.921875 27.09375 42.890625 30.859375 
Q 38.875 34.625 31.78125 34.625 
z
M 21.921875 38.8125 
Q 15.578125 40.375 12.03125 44.71875 
Q 8.5 49.078125 8.5 55.328125 
Q 8.5 64.0625 14.71875 69.140625 
Q 20.953125 74.21875 31.78125 74.21875 
Q 42.671875 74.21875 48.875 69.140625 
Q 55.078125 64.0625 55.078125 55.328125 
Q 55.078125 49.078125 51.53125 44.71875 
Q 48 40.375 41.703125 38.8125 
Q 48.828125 37.15625 52.796875 32.3125 
Q 56.78125 27.484375 56.78125 20.515625 
Q 56.78125 9.90625 50.3125 4.234375 
Q 43.84375 -1.421875 31.78125 -1.421875 
Q 19.734375 -1.421875 13.25 4.234375 
Q 6.78125 9.90625 6.78125 20.515625 
Q 6.78125 27.484375 10.78125 32.3125 
Q 14.796875 37.15625 21.921875 38.8125 
z
M 18.3125 54.390625 
Q 18.3125 48.734375 21.84375 45.5625 
Q 25.390625 42.390625 31.78125 42.390625 
Q 38.140625 42.390625 41.71875 45.5625 
Q 45.3125 48.734375 45.3125 54.390625 
Q 45.3125 60.0625 41.71875 63.234375 
Q 38.140625 66.40625 31.78125 66.40625 
Q 25.390625 66.40625 21.84375 63.234375 
Q 18.3125 60.0625 18.3125 54.390625 
z
" id="DejaVuSans-56"/>
      </defs>
      <g transform="translate(25.155 90.134829)scale(0.16 -0.16)">
       <use xlink:href="#DejaVuSans-48"/>
       <use x="63.623047" xlink:href="#DejaVuSans-46"/>
       <use x="95.410156" xlink:href="#DejaVuSans-56"/>
      </g>
     </g>
    </g>
    <g id="ytick_6">
     <g id="line2d_35">
      <path clip-path="url(#p472fabfb54)" d="M 57.6 30.334099 
L 338.688 30.334099 
" style="fill:none;stroke:#b0b0b0;stroke-linecap:square;stroke-width:0.8;"/>
     </g>
     <g id="line2d_36">
      <g>
       <use style="stroke:#000000;stroke-width:0.8;" x="57.6" xlink:href="#m2e30cff5ae" y="30.334099"/>
      </g>
     </g>
     <g id="text_11">
      <!-- 1.0 -->
      <g transform="translate(25.155 36.412849)scale(0.16 -0.16)">
       <use xlink:href="#DejaVuSans-49"/>
       <use x="63.623047" xlink:href="#DejaVuSans-46"/>
       <use x="95.410156" xlink:href="#DejaVuSans-48"/>
      </g>
     </g>
    </g>
    <g id="text_12">
     <!-- Fraction of function,target pairs -->
     <defs>
      <path d="M 9.8125 72.90625 
L 51.703125 72.90625 
L 51.703125 64.59375 
L 19.671875 64.59375 
L 19.671875 43.109375 
L 48.578125 43.109375 
L 48.578125 34.8125 
L 19.671875 34.8125 
L 19.671875 0 
L 9.8125 0 
z
" id="DejaVuSans-70"/>
      <path d="M 41.109375 46.296875 
Q 39.59375 47.171875 37.8125 47.578125 
Q 36.03125 48 33.890625 48 
Q 26.265625 48 22.1875 43.046875 
Q 18.109375 38.09375 18.109375 28.8125 
L 18.109375 0 
L 9.078125 0 
L 9.078125 54.6875 
L 18.109375 54.6875 
L 18.109375 46.1875 
Q 20.953125 51.171875 25.484375 53.578125 
Q 30.03125 56 36.53125 56 
Q 37.453125 56 38.578125 55.875 
Q 39.703125 55.765625 41.0625 55.515625 
z
" id="DejaVuSans-114"/>
      <path d="M 48.78125 52.59375 
L 48.78125 44.1875 
Q 44.96875 46.296875 41.140625 47.34375 
Q 37.3125 48.390625 33.40625 48.390625 
Q 24.65625 48.390625 19.8125 42.84375 
Q 14.984375 37.3125 14.984375 27.296875 
Q 14.984375 17.28125 19.8125 11.734375 
Q 24.65625 6.203125 33.40625 6.203125 
Q 37.3125 6.203125 41.140625 7.25 
Q 44.96875 8.296875 48.78125 10.40625 
L 48.78125 2.09375 
Q 45.015625 0.34375 40.984375 -0.53125 
Q 36.96875 -1.421875 32.421875 -1.421875 
Q 20.0625 -1.421875 12.78125 6.34375 
Q 5.515625 14.109375 5.515625 27.296875 
Q 5.515625 40.671875 12.859375 48.328125 
Q 20.21875 56 33.015625 56 
Q 37.15625 56 41.109375 55.140625 
Q 45.0625 54.296875 48.78125 52.59375 
z
" id="DejaVuSans-99"/>
      <path d="M 18.3125 70.21875 
L 18.3125 54.6875 
L 36.8125 54.6875 
L 36.8125 47.703125 
L 18.3125 47.703125 
L 18.3125 18.015625 
Q 18.3125 11.328125 20.140625 9.421875 
Q 21.96875 7.515625 27.59375 7.515625 
L 36.8125 7.515625 
L 36.8125 0 
L 27.59375 0 
Q 17.1875 0 13.234375 3.875 
Q 9.28125 7.765625 9.28125 18.015625 
L 9.28125 47.703125 
L 2.6875 47.703125 
L 2.6875 54.6875 
L 9.28125 54.6875 
L 9.28125 70.21875 
z
" id="DejaVuSans-116"/>
      <path d="M 8.5 21.578125 
L 8.5 54.6875 
L 17.484375 54.6875 
L 17.484375 21.921875 
Q 17.484375 14.15625 20.5 10.265625 
Q 23.53125 6.390625 29.59375 6.390625 
Q 36.859375 6.390625 41.078125 11.03125 
Q 45.3125 15.671875 45.3125 23.6875 
L 45.3125 54.6875 
L 54.296875 54.6875 
L 54.296875 0 
L 45.3125 0 
L 45.3125 8.40625 
Q 42.046875 3.421875 37.71875 1 
Q 33.40625 -1.421875 27.6875 -1.421875 
Q 18.265625 -1.421875 13.375 4.4375 
Q 8.5 10.296875 8.5 21.578125 
z
M 31.109375 56 
z
" id="DejaVuSans-117"/>
      <path d="M 11.71875 12.40625 
L 22.015625 12.40625 
L 22.015625 4 
L 14.015625 -11.625 
L 7.71875 -11.625 
L 11.71875 4 
z
" id="DejaVuSans-44"/>
      <path d="M 18.109375 8.203125 
L 18.109375 -20.796875 
L 9.078125 -20.796875 
L 9.078125 54.6875 
L 18.109375 54.6875 
L 18.109375 46.390625 
Q 20.953125 51.265625 25.265625 53.625 
Q 29.59375 56 35.59375 56 
Q 45.5625 56 51.78125 48.09375 
Q 58.015625 40.1875 58.015625 27.296875 
Q 58.015625 14.40625 51.78125 6.484375 
Q 45.5625 -1.421875 35.59375 -1.421875 
Q 29.59375 -1.421875 25.265625 0.953125 
Q 20.953125 3.328125 18.109375 8.203125 
z
M 48.6875 27.296875 
Q 48.6875 37.203125 44.609375 42.84375 
Q 40.53125 48.484375 33.40625 48.484375 
Q 26.265625 48.484375 22.1875 42.84375 
Q 18.109375 37.203125 18.109375 27.296875 
Q 18.109375 17.390625 22.1875 11.75 
Q 26.265625 6.109375 33.40625 6.109375 
Q 40.53125 6.109375 44.609375 11.75 
Q 48.6875 17.390625 48.6875 27.296875 
z
" id="DejaVuSans-112"/>
     </defs>
     <g transform="translate(17.619531 298.435375)rotate(-90)scale(0.17 -0.17)">
      <use xlink:href="#DejaVuSans-70"/>
      <use x="57.410156" xlink:href="#DejaVuSans-114"/>
      <use x="98.523438" xlink:href="#DejaVuSans-97"/>
      <use x="159.802734" xlink:href="#DejaVuSans-99"/>
      <use x="214.783203" xlink:href="#DejaVuSans-116"/>
      <use x="253.992188" xlink:href="#DejaVuSans-105"/>
      <use x="281.775391" xlink:href="#DejaVuSans-111"/>
      <use x="342.957031" xlink:href="#DejaVuSans-110"/>
      <use x="406.335938" xlink:href="#DejaVuSans-32"/>
      <use x="438.123047" xlink:href="#DejaVuSans-111"/>
      <use x="499.304688" xlink:href="#DejaVuSans-102"/>
      <use x="534.509766" xlink:href="#DejaVuSans-32"/>
      <use x="566.296875" xlink:href="#DejaVuSans-102"/>
      <use x="601.501953" xlink:href="#DejaVuSans-117"/>
      <use x="664.880859" xlink:href="#DejaVuSans-110"/>
      <use x="728.259766" xlink:href="#DejaVuSans-99"/>
      <use x="783.240234" xlink:href="#DejaVuSans-116"/>
      <use x="822.449219" xlink:href="#DejaVuSans-105"/>
      <use x="850.232422" xlink:href="#DejaVuSans-111"/>
      <use x="911.414062" xlink:href="#DejaVuSans-110"/>
      <use x="974.792969" xlink:href="#DejaVuSans-44"/>
      <use x="1006.580078" xlink:href="#DejaVuSans-116"/>
      <use x="1045.789062" xlink:href="#DejaVuSans-97"/>
      <use x="1107.068359" xlink:href="#DejaVuSans-114"/>
      <use x="1148.166016" xlink:href="#DejaVuSans-103"/>
      <use x="1211.642578" xlink:href="#DejaVuSans-101"/>
      <use x="1273.166016" xlink:href="#DejaVuSans-116"/>
      <use x="1312.375" xlink:href="#DejaVuSans-32"/>
      <use x="1344.162109" xlink:href="#DejaVuSans-112"/>
      <use x="1407.638672" xlink:href="#DejaVuSans-97"/>
      <use x="1468.917969" xlink:href="#DejaVuSans-105"/>
      <use x="1496.701172" xlink:href="#DejaVuSans-114"/>
      <use x="1537.814453" xlink:href="#DejaVuSans-115"/>
     </g>
    </g>
   </g>
   <g id="line2d_37">
    <defs>
     <path d="M 0 1.5 
C 0.397805 1.5 0.77937 1.341951 1.06066 1.06066 
C 1.341951 0.77937 1.5 0.397805 1.5 0 
C 1.5 -0.397805 1.341951 -0.77937 1.06066 -1.06066 
C 0.77937 -1.341951 0.397805 -1.5 0 -1.5 
C -0.397805 -1.5 -0.77937 -1.341951 -1.06066 -1.06066 
C -1.341951 -0.77937 -1.5 -0.397805 -1.5 0 
C -1.5 0.397805 -1.341951 0.77937 -1.06066 1.06066 
C -0.77937 1.341951 -0.397805 1.5 0 1.5 
z
" id="me1cbee26fb" style="stroke:#000080;"/>
    </defs>
    <g>
     <use style="fill:#000080;stroke:#000080;" x="337.307045" xlink:href="#me1cbee26fb" y="214.674227"/>
     <use style="fill:#000080;stroke:#000080;" x="337.307045" xlink:href="#me1cbee26fb" y="214.674227"/>
    </g>
   </g>
   <g id="line2d_38">
    <path d="M 29.53256 298.944 
L 29.53256 292.623767 
L 41.620548 292.623767 
L 41.620548 292.097081 
L 53.708537 292.097081 
L 53.708537 291.570395 
L 69.687988 291.570395 
L 69.687988 291.043709 
L 79.938565 291.043709 
L 79.938565 290.517023 
L 83.438118 290.517023 
L 83.438118 289.990337 
L 86.351421 289.990337 
L 86.351421 289.463651 
L 87.009585 289.463651 
L 87.009585 288.410278 
L 89.418828 288.410278 
L 89.418828 287.883592 
L 94.714831 287.883592 
L 94.714831 287.356906 
L 96.301313 287.356906 
L 96.301313 286.83022 
L 96.676366 286.83022 
L 96.676366 286.303534 
L 99.41757 286.303534 
L 99.41757 285.776848 
L 101.223245 285.776848 
L 101.223245 285.250162 
L 102.330873 285.250162 
L 102.330873 284.723476 
L 104.592361 284.723476 
L 104.592361 284.19679 
L 107.414787 284.19679 
L 107.414787 283.670104 
L 107.614095 283.670104 
L 107.614095 283.143418 
L 108.006005 283.143418 
L 108.006005 282.616732 
L 113.594805 282.616732 
L 113.594805 281.563359 
L 114.685115 281.563359 
L 114.685115 281.036673 
L 114.816733 281.036673 
L 114.816733 280.509987 
L 117.030313 280.509987 
L 117.030313 279.983301 
L 117.930605 279.983301 
L 117.930605 279.456615 
L 118.681952 279.456615 
L 118.681952 278.929929 
L 119.301163 278.929929 
L 119.301163 278.403243 
L 120.47729 278.403243 
L 120.47729 277.876557 
L 121.128432 277.876557 
L 121.128432 277.349871 
L 124.519744 277.349871 
L 124.519744 276.823185 
L 128.885774 276.823185 
L 128.885774 276.296499 
L 139.980403 276.296499 
L 139.980403 275.769812 
L 140.499195 275.769812 
L 140.589166 274.71644 
L 141.061324 274.71644 
L 141.061324 274.189754 
L 142.297475 274.189754 
L 142.405626 273.136382 
L 143.42637 273.136382 
L 143.42637 272.609696 
L 146.875005 272.609696 
L 146.875005 272.08301 
L 148.601505 272.08301 
L 148.601505 271.556324 
L 148.733265 271.556324 
L 148.733265 271.029638 
L 150.649257 271.029638 
L 150.649257 270.502952 
L 155.024532 270.502952 
L 155.024532 269.976266 
L 155.399584 269.976266 
L 155.399584 269.449579 
L 156.49067 269.449579 
L 156.49067 268.922893 
L 157.289376 268.922893 
L 157.289376 268.396207 
L 157.56276 268.396207 
L 157.56276 267.869521 
L 158.325678 267.869521 
L 158.325678 267.342835 
L 160.365299 267.342835 
L 160.365299 266.816149 
L 162.173813 266.816149 
L 162.173813 266.289463 
L 163.094774 266.289463 
L 163.094774 265.762777 
L 167.255733 265.762777 
L 167.255733 265.236091 
L 169.360135 265.236091 
L 169.360135 264.709405 
L 171.463278 264.709405 
L 171.463278 264.182719 
L 172.32772 264.182719 
L 172.32772 263.656033 
L 175.444152 263.656033 
L 175.452258 262.60266 
L 175.681699 262.60266 
L 175.681699 262.075974 
L 176.209486 262.075974 
L 176.209486 261.549288 
L 176.509508 261.549288 
L 176.509508 261.022602 
L 178.920473 261.022602 
L 178.920473 260.495916 
L 179.51147 260.495916 
L 179.51147 259.96923 
L 180.089306 259.96923 
L 180.089306 259.442544 
L 180.302303 259.442544 
L 180.302303 258.915858 
L 180.491498 258.915858 
L 180.491498 258.389172 
L 181.79234 258.389172 
L 181.79234 257.862486 
L 192.150875 257.862486 
L 192.150875 257.3358 
L 193.202544 257.3358 
L 193.202544 256.809114 
L 193.788539 256.809114 
L 193.788539 256.282427 
L 195.637981 256.282427 
L 195.637981 255.755741 
L 203.797858 255.755741 
L 203.797858 255.229055 
L 211.821759 255.229055 
L 211.821759 254.702369 
L 212.8894 254.702369 
L 212.8894 254.175683 
L 213.366758 254.175683 
L 213.366758 253.648997 
L 221.867585 253.648997 
L 221.867585 252.595625 
L 222.833876 252.595625 
L 222.833876 252.068939 
L 223.049402 252.068939 
L 223.049402 251.542253 
L 224.257401 251.542253 
L 224.335444 250.488881 
L 224.515794 250.488881 
L 224.515794 249.962195 
L 229.202789 249.962195 
L 229.202789 249.435508 
L 230.378452 249.435508 
L 230.378452 248.908822 
L 236.667484 248.908822 
L 236.667484 248.382136 
L 236.87002 248.382136 
L 236.879475 247.328764 
L 245.742715 247.328764 
L 245.845627 246.275392 
L 249.300133 246.275392 
L 249.300133 245.748706 
L 250.559685 245.748706 
L 250.559685 245.22202 
L 253.063334 245.22202 
L 253.063334 244.695334 
L 271.324615 244.695334 
L 271.324615 244.168648 
L 271.666957 244.168648 
L 271.773981 242.588589 
L 271.797763 242.588589 
L 271.797763 242.061903 
L 272.17186 242.061903 
L 272.17186 241.535217 
L 272.285786 241.535217 
L 272.285786 241.008531 
L 272.470611 241.008531 
L 272.551381 239.428473 
L 272.989986 239.428473 
L 272.989986 238.901787 
L 273.162051 238.901787 
L 273.162051 238.375101 
L 273.401245 238.375101 
L 273.401245 237.848415 
L 282.687381 237.848415 
L 282.687381 237.321729 
L 283.988381 237.321729 
L 283.988381 236.795043 
L 284.152279 236.795043 
L 284.152279 236.268356 
L 284.314327 236.268356 
L 284.374898 234.688298 
L 285.74138 234.688298 
L 285.74138 234.161612 
L 289.671174 234.161612 
L 289.671174 233.634926 
L 289.91436 233.634926 
L 289.963196 232.581554 
L 290.130914 232.581554 
L 290.130914 232.054868 
L 290.821608 232.054868 
L 290.925627 230.47481 
L 291.331005 230.47481 
L 291.331005 229.948123 
L 295.286189 229.948123 
L 295.286189 229.421437 
L 295.49018 229.421437 
L 295.49018 228.894751 
L 295.989154 228.894751 
L 296.005466 227.841379 
L 298.60485 227.841379 
L 298.60485 227.314693 
L 298.948412 227.314693 
L 298.948412 226.788007 
L 299.327192 226.788007 
L 299.327192 226.261321 
L 299.71645 226.261321 
L 299.71645 225.734635 
L 300.045695 225.734635 
L 300.045695 225.207949 
L 302.589763 225.207949 
L 302.589763 224.681263 
L 303.497341 224.681263 
L 303.497341 224.154577 
L 305.026818 224.154577 
L 305.026818 223.627891 
L 307.053929 223.627891 
L 307.053929 223.101204 
L 307.572109 223.101204 
L 307.572109 222.574518 
L 309.358345 222.574518 
L 309.358345 222.047832 
L 309.827585 222.047832 
L 309.827585 221.521146 
L 311.342283 221.521146 
L 311.342283 220.99446 
L 311.508198 220.99446 
L 311.508198 220.467774 
L 312.847946 220.467774 
L 312.914918 219.414402 
L 314.141103 219.414402 
L 314.215568 218.36103 
L 316.944346 218.36103 
L 316.944346 217.834344 
L 320.094147 217.834344 
L 320.094147 217.307658 
L 323.151331 217.307658 
L 323.151331 216.780971 
L 324.478929 216.780971 
L 324.478929 216.254285 
L 327.202929 216.254285 
L 327.202929 215.727599 
L 329.972409 215.727599 
L 329.972409 215.200913 
L 337.307045 215.200913 
L 337.307045 214.674227 
L 338.688 214.674227 
L 338.688 214.674227 
" style="fill:none;stroke:#000080;stroke-linecap:square;stroke-width:1.5;"/>
   </g>
   <g id="line2d_39">
    <defs>
     <path d="M 0 6 
C 1.591219 6 3.117479 5.367802 4.242641 4.242641 
C 5.367802 3.117479 6 1.591219 6 0 
C 6 -1.591219 5.367802 -3.117479 4.242641 -4.242641 
C 3.117479 -5.367802 1.591219 -6 0 -6 
C -1.591219 -6 -3.117479 -5.367802 -4.242641 -4.242641 
C -5.367802 -3.117479 -6 -1.591219 -6 0 
C -6 1.591219 -5.367802 3.117479 -4.242641 4.242641 
C -3.117479 5.367802 -1.591219 6 0 6 
z
" id="m7971fe0b0d" style="stroke:#000080;stroke-width:1.5;"/>
    </defs>
    <g>
     <use style="fill-opacity:0;stroke:#000080;stroke-width:1.5;" x="104.592361" xlink:href="#m7971fe0b0d" y="284.19679"/>
     <use style="fill-opacity:0;stroke:#000080;stroke-width:1.5;" x="169.360135" xlink:href="#m7971fe0b0d" y="264.709405"/>
     <use style="fill-opacity:0;stroke:#000080;stroke-width:1.5;" x="253.063334" xlink:href="#m7971fe0b0d" y="245.22202"/>
     <use style="fill-opacity:0;stroke:#000080;stroke-width:1.5;" x="298.60485" xlink:href="#m7971fe0b0d" y="227.314693"/>
     <use style="fill-opacity:0;stroke:#000080;stroke-width:1.5;" x="337.307045" xlink:href="#m7971fe0b0d" y="214.674227"/>
     <use style="fill-opacity:0;stroke:#000080;stroke-width:1.5;" x="338.688" xlink:href="#m7971fe0b0d" y="214.674227"/>
    </g>
   </g>
   <g id="line2d_40">
    <path style="fill:none;stroke:#000080;stroke-linecap:square;stroke-width:1.5;"/>
    <g/>
   </g>
   <g id="line2d_41">
    <path clip-path="url(#p472fabfb54)" d="M 271.593634 244.168648 
" style="fill:none;stroke:#000080;stroke-linecap:square;stroke-width:1.5;"/>
    <defs>
     <path d="M -12 12 
L 12 -12 
M -12 -12 
L 12 12 
" id="m15538b6002" style="stroke:#000080;"/>
    </defs>
    <g clip-path="url(#p472fabfb54)">
     <use style="fill:#000080;stroke:#000080;" x="271.593634" xlink:href="#m15538b6002" y="244.168648"/>
    </g>
   </g>
   <g id="line2d_42">
    <defs>
     <path d="M 0 1.5 
C 0.397805 1.5 0.77937 1.341951 1.06066 1.06066 
C 1.341951 0.77937 1.5 0.397805 1.5 0 
C 1.5 -0.397805 1.341951 -0.77937 1.06066 -1.06066 
C 0.77937 -1.341951 0.397805 -1.5 0 -1.5 
C -0.397805 -1.5 -0.77937 -1.341951 -1.06066 -1.06066 
C -1.341951 -0.77937 -1.5 -0.397805 -1.5 0 
C -1.5 0.397805 -1.341951 0.77937 -1.06066 1.06066 
C -0.77937 1.341951 -0.397805 1.5 0 1.5 
z
" id="maf7300ecb1" style="stroke:#ff0000;"/>
    </defs>
    <g>
     <use style="fill:#ff0000;stroke:#ff0000;" x="357.821013" xlink:href="#maf7300ecb1" y="30.334099"/>
     <use style="fill:#ff0000;stroke:#ff0000;" x="357.821013" xlink:href="#maf7300ecb1" y="30.334099"/>
    </g>
   </g>
   <g id="line2d_43">
    <path d="M 29.53256 298.944 
L 29.53256 293.150453 
L 41.620548 293.150453 
L 41.620548 291.570395 
L 48.691568 291.570395 
L 48.691568 291.043709 
L 67.850577 291.043709 
L 67.850577 290.517023 
L 69.687988 290.517023 
L 69.687988 289.990337 
L 71.35013 289.990337 
L 71.35013 289.463651 
L 72.867545 289.463651 
L 72.867545 288.936964 
L 78.941764 288.936964 
L 78.941764 288.410278 
L 80.881459 288.410278 
L 80.881459 287.883592 
L 87.009585 287.883592 
L 87.009585 287.356906 
L 98.43941 287.356906 
L 98.43941 286.83022 
L 100.040467 286.83022 
L 100.040467 286.303534 
L 101.223245 286.303534 
L 101.223245 285.250162 
L 103.870632 285.250162 
L 103.870632 284.723476 
L 104.355088 284.723476 
L 104.355088 284.19679 
L 106.593963 284.19679 
L 106.593963 283.670104 
L 107.213174 283.670104 
L 107.213174 283.143418 
L 107.414787 283.143418 
L 107.414787 282.616732 
L 110.527398 282.616732 
L 110.527398 282.090045 
L 113.022974 282.090045 
L 113.022974 281.563359 
L 117.259781 281.563359 
L 117.259781 281.036673 
L 117.598418 281.036673 
L 117.598418 280.509987 
L 121.489881 280.509987 
L 121.489881 279.983301 
L 123.354102 279.983301 
L 123.354102 279.456615 
L 124.519744 279.456615 
L 124.519744 278.929929 
L 126.099688 278.929929 
L 126.099688 278.403243 
L 129.853291 278.403243 
L 129.853291 277.876557 
L 132.80063 277.876557 
L 132.80063 277.349871 
L 133.216421 277.349871 
L 133.216421 276.823185 
L 135.401861 276.823185 
L 135.401861 276.296499 
L 136.189322 276.296499 
L 136.189322 275.769812 
L 137.126135 275.769812 
L 137.126135 275.243126 
L 140.011351 275.243126 
L 140.011351 274.71644 
L 140.469102 274.71644 
L 140.469102 274.189754 
L 141.941279 274.189754 
L 141.941279 273.663068 
L 142.726112 273.663068 
L 142.726112 273.136382 
L 143.196061 273.136382 
L 143.196061 272.609696 
L 143.578237 272.609696 
L 143.578237 272.08301 
L 144.865226 272.08301 
L 144.865226 271.556324 
L 145.440832 271.556324 
L 145.440832 271.029638 
L 147.144103 271.029638 
L 147.144103 270.502952 
L 149.805951 270.502952 
L 149.805951 269.976266 
L 151.708484 269.976266 
L 151.708484 269.449579 
L 161.402155 269.449579 
L 161.402155 268.922893 
L 166.068747 268.922893 
L 166.068747 268.396207 
L 166.547878 268.396207 
L 166.547878 267.869521 
L 166.7626 267.869521 
L 166.782596 266.816149 
L 168.269454 266.816149 
L 168.269454 266.289463 
L 172.371288 266.289463 
L 172.414747 265.236091 
L 174.639439 265.236091 
L 174.639439 264.709405 
L 183.81914 264.709405 
L 183.81914 264.182719 
L 186.447126 264.182719 
L 186.447126 263.656033 
L 198.544818 263.656033 
L 198.565286 262.60266 
L 200.396129 262.60266 
L 200.396129 262.075974 
L 205.649221 262.075974 
L 205.649221 261.549288 
L 208.32243 261.549288 
L 208.32243 261.022602 
L 255.799948 261.022602 
L 255.799948 260.495916 
L 260.857233 260.495916 
L 260.857233 259.96923 
L 263.34579 259.96923 
L 263.34579 259.442544 
L 263.602172 259.442544 
L 263.602172 258.389172 
L 264.280765 258.389172 
L 264.280765 257.3358 
L 264.537703 257.3358 
L 264.537703 256.282427 
L 265.612708 256.282427 
L 265.612708 255.755741 
L 265.927784 255.755741 
L 265.961141 243.641962 
L 280.685182 243.641962 
L 280.691509 242.588589 
L 280.855311 242.588589 
L 280.855311 242.061903 
L 281.06656 242.061903 
L 281.101658 240.481845 
L 286.93571 240.481845 
L 286.93571 239.955159 
L 287.290339 239.955159 
L 287.390233 237.848415 
L 287.577616 237.848415 
L 287.686611 235.74167 
L 288.130628 235.74167 
L 288.226572 233.634926 
L 288.257689 233.634926 
L 288.365302 230.47481 
L 288.449879 230.47481 
L 288.449879 229.948123 
L 288.834066 229.948123 
L 288.834066 229.421437 
L 290.248407 229.421437 
L 290.248407 228.894751 
L 293.114008 228.894751 
L 293.114593 227.841379 
L 293.284178 227.841379 
L 293.284178 227.314693 
L 293.474029 227.314693 
L 293.474029 226.788007 
L 293.708871 226.788007 
L 293.779359 225.207949 
L 294.00266 225.207949 
L 294.00266 224.681263 
L 294.961373 224.681263 
L 294.961373 224.154577 
L 296.233285 224.154577 
L 296.270306 223.101204 
L 296.84782 223.101204 
L 296.84782 222.574518 
L 297.268172 222.574518 
L 297.329607 221.521146 
L 297.72219 221.521146 
L 297.830984 220.467774 
L 297.947852 220.467774 
L 298.051204 218.887716 
L 298.324364 218.887716 
L 298.393129 217.834344 
L 298.514184 217.834344 
L 298.514184 217.307658 
L 300.261561 217.307658 
L 300.301881 216.254285 
L 300.418021 216.254285 
L 300.418021 215.727599 
L 300.768825 215.727599 
L 300.836279 213.620855 
L 300.956493 213.620855 
L 301.065313 211.514111 
L 301.089915 211.514111 
L 301.089915 210.987425 
L 301.257342 210.987425 
L 301.308434 209.407366 
L 301.454605 209.407366 
L 301.454605 208.88068 
L 301.793337 208.88068 
L 301.864551 207.827308 
L 302.982777 207.827308 
L 302.982777 207.300622 
L 303.194995 207.300622 
L 303.24726 205.720564 
L 303.337158 205.720564 
L 303.337158 205.193878 
L 303.659768 205.193878 
L 303.748207 203.087133 
L 303.889333 203.087133 
L 303.923886 201.507075 
L 304.005344 201.507075 
L 304.079239 199.927017 
L 304.143288 199.927017 
L 304.143288 199.400331 
L 304.257921 199.400331 
L 304.328727 198.346959 
L 304.417351 198.346959 
L 304.417351 197.820273 
L 304.643262 197.820273 
L 304.651707 196.7669 
L 305.310012 196.7669 
L 305.310012 196.240214 
L 305.481099 196.240214 
L 305.481099 195.713528 
L 305.636286 195.713528 
L 305.636286 195.186842 
L 305.770631 195.186842 
L 305.879741 193.606784 
L 306.079126 193.606784 
L 306.105912 192.553412 
L 306.212734 192.553412 
L 306.212734 192.026726 
L 306.632026 192.026726 
L 306.632026 191.50004 
L 306.996894 191.50004 
L 306.996894 190.973354 
L 307.395206 190.973354 
L 307.395206 190.446667 
L 307.601032 190.446667 
L 307.601032 189.919981 
L 308.024782 189.919981 
L 308.034963 188.866609 
L 309.337435 188.866609 
L 309.408518 187.813237 
L 309.732546 187.813237 
L 309.732546 187.286551 
L 309.864746 187.286551 
L 309.957055 185.706493 
L 310.013594 185.706493 
L 310.113312 184.653121 
L 310.262777 184.653121 
L 310.307231 183.599748 
L 310.37961 183.599748 
L 310.37961 183.073062 
L 310.59064 183.073062 
L 310.59064 182.546376 
L 311.278208 182.546376 
L 311.351196 181.493004 
L 311.463219 181.493004 
L 311.568301 180.439632 
L 311.617822 180.439632 
L 311.711413 178.332888 
L 311.84217 178.332888 
L 311.907396 176.752829 
L 312.392407 176.752829 
L 312.392407 176.226143 
L 313.11453 176.226143 
L 313.11453 175.699457 
L 313.234643 175.699457 
L 313.298957 174.646085 
L 313.388181 174.646085 
L 313.388181 174.119399 
L 313.500141 174.119399 
L 313.58398 171.485969 
L 313.641658 171.485969 
L 313.717191 170.432596 
L 314.495515 170.432596 
L 314.495515 169.90591 
L 314.65247 169.90591 
L 314.709844 168.852538 
L 314.766976 168.852538 
L 314.805291 167.27248 
L 315.87826 167.27248 
L 315.952844 165.692422 
L 316.033114 165.692422 
L 316.103983 163.058991 
L 316.188873 163.058991 
L 316.261705 160.952247 
L 316.342278 160.952247 
L 316.342278 160.425561 
L 316.51597 160.425561 
L 316.534518 159.372189 
L 316.685273 159.372189 
L 316.685273 158.845503 
L 317.047073 158.845503 
L 317.090153 157.79213 
L 317.172444 157.79213 
L 317.172444 157.265444 
L 317.431055 157.265444 
L 317.532703 155.685386 
L 317.643242 155.685386 
L 317.643242 155.1587 
L 317.947576 155.1587 
L 318.037401 153.051956 
L 318.117374 153.051956 
L 318.117374 152.52527 
L 318.273887 152.52527 
L 318.273887 151.998584 
L 318.556809 151.998584 
L 318.581385 150.418525 
L 318.682763 150.418525 
L 318.729275 149.365153 
L 319.076568 149.365153 
L 319.076568 148.838467 
L 319.290428 148.838467 
L 319.3963 147.785095 
L 319.496924 147.785095 
L 319.496924 147.258409 
L 319.620909 147.258409 
L 319.620909 146.731723 
L 320.193652 146.731723 
L 320.28064 145.678351 
L 320.376859 145.678351 
L 320.444595 144.098292 
L 320.544724 144.098292 
L 320.544724 143.571606 
L 320.698982 143.571606 
L 320.698982 143.04492 
L 321.134134 143.04492 
L 321.134134 142.518234 
L 321.341959 142.518234 
L 321.354716 141.464862 
L 321.50635 141.464862 
L 321.592253 139.358118 
L 321.736245 139.358118 
L 321.745094 138.304745 
L 321.855325 138.304745 
L 321.905939 137.251373 
L 322.030853 137.251373 
L 322.030853 136.724687 
L 322.176234 136.724687 
L 322.242315 134.617943 
L 322.336581 134.617943 
L 322.445593 133.564571 
L 322.471621 133.564571 
L 322.525002 132.511199 
L 322.910987 132.511199 
L 322.988979 131.457826 
L 323.032171 131.457826 
L 323.129485 130.404454 
L 323.22142 130.404454 
L 323.313916 128.29771 
L 323.342983 128.29771 
L 323.4381 126.190966 
L 323.504106 126.190966 
L 323.539095 125.137593 
L 323.849094 125.137593 
L 323.859392 124.084221 
L 324.011414 124.084221 
L 324.096355 121.450791 
L 324.13226 121.450791 
L 324.161441 120.397419 
L 324.294893 120.397419 
L 324.294893 119.870733 
L 324.499286 119.870733 
L 324.508511 118.817361 
L 324.6252 118.817361 
L 324.6252 118.290674 
L 324.778397 118.290674 
L 324.86241 116.710616 
L 325.051977 116.710616 
L 325.068486 115.657244 
L 325.166726 115.657244 
L 325.25373 113.5505 
L 325.406566 113.5505 
L 325.47068 111.970441 
L 325.590407 111.970441 
L 325.639754 110.917069 
L 325.949754 110.917069 
L 325.949754 110.390383 
L 326.122573 110.390383 
L 326.173946 108.810325 
L 326.362957 108.810325 
L 326.437983 107.756953 
L 326.476291 107.756953 
L 326.476291 107.230267 
L 327.138254 107.230267 
L 327.198898 105.650209 
L 327.391989 105.650209 
L 327.391989 105.123522 
L 327.575841 105.123522 
L 327.575841 104.596836 
L 327.696257 104.596836 
L 327.749336 102.490092 
L 327.81811 102.490092 
L 327.835359 101.43672 
L 327.954257 101.43672 
L 327.977633 100.383348 
L 328.213126 100.383348 
L 328.21582 99.329976 
L 328.357359 99.329976 
L 328.46762 98.276603 
L 328.641098 98.276603 
L 328.641098 97.749917 
L 328.815949 97.749917 
L 328.815949 97.223231 
L 328.927832 97.223231 
L 329.021404 95.643173 
L 329.044712 95.643173 
L 329.119261 94.063115 
L 329.280725 94.063115 
L 329.361577 91.95637 
L 329.614245 91.95637 
L 329.689062 90.376312 
L 329.7803 90.376312 
L 329.795924 89.32294 
L 329.9604 89.32294 
L 329.9604 88.796254 
L 330.176305 88.796254 
L 330.196916 87.742882 
L 330.307969 87.742882 
L 330.307969 87.216196 
L 330.871868 87.216196 
L 330.923974 85.636137 
L 331.096897 85.636137 
L 331.17009 84.582765 
L 331.264875 84.582765 
L 331.264875 84.056079 
L 331.623735 84.056079 
L 331.623735 83.529393 
L 331.83499 83.529393 
L 331.918867 81.949335 
L 332.040041 81.949335 
L 332.040041 81.422649 
L 332.428726 81.422649 
L 332.428726 80.895963 
L 332.786074 80.895963 
L 332.802828 79.842591 
L 332.993397 79.842591 
L 333.094141 78.262532 
L 333.336852 78.262532 
L 333.425312 77.20916 
L 333.732176 77.20916 
L 333.799449 76.155788 
L 334.073401 76.155788 
L 334.073401 75.629102 
L 334.215868 75.629102 
L 334.215868 75.102416 
L 334.417409 75.102416 
L 334.417409 74.57573 
L 334.650443 74.57573 
L 334.650443 74.049044 
L 334.839317 74.049044 
L 334.839317 73.522358 
L 334.952062 73.522358 
L 335.040654 71.942299 
L 335.135196 71.942299 
L 335.217339 70.362241 
L 335.248084 70.362241 
L 335.248084 69.835555 
L 335.368158 69.835555 
L 335.369226 68.782183 
L 335.487826 68.782183 
L 335.487826 68.255497 
L 335.636771 68.255497 
L 335.636771 67.728811 
L 335.77448 67.728811 
L 335.77448 67.202125 
L 336.10899 67.202125 
L 336.158681 66.148752 
L 336.272562 66.148752 
L 336.306397 64.568694 
L 336.507693 64.568694 
L 336.522117 63.515322 
L 336.786242 63.515322 
L 336.863753 61.935264 
L 337.033771 61.935264 
L 337.033771 61.408578 
L 337.159687 61.408578 
L 337.224775 60.355206 
L 337.327429 60.355206 
L 337.327429 59.82852 
L 337.627782 59.82852 
L 337.627782 59.301833 
L 337.739089 59.301833 
L 337.739089 58.775147 
L 338.090036 58.775147 
L 338.159586 57.721775 
L 338.275866 57.721775 
L 338.313265 56.668403 
L 338.459476 56.668403 
L 338.459476 56.141717 
L 338.576947 56.141717 
L 338.576947 55.615031 
L 338.688 55.615031 
" style="fill:none;stroke:#ff0000;stroke-linecap:square;stroke-width:1.5;"/>
   </g>
   <g id="line2d_44">
    <defs>
     <path d="M 0 -6 
L -5.196152 -3 
L -5.196152 3 
L -0 6 
L 5.196152 3 
L 5.196152 -3 
z
" id="md0991c38f1" style="stroke:#ff0000;stroke-linejoin:miter;stroke-width:1.5;"/>
    </defs>
    <g>
     <use style="fill-opacity:0;stroke:#ff0000;stroke-linejoin:miter;stroke-width:1.5;" x="121.489881" xlink:href="#md0991c38f1" y="279.983301"/>
     <use style="fill-opacity:0;stroke:#ff0000;stroke-linejoin:miter;stroke-width:1.5;" x="208.32243" xlink:href="#md0991c38f1" y="261.549288"/>
     <use style="fill-opacity:0;stroke:#ff0000;stroke-linejoin:miter;stroke-width:1.5;" x="300.79614" xlink:href="#md0991c38f1" y="215.200913"/>
     <use style="fill-opacity:0;stroke:#ff0000;stroke-linejoin:miter;stroke-width:1.5;" x="324.027113" xlink:href="#md0991c38f1" y="123.030849"/>
     <use style="fill-opacity:0;stroke:#ff0000;stroke-linejoin:miter;stroke-width:1.5;" x="338.576947" xlink:href="#md0991c38f1" y="55.615031"/>
     <use style="fill-opacity:0;stroke:#ff0000;stroke-linejoin:miter;stroke-width:1.5;" x="338.688" xlink:href="#md0991c38f1" y="55.615031"/>
    </g>
   </g>
   <g id="line2d_45">
    <path style="fill:none;stroke:#ff0000;stroke-linecap:square;stroke-width:1.5;"/>
    <g/>
   </g>
   <g id="line2d_46">
    <path clip-path="url(#p472fabfb54)" d="M 281.352272 240.481845 
" style="fill:none;stroke:#ff0000;stroke-linecap:square;stroke-width:1.5;"/>
    <defs>
     <path d="M -12 12 
L 12 -12 
M -12 -12 
L 12 12 
" id="m71dc167515" style="stroke:#ff0000;"/>
    </defs>
    <g clip-path="url(#p472fabfb54)">
     <use style="fill:#ff0000;stroke:#ff0000;" x="281.352272" xlink:href="#m71dc167515" y="240.481845"/>
    </g>
   </g>
   <g id="line2d_47">
    <defs>
     <path d="M 0 1.5 
C 0.397805 1.5 0.77937 1.341951 1.06066 1.06066 
C 1.341951 0.77937 1.5 0.397805 1.5 0 
C 1.5 -0.397805 1.341951 -0.77937 1.06066 -1.06066 
C 0.77937 -1.341951 0.397805 -1.5 0 -1.5 
C -0.397805 -1.5 -0.77937 -1.341951 -1.06066 -1.06066 
C -1.341951 -0.77937 -1.5 -0.397805 -1.5 0 
C -1.5 0.397805 -1.341951 0.77937 -1.06066 1.06066 
C -0.77937 1.341951 -0.397805 1.5 0 1.5 
z
" id="mc2eb50d46e" style="stroke:#bebebe;"/>
    </defs>
    <g>
     <use style="fill:#bebebe;stroke:#bebebe;" x="357.057066" xlink:href="#mc2eb50d46e" y="30.334099"/>
     <use style="fill:#bebebe;stroke:#bebebe;" x="357.057066" xlink:href="#mc2eb50d46e" y="30.334099"/>
    </g>
   </g>
   <g id="line2d_48">
    <path d="M 29.53256 298.944 
L 29.53256 292.623767 
L 72.867545 292.623767 
L 72.867545 290.517023 
L 74.263433 290.517023 
L 74.263433 289.990337 
L 78.941764 289.990337 
L 78.941764 288.936964 
L 80.881459 288.936964 
L 80.881459 288.410278 
L 87.643811 288.410278 
L 87.643811 287.883592 
L 97.403108 287.883592 
L 97.403108 287.356906 
L 99.41757 287.356906 
L 99.41757 286.83022 
L 104.826449 286.83022 
L 104.826449 286.303534 
L 105.285403 286.303534 
L 105.285403 285.776848 
L 105.51043 285.776848 
L 105.51043 285.250162 
L 105.732589 285.250162 
L 105.732589 284.723476 
L 105.951954 284.723476 
L 105.951954 284.19679 
L 108.764355 284.19679 
L 108.764355 283.670104 
L 111.819788 283.670104 
L 111.819788 283.143418 
L 120.944859 283.143418 
L 120.944859 282.616732 
L 131.690703 282.616732 
L 131.690703 282.090045 
L 131.987128 282.090045 
L 131.987128 281.563359 
L 132.133473 281.563359 
L 132.133473 281.036673 
L 132.374684 281.036673 
L 132.374684 280.509987 
L 133.032848 280.509987 
L 133.032848 279.983301 
L 136.831795 279.983301 
L 136.831795 279.456615 
L 138.187677 279.456615 
L 138.187677 278.929929 
L 138.426341 278.929929 
L 138.426341 278.403243 
L 139.667863 278.403243 
L 139.667863 277.876557 
L 141.321401 277.876557 
L 141.321401 277.349871 
L 145.074639 277.349871 
L 145.074639 276.296499 
L 146.041862 276.296499 
L 146.06373 275.243126 
L 146.999721 275.243126 
L 146.999721 274.71644 
L 149.449671 274.71644 
L 149.449671 274.189754 
L 149.85877 274.189754 
L 149.85877 273.663068 
L 150.033689 273.663068 
L 150.033689 273.136382 
L 150.632448 273.136382 
L 150.632448 272.609696 
L 151.260066 272.609696 
L 151.260066 272.08301 
L 153.337534 272.08301 
L 153.337534 271.556324 
L 153.609024 271.556324 
L 153.609024 271.029638 
L 154.587699 271.029638 
L 154.587699 270.502952 
L 158.70027 270.502952 
L 158.70027 269.976266 
L 159.577838 269.976266 
L 159.577838 269.449579 
L 160.171742 269.449579 
L 160.171742 268.922893 
L 161.96433 268.922893 
L 161.96433 268.396207 
L 162.147765 268.396207 
L 162.147765 267.869521 
L 166.117256 267.869521 
L 166.117256 267.342835 
L 166.344146 267.342835 
L 166.344146 266.816149 
L 166.675688 266.816149 
L 166.749257 265.762777 
L 167.151695 265.762777 
L 167.151695 265.236091 
L 170.294256 265.236091 
L 170.294256 264.709405 
L 171.211906 264.709405 
L 171.211906 264.182719 
L 171.645677 264.182719 
L 171.645677 263.656033 
L 173.128197 263.656033 
L 173.128197 263.129347 
L 173.38554 263.129347 
L 173.481073 262.075974 
L 183.836686 262.075974 
L 183.836686 261.549288 
L 188.270296 261.549288 
L 188.270296 261.022602 
L 189.696645 261.022602 
L 189.696645 260.495916 
L 190.175189 260.495916 
L 190.175189 259.96923 
L 193.378824 259.96923 
L 193.378824 259.442544 
L 202.030843 259.442544 
L 202.030843 258.915858 
L 205.222311 258.915858 
L 205.222311 258.389172 
L 209.710411 258.389172 
L 209.710411 257.862486 
L 210.856644 257.862486 
L 210.856644 257.3358 
L 211.728375 257.3358 
L 211.757201 256.282427 
L 211.910138 256.282427 
L 211.948164 255.229055 
L 212.23861 255.229055 
L 212.23861 254.702369 
L 212.611603 254.702369 
L 212.611603 254.175683 
L 218.052432 254.175683 
L 218.052432 253.648997 
L 220.776043 253.648997 
L 220.776043 253.122311 
L 220.948117 253.122311 
L 220.948117 252.595625 
L 221.100776 252.595625 
L 221.100776 252.068939 
L 233.775089 252.068939 
L 233.775089 251.542253 
L 233.953168 251.542253 
L 233.953168 250.488881 
L 234.172402 250.488881 
L 234.172402 249.962195 
L 234.327664 249.962195 
L 234.398159 247.85545 
L 234.538164 247.85545 
L 234.593907 245.748706 
L 234.66619 245.748706 
L 234.698897 244.168648 
L 234.784649 244.168648 
L 234.814981 243.115275 
L 234.901505 243.115275 
L 235.011592 242.061903 
L 235.019314 242.061903 
L 235.07832 239.428473 
L 235.170679 239.428473 
L 235.170679 238.375101 
L 238.161913 238.375101 
L 238.161913 237.848415 
L 238.441364 237.848415 
L 238.441364 237.321729 
L 238.646701 237.321729 
L 238.646701 236.795043 
L 241.579738 236.795043 
L 241.579738 236.268356 
L 243.805835 236.268356 
L 243.805835 235.74167 
L 246.435793 235.74167 
L 246.435793 234.161612 
L 248.588383 234.161612 
L 248.588383 233.634926 
L 252.454491 233.634926 
L 252.454491 233.10824 
L 270.828179 233.10824 
L 270.828179 232.581554 
L 270.97772 232.581554 
L 270.97772 232.054868 
L 271.118785 232.054868 
L 271.176457 231.001496 
L 271.380866 231.001496 
L 271.380866 230.47481 
L 271.8334 230.47481 
L 271.8334 229.948123 
L 271.974039 229.948123 
L 271.974039 229.421437 
L 272.2561 229.421437 
L 272.2561 228.894751 
L 272.715119 228.894751 
L 272.799527 227.841379 
L 272.845975 227.841379 
L 272.925166 225.734635 
L 272.985112 225.734635 
L 272.985112 225.207949 
L 273.28556 225.207949 
L 273.28556 224.681263 
L 273.436563 224.681263 
L 273.474158 223.627891 
L 273.567129 223.627891 
L 273.567129 223.101204 
L 273.699391 223.101204 
L 273.699391 222.574518 
L 273.85257 222.574518 
L 273.85257 222.047832 
L 274.083418 222.047832 
L 274.145973 220.99446 
L 274.484893 220.99446 
L 274.484893 220.467774 
L 274.900973 220.467774 
L 274.900973 219.941088 
L 275.028216 219.941088 
L 275.134508 218.36103 
L 275.424621 218.36103 
L 275.424621 217.834344 
L 275.583883 217.834344 
L 275.658868 216.780971 
L 276.372595 216.780971 
L 276.372595 216.254285 
L 282.23598 216.254285 
L 282.23598 215.727599 
L 282.796935 215.727599 
L 282.877062 213.620855 
L 283.100364 213.620855 
L 283.155996 211.514111 
L 283.401369 211.514111 
L 283.401369 210.987425 
L 283.573959 210.987425 
L 283.673136 209.407366 
L 283.823358 209.407366 
L 283.846796 207.827308 
L 284.051581 207.827308 
L 284.051581 207.300622 
L 284.336667 207.300622 
L 284.336667 206.773936 
L 284.467463 206.773936 
L 284.548889 204.667192 
L 284.594704 204.667192 
L 284.594704 204.140506 
L 284.86096 204.140506 
L 284.968655 202.560447 
L 285.060999 202.560447 
L 285.060999 202.033761 
L 285.44795 202.033761 
L 285.44795 201.507075 
L 289.706098 201.507075 
L 289.706098 200.980389 
L 289.841687 200.980389 
L 289.946141 199.927017 
L 290.144471 199.927017 
L 290.248665 197.820273 
L 290.328885 197.820273 
L 290.365748 196.240214 
L 290.550236 196.240214 
L 290.653875 195.186842 
L 290.678938 195.186842 
L 290.712591 194.13347 
L 290.853703 194.13347 
L 290.853703 193.606784 
L 290.975761 193.606784 
L 290.975761 193.080098 
L 291.289916 193.080098 
L 291.309887 192.026726 
L 291.415685 192.026726 
L 291.487929 190.973354 
L 291.655503 190.973354 
L 291.71665 189.919981 
L 291.844088 189.919981 
L 291.874541 188.866609 
L 291.990784 188.866609 
L 292.030747 187.813237 
L 292.231811 187.813237 
L 292.249192 186.759865 
L 294.794292 186.759865 
L 294.822632 185.706493 
L 294.908506 185.706493 
L 294.908506 185.179807 
L 295.374679 185.179807 
L 295.396929 184.126434 
L 295.60917 184.126434 
L 295.706423 182.546376 
L 295.777231 182.546376 
L 295.795921 181.493004 
L 295.974011 181.493004 
L 296.036914 180.439632 
L 296.121203 180.439632 
L 296.154961 179.38626 
L 296.728793 179.38626 
L 296.728793 178.859574 
L 296.865037 178.859574 
L 296.865037 178.332888 
L 297.177401 178.332888 
L 297.177401 177.806202 
L 298.668067 177.806202 
L 298.711198 176.226143 
L 298.989949 176.226143 
L 298.989949 175.699457 
L 299.240351 175.699457 
L 299.30925 173.592713 
L 299.423173 173.592713 
L 299.498029 172.012655 
L 299.536442 172.012655 
L 299.633551 170.432596 
L 299.888233 170.432596 
L 299.888233 169.90591 
L 300.05417 169.90591 
L 300.05417 169.379224 
L 301.664646 169.379224 
L 301.664646 168.852538 
L 302.044313 168.852538 
L 302.126886 167.27248 
L 302.186692 167.27248 
L 302.283532 165.165736 
L 302.444924 165.165736 
L 302.542689 164.112363 
L 302.648474 164.112363 
L 302.700917 163.058991 
L 302.767458 163.058991 
L 302.767458 162.532305 
L 303.091569 162.532305 
L 303.091569 162.005619 
L 304.564344 162.005619 
L 304.633771 160.952247 
L 304.845468 160.952247 
L 304.911259 159.898875 
L 304.994763 159.898875 
L 305.002525 158.845503 
L 305.131352 158.845503 
L 305.235309 157.79213 
L 305.314961 157.79213 
L 305.371997 156.212072 
L 305.441905 156.212072 
L 305.460412 155.1587 
L 305.750129 155.1587 
L 305.750129 154.632014 
L 306.057812 154.632014 
L 306.057812 154.105328 
L 306.204518 154.105328 
L 306.204518 153.578642 
L 306.878066 153.578642 
L 306.878066 153.051956 
L 307.076862 153.051956 
L 307.107964 151.998584 
L 307.489356 151.998584 
L 307.507297 150.945211 
L 307.604686 150.945211 
L 307.629542 149.891839 
L 307.878494 149.891839 
L 307.878494 149.365153 
L 308.654342 149.365153 
L 308.654342 148.838467 
L 308.831572 148.838467 
L 308.831572 148.311781 
L 309.398972 148.311781 
L 309.481112 146.731723 
L 309.949557 146.731723 
L 309.949557 146.205037 
L 310.550404 146.205037 
L 310.582891 145.151665 
L 310.711759 145.151665 
L 310.711759 144.624978 
L 310.875091 144.624978 
L 310.875091 144.098292 
L 311.204517 144.098292 
L 311.250688 143.04492 
L 311.351094 143.04492 
L 311.351094 142.518234 
L 311.67179 142.518234 
L 311.67179 141.991548 
L 312.957272 141.991548 
L 312.999904 140.938176 
L 313.229376 140.938176 
L 313.229376 140.41149 
L 313.458174 140.41149 
L 313.458174 139.884804 
L 314.107891 139.884804 
L 314.107891 139.358118 
L 314.233673 139.358118 
L 314.233673 138.831432 
L 314.35749 138.831432 
L 314.457634 137.778059 
L 314.598616 137.778059 
L 314.598616 137.251373 
L 314.820652 137.251373 
L 314.820652 136.724687 
L 315.062356 136.724687 
L 315.062356 136.198001 
L 315.437819 136.198001 
L 315.437819 135.671315 
L 315.675716 135.671315 
L 315.733291 134.091257 
L 315.839479 134.091257 
L 315.890188 133.037885 
L 315.970306 133.037885 
L 315.970306 132.511199 
L 316.11963 132.511199 
L 316.11963 131.984513 
L 316.35031 131.984513 
L 316.35031 131.457826 
L 316.62518 131.457826 
L 316.62518 130.93114 
L 316.757357 130.93114 
L 316.848353 129.351082 
L 316.89085 129.351082 
L 316.983355 127.771024 
L 317.004997 127.771024 
L 317.108176 125.66428 
L 317.274632 125.66428 
L 317.342723 124.610907 
L 317.579669 124.610907 
L 317.579669 124.084221 
L 317.938596 124.084221 
L 318.023643 121.977477 
L 318.057507 121.977477 
L 318.057507 121.450791 
L 318.198918 121.450791 
L 318.198918 120.924105 
L 318.444767 120.924105 
L 318.537216 119.344047 
L 318.618408 119.344047 
L 318.717781 117.763988 
L 318.908089 117.763988 
L 318.908089 117.237302 
L 319.248052 117.237302 
L 319.276776 116.18393 
L 320.235141 116.18393 
L 320.294714 115.130558 
L 320.412323 115.130558 
L 320.516756 114.077186 
L 320.525198 114.077186 
L 320.525198 113.5505 
L 321.004308 113.5505 
L 321.004308 113.023814 
L 321.232501 113.023814 
L 321.232501 112.497128 
L 321.366941 112.497128 
L 321.366941 111.970441 
L 321.483733 111.970441 
L 321.54368 110.917069 
L 322.101537 110.917069 
L 322.206521 108.810325 
L 322.233676 108.810325 
L 322.310774 107.756953 
L 322.386326 107.756953 
L 322.386326 107.230267 
L 322.511453 107.230267 
L 322.511453 106.703581 
L 322.772093 106.703581 
L 322.854511 104.596836 
L 323.033788 104.596836 
L 323.053979 103.543464 
L 323.176815 103.543464 
L 323.285612 101.963406 
L 323.325826 101.963406 
L 323.325826 101.43672 
L 323.473937 101.43672 
L 323.557036 100.383348 
L 323.695351 100.383348 
L 323.695351 99.856662 
L 323.936033 99.856662 
L 323.993757 98.803289 
L 324.050005 98.803289 
L 324.096825 97.749917 
L 324.22361 97.749917 
L 324.316642 96.169859 
L 324.35202 96.169859 
L 324.35202 95.643173 
L 324.602391 95.643173 
L 324.70518 94.063115 
L 324.845908 94.063115 
L 324.923652 93.009743 
L 325.175019 93.009743 
L 325.282672 91.95637 
L 325.418002 91.95637 
L 325.456561 90.902998 
L 325.690314 90.902998 
L 325.690314 90.376312 
L 325.824185 90.376312 
L 325.887623 89.32294 
L 326.258597 89.32294 
L 326.258597 88.796254 
L 326.484755 88.796254 
L 326.527539 86.68951 
L 326.638485 86.68951 
L 326.638485 86.162824 
L 326.812751 86.162824 
L 326.915504 85.109451 
L 326.942925 85.109451 
L 326.942925 84.582765 
L 327.249076 84.582765 
L 327.249076 84.056079 
L 327.396601 84.056079 
L 327.457829 83.002707 
L 327.811694 83.002707 
L 327.893295 81.422649 
L 327.965503 81.422649 
L 327.965503 80.895963 
L 328.088768 80.895963 
L 328.195264 78.262532 
L 328.451622 78.262532 
L 328.552175 77.20916 
L 328.590422 77.20916 
L 328.604327 75.629102 
L 328.758569 75.629102 
L 328.784703 74.57573 
L 328.97529 74.57573 
L 328.97529 74.049044 
L 329.220463 74.049044 
L 329.220463 73.522358 
L 329.443372 73.522358 
L 329.519068 72.468985 
L 329.831198 72.468985 
L 329.831198 71.942299 
L 330.037561 71.942299 
L 330.037561 71.415613 
L 330.268043 71.415613 
L 330.372624 69.308869 
L 330.43536 69.308869 
L 330.43536 68.782183 
L 330.641084 68.782183 
L 330.641084 68.255497 
L 330.76099 68.255497 
L 330.76099 67.728811 
L 331.310393 67.728811 
L 331.318668 66.675439 
L 331.765573 66.675439 
L 331.776219 65.622066 
L 332.137346 65.622066 
L 332.137346 65.09538 
L 332.311669 65.09538 
L 332.311669 64.568694 
L 332.467505 64.568694 
L 332.558182 62.988636 
L 332.752934 62.988636 
L 332.76608 61.408578 
L 333.244999 61.408578 
L 333.244999 60.881892 
L 333.473985 60.881892 
L 333.550643 59.82852 
L 333.597926 59.82852 
L 333.61357 58.775147 
L 333.724741 58.775147 
L 333.787959 57.721775 
L 333.935232 57.721775 
L 333.935232 57.195089 
L 334.068656 57.195089 
L 334.147344 56.141717 
L 334.212865 56.141717 
L 334.212865 55.615031 
L 334.755458 55.615031 
L 334.755458 55.088345 
L 335.068228 55.088345 
L 335.176687 53.508287 
L 335.260145 53.508287 
L 335.260145 52.9816 
L 335.404107 52.9816 
L 335.487772 51.928228 
L 335.827676 51.928228 
L 335.827676 51.401542 
L 336.038954 51.401542 
L 336.038954 50.874856 
L 336.171046 50.874856 
L 336.171046 50.34817 
L 336.59006 50.34817 
L 336.59006 49.821484 
L 336.754581 49.821484 
L 336.754581 49.294798 
L 336.88401 49.294798 
L 336.965274 47.71474 
L 337.098603 47.71474 
L 337.098603 47.188054 
L 337.344313 47.188054 
L 337.344313 46.661368 
L 337.750702 46.661368 
L 337.799557 45.607995 
L 337.911739 45.607995 
L 337.911739 45.081309 
L 338.120124 45.081309 
L 338.120124 44.554623 
L 338.688 44.554623 
L 338.688 44.554623 
" style="fill:none;stroke:#bebebe;stroke-linecap:square;stroke-width:1.5;"/>
   </g>
   <g id="line2d_49">
    <defs>
     <path d="M 0 0 
L -6 -0 
M 0 0 
L 3 4.8 
M 0 0 
L 3 -4.8 
" id="m9455fb94f4" style="stroke:#bebebe;stroke-width:1.5;"/>
    </defs>
    <g>
     <use style="fill-opacity:0;stroke:#bebebe;stroke-width:1.5;" x="111.819788" xlink:href="#m9455fb94f4" y="283.143418"/>
     <use style="fill-opacity:0;stroke:#bebebe;stroke-width:1.5;" x="190.175189" xlink:href="#m9455fb94f4" y="259.96923"/>
     <use style="fill-opacity:0;stroke:#bebebe;stroke-width:1.5;" x="272.845975" xlink:href="#m9455fb94f4" y="227.841379"/>
     <use style="fill-opacity:0;stroke:#bebebe;stroke-width:1.5;" x="322.511453" xlink:href="#m9455fb94f4" y="107.230267"/>
     <use style="fill-opacity:0;stroke:#bebebe;stroke-width:1.5;" x="338.120124" xlink:href="#m9455fb94f4" y="44.554623"/>
     <use style="fill-opacity:0;stroke:#bebebe;stroke-width:1.5;" x="338.688" xlink:href="#m9455fb94f4" y="44.554623"/>
    </g>
   </g>
   <g id="line2d_50">
    <path style="fill:none;stroke:#bebebe;stroke-linecap:square;stroke-width:1.5;"/>
    <g/>
   </g>
   <g id="line2d_51">
    <path clip-path="url(#p472fabfb54)" d="M 271.952434 229.948123 
" style="fill:none;stroke:#bebebe;stroke-linecap:square;stroke-width:1.5;"/>
    <defs>
     <path d="M -12 12 
L 12 -12 
M -12 -12 
L 12 12 
" id="me4529c7349" style="stroke:#bebebe;"/>
    </defs>
    <g clip-path="url(#p472fabfb54)">
     <use style="fill:#bebebe;stroke:#bebebe;" x="271.952434" xlink:href="#me4529c7349" y="229.948123"/>
    </g>
   </g>
   <g id="line2d_52">
    <defs>
     <path d="M 0 1.5 
C 0.397805 1.5 0.77937 1.341951 1.06066 1.06066 
C 1.341951 0.77937 1.5 0.397805 1.5 0 
C 1.5 -0.397805 1.341951 -0.77937 1.06066 -1.06066 
C 0.77937 -1.341951 0.397805 -1.5 0 -1.5 
C -0.397805 -1.5 -0.77937 -1.341951 -1.06066 -1.06066 
C -1.341951 -0.77937 -1.5 -0.397805 -1.5 0 
C -1.5 0.397805 -1.341951 0.77937 -1.06066 1.06066 
C -0.77937 1.341951 -0.397805 1.5 0 1.5 
z
" id="m3e333783a8" style="stroke:#6495ed;"/>
    </defs>
    <g>
     <use style="fill:#6495ed;stroke:#6495ed;" x="268.755641" xlink:href="#m3e333783a8" y="256.809114"/>
     <use style="fill:#6495ed;stroke:#6495ed;" x="268.755641" xlink:href="#m3e333783a8" y="256.809114"/>
    </g>
   </g>
   <g id="line2d_53">
    <path d="M 29.53256 298.944 
L 29.53256 293.150453 
L 72.867545 293.150453 
L 72.867545 291.570395 
L 78.941764 291.570395 
L 78.941764 290.517023 
L 79.938565 290.517023 
L 79.938565 289.990337 
L 80.881459 289.990337 
L 80.881459 289.463651 
L 87.009585 289.463651 
L 87.009585 288.936964 
L 87.643811 288.936964 
L 87.643811 288.410278 
L 97.403108 288.410278 
L 97.403108 287.883592 
L 100.934985 287.883592 
L 100.934985 287.356906 
L 104.826449 287.356906 
L 104.826449 286.83022 
L 105.51043 286.83022 
L 105.51043 285.776848 
L 105.732589 285.776848 
L 105.732589 285.250162 
L 108.764355 285.250162 
L 108.764355 284.723476 
L 110.859585 284.723476 
L 110.859585 284.19679 
L 111.505558 284.19679 
L 111.505558 283.670104 
L 111.819788 283.670104 
L 111.819788 283.143418 
L 112.58145 283.143418 
L 112.58145 282.616732 
L 123.907776 282.616732 
L 123.907776 282.090045 
L 131.389151 282.090045 
L 131.389151 281.563359 
L 131.888878 281.563359 
L 131.888878 281.036673 
L 132.893889 281.036673 
L 132.893889 280.509987 
L 143.42637 280.509987 
L 143.42637 279.983301 
L 145.440832 279.983301 
L 145.440832 279.456615 
L 150.480434 279.456615 
L 150.480434 278.929929 
L 153.651507 278.929929 
L 153.651507 278.403243 
L 155.245367 278.403243 
L 155.34833 277.349871 
L 158.847883 277.349871 
L 158.847883 276.823185 
L 160.132771 276.823185 
L 160.132771 276.296499 
L 162.337888 276.296499 
L 162.337888 275.769812 
L 163.84384 275.769812 
L 163.84384 275.243126 
L 171.46837 275.243126 
L 171.46837 274.71644 
L 171.81621 274.71644 
L 171.81621 274.189754 
L 171.975201 274.189754 
L 171.975201 273.663068 
L 175.013227 273.663068 
L 175.042289 272.609696 
L 176.998351 272.609696 
L 176.998351 272.08301 
L 180.786423 272.08301 
L 180.786423 271.029638 
L 182.65782 271.029638 
L 182.65782 270.502952 
L 183.152004 270.502952 
L 183.152004 269.976266 
L 189.927844 269.976266 
L 189.961379 268.922893 
L 190.419075 268.922893 
L 190.419075 268.396207 
L 197.947243 268.396207 
L 197.947243 267.869521 
L 200.406789 267.869521 
L 200.406789 267.342835 
L 202.018482 267.342835 
L 202.018482 266.816149 
L 203.119682 266.816149 
L 203.119682 266.289463 
L 206.170658 266.289463 
L 206.170658 265.762777 
L 207.840834 265.762777 
L 207.840834 265.236091 
L 220.508589 265.236091 
L 220.508589 264.709405 
L 223.143028 264.709405 
L 223.143028 264.182719 
L 224.069606 264.182719 
L 224.069606 263.656033 
L 226.519745 263.656033 
L 226.519745 263.129347 
L 229.241212 263.129347 
L 229.241212 262.60266 
L 229.914443 262.60266 
L 229.914443 262.075974 
L 231.108338 262.075974 
L 231.108338 261.549288 
L 233.607157 261.549288 
L 233.614373 260.495916 
L 242.892846 260.495916 
L 242.892846 259.96923 
L 244.818578 259.96923 
L 244.818578 259.442544 
L 251.39128 259.442544 
L 251.392529 258.389172 
L 254.826706 258.389172 
L 254.827347 257.3358 
L 268.755641 257.3358 
L 268.755641 256.809114 
L 338.688 256.809114 
L 338.688 256.809114 
" style="fill:none;stroke:#6495ed;stroke-linecap:square;stroke-width:1.5;"/>
   </g>
   <g id="line2d_54">
    <defs>
     <path d="M -0 6 
L 6 -6 
L -6 -6 
z
" id="m33b67d5aac" style="stroke:#6495ed;stroke-linejoin:miter;stroke-width:1.5;"/>
    </defs>
    <g>
     <use style="fill-opacity:0;stroke:#6495ed;stroke-linejoin:miter;stroke-width:1.5;" x="123.907776" xlink:href="#m33b67d5aac" y="282.616732"/>
     <use style="fill-opacity:0;stroke:#6495ed;stroke-linejoin:miter;stroke-width:1.5;" x="197.947243" xlink:href="#m33b67d5aac" y="267.869521"/>
     <use style="fill-opacity:0;stroke:#6495ed;stroke-linejoin:miter;stroke-width:1.5;" x="254.827347" xlink:href="#m33b67d5aac" y="257.862486"/>
     <use style="fill-opacity:0;stroke:#6495ed;stroke-linejoin:miter;stroke-width:1.5;" x="268.755641" xlink:href="#m33b67d5aac" y="256.809114"/>
     <use style="fill-opacity:0;stroke:#6495ed;stroke-linejoin:miter;stroke-width:1.5;" x="268.755641" xlink:href="#m33b67d5aac" y="256.809114"/>
     <use style="fill-opacity:0;stroke:#6495ed;stroke-linejoin:miter;stroke-width:1.5;" x="338.688" xlink:href="#m33b67d5aac" y="256.809114"/>
    </g>
   </g>
   <g id="line2d_55">
    <path style="fill:none;stroke:#6495ed;stroke-linecap:square;stroke-width:1.5;"/>
    <g/>
   </g>
   <g id="line2d_56">
    <path clip-path="url(#p472fabfb54)" d="M 230.501522 262.075974 
" style="fill:none;stroke:#6495ed;stroke-linecap:square;stroke-width:1.5;"/>
    <defs>
     <path d="M -12 12 
L 12 -12 
M -12 -12 
L 12 12 
" id="m28df307f65" style="stroke:#6495ed;"/>
    </defs>
    <g clip-path="url(#p472fabfb54)">
     <use style="fill:#6495ed;stroke:#6495ed;" x="230.501522" xlink:href="#m28df307f65" y="262.075974"/>
    </g>
   </g>
   <g id="line2d_57">
    <path d="M 338.688 256.809114 
L 369.60768 293.571802 
" style="fill:none;stroke:#6495ed;stroke-linecap:square;stroke-width:1.5;"/>
    <g>
     <use style="fill-opacity:0;stroke:#6495ed;stroke-linejoin:miter;stroke-width:1.5;" x="338.688" xlink:href="#m33b67d5aac" y="256.809114"/>
     <use style="fill-opacity:0;stroke:#6495ed;stroke-linejoin:miter;stroke-width:1.5;" x="369.60768" xlink:href="#m33b67d5aac" y="293.571802"/>
    </g>
   </g>
   <g id="line2d_58">
    <path d="M 338.688 214.674227 
L 369.60768 207.616634 
" style="fill:none;stroke:#000080;stroke-linecap:square;stroke-width:1.5;"/>
    <g>
     <use style="fill-opacity:0;stroke:#000080;stroke-width:1.5;" x="338.688" xlink:href="#m7971fe0b0d" y="214.674227"/>
     <use style="fill-opacity:0;stroke:#000080;stroke-width:1.5;" x="369.60768" xlink:href="#m7971fe0b0d" y="207.616634"/>
    </g>
   </g>
   <g id="line2d_59">
    <path d="M 338.688 55.615031 
L 369.60768 121.661465 
" style="fill:none;stroke:#ff0000;stroke-linecap:square;stroke-width:1.5;"/>
    <g>
     <use style="fill-opacity:0;stroke:#ff0000;stroke-linejoin:miter;stroke-width:1.5;" x="338.688" xlink:href="#md0991c38f1" y="55.615031"/>
     <use style="fill-opacity:0;stroke:#ff0000;stroke-linejoin:miter;stroke-width:1.5;" x="369.60768" xlink:href="#md0991c38f1" y="121.661465"/>
    </g>
   </g>
   <g id="line2d_60">
    <path d="M 338.688 44.554623 
L 369.60768 35.706297 
" style="fill:none;stroke:#bebebe;stroke-linecap:square;stroke-width:1.5;"/>
    <g>
     <use style="fill-opacity:0;stroke:#bebebe;stroke-width:1.5;" x="338.688" xlink:href="#m9455fb94f4" y="44.554623"/>
     <use style="fill-opacity:0;stroke:#bebebe;stroke-width:1.5;" x="369.60768" xlink:href="#m9455fb94f4" y="35.706297"/>
    </g>
   </g>
   <g id="line2d_61">
    <path d="M 338.688 298.944 
L 338.688 30.334099 
" style="fill:none;stroke:#000000;stroke-linecap:square;stroke-width:1.5;"/>
   </g>
   <g id="patch_3">
    <path d="M 57.6 298.944 
L 57.6 27.648 
" style="fill:none;stroke:#000000;stroke-linecap:square;stroke-linejoin:miter;stroke-width:0.8;"/>
   </g>
   <g id="patch_4">
    <path d="M 338.688 298.944 
L 338.688 27.648 
" style="fill:none;stroke:#000000;stroke-linecap:square;stroke-linejoin:miter;stroke-width:0.8;"/>
   </g>
   <g id="patch_5">
    <path d="M 57.6 298.944 
L 338.688 298.944 
" style="fill:none;stroke:#000000;stroke-linecap:square;stroke-linejoin:miter;stroke-width:0.8;"/>
   </g>
   <g id="patch_6">
    <path d="M 57.6 27.648 
L 338.688 27.648 
" style="fill:none;stroke:#000000;stroke-linecap:square;stroke-linejoin:miter;stroke-width:0.8;"/>
   </g>
   <g id="text_13">
    <!-- SLSQP-11  -->
    <defs>
     <path d="M 53.515625 70.515625 
L 53.515625 60.890625 
Q 47.90625 63.578125 42.921875 64.890625 
Q 37.9375 66.21875 33.296875 66.21875 
Q 25.25 66.21875 20.875 63.09375 
Q 16.5 59.96875 16.5 54.203125 
Q 16.5 49.359375 19.40625 46.890625 
Q 22.3125 44.4375 30.421875 42.921875 
L 36.375 41.703125 
Q 47.40625 39.59375 52.65625 34.296875 
Q 57.90625 29 57.90625 20.125 
Q 57.90625 9.515625 50.796875 4.046875 
Q 43.703125 -1.421875 29.984375 -1.421875 
Q 24.8125 -1.421875 18.96875 -0.25 
Q 13.140625 0.921875 6.890625 3.21875 
L 6.890625 13.375 
Q 12.890625 10.015625 18.65625 8.296875 
Q 24.421875 6.59375 29.984375 6.59375 
Q 38.421875 6.59375 43.015625 9.90625 
Q 47.609375 13.234375 47.609375 19.390625 
Q 47.609375 24.75 44.3125 27.78125 
Q 41.015625 30.8125 33.5 32.328125 
L 27.484375 33.5 
Q 16.453125 35.6875 11.515625 40.375 
Q 6.59375 45.0625 6.59375 53.421875 
Q 6.59375 63.09375 13.40625 68.65625 
Q 20.21875 74.21875 32.171875 74.21875 
Q 37.3125 74.21875 42.625 73.28125 
Q 47.953125 72.359375 53.515625 70.515625 
z
" id="DejaVuSans-83"/>
     <path d="M 9.8125 72.90625 
L 19.671875 72.90625 
L 19.671875 8.296875 
L 55.171875 8.296875 
L 55.171875 0 
L 9.8125 0 
z
" id="DejaVuSans-76"/>
     <path d="M 39.40625 66.21875 
Q 28.65625 66.21875 22.328125 58.203125 
Q 16.015625 50.203125 16.015625 36.375 
Q 16.015625 22.609375 22.328125 14.59375 
Q 28.65625 6.59375 39.40625 6.59375 
Q 50.140625 6.59375 56.421875 14.59375 
Q 62.703125 22.609375 62.703125 36.375 
Q 62.703125 50.203125 56.421875 58.203125 
Q 50.140625 66.21875 39.40625 66.21875 
z
M 53.21875 1.3125 
L 66.21875 -12.890625 
L 54.296875 -12.890625 
L 43.5 -1.21875 
Q 41.890625 -1.3125 41.03125 -1.359375 
Q 40.1875 -1.421875 39.40625 -1.421875 
Q 24.03125 -1.421875 14.8125 8.859375 
Q 5.609375 19.140625 5.609375 36.375 
Q 5.609375 53.65625 14.8125 63.9375 
Q 24.03125 74.21875 39.40625 74.21875 
Q 54.734375 74.21875 63.90625 63.9375 
Q 73.09375 53.65625 73.09375 36.375 
Q 73.09375 23.6875 67.984375 14.640625 
Q 62.890625 5.609375 53.21875 1.3125 
z
" id="DejaVuSans-81"/>
     <path d="M 19.671875 64.796875 
L 19.671875 37.40625 
L 32.078125 37.40625 
Q 38.96875 37.40625 42.71875 40.96875 
Q 46.484375 44.53125 46.484375 51.125 
Q 46.484375 57.671875 42.71875 61.234375 
Q 38.96875 64.796875 32.078125 64.796875 
z
M 9.8125 72.90625 
L 32.078125 72.90625 
Q 44.34375 72.90625 50.609375 67.359375 
Q 56.890625 61.8125 56.890625 51.125 
Q 56.890625 40.328125 50.609375 34.8125 
Q 44.34375 29.296875 32.078125 29.296875 
L 19.671875 29.296875 
L 19.671875 0 
L 9.8125 0 
z
" id="DejaVuSans-80"/>
    </defs>
    <g transform="translate(375.22944 298.262739)scale(0.17 -0.17)">
     <use xlink:href="#DejaVuSans-83"/>
     <use x="63.476562" xlink:href="#DejaVuSans-76"/>
     <use x="119.189453" xlink:href="#DejaVuSans-83"/>
     <use x="182.666016" xlink:href="#DejaVuSans-81"/>
     <use x="261.376953" xlink:href="#DejaVuSans-80"/>
     <use x="321.648438" xlink:href="#DejaVuSans-45"/>
     <use x="357.732422" xlink:href="#DejaVuSans-49"/>
     <use x="421.355469" xlink:href="#DejaVuSans-49"/>
     <use x="484.978516" xlink:href="#DejaVuSans-32"/>
    </g>
   </g>
   <g id="text_14">
    <!-- CMA-ES  2 -->
    <defs>
     <path d="M 64.40625 67.28125 
L 64.40625 56.890625 
Q 59.421875 61.53125 53.78125 63.8125 
Q 48.140625 66.109375 41.796875 66.109375 
Q 29.296875 66.109375 22.65625 58.46875 
Q 16.015625 50.828125 16.015625 36.375 
Q 16.015625 21.96875 22.65625 14.328125 
Q 29.296875 6.6875 41.796875 6.6875 
Q 48.140625 6.6875 53.78125 8.984375 
Q 59.421875 11.28125 64.40625 15.921875 
L 64.40625 5.609375 
Q 59.234375 2.09375 53.4375 0.328125 
Q 47.65625 -1.421875 41.21875 -1.421875 
Q 24.65625 -1.421875 15.125 8.703125 
Q 5.609375 18.84375 5.609375 36.375 
Q 5.609375 53.953125 15.125 64.078125 
Q 24.65625 74.21875 41.21875 74.21875 
Q 47.75 74.21875 53.53125 72.484375 
Q 59.328125 70.75 64.40625 67.28125 
z
" id="DejaVuSans-67"/>
     <path d="M 9.8125 72.90625 
L 24.515625 72.90625 
L 43.109375 23.296875 
L 61.8125 72.90625 
L 76.515625 72.90625 
L 76.515625 0 
L 66.890625 0 
L 66.890625 64.015625 
L 48.09375 14.015625 
L 38.1875 14.015625 
L 19.390625 64.015625 
L 19.390625 0 
L 9.8125 0 
z
" id="DejaVuSans-77"/>
     <path d="M 34.1875 63.1875 
L 20.796875 26.90625 
L 47.609375 26.90625 
z
M 28.609375 72.90625 
L 39.796875 72.90625 
L 67.578125 0 
L 57.328125 0 
L 50.6875 18.703125 
L 17.828125 18.703125 
L 11.1875 0 
L 0.78125 0 
z
" id="DejaVuSans-65"/>
     <path d="M 9.8125 72.90625 
L 55.90625 72.90625 
L 55.90625 64.59375 
L 19.671875 64.59375 
L 19.671875 43.015625 
L 54.390625 43.015625 
L 54.390625 34.71875 
L 19.671875 34.71875 
L 19.671875 8.296875 
L 56.78125 8.296875 
L 56.78125 0 
L 9.8125 0 
z
" id="DejaVuSans-69"/>
    </defs>
    <g transform="translate(375.22944 212.307571)scale(0.17 -0.17)">
     <use xlink:href="#DejaVuSans-67"/>
     <use x="69.824219" xlink:href="#DejaVuSans-77"/>
     <use x="156.103516" xlink:href="#DejaVuSans-65"/>
     <use x="224.480469" xlink:href="#DejaVuSans-45"/>
     <use x="260.564453" xlink:href="#DejaVuSans-69"/>
     <use x="323.748047" xlink:href="#DejaVuSans-83"/>
     <use x="387.224609" xlink:href="#DejaVuSans-32"/>
     <use x="419.011719" xlink:href="#DejaVuSans-32"/>
     <use x="450.798828" xlink:href="#DejaVuSans-50"/>
    </g>
   </g>
   <g id="text_15">
    <!-- lq-CMA-ES -->
    <defs>
     <path d="M 14.796875 27.296875 
Q 14.796875 17.390625 18.875 11.75 
Q 22.953125 6.109375 30.078125 6.109375 
Q 37.203125 6.109375 41.296875 11.75 
Q 45.40625 17.390625 45.40625 27.296875 
Q 45.40625 37.203125 41.296875 42.84375 
Q 37.203125 48.484375 30.078125 48.484375 
Q 22.953125 48.484375 18.875 42.84375 
Q 14.796875 37.203125 14.796875 27.296875 
z
M 45.40625 8.203125 
Q 42.578125 3.328125 38.25 0.953125 
Q 33.9375 -1.421875 27.875 -1.421875 
Q 17.96875 -1.421875 11.734375 6.484375 
Q 5.515625 14.40625 5.515625 27.296875 
Q 5.515625 40.1875 11.734375 48.09375 
Q 17.96875 56 27.875 56 
Q 33.9375 56 38.25 53.625 
Q 42.578125 51.265625 45.40625 46.390625 
L 45.40625 54.6875 
L 54.390625 54.6875 
L 54.390625 -20.796875 
L 45.40625 -20.796875 
z
" id="DejaVuSans-113"/>
    </defs>
    <g transform="translate(375.22944 126.352403)scale(0.17 -0.17)">
     <use xlink:href="#DejaVuSans-108"/>
     <use x="27.783203" xlink:href="#DejaVuSans-113"/>
     <use x="91.259766" xlink:href="#DejaVuSans-45"/>
     <use x="127.34375" xlink:href="#DejaVuSans-67"/>
     <use x="197.167969" xlink:href="#DejaVuSans-77"/>
     <use x="283.447266" xlink:href="#DejaVuSans-65"/>
     <use x="351.824219" xlink:href="#DejaVuSans-45"/>
     <use x="387.908203" xlink:href="#DejaVuSans-69"/>
     <use x="451.091797" xlink:href="#DejaVuSans-83"/>
    </g>
   </g>
   <g id="text_16">
    <!-- SLSQP+CMA -->
    <defs>
     <path d="M 46 62.703125 
L 46 35.5 
L 73.1875 35.5 
L 73.1875 27.203125 
L 46 27.203125 
L 46 0 
L 37.796875 0 
L 37.796875 27.203125 
L 10.59375 27.203125 
L 10.59375 35.5 
L 37.796875 35.5 
L 37.796875 62.703125 
z
" id="DejaVuSans-43"/>
    </defs>
    <g transform="translate(375.22944 40.397235)scale(0.17 -0.17)">
     <use xlink:href="#DejaVuSans-83"/>
     <use x="63.476562" xlink:href="#DejaVuSans-76"/>
     <use x="119.189453" xlink:href="#DejaVuSans-83"/>
     <use x="182.666016" xlink:href="#DejaVuSans-81"/>
     <use x="261.376953" xlink:href="#DejaVuSans-80"/>
     <use x="321.679688" xlink:href="#DejaVuSans-43"/>
     <use x="405.46875" xlink:href="#DejaVuSans-67"/>
     <use x="475.292969" xlink:href="#DejaVuSans-77"/>
     <use x="561.572266" xlink:href="#DejaVuSans-65"/>
    </g>
   </g>
   <g id="text_17">
    <!-- bbob f24, 5-D -->
    <defs>
     <path d="M 48.6875 27.296875 
Q 48.6875 37.203125 44.609375 42.84375 
Q 40.53125 48.484375 33.40625 48.484375 
Q 26.265625 48.484375 22.1875 42.84375 
Q 18.109375 37.203125 18.109375 27.296875 
Q 18.109375 17.390625 22.1875 11.75 
Q 26.265625 6.109375 33.40625 6.109375 
Q 40.53125 6.109375 44.609375 11.75 
Q 48.6875 17.390625 48.6875 27.296875 
z
M 18.109375 46.390625 
Q 20.953125 51.265625 25.265625 53.625 
Q 29.59375 56 35.59375 56 
Q 45.5625 56 51.78125 48.09375 
Q 58.015625 40.1875 58.015625 27.296875 
Q 58.015625 14.40625 51.78125 6.484375 
Q 45.5625 -1.421875 35.59375 -1.421875 
Q 29.59375 -1.421875 25.265625 0.953125 
Q 20.953125 3.328125 18.109375 8.203125 
L 18.109375 0 
L 9.078125 0 
L 9.078125 75.984375 
L 18.109375 75.984375 
z
" id="DejaVuSans-98"/>
     <path d="M 10.796875 72.90625 
L 49.515625 72.90625 
L 49.515625 64.59375 
L 19.828125 64.59375 
L 19.828125 46.734375 
Q 21.96875 47.46875 24.109375 47.828125 
Q 26.265625 48.1875 28.421875 48.1875 
Q 40.625 48.1875 47.75 41.5 
Q 54.890625 34.8125 54.890625 23.390625 
Q 54.890625 11.625 47.5625 5.09375 
Q 40.234375 -1.421875 26.90625 -1.421875 
Q 22.3125 -1.421875 17.546875 -0.640625 
Q 12.796875 0.140625 7.71875 1.703125 
L 7.71875 11.625 
Q 12.109375 9.234375 16.796875 8.0625 
Q 21.484375 6.890625 26.703125 6.890625 
Q 35.15625 6.890625 40.078125 11.328125 
Q 45.015625 15.765625 45.015625 23.390625 
Q 45.015625 31 40.078125 35.4375 
Q 35.15625 39.890625 26.703125 39.890625 
Q 22.75 39.890625 18.8125 39.015625 
Q 14.890625 38.140625 10.796875 36.28125 
z
" id="DejaVuSans-53"/>
     <path d="M 19.671875 64.796875 
L 19.671875 8.109375 
L 31.59375 8.109375 
Q 46.6875 8.109375 53.6875 14.9375 
Q 60.6875 21.78125 60.6875 36.53125 
Q 60.6875 51.171875 53.6875 57.984375 
Q 46.6875 64.796875 31.59375 64.796875 
z
M 9.8125 72.90625 
L 30.078125 72.90625 
Q 51.265625 72.90625 61.171875 64.09375 
Q 71.09375 55.28125 71.09375 36.53125 
Q 71.09375 17.671875 61.125 8.828125 
Q 51.171875 0 30.078125 0 
L 9.8125 0 
z
" id="DejaVuSans-68"/>
    </defs>
    <g transform="translate(60.41088 38.111366)scale(0.102 -0.102)">
     <use xlink:href="#DejaVuSans-98"/>
     <use x="63.476562" xlink:href="#DejaVuSans-98"/>
     <use x="126.953125" xlink:href="#DejaVuSans-111"/>
     <use x="188.134766" xlink:href="#DejaVuSans-98"/>
     <use x="251.611328" xlink:href="#DejaVuSans-32"/>
     <use x="283.398438" xlink:href="#DejaVuSans-102"/>
     <use x="318.603516" xlink:href="#DejaVuSans-50"/>
     <use x="382.226562" xlink:href="#DejaVuSans-52"/>
     <use x="445.849609" xlink:href="#DejaVuSans-44"/>
     <use x="477.636719" xlink:href="#DejaVuSans-32"/>
     <use x="509.423828" xlink:href="#DejaVuSans-53"/>
     <use x="573.046875" xlink:href="#DejaVuSans-45"/>
     <use x="609.130859" xlink:href="#DejaVuSans-68"/>
    </g>
    <!-- 51 targets: 100..1e-08 -->
    <defs>
     <path d="M 11.71875 12.40625 
L 22.015625 12.40625 
L 22.015625 0 
L 11.71875 0 
z
M 11.71875 51.703125 
L 22.015625 51.703125 
L 22.015625 39.3125 
L 11.71875 39.3125 
z
" id="DejaVuSans-58"/>
    </defs>
    <g transform="translate(60.41088 49.533135)scale(0.102 -0.102)">
     <use xlink:href="#DejaVuSans-53"/>
     <use x="63.623047" xlink:href="#DejaVuSans-49"/>
     <use x="127.246094" xlink:href="#DejaVuSans-32"/>
     <use x="159.033203" xlink:href="#DejaVuSans-116"/>
     <use x="198.242188" xlink:href="#DejaVuSans-97"/>
     <use x="259.521484" xlink:href="#DejaVuSans-114"/>
     <use x="300.619141" xlink:href="#DejaVuSans-103"/>
     <use x="364.095703" xlink:href="#DejaVuSans-101"/>
     <use x="425.619141" xlink:href="#DejaVuSans-116"/>
     <use x="464.828125" xlink:href="#DejaVuSans-115"/>
     <use x="516.927734" xlink:href="#DejaVuSans-58"/>
     <use x="550.619141" xlink:href="#DejaVuSans-32"/>
     <use x="582.40625" xlink:href="#DejaVuSans-49"/>
     <use x="646.029297" xlink:href="#DejaVuSans-48"/>
     <use x="709.652344" xlink:href="#DejaVuSans-48"/>
     <use x="773.275391" xlink:href="#DejaVuSans-46"/>
     <use x="805.0625" xlink:href="#DejaVuSans-46"/>
     <use x="836.849609" xlink:href="#DejaVuSans-49"/>
     <use x="900.472656" xlink:href="#DejaVuSans-101"/>
     <use x="961.996094" xlink:href="#DejaVuSans-45"/>
     <use x="998.080078" xlink:href="#DejaVuSans-48"/>
     <use x="1061.703125" xlink:href="#DejaVuSans-56"/>
    </g>
    <!-- 15 instances -->
    <g transform="translate(60.41088 60.954904)scale(0.102 -0.102)">
     <use xlink:href="#DejaVuSans-49"/>
     <use x="63.623047" xlink:href="#DejaVuSans-53"/>
     <use x="127.246094" xlink:href="#DejaVuSans-32"/>
     <use x="159.033203" xlink:href="#DejaVuSans-105"/>
     <use x="186.816406" xlink:href="#DejaVuSans-110"/>
     <use x="250.195312" xlink:href="#DejaVuSans-115"/>
     <use x="302.294922" xlink:href="#DejaVuSans-116"/>
     <use x="341.503906" xlink:href="#DejaVuSans-97"/>
     <use x="402.783203" xlink:href="#DejaVuSans-110"/>
     <use x="466.162109" xlink:href="#DejaVuSans-99"/>
     <use x="521.142578" xlink:href="#DejaVuSans-101"/>
     <use x="582.666016" xlink:href="#DejaVuSans-115"/>
    </g>
   </g>
   <g id="text_18">
    <!-- v2.3.2 -->
    <defs>
     <path d="M 40.578125 39.3125 
Q 47.65625 37.796875 51.625 33 
Q 55.609375 28.21875 55.609375 21.1875 
Q 55.609375 10.40625 48.1875 4.484375 
Q 40.765625 -1.421875 27.09375 -1.421875 
Q 22.515625 -1.421875 17.65625 -0.515625 
Q 12.796875 0.390625 7.625 2.203125 
L 7.625 11.71875 
Q 11.71875 9.328125 16.59375 8.109375 
Q 21.484375 6.890625 26.8125 6.890625 
Q 36.078125 6.890625 40.9375 10.546875 
Q 45.796875 14.203125 45.796875 21.1875 
Q 45.796875 27.640625 41.28125 31.265625 
Q 36.765625 34.90625 28.71875 34.90625 
L 20.21875 34.90625 
L 20.21875 43.015625 
L 29.109375 43.015625 
Q 36.375 43.015625 40.234375 45.921875 
Q 44.09375 48.828125 44.09375 54.296875 
Q 44.09375 59.90625 40.109375 62.90625 
Q 36.140625 65.921875 28.71875 65.921875 
Q 24.65625 65.921875 20.015625 65.03125 
Q 15.375 64.15625 9.8125 62.3125 
L 9.8125 71.09375 
Q 15.4375 72.65625 20.34375 73.4375 
Q 25.25 74.21875 29.59375 74.21875 
Q 40.828125 74.21875 47.359375 69.109375 
Q 53.90625 64.015625 53.90625 55.328125 
Q 53.90625 49.265625 50.4375 45.09375 
Q 46.96875 40.921875 40.578125 39.3125 
z
" id="DejaVuSans-51"/>
    </defs>
    <g style="fill:#808080;" transform="translate(182.46275 294.151352)scale(0.1 -0.1)">
     <use xlink:href="#DejaVuSans-118"/>
     <use x="59.179688" xlink:href="#DejaVuSans-50"/>
     <use x="122.802734" xlink:href="#DejaVuSans-46"/>
     <use x="154.589844" xlink:href="#DejaVuSans-51"/>
     <use x="218.212891" xlink:href="#DejaVuSans-46"/>
     <use x="250" xlink:href="#DejaVuSans-50"/>
    </g>
   </g>
   <g id="text_19">
    <!-- 24 Lunacek bi-Rastrigin -->
    <defs>
     <path d="M 9.078125 75.984375 
L 18.109375 75.984375 
L 18.109375 31.109375 
L 44.921875 54.6875 
L 56.390625 54.6875 
L 27.390625 29.109375 
L 57.625 0 
L 45.90625 0 
L 18.109375 26.703125 
L 18.109375 0 
L 9.078125 0 
z
" id="DejaVuSans-107"/>
     <path d="M 44.390625 34.1875 
Q 47.5625 33.109375 50.5625 29.59375 
Q 53.5625 26.078125 56.59375 19.921875 
L 66.609375 0 
L 56 0 
L 46.6875 18.703125 
Q 43.0625 26.03125 39.671875 28.421875 
Q 36.28125 30.8125 30.421875 30.8125 
L 19.671875 30.8125 
L 19.671875 0 
L 9.8125 0 
L 9.8125 72.90625 
L 32.078125 72.90625 
Q 44.578125 72.90625 50.734375 67.671875 
Q 56.890625 62.453125 56.890625 51.90625 
Q 56.890625 45.015625 53.6875 40.46875 
Q 50.484375 35.9375 44.390625 34.1875 
z
M 19.671875 64.796875 
L 19.671875 38.921875 
L 32.078125 38.921875 
Q 39.203125 38.921875 42.84375 42.21875 
Q 46.484375 45.515625 46.484375 51.90625 
Q 46.484375 58.296875 42.84375 61.546875 
Q 39.203125 64.796875 32.078125 64.796875 
z
" id="DejaVuSans-82"/>
    </defs>
    <g transform="translate(79.9565 21.648)scale(0.2 -0.2)">
     <use xlink:href="#DejaVuSans-50"/>
     <use x="63.623047" xlink:href="#DejaVuSans-52"/>
     <use x="127.246094" xlink:href="#DejaVuSans-32"/>
     <use x="159.033203" xlink:href="#DejaVuSans-76"/>
     <use x="214.730469" xlink:href="#DejaVuSans-117"/>
     <use x="278.109375" xlink:href="#DejaVuSans-110"/>
     <use x="341.488281" xlink:href="#DejaVuSans-97"/>
     <use x="402.767578" xlink:href="#DejaVuSans-99"/>
     <use x="457.748047" xlink:href="#DejaVuSans-101"/>
     <use x="519.271484" xlink:href="#DejaVuSans-107"/>
     <use x="577.181641" xlink:href="#DejaVuSans-32"/>
     <use x="608.96875" xlink:href="#DejaVuSans-98"/>
     <use x="672.445312" xlink:href="#DejaVuSans-105"/>
     <use x="700.228516" xlink:href="#DejaVuSans-45"/>
     <use x="736.3125" xlink:href="#DejaVuSans-82"/>
     <use x="805.763672" xlink:href="#DejaVuSans-97"/>
     <use x="867.042969" xlink:href="#DejaVuSans-115"/>
     <use x="919.142578" xlink:href="#DejaVuSans-116"/>
     <use x="958.351562" xlink:href="#DejaVuSans-114"/>
     <use x="999.464844" xlink:href="#DejaVuSans-105"/>
     <use x="1027.248047" xlink:href="#DejaVuSans-103"/>
     <use x="1090.724609" xlink:href="#DejaVuSans-105"/>
     <use x="1118.507812" xlink:href="#DejaVuSans-110"/>
    </g>
   </g>
  </g>
 </g>
 <defs>
  <clipPath id="p472fabfb54">
   <rect height="271.296" width="281.088" x="57.6" y="27.648"/>
  </clipPath>
 </defs>
</svg>
