<?xml version="1.0" encoding="utf-8" standalone="no"?>
<!DOCTYPE svg PUBLIC "-//W3C//DTD SVG 1.1//EN"
  "http://www.w3.org/Graphics/SVG/1.1/DTD/svg11.dtd">
<!-- Created with matplotlib (https://matplotlib.org/) -->
<svg height="345.6pt" version="1.1" viewBox="0 0 460.8 345.6" width="460.8pt" xmlns="http://www.w3.org/2000/svg" xmlns:xlink="http://www.w3.org/1999/xlink">
 <defs>
  <style type="text/css">
*{stroke-linecap:butt;stroke-linejoin:round;}
  </style>
 </defs>
 <g id="figure_1">
  <g id="patch_1">
   <path d="M 0 345.6 
L 460.8 345.6 
L 460.8 0 
L 0 0 
z
" style="fill:#ffffff;"/>
  </g>
  <g id="axes_1">
   <g id="patch_2">
    <path d="M 57.6 298.944 
L 338.688 298.944 
L 338.688 27.648 
L 57.6 27.648 
z
" style="fill:#ffffff;"/>
   </g>
   <g id="matplotlib.axis_1">
    <g id="xtick_1">
     <g id="line2d_1">
      <path clip-path="url(#paf21fd62e1)" d="M 57.6 298.944 
L 57.6 27.648 
" style="fill:none;stroke:#b0b0b0;stroke-linecap:square;stroke-width:0.8;"/>
     </g>
     <g id="line2d_2">
      <defs>
       <path d="M 0 0 
L 0 3.5 
" id="m5e57f0e708" style="stroke:#000000;stroke-width:0.8;"/>
      </defs>
      <g>
       <use style="stroke:#000000;stroke-width:0.8;" x="57.6" xlink:href="#m5e57f0e708" y="298.944"/>
      </g>
     </g>
     <g id="text_1">
      <!-- 0 -->
      <defs>
       <path d="M 31.78125 66.40625 
Q 24.171875 66.40625 20.328125 58.90625 
Q 16.5 51.421875 16.5 36.375 
Q 16.5 21.390625 20.328125 13.890625 
Q 24.171875 6.390625 31.78125 6.390625 
Q 39.453125 6.390625 43.28125 13.890625 
Q 47.125 21.390625 47.125 36.375 
Q 47.125 51.421875 43.28125 58.90625 
Q 39.453125 66.40625 31.78125 66.40625 
z
M 31.78125 74.21875 
Q 44.046875 74.21875 50.515625 64.515625 
Q 56.984375 54.828125 56.984375 36.375 
Q 56.984375 17.96875 50.515625 8.265625 
Q 44.046875 -1.421875 31.78125 -1.421875 
Q 19.53125 -1.421875 13.0625 8.265625 
Q 6.59375 17.96875 6.59375 36.375 
Q 6.59375 54.828125 13.0625 64.515625 
Q 19.53125 74.21875 31.78125 74.21875 
z
" id="DejaVuSans-48"/>
      </defs>
      <g transform="translate(51.2375 321.140875)scale(0.2 -0.2)">
       <use xlink:href="#DejaVuSans-48"/>
      </g>
     </g>
    </g>
    <g id="xtick_2">
     <g id="line2d_3">
      <path clip-path="url(#paf21fd62e1)" d="M 137.910857 298.944 
L 137.910857 27.648 
" style="fill:none;stroke:#b0b0b0;stroke-linecap:square;stroke-width:0.8;"/>
     </g>
     <g id="line2d_4">
      <g>
       <use style="stroke:#000000;stroke-width:0.8;" x="137.910857" xlink:href="#m5e57f0e708" y="298.944"/>
      </g>
     </g>
     <g id="text_2">
      <!-- 2 -->
      <defs>
       <path d="M 19.1875 8.296875 
L 53.609375 8.296875 
L 53.609375 0 
L 7.328125 0 
L 7.328125 8.296875 
Q 12.9375 14.109375 22.625 23.890625 
Q 32.328125 33.6875 34.8125 36.53125 
Q 39.546875 41.84375 41.421875 45.53125 
Q 43.3125 49.21875 43.3125 52.78125 
Q 43.3125 58.59375 39.234375 62.25 
Q 35.15625 65.921875 28.609375 65.921875 
Q 23.96875 65.921875 18.8125 64.3125 
Q 13.671875 62.703125 7.8125 59.421875 
L 7.8125 69.390625 
Q 13.765625 71.78125 18.9375 73 
Q 24.125 74.21875 28.421875 74.21875 
Q 39.75 74.21875 46.484375 68.546875 
Q 53.21875 62.890625 53.21875 53.421875 
Q 53.21875 48.921875 51.53125 44.890625 
Q 49.859375 40.875 45.40625 35.40625 
Q 44.1875 33.984375 37.640625 27.21875 
Q 31.109375 20.453125 19.1875 8.296875 
z
" id="DejaVuSans-50"/>
      </defs>
      <g transform="translate(131.548357 321.140875)scale(0.2 -0.2)">
       <use xlink:href="#DejaVuSans-50"/>
      </g>
     </g>
    </g>
    <g id="xtick_3">
     <g id="line2d_5">
      <path clip-path="url(#paf21fd62e1)" d="M 218.221714 298.944 
L 218.221714 27.648 
" style="fill:none;stroke:#b0b0b0;stroke-linecap:square;stroke-width:0.8;"/>
     </g>
     <g id="line2d_6">
      <g>
       <use style="stroke:#000000;stroke-width:0.8;" x="218.221714" xlink:href="#m5e57f0e708" y="298.944"/>
      </g>
     </g>
     <g id="text_3">
      <!-- 4 -->
      <defs>
       <path d="M 37.796875 64.3125 
L 12.890625 25.390625 
L 37.796875 25.390625 
z
M 35.203125 72.90625 
L 47.609375 72.90625 
L 47.609375 25.390625 
L 58.015625 25.390625 
L 58.015625 17.1875 
L 47.609375 17.1875 
L 47.609375 0 
L 37.796875 0 
L 37.796875 17.1875 
L 4.890625 17.1875 
L 4.890625 26.703125 
z
" id="DejaVuSans-52"/>
      </defs>
      <g transform="translate(211.859214 321.140875)scale(0.2 -0.2)">
       <use xlink:href="#DejaVuSans-52"/>
      </g>
     </g>
    </g>
    <g id="xtick_4">
     <g id="line2d_7">
      <path clip-path="url(#paf21fd62e1)" d="M 298.532571 298.944 
L 298.532571 27.648 
" style="fill:none;stroke:#b0b0b0;stroke-linecap:square;stroke-width:0.8;"/>
     </g>
     <g id="line2d_8">
      <g>
       <use style="stroke:#000000;stroke-width:0.8;" x="298.532571" xlink:href="#m5e57f0e708" y="298.944"/>
      </g>
     </g>
     <g id="text_4">
      <!-- 6 -->
      <defs>
       <path d="M 33.015625 40.375 
Q 26.375 40.375 22.484375 35.828125 
Q 18.609375 31.296875 18.609375 23.390625 
Q 18.609375 15.53125 22.484375 10.953125 
Q 26.375 6.390625 33.015625 6.390625 
Q 39.65625 6.390625 43.53125 10.953125 
Q 47.40625 15.53125 47.40625 23.390625 
Q 47.40625 31.296875 43.53125 35.828125 
Q 39.65625 40.375 33.015625 40.375 
z
M 52.59375 71.296875 
L 52.59375 62.3125 
Q 48.875 64.0625 45.09375 64.984375 
Q 41.3125 65.921875 37.59375 65.921875 
Q 27.828125 65.921875 22.671875 59.328125 
Q 17.53125 52.734375 16.796875 39.40625 
Q 19.671875 43.65625 24.015625 45.921875 
Q 28.375 48.1875 33.59375 48.1875 
Q 44.578125 48.1875 50.953125 41.515625 
Q 57.328125 34.859375 57.328125 23.390625 
Q 57.328125 12.15625 50.6875 5.359375 
Q 44.046875 -1.421875 33.015625 -1.421875 
Q 20.359375 -1.421875 13.671875 8.265625 
Q 6.984375 17.96875 6.984375 36.375 
Q 6.984375 53.65625 15.1875 63.9375 
Q 23.390625 74.21875 37.203125 74.21875 
Q 40.921875 74.21875 44.703125 73.484375 
Q 48.484375 72.75 52.59375 71.296875 
z
" id="DejaVuSans-54"/>
      </defs>
      <g transform="translate(292.170071 321.140875)scale(0.2 -0.2)">
       <use xlink:href="#DejaVuSans-54"/>
      </g>
     </g>
    </g>
    <g id="xtick_5">
     <g id="line2d_9">
      <path clip-path="url(#paf21fd62e1)" d="M 57.6 298.944 
L 57.6 27.648 
" style="fill:none;stroke:#b0b0b0;stroke-linecap:square;stroke-width:0.8;"/>
     </g>
     <g id="line2d_10">
      <defs>
       <path d="M 0 0 
L 0 2 
" id="mf52fc23450" style="stroke:#000000;stroke-width:0.6;"/>
      </defs>
      <g>
       <use style="stroke:#000000;stroke-width:0.6;" x="57.6" xlink:href="#mf52fc23450" y="298.944"/>
      </g>
     </g>
    </g>
    <g id="xtick_6">
     <g id="line2d_11">
      <path clip-path="url(#paf21fd62e1)" d="M 97.755429 298.944 
L 97.755429 27.648 
" style="fill:none;stroke:#b0b0b0;stroke-linecap:square;stroke-width:0.8;"/>
     </g>
     <g id="line2d_12">
      <g>
       <use style="stroke:#000000;stroke-width:0.6;" x="97.755429" xlink:href="#mf52fc23450" y="298.944"/>
      </g>
     </g>
    </g>
    <g id="xtick_7">
     <g id="line2d_13">
      <path clip-path="url(#paf21fd62e1)" d="M 137.910857 298.944 
L 137.910857 27.648 
" style="fill:none;stroke:#b0b0b0;stroke-linecap:square;stroke-width:0.8;"/>
     </g>
     <g id="line2d_14">
      <g>
       <use style="stroke:#000000;stroke-width:0.6;" x="137.910857" xlink:href="#mf52fc23450" y="298.944"/>
      </g>
     </g>
    </g>
    <g id="xtick_8">
     <g id="line2d_15">
      <path clip-path="url(#paf21fd62e1)" d="M 178.066286 298.944 
L 178.066286 27.648 
" style="fill:none;stroke:#b0b0b0;stroke-linecap:square;stroke-width:0.8;"/>
     </g>
     <g id="line2d_16">
      <g>
       <use style="stroke:#000000;stroke-width:0.6;" x="178.066286" xlink:href="#mf52fc23450" y="298.944"/>
      </g>
     </g>
    </g>
    <g id="xtick_9">
     <g id="line2d_17">
      <path clip-path="url(#paf21fd62e1)" d="M 218.221714 298.944 
L 218.221714 27.648 
" style="fill:none;stroke:#b0b0b0;stroke-linecap:square;stroke-width:0.8;"/>
     </g>
     <g id="line2d_18">
      <g>
       <use style="stroke:#000000;stroke-width:0.6;" x="218.221714" xlink:href="#mf52fc23450" y="298.944"/>
      </g>
     </g>
    </g>
    <g id="xtick_10">
     <g id="line2d_19">
      <path clip-path="url(#paf21fd62e1)" d="M 258.377143 298.944 
L 258.377143 27.648 
" style="fill:none;stroke:#b0b0b0;stroke-linecap:square;stroke-width:0.8;"/>
     </g>
     <g id="line2d_20">
      <g>
       <use style="stroke:#000000;stroke-width:0.6;" x="258.377143" xlink:href="#mf52fc23450" y="298.944"/>
      </g>
     </g>
    </g>
    <g id="xtick_11">
     <g id="line2d_21">
      <path clip-path="url(#paf21fd62e1)" d="M 298.532571 298.944 
L 298.532571 27.648 
" style="fill:none;stroke:#b0b0b0;stroke-linecap:square;stroke-width:0.8;"/>
     </g>
     <g id="line2d_22">
      <g>
       <use style="stroke:#000000;stroke-width:0.6;" x="298.532571" xlink:href="#mf52fc23450" y="298.944"/>
      </g>
     </g>
    </g>
    <g id="xtick_12">
     <g id="line2d_23">
      <path clip-path="url(#paf21fd62e1)" d="M 338.688 298.944 
L 338.688 27.648 
" style="fill:none;stroke:#b0b0b0;stroke-linecap:square;stroke-width:0.8;"/>
     </g>
     <g id="line2d_24">
      <g>
       <use style="stroke:#000000;stroke-width:0.6;" x="338.688" xlink:href="#mf52fc23450" y="298.944"/>
      </g>
     </g>
    </g>
    <g id="text_5">
     <!-- log10(# f-evals / dimension) -->
     <defs>
      <path d="M 9.421875 75.984375 
L 18.40625 75.984375 
L 18.40625 0 
L 9.421875 0 
z
" id="DejaVuSans-108"/>
      <path d="M 30.609375 48.390625 
Q 23.390625 48.390625 19.1875 42.75 
Q 14.984375 37.109375 14.984375 27.296875 
Q 14.984375 17.484375 19.15625 11.84375 
Q 23.34375 6.203125 30.609375 6.203125 
Q 37.796875 6.203125 41.984375 11.859375 
Q 46.1875 17.53125 46.1875 27.296875 
Q 46.1875 37.015625 41.984375 42.703125 
Q 37.796875 48.390625 30.609375 48.390625 
z
M 30.609375 56 
Q 42.328125 56 49.015625 48.375 
Q 55.71875 40.765625 55.71875 27.296875 
Q 55.71875 13.875 49.015625 6.21875 
Q 42.328125 -1.421875 30.609375 -1.421875 
Q 18.84375 -1.421875 12.171875 6.21875 
Q 5.515625 13.875 5.515625 27.296875 
Q 5.515625 40.765625 12.171875 48.375 
Q 18.84375 56 30.609375 56 
z
" id="DejaVuSans-111"/>
      <path d="M 45.40625 27.984375 
Q 45.40625 37.75 41.375 43.109375 
Q 37.359375 48.484375 30.078125 48.484375 
Q 22.859375 48.484375 18.828125 43.109375 
Q 14.796875 37.75 14.796875 27.984375 
Q 14.796875 18.265625 18.828125 12.890625 
Q 22.859375 7.515625 30.078125 7.515625 
Q 37.359375 7.515625 41.375 12.890625 
Q 45.40625 18.265625 45.40625 27.984375 
z
M 54.390625 6.78125 
Q 54.390625 -7.171875 48.1875 -13.984375 
Q 42 -20.796875 29.203125 -20.796875 
Q 24.46875 -20.796875 20.265625 -20.09375 
Q 16.0625 -19.390625 12.109375 -17.921875 
L 12.109375 -9.1875 
Q 16.0625 -11.328125 19.921875 -12.34375 
Q 23.78125 -13.375 27.78125 -13.375 
Q 36.625 -13.375 41.015625 -8.765625 
Q 45.40625 -4.15625 45.40625 5.171875 
L 45.40625 9.625 
Q 42.625 4.78125 38.28125 2.390625 
Q 33.9375 0 27.875 0 
Q 17.828125 0 11.671875 7.65625 
Q 5.515625 15.328125 5.515625 27.984375 
Q 5.515625 40.671875 11.671875 48.328125 
Q 17.828125 56 27.875 56 
Q 33.9375 56 38.28125 53.609375 
Q 42.625 51.21875 45.40625 46.390625 
L 45.40625 54.6875 
L 54.390625 54.6875 
z
" id="DejaVuSans-103"/>
      <path d="M 12.40625 8.296875 
L 28.515625 8.296875 
L 28.515625 63.921875 
L 10.984375 60.40625 
L 10.984375 69.390625 
L 28.421875 72.90625 
L 38.28125 72.90625 
L 38.28125 8.296875 
L 54.390625 8.296875 
L 54.390625 0 
L 12.40625 0 
z
" id="DejaVuSans-49"/>
      <path d="M 31 75.875 
Q 24.46875 64.65625 21.28125 53.65625 
Q 18.109375 42.671875 18.109375 31.390625 
Q 18.109375 20.125 21.3125 9.0625 
Q 24.515625 -2 31 -13.1875 
L 23.1875 -13.1875 
Q 15.875 -1.703125 12.234375 9.375 
Q 8.59375 20.453125 8.59375 31.390625 
Q 8.59375 42.28125 12.203125 53.3125 
Q 15.828125 64.359375 23.1875 75.875 
z
" id="DejaVuSans-40"/>
      <path d="M 51.125 44 
L 36.921875 44 
L 32.8125 27.6875 
L 47.125 27.6875 
z
M 43.796875 71.78125 
L 38.71875 51.515625 
L 52.984375 51.515625 
L 58.109375 71.78125 
L 65.921875 71.78125 
L 60.890625 51.515625 
L 76.125 51.515625 
L 76.125 44 
L 58.984375 44 
L 54.984375 27.6875 
L 70.515625 27.6875 
L 70.515625 20.21875 
L 53.078125 20.21875 
L 48 0 
L 40.1875 0 
L 45.21875 20.21875 
L 30.90625 20.21875 
L 25.875 0 
L 18.015625 0 
L 23.09375 20.21875 
L 7.71875 20.21875 
L 7.71875 27.6875 
L 24.90625 27.6875 
L 29 44 
L 13.28125 44 
L 13.28125 51.515625 
L 30.90625 51.515625 
L 35.890625 71.78125 
z
" id="DejaVuSans-35"/>
      <path id="DejaVuSans-32"/>
      <path d="M 37.109375 75.984375 
L 37.109375 68.5 
L 28.515625 68.5 
Q 23.6875 68.5 21.796875 66.546875 
Q 19.921875 64.59375 19.921875 59.515625 
L 19.921875 54.6875 
L 34.71875 54.6875 
L 34.71875 47.703125 
L 19.921875 47.703125 
L 19.921875 0 
L 10.890625 0 
L 10.890625 47.703125 
L 2.296875 47.703125 
L 2.296875 54.6875 
L 10.890625 54.6875 
L 10.890625 58.5 
Q 10.890625 67.625 15.140625 71.796875 
Q 19.390625 75.984375 28.609375 75.984375 
z
" id="DejaVuSans-102"/>
      <path d="M 4.890625 31.390625 
L 31.203125 31.390625 
L 31.203125 23.390625 
L 4.890625 23.390625 
z
" id="DejaVuSans-45"/>
      <path d="M 56.203125 29.59375 
L 56.203125 25.203125 
L 14.890625 25.203125 
Q 15.484375 15.921875 20.484375 11.0625 
Q 25.484375 6.203125 34.421875 6.203125 
Q 39.59375 6.203125 44.453125 7.46875 
Q 49.3125 8.734375 54.109375 11.28125 
L 54.109375 2.78125 
Q 49.265625 0.734375 44.1875 -0.34375 
Q 39.109375 -1.421875 33.890625 -1.421875 
Q 20.796875 -1.421875 13.15625 6.1875 
Q 5.515625 13.8125 5.515625 26.8125 
Q 5.515625 40.234375 12.765625 48.109375 
Q 20.015625 56 32.328125 56 
Q 43.359375 56 49.78125 48.890625 
Q 56.203125 41.796875 56.203125 29.59375 
z
M 47.21875 32.234375 
Q 47.125 39.59375 43.09375 43.984375 
Q 39.0625 48.390625 32.421875 48.390625 
Q 24.90625 48.390625 20.390625 44.140625 
Q 15.875 39.890625 15.1875 32.171875 
z
" id="DejaVuSans-101"/>
      <path d="M 2.984375 54.6875 
L 12.5 54.6875 
L 29.59375 8.796875 
L 46.6875 54.6875 
L 56.203125 54.6875 
L 35.6875 0 
L 23.484375 0 
z
" id="DejaVuSans-118"/>
      <path d="M 34.28125 27.484375 
Q 23.390625 27.484375 19.1875 25 
Q 14.984375 22.515625 14.984375 16.5 
Q 14.984375 11.71875 18.140625 8.90625 
Q 21.296875 6.109375 26.703125 6.109375 
Q 34.1875 6.109375 38.703125 11.40625 
Q 43.21875 16.703125 43.21875 25.484375 
L 43.21875 27.484375 
z
M 52.203125 31.203125 
L 52.203125 0 
L 43.21875 0 
L 43.21875 8.296875 
Q 40.140625 3.328125 35.546875 0.953125 
Q 30.953125 -1.421875 24.3125 -1.421875 
Q 15.921875 -1.421875 10.953125 3.296875 
Q 6 8.015625 6 15.921875 
Q 6 25.140625 12.171875 29.828125 
Q 18.359375 34.515625 30.609375 34.515625 
L 43.21875 34.515625 
L 43.21875 35.40625 
Q 43.21875 41.609375 39.140625 45 
Q 35.0625 48.390625 27.6875 48.390625 
Q 23 48.390625 18.546875 47.265625 
Q 14.109375 46.140625 10.015625 43.890625 
L 10.015625 52.203125 
Q 14.9375 54.109375 19.578125 55.046875 
Q 24.21875 56 28.609375 56 
Q 40.484375 56 46.34375 49.84375 
Q 52.203125 43.703125 52.203125 31.203125 
z
" id="DejaVuSans-97"/>
      <path d="M 44.28125 53.078125 
L 44.28125 44.578125 
Q 40.484375 46.53125 36.375 47.5 
Q 32.28125 48.484375 27.875 48.484375 
Q 21.1875 48.484375 17.84375 46.4375 
Q 14.5 44.390625 14.5 40.28125 
Q 14.5 37.15625 16.890625 35.375 
Q 19.28125 33.59375 26.515625 31.984375 
L 29.59375 31.296875 
Q 39.15625 29.25 43.1875 25.515625 
Q 47.21875 21.78125 47.21875 15.09375 
Q 47.21875 7.46875 41.1875 3.015625 
Q 35.15625 -1.421875 24.609375 -1.421875 
Q 20.21875 -1.421875 15.453125 -0.5625 
Q 10.6875 0.296875 5.421875 2 
L 5.421875 11.28125 
Q 10.40625 8.6875 15.234375 7.390625 
Q 20.0625 6.109375 24.8125 6.109375 
Q 31.15625 6.109375 34.5625 8.28125 
Q 37.984375 10.453125 37.984375 14.40625 
Q 37.984375 18.0625 35.515625 20.015625 
Q 33.0625 21.96875 24.703125 23.78125 
L 21.578125 24.515625 
Q 13.234375 26.265625 9.515625 29.90625 
Q 5.8125 33.546875 5.8125 39.890625 
Q 5.8125 47.609375 11.28125 51.796875 
Q 16.75 56 26.8125 56 
Q 31.78125 56 36.171875 55.265625 
Q 40.578125 54.546875 44.28125 53.078125 
z
" id="DejaVuSans-115"/>
      <path d="M 25.390625 72.90625 
L 33.6875 72.90625 
L 8.296875 -9.28125 
L 0 -9.28125 
z
" id="DejaVuSans-47"/>
      <path d="M 45.40625 46.390625 
L 45.40625 75.984375 
L 54.390625 75.984375 
L 54.390625 0 
L 45.40625 0 
L 45.40625 8.203125 
Q 42.578125 3.328125 38.25 0.953125 
Q 33.9375 -1.421875 27.875 -1.421875 
Q 17.96875 -1.421875 11.734375 6.484375 
Q 5.515625 14.40625 5.515625 27.296875 
Q 5.515625 40.1875 11.734375 48.09375 
Q 17.96875 56 27.875 56 
Q 33.9375 56 38.25 53.625 
Q 42.578125 51.265625 45.40625 46.390625 
z
M 14.796875 27.296875 
Q 14.796875 17.390625 18.875 11.75 
Q 22.953125 6.109375 30.078125 6.109375 
Q 37.203125 6.109375 41.296875 11.75 
Q 45.40625 17.390625 45.40625 27.296875 
Q 45.40625 37.203125 41.296875 42.84375 
Q 37.203125 48.484375 30.078125 48.484375 
Q 22.953125 48.484375 18.875 42.84375 
Q 14.796875 37.203125 14.796875 27.296875 
z
" id="DejaVuSans-100"/>
      <path d="M 9.421875 54.6875 
L 18.40625 54.6875 
L 18.40625 0 
L 9.421875 0 
z
M 9.421875 75.984375 
L 18.40625 75.984375 
L 18.40625 64.59375 
L 9.421875 64.59375 
z
" id="DejaVuSans-105"/>
      <path d="M 52 44.1875 
Q 55.375 50.25 60.0625 53.125 
Q 64.75 56 71.09375 56 
Q 79.640625 56 84.28125 50.015625 
Q 88.921875 44.046875 88.921875 33.015625 
L 88.921875 0 
L 79.890625 0 
L 79.890625 32.71875 
Q 79.890625 40.578125 77.09375 44.375 
Q 74.3125 48.1875 68.609375 48.1875 
Q 61.625 48.1875 57.5625 43.546875 
Q 53.515625 38.921875 53.515625 30.90625 
L 53.515625 0 
L 44.484375 0 
L 44.484375 32.71875 
Q 44.484375 40.625 41.703125 44.40625 
Q 38.921875 48.1875 33.109375 48.1875 
Q 26.21875 48.1875 22.15625 43.53125 
Q 18.109375 38.875 18.109375 30.90625 
L 18.109375 0 
L 9.078125 0 
L 9.078125 54.6875 
L 18.109375 54.6875 
L 18.109375 46.1875 
Q 21.1875 51.21875 25.484375 53.609375 
Q 29.78125 56 35.6875 56 
Q 41.65625 56 45.828125 52.96875 
Q 50 49.953125 52 44.1875 
z
" id="DejaVuSans-109"/>
      <path d="M 54.890625 33.015625 
L 54.890625 0 
L 45.90625 0 
L 45.90625 32.71875 
Q 45.90625 40.484375 42.875 44.328125 
Q 39.84375 48.1875 33.796875 48.1875 
Q 26.515625 48.1875 22.3125 43.546875 
Q 18.109375 38.921875 18.109375 30.90625 
L 18.109375 0 
L 9.078125 0 
L 9.078125 54.6875 
L 18.109375 54.6875 
L 18.109375 46.1875 
Q 21.34375 51.125 25.703125 53.5625 
Q 30.078125 56 35.796875 56 
Q 45.21875 56 50.046875 50.171875 
Q 54.890625 44.34375 54.890625 33.015625 
z
" id="DejaVuSans-110"/>
      <path d="M 8.015625 75.875 
L 15.828125 75.875 
Q 23.140625 64.359375 26.78125 53.3125 
Q 30.421875 42.28125 30.421875 31.390625 
Q 30.421875 20.453125 26.78125 9.375 
Q 23.140625 -1.703125 15.828125 -13.1875 
L 8.015625 -13.1875 
Q 14.5 -2 17.703125 9.0625 
Q 20.90625 20.125 20.90625 31.390625 
Q 20.90625 42.671875 17.703125 53.65625 
Q 14.5 64.65625 8.015625 75.875 
z
" id="DejaVuSans-41"/>
     </defs>
     <g transform="translate(77.303219 342.217594)scale(0.17 -0.17)">
      <use xlink:href="#DejaVuSans-108"/>
      <use x="27.783203" xlink:href="#DejaVuSans-111"/>
      <use x="88.964844" xlink:href="#DejaVuSans-103"/>
      <use x="152.441406" xlink:href="#DejaVuSans-49"/>
      <use x="216.064453" xlink:href="#DejaVuSans-48"/>
      <use x="279.6875" xlink:href="#DejaVuSans-40"/>
      <use x="318.701172" xlink:href="#DejaVuSans-35"/>
      <use x="402.490234" xlink:href="#DejaVuSans-32"/>
      <use x="434.277344" xlink:href="#DejaVuSans-102"/>
      <use x="469.404297" xlink:href="#DejaVuSans-45"/>
      <use x="505.488281" xlink:href="#DejaVuSans-101"/>
      <use x="567.011719" xlink:href="#DejaVuSans-118"/>
      <use x="626.191406" xlink:href="#DejaVuSans-97"/>
      <use x="687.470703" xlink:href="#DejaVuSans-108"/>
      <use x="715.253906" xlink:href="#DejaVuSans-115"/>
      <use x="767.353516" xlink:href="#DejaVuSans-32"/>
      <use x="799.140625" xlink:href="#DejaVuSans-47"/>
      <use x="832.832031" xlink:href="#DejaVuSans-32"/>
      <use x="864.619141" xlink:href="#DejaVuSans-100"/>
      <use x="928.095703" xlink:href="#DejaVuSans-105"/>
      <use x="955.878906" xlink:href="#DejaVuSans-109"/>
      <use x="1053.291016" xlink:href="#DejaVuSans-101"/>
      <use x="1114.814453" xlink:href="#DejaVuSans-110"/>
      <use x="1178.193359" xlink:href="#DejaVuSans-115"/>
      <use x="1230.292969" xlink:href="#DejaVuSans-105"/>
      <use x="1258.076172" xlink:href="#DejaVuSans-111"/>
      <use x="1319.257812" xlink:href="#DejaVuSans-110"/>
      <use x="1382.636719" xlink:href="#DejaVuSans-41"/>
     </g>
    </g>
   </g>
   <g id="matplotlib.axis_2">
    <g id="ytick_1">
     <g id="line2d_25">
      <path clip-path="url(#paf21fd62e1)" d="M 57.6 298.944 
L 338.688 298.944 
" style="fill:none;stroke:#b0b0b0;stroke-linecap:square;stroke-width:0.8;"/>
     </g>
     <g id="line2d_26">
      <defs>
       <path d="M 0 0 
L -3.5 0 
" id="m3ec0df1c23" style="stroke:#000000;stroke-width:0.8;"/>
      </defs>
      <g>
       <use style="stroke:#000000;stroke-width:0.8;" x="57.6" xlink:href="#m3ec0df1c23" y="298.944"/>
      </g>
     </g>
     <g id="text_6">
      <!-- 0.0 -->
      <defs>
       <path d="M 10.6875 12.40625 
L 21 12.40625 
L 21 0 
L 10.6875 0 
z
" id="DejaVuSans-46"/>
      </defs>
      <g transform="translate(25.155 305.02275)scale(0.16 -0.16)">
       <use xlink:href="#DejaVuSans-48"/>
       <use x="63.623047" xlink:href="#DejaVuSans-46"/>
       <use x="95.410156" xlink:href="#DejaVuSans-48"/>
      </g>
     </g>
    </g>
    <g id="ytick_2">
     <g id="line2d_27">
      <path clip-path="url(#paf21fd62e1)" d="M 57.6 245.22202 
L 338.688 245.22202 
" style="fill:none;stroke:#b0b0b0;stroke-linecap:square;stroke-width:0.8;"/>
     </g>
     <g id="line2d_28">
      <g>
       <use style="stroke:#000000;stroke-width:0.8;" x="57.6" xlink:href="#m3ec0df1c23" y="245.22202"/>
      </g>
     </g>
     <g id="text_7">
      <!-- 0.2 -->
      <g transform="translate(25.155 251.30077)scale(0.16 -0.16)">
       <use xlink:href="#DejaVuSans-48"/>
       <use x="63.623047" xlink:href="#DejaVuSans-46"/>
       <use x="95.410156" xlink:href="#DejaVuSans-50"/>
      </g>
     </g>
    </g>
    <g id="ytick_3">
     <g id="line2d_29">
      <path clip-path="url(#paf21fd62e1)" d="M 57.6 191.50004 
L 338.688 191.50004 
" style="fill:none;stroke:#b0b0b0;stroke-linecap:square;stroke-width:0.8;"/>
     </g>
     <g id="line2d_30">
      <g>
       <use style="stroke:#000000;stroke-width:0.8;" x="57.6" xlink:href="#m3ec0df1c23" y="191.50004"/>
      </g>
     </g>
     <g id="text_8">
      <!-- 0.4 -->
      <g transform="translate(25.155 197.57879)scale(0.16 -0.16)">
       <use xlink:href="#DejaVuSans-48"/>
       <use x="63.623047" xlink:href="#DejaVuSans-46"/>
       <use x="95.410156" xlink:href="#DejaVuSans-52"/>
      </g>
     </g>
    </g>
    <g id="ytick_4">
     <g id="line2d_31">
      <path clip-path="url(#paf21fd62e1)" d="M 57.6 137.778059 
L 338.688 137.778059 
" style="fill:none;stroke:#b0b0b0;stroke-linecap:square;stroke-width:0.8;"/>
     </g>
     <g id="line2d_32">
      <g>
       <use style="stroke:#000000;stroke-width:0.8;" x="57.6" xlink:href="#m3ec0df1c23" y="137.778059"/>
      </g>
     </g>
     <g id="text_9">
      <!-- 0.6 -->
      <g transform="translate(25.155 143.856809)scale(0.16 -0.16)">
       <use xlink:href="#DejaVuSans-48"/>
       <use x="63.623047" xlink:href="#DejaVuSans-46"/>
       <use x="95.410156" xlink:href="#DejaVuSans-54"/>
      </g>
     </g>
    </g>
    <g id="ytick_5">
     <g id="line2d_33">
      <path clip-path="url(#paf21fd62e1)" d="M 57.6 84.056079 
L 338.688 84.056079 
" style="fill:none;stroke:#b0b0b0;stroke-linecap:square;stroke-width:0.8;"/>
     </g>
     <g id="line2d_34">
      <g>
       <use style="stroke:#000000;stroke-width:0.8;" x="57.6" xlink:href="#m3ec0df1c23" y="84.056079"/>
      </g>
     </g>
     <g id="text_10">
      <!-- 0.8 -->
      <defs>
       <path d="M 31.78125 34.625 
Q 24.75 34.625 20.71875 30.859375 
Q 16.703125 27.09375 16.703125 20.515625 
Q 16.703125 13.921875 20.71875 10.15625 
Q 24.75 6.390625 31.78125 6.390625 
Q 38.8125 6.390625 42.859375 10.171875 
Q 46.921875 13.96875 46.921875 20.515625 
Q 46.921875 27.09375 42.890625 30.859375 
Q 38.875 34.625 31.78125 34.625 
z
M 21.921875 38.8125 
Q 15.578125 40.375 12.03125 44.71875 
Q 8.5 49.078125 8.5 55.328125 
Q 8.5 64.0625 14.71875 69.140625 
Q 20.953125 74.21875 31.78125 74.21875 
Q 42.671875 74.21875 48.875 69.140625 
Q 55.078125 64.0625 55.078125 55.328125 
Q 55.078125 49.078125 51.53125 44.71875 
Q 48 40.375 41.703125 38.8125 
Q 48.828125 37.15625 52.796875 32.3125 
Q 56.78125 27.484375 56.78125 20.515625 
Q 56.78125 9.90625 50.3125 4.234375 
Q 43.84375 -1.421875 31.78125 -1.421875 
Q 19.734375 -1.421875 13.25 4.234375 
Q 6.78125 9.90625 6.78125 20.515625 
Q 6.78125 27.484375 10.78125 32.3125 
Q 14.796875 37.15625 21.921875 38.8125 
z
M 18.3125 54.390625 
Q 18.3125 48.734375 21.84375 45.5625 
Q 25.390625 42.390625 31.78125 42.390625 
Q 38.140625 42.390625 41.71875 45.5625 
Q 45.3125 48.734375 45.3125 54.390625 
Q 45.3125 60.0625 41.71875 63.234375 
Q 38.140625 66.40625 31.78125 66.40625 
Q 25.390625 66.40625 21.84375 63.234375 
Q 18.3125 60.0625 18.3125 54.390625 
z
" id="DejaVuSans-56"/>
      </defs>
      <g transform="translate(25.155 90.134829)scale(0.16 -0.16)">
       <use xlink:href="#DejaVuSans-48"/>
       <use x="63.623047" xlink:href="#DejaVuSans-46"/>
       <use x="95.410156" xlink:href="#DejaVuSans-56"/>
      </g>
     </g>
    </g>
    <g id="ytick_6">
     <g id="line2d_35">
      <path clip-path="url(#paf21fd62e1)" d="M 57.6 30.334099 
L 338.688 30.334099 
" style="fill:none;stroke:#b0b0b0;stroke-linecap:square;stroke-width:0.8;"/>
     </g>
     <g id="line2d_36">
      <g>
       <use style="stroke:#000000;stroke-width:0.8;" x="57.6" xlink:href="#m3ec0df1c23" y="30.334099"/>
      </g>
     </g>
     <g id="text_11">
      <!-- 1.0 -->
      <g transform="translate(25.155 36.412849)scale(0.16 -0.16)">
       <use xlink:href="#DejaVuSans-49"/>
       <use x="63.623047" xlink:href="#DejaVuSans-46"/>
       <use x="95.410156" xlink:href="#DejaVuSans-48"/>
      </g>
     </g>
    </g>
    <g id="text_12">
     <!-- Fraction of function,target pairs -->
     <defs>
      <path d="M 9.8125 72.90625 
L 51.703125 72.90625 
L 51.703125 64.59375 
L 19.671875 64.59375 
L 19.671875 43.109375 
L 48.578125 43.109375 
L 48.578125 34.8125 
L 19.671875 34.8125 
L 19.671875 0 
L 9.8125 0 
z
" id="DejaVuSans-70"/>
      <path d="M 41.109375 46.296875 
Q 39.59375 47.171875 37.8125 47.578125 
Q 36.03125 48 33.890625 48 
Q 26.265625 48 22.1875 43.046875 
Q 18.109375 38.09375 18.109375 28.8125 
L 18.109375 0 
L 9.078125 0 
L 9.078125 54.6875 
L 18.109375 54.6875 
L 18.109375 46.1875 
Q 20.953125 51.171875 25.484375 53.578125 
Q 30.03125 56 36.53125 56 
Q 37.453125 56 38.578125 55.875 
Q 39.703125 55.765625 41.0625 55.515625 
z
" id="DejaVuSans-114"/>
      <path d="M 48.78125 52.59375 
L 48.78125 44.1875 
Q 44.96875 46.296875 41.140625 47.34375 
Q 37.3125 48.390625 33.40625 48.390625 
Q 24.65625 48.390625 19.8125 42.84375 
Q 14.984375 37.3125 14.984375 27.296875 
Q 14.984375 17.28125 19.8125 11.734375 
Q 24.65625 6.203125 33.40625 6.203125 
Q 37.3125 6.203125 41.140625 7.25 
Q 44.96875 8.296875 48.78125 10.40625 
L 48.78125 2.09375 
Q 45.015625 0.34375 40.984375 -0.53125 
Q 36.96875 -1.421875 32.421875 -1.421875 
Q 20.0625 -1.421875 12.78125 6.34375 
Q 5.515625 14.109375 5.515625 27.296875 
Q 5.515625 40.671875 12.859375 48.328125 
Q 20.21875 56 33.015625 56 
Q 37.15625 56 41.109375 55.140625 
Q 45.0625 54.296875 48.78125 52.59375 
z
" id="DejaVuSans-99"/>
      <path d="M 18.3125 70.21875 
L 18.3125 54.6875 
L 36.8125 54.6875 
L 36.8125 47.703125 
L 18.3125 47.703125 
L 18.3125 18.015625 
Q 18.3125 11.328125 20.140625 9.421875 
Q 21.96875 7.515625 27.59375 7.515625 
L 36.8125 7.515625 
L 36.8125 0 
L 27.59375 0 
Q 17.1875 0 13.234375 3.875 
Q 9.28125 7.765625 9.28125 18.015625 
L 9.28125 47.703125 
L 2.6875 47.703125 
L 2.6875 54.6875 
L 9.28125 54.6875 
L 9.28125 70.21875 
z
" id="DejaVuSans-116"/>
      <path d="M 8.5 21.578125 
L 8.5 54.6875 
L 17.484375 54.6875 
L 17.484375 21.921875 
Q 17.484375 14.15625 20.5 10.265625 
Q 23.53125 6.390625 29.59375 6.390625 
Q 36.859375 6.390625 41.078125 11.03125 
Q 45.3125 15.671875 45.3125 23.6875 
L 45.3125 54.6875 
L 54.296875 54.6875 
L 54.296875 0 
L 45.3125 0 
L 45.3125 8.40625 
Q 42.046875 3.421875 37.71875 1 
Q 33.40625 -1.421875 27.6875 -1.421875 
Q 18.265625 -1.421875 13.375 4.4375 
Q 8.5 10.296875 8.5 21.578125 
z
M 31.109375 56 
z
" id="DejaVuSans-117"/>
      <path d="M 11.71875 12.40625 
L 22.015625 12.40625 
L 22.015625 4 
L 14.015625 -11.625 
L 7.71875 -11.625 
L 11.71875 4 
z
" id="DejaVuSans-44"/>
      <path d="M 18.109375 8.203125 
L 18.109375 -20.796875 
L 9.078125 -20.796875 
L 9.078125 54.6875 
L 18.109375 54.6875 
L 18.109375 46.390625 
Q 20.953125 51.265625 25.265625 53.625 
Q 29.59375 56 35.59375 56 
Q 45.5625 56 51.78125 48.09375 
Q 58.015625 40.1875 58.015625 27.296875 
Q 58.015625 14.40625 51.78125 6.484375 
Q 45.5625 -1.421875 35.59375 -1.421875 
Q 29.59375 -1.421875 25.265625 0.953125 
Q 20.953125 3.328125 18.109375 8.203125 
z
M 48.6875 27.296875 
Q 48.6875 37.203125 44.609375 42.84375 
Q 40.53125 48.484375 33.40625 48.484375 
Q 26.265625 48.484375 22.1875 42.84375 
Q 18.109375 37.203125 18.109375 27.296875 
Q 18.109375 17.390625 22.1875 11.75 
Q 26.265625 6.109375 33.40625 6.109375 
Q 40.53125 6.109375 44.609375 11.75 
Q 48.6875 17.390625 48.6875 27.296875 
z
" id="DejaVuSans-112"/>
     </defs>
     <g transform="translate(17.619531 298.435375)rotate(-90)scale(0.17 -0.17)">
      <use xlink:href="#DejaVuSans-70"/>
      <use x="57.410156" xlink:href="#DejaVuSans-114"/>
      <use x="98.523438" xlink:href="#DejaVuSans-97"/>
      <use x="159.802734" xlink:href="#DejaVuSans-99"/>
      <use x="214.783203" xlink:href="#DejaVuSans-116"/>
      <use x="253.992188" xlink:href="#DejaVuSans-105"/>
      <use x="281.775391" xlink:href="#DejaVuSans-111"/>
      <use x="342.957031" xlink:href="#DejaVuSans-110"/>
      <use x="406.335938" xlink:href="#DejaVuSans-32"/>
      <use x="438.123047" xlink:href="#DejaVuSans-111"/>
      <use x="499.304688" xlink:href="#DejaVuSans-102"/>
      <use x="534.509766" xlink:href="#DejaVuSans-32"/>
      <use x="566.296875" xlink:href="#DejaVuSans-102"/>
      <use x="601.501953" xlink:href="#DejaVuSans-117"/>
      <use x="664.880859" xlink:href="#DejaVuSans-110"/>
      <use x="728.259766" xlink:href="#DejaVuSans-99"/>
      <use x="783.240234" xlink:href="#DejaVuSans-116"/>
      <use x="822.449219" xlink:href="#DejaVuSans-105"/>
      <use x="850.232422" xlink:href="#DejaVuSans-111"/>
      <use x="911.414062" xlink:href="#DejaVuSans-110"/>
      <use x="974.792969" xlink:href="#DejaVuSans-44"/>
      <use x="1006.580078" xlink:href="#DejaVuSans-116"/>
      <use x="1045.789062" xlink:href="#DejaVuSans-97"/>
      <use x="1107.068359" xlink:href="#DejaVuSans-114"/>
      <use x="1148.166016" xlink:href="#DejaVuSans-103"/>
      <use x="1211.642578" xlink:href="#DejaVuSans-101"/>
      <use x="1273.166016" xlink:href="#DejaVuSans-116"/>
      <use x="1312.375" xlink:href="#DejaVuSans-32"/>
      <use x="1344.162109" xlink:href="#DejaVuSans-112"/>
      <use x="1407.638672" xlink:href="#DejaVuSans-97"/>
      <use x="1468.917969" xlink:href="#DejaVuSans-105"/>
      <use x="1496.701172" xlink:href="#DejaVuSans-114"/>
      <use x="1537.814453" xlink:href="#DejaVuSans-115"/>
     </g>
    </g>
   </g>
   <g id="line2d_37">
    <defs>
     <path d="M 0 1.5 
C 0.397805 1.5 0.77937 1.341951 1.06066 1.06066 
C 1.341951 0.77937 1.5 0.397805 1.5 0 
C 1.5 -0.397805 1.341951 -0.77937 1.06066 -1.06066 
C 0.77937 -1.341951 0.397805 -1.5 0 -1.5 
C -0.397805 -1.5 -0.77937 -1.341951 -1.06066 -1.06066 
C -1.341951 -0.77937 -1.5 -0.397805 -1.5 0 
C -1.5 0.397805 -1.341951 0.77937 -1.06066 1.06066 
C -0.77937 1.341951 -0.397805 1.5 0 1.5 
z
" id="m7dcb63fa74" style="stroke:#000080;"/>
    </defs>
    <g>
     <use style="fill:#000080;stroke:#000080;" x="199.199935" xlink:href="#m7dcb63fa74" y="30.334099"/>
     <use style="fill:#000080;stroke:#000080;" x="199.199935" xlink:href="#m7dcb63fa74" y="30.334099"/>
    </g>
   </g>
   <g id="line2d_38">
    <path d="M 38.440992 298.944 
L 38.440992 289.990337 
L 50.52898 289.990337 
L 50.52898 285.250162 
L 57.6 285.250162 
L 57.6 283.143418 
L 62.616969 283.143418 
L 62.616969 281.563359 
L 66.508432 281.563359 
L 66.508432 279.983301 
L 69.687988 279.983301 
L 69.687988 278.929929 
L 72.376266 278.929929 
L 72.376266 277.876557 
L 74.704957 277.876557 
L 74.704957 277.349871 
L 76.759008 277.349871 
L 76.759008 276.296499 
L 81.775977 276.296499 
L 81.775977 275.243126 
L 84.464254 275.243126 
L 84.464254 273.136382 
L 91.535274 273.136382 
L 91.535274 271.556324 
L 95.259853 271.556324 
L 95.259853 271.029638 
L 97.16421 271.029638 
L 97.16421 270.502952 
L 97.755429 270.502952 
L 97.755429 268.922893 
L 99.41757 268.922893 
L 99.41757 268.396207 
L 100.934985 268.396207 
L 100.934985 266.816149 
L 101.412804 266.816149 
L 101.412804 266.289463 
L 109.252198 266.289463 
L 109.252198 265.236091 
L 110.131676 265.236091 
L 110.131676 264.709405 
L 110.415248 264.709405 
L 110.415248 264.182719 
L 111.767808 264.182719 
L 111.767808 263.656033 
L 116.522527 263.656033 
L 116.522527 263.129347 
L 116.719583 263.129347 
L 116.719583 262.60266 
L 117.107138 262.60266 
L 117.107138 261.549288 
L 117.857331 261.549288 
L 117.857331 261.022602 
L 120.41399 261.022602 
L 120.41399 260.495916 
L 120.728219 260.495916 
L 120.728219 258.915858 
L 121.638301 258.915858 
L 121.638301 258.389172 
L 124.114161 258.389172 
L 124.114161 257.862486 
L 125.351508 257.862486 
L 125.351508 256.282427 
L 125.938745 256.282427 
L 125.938745 255.755741 
L 128.709321 255.755741 
L 128.709321 255.229055 
L 129.290685 255.229055 
L 129.385722 253.648997 
L 130.30865 253.648997 
L 130.30865 253.122311 
L 130.752422 253.122311 
L 130.752422 252.595625 
L 131.355321 252.595625 
L 131.355321 249.435508 
L 131.77355 249.435508 
L 131.77355 248.908822 
L 132.101058 248.908822 
L 132.101058 248.382136 
L 132.659801 248.382136 
L 132.659801 247.85545 
L 133.124876 247.85545 
L 133.124876 247.328764 
L 133.277185 247.328764 
L 133.277185 246.802078 
L 133.57787 246.802078 
L 133.57787 246.275392 
L 134.019394 246.275392 
L 134.019394 245.748706 
L 134.164119 245.748706 
L 134.164119 244.695334 
L 134.7313 244.695334 
L 134.7313 244.168648 
L 135.144899 244.168648 
L 135.144899 243.641962 
L 135.415281 243.641962 
L 135.415281 243.115275 
L 136.266147 243.115275 
L 136.266147 242.061903 
L 136.393441 242.061903 
L 136.393441 241.008531 
L 136.769843 241.008531 
L 136.769843 240.481845 
L 137.259399 240.481845 
L 137.259399 239.955159 
L 137.439497 239.955159 
L 137.439497 239.428473 
L 137.735587 239.428473 
L 137.735587 238.901787 
L 137.852629 238.901787 
L 137.852629 237.848415 
L 138.026733 237.848415 
L 138.026733 237.321729 
L 138.313099 237.321729 
L 138.313099 236.795043 
L 138.650644 236.795043 
L 138.650644 234.688298 
L 138.981779 234.688298 
L 138.981779 234.161612 
L 139.466984 234.161612 
L 139.520072 230.47481 
L 139.678372 230.47481 
L 139.678372 229.948123 
L 140.246813 229.948123 
L 140.246813 229.421437 
L 140.599134 229.421437 
L 140.599134 228.894751 
L 140.79731 228.894751 
L 140.79731 228.368065 
L 140.993259 228.368065 
L 140.993259 227.314693 
L 141.138789 227.314693 
L 141.235139 224.154577 
L 141.378673 224.154577 
L 141.378673 223.627891 
L 141.662245 223.627891 
L 141.709062 222.574518 
L 142.07914 222.574518 
L 142.07914 222.047832 
L 142.619936 222.047832 
L 142.664255 217.834344 
L 143.31586 217.834344 
L 143.31586 216.780971 
L 143.569835 216.780971 
L 143.569835 215.727599 
L 143.778691 215.727599 
L 143.778691 215.200913 
L 144.026061 215.200913 
L 144.026061 214.147541 
L 144.148442 214.147541 
L 144.189046 211.514111 
L 144.550287 211.514111 
L 144.550287 210.987425 
L 144.865226 210.987425 
L 144.865226 208.88068 
L 145.136208 208.88068 
L 145.136208 207.827308 
L 145.403044 207.827308 
L 145.403044 206.773936 
L 145.814278 206.773936 
L 145.814278 205.720564 
L 146.034567 205.720564 
L 146.107383 204.667192 
L 146.252108 204.667192 
L 146.252108 204.140506 
L 146.538004 204.140506 
L 146.538004 203.613819 
L 148.064279 203.613819 
L 148.161434 200.980389 
L 148.193699 200.980389 
L 148.193699 200.453703 
L 148.513109 200.453703 
L 148.513109 199.927017 
L 149.134896 199.927017 
L 149.134896 199.400331 
L 149.735275 199.400331 
L 149.794191 197.293586 
L 150.027887 197.293586 
L 150.027887 196.7669 
L 150.457801 196.7669 
L 150.542526 195.186842 
L 150.654857 195.186842 
L 150.738632 192.553412 
L 150.822008 192.553412 
L 150.904986 190.973354 
L 150.987572 190.973354 
L 151.042412 189.393295 
L 151.151579 189.393295 
L 151.178764 187.813237 
L 151.287083 187.813237 
L 151.314058 186.759865 
L 151.528368 186.759865 
L 151.528368 186.233179 
L 151.660987 186.233179 
L 151.660987 184.653121 
L 152.885298 184.653121 
L 152.885298 184.126434 
L 153.537988 184.126434 
L 153.537988 183.599748 
L 153.820412 183.599748 
L 153.820412 183.073062 
L 155.102793 183.073062 
L 155.102793 182.546376 
L 155.594676 182.546376 
L 155.699795 181.493004 
L 156.658127 181.493004 
L 156.658127 180.966318 
L 157.089232 180.966318 
L 157.089232 180.439632 
L 157.300853 180.439632 
L 157.300853 179.38626 
L 157.957601 179.38626 
L 157.957601 178.859574 
L 158.554957 178.859574 
L 158.554957 177.806202 
L 159.080804 177.806202 
L 159.080804 176.752829 
L 159.591258 176.752829 
L 159.591258 175.699457 
L 160.005512 175.699457 
L 160.005512 174.119399 
L 160.136022 174.119399 
L 160.136022 173.592713 
L 160.727241 173.592713 
L 160.727241 172.012655 
L 167.459829 172.012655 
L 167.459829 171.485969 
L 168.099393 171.485969 
L 168.099393 170.959282 
L 168.344733 170.959282 
L 168.344733 169.90591 
L 168.55661 169.90591 
L 168.55661 169.379224 
L 168.70639 169.379224 
L 168.70639 168.852538 
L 168.86475 168.852538 
L 168.86475 167.799166 
L 169.060699 167.799166 
L 169.138466 166.219108 
L 169.340971 166.219108 
L 169.350555 165.165736 
L 169.701534 165.165736 
L 169.78585 162.532305 
L 169.851149 162.532305 
L 169.851149 162.005619 
L 169.981016 162.005619 
L 170.082381 160.952247 
L 170.119095 160.952247 
L 170.119095 160.425561 
L 170.274274 160.425561 
L 170.319654 157.79213 
L 170.571619 157.79213 
L 170.571619 156.212072 
L 170.749391 156.212072 
L 170.749391 155.685386 
L 171.03881 155.685386 
L 171.116915 152.52527 
L 171.160157 152.52527 
L 171.160157 151.471897 
L 171.340609 151.471897 
L 171.340609 149.891839 
L 171.527673 149.891839 
L 171.569909 146.205037 
L 171.762889 146.205037 
L 171.8212 145.151665 
L 171.928978 145.151665 
L 171.970255 143.571606 
L 172.280803 143.571606 
L 172.353551 139.884804 
L 172.425997 139.884804 
L 172.482136 136.724687 
L 172.562023 136.724687 
L 172.641546 133.564571 
L 172.815229 133.564571 
L 172.830933 132.511199 
L 172.932666 132.511199 
L 173.026049 127.771024 
L 173.111214 127.771024 
L 173.14208 124.084221 
L 173.22668 124.084221 
L 173.22668 122.504163 
L 173.432614 122.504163 
L 173.493167 120.924105 
L 173.636143 120.924105 
L 173.636143 120.397419 
L 173.807666 120.397419 
L 173.903873 118.817361 
L 174.043535 118.817361 
L 174.072796 117.237302 
L 174.160284 117.237302 
L 174.232857 114.603872 
L 174.47737 114.603872 
L 174.569962 112.497128 
L 174.662065 112.497128 
L 174.662065 111.970441 
L 174.823834 111.970441 
L 174.851815 110.917069 
L 174.949398 110.917069 
L 175.039523 106.176895 
L 175.101646 106.176895 
L 175.177275 103.016778 
L 175.313947 103.016778 
L 175.334356 101.43672 
L 175.637655 101.43672 
L 175.730949 100.383348 
L 175.764148 100.383348 
L 175.764148 99.856662 
L 175.988239 99.856662 
L 176.04055 97.223231 
L 176.421575 97.223231 
L 176.421575 96.169859 
L 176.599529 96.169859 
L 176.599529 95.116487 
L 176.869327 95.116487 
L 176.869327 94.589801 
L 180.962588 94.589801 
L 180.962588 94.063115 
L 182.303092 94.063115 
L 182.303092 92.483056 
L 182.699764 92.483056 
L 182.699764 89.32294 
L 183.725263 89.32294 
L 183.783996 87.742882 
L 183.929967 87.742882 
L 183.946572 86.68951 
L 184.15281 86.68951 
L 184.230545 83.002707 
L 184.717629 83.002707 
L 184.717629 81.949335 
L 184.950287 81.949335 
L 184.989415 80.895963 
L 185.075189 80.895963 
L 185.075189 80.369277 
L 185.260879 80.369277 
L 185.318505 78.789218 
L 185.379762 78.789218 
L 185.478849 77.735846 
L 185.633967 77.735846 
L 185.633967 77.20916 
L 185.7466 77.20916 
L 185.813832 76.155788 
L 185.962316 76.155788 
L 185.962316 75.102416 
L 186.080199 75.102416 
L 186.080199 74.57573 
L 186.411139 74.57573 
L 186.465092 72.468985 
L 186.704063 72.468985 
L 186.704063 70.888927 
L 187.020001 70.888927 
L 187.020001 70.362241 
L 187.217174 70.362241 
L 187.224052 68.782183 
L 188.229447 68.782183 
L 188.229447 68.255497 
L 191.758187 68.255497 
L 191.758187 67.202125 
L 193.062882 67.202125 
L 193.062882 66.675439 
L 193.825784 66.675439 
L 193.832847 65.622066 
L 194.140812 65.622066 
L 194.140812 65.09538 
L 194.256061 65.09538 
L 194.256061 63.515322 
L 194.518276 63.515322 
L 194.586037 62.46195 
L 194.702868 62.46195 
L 194.812248 60.355206 
L 194.856696 60.355206 
L 194.878878 58.248461 
L 194.989365 58.248461 
L 195.077254 57.195089 
L 195.260391 57.195089 
L 195.329654 55.615031 
L 195.433037 55.615031 
L 195.450208 54.561659 
L 195.695191 54.561659 
L 195.762752 51.928228 
L 195.813252 51.928228 
L 195.813252 51.401542 
L 195.953462 51.401542 
L 196.06151 49.294798 
L 196.100822 49.294798 
L 196.189467 47.71474 
L 196.320575 47.71474 
L 196.42435 46.134681 
L 196.477018 46.134681 
L 196.529528 42.974565 
L 196.82942 42.974565 
L 196.82942 42.447879 
L 197.327691 42.447879 
L 197.327691 41.921193 
L 197.51927 41.921193 
L 197.51927 40.867821 
L 197.669144 40.867821 
L 197.697456 39.287762 
L 197.896228 39.287762 
L 198.002186 37.707704 
L 198.103819 37.707704 
L 198.103819 37.181018 
L 198.334443 37.181018 
L 198.417884 36.127646 
L 198.4775 36.127646 
L 198.4775 34.020902 
L 198.818599 34.020902 
L 198.919114 32.967529 
L 199.017305 32.967529 
L 199.08362 30.860785 
L 199.199935 30.860785 
L 199.199935 30.334099 
L 338.688 30.334099 
L 338.688 30.334099 
" style="fill:none;stroke:#000080;stroke-linecap:square;stroke-width:1.5;"/>
   </g>
   <g id="line2d_39">
    <defs>
     <path d="M 0 6 
C 1.591219 6 3.117479 5.367802 4.242641 4.242641 
C 5.367802 3.117479 6 1.591219 6 0 
C 6 -1.591219 5.367802 -3.117479 4.242641 -4.242641 
C 3.117479 -5.367802 1.591219 -6 0 -6 
C -1.591219 -6 -3.117479 -5.367802 -4.242641 -4.242641 
C -5.367802 -3.117479 -6 -1.591219 -6 0 
C -6 1.591219 -5.367802 3.117479 -4.242641 4.242641 
C -3.117479 5.367802 -1.591219 6 0 6 
z
" id="m27e5663421" style="stroke:#000080;stroke-width:1.5;"/>
    </defs>
    <g>
     <use style="fill-opacity:0;stroke:#000080;stroke-width:1.5;" x="138.981779" xlink:href="#m27e5663421" y="234.161612"/>
     <use style="fill-opacity:0;stroke:#000080;stroke-width:1.5;" x="170.319654" xlink:href="#m27e5663421" y="157.79213"/>
     <use style="fill-opacity:0;stroke:#000080;stroke-width:1.5;" x="193.062882" xlink:href="#m27e5663421" y="66.675439"/>
     <use style="fill-opacity:0;stroke:#000080;stroke-width:1.5;" x="199.199935" xlink:href="#m27e5663421" y="30.334099"/>
     <use style="fill-opacity:0;stroke:#000080;stroke-width:1.5;" x="199.199935" xlink:href="#m27e5663421" y="30.334099"/>
     <use style="fill-opacity:0;stroke:#000080;stroke-width:1.5;" x="338.688" xlink:href="#m27e5663421" y="30.334099"/>
    </g>
   </g>
   <g id="line2d_40">
    <path style="fill:none;stroke:#000080;stroke-linecap:square;stroke-width:1.5;"/>
    <g/>
   </g>
   <g id="line2d_41">
    <defs>
     <path d="M 0 1.5 
C 0.397805 1.5 0.77937 1.341951 1.06066 1.06066 
C 1.341951 0.77937 1.5 0.397805 1.5 0 
C 1.5 -0.397805 1.341951 -0.77937 1.06066 -1.06066 
C 0.77937 -1.341951 0.397805 -1.5 0 -1.5 
C -0.397805 -1.5 -0.77937 -1.341951 -1.06066 -1.06066 
C -1.341951 -0.77937 -1.5 -0.397805 -1.5 0 
C -1.5 0.397805 -1.341951 0.77937 -1.06066 1.06066 
C -0.77937 1.341951 -0.397805 1.5 0 1.5 
z
" id="md806a444d6" style="stroke:#ff0000;"/>
    </defs>
    <g>
     <use style="fill:#ff0000;stroke:#ff0000;" x="195.086018" xlink:href="#md806a444d6" y="30.334099"/>
     <use style="fill:#ff0000;stroke:#ff0000;" x="195.086018" xlink:href="#md806a444d6" y="30.334099"/>
    </g>
   </g>
   <g id="line2d_42">
    <path d="M 38.440992 298.944 
L 38.440992 289.463651 
L 50.52898 289.463651 
L 50.52898 285.776848 
L 57.6 285.776848 
L 57.6 283.143418 
L 62.616969 283.143418 
L 62.616969 282.090045 
L 66.508432 282.090045 
L 66.508432 281.036673 
L 69.687988 281.036673 
L 69.687988 280.509987 
L 72.376266 280.509987 
L 72.376266 278.929929 
L 74.704957 278.929929 
L 74.704957 278.403243 
L 78.59642 278.403243 
L 78.59642 276.823185 
L 80.258561 276.823185 
L 80.258561 275.769812 
L 85.66744 275.769812 
L 85.66744 274.71644 
L 86.792945 274.71644 
L 86.792945 273.663068 
L 88.846997 273.663068 
L 88.846997 273.136382 
L 89.78989 273.136382 
L 89.78989 271.029638 
L 91.535274 271.029638 
L 91.535274 269.976266 
L 93.121756 269.976266 
L 93.121756 268.922893 
L 93.863965 268.922893 
L 93.863965 268.396207 
L 94.575872 268.396207 
L 94.575872 267.869521 
L 95.259853 267.869521 
L 95.259853 266.816149 
L 95.918017 266.816149 
L 95.918017 266.289463 
L 99.938184 266.289463 
L 99.938184 265.236091 
L 108.006005 265.236091 
L 108.006005 264.709405 
L 113.965867 264.709405 
L 113.965867 263.129347 
L 114.418861 263.129347 
L 114.418861 262.075974 
L 115.291007 262.075974 
L 115.291007 260.495916 
L 118.751849 260.495916 
L 118.751849 259.442544 
L 120.254726 259.442544 
L 120.254726 258.915858 
L 121.189196 258.915858 
L 121.189196 258.389172 
L 121.340187 258.389172 
L 121.340187 256.282427 
L 121.931406 256.282427 
L 121.931406 255.229055 
L 122.782271 255.229055 
L 122.782271 253.648997 
L 123.985457 253.648997 
L 123.985457 253.122311 
L 124.114161 253.122311 
L 124.114161 252.068939 
L 124.989434 252.068939 
L 124.989434 251.542253 
L 125.23165 251.542253 
L 125.23165 251.015567 
L 125.470548 251.015567 
L 125.470548 250.488881 
L 125.822869 250.488881 
L 125.822869 247.328764 
L 126.053856 247.328764 
L 126.053856 246.802078 
L 126.729009 246.802078 
L 126.729009 245.22202 
L 127.48501 245.22202 
L 127.590383 241.535217 
L 128.107907 241.535217 
L 128.107907 240.481845 
L 128.807571 240.481845 
L 128.905271 238.901787 
L 129.002426 238.901787 
L 129.002426 237.321729 
L 129.290685 237.321729 
L 129.290685 236.795043 
L 129.667765 236.795043 
L 129.667765 236.268356 
L 129.945319 236.268356 
L 130.036864 233.634926 
L 130.30865 233.634926 
L 130.30865 232.054868 
L 131.099484 232.054868 
L 131.099484 231.528182 
L 131.355321 231.528182 
L 131.355321 231.001496 
L 132.019755 231.001496 
L 132.019755 230.47481 
L 132.181982 230.47481 
L 132.262533 228.368065 
L 132.422528 228.368065 
L 132.501978 227.314693 
L 132.816208 227.314693 
L 132.816208 225.207949 
L 133.428175 225.207949 
L 133.503183 223.627891 
L 133.57787 223.627891 
L 133.57787 222.047832 
L 134.091907 222.047832 
L 134.091907 220.99446 
L 134.591225 220.99446 
L 134.591225 220.467774 
L 134.800918 220.467774 
L 134.870259 219.414402 
L 134.939326 219.414402 
L 135.00812 218.36103 
L 135.348078 218.36103 
L 135.415281 216.254285 
L 135.813153 216.254285 
L 135.878591 214.147541 
L 135.943785 214.147541 
L 135.943785 212.040797 
L 136.393441 212.040797 
L 136.393441 210.987425 
L 136.831795 210.987425 
L 136.831795 209.407366 
L 137.016339 209.407366 
L 137.077422 208.353994 
L 137.198951 208.353994 
L 137.198951 207.827308 
L 137.319638 207.827308 
L 137.319638 206.24725 
L 137.439497 206.24725 
L 137.499118 204.667192 
L 137.558536 204.667192 
L 137.558536 203.613819 
L 137.676769 203.613819 
L 137.676769 203.087133 
L 138.199116 203.087133 
L 138.199116 202.560447 
L 138.313099 202.560447 
L 138.313099 202.033761 
L 138.650644 202.033761 
L 138.650644 200.980389 
L 138.816998 200.980389 
L 138.816998 199.927017 
L 139.145019 199.927017 
L 139.145019 198.346959 
L 139.413734 198.346959 
L 139.413734 196.7669 
L 139.625765 196.7669 
L 139.625765 196.240214 
L 139.990725 196.240214 
L 139.990725 194.13347 
L 140.348205 194.13347 
L 140.44901 192.553412 
L 140.499195 192.553412 
L 140.499195 191.50004 
L 140.698504 191.50004 
L 140.698504 190.446667 
L 140.89556 190.446667 
L 140.89556 189.919981 
L 141.33096 189.919981 
L 141.378673 187.813237 
L 141.47371 187.813237 
L 141.47371 187.286551 
L 141.848763 187.286551 
L 141.848763 186.233179 
L 142.170445 186.233179 
L 142.215919 183.599748 
L 142.619936 183.599748 
L 142.619936 183.073062 
L 143.737119 183.073062 
L 143.737119 182.546376 
L 143.861538 182.546376 
L 143.861538 182.01969 
L 144.026061 182.01969 
L 144.026061 181.493004 
L 144.708467 181.493004 
L 144.787023 179.912946 
L 144.94308 179.912946 
L 144.94308 179.38626 
L 145.251067 179.38626 
L 145.289185 177.806202 
L 145.440832 177.806202 
L 145.478539 176.752829 
L 145.628555 176.752829 
L 145.628555 175.172771 
L 146.252108 175.172771 
L 146.288102 174.119399 
L 146.502522 174.119399 
L 146.502522 173.066027 
L 146.679213 173.066027 
L 146.679213 172.539341 
L 146.992815 172.539341 
L 146.992815 170.432596 
L 147.636905 170.432596 
L 147.636905 169.90591 
L 147.802521 169.90591 
L 147.802521 168.852538 
L 147.96658 168.852538 
L 147.96658 168.325852 
L 148.096724 168.325852 
L 148.096724 167.799166 
L 148.54473 167.799166 
L 148.54473 166.219108 
L 148.79566 166.219108 
L 148.79566 165.692422 
L 150.287105 165.692422 
L 150.287105 165.165736 
L 150.51433 165.165736 
L 150.51433 164.63905 
L 153.081247 164.63905 
L 153.081247 164.112363 
L 162.602318 164.112363 
L 162.68677 162.532305 
L 162.840544 162.532305 
L 162.923853 160.952247 
L 163.006766 160.952247 
L 163.116707 159.898875 
L 163.19871 159.898875 
L 163.19871 159.372189 
L 163.375071 159.372189 
L 163.375071 158.845503 
L 163.867476 158.845503 
L 163.932963 156.738758 
L 164.050224 156.738758 
L 164.127963 155.1587 
L 164.179597 155.1587 
L 164.231078 152.52527 
L 164.536814 152.52527 
L 164.612418 151.471897 
L 164.687696 151.471897 
L 164.76265 149.365153 
L 164.874481 149.365153 
L 164.899235 148.311781 
L 165.217881 148.311781 
L 165.217881 147.785095 
L 165.459092 147.785095 
L 165.459092 144.624978 
L 165.779524 144.624978 
L 165.873346 140.938176 
L 165.920069 140.938176 
L 165.920069 139.358118 
L 166.380539 139.358118 
L 166.471192 136.198001 
L 166.527611 136.198001 
L 166.617505 132.511199 
L 166.751482 132.511199 
L 166.862349 128.824396 
L 167.038282 128.824396 
L 167.147346 126.717652 
L 167.201624 126.717652 
L 167.309674 121.450791 
L 167.395635 121.450791 
L 167.395635 119.344047 
L 167.640438 119.344047 
L 167.745812 113.5505 
L 168.171308 113.5505 
L 168.171308 113.023814 
L 169.060699 113.023814 
L 169.128764 111.443755 
L 169.27373 111.443755 
L 169.27373 110.917069 
L 169.54115 110.917069 
L 169.597925 109.337011 
L 169.673338 109.337011 
L 169.75779 107.756953 
L 169.916203 107.756953 
L 169.916203 105.123522 
L 170.091567 105.123522 
L 170.091567 104.07015 
L 170.219663 104.07015 
L 170.310587 100.383348 
L 170.382987 100.383348 
L 170.482048 98.276603 
L 170.535846 98.276603 
L 170.571619 96.696545 
L 170.72284 96.696545 
L 170.802371 95.643173 
L 170.872762 95.643173 
L 170.907851 94.063115 
L 171.003983 94.063115 
L 171.003983 93.536429 
L 171.24632 93.536429 
L 171.272086 91.95637 
L 171.459882 91.95637 
L 171.459882 89.32294 
L 171.704381 89.32294 
L 171.80456 88.269568 
L 171.8212 88.269568 
L 171.904165 84.582765 
L 172.011434 84.582765 
L 172.109868 80.369277 
L 172.13439 80.369277 
L 172.13439 79.842591 
L 178.8005 79.842591 
L 178.8005 78.789218 
L 179.627729 78.789218 
L 179.627729 78.262532 
L 180.432721 78.262532 
L 180.432721 77.735846 
L 180.774482 77.735846 
L 180.863838 73.522358 
L 181.240998 73.522358 
L 181.240998 72.995672 
L 181.380957 72.995672 
L 181.380957 71.942299 
L 181.836415 71.942299 
L 181.845779 69.835555 
L 181.980986 69.835555 
L 181.980986 69.308869 
L 182.128973 69.308869 
L 182.133577 67.728811 
L 182.280281 67.728811 
L 182.280281 67.202125 
L 182.47549 67.202125 
L 182.47549 66.675439 
L 182.632784 66.675439 
L 182.632784 65.622066 
L 182.88154 65.622066 
L 182.88154 63.515322 
L 183.3042 63.515322 
L 183.3042 62.988636 
L 183.552115 62.988636 
L 183.552115 62.46195 
L 183.716857 62.46195 
L 183.716857 61.935264 
L 183.89671 61.935264 
L 183.954868 60.881892 
L 184.099422 60.881892 
L 184.099422 59.82852 
L 185.7466 59.82852 
L 185.7466 59.301833 
L 186.831126 59.301833 
L 186.831126 58.775147 
L 187.130969 58.775147 
L 187.22749 56.141717 
L 187.261833 56.141717 
L 187.278979 53.508287 
L 187.672108 53.508287 
L 187.762355 49.294798 
L 187.971131 49.294798 
L 188.076227 46.661368 
L 188.30394 46.661368 
L 188.30394 45.607995 
L 193.180566 45.607995 
L 193.207424 44.027937 
L 193.548079 44.027937 
L 193.557646 42.447879 
L 193.681549 42.447879 
L 193.681549 41.394507 
L 193.945464 41.394507 
L 193.945464 39.814448 
L 194.075939 39.814448 
L 194.075939 39.287762 
L 194.205445 39.287762 
L 194.205445 38.761076 
L 194.588291 38.761076 
L 194.592798 36.127646 
L 194.83893 36.127646 
L 194.843373 34.020902 
L 194.971734 34.020902 
L 194.971734 33.494215 
L 195.086018 33.494215 
L 195.086018 30.334099 
L 338.688 30.334099 
L 338.688 30.334099 
" style="fill:none;stroke:#ff0000;stroke-linecap:square;stroke-width:1.5;"/>
   </g>
   <g id="line2d_43">
    <defs>
     <path d="M 0 -6 
L -5.196152 -3 
L -5.196152 3 
L -0 6 
L 5.196152 3 
L 5.196152 -3 
z
" id="m81666d5724" style="stroke:#ff0000;stroke-linejoin:miter;stroke-width:1.5;"/>
    </defs>
    <g>
     <use style="fill-opacity:0;stroke:#ff0000;stroke-linejoin:miter;stroke-width:1.5;" x="130.30865" xlink:href="#m81666d5724" y="232.054868"/>
     <use style="fill-opacity:0;stroke:#ff0000;stroke-linejoin:miter;stroke-width:1.5;" x="167.640438" xlink:href="#m81666d5724" y="117.763988"/>
     <use style="fill-opacity:0;stroke:#ff0000;stroke-linejoin:miter;stroke-width:1.5;" x="195.086018" xlink:href="#m81666d5724" y="33.494215"/>
     <use style="fill-opacity:0;stroke:#ff0000;stroke-linejoin:miter;stroke-width:1.5;" x="195.086018" xlink:href="#m81666d5724" y="30.334099"/>
     <use style="fill-opacity:0;stroke:#ff0000;stroke-linejoin:miter;stroke-width:1.5;" x="195.086018" xlink:href="#m81666d5724" y="30.334099"/>
     <use style="fill-opacity:0;stroke:#ff0000;stroke-linejoin:miter;stroke-width:1.5;" x="338.688" xlink:href="#m81666d5724" y="30.334099"/>
    </g>
   </g>
   <g id="line2d_44">
    <path style="fill:none;stroke:#ff0000;stroke-linecap:square;stroke-width:1.5;"/>
    <g/>
   </g>
   <g id="line2d_45">
    <defs>
     <path d="M 0 1.5 
C 0.397805 1.5 0.77937 1.341951 1.06066 1.06066 
C 1.341951 0.77937 1.5 0.397805 1.5 0 
C 1.5 -0.397805 1.341951 -0.77937 1.06066 -1.06066 
C 0.77937 -1.341951 0.397805 -1.5 0 -1.5 
C -0.397805 -1.5 -0.77937 -1.341951 -1.06066 -1.06066 
C -1.341951 -0.77937 -1.5 -0.397805 -1.5 0 
C -1.5 0.397805 -1.341951 0.77937 -1.06066 1.06066 
C -0.77937 1.341951 -0.397805 1.5 0 1.5 
z
" id="m3b61f0c68e" style="stroke:#bebebe;"/>
    </defs>
    <g>
     <use style="fill:#bebebe;stroke:#bebebe;" x="191.969" xlink:href="#m3b61f0c68e" y="30.334099"/>
     <use style="fill:#bebebe;stroke:#bebebe;" x="191.969" xlink:href="#m3b61f0c68e" y="30.334099"/>
    </g>
   </g>
   <g id="line2d_46">
    <path d="M 38.440992 298.944 
L 38.440992 291.570395 
L 85.66744 291.570395 
L 85.66744 289.463651 
L 86.792945 289.463651 
L 86.792945 283.143418 
L 87.850195 283.143418 
L 87.850195 281.563359 
L 96.552242 281.563359 
L 96.552242 280.509987 
L 97.755429 280.509987 
L 97.755429 278.403243 
L 98.32726 278.403243 
L 98.32726 277.876557 
L 98.880934 277.876557 
L 98.880934 276.823185 
L 107.347841 276.823185 
L 107.347841 276.296499 
L 113.26352 276.296499 
L 113.26352 275.769812 
L 116.522527 275.769812 
L 116.522527 275.243126 
L 116.719583 275.243126 
L 116.719583 273.663068 
L 116.914437 273.663068 
L 116.914437 273.136382 
L 128.511146 273.136382 
L 128.511146 272.609696 
L 129.385722 272.609696 
L 129.385722 271.556324 
L 129.945319 271.556324 
L 129.945319 271.029638 
L 130.664567 271.029638 
L 130.664567 270.502952 
L 132.659801 270.502952 
L 132.659801 269.449579 
L 132.816208 269.449579 
L 132.816208 268.922893 
L 133.503183 268.922893 
L 133.503183 268.396207 
L 134.307653 268.396207 
L 134.307653 267.869521 
L 134.661403 267.869521 
L 134.7313 266.816149 
L 135.943785 266.816149 
L 136.008736 265.762777 
L 136.456742 265.762777 
L 136.456742 265.236091 
L 137.735587 265.236091 
L 137.735587 264.709405 
L 139.090775 264.709405 
L 139.090775 264.182719 
L 140.348205 264.182719 
L 140.39868 262.075974 
L 140.499195 262.075974 
L 140.499195 261.549288 
L 140.944478 261.549288 
L 140.944478 261.022602 
L 141.521035 261.022602 
L 141.521035 259.96923 
L 141.80232 259.96923 
L 141.848763 257.862486 
L 141.987354 257.862486 
L 141.987354 255.755741 
L 142.124852 255.755741 
L 142.124852 255.229055 
L 142.351634 255.229055 
L 142.351634 254.702369 
L 142.53096 254.702369 
L 142.53096 254.175683 
L 142.752555 254.175683 
L 142.752555 253.648997 
L 142.927826 253.648997 
L 142.927826 252.595625 
L 144.229555 252.595625 
L 144.229555 252.068939 
L 144.669057 252.068939 
L 144.669057 251.015567 
L 144.904196 251.015567 
L 144.904196 250.488881 
L 145.251067 250.488881 
L 145.289185 249.435508 
L 146.107383 249.435508 
L 146.107383 248.908822 
L 146.923612 248.908822 
L 146.923612 247.85545 
L 147.436066 247.85545 
L 147.436066 247.328764 
L 147.901141 247.328764 
L 147.901141 245.748706 
L 148.193699 245.748706 
L 148.193699 245.22202 
L 148.54473 245.22202 
L 148.54473 244.695334 
L 148.79566 244.695334 
L 148.79566 244.168648 
L 149.073705 244.168648 
L 149.073705 243.641962 
L 149.407627 243.641962 
L 149.407627 243.115275 
L 150.114722 243.115275 
L 150.114722 242.588589 
L 150.486088 242.588589 
L 150.570677 240.481845 
L 150.960087 240.481845 
L 150.987572 239.428473 
L 151.151579 239.428473 
L 151.151579 238.375101 
L 151.287083 238.375101 
L 151.287083 237.321729 
L 151.554972 237.321729 
L 151.554972 236.268356 
L 151.68739 236.268356 
L 151.792604 235.214984 
L 151.818809 235.214984 
L 151.818809 234.688298 
L 152.181601 234.688298 
L 152.181601 232.054868 
L 152.385571 232.054868 
L 152.461449 229.948123 
L 152.612222 229.948123 
L 152.637225 228.894751 
L 152.811246 228.894751 
L 152.811246 228.368065 
L 153.056874 228.368065 
L 153.154164 227.314693 
L 153.442821 227.314693 
L 153.49047 224.681263 
L 154.144227 224.681263 
L 154.144227 224.154577 
L 154.752243 224.154577 
L 154.796449 222.047832 
L 154.906477 222.047832 
L 154.972161 218.887716 
L 155.804285 218.887716 
L 155.86668 217.307658 
L 155.928852 217.307658 
L 155.949527 215.727599 
L 156.398281 215.727599 
L 156.398281 213.094169 
L 156.658127 213.094169 
L 156.658127 212.040797 
L 157.031069 212.040797 
L 157.031069 211.514111 
L 157.415209 211.514111 
L 157.415209 210.987425 
L 157.697862 210.987425 
L 157.716543 207.827308 
L 158.104304 207.827308 
L 158.104304 206.773936 
L 158.249784 206.773936 
L 158.249784 206.24725 
L 158.69674 206.24725 
L 158.69674 205.193878 
L 158.889829 205.193878 
L 158.889829 204.667192 
L 159.166924 204.667192 
L 159.166924 204.140506 
L 159.303838 204.140506 
L 159.303838 203.087133 
L 159.956318 203.087133 
L 160.005512 202.033761 
L 160.521792 202.033761 
L 160.585265 200.980389 
L 161.161694 200.980389 
L 161.161694 200.453703 
L 161.283861 200.453703 
L 161.374928 198.346959 
L 165.483031 198.346959 
L 165.483031 197.820273 
L 165.744209 197.820273 
L 165.744209 197.293586 
L 166.255117 197.293586 
L 166.255117 196.7669 
L 167.04922 196.7669 
L 167.08199 193.606784 
L 167.481174 193.606784 
L 167.481174 192.553412 
L 168.068482 192.553412 
L 168.068482 190.446667 
L 168.51645 190.446667 
L 168.51645 188.866609 
L 168.815417 188.866609 
L 168.815417 188.339923 
L 168.943394 188.339923 
L 168.943394 187.813237 
L 169.060699 187.813237 
L 169.148163 186.233179 
L 169.215888 186.233179 
L 169.283352 184.653121 
L 169.48419 184.653121 
L 169.588476 182.546376 
L 169.635673 182.546376 
L 169.682742 181.493004 
L 169.767149 181.493004 
L 169.767149 180.966318 
L 169.925477 180.966318 
L 169.925477 180.439632 
L 170.063995 180.439632 
L 170.063995 179.912946 
L 170.274274 179.912946 
L 170.373953 178.859574 
L 170.43709 178.859574 
L 170.517932 177.279515 
L 170.571619 177.279515 
L 170.616232 175.699457 
L 170.784729 175.699457 
L 170.890315 170.432596 
L 170.925369 170.432596 
L 171.003983 167.799166 
L 171.073566 167.799166 
L 171.073566 167.27248 
L 171.289242 167.27248 
L 171.3833 166.219108 
L 171.536129 166.219108 
L 171.645677 162.532305 
L 171.687629 162.532305 
L 171.796233 159.898875 
L 171.8212 159.898875 
L 171.904165 158.845503 
L 171.994974 158.845503 
L 172.044307 155.1587 
L 172.12622 155.1587 
L 172.215882 150.945211 
L 172.240256 150.945211 
L 172.345483 149.365153 
L 172.554051 149.365153 
L 172.593876 148.311781 
L 172.689086 148.311781 
L 172.689086 147.785095 
L 172.870132 147.785095 
L 172.870132 146.731723 
L 173.00275 146.731723 
L 173.111214 144.624978 
L 173.134368 144.624978 
L 173.211329 142.518234 
L 173.38706 142.518234 
L 173.462916 139.358118 
L 173.523365 139.358118 
L 173.591119 136.198001 
L 173.725844 136.198001 
L 173.755642 133.564571 
L 173.874327 133.564571 
L 173.874327 132.511199 
L 173.992211 132.511199 
L 174.043535 129.877768 
L 174.218366 129.877768 
L 174.319548 126.717652 
L 174.455933 126.717652 
L 174.541525 125.66428 
L 174.640854 125.66428 
L 174.640854 124.610907 
L 174.921573 124.610907 
L 174.921573 124.084221 
L 175.19099 124.084221 
L 175.218389 123.030849 
L 175.85017 123.030849 
L 175.85017 122.504163 
L 176.408795 122.504163 
L 176.408795 121.977477 
L 183.282662 121.977477 
L 183.282662 120.924105 
L 183.467024 120.924105 
L 183.54787 119.870733 
L 183.657898 119.870733 
L 183.695823 118.817361 
L 183.842531 118.817361 
L 183.846704 117.763988 
L 183.975592 117.763988 
L 184.033489 116.710616 
L 184.115866 116.710616 
L 184.210122 115.130558 
L 184.234627 115.130558 
L 184.336361 112.497128 
L 184.397118 112.497128 
L 184.493892 110.390383 
L 184.642039 110.390383 
L 184.749358 108.283639 
L 185.01285 108.283639 
L 185.020655 106.703581 
L 185.226213 106.703581 
L 185.330007 104.07015 
L 185.429376 104.07015 
L 185.490246 100.910034 
L 185.566037 100.910034 
L 185.637733 97.749917 
L 185.727878 97.749917 
L 185.813832 94.589801 
L 185.865946 94.589801 
L 185.954922 93.009743 
L 186.021357 93.009743 
L 186.131524 90.376312 
L 186.164438 90.376312 
L 186.211872 87.742882 
L 186.291852 87.742882 
L 186.389511 86.68951 
L 186.465092 86.68951 
L 186.511716 85.636137 
L 186.583203 85.636137 
L 186.640183 83.529393 
L 186.714687 83.529393 
L 186.802969 82.476021 
L 186.831126 82.476021 
L 186.911823 80.895963 
L 186.946792 80.895963 
L 187.047809 77.20916 
L 187.272123 77.20916 
L 187.326899 75.102416 
L 187.60832 75.102416 
L 187.692203 73.522358 
L 187.835545 73.522358 
L 187.845502 72.468985 
L 188.183948 72.468985 
L 188.183948 71.942299 
L 188.474394 71.942299 
L 188.474394 69.835555 
L 188.741181 69.835555 
L 188.835482 66.148752 
L 188.866803 66.148752 
L 188.929275 64.568694 
L 188.98531 64.568694 
L 189.090665 63.515322 
L 190.049323 63.515322 
L 190.098962 61.935264 
L 190.189118 61.935264 
L 190.249927 56.668403 
L 190.402463 56.668403 
L 190.479659 54.561659 
L 190.542309 54.561659 
L 190.604734 52.454914 
L 190.658467 52.454914 
L 190.658467 51.928228 
L 190.810285 51.928228 
L 190.907985 49.294798 
L 190.952465 49.294798 
L 191.035563 44.554623 
L 191.09625 44.554623 
L 191.148492 40.867821 
L 191.211524 40.867821 
L 191.320605 38.761076 
L 191.364047 38.761076 
L 191.439811 35.074274 
L 191.547478 35.074274 
L 191.635806 30.860785 
L 191.969 30.860785 
L 191.969 30.334099 
L 338.688 30.334099 
L 338.688 30.334099 
" style="fill:none;stroke:#bebebe;stroke-linecap:square;stroke-width:1.5;"/>
   </g>
   <g id="line2d_47">
    <defs>
     <path d="M 0 0 
L -6 -0 
M 0 0 
L 3 4.8 
M 0 0 
L 3 -4.8 
" id="m78b790784a" style="stroke:#bebebe;stroke-width:1.5;"/>
    </defs>
    <g>
     <use style="fill-opacity:0;stroke:#bebebe;stroke-width:1.5;" x="134.661403" xlink:href="#m78b790784a" y="267.342835"/>
     <use style="fill-opacity:0;stroke:#bebebe;stroke-width:1.5;" x="165.744209" xlink:href="#m78b790784a" y="197.820273"/>
     <use style="fill-opacity:0;stroke:#bebebe;stroke-width:1.5;" x="191.969" xlink:href="#m78b790784a" y="30.860785"/>
     <use style="fill-opacity:0;stroke:#bebebe;stroke-width:1.5;" x="191.969" xlink:href="#m78b790784a" y="30.334099"/>
     <use style="fill-opacity:0;stroke:#bebebe;stroke-width:1.5;" x="191.969" xlink:href="#m78b790784a" y="30.334099"/>
     <use style="fill-opacity:0;stroke:#bebebe;stroke-width:1.5;" x="338.688" xlink:href="#m78b790784a" y="30.334099"/>
    </g>
   </g>
   <g id="line2d_48">
    <path style="fill:none;stroke:#bebebe;stroke-linecap:square;stroke-width:1.5;"/>
    <g/>
   </g>
   <g id="line2d_49">
    <defs>
     <path d="M 0 1.5 
C 0.397805 1.5 0.77937 1.341951 1.06066 1.06066 
C 1.341951 0.77937 1.5 0.397805 1.5 0 
C 1.5 -0.397805 1.341951 -0.77937 1.06066 -1.06066 
C 0.77937 -1.341951 0.397805 -1.5 0 -1.5 
C -0.397805 -1.5 -0.77937 -1.341951 -1.06066 -1.06066 
C -1.341951 -0.77937 -1.5 -0.397805 -1.5 0 
C -1.5 0.397805 -1.341951 0.77937 -1.06066 1.06066 
C -0.77937 1.341951 -0.397805 1.5 0 1.5 
z
" id="m6c17baaaba" style="stroke:#6495ed;"/>
    </defs>
    <g>
     <use style="fill:#6495ed;stroke:#6495ed;" x="295.374236" xlink:href="#m6c17baaaba" y="198.873645"/>
     <use style="fill:#6495ed;stroke:#6495ed;" x="295.374236" xlink:href="#m6c17baaaba" y="198.873645"/>
    </g>
   </g>
   <g id="line2d_50">
    <path d="M 38.440992 298.944 
L 38.440992 291.043709 
L 85.66744 291.043709 
L 85.66744 288.410278 
L 86.792945 288.410278 
L 86.792945 283.670104 
L 87.850195 283.670104 
L 87.850195 282.090045 
L 96.552242 282.090045 
L 96.552242 281.036673 
L 97.755429 281.036673 
L 97.755429 279.456615 
L 98.32726 279.456615 
L 98.32726 278.929929 
L 116.719583 278.929929 
L 116.719583 278.403243 
L 117.857331 278.403243 
L 117.857331 276.296499 
L 133.72629 276.296499 
L 133.72629 275.769812 
L 136.456742 275.769812 
L 136.456742 275.243126 
L 137.968891 275.243126 
L 137.968891 274.71644 
L 143.187472 274.71644 
L 143.187472 273.136382 
L 143.778691 273.136382 
L 143.778691 272.609696 
L 144.148442 272.609696 
L 144.189046 270.502952 
L 145.665858 270.502952 
L 145.665858 269.976266 
L 146.608752 269.976266 
L 146.608752 269.449579 
L 150.401087 269.449579 
L 150.401087 268.922893 
L 150.87737 268.922893 
L 150.87737 267.869521 
L 154.730098 267.869521 
L 154.730098 266.816149 
L 156.378132 266.816149 
L 156.378132 266.289463 
L 159.6749 266.289463 
L 159.6749 264.182719 
L 161.510643 264.182719 
L 161.510643 263.656033 
L 162.231559 263.656033 
L 162.231559 261.549288 
L 169.031447 261.549288 
L 169.031447 261.022602 
L 170.802371 261.022602 
L 170.802371 260.495916 
L 173.688525 260.495916 
L 173.770522 258.389172 
L 176.138213 258.389172 
L 176.138213 257.862486 
L 178.400227 257.862486 
L 178.479885 256.809114 
L 181.046089 256.809114 
L 181.109673 255.755741 
L 193.442487 255.755741 
L 193.442487 255.229055 
L 202.353807 255.229055 
L 202.353807 254.702369 
L 204.079238 254.702369 
L 204.079238 254.175683 
L 211.337166 254.175683 
L 211.337166 253.648997 
L 211.476365 253.648997 
L 211.476365 253.122311 
L 211.630586 253.122311 
L 211.639915 251.542253 
L 217.607629 251.542253 
L 217.607629 251.015567 
L 226.464683 251.015567 
L 226.493285 248.908822 
L 230.67982 248.908822 
L 230.67982 248.382136 
L 231.076213 248.382136 
L 231.076213 247.85545 
L 231.730792 247.85545 
L 231.730792 247.328764 
L 232.094281 247.328764 
L 232.200223 246.275392 
L 232.733903 246.275392 
L 232.733903 245.22202 
L 233.070079 245.22202 
L 233.070079 244.695334 
L 233.361388 244.695334 
L 233.361388 244.168648 
L 235.428177 244.168648 
L 235.428177 243.641962 
L 235.685047 243.641962 
L 235.685047 243.115275 
L 236.078224 243.115275 
L 236.078224 242.588589 
L 236.987821 242.588589 
L 236.987821 242.061903 
L 241.737934 242.061903 
L 241.737934 241.535217 
L 243.354118 241.535217 
L 243.354118 241.008531 
L 243.876019 241.008531 
L 243.876019 240.481845 
L 244.160872 240.481845 
L 244.160872 239.955159 
L 244.303462 239.955159 
L 244.363289 238.375101 
L 244.526378 238.375101 
L 244.55247 237.321729 
L 245.834986 237.321729 
L 245.834986 236.795043 
L 246.203025 236.795043 
L 246.300777 235.214984 
L 246.357962 235.214984 
L 246.357962 234.688298 
L 249.275424 234.688298 
L 249.275424 234.161612 
L 250.318469 234.161612 
L 250.318469 233.634926 
L 250.947751 233.634926 
L 250.947751 233.10824 
L 251.383469 233.10824 
L 251.383469 232.581554 
L 252.051703 232.581554 
L 252.142616 231.528182 
L 252.167615 231.528182 
L 252.167615 231.001496 
L 252.93883 231.001496 
L 252.93883 230.47481 
L 253.583128 230.47481 
L 253.583128 229.948123 
L 253.774757 229.948123 
L 253.818072 228.894751 
L 255.122856 228.894751 
L 255.122856 228.368065 
L 255.667567 228.368065 
L 255.667567 227.841379 
L 256.540894 227.841379 
L 256.540894 227.314693 
L 257.230667 227.314693 
L 257.240411 226.261321 
L 257.376935 226.261321 
L 257.376935 225.734635 
L 257.670928 225.734635 
L 257.670928 225.207949 
L 258.740771 225.207949 
L 258.740771 224.681263 
L 259.482254 224.681263 
L 259.523835 223.627891 
L 259.773084 223.627891 
L 259.773084 223.101204 
L 260.680223 223.101204 
L 260.680223 222.574518 
L 260.876454 222.574518 
L 260.914994 221.521146 
L 261.243583 221.521146 
L 261.243583 220.99446 
L 263.007189 220.99446 
L 263.007189 220.467774 
L 264.160858 220.467774 
L 264.160858 219.941088 
L 264.708259 219.941088 
L 264.708259 219.414402 
L 265.073168 219.414402 
L 265.073168 218.887716 
L 265.330107 218.887716 
L 265.330107 218.36103 
L 266.768621 218.36103 
L 266.768621 217.834344 
L 269.220634 217.834344 
L 269.220634 217.307658 
L 269.57199 217.307658 
L 269.637153 216.254285 
L 269.734807 216.254285 
L 269.734807 215.727599 
L 269.951675 215.727599 
L 269.951675 215.200913 
L 271.333621 215.200913 
L 271.333621 214.674227 
L 271.82667 214.674227 
L 271.82667 214.147541 
L 272.957818 214.147541 
L 272.957818 213.620855 
L 273.165562 213.620855 
L 273.165562 213.094169 
L 273.645487 213.094169 
L 273.645487 212.567483 
L 273.92127 212.567483 
L 273.92127 212.040797 
L 274.069566 212.040797 
L 274.069566 211.514111 
L 275.841223 211.514111 
L 275.841223 210.987425 
L 276.140511 210.987425 
L 276.140511 210.460738 
L 277.345059 210.460738 
L 277.345059 209.934052 
L 278.264011 209.934052 
L 278.264011 209.407366 
L 278.574114 209.407366 
L 278.574114 208.88068 
L 278.759406 208.88068 
L 278.759406 208.353994 
L 278.880521 208.353994 
L 278.880521 207.827308 
L 279.255449 207.827308 
L 279.255449 207.300622 
L 279.729555 207.300622 
L 279.729555 206.773936 
L 280.811683 206.773936 
L 280.811683 206.24725 
L 281.58004 206.24725 
L 281.648671 205.193878 
L 282.275143 205.193878 
L 282.275143 204.667192 
L 283.586855 204.667192 
L 283.586855 204.140506 
L 284.330599 204.140506 
L 284.330599 203.613819 
L 286.802517 203.613819 
L 286.802517 203.087133 
L 288.900785 203.087133 
L 288.900785 202.560447 
L 291.709502 202.560447 
L 291.709502 202.033761 
L 292.101762 202.033761 
L 292.101762 201.507075 
L 292.555398 201.507075 
L 292.555398 200.980389 
L 293.646217 200.980389 
L 293.646217 200.453703 
L 294.201812 200.453703 
L 294.201812 199.927017 
L 294.884669 199.927017 
L 294.884669 199.400331 
L 295.374236 199.400331 
L 295.374236 198.873645 
L 338.688 198.873645 
L 338.688 198.873645 
" style="fill:none;stroke:#6495ed;stroke-linecap:square;stroke-width:1.5;"/>
   </g>
   <g id="line2d_51">
    <defs>
     <path d="M -0 6 
L 6 -6 
L -6 -6 
z
" id="mb40fe77f2b" style="stroke:#6495ed;stroke-linejoin:miter;stroke-width:1.5;"/>
    </defs>
    <g>
     <use style="fill-opacity:0;stroke:#6495ed;stroke-linejoin:miter;stroke-width:1.5;" x="117.857331" xlink:href="#mb40fe77f2b" y="276.296499"/>
     <use style="fill-opacity:0;stroke:#6495ed;stroke-linejoin:miter;stroke-width:1.5;" x="193.442487" xlink:href="#mb40fe77f2b" y="255.755741"/>
     <use style="fill-opacity:0;stroke:#6495ed;stroke-linejoin:miter;stroke-width:1.5;" x="269.220634" xlink:href="#mb40fe77f2b" y="217.834344"/>
     <use style="fill-opacity:0;stroke:#6495ed;stroke-linejoin:miter;stroke-width:1.5;" x="295.374236" xlink:href="#mb40fe77f2b" y="198.873645"/>
     <use style="fill-opacity:0;stroke:#6495ed;stroke-linejoin:miter;stroke-width:1.5;" x="295.374236" xlink:href="#mb40fe77f2b" y="198.873645"/>
     <use style="fill-opacity:0;stroke:#6495ed;stroke-linejoin:miter;stroke-width:1.5;" x="338.688" xlink:href="#mb40fe77f2b" y="198.873645"/>
    </g>
   </g>
   <g id="line2d_52">
    <path style="fill:none;stroke:#6495ed;stroke-linecap:square;stroke-width:1.5;"/>
    <g/>
   </g>
   <g id="line2d_53">
    <path clip-path="url(#paf21fd62e1)" d="M 232.779624 245.22202 
" style="fill:none;stroke:#6495ed;stroke-linecap:square;stroke-width:1.5;"/>
    <defs>
     <path d="M -12 12 
L 12 -12 
M -12 -12 
L 12 12 
" id="me19ad8480c" style="stroke:#6495ed;"/>
    </defs>
    <g clip-path="url(#paf21fd62e1)">
     <use style="fill:#6495ed;stroke:#6495ed;" x="232.779624" xlink:href="#me19ad8480c" y="245.22202"/>
    </g>
   </g>
   <g id="line2d_54">
    <path d="M 338.688 198.873645 
L 369.60768 293.571802 
" style="fill:none;stroke:#6495ed;stroke-linecap:square;stroke-width:1.5;"/>
    <g>
     <use style="fill-opacity:0;stroke:#6495ed;stroke-linejoin:miter;stroke-width:1.5;" x="338.688" xlink:href="#mb40fe77f2b" y="198.873645"/>
     <use style="fill-opacity:0;stroke:#6495ed;stroke-linejoin:miter;stroke-width:1.5;" x="369.60768" xlink:href="#mb40fe77f2b" y="293.571802"/>
    </g>
   </g>
   <g id="line2d_55">
    <path d="M 338.688 30.334099 
L 369.60768 207.616634 
" style="fill:none;stroke:#000080;stroke-linecap:square;stroke-width:1.5;"/>
    <g>
     <use style="fill-opacity:0;stroke:#000080;stroke-width:1.5;" x="338.688" xlink:href="#m27e5663421" y="30.334099"/>
     <use style="fill-opacity:0;stroke:#000080;stroke-width:1.5;" x="369.60768" xlink:href="#m27e5663421" y="207.616634"/>
    </g>
   </g>
   <g id="line2d_56">
    <path d="M 338.688 30.334099 
L 369.60768 121.661465 
" style="fill:none;stroke:#ff0000;stroke-linecap:square;stroke-width:1.5;"/>
    <g>
     <use style="fill-opacity:0;stroke:#ff0000;stroke-linejoin:miter;stroke-width:1.5;" x="338.688" xlink:href="#m81666d5724" y="30.334099"/>
     <use style="fill-opacity:0;stroke:#ff0000;stroke-linejoin:miter;stroke-width:1.5;" x="369.60768" xlink:href="#m81666d5724" y="121.661465"/>
    </g>
   </g>
   <g id="line2d_57">
    <path d="M 338.688 30.334099 
L 369.60768 35.706297 
" style="fill:none;stroke:#bebebe;stroke-linecap:square;stroke-width:1.5;"/>
    <g>
     <use style="fill-opacity:0;stroke:#bebebe;stroke-width:1.5;" x="338.688" xlink:href="#m78b790784a" y="30.334099"/>
     <use style="fill-opacity:0;stroke:#bebebe;stroke-width:1.5;" x="369.60768" xlink:href="#m78b790784a" y="35.706297"/>
    </g>
   </g>
   <g id="line2d_58">
    <path d="M 338.688 298.944 
L 338.688 30.334099 
" style="fill:none;stroke:#000000;stroke-linecap:square;stroke-width:1.5;"/>
   </g>
   <g id="patch_3">
    <path d="M 57.6 298.944 
L 57.6 27.648 
" style="fill:none;stroke:#000000;stroke-linecap:square;stroke-linejoin:miter;stroke-width:0.8;"/>
   </g>
   <g id="patch_4">
    <path d="M 338.688 298.944 
L 338.688 27.648 
" style="fill:none;stroke:#000000;stroke-linecap:square;stroke-linejoin:miter;stroke-width:0.8;"/>
   </g>
   <g id="patch_5">
    <path d="M 57.6 298.944 
L 338.688 298.944 
" style="fill:none;stroke:#000000;stroke-linecap:square;stroke-linejoin:miter;stroke-width:0.8;"/>
   </g>
   <g id="patch_6">
    <path d="M 57.6 27.648 
L 338.688 27.648 
" style="fill:none;stroke:#000000;stroke-linecap:square;stroke-linejoin:miter;stroke-width:0.8;"/>
   </g>
   <g id="text_13">
    <!-- SLSQP-11  -->
    <defs>
     <path d="M 53.515625 70.515625 
L 53.515625 60.890625 
Q 47.90625 63.578125 42.921875 64.890625 
Q 37.9375 66.21875 33.296875 66.21875 
Q 25.25 66.21875 20.875 63.09375 
Q 16.5 59.96875 16.5 54.203125 
Q 16.5 49.359375 19.40625 46.890625 
Q 22.3125 44.4375 30.421875 42.921875 
L 36.375 41.703125 
Q 47.40625 39.59375 52.65625 34.296875 
Q 57.90625 29 57.90625 20.125 
Q 57.90625 9.515625 50.796875 4.046875 
Q 43.703125 -1.421875 29.984375 -1.421875 
Q 24.8125 -1.421875 18.96875 -0.25 
Q 13.140625 0.921875 6.890625 3.21875 
L 6.890625 13.375 
Q 12.890625 10.015625 18.65625 8.296875 
Q 24.421875 6.59375 29.984375 6.59375 
Q 38.421875 6.59375 43.015625 9.90625 
Q 47.609375 13.234375 47.609375 19.390625 
Q 47.609375 24.75 44.3125 27.78125 
Q 41.015625 30.8125 33.5 32.328125 
L 27.484375 33.5 
Q 16.453125 35.6875 11.515625 40.375 
Q 6.59375 45.0625 6.59375 53.421875 
Q 6.59375 63.09375 13.40625 68.65625 
Q 20.21875 74.21875 32.171875 74.21875 
Q 37.3125 74.21875 42.625 73.28125 
Q 47.953125 72.359375 53.515625 70.515625 
z
" id="DejaVuSans-83"/>
     <path d="M 9.8125 72.90625 
L 19.671875 72.90625 
L 19.671875 8.296875 
L 55.171875 8.296875 
L 55.171875 0 
L 9.8125 0 
z
" id="DejaVuSans-76"/>
     <path d="M 39.40625 66.21875 
Q 28.65625 66.21875 22.328125 58.203125 
Q 16.015625 50.203125 16.015625 36.375 
Q 16.015625 22.609375 22.328125 14.59375 
Q 28.65625 6.59375 39.40625 6.59375 
Q 50.140625 6.59375 56.421875 14.59375 
Q 62.703125 22.609375 62.703125 36.375 
Q 62.703125 50.203125 56.421875 58.203125 
Q 50.140625 66.21875 39.40625 66.21875 
z
M 53.21875 1.3125 
L 66.21875 -12.890625 
L 54.296875 -12.890625 
L 43.5 -1.21875 
Q 41.890625 -1.3125 41.03125 -1.359375 
Q 40.1875 -1.421875 39.40625 -1.421875 
Q 24.03125 -1.421875 14.8125 8.859375 
Q 5.609375 19.140625 5.609375 36.375 
Q 5.609375 53.65625 14.8125 63.9375 
Q 24.03125 74.21875 39.40625 74.21875 
Q 54.734375 74.21875 63.90625 63.9375 
Q 73.09375 53.65625 73.09375 36.375 
Q 73.09375 23.6875 67.984375 14.640625 
Q 62.890625 5.609375 53.21875 1.3125 
z
" id="DejaVuSans-81"/>
     <path d="M 19.671875 64.796875 
L 19.671875 37.40625 
L 32.078125 37.40625 
Q 38.96875 37.40625 42.71875 40.96875 
Q 46.484375 44.53125 46.484375 51.125 
Q 46.484375 57.671875 42.71875 61.234375 
Q 38.96875 64.796875 32.078125 64.796875 
z
M 9.8125 72.90625 
L 32.078125 72.90625 
Q 44.34375 72.90625 50.609375 67.359375 
Q 56.890625 61.8125 56.890625 51.125 
Q 56.890625 40.328125 50.609375 34.8125 
Q 44.34375 29.296875 32.078125 29.296875 
L 19.671875 29.296875 
L 19.671875 0 
L 9.8125 0 
z
" id="DejaVuSans-80"/>
    </defs>
    <g transform="translate(375.22944 298.262739)scale(0.17 -0.17)">
     <use xlink:href="#DejaVuSans-83"/>
     <use x="63.476562" xlink:href="#DejaVuSans-76"/>
     <use x="119.189453" xlink:href="#DejaVuSans-83"/>
     <use x="182.666016" xlink:href="#DejaVuSans-81"/>
     <use x="261.376953" xlink:href="#DejaVuSans-80"/>
     <use x="321.648438" xlink:href="#DejaVuSans-45"/>
     <use x="357.732422" xlink:href="#DejaVuSans-49"/>
     <use x="421.355469" xlink:href="#DejaVuSans-49"/>
     <use x="484.978516" xlink:href="#DejaVuSans-32"/>
    </g>
   </g>
   <g id="text_14">
    <!-- CMA-ES  2 -->
    <defs>
     <path d="M 64.40625 67.28125 
L 64.40625 56.890625 
Q 59.421875 61.53125 53.78125 63.8125 
Q 48.140625 66.109375 41.796875 66.109375 
Q 29.296875 66.109375 22.65625 58.46875 
Q 16.015625 50.828125 16.015625 36.375 
Q 16.015625 21.96875 22.65625 14.328125 
Q 29.296875 6.6875 41.796875 6.6875 
Q 48.140625 6.6875 53.78125 8.984375 
Q 59.421875 11.28125 64.40625 15.921875 
L 64.40625 5.609375 
Q 59.234375 2.09375 53.4375 0.328125 
Q 47.65625 -1.421875 41.21875 -1.421875 
Q 24.65625 -1.421875 15.125 8.703125 
Q 5.609375 18.84375 5.609375 36.375 
Q 5.609375 53.953125 15.125 64.078125 
Q 24.65625 74.21875 41.21875 74.21875 
Q 47.75 74.21875 53.53125 72.484375 
Q 59.328125 70.75 64.40625 67.28125 
z
" id="DejaVuSans-67"/>
     <path d="M 9.8125 72.90625 
L 24.515625 72.90625 
L 43.109375 23.296875 
L 61.8125 72.90625 
L 76.515625 72.90625 
L 76.515625 0 
L 66.890625 0 
L 66.890625 64.015625 
L 48.09375 14.015625 
L 38.1875 14.015625 
L 19.390625 64.015625 
L 19.390625 0 
L 9.8125 0 
z
" id="DejaVuSans-77"/>
     <path d="M 34.1875 63.1875 
L 20.796875 26.90625 
L 47.609375 26.90625 
z
M 28.609375 72.90625 
L 39.796875 72.90625 
L 67.578125 0 
L 57.328125 0 
L 50.6875 18.703125 
L 17.828125 18.703125 
L 11.1875 0 
L 0.78125 0 
z
" id="DejaVuSans-65"/>
     <path d="M 9.8125 72.90625 
L 55.90625 72.90625 
L 55.90625 64.59375 
L 19.671875 64.59375 
L 19.671875 43.015625 
L 54.390625 43.015625 
L 54.390625 34.71875 
L 19.671875 34.71875 
L 19.671875 8.296875 
L 56.78125 8.296875 
L 56.78125 0 
L 9.8125 0 
z
" id="DejaVuSans-69"/>
    </defs>
    <g transform="translate(375.22944 212.307571)scale(0.17 -0.17)">
     <use xlink:href="#DejaVuSans-67"/>
     <use x="69.824219" xlink:href="#DejaVuSans-77"/>
     <use x="156.103516" xlink:href="#DejaVuSans-65"/>
     <use x="224.480469" xlink:href="#DejaVuSans-45"/>
     <use x="260.564453" xlink:href="#DejaVuSans-69"/>
     <use x="323.748047" xlink:href="#DejaVuSans-83"/>
     <use x="387.224609" xlink:href="#DejaVuSans-32"/>
     <use x="419.011719" xlink:href="#DejaVuSans-32"/>
     <use x="450.798828" xlink:href="#DejaVuSans-50"/>
    </g>
   </g>
   <g id="text_15">
    <!-- lq-CMA-ES -->
    <defs>
     <path d="M 14.796875 27.296875 
Q 14.796875 17.390625 18.875 11.75 
Q 22.953125 6.109375 30.078125 6.109375 
Q 37.203125 6.109375 41.296875 11.75 
Q 45.40625 17.390625 45.40625 27.296875 
Q 45.40625 37.203125 41.296875 42.84375 
Q 37.203125 48.484375 30.078125 48.484375 
Q 22.953125 48.484375 18.875 42.84375 
Q 14.796875 37.203125 14.796875 27.296875 
z
M 45.40625 8.203125 
Q 42.578125 3.328125 38.25 0.953125 
Q 33.9375 -1.421875 27.875 -1.421875 
Q 17.96875 -1.421875 11.734375 6.484375 
Q 5.515625 14.40625 5.515625 27.296875 
Q 5.515625 40.1875 11.734375 48.09375 
Q 17.96875 56 27.875 56 
Q 33.9375 56 38.25 53.625 
Q 42.578125 51.265625 45.40625 46.390625 
L 45.40625 54.6875 
L 54.390625 54.6875 
L 54.390625 -20.796875 
L 45.40625 -20.796875 
z
" id="DejaVuSans-113"/>
    </defs>
    <g transform="translate(375.22944 126.352403)scale(0.17 -0.17)">
     <use xlink:href="#DejaVuSans-108"/>
     <use x="27.783203" xlink:href="#DejaVuSans-113"/>
     <use x="91.259766" xlink:href="#DejaVuSans-45"/>
     <use x="127.34375" xlink:href="#DejaVuSans-67"/>
     <use x="197.167969" xlink:href="#DejaVuSans-77"/>
     <use x="283.447266" xlink:href="#DejaVuSans-65"/>
     <use x="351.824219" xlink:href="#DejaVuSans-45"/>
     <use x="387.908203" xlink:href="#DejaVuSans-69"/>
     <use x="451.091797" xlink:href="#DejaVuSans-83"/>
    </g>
   </g>
   <g id="text_16">
    <!-- SLSQP+CMA -->
    <defs>
     <path d="M 46 62.703125 
L 46 35.5 
L 73.1875 35.5 
L 73.1875 27.203125 
L 46 27.203125 
L 46 0 
L 37.796875 0 
L 37.796875 27.203125 
L 10.59375 27.203125 
L 10.59375 35.5 
L 37.796875 35.5 
L 37.796875 62.703125 
z
" id="DejaVuSans-43"/>
    </defs>
    <g transform="translate(375.22944 40.397235)scale(0.17 -0.17)">
     <use xlink:href="#DejaVuSans-83"/>
     <use x="63.476562" xlink:href="#DejaVuSans-76"/>
     <use x="119.189453" xlink:href="#DejaVuSans-83"/>
     <use x="182.666016" xlink:href="#DejaVuSans-81"/>
     <use x="261.376953" xlink:href="#DejaVuSans-80"/>
     <use x="321.679688" xlink:href="#DejaVuSans-43"/>
     <use x="405.46875" xlink:href="#DejaVuSans-67"/>
     <use x="475.292969" xlink:href="#DejaVuSans-77"/>
     <use x="561.572266" xlink:href="#DejaVuSans-65"/>
    </g>
   </g>
   <g id="text_17">
    <!-- bbob f16, 3-D -->
    <defs>
     <path d="M 48.6875 27.296875 
Q 48.6875 37.203125 44.609375 42.84375 
Q 40.53125 48.484375 33.40625 48.484375 
Q 26.265625 48.484375 22.1875 42.84375 
Q 18.109375 37.203125 18.109375 27.296875 
Q 18.109375 17.390625 22.1875 11.75 
Q 26.265625 6.109375 33.40625 6.109375 
Q 40.53125 6.109375 44.609375 11.75 
Q 48.6875 17.390625 48.6875 27.296875 
z
M 18.109375 46.390625 
Q 20.953125 51.265625 25.265625 53.625 
Q 29.59375 56 35.59375 56 
Q 45.5625 56 51.78125 48.09375 
Q 58.015625 40.1875 58.015625 27.296875 
Q 58.015625 14.40625 51.78125 6.484375 
Q 45.5625 -1.421875 35.59375 -1.421875 
Q 29.59375 -1.421875 25.265625 0.953125 
Q 20.953125 3.328125 18.109375 8.203125 
L 18.109375 0 
L 9.078125 0 
L 9.078125 75.984375 
L 18.109375 75.984375 
z
" id="DejaVuSans-98"/>
     <path d="M 40.578125 39.3125 
Q 47.65625 37.796875 51.625 33 
Q 55.609375 28.21875 55.609375 21.1875 
Q 55.609375 10.40625 48.1875 4.484375 
Q 40.765625 -1.421875 27.09375 -1.421875 
Q 22.515625 -1.421875 17.65625 -0.515625 
Q 12.796875 0.390625 7.625 2.203125 
L 7.625 11.71875 
Q 11.71875 9.328125 16.59375 8.109375 
Q 21.484375 6.890625 26.8125 6.890625 
Q 36.078125 6.890625 40.9375 10.546875 
Q 45.796875 14.203125 45.796875 21.1875 
Q 45.796875 27.640625 41.28125 31.265625 
Q 36.765625 34.90625 28.71875 34.90625 
L 20.21875 34.90625 
L 20.21875 43.015625 
L 29.109375 43.015625 
Q 36.375 43.015625 40.234375 45.921875 
Q 44.09375 48.828125 44.09375 54.296875 
Q 44.09375 59.90625 40.109375 62.90625 
Q 36.140625 65.921875 28.71875 65.921875 
Q 24.65625 65.921875 20.015625 65.03125 
Q 15.375 64.15625 9.8125 62.3125 
L 9.8125 71.09375 
Q 15.4375 72.65625 20.34375 73.4375 
Q 25.25 74.21875 29.59375 74.21875 
Q 40.828125 74.21875 47.359375 69.109375 
Q 53.90625 64.015625 53.90625 55.328125 
Q 53.90625 49.265625 50.4375 45.09375 
Q 46.96875 40.921875 40.578125 39.3125 
z
" id="DejaVuSans-51"/>
     <path d="M 19.671875 64.796875 
L 19.671875 8.109375 
L 31.59375 8.109375 
Q 46.6875 8.109375 53.6875 14.9375 
Q 60.6875 21.78125 60.6875 36.53125 
Q 60.6875 51.171875 53.6875 57.984375 
Q 46.6875 64.796875 31.59375 64.796875 
z
M 9.8125 72.90625 
L 30.078125 72.90625 
Q 51.265625 72.90625 61.171875 64.09375 
Q 71.09375 55.28125 71.09375 36.53125 
Q 71.09375 17.671875 61.125 8.828125 
Q 51.171875 0 30.078125 0 
L 9.8125 0 
z
" id="DejaVuSans-68"/>
    </defs>
    <g transform="translate(60.41088 38.111366)scale(0.102 -0.102)">
     <use xlink:href="#DejaVuSans-98"/>
     <use x="63.476562" xlink:href="#DejaVuSans-98"/>
     <use x="126.953125" xlink:href="#DejaVuSans-111"/>
     <use x="188.134766" xlink:href="#DejaVuSans-98"/>
     <use x="251.611328" xlink:href="#DejaVuSans-32"/>
     <use x="283.398438" xlink:href="#DejaVuSans-102"/>
     <use x="318.603516" xlink:href="#DejaVuSans-49"/>
     <use x="382.226562" xlink:href="#DejaVuSans-54"/>
     <use x="445.849609" xlink:href="#DejaVuSans-44"/>
     <use x="477.636719" xlink:href="#DejaVuSans-32"/>
     <use x="509.423828" xlink:href="#DejaVuSans-51"/>
     <use x="573.046875" xlink:href="#DejaVuSans-45"/>
     <use x="609.130859" xlink:href="#DejaVuSans-68"/>
    </g>
    <!-- 51 targets: 100..1e-08 -->
    <defs>
     <path d="M 10.796875 72.90625 
L 49.515625 72.90625 
L 49.515625 64.59375 
L 19.828125 64.59375 
L 19.828125 46.734375 
Q 21.96875 47.46875 24.109375 47.828125 
Q 26.265625 48.1875 28.421875 48.1875 
Q 40.625 48.1875 47.75 41.5 
Q 54.890625 34.8125 54.890625 23.390625 
Q 54.890625 11.625 47.5625 5.09375 
Q 40.234375 -1.421875 26.90625 -1.421875 
Q 22.3125 -1.421875 17.546875 -0.640625 
Q 12.796875 0.140625 7.71875 1.703125 
L 7.71875 11.625 
Q 12.109375 9.234375 16.796875 8.0625 
Q 21.484375 6.890625 26.703125 6.890625 
Q 35.15625 6.890625 40.078125 11.328125 
Q 45.015625 15.765625 45.015625 23.390625 
Q 45.015625 31 40.078125 35.4375 
Q 35.15625 39.890625 26.703125 39.890625 
Q 22.75 39.890625 18.8125 39.015625 
Q 14.890625 38.140625 10.796875 36.28125 
z
" id="DejaVuSans-53"/>
     <path d="M 11.71875 12.40625 
L 22.015625 12.40625 
L 22.015625 0 
L 11.71875 0 
z
M 11.71875 51.703125 
L 22.015625 51.703125 
L 22.015625 39.3125 
L 11.71875 39.3125 
z
" id="DejaVuSans-58"/>
    </defs>
    <g transform="translate(60.41088 49.533135)scale(0.102 -0.102)">
     <use xlink:href="#DejaVuSans-53"/>
     <use x="63.623047" xlink:href="#DejaVuSans-49"/>
     <use x="127.246094" xlink:href="#DejaVuSans-32"/>
     <use x="159.033203" xlink:href="#DejaVuSans-116"/>
     <use x="198.242188" xlink:href="#DejaVuSans-97"/>
     <use x="259.521484" xlink:href="#DejaVuSans-114"/>
     <use x="300.619141" xlink:href="#DejaVuSans-103"/>
     <use x="364.095703" xlink:href="#DejaVuSans-101"/>
     <use x="425.619141" xlink:href="#DejaVuSans-116"/>
     <use x="464.828125" xlink:href="#DejaVuSans-115"/>
     <use x="516.927734" xlink:href="#DejaVuSans-58"/>
     <use x="550.619141" xlink:href="#DejaVuSans-32"/>
     <use x="582.40625" xlink:href="#DejaVuSans-49"/>
     <use x="646.029297" xlink:href="#DejaVuSans-48"/>
     <use x="709.652344" xlink:href="#DejaVuSans-48"/>
     <use x="773.275391" xlink:href="#DejaVuSans-46"/>
     <use x="805.0625" xlink:href="#DejaVuSans-46"/>
     <use x="836.849609" xlink:href="#DejaVuSans-49"/>
     <use x="900.472656" xlink:href="#DejaVuSans-101"/>
     <use x="961.996094" xlink:href="#DejaVuSans-45"/>
     <use x="998.080078" xlink:href="#DejaVuSans-48"/>
     <use x="1061.703125" xlink:href="#DejaVuSans-56"/>
    </g>
    <!-- 15 instances -->
    <g transform="translate(60.41088 60.954904)scale(0.102 -0.102)">
     <use xlink:href="#DejaVuSans-49"/>
     <use x="63.623047" xlink:href="#DejaVuSans-53"/>
     <use x="127.246094" xlink:href="#DejaVuSans-32"/>
     <use x="159.033203" xlink:href="#DejaVuSans-105"/>
     <use x="186.816406" xlink:href="#DejaVuSans-110"/>
     <use x="250.195312" xlink:href="#DejaVuSans-115"/>
     <use x="302.294922" xlink:href="#DejaVuSans-116"/>
     <use x="341.503906" xlink:href="#DejaVuSans-97"/>
     <use x="402.783203" xlink:href="#DejaVuSans-110"/>
     <use x="466.162109" xlink:href="#DejaVuSans-99"/>
     <use x="521.142578" xlink:href="#DejaVuSans-101"/>
     <use x="582.666016" xlink:href="#DejaVuSans-115"/>
    </g>
   </g>
   <g id="text_18">
    <!-- v2.3.2 -->
    <g style="fill:#808080;" transform="translate(182.46275 294.151352)scale(0.1 -0.1)">
     <use xlink:href="#DejaVuSans-118"/>
     <use x="59.179688" xlink:href="#DejaVuSans-50"/>
     <use x="122.802734" xlink:href="#DejaVuSans-46"/>
     <use x="154.589844" xlink:href="#DejaVuSans-51"/>
     <use x="218.212891" xlink:href="#DejaVuSans-46"/>
     <use x="250" xlink:href="#DejaVuSans-50"/>
    </g>
   </g>
   <g id="text_19">
    <!-- 16 Weierstrass -->
    <defs>
     <path d="M 3.328125 72.90625 
L 13.28125 72.90625 
L 28.609375 11.28125 
L 43.890625 72.90625 
L 54.984375 72.90625 
L 70.3125 11.28125 
L 85.59375 72.90625 
L 95.609375 72.90625 
L 77.296875 0 
L 64.890625 0 
L 49.515625 63.28125 
L 33.984375 0 
L 21.578125 0 
z
" id="DejaVuSans-87"/>
    </defs>
    <g transform="translate(123.378375 21.648)scale(0.2 -0.2)">
     <use xlink:href="#DejaVuSans-49"/>
     <use x="63.623047" xlink:href="#DejaVuSans-54"/>
     <use x="127.246094" xlink:href="#DejaVuSans-32"/>
     <use x="159.033203" xlink:href="#DejaVuSans-87"/>
     <use x="257.832031" xlink:href="#DejaVuSans-101"/>
     <use x="319.355469" xlink:href="#DejaVuSans-105"/>
     <use x="347.138672" xlink:href="#DejaVuSans-101"/>
     <use x="408.662109" xlink:href="#DejaVuSans-114"/>
     <use x="449.775391" xlink:href="#DejaVuSans-115"/>
     <use x="501.875" xlink:href="#DejaVuSans-116"/>
     <use x="541.083984" xlink:href="#DejaVuSans-114"/>
     <use x="582.197266" xlink:href="#DejaVuSans-97"/>
     <use x="643.476562" xlink:href="#DejaVuSans-115"/>
     <use x="695.576172" xlink:href="#DejaVuSans-115"/>
    </g>
   </g>
  </g>
 </g>
 <defs>
  <clipPath id="paf21fd62e1">
   <rect height="271.296" width="281.088" x="57.6" y="27.648"/>
  </clipPath>
 </defs>
</svg>
