<?xml version="1.0" encoding="utf-8" standalone="no"?>
<!DOCTYPE svg PUBLIC "-//W3C//DTD SVG 1.1//EN"
  "http://www.w3.org/Graphics/SVG/1.1/DTD/svg11.dtd">
<!-- Created with matplotlib (https://matplotlib.org/) -->
<svg height="345.6pt" version="1.1" viewBox="0 0 460.8 345.6" width="460.8pt" xmlns="http://www.w3.org/2000/svg" xmlns:xlink="http://www.w3.org/1999/xlink">
 <defs>
  <style type="text/css">
*{stroke-linecap:butt;stroke-linejoin:round;}
  </style>
 </defs>
 <g id="figure_1">
  <g id="patch_1">
   <path d="M 0 345.6 
L 460.8 345.6 
L 460.8 0 
L 0 0 
z
" style="fill:#ffffff;"/>
  </g>
  <g id="axes_1">
   <g id="patch_2">
    <path d="M 57.6 298.944 
L 338.688 298.944 
L 338.688 27.648 
L 57.6 27.648 
z
" style="fill:#ffffff;"/>
   </g>
   <g id="matplotlib.axis_1">
    <g id="xtick_1">
     <g id="line2d_1">
      <path clip-path="url(#pad8ffee7de)" d="M 57.6 298.944 
L 57.6 27.648 
" style="fill:none;stroke:#b0b0b0;stroke-linecap:square;stroke-width:0.8;"/>
     </g>
     <g id="line2d_2">
      <defs>
       <path d="M 0 0 
L 0 3.5 
" id="m29a7083d4d" style="stroke:#000000;stroke-width:0.8;"/>
      </defs>
      <g>
       <use style="stroke:#000000;stroke-width:0.8;" x="57.6" xlink:href="#m29a7083d4d" y="298.944"/>
      </g>
     </g>
     <g id="text_1">
      <!-- 0 -->
      <defs>
       <path d="M 31.78125 66.40625 
Q 24.171875 66.40625 20.328125 58.90625 
Q 16.5 51.421875 16.5 36.375 
Q 16.5 21.390625 20.328125 13.890625 
Q 24.171875 6.390625 31.78125 6.390625 
Q 39.453125 6.390625 43.28125 13.890625 
Q 47.125 21.390625 47.125 36.375 
Q 47.125 51.421875 43.28125 58.90625 
Q 39.453125 66.40625 31.78125 66.40625 
z
M 31.78125 74.21875 
Q 44.046875 74.21875 50.515625 64.515625 
Q 56.984375 54.828125 56.984375 36.375 
Q 56.984375 17.96875 50.515625 8.265625 
Q 44.046875 -1.421875 31.78125 -1.421875 
Q 19.53125 -1.421875 13.0625 8.265625 
Q 6.59375 17.96875 6.59375 36.375 
Q 6.59375 54.828125 13.0625 64.515625 
Q 19.53125 74.21875 31.78125 74.21875 
z
" id="DejaVuSans-48"/>
      </defs>
      <g transform="translate(51.2375 321.140875)scale(0.2 -0.2)">
       <use xlink:href="#DejaVuSans-48"/>
      </g>
     </g>
    </g>
    <g id="xtick_2">
     <g id="line2d_3">
      <path clip-path="url(#pad8ffee7de)" d="M 137.910857 298.944 
L 137.910857 27.648 
" style="fill:none;stroke:#b0b0b0;stroke-linecap:square;stroke-width:0.8;"/>
     </g>
     <g id="line2d_4">
      <g>
       <use style="stroke:#000000;stroke-width:0.8;" x="137.910857" xlink:href="#m29a7083d4d" y="298.944"/>
      </g>
     </g>
     <g id="text_2">
      <!-- 2 -->
      <defs>
       <path d="M 19.1875 8.296875 
L 53.609375 8.296875 
L 53.609375 0 
L 7.328125 0 
L 7.328125 8.296875 
Q 12.9375 14.109375 22.625 23.890625 
Q 32.328125 33.6875 34.8125 36.53125 
Q 39.546875 41.84375 41.421875 45.53125 
Q 43.3125 49.21875 43.3125 52.78125 
Q 43.3125 58.59375 39.234375 62.25 
Q 35.15625 65.921875 28.609375 65.921875 
Q 23.96875 65.921875 18.8125 64.3125 
Q 13.671875 62.703125 7.8125 59.421875 
L 7.8125 69.390625 
Q 13.765625 71.78125 18.9375 73 
Q 24.125 74.21875 28.421875 74.21875 
Q 39.75 74.21875 46.484375 68.546875 
Q 53.21875 62.890625 53.21875 53.421875 
Q 53.21875 48.921875 51.53125 44.890625 
Q 49.859375 40.875 45.40625 35.40625 
Q 44.1875 33.984375 37.640625 27.21875 
Q 31.109375 20.453125 19.1875 8.296875 
z
" id="DejaVuSans-50"/>
      </defs>
      <g transform="translate(131.548357 321.140875)scale(0.2 -0.2)">
       <use xlink:href="#DejaVuSans-50"/>
      </g>
     </g>
    </g>
    <g id="xtick_3">
     <g id="line2d_5">
      <path clip-path="url(#pad8ffee7de)" d="M 218.221714 298.944 
L 218.221714 27.648 
" style="fill:none;stroke:#b0b0b0;stroke-linecap:square;stroke-width:0.8;"/>
     </g>
     <g id="line2d_6">
      <g>
       <use style="stroke:#000000;stroke-width:0.8;" x="218.221714" xlink:href="#m29a7083d4d" y="298.944"/>
      </g>
     </g>
     <g id="text_3">
      <!-- 4 -->
      <defs>
       <path d="M 37.796875 64.3125 
L 12.890625 25.390625 
L 37.796875 25.390625 
z
M 35.203125 72.90625 
L 47.609375 72.90625 
L 47.609375 25.390625 
L 58.015625 25.390625 
L 58.015625 17.1875 
L 47.609375 17.1875 
L 47.609375 0 
L 37.796875 0 
L 37.796875 17.1875 
L 4.890625 17.1875 
L 4.890625 26.703125 
z
" id="DejaVuSans-52"/>
      </defs>
      <g transform="translate(211.859214 321.140875)scale(0.2 -0.2)">
       <use xlink:href="#DejaVuSans-52"/>
      </g>
     </g>
    </g>
    <g id="xtick_4">
     <g id="line2d_7">
      <path clip-path="url(#pad8ffee7de)" d="M 298.532571 298.944 
L 298.532571 27.648 
" style="fill:none;stroke:#b0b0b0;stroke-linecap:square;stroke-width:0.8;"/>
     </g>
     <g id="line2d_8">
      <g>
       <use style="stroke:#000000;stroke-width:0.8;" x="298.532571" xlink:href="#m29a7083d4d" y="298.944"/>
      </g>
     </g>
     <g id="text_4">
      <!-- 6 -->
      <defs>
       <path d="M 33.015625 40.375 
Q 26.375 40.375 22.484375 35.828125 
Q 18.609375 31.296875 18.609375 23.390625 
Q 18.609375 15.53125 22.484375 10.953125 
Q 26.375 6.390625 33.015625 6.390625 
Q 39.65625 6.390625 43.53125 10.953125 
Q 47.40625 15.53125 47.40625 23.390625 
Q 47.40625 31.296875 43.53125 35.828125 
Q 39.65625 40.375 33.015625 40.375 
z
M 52.59375 71.296875 
L 52.59375 62.3125 
Q 48.875 64.0625 45.09375 64.984375 
Q 41.3125 65.921875 37.59375 65.921875 
Q 27.828125 65.921875 22.671875 59.328125 
Q 17.53125 52.734375 16.796875 39.40625 
Q 19.671875 43.65625 24.015625 45.921875 
Q 28.375 48.1875 33.59375 48.1875 
Q 44.578125 48.1875 50.953125 41.515625 
Q 57.328125 34.859375 57.328125 23.390625 
Q 57.328125 12.15625 50.6875 5.359375 
Q 44.046875 -1.421875 33.015625 -1.421875 
Q 20.359375 -1.421875 13.671875 8.265625 
Q 6.984375 17.96875 6.984375 36.375 
Q 6.984375 53.65625 15.1875 63.9375 
Q 23.390625 74.21875 37.203125 74.21875 
Q 40.921875 74.21875 44.703125 73.484375 
Q 48.484375 72.75 52.59375 71.296875 
z
" id="DejaVuSans-54"/>
      </defs>
      <g transform="translate(292.170071 321.140875)scale(0.2 -0.2)">
       <use xlink:href="#DejaVuSans-54"/>
      </g>
     </g>
    </g>
    <g id="xtick_5">
     <g id="line2d_9">
      <path clip-path="url(#pad8ffee7de)" d="M 57.6 298.944 
L 57.6 27.648 
" style="fill:none;stroke:#b0b0b0;stroke-linecap:square;stroke-width:0.8;"/>
     </g>
     <g id="line2d_10">
      <defs>
       <path d="M 0 0 
L 0 2 
" id="m6cd5541b0c" style="stroke:#000000;stroke-width:0.6;"/>
      </defs>
      <g>
       <use style="stroke:#000000;stroke-width:0.6;" x="57.6" xlink:href="#m6cd5541b0c" y="298.944"/>
      </g>
     </g>
    </g>
    <g id="xtick_6">
     <g id="line2d_11">
      <path clip-path="url(#pad8ffee7de)" d="M 97.755429 298.944 
L 97.755429 27.648 
" style="fill:none;stroke:#b0b0b0;stroke-linecap:square;stroke-width:0.8;"/>
     </g>
     <g id="line2d_12">
      <g>
       <use style="stroke:#000000;stroke-width:0.6;" x="97.755429" xlink:href="#m6cd5541b0c" y="298.944"/>
      </g>
     </g>
    </g>
    <g id="xtick_7">
     <g id="line2d_13">
      <path clip-path="url(#pad8ffee7de)" d="M 137.910857 298.944 
L 137.910857 27.648 
" style="fill:none;stroke:#b0b0b0;stroke-linecap:square;stroke-width:0.8;"/>
     </g>
     <g id="line2d_14">
      <g>
       <use style="stroke:#000000;stroke-width:0.6;" x="137.910857" xlink:href="#m6cd5541b0c" y="298.944"/>
      </g>
     </g>
    </g>
    <g id="xtick_8">
     <g id="line2d_15">
      <path clip-path="url(#pad8ffee7de)" d="M 178.066286 298.944 
L 178.066286 27.648 
" style="fill:none;stroke:#b0b0b0;stroke-linecap:square;stroke-width:0.8;"/>
     </g>
     <g id="line2d_16">
      <g>
       <use style="stroke:#000000;stroke-width:0.6;" x="178.066286" xlink:href="#m6cd5541b0c" y="298.944"/>
      </g>
     </g>
    </g>
    <g id="xtick_9">
     <g id="line2d_17">
      <path clip-path="url(#pad8ffee7de)" d="M 218.221714 298.944 
L 218.221714 27.648 
" style="fill:none;stroke:#b0b0b0;stroke-linecap:square;stroke-width:0.8;"/>
     </g>
     <g id="line2d_18">
      <g>
       <use style="stroke:#000000;stroke-width:0.6;" x="218.221714" xlink:href="#m6cd5541b0c" y="298.944"/>
      </g>
     </g>
    </g>
    <g id="xtick_10">
     <g id="line2d_19">
      <path clip-path="url(#pad8ffee7de)" d="M 258.377143 298.944 
L 258.377143 27.648 
" style="fill:none;stroke:#b0b0b0;stroke-linecap:square;stroke-width:0.8;"/>
     </g>
     <g id="line2d_20">
      <g>
       <use style="stroke:#000000;stroke-width:0.6;" x="258.377143" xlink:href="#m6cd5541b0c" y="298.944"/>
      </g>
     </g>
    </g>
    <g id="xtick_11">
     <g id="line2d_21">
      <path clip-path="url(#pad8ffee7de)" d="M 298.532571 298.944 
L 298.532571 27.648 
" style="fill:none;stroke:#b0b0b0;stroke-linecap:square;stroke-width:0.8;"/>
     </g>
     <g id="line2d_22">
      <g>
       <use style="stroke:#000000;stroke-width:0.6;" x="298.532571" xlink:href="#m6cd5541b0c" y="298.944"/>
      </g>
     </g>
    </g>
    <g id="xtick_12">
     <g id="line2d_23">
      <path clip-path="url(#pad8ffee7de)" d="M 338.688 298.944 
L 338.688 27.648 
" style="fill:none;stroke:#b0b0b0;stroke-linecap:square;stroke-width:0.8;"/>
     </g>
     <g id="line2d_24">
      <g>
       <use style="stroke:#000000;stroke-width:0.6;" x="338.688" xlink:href="#m6cd5541b0c" y="298.944"/>
      </g>
     </g>
    </g>
    <g id="text_5">
     <!-- log10(# f-evals / dimension) -->
     <defs>
      <path d="M 9.421875 75.984375 
L 18.40625 75.984375 
L 18.40625 0 
L 9.421875 0 
z
" id="DejaVuSans-108"/>
      <path d="M 30.609375 48.390625 
Q 23.390625 48.390625 19.1875 42.75 
Q 14.984375 37.109375 14.984375 27.296875 
Q 14.984375 17.484375 19.15625 11.84375 
Q 23.34375 6.203125 30.609375 6.203125 
Q 37.796875 6.203125 41.984375 11.859375 
Q 46.1875 17.53125 46.1875 27.296875 
Q 46.1875 37.015625 41.984375 42.703125 
Q 37.796875 48.390625 30.609375 48.390625 
z
M 30.609375 56 
Q 42.328125 56 49.015625 48.375 
Q 55.71875 40.765625 55.71875 27.296875 
Q 55.71875 13.875 49.015625 6.21875 
Q 42.328125 -1.421875 30.609375 -1.421875 
Q 18.84375 -1.421875 12.171875 6.21875 
Q 5.515625 13.875 5.515625 27.296875 
Q 5.515625 40.765625 12.171875 48.375 
Q 18.84375 56 30.609375 56 
z
" id="DejaVuSans-111"/>
      <path d="M 45.40625 27.984375 
Q 45.40625 37.75 41.375 43.109375 
Q 37.359375 48.484375 30.078125 48.484375 
Q 22.859375 48.484375 18.828125 43.109375 
Q 14.796875 37.75 14.796875 27.984375 
Q 14.796875 18.265625 18.828125 12.890625 
Q 22.859375 7.515625 30.078125 7.515625 
Q 37.359375 7.515625 41.375 12.890625 
Q 45.40625 18.265625 45.40625 27.984375 
z
M 54.390625 6.78125 
Q 54.390625 -7.171875 48.1875 -13.984375 
Q 42 -20.796875 29.203125 -20.796875 
Q 24.46875 -20.796875 20.265625 -20.09375 
Q 16.0625 -19.390625 12.109375 -17.921875 
L 12.109375 -9.1875 
Q 16.0625 -11.328125 19.921875 -12.34375 
Q 23.78125 -13.375 27.78125 -13.375 
Q 36.625 -13.375 41.015625 -8.765625 
Q 45.40625 -4.15625 45.40625 5.171875 
L 45.40625 9.625 
Q 42.625 4.78125 38.28125 2.390625 
Q 33.9375 0 27.875 0 
Q 17.828125 0 11.671875 7.65625 
Q 5.515625 15.328125 5.515625 27.984375 
Q 5.515625 40.671875 11.671875 48.328125 
Q 17.828125 56 27.875 56 
Q 33.9375 56 38.28125 53.609375 
Q 42.625 51.21875 45.40625 46.390625 
L 45.40625 54.6875 
L 54.390625 54.6875 
z
" id="DejaVuSans-103"/>
      <path d="M 12.40625 8.296875 
L 28.515625 8.296875 
L 28.515625 63.921875 
L 10.984375 60.40625 
L 10.984375 69.390625 
L 28.421875 72.90625 
L 38.28125 72.90625 
L 38.28125 8.296875 
L 54.390625 8.296875 
L 54.390625 0 
L 12.40625 0 
z
" id="DejaVuSans-49"/>
      <path d="M 31 75.875 
Q 24.46875 64.65625 21.28125 53.65625 
Q 18.109375 42.671875 18.109375 31.390625 
Q 18.109375 20.125 21.3125 9.0625 
Q 24.515625 -2 31 -13.1875 
L 23.1875 -13.1875 
Q 15.875 -1.703125 12.234375 9.375 
Q 8.59375 20.453125 8.59375 31.390625 
Q 8.59375 42.28125 12.203125 53.3125 
Q 15.828125 64.359375 23.1875 75.875 
z
" id="DejaVuSans-40"/>
      <path d="M 51.125 44 
L 36.921875 44 
L 32.8125 27.6875 
L 47.125 27.6875 
z
M 43.796875 71.78125 
L 38.71875 51.515625 
L 52.984375 51.515625 
L 58.109375 71.78125 
L 65.921875 71.78125 
L 60.890625 51.515625 
L 76.125 51.515625 
L 76.125 44 
L 58.984375 44 
L 54.984375 27.6875 
L 70.515625 27.6875 
L 70.515625 20.21875 
L 53.078125 20.21875 
L 48 0 
L 40.1875 0 
L 45.21875 20.21875 
L 30.90625 20.21875 
L 25.875 0 
L 18.015625 0 
L 23.09375 20.21875 
L 7.71875 20.21875 
L 7.71875 27.6875 
L 24.90625 27.6875 
L 29 44 
L 13.28125 44 
L 13.28125 51.515625 
L 30.90625 51.515625 
L 35.890625 71.78125 
z
" id="DejaVuSans-35"/>
      <path id="DejaVuSans-32"/>
      <path d="M 37.109375 75.984375 
L 37.109375 68.5 
L 28.515625 68.5 
Q 23.6875 68.5 21.796875 66.546875 
Q 19.921875 64.59375 19.921875 59.515625 
L 19.921875 54.6875 
L 34.71875 54.6875 
L 34.71875 47.703125 
L 19.921875 47.703125 
L 19.921875 0 
L 10.890625 0 
L 10.890625 47.703125 
L 2.296875 47.703125 
L 2.296875 54.6875 
L 10.890625 54.6875 
L 10.890625 58.5 
Q 10.890625 67.625 15.140625 71.796875 
Q 19.390625 75.984375 28.609375 75.984375 
z
" id="DejaVuSans-102"/>
      <path d="M 4.890625 31.390625 
L 31.203125 31.390625 
L 31.203125 23.390625 
L 4.890625 23.390625 
z
" id="DejaVuSans-45"/>
      <path d="M 56.203125 29.59375 
L 56.203125 25.203125 
L 14.890625 25.203125 
Q 15.484375 15.921875 20.484375 11.0625 
Q 25.484375 6.203125 34.421875 6.203125 
Q 39.59375 6.203125 44.453125 7.46875 
Q 49.3125 8.734375 54.109375 11.28125 
L 54.109375 2.78125 
Q 49.265625 0.734375 44.1875 -0.34375 
Q 39.109375 -1.421875 33.890625 -1.421875 
Q 20.796875 -1.421875 13.15625 6.1875 
Q 5.515625 13.8125 5.515625 26.8125 
Q 5.515625 40.234375 12.765625 48.109375 
Q 20.015625 56 32.328125 56 
Q 43.359375 56 49.78125 48.890625 
Q 56.203125 41.796875 56.203125 29.59375 
z
M 47.21875 32.234375 
Q 47.125 39.59375 43.09375 43.984375 
Q 39.0625 48.390625 32.421875 48.390625 
Q 24.90625 48.390625 20.390625 44.140625 
Q 15.875 39.890625 15.1875 32.171875 
z
" id="DejaVuSans-101"/>
      <path d="M 2.984375 54.6875 
L 12.5 54.6875 
L 29.59375 8.796875 
L 46.6875 54.6875 
L 56.203125 54.6875 
L 35.6875 0 
L 23.484375 0 
z
" id="DejaVuSans-118"/>
      <path d="M 34.28125 27.484375 
Q 23.390625 27.484375 19.1875 25 
Q 14.984375 22.515625 14.984375 16.5 
Q 14.984375 11.71875 18.140625 8.90625 
Q 21.296875 6.109375 26.703125 6.109375 
Q 34.1875 6.109375 38.703125 11.40625 
Q 43.21875 16.703125 43.21875 25.484375 
L 43.21875 27.484375 
z
M 52.203125 31.203125 
L 52.203125 0 
L 43.21875 0 
L 43.21875 8.296875 
Q 40.140625 3.328125 35.546875 0.953125 
Q 30.953125 -1.421875 24.3125 -1.421875 
Q 15.921875 -1.421875 10.953125 3.296875 
Q 6 8.015625 6 15.921875 
Q 6 25.140625 12.171875 29.828125 
Q 18.359375 34.515625 30.609375 34.515625 
L 43.21875 34.515625 
L 43.21875 35.40625 
Q 43.21875 41.609375 39.140625 45 
Q 35.0625 48.390625 27.6875 48.390625 
Q 23 48.390625 18.546875 47.265625 
Q 14.109375 46.140625 10.015625 43.890625 
L 10.015625 52.203125 
Q 14.9375 54.109375 19.578125 55.046875 
Q 24.21875 56 28.609375 56 
Q 40.484375 56 46.34375 49.84375 
Q 52.203125 43.703125 52.203125 31.203125 
z
" id="DejaVuSans-97"/>
      <path d="M 44.28125 53.078125 
L 44.28125 44.578125 
Q 40.484375 46.53125 36.375 47.5 
Q 32.28125 48.484375 27.875 48.484375 
Q 21.1875 48.484375 17.84375 46.4375 
Q 14.5 44.390625 14.5 40.28125 
Q 14.5 37.15625 16.890625 35.375 
Q 19.28125 33.59375 26.515625 31.984375 
L 29.59375 31.296875 
Q 39.15625 29.25 43.1875 25.515625 
Q 47.21875 21.78125 47.21875 15.09375 
Q 47.21875 7.46875 41.1875 3.015625 
Q 35.15625 -1.421875 24.609375 -1.421875 
Q 20.21875 -1.421875 15.453125 -0.5625 
Q 10.6875 0.296875 5.421875 2 
L 5.421875 11.28125 
Q 10.40625 8.6875 15.234375 7.390625 
Q 20.0625 6.109375 24.8125 6.109375 
Q 31.15625 6.109375 34.5625 8.28125 
Q 37.984375 10.453125 37.984375 14.40625 
Q 37.984375 18.0625 35.515625 20.015625 
Q 33.0625 21.96875 24.703125 23.78125 
L 21.578125 24.515625 
Q 13.234375 26.265625 9.515625 29.90625 
Q 5.8125 33.546875 5.8125 39.890625 
Q 5.8125 47.609375 11.28125 51.796875 
Q 16.75 56 26.8125 56 
Q 31.78125 56 36.171875 55.265625 
Q 40.578125 54.546875 44.28125 53.078125 
z
" id="DejaVuSans-115"/>
      <path d="M 25.390625 72.90625 
L 33.6875 72.90625 
L 8.296875 -9.28125 
L 0 -9.28125 
z
" id="DejaVuSans-47"/>
      <path d="M 45.40625 46.390625 
L 45.40625 75.984375 
L 54.390625 75.984375 
L 54.390625 0 
L 45.40625 0 
L 45.40625 8.203125 
Q 42.578125 3.328125 38.25 0.953125 
Q 33.9375 -1.421875 27.875 -1.421875 
Q 17.96875 -1.421875 11.734375 6.484375 
Q 5.515625 14.40625 5.515625 27.296875 
Q 5.515625 40.1875 11.734375 48.09375 
Q 17.96875 56 27.875 56 
Q 33.9375 56 38.25 53.625 
Q 42.578125 51.265625 45.40625 46.390625 
z
M 14.796875 27.296875 
Q 14.796875 17.390625 18.875 11.75 
Q 22.953125 6.109375 30.078125 6.109375 
Q 37.203125 6.109375 41.296875 11.75 
Q 45.40625 17.390625 45.40625 27.296875 
Q 45.40625 37.203125 41.296875 42.84375 
Q 37.203125 48.484375 30.078125 48.484375 
Q 22.953125 48.484375 18.875 42.84375 
Q 14.796875 37.203125 14.796875 27.296875 
z
" id="DejaVuSans-100"/>
      <path d="M 9.421875 54.6875 
L 18.40625 54.6875 
L 18.40625 0 
L 9.421875 0 
z
M 9.421875 75.984375 
L 18.40625 75.984375 
L 18.40625 64.59375 
L 9.421875 64.59375 
z
" id="DejaVuSans-105"/>
      <path d="M 52 44.1875 
Q 55.375 50.25 60.0625 53.125 
Q 64.75 56 71.09375 56 
Q 79.640625 56 84.28125 50.015625 
Q 88.921875 44.046875 88.921875 33.015625 
L 88.921875 0 
L 79.890625 0 
L 79.890625 32.71875 
Q 79.890625 40.578125 77.09375 44.375 
Q 74.3125 48.1875 68.609375 48.1875 
Q 61.625 48.1875 57.5625 43.546875 
Q 53.515625 38.921875 53.515625 30.90625 
L 53.515625 0 
L 44.484375 0 
L 44.484375 32.71875 
Q 44.484375 40.625 41.703125 44.40625 
Q 38.921875 48.1875 33.109375 48.1875 
Q 26.21875 48.1875 22.15625 43.53125 
Q 18.109375 38.875 18.109375 30.90625 
L 18.109375 0 
L 9.078125 0 
L 9.078125 54.6875 
L 18.109375 54.6875 
L 18.109375 46.1875 
Q 21.1875 51.21875 25.484375 53.609375 
Q 29.78125 56 35.6875 56 
Q 41.65625 56 45.828125 52.96875 
Q 50 49.953125 52 44.1875 
z
" id="DejaVuSans-109"/>
      <path d="M 54.890625 33.015625 
L 54.890625 0 
L 45.90625 0 
L 45.90625 32.71875 
Q 45.90625 40.484375 42.875 44.328125 
Q 39.84375 48.1875 33.796875 48.1875 
Q 26.515625 48.1875 22.3125 43.546875 
Q 18.109375 38.921875 18.109375 30.90625 
L 18.109375 0 
L 9.078125 0 
L 9.078125 54.6875 
L 18.109375 54.6875 
L 18.109375 46.1875 
Q 21.34375 51.125 25.703125 53.5625 
Q 30.078125 56 35.796875 56 
Q 45.21875 56 50.046875 50.171875 
Q 54.890625 44.34375 54.890625 33.015625 
z
" id="DejaVuSans-110"/>
      <path d="M 8.015625 75.875 
L 15.828125 75.875 
Q 23.140625 64.359375 26.78125 53.3125 
Q 30.421875 42.28125 30.421875 31.390625 
Q 30.421875 20.453125 26.78125 9.375 
Q 23.140625 -1.703125 15.828125 -13.1875 
L 8.015625 -13.1875 
Q 14.5 -2 17.703125 9.0625 
Q 20.90625 20.125 20.90625 31.390625 
Q 20.90625 42.671875 17.703125 53.65625 
Q 14.5 64.65625 8.015625 75.875 
z
" id="DejaVuSans-41"/>
     </defs>
     <g transform="translate(77.303219 342.217594)scale(0.17 -0.17)">
      <use xlink:href="#DejaVuSans-108"/>
      <use x="27.783203" xlink:href="#DejaVuSans-111"/>
      <use x="88.964844" xlink:href="#DejaVuSans-103"/>
      <use x="152.441406" xlink:href="#DejaVuSans-49"/>
      <use x="216.064453" xlink:href="#DejaVuSans-48"/>
      <use x="279.6875" xlink:href="#DejaVuSans-40"/>
      <use x="318.701172" xlink:href="#DejaVuSans-35"/>
      <use x="402.490234" xlink:href="#DejaVuSans-32"/>
      <use x="434.277344" xlink:href="#DejaVuSans-102"/>
      <use x="469.404297" xlink:href="#DejaVuSans-45"/>
      <use x="505.488281" xlink:href="#DejaVuSans-101"/>
      <use x="567.011719" xlink:href="#DejaVuSans-118"/>
      <use x="626.191406" xlink:href="#DejaVuSans-97"/>
      <use x="687.470703" xlink:href="#DejaVuSans-108"/>
      <use x="715.253906" xlink:href="#DejaVuSans-115"/>
      <use x="767.353516" xlink:href="#DejaVuSans-32"/>
      <use x="799.140625" xlink:href="#DejaVuSans-47"/>
      <use x="832.832031" xlink:href="#DejaVuSans-32"/>
      <use x="864.619141" xlink:href="#DejaVuSans-100"/>
      <use x="928.095703" xlink:href="#DejaVuSans-105"/>
      <use x="955.878906" xlink:href="#DejaVuSans-109"/>
      <use x="1053.291016" xlink:href="#DejaVuSans-101"/>
      <use x="1114.814453" xlink:href="#DejaVuSans-110"/>
      <use x="1178.193359" xlink:href="#DejaVuSans-115"/>
      <use x="1230.292969" xlink:href="#DejaVuSans-105"/>
      <use x="1258.076172" xlink:href="#DejaVuSans-111"/>
      <use x="1319.257812" xlink:href="#DejaVuSans-110"/>
      <use x="1382.636719" xlink:href="#DejaVuSans-41"/>
     </g>
    </g>
   </g>
   <g id="matplotlib.axis_2">
    <g id="ytick_1">
     <g id="line2d_25">
      <path clip-path="url(#pad8ffee7de)" d="M 57.6 298.944 
L 338.688 298.944 
" style="fill:none;stroke:#b0b0b0;stroke-linecap:square;stroke-width:0.8;"/>
     </g>
     <g id="line2d_26">
      <defs>
       <path d="M 0 0 
L -3.5 0 
" id="m83917a6449" style="stroke:#000000;stroke-width:0.8;"/>
      </defs>
      <g>
       <use style="stroke:#000000;stroke-width:0.8;" x="57.6" xlink:href="#m83917a6449" y="298.944"/>
      </g>
     </g>
     <g id="text_6">
      <!-- 0.0 -->
      <defs>
       <path d="M 10.6875 12.40625 
L 21 12.40625 
L 21 0 
L 10.6875 0 
z
" id="DejaVuSans-46"/>
      </defs>
      <g transform="translate(25.155 305.02275)scale(0.16 -0.16)">
       <use xlink:href="#DejaVuSans-48"/>
       <use x="63.623047" xlink:href="#DejaVuSans-46"/>
       <use x="95.410156" xlink:href="#DejaVuSans-48"/>
      </g>
     </g>
    </g>
    <g id="ytick_2">
     <g id="line2d_27">
      <path clip-path="url(#pad8ffee7de)" d="M 57.6 245.22202 
L 338.688 245.22202 
" style="fill:none;stroke:#b0b0b0;stroke-linecap:square;stroke-width:0.8;"/>
     </g>
     <g id="line2d_28">
      <g>
       <use style="stroke:#000000;stroke-width:0.8;" x="57.6" xlink:href="#m83917a6449" y="245.22202"/>
      </g>
     </g>
     <g id="text_7">
      <!-- 0.2 -->
      <g transform="translate(25.155 251.30077)scale(0.16 -0.16)">
       <use xlink:href="#DejaVuSans-48"/>
       <use x="63.623047" xlink:href="#DejaVuSans-46"/>
       <use x="95.410156" xlink:href="#DejaVuSans-50"/>
      </g>
     </g>
    </g>
    <g id="ytick_3">
     <g id="line2d_29">
      <path clip-path="url(#pad8ffee7de)" d="M 57.6 191.50004 
L 338.688 191.50004 
" style="fill:none;stroke:#b0b0b0;stroke-linecap:square;stroke-width:0.8;"/>
     </g>
     <g id="line2d_30">
      <g>
       <use style="stroke:#000000;stroke-width:0.8;" x="57.6" xlink:href="#m83917a6449" y="191.50004"/>
      </g>
     </g>
     <g id="text_8">
      <!-- 0.4 -->
      <g transform="translate(25.155 197.57879)scale(0.16 -0.16)">
       <use xlink:href="#DejaVuSans-48"/>
       <use x="63.623047" xlink:href="#DejaVuSans-46"/>
       <use x="95.410156" xlink:href="#DejaVuSans-52"/>
      </g>
     </g>
    </g>
    <g id="ytick_4">
     <g id="line2d_31">
      <path clip-path="url(#pad8ffee7de)" d="M 57.6 137.778059 
L 338.688 137.778059 
" style="fill:none;stroke:#b0b0b0;stroke-linecap:square;stroke-width:0.8;"/>
     </g>
     <g id="line2d_32">
      <g>
       <use style="stroke:#000000;stroke-width:0.8;" x="57.6" xlink:href="#m83917a6449" y="137.778059"/>
      </g>
     </g>
     <g id="text_9">
      <!-- 0.6 -->
      <g transform="translate(25.155 143.856809)scale(0.16 -0.16)">
       <use xlink:href="#DejaVuSans-48"/>
       <use x="63.623047" xlink:href="#DejaVuSans-46"/>
       <use x="95.410156" xlink:href="#DejaVuSans-54"/>
      </g>
     </g>
    </g>
    <g id="ytick_5">
     <g id="line2d_33">
      <path clip-path="url(#pad8ffee7de)" d="M 57.6 84.056079 
L 338.688 84.056079 
" style="fill:none;stroke:#b0b0b0;stroke-linecap:square;stroke-width:0.8;"/>
     </g>
     <g id="line2d_34">
      <g>
       <use style="stroke:#000000;stroke-width:0.8;" x="57.6" xlink:href="#m83917a6449" y="84.056079"/>
      </g>
     </g>
     <g id="text_10">
      <!-- 0.8 -->
      <defs>
       <path d="M 31.78125 34.625 
Q 24.75 34.625 20.71875 30.859375 
Q 16.703125 27.09375 16.703125 20.515625 
Q 16.703125 13.921875 20.71875 10.15625 
Q 24.75 6.390625 31.78125 6.390625 
Q 38.8125 6.390625 42.859375 10.171875 
Q 46.921875 13.96875 46.921875 20.515625 
Q 46.921875 27.09375 42.890625 30.859375 
Q 38.875 34.625 31.78125 34.625 
z
M 21.921875 38.8125 
Q 15.578125 40.375 12.03125 44.71875 
Q 8.5 49.078125 8.5 55.328125 
Q 8.5 64.0625 14.71875 69.140625 
Q 20.953125 74.21875 31.78125 74.21875 
Q 42.671875 74.21875 48.875 69.140625 
Q 55.078125 64.0625 55.078125 55.328125 
Q 55.078125 49.078125 51.53125 44.71875 
Q 48 40.375 41.703125 38.8125 
Q 48.828125 37.15625 52.796875 32.3125 
Q 56.78125 27.484375 56.78125 20.515625 
Q 56.78125 9.90625 50.3125 4.234375 
Q 43.84375 -1.421875 31.78125 -1.421875 
Q 19.734375 -1.421875 13.25 4.234375 
Q 6.78125 9.90625 6.78125 20.515625 
Q 6.78125 27.484375 10.78125 32.3125 
Q 14.796875 37.15625 21.921875 38.8125 
z
M 18.3125 54.390625 
Q 18.3125 48.734375 21.84375 45.5625 
Q 25.390625 42.390625 31.78125 42.390625 
Q 38.140625 42.390625 41.71875 45.5625 
Q 45.3125 48.734375 45.3125 54.390625 
Q 45.3125 60.0625 41.71875 63.234375 
Q 38.140625 66.40625 31.78125 66.40625 
Q 25.390625 66.40625 21.84375 63.234375 
Q 18.3125 60.0625 18.3125 54.390625 
z
" id="DejaVuSans-56"/>
      </defs>
      <g transform="translate(25.155 90.134829)scale(0.16 -0.16)">
       <use xlink:href="#DejaVuSans-48"/>
       <use x="63.623047" xlink:href="#DejaVuSans-46"/>
       <use x="95.410156" xlink:href="#DejaVuSans-56"/>
      </g>
     </g>
    </g>
    <g id="ytick_6">
     <g id="line2d_35">
      <path clip-path="url(#pad8ffee7de)" d="M 57.6 30.334099 
L 338.688 30.334099 
" style="fill:none;stroke:#b0b0b0;stroke-linecap:square;stroke-width:0.8;"/>
     </g>
     <g id="line2d_36">
      <g>
       <use style="stroke:#000000;stroke-width:0.8;" x="57.6" xlink:href="#m83917a6449" y="30.334099"/>
      </g>
     </g>
     <g id="text_11">
      <!-- 1.0 -->
      <g transform="translate(25.155 36.412849)scale(0.16 -0.16)">
       <use xlink:href="#DejaVuSans-49"/>
       <use x="63.623047" xlink:href="#DejaVuSans-46"/>
       <use x="95.410156" xlink:href="#DejaVuSans-48"/>
      </g>
     </g>
    </g>
    <g id="text_12">
     <!-- Fraction of function,target pairs -->
     <defs>
      <path d="M 9.8125 72.90625 
L 51.703125 72.90625 
L 51.703125 64.59375 
L 19.671875 64.59375 
L 19.671875 43.109375 
L 48.578125 43.109375 
L 48.578125 34.8125 
L 19.671875 34.8125 
L 19.671875 0 
L 9.8125 0 
z
" id="DejaVuSans-70"/>
      <path d="M 41.109375 46.296875 
Q 39.59375 47.171875 37.8125 47.578125 
Q 36.03125 48 33.890625 48 
Q 26.265625 48 22.1875 43.046875 
Q 18.109375 38.09375 18.109375 28.8125 
L 18.109375 0 
L 9.078125 0 
L 9.078125 54.6875 
L 18.109375 54.6875 
L 18.109375 46.1875 
Q 20.953125 51.171875 25.484375 53.578125 
Q 30.03125 56 36.53125 56 
Q 37.453125 56 38.578125 55.875 
Q 39.703125 55.765625 41.0625 55.515625 
z
" id="DejaVuSans-114"/>
      <path d="M 48.78125 52.59375 
L 48.78125 44.1875 
Q 44.96875 46.296875 41.140625 47.34375 
Q 37.3125 48.390625 33.40625 48.390625 
Q 24.65625 48.390625 19.8125 42.84375 
Q 14.984375 37.3125 14.984375 27.296875 
Q 14.984375 17.28125 19.8125 11.734375 
Q 24.65625 6.203125 33.40625 6.203125 
Q 37.3125 6.203125 41.140625 7.25 
Q 44.96875 8.296875 48.78125 10.40625 
L 48.78125 2.09375 
Q 45.015625 0.34375 40.984375 -0.53125 
Q 36.96875 -1.421875 32.421875 -1.421875 
Q 20.0625 -1.421875 12.78125 6.34375 
Q 5.515625 14.109375 5.515625 27.296875 
Q 5.515625 40.671875 12.859375 48.328125 
Q 20.21875 56 33.015625 56 
Q 37.15625 56 41.109375 55.140625 
Q 45.0625 54.296875 48.78125 52.59375 
z
" id="DejaVuSans-99"/>
      <path d="M 18.3125 70.21875 
L 18.3125 54.6875 
L 36.8125 54.6875 
L 36.8125 47.703125 
L 18.3125 47.703125 
L 18.3125 18.015625 
Q 18.3125 11.328125 20.140625 9.421875 
Q 21.96875 7.515625 27.59375 7.515625 
L 36.8125 7.515625 
L 36.8125 0 
L 27.59375 0 
Q 17.1875 0 13.234375 3.875 
Q 9.28125 7.765625 9.28125 18.015625 
L 9.28125 47.703125 
L 2.6875 47.703125 
L 2.6875 54.6875 
L 9.28125 54.6875 
L 9.28125 70.21875 
z
" id="DejaVuSans-116"/>
      <path d="M 8.5 21.578125 
L 8.5 54.6875 
L 17.484375 54.6875 
L 17.484375 21.921875 
Q 17.484375 14.15625 20.5 10.265625 
Q 23.53125 6.390625 29.59375 6.390625 
Q 36.859375 6.390625 41.078125 11.03125 
Q 45.3125 15.671875 45.3125 23.6875 
L 45.3125 54.6875 
L 54.296875 54.6875 
L 54.296875 0 
L 45.3125 0 
L 45.3125 8.40625 
Q 42.046875 3.421875 37.71875 1 
Q 33.40625 -1.421875 27.6875 -1.421875 
Q 18.265625 -1.421875 13.375 4.4375 
Q 8.5 10.296875 8.5 21.578125 
z
M 31.109375 56 
z
" id="DejaVuSans-117"/>
      <path d="M 11.71875 12.40625 
L 22.015625 12.40625 
L 22.015625 4 
L 14.015625 -11.625 
L 7.71875 -11.625 
L 11.71875 4 
z
" id="DejaVuSans-44"/>
      <path d="M 18.109375 8.203125 
L 18.109375 -20.796875 
L 9.078125 -20.796875 
L 9.078125 54.6875 
L 18.109375 54.6875 
L 18.109375 46.390625 
Q 20.953125 51.265625 25.265625 53.625 
Q 29.59375 56 35.59375 56 
Q 45.5625 56 51.78125 48.09375 
Q 58.015625 40.1875 58.015625 27.296875 
Q 58.015625 14.40625 51.78125 6.484375 
Q 45.5625 -1.421875 35.59375 -1.421875 
Q 29.59375 -1.421875 25.265625 0.953125 
Q 20.953125 3.328125 18.109375 8.203125 
z
M 48.6875 27.296875 
Q 48.6875 37.203125 44.609375 42.84375 
Q 40.53125 48.484375 33.40625 48.484375 
Q 26.265625 48.484375 22.1875 42.84375 
Q 18.109375 37.203125 18.109375 27.296875 
Q 18.109375 17.390625 22.1875 11.75 
Q 26.265625 6.109375 33.40625 6.109375 
Q 40.53125 6.109375 44.609375 11.75 
Q 48.6875 17.390625 48.6875 27.296875 
z
" id="DejaVuSans-112"/>
     </defs>
     <g transform="translate(17.619531 298.435375)rotate(-90)scale(0.17 -0.17)">
      <use xlink:href="#DejaVuSans-70"/>
      <use x="57.410156" xlink:href="#DejaVuSans-114"/>
      <use x="98.523438" xlink:href="#DejaVuSans-97"/>
      <use x="159.802734" xlink:href="#DejaVuSans-99"/>
      <use x="214.783203" xlink:href="#DejaVuSans-116"/>
      <use x="253.992188" xlink:href="#DejaVuSans-105"/>
      <use x="281.775391" xlink:href="#DejaVuSans-111"/>
      <use x="342.957031" xlink:href="#DejaVuSans-110"/>
      <use x="406.335938" xlink:href="#DejaVuSans-32"/>
      <use x="438.123047" xlink:href="#DejaVuSans-111"/>
      <use x="499.304688" xlink:href="#DejaVuSans-102"/>
      <use x="534.509766" xlink:href="#DejaVuSans-32"/>
      <use x="566.296875" xlink:href="#DejaVuSans-102"/>
      <use x="601.501953" xlink:href="#DejaVuSans-117"/>
      <use x="664.880859" xlink:href="#DejaVuSans-110"/>
      <use x="728.259766" xlink:href="#DejaVuSans-99"/>
      <use x="783.240234" xlink:href="#DejaVuSans-116"/>
      <use x="822.449219" xlink:href="#DejaVuSans-105"/>
      <use x="850.232422" xlink:href="#DejaVuSans-111"/>
      <use x="911.414062" xlink:href="#DejaVuSans-110"/>
      <use x="974.792969" xlink:href="#DejaVuSans-44"/>
      <use x="1006.580078" xlink:href="#DejaVuSans-116"/>
      <use x="1045.789062" xlink:href="#DejaVuSans-97"/>
      <use x="1107.068359" xlink:href="#DejaVuSans-114"/>
      <use x="1148.166016" xlink:href="#DejaVuSans-103"/>
      <use x="1211.642578" xlink:href="#DejaVuSans-101"/>
      <use x="1273.166016" xlink:href="#DejaVuSans-116"/>
      <use x="1312.375" xlink:href="#DejaVuSans-32"/>
      <use x="1344.162109" xlink:href="#DejaVuSans-112"/>
      <use x="1407.638672" xlink:href="#DejaVuSans-97"/>
      <use x="1468.917969" xlink:href="#DejaVuSans-105"/>
      <use x="1496.701172" xlink:href="#DejaVuSans-114"/>
      <use x="1537.814453" xlink:href="#DejaVuSans-115"/>
     </g>
    </g>
   </g>
   <g id="line2d_37">
    <defs>
     <path d="M 0 1.5 
C 0.397805 1.5 0.77937 1.341951 1.06066 1.06066 
C 1.341951 0.77937 1.5 0.397805 1.5 0 
C 1.5 -0.397805 1.341951 -0.77937 1.06066 -1.06066 
C 0.77937 -1.341951 0.397805 -1.5 0 -1.5 
C -0.397805 -1.5 -0.77937 -1.341951 -1.06066 -1.06066 
C -1.341951 -0.77937 -1.5 -0.397805 -1.5 0 
C -1.5 0.397805 -1.341951 0.77937 -1.06066 1.06066 
C -0.77937 1.341951 -0.397805 1.5 0 1.5 
z
" id="m1703469150" style="stroke:#000080;"/>
    </defs>
    <g>
     <use style="fill:#000080;stroke:#000080;" x="324.07632" xlink:href="#m1703469150" y="193.606784"/>
     <use style="fill:#000080;stroke:#000080;" x="324.07632" xlink:href="#m1703469150" y="193.606784"/>
    </g>
   </g>
   <g id="line2d_38">
    <path d="M 5.356583 298.944 
L 5.356583 275.769812 
L 17.444571 275.769812 
L 17.444571 272.609696 
L 24.515591 272.609696 
L 24.515591 272.08301 
L 29.53256 272.08301 
L 29.53256 269.976266 
L 39.291857 269.976266 
L 39.291857 268.922893 
L 41.620548 268.922893 
L 41.620548 267.342835 
L 43.6746 267.342835 
L 43.6746 266.289463 
L 45.512012 266.289463 
L 45.512012 265.762777 
L 48.691568 265.762777 
L 48.691568 265.236091 
L 50.087456 265.236091 
L 50.087456 264.709405 
L 51.379845 264.709405 
L 51.379845 264.182719 
L 55.762588 264.182719 
L 55.762588 263.656033 
L 64.67102 263.656033 
L 64.67102 263.129347 
L 71.74204 263.129347 
L 71.74204 262.60266 
L 73.579452 262.60266 
L 73.579452 262.075974 
L 103.372333 262.075974 
L 103.372333 261.549288 
L 113.346933 261.549288 
L 113.346933 261.022602 
L 119.726838 261.022602 
L 119.726838 260.495916 
L 126.185301 260.495916 
L 126.185301 259.96923 
L 132.30267 259.96923 
L 132.30267 259.442544 
L 135.411927 259.442544 
L 135.411927 258.915858 
L 136.541835 258.915858 
L 136.541835 258.389172 
L 138.349983 258.389172 
L 138.349983 257.862486 
L 139.910568 257.862486 
L 139.910568 257.3358 
L 144.13014 257.3358 
L 144.13014 256.809114 
L 145.016721 256.809114 
L 145.016721 256.282427 
L 152.333531 256.282427 
L 152.333531 255.755741 
L 158.787407 255.755741 
L 158.787407 255.229055 
L 159.07735 255.229055 
L 159.07735 254.702369 
L 160.300213 254.702369 
L 160.300213 254.175683 
L 161.374928 254.175683 
L 161.374928 253.648997 
L 161.517401 253.648997 
L 161.517401 253.122311 
L 161.716709 253.122311 
L 161.716709 252.595625 
L 161.992845 252.595625 
L 161.992845 252.068939 
L 162.210648 252.068939 
L 162.210648 251.542253 
L 162.699403 251.542253 
L 162.699403 251.015567 
L 163.045324 251.015567 
L 163.045324 250.488881 
L 163.92054 250.488881 
L 163.92054 249.962195 
L 165.508131 249.962195 
L 165.508131 249.435508 
L 166.2534 249.435508 
L 166.2534 248.908822 
L 167.853163 248.908822 
L 167.853163 248.382136 
L 168.018392 248.382136 
L 168.018392 247.85545 
L 168.749091 247.85545 
L 168.749091 247.328764 
L 168.892808 247.328764 
L 168.892808 246.802078 
L 169.104 246.802078 
L 169.104 246.275392 
L 169.26651 246.275392 
L 169.26651 245.748706 
L 169.739527 245.748706 
L 169.739527 245.22202 
L 170.276546 245.22202 
L 170.276546 244.695334 
L 174.872423 244.695334 
L 174.872423 244.168648 
L 175.719647 244.168648 
L 175.719647 243.641962 
L 177.205695 243.641962 
L 177.205695 243.115275 
L 177.36346 243.115275 
L 177.36346 242.588589 
L 178.438964 242.588589 
L 178.438964 242.061903 
L 179.178434 242.061903 
L 179.178434 241.535217 
L 180.986697 241.535217 
L 180.986697 241.008531 
L 181.421527 241.008531 
L 181.473244 239.955159 
L 181.881547 239.955159 
L 181.881547 239.428473 
L 182.184376 239.428473 
L 182.184376 238.901787 
L 182.565771 238.901787 
L 182.566445 237.848415 
L 182.690625 237.848415 
L 182.690625 237.321729 
L 183.128538 237.321729 
L 183.206636 235.74167 
L 183.465745 235.74167 
L 183.465745 235.214984 
L 185.273381 235.214984 
L 185.273381 234.688298 
L 188.147952 234.688298 
L 188.147952 234.161612 
L 189.255166 234.161612 
L 189.255166 233.634926 
L 190.074744 233.634926 
L 190.074744 233.10824 
L 191.936884 233.10824 
L 191.936884 232.581554 
L 193.285807 232.581554 
L 193.285807 232.054868 
L 194.914863 232.054868 
L 194.914863 231.528182 
L 195.079336 231.528182 
L 195.079336 231.001496 
L 199.575481 231.001496 
L 199.575481 230.47481 
L 200.978088 230.47481 
L 200.978088 229.948123 
L 201.164823 229.948123 
L 201.230785 228.894751 
L 201.644202 228.894751 
L 201.644202 228.368065 
L 201.921722 228.368065 
L 201.921722 227.841379 
L 209.369724 227.841379 
L 209.369724 227.314693 
L 209.548572 227.314693 
L 209.548572 226.788007 
L 210.086467 226.788007 
L 210.086467 226.261321 
L 228.82846 226.261321 
L 228.82846 225.734635 
L 235.014255 225.734635 
L 235.014255 225.207949 
L 244.141388 225.207949 
L 244.141388 224.681263 
L 244.394117 224.681263 
L 244.394117 224.154577 
L 244.514566 224.154577 
L 244.514566 223.627891 
L 244.734893 223.627891 
L 244.734893 223.101204 
L 245.121987 223.101204 
L 245.121987 222.574518 
L 245.311021 222.574518 
L 245.311021 222.047832 
L 245.551142 222.047832 
L 245.551142 221.521146 
L 254.481439 221.521146 
L 254.481439 220.99446 
L 278.457704 220.99446 
L 278.567117 218.36103 
L 278.70214 218.36103 
L 278.70214 217.834344 
L 279.119073 217.834344 
L 279.119073 217.307658 
L 279.588619 217.307658 
L 279.588619 216.780971 
L 279.785528 216.780971 
L 279.850516 213.620855 
L 279.970506 213.620855 
L 279.970506 213.094169 
L 280.16937 213.094169 
L 280.172002 212.040797 
L 280.446335 212.040797 
L 280.453657 210.987425 
L 280.915659 210.987425 
L 280.915659 210.460738 
L 281.158245 210.460738 
L 281.158431 209.407366 
L 281.274239 209.407366 
L 281.274239 208.88068 
L 281.970148 208.88068 
L 281.970148 208.353994 
L 290.605108 208.353994 
L 290.605108 207.827308 
L 291.091183 207.827308 
L 291.101188 206.773936 
L 291.420118 206.773936 
L 291.438219 205.720564 
L 291.594565 205.720564 
L 291.594565 205.193878 
L 292.272148 205.193878 
L 292.272148 204.667192 
L 292.923414 204.667192 
L 292.923414 204.140506 
L 298.355736 204.140506 
L 298.355736 203.613819 
L 298.9632 203.613819 
L 298.9632 203.087133 
L 299.08632 203.087133 
L 299.08632 202.560447 
L 303.264805 202.560447 
L 303.264805 202.033761 
L 303.415146 202.033761 
L 303.415146 201.507075 
L 304.494794 201.507075 
L 304.494794 200.980389 
L 307.566472 200.980389 
L 307.659186 199.927017 
L 307.763707 199.927017 
L 307.763707 199.400331 
L 310.723911 199.400331 
L 310.723911 198.873645 
L 310.846926 198.873645 
L 310.846926 198.346959 
L 311.012667 198.346959 
L 311.012667 197.820273 
L 313.4032 197.820273 
L 313.4032 197.293586 
L 313.825618 197.293586 
L 313.825618 196.7669 
L 316.160306 196.7669 
L 316.160306 196.240214 
L 317.957119 196.240214 
L 317.957119 195.713528 
L 319.883754 195.713528 
L 319.883754 195.186842 
L 320.118143 195.186842 
L 320.118143 194.660156 
L 321.383661 194.660156 
L 321.383661 194.13347 
L 324.07632 194.13347 
L 324.07632 193.606784 
L 338.688 193.606784 
L 338.688 193.606784 
" style="fill:none;stroke:#000080;stroke-linecap:square;stroke-width:1.5;"/>
   </g>
   <g id="line2d_39">
    <defs>
     <path d="M 0 6 
C 1.591219 6 3.117479 5.367802 4.242641 4.242641 
C 5.367802 3.117479 6 1.591219 6 0 
C 6 -1.591219 5.367802 -3.117479 4.242641 -4.242641 
C 3.117479 -5.367802 1.591219 -6 0 -6 
C -1.591219 -6 -3.117479 -5.367802 -4.242641 -4.242641 
C -5.367802 -3.117479 -6 -1.591219 -6 0 
C -6 1.591219 -5.367802 3.117479 -4.242641 4.242641 
C -3.117479 5.367802 -1.591219 6 0 6 
z
" id="m9e68d64e9a" style="stroke:#000080;stroke-width:1.5;"/>
    </defs>
    <g>
     <use style="fill-opacity:0;stroke:#000080;stroke-width:1.5;" x="64.67102" xlink:href="#m9e68d64e9a" y="263.656033"/>
     <use style="fill-opacity:0;stroke:#000080;stroke-width:1.5;" x="152.333531" xlink:href="#m9e68d64e9a" y="255.755741"/>
     <use style="fill-opacity:0;stroke:#000080;stroke-width:1.5;" x="210.086467" xlink:href="#m9e68d64e9a" y="226.261321"/>
     <use style="fill-opacity:0;stroke:#000080;stroke-width:1.5;" x="307.763707" xlink:href="#m9e68d64e9a" y="199.927017"/>
     <use style="fill-opacity:0;stroke:#000080;stroke-width:1.5;" x="324.07632" xlink:href="#m9e68d64e9a" y="193.606784"/>
     <use style="fill-opacity:0;stroke:#000080;stroke-width:1.5;" x="338.688" xlink:href="#m9e68d64e9a" y="193.606784"/>
    </g>
   </g>
   <g id="line2d_40">
    <path style="fill:none;stroke:#000080;stroke-linecap:square;stroke-width:1.5;"/>
    <g/>
   </g>
   <g id="line2d_41">
    <path clip-path="url(#pad8ffee7de)" d="M 279.663492 216.780971 
" style="fill:none;stroke:#000080;stroke-linecap:square;stroke-width:1.5;"/>
    <defs>
     <path d="M -12 12 
L 12 -12 
M -12 -12 
L 12 12 
" id="m584d7fa032" style="stroke:#000080;"/>
    </defs>
    <g clip-path="url(#pad8ffee7de)">
     <use style="fill:#000080;stroke:#000080;" x="279.663492" xlink:href="#m584d7fa032" y="216.780971"/>
    </g>
   </g>
   <g id="line2d_42">
    <defs>
     <path d="M 0 1.5 
C 0.397805 1.5 0.77937 1.341951 1.06066 1.06066 
C 1.341951 0.77937 1.5 0.397805 1.5 0 
C 1.5 -0.397805 1.341951 -0.77937 1.06066 -1.06066 
C 0.77937 -1.341951 0.397805 -1.5 0 -1.5 
C -0.397805 -1.5 -0.77937 -1.341951 -1.06066 -1.06066 
C -1.341951 -0.77937 -1.5 -0.397805 -1.5 0 
C -1.5 0.397805 -1.341951 0.77937 -1.06066 1.06066 
C -0.77937 1.341951 -0.397805 1.5 0 1.5 
z
" id="m4e97397d86" style="stroke:#ff0000;"/>
    </defs>
    <g>
     <use style="fill:#ff0000;stroke:#ff0000;" x="337.925315" xlink:href="#m4e97397d86" y="209.407366"/>
     <use style="fill:#ff0000;stroke:#ff0000;" x="337.925315" xlink:href="#m4e97397d86" y="209.407366"/>
    </g>
   </g>
   <g id="line2d_43">
    <path d="M 5.356583 298.944 
L 5.356583 273.663068 
L 17.444571 273.663068 
L 17.444571 272.08301 
L 24.515591 272.08301 
L 24.515591 270.502952 
L 39.291857 270.502952 
L 39.291857 269.449579 
L 52.583031 269.449579 
L 52.583031 268.922893 
L 54.765787 268.922893 
L 54.765787 268.396207 
L 77.884514 268.396207 
L 77.884514 267.869521 
L 81.334453 267.869521 
L 81.334453 267.342835 
L 82.417986 267.342835 
L 82.417986 266.816149 
L 89.835723 266.816149 
L 89.835723 266.289463 
L 91.284345 266.289463 
L 91.284345 265.762777 
L 93.197415 265.762777 
L 93.197415 265.236091 
L 94.921215 265.236091 
L 95.023499 264.182719 
L 95.624913 264.182719 
L 95.624913 263.129347 
L 97.928955 263.129347 
L 97.928955 262.60266 
L 101.854917 262.60266 
L 101.854917 262.075974 
L 106.006367 262.075974 
L 106.006367 261.549288 
L 111.023335 261.549288 
L 111.023335 261.022602 
L 118.602981 261.022602 
L 118.602981 260.495916 
L 128.768338 260.495916 
L 128.768338 259.96923 
L 130.358022 259.96923 
L 130.358022 259.442544 
L 131.004728 259.442544 
L 131.004728 258.915858 
L 133.57787 258.915858 
L 133.644815 257.862486 
L 136.044356 257.862486 
L 136.044356 257.3358 
L 137.424559 257.3358 
L 137.424559 256.809114 
L 140.393639 256.809114 
L 140.393639 256.282427 
L 142.732726 256.282427 
L 142.798734 254.702369 
L 143.584537 254.702369 
L 143.584537 254.175683 
L 144.384644 254.175683 
L 144.384644 253.648997 
L 145.497361 253.648997 
L 145.497361 253.122311 
L 145.788396 253.122311 
L 145.788396 252.595625 
L 145.910079 252.595625 
L 146.019967 251.542253 
L 146.291697 251.542253 
L 146.291697 251.015567 
L 146.447382 251.015567 
L 146.447382 250.488881 
L 146.885432 250.488881 
L 146.885432 249.962195 
L 147.272014 249.962195 
L 147.272014 249.435508 
L 147.404054 249.435508 
L 147.449528 248.382136 
L 147.600257 248.382136 
L 147.670154 247.328764 
L 147.774477 247.328764 
L 147.774477 246.802078 
L 147.942069 246.802078 
L 148.020382 245.22202 
L 148.349344 245.22202 
L 148.449693 243.641962 
L 148.558941 243.641962 
L 148.558941 243.115275 
L 148.705114 243.115275 
L 148.76605 242.061903 
L 148.854728 242.061903 
L 148.854728 241.535217 
L 149.25512 241.535217 
L 149.305096 239.955159 
L 149.42716 239.955159 
L 149.42716 239.428473 
L 149.677639 239.428473 
L 149.677639 238.901787 
L 149.87195 238.901787 
L 149.955193 237.321729 
L 150.395406 237.321729 
L 150.395406 236.795043 
L 150.56927 236.795043 
L 150.56927 236.268356 
L 150.907745 236.268356 
L 150.907745 235.74167 
L 151.280332 235.74167 
L 151.292481 234.688298 
L 151.589498 234.688298 
L 151.684751 233.10824 
L 151.912822 233.10824 
L 151.959639 232.054868 
L 152.329717 232.054868 
L 152.329717 231.528182 
L 152.575905 231.528182 
L 152.60972 230.47481 
L 153.25815 230.47481 
L 153.25815 229.948123 
L 153.537988 229.948123 
L 153.537988 229.421437 
L 153.84141 229.421437 
L 153.848404 228.368065 
L 154.029268 228.368065 
L 154.04656 227.314693 
L 154.817408 227.314693 
L 154.817408 226.261321 
L 155.546107 226.261321 
L 155.546107 225.734635 
L 155.879132 225.734635 
L 155.879132 225.207949 
L 156.773805 225.207949 
L 156.773805 224.681263 
L 157.621996 224.681263 
L 157.621996 224.154577 
L 159.066985 224.154577 
L 159.066985 223.627891 
L 168.354881 223.627891 
L 168.354881 223.101204 
L 181.178864 223.101204 
L 181.178864 222.574518 
L 181.547676 222.574518 
L 181.547676 222.047832 
L 182.37884 222.047832 
L 182.37884 221.521146 
L 183.972692 221.521146 
L 183.972692 220.99446 
L 184.525629 220.99446 
L 184.525629 220.467774 
L 189.580336 220.467774 
L 189.580336 219.941088 
L 278.757825 219.941088 
L 278.757825 219.414402 
L 278.909643 219.414402 
L 278.963642 217.307658 
L 279.077379 217.307658 
L 279.077379 216.780971 
L 279.284935 216.780971 
L 279.284935 216.254285 
L 280.06155 216.254285 
L 280.06155 215.727599 
L 290.843419 215.727599 
L 290.843419 215.200913 
L 291.13126 215.200913 
L 291.13126 214.674227 
L 291.303649 214.674227 
L 291.303649 214.147541 
L 293.294032 214.147541 
L 293.294032 213.620855 
L 307.982489 213.620855 
L 307.982489 213.094169 
L 316.058859 213.094169 
L 316.058859 212.567483 
L 317.398951 212.567483 
L 317.398951 212.040797 
L 323.16821 212.040797 
L 323.16821 211.514111 
L 325.396187 211.514111 
L 325.396187 210.987425 
L 330.71905 210.987425 
L 330.71905 210.460738 
L 335.547074 210.460738 
L 335.547074 209.934052 
L 337.925315 209.934052 
L 337.925315 209.407366 
L 338.688 209.407366 
L 338.688 209.407366 
" style="fill:none;stroke:#ff0000;stroke-linecap:square;stroke-width:1.5;"/>
   </g>
   <g id="line2d_44">
    <defs>
     <path d="M 0 -6 
L -5.196152 -3 
L -5.196152 3 
L -0 6 
L 5.196152 3 
L 5.196152 -3 
z
" id="m4a98adac9e" style="stroke:#ff0000;stroke-linejoin:miter;stroke-width:1.5;"/>
    </defs>
    <g>
     <use style="fill-opacity:0;stroke:#ff0000;stroke-linejoin:miter;stroke-width:1.5;" x="111.023335" xlink:href="#m4a98adac9e" y="261.022602"/>
     <use style="fill-opacity:0;stroke:#ff0000;stroke-linejoin:miter;stroke-width:1.5;" x="156.773805" xlink:href="#m4a98adac9e" y="225.207949"/>
     <use style="fill-opacity:0;stroke:#ff0000;stroke-linejoin:miter;stroke-width:1.5;" x="189.580336" xlink:href="#m4a98adac9e" y="219.941088"/>
     <use style="fill-opacity:0;stroke:#ff0000;stroke-linejoin:miter;stroke-width:1.5;" x="337.925315" xlink:href="#m4a98adac9e" y="209.407366"/>
     <use style="fill-opacity:0;stroke:#ff0000;stroke-linejoin:miter;stroke-width:1.5;" x="337.925315" xlink:href="#m4a98adac9e" y="209.407366"/>
     <use style="fill-opacity:0;stroke:#ff0000;stroke-linejoin:miter;stroke-width:1.5;" x="338.688" xlink:href="#m4a98adac9e" y="209.407366"/>
    </g>
   </g>
   <g id="line2d_45">
    <path style="fill:none;stroke:#ff0000;stroke-linecap:square;stroke-width:1.5;"/>
    <g/>
   </g>
   <g id="line2d_46">
    <path clip-path="url(#pad8ffee7de)" d="M 279.200831 216.780971 
" style="fill:none;stroke:#ff0000;stroke-linecap:square;stroke-width:1.5;"/>
    <defs>
     <path d="M -12 12 
L 12 -12 
M -12 -12 
L 12 12 
" id="m34496700ce" style="stroke:#ff0000;"/>
    </defs>
    <g clip-path="url(#pad8ffee7de)">
     <use style="fill:#ff0000;stroke:#ff0000;" x="279.200831" xlink:href="#m34496700ce" y="216.780971"/>
    </g>
   </g>
   <g id="line2d_47">
    <defs>
     <path d="M 0 1.5 
C 0.397805 1.5 0.77937 1.341951 1.06066 1.06066 
C 1.341951 0.77937 1.5 0.397805 1.5 0 
C 1.5 -0.397805 1.341951 -0.77937 1.06066 -1.06066 
C 0.77937 -1.341951 0.397805 -1.5 0 -1.5 
C -0.397805 -1.5 -0.77937 -1.341951 -1.06066 -1.06066 
C -1.341951 -0.77937 -1.5 -0.397805 -1.5 0 
C -1.5 0.397805 -1.341951 0.77937 -1.06066 1.06066 
C -0.77937 1.341951 -0.397805 1.5 0 1.5 
z
" id="md4ae314ffb" style="stroke:#bebebe;"/>
    </defs>
    <g>
     <use style="fill:#bebebe;stroke:#bebebe;" x="359.475162" xlink:href="#md4ae314ffb" y="30.334099"/>
     <use style="fill:#bebebe;stroke:#bebebe;" x="359.475162" xlink:href="#md4ae314ffb" y="30.334099"/>
    </g>
   </g>
   <g id="line2d_48">
    <path d="M 5.356583 298.944 
L 5.356583 275.769812 
L 64.67102 275.769812 
L 64.67102 271.556324 
L 65.796525 271.556324 
L 65.796525 268.396207 
L 66.853775 268.396207 
L 66.853775 267.342835 
L 78.154896 267.342835 
L 78.154896 266.816149 
L 84.401859 266.816149 
L 84.401859 266.289463 
L 85.136253 266.289463 
L 85.136253 265.762777 
L 96.768882 265.762777 
L 96.768882 265.236091 
L 96.952455 265.236091 
L 96.952455 264.709405 
L 99.80948 264.709405 
L 99.80948 264.182719 
L 105.787689 264.182719 
L 105.897371 263.129347 
L 107.464828 263.129347 
L 107.464828 262.60266 
L 107.614095 262.60266 
L 107.614095 262.075974 
L 108.994731 262.075974 
L 108.994731 261.549288 
L 109.176867 261.549288 
L 109.176867 261.022602 
L 112.766778 261.022602 
L 112.766778 260.495916 
L 113.022974 260.495916 
L 113.022974 259.442544 
L 117.030313 259.442544 
L 117.030313 258.915858 
L 123.354102 258.915858 
L 123.354102 258.389172 
L 124.158984 258.389172 
L 124.158984 257.862486 
L 124.799375 257.862486 
L 124.799375 257.3358 
L 126.690335 257.3358 
L 126.690335 256.809114 
L 127.830353 256.809114 
L 127.830353 256.282427 
L 128.486215 256.282427 
L 128.486215 255.755741 
L 129.588315 255.755741 
L 129.588315 255.229055 
L 129.79784 255.229055 
L 129.79784 254.702369 
L 129.922357 254.702369 
L 129.922357 254.175683 
L 130.384893 254.175683 
L 130.384893 253.648997 
L 131.26195 253.648997 
L 131.26195 253.122311 
L 132.588957 253.122311 
L 132.588957 252.595625 
L 132.975083 252.595625 
L 132.975083 252.068939 
L 133.766885 252.068939 
L 133.766885 251.542253 
L 140.730677 251.542253 
L 140.730677 251.015567 
L 141.364373 251.015567 
L 141.364373 250.488881 
L 146.286304 250.488881 
L 146.286304 249.962195 
L 150.615623 249.962195 
L 150.615623 249.435508 
L 155.047394 249.435508 
L 155.047394 248.908822 
L 161.100288 248.908822 
L 161.100288 248.382136 
L 165.456098 248.382136 
L 165.456098 247.85545 
L 168.040098 247.85545 
L 168.040098 247.328764 
L 168.638649 247.328764 
L 168.638649 246.802078 
L 170.046049 246.802078 
L 170.046049 246.275392 
L 170.536293 246.275392 
L 170.536293 245.748706 
L 171.050982 245.748706 
L 171.050982 245.22202 
L 171.734913 245.22202 
L 171.734913 244.695334 
L 173.08184 244.695334 
L 173.08184 244.168648 
L 175.219758 244.168648 
L 175.219758 243.641962 
L 175.431987 243.641962 
L 175.431987 243.115275 
L 176.07121 243.115275 
L 176.07121 242.588589 
L 179.488178 242.588589 
L 179.488178 242.061903 
L 180.193043 242.061903 
L 180.193043 241.535217 
L 190.490212 241.535217 
L 190.490212 241.008531 
L 193.481078 241.008531 
L 193.481078 240.481845 
L 193.77154 240.481845 
L 193.873989 239.428473 
L 194.072225 239.428473 
L 194.072225 238.901787 
L 201.496262 238.901787 
L 201.496262 238.375101 
L 206.818881 238.375101 
L 206.818881 237.848415 
L 207.058344 237.848415 
L 207.058344 237.321729 
L 207.251273 237.321729 
L 207.251273 236.795043 
L 207.408892 236.795043 
L 207.408892 236.268356 
L 207.696657 236.268356 
L 207.696657 235.74167 
L 207.949761 235.74167 
L 207.949761 235.214984 
L 208.098415 235.214984 
L 208.098415 234.688298 
L 208.244266 234.688298 
L 208.340264 233.634926 
L 208.661674 233.634926 
L 208.661674 233.10824 
L 209.39086 233.10824 
L 209.39086 232.581554 
L 209.647795 232.581554 
L 209.647795 232.054868 
L 209.937353 232.054868 
L 209.937353 231.528182 
L 210.257048 231.528182 
L 210.257048 231.001496 
L 210.45758 231.001496 
L 210.45758 230.47481 
L 215.523407 230.47481 
L 215.523407 229.948123 
L 219.498988 229.948123 
L 219.498988 229.421437 
L 219.69641 229.421437 
L 219.790623 227.841379 
L 220.239532 227.841379 
L 220.239532 227.314693 
L 220.362359 227.314693 
L 220.362359 226.788007 
L 220.525406 226.788007 
L 220.525406 226.261321 
L 220.784024 226.261321 
L 220.784024 225.734635 
L 220.913404 225.734635 
L 220.913404 225.207949 
L 221.645376 225.207949 
L 221.645376 224.681263 
L 222.086999 224.681263 
L 222.086999 224.154577 
L 222.658706 224.154577 
L 222.674519 223.101204 
L 222.826043 223.101204 
L 222.826043 222.574518 
L 223.030881 222.574518 
L 223.071535 221.521146 
L 223.175351 221.521146 
L 223.175351 220.99446 
L 223.345238 220.99446 
L 223.376279 219.941088 
L 223.631407 219.941088 
L 223.704912 218.887716 
L 223.78825 218.887716 
L 223.78825 218.36103 
L 223.997312 218.36103 
L 224.055883 217.307658 
L 224.315659 217.307658 
L 224.315659 216.780971 
L 224.471186 216.780971 
L 224.471186 216.254285 
L 248.136889 216.254285 
L 248.136889 215.727599 
L 274.705419 215.727599 
L 274.705419 215.200913 
L 278.615608 215.200913 
L 278.692755 214.147541 
L 278.778809 214.147541 
L 278.886312 212.040797 
L 278.941196 212.040797 
L 279.029861 210.987425 
L 279.119354 210.987425 
L 279.219455 207.300622 
L 279.251298 207.300622 
L 279.358961 203.613819 
L 279.363058 203.613819 
L 279.363498 202.560447 
L 279.518018 202.560447 
L 279.625217 200.980389 
L 279.702229 200.980389 
L 279.761836 198.346959 
L 279.880754 198.346959 
L 279.977416 195.186842 
L 280.184012 195.186842 
L 280.184012 194.660156 
L 280.549947 194.660156 
L 280.626479 192.553412 
L 280.769377 192.553412 
L 280.769377 192.026726 
L 281.084678 192.026726 
L 281.188968 188.866609 
L 282.052607 188.866609 
L 282.158741 187.813237 
L 282.190528 187.813237 
L 282.190528 187.286551 
L 290.782808 187.286551 
L 290.782808 186.759865 
L 290.967884 186.759865 
L 291.048988 185.179807 
L 291.115972 185.179807 
L 291.115972 184.653121 
L 291.232211 184.653121 
L 291.295689 183.599748 
L 291.388059 183.599748 
L 291.389499 182.546376 
L 291.662309 182.546376 
L 291.733108 181.493004 
L 291.84654 181.493004 
L 291.950691 180.439632 
L 292.104991 180.439632 
L 292.173787 177.806202 
L 292.234714 177.806202 
L 292.285542 176.226143 
L 292.365284 176.226143 
L 292.365284 175.699457 
L 292.491364 175.699457 
L 292.521284 174.119399 
L 292.674729 174.119399 
L 292.674729 173.592713 
L 292.962005 173.592713 
L 292.992864 172.539341 
L 293.418085 172.539341 
L 293.418085 172.012655 
L 297.83273 172.012655 
L 297.893793 170.959282 
L 298.074079 170.959282 
L 298.183858 167.799166 
L 298.198642 167.799166 
L 298.198642 167.27248 
L 298.438262 167.27248 
L 298.527866 166.219108 
L 298.58786 166.219108 
L 298.67582 164.112363 
L 298.733348 164.112363 
L 298.831358 162.532305 
L 298.90393 162.532305 
L 298.976008 161.478933 
L 299.022933 161.478933 
L 299.086268 159.898875 
L 299.21707 159.898875 
L 299.255453 157.79213 
L 299.511633 157.79213 
L 299.511827 156.738758 
L 299.68654 156.738758 
L 299.68654 156.212072 
L 303.177147 156.212072 
L 303.18651 155.1587 
L 303.313782 155.1587 
L 303.379612 154.105328 
L 303.539777 154.105328 
L 303.604216 152.52527 
L 303.692616 152.52527 
L 303.706604 151.471897 
L 303.853615 151.471897 
L 303.92584 149.891839 
L 304.120612 149.891839 
L 304.120612 149.365153 
L 304.539384 149.365153 
L 304.623588 148.311781 
L 306.984969 148.311781 
L 307.042119 146.205037 
L 307.239933 146.205037 
L 307.326997 144.098292 
L 307.383271 144.098292 
L 307.482309 142.518234 
L 307.700421 142.518234 
L 307.724232 141.464862 
L 307.941267 141.464862 
L 308.02021 140.41149 
L 308.146295 140.41149 
L 308.213675 138.304745 
L 310.31286 138.304745 
L 310.399508 137.251373 
L 310.450799 137.251373 
L 310.451088 136.198001 
L 310.631603 136.198001 
L 310.631603 135.671315 
L 310.947106 135.671315 
L 311.015676 134.617943 
L 311.261942 134.617943 
L 311.261942 134.091257 
L 311.463583 134.091257 
L 311.463583 133.564571 
L 313.04437 133.564571 
L 313.04437 133.037885 
L 313.237278 133.037885 
L 313.271192 131.457826 
L 313.464438 131.457826 
L 313.469881 130.404454 
L 313.603902 130.404454 
L 313.706884 129.351082 
L 313.835632 129.351082 
L 313.835632 128.824396 
L 314.484889 128.824396 
L 314.484889 128.29771 
L 315.356579 128.29771 
L 315.459793 127.244338 
L 315.498397 127.244338 
L 315.498397 126.717652 
L 315.682621 126.717652 
L 315.729948 125.137593 
L 315.847145 125.137593 
L 315.956122 123.557535 
L 316.032436 123.557535 
L 316.032436 123.030849 
L 316.802955 123.030849 
L 316.802955 122.504163 
L 317.448201 122.504163 
L 317.448201 121.977477 
L 317.601246 121.977477 
L 317.685488 120.397419 
L 317.727124 120.397419 
L 317.794388 119.344047 
L 317.855054 119.344047 
L 317.855054 118.817361 
L 317.976314 118.817361 
L 318.0053 117.763988 
L 318.122928 117.763988 
L 318.122928 117.237302 
L 318.388785 117.237302 
L 318.388785 116.710616 
L 319.209805 116.710616 
L 319.231366 115.657244 
L 319.462134 115.657244 
L 319.564428 114.077186 
L 319.638141 114.077186 
L 319.739911 113.023814 
L 320.057306 113.023814 
L 320.122391 111.970441 
L 320.172219 111.970441 
L 320.172219 111.443755 
L 320.844195 111.443755 
L 320.844195 110.917069 
L 320.975568 110.917069 
L 321.018935 109.863697 
L 321.173974 109.863697 
L 321.209279 108.283639 
L 321.309228 108.283639 
L 321.360938 107.230267 
L 321.508145 107.230267 
L 321.508145 106.703581 
L 321.623898 106.703581 
L 321.623898 106.176895 
L 322.172213 106.176895 
L 322.172213 105.650209 
L 322.577487 105.650209 
L 322.577487 105.123522 
L 322.755211 105.123522 
L 322.768021 104.07015 
L 322.871577 104.07015 
L 322.871577 103.543464 
L 323.159989 103.543464 
L 323.193167 102.490092 
L 323.814576 102.490092 
L 323.814576 101.963406 
L 324.279432 101.963406 
L 324.300464 100.910034 
L 324.453554 100.910034 
L 324.453554 100.383348 
L 325.363011 100.383348 
L 325.473177 97.223231 
L 325.587947 97.223231 
L 325.672196 95.116487 
L 325.817601 95.116487 
L 325.817601 94.589801 
L 325.955167 94.589801 
L 325.955167 94.063115 
L 326.293908 94.063115 
L 326.293908 93.536429 
L 326.566841 93.536429 
L 326.566841 93.009743 
L 326.723146 93.009743 
L 326.727986 91.429684 
L 326.891676 91.429684 
L 326.891676 90.902998 
L 327.63143 90.902998 
L 327.709992 88.796254 
L 327.781084 88.796254 
L 327.8795 84.582765 
L 327.965516 84.582765 
L 327.965516 84.056079 
L 328.182056 84.056079 
L 328.191767 83.002707 
L 328.50652 83.002707 
L 328.50652 82.476021 
L 328.662977 82.476021 
L 328.715033 80.895963 
L 328.798909 80.895963 
L 328.899924 79.315904 
L 329.530576 79.315904 
L 329.530576 78.789218 
L 330.058755 78.789218 
L 330.058755 78.262532 
L 330.25469 78.262532 
L 330.25469 77.735846 
L 330.558173 77.735846 
L 330.5846 76.682474 
L 330.682733 76.682474 
L 330.682733 76.155788 
L 330.941617 76.155788 
L 330.95949 75.102416 
L 331.459386 75.102416 
L 331.529143 74.049044 
L 331.590784 74.049044 
L 331.666213 71.942299 
L 331.917467 71.942299 
L 331.917467 71.415613 
L 332.057833 71.415613 
L 332.147122 70.362241 
L 332.225387 70.362241 
L 332.225387 69.835555 
L 332.652328 69.835555 
L 332.753511 68.782183 
L 332.774488 68.782183 
L 332.839739 67.202125 
L 333.061918 67.202125 
L 333.061918 66.675439 
L 333.208039 66.675439 
L 333.208039 66.148752 
L 333.483559 66.148752 
L 333.483559 65.622066 
L 334.101678 65.622066 
L 334.101678 65.09538 
L 334.653263 65.09538 
L 334.74931 63.515322 
L 334.821703 63.515322 
L 334.821703 62.988636 
L 335.081984 62.988636 
L 335.081984 62.46195 
L 335.50295 62.46195 
L 335.536868 61.408578 
L 335.650659 61.408578 
L 335.725011 60.355206 
L 335.788925 60.355206 
L 335.788925 59.82852 
L 336.051887 59.82852 
L 336.055776 58.775147 
L 336.333023 58.775147 
L 336.333023 58.248461 
L 336.90045 58.248461 
L 336.977794 57.195089 
L 337.096912 57.195089 
L 337.096912 56.668403 
L 337.212319 56.668403 
L 337.212319 56.141717 
L 337.614337 56.141717 
L 337.614337 55.615031 
L 338.190145 55.615031 
L 338.190145 55.088345 
L 338.460807 55.088345 
L 338.565855 53.508287 
L 338.588286 53.508287 
L 338.668383 52.454914 
L 338.688 52.454914 
" style="fill:none;stroke:#bebebe;stroke-linecap:square;stroke-width:1.5;"/>
   </g>
   <g id="line2d_49">
    <defs>
     <path d="M 0 0 
L -6 -0 
M 0 0 
L 3 4.8 
M 0 0 
L 3 -4.8 
" id="m51652326a7" style="stroke:#bebebe;stroke-width:1.5;"/>
    </defs>
    <g>
     <use style="fill-opacity:0;stroke:#bebebe;stroke-width:1.5;" x="84.401859" xlink:href="#m51652326a7" y="266.816149"/>
     <use style="fill-opacity:0;stroke:#bebebe;stroke-width:1.5;" x="180.193043" xlink:href="#m51652326a7" y="241.535217"/>
     <use style="fill-opacity:0;stroke:#bebebe;stroke-width:1.5;" x="282.190528" xlink:href="#m51652326a7" y="187.813237"/>
     <use style="fill-opacity:0;stroke:#bebebe;stroke-width:1.5;" x="328.899924" xlink:href="#m51652326a7" y="79.842591"/>
     <use style="fill-opacity:0;stroke:#bebebe;stroke-width:1.5;" x="338.668383" xlink:href="#m51652326a7" y="52.454914"/>
     <use style="fill-opacity:0;stroke:#bebebe;stroke-width:1.5;" x="338.688" xlink:href="#m51652326a7" y="52.454914"/>
    </g>
   </g>
   <g id="line2d_50">
    <path style="fill:none;stroke:#bebebe;stroke-linecap:square;stroke-width:1.5;"/>
    <g/>
   </g>
   <g id="line2d_51">
    <path clip-path="url(#pad8ffee7de)" d="M 279.05928 210.987425 
" style="fill:none;stroke:#bebebe;stroke-linecap:square;stroke-width:1.5;"/>
    <defs>
     <path d="M -12 12 
L 12 -12 
M -12 -12 
L 12 12 
" id="mae25a5af6e" style="stroke:#bebebe;"/>
    </defs>
    <g clip-path="url(#pad8ffee7de)">
     <use style="fill:#bebebe;stroke:#bebebe;" x="279.05928" xlink:href="#mae25a5af6e" y="210.987425"/>
    </g>
   </g>
   <g id="line2d_52">
    <defs>
     <path d="M 0 1.5 
C 0.397805 1.5 0.77937 1.341951 1.06066 1.06066 
C 1.341951 0.77937 1.5 0.397805 1.5 0 
C 1.5 -0.397805 1.341951 -0.77937 1.06066 -1.06066 
C 0.77937 -1.341951 0.397805 -1.5 0 -1.5 
C -0.397805 -1.5 -0.77937 -1.341951 -1.06066 -1.06066 
C -1.341951 -0.77937 -1.5 -0.397805 -1.5 0 
C -1.5 0.397805 -1.341951 0.77937 -1.06066 1.06066 
C -0.77937 1.341951 -0.397805 1.5 0 1.5 
z
" id="m7bc0f09abf" style="stroke:#6495ed;"/>
    </defs>
    <g>
     <use style="fill:#6495ed;stroke:#6495ed;" x="273.055585" xlink:href="#m7bc0f09abf" y="219.941088"/>
     <use style="fill:#6495ed;stroke:#6495ed;" x="273.055585" xlink:href="#m7bc0f09abf" y="219.941088"/>
    </g>
   </g>
   <g id="line2d_53">
    <path d="M 5.356583 298.944 
L 5.356583 274.189754 
L 64.67102 274.189754 
L 64.67102 272.08301 
L 65.242851 272.08301 
L 65.242851 271.556324 
L 65.796525 271.556324 
L 65.796525 269.449579 
L 66.853775 269.449579 
L 66.853775 268.396207 
L 77.047268 268.396207 
L 77.047268 267.869521 
L 77.330839 267.869521 
L 77.330839 267.342835 
L 77.609874 267.342835 
L 77.609874 266.816149 
L 84.772922 266.816149 
L 84.772922 266.289463 
L 85.136253 266.289463 
L 85.136253 265.762777 
L 99.80948 265.762777 
L 99.80948 265.236091 
L 105.787689 265.236091 
L 105.897371 264.182719 
L 107.564481 264.182719 
L 107.564481 263.656033 
L 114.0117 263.656033 
L 114.0117 263.129347 
L 116.172228 263.129347 
L 116.172228 262.60266 
L 119.40226 262.60266 
L 119.40226 262.075974 
L 120.921776 262.075974 
L 120.921776 261.549288 
L 121.355214 261.549288 
L 121.355214 261.022602 
L 122.276749 261.022602 
L 122.276749 260.495916 
L 123.434283 260.495916 
L 123.434283 259.96923 
L 123.751369 259.96923 
L 123.751369 259.442544 
L 124.292765 259.442544 
L 124.292765 258.915858 
L 124.613453 258.915858 
L 124.613453 258.389172 
L 125.074593 258.389172 
L 125.074593 257.862486 
L 125.594671 257.862486 
L 125.594671 257.3358 
L 126.937471 257.3358 
L 126.937471 256.809114 
L 127.325746 256.809114 
L 127.325746 256.282427 
L 128.031251 256.282427 
L 128.031251 255.755741 
L 128.45625 255.755741 
L 128.45625 255.229055 
L 129.161557 255.229055 
L 129.161557 254.702369 
L 130.598383 254.702369 
L 130.598383 254.175683 
L 130.991767 254.175683 
L 130.991767 253.648997 
L 131.185181 253.648997 
L 131.185181 253.122311 
L 131.578231 253.122311 
L 131.578231 252.595625 
L 131.974877 252.595625 
L 131.974877 252.068939 
L 132.70687 252.068939 
L 132.70687 251.542253 
L 133.510666 251.542253 
L 133.57787 250.488881 
L 134.236034 250.488881 
L 134.236034 249.962195 
L 135.290751 249.962195 
L 135.290751 249.435508 
L 136.198943 249.435508 
L 136.198943 248.908822 
L 136.673382 248.908822 
L 136.673382 248.382136 
L 138.877599 248.382136 
L 138.877599 247.85545 
L 140.393639 247.85545 
L 140.393639 247.328764 
L 142.371901 247.328764 
L 142.371901 246.802078 
L 142.785553 246.802078 
L 142.785553 246.275392 
L 144.324384 246.275392 
L 144.324384 245.748706 
L 146.622867 245.748706 
L 146.622867 245.22202 
L 158.689678 245.22202 
L 158.689678 244.695334 
L 159.512268 244.695334 
L 159.512268 244.168648 
L 164.524182 244.168648 
L 164.524182 243.641962 
L 164.91963 243.641962 
L 164.91963 243.115275 
L 168.376172 243.115275 
L 168.376172 242.588589 
L 170.420426 242.588589 
L 170.420426 242.061903 
L 179.775133 242.061903 
L 179.775133 241.535217 
L 195.709464 241.535217 
L 195.709464 241.008531 
L 195.968775 241.008531 
L 195.968775 240.481845 
L 196.378439 240.481845 
L 196.378439 239.955159 
L 199.087887 239.955159 
L 199.087887 239.428473 
L 199.242102 239.428473 
L 199.242102 238.901787 
L 199.427529 238.901787 
L 199.427529 238.375101 
L 200.138575 238.375101 
L 200.138575 237.848415 
L 200.37018 237.848415 
L 200.466023 236.795043 
L 200.542609 236.795043 
L 200.542609 236.268356 
L 202.796012 236.268356 
L 202.796012 235.74167 
L 205.459201 235.74167 
L 205.459201 235.214984 
L 210.548798 235.214984 
L 210.63375 233.634926 
L 210.94051 233.634926 
L 210.94051 233.10824 
L 211.194282 233.10824 
L 211.288615 232.054868 
L 215.42603 232.054868 
L 215.42603 231.528182 
L 215.597351 231.528182 
L 215.597351 231.001496 
L 217.151555 231.001496 
L 217.151555 230.47481 
L 217.649038 230.47481 
L 217.649038 229.948123 
L 223.581077 229.948123 
L 223.581077 229.421437 
L 229.24339 229.421437 
L 229.24339 228.894751 
L 235.358284 228.894751 
L 235.358284 228.368065 
L 237.327743 228.368065 
L 237.335817 227.314693 
L 237.591793 227.314693 
L 237.622377 226.261321 
L 237.764237 226.261321 
L 237.764237 225.734635 
L 239.782372 225.734635 
L 239.782372 225.207949 
L 245.307885 225.207949 
L 245.307885 224.681263 
L 246.417332 224.681263 
L 246.417332 224.154577 
L 246.64313 224.154577 
L 246.64313 223.627891 
L 252.570514 223.627891 
L 252.570514 223.101204 
L 253.36544 223.101204 
L 253.36544 222.574518 
L 256.292932 222.574518 
L 256.292932 222.047832 
L 259.794341 222.047832 
L 259.794341 221.521146 
L 259.966912 221.521146 
L 259.966912 220.99446 
L 260.301359 220.99446 
L 260.301359 220.467774 
L 273.055585 220.467774 
L 273.055585 219.941088 
L 338.688 219.941088 
L 338.688 219.941088 
" style="fill:none;stroke:#6495ed;stroke-linecap:square;stroke-width:1.5;"/>
   </g>
   <g id="line2d_54">
    <defs>
     <path d="M -0 6 
L 6 -6 
L -6 -6 
z
" id="me574add56f" style="stroke:#6495ed;stroke-linejoin:miter;stroke-width:1.5;"/>
    </defs>
    <g>
     <use style="fill-opacity:0;stroke:#6495ed;stroke-linejoin:miter;stroke-width:1.5;" x="131.185181" xlink:href="#me574add56f" y="253.648997"/>
     <use style="fill-opacity:0;stroke:#6495ed;stroke-linejoin:miter;stroke-width:1.5;" x="211.194282" xlink:href="#me574add56f" y="232.581554"/>
     <use style="fill-opacity:0;stroke:#6495ed;stroke-linejoin:miter;stroke-width:1.5;" x="260.301359" xlink:href="#me574add56f" y="220.467774"/>
     <use style="fill-opacity:0;stroke:#6495ed;stroke-linejoin:miter;stroke-width:1.5;" x="273.055585" xlink:href="#me574add56f" y="219.941088"/>
     <use style="fill-opacity:0;stroke:#6495ed;stroke-linejoin:miter;stroke-width:1.5;" x="338.688" xlink:href="#me574add56f" y="219.941088"/>
    </g>
   </g>
   <g id="line2d_55">
    <path style="fill:none;stroke:#6495ed;stroke-linecap:square;stroke-width:1.5;"/>
    <g/>
   </g>
   <g id="line2d_56">
    <path clip-path="url(#pad8ffee7de)" d="M 230.657568 228.894751 
" style="fill:none;stroke:#6495ed;stroke-linecap:square;stroke-width:1.5;"/>
    <defs>
     <path d="M -12 12 
L 12 -12 
M -12 -12 
L 12 12 
" id="m1caff246a7" style="stroke:#6495ed;"/>
    </defs>
    <g clip-path="url(#pad8ffee7de)">
     <use style="fill:#6495ed;stroke:#6495ed;" x="230.657568" xlink:href="#m1caff246a7" y="228.894751"/>
    </g>
   </g>
   <g id="line2d_57">
    <path d="M 338.688 219.941088 
L 369.60768 293.571802 
" style="fill:none;stroke:#6495ed;stroke-linecap:square;stroke-width:1.5;"/>
    <g>
     <use style="fill-opacity:0;stroke:#6495ed;stroke-linejoin:miter;stroke-width:1.5;" x="338.688" xlink:href="#me574add56f" y="219.941088"/>
     <use style="fill-opacity:0;stroke:#6495ed;stroke-linejoin:miter;stroke-width:1.5;" x="369.60768" xlink:href="#me574add56f" y="293.571802"/>
    </g>
   </g>
   <g id="line2d_58">
    <path d="M 338.688 209.407366 
L 369.60768 207.616634 
" style="fill:none;stroke:#ff0000;stroke-linecap:square;stroke-width:1.5;"/>
    <g>
     <use style="fill-opacity:0;stroke:#ff0000;stroke-linejoin:miter;stroke-width:1.5;" x="338.688" xlink:href="#m4a98adac9e" y="209.407366"/>
     <use style="fill-opacity:0;stroke:#ff0000;stroke-linejoin:miter;stroke-width:1.5;" x="369.60768" xlink:href="#m4a98adac9e" y="207.616634"/>
    </g>
   </g>
   <g id="line2d_59">
    <path d="M 338.688 193.606784 
L 369.60768 121.661465 
" style="fill:none;stroke:#000080;stroke-linecap:square;stroke-width:1.5;"/>
    <g>
     <use style="fill-opacity:0;stroke:#000080;stroke-width:1.5;" x="338.688" xlink:href="#m9e68d64e9a" y="193.606784"/>
     <use style="fill-opacity:0;stroke:#000080;stroke-width:1.5;" x="369.60768" xlink:href="#m9e68d64e9a" y="121.661465"/>
    </g>
   </g>
   <g id="line2d_60">
    <path d="M 338.688 52.454914 
L 369.60768 35.706297 
" style="fill:none;stroke:#bebebe;stroke-linecap:square;stroke-width:1.5;"/>
    <g>
     <use style="fill-opacity:0;stroke:#bebebe;stroke-width:1.5;" x="338.688" xlink:href="#m51652326a7" y="52.454914"/>
     <use style="fill-opacity:0;stroke:#bebebe;stroke-width:1.5;" x="369.60768" xlink:href="#m51652326a7" y="35.706297"/>
    </g>
   </g>
   <g id="line2d_61">
    <path d="M 338.688 298.944 
L 338.688 30.334099 
" style="fill:none;stroke:#000000;stroke-linecap:square;stroke-width:1.5;"/>
   </g>
   <g id="patch_3">
    <path d="M 57.6 298.944 
L 57.6 27.648 
" style="fill:none;stroke:#000000;stroke-linecap:square;stroke-linejoin:miter;stroke-width:0.8;"/>
   </g>
   <g id="patch_4">
    <path d="M 338.688 298.944 
L 338.688 27.648 
" style="fill:none;stroke:#000000;stroke-linecap:square;stroke-linejoin:miter;stroke-width:0.8;"/>
   </g>
   <g id="patch_5">
    <path d="M 57.6 298.944 
L 338.688 298.944 
" style="fill:none;stroke:#000000;stroke-linecap:square;stroke-linejoin:miter;stroke-width:0.8;"/>
   </g>
   <g id="patch_6">
    <path d="M 57.6 27.648 
L 338.688 27.648 
" style="fill:none;stroke:#000000;stroke-linecap:square;stroke-linejoin:miter;stroke-width:0.8;"/>
   </g>
   <g id="text_13">
    <!-- SLSQP-11  -->
    <defs>
     <path d="M 53.515625 70.515625 
L 53.515625 60.890625 
Q 47.90625 63.578125 42.921875 64.890625 
Q 37.9375 66.21875 33.296875 66.21875 
Q 25.25 66.21875 20.875 63.09375 
Q 16.5 59.96875 16.5 54.203125 
Q 16.5 49.359375 19.40625 46.890625 
Q 22.3125 44.4375 30.421875 42.921875 
L 36.375 41.703125 
Q 47.40625 39.59375 52.65625 34.296875 
Q 57.90625 29 57.90625 20.125 
Q 57.90625 9.515625 50.796875 4.046875 
Q 43.703125 -1.421875 29.984375 -1.421875 
Q 24.8125 -1.421875 18.96875 -0.25 
Q 13.140625 0.921875 6.890625 3.21875 
L 6.890625 13.375 
Q 12.890625 10.015625 18.65625 8.296875 
Q 24.421875 6.59375 29.984375 6.59375 
Q 38.421875 6.59375 43.015625 9.90625 
Q 47.609375 13.234375 47.609375 19.390625 
Q 47.609375 24.75 44.3125 27.78125 
Q 41.015625 30.8125 33.5 32.328125 
L 27.484375 33.5 
Q 16.453125 35.6875 11.515625 40.375 
Q 6.59375 45.0625 6.59375 53.421875 
Q 6.59375 63.09375 13.40625 68.65625 
Q 20.21875 74.21875 32.171875 74.21875 
Q 37.3125 74.21875 42.625 73.28125 
Q 47.953125 72.359375 53.515625 70.515625 
z
" id="DejaVuSans-83"/>
     <path d="M 9.8125 72.90625 
L 19.671875 72.90625 
L 19.671875 8.296875 
L 55.171875 8.296875 
L 55.171875 0 
L 9.8125 0 
z
" id="DejaVuSans-76"/>
     <path d="M 39.40625 66.21875 
Q 28.65625 66.21875 22.328125 58.203125 
Q 16.015625 50.203125 16.015625 36.375 
Q 16.015625 22.609375 22.328125 14.59375 
Q 28.65625 6.59375 39.40625 6.59375 
Q 50.140625 6.59375 56.421875 14.59375 
Q 62.703125 22.609375 62.703125 36.375 
Q 62.703125 50.203125 56.421875 58.203125 
Q 50.140625 66.21875 39.40625 66.21875 
z
M 53.21875 1.3125 
L 66.21875 -12.890625 
L 54.296875 -12.890625 
L 43.5 -1.21875 
Q 41.890625 -1.3125 41.03125 -1.359375 
Q 40.1875 -1.421875 39.40625 -1.421875 
Q 24.03125 -1.421875 14.8125 8.859375 
Q 5.609375 19.140625 5.609375 36.375 
Q 5.609375 53.65625 14.8125 63.9375 
Q 24.03125 74.21875 39.40625 74.21875 
Q 54.734375 74.21875 63.90625 63.9375 
Q 73.09375 53.65625 73.09375 36.375 
Q 73.09375 23.6875 67.984375 14.640625 
Q 62.890625 5.609375 53.21875 1.3125 
z
" id="DejaVuSans-81"/>
     <path d="M 19.671875 64.796875 
L 19.671875 37.40625 
L 32.078125 37.40625 
Q 38.96875 37.40625 42.71875 40.96875 
Q 46.484375 44.53125 46.484375 51.125 
Q 46.484375 57.671875 42.71875 61.234375 
Q 38.96875 64.796875 32.078125 64.796875 
z
M 9.8125 72.90625 
L 32.078125 72.90625 
Q 44.34375 72.90625 50.609375 67.359375 
Q 56.890625 61.8125 56.890625 51.125 
Q 56.890625 40.328125 50.609375 34.8125 
Q 44.34375 29.296875 32.078125 29.296875 
L 19.671875 29.296875 
L 19.671875 0 
L 9.8125 0 
z
" id="DejaVuSans-80"/>
    </defs>
    <g transform="translate(375.22944 298.262739)scale(0.17 -0.17)">
     <use xlink:href="#DejaVuSans-83"/>
     <use x="63.476562" xlink:href="#DejaVuSans-76"/>
     <use x="119.189453" xlink:href="#DejaVuSans-83"/>
     <use x="182.666016" xlink:href="#DejaVuSans-81"/>
     <use x="261.376953" xlink:href="#DejaVuSans-80"/>
     <use x="321.648438" xlink:href="#DejaVuSans-45"/>
     <use x="357.732422" xlink:href="#DejaVuSans-49"/>
     <use x="421.355469" xlink:href="#DejaVuSans-49"/>
     <use x="484.978516" xlink:href="#DejaVuSans-32"/>
    </g>
   </g>
   <g id="text_14">
    <!-- lq-CMA-ES -->
    <defs>
     <path d="M 14.796875 27.296875 
Q 14.796875 17.390625 18.875 11.75 
Q 22.953125 6.109375 30.078125 6.109375 
Q 37.203125 6.109375 41.296875 11.75 
Q 45.40625 17.390625 45.40625 27.296875 
Q 45.40625 37.203125 41.296875 42.84375 
Q 37.203125 48.484375 30.078125 48.484375 
Q 22.953125 48.484375 18.875 42.84375 
Q 14.796875 37.203125 14.796875 27.296875 
z
M 45.40625 8.203125 
Q 42.578125 3.328125 38.25 0.953125 
Q 33.9375 -1.421875 27.875 -1.421875 
Q 17.96875 -1.421875 11.734375 6.484375 
Q 5.515625 14.40625 5.515625 27.296875 
Q 5.515625 40.1875 11.734375 48.09375 
Q 17.96875 56 27.875 56 
Q 33.9375 56 38.25 53.625 
Q 42.578125 51.265625 45.40625 46.390625 
L 45.40625 54.6875 
L 54.390625 54.6875 
L 54.390625 -20.796875 
L 45.40625 -20.796875 
z
" id="DejaVuSans-113"/>
     <path d="M 64.40625 67.28125 
L 64.40625 56.890625 
Q 59.421875 61.53125 53.78125 63.8125 
Q 48.140625 66.109375 41.796875 66.109375 
Q 29.296875 66.109375 22.65625 58.46875 
Q 16.015625 50.828125 16.015625 36.375 
Q 16.015625 21.96875 22.65625 14.328125 
Q 29.296875 6.6875 41.796875 6.6875 
Q 48.140625 6.6875 53.78125 8.984375 
Q 59.421875 11.28125 64.40625 15.921875 
L 64.40625 5.609375 
Q 59.234375 2.09375 53.4375 0.328125 
Q 47.65625 -1.421875 41.21875 -1.421875 
Q 24.65625 -1.421875 15.125 8.703125 
Q 5.609375 18.84375 5.609375 36.375 
Q 5.609375 53.953125 15.125 64.078125 
Q 24.65625 74.21875 41.21875 74.21875 
Q 47.75 74.21875 53.53125 72.484375 
Q 59.328125 70.75 64.40625 67.28125 
z
" id="DejaVuSans-67"/>
     <path d="M 9.8125 72.90625 
L 24.515625 72.90625 
L 43.109375 23.296875 
L 61.8125 72.90625 
L 76.515625 72.90625 
L 76.515625 0 
L 66.890625 0 
L 66.890625 64.015625 
L 48.09375 14.015625 
L 38.1875 14.015625 
L 19.390625 64.015625 
L 19.390625 0 
L 9.8125 0 
z
" id="DejaVuSans-77"/>
     <path d="M 34.1875 63.1875 
L 20.796875 26.90625 
L 47.609375 26.90625 
z
M 28.609375 72.90625 
L 39.796875 72.90625 
L 67.578125 0 
L 57.328125 0 
L 50.6875 18.703125 
L 17.828125 18.703125 
L 11.1875 0 
L 0.78125 0 
z
" id="DejaVuSans-65"/>
     <path d="M 9.8125 72.90625 
L 55.90625 72.90625 
L 55.90625 64.59375 
L 19.671875 64.59375 
L 19.671875 43.015625 
L 54.390625 43.015625 
L 54.390625 34.71875 
L 19.671875 34.71875 
L 19.671875 8.296875 
L 56.78125 8.296875 
L 56.78125 0 
L 9.8125 0 
z
" id="DejaVuSans-69"/>
    </defs>
    <g transform="translate(375.22944 212.307571)scale(0.17 -0.17)">
     <use xlink:href="#DejaVuSans-108"/>
     <use x="27.783203" xlink:href="#DejaVuSans-113"/>
     <use x="91.259766" xlink:href="#DejaVuSans-45"/>
     <use x="127.34375" xlink:href="#DejaVuSans-67"/>
     <use x="197.167969" xlink:href="#DejaVuSans-77"/>
     <use x="283.447266" xlink:href="#DejaVuSans-65"/>
     <use x="351.824219" xlink:href="#DejaVuSans-45"/>
     <use x="387.908203" xlink:href="#DejaVuSans-69"/>
     <use x="451.091797" xlink:href="#DejaVuSans-83"/>
    </g>
   </g>
   <g id="text_15">
    <!-- CMA-ES  2 -->
    <g transform="translate(375.22944 126.352403)scale(0.17 -0.17)">
     <use xlink:href="#DejaVuSans-67"/>
     <use x="69.824219" xlink:href="#DejaVuSans-77"/>
     <use x="156.103516" xlink:href="#DejaVuSans-65"/>
     <use x="224.480469" xlink:href="#DejaVuSans-45"/>
     <use x="260.564453" xlink:href="#DejaVuSans-69"/>
     <use x="323.748047" xlink:href="#DejaVuSans-83"/>
     <use x="387.224609" xlink:href="#DejaVuSans-32"/>
     <use x="419.011719" xlink:href="#DejaVuSans-32"/>
     <use x="450.798828" xlink:href="#DejaVuSans-50"/>
    </g>
   </g>
   <g id="text_16">
    <!-- SLSQP+CMA -->
    <defs>
     <path d="M 46 62.703125 
L 46 35.5 
L 73.1875 35.5 
L 73.1875 27.203125 
L 46 27.203125 
L 46 0 
L 37.796875 0 
L 37.796875 27.203125 
L 10.59375 27.203125 
L 10.59375 35.5 
L 37.796875 35.5 
L 37.796875 62.703125 
z
" id="DejaVuSans-43"/>
    </defs>
    <g transform="translate(375.22944 40.397235)scale(0.17 -0.17)">
     <use xlink:href="#DejaVuSans-83"/>
     <use x="63.476562" xlink:href="#DejaVuSans-76"/>
     <use x="119.189453" xlink:href="#DejaVuSans-83"/>
     <use x="182.666016" xlink:href="#DejaVuSans-81"/>
     <use x="261.376953" xlink:href="#DejaVuSans-80"/>
     <use x="321.679688" xlink:href="#DejaVuSans-43"/>
     <use x="405.46875" xlink:href="#DejaVuSans-67"/>
     <use x="475.292969" xlink:href="#DejaVuSans-77"/>
     <use x="561.572266" xlink:href="#DejaVuSans-65"/>
    </g>
   </g>
   <g id="text_17">
    <!-- bbob f23, 20-D -->
    <defs>
     <path d="M 48.6875 27.296875 
Q 48.6875 37.203125 44.609375 42.84375 
Q 40.53125 48.484375 33.40625 48.484375 
Q 26.265625 48.484375 22.1875 42.84375 
Q 18.109375 37.203125 18.109375 27.296875 
Q 18.109375 17.390625 22.1875 11.75 
Q 26.265625 6.109375 33.40625 6.109375 
Q 40.53125 6.109375 44.609375 11.75 
Q 48.6875 17.390625 48.6875 27.296875 
z
M 18.109375 46.390625 
Q 20.953125 51.265625 25.265625 53.625 
Q 29.59375 56 35.59375 56 
Q 45.5625 56 51.78125 48.09375 
Q 58.015625 40.1875 58.015625 27.296875 
Q 58.015625 14.40625 51.78125 6.484375 
Q 45.5625 -1.421875 35.59375 -1.421875 
Q 29.59375 -1.421875 25.265625 0.953125 
Q 20.953125 3.328125 18.109375 8.203125 
L 18.109375 0 
L 9.078125 0 
L 9.078125 75.984375 
L 18.109375 75.984375 
z
" id="DejaVuSans-98"/>
     <path d="M 40.578125 39.3125 
Q 47.65625 37.796875 51.625 33 
Q 55.609375 28.21875 55.609375 21.1875 
Q 55.609375 10.40625 48.1875 4.484375 
Q 40.765625 -1.421875 27.09375 -1.421875 
Q 22.515625 -1.421875 17.65625 -0.515625 
Q 12.796875 0.390625 7.625 2.203125 
L 7.625 11.71875 
Q 11.71875 9.328125 16.59375 8.109375 
Q 21.484375 6.890625 26.8125 6.890625 
Q 36.078125 6.890625 40.9375 10.546875 
Q 45.796875 14.203125 45.796875 21.1875 
Q 45.796875 27.640625 41.28125 31.265625 
Q 36.765625 34.90625 28.71875 34.90625 
L 20.21875 34.90625 
L 20.21875 43.015625 
L 29.109375 43.015625 
Q 36.375 43.015625 40.234375 45.921875 
Q 44.09375 48.828125 44.09375 54.296875 
Q 44.09375 59.90625 40.109375 62.90625 
Q 36.140625 65.921875 28.71875 65.921875 
Q 24.65625 65.921875 20.015625 65.03125 
Q 15.375 64.15625 9.8125 62.3125 
L 9.8125 71.09375 
Q 15.4375 72.65625 20.34375 73.4375 
Q 25.25 74.21875 29.59375 74.21875 
Q 40.828125 74.21875 47.359375 69.109375 
Q 53.90625 64.015625 53.90625 55.328125 
Q 53.90625 49.265625 50.4375 45.09375 
Q 46.96875 40.921875 40.578125 39.3125 
z
" id="DejaVuSans-51"/>
     <path d="M 19.671875 64.796875 
L 19.671875 8.109375 
L 31.59375 8.109375 
Q 46.6875 8.109375 53.6875 14.9375 
Q 60.6875 21.78125 60.6875 36.53125 
Q 60.6875 51.171875 53.6875 57.984375 
Q 46.6875 64.796875 31.59375 64.796875 
z
M 9.8125 72.90625 
L 30.078125 72.90625 
Q 51.265625 72.90625 61.171875 64.09375 
Q 71.09375 55.28125 71.09375 36.53125 
Q 71.09375 17.671875 61.125 8.828125 
Q 51.171875 0 30.078125 0 
L 9.8125 0 
z
" id="DejaVuSans-68"/>
    </defs>
    <g transform="translate(60.41088 38.111366)scale(0.102 -0.102)">
     <use xlink:href="#DejaVuSans-98"/>
     <use x="63.476562" xlink:href="#DejaVuSans-98"/>
     <use x="126.953125" xlink:href="#DejaVuSans-111"/>
     <use x="188.134766" xlink:href="#DejaVuSans-98"/>
     <use x="251.611328" xlink:href="#DejaVuSans-32"/>
     <use x="283.398438" xlink:href="#DejaVuSans-102"/>
     <use x="318.603516" xlink:href="#DejaVuSans-50"/>
     <use x="382.226562" xlink:href="#DejaVuSans-51"/>
     <use x="445.849609" xlink:href="#DejaVuSans-44"/>
     <use x="477.636719" xlink:href="#DejaVuSans-32"/>
     <use x="509.423828" xlink:href="#DejaVuSans-50"/>
     <use x="573.046875" xlink:href="#DejaVuSans-48"/>
     <use x="636.669922" xlink:href="#DejaVuSans-45"/>
     <use x="672.753906" xlink:href="#DejaVuSans-68"/>
    </g>
    <!-- 51 targets: 100..1e-08 -->
    <defs>
     <path d="M 10.796875 72.90625 
L 49.515625 72.90625 
L 49.515625 64.59375 
L 19.828125 64.59375 
L 19.828125 46.734375 
Q 21.96875 47.46875 24.109375 47.828125 
Q 26.265625 48.1875 28.421875 48.1875 
Q 40.625 48.1875 47.75 41.5 
Q 54.890625 34.8125 54.890625 23.390625 
Q 54.890625 11.625 47.5625 5.09375 
Q 40.234375 -1.421875 26.90625 -1.421875 
Q 22.3125 -1.421875 17.546875 -0.640625 
Q 12.796875 0.140625 7.71875 1.703125 
L 7.71875 11.625 
Q 12.109375 9.234375 16.796875 8.0625 
Q 21.484375 6.890625 26.703125 6.890625 
Q 35.15625 6.890625 40.078125 11.328125 
Q 45.015625 15.765625 45.015625 23.390625 
Q 45.015625 31 40.078125 35.4375 
Q 35.15625 39.890625 26.703125 39.890625 
Q 22.75 39.890625 18.8125 39.015625 
Q 14.890625 38.140625 10.796875 36.28125 
z
" id="DejaVuSans-53"/>
     <path d="M 11.71875 12.40625 
L 22.015625 12.40625 
L 22.015625 0 
L 11.71875 0 
z
M 11.71875 51.703125 
L 22.015625 51.703125 
L 22.015625 39.3125 
L 11.71875 39.3125 
z
" id="DejaVuSans-58"/>
    </defs>
    <g transform="translate(60.41088 49.533135)scale(0.102 -0.102)">
     <use xlink:href="#DejaVuSans-53"/>
     <use x="63.623047" xlink:href="#DejaVuSans-49"/>
     <use x="127.246094" xlink:href="#DejaVuSans-32"/>
     <use x="159.033203" xlink:href="#DejaVuSans-116"/>
     <use x="198.242188" xlink:href="#DejaVuSans-97"/>
     <use x="259.521484" xlink:href="#DejaVuSans-114"/>
     <use x="300.619141" xlink:href="#DejaVuSans-103"/>
     <use x="364.095703" xlink:href="#DejaVuSans-101"/>
     <use x="425.619141" xlink:href="#DejaVuSans-116"/>
     <use x="464.828125" xlink:href="#DejaVuSans-115"/>
     <use x="516.927734" xlink:href="#DejaVuSans-58"/>
     <use x="550.619141" xlink:href="#DejaVuSans-32"/>
     <use x="582.40625" xlink:href="#DejaVuSans-49"/>
     <use x="646.029297" xlink:href="#DejaVuSans-48"/>
     <use x="709.652344" xlink:href="#DejaVuSans-48"/>
     <use x="773.275391" xlink:href="#DejaVuSans-46"/>
     <use x="805.0625" xlink:href="#DejaVuSans-46"/>
     <use x="836.849609" xlink:href="#DejaVuSans-49"/>
     <use x="900.472656" xlink:href="#DejaVuSans-101"/>
     <use x="961.996094" xlink:href="#DejaVuSans-45"/>
     <use x="998.080078" xlink:href="#DejaVuSans-48"/>
     <use x="1061.703125" xlink:href="#DejaVuSans-56"/>
    </g>
    <!-- 15 instances -->
    <g transform="translate(60.41088 60.954904)scale(0.102 -0.102)">
     <use xlink:href="#DejaVuSans-49"/>
     <use x="63.623047" xlink:href="#DejaVuSans-53"/>
     <use x="127.246094" xlink:href="#DejaVuSans-32"/>
     <use x="159.033203" xlink:href="#DejaVuSans-105"/>
     <use x="186.816406" xlink:href="#DejaVuSans-110"/>
     <use x="250.195312" xlink:href="#DejaVuSans-115"/>
     <use x="302.294922" xlink:href="#DejaVuSans-116"/>
     <use x="341.503906" xlink:href="#DejaVuSans-97"/>
     <use x="402.783203" xlink:href="#DejaVuSans-110"/>
     <use x="466.162109" xlink:href="#DejaVuSans-99"/>
     <use x="521.142578" xlink:href="#DejaVuSans-101"/>
     <use x="582.666016" xlink:href="#DejaVuSans-115"/>
    </g>
   </g>
   <g id="text_18">
    <!-- v2.3.2 -->
    <g style="fill:#808080;" transform="translate(182.46275 294.151352)scale(0.1 -0.1)">
     <use xlink:href="#DejaVuSans-118"/>
     <use x="59.179688" xlink:href="#DejaVuSans-50"/>
     <use x="122.802734" xlink:href="#DejaVuSans-46"/>
     <use x="154.589844" xlink:href="#DejaVuSans-51"/>
     <use x="218.212891" xlink:href="#DejaVuSans-46"/>
     <use x="250" xlink:href="#DejaVuSans-50"/>
    </g>
   </g>
   <g id="text_19">
    <!-- 23 Katsuuras -->
    <defs>
     <path d="M 9.8125 72.90625 
L 19.671875 72.90625 
L 19.671875 42.09375 
L 52.390625 72.90625 
L 65.09375 72.90625 
L 28.90625 38.921875 
L 67.671875 0 
L 54.6875 0 
L 19.671875 35.109375 
L 19.671875 0 
L 9.8125 0 
z
" id="DejaVuSans-75"/>
    </defs>
    <g transform="translate(132.303375 21.648)scale(0.2 -0.2)">
     <use xlink:href="#DejaVuSans-50"/>
     <use x="63.623047" xlink:href="#DejaVuSans-51"/>
     <use x="127.246094" xlink:href="#DejaVuSans-32"/>
     <use x="159.033203" xlink:href="#DejaVuSans-75"/>
     <use x="224.59375" xlink:href="#DejaVuSans-97"/>
     <use x="285.873047" xlink:href="#DejaVuSans-116"/>
     <use x="325.082031" xlink:href="#DejaVuSans-115"/>
     <use x="377.181641" xlink:href="#DejaVuSans-117"/>
     <use x="440.560547" xlink:href="#DejaVuSans-117"/>
     <use x="503.939453" xlink:href="#DejaVuSans-114"/>
     <use x="545.052734" xlink:href="#DejaVuSans-97"/>
     <use x="606.332031" xlink:href="#DejaVuSans-115"/>
    </g>
   </g>
  </g>
 </g>
 <defs>
  <clipPath id="pad8ffee7de">
   <rect height="271.296" width="281.088" x="57.6" y="27.648"/>
  </clipPath>
 </defs>
</svg>
