<?xml version="1.0" encoding="utf-8" standalone="no"?>
<!DOCTYPE svg PUBLIC "-//W3C//DTD SVG 1.1//EN"
  "http://www.w3.org/Graphics/SVG/1.1/DTD/svg11.dtd">
<!-- Created with matplotlib (https://matplotlib.org/) -->
<svg height="345.6pt" version="1.1" viewBox="0 0 460.8 345.6" width="460.8pt" xmlns="http://www.w3.org/2000/svg" xmlns:xlink="http://www.w3.org/1999/xlink">
 <defs>
  <style type="text/css">
*{stroke-linecap:butt;stroke-linejoin:round;}
  </style>
 </defs>
 <g id="figure_1">
  <g id="patch_1">
   <path d="M 0 345.6 
L 460.8 345.6 
L 460.8 0 
L 0 0 
z
" style="fill:#ffffff;"/>
  </g>
  <g id="axes_1">
   <g id="patch_2">
    <path d="M 57.6 298.944 
L 338.688 298.944 
L 338.688 41.472 
L 57.6 41.472 
z
" style="fill:#ffffff;"/>
   </g>
   <g id="line2d_1">
    <path d="M 116.709783 298.944 
L 116.709783 293.945514 
L 117.174084 293.945514 
L 117.174084 288.947029 
L 117.598418 288.947029 
L 117.598418 283.948543 
L 118.390628 283.948543 
L 118.390628 278.950057 
L 123.849288 278.950057 
L 123.849288 273.951571 
L 126.540355 273.951571 
L 126.540355 268.953086 
L 129.936138 268.953086 
L 129.936138 263.9546 
L 131.99937 263.9546 
L 131.99937 258.956114 
L 134.117215 258.956114 
L 134.117215 253.957628 
L 135.482227 253.957628 
L 135.482227 248.959143 
L 137.361683 248.959143 
L 137.361683 243.960657 
L 138.561269 243.960657 
L 138.561269 238.962171 
L 139.477614 238.962171 
L 139.477614 233.963685 
L 141.024894 233.963685 
L 141.024894 228.9652 
L 142.106582 228.9652 
L 142.106582 223.966714 
L 143.40093 223.966714 
L 143.40093 218.968228 
L 144.056737 218.968228 
L 144.056737 213.969743 
L 144.522457 213.969743 
L 144.522457 208.971257 
L 145.166911 208.971257 
L 145.166911 203.972771 
L 145.519922 203.972771 
L 145.519922 198.974285 
L 145.865929 198.974285 
L 145.865929 193.9758 
L 146.232279 193.9758 
L 146.232279 188.977314 
L 146.622867 188.977314 
L 146.622867 183.978828 
L 147.087524 183.978828 
L 147.087524 178.980342 
L 147.525055 178.980342 
L 147.525055 173.981857 
L 150.598782 173.981857 
L 150.598782 168.983371 
L 153.319524 168.983371 
L 153.319524 163.984885 
L 155.303359 163.984885 
L 155.303359 158.9864 
L 155.574631 158.9864 
L 155.574631 153.987914 
L 158.053098 153.987914 
L 158.053098 148.989428 
L 158.271501 148.989428 
L 158.271501 143.990942 
L 158.511304 143.990942 
L 158.511304 138.992457 
L 158.747853 138.992457 
L 158.747853 133.993971 
L 164.573397 133.993971 
L 164.573397 128.995485 
L 169.518863 128.995485 
L 169.518863 123.996999 
L 169.739527 123.996999 
L 169.739527 118.998514 
L 169.947714 118.998514 
L 169.947714 114.000028 
L 170.149326 114.000028 
L 170.149326 109.001542 
L 170.336414 109.001542 
L 170.336414 104.003056 
L 170.544348 104.003056 
L 170.544348 99.004571 
L 170.751159 99.004571 
L 170.751159 94.006085 
L 170.952924 94.006085 
L 170.952924 89.007599 
L 171.13682 89.007599 
L 171.13682 84.009114 
L 171.311091 84.009114 
L 171.311091 79.010628 
L 171.479823 79.010628 
L 171.479823 74.012142 
L 171.629289 74.012142 
L 171.629289 69.013656 
L 171.773733 69.013656 
L 171.773733 64.015171 
L 171.915749 64.015171 
L 171.915749 59.016685 
L 172.070151 59.016685 
L 172.070151 54.018199 
L 172.231729 54.018199 
L 172.231729 49.019713 
L 172.561226 49.019713 
L 172.561226 44.021228 
L 338.688 44.021228 
" style="fill:none;stroke:#f5deb3;stroke-linecap:square;stroke-width:4;"/>
   </g>
   <g id="line2d_2">
    <defs>
     <path d="M -0 7.778175 
L 7.778175 0 
L 0 -7.778175 
L -7.778175 -0 
z
" id="m20f28e39f6" style="stroke:#f5deb3;stroke-linejoin:miter;stroke-width:1.5;"/>
    </defs>
    <g>
     <use style="fill:#f5deb3;stroke:#f5deb3;stroke-linejoin:miter;stroke-width:1.5;" x="141.024894" xlink:href="#m20f28e39f6" y="228.9652"/>
     <use style="fill:#f5deb3;stroke:#f5deb3;stroke-linejoin:miter;stroke-width:1.5;" x="158.271501" xlink:href="#m20f28e39f6" y="143.990942"/>
     <use style="fill:#f5deb3;stroke:#f5deb3;stroke-linejoin:miter;stroke-width:1.5;" x="172.561226" xlink:href="#m20f28e39f6" y="49.019713"/>
     <use style="fill:#f5deb3;stroke:#f5deb3;stroke-linejoin:miter;stroke-width:1.5;" x="172.561226" xlink:href="#m20f28e39f6" y="44.021228"/>
     <use style="fill:#f5deb3;stroke:#f5deb3;stroke-linejoin:miter;stroke-width:1.5;" x="338.688" xlink:href="#m20f28e39f6" y="44.021228"/>
    </g>
   </g>
   <g id="line2d_3">
    <path style="fill:none;stroke:#f5deb3;stroke-linecap:square;stroke-width:4;"/>
    <g/>
   </g>
   <g id="line2d_4">
    <path d="M 338.688 44.021228 
L 369.60768 293.845545 
" style="fill:none;stroke:#f5deb3;stroke-linecap:square;stroke-width:4;"/>
    <g>
     <use style="fill:#f5deb3;stroke:#f5deb3;stroke-linejoin:miter;stroke-width:1.5;" x="338.688" xlink:href="#m20f28e39f6" y="44.021228"/>
     <use style="fill:#f5deb3;stroke:#f5deb3;stroke-linejoin:miter;stroke-width:1.5;" x="369.60768" xlink:href="#m20f28e39f6" y="293.845545"/>
    </g>
   </g>
   <g id="matplotlib.axis_1">
    <g id="xtick_1">
     <g id="line2d_5">
      <path clip-path="url(#pf8830fc774)" d="M 57.6 298.944 
L 57.6 41.472 
" style="fill:none;stroke:#b0b0b0;stroke-linecap:square;stroke-width:0.8;"/>
     </g>
     <g id="line2d_6">
      <defs>
       <path d="M 0 0 
L 0 3.5 
" id="m974712e929" style="stroke:#000000;stroke-width:0.8;"/>
      </defs>
      <g>
       <use style="stroke:#000000;stroke-width:0.8;" x="57.6" xlink:href="#m974712e929" y="298.944"/>
      </g>
     </g>
     <g id="text_1">
      <!-- 0 -->
      <defs>
       <path d="M 31.78125 66.40625 
Q 24.171875 66.40625 20.328125 58.90625 
Q 16.5 51.421875 16.5 36.375 
Q 16.5 21.390625 20.328125 13.890625 
Q 24.171875 6.390625 31.78125 6.390625 
Q 39.453125 6.390625 43.28125 13.890625 
Q 47.125 21.390625 47.125 36.375 
Q 47.125 51.421875 43.28125 58.90625 
Q 39.453125 66.40625 31.78125 66.40625 
z
M 31.78125 74.21875 
Q 44.046875 74.21875 50.515625 64.515625 
Q 56.984375 54.828125 56.984375 36.375 
Q 56.984375 17.96875 50.515625 8.265625 
Q 44.046875 -1.421875 31.78125 -1.421875 
Q 19.53125 -1.421875 13.0625 8.265625 
Q 6.59375 17.96875 6.59375 36.375 
Q 6.59375 54.828125 13.0625 64.515625 
Q 19.53125 74.21875 31.78125 74.21875 
z
" id="DejaVuSans-48"/>
      </defs>
      <g transform="translate(51.2375 321.140875)scale(0.2 -0.2)">
       <use xlink:href="#DejaVuSans-48"/>
      </g>
     </g>
    </g>
    <g id="xtick_2">
     <g id="line2d_7">
      <path clip-path="url(#pf8830fc774)" d="M 137.910857 298.944 
L 137.910857 41.472 
" style="fill:none;stroke:#b0b0b0;stroke-linecap:square;stroke-width:0.8;"/>
     </g>
     <g id="line2d_8">
      <g>
       <use style="stroke:#000000;stroke-width:0.8;" x="137.910857" xlink:href="#m974712e929" y="298.944"/>
      </g>
     </g>
     <g id="text_2">
      <!-- 2 -->
      <defs>
       <path d="M 19.1875 8.296875 
L 53.609375 8.296875 
L 53.609375 0 
L 7.328125 0 
L 7.328125 8.296875 
Q 12.9375 14.109375 22.625 23.890625 
Q 32.328125 33.6875 34.8125 36.53125 
Q 39.546875 41.84375 41.421875 45.53125 
Q 43.3125 49.21875 43.3125 52.78125 
Q 43.3125 58.59375 39.234375 62.25 
Q 35.15625 65.921875 28.609375 65.921875 
Q 23.96875 65.921875 18.8125 64.3125 
Q 13.671875 62.703125 7.8125 59.421875 
L 7.8125 69.390625 
Q 13.765625 71.78125 18.9375 73 
Q 24.125 74.21875 28.421875 74.21875 
Q 39.75 74.21875 46.484375 68.546875 
Q 53.21875 62.890625 53.21875 53.421875 
Q 53.21875 48.921875 51.53125 44.890625 
Q 49.859375 40.875 45.40625 35.40625 
Q 44.1875 33.984375 37.640625 27.21875 
Q 31.109375 20.453125 19.1875 8.296875 
z
" id="DejaVuSans-50"/>
      </defs>
      <g transform="translate(131.548357 321.140875)scale(0.2 -0.2)">
       <use xlink:href="#DejaVuSans-50"/>
      </g>
     </g>
    </g>
    <g id="xtick_3">
     <g id="line2d_9">
      <path clip-path="url(#pf8830fc774)" d="M 218.221714 298.944 
L 218.221714 41.472 
" style="fill:none;stroke:#b0b0b0;stroke-linecap:square;stroke-width:0.8;"/>
     </g>
     <g id="line2d_10">
      <g>
       <use style="stroke:#000000;stroke-width:0.8;" x="218.221714" xlink:href="#m974712e929" y="298.944"/>
      </g>
     </g>
     <g id="text_3">
      <!-- 4 -->
      <defs>
       <path d="M 37.796875 64.3125 
L 12.890625 25.390625 
L 37.796875 25.390625 
z
M 35.203125 72.90625 
L 47.609375 72.90625 
L 47.609375 25.390625 
L 58.015625 25.390625 
L 58.015625 17.1875 
L 47.609375 17.1875 
L 47.609375 0 
L 37.796875 0 
L 37.796875 17.1875 
L 4.890625 17.1875 
L 4.890625 26.703125 
z
" id="DejaVuSans-52"/>
      </defs>
      <g transform="translate(211.859214 321.140875)scale(0.2 -0.2)">
       <use xlink:href="#DejaVuSans-52"/>
      </g>
     </g>
    </g>
    <g id="xtick_4">
     <g id="line2d_11">
      <path clip-path="url(#pf8830fc774)" d="M 298.532571 298.944 
L 298.532571 41.472 
" style="fill:none;stroke:#b0b0b0;stroke-linecap:square;stroke-width:0.8;"/>
     </g>
     <g id="line2d_12">
      <g>
       <use style="stroke:#000000;stroke-width:0.8;" x="298.532571" xlink:href="#m974712e929" y="298.944"/>
      </g>
     </g>
     <g id="text_4">
      <!-- 6 -->
      <defs>
       <path d="M 33.015625 40.375 
Q 26.375 40.375 22.484375 35.828125 
Q 18.609375 31.296875 18.609375 23.390625 
Q 18.609375 15.53125 22.484375 10.953125 
Q 26.375 6.390625 33.015625 6.390625 
Q 39.65625 6.390625 43.53125 10.953125 
Q 47.40625 15.53125 47.40625 23.390625 
Q 47.40625 31.296875 43.53125 35.828125 
Q 39.65625 40.375 33.015625 40.375 
z
M 52.59375 71.296875 
L 52.59375 62.3125 
Q 48.875 64.0625 45.09375 64.984375 
Q 41.3125 65.921875 37.59375 65.921875 
Q 27.828125 65.921875 22.671875 59.328125 
Q 17.53125 52.734375 16.796875 39.40625 
Q 19.671875 43.65625 24.015625 45.921875 
Q 28.375 48.1875 33.59375 48.1875 
Q 44.578125 48.1875 50.953125 41.515625 
Q 57.328125 34.859375 57.328125 23.390625 
Q 57.328125 12.15625 50.6875 5.359375 
Q 44.046875 -1.421875 33.015625 -1.421875 
Q 20.359375 -1.421875 13.671875 8.265625 
Q 6.984375 17.96875 6.984375 36.375 
Q 6.984375 53.65625 15.1875 63.9375 
Q 23.390625 74.21875 37.203125 74.21875 
Q 40.921875 74.21875 44.703125 73.484375 
Q 48.484375 72.75 52.59375 71.296875 
z
" id="DejaVuSans-54"/>
      </defs>
      <g transform="translate(292.170071 321.140875)scale(0.2 -0.2)">
       <use xlink:href="#DejaVuSans-54"/>
      </g>
     </g>
    </g>
    <g id="xtick_5">
     <g id="line2d_13">
      <path clip-path="url(#pf8830fc774)" d="M 57.6 298.944 
L 57.6 41.472 
" style="fill:none;stroke:#b0b0b0;stroke-linecap:square;stroke-width:0.8;"/>
     </g>
     <g id="line2d_14">
      <defs>
       <path d="M 0 0 
L 0 2 
" id="me0b6717c68" style="stroke:#000000;stroke-width:0.6;"/>
      </defs>
      <g>
       <use style="stroke:#000000;stroke-width:0.6;" x="57.6" xlink:href="#me0b6717c68" y="298.944"/>
      </g>
     </g>
    </g>
    <g id="xtick_6">
     <g id="line2d_15">
      <path clip-path="url(#pf8830fc774)" d="M 97.755429 298.944 
L 97.755429 41.472 
" style="fill:none;stroke:#b0b0b0;stroke-linecap:square;stroke-width:0.8;"/>
     </g>
     <g id="line2d_16">
      <g>
       <use style="stroke:#000000;stroke-width:0.6;" x="97.755429" xlink:href="#me0b6717c68" y="298.944"/>
      </g>
     </g>
    </g>
    <g id="xtick_7">
     <g id="line2d_17">
      <path clip-path="url(#pf8830fc774)" d="M 137.910857 298.944 
L 137.910857 41.472 
" style="fill:none;stroke:#b0b0b0;stroke-linecap:square;stroke-width:0.8;"/>
     </g>
     <g id="line2d_18">
      <g>
       <use style="stroke:#000000;stroke-width:0.6;" x="137.910857" xlink:href="#me0b6717c68" y="298.944"/>
      </g>
     </g>
    </g>
    <g id="xtick_8">
     <g id="line2d_19">
      <path clip-path="url(#pf8830fc774)" d="M 178.066286 298.944 
L 178.066286 41.472 
" style="fill:none;stroke:#b0b0b0;stroke-linecap:square;stroke-width:0.8;"/>
     </g>
     <g id="line2d_20">
      <g>
       <use style="stroke:#000000;stroke-width:0.6;" x="178.066286" xlink:href="#me0b6717c68" y="298.944"/>
      </g>
     </g>
    </g>
    <g id="xtick_9">
     <g id="line2d_21">
      <path clip-path="url(#pf8830fc774)" d="M 218.221714 298.944 
L 218.221714 41.472 
" style="fill:none;stroke:#b0b0b0;stroke-linecap:square;stroke-width:0.8;"/>
     </g>
     <g id="line2d_22">
      <g>
       <use style="stroke:#000000;stroke-width:0.6;" x="218.221714" xlink:href="#me0b6717c68" y="298.944"/>
      </g>
     </g>
    </g>
    <g id="xtick_10">
     <g id="line2d_23">
      <path clip-path="url(#pf8830fc774)" d="M 258.377143 298.944 
L 258.377143 41.472 
" style="fill:none;stroke:#b0b0b0;stroke-linecap:square;stroke-width:0.8;"/>
     </g>
     <g id="line2d_24">
      <g>
       <use style="stroke:#000000;stroke-width:0.6;" x="258.377143" xlink:href="#me0b6717c68" y="298.944"/>
      </g>
     </g>
    </g>
    <g id="xtick_11">
     <g id="line2d_25">
      <path clip-path="url(#pf8830fc774)" d="M 298.532571 298.944 
L 298.532571 41.472 
" style="fill:none;stroke:#b0b0b0;stroke-linecap:square;stroke-width:0.8;"/>
     </g>
     <g id="line2d_26">
      <g>
       <use style="stroke:#000000;stroke-width:0.6;" x="298.532571" xlink:href="#me0b6717c68" y="298.944"/>
      </g>
     </g>
    </g>
    <g id="xtick_12">
     <g id="line2d_27">
      <path clip-path="url(#pf8830fc774)" d="M 338.688 298.944 
L 338.688 41.472 
" style="fill:none;stroke:#b0b0b0;stroke-linecap:square;stroke-width:0.8;"/>
     </g>
     <g id="line2d_28">
      <g>
       <use style="stroke:#000000;stroke-width:0.6;" x="338.688" xlink:href="#me0b6717c68" y="298.944"/>
      </g>
     </g>
    </g>
    <g id="text_5">
     <!-- log10(# f-evals / dimension) -->
     <defs>
      <path d="M 9.421875 75.984375 
L 18.40625 75.984375 
L 18.40625 0 
L 9.421875 0 
z
" id="DejaVuSans-108"/>
      <path d="M 30.609375 48.390625 
Q 23.390625 48.390625 19.1875 42.75 
Q 14.984375 37.109375 14.984375 27.296875 
Q 14.984375 17.484375 19.15625 11.84375 
Q 23.34375 6.203125 30.609375 6.203125 
Q 37.796875 6.203125 41.984375 11.859375 
Q 46.1875 17.53125 46.1875 27.296875 
Q 46.1875 37.015625 41.984375 42.703125 
Q 37.796875 48.390625 30.609375 48.390625 
z
M 30.609375 56 
Q 42.328125 56 49.015625 48.375 
Q 55.71875 40.765625 55.71875 27.296875 
Q 55.71875 13.875 49.015625 6.21875 
Q 42.328125 -1.421875 30.609375 -1.421875 
Q 18.84375 -1.421875 12.171875 6.21875 
Q 5.515625 13.875 5.515625 27.296875 
Q 5.515625 40.765625 12.171875 48.375 
Q 18.84375 56 30.609375 56 
z
" id="DejaVuSans-111"/>
      <path d="M 45.40625 27.984375 
Q 45.40625 37.75 41.375 43.109375 
Q 37.359375 48.484375 30.078125 48.484375 
Q 22.859375 48.484375 18.828125 43.109375 
Q 14.796875 37.75 14.796875 27.984375 
Q 14.796875 18.265625 18.828125 12.890625 
Q 22.859375 7.515625 30.078125 7.515625 
Q 37.359375 7.515625 41.375 12.890625 
Q 45.40625 18.265625 45.40625 27.984375 
z
M 54.390625 6.78125 
Q 54.390625 -7.171875 48.1875 -13.984375 
Q 42 -20.796875 29.203125 -20.796875 
Q 24.46875 -20.796875 20.265625 -20.09375 
Q 16.0625 -19.390625 12.109375 -17.921875 
L 12.109375 -9.1875 
Q 16.0625 -11.328125 19.921875 -12.34375 
Q 23.78125 -13.375 27.78125 -13.375 
Q 36.625 -13.375 41.015625 -8.765625 
Q 45.40625 -4.15625 45.40625 5.171875 
L 45.40625 9.625 
Q 42.625 4.78125 38.28125 2.390625 
Q 33.9375 0 27.875 0 
Q 17.828125 0 11.671875 7.65625 
Q 5.515625 15.328125 5.515625 27.984375 
Q 5.515625 40.671875 11.671875 48.328125 
Q 17.828125 56 27.875 56 
Q 33.9375 56 38.28125 53.609375 
Q 42.625 51.21875 45.40625 46.390625 
L 45.40625 54.6875 
L 54.390625 54.6875 
z
" id="DejaVuSans-103"/>
      <path d="M 12.40625 8.296875 
L 28.515625 8.296875 
L 28.515625 63.921875 
L 10.984375 60.40625 
L 10.984375 69.390625 
L 28.421875 72.90625 
L 38.28125 72.90625 
L 38.28125 8.296875 
L 54.390625 8.296875 
L 54.390625 0 
L 12.40625 0 
z
" id="DejaVuSans-49"/>
      <path d="M 31 75.875 
Q 24.46875 64.65625 21.28125 53.65625 
Q 18.109375 42.671875 18.109375 31.390625 
Q 18.109375 20.125 21.3125 9.0625 
Q 24.515625 -2 31 -13.1875 
L 23.1875 -13.1875 
Q 15.875 -1.703125 12.234375 9.375 
Q 8.59375 20.453125 8.59375 31.390625 
Q 8.59375 42.28125 12.203125 53.3125 
Q 15.828125 64.359375 23.1875 75.875 
z
" id="DejaVuSans-40"/>
      <path d="M 51.125 44 
L 36.921875 44 
L 32.8125 27.6875 
L 47.125 27.6875 
z
M 43.796875 71.78125 
L 38.71875 51.515625 
L 52.984375 51.515625 
L 58.109375 71.78125 
L 65.921875 71.78125 
L 60.890625 51.515625 
L 76.125 51.515625 
L 76.125 44 
L 58.984375 44 
L 54.984375 27.6875 
L 70.515625 27.6875 
L 70.515625 20.21875 
L 53.078125 20.21875 
L 48 0 
L 40.1875 0 
L 45.21875 20.21875 
L 30.90625 20.21875 
L 25.875 0 
L 18.015625 0 
L 23.09375 20.21875 
L 7.71875 20.21875 
L 7.71875 27.6875 
L 24.90625 27.6875 
L 29 44 
L 13.28125 44 
L 13.28125 51.515625 
L 30.90625 51.515625 
L 35.890625 71.78125 
z
" id="DejaVuSans-35"/>
      <path id="DejaVuSans-32"/>
      <path d="M 37.109375 75.984375 
L 37.109375 68.5 
L 28.515625 68.5 
Q 23.6875 68.5 21.796875 66.546875 
Q 19.921875 64.59375 19.921875 59.515625 
L 19.921875 54.6875 
L 34.71875 54.6875 
L 34.71875 47.703125 
L 19.921875 47.703125 
L 19.921875 0 
L 10.890625 0 
L 10.890625 47.703125 
L 2.296875 47.703125 
L 2.296875 54.6875 
L 10.890625 54.6875 
L 10.890625 58.5 
Q 10.890625 67.625 15.140625 71.796875 
Q 19.390625 75.984375 28.609375 75.984375 
z
" id="DejaVuSans-102"/>
      <path d="M 4.890625 31.390625 
L 31.203125 31.390625 
L 31.203125 23.390625 
L 4.890625 23.390625 
z
" id="DejaVuSans-45"/>
      <path d="M 56.203125 29.59375 
L 56.203125 25.203125 
L 14.890625 25.203125 
Q 15.484375 15.921875 20.484375 11.0625 
Q 25.484375 6.203125 34.421875 6.203125 
Q 39.59375 6.203125 44.453125 7.46875 
Q 49.3125 8.734375 54.109375 11.28125 
L 54.109375 2.78125 
Q 49.265625 0.734375 44.1875 -0.34375 
Q 39.109375 -1.421875 33.890625 -1.421875 
Q 20.796875 -1.421875 13.15625 6.1875 
Q 5.515625 13.8125 5.515625 26.8125 
Q 5.515625 40.234375 12.765625 48.109375 
Q 20.015625 56 32.328125 56 
Q 43.359375 56 49.78125 48.890625 
Q 56.203125 41.796875 56.203125 29.59375 
z
M 47.21875 32.234375 
Q 47.125 39.59375 43.09375 43.984375 
Q 39.0625 48.390625 32.421875 48.390625 
Q 24.90625 48.390625 20.390625 44.140625 
Q 15.875 39.890625 15.1875 32.171875 
z
" id="DejaVuSans-101"/>
      <path d="M 2.984375 54.6875 
L 12.5 54.6875 
L 29.59375 8.796875 
L 46.6875 54.6875 
L 56.203125 54.6875 
L 35.6875 0 
L 23.484375 0 
z
" id="DejaVuSans-118"/>
      <path d="M 34.28125 27.484375 
Q 23.390625 27.484375 19.1875 25 
Q 14.984375 22.515625 14.984375 16.5 
Q 14.984375 11.71875 18.140625 8.90625 
Q 21.296875 6.109375 26.703125 6.109375 
Q 34.1875 6.109375 38.703125 11.40625 
Q 43.21875 16.703125 43.21875 25.484375 
L 43.21875 27.484375 
z
M 52.203125 31.203125 
L 52.203125 0 
L 43.21875 0 
L 43.21875 8.296875 
Q 40.140625 3.328125 35.546875 0.953125 
Q 30.953125 -1.421875 24.3125 -1.421875 
Q 15.921875 -1.421875 10.953125 3.296875 
Q 6 8.015625 6 15.921875 
Q 6 25.140625 12.171875 29.828125 
Q 18.359375 34.515625 30.609375 34.515625 
L 43.21875 34.515625 
L 43.21875 35.40625 
Q 43.21875 41.609375 39.140625 45 
Q 35.0625 48.390625 27.6875 48.390625 
Q 23 48.390625 18.546875 47.265625 
Q 14.109375 46.140625 10.015625 43.890625 
L 10.015625 52.203125 
Q 14.9375 54.109375 19.578125 55.046875 
Q 24.21875 56 28.609375 56 
Q 40.484375 56 46.34375 49.84375 
Q 52.203125 43.703125 52.203125 31.203125 
z
" id="DejaVuSans-97"/>
      <path d="M 44.28125 53.078125 
L 44.28125 44.578125 
Q 40.484375 46.53125 36.375 47.5 
Q 32.28125 48.484375 27.875 48.484375 
Q 21.1875 48.484375 17.84375 46.4375 
Q 14.5 44.390625 14.5 40.28125 
Q 14.5 37.15625 16.890625 35.375 
Q 19.28125 33.59375 26.515625 31.984375 
L 29.59375 31.296875 
Q 39.15625 29.25 43.1875 25.515625 
Q 47.21875 21.78125 47.21875 15.09375 
Q 47.21875 7.46875 41.1875 3.015625 
Q 35.15625 -1.421875 24.609375 -1.421875 
Q 20.21875 -1.421875 15.453125 -0.5625 
Q 10.6875 0.296875 5.421875 2 
L 5.421875 11.28125 
Q 10.40625 8.6875 15.234375 7.390625 
Q 20.0625 6.109375 24.8125 6.109375 
Q 31.15625 6.109375 34.5625 8.28125 
Q 37.984375 10.453125 37.984375 14.40625 
Q 37.984375 18.0625 35.515625 20.015625 
Q 33.0625 21.96875 24.703125 23.78125 
L 21.578125 24.515625 
Q 13.234375 26.265625 9.515625 29.90625 
Q 5.8125 33.546875 5.8125 39.890625 
Q 5.8125 47.609375 11.28125 51.796875 
Q 16.75 56 26.8125 56 
Q 31.78125 56 36.171875 55.265625 
Q 40.578125 54.546875 44.28125 53.078125 
z
" id="DejaVuSans-115"/>
      <path d="M 25.390625 72.90625 
L 33.6875 72.90625 
L 8.296875 -9.28125 
L 0 -9.28125 
z
" id="DejaVuSans-47"/>
      <path d="M 45.40625 46.390625 
L 45.40625 75.984375 
L 54.390625 75.984375 
L 54.390625 0 
L 45.40625 0 
L 45.40625 8.203125 
Q 42.578125 3.328125 38.25 0.953125 
Q 33.9375 -1.421875 27.875 -1.421875 
Q 17.96875 -1.421875 11.734375 6.484375 
Q 5.515625 14.40625 5.515625 27.296875 
Q 5.515625 40.1875 11.734375 48.09375 
Q 17.96875 56 27.875 56 
Q 33.9375 56 38.25 53.625 
Q 42.578125 51.265625 45.40625 46.390625 
z
M 14.796875 27.296875 
Q 14.796875 17.390625 18.875 11.75 
Q 22.953125 6.109375 30.078125 6.109375 
Q 37.203125 6.109375 41.296875 11.75 
Q 45.40625 17.390625 45.40625 27.296875 
Q 45.40625 37.203125 41.296875 42.84375 
Q 37.203125 48.484375 30.078125 48.484375 
Q 22.953125 48.484375 18.875 42.84375 
Q 14.796875 37.203125 14.796875 27.296875 
z
" id="DejaVuSans-100"/>
      <path d="M 9.421875 54.6875 
L 18.40625 54.6875 
L 18.40625 0 
L 9.421875 0 
z
M 9.421875 75.984375 
L 18.40625 75.984375 
L 18.40625 64.59375 
L 9.421875 64.59375 
z
" id="DejaVuSans-105"/>
      <path d="M 52 44.1875 
Q 55.375 50.25 60.0625 53.125 
Q 64.75 56 71.09375 56 
Q 79.640625 56 84.28125 50.015625 
Q 88.921875 44.046875 88.921875 33.015625 
L 88.921875 0 
L 79.890625 0 
L 79.890625 32.71875 
Q 79.890625 40.578125 77.09375 44.375 
Q 74.3125 48.1875 68.609375 48.1875 
Q 61.625 48.1875 57.5625 43.546875 
Q 53.515625 38.921875 53.515625 30.90625 
L 53.515625 0 
L 44.484375 0 
L 44.484375 32.71875 
Q 44.484375 40.625 41.703125 44.40625 
Q 38.921875 48.1875 33.109375 48.1875 
Q 26.21875 48.1875 22.15625 43.53125 
Q 18.109375 38.875 18.109375 30.90625 
L 18.109375 0 
L 9.078125 0 
L 9.078125 54.6875 
L 18.109375 54.6875 
L 18.109375 46.1875 
Q 21.1875 51.21875 25.484375 53.609375 
Q 29.78125 56 35.6875 56 
Q 41.65625 56 45.828125 52.96875 
Q 50 49.953125 52 44.1875 
z
" id="DejaVuSans-109"/>
      <path d="M 54.890625 33.015625 
L 54.890625 0 
L 45.90625 0 
L 45.90625 32.71875 
Q 45.90625 40.484375 42.875 44.328125 
Q 39.84375 48.1875 33.796875 48.1875 
Q 26.515625 48.1875 22.3125 43.546875 
Q 18.109375 38.921875 18.109375 30.90625 
L 18.109375 0 
L 9.078125 0 
L 9.078125 54.6875 
L 18.109375 54.6875 
L 18.109375 46.1875 
Q 21.34375 51.125 25.703125 53.5625 
Q 30.078125 56 35.796875 56 
Q 45.21875 56 50.046875 50.171875 
Q 54.890625 44.34375 54.890625 33.015625 
z
" id="DejaVuSans-110"/>
      <path d="M 8.015625 75.875 
L 15.828125 75.875 
Q 23.140625 64.359375 26.78125 53.3125 
Q 30.421875 42.28125 30.421875 31.390625 
Q 30.421875 20.453125 26.78125 9.375 
Q 23.140625 -1.703125 15.828125 -13.1875 
L 8.015625 -13.1875 
Q 14.5 -2 17.703125 9.0625 
Q 20.90625 20.125 20.90625 31.390625 
Q 20.90625 42.671875 17.703125 53.65625 
Q 14.5 64.65625 8.015625 75.875 
z
" id="DejaVuSans-41"/>
     </defs>
     <g transform="translate(77.303219 342.217594)scale(0.17 -0.17)">
      <use xlink:href="#DejaVuSans-108"/>
      <use x="27.783203" xlink:href="#DejaVuSans-111"/>
      <use x="88.964844" xlink:href="#DejaVuSans-103"/>
      <use x="152.441406" xlink:href="#DejaVuSans-49"/>
      <use x="216.064453" xlink:href="#DejaVuSans-48"/>
      <use x="279.6875" xlink:href="#DejaVuSans-40"/>
      <use x="318.701172" xlink:href="#DejaVuSans-35"/>
      <use x="402.490234" xlink:href="#DejaVuSans-32"/>
      <use x="434.277344" xlink:href="#DejaVuSans-102"/>
      <use x="469.404297" xlink:href="#DejaVuSans-45"/>
      <use x="505.488281" xlink:href="#DejaVuSans-101"/>
      <use x="567.011719" xlink:href="#DejaVuSans-118"/>
      <use x="626.191406" xlink:href="#DejaVuSans-97"/>
      <use x="687.470703" xlink:href="#DejaVuSans-108"/>
      <use x="715.253906" xlink:href="#DejaVuSans-115"/>
      <use x="767.353516" xlink:href="#DejaVuSans-32"/>
      <use x="799.140625" xlink:href="#DejaVuSans-47"/>
      <use x="832.832031" xlink:href="#DejaVuSans-32"/>
      <use x="864.619141" xlink:href="#DejaVuSans-100"/>
      <use x="928.095703" xlink:href="#DejaVuSans-105"/>
      <use x="955.878906" xlink:href="#DejaVuSans-109"/>
      <use x="1053.291016" xlink:href="#DejaVuSans-101"/>
      <use x="1114.814453" xlink:href="#DejaVuSans-110"/>
      <use x="1178.193359" xlink:href="#DejaVuSans-115"/>
      <use x="1230.292969" xlink:href="#DejaVuSans-105"/>
      <use x="1258.076172" xlink:href="#DejaVuSans-111"/>
      <use x="1319.257812" xlink:href="#DejaVuSans-110"/>
      <use x="1382.636719" xlink:href="#DejaVuSans-41"/>
     </g>
    </g>
   </g>
   <g id="matplotlib.axis_2">
    <g id="ytick_1">
     <g id="line2d_29">
      <path clip-path="url(#pf8830fc774)" d="M 57.6 298.944 
L 338.688 298.944 
" style="fill:none;stroke:#b0b0b0;stroke-linecap:square;stroke-width:0.8;"/>
     </g>
     <g id="line2d_30">
      <defs>
       <path d="M 0 0 
L -3.5 0 
" id="m11f9b21a12" style="stroke:#000000;stroke-width:0.8;"/>
      </defs>
      <g>
       <use style="stroke:#000000;stroke-width:0.8;" x="57.6" xlink:href="#m11f9b21a12" y="298.944"/>
      </g>
     </g>
     <g id="text_6">
      <!-- 0.0 -->
      <defs>
       <path d="M 10.6875 12.40625 
L 21 12.40625 
L 21 0 
L 10.6875 0 
z
" id="DejaVuSans-46"/>
      </defs>
      <g transform="translate(25.155 305.02275)scale(0.16 -0.16)">
       <use xlink:href="#DejaVuSans-48"/>
       <use x="63.623047" xlink:href="#DejaVuSans-46"/>
       <use x="95.410156" xlink:href="#DejaVuSans-48"/>
      </g>
     </g>
    </g>
    <g id="ytick_2">
     <g id="line2d_31">
      <path clip-path="url(#pf8830fc774)" d="M 57.6 247.959446 
L 338.688 247.959446 
" style="fill:none;stroke:#b0b0b0;stroke-linecap:square;stroke-width:0.8;"/>
     </g>
     <g id="line2d_32">
      <g>
       <use style="stroke:#000000;stroke-width:0.8;" x="57.6" xlink:href="#m11f9b21a12" y="247.959446"/>
      </g>
     </g>
     <g id="text_7">
      <!-- 0.2 -->
      <g transform="translate(25.155 254.038196)scale(0.16 -0.16)">
       <use xlink:href="#DejaVuSans-48"/>
       <use x="63.623047" xlink:href="#DejaVuSans-46"/>
       <use x="95.410156" xlink:href="#DejaVuSans-50"/>
      </g>
     </g>
    </g>
    <g id="ytick_3">
     <g id="line2d_33">
      <path clip-path="url(#pf8830fc774)" d="M 57.6 196.974891 
L 338.688 196.974891 
" style="fill:none;stroke:#b0b0b0;stroke-linecap:square;stroke-width:0.8;"/>
     </g>
     <g id="line2d_34">
      <g>
       <use style="stroke:#000000;stroke-width:0.8;" x="57.6" xlink:href="#m11f9b21a12" y="196.974891"/>
      </g>
     </g>
     <g id="text_8">
      <!-- 0.4 -->
      <g transform="translate(25.155 203.053641)scale(0.16 -0.16)">
       <use xlink:href="#DejaVuSans-48"/>
       <use x="63.623047" xlink:href="#DejaVuSans-46"/>
       <use x="95.410156" xlink:href="#DejaVuSans-52"/>
      </g>
     </g>
    </g>
    <g id="ytick_4">
     <g id="line2d_35">
      <path clip-path="url(#pf8830fc774)" d="M 57.6 145.990337 
L 338.688 145.990337 
" style="fill:none;stroke:#b0b0b0;stroke-linecap:square;stroke-width:0.8;"/>
     </g>
     <g id="line2d_36">
      <g>
       <use style="stroke:#000000;stroke-width:0.8;" x="57.6" xlink:href="#m11f9b21a12" y="145.990337"/>
      </g>
     </g>
     <g id="text_9">
      <!-- 0.6 -->
      <g transform="translate(25.155 152.069087)scale(0.16 -0.16)">
       <use xlink:href="#DejaVuSans-48"/>
       <use x="63.623047" xlink:href="#DejaVuSans-46"/>
       <use x="95.410156" xlink:href="#DejaVuSans-54"/>
      </g>
     </g>
    </g>
    <g id="ytick_5">
     <g id="line2d_37">
      <path clip-path="url(#pf8830fc774)" d="M 57.6 95.005782 
L 338.688 95.005782 
" style="fill:none;stroke:#b0b0b0;stroke-linecap:square;stroke-width:0.8;"/>
     </g>
     <g id="line2d_38">
      <g>
       <use style="stroke:#000000;stroke-width:0.8;" x="57.6" xlink:href="#m11f9b21a12" y="95.005782"/>
      </g>
     </g>
     <g id="text_10">
      <!-- 0.8 -->
      <defs>
       <path d="M 31.78125 34.625 
Q 24.75 34.625 20.71875 30.859375 
Q 16.703125 27.09375 16.703125 20.515625 
Q 16.703125 13.921875 20.71875 10.15625 
Q 24.75 6.390625 31.78125 6.390625 
Q 38.8125 6.390625 42.859375 10.171875 
Q 46.921875 13.96875 46.921875 20.515625 
Q 46.921875 27.09375 42.890625 30.859375 
Q 38.875 34.625 31.78125 34.625 
z
M 21.921875 38.8125 
Q 15.578125 40.375 12.03125 44.71875 
Q 8.5 49.078125 8.5 55.328125 
Q 8.5 64.0625 14.71875 69.140625 
Q 20.953125 74.21875 31.78125 74.21875 
Q 42.671875 74.21875 48.875 69.140625 
Q 55.078125 64.0625 55.078125 55.328125 
Q 55.078125 49.078125 51.53125 44.71875 
Q 48 40.375 41.703125 38.8125 
Q 48.828125 37.15625 52.796875 32.3125 
Q 56.78125 27.484375 56.78125 20.515625 
Q 56.78125 9.90625 50.3125 4.234375 
Q 43.84375 -1.421875 31.78125 -1.421875 
Q 19.734375 -1.421875 13.25 4.234375 
Q 6.78125 9.90625 6.78125 20.515625 
Q 6.78125 27.484375 10.78125 32.3125 
Q 14.796875 37.15625 21.921875 38.8125 
z
M 18.3125 54.390625 
Q 18.3125 48.734375 21.84375 45.5625 
Q 25.390625 42.390625 31.78125 42.390625 
Q 38.140625 42.390625 41.71875 45.5625 
Q 45.3125 48.734375 45.3125 54.390625 
Q 45.3125 60.0625 41.71875 63.234375 
Q 38.140625 66.40625 31.78125 66.40625 
Q 25.390625 66.40625 21.84375 63.234375 
Q 18.3125 60.0625 18.3125 54.390625 
z
" id="DejaVuSans-56"/>
      </defs>
      <g transform="translate(25.155 101.084532)scale(0.16 -0.16)">
       <use xlink:href="#DejaVuSans-48"/>
       <use x="63.623047" xlink:href="#DejaVuSans-46"/>
       <use x="95.410156" xlink:href="#DejaVuSans-56"/>
      </g>
     </g>
    </g>
    <g id="ytick_6">
     <g id="line2d_39">
      <path clip-path="url(#pf8830fc774)" d="M 57.6 44.021228 
L 338.688 44.021228 
" style="fill:none;stroke:#b0b0b0;stroke-linecap:square;stroke-width:0.8;"/>
     </g>
     <g id="line2d_40">
      <g>
       <use style="stroke:#000000;stroke-width:0.8;" x="57.6" xlink:href="#m11f9b21a12" y="44.021228"/>
      </g>
     </g>
     <g id="text_11">
      <!-- 1.0 -->
      <g transform="translate(25.155 50.099978)scale(0.16 -0.16)">
       <use xlink:href="#DejaVuSans-49"/>
       <use x="63.623047" xlink:href="#DejaVuSans-46"/>
       <use x="95.410156" xlink:href="#DejaVuSans-48"/>
      </g>
     </g>
    </g>
    <g id="text_12">
     <!-- Fraction of function,target pairs -->
     <defs>
      <path d="M 9.8125 72.90625 
L 51.703125 72.90625 
L 51.703125 64.59375 
L 19.671875 64.59375 
L 19.671875 43.109375 
L 48.578125 43.109375 
L 48.578125 34.8125 
L 19.671875 34.8125 
L 19.671875 0 
L 9.8125 0 
z
" id="DejaVuSans-70"/>
      <path d="M 41.109375 46.296875 
Q 39.59375 47.171875 37.8125 47.578125 
Q 36.03125 48 33.890625 48 
Q 26.265625 48 22.1875 43.046875 
Q 18.109375 38.09375 18.109375 28.8125 
L 18.109375 0 
L 9.078125 0 
L 9.078125 54.6875 
L 18.109375 54.6875 
L 18.109375 46.1875 
Q 20.953125 51.171875 25.484375 53.578125 
Q 30.03125 56 36.53125 56 
Q 37.453125 56 38.578125 55.875 
Q 39.703125 55.765625 41.0625 55.515625 
z
" id="DejaVuSans-114"/>
      <path d="M 48.78125 52.59375 
L 48.78125 44.1875 
Q 44.96875 46.296875 41.140625 47.34375 
Q 37.3125 48.390625 33.40625 48.390625 
Q 24.65625 48.390625 19.8125 42.84375 
Q 14.984375 37.3125 14.984375 27.296875 
Q 14.984375 17.28125 19.8125 11.734375 
Q 24.65625 6.203125 33.40625 6.203125 
Q 37.3125 6.203125 41.140625 7.25 
Q 44.96875 8.296875 48.78125 10.40625 
L 48.78125 2.09375 
Q 45.015625 0.34375 40.984375 -0.53125 
Q 36.96875 -1.421875 32.421875 -1.421875 
Q 20.0625 -1.421875 12.78125 6.34375 
Q 5.515625 14.109375 5.515625 27.296875 
Q 5.515625 40.671875 12.859375 48.328125 
Q 20.21875 56 33.015625 56 
Q 37.15625 56 41.109375 55.140625 
Q 45.0625 54.296875 48.78125 52.59375 
z
" id="DejaVuSans-99"/>
      <path d="M 18.3125 70.21875 
L 18.3125 54.6875 
L 36.8125 54.6875 
L 36.8125 47.703125 
L 18.3125 47.703125 
L 18.3125 18.015625 
Q 18.3125 11.328125 20.140625 9.421875 
Q 21.96875 7.515625 27.59375 7.515625 
L 36.8125 7.515625 
L 36.8125 0 
L 27.59375 0 
Q 17.1875 0 13.234375 3.875 
Q 9.28125 7.765625 9.28125 18.015625 
L 9.28125 47.703125 
L 2.6875 47.703125 
L 2.6875 54.6875 
L 9.28125 54.6875 
L 9.28125 70.21875 
z
" id="DejaVuSans-116"/>
      <path d="M 8.5 21.578125 
L 8.5 54.6875 
L 17.484375 54.6875 
L 17.484375 21.921875 
Q 17.484375 14.15625 20.5 10.265625 
Q 23.53125 6.390625 29.59375 6.390625 
Q 36.859375 6.390625 41.078125 11.03125 
Q 45.3125 15.671875 45.3125 23.6875 
L 45.3125 54.6875 
L 54.296875 54.6875 
L 54.296875 0 
L 45.3125 0 
L 45.3125 8.40625 
Q 42.046875 3.421875 37.71875 1 
Q 33.40625 -1.421875 27.6875 -1.421875 
Q 18.265625 -1.421875 13.375 4.4375 
Q 8.5 10.296875 8.5 21.578125 
z
M 31.109375 56 
z
" id="DejaVuSans-117"/>
      <path d="M 11.71875 12.40625 
L 22.015625 12.40625 
L 22.015625 4 
L 14.015625 -11.625 
L 7.71875 -11.625 
L 11.71875 4 
z
" id="DejaVuSans-44"/>
      <path d="M 18.109375 8.203125 
L 18.109375 -20.796875 
L 9.078125 -20.796875 
L 9.078125 54.6875 
L 18.109375 54.6875 
L 18.109375 46.390625 
Q 20.953125 51.265625 25.265625 53.625 
Q 29.59375 56 35.59375 56 
Q 45.5625 56 51.78125 48.09375 
Q 58.015625 40.1875 58.015625 27.296875 
Q 58.015625 14.40625 51.78125 6.484375 
Q 45.5625 -1.421875 35.59375 -1.421875 
Q 29.59375 -1.421875 25.265625 0.953125 
Q 20.953125 3.328125 18.109375 8.203125 
z
M 48.6875 27.296875 
Q 48.6875 37.203125 44.609375 42.84375 
Q 40.53125 48.484375 33.40625 48.484375 
Q 26.265625 48.484375 22.1875 42.84375 
Q 18.109375 37.203125 18.109375 27.296875 
Q 18.109375 17.390625 22.1875 11.75 
Q 26.265625 6.109375 33.40625 6.109375 
Q 40.53125 6.109375 44.609375 11.75 
Q 48.6875 17.390625 48.6875 27.296875 
z
" id="DejaVuSans-112"/>
     </defs>
     <g transform="translate(17.619531 305.347375)rotate(-90)scale(0.17 -0.17)">
      <use xlink:href="#DejaVuSans-70"/>
      <use x="57.410156" xlink:href="#DejaVuSans-114"/>
      <use x="98.523438" xlink:href="#DejaVuSans-97"/>
      <use x="159.802734" xlink:href="#DejaVuSans-99"/>
      <use x="214.783203" xlink:href="#DejaVuSans-116"/>
      <use x="253.992188" xlink:href="#DejaVuSans-105"/>
      <use x="281.775391" xlink:href="#DejaVuSans-111"/>
      <use x="342.957031" xlink:href="#DejaVuSans-110"/>
      <use x="406.335938" xlink:href="#DejaVuSans-32"/>
      <use x="438.123047" xlink:href="#DejaVuSans-111"/>
      <use x="499.304688" xlink:href="#DejaVuSans-102"/>
      <use x="534.509766" xlink:href="#DejaVuSans-32"/>
      <use x="566.296875" xlink:href="#DejaVuSans-102"/>
      <use x="601.501953" xlink:href="#DejaVuSans-117"/>
      <use x="664.880859" xlink:href="#DejaVuSans-110"/>
      <use x="728.259766" xlink:href="#DejaVuSans-99"/>
      <use x="783.240234" xlink:href="#DejaVuSans-116"/>
      <use x="822.449219" xlink:href="#DejaVuSans-105"/>
      <use x="850.232422" xlink:href="#DejaVuSans-111"/>
      <use x="911.414062" xlink:href="#DejaVuSans-110"/>
      <use x="974.792969" xlink:href="#DejaVuSans-44"/>
      <use x="1006.580078" xlink:href="#DejaVuSans-116"/>
      <use x="1045.789062" xlink:href="#DejaVuSans-97"/>
      <use x="1107.068359" xlink:href="#DejaVuSans-114"/>
      <use x="1148.166016" xlink:href="#DejaVuSans-103"/>
      <use x="1211.642578" xlink:href="#DejaVuSans-101"/>
      <use x="1273.166016" xlink:href="#DejaVuSans-116"/>
      <use x="1312.375" xlink:href="#DejaVuSans-32"/>
      <use x="1344.162109" xlink:href="#DejaVuSans-112"/>
      <use x="1407.638672" xlink:href="#DejaVuSans-97"/>
      <use x="1468.917969" xlink:href="#DejaVuSans-105"/>
      <use x="1496.701172" xlink:href="#DejaVuSans-114"/>
      <use x="1537.814453" xlink:href="#DejaVuSans-115"/>
     </g>
    </g>
   </g>
   <g id="line2d_41">
    <defs>
     <path d="M 0 1.5 
C 0.397805 1.5 0.77937 1.341951 1.06066 1.06066 
C 1.341951 0.77937 1.5 0.397805 1.5 0 
C 1.5 -0.397805 1.341951 -0.77937 1.06066 -1.06066 
C 0.77937 -1.341951 0.397805 -1.5 0 -1.5 
C -0.397805 -1.5 -0.77937 -1.341951 -1.06066 -1.06066 
C -1.341951 -0.77937 -1.5 -0.397805 -1.5 0 
C -1.5 0.397805 -1.341951 0.77937 -1.06066 1.06066 
C -0.77937 1.341951 -0.397805 1.5 0 1.5 
z
" id="m98e641688f" style="stroke:#f5deb3;"/>
    </defs>
    <g>
     <use style="fill:#f5deb3;stroke:#f5deb3;" x="172.561226" xlink:href="#m98e641688f" y="44.021228"/>
     <use style="fill:#f5deb3;stroke:#f5deb3;" x="172.561226" xlink:href="#m98e641688f" y="44.021228"/>
    </g>
   </g>
   <g id="line2d_42">
    <defs>
     <path d="M 0 1.5 
C 0.397805 1.5 0.77937 1.341951 1.06066 1.06066 
C 1.341951 0.77937 1.5 0.397805 1.5 0 
C 1.5 -0.397805 1.341951 -0.77937 1.06066 -1.06066 
C 0.77937 -1.341951 0.397805 -1.5 0 -1.5 
C -0.397805 -1.5 -0.77937 -1.341951 -1.06066 -1.06066 
C -1.341951 -0.77937 -1.5 -0.397805 -1.5 0 
C -1.5 0.397805 -1.341951 0.77937 -1.06066 1.06066 
C -0.77937 1.341951 -0.397805 1.5 0 1.5 
z
" id="mf8b618ee7a" style="stroke:#000080;"/>
    </defs>
    <g>
     <use style="fill:#000080;stroke:#000080;" x="170.164422" xlink:href="#mf8b618ee7a" y="44.021228"/>
     <use style="fill:#000080;stroke:#000080;" x="170.164422" xlink:href="#mf8b618ee7a" y="44.021228"/>
    </g>
   </g>
   <g id="line2d_43">
    <path d="M 115.897107 298.944 
L 115.989297 296.944606 
L 116.050487 296.944606 
L 116.050487 295.944909 
L 116.262979 295.944909 
L 116.262979 294.945211 
L 116.59175 294.945211 
L 116.680349 293.445666 
L 116.739166 293.445666 
L 116.797786 291.94612 
L 116.885347 291.94612 
L 116.972471 288.947029 
L 117.030313 288.947029 
L 117.087964 287.447483 
L 117.316679 287.447483 
L 117.316679 286.947634 
L 117.458117 286.947634 
L 117.514373 285.448089 
L 117.654224 285.448089 
L 117.737599 280.949451 
L 117.820578 280.949451 
L 117.930605 279.449906 
L 117.985359 279.449906 
L 118.06717 276.950663 
L 118.310324 276.950663 
L 118.363901 275.451117 
L 118.443959 275.451117 
L 118.443959 274.951268 
L 118.629344 274.951268 
L 118.734401 269.952783 
L 119.020084 269.952783 
L 119.122819 267.45354 
L 119.250393 267.45354 
L 119.301163 262.455054 
L 119.552816 262.455054 
L 119.577783 260.45566 
L 119.677294 260.45566 
L 119.726838 256.95672 
L 119.825504 256.95672 
L 119.825504 256.456871 
L 120.142369 256.456871 
L 120.142369 255.957023 
L 120.453579 255.957023 
L 120.54823 253.45778 
L 120.571812 253.45778 
L 120.571812 252.957931 
L 120.875518 252.957931 
L 120.875518 252.458083 
L 121.128432 252.458083 
L 121.219499 247.959446 
L 121.310093 247.959446 
L 121.310093 247.459597 
L 121.53454 247.459597 
L 121.601315 245.960051 
L 121.667835 245.960051 
L 121.667835 244.960354 
L 121.800118 244.960354 
L 121.800118 244.460506 
L 121.953191 244.460506 
L 121.953191 243.960657 
L 122.083336 243.960657 
L 122.083336 242.96096 
L 122.573415 242.96096 
L 122.573415 241.961263 
L 122.699028 241.961263 
L 122.699028 241.461414 
L 122.885768 241.461414 
L 122.885768 240.961566 
L 123.029641 240.961566 
L 123.111324 239.46202 
L 123.253355 239.46202 
L 123.273551 237.462626 
L 123.514096 237.462626 
L 123.514096 236.462928 
L 123.770997 236.462928 
L 123.770997 235.463231 
L 124.482119 235.463231 
L 124.482119 232.963988 
L 124.706662 232.963988 
L 124.725244 230.964594 
L 124.92835 230.964594 
L 124.92835 229.964897 
L 125.147256 229.964897 
L 125.183475 228.465351 
L 125.363449 228.465351 
L 125.452744 227.465654 
L 126.013653 227.465654 
L 126.030894 226.465957 
L 133.94293 226.465957 
L 133.94293 225.966108 
L 134.289776 225.966108 
L 134.289776 225.46626 
L 134.891008 225.46626 
L 134.891008 224.966411 
L 135.158519 224.966411 
L 135.158519 223.466865 
L 135.750758 223.466865 
L 135.750758 222.967017 
L 136.720123 222.967017 
L 136.776048 220.967623 
L 137.352682 220.967623 
L 137.352682 220.467774 
L 137.558536 220.467774 
L 137.558536 219.967925 
L 138.032507 219.967925 
L 138.032507 219.468077 
L 138.409402 219.468077 
L 138.409402 218.968228 
L 140.042245 218.968228 
L 140.042245 217.968531 
L 140.256979 217.968531 
L 140.333034 216.968834 
L 140.604116 216.968834 
L 140.604116 215.969137 
L 141.485554 215.969137 
L 141.485554 213.969743 
L 141.634094 213.969743 
L 141.634094 213.469894 
L 141.746425 213.469894 
L 141.844124 212.470197 
L 141.927433 212.470197 
L 141.962028 210.970651 
L 142.051655 210.970651 
L 142.092866 209.471105 
L 142.209106 209.471105 
L 142.209106 208.471408 
L 142.772361 208.471408 
L 142.772361 207.97156 
L 142.923465 207.97156 
L 142.923465 207.471711 
L 143.144465 207.471711 
L 143.144465 206.472014 
L 143.915178 206.472014 
L 143.989178 205.472317 
L 144.847661 205.472317 
L 144.853518 204.47262 
L 145.063071 204.47262 
L 145.063071 203.472923 
L 145.332919 203.472923 
L 145.384119 202.473225 
L 145.542453 202.473225 
L 145.542453 201.973377 
L 145.732804 201.973377 
L 145.732804 201.473528 
L 145.865929 201.473528 
L 145.865929 200.97368 
L 146.074653 200.97368 
L 146.074653 200.473831 
L 146.210622 200.473831 
L 146.248504 198.974285 
L 146.340162 198.974285 
L 146.420639 197.47474 
L 146.490086 197.47474 
L 146.564568 195.975194 
L 146.654584 195.975194 
L 146.654584 195.475345 
L 147.680117 195.475345 
L 147.680117 193.9758 
L 147.87818 193.9758 
L 147.87818 193.475951 
L 148.064279 193.475951 
L 148.064279 192.976103 
L 148.286932 192.976103 
L 148.291741 191.976405 
L 148.530508 191.976405 
L 148.629823 190.976708 
L 148.728576 190.976708 
L 148.728576 190.47686 
L 148.910504 190.47686 
L 148.910504 189.977011 
L 149.11809 189.977011 
L 149.18674 188.477465 
L 149.277854 188.477465 
L 149.277854 187.977617 
L 149.539426 187.977617 
L 149.539426 186.478071 
L 149.72642 186.478071 
L 149.779481 184.978525 
L 149.889508 184.978525 
L 149.889508 184.478677 
L 150.059777 184.478677 
L 150.120495 183.47898 
L 150.249899 183.47898 
L 150.318524 181.979434 
L 150.43372 181.979434 
L 150.505862 178.980342 
L 150.73306 178.980342 
L 150.73306 178.480494 
L 150.920156 178.480494 
L 150.957336 176.980948 
L 151.060198 176.980948 
L 151.060198 175.981251 
L 151.349063 175.981251 
L 151.453659 173.482008 
L 151.692666 173.482008 
L 151.728236 171.982462 
L 151.928441 171.982462 
L 151.947946 170.982765 
L 152.041267 170.982765 
L 152.060646 167.983674 
L 152.249431 167.983674 
L 152.341156 165.98428 
L 152.375429 165.98428 
L 152.474064 163.485037 
L 152.744329 163.485037 
L 152.792684 162.48534 
L 152.922207 162.48534 
L 152.922207 161.485642 
L 153.03613 161.485642 
L 153.105587 159.986097 
L 153.152952 159.986097 
L 153.232815 158.486551 
L 153.662112 158.486551 
L 153.662112 157.986702 
L 153.792374 157.986702 
L 153.879842 156.987005 
L 154.084543 156.987005 
L 154.108671 155.48746 
L 154.286869 155.48746 
L 154.324333 152.988217 
L 154.684612 152.988217 
L 154.741174 150.988822 
L 154.863648 150.988822 
L 154.863648 149.989125 
L 155.011454 149.989125 
L 155.122304 148.989428 
L 155.132051 148.989428 
L 155.238912 147.489882 
L 155.277608 147.489882 
L 155.28405 145.490488 
L 155.473 145.490488 
L 155.473 144.490791 
L 155.625226 144.490791 
L 155.659924 143.491094 
L 155.751073 143.491094 
L 155.851102 142.491397 
L 155.969145 142.491397 
L 155.969145 141.491699 
L 156.110979 141.491699 
L 156.175347 139.992154 
L 156.251668 139.992154 
L 156.333721 138.992457 
L 156.520691 138.992457 
L 156.580579 136.493214 
L 156.767892 136.493214 
L 156.876971 133.993971 
L 156.885785 133.993971 
L 156.885785 133.494122 
L 157.280763 133.494122 
L 157.286505 131.994577 
L 157.432298 131.994577 
L 157.523158 130.994879 
L 157.56841 130.994879 
L 157.658565 128.995485 
L 157.792929 128.995485 
L 157.826359 127.995788 
L 158.066829 127.995788 
L 158.173558 126.496242 
L 158.290482 126.496242 
L 158.339195 123.996999 
L 158.449648 123.996999 
L 158.449648 123.497151 
L 158.58607 123.497151 
L 158.67643 120.997908 
L 158.76896 120.997908 
L 158.776868 118.998514 
L 158.895065 118.998514 
L 158.929063 117.998817 
L 159.175513 117.998817 
L 159.278248 116.999119 
L 159.360003 116.999119 
L 159.372742 115.999422 
L 159.550127 115.999422 
L 159.550127 115.499574 
L 159.730716 115.499574 
L 159.770595 114.000028 
L 159.874844 114.000028 
L 159.911925 112.000634 
L 160.181471 112.000634 
L 160.283299 109.501391 
L 160.420551 109.501391 
L 160.520997 108.001845 
L 160.627979 108.001845 
L 160.689494 107.002148 
L 160.854038 107.002148 
L 160.854038 106.502299 
L 160.972951 106.502299 
L 161.061028 105.502602 
L 161.16246 105.502602 
L 161.201492 104.003056 
L 161.379469 104.003056 
L 161.379469 103.503208 
L 161.528659 103.503208 
L 161.6095 101.003965 
L 161.649781 101.003965 
L 161.710028 99.504419 
L 161.904956 99.504419 
L 161.904956 99.004571 
L 162.184655 99.004571 
L 162.290551 96.005479 
L 162.515329 96.005479 
L 162.598085 95.005782 
L 162.636148 95.005782 
L 162.636148 94.505934 
L 162.977101 94.505934 
L 163.035004 93.506236 
L 163.098888 93.506236 
L 163.17688 92.006691 
L 163.246367 92.006691 
L 163.337912 90.507145 
L 163.447136 90.507145 
L 163.505512 88.507751 
L 163.563693 88.507751 
L 163.663552 86.008508 
L 163.715253 86.008508 
L 163.715253 85.508659 
L 164.030086 85.508659 
L 164.127316 84.009114 
L 164.214363 84.009114 
L 164.214363 82.009719 
L 164.377608 82.009719 
L 164.448194 80.010325 
L 164.614933 80.010325 
L 164.697709 77.511082 
L 164.740822 77.511082 
L 164.740822 77.011234 
L 164.856512 77.011234 
L 164.856512 76.011536 
L 165.01941 76.011536 
L 165.089285 73.012445 
L 165.160709 73.012445 
L 165.160709 72.012748 
L 165.362406 72.012748 
L 165.443514 70.013354 
L 165.558223 70.013354 
L 165.558223 69.513505 
L 165.716497 69.513505 
L 165.80831 67.514111 
L 165.854037 67.514111 
L 165.854037 67.014262 
L 166.016622 67.014262 
L 166.124175 65.014868 
L 166.25855 65.014868 
L 166.347561 63.515322 
L 166.471757 63.515322 
L 166.471757 63.015474 
L 166.637107 63.015474 
L 166.679039 62.015776 
L 166.918621 62.015776 
L 166.948338 61.016079 
L 167.043752 61.016079 
L 167.043752 59.516533 
L 167.205417 59.516533 
L 167.210292 58.516836 
L 167.352708 58.516836 
L 167.352708 58.016988 
L 167.59758 58.016988 
L 167.59758 57.017291 
L 167.741609 57.017291 
L 167.835927 55.517745 
L 168.044746 55.517745 
L 168.044746 54.518048 
L 168.248032 54.518048 
L 168.248032 54.018199 
L 168.480731 54.018199 
L 168.491304 53.018502 
L 168.595176 53.018502 
L 168.674545 52.018805 
L 168.708875 52.018805 
L 168.708875 51.518956 
L 168.909031 51.518956 
L 168.909031 51.019108 
L 169.250616 51.019108 
L 169.267955 50.019411 
L 169.557255 50.019411 
L 169.557255 49.019713 
L 169.69449 49.019713 
L 169.780242 47.020319 
L 169.832051 47.020319 
L 169.932429 44.521076 
L 170.164422 44.521076 
L 170.164422 44.021228 
L 338.688 44.021228 
L 338.688 44.021228 
" style="fill:none;stroke:#000080;stroke-linecap:square;stroke-width:1.5;"/>
   </g>
   <g id="line2d_44">
    <defs>
     <path d="M 0 6 
C 1.591219 6 3.117479 5.367802 4.242641 4.242641 
C 5.367802 3.117479 6 1.591219 6 0 
C 6 -1.591219 5.367802 -3.117479 4.242641 -4.242641 
C 3.117479 -5.367802 1.591219 -6 0 -6 
C -1.591219 -6 -3.117479 -5.367802 -4.242641 -4.242641 
C -5.367802 -3.117479 -6 -1.591219 -6 0 
C -6 1.591219 -5.367802 3.117479 -4.242641 4.242641 
C -3.117479 5.367802 -1.591219 6 0 6 
z
" id="m37ae02dc20" style="stroke:#000080;stroke-width:1.5;"/>
    </defs>
    <g>
     <use style="fill-opacity:0;stroke:#000080;stroke-width:1.5;" x="151.349063" xlink:href="#m37ae02dc20" y="175.481402"/>
     <use style="fill-opacity:0;stroke:#000080;stroke-width:1.5;" x="170.164422" xlink:href="#m37ae02dc20" y="44.521076"/>
     <use style="fill-opacity:0;stroke:#000080;stroke-width:1.5;" x="170.164422" xlink:href="#m37ae02dc20" y="44.021228"/>
     <use style="fill-opacity:0;stroke:#000080;stroke-width:1.5;" x="170.164422" xlink:href="#m37ae02dc20" y="44.021228"/>
     <use style="fill-opacity:0;stroke:#000080;stroke-width:1.5;" x="338.688" xlink:href="#m37ae02dc20" y="44.021228"/>
    </g>
   </g>
   <g id="line2d_45">
    <path style="fill:none;stroke:#000080;stroke-linecap:square;stroke-width:1.5;"/>
    <g/>
   </g>
   <g id="line2d_46">
    <defs>
     <path d="M 0 1.5 
C 0.397805 1.5 0.77937 1.341951 1.06066 1.06066 
C 1.341951 0.77937 1.5 0.397805 1.5 0 
C 1.5 -0.397805 1.341951 -0.77937 1.06066 -1.06066 
C 0.77937 -1.341951 0.397805 -1.5 0 -1.5 
C -0.397805 -1.5 -0.77937 -1.341951 -1.06066 -1.06066 
C -1.341951 -0.77937 -1.5 -0.397805 -1.5 0 
C -1.5 0.397805 -1.341951 0.77937 -1.06066 1.06066 
C -0.77937 1.341951 -0.397805 1.5 0 1.5 
z
" id="m733de924e1" style="stroke:#ff00ff;"/>
    </defs>
    <g>
     <use style="fill:#ff00ff;stroke:#ff00ff;" x="171.246749" xlink:href="#m733de924e1" y="44.021228"/>
     <use style="fill:#ff00ff;stroke:#ff00ff;" x="171.246749" xlink:href="#m733de924e1" y="44.021228"/>
    </g>
   </g>
   <g id="line2d_47">
    <path d="M 114.618932 298.944 
L 114.618932 297.944303 
L 115.173642 297.944303 
L 115.173642 297.444454 
L 115.523393 297.444454 
L 115.586238 295.944909 
L 116.019919 295.944909 
L 116.019919 294.945211 
L 116.443076 294.945211 
L 116.472913 292.945817 
L 116.650866 292.945817 
L 116.650866 291.94612 
L 116.972471 291.94612 
L 117.030313 289.946726 
L 117.116718 289.946726 
L 117.116718 289.446877 
L 117.316679 289.446877 
L 117.40168 286.947634 
L 117.68206 286.947634 
L 117.765302 285.448089 
L 118.039942 285.448089 
L 118.121498 284.448391 
L 118.310324 284.448391 
L 118.337133 282.448997 
L 118.497128 282.448997 
L 118.497128 281.4493 
L 118.629344 281.4493 
L 118.734401 279.449906 
L 118.890808 279.449906 
L 118.994305 277.95036 
L 119.071527 277.95036 
L 119.071527 276.950663 
L 119.250393 276.950663 
L 119.275797 275.950966 
L 119.427443 275.950966 
L 119.427443 275.451117 
L 119.552816 275.451117 
L 119.602714 271.952177 
L 119.751557 271.952177 
L 119.850084 270.95248 
L 119.89914 270.95248 
L 119.89914 270.452631 
L 120.021178 270.452631 
L 120.093994 268.953086 
L 120.142369 268.953086 
L 120.142369 268.453237 
L 120.262724 268.453237 
L 120.286695 265.953994 
L 120.382253 265.953994 
L 120.47729 262.455054 
L 120.571812 262.455054 
L 120.571812 261.955206 
L 120.967912 261.955206 
L 121.059819 256.456871 
L 121.08272 256.456871 
L 121.08272 255.957023 
L 121.264855 255.957023 
L 121.310093 252.458083 
L 121.377731 252.458083 
L 121.377731 251.958234 
L 121.556827 251.958234 
L 121.623516 249.95884 
L 121.865885 249.95884 
L 121.865885 248.959143 
L 122.061712 248.959143 
L 122.083336 247.459597 
L 122.212516 247.459597 
L 122.276749 246.4599 
L 122.573415 246.4599 
L 122.573415 245.960051 
L 122.823744 245.960051 
L 122.885768 243.460808 
L 123.050097 243.460808 
L 123.090939 241.961263 
L 123.172336 241.961263 
L 123.172336 241.461414 
L 123.633136 241.461414 
L 123.633136 240.461717 
L 124.043491 240.461717 
L 124.120571 239.46202 
L 132.718618 239.46202 
L 132.718618 238.962171 
L 133.85513 238.962171 
L 133.85513 238.462323 
L 134.03029 238.462323 
L 134.03029 237.962474 
L 134.257551 237.962474 
L 134.279041 236.462928 
L 134.386096 236.462928 
L 134.386096 235.96308 
L 135.189123 235.96308 
L 135.189123 235.463231 
L 135.562224 235.463231 
L 135.651784 233.963685 
L 135.809875 233.963685 
L 135.809875 233.463837 
L 136.20856 233.463837 
L 136.20856 232.963988 
L 136.5324 232.963988 
L 136.5324 232.46414 
L 136.997972 232.46414 
L 136.997972 231.464443 
L 137.189866 231.464443 
L 137.189866 230.964594 
L 137.370679 230.964594 
L 137.370679 229.465048 
L 137.576323 229.465048 
L 137.576323 228.465351 
L 137.709143 228.465351 
L 137.709143 227.965503 
L 138.902329 227.965503 
L 138.918797 226.465957 
L 139.389719 226.465957 
L 139.389719 225.966108 
L 139.533318 225.966108 
L 139.533318 224.966411 
L 139.652088 224.966411 
L 139.652088 224.466563 
L 140.272217 224.466563 
L 140.272217 223.966714 
L 140.581686 223.966714 
L 140.581686 223.466865 
L 140.767727 223.466865 
L 140.767727 222.967017 
L 140.929817 222.967017 
L 140.929817 222.467168 
L 141.046761 222.467168 
L 141.054044 221.467471 
L 141.191848 221.467471 
L 141.191848 220.467774 
L 141.955115 220.467774 
L 141.955115 219.468077 
L 142.419098 219.468077 
L 142.419098 218.46838 
L 142.666468 218.46838 
L 142.666468 217.468683 
L 143.388196 217.468683 
L 143.388196 216.968834 
L 143.995331 216.968834 
L 144.087359 215.969137 
L 144.154539 215.969137 
L 144.215388 214.469591 
L 144.438701 214.469591 
L 144.438701 212.470197 
L 145.063071 212.470197 
L 145.063071 211.970348 
L 145.281568 211.970348 
L 145.338615 210.970651 
L 145.553708 210.970651 
L 145.553708 210.470803 
L 145.904566 210.470803 
L 145.959614 209.471105 
L 146.47942 209.471105 
L 146.532686 208.471408 
L 146.591092 208.471408 
L 146.649302 207.471711 
L 147.097825 207.471711 
L 147.097825 205.972165 
L 147.241401 205.972165 
L 147.338159 204.972468 
L 147.525055 204.972468 
L 147.630247 202.973074 
L 147.858474 202.973074 
L 147.95678 201.973377 
L 148.093482 201.973377 
L 148.185638 200.97368 
L 148.349344 200.97368 
L 148.363715 198.974285 
L 148.52102 198.974285 
L 148.52102 198.474437 
L 149.07677 198.474437 
L 149.136423 195.975194 
L 149.305096 195.975194 
L 149.305096 194.975497 
L 149.449671 194.975497 
L 149.557321 193.475951 
L 149.619812 193.475951 
L 149.619812 192.476254 
L 149.902665 192.476254 
L 149.955193 190.976708 
L 150.146453 190.976708 
L 150.146453 188.977314 
L 150.416702 188.977314 
L 150.416702 188.477465 
L 150.602994 188.477465 
L 150.602994 187.977617 
L 150.774811 187.977617 
L 150.87046 185.478374 
L 151.039674 185.478374 
L 151.056095 184.478677 
L 151.585518 184.478677 
L 151.684751 182.979131 
L 151.998557 182.979131 
L 151.998557 182.479282 
L 152.191856 182.479282 
L 152.249431 178.980342 
L 152.337344 178.980342 
L 152.439984 177.980645 
L 152.474064 177.980645 
L 152.572143 176.980948 
L 152.740604 176.980948 
L 152.833495 173.981857 
L 153.152952 173.981857 
L 153.152952 173.482008 
L 153.287059 173.482008 
L 153.359122 171.482614 
L 153.530869 171.482614 
L 153.530869 170.982765 
L 153.788866 170.982765 
L 153.876352 169.48322 
L 153.914707 169.48322 
L 153.949502 167.983674 
L 154.129325 167.983674 
L 154.208275 165.98428 
L 154.358321 165.98428 
L 154.439623 164.484734 
L 154.486875 164.484734 
L 154.547439 162.48534 
L 154.63121 162.48534 
L 154.691276 161.485642 
L 154.847148 161.485642 
L 154.922921 160.485945 
L 154.965604 160.485945 
L 155.0376 157.486854 
L 155.293707 157.486854 
L 155.399584 155.48746 
L 155.431542 155.48746 
L 155.479369 151.488671 
L 155.55245 151.488671 
L 155.55245 150.488974 
L 155.669376 150.488974 
L 155.703987 148.989428 
L 155.810534 148.989428 
L 155.900902 147.989731 
L 155.981524 147.989731 
L 156.077167 146.990034 
L 156.117119 146.990034 
L 156.218128 144.490791 
L 156.330689 144.490791 
L 156.330689 143.990942 
L 156.502685 143.990942 
L 156.598505 142.491397 
L 156.619396 142.491397 
L 156.619396 141.491699 
L 156.773805 141.491699 
L 156.882847 138.492608 
L 157.011638 138.492608 
L 157.11051 136.493214 
L 157.179966 136.493214 
L 157.249147 135.493517 
L 157.420907 135.493517 
L 157.528821 132.994274 
L 157.540141 132.994274 
L 157.624812 130.994879 
L 157.751052 130.994879 
L 157.773399 129.495334 
L 157.915194 129.495334 
L 157.98704 126.996091 
L 158.058592 126.996091 
L 158.148986 125.996394 
L 158.417392 125.996394 
L 158.481843 123.497151 
L 158.556736 123.497151 
L 158.556736 122.997302 
L 158.67643 122.997302 
L 158.776868 120.997908 
L 158.818986 120.997908 
L 158.863624 119.998211 
L 158.947342 119.998211 
L 158.996859 118.498665 
L 159.069577 118.498665 
L 159.178088 114.000028 
L 159.268002 114.000028 
L 159.268002 113.500179 
L 159.390562 113.500179 
L 159.499629 112.000634 
L 159.545084 112.000634 
L 159.605506 111.000937 
L 159.753159 111.000937 
L 159.820315 108.001845 
L 159.963706 108.001845 
L 160.01288 105.502602 
L 160.142522 105.502602 
L 160.225184 104.003056 
L 160.37492 104.003056 
L 160.446914 103.003359 
L 160.606635 103.003359 
L 160.611381 101.503814 
L 160.741375 101.503814 
L 160.849359 98.504722 
L 160.993852 98.504722 
L 161.104901 97.005176 
L 161.109513 97.005176 
L 161.21983 94.505934 
L 161.352206 94.505934 
L 161.386278 93.506236 
L 161.499373 93.506236 
L 161.605019 92.506539 
L 161.64531 92.506539 
L 161.64531 92.006691 
L 161.792252 92.006691 
L 161.891735 90.007296 
L 162.021314 90.007296 
L 162.07375 88.507751 
L 162.14342 88.507751 
L 162.210648 87.508054 
L 162.284086 87.508054 
L 162.329291 85.508659 
L 162.547205 85.508659 
L 162.657259 82.509568 
L 162.741445 82.509568 
L 162.850284 81.010022 
L 162.894047 81.010022 
L 162.999872 79.510476 
L 163.076247 79.510476 
L 163.076247 79.010628 
L 163.191209 79.010628 
L 163.197346 77.511082 
L 163.335883 77.511082 
L 163.335883 77.011234 
L 163.461244 77.011234 
L 163.461244 76.511385 
L 163.601707 76.511385 
L 163.697374 74.012142 
L 163.869444 74.012142 
L 163.910725 70.513202 
L 164.004716 70.513202 
L 164.004716 69.013656 
L 164.167992 69.013656 
L 164.169927 68.013959 
L 164.289454 68.013959 
L 164.398623 66.514414 
L 164.411983 66.514414 
L 164.411983 65.514716 
L 164.613047 65.514716 
L 164.654488 64.515019 
L 164.778225 64.515019 
L 164.823003 63.015474 
L 165.421922 63.015474 
L 165.421922 62.515625 
L 165.574294 62.515625 
L 165.574294 62.015776 
L 165.995728 62.015776 
L 165.995728 61.515928 
L 166.108604 61.515928 
L 166.108604 60.516231 
L 166.468366 60.516231 
L 166.468366 59.516533 
L 166.652214 59.516533 
L 166.653892 58.516836 
L 166.777599 58.516836 
L 166.777599 57.017291 
L 167.071619 57.017291 
L 167.071619 56.017593 
L 167.187528 56.017593 
L 167.262214 55.017896 
L 167.455557 55.017896 
L 167.455557 54.518048 
L 167.934414 54.518048 
L 167.990444 52.018805 
L 168.125111 52.018805 
L 168.125111 51.019108 
L 168.267925 51.019108 
L 168.325944 50.019411 
L 168.467129 50.019411 
L 168.467129 49.519562 
L 168.668567 49.519562 
L 168.729739 48.519865 
L 168.95614 48.519865 
L 168.95614 48.020016 
L 169.143315 48.020016 
L 169.143315 47.520168 
L 169.780242 47.520168 
L 169.780242 47.020319 
L 170.061235 47.020319 
L 170.061235 46.520471 
L 170.363559 46.520471 
L 170.474414 45.520773 
L 170.918801 45.520773 
L 170.918801 45.020925 
L 171.105655 45.020925 
L 171.105655 44.521076 
L 171.246749 44.521076 
L 171.246749 44.021228 
L 338.688 44.021228 
L 338.688 44.021228 
" style="fill:none;stroke:#ff00ff;stroke-linecap:square;stroke-width:1.5;"/>
   </g>
   <g id="line2d_48">
    <defs>
     <path d="M -0 8.485281 
L 5.091169 0 
L 0 -8.485281 
L -5.091169 -0 
z
" id="m4274a8125a" style="stroke:#ff00ff;stroke-linejoin:miter;stroke-width:1.5;"/>
    </defs>
    <g>
     <use style="fill-opacity:0;stroke:#ff00ff;stroke-linejoin:miter;stroke-width:1.5;" x="163.076247" xlink:href="#m4274a8125a" y="79.010628"/>
     <use style="fill-opacity:0;stroke:#ff00ff;stroke-linejoin:miter;stroke-width:1.5;" x="171.246749" xlink:href="#m4274a8125a" y="44.521076"/>
     <use style="fill-opacity:0;stroke:#ff00ff;stroke-linejoin:miter;stroke-width:1.5;" x="171.246749" xlink:href="#m4274a8125a" y="44.021228"/>
     <use style="fill-opacity:0;stroke:#ff00ff;stroke-linejoin:miter;stroke-width:1.5;" x="171.246749" xlink:href="#m4274a8125a" y="44.021228"/>
     <use style="fill-opacity:0;stroke:#ff00ff;stroke-linejoin:miter;stroke-width:1.5;" x="338.688" xlink:href="#m4274a8125a" y="44.021228"/>
    </g>
   </g>
   <g id="line2d_49">
    <path style="fill:none;stroke:#ff00ff;stroke-linecap:square;stroke-width:1.5;"/>
    <g/>
   </g>
   <g id="line2d_50">
    <defs>
     <path d="M 0 1.5 
C 0.397805 1.5 0.77937 1.341951 1.06066 1.06066 
C 1.341951 0.77937 1.5 0.397805 1.5 0 
C 1.5 -0.397805 1.341951 -0.77937 1.06066 -1.06066 
C 0.77937 -1.341951 0.397805 -1.5 0 -1.5 
C -0.397805 -1.5 -0.77937 -1.341951 -1.06066 -1.06066 
C -1.341951 -0.77937 -1.5 -0.397805 -1.5 0 
C -1.5 0.397805 -1.341951 0.77937 -1.06066 1.06066 
C -0.77937 1.341951 -0.397805 1.5 0 1.5 
z
" id="m00ad398752" style="stroke:#ffa500;"/>
    </defs>
    <g>
     <use style="fill:#ffa500;stroke:#ffa500;" x="169.352951" xlink:href="#m00ad398752" y="44.021228"/>
     <use style="fill:#ffa500;stroke:#ffa500;" x="169.352951" xlink:href="#m00ad398752" y="44.021228"/>
    </g>
   </g>
   <g id="line2d_51">
    <path d="M 114.751048 298.944 
L 114.751048 297.444454 
L 114.882171 297.444454 
L 114.882171 296.944606 
L 115.141496 296.944606 
L 115.237757 293.445666 
L 115.33349 293.445666 
L 115.4287 292.445969 
L 115.523393 292.445969 
L 115.523393 291.446271 
L 115.804426 291.446271 
L 115.804426 290.946423 
L 116.262979 290.946423 
L 116.293125 288.947029 
L 116.38325 288.947029 
L 116.38325 287.947331 
L 116.621333 287.947331 
L 116.650866 285.947937 
L 116.768501 285.947937 
L 116.768501 285.448089 
L 116.914437 285.448089 
L 117.001416 284.448391 
L 117.059162 284.448391 
L 117.059162 283.948543 
L 117.316679 283.948543 
L 117.345058 281.4493 
L 117.654224 281.4493 
L 117.654224 280.949451 
L 117.903163 280.949451 
L 118.012672 277.450511 
L 118.039942 277.450511 
L 118.039942 275.950966 
L 118.310324 275.950966 
L 118.310324 274.45142 
L 118.470564 274.45142 
L 118.550135 272.951874 
L 118.655668 272.951874 
L 118.760566 269.952783 
L 119.097192 269.952783 
L 119.199476 268.453237 
L 119.224953 268.453237 
L 119.326492 262.954903 
L 119.552816 262.954903 
L 119.552816 262.455054 
L 119.677294 262.455054 
L 119.677294 261.955206 
L 119.850084 261.955206 
L 119.874629 259.455963 
L 119.972465 259.455963 
L 119.972465 258.456266 
L 120.142369 258.456266 
L 120.190611 256.95672 
L 120.262724 256.95672 
L 120.262724 256.456871 
L 120.453579 256.456871 
L 120.47729 255.457174 
L 120.665825 255.457174 
L 120.736003 252.458083 
L 121.264855 252.458083 
L 121.310093 251.458386 
L 121.579085 251.458386 
L 121.623516 250.458688 
L 121.84399 250.458688 
L 121.953191 249.458991 
L 122.061712 249.458991 
L 122.061712 248.959143 
L 122.573415 248.959143 
L 122.615387 247.459597 
L 122.823744 247.459597 
L 122.823744 246.959748 
L 122.947573 246.959748 
L 122.947573 245.960051 
L 123.212892 245.960051 
L 123.212892 245.460203 
L 124.349787 245.460203 
L 124.349787 244.960354 
L 129.714332 244.960354 
L 129.714332 244.460506 
L 132.218276 244.460506 
L 132.218276 243.960657 
L 132.350712 243.960657 
L 132.350712 242.96096 
L 132.648014 242.96096 
L 132.648014 242.461111 
L 132.917126 242.461111 
L 132.917126 241.961263 
L 133.755823 241.961263 
L 133.755823 240.961566 
L 134.407429 240.961566 
L 134.513701 239.46202 
L 134.703375 239.46202 
L 134.703375 238.962171 
L 135.260324 238.962171 
L 135.260324 238.462323 
L 135.381712 238.462323 
L 135.381712 237.962474 
L 135.542259 237.962474 
L 135.542259 236.962777 
L 135.898175 236.962777 
L 135.898175 236.462928 
L 136.102487 236.462928 
L 136.102487 235.463231 
L 136.645276 235.463231 
L 136.645276 234.463534 
L 136.887363 234.463534 
L 136.997972 232.963988 
L 137.585209 232.963988 
L 137.691492 231.464443 
L 137.919575 231.464443 
L 137.919575 230.964594 
L 138.041164 230.964594 
L 138.144712 229.465048 
L 138.324456 229.465048 
L 138.324456 228.9652 
L 138.803195 228.9652 
L 138.803195 227.965503 
L 139.341588 227.965503 
L 139.341588 227.465654 
L 139.557137 227.465654 
L 139.557137 226.465957 
L 139.722963 226.465957 
L 139.722963 225.966108 
L 140.2646 225.966108 
L 140.317849 224.966411 
L 140.589166 224.966411 
L 140.589166 224.466563 
L 141.513945 224.466563 
L 141.513945 223.966714 
L 141.634094 223.966714 
L 141.634094 223.466865 
L 142.010346 223.466865 
L 142.010346 222.967017 
L 142.215919 222.967017 
L 142.215919 222.467168 
L 142.365148 222.467168 
L 142.44601 220.967623 
L 142.653186 220.967623 
L 142.653186 220.467774 
L 142.798734 220.467774 
L 142.798734 219.468077 
L 142.943078 219.468077 
L 142.943078 218.968228 
L 143.247504 218.968228 
L 143.337167 217.968531 
L 143.647403 217.968531 
L 143.691276 216.968834 
L 143.958383 216.968834 
L 143.958383 216.468985 
L 144.136243 216.468985 
L 144.136243 215.469288 
L 144.35454 215.469288 
L 144.438701 213.969743 
L 145.068856 213.969743 
L 145.068856 213.469894 
L 145.281568 213.469894 
L 145.372754 211.4705 
L 145.406826 211.4705 
L 145.406826 210.470803 
L 145.76618 210.470803 
L 145.777292 208.471408 
L 145.904566 208.471408 
L 146.00901 206.971863 
L 146.216039 206.971863 
L 146.216039 206.472014 
L 146.367029 206.472014 
L 146.367029 205.472317 
L 146.532686 205.472317 
L 146.532686 204.972468 
L 146.796603 204.972468 
L 146.843687 202.973074 
L 147.277111 202.973074 
L 147.363533 200.473831 
L 147.459617 200.473831 
L 147.459617 199.474134 
L 147.675136 199.474134 
L 147.675136 198.974285 
L 147.95678 198.974285 
L 148.064279 197.47474 
L 148.093482 197.47474 
L 148.117781 196.475043 
L 148.286932 196.475043 
L 148.344551 194.975497 
L 148.40198 194.975497 
L 148.40198 194.475648 
L 148.516274 194.475648 
L 148.587329 192.476254 
L 148.643965 192.476254 
L 148.695721 191.476557 
L 148.854728 191.476557 
L 148.854728 189.977011 
L 149.00307 189.977011 
L 149.039959 188.477465 
L 149.200437 188.477465 
L 149.200437 187.477768 
L 149.359452 187.477768 
L 149.458667 186.478071 
L 149.72642 186.478071 
L 149.72642 185.478374 
L 149.998846 185.478374 
L 149.998846 184.478677 
L 150.335638 184.478677 
L 150.442223 182.479282 
L 150.454969 182.479282 
L 150.518562 180.979737 
L 150.712147 180.979737 
L 150.816462 178.980342 
L 150.862163 178.980342 
L 150.957336 177.980645 
L 151.0643 177.980645 
L 151.133886 176.4811 
L 151.227591 176.4811 
L 151.235715 175.481402 
L 151.397416 175.481402 
L 151.397416 174.481705 
L 151.601433 174.481705 
L 151.601433 173.482008 
L 151.779487 173.482008 
L 151.850203 172.482311 
L 152.021866 172.482311 
L 152.021866 171.982462 
L 152.203386 171.982462 
L 152.295354 169.48322 
L 152.31827 169.48322 
L 152.337344 168.483522 
L 152.523173 168.483522 
L 152.523173 167.983674 
L 152.699575 167.983674 
L 152.714506 166.983977 
L 152.877907 166.983977 
L 152.970072 165.484431 
L 152.999462 165.484431 
L 153.054435 164.484734 
L 153.31592 164.484734 
L 153.423725 161.985491 
L 153.559329 161.985491 
L 153.577094 158.486551 
L 153.704466 158.486551 
L 153.806399 155.987308 
L 153.869369 155.987308 
L 153.869369 155.48746 
L 154.036187 155.48746 
L 154.108671 153.987914 
L 154.283459 153.987914 
L 154.286869 151.488671 
L 154.446381 151.488671 
L 154.527275 148.489579 
L 154.647916 148.489579 
L 154.734529 144.990639 
L 154.936065 144.990639 
L 155.0376 142.991245 
L 155.053921 142.991245 
L 155.053921 142.491397 
L 155.206599 142.491397 
L 155.235683 141.491699 
L 155.380382 141.491699 
L 155.469814 137.992759 
L 155.546107 137.992759 
L 155.549279 136.493214 
L 155.666226 136.493214 
L 155.678822 134.993668 
L 155.969145 134.993668 
L 156.034038 132.994274 
L 156.236431 132.994274 
L 156.330689 131.494728 
L 156.478647 131.494728 
L 156.550661 128.995485 
L 156.598505 128.995485 
L 156.68489 127.495939 
L 156.747178 127.495939 
L 156.800392 124.996697 
L 156.871092 124.996697 
L 156.9034 123.996999 
L 157.125003 123.996999 
L 157.228997 120.997908 
L 157.266399 120.997908 
L 157.352406 116.499271 
L 157.38669 116.499271 
L 157.460743 115.499574 
L 157.590993 115.499574 
L 157.692253 114.499877 
L 157.731474 114.499877 
L 157.831925 113.500179 
L 157.862503 113.500179 
L 157.959442 112.000634 
L 158.069574 112.000634 
L 158.127115 109.001542 
L 158.192646 109.001542 
L 158.298611 106.002451 
L 158.347301 106.002451 
L 158.360802 104.502905 
L 158.583406 104.502905 
L 158.673779 102.503511 
L 158.705563 102.503511 
L 158.76896 100.504116 
L 158.905533 100.504116 
L 158.931675 99.004571 
L 159.178088 99.004571 
L 159.219249 97.505025 
L 159.298723 97.505025 
L 159.298723 97.005176 
L 159.484452 97.005176 
L 159.527421 94.006085 
L 159.635638 94.006085 
L 159.725725 92.506539 
L 159.783038 92.506539 
L 159.879792 90.507145 
L 159.911925 90.507145 
L 160.007969 89.507448 
L 160.088825 89.507448 
L 160.144959 88.007902 
L 160.20577 88.007902 
L 160.232459 87.008205 
L 160.377325 87.008205 
L 160.468454 85.508659 
L 160.609008 85.508659 
L 160.684769 84.508962 
L 160.767258 84.508962 
L 160.800145 83.509265 
L 160.914762 83.509265 
L 160.914762 83.009416 
L 161.026314 83.009416 
L 161.114123 80.010325 
L 161.245013 80.010325 
L 161.245013 79.510476 
L 161.424813 79.510476 
L 161.483584 78.010931 
L 161.64531 78.010931 
L 161.730064 77.011234 
L 161.88953 77.011234 
L 161.88953 75.511688 
L 162.021314 75.511688 
L 162.021314 74.511991 
L 162.309932 74.511991 
L 162.309932 73.512294 
L 162.425765 73.512294 
L 162.44286 72.512596 
L 162.707819 72.512596 
L 162.816868 70.013354 
L 163.697374 70.013354 
L 163.739064 68.013959 
L 163.857631 68.013959 
L 163.957784 67.014262 
L 164.123438 67.014262 
L 164.123438 66.514414 
L 164.250986 66.514414 
L 164.346996 65.014868 
L 164.394804 65.014868 
L 164.44629 63.515322 
L 164.558269 63.515322 
L 164.620589 61.515928 
L 164.705214 61.515928 
L 164.81182 60.016382 
L 164.949254 60.016382 
L 164.949254 59.016685 
L 165.164364 59.016685 
L 165.22638 57.017291 
L 165.400303 57.017291 
L 165.486619 55.517745 
L 165.533195 55.517745 
L 165.593916 54.518048 
L 165.730653 54.518048 
L 165.831189 53.018502 
L 165.911902 53.018502 
L 165.941636 51.019108 
L 166.06007 51.019108 
L 166.127634 50.019411 
L 166.316801 50.019411 
L 166.332187 49.019713 
L 166.571492 49.019713 
L 166.632069 48.020016 
L 166.971417 48.020016 
L 166.971417 47.520168 
L 168.137442 47.520168 
L 168.137442 47.020319 
L 168.435348 47.020319 
L 168.435348 46.520471 
L 169.108373 46.520471 
L 169.108373 46.020622 
L 169.352951 46.020622 
L 169.352951 44.021228 
L 338.688 44.021228 
L 338.688 44.021228 
" style="fill:none;stroke:#ffa500;stroke-linecap:square;stroke-width:1.5;"/>
   </g>
   <g id="line2d_52">
    <defs>
     <path d="M 0 -6 
L -1.347084 -1.854102 
L -5.706339 -1.854102 
L -2.179628 0.708204 
L -3.526712 4.854102 
L -0 2.291796 
L 3.526712 4.854102 
L 2.179628 0.708204 
L 5.706339 -1.854102 
L 1.347084 -1.854102 
z
" id="m99ed9be177" style="stroke:#ffa500;stroke-linejoin:bevel;stroke-width:1.5;"/>
    </defs>
    <g>
     <use style="fill-opacity:0;stroke:#ffa500;stroke-linejoin:bevel;stroke-width:1.5;" x="146.216039" xlink:href="#m99ed9be177" y="206.472014"/>
     <use style="fill-opacity:0;stroke:#ffa500;stroke-linejoin:bevel;stroke-width:1.5;" x="169.352951" xlink:href="#m99ed9be177" y="46.020622"/>
     <use style="fill-opacity:0;stroke:#ffa500;stroke-linejoin:bevel;stroke-width:1.5;" x="169.352951" xlink:href="#m99ed9be177" y="44.021228"/>
     <use style="fill-opacity:0;stroke:#ffa500;stroke-linejoin:bevel;stroke-width:1.5;" x="169.352951" xlink:href="#m99ed9be177" y="44.021228"/>
     <use style="fill-opacity:0;stroke:#ffa500;stroke-linejoin:bevel;stroke-width:1.5;" x="338.688" xlink:href="#m99ed9be177" y="44.021228"/>
    </g>
   </g>
   <g id="line2d_53">
    <path style="fill:none;stroke:#ffa500;stroke-linecap:square;stroke-width:1.5;"/>
    <g/>
   </g>
   <g id="line2d_54">
    <path d="M 338.688 44.021228 
L 369.60768 212.270257 
" style="fill:none;stroke:#ff00ff;stroke-linecap:square;stroke-width:1.5;"/>
    <g>
     <use style="fill-opacity:0;stroke:#ff00ff;stroke-linejoin:miter;stroke-width:1.5;" x="338.688" xlink:href="#m4274a8125a" y="44.021228"/>
     <use style="fill-opacity:0;stroke:#ff00ff;stroke-linejoin:miter;stroke-width:1.5;" x="369.60768" xlink:href="#m4274a8125a" y="212.270257"/>
    </g>
   </g>
   <g id="line2d_55">
    <path d="M 338.688 44.021228 
L 369.60768 130.69497 
" style="fill:none;stroke:#000080;stroke-linecap:square;stroke-width:1.5;"/>
    <g>
     <use style="fill-opacity:0;stroke:#000080;stroke-width:1.5;" x="338.688" xlink:href="#m37ae02dc20" y="44.021228"/>
     <use style="fill-opacity:0;stroke:#000080;stroke-width:1.5;" x="369.60768" xlink:href="#m37ae02dc20" y="130.69497"/>
    </g>
   </g>
   <g id="line2d_56">
    <path d="M 338.688 44.021228 
L 369.60768 49.119683 
" style="fill:none;stroke:#ffa500;stroke-linecap:square;stroke-width:1.5;"/>
    <g>
     <use style="fill-opacity:0;stroke:#ffa500;stroke-linejoin:bevel;stroke-width:1.5;" x="338.688" xlink:href="#m99ed9be177" y="44.021228"/>
     <use style="fill-opacity:0;stroke:#ffa500;stroke-linejoin:bevel;stroke-width:1.5;" x="369.60768" xlink:href="#m99ed9be177" y="49.119683"/>
    </g>
   </g>
   <g id="line2d_57">
    <path d="M 338.688 298.944 
L 338.688 44.021228 
" style="fill:none;stroke:#000000;stroke-linecap:square;stroke-width:1.5;"/>
   </g>
   <g id="patch_3">
    <path d="M 57.6 298.944 
L 57.6 41.472 
" style="fill:none;stroke:#000000;stroke-linecap:square;stroke-linejoin:miter;stroke-width:0.8;"/>
   </g>
   <g id="patch_4">
    <path d="M 338.688 298.944 
L 338.688 41.472 
" style="fill:none;stroke:#000000;stroke-linecap:square;stroke-linejoin:miter;stroke-width:0.8;"/>
   </g>
   <g id="patch_5">
    <path d="M 57.6 298.944 
L 338.688 298.944 
" style="fill:none;stroke:#000000;stroke-linecap:square;stroke-linejoin:miter;stroke-width:0.8;"/>
   </g>
   <g id="patch_6">
    <path d="M 57.6 41.472 
L 338.688 41.472 
" style="fill:none;stroke:#000000;stroke-linecap:square;stroke-linejoin:miter;stroke-width:0.8;"/>
   </g>
   <g id="text_13">
    <!-- best 2009 -->
    <defs>
     <path d="M 48.6875 27.296875 
Q 48.6875 37.203125 44.609375 42.84375 
Q 40.53125 48.484375 33.40625 48.484375 
Q 26.265625 48.484375 22.1875 42.84375 
Q 18.109375 37.203125 18.109375 27.296875 
Q 18.109375 17.390625 22.1875 11.75 
Q 26.265625 6.109375 33.40625 6.109375 
Q 40.53125 6.109375 44.609375 11.75 
Q 48.6875 17.390625 48.6875 27.296875 
z
M 18.109375 46.390625 
Q 20.953125 51.265625 25.265625 53.625 
Q 29.59375 56 35.59375 56 
Q 45.5625 56 51.78125 48.09375 
Q 58.015625 40.1875 58.015625 27.296875 
Q 58.015625 14.40625 51.78125 6.484375 
Q 45.5625 -1.421875 35.59375 -1.421875 
Q 29.59375 -1.421875 25.265625 0.953125 
Q 20.953125 3.328125 18.109375 8.203125 
L 18.109375 0 
L 9.078125 0 
L 9.078125 75.984375 
L 18.109375 75.984375 
z
" id="DejaVuSans-98"/>
     <path d="M 10.984375 1.515625 
L 10.984375 10.5 
Q 14.703125 8.734375 18.5 7.8125 
Q 22.3125 6.890625 25.984375 6.890625 
Q 35.75 6.890625 40.890625 13.453125 
Q 46.046875 20.015625 46.78125 33.40625 
Q 43.953125 29.203125 39.59375 26.953125 
Q 35.25 24.703125 29.984375 24.703125 
Q 19.046875 24.703125 12.671875 31.3125 
Q 6.296875 37.9375 6.296875 49.421875 
Q 6.296875 60.640625 12.9375 67.421875 
Q 19.578125 74.21875 30.609375 74.21875 
Q 43.265625 74.21875 49.921875 64.515625 
Q 56.59375 54.828125 56.59375 36.375 
Q 56.59375 19.140625 48.40625 8.859375 
Q 40.234375 -1.421875 26.421875 -1.421875 
Q 22.703125 -1.421875 18.890625 -0.6875 
Q 15.09375 0.046875 10.984375 1.515625 
z
M 30.609375 32.421875 
Q 37.25 32.421875 41.125 36.953125 
Q 45.015625 41.5 45.015625 49.421875 
Q 45.015625 57.28125 41.125 61.84375 
Q 37.25 66.40625 30.609375 66.40625 
Q 23.96875 66.40625 20.09375 61.84375 
Q 16.21875 57.28125 16.21875 49.421875 
Q 16.21875 41.5 20.09375 36.953125 
Q 23.96875 32.421875 30.609375 32.421875 
z
" id="DejaVuSans-57"/>
    </defs>
    <g transform="translate(375.22944 298.536482)scale(0.17 -0.17)">
     <use xlink:href="#DejaVuSans-98"/>
     <use x="63.476562" xlink:href="#DejaVuSans-101"/>
     <use x="125" xlink:href="#DejaVuSans-115"/>
     <use x="177.099609" xlink:href="#DejaVuSans-116"/>
     <use x="216.308594" xlink:href="#DejaVuSans-32"/>
     <use x="248.095703" xlink:href="#DejaVuSans-50"/>
     <use x="311.71875" xlink:href="#DejaVuSans-48"/>
     <use x="375.341797" xlink:href="#DejaVuSans-48"/>
     <use x="438.964844" xlink:href="#DejaVuSans-57"/>
    </g>
   </g>
   <g id="text_14">
    <!-- IPOPsaACM -->
    <defs>
     <path d="M 9.8125 72.90625 
L 19.671875 72.90625 
L 19.671875 0 
L 9.8125 0 
z
" id="DejaVuSans-73"/>
     <path d="M 19.671875 64.796875 
L 19.671875 37.40625 
L 32.078125 37.40625 
Q 38.96875 37.40625 42.71875 40.96875 
Q 46.484375 44.53125 46.484375 51.125 
Q 46.484375 57.671875 42.71875 61.234375 
Q 38.96875 64.796875 32.078125 64.796875 
z
M 9.8125 72.90625 
L 32.078125 72.90625 
Q 44.34375 72.90625 50.609375 67.359375 
Q 56.890625 61.8125 56.890625 51.125 
Q 56.890625 40.328125 50.609375 34.8125 
Q 44.34375 29.296875 32.078125 29.296875 
L 19.671875 29.296875 
L 19.671875 0 
L 9.8125 0 
z
" id="DejaVuSans-80"/>
     <path d="M 39.40625 66.21875 
Q 28.65625 66.21875 22.328125 58.203125 
Q 16.015625 50.203125 16.015625 36.375 
Q 16.015625 22.609375 22.328125 14.59375 
Q 28.65625 6.59375 39.40625 6.59375 
Q 50.140625 6.59375 56.421875 14.59375 
Q 62.703125 22.609375 62.703125 36.375 
Q 62.703125 50.203125 56.421875 58.203125 
Q 50.140625 66.21875 39.40625 66.21875 
z
M 39.40625 74.21875 
Q 54.734375 74.21875 63.90625 63.9375 
Q 73.09375 53.65625 73.09375 36.375 
Q 73.09375 19.140625 63.90625 8.859375 
Q 54.734375 -1.421875 39.40625 -1.421875 
Q 24.03125 -1.421875 14.8125 8.828125 
Q 5.609375 19.09375 5.609375 36.375 
Q 5.609375 53.65625 14.8125 63.9375 
Q 24.03125 74.21875 39.40625 74.21875 
z
" id="DejaVuSans-79"/>
     <path d="M 34.1875 63.1875 
L 20.796875 26.90625 
L 47.609375 26.90625 
z
M 28.609375 72.90625 
L 39.796875 72.90625 
L 67.578125 0 
L 57.328125 0 
L 50.6875 18.703125 
L 17.828125 18.703125 
L 11.1875 0 
L 0.78125 0 
z
" id="DejaVuSans-65"/>
     <path d="M 64.40625 67.28125 
L 64.40625 56.890625 
Q 59.421875 61.53125 53.78125 63.8125 
Q 48.140625 66.109375 41.796875 66.109375 
Q 29.296875 66.109375 22.65625 58.46875 
Q 16.015625 50.828125 16.015625 36.375 
Q 16.015625 21.96875 22.65625 14.328125 
Q 29.296875 6.6875 41.796875 6.6875 
Q 48.140625 6.6875 53.78125 8.984375 
Q 59.421875 11.28125 64.40625 15.921875 
L 64.40625 5.609375 
Q 59.234375 2.09375 53.4375 0.328125 
Q 47.65625 -1.421875 41.21875 -1.421875 
Q 24.65625 -1.421875 15.125 8.703125 
Q 5.609375 18.84375 5.609375 36.375 
Q 5.609375 53.953125 15.125 64.078125 
Q 24.65625 74.21875 41.21875 74.21875 
Q 47.75 74.21875 53.53125 72.484375 
Q 59.328125 70.75 64.40625 67.28125 
z
" id="DejaVuSans-67"/>
     <path d="M 9.8125 72.90625 
L 24.515625 72.90625 
L 43.109375 23.296875 
L 61.8125 72.90625 
L 76.515625 72.90625 
L 76.515625 0 
L 66.890625 0 
L 66.890625 64.015625 
L 48.09375 14.015625 
L 38.1875 14.015625 
L 19.390625 64.015625 
L 19.390625 0 
L 9.8125 0 
z
" id="DejaVuSans-77"/>
    </defs>
    <g transform="translate(375.22944 216.961195)scale(0.17 -0.17)">
     <use xlink:href="#DejaVuSans-73"/>
     <use x="29.492188" xlink:href="#DejaVuSans-80"/>
     <use x="89.794922" xlink:href="#DejaVuSans-79"/>
     <use x="168.505859" xlink:href="#DejaVuSans-80"/>
     <use x="228.792969" xlink:href="#DejaVuSans-115"/>
     <use x="280.892578" xlink:href="#DejaVuSans-97"/>
     <use x="342.171875" xlink:href="#DejaVuSans-65"/>
     <use x="410.564453" xlink:href="#DejaVuSans-67"/>
     <use x="480.388672" xlink:href="#DejaVuSans-77"/>
    </g>
   </g>
   <g id="text_15">
    <!-- BIPOPsaAC -->
    <defs>
     <path d="M 19.671875 34.8125 
L 19.671875 8.109375 
L 35.5 8.109375 
Q 43.453125 8.109375 47.28125 11.40625 
Q 51.125 14.703125 51.125 21.484375 
Q 51.125 28.328125 47.28125 31.5625 
Q 43.453125 34.8125 35.5 34.8125 
z
M 19.671875 64.796875 
L 19.671875 42.828125 
L 34.28125 42.828125 
Q 41.5 42.828125 45.03125 45.53125 
Q 48.578125 48.25 48.578125 53.8125 
Q 48.578125 59.328125 45.03125 62.0625 
Q 41.5 64.796875 34.28125 64.796875 
z
M 9.8125 72.90625 
L 35.015625 72.90625 
Q 46.296875 72.90625 52.390625 68.21875 
Q 58.5 63.53125 58.5 54.890625 
Q 58.5 48.1875 55.375 44.234375 
Q 52.25 40.28125 46.1875 39.3125 
Q 53.46875 37.75 57.5 32.78125 
Q 61.53125 27.828125 61.53125 20.40625 
Q 61.53125 10.640625 54.890625 5.3125 
Q 48.25 0 35.984375 0 
L 9.8125 0 
z
" id="DejaVuSans-66"/>
    </defs>
    <g transform="translate(375.22944 135.385908)scale(0.17 -0.17)">
     <use xlink:href="#DejaVuSans-66"/>
     <use x="68.603516" xlink:href="#DejaVuSans-73"/>
     <use x="98.095703" xlink:href="#DejaVuSans-80"/>
     <use x="158.398438" xlink:href="#DejaVuSans-79"/>
     <use x="237.109375" xlink:href="#DejaVuSans-80"/>
     <use x="297.396484" xlink:href="#DejaVuSans-115"/>
     <use x="349.496094" xlink:href="#DejaVuSans-97"/>
     <use x="410.775391" xlink:href="#DejaVuSans-65"/>
     <use x="479.167969" xlink:href="#DejaVuSans-67"/>
    </g>
   </g>
   <g id="text_16">
    <!-- BIPOP-saA -->
    <g transform="translate(375.22944 53.810621)scale(0.17 -0.17)">
     <use xlink:href="#DejaVuSans-66"/>
     <use x="68.603516" xlink:href="#DejaVuSans-73"/>
     <use x="98.095703" xlink:href="#DejaVuSans-80"/>
     <use x="158.398438" xlink:href="#DejaVuSans-79"/>
     <use x="237.109375" xlink:href="#DejaVuSans-80"/>
     <use x="297.380859" xlink:href="#DejaVuSans-45"/>
     <use x="333.464844" xlink:href="#DejaVuSans-115"/>
     <use x="385.564453" xlink:href="#DejaVuSans-97"/>
     <use x="446.84375" xlink:href="#DejaVuSans-65"/>
    </g>
   </g>
   <g id="text_17">
    <!-- bbob f12, 20-D -->
    <defs>
     <path d="M 19.671875 64.796875 
L 19.671875 8.109375 
L 31.59375 8.109375 
Q 46.6875 8.109375 53.6875 14.9375 
Q 60.6875 21.78125 60.6875 36.53125 
Q 60.6875 51.171875 53.6875 57.984375 
Q 46.6875 64.796875 31.59375 64.796875 
z
M 9.8125 72.90625 
L 30.078125 72.90625 
Q 51.265625 72.90625 61.171875 64.09375 
Q 71.09375 55.28125 71.09375 36.53125 
Q 71.09375 17.671875 61.125 8.828125 
Q 51.171875 0 30.078125 0 
L 9.8125 0 
z
" id="DejaVuSans-68"/>
    </defs>
    <g transform="translate(60.41088 51.797126)scale(0.102 -0.102)">
     <use xlink:href="#DejaVuSans-98"/>
     <use x="63.476562" xlink:href="#DejaVuSans-98"/>
     <use x="126.953125" xlink:href="#DejaVuSans-111"/>
     <use x="188.134766" xlink:href="#DejaVuSans-98"/>
     <use x="251.611328" xlink:href="#DejaVuSans-32"/>
     <use x="283.398438" xlink:href="#DejaVuSans-102"/>
     <use x="318.603516" xlink:href="#DejaVuSans-49"/>
     <use x="382.226562" xlink:href="#DejaVuSans-50"/>
     <use x="445.849609" xlink:href="#DejaVuSans-44"/>
     <use x="477.636719" xlink:href="#DejaVuSans-32"/>
     <use x="509.423828" xlink:href="#DejaVuSans-50"/>
     <use x="573.046875" xlink:href="#DejaVuSans-48"/>
     <use x="636.669922" xlink:href="#DejaVuSans-45"/>
     <use x="672.753906" xlink:href="#DejaVuSans-68"/>
    </g>
    <!-- 51 targets: 100..1e-08 -->
    <defs>
     <path d="M 10.796875 72.90625 
L 49.515625 72.90625 
L 49.515625 64.59375 
L 19.828125 64.59375 
L 19.828125 46.734375 
Q 21.96875 47.46875 24.109375 47.828125 
Q 26.265625 48.1875 28.421875 48.1875 
Q 40.625 48.1875 47.75 41.5 
Q 54.890625 34.8125 54.890625 23.390625 
Q 54.890625 11.625 47.5625 5.09375 
Q 40.234375 -1.421875 26.90625 -1.421875 
Q 22.3125 -1.421875 17.546875 -0.640625 
Q 12.796875 0.140625 7.71875 1.703125 
L 7.71875 11.625 
Q 12.109375 9.234375 16.796875 8.0625 
Q 21.484375 6.890625 26.703125 6.890625 
Q 35.15625 6.890625 40.078125 11.328125 
Q 45.015625 15.765625 45.015625 23.390625 
Q 45.015625 31 40.078125 35.4375 
Q 35.15625 39.890625 26.703125 39.890625 
Q 22.75 39.890625 18.8125 39.015625 
Q 14.890625 38.140625 10.796875 36.28125 
z
" id="DejaVuSans-53"/>
     <path d="M 11.71875 12.40625 
L 22.015625 12.40625 
L 22.015625 0 
L 11.71875 0 
z
M 11.71875 51.703125 
L 22.015625 51.703125 
L 22.015625 39.3125 
L 11.71875 39.3125 
z
" id="DejaVuSans-58"/>
    </defs>
    <g transform="translate(60.41088 63.218895)scale(0.102 -0.102)">
     <use xlink:href="#DejaVuSans-53"/>
     <use x="63.623047" xlink:href="#DejaVuSans-49"/>
     <use x="127.246094" xlink:href="#DejaVuSans-32"/>
     <use x="159.033203" xlink:href="#DejaVuSans-116"/>
     <use x="198.242188" xlink:href="#DejaVuSans-97"/>
     <use x="259.521484" xlink:href="#DejaVuSans-114"/>
     <use x="300.619141" xlink:href="#DejaVuSans-103"/>
     <use x="364.095703" xlink:href="#DejaVuSans-101"/>
     <use x="425.619141" xlink:href="#DejaVuSans-116"/>
     <use x="464.828125" xlink:href="#DejaVuSans-115"/>
     <use x="516.927734" xlink:href="#DejaVuSans-58"/>
     <use x="550.619141" xlink:href="#DejaVuSans-32"/>
     <use x="582.40625" xlink:href="#DejaVuSans-49"/>
     <use x="646.029297" xlink:href="#DejaVuSans-48"/>
     <use x="709.652344" xlink:href="#DejaVuSans-48"/>
     <use x="773.275391" xlink:href="#DejaVuSans-46"/>
     <use x="805.0625" xlink:href="#DejaVuSans-46"/>
     <use x="836.849609" xlink:href="#DejaVuSans-49"/>
     <use x="900.472656" xlink:href="#DejaVuSans-101"/>
     <use x="961.996094" xlink:href="#DejaVuSans-45"/>
     <use x="998.080078" xlink:href="#DejaVuSans-48"/>
     <use x="1061.703125" xlink:href="#DejaVuSans-56"/>
    </g>
    <!-- 15 instances -->
    <g transform="translate(60.41088 74.640664)scale(0.102 -0.102)">
     <use xlink:href="#DejaVuSans-49"/>
     <use x="63.623047" xlink:href="#DejaVuSans-53"/>
     <use x="127.246094" xlink:href="#DejaVuSans-32"/>
     <use x="159.033203" xlink:href="#DejaVuSans-105"/>
     <use x="186.816406" xlink:href="#DejaVuSans-110"/>
     <use x="250.195312" xlink:href="#DejaVuSans-115"/>
     <use x="302.294922" xlink:href="#DejaVuSans-116"/>
     <use x="341.503906" xlink:href="#DejaVuSans-97"/>
     <use x="402.783203" xlink:href="#DejaVuSans-110"/>
     <use x="466.162109" xlink:href="#DejaVuSans-99"/>
     <use x="521.142578" xlink:href="#DejaVuSans-101"/>
     <use x="582.666016" xlink:href="#DejaVuSans-115"/>
    </g>
   </g>
   <g id="text_18">
    <!-- v2.3.14 -->
    <defs>
     <path d="M 40.578125 39.3125 
Q 47.65625 37.796875 51.625 33 
Q 55.609375 28.21875 55.609375 21.1875 
Q 55.609375 10.40625 48.1875 4.484375 
Q 40.765625 -1.421875 27.09375 -1.421875 
Q 22.515625 -1.421875 17.65625 -0.515625 
Q 12.796875 0.390625 7.625 2.203125 
L 7.625 11.71875 
Q 11.71875 9.328125 16.59375 8.109375 
Q 21.484375 6.890625 26.8125 6.890625 
Q 36.078125 6.890625 40.9375 10.546875 
Q 45.796875 14.203125 45.796875 21.1875 
Q 45.796875 27.640625 41.28125 31.265625 
Q 36.765625 34.90625 28.71875 34.90625 
L 20.21875 34.90625 
L 20.21875 43.015625 
L 29.109375 43.015625 
Q 36.375 43.015625 40.234375 45.921875 
Q 44.09375 48.828125 44.09375 54.296875 
Q 44.09375 59.90625 40.109375 62.90625 
Q 36.140625 65.921875 28.71875 65.921875 
Q 24.65625 65.921875 20.015625 65.03125 
Q 15.375 64.15625 9.8125 62.3125 
L 9.8125 71.09375 
Q 15.4375 72.65625 20.34375 73.4375 
Q 25.25 74.21875 29.59375 74.21875 
Q 40.828125 74.21875 47.359375 69.109375 
Q 53.90625 64.015625 53.90625 55.328125 
Q 53.90625 49.265625 50.4375 45.09375 
Q 46.96875 40.921875 40.578125 39.3125 
z
" id="DejaVuSans-51"/>
    </defs>
    <g style="fill:#808080;" transform="translate(179.2815 294.289592)scale(0.1 -0.1)">
     <use xlink:href="#DejaVuSans-118"/>
     <use x="59.179688" xlink:href="#DejaVuSans-50"/>
     <use x="122.802734" xlink:href="#DejaVuSans-46"/>
     <use x="154.589844" xlink:href="#DejaVuSans-51"/>
     <use x="218.212891" xlink:href="#DejaVuSans-46"/>
     <use x="250" xlink:href="#DejaVuSans-49"/>
     <use x="313.623047" xlink:href="#DejaVuSans-52"/>
    </g>
   </g>
   <g id="text_19">
    <!-- 12 Bent cigar -->
    <g transform="translate(130.926812 35.472)scale(0.2 -0.2)">
     <use xlink:href="#DejaVuSans-49"/>
     <use x="63.623047" xlink:href="#DejaVuSans-50"/>
     <use x="127.246094" xlink:href="#DejaVuSans-32"/>
     <use x="159.033203" xlink:href="#DejaVuSans-66"/>
     <use x="227.636719" xlink:href="#DejaVuSans-101"/>
     <use x="289.160156" xlink:href="#DejaVuSans-110"/>
     <use x="352.539062" xlink:href="#DejaVuSans-116"/>
     <use x="391.748047" xlink:href="#DejaVuSans-32"/>
     <use x="423.535156" xlink:href="#DejaVuSans-99"/>
     <use x="478.515625" xlink:href="#DejaVuSans-105"/>
     <use x="506.298828" xlink:href="#DejaVuSans-103"/>
     <use x="569.775391" xlink:href="#DejaVuSans-97"/>
     <use x="631.054688" xlink:href="#DejaVuSans-114"/>
    </g>
   </g>
  </g>
 </g>
 <defs>
  <clipPath id="pf8830fc774">
   <rect height="257.472" width="281.088" x="57.6" y="41.472"/>
  </clipPath>
 </defs>
</svg>
