<?xml version="1.0" encoding="utf-8" standalone="no"?>
<!DOCTYPE svg PUBLIC "-//W3C//DTD SVG 1.1//EN"
  "http://www.w3.org/Graphics/SVG/1.1/DTD/svg11.dtd">
<!-- Created with matplotlib (https://matplotlib.org/) -->
<svg height="345.6pt" version="1.1" viewBox="0 0 460.8 345.6" width="460.8pt" xmlns="http://www.w3.org/2000/svg" xmlns:xlink="http://www.w3.org/1999/xlink">
 <defs>
  <style type="text/css">
*{stroke-linecap:butt;stroke-linejoin:round;}
  </style>
 </defs>
 <g id="figure_1">
  <g id="patch_1">
   <path d="M 0 345.6 
L 460.8 345.6 
L 460.8 0 
L 0 0 
z
" style="fill:#ffffff;"/>
  </g>
  <g id="axes_1">
   <g id="patch_2">
    <path d="M 57.6 298.944 
L 338.688 298.944 
L 338.688 41.472 
L 57.6 41.472 
z
" style="fill:#ffffff;"/>
   </g>
   <g id="line2d_1">
    <path d="M 45.512012 298.944 
L 45.512012 278.950057 
L 57.6 278.950057 
L 57.6 273.951571 
L 64.67102 273.951571 
L 64.67102 268.953086 
L 76.759008 268.953086 
L 76.759008 263.9546 
L 85.66744 263.9546 
L 85.66744 258.956114 
L 103.623262 258.956114 
L 103.623262 253.957628 
L 110.274038 253.957628 
L 110.274038 248.959143 
L 117.202696 248.959143 
L 117.202696 238.962171 
L 122.148045 238.962171 
L 122.148045 233.963685 
L 124.368753 233.963685 
L 124.368753 228.9652 
L 128.856489 228.9652 
L 128.856489 223.966714 
L 130.796184 223.966714 
L 130.796184 213.969743 
L 134.661403 213.969743 
L 134.661403 208.971257 
L 138.256201 208.971257 
L 138.256201 203.972771 
L 142.147664 203.972771 
L 142.147664 198.974285 
L 143.464461 198.974285 
L 143.464461 193.9758 
L 146.107383 193.9758 
L 146.107383 188.977314 
L 146.538004 188.977314 
L 146.538004 183.978828 
L 148.015498 183.978828 
L 148.015498 178.980342 
L 148.54473 178.980342 
L 148.54473 173.981857 
L 149.823575 173.981857 
L 149.823575 168.983371 
L 152.662192 168.983371 
L 152.662192 163.984885 
L 155.0376 163.984885 
L 155.0376 158.9864 
L 157.557108 158.9864 
L 157.557108 153.987914 
L 160.703658 153.987914 
L 160.703658 148.989428 
L 160.821253 148.989428 
L 160.821253 143.990942 
L 162.854457 143.990942 
L 162.854457 138.992457 
L 162.958448 138.992457 
L 162.958448 133.993971 
L 167.010909 133.993971 
L 167.010909 128.995485 
L 167.141909 128.995485 
L 167.141909 123.996999 
L 167.417059 123.996999 
L 167.417059 118.998514 
L 167.84533 118.998514 
L 167.84533 114.000028 
L 168.506396 114.000028 
L 168.506396 109.001542 
L 172.42198 109.001542 
L 172.42198 104.003056 
L 172.482136 104.003056 
L 172.482136 99.004571 
L 172.791647 99.004571 
L 172.791647 94.006085 
L 173.245851 94.006085 
L 173.245851 89.007599 
L 173.911252 89.007599 
L 173.911252 84.009114 
L 174.359138 84.009114 
L 174.359138 79.010628 
L 174.541525 79.010628 
L 174.541525 74.012142 
L 174.785287 74.012142 
L 174.785287 69.013656 
L 175.046437 69.013656 
L 175.046437 64.015171 
L 175.965303 64.015171 
L 175.965303 59.016685 
L 176.219183 59.016685 
L 176.219183 54.018199 
L 176.383205 54.018199 
L 176.383205 49.019713 
L 176.52666 49.019713 
L 176.52666 44.021228 
L 338.688 44.021228 
" style="fill:none;stroke:#f5deb3;stroke-linecap:square;stroke-width:4;"/>
   </g>
   <g id="line2d_2">
    <defs>
     <path d="M -0 7.778175 
L 7.778175 0 
L 0 -7.778175 
L -7.778175 -0 
z
" id="maf0e201691" style="stroke:#f5deb3;stroke-linejoin:miter;stroke-width:1.5;"/>
    </defs>
    <g>
     <use style="fill:#f5deb3;stroke:#f5deb3;stroke-linejoin:miter;stroke-width:1.5;" x="103.623262" xlink:href="#maf0e201691" y="258.956114"/>
     <use style="fill:#f5deb3;stroke:#f5deb3;stroke-linejoin:miter;stroke-width:1.5;" x="148.54473" xlink:href="#maf0e201691" y="173.981857"/>
     <use style="fill:#f5deb3;stroke:#f5deb3;stroke-linejoin:miter;stroke-width:1.5;" x="175.046437" xlink:href="#maf0e201691" y="69.013656"/>
     <use style="fill:#f5deb3;stroke:#f5deb3;stroke-linejoin:miter;stroke-width:1.5;" x="176.52666" xlink:href="#maf0e201691" y="49.019713"/>
     <use style="fill:#f5deb3;stroke:#f5deb3;stroke-linejoin:miter;stroke-width:1.5;" x="176.52666" xlink:href="#maf0e201691" y="44.021228"/>
     <use style="fill:#f5deb3;stroke:#f5deb3;stroke-linejoin:miter;stroke-width:1.5;" x="338.688" xlink:href="#maf0e201691" y="44.021228"/>
    </g>
   </g>
   <g id="line2d_3">
    <path style="fill:none;stroke:#f5deb3;stroke-linecap:square;stroke-width:4;"/>
    <g/>
   </g>
   <g id="line2d_4">
    <path d="M 338.688 44.021228 
L 369.60768 49.119683 
" style="fill:none;stroke:#f5deb3;stroke-linecap:square;stroke-width:4;"/>
    <g>
     <use style="fill:#f5deb3;stroke:#f5deb3;stroke-linejoin:miter;stroke-width:1.5;" x="338.688" xlink:href="#maf0e201691" y="44.021228"/>
     <use style="fill:#f5deb3;stroke:#f5deb3;stroke-linejoin:miter;stroke-width:1.5;" x="369.60768" xlink:href="#maf0e201691" y="49.119683"/>
    </g>
   </g>
   <g id="matplotlib.axis_1">
    <g id="xtick_1">
     <g id="line2d_5">
      <path clip-path="url(#pc649ead63a)" d="M 57.6 298.944 
L 57.6 41.472 
" style="fill:none;stroke:#b0b0b0;stroke-linecap:square;stroke-width:0.8;"/>
     </g>
     <g id="line2d_6">
      <defs>
       <path d="M 0 0 
L 0 3.5 
" id="m47627ba759" style="stroke:#000000;stroke-width:0.8;"/>
      </defs>
      <g>
       <use style="stroke:#000000;stroke-width:0.8;" x="57.6" xlink:href="#m47627ba759" y="298.944"/>
      </g>
     </g>
     <g id="text_1">
      <!-- 0 -->
      <defs>
       <path d="M 31.78125 66.40625 
Q 24.171875 66.40625 20.328125 58.90625 
Q 16.5 51.421875 16.5 36.375 
Q 16.5 21.390625 20.328125 13.890625 
Q 24.171875 6.390625 31.78125 6.390625 
Q 39.453125 6.390625 43.28125 13.890625 
Q 47.125 21.390625 47.125 36.375 
Q 47.125 51.421875 43.28125 58.90625 
Q 39.453125 66.40625 31.78125 66.40625 
z
M 31.78125 74.21875 
Q 44.046875 74.21875 50.515625 64.515625 
Q 56.984375 54.828125 56.984375 36.375 
Q 56.984375 17.96875 50.515625 8.265625 
Q 44.046875 -1.421875 31.78125 -1.421875 
Q 19.53125 -1.421875 13.0625 8.265625 
Q 6.59375 17.96875 6.59375 36.375 
Q 6.59375 54.828125 13.0625 64.515625 
Q 19.53125 74.21875 31.78125 74.21875 
z
" id="DejaVuSans-48"/>
      </defs>
      <g transform="translate(51.2375 321.140875)scale(0.2 -0.2)">
       <use xlink:href="#DejaVuSans-48"/>
      </g>
     </g>
    </g>
    <g id="xtick_2">
     <g id="line2d_7">
      <path clip-path="url(#pc649ead63a)" d="M 137.910857 298.944 
L 137.910857 41.472 
" style="fill:none;stroke:#b0b0b0;stroke-linecap:square;stroke-width:0.8;"/>
     </g>
     <g id="line2d_8">
      <g>
       <use style="stroke:#000000;stroke-width:0.8;" x="137.910857" xlink:href="#m47627ba759" y="298.944"/>
      </g>
     </g>
     <g id="text_2">
      <!-- 2 -->
      <defs>
       <path d="M 19.1875 8.296875 
L 53.609375 8.296875 
L 53.609375 0 
L 7.328125 0 
L 7.328125 8.296875 
Q 12.9375 14.109375 22.625 23.890625 
Q 32.328125 33.6875 34.8125 36.53125 
Q 39.546875 41.84375 41.421875 45.53125 
Q 43.3125 49.21875 43.3125 52.78125 
Q 43.3125 58.59375 39.234375 62.25 
Q 35.15625 65.921875 28.609375 65.921875 
Q 23.96875 65.921875 18.8125 64.3125 
Q 13.671875 62.703125 7.8125 59.421875 
L 7.8125 69.390625 
Q 13.765625 71.78125 18.9375 73 
Q 24.125 74.21875 28.421875 74.21875 
Q 39.75 74.21875 46.484375 68.546875 
Q 53.21875 62.890625 53.21875 53.421875 
Q 53.21875 48.921875 51.53125 44.890625 
Q 49.859375 40.875 45.40625 35.40625 
Q 44.1875 33.984375 37.640625 27.21875 
Q 31.109375 20.453125 19.1875 8.296875 
z
" id="DejaVuSans-50"/>
      </defs>
      <g transform="translate(131.548357 321.140875)scale(0.2 -0.2)">
       <use xlink:href="#DejaVuSans-50"/>
      </g>
     </g>
    </g>
    <g id="xtick_3">
     <g id="line2d_9">
      <path clip-path="url(#pc649ead63a)" d="M 218.221714 298.944 
L 218.221714 41.472 
" style="fill:none;stroke:#b0b0b0;stroke-linecap:square;stroke-width:0.8;"/>
     </g>
     <g id="line2d_10">
      <g>
       <use style="stroke:#000000;stroke-width:0.8;" x="218.221714" xlink:href="#m47627ba759" y="298.944"/>
      </g>
     </g>
     <g id="text_3">
      <!-- 4 -->
      <defs>
       <path d="M 37.796875 64.3125 
L 12.890625 25.390625 
L 37.796875 25.390625 
z
M 35.203125 72.90625 
L 47.609375 72.90625 
L 47.609375 25.390625 
L 58.015625 25.390625 
L 58.015625 17.1875 
L 47.609375 17.1875 
L 47.609375 0 
L 37.796875 0 
L 37.796875 17.1875 
L 4.890625 17.1875 
L 4.890625 26.703125 
z
" id="DejaVuSans-52"/>
      </defs>
      <g transform="translate(211.859214 321.140875)scale(0.2 -0.2)">
       <use xlink:href="#DejaVuSans-52"/>
      </g>
     </g>
    </g>
    <g id="xtick_4">
     <g id="line2d_11">
      <path clip-path="url(#pc649ead63a)" d="M 298.532571 298.944 
L 298.532571 41.472 
" style="fill:none;stroke:#b0b0b0;stroke-linecap:square;stroke-width:0.8;"/>
     </g>
     <g id="line2d_12">
      <g>
       <use style="stroke:#000000;stroke-width:0.8;" x="298.532571" xlink:href="#m47627ba759" y="298.944"/>
      </g>
     </g>
     <g id="text_4">
      <!-- 6 -->
      <defs>
       <path d="M 33.015625 40.375 
Q 26.375 40.375 22.484375 35.828125 
Q 18.609375 31.296875 18.609375 23.390625 
Q 18.609375 15.53125 22.484375 10.953125 
Q 26.375 6.390625 33.015625 6.390625 
Q 39.65625 6.390625 43.53125 10.953125 
Q 47.40625 15.53125 47.40625 23.390625 
Q 47.40625 31.296875 43.53125 35.828125 
Q 39.65625 40.375 33.015625 40.375 
z
M 52.59375 71.296875 
L 52.59375 62.3125 
Q 48.875 64.0625 45.09375 64.984375 
Q 41.3125 65.921875 37.59375 65.921875 
Q 27.828125 65.921875 22.671875 59.328125 
Q 17.53125 52.734375 16.796875 39.40625 
Q 19.671875 43.65625 24.015625 45.921875 
Q 28.375 48.1875 33.59375 48.1875 
Q 44.578125 48.1875 50.953125 41.515625 
Q 57.328125 34.859375 57.328125 23.390625 
Q 57.328125 12.15625 50.6875 5.359375 
Q 44.046875 -1.421875 33.015625 -1.421875 
Q 20.359375 -1.421875 13.671875 8.265625 
Q 6.984375 17.96875 6.984375 36.375 
Q 6.984375 53.65625 15.1875 63.9375 
Q 23.390625 74.21875 37.203125 74.21875 
Q 40.921875 74.21875 44.703125 73.484375 
Q 48.484375 72.75 52.59375 71.296875 
z
" id="DejaVuSans-54"/>
      </defs>
      <g transform="translate(292.170071 321.140875)scale(0.2 -0.2)">
       <use xlink:href="#DejaVuSans-54"/>
      </g>
     </g>
    </g>
    <g id="xtick_5">
     <g id="line2d_13">
      <path clip-path="url(#pc649ead63a)" d="M 57.6 298.944 
L 57.6 41.472 
" style="fill:none;stroke:#b0b0b0;stroke-linecap:square;stroke-width:0.8;"/>
     </g>
     <g id="line2d_14">
      <defs>
       <path d="M 0 0 
L 0 2 
" id="me0ad4c7f09" style="stroke:#000000;stroke-width:0.6;"/>
      </defs>
      <g>
       <use style="stroke:#000000;stroke-width:0.6;" x="57.6" xlink:href="#me0ad4c7f09" y="298.944"/>
      </g>
     </g>
    </g>
    <g id="xtick_6">
     <g id="line2d_15">
      <path clip-path="url(#pc649ead63a)" d="M 97.755429 298.944 
L 97.755429 41.472 
" style="fill:none;stroke:#b0b0b0;stroke-linecap:square;stroke-width:0.8;"/>
     </g>
     <g id="line2d_16">
      <g>
       <use style="stroke:#000000;stroke-width:0.6;" x="97.755429" xlink:href="#me0ad4c7f09" y="298.944"/>
      </g>
     </g>
    </g>
    <g id="xtick_7">
     <g id="line2d_17">
      <path clip-path="url(#pc649ead63a)" d="M 137.910857 298.944 
L 137.910857 41.472 
" style="fill:none;stroke:#b0b0b0;stroke-linecap:square;stroke-width:0.8;"/>
     </g>
     <g id="line2d_18">
      <g>
       <use style="stroke:#000000;stroke-width:0.6;" x="137.910857" xlink:href="#me0ad4c7f09" y="298.944"/>
      </g>
     </g>
    </g>
    <g id="xtick_8">
     <g id="line2d_19">
      <path clip-path="url(#pc649ead63a)" d="M 178.066286 298.944 
L 178.066286 41.472 
" style="fill:none;stroke:#b0b0b0;stroke-linecap:square;stroke-width:0.8;"/>
     </g>
     <g id="line2d_20">
      <g>
       <use style="stroke:#000000;stroke-width:0.6;" x="178.066286" xlink:href="#me0ad4c7f09" y="298.944"/>
      </g>
     </g>
    </g>
    <g id="xtick_9">
     <g id="line2d_21">
      <path clip-path="url(#pc649ead63a)" d="M 218.221714 298.944 
L 218.221714 41.472 
" style="fill:none;stroke:#b0b0b0;stroke-linecap:square;stroke-width:0.8;"/>
     </g>
     <g id="line2d_22">
      <g>
       <use style="stroke:#000000;stroke-width:0.6;" x="218.221714" xlink:href="#me0ad4c7f09" y="298.944"/>
      </g>
     </g>
    </g>
    <g id="xtick_10">
     <g id="line2d_23">
      <path clip-path="url(#pc649ead63a)" d="M 258.377143 298.944 
L 258.377143 41.472 
" style="fill:none;stroke:#b0b0b0;stroke-linecap:square;stroke-width:0.8;"/>
     </g>
     <g id="line2d_24">
      <g>
       <use style="stroke:#000000;stroke-width:0.6;" x="258.377143" xlink:href="#me0ad4c7f09" y="298.944"/>
      </g>
     </g>
    </g>
    <g id="xtick_11">
     <g id="line2d_25">
      <path clip-path="url(#pc649ead63a)" d="M 298.532571 298.944 
L 298.532571 41.472 
" style="fill:none;stroke:#b0b0b0;stroke-linecap:square;stroke-width:0.8;"/>
     </g>
     <g id="line2d_26">
      <g>
       <use style="stroke:#000000;stroke-width:0.6;" x="298.532571" xlink:href="#me0ad4c7f09" y="298.944"/>
      </g>
     </g>
    </g>
    <g id="xtick_12">
     <g id="line2d_27">
      <path clip-path="url(#pc649ead63a)" d="M 338.688 298.944 
L 338.688 41.472 
" style="fill:none;stroke:#b0b0b0;stroke-linecap:square;stroke-width:0.8;"/>
     </g>
     <g id="line2d_28">
      <g>
       <use style="stroke:#000000;stroke-width:0.6;" x="338.688" xlink:href="#me0ad4c7f09" y="298.944"/>
      </g>
     </g>
    </g>
    <g id="text_5">
     <!-- log10(# f-evals / dimension) -->
     <defs>
      <path d="M 9.421875 75.984375 
L 18.40625 75.984375 
L 18.40625 0 
L 9.421875 0 
z
" id="DejaVuSans-108"/>
      <path d="M 30.609375 48.390625 
Q 23.390625 48.390625 19.1875 42.75 
Q 14.984375 37.109375 14.984375 27.296875 
Q 14.984375 17.484375 19.15625 11.84375 
Q 23.34375 6.203125 30.609375 6.203125 
Q 37.796875 6.203125 41.984375 11.859375 
Q 46.1875 17.53125 46.1875 27.296875 
Q 46.1875 37.015625 41.984375 42.703125 
Q 37.796875 48.390625 30.609375 48.390625 
z
M 30.609375 56 
Q 42.328125 56 49.015625 48.375 
Q 55.71875 40.765625 55.71875 27.296875 
Q 55.71875 13.875 49.015625 6.21875 
Q 42.328125 -1.421875 30.609375 -1.421875 
Q 18.84375 -1.421875 12.171875 6.21875 
Q 5.515625 13.875 5.515625 27.296875 
Q 5.515625 40.765625 12.171875 48.375 
Q 18.84375 56 30.609375 56 
z
" id="DejaVuSans-111"/>
      <path d="M 45.40625 27.984375 
Q 45.40625 37.75 41.375 43.109375 
Q 37.359375 48.484375 30.078125 48.484375 
Q 22.859375 48.484375 18.828125 43.109375 
Q 14.796875 37.75 14.796875 27.984375 
Q 14.796875 18.265625 18.828125 12.890625 
Q 22.859375 7.515625 30.078125 7.515625 
Q 37.359375 7.515625 41.375 12.890625 
Q 45.40625 18.265625 45.40625 27.984375 
z
M 54.390625 6.78125 
Q 54.390625 -7.171875 48.1875 -13.984375 
Q 42 -20.796875 29.203125 -20.796875 
Q 24.46875 -20.796875 20.265625 -20.09375 
Q 16.0625 -19.390625 12.109375 -17.921875 
L 12.109375 -9.1875 
Q 16.0625 -11.328125 19.921875 -12.34375 
Q 23.78125 -13.375 27.78125 -13.375 
Q 36.625 -13.375 41.015625 -8.765625 
Q 45.40625 -4.15625 45.40625 5.171875 
L 45.40625 9.625 
Q 42.625 4.78125 38.28125 2.390625 
Q 33.9375 0 27.875 0 
Q 17.828125 0 11.671875 7.65625 
Q 5.515625 15.328125 5.515625 27.984375 
Q 5.515625 40.671875 11.671875 48.328125 
Q 17.828125 56 27.875 56 
Q 33.9375 56 38.28125 53.609375 
Q 42.625 51.21875 45.40625 46.390625 
L 45.40625 54.6875 
L 54.390625 54.6875 
z
" id="DejaVuSans-103"/>
      <path d="M 12.40625 8.296875 
L 28.515625 8.296875 
L 28.515625 63.921875 
L 10.984375 60.40625 
L 10.984375 69.390625 
L 28.421875 72.90625 
L 38.28125 72.90625 
L 38.28125 8.296875 
L 54.390625 8.296875 
L 54.390625 0 
L 12.40625 0 
z
" id="DejaVuSans-49"/>
      <path d="M 31 75.875 
Q 24.46875 64.65625 21.28125 53.65625 
Q 18.109375 42.671875 18.109375 31.390625 
Q 18.109375 20.125 21.3125 9.0625 
Q 24.515625 -2 31 -13.1875 
L 23.1875 -13.1875 
Q 15.875 -1.703125 12.234375 9.375 
Q 8.59375 20.453125 8.59375 31.390625 
Q 8.59375 42.28125 12.203125 53.3125 
Q 15.828125 64.359375 23.1875 75.875 
z
" id="DejaVuSans-40"/>
      <path d="M 51.125 44 
L 36.921875 44 
L 32.8125 27.6875 
L 47.125 27.6875 
z
M 43.796875 71.78125 
L 38.71875 51.515625 
L 52.984375 51.515625 
L 58.109375 71.78125 
L 65.921875 71.78125 
L 60.890625 51.515625 
L 76.125 51.515625 
L 76.125 44 
L 58.984375 44 
L 54.984375 27.6875 
L 70.515625 27.6875 
L 70.515625 20.21875 
L 53.078125 20.21875 
L 48 0 
L 40.1875 0 
L 45.21875 20.21875 
L 30.90625 20.21875 
L 25.875 0 
L 18.015625 0 
L 23.09375 20.21875 
L 7.71875 20.21875 
L 7.71875 27.6875 
L 24.90625 27.6875 
L 29 44 
L 13.28125 44 
L 13.28125 51.515625 
L 30.90625 51.515625 
L 35.890625 71.78125 
z
" id="DejaVuSans-35"/>
      <path id="DejaVuSans-32"/>
      <path d="M 37.109375 75.984375 
L 37.109375 68.5 
L 28.515625 68.5 
Q 23.6875 68.5 21.796875 66.546875 
Q 19.921875 64.59375 19.921875 59.515625 
L 19.921875 54.6875 
L 34.71875 54.6875 
L 34.71875 47.703125 
L 19.921875 47.703125 
L 19.921875 0 
L 10.890625 0 
L 10.890625 47.703125 
L 2.296875 47.703125 
L 2.296875 54.6875 
L 10.890625 54.6875 
L 10.890625 58.5 
Q 10.890625 67.625 15.140625 71.796875 
Q 19.390625 75.984375 28.609375 75.984375 
z
" id="DejaVuSans-102"/>
      <path d="M 4.890625 31.390625 
L 31.203125 31.390625 
L 31.203125 23.390625 
L 4.890625 23.390625 
z
" id="DejaVuSans-45"/>
      <path d="M 56.203125 29.59375 
L 56.203125 25.203125 
L 14.890625 25.203125 
Q 15.484375 15.921875 20.484375 11.0625 
Q 25.484375 6.203125 34.421875 6.203125 
Q 39.59375 6.203125 44.453125 7.46875 
Q 49.3125 8.734375 54.109375 11.28125 
L 54.109375 2.78125 
Q 49.265625 0.734375 44.1875 -0.34375 
Q 39.109375 -1.421875 33.890625 -1.421875 
Q 20.796875 -1.421875 13.15625 6.1875 
Q 5.515625 13.8125 5.515625 26.8125 
Q 5.515625 40.234375 12.765625 48.109375 
Q 20.015625 56 32.328125 56 
Q 43.359375 56 49.78125 48.890625 
Q 56.203125 41.796875 56.203125 29.59375 
z
M 47.21875 32.234375 
Q 47.125 39.59375 43.09375 43.984375 
Q 39.0625 48.390625 32.421875 48.390625 
Q 24.90625 48.390625 20.390625 44.140625 
Q 15.875 39.890625 15.1875 32.171875 
z
" id="DejaVuSans-101"/>
      <path d="M 2.984375 54.6875 
L 12.5 54.6875 
L 29.59375 8.796875 
L 46.6875 54.6875 
L 56.203125 54.6875 
L 35.6875 0 
L 23.484375 0 
z
" id="DejaVuSans-118"/>
      <path d="M 34.28125 27.484375 
Q 23.390625 27.484375 19.1875 25 
Q 14.984375 22.515625 14.984375 16.5 
Q 14.984375 11.71875 18.140625 8.90625 
Q 21.296875 6.109375 26.703125 6.109375 
Q 34.1875 6.109375 38.703125 11.40625 
Q 43.21875 16.703125 43.21875 25.484375 
L 43.21875 27.484375 
z
M 52.203125 31.203125 
L 52.203125 0 
L 43.21875 0 
L 43.21875 8.296875 
Q 40.140625 3.328125 35.546875 0.953125 
Q 30.953125 -1.421875 24.3125 -1.421875 
Q 15.921875 -1.421875 10.953125 3.296875 
Q 6 8.015625 6 15.921875 
Q 6 25.140625 12.171875 29.828125 
Q 18.359375 34.515625 30.609375 34.515625 
L 43.21875 34.515625 
L 43.21875 35.40625 
Q 43.21875 41.609375 39.140625 45 
Q 35.0625 48.390625 27.6875 48.390625 
Q 23 48.390625 18.546875 47.265625 
Q 14.109375 46.140625 10.015625 43.890625 
L 10.015625 52.203125 
Q 14.9375 54.109375 19.578125 55.046875 
Q 24.21875 56 28.609375 56 
Q 40.484375 56 46.34375 49.84375 
Q 52.203125 43.703125 52.203125 31.203125 
z
" id="DejaVuSans-97"/>
      <path d="M 44.28125 53.078125 
L 44.28125 44.578125 
Q 40.484375 46.53125 36.375 47.5 
Q 32.28125 48.484375 27.875 48.484375 
Q 21.1875 48.484375 17.84375 46.4375 
Q 14.5 44.390625 14.5 40.28125 
Q 14.5 37.15625 16.890625 35.375 
Q 19.28125 33.59375 26.515625 31.984375 
L 29.59375 31.296875 
Q 39.15625 29.25 43.1875 25.515625 
Q 47.21875 21.78125 47.21875 15.09375 
Q 47.21875 7.46875 41.1875 3.015625 
Q 35.15625 -1.421875 24.609375 -1.421875 
Q 20.21875 -1.421875 15.453125 -0.5625 
Q 10.6875 0.296875 5.421875 2 
L 5.421875 11.28125 
Q 10.40625 8.6875 15.234375 7.390625 
Q 20.0625 6.109375 24.8125 6.109375 
Q 31.15625 6.109375 34.5625 8.28125 
Q 37.984375 10.453125 37.984375 14.40625 
Q 37.984375 18.0625 35.515625 20.015625 
Q 33.0625 21.96875 24.703125 23.78125 
L 21.578125 24.515625 
Q 13.234375 26.265625 9.515625 29.90625 
Q 5.8125 33.546875 5.8125 39.890625 
Q 5.8125 47.609375 11.28125 51.796875 
Q 16.75 56 26.8125 56 
Q 31.78125 56 36.171875 55.265625 
Q 40.578125 54.546875 44.28125 53.078125 
z
" id="DejaVuSans-115"/>
      <path d="M 25.390625 72.90625 
L 33.6875 72.90625 
L 8.296875 -9.28125 
L 0 -9.28125 
z
" id="DejaVuSans-47"/>
      <path d="M 45.40625 46.390625 
L 45.40625 75.984375 
L 54.390625 75.984375 
L 54.390625 0 
L 45.40625 0 
L 45.40625 8.203125 
Q 42.578125 3.328125 38.25 0.953125 
Q 33.9375 -1.421875 27.875 -1.421875 
Q 17.96875 -1.421875 11.734375 6.484375 
Q 5.515625 14.40625 5.515625 27.296875 
Q 5.515625 40.1875 11.734375 48.09375 
Q 17.96875 56 27.875 56 
Q 33.9375 56 38.25 53.625 
Q 42.578125 51.265625 45.40625 46.390625 
z
M 14.796875 27.296875 
Q 14.796875 17.390625 18.875 11.75 
Q 22.953125 6.109375 30.078125 6.109375 
Q 37.203125 6.109375 41.296875 11.75 
Q 45.40625 17.390625 45.40625 27.296875 
Q 45.40625 37.203125 41.296875 42.84375 
Q 37.203125 48.484375 30.078125 48.484375 
Q 22.953125 48.484375 18.875 42.84375 
Q 14.796875 37.203125 14.796875 27.296875 
z
" id="DejaVuSans-100"/>
      <path d="M 9.421875 54.6875 
L 18.40625 54.6875 
L 18.40625 0 
L 9.421875 0 
z
M 9.421875 75.984375 
L 18.40625 75.984375 
L 18.40625 64.59375 
L 9.421875 64.59375 
z
" id="DejaVuSans-105"/>
      <path d="M 52 44.1875 
Q 55.375 50.25 60.0625 53.125 
Q 64.75 56 71.09375 56 
Q 79.640625 56 84.28125 50.015625 
Q 88.921875 44.046875 88.921875 33.015625 
L 88.921875 0 
L 79.890625 0 
L 79.890625 32.71875 
Q 79.890625 40.578125 77.09375 44.375 
Q 74.3125 48.1875 68.609375 48.1875 
Q 61.625 48.1875 57.5625 43.546875 
Q 53.515625 38.921875 53.515625 30.90625 
L 53.515625 0 
L 44.484375 0 
L 44.484375 32.71875 
Q 44.484375 40.625 41.703125 44.40625 
Q 38.921875 48.1875 33.109375 48.1875 
Q 26.21875 48.1875 22.15625 43.53125 
Q 18.109375 38.875 18.109375 30.90625 
L 18.109375 0 
L 9.078125 0 
L 9.078125 54.6875 
L 18.109375 54.6875 
L 18.109375 46.1875 
Q 21.1875 51.21875 25.484375 53.609375 
Q 29.78125 56 35.6875 56 
Q 41.65625 56 45.828125 52.96875 
Q 50 49.953125 52 44.1875 
z
" id="DejaVuSans-109"/>
      <path d="M 54.890625 33.015625 
L 54.890625 0 
L 45.90625 0 
L 45.90625 32.71875 
Q 45.90625 40.484375 42.875 44.328125 
Q 39.84375 48.1875 33.796875 48.1875 
Q 26.515625 48.1875 22.3125 43.546875 
Q 18.109375 38.921875 18.109375 30.90625 
L 18.109375 0 
L 9.078125 0 
L 9.078125 54.6875 
L 18.109375 54.6875 
L 18.109375 46.1875 
Q 21.34375 51.125 25.703125 53.5625 
Q 30.078125 56 35.796875 56 
Q 45.21875 56 50.046875 50.171875 
Q 54.890625 44.34375 54.890625 33.015625 
z
" id="DejaVuSans-110"/>
      <path d="M 8.015625 75.875 
L 15.828125 75.875 
Q 23.140625 64.359375 26.78125 53.3125 
Q 30.421875 42.28125 30.421875 31.390625 
Q 30.421875 20.453125 26.78125 9.375 
Q 23.140625 -1.703125 15.828125 -13.1875 
L 8.015625 -13.1875 
Q 14.5 -2 17.703125 9.0625 
Q 20.90625 20.125 20.90625 31.390625 
Q 20.90625 42.671875 17.703125 53.65625 
Q 14.5 64.65625 8.015625 75.875 
z
" id="DejaVuSans-41"/>
     </defs>
     <g transform="translate(77.303219 342.217594)scale(0.17 -0.17)">
      <use xlink:href="#DejaVuSans-108"/>
      <use x="27.783203" xlink:href="#DejaVuSans-111"/>
      <use x="88.964844" xlink:href="#DejaVuSans-103"/>
      <use x="152.441406" xlink:href="#DejaVuSans-49"/>
      <use x="216.064453" xlink:href="#DejaVuSans-48"/>
      <use x="279.6875" xlink:href="#DejaVuSans-40"/>
      <use x="318.701172" xlink:href="#DejaVuSans-35"/>
      <use x="402.490234" xlink:href="#DejaVuSans-32"/>
      <use x="434.277344" xlink:href="#DejaVuSans-102"/>
      <use x="469.404297" xlink:href="#DejaVuSans-45"/>
      <use x="505.488281" xlink:href="#DejaVuSans-101"/>
      <use x="567.011719" xlink:href="#DejaVuSans-118"/>
      <use x="626.191406" xlink:href="#DejaVuSans-97"/>
      <use x="687.470703" xlink:href="#DejaVuSans-108"/>
      <use x="715.253906" xlink:href="#DejaVuSans-115"/>
      <use x="767.353516" xlink:href="#DejaVuSans-32"/>
      <use x="799.140625" xlink:href="#DejaVuSans-47"/>
      <use x="832.832031" xlink:href="#DejaVuSans-32"/>
      <use x="864.619141" xlink:href="#DejaVuSans-100"/>
      <use x="928.095703" xlink:href="#DejaVuSans-105"/>
      <use x="955.878906" xlink:href="#DejaVuSans-109"/>
      <use x="1053.291016" xlink:href="#DejaVuSans-101"/>
      <use x="1114.814453" xlink:href="#DejaVuSans-110"/>
      <use x="1178.193359" xlink:href="#DejaVuSans-115"/>
      <use x="1230.292969" xlink:href="#DejaVuSans-105"/>
      <use x="1258.076172" xlink:href="#DejaVuSans-111"/>
      <use x="1319.257812" xlink:href="#DejaVuSans-110"/>
      <use x="1382.636719" xlink:href="#DejaVuSans-41"/>
     </g>
    </g>
   </g>
   <g id="matplotlib.axis_2">
    <g id="ytick_1">
     <g id="line2d_29">
      <path clip-path="url(#pc649ead63a)" d="M 57.6 298.944 
L 338.688 298.944 
" style="fill:none;stroke:#b0b0b0;stroke-linecap:square;stroke-width:0.8;"/>
     </g>
     <g id="line2d_30">
      <defs>
       <path d="M 0 0 
L -3.5 0 
" id="m5ec59b7923" style="stroke:#000000;stroke-width:0.8;"/>
      </defs>
      <g>
       <use style="stroke:#000000;stroke-width:0.8;" x="57.6" xlink:href="#m5ec59b7923" y="298.944"/>
      </g>
     </g>
     <g id="text_6">
      <!-- 0.0 -->
      <defs>
       <path d="M 10.6875 12.40625 
L 21 12.40625 
L 21 0 
L 10.6875 0 
z
" id="DejaVuSans-46"/>
      </defs>
      <g transform="translate(25.155 305.02275)scale(0.16 -0.16)">
       <use xlink:href="#DejaVuSans-48"/>
       <use x="63.623047" xlink:href="#DejaVuSans-46"/>
       <use x="95.410156" xlink:href="#DejaVuSans-48"/>
      </g>
     </g>
    </g>
    <g id="ytick_2">
     <g id="line2d_31">
      <path clip-path="url(#pc649ead63a)" d="M 57.6 247.959446 
L 338.688 247.959446 
" style="fill:none;stroke:#b0b0b0;stroke-linecap:square;stroke-width:0.8;"/>
     </g>
     <g id="line2d_32">
      <g>
       <use style="stroke:#000000;stroke-width:0.8;" x="57.6" xlink:href="#m5ec59b7923" y="247.959446"/>
      </g>
     </g>
     <g id="text_7">
      <!-- 0.2 -->
      <g transform="translate(25.155 254.038196)scale(0.16 -0.16)">
       <use xlink:href="#DejaVuSans-48"/>
       <use x="63.623047" xlink:href="#DejaVuSans-46"/>
       <use x="95.410156" xlink:href="#DejaVuSans-50"/>
      </g>
     </g>
    </g>
    <g id="ytick_3">
     <g id="line2d_33">
      <path clip-path="url(#pc649ead63a)" d="M 57.6 196.974891 
L 338.688 196.974891 
" style="fill:none;stroke:#b0b0b0;stroke-linecap:square;stroke-width:0.8;"/>
     </g>
     <g id="line2d_34">
      <g>
       <use style="stroke:#000000;stroke-width:0.8;" x="57.6" xlink:href="#m5ec59b7923" y="196.974891"/>
      </g>
     </g>
     <g id="text_8">
      <!-- 0.4 -->
      <g transform="translate(25.155 203.053641)scale(0.16 -0.16)">
       <use xlink:href="#DejaVuSans-48"/>
       <use x="63.623047" xlink:href="#DejaVuSans-46"/>
       <use x="95.410156" xlink:href="#DejaVuSans-52"/>
      </g>
     </g>
    </g>
    <g id="ytick_4">
     <g id="line2d_35">
      <path clip-path="url(#pc649ead63a)" d="M 57.6 145.990337 
L 338.688 145.990337 
" style="fill:none;stroke:#b0b0b0;stroke-linecap:square;stroke-width:0.8;"/>
     </g>
     <g id="line2d_36">
      <g>
       <use style="stroke:#000000;stroke-width:0.8;" x="57.6" xlink:href="#m5ec59b7923" y="145.990337"/>
      </g>
     </g>
     <g id="text_9">
      <!-- 0.6 -->
      <g transform="translate(25.155 152.069087)scale(0.16 -0.16)">
       <use xlink:href="#DejaVuSans-48"/>
       <use x="63.623047" xlink:href="#DejaVuSans-46"/>
       <use x="95.410156" xlink:href="#DejaVuSans-54"/>
      </g>
     </g>
    </g>
    <g id="ytick_5">
     <g id="line2d_37">
      <path clip-path="url(#pc649ead63a)" d="M 57.6 95.005782 
L 338.688 95.005782 
" style="fill:none;stroke:#b0b0b0;stroke-linecap:square;stroke-width:0.8;"/>
     </g>
     <g id="line2d_38">
      <g>
       <use style="stroke:#000000;stroke-width:0.8;" x="57.6" xlink:href="#m5ec59b7923" y="95.005782"/>
      </g>
     </g>
     <g id="text_10">
      <!-- 0.8 -->
      <defs>
       <path d="M 31.78125 34.625 
Q 24.75 34.625 20.71875 30.859375 
Q 16.703125 27.09375 16.703125 20.515625 
Q 16.703125 13.921875 20.71875 10.15625 
Q 24.75 6.390625 31.78125 6.390625 
Q 38.8125 6.390625 42.859375 10.171875 
Q 46.921875 13.96875 46.921875 20.515625 
Q 46.921875 27.09375 42.890625 30.859375 
Q 38.875 34.625 31.78125 34.625 
z
M 21.921875 38.8125 
Q 15.578125 40.375 12.03125 44.71875 
Q 8.5 49.078125 8.5 55.328125 
Q 8.5 64.0625 14.71875 69.140625 
Q 20.953125 74.21875 31.78125 74.21875 
Q 42.671875 74.21875 48.875 69.140625 
Q 55.078125 64.0625 55.078125 55.328125 
Q 55.078125 49.078125 51.53125 44.71875 
Q 48 40.375 41.703125 38.8125 
Q 48.828125 37.15625 52.796875 32.3125 
Q 56.78125 27.484375 56.78125 20.515625 
Q 56.78125 9.90625 50.3125 4.234375 
Q 43.84375 -1.421875 31.78125 -1.421875 
Q 19.734375 -1.421875 13.25 4.234375 
Q 6.78125 9.90625 6.78125 20.515625 
Q 6.78125 27.484375 10.78125 32.3125 
Q 14.796875 37.15625 21.921875 38.8125 
z
M 18.3125 54.390625 
Q 18.3125 48.734375 21.84375 45.5625 
Q 25.390625 42.390625 31.78125 42.390625 
Q 38.140625 42.390625 41.71875 45.5625 
Q 45.3125 48.734375 45.3125 54.390625 
Q 45.3125 60.0625 41.71875 63.234375 
Q 38.140625 66.40625 31.78125 66.40625 
Q 25.390625 66.40625 21.84375 63.234375 
Q 18.3125 60.0625 18.3125 54.390625 
z
" id="DejaVuSans-56"/>
      </defs>
      <g transform="translate(25.155 101.084532)scale(0.16 -0.16)">
       <use xlink:href="#DejaVuSans-48"/>
       <use x="63.623047" xlink:href="#DejaVuSans-46"/>
       <use x="95.410156" xlink:href="#DejaVuSans-56"/>
      </g>
     </g>
    </g>
    <g id="ytick_6">
     <g id="line2d_39">
      <path clip-path="url(#pc649ead63a)" d="M 57.6 44.021228 
L 338.688 44.021228 
" style="fill:none;stroke:#b0b0b0;stroke-linecap:square;stroke-width:0.8;"/>
     </g>
     <g id="line2d_40">
      <g>
       <use style="stroke:#000000;stroke-width:0.8;" x="57.6" xlink:href="#m5ec59b7923" y="44.021228"/>
      </g>
     </g>
     <g id="text_11">
      <!-- 1.0 -->
      <g transform="translate(25.155 50.099978)scale(0.16 -0.16)">
       <use xlink:href="#DejaVuSans-49"/>
       <use x="63.623047" xlink:href="#DejaVuSans-46"/>
       <use x="95.410156" xlink:href="#DejaVuSans-48"/>
      </g>
     </g>
    </g>
    <g id="text_12">
     <!-- Fraction of function,target pairs -->
     <defs>
      <path d="M 9.8125 72.90625 
L 51.703125 72.90625 
L 51.703125 64.59375 
L 19.671875 64.59375 
L 19.671875 43.109375 
L 48.578125 43.109375 
L 48.578125 34.8125 
L 19.671875 34.8125 
L 19.671875 0 
L 9.8125 0 
z
" id="DejaVuSans-70"/>
      <path d="M 41.109375 46.296875 
Q 39.59375 47.171875 37.8125 47.578125 
Q 36.03125 48 33.890625 48 
Q 26.265625 48 22.1875 43.046875 
Q 18.109375 38.09375 18.109375 28.8125 
L 18.109375 0 
L 9.078125 0 
L 9.078125 54.6875 
L 18.109375 54.6875 
L 18.109375 46.1875 
Q 20.953125 51.171875 25.484375 53.578125 
Q 30.03125 56 36.53125 56 
Q 37.453125 56 38.578125 55.875 
Q 39.703125 55.765625 41.0625 55.515625 
z
" id="DejaVuSans-114"/>
      <path d="M 48.78125 52.59375 
L 48.78125 44.1875 
Q 44.96875 46.296875 41.140625 47.34375 
Q 37.3125 48.390625 33.40625 48.390625 
Q 24.65625 48.390625 19.8125 42.84375 
Q 14.984375 37.3125 14.984375 27.296875 
Q 14.984375 17.28125 19.8125 11.734375 
Q 24.65625 6.203125 33.40625 6.203125 
Q 37.3125 6.203125 41.140625 7.25 
Q 44.96875 8.296875 48.78125 10.40625 
L 48.78125 2.09375 
Q 45.015625 0.34375 40.984375 -0.53125 
Q 36.96875 -1.421875 32.421875 -1.421875 
Q 20.0625 -1.421875 12.78125 6.34375 
Q 5.515625 14.109375 5.515625 27.296875 
Q 5.515625 40.671875 12.859375 48.328125 
Q 20.21875 56 33.015625 56 
Q 37.15625 56 41.109375 55.140625 
Q 45.0625 54.296875 48.78125 52.59375 
z
" id="DejaVuSans-99"/>
      <path d="M 18.3125 70.21875 
L 18.3125 54.6875 
L 36.8125 54.6875 
L 36.8125 47.703125 
L 18.3125 47.703125 
L 18.3125 18.015625 
Q 18.3125 11.328125 20.140625 9.421875 
Q 21.96875 7.515625 27.59375 7.515625 
L 36.8125 7.515625 
L 36.8125 0 
L 27.59375 0 
Q 17.1875 0 13.234375 3.875 
Q 9.28125 7.765625 9.28125 18.015625 
L 9.28125 47.703125 
L 2.6875 47.703125 
L 2.6875 54.6875 
L 9.28125 54.6875 
L 9.28125 70.21875 
z
" id="DejaVuSans-116"/>
      <path d="M 8.5 21.578125 
L 8.5 54.6875 
L 17.484375 54.6875 
L 17.484375 21.921875 
Q 17.484375 14.15625 20.5 10.265625 
Q 23.53125 6.390625 29.59375 6.390625 
Q 36.859375 6.390625 41.078125 11.03125 
Q 45.3125 15.671875 45.3125 23.6875 
L 45.3125 54.6875 
L 54.296875 54.6875 
L 54.296875 0 
L 45.3125 0 
L 45.3125 8.40625 
Q 42.046875 3.421875 37.71875 1 
Q 33.40625 -1.421875 27.6875 -1.421875 
Q 18.265625 -1.421875 13.375 4.4375 
Q 8.5 10.296875 8.5 21.578125 
z
M 31.109375 56 
z
" id="DejaVuSans-117"/>
      <path d="M 11.71875 12.40625 
L 22.015625 12.40625 
L 22.015625 4 
L 14.015625 -11.625 
L 7.71875 -11.625 
L 11.71875 4 
z
" id="DejaVuSans-44"/>
      <path d="M 18.109375 8.203125 
L 18.109375 -20.796875 
L 9.078125 -20.796875 
L 9.078125 54.6875 
L 18.109375 54.6875 
L 18.109375 46.390625 
Q 20.953125 51.265625 25.265625 53.625 
Q 29.59375 56 35.59375 56 
Q 45.5625 56 51.78125 48.09375 
Q 58.015625 40.1875 58.015625 27.296875 
Q 58.015625 14.40625 51.78125 6.484375 
Q 45.5625 -1.421875 35.59375 -1.421875 
Q 29.59375 -1.421875 25.265625 0.953125 
Q 20.953125 3.328125 18.109375 8.203125 
z
M 48.6875 27.296875 
Q 48.6875 37.203125 44.609375 42.84375 
Q 40.53125 48.484375 33.40625 48.484375 
Q 26.265625 48.484375 22.1875 42.84375 
Q 18.109375 37.203125 18.109375 27.296875 
Q 18.109375 17.390625 22.1875 11.75 
Q 26.265625 6.109375 33.40625 6.109375 
Q 40.53125 6.109375 44.609375 11.75 
Q 48.6875 17.390625 48.6875 27.296875 
z
" id="DejaVuSans-112"/>
     </defs>
     <g transform="translate(17.619531 305.347375)rotate(-90)scale(0.17 -0.17)">
      <use xlink:href="#DejaVuSans-70"/>
      <use x="57.410156" xlink:href="#DejaVuSans-114"/>
      <use x="98.523438" xlink:href="#DejaVuSans-97"/>
      <use x="159.802734" xlink:href="#DejaVuSans-99"/>
      <use x="214.783203" xlink:href="#DejaVuSans-116"/>
      <use x="253.992188" xlink:href="#DejaVuSans-105"/>
      <use x="281.775391" xlink:href="#DejaVuSans-111"/>
      <use x="342.957031" xlink:href="#DejaVuSans-110"/>
      <use x="406.335938" xlink:href="#DejaVuSans-32"/>
      <use x="438.123047" xlink:href="#DejaVuSans-111"/>
      <use x="499.304688" xlink:href="#DejaVuSans-102"/>
      <use x="534.509766" xlink:href="#DejaVuSans-32"/>
      <use x="566.296875" xlink:href="#DejaVuSans-102"/>
      <use x="601.501953" xlink:href="#DejaVuSans-117"/>
      <use x="664.880859" xlink:href="#DejaVuSans-110"/>
      <use x="728.259766" xlink:href="#DejaVuSans-99"/>
      <use x="783.240234" xlink:href="#DejaVuSans-116"/>
      <use x="822.449219" xlink:href="#DejaVuSans-105"/>
      <use x="850.232422" xlink:href="#DejaVuSans-111"/>
      <use x="911.414062" xlink:href="#DejaVuSans-110"/>
      <use x="974.792969" xlink:href="#DejaVuSans-44"/>
      <use x="1006.580078" xlink:href="#DejaVuSans-116"/>
      <use x="1045.789062" xlink:href="#DejaVuSans-97"/>
      <use x="1107.068359" xlink:href="#DejaVuSans-114"/>
      <use x="1148.166016" xlink:href="#DejaVuSans-103"/>
      <use x="1211.642578" xlink:href="#DejaVuSans-101"/>
      <use x="1273.166016" xlink:href="#DejaVuSans-116"/>
      <use x="1312.375" xlink:href="#DejaVuSans-32"/>
      <use x="1344.162109" xlink:href="#DejaVuSans-112"/>
      <use x="1407.638672" xlink:href="#DejaVuSans-97"/>
      <use x="1468.917969" xlink:href="#DejaVuSans-105"/>
      <use x="1496.701172" xlink:href="#DejaVuSans-114"/>
      <use x="1537.814453" xlink:href="#DejaVuSans-115"/>
     </g>
    </g>
   </g>
   <g id="line2d_41">
    <defs>
     <path d="M 0 1.5 
C 0.397805 1.5 0.77937 1.341951 1.06066 1.06066 
C 1.341951 0.77937 1.5 0.397805 1.5 0 
C 1.5 -0.397805 1.341951 -0.77937 1.06066 -1.06066 
C 0.77937 -1.341951 0.397805 -1.5 0 -1.5 
C -0.397805 -1.5 -0.77937 -1.341951 -1.06066 -1.06066 
C -1.341951 -0.77937 -1.5 -0.397805 -1.5 0 
C -1.5 0.397805 -1.341951 0.77937 -1.06066 1.06066 
C -0.77937 1.341951 -0.397805 1.5 0 1.5 
z
" id="m9838b705f9" style="stroke:#f5deb3;"/>
    </defs>
    <g>
     <use style="fill:#f5deb3;stroke:#f5deb3;" x="176.52666" xlink:href="#m9838b705f9" y="44.021228"/>
     <use style="fill:#f5deb3;stroke:#f5deb3;" x="176.52666" xlink:href="#m9838b705f9" y="44.021228"/>
    </g>
   </g>
   <g id="line2d_42">
    <defs>
     <path d="M 0 1.5 
C 0.397805 1.5 0.77937 1.341951 1.06066 1.06066 
C 1.341951 0.77937 1.5 0.397805 1.5 0 
C 1.5 -0.397805 1.341951 -0.77937 1.06066 -1.06066 
C 0.77937 -1.341951 0.397805 -1.5 0 -1.5 
C -0.397805 -1.5 -0.77937 -1.341951 -1.06066 -1.06066 
C -1.341951 -0.77937 -1.5 -0.397805 -1.5 0 
C -1.5 0.397805 -1.341951 0.77937 -1.06066 1.06066 
C -0.77937 1.341951 -0.397805 1.5 0 1.5 
z
" id="m715675874a" style="stroke:#000080;"/>
    </defs>
    <g>
     <use style="fill:#000080;stroke:#000080;" x="202.776784" xlink:href="#m715675874a" y="44.021228"/>
     <use style="fill:#000080;stroke:#000080;" x="202.776784" xlink:href="#m715675874a" y="44.021228"/>
    </g>
   </g>
   <g id="line2d_43">
    <path d="M 45.512012 298.944 
L 45.512012 279.449906 
L 57.6 279.449906 
L 57.6 278.450209 
L 64.67102 278.450209 
L 64.67102 275.451117 
L 69.687988 275.451117 
L 69.687988 272.452026 
L 76.759008 272.452026 
L 76.759008 269.952783 
L 79.447285 269.952783 
L 79.447285 267.45354 
L 85.66744 267.45354 
L 85.66744 265.953994 
L 88.846997 265.953994 
L 88.846997 265.454146 
L 90.242884 265.454146 
L 90.242884 264.954297 
L 94.921215 264.954297 
L 94.921215 263.9546 
L 95.918017 263.9546 
L 95.918017 263.454751 
L 97.755429 263.454751 
L 97.755429 262.455054 
L 98.606294 262.455054 
L 98.606294 261.455357 
L 99.41757 261.455357 
L 99.41757 260.45566 
L 100.192776 260.45566 
L 100.192776 259.955811 
L 101.646892 259.955811 
L 101.646892 258.456266 
L 102.330873 258.456266 
L 102.330873 256.95672 
L 105.398279 256.95672 
L 105.398279 254.957326 
L 105.951954 254.957326 
L 105.951954 253.957628 
L 107.514726 253.957628 
L 107.514726 252.458083 
L 108.006005 252.458083 
L 108.006005 251.458386 
L 110.694282 251.458386 
L 110.694282 250.458688 
L 112.655818 250.458688 
L 112.655818 249.95884 
L 115.397021 249.95884 
L 115.397021 249.458991 
L 117.486268 249.458991 
L 117.486268 248.459294 
L 117.765302 248.459294 
L 117.765302 247.959446 
L 118.310324 247.959446 
L 118.310324 247.459597 
L 118.838828 247.459597 
L 118.838828 244.960354 
L 119.097192 244.960354 
L 119.097192 244.460506 
L 119.602714 244.460506 
L 119.602714 242.96096 
L 120.093994 242.96096 
L 120.093994 240.961566 
L 120.571812 240.961566 
L 120.571812 238.962171 
L 121.712041 238.962171 
L 121.712041 237.962474 
L 122.782271 237.962474 
L 122.782271 237.462626 
L 123.394238 237.462626 
L 123.394238 236.962777 
L 123.985457 236.962777 
L 123.985457 233.963685 
L 124.368753 233.963685 
L 124.368753 232.963988 
L 124.557288 232.963988 
L 124.557288 232.46414 
L 125.110962 232.46414 
L 125.110962 231.964291 
L 125.647598 231.964291 
L 125.647598 231.464443 
L 126.50685 231.464443 
L 126.50685 228.465351 
L 128.260216 228.465351 
L 128.260216 227.965503 
L 128.411207 227.965503 
L 128.411207 226.965805 
L 128.709321 226.965805 
L 128.709321 226.465957 
L 129.433047 226.465957 
L 129.433047 225.46626 
L 129.714332 225.46626 
L 129.714332 224.466563 
L 130.664567 224.466563 
L 130.664567 223.966714 
L 132.060454 223.966714 
L 132.060454 223.466865 
L 132.422528 223.466865 
L 132.422528 222.467168 
L 132.659801 222.467168 
L 132.659801 221.467471 
L 132.777237 221.467471 
L 132.777237 220.967623 
L 133.800029 220.967623 
L 133.800029 219.468077 
L 134.019394 219.468077 
L 134.019394 217.968531 
L 135.076644 217.968531 
L 135.076644 217.468683 
L 135.280614 217.468683 
L 135.280614 216.468985 
L 135.582166 216.468985 
L 135.582166 215.469288 
L 135.878591 215.469288 
L 135.878591 214.469591 
L 136.361705 214.469591 
L 136.361705 213.969743 
L 137.289545 213.969743 
L 137.289545 213.469894 
L 138.170504 213.469894 
L 138.170504 212.470197 
L 139.8092 212.470197 
L 139.887228 209.471105 
L 139.964909 209.471105 
L 139.964909 208.971257 
L 140.195896 208.971257 
L 140.195896 207.97156 
L 140.723258 207.97156 
L 140.723258 205.972165 
L 142.215919 205.972165 
L 142.215919 203.972771 
L 144.087359 203.972771 
L 144.087359 203.472923 
L 144.390658 203.472923 
L 144.390658 202.973074 
L 146.958248 202.973074 
L 146.958248 202.473225 
L 148.015498 202.473225 
L 148.015498 201.473528 
L 148.826773 201.473528 
L 148.826773 200.97368 
L 150.891184 200.97368 
L 150.891184 200.473831 
L 151.340991 200.473831 
L 151.340991 199.973983 
L 152.398241 199.973983 
L 152.398241 199.474134 
L 153.359122 199.474134 
L 153.359122 198.474437 
L 153.573542 198.474437 
L 153.573542 197.974588 
L 153.820412 197.974588 
L 153.820412 196.475043 
L 155.584129 196.475043 
L 155.584129 195.475345 
L 156.083319 195.475345 
L 156.083319 194.975497 
L 157.156845 194.975497 
L 157.156845 194.475648 
L 157.697862 194.475648 
L 157.697862 193.9758 
L 158.113432 193.9758 
L 158.113432 193.475951 
L 159.658204 193.475951 
L 159.733212 190.47686 
L 159.980933 190.47686 
L 159.980933 189.977011 
L 160.821253 189.977011 
L 160.821253 189.477162 
L 161.306672 189.477162 
L 161.306672 187.977617 
L 162.749842 187.977617 
L 162.749842 187.477768 
L 162.875305 187.477768 
L 162.875305 186.97792 
L 163.061823 186.97792 
L 163.061823 185.978222 
L 163.287113 185.978222 
L 163.287113 185.478374 
L 163.589711 185.478374 
L 163.689421 184.478677 
L 163.887148 184.478677 
L 163.926426 180.479888 
L 164.024234 180.479888 
L 164.024234 179.480191 
L 164.256762 179.480191 
L 164.256762 178.480494 
L 164.371873 178.480494 
L 164.371873 176.980948 
L 164.693955 176.980948 
L 164.75018 175.481402 
L 164.973287 175.481402 
L 165.083779 171.982462 
L 165.211808 171.982462 
L 165.211808 170.982765 
L 165.338904 170.982765 
L 165.429123 168.483522 
L 165.643763 168.483522 
L 165.7501 166.484128 
L 165.803027 166.484128 
L 165.803027 164.484734 
L 165.925901 164.484734 
L 166.013141 161.985491 
L 166.169082 161.985491 
L 166.237944 158.9864 
L 166.442913 158.9864 
L 166.544502 157.986702 
L 167.109252 157.986702 
L 167.109252 157.486854 
L 167.304287 157.486854 
L 167.304287 153.488065 
L 167.640438 153.488065 
L 167.640438 152.988217 
L 167.782543 152.988217 
L 167.782543 147.489882 
L 167.985782 147.489882 
L 167.985782 145.990337 
L 168.445948 145.990337 
L 168.445948 145.490488 
L 168.596677 145.490488 
L 168.626667 141.491699 
L 168.879523 141.491699 
L 168.879523 140.991851 
L 169.026567 140.991851 
L 169.070439 136.993062 
L 169.673338 136.993062 
L 169.673338 135.493517 
L 169.78585 135.493517 
L 169.78585 134.993668 
L 169.897641 134.993668 
L 169.981016 133.993971 
L 170.036379 133.993971 
L 170.14658 132.494425 
L 170.324185 132.494425 
L 170.324185 131.994577 
L 170.634045 131.994577 
L 170.634045 130.994879 
L 170.912232 130.994879 
L 171.017051 124.496848 
L 171.121244 124.496848 
L 171.121244 123.996999 
L 171.417378 123.996999 
L 171.417378 122.997302 
L 171.569909 122.997302 
L 171.67086 119.498362 
L 171.696007 119.498362 
L 171.696007 118.498665 
L 171.908303 118.498665 
L 171.908303 116.999119 
L 172.019658 116.999119 
L 172.130306 114.999725 
L 172.337411 114.999725 
L 172.337411 113.500179 
L 172.458099 113.500179 
L 172.530112 111.000937 
L 172.685129 111.000937 
L 172.685129 110.501088 
L 172.967743 110.501088 
L 173.026049 108.501694 
L 173.245851 108.501694 
L 173.245851 107.002148 
L 173.394661 107.002148 
L 173.394661 106.002451 
L 173.576085 106.002451 
L 173.576085 105.002754 
L 173.688525 105.002754 
L 173.755642 104.003056 
L 173.866933 104.003056 
L 173.977519 103.003359 
L 174.043535 103.003359 
L 174.13117 101.003965 
L 174.218366 101.003965 
L 174.240098 100.004268 
L 174.573514 100.004268 
L 174.573514 98.504722 
L 174.84832 98.504722 
L 174.921573 97.505025 
L 175.55729 97.505025 
L 175.647675 92.006691 
L 175.866664 92.006691 
L 175.975136 90.007296 
L 176.02422 90.007296 
L 176.073165 88.507751 
L 177.408792 88.507751 
L 177.408792 88.007902 
L 177.535099 88.007902 
L 177.535099 87.508054 
L 177.66942 87.508054 
L 177.66942 86.508356 
L 177.855749 86.508356 
L 177.899821 85.508659 
L 178.343106 85.508659 
L 178.351686 82.009719 
L 180.767015 82.009719 
L 180.767015 80.010325 
L 185.476949 80.010325 
L 185.476949 78.510779 
L 185.988171 78.510779 
L 186.032405 77.511082 
L 186.251908 77.511082 
L 186.251908 77.011234 
L 188.156265 77.011234 
L 188.156265 76.511385 
L 188.316863 76.511385 
L 188.38455 75.011839 
L 188.638444 75.011839 
L 188.723837 72.012748 
L 188.761656 72.012748 
L 188.841751 70.513202 
L 188.930834 70.513202 
L 188.940185 68.513808 
L 189.241389 68.513808 
L 189.241389 68.013959 
L 189.410549 68.013959 
L 189.410549 67.014262 
L 189.659008 67.014262 
L 189.739559 65.014868 
L 189.921659 65.014868 
L 189.921659 62.515625 
L 190.75421 62.515625 
L 190.75421 62.015776 
L 191.370825 62.015776 
L 191.370825 60.016382 
L 191.613097 60.016382 
L 191.669147 56.517442 
L 191.736965 56.517442 
L 191.808486 54.518048 
L 195.433037 54.518048 
L 195.433037 54.018199 
L 195.599737 54.018199 
L 195.704707 50.519259 
L 201.051529 50.519259 
L 201.086503 49.519562 
L 202.152657 49.519562 
L 202.152657 48.519865 
L 202.283632 48.519865 
L 202.283632 48.020016 
L 202.655862 48.020016 
L 202.753514 45.520773 
L 202.776784 45.520773 
L 202.776784 44.021228 
L 338.688 44.021228 
L 338.688 44.021228 
" style="fill:none;stroke:#000080;stroke-linecap:square;stroke-width:1.5;"/>
   </g>
   <g id="line2d_44">
    <defs>
     <path d="M 0 6 
C 1.591219 6 3.117479 5.367802 4.242641 4.242641 
C 5.367802 3.117479 6 1.591219 6 0 
C 6 -1.591219 5.367802 -3.117479 4.242641 -4.242641 
C 3.117479 -5.367802 1.591219 -6 0 -6 
C -1.591219 -6 -3.117479 -5.367802 -4.242641 -4.242641 
C -5.367802 -3.117479 -6 -1.591219 -6 0 
C -6 1.591219 -5.367802 3.117479 -4.242641 4.242641 
C -3.117479 5.367802 -1.591219 6 0 6 
z
" id="m97db3f4453" style="stroke:#000080;stroke-width:1.5;"/>
    </defs>
    <g>
     <use style="fill-opacity:0;stroke:#000080;stroke-width:1.5;" x="98.606294" xlink:href="#m97db3f4453" y="261.455357"/>
     <use style="fill-opacity:0;stroke:#000080;stroke-width:1.5;" x="140.723258" xlink:href="#m97db3f4453" y="205.972165"/>
     <use style="fill-opacity:0;stroke:#000080;stroke-width:1.5;" x="191.669147" xlink:href="#m97db3f4453" y="56.517442"/>
     <use style="fill-opacity:0;stroke:#000080;stroke-width:1.5;" x="202.776784" xlink:href="#m97db3f4453" y="44.021228"/>
     <use style="fill-opacity:0;stroke:#000080;stroke-width:1.5;" x="202.776784" xlink:href="#m97db3f4453" y="44.021228"/>
     <use style="fill-opacity:0;stroke:#000080;stroke-width:1.5;" x="338.688" xlink:href="#m97db3f4453" y="44.021228"/>
    </g>
   </g>
   <g id="line2d_45">
    <path style="fill:none;stroke:#000080;stroke-linecap:square;stroke-width:1.5;"/>
    <g/>
   </g>
   <g id="line2d_46">
    <defs>
     <path d="M 0 1.5 
C 0.397805 1.5 0.77937 1.341951 1.06066 1.06066 
C 1.341951 0.77937 1.5 0.397805 1.5 0 
C 1.5 -0.397805 1.341951 -0.77937 1.06066 -1.06066 
C 0.77937 -1.341951 0.397805 -1.5 0 -1.5 
C -0.397805 -1.5 -0.77937 -1.341951 -1.06066 -1.06066 
C -1.341951 -0.77937 -1.5 -0.397805 -1.5 0 
C -1.5 0.397805 -1.341951 0.77937 -1.06066 1.06066 
C -0.77937 1.341951 -0.397805 1.5 0 1.5 
z
" id="m01d682a296" style="stroke:#ff00ff;"/>
    </defs>
    <g>
     <use style="fill:#ff00ff;stroke:#ff00ff;" x="205.516027" xlink:href="#m01d682a296" y="44.021228"/>
     <use style="fill:#ff00ff;stroke:#ff00ff;" x="205.516027" xlink:href="#m01d682a296" y="44.021228"/>
    </g>
   </g>
   <g id="line2d_47">
    <path d="M 45.512012 298.944 
L 45.512012 277.95036 
L 57.6 277.95036 
L 57.6 275.451117 
L 64.67102 275.451117 
L 64.67102 274.45142 
L 69.687988 274.45142 
L 69.687988 273.951571 
L 73.579452 273.951571 
L 73.579452 273.451723 
L 76.759008 273.451723 
L 76.759008 269.952783 
L 81.775977 269.952783 
L 81.775977 267.953388 
L 83.830028 267.953388 
L 83.830028 267.45354 
L 85.66744 267.45354 
L 85.66744 266.453843 
L 87.329581 266.453843 
L 87.329581 264.454448 
L 93.863965 264.454448 
L 93.863965 263.9546 
L 95.918017 263.9546 
L 95.918017 262.954903 
L 96.86091 262.954903 
L 96.86091 261.955206 
L 98.606294 261.955206 
L 98.606294 260.955508 
L 101.646892 260.955508 
L 101.646892 259.455963 
L 102.989037 259.455963 
L 102.989037 258.956114 
L 108.483824 258.956114 
L 108.483824 258.456266 
L 108.948899 258.456266 
L 108.948899 256.95672 
L 109.843417 256.95672 
L 109.843417 255.957023 
L 112.280765 255.957023 
L 112.280765 254.957326 
L 113.022974 254.957326 
L 113.022974 254.457477 
L 113.73488 254.457477 
L 113.73488 253.957628 
L 114.418861 253.957628 
L 114.418861 252.458083 
L 114.751048 252.458083 
L 114.751048 249.95884 
L 117.202696 249.95884 
L 117.202696 248.959143 
L 117.765302 248.959143 
L 117.765302 247.959446 
L 118.310324 247.959446 
L 118.310324 246.959748 
L 118.576578 246.959748 
L 118.576578 246.4599 
L 119.351785 246.4599 
L 119.351785 245.460203 
L 119.602714 245.460203 
L 119.602714 244.960354 
L 121.036887 244.960354 
L 121.036887 244.460506 
L 122.782271 244.460506 
L 122.782271 243.960657 
L 124.92835 243.960657 
L 124.92835 242.96096 
L 125.291682 242.96096 
L 125.291682 242.461111 
L 125.996395 242.461111 
L 125.996395 241.461414 
L 126.168212 241.461414 
L 126.168212 240.461717 
L 126.839037 240.461717 
L 126.839037 239.961868 
L 127.165014 239.961868 
L 127.165014 238.462323 
L 127.642832 238.462323 
L 127.642832 237.962474 
L 127.799239 237.962474 
L 127.799239 237.462626 
L 128.411207 237.462626 
L 128.411207 236.462928 
L 129.853291 236.462928 
L 129.853291 235.463231 
L 130.531948 235.463231 
L 130.531948 234.963383 
L 132.181982 234.963383 
L 132.181982 234.463534 
L 132.659801 234.463534 
L 132.659801 233.463837 
L 133.124876 233.463837 
L 133.124876 232.963988 
L 133.57787 232.963988 
L 133.57787 232.46414 
L 135.381712 232.46414 
L 135.381712 231.464443 
L 135.681535 231.464443 
L 135.780341 229.964897 
L 135.97629 229.964897 
L 135.97629 229.465048 
L 136.361705 229.465048 
L 136.361705 228.9652 
L 136.551264 228.9652 
L 136.551264 227.965503 
L 136.831795 227.965503 
L 136.924311 226.965805 
L 137.016339 226.965805 
L 137.016339 226.465957 
L 138.510793 226.465957 
L 138.594838 223.466865 
L 139.253002 223.466865 
L 139.253002 222.467168 
L 139.652088 222.467168 
L 139.652088 221.467471 
L 139.887228 221.467471 
L 139.887228 220.467774 
L 140.272217 220.467774 
L 140.348205 214.469591 
L 140.723258 214.469591 
L 140.723258 213.969743 
L 141.45 213.969743 
L 141.45 213.469894 
L 141.732423 213.469894 
L 141.732423 212.970045 
L 142.818488 212.970045 
L 142.818488 211.970348 
L 143.464461 211.970348 
L 143.464461 211.4705 
L 143.716296 211.4705 
L 143.716296 210.470803 
L 144.209312 210.470803 
L 144.209312 209.970954 
L 145.155404 209.970954 
L 145.212864 207.471711 
L 145.609873 207.471711 
L 145.665858 205.972165 
L 145.888018 205.972165 
L 145.888018 205.472317 
L 146.107383 205.472317 
L 146.161795 203.972771 
L 146.377764 203.972771 
L 146.377764 203.472923 
L 147.061745 203.472923 
L 147.061745 202.473225 
L 147.570215 202.473225 
L 147.620256 200.97368 
L 147.96658 200.97368 
L 148.015498 199.474134 
L 148.161434 199.474134 
L 148.258051 195.975194 
L 148.780082 195.975194 
L 148.780082 194.975497 
L 149.557321 194.975497 
L 149.557321 194.475648 
L 151.818809 194.475648 
L 151.818809 193.475951 
L 151.936246 193.475951 
L 151.936246 192.476254 
L 152.130233 192.476254 
L 152.130233 191.976405 
L 152.360205 191.976405 
L 152.360205 191.476557 
L 152.736878 191.476557 
L 152.811246 188.977314 
L 152.959038 188.977314 
L 153.069065 186.478071 
L 153.178403 186.478071 
L 153.178403 184.978525 
L 153.925152 184.978525 
L 153.925152 183.978828 
L 154.098334 183.978828 
L 154.098334 182.479282 
L 156.508689 182.479282 
L 156.508689 181.979434 
L 157.272146 181.979434 
L 157.272146 181.479585 
L 158.385078 181.479585 
L 158.385078 180.979737 
L 159.658204 180.979737 
L 159.658204 179.480191 
L 160.656397 179.480191 
L 160.656397 178.980342 
L 161.030947 178.980342 
L 161.12334 174.481705 
L 161.801118 174.481705 
L 161.801118 173.981857 
L 161.977497 173.981857 
L 161.977497 173.482008 
L 162.53871 173.482008 
L 162.53871 172.482311 
L 162.707819 172.482311 
L 162.707819 171.982462 
L 163.123555 171.982462 
L 163.123555 171.482614 
L 163.887148 171.482614 
L 163.887148 170.482917 
L 164.448194 170.482917 
L 164.448194 169.983068 
L 164.843488 169.983068 
L 164.843488 168.983371 
L 165.211808 168.983371 
L 165.230021 167.983674 
L 165.59035 167.983674 
L 165.59035 166.484128 
L 165.925901 166.484128 
L 165.943384 164.984582 
L 166.306535 164.984582 
L 166.374858 163.984885 
L 166.729224 163.984885 
L 166.829163 161.485642 
L 167.043752 161.485642 
L 167.043752 160.985794 
L 167.513144 160.985794 
L 167.608702 159.486248 
L 167.656285 159.486248 
L 167.656285 157.486854 
L 167.923499 157.486854 
L 168.001318 156.487157 
L 168.140524 156.487157 
L 168.202038 155.48746 
L 168.339657 155.48746 
L 168.339657 154.987611 
L 168.476198 154.987611 
L 168.476198 153.488065 
L 168.611679 153.488065 
L 168.611679 152.488368 
L 168.731229 152.488368 
L 168.805533 150.988822 
L 168.909031 150.988822 
L 168.909031 150.488974 
L 169.157854 150.488974 
L 169.157854 149.489277 
L 169.331381 149.489277 
L 169.345764 147.989731 
L 169.545889 147.989731 
L 169.545889 147.489882 
L 169.75779 147.489882 
L 169.75779 145.990337 
L 169.994873 145.990337 
L 170.091567 143.990942 
L 170.14658 143.990942 
L 170.174022 140.492002 
L 170.26973 140.492002 
L 170.351349 139.492305 
L 170.620687 139.492305 
L 170.620687 138.492608 
L 170.925369 138.492608 
L 170.925369 137.492911 
L 171.082245 137.492911 
L 171.082245 134.493819 
L 171.224819 134.493819 
L 171.224819 132.994274 
L 171.404607 132.994274 
L 171.481095 128.995485 
L 171.721118 128.995485 
L 171.8212 127.495939 
L 171.93311 127.495939 
L 171.93311 124.996697 
L 172.179258 124.996697 
L 172.276753 119.498362 
L 172.337411 119.498362 
L 172.337411 118.498665 
L 172.756213 118.498665 
L 172.815229 116.499271 
L 172.885786 116.499271 
L 172.991089 113.000331 
L 173.06094 113.000331 
L 173.118935 109.501391 
L 173.234351 109.501391 
L 173.31469 107.501997 
L 173.508272 107.501997 
L 173.508272 106.502299 
L 173.722116 106.502299 
L 173.789104 103.503208 
L 173.83362 103.503208 
L 173.855836 101.503814 
L 173.955458 101.503814 
L 174.054514 97.505025 
L 174.174823 97.505025 
L 174.174823 96.505328 
L 174.348349 96.505328 
L 174.369919 94.006085 
L 174.647927 94.006085 
L 174.690307 90.007296 
L 175.395439 90.007296 
L 175.395439 89.507448 
L 175.597519 89.507448 
L 175.597519 89.007599 
L 175.994786 89.007599 
L 175.994786 87.008205 
L 176.564717 87.008205 
L 176.574218 85.508659 
L 176.697263 85.508659 
L 176.697263 84.508962 
L 177.171768 84.508962 
L 177.226752 83.509265 
L 177.308905 83.509265 
L 177.327109 82.509568 
L 177.713965 82.509568 
L 177.713965 80.510174 
L 184.082962 80.510174 
L 184.082962 78.510779 
L 184.285568 78.510779 
L 184.285568 78.010931 
L 184.413285 78.010931 
L 184.515993 72.012748 
L 184.528037 72.012748 
L 184.528037 71.512899 
L 184.642039 71.512899 
L 184.642039 71.013051 
L 184.802771 71.013051 
L 184.873735 70.013354 
L 184.926769 70.013354 
L 184.926769 69.013656 
L 185.206924 69.013656 
L 185.316587 68.013959 
L 185.539547 68.013959 
L 185.641499 66.014565 
L 185.664074 66.014565 
L 185.731624 62.515625 
L 185.921609 62.515625 
L 185.921609 62.015776 
L 186.08754 62.015776 
L 186.158957 58.016988 
L 186.213694 58.016988 
L 186.213694 57.517139 
L 186.511716 57.517139 
L 186.592119 56.017593 
L 186.640183 56.017593 
L 186.640183 55.517745 
L 186.957269 55.517745 
L 186.957269 54.518048 
L 192.750128 54.518048 
L 192.750128 53.018502 
L 192.922092 53.018502 
L 192.922092 52.018805 
L 193.132852 52.018805 
L 193.132852 51.019108 
L 193.471348 51.019108 
L 193.510955 47.520168 
L 193.814006 47.520168 
L 193.814006 47.020319 
L 205.359946 47.020319 
L 205.365414 45.520773 
L 205.516027 45.520773 
L 205.516027 44.021228 
L 338.688 44.021228 
L 338.688 44.021228 
" style="fill:none;stroke:#ff00ff;stroke-linecap:square;stroke-width:1.5;"/>
   </g>
   <g id="line2d_48">
    <defs>
     <path d="M -0 8.485281 
L 5.091169 0 
L 0 -8.485281 
L -5.091169 -0 
z
" id="m85b5c385f0" style="stroke:#ff00ff;stroke-linejoin:miter;stroke-width:1.5;"/>
    </defs>
    <g>
     <use style="fill-opacity:0;stroke:#ff00ff;stroke-linejoin:miter;stroke-width:1.5;" x="132.181982" xlink:href="#m85b5c385f0" y="234.963383"/>
     <use style="fill-opacity:0;stroke:#ff00ff;stroke-linejoin:miter;stroke-width:1.5;" x="173.855836" xlink:href="#m85b5c385f0" y="101.503814"/>
     <use style="fill-opacity:0;stroke:#ff00ff;stroke-linejoin:miter;stroke-width:1.5;" x="205.516027" xlink:href="#m85b5c385f0" y="45.520773"/>
     <use style="fill-opacity:0;stroke:#ff00ff;stroke-linejoin:miter;stroke-width:1.5;" x="205.516027" xlink:href="#m85b5c385f0" y="44.021228"/>
     <use style="fill-opacity:0;stroke:#ff00ff;stroke-linejoin:miter;stroke-width:1.5;" x="205.516027" xlink:href="#m85b5c385f0" y="44.021228"/>
     <use style="fill-opacity:0;stroke:#ff00ff;stroke-linejoin:miter;stroke-width:1.5;" x="338.688" xlink:href="#m85b5c385f0" y="44.021228"/>
    </g>
   </g>
   <g id="line2d_49">
    <path style="fill:none;stroke:#ff00ff;stroke-linecap:square;stroke-width:1.5;"/>
    <g/>
   </g>
   <g id="line2d_50">
    <defs>
     <path d="M 0 1.5 
C 0.397805 1.5 0.77937 1.341951 1.06066 1.06066 
C 1.341951 0.77937 1.5 0.397805 1.5 0 
C 1.5 -0.397805 1.341951 -0.77937 1.06066 -1.06066 
C 0.77937 -1.341951 0.397805 -1.5 0 -1.5 
C -0.397805 -1.5 -0.77937 -1.341951 -1.06066 -1.06066 
C -1.341951 -0.77937 -1.5 -0.397805 -1.5 0 
C -1.5 0.397805 -1.341951 0.77937 -1.06066 1.06066 
C -0.77937 1.341951 -0.397805 1.5 0 1.5 
z
" id="m3c5ccb23df" style="stroke:#ffa500;"/>
    </defs>
    <g>
     <use style="fill:#ffa500;stroke:#ffa500;" x="203.596514" xlink:href="#m3c5ccb23df" y="44.021228"/>
     <use style="fill:#ffa500;stroke:#ffa500;" x="203.596514" xlink:href="#m3c5ccb23df" y="44.021228"/>
    </g>
   </g>
   <g id="line2d_51">
    <path d="M 45.512012 298.944 
L 45.512012 287.447483 
L 57.6 287.447483 
L 57.6 278.450209 
L 64.67102 278.450209 
L 64.67102 274.951268 
L 69.687988 274.951268 
L 69.687988 272.452026 
L 73.579452 272.452026 
L 73.579452 271.952177 
L 76.759008 271.952177 
L 76.759008 270.95248 
L 79.447285 270.95248 
L 79.447285 270.452631 
L 81.775977 270.452631 
L 81.775977 267.45354 
L 87.329581 267.45354 
L 87.329581 266.953691 
L 90.242884 266.953691 
L 90.242884 265.454146 
L 91.535274 265.454146 
L 91.535274 264.454448 
L 96.86091 264.454448 
L 96.86091 263.9546 
L 102.330873 263.9546 
L 102.330873 263.454751 
L 103.623262 263.454751 
L 103.623262 262.954903 
L 105.951954 262.954903 
L 105.951954 262.455054 
L 107.009204 262.455054 
L 107.009204 261.955206 
L 110.274038 261.955206 
L 110.274038 260.955508 
L 110.694282 260.955508 
L 110.694282 259.955811 
L 111.505558 259.955811 
L 111.505558 258.956114 
L 111.897469 258.956114 
L 111.897469 256.456871 
L 112.280765 256.456871 
L 112.280765 255.957023 
L 112.655818 255.957023 
L 112.655818 254.457477 
L 114.080224 254.457477 
L 114.080224 253.45778 
L 114.751048 253.45778 
L 114.751048 252.957931 
L 115.397021 252.957931 
L 115.397021 251.958234 
L 115.711251 251.958234 
L 115.711251 250.958537 
L 116.323218 250.958537 
L 116.323218 250.458688 
L 116.621333 250.458688 
L 116.621333 249.95884 
L 117.765302 249.95884 
L 117.765302 248.959143 
L 118.576578 248.959143 
L 118.576578 247.959446 
L 119.351785 247.959446 
L 119.351785 245.460203 
L 119.850084 245.460203 
L 119.850084 244.460506 
L 120.33454 244.460506 
L 120.33454 243.960657 
L 122.362027 243.960657 
L 122.362027 242.96096 
L 122.573415 242.96096 
L 122.573415 241.961263 
L 122.988655 241.961263 
L 122.988655 241.461414 
L 123.192626 241.461414 
L 123.192626 240.461717 
L 123.394238 240.461717 
L 123.394238 239.961868 
L 123.790603 239.961868 
L 123.790603 239.46202 
L 124.178158 239.46202 
L 124.178158 238.962171 
L 124.368753 238.962171 
L 124.368753 238.462323 
L 124.92835 238.462323 
L 124.92835 237.962474 
L 125.291682 237.962474 
L 125.291682 236.962777 
L 126.338353 236.962777 
L 126.338353 236.462928 
L 126.839037 236.462928 
L 126.839037 234.963383 
L 128.709321 234.963383 
L 128.709321 233.463837 
L 128.856489 233.463837 
L 128.856489 232.963988 
L 129.002426 232.963988 
L 129.002426 232.46414 
L 129.433047 232.46414 
L 129.433047 231.964291 
L 129.991152 231.964291 
L 129.991152 231.464443 
L 130.926816 231.464443 
L 130.926816 230.464745 
L 132.060454 230.464745 
L 132.060454 229.964897 
L 132.422528 229.964897 
L 132.422528 228.465351 
L 132.541568 228.465351 
L 132.541568 226.465957 
L 132.659801 226.465957 
L 132.659801 225.966108 
L 133.009765 225.966108 
L 133.009765 225.46626 
L 133.124876 225.46626 
L 133.124876 223.966714 
L 134.019394 223.966714 
L 134.019394 223.466865 
L 134.343353 223.466865 
L 134.450015 221.467471 
L 135.178927 221.467471 
L 135.178927 220.967623 
L 135.681535 220.967623 
L 135.780341 219.967925 
L 135.878591 219.967925 
L 135.878591 219.468077 
L 136.361705 219.468077 
L 136.361705 218.968228 
L 137.016339 218.968228 
L 137.016339 218.46838 
L 137.558536 218.46838 
L 137.558536 216.468985 
L 137.910857 216.468985 
L 137.910857 215.969137 
L 138.256201 215.969137 
L 138.256201 215.469288 
L 138.510793 215.469288 
L 138.510793 212.970045 
L 138.761723 212.970045 
L 138.761723 211.4705 
L 139.009092 211.4705 
L 139.009092 210.970651 
L 139.887228 210.970651 
L 139.887228 210.470803 
L 140.195896 210.470803 
L 140.195896 209.970954 
L 140.348205 209.970954 
L 140.348205 208.971257 
L 140.574203 208.971257 
L 140.574203 208.471408 
L 141.017599 208.471408 
L 141.017599 207.97156 
L 141.521035 207.97156 
L 141.521035 206.472014 
L 142.619936 206.472014 
L 142.619936 204.47262 
L 143.337167 204.47262 
L 143.337167 202.973074 
L 143.590833 202.973074 
L 143.653678 201.473528 
L 143.778691 201.473528 
L 143.840863 198.474437 
L 144.330419 198.474437 
L 144.330419 196.974891 
L 144.45069 196.974891 
L 144.45069 196.475043 
L 144.629556 196.475043 
L 144.629556 195.975194 
L 144.747789 195.975194 
L 144.747789 195.475345 
L 145.039911 195.475345 
L 145.039911 194.975497 
L 145.270136 194.975497 
L 145.270136 193.475951 
L 145.888018 193.475951 
L 145.888018 192.976103 
L 146.107383 192.976103 
L 146.107383 190.976708 
L 146.591092 190.976708 
L 146.696785 188.977314 
L 146.958248 188.977314 
L 147.061745 187.477768 
L 147.368603 187.477768 
L 147.368603 185.978222 
L 147.570215 185.978222 
L 147.670154 182.479282 
L 147.96658 182.479282 
L 147.96658 181.979434 
L 148.209809 181.979434 
L 148.209809 178.480494 
L 148.354135 178.480494 
L 148.354135 177.980645 
L 148.497276 177.980645 
L 148.497276 177.480797 
L 149.058374 177.480797 
L 149.058374 175.481402 
L 149.195872 175.481402 
L 149.195872 174.981554 
L 149.823575 174.981554 
L 149.823575 173.482008 
L 149.955193 173.482008 
L 150.042389 171.482614 
L 150.215485 171.482614 
L 150.215485 170.482917 
L 150.556607 170.482917 
L 150.598782 168.483522 
L 150.849711 168.483522 
L 150.849711 166.484128 
L 151.300575 166.484128 
L 151.300575 165.98428 
L 152.052897 165.98428 
L 152.130233 164.984582 
L 152.322086 164.984582 
L 152.322086 163.984885 
L 153.502361 163.984885 
L 153.573542 161.985491 
L 153.750233 161.985491 
L 153.855395 159.986097 
L 153.994632 159.986097 
L 154.098334 158.9864 
L 154.405793 158.9864 
L 154.473387 156.487157 
L 155.329071 156.487157 
L 155.329071 155.987308 
L 155.488919 155.987308 
L 155.488919 155.48746 
L 155.61575 155.48746 
L 155.61575 154.987611 
L 155.741666 154.987611 
L 155.741666 153.987914 
L 155.928852 153.987914 
L 155.928852 152.988217 
L 156.175347 152.988217 
L 156.266892 149.489277 
L 156.478647 149.489277 
L 156.568618 147.489882 
L 156.598505 147.489882 
L 156.598505 146.990034 
L 156.806295 146.990034 
L 156.806295 146.490185 
L 156.98245 146.490185 
L 157.040776 144.990639 
L 158.994256 144.990639 
L 158.994256 142.991245 
L 161.169354 142.991245 
L 161.169354 138.492608 
L 161.689969 138.492608 
L 161.689969 137.992759 
L 162.303474 137.992759 
L 162.303474 137.492911 
L 162.62347 137.492911 
L 162.62347 136.493214 
L 163.266752 136.493214 
L 163.266752 135.993365 
L 165.230021 135.993365 
L 165.230021 135.493517 
L 166.994465 135.493517 
L 167.027338 133.993971 
L 167.174506 133.993971 
L 167.174506 131.994577 
L 167.76681 131.994577 
L 167.813965 129.495334 
L 168.566635 129.495334 
L 168.566635 127.995788 
L 168.790698 127.995788 
L 168.849965 126.496242 
L 169.070439 126.496242 
L 169.128764 124.496848 
L 169.588476 124.496848 
L 169.588476 123.497151 
L 169.994873 123.497151 
L 170.063995 121.997605 
L 170.40555 121.997605 
L 170.40555 120.997908 
L 171.069226 120.997908 
L 171.069226 120.498059 
L 171.263501 120.498059 
L 171.353428 117.998817 
L 171.442893 117.998817 
L 171.455636 116.499271 
L 172.118046 116.499271 
L 172.118046 114.499877 
L 172.482136 114.499877 
L 172.482136 113.500179 
L 172.613754 113.500179 
L 172.613754 113.000331 
L 172.885786 113.000331 
L 172.885786 112.500482 
L 173.049317 112.500482 
L 173.049317 112.000634 
L 173.234351 112.000634 
L 173.337576 109.001542 
L 173.643636 109.001542 
L 173.733298 106.502299 
L 173.766803 106.502299 
L 173.866933 104.003056 
L 174.03255 104.003056 
L 174.13117 100.504116 
L 174.240098 100.504116 
L 174.240098 100.004268 
L 174.391462 100.004268 
L 174.391462 99.504419 
L 174.637316 99.504419 
L 174.700886 97.505025 
L 174.795808 97.505025 
L 174.795808 96.005479 
L 174.942445 96.005479 
L 175.015304 94.006085 
L 175.067161 94.006085 
L 175.098201 92.006691 
L 175.334356 92.006691 
L 175.334356 90.507145 
L 175.767465 90.507145 
L 175.767465 89.507448 
L 177.399735 89.507448 
L 177.399735 89.007599 
L 177.562046 89.007599 
L 177.562046 88.007902 
L 177.820411 88.007902 
L 177.820411 87.008205 
L 178.048838 87.008205 
L 178.048838 86.508356 
L 178.248444 86.508356 
L 178.248444 86.008508 
L 178.513913 86.008508 
L 178.547874 84.009114 
L 179.472902 84.009114 
L 179.472902 83.509265 
L 179.823292 83.509265 
L 179.823292 81.509871 
L 180.420028 81.509871 
L 180.518792 79.010628 
L 180.789406 79.010628 
L 180.789406 78.010931 
L 184.932651 78.010931 
L 184.932651 77.011234 
L 185.172149 77.011234 
L 185.172149 76.511385 
L 185.45413 76.511385 
L 185.45413 75.511688 
L 185.669713 75.511688 
L 185.754083 73.512294 
L 185.888232 73.512294 
L 185.888232 73.012445 
L 186.398526 73.012445 
L 186.398526 72.012748 
L 186.8364 72.012748 
L 186.8364 71.512899 
L 187.355928 71.512899 
L 187.376391 69.513505 
L 187.493588 69.513505 
L 187.503741 68.013959 
L 187.640243 68.013959 
L 187.725644 67.014262 
L 187.785676 67.014262 
L 187.860426 66.014565 
L 188.307171 66.014565 
L 188.307171 65.514716 
L 190.855016 65.514716 
L 190.880126 63.015474 
L 190.992679 63.015474 
L 191.071449 62.015776 
L 191.472181 62.015776 
L 191.472181 61.515928 
L 191.705083 61.515928 
L 191.705083 60.016382 
L 191.84018 60.016382 
L 191.927041 57.517139 
L 192.009552 57.517139 
L 192.009552 56.517442 
L 195.50055 56.517442 
L 195.50055 55.517745 
L 200.22958 55.517745 
L 200.276004 53.518351 
L 200.49424 53.518351 
L 200.49424 52.518653 
L 201.546244 52.518653 
L 201.650292 48.020016 
L 202.664375 48.020016 
L 202.664375 47.520168 
L 202.797913 47.520168 
L 202.797913 47.020319 
L 203.403836 47.020319 
L 203.403836 46.520471 
L 203.594497 46.520471 
L 203.596514 44.021228 
L 338.688 44.021228 
L 338.688 44.021228 
" style="fill:none;stroke:#ffa500;stroke-linecap:square;stroke-width:1.5;"/>
   </g>
   <g id="line2d_52">
    <defs>
     <path d="M 0 -6 
L -1.347084 -1.854102 
L -5.706339 -1.854102 
L -2.179628 0.708204 
L -3.526712 4.854102 
L -0 2.291796 
L 3.526712 4.854102 
L 2.179628 0.708204 
L 5.706339 -1.854102 
L 1.347084 -1.854102 
z
" id="mabc0727f37" style="stroke:#ffa500;stroke-linejoin:bevel;stroke-width:1.5;"/>
    </defs>
    <g>
     <use style="fill-opacity:0;stroke:#ffa500;stroke-linejoin:bevel;stroke-width:1.5;" x="103.623262" xlink:href="#mabc0727f37" y="262.954903"/>
     <use style="fill-opacity:0;stroke:#ffa500;stroke-linejoin:bevel;stroke-width:1.5;" x="155.928852" xlink:href="#mabc0727f37" y="152.988217"/>
     <use style="fill-opacity:0;stroke:#ffa500;stroke-linejoin:bevel;stroke-width:1.5;" x="201.650292" xlink:href="#mabc0727f37" y="49.519562"/>
     <use style="fill-opacity:0;stroke:#ffa500;stroke-linejoin:bevel;stroke-width:1.5;" x="203.596514" xlink:href="#mabc0727f37" y="44.021228"/>
     <use style="fill-opacity:0;stroke:#ffa500;stroke-linejoin:bevel;stroke-width:1.5;" x="203.596514" xlink:href="#mabc0727f37" y="44.021228"/>
     <use style="fill-opacity:0;stroke:#ffa500;stroke-linejoin:bevel;stroke-width:1.5;" x="338.688" xlink:href="#mabc0727f37" y="44.021228"/>
    </g>
   </g>
   <g id="line2d_53">
    <path style="fill:none;stroke:#ffa500;stroke-linecap:square;stroke-width:1.5;"/>
    <g/>
   </g>
   <g id="line2d_54">
    <path d="M 338.688 44.021228 
L 369.60768 293.845545 
" style="fill:none;stroke:#ff00ff;stroke-linecap:square;stroke-width:1.5;"/>
    <g>
     <use style="fill-opacity:0;stroke:#ff00ff;stroke-linejoin:miter;stroke-width:1.5;" x="338.688" xlink:href="#m85b5c385f0" y="44.021228"/>
     <use style="fill-opacity:0;stroke:#ff00ff;stroke-linejoin:miter;stroke-width:1.5;" x="369.60768" xlink:href="#m85b5c385f0" y="293.845545"/>
    </g>
   </g>
   <g id="line2d_55">
    <path d="M 338.688 44.021228 
L 369.60768 212.270257 
" style="fill:none;stroke:#ffa500;stroke-linecap:square;stroke-width:1.5;"/>
    <g>
     <use style="fill-opacity:0;stroke:#ffa500;stroke-linejoin:bevel;stroke-width:1.5;" x="338.688" xlink:href="#mabc0727f37" y="44.021228"/>
     <use style="fill-opacity:0;stroke:#ffa500;stroke-linejoin:bevel;stroke-width:1.5;" x="369.60768" xlink:href="#mabc0727f37" y="212.270257"/>
    </g>
   </g>
   <g id="line2d_56">
    <path d="M 338.688 44.021228 
L 369.60768 130.69497 
" style="fill:none;stroke:#000080;stroke-linecap:square;stroke-width:1.5;"/>
    <g>
     <use style="fill-opacity:0;stroke:#000080;stroke-width:1.5;" x="338.688" xlink:href="#m97db3f4453" y="44.021228"/>
     <use style="fill-opacity:0;stroke:#000080;stroke-width:1.5;" x="369.60768" xlink:href="#m97db3f4453" y="130.69497"/>
    </g>
   </g>
   <g id="line2d_57">
    <path d="M 338.688 298.944 
L 338.688 44.021228 
" style="fill:none;stroke:#000000;stroke-linecap:square;stroke-width:1.5;"/>
   </g>
   <g id="patch_3">
    <path d="M 57.6 298.944 
L 57.6 41.472 
" style="fill:none;stroke:#000000;stroke-linecap:square;stroke-linejoin:miter;stroke-width:0.8;"/>
   </g>
   <g id="patch_4">
    <path d="M 338.688 298.944 
L 338.688 41.472 
" style="fill:none;stroke:#000000;stroke-linecap:square;stroke-linejoin:miter;stroke-width:0.8;"/>
   </g>
   <g id="patch_5">
    <path d="M 57.6 298.944 
L 338.688 298.944 
" style="fill:none;stroke:#000000;stroke-linecap:square;stroke-linejoin:miter;stroke-width:0.8;"/>
   </g>
   <g id="patch_6">
    <path d="M 57.6 41.472 
L 338.688 41.472 
" style="fill:none;stroke:#000000;stroke-linecap:square;stroke-linejoin:miter;stroke-width:0.8;"/>
   </g>
   <g id="text_13">
    <!-- IPOPsaACM -->
    <defs>
     <path d="M 9.8125 72.90625 
L 19.671875 72.90625 
L 19.671875 0 
L 9.8125 0 
z
" id="DejaVuSans-73"/>
     <path d="M 19.671875 64.796875 
L 19.671875 37.40625 
L 32.078125 37.40625 
Q 38.96875 37.40625 42.71875 40.96875 
Q 46.484375 44.53125 46.484375 51.125 
Q 46.484375 57.671875 42.71875 61.234375 
Q 38.96875 64.796875 32.078125 64.796875 
z
M 9.8125 72.90625 
L 32.078125 72.90625 
Q 44.34375 72.90625 50.609375 67.359375 
Q 56.890625 61.8125 56.890625 51.125 
Q 56.890625 40.328125 50.609375 34.8125 
Q 44.34375 29.296875 32.078125 29.296875 
L 19.671875 29.296875 
L 19.671875 0 
L 9.8125 0 
z
" id="DejaVuSans-80"/>
     <path d="M 39.40625 66.21875 
Q 28.65625 66.21875 22.328125 58.203125 
Q 16.015625 50.203125 16.015625 36.375 
Q 16.015625 22.609375 22.328125 14.59375 
Q 28.65625 6.59375 39.40625 6.59375 
Q 50.140625 6.59375 56.421875 14.59375 
Q 62.703125 22.609375 62.703125 36.375 
Q 62.703125 50.203125 56.421875 58.203125 
Q 50.140625 66.21875 39.40625 66.21875 
z
M 39.40625 74.21875 
Q 54.734375 74.21875 63.90625 63.9375 
Q 73.09375 53.65625 73.09375 36.375 
Q 73.09375 19.140625 63.90625 8.859375 
Q 54.734375 -1.421875 39.40625 -1.421875 
Q 24.03125 -1.421875 14.8125 8.828125 
Q 5.609375 19.09375 5.609375 36.375 
Q 5.609375 53.65625 14.8125 63.9375 
Q 24.03125 74.21875 39.40625 74.21875 
z
" id="DejaVuSans-79"/>
     <path d="M 34.1875 63.1875 
L 20.796875 26.90625 
L 47.609375 26.90625 
z
M 28.609375 72.90625 
L 39.796875 72.90625 
L 67.578125 0 
L 57.328125 0 
L 50.6875 18.703125 
L 17.828125 18.703125 
L 11.1875 0 
L 0.78125 0 
z
" id="DejaVuSans-65"/>
     <path d="M 64.40625 67.28125 
L 64.40625 56.890625 
Q 59.421875 61.53125 53.78125 63.8125 
Q 48.140625 66.109375 41.796875 66.109375 
Q 29.296875 66.109375 22.65625 58.46875 
Q 16.015625 50.828125 16.015625 36.375 
Q 16.015625 21.96875 22.65625 14.328125 
Q 29.296875 6.6875 41.796875 6.6875 
Q 48.140625 6.6875 53.78125 8.984375 
Q 59.421875 11.28125 64.40625 15.921875 
L 64.40625 5.609375 
Q 59.234375 2.09375 53.4375 0.328125 
Q 47.65625 -1.421875 41.21875 -1.421875 
Q 24.65625 -1.421875 15.125 8.703125 
Q 5.609375 18.84375 5.609375 36.375 
Q 5.609375 53.953125 15.125 64.078125 
Q 24.65625 74.21875 41.21875 74.21875 
Q 47.75 74.21875 53.53125 72.484375 
Q 59.328125 70.75 64.40625 67.28125 
z
" id="DejaVuSans-67"/>
     <path d="M 9.8125 72.90625 
L 24.515625 72.90625 
L 43.109375 23.296875 
L 61.8125 72.90625 
L 76.515625 72.90625 
L 76.515625 0 
L 66.890625 0 
L 66.890625 64.015625 
L 48.09375 14.015625 
L 38.1875 14.015625 
L 19.390625 64.015625 
L 19.390625 0 
L 9.8125 0 
z
" id="DejaVuSans-77"/>
    </defs>
    <g transform="translate(375.22944 298.536482)scale(0.17 -0.17)">
     <use xlink:href="#DejaVuSans-73"/>
     <use x="29.492188" xlink:href="#DejaVuSans-80"/>
     <use x="89.794922" xlink:href="#DejaVuSans-79"/>
     <use x="168.505859" xlink:href="#DejaVuSans-80"/>
     <use x="228.792969" xlink:href="#DejaVuSans-115"/>
     <use x="280.892578" xlink:href="#DejaVuSans-97"/>
     <use x="342.171875" xlink:href="#DejaVuSans-65"/>
     <use x="410.564453" xlink:href="#DejaVuSans-67"/>
     <use x="480.388672" xlink:href="#DejaVuSans-77"/>
    </g>
   </g>
   <g id="text_14">
    <!-- BIPOP-saA -->
    <defs>
     <path d="M 19.671875 34.8125 
L 19.671875 8.109375 
L 35.5 8.109375 
Q 43.453125 8.109375 47.28125 11.40625 
Q 51.125 14.703125 51.125 21.484375 
Q 51.125 28.328125 47.28125 31.5625 
Q 43.453125 34.8125 35.5 34.8125 
z
M 19.671875 64.796875 
L 19.671875 42.828125 
L 34.28125 42.828125 
Q 41.5 42.828125 45.03125 45.53125 
Q 48.578125 48.25 48.578125 53.8125 
Q 48.578125 59.328125 45.03125 62.0625 
Q 41.5 64.796875 34.28125 64.796875 
z
M 9.8125 72.90625 
L 35.015625 72.90625 
Q 46.296875 72.90625 52.390625 68.21875 
Q 58.5 63.53125 58.5 54.890625 
Q 58.5 48.1875 55.375 44.234375 
Q 52.25 40.28125 46.1875 39.3125 
Q 53.46875 37.75 57.5 32.78125 
Q 61.53125 27.828125 61.53125 20.40625 
Q 61.53125 10.640625 54.890625 5.3125 
Q 48.25 0 35.984375 0 
L 9.8125 0 
z
" id="DejaVuSans-66"/>
    </defs>
    <g transform="translate(375.22944 216.961195)scale(0.17 -0.17)">
     <use xlink:href="#DejaVuSans-66"/>
     <use x="68.603516" xlink:href="#DejaVuSans-73"/>
     <use x="98.095703" xlink:href="#DejaVuSans-80"/>
     <use x="158.398438" xlink:href="#DejaVuSans-79"/>
     <use x="237.109375" xlink:href="#DejaVuSans-80"/>
     <use x="297.380859" xlink:href="#DejaVuSans-45"/>
     <use x="333.464844" xlink:href="#DejaVuSans-115"/>
     <use x="385.564453" xlink:href="#DejaVuSans-97"/>
     <use x="446.84375" xlink:href="#DejaVuSans-65"/>
    </g>
   </g>
   <g id="text_15">
    <!-- BIPOPsaAC -->
    <g transform="translate(375.22944 135.385908)scale(0.17 -0.17)">
     <use xlink:href="#DejaVuSans-66"/>
     <use x="68.603516" xlink:href="#DejaVuSans-73"/>
     <use x="98.095703" xlink:href="#DejaVuSans-80"/>
     <use x="158.398438" xlink:href="#DejaVuSans-79"/>
     <use x="237.109375" xlink:href="#DejaVuSans-80"/>
     <use x="297.396484" xlink:href="#DejaVuSans-115"/>
     <use x="349.496094" xlink:href="#DejaVuSans-97"/>
     <use x="410.775391" xlink:href="#DejaVuSans-65"/>
     <use x="479.167969" xlink:href="#DejaVuSans-67"/>
    </g>
   </g>
   <g id="text_16">
    <!-- best 2009 -->
    <defs>
     <path d="M 48.6875 27.296875 
Q 48.6875 37.203125 44.609375 42.84375 
Q 40.53125 48.484375 33.40625 48.484375 
Q 26.265625 48.484375 22.1875 42.84375 
Q 18.109375 37.203125 18.109375 27.296875 
Q 18.109375 17.390625 22.1875 11.75 
Q 26.265625 6.109375 33.40625 6.109375 
Q 40.53125 6.109375 44.609375 11.75 
Q 48.6875 17.390625 48.6875 27.296875 
z
M 18.109375 46.390625 
Q 20.953125 51.265625 25.265625 53.625 
Q 29.59375 56 35.59375 56 
Q 45.5625 56 51.78125 48.09375 
Q 58.015625 40.1875 58.015625 27.296875 
Q 58.015625 14.40625 51.78125 6.484375 
Q 45.5625 -1.421875 35.59375 -1.421875 
Q 29.59375 -1.421875 25.265625 0.953125 
Q 20.953125 3.328125 18.109375 8.203125 
L 18.109375 0 
L 9.078125 0 
L 9.078125 75.984375 
L 18.109375 75.984375 
z
" id="DejaVuSans-98"/>
     <path d="M 10.984375 1.515625 
L 10.984375 10.5 
Q 14.703125 8.734375 18.5 7.8125 
Q 22.3125 6.890625 25.984375 6.890625 
Q 35.75 6.890625 40.890625 13.453125 
Q 46.046875 20.015625 46.78125 33.40625 
Q 43.953125 29.203125 39.59375 26.953125 
Q 35.25 24.703125 29.984375 24.703125 
Q 19.046875 24.703125 12.671875 31.3125 
Q 6.296875 37.9375 6.296875 49.421875 
Q 6.296875 60.640625 12.9375 67.421875 
Q 19.578125 74.21875 30.609375 74.21875 
Q 43.265625 74.21875 49.921875 64.515625 
Q 56.59375 54.828125 56.59375 36.375 
Q 56.59375 19.140625 48.40625 8.859375 
Q 40.234375 -1.421875 26.421875 -1.421875 
Q 22.703125 -1.421875 18.890625 -0.6875 
Q 15.09375 0.046875 10.984375 1.515625 
z
M 30.609375 32.421875 
Q 37.25 32.421875 41.125 36.953125 
Q 45.015625 41.5 45.015625 49.421875 
Q 45.015625 57.28125 41.125 61.84375 
Q 37.25 66.40625 30.609375 66.40625 
Q 23.96875 66.40625 20.09375 61.84375 
Q 16.21875 57.28125 16.21875 49.421875 
Q 16.21875 41.5 20.09375 36.953125 
Q 23.96875 32.421875 30.609375 32.421875 
z
" id="DejaVuSans-57"/>
    </defs>
    <g transform="translate(375.22944 53.810621)scale(0.17 -0.17)">
     <use xlink:href="#DejaVuSans-98"/>
     <use x="63.476562" xlink:href="#DejaVuSans-101"/>
     <use x="125" xlink:href="#DejaVuSans-115"/>
     <use x="177.099609" xlink:href="#DejaVuSans-116"/>
     <use x="216.308594" xlink:href="#DejaVuSans-32"/>
     <use x="248.095703" xlink:href="#DejaVuSans-50"/>
     <use x="311.71875" xlink:href="#DejaVuSans-48"/>
     <use x="375.341797" xlink:href="#DejaVuSans-48"/>
     <use x="438.964844" xlink:href="#DejaVuSans-57"/>
    </g>
   </g>
   <g id="text_17">
    <!-- bbob f17, 2-D -->
    <defs>
     <path d="M 8.203125 72.90625 
L 55.078125 72.90625 
L 55.078125 68.703125 
L 28.609375 0 
L 18.3125 0 
L 43.21875 64.59375 
L 8.203125 64.59375 
z
" id="DejaVuSans-55"/>
     <path d="M 19.671875 64.796875 
L 19.671875 8.109375 
L 31.59375 8.109375 
Q 46.6875 8.109375 53.6875 14.9375 
Q 60.6875 21.78125 60.6875 36.53125 
Q 60.6875 51.171875 53.6875 57.984375 
Q 46.6875 64.796875 31.59375 64.796875 
z
M 9.8125 72.90625 
L 30.078125 72.90625 
Q 51.265625 72.90625 61.171875 64.09375 
Q 71.09375 55.28125 71.09375 36.53125 
Q 71.09375 17.671875 61.125 8.828125 
Q 51.171875 0 30.078125 0 
L 9.8125 0 
z
" id="DejaVuSans-68"/>
    </defs>
    <g transform="translate(60.41088 51.797126)scale(0.102 -0.102)">
     <use xlink:href="#DejaVuSans-98"/>
     <use x="63.476562" xlink:href="#DejaVuSans-98"/>
     <use x="126.953125" xlink:href="#DejaVuSans-111"/>
     <use x="188.134766" xlink:href="#DejaVuSans-98"/>
     <use x="251.611328" xlink:href="#DejaVuSans-32"/>
     <use x="283.398438" xlink:href="#DejaVuSans-102"/>
     <use x="318.603516" xlink:href="#DejaVuSans-49"/>
     <use x="382.226562" xlink:href="#DejaVuSans-55"/>
     <use x="445.849609" xlink:href="#DejaVuSans-44"/>
     <use x="477.636719" xlink:href="#DejaVuSans-32"/>
     <use x="509.423828" xlink:href="#DejaVuSans-50"/>
     <use x="573.046875" xlink:href="#DejaVuSans-45"/>
     <use x="609.130859" xlink:href="#DejaVuSans-68"/>
    </g>
    <!-- 51 targets: 100..1e-08 -->
    <defs>
     <path d="M 10.796875 72.90625 
L 49.515625 72.90625 
L 49.515625 64.59375 
L 19.828125 64.59375 
L 19.828125 46.734375 
Q 21.96875 47.46875 24.109375 47.828125 
Q 26.265625 48.1875 28.421875 48.1875 
Q 40.625 48.1875 47.75 41.5 
Q 54.890625 34.8125 54.890625 23.390625 
Q 54.890625 11.625 47.5625 5.09375 
Q 40.234375 -1.421875 26.90625 -1.421875 
Q 22.3125 -1.421875 17.546875 -0.640625 
Q 12.796875 0.140625 7.71875 1.703125 
L 7.71875 11.625 
Q 12.109375 9.234375 16.796875 8.0625 
Q 21.484375 6.890625 26.703125 6.890625 
Q 35.15625 6.890625 40.078125 11.328125 
Q 45.015625 15.765625 45.015625 23.390625 
Q 45.015625 31 40.078125 35.4375 
Q 35.15625 39.890625 26.703125 39.890625 
Q 22.75 39.890625 18.8125 39.015625 
Q 14.890625 38.140625 10.796875 36.28125 
z
" id="DejaVuSans-53"/>
     <path d="M 11.71875 12.40625 
L 22.015625 12.40625 
L 22.015625 0 
L 11.71875 0 
z
M 11.71875 51.703125 
L 22.015625 51.703125 
L 22.015625 39.3125 
L 11.71875 39.3125 
z
" id="DejaVuSans-58"/>
    </defs>
    <g transform="translate(60.41088 63.218895)scale(0.102 -0.102)">
     <use xlink:href="#DejaVuSans-53"/>
     <use x="63.623047" xlink:href="#DejaVuSans-49"/>
     <use x="127.246094" xlink:href="#DejaVuSans-32"/>
     <use x="159.033203" xlink:href="#DejaVuSans-116"/>
     <use x="198.242188" xlink:href="#DejaVuSans-97"/>
     <use x="259.521484" xlink:href="#DejaVuSans-114"/>
     <use x="300.619141" xlink:href="#DejaVuSans-103"/>
     <use x="364.095703" xlink:href="#DejaVuSans-101"/>
     <use x="425.619141" xlink:href="#DejaVuSans-116"/>
     <use x="464.828125" xlink:href="#DejaVuSans-115"/>
     <use x="516.927734" xlink:href="#DejaVuSans-58"/>
     <use x="550.619141" xlink:href="#DejaVuSans-32"/>
     <use x="582.40625" xlink:href="#DejaVuSans-49"/>
     <use x="646.029297" xlink:href="#DejaVuSans-48"/>
     <use x="709.652344" xlink:href="#DejaVuSans-48"/>
     <use x="773.275391" xlink:href="#DejaVuSans-46"/>
     <use x="805.0625" xlink:href="#DejaVuSans-46"/>
     <use x="836.849609" xlink:href="#DejaVuSans-49"/>
     <use x="900.472656" xlink:href="#DejaVuSans-101"/>
     <use x="961.996094" xlink:href="#DejaVuSans-45"/>
     <use x="998.080078" xlink:href="#DejaVuSans-48"/>
     <use x="1061.703125" xlink:href="#DejaVuSans-56"/>
    </g>
    <!-- 15 instances -->
    <g transform="translate(60.41088 74.640664)scale(0.102 -0.102)">
     <use xlink:href="#DejaVuSans-49"/>
     <use x="63.623047" xlink:href="#DejaVuSans-53"/>
     <use x="127.246094" xlink:href="#DejaVuSans-32"/>
     <use x="159.033203" xlink:href="#DejaVuSans-105"/>
     <use x="186.816406" xlink:href="#DejaVuSans-110"/>
     <use x="250.195312" xlink:href="#DejaVuSans-115"/>
     <use x="302.294922" xlink:href="#DejaVuSans-116"/>
     <use x="341.503906" xlink:href="#DejaVuSans-97"/>
     <use x="402.783203" xlink:href="#DejaVuSans-110"/>
     <use x="466.162109" xlink:href="#DejaVuSans-99"/>
     <use x="521.142578" xlink:href="#DejaVuSans-101"/>
     <use x="582.666016" xlink:href="#DejaVuSans-115"/>
    </g>
   </g>
   <g id="text_18">
    <!-- v2.3.14 -->
    <defs>
     <path d="M 40.578125 39.3125 
Q 47.65625 37.796875 51.625 33 
Q 55.609375 28.21875 55.609375 21.1875 
Q 55.609375 10.40625 48.1875 4.484375 
Q 40.765625 -1.421875 27.09375 -1.421875 
Q 22.515625 -1.421875 17.65625 -0.515625 
Q 12.796875 0.390625 7.625 2.203125 
L 7.625 11.71875 
Q 11.71875 9.328125 16.59375 8.109375 
Q 21.484375 6.890625 26.8125 6.890625 
Q 36.078125 6.890625 40.9375 10.546875 
Q 45.796875 14.203125 45.796875 21.1875 
Q 45.796875 27.640625 41.28125 31.265625 
Q 36.765625 34.90625 28.71875 34.90625 
L 20.21875 34.90625 
L 20.21875 43.015625 
L 29.109375 43.015625 
Q 36.375 43.015625 40.234375 45.921875 
Q 44.09375 48.828125 44.09375 54.296875 
Q 44.09375 59.90625 40.109375 62.90625 
Q 36.140625 65.921875 28.71875 65.921875 
Q 24.65625 65.921875 20.015625 65.03125 
Q 15.375 64.15625 9.8125 62.3125 
L 9.8125 71.09375 
Q 15.4375 72.65625 20.34375 73.4375 
Q 25.25 74.21875 29.59375 74.21875 
Q 40.828125 74.21875 47.359375 69.109375 
Q 53.90625 64.015625 53.90625 55.328125 
Q 53.90625 49.265625 50.4375 45.09375 
Q 46.96875 40.921875 40.578125 39.3125 
z
" id="DejaVuSans-51"/>
    </defs>
    <g style="fill:#808080;" transform="translate(179.2815 294.289592)scale(0.1 -0.1)">
     <use xlink:href="#DejaVuSans-118"/>
     <use x="59.179688" xlink:href="#DejaVuSans-50"/>
     <use x="122.802734" xlink:href="#DejaVuSans-46"/>
     <use x="154.589844" xlink:href="#DejaVuSans-51"/>
     <use x="218.212891" xlink:href="#DejaVuSans-46"/>
     <use x="250" xlink:href="#DejaVuSans-49"/>
     <use x="313.623047" xlink:href="#DejaVuSans-52"/>
    </g>
   </g>
   <g id="text_19">
    <!-- 17 Schaffer F7, condition 10 -->
    <defs>
     <path d="M 53.515625 70.515625 
L 53.515625 60.890625 
Q 47.90625 63.578125 42.921875 64.890625 
Q 37.9375 66.21875 33.296875 66.21875 
Q 25.25 66.21875 20.875 63.09375 
Q 16.5 59.96875 16.5 54.203125 
Q 16.5 49.359375 19.40625 46.890625 
Q 22.3125 44.4375 30.421875 42.921875 
L 36.375 41.703125 
Q 47.40625 39.59375 52.65625 34.296875 
Q 57.90625 29 57.90625 20.125 
Q 57.90625 9.515625 50.796875 4.046875 
Q 43.703125 -1.421875 29.984375 -1.421875 
Q 24.8125 -1.421875 18.96875 -0.25 
Q 13.140625 0.921875 6.890625 3.21875 
L 6.890625 13.375 
Q 12.890625 10.015625 18.65625 8.296875 
Q 24.421875 6.59375 29.984375 6.59375 
Q 38.421875 6.59375 43.015625 9.90625 
Q 47.609375 13.234375 47.609375 19.390625 
Q 47.609375 24.75 44.3125 27.78125 
Q 41.015625 30.8125 33.5 32.328125 
L 27.484375 33.5 
Q 16.453125 35.6875 11.515625 40.375 
Q 6.59375 45.0625 6.59375 53.421875 
Q 6.59375 63.09375 13.40625 68.65625 
Q 20.21875 74.21875 32.171875 74.21875 
Q 37.3125 74.21875 42.625 73.28125 
Q 47.953125 72.359375 53.515625 70.515625 
z
" id="DejaVuSans-83"/>
     <path d="M 54.890625 33.015625 
L 54.890625 0 
L 45.90625 0 
L 45.90625 32.71875 
Q 45.90625 40.484375 42.875 44.328125 
Q 39.84375 48.1875 33.796875 48.1875 
Q 26.515625 48.1875 22.3125 43.546875 
Q 18.109375 38.921875 18.109375 30.90625 
L 18.109375 0 
L 9.078125 0 
L 9.078125 75.984375 
L 18.109375 75.984375 
L 18.109375 46.1875 
Q 21.34375 51.125 25.703125 53.5625 
Q 30.078125 56 35.796875 56 
Q 45.21875 56 50.046875 50.171875 
Q 54.890625 44.34375 54.890625 33.015625 
z
" id="DejaVuSans-104"/>
    </defs>
    <g transform="translate(56.836187 35.472)scale(0.2 -0.2)">
     <use xlink:href="#DejaVuSans-49"/>
     <use x="63.623047" xlink:href="#DejaVuSans-55"/>
     <use x="127.246094" xlink:href="#DejaVuSans-32"/>
     <use x="159.033203" xlink:href="#DejaVuSans-83"/>
     <use x="222.509766" xlink:href="#DejaVuSans-99"/>
     <use x="277.490234" xlink:href="#DejaVuSans-104"/>
     <use x="340.869141" xlink:href="#DejaVuSans-97"/>
     <use x="402.148438" xlink:href="#DejaVuSans-102"/>
     <use x="437.353516" xlink:href="#DejaVuSans-102"/>
     <use x="472.558594" xlink:href="#DejaVuSans-101"/>
     <use x="534.082031" xlink:href="#DejaVuSans-114"/>
     <use x="575.195312" xlink:href="#DejaVuSans-32"/>
     <use x="606.982422" xlink:href="#DejaVuSans-70"/>
     <use x="664.501953" xlink:href="#DejaVuSans-55"/>
     <use x="728.125" xlink:href="#DejaVuSans-44"/>
     <use x="759.912109" xlink:href="#DejaVuSans-32"/>
     <use x="791.699219" xlink:href="#DejaVuSans-99"/>
     <use x="846.679688" xlink:href="#DejaVuSans-111"/>
     <use x="907.861328" xlink:href="#DejaVuSans-110"/>
     <use x="971.240234" xlink:href="#DejaVuSans-100"/>
     <use x="1034.716797" xlink:href="#DejaVuSans-105"/>
     <use x="1062.5" xlink:href="#DejaVuSans-116"/>
     <use x="1101.708984" xlink:href="#DejaVuSans-105"/>
     <use x="1129.492188" xlink:href="#DejaVuSans-111"/>
     <use x="1190.673828" xlink:href="#DejaVuSans-110"/>
     <use x="1254.052734" xlink:href="#DejaVuSans-32"/>
     <use x="1285.839844" xlink:href="#DejaVuSans-49"/>
     <use x="1349.462891" xlink:href="#DejaVuSans-48"/>
    </g>
   </g>
  </g>
 </g>
 <defs>
  <clipPath id="pc649ead63a">
   <rect height="257.472" width="281.088" x="57.6" y="41.472"/>
  </clipPath>
 </defs>
</svg>
