<?xml version="1.0" encoding="utf-8" standalone="no"?>
<!DOCTYPE svg PUBLIC "-//W3C//DTD SVG 1.1//EN"
  "http://www.w3.org/Graphics/SVG/1.1/DTD/svg11.dtd">
<!-- Created with matplotlib (https://matplotlib.org/) -->
<svg height="345.6pt" version="1.1" viewBox="0 0 460.8 345.6" width="460.8pt" xmlns="http://www.w3.org/2000/svg" xmlns:xlink="http://www.w3.org/1999/xlink">
 <defs>
  <style type="text/css">
*{stroke-linecap:butt;stroke-linejoin:round;}
  </style>
 </defs>
 <g id="figure_1">
  <g id="patch_1">
   <path d="M 0 345.6 
L 460.8 345.6 
L 460.8 0 
L 0 0 
z
" style="fill:#ffffff;"/>
  </g>
  <g id="axes_1">
   <g id="patch_2">
    <path d="M 57.6 298.944 
L 338.688 298.944 
L 338.688 41.472 
L 57.6 41.472 
z
" style="fill:#ffffff;"/>
   </g>
   <g id="line2d_1">
    <path d="M 73.579452 298.944 
L 73.579452 293.945514 
L 83.830028 293.945514 
L 83.830028 288.947029 
L 91.535274 288.947029 
L 91.535274 283.948543 
L 95.918017 283.948543 
L 95.918017 278.950057 
L 97.755429 278.950057 
L 97.755429 273.951571 
L 100.192776 273.951571 
L 100.192776 268.953086 
L 100.934985 268.953086 
L 100.934985 263.9546 
L 102.989037 263.9546 
L 102.989037 258.956114 
L 105.398279 258.956114 
L 105.398279 253.957628 
L 106.48859 253.957628 
L 106.48859 248.959143 
L 107.514726 248.959143 
L 107.514726 243.960657 
L 108.948899 243.960657 
L 108.948899 238.962171 
L 109.843417 238.962171 
L 109.843417 233.963685 
L 110.694282 233.963685 
L 110.694282 228.9652 
L 111.104637 228.9652 
L 111.104637 223.966714 
L 112.280765 223.966714 
L 112.280765 218.968228 
L 114.080224 218.968228 
L 114.080224 213.969743 
L 114.751048 213.969743 
L 114.751048 208.971257 
L 115.397021 208.971257 
L 115.397021 203.972771 
L 116.019919 203.972771 
L 116.019919 198.974285 
L 116.914437 198.974285 
L 116.914437 193.9758 
L 117.486268 193.9758 
L 117.486268 188.977314 
L 118.039942 188.977314 
L 118.039942 183.978828 
L 118.838828 183.978828 
L 118.838828 178.980342 
L 119.097192 178.980342 
L 119.097192 173.981857 
L 119.850084 173.981857 
L 119.850084 168.983371 
L 120.571812 168.983371 
L 120.571812 163.984885 
L 121.036887 163.984885 
L 121.036887 158.9864 
L 121.712041 158.9864 
L 121.712041 153.987914 
L 122.148045 153.987914 
L 122.148045 148.989428 
L 122.573415 148.989428 
L 122.573415 143.990942 
L 123.394238 143.990942 
L 123.394238 138.992457 
L 123.790603 138.992457 
L 123.790603 133.993971 
L 124.178158 133.993971 
L 124.178158 128.995485 
L 124.557288 128.995485 
L 124.557288 123.996999 
L 124.92835 123.996999 
L 124.92835 118.998514 
L 125.470548 118.998514 
L 125.470548 114.000028 
L 125.822869 114.000028 
L 125.822869 109.001542 
L 126.168212 109.001542 
L 126.168212 104.003056 
L 126.50685 104.003056 
L 126.50685 99.004571 
L 127.165014 99.004571 
L 127.165014 94.006085 
L 127.799239 94.006085 
L 127.799239 89.007599 
L 128.107907 89.007599 
L 128.107907 84.009114 
L 128.411207 84.009114 
L 128.411207 79.010628 
L 128.709321 79.010628 
L 128.709321 74.012142 
L 129.290685 74.012142 
L 129.290685 69.013656 
L 129.574256 69.013656 
L 129.574256 64.015171 
L 129.991152 64.015171 
L 129.991152 59.016685 
L 130.127931 59.016685 
L 130.127931 54.018199 
L 130.398313 54.018199 
L 130.398313 49.019713 
L 130.796184 49.019713 
L 130.796184 44.021228 
L 338.688 44.021228 
" style="fill:none;stroke:#f5deb3;stroke-linecap:square;stroke-width:4;"/>
   </g>
   <g id="line2d_2">
    <defs>
     <path d="M -0 7.778175 
L 7.778175 0 
L 0 -7.778175 
L -7.778175 -0 
z
" id="mc82bd2b010" style="stroke:#f5deb3;stroke-linejoin:miter;stroke-width:1.5;"/>
    </defs>
    <g>
     <use style="fill:#f5deb3;stroke:#f5deb3;stroke-linejoin:miter;stroke-width:1.5;" x="122.148045" xlink:href="#mc82bd2b010" y="153.987914"/>
     <use style="fill:#f5deb3;stroke:#f5deb3;stroke-linejoin:miter;stroke-width:1.5;" x="130.796184" xlink:href="#mc82bd2b010" y="49.019713"/>
     <use style="fill:#f5deb3;stroke:#f5deb3;stroke-linejoin:miter;stroke-width:1.5;" x="130.796184" xlink:href="#mc82bd2b010" y="44.021228"/>
     <use style="fill:#f5deb3;stroke:#f5deb3;stroke-linejoin:miter;stroke-width:1.5;" x="130.796184" xlink:href="#mc82bd2b010" y="44.021228"/>
     <use style="fill:#f5deb3;stroke:#f5deb3;stroke-linejoin:miter;stroke-width:1.5;" x="338.688" xlink:href="#mc82bd2b010" y="44.021228"/>
    </g>
   </g>
   <g id="line2d_3">
    <path style="fill:none;stroke:#f5deb3;stroke-linecap:square;stroke-width:4;"/>
    <g/>
   </g>
   <g id="line2d_4">
    <path d="M 338.688 44.021228 
L 369.60768 49.119683 
" style="fill:none;stroke:#f5deb3;stroke-linecap:square;stroke-width:4;"/>
    <g>
     <use style="fill:#f5deb3;stroke:#f5deb3;stroke-linejoin:miter;stroke-width:1.5;" x="338.688" xlink:href="#mc82bd2b010" y="44.021228"/>
     <use style="fill:#f5deb3;stroke:#f5deb3;stroke-linejoin:miter;stroke-width:1.5;" x="369.60768" xlink:href="#mc82bd2b010" y="49.119683"/>
    </g>
   </g>
   <g id="matplotlib.axis_1">
    <g id="xtick_1">
     <g id="line2d_5">
      <path clip-path="url(#pe9ce98d582)" d="M 57.6 298.944 
L 57.6 41.472 
" style="fill:none;stroke:#b0b0b0;stroke-linecap:square;stroke-width:0.8;"/>
     </g>
     <g id="line2d_6">
      <defs>
       <path d="M 0 0 
L 0 3.5 
" id="m7b7b382383" style="stroke:#000000;stroke-width:0.8;"/>
      </defs>
      <g>
       <use style="stroke:#000000;stroke-width:0.8;" x="57.6" xlink:href="#m7b7b382383" y="298.944"/>
      </g>
     </g>
     <g id="text_1">
      <!-- 0 -->
      <defs>
       <path d="M 31.78125 66.40625 
Q 24.171875 66.40625 20.328125 58.90625 
Q 16.5 51.421875 16.5 36.375 
Q 16.5 21.390625 20.328125 13.890625 
Q 24.171875 6.390625 31.78125 6.390625 
Q 39.453125 6.390625 43.28125 13.890625 
Q 47.125 21.390625 47.125 36.375 
Q 47.125 51.421875 43.28125 58.90625 
Q 39.453125 66.40625 31.78125 66.40625 
z
M 31.78125 74.21875 
Q 44.046875 74.21875 50.515625 64.515625 
Q 56.984375 54.828125 56.984375 36.375 
Q 56.984375 17.96875 50.515625 8.265625 
Q 44.046875 -1.421875 31.78125 -1.421875 
Q 19.53125 -1.421875 13.0625 8.265625 
Q 6.59375 17.96875 6.59375 36.375 
Q 6.59375 54.828125 13.0625 64.515625 
Q 19.53125 74.21875 31.78125 74.21875 
z
" id="DejaVuSans-48"/>
      </defs>
      <g transform="translate(51.2375 321.140875)scale(0.2 -0.2)">
       <use xlink:href="#DejaVuSans-48"/>
      </g>
     </g>
    </g>
    <g id="xtick_2">
     <g id="line2d_7">
      <path clip-path="url(#pe9ce98d582)" d="M 137.910857 298.944 
L 137.910857 41.472 
" style="fill:none;stroke:#b0b0b0;stroke-linecap:square;stroke-width:0.8;"/>
     </g>
     <g id="line2d_8">
      <g>
       <use style="stroke:#000000;stroke-width:0.8;" x="137.910857" xlink:href="#m7b7b382383" y="298.944"/>
      </g>
     </g>
     <g id="text_2">
      <!-- 2 -->
      <defs>
       <path d="M 19.1875 8.296875 
L 53.609375 8.296875 
L 53.609375 0 
L 7.328125 0 
L 7.328125 8.296875 
Q 12.9375 14.109375 22.625 23.890625 
Q 32.328125 33.6875 34.8125 36.53125 
Q 39.546875 41.84375 41.421875 45.53125 
Q 43.3125 49.21875 43.3125 52.78125 
Q 43.3125 58.59375 39.234375 62.25 
Q 35.15625 65.921875 28.609375 65.921875 
Q 23.96875 65.921875 18.8125 64.3125 
Q 13.671875 62.703125 7.8125 59.421875 
L 7.8125 69.390625 
Q 13.765625 71.78125 18.9375 73 
Q 24.125 74.21875 28.421875 74.21875 
Q 39.75 74.21875 46.484375 68.546875 
Q 53.21875 62.890625 53.21875 53.421875 
Q 53.21875 48.921875 51.53125 44.890625 
Q 49.859375 40.875 45.40625 35.40625 
Q 44.1875 33.984375 37.640625 27.21875 
Q 31.109375 20.453125 19.1875 8.296875 
z
" id="DejaVuSans-50"/>
      </defs>
      <g transform="translate(131.548357 321.140875)scale(0.2 -0.2)">
       <use xlink:href="#DejaVuSans-50"/>
      </g>
     </g>
    </g>
    <g id="xtick_3">
     <g id="line2d_9">
      <path clip-path="url(#pe9ce98d582)" d="M 218.221714 298.944 
L 218.221714 41.472 
" style="fill:none;stroke:#b0b0b0;stroke-linecap:square;stroke-width:0.8;"/>
     </g>
     <g id="line2d_10">
      <g>
       <use style="stroke:#000000;stroke-width:0.8;" x="218.221714" xlink:href="#m7b7b382383" y="298.944"/>
      </g>
     </g>
     <g id="text_3">
      <!-- 4 -->
      <defs>
       <path d="M 37.796875 64.3125 
L 12.890625 25.390625 
L 37.796875 25.390625 
z
M 35.203125 72.90625 
L 47.609375 72.90625 
L 47.609375 25.390625 
L 58.015625 25.390625 
L 58.015625 17.1875 
L 47.609375 17.1875 
L 47.609375 0 
L 37.796875 0 
L 37.796875 17.1875 
L 4.890625 17.1875 
L 4.890625 26.703125 
z
" id="DejaVuSans-52"/>
      </defs>
      <g transform="translate(211.859214 321.140875)scale(0.2 -0.2)">
       <use xlink:href="#DejaVuSans-52"/>
      </g>
     </g>
    </g>
    <g id="xtick_4">
     <g id="line2d_11">
      <path clip-path="url(#pe9ce98d582)" d="M 298.532571 298.944 
L 298.532571 41.472 
" style="fill:none;stroke:#b0b0b0;stroke-linecap:square;stroke-width:0.8;"/>
     </g>
     <g id="line2d_12">
      <g>
       <use style="stroke:#000000;stroke-width:0.8;" x="298.532571" xlink:href="#m7b7b382383" y="298.944"/>
      </g>
     </g>
     <g id="text_4">
      <!-- 6 -->
      <defs>
       <path d="M 33.015625 40.375 
Q 26.375 40.375 22.484375 35.828125 
Q 18.609375 31.296875 18.609375 23.390625 
Q 18.609375 15.53125 22.484375 10.953125 
Q 26.375 6.390625 33.015625 6.390625 
Q 39.65625 6.390625 43.53125 10.953125 
Q 47.40625 15.53125 47.40625 23.390625 
Q 47.40625 31.296875 43.53125 35.828125 
Q 39.65625 40.375 33.015625 40.375 
z
M 52.59375 71.296875 
L 52.59375 62.3125 
Q 48.875 64.0625 45.09375 64.984375 
Q 41.3125 65.921875 37.59375 65.921875 
Q 27.828125 65.921875 22.671875 59.328125 
Q 17.53125 52.734375 16.796875 39.40625 
Q 19.671875 43.65625 24.015625 45.921875 
Q 28.375 48.1875 33.59375 48.1875 
Q 44.578125 48.1875 50.953125 41.515625 
Q 57.328125 34.859375 57.328125 23.390625 
Q 57.328125 12.15625 50.6875 5.359375 
Q 44.046875 -1.421875 33.015625 -1.421875 
Q 20.359375 -1.421875 13.671875 8.265625 
Q 6.984375 17.96875 6.984375 36.375 
Q 6.984375 53.65625 15.1875 63.9375 
Q 23.390625 74.21875 37.203125 74.21875 
Q 40.921875 74.21875 44.703125 73.484375 
Q 48.484375 72.75 52.59375 71.296875 
z
" id="DejaVuSans-54"/>
      </defs>
      <g transform="translate(292.170071 321.140875)scale(0.2 -0.2)">
       <use xlink:href="#DejaVuSans-54"/>
      </g>
     </g>
    </g>
    <g id="xtick_5">
     <g id="line2d_13">
      <path clip-path="url(#pe9ce98d582)" d="M 57.6 298.944 
L 57.6 41.472 
" style="fill:none;stroke:#b0b0b0;stroke-linecap:square;stroke-width:0.8;"/>
     </g>
     <g id="line2d_14">
      <defs>
       <path d="M 0 0 
L 0 2 
" id="ma4b803bf15" style="stroke:#000000;stroke-width:0.6;"/>
      </defs>
      <g>
       <use style="stroke:#000000;stroke-width:0.6;" x="57.6" xlink:href="#ma4b803bf15" y="298.944"/>
      </g>
     </g>
    </g>
    <g id="xtick_6">
     <g id="line2d_15">
      <path clip-path="url(#pe9ce98d582)" d="M 97.755429 298.944 
L 97.755429 41.472 
" style="fill:none;stroke:#b0b0b0;stroke-linecap:square;stroke-width:0.8;"/>
     </g>
     <g id="line2d_16">
      <g>
       <use style="stroke:#000000;stroke-width:0.6;" x="97.755429" xlink:href="#ma4b803bf15" y="298.944"/>
      </g>
     </g>
    </g>
    <g id="xtick_7">
     <g id="line2d_17">
      <path clip-path="url(#pe9ce98d582)" d="M 137.910857 298.944 
L 137.910857 41.472 
" style="fill:none;stroke:#b0b0b0;stroke-linecap:square;stroke-width:0.8;"/>
     </g>
     <g id="line2d_18">
      <g>
       <use style="stroke:#000000;stroke-width:0.6;" x="137.910857" xlink:href="#ma4b803bf15" y="298.944"/>
      </g>
     </g>
    </g>
    <g id="xtick_8">
     <g id="line2d_19">
      <path clip-path="url(#pe9ce98d582)" d="M 178.066286 298.944 
L 178.066286 41.472 
" style="fill:none;stroke:#b0b0b0;stroke-linecap:square;stroke-width:0.8;"/>
     </g>
     <g id="line2d_20">
      <g>
       <use style="stroke:#000000;stroke-width:0.6;" x="178.066286" xlink:href="#ma4b803bf15" y="298.944"/>
      </g>
     </g>
    </g>
    <g id="xtick_9">
     <g id="line2d_21">
      <path clip-path="url(#pe9ce98d582)" d="M 218.221714 298.944 
L 218.221714 41.472 
" style="fill:none;stroke:#b0b0b0;stroke-linecap:square;stroke-width:0.8;"/>
     </g>
     <g id="line2d_22">
      <g>
       <use style="stroke:#000000;stroke-width:0.6;" x="218.221714" xlink:href="#ma4b803bf15" y="298.944"/>
      </g>
     </g>
    </g>
    <g id="xtick_10">
     <g id="line2d_23">
      <path clip-path="url(#pe9ce98d582)" d="M 258.377143 298.944 
L 258.377143 41.472 
" style="fill:none;stroke:#b0b0b0;stroke-linecap:square;stroke-width:0.8;"/>
     </g>
     <g id="line2d_24">
      <g>
       <use style="stroke:#000000;stroke-width:0.6;" x="258.377143" xlink:href="#ma4b803bf15" y="298.944"/>
      </g>
     </g>
    </g>
    <g id="xtick_11">
     <g id="line2d_25">
      <path clip-path="url(#pe9ce98d582)" d="M 298.532571 298.944 
L 298.532571 41.472 
" style="fill:none;stroke:#b0b0b0;stroke-linecap:square;stroke-width:0.8;"/>
     </g>
     <g id="line2d_26">
      <g>
       <use style="stroke:#000000;stroke-width:0.6;" x="298.532571" xlink:href="#ma4b803bf15" y="298.944"/>
      </g>
     </g>
    </g>
    <g id="xtick_12">
     <g id="line2d_27">
      <path clip-path="url(#pe9ce98d582)" d="M 338.688 298.944 
L 338.688 41.472 
" style="fill:none;stroke:#b0b0b0;stroke-linecap:square;stroke-width:0.8;"/>
     </g>
     <g id="line2d_28">
      <g>
       <use style="stroke:#000000;stroke-width:0.6;" x="338.688" xlink:href="#ma4b803bf15" y="298.944"/>
      </g>
     </g>
    </g>
    <g id="text_5">
     <!-- log10(# f-evals / dimension) -->
     <defs>
      <path d="M 9.421875 75.984375 
L 18.40625 75.984375 
L 18.40625 0 
L 9.421875 0 
z
" id="DejaVuSans-108"/>
      <path d="M 30.609375 48.390625 
Q 23.390625 48.390625 19.1875 42.75 
Q 14.984375 37.109375 14.984375 27.296875 
Q 14.984375 17.484375 19.15625 11.84375 
Q 23.34375 6.203125 30.609375 6.203125 
Q 37.796875 6.203125 41.984375 11.859375 
Q 46.1875 17.53125 46.1875 27.296875 
Q 46.1875 37.015625 41.984375 42.703125 
Q 37.796875 48.390625 30.609375 48.390625 
z
M 30.609375 56 
Q 42.328125 56 49.015625 48.375 
Q 55.71875 40.765625 55.71875 27.296875 
Q 55.71875 13.875 49.015625 6.21875 
Q 42.328125 -1.421875 30.609375 -1.421875 
Q 18.84375 -1.421875 12.171875 6.21875 
Q 5.515625 13.875 5.515625 27.296875 
Q 5.515625 40.765625 12.171875 48.375 
Q 18.84375 56 30.609375 56 
z
" id="DejaVuSans-111"/>
      <path d="M 45.40625 27.984375 
Q 45.40625 37.75 41.375 43.109375 
Q 37.359375 48.484375 30.078125 48.484375 
Q 22.859375 48.484375 18.828125 43.109375 
Q 14.796875 37.75 14.796875 27.984375 
Q 14.796875 18.265625 18.828125 12.890625 
Q 22.859375 7.515625 30.078125 7.515625 
Q 37.359375 7.515625 41.375 12.890625 
Q 45.40625 18.265625 45.40625 27.984375 
z
M 54.390625 6.78125 
Q 54.390625 -7.171875 48.1875 -13.984375 
Q 42 -20.796875 29.203125 -20.796875 
Q 24.46875 -20.796875 20.265625 -20.09375 
Q 16.0625 -19.390625 12.109375 -17.921875 
L 12.109375 -9.1875 
Q 16.0625 -11.328125 19.921875 -12.34375 
Q 23.78125 -13.375 27.78125 -13.375 
Q 36.625 -13.375 41.015625 -8.765625 
Q 45.40625 -4.15625 45.40625 5.171875 
L 45.40625 9.625 
Q 42.625 4.78125 38.28125 2.390625 
Q 33.9375 0 27.875 0 
Q 17.828125 0 11.671875 7.65625 
Q 5.515625 15.328125 5.515625 27.984375 
Q 5.515625 40.671875 11.671875 48.328125 
Q 17.828125 56 27.875 56 
Q 33.9375 56 38.28125 53.609375 
Q 42.625 51.21875 45.40625 46.390625 
L 45.40625 54.6875 
L 54.390625 54.6875 
z
" id="DejaVuSans-103"/>
      <path d="M 12.40625 8.296875 
L 28.515625 8.296875 
L 28.515625 63.921875 
L 10.984375 60.40625 
L 10.984375 69.390625 
L 28.421875 72.90625 
L 38.28125 72.90625 
L 38.28125 8.296875 
L 54.390625 8.296875 
L 54.390625 0 
L 12.40625 0 
z
" id="DejaVuSans-49"/>
      <path d="M 31 75.875 
Q 24.46875 64.65625 21.28125 53.65625 
Q 18.109375 42.671875 18.109375 31.390625 
Q 18.109375 20.125 21.3125 9.0625 
Q 24.515625 -2 31 -13.1875 
L 23.1875 -13.1875 
Q 15.875 -1.703125 12.234375 9.375 
Q 8.59375 20.453125 8.59375 31.390625 
Q 8.59375 42.28125 12.203125 53.3125 
Q 15.828125 64.359375 23.1875 75.875 
z
" id="DejaVuSans-40"/>
      <path d="M 51.125 44 
L 36.921875 44 
L 32.8125 27.6875 
L 47.125 27.6875 
z
M 43.796875 71.78125 
L 38.71875 51.515625 
L 52.984375 51.515625 
L 58.109375 71.78125 
L 65.921875 71.78125 
L 60.890625 51.515625 
L 76.125 51.515625 
L 76.125 44 
L 58.984375 44 
L 54.984375 27.6875 
L 70.515625 27.6875 
L 70.515625 20.21875 
L 53.078125 20.21875 
L 48 0 
L 40.1875 0 
L 45.21875 20.21875 
L 30.90625 20.21875 
L 25.875 0 
L 18.015625 0 
L 23.09375 20.21875 
L 7.71875 20.21875 
L 7.71875 27.6875 
L 24.90625 27.6875 
L 29 44 
L 13.28125 44 
L 13.28125 51.515625 
L 30.90625 51.515625 
L 35.890625 71.78125 
z
" id="DejaVuSans-35"/>
      <path id="DejaVuSans-32"/>
      <path d="M 37.109375 75.984375 
L 37.109375 68.5 
L 28.515625 68.5 
Q 23.6875 68.5 21.796875 66.546875 
Q 19.921875 64.59375 19.921875 59.515625 
L 19.921875 54.6875 
L 34.71875 54.6875 
L 34.71875 47.703125 
L 19.921875 47.703125 
L 19.921875 0 
L 10.890625 0 
L 10.890625 47.703125 
L 2.296875 47.703125 
L 2.296875 54.6875 
L 10.890625 54.6875 
L 10.890625 58.5 
Q 10.890625 67.625 15.140625 71.796875 
Q 19.390625 75.984375 28.609375 75.984375 
z
" id="DejaVuSans-102"/>
      <path d="M 4.890625 31.390625 
L 31.203125 31.390625 
L 31.203125 23.390625 
L 4.890625 23.390625 
z
" id="DejaVuSans-45"/>
      <path d="M 56.203125 29.59375 
L 56.203125 25.203125 
L 14.890625 25.203125 
Q 15.484375 15.921875 20.484375 11.0625 
Q 25.484375 6.203125 34.421875 6.203125 
Q 39.59375 6.203125 44.453125 7.46875 
Q 49.3125 8.734375 54.109375 11.28125 
L 54.109375 2.78125 
Q 49.265625 0.734375 44.1875 -0.34375 
Q 39.109375 -1.421875 33.890625 -1.421875 
Q 20.796875 -1.421875 13.15625 6.1875 
Q 5.515625 13.8125 5.515625 26.8125 
Q 5.515625 40.234375 12.765625 48.109375 
Q 20.015625 56 32.328125 56 
Q 43.359375 56 49.78125 48.890625 
Q 56.203125 41.796875 56.203125 29.59375 
z
M 47.21875 32.234375 
Q 47.125 39.59375 43.09375 43.984375 
Q 39.0625 48.390625 32.421875 48.390625 
Q 24.90625 48.390625 20.390625 44.140625 
Q 15.875 39.890625 15.1875 32.171875 
z
" id="DejaVuSans-101"/>
      <path d="M 2.984375 54.6875 
L 12.5 54.6875 
L 29.59375 8.796875 
L 46.6875 54.6875 
L 56.203125 54.6875 
L 35.6875 0 
L 23.484375 0 
z
" id="DejaVuSans-118"/>
      <path d="M 34.28125 27.484375 
Q 23.390625 27.484375 19.1875 25 
Q 14.984375 22.515625 14.984375 16.5 
Q 14.984375 11.71875 18.140625 8.90625 
Q 21.296875 6.109375 26.703125 6.109375 
Q 34.1875 6.109375 38.703125 11.40625 
Q 43.21875 16.703125 43.21875 25.484375 
L 43.21875 27.484375 
z
M 52.203125 31.203125 
L 52.203125 0 
L 43.21875 0 
L 43.21875 8.296875 
Q 40.140625 3.328125 35.546875 0.953125 
Q 30.953125 -1.421875 24.3125 -1.421875 
Q 15.921875 -1.421875 10.953125 3.296875 
Q 6 8.015625 6 15.921875 
Q 6 25.140625 12.171875 29.828125 
Q 18.359375 34.515625 30.609375 34.515625 
L 43.21875 34.515625 
L 43.21875 35.40625 
Q 43.21875 41.609375 39.140625 45 
Q 35.0625 48.390625 27.6875 48.390625 
Q 23 48.390625 18.546875 47.265625 
Q 14.109375 46.140625 10.015625 43.890625 
L 10.015625 52.203125 
Q 14.9375 54.109375 19.578125 55.046875 
Q 24.21875 56 28.609375 56 
Q 40.484375 56 46.34375 49.84375 
Q 52.203125 43.703125 52.203125 31.203125 
z
" id="DejaVuSans-97"/>
      <path d="M 44.28125 53.078125 
L 44.28125 44.578125 
Q 40.484375 46.53125 36.375 47.5 
Q 32.28125 48.484375 27.875 48.484375 
Q 21.1875 48.484375 17.84375 46.4375 
Q 14.5 44.390625 14.5 40.28125 
Q 14.5 37.15625 16.890625 35.375 
Q 19.28125 33.59375 26.515625 31.984375 
L 29.59375 31.296875 
Q 39.15625 29.25 43.1875 25.515625 
Q 47.21875 21.78125 47.21875 15.09375 
Q 47.21875 7.46875 41.1875 3.015625 
Q 35.15625 -1.421875 24.609375 -1.421875 
Q 20.21875 -1.421875 15.453125 -0.5625 
Q 10.6875 0.296875 5.421875 2 
L 5.421875 11.28125 
Q 10.40625 8.6875 15.234375 7.390625 
Q 20.0625 6.109375 24.8125 6.109375 
Q 31.15625 6.109375 34.5625 8.28125 
Q 37.984375 10.453125 37.984375 14.40625 
Q 37.984375 18.0625 35.515625 20.015625 
Q 33.0625 21.96875 24.703125 23.78125 
L 21.578125 24.515625 
Q 13.234375 26.265625 9.515625 29.90625 
Q 5.8125 33.546875 5.8125 39.890625 
Q 5.8125 47.609375 11.28125 51.796875 
Q 16.75 56 26.8125 56 
Q 31.78125 56 36.171875 55.265625 
Q 40.578125 54.546875 44.28125 53.078125 
z
" id="DejaVuSans-115"/>
      <path d="M 25.390625 72.90625 
L 33.6875 72.90625 
L 8.296875 -9.28125 
L 0 -9.28125 
z
" id="DejaVuSans-47"/>
      <path d="M 45.40625 46.390625 
L 45.40625 75.984375 
L 54.390625 75.984375 
L 54.390625 0 
L 45.40625 0 
L 45.40625 8.203125 
Q 42.578125 3.328125 38.25 0.953125 
Q 33.9375 -1.421875 27.875 -1.421875 
Q 17.96875 -1.421875 11.734375 6.484375 
Q 5.515625 14.40625 5.515625 27.296875 
Q 5.515625 40.1875 11.734375 48.09375 
Q 17.96875 56 27.875 56 
Q 33.9375 56 38.25 53.625 
Q 42.578125 51.265625 45.40625 46.390625 
z
M 14.796875 27.296875 
Q 14.796875 17.390625 18.875 11.75 
Q 22.953125 6.109375 30.078125 6.109375 
Q 37.203125 6.109375 41.296875 11.75 
Q 45.40625 17.390625 45.40625 27.296875 
Q 45.40625 37.203125 41.296875 42.84375 
Q 37.203125 48.484375 30.078125 48.484375 
Q 22.953125 48.484375 18.875 42.84375 
Q 14.796875 37.203125 14.796875 27.296875 
z
" id="DejaVuSans-100"/>
      <path d="M 9.421875 54.6875 
L 18.40625 54.6875 
L 18.40625 0 
L 9.421875 0 
z
M 9.421875 75.984375 
L 18.40625 75.984375 
L 18.40625 64.59375 
L 9.421875 64.59375 
z
" id="DejaVuSans-105"/>
      <path d="M 52 44.1875 
Q 55.375 50.25 60.0625 53.125 
Q 64.75 56 71.09375 56 
Q 79.640625 56 84.28125 50.015625 
Q 88.921875 44.046875 88.921875 33.015625 
L 88.921875 0 
L 79.890625 0 
L 79.890625 32.71875 
Q 79.890625 40.578125 77.09375 44.375 
Q 74.3125 48.1875 68.609375 48.1875 
Q 61.625 48.1875 57.5625 43.546875 
Q 53.515625 38.921875 53.515625 30.90625 
L 53.515625 0 
L 44.484375 0 
L 44.484375 32.71875 
Q 44.484375 40.625 41.703125 44.40625 
Q 38.921875 48.1875 33.109375 48.1875 
Q 26.21875 48.1875 22.15625 43.53125 
Q 18.109375 38.875 18.109375 30.90625 
L 18.109375 0 
L 9.078125 0 
L 9.078125 54.6875 
L 18.109375 54.6875 
L 18.109375 46.1875 
Q 21.1875 51.21875 25.484375 53.609375 
Q 29.78125 56 35.6875 56 
Q 41.65625 56 45.828125 52.96875 
Q 50 49.953125 52 44.1875 
z
" id="DejaVuSans-109"/>
      <path d="M 54.890625 33.015625 
L 54.890625 0 
L 45.90625 0 
L 45.90625 32.71875 
Q 45.90625 40.484375 42.875 44.328125 
Q 39.84375 48.1875 33.796875 48.1875 
Q 26.515625 48.1875 22.3125 43.546875 
Q 18.109375 38.921875 18.109375 30.90625 
L 18.109375 0 
L 9.078125 0 
L 9.078125 54.6875 
L 18.109375 54.6875 
L 18.109375 46.1875 
Q 21.34375 51.125 25.703125 53.5625 
Q 30.078125 56 35.796875 56 
Q 45.21875 56 50.046875 50.171875 
Q 54.890625 44.34375 54.890625 33.015625 
z
" id="DejaVuSans-110"/>
      <path d="M 8.015625 75.875 
L 15.828125 75.875 
Q 23.140625 64.359375 26.78125 53.3125 
Q 30.421875 42.28125 30.421875 31.390625 
Q 30.421875 20.453125 26.78125 9.375 
Q 23.140625 -1.703125 15.828125 -13.1875 
L 8.015625 -13.1875 
Q 14.5 -2 17.703125 9.0625 
Q 20.90625 20.125 20.90625 31.390625 
Q 20.90625 42.671875 17.703125 53.65625 
Q 14.5 64.65625 8.015625 75.875 
z
" id="DejaVuSans-41"/>
     </defs>
     <g transform="translate(77.303219 342.217594)scale(0.17 -0.17)">
      <use xlink:href="#DejaVuSans-108"/>
      <use x="27.783203" xlink:href="#DejaVuSans-111"/>
      <use x="88.964844" xlink:href="#DejaVuSans-103"/>
      <use x="152.441406" xlink:href="#DejaVuSans-49"/>
      <use x="216.064453" xlink:href="#DejaVuSans-48"/>
      <use x="279.6875" xlink:href="#DejaVuSans-40"/>
      <use x="318.701172" xlink:href="#DejaVuSans-35"/>
      <use x="402.490234" xlink:href="#DejaVuSans-32"/>
      <use x="434.277344" xlink:href="#DejaVuSans-102"/>
      <use x="469.404297" xlink:href="#DejaVuSans-45"/>
      <use x="505.488281" xlink:href="#DejaVuSans-101"/>
      <use x="567.011719" xlink:href="#DejaVuSans-118"/>
      <use x="626.191406" xlink:href="#DejaVuSans-97"/>
      <use x="687.470703" xlink:href="#DejaVuSans-108"/>
      <use x="715.253906" xlink:href="#DejaVuSans-115"/>
      <use x="767.353516" xlink:href="#DejaVuSans-32"/>
      <use x="799.140625" xlink:href="#DejaVuSans-47"/>
      <use x="832.832031" xlink:href="#DejaVuSans-32"/>
      <use x="864.619141" xlink:href="#DejaVuSans-100"/>
      <use x="928.095703" xlink:href="#DejaVuSans-105"/>
      <use x="955.878906" xlink:href="#DejaVuSans-109"/>
      <use x="1053.291016" xlink:href="#DejaVuSans-101"/>
      <use x="1114.814453" xlink:href="#DejaVuSans-110"/>
      <use x="1178.193359" xlink:href="#DejaVuSans-115"/>
      <use x="1230.292969" xlink:href="#DejaVuSans-105"/>
      <use x="1258.076172" xlink:href="#DejaVuSans-111"/>
      <use x="1319.257812" xlink:href="#DejaVuSans-110"/>
      <use x="1382.636719" xlink:href="#DejaVuSans-41"/>
     </g>
    </g>
   </g>
   <g id="matplotlib.axis_2">
    <g id="ytick_1">
     <g id="line2d_29">
      <path clip-path="url(#pe9ce98d582)" d="M 57.6 298.944 
L 338.688 298.944 
" style="fill:none;stroke:#b0b0b0;stroke-linecap:square;stroke-width:0.8;"/>
     </g>
     <g id="line2d_30">
      <defs>
       <path d="M 0 0 
L -3.5 0 
" id="m9deb0b8d87" style="stroke:#000000;stroke-width:0.8;"/>
      </defs>
      <g>
       <use style="stroke:#000000;stroke-width:0.8;" x="57.6" xlink:href="#m9deb0b8d87" y="298.944"/>
      </g>
     </g>
     <g id="text_6">
      <!-- 0.0 -->
      <defs>
       <path d="M 10.6875 12.40625 
L 21 12.40625 
L 21 0 
L 10.6875 0 
z
" id="DejaVuSans-46"/>
      </defs>
      <g transform="translate(25.155 305.02275)scale(0.16 -0.16)">
       <use xlink:href="#DejaVuSans-48"/>
       <use x="63.623047" xlink:href="#DejaVuSans-46"/>
       <use x="95.410156" xlink:href="#DejaVuSans-48"/>
      </g>
     </g>
    </g>
    <g id="ytick_2">
     <g id="line2d_31">
      <path clip-path="url(#pe9ce98d582)" d="M 57.6 247.959446 
L 338.688 247.959446 
" style="fill:none;stroke:#b0b0b0;stroke-linecap:square;stroke-width:0.8;"/>
     </g>
     <g id="line2d_32">
      <g>
       <use style="stroke:#000000;stroke-width:0.8;" x="57.6" xlink:href="#m9deb0b8d87" y="247.959446"/>
      </g>
     </g>
     <g id="text_7">
      <!-- 0.2 -->
      <g transform="translate(25.155 254.038196)scale(0.16 -0.16)">
       <use xlink:href="#DejaVuSans-48"/>
       <use x="63.623047" xlink:href="#DejaVuSans-46"/>
       <use x="95.410156" xlink:href="#DejaVuSans-50"/>
      </g>
     </g>
    </g>
    <g id="ytick_3">
     <g id="line2d_33">
      <path clip-path="url(#pe9ce98d582)" d="M 57.6 196.974891 
L 338.688 196.974891 
" style="fill:none;stroke:#b0b0b0;stroke-linecap:square;stroke-width:0.8;"/>
     </g>
     <g id="line2d_34">
      <g>
       <use style="stroke:#000000;stroke-width:0.8;" x="57.6" xlink:href="#m9deb0b8d87" y="196.974891"/>
      </g>
     </g>
     <g id="text_8">
      <!-- 0.4 -->
      <g transform="translate(25.155 203.053641)scale(0.16 -0.16)">
       <use xlink:href="#DejaVuSans-48"/>
       <use x="63.623047" xlink:href="#DejaVuSans-46"/>
       <use x="95.410156" xlink:href="#DejaVuSans-52"/>
      </g>
     </g>
    </g>
    <g id="ytick_4">
     <g id="line2d_35">
      <path clip-path="url(#pe9ce98d582)" d="M 57.6 145.990337 
L 338.688 145.990337 
" style="fill:none;stroke:#b0b0b0;stroke-linecap:square;stroke-width:0.8;"/>
     </g>
     <g id="line2d_36">
      <g>
       <use style="stroke:#000000;stroke-width:0.8;" x="57.6" xlink:href="#m9deb0b8d87" y="145.990337"/>
      </g>
     </g>
     <g id="text_9">
      <!-- 0.6 -->
      <g transform="translate(25.155 152.069087)scale(0.16 -0.16)">
       <use xlink:href="#DejaVuSans-48"/>
       <use x="63.623047" xlink:href="#DejaVuSans-46"/>
       <use x="95.410156" xlink:href="#DejaVuSans-54"/>
      </g>
     </g>
    </g>
    <g id="ytick_5">
     <g id="line2d_37">
      <path clip-path="url(#pe9ce98d582)" d="M 57.6 95.005782 
L 338.688 95.005782 
" style="fill:none;stroke:#b0b0b0;stroke-linecap:square;stroke-width:0.8;"/>
     </g>
     <g id="line2d_38">
      <g>
       <use style="stroke:#000000;stroke-width:0.8;" x="57.6" xlink:href="#m9deb0b8d87" y="95.005782"/>
      </g>
     </g>
     <g id="text_10">
      <!-- 0.8 -->
      <defs>
       <path d="M 31.78125 34.625 
Q 24.75 34.625 20.71875 30.859375 
Q 16.703125 27.09375 16.703125 20.515625 
Q 16.703125 13.921875 20.71875 10.15625 
Q 24.75 6.390625 31.78125 6.390625 
Q 38.8125 6.390625 42.859375 10.171875 
Q 46.921875 13.96875 46.921875 20.515625 
Q 46.921875 27.09375 42.890625 30.859375 
Q 38.875 34.625 31.78125 34.625 
z
M 21.921875 38.8125 
Q 15.578125 40.375 12.03125 44.71875 
Q 8.5 49.078125 8.5 55.328125 
Q 8.5 64.0625 14.71875 69.140625 
Q 20.953125 74.21875 31.78125 74.21875 
Q 42.671875 74.21875 48.875 69.140625 
Q 55.078125 64.0625 55.078125 55.328125 
Q 55.078125 49.078125 51.53125 44.71875 
Q 48 40.375 41.703125 38.8125 
Q 48.828125 37.15625 52.796875 32.3125 
Q 56.78125 27.484375 56.78125 20.515625 
Q 56.78125 9.90625 50.3125 4.234375 
Q 43.84375 -1.421875 31.78125 -1.421875 
Q 19.734375 -1.421875 13.25 4.234375 
Q 6.78125 9.90625 6.78125 20.515625 
Q 6.78125 27.484375 10.78125 32.3125 
Q 14.796875 37.15625 21.921875 38.8125 
z
M 18.3125 54.390625 
Q 18.3125 48.734375 21.84375 45.5625 
Q 25.390625 42.390625 31.78125 42.390625 
Q 38.140625 42.390625 41.71875 45.5625 
Q 45.3125 48.734375 45.3125 54.390625 
Q 45.3125 60.0625 41.71875 63.234375 
Q 38.140625 66.40625 31.78125 66.40625 
Q 25.390625 66.40625 21.84375 63.234375 
Q 18.3125 60.0625 18.3125 54.390625 
z
" id="DejaVuSans-56"/>
      </defs>
      <g transform="translate(25.155 101.084532)scale(0.16 -0.16)">
       <use xlink:href="#DejaVuSans-48"/>
       <use x="63.623047" xlink:href="#DejaVuSans-46"/>
       <use x="95.410156" xlink:href="#DejaVuSans-56"/>
      </g>
     </g>
    </g>
    <g id="ytick_6">
     <g id="line2d_39">
      <path clip-path="url(#pe9ce98d582)" d="M 57.6 44.021228 
L 338.688 44.021228 
" style="fill:none;stroke:#b0b0b0;stroke-linecap:square;stroke-width:0.8;"/>
     </g>
     <g id="line2d_40">
      <g>
       <use style="stroke:#000000;stroke-width:0.8;" x="57.6" xlink:href="#m9deb0b8d87" y="44.021228"/>
      </g>
     </g>
     <g id="text_11">
      <!-- 1.0 -->
      <g transform="translate(25.155 50.099978)scale(0.16 -0.16)">
       <use xlink:href="#DejaVuSans-49"/>
       <use x="63.623047" xlink:href="#DejaVuSans-46"/>
       <use x="95.410156" xlink:href="#DejaVuSans-48"/>
      </g>
     </g>
    </g>
    <g id="text_12">
     <!-- Fraction of function,target pairs -->
     <defs>
      <path d="M 9.8125 72.90625 
L 51.703125 72.90625 
L 51.703125 64.59375 
L 19.671875 64.59375 
L 19.671875 43.109375 
L 48.578125 43.109375 
L 48.578125 34.8125 
L 19.671875 34.8125 
L 19.671875 0 
L 9.8125 0 
z
" id="DejaVuSans-70"/>
      <path d="M 41.109375 46.296875 
Q 39.59375 47.171875 37.8125 47.578125 
Q 36.03125 48 33.890625 48 
Q 26.265625 48 22.1875 43.046875 
Q 18.109375 38.09375 18.109375 28.8125 
L 18.109375 0 
L 9.078125 0 
L 9.078125 54.6875 
L 18.109375 54.6875 
L 18.109375 46.1875 
Q 20.953125 51.171875 25.484375 53.578125 
Q 30.03125 56 36.53125 56 
Q 37.453125 56 38.578125 55.875 
Q 39.703125 55.765625 41.0625 55.515625 
z
" id="DejaVuSans-114"/>
      <path d="M 48.78125 52.59375 
L 48.78125 44.1875 
Q 44.96875 46.296875 41.140625 47.34375 
Q 37.3125 48.390625 33.40625 48.390625 
Q 24.65625 48.390625 19.8125 42.84375 
Q 14.984375 37.3125 14.984375 27.296875 
Q 14.984375 17.28125 19.8125 11.734375 
Q 24.65625 6.203125 33.40625 6.203125 
Q 37.3125 6.203125 41.140625 7.25 
Q 44.96875 8.296875 48.78125 10.40625 
L 48.78125 2.09375 
Q 45.015625 0.34375 40.984375 -0.53125 
Q 36.96875 -1.421875 32.421875 -1.421875 
Q 20.0625 -1.421875 12.78125 6.34375 
Q 5.515625 14.109375 5.515625 27.296875 
Q 5.515625 40.671875 12.859375 48.328125 
Q 20.21875 56 33.015625 56 
Q 37.15625 56 41.109375 55.140625 
Q 45.0625 54.296875 48.78125 52.59375 
z
" id="DejaVuSans-99"/>
      <path d="M 18.3125 70.21875 
L 18.3125 54.6875 
L 36.8125 54.6875 
L 36.8125 47.703125 
L 18.3125 47.703125 
L 18.3125 18.015625 
Q 18.3125 11.328125 20.140625 9.421875 
Q 21.96875 7.515625 27.59375 7.515625 
L 36.8125 7.515625 
L 36.8125 0 
L 27.59375 0 
Q 17.1875 0 13.234375 3.875 
Q 9.28125 7.765625 9.28125 18.015625 
L 9.28125 47.703125 
L 2.6875 47.703125 
L 2.6875 54.6875 
L 9.28125 54.6875 
L 9.28125 70.21875 
z
" id="DejaVuSans-116"/>
      <path d="M 8.5 21.578125 
L 8.5 54.6875 
L 17.484375 54.6875 
L 17.484375 21.921875 
Q 17.484375 14.15625 20.5 10.265625 
Q 23.53125 6.390625 29.59375 6.390625 
Q 36.859375 6.390625 41.078125 11.03125 
Q 45.3125 15.671875 45.3125 23.6875 
L 45.3125 54.6875 
L 54.296875 54.6875 
L 54.296875 0 
L 45.3125 0 
L 45.3125 8.40625 
Q 42.046875 3.421875 37.71875 1 
Q 33.40625 -1.421875 27.6875 -1.421875 
Q 18.265625 -1.421875 13.375 4.4375 
Q 8.5 10.296875 8.5 21.578125 
z
M 31.109375 56 
z
" id="DejaVuSans-117"/>
      <path d="M 11.71875 12.40625 
L 22.015625 12.40625 
L 22.015625 4 
L 14.015625 -11.625 
L 7.71875 -11.625 
L 11.71875 4 
z
" id="DejaVuSans-44"/>
      <path d="M 18.109375 8.203125 
L 18.109375 -20.796875 
L 9.078125 -20.796875 
L 9.078125 54.6875 
L 18.109375 54.6875 
L 18.109375 46.390625 
Q 20.953125 51.265625 25.265625 53.625 
Q 29.59375 56 35.59375 56 
Q 45.5625 56 51.78125 48.09375 
Q 58.015625 40.1875 58.015625 27.296875 
Q 58.015625 14.40625 51.78125 6.484375 
Q 45.5625 -1.421875 35.59375 -1.421875 
Q 29.59375 -1.421875 25.265625 0.953125 
Q 20.953125 3.328125 18.109375 8.203125 
z
M 48.6875 27.296875 
Q 48.6875 37.203125 44.609375 42.84375 
Q 40.53125 48.484375 33.40625 48.484375 
Q 26.265625 48.484375 22.1875 42.84375 
Q 18.109375 37.203125 18.109375 27.296875 
Q 18.109375 17.390625 22.1875 11.75 
Q 26.265625 6.109375 33.40625 6.109375 
Q 40.53125 6.109375 44.609375 11.75 
Q 48.6875 17.390625 48.6875 27.296875 
z
" id="DejaVuSans-112"/>
     </defs>
     <g transform="translate(17.619531 305.347375)rotate(-90)scale(0.17 -0.17)">
      <use xlink:href="#DejaVuSans-70"/>
      <use x="57.410156" xlink:href="#DejaVuSans-114"/>
      <use x="98.523438" xlink:href="#DejaVuSans-97"/>
      <use x="159.802734" xlink:href="#DejaVuSans-99"/>
      <use x="214.783203" xlink:href="#DejaVuSans-116"/>
      <use x="253.992188" xlink:href="#DejaVuSans-105"/>
      <use x="281.775391" xlink:href="#DejaVuSans-111"/>
      <use x="342.957031" xlink:href="#DejaVuSans-110"/>
      <use x="406.335938" xlink:href="#DejaVuSans-32"/>
      <use x="438.123047" xlink:href="#DejaVuSans-111"/>
      <use x="499.304688" xlink:href="#DejaVuSans-102"/>
      <use x="534.509766" xlink:href="#DejaVuSans-32"/>
      <use x="566.296875" xlink:href="#DejaVuSans-102"/>
      <use x="601.501953" xlink:href="#DejaVuSans-117"/>
      <use x="664.880859" xlink:href="#DejaVuSans-110"/>
      <use x="728.259766" xlink:href="#DejaVuSans-99"/>
      <use x="783.240234" xlink:href="#DejaVuSans-116"/>
      <use x="822.449219" xlink:href="#DejaVuSans-105"/>
      <use x="850.232422" xlink:href="#DejaVuSans-111"/>
      <use x="911.414062" xlink:href="#DejaVuSans-110"/>
      <use x="974.792969" xlink:href="#DejaVuSans-44"/>
      <use x="1006.580078" xlink:href="#DejaVuSans-116"/>
      <use x="1045.789062" xlink:href="#DejaVuSans-97"/>
      <use x="1107.068359" xlink:href="#DejaVuSans-114"/>
      <use x="1148.166016" xlink:href="#DejaVuSans-103"/>
      <use x="1211.642578" xlink:href="#DejaVuSans-101"/>
      <use x="1273.166016" xlink:href="#DejaVuSans-116"/>
      <use x="1312.375" xlink:href="#DejaVuSans-32"/>
      <use x="1344.162109" xlink:href="#DejaVuSans-112"/>
      <use x="1407.638672" xlink:href="#DejaVuSans-97"/>
      <use x="1468.917969" xlink:href="#DejaVuSans-105"/>
      <use x="1496.701172" xlink:href="#DejaVuSans-114"/>
      <use x="1537.814453" xlink:href="#DejaVuSans-115"/>
     </g>
    </g>
   </g>
   <g id="line2d_41">
    <defs>
     <path d="M 0 1.5 
C 0.397805 1.5 0.77937 1.341951 1.06066 1.06066 
C 1.341951 0.77937 1.5 0.397805 1.5 0 
C 1.5 -0.397805 1.341951 -0.77937 1.06066 -1.06066 
C 0.77937 -1.341951 0.397805 -1.5 0 -1.5 
C -0.397805 -1.5 -0.77937 -1.341951 -1.06066 -1.06066 
C -1.341951 -0.77937 -1.5 -0.397805 -1.5 0 
C -1.5 0.397805 -1.341951 0.77937 -1.06066 1.06066 
C -0.77937 1.341951 -0.397805 1.5 0 1.5 
z
" id="m46d1eeefe4" style="stroke:#f5deb3;"/>
    </defs>
    <g>
     <use style="fill:#f5deb3;stroke:#f5deb3;" x="130.796184" xlink:href="#m46d1eeefe4" y="44.021228"/>
     <use style="fill:#f5deb3;stroke:#f5deb3;" x="130.796184" xlink:href="#m46d1eeefe4" y="44.021228"/>
    </g>
   </g>
   <g id="line2d_42">
    <defs>
     <path d="M 0 1.5 
C 0.397805 1.5 0.77937 1.341951 1.06066 1.06066 
C 1.341951 0.77937 1.5 0.397805 1.5 0 
C 1.5 -0.397805 1.341951 -0.77937 1.06066 -1.06066 
C 0.77937 -1.341951 0.397805 -1.5 0 -1.5 
C -0.397805 -1.5 -0.77937 -1.341951 -1.06066 -1.06066 
C -1.341951 -0.77937 -1.5 -0.397805 -1.5 0 
C -1.5 0.397805 -1.341951 0.77937 -1.06066 1.06066 
C -0.77937 1.341951 -0.397805 1.5 0 1.5 
z
" id="m044fea0de0" style="stroke:#000080;"/>
    </defs>
    <g>
     <use style="fill:#000080;stroke:#000080;" x="152.474064" xlink:href="#m044fea0de0" y="44.021228"/>
     <use style="fill:#000080;stroke:#000080;" x="152.474064" xlink:href="#m044fea0de0" y="44.021228"/>
    </g>
   </g>
   <g id="line2d_43">
    <path d="M 45.512012 298.944 
L 45.512012 297.944303 
L 57.6 297.944303 
L 57.6 297.444454 
L 64.67102 297.444454 
L 64.67102 295.944909 
L 81.775977 295.944909 
L 81.775977 294.945211 
L 85.66744 294.945211 
L 85.66744 291.94612 
L 88.846997 291.94612 
L 88.846997 289.946726 
L 93.863965 289.946726 
L 93.863965 288.947029 
L 95.918017 288.947029 
L 95.918017 287.947331 
L 100.192776 287.947331 
L 100.192776 287.447483 
L 101.646892 287.447483 
L 101.646892 286.947634 
L 103.623262 286.947634 
L 103.623262 286.447786 
L 107.009204 286.447786 
L 107.009204 284.448391 
L 107.514726 284.448391 
L 107.514726 281.949149 
L 109.401893 281.949149 
L 109.401893 280.949451 
L 109.843417 280.949451 
L 109.843417 279.949754 
L 110.694282 279.949754 
L 110.694282 278.950057 
L 111.104637 278.950057 
L 111.104637 277.95036 
L 111.505558 277.95036 
L 111.505558 276.950663 
L 111.897469 276.950663 
L 111.897469 275.950966 
L 113.73488 275.950966 
L 113.73488 275.451117 
L 114.080224 275.451117 
L 114.080224 274.951268 
L 115.397021 274.951268 
L 115.397021 272.951874 
L 115.711251 272.951874 
L 115.711251 269.952783 
L 116.621333 269.952783 
L 116.621333 268.453237 
L 117.765302 268.453237 
L 117.765302 267.45354 
L 118.039942 267.45354 
L 118.039942 266.453843 
L 118.310324 266.453843 
L 118.310324 265.454146 
L 119.351785 265.454146 
L 119.351785 264.954297 
L 119.602714 264.954297 
L 119.602714 264.454448 
L 120.093994 264.454448 
L 120.093994 263.9546 
L 120.571812 263.9546 
L 120.571812 263.454751 
L 120.8059 263.454751 
L 120.8059 260.45566 
L 121.036887 260.45566 
L 121.036887 258.956114 
L 121.489881 258.956114 
L 121.489881 257.956417 
L 121.712041 257.956417 
L 121.712041 257.456568 
L 121.931406 257.456568 
L 121.931406 255.957023 
L 122.148045 255.957023 
L 122.148045 254.457477 
L 122.573415 254.457477 
L 122.573415 253.957628 
L 122.988655 253.957628 
L 122.988655 253.45778 
L 123.192626 253.45778 
L 123.192626 250.958537 
L 123.394238 250.958537 
L 123.394238 249.458991 
L 123.593547 249.458991 
L 123.593547 248.459294 
L 123.790603 248.459294 
L 123.790603 246.959748 
L 124.178158 246.959748 
L 124.178158 245.960051 
L 124.92835 245.960051 
L 124.92835 243.960657 
L 125.291682 243.960657 
L 125.291682 243.460808 
L 125.470548 243.460808 
L 125.470548 240.461717 
L 125.647598 240.461717 
L 125.647598 239.961868 
L 125.822869 239.961868 
L 125.822869 238.962171 
L 125.996395 238.962171 
L 125.996395 237.962474 
L 126.338353 237.962474 
L 126.338353 236.962777 
L 126.50685 236.962777 
L 126.50685 235.96308 
L 126.673734 235.96308 
L 126.673734 234.963383 
L 126.839037 234.963383 
L 126.839037 233.463837 
L 127.48501 233.463837 
L 127.48501 232.963988 
L 127.642832 232.963988 
L 127.642832 230.964594 
L 128.411207 230.964594 
L 128.411207 229.964897 
L 128.560901 229.964897 
L 128.560901 228.9652 
L 128.709321 228.9652 
L 128.709321 226.465957 
L 128.856489 226.465957 
L 128.856489 225.966108 
L 129.991152 225.966108 
L 129.991152 223.466865 
L 130.127931 223.466865 
L 130.127931 222.467168 
L 130.263646 222.467168 
L 130.263646 220.967623 
L 130.398313 220.967623 
L 130.398313 218.968228 
L 130.664567 218.968228 
L 130.664567 218.46838 
L 130.926816 218.46838 
L 130.926816 211.4705 
L 131.056477 211.4705 
L 131.056477 210.470803 
L 131.312942 210.470803 
L 131.312942 209.970954 
L 131.565689 209.970954 
L 131.565689 208.971257 
L 131.690703 208.971257 
L 131.690703 207.97156 
L 132.060454 207.97156 
L 132.060454 206.971863 
L 132.181982 206.971863 
L 132.181982 206.472014 
L 132.422528 206.472014 
L 132.422528 205.972165 
L 132.893889 205.972165 
L 132.893889 204.972468 
L 133.124876 204.972468 
L 133.124876 204.47262 
L 133.239232 204.47262 
L 133.239232 201.473528 
L 133.46572 201.473528 
L 133.46572 199.973983 
L 133.57787 199.973983 
L 133.57787 199.474134 
L 133.800029 199.474134 
L 133.910056 196.475043 
L 134.019394 196.475043 
L 134.019394 192.976103 
L 134.236034 192.976103 
L 134.343353 190.47686 
L 134.450015 190.47686 
L 134.55603 187.477768 
L 134.661403 187.477768 
L 134.766144 184.478677 
L 135.076644 184.478677 
L 135.178927 182.979131 
L 135.381712 182.979131 
L 135.381712 182.479282 
L 135.878591 182.479282 
L 135.878591 181.979434 
L 136.456742 181.979434 
L 136.456742 178.480494 
L 136.645276 178.480494 
L 136.738785 176.4811 
L 136.924311 176.4811 
L 137.016339 173.981857 
L 137.107884 173.981857 
L 137.198951 172.98216 
L 137.289545 172.98216 
L 137.37967 166.484128 
L 137.735587 166.484128 
L 137.823442 163.984885 
L 137.910857 163.984885 
L 137.910857 161.485642 
L 138.084384 161.485642 
L 138.170504 157.986702 
L 138.256201 157.986702 
L 138.341479 156.487157 
L 138.426341 156.487157 
L 138.510793 152.488368 
L 138.67848 152.488368 
L 138.761723 150.988822 
L 138.927025 150.988822 
L 139.009092 147.489882 
L 139.090775 147.489882 
L 139.090775 146.490185 
L 139.333553 146.490185 
L 139.333553 144.490791 
L 139.493548 144.490791 
L 139.572998 142.991245 
L 140.042245 142.991245 
L 140.042245 140.492002 
L 140.195896 140.492002 
L 140.195896 138.992457 
L 140.423864 138.992457 
L 140.423864 136.993062 
L 140.64889 136.993062 
L 140.64889 135.993365 
L 140.79731 135.993365 
L 140.79731 133.993971 
L 141.235139 133.993971 
L 141.307054 130.994879 
L 141.378673 130.994879 
L 141.45 125.496545 
L 141.591783 125.496545 
L 141.591783 124.996697 
L 141.732423 124.996697 
L 141.732423 123.497151 
L 142.07914 123.497151 
L 142.147664 122.497454 
L 142.419098 122.497454 
L 142.486301 117.998817 
L 142.619936 117.998817 
L 142.619936 116.999119 
L 142.752555 116.999119 
L 142.752555 115.999422 
L 142.884173 115.999422 
L 142.949611 112.500482 
L 143.079756 112.500482 
L 143.079756 111.500785 
L 143.337167 111.500785 
L 143.337167 110.001239 
L 143.464461 110.001239 
L 143.527762 106.502299 
L 143.590833 106.502299 
L 143.590833 104.502905 
L 143.778691 104.502905 
L 143.778691 104.003056 
L 144.026061 104.003056 
L 144.026061 103.503208 
L 144.148442 103.503208 
L 144.148442 102.503511 
L 144.390658 102.503511 
L 144.390658 101.503814 
L 144.510517 101.503814 
L 144.570138 97.505025 
L 144.629556 97.505025 
L 144.629556 96.505328 
L 144.747789 96.505328 
L 144.806606 95.505631 
L 144.923649 95.505631 
L 144.923649 93.506236 
L 145.155404 93.506236 
L 145.212864 89.007599 
L 145.384119 89.007599 
L 145.384119 88.007902 
L 145.777292 88.007902 
L 145.832743 86.008508 
L 146.324022 86.008508 
L 146.431341 81.509871 
L 146.538004 81.509871 
L 146.538004 78.510779 
L 146.749392 78.510779 
L 146.749392 78.010931 
L 146.958248 78.010931 
L 146.958248 76.011536 
L 147.164632 76.011536 
L 147.266916 75.011839 
L 147.368603 75.011839 
L 147.4697 73.012445 
L 147.52003 73.012445 
L 147.570215 72.012748 
L 147.71991 72.012748 
L 147.71991 69.513505 
L 147.86833 69.513505 
L 147.86833 67.514111 
L 148.112924 67.514111 
L 148.161434 63.515322 
L 148.258051 63.515322 
L 148.258051 63.015474 
L 148.449693 63.015474 
L 148.449693 62.015776 
L 148.733265 62.015776 
L 148.826773 57.017291 
L 148.919783 57.017291 
L 148.919783 56.017593 
L 149.104327 56.017593 
L 149.15016 55.017896 
L 149.377533 55.017896 
L 149.377533 54.518048 
L 149.646525 54.518048 
L 149.735275 53.518351 
L 149.911431 53.518351 
L 149.955193 51.019108 
L 150.344189 51.019108 
L 150.429467 50.019411 
L 150.51433 50.019411 
L 150.51433 49.019713 
L 150.640855 49.019713 
L 150.640855 48.519865 
L 150.808139 48.519865 
L 150.808139 47.520168 
L 151.421542 47.520168 
L 151.421542 47.020319 
L 151.660987 47.020319 
L 151.660987 46.520471 
L 151.897188 46.520471 
L 151.975216 45.020925 
L 152.0141 45.020925 
L 152.0141 44.521076 
L 152.474064 44.521076 
L 152.474064 44.021228 
L 338.688 44.021228 
L 338.688 44.021228 
" style="fill:none;stroke:#000080;stroke-linecap:square;stroke-width:1.5;"/>
   </g>
   <g id="line2d_44">
    <defs>
     <path d="M 0 6 
C 1.591219 6 3.117479 5.367802 4.242641 4.242641 
C 5.367802 3.117479 6 1.591219 6 0 
C 6 -1.591219 5.367802 -3.117479 4.242641 -4.242641 
C 3.117479 -5.367802 1.591219 -6 0 -6 
C -1.591219 -6 -3.117479 -5.367802 -4.242641 -4.242641 
C -5.367802 -3.117479 -6 -1.591219 -6 0 
C -6 1.591219 -5.367802 3.117479 -4.242641 4.242641 
C -3.117479 5.367802 -1.591219 6 0 6 
z
" id="me1ef812ab7" style="stroke:#000080;stroke-width:1.5;"/>
    </defs>
    <g>
     <use style="fill-opacity:0;stroke:#000080;stroke-width:1.5;" x="107.009204" xlink:href="#me1ef812ab7" y="284.448391"/>
     <use style="fill-opacity:0;stroke:#000080;stroke-width:1.5;" x="143.079756" xlink:href="#me1ef812ab7" y="111.500785"/>
     <use style="fill-opacity:0;stroke:#000080;stroke-width:1.5;" x="152.474064" xlink:href="#me1ef812ab7" y="44.521076"/>
     <use style="fill-opacity:0;stroke:#000080;stroke-width:1.5;" x="152.474064" xlink:href="#me1ef812ab7" y="44.021228"/>
     <use style="fill-opacity:0;stroke:#000080;stroke-width:1.5;" x="152.474064" xlink:href="#me1ef812ab7" y="44.021228"/>
     <use style="fill-opacity:0;stroke:#000080;stroke-width:1.5;" x="338.688" xlink:href="#me1ef812ab7" y="44.021228"/>
    </g>
   </g>
   <g id="line2d_45">
    <path style="fill:none;stroke:#000080;stroke-linecap:square;stroke-width:1.5;"/>
    <g/>
   </g>
   <g id="line2d_46">
    <defs>
     <path d="M 0 1.5 
C 0.397805 1.5 0.77937 1.341951 1.06066 1.06066 
C 1.341951 0.77937 1.5 0.397805 1.5 0 
C 1.5 -0.397805 1.341951 -0.77937 1.06066 -1.06066 
C 0.77937 -1.341951 0.397805 -1.5 0 -1.5 
C -0.397805 -1.5 -0.77937 -1.341951 -1.06066 -1.06066 
C -1.341951 -0.77937 -1.5 -0.397805 -1.5 0 
C -1.5 0.397805 -1.341951 0.77937 -1.06066 1.06066 
C -0.77937 1.341951 -0.397805 1.5 0 1.5 
z
" id="m6e85f7d21c" style="stroke:#ff00ff;"/>
    </defs>
    <g>
     <use style="fill:#ff00ff;stroke:#ff00ff;" x="167.141909" xlink:href="#m6e85f7d21c" y="44.021228"/>
     <use style="fill:#ff00ff;stroke:#ff00ff;" x="167.141909" xlink:href="#m6e85f7d21c" y="44.021228"/>
    </g>
   </g>
   <g id="line2d_47">
    <path d="M 45.512012 298.944 
L 45.512012 297.444454 
L 64.67102 297.444454 
L 64.67102 296.444757 
L 69.687988 296.444757 
L 69.687988 295.44506 
L 85.66744 295.44506 
L 85.66744 294.945211 
L 88.846997 294.945211 
L 88.846997 292.945817 
L 90.242884 292.945817 
L 90.242884 291.446271 
L 93.863965 291.446271 
L 93.863965 290.446574 
L 94.921215 290.446574 
L 94.921215 287.947331 
L 100.934985 287.947331 
L 100.934985 287.447483 
L 102.330873 287.447483 
L 102.330873 286.947634 
L 103.623262 286.947634 
L 103.623262 286.447786 
L 104.23523 286.447786 
L 104.23523 285.448089 
L 107.514726 285.448089 
L 107.514726 283.448694 
L 108.948899 283.448694 
L 108.948899 282.448997 
L 109.401893 282.448997 
L 109.401893 281.949149 
L 110.694282 281.949149 
L 110.694282 280.449603 
L 111.104637 280.449603 
L 111.104637 277.450511 
L 111.897469 277.450511 
L 111.897469 276.950663 
L 112.280765 276.950663 
L 112.280765 276.450814 
L 112.655818 276.450814 
L 112.655818 274.45142 
L 114.080224 274.45142 
L 114.080224 273.951571 
L 114.418861 273.951571 
L 114.418861 271.952177 
L 114.751048 271.952177 
L 114.751048 271.452328 
L 116.019919 271.452328 
L 116.019919 270.452631 
L 116.914437 270.452631 
L 116.914437 269.952783 
L 117.486268 269.952783 
L 117.486268 268.953086 
L 118.310324 268.953086 
L 118.310324 266.953691 
L 118.576578 266.953691 
L 118.576578 266.453843 
L 119.097192 266.453843 
L 119.097192 265.454146 
L 119.351785 265.454146 
L 119.351785 264.454448 
L 119.602714 264.454448 
L 119.602714 263.9546 
L 120.8059 263.9546 
L 120.8059 262.954903 
L 121.264855 262.954903 
L 121.264855 260.955508 
L 121.489881 260.955508 
L 121.489881 260.45566 
L 121.931406 260.45566 
L 121.931406 257.956417 
L 122.573415 257.956417 
L 122.573415 257.456568 
L 122.782271 257.456568 
L 122.782271 256.95672 
L 123.192626 256.95672 
L 123.192626 254.957326 
L 123.394238 254.957326 
L 123.394238 254.457477 
L 123.593547 254.457477 
L 123.593547 253.957628 
L 123.790603 253.957628 
L 123.790603 253.45778 
L 124.368753 253.45778 
L 124.368753 251.958234 
L 124.557288 251.958234 
L 124.557288 250.958537 
L 124.743806 250.958537 
L 124.743806 248.959143 
L 124.92835 248.959143 
L 124.92835 247.459597 
L 125.110962 247.459597 
L 125.110962 246.959748 
L 125.470548 246.959748 
L 125.470548 245.960051 
L 125.996395 245.960051 
L 125.996395 244.960354 
L 126.50685 244.960354 
L 126.50685 244.460506 
L 126.673734 244.460506 
L 126.673734 242.96096 
L 127.325746 242.96096 
L 127.325746 241.961263 
L 127.48501 241.961263 
L 127.48501 240.961566 
L 127.642832 240.961566 
L 127.642832 240.461717 
L 127.799239 240.461717 
L 127.799239 239.961868 
L 127.954256 239.961868 
L 127.954256 236.962777 
L 128.107907 236.962777 
L 128.107907 234.463534 
L 128.411207 234.463534 
L 128.411207 233.463837 
L 128.560901 233.463837 
L 128.560901 231.464443 
L 129.147151 231.464443 
L 129.147151 229.964897 
L 129.290685 229.964897 
L 129.290685 229.465048 
L 130.127931 229.465048 
L 130.127931 227.965503 
L 130.263646 227.965503 
L 130.263646 226.965805 
L 130.398313 226.965805 
L 130.398313 225.966108 
L 130.664567 225.966108 
L 130.664567 225.46626 
L 130.926816 225.46626 
L 130.926816 219.967925 
L 131.056477 219.967925 
L 131.056477 218.46838 
L 131.312942 218.46838 
L 131.312942 215.969137 
L 131.565689 215.969137 
L 131.565689 214.96944 
L 131.690703 214.96944 
L 131.690703 214.469591 
L 131.814826 214.469591 
L 131.814826 213.969743 
L 131.938072 213.969743 
L 131.938072 212.970045 
L 132.422528 212.970045 
L 132.422528 207.97156 
L 132.659801 207.97156 
L 132.659801 207.471711 
L 132.777237 207.471711 
L 132.777237 204.47262 
L 133.124876 204.47262 
L 133.124876 203.972771 
L 133.239232 203.972771 
L 133.239232 203.472923 
L 133.57787 203.472923 
L 133.57787 201.973377 
L 133.800029 201.973377 
L 133.800029 199.973983 
L 134.019394 199.973983 
L 134.019394 199.474134 
L 134.343353 199.474134 
L 134.450015 196.974891 
L 134.55603 196.974891 
L 134.661403 194.975497 
L 134.973757 194.975497 
L 135.076644 192.476254 
L 135.280614 192.476254 
L 135.381712 189.477162 
L 135.582166 189.477162 
L 135.681535 187.977617 
L 135.780341 187.977617 
L 135.878591 186.97792 
L 135.97629 186.97792 
L 135.97629 184.978525 
L 136.170062 184.978525 
L 136.266147 180.479888 
L 136.456742 180.479888 
L 136.456742 179.98004 
L 136.645276 179.98004 
L 136.645276 179.480191 
L 137.016339 179.480191 
L 137.107884 174.981554 
L 137.289545 174.981554 
L 137.37967 172.482311 
L 137.558536 172.482311 
L 137.558536 171.982462 
L 137.735587 171.982462 
L 137.735587 171.482614 
L 137.910857 171.482614 
L 137.910857 170.482917 
L 138.084384 170.482917 
L 138.084384 169.983068 
L 138.341479 169.983068 
L 138.426341 167.483825 
L 138.594838 167.483825 
L 138.594838 165.484431 
L 138.84457 165.484431 
L 138.927025 162.48534 
L 139.009092 162.48534 
L 139.090775 159.486248 
L 139.172077 159.486248 
L 139.253002 156.487157 
L 139.413734 156.487157 
L 139.493548 153.488065 
L 139.652088 153.488065 
L 139.652088 152.988217 
L 139.887228 152.988217 
L 139.964909 148.489579 
L 140.348205 148.489579 
L 140.423864 141.991548 
L 140.79731 141.991548 
L 140.871049 135.993365 
L 141.017599 135.993365 
L 141.017599 133.494122 
L 141.235139 133.494122 
L 141.307054 129.495334 
L 141.378673 129.495334 
L 141.378673 127.995788 
L 141.662245 127.995788 
L 141.732423 125.996394 
L 142.07914 125.996394 
L 142.147664 122.997302 
L 142.283909 122.997302 
L 142.351634 121.997605 
L 142.419098 121.997605 
L 142.486301 117.498968 
L 142.553247 117.498968 
L 142.553247 115.999422 
L 142.686372 115.999422 
L 142.752555 114.999725 
L 142.818488 114.999725 
L 142.818488 113.500179 
L 142.949611 113.500179 
L 143.014805 110.001239 
L 143.079756 110.001239 
L 143.079756 109.501391 
L 143.273169 109.501391 
L 143.337167 107.501997 
L 143.40093 107.501997 
L 143.464461 104.502905 
L 143.653678 104.502905 
L 143.716296 100.004268 
L 143.840863 100.004268 
L 143.840863 99.504419 
L 144.087359 99.504419 
L 144.087359 99.004571 
L 144.209312 99.004571 
L 144.269971 95.005782 
L 144.390658 95.005782 
L 144.390658 92.006691 
L 144.629556 92.006691 
L 144.629556 91.506842 
L 144.747789 91.506842 
L 144.806606 85.008811 
L 145.039911 85.008811 
L 145.097753 80.510174 
L 145.212864 80.510174 
L 145.270136 79.510476 
L 145.327221 79.510476 
L 145.384119 78.010931 
L 145.497361 78.010931 
L 145.497361 76.011536 
L 145.609873 76.011536 
L 145.609873 75.511688 
L 145.777292 75.511688 
L 145.888018 72.512596 
L 145.943118 72.512596 
L 145.943118 72.012748 
L 146.161795 72.012748 
L 146.270114 68.513808 
L 146.431341 68.513808 
L 146.431341 68.013959 
L 147.164632 68.013959 
L 147.164632 66.014565 
L 147.368603 66.014565 
L 147.368603 63.515322 
L 147.670154 63.515322 
L 147.769524 61.515928 
L 147.96658 61.515928 
L 147.96658 61.016079 
L 148.258051 61.016079 
L 148.258051 60.516231 
L 148.592055 60.516231 
L 148.592055 58.516836 
L 148.733265 58.516836 
L 148.733265 57.517139 
L 148.919783 57.517139 
L 148.919783 55.517745 
L 149.104327 55.517745 
L 149.104327 54.018199 
L 149.241465 54.018199 
L 149.241465 53.518351 
L 149.467659 53.518351 
L 149.512548 52.018805 
L 149.646525 52.018805 
L 149.646525 51.019108 
L 150.172372 51.019108 
L 150.258492 49.019713 
L 150.724698 49.019713 
L 150.724698 48.020016 
L 150.973835 48.020016 
L 150.973835 47.020319 
L 152.736878 47.020319 
L 152.736878 45.020925 
L 166.510705 45.020925 
L 166.510705 44.521076 
L 167.141909 44.521076 
L 167.141909 44.021228 
L 338.688 44.021228 
L 338.688 44.021228 
" style="fill:none;stroke:#ff00ff;stroke-linecap:square;stroke-width:1.5;"/>
   </g>
   <g id="line2d_48">
    <defs>
     <path d="M -0 8.485281 
L 5.091169 0 
L 0 -8.485281 
L -5.091169 -0 
z
" id="m1cdf521b76" style="stroke:#ff00ff;stroke-linejoin:miter;stroke-width:1.5;"/>
    </defs>
    <g>
     <use style="fill-opacity:0;stroke:#ff00ff;stroke-linejoin:miter;stroke-width:1.5;" x="131.938072" xlink:href="#m1cdf521b76" y="212.970045"/>
     <use style="fill-opacity:0;stroke:#ff00ff;stroke-linejoin:miter;stroke-width:1.5;" x="146.270114" xlink:href="#m1cdf521b76" y="70.513202"/>
     <use style="fill-opacity:0;stroke:#ff00ff;stroke-linejoin:miter;stroke-width:1.5;" x="167.141909" xlink:href="#m1cdf521b76" y="44.521076"/>
     <use style="fill-opacity:0;stroke:#ff00ff;stroke-linejoin:miter;stroke-width:1.5;" x="167.141909" xlink:href="#m1cdf521b76" y="44.021228"/>
     <use style="fill-opacity:0;stroke:#ff00ff;stroke-linejoin:miter;stroke-width:1.5;" x="167.141909" xlink:href="#m1cdf521b76" y="44.021228"/>
     <use style="fill-opacity:0;stroke:#ff00ff;stroke-linejoin:miter;stroke-width:1.5;" x="338.688" xlink:href="#m1cdf521b76" y="44.021228"/>
    </g>
   </g>
   <g id="line2d_49">
    <path style="fill:none;stroke:#ff00ff;stroke-linecap:square;stroke-width:1.5;"/>
    <g/>
   </g>
   <g id="line2d_50">
    <defs>
     <path d="M 0 1.5 
C 0.397805 1.5 0.77937 1.341951 1.06066 1.06066 
C 1.341951 0.77937 1.5 0.397805 1.5 0 
C 1.5 -0.397805 1.341951 -0.77937 1.06066 -1.06066 
C 0.77937 -1.341951 0.397805 -1.5 0 -1.5 
C -0.397805 -1.5 -0.77937 -1.341951 -1.06066 -1.06066 
C -1.341951 -0.77937 -1.5 -0.397805 -1.5 0 
C -1.5 0.397805 -1.341951 0.77937 -1.06066 1.06066 
C -0.77937 1.341951 -0.397805 1.5 0 1.5 
z
" id="mdf6872ba7e" style="stroke:#ffa500;"/>
    </defs>
    <g>
     <use style="fill:#ffa500;stroke:#ffa500;" x="154.54072" xlink:href="#mdf6872ba7e" y="44.021228"/>
     <use style="fill:#ffa500;stroke:#ffa500;" x="154.54072" xlink:href="#mdf6872ba7e" y="44.021228"/>
    </g>
   </g>
   <g id="line2d_51">
    <path d="M 64.67102 298.944 
L 64.67102 298.444151 
L 79.447285 298.444151 
L 79.447285 297.944303 
L 81.775977 297.944303 
L 81.775977 293.945514 
L 92.73846 293.945514 
L 92.73846 292.445969 
L 94.921215 292.445969 
L 94.921215 291.94612 
L 96.86091 291.94612 
L 96.86091 290.946423 
L 97.755429 290.946423 
L 97.755429 289.446877 
L 99.41757 289.446877 
L 99.41757 288.947029 
L 102.330873 288.947029 
L 102.330873 285.448089 
L 106.48859 285.448089 
L 106.48859 284.448391 
L 107.009204 284.448391 
L 107.009204 283.448694 
L 108.006005 283.448694 
L 108.006005 282.948846 
L 110.274038 282.948846 
L 110.274038 281.4493 
L 111.505558 281.4493 
L 111.505558 280.949451 
L 112.655818 280.949451 
L 112.655818 279.449906 
L 115.397021 279.449906 
L 115.397021 278.450209 
L 116.019919 278.450209 
L 116.019919 277.95036 
L 116.621333 277.95036 
L 116.621333 276.450814 
L 117.202696 276.450814 
L 117.202696 274.951268 
L 118.039942 274.951268 
L 118.039942 274.45142 
L 119.097192 274.45142 
L 119.097192 272.452026 
L 119.351785 272.452026 
L 119.351785 271.952177 
L 119.850084 271.952177 
L 119.850084 271.452328 
L 121.264855 271.452328 
L 121.264855 270.95248 
L 121.931406 270.95248 
L 121.931406 269.452934 
L 122.362027 269.452934 
L 122.362027 268.453237 
L 122.573415 268.453237 
L 122.573415 267.45354 
L 123.192626 267.45354 
L 123.192626 262.455054 
L 123.394238 262.455054 
L 123.394238 259.455963 
L 123.593547 259.455963 
L 123.593547 258.956114 
L 124.557288 258.956114 
L 124.557288 256.95672 
L 125.470548 256.95672 
L 125.470548 254.457477 
L 126.50685 254.457477 
L 126.50685 253.957628 
L 126.673734 253.957628 
L 126.673734 252.458083 
L 126.839037 252.458083 
L 126.839037 251.958234 
L 127.002787 251.958234 
L 127.002787 247.959446 
L 127.165014 247.959446 
L 127.165014 246.959748 
L 127.48501 246.959748 
L 127.48501 243.960657 
L 127.642832 243.960657 
L 127.642832 242.461111 
L 127.799239 242.461111 
L 127.799239 241.961263 
L 128.260216 241.961263 
L 128.260216 241.461414 
L 128.411207 241.461414 
L 128.411207 237.962474 
L 128.560901 237.962474 
L 128.560901 236.962777 
L 129.290685 236.962777 
L 129.290685 235.96308 
L 129.574256 235.96308 
L 129.574256 232.46414 
L 129.853291 232.46414 
L 129.853291 231.464443 
L 130.127931 231.464443 
L 130.127931 229.964897 
L 130.796184 229.964897 
L 130.796184 228.465351 
L 130.926816 228.465351 
L 130.926816 226.965805 
L 131.185181 226.965805 
L 131.185181 226.465957 
L 131.312942 226.465957 
L 131.312942 224.966411 
L 131.690703 224.966411 
L 131.690703 220.967623 
L 131.814826 220.967623 
L 131.814826 220.467774 
L 132.422528 220.467774 
L 132.422528 219.967925 
L 132.541568 219.967925 
L 132.541568 219.468077 
L 132.777237 219.468077 
L 132.777237 218.46838 
L 133.239232 218.46838 
L 133.239232 217.968531 
L 133.352844 217.968531 
L 133.352844 216.968834 
L 133.46572 216.968834 
L 133.46572 216.468985 
L 133.800029 216.468985 
L 133.910056 211.970348 
L 134.019394 211.970348 
L 134.12805 210.470803 
L 134.343353 210.470803 
L 134.450015 204.972468 
L 134.55603 204.972468 
L 134.661403 203.972771 
L 134.766144 203.972771 
L 134.766144 203.472923 
L 134.973757 203.472923 
L 135.076644 198.974285 
L 135.482227 198.974285 
L 135.482227 196.475043 
L 135.681535 196.475043 
L 135.780341 187.477768 
L 136.073445 187.477768 
L 136.073445 185.978222 
L 136.266147 185.978222 
L 136.266147 182.979131 
L 136.551264 182.979131 
L 136.645276 180.979737 
L 136.738785 180.979737 
L 136.831795 177.480797 
L 136.924311 177.480797 
L 137.016339 173.482008 
L 137.107884 173.482008 
L 137.107884 172.482311 
L 137.469333 172.482311 
L 137.469333 171.982462 
L 137.910857 171.982462 
L 137.997836 168.983371 
L 138.170504 168.983371 
L 138.170504 165.98428 
L 138.426341 165.98428 
L 138.510793 163.984885 
L 138.594838 163.984885 
L 138.594838 163.485037 
L 138.927025 163.485037 
L 139.009092 160.985794 
L 139.090775 160.985794 
L 139.090775 160.485945 
L 139.413734 160.485945 
L 139.413734 156.487157 
L 139.572998 156.487157 
L 139.652088 150.988822 
L 139.730821 150.988822 
L 139.730821 149.489277 
L 140.042245 149.489277 
L 140.042245 148.489579 
L 140.348205 148.489579 
L 140.423864 146.990034 
L 140.499195 146.990034 
L 140.574203 141.491699 
L 140.79731 141.491699 
L 140.79731 137.492911 
L 141.090414 137.492911 
L 141.162927 130.495031 
L 141.235139 130.495031 
L 141.235139 127.995788 
L 141.45 127.995788 
L 141.521035 123.497151 
L 141.662245 123.497151 
L 141.662245 122.997302 
L 141.941279 122.997302 
L 142.010346 120.997908 
L 142.07914 120.997908 
L 142.147664 117.998817 
L 142.215919 117.998817 
L 142.215919 116.499271 
L 142.419098 116.499271 
L 142.486301 113.500179 
L 142.553247 113.500179 
L 142.553247 111.500785 
L 142.686372 111.500785 
L 142.752555 109.001542 
L 142.949611 109.001542 
L 143.014805 107.501997 
L 143.208936 107.501997 
L 143.208936 106.502299 
L 143.337167 106.502299 
L 143.40093 105.002754 
L 143.527762 105.002754 
L 143.527762 103.503208 
L 143.653678 103.503208 
L 143.653678 101.003965 
L 144.026061 101.003965 
L 144.087359 98.504722 
L 144.330419 98.504722 
L 144.390658 92.006691 
L 144.45069 92.006691 
L 144.510517 89.007599 
L 144.747789 89.007599 
L 144.806606 86.008508 
L 144.865226 86.008508 
L 144.923649 84.009114 
L 145.155404 84.009114 
L 145.212864 81.509871 
L 145.440832 81.509871 
L 145.497361 78.510779 
L 145.553708 78.510779 
L 145.553708 77.511082 
L 145.665858 77.511082 
L 145.721664 76.511385 
L 145.832743 76.511385 
L 145.832743 75.011839 
L 145.998045 75.011839 
L 146.107383 72.012748 
L 146.161795 72.012748 
L 146.161795 71.013051 
L 146.591092 71.013051 
L 146.696785 68.013959 
L 146.906268 68.013959 
L 146.958248 67.014262 
L 147.266916 67.014262 
L 147.368603 65.514716 
L 147.419225 65.514716 
L 147.419225 64.515019 
L 147.71991 64.515019 
L 147.71991 64.015171 
L 148.112924 64.015171 
L 148.112924 63.015474 
L 148.306159 63.015474 
L 148.306159 61.016079 
L 148.54473 61.016079 
L 148.54473 60.016382 
L 148.826773 60.016382 
L 148.919783 58.016988 
L 149.104327 58.016988 
L 149.104327 56.517442 
L 149.241465 56.517442 
L 149.332295 54.018199 
L 149.377533 54.018199 
L 149.377533 53.518351 
L 149.823575 53.518351 
L 149.823575 53.018502 
L 150.258492 53.018502 
L 150.258492 52.518653 
L 150.682827 52.518653 
L 150.682827 51.518956 
L 150.932558 51.518956 
L 150.932558 51.019108 
L 151.219462 51.019108 
L 151.219462 50.519259 
L 151.897188 50.519259 
L 151.897188 50.019411 
L 152.360205 50.019411 
L 152.360205 48.519865 
L 152.811246 48.519865 
L 152.811246 48.020016 
L 153.214697 48.020016 
L 153.214697 47.520168 
L 153.679772 47.520168 
L 153.679772 46.520471 
L 153.890309 46.520471 
L 153.890309 45.520773 
L 154.167129 45.520773 
L 154.167129 45.020925 
L 154.507086 45.020925 
L 154.54072 44.021228 
L 338.688 44.021228 
L 338.688 44.021228 
" style="fill:none;stroke:#ffa500;stroke-linecap:square;stroke-width:1.5;"/>
   </g>
   <g id="line2d_52">
    <defs>
     <path d="M 0 -6 
L -1.347084 -1.854102 
L -5.706339 -1.854102 
L -2.179628 0.708204 
L -3.526712 4.854102 
L -0 2.291796 
L 3.526712 4.854102 
L 2.179628 0.708204 
L 5.706339 -1.854102 
L 1.347084 -1.854102 
z
" id="m11fa0dd01c" style="stroke:#ffa500;stroke-linejoin:bevel;stroke-width:1.5;"/>
    </defs>
    <g>
     <use style="fill-opacity:0;stroke:#ffa500;stroke-linejoin:bevel;stroke-width:1.5;" x="123.192626" xlink:href="#m11fa0dd01c" y="267.45354"/>
     <use style="fill-opacity:0;stroke:#ffa500;stroke-linejoin:bevel;stroke-width:1.5;" x="144.510517" xlink:href="#m11fa0dd01c" y="89.007599"/>
     <use style="fill-opacity:0;stroke:#ffa500;stroke-linejoin:bevel;stroke-width:1.5;" x="154.54072" xlink:href="#m11fa0dd01c" y="44.521076"/>
     <use style="fill-opacity:0;stroke:#ffa500;stroke-linejoin:bevel;stroke-width:1.5;" x="154.54072" xlink:href="#m11fa0dd01c" y="44.021228"/>
     <use style="fill-opacity:0;stroke:#ffa500;stroke-linejoin:bevel;stroke-width:1.5;" x="338.688" xlink:href="#m11fa0dd01c" y="44.021228"/>
    </g>
   </g>
   <g id="line2d_53">
    <path style="fill:none;stroke:#ffa500;stroke-linecap:square;stroke-width:1.5;"/>
    <g/>
   </g>
   <g id="line2d_54">
    <path d="M 338.688 44.021228 
L 369.60768 293.845545 
" style="fill:none;stroke:#ff00ff;stroke-linecap:square;stroke-width:1.5;"/>
    <g>
     <use style="fill-opacity:0;stroke:#ff00ff;stroke-linejoin:miter;stroke-width:1.5;" x="338.688" xlink:href="#m1cdf521b76" y="44.021228"/>
     <use style="fill-opacity:0;stroke:#ff00ff;stroke-linejoin:miter;stroke-width:1.5;" x="369.60768" xlink:href="#m1cdf521b76" y="293.845545"/>
    </g>
   </g>
   <g id="line2d_55">
    <path d="M 338.688 44.021228 
L 369.60768 212.270257 
" style="fill:none;stroke:#ffa500;stroke-linecap:square;stroke-width:1.5;"/>
    <g>
     <use style="fill-opacity:0;stroke:#ffa500;stroke-linejoin:bevel;stroke-width:1.5;" x="338.688" xlink:href="#m11fa0dd01c" y="44.021228"/>
     <use style="fill-opacity:0;stroke:#ffa500;stroke-linejoin:bevel;stroke-width:1.5;" x="369.60768" xlink:href="#m11fa0dd01c" y="212.270257"/>
    </g>
   </g>
   <g id="line2d_56">
    <path d="M 338.688 44.021228 
L 369.60768 130.69497 
" style="fill:none;stroke:#000080;stroke-linecap:square;stroke-width:1.5;"/>
    <g>
     <use style="fill-opacity:0;stroke:#000080;stroke-width:1.5;" x="338.688" xlink:href="#me1ef812ab7" y="44.021228"/>
     <use style="fill-opacity:0;stroke:#000080;stroke-width:1.5;" x="369.60768" xlink:href="#me1ef812ab7" y="130.69497"/>
    </g>
   </g>
   <g id="line2d_57">
    <path d="M 338.688 298.944 
L 338.688 44.021228 
" style="fill:none;stroke:#000000;stroke-linecap:square;stroke-width:1.5;"/>
   </g>
   <g id="patch_3">
    <path d="M 57.6 298.944 
L 57.6 41.472 
" style="fill:none;stroke:#000000;stroke-linecap:square;stroke-linejoin:miter;stroke-width:0.8;"/>
   </g>
   <g id="patch_4">
    <path d="M 338.688 298.944 
L 338.688 41.472 
" style="fill:none;stroke:#000000;stroke-linecap:square;stroke-linejoin:miter;stroke-width:0.8;"/>
   </g>
   <g id="patch_5">
    <path d="M 57.6 298.944 
L 338.688 298.944 
" style="fill:none;stroke:#000000;stroke-linecap:square;stroke-linejoin:miter;stroke-width:0.8;"/>
   </g>
   <g id="patch_6">
    <path d="M 57.6 41.472 
L 338.688 41.472 
" style="fill:none;stroke:#000000;stroke-linecap:square;stroke-linejoin:miter;stroke-width:0.8;"/>
   </g>
   <g id="text_13">
    <!-- IPOPsaACM -->
    <defs>
     <path d="M 9.8125 72.90625 
L 19.671875 72.90625 
L 19.671875 0 
L 9.8125 0 
z
" id="DejaVuSans-73"/>
     <path d="M 19.671875 64.796875 
L 19.671875 37.40625 
L 32.078125 37.40625 
Q 38.96875 37.40625 42.71875 40.96875 
Q 46.484375 44.53125 46.484375 51.125 
Q 46.484375 57.671875 42.71875 61.234375 
Q 38.96875 64.796875 32.078125 64.796875 
z
M 9.8125 72.90625 
L 32.078125 72.90625 
Q 44.34375 72.90625 50.609375 67.359375 
Q 56.890625 61.8125 56.890625 51.125 
Q 56.890625 40.328125 50.609375 34.8125 
Q 44.34375 29.296875 32.078125 29.296875 
L 19.671875 29.296875 
L 19.671875 0 
L 9.8125 0 
z
" id="DejaVuSans-80"/>
     <path d="M 39.40625 66.21875 
Q 28.65625 66.21875 22.328125 58.203125 
Q 16.015625 50.203125 16.015625 36.375 
Q 16.015625 22.609375 22.328125 14.59375 
Q 28.65625 6.59375 39.40625 6.59375 
Q 50.140625 6.59375 56.421875 14.59375 
Q 62.703125 22.609375 62.703125 36.375 
Q 62.703125 50.203125 56.421875 58.203125 
Q 50.140625 66.21875 39.40625 66.21875 
z
M 39.40625 74.21875 
Q 54.734375 74.21875 63.90625 63.9375 
Q 73.09375 53.65625 73.09375 36.375 
Q 73.09375 19.140625 63.90625 8.859375 
Q 54.734375 -1.421875 39.40625 -1.421875 
Q 24.03125 -1.421875 14.8125 8.828125 
Q 5.609375 19.09375 5.609375 36.375 
Q 5.609375 53.65625 14.8125 63.9375 
Q 24.03125 74.21875 39.40625 74.21875 
z
" id="DejaVuSans-79"/>
     <path d="M 34.1875 63.1875 
L 20.796875 26.90625 
L 47.609375 26.90625 
z
M 28.609375 72.90625 
L 39.796875 72.90625 
L 67.578125 0 
L 57.328125 0 
L 50.6875 18.703125 
L 17.828125 18.703125 
L 11.1875 0 
L 0.78125 0 
z
" id="DejaVuSans-65"/>
     <path d="M 64.40625 67.28125 
L 64.40625 56.890625 
Q 59.421875 61.53125 53.78125 63.8125 
Q 48.140625 66.109375 41.796875 66.109375 
Q 29.296875 66.109375 22.65625 58.46875 
Q 16.015625 50.828125 16.015625 36.375 
Q 16.015625 21.96875 22.65625 14.328125 
Q 29.296875 6.6875 41.796875 6.6875 
Q 48.140625 6.6875 53.78125 8.984375 
Q 59.421875 11.28125 64.40625 15.921875 
L 64.40625 5.609375 
Q 59.234375 2.09375 53.4375 0.328125 
Q 47.65625 -1.421875 41.21875 -1.421875 
Q 24.65625 -1.421875 15.125 8.703125 
Q 5.609375 18.84375 5.609375 36.375 
Q 5.609375 53.953125 15.125 64.078125 
Q 24.65625 74.21875 41.21875 74.21875 
Q 47.75 74.21875 53.53125 72.484375 
Q 59.328125 70.75 64.40625 67.28125 
z
" id="DejaVuSans-67"/>
     <path d="M 9.8125 72.90625 
L 24.515625 72.90625 
L 43.109375 23.296875 
L 61.8125 72.90625 
L 76.515625 72.90625 
L 76.515625 0 
L 66.890625 0 
L 66.890625 64.015625 
L 48.09375 14.015625 
L 38.1875 14.015625 
L 19.390625 64.015625 
L 19.390625 0 
L 9.8125 0 
z
" id="DejaVuSans-77"/>
    </defs>
    <g transform="translate(375.22944 298.536482)scale(0.17 -0.17)">
     <use xlink:href="#DejaVuSans-73"/>
     <use x="29.492188" xlink:href="#DejaVuSans-80"/>
     <use x="89.794922" xlink:href="#DejaVuSans-79"/>
     <use x="168.505859" xlink:href="#DejaVuSans-80"/>
     <use x="228.792969" xlink:href="#DejaVuSans-115"/>
     <use x="280.892578" xlink:href="#DejaVuSans-97"/>
     <use x="342.171875" xlink:href="#DejaVuSans-65"/>
     <use x="410.564453" xlink:href="#DejaVuSans-67"/>
     <use x="480.388672" xlink:href="#DejaVuSans-77"/>
    </g>
   </g>
   <g id="text_14">
    <!-- BIPOP-saA -->
    <defs>
     <path d="M 19.671875 34.8125 
L 19.671875 8.109375 
L 35.5 8.109375 
Q 43.453125 8.109375 47.28125 11.40625 
Q 51.125 14.703125 51.125 21.484375 
Q 51.125 28.328125 47.28125 31.5625 
Q 43.453125 34.8125 35.5 34.8125 
z
M 19.671875 64.796875 
L 19.671875 42.828125 
L 34.28125 42.828125 
Q 41.5 42.828125 45.03125 45.53125 
Q 48.578125 48.25 48.578125 53.8125 
Q 48.578125 59.328125 45.03125 62.0625 
Q 41.5 64.796875 34.28125 64.796875 
z
M 9.8125 72.90625 
L 35.015625 72.90625 
Q 46.296875 72.90625 52.390625 68.21875 
Q 58.5 63.53125 58.5 54.890625 
Q 58.5 48.1875 55.375 44.234375 
Q 52.25 40.28125 46.1875 39.3125 
Q 53.46875 37.75 57.5 32.78125 
Q 61.53125 27.828125 61.53125 20.40625 
Q 61.53125 10.640625 54.890625 5.3125 
Q 48.25 0 35.984375 0 
L 9.8125 0 
z
" id="DejaVuSans-66"/>
    </defs>
    <g transform="translate(375.22944 216.961195)scale(0.17 -0.17)">
     <use xlink:href="#DejaVuSans-66"/>
     <use x="68.603516" xlink:href="#DejaVuSans-73"/>
     <use x="98.095703" xlink:href="#DejaVuSans-80"/>
     <use x="158.398438" xlink:href="#DejaVuSans-79"/>
     <use x="237.109375" xlink:href="#DejaVuSans-80"/>
     <use x="297.380859" xlink:href="#DejaVuSans-45"/>
     <use x="333.464844" xlink:href="#DejaVuSans-115"/>
     <use x="385.564453" xlink:href="#DejaVuSans-97"/>
     <use x="446.84375" xlink:href="#DejaVuSans-65"/>
    </g>
   </g>
   <g id="text_15">
    <!-- BIPOPsaAC -->
    <g transform="translate(375.22944 135.385908)scale(0.17 -0.17)">
     <use xlink:href="#DejaVuSans-66"/>
     <use x="68.603516" xlink:href="#DejaVuSans-73"/>
     <use x="98.095703" xlink:href="#DejaVuSans-80"/>
     <use x="158.398438" xlink:href="#DejaVuSans-79"/>
     <use x="237.109375" xlink:href="#DejaVuSans-80"/>
     <use x="297.396484" xlink:href="#DejaVuSans-115"/>
     <use x="349.496094" xlink:href="#DejaVuSans-97"/>
     <use x="410.775391" xlink:href="#DejaVuSans-65"/>
     <use x="479.167969" xlink:href="#DejaVuSans-67"/>
    </g>
   </g>
   <g id="text_16">
    <!-- best 2009 -->
    <defs>
     <path d="M 48.6875 27.296875 
Q 48.6875 37.203125 44.609375 42.84375 
Q 40.53125 48.484375 33.40625 48.484375 
Q 26.265625 48.484375 22.1875 42.84375 
Q 18.109375 37.203125 18.109375 27.296875 
Q 18.109375 17.390625 22.1875 11.75 
Q 26.265625 6.109375 33.40625 6.109375 
Q 40.53125 6.109375 44.609375 11.75 
Q 48.6875 17.390625 48.6875 27.296875 
z
M 18.109375 46.390625 
Q 20.953125 51.265625 25.265625 53.625 
Q 29.59375 56 35.59375 56 
Q 45.5625 56 51.78125 48.09375 
Q 58.015625 40.1875 58.015625 27.296875 
Q 58.015625 14.40625 51.78125 6.484375 
Q 45.5625 -1.421875 35.59375 -1.421875 
Q 29.59375 -1.421875 25.265625 0.953125 
Q 20.953125 3.328125 18.109375 8.203125 
L 18.109375 0 
L 9.078125 0 
L 9.078125 75.984375 
L 18.109375 75.984375 
z
" id="DejaVuSans-98"/>
     <path d="M 10.984375 1.515625 
L 10.984375 10.5 
Q 14.703125 8.734375 18.5 7.8125 
Q 22.3125 6.890625 25.984375 6.890625 
Q 35.75 6.890625 40.890625 13.453125 
Q 46.046875 20.015625 46.78125 33.40625 
Q 43.953125 29.203125 39.59375 26.953125 
Q 35.25 24.703125 29.984375 24.703125 
Q 19.046875 24.703125 12.671875 31.3125 
Q 6.296875 37.9375 6.296875 49.421875 
Q 6.296875 60.640625 12.9375 67.421875 
Q 19.578125 74.21875 30.609375 74.21875 
Q 43.265625 74.21875 49.921875 64.515625 
Q 56.59375 54.828125 56.59375 36.375 
Q 56.59375 19.140625 48.40625 8.859375 
Q 40.234375 -1.421875 26.421875 -1.421875 
Q 22.703125 -1.421875 18.890625 -0.6875 
Q 15.09375 0.046875 10.984375 1.515625 
z
M 30.609375 32.421875 
Q 37.25 32.421875 41.125 36.953125 
Q 45.015625 41.5 45.015625 49.421875 
Q 45.015625 57.28125 41.125 61.84375 
Q 37.25 66.40625 30.609375 66.40625 
Q 23.96875 66.40625 20.09375 61.84375 
Q 16.21875 57.28125 16.21875 49.421875 
Q 16.21875 41.5 20.09375 36.953125 
Q 23.96875 32.421875 30.609375 32.421875 
z
" id="DejaVuSans-57"/>
    </defs>
    <g transform="translate(375.22944 53.810621)scale(0.17 -0.17)">
     <use xlink:href="#DejaVuSans-98"/>
     <use x="63.476562" xlink:href="#DejaVuSans-101"/>
     <use x="125" xlink:href="#DejaVuSans-115"/>
     <use x="177.099609" xlink:href="#DejaVuSans-116"/>
     <use x="216.308594" xlink:href="#DejaVuSans-32"/>
     <use x="248.095703" xlink:href="#DejaVuSans-50"/>
     <use x="311.71875" xlink:href="#DejaVuSans-48"/>
     <use x="375.341797" xlink:href="#DejaVuSans-48"/>
     <use x="438.964844" xlink:href="#DejaVuSans-57"/>
    </g>
   </g>
   <g id="text_17">
    <!-- bbob f13, 2-D -->
    <defs>
     <path d="M 40.578125 39.3125 
Q 47.65625 37.796875 51.625 33 
Q 55.609375 28.21875 55.609375 21.1875 
Q 55.609375 10.40625 48.1875 4.484375 
Q 40.765625 -1.421875 27.09375 -1.421875 
Q 22.515625 -1.421875 17.65625 -0.515625 
Q 12.796875 0.390625 7.625 2.203125 
L 7.625 11.71875 
Q 11.71875 9.328125 16.59375 8.109375 
Q 21.484375 6.890625 26.8125 6.890625 
Q 36.078125 6.890625 40.9375 10.546875 
Q 45.796875 14.203125 45.796875 21.1875 
Q 45.796875 27.640625 41.28125 31.265625 
Q 36.765625 34.90625 28.71875 34.90625 
L 20.21875 34.90625 
L 20.21875 43.015625 
L 29.109375 43.015625 
Q 36.375 43.015625 40.234375 45.921875 
Q 44.09375 48.828125 44.09375 54.296875 
Q 44.09375 59.90625 40.109375 62.90625 
Q 36.140625 65.921875 28.71875 65.921875 
Q 24.65625 65.921875 20.015625 65.03125 
Q 15.375 64.15625 9.8125 62.3125 
L 9.8125 71.09375 
Q 15.4375 72.65625 20.34375 73.4375 
Q 25.25 74.21875 29.59375 74.21875 
Q 40.828125 74.21875 47.359375 69.109375 
Q 53.90625 64.015625 53.90625 55.328125 
Q 53.90625 49.265625 50.4375 45.09375 
Q 46.96875 40.921875 40.578125 39.3125 
z
" id="DejaVuSans-51"/>
     <path d="M 19.671875 64.796875 
L 19.671875 8.109375 
L 31.59375 8.109375 
Q 46.6875 8.109375 53.6875 14.9375 
Q 60.6875 21.78125 60.6875 36.53125 
Q 60.6875 51.171875 53.6875 57.984375 
Q 46.6875 64.796875 31.59375 64.796875 
z
M 9.8125 72.90625 
L 30.078125 72.90625 
Q 51.265625 72.90625 61.171875 64.09375 
Q 71.09375 55.28125 71.09375 36.53125 
Q 71.09375 17.671875 61.125 8.828125 
Q 51.171875 0 30.078125 0 
L 9.8125 0 
z
" id="DejaVuSans-68"/>
    </defs>
    <g transform="translate(60.41088 51.797126)scale(0.102 -0.102)">
     <use xlink:href="#DejaVuSans-98"/>
     <use x="63.476562" xlink:href="#DejaVuSans-98"/>
     <use x="126.953125" xlink:href="#DejaVuSans-111"/>
     <use x="188.134766" xlink:href="#DejaVuSans-98"/>
     <use x="251.611328" xlink:href="#DejaVuSans-32"/>
     <use x="283.398438" xlink:href="#DejaVuSans-102"/>
     <use x="318.603516" xlink:href="#DejaVuSans-49"/>
     <use x="382.226562" xlink:href="#DejaVuSans-51"/>
     <use x="445.849609" xlink:href="#DejaVuSans-44"/>
     <use x="477.636719" xlink:href="#DejaVuSans-32"/>
     <use x="509.423828" xlink:href="#DejaVuSans-50"/>
     <use x="573.046875" xlink:href="#DejaVuSans-45"/>
     <use x="609.130859" xlink:href="#DejaVuSans-68"/>
    </g>
    <!-- 51 targets: 100..1e-08 -->
    <defs>
     <path d="M 10.796875 72.90625 
L 49.515625 72.90625 
L 49.515625 64.59375 
L 19.828125 64.59375 
L 19.828125 46.734375 
Q 21.96875 47.46875 24.109375 47.828125 
Q 26.265625 48.1875 28.421875 48.1875 
Q 40.625 48.1875 47.75 41.5 
Q 54.890625 34.8125 54.890625 23.390625 
Q 54.890625 11.625 47.5625 5.09375 
Q 40.234375 -1.421875 26.90625 -1.421875 
Q 22.3125 -1.421875 17.546875 -0.640625 
Q 12.796875 0.140625 7.71875 1.703125 
L 7.71875 11.625 
Q 12.109375 9.234375 16.796875 8.0625 
Q 21.484375 6.890625 26.703125 6.890625 
Q 35.15625 6.890625 40.078125 11.328125 
Q 45.015625 15.765625 45.015625 23.390625 
Q 45.015625 31 40.078125 35.4375 
Q 35.15625 39.890625 26.703125 39.890625 
Q 22.75 39.890625 18.8125 39.015625 
Q 14.890625 38.140625 10.796875 36.28125 
z
" id="DejaVuSans-53"/>
     <path d="M 11.71875 12.40625 
L 22.015625 12.40625 
L 22.015625 0 
L 11.71875 0 
z
M 11.71875 51.703125 
L 22.015625 51.703125 
L 22.015625 39.3125 
L 11.71875 39.3125 
z
" id="DejaVuSans-58"/>
    </defs>
    <g transform="translate(60.41088 63.218895)scale(0.102 -0.102)">
     <use xlink:href="#DejaVuSans-53"/>
     <use x="63.623047" xlink:href="#DejaVuSans-49"/>
     <use x="127.246094" xlink:href="#DejaVuSans-32"/>
     <use x="159.033203" xlink:href="#DejaVuSans-116"/>
     <use x="198.242188" xlink:href="#DejaVuSans-97"/>
     <use x="259.521484" xlink:href="#DejaVuSans-114"/>
     <use x="300.619141" xlink:href="#DejaVuSans-103"/>
     <use x="364.095703" xlink:href="#DejaVuSans-101"/>
     <use x="425.619141" xlink:href="#DejaVuSans-116"/>
     <use x="464.828125" xlink:href="#DejaVuSans-115"/>
     <use x="516.927734" xlink:href="#DejaVuSans-58"/>
     <use x="550.619141" xlink:href="#DejaVuSans-32"/>
     <use x="582.40625" xlink:href="#DejaVuSans-49"/>
     <use x="646.029297" xlink:href="#DejaVuSans-48"/>
     <use x="709.652344" xlink:href="#DejaVuSans-48"/>
     <use x="773.275391" xlink:href="#DejaVuSans-46"/>
     <use x="805.0625" xlink:href="#DejaVuSans-46"/>
     <use x="836.849609" xlink:href="#DejaVuSans-49"/>
     <use x="900.472656" xlink:href="#DejaVuSans-101"/>
     <use x="961.996094" xlink:href="#DejaVuSans-45"/>
     <use x="998.080078" xlink:href="#DejaVuSans-48"/>
     <use x="1061.703125" xlink:href="#DejaVuSans-56"/>
    </g>
    <!-- 15 instances -->
    <g transform="translate(60.41088 74.640664)scale(0.102 -0.102)">
     <use xlink:href="#DejaVuSans-49"/>
     <use x="63.623047" xlink:href="#DejaVuSans-53"/>
     <use x="127.246094" xlink:href="#DejaVuSans-32"/>
     <use x="159.033203" xlink:href="#DejaVuSans-105"/>
     <use x="186.816406" xlink:href="#DejaVuSans-110"/>
     <use x="250.195312" xlink:href="#DejaVuSans-115"/>
     <use x="302.294922" xlink:href="#DejaVuSans-116"/>
     <use x="341.503906" xlink:href="#DejaVuSans-97"/>
     <use x="402.783203" xlink:href="#DejaVuSans-110"/>
     <use x="466.162109" xlink:href="#DejaVuSans-99"/>
     <use x="521.142578" xlink:href="#DejaVuSans-101"/>
     <use x="582.666016" xlink:href="#DejaVuSans-115"/>
    </g>
   </g>
   <g id="text_18">
    <!-- v2.3.14 -->
    <g style="fill:#808080;" transform="translate(179.2815 294.289592)scale(0.1 -0.1)">
     <use xlink:href="#DejaVuSans-118"/>
     <use x="59.179688" xlink:href="#DejaVuSans-50"/>
     <use x="122.802734" xlink:href="#DejaVuSans-46"/>
     <use x="154.589844" xlink:href="#DejaVuSans-51"/>
     <use x="218.212891" xlink:href="#DejaVuSans-46"/>
     <use x="250" xlink:href="#DejaVuSans-49"/>
     <use x="313.623047" xlink:href="#DejaVuSans-52"/>
    </g>
   </g>
   <g id="text_19">
    <!-- 13 Sharp ridge -->
    <defs>
     <path d="M 53.515625 70.515625 
L 53.515625 60.890625 
Q 47.90625 63.578125 42.921875 64.890625 
Q 37.9375 66.21875 33.296875 66.21875 
Q 25.25 66.21875 20.875 63.09375 
Q 16.5 59.96875 16.5 54.203125 
Q 16.5 49.359375 19.40625 46.890625 
Q 22.3125 44.4375 30.421875 42.921875 
L 36.375 41.703125 
Q 47.40625 39.59375 52.65625 34.296875 
Q 57.90625 29 57.90625 20.125 
Q 57.90625 9.515625 50.796875 4.046875 
Q 43.703125 -1.421875 29.984375 -1.421875 
Q 24.8125 -1.421875 18.96875 -0.25 
Q 13.140625 0.921875 6.890625 3.21875 
L 6.890625 13.375 
Q 12.890625 10.015625 18.65625 8.296875 
Q 24.421875 6.59375 29.984375 6.59375 
Q 38.421875 6.59375 43.015625 9.90625 
Q 47.609375 13.234375 47.609375 19.390625 
Q 47.609375 24.75 44.3125 27.78125 
Q 41.015625 30.8125 33.5 32.328125 
L 27.484375 33.5 
Q 16.453125 35.6875 11.515625 40.375 
Q 6.59375 45.0625 6.59375 53.421875 
Q 6.59375 63.09375 13.40625 68.65625 
Q 20.21875 74.21875 32.171875 74.21875 
Q 37.3125 74.21875 42.625 73.28125 
Q 47.953125 72.359375 53.515625 70.515625 
z
" id="DejaVuSans-83"/>
     <path d="M 54.890625 33.015625 
L 54.890625 0 
L 45.90625 0 
L 45.90625 32.71875 
Q 45.90625 40.484375 42.875 44.328125 
Q 39.84375 48.1875 33.796875 48.1875 
Q 26.515625 48.1875 22.3125 43.546875 
Q 18.109375 38.921875 18.109375 30.90625 
L 18.109375 0 
L 9.078125 0 
L 9.078125 75.984375 
L 18.109375 75.984375 
L 18.109375 46.1875 
Q 21.34375 51.125 25.703125 53.5625 
Q 30.078125 56 35.796875 56 
Q 45.21875 56 50.046875 50.171875 
Q 54.890625 44.34375 54.890625 33.015625 
z
" id="DejaVuSans-104"/>
    </defs>
    <g transform="translate(124.05025 35.472)scale(0.2 -0.2)">
     <use xlink:href="#DejaVuSans-49"/>
     <use x="63.623047" xlink:href="#DejaVuSans-51"/>
     <use x="127.246094" xlink:href="#DejaVuSans-32"/>
     <use x="159.033203" xlink:href="#DejaVuSans-83"/>
     <use x="222.509766" xlink:href="#DejaVuSans-104"/>
     <use x="285.888672" xlink:href="#DejaVuSans-97"/>
     <use x="347.167969" xlink:href="#DejaVuSans-114"/>
     <use x="388.28125" xlink:href="#DejaVuSans-112"/>
     <use x="451.757812" xlink:href="#DejaVuSans-32"/>
     <use x="483.544922" xlink:href="#DejaVuSans-114"/>
     <use x="524.658203" xlink:href="#DejaVuSans-105"/>
     <use x="552.441406" xlink:href="#DejaVuSans-100"/>
     <use x="615.917969" xlink:href="#DejaVuSans-103"/>
     <use x="679.394531" xlink:href="#DejaVuSans-101"/>
    </g>
   </g>
  </g>
 </g>
 <defs>
  <clipPath id="pe9ce98d582">
   <rect height="257.472" width="281.088" x="57.6" y="41.472"/>
  </clipPath>
 </defs>
</svg>
