<?xml version="1.0" encoding="utf-8" standalone="no"?>
<!DOCTYPE svg PUBLIC "-//W3C//DTD SVG 1.1//EN"
  "http://www.w3.org/Graphics/SVG/1.1/DTD/svg11.dtd">
<!-- Created with matplotlib (https://matplotlib.org/) -->
<svg height="345.6pt" version="1.1" viewBox="0 0 460.8 345.6" width="460.8pt" xmlns="http://www.w3.org/2000/svg" xmlns:xlink="http://www.w3.org/1999/xlink">
 <defs>
  <style type="text/css">
*{stroke-linecap:butt;stroke-linejoin:round;}
  </style>
 </defs>
 <g id="figure_1">
  <g id="patch_1">
   <path d="M 0 345.6 
L 460.8 345.6 
L 460.8 0 
L 0 0 
z
" style="fill:#ffffff;"/>
  </g>
  <g id="axes_1">
   <g id="patch_2">
    <path d="M 57.6 298.944 
L 338.688 298.944 
L 338.688 41.472 
L 57.6 41.472 
z
" style="fill:#ffffff;"/>
   </g>
   <g id="line2d_1">
    <path d="M 50.52898 298.944 
L 50.52898 293.945514 
L 69.687988 293.945514 
L 69.687988 288.947029 
L 81.775977 288.947029 
L 81.775977 283.948543 
L 91.535274 283.948543 
L 91.535274 278.950057 
L 112.026172 278.950057 
L 112.026172 273.951571 
L 122.076131 273.951571 
L 122.076131 268.953086 
L 132.581068 268.953086 
L 132.581068 263.9546 
L 143.014805 263.9546 
L 143.014805 258.956114 
L 150.457801 258.956114 
L 150.457801 253.957628 
L 164.050224 253.957628 
L 164.050224 248.959143 
L 164.42279 248.959143 
L 164.42279 243.960657 
L 190.666936 243.960657 
L 190.666936 238.962171 
L 190.71485 238.962171 
L 190.71485 233.963685 
L 190.78227 233.963685 
L 190.78227 228.9652 
L 190.87176 228.9652 
L 190.87176 223.966714 
L 190.963568 223.966714 
L 190.963568 218.968228 
L 191.016209 218.968228 
L 191.016209 213.969743 
L 191.702424 213.969743 
L 191.702424 208.971257 
L 195.593355 208.971257 
L 195.593355 203.972771 
L 195.693075 203.972771 
L 195.693075 198.974285 
L 195.775391 198.974285 
L 195.775391 193.9758 
L 195.811151 193.9758 
L 195.811151 188.977314 
L 195.880358 188.977314 
L 195.880358 183.978828 
L 195.943037 183.978828 
L 195.943037 178.980342 
L 196.02626 178.980342 
L 196.02626 173.981857 
L 196.082211 173.981857 
L 196.082211 168.983371 
L 196.104955 168.983371 
L 196.104955 163.984885 
L 196.189467 163.984885 
L 196.189467 158.9864 
L 196.265384 158.9864 
L 196.265384 153.987914 
L 196.314451 153.987914 
L 196.314451 148.989428 
L 196.408112 148.989428 
L 196.408112 143.990942 
L 196.509351 143.990942 
L 196.509351 138.992457 
L 196.585901 138.992457 
L 196.585901 133.993971 
L 196.626056 133.993971 
L 196.626056 128.995485 
L 196.704093 128.995485 
L 196.704093 123.996999 
L 196.807602 123.996999 
L 196.807602 118.998514 
L 196.837347 118.998514 
L 196.837347 114.000028 
L 196.896684 114.000028 
L 196.896684 109.001542 
L 196.949916 109.001542 
L 196.949916 104.003056 
L 197.050024 104.003056 
L 197.050024 99.004571 
L 197.061763 99.004571 
L 197.061763 94.006085 
L 197.130088 94.006085 
L 197.130088 89.007599 
L 197.178727 89.007599 
L 197.178727 84.009114 
L 197.227232 84.009114 
L 197.227232 79.010628 
L 197.292982 79.010628 
L 197.292982 74.012142 
L 197.304559 74.012142 
L 197.304559 69.013656 
L 197.393064 69.013656 
L 197.393064 64.015171 
L 197.471572 64.015171 
L 197.471572 59.016685 
L 197.574437 59.016685 
L 197.574437 54.018199 
L 197.614276 54.018199 
L 197.614276 49.019713 
L 197.706883 49.019713 
L 197.706883 44.021228 
L 338.688 44.021228 
" style="fill:none;stroke:#f5deb3;stroke-linecap:square;stroke-width:4;"/>
   </g>
   <g id="line2d_2">
    <defs>
     <path d="M -0 7.778175 
L 7.778175 0 
L 0 -7.778175 
L -7.778175 -0 
z
" id="me6badf40b0" style="stroke:#f5deb3;stroke-linejoin:miter;stroke-width:1.5;"/>
    </defs>
    <g>
     <use style="fill:#f5deb3;stroke:#f5deb3;stroke-linejoin:miter;stroke-width:1.5;" x="164.050224" xlink:href="#me6badf40b0" y="248.959143"/>
     <use style="fill:#f5deb3;stroke:#f5deb3;stroke-linejoin:miter;stroke-width:1.5;" x="196.408112" xlink:href="#me6badf40b0" y="148.989428"/>
     <use style="fill:#f5deb3;stroke:#f5deb3;stroke-linejoin:miter;stroke-width:1.5;" x="197.706883" xlink:href="#me6badf40b0" y="49.019713"/>
     <use style="fill:#f5deb3;stroke:#f5deb3;stroke-linejoin:miter;stroke-width:1.5;" x="197.706883" xlink:href="#me6badf40b0" y="44.021228"/>
     <use style="fill:#f5deb3;stroke:#f5deb3;stroke-linejoin:miter;stroke-width:1.5;" x="197.706883" xlink:href="#me6badf40b0" y="44.021228"/>
     <use style="fill:#f5deb3;stroke:#f5deb3;stroke-linejoin:miter;stroke-width:1.5;" x="338.688" xlink:href="#me6badf40b0" y="44.021228"/>
    </g>
   </g>
   <g id="line2d_3">
    <path style="fill:none;stroke:#f5deb3;stroke-linecap:square;stroke-width:4;"/>
    <g/>
   </g>
   <g id="line2d_4">
    <path d="M 338.688 44.021228 
L 369.60768 49.119683 
" style="fill:none;stroke:#f5deb3;stroke-linecap:square;stroke-width:4;"/>
    <g>
     <use style="fill:#f5deb3;stroke:#f5deb3;stroke-linejoin:miter;stroke-width:1.5;" x="338.688" xlink:href="#me6badf40b0" y="44.021228"/>
     <use style="fill:#f5deb3;stroke:#f5deb3;stroke-linejoin:miter;stroke-width:1.5;" x="369.60768" xlink:href="#me6badf40b0" y="49.119683"/>
    </g>
   </g>
   <g id="matplotlib.axis_1">
    <g id="xtick_1">
     <g id="line2d_5">
      <path clip-path="url(#p2ac64340db)" d="M 57.6 298.944 
L 57.6 41.472 
" style="fill:none;stroke:#b0b0b0;stroke-linecap:square;stroke-width:0.8;"/>
     </g>
     <g id="line2d_6">
      <defs>
       <path d="M 0 0 
L 0 3.5 
" id="m0478b4f3e3" style="stroke:#000000;stroke-width:0.8;"/>
      </defs>
      <g>
       <use style="stroke:#000000;stroke-width:0.8;" x="57.6" xlink:href="#m0478b4f3e3" y="298.944"/>
      </g>
     </g>
     <g id="text_1">
      <!-- 0 -->
      <defs>
       <path d="M 31.78125 66.40625 
Q 24.171875 66.40625 20.328125 58.90625 
Q 16.5 51.421875 16.5 36.375 
Q 16.5 21.390625 20.328125 13.890625 
Q 24.171875 6.390625 31.78125 6.390625 
Q 39.453125 6.390625 43.28125 13.890625 
Q 47.125 21.390625 47.125 36.375 
Q 47.125 51.421875 43.28125 58.90625 
Q 39.453125 66.40625 31.78125 66.40625 
z
M 31.78125 74.21875 
Q 44.046875 74.21875 50.515625 64.515625 
Q 56.984375 54.828125 56.984375 36.375 
Q 56.984375 17.96875 50.515625 8.265625 
Q 44.046875 -1.421875 31.78125 -1.421875 
Q 19.53125 -1.421875 13.0625 8.265625 
Q 6.59375 17.96875 6.59375 36.375 
Q 6.59375 54.828125 13.0625 64.515625 
Q 19.53125 74.21875 31.78125 74.21875 
z
" id="DejaVuSans-48"/>
      </defs>
      <g transform="translate(51.2375 321.140875)scale(0.2 -0.2)">
       <use xlink:href="#DejaVuSans-48"/>
      </g>
     </g>
    </g>
    <g id="xtick_2">
     <g id="line2d_7">
      <path clip-path="url(#p2ac64340db)" d="M 137.910857 298.944 
L 137.910857 41.472 
" style="fill:none;stroke:#b0b0b0;stroke-linecap:square;stroke-width:0.8;"/>
     </g>
     <g id="line2d_8">
      <g>
       <use style="stroke:#000000;stroke-width:0.8;" x="137.910857" xlink:href="#m0478b4f3e3" y="298.944"/>
      </g>
     </g>
     <g id="text_2">
      <!-- 2 -->
      <defs>
       <path d="M 19.1875 8.296875 
L 53.609375 8.296875 
L 53.609375 0 
L 7.328125 0 
L 7.328125 8.296875 
Q 12.9375 14.109375 22.625 23.890625 
Q 32.328125 33.6875 34.8125 36.53125 
Q 39.546875 41.84375 41.421875 45.53125 
Q 43.3125 49.21875 43.3125 52.78125 
Q 43.3125 58.59375 39.234375 62.25 
Q 35.15625 65.921875 28.609375 65.921875 
Q 23.96875 65.921875 18.8125 64.3125 
Q 13.671875 62.703125 7.8125 59.421875 
L 7.8125 69.390625 
Q 13.765625 71.78125 18.9375 73 
Q 24.125 74.21875 28.421875 74.21875 
Q 39.75 74.21875 46.484375 68.546875 
Q 53.21875 62.890625 53.21875 53.421875 
Q 53.21875 48.921875 51.53125 44.890625 
Q 49.859375 40.875 45.40625 35.40625 
Q 44.1875 33.984375 37.640625 27.21875 
Q 31.109375 20.453125 19.1875 8.296875 
z
" id="DejaVuSans-50"/>
      </defs>
      <g transform="translate(131.548357 321.140875)scale(0.2 -0.2)">
       <use xlink:href="#DejaVuSans-50"/>
      </g>
     </g>
    </g>
    <g id="xtick_3">
     <g id="line2d_9">
      <path clip-path="url(#p2ac64340db)" d="M 218.221714 298.944 
L 218.221714 41.472 
" style="fill:none;stroke:#b0b0b0;stroke-linecap:square;stroke-width:0.8;"/>
     </g>
     <g id="line2d_10">
      <g>
       <use style="stroke:#000000;stroke-width:0.8;" x="218.221714" xlink:href="#m0478b4f3e3" y="298.944"/>
      </g>
     </g>
     <g id="text_3">
      <!-- 4 -->
      <defs>
       <path d="M 37.796875 64.3125 
L 12.890625 25.390625 
L 37.796875 25.390625 
z
M 35.203125 72.90625 
L 47.609375 72.90625 
L 47.609375 25.390625 
L 58.015625 25.390625 
L 58.015625 17.1875 
L 47.609375 17.1875 
L 47.609375 0 
L 37.796875 0 
L 37.796875 17.1875 
L 4.890625 17.1875 
L 4.890625 26.703125 
z
" id="DejaVuSans-52"/>
      </defs>
      <g transform="translate(211.859214 321.140875)scale(0.2 -0.2)">
       <use xlink:href="#DejaVuSans-52"/>
      </g>
     </g>
    </g>
    <g id="xtick_4">
     <g id="line2d_11">
      <path clip-path="url(#p2ac64340db)" d="M 298.532571 298.944 
L 298.532571 41.472 
" style="fill:none;stroke:#b0b0b0;stroke-linecap:square;stroke-width:0.8;"/>
     </g>
     <g id="line2d_12">
      <g>
       <use style="stroke:#000000;stroke-width:0.8;" x="298.532571" xlink:href="#m0478b4f3e3" y="298.944"/>
      </g>
     </g>
     <g id="text_4">
      <!-- 6 -->
      <defs>
       <path d="M 33.015625 40.375 
Q 26.375 40.375 22.484375 35.828125 
Q 18.609375 31.296875 18.609375 23.390625 
Q 18.609375 15.53125 22.484375 10.953125 
Q 26.375 6.390625 33.015625 6.390625 
Q 39.65625 6.390625 43.53125 10.953125 
Q 47.40625 15.53125 47.40625 23.390625 
Q 47.40625 31.296875 43.53125 35.828125 
Q 39.65625 40.375 33.015625 40.375 
z
M 52.59375 71.296875 
L 52.59375 62.3125 
Q 48.875 64.0625 45.09375 64.984375 
Q 41.3125 65.921875 37.59375 65.921875 
Q 27.828125 65.921875 22.671875 59.328125 
Q 17.53125 52.734375 16.796875 39.40625 
Q 19.671875 43.65625 24.015625 45.921875 
Q 28.375 48.1875 33.59375 48.1875 
Q 44.578125 48.1875 50.953125 41.515625 
Q 57.328125 34.859375 57.328125 23.390625 
Q 57.328125 12.15625 50.6875 5.359375 
Q 44.046875 -1.421875 33.015625 -1.421875 
Q 20.359375 -1.421875 13.671875 8.265625 
Q 6.984375 17.96875 6.984375 36.375 
Q 6.984375 53.65625 15.1875 63.9375 
Q 23.390625 74.21875 37.203125 74.21875 
Q 40.921875 74.21875 44.703125 73.484375 
Q 48.484375 72.75 52.59375 71.296875 
z
" id="DejaVuSans-54"/>
      </defs>
      <g transform="translate(292.170071 321.140875)scale(0.2 -0.2)">
       <use xlink:href="#DejaVuSans-54"/>
      </g>
     </g>
    </g>
    <g id="xtick_5">
     <g id="line2d_13">
      <path clip-path="url(#p2ac64340db)" d="M 57.6 298.944 
L 57.6 41.472 
" style="fill:none;stroke:#b0b0b0;stroke-linecap:square;stroke-width:0.8;"/>
     </g>
     <g id="line2d_14">
      <defs>
       <path d="M 0 0 
L 0 2 
" id="mb71fdf7ccb" style="stroke:#000000;stroke-width:0.6;"/>
      </defs>
      <g>
       <use style="stroke:#000000;stroke-width:0.6;" x="57.6" xlink:href="#mb71fdf7ccb" y="298.944"/>
      </g>
     </g>
    </g>
    <g id="xtick_6">
     <g id="line2d_15">
      <path clip-path="url(#p2ac64340db)" d="M 97.755429 298.944 
L 97.755429 41.472 
" style="fill:none;stroke:#b0b0b0;stroke-linecap:square;stroke-width:0.8;"/>
     </g>
     <g id="line2d_16">
      <g>
       <use style="stroke:#000000;stroke-width:0.6;" x="97.755429" xlink:href="#mb71fdf7ccb" y="298.944"/>
      </g>
     </g>
    </g>
    <g id="xtick_7">
     <g id="line2d_17">
      <path clip-path="url(#p2ac64340db)" d="M 137.910857 298.944 
L 137.910857 41.472 
" style="fill:none;stroke:#b0b0b0;stroke-linecap:square;stroke-width:0.8;"/>
     </g>
     <g id="line2d_18">
      <g>
       <use style="stroke:#000000;stroke-width:0.6;" x="137.910857" xlink:href="#mb71fdf7ccb" y="298.944"/>
      </g>
     </g>
    </g>
    <g id="xtick_8">
     <g id="line2d_19">
      <path clip-path="url(#p2ac64340db)" d="M 178.066286 298.944 
L 178.066286 41.472 
" style="fill:none;stroke:#b0b0b0;stroke-linecap:square;stroke-width:0.8;"/>
     </g>
     <g id="line2d_20">
      <g>
       <use style="stroke:#000000;stroke-width:0.6;" x="178.066286" xlink:href="#mb71fdf7ccb" y="298.944"/>
      </g>
     </g>
    </g>
    <g id="xtick_9">
     <g id="line2d_21">
      <path clip-path="url(#p2ac64340db)" d="M 218.221714 298.944 
L 218.221714 41.472 
" style="fill:none;stroke:#b0b0b0;stroke-linecap:square;stroke-width:0.8;"/>
     </g>
     <g id="line2d_22">
      <g>
       <use style="stroke:#000000;stroke-width:0.6;" x="218.221714" xlink:href="#mb71fdf7ccb" y="298.944"/>
      </g>
     </g>
    </g>
    <g id="xtick_10">
     <g id="line2d_23">
      <path clip-path="url(#p2ac64340db)" d="M 258.377143 298.944 
L 258.377143 41.472 
" style="fill:none;stroke:#b0b0b0;stroke-linecap:square;stroke-width:0.8;"/>
     </g>
     <g id="line2d_24">
      <g>
       <use style="stroke:#000000;stroke-width:0.6;" x="258.377143" xlink:href="#mb71fdf7ccb" y="298.944"/>
      </g>
     </g>
    </g>
    <g id="xtick_11">
     <g id="line2d_25">
      <path clip-path="url(#p2ac64340db)" d="M 298.532571 298.944 
L 298.532571 41.472 
" style="fill:none;stroke:#b0b0b0;stroke-linecap:square;stroke-width:0.8;"/>
     </g>
     <g id="line2d_26">
      <g>
       <use style="stroke:#000000;stroke-width:0.6;" x="298.532571" xlink:href="#mb71fdf7ccb" y="298.944"/>
      </g>
     </g>
    </g>
    <g id="xtick_12">
     <g id="line2d_27">
      <path clip-path="url(#p2ac64340db)" d="M 338.688 298.944 
L 338.688 41.472 
" style="fill:none;stroke:#b0b0b0;stroke-linecap:square;stroke-width:0.8;"/>
     </g>
     <g id="line2d_28">
      <g>
       <use style="stroke:#000000;stroke-width:0.6;" x="338.688" xlink:href="#mb71fdf7ccb" y="298.944"/>
      </g>
     </g>
    </g>
    <g id="text_5">
     <!-- log10(# f-evals / dimension) -->
     <defs>
      <path d="M 9.421875 75.984375 
L 18.40625 75.984375 
L 18.40625 0 
L 9.421875 0 
z
" id="DejaVuSans-108"/>
      <path d="M 30.609375 48.390625 
Q 23.390625 48.390625 19.1875 42.75 
Q 14.984375 37.109375 14.984375 27.296875 
Q 14.984375 17.484375 19.15625 11.84375 
Q 23.34375 6.203125 30.609375 6.203125 
Q 37.796875 6.203125 41.984375 11.859375 
Q 46.1875 17.53125 46.1875 27.296875 
Q 46.1875 37.015625 41.984375 42.703125 
Q 37.796875 48.390625 30.609375 48.390625 
z
M 30.609375 56 
Q 42.328125 56 49.015625 48.375 
Q 55.71875 40.765625 55.71875 27.296875 
Q 55.71875 13.875 49.015625 6.21875 
Q 42.328125 -1.421875 30.609375 -1.421875 
Q 18.84375 -1.421875 12.171875 6.21875 
Q 5.515625 13.875 5.515625 27.296875 
Q 5.515625 40.765625 12.171875 48.375 
Q 18.84375 56 30.609375 56 
z
" id="DejaVuSans-111"/>
      <path d="M 45.40625 27.984375 
Q 45.40625 37.75 41.375 43.109375 
Q 37.359375 48.484375 30.078125 48.484375 
Q 22.859375 48.484375 18.828125 43.109375 
Q 14.796875 37.75 14.796875 27.984375 
Q 14.796875 18.265625 18.828125 12.890625 
Q 22.859375 7.515625 30.078125 7.515625 
Q 37.359375 7.515625 41.375 12.890625 
Q 45.40625 18.265625 45.40625 27.984375 
z
M 54.390625 6.78125 
Q 54.390625 -7.171875 48.1875 -13.984375 
Q 42 -20.796875 29.203125 -20.796875 
Q 24.46875 -20.796875 20.265625 -20.09375 
Q 16.0625 -19.390625 12.109375 -17.921875 
L 12.109375 -9.1875 
Q 16.0625 -11.328125 19.921875 -12.34375 
Q 23.78125 -13.375 27.78125 -13.375 
Q 36.625 -13.375 41.015625 -8.765625 
Q 45.40625 -4.15625 45.40625 5.171875 
L 45.40625 9.625 
Q 42.625 4.78125 38.28125 2.390625 
Q 33.9375 0 27.875 0 
Q 17.828125 0 11.671875 7.65625 
Q 5.515625 15.328125 5.515625 27.984375 
Q 5.515625 40.671875 11.671875 48.328125 
Q 17.828125 56 27.875 56 
Q 33.9375 56 38.28125 53.609375 
Q 42.625 51.21875 45.40625 46.390625 
L 45.40625 54.6875 
L 54.390625 54.6875 
z
" id="DejaVuSans-103"/>
      <path d="M 12.40625 8.296875 
L 28.515625 8.296875 
L 28.515625 63.921875 
L 10.984375 60.40625 
L 10.984375 69.390625 
L 28.421875 72.90625 
L 38.28125 72.90625 
L 38.28125 8.296875 
L 54.390625 8.296875 
L 54.390625 0 
L 12.40625 0 
z
" id="DejaVuSans-49"/>
      <path d="M 31 75.875 
Q 24.46875 64.65625 21.28125 53.65625 
Q 18.109375 42.671875 18.109375 31.390625 
Q 18.109375 20.125 21.3125 9.0625 
Q 24.515625 -2 31 -13.1875 
L 23.1875 -13.1875 
Q 15.875 -1.703125 12.234375 9.375 
Q 8.59375 20.453125 8.59375 31.390625 
Q 8.59375 42.28125 12.203125 53.3125 
Q 15.828125 64.359375 23.1875 75.875 
z
" id="DejaVuSans-40"/>
      <path d="M 51.125 44 
L 36.921875 44 
L 32.8125 27.6875 
L 47.125 27.6875 
z
M 43.796875 71.78125 
L 38.71875 51.515625 
L 52.984375 51.515625 
L 58.109375 71.78125 
L 65.921875 71.78125 
L 60.890625 51.515625 
L 76.125 51.515625 
L 76.125 44 
L 58.984375 44 
L 54.984375 27.6875 
L 70.515625 27.6875 
L 70.515625 20.21875 
L 53.078125 20.21875 
L 48 0 
L 40.1875 0 
L 45.21875 20.21875 
L 30.90625 20.21875 
L 25.875 0 
L 18.015625 0 
L 23.09375 20.21875 
L 7.71875 20.21875 
L 7.71875 27.6875 
L 24.90625 27.6875 
L 29 44 
L 13.28125 44 
L 13.28125 51.515625 
L 30.90625 51.515625 
L 35.890625 71.78125 
z
" id="DejaVuSans-35"/>
      <path id="DejaVuSans-32"/>
      <path d="M 37.109375 75.984375 
L 37.109375 68.5 
L 28.515625 68.5 
Q 23.6875 68.5 21.796875 66.546875 
Q 19.921875 64.59375 19.921875 59.515625 
L 19.921875 54.6875 
L 34.71875 54.6875 
L 34.71875 47.703125 
L 19.921875 47.703125 
L 19.921875 0 
L 10.890625 0 
L 10.890625 47.703125 
L 2.296875 47.703125 
L 2.296875 54.6875 
L 10.890625 54.6875 
L 10.890625 58.5 
Q 10.890625 67.625 15.140625 71.796875 
Q 19.390625 75.984375 28.609375 75.984375 
z
" id="DejaVuSans-102"/>
      <path d="M 4.890625 31.390625 
L 31.203125 31.390625 
L 31.203125 23.390625 
L 4.890625 23.390625 
z
" id="DejaVuSans-45"/>
      <path d="M 56.203125 29.59375 
L 56.203125 25.203125 
L 14.890625 25.203125 
Q 15.484375 15.921875 20.484375 11.0625 
Q 25.484375 6.203125 34.421875 6.203125 
Q 39.59375 6.203125 44.453125 7.46875 
Q 49.3125 8.734375 54.109375 11.28125 
L 54.109375 2.78125 
Q 49.265625 0.734375 44.1875 -0.34375 
Q 39.109375 -1.421875 33.890625 -1.421875 
Q 20.796875 -1.421875 13.15625 6.1875 
Q 5.515625 13.8125 5.515625 26.8125 
Q 5.515625 40.234375 12.765625 48.109375 
Q 20.015625 56 32.328125 56 
Q 43.359375 56 49.78125 48.890625 
Q 56.203125 41.796875 56.203125 29.59375 
z
M 47.21875 32.234375 
Q 47.125 39.59375 43.09375 43.984375 
Q 39.0625 48.390625 32.421875 48.390625 
Q 24.90625 48.390625 20.390625 44.140625 
Q 15.875 39.890625 15.1875 32.171875 
z
" id="DejaVuSans-101"/>
      <path d="M 2.984375 54.6875 
L 12.5 54.6875 
L 29.59375 8.796875 
L 46.6875 54.6875 
L 56.203125 54.6875 
L 35.6875 0 
L 23.484375 0 
z
" id="DejaVuSans-118"/>
      <path d="M 34.28125 27.484375 
Q 23.390625 27.484375 19.1875 25 
Q 14.984375 22.515625 14.984375 16.5 
Q 14.984375 11.71875 18.140625 8.90625 
Q 21.296875 6.109375 26.703125 6.109375 
Q 34.1875 6.109375 38.703125 11.40625 
Q 43.21875 16.703125 43.21875 25.484375 
L 43.21875 27.484375 
z
M 52.203125 31.203125 
L 52.203125 0 
L 43.21875 0 
L 43.21875 8.296875 
Q 40.140625 3.328125 35.546875 0.953125 
Q 30.953125 -1.421875 24.3125 -1.421875 
Q 15.921875 -1.421875 10.953125 3.296875 
Q 6 8.015625 6 15.921875 
Q 6 25.140625 12.171875 29.828125 
Q 18.359375 34.515625 30.609375 34.515625 
L 43.21875 34.515625 
L 43.21875 35.40625 
Q 43.21875 41.609375 39.140625 45 
Q 35.0625 48.390625 27.6875 48.390625 
Q 23 48.390625 18.546875 47.265625 
Q 14.109375 46.140625 10.015625 43.890625 
L 10.015625 52.203125 
Q 14.9375 54.109375 19.578125 55.046875 
Q 24.21875 56 28.609375 56 
Q 40.484375 56 46.34375 49.84375 
Q 52.203125 43.703125 52.203125 31.203125 
z
" id="DejaVuSans-97"/>
      <path d="M 44.28125 53.078125 
L 44.28125 44.578125 
Q 40.484375 46.53125 36.375 47.5 
Q 32.28125 48.484375 27.875 48.484375 
Q 21.1875 48.484375 17.84375 46.4375 
Q 14.5 44.390625 14.5 40.28125 
Q 14.5 37.15625 16.890625 35.375 
Q 19.28125 33.59375 26.515625 31.984375 
L 29.59375 31.296875 
Q 39.15625 29.25 43.1875 25.515625 
Q 47.21875 21.78125 47.21875 15.09375 
Q 47.21875 7.46875 41.1875 3.015625 
Q 35.15625 -1.421875 24.609375 -1.421875 
Q 20.21875 -1.421875 15.453125 -0.5625 
Q 10.6875 0.296875 5.421875 2 
L 5.421875 11.28125 
Q 10.40625 8.6875 15.234375 7.390625 
Q 20.0625 6.109375 24.8125 6.109375 
Q 31.15625 6.109375 34.5625 8.28125 
Q 37.984375 10.453125 37.984375 14.40625 
Q 37.984375 18.0625 35.515625 20.015625 
Q 33.0625 21.96875 24.703125 23.78125 
L 21.578125 24.515625 
Q 13.234375 26.265625 9.515625 29.90625 
Q 5.8125 33.546875 5.8125 39.890625 
Q 5.8125 47.609375 11.28125 51.796875 
Q 16.75 56 26.8125 56 
Q 31.78125 56 36.171875 55.265625 
Q 40.578125 54.546875 44.28125 53.078125 
z
" id="DejaVuSans-115"/>
      <path d="M 25.390625 72.90625 
L 33.6875 72.90625 
L 8.296875 -9.28125 
L 0 -9.28125 
z
" id="DejaVuSans-47"/>
      <path d="M 45.40625 46.390625 
L 45.40625 75.984375 
L 54.390625 75.984375 
L 54.390625 0 
L 45.40625 0 
L 45.40625 8.203125 
Q 42.578125 3.328125 38.25 0.953125 
Q 33.9375 -1.421875 27.875 -1.421875 
Q 17.96875 -1.421875 11.734375 6.484375 
Q 5.515625 14.40625 5.515625 27.296875 
Q 5.515625 40.1875 11.734375 48.09375 
Q 17.96875 56 27.875 56 
Q 33.9375 56 38.25 53.625 
Q 42.578125 51.265625 45.40625 46.390625 
z
M 14.796875 27.296875 
Q 14.796875 17.390625 18.875 11.75 
Q 22.953125 6.109375 30.078125 6.109375 
Q 37.203125 6.109375 41.296875 11.75 
Q 45.40625 17.390625 45.40625 27.296875 
Q 45.40625 37.203125 41.296875 42.84375 
Q 37.203125 48.484375 30.078125 48.484375 
Q 22.953125 48.484375 18.875 42.84375 
Q 14.796875 37.203125 14.796875 27.296875 
z
" id="DejaVuSans-100"/>
      <path d="M 9.421875 54.6875 
L 18.40625 54.6875 
L 18.40625 0 
L 9.421875 0 
z
M 9.421875 75.984375 
L 18.40625 75.984375 
L 18.40625 64.59375 
L 9.421875 64.59375 
z
" id="DejaVuSans-105"/>
      <path d="M 52 44.1875 
Q 55.375 50.25 60.0625 53.125 
Q 64.75 56 71.09375 56 
Q 79.640625 56 84.28125 50.015625 
Q 88.921875 44.046875 88.921875 33.015625 
L 88.921875 0 
L 79.890625 0 
L 79.890625 32.71875 
Q 79.890625 40.578125 77.09375 44.375 
Q 74.3125 48.1875 68.609375 48.1875 
Q 61.625 48.1875 57.5625 43.546875 
Q 53.515625 38.921875 53.515625 30.90625 
L 53.515625 0 
L 44.484375 0 
L 44.484375 32.71875 
Q 44.484375 40.625 41.703125 44.40625 
Q 38.921875 48.1875 33.109375 48.1875 
Q 26.21875 48.1875 22.15625 43.53125 
Q 18.109375 38.875 18.109375 30.90625 
L 18.109375 0 
L 9.078125 0 
L 9.078125 54.6875 
L 18.109375 54.6875 
L 18.109375 46.1875 
Q 21.1875 51.21875 25.484375 53.609375 
Q 29.78125 56 35.6875 56 
Q 41.65625 56 45.828125 52.96875 
Q 50 49.953125 52 44.1875 
z
" id="DejaVuSans-109"/>
      <path d="M 54.890625 33.015625 
L 54.890625 0 
L 45.90625 0 
L 45.90625 32.71875 
Q 45.90625 40.484375 42.875 44.328125 
Q 39.84375 48.1875 33.796875 48.1875 
Q 26.515625 48.1875 22.3125 43.546875 
Q 18.109375 38.921875 18.109375 30.90625 
L 18.109375 0 
L 9.078125 0 
L 9.078125 54.6875 
L 18.109375 54.6875 
L 18.109375 46.1875 
Q 21.34375 51.125 25.703125 53.5625 
Q 30.078125 56 35.796875 56 
Q 45.21875 56 50.046875 50.171875 
Q 54.890625 44.34375 54.890625 33.015625 
z
" id="DejaVuSans-110"/>
      <path d="M 8.015625 75.875 
L 15.828125 75.875 
Q 23.140625 64.359375 26.78125 53.3125 
Q 30.421875 42.28125 30.421875 31.390625 
Q 30.421875 20.453125 26.78125 9.375 
Q 23.140625 -1.703125 15.828125 -13.1875 
L 8.015625 -13.1875 
Q 14.5 -2 17.703125 9.0625 
Q 20.90625 20.125 20.90625 31.390625 
Q 20.90625 42.671875 17.703125 53.65625 
Q 14.5 64.65625 8.015625 75.875 
z
" id="DejaVuSans-41"/>
     </defs>
     <g transform="translate(77.303219 342.217594)scale(0.17 -0.17)">
      <use xlink:href="#DejaVuSans-108"/>
      <use x="27.783203" xlink:href="#DejaVuSans-111"/>
      <use x="88.964844" xlink:href="#DejaVuSans-103"/>
      <use x="152.441406" xlink:href="#DejaVuSans-49"/>
      <use x="216.064453" xlink:href="#DejaVuSans-48"/>
      <use x="279.6875" xlink:href="#DejaVuSans-40"/>
      <use x="318.701172" xlink:href="#DejaVuSans-35"/>
      <use x="402.490234" xlink:href="#DejaVuSans-32"/>
      <use x="434.277344" xlink:href="#DejaVuSans-102"/>
      <use x="469.404297" xlink:href="#DejaVuSans-45"/>
      <use x="505.488281" xlink:href="#DejaVuSans-101"/>
      <use x="567.011719" xlink:href="#DejaVuSans-118"/>
      <use x="626.191406" xlink:href="#DejaVuSans-97"/>
      <use x="687.470703" xlink:href="#DejaVuSans-108"/>
      <use x="715.253906" xlink:href="#DejaVuSans-115"/>
      <use x="767.353516" xlink:href="#DejaVuSans-32"/>
      <use x="799.140625" xlink:href="#DejaVuSans-47"/>
      <use x="832.832031" xlink:href="#DejaVuSans-32"/>
      <use x="864.619141" xlink:href="#DejaVuSans-100"/>
      <use x="928.095703" xlink:href="#DejaVuSans-105"/>
      <use x="955.878906" xlink:href="#DejaVuSans-109"/>
      <use x="1053.291016" xlink:href="#DejaVuSans-101"/>
      <use x="1114.814453" xlink:href="#DejaVuSans-110"/>
      <use x="1178.193359" xlink:href="#DejaVuSans-115"/>
      <use x="1230.292969" xlink:href="#DejaVuSans-105"/>
      <use x="1258.076172" xlink:href="#DejaVuSans-111"/>
      <use x="1319.257812" xlink:href="#DejaVuSans-110"/>
      <use x="1382.636719" xlink:href="#DejaVuSans-41"/>
     </g>
    </g>
   </g>
   <g id="matplotlib.axis_2">
    <g id="ytick_1">
     <g id="line2d_29">
      <path clip-path="url(#p2ac64340db)" d="M 57.6 298.944 
L 338.688 298.944 
" style="fill:none;stroke:#b0b0b0;stroke-linecap:square;stroke-width:0.8;"/>
     </g>
     <g id="line2d_30">
      <defs>
       <path d="M 0 0 
L -3.5 0 
" id="m7ff7bcddb6" style="stroke:#000000;stroke-width:0.8;"/>
      </defs>
      <g>
       <use style="stroke:#000000;stroke-width:0.8;" x="57.6" xlink:href="#m7ff7bcddb6" y="298.944"/>
      </g>
     </g>
     <g id="text_6">
      <!-- 0.0 -->
      <defs>
       <path d="M 10.6875 12.40625 
L 21 12.40625 
L 21 0 
L 10.6875 0 
z
" id="DejaVuSans-46"/>
      </defs>
      <g transform="translate(25.155 305.02275)scale(0.16 -0.16)">
       <use xlink:href="#DejaVuSans-48"/>
       <use x="63.623047" xlink:href="#DejaVuSans-46"/>
       <use x="95.410156" xlink:href="#DejaVuSans-48"/>
      </g>
     </g>
    </g>
    <g id="ytick_2">
     <g id="line2d_31">
      <path clip-path="url(#p2ac64340db)" d="M 57.6 247.959446 
L 338.688 247.959446 
" style="fill:none;stroke:#b0b0b0;stroke-linecap:square;stroke-width:0.8;"/>
     </g>
     <g id="line2d_32">
      <g>
       <use style="stroke:#000000;stroke-width:0.8;" x="57.6" xlink:href="#m7ff7bcddb6" y="247.959446"/>
      </g>
     </g>
     <g id="text_7">
      <!-- 0.2 -->
      <g transform="translate(25.155 254.038196)scale(0.16 -0.16)">
       <use xlink:href="#DejaVuSans-48"/>
       <use x="63.623047" xlink:href="#DejaVuSans-46"/>
       <use x="95.410156" xlink:href="#DejaVuSans-50"/>
      </g>
     </g>
    </g>
    <g id="ytick_3">
     <g id="line2d_33">
      <path clip-path="url(#p2ac64340db)" d="M 57.6 196.974891 
L 338.688 196.974891 
" style="fill:none;stroke:#b0b0b0;stroke-linecap:square;stroke-width:0.8;"/>
     </g>
     <g id="line2d_34">
      <g>
       <use style="stroke:#000000;stroke-width:0.8;" x="57.6" xlink:href="#m7ff7bcddb6" y="196.974891"/>
      </g>
     </g>
     <g id="text_8">
      <!-- 0.4 -->
      <g transform="translate(25.155 203.053641)scale(0.16 -0.16)">
       <use xlink:href="#DejaVuSans-48"/>
       <use x="63.623047" xlink:href="#DejaVuSans-46"/>
       <use x="95.410156" xlink:href="#DejaVuSans-52"/>
      </g>
     </g>
    </g>
    <g id="ytick_4">
     <g id="line2d_35">
      <path clip-path="url(#p2ac64340db)" d="M 57.6 145.990337 
L 338.688 145.990337 
" style="fill:none;stroke:#b0b0b0;stroke-linecap:square;stroke-width:0.8;"/>
     </g>
     <g id="line2d_36">
      <g>
       <use style="stroke:#000000;stroke-width:0.8;" x="57.6" xlink:href="#m7ff7bcddb6" y="145.990337"/>
      </g>
     </g>
     <g id="text_9">
      <!-- 0.6 -->
      <g transform="translate(25.155 152.069087)scale(0.16 -0.16)">
       <use xlink:href="#DejaVuSans-48"/>
       <use x="63.623047" xlink:href="#DejaVuSans-46"/>
       <use x="95.410156" xlink:href="#DejaVuSans-54"/>
      </g>
     </g>
    </g>
    <g id="ytick_5">
     <g id="line2d_37">
      <path clip-path="url(#p2ac64340db)" d="M 57.6 95.005782 
L 338.688 95.005782 
" style="fill:none;stroke:#b0b0b0;stroke-linecap:square;stroke-width:0.8;"/>
     </g>
     <g id="line2d_38">
      <g>
       <use style="stroke:#000000;stroke-width:0.8;" x="57.6" xlink:href="#m7ff7bcddb6" y="95.005782"/>
      </g>
     </g>
     <g id="text_10">
      <!-- 0.8 -->
      <defs>
       <path d="M 31.78125 34.625 
Q 24.75 34.625 20.71875 30.859375 
Q 16.703125 27.09375 16.703125 20.515625 
Q 16.703125 13.921875 20.71875 10.15625 
Q 24.75 6.390625 31.78125 6.390625 
Q 38.8125 6.390625 42.859375 10.171875 
Q 46.921875 13.96875 46.921875 20.515625 
Q 46.921875 27.09375 42.890625 30.859375 
Q 38.875 34.625 31.78125 34.625 
z
M 21.921875 38.8125 
Q 15.578125 40.375 12.03125 44.71875 
Q 8.5 49.078125 8.5 55.328125 
Q 8.5 64.0625 14.71875 69.140625 
Q 20.953125 74.21875 31.78125 74.21875 
Q 42.671875 74.21875 48.875 69.140625 
Q 55.078125 64.0625 55.078125 55.328125 
Q 55.078125 49.078125 51.53125 44.71875 
Q 48 40.375 41.703125 38.8125 
Q 48.828125 37.15625 52.796875 32.3125 
Q 56.78125 27.484375 56.78125 20.515625 
Q 56.78125 9.90625 50.3125 4.234375 
Q 43.84375 -1.421875 31.78125 -1.421875 
Q 19.734375 -1.421875 13.25 4.234375 
Q 6.78125 9.90625 6.78125 20.515625 
Q 6.78125 27.484375 10.78125 32.3125 
Q 14.796875 37.15625 21.921875 38.8125 
z
M 18.3125 54.390625 
Q 18.3125 48.734375 21.84375 45.5625 
Q 25.390625 42.390625 31.78125 42.390625 
Q 38.140625 42.390625 41.71875 45.5625 
Q 45.3125 48.734375 45.3125 54.390625 
Q 45.3125 60.0625 41.71875 63.234375 
Q 38.140625 66.40625 31.78125 66.40625 
Q 25.390625 66.40625 21.84375 63.234375 
Q 18.3125 60.0625 18.3125 54.390625 
z
" id="DejaVuSans-56"/>
      </defs>
      <g transform="translate(25.155 101.084532)scale(0.16 -0.16)">
       <use xlink:href="#DejaVuSans-48"/>
       <use x="63.623047" xlink:href="#DejaVuSans-46"/>
       <use x="95.410156" xlink:href="#DejaVuSans-56"/>
      </g>
     </g>
    </g>
    <g id="ytick_6">
     <g id="line2d_39">
      <path clip-path="url(#p2ac64340db)" d="M 57.6 44.021228 
L 338.688 44.021228 
" style="fill:none;stroke:#b0b0b0;stroke-linecap:square;stroke-width:0.8;"/>
     </g>
     <g id="line2d_40">
      <g>
       <use style="stroke:#000000;stroke-width:0.8;" x="57.6" xlink:href="#m7ff7bcddb6" y="44.021228"/>
      </g>
     </g>
     <g id="text_11">
      <!-- 1.0 -->
      <g transform="translate(25.155 50.099978)scale(0.16 -0.16)">
       <use xlink:href="#DejaVuSans-49"/>
       <use x="63.623047" xlink:href="#DejaVuSans-46"/>
       <use x="95.410156" xlink:href="#DejaVuSans-48"/>
      </g>
     </g>
    </g>
    <g id="text_12">
     <!-- Fraction of function,target pairs -->
     <defs>
      <path d="M 9.8125 72.90625 
L 51.703125 72.90625 
L 51.703125 64.59375 
L 19.671875 64.59375 
L 19.671875 43.109375 
L 48.578125 43.109375 
L 48.578125 34.8125 
L 19.671875 34.8125 
L 19.671875 0 
L 9.8125 0 
z
" id="DejaVuSans-70"/>
      <path d="M 41.109375 46.296875 
Q 39.59375 47.171875 37.8125 47.578125 
Q 36.03125 48 33.890625 48 
Q 26.265625 48 22.1875 43.046875 
Q 18.109375 38.09375 18.109375 28.8125 
L 18.109375 0 
L 9.078125 0 
L 9.078125 54.6875 
L 18.109375 54.6875 
L 18.109375 46.1875 
Q 20.953125 51.171875 25.484375 53.578125 
Q 30.03125 56 36.53125 56 
Q 37.453125 56 38.578125 55.875 
Q 39.703125 55.765625 41.0625 55.515625 
z
" id="DejaVuSans-114"/>
      <path d="M 48.78125 52.59375 
L 48.78125 44.1875 
Q 44.96875 46.296875 41.140625 47.34375 
Q 37.3125 48.390625 33.40625 48.390625 
Q 24.65625 48.390625 19.8125 42.84375 
Q 14.984375 37.3125 14.984375 27.296875 
Q 14.984375 17.28125 19.8125 11.734375 
Q 24.65625 6.203125 33.40625 6.203125 
Q 37.3125 6.203125 41.140625 7.25 
Q 44.96875 8.296875 48.78125 10.40625 
L 48.78125 2.09375 
Q 45.015625 0.34375 40.984375 -0.53125 
Q 36.96875 -1.421875 32.421875 -1.421875 
Q 20.0625 -1.421875 12.78125 6.34375 
Q 5.515625 14.109375 5.515625 27.296875 
Q 5.515625 40.671875 12.859375 48.328125 
Q 20.21875 56 33.015625 56 
Q 37.15625 56 41.109375 55.140625 
Q 45.0625 54.296875 48.78125 52.59375 
z
" id="DejaVuSans-99"/>
      <path d="M 18.3125 70.21875 
L 18.3125 54.6875 
L 36.8125 54.6875 
L 36.8125 47.703125 
L 18.3125 47.703125 
L 18.3125 18.015625 
Q 18.3125 11.328125 20.140625 9.421875 
Q 21.96875 7.515625 27.59375 7.515625 
L 36.8125 7.515625 
L 36.8125 0 
L 27.59375 0 
Q 17.1875 0 13.234375 3.875 
Q 9.28125 7.765625 9.28125 18.015625 
L 9.28125 47.703125 
L 2.6875 47.703125 
L 2.6875 54.6875 
L 9.28125 54.6875 
L 9.28125 70.21875 
z
" id="DejaVuSans-116"/>
      <path d="M 8.5 21.578125 
L 8.5 54.6875 
L 17.484375 54.6875 
L 17.484375 21.921875 
Q 17.484375 14.15625 20.5 10.265625 
Q 23.53125 6.390625 29.59375 6.390625 
Q 36.859375 6.390625 41.078125 11.03125 
Q 45.3125 15.671875 45.3125 23.6875 
L 45.3125 54.6875 
L 54.296875 54.6875 
L 54.296875 0 
L 45.3125 0 
L 45.3125 8.40625 
Q 42.046875 3.421875 37.71875 1 
Q 33.40625 -1.421875 27.6875 -1.421875 
Q 18.265625 -1.421875 13.375 4.4375 
Q 8.5 10.296875 8.5 21.578125 
z
M 31.109375 56 
z
" id="DejaVuSans-117"/>
      <path d="M 11.71875 12.40625 
L 22.015625 12.40625 
L 22.015625 4 
L 14.015625 -11.625 
L 7.71875 -11.625 
L 11.71875 4 
z
" id="DejaVuSans-44"/>
      <path d="M 18.109375 8.203125 
L 18.109375 -20.796875 
L 9.078125 -20.796875 
L 9.078125 54.6875 
L 18.109375 54.6875 
L 18.109375 46.390625 
Q 20.953125 51.265625 25.265625 53.625 
Q 29.59375 56 35.59375 56 
Q 45.5625 56 51.78125 48.09375 
Q 58.015625 40.1875 58.015625 27.296875 
Q 58.015625 14.40625 51.78125 6.484375 
Q 45.5625 -1.421875 35.59375 -1.421875 
Q 29.59375 -1.421875 25.265625 0.953125 
Q 20.953125 3.328125 18.109375 8.203125 
z
M 48.6875 27.296875 
Q 48.6875 37.203125 44.609375 42.84375 
Q 40.53125 48.484375 33.40625 48.484375 
Q 26.265625 48.484375 22.1875 42.84375 
Q 18.109375 37.203125 18.109375 27.296875 
Q 18.109375 17.390625 22.1875 11.75 
Q 26.265625 6.109375 33.40625 6.109375 
Q 40.53125 6.109375 44.609375 11.75 
Q 48.6875 17.390625 48.6875 27.296875 
z
" id="DejaVuSans-112"/>
     </defs>
     <g transform="translate(17.619531 305.347375)rotate(-90)scale(0.17 -0.17)">
      <use xlink:href="#DejaVuSans-70"/>
      <use x="57.410156" xlink:href="#DejaVuSans-114"/>
      <use x="98.523438" xlink:href="#DejaVuSans-97"/>
      <use x="159.802734" xlink:href="#DejaVuSans-99"/>
      <use x="214.783203" xlink:href="#DejaVuSans-116"/>
      <use x="253.992188" xlink:href="#DejaVuSans-105"/>
      <use x="281.775391" xlink:href="#DejaVuSans-111"/>
      <use x="342.957031" xlink:href="#DejaVuSans-110"/>
      <use x="406.335938" xlink:href="#DejaVuSans-32"/>
      <use x="438.123047" xlink:href="#DejaVuSans-111"/>
      <use x="499.304688" xlink:href="#DejaVuSans-102"/>
      <use x="534.509766" xlink:href="#DejaVuSans-32"/>
      <use x="566.296875" xlink:href="#DejaVuSans-102"/>
      <use x="601.501953" xlink:href="#DejaVuSans-117"/>
      <use x="664.880859" xlink:href="#DejaVuSans-110"/>
      <use x="728.259766" xlink:href="#DejaVuSans-99"/>
      <use x="783.240234" xlink:href="#DejaVuSans-116"/>
      <use x="822.449219" xlink:href="#DejaVuSans-105"/>
      <use x="850.232422" xlink:href="#DejaVuSans-111"/>
      <use x="911.414062" xlink:href="#DejaVuSans-110"/>
      <use x="974.792969" xlink:href="#DejaVuSans-44"/>
      <use x="1006.580078" xlink:href="#DejaVuSans-116"/>
      <use x="1045.789062" xlink:href="#DejaVuSans-97"/>
      <use x="1107.068359" xlink:href="#DejaVuSans-114"/>
      <use x="1148.166016" xlink:href="#DejaVuSans-103"/>
      <use x="1211.642578" xlink:href="#DejaVuSans-101"/>
      <use x="1273.166016" xlink:href="#DejaVuSans-116"/>
      <use x="1312.375" xlink:href="#DejaVuSans-32"/>
      <use x="1344.162109" xlink:href="#DejaVuSans-112"/>
      <use x="1407.638672" xlink:href="#DejaVuSans-97"/>
      <use x="1468.917969" xlink:href="#DejaVuSans-105"/>
      <use x="1496.701172" xlink:href="#DejaVuSans-114"/>
      <use x="1537.814453" xlink:href="#DejaVuSans-115"/>
     </g>
    </g>
   </g>
   <g id="line2d_41">
    <defs>
     <path d="M 0 1.5 
C 0.397805 1.5 0.77937 1.341951 1.06066 1.06066 
C 1.341951 0.77937 1.5 0.397805 1.5 0 
C 1.5 -0.397805 1.341951 -0.77937 1.06066 -1.06066 
C 0.77937 -1.341951 0.397805 -1.5 0 -1.5 
C -0.397805 -1.5 -0.77937 -1.341951 -1.06066 -1.06066 
C -1.341951 -0.77937 -1.5 -0.397805 -1.5 0 
C -1.5 0.397805 -1.341951 0.77937 -1.06066 1.06066 
C -0.77937 1.341951 -0.397805 1.5 0 1.5 
z
" id="m22f1098dae" style="stroke:#f5deb3;"/>
    </defs>
    <g>
     <use style="fill:#f5deb3;stroke:#f5deb3;" x="197.706883" xlink:href="#m22f1098dae" y="44.021228"/>
     <use style="fill:#f5deb3;stroke:#f5deb3;" x="197.706883" xlink:href="#m22f1098dae" y="44.021228"/>
    </g>
   </g>
   <g id="line2d_42">
    <defs>
     <path d="M 0 1.5 
C 0.397805 1.5 0.77937 1.341951 1.06066 1.06066 
C 1.341951 0.77937 1.5 0.397805 1.5 0 
C 1.5 -0.397805 1.341951 -0.77937 1.06066 -1.06066 
C 0.77937 -1.341951 0.397805 -1.5 0 -1.5 
C -0.397805 -1.5 -0.77937 -1.341951 -1.06066 -1.06066 
C -1.341951 -0.77937 -1.5 -0.397805 -1.5 0 
C -1.5 0.397805 -1.341951 0.77937 -1.06066 1.06066 
C -0.77937 1.341951 -0.397805 1.5 0 1.5 
z
" id="m95a19d06c2" style="stroke:#000080;"/>
    </defs>
    <g>
     <use style="fill:#000080;stroke:#000080;" x="213.16051" xlink:href="#m95a19d06c2" y="44.021228"/>
     <use style="fill:#000080;stroke:#000080;" x="213.16051" xlink:href="#m95a19d06c2" y="44.021228"/>
    </g>
   </g>
   <g id="line2d_43">
    <path d="M 38.440992 298.944 
L 38.440992 297.944303 
L 66.508432 297.944303 
L 66.508432 296.944606 
L 72.376266 296.944606 
L 72.376266 295.944909 
L 74.704957 295.944909 
L 74.704957 293.945514 
L 76.759008 293.945514 
L 76.759008 293.445666 
L 80.258561 293.445666 
L 80.258561 290.446574 
L 84.464254 290.446574 
L 84.464254 289.946726 
L 86.792945 289.946726 
L 86.792945 289.446877 
L 87.850195 289.446877 
L 87.850195 288.947029 
L 88.846997 288.947029 
L 88.846997 288.44718 
L 93.121756 288.44718 
L 93.121756 287.947331 
L 94.575872 287.947331 
L 94.575872 286.447786 
L 98.880934 286.447786 
L 98.880934 285.448089 
L 101.412804 285.448089 
L 101.412804 284.448391 
L 102.330873 284.448391 
L 102.330873 283.948543 
L 102.772397 283.948543 
L 102.772397 282.948846 
L 105.584798 282.948846 
L 105.584798 282.448997 
L 108.326001 282.448997 
L 108.326001 281.949149 
L 109.550313 281.949149 
L 109.550313 280.449603 
L 110.694282 280.449603 
L 110.694282 279.949754 
L 113.022974 279.949754 
L 113.022974 278.450209 
L 114.860386 278.450209 
L 114.860386 277.450511 
L 116.719583 277.450511 
L 116.719583 276.950663 
L 118.925375 276.950663 
L 118.925375 275.950966 
L 119.43583 275.950966 
L 119.43583 274.951268 
L 120.093994 274.951268 
L 120.093994 273.951571 
L 123.985457 273.951571 
L 123.985457 272.951874 
L 124.743806 272.951874 
L 124.743806 271.952177 
L 124.989434 271.952177 
L 124.989434 270.452631 
L 126.053856 270.452631 
L 126.053856 268.453237 
L 128.107907 268.453237 
L 128.209594 266.953691 
L 130.218525 266.953691 
L 130.218525 265.953994 
L 130.752422 265.953994 
L 130.752422 264.954297 
L 131.439773 264.954297 
L 131.439773 263.9546 
L 131.60746 263.9546 
L 131.60746 263.454751 
L 132.422528 263.454751 
L 132.422528 262.954903 
L 132.659801 262.954903 
L 132.659801 262.455054 
L 133.201197 262.455054 
L 133.277185 261.455357 
L 133.57787 261.455357 
L 133.57787 259.955811 
L 133.873458 259.955811 
L 133.873458 259.455963 
L 135.00812 259.455963 
L 135.076644 255.457174 
L 135.482227 255.457174 
L 135.548916 253.45778 
L 135.681535 253.45778 
L 135.681535 252.957931 
L 135.943785 252.957931 
L 136.008736 250.958537 
L 136.137916 250.958537 
L 136.137916 250.458688 
L 136.707671 250.458688 
L 136.707671 249.95884 
L 136.831795 249.95884 
L 136.893527 247.959446 
L 137.198951 247.959446 
L 137.259399 245.960051 
L 137.37967 245.960051 
L 137.37967 245.460203 
L 137.735587 245.460203 
L 137.735587 244.960354 
L 138.369812 244.960354 
L 138.369812 244.460506 
L 138.482688 244.460506 
L 138.482688 243.460808 
L 138.594838 243.460808 
L 138.594838 242.96096 
L 139.253002 242.96096 
L 139.253002 242.461111 
L 140.348205 242.461111 
L 140.348205 241.461414 
L 143.611807 241.461414 
L 143.611807 240.961566 
L 143.737119 240.961566 
L 143.737119 240.461717 
L 144.550287 240.461717 
L 144.550287 239.46202 
L 155.887428 239.46202 
L 155.887428 238.962171 
L 157.319964 238.962171 
L 157.319964 236.962777 
L 159.184097 236.962777 
L 159.286782 233.963685 
L 159.473482 233.963685 
L 159.574482 231.964291 
L 159.708245 231.964291 
L 159.791329 230.464745 
L 160.054568 230.464745 
L 160.054568 229.964897 
L 160.168498 229.964897 
L 160.184713 227.465654 
L 160.664283 227.465654 
L 160.69579 224.966411 
L 160.836873 224.966411 
L 160.930298 223.466865 
L 161.054091 223.466865 
L 161.131018 221.467471 
L 161.222884 221.467471 
L 161.329454 219.468077 
L 161.480575 219.468077 
L 161.525657 217.968531 
L 161.689969 217.968531 
L 161.689969 216.468985 
L 161.896878 216.468985 
L 161.940898 214.469591 
L 162.057744 214.469591 
L 162.057744 213.969743 
L 162.616422 213.969743 
L 162.616422 213.469894 
L 162.756836 213.469894 
L 162.756836 211.970348 
L 162.923853 211.970348 
L 162.923853 211.4705 
L 163.21234 211.4705 
L 163.307451 209.471105 
L 170.907851 209.471105 
L 170.907851 208.471408 
L 172.665332 208.471408 
L 172.665332 207.97156 
L 173.295595 207.97156 
L 173.295595 207.471711 
L 175.279879 207.471711 
L 175.279879 206.971863 
L 175.704345 206.971863 
L 175.724302 205.472317 
L 175.902897 205.472317 
L 175.968581 203.472923 
L 176.014414 203.472923 
L 176.014414 202.473225 
L 176.190077 202.473225 
L 176.293345 198.974285 
L 176.370396 198.974285 
L 176.383205 196.475043 
L 176.491702 196.475043 
L 176.55521 193.475951 
L 176.675242 193.475951 
L 176.756896 190.976708 
L 176.819447 190.976708 
L 176.90043 187.477768 
L 176.931477 187.477768 
L 176.931477 185.978222 
L 177.220651 185.978222 
L 177.220651 183.978828 
L 177.372536 183.978828 
L 177.420861 181.479585 
L 177.541091 181.479585 
L 177.547081 179.480191 
L 177.713965 179.480191 
L 177.814514 177.480797 
L 177.879268 177.480797 
L 177.961335 175.981251 
L 178.530902 175.981251 
L 178.530902 174.981554 
L 178.994487 174.981554 
L 179.005507 171.982462 
L 179.142674 171.982462 
L 179.153601 170.982765 
L 179.446068 170.982765 
L 179.521099 165.484431 
L 179.595808 165.484431 
L 179.601132 164.484734 
L 179.749552 164.484734 
L 179.749552 163.485037 
L 179.891486 163.485037 
L 179.990676 161.485642 
L 180.089306 161.485642 
L 180.089306 160.985794 
L 181.657549 160.985794 
L 181.657549 160.485945 
L 182.64173 160.485945 
L 182.64173 159.986097 
L 186.831126 159.986097 
L 186.8487 156.987005 
L 187.009561 156.987005 
L 187.075573 155.48746 
L 187.151697 155.48746 
L 187.217174 151.488671 
L 190.098962 151.488671 
L 190.098962 150.988822 
L 190.97189 150.988822 
L 190.97189 149.989125 
L 191.151237 149.989125 
L 191.186886 148.489579 
L 191.287952 148.489579 
L 191.385728 141.491699 
L 191.420901 141.491699 
L 191.482958 136.993062 
L 191.536741 136.993062 
L 191.638475 132.494425 
L 191.651817 132.494425 
L 191.673143 129.495334 
L 191.81113 129.495334 
L 191.82434 127.995788 
L 191.932291 127.995788 
L 191.96114 124.996697 
L 192.107273 124.996697 
L 192.182471 122.497454 
L 192.221239 122.497454 
L 192.259921 118.498665 
L 193.0358 118.498665 
L 193.0358 117.998817 
L 193.360454 117.998817 
L 193.360454 117.498968 
L 193.900973 117.498968 
L 193.987509 115.999422 
L 194.108406 115.999422 
L 194.180082 114.499877 
L 194.237672 114.499877 
L 194.322557 112.500482 
L 194.36827 112.500482 
L 194.377398 110.001239 
L 194.493364 110.001239 
L 194.552189 107.002148 
L 194.925368 107.002148 
L 194.987162 103.503208 
L 195.284231 103.503208 
L 195.286397 102.503511 
L 195.413699 102.503511 
L 195.413699 101.503814 
L 195.620994 101.503814 
L 195.620994 101.003965 
L 195.762752 101.003965 
L 195.769073 97.005176 
L 195.959713 97.005176 
L 196.059438 93.506236 
L 196.088417 93.506236 
L 196.173009 86.508356 
L 196.232595 86.508356 
L 196.273571 81.010022 
L 197.672921 81.010022 
L 197.735134 76.011536 
L 197.849552 76.011536 
L 197.903685 70.013354 
L 197.972508 70.013354 
L 198.018857 66.014565 
L 200.323926 66.014565 
L 200.42583 63.515322 
L 200.504679 63.515322 
L 200.602343 60.516231 
L 200.681989 60.516231 
L 200.770763 56.017593 
L 212.914006 56.017593 
L 213.019294 49.519562 
L 213.044344 49.519562 
L 213.154293 45.520773 
L 213.16051 45.520773 
L 213.16051 44.021228 
L 338.688 44.021228 
L 338.688 44.021228 
" style="fill:none;stroke:#000080;stroke-linecap:square;stroke-width:1.5;"/>
   </g>
   <g id="line2d_44">
    <defs>
     <path d="M 0 6 
C 1.591219 6 3.117479 5.367802 4.242641 4.242641 
C 5.367802 3.117479 6 1.591219 6 0 
C 6 -1.591219 5.367802 -3.117479 4.242641 -4.242641 
C 3.117479 -5.367802 1.591219 -6 0 -6 
C -1.591219 -6 -3.117479 -5.367802 -4.242641 -4.242641 
C -5.367802 -3.117479 -6 -1.591219 -6 0 
C -6 1.591219 -5.367802 3.117479 -4.242641 4.242641 
C -3.117479 5.367802 -1.591219 6 0 6 
z
" id="m21a47c03bc" style="stroke:#000080;stroke-width:1.5;"/>
    </defs>
    <g>
     <use style="fill-opacity:0;stroke:#000080;stroke-width:1.5;" x="130.218525" xlink:href="#m21a47c03bc" y="266.953691"/>
     <use style="fill-opacity:0;stroke:#000080;stroke-width:1.5;" x="180.089306" xlink:href="#m21a47c03bc" y="160.985794"/>
     <use style="fill-opacity:0;stroke:#000080;stroke-width:1.5;" x="200.770763" xlink:href="#m21a47c03bc" y="56.517442"/>
     <use style="fill-opacity:0;stroke:#000080;stroke-width:1.5;" x="213.16051" xlink:href="#m21a47c03bc" y="44.021228"/>
     <use style="fill-opacity:0;stroke:#000080;stroke-width:1.5;" x="213.16051" xlink:href="#m21a47c03bc" y="44.021228"/>
     <use style="fill-opacity:0;stroke:#000080;stroke-width:1.5;" x="338.688" xlink:href="#m21a47c03bc" y="44.021228"/>
    </g>
   </g>
   <g id="line2d_45">
    <path style="fill:none;stroke:#000080;stroke-linecap:square;stroke-width:1.5;"/>
    <g/>
   </g>
   <g id="line2d_46">
    <defs>
     <path d="M 0 1.5 
C 0.397805 1.5 0.77937 1.341951 1.06066 1.06066 
C 1.341951 0.77937 1.5 0.397805 1.5 0 
C 1.5 -0.397805 1.341951 -0.77937 1.06066 -1.06066 
C 0.77937 -1.341951 0.397805 -1.5 0 -1.5 
C -0.397805 -1.5 -0.77937 -1.341951 -1.06066 -1.06066 
C -1.341951 -0.77937 -1.5 -0.397805 -1.5 0 
C -1.5 0.397805 -1.341951 0.77937 -1.06066 1.06066 
C -0.77937 1.341951 -0.397805 1.5 0 1.5 
z
" id="ma5ca923dbe" style="stroke:#ff00ff;"/>
    </defs>
    <g>
     <use style="fill:#ff00ff;stroke:#ff00ff;" x="206.922474" xlink:href="#ma5ca923dbe" y="44.021228"/>
     <use style="fill:#ff00ff;stroke:#ff00ff;" x="206.922474" xlink:href="#ma5ca923dbe" y="44.021228"/>
    </g>
   </g>
   <g id="line2d_47">
    <path d="M 38.440992 298.944 
L 38.440992 294.445363 
L 57.6 294.445363 
L 57.6 292.445969 
L 74.704957 292.445969 
L 74.704957 291.446271 
L 76.759008 291.446271 
L 76.759008 290.446574 
L 80.258561 290.446574 
L 80.258561 287.947331 
L 81.775977 287.947331 
L 81.775977 286.947634 
L 83.171864 286.947634 
L 83.171864 286.447786 
L 85.66744 286.447786 
L 85.66744 285.448089 
L 88.846997 285.448089 
L 88.846997 284.94824 
L 89.78989 284.94824 
L 89.78989 283.948543 
L 90.684409 283.948543 
L 90.684409 282.948846 
L 94.575872 282.948846 
L 94.575872 282.448997 
L 96.552242 282.448997 
L 96.552242 281.949149 
L 98.880934 281.949149 
L 98.880934 281.4493 
L 99.41757 281.4493 
L 99.41757 279.449906 
L 99.938184 279.449906 
L 99.938184 278.950057 
L 103.623262 278.950057 
L 103.623262 277.450511 
L 105.951954 277.450511 
L 105.951954 276.950663 
L 106.66386 276.950663 
L 106.66386 276.450814 
L 107.347841 276.450814 
L 107.347841 275.451117 
L 108.006005 275.451117 
L 108.006005 274.951268 
L 108.326001 274.951268 
L 108.326001 274.45142 
L 110.131676 274.45142 
L 110.131676 273.951571 
L 112.280765 273.951571 
L 112.280765 272.951874 
L 114.193835 272.951874 
L 114.193835 272.452026 
L 115.077025 272.452026 
L 115.077025 271.952177 
L 117.486268 271.952177 
L 117.486268 271.452328 
L 118.925375 271.452328 
L 118.925375 270.95248 
L 119.097192 270.95248 
L 119.097192 270.452631 
L 121.638301 270.452631 
L 121.638301 269.452934 
L 122.362027 269.452934 
L 122.362027 268.953086 
L 122.643312 268.953086 
L 122.643312 268.453237 
L 123.460928 268.453237 
L 123.460928 267.953388 
L 123.855796 267.953388 
L 123.855796 267.45354 
L 123.985457 267.45354 
L 123.985457 266.953691 
L 124.989434 266.953691 
L 124.989434 265.953994 
L 125.351508 265.953994 
L 125.351508 265.454146 
L 129.480244 265.454146 
L 129.480244 264.454448 
L 130.398313 264.454448 
L 130.398313 263.9546 
L 135.415281 263.9546 
L 135.415281 262.455054 
L 137.198951 262.455054 
L 137.198951 260.45566 
L 139.990725 260.45566 
L 139.990725 259.955811 
L 141.041904 259.955811 
L 141.041904 259.455963 
L 152.736878 259.455963 
L 152.736878 258.456266 
L 154.796449 258.456266 
L 154.796449 257.956417 
L 155.403849 257.956417 
L 155.403849 257.456568 
L 156.031982 257.456568 
L 156.031982 256.456871 
L 156.518691 256.456871 
L 156.518691 255.957023 
L 158.376091 255.957023 
L 158.412011 254.957326 
L 158.572743 254.957326 
L 158.572743 254.457477 
L 159.149734 254.457477 
L 159.149734 252.458083 
L 159.490356 252.458083 
L 159.574482 249.458991 
L 160.070889 249.458991 
L 160.103486 248.459294 
L 160.249422 248.459294 
L 160.281688 245.460203 
L 160.458086 245.460203 
L 160.458086 243.460808 
L 160.742945 243.460808 
L 160.742945 241.461414 
L 160.86807 241.461414 
L 160.94582 239.961868 
L 161.207607 239.961868 
L 161.299072 237.962474 
L 161.374928 237.962474 
L 161.39006 234.963383 
L 161.510643 234.963383 
L 161.585586 230.464745 
L 161.64531 230.464745 
L 161.64531 229.964897 
L 161.970183 229.964897 
L 162.072295 225.46626 
L 162.46065 225.46626 
L 162.46065 223.966714 
L 162.644595 223.966714 
L 162.68677 222.467168 
L 162.923853 222.467168 
L 162.9377 219.967925 
L 163.21234 219.967925 
L 163.225959 217.468683 
L 163.375071 217.468683 
L 163.375071 214.469591 
L 165.76776 214.469591 
L 165.76776 213.969743 
L 165.955029 213.969743 
L 165.955029 213.469894 
L 166.369174 213.469894 
L 166.369174 212.470197 
L 166.673454 212.470197 
L 166.673454 211.970348 
L 166.795913 211.970348 
L 166.795913 211.4705 
L 176.228874 211.4705 
L 176.228874 209.970954 
L 176.650041 209.970954 
L 176.687829 206.472014 
L 177.450996 206.472014 
L 177.450996 205.972165 
L 177.588952 205.972165 
L 177.654547 202.973074 
L 177.749519 202.973074 
L 177.773182 200.473831 
L 177.914487 200.473831 
L 177.961335 191.976405 
L 178.118525 191.976405 
L 178.141693 189.477162 
L 178.280055 189.477162 
L 178.37169 188.477465 
L 178.394524 188.477465 
L 178.44579 185.978222 
L 178.530902 185.978222 
L 178.609966 184.478677 
L 182.466459 184.478677 
L 182.466459 183.47898 
L 182.708675 183.47898 
L 182.815256 179.480191 
L 183.708446 179.480191 
L 183.708446 178.480494 
L 183.875892 178.480494 
L 183.875892 177.980645 
L 184.099422 177.980645 
L 184.206035 176.4811 
L 184.421362 176.4811 
L 184.481824 174.981554 
L 184.630074 174.981554 
L 184.697769 172.482311 
L 184.969862 172.482311 
L 185.055732 167.483825 
L 185.098509 167.483825 
L 185.187613 165.484431 
L 185.448421 165.484431 
L 185.505431 163.485037 
L 185.765302 163.485037 
L 185.806375 159.986097 
L 185.991862 159.986097 
L 186.039767 157.986702 
L 186.135184 157.986702 
L 186.135184 156.987005 
L 186.309979 156.987005 
L 186.414741 154.987611 
L 186.429142 154.987611 
L 186.429142 152.988217 
L 186.601029 152.988217 
L 186.611716 150.488974 
L 186.922321 150.488974 
L 186.922321 149.989125 
L 187.103293 149.989125 
L 187.103293 147.989731 
L 187.217174 147.989731 
L 187.217174 147.489882 
L 187.500357 147.489882 
L 187.561169 145.490488 
L 187.688856 145.490488 
L 187.708932 139.992154 
L 187.875338 139.992154 
L 187.888582 137.992759 
L 188.778963 137.992759 
L 188.778963 137.492911 
L 190.737353 137.492911 
L 190.737353 135.993365 
L 190.933019 135.993365 
L 190.933019 135.493517 
L 191.504491 135.493517 
L 191.504491 130.495031 
L 191.654485 130.495031 
L 191.665149 128.995485 
L 191.803199 128.995485 
L 191.848094 126.496242 
L 191.950655 126.496242 
L 191.950655 125.496545 
L 195.959713 125.496545 
L 195.959713 124.996697 
L 196.422321 124.996697 
L 196.440572 123.996999 
L 196.58188 123.996999 
L 196.630066 120.997908 
L 196.734014 120.997908 
L 196.734014 120.498059 
L 196.987278 120.498059 
L 197.081312 114.000028 
L 197.139826 114.000028 
L 197.248531 105.502602 
L 197.289121 105.502602 
L 197.398821 97.505025 
L 197.400739 97.505025 
L 197.509741 94.006085 
L 197.542119 94.006085 
L 197.640786 89.007599 
L 197.718189 89.007599 
L 197.821486 82.509568 
L 197.870105 82.509568 
L 197.881305 81.010022 
L 198.031813 81.010022 
L 198.059543 78.010931 
L 198.16268 78.010931 
L 198.239634 75.011839 
L 198.439586 75.011839 
L 198.520729 71.013051 
L 198.733504 71.013051 
L 198.839809 69.513505 
L 198.845107 69.513505 
L 198.845107 68.513808 
L 198.9823 68.513808 
L 198.9823 67.514111 
L 199.37896 67.514111 
L 199.37896 66.514414 
L 200.530349 66.514414 
L 200.637432 63.015474 
L 200.751778 63.015474 
L 200.781828 61.016079 
L 201.349274 61.016079 
L 201.456021 58.516836 
L 201.463621 58.516836 
L 201.559095 56.017593 
L 204.70739 56.017593 
L 204.70739 55.017896 
L 205.019998 55.017896 
L 205.019998 54.018199 
L 205.28443 54.018199 
L 205.28443 53.018502 
L 205.519641 53.018502 
L 205.618114 51.019108 
L 205.787336 51.019108 
L 205.787336 50.019411 
L 205.958455 50.019411 
L 206.061494 48.519865 
L 206.348643 48.519865 
L 206.440272 47.520168 
L 206.598342 47.520168 
L 206.641307 44.521076 
L 206.922474 44.521076 
L 206.922474 44.021228 
L 338.688 44.021228 
L 338.688 44.021228 
" style="fill:none;stroke:#ff00ff;stroke-linecap:square;stroke-width:1.5;"/>
   </g>
   <g id="line2d_48">
    <defs>
     <path d="M -0 8.485281 
L 5.091169 0 
L 0 -8.485281 
L -5.091169 -0 
z
" id="m4f067cbe67" style="stroke:#ff00ff;stroke-linejoin:miter;stroke-width:1.5;"/>
    </defs>
    <g>
     <use style="fill-opacity:0;stroke:#ff00ff;stroke-linejoin:miter;stroke-width:1.5;" x="115.077025" xlink:href="#m4f067cbe67" y="272.452026"/>
     <use style="fill-opacity:0;stroke:#ff00ff;stroke-linejoin:miter;stroke-width:1.5;" x="177.654547" xlink:href="#m4f067cbe67" y="204.47262"/>
     <use style="fill-opacity:0;stroke:#ff00ff;stroke-linejoin:miter;stroke-width:1.5;" x="206.922474" xlink:href="#m4f067cbe67" y="44.521076"/>
     <use style="fill-opacity:0;stroke:#ff00ff;stroke-linejoin:miter;stroke-width:1.5;" x="206.922474" xlink:href="#m4f067cbe67" y="44.021228"/>
     <use style="fill-opacity:0;stroke:#ff00ff;stroke-linejoin:miter;stroke-width:1.5;" x="206.922474" xlink:href="#m4f067cbe67" y="44.021228"/>
     <use style="fill-opacity:0;stroke:#ff00ff;stroke-linejoin:miter;stroke-width:1.5;" x="338.688" xlink:href="#m4f067cbe67" y="44.021228"/>
    </g>
   </g>
   <g id="line2d_49">
    <path style="fill:none;stroke:#ff00ff;stroke-linecap:square;stroke-width:1.5;"/>
    <g/>
   </g>
   <g id="line2d_50">
    <defs>
     <path d="M 0 1.5 
C 0.397805 1.5 0.77937 1.341951 1.06066 1.06066 
C 1.341951 0.77937 1.5 0.397805 1.5 0 
C 1.5 -0.397805 1.341951 -0.77937 1.06066 -1.06066 
C 0.77937 -1.341951 0.397805 -1.5 0 -1.5 
C -0.397805 -1.5 -0.77937 -1.341951 -1.06066 -1.06066 
C -1.341951 -0.77937 -1.5 -0.397805 -1.5 0 
C -1.5 0.397805 -1.341951 0.77937 -1.06066 1.06066 
C -0.77937 1.341951 -0.397805 1.5 0 1.5 
z
" id="m05ebb25058" style="stroke:#ffa500;"/>
    </defs>
    <g>
     <use style="fill:#ffa500;stroke:#ffa500;" x="204.028152" xlink:href="#m05ebb25058" y="44.021228"/>
     <use style="fill:#ffa500;stroke:#ffa500;" x="204.028152" xlink:href="#m05ebb25058" y="44.021228"/>
    </g>
   </g>
   <g id="line2d_51">
    <path d="M 38.440992 298.944 
L 38.440992 293.945514 
L 50.52898 293.945514 
L 50.52898 292.945817 
L 57.6 292.945817 
L 57.6 289.946726 
L 62.616969 289.946726 
L 62.616969 289.446877 
L 72.376266 289.446877 
L 72.376266 288.947029 
L 80.258561 288.947029 
L 80.258561 285.947937 
L 84.464254 285.947937 
L 84.464254 285.448089 
L 88.846997 285.448089 
L 88.846997 284.94824 
L 90.684409 284.94824 
L 90.684409 283.448694 
L 93.863965 283.448694 
L 93.863965 282.448997 
L 97.16421 282.448997 
L 97.16421 281.949149 
L 98.32726 281.949149 
L 98.32726 280.949451 
L 98.880934 280.949451 
L 98.880934 280.449603 
L 99.938184 280.449603 
L 99.938184 279.949754 
L 100.934985 279.949754 
L 100.934985 279.449906 
L 102.772397 279.449906 
L 102.772397 278.950057 
L 103.203018 278.950057 
L 103.203018 277.95036 
L 108.006005 277.95036 
L 108.006005 277.450511 
L 108.326001 277.450511 
L 108.326001 276.950663 
L 108.948899 276.950663 
L 108.948899 275.451117 
L 109.252198 275.451117 
L 109.252198 274.45142 
L 114.860386 274.45142 
L 114.860386 273.951571 
L 119.931767 273.951571 
L 119.931767 272.951874 
L 121.785469 272.951874 
L 121.785469 272.452026 
L 122.076131 272.452026 
L 122.076131 271.452328 
L 125.706218 271.452328 
L 125.706218 270.95248 
L 126.729009 270.95248 
L 126.729009 270.452631 
L 128.709321 270.452631 
L 128.709321 269.952783 
L 129.667765 269.952783 
L 129.667765 269.452934 
L 130.127931 269.452934 
L 130.127931 268.953086 
L 131.523818 268.953086 
L 131.523818 268.453237 
L 133.201197 268.453237 
L 133.201197 267.953388 
L 133.652238 267.953388 
L 133.652238 266.953691 
L 134.236034 266.953691 
L 134.236034 265.953994 
L 134.591225 265.953994 
L 134.591225 265.454146 
L 135.415281 265.454146 
L 135.415281 264.954297 
L 136.393441 264.954297 
L 136.393441 264.454448 
L 137.617753 264.454448 
L 137.676769 263.454751 
L 137.735587 263.454751 
L 137.794206 261.455357 
L 141.47371 261.455357 
L 141.47371 260.45566 
L 141.662245 260.45566 
L 141.709062 259.455963 
L 142.619936 259.455963 
L 142.619936 257.456568 
L 151.394733 257.456568 
L 151.394733 256.95672 
L 153.703291 256.95672 
L 153.703291 256.456871 
L 154.19 256.456871 
L 154.19 254.957326 
L 154.596634 254.957326 
L 154.596634 254.457477 
L 158.429943 254.457477 
L 158.429943 253.45778 
L 158.994256 253.45778 
L 158.994256 251.958234 
L 159.303838 251.958234 
L 159.303838 250.958537 
L 159.439685 250.958537 
L 159.490356 248.959143 
L 159.574482 248.959143 
L 159.574482 247.959446 
L 159.93989 247.959446 
L 159.93989 245.960051 
L 160.152267 245.960051 
L 160.233268 243.460808 
L 160.329974 243.460808 
L 160.394148 241.961263 
L 160.616915 241.961263 
L 160.727241 236.462928 
L 160.742945 236.462928 
L 160.852479 233.463837 
L 161.100288 233.463837 
L 161.161694 229.964897 
L 161.314269 229.964897 
L 161.314269 229.465048 
L 161.450455 229.465048 
L 161.450455 227.465654 
L 161.615474 227.465654 
L 161.615474 226.965805 
L 161.79373 226.965805 
L 161.838011 225.46626 
L 161.970183 225.46626 
L 162.057744 222.967017 
L 162.71483 222.967017 
L 162.756836 221.96732 
L 162.882249 221.96732 
L 162.992975 218.46838 
L 163.034316 218.46838 
L 163.144084 216.468985 
L 163.280329 216.468985 
L 163.33453 214.96944 
L 163.469301 214.96944 
L 163.469301 211.4705 
L 163.854349 211.4705 
L 163.854349 210.970651 
L 164.024234 210.970651 
L 164.050224 208.971257 
L 164.205356 208.971257 
L 164.218222 207.471711 
L 164.384616 207.471711 
L 164.384616 206.472014 
L 168.089095 206.472014 
L 168.089095 205.972165 
L 168.242927 205.972165 
L 168.242927 205.472317 
L 171.696007 205.472317 
L 171.696007 204.972468 
L 171.887604 204.972468 
L 171.887604 203.472923 
L 172.20775 203.472923 
L 172.20775 202.973074 
L 172.458099 202.973074 
L 172.530112 200.473831 
L 172.689086 200.473831 
L 172.799511 197.974588 
L 172.971637 197.974588 
L 172.971637 196.974891 
L 173.134368 196.974891 
L 173.22668 191.476557 
L 173.394661 191.476557 
L 173.394661 188.977314 
L 173.591119 188.977314 
L 173.591119 186.478071 
L 173.710926 186.478071 
L 173.740749 183.978828 
L 173.852135 183.978828 
L 173.933369 182.479282 
L 174.021557 182.479282 
L 174.021557 181.979434 
L 174.326753 181.979434 
L 174.420145 178.980342 
L 174.505913 178.980342 
L 174.505913 177.480797 
L 174.73962 177.480797 
L 174.73962 176.4811 
L 174.928533 176.4811 
L 175.004915 172.98216 
L 176.800705 172.98216 
L 176.800705 172.482311 
L 177.38463 172.482311 
L 177.38463 171.982462 
L 178.170609 171.982462 
L 178.228297 169.983068 
L 178.320204 169.983068 
L 178.320204 169.48322 
L 178.479885 169.48322 
L 178.525241 167.483825 
L 178.8005 167.483825 
L 178.900534 161.985491 
L 178.950337 161.985491 
L 178.999998 159.986097 
L 182.489029 159.986097 
L 182.587988 158.486551 
L 182.601439 158.486551 
L 182.601439 157.986702 
L 182.726484 157.986702 
L 182.726484 156.487157 
L 182.894767 156.487157 
L 182.987073 153.987914 
L 183.100685 153.987914 
L 183.187577 152.488368 
L 183.217888 152.488368 
L 183.282662 148.489579 
L 183.372943 148.489579 
L 183.372943 147.989731 
L 183.488336 147.989731 
L 183.543625 146.490185 
L 187.924952 146.490185 
L 187.924952 145.990337 
L 188.291007 145.990337 
L 188.310402 140.492002 
L 188.54785 140.492002 
L 188.643199 138.492608 
L 188.703318 138.492608 
L 188.804105 136.993062 
L 188.885568 136.993062 
L 188.972874 133.993971 
L 189.007053 133.993971 
L 189.007053 133.494122 
L 189.136944 133.494122 
L 189.180026 131.494728 
L 189.30864 131.494728 
L 189.393858 123.497151 
L 189.487724 123.497151 
L 189.581087 115.499574 
L 189.6021 115.499574 
L 189.69187 112.000634 
L 189.769298 112.000634 
L 189.828626 106.002451 
L 189.893654 106.002451 
L 189.961379 104.003056 
L 190.101878 104.003056 
L 190.165897 101.003965 
L 190.229681 101.003965 
L 190.298999 96.505328 
L 190.899632 96.505328 
L 190.899632 96.005479 
L 191.606413 96.005479 
L 191.606413 95.005782 
L 191.750232 95.005782 
L 191.750232 94.505934 
L 192.257345 94.505934 
L 192.257345 94.006085 
L 193.653034 94.006085 
L 193.653034 93.506236 
L 194.461607 93.506236 
L 194.53411 91.006994 
L 194.65578 91.006994 
L 194.682703 90.007296 
L 194.772147 90.007296 
L 194.801118 87.008205 
L 194.894388 87.008205 
L 194.920945 85.008811 
L 195.026772 85.008811 
L 195.026772 84.508962 
L 195.804845 84.508962 
L 195.804845 83.509265 
L 195.922169 83.509265 
L 195.922169 82.509568 
L 196.129733 82.509568 
L 196.210018 77.511082 
L 196.269478 77.511082 
L 196.377626 73.012445 
L 196.491171 73.012445 
L 196.495213 72.012748 
L 200.96574 72.012748 
L 200.96574 71.013051 
L 201.139994 71.013051 
L 201.139994 70.513202 
L 201.312524 70.513202 
L 201.320187 68.013959 
L 201.483365 68.013959 
L 201.483365 67.014262 
L 201.634499 67.014262 
L 201.732038 63.515322 
L 201.821593 63.515322 
L 201.821593 62.015776 
L 202.019954 62.015776 
L 202.091929 61.016079 
L 202.146082 61.016079 
L 202.149004 57.517139 
L 202.798616 57.517139 
L 202.798616 56.517442 
L 202.929038 56.517442 
L 202.986228 53.018502 
L 203.047394 53.018502 
L 203.09728 52.018805 
L 203.244715 52.018805 
L 203.254317 50.019411 
L 203.707768 50.019411 
L 203.707768 48.020016 
L 203.83822 48.020016 
L 203.839547 47.020319 
L 203.986124 47.020319 
L 204.028152 44.021228 
L 338.688 44.021228 
L 338.688 44.021228 
" style="fill:none;stroke:#ffa500;stroke-linecap:square;stroke-width:1.5;"/>
   </g>
   <g id="line2d_52">
    <defs>
     <path d="M 0 -6 
L -1.347084 -1.854102 
L -5.706339 -1.854102 
L -2.179628 0.708204 
L -3.526712 4.854102 
L -0 2.291796 
L 3.526712 4.854102 
L 2.179628 0.708204 
L 5.706339 -1.854102 
L 1.347084 -1.854102 
z
" id="m3037c52d1f" style="stroke:#ffa500;stroke-linejoin:bevel;stroke-width:1.5;"/>
    </defs>
    <g>
     <use style="fill-opacity:0;stroke:#ffa500;stroke-linejoin:bevel;stroke-width:1.5;" x="97.16421" xlink:href="#m3037c52d1f" y="282.448997"/>
     <use style="fill-opacity:0;stroke:#ffa500;stroke-linejoin:bevel;stroke-width:1.5;" x="161.999419" xlink:href="#m3037c52d1f" y="223.966714"/>
     <use style="fill-opacity:0;stroke:#ffa500;stroke-linejoin:bevel;stroke-width:1.5;" x="193.653034" xlink:href="#m3037c52d1f" y="93.506236"/>
     <use style="fill-opacity:0;stroke:#ffa500;stroke-linejoin:bevel;stroke-width:1.5;" x="204.028152" xlink:href="#m3037c52d1f" y="44.521076"/>
     <use style="fill-opacity:0;stroke:#ffa500;stroke-linejoin:bevel;stroke-width:1.5;" x="204.028152" xlink:href="#m3037c52d1f" y="44.021228"/>
     <use style="fill-opacity:0;stroke:#ffa500;stroke-linejoin:bevel;stroke-width:1.5;" x="338.688" xlink:href="#m3037c52d1f" y="44.021228"/>
    </g>
   </g>
   <g id="line2d_53">
    <path style="fill:none;stroke:#ffa500;stroke-linecap:square;stroke-width:1.5;"/>
    <g/>
   </g>
   <g id="line2d_54">
    <path d="M 338.688 44.021228 
L 369.60768 293.845545 
" style="fill:none;stroke:#000080;stroke-linecap:square;stroke-width:1.5;"/>
    <g>
     <use style="fill-opacity:0;stroke:#000080;stroke-width:1.5;" x="338.688" xlink:href="#m21a47c03bc" y="44.021228"/>
     <use style="fill-opacity:0;stroke:#000080;stroke-width:1.5;" x="369.60768" xlink:href="#m21a47c03bc" y="293.845545"/>
    </g>
   </g>
   <g id="line2d_55">
    <path d="M 338.688 44.021228 
L 369.60768 212.270257 
" style="fill:none;stroke:#ff00ff;stroke-linecap:square;stroke-width:1.5;"/>
    <g>
     <use style="fill-opacity:0;stroke:#ff00ff;stroke-linejoin:miter;stroke-width:1.5;" x="338.688" xlink:href="#m4f067cbe67" y="44.021228"/>
     <use style="fill-opacity:0;stroke:#ff00ff;stroke-linejoin:miter;stroke-width:1.5;" x="369.60768" xlink:href="#m4f067cbe67" y="212.270257"/>
    </g>
   </g>
   <g id="line2d_56">
    <path d="M 338.688 44.021228 
L 369.60768 130.69497 
" style="fill:none;stroke:#ffa500;stroke-linecap:square;stroke-width:1.5;"/>
    <g>
     <use style="fill-opacity:0;stroke:#ffa500;stroke-linejoin:bevel;stroke-width:1.5;" x="338.688" xlink:href="#m3037c52d1f" y="44.021228"/>
     <use style="fill-opacity:0;stroke:#ffa500;stroke-linejoin:bevel;stroke-width:1.5;" x="369.60768" xlink:href="#m3037c52d1f" y="130.69497"/>
    </g>
   </g>
   <g id="line2d_57">
    <path d="M 338.688 298.944 
L 338.688 44.021228 
" style="fill:none;stroke:#000000;stroke-linecap:square;stroke-width:1.5;"/>
   </g>
   <g id="patch_3">
    <path d="M 57.6 298.944 
L 57.6 41.472 
" style="fill:none;stroke:#000000;stroke-linecap:square;stroke-linejoin:miter;stroke-width:0.8;"/>
   </g>
   <g id="patch_4">
    <path d="M 338.688 298.944 
L 338.688 41.472 
" style="fill:none;stroke:#000000;stroke-linecap:square;stroke-linejoin:miter;stroke-width:0.8;"/>
   </g>
   <g id="patch_5">
    <path d="M 57.6 298.944 
L 338.688 298.944 
" style="fill:none;stroke:#000000;stroke-linecap:square;stroke-linejoin:miter;stroke-width:0.8;"/>
   </g>
   <g id="patch_6">
    <path d="M 57.6 41.472 
L 338.688 41.472 
" style="fill:none;stroke:#000000;stroke-linecap:square;stroke-linejoin:miter;stroke-width:0.8;"/>
   </g>
   <g id="text_13">
    <!-- BIPOPsaAC -->
    <defs>
     <path d="M 19.671875 34.8125 
L 19.671875 8.109375 
L 35.5 8.109375 
Q 43.453125 8.109375 47.28125 11.40625 
Q 51.125 14.703125 51.125 21.484375 
Q 51.125 28.328125 47.28125 31.5625 
Q 43.453125 34.8125 35.5 34.8125 
z
M 19.671875 64.796875 
L 19.671875 42.828125 
L 34.28125 42.828125 
Q 41.5 42.828125 45.03125 45.53125 
Q 48.578125 48.25 48.578125 53.8125 
Q 48.578125 59.328125 45.03125 62.0625 
Q 41.5 64.796875 34.28125 64.796875 
z
M 9.8125 72.90625 
L 35.015625 72.90625 
Q 46.296875 72.90625 52.390625 68.21875 
Q 58.5 63.53125 58.5 54.890625 
Q 58.5 48.1875 55.375 44.234375 
Q 52.25 40.28125 46.1875 39.3125 
Q 53.46875 37.75 57.5 32.78125 
Q 61.53125 27.828125 61.53125 20.40625 
Q 61.53125 10.640625 54.890625 5.3125 
Q 48.25 0 35.984375 0 
L 9.8125 0 
z
" id="DejaVuSans-66"/>
     <path d="M 9.8125 72.90625 
L 19.671875 72.90625 
L 19.671875 0 
L 9.8125 0 
z
" id="DejaVuSans-73"/>
     <path d="M 19.671875 64.796875 
L 19.671875 37.40625 
L 32.078125 37.40625 
Q 38.96875 37.40625 42.71875 40.96875 
Q 46.484375 44.53125 46.484375 51.125 
Q 46.484375 57.671875 42.71875 61.234375 
Q 38.96875 64.796875 32.078125 64.796875 
z
M 9.8125 72.90625 
L 32.078125 72.90625 
Q 44.34375 72.90625 50.609375 67.359375 
Q 56.890625 61.8125 56.890625 51.125 
Q 56.890625 40.328125 50.609375 34.8125 
Q 44.34375 29.296875 32.078125 29.296875 
L 19.671875 29.296875 
L 19.671875 0 
L 9.8125 0 
z
" id="DejaVuSans-80"/>
     <path d="M 39.40625 66.21875 
Q 28.65625 66.21875 22.328125 58.203125 
Q 16.015625 50.203125 16.015625 36.375 
Q 16.015625 22.609375 22.328125 14.59375 
Q 28.65625 6.59375 39.40625 6.59375 
Q 50.140625 6.59375 56.421875 14.59375 
Q 62.703125 22.609375 62.703125 36.375 
Q 62.703125 50.203125 56.421875 58.203125 
Q 50.140625 66.21875 39.40625 66.21875 
z
M 39.40625 74.21875 
Q 54.734375 74.21875 63.90625 63.9375 
Q 73.09375 53.65625 73.09375 36.375 
Q 73.09375 19.140625 63.90625 8.859375 
Q 54.734375 -1.421875 39.40625 -1.421875 
Q 24.03125 -1.421875 14.8125 8.828125 
Q 5.609375 19.09375 5.609375 36.375 
Q 5.609375 53.65625 14.8125 63.9375 
Q 24.03125 74.21875 39.40625 74.21875 
z
" id="DejaVuSans-79"/>
     <path d="M 34.1875 63.1875 
L 20.796875 26.90625 
L 47.609375 26.90625 
z
M 28.609375 72.90625 
L 39.796875 72.90625 
L 67.578125 0 
L 57.328125 0 
L 50.6875 18.703125 
L 17.828125 18.703125 
L 11.1875 0 
L 0.78125 0 
z
" id="DejaVuSans-65"/>
     <path d="M 64.40625 67.28125 
L 64.40625 56.890625 
Q 59.421875 61.53125 53.78125 63.8125 
Q 48.140625 66.109375 41.796875 66.109375 
Q 29.296875 66.109375 22.65625 58.46875 
Q 16.015625 50.828125 16.015625 36.375 
Q 16.015625 21.96875 22.65625 14.328125 
Q 29.296875 6.6875 41.796875 6.6875 
Q 48.140625 6.6875 53.78125 8.984375 
Q 59.421875 11.28125 64.40625 15.921875 
L 64.40625 5.609375 
Q 59.234375 2.09375 53.4375 0.328125 
Q 47.65625 -1.421875 41.21875 -1.421875 
Q 24.65625 -1.421875 15.125 8.703125 
Q 5.609375 18.84375 5.609375 36.375 
Q 5.609375 53.953125 15.125 64.078125 
Q 24.65625 74.21875 41.21875 74.21875 
Q 47.75 74.21875 53.53125 72.484375 
Q 59.328125 70.75 64.40625 67.28125 
z
" id="DejaVuSans-67"/>
    </defs>
    <g transform="translate(375.22944 298.536482)scale(0.17 -0.17)">
     <use xlink:href="#DejaVuSans-66"/>
     <use x="68.603516" xlink:href="#DejaVuSans-73"/>
     <use x="98.095703" xlink:href="#DejaVuSans-80"/>
     <use x="158.398438" xlink:href="#DejaVuSans-79"/>
     <use x="237.109375" xlink:href="#DejaVuSans-80"/>
     <use x="297.396484" xlink:href="#DejaVuSans-115"/>
     <use x="349.496094" xlink:href="#DejaVuSans-97"/>
     <use x="410.775391" xlink:href="#DejaVuSans-65"/>
     <use x="479.167969" xlink:href="#DejaVuSans-67"/>
    </g>
   </g>
   <g id="text_14">
    <!-- IPOPsaACM -->
    <defs>
     <path d="M 9.8125 72.90625 
L 24.515625 72.90625 
L 43.109375 23.296875 
L 61.8125 72.90625 
L 76.515625 72.90625 
L 76.515625 0 
L 66.890625 0 
L 66.890625 64.015625 
L 48.09375 14.015625 
L 38.1875 14.015625 
L 19.390625 64.015625 
L 19.390625 0 
L 9.8125 0 
z
" id="DejaVuSans-77"/>
    </defs>
    <g transform="translate(375.22944 216.961195)scale(0.17 -0.17)">
     <use xlink:href="#DejaVuSans-73"/>
     <use x="29.492188" xlink:href="#DejaVuSans-80"/>
     <use x="89.794922" xlink:href="#DejaVuSans-79"/>
     <use x="168.505859" xlink:href="#DejaVuSans-80"/>
     <use x="228.792969" xlink:href="#DejaVuSans-115"/>
     <use x="280.892578" xlink:href="#DejaVuSans-97"/>
     <use x="342.171875" xlink:href="#DejaVuSans-65"/>
     <use x="410.564453" xlink:href="#DejaVuSans-67"/>
     <use x="480.388672" xlink:href="#DejaVuSans-77"/>
    </g>
   </g>
   <g id="text_15">
    <!-- BIPOP-saA -->
    <g transform="translate(375.22944 135.385908)scale(0.17 -0.17)">
     <use xlink:href="#DejaVuSans-66"/>
     <use x="68.603516" xlink:href="#DejaVuSans-73"/>
     <use x="98.095703" xlink:href="#DejaVuSans-80"/>
     <use x="158.398438" xlink:href="#DejaVuSans-79"/>
     <use x="237.109375" xlink:href="#DejaVuSans-80"/>
     <use x="297.380859" xlink:href="#DejaVuSans-45"/>
     <use x="333.464844" xlink:href="#DejaVuSans-115"/>
     <use x="385.564453" xlink:href="#DejaVuSans-97"/>
     <use x="446.84375" xlink:href="#DejaVuSans-65"/>
    </g>
   </g>
   <g id="text_16">
    <!-- best 2009 -->
    <defs>
     <path d="M 48.6875 27.296875 
Q 48.6875 37.203125 44.609375 42.84375 
Q 40.53125 48.484375 33.40625 48.484375 
Q 26.265625 48.484375 22.1875 42.84375 
Q 18.109375 37.203125 18.109375 27.296875 
Q 18.109375 17.390625 22.1875 11.75 
Q 26.265625 6.109375 33.40625 6.109375 
Q 40.53125 6.109375 44.609375 11.75 
Q 48.6875 17.390625 48.6875 27.296875 
z
M 18.109375 46.390625 
Q 20.953125 51.265625 25.265625 53.625 
Q 29.59375 56 35.59375 56 
Q 45.5625 56 51.78125 48.09375 
Q 58.015625 40.1875 58.015625 27.296875 
Q 58.015625 14.40625 51.78125 6.484375 
Q 45.5625 -1.421875 35.59375 -1.421875 
Q 29.59375 -1.421875 25.265625 0.953125 
Q 20.953125 3.328125 18.109375 8.203125 
L 18.109375 0 
L 9.078125 0 
L 9.078125 75.984375 
L 18.109375 75.984375 
z
" id="DejaVuSans-98"/>
     <path d="M 10.984375 1.515625 
L 10.984375 10.5 
Q 14.703125 8.734375 18.5 7.8125 
Q 22.3125 6.890625 25.984375 6.890625 
Q 35.75 6.890625 40.890625 13.453125 
Q 46.046875 20.015625 46.78125 33.40625 
Q 43.953125 29.203125 39.59375 26.953125 
Q 35.25 24.703125 29.984375 24.703125 
Q 19.046875 24.703125 12.671875 31.3125 
Q 6.296875 37.9375 6.296875 49.421875 
Q 6.296875 60.640625 12.9375 67.421875 
Q 19.578125 74.21875 30.609375 74.21875 
Q 43.265625 74.21875 49.921875 64.515625 
Q 56.59375 54.828125 56.59375 36.375 
Q 56.59375 19.140625 48.40625 8.859375 
Q 40.234375 -1.421875 26.421875 -1.421875 
Q 22.703125 -1.421875 18.890625 -0.6875 
Q 15.09375 0.046875 10.984375 1.515625 
z
M 30.609375 32.421875 
Q 37.25 32.421875 41.125 36.953125 
Q 45.015625 41.5 45.015625 49.421875 
Q 45.015625 57.28125 41.125 61.84375 
Q 37.25 66.40625 30.609375 66.40625 
Q 23.96875 66.40625 20.09375 61.84375 
Q 16.21875 57.28125 16.21875 49.421875 
Q 16.21875 41.5 20.09375 36.953125 
Q 23.96875 32.421875 30.609375 32.421875 
z
" id="DejaVuSans-57"/>
    </defs>
    <g transform="translate(375.22944 53.810621)scale(0.17 -0.17)">
     <use xlink:href="#DejaVuSans-98"/>
     <use x="63.476562" xlink:href="#DejaVuSans-101"/>
     <use x="125" xlink:href="#DejaVuSans-115"/>
     <use x="177.099609" xlink:href="#DejaVuSans-116"/>
     <use x="216.308594" xlink:href="#DejaVuSans-32"/>
     <use x="248.095703" xlink:href="#DejaVuSans-50"/>
     <use x="311.71875" xlink:href="#DejaVuSans-48"/>
     <use x="375.341797" xlink:href="#DejaVuSans-48"/>
     <use x="438.964844" xlink:href="#DejaVuSans-57"/>
    </g>
   </g>
   <g id="text_17">
    <!-- bbob f15, 3-D -->
    <defs>
     <path d="M 10.796875 72.90625 
L 49.515625 72.90625 
L 49.515625 64.59375 
L 19.828125 64.59375 
L 19.828125 46.734375 
Q 21.96875 47.46875 24.109375 47.828125 
Q 26.265625 48.1875 28.421875 48.1875 
Q 40.625 48.1875 47.75 41.5 
Q 54.890625 34.8125 54.890625 23.390625 
Q 54.890625 11.625 47.5625 5.09375 
Q 40.234375 -1.421875 26.90625 -1.421875 
Q 22.3125 -1.421875 17.546875 -0.640625 
Q 12.796875 0.140625 7.71875 1.703125 
L 7.71875 11.625 
Q 12.109375 9.234375 16.796875 8.0625 
Q 21.484375 6.890625 26.703125 6.890625 
Q 35.15625 6.890625 40.078125 11.328125 
Q 45.015625 15.765625 45.015625 23.390625 
Q 45.015625 31 40.078125 35.4375 
Q 35.15625 39.890625 26.703125 39.890625 
Q 22.75 39.890625 18.8125 39.015625 
Q 14.890625 38.140625 10.796875 36.28125 
z
" id="DejaVuSans-53"/>
     <path d="M 40.578125 39.3125 
Q 47.65625 37.796875 51.625 33 
Q 55.609375 28.21875 55.609375 21.1875 
Q 55.609375 10.40625 48.1875 4.484375 
Q 40.765625 -1.421875 27.09375 -1.421875 
Q 22.515625 -1.421875 17.65625 -0.515625 
Q 12.796875 0.390625 7.625 2.203125 
L 7.625 11.71875 
Q 11.71875 9.328125 16.59375 8.109375 
Q 21.484375 6.890625 26.8125 6.890625 
Q 36.078125 6.890625 40.9375 10.546875 
Q 45.796875 14.203125 45.796875 21.1875 
Q 45.796875 27.640625 41.28125 31.265625 
Q 36.765625 34.90625 28.71875 34.90625 
L 20.21875 34.90625 
L 20.21875 43.015625 
L 29.109375 43.015625 
Q 36.375 43.015625 40.234375 45.921875 
Q 44.09375 48.828125 44.09375 54.296875 
Q 44.09375 59.90625 40.109375 62.90625 
Q 36.140625 65.921875 28.71875 65.921875 
Q 24.65625 65.921875 20.015625 65.03125 
Q 15.375 64.15625 9.8125 62.3125 
L 9.8125 71.09375 
Q 15.4375 72.65625 20.34375 73.4375 
Q 25.25 74.21875 29.59375 74.21875 
Q 40.828125 74.21875 47.359375 69.109375 
Q 53.90625 64.015625 53.90625 55.328125 
Q 53.90625 49.265625 50.4375 45.09375 
Q 46.96875 40.921875 40.578125 39.3125 
z
" id="DejaVuSans-51"/>
     <path d="M 19.671875 64.796875 
L 19.671875 8.109375 
L 31.59375 8.109375 
Q 46.6875 8.109375 53.6875 14.9375 
Q 60.6875 21.78125 60.6875 36.53125 
Q 60.6875 51.171875 53.6875 57.984375 
Q 46.6875 64.796875 31.59375 64.796875 
z
M 9.8125 72.90625 
L 30.078125 72.90625 
Q 51.265625 72.90625 61.171875 64.09375 
Q 71.09375 55.28125 71.09375 36.53125 
Q 71.09375 17.671875 61.125 8.828125 
Q 51.171875 0 30.078125 0 
L 9.8125 0 
z
" id="DejaVuSans-68"/>
    </defs>
    <g transform="translate(60.41088 51.797126)scale(0.102 -0.102)">
     <use xlink:href="#DejaVuSans-98"/>
     <use x="63.476562" xlink:href="#DejaVuSans-98"/>
     <use x="126.953125" xlink:href="#DejaVuSans-111"/>
     <use x="188.134766" xlink:href="#DejaVuSans-98"/>
     <use x="251.611328" xlink:href="#DejaVuSans-32"/>
     <use x="283.398438" xlink:href="#DejaVuSans-102"/>
     <use x="318.603516" xlink:href="#DejaVuSans-49"/>
     <use x="382.226562" xlink:href="#DejaVuSans-53"/>
     <use x="445.849609" xlink:href="#DejaVuSans-44"/>
     <use x="477.636719" xlink:href="#DejaVuSans-32"/>
     <use x="509.423828" xlink:href="#DejaVuSans-51"/>
     <use x="573.046875" xlink:href="#DejaVuSans-45"/>
     <use x="609.130859" xlink:href="#DejaVuSans-68"/>
    </g>
    <!-- 51 targets: 100..1e-08 -->
    <defs>
     <path d="M 11.71875 12.40625 
L 22.015625 12.40625 
L 22.015625 0 
L 11.71875 0 
z
M 11.71875 51.703125 
L 22.015625 51.703125 
L 22.015625 39.3125 
L 11.71875 39.3125 
z
" id="DejaVuSans-58"/>
    </defs>
    <g transform="translate(60.41088 63.218895)scale(0.102 -0.102)">
     <use xlink:href="#DejaVuSans-53"/>
     <use x="63.623047" xlink:href="#DejaVuSans-49"/>
     <use x="127.246094" xlink:href="#DejaVuSans-32"/>
     <use x="159.033203" xlink:href="#DejaVuSans-116"/>
     <use x="198.242188" xlink:href="#DejaVuSans-97"/>
     <use x="259.521484" xlink:href="#DejaVuSans-114"/>
     <use x="300.619141" xlink:href="#DejaVuSans-103"/>
     <use x="364.095703" xlink:href="#DejaVuSans-101"/>
     <use x="425.619141" xlink:href="#DejaVuSans-116"/>
     <use x="464.828125" xlink:href="#DejaVuSans-115"/>
     <use x="516.927734" xlink:href="#DejaVuSans-58"/>
     <use x="550.619141" xlink:href="#DejaVuSans-32"/>
     <use x="582.40625" xlink:href="#DejaVuSans-49"/>
     <use x="646.029297" xlink:href="#DejaVuSans-48"/>
     <use x="709.652344" xlink:href="#DejaVuSans-48"/>
     <use x="773.275391" xlink:href="#DejaVuSans-46"/>
     <use x="805.0625" xlink:href="#DejaVuSans-46"/>
     <use x="836.849609" xlink:href="#DejaVuSans-49"/>
     <use x="900.472656" xlink:href="#DejaVuSans-101"/>
     <use x="961.996094" xlink:href="#DejaVuSans-45"/>
     <use x="998.080078" xlink:href="#DejaVuSans-48"/>
     <use x="1061.703125" xlink:href="#DejaVuSans-56"/>
    </g>
    <!-- 15 instances -->
    <g transform="translate(60.41088 74.640664)scale(0.102 -0.102)">
     <use xlink:href="#DejaVuSans-49"/>
     <use x="63.623047" xlink:href="#DejaVuSans-53"/>
     <use x="127.246094" xlink:href="#DejaVuSans-32"/>
     <use x="159.033203" xlink:href="#DejaVuSans-105"/>
     <use x="186.816406" xlink:href="#DejaVuSans-110"/>
     <use x="250.195312" xlink:href="#DejaVuSans-115"/>
     <use x="302.294922" xlink:href="#DejaVuSans-116"/>
     <use x="341.503906" xlink:href="#DejaVuSans-97"/>
     <use x="402.783203" xlink:href="#DejaVuSans-110"/>
     <use x="466.162109" xlink:href="#DejaVuSans-99"/>
     <use x="521.142578" xlink:href="#DejaVuSans-101"/>
     <use x="582.666016" xlink:href="#DejaVuSans-115"/>
    </g>
   </g>
   <g id="text_18">
    <!-- v2.3.14 -->
    <g style="fill:#808080;" transform="translate(179.2815 294.289592)scale(0.1 -0.1)">
     <use xlink:href="#DejaVuSans-118"/>
     <use x="59.179688" xlink:href="#DejaVuSans-50"/>
     <use x="122.802734" xlink:href="#DejaVuSans-46"/>
     <use x="154.589844" xlink:href="#DejaVuSans-51"/>
     <use x="218.212891" xlink:href="#DejaVuSans-46"/>
     <use x="250" xlink:href="#DejaVuSans-49"/>
     <use x="313.623047" xlink:href="#DejaVuSans-52"/>
    </g>
   </g>
   <g id="text_19">
    <!-- 15 Rastrigin -->
    <defs>
     <path d="M 44.390625 34.1875 
Q 47.5625 33.109375 50.5625 29.59375 
Q 53.5625 26.078125 56.59375 19.921875 
L 66.609375 0 
L 56 0 
L 46.6875 18.703125 
Q 43.0625 26.03125 39.671875 28.421875 
Q 36.28125 30.8125 30.421875 30.8125 
L 19.671875 30.8125 
L 19.671875 0 
L 9.8125 0 
L 9.8125 72.90625 
L 32.078125 72.90625 
Q 44.578125 72.90625 50.734375 67.671875 
Q 56.890625 62.453125 56.890625 51.90625 
Q 56.890625 45.015625 53.6875 40.46875 
Q 50.484375 35.9375 44.390625 34.1875 
z
M 19.671875 64.796875 
L 19.671875 38.921875 
L 32.078125 38.921875 
Q 39.203125 38.921875 42.84375 42.21875 
Q 46.484375 45.515625 46.484375 51.90625 
Q 46.484375 58.296875 42.84375 61.546875 
Q 39.203125 64.796875 32.078125 64.796875 
z
" id="DejaVuSans-82"/>
    </defs>
    <g transform="translate(137.684625 35.472)scale(0.2 -0.2)">
     <use xlink:href="#DejaVuSans-49"/>
     <use x="63.623047" xlink:href="#DejaVuSans-53"/>
     <use x="127.246094" xlink:href="#DejaVuSans-32"/>
     <use x="159.033203" xlink:href="#DejaVuSans-82"/>
     <use x="228.484375" xlink:href="#DejaVuSans-97"/>
     <use x="289.763672" xlink:href="#DejaVuSans-115"/>
     <use x="341.863281" xlink:href="#DejaVuSans-116"/>
     <use x="381.072266" xlink:href="#DejaVuSans-114"/>
     <use x="422.185547" xlink:href="#DejaVuSans-105"/>
     <use x="449.96875" xlink:href="#DejaVuSans-103"/>
     <use x="513.445312" xlink:href="#DejaVuSans-105"/>
     <use x="541.228516" xlink:href="#DejaVuSans-110"/>
    </g>
   </g>
  </g>
 </g>
 <defs>
  <clipPath id="p2ac64340db">
   <rect height="257.472" width="281.088" x="57.6" y="41.472"/>
  </clipPath>
 </defs>
</svg>
