<?xml version="1.0" encoding="utf-8" standalone="no"?>
<!DOCTYPE svg PUBLIC "-//W3C//DTD SVG 1.1//EN"
  "http://www.w3.org/Graphics/SVG/1.1/DTD/svg11.dtd">
<!-- Created with matplotlib (https://matplotlib.org/) -->
<svg height="345.6pt" version="1.1" viewBox="0 0 460.8 345.6" width="460.8pt" xmlns="http://www.w3.org/2000/svg" xmlns:xlink="http://www.w3.org/1999/xlink">
 <defs>
  <style type="text/css">
*{stroke-linecap:butt;stroke-linejoin:round;}
  </style>
 </defs>
 <g id="figure_1">
  <g id="patch_1">
   <path d="M 0 345.6 
L 460.8 345.6 
L 460.8 0 
L 0 0 
z
" style="fill:#ffffff;"/>
  </g>
  <g id="axes_1">
   <g id="patch_2">
    <path d="M 57.6 298.944 
L 338.688 298.944 
L 338.688 41.472 
L 57.6 41.472 
z
" style="fill:#ffffff;"/>
   </g>
   <g id="line2d_1">
    <path d="M 38.440992 298.944 
L 38.440992 278.950057 
L 57.6 278.950057 
L 57.6 273.951571 
L 69.687988 273.951571 
L 69.687988 268.953086 
L 84.464254 268.953086 
L 84.464254 263.9546 
L 93.121756 263.9546 
L 93.121756 258.956114 
L 103.203018 258.956114 
L 103.203018 253.957628 
L 127.695124 253.957628 
L 127.695124 248.959143 
L 129.385722 248.959143 
L 129.385722 243.960657 
L 141.235139 243.960657 
L 141.235139 238.962171 
L 142.664255 238.962171 
L 142.664255 233.963685 
L 143.902815 233.963685 
L 143.902815 228.9652 
L 143.943994 228.9652 
L 143.943994 223.966714 
L 143.985075 223.966714 
L 143.985075 218.968228 
L 144.350522 218.968228 
L 144.350522 213.969743 
L 144.390658 213.969743 
L 144.390658 208.971257 
L 144.430703 208.971257 
L 144.430703 203.972771 
L 144.470655 203.972771 
L 144.470655 198.974285 
L 144.550287 198.974285 
L 144.550287 193.9758 
L 145.020588 193.9758 
L 145.020588 188.977314 
L 145.097753 188.977314 
L 145.097753 183.978828 
L 145.212864 183.978828 
L 145.212864 173.981857 
L 145.289185 173.981857 
L 145.289185 168.983371 
L 145.403044 168.983371 
L 145.403044 158.9864 
L 145.440832 158.9864 
L 145.440832 153.987914 
L 145.516164 153.987914 
L 145.516164 148.989428 
L 145.553708 148.989428 
L 145.553708 143.990942 
L 145.591172 143.990942 
L 145.591172 138.992457 
L 145.628555 138.992457 
L 145.628555 128.995485 
L 145.665858 128.995485 
L 145.665858 123.996999 
L 145.703082 123.996999 
L 145.703082 118.998514 
L 145.851187 118.998514 
L 145.851187 114.000028 
L 145.888018 114.000028 
L 145.888018 104.003056 
L 145.961446 104.003056 
L 145.961446 99.004571 
L 146.034567 99.004571 
L 146.034567 89.007599 
L 146.071013 89.007599 
L 146.071013 84.009114 
L 146.107383 84.009114 
L 146.107383 79.010628 
L 146.143677 79.010628 
L 146.143677 74.012142 
L 146.179895 74.012142 
L 146.179895 64.015171 
L 146.216039 64.015171 
L 146.216039 59.016685 
L 146.288102 59.016685 
L 146.288102 54.018199 
L 146.324022 54.018199 
L 146.324022 49.019713 
L 148.54473 49.019713 
L 148.54473 44.021228 
L 338.688 44.021228 
" style="fill:none;stroke:#f5deb3;stroke-linecap:square;stroke-width:4;"/>
   </g>
   <g id="line2d_2">
    <defs>
     <path d="M -0 7.778175 
L 7.778175 0 
L 0 -7.778175 
L -7.778175 -0 
z
" id="m59cf772f55" style="stroke:#f5deb3;stroke-linejoin:miter;stroke-width:1.5;"/>
    </defs>
    <g>
     <use style="fill:#f5deb3;stroke:#f5deb3;stroke-linejoin:miter;stroke-width:1.5;" x="93.121756" xlink:href="#m59cf772f55" y="263.9546"/>
     <use style="fill:#f5deb3;stroke:#f5deb3;stroke-linejoin:miter;stroke-width:1.5;" x="145.553708" xlink:href="#m59cf772f55" y="148.989428"/>
     <use style="fill:#f5deb3;stroke:#f5deb3;stroke-linejoin:miter;stroke-width:1.5;" x="146.216039" xlink:href="#m59cf772f55" y="64.015171"/>
     <use style="fill:#f5deb3;stroke:#f5deb3;stroke-linejoin:miter;stroke-width:1.5;" x="148.54473" xlink:href="#m59cf772f55" y="44.021228"/>
     <use style="fill:#f5deb3;stroke:#f5deb3;stroke-linejoin:miter;stroke-width:1.5;" x="148.54473" xlink:href="#m59cf772f55" y="44.021228"/>
     <use style="fill:#f5deb3;stroke:#f5deb3;stroke-linejoin:miter;stroke-width:1.5;" x="338.688" xlink:href="#m59cf772f55" y="44.021228"/>
    </g>
   </g>
   <g id="line2d_3">
    <path style="fill:none;stroke:#f5deb3;stroke-linecap:square;stroke-width:4;"/>
    <g/>
   </g>
   <g id="line2d_4">
    <path d="M 338.688 44.021228 
L 369.60768 49.119683 
" style="fill:none;stroke:#f5deb3;stroke-linecap:square;stroke-width:4;"/>
    <g>
     <use style="fill:#f5deb3;stroke:#f5deb3;stroke-linejoin:miter;stroke-width:1.5;" x="338.688" xlink:href="#m59cf772f55" y="44.021228"/>
     <use style="fill:#f5deb3;stroke:#f5deb3;stroke-linejoin:miter;stroke-width:1.5;" x="369.60768" xlink:href="#m59cf772f55" y="49.119683"/>
    </g>
   </g>
   <g id="matplotlib.axis_1">
    <g id="xtick_1">
     <g id="line2d_5">
      <path clip-path="url(#pbb7d487c56)" d="M 57.6 298.944 
L 57.6 41.472 
" style="fill:none;stroke:#b0b0b0;stroke-linecap:square;stroke-width:0.8;"/>
     </g>
     <g id="line2d_6">
      <defs>
       <path d="M 0 0 
L 0 3.5 
" id="me260d8ca25" style="stroke:#000000;stroke-width:0.8;"/>
      </defs>
      <g>
       <use style="stroke:#000000;stroke-width:0.8;" x="57.6" xlink:href="#me260d8ca25" y="298.944"/>
      </g>
     </g>
     <g id="text_1">
      <!-- 0 -->
      <defs>
       <path d="M 31.78125 66.40625 
Q 24.171875 66.40625 20.328125 58.90625 
Q 16.5 51.421875 16.5 36.375 
Q 16.5 21.390625 20.328125 13.890625 
Q 24.171875 6.390625 31.78125 6.390625 
Q 39.453125 6.390625 43.28125 13.890625 
Q 47.125 21.390625 47.125 36.375 
Q 47.125 51.421875 43.28125 58.90625 
Q 39.453125 66.40625 31.78125 66.40625 
z
M 31.78125 74.21875 
Q 44.046875 74.21875 50.515625 64.515625 
Q 56.984375 54.828125 56.984375 36.375 
Q 56.984375 17.96875 50.515625 8.265625 
Q 44.046875 -1.421875 31.78125 -1.421875 
Q 19.53125 -1.421875 13.0625 8.265625 
Q 6.59375 17.96875 6.59375 36.375 
Q 6.59375 54.828125 13.0625 64.515625 
Q 19.53125 74.21875 31.78125 74.21875 
z
" id="DejaVuSans-48"/>
      </defs>
      <g transform="translate(51.2375 321.140875)scale(0.2 -0.2)">
       <use xlink:href="#DejaVuSans-48"/>
      </g>
     </g>
    </g>
    <g id="xtick_2">
     <g id="line2d_7">
      <path clip-path="url(#pbb7d487c56)" d="M 137.910857 298.944 
L 137.910857 41.472 
" style="fill:none;stroke:#b0b0b0;stroke-linecap:square;stroke-width:0.8;"/>
     </g>
     <g id="line2d_8">
      <g>
       <use style="stroke:#000000;stroke-width:0.8;" x="137.910857" xlink:href="#me260d8ca25" y="298.944"/>
      </g>
     </g>
     <g id="text_2">
      <!-- 2 -->
      <defs>
       <path d="M 19.1875 8.296875 
L 53.609375 8.296875 
L 53.609375 0 
L 7.328125 0 
L 7.328125 8.296875 
Q 12.9375 14.109375 22.625 23.890625 
Q 32.328125 33.6875 34.8125 36.53125 
Q 39.546875 41.84375 41.421875 45.53125 
Q 43.3125 49.21875 43.3125 52.78125 
Q 43.3125 58.59375 39.234375 62.25 
Q 35.15625 65.921875 28.609375 65.921875 
Q 23.96875 65.921875 18.8125 64.3125 
Q 13.671875 62.703125 7.8125 59.421875 
L 7.8125 69.390625 
Q 13.765625 71.78125 18.9375 73 
Q 24.125 74.21875 28.421875 74.21875 
Q 39.75 74.21875 46.484375 68.546875 
Q 53.21875 62.890625 53.21875 53.421875 
Q 53.21875 48.921875 51.53125 44.890625 
Q 49.859375 40.875 45.40625 35.40625 
Q 44.1875 33.984375 37.640625 27.21875 
Q 31.109375 20.453125 19.1875 8.296875 
z
" id="DejaVuSans-50"/>
      </defs>
      <g transform="translate(131.548357 321.140875)scale(0.2 -0.2)">
       <use xlink:href="#DejaVuSans-50"/>
      </g>
     </g>
    </g>
    <g id="xtick_3">
     <g id="line2d_9">
      <path clip-path="url(#pbb7d487c56)" d="M 218.221714 298.944 
L 218.221714 41.472 
" style="fill:none;stroke:#b0b0b0;stroke-linecap:square;stroke-width:0.8;"/>
     </g>
     <g id="line2d_10">
      <g>
       <use style="stroke:#000000;stroke-width:0.8;" x="218.221714" xlink:href="#me260d8ca25" y="298.944"/>
      </g>
     </g>
     <g id="text_3">
      <!-- 4 -->
      <defs>
       <path d="M 37.796875 64.3125 
L 12.890625 25.390625 
L 37.796875 25.390625 
z
M 35.203125 72.90625 
L 47.609375 72.90625 
L 47.609375 25.390625 
L 58.015625 25.390625 
L 58.015625 17.1875 
L 47.609375 17.1875 
L 47.609375 0 
L 37.796875 0 
L 37.796875 17.1875 
L 4.890625 17.1875 
L 4.890625 26.703125 
z
" id="DejaVuSans-52"/>
      </defs>
      <g transform="translate(211.859214 321.140875)scale(0.2 -0.2)">
       <use xlink:href="#DejaVuSans-52"/>
      </g>
     </g>
    </g>
    <g id="xtick_4">
     <g id="line2d_11">
      <path clip-path="url(#pbb7d487c56)" d="M 298.532571 298.944 
L 298.532571 41.472 
" style="fill:none;stroke:#b0b0b0;stroke-linecap:square;stroke-width:0.8;"/>
     </g>
     <g id="line2d_12">
      <g>
       <use style="stroke:#000000;stroke-width:0.8;" x="298.532571" xlink:href="#me260d8ca25" y="298.944"/>
      </g>
     </g>
     <g id="text_4">
      <!-- 6 -->
      <defs>
       <path d="M 33.015625 40.375 
Q 26.375 40.375 22.484375 35.828125 
Q 18.609375 31.296875 18.609375 23.390625 
Q 18.609375 15.53125 22.484375 10.953125 
Q 26.375 6.390625 33.015625 6.390625 
Q 39.65625 6.390625 43.53125 10.953125 
Q 47.40625 15.53125 47.40625 23.390625 
Q 47.40625 31.296875 43.53125 35.828125 
Q 39.65625 40.375 33.015625 40.375 
z
M 52.59375 71.296875 
L 52.59375 62.3125 
Q 48.875 64.0625 45.09375 64.984375 
Q 41.3125 65.921875 37.59375 65.921875 
Q 27.828125 65.921875 22.671875 59.328125 
Q 17.53125 52.734375 16.796875 39.40625 
Q 19.671875 43.65625 24.015625 45.921875 
Q 28.375 48.1875 33.59375 48.1875 
Q 44.578125 48.1875 50.953125 41.515625 
Q 57.328125 34.859375 57.328125 23.390625 
Q 57.328125 12.15625 50.6875 5.359375 
Q 44.046875 -1.421875 33.015625 -1.421875 
Q 20.359375 -1.421875 13.671875 8.265625 
Q 6.984375 17.96875 6.984375 36.375 
Q 6.984375 53.65625 15.1875 63.9375 
Q 23.390625 74.21875 37.203125 74.21875 
Q 40.921875 74.21875 44.703125 73.484375 
Q 48.484375 72.75 52.59375 71.296875 
z
" id="DejaVuSans-54"/>
      </defs>
      <g transform="translate(292.170071 321.140875)scale(0.2 -0.2)">
       <use xlink:href="#DejaVuSans-54"/>
      </g>
     </g>
    </g>
    <g id="xtick_5">
     <g id="line2d_13">
      <path clip-path="url(#pbb7d487c56)" d="M 57.6 298.944 
L 57.6 41.472 
" style="fill:none;stroke:#b0b0b0;stroke-linecap:square;stroke-width:0.8;"/>
     </g>
     <g id="line2d_14">
      <defs>
       <path d="M 0 0 
L 0 2 
" id="m91bbd4da8c" style="stroke:#000000;stroke-width:0.6;"/>
      </defs>
      <g>
       <use style="stroke:#000000;stroke-width:0.6;" x="57.6" xlink:href="#m91bbd4da8c" y="298.944"/>
      </g>
     </g>
    </g>
    <g id="xtick_6">
     <g id="line2d_15">
      <path clip-path="url(#pbb7d487c56)" d="M 97.755429 298.944 
L 97.755429 41.472 
" style="fill:none;stroke:#b0b0b0;stroke-linecap:square;stroke-width:0.8;"/>
     </g>
     <g id="line2d_16">
      <g>
       <use style="stroke:#000000;stroke-width:0.6;" x="97.755429" xlink:href="#m91bbd4da8c" y="298.944"/>
      </g>
     </g>
    </g>
    <g id="xtick_7">
     <g id="line2d_17">
      <path clip-path="url(#pbb7d487c56)" d="M 137.910857 298.944 
L 137.910857 41.472 
" style="fill:none;stroke:#b0b0b0;stroke-linecap:square;stroke-width:0.8;"/>
     </g>
     <g id="line2d_18">
      <g>
       <use style="stroke:#000000;stroke-width:0.6;" x="137.910857" xlink:href="#m91bbd4da8c" y="298.944"/>
      </g>
     </g>
    </g>
    <g id="xtick_8">
     <g id="line2d_19">
      <path clip-path="url(#pbb7d487c56)" d="M 178.066286 298.944 
L 178.066286 41.472 
" style="fill:none;stroke:#b0b0b0;stroke-linecap:square;stroke-width:0.8;"/>
     </g>
     <g id="line2d_20">
      <g>
       <use style="stroke:#000000;stroke-width:0.6;" x="178.066286" xlink:href="#m91bbd4da8c" y="298.944"/>
      </g>
     </g>
    </g>
    <g id="xtick_9">
     <g id="line2d_21">
      <path clip-path="url(#pbb7d487c56)" d="M 218.221714 298.944 
L 218.221714 41.472 
" style="fill:none;stroke:#b0b0b0;stroke-linecap:square;stroke-width:0.8;"/>
     </g>
     <g id="line2d_22">
      <g>
       <use style="stroke:#000000;stroke-width:0.6;" x="218.221714" xlink:href="#m91bbd4da8c" y="298.944"/>
      </g>
     </g>
    </g>
    <g id="xtick_10">
     <g id="line2d_23">
      <path clip-path="url(#pbb7d487c56)" d="M 258.377143 298.944 
L 258.377143 41.472 
" style="fill:none;stroke:#b0b0b0;stroke-linecap:square;stroke-width:0.8;"/>
     </g>
     <g id="line2d_24">
      <g>
       <use style="stroke:#000000;stroke-width:0.6;" x="258.377143" xlink:href="#m91bbd4da8c" y="298.944"/>
      </g>
     </g>
    </g>
    <g id="xtick_11">
     <g id="line2d_25">
      <path clip-path="url(#pbb7d487c56)" d="M 298.532571 298.944 
L 298.532571 41.472 
" style="fill:none;stroke:#b0b0b0;stroke-linecap:square;stroke-width:0.8;"/>
     </g>
     <g id="line2d_26">
      <g>
       <use style="stroke:#000000;stroke-width:0.6;" x="298.532571" xlink:href="#m91bbd4da8c" y="298.944"/>
      </g>
     </g>
    </g>
    <g id="xtick_12">
     <g id="line2d_27">
      <path clip-path="url(#pbb7d487c56)" d="M 338.688 298.944 
L 338.688 41.472 
" style="fill:none;stroke:#b0b0b0;stroke-linecap:square;stroke-width:0.8;"/>
     </g>
     <g id="line2d_28">
      <g>
       <use style="stroke:#000000;stroke-width:0.6;" x="338.688" xlink:href="#m91bbd4da8c" y="298.944"/>
      </g>
     </g>
    </g>
    <g id="text_5">
     <!-- log10(# f-evals / dimension) -->
     <defs>
      <path d="M 9.421875 75.984375 
L 18.40625 75.984375 
L 18.40625 0 
L 9.421875 0 
z
" id="DejaVuSans-108"/>
      <path d="M 30.609375 48.390625 
Q 23.390625 48.390625 19.1875 42.75 
Q 14.984375 37.109375 14.984375 27.296875 
Q 14.984375 17.484375 19.15625 11.84375 
Q 23.34375 6.203125 30.609375 6.203125 
Q 37.796875 6.203125 41.984375 11.859375 
Q 46.1875 17.53125 46.1875 27.296875 
Q 46.1875 37.015625 41.984375 42.703125 
Q 37.796875 48.390625 30.609375 48.390625 
z
M 30.609375 56 
Q 42.328125 56 49.015625 48.375 
Q 55.71875 40.765625 55.71875 27.296875 
Q 55.71875 13.875 49.015625 6.21875 
Q 42.328125 -1.421875 30.609375 -1.421875 
Q 18.84375 -1.421875 12.171875 6.21875 
Q 5.515625 13.875 5.515625 27.296875 
Q 5.515625 40.765625 12.171875 48.375 
Q 18.84375 56 30.609375 56 
z
" id="DejaVuSans-111"/>
      <path d="M 45.40625 27.984375 
Q 45.40625 37.75 41.375 43.109375 
Q 37.359375 48.484375 30.078125 48.484375 
Q 22.859375 48.484375 18.828125 43.109375 
Q 14.796875 37.75 14.796875 27.984375 
Q 14.796875 18.265625 18.828125 12.890625 
Q 22.859375 7.515625 30.078125 7.515625 
Q 37.359375 7.515625 41.375 12.890625 
Q 45.40625 18.265625 45.40625 27.984375 
z
M 54.390625 6.78125 
Q 54.390625 -7.171875 48.1875 -13.984375 
Q 42 -20.796875 29.203125 -20.796875 
Q 24.46875 -20.796875 20.265625 -20.09375 
Q 16.0625 -19.390625 12.109375 -17.921875 
L 12.109375 -9.1875 
Q 16.0625 -11.328125 19.921875 -12.34375 
Q 23.78125 -13.375 27.78125 -13.375 
Q 36.625 -13.375 41.015625 -8.765625 
Q 45.40625 -4.15625 45.40625 5.171875 
L 45.40625 9.625 
Q 42.625 4.78125 38.28125 2.390625 
Q 33.9375 0 27.875 0 
Q 17.828125 0 11.671875 7.65625 
Q 5.515625 15.328125 5.515625 27.984375 
Q 5.515625 40.671875 11.671875 48.328125 
Q 17.828125 56 27.875 56 
Q 33.9375 56 38.28125 53.609375 
Q 42.625 51.21875 45.40625 46.390625 
L 45.40625 54.6875 
L 54.390625 54.6875 
z
" id="DejaVuSans-103"/>
      <path d="M 12.40625 8.296875 
L 28.515625 8.296875 
L 28.515625 63.921875 
L 10.984375 60.40625 
L 10.984375 69.390625 
L 28.421875 72.90625 
L 38.28125 72.90625 
L 38.28125 8.296875 
L 54.390625 8.296875 
L 54.390625 0 
L 12.40625 0 
z
" id="DejaVuSans-49"/>
      <path d="M 31 75.875 
Q 24.46875 64.65625 21.28125 53.65625 
Q 18.109375 42.671875 18.109375 31.390625 
Q 18.109375 20.125 21.3125 9.0625 
Q 24.515625 -2 31 -13.1875 
L 23.1875 -13.1875 
Q 15.875 -1.703125 12.234375 9.375 
Q 8.59375 20.453125 8.59375 31.390625 
Q 8.59375 42.28125 12.203125 53.3125 
Q 15.828125 64.359375 23.1875 75.875 
z
" id="DejaVuSans-40"/>
      <path d="M 51.125 44 
L 36.921875 44 
L 32.8125 27.6875 
L 47.125 27.6875 
z
M 43.796875 71.78125 
L 38.71875 51.515625 
L 52.984375 51.515625 
L 58.109375 71.78125 
L 65.921875 71.78125 
L 60.890625 51.515625 
L 76.125 51.515625 
L 76.125 44 
L 58.984375 44 
L 54.984375 27.6875 
L 70.515625 27.6875 
L 70.515625 20.21875 
L 53.078125 20.21875 
L 48 0 
L 40.1875 0 
L 45.21875 20.21875 
L 30.90625 20.21875 
L 25.875 0 
L 18.015625 0 
L 23.09375 20.21875 
L 7.71875 20.21875 
L 7.71875 27.6875 
L 24.90625 27.6875 
L 29 44 
L 13.28125 44 
L 13.28125 51.515625 
L 30.90625 51.515625 
L 35.890625 71.78125 
z
" id="DejaVuSans-35"/>
      <path id="DejaVuSans-32"/>
      <path d="M 37.109375 75.984375 
L 37.109375 68.5 
L 28.515625 68.5 
Q 23.6875 68.5 21.796875 66.546875 
Q 19.921875 64.59375 19.921875 59.515625 
L 19.921875 54.6875 
L 34.71875 54.6875 
L 34.71875 47.703125 
L 19.921875 47.703125 
L 19.921875 0 
L 10.890625 0 
L 10.890625 47.703125 
L 2.296875 47.703125 
L 2.296875 54.6875 
L 10.890625 54.6875 
L 10.890625 58.5 
Q 10.890625 67.625 15.140625 71.796875 
Q 19.390625 75.984375 28.609375 75.984375 
z
" id="DejaVuSans-102"/>
      <path d="M 4.890625 31.390625 
L 31.203125 31.390625 
L 31.203125 23.390625 
L 4.890625 23.390625 
z
" id="DejaVuSans-45"/>
      <path d="M 56.203125 29.59375 
L 56.203125 25.203125 
L 14.890625 25.203125 
Q 15.484375 15.921875 20.484375 11.0625 
Q 25.484375 6.203125 34.421875 6.203125 
Q 39.59375 6.203125 44.453125 7.46875 
Q 49.3125 8.734375 54.109375 11.28125 
L 54.109375 2.78125 
Q 49.265625 0.734375 44.1875 -0.34375 
Q 39.109375 -1.421875 33.890625 -1.421875 
Q 20.796875 -1.421875 13.15625 6.1875 
Q 5.515625 13.8125 5.515625 26.8125 
Q 5.515625 40.234375 12.765625 48.109375 
Q 20.015625 56 32.328125 56 
Q 43.359375 56 49.78125 48.890625 
Q 56.203125 41.796875 56.203125 29.59375 
z
M 47.21875 32.234375 
Q 47.125 39.59375 43.09375 43.984375 
Q 39.0625 48.390625 32.421875 48.390625 
Q 24.90625 48.390625 20.390625 44.140625 
Q 15.875 39.890625 15.1875 32.171875 
z
" id="DejaVuSans-101"/>
      <path d="M 2.984375 54.6875 
L 12.5 54.6875 
L 29.59375 8.796875 
L 46.6875 54.6875 
L 56.203125 54.6875 
L 35.6875 0 
L 23.484375 0 
z
" id="DejaVuSans-118"/>
      <path d="M 34.28125 27.484375 
Q 23.390625 27.484375 19.1875 25 
Q 14.984375 22.515625 14.984375 16.5 
Q 14.984375 11.71875 18.140625 8.90625 
Q 21.296875 6.109375 26.703125 6.109375 
Q 34.1875 6.109375 38.703125 11.40625 
Q 43.21875 16.703125 43.21875 25.484375 
L 43.21875 27.484375 
z
M 52.203125 31.203125 
L 52.203125 0 
L 43.21875 0 
L 43.21875 8.296875 
Q 40.140625 3.328125 35.546875 0.953125 
Q 30.953125 -1.421875 24.3125 -1.421875 
Q 15.921875 -1.421875 10.953125 3.296875 
Q 6 8.015625 6 15.921875 
Q 6 25.140625 12.171875 29.828125 
Q 18.359375 34.515625 30.609375 34.515625 
L 43.21875 34.515625 
L 43.21875 35.40625 
Q 43.21875 41.609375 39.140625 45 
Q 35.0625 48.390625 27.6875 48.390625 
Q 23 48.390625 18.546875 47.265625 
Q 14.109375 46.140625 10.015625 43.890625 
L 10.015625 52.203125 
Q 14.9375 54.109375 19.578125 55.046875 
Q 24.21875 56 28.609375 56 
Q 40.484375 56 46.34375 49.84375 
Q 52.203125 43.703125 52.203125 31.203125 
z
" id="DejaVuSans-97"/>
      <path d="M 44.28125 53.078125 
L 44.28125 44.578125 
Q 40.484375 46.53125 36.375 47.5 
Q 32.28125 48.484375 27.875 48.484375 
Q 21.1875 48.484375 17.84375 46.4375 
Q 14.5 44.390625 14.5 40.28125 
Q 14.5 37.15625 16.890625 35.375 
Q 19.28125 33.59375 26.515625 31.984375 
L 29.59375 31.296875 
Q 39.15625 29.25 43.1875 25.515625 
Q 47.21875 21.78125 47.21875 15.09375 
Q 47.21875 7.46875 41.1875 3.015625 
Q 35.15625 -1.421875 24.609375 -1.421875 
Q 20.21875 -1.421875 15.453125 -0.5625 
Q 10.6875 0.296875 5.421875 2 
L 5.421875 11.28125 
Q 10.40625 8.6875 15.234375 7.390625 
Q 20.0625 6.109375 24.8125 6.109375 
Q 31.15625 6.109375 34.5625 8.28125 
Q 37.984375 10.453125 37.984375 14.40625 
Q 37.984375 18.0625 35.515625 20.015625 
Q 33.0625 21.96875 24.703125 23.78125 
L 21.578125 24.515625 
Q 13.234375 26.265625 9.515625 29.90625 
Q 5.8125 33.546875 5.8125 39.890625 
Q 5.8125 47.609375 11.28125 51.796875 
Q 16.75 56 26.8125 56 
Q 31.78125 56 36.171875 55.265625 
Q 40.578125 54.546875 44.28125 53.078125 
z
" id="DejaVuSans-115"/>
      <path d="M 25.390625 72.90625 
L 33.6875 72.90625 
L 8.296875 -9.28125 
L 0 -9.28125 
z
" id="DejaVuSans-47"/>
      <path d="M 45.40625 46.390625 
L 45.40625 75.984375 
L 54.390625 75.984375 
L 54.390625 0 
L 45.40625 0 
L 45.40625 8.203125 
Q 42.578125 3.328125 38.25 0.953125 
Q 33.9375 -1.421875 27.875 -1.421875 
Q 17.96875 -1.421875 11.734375 6.484375 
Q 5.515625 14.40625 5.515625 27.296875 
Q 5.515625 40.1875 11.734375 48.09375 
Q 17.96875 56 27.875 56 
Q 33.9375 56 38.25 53.625 
Q 42.578125 51.265625 45.40625 46.390625 
z
M 14.796875 27.296875 
Q 14.796875 17.390625 18.875 11.75 
Q 22.953125 6.109375 30.078125 6.109375 
Q 37.203125 6.109375 41.296875 11.75 
Q 45.40625 17.390625 45.40625 27.296875 
Q 45.40625 37.203125 41.296875 42.84375 
Q 37.203125 48.484375 30.078125 48.484375 
Q 22.953125 48.484375 18.875 42.84375 
Q 14.796875 37.203125 14.796875 27.296875 
z
" id="DejaVuSans-100"/>
      <path d="M 9.421875 54.6875 
L 18.40625 54.6875 
L 18.40625 0 
L 9.421875 0 
z
M 9.421875 75.984375 
L 18.40625 75.984375 
L 18.40625 64.59375 
L 9.421875 64.59375 
z
" id="DejaVuSans-105"/>
      <path d="M 52 44.1875 
Q 55.375 50.25 60.0625 53.125 
Q 64.75 56 71.09375 56 
Q 79.640625 56 84.28125 50.015625 
Q 88.921875 44.046875 88.921875 33.015625 
L 88.921875 0 
L 79.890625 0 
L 79.890625 32.71875 
Q 79.890625 40.578125 77.09375 44.375 
Q 74.3125 48.1875 68.609375 48.1875 
Q 61.625 48.1875 57.5625 43.546875 
Q 53.515625 38.921875 53.515625 30.90625 
L 53.515625 0 
L 44.484375 0 
L 44.484375 32.71875 
Q 44.484375 40.625 41.703125 44.40625 
Q 38.921875 48.1875 33.109375 48.1875 
Q 26.21875 48.1875 22.15625 43.53125 
Q 18.109375 38.875 18.109375 30.90625 
L 18.109375 0 
L 9.078125 0 
L 9.078125 54.6875 
L 18.109375 54.6875 
L 18.109375 46.1875 
Q 21.1875 51.21875 25.484375 53.609375 
Q 29.78125 56 35.6875 56 
Q 41.65625 56 45.828125 52.96875 
Q 50 49.953125 52 44.1875 
z
" id="DejaVuSans-109"/>
      <path d="M 54.890625 33.015625 
L 54.890625 0 
L 45.90625 0 
L 45.90625 32.71875 
Q 45.90625 40.484375 42.875 44.328125 
Q 39.84375 48.1875 33.796875 48.1875 
Q 26.515625 48.1875 22.3125 43.546875 
Q 18.109375 38.921875 18.109375 30.90625 
L 18.109375 0 
L 9.078125 0 
L 9.078125 54.6875 
L 18.109375 54.6875 
L 18.109375 46.1875 
Q 21.34375 51.125 25.703125 53.5625 
Q 30.078125 56 35.796875 56 
Q 45.21875 56 50.046875 50.171875 
Q 54.890625 44.34375 54.890625 33.015625 
z
" id="DejaVuSans-110"/>
      <path d="M 8.015625 75.875 
L 15.828125 75.875 
Q 23.140625 64.359375 26.78125 53.3125 
Q 30.421875 42.28125 30.421875 31.390625 
Q 30.421875 20.453125 26.78125 9.375 
Q 23.140625 -1.703125 15.828125 -13.1875 
L 8.015625 -13.1875 
Q 14.5 -2 17.703125 9.0625 
Q 20.90625 20.125 20.90625 31.390625 
Q 20.90625 42.671875 17.703125 53.65625 
Q 14.5 64.65625 8.015625 75.875 
z
" id="DejaVuSans-41"/>
     </defs>
     <g transform="translate(77.303219 342.217594)scale(0.17 -0.17)">
      <use xlink:href="#DejaVuSans-108"/>
      <use x="27.783203" xlink:href="#DejaVuSans-111"/>
      <use x="88.964844" xlink:href="#DejaVuSans-103"/>
      <use x="152.441406" xlink:href="#DejaVuSans-49"/>
      <use x="216.064453" xlink:href="#DejaVuSans-48"/>
      <use x="279.6875" xlink:href="#DejaVuSans-40"/>
      <use x="318.701172" xlink:href="#DejaVuSans-35"/>
      <use x="402.490234" xlink:href="#DejaVuSans-32"/>
      <use x="434.277344" xlink:href="#DejaVuSans-102"/>
      <use x="469.404297" xlink:href="#DejaVuSans-45"/>
      <use x="505.488281" xlink:href="#DejaVuSans-101"/>
      <use x="567.011719" xlink:href="#DejaVuSans-118"/>
      <use x="626.191406" xlink:href="#DejaVuSans-97"/>
      <use x="687.470703" xlink:href="#DejaVuSans-108"/>
      <use x="715.253906" xlink:href="#DejaVuSans-115"/>
      <use x="767.353516" xlink:href="#DejaVuSans-32"/>
      <use x="799.140625" xlink:href="#DejaVuSans-47"/>
      <use x="832.832031" xlink:href="#DejaVuSans-32"/>
      <use x="864.619141" xlink:href="#DejaVuSans-100"/>
      <use x="928.095703" xlink:href="#DejaVuSans-105"/>
      <use x="955.878906" xlink:href="#DejaVuSans-109"/>
      <use x="1053.291016" xlink:href="#DejaVuSans-101"/>
      <use x="1114.814453" xlink:href="#DejaVuSans-110"/>
      <use x="1178.193359" xlink:href="#DejaVuSans-115"/>
      <use x="1230.292969" xlink:href="#DejaVuSans-105"/>
      <use x="1258.076172" xlink:href="#DejaVuSans-111"/>
      <use x="1319.257812" xlink:href="#DejaVuSans-110"/>
      <use x="1382.636719" xlink:href="#DejaVuSans-41"/>
     </g>
    </g>
   </g>
   <g id="matplotlib.axis_2">
    <g id="ytick_1">
     <g id="line2d_29">
      <path clip-path="url(#pbb7d487c56)" d="M 57.6 298.944 
L 338.688 298.944 
" style="fill:none;stroke:#b0b0b0;stroke-linecap:square;stroke-width:0.8;"/>
     </g>
     <g id="line2d_30">
      <defs>
       <path d="M 0 0 
L -3.5 0 
" id="m5af59b6b52" style="stroke:#000000;stroke-width:0.8;"/>
      </defs>
      <g>
       <use style="stroke:#000000;stroke-width:0.8;" x="57.6" xlink:href="#m5af59b6b52" y="298.944"/>
      </g>
     </g>
     <g id="text_6">
      <!-- 0.0 -->
      <defs>
       <path d="M 10.6875 12.40625 
L 21 12.40625 
L 21 0 
L 10.6875 0 
z
" id="DejaVuSans-46"/>
      </defs>
      <g transform="translate(25.155 305.02275)scale(0.16 -0.16)">
       <use xlink:href="#DejaVuSans-48"/>
       <use x="63.623047" xlink:href="#DejaVuSans-46"/>
       <use x="95.410156" xlink:href="#DejaVuSans-48"/>
      </g>
     </g>
    </g>
    <g id="ytick_2">
     <g id="line2d_31">
      <path clip-path="url(#pbb7d487c56)" d="M 57.6 247.959446 
L 338.688 247.959446 
" style="fill:none;stroke:#b0b0b0;stroke-linecap:square;stroke-width:0.8;"/>
     </g>
     <g id="line2d_32">
      <g>
       <use style="stroke:#000000;stroke-width:0.8;" x="57.6" xlink:href="#m5af59b6b52" y="247.959446"/>
      </g>
     </g>
     <g id="text_7">
      <!-- 0.2 -->
      <g transform="translate(25.155 254.038196)scale(0.16 -0.16)">
       <use xlink:href="#DejaVuSans-48"/>
       <use x="63.623047" xlink:href="#DejaVuSans-46"/>
       <use x="95.410156" xlink:href="#DejaVuSans-50"/>
      </g>
     </g>
    </g>
    <g id="ytick_3">
     <g id="line2d_33">
      <path clip-path="url(#pbb7d487c56)" d="M 57.6 196.974891 
L 338.688 196.974891 
" style="fill:none;stroke:#b0b0b0;stroke-linecap:square;stroke-width:0.8;"/>
     </g>
     <g id="line2d_34">
      <g>
       <use style="stroke:#000000;stroke-width:0.8;" x="57.6" xlink:href="#m5af59b6b52" y="196.974891"/>
      </g>
     </g>
     <g id="text_8">
      <!-- 0.4 -->
      <g transform="translate(25.155 203.053641)scale(0.16 -0.16)">
       <use xlink:href="#DejaVuSans-48"/>
       <use x="63.623047" xlink:href="#DejaVuSans-46"/>
       <use x="95.410156" xlink:href="#DejaVuSans-52"/>
      </g>
     </g>
    </g>
    <g id="ytick_4">
     <g id="line2d_35">
      <path clip-path="url(#pbb7d487c56)" d="M 57.6 145.990337 
L 338.688 145.990337 
" style="fill:none;stroke:#b0b0b0;stroke-linecap:square;stroke-width:0.8;"/>
     </g>
     <g id="line2d_36">
      <g>
       <use style="stroke:#000000;stroke-width:0.8;" x="57.6" xlink:href="#m5af59b6b52" y="145.990337"/>
      </g>
     </g>
     <g id="text_9">
      <!-- 0.6 -->
      <g transform="translate(25.155 152.069087)scale(0.16 -0.16)">
       <use xlink:href="#DejaVuSans-48"/>
       <use x="63.623047" xlink:href="#DejaVuSans-46"/>
       <use x="95.410156" xlink:href="#DejaVuSans-54"/>
      </g>
     </g>
    </g>
    <g id="ytick_5">
     <g id="line2d_37">
      <path clip-path="url(#pbb7d487c56)" d="M 57.6 95.005782 
L 338.688 95.005782 
" style="fill:none;stroke:#b0b0b0;stroke-linecap:square;stroke-width:0.8;"/>
     </g>
     <g id="line2d_38">
      <g>
       <use style="stroke:#000000;stroke-width:0.8;" x="57.6" xlink:href="#m5af59b6b52" y="95.005782"/>
      </g>
     </g>
     <g id="text_10">
      <!-- 0.8 -->
      <defs>
       <path d="M 31.78125 34.625 
Q 24.75 34.625 20.71875 30.859375 
Q 16.703125 27.09375 16.703125 20.515625 
Q 16.703125 13.921875 20.71875 10.15625 
Q 24.75 6.390625 31.78125 6.390625 
Q 38.8125 6.390625 42.859375 10.171875 
Q 46.921875 13.96875 46.921875 20.515625 
Q 46.921875 27.09375 42.890625 30.859375 
Q 38.875 34.625 31.78125 34.625 
z
M 21.921875 38.8125 
Q 15.578125 40.375 12.03125 44.71875 
Q 8.5 49.078125 8.5 55.328125 
Q 8.5 64.0625 14.71875 69.140625 
Q 20.953125 74.21875 31.78125 74.21875 
Q 42.671875 74.21875 48.875 69.140625 
Q 55.078125 64.0625 55.078125 55.328125 
Q 55.078125 49.078125 51.53125 44.71875 
Q 48 40.375 41.703125 38.8125 
Q 48.828125 37.15625 52.796875 32.3125 
Q 56.78125 27.484375 56.78125 20.515625 
Q 56.78125 9.90625 50.3125 4.234375 
Q 43.84375 -1.421875 31.78125 -1.421875 
Q 19.734375 -1.421875 13.25 4.234375 
Q 6.78125 9.90625 6.78125 20.515625 
Q 6.78125 27.484375 10.78125 32.3125 
Q 14.796875 37.15625 21.921875 38.8125 
z
M 18.3125 54.390625 
Q 18.3125 48.734375 21.84375 45.5625 
Q 25.390625 42.390625 31.78125 42.390625 
Q 38.140625 42.390625 41.71875 45.5625 
Q 45.3125 48.734375 45.3125 54.390625 
Q 45.3125 60.0625 41.71875 63.234375 
Q 38.140625 66.40625 31.78125 66.40625 
Q 25.390625 66.40625 21.84375 63.234375 
Q 18.3125 60.0625 18.3125 54.390625 
z
" id="DejaVuSans-56"/>
      </defs>
      <g transform="translate(25.155 101.084532)scale(0.16 -0.16)">
       <use xlink:href="#DejaVuSans-48"/>
       <use x="63.623047" xlink:href="#DejaVuSans-46"/>
       <use x="95.410156" xlink:href="#DejaVuSans-56"/>
      </g>
     </g>
    </g>
    <g id="ytick_6">
     <g id="line2d_39">
      <path clip-path="url(#pbb7d487c56)" d="M 57.6 44.021228 
L 338.688 44.021228 
" style="fill:none;stroke:#b0b0b0;stroke-linecap:square;stroke-width:0.8;"/>
     </g>
     <g id="line2d_40">
      <g>
       <use style="stroke:#000000;stroke-width:0.8;" x="57.6" xlink:href="#m5af59b6b52" y="44.021228"/>
      </g>
     </g>
     <g id="text_11">
      <!-- 1.0 -->
      <g transform="translate(25.155 50.099978)scale(0.16 -0.16)">
       <use xlink:href="#DejaVuSans-49"/>
       <use x="63.623047" xlink:href="#DejaVuSans-46"/>
       <use x="95.410156" xlink:href="#DejaVuSans-48"/>
      </g>
     </g>
    </g>
    <g id="text_12">
     <!-- Fraction of function,target pairs -->
     <defs>
      <path d="M 9.8125 72.90625 
L 51.703125 72.90625 
L 51.703125 64.59375 
L 19.671875 64.59375 
L 19.671875 43.109375 
L 48.578125 43.109375 
L 48.578125 34.8125 
L 19.671875 34.8125 
L 19.671875 0 
L 9.8125 0 
z
" id="DejaVuSans-70"/>
      <path d="M 41.109375 46.296875 
Q 39.59375 47.171875 37.8125 47.578125 
Q 36.03125 48 33.890625 48 
Q 26.265625 48 22.1875 43.046875 
Q 18.109375 38.09375 18.109375 28.8125 
L 18.109375 0 
L 9.078125 0 
L 9.078125 54.6875 
L 18.109375 54.6875 
L 18.109375 46.1875 
Q 20.953125 51.171875 25.484375 53.578125 
Q 30.03125 56 36.53125 56 
Q 37.453125 56 38.578125 55.875 
Q 39.703125 55.765625 41.0625 55.515625 
z
" id="DejaVuSans-114"/>
      <path d="M 48.78125 52.59375 
L 48.78125 44.1875 
Q 44.96875 46.296875 41.140625 47.34375 
Q 37.3125 48.390625 33.40625 48.390625 
Q 24.65625 48.390625 19.8125 42.84375 
Q 14.984375 37.3125 14.984375 27.296875 
Q 14.984375 17.28125 19.8125 11.734375 
Q 24.65625 6.203125 33.40625 6.203125 
Q 37.3125 6.203125 41.140625 7.25 
Q 44.96875 8.296875 48.78125 10.40625 
L 48.78125 2.09375 
Q 45.015625 0.34375 40.984375 -0.53125 
Q 36.96875 -1.421875 32.421875 -1.421875 
Q 20.0625 -1.421875 12.78125 6.34375 
Q 5.515625 14.109375 5.515625 27.296875 
Q 5.515625 40.671875 12.859375 48.328125 
Q 20.21875 56 33.015625 56 
Q 37.15625 56 41.109375 55.140625 
Q 45.0625 54.296875 48.78125 52.59375 
z
" id="DejaVuSans-99"/>
      <path d="M 18.3125 70.21875 
L 18.3125 54.6875 
L 36.8125 54.6875 
L 36.8125 47.703125 
L 18.3125 47.703125 
L 18.3125 18.015625 
Q 18.3125 11.328125 20.140625 9.421875 
Q 21.96875 7.515625 27.59375 7.515625 
L 36.8125 7.515625 
L 36.8125 0 
L 27.59375 0 
Q 17.1875 0 13.234375 3.875 
Q 9.28125 7.765625 9.28125 18.015625 
L 9.28125 47.703125 
L 2.6875 47.703125 
L 2.6875 54.6875 
L 9.28125 54.6875 
L 9.28125 70.21875 
z
" id="DejaVuSans-116"/>
      <path d="M 8.5 21.578125 
L 8.5 54.6875 
L 17.484375 54.6875 
L 17.484375 21.921875 
Q 17.484375 14.15625 20.5 10.265625 
Q 23.53125 6.390625 29.59375 6.390625 
Q 36.859375 6.390625 41.078125 11.03125 
Q 45.3125 15.671875 45.3125 23.6875 
L 45.3125 54.6875 
L 54.296875 54.6875 
L 54.296875 0 
L 45.3125 0 
L 45.3125 8.40625 
Q 42.046875 3.421875 37.71875 1 
Q 33.40625 -1.421875 27.6875 -1.421875 
Q 18.265625 -1.421875 13.375 4.4375 
Q 8.5 10.296875 8.5 21.578125 
z
M 31.109375 56 
z
" id="DejaVuSans-117"/>
      <path d="M 11.71875 12.40625 
L 22.015625 12.40625 
L 22.015625 4 
L 14.015625 -11.625 
L 7.71875 -11.625 
L 11.71875 4 
z
" id="DejaVuSans-44"/>
      <path d="M 18.109375 8.203125 
L 18.109375 -20.796875 
L 9.078125 -20.796875 
L 9.078125 54.6875 
L 18.109375 54.6875 
L 18.109375 46.390625 
Q 20.953125 51.265625 25.265625 53.625 
Q 29.59375 56 35.59375 56 
Q 45.5625 56 51.78125 48.09375 
Q 58.015625 40.1875 58.015625 27.296875 
Q 58.015625 14.40625 51.78125 6.484375 
Q 45.5625 -1.421875 35.59375 -1.421875 
Q 29.59375 -1.421875 25.265625 0.953125 
Q 20.953125 3.328125 18.109375 8.203125 
z
M 48.6875 27.296875 
Q 48.6875 37.203125 44.609375 42.84375 
Q 40.53125 48.484375 33.40625 48.484375 
Q 26.265625 48.484375 22.1875 42.84375 
Q 18.109375 37.203125 18.109375 27.296875 
Q 18.109375 17.390625 22.1875 11.75 
Q 26.265625 6.109375 33.40625 6.109375 
Q 40.53125 6.109375 44.609375 11.75 
Q 48.6875 17.390625 48.6875 27.296875 
z
" id="DejaVuSans-112"/>
     </defs>
     <g transform="translate(17.619531 305.347375)rotate(-90)scale(0.17 -0.17)">
      <use xlink:href="#DejaVuSans-70"/>
      <use x="57.410156" xlink:href="#DejaVuSans-114"/>
      <use x="98.523438" xlink:href="#DejaVuSans-97"/>
      <use x="159.802734" xlink:href="#DejaVuSans-99"/>
      <use x="214.783203" xlink:href="#DejaVuSans-116"/>
      <use x="253.992188" xlink:href="#DejaVuSans-105"/>
      <use x="281.775391" xlink:href="#DejaVuSans-111"/>
      <use x="342.957031" xlink:href="#DejaVuSans-110"/>
      <use x="406.335938" xlink:href="#DejaVuSans-32"/>
      <use x="438.123047" xlink:href="#DejaVuSans-111"/>
      <use x="499.304688" xlink:href="#DejaVuSans-102"/>
      <use x="534.509766" xlink:href="#DejaVuSans-32"/>
      <use x="566.296875" xlink:href="#DejaVuSans-102"/>
      <use x="601.501953" xlink:href="#DejaVuSans-117"/>
      <use x="664.880859" xlink:href="#DejaVuSans-110"/>
      <use x="728.259766" xlink:href="#DejaVuSans-99"/>
      <use x="783.240234" xlink:href="#DejaVuSans-116"/>
      <use x="822.449219" xlink:href="#DejaVuSans-105"/>
      <use x="850.232422" xlink:href="#DejaVuSans-111"/>
      <use x="911.414062" xlink:href="#DejaVuSans-110"/>
      <use x="974.792969" xlink:href="#DejaVuSans-44"/>
      <use x="1006.580078" xlink:href="#DejaVuSans-116"/>
      <use x="1045.789062" xlink:href="#DejaVuSans-97"/>
      <use x="1107.068359" xlink:href="#DejaVuSans-114"/>
      <use x="1148.166016" xlink:href="#DejaVuSans-103"/>
      <use x="1211.642578" xlink:href="#DejaVuSans-101"/>
      <use x="1273.166016" xlink:href="#DejaVuSans-116"/>
      <use x="1312.375" xlink:href="#DejaVuSans-32"/>
      <use x="1344.162109" xlink:href="#DejaVuSans-112"/>
      <use x="1407.638672" xlink:href="#DejaVuSans-97"/>
      <use x="1468.917969" xlink:href="#DejaVuSans-105"/>
      <use x="1496.701172" xlink:href="#DejaVuSans-114"/>
      <use x="1537.814453" xlink:href="#DejaVuSans-115"/>
     </g>
    </g>
   </g>
   <g id="line2d_41">
    <defs>
     <path d="M 0 1.5 
C 0.397805 1.5 0.77937 1.341951 1.06066 1.06066 
C 1.341951 0.77937 1.5 0.397805 1.5 0 
C 1.5 -0.397805 1.341951 -0.77937 1.06066 -1.06066 
C 0.77937 -1.341951 0.397805 -1.5 0 -1.5 
C -0.397805 -1.5 -0.77937 -1.341951 -1.06066 -1.06066 
C -1.341951 -0.77937 -1.5 -0.397805 -1.5 0 
C -1.5 0.397805 -1.341951 0.77937 -1.06066 1.06066 
C -0.77937 1.341951 -0.397805 1.5 0 1.5 
z
" id="m57c462d3df" style="stroke:#f5deb3;"/>
    </defs>
    <g>
     <use style="fill:#f5deb3;stroke:#f5deb3;" x="148.54473" xlink:href="#m57c462d3df" y="44.021228"/>
     <use style="fill:#f5deb3;stroke:#f5deb3;" x="148.54473" xlink:href="#m57c462d3df" y="44.021228"/>
    </g>
   </g>
   <g id="line2d_42">
    <defs>
     <path d="M 0 1.5 
C 0.397805 1.5 0.77937 1.341951 1.06066 1.06066 
C 1.341951 0.77937 1.5 0.397805 1.5 0 
C 1.5 -0.397805 1.341951 -0.77937 1.06066 -1.06066 
C 0.77937 -1.341951 0.397805 -1.5 0 -1.5 
C -0.397805 -1.5 -0.77937 -1.341951 -1.06066 -1.06066 
C -1.341951 -0.77937 -1.5 -0.397805 -1.5 0 
C -1.5 0.397805 -1.341951 0.77937 -1.06066 1.06066 
C -0.77937 1.341951 -0.397805 1.5 0 1.5 
z
" id="m3f5ea2d725" style="stroke:#000080;"/>
    </defs>
    <g>
     <use style="fill:#000080;stroke:#000080;" x="209.347159" xlink:href="#m3f5ea2d725" y="44.021228"/>
     <use style="fill:#000080;stroke:#000080;" x="209.347159" xlink:href="#m3f5ea2d725" y="44.021228"/>
    </g>
   </g>
   <g id="line2d_43">
    <path d="M 38.440992 298.944 
L 38.440992 283.948543 
L 50.52898 283.948543 
L 50.52898 279.949754 
L 57.6 279.949754 
L 57.6 277.450511 
L 62.616969 277.450511 
L 62.616969 275.950966 
L 66.508432 275.950966 
L 66.508432 271.452328 
L 69.687988 271.452328 
L 69.687988 270.95248 
L 78.59642 270.95248 
L 78.59642 269.952783 
L 80.258561 269.952783 
L 80.258561 269.452934 
L 84.464254 269.452934 
L 84.464254 268.453237 
L 85.66744 268.453237 
L 85.66744 267.953388 
L 88.846997 267.953388 
L 88.846997 264.454448 
L 90.684409 264.454448 
L 90.684409 263.9546 
L 92.34655 263.9546 
L 92.34655 262.954903 
L 94.575872 262.954903 
L 94.575872 261.455357 
L 99.938184 261.455357 
L 99.938184 260.45566 
L 100.443706 260.45566 
L 100.443706 259.955811 
L 100.934985 259.955811 
L 100.934985 259.455963 
L 101.877879 259.455963 
L 101.877879 258.956114 
L 102.330873 258.956114 
L 102.330873 256.95672 
L 104.434538 256.95672 
L 104.434538 255.957023 
L 105.951954 255.957023 
L 105.951954 254.457477 
L 106.66386 254.457477 
L 106.66386 253.957628 
L 107.680028 253.957628 
L 107.680028 252.957931 
L 108.326001 252.957931 
L 108.326001 250.958537 
L 112.531694 250.958537 
L 112.531694 250.458688 
L 113.26352 250.458688 
L 113.26352 245.960051 
L 113.500792 245.960051 
L 113.500792 244.960354 
L 118.751849 244.960354 
L 118.751849 240.961566 
L 119.43583 240.961566 
L 119.43583 239.961868 
L 120.571812 239.961868 
L 120.571812 239.46202 
L 121.036887 239.46202 
L 121.036887 238.462323 
L 121.489881 238.462323 
L 121.489881 236.462928 
L 121.785469 236.462928 
L 121.785469 235.463231 
L 122.076131 235.463231 
L 122.076131 234.963383 
L 122.362027 234.963383 
L 122.362027 232.963988 
L 123.056911 232.963988 
L 123.056911 232.46414 
L 124.867052 232.46414 
L 124.867052 231.964291 
L 125.110962 231.964291 
L 125.110962 231.464443 
L 127.590383 231.464443 
L 127.590383 230.464745 
L 128.905271 230.464745 
L 128.905271 228.9652 
L 129.760775 228.9652 
L 129.760775 227.965503 
L 132.422528 227.965503 
L 132.422528 226.465957 
L 133.57787 226.465957 
L 133.652238 220.967623 
L 134.307653 220.967623 
L 134.307653 219.967925 
L 135.00812 219.967925 
L 135.00812 217.468683 
L 135.144899 217.468683 
L 135.144899 215.469288 
L 135.482227 215.469288 
L 135.482227 213.469894 
L 141.041904 213.469894 
L 141.041904 212.470197 
L 141.378673 212.470197 
L 141.378673 211.970348 
L 141.709062 211.970348 
L 141.709062 210.470803 
L 141.848763 210.470803 
L 141.848763 207.97156 
L 142.575505 207.97156 
L 142.575505 204.972468 
L 142.752555 204.972468 
L 142.752555 201.973377 
L 145.251067 201.973377 
L 145.251067 201.473528 
L 148.258051 201.473528 
L 148.258051 200.97368 
L 148.417899 200.97368 
L 148.417899 199.973983 
L 150.201126 199.973983 
L 150.201126 199.474134 
L 150.344189 199.474134 
L 150.344189 198.474437 
L 150.626842 198.474437 
L 150.682827 196.974891 
L 150.849711 196.974891 
L 150.849711 196.475043 
L 150.987572 196.475043 
L 151.069768 189.477162 
L 151.151579 189.477162 
L 151.205907 187.977617 
L 151.340991 187.977617 
L 151.367883 185.478374 
L 151.60806 185.478374 
L 151.713753 181.979434 
L 151.740076 181.979434 
L 151.844975 180.979737 
L 152.027042 180.979737 
L 152.078714 172.482311 
L 152.536999 172.482311 
L 152.536999 171.482614 
L 152.712018 171.482614 
L 152.761703 166.484128 
L 153.679772 166.484128 
L 153.773658 161.485642 
L 153.959927 161.485642 
L 154.029268 154.487762 
L 154.098334 154.487762 
L 154.098334 153.488065 
L 154.258434 153.488065 
L 154.303908 151.98852 
L 154.618949 151.98852 
L 154.618949 151.488671 
L 154.972161 151.488671 
L 154.972161 150.988822 
L 155.210911 150.988822 
L 155.318362 148.489579 
L 155.510121 148.489579 
L 155.55245 145.990337 
L 155.762564 145.990337 
L 155.804285 141.991548 
L 156.093569 141.991548 
L 156.093569 137.492911 
L 157.994392 137.492911 
L 158.104304 136.493214 
L 158.39406 136.493214 
L 158.39406 132.994274 
L 158.625992 132.994274 
L 158.661402 128.995485 
L 158.889829 128.995485 
L 158.994256 125.496545 
L 159.063529 125.496545 
L 159.063529 123.497151 
L 160.474035 123.497151 
L 160.474035 122.997302 
L 161.660209 122.997302 
L 161.660209 121.997605 
L 163.171418 121.997605 
L 163.171418 120.997908 
L 163.841212 120.997908 
L 163.841212 120.498059 
L 164.127963 120.498059 
L 164.218222 118.998514 
L 165.071537 118.998514 
L 165.071537 118.498665 
L 165.193576 118.498665 
L 165.302685 113.000331 
L 165.314766 113.000331 
L 165.314766 111.500785 
L 169.739058 111.500785 
L 169.739058 111.000937 
L 169.99949 111.000937 
L 170.063995 108.001845 
L 170.256089 108.001845 
L 170.319654 105.002754 
L 173.792818 105.002754 
L 173.896491 101.003965 
L 173.918627 101.003965 
L 174.028886 97.505025 
L 174.036212 97.505025 
L 174.065485 92.506539 
L 179.267922 92.506539 
L 179.267922 92.006691 
L 180.45808 92.006691 
L 180.45808 87.508054 
L 180.574258 87.508054 
L 180.62453 85.508659 
L 180.814252 85.508659 
L 180.844021 83.009416 
L 186.579636 83.009416 
L 186.679248 74.511991 
L 186.735916 74.511991 
L 186.802969 68.013959 
L 203.310451 68.013959 
L 203.310451 65.514716 
L 206.600606 65.514716 
L 206.600606 64.515019 
L 207.421963 64.515019 
L 207.443546 61.016079 
L 207.544631 61.016079 
L 207.544631 58.516836 
L 209.274486 58.516836 
L 209.347159 44.021228 
L 338.688 44.021228 
L 338.688 44.021228 
" style="fill:none;stroke:#000080;stroke-linecap:square;stroke-width:1.5;"/>
   </g>
   <g id="line2d_44">
    <defs>
     <path d="M 0 6 
C 1.591219 6 3.117479 5.367802 4.242641 4.242641 
C 5.367802 3.117479 6 1.591219 6 0 
C 6 -1.591219 5.367802 -3.117479 4.242641 -4.242641 
C 3.117479 -5.367802 1.591219 -6 0 -6 
C -1.591219 -6 -3.117479 -5.367802 -4.242641 -4.242641 
C -5.367802 -3.117479 -6 -1.591219 -6 0 
C -6 1.591219 -5.367802 3.117479 -4.242641 4.242641 
C -3.117479 5.367802 -1.591219 6 0 6 
z
" id="md66e5faf4c" style="stroke:#000080;stroke-width:1.5;"/>
    </defs>
    <g>
     <use style="fill-opacity:0;stroke:#000080;stroke-width:1.5;" x="94.575872" xlink:href="#md66e5faf4c" y="262.954903"/>
     <use style="fill-opacity:0;stroke:#000080;stroke-width:1.5;" x="145.251067" xlink:href="#md66e5faf4c" y="201.473528"/>
     <use style="fill-opacity:0;stroke:#000080;stroke-width:1.5;" x="186.665053" xlink:href="#md66e5faf4c" y="78.010931"/>
     <use style="fill-opacity:0;stroke:#000080;stroke-width:1.5;" x="209.347159" xlink:href="#md66e5faf4c" y="44.021228"/>
     <use style="fill-opacity:0;stroke:#000080;stroke-width:1.5;" x="209.347159" xlink:href="#md66e5faf4c" y="44.021228"/>
     <use style="fill-opacity:0;stroke:#000080;stroke-width:1.5;" x="338.688" xlink:href="#md66e5faf4c" y="44.021228"/>
    </g>
   </g>
   <g id="line2d_45">
    <path style="fill:none;stroke:#000080;stroke-linecap:square;stroke-width:1.5;"/>
    <g/>
   </g>
   <g id="line2d_46">
    <defs>
     <path d="M 0 1.5 
C 0.397805 1.5 0.77937 1.341951 1.06066 1.06066 
C 1.341951 0.77937 1.5 0.397805 1.5 0 
C 1.5 -0.397805 1.341951 -0.77937 1.06066 -1.06066 
C 0.77937 -1.341951 0.397805 -1.5 0 -1.5 
C -0.397805 -1.5 -0.77937 -1.341951 -1.06066 -1.06066 
C -1.341951 -0.77937 -1.5 -0.397805 -1.5 0 
C -1.5 0.397805 -1.341951 0.77937 -1.06066 1.06066 
C -0.77937 1.341951 -0.397805 1.5 0 1.5 
z
" id="m177d660c48" style="stroke:#ff00ff;"/>
    </defs>
    <g>
     <use style="fill:#ff00ff;stroke:#ff00ff;" x="253.489904" xlink:href="#m177d660c48" y="44.021228"/>
     <use style="fill:#ff00ff;stroke:#ff00ff;" x="253.489904" xlink:href="#m177d660c48" y="44.021228"/>
    </g>
   </g>
   <g id="line2d_47">
    <path d="M 38.440992 298.944 
L 38.440992 278.950057 
L 50.52898 278.950057 
L 50.52898 275.950966 
L 57.6 275.950966 
L 57.6 273.951571 
L 62.616969 273.951571 
L 62.616969 272.951874 
L 69.687988 272.951874 
L 69.687988 271.952177 
L 76.759008 271.952177 
L 76.759008 270.95248 
L 81.775977 270.95248 
L 81.775977 268.453237 
L 86.792945 268.453237 
L 86.792945 267.953388 
L 87.850195 267.953388 
L 87.850195 266.453843 
L 88.846997 266.453843 
L 88.846997 264.954297 
L 89.78989 264.954297 
L 89.78989 263.9546 
L 93.121756 263.9546 
L 93.121756 261.455357 
L 95.918017 261.455357 
L 95.918017 260.955508 
L 96.552242 260.955508 
L 96.552242 259.455963 
L 98.32726 259.455963 
L 98.32726 257.956417 
L 100.443706 257.956417 
L 100.443706 255.457174 
L 100.934985 255.457174 
L 100.934985 253.957628 
L 104.826449 253.957628 
L 104.826449 253.45778 
L 105.584798 253.45778 
L 105.584798 252.458083 
L 107.680028 252.458083 
L 107.680028 251.458386 
L 111.505558 251.458386 
L 111.505558 250.458688 
L 113.73488 250.458688 
L 113.73488 247.959446 
L 116.914437 247.959446 
L 116.914437 244.960354 
L 118.576578 244.960354 
L 118.576578 242.461111 
L 118.751849 242.461111 
L 118.751849 241.461414 
L 119.602714 241.461414 
L 119.602714 240.461717 
L 120.41399 240.461717 
L 120.41399 239.961868 
L 120.571812 239.961868 
L 120.571812 237.962474 
L 121.036887 237.962474 
L 121.036887 237.462626 
L 121.489881 237.462626 
L 121.489881 236.462928 
L 122.076131 236.462928 
L 122.076131 235.463231 
L 122.219665 235.463231 
L 122.219665 233.963685 
L 122.362027 233.963685 
L 122.362027 230.964594 
L 123.192626 230.964594 
L 123.192626 229.465048 
L 123.327293 229.465048 
L 123.327293 228.9652 
L 123.855796 228.9652 
L 123.855796 227.965503 
L 124.114161 227.965503 
L 124.114161 226.465957 
L 124.867052 226.465957 
L 124.867052 224.966411 
L 125.822869 224.966411 
L 125.822869 224.466563 
L 126.50685 224.466563 
L 126.50685 222.967017 
L 128.310692 222.967017 
L 128.310692 221.96732 
L 128.807571 221.96732 
L 128.807571 221.467471 
L 129.099042 221.467471 
L 129.099042 220.967623 
L 130.839837 220.967623 
L 130.839837 219.967925 
L 135.615352 219.967925 
L 135.615352 218.46838 
L 135.943785 218.46838 
L 136.008736 217.468683 
L 136.073445 217.468683 
L 136.073445 214.96944 
L 136.456742 214.96944 
L 136.519813 208.971257 
L 136.831795 208.971257 
L 136.831795 205.972165 
L 137.259399 205.972165 
L 137.259399 205.472317 
L 137.676769 205.472317 
L 137.735587 201.473528 
L 139.253002 201.473528 
L 139.306744 196.974891 
L 141.378673 196.974891 
L 141.378673 196.475043 
L 141.755753 196.475043 
L 141.755753 194.475648 
L 142.124852 194.475648 
L 142.124852 193.475951 
L 142.708461 193.475951 
L 142.708461 191.976405 
L 143.014805 191.976405 
L 143.014805 191.476557 
L 144.229555 191.476557 
L 144.310293 190.47686 
L 146.644018 190.47686 
L 146.644018 189.977011 
L 147.027314 189.977011 
L 147.027314 186.97792 
L 147.96658 186.97792 
L 147.96658 185.978222 
L 148.258051 185.978222 
L 148.258051 184.978525 
L 148.48143 184.978525 
L 148.48143 184.478677 
L 148.76449 184.478677 
L 148.76449 182.479282 
L 149.134896 182.479282 
L 149.226281 179.480191 
L 149.347388 179.480191 
L 149.347388 176.4811 
L 149.616841 176.4811 
L 149.616841 175.481402 
L 149.764758 175.481402 
L 149.764758 174.981554 
L 150.766468 174.981554 
L 150.849711 171.482614 
L 150.960087 171.482614 
L 151.015013 166.983977 
L 151.367883 166.983977 
L 151.367883 166.484128 
L 151.501723 166.484128 
L 151.501723 165.98428 
L 151.713753 165.98428 
L 151.713753 163.485037 
L 153.418948 163.485037 
L 153.418948 158.9864 
L 154.972161 158.9864 
L 154.972161 156.987005 
L 155.146121 156.987005 
L 155.146121 156.487157 
L 155.510121 156.487157 
L 155.510121 152.988217 
L 155.845906 152.988217 
L 155.845906 151.98852 
L 156.114049 151.98852 
L 156.134506 147.489882 
L 156.236431 147.489882 
L 156.277034 144.990639 
L 156.43851 144.990639 
L 156.518691 139.492305 
L 156.598505 139.492305 
L 156.598505 137.992759 
L 166.706937 137.992759 
L 166.706937 136.993062 
L 166.895472 136.993062 
L 166.895472 135.993365 
L 167.234109 135.993365 
L 167.234109 135.493517 
L 167.502494 135.493517 
L 167.566296 131.494728 
L 167.798261 131.494728 
L 167.860992 129.495334 
L 168.089095 129.495334 
L 168.089095 127.995788 
L 173.651125 127.995788 
L 173.651125 126.996091 
L 174.31234 126.996091 
L 174.31234 125.496545 
L 174.605444 125.496545 
L 174.605444 124.996697 
L 175.293514 124.996697 
L 175.293514 122.497454 
L 175.57071 122.497454 
L 175.57071 121.497757 
L 175.968581 121.497757 
L 176.014414 117.998817 
L 176.286908 117.998817 
L 176.331913 114.000028 
L 176.605851 114.000028 
L 176.637426 110.001239 
L 178.457163 110.001239 
L 178.457163 109.001542 
L 178.688673 109.001542 
L 178.688673 108.001845 
L 179.033027 108.001845 
L 179.033027 107.002148 
L 180.259296 107.002148 
L 180.259296 106.002451 
L 180.442869 106.002451 
L 180.45808 100.004268 
L 180.724641 100.004268 
L 180.764525 95.505631 
L 182.430288 95.505631 
L 182.430288 95.005782 
L 184.299805 95.005782 
L 184.299805 90.507145 
L 185.260879 90.507145 
L 185.260879 90.007296 
L 186.09121 90.007296 
L 186.09121 88.007902 
L 186.393118 88.007902 
L 186.418342 85.008811 
L 186.778295 85.008811 
L 186.781822 81.509871 
L 195.794332 81.509871 
L 195.794332 80.010325 
L 197.680474 80.010325 
L 197.78587 72.012748 
L 198.204863 72.012748 
L 198.204863 70.513202 
L 199.287956 70.513202 
L 199.287956 67.514111 
L 200.560782 67.514111 
L 200.560782 65.514716 
L 201.049973 65.514716 
L 201.049973 63.515322 
L 201.975741 63.515322 
L 202.022898 60.516231 
L 202.121222 60.516231 
L 202.188409 59.516533 
L 202.287256 59.516533 
L 202.287256 57.017291 
L 215.444172 57.017291 
L 215.444172 54.518048 
L 242.34063 54.518048 
L 242.34063 53.018502 
L 253.472277 53.018502 
L 253.489904 44.021228 
L 338.688 44.021228 
L 338.688 44.021228 
" style="fill:none;stroke:#ff00ff;stroke-linecap:square;stroke-width:1.5;"/>
   </g>
   <g id="line2d_48">
    <defs>
     <path d="M -0 8.485281 
L 5.091169 0 
L 0 -8.485281 
L -5.091169 -0 
z
" id="me608d544af" style="stroke:#ff00ff;stroke-linejoin:miter;stroke-width:1.5;"/>
    </defs>
    <g>
     <use style="fill-opacity:0;stroke:#ff00ff;stroke-linejoin:miter;stroke-width:1.5;" x="126.50685" xlink:href="#me608d544af" y="224.466563"/>
     <use style="fill-opacity:0;stroke:#ff00ff;stroke-linejoin:miter;stroke-width:1.5;" x="176.637426" xlink:href="#me608d544af" y="112.000634"/>
     <use style="fill-opacity:0;stroke:#ff00ff;stroke-linejoin:miter;stroke-width:1.5;" x="215.444172" xlink:href="#me608d544af" y="57.017291"/>
     <use style="fill-opacity:0;stroke:#ff00ff;stroke-linejoin:miter;stroke-width:1.5;" x="253.489904" xlink:href="#me608d544af" y="44.021228"/>
     <use style="fill-opacity:0;stroke:#ff00ff;stroke-linejoin:miter;stroke-width:1.5;" x="253.489904" xlink:href="#me608d544af" y="44.021228"/>
     <use style="fill-opacity:0;stroke:#ff00ff;stroke-linejoin:miter;stroke-width:1.5;" x="338.688" xlink:href="#me608d544af" y="44.021228"/>
    </g>
   </g>
   <g id="line2d_49">
    <path style="fill:none;stroke:#ff00ff;stroke-linecap:square;stroke-width:1.5;"/>
    <g/>
   </g>
   <g id="line2d_50">
    <defs>
     <path d="M 0 1.5 
C 0.397805 1.5 0.77937 1.341951 1.06066 1.06066 
C 1.341951 0.77937 1.5 0.397805 1.5 0 
C 1.5 -0.397805 1.341951 -0.77937 1.06066 -1.06066 
C 0.77937 -1.341951 0.397805 -1.5 0 -1.5 
C -0.397805 -1.5 -0.77937 -1.341951 -1.06066 -1.06066 
C -1.341951 -0.77937 -1.5 -0.397805 -1.5 0 
C -1.5 0.397805 -1.341951 0.77937 -1.06066 1.06066 
C -0.77937 1.341951 -0.397805 1.5 0 1.5 
z
" id="mfccab32d74" style="stroke:#ffa500;"/>
    </defs>
    <g>
     <use style="fill:#ffa500;stroke:#ffa500;" x="206.400244" xlink:href="#mfccab32d74" y="44.021228"/>
     <use style="fill:#ffa500;stroke:#ffa500;" x="206.400244" xlink:href="#mfccab32d74" y="44.021228"/>
    </g>
   </g>
   <g id="line2d_51">
    <path d="M 38.440992 298.944 
L 38.440992 276.450814 
L 50.52898 276.450814 
L 50.52898 273.451723 
L 57.6 273.451723 
L 57.6 271.452328 
L 66.508432 271.452328 
L 66.508432 270.95248 
L 69.687988 270.95248 
L 69.687988 270.452631 
L 72.376266 270.452631 
L 72.376266 269.952783 
L 78.59642 269.952783 
L 78.59642 267.45354 
L 81.775977 267.45354 
L 81.775977 265.953994 
L 83.171864 265.953994 
L 83.171864 264.454448 
L 84.464254 264.454448 
L 84.464254 262.455054 
L 85.66744 262.455054 
L 85.66744 260.955508 
L 91.535274 260.955508 
L 91.535274 260.45566 
L 92.34655 260.45566 
L 92.34655 256.95672 
L 99.41757 256.95672 
L 99.41757 254.957326 
L 104.434538 254.957326 
L 104.434538 252.458083 
L 106.66386 252.458083 
L 106.66386 251.958234 
L 107.009204 251.958234 
L 107.009204 248.459294 
L 108.326001 248.459294 
L 108.326001 247.959446 
L 111.767808 247.959446 
L 111.767808 247.459597 
L 112.531694 247.459597 
L 112.531694 245.960051 
L 113.73488 245.960051 
L 113.73488 245.460203 
L 114.641021 245.460203 
L 114.641021 243.460808 
L 115.077025 243.460808 
L 115.077025 241.461414 
L 116.719583 241.461414 
L 116.719583 240.461717 
L 117.107138 240.461717 
L 117.107138 239.961868 
L 118.399528 239.961868 
L 118.399528 238.462323 
L 118.751849 238.462323 
L 118.751849 226.465957 
L 119.602714 226.465957 
L 119.602714 225.966108 
L 120.093994 225.966108 
L 120.093994 222.967017 
L 121.036887 222.967017 
L 121.036887 219.468077 
L 121.189196 219.468077 
L 121.189196 215.969137 
L 121.931406 215.969137 
L 121.931406 212.970045 
L 122.503236 212.970045 
L 122.503236 211.4705 
L 123.056911 211.4705 
L 123.056911 208.971257 
L 123.192626 208.971257 
L 123.192626 206.472014 
L 123.460928 206.472014 
L 123.460928 205.472317 
L 123.593547 205.472317 
L 123.593547 204.972468 
L 123.985457 204.972468 
L 123.985457 203.472923 
L 124.114161 203.472923 
L 124.114161 202.473225 
L 124.241922 202.473225 
L 124.241922 201.973377 
L 124.368753 201.973377 
L 124.368753 200.473831 
L 124.743806 200.473831 
L 124.743806 195.975194 
L 124.867052 195.975194 
L 124.867052 195.475345 
L 125.110962 195.475345 
L 125.110962 194.975497 
L 125.23165 194.975497 
L 125.23165 192.976103 
L 125.351508 192.976103 
L 125.351508 186.97792 
L 125.706218 186.97792 
L 125.706218 185.478374 
L 125.822869 185.478374 
L 125.822869 184.478677 
L 126.053856 184.478677 
L 126.053856 182.479282 
L 126.168212 182.479282 
L 126.168212 181.979434 
L 126.3947 181.979434 
L 126.3947 181.479585 
L 126.50685 181.479585 
L 126.50685 177.980645 
L 126.729009 177.980645 
L 126.729009 175.981251 
L 126.948374 175.981251 
L 126.948374 174.481705 
L 127.165014 174.481705 
L 127.272333 170.482917 
L 127.378995 170.482917 
L 127.378995 169.48322 
L 127.799239 169.48322 
L 127.902737 168.483522 
L 128.005624 168.483522 
L 128.005624 163.984885 
L 128.411207 163.984885 
L 128.411207 163.485037 
L 128.709321 163.485037 
L 128.709321 161.985491 
L 129.385722 161.985491 
L 129.385722 156.987005 
L 129.574256 156.987005 
L 129.574256 155.987308 
L 130.036864 155.987308 
L 130.127931 148.989428 
L 130.664567 148.989428 
L 130.664567 148.489579 
L 147.164632 148.489579 
L 147.164632 144.990639 
L 151.394733 144.990639 
L 151.501723 141.991548 
L 151.713753 141.991548 
L 151.818809 138.992457 
L 152.078714 138.992457 
L 152.181601 133.494122 
L 152.436193 133.494122 
L 152.436193 132.994274 
L 155.361158 132.994274 
L 155.361158 132.494425 
L 157.185742 132.494425 
L 157.185742 131.994577 
L 157.509937 131.994577 
L 157.604152 130.495031 
L 157.753847 130.495031 
L 157.753847 128.995485 
L 157.902267 128.995485 
L 157.902267 127.495939 
L 158.122556 127.495939 
L 158.159001 124.496848 
L 163.946031 124.496848 
L 163.946031 120.997908 
L 165.034758 120.997908 
L 165.034758 119.998211 
L 166.7626 119.998211 
L 166.840232 118.498665 
L 167.08199 118.498665 
L 167.169078 114.999725 
L 167.223287 114.999725 
L 167.223287 114.499877 
L 167.352708 114.499877 
L 167.352708 107.002148 
L 167.502494 107.002148 
L 167.502494 106.502299 
L 169.350555 106.502299 
L 169.350555 106.002451 
L 170.382987 106.002451 
L 170.382987 105.502602 
L 186.149817 105.502602 
L 186.149817 105.002754 
L 186.810013 105.002754 
L 186.810013 104.003056 
L 187.248104 104.003056 
L 187.306378 94.505934 
L 187.439333 94.505934 
L 187.439333 92.506539 
L 193.564818 92.506539 
L 193.564818 91.506842 
L 193.870467 91.506842 
L 193.870467 89.007599 
L 194.678219 89.007599 
L 194.678219 87.008205 
L 195.142881 87.008205 
L 195.184317 83.509265 
L 195.368495 83.509265 
L 195.368495 82.009719 
L 195.603991 82.009719 
L 195.603991 80.510174 
L 197.793374 80.510174 
L 197.793374 79.010628 
L 198.017006 79.010628 
L 198.089073 77.011234 
L 198.149821 77.011234 
L 198.223172 73.012445 
L 198.27616 73.012445 
L 198.310789 65.514716 
L 200.19366 65.514716 
L 200.263799 62.515625 
L 200.335278 62.515625 
L 200.383847 54.018199 
L 202.503341 54.018199 
L 202.503341 53.518351 
L 204.560415 53.518351 
L 204.560415 51.518956 
L 205.683852 51.518956 
L 205.683852 51.019108 
L 206.120932 51.019108 
L 206.1314 49.519562 
L 206.373889 49.519562 
L 206.400244 44.021228 
L 338.688 44.021228 
L 338.688 44.021228 
" style="fill:none;stroke:#ffa500;stroke-linecap:square;stroke-width:1.5;"/>
   </g>
   <g id="line2d_52">
    <defs>
     <path d="M 0 -6 
L -1.347084 -1.854102 
L -5.706339 -1.854102 
L -2.179628 0.708204 
L -3.526712 4.854102 
L -0 2.291796 
L 3.526712 4.854102 
L 2.179628 0.708204 
L 5.706339 -1.854102 
L 1.347084 -1.854102 
z
" id="m9b138f988b" style="stroke:#ffa500;stroke-linejoin:bevel;stroke-width:1.5;"/>
    </defs>
    <g>
     <use style="fill-opacity:0;stroke:#ffa500;stroke-linejoin:bevel;stroke-width:1.5;" x="114.641021" xlink:href="#m9b138f988b" y="245.460203"/>
     <use style="fill-opacity:0;stroke:#ffa500;stroke-linejoin:bevel;stroke-width:1.5;" x="130.664567" xlink:href="#m9b138f988b" y="148.989428"/>
     <use style="fill-opacity:0;stroke:#ffa500;stroke-linejoin:bevel;stroke-width:1.5;" x="200.335278" xlink:href="#m9b138f988b" y="62.515625"/>
     <use style="fill-opacity:0;stroke:#ffa500;stroke-linejoin:bevel;stroke-width:1.5;" x="206.400244" xlink:href="#m9b138f988b" y="44.021228"/>
     <use style="fill-opacity:0;stroke:#ffa500;stroke-linejoin:bevel;stroke-width:1.5;" x="206.400244" xlink:href="#m9b138f988b" y="44.021228"/>
     <use style="fill-opacity:0;stroke:#ffa500;stroke-linejoin:bevel;stroke-width:1.5;" x="338.688" xlink:href="#m9b138f988b" y="44.021228"/>
    </g>
   </g>
   <g id="line2d_53">
    <path style="fill:none;stroke:#ffa500;stroke-linecap:square;stroke-width:1.5;"/>
    <g/>
   </g>
   <g id="line2d_54">
    <path d="M 338.688 44.021228 
L 369.60768 293.845545 
" style="fill:none;stroke:#ff00ff;stroke-linecap:square;stroke-width:1.5;"/>
    <g>
     <use style="fill-opacity:0;stroke:#ff00ff;stroke-linejoin:miter;stroke-width:1.5;" x="338.688" xlink:href="#me608d544af" y="44.021228"/>
     <use style="fill-opacity:0;stroke:#ff00ff;stroke-linejoin:miter;stroke-width:1.5;" x="369.60768" xlink:href="#me608d544af" y="293.845545"/>
    </g>
   </g>
   <g id="line2d_55">
    <path d="M 338.688 44.021228 
L 369.60768 212.270257 
" style="fill:none;stroke:#000080;stroke-linecap:square;stroke-width:1.5;"/>
    <g>
     <use style="fill-opacity:0;stroke:#000080;stroke-width:1.5;" x="338.688" xlink:href="#md66e5faf4c" y="44.021228"/>
     <use style="fill-opacity:0;stroke:#000080;stroke-width:1.5;" x="369.60768" xlink:href="#md66e5faf4c" y="212.270257"/>
    </g>
   </g>
   <g id="line2d_56">
    <path d="M 338.688 44.021228 
L 369.60768 130.69497 
" style="fill:none;stroke:#ffa500;stroke-linecap:square;stroke-width:1.5;"/>
    <g>
     <use style="fill-opacity:0;stroke:#ffa500;stroke-linejoin:bevel;stroke-width:1.5;" x="338.688" xlink:href="#m9b138f988b" y="44.021228"/>
     <use style="fill-opacity:0;stroke:#ffa500;stroke-linejoin:bevel;stroke-width:1.5;" x="369.60768" xlink:href="#m9b138f988b" y="130.69497"/>
    </g>
   </g>
   <g id="line2d_57">
    <path d="M 338.688 298.944 
L 338.688 44.021228 
" style="fill:none;stroke:#000000;stroke-linecap:square;stroke-width:1.5;"/>
   </g>
   <g id="patch_3">
    <path d="M 57.6 298.944 
L 57.6 41.472 
" style="fill:none;stroke:#000000;stroke-linecap:square;stroke-linejoin:miter;stroke-width:0.8;"/>
   </g>
   <g id="patch_4">
    <path d="M 338.688 298.944 
L 338.688 41.472 
" style="fill:none;stroke:#000000;stroke-linecap:square;stroke-linejoin:miter;stroke-width:0.8;"/>
   </g>
   <g id="patch_5">
    <path d="M 57.6 298.944 
L 338.688 298.944 
" style="fill:none;stroke:#000000;stroke-linecap:square;stroke-linejoin:miter;stroke-width:0.8;"/>
   </g>
   <g id="patch_6">
    <path d="M 57.6 41.472 
L 338.688 41.472 
" style="fill:none;stroke:#000000;stroke-linecap:square;stroke-linejoin:miter;stroke-width:0.8;"/>
   </g>
   <g id="text_13">
    <!-- IPOPsaACM -->
    <defs>
     <path d="M 9.8125 72.90625 
L 19.671875 72.90625 
L 19.671875 0 
L 9.8125 0 
z
" id="DejaVuSans-73"/>
     <path d="M 19.671875 64.796875 
L 19.671875 37.40625 
L 32.078125 37.40625 
Q 38.96875 37.40625 42.71875 40.96875 
Q 46.484375 44.53125 46.484375 51.125 
Q 46.484375 57.671875 42.71875 61.234375 
Q 38.96875 64.796875 32.078125 64.796875 
z
M 9.8125 72.90625 
L 32.078125 72.90625 
Q 44.34375 72.90625 50.609375 67.359375 
Q 56.890625 61.8125 56.890625 51.125 
Q 56.890625 40.328125 50.609375 34.8125 
Q 44.34375 29.296875 32.078125 29.296875 
L 19.671875 29.296875 
L 19.671875 0 
L 9.8125 0 
z
" id="DejaVuSans-80"/>
     <path d="M 39.40625 66.21875 
Q 28.65625 66.21875 22.328125 58.203125 
Q 16.015625 50.203125 16.015625 36.375 
Q 16.015625 22.609375 22.328125 14.59375 
Q 28.65625 6.59375 39.40625 6.59375 
Q 50.140625 6.59375 56.421875 14.59375 
Q 62.703125 22.609375 62.703125 36.375 
Q 62.703125 50.203125 56.421875 58.203125 
Q 50.140625 66.21875 39.40625 66.21875 
z
M 39.40625 74.21875 
Q 54.734375 74.21875 63.90625 63.9375 
Q 73.09375 53.65625 73.09375 36.375 
Q 73.09375 19.140625 63.90625 8.859375 
Q 54.734375 -1.421875 39.40625 -1.421875 
Q 24.03125 -1.421875 14.8125 8.828125 
Q 5.609375 19.09375 5.609375 36.375 
Q 5.609375 53.65625 14.8125 63.9375 
Q 24.03125 74.21875 39.40625 74.21875 
z
" id="DejaVuSans-79"/>
     <path d="M 34.1875 63.1875 
L 20.796875 26.90625 
L 47.609375 26.90625 
z
M 28.609375 72.90625 
L 39.796875 72.90625 
L 67.578125 0 
L 57.328125 0 
L 50.6875 18.703125 
L 17.828125 18.703125 
L 11.1875 0 
L 0.78125 0 
z
" id="DejaVuSans-65"/>
     <path d="M 64.40625 67.28125 
L 64.40625 56.890625 
Q 59.421875 61.53125 53.78125 63.8125 
Q 48.140625 66.109375 41.796875 66.109375 
Q 29.296875 66.109375 22.65625 58.46875 
Q 16.015625 50.828125 16.015625 36.375 
Q 16.015625 21.96875 22.65625 14.328125 
Q 29.296875 6.6875 41.796875 6.6875 
Q 48.140625 6.6875 53.78125 8.984375 
Q 59.421875 11.28125 64.40625 15.921875 
L 64.40625 5.609375 
Q 59.234375 2.09375 53.4375 0.328125 
Q 47.65625 -1.421875 41.21875 -1.421875 
Q 24.65625 -1.421875 15.125 8.703125 
Q 5.609375 18.84375 5.609375 36.375 
Q 5.609375 53.953125 15.125 64.078125 
Q 24.65625 74.21875 41.21875 74.21875 
Q 47.75 74.21875 53.53125 72.484375 
Q 59.328125 70.75 64.40625 67.28125 
z
" id="DejaVuSans-67"/>
     <path d="M 9.8125 72.90625 
L 24.515625 72.90625 
L 43.109375 23.296875 
L 61.8125 72.90625 
L 76.515625 72.90625 
L 76.515625 0 
L 66.890625 0 
L 66.890625 64.015625 
L 48.09375 14.015625 
L 38.1875 14.015625 
L 19.390625 64.015625 
L 19.390625 0 
L 9.8125 0 
z
" id="DejaVuSans-77"/>
    </defs>
    <g transform="translate(375.22944 298.536482)scale(0.17 -0.17)">
     <use xlink:href="#DejaVuSans-73"/>
     <use x="29.492188" xlink:href="#DejaVuSans-80"/>
     <use x="89.794922" xlink:href="#DejaVuSans-79"/>
     <use x="168.505859" xlink:href="#DejaVuSans-80"/>
     <use x="228.792969" xlink:href="#DejaVuSans-115"/>
     <use x="280.892578" xlink:href="#DejaVuSans-97"/>
     <use x="342.171875" xlink:href="#DejaVuSans-65"/>
     <use x="410.564453" xlink:href="#DejaVuSans-67"/>
     <use x="480.388672" xlink:href="#DejaVuSans-77"/>
    </g>
   </g>
   <g id="text_14">
    <!-- BIPOPsaAC -->
    <defs>
     <path d="M 19.671875 34.8125 
L 19.671875 8.109375 
L 35.5 8.109375 
Q 43.453125 8.109375 47.28125 11.40625 
Q 51.125 14.703125 51.125 21.484375 
Q 51.125 28.328125 47.28125 31.5625 
Q 43.453125 34.8125 35.5 34.8125 
z
M 19.671875 64.796875 
L 19.671875 42.828125 
L 34.28125 42.828125 
Q 41.5 42.828125 45.03125 45.53125 
Q 48.578125 48.25 48.578125 53.8125 
Q 48.578125 59.328125 45.03125 62.0625 
Q 41.5 64.796875 34.28125 64.796875 
z
M 9.8125 72.90625 
L 35.015625 72.90625 
Q 46.296875 72.90625 52.390625 68.21875 
Q 58.5 63.53125 58.5 54.890625 
Q 58.5 48.1875 55.375 44.234375 
Q 52.25 40.28125 46.1875 39.3125 
Q 53.46875 37.75 57.5 32.78125 
Q 61.53125 27.828125 61.53125 20.40625 
Q 61.53125 10.640625 54.890625 5.3125 
Q 48.25 0 35.984375 0 
L 9.8125 0 
z
" id="DejaVuSans-66"/>
    </defs>
    <g transform="translate(375.22944 216.961195)scale(0.17 -0.17)">
     <use xlink:href="#DejaVuSans-66"/>
     <use x="68.603516" xlink:href="#DejaVuSans-73"/>
     <use x="98.095703" xlink:href="#DejaVuSans-80"/>
     <use x="158.398438" xlink:href="#DejaVuSans-79"/>
     <use x="237.109375" xlink:href="#DejaVuSans-80"/>
     <use x="297.396484" xlink:href="#DejaVuSans-115"/>
     <use x="349.496094" xlink:href="#DejaVuSans-97"/>
     <use x="410.775391" xlink:href="#DejaVuSans-65"/>
     <use x="479.167969" xlink:href="#DejaVuSans-67"/>
    </g>
   </g>
   <g id="text_15">
    <!-- BIPOP-saA -->
    <g transform="translate(375.22944 135.385908)scale(0.17 -0.17)">
     <use xlink:href="#DejaVuSans-66"/>
     <use x="68.603516" xlink:href="#DejaVuSans-73"/>
     <use x="98.095703" xlink:href="#DejaVuSans-80"/>
     <use x="158.398438" xlink:href="#DejaVuSans-79"/>
     <use x="237.109375" xlink:href="#DejaVuSans-80"/>
     <use x="297.380859" xlink:href="#DejaVuSans-45"/>
     <use x="333.464844" xlink:href="#DejaVuSans-115"/>
     <use x="385.564453" xlink:href="#DejaVuSans-97"/>
     <use x="446.84375" xlink:href="#DejaVuSans-65"/>
    </g>
   </g>
   <g id="text_16">
    <!-- best 2009 -->
    <defs>
     <path d="M 48.6875 27.296875 
Q 48.6875 37.203125 44.609375 42.84375 
Q 40.53125 48.484375 33.40625 48.484375 
Q 26.265625 48.484375 22.1875 42.84375 
Q 18.109375 37.203125 18.109375 27.296875 
Q 18.109375 17.390625 22.1875 11.75 
Q 26.265625 6.109375 33.40625 6.109375 
Q 40.53125 6.109375 44.609375 11.75 
Q 48.6875 17.390625 48.6875 27.296875 
z
M 18.109375 46.390625 
Q 20.953125 51.265625 25.265625 53.625 
Q 29.59375 56 35.59375 56 
Q 45.5625 56 51.78125 48.09375 
Q 58.015625 40.1875 58.015625 27.296875 
Q 58.015625 14.40625 51.78125 6.484375 
Q 45.5625 -1.421875 35.59375 -1.421875 
Q 29.59375 -1.421875 25.265625 0.953125 
Q 20.953125 3.328125 18.109375 8.203125 
L 18.109375 0 
L 9.078125 0 
L 9.078125 75.984375 
L 18.109375 75.984375 
z
" id="DejaVuSans-98"/>
     <path d="M 10.984375 1.515625 
L 10.984375 10.5 
Q 14.703125 8.734375 18.5 7.8125 
Q 22.3125 6.890625 25.984375 6.890625 
Q 35.75 6.890625 40.890625 13.453125 
Q 46.046875 20.015625 46.78125 33.40625 
Q 43.953125 29.203125 39.59375 26.953125 
Q 35.25 24.703125 29.984375 24.703125 
Q 19.046875 24.703125 12.671875 31.3125 
Q 6.296875 37.9375 6.296875 49.421875 
Q 6.296875 60.640625 12.9375 67.421875 
Q 19.578125 74.21875 30.609375 74.21875 
Q 43.265625 74.21875 49.921875 64.515625 
Q 56.59375 54.828125 56.59375 36.375 
Q 56.59375 19.140625 48.40625 8.859375 
Q 40.234375 -1.421875 26.421875 -1.421875 
Q 22.703125 -1.421875 18.890625 -0.6875 
Q 15.09375 0.046875 10.984375 1.515625 
z
M 30.609375 32.421875 
Q 37.25 32.421875 41.125 36.953125 
Q 45.015625 41.5 45.015625 49.421875 
Q 45.015625 57.28125 41.125 61.84375 
Q 37.25 66.40625 30.609375 66.40625 
Q 23.96875 66.40625 20.09375 61.84375 
Q 16.21875 57.28125 16.21875 49.421875 
Q 16.21875 41.5 20.09375 36.953125 
Q 23.96875 32.421875 30.609375 32.421875 
z
" id="DejaVuSans-57"/>
    </defs>
    <g transform="translate(375.22944 53.810621)scale(0.17 -0.17)">
     <use xlink:href="#DejaVuSans-98"/>
     <use x="63.476562" xlink:href="#DejaVuSans-101"/>
     <use x="125" xlink:href="#DejaVuSans-115"/>
     <use x="177.099609" xlink:href="#DejaVuSans-116"/>
     <use x="216.308594" xlink:href="#DejaVuSans-32"/>
     <use x="248.095703" xlink:href="#DejaVuSans-50"/>
     <use x="311.71875" xlink:href="#DejaVuSans-48"/>
     <use x="375.341797" xlink:href="#DejaVuSans-48"/>
     <use x="438.964844" xlink:href="#DejaVuSans-57"/>
    </g>
   </g>
   <g id="text_17">
    <!-- bbob f21, 3-D -->
    <defs>
     <path d="M 40.578125 39.3125 
Q 47.65625 37.796875 51.625 33 
Q 55.609375 28.21875 55.609375 21.1875 
Q 55.609375 10.40625 48.1875 4.484375 
Q 40.765625 -1.421875 27.09375 -1.421875 
Q 22.515625 -1.421875 17.65625 -0.515625 
Q 12.796875 0.390625 7.625 2.203125 
L 7.625 11.71875 
Q 11.71875 9.328125 16.59375 8.109375 
Q 21.484375 6.890625 26.8125 6.890625 
Q 36.078125 6.890625 40.9375 10.546875 
Q 45.796875 14.203125 45.796875 21.1875 
Q 45.796875 27.640625 41.28125 31.265625 
Q 36.765625 34.90625 28.71875 34.90625 
L 20.21875 34.90625 
L 20.21875 43.015625 
L 29.109375 43.015625 
Q 36.375 43.015625 40.234375 45.921875 
Q 44.09375 48.828125 44.09375 54.296875 
Q 44.09375 59.90625 40.109375 62.90625 
Q 36.140625 65.921875 28.71875 65.921875 
Q 24.65625 65.921875 20.015625 65.03125 
Q 15.375 64.15625 9.8125 62.3125 
L 9.8125 71.09375 
Q 15.4375 72.65625 20.34375 73.4375 
Q 25.25 74.21875 29.59375 74.21875 
Q 40.828125 74.21875 47.359375 69.109375 
Q 53.90625 64.015625 53.90625 55.328125 
Q 53.90625 49.265625 50.4375 45.09375 
Q 46.96875 40.921875 40.578125 39.3125 
z
" id="DejaVuSans-51"/>
     <path d="M 19.671875 64.796875 
L 19.671875 8.109375 
L 31.59375 8.109375 
Q 46.6875 8.109375 53.6875 14.9375 
Q 60.6875 21.78125 60.6875 36.53125 
Q 60.6875 51.171875 53.6875 57.984375 
Q 46.6875 64.796875 31.59375 64.796875 
z
M 9.8125 72.90625 
L 30.078125 72.90625 
Q 51.265625 72.90625 61.171875 64.09375 
Q 71.09375 55.28125 71.09375 36.53125 
Q 71.09375 17.671875 61.125 8.828125 
Q 51.171875 0 30.078125 0 
L 9.8125 0 
z
" id="DejaVuSans-68"/>
    </defs>
    <g transform="translate(60.41088 51.797126)scale(0.102 -0.102)">
     <use xlink:href="#DejaVuSans-98"/>
     <use x="63.476562" xlink:href="#DejaVuSans-98"/>
     <use x="126.953125" xlink:href="#DejaVuSans-111"/>
     <use x="188.134766" xlink:href="#DejaVuSans-98"/>
     <use x="251.611328" xlink:href="#DejaVuSans-32"/>
     <use x="283.398438" xlink:href="#DejaVuSans-102"/>
     <use x="318.603516" xlink:href="#DejaVuSans-50"/>
     <use x="382.226562" xlink:href="#DejaVuSans-49"/>
     <use x="445.849609" xlink:href="#DejaVuSans-44"/>
     <use x="477.636719" xlink:href="#DejaVuSans-32"/>
     <use x="509.423828" xlink:href="#DejaVuSans-51"/>
     <use x="573.046875" xlink:href="#DejaVuSans-45"/>
     <use x="609.130859" xlink:href="#DejaVuSans-68"/>
    </g>
    <!-- 51 targets: 100..1e-08 -->
    <defs>
     <path d="M 10.796875 72.90625 
L 49.515625 72.90625 
L 49.515625 64.59375 
L 19.828125 64.59375 
L 19.828125 46.734375 
Q 21.96875 47.46875 24.109375 47.828125 
Q 26.265625 48.1875 28.421875 48.1875 
Q 40.625 48.1875 47.75 41.5 
Q 54.890625 34.8125 54.890625 23.390625 
Q 54.890625 11.625 47.5625 5.09375 
Q 40.234375 -1.421875 26.90625 -1.421875 
Q 22.3125 -1.421875 17.546875 -0.640625 
Q 12.796875 0.140625 7.71875 1.703125 
L 7.71875 11.625 
Q 12.109375 9.234375 16.796875 8.0625 
Q 21.484375 6.890625 26.703125 6.890625 
Q 35.15625 6.890625 40.078125 11.328125 
Q 45.015625 15.765625 45.015625 23.390625 
Q 45.015625 31 40.078125 35.4375 
Q 35.15625 39.890625 26.703125 39.890625 
Q 22.75 39.890625 18.8125 39.015625 
Q 14.890625 38.140625 10.796875 36.28125 
z
" id="DejaVuSans-53"/>
     <path d="M 11.71875 12.40625 
L 22.015625 12.40625 
L 22.015625 0 
L 11.71875 0 
z
M 11.71875 51.703125 
L 22.015625 51.703125 
L 22.015625 39.3125 
L 11.71875 39.3125 
z
" id="DejaVuSans-58"/>
    </defs>
    <g transform="translate(60.41088 63.218895)scale(0.102 -0.102)">
     <use xlink:href="#DejaVuSans-53"/>
     <use x="63.623047" xlink:href="#DejaVuSans-49"/>
     <use x="127.246094" xlink:href="#DejaVuSans-32"/>
     <use x="159.033203" xlink:href="#DejaVuSans-116"/>
     <use x="198.242188" xlink:href="#DejaVuSans-97"/>
     <use x="259.521484" xlink:href="#DejaVuSans-114"/>
     <use x="300.619141" xlink:href="#DejaVuSans-103"/>
     <use x="364.095703" xlink:href="#DejaVuSans-101"/>
     <use x="425.619141" xlink:href="#DejaVuSans-116"/>
     <use x="464.828125" xlink:href="#DejaVuSans-115"/>
     <use x="516.927734" xlink:href="#DejaVuSans-58"/>
     <use x="550.619141" xlink:href="#DejaVuSans-32"/>
     <use x="582.40625" xlink:href="#DejaVuSans-49"/>
     <use x="646.029297" xlink:href="#DejaVuSans-48"/>
     <use x="709.652344" xlink:href="#DejaVuSans-48"/>
     <use x="773.275391" xlink:href="#DejaVuSans-46"/>
     <use x="805.0625" xlink:href="#DejaVuSans-46"/>
     <use x="836.849609" xlink:href="#DejaVuSans-49"/>
     <use x="900.472656" xlink:href="#DejaVuSans-101"/>
     <use x="961.996094" xlink:href="#DejaVuSans-45"/>
     <use x="998.080078" xlink:href="#DejaVuSans-48"/>
     <use x="1061.703125" xlink:href="#DejaVuSans-56"/>
    </g>
    <!-- 15 instances -->
    <g transform="translate(60.41088 74.640664)scale(0.102 -0.102)">
     <use xlink:href="#DejaVuSans-49"/>
     <use x="63.623047" xlink:href="#DejaVuSans-53"/>
     <use x="127.246094" xlink:href="#DejaVuSans-32"/>
     <use x="159.033203" xlink:href="#DejaVuSans-105"/>
     <use x="186.816406" xlink:href="#DejaVuSans-110"/>
     <use x="250.195312" xlink:href="#DejaVuSans-115"/>
     <use x="302.294922" xlink:href="#DejaVuSans-116"/>
     <use x="341.503906" xlink:href="#DejaVuSans-97"/>
     <use x="402.783203" xlink:href="#DejaVuSans-110"/>
     <use x="466.162109" xlink:href="#DejaVuSans-99"/>
     <use x="521.142578" xlink:href="#DejaVuSans-101"/>
     <use x="582.666016" xlink:href="#DejaVuSans-115"/>
    </g>
   </g>
   <g id="text_18">
    <!-- v2.3.14 -->
    <g style="fill:#808080;" transform="translate(179.2815 294.289592)scale(0.1 -0.1)">
     <use xlink:href="#DejaVuSans-118"/>
     <use x="59.179688" xlink:href="#DejaVuSans-50"/>
     <use x="122.802734" xlink:href="#DejaVuSans-46"/>
     <use x="154.589844" xlink:href="#DejaVuSans-51"/>
     <use x="218.212891" xlink:href="#DejaVuSans-46"/>
     <use x="250" xlink:href="#DejaVuSans-49"/>
     <use x="313.623047" xlink:href="#DejaVuSans-52"/>
    </g>
   </g>
   <g id="text_19">
    <!-- 21 Gallagher 101 peaks -->
    <defs>
     <path d="M 59.515625 10.40625 
L 59.515625 29.984375 
L 43.40625 29.984375 
L 43.40625 38.09375 
L 69.28125 38.09375 
L 69.28125 6.78125 
Q 63.578125 2.734375 56.6875 0.65625 
Q 49.8125 -1.421875 42 -1.421875 
Q 24.90625 -1.421875 15.25 8.5625 
Q 5.609375 18.5625 5.609375 36.375 
Q 5.609375 54.25 15.25 64.234375 
Q 24.90625 74.21875 42 74.21875 
Q 49.125 74.21875 55.546875 72.453125 
Q 61.96875 70.703125 67.390625 67.28125 
L 67.390625 56.78125 
Q 61.921875 61.421875 55.765625 63.765625 
Q 49.609375 66.109375 42.828125 66.109375 
Q 29.4375 66.109375 22.71875 58.640625 
Q 16.015625 51.171875 16.015625 36.375 
Q 16.015625 21.625 22.71875 14.15625 
Q 29.4375 6.6875 42.828125 6.6875 
Q 48.046875 6.6875 52.140625 7.59375 
Q 56.25 8.5 59.515625 10.40625 
z
" id="DejaVuSans-71"/>
     <path d="M 54.890625 33.015625 
L 54.890625 0 
L 45.90625 0 
L 45.90625 32.71875 
Q 45.90625 40.484375 42.875 44.328125 
Q 39.84375 48.1875 33.796875 48.1875 
Q 26.515625 48.1875 22.3125 43.546875 
Q 18.109375 38.921875 18.109375 30.90625 
L 18.109375 0 
L 9.078125 0 
L 9.078125 75.984375 
L 18.109375 75.984375 
L 18.109375 46.1875 
Q 21.34375 51.125 25.703125 53.5625 
Q 30.078125 56 35.796875 56 
Q 45.21875 56 50.046875 50.171875 
Q 54.890625 44.34375 54.890625 33.015625 
z
" id="DejaVuSans-104"/>
     <path d="M 9.078125 75.984375 
L 18.109375 75.984375 
L 18.109375 31.109375 
L 44.921875 54.6875 
L 56.390625 54.6875 
L 27.390625 29.109375 
L 57.625 0 
L 45.90625 0 
L 18.109375 26.703125 
L 18.109375 0 
L 9.078125 0 
z
" id="DejaVuSans-107"/>
    </defs>
    <g transform="translate(78.6565 35.472)scale(0.2 -0.2)">
     <use xlink:href="#DejaVuSans-50"/>
     <use x="63.623047" xlink:href="#DejaVuSans-49"/>
     <use x="127.246094" xlink:href="#DejaVuSans-32"/>
     <use x="159.033203" xlink:href="#DejaVuSans-71"/>
     <use x="236.523438" xlink:href="#DejaVuSans-97"/>
     <use x="297.802734" xlink:href="#DejaVuSans-108"/>
     <use x="325.585938" xlink:href="#DejaVuSans-108"/>
     <use x="353.369141" xlink:href="#DejaVuSans-97"/>
     <use x="414.648438" xlink:href="#DejaVuSans-103"/>
     <use x="478.125" xlink:href="#DejaVuSans-104"/>
     <use x="541.503906" xlink:href="#DejaVuSans-101"/>
     <use x="603.027344" xlink:href="#DejaVuSans-114"/>
     <use x="644.140625" xlink:href="#DejaVuSans-32"/>
     <use x="675.927734" xlink:href="#DejaVuSans-49"/>
     <use x="739.550781" xlink:href="#DejaVuSans-48"/>
     <use x="803.173828" xlink:href="#DejaVuSans-49"/>
     <use x="866.796875" xlink:href="#DejaVuSans-32"/>
     <use x="898.583984" xlink:href="#DejaVuSans-112"/>
     <use x="962.060547" xlink:href="#DejaVuSans-101"/>
     <use x="1023.583984" xlink:href="#DejaVuSans-97"/>
     <use x="1084.863281" xlink:href="#DejaVuSans-107"/>
     <use x="1142.773438" xlink:href="#DejaVuSans-115"/>
    </g>
   </g>
  </g>
 </g>
 <defs>
  <clipPath id="pbb7d487c56">
   <rect height="257.472" width="281.088" x="57.6" y="41.472"/>
  </clipPath>
 </defs>
</svg>
