<?xml version="1.0" encoding="utf-8" standalone="no"?>
<!DOCTYPE svg PUBLIC "-//W3C//DTD SVG 1.1//EN"
  "http://www.w3.org/Graphics/SVG/1.1/DTD/svg11.dtd">
<!-- Created with matplotlib (https://matplotlib.org/) -->
<svg height="345.6pt" version="1.1" viewBox="0 0 460.8 345.6" width="460.8pt" xmlns="http://www.w3.org/2000/svg" xmlns:xlink="http://www.w3.org/1999/xlink">
 <defs>
  <style type="text/css">
*{stroke-linecap:butt;stroke-linejoin:round;}
  </style>
 </defs>
 <g id="figure_1">
  <g id="patch_1">
   <path d="M 0 345.6 
L 460.8 345.6 
L 460.8 0 
L 0 0 
z
" style="fill:#ffffff;"/>
  </g>
  <g id="axes_1">
   <g id="patch_2">
    <path d="M 57.6 298.944 
L 338.688 298.944 
L 338.688 41.472 
L 57.6 41.472 
z
" style="fill:#ffffff;"/>
   </g>
   <g id="line2d_1">
    <path d="M 29.53256 298.944 
L 29.53256 293.945514 
L 36.60358 293.945514 
L 36.60358 288.947029 
L 59.262141 288.947029 
L 59.262141 283.948543 
L 87.643811 283.948543 
L 87.643811 278.950057 
L 107.213174 278.950057 
L 107.213174 273.951571 
L 112.877038 273.951571 
L 112.877038 268.953086 
L 119.751557 268.953086 
L 119.751557 263.9546 
L 123.553867 263.9546 
L 123.553867 258.956114 
L 127.830353 258.956114 
L 127.830353 253.957628 
L 131.236397 253.957628 
L 131.236397 248.959143 
L 134.787017 248.959143 
L 134.787017 243.960657 
L 138.761723 243.960657 
L 138.761723 238.962171 
L 147.580235 238.962171 
L 147.580235 233.963685 
L 154.754456 233.963685 
L 154.754456 228.9652 
L 162.619242 228.9652 
L 162.619242 223.966714 
L 171.876001 223.966714 
L 171.876001 218.968228 
L 178.339672 218.968228 
L 178.339672 213.969743 
L 179.532325 213.969743 
L 179.532325 208.971257 
L 181.023534 208.971257 
L 181.023534 203.972771 
L 185.07091 203.972771 
L 185.07091 198.974285 
L 186.184157 198.974285 
L 186.184157 193.9758 
L 189.567264 193.9758 
L 189.567264 188.977314 
L 190.407906 188.977314 
L 190.407906 183.978828 
L 192.034621 183.978828 
L 192.034621 178.980342 
L 193.072473 178.980342 
L 193.072473 173.981857 
L 195.730693 173.981857 
L 195.730693 168.983371 
L 196.334447 168.983371 
L 196.334447 163.984885 
L 196.939283 163.984885 
L 196.939283 158.9864 
L 197.169982 158.9864 
L 197.169982 153.987914 
L 197.915981 153.987914 
L 197.915981 148.989428 
L 198.136953 148.989428 
L 198.136953 143.990942 
L 198.249138 143.990942 
L 198.249138 138.992457 
L 198.428558 138.992457 
L 198.428558 133.993971 
L 199.594267 133.993971 
L 199.594267 128.995485 
L 199.873165 128.995485 
L 199.873165 123.996999 
L 200.992614 123.996999 
L 200.992614 118.998514 
L 201.10978 118.998514 
L 201.10978 114.000028 
L 201.236329 114.000028 
L 201.236329 109.001542 
L 201.297189 109.001542 
L 201.297189 104.003056 
L 201.368842 104.003056 
L 201.368842 99.004571 
L 201.527631 99.004571 
L 201.527631 94.006085 
L 201.705232 94.006085 
L 201.705232 89.007599 
L 201.986215 89.007599 
L 201.986215 84.009114 
L 203.098525 84.009114 
L 203.098525 79.010628 
L 203.233735 79.010628 
L 203.233735 74.012142 
L 203.384654 74.012142 
L 203.384654 69.013656 
L 203.503077 69.013656 
L 203.503077 64.015171 
L 203.62916 64.015171 
L 203.62916 59.016685 
L 203.727131 59.016685 
L 203.727131 54.018199 
L 203.822564 54.018199 
L 203.822564 49.019713 
L 203.916686 49.019713 
L 203.916686 44.021228 
L 338.688 44.021228 
" style="fill:none;stroke:#f5deb3;stroke-linecap:square;stroke-width:4;"/>
   </g>
   <g id="line2d_2">
    <defs>
     <path d="M -0 7.778175 
L 7.778175 0 
L 0 -7.778175 
L -7.778175 -0 
z
" id="m4c621fd879" style="stroke:#f5deb3;stroke-linejoin:miter;stroke-width:1.5;"/>
    </defs>
    <g>
     <use style="fill:#f5deb3;stroke:#f5deb3;stroke-linejoin:miter;stroke-width:1.5;" x="134.787017" xlink:href="#m4c621fd879" y="248.959143"/>
     <use style="fill:#f5deb3;stroke:#f5deb3;stroke-linejoin:miter;stroke-width:1.5;" x="195.730693" xlink:href="#m4c621fd879" y="168.983371"/>
     <use style="fill:#f5deb3;stroke:#f5deb3;stroke-linejoin:miter;stroke-width:1.5;" x="203.822564" xlink:href="#m4c621fd879" y="54.018199"/>
     <use style="fill:#f5deb3;stroke:#f5deb3;stroke-linejoin:miter;stroke-width:1.5;" x="203.916686" xlink:href="#m4c621fd879" y="44.021228"/>
     <use style="fill:#f5deb3;stroke:#f5deb3;stroke-linejoin:miter;stroke-width:1.5;" x="203.916686" xlink:href="#m4c621fd879" y="44.021228"/>
     <use style="fill:#f5deb3;stroke:#f5deb3;stroke-linejoin:miter;stroke-width:1.5;" x="338.688" xlink:href="#m4c621fd879" y="44.021228"/>
    </g>
   </g>
   <g id="line2d_3">
    <path style="fill:none;stroke:#f5deb3;stroke-linecap:square;stroke-width:4;"/>
    <g/>
   </g>
   <g id="line2d_4">
    <path d="M 338.688 44.021228 
L 369.60768 49.119683 
" style="fill:none;stroke:#f5deb3;stroke-linecap:square;stroke-width:4;"/>
    <g>
     <use style="fill:#f5deb3;stroke:#f5deb3;stroke-linejoin:miter;stroke-width:1.5;" x="338.688" xlink:href="#m4c621fd879" y="44.021228"/>
     <use style="fill:#f5deb3;stroke:#f5deb3;stroke-linejoin:miter;stroke-width:1.5;" x="369.60768" xlink:href="#m4c621fd879" y="49.119683"/>
    </g>
   </g>
   <g id="matplotlib.axis_1">
    <g id="xtick_1">
     <g id="line2d_5">
      <path clip-path="url(#pf14030ce66)" d="M 57.6 298.944 
L 57.6 41.472 
" style="fill:none;stroke:#b0b0b0;stroke-linecap:square;stroke-width:0.8;"/>
     </g>
     <g id="line2d_6">
      <defs>
       <path d="M 0 0 
L 0 3.5 
" id="m141ce0f64e" style="stroke:#000000;stroke-width:0.8;"/>
      </defs>
      <g>
       <use style="stroke:#000000;stroke-width:0.8;" x="57.6" xlink:href="#m141ce0f64e" y="298.944"/>
      </g>
     </g>
     <g id="text_1">
      <!-- 0 -->
      <defs>
       <path d="M 31.78125 66.40625 
Q 24.171875 66.40625 20.328125 58.90625 
Q 16.5 51.421875 16.5 36.375 
Q 16.5 21.390625 20.328125 13.890625 
Q 24.171875 6.390625 31.78125 6.390625 
Q 39.453125 6.390625 43.28125 13.890625 
Q 47.125 21.390625 47.125 36.375 
Q 47.125 51.421875 43.28125 58.90625 
Q 39.453125 66.40625 31.78125 66.40625 
z
M 31.78125 74.21875 
Q 44.046875 74.21875 50.515625 64.515625 
Q 56.984375 54.828125 56.984375 36.375 
Q 56.984375 17.96875 50.515625 8.265625 
Q 44.046875 -1.421875 31.78125 -1.421875 
Q 19.53125 -1.421875 13.0625 8.265625 
Q 6.59375 17.96875 6.59375 36.375 
Q 6.59375 54.828125 13.0625 64.515625 
Q 19.53125 74.21875 31.78125 74.21875 
z
" id="DejaVuSans-48"/>
      </defs>
      <g transform="translate(51.2375 321.140875)scale(0.2 -0.2)">
       <use xlink:href="#DejaVuSans-48"/>
      </g>
     </g>
    </g>
    <g id="xtick_2">
     <g id="line2d_7">
      <path clip-path="url(#pf14030ce66)" d="M 137.910857 298.944 
L 137.910857 41.472 
" style="fill:none;stroke:#b0b0b0;stroke-linecap:square;stroke-width:0.8;"/>
     </g>
     <g id="line2d_8">
      <g>
       <use style="stroke:#000000;stroke-width:0.8;" x="137.910857" xlink:href="#m141ce0f64e" y="298.944"/>
      </g>
     </g>
     <g id="text_2">
      <!-- 2 -->
      <defs>
       <path d="M 19.1875 8.296875 
L 53.609375 8.296875 
L 53.609375 0 
L 7.328125 0 
L 7.328125 8.296875 
Q 12.9375 14.109375 22.625 23.890625 
Q 32.328125 33.6875 34.8125 36.53125 
Q 39.546875 41.84375 41.421875 45.53125 
Q 43.3125 49.21875 43.3125 52.78125 
Q 43.3125 58.59375 39.234375 62.25 
Q 35.15625 65.921875 28.609375 65.921875 
Q 23.96875 65.921875 18.8125 64.3125 
Q 13.671875 62.703125 7.8125 59.421875 
L 7.8125 69.390625 
Q 13.765625 71.78125 18.9375 73 
Q 24.125 74.21875 28.421875 74.21875 
Q 39.75 74.21875 46.484375 68.546875 
Q 53.21875 62.890625 53.21875 53.421875 
Q 53.21875 48.921875 51.53125 44.890625 
Q 49.859375 40.875 45.40625 35.40625 
Q 44.1875 33.984375 37.640625 27.21875 
Q 31.109375 20.453125 19.1875 8.296875 
z
" id="DejaVuSans-50"/>
      </defs>
      <g transform="translate(131.548357 321.140875)scale(0.2 -0.2)">
       <use xlink:href="#DejaVuSans-50"/>
      </g>
     </g>
    </g>
    <g id="xtick_3">
     <g id="line2d_9">
      <path clip-path="url(#pf14030ce66)" d="M 218.221714 298.944 
L 218.221714 41.472 
" style="fill:none;stroke:#b0b0b0;stroke-linecap:square;stroke-width:0.8;"/>
     </g>
     <g id="line2d_10">
      <g>
       <use style="stroke:#000000;stroke-width:0.8;" x="218.221714" xlink:href="#m141ce0f64e" y="298.944"/>
      </g>
     </g>
     <g id="text_3">
      <!-- 4 -->
      <defs>
       <path d="M 37.796875 64.3125 
L 12.890625 25.390625 
L 37.796875 25.390625 
z
M 35.203125 72.90625 
L 47.609375 72.90625 
L 47.609375 25.390625 
L 58.015625 25.390625 
L 58.015625 17.1875 
L 47.609375 17.1875 
L 47.609375 0 
L 37.796875 0 
L 37.796875 17.1875 
L 4.890625 17.1875 
L 4.890625 26.703125 
z
" id="DejaVuSans-52"/>
      </defs>
      <g transform="translate(211.859214 321.140875)scale(0.2 -0.2)">
       <use xlink:href="#DejaVuSans-52"/>
      </g>
     </g>
    </g>
    <g id="xtick_4">
     <g id="line2d_11">
      <path clip-path="url(#pf14030ce66)" d="M 298.532571 298.944 
L 298.532571 41.472 
" style="fill:none;stroke:#b0b0b0;stroke-linecap:square;stroke-width:0.8;"/>
     </g>
     <g id="line2d_12">
      <g>
       <use style="stroke:#000000;stroke-width:0.8;" x="298.532571" xlink:href="#m141ce0f64e" y="298.944"/>
      </g>
     </g>
     <g id="text_4">
      <!-- 6 -->
      <defs>
       <path d="M 33.015625 40.375 
Q 26.375 40.375 22.484375 35.828125 
Q 18.609375 31.296875 18.609375 23.390625 
Q 18.609375 15.53125 22.484375 10.953125 
Q 26.375 6.390625 33.015625 6.390625 
Q 39.65625 6.390625 43.53125 10.953125 
Q 47.40625 15.53125 47.40625 23.390625 
Q 47.40625 31.296875 43.53125 35.828125 
Q 39.65625 40.375 33.015625 40.375 
z
M 52.59375 71.296875 
L 52.59375 62.3125 
Q 48.875 64.0625 45.09375 64.984375 
Q 41.3125 65.921875 37.59375 65.921875 
Q 27.828125 65.921875 22.671875 59.328125 
Q 17.53125 52.734375 16.796875 39.40625 
Q 19.671875 43.65625 24.015625 45.921875 
Q 28.375 48.1875 33.59375 48.1875 
Q 44.578125 48.1875 50.953125 41.515625 
Q 57.328125 34.859375 57.328125 23.390625 
Q 57.328125 12.15625 50.6875 5.359375 
Q 44.046875 -1.421875 33.015625 -1.421875 
Q 20.359375 -1.421875 13.671875 8.265625 
Q 6.984375 17.96875 6.984375 36.375 
Q 6.984375 53.65625 15.1875 63.9375 
Q 23.390625 74.21875 37.203125 74.21875 
Q 40.921875 74.21875 44.703125 73.484375 
Q 48.484375 72.75 52.59375 71.296875 
z
" id="DejaVuSans-54"/>
      </defs>
      <g transform="translate(292.170071 321.140875)scale(0.2 -0.2)">
       <use xlink:href="#DejaVuSans-54"/>
      </g>
     </g>
    </g>
    <g id="xtick_5">
     <g id="line2d_13">
      <path clip-path="url(#pf14030ce66)" d="M 57.6 298.944 
L 57.6 41.472 
" style="fill:none;stroke:#b0b0b0;stroke-linecap:square;stroke-width:0.8;"/>
     </g>
     <g id="line2d_14">
      <defs>
       <path d="M 0 0 
L 0 2 
" id="m03b853d47b" style="stroke:#000000;stroke-width:0.6;"/>
      </defs>
      <g>
       <use style="stroke:#000000;stroke-width:0.6;" x="57.6" xlink:href="#m03b853d47b" y="298.944"/>
      </g>
     </g>
    </g>
    <g id="xtick_6">
     <g id="line2d_15">
      <path clip-path="url(#pf14030ce66)" d="M 97.755429 298.944 
L 97.755429 41.472 
" style="fill:none;stroke:#b0b0b0;stroke-linecap:square;stroke-width:0.8;"/>
     </g>
     <g id="line2d_16">
      <g>
       <use style="stroke:#000000;stroke-width:0.6;" x="97.755429" xlink:href="#m03b853d47b" y="298.944"/>
      </g>
     </g>
    </g>
    <g id="xtick_7">
     <g id="line2d_17">
      <path clip-path="url(#pf14030ce66)" d="M 137.910857 298.944 
L 137.910857 41.472 
" style="fill:none;stroke:#b0b0b0;stroke-linecap:square;stroke-width:0.8;"/>
     </g>
     <g id="line2d_18">
      <g>
       <use style="stroke:#000000;stroke-width:0.6;" x="137.910857" xlink:href="#m03b853d47b" y="298.944"/>
      </g>
     </g>
    </g>
    <g id="xtick_8">
     <g id="line2d_19">
      <path clip-path="url(#pf14030ce66)" d="M 178.066286 298.944 
L 178.066286 41.472 
" style="fill:none;stroke:#b0b0b0;stroke-linecap:square;stroke-width:0.8;"/>
     </g>
     <g id="line2d_20">
      <g>
       <use style="stroke:#000000;stroke-width:0.6;" x="178.066286" xlink:href="#m03b853d47b" y="298.944"/>
      </g>
     </g>
    </g>
    <g id="xtick_9">
     <g id="line2d_21">
      <path clip-path="url(#pf14030ce66)" d="M 218.221714 298.944 
L 218.221714 41.472 
" style="fill:none;stroke:#b0b0b0;stroke-linecap:square;stroke-width:0.8;"/>
     </g>
     <g id="line2d_22">
      <g>
       <use style="stroke:#000000;stroke-width:0.6;" x="218.221714" xlink:href="#m03b853d47b" y="298.944"/>
      </g>
     </g>
    </g>
    <g id="xtick_10">
     <g id="line2d_23">
      <path clip-path="url(#pf14030ce66)" d="M 258.377143 298.944 
L 258.377143 41.472 
" style="fill:none;stroke:#b0b0b0;stroke-linecap:square;stroke-width:0.8;"/>
     </g>
     <g id="line2d_24">
      <g>
       <use style="stroke:#000000;stroke-width:0.6;" x="258.377143" xlink:href="#m03b853d47b" y="298.944"/>
      </g>
     </g>
    </g>
    <g id="xtick_11">
     <g id="line2d_25">
      <path clip-path="url(#pf14030ce66)" d="M 298.532571 298.944 
L 298.532571 41.472 
" style="fill:none;stroke:#b0b0b0;stroke-linecap:square;stroke-width:0.8;"/>
     </g>
     <g id="line2d_26">
      <g>
       <use style="stroke:#000000;stroke-width:0.6;" x="298.532571" xlink:href="#m03b853d47b" y="298.944"/>
      </g>
     </g>
    </g>
    <g id="xtick_12">
     <g id="line2d_27">
      <path clip-path="url(#pf14030ce66)" d="M 338.688 298.944 
L 338.688 41.472 
" style="fill:none;stroke:#b0b0b0;stroke-linecap:square;stroke-width:0.8;"/>
     </g>
     <g id="line2d_28">
      <g>
       <use style="stroke:#000000;stroke-width:0.6;" x="338.688" xlink:href="#m03b853d47b" y="298.944"/>
      </g>
     </g>
    </g>
    <g id="text_5">
     <!-- log10(# f-evals / dimension) -->
     <defs>
      <path d="M 9.421875 75.984375 
L 18.40625 75.984375 
L 18.40625 0 
L 9.421875 0 
z
" id="DejaVuSans-108"/>
      <path d="M 30.609375 48.390625 
Q 23.390625 48.390625 19.1875 42.75 
Q 14.984375 37.109375 14.984375 27.296875 
Q 14.984375 17.484375 19.15625 11.84375 
Q 23.34375 6.203125 30.609375 6.203125 
Q 37.796875 6.203125 41.984375 11.859375 
Q 46.1875 17.53125 46.1875 27.296875 
Q 46.1875 37.015625 41.984375 42.703125 
Q 37.796875 48.390625 30.609375 48.390625 
z
M 30.609375 56 
Q 42.328125 56 49.015625 48.375 
Q 55.71875 40.765625 55.71875 27.296875 
Q 55.71875 13.875 49.015625 6.21875 
Q 42.328125 -1.421875 30.609375 -1.421875 
Q 18.84375 -1.421875 12.171875 6.21875 
Q 5.515625 13.875 5.515625 27.296875 
Q 5.515625 40.765625 12.171875 48.375 
Q 18.84375 56 30.609375 56 
z
" id="DejaVuSans-111"/>
      <path d="M 45.40625 27.984375 
Q 45.40625 37.75 41.375 43.109375 
Q 37.359375 48.484375 30.078125 48.484375 
Q 22.859375 48.484375 18.828125 43.109375 
Q 14.796875 37.75 14.796875 27.984375 
Q 14.796875 18.265625 18.828125 12.890625 
Q 22.859375 7.515625 30.078125 7.515625 
Q 37.359375 7.515625 41.375 12.890625 
Q 45.40625 18.265625 45.40625 27.984375 
z
M 54.390625 6.78125 
Q 54.390625 -7.171875 48.1875 -13.984375 
Q 42 -20.796875 29.203125 -20.796875 
Q 24.46875 -20.796875 20.265625 -20.09375 
Q 16.0625 -19.390625 12.109375 -17.921875 
L 12.109375 -9.1875 
Q 16.0625 -11.328125 19.921875 -12.34375 
Q 23.78125 -13.375 27.78125 -13.375 
Q 36.625 -13.375 41.015625 -8.765625 
Q 45.40625 -4.15625 45.40625 5.171875 
L 45.40625 9.625 
Q 42.625 4.78125 38.28125 2.390625 
Q 33.9375 0 27.875 0 
Q 17.828125 0 11.671875 7.65625 
Q 5.515625 15.328125 5.515625 27.984375 
Q 5.515625 40.671875 11.671875 48.328125 
Q 17.828125 56 27.875 56 
Q 33.9375 56 38.28125 53.609375 
Q 42.625 51.21875 45.40625 46.390625 
L 45.40625 54.6875 
L 54.390625 54.6875 
z
" id="DejaVuSans-103"/>
      <path d="M 12.40625 8.296875 
L 28.515625 8.296875 
L 28.515625 63.921875 
L 10.984375 60.40625 
L 10.984375 69.390625 
L 28.421875 72.90625 
L 38.28125 72.90625 
L 38.28125 8.296875 
L 54.390625 8.296875 
L 54.390625 0 
L 12.40625 0 
z
" id="DejaVuSans-49"/>
      <path d="M 31 75.875 
Q 24.46875 64.65625 21.28125 53.65625 
Q 18.109375 42.671875 18.109375 31.390625 
Q 18.109375 20.125 21.3125 9.0625 
Q 24.515625 -2 31 -13.1875 
L 23.1875 -13.1875 
Q 15.875 -1.703125 12.234375 9.375 
Q 8.59375 20.453125 8.59375 31.390625 
Q 8.59375 42.28125 12.203125 53.3125 
Q 15.828125 64.359375 23.1875 75.875 
z
" id="DejaVuSans-40"/>
      <path d="M 51.125 44 
L 36.921875 44 
L 32.8125 27.6875 
L 47.125 27.6875 
z
M 43.796875 71.78125 
L 38.71875 51.515625 
L 52.984375 51.515625 
L 58.109375 71.78125 
L 65.921875 71.78125 
L 60.890625 51.515625 
L 76.125 51.515625 
L 76.125 44 
L 58.984375 44 
L 54.984375 27.6875 
L 70.515625 27.6875 
L 70.515625 20.21875 
L 53.078125 20.21875 
L 48 0 
L 40.1875 0 
L 45.21875 20.21875 
L 30.90625 20.21875 
L 25.875 0 
L 18.015625 0 
L 23.09375 20.21875 
L 7.71875 20.21875 
L 7.71875 27.6875 
L 24.90625 27.6875 
L 29 44 
L 13.28125 44 
L 13.28125 51.515625 
L 30.90625 51.515625 
L 35.890625 71.78125 
z
" id="DejaVuSans-35"/>
      <path id="DejaVuSans-32"/>
      <path d="M 37.109375 75.984375 
L 37.109375 68.5 
L 28.515625 68.5 
Q 23.6875 68.5 21.796875 66.546875 
Q 19.921875 64.59375 19.921875 59.515625 
L 19.921875 54.6875 
L 34.71875 54.6875 
L 34.71875 47.703125 
L 19.921875 47.703125 
L 19.921875 0 
L 10.890625 0 
L 10.890625 47.703125 
L 2.296875 47.703125 
L 2.296875 54.6875 
L 10.890625 54.6875 
L 10.890625 58.5 
Q 10.890625 67.625 15.140625 71.796875 
Q 19.390625 75.984375 28.609375 75.984375 
z
" id="DejaVuSans-102"/>
      <path d="M 4.890625 31.390625 
L 31.203125 31.390625 
L 31.203125 23.390625 
L 4.890625 23.390625 
z
" id="DejaVuSans-45"/>
      <path d="M 56.203125 29.59375 
L 56.203125 25.203125 
L 14.890625 25.203125 
Q 15.484375 15.921875 20.484375 11.0625 
Q 25.484375 6.203125 34.421875 6.203125 
Q 39.59375 6.203125 44.453125 7.46875 
Q 49.3125 8.734375 54.109375 11.28125 
L 54.109375 2.78125 
Q 49.265625 0.734375 44.1875 -0.34375 
Q 39.109375 -1.421875 33.890625 -1.421875 
Q 20.796875 -1.421875 13.15625 6.1875 
Q 5.515625 13.8125 5.515625 26.8125 
Q 5.515625 40.234375 12.765625 48.109375 
Q 20.015625 56 32.328125 56 
Q 43.359375 56 49.78125 48.890625 
Q 56.203125 41.796875 56.203125 29.59375 
z
M 47.21875 32.234375 
Q 47.125 39.59375 43.09375 43.984375 
Q 39.0625 48.390625 32.421875 48.390625 
Q 24.90625 48.390625 20.390625 44.140625 
Q 15.875 39.890625 15.1875 32.171875 
z
" id="DejaVuSans-101"/>
      <path d="M 2.984375 54.6875 
L 12.5 54.6875 
L 29.59375 8.796875 
L 46.6875 54.6875 
L 56.203125 54.6875 
L 35.6875 0 
L 23.484375 0 
z
" id="DejaVuSans-118"/>
      <path d="M 34.28125 27.484375 
Q 23.390625 27.484375 19.1875 25 
Q 14.984375 22.515625 14.984375 16.5 
Q 14.984375 11.71875 18.140625 8.90625 
Q 21.296875 6.109375 26.703125 6.109375 
Q 34.1875 6.109375 38.703125 11.40625 
Q 43.21875 16.703125 43.21875 25.484375 
L 43.21875 27.484375 
z
M 52.203125 31.203125 
L 52.203125 0 
L 43.21875 0 
L 43.21875 8.296875 
Q 40.140625 3.328125 35.546875 0.953125 
Q 30.953125 -1.421875 24.3125 -1.421875 
Q 15.921875 -1.421875 10.953125 3.296875 
Q 6 8.015625 6 15.921875 
Q 6 25.140625 12.171875 29.828125 
Q 18.359375 34.515625 30.609375 34.515625 
L 43.21875 34.515625 
L 43.21875 35.40625 
Q 43.21875 41.609375 39.140625 45 
Q 35.0625 48.390625 27.6875 48.390625 
Q 23 48.390625 18.546875 47.265625 
Q 14.109375 46.140625 10.015625 43.890625 
L 10.015625 52.203125 
Q 14.9375 54.109375 19.578125 55.046875 
Q 24.21875 56 28.609375 56 
Q 40.484375 56 46.34375 49.84375 
Q 52.203125 43.703125 52.203125 31.203125 
z
" id="DejaVuSans-97"/>
      <path d="M 44.28125 53.078125 
L 44.28125 44.578125 
Q 40.484375 46.53125 36.375 47.5 
Q 32.28125 48.484375 27.875 48.484375 
Q 21.1875 48.484375 17.84375 46.4375 
Q 14.5 44.390625 14.5 40.28125 
Q 14.5 37.15625 16.890625 35.375 
Q 19.28125 33.59375 26.515625 31.984375 
L 29.59375 31.296875 
Q 39.15625 29.25 43.1875 25.515625 
Q 47.21875 21.78125 47.21875 15.09375 
Q 47.21875 7.46875 41.1875 3.015625 
Q 35.15625 -1.421875 24.609375 -1.421875 
Q 20.21875 -1.421875 15.453125 -0.5625 
Q 10.6875 0.296875 5.421875 2 
L 5.421875 11.28125 
Q 10.40625 8.6875 15.234375 7.390625 
Q 20.0625 6.109375 24.8125 6.109375 
Q 31.15625 6.109375 34.5625 8.28125 
Q 37.984375 10.453125 37.984375 14.40625 
Q 37.984375 18.0625 35.515625 20.015625 
Q 33.0625 21.96875 24.703125 23.78125 
L 21.578125 24.515625 
Q 13.234375 26.265625 9.515625 29.90625 
Q 5.8125 33.546875 5.8125 39.890625 
Q 5.8125 47.609375 11.28125 51.796875 
Q 16.75 56 26.8125 56 
Q 31.78125 56 36.171875 55.265625 
Q 40.578125 54.546875 44.28125 53.078125 
z
" id="DejaVuSans-115"/>
      <path d="M 25.390625 72.90625 
L 33.6875 72.90625 
L 8.296875 -9.28125 
L 0 -9.28125 
z
" id="DejaVuSans-47"/>
      <path d="M 45.40625 46.390625 
L 45.40625 75.984375 
L 54.390625 75.984375 
L 54.390625 0 
L 45.40625 0 
L 45.40625 8.203125 
Q 42.578125 3.328125 38.25 0.953125 
Q 33.9375 -1.421875 27.875 -1.421875 
Q 17.96875 -1.421875 11.734375 6.484375 
Q 5.515625 14.40625 5.515625 27.296875 
Q 5.515625 40.1875 11.734375 48.09375 
Q 17.96875 56 27.875 56 
Q 33.9375 56 38.25 53.625 
Q 42.578125 51.265625 45.40625 46.390625 
z
M 14.796875 27.296875 
Q 14.796875 17.390625 18.875 11.75 
Q 22.953125 6.109375 30.078125 6.109375 
Q 37.203125 6.109375 41.296875 11.75 
Q 45.40625 17.390625 45.40625 27.296875 
Q 45.40625 37.203125 41.296875 42.84375 
Q 37.203125 48.484375 30.078125 48.484375 
Q 22.953125 48.484375 18.875 42.84375 
Q 14.796875 37.203125 14.796875 27.296875 
z
" id="DejaVuSans-100"/>
      <path d="M 9.421875 54.6875 
L 18.40625 54.6875 
L 18.40625 0 
L 9.421875 0 
z
M 9.421875 75.984375 
L 18.40625 75.984375 
L 18.40625 64.59375 
L 9.421875 64.59375 
z
" id="DejaVuSans-105"/>
      <path d="M 52 44.1875 
Q 55.375 50.25 60.0625 53.125 
Q 64.75 56 71.09375 56 
Q 79.640625 56 84.28125 50.015625 
Q 88.921875 44.046875 88.921875 33.015625 
L 88.921875 0 
L 79.890625 0 
L 79.890625 32.71875 
Q 79.890625 40.578125 77.09375 44.375 
Q 74.3125 48.1875 68.609375 48.1875 
Q 61.625 48.1875 57.5625 43.546875 
Q 53.515625 38.921875 53.515625 30.90625 
L 53.515625 0 
L 44.484375 0 
L 44.484375 32.71875 
Q 44.484375 40.625 41.703125 44.40625 
Q 38.921875 48.1875 33.109375 48.1875 
Q 26.21875 48.1875 22.15625 43.53125 
Q 18.109375 38.875 18.109375 30.90625 
L 18.109375 0 
L 9.078125 0 
L 9.078125 54.6875 
L 18.109375 54.6875 
L 18.109375 46.1875 
Q 21.1875 51.21875 25.484375 53.609375 
Q 29.78125 56 35.6875 56 
Q 41.65625 56 45.828125 52.96875 
Q 50 49.953125 52 44.1875 
z
" id="DejaVuSans-109"/>
      <path d="M 54.890625 33.015625 
L 54.890625 0 
L 45.90625 0 
L 45.90625 32.71875 
Q 45.90625 40.484375 42.875 44.328125 
Q 39.84375 48.1875 33.796875 48.1875 
Q 26.515625 48.1875 22.3125 43.546875 
Q 18.109375 38.921875 18.109375 30.90625 
L 18.109375 0 
L 9.078125 0 
L 9.078125 54.6875 
L 18.109375 54.6875 
L 18.109375 46.1875 
Q 21.34375 51.125 25.703125 53.5625 
Q 30.078125 56 35.796875 56 
Q 45.21875 56 50.046875 50.171875 
Q 54.890625 44.34375 54.890625 33.015625 
z
" id="DejaVuSans-110"/>
      <path d="M 8.015625 75.875 
L 15.828125 75.875 
Q 23.140625 64.359375 26.78125 53.3125 
Q 30.421875 42.28125 30.421875 31.390625 
Q 30.421875 20.453125 26.78125 9.375 
Q 23.140625 -1.703125 15.828125 -13.1875 
L 8.015625 -13.1875 
Q 14.5 -2 17.703125 9.0625 
Q 20.90625 20.125 20.90625 31.390625 
Q 20.90625 42.671875 17.703125 53.65625 
Q 14.5 64.65625 8.015625 75.875 
z
" id="DejaVuSans-41"/>
     </defs>
     <g transform="translate(77.303219 342.217594)scale(0.17 -0.17)">
      <use xlink:href="#DejaVuSans-108"/>
      <use x="27.783203" xlink:href="#DejaVuSans-111"/>
      <use x="88.964844" xlink:href="#DejaVuSans-103"/>
      <use x="152.441406" xlink:href="#DejaVuSans-49"/>
      <use x="216.064453" xlink:href="#DejaVuSans-48"/>
      <use x="279.6875" xlink:href="#DejaVuSans-40"/>
      <use x="318.701172" xlink:href="#DejaVuSans-35"/>
      <use x="402.490234" xlink:href="#DejaVuSans-32"/>
      <use x="434.277344" xlink:href="#DejaVuSans-102"/>
      <use x="469.404297" xlink:href="#DejaVuSans-45"/>
      <use x="505.488281" xlink:href="#DejaVuSans-101"/>
      <use x="567.011719" xlink:href="#DejaVuSans-118"/>
      <use x="626.191406" xlink:href="#DejaVuSans-97"/>
      <use x="687.470703" xlink:href="#DejaVuSans-108"/>
      <use x="715.253906" xlink:href="#DejaVuSans-115"/>
      <use x="767.353516" xlink:href="#DejaVuSans-32"/>
      <use x="799.140625" xlink:href="#DejaVuSans-47"/>
      <use x="832.832031" xlink:href="#DejaVuSans-32"/>
      <use x="864.619141" xlink:href="#DejaVuSans-100"/>
      <use x="928.095703" xlink:href="#DejaVuSans-105"/>
      <use x="955.878906" xlink:href="#DejaVuSans-109"/>
      <use x="1053.291016" xlink:href="#DejaVuSans-101"/>
      <use x="1114.814453" xlink:href="#DejaVuSans-110"/>
      <use x="1178.193359" xlink:href="#DejaVuSans-115"/>
      <use x="1230.292969" xlink:href="#DejaVuSans-105"/>
      <use x="1258.076172" xlink:href="#DejaVuSans-111"/>
      <use x="1319.257812" xlink:href="#DejaVuSans-110"/>
      <use x="1382.636719" xlink:href="#DejaVuSans-41"/>
     </g>
    </g>
   </g>
   <g id="matplotlib.axis_2">
    <g id="ytick_1">
     <g id="line2d_29">
      <path clip-path="url(#pf14030ce66)" d="M 57.6 298.944 
L 338.688 298.944 
" style="fill:none;stroke:#b0b0b0;stroke-linecap:square;stroke-width:0.8;"/>
     </g>
     <g id="line2d_30">
      <defs>
       <path d="M 0 0 
L -3.5 0 
" id="m1c8cad7573" style="stroke:#000000;stroke-width:0.8;"/>
      </defs>
      <g>
       <use style="stroke:#000000;stroke-width:0.8;" x="57.6" xlink:href="#m1c8cad7573" y="298.944"/>
      </g>
     </g>
     <g id="text_6">
      <!-- 0.0 -->
      <defs>
       <path d="M 10.6875 12.40625 
L 21 12.40625 
L 21 0 
L 10.6875 0 
z
" id="DejaVuSans-46"/>
      </defs>
      <g transform="translate(25.155 305.02275)scale(0.16 -0.16)">
       <use xlink:href="#DejaVuSans-48"/>
       <use x="63.623047" xlink:href="#DejaVuSans-46"/>
       <use x="95.410156" xlink:href="#DejaVuSans-48"/>
      </g>
     </g>
    </g>
    <g id="ytick_2">
     <g id="line2d_31">
      <path clip-path="url(#pf14030ce66)" d="M 57.6 247.959446 
L 338.688 247.959446 
" style="fill:none;stroke:#b0b0b0;stroke-linecap:square;stroke-width:0.8;"/>
     </g>
     <g id="line2d_32">
      <g>
       <use style="stroke:#000000;stroke-width:0.8;" x="57.6" xlink:href="#m1c8cad7573" y="247.959446"/>
      </g>
     </g>
     <g id="text_7">
      <!-- 0.2 -->
      <g transform="translate(25.155 254.038196)scale(0.16 -0.16)">
       <use xlink:href="#DejaVuSans-48"/>
       <use x="63.623047" xlink:href="#DejaVuSans-46"/>
       <use x="95.410156" xlink:href="#DejaVuSans-50"/>
      </g>
     </g>
    </g>
    <g id="ytick_3">
     <g id="line2d_33">
      <path clip-path="url(#pf14030ce66)" d="M 57.6 196.974891 
L 338.688 196.974891 
" style="fill:none;stroke:#b0b0b0;stroke-linecap:square;stroke-width:0.8;"/>
     </g>
     <g id="line2d_34">
      <g>
       <use style="stroke:#000000;stroke-width:0.8;" x="57.6" xlink:href="#m1c8cad7573" y="196.974891"/>
      </g>
     </g>
     <g id="text_8">
      <!-- 0.4 -->
      <g transform="translate(25.155 203.053641)scale(0.16 -0.16)">
       <use xlink:href="#DejaVuSans-48"/>
       <use x="63.623047" xlink:href="#DejaVuSans-46"/>
       <use x="95.410156" xlink:href="#DejaVuSans-52"/>
      </g>
     </g>
    </g>
    <g id="ytick_4">
     <g id="line2d_35">
      <path clip-path="url(#pf14030ce66)" d="M 57.6 145.990337 
L 338.688 145.990337 
" style="fill:none;stroke:#b0b0b0;stroke-linecap:square;stroke-width:0.8;"/>
     </g>
     <g id="line2d_36">
      <g>
       <use style="stroke:#000000;stroke-width:0.8;" x="57.6" xlink:href="#m1c8cad7573" y="145.990337"/>
      </g>
     </g>
     <g id="text_9">
      <!-- 0.6 -->
      <g transform="translate(25.155 152.069087)scale(0.16 -0.16)">
       <use xlink:href="#DejaVuSans-48"/>
       <use x="63.623047" xlink:href="#DejaVuSans-46"/>
       <use x="95.410156" xlink:href="#DejaVuSans-54"/>
      </g>
     </g>
    </g>
    <g id="ytick_5">
     <g id="line2d_37">
      <path clip-path="url(#pf14030ce66)" d="M 57.6 95.005782 
L 338.688 95.005782 
" style="fill:none;stroke:#b0b0b0;stroke-linecap:square;stroke-width:0.8;"/>
     </g>
     <g id="line2d_38">
      <g>
       <use style="stroke:#000000;stroke-width:0.8;" x="57.6" xlink:href="#m1c8cad7573" y="95.005782"/>
      </g>
     </g>
     <g id="text_10">
      <!-- 0.8 -->
      <defs>
       <path d="M 31.78125 34.625 
Q 24.75 34.625 20.71875 30.859375 
Q 16.703125 27.09375 16.703125 20.515625 
Q 16.703125 13.921875 20.71875 10.15625 
Q 24.75 6.390625 31.78125 6.390625 
Q 38.8125 6.390625 42.859375 10.171875 
Q 46.921875 13.96875 46.921875 20.515625 
Q 46.921875 27.09375 42.890625 30.859375 
Q 38.875 34.625 31.78125 34.625 
z
M 21.921875 38.8125 
Q 15.578125 40.375 12.03125 44.71875 
Q 8.5 49.078125 8.5 55.328125 
Q 8.5 64.0625 14.71875 69.140625 
Q 20.953125 74.21875 31.78125 74.21875 
Q 42.671875 74.21875 48.875 69.140625 
Q 55.078125 64.0625 55.078125 55.328125 
Q 55.078125 49.078125 51.53125 44.71875 
Q 48 40.375 41.703125 38.8125 
Q 48.828125 37.15625 52.796875 32.3125 
Q 56.78125 27.484375 56.78125 20.515625 
Q 56.78125 9.90625 50.3125 4.234375 
Q 43.84375 -1.421875 31.78125 -1.421875 
Q 19.734375 -1.421875 13.25 4.234375 
Q 6.78125 9.90625 6.78125 20.515625 
Q 6.78125 27.484375 10.78125 32.3125 
Q 14.796875 37.15625 21.921875 38.8125 
z
M 18.3125 54.390625 
Q 18.3125 48.734375 21.84375 45.5625 
Q 25.390625 42.390625 31.78125 42.390625 
Q 38.140625 42.390625 41.71875 45.5625 
Q 45.3125 48.734375 45.3125 54.390625 
Q 45.3125 60.0625 41.71875 63.234375 
Q 38.140625 66.40625 31.78125 66.40625 
Q 25.390625 66.40625 21.84375 63.234375 
Q 18.3125 60.0625 18.3125 54.390625 
z
" id="DejaVuSans-56"/>
      </defs>
      <g transform="translate(25.155 101.084532)scale(0.16 -0.16)">
       <use xlink:href="#DejaVuSans-48"/>
       <use x="63.623047" xlink:href="#DejaVuSans-46"/>
       <use x="95.410156" xlink:href="#DejaVuSans-56"/>
      </g>
     </g>
    </g>
    <g id="ytick_6">
     <g id="line2d_39">
      <path clip-path="url(#pf14030ce66)" d="M 57.6 44.021228 
L 338.688 44.021228 
" style="fill:none;stroke:#b0b0b0;stroke-linecap:square;stroke-width:0.8;"/>
     </g>
     <g id="line2d_40">
      <g>
       <use style="stroke:#000000;stroke-width:0.8;" x="57.6" xlink:href="#m1c8cad7573" y="44.021228"/>
      </g>
     </g>
     <g id="text_11">
      <!-- 1.0 -->
      <g transform="translate(25.155 50.099978)scale(0.16 -0.16)">
       <use xlink:href="#DejaVuSans-49"/>
       <use x="63.623047" xlink:href="#DejaVuSans-46"/>
       <use x="95.410156" xlink:href="#DejaVuSans-48"/>
      </g>
     </g>
    </g>
    <g id="text_12">
     <!-- Fraction of function,target pairs -->
     <defs>
      <path d="M 9.8125 72.90625 
L 51.703125 72.90625 
L 51.703125 64.59375 
L 19.671875 64.59375 
L 19.671875 43.109375 
L 48.578125 43.109375 
L 48.578125 34.8125 
L 19.671875 34.8125 
L 19.671875 0 
L 9.8125 0 
z
" id="DejaVuSans-70"/>
      <path d="M 41.109375 46.296875 
Q 39.59375 47.171875 37.8125 47.578125 
Q 36.03125 48 33.890625 48 
Q 26.265625 48 22.1875 43.046875 
Q 18.109375 38.09375 18.109375 28.8125 
L 18.109375 0 
L 9.078125 0 
L 9.078125 54.6875 
L 18.109375 54.6875 
L 18.109375 46.1875 
Q 20.953125 51.171875 25.484375 53.578125 
Q 30.03125 56 36.53125 56 
Q 37.453125 56 38.578125 55.875 
Q 39.703125 55.765625 41.0625 55.515625 
z
" id="DejaVuSans-114"/>
      <path d="M 48.78125 52.59375 
L 48.78125 44.1875 
Q 44.96875 46.296875 41.140625 47.34375 
Q 37.3125 48.390625 33.40625 48.390625 
Q 24.65625 48.390625 19.8125 42.84375 
Q 14.984375 37.3125 14.984375 27.296875 
Q 14.984375 17.28125 19.8125 11.734375 
Q 24.65625 6.203125 33.40625 6.203125 
Q 37.3125 6.203125 41.140625 7.25 
Q 44.96875 8.296875 48.78125 10.40625 
L 48.78125 2.09375 
Q 45.015625 0.34375 40.984375 -0.53125 
Q 36.96875 -1.421875 32.421875 -1.421875 
Q 20.0625 -1.421875 12.78125 6.34375 
Q 5.515625 14.109375 5.515625 27.296875 
Q 5.515625 40.671875 12.859375 48.328125 
Q 20.21875 56 33.015625 56 
Q 37.15625 56 41.109375 55.140625 
Q 45.0625 54.296875 48.78125 52.59375 
z
" id="DejaVuSans-99"/>
      <path d="M 18.3125 70.21875 
L 18.3125 54.6875 
L 36.8125 54.6875 
L 36.8125 47.703125 
L 18.3125 47.703125 
L 18.3125 18.015625 
Q 18.3125 11.328125 20.140625 9.421875 
Q 21.96875 7.515625 27.59375 7.515625 
L 36.8125 7.515625 
L 36.8125 0 
L 27.59375 0 
Q 17.1875 0 13.234375 3.875 
Q 9.28125 7.765625 9.28125 18.015625 
L 9.28125 47.703125 
L 2.6875 47.703125 
L 2.6875 54.6875 
L 9.28125 54.6875 
L 9.28125 70.21875 
z
" id="DejaVuSans-116"/>
      <path d="M 8.5 21.578125 
L 8.5 54.6875 
L 17.484375 54.6875 
L 17.484375 21.921875 
Q 17.484375 14.15625 20.5 10.265625 
Q 23.53125 6.390625 29.59375 6.390625 
Q 36.859375 6.390625 41.078125 11.03125 
Q 45.3125 15.671875 45.3125 23.6875 
L 45.3125 54.6875 
L 54.296875 54.6875 
L 54.296875 0 
L 45.3125 0 
L 45.3125 8.40625 
Q 42.046875 3.421875 37.71875 1 
Q 33.40625 -1.421875 27.6875 -1.421875 
Q 18.265625 -1.421875 13.375 4.4375 
Q 8.5 10.296875 8.5 21.578125 
z
M 31.109375 56 
z
" id="DejaVuSans-117"/>
      <path d="M 11.71875 12.40625 
L 22.015625 12.40625 
L 22.015625 4 
L 14.015625 -11.625 
L 7.71875 -11.625 
L 11.71875 4 
z
" id="DejaVuSans-44"/>
      <path d="M 18.109375 8.203125 
L 18.109375 -20.796875 
L 9.078125 -20.796875 
L 9.078125 54.6875 
L 18.109375 54.6875 
L 18.109375 46.390625 
Q 20.953125 51.265625 25.265625 53.625 
Q 29.59375 56 35.59375 56 
Q 45.5625 56 51.78125 48.09375 
Q 58.015625 40.1875 58.015625 27.296875 
Q 58.015625 14.40625 51.78125 6.484375 
Q 45.5625 -1.421875 35.59375 -1.421875 
Q 29.59375 -1.421875 25.265625 0.953125 
Q 20.953125 3.328125 18.109375 8.203125 
z
M 48.6875 27.296875 
Q 48.6875 37.203125 44.609375 42.84375 
Q 40.53125 48.484375 33.40625 48.484375 
Q 26.265625 48.484375 22.1875 42.84375 
Q 18.109375 37.203125 18.109375 27.296875 
Q 18.109375 17.390625 22.1875 11.75 
Q 26.265625 6.109375 33.40625 6.109375 
Q 40.53125 6.109375 44.609375 11.75 
Q 48.6875 17.390625 48.6875 27.296875 
z
" id="DejaVuSans-112"/>
     </defs>
     <g transform="translate(17.619531 305.347375)rotate(-90)scale(0.17 -0.17)">
      <use xlink:href="#DejaVuSans-70"/>
      <use x="57.410156" xlink:href="#DejaVuSans-114"/>
      <use x="98.523438" xlink:href="#DejaVuSans-97"/>
      <use x="159.802734" xlink:href="#DejaVuSans-99"/>
      <use x="214.783203" xlink:href="#DejaVuSans-116"/>
      <use x="253.992188" xlink:href="#DejaVuSans-105"/>
      <use x="281.775391" xlink:href="#DejaVuSans-111"/>
      <use x="342.957031" xlink:href="#DejaVuSans-110"/>
      <use x="406.335938" xlink:href="#DejaVuSans-32"/>
      <use x="438.123047" xlink:href="#DejaVuSans-111"/>
      <use x="499.304688" xlink:href="#DejaVuSans-102"/>
      <use x="534.509766" xlink:href="#DejaVuSans-32"/>
      <use x="566.296875" xlink:href="#DejaVuSans-102"/>
      <use x="601.501953" xlink:href="#DejaVuSans-117"/>
      <use x="664.880859" xlink:href="#DejaVuSans-110"/>
      <use x="728.259766" xlink:href="#DejaVuSans-99"/>
      <use x="783.240234" xlink:href="#DejaVuSans-116"/>
      <use x="822.449219" xlink:href="#DejaVuSans-105"/>
      <use x="850.232422" xlink:href="#DejaVuSans-111"/>
      <use x="911.414062" xlink:href="#DejaVuSans-110"/>
      <use x="974.792969" xlink:href="#DejaVuSans-44"/>
      <use x="1006.580078" xlink:href="#DejaVuSans-116"/>
      <use x="1045.789062" xlink:href="#DejaVuSans-97"/>
      <use x="1107.068359" xlink:href="#DejaVuSans-114"/>
      <use x="1148.166016" xlink:href="#DejaVuSans-103"/>
      <use x="1211.642578" xlink:href="#DejaVuSans-101"/>
      <use x="1273.166016" xlink:href="#DejaVuSans-116"/>
      <use x="1312.375" xlink:href="#DejaVuSans-32"/>
      <use x="1344.162109" xlink:href="#DejaVuSans-112"/>
      <use x="1407.638672" xlink:href="#DejaVuSans-97"/>
      <use x="1468.917969" xlink:href="#DejaVuSans-105"/>
      <use x="1496.701172" xlink:href="#DejaVuSans-114"/>
      <use x="1537.814453" xlink:href="#DejaVuSans-115"/>
     </g>
    </g>
   </g>
   <g id="line2d_41">
    <defs>
     <path d="M 0 1.5 
C 0.397805 1.5 0.77937 1.341951 1.06066 1.06066 
C 1.341951 0.77937 1.5 0.397805 1.5 0 
C 1.5 -0.397805 1.341951 -0.77937 1.06066 -1.06066 
C 0.77937 -1.341951 0.397805 -1.5 0 -1.5 
C -0.397805 -1.5 -0.77937 -1.341951 -1.06066 -1.06066 
C -1.341951 -0.77937 -1.5 -0.397805 -1.5 0 
C -1.5 0.397805 -1.341951 0.77937 -1.06066 1.06066 
C -0.77937 1.341951 -0.397805 1.5 0 1.5 
z
" id="m9d1bd97477" style="stroke:#f5deb3;"/>
    </defs>
    <g>
     <use style="fill:#f5deb3;stroke:#f5deb3;" x="203.916686" xlink:href="#m9d1bd97477" y="44.021228"/>
     <use style="fill:#f5deb3;stroke:#f5deb3;" x="203.916686" xlink:href="#m9d1bd97477" y="44.021228"/>
    </g>
   </g>
   <g id="line2d_42">
    <defs>
     <path d="M 0 1.5 
C 0.397805 1.5 0.77937 1.341951 1.06066 1.06066 
C 1.341951 0.77937 1.5 0.397805 1.5 0 
C 1.5 -0.397805 1.341951 -0.77937 1.06066 -1.06066 
C 0.77937 -1.341951 0.397805 -1.5 0 -1.5 
C -0.397805 -1.5 -0.77937 -1.341951 -1.06066 -1.06066 
C -1.341951 -0.77937 -1.5 -0.397805 -1.5 0 
C -1.5 0.397805 -1.341951 0.77937 -1.06066 1.06066 
C -0.77937 1.341951 -0.397805 1.5 0 1.5 
z
" id="m902e04cce0" style="stroke:#000080;"/>
    </defs>
    <g>
     <use style="fill:#000080;stroke:#000080;" x="214.275887" xlink:href="#m902e04cce0" y="44.021228"/>
     <use style="fill:#000080;stroke:#000080;" x="214.275887" xlink:href="#m902e04cce0" y="44.021228"/>
    </g>
   </g>
   <g id="line2d_43">
    <path d="M 17.444571 298.944 
L 17.444571 297.444454 
L 36.60358 297.444454 
L 36.60358 296.444757 
L 51.379845 296.444757 
L 51.379845 295.944909 
L 53.708537 295.944909 
L 53.708537 294.945211 
L 57.6 294.945211 
L 57.6 294.445363 
L 65.796525 294.445363 
L 65.796525 293.445666 
L 67.850577 293.445666 
L 67.850577 292.945817 
L 77.884514 292.945817 
L 77.884514 290.946423 
L 81.334453 290.946423 
L 81.334453 290.446574 
L 85.315119 290.446574 
L 85.315119 289.946726 
L 86.012784 289.946726 
L 86.012784 289.446877 
L 87.952479 289.446877 
L 87.952479 288.947029 
L 90.509138 288.947029 
L 90.509138 287.447483 
L 91.535274 287.447483 
L 91.535274 286.947634 
L 92.73846 286.947634 
L 92.73846 286.447786 
L 95.526106 286.447786 
L 95.526106 285.947937 
L 96.301313 285.947937 
L 96.301313 285.448089 
L 97.755429 285.448089 
L 97.755429 284.94824 
L 101.365607 284.94824 
L 101.365607 284.448391 
L 101.646892 284.448391 
L 101.646892 283.448694 
L 102.060491 283.448694 
L 102.060491 282.448997 
L 102.330873 282.448997 
L 102.330873 281.949149 
L 102.989037 281.949149 
L 102.989037 281.4493 
L 103.372333 281.4493 
L 103.372333 280.949451 
L 103.993014 280.949451 
L 103.993014 279.949754 
L 105.621863 279.949754 
L 105.621863 279.449906 
L 106.593963 279.449906 
L 106.698704 277.95036 
L 107.614095 277.95036 
L 107.614095 276.950663 
L 108.198707 276.950663 
L 108.198707 275.950966 
L 109.131511 275.950966 
L 109.131511 275.451117 
L 109.401893 275.451117 
L 109.401893 274.951268 
L 110.527398 274.951268 
L 110.527398 273.951571 
L 112.204777 273.951571 
L 112.204777 273.451723 
L 112.431755 273.451723 
L 112.431755 272.951874 
L 113.239614 272.951874 
L 113.239614 272.452026 
L 114.216469 272.452026 
L 114.216469 271.952177 
L 115.523393 271.952177 
L 115.523393 271.452328 
L 116.262979 271.452328 
L 116.262979 270.95248 
L 116.621333 270.95248 
L 116.621333 270.452631 
L 117.765302 270.452631 
L 117.765302 269.452934 
L 118.202674 269.452934 
L 118.202674 268.953086 
L 118.470564 268.953086 
L 118.523652 267.953388 
L 118.786692 267.953388 
L 118.786692 266.953691 
L 120.759333 266.953691 
L 120.759333 266.453843 
L 121.310093 266.453843 
L 121.310093 265.953994 
L 123.152022 265.953994 
L 123.192626 264.954297 
L 123.434283 264.954297 
L 123.434283 263.9546 
L 123.751369 263.9546 
L 123.751369 262.455054 
L 124.292765 262.455054 
L 124.292765 261.955206 
L 125.110962 261.955206 
L 125.110962 261.455357 
L 125.255688 261.455357 
L 125.255688 260.45566 
L 125.787955 260.45566 
L 125.857712 258.456266 
L 127.293718 258.456266 
L 127.325746 257.456568 
L 127.799239 257.456568 
L 127.799239 256.95672 
L 129.118302 256.95672 
L 129.147151 255.957023 
L 129.88095 255.957023 
L 129.88095 254.957326 
L 130.018593 254.957326 
L 130.018593 254.457477 
L 130.290663 254.457477 
L 130.290663 253.957628 
L 130.69097 253.957628 
L 130.69097 252.957931 
L 130.900768 252.957931 
L 130.900768 251.958234 
L 132.326708 251.958234 
L 132.326708 251.458386 
L 133.147807 251.458386 
L 133.147807 250.958537 
L 133.420657 250.958537 
L 133.420657 250.458688 
L 133.689303 250.458688 
L 133.689303 249.95884 
L 133.910056 249.95884 
L 133.910056 249.458991 
L 134.279041 249.458991 
L 134.279041 248.459294 
L 134.407429 248.459294 
L 134.428735 246.959748 
L 135.035562 246.959748 
L 135.035562 246.4599 
L 135.381712 246.4599 
L 135.381712 245.960051 
L 135.522271 245.960051 
L 135.522271 244.960354 
L 135.760625 244.960354 
L 135.760625 244.460506 
L 136.701442 244.460506 
L 136.701442 243.960657 
L 137.576323 243.960657 
L 137.576323 243.460808 
L 137.753193 243.460808 
L 137.753193 241.961263 
L 138.118883 241.961263 
L 138.118883 240.961566 
L 138.27329 240.961566 
L 138.27329 240.461717 
L 138.611599 240.461717 
L 138.645071 239.46202 
L 138.778323 239.46202 
L 138.778323 238.962171 
L 139.509467 238.962171 
L 139.509467 238.462323 
L 141.119455 238.462323 
L 141.119455 237.462626 
L 142.419098 237.462626 
L 142.419098 235.463231 
L 142.778958 235.463231 
L 142.778958 234.963383 
L 144.486611 234.963383 
L 144.570138 233.963685 
L 144.617689 233.963685 
L 144.617689 233.463837 
L 144.865226 233.463837 
L 144.865226 232.963988 
L 145.005114 232.963988 
L 145.005114 232.46414 
L 145.189903 232.46414 
L 145.189903 231.964291 
L 145.542453 231.964291 
L 145.542453 231.464443 
L 145.854874 231.464443 
L 145.854874 230.964594 
L 146.675697 230.964594 
L 146.675697 230.464745 
L 146.947864 230.464745 
L 146.999721 228.9652 
L 148.23877 228.9652 
L 148.23877 228.465351 
L 149.095146 228.465351 
L 149.095146 227.965503 
L 151.850203 227.965503 
L 151.850203 227.465654 
L 166.151824 227.465654 
L 166.151824 226.465957 
L 167.545055 226.465957 
L 167.589632 225.46626 
L 168.944375 225.46626 
L 168.944375 224.966411 
L 169.253507 224.966411 
L 169.253507 223.966714 
L 169.853011 223.966714 
L 169.853011 223.466865 
L 169.972696 223.466865 
L 170.080543 221.96732 
L 170.17128 221.96732 
L 170.17128 220.967623 
L 170.508071 220.967623 
L 170.612667 219.967925 
L 170.626031 219.967925 
L 170.626031 219.468077 
L 170.817353 219.468077 
L 170.817353 218.968228 
L 170.967341 218.968228 
L 170.967341 218.46838 
L 171.154974 218.46838 
L 171.2274 217.468683 
L 171.302098 217.468683 
L 171.302098 216.968834 
L 171.427588 216.968834 
L 171.531901 215.469288 
L 171.721118 215.469288 
L 171.828683 214.469591 
L 171.955406 214.469591 
L 171.987562 213.469894 
L 172.169479 213.469894 
L 172.169479 212.970045 
L 172.284043 212.970045 
L 172.284043 211.4705 
L 172.395445 211.4705 
L 172.395445 210.470803 
L 172.539692 210.470803 
L 172.608985 207.97156 
L 172.794007 207.97156 
L 172.794007 207.471711 
L 172.96307 207.471711 
L 173.053967 205.972165 
L 173.197501 205.972165 
L 173.197501 204.972468 
L 173.349008 204.972468 
L 173.349008 204.47262 
L 173.866933 204.47262 
L 173.866933 202.973074 
L 174.207491 202.973074 
L 174.207491 202.473225 
L 175.683698 202.473225 
L 175.683698 201.973377 
L 176.423492 201.973377 
L 176.423492 201.473528 
L 176.625434 201.473528 
L 176.625434 200.97368 
L 177.003912 200.97368 
L 177.003912 200.473831 
L 177.116609 200.473831 
L 177.116609 199.973983 
L 177.248698 199.973983 
L 177.248698 198.974285 
L 177.488292 198.974285 
L 177.488292 197.974588 
L 177.665852 197.974588 
L 177.690816 196.974891 
L 177.894538 196.974891 
L 177.894538 196.475043 
L 178.262244 196.475043 
L 178.312182 195.475345 
L 178.605458 195.475345 
L 178.656109 193.475951 
L 178.743558 193.475951 
L 178.743558 192.976103 
L 178.928773 192.976103 
L 179.006609 190.47686 
L 179.27877 190.47686 
L 179.3129 189.477162 
L 179.533929 189.477162 
L 179.533929 188.477465 
L 180.051996 188.477465 
L 180.051996 187.977617 
L 180.337551 187.977617 
L 180.337551 186.97792 
L 180.884622 186.97792 
L 180.884622 185.978222 
L 181.063231 185.978222 
L 181.063231 184.978525 
L 181.174486 184.978525 
L 181.174486 184.478677 
L 181.621081 184.478677 
L 181.621081 183.978828 
L 181.790932 183.978828 
L 181.790932 182.979131 
L 182.585296 182.979131 
L 182.585296 182.479282 
L 182.778027 182.479282 
L 182.87757 180.479888 
L 183.38623 180.479888 
L 183.38623 178.980342 
L 183.777712 178.980342 
L 183.777712 177.480797 
L 183.895461 177.480797 
L 183.895461 176.980948 
L 184.021099 176.980948 
L 184.021099 175.481402 
L 184.242788 175.481402 
L 184.242788 174.481705 
L 184.403587 174.481705 
L 184.403587 173.482008 
L 184.774305 173.482008 
L 184.78973 172.482311 
L 185.136143 172.482311 
L 185.136143 171.982462 
L 185.347629 171.982462 
L 185.347629 171.482614 
L 185.459838 171.482614 
L 185.459838 170.982765 
L 185.929388 170.982765 
L 185.929388 169.983068 
L 186.312877 169.983068 
L 186.320483 167.483825 
L 186.646581 167.483825 
L 186.74758 166.484128 
L 186.795218 166.484128 
L 186.795218 165.98428 
L 187.011649 165.98428 
L 187.011649 164.984582 
L 187.44884 164.984582 
L 187.550373 162.985188 
L 187.636214 162.985188 
L 187.636214 162.48534 
L 187.839529 162.48534 
L 187.926934 158.486551 
L 188.008973 158.486551 
L 188.120049 153.488065 
L 188.133761 153.488065 
L 188.133761 152.988217 
L 188.264466 152.988217 
L 188.364272 151.488671 
L 188.444284 151.488671 
L 188.508606 149.489277 
L 188.772986 149.489277 
L 188.810699 148.489579 
L 188.97474 148.489579 
L 189.079849 145.490488 
L 189.113203 145.490488 
L 189.152958 143.491094 
L 189.256084 143.491094 
L 189.256084 142.491397 
L 189.425102 142.491397 
L 189.518498 138.992457 
L 189.551024 138.992457 
L 189.584391 137.992759 
L 189.665286 137.992759 
L 189.763652 134.493819 
L 189.778804 134.493819 
L 189.791273 132.994274 
L 189.947267 132.994274 
L 190.004527 130.495031 
L 190.096629 130.495031 
L 190.125476 129.495334 
L 190.244723 129.495334 
L 190.268995 127.495939 
L 190.380385 127.495939 
L 190.380385 126.996091 
L 190.667219 126.996091 
L 190.739882 125.496545 
L 190.941912 125.496545 
L 190.941912 124.996697 
L 191.055723 124.996697 
L 191.072276 123.497151 
L 191.167151 123.497151 
L 191.167151 122.497454 
L 191.378955 122.497454 
L 191.44629 120.997908 
L 191.52949 120.997908 
L 191.536741 119.498362 
L 191.653951 119.498362 
L 191.653951 118.998514 
L 191.767199 118.998514 
L 191.767199 118.498665 
L 191.883664 118.498665 
L 191.951442 117.498968 
L 192.039317 117.498968 
L 192.039317 116.999119 
L 192.300317 116.999119 
L 192.300317 116.499271 
L 192.978544 116.499271 
L 192.978544 115.999422 
L 194.899924 115.999422 
L 194.899924 115.499574 
L 197.593988 115.499574 
L 197.593988 114.999725 
L 198.041246 114.999725 
L 198.069515 114.000028 
L 198.154598 114.000028 
L 198.154598 113.500179 
L 198.29731 113.500179 
L 198.300589 112.500482 
L 198.526484 112.500482 
L 198.576587 110.001239 
L 198.850933 110.001239 
L 198.956 108.001845 
L 198.983351 108.001845 
L 199.011184 107.002148 
L 199.246244 107.002148 
L 199.246244 106.002451 
L 199.484308 106.002451 
L 199.563793 102.503511 
L 199.605428 102.503511 
L 199.691431 98.004874 
L 199.76395 98.004874 
L 199.76395 97.005176 
L 199.875662 97.005176 
L 199.965314 95.005782 
L 200.002533 95.005782 
L 200.071798 92.506539 
L 200.179108 92.506539 
L 200.273563 90.007296 
L 200.351483 90.007296 
L 200.351483 89.507448 
L 200.508211 89.507448 
L 200.583653 88.007902 
L 200.630579 88.007902 
L 200.630579 87.508054 
L 201.620499 87.508054 
L 201.620499 87.008205 
L 201.861446 87.008205 
L 201.964079 86.008508 
L 202.138628 86.008508 
L 202.138628 85.508659 
L 202.566222 85.508659 
L 202.628592 84.508962 
L 202.69074 84.508962 
L 202.725124 83.509265 
L 202.893514 83.509265 
L 202.974387 82.509568 
L 203.030733 82.509568 
L 203.104335 80.510174 
L 203.206529 80.510174 
L 203.271587 79.510476 
L 203.335175 79.510476 
L 203.358501 77.511082 
L 203.620299 77.511082 
L 203.620299 77.011234 
L 203.888146 77.011234 
L 203.888146 76.011536 
L 204.003998 76.011536 
L 204.09362 74.012142 
L 204.128088 74.012142 
L 204.128088 73.512294 
L 204.316067 73.512294 
L 204.41142 72.512596 
L 204.442192 72.512596 
L 204.535331 70.513202 
L 204.558252 70.513202 
L 204.558252 69.513505 
L 206.262301 69.513505 
L 206.262301 69.013656 
L 206.565368 69.013656 
L 206.565368 68.013959 
L 206.693514 68.013959 
L 206.693514 67.014262 
L 206.915028 67.014262 
L 207.021755 64.015171 
L 207.105746 64.015171 
L 207.208365 62.515625 
L 207.283303 62.515625 
L 207.284282 61.515928 
L 210.219147 61.515928 
L 210.219147 61.016079 
L 210.363419 61.016079 
L 210.471184 59.516533 
L 210.60152 59.516533 
L 210.691185 57.517139 
L 210.80549 57.517139 
L 210.889336 55.517745 
L 210.958769 55.517745 
L 210.982821 53.518351 
L 212.088043 53.518351 
L 212.088043 52.018805 
L 212.272003 52.018805 
L 212.272003 50.519259 
L 213.30722 50.519259 
L 213.39967 49.519562 
L 213.81434 49.519562 
L 213.84866 47.020319 
L 213.955672 47.020319 
L 213.955672 46.520471 
L 214.097857 46.520471 
L 214.202697 45.020925 
L 214.238454 45.020925 
L 214.275887 44.021228 
L 338.688 44.021228 
L 338.688 44.021228 
" style="fill:none;stroke:#000080;stroke-linecap:square;stroke-width:1.5;"/>
   </g>
   <g id="line2d_44">
    <defs>
     <path d="M 0 6 
C 1.591219 6 3.117479 5.367802 4.242641 4.242641 
C 5.367802 3.117479 6 1.591219 6 0 
C 6 -1.591219 5.367802 -3.117479 4.242641 -4.242641 
C 3.117479 -5.367802 1.591219 -6 0 -6 
C -1.591219 -6 -3.117479 -5.367802 -4.242641 -4.242641 
C -5.367802 -3.117479 -6 -1.591219 -6 0 
C -6 1.591219 -5.367802 3.117479 -4.242641 4.242641 
C -3.117479 5.367802 -1.591219 6 0 6 
z
" id="mc97f30981e" style="stroke:#000080;stroke-width:1.5;"/>
    </defs>
    <g>
     <use style="fill-opacity:0;stroke:#000080;stroke-width:1.5;" x="81.334453" xlink:href="#mc97f30981e" y="290.946423"/>
     <use style="fill-opacity:0;stroke:#000080;stroke-width:1.5;" x="144.486611" xlink:href="#mc97f30981e" y="234.463534"/>
     <use style="fill-opacity:0;stroke:#000080;stroke-width:1.5;" x="189.152958" xlink:href="#mc97f30981e" y="143.990942"/>
     <use style="fill-opacity:0;stroke:#000080;stroke-width:1.5;" x="214.275887" xlink:href="#mc97f30981e" y="44.521076"/>
     <use style="fill-opacity:0;stroke:#000080;stroke-width:1.5;" x="214.275887" xlink:href="#mc97f30981e" y="44.021228"/>
     <use style="fill-opacity:0;stroke:#000080;stroke-width:1.5;" x="338.688" xlink:href="#mc97f30981e" y="44.021228"/>
    </g>
   </g>
   <g id="line2d_45">
    <path style="fill:none;stroke:#000080;stroke-linecap:square;stroke-width:1.5;"/>
    <g/>
   </g>
   <g id="line2d_46">
    <defs>
     <path d="M 0 1.5 
C 0.397805 1.5 0.77937 1.341951 1.06066 1.06066 
C 1.341951 0.77937 1.5 0.397805 1.5 0 
C 1.5 -0.397805 1.341951 -0.77937 1.06066 -1.06066 
C 0.77937 -1.341951 0.397805 -1.5 0 -1.5 
C -0.397805 -1.5 -0.77937 -1.341951 -1.06066 -1.06066 
C -1.341951 -0.77937 -1.5 -0.397805 -1.5 0 
C -1.5 0.397805 -1.341951 0.77937 -1.06066 1.06066 
C -0.77937 1.341951 -0.397805 1.5 0 1.5 
z
" id="m200f8cefa4" style="stroke:#ff00ff;"/>
    </defs>
    <g>
     <use style="fill:#ff00ff;stroke:#ff00ff;" x="216.415665" xlink:href="#m200f8cefa4" y="44.021228"/>
     <use style="fill:#ff00ff;stroke:#ff00ff;" x="216.415665" xlink:href="#m200f8cefa4" y="44.021228"/>
    </g>
   </g>
   <g id="line2d_47">
    <path d="M 17.444571 298.944 
L 17.444571 296.944606 
L 36.60358 296.944606 
L 36.60358 296.444757 
L 51.379845 296.444757 
L 51.379845 294.945211 
L 57.6 294.945211 
L 57.6 294.445363 
L 62.175444 294.445363 
L 62.175444 293.945514 
L 66.853775 293.945514 
L 66.853775 293.445666 
L 67.850577 293.445666 
L 67.850577 292.445969 
L 72.867545 292.445969 
L 72.867545 291.94612 
L 74.263433 291.94612 
L 74.263433 290.946423 
L 84.588378 290.946423 
L 84.588378 290.446574 
L 84.955534 290.446574 
L 84.955534 288.947029 
L 87.009585 288.947029 
L 87.009585 287.947331 
L 88.553893 287.947331 
L 88.553893 286.447786 
L 90.771388 286.447786 
L 90.771388 285.947937 
L 92.026554 285.947937 
L 92.026554 284.448391 
L 92.73846 284.448391 
L 92.73846 283.948543 
L 97.928955 283.948543 
L 97.928955 283.448694 
L 100.192776 283.448694 
L 100.192776 281.949149 
L 100.343767 281.949149 
L 100.343767 280.949451 
L 102.060491 280.949451 
L 102.060491 280.449603 
L 102.597126 280.449603 
L 102.597126 278.950057 
L 103.245502 278.950057 
L 103.245502 278.450209 
L 103.623262 278.450209 
L 103.623262 277.95036 
L 104.474128 277.95036 
L 104.474128 276.950663 
L 105.057436 276.950663 
L 105.057436 276.450814 
L 108.389302 276.450814 
L 108.389302 275.950966 
L 110.941652 275.950966 
L 110.941652 274.951268 
L 111.104637 274.951268 
L 111.104637 273.451723 
L 111.819788 273.451723 
L 111.819788 272.951874 
L 112.506763 272.951874 
L 112.506763 272.452026 
L 114.947365 272.452026 
L 115.012316 270.95248 
L 116.443076 270.95248 
L 116.443076 269.952783 
L 117.030313 269.952783 
L 117.030313 269.452934 
L 117.202696 269.452934 
L 117.202696 268.453237 
L 117.429921 268.453237 
L 117.429921 267.953388 
L 119.552816 267.953388 
L 119.552816 267.45354 
L 119.89914 267.45354 
L 119.89914 266.953691 
L 120.665825 266.953691 
L 120.712642 265.953994 
L 120.8059 265.953994 
L 120.8059 265.454146 
L 122.061712 265.454146 
L 122.148045 264.454448 
L 122.531342 264.454448 
L 122.531342 262.954903 
L 123.273551 262.954903 
L 123.273551 262.455054 
L 123.712047 262.455054 
L 123.712047 261.955206 
L 124.965026 261.955206 
L 124.965026 260.955508 
L 126.270496 260.955508 
L 126.372183 259.455963 
L 127.035353 259.455963 
L 127.035353 258.956114 
L 128.015879 258.956114 
L 128.015879 258.456266 
L 128.199452 258.456266 
L 128.199452 257.456568 
L 129.658437 257.456568 
L 129.658437 256.95672 
L 130.398313 256.95672 
L 130.398313 255.957023 
L 130.848555 255.957023 
L 130.848555 255.457174 
L 131.056477 255.457174 
L 131.056477 254.957326 
L 132.278599 254.957326 
L 132.278599 253.45778 
L 132.422528 253.45778 
L 132.422528 252.458083 
L 133.216421 252.458083 
L 133.216421 251.958234 
L 133.510666 251.958234 
L 133.510666 251.458386 
L 133.888106 251.458386 
L 133.888106 250.958537 
L 134.428735 250.958537 
L 134.428735 250.458688 
L 134.911732 250.458688 
L 134.911732 248.959143 
L 135.46217 248.959143 
L 135.46217 248.459294 
L 135.740886 248.459294 
L 135.740886 247.959446 
L 136.304433 247.959446 
L 136.304433 246.959748 
L 136.905847 246.959748 
L 136.905847 245.960051 
L 137.217107 245.960051 
L 137.217107 244.460506 
L 137.343676 244.460506 
L 137.343676 243.960657 
L 138.067109 243.960657 
L 138.067109 243.460808 
L 139.090775 243.460808 
L 139.090775 242.96096 
L 139.333553 242.96096 
L 139.333553 242.461111 
L 139.8092 242.461111 
L 139.8092 241.961263 
L 140.438956 241.961263 
L 140.438956 241.461414 
L 140.782525 241.461414 
L 140.782525 240.961566 
L 141.292695 240.961566 
L 141.321401 239.46202 
L 143.092717 239.46202 
L 143.092717 238.962171 
L 143.527762 238.962171 
L 143.527762 238.462323 
L 143.678752 238.462323 
L 143.678752 237.962474 
L 143.93988 237.962474 
L 143.93988 237.462626 
L 144.245733 237.462626 
L 144.245733 235.96308 
L 145.166911 235.96308 
L 145.166911 235.463231 
L 145.304409 235.463231 
L 145.304409 234.963383 
L 145.732804 234.963383 
L 145.732804 233.963685 
L 145.910079 233.963685 
L 145.910079 232.46414 
L 147.95678 232.46414 
L 147.95678 231.964291 
L 148.864037 231.964291 
L 148.901221 230.964594 
L 149.431665 230.964594 
L 149.467659 229.964897 
L 149.72642 229.964897 
L 149.72642 229.465048 
L 153.799388 229.465048 
L 153.799388 228.9652 
L 168.929657 228.9652 
L 168.929657 228.465351 
L 171.650717 228.465351 
L 171.650717 227.965503 
L 172.088588 227.965503 
L 172.088588 227.465654 
L 172.484538 227.465654 
L 172.532508 225.46626 
L 172.620905 225.46626 
L 172.620905 224.966411 
L 172.892826 224.966411 
L 172.892826 223.966714 
L 173.009743 223.966714 
L 173.009743 223.466865 
L 173.282599 223.466865 
L 173.305527 221.96732 
L 173.440194 221.96732 
L 173.447014 220.967623 
L 173.621148 220.967623 
L 173.621148 220.467774 
L 173.766803 220.467774 
L 173.789104 219.468077 
L 174.028154 219.468077 
L 174.069872 218.46838 
L 174.543659 218.46838 
L 174.552194 217.468683 
L 175.031915 217.468683 
L 175.031915 216.968834 
L 175.20538 216.968834 
L 175.20538 216.468985 
L 175.322114 216.468985 
L 175.405599 215.469288 
L 175.876553 215.469288 
L 175.876553 214.469591 
L 176.192019 214.469591 
L 176.294632 212.970045 
L 176.528565 212.970045 
L 176.62354 210.970651 
L 176.69349 210.970651 
L 176.69349 210.470803 
L 177.024289 210.470803 
L 177.024289 209.970954 
L 177.439551 209.970954 
L 177.439551 209.471105 
L 177.869864 209.471105 
L 177.869864 208.471408 
L 178.003391 208.471408 
L 178.003391 207.97156 
L 178.130692 207.97156 
L 178.130692 207.471711 
L 178.605458 207.471711 
L 178.605458 206.971863 
L 179.009913 206.971863 
L 179.009913 206.472014 
L 179.653754 206.472014 
L 179.653754 205.972165 
L 180.019285 205.972165 
L 180.120337 203.972771 
L 180.518792 203.972771 
L 180.518792 203.472923 
L 180.669651 203.472923 
L 180.675659 201.973377 
L 181.099906 201.973377 
L 181.099906 201.473528 
L 181.228395 201.473528 
L 181.308222 200.473831 
L 181.571228 200.473831 
L 181.571228 199.973983 
L 181.956354 199.973983 
L 181.956354 198.974285 
L 182.156122 198.974285 
L 182.156122 198.474437 
L 182.337254 198.474437 
L 182.337254 197.974588 
L 182.622939 197.974588 
L 182.622939 197.47474 
L 182.779358 197.47474 
L 182.87757 195.475345 
L 183.210531 195.475345 
L 183.210531 194.975497 
L 183.37723 194.975497 
L 183.405501 193.9758 
L 183.533431 193.9758 
L 183.58307 190.976708 
L 183.787765 190.976708 
L 183.831675 189.977011 
L 183.946572 189.977011 
L 183.946572 188.977314 
L 184.515993 188.977314 
L 184.515993 188.477465 
L 184.628877 188.477465 
L 184.628877 187.977617 
L 184.950287 187.977617 
L 184.974948 186.478071 
L 185.237005 186.478071 
L 185.237005 185.978222 
L 185.378616 185.978222 
L 185.378616 185.478374 
L 185.685493 185.478374 
L 185.786597 183.47898 
L 186.064405 183.47898 
L 186.171014 179.98004 
L 186.220251 179.98004 
L 186.220251 179.480191 
L 186.4331 179.480191 
L 186.4331 178.980342 
L 186.72955 178.980342 
L 186.785701 176.4811 
L 186.940503 176.4811 
L 186.940503 175.481402 
L 187.140645 175.481402 
L 187.245013 174.481705 
L 188.138656 174.481705 
L 188.138656 173.482008 
L 188.277094 173.482008 
L 188.277094 172.482311 
L 189.742238 172.482311 
L 189.792163 171.482614 
L 189.922543 171.482614 
L 190.026501 168.483522 
L 190.039671 168.483522 
L 190.041427 166.983977 
L 190.162992 166.983977 
L 190.162992 166.484128 
L 190.298423 166.484128 
L 190.357991 165.484431 
L 190.552539 165.484431 
L 190.65875 164.484734 
L 190.759264 164.484734 
L 190.759264 163.984885 
L 191.030035 163.984885 
L 191.102032 162.985188 
L 191.25824 162.985188 
L 191.25824 162.48534 
L 191.396017 162.48534 
L 191.396017 161.985491 
L 191.736169 161.985491 
L 191.830678 159.986097 
L 193.097534 159.986097 
L 193.097534 158.486551 
L 193.296733 158.486551 
L 193.341822 157.486854 
L 193.649229 157.486854 
L 193.649229 156.987005 
L 194.674631 156.987005 
L 194.748489 154.987611 
L 194.932441 154.987611 
L 194.982756 152.988217 
L 195.100689 152.988217 
L 195.100689 151.98852 
L 195.564606 151.98852 
L 195.646256 149.989125 
L 195.763595 149.989125 
L 195.787599 148.489579 
L 196.125193 148.489579 
L 196.140046 146.990034 
L 196.348512 146.990034 
L 196.39064 145.490488 
L 196.505514 145.490488 
L 196.604584 143.491094 
L 196.734214 143.491094 
L 196.738399 141.491699 
L 196.984724 141.491699 
L 197.01358 140.492002 
L 197.139632 140.492002 
L 197.18572 139.492305 
L 197.261878 139.492305 
L 197.368866 136.493214 
L 197.505547 136.493214 
L 197.603661 135.493517 
L 197.748678 135.493517 
L 197.748678 134.993668 
L 197.882985 134.993668 
L 197.909834 132.994274 
L 198.009042 132.994274 
L 198.009042 132.494425 
L 198.151291 132.494425 
L 198.192036 130.994879 
L 198.301136 130.994879 
L 198.301136 130.495031 
L 198.509751 130.495031 
L 198.509751 129.495334 
L 198.629228 129.495334 
L 198.670478 127.995788 
L 198.763334 127.995788 
L 198.839809 126.496242 
L 198.936513 126.496242 
L 199.039496 124.496848 
L 199.148644 124.496848 
L 199.172575 123.497151 
L 199.666685 123.497151 
L 199.765458 121.997605 
L 199.913073 121.997605 
L 200.021856 119.498362 
L 200.043136 119.498362 
L 200.149147 117.498968 
L 200.189901 117.498968 
L 200.218812 116.499271 
L 200.344679 116.499271 
L 200.421314 115.499574 
L 200.48074 115.499574 
L 200.569742 112.500482 
L 200.616227 112.500482 
L 200.708351 111.500785 
L 201.026304 111.500785 
L 201.071123 109.001542 
L 201.474407 109.001542 
L 201.551235 108.001845 
L 201.698486 108.001845 
L 201.748342 106.502299 
L 201.862783 106.502299 
L 201.862783 105.502602 
L 202.3058 105.502602 
L 202.3058 104.502905 
L 202.927082 104.502905 
L 203.035733 101.503814 
L 203.064038 101.503814 
L 203.064038 101.003965 
L 203.245675 101.003965 
L 203.343363 100.004268 
L 203.507133 100.004268 
L 203.507133 99.504419 
L 204.160145 99.504419 
L 204.218244 98.504722 
L 204.284684 98.504722 
L 204.284684 98.004874 
L 204.451797 98.004874 
L 204.471376 96.005479 
L 204.758666 96.005479 
L 204.814056 94.505934 
L 205.050581 94.505934 
L 205.050581 94.006085 
L 205.182207 94.006085 
L 205.282477 92.006691 
L 205.301876 92.006691 
L 205.301876 91.006994 
L 205.443968 91.006994 
L 205.528309 89.507448 
L 205.661768 89.507448 
L 205.767163 88.007902 
L 205.902701 88.007902 
L 205.998924 86.008508 
L 206.083078 86.008508 
L 206.147672 83.509265 
L 206.423929 83.509265 
L 206.486932 81.509871 
L 206.537104 81.509871 
L 206.64142 77.511082 
L 206.683378 77.511082 
L 206.740737 75.511688 
L 206.813011 75.511688 
L 206.873958 74.012142 
L 207.199837 74.012142 
L 207.307449 72.512596 
L 207.343282 72.512596 
L 207.447428 66.014565 
L 207.497173 66.014565 
L 207.596238 64.015171 
L 207.623158 64.015171 
L 207.720557 62.015776 
L 207.757776 62.015776 
L 207.856324 58.516836 
L 207.884739 58.516836 
L 207.971277 56.017593 
L 208.121615 56.017593 
L 208.171028 55.017896 
L 208.317815 55.017896 
L 208.369743 52.018805 
L 209.699612 52.018805 
L 209.699612 51.518956 
L 214.427205 51.518956 
L 214.427205 51.019108 
L 214.620797 51.019108 
L 214.691616 49.519562 
L 214.746192 49.519562 
L 214.788923 48.519865 
L 215.373544 48.519865 
L 215.373544 48.020016 
L 216.187881 48.020016 
L 216.291823 45.020925 
L 216.359094 45.020925 
L 216.415665 44.021228 
L 338.688 44.021228 
L 338.688 44.021228 
" style="fill:none;stroke:#ff00ff;stroke-linecap:square;stroke-width:1.5;"/>
   </g>
   <g id="line2d_48">
    <defs>
     <path d="M -0 8.485281 
L 5.091169 0 
L 0 -8.485281 
L -5.091169 -0 
z
" id="m47d4edf089" style="stroke:#ff00ff;stroke-linejoin:miter;stroke-width:1.5;"/>
    </defs>
    <g>
     <use style="fill-opacity:0;stroke:#ff00ff;stroke-linejoin:miter;stroke-width:1.5;" x="74.263433" xlink:href="#m47d4edf089" y="290.946423"/>
     <use style="fill-opacity:0;stroke:#ff00ff;stroke-linejoin:miter;stroke-width:1.5;" x="143.678752" xlink:href="#m47d4edf089" y="237.962474"/>
     <use style="fill-opacity:0;stroke:#ff00ff;stroke-linejoin:miter;stroke-width:1.5;" x="196.564782" xlink:href="#m47d4edf089" y="144.490791"/>
     <use style="fill-opacity:0;stroke:#ff00ff;stroke-linejoin:miter;stroke-width:1.5;" x="216.415665" xlink:href="#m47d4edf089" y="44.521076"/>
     <use style="fill-opacity:0;stroke:#ff00ff;stroke-linejoin:miter;stroke-width:1.5;" x="216.415665" xlink:href="#m47d4edf089" y="44.021228"/>
     <use style="fill-opacity:0;stroke:#ff00ff;stroke-linejoin:miter;stroke-width:1.5;" x="338.688" xlink:href="#m47d4edf089" y="44.021228"/>
    </g>
   </g>
   <g id="line2d_49">
    <path style="fill:none;stroke:#ff00ff;stroke-linecap:square;stroke-width:1.5;"/>
    <g/>
   </g>
   <g id="line2d_50">
    <defs>
     <path d="M 0 1.5 
C 0.397805 1.5 0.77937 1.341951 1.06066 1.06066 
C 1.341951 0.77937 1.5 0.397805 1.5 0 
C 1.5 -0.397805 1.341951 -0.77937 1.06066 -1.06066 
C 0.77937 -1.341951 0.397805 -1.5 0 -1.5 
C -0.397805 -1.5 -0.77937 -1.341951 -1.06066 -1.06066 
C -1.341951 -0.77937 -1.5 -0.397805 -1.5 0 
C -1.5 0.397805 -1.341951 0.77937 -1.06066 1.06066 
C -0.77937 1.341951 -0.397805 1.5 0 1.5 
z
" id="mea59618dcf" style="stroke:#ffa500;"/>
    </defs>
    <g>
     <use style="fill:#ffa500;stroke:#ffa500;" x="231.610785" xlink:href="#mea59618dcf" y="44.021228"/>
     <use style="fill:#ffa500;stroke:#ffa500;" x="231.610785" xlink:href="#mea59618dcf" y="44.021228"/>
    </g>
   </g>
   <g id="line2d_51">
    <path d="M 17.444571 298.944 
L 17.444571 295.44506 
L 29.53256 295.44506 
L 29.53256 294.445363 
L 36.60358 294.445363 
L 36.60358 293.945514 
L 57.6 293.945514 
L 57.6 292.945817 
L 64.67102 292.945817 
L 64.67102 292.445969 
L 68.79347 292.445969 
L 68.79347 291.94612 
L 73.579452 291.94612 
L 73.579452 290.946423 
L 77.330839 290.946423 
L 77.330839 290.446574 
L 78.941764 290.446574 
L 78.941764 288.947029 
L 80.416384 288.947029 
L 80.416384 286.947634 
L 82.206598 286.947634 
L 82.206598 286.447786 
L 82.626842 286.447786 
L 82.626842 285.947937 
L 84.213325 285.947937 
L 84.213325 285.448089 
L 84.955534 285.448089 
L 84.955534 284.94824 
L 86.683608 284.94824 
L 86.683608 284.448391 
L 93.422441 284.448391 
L 93.422441 283.448694 
L 95.526106 283.448694 
L 95.526106 282.448997 
L 96.676366 282.448997 
L 96.676366 281.4493 
L 101.223245 281.4493 
L 101.223245 280.449603 
L 102.728744 280.449603 
L 102.728744 279.949754 
L 103.372333 279.949754 
L 103.372333 279.449906 
L 104.355088 279.449906 
L 104.355088 278.450209 
L 104.709797 278.450209 
L 104.709797 277.95036 
L 106.698704 277.95036 
L 106.698704 277.450511 
L 107.414787 277.450511 
L 107.514726 276.450814 
L 109.222105 276.450814 
L 109.222105 275.950966 
L 109.756002 275.950966 
L 109.756002 275.451117 
L 110.443353 275.451117 
L 110.443353 274.951268 
L 111.346294 274.951268 
L 111.346294 273.951571 
L 111.584648 273.951571 
L 111.584648 273.451723 
L 111.819788 273.451723 
L 111.819788 272.452026 
L 113.167699 272.452026 
L 113.239614 270.452631 
L 114.351658 270.452631 
L 114.351658 269.952783 
L 115.077025 269.952783 
L 115.077025 268.953086 
L 116.323218 268.953086 
L 116.323218 268.453237 
L 118.629344 268.453237 
L 118.629344 267.953388 
L 119.351785 267.953388 
L 119.351785 267.45354 
L 120.571812 267.45354 
L 120.571812 266.953691 
L 122.061712 266.953691 
L 122.148045 265.953994 
L 122.865118 265.953994 
L 122.865118 265.454146 
L 124.216444 265.454146 
L 124.254646 264.454448 
L 124.330801 264.454448 
L 124.330801 263.9546 
L 124.444412 263.9546 
L 124.444412 263.454751 
L 124.632135 263.454751 
L 124.632135 262.954903 
L 125.399222 262.954903 
L 125.399222 262.455054 
L 125.996395 262.455054 
L 126.065325 261.455357 
L 126.372183 261.455357 
L 126.372183 260.955508 
L 126.540355 260.955508 
L 126.540355 260.45566 
L 126.97016 260.45566 
L 127.035353 258.456266 
L 127.954256 258.456266 
L 127.954256 257.956417 
L 128.229861 257.956417 
L 128.290519 256.456871 
L 128.827155 256.456871 
L 128.827155 255.957023 
L 129.06046 255.957023 
L 129.06046 255.457174 
L 130.209487 255.457174 
L 130.209487 254.457477 
L 130.425122 254.457477 
L 130.425122 253.957628 
L 130.664567 253.957628 
L 130.664567 252.957931 
L 130.926816 252.957931 
L 130.926816 252.458083 
L 131.26195 252.458083 
L 131.26195 251.958234 
L 132.230358 251.958234 
L 132.230358 251.458386 
L 132.517825 251.458386 
L 132.517825 250.958537 
L 133.77794 250.958537 
L 133.77794 250.458688 
L 134.661403 250.458688 
L 134.661403 249.458991 
L 135.482227 249.458991 
L 135.482227 248.959143 
L 136.905847 248.959143 
L 136.905847 248.459294 
L 137.875944 248.459294 
L 137.875944 246.959748 
L 138.460171 246.959748 
L 138.460171 245.960051 
L 139.445704 245.960051 
L 139.445704 245.460203 
L 139.667863 245.460203 
L 139.746525 243.960657 
L 140.272217 243.960657 
L 140.272217 243.460808 
L 140.752916 243.460808 
L 140.752916 242.96096 
L 141.046761 242.96096 
L 141.148448 241.461414 
L 141.634094 241.461414 
L 141.634094 240.461717 
L 142.010346 240.461717 
L 142.010346 239.961868 
L 142.526499 239.961868 
L 142.606619 238.962171 
L 142.792145 238.962171 
L 142.857929 237.962474 
L 143.11861 237.962474 
L 143.11861 236.962777 
L 146.399215 236.962777 
L 146.399215 236.462928 
L 146.843687 236.462928 
L 146.843687 235.463231 
L 148.103206 235.463231 
L 148.103206 234.963383 
L 148.27731 234.963383 
L 148.27731 234.463534 
L 149.07677 234.463534 
L 149.07677 233.463837 
L 149.876341 233.463837 
L 149.876341 232.963988 
L 151.308666 232.963988 
L 151.308666 232.46414 
L 155.187182 232.46414 
L 155.187182 231.964291 
L 172.019658 231.964291 
L 172.019658 231.464443 
L 172.967743 231.464443 
L 172.984089 229.964897 
L 173.483341 229.964897 
L 173.483341 229.465048 
L 173.995148 229.465048 
L 173.995148 228.9652 
L 174.155192 228.9652 
L 174.242269 227.465654 
L 174.333234 227.465654 
L 174.333234 226.965805 
L 174.764225 226.965805 
L 174.844125 225.966108 
L 174.934099 225.966108 
L 174.934099 225.46626 
L 175.131249 225.46626 
L 175.131249 224.466563 
L 175.425901 224.466563 
L 175.425901 223.966714 
L 175.625624 223.966714 
L 175.625624 223.466865 
L 175.823086 223.466865 
L 175.823086 222.967017 
L 176.018337 222.967017 
L 176.120024 221.96732 
L 176.232749 221.96732 
L 176.284977 220.467774 
L 176.536182 220.467774 
L 176.642473 218.968228 
L 176.663276 218.968228 
L 176.663276 217.968531 
L 177.09634 217.968531 
L 177.135015 215.969137 
L 177.224922 215.969137 
L 177.294329 213.969743 
L 177.336204 213.969743 
L 177.350746 212.970045 
L 177.545883 212.970045 
L 177.615816 211.4705 
L 177.966597 211.4705 
L 177.966597 210.970651 
L 178.26052 210.970651 
L 178.26052 209.970954 
L 178.847254 209.970954 
L 178.905521 208.471408 
L 179.05611 208.471408 
L 179.05611 207.97156 
L 179.215209 207.97156 
L 179.215209 206.971863 
L 179.455196 206.971863 
L 179.54034 204.972468 
L 179.570763 204.972468 
L 179.570763 204.47262 
L 179.741105 204.47262 
L 179.741105 203.472923 
L 179.947415 203.472923 
L 179.989635 201.973377 
L 180.097069 201.973377 
L 180.189955 200.473831 
L 180.375783 200.473831 
L 180.375783 199.973983 
L 180.609464 199.973983 
L 180.665144 197.47474 
L 180.777468 197.47474 
L 180.777468 196.974891 
L 180.896488 196.974891 
L 180.973417 195.475345 
L 181.380476 195.475345 
L 181.380476 194.975497 
L 181.686386 194.975497 
L 181.727431 193.9758 
L 181.882248 193.9758 
L 181.882248 193.475951 
L 182.191948 193.475951 
L 182.300357 191.976405 
L 182.621596 191.976405 
L 182.621596 191.476557 
L 182.735382 191.476557 
L 182.735382 190.976708 
L 182.86698 190.976708 
L 182.86698 189.977011 
L 183.809106 189.977011 
L 183.809106 188.977314 
L 184.927945 188.977314 
L 184.927945 188.477465 
L 185.139631 188.477465 
L 185.139631 187.977617 
L 185.404969 187.977617 
L 185.404969 186.478071 
L 185.626809 186.478071 
L 185.626809 185.978222 
L 186.149086 185.978222 
L 186.149086 183.978828 
L 186.455752 183.978828 
L 186.511716 181.979434 
L 186.567501 181.979434 
L 186.644449 180.479888 
L 186.7115 180.479888 
L 186.815293 178.980342 
L 186.939454 178.980342 
L 186.963553 177.980645 
L 187.128203 177.980645 
L 187.155149 175.981251 
L 187.267664 175.981251 
L 187.267664 174.981554 
L 187.395808 174.981554 
L 187.395808 174.481705 
L 187.542272 174.481705 
L 187.626137 173.482008 
L 188.08572 173.482008 
L 188.08572 172.98216 
L 188.212886 172.98216 
L 188.303293 171.982462 
L 188.333325 171.982462 
L 188.355574 170.982765 
L 188.79091 170.982765 
L 188.79091 170.482917 
L 188.972874 170.482917 
L 189.020396 168.483522 
L 189.1391 168.483522 
L 189.221163 166.983977 
L 189.330288 166.983977 
L 189.330288 165.98428 
L 189.503118 165.98428 
L 189.592497 162.48534 
L 189.760085 162.48534 
L 189.84816 160.485945 
L 190.103627 160.485945 
L 190.103627 159.486248 
L 190.268995 159.486248 
L 190.30534 158.486551 
L 190.410484 158.486551 
L 190.42251 157.486854 
L 190.552539 157.486854 
L 190.62653 155.987308 
L 190.744941 155.987308 
L 190.839932 153.987914 
L 190.926069 153.987914 
L 191.014272 151.98852 
L 191.138331 151.98852 
L 191.162214 150.988822 
L 191.28768 150.988822 
L 191.34234 149.489277 
L 191.420361 149.489277 
L 191.437381 146.990034 
L 191.568932 146.990034 
L 191.624322 145.990337 
L 191.696306 145.990337 
L 191.760838 144.490791 
L 192.028357 144.490791 
L 192.028357 142.991245 
L 192.169529 142.991245 
L 192.274083 141.991548 
L 192.535423 141.991548 
L 192.643106 140.492002 
L 192.661995 140.492002 
L 192.661995 139.992154 
L 192.813129 139.992154 
L 192.833331 138.992457 
L 193.137262 138.992457 
L 193.137262 137.992759 
L 195.064537 137.992759 
L 195.113817 136.493214 
L 195.355558 136.493214 
L 195.355558 135.993365 
L 195.516586 135.993365 
L 195.516586 135.493517 
L 197.495819 135.493517 
L 197.582032 134.493819 
L 197.794312 134.493819 
L 197.794312 133.993971 
L 198.873161 133.993971 
L 198.873161 132.994274 
L 199.067239 132.994274 
L 199.142395 131.994577 
L 199.186087 131.994577 
L 199.24935 129.495334 
L 199.400867 129.495334 
L 199.510333 127.495939 
L 199.561759 127.495939 
L 199.638362 125.496545 
L 199.715637 125.496545 
L 199.792572 123.497151 
L 199.838671 123.497151 
L 199.914069 122.497454 
L 200.142264 122.497454 
L 200.142264 121.997605 
L 200.396614 121.997605 
L 200.482187 120.498059 
L 200.55534 120.498059 
L 200.663543 118.998514 
L 200.776296 118.998514 
L 200.854367 117.498968 
L 201.264941 117.498968 
L 201.264941 116.999119 
L 201.390373 116.999119 
L 201.390373 116.499271 
L 201.508544 116.499271 
L 201.564384 114.499877 
L 201.629984 114.499877 
L 201.670127 111.500785 
L 201.743856 111.500785 
L 201.743856 111.000937 
L 201.890387 111.000937 
L 201.993734 108.001845 
L 202.534095 108.001845 
L 202.637544 105.502602 
L 202.697112 105.502602 
L 202.697112 105.002754 
L 202.973133 105.002754 
L 203.006965 101.503814 
L 203.127557 101.503814 
L 203.127557 101.003965 
L 203.248145 101.003965 
L 203.304026 99.504419 
L 203.397308 99.504419 
L 203.490906 97.005176 
L 203.52861 97.005176 
L 203.562999 94.505934 
L 203.660136 94.505934 
L 203.74434 92.006691 
L 203.881004 92.006691 
L 203.881004 91.506842 
L 204.001634 91.506842 
L 204.095188 89.007599 
L 204.141778 89.007599 
L 204.22058 87.008205 
L 204.411805 87.008205 
L 204.436811 86.008508 
L 210.825757 86.008508 
L 210.825757 85.508659 
L 211.11779 85.508659 
L 211.2098 84.009114 
L 211.242358 84.009114 
L 211.319213 81.509871 
L 211.359582 81.509871 
L 211.431547 79.010628 
L 211.489112 79.010628 
L 211.579955 77.011234 
L 211.643137 77.011234 
L 211.733941 72.512596 
L 211.765283 72.512596 
L 211.841633 69.013656 
L 211.923156 69.013656 
L 212.026953 66.514414 
L 212.067952 66.514414 
L 212.152131 64.515019 
L 212.179279 64.515019 
L 212.264397 59.516533 
L 212.304842 59.516533 
L 212.366188 57.517139 
L 212.713306 57.517139 
L 212.814896 55.017896 
L 212.886558 55.017896 
L 212.886558 54.518048 
L 212.999856 54.518048 
L 212.999856 53.018502 
L 213.144885 53.018502 
L 213.144885 52.518653 
L 213.877768 52.518653 
L 213.877768 52.018805 
L 214.06004 52.018805 
L 214.089239 50.519259 
L 214.185561 50.519259 
L 214.18644 49.519562 
L 214.582164 49.519562 
L 214.616509 48.020016 
L 223.220449 48.020016 
L 223.221104 47.020319 
L 224.730597 47.020319 
L 224.730597 45.020925 
L 231.244986 45.020925 
L 231.244986 44.521076 
L 231.610785 44.521076 
L 231.610785 44.021228 
L 338.688 44.021228 
L 338.688 44.021228 
" style="fill:none;stroke:#ffa500;stroke-linecap:square;stroke-width:1.5;"/>
   </g>
   <g id="line2d_52">
    <defs>
     <path d="M 0 -6 
L -1.347084 -1.854102 
L -5.706339 -1.854102 
L -2.179628 0.708204 
L -3.526712 4.854102 
L -0 2.291796 
L 3.526712 4.854102 
L 2.179628 0.708204 
L 5.706339 -1.854102 
L 1.347084 -1.854102 
z
" id="mae5a4ccb71" style="stroke:#ffa500;stroke-linejoin:bevel;stroke-width:1.5;"/>
    </defs>
    <g>
     <use style="fill-opacity:0;stroke:#ffa500;stroke-linejoin:bevel;stroke-width:1.5;" x="78.941764" xlink:href="#mae5a4ccb71" y="290.446574"/>
     <use style="fill-opacity:0;stroke:#ffa500;stroke-linejoin:bevel;stroke-width:1.5;" x="155.187182" xlink:href="#mae5a4ccb71" y="231.964291"/>
     <use style="fill-opacity:0;stroke:#ffa500;stroke-linejoin:bevel;stroke-width:1.5;" x="202.537096" xlink:href="#mae5a4ccb71" y="107.501997"/>
     <use style="fill-opacity:0;stroke:#ffa500;stroke-linejoin:bevel;stroke-width:1.5;" x="231.610785" xlink:href="#mae5a4ccb71" y="44.521076"/>
     <use style="fill-opacity:0;stroke:#ffa500;stroke-linejoin:bevel;stroke-width:1.5;" x="231.610785" xlink:href="#mae5a4ccb71" y="44.021228"/>
     <use style="fill-opacity:0;stroke:#ffa500;stroke-linejoin:bevel;stroke-width:1.5;" x="338.688" xlink:href="#mae5a4ccb71" y="44.021228"/>
    </g>
   </g>
   <g id="line2d_53">
    <path style="fill:none;stroke:#ffa500;stroke-linecap:square;stroke-width:1.5;"/>
    <g/>
   </g>
   <g id="line2d_54">
    <path d="M 338.688 44.021228 
L 369.60768 293.845545 
" style="fill:none;stroke:#ffa500;stroke-linecap:square;stroke-width:1.5;"/>
    <g>
     <use style="fill-opacity:0;stroke:#ffa500;stroke-linejoin:bevel;stroke-width:1.5;" x="338.688" xlink:href="#mae5a4ccb71" y="44.021228"/>
     <use style="fill-opacity:0;stroke:#ffa500;stroke-linejoin:bevel;stroke-width:1.5;" x="369.60768" xlink:href="#mae5a4ccb71" y="293.845545"/>
    </g>
   </g>
   <g id="line2d_55">
    <path d="M 338.688 44.021228 
L 369.60768 212.270257 
" style="fill:none;stroke:#ff00ff;stroke-linecap:square;stroke-width:1.5;"/>
    <g>
     <use style="fill-opacity:0;stroke:#ff00ff;stroke-linejoin:miter;stroke-width:1.5;" x="338.688" xlink:href="#m47d4edf089" y="44.021228"/>
     <use style="fill-opacity:0;stroke:#ff00ff;stroke-linejoin:miter;stroke-width:1.5;" x="369.60768" xlink:href="#m47d4edf089" y="212.270257"/>
    </g>
   </g>
   <g id="line2d_56">
    <path d="M 338.688 44.021228 
L 369.60768 130.69497 
" style="fill:none;stroke:#000080;stroke-linecap:square;stroke-width:1.5;"/>
    <g>
     <use style="fill-opacity:0;stroke:#000080;stroke-width:1.5;" x="338.688" xlink:href="#mc97f30981e" y="44.021228"/>
     <use style="fill-opacity:0;stroke:#000080;stroke-width:1.5;" x="369.60768" xlink:href="#mc97f30981e" y="130.69497"/>
    </g>
   </g>
   <g id="line2d_57">
    <path d="M 338.688 298.944 
L 338.688 44.021228 
" style="fill:none;stroke:#000000;stroke-linecap:square;stroke-width:1.5;"/>
   </g>
   <g id="patch_3">
    <path d="M 57.6 298.944 
L 57.6 41.472 
" style="fill:none;stroke:#000000;stroke-linecap:square;stroke-linejoin:miter;stroke-width:0.8;"/>
   </g>
   <g id="patch_4">
    <path d="M 338.688 298.944 
L 338.688 41.472 
" style="fill:none;stroke:#000000;stroke-linecap:square;stroke-linejoin:miter;stroke-width:0.8;"/>
   </g>
   <g id="patch_5">
    <path d="M 57.6 298.944 
L 338.688 298.944 
" style="fill:none;stroke:#000000;stroke-linecap:square;stroke-linejoin:miter;stroke-width:0.8;"/>
   </g>
   <g id="patch_6">
    <path d="M 57.6 41.472 
L 338.688 41.472 
" style="fill:none;stroke:#000000;stroke-linecap:square;stroke-linejoin:miter;stroke-width:0.8;"/>
   </g>
   <g id="text_13">
    <!-- BIPOP-saA -->
    <defs>
     <path d="M 19.671875 34.8125 
L 19.671875 8.109375 
L 35.5 8.109375 
Q 43.453125 8.109375 47.28125 11.40625 
Q 51.125 14.703125 51.125 21.484375 
Q 51.125 28.328125 47.28125 31.5625 
Q 43.453125 34.8125 35.5 34.8125 
z
M 19.671875 64.796875 
L 19.671875 42.828125 
L 34.28125 42.828125 
Q 41.5 42.828125 45.03125 45.53125 
Q 48.578125 48.25 48.578125 53.8125 
Q 48.578125 59.328125 45.03125 62.0625 
Q 41.5 64.796875 34.28125 64.796875 
z
M 9.8125 72.90625 
L 35.015625 72.90625 
Q 46.296875 72.90625 52.390625 68.21875 
Q 58.5 63.53125 58.5 54.890625 
Q 58.5 48.1875 55.375 44.234375 
Q 52.25 40.28125 46.1875 39.3125 
Q 53.46875 37.75 57.5 32.78125 
Q 61.53125 27.828125 61.53125 20.40625 
Q 61.53125 10.640625 54.890625 5.3125 
Q 48.25 0 35.984375 0 
L 9.8125 0 
z
" id="DejaVuSans-66"/>
     <path d="M 9.8125 72.90625 
L 19.671875 72.90625 
L 19.671875 0 
L 9.8125 0 
z
" id="DejaVuSans-73"/>
     <path d="M 19.671875 64.796875 
L 19.671875 37.40625 
L 32.078125 37.40625 
Q 38.96875 37.40625 42.71875 40.96875 
Q 46.484375 44.53125 46.484375 51.125 
Q 46.484375 57.671875 42.71875 61.234375 
Q 38.96875 64.796875 32.078125 64.796875 
z
M 9.8125 72.90625 
L 32.078125 72.90625 
Q 44.34375 72.90625 50.609375 67.359375 
Q 56.890625 61.8125 56.890625 51.125 
Q 56.890625 40.328125 50.609375 34.8125 
Q 44.34375 29.296875 32.078125 29.296875 
L 19.671875 29.296875 
L 19.671875 0 
L 9.8125 0 
z
" id="DejaVuSans-80"/>
     <path d="M 39.40625 66.21875 
Q 28.65625 66.21875 22.328125 58.203125 
Q 16.015625 50.203125 16.015625 36.375 
Q 16.015625 22.609375 22.328125 14.59375 
Q 28.65625 6.59375 39.40625 6.59375 
Q 50.140625 6.59375 56.421875 14.59375 
Q 62.703125 22.609375 62.703125 36.375 
Q 62.703125 50.203125 56.421875 58.203125 
Q 50.140625 66.21875 39.40625 66.21875 
z
M 39.40625 74.21875 
Q 54.734375 74.21875 63.90625 63.9375 
Q 73.09375 53.65625 73.09375 36.375 
Q 73.09375 19.140625 63.90625 8.859375 
Q 54.734375 -1.421875 39.40625 -1.421875 
Q 24.03125 -1.421875 14.8125 8.828125 
Q 5.609375 19.09375 5.609375 36.375 
Q 5.609375 53.65625 14.8125 63.9375 
Q 24.03125 74.21875 39.40625 74.21875 
z
" id="DejaVuSans-79"/>
     <path d="M 34.1875 63.1875 
L 20.796875 26.90625 
L 47.609375 26.90625 
z
M 28.609375 72.90625 
L 39.796875 72.90625 
L 67.578125 0 
L 57.328125 0 
L 50.6875 18.703125 
L 17.828125 18.703125 
L 11.1875 0 
L 0.78125 0 
z
" id="DejaVuSans-65"/>
    </defs>
    <g transform="translate(375.22944 298.536482)scale(0.17 -0.17)">
     <use xlink:href="#DejaVuSans-66"/>
     <use x="68.603516" xlink:href="#DejaVuSans-73"/>
     <use x="98.095703" xlink:href="#DejaVuSans-80"/>
     <use x="158.398438" xlink:href="#DejaVuSans-79"/>
     <use x="237.109375" xlink:href="#DejaVuSans-80"/>
     <use x="297.380859" xlink:href="#DejaVuSans-45"/>
     <use x="333.464844" xlink:href="#DejaVuSans-115"/>
     <use x="385.564453" xlink:href="#DejaVuSans-97"/>
     <use x="446.84375" xlink:href="#DejaVuSans-65"/>
    </g>
   </g>
   <g id="text_14">
    <!-- IPOPsaACM -->
    <defs>
     <path d="M 64.40625 67.28125 
L 64.40625 56.890625 
Q 59.421875 61.53125 53.78125 63.8125 
Q 48.140625 66.109375 41.796875 66.109375 
Q 29.296875 66.109375 22.65625 58.46875 
Q 16.015625 50.828125 16.015625 36.375 
Q 16.015625 21.96875 22.65625 14.328125 
Q 29.296875 6.6875 41.796875 6.6875 
Q 48.140625 6.6875 53.78125 8.984375 
Q 59.421875 11.28125 64.40625 15.921875 
L 64.40625 5.609375 
Q 59.234375 2.09375 53.4375 0.328125 
Q 47.65625 -1.421875 41.21875 -1.421875 
Q 24.65625 -1.421875 15.125 8.703125 
Q 5.609375 18.84375 5.609375 36.375 
Q 5.609375 53.953125 15.125 64.078125 
Q 24.65625 74.21875 41.21875 74.21875 
Q 47.75 74.21875 53.53125 72.484375 
Q 59.328125 70.75 64.40625 67.28125 
z
" id="DejaVuSans-67"/>
     <path d="M 9.8125 72.90625 
L 24.515625 72.90625 
L 43.109375 23.296875 
L 61.8125 72.90625 
L 76.515625 72.90625 
L 76.515625 0 
L 66.890625 0 
L 66.890625 64.015625 
L 48.09375 14.015625 
L 38.1875 14.015625 
L 19.390625 64.015625 
L 19.390625 0 
L 9.8125 0 
z
" id="DejaVuSans-77"/>
    </defs>
    <g transform="translate(375.22944 216.961195)scale(0.17 -0.17)">
     <use xlink:href="#DejaVuSans-73"/>
     <use x="29.492188" xlink:href="#DejaVuSans-80"/>
     <use x="89.794922" xlink:href="#DejaVuSans-79"/>
     <use x="168.505859" xlink:href="#DejaVuSans-80"/>
     <use x="228.792969" xlink:href="#DejaVuSans-115"/>
     <use x="280.892578" xlink:href="#DejaVuSans-97"/>
     <use x="342.171875" xlink:href="#DejaVuSans-65"/>
     <use x="410.564453" xlink:href="#DejaVuSans-67"/>
     <use x="480.388672" xlink:href="#DejaVuSans-77"/>
    </g>
   </g>
   <g id="text_15">
    <!-- BIPOPsaAC -->
    <g transform="translate(375.22944 135.385908)scale(0.17 -0.17)">
     <use xlink:href="#DejaVuSans-66"/>
     <use x="68.603516" xlink:href="#DejaVuSans-73"/>
     <use x="98.095703" xlink:href="#DejaVuSans-80"/>
     <use x="158.398438" xlink:href="#DejaVuSans-79"/>
     <use x="237.109375" xlink:href="#DejaVuSans-80"/>
     <use x="297.396484" xlink:href="#DejaVuSans-115"/>
     <use x="349.496094" xlink:href="#DejaVuSans-97"/>
     <use x="410.775391" xlink:href="#DejaVuSans-65"/>
     <use x="479.167969" xlink:href="#DejaVuSans-67"/>
    </g>
   </g>
   <g id="text_16">
    <!-- best 2009 -->
    <defs>
     <path d="M 48.6875 27.296875 
Q 48.6875 37.203125 44.609375 42.84375 
Q 40.53125 48.484375 33.40625 48.484375 
Q 26.265625 48.484375 22.1875 42.84375 
Q 18.109375 37.203125 18.109375 27.296875 
Q 18.109375 17.390625 22.1875 11.75 
Q 26.265625 6.109375 33.40625 6.109375 
Q 40.53125 6.109375 44.609375 11.75 
Q 48.6875 17.390625 48.6875 27.296875 
z
M 18.109375 46.390625 
Q 20.953125 51.265625 25.265625 53.625 
Q 29.59375 56 35.59375 56 
Q 45.5625 56 51.78125 48.09375 
Q 58.015625 40.1875 58.015625 27.296875 
Q 58.015625 14.40625 51.78125 6.484375 
Q 45.5625 -1.421875 35.59375 -1.421875 
Q 29.59375 -1.421875 25.265625 0.953125 
Q 20.953125 3.328125 18.109375 8.203125 
L 18.109375 0 
L 9.078125 0 
L 9.078125 75.984375 
L 18.109375 75.984375 
z
" id="DejaVuSans-98"/>
     <path d="M 10.984375 1.515625 
L 10.984375 10.5 
Q 14.703125 8.734375 18.5 7.8125 
Q 22.3125 6.890625 25.984375 6.890625 
Q 35.75 6.890625 40.890625 13.453125 
Q 46.046875 20.015625 46.78125 33.40625 
Q 43.953125 29.203125 39.59375 26.953125 
Q 35.25 24.703125 29.984375 24.703125 
Q 19.046875 24.703125 12.671875 31.3125 
Q 6.296875 37.9375 6.296875 49.421875 
Q 6.296875 60.640625 12.9375 67.421875 
Q 19.578125 74.21875 30.609375 74.21875 
Q 43.265625 74.21875 49.921875 64.515625 
Q 56.59375 54.828125 56.59375 36.375 
Q 56.59375 19.140625 48.40625 8.859375 
Q 40.234375 -1.421875 26.421875 -1.421875 
Q 22.703125 -1.421875 18.890625 -0.6875 
Q 15.09375 0.046875 10.984375 1.515625 
z
M 30.609375 32.421875 
Q 37.25 32.421875 41.125 36.953125 
Q 45.015625 41.5 45.015625 49.421875 
Q 45.015625 57.28125 41.125 61.84375 
Q 37.25 66.40625 30.609375 66.40625 
Q 23.96875 66.40625 20.09375 61.84375 
Q 16.21875 57.28125 16.21875 49.421875 
Q 16.21875 41.5 20.09375 36.953125 
Q 23.96875 32.421875 30.609375 32.421875 
z
" id="DejaVuSans-57"/>
    </defs>
    <g transform="translate(375.22944 53.810621)scale(0.17 -0.17)">
     <use xlink:href="#DejaVuSans-98"/>
     <use x="63.476562" xlink:href="#DejaVuSans-101"/>
     <use x="125" xlink:href="#DejaVuSans-115"/>
     <use x="177.099609" xlink:href="#DejaVuSans-116"/>
     <use x="216.308594" xlink:href="#DejaVuSans-32"/>
     <use x="248.095703" xlink:href="#DejaVuSans-50"/>
     <use x="311.71875" xlink:href="#DejaVuSans-48"/>
     <use x="375.341797" xlink:href="#DejaVuSans-48"/>
     <use x="438.964844" xlink:href="#DejaVuSans-57"/>
    </g>
   </g>
   <g id="text_17">
    <!-- bbob f18, 10-D -->
    <defs>
     <path d="M 19.671875 64.796875 
L 19.671875 8.109375 
L 31.59375 8.109375 
Q 46.6875 8.109375 53.6875 14.9375 
Q 60.6875 21.78125 60.6875 36.53125 
Q 60.6875 51.171875 53.6875 57.984375 
Q 46.6875 64.796875 31.59375 64.796875 
z
M 9.8125 72.90625 
L 30.078125 72.90625 
Q 51.265625 72.90625 61.171875 64.09375 
Q 71.09375 55.28125 71.09375 36.53125 
Q 71.09375 17.671875 61.125 8.828125 
Q 51.171875 0 30.078125 0 
L 9.8125 0 
z
" id="DejaVuSans-68"/>
    </defs>
    <g transform="translate(60.41088 51.797126)scale(0.102 -0.102)">
     <use xlink:href="#DejaVuSans-98"/>
     <use x="63.476562" xlink:href="#DejaVuSans-98"/>
     <use x="126.953125" xlink:href="#DejaVuSans-111"/>
     <use x="188.134766" xlink:href="#DejaVuSans-98"/>
     <use x="251.611328" xlink:href="#DejaVuSans-32"/>
     <use x="283.398438" xlink:href="#DejaVuSans-102"/>
     <use x="318.603516" xlink:href="#DejaVuSans-49"/>
     <use x="382.226562" xlink:href="#DejaVuSans-56"/>
     <use x="445.849609" xlink:href="#DejaVuSans-44"/>
     <use x="477.636719" xlink:href="#DejaVuSans-32"/>
     <use x="509.423828" xlink:href="#DejaVuSans-49"/>
     <use x="573.046875" xlink:href="#DejaVuSans-48"/>
     <use x="636.669922" xlink:href="#DejaVuSans-45"/>
     <use x="672.753906" xlink:href="#DejaVuSans-68"/>
    </g>
    <!-- 51 targets: 100..1e-08 -->
    <defs>
     <path d="M 10.796875 72.90625 
L 49.515625 72.90625 
L 49.515625 64.59375 
L 19.828125 64.59375 
L 19.828125 46.734375 
Q 21.96875 47.46875 24.109375 47.828125 
Q 26.265625 48.1875 28.421875 48.1875 
Q 40.625 48.1875 47.75 41.5 
Q 54.890625 34.8125 54.890625 23.390625 
Q 54.890625 11.625 47.5625 5.09375 
Q 40.234375 -1.421875 26.90625 -1.421875 
Q 22.3125 -1.421875 17.546875 -0.640625 
Q 12.796875 0.140625 7.71875 1.703125 
L 7.71875 11.625 
Q 12.109375 9.234375 16.796875 8.0625 
Q 21.484375 6.890625 26.703125 6.890625 
Q 35.15625 6.890625 40.078125 11.328125 
Q 45.015625 15.765625 45.015625 23.390625 
Q 45.015625 31 40.078125 35.4375 
Q 35.15625 39.890625 26.703125 39.890625 
Q 22.75 39.890625 18.8125 39.015625 
Q 14.890625 38.140625 10.796875 36.28125 
z
" id="DejaVuSans-53"/>
     <path d="M 11.71875 12.40625 
L 22.015625 12.40625 
L 22.015625 0 
L 11.71875 0 
z
M 11.71875 51.703125 
L 22.015625 51.703125 
L 22.015625 39.3125 
L 11.71875 39.3125 
z
" id="DejaVuSans-58"/>
    </defs>
    <g transform="translate(60.41088 63.218895)scale(0.102 -0.102)">
     <use xlink:href="#DejaVuSans-53"/>
     <use x="63.623047" xlink:href="#DejaVuSans-49"/>
     <use x="127.246094" xlink:href="#DejaVuSans-32"/>
     <use x="159.033203" xlink:href="#DejaVuSans-116"/>
     <use x="198.242188" xlink:href="#DejaVuSans-97"/>
     <use x="259.521484" xlink:href="#DejaVuSans-114"/>
     <use x="300.619141" xlink:href="#DejaVuSans-103"/>
     <use x="364.095703" xlink:href="#DejaVuSans-101"/>
     <use x="425.619141" xlink:href="#DejaVuSans-116"/>
     <use x="464.828125" xlink:href="#DejaVuSans-115"/>
     <use x="516.927734" xlink:href="#DejaVuSans-58"/>
     <use x="550.619141" xlink:href="#DejaVuSans-32"/>
     <use x="582.40625" xlink:href="#DejaVuSans-49"/>
     <use x="646.029297" xlink:href="#DejaVuSans-48"/>
     <use x="709.652344" xlink:href="#DejaVuSans-48"/>
     <use x="773.275391" xlink:href="#DejaVuSans-46"/>
     <use x="805.0625" xlink:href="#DejaVuSans-46"/>
     <use x="836.849609" xlink:href="#DejaVuSans-49"/>
     <use x="900.472656" xlink:href="#DejaVuSans-101"/>
     <use x="961.996094" xlink:href="#DejaVuSans-45"/>
     <use x="998.080078" xlink:href="#DejaVuSans-48"/>
     <use x="1061.703125" xlink:href="#DejaVuSans-56"/>
    </g>
    <!-- 15 instances -->
    <g transform="translate(60.41088 74.640664)scale(0.102 -0.102)">
     <use xlink:href="#DejaVuSans-49"/>
     <use x="63.623047" xlink:href="#DejaVuSans-53"/>
     <use x="127.246094" xlink:href="#DejaVuSans-32"/>
     <use x="159.033203" xlink:href="#DejaVuSans-105"/>
     <use x="186.816406" xlink:href="#DejaVuSans-110"/>
     <use x="250.195312" xlink:href="#DejaVuSans-115"/>
     <use x="302.294922" xlink:href="#DejaVuSans-116"/>
     <use x="341.503906" xlink:href="#DejaVuSans-97"/>
     <use x="402.783203" xlink:href="#DejaVuSans-110"/>
     <use x="466.162109" xlink:href="#DejaVuSans-99"/>
     <use x="521.142578" xlink:href="#DejaVuSans-101"/>
     <use x="582.666016" xlink:href="#DejaVuSans-115"/>
    </g>
   </g>
   <g id="text_18">
    <!-- v2.3.14 -->
    <defs>
     <path d="M 40.578125 39.3125 
Q 47.65625 37.796875 51.625 33 
Q 55.609375 28.21875 55.609375 21.1875 
Q 55.609375 10.40625 48.1875 4.484375 
Q 40.765625 -1.421875 27.09375 -1.421875 
Q 22.515625 -1.421875 17.65625 -0.515625 
Q 12.796875 0.390625 7.625 2.203125 
L 7.625 11.71875 
Q 11.71875 9.328125 16.59375 8.109375 
Q 21.484375 6.890625 26.8125 6.890625 
Q 36.078125 6.890625 40.9375 10.546875 
Q 45.796875 14.203125 45.796875 21.1875 
Q 45.796875 27.640625 41.28125 31.265625 
Q 36.765625 34.90625 28.71875 34.90625 
L 20.21875 34.90625 
L 20.21875 43.015625 
L 29.109375 43.015625 
Q 36.375 43.015625 40.234375 45.921875 
Q 44.09375 48.828125 44.09375 54.296875 
Q 44.09375 59.90625 40.109375 62.90625 
Q 36.140625 65.921875 28.71875 65.921875 
Q 24.65625 65.921875 20.015625 65.03125 
Q 15.375 64.15625 9.8125 62.3125 
L 9.8125 71.09375 
Q 15.4375 72.65625 20.34375 73.4375 
Q 25.25 74.21875 29.59375 74.21875 
Q 40.828125 74.21875 47.359375 69.109375 
Q 53.90625 64.015625 53.90625 55.328125 
Q 53.90625 49.265625 50.4375 45.09375 
Q 46.96875 40.921875 40.578125 39.3125 
z
" id="DejaVuSans-51"/>
    </defs>
    <g style="fill:#808080;" transform="translate(179.2815 294.289592)scale(0.1 -0.1)">
     <use xlink:href="#DejaVuSans-118"/>
     <use x="59.179688" xlink:href="#DejaVuSans-50"/>
     <use x="122.802734" xlink:href="#DejaVuSans-46"/>
     <use x="154.589844" xlink:href="#DejaVuSans-51"/>
     <use x="218.212891" xlink:href="#DejaVuSans-46"/>
     <use x="250" xlink:href="#DejaVuSans-49"/>
     <use x="313.623047" xlink:href="#DejaVuSans-52"/>
    </g>
   </g>
   <g id="text_19">
    <!-- 18 Schaffer F7, condition 1000 -->
    <defs>
     <path d="M 53.515625 70.515625 
L 53.515625 60.890625 
Q 47.90625 63.578125 42.921875 64.890625 
Q 37.9375 66.21875 33.296875 66.21875 
Q 25.25 66.21875 20.875 63.09375 
Q 16.5 59.96875 16.5 54.203125 
Q 16.5 49.359375 19.40625 46.890625 
Q 22.3125 44.4375 30.421875 42.921875 
L 36.375 41.703125 
Q 47.40625 39.59375 52.65625 34.296875 
Q 57.90625 29 57.90625 20.125 
Q 57.90625 9.515625 50.796875 4.046875 
Q 43.703125 -1.421875 29.984375 -1.421875 
Q 24.8125 -1.421875 18.96875 -0.25 
Q 13.140625 0.921875 6.890625 3.21875 
L 6.890625 13.375 
Q 12.890625 10.015625 18.65625 8.296875 
Q 24.421875 6.59375 29.984375 6.59375 
Q 38.421875 6.59375 43.015625 9.90625 
Q 47.609375 13.234375 47.609375 19.390625 
Q 47.609375 24.75 44.3125 27.78125 
Q 41.015625 30.8125 33.5 32.328125 
L 27.484375 33.5 
Q 16.453125 35.6875 11.515625 40.375 
Q 6.59375 45.0625 6.59375 53.421875 
Q 6.59375 63.09375 13.40625 68.65625 
Q 20.21875 74.21875 32.171875 74.21875 
Q 37.3125 74.21875 42.625 73.28125 
Q 47.953125 72.359375 53.515625 70.515625 
z
" id="DejaVuSans-83"/>
     <path d="M 54.890625 33.015625 
L 54.890625 0 
L 45.90625 0 
L 45.90625 32.71875 
Q 45.90625 40.484375 42.875 44.328125 
Q 39.84375 48.1875 33.796875 48.1875 
Q 26.515625 48.1875 22.3125 43.546875 
Q 18.109375 38.921875 18.109375 30.90625 
L 18.109375 0 
L 9.078125 0 
L 9.078125 75.984375 
L 18.109375 75.984375 
L 18.109375 46.1875 
Q 21.34375 51.125 25.703125 53.5625 
Q 30.078125 56 35.796875 56 
Q 45.21875 56 50.046875 50.171875 
Q 54.890625 44.34375 54.890625 33.015625 
z
" id="DejaVuSans-104"/>
     <path d="M 8.203125 72.90625 
L 55.078125 72.90625 
L 55.078125 68.703125 
L 28.609375 0 
L 18.3125 0 
L 43.21875 64.59375 
L 8.203125 64.59375 
z
" id="DejaVuSans-55"/>
    </defs>
    <g transform="translate(44.111187 35.472)scale(0.2 -0.2)">
     <use xlink:href="#DejaVuSans-49"/>
     <use x="63.623047" xlink:href="#DejaVuSans-56"/>
     <use x="127.246094" xlink:href="#DejaVuSans-32"/>
     <use x="159.033203" xlink:href="#DejaVuSans-83"/>
     <use x="222.509766" xlink:href="#DejaVuSans-99"/>
     <use x="277.490234" xlink:href="#DejaVuSans-104"/>
     <use x="340.869141" xlink:href="#DejaVuSans-97"/>
     <use x="402.148438" xlink:href="#DejaVuSans-102"/>
     <use x="437.353516" xlink:href="#DejaVuSans-102"/>
     <use x="472.558594" xlink:href="#DejaVuSans-101"/>
     <use x="534.082031" xlink:href="#DejaVuSans-114"/>
     <use x="575.195312" xlink:href="#DejaVuSans-32"/>
     <use x="606.982422" xlink:href="#DejaVuSans-70"/>
     <use x="664.501953" xlink:href="#DejaVuSans-55"/>
     <use x="728.125" xlink:href="#DejaVuSans-44"/>
     <use x="759.912109" xlink:href="#DejaVuSans-32"/>
     <use x="791.699219" xlink:href="#DejaVuSans-99"/>
     <use x="846.679688" xlink:href="#DejaVuSans-111"/>
     <use x="907.861328" xlink:href="#DejaVuSans-110"/>
     <use x="971.240234" xlink:href="#DejaVuSans-100"/>
     <use x="1034.716797" xlink:href="#DejaVuSans-105"/>
     <use x="1062.5" xlink:href="#DejaVuSans-116"/>
     <use x="1101.708984" xlink:href="#DejaVuSans-105"/>
     <use x="1129.492188" xlink:href="#DejaVuSans-111"/>
     <use x="1190.673828" xlink:href="#DejaVuSans-110"/>
     <use x="1254.052734" xlink:href="#DejaVuSans-32"/>
     <use x="1285.839844" xlink:href="#DejaVuSans-49"/>
     <use x="1349.462891" xlink:href="#DejaVuSans-48"/>
     <use x="1413.085938" xlink:href="#DejaVuSans-48"/>
     <use x="1476.708984" xlink:href="#DejaVuSans-48"/>
    </g>
   </g>
  </g>
 </g>
 <defs>
  <clipPath id="pf14030ce66">
   <rect height="257.472" width="281.088" x="57.6" y="41.472"/>
  </clipPath>
 </defs>
</svg>
