<?xml version="1.0" encoding="utf-8" standalone="no"?>
<!DOCTYPE svg PUBLIC "-//W3C//DTD SVG 1.1//EN"
  "http://www.w3.org/Graphics/SVG/1.1/DTD/svg11.dtd">
<!-- Created with matplotlib (https://matplotlib.org/) -->
<svg height="345.6pt" version="1.1" viewBox="0 0 460.8 345.6" width="460.8pt" xmlns="http://www.w3.org/2000/svg" xmlns:xlink="http://www.w3.org/1999/xlink">
 <defs>
  <style type="text/css">
*{stroke-linecap:butt;stroke-linejoin:round;}
  </style>
 </defs>
 <g id="figure_1">
  <g id="patch_1">
   <path d="M 0 345.6 
L 460.8 345.6 
L 460.8 0 
L 0 0 
z
" style="fill:#ffffff;"/>
  </g>
  <g id="axes_1">
   <g id="patch_2">
    <path d="M 57.6 298.944 
L 338.688 298.944 
L 338.688 41.472 
L 57.6 41.472 
z
" style="fill:#ffffff;"/>
   </g>
   <g id="line2d_1">
    <path d="M 45.512012 298.944 
L 45.512012 288.947029 
L 57.6 288.947029 
L 57.6 283.948543 
L 64.67102 283.948543 
L 64.67102 278.950057 
L 69.687988 278.950057 
L 69.687988 273.951571 
L 81.775977 273.951571 
L 81.775977 268.953086 
L 93.863965 268.953086 
L 93.863965 263.9546 
L 115.397021 263.9546 
L 115.397021 258.956114 
L 126.338353 258.956114 
L 126.338353 253.957628 
L 136.645276 253.957628 
L 136.645276 248.959143 
L 137.289545 248.959143 
L 137.289545 243.960657 
L 139.413734 243.960657 
L 139.413734 238.962171 
L 139.652088 238.962171 
L 139.652088 233.963685 
L 140.042245 233.963685 
L 140.042245 228.9652 
L 140.272217 228.9652 
L 140.272217 223.966714 
L 140.64889 223.966714 
L 140.64889 218.968228 
L 141.732423 218.968228 
L 141.732423 213.969743 
L 141.871938 213.969743 
L 141.871938 208.971257 
L 142.010346 208.971257 
L 142.010346 203.972771 
L 142.351634 203.972771 
L 142.351634 198.974285 
L 142.686372 198.974285 
L 142.686372 193.9758 
L 142.949611 193.9758 
L 142.949611 188.977314 
L 143.527762 188.977314 
L 143.527762 183.978828 
L 143.778691 183.978828 
L 143.778691 178.980342 
L 143.964547 178.980342 
L 143.964547 173.981857 
L 144.923649 173.981857 
L 144.923649 168.983371 
L 145.155404 168.983371 
L 145.155404 163.984885 
L 145.212864 163.984885 
L 145.212864 158.9864 
L 145.440832 158.9864 
L 145.440832 153.987914 
L 145.609873 153.987914 
L 145.609873 148.989428 
L 145.721664 148.989428 
L 145.721664 143.990942 
L 145.998045 143.990942 
L 145.998045 138.992457 
L 146.644018 138.992457 
L 146.644018 133.993971 
L 147.215849 133.993971 
L 147.215849 128.995485 
L 147.368603 128.995485 
L 147.368603 123.996999 
L 147.570215 123.996999 
L 147.570215 118.998514 
L 147.71991 118.998514 
L 147.71991 114.000028 
L 147.917524 114.000028 
L 147.917524 109.001542 
L 148.064279 109.001542 
L 148.064279 104.003056 
L 148.161434 104.003056 
L 148.161434 99.004571 
L 148.354135 99.004571 
L 148.354135 94.006085 
L 148.449693 94.006085 
L 148.449693 89.007599 
L 148.686322 89.007599 
L 148.686322 84.009114 
L 148.780082 84.009114 
L 148.780082 79.010628 
L 148.87334 79.010628 
L 148.87334 74.012142 
L 149.058374 74.012142 
L 149.058374 69.013656 
L 149.15016 69.013656 
L 149.15016 64.015171 
L 149.332295 64.015171 
L 149.332295 59.016685 
L 149.467659 59.016685 
L 149.467659 54.018199 
L 149.557321 54.018199 
L 149.557321 49.019713 
L 153.395042 49.019713 
L 153.395042 44.021228 
L 338.688 44.021228 
" style="fill:none;stroke:#f5deb3;stroke-linecap:square;stroke-width:4;"/>
   </g>
   <g id="line2d_2">
    <defs>
     <path d="M -0 7.778175 
L 7.778175 0 
L 0 -7.778175 
L -7.778175 -0 
z
" id="m5271d4e5ed" style="stroke:#f5deb3;stroke-linejoin:miter;stroke-width:1.5;"/>
    </defs>
    <g>
     <use style="fill:#f5deb3;stroke:#f5deb3;stroke-linejoin:miter;stroke-width:1.5;" x="126.338353" xlink:href="#m5271d4e5ed" y="253.957628"/>
     <use style="fill:#f5deb3;stroke:#f5deb3;stroke-linejoin:miter;stroke-width:1.5;" x="145.609873" xlink:href="#m5271d4e5ed" y="153.987914"/>
     <use style="fill:#f5deb3;stroke:#f5deb3;stroke-linejoin:miter;stroke-width:1.5;" x="153.395042" xlink:href="#m5271d4e5ed" y="49.019713"/>
     <use style="fill:#f5deb3;stroke:#f5deb3;stroke-linejoin:miter;stroke-width:1.5;" x="153.395042" xlink:href="#m5271d4e5ed" y="44.021228"/>
     <use style="fill:#f5deb3;stroke:#f5deb3;stroke-linejoin:miter;stroke-width:1.5;" x="153.395042" xlink:href="#m5271d4e5ed" y="44.021228"/>
     <use style="fill:#f5deb3;stroke:#f5deb3;stroke-linejoin:miter;stroke-width:1.5;" x="338.688" xlink:href="#m5271d4e5ed" y="44.021228"/>
    </g>
   </g>
   <g id="line2d_3">
    <path style="fill:none;stroke:#f5deb3;stroke-linecap:square;stroke-width:4;"/>
    <g/>
   </g>
   <g id="line2d_4">
    <path d="M 338.688 44.021228 
L 369.60768 49.119683 
" style="fill:none;stroke:#f5deb3;stroke-linecap:square;stroke-width:4;"/>
    <g>
     <use style="fill:#f5deb3;stroke:#f5deb3;stroke-linejoin:miter;stroke-width:1.5;" x="338.688" xlink:href="#m5271d4e5ed" y="44.021228"/>
     <use style="fill:#f5deb3;stroke:#f5deb3;stroke-linejoin:miter;stroke-width:1.5;" x="369.60768" xlink:href="#m5271d4e5ed" y="49.119683"/>
    </g>
   </g>
   <g id="matplotlib.axis_1">
    <g id="xtick_1">
     <g id="line2d_5">
      <path clip-path="url(#pc8872bfeb7)" d="M 57.6 298.944 
L 57.6 41.472 
" style="fill:none;stroke:#b0b0b0;stroke-linecap:square;stroke-width:0.8;"/>
     </g>
     <g id="line2d_6">
      <defs>
       <path d="M 0 0 
L 0 3.5 
" id="m99e52ee5c4" style="stroke:#000000;stroke-width:0.8;"/>
      </defs>
      <g>
       <use style="stroke:#000000;stroke-width:0.8;" x="57.6" xlink:href="#m99e52ee5c4" y="298.944"/>
      </g>
     </g>
     <g id="text_1">
      <!-- 0 -->
      <defs>
       <path d="M 31.78125 66.40625 
Q 24.171875 66.40625 20.328125 58.90625 
Q 16.5 51.421875 16.5 36.375 
Q 16.5 21.390625 20.328125 13.890625 
Q 24.171875 6.390625 31.78125 6.390625 
Q 39.453125 6.390625 43.28125 13.890625 
Q 47.125 21.390625 47.125 36.375 
Q 47.125 51.421875 43.28125 58.90625 
Q 39.453125 66.40625 31.78125 66.40625 
z
M 31.78125 74.21875 
Q 44.046875 74.21875 50.515625 64.515625 
Q 56.984375 54.828125 56.984375 36.375 
Q 56.984375 17.96875 50.515625 8.265625 
Q 44.046875 -1.421875 31.78125 -1.421875 
Q 19.53125 -1.421875 13.0625 8.265625 
Q 6.59375 17.96875 6.59375 36.375 
Q 6.59375 54.828125 13.0625 64.515625 
Q 19.53125 74.21875 31.78125 74.21875 
z
" id="DejaVuSans-48"/>
      </defs>
      <g transform="translate(51.2375 321.140875)scale(0.2 -0.2)">
       <use xlink:href="#DejaVuSans-48"/>
      </g>
     </g>
    </g>
    <g id="xtick_2">
     <g id="line2d_7">
      <path clip-path="url(#pc8872bfeb7)" d="M 137.910857 298.944 
L 137.910857 41.472 
" style="fill:none;stroke:#b0b0b0;stroke-linecap:square;stroke-width:0.8;"/>
     </g>
     <g id="line2d_8">
      <g>
       <use style="stroke:#000000;stroke-width:0.8;" x="137.910857" xlink:href="#m99e52ee5c4" y="298.944"/>
      </g>
     </g>
     <g id="text_2">
      <!-- 2 -->
      <defs>
       <path d="M 19.1875 8.296875 
L 53.609375 8.296875 
L 53.609375 0 
L 7.328125 0 
L 7.328125 8.296875 
Q 12.9375 14.109375 22.625 23.890625 
Q 32.328125 33.6875 34.8125 36.53125 
Q 39.546875 41.84375 41.421875 45.53125 
Q 43.3125 49.21875 43.3125 52.78125 
Q 43.3125 58.59375 39.234375 62.25 
Q 35.15625 65.921875 28.609375 65.921875 
Q 23.96875 65.921875 18.8125 64.3125 
Q 13.671875 62.703125 7.8125 59.421875 
L 7.8125 69.390625 
Q 13.765625 71.78125 18.9375 73 
Q 24.125 74.21875 28.421875 74.21875 
Q 39.75 74.21875 46.484375 68.546875 
Q 53.21875 62.890625 53.21875 53.421875 
Q 53.21875 48.921875 51.53125 44.890625 
Q 49.859375 40.875 45.40625 35.40625 
Q 44.1875 33.984375 37.640625 27.21875 
Q 31.109375 20.453125 19.1875 8.296875 
z
" id="DejaVuSans-50"/>
      </defs>
      <g transform="translate(131.548357 321.140875)scale(0.2 -0.2)">
       <use xlink:href="#DejaVuSans-50"/>
      </g>
     </g>
    </g>
    <g id="xtick_3">
     <g id="line2d_9">
      <path clip-path="url(#pc8872bfeb7)" d="M 218.221714 298.944 
L 218.221714 41.472 
" style="fill:none;stroke:#b0b0b0;stroke-linecap:square;stroke-width:0.8;"/>
     </g>
     <g id="line2d_10">
      <g>
       <use style="stroke:#000000;stroke-width:0.8;" x="218.221714" xlink:href="#m99e52ee5c4" y="298.944"/>
      </g>
     </g>
     <g id="text_3">
      <!-- 4 -->
      <defs>
       <path d="M 37.796875 64.3125 
L 12.890625 25.390625 
L 37.796875 25.390625 
z
M 35.203125 72.90625 
L 47.609375 72.90625 
L 47.609375 25.390625 
L 58.015625 25.390625 
L 58.015625 17.1875 
L 47.609375 17.1875 
L 47.609375 0 
L 37.796875 0 
L 37.796875 17.1875 
L 4.890625 17.1875 
L 4.890625 26.703125 
z
" id="DejaVuSans-52"/>
      </defs>
      <g transform="translate(211.859214 321.140875)scale(0.2 -0.2)">
       <use xlink:href="#DejaVuSans-52"/>
      </g>
     </g>
    </g>
    <g id="xtick_4">
     <g id="line2d_11">
      <path clip-path="url(#pc8872bfeb7)" d="M 298.532571 298.944 
L 298.532571 41.472 
" style="fill:none;stroke:#b0b0b0;stroke-linecap:square;stroke-width:0.8;"/>
     </g>
     <g id="line2d_12">
      <g>
       <use style="stroke:#000000;stroke-width:0.8;" x="298.532571" xlink:href="#m99e52ee5c4" y="298.944"/>
      </g>
     </g>
     <g id="text_4">
      <!-- 6 -->
      <defs>
       <path d="M 33.015625 40.375 
Q 26.375 40.375 22.484375 35.828125 
Q 18.609375 31.296875 18.609375 23.390625 
Q 18.609375 15.53125 22.484375 10.953125 
Q 26.375 6.390625 33.015625 6.390625 
Q 39.65625 6.390625 43.53125 10.953125 
Q 47.40625 15.53125 47.40625 23.390625 
Q 47.40625 31.296875 43.53125 35.828125 
Q 39.65625 40.375 33.015625 40.375 
z
M 52.59375 71.296875 
L 52.59375 62.3125 
Q 48.875 64.0625 45.09375 64.984375 
Q 41.3125 65.921875 37.59375 65.921875 
Q 27.828125 65.921875 22.671875 59.328125 
Q 17.53125 52.734375 16.796875 39.40625 
Q 19.671875 43.65625 24.015625 45.921875 
Q 28.375 48.1875 33.59375 48.1875 
Q 44.578125 48.1875 50.953125 41.515625 
Q 57.328125 34.859375 57.328125 23.390625 
Q 57.328125 12.15625 50.6875 5.359375 
Q 44.046875 -1.421875 33.015625 -1.421875 
Q 20.359375 -1.421875 13.671875 8.265625 
Q 6.984375 17.96875 6.984375 36.375 
Q 6.984375 53.65625 15.1875 63.9375 
Q 23.390625 74.21875 37.203125 74.21875 
Q 40.921875 74.21875 44.703125 73.484375 
Q 48.484375 72.75 52.59375 71.296875 
z
" id="DejaVuSans-54"/>
      </defs>
      <g transform="translate(292.170071 321.140875)scale(0.2 -0.2)">
       <use xlink:href="#DejaVuSans-54"/>
      </g>
     </g>
    </g>
    <g id="xtick_5">
     <g id="line2d_13">
      <path clip-path="url(#pc8872bfeb7)" d="M 57.6 298.944 
L 57.6 41.472 
" style="fill:none;stroke:#b0b0b0;stroke-linecap:square;stroke-width:0.8;"/>
     </g>
     <g id="line2d_14">
      <defs>
       <path d="M 0 0 
L 0 2 
" id="m74dfd98326" style="stroke:#000000;stroke-width:0.6;"/>
      </defs>
      <g>
       <use style="stroke:#000000;stroke-width:0.6;" x="57.6" xlink:href="#m74dfd98326" y="298.944"/>
      </g>
     </g>
    </g>
    <g id="xtick_6">
     <g id="line2d_15">
      <path clip-path="url(#pc8872bfeb7)" d="M 97.755429 298.944 
L 97.755429 41.472 
" style="fill:none;stroke:#b0b0b0;stroke-linecap:square;stroke-width:0.8;"/>
     </g>
     <g id="line2d_16">
      <g>
       <use style="stroke:#000000;stroke-width:0.6;" x="97.755429" xlink:href="#m74dfd98326" y="298.944"/>
      </g>
     </g>
    </g>
    <g id="xtick_7">
     <g id="line2d_17">
      <path clip-path="url(#pc8872bfeb7)" d="M 137.910857 298.944 
L 137.910857 41.472 
" style="fill:none;stroke:#b0b0b0;stroke-linecap:square;stroke-width:0.8;"/>
     </g>
     <g id="line2d_18">
      <g>
       <use style="stroke:#000000;stroke-width:0.6;" x="137.910857" xlink:href="#m74dfd98326" y="298.944"/>
      </g>
     </g>
    </g>
    <g id="xtick_8">
     <g id="line2d_19">
      <path clip-path="url(#pc8872bfeb7)" d="M 178.066286 298.944 
L 178.066286 41.472 
" style="fill:none;stroke:#b0b0b0;stroke-linecap:square;stroke-width:0.8;"/>
     </g>
     <g id="line2d_20">
      <g>
       <use style="stroke:#000000;stroke-width:0.6;" x="178.066286" xlink:href="#m74dfd98326" y="298.944"/>
      </g>
     </g>
    </g>
    <g id="xtick_9">
     <g id="line2d_21">
      <path clip-path="url(#pc8872bfeb7)" d="M 218.221714 298.944 
L 218.221714 41.472 
" style="fill:none;stroke:#b0b0b0;stroke-linecap:square;stroke-width:0.8;"/>
     </g>
     <g id="line2d_22">
      <g>
       <use style="stroke:#000000;stroke-width:0.6;" x="218.221714" xlink:href="#m74dfd98326" y="298.944"/>
      </g>
     </g>
    </g>
    <g id="xtick_10">
     <g id="line2d_23">
      <path clip-path="url(#pc8872bfeb7)" d="M 258.377143 298.944 
L 258.377143 41.472 
" style="fill:none;stroke:#b0b0b0;stroke-linecap:square;stroke-width:0.8;"/>
     </g>
     <g id="line2d_24">
      <g>
       <use style="stroke:#000000;stroke-width:0.6;" x="258.377143" xlink:href="#m74dfd98326" y="298.944"/>
      </g>
     </g>
    </g>
    <g id="xtick_11">
     <g id="line2d_25">
      <path clip-path="url(#pc8872bfeb7)" d="M 298.532571 298.944 
L 298.532571 41.472 
" style="fill:none;stroke:#b0b0b0;stroke-linecap:square;stroke-width:0.8;"/>
     </g>
     <g id="line2d_26">
      <g>
       <use style="stroke:#000000;stroke-width:0.6;" x="298.532571" xlink:href="#m74dfd98326" y="298.944"/>
      </g>
     </g>
    </g>
    <g id="xtick_12">
     <g id="line2d_27">
      <path clip-path="url(#pc8872bfeb7)" d="M 338.688 298.944 
L 338.688 41.472 
" style="fill:none;stroke:#b0b0b0;stroke-linecap:square;stroke-width:0.8;"/>
     </g>
     <g id="line2d_28">
      <g>
       <use style="stroke:#000000;stroke-width:0.6;" x="338.688" xlink:href="#m74dfd98326" y="298.944"/>
      </g>
     </g>
    </g>
    <g id="text_5">
     <!-- log10(# f-evals / dimension) -->
     <defs>
      <path d="M 9.421875 75.984375 
L 18.40625 75.984375 
L 18.40625 0 
L 9.421875 0 
z
" id="DejaVuSans-108"/>
      <path d="M 30.609375 48.390625 
Q 23.390625 48.390625 19.1875 42.75 
Q 14.984375 37.109375 14.984375 27.296875 
Q 14.984375 17.484375 19.15625 11.84375 
Q 23.34375 6.203125 30.609375 6.203125 
Q 37.796875 6.203125 41.984375 11.859375 
Q 46.1875 17.53125 46.1875 27.296875 
Q 46.1875 37.015625 41.984375 42.703125 
Q 37.796875 48.390625 30.609375 48.390625 
z
M 30.609375 56 
Q 42.328125 56 49.015625 48.375 
Q 55.71875 40.765625 55.71875 27.296875 
Q 55.71875 13.875 49.015625 6.21875 
Q 42.328125 -1.421875 30.609375 -1.421875 
Q 18.84375 -1.421875 12.171875 6.21875 
Q 5.515625 13.875 5.515625 27.296875 
Q 5.515625 40.765625 12.171875 48.375 
Q 18.84375 56 30.609375 56 
z
" id="DejaVuSans-111"/>
      <path d="M 45.40625 27.984375 
Q 45.40625 37.75 41.375 43.109375 
Q 37.359375 48.484375 30.078125 48.484375 
Q 22.859375 48.484375 18.828125 43.109375 
Q 14.796875 37.75 14.796875 27.984375 
Q 14.796875 18.265625 18.828125 12.890625 
Q 22.859375 7.515625 30.078125 7.515625 
Q 37.359375 7.515625 41.375 12.890625 
Q 45.40625 18.265625 45.40625 27.984375 
z
M 54.390625 6.78125 
Q 54.390625 -7.171875 48.1875 -13.984375 
Q 42 -20.796875 29.203125 -20.796875 
Q 24.46875 -20.796875 20.265625 -20.09375 
Q 16.0625 -19.390625 12.109375 -17.921875 
L 12.109375 -9.1875 
Q 16.0625 -11.328125 19.921875 -12.34375 
Q 23.78125 -13.375 27.78125 -13.375 
Q 36.625 -13.375 41.015625 -8.765625 
Q 45.40625 -4.15625 45.40625 5.171875 
L 45.40625 9.625 
Q 42.625 4.78125 38.28125 2.390625 
Q 33.9375 0 27.875 0 
Q 17.828125 0 11.671875 7.65625 
Q 5.515625 15.328125 5.515625 27.984375 
Q 5.515625 40.671875 11.671875 48.328125 
Q 17.828125 56 27.875 56 
Q 33.9375 56 38.28125 53.609375 
Q 42.625 51.21875 45.40625 46.390625 
L 45.40625 54.6875 
L 54.390625 54.6875 
z
" id="DejaVuSans-103"/>
      <path d="M 12.40625 8.296875 
L 28.515625 8.296875 
L 28.515625 63.921875 
L 10.984375 60.40625 
L 10.984375 69.390625 
L 28.421875 72.90625 
L 38.28125 72.90625 
L 38.28125 8.296875 
L 54.390625 8.296875 
L 54.390625 0 
L 12.40625 0 
z
" id="DejaVuSans-49"/>
      <path d="M 31 75.875 
Q 24.46875 64.65625 21.28125 53.65625 
Q 18.109375 42.671875 18.109375 31.390625 
Q 18.109375 20.125 21.3125 9.0625 
Q 24.515625 -2 31 -13.1875 
L 23.1875 -13.1875 
Q 15.875 -1.703125 12.234375 9.375 
Q 8.59375 20.453125 8.59375 31.390625 
Q 8.59375 42.28125 12.203125 53.3125 
Q 15.828125 64.359375 23.1875 75.875 
z
" id="DejaVuSans-40"/>
      <path d="M 51.125 44 
L 36.921875 44 
L 32.8125 27.6875 
L 47.125 27.6875 
z
M 43.796875 71.78125 
L 38.71875 51.515625 
L 52.984375 51.515625 
L 58.109375 71.78125 
L 65.921875 71.78125 
L 60.890625 51.515625 
L 76.125 51.515625 
L 76.125 44 
L 58.984375 44 
L 54.984375 27.6875 
L 70.515625 27.6875 
L 70.515625 20.21875 
L 53.078125 20.21875 
L 48 0 
L 40.1875 0 
L 45.21875 20.21875 
L 30.90625 20.21875 
L 25.875 0 
L 18.015625 0 
L 23.09375 20.21875 
L 7.71875 20.21875 
L 7.71875 27.6875 
L 24.90625 27.6875 
L 29 44 
L 13.28125 44 
L 13.28125 51.515625 
L 30.90625 51.515625 
L 35.890625 71.78125 
z
" id="DejaVuSans-35"/>
      <path id="DejaVuSans-32"/>
      <path d="M 37.109375 75.984375 
L 37.109375 68.5 
L 28.515625 68.5 
Q 23.6875 68.5 21.796875 66.546875 
Q 19.921875 64.59375 19.921875 59.515625 
L 19.921875 54.6875 
L 34.71875 54.6875 
L 34.71875 47.703125 
L 19.921875 47.703125 
L 19.921875 0 
L 10.890625 0 
L 10.890625 47.703125 
L 2.296875 47.703125 
L 2.296875 54.6875 
L 10.890625 54.6875 
L 10.890625 58.5 
Q 10.890625 67.625 15.140625 71.796875 
Q 19.390625 75.984375 28.609375 75.984375 
z
" id="DejaVuSans-102"/>
      <path d="M 4.890625 31.390625 
L 31.203125 31.390625 
L 31.203125 23.390625 
L 4.890625 23.390625 
z
" id="DejaVuSans-45"/>
      <path d="M 56.203125 29.59375 
L 56.203125 25.203125 
L 14.890625 25.203125 
Q 15.484375 15.921875 20.484375 11.0625 
Q 25.484375 6.203125 34.421875 6.203125 
Q 39.59375 6.203125 44.453125 7.46875 
Q 49.3125 8.734375 54.109375 11.28125 
L 54.109375 2.78125 
Q 49.265625 0.734375 44.1875 -0.34375 
Q 39.109375 -1.421875 33.890625 -1.421875 
Q 20.796875 -1.421875 13.15625 6.1875 
Q 5.515625 13.8125 5.515625 26.8125 
Q 5.515625 40.234375 12.765625 48.109375 
Q 20.015625 56 32.328125 56 
Q 43.359375 56 49.78125 48.890625 
Q 56.203125 41.796875 56.203125 29.59375 
z
M 47.21875 32.234375 
Q 47.125 39.59375 43.09375 43.984375 
Q 39.0625 48.390625 32.421875 48.390625 
Q 24.90625 48.390625 20.390625 44.140625 
Q 15.875 39.890625 15.1875 32.171875 
z
" id="DejaVuSans-101"/>
      <path d="M 2.984375 54.6875 
L 12.5 54.6875 
L 29.59375 8.796875 
L 46.6875 54.6875 
L 56.203125 54.6875 
L 35.6875 0 
L 23.484375 0 
z
" id="DejaVuSans-118"/>
      <path d="M 34.28125 27.484375 
Q 23.390625 27.484375 19.1875 25 
Q 14.984375 22.515625 14.984375 16.5 
Q 14.984375 11.71875 18.140625 8.90625 
Q 21.296875 6.109375 26.703125 6.109375 
Q 34.1875 6.109375 38.703125 11.40625 
Q 43.21875 16.703125 43.21875 25.484375 
L 43.21875 27.484375 
z
M 52.203125 31.203125 
L 52.203125 0 
L 43.21875 0 
L 43.21875 8.296875 
Q 40.140625 3.328125 35.546875 0.953125 
Q 30.953125 -1.421875 24.3125 -1.421875 
Q 15.921875 -1.421875 10.953125 3.296875 
Q 6 8.015625 6 15.921875 
Q 6 25.140625 12.171875 29.828125 
Q 18.359375 34.515625 30.609375 34.515625 
L 43.21875 34.515625 
L 43.21875 35.40625 
Q 43.21875 41.609375 39.140625 45 
Q 35.0625 48.390625 27.6875 48.390625 
Q 23 48.390625 18.546875 47.265625 
Q 14.109375 46.140625 10.015625 43.890625 
L 10.015625 52.203125 
Q 14.9375 54.109375 19.578125 55.046875 
Q 24.21875 56 28.609375 56 
Q 40.484375 56 46.34375 49.84375 
Q 52.203125 43.703125 52.203125 31.203125 
z
" id="DejaVuSans-97"/>
      <path d="M 44.28125 53.078125 
L 44.28125 44.578125 
Q 40.484375 46.53125 36.375 47.5 
Q 32.28125 48.484375 27.875 48.484375 
Q 21.1875 48.484375 17.84375 46.4375 
Q 14.5 44.390625 14.5 40.28125 
Q 14.5 37.15625 16.890625 35.375 
Q 19.28125 33.59375 26.515625 31.984375 
L 29.59375 31.296875 
Q 39.15625 29.25 43.1875 25.515625 
Q 47.21875 21.78125 47.21875 15.09375 
Q 47.21875 7.46875 41.1875 3.015625 
Q 35.15625 -1.421875 24.609375 -1.421875 
Q 20.21875 -1.421875 15.453125 -0.5625 
Q 10.6875 0.296875 5.421875 2 
L 5.421875 11.28125 
Q 10.40625 8.6875 15.234375 7.390625 
Q 20.0625 6.109375 24.8125 6.109375 
Q 31.15625 6.109375 34.5625 8.28125 
Q 37.984375 10.453125 37.984375 14.40625 
Q 37.984375 18.0625 35.515625 20.015625 
Q 33.0625 21.96875 24.703125 23.78125 
L 21.578125 24.515625 
Q 13.234375 26.265625 9.515625 29.90625 
Q 5.8125 33.546875 5.8125 39.890625 
Q 5.8125 47.609375 11.28125 51.796875 
Q 16.75 56 26.8125 56 
Q 31.78125 56 36.171875 55.265625 
Q 40.578125 54.546875 44.28125 53.078125 
z
" id="DejaVuSans-115"/>
      <path d="M 25.390625 72.90625 
L 33.6875 72.90625 
L 8.296875 -9.28125 
L 0 -9.28125 
z
" id="DejaVuSans-47"/>
      <path d="M 45.40625 46.390625 
L 45.40625 75.984375 
L 54.390625 75.984375 
L 54.390625 0 
L 45.40625 0 
L 45.40625 8.203125 
Q 42.578125 3.328125 38.25 0.953125 
Q 33.9375 -1.421875 27.875 -1.421875 
Q 17.96875 -1.421875 11.734375 6.484375 
Q 5.515625 14.40625 5.515625 27.296875 
Q 5.515625 40.1875 11.734375 48.09375 
Q 17.96875 56 27.875 56 
Q 33.9375 56 38.25 53.625 
Q 42.578125 51.265625 45.40625 46.390625 
z
M 14.796875 27.296875 
Q 14.796875 17.390625 18.875 11.75 
Q 22.953125 6.109375 30.078125 6.109375 
Q 37.203125 6.109375 41.296875 11.75 
Q 45.40625 17.390625 45.40625 27.296875 
Q 45.40625 37.203125 41.296875 42.84375 
Q 37.203125 48.484375 30.078125 48.484375 
Q 22.953125 48.484375 18.875 42.84375 
Q 14.796875 37.203125 14.796875 27.296875 
z
" id="DejaVuSans-100"/>
      <path d="M 9.421875 54.6875 
L 18.40625 54.6875 
L 18.40625 0 
L 9.421875 0 
z
M 9.421875 75.984375 
L 18.40625 75.984375 
L 18.40625 64.59375 
L 9.421875 64.59375 
z
" id="DejaVuSans-105"/>
      <path d="M 52 44.1875 
Q 55.375 50.25 60.0625 53.125 
Q 64.75 56 71.09375 56 
Q 79.640625 56 84.28125 50.015625 
Q 88.921875 44.046875 88.921875 33.015625 
L 88.921875 0 
L 79.890625 0 
L 79.890625 32.71875 
Q 79.890625 40.578125 77.09375 44.375 
Q 74.3125 48.1875 68.609375 48.1875 
Q 61.625 48.1875 57.5625 43.546875 
Q 53.515625 38.921875 53.515625 30.90625 
L 53.515625 0 
L 44.484375 0 
L 44.484375 32.71875 
Q 44.484375 40.625 41.703125 44.40625 
Q 38.921875 48.1875 33.109375 48.1875 
Q 26.21875 48.1875 22.15625 43.53125 
Q 18.109375 38.875 18.109375 30.90625 
L 18.109375 0 
L 9.078125 0 
L 9.078125 54.6875 
L 18.109375 54.6875 
L 18.109375 46.1875 
Q 21.1875 51.21875 25.484375 53.609375 
Q 29.78125 56 35.6875 56 
Q 41.65625 56 45.828125 52.96875 
Q 50 49.953125 52 44.1875 
z
" id="DejaVuSans-109"/>
      <path d="M 54.890625 33.015625 
L 54.890625 0 
L 45.90625 0 
L 45.90625 32.71875 
Q 45.90625 40.484375 42.875 44.328125 
Q 39.84375 48.1875 33.796875 48.1875 
Q 26.515625 48.1875 22.3125 43.546875 
Q 18.109375 38.921875 18.109375 30.90625 
L 18.109375 0 
L 9.078125 0 
L 9.078125 54.6875 
L 18.109375 54.6875 
L 18.109375 46.1875 
Q 21.34375 51.125 25.703125 53.5625 
Q 30.078125 56 35.796875 56 
Q 45.21875 56 50.046875 50.171875 
Q 54.890625 44.34375 54.890625 33.015625 
z
" id="DejaVuSans-110"/>
      <path d="M 8.015625 75.875 
L 15.828125 75.875 
Q 23.140625 64.359375 26.78125 53.3125 
Q 30.421875 42.28125 30.421875 31.390625 
Q 30.421875 20.453125 26.78125 9.375 
Q 23.140625 -1.703125 15.828125 -13.1875 
L 8.015625 -13.1875 
Q 14.5 -2 17.703125 9.0625 
Q 20.90625 20.125 20.90625 31.390625 
Q 20.90625 42.671875 17.703125 53.65625 
Q 14.5 64.65625 8.015625 75.875 
z
" id="DejaVuSans-41"/>
     </defs>
     <g transform="translate(77.303219 342.217594)scale(0.17 -0.17)">
      <use xlink:href="#DejaVuSans-108"/>
      <use x="27.783203" xlink:href="#DejaVuSans-111"/>
      <use x="88.964844" xlink:href="#DejaVuSans-103"/>
      <use x="152.441406" xlink:href="#DejaVuSans-49"/>
      <use x="216.064453" xlink:href="#DejaVuSans-48"/>
      <use x="279.6875" xlink:href="#DejaVuSans-40"/>
      <use x="318.701172" xlink:href="#DejaVuSans-35"/>
      <use x="402.490234" xlink:href="#DejaVuSans-32"/>
      <use x="434.277344" xlink:href="#DejaVuSans-102"/>
      <use x="469.404297" xlink:href="#DejaVuSans-45"/>
      <use x="505.488281" xlink:href="#DejaVuSans-101"/>
      <use x="567.011719" xlink:href="#DejaVuSans-118"/>
      <use x="626.191406" xlink:href="#DejaVuSans-97"/>
      <use x="687.470703" xlink:href="#DejaVuSans-108"/>
      <use x="715.253906" xlink:href="#DejaVuSans-115"/>
      <use x="767.353516" xlink:href="#DejaVuSans-32"/>
      <use x="799.140625" xlink:href="#DejaVuSans-47"/>
      <use x="832.832031" xlink:href="#DejaVuSans-32"/>
      <use x="864.619141" xlink:href="#DejaVuSans-100"/>
      <use x="928.095703" xlink:href="#DejaVuSans-105"/>
      <use x="955.878906" xlink:href="#DejaVuSans-109"/>
      <use x="1053.291016" xlink:href="#DejaVuSans-101"/>
      <use x="1114.814453" xlink:href="#DejaVuSans-110"/>
      <use x="1178.193359" xlink:href="#DejaVuSans-115"/>
      <use x="1230.292969" xlink:href="#DejaVuSans-105"/>
      <use x="1258.076172" xlink:href="#DejaVuSans-111"/>
      <use x="1319.257812" xlink:href="#DejaVuSans-110"/>
      <use x="1382.636719" xlink:href="#DejaVuSans-41"/>
     </g>
    </g>
   </g>
   <g id="matplotlib.axis_2">
    <g id="ytick_1">
     <g id="line2d_29">
      <path clip-path="url(#pc8872bfeb7)" d="M 57.6 298.944 
L 338.688 298.944 
" style="fill:none;stroke:#b0b0b0;stroke-linecap:square;stroke-width:0.8;"/>
     </g>
     <g id="line2d_30">
      <defs>
       <path d="M 0 0 
L -3.5 0 
" id="m69c5a5e90f" style="stroke:#000000;stroke-width:0.8;"/>
      </defs>
      <g>
       <use style="stroke:#000000;stroke-width:0.8;" x="57.6" xlink:href="#m69c5a5e90f" y="298.944"/>
      </g>
     </g>
     <g id="text_6">
      <!-- 0.0 -->
      <defs>
       <path d="M 10.6875 12.40625 
L 21 12.40625 
L 21 0 
L 10.6875 0 
z
" id="DejaVuSans-46"/>
      </defs>
      <g transform="translate(25.155 305.02275)scale(0.16 -0.16)">
       <use xlink:href="#DejaVuSans-48"/>
       <use x="63.623047" xlink:href="#DejaVuSans-46"/>
       <use x="95.410156" xlink:href="#DejaVuSans-48"/>
      </g>
     </g>
    </g>
    <g id="ytick_2">
     <g id="line2d_31">
      <path clip-path="url(#pc8872bfeb7)" d="M 57.6 247.959446 
L 338.688 247.959446 
" style="fill:none;stroke:#b0b0b0;stroke-linecap:square;stroke-width:0.8;"/>
     </g>
     <g id="line2d_32">
      <g>
       <use style="stroke:#000000;stroke-width:0.8;" x="57.6" xlink:href="#m69c5a5e90f" y="247.959446"/>
      </g>
     </g>
     <g id="text_7">
      <!-- 0.2 -->
      <g transform="translate(25.155 254.038196)scale(0.16 -0.16)">
       <use xlink:href="#DejaVuSans-48"/>
       <use x="63.623047" xlink:href="#DejaVuSans-46"/>
       <use x="95.410156" xlink:href="#DejaVuSans-50"/>
      </g>
     </g>
    </g>
    <g id="ytick_3">
     <g id="line2d_33">
      <path clip-path="url(#pc8872bfeb7)" d="M 57.6 196.974891 
L 338.688 196.974891 
" style="fill:none;stroke:#b0b0b0;stroke-linecap:square;stroke-width:0.8;"/>
     </g>
     <g id="line2d_34">
      <g>
       <use style="stroke:#000000;stroke-width:0.8;" x="57.6" xlink:href="#m69c5a5e90f" y="196.974891"/>
      </g>
     </g>
     <g id="text_8">
      <!-- 0.4 -->
      <g transform="translate(25.155 203.053641)scale(0.16 -0.16)">
       <use xlink:href="#DejaVuSans-48"/>
       <use x="63.623047" xlink:href="#DejaVuSans-46"/>
       <use x="95.410156" xlink:href="#DejaVuSans-52"/>
      </g>
     </g>
    </g>
    <g id="ytick_4">
     <g id="line2d_35">
      <path clip-path="url(#pc8872bfeb7)" d="M 57.6 145.990337 
L 338.688 145.990337 
" style="fill:none;stroke:#b0b0b0;stroke-linecap:square;stroke-width:0.8;"/>
     </g>
     <g id="line2d_36">
      <g>
       <use style="stroke:#000000;stroke-width:0.8;" x="57.6" xlink:href="#m69c5a5e90f" y="145.990337"/>
      </g>
     </g>
     <g id="text_9">
      <!-- 0.6 -->
      <g transform="translate(25.155 152.069087)scale(0.16 -0.16)">
       <use xlink:href="#DejaVuSans-48"/>
       <use x="63.623047" xlink:href="#DejaVuSans-46"/>
       <use x="95.410156" xlink:href="#DejaVuSans-54"/>
      </g>
     </g>
    </g>
    <g id="ytick_5">
     <g id="line2d_37">
      <path clip-path="url(#pc8872bfeb7)" d="M 57.6 95.005782 
L 338.688 95.005782 
" style="fill:none;stroke:#b0b0b0;stroke-linecap:square;stroke-width:0.8;"/>
     </g>
     <g id="line2d_38">
      <g>
       <use style="stroke:#000000;stroke-width:0.8;" x="57.6" xlink:href="#m69c5a5e90f" y="95.005782"/>
      </g>
     </g>
     <g id="text_10">
      <!-- 0.8 -->
      <defs>
       <path d="M 31.78125 34.625 
Q 24.75 34.625 20.71875 30.859375 
Q 16.703125 27.09375 16.703125 20.515625 
Q 16.703125 13.921875 20.71875 10.15625 
Q 24.75 6.390625 31.78125 6.390625 
Q 38.8125 6.390625 42.859375 10.171875 
Q 46.921875 13.96875 46.921875 20.515625 
Q 46.921875 27.09375 42.890625 30.859375 
Q 38.875 34.625 31.78125 34.625 
z
M 21.921875 38.8125 
Q 15.578125 40.375 12.03125 44.71875 
Q 8.5 49.078125 8.5 55.328125 
Q 8.5 64.0625 14.71875 69.140625 
Q 20.953125 74.21875 31.78125 74.21875 
Q 42.671875 74.21875 48.875 69.140625 
Q 55.078125 64.0625 55.078125 55.328125 
Q 55.078125 49.078125 51.53125 44.71875 
Q 48 40.375 41.703125 38.8125 
Q 48.828125 37.15625 52.796875 32.3125 
Q 56.78125 27.484375 56.78125 20.515625 
Q 56.78125 9.90625 50.3125 4.234375 
Q 43.84375 -1.421875 31.78125 -1.421875 
Q 19.734375 -1.421875 13.25 4.234375 
Q 6.78125 9.90625 6.78125 20.515625 
Q 6.78125 27.484375 10.78125 32.3125 
Q 14.796875 37.15625 21.921875 38.8125 
z
M 18.3125 54.390625 
Q 18.3125 48.734375 21.84375 45.5625 
Q 25.390625 42.390625 31.78125 42.390625 
Q 38.140625 42.390625 41.71875 45.5625 
Q 45.3125 48.734375 45.3125 54.390625 
Q 45.3125 60.0625 41.71875 63.234375 
Q 38.140625 66.40625 31.78125 66.40625 
Q 25.390625 66.40625 21.84375 63.234375 
Q 18.3125 60.0625 18.3125 54.390625 
z
" id="DejaVuSans-56"/>
      </defs>
      <g transform="translate(25.155 101.084532)scale(0.16 -0.16)">
       <use xlink:href="#DejaVuSans-48"/>
       <use x="63.623047" xlink:href="#DejaVuSans-46"/>
       <use x="95.410156" xlink:href="#DejaVuSans-56"/>
      </g>
     </g>
    </g>
    <g id="ytick_6">
     <g id="line2d_39">
      <path clip-path="url(#pc8872bfeb7)" d="M 57.6 44.021228 
L 338.688 44.021228 
" style="fill:none;stroke:#b0b0b0;stroke-linecap:square;stroke-width:0.8;"/>
     </g>
     <g id="line2d_40">
      <g>
       <use style="stroke:#000000;stroke-width:0.8;" x="57.6" xlink:href="#m69c5a5e90f" y="44.021228"/>
      </g>
     </g>
     <g id="text_11">
      <!-- 1.0 -->
      <g transform="translate(25.155 50.099978)scale(0.16 -0.16)">
       <use xlink:href="#DejaVuSans-49"/>
       <use x="63.623047" xlink:href="#DejaVuSans-46"/>
       <use x="95.410156" xlink:href="#DejaVuSans-48"/>
      </g>
     </g>
    </g>
    <g id="text_12">
     <!-- Fraction of function,target pairs -->
     <defs>
      <path d="M 9.8125 72.90625 
L 51.703125 72.90625 
L 51.703125 64.59375 
L 19.671875 64.59375 
L 19.671875 43.109375 
L 48.578125 43.109375 
L 48.578125 34.8125 
L 19.671875 34.8125 
L 19.671875 0 
L 9.8125 0 
z
" id="DejaVuSans-70"/>
      <path d="M 41.109375 46.296875 
Q 39.59375 47.171875 37.8125 47.578125 
Q 36.03125 48 33.890625 48 
Q 26.265625 48 22.1875 43.046875 
Q 18.109375 38.09375 18.109375 28.8125 
L 18.109375 0 
L 9.078125 0 
L 9.078125 54.6875 
L 18.109375 54.6875 
L 18.109375 46.1875 
Q 20.953125 51.171875 25.484375 53.578125 
Q 30.03125 56 36.53125 56 
Q 37.453125 56 38.578125 55.875 
Q 39.703125 55.765625 41.0625 55.515625 
z
" id="DejaVuSans-114"/>
      <path d="M 48.78125 52.59375 
L 48.78125 44.1875 
Q 44.96875 46.296875 41.140625 47.34375 
Q 37.3125 48.390625 33.40625 48.390625 
Q 24.65625 48.390625 19.8125 42.84375 
Q 14.984375 37.3125 14.984375 27.296875 
Q 14.984375 17.28125 19.8125 11.734375 
Q 24.65625 6.203125 33.40625 6.203125 
Q 37.3125 6.203125 41.140625 7.25 
Q 44.96875 8.296875 48.78125 10.40625 
L 48.78125 2.09375 
Q 45.015625 0.34375 40.984375 -0.53125 
Q 36.96875 -1.421875 32.421875 -1.421875 
Q 20.0625 -1.421875 12.78125 6.34375 
Q 5.515625 14.109375 5.515625 27.296875 
Q 5.515625 40.671875 12.859375 48.328125 
Q 20.21875 56 33.015625 56 
Q 37.15625 56 41.109375 55.140625 
Q 45.0625 54.296875 48.78125 52.59375 
z
" id="DejaVuSans-99"/>
      <path d="M 18.3125 70.21875 
L 18.3125 54.6875 
L 36.8125 54.6875 
L 36.8125 47.703125 
L 18.3125 47.703125 
L 18.3125 18.015625 
Q 18.3125 11.328125 20.140625 9.421875 
Q 21.96875 7.515625 27.59375 7.515625 
L 36.8125 7.515625 
L 36.8125 0 
L 27.59375 0 
Q 17.1875 0 13.234375 3.875 
Q 9.28125 7.765625 9.28125 18.015625 
L 9.28125 47.703125 
L 2.6875 47.703125 
L 2.6875 54.6875 
L 9.28125 54.6875 
L 9.28125 70.21875 
z
" id="DejaVuSans-116"/>
      <path d="M 8.5 21.578125 
L 8.5 54.6875 
L 17.484375 54.6875 
L 17.484375 21.921875 
Q 17.484375 14.15625 20.5 10.265625 
Q 23.53125 6.390625 29.59375 6.390625 
Q 36.859375 6.390625 41.078125 11.03125 
Q 45.3125 15.671875 45.3125 23.6875 
L 45.3125 54.6875 
L 54.296875 54.6875 
L 54.296875 0 
L 45.3125 0 
L 45.3125 8.40625 
Q 42.046875 3.421875 37.71875 1 
Q 33.40625 -1.421875 27.6875 -1.421875 
Q 18.265625 -1.421875 13.375 4.4375 
Q 8.5 10.296875 8.5 21.578125 
z
M 31.109375 56 
z
" id="DejaVuSans-117"/>
      <path d="M 11.71875 12.40625 
L 22.015625 12.40625 
L 22.015625 4 
L 14.015625 -11.625 
L 7.71875 -11.625 
L 11.71875 4 
z
" id="DejaVuSans-44"/>
      <path d="M 18.109375 8.203125 
L 18.109375 -20.796875 
L 9.078125 -20.796875 
L 9.078125 54.6875 
L 18.109375 54.6875 
L 18.109375 46.390625 
Q 20.953125 51.265625 25.265625 53.625 
Q 29.59375 56 35.59375 56 
Q 45.5625 56 51.78125 48.09375 
Q 58.015625 40.1875 58.015625 27.296875 
Q 58.015625 14.40625 51.78125 6.484375 
Q 45.5625 -1.421875 35.59375 -1.421875 
Q 29.59375 -1.421875 25.265625 0.953125 
Q 20.953125 3.328125 18.109375 8.203125 
z
M 48.6875 27.296875 
Q 48.6875 37.203125 44.609375 42.84375 
Q 40.53125 48.484375 33.40625 48.484375 
Q 26.265625 48.484375 22.1875 42.84375 
Q 18.109375 37.203125 18.109375 27.296875 
Q 18.109375 17.390625 22.1875 11.75 
Q 26.265625 6.109375 33.40625 6.109375 
Q 40.53125 6.109375 44.609375 11.75 
Q 48.6875 17.390625 48.6875 27.296875 
z
" id="DejaVuSans-112"/>
     </defs>
     <g transform="translate(17.619531 305.347375)rotate(-90)scale(0.17 -0.17)">
      <use xlink:href="#DejaVuSans-70"/>
      <use x="57.410156" xlink:href="#DejaVuSans-114"/>
      <use x="98.523438" xlink:href="#DejaVuSans-97"/>
      <use x="159.802734" xlink:href="#DejaVuSans-99"/>
      <use x="214.783203" xlink:href="#DejaVuSans-116"/>
      <use x="253.992188" xlink:href="#DejaVuSans-105"/>
      <use x="281.775391" xlink:href="#DejaVuSans-111"/>
      <use x="342.957031" xlink:href="#DejaVuSans-110"/>
      <use x="406.335938" xlink:href="#DejaVuSans-32"/>
      <use x="438.123047" xlink:href="#DejaVuSans-111"/>
      <use x="499.304688" xlink:href="#DejaVuSans-102"/>
      <use x="534.509766" xlink:href="#DejaVuSans-32"/>
      <use x="566.296875" xlink:href="#DejaVuSans-102"/>
      <use x="601.501953" xlink:href="#DejaVuSans-117"/>
      <use x="664.880859" xlink:href="#DejaVuSans-110"/>
      <use x="728.259766" xlink:href="#DejaVuSans-99"/>
      <use x="783.240234" xlink:href="#DejaVuSans-116"/>
      <use x="822.449219" xlink:href="#DejaVuSans-105"/>
      <use x="850.232422" xlink:href="#DejaVuSans-111"/>
      <use x="911.414062" xlink:href="#DejaVuSans-110"/>
      <use x="974.792969" xlink:href="#DejaVuSans-44"/>
      <use x="1006.580078" xlink:href="#DejaVuSans-116"/>
      <use x="1045.789062" xlink:href="#DejaVuSans-97"/>
      <use x="1107.068359" xlink:href="#DejaVuSans-114"/>
      <use x="1148.166016" xlink:href="#DejaVuSans-103"/>
      <use x="1211.642578" xlink:href="#DejaVuSans-101"/>
      <use x="1273.166016" xlink:href="#DejaVuSans-116"/>
      <use x="1312.375" xlink:href="#DejaVuSans-32"/>
      <use x="1344.162109" xlink:href="#DejaVuSans-112"/>
      <use x="1407.638672" xlink:href="#DejaVuSans-97"/>
      <use x="1468.917969" xlink:href="#DejaVuSans-105"/>
      <use x="1496.701172" xlink:href="#DejaVuSans-114"/>
      <use x="1537.814453" xlink:href="#DejaVuSans-115"/>
     </g>
    </g>
   </g>
   <g id="line2d_41">
    <defs>
     <path d="M 0 1.5 
C 0.397805 1.5 0.77937 1.341951 1.06066 1.06066 
C 1.341951 0.77937 1.5 0.397805 1.5 0 
C 1.5 -0.397805 1.341951 -0.77937 1.06066 -1.06066 
C 0.77937 -1.341951 0.397805 -1.5 0 -1.5 
C -0.397805 -1.5 -0.77937 -1.341951 -1.06066 -1.06066 
C -1.341951 -0.77937 -1.5 -0.397805 -1.5 0 
C -1.5 0.397805 -1.341951 0.77937 -1.06066 1.06066 
C -0.77937 1.341951 -0.397805 1.5 0 1.5 
z
" id="m3477cbaef2" style="stroke:#f5deb3;"/>
    </defs>
    <g>
     <use style="fill:#f5deb3;stroke:#f5deb3;" x="153.395042" xlink:href="#m3477cbaef2" y="44.021228"/>
     <use style="fill:#f5deb3;stroke:#f5deb3;" x="153.395042" xlink:href="#m3477cbaef2" y="44.021228"/>
    </g>
   </g>
   <g id="line2d_42">
    <defs>
     <path d="M 0 1.5 
C 0.397805 1.5 0.77937 1.341951 1.06066 1.06066 
C 1.341951 0.77937 1.5 0.397805 1.5 0 
C 1.5 -0.397805 1.341951 -0.77937 1.06066 -1.06066 
C 0.77937 -1.341951 0.397805 -1.5 0 -1.5 
C -0.397805 -1.5 -0.77937 -1.341951 -1.06066 -1.06066 
C -1.341951 -0.77937 -1.5 -0.397805 -1.5 0 
C -1.5 0.397805 -1.341951 0.77937 -1.06066 1.06066 
C -0.77937 1.341951 -0.397805 1.5 0 1.5 
z
" id="m006c707cd3" style="stroke:#000080;"/>
    </defs>
    <g>
     <use style="fill:#000080;stroke:#000080;" x="208.648242" xlink:href="#m006c707cd3" y="44.021228"/>
     <use style="fill:#000080;stroke:#000080;" x="208.648242" xlink:href="#m006c707cd3" y="44.021228"/>
    </g>
   </g>
   <g id="line2d_43">
    <path d="M 45.512012 298.944 
L 45.512012 284.94824 
L 57.6 284.94824 
L 57.6 281.949149 
L 64.67102 281.949149 
L 64.67102 279.449906 
L 69.687988 279.449906 
L 69.687988 277.450511 
L 73.579452 277.450511 
L 73.579452 276.450814 
L 76.759008 276.450814 
L 76.759008 272.951874 
L 83.830028 272.951874 
L 83.830028 270.95248 
L 94.921215 270.95248 
L 94.921215 270.452631 
L 95.918017 270.452631 
L 95.918017 269.452934 
L 98.606294 269.452934 
L 98.606294 268.453237 
L 99.41757 268.453237 
L 99.41757 267.45354 
L 100.192776 267.45354 
L 100.192776 265.454146 
L 106.48859 265.454146 
L 106.48859 264.954297 
L 109.843417 264.954297 
L 109.843417 263.9546 
L 110.274038 263.9546 
L 110.274038 262.954903 
L 116.323218 262.954903 
L 116.323218 261.955206 
L 118.576578 261.955206 
L 118.576578 261.455357 
L 118.838828 261.455357 
L 118.838828 260.45566 
L 120.33454 260.45566 
L 120.33454 258.456266 
L 120.571812 258.456266 
L 120.571812 257.956417 
L 121.036887 257.956417 
L 121.036887 257.456568 
L 125.822869 257.456568 
L 125.822869 256.95672 
L 125.996395 256.95672 
L 125.996395 255.457174 
L 131.938072 255.457174 
L 131.938072 254.957326 
L 136.266147 254.957326 
L 136.266147 254.457477 
L 137.107884 254.457477 
L 137.107884 252.957931 
L 144.865226 252.957931 
L 144.865226 251.958234 
L 146.591092 251.958234 
L 146.591092 251.458386 
L 147.368603 251.458386 
L 147.368603 250.958537 
L 148.161434 250.958537 
L 148.161434 250.458688 
L 148.639252 250.458688 
L 148.639252 249.95884 
L 148.87334 249.95884 
L 148.966103 248.959143 
L 149.104327 248.959143 
L 149.104327 247.959446 
L 150.344189 247.959446 
L 150.344189 246.959748 
L 150.51433 246.959748 
L 150.556607 243.460808 
L 150.724698 243.460808 
L 150.724698 242.96096 
L 150.932558 242.96096 
L 150.932558 242.461111 
L 151.219462 242.461111 
L 151.219462 241.961263 
L 151.421542 241.961263 
L 151.461678 240.961566 
L 151.975216 240.961566 
L 151.975216 239.961868 
L 152.091608 239.961868 
L 152.091608 239.46202 
L 152.245598 239.46202 
L 152.245598 238.462323 
L 152.360205 238.462323 
L 152.398241 236.462928 
L 153.250915 236.462928 
L 153.250915 234.463534 
L 153.609024 234.463534 
L 153.609024 232.963988 
L 153.890309 232.963988 
L 153.890309 232.46414 
L 154.132765 232.46414 
L 154.201424 229.465048 
L 154.303908 229.465048 
L 154.303908 228.9652 
L 154.807483 228.9652 
L 154.906477 225.46626 
L 155.232454 225.46626 
L 155.232454 223.966714 
L 155.86668 223.966714 
L 155.86668 222.967017 
L 156.052535 222.967017 
L 156.052535 222.467168 
L 156.175347 222.467168 
L 156.236431 221.467471 
L 156.418408 221.467471 
L 156.508689 219.967925 
L 156.598505 219.967925 
L 156.598505 219.468077 
L 156.747178 219.468077 
L 156.747178 217.968531 
L 157.58535 217.968531 
L 157.58535 217.468683 
L 157.837488 217.468683 
L 157.837488 216.968834 
L 157.976006 216.968834 
L 157.976006 214.96944 
L 158.492562 214.96944 
L 158.492562 213.969743 
L 159.32939 213.969743 
L 159.32939 212.970045 
L 159.532469 212.970045 
L 159.608019 211.970348 
L 159.857512 211.970348 
L 159.857512 209.970954 
L 160.297798 209.970954 
L 160.297798 208.471408 
L 160.750792 208.471408 
L 160.750792 207.97156 
L 162.367945 207.97156 
L 162.474869 206.971863 
L 162.496175 206.971863 
L 162.496175 205.972165 
L 163.164589 205.972165 
L 163.164589 205.472317 
L 163.388564 205.472317 
L 163.469301 204.47262 
L 163.589711 204.47262 
L 163.589711 203.972771 
L 163.965615 203.972771 
L 164.024234 201.973377 
L 164.121498 201.973377 
L 164.121498 201.473528 
L 164.954803 201.473528 
L 165.047026 198.474437 
L 166.272273 198.474437 
L 166.272273 197.974588 
L 166.510705 197.974588 
L 166.510705 196.475043 
L 166.74592 196.475043 
L 166.74592 195.975194 
L 166.895472 195.975194 
L 166.895472 195.475345 
L 167.06015 195.475345 
L 167.06015 193.9758 
L 167.207042 193.9758 
L 167.207042 193.475951 
L 167.449146 193.475951 
L 167.449146 192.476254 
L 167.687935 192.476254 
L 167.76681 191.476557 
L 167.985782 191.476557 
L 167.985782 190.976708 
L 168.309168 190.976708 
L 168.309168 190.47686 
L 168.551595 190.47686 
L 168.581663 188.977314 
L 168.86475 188.977314 
L 168.923766 186.97792 
L 169.011918 186.97792 
L 169.085039 185.478374 
L 169.460402 185.478374 
L 169.460402 184.978525 
L 169.630959 184.978525 
L 169.630959 184.478677 
L 169.78585 184.478677 
L 169.78585 183.47898 
L 170.310587 183.47898 
L 170.310587 182.979131 
L 170.620687 182.979131 
L 170.700684 180.979737 
L 173.14208 180.979737 
L 173.15364 179.480191 
L 173.337576 179.480191 
L 173.337576 178.980342 
L 173.530906 178.980342 
L 173.598631 176.980948 
L 173.766803 176.980948 
L 173.766803 175.981251 
L 174.185719 175.981251 
L 174.185719 174.981554 
L 174.391462 174.981554 
L 174.455933 173.981857 
L 174.509477 173.981857 
L 174.530849 172.98216 
L 174.679722 172.98216 
L 174.753684 170.482917 
L 175.025688 170.482917 
L 175.025688 169.983068 
L 175.211544 169.983068 
L 175.211544 168.983371 
L 175.405599 168.983371 
L 175.436043 167.483825 
L 175.547218 167.483825 
L 175.617599 162.985188 
L 175.94562 162.985188 
L 175.994786 161.485642 
L 176.063387 161.485642 
L 176.082938 160.485945 
L 176.402401 160.485945 
L 176.498063 157.986702 
L 176.67839 157.986702 
L 176.67839 157.486854 
L 177.2176 157.486854 
L 177.226752 156.487157 
L 177.615816 156.487157 
L 177.615816 155.987308 
L 178.343106 155.987308 
L 178.343106 154.987611 
L 179.057758 154.987611 
L 179.098898 152.488368 
L 179.172706 152.488368 
L 179.172706 151.98852 
L 179.303155 151.98852 
L 179.303155 151.488671 
L 179.537135 151.488671 
L 179.537135 150.488974 
L 183.2287 150.488974 
L 183.2287 148.989428 
L 183.746262 148.989428 
L 183.746262 148.489579 
L 183.884222 148.489579 
L 183.884222 147.489882 
L 184.181489 147.489882 
L 184.181489 146.990034 
L 184.364741 146.990034 
L 184.364741 146.490185 
L 184.509968 146.490185 
L 184.509968 145.990337 
L 184.624088 145.990337 
L 184.624088 144.990639 
L 184.767181 144.990639 
L 184.867832 143.491094 
L 184.938532 143.491094 
L 184.973775 141.491699 
L 185.061571 141.491699 
L 185.166347 138.992457 
L 185.183749 138.992457 
L 185.258955 133.993971 
L 185.299317 133.993971 
L 185.374029 128.495637 
L 185.448421 128.495637 
L 185.448421 127.995788 
L 185.641499 127.995788 
L 185.731624 124.496848 
L 185.765302 124.496848 
L 185.849212 122.497454 
L 186.043446 122.497454 
L 186.142502 119.998211 
L 186.246454 119.998211 
L 186.246454 119.498362 
L 186.983435 119.498362 
L 187.066901 118.498665 
L 187.12924 118.498665 
L 187.12924 116.999119 
L 187.258402 116.999119 
L 187.350809 114.499877 
L 187.437635 114.499877 
L 187.442729 113.000331 
L 187.665404 113.000331 
L 187.665404 112.000634 
L 187.785676 112.000634 
L 187.785676 108.501694 
L 187.924952 108.501694 
L 188.008973 107.002148 
L 188.175811 107.002148 
L 188.175811 106.502299 
L 193.636379 106.502299 
L 193.636379 106.002451 
L 195.329654 106.002451 
L 195.329654 105.502602 
L 195.503759 105.502602 
L 195.510174 104.003056 
L 195.660252 104.003056 
L 195.660252 103.503208 
L 196.38881 103.503208 
L 196.428407 101.003965 
L 196.920363 101.003965 
L 196.920363 98.504722 
L 197.274636 98.504722 
L 197.34117 97.005176 
L 197.398821 97.005176 
L 197.473483 92.506539 
L 197.672921 92.506539 
L 197.763339 90.007296 
L 197.878506 90.007296 
L 197.976221 87.508054 
L 199.258665 87.508054 
L 199.258665 87.008205 
L 200.271123 87.008205 
L 200.373335 83.509265 
L 200.397583 83.509265 
L 200.49665 75.511688 
L 200.515914 75.511688 
L 200.614313 72.012748 
L 200.833109 72.012748 
L 200.929739 70.513202 
L 200.981369 70.513202 
L 201.021161 69.013656 
L 202.040549 69.013656 
L 202.040549 68.513808 
L 202.437359 68.513808 
L 202.437359 68.013959 
L 202.640954 68.013959 
L 202.660119 65.014868 
L 202.846411 65.014868 
L 202.856936 62.515625 
L 203.047394 62.515625 
L 203.047394 60.516231 
L 203.365043 60.516231 
L 203.36913 58.016988 
L 203.604581 58.016988 
L 203.681025 55.517745 
L 203.850815 55.517745 
L 203.884575 52.518653 
L 208.412644 52.518653 
L 208.511831 46.520471 
L 208.543756 46.520471 
L 208.648242 44.021228 
L 338.688 44.021228 
L 338.688 44.021228 
" style="fill:none;stroke:#000080;stroke-linecap:square;stroke-width:1.5;"/>
   </g>
   <g id="line2d_44">
    <defs>
     <path d="M 0 6 
C 1.591219 6 3.117479 5.367802 4.242641 4.242641 
C 5.367802 3.117479 6 1.591219 6 0 
C 6 -1.591219 5.367802 -3.117479 4.242641 -4.242641 
C 3.117479 -5.367802 1.591219 -6 0 -6 
C -1.591219 -6 -3.117479 -5.367802 -4.242641 -4.242641 
C -5.367802 -3.117479 -6 -1.591219 -6 0 
C -6 1.591219 -5.367802 3.117479 -4.242641 4.242641 
C -3.117479 5.367802 -1.591219 6 0 6 
z
" id="m5b824e0174" style="stroke:#000080;stroke-width:1.5;"/>
    </defs>
    <g>
     <use style="fill-opacity:0;stroke:#000080;stroke-width:1.5;" x="83.830028" xlink:href="#m5b824e0174" y="270.95248"/>
     <use style="fill-opacity:0;stroke:#000080;stroke-width:1.5;" x="154.167129" xlink:href="#m5b824e0174" y="231.464443"/>
     <use style="fill-opacity:0;stroke:#000080;stroke-width:1.5;" x="187.785676" xlink:href="#m5b824e0174" y="112.000634"/>
     <use style="fill-opacity:0;stroke:#000080;stroke-width:1.5;" x="208.648242" xlink:href="#m5b824e0174" y="45.020925"/>
     <use style="fill-opacity:0;stroke:#000080;stroke-width:1.5;" x="208.648242" xlink:href="#m5b824e0174" y="44.021228"/>
     <use style="fill-opacity:0;stroke:#000080;stroke-width:1.5;" x="338.688" xlink:href="#m5b824e0174" y="44.021228"/>
    </g>
   </g>
   <g id="line2d_45">
    <path style="fill:none;stroke:#000080;stroke-linecap:square;stroke-width:1.5;"/>
    <g/>
   </g>
   <g id="line2d_46">
    <defs>
     <path d="M 0 1.5 
C 0.397805 1.5 0.77937 1.341951 1.06066 1.06066 
C 1.341951 0.77937 1.5 0.397805 1.5 0 
C 1.5 -0.397805 1.341951 -0.77937 1.06066 -1.06066 
C 0.77937 -1.341951 0.397805 -1.5 0 -1.5 
C -0.397805 -1.5 -0.77937 -1.341951 -1.06066 -1.06066 
C -1.341951 -0.77937 -1.5 -0.397805 -1.5 0 
C -1.5 0.397805 -1.341951 0.77937 -1.06066 1.06066 
C -0.77937 1.341951 -0.397805 1.5 0 1.5 
z
" id="mfcebadae8a" style="stroke:#ff00ff;"/>
    </defs>
    <g>
     <use style="fill:#ff00ff;stroke:#ff00ff;" x="206.491033" xlink:href="#mfcebadae8a" y="44.021228"/>
     <use style="fill:#ff00ff;stroke:#ff00ff;" x="206.491033" xlink:href="#mfcebadae8a" y="44.021228"/>
    </g>
   </g>
   <g id="line2d_47">
    <path d="M 45.512012 298.944 
L 45.512012 284.448391 
L 57.6 284.448391 
L 57.6 280.949451 
L 64.67102 280.949451 
L 64.67102 276.450814 
L 69.687988 276.450814 
L 69.687988 273.451723 
L 76.759008 273.451723 
L 76.759008 271.952177 
L 85.66744 271.952177 
L 85.66744 267.953388 
L 100.934985 267.953388 
L 100.934985 265.953994 
L 107.009204 265.953994 
L 107.009204 264.954297 
L 108.006005 264.954297 
L 108.006005 263.9546 
L 108.483824 263.9546 
L 108.483824 263.454751 
L 113.73488 263.454751 
L 113.73488 262.455054 
L 118.576578 262.455054 
L 118.576578 261.455357 
L 119.097192 261.455357 
L 119.097192 260.45566 
L 124.743806 260.45566 
L 124.743806 259.955811 
L 126.50685 259.955811 
L 126.50685 258.956114 
L 132.659801 258.956114 
L 132.659801 258.456266 
L 134.661403 258.456266 
L 134.661403 257.956417 
L 136.073445 257.956417 
L 136.073445 257.456568 
L 136.831795 257.456568 
L 136.831795 256.95672 
L 140.195896 256.95672 
L 140.195896 256.456871 
L 142.010346 256.456871 
L 142.010346 255.957023 
L 142.619936 255.957023 
L 142.619936 255.457174 
L 143.716296 255.457174 
L 143.716296 254.457477 
L 143.840863 254.457477 
L 143.840863 253.957628 
L 146.324022 253.957628 
L 146.377764 252.458083 
L 146.484754 252.458083 
L 146.591092 250.958537 
L 146.749392 250.958537 
L 146.749392 250.458688 
L 147.061745 250.458688 
L 147.061745 249.95884 
L 148.112924 249.95884 
L 148.112924 248.959143 
L 148.354135 248.959143 
L 148.354135 247.959446 
L 148.780082 247.959446 
L 148.780082 247.459597 
L 149.60198 247.459597 
L 149.60198 246.959748 
L 149.867558 246.959748 
L 149.955193 245.960051 
L 150.172372 245.960051 
L 150.172372 244.960354 
L 150.682827 244.960354 
L 150.682827 243.460808 
L 150.808139 243.460808 
L 150.849711 241.961263 
L 150.973835 241.961263 
L 150.973835 241.461414 
L 151.219462 241.461414 
L 151.219462 239.961868 
L 151.421542 239.961868 
L 151.421542 238.962171 
L 151.700576 238.962171 
L 151.700576 238.462323 
L 151.818809 238.462323 
L 151.818809 237.462626 
L 152.624728 237.462626 
L 152.624728 236.962777 
L 152.774102 236.962777 
L 152.774102 236.462928 
L 152.885298 236.462928 
L 152.885298 235.96308 
L 153.537988 235.96308 
L 153.609024 233.963685 
L 153.959927 233.963685 
L 153.959927 232.963988 
L 154.098334 232.963988 
L 154.132765 231.964291 
L 154.303908 231.964291 
L 154.303908 230.964594 
L 154.439623 230.964594 
L 154.439623 230.464745 
L 154.641235 230.464745 
L 154.741174 225.46626 
L 154.873541 225.46626 
L 154.873541 223.466865 
L 155.0376 223.466865 
L 155.0376 222.467168 
L 155.200129 222.467168 
L 155.232454 221.467471 
L 155.61575 221.467471 
L 155.710272 218.968228 
L 155.741666 218.968228 
L 155.741666 218.46838 
L 155.86668 218.46838 
L 155.86668 216.968834 
L 156.052535 216.968834 
L 156.052535 216.468985 
L 156.297301 216.468985 
L 156.297301 215.469288 
L 156.418408 215.469288 
L 156.418408 214.469591 
L 156.568618 214.469591 
L 156.568618 213.469894 
L 156.806295 213.469894 
L 156.806295 212.970045 
L 156.923929 212.970045 
L 156.923929 212.470197 
L 157.243392 212.470197 
L 157.329512 208.971257 
L 157.557108 208.971257 
L 157.557108 207.97156 
L 158.003578 207.97156 
L 158.003578 206.971863 
L 158.168101 206.971863 
L 158.276927 202.973074 
L 158.304027 202.973074 
L 158.304027 201.973377 
L 158.492562 201.973377 
L 158.492562 201.473528 
L 158.83738 201.473528 
L 158.942121 199.474134 
L 159.098062 199.474134 
L 159.123917 198.474437 
L 159.456591 198.474437 
L 159.456591 196.974891 
L 159.582872 196.974891 
L 159.608019 194.975497 
L 159.980933 194.975497 
L 159.980933 193.475951 
L 160.466062 193.475951 
L 160.466062 192.976103 
L 160.86807 192.976103 
L 160.86807 192.476254 
L 161.007772 192.476254 
L 161.100288 189.977011 
L 161.283861 189.977011 
L 161.283861 189.477162 
L 161.397621 189.477162 
L 161.397621 188.477465 
L 161.823263 188.477465 
L 161.823263 186.478071 
L 161.955547 186.478071 
L 162.065021 183.47898 
L 162.367945 183.47898 
L 162.367945 182.979131 
L 162.644595 182.979131 
L 162.728843 179.98004 
L 162.958448 179.98004 
L 163.041197 177.480797 
L 163.103002 177.480797 
L 163.185069 174.481705 
L 163.348054 174.481705 
L 163.388564 173.482008 
L 163.549667 173.482008 
L 163.549667 171.982462 
L 163.828065 171.982462 
L 163.828065 169.983068 
L 164.043731 169.983068 
L 164.102088 168.483522 
L 164.410075 168.483522 
L 164.410075 167.483825 
L 164.562052 167.483825 
L 164.562052 166.983977 
L 165.302685 166.983977 
L 165.302685 166.484128 
L 165.960849 166.484128 
L 165.995728 165.484431 
L 166.255117 165.484431 
L 166.255117 164.984582 
L 166.862349 164.984582 
L 166.862349 164.484734 
L 167.076532 164.484734 
L 167.076532 162.985188 
L 167.352708 162.985188 
L 167.352708 161.485642 
L 169.055827 161.485642 
L 169.055827 160.985794 
L 172.397859 160.985794 
L 172.397859 160.485945 
L 172.944366 160.485945 
L 172.944366 159.986097 
L 174.218366 159.986097 
L 174.283479 158.486551 
L 174.66913 158.486551 
L 174.66913 157.986702 
L 174.827334 157.986702 
L 174.879752 155.987308 
L 174.973708 155.987308 
L 175.046437 154.487762 
L 175.08786 154.487762 
L 175.139502 151.98852 
L 175.283289 151.98852 
L 175.283289 151.488671 
L 175.425901 151.488671 
L 175.425901 150.988822 
L 175.637655 150.988822 
L 175.637655 150.488974 
L 175.836964 150.488974 
L 175.836964 148.489579 
L 176.23856 148.489579 
L 176.24824 146.990034 
L 176.421575 146.990034 
L 176.421575 145.990337 
L 177.190115 145.990337 
L 177.190115 144.990639 
L 177.544086 144.990639 
L 177.544086 144.490791 
L 177.678338 144.490791 
L 177.678338 143.491094 
L 177.917418 143.491094 
L 177.987632 140.991851 
L 178.196592 140.991851 
L 178.196592 139.992154 
L 178.783772 139.992154 
L 178.783772 137.992759 
L 179.19724 137.992759 
L 179.286902 135.993365 
L 179.440696 135.993365 
L 179.497017 133.993971 
L 179.728427 133.993971 
L 179.783827 131.494728 
L 180.034869 131.494728 
L 180.07377 129.995182 
L 180.236213 129.995182 
L 180.236213 128.995485 
L 180.381893 128.995485 
L 180.45808 126.996091 
L 180.937953 126.996091 
L 180.937953 125.996394 
L 181.274884 125.996394 
L 181.274884 125.496545 
L 181.448123 125.496545 
L 181.526953 124.496848 
L 182.220831 124.496848 
L 182.316765 123.497151 
L 182.459683 123.497151 
L 182.459683 122.997302 
L 182.574526 122.997302 
L 182.574526 122.497454 
L 182.874923 122.497454 
L 182.934387 120.997908 
L 183.019922 120.997908 
L 183.019922 120.498059 
L 183.176739 120.498059 
L 183.176739 119.998211 
L 183.332159 119.998211 
L 183.390086 118.998514 
L 183.638904 118.998514 
L 183.746262 117.498968 
L 183.859219 117.498968 
L 183.952795 114.999725 
L 184.095309 114.999725 
L 184.199902 111.000937 
L 184.485848 111.000937 
L 184.528037 109.001542 
L 184.850112 109.001542 
L 184.920884 106.502299 
L 185.264727 106.502299 
L 185.362555 104.502905 
L 185.539547 104.502905 
L 185.579266 103.003359 
L 185.742857 103.003359 
L 185.742857 101.503814 
L 185.865946 101.503814 
L 185.954922 99.504419 
L 186.235541 99.504419 
L 186.344367 98.004874 
L 186.570714 98.004874 
L 186.570714 97.505025 
L 186.841673 97.505025 
L 186.841673 96.505328 
L 186.978205 96.505328 
L 186.978205 96.005479 
L 187.149971 96.005479 
L 187.149971 95.505631 
L 187.355928 95.505631 
L 187.361046 93.506236 
L 187.473262 93.506236 
L 187.473262 93.006388 
L 187.604956 93.006388 
L 187.604956 92.506539 
L 187.740671 92.506539 
L 187.805641 90.507145 
L 187.944758 90.507145 
L 188.033608 89.007599 
L 188.156265 89.007599 
L 188.190455 88.007902 
L 189.195387 88.007902 
L 189.195387 87.008205 
L 191.832262 87.008205 
L 191.832262 86.008508 
L 192.115067 86.008508 
L 192.126752 84.508962 
L 192.250903 84.508962 
L 192.250903 83.509265 
L 192.492773 83.509265 
L 192.492773 83.009416 
L 192.962964 83.009416 
L 192.962964 81.509871 
L 193.088693 81.509871 
L 193.140201 80.510174 
L 193.845788 80.510174 
L 193.916207 78.010931 
L 194.132716 78.010931 
L 194.181236 76.011536 
L 194.250316 76.011536 
L 194.336283 72.512596 
L 194.3945 72.512596 
L 194.3945 71.013051 
L 194.672612 71.013051 
L 194.733072 70.013354 
L 195.015778 70.013354 
L 195.07835 68.513808 
L 195.212612 68.513808 
L 195.212612 67.014262 
L 195.490921 67.014262 
L 195.490921 66.514414 
L 196.297089 66.514414 
L 196.297089 66.014565 
L 196.440572 66.014565 
L 196.525494 61.515928 
L 196.685116 61.515928 
L 196.724046 58.516836 
L 196.840318 58.516836 
L 196.896684 57.517139 
L 197.070563 57.517139 
L 197.178727 53.018502 
L 197.300701 53.018502 
L 197.306488 52.018805 
L 204.875644 52.018805 
L 204.875644 50.019411 
L 205.877235 50.019411 
L 205.887851 48.519865 
L 206.049816 48.519865 
L 206.133726 45.520773 
L 206.16857 45.520773 
L 206.16857 45.020925 
L 206.322785 45.020925 
L 206.322785 44.521076 
L 206.491033 44.521076 
L 206.491033 44.021228 
L 338.688 44.021228 
L 338.688 44.021228 
" style="fill:none;stroke:#ff00ff;stroke-linecap:square;stroke-width:1.5;"/>
   </g>
   <g id="line2d_48">
    <defs>
     <path d="M -0 8.485281 
L 5.091169 0 
L 0 -8.485281 
L -5.091169 -0 
z
" id="mf79e03acaf" style="stroke:#ff00ff;stroke-linejoin:miter;stroke-width:1.5;"/>
    </defs>
    <g>
     <use style="fill-opacity:0;stroke:#ff00ff;stroke-linejoin:miter;stroke-width:1.5;" x="113.73488" xlink:href="#mf79e03acaf" y="263.454751"/>
     <use style="fill-opacity:0;stroke:#ff00ff;stroke-linejoin:miter;stroke-width:1.5;" x="159.456591" xlink:href="#mf79e03acaf" y="196.974891"/>
     <use style="fill-opacity:0;stroke:#ff00ff;stroke-linejoin:miter;stroke-width:1.5;" x="197.178727" xlink:href="#mf79e03acaf" y="54.518048"/>
     <use style="fill-opacity:0;stroke:#ff00ff;stroke-linejoin:miter;stroke-width:1.5;" x="206.491033" xlink:href="#mf79e03acaf" y="44.021228"/>
     <use style="fill-opacity:0;stroke:#ff00ff;stroke-linejoin:miter;stroke-width:1.5;" x="206.491033" xlink:href="#mf79e03acaf" y="44.021228"/>
     <use style="fill-opacity:0;stroke:#ff00ff;stroke-linejoin:miter;stroke-width:1.5;" x="338.688" xlink:href="#mf79e03acaf" y="44.021228"/>
    </g>
   </g>
   <g id="line2d_49">
    <path style="fill:none;stroke:#ff00ff;stroke-linecap:square;stroke-width:1.5;"/>
    <g/>
   </g>
   <g id="line2d_50">
    <defs>
     <path d="M 0 1.5 
C 0.397805 1.5 0.77937 1.341951 1.06066 1.06066 
C 1.341951 0.77937 1.5 0.397805 1.5 0 
C 1.5 -0.397805 1.341951 -0.77937 1.06066 -1.06066 
C 0.77937 -1.341951 0.397805 -1.5 0 -1.5 
C -0.397805 -1.5 -0.77937 -1.341951 -1.06066 -1.06066 
C -1.341951 -0.77937 -1.5 -0.397805 -1.5 0 
C -1.5 0.397805 -1.341951 0.77937 -1.06066 1.06066 
C -0.77937 1.341951 -0.397805 1.5 0 1.5 
z
" id="mf5d202cd09" style="stroke:#ffa500;"/>
    </defs>
    <g>
     <use style="fill:#ffa500;stroke:#ffa500;" x="216.1669" xlink:href="#mf5d202cd09" y="44.021228"/>
     <use style="fill:#ffa500;stroke:#ffa500;" x="216.1669" xlink:href="#mf5d202cd09" y="44.021228"/>
    </g>
   </g>
   <g id="line2d_51">
    <path d="M 45.512012 298.944 
L 45.512012 285.448089 
L 57.6 285.448089 
L 57.6 280.449603 
L 64.67102 280.449603 
L 64.67102 277.95036 
L 73.579452 277.95036 
L 73.579452 276.450814 
L 79.447285 276.450814 
L 79.447285 271.452328 
L 83.830028 271.452328 
L 83.830028 269.952783 
L 87.329581 269.952783 
L 87.329581 269.452934 
L 90.242884 269.452934 
L 90.242884 267.953388 
L 99.41757 267.953388 
L 99.41757 266.953691 
L 100.934985 266.953691 
L 100.934985 265.953994 
L 105.398279 265.953994 
L 105.398279 263.454751 
L 112.655818 263.454751 
L 112.655818 262.954903 
L 115.077025 262.954903 
L 115.077025 261.955206 
L 119.097192 261.955206 
L 119.097192 260.955508 
L 121.264855 260.955508 
L 121.264855 260.45566 
L 123.985457 260.45566 
L 123.985457 258.456266 
L 124.92835 258.456266 
L 124.92835 256.95672 
L 126.673734 256.95672 
L 126.673734 255.457174 
L 135.878591 255.457174 
L 135.878591 253.45778 
L 137.016339 253.45778 
L 137.016339 250.958537 
L 140.944478 250.958537 
L 140.944478 249.95884 
L 142.283909 249.95884 
L 142.283909 249.458991 
L 142.486301 249.458991 
L 142.486301 247.959446 
L 142.949611 247.959446 
L 142.949611 245.960051 
L 143.840863 245.960051 
L 143.840863 245.460203 
L 145.212864 245.460203 
L 145.212864 243.460808 
L 145.665858 243.460808 
L 145.665858 242.461111 
L 146.161795 242.461111 
L 146.161795 241.461414 
L 146.431341 241.461414 
L 146.431341 240.961566 
L 146.749392 240.961566 
L 146.749392 240.461717 
L 147.419225 240.461717 
L 147.4697 239.46202 
L 147.917524 239.46202 
L 147.96658 238.462323 
L 148.209809 238.462323 
L 148.306159 233.463837 
L 149.377533 233.463837 
L 149.377533 232.963988 
L 149.735275 232.963988 
L 149.735275 230.964594 
L 150.429467 230.964594 
L 150.429467 229.964897 
L 150.973835 229.964897 
L 150.973835 228.9652 
L 151.13797 228.9652 
L 151.13797 228.465351 
L 151.421542 228.465351 
L 151.421542 227.465654 
L 151.621307 227.465654 
L 151.700576 225.46626 
L 151.897188 225.46626 
L 151.897188 224.466563 
L 152.091608 224.466563 
L 152.130233 222.967017 
L 152.662192 222.967017 
L 152.662192 221.96732 
L 152.848312 221.96732 
L 152.848312 219.468077 
L 153.178403 219.468077 
L 153.178403 218.968228 
L 153.679772 218.968228 
L 153.679772 217.968531 
L 153.890309 217.968531 
L 153.890309 217.468683 
L 154.029268 217.468683 
L 154.098334 216.468985 
L 154.641235 216.468985 
L 154.641235 215.969137 
L 155.232454 215.969137 
L 155.232454 215.469288 
L 155.393186 215.469288 
L 155.393186 214.96944 
L 155.678822 214.96944 
L 155.678822 214.469591 
L 155.804285 214.469591 
L 155.804285 213.469894 
L 156.052535 213.469894 
L 156.083319 211.970348 
L 156.776762 211.970348 
L 156.776762 210.470803 
L 156.953214 210.470803 
L 157.040776 209.471105 
L 157.443681 209.471105 
L 157.443681 208.471408 
L 157.725877 208.471408 
L 157.725877 207.97156 
L 157.86528 207.97156 
L 157.976006 206.472014 
L 158.51933 206.472014 
L 158.51933 204.972468 
L 158.67908 204.972468 
L 158.784773 201.973377 
L 159.405822 201.973377 
L 159.456591 199.474134 
L 159.582872 199.474134 
L 159.582872 196.475043 
L 159.708245 196.475043 
L 159.807898 194.975497 
L 159.882266 194.975497 
L 159.882266 193.9758 
L 160.152267 193.9758 
L 160.225184 192.976103 
L 160.297798 192.976103 
L 160.297798 192.476254 
L 160.418152 192.476254 
L 160.466062 191.476557 
L 160.537682 191.476557 
L 160.537682 189.977011 
L 161.283861 189.977011 
L 161.283861 188.477465 
L 161.53316 188.477465 
L 161.53316 187.977617 
L 163.103002 187.977617 
L 163.103002 187.477768 
L 165.083779 187.477768 
L 165.193576 184.978525 
L 165.7501 184.978525 
L 165.855793 181.979434 
L 166.255117 181.979434 
L 166.255117 180.979737 
L 166.459886 180.979737 
L 166.476842 179.98004 
L 166.679039 179.98004 
L 166.695783 178.980342 
L 166.812546 178.980342 
L 166.812546 178.480494 
L 167.255733 178.480494 
L 167.255733 177.480797 
L 167.384913 177.480797 
L 167.465168 176.4811 
L 167.656285 176.4811 
L 167.656285 174.481705 
L 167.985782 174.481705 
L 167.985782 173.981857 
L 169.099626 173.981857 
L 169.099626 173.482008 
L 169.302579 173.482008 
L 169.302579 172.98216 
L 169.953269 172.98216 
L 169.953269 172.482311 
L 170.160306 172.482311 
L 170.160306 171.982462 
L 170.459584 171.982462 
L 170.459584 170.982765 
L 171.095254 170.982765 
L 171.095254 169.983068 
L 171.595202 169.983068 
L 171.595202 169.48322 
L 171.721118 169.48322 
L 171.721118 167.983674 
L 172.031987 167.983674 
L 172.031987 167.483825 
L 172.264595 167.483825 
L 172.264595 166.983977 
L 172.397859 166.983977 
L 172.434028 165.484431 
L 175.273058 165.484431 
L 175.273058 163.984885 
L 175.486665 163.984885 
L 175.486665 163.485037 
L 175.687696 163.485037 
L 175.687696 162.48534 
L 176.02422 162.48534 
L 176.02422 161.985491 
L 176.209486 161.985491 
L 176.209486 159.486248 
L 176.325491 159.486248 
L 176.325491 158.486551 
L 176.60269 158.486551 
L 176.60269 157.986702 
L 176.912855 157.986702 
L 176.959372 155.987308 
L 177.226752 155.987308 
L 177.235899 151.98852 
L 177.345294 151.98852 
L 177.372536 148.989428 
L 177.678338 148.989428 
L 177.72286 146.990034 
L 180.863838 146.990034 
L 180.863838 145.990337 
L 182.357718 145.990337 
L 182.357718 145.490488 
L 182.901377 145.490488 
L 183.00679 139.992154 
L 183.013357 139.992154 
L 183.091972 137.492911 
L 183.144185 137.492911 
L 183.235184 135.493517 
L 183.441416 135.493517 
L 183.549993 134.493819 
L 183.556359 134.493819 
L 183.556359 133.494122 
L 183.708446 133.494122 
L 183.708446 132.994274 
L 183.840444 132.994274 
L 183.89671 130.994879 
L 183.983875 130.994879 
L 183.996292 128.995485 
L 184.144607 128.995485 
L 184.218294 127.995788 
L 184.303871 127.995788 
L 184.303871 126.496242 
L 184.485848 126.496242 
L 184.485848 125.496545 
L 184.773118 125.496545 
L 184.856021 120.997908 
L 185.073244 120.997908 
L 185.073244 120.498059 
L 189.378671 120.498059 
L 189.378671 118.998514 
L 189.926077 118.998514 
L 190.03616 114.499877 
L 190.162992 114.499877 
L 190.228234 113.500179 
L 190.728918 113.500179 
L 190.838255 111.000937 
L 192.354972 111.000937 
L 192.366497 110.001239 
L 192.933248 110.001239 
L 193.033336 107.002148 
L 193.275603 107.002148 
L 193.275603 106.502299 
L 193.402725 106.502299 
L 193.492963 104.502905 
L 193.589898 104.502905 
L 193.675612 102.003662 
L 193.895111 102.003662 
L 193.895111 101.503814 
L 194.021305 101.503814 
L 194.10493 96.005479 
L 194.29851 96.005479 
L 194.29851 94.505934 
L 194.472956 94.505934 
L 194.50356 92.006691 
L 194.756527 92.006691 
L 194.833375 87.508054 
L 194.946358 87.508054 
L 194.97945 86.508356 
L 195.061905 86.508356 
L 195.121033 81.509871 
L 195.199559 81.509871 
L 195.251713 80.010325 
L 195.37496 80.010325 
L 195.442698 78.010931 
L 195.881405 78.010931 
L 195.897095 75.511688 
L 196.2018 75.511688 
L 196.204882 74.511991 
L 196.573836 74.511991 
L 196.573836 73.012445 
L 196.867041 73.012445 
L 196.867041 72.512596 
L 197.58488 72.512596 
L 197.68991 71.013051 
L 197.766157 71.013051 
L 197.8617 68.013959 
L 197.903685 68.013959 
L 198.001259 66.014565 
L 198.059543 66.014565 
L 198.095526 64.015171 
L 198.178281 64.015171 
L 198.178281 63.515322 
L 198.658703 63.515322 
L 198.658703 62.515625 
L 200.197746 62.515625 
L 200.197746 62.015776 
L 203.884575 62.015776 
L 203.926189 60.516231 
L 203.999269 60.516231 
L 204.0995 58.016988 
L 204.128871 58.016988 
L 204.128871 57.517139 
L 210.431975 57.517139 
L 210.431975 56.517442 
L 211.363458 56.517442 
L 211.403467 53.518351 
L 215.381345 53.518351 
L 215.381345 52.018805 
L 215.999327 52.018805 
L 216.10794 44.521076 
L 216.1669 44.521076 
L 216.1669 44.021228 
L 338.688 44.021228 
L 338.688 44.021228 
" style="fill:none;stroke:#ffa500;stroke-linecap:square;stroke-width:1.5;"/>
   </g>
   <g id="line2d_52">
    <defs>
     <path d="M 0 -6 
L -1.347084 -1.854102 
L -5.706339 -1.854102 
L -2.179628 0.708204 
L -3.526712 4.854102 
L -0 2.291796 
L 3.526712 4.854102 
L 2.179628 0.708204 
L 5.706339 -1.854102 
L 1.347084 -1.854102 
z
" id="m33c7d0800d" style="stroke:#ffa500;stroke-linejoin:bevel;stroke-width:1.5;"/>
    </defs>
    <g>
     <use style="fill-opacity:0;stroke:#ffa500;stroke-linejoin:bevel;stroke-width:1.5;" x="126.673734" xlink:href="#m33c7d0800d" y="256.95672"/>
     <use style="fill-opacity:0;stroke:#ffa500;stroke-linejoin:bevel;stroke-width:1.5;" x="175.273058" xlink:href="#m33c7d0800d" y="165.484431"/>
     <use style="fill-opacity:0;stroke:#ffa500;stroke-linejoin:bevel;stroke-width:1.5;" x="215.381345" xlink:href="#m33c7d0800d" y="53.518351"/>
     <use style="fill-opacity:0;stroke:#ffa500;stroke-linejoin:bevel;stroke-width:1.5;" x="216.1669" xlink:href="#m33c7d0800d" y="44.021228"/>
     <use style="fill-opacity:0;stroke:#ffa500;stroke-linejoin:bevel;stroke-width:1.5;" x="216.1669" xlink:href="#m33c7d0800d" y="44.021228"/>
     <use style="fill-opacity:0;stroke:#ffa500;stroke-linejoin:bevel;stroke-width:1.5;" x="338.688" xlink:href="#m33c7d0800d" y="44.021228"/>
    </g>
   </g>
   <g id="line2d_53">
    <path style="fill:none;stroke:#ffa500;stroke-linecap:square;stroke-width:1.5;"/>
    <g/>
   </g>
   <g id="line2d_54">
    <path d="M 338.688 44.021228 
L 369.60768 293.845545 
" style="fill:none;stroke:#ffa500;stroke-linecap:square;stroke-width:1.5;"/>
    <g>
     <use style="fill-opacity:0;stroke:#ffa500;stroke-linejoin:bevel;stroke-width:1.5;" x="338.688" xlink:href="#m33c7d0800d" y="44.021228"/>
     <use style="fill-opacity:0;stroke:#ffa500;stroke-linejoin:bevel;stroke-width:1.5;" x="369.60768" xlink:href="#m33c7d0800d" y="293.845545"/>
    </g>
   </g>
   <g id="line2d_55">
    <path d="M 338.688 44.021228 
L 369.60768 212.270257 
" style="fill:none;stroke:#000080;stroke-linecap:square;stroke-width:1.5;"/>
    <g>
     <use style="fill-opacity:0;stroke:#000080;stroke-width:1.5;" x="338.688" xlink:href="#m5b824e0174" y="44.021228"/>
     <use style="fill-opacity:0;stroke:#000080;stroke-width:1.5;" x="369.60768" xlink:href="#m5b824e0174" y="212.270257"/>
    </g>
   </g>
   <g id="line2d_56">
    <path d="M 338.688 44.021228 
L 369.60768 130.69497 
" style="fill:none;stroke:#ff00ff;stroke-linecap:square;stroke-width:1.5;"/>
    <g>
     <use style="fill-opacity:0;stroke:#ff00ff;stroke-linejoin:miter;stroke-width:1.5;" x="338.688" xlink:href="#mf79e03acaf" y="44.021228"/>
     <use style="fill-opacity:0;stroke:#ff00ff;stroke-linejoin:miter;stroke-width:1.5;" x="369.60768" xlink:href="#mf79e03acaf" y="130.69497"/>
    </g>
   </g>
   <g id="line2d_57">
    <path d="M 338.688 298.944 
L 338.688 44.021228 
" style="fill:none;stroke:#000000;stroke-linecap:square;stroke-width:1.5;"/>
   </g>
   <g id="patch_3">
    <path d="M 57.6 298.944 
L 57.6 41.472 
" style="fill:none;stroke:#000000;stroke-linecap:square;stroke-linejoin:miter;stroke-width:0.8;"/>
   </g>
   <g id="patch_4">
    <path d="M 338.688 298.944 
L 338.688 41.472 
" style="fill:none;stroke:#000000;stroke-linecap:square;stroke-linejoin:miter;stroke-width:0.8;"/>
   </g>
   <g id="patch_5">
    <path d="M 57.6 298.944 
L 338.688 298.944 
" style="fill:none;stroke:#000000;stroke-linecap:square;stroke-linejoin:miter;stroke-width:0.8;"/>
   </g>
   <g id="patch_6">
    <path d="M 57.6 41.472 
L 338.688 41.472 
" style="fill:none;stroke:#000000;stroke-linecap:square;stroke-linejoin:miter;stroke-width:0.8;"/>
   </g>
   <g id="text_13">
    <!-- BIPOP-saA -->
    <defs>
     <path d="M 19.671875 34.8125 
L 19.671875 8.109375 
L 35.5 8.109375 
Q 43.453125 8.109375 47.28125 11.40625 
Q 51.125 14.703125 51.125 21.484375 
Q 51.125 28.328125 47.28125 31.5625 
Q 43.453125 34.8125 35.5 34.8125 
z
M 19.671875 64.796875 
L 19.671875 42.828125 
L 34.28125 42.828125 
Q 41.5 42.828125 45.03125 45.53125 
Q 48.578125 48.25 48.578125 53.8125 
Q 48.578125 59.328125 45.03125 62.0625 
Q 41.5 64.796875 34.28125 64.796875 
z
M 9.8125 72.90625 
L 35.015625 72.90625 
Q 46.296875 72.90625 52.390625 68.21875 
Q 58.5 63.53125 58.5 54.890625 
Q 58.5 48.1875 55.375 44.234375 
Q 52.25 40.28125 46.1875 39.3125 
Q 53.46875 37.75 57.5 32.78125 
Q 61.53125 27.828125 61.53125 20.40625 
Q 61.53125 10.640625 54.890625 5.3125 
Q 48.25 0 35.984375 0 
L 9.8125 0 
z
" id="DejaVuSans-66"/>
     <path d="M 9.8125 72.90625 
L 19.671875 72.90625 
L 19.671875 0 
L 9.8125 0 
z
" id="DejaVuSans-73"/>
     <path d="M 19.671875 64.796875 
L 19.671875 37.40625 
L 32.078125 37.40625 
Q 38.96875 37.40625 42.71875 40.96875 
Q 46.484375 44.53125 46.484375 51.125 
Q 46.484375 57.671875 42.71875 61.234375 
Q 38.96875 64.796875 32.078125 64.796875 
z
M 9.8125 72.90625 
L 32.078125 72.90625 
Q 44.34375 72.90625 50.609375 67.359375 
Q 56.890625 61.8125 56.890625 51.125 
Q 56.890625 40.328125 50.609375 34.8125 
Q 44.34375 29.296875 32.078125 29.296875 
L 19.671875 29.296875 
L 19.671875 0 
L 9.8125 0 
z
" id="DejaVuSans-80"/>
     <path d="M 39.40625 66.21875 
Q 28.65625 66.21875 22.328125 58.203125 
Q 16.015625 50.203125 16.015625 36.375 
Q 16.015625 22.609375 22.328125 14.59375 
Q 28.65625 6.59375 39.40625 6.59375 
Q 50.140625 6.59375 56.421875 14.59375 
Q 62.703125 22.609375 62.703125 36.375 
Q 62.703125 50.203125 56.421875 58.203125 
Q 50.140625 66.21875 39.40625 66.21875 
z
M 39.40625 74.21875 
Q 54.734375 74.21875 63.90625 63.9375 
Q 73.09375 53.65625 73.09375 36.375 
Q 73.09375 19.140625 63.90625 8.859375 
Q 54.734375 -1.421875 39.40625 -1.421875 
Q 24.03125 -1.421875 14.8125 8.828125 
Q 5.609375 19.09375 5.609375 36.375 
Q 5.609375 53.65625 14.8125 63.9375 
Q 24.03125 74.21875 39.40625 74.21875 
z
" id="DejaVuSans-79"/>
     <path d="M 34.1875 63.1875 
L 20.796875 26.90625 
L 47.609375 26.90625 
z
M 28.609375 72.90625 
L 39.796875 72.90625 
L 67.578125 0 
L 57.328125 0 
L 50.6875 18.703125 
L 17.828125 18.703125 
L 11.1875 0 
L 0.78125 0 
z
" id="DejaVuSans-65"/>
    </defs>
    <g transform="translate(375.22944 298.536482)scale(0.17 -0.17)">
     <use xlink:href="#DejaVuSans-66"/>
     <use x="68.603516" xlink:href="#DejaVuSans-73"/>
     <use x="98.095703" xlink:href="#DejaVuSans-80"/>
     <use x="158.398438" xlink:href="#DejaVuSans-79"/>
     <use x="237.109375" xlink:href="#DejaVuSans-80"/>
     <use x="297.380859" xlink:href="#DejaVuSans-45"/>
     <use x="333.464844" xlink:href="#DejaVuSans-115"/>
     <use x="385.564453" xlink:href="#DejaVuSans-97"/>
     <use x="446.84375" xlink:href="#DejaVuSans-65"/>
    </g>
   </g>
   <g id="text_14">
    <!-- BIPOPsaAC -->
    <defs>
     <path d="M 64.40625 67.28125 
L 64.40625 56.890625 
Q 59.421875 61.53125 53.78125 63.8125 
Q 48.140625 66.109375 41.796875 66.109375 
Q 29.296875 66.109375 22.65625 58.46875 
Q 16.015625 50.828125 16.015625 36.375 
Q 16.015625 21.96875 22.65625 14.328125 
Q 29.296875 6.6875 41.796875 6.6875 
Q 48.140625 6.6875 53.78125 8.984375 
Q 59.421875 11.28125 64.40625 15.921875 
L 64.40625 5.609375 
Q 59.234375 2.09375 53.4375 0.328125 
Q 47.65625 -1.421875 41.21875 -1.421875 
Q 24.65625 -1.421875 15.125 8.703125 
Q 5.609375 18.84375 5.609375 36.375 
Q 5.609375 53.953125 15.125 64.078125 
Q 24.65625 74.21875 41.21875 74.21875 
Q 47.75 74.21875 53.53125 72.484375 
Q 59.328125 70.75 64.40625 67.28125 
z
" id="DejaVuSans-67"/>
    </defs>
    <g transform="translate(375.22944 216.961195)scale(0.17 -0.17)">
     <use xlink:href="#DejaVuSans-66"/>
     <use x="68.603516" xlink:href="#DejaVuSans-73"/>
     <use x="98.095703" xlink:href="#DejaVuSans-80"/>
     <use x="158.398438" xlink:href="#DejaVuSans-79"/>
     <use x="237.109375" xlink:href="#DejaVuSans-80"/>
     <use x="297.396484" xlink:href="#DejaVuSans-115"/>
     <use x="349.496094" xlink:href="#DejaVuSans-97"/>
     <use x="410.775391" xlink:href="#DejaVuSans-65"/>
     <use x="479.167969" xlink:href="#DejaVuSans-67"/>
    </g>
   </g>
   <g id="text_15">
    <!-- IPOPsaACM -->
    <defs>
     <path d="M 9.8125 72.90625 
L 24.515625 72.90625 
L 43.109375 23.296875 
L 61.8125 72.90625 
L 76.515625 72.90625 
L 76.515625 0 
L 66.890625 0 
L 66.890625 64.015625 
L 48.09375 14.015625 
L 38.1875 14.015625 
L 19.390625 64.015625 
L 19.390625 0 
L 9.8125 0 
z
" id="DejaVuSans-77"/>
    </defs>
    <g transform="translate(375.22944 135.385908)scale(0.17 -0.17)">
     <use xlink:href="#DejaVuSans-73"/>
     <use x="29.492188" xlink:href="#DejaVuSans-80"/>
     <use x="89.794922" xlink:href="#DejaVuSans-79"/>
     <use x="168.505859" xlink:href="#DejaVuSans-80"/>
     <use x="228.792969" xlink:href="#DejaVuSans-115"/>
     <use x="280.892578" xlink:href="#DejaVuSans-97"/>
     <use x="342.171875" xlink:href="#DejaVuSans-65"/>
     <use x="410.564453" xlink:href="#DejaVuSans-67"/>
     <use x="480.388672" xlink:href="#DejaVuSans-77"/>
    </g>
   </g>
   <g id="text_16">
    <!-- best 2009 -->
    <defs>
     <path d="M 48.6875 27.296875 
Q 48.6875 37.203125 44.609375 42.84375 
Q 40.53125 48.484375 33.40625 48.484375 
Q 26.265625 48.484375 22.1875 42.84375 
Q 18.109375 37.203125 18.109375 27.296875 
Q 18.109375 17.390625 22.1875 11.75 
Q 26.265625 6.109375 33.40625 6.109375 
Q 40.53125 6.109375 44.609375 11.75 
Q 48.6875 17.390625 48.6875 27.296875 
z
M 18.109375 46.390625 
Q 20.953125 51.265625 25.265625 53.625 
Q 29.59375 56 35.59375 56 
Q 45.5625 56 51.78125 48.09375 
Q 58.015625 40.1875 58.015625 27.296875 
Q 58.015625 14.40625 51.78125 6.484375 
Q 45.5625 -1.421875 35.59375 -1.421875 
Q 29.59375 -1.421875 25.265625 0.953125 
Q 20.953125 3.328125 18.109375 8.203125 
L 18.109375 0 
L 9.078125 0 
L 9.078125 75.984375 
L 18.109375 75.984375 
z
" id="DejaVuSans-98"/>
     <path d="M 10.984375 1.515625 
L 10.984375 10.5 
Q 14.703125 8.734375 18.5 7.8125 
Q 22.3125 6.890625 25.984375 6.890625 
Q 35.75 6.890625 40.890625 13.453125 
Q 46.046875 20.015625 46.78125 33.40625 
Q 43.953125 29.203125 39.59375 26.953125 
Q 35.25 24.703125 29.984375 24.703125 
Q 19.046875 24.703125 12.671875 31.3125 
Q 6.296875 37.9375 6.296875 49.421875 
Q 6.296875 60.640625 12.9375 67.421875 
Q 19.578125 74.21875 30.609375 74.21875 
Q 43.265625 74.21875 49.921875 64.515625 
Q 56.59375 54.828125 56.59375 36.375 
Q 56.59375 19.140625 48.40625 8.859375 
Q 40.234375 -1.421875 26.421875 -1.421875 
Q 22.703125 -1.421875 18.890625 -0.6875 
Q 15.09375 0.046875 10.984375 1.515625 
z
M 30.609375 32.421875 
Q 37.25 32.421875 41.125 36.953125 
Q 45.015625 41.5 45.015625 49.421875 
Q 45.015625 57.28125 41.125 61.84375 
Q 37.25 66.40625 30.609375 66.40625 
Q 23.96875 66.40625 20.09375 61.84375 
Q 16.21875 57.28125 16.21875 49.421875 
Q 16.21875 41.5 20.09375 36.953125 
Q 23.96875 32.421875 30.609375 32.421875 
z
" id="DejaVuSans-57"/>
    </defs>
    <g transform="translate(375.22944 53.810621)scale(0.17 -0.17)">
     <use xlink:href="#DejaVuSans-98"/>
     <use x="63.476562" xlink:href="#DejaVuSans-101"/>
     <use x="125" xlink:href="#DejaVuSans-115"/>
     <use x="177.099609" xlink:href="#DejaVuSans-116"/>
     <use x="216.308594" xlink:href="#DejaVuSans-32"/>
     <use x="248.095703" xlink:href="#DejaVuSans-50"/>
     <use x="311.71875" xlink:href="#DejaVuSans-48"/>
     <use x="375.341797" xlink:href="#DejaVuSans-48"/>
     <use x="438.964844" xlink:href="#DejaVuSans-57"/>
    </g>
   </g>
   <g id="text_17">
    <!-- bbob f23, 2-D -->
    <defs>
     <path d="M 40.578125 39.3125 
Q 47.65625 37.796875 51.625 33 
Q 55.609375 28.21875 55.609375 21.1875 
Q 55.609375 10.40625 48.1875 4.484375 
Q 40.765625 -1.421875 27.09375 -1.421875 
Q 22.515625 -1.421875 17.65625 -0.515625 
Q 12.796875 0.390625 7.625 2.203125 
L 7.625 11.71875 
Q 11.71875 9.328125 16.59375 8.109375 
Q 21.484375 6.890625 26.8125 6.890625 
Q 36.078125 6.890625 40.9375 10.546875 
Q 45.796875 14.203125 45.796875 21.1875 
Q 45.796875 27.640625 41.28125 31.265625 
Q 36.765625 34.90625 28.71875 34.90625 
L 20.21875 34.90625 
L 20.21875 43.015625 
L 29.109375 43.015625 
Q 36.375 43.015625 40.234375 45.921875 
Q 44.09375 48.828125 44.09375 54.296875 
Q 44.09375 59.90625 40.109375 62.90625 
Q 36.140625 65.921875 28.71875 65.921875 
Q 24.65625 65.921875 20.015625 65.03125 
Q 15.375 64.15625 9.8125 62.3125 
L 9.8125 71.09375 
Q 15.4375 72.65625 20.34375 73.4375 
Q 25.25 74.21875 29.59375 74.21875 
Q 40.828125 74.21875 47.359375 69.109375 
Q 53.90625 64.015625 53.90625 55.328125 
Q 53.90625 49.265625 50.4375 45.09375 
Q 46.96875 40.921875 40.578125 39.3125 
z
" id="DejaVuSans-51"/>
     <path d="M 19.671875 64.796875 
L 19.671875 8.109375 
L 31.59375 8.109375 
Q 46.6875 8.109375 53.6875 14.9375 
Q 60.6875 21.78125 60.6875 36.53125 
Q 60.6875 51.171875 53.6875 57.984375 
Q 46.6875 64.796875 31.59375 64.796875 
z
M 9.8125 72.90625 
L 30.078125 72.90625 
Q 51.265625 72.90625 61.171875 64.09375 
Q 71.09375 55.28125 71.09375 36.53125 
Q 71.09375 17.671875 61.125 8.828125 
Q 51.171875 0 30.078125 0 
L 9.8125 0 
z
" id="DejaVuSans-68"/>
    </defs>
    <g transform="translate(60.41088 51.797126)scale(0.102 -0.102)">
     <use xlink:href="#DejaVuSans-98"/>
     <use x="63.476562" xlink:href="#DejaVuSans-98"/>
     <use x="126.953125" xlink:href="#DejaVuSans-111"/>
     <use x="188.134766" xlink:href="#DejaVuSans-98"/>
     <use x="251.611328" xlink:href="#DejaVuSans-32"/>
     <use x="283.398438" xlink:href="#DejaVuSans-102"/>
     <use x="318.603516" xlink:href="#DejaVuSans-50"/>
     <use x="382.226562" xlink:href="#DejaVuSans-51"/>
     <use x="445.849609" xlink:href="#DejaVuSans-44"/>
     <use x="477.636719" xlink:href="#DejaVuSans-32"/>
     <use x="509.423828" xlink:href="#DejaVuSans-50"/>
     <use x="573.046875" xlink:href="#DejaVuSans-45"/>
     <use x="609.130859" xlink:href="#DejaVuSans-68"/>
    </g>
    <!-- 51 targets: 100..1e-08 -->
    <defs>
     <path d="M 10.796875 72.90625 
L 49.515625 72.90625 
L 49.515625 64.59375 
L 19.828125 64.59375 
L 19.828125 46.734375 
Q 21.96875 47.46875 24.109375 47.828125 
Q 26.265625 48.1875 28.421875 48.1875 
Q 40.625 48.1875 47.75 41.5 
Q 54.890625 34.8125 54.890625 23.390625 
Q 54.890625 11.625 47.5625 5.09375 
Q 40.234375 -1.421875 26.90625 -1.421875 
Q 22.3125 -1.421875 17.546875 -0.640625 
Q 12.796875 0.140625 7.71875 1.703125 
L 7.71875 11.625 
Q 12.109375 9.234375 16.796875 8.0625 
Q 21.484375 6.890625 26.703125 6.890625 
Q 35.15625 6.890625 40.078125 11.328125 
Q 45.015625 15.765625 45.015625 23.390625 
Q 45.015625 31 40.078125 35.4375 
Q 35.15625 39.890625 26.703125 39.890625 
Q 22.75 39.890625 18.8125 39.015625 
Q 14.890625 38.140625 10.796875 36.28125 
z
" id="DejaVuSans-53"/>
     <path d="M 11.71875 12.40625 
L 22.015625 12.40625 
L 22.015625 0 
L 11.71875 0 
z
M 11.71875 51.703125 
L 22.015625 51.703125 
L 22.015625 39.3125 
L 11.71875 39.3125 
z
" id="DejaVuSans-58"/>
    </defs>
    <g transform="translate(60.41088 63.218895)scale(0.102 -0.102)">
     <use xlink:href="#DejaVuSans-53"/>
     <use x="63.623047" xlink:href="#DejaVuSans-49"/>
     <use x="127.246094" xlink:href="#DejaVuSans-32"/>
     <use x="159.033203" xlink:href="#DejaVuSans-116"/>
     <use x="198.242188" xlink:href="#DejaVuSans-97"/>
     <use x="259.521484" xlink:href="#DejaVuSans-114"/>
     <use x="300.619141" xlink:href="#DejaVuSans-103"/>
     <use x="364.095703" xlink:href="#DejaVuSans-101"/>
     <use x="425.619141" xlink:href="#DejaVuSans-116"/>
     <use x="464.828125" xlink:href="#DejaVuSans-115"/>
     <use x="516.927734" xlink:href="#DejaVuSans-58"/>
     <use x="550.619141" xlink:href="#DejaVuSans-32"/>
     <use x="582.40625" xlink:href="#DejaVuSans-49"/>
     <use x="646.029297" xlink:href="#DejaVuSans-48"/>
     <use x="709.652344" xlink:href="#DejaVuSans-48"/>
     <use x="773.275391" xlink:href="#DejaVuSans-46"/>
     <use x="805.0625" xlink:href="#DejaVuSans-46"/>
     <use x="836.849609" xlink:href="#DejaVuSans-49"/>
     <use x="900.472656" xlink:href="#DejaVuSans-101"/>
     <use x="961.996094" xlink:href="#DejaVuSans-45"/>
     <use x="998.080078" xlink:href="#DejaVuSans-48"/>
     <use x="1061.703125" xlink:href="#DejaVuSans-56"/>
    </g>
    <!-- 15 instances -->
    <g transform="translate(60.41088 74.640664)scale(0.102 -0.102)">
     <use xlink:href="#DejaVuSans-49"/>
     <use x="63.623047" xlink:href="#DejaVuSans-53"/>
     <use x="127.246094" xlink:href="#DejaVuSans-32"/>
     <use x="159.033203" xlink:href="#DejaVuSans-105"/>
     <use x="186.816406" xlink:href="#DejaVuSans-110"/>
     <use x="250.195312" xlink:href="#DejaVuSans-115"/>
     <use x="302.294922" xlink:href="#DejaVuSans-116"/>
     <use x="341.503906" xlink:href="#DejaVuSans-97"/>
     <use x="402.783203" xlink:href="#DejaVuSans-110"/>
     <use x="466.162109" xlink:href="#DejaVuSans-99"/>
     <use x="521.142578" xlink:href="#DejaVuSans-101"/>
     <use x="582.666016" xlink:href="#DejaVuSans-115"/>
    </g>
   </g>
   <g id="text_18">
    <!-- v2.3.14 -->
    <g style="fill:#808080;" transform="translate(179.2815 294.289592)scale(0.1 -0.1)">
     <use xlink:href="#DejaVuSans-118"/>
     <use x="59.179688" xlink:href="#DejaVuSans-50"/>
     <use x="122.802734" xlink:href="#DejaVuSans-46"/>
     <use x="154.589844" xlink:href="#DejaVuSans-51"/>
     <use x="218.212891" xlink:href="#DejaVuSans-46"/>
     <use x="250" xlink:href="#DejaVuSans-49"/>
     <use x="313.623047" xlink:href="#DejaVuSans-52"/>
    </g>
   </g>
   <g id="text_19">
    <!-- 23 Katsuuras -->
    <defs>
     <path d="M 9.8125 72.90625 
L 19.671875 72.90625 
L 19.671875 42.09375 
L 52.390625 72.90625 
L 65.09375 72.90625 
L 28.90625 38.921875 
L 67.671875 0 
L 54.6875 0 
L 19.671875 35.109375 
L 19.671875 0 
L 9.8125 0 
z
" id="DejaVuSans-75"/>
    </defs>
    <g transform="translate(132.303375 35.472)scale(0.2 -0.2)">
     <use xlink:href="#DejaVuSans-50"/>
     <use x="63.623047" xlink:href="#DejaVuSans-51"/>
     <use x="127.246094" xlink:href="#DejaVuSans-32"/>
     <use x="159.033203" xlink:href="#DejaVuSans-75"/>
     <use x="224.59375" xlink:href="#DejaVuSans-97"/>
     <use x="285.873047" xlink:href="#DejaVuSans-116"/>
     <use x="325.082031" xlink:href="#DejaVuSans-115"/>
     <use x="377.181641" xlink:href="#DejaVuSans-117"/>
     <use x="440.560547" xlink:href="#DejaVuSans-117"/>
     <use x="503.939453" xlink:href="#DejaVuSans-114"/>
     <use x="545.052734" xlink:href="#DejaVuSans-97"/>
     <use x="606.332031" xlink:href="#DejaVuSans-115"/>
    </g>
   </g>
  </g>
 </g>
 <defs>
  <clipPath id="pc8872bfeb7">
   <rect height="257.472" width="281.088" x="57.6" y="41.472"/>
  </clipPath>
 </defs>
</svg>
