<?xml version="1.0" encoding="utf-8" standalone="no"?>
<!DOCTYPE svg PUBLIC "-//W3C//DTD SVG 1.1//EN"
  "http://www.w3.org/Graphics/SVG/1.1/DTD/svg11.dtd">
<!-- Created with matplotlib (https://matplotlib.org/) -->
<svg height="345.6pt" version="1.1" viewBox="0 0 460.8 345.6" width="460.8pt" xmlns="http://www.w3.org/2000/svg" xmlns:xlink="http://www.w3.org/1999/xlink">
 <defs>
  <style type="text/css">
*{stroke-linecap:butt;stroke-linejoin:round;}
  </style>
 </defs>
 <g id="figure_1">
  <g id="patch_1">
   <path d="M 0 345.6 
L 460.8 345.6 
L 460.8 0 
L 0 0 
z
" style="fill:#ffffff;"/>
  </g>
  <g id="axes_1">
   <g id="patch_2">
    <path d="M 57.6 298.944 
L 338.688 298.944 
L 338.688 41.472 
L 57.6 41.472 
z
" style="fill:#ffffff;"/>
   </g>
   <g id="line2d_1">
    <path d="M 5.356583 298.944 
L 5.356583 293.945514 
L 24.515591 293.945514 
L 24.515591 288.947029 
L 62.175444 288.947029 
L 62.175444 283.948543 
L 89.835723 283.948543 
L 89.835723 278.950057 
L 115.077025 278.950057 
L 115.077025 273.951571 
L 131.490249 273.951571 
L 131.490249 268.953086 
L 154.671277 268.953086 
L 154.671277 263.9546 
L 158.143521 263.9546 
L 158.143521 258.956114 
L 167.343034 258.956114 
L 167.343034 253.957628 
L 178.516462 253.957628 
L 178.516462 248.959143 
L 183.470223 248.959143 
L 183.470223 243.960657 
L 188.535416 243.960657 
L 188.535416 238.962171 
L 192.689537 238.962171 
L 192.689537 233.963685 
L 195.646893 233.963685 
L 195.646893 228.9652 
L 198.885057 228.9652 
L 198.885057 223.966714 
L 201.579109 223.966714 
L 201.579109 218.968228 
L 203.975995 218.968228 
L 203.975995 213.969743 
L 206.227298 213.969743 
L 206.227298 208.971257 
L 207.914053 208.971257 
L 207.914053 203.972771 
L 210.163179 203.972771 
L 210.163179 198.974285 
L 211.910013 198.974285 
L 211.910013 193.9758 
L 212.154107 193.9758 
L 212.154107 188.977314 
L 212.989501 188.977314 
L 212.989501 183.978828 
L 215.922694 183.978828 
L 215.922694 178.980342 
L 216.681994 178.980342 
L 216.681994 173.981857 
L 217.137085 173.981857 
L 217.137085 168.983371 
L 217.179439 168.983371 
L 217.179439 163.984885 
L 217.236552 163.984885 
L 217.236552 158.9864 
L 217.278758 158.9864 
L 217.278758 153.987914 
L 217.347377 153.987914 
L 217.347377 148.989428 
L 217.801372 148.989428 
L 217.801372 143.990942 
L 217.834302 143.990942 
L 217.834302 138.992457 
L 217.887002 138.992457 
L 217.887002 133.993971 
L 217.943531 133.993971 
L 217.943531 128.995485 
L 217.989718 128.995485 
L 217.989718 123.996999 
L 218.026262 123.996999 
L 218.026262 118.998514 
L 218.067569 118.998514 
L 218.067569 114.000028 
L 218.119746 114.000028 
L 218.119746 109.001542 
L 219.634684 109.001542 
L 219.634684 104.003056 
L 219.674201 104.003056 
L 219.674201 99.004571 
L 219.706663 99.004571 
L 219.706663 94.006085 
L 219.741303 94.006085 
L 219.741303 89.007599 
L 219.781855 89.007599 
L 219.781855 84.009114 
L 219.809899 84.009114 
L 219.809899 79.010628 
L 219.85196 79.010628 
L 219.85196 74.012142 
L 219.891701 74.012142 
L 219.891701 69.013656 
L 219.9221 69.013656 
L 219.9221 64.015171 
L 219.945576 64.015171 
L 219.945576 59.016685 
L 219.981716 59.016685 
L 219.981716 54.018199 
L 220.030677 54.018199 
L 220.030677 49.019713 
L 220.056911 49.019713 
L 220.056911 44.021228 
L 338.688 44.021228 
" style="fill:none;stroke:#f5deb3;stroke-linecap:square;stroke-width:4;"/>
   </g>
   <g id="line2d_2">
    <defs>
     <path d="M -0 7.778175 
L 7.778175 0 
L 0 -7.778175 
L -7.778175 -0 
z
" id="mfcc51eed0a" style="stroke:#f5deb3;stroke-linejoin:miter;stroke-width:1.5;"/>
    </defs>
    <g>
     <use style="fill:#f5deb3;stroke:#f5deb3;stroke-linejoin:miter;stroke-width:1.5;" x="158.143521" xlink:href="#mfcc51eed0a" y="263.9546"/>
     <use style="fill:#f5deb3;stroke:#f5deb3;stroke-linejoin:miter;stroke-width:1.5;" x="203.975995" xlink:href="#mfcc51eed0a" y="218.968228"/>
     <use style="fill:#f5deb3;stroke:#f5deb3;stroke-linejoin:miter;stroke-width:1.5;" x="219.809899" xlink:href="#mfcc51eed0a" y="79.010628"/>
     <use style="fill:#f5deb3;stroke:#f5deb3;stroke-linejoin:miter;stroke-width:1.5;" x="220.056911" xlink:href="#mfcc51eed0a" y="44.021228"/>
     <use style="fill:#f5deb3;stroke:#f5deb3;stroke-linejoin:miter;stroke-width:1.5;" x="220.056911" xlink:href="#mfcc51eed0a" y="44.021228"/>
     <use style="fill:#f5deb3;stroke:#f5deb3;stroke-linejoin:miter;stroke-width:1.5;" x="338.688" xlink:href="#mfcc51eed0a" y="44.021228"/>
    </g>
   </g>
   <g id="line2d_3">
    <path style="fill:none;stroke:#f5deb3;stroke-linecap:square;stroke-width:4;"/>
    <g/>
   </g>
   <g id="line2d_4">
    <path d="M 338.688 44.021228 
L 369.60768 49.119683 
" style="fill:none;stroke:#f5deb3;stroke-linecap:square;stroke-width:4;"/>
    <g>
     <use style="fill:#f5deb3;stroke:#f5deb3;stroke-linejoin:miter;stroke-width:1.5;" x="338.688" xlink:href="#mfcc51eed0a" y="44.021228"/>
     <use style="fill:#f5deb3;stroke:#f5deb3;stroke-linejoin:miter;stroke-width:1.5;" x="369.60768" xlink:href="#mfcc51eed0a" y="49.119683"/>
    </g>
   </g>
   <g id="matplotlib.axis_1">
    <g id="xtick_1">
     <g id="line2d_5">
      <path clip-path="url(#p5e558478d0)" d="M 57.6 298.944 
L 57.6 41.472 
" style="fill:none;stroke:#b0b0b0;stroke-linecap:square;stroke-width:0.8;"/>
     </g>
     <g id="line2d_6">
      <defs>
       <path d="M 0 0 
L 0 3.5 
" id="mfacc91d246" style="stroke:#000000;stroke-width:0.8;"/>
      </defs>
      <g>
       <use style="stroke:#000000;stroke-width:0.8;" x="57.6" xlink:href="#mfacc91d246" y="298.944"/>
      </g>
     </g>
     <g id="text_1">
      <!-- 0 -->
      <defs>
       <path d="M 31.78125 66.40625 
Q 24.171875 66.40625 20.328125 58.90625 
Q 16.5 51.421875 16.5 36.375 
Q 16.5 21.390625 20.328125 13.890625 
Q 24.171875 6.390625 31.78125 6.390625 
Q 39.453125 6.390625 43.28125 13.890625 
Q 47.125 21.390625 47.125 36.375 
Q 47.125 51.421875 43.28125 58.90625 
Q 39.453125 66.40625 31.78125 66.40625 
z
M 31.78125 74.21875 
Q 44.046875 74.21875 50.515625 64.515625 
Q 56.984375 54.828125 56.984375 36.375 
Q 56.984375 17.96875 50.515625 8.265625 
Q 44.046875 -1.421875 31.78125 -1.421875 
Q 19.53125 -1.421875 13.0625 8.265625 
Q 6.59375 17.96875 6.59375 36.375 
Q 6.59375 54.828125 13.0625 64.515625 
Q 19.53125 74.21875 31.78125 74.21875 
z
" id="DejaVuSans-48"/>
      </defs>
      <g transform="translate(51.2375 321.140875)scale(0.2 -0.2)">
       <use xlink:href="#DejaVuSans-48"/>
      </g>
     </g>
    </g>
    <g id="xtick_2">
     <g id="line2d_7">
      <path clip-path="url(#p5e558478d0)" d="M 137.910857 298.944 
L 137.910857 41.472 
" style="fill:none;stroke:#b0b0b0;stroke-linecap:square;stroke-width:0.8;"/>
     </g>
     <g id="line2d_8">
      <g>
       <use style="stroke:#000000;stroke-width:0.8;" x="137.910857" xlink:href="#mfacc91d246" y="298.944"/>
      </g>
     </g>
     <g id="text_2">
      <!-- 2 -->
      <defs>
       <path d="M 19.1875 8.296875 
L 53.609375 8.296875 
L 53.609375 0 
L 7.328125 0 
L 7.328125 8.296875 
Q 12.9375 14.109375 22.625 23.890625 
Q 32.328125 33.6875 34.8125 36.53125 
Q 39.546875 41.84375 41.421875 45.53125 
Q 43.3125 49.21875 43.3125 52.78125 
Q 43.3125 58.59375 39.234375 62.25 
Q 35.15625 65.921875 28.609375 65.921875 
Q 23.96875 65.921875 18.8125 64.3125 
Q 13.671875 62.703125 7.8125 59.421875 
L 7.8125 69.390625 
Q 13.765625 71.78125 18.9375 73 
Q 24.125 74.21875 28.421875 74.21875 
Q 39.75 74.21875 46.484375 68.546875 
Q 53.21875 62.890625 53.21875 53.421875 
Q 53.21875 48.921875 51.53125 44.890625 
Q 49.859375 40.875 45.40625 35.40625 
Q 44.1875 33.984375 37.640625 27.21875 
Q 31.109375 20.453125 19.1875 8.296875 
z
" id="DejaVuSans-50"/>
      </defs>
      <g transform="translate(131.548357 321.140875)scale(0.2 -0.2)">
       <use xlink:href="#DejaVuSans-50"/>
      </g>
     </g>
    </g>
    <g id="xtick_3">
     <g id="line2d_9">
      <path clip-path="url(#p5e558478d0)" d="M 218.221714 298.944 
L 218.221714 41.472 
" style="fill:none;stroke:#b0b0b0;stroke-linecap:square;stroke-width:0.8;"/>
     </g>
     <g id="line2d_10">
      <g>
       <use style="stroke:#000000;stroke-width:0.8;" x="218.221714" xlink:href="#mfacc91d246" y="298.944"/>
      </g>
     </g>
     <g id="text_3">
      <!-- 4 -->
      <defs>
       <path d="M 37.796875 64.3125 
L 12.890625 25.390625 
L 37.796875 25.390625 
z
M 35.203125 72.90625 
L 47.609375 72.90625 
L 47.609375 25.390625 
L 58.015625 25.390625 
L 58.015625 17.1875 
L 47.609375 17.1875 
L 47.609375 0 
L 37.796875 0 
L 37.796875 17.1875 
L 4.890625 17.1875 
L 4.890625 26.703125 
z
" id="DejaVuSans-52"/>
      </defs>
      <g transform="translate(211.859214 321.140875)scale(0.2 -0.2)">
       <use xlink:href="#DejaVuSans-52"/>
      </g>
     </g>
    </g>
    <g id="xtick_4">
     <g id="line2d_11">
      <path clip-path="url(#p5e558478d0)" d="M 298.532571 298.944 
L 298.532571 41.472 
" style="fill:none;stroke:#b0b0b0;stroke-linecap:square;stroke-width:0.8;"/>
     </g>
     <g id="line2d_12">
      <g>
       <use style="stroke:#000000;stroke-width:0.8;" x="298.532571" xlink:href="#mfacc91d246" y="298.944"/>
      </g>
     </g>
     <g id="text_4">
      <!-- 6 -->
      <defs>
       <path d="M 33.015625 40.375 
Q 26.375 40.375 22.484375 35.828125 
Q 18.609375 31.296875 18.609375 23.390625 
Q 18.609375 15.53125 22.484375 10.953125 
Q 26.375 6.390625 33.015625 6.390625 
Q 39.65625 6.390625 43.53125 10.953125 
Q 47.40625 15.53125 47.40625 23.390625 
Q 47.40625 31.296875 43.53125 35.828125 
Q 39.65625 40.375 33.015625 40.375 
z
M 52.59375 71.296875 
L 52.59375 62.3125 
Q 48.875 64.0625 45.09375 64.984375 
Q 41.3125 65.921875 37.59375 65.921875 
Q 27.828125 65.921875 22.671875 59.328125 
Q 17.53125 52.734375 16.796875 39.40625 
Q 19.671875 43.65625 24.015625 45.921875 
Q 28.375 48.1875 33.59375 48.1875 
Q 44.578125 48.1875 50.953125 41.515625 
Q 57.328125 34.859375 57.328125 23.390625 
Q 57.328125 12.15625 50.6875 5.359375 
Q 44.046875 -1.421875 33.015625 -1.421875 
Q 20.359375 -1.421875 13.671875 8.265625 
Q 6.984375 17.96875 6.984375 36.375 
Q 6.984375 53.65625 15.1875 63.9375 
Q 23.390625 74.21875 37.203125 74.21875 
Q 40.921875 74.21875 44.703125 73.484375 
Q 48.484375 72.75 52.59375 71.296875 
z
" id="DejaVuSans-54"/>
      </defs>
      <g transform="translate(292.170071 321.140875)scale(0.2 -0.2)">
       <use xlink:href="#DejaVuSans-54"/>
      </g>
     </g>
    </g>
    <g id="xtick_5">
     <g id="line2d_13">
      <path clip-path="url(#p5e558478d0)" d="M 57.6 298.944 
L 57.6 41.472 
" style="fill:none;stroke:#b0b0b0;stroke-linecap:square;stroke-width:0.8;"/>
     </g>
     <g id="line2d_14">
      <defs>
       <path d="M 0 0 
L 0 2 
" id="mecdef87e85" style="stroke:#000000;stroke-width:0.6;"/>
      </defs>
      <g>
       <use style="stroke:#000000;stroke-width:0.6;" x="57.6" xlink:href="#mecdef87e85" y="298.944"/>
      </g>
     </g>
    </g>
    <g id="xtick_6">
     <g id="line2d_15">
      <path clip-path="url(#p5e558478d0)" d="M 97.755429 298.944 
L 97.755429 41.472 
" style="fill:none;stroke:#b0b0b0;stroke-linecap:square;stroke-width:0.8;"/>
     </g>
     <g id="line2d_16">
      <g>
       <use style="stroke:#000000;stroke-width:0.6;" x="97.755429" xlink:href="#mecdef87e85" y="298.944"/>
      </g>
     </g>
    </g>
    <g id="xtick_7">
     <g id="line2d_17">
      <path clip-path="url(#p5e558478d0)" d="M 137.910857 298.944 
L 137.910857 41.472 
" style="fill:none;stroke:#b0b0b0;stroke-linecap:square;stroke-width:0.8;"/>
     </g>
     <g id="line2d_18">
      <g>
       <use style="stroke:#000000;stroke-width:0.6;" x="137.910857" xlink:href="#mecdef87e85" y="298.944"/>
      </g>
     </g>
    </g>
    <g id="xtick_8">
     <g id="line2d_19">
      <path clip-path="url(#p5e558478d0)" d="M 178.066286 298.944 
L 178.066286 41.472 
" style="fill:none;stroke:#b0b0b0;stroke-linecap:square;stroke-width:0.8;"/>
     </g>
     <g id="line2d_20">
      <g>
       <use style="stroke:#000000;stroke-width:0.6;" x="178.066286" xlink:href="#mecdef87e85" y="298.944"/>
      </g>
     </g>
    </g>
    <g id="xtick_9">
     <g id="line2d_21">
      <path clip-path="url(#p5e558478d0)" d="M 218.221714 298.944 
L 218.221714 41.472 
" style="fill:none;stroke:#b0b0b0;stroke-linecap:square;stroke-width:0.8;"/>
     </g>
     <g id="line2d_22">
      <g>
       <use style="stroke:#000000;stroke-width:0.6;" x="218.221714" xlink:href="#mecdef87e85" y="298.944"/>
      </g>
     </g>
    </g>
    <g id="xtick_10">
     <g id="line2d_23">
      <path clip-path="url(#p5e558478d0)" d="M 258.377143 298.944 
L 258.377143 41.472 
" style="fill:none;stroke:#b0b0b0;stroke-linecap:square;stroke-width:0.8;"/>
     </g>
     <g id="line2d_24">
      <g>
       <use style="stroke:#000000;stroke-width:0.6;" x="258.377143" xlink:href="#mecdef87e85" y="298.944"/>
      </g>
     </g>
    </g>
    <g id="xtick_11">
     <g id="line2d_25">
      <path clip-path="url(#p5e558478d0)" d="M 298.532571 298.944 
L 298.532571 41.472 
" style="fill:none;stroke:#b0b0b0;stroke-linecap:square;stroke-width:0.8;"/>
     </g>
     <g id="line2d_26">
      <g>
       <use style="stroke:#000000;stroke-width:0.6;" x="298.532571" xlink:href="#mecdef87e85" y="298.944"/>
      </g>
     </g>
    </g>
    <g id="xtick_12">
     <g id="line2d_27">
      <path clip-path="url(#p5e558478d0)" d="M 338.688 298.944 
L 338.688 41.472 
" style="fill:none;stroke:#b0b0b0;stroke-linecap:square;stroke-width:0.8;"/>
     </g>
     <g id="line2d_28">
      <g>
       <use style="stroke:#000000;stroke-width:0.6;" x="338.688" xlink:href="#mecdef87e85" y="298.944"/>
      </g>
     </g>
    </g>
    <g id="text_5">
     <!-- log10(# f-evals / dimension) -->
     <defs>
      <path d="M 9.421875 75.984375 
L 18.40625 75.984375 
L 18.40625 0 
L 9.421875 0 
z
" id="DejaVuSans-108"/>
      <path d="M 30.609375 48.390625 
Q 23.390625 48.390625 19.1875 42.75 
Q 14.984375 37.109375 14.984375 27.296875 
Q 14.984375 17.484375 19.15625 11.84375 
Q 23.34375 6.203125 30.609375 6.203125 
Q 37.796875 6.203125 41.984375 11.859375 
Q 46.1875 17.53125 46.1875 27.296875 
Q 46.1875 37.015625 41.984375 42.703125 
Q 37.796875 48.390625 30.609375 48.390625 
z
M 30.609375 56 
Q 42.328125 56 49.015625 48.375 
Q 55.71875 40.765625 55.71875 27.296875 
Q 55.71875 13.875 49.015625 6.21875 
Q 42.328125 -1.421875 30.609375 -1.421875 
Q 18.84375 -1.421875 12.171875 6.21875 
Q 5.515625 13.875 5.515625 27.296875 
Q 5.515625 40.765625 12.171875 48.375 
Q 18.84375 56 30.609375 56 
z
" id="DejaVuSans-111"/>
      <path d="M 45.40625 27.984375 
Q 45.40625 37.75 41.375 43.109375 
Q 37.359375 48.484375 30.078125 48.484375 
Q 22.859375 48.484375 18.828125 43.109375 
Q 14.796875 37.75 14.796875 27.984375 
Q 14.796875 18.265625 18.828125 12.890625 
Q 22.859375 7.515625 30.078125 7.515625 
Q 37.359375 7.515625 41.375 12.890625 
Q 45.40625 18.265625 45.40625 27.984375 
z
M 54.390625 6.78125 
Q 54.390625 -7.171875 48.1875 -13.984375 
Q 42 -20.796875 29.203125 -20.796875 
Q 24.46875 -20.796875 20.265625 -20.09375 
Q 16.0625 -19.390625 12.109375 -17.921875 
L 12.109375 -9.1875 
Q 16.0625 -11.328125 19.921875 -12.34375 
Q 23.78125 -13.375 27.78125 -13.375 
Q 36.625 -13.375 41.015625 -8.765625 
Q 45.40625 -4.15625 45.40625 5.171875 
L 45.40625 9.625 
Q 42.625 4.78125 38.28125 2.390625 
Q 33.9375 0 27.875 0 
Q 17.828125 0 11.671875 7.65625 
Q 5.515625 15.328125 5.515625 27.984375 
Q 5.515625 40.671875 11.671875 48.328125 
Q 17.828125 56 27.875 56 
Q 33.9375 56 38.28125 53.609375 
Q 42.625 51.21875 45.40625 46.390625 
L 45.40625 54.6875 
L 54.390625 54.6875 
z
" id="DejaVuSans-103"/>
      <path d="M 12.40625 8.296875 
L 28.515625 8.296875 
L 28.515625 63.921875 
L 10.984375 60.40625 
L 10.984375 69.390625 
L 28.421875 72.90625 
L 38.28125 72.90625 
L 38.28125 8.296875 
L 54.390625 8.296875 
L 54.390625 0 
L 12.40625 0 
z
" id="DejaVuSans-49"/>
      <path d="M 31 75.875 
Q 24.46875 64.65625 21.28125 53.65625 
Q 18.109375 42.671875 18.109375 31.390625 
Q 18.109375 20.125 21.3125 9.0625 
Q 24.515625 -2 31 -13.1875 
L 23.1875 -13.1875 
Q 15.875 -1.703125 12.234375 9.375 
Q 8.59375 20.453125 8.59375 31.390625 
Q 8.59375 42.28125 12.203125 53.3125 
Q 15.828125 64.359375 23.1875 75.875 
z
" id="DejaVuSans-40"/>
      <path d="M 51.125 44 
L 36.921875 44 
L 32.8125 27.6875 
L 47.125 27.6875 
z
M 43.796875 71.78125 
L 38.71875 51.515625 
L 52.984375 51.515625 
L 58.109375 71.78125 
L 65.921875 71.78125 
L 60.890625 51.515625 
L 76.125 51.515625 
L 76.125 44 
L 58.984375 44 
L 54.984375 27.6875 
L 70.515625 27.6875 
L 70.515625 20.21875 
L 53.078125 20.21875 
L 48 0 
L 40.1875 0 
L 45.21875 20.21875 
L 30.90625 20.21875 
L 25.875 0 
L 18.015625 0 
L 23.09375 20.21875 
L 7.71875 20.21875 
L 7.71875 27.6875 
L 24.90625 27.6875 
L 29 44 
L 13.28125 44 
L 13.28125 51.515625 
L 30.90625 51.515625 
L 35.890625 71.78125 
z
" id="DejaVuSans-35"/>
      <path id="DejaVuSans-32"/>
      <path d="M 37.109375 75.984375 
L 37.109375 68.5 
L 28.515625 68.5 
Q 23.6875 68.5 21.796875 66.546875 
Q 19.921875 64.59375 19.921875 59.515625 
L 19.921875 54.6875 
L 34.71875 54.6875 
L 34.71875 47.703125 
L 19.921875 47.703125 
L 19.921875 0 
L 10.890625 0 
L 10.890625 47.703125 
L 2.296875 47.703125 
L 2.296875 54.6875 
L 10.890625 54.6875 
L 10.890625 58.5 
Q 10.890625 67.625 15.140625 71.796875 
Q 19.390625 75.984375 28.609375 75.984375 
z
" id="DejaVuSans-102"/>
      <path d="M 4.890625 31.390625 
L 31.203125 31.390625 
L 31.203125 23.390625 
L 4.890625 23.390625 
z
" id="DejaVuSans-45"/>
      <path d="M 56.203125 29.59375 
L 56.203125 25.203125 
L 14.890625 25.203125 
Q 15.484375 15.921875 20.484375 11.0625 
Q 25.484375 6.203125 34.421875 6.203125 
Q 39.59375 6.203125 44.453125 7.46875 
Q 49.3125 8.734375 54.109375 11.28125 
L 54.109375 2.78125 
Q 49.265625 0.734375 44.1875 -0.34375 
Q 39.109375 -1.421875 33.890625 -1.421875 
Q 20.796875 -1.421875 13.15625 6.1875 
Q 5.515625 13.8125 5.515625 26.8125 
Q 5.515625 40.234375 12.765625 48.109375 
Q 20.015625 56 32.328125 56 
Q 43.359375 56 49.78125 48.890625 
Q 56.203125 41.796875 56.203125 29.59375 
z
M 47.21875 32.234375 
Q 47.125 39.59375 43.09375 43.984375 
Q 39.0625 48.390625 32.421875 48.390625 
Q 24.90625 48.390625 20.390625 44.140625 
Q 15.875 39.890625 15.1875 32.171875 
z
" id="DejaVuSans-101"/>
      <path d="M 2.984375 54.6875 
L 12.5 54.6875 
L 29.59375 8.796875 
L 46.6875 54.6875 
L 56.203125 54.6875 
L 35.6875 0 
L 23.484375 0 
z
" id="DejaVuSans-118"/>
      <path d="M 34.28125 27.484375 
Q 23.390625 27.484375 19.1875 25 
Q 14.984375 22.515625 14.984375 16.5 
Q 14.984375 11.71875 18.140625 8.90625 
Q 21.296875 6.109375 26.703125 6.109375 
Q 34.1875 6.109375 38.703125 11.40625 
Q 43.21875 16.703125 43.21875 25.484375 
L 43.21875 27.484375 
z
M 52.203125 31.203125 
L 52.203125 0 
L 43.21875 0 
L 43.21875 8.296875 
Q 40.140625 3.328125 35.546875 0.953125 
Q 30.953125 -1.421875 24.3125 -1.421875 
Q 15.921875 -1.421875 10.953125 3.296875 
Q 6 8.015625 6 15.921875 
Q 6 25.140625 12.171875 29.828125 
Q 18.359375 34.515625 30.609375 34.515625 
L 43.21875 34.515625 
L 43.21875 35.40625 
Q 43.21875 41.609375 39.140625 45 
Q 35.0625 48.390625 27.6875 48.390625 
Q 23 48.390625 18.546875 47.265625 
Q 14.109375 46.140625 10.015625 43.890625 
L 10.015625 52.203125 
Q 14.9375 54.109375 19.578125 55.046875 
Q 24.21875 56 28.609375 56 
Q 40.484375 56 46.34375 49.84375 
Q 52.203125 43.703125 52.203125 31.203125 
z
" id="DejaVuSans-97"/>
      <path d="M 44.28125 53.078125 
L 44.28125 44.578125 
Q 40.484375 46.53125 36.375 47.5 
Q 32.28125 48.484375 27.875 48.484375 
Q 21.1875 48.484375 17.84375 46.4375 
Q 14.5 44.390625 14.5 40.28125 
Q 14.5 37.15625 16.890625 35.375 
Q 19.28125 33.59375 26.515625 31.984375 
L 29.59375 31.296875 
Q 39.15625 29.25 43.1875 25.515625 
Q 47.21875 21.78125 47.21875 15.09375 
Q 47.21875 7.46875 41.1875 3.015625 
Q 35.15625 -1.421875 24.609375 -1.421875 
Q 20.21875 -1.421875 15.453125 -0.5625 
Q 10.6875 0.296875 5.421875 2 
L 5.421875 11.28125 
Q 10.40625 8.6875 15.234375 7.390625 
Q 20.0625 6.109375 24.8125 6.109375 
Q 31.15625 6.109375 34.5625 8.28125 
Q 37.984375 10.453125 37.984375 14.40625 
Q 37.984375 18.0625 35.515625 20.015625 
Q 33.0625 21.96875 24.703125 23.78125 
L 21.578125 24.515625 
Q 13.234375 26.265625 9.515625 29.90625 
Q 5.8125 33.546875 5.8125 39.890625 
Q 5.8125 47.609375 11.28125 51.796875 
Q 16.75 56 26.8125 56 
Q 31.78125 56 36.171875 55.265625 
Q 40.578125 54.546875 44.28125 53.078125 
z
" id="DejaVuSans-115"/>
      <path d="M 25.390625 72.90625 
L 33.6875 72.90625 
L 8.296875 -9.28125 
L 0 -9.28125 
z
" id="DejaVuSans-47"/>
      <path d="M 45.40625 46.390625 
L 45.40625 75.984375 
L 54.390625 75.984375 
L 54.390625 0 
L 45.40625 0 
L 45.40625 8.203125 
Q 42.578125 3.328125 38.25 0.953125 
Q 33.9375 -1.421875 27.875 -1.421875 
Q 17.96875 -1.421875 11.734375 6.484375 
Q 5.515625 14.40625 5.515625 27.296875 
Q 5.515625 40.1875 11.734375 48.09375 
Q 17.96875 56 27.875 56 
Q 33.9375 56 38.25 53.625 
Q 42.578125 51.265625 45.40625 46.390625 
z
M 14.796875 27.296875 
Q 14.796875 17.390625 18.875 11.75 
Q 22.953125 6.109375 30.078125 6.109375 
Q 37.203125 6.109375 41.296875 11.75 
Q 45.40625 17.390625 45.40625 27.296875 
Q 45.40625 37.203125 41.296875 42.84375 
Q 37.203125 48.484375 30.078125 48.484375 
Q 22.953125 48.484375 18.875 42.84375 
Q 14.796875 37.203125 14.796875 27.296875 
z
" id="DejaVuSans-100"/>
      <path d="M 9.421875 54.6875 
L 18.40625 54.6875 
L 18.40625 0 
L 9.421875 0 
z
M 9.421875 75.984375 
L 18.40625 75.984375 
L 18.40625 64.59375 
L 9.421875 64.59375 
z
" id="DejaVuSans-105"/>
      <path d="M 52 44.1875 
Q 55.375 50.25 60.0625 53.125 
Q 64.75 56 71.09375 56 
Q 79.640625 56 84.28125 50.015625 
Q 88.921875 44.046875 88.921875 33.015625 
L 88.921875 0 
L 79.890625 0 
L 79.890625 32.71875 
Q 79.890625 40.578125 77.09375 44.375 
Q 74.3125 48.1875 68.609375 48.1875 
Q 61.625 48.1875 57.5625 43.546875 
Q 53.515625 38.921875 53.515625 30.90625 
L 53.515625 0 
L 44.484375 0 
L 44.484375 32.71875 
Q 44.484375 40.625 41.703125 44.40625 
Q 38.921875 48.1875 33.109375 48.1875 
Q 26.21875 48.1875 22.15625 43.53125 
Q 18.109375 38.875 18.109375 30.90625 
L 18.109375 0 
L 9.078125 0 
L 9.078125 54.6875 
L 18.109375 54.6875 
L 18.109375 46.1875 
Q 21.1875 51.21875 25.484375 53.609375 
Q 29.78125 56 35.6875 56 
Q 41.65625 56 45.828125 52.96875 
Q 50 49.953125 52 44.1875 
z
" id="DejaVuSans-109"/>
      <path d="M 54.890625 33.015625 
L 54.890625 0 
L 45.90625 0 
L 45.90625 32.71875 
Q 45.90625 40.484375 42.875 44.328125 
Q 39.84375 48.1875 33.796875 48.1875 
Q 26.515625 48.1875 22.3125 43.546875 
Q 18.109375 38.921875 18.109375 30.90625 
L 18.109375 0 
L 9.078125 0 
L 9.078125 54.6875 
L 18.109375 54.6875 
L 18.109375 46.1875 
Q 21.34375 51.125 25.703125 53.5625 
Q 30.078125 56 35.796875 56 
Q 45.21875 56 50.046875 50.171875 
Q 54.890625 44.34375 54.890625 33.015625 
z
" id="DejaVuSans-110"/>
      <path d="M 8.015625 75.875 
L 15.828125 75.875 
Q 23.140625 64.359375 26.78125 53.3125 
Q 30.421875 42.28125 30.421875 31.390625 
Q 30.421875 20.453125 26.78125 9.375 
Q 23.140625 -1.703125 15.828125 -13.1875 
L 8.015625 -13.1875 
Q 14.5 -2 17.703125 9.0625 
Q 20.90625 20.125 20.90625 31.390625 
Q 20.90625 42.671875 17.703125 53.65625 
Q 14.5 64.65625 8.015625 75.875 
z
" id="DejaVuSans-41"/>
     </defs>
     <g transform="translate(77.303219 342.217594)scale(0.17 -0.17)">
      <use xlink:href="#DejaVuSans-108"/>
      <use x="27.783203" xlink:href="#DejaVuSans-111"/>
      <use x="88.964844" xlink:href="#DejaVuSans-103"/>
      <use x="152.441406" xlink:href="#DejaVuSans-49"/>
      <use x="216.064453" xlink:href="#DejaVuSans-48"/>
      <use x="279.6875" xlink:href="#DejaVuSans-40"/>
      <use x="318.701172" xlink:href="#DejaVuSans-35"/>
      <use x="402.490234" xlink:href="#DejaVuSans-32"/>
      <use x="434.277344" xlink:href="#DejaVuSans-102"/>
      <use x="469.404297" xlink:href="#DejaVuSans-45"/>
      <use x="505.488281" xlink:href="#DejaVuSans-101"/>
      <use x="567.011719" xlink:href="#DejaVuSans-118"/>
      <use x="626.191406" xlink:href="#DejaVuSans-97"/>
      <use x="687.470703" xlink:href="#DejaVuSans-108"/>
      <use x="715.253906" xlink:href="#DejaVuSans-115"/>
      <use x="767.353516" xlink:href="#DejaVuSans-32"/>
      <use x="799.140625" xlink:href="#DejaVuSans-47"/>
      <use x="832.832031" xlink:href="#DejaVuSans-32"/>
      <use x="864.619141" xlink:href="#DejaVuSans-100"/>
      <use x="928.095703" xlink:href="#DejaVuSans-105"/>
      <use x="955.878906" xlink:href="#DejaVuSans-109"/>
      <use x="1053.291016" xlink:href="#DejaVuSans-101"/>
      <use x="1114.814453" xlink:href="#DejaVuSans-110"/>
      <use x="1178.193359" xlink:href="#DejaVuSans-115"/>
      <use x="1230.292969" xlink:href="#DejaVuSans-105"/>
      <use x="1258.076172" xlink:href="#DejaVuSans-111"/>
      <use x="1319.257812" xlink:href="#DejaVuSans-110"/>
      <use x="1382.636719" xlink:href="#DejaVuSans-41"/>
     </g>
    </g>
   </g>
   <g id="matplotlib.axis_2">
    <g id="ytick_1">
     <g id="line2d_29">
      <path clip-path="url(#p5e558478d0)" d="M 57.6 298.944 
L 338.688 298.944 
" style="fill:none;stroke:#b0b0b0;stroke-linecap:square;stroke-width:0.8;"/>
     </g>
     <g id="line2d_30">
      <defs>
       <path d="M 0 0 
L -3.5 0 
" id="m9f051b591d" style="stroke:#000000;stroke-width:0.8;"/>
      </defs>
      <g>
       <use style="stroke:#000000;stroke-width:0.8;" x="57.6" xlink:href="#m9f051b591d" y="298.944"/>
      </g>
     </g>
     <g id="text_6">
      <!-- 0.0 -->
      <defs>
       <path d="M 10.6875 12.40625 
L 21 12.40625 
L 21 0 
L 10.6875 0 
z
" id="DejaVuSans-46"/>
      </defs>
      <g transform="translate(25.155 305.02275)scale(0.16 -0.16)">
       <use xlink:href="#DejaVuSans-48"/>
       <use x="63.623047" xlink:href="#DejaVuSans-46"/>
       <use x="95.410156" xlink:href="#DejaVuSans-48"/>
      </g>
     </g>
    </g>
    <g id="ytick_2">
     <g id="line2d_31">
      <path clip-path="url(#p5e558478d0)" d="M 57.6 247.959446 
L 338.688 247.959446 
" style="fill:none;stroke:#b0b0b0;stroke-linecap:square;stroke-width:0.8;"/>
     </g>
     <g id="line2d_32">
      <g>
       <use style="stroke:#000000;stroke-width:0.8;" x="57.6" xlink:href="#m9f051b591d" y="247.959446"/>
      </g>
     </g>
     <g id="text_7">
      <!-- 0.2 -->
      <g transform="translate(25.155 254.038196)scale(0.16 -0.16)">
       <use xlink:href="#DejaVuSans-48"/>
       <use x="63.623047" xlink:href="#DejaVuSans-46"/>
       <use x="95.410156" xlink:href="#DejaVuSans-50"/>
      </g>
     </g>
    </g>
    <g id="ytick_3">
     <g id="line2d_33">
      <path clip-path="url(#p5e558478d0)" d="M 57.6 196.974891 
L 338.688 196.974891 
" style="fill:none;stroke:#b0b0b0;stroke-linecap:square;stroke-width:0.8;"/>
     </g>
     <g id="line2d_34">
      <g>
       <use style="stroke:#000000;stroke-width:0.8;" x="57.6" xlink:href="#m9f051b591d" y="196.974891"/>
      </g>
     </g>
     <g id="text_8">
      <!-- 0.4 -->
      <g transform="translate(25.155 203.053641)scale(0.16 -0.16)">
       <use xlink:href="#DejaVuSans-48"/>
       <use x="63.623047" xlink:href="#DejaVuSans-46"/>
       <use x="95.410156" xlink:href="#DejaVuSans-52"/>
      </g>
     </g>
    </g>
    <g id="ytick_4">
     <g id="line2d_35">
      <path clip-path="url(#p5e558478d0)" d="M 57.6 145.990337 
L 338.688 145.990337 
" style="fill:none;stroke:#b0b0b0;stroke-linecap:square;stroke-width:0.8;"/>
     </g>
     <g id="line2d_36">
      <g>
       <use style="stroke:#000000;stroke-width:0.8;" x="57.6" xlink:href="#m9f051b591d" y="145.990337"/>
      </g>
     </g>
     <g id="text_9">
      <!-- 0.6 -->
      <g transform="translate(25.155 152.069087)scale(0.16 -0.16)">
       <use xlink:href="#DejaVuSans-48"/>
       <use x="63.623047" xlink:href="#DejaVuSans-46"/>
       <use x="95.410156" xlink:href="#DejaVuSans-54"/>
      </g>
     </g>
    </g>
    <g id="ytick_5">
     <g id="line2d_37">
      <path clip-path="url(#p5e558478d0)" d="M 57.6 95.005782 
L 338.688 95.005782 
" style="fill:none;stroke:#b0b0b0;stroke-linecap:square;stroke-width:0.8;"/>
     </g>
     <g id="line2d_38">
      <g>
       <use style="stroke:#000000;stroke-width:0.8;" x="57.6" xlink:href="#m9f051b591d" y="95.005782"/>
      </g>
     </g>
     <g id="text_10">
      <!-- 0.8 -->
      <defs>
       <path d="M 31.78125 34.625 
Q 24.75 34.625 20.71875 30.859375 
Q 16.703125 27.09375 16.703125 20.515625 
Q 16.703125 13.921875 20.71875 10.15625 
Q 24.75 6.390625 31.78125 6.390625 
Q 38.8125 6.390625 42.859375 10.171875 
Q 46.921875 13.96875 46.921875 20.515625 
Q 46.921875 27.09375 42.890625 30.859375 
Q 38.875 34.625 31.78125 34.625 
z
M 21.921875 38.8125 
Q 15.578125 40.375 12.03125 44.71875 
Q 8.5 49.078125 8.5 55.328125 
Q 8.5 64.0625 14.71875 69.140625 
Q 20.953125 74.21875 31.78125 74.21875 
Q 42.671875 74.21875 48.875 69.140625 
Q 55.078125 64.0625 55.078125 55.328125 
Q 55.078125 49.078125 51.53125 44.71875 
Q 48 40.375 41.703125 38.8125 
Q 48.828125 37.15625 52.796875 32.3125 
Q 56.78125 27.484375 56.78125 20.515625 
Q 56.78125 9.90625 50.3125 4.234375 
Q 43.84375 -1.421875 31.78125 -1.421875 
Q 19.734375 -1.421875 13.25 4.234375 
Q 6.78125 9.90625 6.78125 20.515625 
Q 6.78125 27.484375 10.78125 32.3125 
Q 14.796875 37.15625 21.921875 38.8125 
z
M 18.3125 54.390625 
Q 18.3125 48.734375 21.84375 45.5625 
Q 25.390625 42.390625 31.78125 42.390625 
Q 38.140625 42.390625 41.71875 45.5625 
Q 45.3125 48.734375 45.3125 54.390625 
Q 45.3125 60.0625 41.71875 63.234375 
Q 38.140625 66.40625 31.78125 66.40625 
Q 25.390625 66.40625 21.84375 63.234375 
Q 18.3125 60.0625 18.3125 54.390625 
z
" id="DejaVuSans-56"/>
      </defs>
      <g transform="translate(25.155 101.084532)scale(0.16 -0.16)">
       <use xlink:href="#DejaVuSans-48"/>
       <use x="63.623047" xlink:href="#DejaVuSans-46"/>
       <use x="95.410156" xlink:href="#DejaVuSans-56"/>
      </g>
     </g>
    </g>
    <g id="ytick_6">
     <g id="line2d_39">
      <path clip-path="url(#p5e558478d0)" d="M 57.6 44.021228 
L 338.688 44.021228 
" style="fill:none;stroke:#b0b0b0;stroke-linecap:square;stroke-width:0.8;"/>
     </g>
     <g id="line2d_40">
      <g>
       <use style="stroke:#000000;stroke-width:0.8;" x="57.6" xlink:href="#m9f051b591d" y="44.021228"/>
      </g>
     </g>
     <g id="text_11">
      <!-- 1.0 -->
      <g transform="translate(25.155 50.099978)scale(0.16 -0.16)">
       <use xlink:href="#DejaVuSans-49"/>
       <use x="63.623047" xlink:href="#DejaVuSans-46"/>
       <use x="95.410156" xlink:href="#DejaVuSans-48"/>
      </g>
     </g>
    </g>
    <g id="text_12">
     <!-- Fraction of function,target pairs -->
     <defs>
      <path d="M 9.8125 72.90625 
L 51.703125 72.90625 
L 51.703125 64.59375 
L 19.671875 64.59375 
L 19.671875 43.109375 
L 48.578125 43.109375 
L 48.578125 34.8125 
L 19.671875 34.8125 
L 19.671875 0 
L 9.8125 0 
z
" id="DejaVuSans-70"/>
      <path d="M 41.109375 46.296875 
Q 39.59375 47.171875 37.8125 47.578125 
Q 36.03125 48 33.890625 48 
Q 26.265625 48 22.1875 43.046875 
Q 18.109375 38.09375 18.109375 28.8125 
L 18.109375 0 
L 9.078125 0 
L 9.078125 54.6875 
L 18.109375 54.6875 
L 18.109375 46.1875 
Q 20.953125 51.171875 25.484375 53.578125 
Q 30.03125 56 36.53125 56 
Q 37.453125 56 38.578125 55.875 
Q 39.703125 55.765625 41.0625 55.515625 
z
" id="DejaVuSans-114"/>
      <path d="M 48.78125 52.59375 
L 48.78125 44.1875 
Q 44.96875 46.296875 41.140625 47.34375 
Q 37.3125 48.390625 33.40625 48.390625 
Q 24.65625 48.390625 19.8125 42.84375 
Q 14.984375 37.3125 14.984375 27.296875 
Q 14.984375 17.28125 19.8125 11.734375 
Q 24.65625 6.203125 33.40625 6.203125 
Q 37.3125 6.203125 41.140625 7.25 
Q 44.96875 8.296875 48.78125 10.40625 
L 48.78125 2.09375 
Q 45.015625 0.34375 40.984375 -0.53125 
Q 36.96875 -1.421875 32.421875 -1.421875 
Q 20.0625 -1.421875 12.78125 6.34375 
Q 5.515625 14.109375 5.515625 27.296875 
Q 5.515625 40.671875 12.859375 48.328125 
Q 20.21875 56 33.015625 56 
Q 37.15625 56 41.109375 55.140625 
Q 45.0625 54.296875 48.78125 52.59375 
z
" id="DejaVuSans-99"/>
      <path d="M 18.3125 70.21875 
L 18.3125 54.6875 
L 36.8125 54.6875 
L 36.8125 47.703125 
L 18.3125 47.703125 
L 18.3125 18.015625 
Q 18.3125 11.328125 20.140625 9.421875 
Q 21.96875 7.515625 27.59375 7.515625 
L 36.8125 7.515625 
L 36.8125 0 
L 27.59375 0 
Q 17.1875 0 13.234375 3.875 
Q 9.28125 7.765625 9.28125 18.015625 
L 9.28125 47.703125 
L 2.6875 47.703125 
L 2.6875 54.6875 
L 9.28125 54.6875 
L 9.28125 70.21875 
z
" id="DejaVuSans-116"/>
      <path d="M 8.5 21.578125 
L 8.5 54.6875 
L 17.484375 54.6875 
L 17.484375 21.921875 
Q 17.484375 14.15625 20.5 10.265625 
Q 23.53125 6.390625 29.59375 6.390625 
Q 36.859375 6.390625 41.078125 11.03125 
Q 45.3125 15.671875 45.3125 23.6875 
L 45.3125 54.6875 
L 54.296875 54.6875 
L 54.296875 0 
L 45.3125 0 
L 45.3125 8.40625 
Q 42.046875 3.421875 37.71875 1 
Q 33.40625 -1.421875 27.6875 -1.421875 
Q 18.265625 -1.421875 13.375 4.4375 
Q 8.5 10.296875 8.5 21.578125 
z
M 31.109375 56 
z
" id="DejaVuSans-117"/>
      <path d="M 11.71875 12.40625 
L 22.015625 12.40625 
L 22.015625 4 
L 14.015625 -11.625 
L 7.71875 -11.625 
L 11.71875 4 
z
" id="DejaVuSans-44"/>
      <path d="M 18.109375 8.203125 
L 18.109375 -20.796875 
L 9.078125 -20.796875 
L 9.078125 54.6875 
L 18.109375 54.6875 
L 18.109375 46.390625 
Q 20.953125 51.265625 25.265625 53.625 
Q 29.59375 56 35.59375 56 
Q 45.5625 56 51.78125 48.09375 
Q 58.015625 40.1875 58.015625 27.296875 
Q 58.015625 14.40625 51.78125 6.484375 
Q 45.5625 -1.421875 35.59375 -1.421875 
Q 29.59375 -1.421875 25.265625 0.953125 
Q 20.953125 3.328125 18.109375 8.203125 
z
M 48.6875 27.296875 
Q 48.6875 37.203125 44.609375 42.84375 
Q 40.53125 48.484375 33.40625 48.484375 
Q 26.265625 48.484375 22.1875 42.84375 
Q 18.109375 37.203125 18.109375 27.296875 
Q 18.109375 17.390625 22.1875 11.75 
Q 26.265625 6.109375 33.40625 6.109375 
Q 40.53125 6.109375 44.609375 11.75 
Q 48.6875 17.390625 48.6875 27.296875 
z
" id="DejaVuSans-112"/>
     </defs>
     <g transform="translate(17.619531 305.347375)rotate(-90)scale(0.17 -0.17)">
      <use xlink:href="#DejaVuSans-70"/>
      <use x="57.410156" xlink:href="#DejaVuSans-114"/>
      <use x="98.523438" xlink:href="#DejaVuSans-97"/>
      <use x="159.802734" xlink:href="#DejaVuSans-99"/>
      <use x="214.783203" xlink:href="#DejaVuSans-116"/>
      <use x="253.992188" xlink:href="#DejaVuSans-105"/>
      <use x="281.775391" xlink:href="#DejaVuSans-111"/>
      <use x="342.957031" xlink:href="#DejaVuSans-110"/>
      <use x="406.335938" xlink:href="#DejaVuSans-32"/>
      <use x="438.123047" xlink:href="#DejaVuSans-111"/>
      <use x="499.304688" xlink:href="#DejaVuSans-102"/>
      <use x="534.509766" xlink:href="#DejaVuSans-32"/>
      <use x="566.296875" xlink:href="#DejaVuSans-102"/>
      <use x="601.501953" xlink:href="#DejaVuSans-117"/>
      <use x="664.880859" xlink:href="#DejaVuSans-110"/>
      <use x="728.259766" xlink:href="#DejaVuSans-99"/>
      <use x="783.240234" xlink:href="#DejaVuSans-116"/>
      <use x="822.449219" xlink:href="#DejaVuSans-105"/>
      <use x="850.232422" xlink:href="#DejaVuSans-111"/>
      <use x="911.414062" xlink:href="#DejaVuSans-110"/>
      <use x="974.792969" xlink:href="#DejaVuSans-44"/>
      <use x="1006.580078" xlink:href="#DejaVuSans-116"/>
      <use x="1045.789062" xlink:href="#DejaVuSans-97"/>
      <use x="1107.068359" xlink:href="#DejaVuSans-114"/>
      <use x="1148.166016" xlink:href="#DejaVuSans-103"/>
      <use x="1211.642578" xlink:href="#DejaVuSans-101"/>
      <use x="1273.166016" xlink:href="#DejaVuSans-116"/>
      <use x="1312.375" xlink:href="#DejaVuSans-32"/>
      <use x="1344.162109" xlink:href="#DejaVuSans-112"/>
      <use x="1407.638672" xlink:href="#DejaVuSans-97"/>
      <use x="1468.917969" xlink:href="#DejaVuSans-105"/>
      <use x="1496.701172" xlink:href="#DejaVuSans-114"/>
      <use x="1537.814453" xlink:href="#DejaVuSans-115"/>
     </g>
    </g>
   </g>
   <g id="line2d_41">
    <defs>
     <path d="M 0 1.5 
C 0.397805 1.5 0.77937 1.341951 1.06066 1.06066 
C 1.341951 0.77937 1.5 0.397805 1.5 0 
C 1.5 -0.397805 1.341951 -0.77937 1.06066 -1.06066 
C 0.77937 -1.341951 0.397805 -1.5 0 -1.5 
C -0.397805 -1.5 -0.77937 -1.341951 -1.06066 -1.06066 
C -1.341951 -0.77937 -1.5 -0.397805 -1.5 0 
C -1.5 0.397805 -1.341951 0.77937 -1.06066 1.06066 
C -0.77937 1.341951 -0.397805 1.5 0 1.5 
z
" id="m71dcfefea6" style="stroke:#f5deb3;"/>
    </defs>
    <g>
     <use style="fill:#f5deb3;stroke:#f5deb3;" x="220.056911" xlink:href="#m71dcfefea6" y="44.021228"/>
     <use style="fill:#f5deb3;stroke:#f5deb3;" x="220.056911" xlink:href="#m71dcfefea6" y="44.021228"/>
    </g>
   </g>
   <g id="line2d_42">
    <defs>
     <path d="M 0 1.5 
C 0.397805 1.5 0.77937 1.341951 1.06066 1.06066 
C 1.341951 0.77937 1.5 0.397805 1.5 0 
C 1.5 -0.397805 1.341951 -0.77937 1.06066 -1.06066 
C 0.77937 -1.341951 0.397805 -1.5 0 -1.5 
C -0.397805 -1.5 -0.77937 -1.341951 -1.06066 -1.06066 
C -1.341951 -0.77937 -1.5 -0.397805 -1.5 0 
C -1.5 0.397805 -1.341951 0.77937 -1.06066 1.06066 
C -0.77937 1.341951 -0.397805 1.5 0 1.5 
z
" id="meb81a5ef65" style="stroke:#000080;"/>
    </defs>
    <g>
     <use style="fill:#000080;stroke:#000080;" x="224.644655" xlink:href="#meb81a5ef65" y="44.021228"/>
     <use style="fill:#000080;stroke:#000080;" x="224.644655" xlink:href="#meb81a5ef65" y="44.021228"/>
    </g>
   </g>
   <g id="line2d_43">
    <path d="M 5.356583 298.944 
L 5.356583 292.445969 
L 17.444571 292.445969 
L 17.444571 291.446271 
L 29.53256 291.446271 
L 29.53256 290.446574 
L 33.424023 290.446574 
L 33.424023 289.446877 
L 36.60358 289.446877 
L 36.60358 287.947331 
L 47.174153 287.947331 
L 47.174153 287.447483 
L 53.708537 287.447483 
L 53.708537 286.947634 
L 58.450865 286.947634 
L 58.450865 286.447786 
L 63.467834 286.447786 
L 63.467834 285.448089 
L 66.853775 285.448089 
L 66.853775 284.94824 
L 92.147241 284.94824 
L 92.147241 284.448391 
L 98.355365 284.448391 
L 98.355365 283.948543 
L 105.341933 283.948543 
L 105.341933 283.448694 
L 109.886961 283.448694 
L 109.886961 282.948846 
L 123.94666 282.948846 
L 123.94666 282.448997 
L 128.560901 282.448997 
L 128.560901 281.949149 
L 131.197999 281.949149 
L 131.197999 281.4493 
L 131.515432 281.4493 
L 131.515432 280.949451 
L 131.814826 280.949451 
L 131.814826 279.949754 
L 132.230358 279.949754 
L 132.230358 279.449906 
L 135.056115 279.449906 
L 135.056115 278.950057 
L 135.552244 278.950057 
L 135.552244 278.450209 
L 136.313991 278.450209 
L 136.342635 276.950663 
L 136.494612 276.950663 
L 136.570107 275.451117 
L 136.607732 275.451117 
L 136.607732 274.951268 
L 137.080471 274.951268 
L 137.171681 273.451723 
L 137.549637 273.451723 
L 137.549637 272.951874 
L 137.68266 272.951874 
L 137.68266 272.452026 
L 137.919575 272.452026 
L 137.919575 271.952177 
L 138.54446 271.952177 
L 138.645071 270.95248 
L 139.9494 270.95248 
L 139.9494 270.452631 
L 140.596643 270.452631 
L 140.596643 269.952783 
L 140.715835 269.952783 
L 140.715835 269.452934 
L 141.941279 269.452934 
L 141.941279 268.453237 
L 142.44601 268.453237 
L 142.472881 267.45354 
L 143.027814 267.45354 
L 143.099194 264.954297 
L 144.888619 264.954297 
L 144.888619 263.9546 
L 145.074639 263.9546 
L 145.074639 263.454751 
L 146.036391 263.454751 
L 146.036391 262.455054 
L 149.89828 262.455054 
L 149.89828 261.955206 
L 154.361716 261.955206 
L 154.361716 261.455357 
L 163.36427 261.455357 
L 163.36427 260.955508 
L 164.849071 260.955508 
L 164.849071 258.956114 
L 165.175324 258.956114 
L 165.175324 258.456266 
L 165.602827 258.456266 
L 165.602827 257.956417 
L 166.321931 257.956417 
L 166.321931 257.456568 
L 166.829163 257.456568 
L 166.829163 256.95672 
L 167.594401 256.95672 
L 167.594401 256.456871 
L 168.145145 256.456871 
L 168.151304 254.957326 
L 168.578658 254.957326 
L 168.653615 253.45778 
L 169.207196 253.45778 
L 169.309784 252.458083 
L 169.626715 252.458083 
L 169.626715 251.958234 
L 169.836245 251.958234 
L 169.919913 249.95884 
L 170.098453 249.95884 
L 170.098453 249.458991 
L 171.056197 249.458991 
L 171.132927 246.959748 
L 171.400774 246.959748 
L 171.400774 246.4599 
L 171.606572 246.4599 
L 171.606572 245.960051 
L 178.281203 245.960051 
L 178.281203 245.460203 
L 179.530722 245.460203 
L 179.530722 244.960354 
L 179.845353 244.960354 
L 179.845353 243.960657 
L 180.417742 243.960657 
L 180.453518 241.961263 
L 180.695168 241.961263 
L 180.695168 241.461414 
L 180.858638 241.461414 
L 180.880912 240.461717 
L 181.038247 240.461717 
L 181.13943 238.462323 
L 181.306049 238.462323 
L 181.411454 236.962777 
L 181.527668 236.962777 
L 181.527668 236.462928 
L 181.645244 236.462928 
L 181.674337 235.463231 
L 181.86823 235.463231 
L 181.936111 233.463837 
L 182.229762 233.463837 
L 182.281879 232.46414 
L 182.516524 232.46414 
L 182.516524 231.964291 
L 182.816585 231.964291 
L 182.816585 231.464443 
L 183.647137 231.464443 
L 183.647137 230.964594 
L 183.96772 230.964594 
L 183.96772 230.464745 
L 184.097777 230.464745 
L 184.097777 229.964897 
L 185.618894 229.964897 
L 185.671968 227.965503 
L 185.86929 227.965503 
L 185.86929 226.965805 
L 188.270296 226.965805 
L 188.270296 225.966108 
L 188.486552 225.966108 
L 188.590344 223.466865 
L 188.638919 223.466865 
L 188.739921 221.96732 
L 188.77157 221.96732 
L 188.826702 220.467774 
L 188.932705 220.467774 
L 188.971474 218.968228 
L 189.044109 218.968228 
L 189.134016 214.469591 
L 189.15619 214.469591 
L 189.15619 213.469894 
L 189.609598 213.469894 
L 189.609598 212.970045 
L 189.742684 212.970045 
L 189.742684 211.970348 
L 189.862352 211.970348 
L 189.862352 211.4705 
L 190.369192 211.4705 
L 190.369192 210.470803 
L 190.598076 210.470803 
L 190.598076 209.970954 
L 190.979377 209.970954 
L 190.979377 209.471105 
L 191.690318 209.471105 
L 191.690318 208.971257 
L 194.275118 208.971257 
L 194.303666 207.471711 
L 196.767068 207.471711 
L 196.820101 205.472317 
L 196.879497 205.472317 
L 196.962903 203.972771 
L 197.019463 203.972771 
L 197.073495 202.473225 
L 197.140216 202.473225 
L 197.206973 200.473831 
L 197.269708 200.473831 
L 197.358485 198.474437 
L 197.416079 198.474437 
L 197.500684 196.974891 
L 197.591996 196.974891 
L 197.611623 194.975497 
L 197.896974 194.975497 
L 197.995142 192.476254 
L 198.074775 192.476254 
L 198.130055 191.476557 
L 198.208527 191.476557 
L 198.312336 187.477768 
L 198.349982 187.477768 
L 198.445098 183.47898 
L 198.474073 183.47898 
L 198.488137 182.479282 
L 198.600242 182.479282 
L 198.633251 180.979737 
L 198.751887 180.979737 
L 198.751887 180.479888 
L 201.07089 180.479888 
L 201.07089 179.98004 
L 201.732188 179.98004 
L 201.828887 176.980948 
L 201.851194 176.980948 
L 201.920168 173.482008 
L 201.967623 173.482008 
L 201.967623 172.482311 
L 202.118441 172.482311 
L 202.118441 171.982462 
L 202.706879 171.982462 
L 202.706879 171.482614 
L 202.958703 171.482614 
L 202.958703 170.982765 
L 206.331754 170.982765 
L 206.436102 168.983371 
L 206.473084 168.983371 
L 206.501623 167.483825 
L 206.633626 167.483825 
L 206.744106 164.484734 
L 206.823575 164.484734 
L 206.823575 162.985188 
L 207.964684 162.985188 
L 207.989004 161.985491 
L 208.086413 161.985491 
L 208.167614 160.985794 
L 208.198005 160.985794 
L 208.283469 158.9864 
L 208.343952 158.9864 
L 208.439404 152.988217 
L 208.479391 152.988217 
L 208.587747 146.990034 
L 209.470398 146.990034 
L 209.506655 145.490488 
L 210.027421 145.490488 
L 210.06574 143.491094 
L 210.145176 143.491094 
L 210.239142 140.991851 
L 210.264618 140.991851 
L 210.375046 136.993062 
L 210.421204 136.993062 
L 210.528478 132.494425 
L 210.552724 132.494425 
L 210.578018 131.494728 
L 211.026478 131.494728 
L 211.124603 128.495637 
L 211.298086 128.495637 
L 211.298086 127.995788 
L 211.754295 127.995788 
L 211.834214 126.496242 
L 211.928411 126.496242 
L 211.993461 124.496848 
L 212.339941 124.496848 
L 212.424766 121.497757 
L 212.454649 121.497757 
L 212.545804 117.498968 
L 212.578855 117.498968 
L 212.612204 114.999725 
L 213.549747 114.999725 
L 213.633666 113.000331 
L 213.663474 113.000331 
L 213.726211 111.000937 
L 214.773947 111.000937 
L 214.85367 110.001239 
L 215.377445 110.001239 
L 215.483868 105.002754 
L 215.489784 105.002754 
L 215.593195 100.504116 
L 216.854107 100.504116 
L 216.854107 100.004268 
L 217.003418 100.004268 
L 217.072475 93.506236 
L 219.46167 93.506236 
L 219.550937 91.006994 
L 219.610947 91.006994 
L 219.681821 88.507751 
L 220.82185 88.507751 
L 220.903164 86.508356 
L 221.003439 86.508356 
L 221.090571 84.009114 
L 221.117328 84.009114 
L 221.218439 81.010022 
L 221.233559 81.010022 
L 221.325902 77.011234 
L 222.023168 77.011234 
L 222.104456 73.512294 
L 222.138133 73.512294 
L 222.179808 72.012748 
L 222.620262 72.012748 
L 222.724433 68.013959 
L 222.749 68.013959 
L 222.858758 64.515019 
L 222.884338 64.515019 
L 222.964309 61.016079 
L 223.438586 61.016079 
L 223.489006 56.517442 
L 224.380768 56.517442 
L 224.468687 51.518956 
L 224.504546 51.518956 
L 224.57562 48.020016 
L 224.62111 48.020016 
L 224.644655 44.021228 
L 338.688 44.021228 
L 338.688 44.021228 
" style="fill:none;stroke:#000080;stroke-linecap:square;stroke-width:1.5;"/>
   </g>
   <g id="line2d_44">
    <defs>
     <path d="M 0 6 
C 1.591219 6 3.117479 5.367802 4.242641 4.242641 
C 5.367802 3.117479 6 1.591219 6 0 
C 6 -1.591219 5.367802 -3.117479 4.242641 -4.242641 
C 3.117479 -5.367802 1.591219 -6 0 -6 
C -1.591219 -6 -3.117479 -5.367802 -4.242641 -4.242641 
C -5.367802 -3.117479 -6 -1.591219 -6 0 
C -6 1.591219 -5.367802 3.117479 -4.242641 4.242641 
C -3.117479 5.367802 -1.591219 6 0 6 
z
" id="m6bbb706f12" style="stroke:#000080;stroke-width:1.5;"/>
    </defs>
    <g>
     <use style="fill-opacity:0;stroke:#000080;stroke-width:1.5;" x="66.853775" xlink:href="#m6bbb706f12" y="285.448089"/>
     <use style="fill-opacity:0;stroke:#000080;stroke-width:1.5;" x="149.89828" xlink:href="#m6bbb706f12" y="262.455054"/>
     <use style="fill-opacity:0;stroke:#000080;stroke-width:1.5;" x="206.436102" xlink:href="#m6bbb706f12" y="169.983068"/>
     <use style="fill-opacity:0;stroke:#000080;stroke-width:1.5;" x="224.644655" xlink:href="#m6bbb706f12" y="45.020925"/>
     <use style="fill-opacity:0;stroke:#000080;stroke-width:1.5;" x="224.644655" xlink:href="#m6bbb706f12" y="44.021228"/>
     <use style="fill-opacity:0;stroke:#000080;stroke-width:1.5;" x="338.688" xlink:href="#m6bbb706f12" y="44.021228"/>
    </g>
   </g>
   <g id="line2d_45">
    <path style="fill:none;stroke:#000080;stroke-linecap:square;stroke-width:1.5;"/>
    <g/>
   </g>
   <g id="line2d_46">
    <defs>
     <path d="M 0 1.5 
C 0.397805 1.5 0.77937 1.341951 1.06066 1.06066 
C 1.341951 0.77937 1.5 0.397805 1.5 0 
C 1.5 -0.397805 1.341951 -0.77937 1.06066 -1.06066 
C 0.77937 -1.341951 0.397805 -1.5 0 -1.5 
C -0.397805 -1.5 -0.77937 -1.341951 -1.06066 -1.06066 
C -1.341951 -0.77937 -1.5 -0.397805 -1.5 0 
C -1.5 0.397805 -1.341951 0.77937 -1.06066 1.06066 
C -0.77937 1.341951 -0.397805 1.5 0 1.5 
z
" id="m525faf981f" style="stroke:#ff00ff;"/>
    </defs>
    <g>
     <use style="fill:#ff00ff;stroke:#ff00ff;" x="238.558006" xlink:href="#m525faf981f" y="44.021228"/>
     <use style="fill:#ff00ff;stroke:#ff00ff;" x="238.558006" xlink:href="#m525faf981f" y="44.021228"/>
    </g>
   </g>
   <g id="line2d_47">
    <path d="M 5.356583 298.944 
L 5.356583 292.945817 
L 17.444571 292.945817 
L 17.444571 291.94612 
L 24.515591 291.94612 
L 24.515591 291.446271 
L 33.424023 291.446271 
L 33.424023 289.946726 
L 41.620548 289.946726 
L 41.620548 288.947029 
L 45.512012 288.947029 
L 45.512012 288.44718 
L 51.379845 288.44718 
L 51.379845 287.947331 
L 60.037348 287.947331 
L 60.037348 287.447483 
L 62.833608 287.447483 
L 62.833608 286.947634 
L 72.125336 286.947634 
L 72.125336 286.447786 
L 72.867545 286.447786 
L 72.867545 285.947937 
L 80.881459 285.947937 
L 80.881459 285.448089 
L 91.410261 285.448089 
L 91.410261 284.448391 
L 96.952455 284.448391 
L 96.952455 283.948543 
L 117.737599 283.948543 
L 117.737599 282.948846 
L 122.148045 282.948846 
L 122.148045 282.448997 
L 126.168212 282.448997 
L 126.168212 281.949149 
L 128.184228 281.949149 
L 128.184228 281.4493 
L 128.441249 281.4493 
L 128.441249 279.949754 
L 129.06046 279.949754 
L 129.074938 276.950663 
L 130.7305 276.950663 
L 130.7305 276.450814 
L 132.157744 276.450814 
L 132.157744 275.950966 
L 132.905511 275.950966 
L 132.905511 274.951268 
L 134.545457 274.951268 
L 134.545457 274.45142 
L 135.086899 274.45142 
L 135.086899 273.951571 
L 135.661706 273.951571 
L 135.661706 272.951874 
L 137.244307 272.951874 
L 137.244307 272.452026 
L 137.496142 272.452026 
L 137.496142 271.952177 
L 138.101642 271.952177 
L 138.101642 271.452328 
L 138.239095 271.452328 
L 138.239095 270.95248 
L 139.389719 270.95248 
L 139.389719 270.452631 
L 140.080785 270.452631 
L 140.080785 269.452934 
L 141.133958 269.452934 
L 141.133958 268.953086 
L 141.292695 268.953086 
L 141.292695 267.953388 
L 141.941279 267.953388 
L 141.941279 267.45354 
L 142.871056 267.45354 
L 142.871056 266.453843 
L 143.014805 266.453843 
L 143.014805 265.953994 
L 144.444697 265.953994 
L 144.444697 265.454146 
L 145.943118 265.454146 
L 146.019967 263.9546 
L 147.19538 263.9546 
L 147.19538 263.454751 
L 147.704998 263.454751 
L 147.704998 262.954903 
L 150.484675 262.954903 
L 150.484675 261.955206 
L 160.877419 261.955206 
L 160.877419 261.455357 
L 161.582595 261.455357 
L 161.582595 260.955508 
L 162.837761 260.955508 
L 162.837761 260.45566 
L 163.853692 260.45566 
L 163.853692 259.455963 
L 164.527973 259.455963 
L 164.527973 258.956114 
L 164.850932 258.956114 
L 164.906654 257.456568 
L 165.120455 257.456568 
L 165.230021 256.456871 
L 165.939889 256.456871 
L 165.939889 255.957023 
L 166.53268 255.957023 
L 166.554628 253.957628 
L 166.653892 253.957628 
L 166.653892 252.957931 
L 167.244384 252.957931 
L 167.322057 250.958537 
L 167.426692 250.958537 
L 167.426692 250.458688 
L 167.618229 250.458688 
L 167.618229 249.95884 
L 168.007528 249.95884 
L 168.067966 248.959143 
L 168.157462 248.959143 
L 168.157462 248.459294 
L 168.720801 248.459294 
L 168.737185 246.4599 
L 169.197048 246.4599 
L 169.197048 244.960354 
L 169.541624 244.960354 
L 169.541624 244.460506 
L 169.812465 244.460506 
L 169.812465 243.960657 
L 171.233852 243.960657 
L 171.259637 242.96096 
L 171.773733 242.96096 
L 171.773733 242.461111 
L 171.920711 242.461111 
L 171.920711 240.961566 
L 173.719878 240.961566 
L 173.719878 239.961868 
L 177.684578 239.961868 
L 177.721082 238.462323 
L 177.845155 238.462323 
L 177.845155 237.962474 
L 177.980623 237.962474 
L 177.980623 237.462626 
L 178.172342 237.462626 
L 178.244992 235.96308 
L 178.430426 235.96308 
L 178.430426 234.963383 
L 178.938729 234.963383 
L 179.000825 232.963988 
L 179.298281 232.963988 
L 179.298281 232.46414 
L 179.67285 232.46414 
L 179.67285 231.464443 
L 179.799624 231.464443 
L 179.83984 229.964897 
L 180.141252 229.964897 
L 180.141252 229.465048 
L 180.819962 229.465048 
L 180.923155 228.465351 
L 181.096242 228.465351 
L 181.096242 227.465654 
L 181.305325 227.465654 
L 181.371821 225.966108 
L 181.604716 225.966108 
L 181.604716 225.46626 
L 181.726724 225.46626 
L 181.835947 223.466865 
L 182.193325 223.466865 
L 182.193325 222.967017 
L 183.393299 222.967017 
L 183.393299 222.467168 
L 183.712862 222.467168 
L 183.712862 221.96732 
L 184.081727 221.96732 
L 184.184559 220.467774 
L 184.770149 220.467774 
L 184.770149 219.468077 
L 189.941972 219.468077 
L 190.048446 215.969137 
L 190.137263 215.969137 
L 190.194773 214.469591 
L 190.283283 214.469591 
L 190.38985 211.970348 
L 190.4006 211.970348 
L 190.449536 210.470803 
L 190.526099 210.470803 
L 190.555948 208.471408 
L 190.720057 208.471408 
L 190.79166 205.472317 
L 190.872179 205.472317 
L 190.980624 203.472923 
L 190.983535 203.472923 
L 191.000572 201.973377 
L 191.163037 201.973377 
L 191.229569 198.474437 
L 191.290948 198.474437 
L 191.388301 194.975497 
L 191.413467 194.975497 
L 191.498438 189.977011 
L 191.527476 189.977011 
L 191.562901 187.477768 
L 191.776735 187.477768 
L 191.874581 183.978828 
L 191.991904 183.978828 
L 191.991904 182.979131 
L 192.155152 182.979131 
L 192.155152 181.979434 
L 192.313419 181.979434 
L 192.313419 180.979737 
L 192.703104 180.979737 
L 192.799273 179.98004 
L 192.872546 179.98004 
L 192.956282 178.480494 
L 193.024832 178.480494 
L 193.05956 176.980948 
L 193.211327 176.980948 
L 193.234362 175.481402 
L 193.322565 175.481402 
L 193.322565 174.981554 
L 193.435987 174.981554 
L 193.537548 173.482008 
L 193.702668 173.482008 
L 193.803399 171.982462 
L 193.867648 171.982462 
L 193.867648 171.482614 
L 194.197494 171.482614 
L 194.254108 170.482917 
L 196.697703 170.482917 
L 196.697703 169.983068 
L 196.829618 169.983068 
L 196.829618 169.48322 
L 196.941942 169.48322 
L 196.993857 168.483522 
L 197.084633 168.483522 
L 197.113909 166.983977 
L 197.219189 166.983977 
L 197.278403 164.484734 
L 197.330484 164.484734 
L 197.330484 163.984885 
L 197.501256 163.984885 
L 197.60878 161.985491 
L 197.715646 161.985491 
L 197.715646 161.485642 
L 197.982345 161.485642 
L 197.982345 160.485945 
L 200.791701 160.485945 
L 200.830509 158.486551 
L 200.925978 158.486551 
L 201.01321 155.987308 
L 201.037286 155.987308 
L 201.142781 153.987914 
L 201.15601 153.987914 
L 201.237252 151.98852 
L 201.276004 151.98852 
L 201.365634 148.989428 
L 201.40959 148.989428 
L 201.4974 145.990337 
L 201.52695 145.990337 
L 201.626597 139.992154 
L 201.718715 139.992154 
L 201.718715 139.492305 
L 202.718973 139.492305 
L 202.718973 138.992457 
L 203.983691 138.992457 
L 203.983691 137.992759 
L 204.097344 137.992759 
L 204.137281 136.493214 
L 204.277314 136.493214 
L 204.373457 133.993971 
L 204.391389 133.993971 
L 204.411998 132.994274 
L 204.507212 132.994274 
L 204.587623 130.495031 
L 204.623601 130.495031 
L 204.730716 124.496848 
L 204.752815 124.496848 
L 204.829285 122.497454 
L 204.912905 122.497454 
L 204.991843 119.498362 
L 205.04854 119.498362 
L 205.146257 117.998817 
L 205.165624 117.998817 
L 205.235169 114.999725 
L 206.210464 114.999725 
L 206.269224 113.500179 
L 206.342958 113.500179 
L 206.447582 111.000937 
L 206.517325 111.000937 
L 206.576083 108.501694 
L 206.702969 108.501694 
L 206.768506 106.502299 
L 206.832289 106.502299 
L 206.834802 104.502905 
L 210.421204 104.502905 
L 210.518309 102.503511 
L 210.544601 102.503511 
L 210.655159 99.004571 
L 210.670358 99.004571 
L 210.747494 96.505328 
L 210.886681 96.505328 
L 210.97767 92.506539 
L 212.567885 92.506539 
L 212.567885 91.506842 
L 212.903955 91.506842 
L 212.980553 90.007296 
L 213.021488 90.007296 
L 213.089499 88.507751 
L 213.158878 88.507751 
L 213.255131 86.008508 
L 213.338745 86.008508 
L 213.382876 84.009114 
L 213.563306 84.009114 
L 213.585957 82.509568 
L 215.251148 82.509568 
L 215.293074 80.010325 
L 215.378471 80.010325 
L 215.487439 77.011234 
L 215.536126 77.011234 
L 215.643509 73.012445 
L 215.647552 73.012445 
L 215.740587 70.013354 
L 215.76048 70.013354 
L 215.867593 65.514716 
L 215.87757 65.514716 
L 215.90906 64.015171 
L 216.020411 64.015171 
L 216.070397 62.015776 
L 216.207466 62.015776 
L 216.282178 59.516533 
L 216.66732 59.516533 
L 216.772811 56.517442 
L 216.799416 56.517442 
L 216.876161 52.018805 
L 217.079645 52.018805 
L 217.186751 48.020016 
L 217.257299 48.020016 
L 217.365704 45.020925 
L 238.553767 45.020925 
L 238.558006 44.021228 
L 338.688 44.021228 
L 338.688 44.021228 
" style="fill:none;stroke:#ff00ff;stroke-linecap:square;stroke-width:1.5;"/>
   </g>
   <g id="line2d_48">
    <defs>
     <path d="M -0 8.485281 
L 5.091169 0 
L 0 -8.485281 
L -5.091169 -0 
z
" id="m1c94010ca8" style="stroke:#ff00ff;stroke-linejoin:miter;stroke-width:1.5;"/>
    </defs>
    <g>
     <use style="fill-opacity:0;stroke:#ff00ff;stroke-linejoin:miter;stroke-width:1.5;" x="72.867545" xlink:href="#m1c94010ca8" y="286.447786"/>
     <use style="fill-opacity:0;stroke:#ff00ff;stroke-linejoin:miter;stroke-width:1.5;" x="178.430426" xlink:href="#m1c94010ca8" y="235.96308"/>
     <use style="fill-opacity:0;stroke:#ff00ff;stroke-linejoin:miter;stroke-width:1.5;" x="210.670358" xlink:href="#m1c94010ca8" y="99.004571"/>
     <use style="fill-opacity:0;stroke:#ff00ff;stroke-linejoin:miter;stroke-width:1.5;" x="238.558006" xlink:href="#m1c94010ca8" y="44.521076"/>
     <use style="fill-opacity:0;stroke:#ff00ff;stroke-linejoin:miter;stroke-width:1.5;" x="238.558006" xlink:href="#m1c94010ca8" y="44.021228"/>
     <use style="fill-opacity:0;stroke:#ff00ff;stroke-linejoin:miter;stroke-width:1.5;" x="338.688" xlink:href="#m1c94010ca8" y="44.021228"/>
    </g>
   </g>
   <g id="line2d_49">
    <path style="fill:none;stroke:#ff00ff;stroke-linecap:square;stroke-width:1.5;"/>
    <g/>
   </g>
   <g id="line2d_50">
    <defs>
     <path d="M 0 1.5 
C 0.397805 1.5 0.77937 1.341951 1.06066 1.06066 
C 1.341951 0.77937 1.5 0.397805 1.5 0 
C 1.5 -0.397805 1.341951 -0.77937 1.06066 -1.06066 
C 0.77937 -1.341951 0.397805 -1.5 0 -1.5 
C -0.397805 -1.5 -0.77937 -1.341951 -1.06066 -1.06066 
C -1.341951 -0.77937 -1.5 -0.397805 -1.5 0 
C -1.5 0.397805 -1.341951 0.77937 -1.06066 1.06066 
C -0.77937 1.341951 -0.397805 1.5 0 1.5 
z
" id="me47a918c74" style="stroke:#ffa500;"/>
    </defs>
    <g>
     <use style="fill:#ffa500;stroke:#ffa500;" x="233.434859" xlink:href="#me47a918c74" y="44.021228"/>
     <use style="fill:#ffa500;stroke:#ffa500;" x="233.434859" xlink:href="#me47a918c74" y="44.021228"/>
    </g>
   </g>
   <g id="line2d_51">
    <path d="M 5.356583 298.944 
L 5.356583 295.944909 
L 17.444571 295.944909 
L 17.444571 291.446271 
L 24.515591 291.446271 
L 24.515591 290.446574 
L 33.424023 290.446574 
L 33.424023 288.44718 
L 43.6746 288.44718 
L 43.6746 287.947331 
L 51.379845 287.947331 
L 51.379845 287.447483 
L 63.467834 287.447483 
L 63.467834 285.947937 
L 69.246464 285.947937 
L 69.246464 285.448089 
L 80.416384 285.448089 
L 80.416384 284.94824 
L 84.401859 284.94824 
L 84.401859 284.448391 
L 92.73846 284.448391 
L 92.73846 283.948543 
L 123.751369 283.948543 
L 123.751369 283.448694 
L 124.273716 283.448694 
L 124.273716 282.948846 
L 125.787955 282.948846 
L 125.787955 282.448997 
L 127.658536 282.448997 
L 127.658536 281.949149 
L 128.275374 281.949149 
L 128.275374 281.4493 
L 129.853291 281.4493 
L 129.853291 280.449603 
L 130.371462 280.449603 
L 130.371462 279.949754 
L 130.874681 279.949754 
L 130.874681 279.449906 
L 131.133813 279.449906 
L 131.133813 278.950057 
L 131.628308 278.950057 
L 131.628308 277.95036 
L 132.398622 277.95036 
L 132.398622 277.450511 
L 132.659801 277.450511 
L 132.659801 276.950663 
L 132.80063 276.950663 
L 132.80063 276.450814 
L 133.067415 276.450814 
L 133.067415 274.951268 
L 133.216421 274.951268 
L 133.216421 274.45142 
L 135.839358 274.45142 
L 135.839358 273.951571 
L 136.005494 273.951571 
L 136.005494 273.451723 
L 136.579521 273.451723 
L 136.579521 272.452026 
L 136.701442 272.452026 
L 136.701442 271.952177 
L 136.905847 271.952177 
L 136.905847 271.452328 
L 137.198951 271.452328 
L 137.253364 269.452934 
L 139.204493 269.452934 
L 139.204493 268.453237 
L 139.461666 268.453237 
L 139.461666 267.953388 
L 139.652088 267.953388 
L 139.754371 266.453843 
L 140.752916 266.453843 
L 140.79731 265.454146 
L 141.097679 265.454146 
L 141.097679 264.954297 
L 141.899708 264.954297 
L 141.899708 264.454448 
L 143.394564 264.454448 
L 143.394564 263.9546 
L 144.906143 263.9546 
L 144.93531 262.954903 
L 147.739772 262.954903 
L 147.739772 262.455054 
L 164.787563 262.455054 
L 164.787563 261.955206 
L 164.91963 261.955206 
L 164.91963 260.955508 
L 165.200871 260.955508 
L 165.24094 259.955811 
L 165.518877 259.955811 
L 165.518877 258.956114 
L 165.751867 258.956114 
L 165.751867 258.456266 
L 166.065276 258.456266 
L 166.150097 256.95672 
L 166.277417 256.95672 
L 166.277417 256.456871 
L 166.859033 256.456871 
L 166.859033 255.957023 
L 167.019126 255.957023 
L 167.019126 255.457174 
L 167.711635 255.457174 
L 167.711635 254.957326 
L 167.900085 254.957326 
L 167.907893 253.45778 
L 168.562125 253.45778 
L 168.562125 252.957931 
L 168.692465 252.957931 
L 168.692465 252.458083 
L 169.05875 252.458083 
L 169.05875 251.958234 
L 169.327064 251.958234 
L 169.327064 251.458386 
L 169.700126 251.458386 
L 169.700126 250.958537 
L 169.825059 250.958537 
L 169.825059 250.458688 
L 169.999028 250.458688 
L 169.999028 249.458991 
L 170.260183 249.458991 
L 170.260183 248.959143 
L 174.025955 248.959143 
L 174.025955 248.459294 
L 175.043326 248.459294 
L 175.043326 247.959446 
L 176.079029 247.959446 
L 176.079029 246.959748 
L 176.398563 246.959748 
L 176.398563 246.4599 
L 176.579916 246.4599 
L 176.644365 244.960354 
L 176.755642 244.960354 
L 176.755642 244.460506 
L 178.177541 244.460506 
L 178.177541 243.960657 
L 178.301001 243.960657 
L 178.301001 243.460808 
L 178.446644 243.460808 
L 178.552115 241.961263 
L 178.65358 241.961263 
L 178.70157 240.961566 
L 178.854756 240.961566 
L 178.925454 239.46202 
L 179.1301 239.46202 
L 179.1301 238.962171 
L 179.413275 238.962171 
L 179.413275 238.462323 
L 179.935669 238.462323 
L 179.973228 236.962777 
L 180.090859 236.962777 
L 180.090859 236.462928 
L 180.281581 236.462928 
L 180.365851 234.463534 
L 180.413932 234.463534 
L 180.413932 233.963685 
L 180.56192 233.963685 
L 180.56192 233.463837 
L 182.4468 233.463837 
L 182.511794 231.464443 
L 182.868304 231.464443 
L 182.868304 230.964594 
L 183.010731 230.964594 
L 183.040913 228.9652 
L 183.534705 228.9652 
L 183.593235 227.965503 
L 183.649037 227.965503 
L 183.716016 225.46626 
L 183.895461 225.46626 
L 183.895461 224.966411 
L 184.622891 224.966411 
L 184.702338 223.466865 
L 184.871964 223.466865 
L 184.871964 222.967017 
L 186.49075 222.967017 
L 186.534266 221.96732 
L 186.696622 221.96732 
L 186.696622 220.967623 
L 187.00225 220.967623 
L 187.06482 219.468077 
L 187.186706 219.468077 
L 187.186706 218.968228 
L 187.673448 218.968228 
L 187.673448 218.46838 
L 189.258838 218.46838 
L 189.258838 217.968531 
L 189.789047 217.968531 
L 189.789047 217.468683 
L 189.966228 217.468683 
L 190.05897 215.469288 
L 190.229536 215.469288 
L 190.229536 214.469591 
L 190.42208 214.469591 
L 190.519269 213.469894 
L 190.561486 213.469894 
L 190.561486 212.970045 
L 190.839932 212.970045 
L 190.839932 212.470197 
L 191.179899 212.470197 
L 191.279507 209.471105 
L 191.297074 209.471105 
L 191.392362 205.972165 
L 191.475011 205.972165 
L 191.499245 204.47262 
L 191.601465 204.47262 
L 191.629931 202.973074 
L 191.812451 202.973074 
L 191.859168 199.973983 
L 192.084651 199.973983 
L 192.084651 199.474134 
L 192.22924 199.474134 
L 192.229627 198.474437 
L 192.6363 198.474437 
L 192.6363 197.47474 
L 193.076161 197.47474 
L 193.157826 195.975194 
L 193.370125 195.975194 
L 193.370125 195.475345 
L 193.878216 195.475345 
L 193.878216 194.475648 
L 194.012222 194.475648 
L 194.076752 191.476557 
L 194.231346 191.476557 
L 194.308476 189.477162 
L 194.596065 189.477162 
L 194.689427 187.977617 
L 194.787307 187.977617 
L 194.830707 186.478071 
L 194.975813 186.478071 
L 194.975813 185.978222 
L 195.1348 185.978222 
L 195.1348 185.478374 
L 195.317986 185.478374 
L 195.387237 183.978828 
L 195.528764 183.978828 
L 195.597504 182.979131 
L 195.809049 182.979131 
L 195.882661 180.979737 
L 195.933754 180.979737 
L 196.038294 179.98004 
L 196.110637 179.98004 
L 196.167863 178.480494 
L 196.229211 178.480494 
L 196.240901 176.980948 
L 196.497031 176.980948 
L 196.505211 174.981554 
L 197.346944 174.981554 
L 197.412054 173.482008 
L 197.47778 173.482008 
L 197.576051 171.982462 
L 197.615034 171.982462 
L 197.675471 170.482917 
L 199.214895 170.482917 
L 199.214895 168.483522 
L 199.697486 168.483522 
L 199.771738 165.484431 
L 199.809623 165.484431 
L 199.809623 164.984582 
L 200.01839 164.984582 
L 200.09918 160.485945 
L 200.384251 160.485945 
L 200.444287 158.9864 
L 200.525779 158.9864 
L 200.586769 157.986702 
L 200.661395 157.986702 
L 200.661395 157.486854 
L 201.893501 157.486854 
L 201.893501 156.987005 
L 204.418349 156.987005 
L 204.494189 155.987308 
L 206.162303 155.987308 
L 206.269224 150.488974 
L 206.295853 150.488974 
L 206.37171 144.990639 
L 206.46145 144.990639 
L 206.516814 140.492002 
L 207.847632 140.492002 
L 207.857114 138.992457 
L 208.177078 138.992457 
L 208.255851 137.492911 
L 208.369897 137.492911 
L 208.457119 134.493819 
L 208.483354 134.493819 
L 208.501024 133.494122 
L 208.63208 133.494122 
L 208.70582 126.996091 
L 208.763058 126.996091 
L 208.835949 119.498362 
L 208.87906 119.498362 
L 208.942119 117.998817 
L 208.992964 117.998817 
L 209.048974 114.000028 
L 209.155325 114.000028 
L 209.239737 110.001239 
L 209.266862 110.001239 
L 209.351027 106.502299 
L 209.378992 106.502299 
L 209.481197 104.502905 
L 211.344454 104.502905 
L 211.418414 103.503208 
L 211.467419 103.503208 
L 211.520257 102.003662 
L 211.589906 102.003662 
L 211.697473 97.005176 
L 211.737103 97.005176 
L 211.81068 94.505934 
L 215.806509 94.505934 
L 215.832728 92.006691 
L 216.659692 92.006691 
L 216.705789 87.508054 
L 217.795029 87.508054 
L 217.897399 83.009416 
L 217.937062 83.009416 
L 218.039396 80.010325 
L 221.220568 80.010325 
L 221.220568 79.510476 
L 221.382223 79.510476 
L 221.437058 78.010931 
L 221.508483 78.010931 
L 221.582997 75.511688 
L 221.729081 75.511688 
L 221.757297 74.511991 
L 221.871334 74.511991 
L 221.980273 71.512899 
L 222.126914 71.512899 
L 222.210496 69.513505 
L 222.649779 69.513505 
L 222.72349 68.513808 
L 222.912346 68.513808 
L 222.980976 67.514111 
L 223.201716 67.514111 
L 223.201716 66.014565 
L 225.147912 66.014565 
L 225.147912 65.014868 
L 225.281395 65.014868 
L 225.281395 64.015171 
L 225.597796 64.015171 
L 225.67514 62.015776 
L 225.765612 62.015776 
L 225.868503 61.016079 
L 225.967378 61.016079 
L 225.967378 60.516231 
L 226.098532 60.516231 
L 226.098532 60.016382 
L 226.221487 60.016382 
L 226.221487 59.516533 
L 228.491319 59.516533 
L 228.595047 54.018199 
L 228.608126 54.018199 
L 228.617353 53.018502 
L 228.804474 53.018502 
L 228.87761 52.018805 
L 228.926149 52.018805 
L 228.932614 50.519259 
L 232.912392 50.519259 
L 232.998291 49.519562 
L 233.138274 49.519562 
L 233.238336 47.020319 
L 233.286811 47.020319 
L 233.310355 45.020925 
L 233.420785 45.020925 
L 233.434859 44.021228 
L 338.688 44.021228 
L 338.688 44.021228 
" style="fill:none;stroke:#ffa500;stroke-linecap:square;stroke-width:1.5;"/>
   </g>
   <g id="line2d_52">
    <defs>
     <path d="M 0 -6 
L -1.347084 -1.854102 
L -5.706339 -1.854102 
L -2.179628 0.708204 
L -3.526712 4.854102 
L -0 2.291796 
L 3.526712 4.854102 
L 2.179628 0.708204 
L 5.706339 -1.854102 
L 1.347084 -1.854102 
z
" id="m67762e7ffa" style="stroke:#ffa500;stroke-linejoin:bevel;stroke-width:1.5;"/>
    </defs>
    <g>
     <use style="fill-opacity:0;stroke:#ffa500;stroke-linejoin:bevel;stroke-width:1.5;" x="133.216421" xlink:href="#m67762e7ffa" y="274.951268"/>
     <use style="fill-opacity:0;stroke:#ffa500;stroke-linejoin:bevel;stroke-width:1.5;" x="194.975813" xlink:href="#m67762e7ffa" y="185.978222"/>
     <use style="fill-opacity:0;stroke:#ffa500;stroke-linejoin:bevel;stroke-width:1.5;" x="223.201716" xlink:href="#m67762e7ffa" y="66.014565"/>
     <use style="fill-opacity:0;stroke:#ffa500;stroke-linejoin:bevel;stroke-width:1.5;" x="233.434859" xlink:href="#m67762e7ffa" y="44.021228"/>
     <use style="fill-opacity:0;stroke:#ffa500;stroke-linejoin:bevel;stroke-width:1.5;" x="233.434859" xlink:href="#m67762e7ffa" y="44.021228"/>
     <use style="fill-opacity:0;stroke:#ffa500;stroke-linejoin:bevel;stroke-width:1.5;" x="338.688" xlink:href="#m67762e7ffa" y="44.021228"/>
    </g>
   </g>
   <g id="line2d_53">
    <path style="fill:none;stroke:#ffa500;stroke-linecap:square;stroke-width:1.5;"/>
    <g/>
   </g>
   <g id="line2d_54">
    <path d="M 338.688 44.021228 
L 369.60768 293.845545 
" style="fill:none;stroke:#ff00ff;stroke-linecap:square;stroke-width:1.5;"/>
    <g>
     <use style="fill-opacity:0;stroke:#ff00ff;stroke-linejoin:miter;stroke-width:1.5;" x="338.688" xlink:href="#m1c94010ca8" y="44.021228"/>
     <use style="fill-opacity:0;stroke:#ff00ff;stroke-linejoin:miter;stroke-width:1.5;" x="369.60768" xlink:href="#m1c94010ca8" y="293.845545"/>
    </g>
   </g>
   <g id="line2d_55">
    <path d="M 338.688 44.021228 
L 369.60768 212.270257 
" style="fill:none;stroke:#ffa500;stroke-linecap:square;stroke-width:1.5;"/>
    <g>
     <use style="fill-opacity:0;stroke:#ffa500;stroke-linejoin:bevel;stroke-width:1.5;" x="338.688" xlink:href="#m67762e7ffa" y="44.021228"/>
     <use style="fill-opacity:0;stroke:#ffa500;stroke-linejoin:bevel;stroke-width:1.5;" x="369.60768" xlink:href="#m67762e7ffa" y="212.270257"/>
    </g>
   </g>
   <g id="line2d_56">
    <path d="M 338.688 44.021228 
L 369.60768 130.69497 
" style="fill:none;stroke:#000080;stroke-linecap:square;stroke-width:1.5;"/>
    <g>
     <use style="fill-opacity:0;stroke:#000080;stroke-width:1.5;" x="338.688" xlink:href="#m6bbb706f12" y="44.021228"/>
     <use style="fill-opacity:0;stroke:#000080;stroke-width:1.5;" x="369.60768" xlink:href="#m6bbb706f12" y="130.69497"/>
    </g>
   </g>
   <g id="line2d_57">
    <path d="M 338.688 298.944 
L 338.688 44.021228 
" style="fill:none;stroke:#000000;stroke-linecap:square;stroke-width:1.5;"/>
   </g>
   <g id="patch_3">
    <path d="M 57.6 298.944 
L 57.6 41.472 
" style="fill:none;stroke:#000000;stroke-linecap:square;stroke-linejoin:miter;stroke-width:0.8;"/>
   </g>
   <g id="patch_4">
    <path d="M 338.688 298.944 
L 338.688 41.472 
" style="fill:none;stroke:#000000;stroke-linecap:square;stroke-linejoin:miter;stroke-width:0.8;"/>
   </g>
   <g id="patch_5">
    <path d="M 57.6 298.944 
L 338.688 298.944 
" style="fill:none;stroke:#000000;stroke-linecap:square;stroke-linejoin:miter;stroke-width:0.8;"/>
   </g>
   <g id="patch_6">
    <path d="M 57.6 41.472 
L 338.688 41.472 
" style="fill:none;stroke:#000000;stroke-linecap:square;stroke-linejoin:miter;stroke-width:0.8;"/>
   </g>
   <g id="text_13">
    <!-- IPOPsaACM -->
    <defs>
     <path d="M 9.8125 72.90625 
L 19.671875 72.90625 
L 19.671875 0 
L 9.8125 0 
z
" id="DejaVuSans-73"/>
     <path d="M 19.671875 64.796875 
L 19.671875 37.40625 
L 32.078125 37.40625 
Q 38.96875 37.40625 42.71875 40.96875 
Q 46.484375 44.53125 46.484375 51.125 
Q 46.484375 57.671875 42.71875 61.234375 
Q 38.96875 64.796875 32.078125 64.796875 
z
M 9.8125 72.90625 
L 32.078125 72.90625 
Q 44.34375 72.90625 50.609375 67.359375 
Q 56.890625 61.8125 56.890625 51.125 
Q 56.890625 40.328125 50.609375 34.8125 
Q 44.34375 29.296875 32.078125 29.296875 
L 19.671875 29.296875 
L 19.671875 0 
L 9.8125 0 
z
" id="DejaVuSans-80"/>
     <path d="M 39.40625 66.21875 
Q 28.65625 66.21875 22.328125 58.203125 
Q 16.015625 50.203125 16.015625 36.375 
Q 16.015625 22.609375 22.328125 14.59375 
Q 28.65625 6.59375 39.40625 6.59375 
Q 50.140625 6.59375 56.421875 14.59375 
Q 62.703125 22.609375 62.703125 36.375 
Q 62.703125 50.203125 56.421875 58.203125 
Q 50.140625 66.21875 39.40625 66.21875 
z
M 39.40625 74.21875 
Q 54.734375 74.21875 63.90625 63.9375 
Q 73.09375 53.65625 73.09375 36.375 
Q 73.09375 19.140625 63.90625 8.859375 
Q 54.734375 -1.421875 39.40625 -1.421875 
Q 24.03125 -1.421875 14.8125 8.828125 
Q 5.609375 19.09375 5.609375 36.375 
Q 5.609375 53.65625 14.8125 63.9375 
Q 24.03125 74.21875 39.40625 74.21875 
z
" id="DejaVuSans-79"/>
     <path d="M 34.1875 63.1875 
L 20.796875 26.90625 
L 47.609375 26.90625 
z
M 28.609375 72.90625 
L 39.796875 72.90625 
L 67.578125 0 
L 57.328125 0 
L 50.6875 18.703125 
L 17.828125 18.703125 
L 11.1875 0 
L 0.78125 0 
z
" id="DejaVuSans-65"/>
     <path d="M 64.40625 67.28125 
L 64.40625 56.890625 
Q 59.421875 61.53125 53.78125 63.8125 
Q 48.140625 66.109375 41.796875 66.109375 
Q 29.296875 66.109375 22.65625 58.46875 
Q 16.015625 50.828125 16.015625 36.375 
Q 16.015625 21.96875 22.65625 14.328125 
Q 29.296875 6.6875 41.796875 6.6875 
Q 48.140625 6.6875 53.78125 8.984375 
Q 59.421875 11.28125 64.40625 15.921875 
L 64.40625 5.609375 
Q 59.234375 2.09375 53.4375 0.328125 
Q 47.65625 -1.421875 41.21875 -1.421875 
Q 24.65625 -1.421875 15.125 8.703125 
Q 5.609375 18.84375 5.609375 36.375 
Q 5.609375 53.953125 15.125 64.078125 
Q 24.65625 74.21875 41.21875 74.21875 
Q 47.75 74.21875 53.53125 72.484375 
Q 59.328125 70.75 64.40625 67.28125 
z
" id="DejaVuSans-67"/>
     <path d="M 9.8125 72.90625 
L 24.515625 72.90625 
L 43.109375 23.296875 
L 61.8125 72.90625 
L 76.515625 72.90625 
L 76.515625 0 
L 66.890625 0 
L 66.890625 64.015625 
L 48.09375 14.015625 
L 38.1875 14.015625 
L 19.390625 64.015625 
L 19.390625 0 
L 9.8125 0 
z
" id="DejaVuSans-77"/>
    </defs>
    <g transform="translate(375.22944 298.536482)scale(0.17 -0.17)">
     <use xlink:href="#DejaVuSans-73"/>
     <use x="29.492188" xlink:href="#DejaVuSans-80"/>
     <use x="89.794922" xlink:href="#DejaVuSans-79"/>
     <use x="168.505859" xlink:href="#DejaVuSans-80"/>
     <use x="228.792969" xlink:href="#DejaVuSans-115"/>
     <use x="280.892578" xlink:href="#DejaVuSans-97"/>
     <use x="342.171875" xlink:href="#DejaVuSans-65"/>
     <use x="410.564453" xlink:href="#DejaVuSans-67"/>
     <use x="480.388672" xlink:href="#DejaVuSans-77"/>
    </g>
   </g>
   <g id="text_14">
    <!-- BIPOP-saA -->
    <defs>
     <path d="M 19.671875 34.8125 
L 19.671875 8.109375 
L 35.5 8.109375 
Q 43.453125 8.109375 47.28125 11.40625 
Q 51.125 14.703125 51.125 21.484375 
Q 51.125 28.328125 47.28125 31.5625 
Q 43.453125 34.8125 35.5 34.8125 
z
M 19.671875 64.796875 
L 19.671875 42.828125 
L 34.28125 42.828125 
Q 41.5 42.828125 45.03125 45.53125 
Q 48.578125 48.25 48.578125 53.8125 
Q 48.578125 59.328125 45.03125 62.0625 
Q 41.5 64.796875 34.28125 64.796875 
z
M 9.8125 72.90625 
L 35.015625 72.90625 
Q 46.296875 72.90625 52.390625 68.21875 
Q 58.5 63.53125 58.5 54.890625 
Q 58.5 48.1875 55.375 44.234375 
Q 52.25 40.28125 46.1875 39.3125 
Q 53.46875 37.75 57.5 32.78125 
Q 61.53125 27.828125 61.53125 20.40625 
Q 61.53125 10.640625 54.890625 5.3125 
Q 48.25 0 35.984375 0 
L 9.8125 0 
z
" id="DejaVuSans-66"/>
    </defs>
    <g transform="translate(375.22944 216.961195)scale(0.17 -0.17)">
     <use xlink:href="#DejaVuSans-66"/>
     <use x="68.603516" xlink:href="#DejaVuSans-73"/>
     <use x="98.095703" xlink:href="#DejaVuSans-80"/>
     <use x="158.398438" xlink:href="#DejaVuSans-79"/>
     <use x="237.109375" xlink:href="#DejaVuSans-80"/>
     <use x="297.380859" xlink:href="#DejaVuSans-45"/>
     <use x="333.464844" xlink:href="#DejaVuSans-115"/>
     <use x="385.564453" xlink:href="#DejaVuSans-97"/>
     <use x="446.84375" xlink:href="#DejaVuSans-65"/>
    </g>
   </g>
   <g id="text_15">
    <!-- BIPOPsaAC -->
    <g transform="translate(375.22944 135.385908)scale(0.17 -0.17)">
     <use xlink:href="#DejaVuSans-66"/>
     <use x="68.603516" xlink:href="#DejaVuSans-73"/>
     <use x="98.095703" xlink:href="#DejaVuSans-80"/>
     <use x="158.398438" xlink:href="#DejaVuSans-79"/>
     <use x="237.109375" xlink:href="#DejaVuSans-80"/>
     <use x="297.396484" xlink:href="#DejaVuSans-115"/>
     <use x="349.496094" xlink:href="#DejaVuSans-97"/>
     <use x="410.775391" xlink:href="#DejaVuSans-65"/>
     <use x="479.167969" xlink:href="#DejaVuSans-67"/>
    </g>
   </g>
   <g id="text_16">
    <!-- best 2009 -->
    <defs>
     <path d="M 48.6875 27.296875 
Q 48.6875 37.203125 44.609375 42.84375 
Q 40.53125 48.484375 33.40625 48.484375 
Q 26.265625 48.484375 22.1875 42.84375 
Q 18.109375 37.203125 18.109375 27.296875 
Q 18.109375 17.390625 22.1875 11.75 
Q 26.265625 6.109375 33.40625 6.109375 
Q 40.53125 6.109375 44.609375 11.75 
Q 48.6875 17.390625 48.6875 27.296875 
z
M 18.109375 46.390625 
Q 20.953125 51.265625 25.265625 53.625 
Q 29.59375 56 35.59375 56 
Q 45.5625 56 51.78125 48.09375 
Q 58.015625 40.1875 58.015625 27.296875 
Q 58.015625 14.40625 51.78125 6.484375 
Q 45.5625 -1.421875 35.59375 -1.421875 
Q 29.59375 -1.421875 25.265625 0.953125 
Q 20.953125 3.328125 18.109375 8.203125 
L 18.109375 0 
L 9.078125 0 
L 9.078125 75.984375 
L 18.109375 75.984375 
z
" id="DejaVuSans-98"/>
     <path d="M 10.984375 1.515625 
L 10.984375 10.5 
Q 14.703125 8.734375 18.5 7.8125 
Q 22.3125 6.890625 25.984375 6.890625 
Q 35.75 6.890625 40.890625 13.453125 
Q 46.046875 20.015625 46.78125 33.40625 
Q 43.953125 29.203125 39.59375 26.953125 
Q 35.25 24.703125 29.984375 24.703125 
Q 19.046875 24.703125 12.671875 31.3125 
Q 6.296875 37.9375 6.296875 49.421875 
Q 6.296875 60.640625 12.9375 67.421875 
Q 19.578125 74.21875 30.609375 74.21875 
Q 43.265625 74.21875 49.921875 64.515625 
Q 56.59375 54.828125 56.59375 36.375 
Q 56.59375 19.140625 48.40625 8.859375 
Q 40.234375 -1.421875 26.421875 -1.421875 
Q 22.703125 -1.421875 18.890625 -0.6875 
Q 15.09375 0.046875 10.984375 1.515625 
z
M 30.609375 32.421875 
Q 37.25 32.421875 41.125 36.953125 
Q 45.015625 41.5 45.015625 49.421875 
Q 45.015625 57.28125 41.125 61.84375 
Q 37.25 66.40625 30.609375 66.40625 
Q 23.96875 66.40625 20.09375 61.84375 
Q 16.21875 57.28125 16.21875 49.421875 
Q 16.21875 41.5 20.09375 36.953125 
Q 23.96875 32.421875 30.609375 32.421875 
z
" id="DejaVuSans-57"/>
    </defs>
    <g transform="translate(375.22944 53.810621)scale(0.17 -0.17)">
     <use xlink:href="#DejaVuSans-98"/>
     <use x="63.476562" xlink:href="#DejaVuSans-101"/>
     <use x="125" xlink:href="#DejaVuSans-115"/>
     <use x="177.099609" xlink:href="#DejaVuSans-116"/>
     <use x="216.308594" xlink:href="#DejaVuSans-32"/>
     <use x="248.095703" xlink:href="#DejaVuSans-50"/>
     <use x="311.71875" xlink:href="#DejaVuSans-48"/>
     <use x="375.341797" xlink:href="#DejaVuSans-48"/>
     <use x="438.964844" xlink:href="#DejaVuSans-57"/>
    </g>
   </g>
   <g id="text_17">
    <!-- bbob f16, 20-D -->
    <defs>
     <path d="M 19.671875 64.796875 
L 19.671875 8.109375 
L 31.59375 8.109375 
Q 46.6875 8.109375 53.6875 14.9375 
Q 60.6875 21.78125 60.6875 36.53125 
Q 60.6875 51.171875 53.6875 57.984375 
Q 46.6875 64.796875 31.59375 64.796875 
z
M 9.8125 72.90625 
L 30.078125 72.90625 
Q 51.265625 72.90625 61.171875 64.09375 
Q 71.09375 55.28125 71.09375 36.53125 
Q 71.09375 17.671875 61.125 8.828125 
Q 51.171875 0 30.078125 0 
L 9.8125 0 
z
" id="DejaVuSans-68"/>
    </defs>
    <g transform="translate(60.41088 51.797126)scale(0.102 -0.102)">
     <use xlink:href="#DejaVuSans-98"/>
     <use x="63.476562" xlink:href="#DejaVuSans-98"/>
     <use x="126.953125" xlink:href="#DejaVuSans-111"/>
     <use x="188.134766" xlink:href="#DejaVuSans-98"/>
     <use x="251.611328" xlink:href="#DejaVuSans-32"/>
     <use x="283.398438" xlink:href="#DejaVuSans-102"/>
     <use x="318.603516" xlink:href="#DejaVuSans-49"/>
     <use x="382.226562" xlink:href="#DejaVuSans-54"/>
     <use x="445.849609" xlink:href="#DejaVuSans-44"/>
     <use x="477.636719" xlink:href="#DejaVuSans-32"/>
     <use x="509.423828" xlink:href="#DejaVuSans-50"/>
     <use x="573.046875" xlink:href="#DejaVuSans-48"/>
     <use x="636.669922" xlink:href="#DejaVuSans-45"/>
     <use x="672.753906" xlink:href="#DejaVuSans-68"/>
    </g>
    <!-- 51 targets: 100..1e-08 -->
    <defs>
     <path d="M 10.796875 72.90625 
L 49.515625 72.90625 
L 49.515625 64.59375 
L 19.828125 64.59375 
L 19.828125 46.734375 
Q 21.96875 47.46875 24.109375 47.828125 
Q 26.265625 48.1875 28.421875 48.1875 
Q 40.625 48.1875 47.75 41.5 
Q 54.890625 34.8125 54.890625 23.390625 
Q 54.890625 11.625 47.5625 5.09375 
Q 40.234375 -1.421875 26.90625 -1.421875 
Q 22.3125 -1.421875 17.546875 -0.640625 
Q 12.796875 0.140625 7.71875 1.703125 
L 7.71875 11.625 
Q 12.109375 9.234375 16.796875 8.0625 
Q 21.484375 6.890625 26.703125 6.890625 
Q 35.15625 6.890625 40.078125 11.328125 
Q 45.015625 15.765625 45.015625 23.390625 
Q 45.015625 31 40.078125 35.4375 
Q 35.15625 39.890625 26.703125 39.890625 
Q 22.75 39.890625 18.8125 39.015625 
Q 14.890625 38.140625 10.796875 36.28125 
z
" id="DejaVuSans-53"/>
     <path d="M 11.71875 12.40625 
L 22.015625 12.40625 
L 22.015625 0 
L 11.71875 0 
z
M 11.71875 51.703125 
L 22.015625 51.703125 
L 22.015625 39.3125 
L 11.71875 39.3125 
z
" id="DejaVuSans-58"/>
    </defs>
    <g transform="translate(60.41088 63.218895)scale(0.102 -0.102)">
     <use xlink:href="#DejaVuSans-53"/>
     <use x="63.623047" xlink:href="#DejaVuSans-49"/>
     <use x="127.246094" xlink:href="#DejaVuSans-32"/>
     <use x="159.033203" xlink:href="#DejaVuSans-116"/>
     <use x="198.242188" xlink:href="#DejaVuSans-97"/>
     <use x="259.521484" xlink:href="#DejaVuSans-114"/>
     <use x="300.619141" xlink:href="#DejaVuSans-103"/>
     <use x="364.095703" xlink:href="#DejaVuSans-101"/>
     <use x="425.619141" xlink:href="#DejaVuSans-116"/>
     <use x="464.828125" xlink:href="#DejaVuSans-115"/>
     <use x="516.927734" xlink:href="#DejaVuSans-58"/>
     <use x="550.619141" xlink:href="#DejaVuSans-32"/>
     <use x="582.40625" xlink:href="#DejaVuSans-49"/>
     <use x="646.029297" xlink:href="#DejaVuSans-48"/>
     <use x="709.652344" xlink:href="#DejaVuSans-48"/>
     <use x="773.275391" xlink:href="#DejaVuSans-46"/>
     <use x="805.0625" xlink:href="#DejaVuSans-46"/>
     <use x="836.849609" xlink:href="#DejaVuSans-49"/>
     <use x="900.472656" xlink:href="#DejaVuSans-101"/>
     <use x="961.996094" xlink:href="#DejaVuSans-45"/>
     <use x="998.080078" xlink:href="#DejaVuSans-48"/>
     <use x="1061.703125" xlink:href="#DejaVuSans-56"/>
    </g>
    <!-- 15 instances -->
    <g transform="translate(60.41088 74.640664)scale(0.102 -0.102)">
     <use xlink:href="#DejaVuSans-49"/>
     <use x="63.623047" xlink:href="#DejaVuSans-53"/>
     <use x="127.246094" xlink:href="#DejaVuSans-32"/>
     <use x="159.033203" xlink:href="#DejaVuSans-105"/>
     <use x="186.816406" xlink:href="#DejaVuSans-110"/>
     <use x="250.195312" xlink:href="#DejaVuSans-115"/>
     <use x="302.294922" xlink:href="#DejaVuSans-116"/>
     <use x="341.503906" xlink:href="#DejaVuSans-97"/>
     <use x="402.783203" xlink:href="#DejaVuSans-110"/>
     <use x="466.162109" xlink:href="#DejaVuSans-99"/>
     <use x="521.142578" xlink:href="#DejaVuSans-101"/>
     <use x="582.666016" xlink:href="#DejaVuSans-115"/>
    </g>
   </g>
   <g id="text_18">
    <!-- v2.3.14 -->
    <defs>
     <path d="M 40.578125 39.3125 
Q 47.65625 37.796875 51.625 33 
Q 55.609375 28.21875 55.609375 21.1875 
Q 55.609375 10.40625 48.1875 4.484375 
Q 40.765625 -1.421875 27.09375 -1.421875 
Q 22.515625 -1.421875 17.65625 -0.515625 
Q 12.796875 0.390625 7.625 2.203125 
L 7.625 11.71875 
Q 11.71875 9.328125 16.59375 8.109375 
Q 21.484375 6.890625 26.8125 6.890625 
Q 36.078125 6.890625 40.9375 10.546875 
Q 45.796875 14.203125 45.796875 21.1875 
Q 45.796875 27.640625 41.28125 31.265625 
Q 36.765625 34.90625 28.71875 34.90625 
L 20.21875 34.90625 
L 20.21875 43.015625 
L 29.109375 43.015625 
Q 36.375 43.015625 40.234375 45.921875 
Q 44.09375 48.828125 44.09375 54.296875 
Q 44.09375 59.90625 40.109375 62.90625 
Q 36.140625 65.921875 28.71875 65.921875 
Q 24.65625 65.921875 20.015625 65.03125 
Q 15.375 64.15625 9.8125 62.3125 
L 9.8125 71.09375 
Q 15.4375 72.65625 20.34375 73.4375 
Q 25.25 74.21875 29.59375 74.21875 
Q 40.828125 74.21875 47.359375 69.109375 
Q 53.90625 64.015625 53.90625 55.328125 
Q 53.90625 49.265625 50.4375 45.09375 
Q 46.96875 40.921875 40.578125 39.3125 
z
" id="DejaVuSans-51"/>
    </defs>
    <g style="fill:#808080;" transform="translate(179.2815 294.289592)scale(0.1 -0.1)">
     <use xlink:href="#DejaVuSans-118"/>
     <use x="59.179688" xlink:href="#DejaVuSans-50"/>
     <use x="122.802734" xlink:href="#DejaVuSans-46"/>
     <use x="154.589844" xlink:href="#DejaVuSans-51"/>
     <use x="218.212891" xlink:href="#DejaVuSans-46"/>
     <use x="250" xlink:href="#DejaVuSans-49"/>
     <use x="313.623047" xlink:href="#DejaVuSans-52"/>
    </g>
   </g>
   <g id="text_19">
    <!-- 16 Weierstrass -->
    <defs>
     <path d="M 3.328125 72.90625 
L 13.28125 72.90625 
L 28.609375 11.28125 
L 43.890625 72.90625 
L 54.984375 72.90625 
L 70.3125 11.28125 
L 85.59375 72.90625 
L 95.609375 72.90625 
L 77.296875 0 
L 64.890625 0 
L 49.515625 63.28125 
L 33.984375 0 
L 21.578125 0 
z
" id="DejaVuSans-87"/>
    </defs>
    <g transform="translate(123.378375 35.472)scale(0.2 -0.2)">
     <use xlink:href="#DejaVuSans-49"/>
     <use x="63.623047" xlink:href="#DejaVuSans-54"/>
     <use x="127.246094" xlink:href="#DejaVuSans-32"/>
     <use x="159.033203" xlink:href="#DejaVuSans-87"/>
     <use x="257.832031" xlink:href="#DejaVuSans-101"/>
     <use x="319.355469" xlink:href="#DejaVuSans-105"/>
     <use x="347.138672" xlink:href="#DejaVuSans-101"/>
     <use x="408.662109" xlink:href="#DejaVuSans-114"/>
     <use x="449.775391" xlink:href="#DejaVuSans-115"/>
     <use x="501.875" xlink:href="#DejaVuSans-116"/>
     <use x="541.083984" xlink:href="#DejaVuSans-114"/>
     <use x="582.197266" xlink:href="#DejaVuSans-97"/>
     <use x="643.476562" xlink:href="#DejaVuSans-115"/>
     <use x="695.576172" xlink:href="#DejaVuSans-115"/>
    </g>
   </g>
  </g>
 </g>
 <defs>
  <clipPath id="p5e558478d0">
   <rect height="257.472" width="281.088" x="57.6" y="41.472"/>
  </clipPath>
 </defs>
</svg>
