<?xml version="1.0" encoding="utf-8" standalone="no"?>
<!DOCTYPE svg PUBLIC "-//W3C//DTD SVG 1.1//EN"
  "http://www.w3.org/Graphics/SVG/1.1/DTD/svg11.dtd">
<!-- Created with matplotlib (https://matplotlib.org/) -->
<svg height="345.6pt" version="1.1" viewBox="0 0 460.8 345.6" width="460.8pt" xmlns="http://www.w3.org/2000/svg" xmlns:xlink="http://www.w3.org/1999/xlink">
 <defs>
  <style type="text/css">
*{stroke-linecap:butt;stroke-linejoin:round;}
  </style>
 </defs>
 <g id="figure_1">
  <g id="patch_1">
   <path d="M 0 345.6 
L 460.8 345.6 
L 460.8 0 
L 0 0 
z
" style="fill:#ffffff;"/>
  </g>
  <g id="axes_1">
   <g id="patch_2">
    <path d="M 57.6 298.944 
L 338.688 298.944 
L 338.688 41.472 
L 57.6 41.472 
z
" style="fill:#ffffff;"/>
   </g>
   <g id="line2d_1">
    <path d="M 38.440992 298.944 
L 38.440992 273.951571 
L 50.52898 273.951571 
L 50.52898 268.953086 
L 62.616969 268.953086 
L 62.616969 263.9546 
L 69.687988 263.9546 
L 69.687988 258.956114 
L 78.59642 258.956114 
L 78.59642 253.957628 
L 84.464254 253.957628 
L 84.464254 248.959143 
L 87.850195 248.959143 
L 87.850195 243.960657 
L 89.78989 243.960657 
L 89.78989 238.962171 
L 93.121756 238.962171 
L 93.121756 233.963685 
L 93.863965 233.963685 
L 93.863965 228.9652 
L 95.918017 228.9652 
L 95.918017 223.966714 
L 96.552242 223.966714 
L 96.552242 218.968228 
L 98.32726 218.968228 
L 98.32726 213.969743 
L 98.880934 213.969743 
L 98.880934 208.971257 
L 99.938184 208.971257 
L 99.938184 203.972771 
L 102.330873 203.972771 
L 102.330873 198.974285 
L 104.033617 198.974285 
L 104.033617 193.9758 
L 105.584798 193.9758 
L 105.584798 188.977314 
L 107.680028 188.977314 
L 107.680028 183.978828 
L 109.550313 183.978828 
L 109.550313 178.980342 
L 111.505558 178.980342 
L 111.505558 173.981857 
L 112.779064 173.981857 
L 112.779064 168.983371 
L 114.860386 168.983371 
L 114.860386 163.984885 
L 115.711251 163.984885 
L 115.711251 158.9864 
L 116.522527 158.9864 
L 116.522527 153.987914 
L 116.914437 153.987914 
L 116.914437 148.989428 
L 117.297733 148.989428 
L 117.297733 143.990942 
L 118.039942 143.990942 
L 118.039942 138.992457 
L 119.097192 138.992457 
L 119.097192 133.993971 
L 119.602714 133.993971 
L 119.602714 128.995485 
L 120.093994 128.995485 
L 120.093994 123.996999 
L 120.41399 123.996999 
L 120.41399 118.998514 
L 121.189196 118.998514 
L 121.189196 114.000028 
L 124.989434 114.000028 
L 124.989434 109.001542 
L 126.948374 109.001542 
L 126.948374 104.003056 
L 127.48501 104.003056 
L 127.48501 99.004571 
L 128.005624 99.004571 
L 128.005624 94.006085 
L 128.310692 94.006085 
L 128.310692 89.007599 
L 128.709321 89.007599 
L 128.709321 84.009114 
L 129.480244 84.009114 
L 129.480244 79.010628 
L 129.853291 79.010628 
L 129.853291 74.012142 
L 130.30865 74.012142 
L 130.30865 69.013656 
L 130.664567 69.013656 
L 130.664567 64.015171 
L 131.439773 64.015171 
L 131.439773 59.016685 
L 131.77355 59.016685 
L 131.77355 54.018199 
L 132.101058 54.018199 
L 132.101058 49.019713 
L 132.501978 49.019713 
L 132.501978 44.021228 
L 338.688 44.021228 
" style="fill:none;stroke:#f5deb3;stroke-linecap:square;stroke-width:4;"/>
   </g>
   <g id="line2d_2">
    <defs>
     <path d="M -0 7.778175 
L 7.778175 0 
L 0 -7.778175 
L -7.778175 -0 
z
" id="mc53f6c6cf5" style="stroke:#f5deb3;stroke-linejoin:miter;stroke-width:1.5;"/>
    </defs>
    <g>
     <use style="fill:#f5deb3;stroke:#f5deb3;stroke-linejoin:miter;stroke-width:1.5;" x="98.32726" xlink:href="#mc53f6c6cf5" y="218.968228"/>
     <use style="fill:#f5deb3;stroke:#f5deb3;stroke-linejoin:miter;stroke-width:1.5;" x="121.189196" xlink:href="#mc53f6c6cf5" y="114.000028"/>
     <use style="fill:#f5deb3;stroke:#f5deb3;stroke-linejoin:miter;stroke-width:1.5;" x="132.501978" xlink:href="#mc53f6c6cf5" y="49.019713"/>
     <use style="fill:#f5deb3;stroke:#f5deb3;stroke-linejoin:miter;stroke-width:1.5;" x="132.501978" xlink:href="#mc53f6c6cf5" y="44.021228"/>
     <use style="fill:#f5deb3;stroke:#f5deb3;stroke-linejoin:miter;stroke-width:1.5;" x="132.501978" xlink:href="#mc53f6c6cf5" y="44.021228"/>
     <use style="fill:#f5deb3;stroke:#f5deb3;stroke-linejoin:miter;stroke-width:1.5;" x="338.688" xlink:href="#mc53f6c6cf5" y="44.021228"/>
    </g>
   </g>
   <g id="line2d_3">
    <path style="fill:none;stroke:#f5deb3;stroke-linecap:square;stroke-width:4;"/>
    <g/>
   </g>
   <g id="line2d_4">
    <path d="M 338.688 44.021228 
L 369.60768 49.119683 
" style="fill:none;stroke:#f5deb3;stroke-linecap:square;stroke-width:4;"/>
    <g>
     <use style="fill:#f5deb3;stroke:#f5deb3;stroke-linejoin:miter;stroke-width:1.5;" x="338.688" xlink:href="#mc53f6c6cf5" y="44.021228"/>
     <use style="fill:#f5deb3;stroke:#f5deb3;stroke-linejoin:miter;stroke-width:1.5;" x="369.60768" xlink:href="#mc53f6c6cf5" y="49.119683"/>
    </g>
   </g>
   <g id="matplotlib.axis_1">
    <g id="xtick_1">
     <g id="line2d_5">
      <path clip-path="url(#p89e7ec6be4)" d="M 57.6 298.944 
L 57.6 41.472 
" style="fill:none;stroke:#b0b0b0;stroke-linecap:square;stroke-width:0.8;"/>
     </g>
     <g id="line2d_6">
      <defs>
       <path d="M 0 0 
L 0 3.5 
" id="m1c8ff1338e" style="stroke:#000000;stroke-width:0.8;"/>
      </defs>
      <g>
       <use style="stroke:#000000;stroke-width:0.8;" x="57.6" xlink:href="#m1c8ff1338e" y="298.944"/>
      </g>
     </g>
     <g id="text_1">
      <!-- 0 -->
      <defs>
       <path d="M 31.78125 66.40625 
Q 24.171875 66.40625 20.328125 58.90625 
Q 16.5 51.421875 16.5 36.375 
Q 16.5 21.390625 20.328125 13.890625 
Q 24.171875 6.390625 31.78125 6.390625 
Q 39.453125 6.390625 43.28125 13.890625 
Q 47.125 21.390625 47.125 36.375 
Q 47.125 51.421875 43.28125 58.90625 
Q 39.453125 66.40625 31.78125 66.40625 
z
M 31.78125 74.21875 
Q 44.046875 74.21875 50.515625 64.515625 
Q 56.984375 54.828125 56.984375 36.375 
Q 56.984375 17.96875 50.515625 8.265625 
Q 44.046875 -1.421875 31.78125 -1.421875 
Q 19.53125 -1.421875 13.0625 8.265625 
Q 6.59375 17.96875 6.59375 36.375 
Q 6.59375 54.828125 13.0625 64.515625 
Q 19.53125 74.21875 31.78125 74.21875 
z
" id="DejaVuSans-48"/>
      </defs>
      <g transform="translate(51.2375 321.140875)scale(0.2 -0.2)">
       <use xlink:href="#DejaVuSans-48"/>
      </g>
     </g>
    </g>
    <g id="xtick_2">
     <g id="line2d_7">
      <path clip-path="url(#p89e7ec6be4)" d="M 137.910857 298.944 
L 137.910857 41.472 
" style="fill:none;stroke:#b0b0b0;stroke-linecap:square;stroke-width:0.8;"/>
     </g>
     <g id="line2d_8">
      <g>
       <use style="stroke:#000000;stroke-width:0.8;" x="137.910857" xlink:href="#m1c8ff1338e" y="298.944"/>
      </g>
     </g>
     <g id="text_2">
      <!-- 2 -->
      <defs>
       <path d="M 19.1875 8.296875 
L 53.609375 8.296875 
L 53.609375 0 
L 7.328125 0 
L 7.328125 8.296875 
Q 12.9375 14.109375 22.625 23.890625 
Q 32.328125 33.6875 34.8125 36.53125 
Q 39.546875 41.84375 41.421875 45.53125 
Q 43.3125 49.21875 43.3125 52.78125 
Q 43.3125 58.59375 39.234375 62.25 
Q 35.15625 65.921875 28.609375 65.921875 
Q 23.96875 65.921875 18.8125 64.3125 
Q 13.671875 62.703125 7.8125 59.421875 
L 7.8125 69.390625 
Q 13.765625 71.78125 18.9375 73 
Q 24.125 74.21875 28.421875 74.21875 
Q 39.75 74.21875 46.484375 68.546875 
Q 53.21875 62.890625 53.21875 53.421875 
Q 53.21875 48.921875 51.53125 44.890625 
Q 49.859375 40.875 45.40625 35.40625 
Q 44.1875 33.984375 37.640625 27.21875 
Q 31.109375 20.453125 19.1875 8.296875 
z
" id="DejaVuSans-50"/>
      </defs>
      <g transform="translate(131.548357 321.140875)scale(0.2 -0.2)">
       <use xlink:href="#DejaVuSans-50"/>
      </g>
     </g>
    </g>
    <g id="xtick_3">
     <g id="line2d_9">
      <path clip-path="url(#p89e7ec6be4)" d="M 218.221714 298.944 
L 218.221714 41.472 
" style="fill:none;stroke:#b0b0b0;stroke-linecap:square;stroke-width:0.8;"/>
     </g>
     <g id="line2d_10">
      <g>
       <use style="stroke:#000000;stroke-width:0.8;" x="218.221714" xlink:href="#m1c8ff1338e" y="298.944"/>
      </g>
     </g>
     <g id="text_3">
      <!-- 4 -->
      <defs>
       <path d="M 37.796875 64.3125 
L 12.890625 25.390625 
L 37.796875 25.390625 
z
M 35.203125 72.90625 
L 47.609375 72.90625 
L 47.609375 25.390625 
L 58.015625 25.390625 
L 58.015625 17.1875 
L 47.609375 17.1875 
L 47.609375 0 
L 37.796875 0 
L 37.796875 17.1875 
L 4.890625 17.1875 
L 4.890625 26.703125 
z
" id="DejaVuSans-52"/>
      </defs>
      <g transform="translate(211.859214 321.140875)scale(0.2 -0.2)">
       <use xlink:href="#DejaVuSans-52"/>
      </g>
     </g>
    </g>
    <g id="xtick_4">
     <g id="line2d_11">
      <path clip-path="url(#p89e7ec6be4)" d="M 298.532571 298.944 
L 298.532571 41.472 
" style="fill:none;stroke:#b0b0b0;stroke-linecap:square;stroke-width:0.8;"/>
     </g>
     <g id="line2d_12">
      <g>
       <use style="stroke:#000000;stroke-width:0.8;" x="298.532571" xlink:href="#m1c8ff1338e" y="298.944"/>
      </g>
     </g>
     <g id="text_4">
      <!-- 6 -->
      <defs>
       <path d="M 33.015625 40.375 
Q 26.375 40.375 22.484375 35.828125 
Q 18.609375 31.296875 18.609375 23.390625 
Q 18.609375 15.53125 22.484375 10.953125 
Q 26.375 6.390625 33.015625 6.390625 
Q 39.65625 6.390625 43.53125 10.953125 
Q 47.40625 15.53125 47.40625 23.390625 
Q 47.40625 31.296875 43.53125 35.828125 
Q 39.65625 40.375 33.015625 40.375 
z
M 52.59375 71.296875 
L 52.59375 62.3125 
Q 48.875 64.0625 45.09375 64.984375 
Q 41.3125 65.921875 37.59375 65.921875 
Q 27.828125 65.921875 22.671875 59.328125 
Q 17.53125 52.734375 16.796875 39.40625 
Q 19.671875 43.65625 24.015625 45.921875 
Q 28.375 48.1875 33.59375 48.1875 
Q 44.578125 48.1875 50.953125 41.515625 
Q 57.328125 34.859375 57.328125 23.390625 
Q 57.328125 12.15625 50.6875 5.359375 
Q 44.046875 -1.421875 33.015625 -1.421875 
Q 20.359375 -1.421875 13.671875 8.265625 
Q 6.984375 17.96875 6.984375 36.375 
Q 6.984375 53.65625 15.1875 63.9375 
Q 23.390625 74.21875 37.203125 74.21875 
Q 40.921875 74.21875 44.703125 73.484375 
Q 48.484375 72.75 52.59375 71.296875 
z
" id="DejaVuSans-54"/>
      </defs>
      <g transform="translate(292.170071 321.140875)scale(0.2 -0.2)">
       <use xlink:href="#DejaVuSans-54"/>
      </g>
     </g>
    </g>
    <g id="xtick_5">
     <g id="line2d_13">
      <path clip-path="url(#p89e7ec6be4)" d="M 57.6 298.944 
L 57.6 41.472 
" style="fill:none;stroke:#b0b0b0;stroke-linecap:square;stroke-width:0.8;"/>
     </g>
     <g id="line2d_14">
      <defs>
       <path d="M 0 0 
L 0 2 
" id="m678ab33b66" style="stroke:#000000;stroke-width:0.6;"/>
      </defs>
      <g>
       <use style="stroke:#000000;stroke-width:0.6;" x="57.6" xlink:href="#m678ab33b66" y="298.944"/>
      </g>
     </g>
    </g>
    <g id="xtick_6">
     <g id="line2d_15">
      <path clip-path="url(#p89e7ec6be4)" d="M 97.755429 298.944 
L 97.755429 41.472 
" style="fill:none;stroke:#b0b0b0;stroke-linecap:square;stroke-width:0.8;"/>
     </g>
     <g id="line2d_16">
      <g>
       <use style="stroke:#000000;stroke-width:0.6;" x="97.755429" xlink:href="#m678ab33b66" y="298.944"/>
      </g>
     </g>
    </g>
    <g id="xtick_7">
     <g id="line2d_17">
      <path clip-path="url(#p89e7ec6be4)" d="M 137.910857 298.944 
L 137.910857 41.472 
" style="fill:none;stroke:#b0b0b0;stroke-linecap:square;stroke-width:0.8;"/>
     </g>
     <g id="line2d_18">
      <g>
       <use style="stroke:#000000;stroke-width:0.6;" x="137.910857" xlink:href="#m678ab33b66" y="298.944"/>
      </g>
     </g>
    </g>
    <g id="xtick_8">
     <g id="line2d_19">
      <path clip-path="url(#p89e7ec6be4)" d="M 178.066286 298.944 
L 178.066286 41.472 
" style="fill:none;stroke:#b0b0b0;stroke-linecap:square;stroke-width:0.8;"/>
     </g>
     <g id="line2d_20">
      <g>
       <use style="stroke:#000000;stroke-width:0.6;" x="178.066286" xlink:href="#m678ab33b66" y="298.944"/>
      </g>
     </g>
    </g>
    <g id="xtick_9">
     <g id="line2d_21">
      <path clip-path="url(#p89e7ec6be4)" d="M 218.221714 298.944 
L 218.221714 41.472 
" style="fill:none;stroke:#b0b0b0;stroke-linecap:square;stroke-width:0.8;"/>
     </g>
     <g id="line2d_22">
      <g>
       <use style="stroke:#000000;stroke-width:0.6;" x="218.221714" xlink:href="#m678ab33b66" y="298.944"/>
      </g>
     </g>
    </g>
    <g id="xtick_10">
     <g id="line2d_23">
      <path clip-path="url(#p89e7ec6be4)" d="M 258.377143 298.944 
L 258.377143 41.472 
" style="fill:none;stroke:#b0b0b0;stroke-linecap:square;stroke-width:0.8;"/>
     </g>
     <g id="line2d_24">
      <g>
       <use style="stroke:#000000;stroke-width:0.6;" x="258.377143" xlink:href="#m678ab33b66" y="298.944"/>
      </g>
     </g>
    </g>
    <g id="xtick_11">
     <g id="line2d_25">
      <path clip-path="url(#p89e7ec6be4)" d="M 298.532571 298.944 
L 298.532571 41.472 
" style="fill:none;stroke:#b0b0b0;stroke-linecap:square;stroke-width:0.8;"/>
     </g>
     <g id="line2d_26">
      <g>
       <use style="stroke:#000000;stroke-width:0.6;" x="298.532571" xlink:href="#m678ab33b66" y="298.944"/>
      </g>
     </g>
    </g>
    <g id="xtick_12">
     <g id="line2d_27">
      <path clip-path="url(#p89e7ec6be4)" d="M 338.688 298.944 
L 338.688 41.472 
" style="fill:none;stroke:#b0b0b0;stroke-linecap:square;stroke-width:0.8;"/>
     </g>
     <g id="line2d_28">
      <g>
       <use style="stroke:#000000;stroke-width:0.6;" x="338.688" xlink:href="#m678ab33b66" y="298.944"/>
      </g>
     </g>
    </g>
    <g id="text_5">
     <!-- log10(# f-evals / dimension) -->
     <defs>
      <path d="M 9.421875 75.984375 
L 18.40625 75.984375 
L 18.40625 0 
L 9.421875 0 
z
" id="DejaVuSans-108"/>
      <path d="M 30.609375 48.390625 
Q 23.390625 48.390625 19.1875 42.75 
Q 14.984375 37.109375 14.984375 27.296875 
Q 14.984375 17.484375 19.15625 11.84375 
Q 23.34375 6.203125 30.609375 6.203125 
Q 37.796875 6.203125 41.984375 11.859375 
Q 46.1875 17.53125 46.1875 27.296875 
Q 46.1875 37.015625 41.984375 42.703125 
Q 37.796875 48.390625 30.609375 48.390625 
z
M 30.609375 56 
Q 42.328125 56 49.015625 48.375 
Q 55.71875 40.765625 55.71875 27.296875 
Q 55.71875 13.875 49.015625 6.21875 
Q 42.328125 -1.421875 30.609375 -1.421875 
Q 18.84375 -1.421875 12.171875 6.21875 
Q 5.515625 13.875 5.515625 27.296875 
Q 5.515625 40.765625 12.171875 48.375 
Q 18.84375 56 30.609375 56 
z
" id="DejaVuSans-111"/>
      <path d="M 45.40625 27.984375 
Q 45.40625 37.75 41.375 43.109375 
Q 37.359375 48.484375 30.078125 48.484375 
Q 22.859375 48.484375 18.828125 43.109375 
Q 14.796875 37.75 14.796875 27.984375 
Q 14.796875 18.265625 18.828125 12.890625 
Q 22.859375 7.515625 30.078125 7.515625 
Q 37.359375 7.515625 41.375 12.890625 
Q 45.40625 18.265625 45.40625 27.984375 
z
M 54.390625 6.78125 
Q 54.390625 -7.171875 48.1875 -13.984375 
Q 42 -20.796875 29.203125 -20.796875 
Q 24.46875 -20.796875 20.265625 -20.09375 
Q 16.0625 -19.390625 12.109375 -17.921875 
L 12.109375 -9.1875 
Q 16.0625 -11.328125 19.921875 -12.34375 
Q 23.78125 -13.375 27.78125 -13.375 
Q 36.625 -13.375 41.015625 -8.765625 
Q 45.40625 -4.15625 45.40625 5.171875 
L 45.40625 9.625 
Q 42.625 4.78125 38.28125 2.390625 
Q 33.9375 0 27.875 0 
Q 17.828125 0 11.671875 7.65625 
Q 5.515625 15.328125 5.515625 27.984375 
Q 5.515625 40.671875 11.671875 48.328125 
Q 17.828125 56 27.875 56 
Q 33.9375 56 38.28125 53.609375 
Q 42.625 51.21875 45.40625 46.390625 
L 45.40625 54.6875 
L 54.390625 54.6875 
z
" id="DejaVuSans-103"/>
      <path d="M 12.40625 8.296875 
L 28.515625 8.296875 
L 28.515625 63.921875 
L 10.984375 60.40625 
L 10.984375 69.390625 
L 28.421875 72.90625 
L 38.28125 72.90625 
L 38.28125 8.296875 
L 54.390625 8.296875 
L 54.390625 0 
L 12.40625 0 
z
" id="DejaVuSans-49"/>
      <path d="M 31 75.875 
Q 24.46875 64.65625 21.28125 53.65625 
Q 18.109375 42.671875 18.109375 31.390625 
Q 18.109375 20.125 21.3125 9.0625 
Q 24.515625 -2 31 -13.1875 
L 23.1875 -13.1875 
Q 15.875 -1.703125 12.234375 9.375 
Q 8.59375 20.453125 8.59375 31.390625 
Q 8.59375 42.28125 12.203125 53.3125 
Q 15.828125 64.359375 23.1875 75.875 
z
" id="DejaVuSans-40"/>
      <path d="M 51.125 44 
L 36.921875 44 
L 32.8125 27.6875 
L 47.125 27.6875 
z
M 43.796875 71.78125 
L 38.71875 51.515625 
L 52.984375 51.515625 
L 58.109375 71.78125 
L 65.921875 71.78125 
L 60.890625 51.515625 
L 76.125 51.515625 
L 76.125 44 
L 58.984375 44 
L 54.984375 27.6875 
L 70.515625 27.6875 
L 70.515625 20.21875 
L 53.078125 20.21875 
L 48 0 
L 40.1875 0 
L 45.21875 20.21875 
L 30.90625 20.21875 
L 25.875 0 
L 18.015625 0 
L 23.09375 20.21875 
L 7.71875 20.21875 
L 7.71875 27.6875 
L 24.90625 27.6875 
L 29 44 
L 13.28125 44 
L 13.28125 51.515625 
L 30.90625 51.515625 
L 35.890625 71.78125 
z
" id="DejaVuSans-35"/>
      <path id="DejaVuSans-32"/>
      <path d="M 37.109375 75.984375 
L 37.109375 68.5 
L 28.515625 68.5 
Q 23.6875 68.5 21.796875 66.546875 
Q 19.921875 64.59375 19.921875 59.515625 
L 19.921875 54.6875 
L 34.71875 54.6875 
L 34.71875 47.703125 
L 19.921875 47.703125 
L 19.921875 0 
L 10.890625 0 
L 10.890625 47.703125 
L 2.296875 47.703125 
L 2.296875 54.6875 
L 10.890625 54.6875 
L 10.890625 58.5 
Q 10.890625 67.625 15.140625 71.796875 
Q 19.390625 75.984375 28.609375 75.984375 
z
" id="DejaVuSans-102"/>
      <path d="M 4.890625 31.390625 
L 31.203125 31.390625 
L 31.203125 23.390625 
L 4.890625 23.390625 
z
" id="DejaVuSans-45"/>
      <path d="M 56.203125 29.59375 
L 56.203125 25.203125 
L 14.890625 25.203125 
Q 15.484375 15.921875 20.484375 11.0625 
Q 25.484375 6.203125 34.421875 6.203125 
Q 39.59375 6.203125 44.453125 7.46875 
Q 49.3125 8.734375 54.109375 11.28125 
L 54.109375 2.78125 
Q 49.265625 0.734375 44.1875 -0.34375 
Q 39.109375 -1.421875 33.890625 -1.421875 
Q 20.796875 -1.421875 13.15625 6.1875 
Q 5.515625 13.8125 5.515625 26.8125 
Q 5.515625 40.234375 12.765625 48.109375 
Q 20.015625 56 32.328125 56 
Q 43.359375 56 49.78125 48.890625 
Q 56.203125 41.796875 56.203125 29.59375 
z
M 47.21875 32.234375 
Q 47.125 39.59375 43.09375 43.984375 
Q 39.0625 48.390625 32.421875 48.390625 
Q 24.90625 48.390625 20.390625 44.140625 
Q 15.875 39.890625 15.1875 32.171875 
z
" id="DejaVuSans-101"/>
      <path d="M 2.984375 54.6875 
L 12.5 54.6875 
L 29.59375 8.796875 
L 46.6875 54.6875 
L 56.203125 54.6875 
L 35.6875 0 
L 23.484375 0 
z
" id="DejaVuSans-118"/>
      <path d="M 34.28125 27.484375 
Q 23.390625 27.484375 19.1875 25 
Q 14.984375 22.515625 14.984375 16.5 
Q 14.984375 11.71875 18.140625 8.90625 
Q 21.296875 6.109375 26.703125 6.109375 
Q 34.1875 6.109375 38.703125 11.40625 
Q 43.21875 16.703125 43.21875 25.484375 
L 43.21875 27.484375 
z
M 52.203125 31.203125 
L 52.203125 0 
L 43.21875 0 
L 43.21875 8.296875 
Q 40.140625 3.328125 35.546875 0.953125 
Q 30.953125 -1.421875 24.3125 -1.421875 
Q 15.921875 -1.421875 10.953125 3.296875 
Q 6 8.015625 6 15.921875 
Q 6 25.140625 12.171875 29.828125 
Q 18.359375 34.515625 30.609375 34.515625 
L 43.21875 34.515625 
L 43.21875 35.40625 
Q 43.21875 41.609375 39.140625 45 
Q 35.0625 48.390625 27.6875 48.390625 
Q 23 48.390625 18.546875 47.265625 
Q 14.109375 46.140625 10.015625 43.890625 
L 10.015625 52.203125 
Q 14.9375 54.109375 19.578125 55.046875 
Q 24.21875 56 28.609375 56 
Q 40.484375 56 46.34375 49.84375 
Q 52.203125 43.703125 52.203125 31.203125 
z
" id="DejaVuSans-97"/>
      <path d="M 44.28125 53.078125 
L 44.28125 44.578125 
Q 40.484375 46.53125 36.375 47.5 
Q 32.28125 48.484375 27.875 48.484375 
Q 21.1875 48.484375 17.84375 46.4375 
Q 14.5 44.390625 14.5 40.28125 
Q 14.5 37.15625 16.890625 35.375 
Q 19.28125 33.59375 26.515625 31.984375 
L 29.59375 31.296875 
Q 39.15625 29.25 43.1875 25.515625 
Q 47.21875 21.78125 47.21875 15.09375 
Q 47.21875 7.46875 41.1875 3.015625 
Q 35.15625 -1.421875 24.609375 -1.421875 
Q 20.21875 -1.421875 15.453125 -0.5625 
Q 10.6875 0.296875 5.421875 2 
L 5.421875 11.28125 
Q 10.40625 8.6875 15.234375 7.390625 
Q 20.0625 6.109375 24.8125 6.109375 
Q 31.15625 6.109375 34.5625 8.28125 
Q 37.984375 10.453125 37.984375 14.40625 
Q 37.984375 18.0625 35.515625 20.015625 
Q 33.0625 21.96875 24.703125 23.78125 
L 21.578125 24.515625 
Q 13.234375 26.265625 9.515625 29.90625 
Q 5.8125 33.546875 5.8125 39.890625 
Q 5.8125 47.609375 11.28125 51.796875 
Q 16.75 56 26.8125 56 
Q 31.78125 56 36.171875 55.265625 
Q 40.578125 54.546875 44.28125 53.078125 
z
" id="DejaVuSans-115"/>
      <path d="M 25.390625 72.90625 
L 33.6875 72.90625 
L 8.296875 -9.28125 
L 0 -9.28125 
z
" id="DejaVuSans-47"/>
      <path d="M 45.40625 46.390625 
L 45.40625 75.984375 
L 54.390625 75.984375 
L 54.390625 0 
L 45.40625 0 
L 45.40625 8.203125 
Q 42.578125 3.328125 38.25 0.953125 
Q 33.9375 -1.421875 27.875 -1.421875 
Q 17.96875 -1.421875 11.734375 6.484375 
Q 5.515625 14.40625 5.515625 27.296875 
Q 5.515625 40.1875 11.734375 48.09375 
Q 17.96875 56 27.875 56 
Q 33.9375 56 38.25 53.625 
Q 42.578125 51.265625 45.40625 46.390625 
z
M 14.796875 27.296875 
Q 14.796875 17.390625 18.875 11.75 
Q 22.953125 6.109375 30.078125 6.109375 
Q 37.203125 6.109375 41.296875 11.75 
Q 45.40625 17.390625 45.40625 27.296875 
Q 45.40625 37.203125 41.296875 42.84375 
Q 37.203125 48.484375 30.078125 48.484375 
Q 22.953125 48.484375 18.875 42.84375 
Q 14.796875 37.203125 14.796875 27.296875 
z
" id="DejaVuSans-100"/>
      <path d="M 9.421875 54.6875 
L 18.40625 54.6875 
L 18.40625 0 
L 9.421875 0 
z
M 9.421875 75.984375 
L 18.40625 75.984375 
L 18.40625 64.59375 
L 9.421875 64.59375 
z
" id="DejaVuSans-105"/>
      <path d="M 52 44.1875 
Q 55.375 50.25 60.0625 53.125 
Q 64.75 56 71.09375 56 
Q 79.640625 56 84.28125 50.015625 
Q 88.921875 44.046875 88.921875 33.015625 
L 88.921875 0 
L 79.890625 0 
L 79.890625 32.71875 
Q 79.890625 40.578125 77.09375 44.375 
Q 74.3125 48.1875 68.609375 48.1875 
Q 61.625 48.1875 57.5625 43.546875 
Q 53.515625 38.921875 53.515625 30.90625 
L 53.515625 0 
L 44.484375 0 
L 44.484375 32.71875 
Q 44.484375 40.625 41.703125 44.40625 
Q 38.921875 48.1875 33.109375 48.1875 
Q 26.21875 48.1875 22.15625 43.53125 
Q 18.109375 38.875 18.109375 30.90625 
L 18.109375 0 
L 9.078125 0 
L 9.078125 54.6875 
L 18.109375 54.6875 
L 18.109375 46.1875 
Q 21.1875 51.21875 25.484375 53.609375 
Q 29.78125 56 35.6875 56 
Q 41.65625 56 45.828125 52.96875 
Q 50 49.953125 52 44.1875 
z
" id="DejaVuSans-109"/>
      <path d="M 54.890625 33.015625 
L 54.890625 0 
L 45.90625 0 
L 45.90625 32.71875 
Q 45.90625 40.484375 42.875 44.328125 
Q 39.84375 48.1875 33.796875 48.1875 
Q 26.515625 48.1875 22.3125 43.546875 
Q 18.109375 38.921875 18.109375 30.90625 
L 18.109375 0 
L 9.078125 0 
L 9.078125 54.6875 
L 18.109375 54.6875 
L 18.109375 46.1875 
Q 21.34375 51.125 25.703125 53.5625 
Q 30.078125 56 35.796875 56 
Q 45.21875 56 50.046875 50.171875 
Q 54.890625 44.34375 54.890625 33.015625 
z
" id="DejaVuSans-110"/>
      <path d="M 8.015625 75.875 
L 15.828125 75.875 
Q 23.140625 64.359375 26.78125 53.3125 
Q 30.421875 42.28125 30.421875 31.390625 
Q 30.421875 20.453125 26.78125 9.375 
Q 23.140625 -1.703125 15.828125 -13.1875 
L 8.015625 -13.1875 
Q 14.5 -2 17.703125 9.0625 
Q 20.90625 20.125 20.90625 31.390625 
Q 20.90625 42.671875 17.703125 53.65625 
Q 14.5 64.65625 8.015625 75.875 
z
" id="DejaVuSans-41"/>
     </defs>
     <g transform="translate(77.303219 342.217594)scale(0.17 -0.17)">
      <use xlink:href="#DejaVuSans-108"/>
      <use x="27.783203" xlink:href="#DejaVuSans-111"/>
      <use x="88.964844" xlink:href="#DejaVuSans-103"/>
      <use x="152.441406" xlink:href="#DejaVuSans-49"/>
      <use x="216.064453" xlink:href="#DejaVuSans-48"/>
      <use x="279.6875" xlink:href="#DejaVuSans-40"/>
      <use x="318.701172" xlink:href="#DejaVuSans-35"/>
      <use x="402.490234" xlink:href="#DejaVuSans-32"/>
      <use x="434.277344" xlink:href="#DejaVuSans-102"/>
      <use x="469.404297" xlink:href="#DejaVuSans-45"/>
      <use x="505.488281" xlink:href="#DejaVuSans-101"/>
      <use x="567.011719" xlink:href="#DejaVuSans-118"/>
      <use x="626.191406" xlink:href="#DejaVuSans-97"/>
      <use x="687.470703" xlink:href="#DejaVuSans-108"/>
      <use x="715.253906" xlink:href="#DejaVuSans-115"/>
      <use x="767.353516" xlink:href="#DejaVuSans-32"/>
      <use x="799.140625" xlink:href="#DejaVuSans-47"/>
      <use x="832.832031" xlink:href="#DejaVuSans-32"/>
      <use x="864.619141" xlink:href="#DejaVuSans-100"/>
      <use x="928.095703" xlink:href="#DejaVuSans-105"/>
      <use x="955.878906" xlink:href="#DejaVuSans-109"/>
      <use x="1053.291016" xlink:href="#DejaVuSans-101"/>
      <use x="1114.814453" xlink:href="#DejaVuSans-110"/>
      <use x="1178.193359" xlink:href="#DejaVuSans-115"/>
      <use x="1230.292969" xlink:href="#DejaVuSans-105"/>
      <use x="1258.076172" xlink:href="#DejaVuSans-111"/>
      <use x="1319.257812" xlink:href="#DejaVuSans-110"/>
      <use x="1382.636719" xlink:href="#DejaVuSans-41"/>
     </g>
    </g>
   </g>
   <g id="matplotlib.axis_2">
    <g id="ytick_1">
     <g id="line2d_29">
      <path clip-path="url(#p89e7ec6be4)" d="M 57.6 298.944 
L 338.688 298.944 
" style="fill:none;stroke:#b0b0b0;stroke-linecap:square;stroke-width:0.8;"/>
     </g>
     <g id="line2d_30">
      <defs>
       <path d="M 0 0 
L -3.5 0 
" id="m89d345d9f0" style="stroke:#000000;stroke-width:0.8;"/>
      </defs>
      <g>
       <use style="stroke:#000000;stroke-width:0.8;" x="57.6" xlink:href="#m89d345d9f0" y="298.944"/>
      </g>
     </g>
     <g id="text_6">
      <!-- 0.0 -->
      <defs>
       <path d="M 10.6875 12.40625 
L 21 12.40625 
L 21 0 
L 10.6875 0 
z
" id="DejaVuSans-46"/>
      </defs>
      <g transform="translate(25.155 305.02275)scale(0.16 -0.16)">
       <use xlink:href="#DejaVuSans-48"/>
       <use x="63.623047" xlink:href="#DejaVuSans-46"/>
       <use x="95.410156" xlink:href="#DejaVuSans-48"/>
      </g>
     </g>
    </g>
    <g id="ytick_2">
     <g id="line2d_31">
      <path clip-path="url(#p89e7ec6be4)" d="M 57.6 247.959446 
L 338.688 247.959446 
" style="fill:none;stroke:#b0b0b0;stroke-linecap:square;stroke-width:0.8;"/>
     </g>
     <g id="line2d_32">
      <g>
       <use style="stroke:#000000;stroke-width:0.8;" x="57.6" xlink:href="#m89d345d9f0" y="247.959446"/>
      </g>
     </g>
     <g id="text_7">
      <!-- 0.2 -->
      <g transform="translate(25.155 254.038196)scale(0.16 -0.16)">
       <use xlink:href="#DejaVuSans-48"/>
       <use x="63.623047" xlink:href="#DejaVuSans-46"/>
       <use x="95.410156" xlink:href="#DejaVuSans-50"/>
      </g>
     </g>
    </g>
    <g id="ytick_3">
     <g id="line2d_33">
      <path clip-path="url(#p89e7ec6be4)" d="M 57.6 196.974891 
L 338.688 196.974891 
" style="fill:none;stroke:#b0b0b0;stroke-linecap:square;stroke-width:0.8;"/>
     </g>
     <g id="line2d_34">
      <g>
       <use style="stroke:#000000;stroke-width:0.8;" x="57.6" xlink:href="#m89d345d9f0" y="196.974891"/>
      </g>
     </g>
     <g id="text_8">
      <!-- 0.4 -->
      <g transform="translate(25.155 203.053641)scale(0.16 -0.16)">
       <use xlink:href="#DejaVuSans-48"/>
       <use x="63.623047" xlink:href="#DejaVuSans-46"/>
       <use x="95.410156" xlink:href="#DejaVuSans-52"/>
      </g>
     </g>
    </g>
    <g id="ytick_4">
     <g id="line2d_35">
      <path clip-path="url(#p89e7ec6be4)" d="M 57.6 145.990337 
L 338.688 145.990337 
" style="fill:none;stroke:#b0b0b0;stroke-linecap:square;stroke-width:0.8;"/>
     </g>
     <g id="line2d_36">
      <g>
       <use style="stroke:#000000;stroke-width:0.8;" x="57.6" xlink:href="#m89d345d9f0" y="145.990337"/>
      </g>
     </g>
     <g id="text_9">
      <!-- 0.6 -->
      <g transform="translate(25.155 152.069087)scale(0.16 -0.16)">
       <use xlink:href="#DejaVuSans-48"/>
       <use x="63.623047" xlink:href="#DejaVuSans-46"/>
       <use x="95.410156" xlink:href="#DejaVuSans-54"/>
      </g>
     </g>
    </g>
    <g id="ytick_5">
     <g id="line2d_37">
      <path clip-path="url(#p89e7ec6be4)" d="M 57.6 95.005782 
L 338.688 95.005782 
" style="fill:none;stroke:#b0b0b0;stroke-linecap:square;stroke-width:0.8;"/>
     </g>
     <g id="line2d_38">
      <g>
       <use style="stroke:#000000;stroke-width:0.8;" x="57.6" xlink:href="#m89d345d9f0" y="95.005782"/>
      </g>
     </g>
     <g id="text_10">
      <!-- 0.8 -->
      <defs>
       <path d="M 31.78125 34.625 
Q 24.75 34.625 20.71875 30.859375 
Q 16.703125 27.09375 16.703125 20.515625 
Q 16.703125 13.921875 20.71875 10.15625 
Q 24.75 6.390625 31.78125 6.390625 
Q 38.8125 6.390625 42.859375 10.171875 
Q 46.921875 13.96875 46.921875 20.515625 
Q 46.921875 27.09375 42.890625 30.859375 
Q 38.875 34.625 31.78125 34.625 
z
M 21.921875 38.8125 
Q 15.578125 40.375 12.03125 44.71875 
Q 8.5 49.078125 8.5 55.328125 
Q 8.5 64.0625 14.71875 69.140625 
Q 20.953125 74.21875 31.78125 74.21875 
Q 42.671875 74.21875 48.875 69.140625 
Q 55.078125 64.0625 55.078125 55.328125 
Q 55.078125 49.078125 51.53125 44.71875 
Q 48 40.375 41.703125 38.8125 
Q 48.828125 37.15625 52.796875 32.3125 
Q 56.78125 27.484375 56.78125 20.515625 
Q 56.78125 9.90625 50.3125 4.234375 
Q 43.84375 -1.421875 31.78125 -1.421875 
Q 19.734375 -1.421875 13.25 4.234375 
Q 6.78125 9.90625 6.78125 20.515625 
Q 6.78125 27.484375 10.78125 32.3125 
Q 14.796875 37.15625 21.921875 38.8125 
z
M 18.3125 54.390625 
Q 18.3125 48.734375 21.84375 45.5625 
Q 25.390625 42.390625 31.78125 42.390625 
Q 38.140625 42.390625 41.71875 45.5625 
Q 45.3125 48.734375 45.3125 54.390625 
Q 45.3125 60.0625 41.71875 63.234375 
Q 38.140625 66.40625 31.78125 66.40625 
Q 25.390625 66.40625 21.84375 63.234375 
Q 18.3125 60.0625 18.3125 54.390625 
z
" id="DejaVuSans-56"/>
      </defs>
      <g transform="translate(25.155 101.084532)scale(0.16 -0.16)">
       <use xlink:href="#DejaVuSans-48"/>
       <use x="63.623047" xlink:href="#DejaVuSans-46"/>
       <use x="95.410156" xlink:href="#DejaVuSans-56"/>
      </g>
     </g>
    </g>
    <g id="ytick_6">
     <g id="line2d_39">
      <path clip-path="url(#p89e7ec6be4)" d="M 57.6 44.021228 
L 338.688 44.021228 
" style="fill:none;stroke:#b0b0b0;stroke-linecap:square;stroke-width:0.8;"/>
     </g>
     <g id="line2d_40">
      <g>
       <use style="stroke:#000000;stroke-width:0.8;" x="57.6" xlink:href="#m89d345d9f0" y="44.021228"/>
      </g>
     </g>
     <g id="text_11">
      <!-- 1.0 -->
      <g transform="translate(25.155 50.099978)scale(0.16 -0.16)">
       <use xlink:href="#DejaVuSans-49"/>
       <use x="63.623047" xlink:href="#DejaVuSans-46"/>
       <use x="95.410156" xlink:href="#DejaVuSans-48"/>
      </g>
     </g>
    </g>
    <g id="text_12">
     <!-- Fraction of function,target pairs -->
     <defs>
      <path d="M 9.8125 72.90625 
L 51.703125 72.90625 
L 51.703125 64.59375 
L 19.671875 64.59375 
L 19.671875 43.109375 
L 48.578125 43.109375 
L 48.578125 34.8125 
L 19.671875 34.8125 
L 19.671875 0 
L 9.8125 0 
z
" id="DejaVuSans-70"/>
      <path d="M 41.109375 46.296875 
Q 39.59375 47.171875 37.8125 47.578125 
Q 36.03125 48 33.890625 48 
Q 26.265625 48 22.1875 43.046875 
Q 18.109375 38.09375 18.109375 28.8125 
L 18.109375 0 
L 9.078125 0 
L 9.078125 54.6875 
L 18.109375 54.6875 
L 18.109375 46.1875 
Q 20.953125 51.171875 25.484375 53.578125 
Q 30.03125 56 36.53125 56 
Q 37.453125 56 38.578125 55.875 
Q 39.703125 55.765625 41.0625 55.515625 
z
" id="DejaVuSans-114"/>
      <path d="M 48.78125 52.59375 
L 48.78125 44.1875 
Q 44.96875 46.296875 41.140625 47.34375 
Q 37.3125 48.390625 33.40625 48.390625 
Q 24.65625 48.390625 19.8125 42.84375 
Q 14.984375 37.3125 14.984375 27.296875 
Q 14.984375 17.28125 19.8125 11.734375 
Q 24.65625 6.203125 33.40625 6.203125 
Q 37.3125 6.203125 41.140625 7.25 
Q 44.96875 8.296875 48.78125 10.40625 
L 48.78125 2.09375 
Q 45.015625 0.34375 40.984375 -0.53125 
Q 36.96875 -1.421875 32.421875 -1.421875 
Q 20.0625 -1.421875 12.78125 6.34375 
Q 5.515625 14.109375 5.515625 27.296875 
Q 5.515625 40.671875 12.859375 48.328125 
Q 20.21875 56 33.015625 56 
Q 37.15625 56 41.109375 55.140625 
Q 45.0625 54.296875 48.78125 52.59375 
z
" id="DejaVuSans-99"/>
      <path d="M 18.3125 70.21875 
L 18.3125 54.6875 
L 36.8125 54.6875 
L 36.8125 47.703125 
L 18.3125 47.703125 
L 18.3125 18.015625 
Q 18.3125 11.328125 20.140625 9.421875 
Q 21.96875 7.515625 27.59375 7.515625 
L 36.8125 7.515625 
L 36.8125 0 
L 27.59375 0 
Q 17.1875 0 13.234375 3.875 
Q 9.28125 7.765625 9.28125 18.015625 
L 9.28125 47.703125 
L 2.6875 47.703125 
L 2.6875 54.6875 
L 9.28125 54.6875 
L 9.28125 70.21875 
z
" id="DejaVuSans-116"/>
      <path d="M 8.5 21.578125 
L 8.5 54.6875 
L 17.484375 54.6875 
L 17.484375 21.921875 
Q 17.484375 14.15625 20.5 10.265625 
Q 23.53125 6.390625 29.59375 6.390625 
Q 36.859375 6.390625 41.078125 11.03125 
Q 45.3125 15.671875 45.3125 23.6875 
L 45.3125 54.6875 
L 54.296875 54.6875 
L 54.296875 0 
L 45.3125 0 
L 45.3125 8.40625 
Q 42.046875 3.421875 37.71875 1 
Q 33.40625 -1.421875 27.6875 -1.421875 
Q 18.265625 -1.421875 13.375 4.4375 
Q 8.5 10.296875 8.5 21.578125 
z
M 31.109375 56 
z
" id="DejaVuSans-117"/>
      <path d="M 11.71875 12.40625 
L 22.015625 12.40625 
L 22.015625 4 
L 14.015625 -11.625 
L 7.71875 -11.625 
L 11.71875 4 
z
" id="DejaVuSans-44"/>
      <path d="M 18.109375 8.203125 
L 18.109375 -20.796875 
L 9.078125 -20.796875 
L 9.078125 54.6875 
L 18.109375 54.6875 
L 18.109375 46.390625 
Q 20.953125 51.265625 25.265625 53.625 
Q 29.59375 56 35.59375 56 
Q 45.5625 56 51.78125 48.09375 
Q 58.015625 40.1875 58.015625 27.296875 
Q 58.015625 14.40625 51.78125 6.484375 
Q 45.5625 -1.421875 35.59375 -1.421875 
Q 29.59375 -1.421875 25.265625 0.953125 
Q 20.953125 3.328125 18.109375 8.203125 
z
M 48.6875 27.296875 
Q 48.6875 37.203125 44.609375 42.84375 
Q 40.53125 48.484375 33.40625 48.484375 
Q 26.265625 48.484375 22.1875 42.84375 
Q 18.109375 37.203125 18.109375 27.296875 
Q 18.109375 17.390625 22.1875 11.75 
Q 26.265625 6.109375 33.40625 6.109375 
Q 40.53125 6.109375 44.609375 11.75 
Q 48.6875 17.390625 48.6875 27.296875 
z
" id="DejaVuSans-112"/>
     </defs>
     <g transform="translate(17.619531 305.347375)rotate(-90)scale(0.17 -0.17)">
      <use xlink:href="#DejaVuSans-70"/>
      <use x="57.410156" xlink:href="#DejaVuSans-114"/>
      <use x="98.523438" xlink:href="#DejaVuSans-97"/>
      <use x="159.802734" xlink:href="#DejaVuSans-99"/>
      <use x="214.783203" xlink:href="#DejaVuSans-116"/>
      <use x="253.992188" xlink:href="#DejaVuSans-105"/>
      <use x="281.775391" xlink:href="#DejaVuSans-111"/>
      <use x="342.957031" xlink:href="#DejaVuSans-110"/>
      <use x="406.335938" xlink:href="#DejaVuSans-32"/>
      <use x="438.123047" xlink:href="#DejaVuSans-111"/>
      <use x="499.304688" xlink:href="#DejaVuSans-102"/>
      <use x="534.509766" xlink:href="#DejaVuSans-32"/>
      <use x="566.296875" xlink:href="#DejaVuSans-102"/>
      <use x="601.501953" xlink:href="#DejaVuSans-117"/>
      <use x="664.880859" xlink:href="#DejaVuSans-110"/>
      <use x="728.259766" xlink:href="#DejaVuSans-99"/>
      <use x="783.240234" xlink:href="#DejaVuSans-116"/>
      <use x="822.449219" xlink:href="#DejaVuSans-105"/>
      <use x="850.232422" xlink:href="#DejaVuSans-111"/>
      <use x="911.414062" xlink:href="#DejaVuSans-110"/>
      <use x="974.792969" xlink:href="#DejaVuSans-44"/>
      <use x="1006.580078" xlink:href="#DejaVuSans-116"/>
      <use x="1045.789062" xlink:href="#DejaVuSans-97"/>
      <use x="1107.068359" xlink:href="#DejaVuSans-114"/>
      <use x="1148.166016" xlink:href="#DejaVuSans-103"/>
      <use x="1211.642578" xlink:href="#DejaVuSans-101"/>
      <use x="1273.166016" xlink:href="#DejaVuSans-116"/>
      <use x="1312.375" xlink:href="#DejaVuSans-32"/>
      <use x="1344.162109" xlink:href="#DejaVuSans-112"/>
      <use x="1407.638672" xlink:href="#DejaVuSans-97"/>
      <use x="1468.917969" xlink:href="#DejaVuSans-105"/>
      <use x="1496.701172" xlink:href="#DejaVuSans-114"/>
      <use x="1537.814453" xlink:href="#DejaVuSans-115"/>
     </g>
    </g>
   </g>
   <g id="line2d_41">
    <defs>
     <path d="M 0 1.5 
C 0.397805 1.5 0.77937 1.341951 1.06066 1.06066 
C 1.341951 0.77937 1.5 0.397805 1.5 0 
C 1.5 -0.397805 1.341951 -0.77937 1.06066 -1.06066 
C 0.77937 -1.341951 0.397805 -1.5 0 -1.5 
C -0.397805 -1.5 -0.77937 -1.341951 -1.06066 -1.06066 
C -1.341951 -0.77937 -1.5 -0.397805 -1.5 0 
C -1.5 0.397805 -1.341951 0.77937 -1.06066 1.06066 
C -0.77937 1.341951 -0.397805 1.5 0 1.5 
z
" id="m5bd09dec59" style="stroke:#f5deb3;"/>
    </defs>
    <g>
     <use style="fill:#f5deb3;stroke:#f5deb3;" x="132.501978" xlink:href="#m5bd09dec59" y="44.021228"/>
     <use style="fill:#f5deb3;stroke:#f5deb3;" x="132.501978" xlink:href="#m5bd09dec59" y="44.021228"/>
    </g>
   </g>
   <g id="line2d_42">
    <defs>
     <path d="M 0 1.5 
C 0.397805 1.5 0.77937 1.341951 1.06066 1.06066 
C 1.341951 0.77937 1.5 0.397805 1.5 0 
C 1.5 -0.397805 1.341951 -0.77937 1.06066 -1.06066 
C 0.77937 -1.341951 0.397805 -1.5 0 -1.5 
C -0.397805 -1.5 -0.77937 -1.341951 -1.06066 -1.06066 
C -1.341951 -0.77937 -1.5 -0.397805 -1.5 0 
C -1.5 0.397805 -1.341951 0.77937 -1.06066 1.06066 
C -0.77937 1.341951 -0.397805 1.5 0 1.5 
z
" id="m97ffb2c39d" style="stroke:#000080;"/>
    </defs>
    <g>
     <use style="fill:#000080;stroke:#000080;" x="147.636905" xlink:href="#m97ffb2c39d" y="44.021228"/>
     <use style="fill:#000080;stroke:#000080;" x="147.636905" xlink:href="#m97ffb2c39d" y="44.021228"/>
    </g>
   </g>
   <g id="line2d_43">
    <path d="M 38.440992 298.944 
L 38.440992 275.950966 
L 50.52898 275.950966 
L 50.52898 272.951874 
L 57.6 272.951874 
L 57.6 269.452934 
L 62.616969 269.452934 
L 62.616969 268.453237 
L 66.508432 268.453237 
L 66.508432 265.454146 
L 69.687988 265.454146 
L 69.687988 261.955206 
L 76.759008 261.955206 
L 76.759008 261.455357 
L 78.59642 261.455357 
L 78.59642 260.955508 
L 80.258561 260.955508 
L 80.258561 259.955811 
L 84.464254 259.955811 
L 84.464254 257.956417 
L 87.850195 257.956417 
L 87.850195 257.456568 
L 89.78989 257.456568 
L 89.78989 255.957023 
L 92.34655 255.957023 
L 92.34655 254.957326 
L 93.121756 254.957326 
L 93.121756 254.457477 
L 93.863965 254.457477 
L 93.863965 253.957628 
L 94.575872 253.957628 
L 94.575872 251.958234 
L 98.880934 251.958234 
L 98.880934 250.958537 
L 99.938184 250.958537 
L 99.938184 249.458991 
L 101.412804 249.458991 
L 101.412804 246.959748 
L 104.033617 246.959748 
L 104.033617 246.4599 
L 104.434538 246.4599 
L 104.434538 245.960051 
L 105.584798 245.960051 
L 105.584798 243.960657 
L 105.951954 243.960657 
L 105.951954 241.961263 
L 107.009204 241.961263 
L 107.009204 240.461717 
L 107.347841 240.461717 
L 107.347841 239.961868 
L 107.680028 239.961868 
L 107.680028 238.962171 
L 108.006005 238.962171 
L 108.006005 238.462323 
L 108.326001 238.462323 
L 108.326001 237.962474 
L 108.640231 237.962474 
L 108.640231 237.462626 
L 108.948899 237.462626 
L 108.948899 233.963685 
L 110.968922 233.963685 
L 110.968922 233.463837 
L 111.239304 233.463837 
L 111.239304 232.46414 
L 111.767808 232.46414 
L 111.767808 230.464745 
L 112.531694 230.464745 
L 112.531694 227.465654 
L 113.965867 227.465654 
L 113.965867 226.965805 
L 114.418861 226.965805 
L 114.418861 224.466563 
L 114.641021 224.466563 
L 114.641021 223.966714 
L 116.121606 223.966714 
L 116.121606 220.967623 
L 116.323218 220.967623 
L 116.323218 219.967925 
L 116.522527 219.967925 
L 116.522527 218.46838 
L 117.107138 218.46838 
L 117.107138 217.968531 
L 117.486268 217.968531 
L 117.486268 215.969137 
L 117.672786 215.969137 
L 117.672786 213.969743 
L 117.857331 213.969743 
L 117.857331 213.469894 
L 118.220662 213.469894 
L 118.220662 212.970045 
L 118.751849 212.970045 
L 118.751849 210.470803 
L 119.097192 210.470803 
L 119.097192 209.970954 
L 119.43583 209.970954 
L 119.43583 207.97156 
L 119.602714 207.97156 
L 119.602714 207.471711 
L 119.931767 207.471711 
L 119.931767 206.472014 
L 120.093994 206.472014 
L 120.093994 204.972468 
L 120.41399 204.972468 
L 120.41399 203.972771 
L 121.189196 203.972771 
L 121.189196 203.472923 
L 121.340187 203.472923 
L 121.340187 202.973074 
L 121.638301 202.973074 
L 121.638301 202.473225 
L 121.785469 202.473225 
L 121.785469 201.973377 
L 121.931406 201.973377 
L 121.931406 201.473528 
L 122.076131 201.473528 
L 122.076131 199.973983 
L 122.219665 199.973983 
L 122.219665 198.974285 
L 122.503236 198.974285 
L 122.503236 198.474437 
L 122.643312 198.474437 
L 122.643312 197.47474 
L 122.782271 197.47474 
L 122.782271 195.475345 
L 123.056911 195.475345 
L 123.056911 194.975497 
L 123.593547 194.975497 
L 123.593547 192.476254 
L 123.725164 192.476254 
L 123.725164 191.476557 
L 124.114161 191.476557 
L 124.114161 190.976708 
L 124.867052 190.976708 
L 124.867052 190.47686 
L 125.470548 190.47686 
L 125.470548 189.477162 
L 125.706218 189.477162 
L 125.706218 187.477768 
L 125.822869 187.477768 
L 125.822869 186.478071 
L 126.281824 186.478071 
L 126.281824 185.978222 
L 126.618283 185.978222 
L 126.729009 182.479282 
L 127.272333 182.479282 
L 127.378995 179.480191 
L 127.695124 179.480191 
L 127.799239 178.480494 
L 127.902737 178.480494 
L 127.902737 177.480797 
L 128.107907 177.480797 
L 128.107907 176.980948 
L 128.709321 176.980948 
L 128.807571 173.981857 
L 129.385722 173.981857 
L 129.480244 171.482614 
L 129.574256 171.482614 
L 129.667765 169.48322 
L 130.036864 169.48322 
L 130.036864 167.983674 
L 130.576266 167.983674 
L 130.664567 163.485037 
L 130.839837 163.485037 
L 130.926816 158.486551 
L 131.270459 158.486551 
L 131.355321 154.987611 
L 131.690703 154.987611 
L 131.690703 153.987914 
L 131.856005 153.987914 
L 131.856005 151.98852 
L 132.422528 151.98852 
L 132.501978 150.488974 
L 132.73818 150.488974 
L 132.73818 149.489277 
L 132.971225 149.489277 
L 133.04822 147.489882 
L 133.201197 147.489882 
L 133.201197 146.990034 
L 133.428175 146.990034 
L 133.503183 145.490488 
L 133.57787 145.490488 
L 133.652238 142.491397 
L 133.873458 142.491397 
L 133.873458 141.491699 
L 134.019394 141.491699 
L 134.019394 140.991851 
L 134.164119 140.991851 
L 134.236034 138.992457 
L 134.307653 138.992457 
L 134.37898 137.992759 
L 134.661403 137.992759 
L 134.661403 137.492911 
L 135.00812 137.492911 
L 135.076644 134.493819 
L 135.212889 134.493819 
L 135.212889 133.993971 
L 135.482227 133.993971 
L 135.482227 130.994879 
L 135.615352 130.994879 
L 135.615352 127.495939 
L 135.813153 127.495939 
L 135.813153 126.996091 
L 135.943785 126.996091 
L 136.008736 124.496848 
L 136.073445 124.496848 
L 136.073445 123.497151 
L 136.202149 123.497151 
L 136.202149 122.497454 
L 136.393441 122.497454 
L 136.393441 119.998211 
L 136.519813 119.998211 
L 136.582658 116.499271 
L 136.831795 116.499271 
L 136.893527 113.500179 
L 136.955041 113.500179 
L 136.955041 113.000331 
L 137.077422 113.000331 
L 137.077422 112.000634 
L 137.37967 112.000634 
L 137.37967 111.500785 
L 137.558536 111.500785 
L 137.617753 106.502299 
L 137.735587 106.502299 
L 137.794206 104.502905 
L 137.852629 104.502905 
L 137.852629 104.003056 
L 138.084384 104.003056 
L 138.084384 101.003965 
L 138.199116 101.003965 
L 138.199116 100.504116 
L 138.482688 100.504116 
L 138.538853 97.505025 
L 138.594838 97.505025 
L 138.594838 96.005479 
L 138.816998 96.005479 
L 138.816998 95.005782 
L 139.199094 95.005782 
L 139.253002 92.006691 
L 139.413734 92.006691 
L 139.413734 91.506842 
L 139.625765 91.506842 
L 139.678372 89.507448 
L 139.783113 89.507448 
L 139.887228 87.508054 
L 139.990725 87.508054 
L 140.093612 85.508659 
L 140.144829 85.508659 
L 140.144829 84.508962 
L 140.348205 84.508962 
L 140.39868 81.509871 
L 140.499195 81.509871 
L 140.499195 81.010022 
L 140.64889 81.010022 
L 140.747977 77.011234 
L 140.79731 77.011234 
L 140.79731 74.012142 
L 141.041904 74.012142 
L 141.138789 73.012445 
L 141.235139 73.012445 
L 141.33096 70.513202 
L 141.378673 70.513202 
L 141.378673 69.513505 
L 141.615302 69.513505 
L 141.709062 67.514111 
L 141.755753 67.514111 
L 141.80232 65.514716 
L 141.987354 65.514716 
L 141.987354 64.515019 
L 142.124852 64.515019 
L 142.124852 64.015171 
L 142.351634 64.015171 
L 142.351634 63.515322 
L 142.664255 63.515322 
L 142.664255 62.515625 
L 142.927826 62.515625 
L 143.014805 60.016382 
L 143.058132 60.016382 
L 143.144465 58.016988 
L 143.861538 58.016988 
L 143.902815 54.018199 
L 144.229555 54.018199 
L 144.269971 52.018805 
L 144.430703 52.018805 
L 144.430703 51.019108 
L 145.059213 51.019108 
L 145.059213 50.519259 
L 145.174578 50.519259 
L 145.174578 50.019411 
L 145.289185 50.019411 
L 145.289185 49.019713 
L 145.553708 49.019713 
L 145.553708 48.020016 
L 146.143677 48.020016 
L 146.143677 47.520168 
L 147.061745 47.520168 
L 147.061745 46.520471 
L 147.334773 46.520471 
L 147.334773 45.020925 
L 147.636905 45.020925 
L 147.636905 44.021228 
L 338.688 44.021228 
L 338.688 44.021228 
" style="fill:none;stroke:#000080;stroke-linecap:square;stroke-width:1.5;"/>
   </g>
   <g id="line2d_44">
    <defs>
     <path d="M 0 6 
C 1.591219 6 3.117479 5.367802 4.242641 4.242641 
C 5.367802 3.117479 6 1.591219 6 0 
C 6 -1.591219 5.367802 -3.117479 4.242641 -4.242641 
C 3.117479 -5.367802 1.591219 -6 0 -6 
C -1.591219 -6 -3.117479 -5.367802 -4.242641 -4.242641 
C -5.367802 -3.117479 -6 -1.591219 -6 0 
C -6 1.591219 -5.367802 3.117479 -4.242641 4.242641 
C -3.117479 5.367802 -1.591219 6 0 6 
z
" id="me935637122" style="stroke:#000080;stroke-width:1.5;"/>
    </defs>
    <g>
     <use style="fill-opacity:0;stroke:#000080;stroke-width:1.5;" x="124.114161" xlink:href="#me935637122" y="191.476557"/>
     <use style="fill-opacity:0;stroke:#000080;stroke-width:1.5;" x="143.144465" xlink:href="#me935637122" y="58.016988"/>
     <use style="fill-opacity:0;stroke:#000080;stroke-width:1.5;" x="147.636905" xlink:href="#me935637122" y="44.021228"/>
     <use style="fill-opacity:0;stroke:#000080;stroke-width:1.5;" x="147.636905" xlink:href="#me935637122" y="44.021228"/>
     <use style="fill-opacity:0;stroke:#000080;stroke-width:1.5;" x="147.636905" xlink:href="#me935637122" y="44.021228"/>
     <use style="fill-opacity:0;stroke:#000080;stroke-width:1.5;" x="338.688" xlink:href="#me935637122" y="44.021228"/>
    </g>
   </g>
   <g id="line2d_45">
    <path style="fill:none;stroke:#000080;stroke-linecap:square;stroke-width:1.5;"/>
    <g/>
   </g>
   <g id="line2d_46">
    <defs>
     <path d="M 0 1.5 
C 0.397805 1.5 0.77937 1.341951 1.06066 1.06066 
C 1.341951 0.77937 1.5 0.397805 1.5 0 
C 1.5 -0.397805 1.341951 -0.77937 1.06066 -1.06066 
C 0.77937 -1.341951 0.397805 -1.5 0 -1.5 
C -0.397805 -1.5 -0.77937 -1.341951 -1.06066 -1.06066 
C -1.341951 -0.77937 -1.5 -0.397805 -1.5 0 
C -1.5 0.397805 -1.341951 0.77937 -1.06066 1.06066 
C -0.77937 1.341951 -0.397805 1.5 0 1.5 
z
" id="mec032ed277" style="stroke:#ff00ff;"/>
    </defs>
    <g>
     <use style="fill:#ff00ff;stroke:#ff00ff;" x="145.516164" xlink:href="#mec032ed277" y="44.021228"/>
     <use style="fill:#ff00ff;stroke:#ff00ff;" x="145.516164" xlink:href="#mec032ed277" y="44.021228"/>
    </g>
   </g>
   <g id="line2d_47">
    <path d="M 38.440992 298.944 
L 38.440992 281.949149 
L 50.52898 281.949149 
L 50.52898 276.950663 
L 57.6 276.950663 
L 57.6 271.452328 
L 62.616969 271.452328 
L 62.616969 269.952783 
L 66.508432 269.952783 
L 66.508432 267.953388 
L 69.687988 267.953388 
L 69.687988 265.454146 
L 72.376266 265.454146 
L 72.376266 263.9546 
L 74.704957 263.9546 
L 74.704957 263.454751 
L 76.759008 263.454751 
L 76.759008 262.954903 
L 78.59642 262.954903 
L 78.59642 262.455054 
L 80.258561 262.455054 
L 80.258561 260.955508 
L 81.775977 260.955508 
L 81.775977 259.455963 
L 83.171864 259.455963 
L 83.171864 258.456266 
L 84.464254 258.456266 
L 84.464254 257.956417 
L 85.66744 257.956417 
L 85.66744 254.957326 
L 87.850195 254.957326 
L 87.850195 254.457477 
L 90.684409 254.457477 
L 90.684409 253.957628 
L 91.535274 253.957628 
L 91.535274 251.958234 
L 92.34655 251.958234 
L 92.34655 251.458386 
L 93.121756 251.458386 
L 93.121756 250.958537 
L 93.863965 250.958537 
L 93.863965 250.458688 
L 94.575872 250.458688 
L 94.575872 249.458991 
L 95.259853 249.458991 
L 95.259853 248.459294 
L 98.32726 248.459294 
L 98.32726 247.959446 
L 99.938184 247.959446 
L 99.938184 246.959748 
L 101.877879 246.959748 
L 101.877879 245.960051 
L 103.623262 245.960051 
L 103.623262 245.460203 
L 107.009204 245.460203 
L 107.009204 244.960354 
L 107.347841 244.960354 
L 107.347841 244.460506 
L 107.680028 244.460506 
L 107.680028 242.96096 
L 108.006005 242.96096 
L 108.006005 242.461111 
L 108.640231 242.461111 
L 108.640231 241.461414 
L 110.968922 241.461414 
L 110.968922 240.461717 
L 111.239304 240.461717 
L 111.239304 239.46202 
L 111.767808 239.46202 
L 111.767808 237.962474 
L 112.026172 237.962474 
L 112.026172 236.462928 
L 112.280765 236.462928 
L 112.280765 233.963685 
L 113.26352 233.963685 
L 113.26352 231.964291 
L 113.500792 231.964291 
L 113.500792 230.964594 
L 114.641021 230.964594 
L 114.641021 229.964897 
L 114.860386 229.964897 
L 114.860386 228.9652 
L 115.077025 228.9652 
L 115.077025 227.465654 
L 115.291007 227.465654 
L 115.291007 226.965805 
L 115.711251 226.965805 
L 115.711251 226.465957 
L 116.121606 226.465957 
L 116.121606 225.46626 
L 116.522527 225.46626 
L 116.522527 222.967017 
L 116.719583 222.967017 
L 116.719583 222.467168 
L 116.914437 222.467168 
L 116.914437 220.467774 
L 117.107138 220.467774 
L 117.107138 215.469288 
L 117.486268 215.469288 
L 117.486268 213.969743 
L 118.220662 213.969743 
L 118.220662 213.469894 
L 118.751849 213.469894 
L 118.751849 211.4705 
L 118.925375 211.4705 
L 118.925375 210.470803 
L 119.931767 210.470803 
L 119.931767 208.471408 
L 120.093994 208.471408 
L 120.093994 207.97156 
L 120.728219 207.97156 
L 120.728219 205.472317 
L 120.883236 205.472317 
L 120.883236 203.472923 
L 121.036887 203.472923 
L 121.036887 202.973074 
L 121.189196 202.973074 
L 121.189196 202.473225 
L 121.489881 202.473225 
L 121.489881 199.973983 
L 121.931406 199.973983 
L 121.931406 198.974285 
L 122.076131 198.974285 
L 122.076131 198.474437 
L 122.362027 198.474437 
L 122.362027 197.47474 
L 122.643312 197.47474 
L 122.643312 196.475043 
L 122.920132 196.475043 
L 122.920132 195.975194 
L 123.192626 195.975194 
L 123.192626 194.975497 
L 123.593547 194.975497 
L 123.593547 193.475951 
L 123.725164 193.475951 
L 123.725164 191.476557 
L 123.855796 191.476557 
L 123.855796 190.976708 
L 123.985457 190.976708 
L 123.985457 188.477465 
L 124.114161 188.477465 
L 124.114161 185.478374 
L 124.241922 185.478374 
L 124.241922 184.978525 
L 124.494669 184.978525 
L 124.494669 183.978828 
L 124.619683 183.978828 
L 124.619683 181.979434 
L 124.989434 181.979434 
L 124.989434 180.479888 
L 125.110962 180.479888 
L 125.110962 179.98004 
L 125.822869 179.98004 
L 125.822869 178.980342 
L 126.50685 178.980342 
L 126.50685 178.480494 
L 126.618283 178.480494 
L 126.618283 177.980645 
L 127.05703 177.980645 
L 127.165014 175.481402 
L 127.272333 175.481402 
L 127.378995 173.482008 
L 127.799239 173.482008 
L 127.799239 172.98216 
L 128.107907 172.98216 
L 128.107907 172.482311 
L 128.310692 172.482311 
L 128.310692 171.982462 
L 128.709321 171.982462 
L 128.709321 170.982765 
L 128.905271 170.982765 
L 128.905271 169.48322 
L 129.099042 169.48322 
L 129.099042 168.983371 
L 129.290685 168.983371 
L 129.385722 166.484128 
L 129.480244 166.484128 
L 129.574256 163.984885 
L 129.667765 163.984885 
L 129.667765 162.48534 
L 129.853291 162.48534 
L 129.853291 161.985491 
L 130.036864 161.985491 
L 130.127931 160.985794 
L 130.398313 160.985794 
L 130.398313 159.986097 
L 130.576266 159.986097 
L 130.664567 156.487157 
L 130.752422 156.487157 
L 130.839837 154.987611 
L 131.099484 154.987611 
L 131.099484 152.488368 
L 131.270459 152.488368 
L 131.355321 148.489579 
L 131.690703 148.489579 
L 131.690703 147.989731 
L 131.856005 147.989731 
L 131.938072 144.990639 
L 132.019755 144.990639 
L 132.019755 143.990942 
L 132.262533 143.990942 
L 132.342714 142.991245 
L 132.581068 142.991245 
L 132.581068 141.991548 
L 133.04822 141.991548 
L 133.04822 140.991851 
L 133.352844 140.991851 
L 133.352844 139.492305 
L 133.503183 139.492305 
L 133.503183 137.992759 
L 133.652238 137.992759 
L 133.72629 135.993365 
L 133.800029 135.993365 
L 133.800029 135.493517 
L 133.946579 135.493517 
L 134.019394 132.494425 
L 134.307653 132.494425 
L 134.37898 130.495031 
L 134.520763 130.495031 
L 134.591225 127.995788 
L 134.661403 127.995788 
L 134.661403 127.495939 
L 134.800918 127.495939 
L 134.800918 124.996697 
L 134.939326 124.996697 
L 135.00812 123.497151 
L 135.280614 123.497151 
L 135.280614 122.997302 
L 135.415281 122.997302 
L 135.415281 121.997605 
L 135.548916 121.997605 
L 135.615352 120.498059 
L 135.747468 120.498059 
L 135.813153 119.498362 
L 135.943785 119.498362 
L 136.008736 114.000028 
L 136.137916 114.000028 
L 136.137916 112.000634 
L 136.393441 112.000634 
L 136.393441 110.001239 
L 136.582658 110.001239 
L 136.582658 109.001542 
L 136.831795 109.001542 
L 136.893527 106.502299 
L 137.016339 106.502299 
L 137.016339 106.002451 
L 137.259399 106.002451 
L 137.259399 105.002754 
L 137.676769 105.002754 
L 137.735587 103.003359 
L 137.794206 103.003359 
L 137.852629 101.503814 
L 137.968891 101.503814 
L 138.026733 99.004571 
L 138.084384 99.004571 
L 138.084384 97.505025 
L 138.199116 97.505025 
L 138.199116 97.005176 
L 138.369812 97.005176 
L 138.426341 96.005479 
L 138.538853 96.005479 
L 138.538853 95.005782 
L 138.650644 95.005782 
L 138.761723 93.006388 
L 138.816998 93.006388 
L 138.927025 89.507448 
L 139.036363 89.507448 
L 139.036363 89.007599 
L 139.306744 89.007599 
L 139.306744 88.507751 
L 139.466984 88.507751 
L 139.466984 87.008205 
L 139.625765 87.008205 
L 139.730821 84.009114 
L 139.783113 84.009114 
L 139.783113 82.509568 
L 139.990725 82.509568 
L 139.990725 82.009719 
L 140.144829 82.009719 
L 140.246813 79.510476 
L 140.348205 79.510476 
L 140.44901 77.011234 
L 140.747977 77.011234 
L 140.846504 74.012142 
L 140.993259 74.012142 
L 141.041904 70.513202 
L 141.138789 70.513202 
L 141.138789 69.013656 
L 141.283115 69.013656 
L 141.378673 68.013959 
L 141.521035 68.013959 
L 141.615302 65.014868 
L 141.895083 65.014868 
L 141.987354 62.515625 
L 142.033307 62.515625 
L 142.07914 60.516231 
L 142.351634 60.516231 
L 142.396639 57.517139 
L 142.752555 57.517139 
L 142.752555 57.017291 
L 142.971369 57.017291 
L 143.014805 54.518048 
L 143.230373 54.518048 
L 143.273169 52.018805 
L 143.358447 52.018805 
L 143.358447 51.019108 
L 143.485587 51.019108 
L 143.485587 50.019411 
L 143.611807 50.019411 
L 143.695448 49.019713 
L 143.861538 49.019713 
L 143.861538 48.020016 
L 144.189046 48.020016 
L 144.189046 47.020319 
L 144.747789 47.020319 
L 144.747789 46.020622 
L 144.865226 46.020622 
L 144.865226 45.520773 
L 144.981877 45.520773 
L 144.981877 45.020925 
L 145.136208 45.020925 
L 145.136208 44.521076 
L 145.516164 44.521076 
L 145.516164 44.021228 
L 338.688 44.021228 
L 338.688 44.021228 
" style="fill:none;stroke:#ff00ff;stroke-linecap:square;stroke-width:1.5;"/>
   </g>
   <g id="line2d_48">
    <defs>
     <path d="M -0 8.485281 
L 5.091169 0 
L 0 -8.485281 
L -5.091169 -0 
z
" id="mdeaaeb1245" style="stroke:#ff00ff;stroke-linejoin:miter;stroke-width:1.5;"/>
    </defs>
    <g>
     <use style="fill-opacity:0;stroke:#ff00ff;stroke-linejoin:miter;stroke-width:1.5;" x="74.704957" xlink:href="#mdeaaeb1245" y="263.9546"/>
     <use style="fill-opacity:0;stroke:#ff00ff;stroke-linejoin:miter;stroke-width:1.5;" x="128.107907" xlink:href="#mdeaaeb1245" y="172.482311"/>
     <use style="fill-opacity:0;stroke:#ff00ff;stroke-linejoin:miter;stroke-width:1.5;" x="145.516164" xlink:href="#mdeaaeb1245" y="44.521076"/>
     <use style="fill-opacity:0;stroke:#ff00ff;stroke-linejoin:miter;stroke-width:1.5;" x="145.516164" xlink:href="#mdeaaeb1245" y="44.021228"/>
     <use style="fill-opacity:0;stroke:#ff00ff;stroke-linejoin:miter;stroke-width:1.5;" x="145.516164" xlink:href="#mdeaaeb1245" y="44.021228"/>
     <use style="fill-opacity:0;stroke:#ff00ff;stroke-linejoin:miter;stroke-width:1.5;" x="338.688" xlink:href="#mdeaaeb1245" y="44.021228"/>
    </g>
   </g>
   <g id="line2d_49">
    <path style="fill:none;stroke:#ff00ff;stroke-linecap:square;stroke-width:1.5;"/>
    <g/>
   </g>
   <g id="line2d_50">
    <defs>
     <path d="M 0 1.5 
C 0.397805 1.5 0.77937 1.341951 1.06066 1.06066 
C 1.341951 0.77937 1.5 0.397805 1.5 0 
C 1.5 -0.397805 1.341951 -0.77937 1.06066 -1.06066 
C 0.77937 -1.341951 0.397805 -1.5 0 -1.5 
C -0.397805 -1.5 -0.77937 -1.341951 -1.06066 -1.06066 
C -1.341951 -0.77937 -1.5 -0.397805 -1.5 0 
C -1.5 0.397805 -1.341951 0.77937 -1.06066 1.06066 
C -0.77937 1.341951 -0.397805 1.5 0 1.5 
z
" id="m80ecac357b" style="stroke:#ffa500;"/>
    </defs>
    <g>
     <use style="fill:#ffa500;stroke:#ffa500;" x="145.851187" xlink:href="#m80ecac357b" y="44.021228"/>
     <use style="fill:#ffa500;stroke:#ffa500;" x="145.851187" xlink:href="#m80ecac357b" y="44.021228"/>
    </g>
   </g>
   <g id="line2d_51">
    <path d="M 38.440992 298.944 
L 38.440992 277.95036 
L 50.52898 277.95036 
L 50.52898 274.951268 
L 57.6 274.951268 
L 57.6 271.952177 
L 62.616969 271.952177 
L 62.616969 269.952783 
L 66.508432 269.952783 
L 66.508432 266.453843 
L 69.687988 266.453843 
L 69.687988 265.454146 
L 72.376266 265.454146 
L 72.376266 263.9546 
L 74.704957 263.9546 
L 74.704957 262.954903 
L 76.759008 262.954903 
L 76.759008 262.455054 
L 78.59642 262.455054 
L 78.59642 261.955206 
L 80.258561 261.955206 
L 80.258561 260.955508 
L 84.464254 260.955508 
L 84.464254 260.45566 
L 86.792945 260.45566 
L 86.792945 257.956417 
L 87.850195 257.956417 
L 87.850195 256.456871 
L 92.34655 256.456871 
L 92.34655 255.957023 
L 93.863965 255.957023 
L 93.863965 253.957628 
L 94.575872 253.957628 
L 94.575872 252.458083 
L 95.259853 252.458083 
L 95.259853 251.958234 
L 95.918017 251.958234 
L 95.918017 250.958537 
L 100.443706 250.958537 
L 100.443706 249.95884 
L 100.934985 249.95884 
L 100.934985 249.458991 
L 101.412804 249.458991 
L 101.412804 246.4599 
L 101.877879 246.4599 
L 101.877879 245.960051 
L 102.330873 245.960051 
L 102.330873 244.960354 
L 103.203018 244.960354 
L 103.203018 244.460506 
L 104.033617 244.460506 
L 104.033617 243.460808 
L 104.826449 243.460808 
L 104.826449 242.96096 
L 106.311539 242.96096 
L 106.311539 241.961263 
L 109.843417 241.961263 
L 109.843417 240.961566 
L 110.968922 240.961566 
L 110.968922 239.961868 
L 111.239304 239.961868 
L 111.239304 238.462323 
L 111.505558 238.462323 
L 111.505558 236.462928 
L 112.026172 236.462928 
L 112.026172 235.96308 
L 112.280765 235.96308 
L 112.280765 235.463231 
L 112.779064 235.463231 
L 112.779064 234.963383 
L 113.26352 234.963383 
L 113.26352 234.463534 
L 114.860386 234.463534 
L 114.860386 233.963685 
L 115.077025 233.963685 
L 115.077025 232.46414 
L 115.291007 232.46414 
L 115.291007 229.465048 
L 115.711251 229.465048 
L 115.711251 228.465351 
L 116.121606 228.465351 
L 116.121606 226.965805 
L 116.323218 226.965805 
L 116.323218 225.966108 
L 116.522527 225.966108 
L 116.522527 225.46626 
L 116.719583 225.46626 
L 116.719583 223.466865 
L 117.486268 223.466865 
L 117.486268 220.967623 
L 117.672786 220.967623 
L 117.672786 219.967925 
L 118.039942 219.967925 
L 118.039942 219.468077 
L 118.220662 219.468077 
L 118.220662 218.968228 
L 118.399528 218.968228 
L 118.399528 217.468683 
L 118.751849 217.468683 
L 118.751849 216.468985 
L 118.925375 216.468985 
L 118.925375 214.469591 
L 119.931767 214.469591 
L 119.931767 212.470197 
L 120.093994 212.470197 
L 120.093994 211.970348 
L 120.254726 211.970348 
L 120.254726 211.4705 
L 120.41399 211.4705 
L 120.41399 208.971257 
L 121.036887 208.971257 
L 121.036887 207.471711 
L 121.189196 207.471711 
L 121.189196 206.472014 
L 121.489881 206.472014 
L 121.489881 205.972165 
L 121.785469 205.972165 
L 121.785469 204.972468 
L 122.643312 204.972468 
L 122.643312 202.973074 
L 123.192626 202.973074 
L 123.192626 202.473225 
L 123.327293 202.473225 
L 123.327293 196.974891 
L 123.593547 196.974891 
L 123.593547 196.475043 
L 123.725164 196.475043 
L 123.725164 195.475345 
L 123.855796 195.475345 
L 123.855796 194.975497 
L 123.985457 194.975497 
L 123.985457 192.976103 
L 124.114161 192.976103 
L 124.114161 191.976405 
L 124.241922 191.976405 
L 124.241922 190.47686 
L 124.619683 190.47686 
L 124.619683 189.977011 
L 124.743806 189.977011 
L 124.743806 189.477162 
L 125.23165 189.477162 
L 125.23165 188.477465 
L 125.351508 188.477465 
L 125.351508 187.477768 
L 126.053856 187.477768 
L 126.053856 185.978222 
L 126.50685 185.978222 
L 126.50685 184.978525 
L 126.948374 184.978525 
L 126.948374 184.478677 
L 127.272333 184.478677 
L 127.378995 183.47898 
L 127.695124 183.47898 
L 127.695124 182.979131 
L 128.005624 182.979131 
L 128.107907 181.979434 
L 128.209594 181.979434 
L 128.310692 180.979737 
L 128.610515 180.979737 
L 128.709321 176.980948 
L 128.905271 176.980948 
L 128.905271 175.981251 
L 129.385722 175.981251 
L 129.480244 172.98216 
L 129.760775 172.98216 
L 129.853291 170.482917 
L 130.036864 170.482917 
L 130.127931 168.483522 
L 130.839837 168.483522 
L 130.839837 166.484128 
L 131.099484 166.484128 
L 131.099484 165.98428 
L 131.270459 165.98428 
L 131.355321 157.986702 
L 131.439773 157.986702 
L 131.523818 155.48746 
L 131.77355 155.48746 
L 131.77355 154.987611 
L 131.938072 154.987611 
L 132.019755 153.987914 
L 132.101058 153.987914 
L 132.101058 149.989125 
L 132.342714 149.989125 
L 132.422528 147.489882 
L 132.581068 147.489882 
L 132.581068 146.990034 
L 132.73818 146.990034 
L 132.816208 145.490488 
L 132.971225 145.490488 
L 133.04822 142.491397 
L 133.503183 142.491397 
L 133.57787 140.991851 
L 133.652238 140.991851 
L 133.652238 140.492002 
L 134.019394 140.492002 
L 134.091907 137.992759 
L 134.164119 137.992759 
L 134.164119 137.492911 
L 134.307653 137.492911 
L 134.307653 136.493214 
L 134.939326 136.493214 
L 134.939326 135.993365 
L 135.076644 135.993365 
L 135.076644 132.994274 
L 135.348078 132.994274 
L 135.415281 129.995182 
L 135.548916 129.995182 
L 135.548916 129.495334 
L 135.878591 129.495334 
L 135.943785 128.495637 
L 136.008736 128.495637 
L 136.073445 125.496545 
L 136.393441 125.496545 
L 136.456742 118.998514 
L 136.519813 118.998514 
L 136.519813 117.998817 
L 136.645276 117.998817 
L 136.645276 116.499271 
L 136.769843 116.499271 
L 136.769843 114.499877 
L 136.893527 114.499877 
L 136.893527 113.500179 
L 137.077422 113.500179 
L 137.138292 112.000634 
L 137.198951 112.000634 
L 137.198951 111.500785 
L 137.37967 111.500785 
L 137.37967 110.001239 
L 137.676769 110.001239 
L 137.735587 109.001542 
L 137.852629 109.001542 
L 137.852629 108.501694 
L 137.968891 108.501694 
L 137.968891 107.501997 
L 138.141844 107.501997 
L 138.141844 106.002451 
L 138.256201 106.002451 
L 138.256201 103.503208 
L 138.369812 103.503208 
L 138.426341 102.503511 
L 138.482688 102.503511 
L 138.482688 101.503814 
L 138.872098 101.503814 
L 138.872098 101.003965 
L 139.036363 101.003965 
L 139.036363 100.004268 
L 139.253002 100.004268 
L 139.360321 98.004874 
L 139.413734 98.004874 
L 139.520072 97.005176 
L 139.625765 97.005176 
L 139.730821 92.506539 
L 139.835248 92.506539 
L 139.835248 92.006691 
L 140.144829 92.006691 
L 140.195896 90.007296 
L 140.348205 90.007296 
L 140.39868 87.508054 
L 140.499195 87.508054 
L 140.599134 85.508659 
L 140.698504 85.508659 
L 140.79731 83.009416 
L 140.89556 83.009416 
L 140.89556 82.009719 
L 141.041904 82.009719 
L 141.138789 80.510174 
L 141.235139 80.510174 
L 141.235139 80.010325 
L 141.378673 80.010325 
L 141.47371 76.511385 
L 141.615302 76.511385 
L 141.709062 73.512294 
L 141.755753 73.512294 
L 141.80232 71.013051 
L 141.941279 71.013051 
L 142.033307 69.513505 
L 142.07914 69.513505 
L 142.07914 67.514111 
L 142.351634 67.514111 
L 142.441528 63.015474 
L 142.486301 63.015474 
L 142.486301 62.515625 
L 142.752555 62.515625 
L 142.840411 61.515928 
L 142.884173 61.515928 
L 142.884173 61.016079 
L 143.014805 61.016079 
L 143.014805 60.516231 
L 143.230373 60.516231 
L 143.273169 59.016685 
L 143.358447 59.016685 
L 143.40093 57.017291 
L 143.611807 57.017291 
L 143.611807 56.517442 
L 143.861538 56.517442 
L 143.943994 55.017896 
L 144.026061 55.017896 
L 144.026061 54.518048 
L 144.148442 54.518048 
L 144.229555 52.018805 
L 144.269971 52.018805 
L 144.269971 51.518956 
L 144.430703 51.518956 
L 144.470655 50.019411 
L 144.629556 50.019411 
L 144.708467 48.020016 
L 145.059213 48.020016 
L 145.059213 47.520168 
L 145.251067 47.520168 
L 145.327221 46.020622 
L 145.516164 46.020622 
L 145.516164 45.020925 
L 145.851187 45.020925 
L 145.851187 44.021228 
L 338.688 44.021228 
L 338.688 44.021228 
" style="fill:none;stroke:#ffa500;stroke-linecap:square;stroke-width:1.5;"/>
   </g>
   <g id="line2d_52">
    <defs>
     <path d="M 0 -6 
L -1.347084 -1.854102 
L -5.706339 -1.854102 
L -2.179628 0.708204 
L -3.526712 4.854102 
L -0 2.291796 
L 3.526712 4.854102 
L 2.179628 0.708204 
L 5.706339 -1.854102 
L 1.347084 -1.854102 
z
" id="mcb76ef8c48" style="stroke:#ffa500;stroke-linejoin:bevel;stroke-width:1.5;"/>
    </defs>
    <g>
     <use style="fill-opacity:0;stroke:#ffa500;stroke-linejoin:bevel;stroke-width:1.5;" x="72.376266" xlink:href="#mcb76ef8c48" y="265.454146"/>
     <use style="fill-opacity:0;stroke:#ffa500;stroke-linejoin:bevel;stroke-width:1.5;" x="131.77355" xlink:href="#mcb76ef8c48" y="154.987611"/>
     <use style="fill-opacity:0;stroke:#ffa500;stroke-linejoin:bevel;stroke-width:1.5;" x="143.943994" xlink:href="#mcb76ef8c48" y="55.517745"/>
     <use style="fill-opacity:0;stroke:#ffa500;stroke-linejoin:bevel;stroke-width:1.5;" x="145.851187" xlink:href="#mcb76ef8c48" y="45.020925"/>
     <use style="fill-opacity:0;stroke:#ffa500;stroke-linejoin:bevel;stroke-width:1.5;" x="145.851187" xlink:href="#mcb76ef8c48" y="44.021228"/>
     <use style="fill-opacity:0;stroke:#ffa500;stroke-linejoin:bevel;stroke-width:1.5;" x="338.688" xlink:href="#mcb76ef8c48" y="44.021228"/>
    </g>
   </g>
   <g id="line2d_53">
    <path style="fill:none;stroke:#ffa500;stroke-linecap:square;stroke-width:1.5;"/>
    <g/>
   </g>
   <g id="line2d_54">
    <path d="M 338.688 44.021228 
L 369.60768 293.845545 
" style="fill:none;stroke:#000080;stroke-linecap:square;stroke-width:1.5;"/>
    <g>
     <use style="fill-opacity:0;stroke:#000080;stroke-width:1.5;" x="338.688" xlink:href="#me935637122" y="44.021228"/>
     <use style="fill-opacity:0;stroke:#000080;stroke-width:1.5;" x="369.60768" xlink:href="#me935637122" y="293.845545"/>
    </g>
   </g>
   <g id="line2d_55">
    <path d="M 338.688 44.021228 
L 369.60768 212.270257 
" style="fill:none;stroke:#ffa500;stroke-linecap:square;stroke-width:1.5;"/>
    <g>
     <use style="fill-opacity:0;stroke:#ffa500;stroke-linejoin:bevel;stroke-width:1.5;" x="338.688" xlink:href="#mcb76ef8c48" y="44.021228"/>
     <use style="fill-opacity:0;stroke:#ffa500;stroke-linejoin:bevel;stroke-width:1.5;" x="369.60768" xlink:href="#mcb76ef8c48" y="212.270257"/>
    </g>
   </g>
   <g id="line2d_56">
    <path d="M 338.688 44.021228 
L 369.60768 130.69497 
" style="fill:none;stroke:#ff00ff;stroke-linecap:square;stroke-width:1.5;"/>
    <g>
     <use style="fill-opacity:0;stroke:#ff00ff;stroke-linejoin:miter;stroke-width:1.5;" x="338.688" xlink:href="#mdeaaeb1245" y="44.021228"/>
     <use style="fill-opacity:0;stroke:#ff00ff;stroke-linejoin:miter;stroke-width:1.5;" x="369.60768" xlink:href="#mdeaaeb1245" y="130.69497"/>
    </g>
   </g>
   <g id="line2d_57">
    <path d="M 338.688 298.944 
L 338.688 44.021228 
" style="fill:none;stroke:#000000;stroke-linecap:square;stroke-width:1.5;"/>
   </g>
   <g id="patch_3">
    <path d="M 57.6 298.944 
L 57.6 41.472 
" style="fill:none;stroke:#000000;stroke-linecap:square;stroke-linejoin:miter;stroke-width:0.8;"/>
   </g>
   <g id="patch_4">
    <path d="M 338.688 298.944 
L 338.688 41.472 
" style="fill:none;stroke:#000000;stroke-linecap:square;stroke-linejoin:miter;stroke-width:0.8;"/>
   </g>
   <g id="patch_5">
    <path d="M 57.6 298.944 
L 338.688 298.944 
" style="fill:none;stroke:#000000;stroke-linecap:square;stroke-linejoin:miter;stroke-width:0.8;"/>
   </g>
   <g id="patch_6">
    <path d="M 57.6 41.472 
L 338.688 41.472 
" style="fill:none;stroke:#000000;stroke-linecap:square;stroke-linejoin:miter;stroke-width:0.8;"/>
   </g>
   <g id="text_13">
    <!-- BIPOPsaAC -->
    <defs>
     <path d="M 19.671875 34.8125 
L 19.671875 8.109375 
L 35.5 8.109375 
Q 43.453125 8.109375 47.28125 11.40625 
Q 51.125 14.703125 51.125 21.484375 
Q 51.125 28.328125 47.28125 31.5625 
Q 43.453125 34.8125 35.5 34.8125 
z
M 19.671875 64.796875 
L 19.671875 42.828125 
L 34.28125 42.828125 
Q 41.5 42.828125 45.03125 45.53125 
Q 48.578125 48.25 48.578125 53.8125 
Q 48.578125 59.328125 45.03125 62.0625 
Q 41.5 64.796875 34.28125 64.796875 
z
M 9.8125 72.90625 
L 35.015625 72.90625 
Q 46.296875 72.90625 52.390625 68.21875 
Q 58.5 63.53125 58.5 54.890625 
Q 58.5 48.1875 55.375 44.234375 
Q 52.25 40.28125 46.1875 39.3125 
Q 53.46875 37.75 57.5 32.78125 
Q 61.53125 27.828125 61.53125 20.40625 
Q 61.53125 10.640625 54.890625 5.3125 
Q 48.25 0 35.984375 0 
L 9.8125 0 
z
" id="DejaVuSans-66"/>
     <path d="M 9.8125 72.90625 
L 19.671875 72.90625 
L 19.671875 0 
L 9.8125 0 
z
" id="DejaVuSans-73"/>
     <path d="M 19.671875 64.796875 
L 19.671875 37.40625 
L 32.078125 37.40625 
Q 38.96875 37.40625 42.71875 40.96875 
Q 46.484375 44.53125 46.484375 51.125 
Q 46.484375 57.671875 42.71875 61.234375 
Q 38.96875 64.796875 32.078125 64.796875 
z
M 9.8125 72.90625 
L 32.078125 72.90625 
Q 44.34375 72.90625 50.609375 67.359375 
Q 56.890625 61.8125 56.890625 51.125 
Q 56.890625 40.328125 50.609375 34.8125 
Q 44.34375 29.296875 32.078125 29.296875 
L 19.671875 29.296875 
L 19.671875 0 
L 9.8125 0 
z
" id="DejaVuSans-80"/>
     <path d="M 39.40625 66.21875 
Q 28.65625 66.21875 22.328125 58.203125 
Q 16.015625 50.203125 16.015625 36.375 
Q 16.015625 22.609375 22.328125 14.59375 
Q 28.65625 6.59375 39.40625 6.59375 
Q 50.140625 6.59375 56.421875 14.59375 
Q 62.703125 22.609375 62.703125 36.375 
Q 62.703125 50.203125 56.421875 58.203125 
Q 50.140625 66.21875 39.40625 66.21875 
z
M 39.40625 74.21875 
Q 54.734375 74.21875 63.90625 63.9375 
Q 73.09375 53.65625 73.09375 36.375 
Q 73.09375 19.140625 63.90625 8.859375 
Q 54.734375 -1.421875 39.40625 -1.421875 
Q 24.03125 -1.421875 14.8125 8.828125 
Q 5.609375 19.09375 5.609375 36.375 
Q 5.609375 53.65625 14.8125 63.9375 
Q 24.03125 74.21875 39.40625 74.21875 
z
" id="DejaVuSans-79"/>
     <path d="M 34.1875 63.1875 
L 20.796875 26.90625 
L 47.609375 26.90625 
z
M 28.609375 72.90625 
L 39.796875 72.90625 
L 67.578125 0 
L 57.328125 0 
L 50.6875 18.703125 
L 17.828125 18.703125 
L 11.1875 0 
L 0.78125 0 
z
" id="DejaVuSans-65"/>
     <path d="M 64.40625 67.28125 
L 64.40625 56.890625 
Q 59.421875 61.53125 53.78125 63.8125 
Q 48.140625 66.109375 41.796875 66.109375 
Q 29.296875 66.109375 22.65625 58.46875 
Q 16.015625 50.828125 16.015625 36.375 
Q 16.015625 21.96875 22.65625 14.328125 
Q 29.296875 6.6875 41.796875 6.6875 
Q 48.140625 6.6875 53.78125 8.984375 
Q 59.421875 11.28125 64.40625 15.921875 
L 64.40625 5.609375 
Q 59.234375 2.09375 53.4375 0.328125 
Q 47.65625 -1.421875 41.21875 -1.421875 
Q 24.65625 -1.421875 15.125 8.703125 
Q 5.609375 18.84375 5.609375 36.375 
Q 5.609375 53.953125 15.125 64.078125 
Q 24.65625 74.21875 41.21875 74.21875 
Q 47.75 74.21875 53.53125 72.484375 
Q 59.328125 70.75 64.40625 67.28125 
z
" id="DejaVuSans-67"/>
    </defs>
    <g transform="translate(375.22944 298.536482)scale(0.17 -0.17)">
     <use xlink:href="#DejaVuSans-66"/>
     <use x="68.603516" xlink:href="#DejaVuSans-73"/>
     <use x="98.095703" xlink:href="#DejaVuSans-80"/>
     <use x="158.398438" xlink:href="#DejaVuSans-79"/>
     <use x="237.109375" xlink:href="#DejaVuSans-80"/>
     <use x="297.396484" xlink:href="#DejaVuSans-115"/>
     <use x="349.496094" xlink:href="#DejaVuSans-97"/>
     <use x="410.775391" xlink:href="#DejaVuSans-65"/>
     <use x="479.167969" xlink:href="#DejaVuSans-67"/>
    </g>
   </g>
   <g id="text_14">
    <!-- BIPOP-saA -->
    <g transform="translate(375.22944 216.961195)scale(0.17 -0.17)">
     <use xlink:href="#DejaVuSans-66"/>
     <use x="68.603516" xlink:href="#DejaVuSans-73"/>
     <use x="98.095703" xlink:href="#DejaVuSans-80"/>
     <use x="158.398438" xlink:href="#DejaVuSans-79"/>
     <use x="237.109375" xlink:href="#DejaVuSans-80"/>
     <use x="297.380859" xlink:href="#DejaVuSans-45"/>
     <use x="333.464844" xlink:href="#DejaVuSans-115"/>
     <use x="385.564453" xlink:href="#DejaVuSans-97"/>
     <use x="446.84375" xlink:href="#DejaVuSans-65"/>
    </g>
   </g>
   <g id="text_15">
    <!-- IPOPsaACM -->
    <defs>
     <path d="M 9.8125 72.90625 
L 24.515625 72.90625 
L 43.109375 23.296875 
L 61.8125 72.90625 
L 76.515625 72.90625 
L 76.515625 0 
L 66.890625 0 
L 66.890625 64.015625 
L 48.09375 14.015625 
L 38.1875 14.015625 
L 19.390625 64.015625 
L 19.390625 0 
L 9.8125 0 
z
" id="DejaVuSans-77"/>
    </defs>
    <g transform="translate(375.22944 135.385908)scale(0.17 -0.17)">
     <use xlink:href="#DejaVuSans-73"/>
     <use x="29.492188" xlink:href="#DejaVuSans-80"/>
     <use x="89.794922" xlink:href="#DejaVuSans-79"/>
     <use x="168.505859" xlink:href="#DejaVuSans-80"/>
     <use x="228.792969" xlink:href="#DejaVuSans-115"/>
     <use x="280.892578" xlink:href="#DejaVuSans-97"/>
     <use x="342.171875" xlink:href="#DejaVuSans-65"/>
     <use x="410.564453" xlink:href="#DejaVuSans-67"/>
     <use x="480.388672" xlink:href="#DejaVuSans-77"/>
    </g>
   </g>
   <g id="text_16">
    <!-- best 2009 -->
    <defs>
     <path d="M 48.6875 27.296875 
Q 48.6875 37.203125 44.609375 42.84375 
Q 40.53125 48.484375 33.40625 48.484375 
Q 26.265625 48.484375 22.1875 42.84375 
Q 18.109375 37.203125 18.109375 27.296875 
Q 18.109375 17.390625 22.1875 11.75 
Q 26.265625 6.109375 33.40625 6.109375 
Q 40.53125 6.109375 44.609375 11.75 
Q 48.6875 17.390625 48.6875 27.296875 
z
M 18.109375 46.390625 
Q 20.953125 51.265625 25.265625 53.625 
Q 29.59375 56 35.59375 56 
Q 45.5625 56 51.78125 48.09375 
Q 58.015625 40.1875 58.015625 27.296875 
Q 58.015625 14.40625 51.78125 6.484375 
Q 45.5625 -1.421875 35.59375 -1.421875 
Q 29.59375 -1.421875 25.265625 0.953125 
Q 20.953125 3.328125 18.109375 8.203125 
L 18.109375 0 
L 9.078125 0 
L 9.078125 75.984375 
L 18.109375 75.984375 
z
" id="DejaVuSans-98"/>
     <path d="M 10.984375 1.515625 
L 10.984375 10.5 
Q 14.703125 8.734375 18.5 7.8125 
Q 22.3125 6.890625 25.984375 6.890625 
Q 35.75 6.890625 40.890625 13.453125 
Q 46.046875 20.015625 46.78125 33.40625 
Q 43.953125 29.203125 39.59375 26.953125 
Q 35.25 24.703125 29.984375 24.703125 
Q 19.046875 24.703125 12.671875 31.3125 
Q 6.296875 37.9375 6.296875 49.421875 
Q 6.296875 60.640625 12.9375 67.421875 
Q 19.578125 74.21875 30.609375 74.21875 
Q 43.265625 74.21875 49.921875 64.515625 
Q 56.59375 54.828125 56.59375 36.375 
Q 56.59375 19.140625 48.40625 8.859375 
Q 40.234375 -1.421875 26.421875 -1.421875 
Q 22.703125 -1.421875 18.890625 -0.6875 
Q 15.09375 0.046875 10.984375 1.515625 
z
M 30.609375 32.421875 
Q 37.25 32.421875 41.125 36.953125 
Q 45.015625 41.5 45.015625 49.421875 
Q 45.015625 57.28125 41.125 61.84375 
Q 37.25 66.40625 30.609375 66.40625 
Q 23.96875 66.40625 20.09375 61.84375 
Q 16.21875 57.28125 16.21875 49.421875 
Q 16.21875 41.5 20.09375 36.953125 
Q 23.96875 32.421875 30.609375 32.421875 
z
" id="DejaVuSans-57"/>
    </defs>
    <g transform="translate(375.22944 53.810621)scale(0.17 -0.17)">
     <use xlink:href="#DejaVuSans-98"/>
     <use x="63.476562" xlink:href="#DejaVuSans-101"/>
     <use x="125" xlink:href="#DejaVuSans-115"/>
     <use x="177.099609" xlink:href="#DejaVuSans-116"/>
     <use x="216.308594" xlink:href="#DejaVuSans-32"/>
     <use x="248.095703" xlink:href="#DejaVuSans-50"/>
     <use x="311.71875" xlink:href="#DejaVuSans-48"/>
     <use x="375.341797" xlink:href="#DejaVuSans-48"/>
     <use x="438.964844" xlink:href="#DejaVuSans-57"/>
    </g>
   </g>
   <g id="text_17">
    <!-- bbob f14, 3-D -->
    <defs>
     <path d="M 40.578125 39.3125 
Q 47.65625 37.796875 51.625 33 
Q 55.609375 28.21875 55.609375 21.1875 
Q 55.609375 10.40625 48.1875 4.484375 
Q 40.765625 -1.421875 27.09375 -1.421875 
Q 22.515625 -1.421875 17.65625 -0.515625 
Q 12.796875 0.390625 7.625 2.203125 
L 7.625 11.71875 
Q 11.71875 9.328125 16.59375 8.109375 
Q 21.484375 6.890625 26.8125 6.890625 
Q 36.078125 6.890625 40.9375 10.546875 
Q 45.796875 14.203125 45.796875 21.1875 
Q 45.796875 27.640625 41.28125 31.265625 
Q 36.765625 34.90625 28.71875 34.90625 
L 20.21875 34.90625 
L 20.21875 43.015625 
L 29.109375 43.015625 
Q 36.375 43.015625 40.234375 45.921875 
Q 44.09375 48.828125 44.09375 54.296875 
Q 44.09375 59.90625 40.109375 62.90625 
Q 36.140625 65.921875 28.71875 65.921875 
Q 24.65625 65.921875 20.015625 65.03125 
Q 15.375 64.15625 9.8125 62.3125 
L 9.8125 71.09375 
Q 15.4375 72.65625 20.34375 73.4375 
Q 25.25 74.21875 29.59375 74.21875 
Q 40.828125 74.21875 47.359375 69.109375 
Q 53.90625 64.015625 53.90625 55.328125 
Q 53.90625 49.265625 50.4375 45.09375 
Q 46.96875 40.921875 40.578125 39.3125 
z
" id="DejaVuSans-51"/>
     <path d="M 19.671875 64.796875 
L 19.671875 8.109375 
L 31.59375 8.109375 
Q 46.6875 8.109375 53.6875 14.9375 
Q 60.6875 21.78125 60.6875 36.53125 
Q 60.6875 51.171875 53.6875 57.984375 
Q 46.6875 64.796875 31.59375 64.796875 
z
M 9.8125 72.90625 
L 30.078125 72.90625 
Q 51.265625 72.90625 61.171875 64.09375 
Q 71.09375 55.28125 71.09375 36.53125 
Q 71.09375 17.671875 61.125 8.828125 
Q 51.171875 0 30.078125 0 
L 9.8125 0 
z
" id="DejaVuSans-68"/>
    </defs>
    <g transform="translate(60.41088 51.797126)scale(0.102 -0.102)">
     <use xlink:href="#DejaVuSans-98"/>
     <use x="63.476562" xlink:href="#DejaVuSans-98"/>
     <use x="126.953125" xlink:href="#DejaVuSans-111"/>
     <use x="188.134766" xlink:href="#DejaVuSans-98"/>
     <use x="251.611328" xlink:href="#DejaVuSans-32"/>
     <use x="283.398438" xlink:href="#DejaVuSans-102"/>
     <use x="318.603516" xlink:href="#DejaVuSans-49"/>
     <use x="382.226562" xlink:href="#DejaVuSans-52"/>
     <use x="445.849609" xlink:href="#DejaVuSans-44"/>
     <use x="477.636719" xlink:href="#DejaVuSans-32"/>
     <use x="509.423828" xlink:href="#DejaVuSans-51"/>
     <use x="573.046875" xlink:href="#DejaVuSans-45"/>
     <use x="609.130859" xlink:href="#DejaVuSans-68"/>
    </g>
    <!-- 51 targets: 100..1e-08 -->
    <defs>
     <path d="M 10.796875 72.90625 
L 49.515625 72.90625 
L 49.515625 64.59375 
L 19.828125 64.59375 
L 19.828125 46.734375 
Q 21.96875 47.46875 24.109375 47.828125 
Q 26.265625 48.1875 28.421875 48.1875 
Q 40.625 48.1875 47.75 41.5 
Q 54.890625 34.8125 54.890625 23.390625 
Q 54.890625 11.625 47.5625 5.09375 
Q 40.234375 -1.421875 26.90625 -1.421875 
Q 22.3125 -1.421875 17.546875 -0.640625 
Q 12.796875 0.140625 7.71875 1.703125 
L 7.71875 11.625 
Q 12.109375 9.234375 16.796875 8.0625 
Q 21.484375 6.890625 26.703125 6.890625 
Q 35.15625 6.890625 40.078125 11.328125 
Q 45.015625 15.765625 45.015625 23.390625 
Q 45.015625 31 40.078125 35.4375 
Q 35.15625 39.890625 26.703125 39.890625 
Q 22.75 39.890625 18.8125 39.015625 
Q 14.890625 38.140625 10.796875 36.28125 
z
" id="DejaVuSans-53"/>
     <path d="M 11.71875 12.40625 
L 22.015625 12.40625 
L 22.015625 0 
L 11.71875 0 
z
M 11.71875 51.703125 
L 22.015625 51.703125 
L 22.015625 39.3125 
L 11.71875 39.3125 
z
" id="DejaVuSans-58"/>
    </defs>
    <g transform="translate(60.41088 63.218895)scale(0.102 -0.102)">
     <use xlink:href="#DejaVuSans-53"/>
     <use x="63.623047" xlink:href="#DejaVuSans-49"/>
     <use x="127.246094" xlink:href="#DejaVuSans-32"/>
     <use x="159.033203" xlink:href="#DejaVuSans-116"/>
     <use x="198.242188" xlink:href="#DejaVuSans-97"/>
     <use x="259.521484" xlink:href="#DejaVuSans-114"/>
     <use x="300.619141" xlink:href="#DejaVuSans-103"/>
     <use x="364.095703" xlink:href="#DejaVuSans-101"/>
     <use x="425.619141" xlink:href="#DejaVuSans-116"/>
     <use x="464.828125" xlink:href="#DejaVuSans-115"/>
     <use x="516.927734" xlink:href="#DejaVuSans-58"/>
     <use x="550.619141" xlink:href="#DejaVuSans-32"/>
     <use x="582.40625" xlink:href="#DejaVuSans-49"/>
     <use x="646.029297" xlink:href="#DejaVuSans-48"/>
     <use x="709.652344" xlink:href="#DejaVuSans-48"/>
     <use x="773.275391" xlink:href="#DejaVuSans-46"/>
     <use x="805.0625" xlink:href="#DejaVuSans-46"/>
     <use x="836.849609" xlink:href="#DejaVuSans-49"/>
     <use x="900.472656" xlink:href="#DejaVuSans-101"/>
     <use x="961.996094" xlink:href="#DejaVuSans-45"/>
     <use x="998.080078" xlink:href="#DejaVuSans-48"/>
     <use x="1061.703125" xlink:href="#DejaVuSans-56"/>
    </g>
    <!-- 15 instances -->
    <g transform="translate(60.41088 74.640664)scale(0.102 -0.102)">
     <use xlink:href="#DejaVuSans-49"/>
     <use x="63.623047" xlink:href="#DejaVuSans-53"/>
     <use x="127.246094" xlink:href="#DejaVuSans-32"/>
     <use x="159.033203" xlink:href="#DejaVuSans-105"/>
     <use x="186.816406" xlink:href="#DejaVuSans-110"/>
     <use x="250.195312" xlink:href="#DejaVuSans-115"/>
     <use x="302.294922" xlink:href="#DejaVuSans-116"/>
     <use x="341.503906" xlink:href="#DejaVuSans-97"/>
     <use x="402.783203" xlink:href="#DejaVuSans-110"/>
     <use x="466.162109" xlink:href="#DejaVuSans-99"/>
     <use x="521.142578" xlink:href="#DejaVuSans-101"/>
     <use x="582.666016" xlink:href="#DejaVuSans-115"/>
    </g>
   </g>
   <g id="text_18">
    <!-- v2.3.14 -->
    <g style="fill:#808080;" transform="translate(179.2815 294.289592)scale(0.1 -0.1)">
     <use xlink:href="#DejaVuSans-118"/>
     <use x="59.179688" xlink:href="#DejaVuSans-50"/>
     <use x="122.802734" xlink:href="#DejaVuSans-46"/>
     <use x="154.589844" xlink:href="#DejaVuSans-51"/>
     <use x="218.212891" xlink:href="#DejaVuSans-46"/>
     <use x="250" xlink:href="#DejaVuSans-49"/>
     <use x="313.623047" xlink:href="#DejaVuSans-52"/>
    </g>
   </g>
   <g id="text_19">
    <!-- 14 Sum of different powers -->
    <defs>
     <path d="M 53.515625 70.515625 
L 53.515625 60.890625 
Q 47.90625 63.578125 42.921875 64.890625 
Q 37.9375 66.21875 33.296875 66.21875 
Q 25.25 66.21875 20.875 63.09375 
Q 16.5 59.96875 16.5 54.203125 
Q 16.5 49.359375 19.40625 46.890625 
Q 22.3125 44.4375 30.421875 42.921875 
L 36.375 41.703125 
Q 47.40625 39.59375 52.65625 34.296875 
Q 57.90625 29 57.90625 20.125 
Q 57.90625 9.515625 50.796875 4.046875 
Q 43.703125 -1.421875 29.984375 -1.421875 
Q 24.8125 -1.421875 18.96875 -0.25 
Q 13.140625 0.921875 6.890625 3.21875 
L 6.890625 13.375 
Q 12.890625 10.015625 18.65625 8.296875 
Q 24.421875 6.59375 29.984375 6.59375 
Q 38.421875 6.59375 43.015625 9.90625 
Q 47.609375 13.234375 47.609375 19.390625 
Q 47.609375 24.75 44.3125 27.78125 
Q 41.015625 30.8125 33.5 32.328125 
L 27.484375 33.5 
Q 16.453125 35.6875 11.515625 40.375 
Q 6.59375 45.0625 6.59375 53.421875 
Q 6.59375 63.09375 13.40625 68.65625 
Q 20.21875 74.21875 32.171875 74.21875 
Q 37.3125 74.21875 42.625 73.28125 
Q 47.953125 72.359375 53.515625 70.515625 
z
" id="DejaVuSans-83"/>
     <path d="M 4.203125 54.6875 
L 13.1875 54.6875 
L 24.421875 12.015625 
L 35.59375 54.6875 
L 46.1875 54.6875 
L 57.421875 12.015625 
L 68.609375 54.6875 
L 77.59375 54.6875 
L 63.28125 0 
L 52.6875 0 
L 40.921875 44.828125 
L 29.109375 0 
L 18.5 0 
z
" id="DejaVuSans-119"/>
    </defs>
    <g transform="translate(61.683062 35.472)scale(0.2 -0.2)">
     <use xlink:href="#DejaVuSans-49"/>
     <use x="63.623047" xlink:href="#DejaVuSans-52"/>
     <use x="127.246094" xlink:href="#DejaVuSans-32"/>
     <use x="159.033203" xlink:href="#DejaVuSans-83"/>
     <use x="222.509766" xlink:href="#DejaVuSans-117"/>
     <use x="285.888672" xlink:href="#DejaVuSans-109"/>
     <use x="383.300781" xlink:href="#DejaVuSans-32"/>
     <use x="415.087891" xlink:href="#DejaVuSans-111"/>
     <use x="476.269531" xlink:href="#DejaVuSans-102"/>
     <use x="511.474609" xlink:href="#DejaVuSans-32"/>
     <use x="543.261719" xlink:href="#DejaVuSans-100"/>
     <use x="606.738281" xlink:href="#DejaVuSans-105"/>
     <use x="634.521484" xlink:href="#DejaVuSans-102"/>
     <use x="669.726562" xlink:href="#DejaVuSans-102"/>
     <use x="704.931641" xlink:href="#DejaVuSans-101"/>
     <use x="766.455078" xlink:href="#DejaVuSans-114"/>
     <use x="807.537109" xlink:href="#DejaVuSans-101"/>
     <use x="869.060547" xlink:href="#DejaVuSans-110"/>
     <use x="932.439453" xlink:href="#DejaVuSans-116"/>
     <use x="971.648438" xlink:href="#DejaVuSans-32"/>
     <use x="1003.435547" xlink:href="#DejaVuSans-112"/>
     <use x="1066.912109" xlink:href="#DejaVuSans-111"/>
     <use x="1128.09375" xlink:href="#DejaVuSans-119"/>
     <use x="1209.880859" xlink:href="#DejaVuSans-101"/>
     <use x="1271.404297" xlink:href="#DejaVuSans-114"/>
     <use x="1312.517578" xlink:href="#DejaVuSans-115"/>
    </g>
   </g>
  </g>
 </g>
 <defs>
  <clipPath id="p89e7ec6be4">
   <rect height="257.472" width="281.088" x="57.6" y="41.472"/>
  </clipPath>
 </defs>
</svg>
