<?xml version="1.0" encoding="utf-8" standalone="no"?>
<!DOCTYPE svg PUBLIC "-//W3C//DTD SVG 1.1//EN"
  "http://www.w3.org/Graphics/SVG/1.1/DTD/svg11.dtd">
<!-- Created with matplotlib (https://matplotlib.org/) -->
<svg height="345.6pt" version="1.1" viewBox="0 0 460.8 345.6" width="460.8pt" xmlns="http://www.w3.org/2000/svg" xmlns:xlink="http://www.w3.org/1999/xlink">
 <defs>
  <style type="text/css">
*{stroke-linecap:butt;stroke-linejoin:round;}
  </style>
 </defs>
 <g id="figure_1">
  <g id="patch_1">
   <path d="M 0 345.6 
L 460.8 345.6 
L 460.8 0 
L 0 0 
z
" style="fill:#ffffff;"/>
  </g>
  <g id="axes_1">
   <g id="patch_2">
    <path d="M 57.6 298.944 
L 338.688 298.944 
L 338.688 27.648 
L 57.6 27.648 
z
" style="fill:#ffffff;"/>
   </g>
   <g id="line2d_1">
    <path d="M 38.440992 298.944 
L 38.440992 272.609696 
L 57.6 272.609696 
L 57.6 267.342835 
L 86.792945 267.342835 
L 86.792945 262.075974 
L 104.434538 262.075974 
L 104.434538 256.809114 
L 114.641021 256.809114 
L 114.641021 251.542253 
L 130.664567 251.542253 
L 130.664567 246.275392 
L 143.230373 246.275392 
L 143.230373 241.008531 
L 151.151579 241.008531 
L 151.151579 235.74167 
L 152.436193 235.74167 
L 152.436193 230.47481 
L 154.906477 230.47481 
L 154.906477 225.207949 
L 155.825108 225.207949 
L 155.825108 219.941088 
L 157.185742 219.941088 
L 157.185742 214.674227 
L 157.976006 214.674227 
L 157.976006 209.407366 
L 158.429943 209.407366 
L 158.429943 204.140506 
L 160.727241 204.140506 
L 160.727241 198.873645 
L 161.100288 198.873645 
L 161.100288 193.606784 
L 162.303474 193.606784 
L 162.303474 188.339923 
L 162.403659 188.339923 
L 162.403659 183.073062 
L 164.346358 183.073062 
L 164.346358 177.806202 
L 164.435497 177.806202 
L 164.435497 172.539341 
L 172.728604 172.539341 
L 172.728604 167.27248 
L 172.768032 167.27248 
L 172.768032 162.005619 
L 172.830933 162.005619 
L 172.830933 156.738758 
L 172.917053 156.738758 
L 172.917053 151.471897 
L 172.994977 151.471897 
L 172.994977 146.205037 
L 173.033809 146.205037 
L 173.033809 140.938176 
L 173.072554 140.938176 
L 173.072554 135.671315 
L 173.118935 135.671315 
L 173.118935 130.404454 
L 173.188276 130.404454 
L 173.188276 125.137593 
L 173.211329 125.137593 
L 173.211329 119.870733 
L 173.333764 119.870733 
L 173.333764 114.603872 
L 173.379457 114.603872 
L 173.379457 109.337011 
L 173.42503 109.337011 
L 173.42503 104.07015 
L 173.462916 104.07015 
L 173.462916 98.803289 
L 173.583604 98.803289 
L 173.583604 93.536429 
L 173.643636 93.536429 
L 173.643636 88.269568 
L 173.695995 88.269568 
L 173.695995 83.002707 
L 173.733298 83.002707 
L 173.733298 77.735846 
L 173.770522 77.735846 
L 173.770522 72.468985 
L 174.021557 72.468985 
L 174.021557 67.202125 
L 174.094709 67.202125 
L 174.094709 61.935264 
L 174.123884 61.935264 
L 174.123884 56.668403 
L 174.167555 56.668403 
L 174.167555 51.401542 
L 174.211117 51.401542 
L 174.211117 46.134681 
L 174.25457 46.134681 
L 174.25457 40.867821 
L 174.305129 40.867821 
L 174.305129 35.60096 
L 174.362732 35.60096 
L 174.362732 30.334099 
L 338.688 30.334099 
" style="fill:none;stroke:#f5deb3;stroke-linecap:square;stroke-width:4;"/>
   </g>
   <g id="line2d_2">
    <defs>
     <path d="M -0 7.778175 
L 7.778175 0 
L 0 -7.778175 
L -7.778175 -0 
z
" id="m710fe71066" style="stroke:#f5deb3;stroke-linejoin:miter;stroke-width:1.5;"/>
    </defs>
    <g>
     <use style="fill:#f5deb3;stroke:#f5deb3;stroke-linejoin:miter;stroke-width:1.5;" x="114.641021" xlink:href="#m710fe71066" y="256.809114"/>
     <use style="fill:#f5deb3;stroke:#f5deb3;stroke-linejoin:miter;stroke-width:1.5;" x="164.435497" xlink:href="#m710fe71066" y="177.806202"/>
     <use style="fill:#f5deb3;stroke:#f5deb3;stroke-linejoin:miter;stroke-width:1.5;" x="174.362732" xlink:href="#m710fe71066" y="35.60096"/>
     <use style="fill:#f5deb3;stroke:#f5deb3;stroke-linejoin:miter;stroke-width:1.5;" x="174.362732" xlink:href="#m710fe71066" y="30.334099"/>
     <use style="fill:#f5deb3;stroke:#f5deb3;stroke-linejoin:miter;stroke-width:1.5;" x="174.362732" xlink:href="#m710fe71066" y="30.334099"/>
     <use style="fill:#f5deb3;stroke:#f5deb3;stroke-linejoin:miter;stroke-width:1.5;" x="338.688" xlink:href="#m710fe71066" y="30.334099"/>
    </g>
   </g>
   <g id="line2d_3">
    <path style="fill:none;stroke:#f5deb3;stroke-linecap:square;stroke-width:4;"/>
    <g/>
   </g>
   <g id="line2d_4">
    <path d="M 338.688 30.334099 
L 369.60768 35.706297 
" style="fill:none;stroke:#f5deb3;stroke-linecap:square;stroke-width:4;"/>
    <g>
     <use style="fill:#f5deb3;stroke:#f5deb3;stroke-linejoin:miter;stroke-width:1.5;" x="338.688" xlink:href="#m710fe71066" y="30.334099"/>
     <use style="fill:#f5deb3;stroke:#f5deb3;stroke-linejoin:miter;stroke-width:1.5;" x="369.60768" xlink:href="#m710fe71066" y="35.706297"/>
    </g>
   </g>
   <g id="matplotlib.axis_1">
    <g id="xtick_1">
     <g id="line2d_5">
      <path clip-path="url(#pbc15be79c9)" d="M 57.6 298.944 
L 57.6 27.648 
" style="fill:none;stroke:#b0b0b0;stroke-linecap:square;stroke-width:0.8;"/>
     </g>
     <g id="line2d_6">
      <defs>
       <path d="M 0 0 
L 0 3.5 
" id="m213c76e24e" style="stroke:#000000;stroke-width:0.8;"/>
      </defs>
      <g>
       <use style="stroke:#000000;stroke-width:0.8;" x="57.6" xlink:href="#m213c76e24e" y="298.944"/>
      </g>
     </g>
     <g id="text_1">
      <!-- 0 -->
      <defs>
       <path d="M 31.78125 66.40625 
Q 24.171875 66.40625 20.328125 58.90625 
Q 16.5 51.421875 16.5 36.375 
Q 16.5 21.390625 20.328125 13.890625 
Q 24.171875 6.390625 31.78125 6.390625 
Q 39.453125 6.390625 43.28125 13.890625 
Q 47.125 21.390625 47.125 36.375 
Q 47.125 51.421875 43.28125 58.90625 
Q 39.453125 66.40625 31.78125 66.40625 
z
M 31.78125 74.21875 
Q 44.046875 74.21875 50.515625 64.515625 
Q 56.984375 54.828125 56.984375 36.375 
Q 56.984375 17.96875 50.515625 8.265625 
Q 44.046875 -1.421875 31.78125 -1.421875 
Q 19.53125 -1.421875 13.0625 8.265625 
Q 6.59375 17.96875 6.59375 36.375 
Q 6.59375 54.828125 13.0625 64.515625 
Q 19.53125 74.21875 31.78125 74.21875 
z
" id="DejaVuSans-48"/>
      </defs>
      <g transform="translate(51.2375 321.140875)scale(0.2 -0.2)">
       <use xlink:href="#DejaVuSans-48"/>
      </g>
     </g>
    </g>
    <g id="xtick_2">
     <g id="line2d_7">
      <path clip-path="url(#pbc15be79c9)" d="M 137.910857 298.944 
L 137.910857 27.648 
" style="fill:none;stroke:#b0b0b0;stroke-linecap:square;stroke-width:0.8;"/>
     </g>
     <g id="line2d_8">
      <g>
       <use style="stroke:#000000;stroke-width:0.8;" x="137.910857" xlink:href="#m213c76e24e" y="298.944"/>
      </g>
     </g>
     <g id="text_2">
      <!-- 2 -->
      <defs>
       <path d="M 19.1875 8.296875 
L 53.609375 8.296875 
L 53.609375 0 
L 7.328125 0 
L 7.328125 8.296875 
Q 12.9375 14.109375 22.625 23.890625 
Q 32.328125 33.6875 34.8125 36.53125 
Q 39.546875 41.84375 41.421875 45.53125 
Q 43.3125 49.21875 43.3125 52.78125 
Q 43.3125 58.59375 39.234375 62.25 
Q 35.15625 65.921875 28.609375 65.921875 
Q 23.96875 65.921875 18.8125 64.3125 
Q 13.671875 62.703125 7.8125 59.421875 
L 7.8125 69.390625 
Q 13.765625 71.78125 18.9375 73 
Q 24.125 74.21875 28.421875 74.21875 
Q 39.75 74.21875 46.484375 68.546875 
Q 53.21875 62.890625 53.21875 53.421875 
Q 53.21875 48.921875 51.53125 44.890625 
Q 49.859375 40.875 45.40625 35.40625 
Q 44.1875 33.984375 37.640625 27.21875 
Q 31.109375 20.453125 19.1875 8.296875 
z
" id="DejaVuSans-50"/>
      </defs>
      <g transform="translate(131.548357 321.140875)scale(0.2 -0.2)">
       <use xlink:href="#DejaVuSans-50"/>
      </g>
     </g>
    </g>
    <g id="xtick_3">
     <g id="line2d_9">
      <path clip-path="url(#pbc15be79c9)" d="M 218.221714 298.944 
L 218.221714 27.648 
" style="fill:none;stroke:#b0b0b0;stroke-linecap:square;stroke-width:0.8;"/>
     </g>
     <g id="line2d_10">
      <g>
       <use style="stroke:#000000;stroke-width:0.8;" x="218.221714" xlink:href="#m213c76e24e" y="298.944"/>
      </g>
     </g>
     <g id="text_3">
      <!-- 4 -->
      <defs>
       <path d="M 37.796875 64.3125 
L 12.890625 25.390625 
L 37.796875 25.390625 
z
M 35.203125 72.90625 
L 47.609375 72.90625 
L 47.609375 25.390625 
L 58.015625 25.390625 
L 58.015625 17.1875 
L 47.609375 17.1875 
L 47.609375 0 
L 37.796875 0 
L 37.796875 17.1875 
L 4.890625 17.1875 
L 4.890625 26.703125 
z
" id="DejaVuSans-52"/>
      </defs>
      <g transform="translate(211.859214 321.140875)scale(0.2 -0.2)">
       <use xlink:href="#DejaVuSans-52"/>
      </g>
     </g>
    </g>
    <g id="xtick_4">
     <g id="line2d_11">
      <path clip-path="url(#pbc15be79c9)" d="M 298.532571 298.944 
L 298.532571 27.648 
" style="fill:none;stroke:#b0b0b0;stroke-linecap:square;stroke-width:0.8;"/>
     </g>
     <g id="line2d_12">
      <g>
       <use style="stroke:#000000;stroke-width:0.8;" x="298.532571" xlink:href="#m213c76e24e" y="298.944"/>
      </g>
     </g>
     <g id="text_4">
      <!-- 6 -->
      <defs>
       <path d="M 33.015625 40.375 
Q 26.375 40.375 22.484375 35.828125 
Q 18.609375 31.296875 18.609375 23.390625 
Q 18.609375 15.53125 22.484375 10.953125 
Q 26.375 6.390625 33.015625 6.390625 
Q 39.65625 6.390625 43.53125 10.953125 
Q 47.40625 15.53125 47.40625 23.390625 
Q 47.40625 31.296875 43.53125 35.828125 
Q 39.65625 40.375 33.015625 40.375 
z
M 52.59375 71.296875 
L 52.59375 62.3125 
Q 48.875 64.0625 45.09375 64.984375 
Q 41.3125 65.921875 37.59375 65.921875 
Q 27.828125 65.921875 22.671875 59.328125 
Q 17.53125 52.734375 16.796875 39.40625 
Q 19.671875 43.65625 24.015625 45.921875 
Q 28.375 48.1875 33.59375 48.1875 
Q 44.578125 48.1875 50.953125 41.515625 
Q 57.328125 34.859375 57.328125 23.390625 
Q 57.328125 12.15625 50.6875 5.359375 
Q 44.046875 -1.421875 33.015625 -1.421875 
Q 20.359375 -1.421875 13.671875 8.265625 
Q 6.984375 17.96875 6.984375 36.375 
Q 6.984375 53.65625 15.1875 63.9375 
Q 23.390625 74.21875 37.203125 74.21875 
Q 40.921875 74.21875 44.703125 73.484375 
Q 48.484375 72.75 52.59375 71.296875 
z
" id="DejaVuSans-54"/>
      </defs>
      <g transform="translate(292.170071 321.140875)scale(0.2 -0.2)">
       <use xlink:href="#DejaVuSans-54"/>
      </g>
     </g>
    </g>
    <g id="xtick_5">
     <g id="line2d_13">
      <path clip-path="url(#pbc15be79c9)" d="M 57.6 298.944 
L 57.6 27.648 
" style="fill:none;stroke:#b0b0b0;stroke-linecap:square;stroke-width:0.8;"/>
     </g>
     <g id="line2d_14">
      <defs>
       <path d="M 0 0 
L 0 2 
" id="m5e682c597d" style="stroke:#000000;stroke-width:0.6;"/>
      </defs>
      <g>
       <use style="stroke:#000000;stroke-width:0.6;" x="57.6" xlink:href="#m5e682c597d" y="298.944"/>
      </g>
     </g>
    </g>
    <g id="xtick_6">
     <g id="line2d_15">
      <path clip-path="url(#pbc15be79c9)" d="M 97.755429 298.944 
L 97.755429 27.648 
" style="fill:none;stroke:#b0b0b0;stroke-linecap:square;stroke-width:0.8;"/>
     </g>
     <g id="line2d_16">
      <g>
       <use style="stroke:#000000;stroke-width:0.6;" x="97.755429" xlink:href="#m5e682c597d" y="298.944"/>
      </g>
     </g>
    </g>
    <g id="xtick_7">
     <g id="line2d_17">
      <path clip-path="url(#pbc15be79c9)" d="M 137.910857 298.944 
L 137.910857 27.648 
" style="fill:none;stroke:#b0b0b0;stroke-linecap:square;stroke-width:0.8;"/>
     </g>
     <g id="line2d_18">
      <g>
       <use style="stroke:#000000;stroke-width:0.6;" x="137.910857" xlink:href="#m5e682c597d" y="298.944"/>
      </g>
     </g>
    </g>
    <g id="xtick_8">
     <g id="line2d_19">
      <path clip-path="url(#pbc15be79c9)" d="M 178.066286 298.944 
L 178.066286 27.648 
" style="fill:none;stroke:#b0b0b0;stroke-linecap:square;stroke-width:0.8;"/>
     </g>
     <g id="line2d_20">
      <g>
       <use style="stroke:#000000;stroke-width:0.6;" x="178.066286" xlink:href="#m5e682c597d" y="298.944"/>
      </g>
     </g>
    </g>
    <g id="xtick_9">
     <g id="line2d_21">
      <path clip-path="url(#pbc15be79c9)" d="M 218.221714 298.944 
L 218.221714 27.648 
" style="fill:none;stroke:#b0b0b0;stroke-linecap:square;stroke-width:0.8;"/>
     </g>
     <g id="line2d_22">
      <g>
       <use style="stroke:#000000;stroke-width:0.6;" x="218.221714" xlink:href="#m5e682c597d" y="298.944"/>
      </g>
     </g>
    </g>
    <g id="xtick_10">
     <g id="line2d_23">
      <path clip-path="url(#pbc15be79c9)" d="M 258.377143 298.944 
L 258.377143 27.648 
" style="fill:none;stroke:#b0b0b0;stroke-linecap:square;stroke-width:0.8;"/>
     </g>
     <g id="line2d_24">
      <g>
       <use style="stroke:#000000;stroke-width:0.6;" x="258.377143" xlink:href="#m5e682c597d" y="298.944"/>
      </g>
     </g>
    </g>
    <g id="xtick_11">
     <g id="line2d_25">
      <path clip-path="url(#pbc15be79c9)" d="M 298.532571 298.944 
L 298.532571 27.648 
" style="fill:none;stroke:#b0b0b0;stroke-linecap:square;stroke-width:0.8;"/>
     </g>
     <g id="line2d_26">
      <g>
       <use style="stroke:#000000;stroke-width:0.6;" x="298.532571" xlink:href="#m5e682c597d" y="298.944"/>
      </g>
     </g>
    </g>
    <g id="xtick_12">
     <g id="line2d_27">
      <path clip-path="url(#pbc15be79c9)" d="M 338.688 298.944 
L 338.688 27.648 
" style="fill:none;stroke:#b0b0b0;stroke-linecap:square;stroke-width:0.8;"/>
     </g>
     <g id="line2d_28">
      <g>
       <use style="stroke:#000000;stroke-width:0.6;" x="338.688" xlink:href="#m5e682c597d" y="298.944"/>
      </g>
     </g>
    </g>
    <g id="text_5">
     <!-- log10(# f-evals / dimension) -->
     <defs>
      <path d="M 9.421875 75.984375 
L 18.40625 75.984375 
L 18.40625 0 
L 9.421875 0 
z
" id="DejaVuSans-108"/>
      <path d="M 30.609375 48.390625 
Q 23.390625 48.390625 19.1875 42.75 
Q 14.984375 37.109375 14.984375 27.296875 
Q 14.984375 17.484375 19.15625 11.84375 
Q 23.34375 6.203125 30.609375 6.203125 
Q 37.796875 6.203125 41.984375 11.859375 
Q 46.1875 17.53125 46.1875 27.296875 
Q 46.1875 37.015625 41.984375 42.703125 
Q 37.796875 48.390625 30.609375 48.390625 
z
M 30.609375 56 
Q 42.328125 56 49.015625 48.375 
Q 55.71875 40.765625 55.71875 27.296875 
Q 55.71875 13.875 49.015625 6.21875 
Q 42.328125 -1.421875 30.609375 -1.421875 
Q 18.84375 -1.421875 12.171875 6.21875 
Q 5.515625 13.875 5.515625 27.296875 
Q 5.515625 40.765625 12.171875 48.375 
Q 18.84375 56 30.609375 56 
z
" id="DejaVuSans-111"/>
      <path d="M 45.40625 27.984375 
Q 45.40625 37.75 41.375 43.109375 
Q 37.359375 48.484375 30.078125 48.484375 
Q 22.859375 48.484375 18.828125 43.109375 
Q 14.796875 37.75 14.796875 27.984375 
Q 14.796875 18.265625 18.828125 12.890625 
Q 22.859375 7.515625 30.078125 7.515625 
Q 37.359375 7.515625 41.375 12.890625 
Q 45.40625 18.265625 45.40625 27.984375 
z
M 54.390625 6.78125 
Q 54.390625 -7.171875 48.1875 -13.984375 
Q 42 -20.796875 29.203125 -20.796875 
Q 24.46875 -20.796875 20.265625 -20.09375 
Q 16.0625 -19.390625 12.109375 -17.921875 
L 12.109375 -9.1875 
Q 16.0625 -11.328125 19.921875 -12.34375 
Q 23.78125 -13.375 27.78125 -13.375 
Q 36.625 -13.375 41.015625 -8.765625 
Q 45.40625 -4.15625 45.40625 5.171875 
L 45.40625 9.625 
Q 42.625 4.78125 38.28125 2.390625 
Q 33.9375 0 27.875 0 
Q 17.828125 0 11.671875 7.65625 
Q 5.515625 15.328125 5.515625 27.984375 
Q 5.515625 40.671875 11.671875 48.328125 
Q 17.828125 56 27.875 56 
Q 33.9375 56 38.28125 53.609375 
Q 42.625 51.21875 45.40625 46.390625 
L 45.40625 54.6875 
L 54.390625 54.6875 
z
" id="DejaVuSans-103"/>
      <path d="M 12.40625 8.296875 
L 28.515625 8.296875 
L 28.515625 63.921875 
L 10.984375 60.40625 
L 10.984375 69.390625 
L 28.421875 72.90625 
L 38.28125 72.90625 
L 38.28125 8.296875 
L 54.390625 8.296875 
L 54.390625 0 
L 12.40625 0 
z
" id="DejaVuSans-49"/>
      <path d="M 31 75.875 
Q 24.46875 64.65625 21.28125 53.65625 
Q 18.109375 42.671875 18.109375 31.390625 
Q 18.109375 20.125 21.3125 9.0625 
Q 24.515625 -2 31 -13.1875 
L 23.1875 -13.1875 
Q 15.875 -1.703125 12.234375 9.375 
Q 8.59375 20.453125 8.59375 31.390625 
Q 8.59375 42.28125 12.203125 53.3125 
Q 15.828125 64.359375 23.1875 75.875 
z
" id="DejaVuSans-40"/>
      <path d="M 51.125 44 
L 36.921875 44 
L 32.8125 27.6875 
L 47.125 27.6875 
z
M 43.796875 71.78125 
L 38.71875 51.515625 
L 52.984375 51.515625 
L 58.109375 71.78125 
L 65.921875 71.78125 
L 60.890625 51.515625 
L 76.125 51.515625 
L 76.125 44 
L 58.984375 44 
L 54.984375 27.6875 
L 70.515625 27.6875 
L 70.515625 20.21875 
L 53.078125 20.21875 
L 48 0 
L 40.1875 0 
L 45.21875 20.21875 
L 30.90625 20.21875 
L 25.875 0 
L 18.015625 0 
L 23.09375 20.21875 
L 7.71875 20.21875 
L 7.71875 27.6875 
L 24.90625 27.6875 
L 29 44 
L 13.28125 44 
L 13.28125 51.515625 
L 30.90625 51.515625 
L 35.890625 71.78125 
z
" id="DejaVuSans-35"/>
      <path id="DejaVuSans-32"/>
      <path d="M 37.109375 75.984375 
L 37.109375 68.5 
L 28.515625 68.5 
Q 23.6875 68.5 21.796875 66.546875 
Q 19.921875 64.59375 19.921875 59.515625 
L 19.921875 54.6875 
L 34.71875 54.6875 
L 34.71875 47.703125 
L 19.921875 47.703125 
L 19.921875 0 
L 10.890625 0 
L 10.890625 47.703125 
L 2.296875 47.703125 
L 2.296875 54.6875 
L 10.890625 54.6875 
L 10.890625 58.5 
Q 10.890625 67.625 15.140625 71.796875 
Q 19.390625 75.984375 28.609375 75.984375 
z
" id="DejaVuSans-102"/>
      <path d="M 4.890625 31.390625 
L 31.203125 31.390625 
L 31.203125 23.390625 
L 4.890625 23.390625 
z
" id="DejaVuSans-45"/>
      <path d="M 56.203125 29.59375 
L 56.203125 25.203125 
L 14.890625 25.203125 
Q 15.484375 15.921875 20.484375 11.0625 
Q 25.484375 6.203125 34.421875 6.203125 
Q 39.59375 6.203125 44.453125 7.46875 
Q 49.3125 8.734375 54.109375 11.28125 
L 54.109375 2.78125 
Q 49.265625 0.734375 44.1875 -0.34375 
Q 39.109375 -1.421875 33.890625 -1.421875 
Q 20.796875 -1.421875 13.15625 6.1875 
Q 5.515625 13.8125 5.515625 26.8125 
Q 5.515625 40.234375 12.765625 48.109375 
Q 20.015625 56 32.328125 56 
Q 43.359375 56 49.78125 48.890625 
Q 56.203125 41.796875 56.203125 29.59375 
z
M 47.21875 32.234375 
Q 47.125 39.59375 43.09375 43.984375 
Q 39.0625 48.390625 32.421875 48.390625 
Q 24.90625 48.390625 20.390625 44.140625 
Q 15.875 39.890625 15.1875 32.171875 
z
" id="DejaVuSans-101"/>
      <path d="M 2.984375 54.6875 
L 12.5 54.6875 
L 29.59375 8.796875 
L 46.6875 54.6875 
L 56.203125 54.6875 
L 35.6875 0 
L 23.484375 0 
z
" id="DejaVuSans-118"/>
      <path d="M 34.28125 27.484375 
Q 23.390625 27.484375 19.1875 25 
Q 14.984375 22.515625 14.984375 16.5 
Q 14.984375 11.71875 18.140625 8.90625 
Q 21.296875 6.109375 26.703125 6.109375 
Q 34.1875 6.109375 38.703125 11.40625 
Q 43.21875 16.703125 43.21875 25.484375 
L 43.21875 27.484375 
z
M 52.203125 31.203125 
L 52.203125 0 
L 43.21875 0 
L 43.21875 8.296875 
Q 40.140625 3.328125 35.546875 0.953125 
Q 30.953125 -1.421875 24.3125 -1.421875 
Q 15.921875 -1.421875 10.953125 3.296875 
Q 6 8.015625 6 15.921875 
Q 6 25.140625 12.171875 29.828125 
Q 18.359375 34.515625 30.609375 34.515625 
L 43.21875 34.515625 
L 43.21875 35.40625 
Q 43.21875 41.609375 39.140625 45 
Q 35.0625 48.390625 27.6875 48.390625 
Q 23 48.390625 18.546875 47.265625 
Q 14.109375 46.140625 10.015625 43.890625 
L 10.015625 52.203125 
Q 14.9375 54.109375 19.578125 55.046875 
Q 24.21875 56 28.609375 56 
Q 40.484375 56 46.34375 49.84375 
Q 52.203125 43.703125 52.203125 31.203125 
z
" id="DejaVuSans-97"/>
      <path d="M 44.28125 53.078125 
L 44.28125 44.578125 
Q 40.484375 46.53125 36.375 47.5 
Q 32.28125 48.484375 27.875 48.484375 
Q 21.1875 48.484375 17.84375 46.4375 
Q 14.5 44.390625 14.5 40.28125 
Q 14.5 37.15625 16.890625 35.375 
Q 19.28125 33.59375 26.515625 31.984375 
L 29.59375 31.296875 
Q 39.15625 29.25 43.1875 25.515625 
Q 47.21875 21.78125 47.21875 15.09375 
Q 47.21875 7.46875 41.1875 3.015625 
Q 35.15625 -1.421875 24.609375 -1.421875 
Q 20.21875 -1.421875 15.453125 -0.5625 
Q 10.6875 0.296875 5.421875 2 
L 5.421875 11.28125 
Q 10.40625 8.6875 15.234375 7.390625 
Q 20.0625 6.109375 24.8125 6.109375 
Q 31.15625 6.109375 34.5625 8.28125 
Q 37.984375 10.453125 37.984375 14.40625 
Q 37.984375 18.0625 35.515625 20.015625 
Q 33.0625 21.96875 24.703125 23.78125 
L 21.578125 24.515625 
Q 13.234375 26.265625 9.515625 29.90625 
Q 5.8125 33.546875 5.8125 39.890625 
Q 5.8125 47.609375 11.28125 51.796875 
Q 16.75 56 26.8125 56 
Q 31.78125 56 36.171875 55.265625 
Q 40.578125 54.546875 44.28125 53.078125 
z
" id="DejaVuSans-115"/>
      <path d="M 25.390625 72.90625 
L 33.6875 72.90625 
L 8.296875 -9.28125 
L 0 -9.28125 
z
" id="DejaVuSans-47"/>
      <path d="M 45.40625 46.390625 
L 45.40625 75.984375 
L 54.390625 75.984375 
L 54.390625 0 
L 45.40625 0 
L 45.40625 8.203125 
Q 42.578125 3.328125 38.25 0.953125 
Q 33.9375 -1.421875 27.875 -1.421875 
Q 17.96875 -1.421875 11.734375 6.484375 
Q 5.515625 14.40625 5.515625 27.296875 
Q 5.515625 40.1875 11.734375 48.09375 
Q 17.96875 56 27.875 56 
Q 33.9375 56 38.25 53.625 
Q 42.578125 51.265625 45.40625 46.390625 
z
M 14.796875 27.296875 
Q 14.796875 17.390625 18.875 11.75 
Q 22.953125 6.109375 30.078125 6.109375 
Q 37.203125 6.109375 41.296875 11.75 
Q 45.40625 17.390625 45.40625 27.296875 
Q 45.40625 37.203125 41.296875 42.84375 
Q 37.203125 48.484375 30.078125 48.484375 
Q 22.953125 48.484375 18.875 42.84375 
Q 14.796875 37.203125 14.796875 27.296875 
z
" id="DejaVuSans-100"/>
      <path d="M 9.421875 54.6875 
L 18.40625 54.6875 
L 18.40625 0 
L 9.421875 0 
z
M 9.421875 75.984375 
L 18.40625 75.984375 
L 18.40625 64.59375 
L 9.421875 64.59375 
z
" id="DejaVuSans-105"/>
      <path d="M 52 44.1875 
Q 55.375 50.25 60.0625 53.125 
Q 64.75 56 71.09375 56 
Q 79.640625 56 84.28125 50.015625 
Q 88.921875 44.046875 88.921875 33.015625 
L 88.921875 0 
L 79.890625 0 
L 79.890625 32.71875 
Q 79.890625 40.578125 77.09375 44.375 
Q 74.3125 48.1875 68.609375 48.1875 
Q 61.625 48.1875 57.5625 43.546875 
Q 53.515625 38.921875 53.515625 30.90625 
L 53.515625 0 
L 44.484375 0 
L 44.484375 32.71875 
Q 44.484375 40.625 41.703125 44.40625 
Q 38.921875 48.1875 33.109375 48.1875 
Q 26.21875 48.1875 22.15625 43.53125 
Q 18.109375 38.875 18.109375 30.90625 
L 18.109375 0 
L 9.078125 0 
L 9.078125 54.6875 
L 18.109375 54.6875 
L 18.109375 46.1875 
Q 21.1875 51.21875 25.484375 53.609375 
Q 29.78125 56 35.6875 56 
Q 41.65625 56 45.828125 52.96875 
Q 50 49.953125 52 44.1875 
z
" id="DejaVuSans-109"/>
      <path d="M 54.890625 33.015625 
L 54.890625 0 
L 45.90625 0 
L 45.90625 32.71875 
Q 45.90625 40.484375 42.875 44.328125 
Q 39.84375 48.1875 33.796875 48.1875 
Q 26.515625 48.1875 22.3125 43.546875 
Q 18.109375 38.921875 18.109375 30.90625 
L 18.109375 0 
L 9.078125 0 
L 9.078125 54.6875 
L 18.109375 54.6875 
L 18.109375 46.1875 
Q 21.34375 51.125 25.703125 53.5625 
Q 30.078125 56 35.796875 56 
Q 45.21875 56 50.046875 50.171875 
Q 54.890625 44.34375 54.890625 33.015625 
z
" id="DejaVuSans-110"/>
      <path d="M 8.015625 75.875 
L 15.828125 75.875 
Q 23.140625 64.359375 26.78125 53.3125 
Q 30.421875 42.28125 30.421875 31.390625 
Q 30.421875 20.453125 26.78125 9.375 
Q 23.140625 -1.703125 15.828125 -13.1875 
L 8.015625 -13.1875 
Q 14.5 -2 17.703125 9.0625 
Q 20.90625 20.125 20.90625 31.390625 
Q 20.90625 42.671875 17.703125 53.65625 
Q 14.5 64.65625 8.015625 75.875 
z
" id="DejaVuSans-41"/>
     </defs>
     <g transform="translate(77.303219 342.217594)scale(0.17 -0.17)">
      <use xlink:href="#DejaVuSans-108"/>
      <use x="27.783203" xlink:href="#DejaVuSans-111"/>
      <use x="88.964844" xlink:href="#DejaVuSans-103"/>
      <use x="152.441406" xlink:href="#DejaVuSans-49"/>
      <use x="216.064453" xlink:href="#DejaVuSans-48"/>
      <use x="279.6875" xlink:href="#DejaVuSans-40"/>
      <use x="318.701172" xlink:href="#DejaVuSans-35"/>
      <use x="402.490234" xlink:href="#DejaVuSans-32"/>
      <use x="434.277344" xlink:href="#DejaVuSans-102"/>
      <use x="469.404297" xlink:href="#DejaVuSans-45"/>
      <use x="505.488281" xlink:href="#DejaVuSans-101"/>
      <use x="567.011719" xlink:href="#DejaVuSans-118"/>
      <use x="626.191406" xlink:href="#DejaVuSans-97"/>
      <use x="687.470703" xlink:href="#DejaVuSans-108"/>
      <use x="715.253906" xlink:href="#DejaVuSans-115"/>
      <use x="767.353516" xlink:href="#DejaVuSans-32"/>
      <use x="799.140625" xlink:href="#DejaVuSans-47"/>
      <use x="832.832031" xlink:href="#DejaVuSans-32"/>
      <use x="864.619141" xlink:href="#DejaVuSans-100"/>
      <use x="928.095703" xlink:href="#DejaVuSans-105"/>
      <use x="955.878906" xlink:href="#DejaVuSans-109"/>
      <use x="1053.291016" xlink:href="#DejaVuSans-101"/>
      <use x="1114.814453" xlink:href="#DejaVuSans-110"/>
      <use x="1178.193359" xlink:href="#DejaVuSans-115"/>
      <use x="1230.292969" xlink:href="#DejaVuSans-105"/>
      <use x="1258.076172" xlink:href="#DejaVuSans-111"/>
      <use x="1319.257812" xlink:href="#DejaVuSans-110"/>
      <use x="1382.636719" xlink:href="#DejaVuSans-41"/>
     </g>
    </g>
   </g>
   <g id="matplotlib.axis_2">
    <g id="ytick_1">
     <g id="line2d_29">
      <path clip-path="url(#pbc15be79c9)" d="M 57.6 298.944 
L 338.688 298.944 
" style="fill:none;stroke:#b0b0b0;stroke-linecap:square;stroke-width:0.8;"/>
     </g>
     <g id="line2d_30">
      <defs>
       <path d="M 0 0 
L -3.5 0 
" id="mdbd2ce7304" style="stroke:#000000;stroke-width:0.8;"/>
      </defs>
      <g>
       <use style="stroke:#000000;stroke-width:0.8;" x="57.6" xlink:href="#mdbd2ce7304" y="298.944"/>
      </g>
     </g>
     <g id="text_6">
      <!-- 0.0 -->
      <defs>
       <path d="M 10.6875 12.40625 
L 21 12.40625 
L 21 0 
L 10.6875 0 
z
" id="DejaVuSans-46"/>
      </defs>
      <g transform="translate(25.155 305.02275)scale(0.16 -0.16)">
       <use xlink:href="#DejaVuSans-48"/>
       <use x="63.623047" xlink:href="#DejaVuSans-46"/>
       <use x="95.410156" xlink:href="#DejaVuSans-48"/>
      </g>
     </g>
    </g>
    <g id="ytick_2">
     <g id="line2d_31">
      <path clip-path="url(#pbc15be79c9)" d="M 57.6 245.22202 
L 338.688 245.22202 
" style="fill:none;stroke:#b0b0b0;stroke-linecap:square;stroke-width:0.8;"/>
     </g>
     <g id="line2d_32">
      <g>
       <use style="stroke:#000000;stroke-width:0.8;" x="57.6" xlink:href="#mdbd2ce7304" y="245.22202"/>
      </g>
     </g>
     <g id="text_7">
      <!-- 0.2 -->
      <g transform="translate(25.155 251.30077)scale(0.16 -0.16)">
       <use xlink:href="#DejaVuSans-48"/>
       <use x="63.623047" xlink:href="#DejaVuSans-46"/>
       <use x="95.410156" xlink:href="#DejaVuSans-50"/>
      </g>
     </g>
    </g>
    <g id="ytick_3">
     <g id="line2d_33">
      <path clip-path="url(#pbc15be79c9)" d="M 57.6 191.50004 
L 338.688 191.50004 
" style="fill:none;stroke:#b0b0b0;stroke-linecap:square;stroke-width:0.8;"/>
     </g>
     <g id="line2d_34">
      <g>
       <use style="stroke:#000000;stroke-width:0.8;" x="57.6" xlink:href="#mdbd2ce7304" y="191.50004"/>
      </g>
     </g>
     <g id="text_8">
      <!-- 0.4 -->
      <g transform="translate(25.155 197.57879)scale(0.16 -0.16)">
       <use xlink:href="#DejaVuSans-48"/>
       <use x="63.623047" xlink:href="#DejaVuSans-46"/>
       <use x="95.410156" xlink:href="#DejaVuSans-52"/>
      </g>
     </g>
    </g>
    <g id="ytick_4">
     <g id="line2d_35">
      <path clip-path="url(#pbc15be79c9)" d="M 57.6 137.778059 
L 338.688 137.778059 
" style="fill:none;stroke:#b0b0b0;stroke-linecap:square;stroke-width:0.8;"/>
     </g>
     <g id="line2d_36">
      <g>
       <use style="stroke:#000000;stroke-width:0.8;" x="57.6" xlink:href="#mdbd2ce7304" y="137.778059"/>
      </g>
     </g>
     <g id="text_9">
      <!-- 0.6 -->
      <g transform="translate(25.155 143.856809)scale(0.16 -0.16)">
       <use xlink:href="#DejaVuSans-48"/>
       <use x="63.623047" xlink:href="#DejaVuSans-46"/>
       <use x="95.410156" xlink:href="#DejaVuSans-54"/>
      </g>
     </g>
    </g>
    <g id="ytick_5">
     <g id="line2d_37">
      <path clip-path="url(#pbc15be79c9)" d="M 57.6 84.056079 
L 338.688 84.056079 
" style="fill:none;stroke:#b0b0b0;stroke-linecap:square;stroke-width:0.8;"/>
     </g>
     <g id="line2d_38">
      <g>
       <use style="stroke:#000000;stroke-width:0.8;" x="57.6" xlink:href="#mdbd2ce7304" y="84.056079"/>
      </g>
     </g>
     <g id="text_10">
      <!-- 0.8 -->
      <defs>
       <path d="M 31.78125 34.625 
Q 24.75 34.625 20.71875 30.859375 
Q 16.703125 27.09375 16.703125 20.515625 
Q 16.703125 13.921875 20.71875 10.15625 
Q 24.75 6.390625 31.78125 6.390625 
Q 38.8125 6.390625 42.859375 10.171875 
Q 46.921875 13.96875 46.921875 20.515625 
Q 46.921875 27.09375 42.890625 30.859375 
Q 38.875 34.625 31.78125 34.625 
z
M 21.921875 38.8125 
Q 15.578125 40.375 12.03125 44.71875 
Q 8.5 49.078125 8.5 55.328125 
Q 8.5 64.0625 14.71875 69.140625 
Q 20.953125 74.21875 31.78125 74.21875 
Q 42.671875 74.21875 48.875 69.140625 
Q 55.078125 64.0625 55.078125 55.328125 
Q 55.078125 49.078125 51.53125 44.71875 
Q 48 40.375 41.703125 38.8125 
Q 48.828125 37.15625 52.796875 32.3125 
Q 56.78125 27.484375 56.78125 20.515625 
Q 56.78125 9.90625 50.3125 4.234375 
Q 43.84375 -1.421875 31.78125 -1.421875 
Q 19.734375 -1.421875 13.25 4.234375 
Q 6.78125 9.90625 6.78125 20.515625 
Q 6.78125 27.484375 10.78125 32.3125 
Q 14.796875 37.15625 21.921875 38.8125 
z
M 18.3125 54.390625 
Q 18.3125 48.734375 21.84375 45.5625 
Q 25.390625 42.390625 31.78125 42.390625 
Q 38.140625 42.390625 41.71875 45.5625 
Q 45.3125 48.734375 45.3125 54.390625 
Q 45.3125 60.0625 41.71875 63.234375 
Q 38.140625 66.40625 31.78125 66.40625 
Q 25.390625 66.40625 21.84375 63.234375 
Q 18.3125 60.0625 18.3125 54.390625 
z
" id="DejaVuSans-56"/>
      </defs>
      <g transform="translate(25.155 90.134829)scale(0.16 -0.16)">
       <use xlink:href="#DejaVuSans-48"/>
       <use x="63.623047" xlink:href="#DejaVuSans-46"/>
       <use x="95.410156" xlink:href="#DejaVuSans-56"/>
      </g>
     </g>
    </g>
    <g id="ytick_6">
     <g id="line2d_39">
      <path clip-path="url(#pbc15be79c9)" d="M 57.6 30.334099 
L 338.688 30.334099 
" style="fill:none;stroke:#b0b0b0;stroke-linecap:square;stroke-width:0.8;"/>
     </g>
     <g id="line2d_40">
      <g>
       <use style="stroke:#000000;stroke-width:0.8;" x="57.6" xlink:href="#mdbd2ce7304" y="30.334099"/>
      </g>
     </g>
     <g id="text_11">
      <!-- 1.0 -->
      <g transform="translate(25.155 36.412849)scale(0.16 -0.16)">
       <use xlink:href="#DejaVuSans-49"/>
       <use x="63.623047" xlink:href="#DejaVuSans-46"/>
       <use x="95.410156" xlink:href="#DejaVuSans-48"/>
      </g>
     </g>
    </g>
    <g id="text_12">
     <!-- Fraction of function,target pairs -->
     <defs>
      <path d="M 9.8125 72.90625 
L 51.703125 72.90625 
L 51.703125 64.59375 
L 19.671875 64.59375 
L 19.671875 43.109375 
L 48.578125 43.109375 
L 48.578125 34.8125 
L 19.671875 34.8125 
L 19.671875 0 
L 9.8125 0 
z
" id="DejaVuSans-70"/>
      <path d="M 41.109375 46.296875 
Q 39.59375 47.171875 37.8125 47.578125 
Q 36.03125 48 33.890625 48 
Q 26.265625 48 22.1875 43.046875 
Q 18.109375 38.09375 18.109375 28.8125 
L 18.109375 0 
L 9.078125 0 
L 9.078125 54.6875 
L 18.109375 54.6875 
L 18.109375 46.1875 
Q 20.953125 51.171875 25.484375 53.578125 
Q 30.03125 56 36.53125 56 
Q 37.453125 56 38.578125 55.875 
Q 39.703125 55.765625 41.0625 55.515625 
z
" id="DejaVuSans-114"/>
      <path d="M 48.78125 52.59375 
L 48.78125 44.1875 
Q 44.96875 46.296875 41.140625 47.34375 
Q 37.3125 48.390625 33.40625 48.390625 
Q 24.65625 48.390625 19.8125 42.84375 
Q 14.984375 37.3125 14.984375 27.296875 
Q 14.984375 17.28125 19.8125 11.734375 
Q 24.65625 6.203125 33.40625 6.203125 
Q 37.3125 6.203125 41.140625 7.25 
Q 44.96875 8.296875 48.78125 10.40625 
L 48.78125 2.09375 
Q 45.015625 0.34375 40.984375 -0.53125 
Q 36.96875 -1.421875 32.421875 -1.421875 
Q 20.0625 -1.421875 12.78125 6.34375 
Q 5.515625 14.109375 5.515625 27.296875 
Q 5.515625 40.671875 12.859375 48.328125 
Q 20.21875 56 33.015625 56 
Q 37.15625 56 41.109375 55.140625 
Q 45.0625 54.296875 48.78125 52.59375 
z
" id="DejaVuSans-99"/>
      <path d="M 18.3125 70.21875 
L 18.3125 54.6875 
L 36.8125 54.6875 
L 36.8125 47.703125 
L 18.3125 47.703125 
L 18.3125 18.015625 
Q 18.3125 11.328125 20.140625 9.421875 
Q 21.96875 7.515625 27.59375 7.515625 
L 36.8125 7.515625 
L 36.8125 0 
L 27.59375 0 
Q 17.1875 0 13.234375 3.875 
Q 9.28125 7.765625 9.28125 18.015625 
L 9.28125 47.703125 
L 2.6875 47.703125 
L 2.6875 54.6875 
L 9.28125 54.6875 
L 9.28125 70.21875 
z
" id="DejaVuSans-116"/>
      <path d="M 8.5 21.578125 
L 8.5 54.6875 
L 17.484375 54.6875 
L 17.484375 21.921875 
Q 17.484375 14.15625 20.5 10.265625 
Q 23.53125 6.390625 29.59375 6.390625 
Q 36.859375 6.390625 41.078125 11.03125 
Q 45.3125 15.671875 45.3125 23.6875 
L 45.3125 54.6875 
L 54.296875 54.6875 
L 54.296875 0 
L 45.3125 0 
L 45.3125 8.40625 
Q 42.046875 3.421875 37.71875 1 
Q 33.40625 -1.421875 27.6875 -1.421875 
Q 18.265625 -1.421875 13.375 4.4375 
Q 8.5 10.296875 8.5 21.578125 
z
M 31.109375 56 
z
" id="DejaVuSans-117"/>
      <path d="M 11.71875 12.40625 
L 22.015625 12.40625 
L 22.015625 4 
L 14.015625 -11.625 
L 7.71875 -11.625 
L 11.71875 4 
z
" id="DejaVuSans-44"/>
      <path d="M 18.109375 8.203125 
L 18.109375 -20.796875 
L 9.078125 -20.796875 
L 9.078125 54.6875 
L 18.109375 54.6875 
L 18.109375 46.390625 
Q 20.953125 51.265625 25.265625 53.625 
Q 29.59375 56 35.59375 56 
Q 45.5625 56 51.78125 48.09375 
Q 58.015625 40.1875 58.015625 27.296875 
Q 58.015625 14.40625 51.78125 6.484375 
Q 45.5625 -1.421875 35.59375 -1.421875 
Q 29.59375 -1.421875 25.265625 0.953125 
Q 20.953125 3.328125 18.109375 8.203125 
z
M 48.6875 27.296875 
Q 48.6875 37.203125 44.609375 42.84375 
Q 40.53125 48.484375 33.40625 48.484375 
Q 26.265625 48.484375 22.1875 42.84375 
Q 18.109375 37.203125 18.109375 27.296875 
Q 18.109375 17.390625 22.1875 11.75 
Q 26.265625 6.109375 33.40625 6.109375 
Q 40.53125 6.109375 44.609375 11.75 
Q 48.6875 17.390625 48.6875 27.296875 
z
" id="DejaVuSans-112"/>
     </defs>
     <g transform="translate(17.619531 298.435375)rotate(-90)scale(0.17 -0.17)">
      <use xlink:href="#DejaVuSans-70"/>
      <use x="57.410156" xlink:href="#DejaVuSans-114"/>
      <use x="98.523438" xlink:href="#DejaVuSans-97"/>
      <use x="159.802734" xlink:href="#DejaVuSans-99"/>
      <use x="214.783203" xlink:href="#DejaVuSans-116"/>
      <use x="253.992188" xlink:href="#DejaVuSans-105"/>
      <use x="281.775391" xlink:href="#DejaVuSans-111"/>
      <use x="342.957031" xlink:href="#DejaVuSans-110"/>
      <use x="406.335938" xlink:href="#DejaVuSans-32"/>
      <use x="438.123047" xlink:href="#DejaVuSans-111"/>
      <use x="499.304688" xlink:href="#DejaVuSans-102"/>
      <use x="534.509766" xlink:href="#DejaVuSans-32"/>
      <use x="566.296875" xlink:href="#DejaVuSans-102"/>
      <use x="601.501953" xlink:href="#DejaVuSans-117"/>
      <use x="664.880859" xlink:href="#DejaVuSans-110"/>
      <use x="728.259766" xlink:href="#DejaVuSans-99"/>
      <use x="783.240234" xlink:href="#DejaVuSans-116"/>
      <use x="822.449219" xlink:href="#DejaVuSans-105"/>
      <use x="850.232422" xlink:href="#DejaVuSans-111"/>
      <use x="911.414062" xlink:href="#DejaVuSans-110"/>
      <use x="974.792969" xlink:href="#DejaVuSans-44"/>
      <use x="1006.580078" xlink:href="#DejaVuSans-116"/>
      <use x="1045.789062" xlink:href="#DejaVuSans-97"/>
      <use x="1107.068359" xlink:href="#DejaVuSans-114"/>
      <use x="1148.166016" xlink:href="#DejaVuSans-103"/>
      <use x="1211.642578" xlink:href="#DejaVuSans-101"/>
      <use x="1273.166016" xlink:href="#DejaVuSans-116"/>
      <use x="1312.375" xlink:href="#DejaVuSans-32"/>
      <use x="1344.162109" xlink:href="#DejaVuSans-112"/>
      <use x="1407.638672" xlink:href="#DejaVuSans-97"/>
      <use x="1468.917969" xlink:href="#DejaVuSans-105"/>
      <use x="1496.701172" xlink:href="#DejaVuSans-114"/>
      <use x="1537.814453" xlink:href="#DejaVuSans-115"/>
     </g>
    </g>
   </g>
   <g id="line2d_41">
    <defs>
     <path d="M 0 1.5 
C 0.397805 1.5 0.77937 1.341951 1.06066 1.06066 
C 1.341951 0.77937 1.5 0.397805 1.5 0 
C 1.5 -0.397805 1.341951 -0.77937 1.06066 -1.06066 
C 0.77937 -1.341951 0.397805 -1.5 0 -1.5 
C -0.397805 -1.5 -0.77937 -1.341951 -1.06066 -1.06066 
C -1.341951 -0.77937 -1.5 -0.397805 -1.5 0 
C -1.5 0.397805 -1.341951 0.77937 -1.06066 1.06066 
C -0.77937 1.341951 -0.397805 1.5 0 1.5 
z
" id="md76e2bdcda" style="stroke:#f5deb3;"/>
    </defs>
    <g>
     <use style="fill:#f5deb3;stroke:#f5deb3;" x="174.362732" xlink:href="#md76e2bdcda" y="30.334099"/>
     <use style="fill:#f5deb3;stroke:#f5deb3;" x="174.362732" xlink:href="#md76e2bdcda" y="30.334099"/>
    </g>
   </g>
   <g id="line2d_42">
    <defs>
     <path d="M 0 1.5 
C 0.397805 1.5 0.77937 1.341951 1.06066 1.06066 
C 1.341951 0.77937 1.5 0.397805 1.5 0 
C 1.5 -0.397805 1.341951 -0.77937 1.06066 -1.06066 
C 0.77937 -1.341951 0.397805 -1.5 0 -1.5 
C -0.397805 -1.5 -0.77937 -1.341951 -1.06066 -1.06066 
C -1.341951 -0.77937 -1.5 -0.397805 -1.5 0 
C -1.5 0.397805 -1.341951 0.77937 -1.06066 1.06066 
C -0.77937 1.341951 -0.397805 1.5 0 1.5 
z
" id="mc3b6291b4c" style="stroke:#000080;"/>
    </defs>
    <g>
     <use style="fill:#000080;stroke:#000080;" x="214.503058" xlink:href="#mc3b6291b4c" y="30.334099"/>
     <use style="fill:#000080;stroke:#000080;" x="214.503058" xlink:href="#mc3b6291b4c" y="30.334099"/>
    </g>
   </g>
   <g id="line2d_43">
    <path d="M 38.440992 298.944 
L 38.440992 277.349871 
L 50.52898 277.349871 
L 50.52898 274.71644 
L 57.6 274.71644 
L 57.6 273.663068 
L 62.616969 273.663068 
L 62.616969 272.08301 
L 66.508432 272.08301 
L 66.508432 269.976266 
L 69.687988 269.976266 
L 69.687988 269.449579 
L 72.376266 269.449579 
L 72.376266 268.922893 
L 78.59642 268.922893 
L 78.59642 268.396207 
L 80.258561 268.396207 
L 80.258561 267.869521 
L 81.775977 267.869521 
L 81.775977 266.289463 
L 83.171864 266.289463 
L 83.171864 265.762777 
L 85.66744 265.762777 
L 85.66744 265.236091 
L 86.792945 265.236091 
L 86.792945 264.709405 
L 89.78989 264.709405 
L 89.78989 263.129347 
L 94.575872 263.129347 
L 94.575872 262.60266 
L 97.755429 262.60266 
L 97.755429 262.075974 
L 100.443706 262.075974 
L 100.443706 261.549288 
L 105.209745 261.549288 
L 105.209745 261.022602 
L 113.500792 261.022602 
L 113.500792 260.495916 
L 115.917635 260.495916 
L 115.917635 259.96923 
L 119.768017 259.96923 
L 119.768017 259.442544 
L 120.571812 259.442544 
L 120.571812 258.915858 
L 120.728219 258.915858 
L 120.728219 258.389172 
L 122.362027 258.389172 
L 122.362027 257.862486 
L 123.593547 257.862486 
L 123.593547 257.3358 
L 124.114161 257.3358 
L 124.114161 256.809114 
L 126.3947 256.809114 
L 126.3947 256.282427 
L 129.385722 256.282427 
L 129.385722 255.755741 
L 131.856005 255.755741 
L 131.856005 254.702369 
L 133.428175 254.702369 
L 133.428175 254.175683 
L 147.402367 254.175683 
L 147.402367 253.648997 
L 150.710752 253.648997 
L 150.710752 253.122311 
L 151.097081 253.122311 
L 151.205907 251.542253 
L 151.740076 251.542253 
L 151.740076 251.015567 
L 152.486669 251.015567 
L 152.486669 250.488881 
L 154.281186 250.488881 
L 154.281186 249.962195 
L 155.382516 249.962195 
L 155.382516 249.435508 
L 155.845906 249.435508 
L 155.845906 248.908822 
L 156.031982 248.908822 
L 156.031982 248.382136 
L 156.498681 248.382136 
L 156.558644 247.328764 
L 156.875011 247.328764 
L 156.875011 246.275392 
L 157.377174 246.275392 
L 157.377174 245.748706 
L 157.509937 245.748706 
L 157.509937 245.22202 
L 157.828215 245.22202 
L 157.846757 244.168648 
L 159.115303 244.168648 
L 159.166924 243.115275 
L 159.456591 243.115275 
L 159.557689 242.061903 
L 160.458086 242.061903 
L 160.458086 241.535217 
L 160.664283 241.535217 
L 160.664283 241.008531 
L 161.314269 241.008531 
L 161.314269 240.481845 
L 161.984807 240.481845 
L 162.072295 238.375101 
L 162.217141 238.375101 
L 162.217141 237.848415 
L 162.868358 237.848415 
L 162.896128 236.268356 
L 163.496131 236.268356 
L 163.496131 235.74167 
L 163.854349 235.74167 
L 163.854349 234.688298 
L 164.011225 234.688298 
L 164.11503 233.634926 
L 164.562052 233.634926 
L 164.562052 233.10824 
L 164.787563 233.10824 
L 164.824867 232.054868 
L 165.885039 232.054868 
L 165.966667 230.47481 
L 166.128786 230.47481 
L 166.140309 228.894751 
L 166.369174 228.894751 
L 166.471192 227.314693 
L 166.550128 227.314693 
L 166.572616 226.261321 
L 166.673454 226.261321 
L 166.673454 225.207949 
L 166.784816 225.207949 
L 166.884438 223.627891 
L 166.906499 223.627891 
L 166.950537 222.574518 
L 167.04922 222.574518 
L 167.08199 221.521146 
L 167.555679 221.521146 
L 167.555679 220.99446 
L 168.01684 220.99446 
L 168.109685 219.941088 
L 168.191801 219.941088 
L 168.191801 219.414402 
L 168.405532 219.414402 
L 168.405532 218.887716 
L 169.331381 218.887716 
L 169.3984 216.780971 
L 169.654516 216.780971 
L 169.654516 216.254285 
L 170.607318 216.254285 
L 170.607318 215.727599 
L 170.749391 215.727599 
L 170.793552 214.674227 
L 171.54458 214.674227 
L 171.54458 214.147541 
L 172.06072 214.147541 
L 172.150719 213.094169 
L 172.562023 213.094169 
L 172.593876 212.040797 
L 172.807372 212.040797 
L 172.807372 211.514111 
L 173.303236 211.514111 
L 173.303236 210.987425 
L 173.807666 210.987425 
L 173.859536 209.934052 
L 173.992211 209.934052 
L 174.087407 208.88068 
L 174.355542 208.88068 
L 174.391462 207.827308 
L 174.498781 207.827308 
L 174.498781 207.300622 
L 174.633778 207.300622 
L 174.732584 206.24725 
L 174.795808 206.24725 
L 174.795808 205.720564 
L 174.935491 205.720564 
L 174.963293 204.140506 
L 175.074063 204.140506 
L 175.074063 203.613819 
L 175.797284 203.613819 
L 175.85677 202.560447 
L 175.909476 202.560447 
L 175.942337 200.453703 
L 176.363988 200.453703 
L 176.440729 198.873645 
L 176.706692 198.873645 
L 176.806955 197.293586 
L 176.968661 197.293586 
L 177.005766 195.713528 
L 177.092038 195.713528 
L 177.184001 194.13347 
L 177.299796 194.13347 
L 177.299796 193.080098 
L 177.450996 193.080098 
L 177.450996 192.553412 
L 177.630722 192.553412 
L 177.678338 191.50004 
L 177.773182 191.50004 
L 177.790908 190.446667 
L 177.92621 190.446667 
L 178.013889 187.813237 
L 178.297273 187.813237 
L 178.354545 186.233179 
L 178.638117 186.233179 
L 178.638117 185.706493 
L 178.806073 185.706493 
L 178.806073 185.179807 
L 179.027527 185.179807 
L 179.027527 184.653121 
L 179.246204 184.653121 
L 179.295031 183.073062 
L 179.424571 183.073062 
L 179.424571 182.546376 
L 179.574495 182.546376 
L 179.664896 181.493004 
L 179.75483 181.493004 
L 179.75483 180.966318 
L 179.875772 180.966318 
L 179.975052 179.38626 
L 180.021883 179.38626 
L 180.125504 176.752829 
L 180.295143 176.752829 
L 180.295143 176.226143 
L 180.538982 176.226143 
L 180.538982 174.646085 
L 180.699667 174.646085 
L 180.709661 173.066027 
L 180.947811 173.066027 
L 181.031383 172.012655 
L 181.182753 172.012655 
L 181.182753 171.485969 
L 181.385763 171.485969 
L 181.428959 170.432596 
L 181.553151 170.432596 
L 181.581685 169.379224 
L 181.770731 169.379224 
L 181.878511 168.325852 
L 181.971695 168.325852 
L 181.971695 167.799166 
L 182.087478 167.799166 
L 182.087478 167.27248 
L 182.211667 167.27248 
L 182.220831 166.219108 
L 182.344078 166.219108 
L 182.443861 164.112363 
L 182.480004 164.112363 
L 182.480004 163.058991 
L 182.673003 163.058991 
L 182.681928 162.005619 
L 182.877129 162.005619 
L 182.96075 159.898875 
L 183.183243 159.898875 
L 183.286971 157.79213 
L 183.299894 157.79213 
L 183.390086 155.1587 
L 183.573323 155.1587 
L 183.678977 153.578642 
L 183.758849 153.578642 
L 183.804924 151.998584 
L 183.888385 151.998584 
L 183.975592 150.418525 
L 184.082962 150.418525 
L 184.148709 145.678351 
L 184.299805 145.678351 
L 184.380937 141.464862 
L 184.413285 141.464862 
L 184.497912 138.831432 
L 184.546087 138.831432 
L 184.646026 137.778059 
L 184.661963 137.778059 
L 184.713659 136.198001 
L 184.867832 136.198001 
L 184.954204 133.564571 
L 184.99723 133.564571 
L 185.059625 131.457826 
L 185.164412 131.457826 
L 185.27242 129.877768 
L 185.341502 129.877768 
L 185.341502 129.351082 
L 185.463642 129.351082 
L 185.566037 127.244338 
L 185.596261 127.244338 
L 185.656552 126.190966 
L 185.847352 126.190966 
L 185.899365 124.610907 
L 186.006616 124.610907 
L 186.061832 122.504163 
L 186.248272 122.504163 
L 186.328086 120.397419 
L 186.411139 120.397419 
L 186.439935 119.344047 
L 186.579636 119.344047 
L 186.618837 118.290674 
L 186.799447 118.290674 
L 186.897815 116.18393 
L 187.068636 116.18393 
L 187.127512 114.603872 
L 187.381503 114.603872 
L 187.466482 113.5505 
L 187.527411 113.5505 
L 187.631848 110.917069 
L 187.769021 110.917069 
L 187.769021 110.390383 
L 187.891892 110.390383 
L 187.898509 109.337011 
L 188.023758 109.337011 
L 188.128539 107.756953 
L 188.183948 107.756953 
L 188.232693 106.176895 
L 188.345904 106.176895 
L 188.416691 104.596836 
L 188.554223 104.596836 
L 188.640029 103.543464 
L 188.744333 103.543464 
L 188.769525 102.490092 
L 189.226069 102.490092 
L 189.226069 101.963406 
L 189.351301 101.963406 
L 189.442368 99.329976 
L 189.653026 99.329976 
L 189.6859 98.276603 
L 189.943737 98.276603 
L 189.943737 97.749917 
L 193.821074 97.749917 
L 193.821074 97.223231 
L 200.662907 97.223231 
L 200.758108 96.169859 
L 200.803937 96.169859 
L 200.803937 95.643173 
L 201.045304 95.643173 
L 201.045304 95.116487 
L 201.416448 95.116487 
L 201.416448 94.589801 
L 201.651044 94.589801 
L 201.71557 93.009743 
L 201.892908 93.009743 
L 201.953592 91.429684 
L 202.033196 91.429684 
L 202.141697 90.376312 
L 202.526233 90.376312 
L 202.526233 88.269568 
L 202.732331 88.269568 
L 202.80706 86.68951 
L 202.88147 86.68951 
L 202.88147 86.162824 
L 202.994581 86.162824 
L 202.994581 85.636137 
L 203.123551 85.636137 
L 203.123551 84.582765 
L 203.277614 84.582765 
L 203.343227 83.529393 
L 203.438472 83.529393 
L 203.439829 82.476021 
L 204.024217 82.476021 
L 204.024217 81.949335 
L 204.245861 81.949335 
L 204.320841 80.895963 
L 204.407056 80.895963 
L 204.506893 79.842591 
L 204.641658 79.842591 
L 204.641658 78.789218 
L 204.800507 78.789218 
L 204.800507 77.735846 
L 204.929294 77.735846 
L 204.993953 76.155788 
L 205.048478 76.155788 
L 205.048478 75.102416 
L 205.375738 75.102416 
L 205.423031 73.522358 
L 205.570148 73.522358 
L 205.619311 71.942299 
L 205.719606 71.942299 
L 205.764788 70.888927 
L 205.936128 70.888927 
L 206.042805 69.835555 
L 206.136051 69.835555 
L 206.221862 67.728811 
L 207.425202 67.728811 
L 207.425202 67.202125 
L 207.610985 67.202125 
L 207.610985 66.148752 
L 207.861273 66.148752 
L 207.861273 65.622066 
L 208.916417 65.622066 
L 208.916417 64.568694 
L 209.152685 64.568694 
L 209.152685 63.515322 
L 209.458008 63.515322 
L 209.565291 62.46195 
L 209.72215 62.46195 
L 209.818417 61.408578 
L 209.892613 61.408578 
L 209.943148 59.82852 
L 210.020538 59.82852 
L 210.020538 59.301833 
L 210.198255 59.301833 
L 210.245158 58.248461 
L 210.453315 58.248461 
L 210.453315 57.195089 
L 210.571799 57.195089 
L 210.64466 56.141717 
L 210.757397 56.141717 
L 210.821492 53.508287 
L 210.997429 53.508287 
L 211.044866 51.928228 
L 211.242011 51.928228 
L 211.242011 51.401542 
L 211.445528 51.401542 
L 211.532758 50.34817 
L 211.563442 50.34817 
L 211.563442 49.294798 
L 211.706767 49.294798 
L 211.806985 47.71474 
L 211.989099 47.71474 
L 212.048003 46.134681 
L 212.114961 46.134681 
L 212.114961 45.607995 
L 212.244835 45.607995 
L 212.304516 44.554623 
L 212.370498 44.554623 
L 212.446758 42.974565 
L 212.503332 42.974565 
L 212.602298 40.867821 
L 212.704694 40.867821 
L 212.704694 40.341135 
L 213.193891 40.341135 
L 213.193891 39.814448 
L 213.309069 39.814448 
L 213.366758 38.23439 
L 213.438027 38.23439 
L 213.438027 37.707704 
L 213.592591 37.707704 
L 213.661436 36.127646 
L 213.738281 36.127646 
L 213.738281 35.60096 
L 213.941561 35.60096 
L 213.941561 34.020902 
L 214.117508 34.020902 
L 214.146171 32.967529 
L 214.258895 32.967529 
L 214.282956 31.914157 
L 214.443962 31.914157 
L 214.503058 30.334099 
L 338.688 30.334099 
L 338.688 30.334099 
" style="fill:none;stroke:#000080;stroke-linecap:square;stroke-width:1.5;"/>
   </g>
   <g id="line2d_44">
    <defs>
     <path d="M 0 6 
C 1.591219 6 3.117479 5.367802 4.242641 4.242641 
C 5.367802 3.117479 6 1.591219 6 0 
C 6 -1.591219 5.367802 -3.117479 4.242641 -4.242641 
C 3.117479 -5.367802 1.591219 -6 0 -6 
C -1.591219 -6 -3.117479 -5.367802 -4.242641 -4.242641 
C -5.367802 -3.117479 -6 -1.591219 -6 0 
C -6 1.591219 -5.367802 3.117479 -4.242641 4.242641 
C -3.117479 5.367802 -1.591219 6 0 6 
z
" id="m177995534e" style="stroke:#000080;stroke-width:1.5;"/>
    </defs>
    <g>
     <use style="fill-opacity:0;stroke:#000080;stroke-width:1.5;" x="105.209745" xlink:href="#m177995534e" y="261.549288"/>
     <use style="fill-opacity:0;stroke:#000080;stroke-width:1.5;" x="178.354545" xlink:href="#m177995534e" y="186.759865"/>
     <use style="fill-opacity:0;stroke:#000080;stroke-width:1.5;" x="210.245158" xlink:href="#m177995534e" y="58.775147"/>
     <use style="fill-opacity:0;stroke:#000080;stroke-width:1.5;" x="214.503058" xlink:href="#m177995534e" y="30.334099"/>
     <use style="fill-opacity:0;stroke:#000080;stroke-width:1.5;" x="214.503058" xlink:href="#m177995534e" y="30.334099"/>
     <use style="fill-opacity:0;stroke:#000080;stroke-width:1.5;" x="338.688" xlink:href="#m177995534e" y="30.334099"/>
    </g>
   </g>
   <g id="line2d_45">
    <path style="fill:none;stroke:#000080;stroke-linecap:square;stroke-width:1.5;"/>
    <g/>
   </g>
   <g id="line2d_46">
    <defs>
     <path d="M 0 1.5 
C 0.397805 1.5 0.77937 1.341951 1.06066 1.06066 
C 1.341951 0.77937 1.5 0.397805 1.5 0 
C 1.5 -0.397805 1.341951 -0.77937 1.06066 -1.06066 
C 0.77937 -1.341951 0.397805 -1.5 0 -1.5 
C -0.397805 -1.5 -0.77937 -1.341951 -1.06066 -1.06066 
C -1.341951 -0.77937 -1.5 -0.397805 -1.5 0 
C -1.5 0.397805 -1.341951 0.77937 -1.06066 1.06066 
C -0.77937 1.341951 -0.397805 1.5 0 1.5 
z
" id="m8052e05daa" style="stroke:#ff0000;"/>
    </defs>
    <g>
     <use style="fill:#ff0000;stroke:#ff0000;" x="209.76091" xlink:href="#m8052e05daa" y="30.334099"/>
     <use style="fill:#ff0000;stroke:#ff0000;" x="209.76091" xlink:href="#m8052e05daa" y="30.334099"/>
    </g>
   </g>
   <g id="line2d_47">
    <path d="M 38.440992 298.944 
L 38.440992 277.876557 
L 50.52898 277.876557 
L 50.52898 273.663068 
L 57.6 273.663068 
L 57.6 272.08301 
L 62.616969 272.08301 
L 62.616969 270.502952 
L 66.508432 270.502952 
L 66.508432 267.869521 
L 72.376266 267.869521 
L 72.376266 266.289463 
L 74.704957 266.289463 
L 74.704957 265.762777 
L 81.775977 265.762777 
L 81.775977 265.236091 
L 83.171864 265.236091 
L 83.171864 264.709405 
L 87.850195 264.709405 
L 87.850195 264.182719 
L 90.684409 264.182719 
L 90.684409 263.656033 
L 97.16421 263.656033 
L 97.16421 262.60266 
L 103.203018 262.60266 
L 103.203018 261.549288 
L 104.434538 261.549288 
L 104.434538 260.495916 
L 107.009204 260.495916 
L 107.009204 259.96923 
L 108.006005 259.96923 
L 108.006005 258.915858 
L 108.326001 258.915858 
L 108.326001 258.389172 
L 111.505558 258.389172 
L 111.505558 257.862486 
L 126.053856 257.862486 
L 126.053856 256.809114 
L 126.729009 256.809114 
L 126.729009 256.282427 
L 130.036864 256.282427 
L 130.036864 255.755741 
L 130.30865 255.755741 
L 130.398313 253.648997 
L 131.77355 253.648997 
L 131.77355 253.122311 
L 135.212889 253.122311 
L 135.212889 252.068939 
L 136.266147 252.068939 
L 136.266147 251.542253 
L 139.090775 251.542253 
L 139.090775 251.015567 
L 146.749392 251.015567 
L 146.749392 250.488881 
L 147.86833 250.488881 
L 147.901141 249.435508 
L 148.670646 249.435508 
L 148.670646 248.382136 
L 150.87737 248.382136 
L 150.87737 247.328764 
L 151.205907 247.328764 
L 151.205907 246.802078 
L 151.818809 246.802078 
L 151.844975 245.748706 
L 152.612222 245.748706 
L 152.612222 245.22202 
L 153.537988 245.22202 
L 153.537988 244.695334 
L 153.843742 244.695334 
L 153.913546 243.641962 
L 154.303908 243.641962 
L 154.394502 242.588589 
L 154.618949 242.588589 
L 154.618949 242.061903 
L 154.906477 242.061903 
L 154.906477 241.535217 
L 155.425155 241.535217 
L 155.425155 241.008531 
L 156.073064 241.008531 
L 156.114049 239.955159 
L 156.43851 239.955159 
L 156.45859 238.901787 
L 156.618401 238.901787 
L 156.618401 238.375101 
L 156.933697 238.375101 
L 156.953214 236.795043 
L 157.108577 236.795043 
L 157.20498 235.74167 
L 157.377174 235.74167 
L 157.415209 233.10824 
L 157.604152 233.10824 
L 157.697862 231.528182 
L 157.976006 231.528182 
L 158.012759 230.47481 
L 158.267884 230.47481 
L 158.267884 229.948123 
L 158.501489 229.948123 
L 158.501489 229.421437 
L 159.132527 229.421437 
L 159.132527 228.368065 
L 159.354904 228.368065 
L 159.405822 227.314693 
L 159.574482 227.314693 
L 159.574482 226.788007 
L 160.087195 226.788007 
L 160.087195 225.734635 
L 161.329454 225.734635 
L 161.435376 224.154577 
L 161.926237 224.154577 
L 161.926237 222.574518 
L 162.043181 222.574518 
L 162.043181 221.521146 
L 162.588203 221.521146 
L 162.588203 220.99446 
L 162.728843 220.99446 
L 162.728843 220.467774 
L 162.9377 220.467774 
L 162.9377 219.941088 
L 163.061823 219.941088 
L 163.061823 218.887716 
L 163.536298 218.887716 
L 163.536298 218.36103 
L 163.696049 218.36103 
L 163.696049 217.834344 
L 163.867476 217.834344 
L 163.867476 217.307658 
L 164.39735 217.307658 
L 164.498889 216.254285 
L 164.687696 216.254285 
L 164.687696 215.727599 
L 169.340971 215.727599 
L 169.340971 215.200913 
L 171.254912 215.200913 
L 171.254912 214.147541 
L 172.893608 214.147541 
L 172.893608 213.620855 
L 173.478048 213.620855 
L 173.561039 211.514111 
L 173.636143 211.514111 
L 173.636143 210.987425 
L 173.815086 210.987425 
L 173.925999 206.773936 
L 174.13117 206.773936 
L 174.13117 206.24725 
L 174.816832 206.24725 
L 174.816832 205.720564 
L 174.928533 205.720564 
L 175.032607 203.613819 
L 175.053347 203.613819 
L 175.115421 202.560447 
L 175.334356 202.560447 
L 175.395439 200.980389 
L 175.449557 200.980389 
L 175.516968 199.400331 
L 175.610908 199.400331 
L 175.657689 197.820273 
L 175.750876 197.820273 
L 175.823747 195.713528 
L 175.869961 195.713528 
L 175.955464 192.026726 
L 176.014414 192.026726 
L 176.125223 190.446667 
L 176.241787 190.446667 
L 176.331913 185.179807 
L 176.370396 185.179807 
L 176.478973 179.38626 
L 176.485339 179.38626 
L 176.567884 174.646085 
L 176.637426 174.646085 
L 176.712976 172.012655 
L 176.813202 172.012655 
L 176.912855 169.379224 
L 176.981038 169.379224 
L 177.079739 166.219108 
L 177.165647 166.219108 
L 177.208443 165.165736 
L 177.287644 165.165736 
L 177.372536 162.005619 
L 177.444973 162.005619 
L 177.463036 160.952247 
L 177.559054 160.952247 
L 177.588952 159.372189 
L 177.672393 159.372189 
L 177.761354 156.212072 
L 177.790908 156.212072 
L 177.826305 154.632014 
L 178.002224 154.632014 
L 178.025547 152.52527 
L 178.153265 152.52527 
L 178.262819 150.945211 
L 178.291535 150.945211 
L 178.400227 149.365153 
L 178.44579 149.365153 
L 178.553528 144.624978 
L 178.587413 144.624978 
L 178.683063 140.41149 
L 178.722297 140.41149 
L 178.822779 137.251373 
L 178.872805 137.251373 
L 178.950337 135.671315 
L 179.049518 135.671315 
L 179.13174 133.564571 
L 179.191791 133.564571 
L 179.300447 129.877768 
L 179.338318 129.877768 
L 179.435323 127.244338 
L 179.51575 127.244338 
L 179.51575 126.717652 
L 179.659591 126.717652 
L 179.723141 125.66428 
L 179.786461 125.66428 
L 179.854799 123.557535 
L 179.92287 123.557535 
L 180.032273 120.397419 
L 180.063405 120.397419 
L 180.15647 117.763988 
L 180.202817 117.763988 
L 180.305371 114.077186 
L 180.32581 114.077186 
L 180.330916 113.023814 
L 180.478341 113.023814 
L 180.549068 111.443755 
L 180.634567 111.443755 
L 180.744595 109.863697 
L 180.799349 109.863697 
L 180.873738 108.810325 
L 180.957664 108.810325 
L 180.997019 106.703581 
L 181.168162 106.703581 
L 181.168162 106.176895 
L 181.400174 106.176895 
L 181.400174 105.650209 
L 181.543629 105.650209 
L 181.54839 104.596836 
L 181.66228 104.596836 
L 181.66228 103.016778 
L 181.794218 103.016778 
L 181.798912 101.963406 
L 181.971695 101.963406 
L 181.971695 101.43672 
L 182.142783 101.43672 
L 182.142783 100.910034 
L 182.316765 100.910034 
L 182.334978 98.276603 
L 182.619357 98.276603 
L 182.619357 97.749917 
L 182.929989 97.749917 
L 182.929989 97.223231 
L 185.947524 97.223231 
L 186.002928 95.643173 
L 186.193644 95.643173 
L 186.277338 93.009743 
L 186.328086 93.009743 
L 186.418342 87.216196 
L 186.479451 87.216196 
L 186.558216 85.636137 
L 186.704063 85.636137 
L 186.753586 83.529393 
L 186.827609 83.529393 
L 186.859237 81.949335 
L 186.971229 81.949335 
L 187.068636 79.842591 
L 187.158601 79.842591 
L 187.258402 78.789218 
L 187.459699 78.789218 
L 187.459699 78.262532 
L 187.58476 78.262532 
L 187.638565 77.20916 
L 187.698897 77.20916 
L 187.698897 76.682474 
L 187.818938 76.682474 
L 187.924952 74.57573 
L 187.95795 74.57573 
L 188.010617 72.995672 
L 188.157895 72.995672 
L 188.245669 69.835555 
L 188.371678 69.835555 
L 188.480794 66.675439 
L 188.493586 66.675439 
L 188.589232 64.568694 
L 188.611474 64.568694 
L 188.646368 62.988636 
L 188.728569 62.988636 
L 188.728569 62.46195 
L 188.848017 62.46195 
L 188.876188 61.408578 
L 189.069026 61.408578 
L 189.167728 60.355206 
L 189.30864 60.355206 
L 189.326936 59.301833 
L 189.454474 59.301833 
L 189.47564 58.248461 
L 189.798987 58.248461 
L 189.798987 57.721775 
L 190.151367 57.721775 
L 190.151367 56.141717 
L 190.330678 56.141717 
L 190.330678 55.615031 
L 190.499618 55.615031 
L 190.499618 55.088345 
L 192.845042 55.088345 
L 192.927051 53.508287 
L 192.974094 53.508287 
L 193.085008 49.294798 
L 193.099743 49.294798 
L 193.099743 48.768112 
L 193.461733 48.768112 
L 193.461733 48.241426 
L 193.59825 48.241426 
L 193.59825 47.71474 
L 194.034107 47.71474 
L 194.129246 46.661368 
L 194.212356 46.661368 
L 194.212356 46.134681 
L 194.441161 46.134681 
L 194.538632 45.081309 
L 194.752062 45.081309 
L 194.752062 44.554623 
L 195.169063 44.554623 
L 195.169063 44.027937 
L 195.338293 44.027937 
L 195.338293 42.974565 
L 207.432758 42.974565 
L 207.432758 42.447879 
L 207.981946 42.447879 
L 208.075807 41.394507 
L 208.233189 41.394507 
L 208.331862 38.761076 
L 208.350301 38.761076 
L 208.350301 38.23439 
L 208.469682 38.23439 
L 208.469682 36.654332 
L 208.59633 36.654332 
L 208.59633 36.127646 
L 208.761108 36.127646 
L 208.770106 35.074274 
L 208.923354 35.074274 
L 209.018208 33.494215 
L 209.1693 33.494215 
L 209.1693 32.967529 
L 209.349093 32.967529 
L 209.349093 32.440843 
L 209.486809 32.440843 
L 209.486809 31.914157 
L 209.695631 31.914157 
L 209.76091 30.334099 
L 338.688 30.334099 
L 338.688 30.334099 
" style="fill:none;stroke:#ff0000;stroke-linecap:square;stroke-width:1.5;"/>
   </g>
   <g id="line2d_48">
    <defs>
     <path d="M 0 -6 
L -5.196152 -3 
L -5.196152 3 
L -0 6 
L 5.196152 3 
L 5.196152 -3 
z
" id="m3624e4ad7c" style="stroke:#ff0000;stroke-linejoin:miter;stroke-width:1.5;"/>
    </defs>
    <g>
     <use style="fill-opacity:0;stroke:#ff0000;stroke-linejoin:miter;stroke-width:1.5;" x="97.16421" xlink:href="#m3624e4ad7c" y="262.60266"/>
     <use style="fill-opacity:0;stroke:#ff0000;stroke-linejoin:miter;stroke-width:1.5;" x="175.334356" xlink:href="#m3624e4ad7c" y="202.033761"/>
     <use style="fill-opacity:0;stroke:#ff0000;stroke-linejoin:miter;stroke-width:1.5;" x="188.876188" xlink:href="#m3624e4ad7c" y="61.935264"/>
     <use style="fill-opacity:0;stroke:#ff0000;stroke-linejoin:miter;stroke-width:1.5;" x="209.76091" xlink:href="#m3624e4ad7c" y="30.334099"/>
     <use style="fill-opacity:0;stroke:#ff0000;stroke-linejoin:miter;stroke-width:1.5;" x="209.76091" xlink:href="#m3624e4ad7c" y="30.334099"/>
     <use style="fill-opacity:0;stroke:#ff0000;stroke-linejoin:miter;stroke-width:1.5;" x="338.688" xlink:href="#m3624e4ad7c" y="30.334099"/>
    </g>
   </g>
   <g id="line2d_49">
    <path style="fill:none;stroke:#ff0000;stroke-linecap:square;stroke-width:1.5;"/>
    <g/>
   </g>
   <g id="line2d_50">
    <defs>
     <path d="M 0 1.5 
C 0.397805 1.5 0.77937 1.341951 1.06066 1.06066 
C 1.341951 0.77937 1.5 0.397805 1.5 0 
C 1.5 -0.397805 1.341951 -0.77937 1.06066 -1.06066 
C 0.77937 -1.341951 0.397805 -1.5 0 -1.5 
C -0.397805 -1.5 -0.77937 -1.341951 -1.06066 -1.06066 
C -1.341951 -0.77937 -1.5 -0.397805 -1.5 0 
C -1.5 0.397805 -1.341951 0.77937 -1.06066 1.06066 
C -0.77937 1.341951 -0.397805 1.5 0 1.5 
z
" id="mbeedb860eb" style="stroke:#bebebe;"/>
    </defs>
    <g>
     <use style="fill:#bebebe;stroke:#bebebe;" x="372.216248" xlink:href="#mbeedb860eb" y="204.140506"/>
     <use style="fill:#bebebe;stroke:#bebebe;" x="372.216248" xlink:href="#mbeedb860eb" y="204.140506"/>
    </g>
   </g>
   <g id="line2d_51">
    <path d="M 38.440992 298.944 
L 38.440992 280.509987 
L 50.52898 280.509987 
L 50.52898 275.243126 
L 57.6 275.243126 
L 57.6 272.609696 
L 62.616969 272.609696 
L 62.616969 270.502952 
L 66.508432 270.502952 
L 66.508432 269.976266 
L 69.687988 269.976266 
L 69.687988 268.396207 
L 72.376266 268.396207 
L 72.376266 267.869521 
L 74.704957 267.869521 
L 74.704957 266.289463 
L 76.759008 266.289463 
L 76.759008 265.762777 
L 80.258561 265.762777 
L 80.258561 264.182719 
L 81.775977 264.182719 
L 81.775977 263.129347 
L 83.171864 263.129347 
L 83.171864 262.60266 
L 84.464254 262.60266 
L 84.464254 262.075974 
L 91.535274 262.075974 
L 91.535274 260.495916 
L 101.412804 260.495916 
L 101.412804 259.442544 
L 103.203018 259.442544 
L 103.203018 258.915858 
L 110.131676 258.915858 
L 110.131676 258.389172 
L 110.968922 258.389172 
L 110.968922 257.862486 
L 118.399528 257.862486 
L 118.399528 257.3358 
L 119.43583 257.3358 
L 119.43583 256.809114 
L 119.931767 256.809114 
L 119.931767 255.229055 
L 122.219665 255.229055 
L 122.219665 254.702369 
L 123.855796 254.702369 
L 123.855796 254.175683 
L 124.494669 254.175683 
L 124.494669 253.648997 
L 126.168212 253.648997 
L 126.168212 252.068939 
L 127.799239 252.068939 
L 127.799239 251.542253 
L 129.195127 251.542253 
L 129.195127 250.488881 
L 132.581068 250.488881 
L 132.581068 249.962195 
L 133.946579 249.962195 
L 133.946579 249.435508 
L 139.413734 249.435508 
L 139.413734 248.908822 
L 139.835248 248.908822 
L 139.835248 248.382136 
L 145.814278 248.382136 
L 145.814278 247.85545 
L 151.581536 247.85545 
L 151.581536 247.328764 
L 154.529516 247.328764 
L 154.529516 246.802078 
L 172.506141 246.802078 
L 172.506141 246.275392 
L 175.080963 246.275392 
L 175.080963 245.748706 
L 175.415753 245.748706 
L 175.415753 245.22202 
L 177.299796 245.22202 
L 177.299796 244.695334 
L 178.63249 244.695334 
L 178.63249 244.168648 
L 180.61951 244.168648 
L 180.61951 243.641962 
L 182.096708 243.641962 
L 182.096708 243.115275 
L 186.604592 243.115275 
L 186.604592 242.588589 
L 188.167669 242.588589 
L 188.167669 242.061903 
L 194.511485 242.061903 
L 194.511485 241.008531 
L 198.899762 241.008531 
L 198.899762 240.481845 
L 199.811962 240.481845 
L 199.811962 239.955159 
L 203.843524 239.955159 
L 203.843524 239.428473 
L 207.141117 239.428473 
L 207.141117 238.901787 
L 213.616831 238.901787 
L 213.616831 237.848415 
L 213.831247 237.848415 
L 213.831247 237.321729 
L 222.786871 237.321729 
L 222.786871 236.795043 
L 226.509918 236.795043 
L 226.509918 236.268356 
L 227.71255 236.268356 
L 227.71255 235.214984 
L 228.69786 235.214984 
L 228.69786 234.688298 
L 231.006535 234.688298 
L 231.006535 234.161612 
L 233.128534 234.161612 
L 233.128534 233.634926 
L 237.386341 233.634926 
L 237.386341 233.10824 
L 238.267905 233.10824 
L 238.267905 232.581554 
L 239.590642 232.581554 
L 239.590642 232.054868 
L 241.054273 232.054868 
L 241.054273 231.528182 
L 242.153143 231.528182 
L 242.24208 230.47481 
L 243.034517 230.47481 
L 243.034517 229.948123 
L 244.906042 229.948123 
L 244.906042 229.421437 
L 246.362478 229.421437 
L 246.427191 227.314693 
L 258.502198 227.314693 
L 258.502198 226.261321 
L 261.163749 226.261321 
L 261.163749 225.734635 
L 269.764242 225.734635 
L 269.764242 225.207949 
L 270.778616 225.207949 
L 270.778616 224.681263 
L 275.900786 224.681263 
L 275.908233 223.627891 
L 281.016336 223.627891 
L 281.016336 223.101204 
L 281.893091 223.101204 
L 281.893091 222.047832 
L 285.282679 222.047832 
L 285.282679 221.521146 
L 296.217467 221.521146 
L 296.217467 220.99446 
L 299.241481 220.99446 
L 299.241481 220.467774 
L 299.386935 220.467774 
L 299.386935 219.941088 
L 300.154826 219.941088 
L 300.154826 219.414402 
L 304.214361 219.414402 
L 304.214361 217.834344 
L 305.71502 217.834344 
L 305.71502 216.254285 
L 313.691832 216.254285 
L 313.691832 215.727599 
L 314.578966 215.727599 
L 314.578966 214.674227 
L 319.797969 214.674227 
L 319.797969 213.620855 
L 320.427699 213.620855 
L 320.427699 212.567483 
L 324.311708 212.567483 
L 324.311708 212.040797 
L 327.894113 212.040797 
L 327.894113 210.987425 
L 328.292613 210.987425 
L 328.292613 210.460738 
L 330.864546 210.460738 
L 330.864546 209.934052 
L 337.581354 209.934052 
L 337.581354 209.407366 
L 337.811123 209.407366 
L 337.811123 208.88068 
L 338.688 208.88068 
L 338.688 208.88068 
" style="fill:none;stroke:#bebebe;stroke-linecap:square;stroke-width:1.5;"/>
   </g>
   <g id="line2d_52">
    <defs>
     <path d="M 0 0 
L -6 -0 
M 0 0 
L 3 4.8 
M 0 0 
L 3 -4.8 
" id="m69687fbc63" style="stroke:#bebebe;stroke-width:1.5;"/>
    </defs>
    <g>
     <use style="fill-opacity:0;stroke:#bebebe;stroke-width:1.5;" x="91.535274" xlink:href="#m69687fbc63" y="260.495916"/>
     <use style="fill-opacity:0;stroke:#bebebe;stroke-width:1.5;" x="180.61951" xlink:href="#m69687fbc63" y="244.168648"/>
     <use style="fill-opacity:0;stroke:#bebebe;stroke-width:1.5;" x="241.054273" xlink:href="#m69687fbc63" y="231.528182"/>
     <use style="fill-opacity:0;stroke:#bebebe;stroke-width:1.5;" x="324.311708" xlink:href="#m69687fbc63" y="212.567483"/>
     <use style="fill-opacity:0;stroke:#bebebe;stroke-width:1.5;" x="337.811123" xlink:href="#m69687fbc63" y="208.88068"/>
     <use style="fill-opacity:0;stroke:#bebebe;stroke-width:1.5;" x="338.688" xlink:href="#m69687fbc63" y="208.88068"/>
    </g>
   </g>
   <g id="line2d_53">
    <path style="fill:none;stroke:#bebebe;stroke-linecap:square;stroke-width:1.5;"/>
    <g/>
   </g>
   <g id="line2d_54">
    <path clip-path="url(#pbc15be79c9)" d="M 298.532571 220.99446 
" style="fill:none;stroke:#bebebe;stroke-linecap:square;stroke-width:1.5;"/>
    <defs>
     <path d="M -12 12 
L 12 -12 
M -12 -12 
L 12 12 
" id="mff22d55104" style="stroke:#bebebe;"/>
    </defs>
    <g clip-path="url(#pbc15be79c9)">
     <use style="fill:#bebebe;stroke:#bebebe;" x="298.532571" xlink:href="#mff22d55104" y="220.99446"/>
    </g>
   </g>
   <g id="line2d_55">
    <defs>
     <path d="M 0 1.5 
C 0.397805 1.5 0.77937 1.341951 1.06066 1.06066 
C 1.341951 0.77937 1.5 0.397805 1.5 0 
C 1.5 -0.397805 1.341951 -0.77937 1.06066 -1.06066 
C 0.77937 -1.341951 0.397805 -1.5 0 -1.5 
C -0.397805 -1.5 -0.77937 -1.341951 -1.06066 -1.06066 
C -1.341951 -0.77937 -1.5 -0.397805 -1.5 0 
C -1.5 0.397805 -1.341951 0.77937 -1.06066 1.06066 
C -0.77937 1.341951 -0.397805 1.5 0 1.5 
z
" id="m12d4e8fd10" style="stroke:#6495ed;"/>
    </defs>
    <g>
     <use style="fill:#6495ed;stroke:#6495ed;" x="306.449736" xlink:href="#m12d4e8fd10" y="98.803289"/>
     <use style="fill:#6495ed;stroke:#6495ed;" x="306.449736" xlink:href="#m12d4e8fd10" y="98.803289"/>
    </g>
   </g>
   <g id="line2d_56">
    <path d="M 38.440992 298.944 
L 38.440992 277.876557 
L 81.775977 277.876557 
L 81.775977 276.296499 
L 83.171864 276.296499 
L 83.171864 275.769812 
L 84.464254 275.769812 
L 84.464254 274.71644 
L 85.66744 274.71644 
L 85.66744 272.609696 
L 86.792945 272.609696 
L 86.792945 272.08301 
L 95.259853 272.08301 
L 95.259853 271.029638 
L 97.16421 271.029638 
L 97.16421 270.502952 
L 97.755429 270.502952 
L 97.755429 269.976266 
L 98.880934 269.976266 
L 98.880934 268.396207 
L 105.209745 268.396207 
L 105.209745 267.869521 
L 105.584798 267.869521 
L 105.584798 267.342835 
L 108.640231 267.342835 
L 108.640231 266.816149 
L 109.843417 266.816149 
L 109.843417 266.289463 
L 111.239304 266.289463 
L 111.239304 265.762777 
L 113.022974 265.762777 
L 113.022974 265.236091 
L 113.500792 265.236091 
L 113.500792 264.709405 
L 117.672786 264.709405 
L 117.672786 263.129347 
L 118.039942 263.129347 
L 118.039942 262.60266 
L 118.751849 262.60266 
L 118.751849 262.075974 
L 119.097192 262.075974 
L 119.097192 261.549288 
L 122.219665 261.549288 
L 122.219665 261.022602 
L 123.460928 261.022602 
L 123.460928 260.495916 
L 124.619683 260.495916 
L 124.619683 259.96923 
L 127.05703 259.96923 
L 127.05703 259.442544 
L 127.902737 259.442544 
L 127.902737 258.915858 
L 129.385722 258.915858 
L 129.385722 258.389172 
L 130.576266 258.389172 
L 130.576266 257.862486 
L 132.581068 257.862486 
L 132.581068 257.3358 
L 136.393441 257.3358 
L 136.393441 256.809114 
L 138.706272 256.809114 
L 138.706272 256.282427 
L 138.981779 256.282427 
L 138.981779 255.229055 
L 139.572998 255.229055 
L 139.572998 254.702369 
L 140.042245 254.702369 
L 140.042245 254.175683 
L 140.246813 254.175683 
L 140.348205 253.122311 
L 140.79731 253.122311 
L 140.79731 252.068939 
L 141.187031 252.068939 
L 141.187031 251.542253 
L 141.662245 251.542253 
L 141.662245 251.015567 
L 142.033307 251.015567 
L 142.033307 250.488881 
L 143.273169 250.488881 
L 143.273169 249.962195 
L 143.861538 249.962195 
L 143.861538 249.435508 
L 144.107744 249.435508 
L 144.107744 248.908822 
L 144.629556 248.908822 
L 144.629556 248.382136 
L 145.020588 248.382136 
L 145.020588 247.328764 
L 147.4697 247.328764 
L 147.4697 246.802078 
L 147.670154 246.802078 
L 147.670154 246.275392 
L 147.86833 246.275392 
L 147.86833 245.748706 
L 148.54473 245.748706 
L 148.54473 244.695334 
L 148.857832 244.695334 
L 148.888835 243.115275 
L 149.134896 243.115275 
L 149.134896 242.588589 
L 149.407627 242.588589 
L 149.407627 242.061903 
L 149.823575 242.061903 
L 149.823575 241.535217 
L 149.940618 241.535217 
L 149.940618 241.008531 
L 152.959038 241.008531 
L 152.959038 240.481845 
L 159.046236 240.481845 
L 159.046236 239.955159 
L 159.923445 239.955159 
L 159.923445 239.428473 
L 160.914762 239.428473 
L 160.914762 238.901787 
L 161.146363 238.901787 
L 161.146363 238.375101 
L 161.555647 238.375101 
L 161.555647 237.848415 
L 161.984807 237.848415 
L 161.984807 237.321729 
L 166.001534 237.321729 
L 166.036331 236.268356 
L 166.617505 236.268356 
L 166.617505 235.74167 
L 169.916203 235.74167 
L 169.981016 234.688298 
L 170.210544 234.688298 
L 170.210544 234.161612 
L 170.811185 234.161612 
L 170.811185 233.634926 
L 170.960352 233.634926 
L 170.960352 233.10824 
L 172.191475 233.10824 
L 172.288901 231.001496 
L 172.62567 231.001496 
L 172.696997 229.421437 
L 172.9872 229.421437 
L 172.9872 228.894751 
L 175.55729 228.894751 
L 175.55729 228.368065 
L 175.88973 228.368065 
L 175.88973 227.841379 
L 177.582976 227.841379 
L 177.582976 227.314693 
L 182.801969 227.314693 
L 182.855057 226.261321 
L 183.091972 226.261321 
L 183.091972 225.734635 
L 183.590271 225.734635 
L 183.590271 225.207949 
L 185.102392 225.207949 
L 185.102392 224.681263 
L 186.230082 224.681263 
L 186.335324 223.627891 
L 186.353405 223.627891 
L 186.450721 222.047832 
L 186.475862 222.047832 
L 186.515297 219.941088 
L 186.63307 219.941088 
L 186.63307 219.414402 
L 187.408741 219.414402 
L 187.490202 218.36103 
L 187.625129 218.36103 
L 187.658698 217.307658 
L 187.818938 217.307658 
L 187.818938 216.780971 
L 188.633687 216.780971 
L 188.633687 216.254285 
L 188.804105 216.254285 
L 188.857412 215.200913 
L 189.106105 215.200913 
L 189.140025 214.147541 
L 189.396894 214.147541 
L 189.396894 213.620855 
L 189.656017 213.620855 
L 189.656017 213.094169 
L 193.107106 213.094169 
L 193.170789 212.040797 
L 193.314443 212.040797 
L 193.314443 211.514111 
L 193.533717 211.514111 
L 193.636379 208.353994 
L 193.662544 208.353994 
L 193.6768 207.300622 
L 193.938447 207.300622 
L 194.001502 206.24725 
L 194.062006 206.24725 
L 194.124617 204.140506 
L 194.175467 204.140506 
L 194.246869 201.507075 
L 194.299656 201.507075 
L 194.372834 197.820273 
L 195.769073 197.820273 
L 195.876172 196.240214 
L 197.087172 196.240214 
L 197.184555 193.606784 
L 197.207846 193.606784 
L 197.258204 192.553412 
L 197.437149 192.553412 
L 197.471572 191.50004 
L 198.177364 191.50004 
L 198.177364 190.973354 
L 198.744163 190.973354 
L 198.763689 188.339923 
L 198.947225 188.339923 
L 198.977043 186.759865 
L 199.067937 186.759865 
L 199.09929 184.126434 
L 199.476305 184.126434 
L 199.53581 183.073062 
L 199.74501 183.073062 
L 199.74501 182.546376 
L 199.950072 182.546376 
L 199.963327 181.493004 
L 200.147836 181.493004 
L 200.147836 180.966318 
L 200.499862 180.966318 
L 200.527142 179.912946 
L 202.801431 179.912946 
L 202.895474 177.806202 
L 202.927641 177.806202 
L 202.927641 177.279515 
L 203.041842 177.279515 
L 203.041842 176.752829 
L 203.370493 176.752829 
L 203.461524 175.172771 
L 203.52645 175.172771 
L 203.557475 171.485969 
L 209.774125 171.485969 
L 209.851327 168.852538 
L 210.711853 168.852538 
L 210.711853 168.325852 
L 214.051182 168.325852 
L 214.051182 166.745794 
L 214.592045 166.745794 
L 214.595624 165.165736 
L 215.248115 165.165736 
L 215.266718 162.532305 
L 215.939466 162.532305 
L 215.954036 160.425561 
L 216.117453 160.425561 
L 216.179648 156.212072 
L 218.288437 156.212072 
L 218.39409 154.632014 
L 218.745098 154.632014 
L 218.745098 154.105328 
L 219.241721 154.105328 
L 219.241721 153.578642 
L 220.998458 153.578642 
L 220.998458 153.051956 
L 225.595092 153.051956 
L 225.595092 152.52527 
L 228.444495 152.52527 
L 228.44773 150.945211 
L 229.958272 150.945211 
L 229.961534 149.891839 
L 230.647921 149.891839 
L 230.730964 145.678351 
L 231.116222 145.678351 
L 231.116222 145.151665 
L 231.624915 145.151665 
L 231.624915 144.624978 
L 231.905395 144.624978 
L 231.905395 144.098292 
L 232.484763 144.098292 
L 232.580458 141.464862 
L 232.903803 141.464862 
L 232.903803 140.41149 
L 233.315946 140.41149 
L 233.315946 139.884804 
L 233.839352 139.884804 
L 233.90617 137.778059 
L 233.953168 137.778059 
L 233.953168 137.251373 
L 236.418765 137.251373 
L 236.418765 136.724687 
L 236.65246 136.724687 
L 236.65246 136.198001 
L 236.794314 136.198001 
L 236.853731 130.404454 
L 237.593535 130.404454 
L 237.593535 129.877768 
L 238.488053 129.877768 
L 238.488053 129.351082 
L 241.589696 129.351082 
L 241.617377 127.771024 
L 242.690095 127.771024 
L 242.71209 126.190966 
L 242.901178 126.190966 
L 242.928548 125.137593 
L 243.618714 125.137593 
L 243.670264 123.030849 
L 243.831367 123.030849 
L 243.850499 121.977477 
L 243.989139 121.977477 
L 243.989139 121.450791 
L 244.312449 121.450791 
L 244.361211 120.397419 
L 246.008815 120.397419 
L 246.048585 117.237302 
L 246.489711 117.237302 
L 246.489711 116.710616 
L 248.213649 116.710616 
L 248.213649 116.18393 
L 249.003222 116.18393 
L 249.03871 115.130558 
L 250.641837 115.130558 
L 250.65379 114.077186 
L 251.003824 114.077186 
L 251.003824 113.5505 
L 251.948048 113.5505 
L 251.948048 113.023814 
L 252.181718 113.023814 
L 252.181718 112.497128 
L 254.740672 112.497128 
L 254.838217 111.443755 
L 256.41521 111.443755 
L 256.487594 110.390383 
L 259.058105 110.390383 
L 259.058105 109.863697 
L 261.452041 109.863697 
L 261.452041 109.337011 
L 261.866149 109.337011 
L 261.866149 108.810325 
L 262.154998 108.810325 
L 262.154998 108.283639 
L 262.450465 108.283639 
L 262.450465 107.756953 
L 264.302307 107.756953 
L 264.302307 107.230267 
L 265.530977 107.230267 
L 265.622073 105.650209 
L 269.680258 105.650209 
L 269.680258 105.123522 
L 271.418476 105.123522 
L 271.49062 104.07015 
L 272.379134 104.07015 
L 272.379134 103.543464 
L 274.489232 103.543464 
L 274.489232 103.016778 
L 277.116038 103.016778 
L 277.116038 102.490092 
L 280.454989 102.490092 
L 280.454989 101.963406 
L 281.392577 101.963406 
L 281.392577 101.43672 
L 283.152761 101.43672 
L 283.220954 100.383348 
L 294.703886 100.383348 
L 294.703886 99.856662 
L 296.772027 99.856662 
L 296.772027 99.329976 
L 306.449736 99.329976 
L 306.449736 98.803289 
L 338.688 98.803289 
L 338.688 98.803289 
" style="fill:none;stroke:#6495ed;stroke-linecap:square;stroke-width:1.5;"/>
   </g>
   <g id="line2d_57">
    <defs>
     <path d="M -0 6 
L 6 -6 
L -6 -6 
z
" id="m886505a529" style="stroke:#6495ed;stroke-linejoin:miter;stroke-width:1.5;"/>
    </defs>
    <g>
     <use style="fill-opacity:0;stroke:#6495ed;stroke-linejoin:miter;stroke-width:1.5;" x="98.880934" xlink:href="#m886505a529" y="269.976266"/>
     <use style="fill-opacity:0;stroke:#6495ed;stroke-linejoin:miter;stroke-width:1.5;" x="161.984807" xlink:href="#m886505a529" y="237.321729"/>
     <use style="fill-opacity:0;stroke:#6495ed;stroke-linejoin:miter;stroke-width:1.5;" x="229.961534" xlink:href="#m886505a529" y="150.418525"/>
     <use style="fill-opacity:0;stroke:#6495ed;stroke-linejoin:miter;stroke-width:1.5;" x="294.703886" xlink:href="#m886505a529" y="100.383348"/>
     <use style="fill-opacity:0;stroke:#6495ed;stroke-linejoin:miter;stroke-width:1.5;" x="306.449736" xlink:href="#m886505a529" y="98.803289"/>
     <use style="fill-opacity:0;stroke:#6495ed;stroke-linejoin:miter;stroke-width:1.5;" x="338.688" xlink:href="#m886505a529" y="98.803289"/>
    </g>
   </g>
   <g id="line2d_58">
    <path style="fill:none;stroke:#6495ed;stroke-linecap:square;stroke-width:1.5;"/>
    <g/>
   </g>
   <g id="line2d_59">
    <path clip-path="url(#pbc15be79c9)" d="M 230.537248 149.891839 
" style="fill:none;stroke:#6495ed;stroke-linecap:square;stroke-width:1.5;"/>
    <defs>
     <path d="M -12 12 
L 12 -12 
M -12 -12 
L 12 12 
" id="m157d7d3e23" style="stroke:#6495ed;"/>
    </defs>
    <g clip-path="url(#pbc15be79c9)">
     <use style="fill:#6495ed;stroke:#6495ed;" x="230.537248" xlink:href="#m157d7d3e23" y="149.891839"/>
    </g>
   </g>
   <g id="line2d_60">
    <path d="M 338.688 208.88068 
L 369.60768 293.571802 
" style="fill:none;stroke:#bebebe;stroke-linecap:square;stroke-width:1.5;"/>
    <g>
     <use style="fill-opacity:0;stroke:#bebebe;stroke-width:1.5;" x="338.688" xlink:href="#m69687fbc63" y="208.88068"/>
     <use style="fill-opacity:0;stroke:#bebebe;stroke-width:1.5;" x="369.60768" xlink:href="#m69687fbc63" y="293.571802"/>
    </g>
   </g>
   <g id="line2d_61">
    <path d="M 338.688 98.803289 
L 369.60768 229.105426 
" style="fill:none;stroke:#6495ed;stroke-linecap:square;stroke-width:1.5;"/>
    <g>
     <use style="fill-opacity:0;stroke:#6495ed;stroke-linejoin:miter;stroke-width:1.5;" x="338.688" xlink:href="#m886505a529" y="98.803289"/>
     <use style="fill-opacity:0;stroke:#6495ed;stroke-linejoin:miter;stroke-width:1.5;" x="369.60768" xlink:href="#m886505a529" y="229.105426"/>
    </g>
   </g>
   <g id="line2d_62">
    <path d="M 338.688 30.334099 
L 369.60768 164.63905 
" style="fill:none;stroke:#000080;stroke-linecap:square;stroke-width:1.5;"/>
    <g>
     <use style="fill-opacity:0;stroke:#000080;stroke-width:1.5;" x="338.688" xlink:href="#m177995534e" y="30.334099"/>
     <use style="fill-opacity:0;stroke:#000080;stroke-width:1.5;" x="369.60768" xlink:href="#m177995534e" y="164.63905"/>
    </g>
   </g>
   <g id="line2d_63">
    <path d="M 338.688 30.334099 
L 369.60768 100.172673 
" style="fill:none;stroke:#ff0000;stroke-linecap:square;stroke-width:1.5;"/>
    <g>
     <use style="fill-opacity:0;stroke:#ff0000;stroke-linejoin:miter;stroke-width:1.5;" x="338.688" xlink:href="#m3624e4ad7c" y="30.334099"/>
     <use style="fill-opacity:0;stroke:#ff0000;stroke-linejoin:miter;stroke-width:1.5;" x="369.60768" xlink:href="#m3624e4ad7c" y="100.172673"/>
    </g>
   </g>
   <g id="line2d_64">
    <path d="M 338.688 298.944 
L 338.688 30.334099 
" style="fill:none;stroke:#000000;stroke-linecap:square;stroke-width:1.5;"/>
   </g>
   <g id="patch_3">
    <path d="M 57.6 298.944 
L 57.6 27.648 
" style="fill:none;stroke:#000000;stroke-linecap:square;stroke-linejoin:miter;stroke-width:0.8;"/>
   </g>
   <g id="patch_4">
    <path d="M 338.688 298.944 
L 338.688 27.648 
" style="fill:none;stroke:#000000;stroke-linecap:square;stroke-linejoin:miter;stroke-width:0.8;"/>
   </g>
   <g id="patch_5">
    <path d="M 57.6 298.944 
L 338.688 298.944 
" style="fill:none;stroke:#000000;stroke-linecap:square;stroke-linejoin:miter;stroke-width:0.8;"/>
   </g>
   <g id="patch_6">
    <path d="M 57.6 27.648 
L 338.688 27.648 
" style="fill:none;stroke:#000000;stroke-linecap:square;stroke-linejoin:miter;stroke-width:0.8;"/>
   </g>
   <g id="text_13">
    <!-- RANDOMSEA -->
    <defs>
     <path d="M 44.390625 34.1875 
Q 47.5625 33.109375 50.5625 29.59375 
Q 53.5625 26.078125 56.59375 19.921875 
L 66.609375 0 
L 56 0 
L 46.6875 18.703125 
Q 43.0625 26.03125 39.671875 28.421875 
Q 36.28125 30.8125 30.421875 30.8125 
L 19.671875 30.8125 
L 19.671875 0 
L 9.8125 0 
L 9.8125 72.90625 
L 32.078125 72.90625 
Q 44.578125 72.90625 50.734375 67.671875 
Q 56.890625 62.453125 56.890625 51.90625 
Q 56.890625 45.015625 53.6875 40.46875 
Q 50.484375 35.9375 44.390625 34.1875 
z
M 19.671875 64.796875 
L 19.671875 38.921875 
L 32.078125 38.921875 
Q 39.203125 38.921875 42.84375 42.21875 
Q 46.484375 45.515625 46.484375 51.90625 
Q 46.484375 58.296875 42.84375 61.546875 
Q 39.203125 64.796875 32.078125 64.796875 
z
" id="DejaVuSans-82"/>
     <path d="M 34.1875 63.1875 
L 20.796875 26.90625 
L 47.609375 26.90625 
z
M 28.609375 72.90625 
L 39.796875 72.90625 
L 67.578125 0 
L 57.328125 0 
L 50.6875 18.703125 
L 17.828125 18.703125 
L 11.1875 0 
L 0.78125 0 
z
" id="DejaVuSans-65"/>
     <path d="M 9.8125 72.90625 
L 23.09375 72.90625 
L 55.421875 11.921875 
L 55.421875 72.90625 
L 64.984375 72.90625 
L 64.984375 0 
L 51.703125 0 
L 19.390625 60.984375 
L 19.390625 0 
L 9.8125 0 
z
" id="DejaVuSans-78"/>
     <path d="M 19.671875 64.796875 
L 19.671875 8.109375 
L 31.59375 8.109375 
Q 46.6875 8.109375 53.6875 14.9375 
Q 60.6875 21.78125 60.6875 36.53125 
Q 60.6875 51.171875 53.6875 57.984375 
Q 46.6875 64.796875 31.59375 64.796875 
z
M 9.8125 72.90625 
L 30.078125 72.90625 
Q 51.265625 72.90625 61.171875 64.09375 
Q 71.09375 55.28125 71.09375 36.53125 
Q 71.09375 17.671875 61.125 8.828125 
Q 51.171875 0 30.078125 0 
L 9.8125 0 
z
" id="DejaVuSans-68"/>
     <path d="M 39.40625 66.21875 
Q 28.65625 66.21875 22.328125 58.203125 
Q 16.015625 50.203125 16.015625 36.375 
Q 16.015625 22.609375 22.328125 14.59375 
Q 28.65625 6.59375 39.40625 6.59375 
Q 50.140625 6.59375 56.421875 14.59375 
Q 62.703125 22.609375 62.703125 36.375 
Q 62.703125 50.203125 56.421875 58.203125 
Q 50.140625 66.21875 39.40625 66.21875 
z
M 39.40625 74.21875 
Q 54.734375 74.21875 63.90625 63.9375 
Q 73.09375 53.65625 73.09375 36.375 
Q 73.09375 19.140625 63.90625 8.859375 
Q 54.734375 -1.421875 39.40625 -1.421875 
Q 24.03125 -1.421875 14.8125 8.828125 
Q 5.609375 19.09375 5.609375 36.375 
Q 5.609375 53.65625 14.8125 63.9375 
Q 24.03125 74.21875 39.40625 74.21875 
z
" id="DejaVuSans-79"/>
     <path d="M 9.8125 72.90625 
L 24.515625 72.90625 
L 43.109375 23.296875 
L 61.8125 72.90625 
L 76.515625 72.90625 
L 76.515625 0 
L 66.890625 0 
L 66.890625 64.015625 
L 48.09375 14.015625 
L 38.1875 14.015625 
L 19.390625 64.015625 
L 19.390625 0 
L 9.8125 0 
z
" id="DejaVuSans-77"/>
     <path d="M 53.515625 70.515625 
L 53.515625 60.890625 
Q 47.90625 63.578125 42.921875 64.890625 
Q 37.9375 66.21875 33.296875 66.21875 
Q 25.25 66.21875 20.875 63.09375 
Q 16.5 59.96875 16.5 54.203125 
Q 16.5 49.359375 19.40625 46.890625 
Q 22.3125 44.4375 30.421875 42.921875 
L 36.375 41.703125 
Q 47.40625 39.59375 52.65625 34.296875 
Q 57.90625 29 57.90625 20.125 
Q 57.90625 9.515625 50.796875 4.046875 
Q 43.703125 -1.421875 29.984375 -1.421875 
Q 24.8125 -1.421875 18.96875 -0.25 
Q 13.140625 0.921875 6.890625 3.21875 
L 6.890625 13.375 
Q 12.890625 10.015625 18.65625 8.296875 
Q 24.421875 6.59375 29.984375 6.59375 
Q 38.421875 6.59375 43.015625 9.90625 
Q 47.609375 13.234375 47.609375 19.390625 
Q 47.609375 24.75 44.3125 27.78125 
Q 41.015625 30.8125 33.5 32.328125 
L 27.484375 33.5 
Q 16.453125 35.6875 11.515625 40.375 
Q 6.59375 45.0625 6.59375 53.421875 
Q 6.59375 63.09375 13.40625 68.65625 
Q 20.21875 74.21875 32.171875 74.21875 
Q 37.3125 74.21875 42.625 73.28125 
Q 47.953125 72.359375 53.515625 70.515625 
z
" id="DejaVuSans-83"/>
     <path d="M 9.8125 72.90625 
L 55.90625 72.90625 
L 55.90625 64.59375 
L 19.671875 64.59375 
L 19.671875 43.015625 
L 54.390625 43.015625 
L 54.390625 34.71875 
L 19.671875 34.71875 
L 19.671875 8.296875 
L 56.78125 8.296875 
L 56.78125 0 
L 9.8125 0 
z
" id="DejaVuSans-69"/>
    </defs>
    <g transform="translate(375.22944 298.262739)scale(0.17 -0.17)">
     <use xlink:href="#DejaVuSans-82"/>
     <use x="69.419922" xlink:href="#DejaVuSans-65"/>
     <use x="137.828125" xlink:href="#DejaVuSans-78"/>
     <use x="212.632812" xlink:href="#DejaVuSans-68"/>
     <use x="289.634766" xlink:href="#DejaVuSans-79"/>
     <use x="368.345703" xlink:href="#DejaVuSans-77"/>
     <use x="454.625" xlink:href="#DejaVuSans-83"/>
     <use x="518.101562" xlink:href="#DejaVuSans-69"/>
     <use x="581.285156" xlink:href="#DejaVuSans-65"/>
    </g>
   </g>
   <g id="text_14">
    <!-- SLSQP-11  -->
    <defs>
     <path d="M 9.8125 72.90625 
L 19.671875 72.90625 
L 19.671875 8.296875 
L 55.171875 8.296875 
L 55.171875 0 
L 9.8125 0 
z
" id="DejaVuSans-76"/>
     <path d="M 39.40625 66.21875 
Q 28.65625 66.21875 22.328125 58.203125 
Q 16.015625 50.203125 16.015625 36.375 
Q 16.015625 22.609375 22.328125 14.59375 
Q 28.65625 6.59375 39.40625 6.59375 
Q 50.140625 6.59375 56.421875 14.59375 
Q 62.703125 22.609375 62.703125 36.375 
Q 62.703125 50.203125 56.421875 58.203125 
Q 50.140625 66.21875 39.40625 66.21875 
z
M 53.21875 1.3125 
L 66.21875 -12.890625 
L 54.296875 -12.890625 
L 43.5 -1.21875 
Q 41.890625 -1.3125 41.03125 -1.359375 
Q 40.1875 -1.421875 39.40625 -1.421875 
Q 24.03125 -1.421875 14.8125 8.859375 
Q 5.609375 19.140625 5.609375 36.375 
Q 5.609375 53.65625 14.8125 63.9375 
Q 24.03125 74.21875 39.40625 74.21875 
Q 54.734375 74.21875 63.90625 63.9375 
Q 73.09375 53.65625 73.09375 36.375 
Q 73.09375 23.6875 67.984375 14.640625 
Q 62.890625 5.609375 53.21875 1.3125 
z
" id="DejaVuSans-81"/>
     <path d="M 19.671875 64.796875 
L 19.671875 37.40625 
L 32.078125 37.40625 
Q 38.96875 37.40625 42.71875 40.96875 
Q 46.484375 44.53125 46.484375 51.125 
Q 46.484375 57.671875 42.71875 61.234375 
Q 38.96875 64.796875 32.078125 64.796875 
z
M 9.8125 72.90625 
L 32.078125 72.90625 
Q 44.34375 72.90625 50.609375 67.359375 
Q 56.890625 61.8125 56.890625 51.125 
Q 56.890625 40.328125 50.609375 34.8125 
Q 44.34375 29.296875 32.078125 29.296875 
L 19.671875 29.296875 
L 19.671875 0 
L 9.8125 0 
z
" id="DejaVuSans-80"/>
    </defs>
    <g transform="translate(375.22944 233.796363)scale(0.17 -0.17)">
     <use xlink:href="#DejaVuSans-83"/>
     <use x="63.476562" xlink:href="#DejaVuSans-76"/>
     <use x="119.189453" xlink:href="#DejaVuSans-83"/>
     <use x="182.666016" xlink:href="#DejaVuSans-81"/>
     <use x="261.376953" xlink:href="#DejaVuSans-80"/>
     <use x="321.648438" xlink:href="#DejaVuSans-45"/>
     <use x="357.732422" xlink:href="#DejaVuSans-49"/>
     <use x="421.355469" xlink:href="#DejaVuSans-49"/>
     <use x="484.978516" xlink:href="#DejaVuSans-32"/>
    </g>
   </g>
   <g id="text_15">
    <!-- CMA-ES  2 -->
    <defs>
     <path d="M 64.40625 67.28125 
L 64.40625 56.890625 
Q 59.421875 61.53125 53.78125 63.8125 
Q 48.140625 66.109375 41.796875 66.109375 
Q 29.296875 66.109375 22.65625 58.46875 
Q 16.015625 50.828125 16.015625 36.375 
Q 16.015625 21.96875 22.65625 14.328125 
Q 29.296875 6.6875 41.796875 6.6875 
Q 48.140625 6.6875 53.78125 8.984375 
Q 59.421875 11.28125 64.40625 15.921875 
L 64.40625 5.609375 
Q 59.234375 2.09375 53.4375 0.328125 
Q 47.65625 -1.421875 41.21875 -1.421875 
Q 24.65625 -1.421875 15.125 8.703125 
Q 5.609375 18.84375 5.609375 36.375 
Q 5.609375 53.953125 15.125 64.078125 
Q 24.65625 74.21875 41.21875 74.21875 
Q 47.75 74.21875 53.53125 72.484375 
Q 59.328125 70.75 64.40625 67.28125 
z
" id="DejaVuSans-67"/>
    </defs>
    <g transform="translate(375.22944 169.329987)scale(0.17 -0.17)">
     <use xlink:href="#DejaVuSans-67"/>
     <use x="69.824219" xlink:href="#DejaVuSans-77"/>
     <use x="156.103516" xlink:href="#DejaVuSans-65"/>
     <use x="224.480469" xlink:href="#DejaVuSans-45"/>
     <use x="260.564453" xlink:href="#DejaVuSans-69"/>
     <use x="323.748047" xlink:href="#DejaVuSans-83"/>
     <use x="387.224609" xlink:href="#DejaVuSans-32"/>
     <use x="419.011719" xlink:href="#DejaVuSans-32"/>
     <use x="450.798828" xlink:href="#DejaVuSans-50"/>
    </g>
   </g>
   <g id="text_16">
    <!-- lq-CMA-ES -->
    <defs>
     <path d="M 14.796875 27.296875 
Q 14.796875 17.390625 18.875 11.75 
Q 22.953125 6.109375 30.078125 6.109375 
Q 37.203125 6.109375 41.296875 11.75 
Q 45.40625 17.390625 45.40625 27.296875 
Q 45.40625 37.203125 41.296875 42.84375 
Q 37.203125 48.484375 30.078125 48.484375 
Q 22.953125 48.484375 18.875 42.84375 
Q 14.796875 37.203125 14.796875 27.296875 
z
M 45.40625 8.203125 
Q 42.578125 3.328125 38.25 0.953125 
Q 33.9375 -1.421875 27.875 -1.421875 
Q 17.96875 -1.421875 11.734375 6.484375 
Q 5.515625 14.40625 5.515625 27.296875 
Q 5.515625 40.1875 11.734375 48.09375 
Q 17.96875 56 27.875 56 
Q 33.9375 56 38.25 53.625 
Q 42.578125 51.265625 45.40625 46.390625 
L 45.40625 54.6875 
L 54.390625 54.6875 
L 54.390625 -20.796875 
L 45.40625 -20.796875 
z
" id="DejaVuSans-113"/>
    </defs>
    <g transform="translate(375.22944 104.863611)scale(0.17 -0.17)">
     <use xlink:href="#DejaVuSans-108"/>
     <use x="27.783203" xlink:href="#DejaVuSans-113"/>
     <use x="91.259766" xlink:href="#DejaVuSans-45"/>
     <use x="127.34375" xlink:href="#DejaVuSans-67"/>
     <use x="197.167969" xlink:href="#DejaVuSans-77"/>
     <use x="283.447266" xlink:href="#DejaVuSans-65"/>
     <use x="351.824219" xlink:href="#DejaVuSans-45"/>
     <use x="387.908203" xlink:href="#DejaVuSans-69"/>
     <use x="451.091797" xlink:href="#DejaVuSans-83"/>
    </g>
   </g>
   <g id="text_17">
    <!-- best 2009 -->
    <defs>
     <path d="M 48.6875 27.296875 
Q 48.6875 37.203125 44.609375 42.84375 
Q 40.53125 48.484375 33.40625 48.484375 
Q 26.265625 48.484375 22.1875 42.84375 
Q 18.109375 37.203125 18.109375 27.296875 
Q 18.109375 17.390625 22.1875 11.75 
Q 26.265625 6.109375 33.40625 6.109375 
Q 40.53125 6.109375 44.609375 11.75 
Q 48.6875 17.390625 48.6875 27.296875 
z
M 18.109375 46.390625 
Q 20.953125 51.265625 25.265625 53.625 
Q 29.59375 56 35.59375 56 
Q 45.5625 56 51.78125 48.09375 
Q 58.015625 40.1875 58.015625 27.296875 
Q 58.015625 14.40625 51.78125 6.484375 
Q 45.5625 -1.421875 35.59375 -1.421875 
Q 29.59375 -1.421875 25.265625 0.953125 
Q 20.953125 3.328125 18.109375 8.203125 
L 18.109375 0 
L 9.078125 0 
L 9.078125 75.984375 
L 18.109375 75.984375 
z
" id="DejaVuSans-98"/>
     <path d="M 10.984375 1.515625 
L 10.984375 10.5 
Q 14.703125 8.734375 18.5 7.8125 
Q 22.3125 6.890625 25.984375 6.890625 
Q 35.75 6.890625 40.890625 13.453125 
Q 46.046875 20.015625 46.78125 33.40625 
Q 43.953125 29.203125 39.59375 26.953125 
Q 35.25 24.703125 29.984375 24.703125 
Q 19.046875 24.703125 12.671875 31.3125 
Q 6.296875 37.9375 6.296875 49.421875 
Q 6.296875 60.640625 12.9375 67.421875 
Q 19.578125 74.21875 30.609375 74.21875 
Q 43.265625 74.21875 49.921875 64.515625 
Q 56.59375 54.828125 56.59375 36.375 
Q 56.59375 19.140625 48.40625 8.859375 
Q 40.234375 -1.421875 26.421875 -1.421875 
Q 22.703125 -1.421875 18.890625 -0.6875 
Q 15.09375 0.046875 10.984375 1.515625 
z
M 30.609375 32.421875 
Q 37.25 32.421875 41.125 36.953125 
Q 45.015625 41.5 45.015625 49.421875 
Q 45.015625 57.28125 41.125 61.84375 
Q 37.25 66.40625 30.609375 66.40625 
Q 23.96875 66.40625 20.09375 61.84375 
Q 16.21875 57.28125 16.21875 49.421875 
Q 16.21875 41.5 20.09375 36.953125 
Q 23.96875 32.421875 30.609375 32.421875 
z
" id="DejaVuSans-57"/>
    </defs>
    <g transform="translate(375.22944 40.397235)scale(0.17 -0.17)">
     <use xlink:href="#DejaVuSans-98"/>
     <use x="63.476562" xlink:href="#DejaVuSans-101"/>
     <use x="125" xlink:href="#DejaVuSans-115"/>
     <use x="177.099609" xlink:href="#DejaVuSans-116"/>
     <use x="216.308594" xlink:href="#DejaVuSans-32"/>
     <use x="248.095703" xlink:href="#DejaVuSans-50"/>
     <use x="311.71875" xlink:href="#DejaVuSans-48"/>
     <use x="375.341797" xlink:href="#DejaVuSans-48"/>
     <use x="438.964844" xlink:href="#DejaVuSans-57"/>
    </g>
   </g>
   <g id="text_18">
    <!-- bbob f23, 3-D -->
    <defs>
     <path d="M 40.578125 39.3125 
Q 47.65625 37.796875 51.625 33 
Q 55.609375 28.21875 55.609375 21.1875 
Q 55.609375 10.40625 48.1875 4.484375 
Q 40.765625 -1.421875 27.09375 -1.421875 
Q 22.515625 -1.421875 17.65625 -0.515625 
Q 12.796875 0.390625 7.625 2.203125 
L 7.625 11.71875 
Q 11.71875 9.328125 16.59375 8.109375 
Q 21.484375 6.890625 26.8125 6.890625 
Q 36.078125 6.890625 40.9375 10.546875 
Q 45.796875 14.203125 45.796875 21.1875 
Q 45.796875 27.640625 41.28125 31.265625 
Q 36.765625 34.90625 28.71875 34.90625 
L 20.21875 34.90625 
L 20.21875 43.015625 
L 29.109375 43.015625 
Q 36.375 43.015625 40.234375 45.921875 
Q 44.09375 48.828125 44.09375 54.296875 
Q 44.09375 59.90625 40.109375 62.90625 
Q 36.140625 65.921875 28.71875 65.921875 
Q 24.65625 65.921875 20.015625 65.03125 
Q 15.375 64.15625 9.8125 62.3125 
L 9.8125 71.09375 
Q 15.4375 72.65625 20.34375 73.4375 
Q 25.25 74.21875 29.59375 74.21875 
Q 40.828125 74.21875 47.359375 69.109375 
Q 53.90625 64.015625 53.90625 55.328125 
Q 53.90625 49.265625 50.4375 45.09375 
Q 46.96875 40.921875 40.578125 39.3125 
z
" id="DejaVuSans-51"/>
    </defs>
    <g transform="translate(60.41088 38.111366)scale(0.102 -0.102)">
     <use xlink:href="#DejaVuSans-98"/>
     <use x="63.476562" xlink:href="#DejaVuSans-98"/>
     <use x="126.953125" xlink:href="#DejaVuSans-111"/>
     <use x="188.134766" xlink:href="#DejaVuSans-98"/>
     <use x="251.611328" xlink:href="#DejaVuSans-32"/>
     <use x="283.398438" xlink:href="#DejaVuSans-102"/>
     <use x="318.603516" xlink:href="#DejaVuSans-50"/>
     <use x="382.226562" xlink:href="#DejaVuSans-51"/>
     <use x="445.849609" xlink:href="#DejaVuSans-44"/>
     <use x="477.636719" xlink:href="#DejaVuSans-32"/>
     <use x="509.423828" xlink:href="#DejaVuSans-51"/>
     <use x="573.046875" xlink:href="#DejaVuSans-45"/>
     <use x="609.130859" xlink:href="#DejaVuSans-68"/>
    </g>
    <!-- 51 targets: 100..1e-08 -->
    <defs>
     <path d="M 10.796875 72.90625 
L 49.515625 72.90625 
L 49.515625 64.59375 
L 19.828125 64.59375 
L 19.828125 46.734375 
Q 21.96875 47.46875 24.109375 47.828125 
Q 26.265625 48.1875 28.421875 48.1875 
Q 40.625 48.1875 47.75 41.5 
Q 54.890625 34.8125 54.890625 23.390625 
Q 54.890625 11.625 47.5625 5.09375 
Q 40.234375 -1.421875 26.90625 -1.421875 
Q 22.3125 -1.421875 17.546875 -0.640625 
Q 12.796875 0.140625 7.71875 1.703125 
L 7.71875 11.625 
Q 12.109375 9.234375 16.796875 8.0625 
Q 21.484375 6.890625 26.703125 6.890625 
Q 35.15625 6.890625 40.078125 11.328125 
Q 45.015625 15.765625 45.015625 23.390625 
Q 45.015625 31 40.078125 35.4375 
Q 35.15625 39.890625 26.703125 39.890625 
Q 22.75 39.890625 18.8125 39.015625 
Q 14.890625 38.140625 10.796875 36.28125 
z
" id="DejaVuSans-53"/>
     <path d="M 11.71875 12.40625 
L 22.015625 12.40625 
L 22.015625 0 
L 11.71875 0 
z
M 11.71875 51.703125 
L 22.015625 51.703125 
L 22.015625 39.3125 
L 11.71875 39.3125 
z
" id="DejaVuSans-58"/>
    </defs>
    <g transform="translate(60.41088 49.533135)scale(0.102 -0.102)">
     <use xlink:href="#DejaVuSans-53"/>
     <use x="63.623047" xlink:href="#DejaVuSans-49"/>
     <use x="127.246094" xlink:href="#DejaVuSans-32"/>
     <use x="159.033203" xlink:href="#DejaVuSans-116"/>
     <use x="198.242188" xlink:href="#DejaVuSans-97"/>
     <use x="259.521484" xlink:href="#DejaVuSans-114"/>
     <use x="300.619141" xlink:href="#DejaVuSans-103"/>
     <use x="364.095703" xlink:href="#DejaVuSans-101"/>
     <use x="425.619141" xlink:href="#DejaVuSans-116"/>
     <use x="464.828125" xlink:href="#DejaVuSans-115"/>
     <use x="516.927734" xlink:href="#DejaVuSans-58"/>
     <use x="550.619141" xlink:href="#DejaVuSans-32"/>
     <use x="582.40625" xlink:href="#DejaVuSans-49"/>
     <use x="646.029297" xlink:href="#DejaVuSans-48"/>
     <use x="709.652344" xlink:href="#DejaVuSans-48"/>
     <use x="773.275391" xlink:href="#DejaVuSans-46"/>
     <use x="805.0625" xlink:href="#DejaVuSans-46"/>
     <use x="836.849609" xlink:href="#DejaVuSans-49"/>
     <use x="900.472656" xlink:href="#DejaVuSans-101"/>
     <use x="961.996094" xlink:href="#DejaVuSans-45"/>
     <use x="998.080078" xlink:href="#DejaVuSans-48"/>
     <use x="1061.703125" xlink:href="#DejaVuSans-56"/>
    </g>
    <!-- 15 instances -->
    <g transform="translate(60.41088 60.954904)scale(0.102 -0.102)">
     <use xlink:href="#DejaVuSans-49"/>
     <use x="63.623047" xlink:href="#DejaVuSans-53"/>
     <use x="127.246094" xlink:href="#DejaVuSans-32"/>
     <use x="159.033203" xlink:href="#DejaVuSans-105"/>
     <use x="186.816406" xlink:href="#DejaVuSans-110"/>
     <use x="250.195312" xlink:href="#DejaVuSans-115"/>
     <use x="302.294922" xlink:href="#DejaVuSans-116"/>
     <use x="341.503906" xlink:href="#DejaVuSans-97"/>
     <use x="402.783203" xlink:href="#DejaVuSans-110"/>
     <use x="466.162109" xlink:href="#DejaVuSans-99"/>
     <use x="521.142578" xlink:href="#DejaVuSans-101"/>
     <use x="582.666016" xlink:href="#DejaVuSans-115"/>
    </g>
   </g>
   <g id="text_19">
    <!-- v2.3.2 -->
    <g style="fill:#808080;" transform="translate(182.46275 294.151352)scale(0.1 -0.1)">
     <use xlink:href="#DejaVuSans-118"/>
     <use x="59.179688" xlink:href="#DejaVuSans-50"/>
     <use x="122.802734" xlink:href="#DejaVuSans-46"/>
     <use x="154.589844" xlink:href="#DejaVuSans-51"/>
     <use x="218.212891" xlink:href="#DejaVuSans-46"/>
     <use x="250" xlink:href="#DejaVuSans-50"/>
    </g>
   </g>
   <g id="text_20">
    <!-- 23 Katsuuras -->
    <defs>
     <path d="M 9.8125 72.90625 
L 19.671875 72.90625 
L 19.671875 42.09375 
L 52.390625 72.90625 
L 65.09375 72.90625 
L 28.90625 38.921875 
L 67.671875 0 
L 54.6875 0 
L 19.671875 35.109375 
L 19.671875 0 
L 9.8125 0 
z
" id="DejaVuSans-75"/>
    </defs>
    <g transform="translate(132.303375 21.648)scale(0.2 -0.2)">
     <use xlink:href="#DejaVuSans-50"/>
     <use x="63.623047" xlink:href="#DejaVuSans-51"/>
     <use x="127.246094" xlink:href="#DejaVuSans-32"/>
     <use x="159.033203" xlink:href="#DejaVuSans-75"/>
     <use x="224.59375" xlink:href="#DejaVuSans-97"/>
     <use x="285.873047" xlink:href="#DejaVuSans-116"/>
     <use x="325.082031" xlink:href="#DejaVuSans-115"/>
     <use x="377.181641" xlink:href="#DejaVuSans-117"/>
     <use x="440.560547" xlink:href="#DejaVuSans-117"/>
     <use x="503.939453" xlink:href="#DejaVuSans-114"/>
     <use x="545.052734" xlink:href="#DejaVuSans-97"/>
     <use x="606.332031" xlink:href="#DejaVuSans-115"/>
    </g>
   </g>
  </g>
 </g>
 <defs>
  <clipPath id="pbc15be79c9">
   <rect height="271.296" width="281.088" x="57.6" y="27.648"/>
  </clipPath>
 </defs>
</svg>
