<?xml version="1.0" encoding="utf-8" standalone="no"?>
<!DOCTYPE svg PUBLIC "-//W3C//DTD SVG 1.1//EN"
  "http://www.w3.org/Graphics/SVG/1.1/DTD/svg11.dtd">
<!-- Created with matplotlib (https://matplotlib.org/) -->
<svg height="345.6pt" version="1.1" viewBox="0 0 460.8 345.6" width="460.8pt" xmlns="http://www.w3.org/2000/svg" xmlns:xlink="http://www.w3.org/1999/xlink">
 <defs>
  <style type="text/css">
*{stroke-linecap:butt;stroke-linejoin:round;}
  </style>
 </defs>
 <g id="figure_1">
  <g id="patch_1">
   <path d="M 0 345.6 
L 460.8 345.6 
L 460.8 0 
L 0 0 
z
" style="fill:#ffffff;"/>
  </g>
  <g id="axes_1">
   <g id="patch_2">
    <path d="M 57.6 298.944 
L 338.688 298.944 
L 338.688 27.648 
L 57.6 27.648 
z
" style="fill:#ffffff;"/>
   </g>
   <g id="line2d_1">
    <path d="M 102.597126 298.944 
L 102.597126 293.677139 
L 110.103064 293.677139 
L 110.103064 288.410278 
L 112.128456 288.410278 
L 112.128456 283.143418 
L 113.664983 283.143418 
L 113.664983 277.876557 
L 115.269727 277.876557 
L 115.269727 272.609696 
L 118.363901 272.609696 
L 118.363901 267.342835 
L 122.906394 267.342835 
L 122.906394 262.075974 
L 132.350712 262.075974 
L 132.350712 256.809114 
L 134.300504 256.809114 
L 134.300504 251.542253 
L 135.522271 251.542253 
L 135.522271 246.275392 
L 136.475687 246.275392 
L 136.475687 241.008531 
L 137.289545 241.008531 
L 137.289545 235.74167 
L 138.049816 235.74167 
L 138.049816 230.47481 
L 138.745106 230.47481 
L 138.745106 225.207949 
L 139.333553 225.207949 
L 139.333553 219.941088 
L 139.793552 219.941088 
L 139.793552 214.674227 
L 140.195896 214.674227 
L 140.195896 209.407366 
L 140.619053 209.407366 
L 140.619053 204.140506 
L 140.900458 204.140506 
L 140.900458 198.873645 
L 141.090414 198.873645 
L 141.090414 193.606784 
L 141.335737 193.606784 
L 141.335737 188.339923 
L 141.549369 188.339923 
L 141.549369 183.073062 
L 141.704386 183.073062 
L 141.704386 177.806202 
L 141.830201 177.806202 
L 141.830201 172.539341 
L 141.913576 172.539341 
L 141.913576 167.27248 
L 142.037896 167.27248 
L 142.037896 162.005619 
L 142.120287 162.005619 
L 142.120287 156.738758 
L 142.243147 156.738758 
L 142.243147 151.471897 
L 142.297475 151.471897 
L 142.297475 146.205037 
L 142.365148 146.205037 
L 142.365148 140.938176 
L 142.419098 140.938176 
L 142.419098 135.671315 
L 142.499711 135.671315 
L 142.499711 130.404454 
L 142.606619 130.404454 
L 142.606619 125.137593 
L 142.646541 125.137593 
L 142.646541 119.870733 
L 142.673105 119.870733 
L 142.673105 114.603872 
L 142.686372 114.603872 
L 142.686372 109.337011 
L 142.739338 109.337011 
L 142.739338 104.07015 
L 142.765762 104.07015 
L 142.765762 98.803289 
L 142.805321 98.803289 
L 142.805321 93.536429 
L 142.871056 93.536429 
L 142.871056 88.269568 
L 142.923465 88.269568 
L 142.923465 83.002707 
L 142.949611 83.002707 
L 142.949611 77.735846 
L 142.975718 77.735846 
L 142.975718 72.468985 
L 143.027814 72.468985 
L 143.027814 67.202125 
L 143.040814 67.202125 
L 143.040814 61.935264 
L 143.053804 61.935264 
L 143.053804 56.668403 
L 143.079756 56.668403 
L 143.079756 51.401542 
L 143.11861 51.401542 
L 143.11861 46.134681 
L 143.131543 46.134681 
L 143.131543 40.867821 
L 143.144465 40.867821 
L 143.144465 35.60096 
L 143.157379 35.60096 
L 143.157379 30.334099 
L 338.688 30.334099 
" style="fill:none;stroke:#f5deb3;stroke-linecap:square;stroke-width:4;"/>
   </g>
   <g id="line2d_2">
    <defs>
     <path d="M -0 7.778175 
L 7.778175 0 
L 0 -7.778175 
L -7.778175 -0 
z
" id="m17ebc57181" style="stroke:#f5deb3;stroke-linejoin:miter;stroke-width:1.5;"/>
    </defs>
    <g>
     <use style="fill:#f5deb3;stroke:#f5deb3;stroke-linejoin:miter;stroke-width:1.5;" x="137.289545" xlink:href="#m17ebc57181" y="241.008531"/>
     <use style="fill:#f5deb3;stroke:#f5deb3;stroke-linejoin:miter;stroke-width:1.5;" x="142.499711" xlink:href="#m17ebc57181" y="135.671315"/>
     <use style="fill:#f5deb3;stroke:#f5deb3;stroke-linejoin:miter;stroke-width:1.5;" x="143.157379" xlink:href="#m17ebc57181" y="35.60096"/>
     <use style="fill:#f5deb3;stroke:#f5deb3;stroke-linejoin:miter;stroke-width:1.5;" x="143.157379" xlink:href="#m17ebc57181" y="30.334099"/>
     <use style="fill:#f5deb3;stroke:#f5deb3;stroke-linejoin:miter;stroke-width:1.5;" x="338.688" xlink:href="#m17ebc57181" y="30.334099"/>
    </g>
   </g>
   <g id="line2d_3">
    <path style="fill:none;stroke:#f5deb3;stroke-linecap:square;stroke-width:4;"/>
    <g/>
   </g>
   <g id="line2d_4">
    <path d="M 338.688 30.334099 
L 369.60768 35.706297 
" style="fill:none;stroke:#f5deb3;stroke-linecap:square;stroke-width:4;"/>
    <g>
     <use style="fill:#f5deb3;stroke:#f5deb3;stroke-linejoin:miter;stroke-width:1.5;" x="338.688" xlink:href="#m17ebc57181" y="30.334099"/>
     <use style="fill:#f5deb3;stroke:#f5deb3;stroke-linejoin:miter;stroke-width:1.5;" x="369.60768" xlink:href="#m17ebc57181" y="35.706297"/>
    </g>
   </g>
   <g id="matplotlib.axis_1">
    <g id="xtick_1">
     <g id="line2d_5">
      <path clip-path="url(#p29bb14fd44)" d="M 57.6 298.944 
L 57.6 27.648 
" style="fill:none;stroke:#b0b0b0;stroke-linecap:square;stroke-width:0.8;"/>
     </g>
     <g id="line2d_6">
      <defs>
       <path d="M 0 0 
L 0 3.5 
" id="m0600082368" style="stroke:#000000;stroke-width:0.8;"/>
      </defs>
      <g>
       <use style="stroke:#000000;stroke-width:0.8;" x="57.6" xlink:href="#m0600082368" y="298.944"/>
      </g>
     </g>
     <g id="text_1">
      <!-- 0 -->
      <defs>
       <path d="M 31.78125 66.40625 
Q 24.171875 66.40625 20.328125 58.90625 
Q 16.5 51.421875 16.5 36.375 
Q 16.5 21.390625 20.328125 13.890625 
Q 24.171875 6.390625 31.78125 6.390625 
Q 39.453125 6.390625 43.28125 13.890625 
Q 47.125 21.390625 47.125 36.375 
Q 47.125 51.421875 43.28125 58.90625 
Q 39.453125 66.40625 31.78125 66.40625 
z
M 31.78125 74.21875 
Q 44.046875 74.21875 50.515625 64.515625 
Q 56.984375 54.828125 56.984375 36.375 
Q 56.984375 17.96875 50.515625 8.265625 
Q 44.046875 -1.421875 31.78125 -1.421875 
Q 19.53125 -1.421875 13.0625 8.265625 
Q 6.59375 17.96875 6.59375 36.375 
Q 6.59375 54.828125 13.0625 64.515625 
Q 19.53125 74.21875 31.78125 74.21875 
z
" id="DejaVuSans-48"/>
      </defs>
      <g transform="translate(51.2375 321.140875)scale(0.2 -0.2)">
       <use xlink:href="#DejaVuSans-48"/>
      </g>
     </g>
    </g>
    <g id="xtick_2">
     <g id="line2d_7">
      <path clip-path="url(#p29bb14fd44)" d="M 137.910857 298.944 
L 137.910857 27.648 
" style="fill:none;stroke:#b0b0b0;stroke-linecap:square;stroke-width:0.8;"/>
     </g>
     <g id="line2d_8">
      <g>
       <use style="stroke:#000000;stroke-width:0.8;" x="137.910857" xlink:href="#m0600082368" y="298.944"/>
      </g>
     </g>
     <g id="text_2">
      <!-- 2 -->
      <defs>
       <path d="M 19.1875 8.296875 
L 53.609375 8.296875 
L 53.609375 0 
L 7.328125 0 
L 7.328125 8.296875 
Q 12.9375 14.109375 22.625 23.890625 
Q 32.328125 33.6875 34.8125 36.53125 
Q 39.546875 41.84375 41.421875 45.53125 
Q 43.3125 49.21875 43.3125 52.78125 
Q 43.3125 58.59375 39.234375 62.25 
Q 35.15625 65.921875 28.609375 65.921875 
Q 23.96875 65.921875 18.8125 64.3125 
Q 13.671875 62.703125 7.8125 59.421875 
L 7.8125 69.390625 
Q 13.765625 71.78125 18.9375 73 
Q 24.125 74.21875 28.421875 74.21875 
Q 39.75 74.21875 46.484375 68.546875 
Q 53.21875 62.890625 53.21875 53.421875 
Q 53.21875 48.921875 51.53125 44.890625 
Q 49.859375 40.875 45.40625 35.40625 
Q 44.1875 33.984375 37.640625 27.21875 
Q 31.109375 20.453125 19.1875 8.296875 
z
" id="DejaVuSans-50"/>
      </defs>
      <g transform="translate(131.548357 321.140875)scale(0.2 -0.2)">
       <use xlink:href="#DejaVuSans-50"/>
      </g>
     </g>
    </g>
    <g id="xtick_3">
     <g id="line2d_9">
      <path clip-path="url(#p29bb14fd44)" d="M 218.221714 298.944 
L 218.221714 27.648 
" style="fill:none;stroke:#b0b0b0;stroke-linecap:square;stroke-width:0.8;"/>
     </g>
     <g id="line2d_10">
      <g>
       <use style="stroke:#000000;stroke-width:0.8;" x="218.221714" xlink:href="#m0600082368" y="298.944"/>
      </g>
     </g>
     <g id="text_3">
      <!-- 4 -->
      <defs>
       <path d="M 37.796875 64.3125 
L 12.890625 25.390625 
L 37.796875 25.390625 
z
M 35.203125 72.90625 
L 47.609375 72.90625 
L 47.609375 25.390625 
L 58.015625 25.390625 
L 58.015625 17.1875 
L 47.609375 17.1875 
L 47.609375 0 
L 37.796875 0 
L 37.796875 17.1875 
L 4.890625 17.1875 
L 4.890625 26.703125 
z
" id="DejaVuSans-52"/>
      </defs>
      <g transform="translate(211.859214 321.140875)scale(0.2 -0.2)">
       <use xlink:href="#DejaVuSans-52"/>
      </g>
     </g>
    </g>
    <g id="xtick_4">
     <g id="line2d_11">
      <path clip-path="url(#p29bb14fd44)" d="M 298.532571 298.944 
L 298.532571 27.648 
" style="fill:none;stroke:#b0b0b0;stroke-linecap:square;stroke-width:0.8;"/>
     </g>
     <g id="line2d_12">
      <g>
       <use style="stroke:#000000;stroke-width:0.8;" x="298.532571" xlink:href="#m0600082368" y="298.944"/>
      </g>
     </g>
     <g id="text_4">
      <!-- 6 -->
      <defs>
       <path d="M 33.015625 40.375 
Q 26.375 40.375 22.484375 35.828125 
Q 18.609375 31.296875 18.609375 23.390625 
Q 18.609375 15.53125 22.484375 10.953125 
Q 26.375 6.390625 33.015625 6.390625 
Q 39.65625 6.390625 43.53125 10.953125 
Q 47.40625 15.53125 47.40625 23.390625 
Q 47.40625 31.296875 43.53125 35.828125 
Q 39.65625 40.375 33.015625 40.375 
z
M 52.59375 71.296875 
L 52.59375 62.3125 
Q 48.875 64.0625 45.09375 64.984375 
Q 41.3125 65.921875 37.59375 65.921875 
Q 27.828125 65.921875 22.671875 59.328125 
Q 17.53125 52.734375 16.796875 39.40625 
Q 19.671875 43.65625 24.015625 45.921875 
Q 28.375 48.1875 33.59375 48.1875 
Q 44.578125 48.1875 50.953125 41.515625 
Q 57.328125 34.859375 57.328125 23.390625 
Q 57.328125 12.15625 50.6875 5.359375 
Q 44.046875 -1.421875 33.015625 -1.421875 
Q 20.359375 -1.421875 13.671875 8.265625 
Q 6.984375 17.96875 6.984375 36.375 
Q 6.984375 53.65625 15.1875 63.9375 
Q 23.390625 74.21875 37.203125 74.21875 
Q 40.921875 74.21875 44.703125 73.484375 
Q 48.484375 72.75 52.59375 71.296875 
z
" id="DejaVuSans-54"/>
      </defs>
      <g transform="translate(292.170071 321.140875)scale(0.2 -0.2)">
       <use xlink:href="#DejaVuSans-54"/>
      </g>
     </g>
    </g>
    <g id="xtick_5">
     <g id="line2d_13">
      <path clip-path="url(#p29bb14fd44)" d="M 57.6 298.944 
L 57.6 27.648 
" style="fill:none;stroke:#b0b0b0;stroke-linecap:square;stroke-width:0.8;"/>
     </g>
     <g id="line2d_14">
      <defs>
       <path d="M 0 0 
L 0 2 
" id="md639219512" style="stroke:#000000;stroke-width:0.6;"/>
      </defs>
      <g>
       <use style="stroke:#000000;stroke-width:0.6;" x="57.6" xlink:href="#md639219512" y="298.944"/>
      </g>
     </g>
    </g>
    <g id="xtick_6">
     <g id="line2d_15">
      <path clip-path="url(#p29bb14fd44)" d="M 97.755429 298.944 
L 97.755429 27.648 
" style="fill:none;stroke:#b0b0b0;stroke-linecap:square;stroke-width:0.8;"/>
     </g>
     <g id="line2d_16">
      <g>
       <use style="stroke:#000000;stroke-width:0.6;" x="97.755429" xlink:href="#md639219512" y="298.944"/>
      </g>
     </g>
    </g>
    <g id="xtick_7">
     <g id="line2d_17">
      <path clip-path="url(#p29bb14fd44)" d="M 137.910857 298.944 
L 137.910857 27.648 
" style="fill:none;stroke:#b0b0b0;stroke-linecap:square;stroke-width:0.8;"/>
     </g>
     <g id="line2d_18">
      <g>
       <use style="stroke:#000000;stroke-width:0.6;" x="137.910857" xlink:href="#md639219512" y="298.944"/>
      </g>
     </g>
    </g>
    <g id="xtick_8">
     <g id="line2d_19">
      <path clip-path="url(#p29bb14fd44)" d="M 178.066286 298.944 
L 178.066286 27.648 
" style="fill:none;stroke:#b0b0b0;stroke-linecap:square;stroke-width:0.8;"/>
     </g>
     <g id="line2d_20">
      <g>
       <use style="stroke:#000000;stroke-width:0.6;" x="178.066286" xlink:href="#md639219512" y="298.944"/>
      </g>
     </g>
    </g>
    <g id="xtick_9">
     <g id="line2d_21">
      <path clip-path="url(#p29bb14fd44)" d="M 218.221714 298.944 
L 218.221714 27.648 
" style="fill:none;stroke:#b0b0b0;stroke-linecap:square;stroke-width:0.8;"/>
     </g>
     <g id="line2d_22">
      <g>
       <use style="stroke:#000000;stroke-width:0.6;" x="218.221714" xlink:href="#md639219512" y="298.944"/>
      </g>
     </g>
    </g>
    <g id="xtick_10">
     <g id="line2d_23">
      <path clip-path="url(#p29bb14fd44)" d="M 258.377143 298.944 
L 258.377143 27.648 
" style="fill:none;stroke:#b0b0b0;stroke-linecap:square;stroke-width:0.8;"/>
     </g>
     <g id="line2d_24">
      <g>
       <use style="stroke:#000000;stroke-width:0.6;" x="258.377143" xlink:href="#md639219512" y="298.944"/>
      </g>
     </g>
    </g>
    <g id="xtick_11">
     <g id="line2d_25">
      <path clip-path="url(#p29bb14fd44)" d="M 298.532571 298.944 
L 298.532571 27.648 
" style="fill:none;stroke:#b0b0b0;stroke-linecap:square;stroke-width:0.8;"/>
     </g>
     <g id="line2d_26">
      <g>
       <use style="stroke:#000000;stroke-width:0.6;" x="298.532571" xlink:href="#md639219512" y="298.944"/>
      </g>
     </g>
    </g>
    <g id="xtick_12">
     <g id="line2d_27">
      <path clip-path="url(#p29bb14fd44)" d="M 338.688 298.944 
L 338.688 27.648 
" style="fill:none;stroke:#b0b0b0;stroke-linecap:square;stroke-width:0.8;"/>
     </g>
     <g id="line2d_28">
      <g>
       <use style="stroke:#000000;stroke-width:0.6;" x="338.688" xlink:href="#md639219512" y="298.944"/>
      </g>
     </g>
    </g>
    <g id="text_5">
     <!-- log10(# f-evals / dimension) -->
     <defs>
      <path d="M 9.421875 75.984375 
L 18.40625 75.984375 
L 18.40625 0 
L 9.421875 0 
z
" id="DejaVuSans-108"/>
      <path d="M 30.609375 48.390625 
Q 23.390625 48.390625 19.1875 42.75 
Q 14.984375 37.109375 14.984375 27.296875 
Q 14.984375 17.484375 19.15625 11.84375 
Q 23.34375 6.203125 30.609375 6.203125 
Q 37.796875 6.203125 41.984375 11.859375 
Q 46.1875 17.53125 46.1875 27.296875 
Q 46.1875 37.015625 41.984375 42.703125 
Q 37.796875 48.390625 30.609375 48.390625 
z
M 30.609375 56 
Q 42.328125 56 49.015625 48.375 
Q 55.71875 40.765625 55.71875 27.296875 
Q 55.71875 13.875 49.015625 6.21875 
Q 42.328125 -1.421875 30.609375 -1.421875 
Q 18.84375 -1.421875 12.171875 6.21875 
Q 5.515625 13.875 5.515625 27.296875 
Q 5.515625 40.765625 12.171875 48.375 
Q 18.84375 56 30.609375 56 
z
" id="DejaVuSans-111"/>
      <path d="M 45.40625 27.984375 
Q 45.40625 37.75 41.375 43.109375 
Q 37.359375 48.484375 30.078125 48.484375 
Q 22.859375 48.484375 18.828125 43.109375 
Q 14.796875 37.75 14.796875 27.984375 
Q 14.796875 18.265625 18.828125 12.890625 
Q 22.859375 7.515625 30.078125 7.515625 
Q 37.359375 7.515625 41.375 12.890625 
Q 45.40625 18.265625 45.40625 27.984375 
z
M 54.390625 6.78125 
Q 54.390625 -7.171875 48.1875 -13.984375 
Q 42 -20.796875 29.203125 -20.796875 
Q 24.46875 -20.796875 20.265625 -20.09375 
Q 16.0625 -19.390625 12.109375 -17.921875 
L 12.109375 -9.1875 
Q 16.0625 -11.328125 19.921875 -12.34375 
Q 23.78125 -13.375 27.78125 -13.375 
Q 36.625 -13.375 41.015625 -8.765625 
Q 45.40625 -4.15625 45.40625 5.171875 
L 45.40625 9.625 
Q 42.625 4.78125 38.28125 2.390625 
Q 33.9375 0 27.875 0 
Q 17.828125 0 11.671875 7.65625 
Q 5.515625 15.328125 5.515625 27.984375 
Q 5.515625 40.671875 11.671875 48.328125 
Q 17.828125 56 27.875 56 
Q 33.9375 56 38.28125 53.609375 
Q 42.625 51.21875 45.40625 46.390625 
L 45.40625 54.6875 
L 54.390625 54.6875 
z
" id="DejaVuSans-103"/>
      <path d="M 12.40625 8.296875 
L 28.515625 8.296875 
L 28.515625 63.921875 
L 10.984375 60.40625 
L 10.984375 69.390625 
L 28.421875 72.90625 
L 38.28125 72.90625 
L 38.28125 8.296875 
L 54.390625 8.296875 
L 54.390625 0 
L 12.40625 0 
z
" id="DejaVuSans-49"/>
      <path d="M 31 75.875 
Q 24.46875 64.65625 21.28125 53.65625 
Q 18.109375 42.671875 18.109375 31.390625 
Q 18.109375 20.125 21.3125 9.0625 
Q 24.515625 -2 31 -13.1875 
L 23.1875 -13.1875 
Q 15.875 -1.703125 12.234375 9.375 
Q 8.59375 20.453125 8.59375 31.390625 
Q 8.59375 42.28125 12.203125 53.3125 
Q 15.828125 64.359375 23.1875 75.875 
z
" id="DejaVuSans-40"/>
      <path d="M 51.125 44 
L 36.921875 44 
L 32.8125 27.6875 
L 47.125 27.6875 
z
M 43.796875 71.78125 
L 38.71875 51.515625 
L 52.984375 51.515625 
L 58.109375 71.78125 
L 65.921875 71.78125 
L 60.890625 51.515625 
L 76.125 51.515625 
L 76.125 44 
L 58.984375 44 
L 54.984375 27.6875 
L 70.515625 27.6875 
L 70.515625 20.21875 
L 53.078125 20.21875 
L 48 0 
L 40.1875 0 
L 45.21875 20.21875 
L 30.90625 20.21875 
L 25.875 0 
L 18.015625 0 
L 23.09375 20.21875 
L 7.71875 20.21875 
L 7.71875 27.6875 
L 24.90625 27.6875 
L 29 44 
L 13.28125 44 
L 13.28125 51.515625 
L 30.90625 51.515625 
L 35.890625 71.78125 
z
" id="DejaVuSans-35"/>
      <path id="DejaVuSans-32"/>
      <path d="M 37.109375 75.984375 
L 37.109375 68.5 
L 28.515625 68.5 
Q 23.6875 68.5 21.796875 66.546875 
Q 19.921875 64.59375 19.921875 59.515625 
L 19.921875 54.6875 
L 34.71875 54.6875 
L 34.71875 47.703125 
L 19.921875 47.703125 
L 19.921875 0 
L 10.890625 0 
L 10.890625 47.703125 
L 2.296875 47.703125 
L 2.296875 54.6875 
L 10.890625 54.6875 
L 10.890625 58.5 
Q 10.890625 67.625 15.140625 71.796875 
Q 19.390625 75.984375 28.609375 75.984375 
z
" id="DejaVuSans-102"/>
      <path d="M 4.890625 31.390625 
L 31.203125 31.390625 
L 31.203125 23.390625 
L 4.890625 23.390625 
z
" id="DejaVuSans-45"/>
      <path d="M 56.203125 29.59375 
L 56.203125 25.203125 
L 14.890625 25.203125 
Q 15.484375 15.921875 20.484375 11.0625 
Q 25.484375 6.203125 34.421875 6.203125 
Q 39.59375 6.203125 44.453125 7.46875 
Q 49.3125 8.734375 54.109375 11.28125 
L 54.109375 2.78125 
Q 49.265625 0.734375 44.1875 -0.34375 
Q 39.109375 -1.421875 33.890625 -1.421875 
Q 20.796875 -1.421875 13.15625 6.1875 
Q 5.515625 13.8125 5.515625 26.8125 
Q 5.515625 40.234375 12.765625 48.109375 
Q 20.015625 56 32.328125 56 
Q 43.359375 56 49.78125 48.890625 
Q 56.203125 41.796875 56.203125 29.59375 
z
M 47.21875 32.234375 
Q 47.125 39.59375 43.09375 43.984375 
Q 39.0625 48.390625 32.421875 48.390625 
Q 24.90625 48.390625 20.390625 44.140625 
Q 15.875 39.890625 15.1875 32.171875 
z
" id="DejaVuSans-101"/>
      <path d="M 2.984375 54.6875 
L 12.5 54.6875 
L 29.59375 8.796875 
L 46.6875 54.6875 
L 56.203125 54.6875 
L 35.6875 0 
L 23.484375 0 
z
" id="DejaVuSans-118"/>
      <path d="M 34.28125 27.484375 
Q 23.390625 27.484375 19.1875 25 
Q 14.984375 22.515625 14.984375 16.5 
Q 14.984375 11.71875 18.140625 8.90625 
Q 21.296875 6.109375 26.703125 6.109375 
Q 34.1875 6.109375 38.703125 11.40625 
Q 43.21875 16.703125 43.21875 25.484375 
L 43.21875 27.484375 
z
M 52.203125 31.203125 
L 52.203125 0 
L 43.21875 0 
L 43.21875 8.296875 
Q 40.140625 3.328125 35.546875 0.953125 
Q 30.953125 -1.421875 24.3125 -1.421875 
Q 15.921875 -1.421875 10.953125 3.296875 
Q 6 8.015625 6 15.921875 
Q 6 25.140625 12.171875 29.828125 
Q 18.359375 34.515625 30.609375 34.515625 
L 43.21875 34.515625 
L 43.21875 35.40625 
Q 43.21875 41.609375 39.140625 45 
Q 35.0625 48.390625 27.6875 48.390625 
Q 23 48.390625 18.546875 47.265625 
Q 14.109375 46.140625 10.015625 43.890625 
L 10.015625 52.203125 
Q 14.9375 54.109375 19.578125 55.046875 
Q 24.21875 56 28.609375 56 
Q 40.484375 56 46.34375 49.84375 
Q 52.203125 43.703125 52.203125 31.203125 
z
" id="DejaVuSans-97"/>
      <path d="M 44.28125 53.078125 
L 44.28125 44.578125 
Q 40.484375 46.53125 36.375 47.5 
Q 32.28125 48.484375 27.875 48.484375 
Q 21.1875 48.484375 17.84375 46.4375 
Q 14.5 44.390625 14.5 40.28125 
Q 14.5 37.15625 16.890625 35.375 
Q 19.28125 33.59375 26.515625 31.984375 
L 29.59375 31.296875 
Q 39.15625 29.25 43.1875 25.515625 
Q 47.21875 21.78125 47.21875 15.09375 
Q 47.21875 7.46875 41.1875 3.015625 
Q 35.15625 -1.421875 24.609375 -1.421875 
Q 20.21875 -1.421875 15.453125 -0.5625 
Q 10.6875 0.296875 5.421875 2 
L 5.421875 11.28125 
Q 10.40625 8.6875 15.234375 7.390625 
Q 20.0625 6.109375 24.8125 6.109375 
Q 31.15625 6.109375 34.5625 8.28125 
Q 37.984375 10.453125 37.984375 14.40625 
Q 37.984375 18.0625 35.515625 20.015625 
Q 33.0625 21.96875 24.703125 23.78125 
L 21.578125 24.515625 
Q 13.234375 26.265625 9.515625 29.90625 
Q 5.8125 33.546875 5.8125 39.890625 
Q 5.8125 47.609375 11.28125 51.796875 
Q 16.75 56 26.8125 56 
Q 31.78125 56 36.171875 55.265625 
Q 40.578125 54.546875 44.28125 53.078125 
z
" id="DejaVuSans-115"/>
      <path d="M 25.390625 72.90625 
L 33.6875 72.90625 
L 8.296875 -9.28125 
L 0 -9.28125 
z
" id="DejaVuSans-47"/>
      <path d="M 45.40625 46.390625 
L 45.40625 75.984375 
L 54.390625 75.984375 
L 54.390625 0 
L 45.40625 0 
L 45.40625 8.203125 
Q 42.578125 3.328125 38.25 0.953125 
Q 33.9375 -1.421875 27.875 -1.421875 
Q 17.96875 -1.421875 11.734375 6.484375 
Q 5.515625 14.40625 5.515625 27.296875 
Q 5.515625 40.1875 11.734375 48.09375 
Q 17.96875 56 27.875 56 
Q 33.9375 56 38.25 53.625 
Q 42.578125 51.265625 45.40625 46.390625 
z
M 14.796875 27.296875 
Q 14.796875 17.390625 18.875 11.75 
Q 22.953125 6.109375 30.078125 6.109375 
Q 37.203125 6.109375 41.296875 11.75 
Q 45.40625 17.390625 45.40625 27.296875 
Q 45.40625 37.203125 41.296875 42.84375 
Q 37.203125 48.484375 30.078125 48.484375 
Q 22.953125 48.484375 18.875 42.84375 
Q 14.796875 37.203125 14.796875 27.296875 
z
" id="DejaVuSans-100"/>
      <path d="M 9.421875 54.6875 
L 18.40625 54.6875 
L 18.40625 0 
L 9.421875 0 
z
M 9.421875 75.984375 
L 18.40625 75.984375 
L 18.40625 64.59375 
L 9.421875 64.59375 
z
" id="DejaVuSans-105"/>
      <path d="M 52 44.1875 
Q 55.375 50.25 60.0625 53.125 
Q 64.75 56 71.09375 56 
Q 79.640625 56 84.28125 50.015625 
Q 88.921875 44.046875 88.921875 33.015625 
L 88.921875 0 
L 79.890625 0 
L 79.890625 32.71875 
Q 79.890625 40.578125 77.09375 44.375 
Q 74.3125 48.1875 68.609375 48.1875 
Q 61.625 48.1875 57.5625 43.546875 
Q 53.515625 38.921875 53.515625 30.90625 
L 53.515625 0 
L 44.484375 0 
L 44.484375 32.71875 
Q 44.484375 40.625 41.703125 44.40625 
Q 38.921875 48.1875 33.109375 48.1875 
Q 26.21875 48.1875 22.15625 43.53125 
Q 18.109375 38.875 18.109375 30.90625 
L 18.109375 0 
L 9.078125 0 
L 9.078125 54.6875 
L 18.109375 54.6875 
L 18.109375 46.1875 
Q 21.1875 51.21875 25.484375 53.609375 
Q 29.78125 56 35.6875 56 
Q 41.65625 56 45.828125 52.96875 
Q 50 49.953125 52 44.1875 
z
" id="DejaVuSans-109"/>
      <path d="M 54.890625 33.015625 
L 54.890625 0 
L 45.90625 0 
L 45.90625 32.71875 
Q 45.90625 40.484375 42.875 44.328125 
Q 39.84375 48.1875 33.796875 48.1875 
Q 26.515625 48.1875 22.3125 43.546875 
Q 18.109375 38.921875 18.109375 30.90625 
L 18.109375 0 
L 9.078125 0 
L 9.078125 54.6875 
L 18.109375 54.6875 
L 18.109375 46.1875 
Q 21.34375 51.125 25.703125 53.5625 
Q 30.078125 56 35.796875 56 
Q 45.21875 56 50.046875 50.171875 
Q 54.890625 44.34375 54.890625 33.015625 
z
" id="DejaVuSans-110"/>
      <path d="M 8.015625 75.875 
L 15.828125 75.875 
Q 23.140625 64.359375 26.78125 53.3125 
Q 30.421875 42.28125 30.421875 31.390625 
Q 30.421875 20.453125 26.78125 9.375 
Q 23.140625 -1.703125 15.828125 -13.1875 
L 8.015625 -13.1875 
Q 14.5 -2 17.703125 9.0625 
Q 20.90625 20.125 20.90625 31.390625 
Q 20.90625 42.671875 17.703125 53.65625 
Q 14.5 64.65625 8.015625 75.875 
z
" id="DejaVuSans-41"/>
     </defs>
     <g transform="translate(77.303219 342.217594)scale(0.17 -0.17)">
      <use xlink:href="#DejaVuSans-108"/>
      <use x="27.783203" xlink:href="#DejaVuSans-111"/>
      <use x="88.964844" xlink:href="#DejaVuSans-103"/>
      <use x="152.441406" xlink:href="#DejaVuSans-49"/>
      <use x="216.064453" xlink:href="#DejaVuSans-48"/>
      <use x="279.6875" xlink:href="#DejaVuSans-40"/>
      <use x="318.701172" xlink:href="#DejaVuSans-35"/>
      <use x="402.490234" xlink:href="#DejaVuSans-32"/>
      <use x="434.277344" xlink:href="#DejaVuSans-102"/>
      <use x="469.404297" xlink:href="#DejaVuSans-45"/>
      <use x="505.488281" xlink:href="#DejaVuSans-101"/>
      <use x="567.011719" xlink:href="#DejaVuSans-118"/>
      <use x="626.191406" xlink:href="#DejaVuSans-97"/>
      <use x="687.470703" xlink:href="#DejaVuSans-108"/>
      <use x="715.253906" xlink:href="#DejaVuSans-115"/>
      <use x="767.353516" xlink:href="#DejaVuSans-32"/>
      <use x="799.140625" xlink:href="#DejaVuSans-47"/>
      <use x="832.832031" xlink:href="#DejaVuSans-32"/>
      <use x="864.619141" xlink:href="#DejaVuSans-100"/>
      <use x="928.095703" xlink:href="#DejaVuSans-105"/>
      <use x="955.878906" xlink:href="#DejaVuSans-109"/>
      <use x="1053.291016" xlink:href="#DejaVuSans-101"/>
      <use x="1114.814453" xlink:href="#DejaVuSans-110"/>
      <use x="1178.193359" xlink:href="#DejaVuSans-115"/>
      <use x="1230.292969" xlink:href="#DejaVuSans-105"/>
      <use x="1258.076172" xlink:href="#DejaVuSans-111"/>
      <use x="1319.257812" xlink:href="#DejaVuSans-110"/>
      <use x="1382.636719" xlink:href="#DejaVuSans-41"/>
     </g>
    </g>
   </g>
   <g id="matplotlib.axis_2">
    <g id="ytick_1">
     <g id="line2d_29">
      <path clip-path="url(#p29bb14fd44)" d="M 57.6 298.944 
L 338.688 298.944 
" style="fill:none;stroke:#b0b0b0;stroke-linecap:square;stroke-width:0.8;"/>
     </g>
     <g id="line2d_30">
      <defs>
       <path d="M 0 0 
L -3.5 0 
" id="mbcb57d8f93" style="stroke:#000000;stroke-width:0.8;"/>
      </defs>
      <g>
       <use style="stroke:#000000;stroke-width:0.8;" x="57.6" xlink:href="#mbcb57d8f93" y="298.944"/>
      </g>
     </g>
     <g id="text_6">
      <!-- 0.0 -->
      <defs>
       <path d="M 10.6875 12.40625 
L 21 12.40625 
L 21 0 
L 10.6875 0 
z
" id="DejaVuSans-46"/>
      </defs>
      <g transform="translate(25.155 305.02275)scale(0.16 -0.16)">
       <use xlink:href="#DejaVuSans-48"/>
       <use x="63.623047" xlink:href="#DejaVuSans-46"/>
       <use x="95.410156" xlink:href="#DejaVuSans-48"/>
      </g>
     </g>
    </g>
    <g id="ytick_2">
     <g id="line2d_31">
      <path clip-path="url(#p29bb14fd44)" d="M 57.6 245.22202 
L 338.688 245.22202 
" style="fill:none;stroke:#b0b0b0;stroke-linecap:square;stroke-width:0.8;"/>
     </g>
     <g id="line2d_32">
      <g>
       <use style="stroke:#000000;stroke-width:0.8;" x="57.6" xlink:href="#mbcb57d8f93" y="245.22202"/>
      </g>
     </g>
     <g id="text_7">
      <!-- 0.2 -->
      <g transform="translate(25.155 251.30077)scale(0.16 -0.16)">
       <use xlink:href="#DejaVuSans-48"/>
       <use x="63.623047" xlink:href="#DejaVuSans-46"/>
       <use x="95.410156" xlink:href="#DejaVuSans-50"/>
      </g>
     </g>
    </g>
    <g id="ytick_3">
     <g id="line2d_33">
      <path clip-path="url(#p29bb14fd44)" d="M 57.6 191.50004 
L 338.688 191.50004 
" style="fill:none;stroke:#b0b0b0;stroke-linecap:square;stroke-width:0.8;"/>
     </g>
     <g id="line2d_34">
      <g>
       <use style="stroke:#000000;stroke-width:0.8;" x="57.6" xlink:href="#mbcb57d8f93" y="191.50004"/>
      </g>
     </g>
     <g id="text_8">
      <!-- 0.4 -->
      <g transform="translate(25.155 197.57879)scale(0.16 -0.16)">
       <use xlink:href="#DejaVuSans-48"/>
       <use x="63.623047" xlink:href="#DejaVuSans-46"/>
       <use x="95.410156" xlink:href="#DejaVuSans-52"/>
      </g>
     </g>
    </g>
    <g id="ytick_4">
     <g id="line2d_35">
      <path clip-path="url(#p29bb14fd44)" d="M 57.6 137.778059 
L 338.688 137.778059 
" style="fill:none;stroke:#b0b0b0;stroke-linecap:square;stroke-width:0.8;"/>
     </g>
     <g id="line2d_36">
      <g>
       <use style="stroke:#000000;stroke-width:0.8;" x="57.6" xlink:href="#mbcb57d8f93" y="137.778059"/>
      </g>
     </g>
     <g id="text_9">
      <!-- 0.6 -->
      <g transform="translate(25.155 143.856809)scale(0.16 -0.16)">
       <use xlink:href="#DejaVuSans-48"/>
       <use x="63.623047" xlink:href="#DejaVuSans-46"/>
       <use x="95.410156" xlink:href="#DejaVuSans-54"/>
      </g>
     </g>
    </g>
    <g id="ytick_5">
     <g id="line2d_37">
      <path clip-path="url(#p29bb14fd44)" d="M 57.6 84.056079 
L 338.688 84.056079 
" style="fill:none;stroke:#b0b0b0;stroke-linecap:square;stroke-width:0.8;"/>
     </g>
     <g id="line2d_38">
      <g>
       <use style="stroke:#000000;stroke-width:0.8;" x="57.6" xlink:href="#mbcb57d8f93" y="84.056079"/>
      </g>
     </g>
     <g id="text_10">
      <!-- 0.8 -->
      <defs>
       <path d="M 31.78125 34.625 
Q 24.75 34.625 20.71875 30.859375 
Q 16.703125 27.09375 16.703125 20.515625 
Q 16.703125 13.921875 20.71875 10.15625 
Q 24.75 6.390625 31.78125 6.390625 
Q 38.8125 6.390625 42.859375 10.171875 
Q 46.921875 13.96875 46.921875 20.515625 
Q 46.921875 27.09375 42.890625 30.859375 
Q 38.875 34.625 31.78125 34.625 
z
M 21.921875 38.8125 
Q 15.578125 40.375 12.03125 44.71875 
Q 8.5 49.078125 8.5 55.328125 
Q 8.5 64.0625 14.71875 69.140625 
Q 20.953125 74.21875 31.78125 74.21875 
Q 42.671875 74.21875 48.875 69.140625 
Q 55.078125 64.0625 55.078125 55.328125 
Q 55.078125 49.078125 51.53125 44.71875 
Q 48 40.375 41.703125 38.8125 
Q 48.828125 37.15625 52.796875 32.3125 
Q 56.78125 27.484375 56.78125 20.515625 
Q 56.78125 9.90625 50.3125 4.234375 
Q 43.84375 -1.421875 31.78125 -1.421875 
Q 19.734375 -1.421875 13.25 4.234375 
Q 6.78125 9.90625 6.78125 20.515625 
Q 6.78125 27.484375 10.78125 32.3125 
Q 14.796875 37.15625 21.921875 38.8125 
z
M 18.3125 54.390625 
Q 18.3125 48.734375 21.84375 45.5625 
Q 25.390625 42.390625 31.78125 42.390625 
Q 38.140625 42.390625 41.71875 45.5625 
Q 45.3125 48.734375 45.3125 54.390625 
Q 45.3125 60.0625 41.71875 63.234375 
Q 38.140625 66.40625 31.78125 66.40625 
Q 25.390625 66.40625 21.84375 63.234375 
Q 18.3125 60.0625 18.3125 54.390625 
z
" id="DejaVuSans-56"/>
      </defs>
      <g transform="translate(25.155 90.134829)scale(0.16 -0.16)">
       <use xlink:href="#DejaVuSans-48"/>
       <use x="63.623047" xlink:href="#DejaVuSans-46"/>
       <use x="95.410156" xlink:href="#DejaVuSans-56"/>
      </g>
     </g>
    </g>
    <g id="ytick_6">
     <g id="line2d_39">
      <path clip-path="url(#p29bb14fd44)" d="M 57.6 30.334099 
L 338.688 30.334099 
" style="fill:none;stroke:#b0b0b0;stroke-linecap:square;stroke-width:0.8;"/>
     </g>
     <g id="line2d_40">
      <g>
       <use style="stroke:#000000;stroke-width:0.8;" x="57.6" xlink:href="#mbcb57d8f93" y="30.334099"/>
      </g>
     </g>
     <g id="text_11">
      <!-- 1.0 -->
      <g transform="translate(25.155 36.412849)scale(0.16 -0.16)">
       <use xlink:href="#DejaVuSans-49"/>
       <use x="63.623047" xlink:href="#DejaVuSans-46"/>
       <use x="95.410156" xlink:href="#DejaVuSans-48"/>
      </g>
     </g>
    </g>
    <g id="text_12">
     <!-- Fraction of function,target pairs -->
     <defs>
      <path d="M 9.8125 72.90625 
L 51.703125 72.90625 
L 51.703125 64.59375 
L 19.671875 64.59375 
L 19.671875 43.109375 
L 48.578125 43.109375 
L 48.578125 34.8125 
L 19.671875 34.8125 
L 19.671875 0 
L 9.8125 0 
z
" id="DejaVuSans-70"/>
      <path d="M 41.109375 46.296875 
Q 39.59375 47.171875 37.8125 47.578125 
Q 36.03125 48 33.890625 48 
Q 26.265625 48 22.1875 43.046875 
Q 18.109375 38.09375 18.109375 28.8125 
L 18.109375 0 
L 9.078125 0 
L 9.078125 54.6875 
L 18.109375 54.6875 
L 18.109375 46.1875 
Q 20.953125 51.171875 25.484375 53.578125 
Q 30.03125 56 36.53125 56 
Q 37.453125 56 38.578125 55.875 
Q 39.703125 55.765625 41.0625 55.515625 
z
" id="DejaVuSans-114"/>
      <path d="M 48.78125 52.59375 
L 48.78125 44.1875 
Q 44.96875 46.296875 41.140625 47.34375 
Q 37.3125 48.390625 33.40625 48.390625 
Q 24.65625 48.390625 19.8125 42.84375 
Q 14.984375 37.3125 14.984375 27.296875 
Q 14.984375 17.28125 19.8125 11.734375 
Q 24.65625 6.203125 33.40625 6.203125 
Q 37.3125 6.203125 41.140625 7.25 
Q 44.96875 8.296875 48.78125 10.40625 
L 48.78125 2.09375 
Q 45.015625 0.34375 40.984375 -0.53125 
Q 36.96875 -1.421875 32.421875 -1.421875 
Q 20.0625 -1.421875 12.78125 6.34375 
Q 5.515625 14.109375 5.515625 27.296875 
Q 5.515625 40.671875 12.859375 48.328125 
Q 20.21875 56 33.015625 56 
Q 37.15625 56 41.109375 55.140625 
Q 45.0625 54.296875 48.78125 52.59375 
z
" id="DejaVuSans-99"/>
      <path d="M 18.3125 70.21875 
L 18.3125 54.6875 
L 36.8125 54.6875 
L 36.8125 47.703125 
L 18.3125 47.703125 
L 18.3125 18.015625 
Q 18.3125 11.328125 20.140625 9.421875 
Q 21.96875 7.515625 27.59375 7.515625 
L 36.8125 7.515625 
L 36.8125 0 
L 27.59375 0 
Q 17.1875 0 13.234375 3.875 
Q 9.28125 7.765625 9.28125 18.015625 
L 9.28125 47.703125 
L 2.6875 47.703125 
L 2.6875 54.6875 
L 9.28125 54.6875 
L 9.28125 70.21875 
z
" id="DejaVuSans-116"/>
      <path d="M 8.5 21.578125 
L 8.5 54.6875 
L 17.484375 54.6875 
L 17.484375 21.921875 
Q 17.484375 14.15625 20.5 10.265625 
Q 23.53125 6.390625 29.59375 6.390625 
Q 36.859375 6.390625 41.078125 11.03125 
Q 45.3125 15.671875 45.3125 23.6875 
L 45.3125 54.6875 
L 54.296875 54.6875 
L 54.296875 0 
L 45.3125 0 
L 45.3125 8.40625 
Q 42.046875 3.421875 37.71875 1 
Q 33.40625 -1.421875 27.6875 -1.421875 
Q 18.265625 -1.421875 13.375 4.4375 
Q 8.5 10.296875 8.5 21.578125 
z
M 31.109375 56 
z
" id="DejaVuSans-117"/>
      <path d="M 11.71875 12.40625 
L 22.015625 12.40625 
L 22.015625 4 
L 14.015625 -11.625 
L 7.71875 -11.625 
L 11.71875 4 
z
" id="DejaVuSans-44"/>
      <path d="M 18.109375 8.203125 
L 18.109375 -20.796875 
L 9.078125 -20.796875 
L 9.078125 54.6875 
L 18.109375 54.6875 
L 18.109375 46.390625 
Q 20.953125 51.265625 25.265625 53.625 
Q 29.59375 56 35.59375 56 
Q 45.5625 56 51.78125 48.09375 
Q 58.015625 40.1875 58.015625 27.296875 
Q 58.015625 14.40625 51.78125 6.484375 
Q 45.5625 -1.421875 35.59375 -1.421875 
Q 29.59375 -1.421875 25.265625 0.953125 
Q 20.953125 3.328125 18.109375 8.203125 
z
M 48.6875 27.296875 
Q 48.6875 37.203125 44.609375 42.84375 
Q 40.53125 48.484375 33.40625 48.484375 
Q 26.265625 48.484375 22.1875 42.84375 
Q 18.109375 37.203125 18.109375 27.296875 
Q 18.109375 17.390625 22.1875 11.75 
Q 26.265625 6.109375 33.40625 6.109375 
Q 40.53125 6.109375 44.609375 11.75 
Q 48.6875 17.390625 48.6875 27.296875 
z
" id="DejaVuSans-112"/>
     </defs>
     <g transform="translate(17.619531 298.435375)rotate(-90)scale(0.17 -0.17)">
      <use xlink:href="#DejaVuSans-70"/>
      <use x="57.410156" xlink:href="#DejaVuSans-114"/>
      <use x="98.523438" xlink:href="#DejaVuSans-97"/>
      <use x="159.802734" xlink:href="#DejaVuSans-99"/>
      <use x="214.783203" xlink:href="#DejaVuSans-116"/>
      <use x="253.992188" xlink:href="#DejaVuSans-105"/>
      <use x="281.775391" xlink:href="#DejaVuSans-111"/>
      <use x="342.957031" xlink:href="#DejaVuSans-110"/>
      <use x="406.335938" xlink:href="#DejaVuSans-32"/>
      <use x="438.123047" xlink:href="#DejaVuSans-111"/>
      <use x="499.304688" xlink:href="#DejaVuSans-102"/>
      <use x="534.509766" xlink:href="#DejaVuSans-32"/>
      <use x="566.296875" xlink:href="#DejaVuSans-102"/>
      <use x="601.501953" xlink:href="#DejaVuSans-117"/>
      <use x="664.880859" xlink:href="#DejaVuSans-110"/>
      <use x="728.259766" xlink:href="#DejaVuSans-99"/>
      <use x="783.240234" xlink:href="#DejaVuSans-116"/>
      <use x="822.449219" xlink:href="#DejaVuSans-105"/>
      <use x="850.232422" xlink:href="#DejaVuSans-111"/>
      <use x="911.414062" xlink:href="#DejaVuSans-110"/>
      <use x="974.792969" xlink:href="#DejaVuSans-44"/>
      <use x="1006.580078" xlink:href="#DejaVuSans-116"/>
      <use x="1045.789062" xlink:href="#DejaVuSans-97"/>
      <use x="1107.068359" xlink:href="#DejaVuSans-114"/>
      <use x="1148.166016" xlink:href="#DejaVuSans-103"/>
      <use x="1211.642578" xlink:href="#DejaVuSans-101"/>
      <use x="1273.166016" xlink:href="#DejaVuSans-116"/>
      <use x="1312.375" xlink:href="#DejaVuSans-32"/>
      <use x="1344.162109" xlink:href="#DejaVuSans-112"/>
      <use x="1407.638672" xlink:href="#DejaVuSans-97"/>
      <use x="1468.917969" xlink:href="#DejaVuSans-105"/>
      <use x="1496.701172" xlink:href="#DejaVuSans-114"/>
      <use x="1537.814453" xlink:href="#DejaVuSans-115"/>
     </g>
    </g>
   </g>
   <g id="line2d_41">
    <defs>
     <path d="M 0 1.5 
C 0.397805 1.5 0.77937 1.341951 1.06066 1.06066 
C 1.341951 0.77937 1.5 0.397805 1.5 0 
C 1.5 -0.397805 1.341951 -0.77937 1.06066 -1.06066 
C 0.77937 -1.341951 0.397805 -1.5 0 -1.5 
C -0.397805 -1.5 -0.77937 -1.341951 -1.06066 -1.06066 
C -1.341951 -0.77937 -1.5 -0.397805 -1.5 0 
C -1.5 0.397805 -1.341951 0.77937 -1.06066 1.06066 
C -0.77937 1.341951 -0.397805 1.5 0 1.5 
z
" id="m91f3421e9a" style="stroke:#f5deb3;"/>
    </defs>
    <g>
     <use style="fill:#f5deb3;stroke:#f5deb3;" x="143.157379" xlink:href="#m91f3421e9a" y="30.334099"/>
     <use style="fill:#f5deb3;stroke:#f5deb3;" x="143.157379" xlink:href="#m91f3421e9a" y="30.334099"/>
    </g>
   </g>
   <g id="line2d_42">
    <defs>
     <path d="M 0 1.5 
C 0.397805 1.5 0.77937 1.341951 1.06066 1.06066 
C 1.341951 0.77937 1.5 0.397805 1.5 0 
C 1.5 -0.397805 1.341951 -0.77937 1.06066 -1.06066 
C 0.77937 -1.341951 0.397805 -1.5 0 -1.5 
C -0.397805 -1.5 -0.77937 -1.341951 -1.06066 -1.06066 
C -1.341951 -0.77937 -1.5 -0.397805 -1.5 0 
C -1.5 0.397805 -1.341951 0.77937 -1.06066 1.06066 
C -0.77937 1.341951 -0.397805 1.5 0 1.5 
z
" id="m3a7e85b576" style="stroke:#000080;"/>
    </defs>
    <g>
     <use style="fill:#000080;stroke:#000080;" x="170.862221" xlink:href="#m3a7e85b576" y="30.334099"/>
     <use style="fill:#000080;stroke:#000080;" x="170.862221" xlink:href="#m3a7e85b576" y="30.334099"/>
    </g>
   </g>
   <g id="line2d_43">
    <path d="M 108.102622 298.944 
L 108.102622 298.417314 
L 109.668146 298.417314 
L 109.668146 297.890628 
L 109.930396 297.890628 
L 109.930396 297.363942 
L 111.266113 297.363942 
L 111.266113 296.837256 
L 112.506763 296.837256 
L 112.506763 296.31057 
L 112.72987 296.31057 
L 112.72987 295.783884 
L 113.942906 295.783884 
L 113.942906 295.257197 
L 114.216469 295.257197 
L 114.216469 294.730511 
L 114.816733 294.730511 
L 114.816733 294.203825 
L 115.012316 294.203825 
L 115.012316 293.677139 
L 115.523393 293.677139 
L 115.586238 292.097081 
L 115.897107 292.097081 
L 115.897107 291.570395 
L 116.739166 291.570395 
L 116.739166 291.043709 
L 116.856209 291.043709 
L 116.856209 290.517023 
L 117.202696 290.517023 
L 117.202696 289.990337 
L 117.598418 289.990337 
L 117.598418 289.463651 
L 117.709852 289.463651 
L 117.709852 288.936964 
L 117.985359 288.936964 
L 117.985359 288.410278 
L 118.629344 288.410278 
L 118.629344 287.883592 
L 118.786692 287.883592 
L 118.786692 286.83022 
L 119.045825 286.83022 
L 119.045825 286.303534 
L 120.524615 286.303534 
L 120.524615 285.776848 
L 121.08272 285.776848 
L 121.08272 285.250162 
L 121.219499 285.250162 
L 121.219499 284.723476 
L 121.355214 284.723476 
L 121.355214 284.19679 
L 121.53454 284.19679 
L 121.53454 283.670104 
L 122.44689 283.670104 
L 122.44689 283.143418 
L 122.657258 283.143418 
L 122.657258 282.616732 
L 122.782271 282.616732 
L 122.823744 281.563359 
L 123.029641 281.563359 
L 123.029641 281.036673 
L 123.192626 281.036673 
L 123.192626 280.509987 
L 123.434283 280.509987 
L 123.434283 279.983301 
L 124.743806 279.983301 
L 124.743806 279.456615 
L 125.399222 279.456615 
L 125.470548 278.403243 
L 126.065325 278.403243 
L 126.065325 276.823185 
L 126.236468 276.823185 
L 126.236468 276.296499 
L 126.640485 276.296499 
L 126.640485 275.769812 
L 127.035353 275.769812 
L 127.035353 275.243126 
L 127.54831 275.243126 
L 127.54831 274.71644 
L 127.954256 274.71644 
L 127.954256 274.189754 
L 128.077285 274.189754 
L 128.077285 273.663068 
L 128.620421 273.663068 
L 128.620421 273.136382 
L 129.118302 273.136382 
L 129.118302 272.609696 
L 129.79784 272.609696 
L 129.79784 272.08301 
L 129.936138 272.08301 
L 129.936138 271.556324 
L 130.317637 271.556324 
L 130.317637 271.029638 
L 131.082294 271.029638 
L 131.082294 270.502952 
L 131.414481 270.502952 
L 131.414481 269.976266 
L 132.80063 269.976266 
L 132.80063 269.449579 
L 133.622529 269.449579 
L 133.622529 268.922893 
L 135.056115 268.922893 
L 135.056115 268.396207 
L 135.46217 268.396207 
L 135.482227 267.342835 
L 137.805906 267.342835 
L 137.858461 266.289463 
L 139.107066 266.289463 
L 139.107066 265.762777 
L 140.529237 265.762777 
L 140.529237 265.236091 
L 141.492656 265.236091 
L 141.492656 264.709405 
L 143.75376 264.709405 
L 143.75376 264.182719 
L 144.958609 264.182719 
L 144.958609 263.656033 
L 146.495417 263.656033 
L 146.495417 263.129347 
L 147.113265 263.129347 
L 147.113265 262.60266 
L 147.540122 262.60266 
L 147.540122 262.075974 
L 149.494606 262.075974 
L 149.494606 261.549288 
L 150.539708 261.549288 
L 150.539708 261.022602 
L 150.716332 261.022602 
L 150.724698 259.96923 
L 150.874606 259.96923 
L 150.874606 259.442544 
L 151.533692 259.442544 
L 151.573572 258.389172 
L 152.045145 258.389172 
L 152.045145 257.862486 
L 152.936949 257.862486 
L 152.936949 257.3358 
L 153.054435 257.3358 
L 153.054435 256.809114 
L 153.185667 256.809114 
L 153.185667 256.282427 
L 153.330332 256.282427 
L 153.330332 255.755741 
L 153.495227 255.755741 
L 153.495227 255.229055 
L 153.834414 255.229055 
L 153.834414 254.702369 
L 154.173993 254.702369 
L 154.269814 253.648997 
L 154.5944 253.648997 
L 154.627867 252.068939 
L 154.945917 252.068939 
L 155.017994 251.015567 
L 155.102793 251.015567 
L 155.174226 249.962195 
L 156.169227 249.962195 
L 156.193695 248.908822 
L 156.285144 248.908822 
L 156.285144 248.382136 
L 156.538679 248.382136 
L 156.538679 247.85545 
L 156.900466 247.85545 
L 156.935649 246.802078 
L 157.133693 246.802078 
L 157.133693 246.275392 
L 157.266399 246.275392 
L 157.266399 245.748706 
L 157.574059 245.748706 
L 157.652944 244.695334 
L 157.725877 244.695334 
L 157.725877 244.168648 
L 157.893028 244.168648 
L 157.942862 242.588589 
L 158.12438 242.588589 
L 158.12438 242.061903 
L 158.320268 242.061903 
L 158.395856 241.008531 
L 158.524678 241.008531 
L 158.625992 238.901787 
L 158.753132 238.901787 
L 158.75841 237.848415 
L 158.973421 237.848415 
L 159.041045 236.268356 
L 159.185813 236.268356 
L 159.293606 234.688298 
L 159.324282 234.688298 
L 159.324282 234.161612 
L 159.456591 234.161612 
L 159.537516 233.10824 
L 159.792986 233.10824 
L 159.872369 232.054868 
L 159.9218 232.054868 
L 159.995685 230.47481 
L 160.132771 230.47481 
L 160.200913 229.421437 
L 160.341221 229.421437 
L 160.341221 228.894751 
L 160.475629 228.894751 
L 160.585265 226.788007 
L 160.670589 226.788007 
L 160.670589 226.261321 
L 160.811875 226.261321 
L 160.886762 225.207949 
L 160.928745 225.207949 
L 161.030947 224.154577 
L 161.081824 224.154577 
L 161.164758 222.574518 
L 161.251875 222.574518 
L 161.356752 221.521146 
L 161.415753 221.521146 
L 161.519653 217.834344 
L 161.528659 217.834344 
L 161.591568 216.780971 
L 161.738962 216.780971 
L 161.836537 213.620855 
L 161.863054 213.620855 
L 161.92917 210.987425 
L 161.995037 210.987425 
L 162.065021 209.407366 
L 162.134726 209.407366 
L 162.234442 207.827308 
L 162.273306 207.827308 
L 162.376523 205.193878 
L 162.385097 205.193878 
L 162.427903 203.087133 
L 162.517456 203.087133 
L 162.576903 200.453703 
L 162.699403 200.453703 
L 162.79595 197.293586 
L 162.812686 197.293586 
L 162.90861 194.660156 
L 162.933547 194.660156 
L 162.983314 193.080098 
L 163.111226 193.080098 
L 163.205526 189.393295 
L 163.254524 189.393295 
L 163.348054 185.179807 
L 163.400698 185.179807 
L 163.49345 179.38626 
L 163.593711 179.38626 
L 163.649606 177.279515 
L 163.717238 177.279515 
L 163.78461 174.646085 
L 163.835954 174.646085 
L 163.930348 170.432596 
L 163.992995 170.432596 
L 164.094319 166.745794 
L 164.113737 166.745794 
L 164.214363 160.952247 
L 164.314412 160.952247 
L 164.425332 157.79213 
L 164.444386 157.79213 
L 164.554485 153.051956 
L 164.558269 153.051956 
L 164.660132 148.311781 
L 164.686444 148.311781 
L 164.761403 145.151665 
L 164.802494 145.151665 
L 164.906654 139.358118 
L 164.91407 139.358118 
L 165.024937 134.617943 
L 165.035985 134.617943 
L 165.120455 131.457826 
L 165.160709 131.457826 
L 165.259123 127.771024 
L 165.273656 127.771024 
L 165.367825 124.610907 
L 165.385876 124.610907 
L 165.493792 119.870733 
L 165.497378 119.870733 
L 165.608172 110.390383 
L 165.611735 110.390383 
L 165.718267 106.176895 
L 165.739495 106.176895 
L 165.820633 99.329976 
L 165.88387 99.329976 
L 165.992243 96.169859 
L 166.030537 96.169859 
L 166.127634 91.95637 
L 166.144916 91.95637 
L 166.255117 85.109451 
L 166.279131 85.109451 
L 166.38849 78.789218 
L 166.402112 78.789218 
L 166.510705 76.155788 
L 166.530991 76.155788 
L 166.6119 70.362241 
L 166.642144 70.362241 
L 166.735904 66.675439 
L 166.769268 66.675439 
L 166.875605 63.515322 
L 166.91201 63.515322 
L 167.017483 59.82852 
L 167.030622 59.82852 
L 167.138646 58.775147 
L 167.164734 58.775147 
L 167.271933 56.141717 
L 167.284882 56.141717 
L 167.346259 54.034973 
L 167.407422 54.034973 
L 167.46837 52.454914 
L 167.535487 52.454914 
L 167.608702 50.874856 
L 167.659453 50.874856 
L 167.741609 47.71474 
L 167.801403 47.71474 
L 167.907893 44.027937 
L 167.935973 44.027937 
L 168.023045 41.394507 
L 168.208177 41.394507 
L 168.217383 39.814448 
L 168.367051 39.814448 
L 168.367051 39.287762 
L 168.494323 39.287762 
L 168.494323 38.761076 
L 168.638649 38.761076 
L 168.638649 38.23439 
L 168.879523 38.23439 
L 168.879523 37.181018 
L 169.137496 37.181018 
L 169.137496 36.654332 
L 169.276617 36.654332 
L 169.383104 35.074274 
L 169.525979 35.074274 
L 169.525979 34.547588 
L 169.71843 34.547588 
L 169.71843 34.020902 
L 170.086056 34.020902 
L 170.138339 32.967529 
L 170.419074 32.967529 
L 170.454188 31.387471 
L 170.690039 31.387471 
L 170.690039 30.860785 
L 170.862221 30.860785 
L 170.862221 30.334099 
L 338.688 30.334099 
L 338.688 30.334099 
" style="fill:none;stroke:#000080;stroke-linecap:square;stroke-width:1.5;"/>
   </g>
   <g id="line2d_44">
    <defs>
     <path d="M 0 6 
C 1.591219 6 3.117479 5.367802 4.242641 4.242641 
C 5.367802 3.117479 6 1.591219 6 0 
C 6 -1.591219 5.367802 -3.117479 4.242641 -4.242641 
C 3.117479 -5.367802 1.591219 -6 0 -6 
C -1.591219 -6 -3.117479 -5.367802 -4.242641 -4.242641 
C -5.367802 -3.117479 -6 -1.591219 -6 0 
C -6 1.591219 -5.367802 3.117479 -4.242641 4.242641 
C -3.117479 5.367802 -1.591219 6 0 6 
z
" id="m289190771e" style="stroke:#000080;stroke-width:1.5;"/>
    </defs>
    <g>
     <use style="fill-opacity:0;stroke:#000080;stroke-width:1.5;" x="163.152289" xlink:href="#m289190771e" y="190.446667"/>
     <use style="fill-opacity:0;stroke:#000080;stroke-width:1.5;" x="170.862221" xlink:href="#m289190771e" y="30.860785"/>
     <use style="fill-opacity:0;stroke:#000080;stroke-width:1.5;" x="170.862221" xlink:href="#m289190771e" y="30.334099"/>
     <use style="fill-opacity:0;stroke:#000080;stroke-width:1.5;" x="170.862221" xlink:href="#m289190771e" y="30.334099"/>
     <use style="fill-opacity:0;stroke:#000080;stroke-width:1.5;" x="338.688" xlink:href="#m289190771e" y="30.334099"/>
    </g>
   </g>
   <g id="line2d_45">
    <path style="fill:none;stroke:#000080;stroke-linecap:square;stroke-width:1.5;"/>
    <g/>
   </g>
   <g id="line2d_46">
    <defs>
     <path d="M 0 1.5 
C 0.397805 1.5 0.77937 1.341951 1.06066 1.06066 
C 1.341951 0.77937 1.5 0.397805 1.5 0 
C 1.5 -0.397805 1.341951 -0.77937 1.06066 -1.06066 
C 0.77937 -1.341951 0.397805 -1.5 0 -1.5 
C -0.397805 -1.5 -0.77937 -1.341951 -1.06066 -1.06066 
C -1.341951 -0.77937 -1.5 -0.397805 -1.5 0 
C -1.5 0.397805 -1.341951 0.77937 -1.06066 1.06066 
C -0.77937 1.341951 -0.397805 1.5 0 1.5 
z
" id="madb4aebd5b" style="stroke:#ff0000;"/>
    </defs>
    <g>
     <use style="fill:#ff0000;stroke:#ff0000;" x="172.739653" xlink:href="#madb4aebd5b" y="30.334099"/>
     <use style="fill:#ff0000;stroke:#ff0000;" x="172.739653" xlink:href="#madb4aebd5b" y="30.334099"/>
    </g>
   </g>
   <g id="line2d_47">
    <path d="M 94.921215 298.944 
L 94.921215 298.417314 
L 101.365607 298.417314 
L 101.365607 297.890628 
L 102.989037 297.890628 
L 102.989037 297.363942 
L 105.51043 297.363942 
L 105.51043 296.837256 
L 106.382575 296.837256 
L 106.48859 295.257197 
L 107.314272 295.257197 
L 107.314272 293.150453 
L 109.668146 293.150453 
L 109.756002 292.097081 
L 109.843417 292.097081 
L 109.930396 289.990337 
L 110.016944 289.990337 
L 110.016944 289.463651 
L 111.104637 289.463651 
L 111.104637 287.883592 
L 111.584648 287.883592 
L 111.584648 287.356906 
L 111.74176 287.356906 
L 111.74176 286.83022 
L 111.974805 286.83022 
L 111.974805 286.303534 
L 112.204777 286.303534 
L 112.204777 285.776848 
L 113.022974 285.776848 
L 113.022974 284.723476 
L 113.167699 284.723476 
L 113.167699 283.670104 
L 113.594805 283.670104 
L 113.664983 282.090045 
L 114.0117 282.090045 
L 114.0117 281.563359 
L 114.618932 281.563359 
L 114.685115 280.509987 
L 114.947365 280.509987 
L 114.947365 279.983301 
L 115.33349 279.983301 
L 115.33349 279.456615 
L 115.648856 279.456615 
L 115.648856 278.403243 
L 115.835374 278.403243 
L 115.835374 277.876557 
L 116.081002 277.876557 
L 116.081002 277.349871 
L 116.38325 277.349871 
L 116.443076 276.296499 
L 116.739166 276.296499 
L 116.739166 275.769812 
L 117.202696 275.769812 
L 117.202696 275.243126 
L 117.486268 275.243126 
L 117.486268 274.71644 
L 118.148599 274.71644 
L 118.148599 274.189754 
L 118.310324 274.189754 
L 118.310324 273.663068 
L 118.681952 273.663068 
L 118.786692 272.08301 
L 119.045825 272.08301 
L 119.045825 271.556324 
L 119.702083 271.556324 
L 119.702083 271.029638 
L 120.190611 271.029638 
L 120.190611 270.502952 
L 120.618882 270.502952 
L 120.618882 269.976266 
L 123.313873 269.976266 
L 123.313873 269.449579 
L 123.712047 269.449579 
L 123.712047 268.922893 
L 124.406624 268.922893 
L 124.406624 268.396207 
L 124.743806 268.396207 
L 124.743806 267.869521 
L 125.255688 267.869521 
L 125.255688 267.342835 
L 125.399222 267.342835 
L 125.399222 266.816149 
L 125.612332 266.816149 
L 125.612332 266.289463 
L 126.904721 266.289463 
L 126.904721 265.762777 
L 127.165014 265.762777 
L 127.165014 265.236091 
L 127.892415 265.236091 
L 127.892415 264.709405 
L 128.015879 264.709405 
L 128.015879 264.182719 
L 128.620421 264.182719 
L 128.620421 263.656033 
L 129.546106 263.656033 
L 129.546106 263.129347 
L 130.344571 263.129347 
L 130.344571 262.60266 
L 130.478617 262.60266 
L 130.478617 262.075974 
L 130.61164 262.075974 
L 130.61164 261.549288 
L 131.004728 261.549288 
L 131.056477 260.495916 
L 131.210808 260.495916 
L 131.210808 259.96923 
L 131.790072 259.96923 
L 131.790072 259.442544 
L 132.230358 259.442544 
L 132.230358 258.915858 
L 132.636218 258.915858 
L 132.730358 257.3358 
L 132.753813 257.3358 
L 132.823992 256.282427 
L 132.870621 256.282427 
L 132.893889 255.229055 
L 133.33018 255.229055 
L 133.33018 254.702369 
L 133.689303 254.702369 
L 133.77794 253.648997 
L 133.888106 253.648997 
L 133.931979 252.068939 
L 134.019394 252.068939 
L 134.019394 251.542253 
L 134.149701 251.542253 
L 134.171324 250.488881 
L 134.492498 250.488881 
L 134.492498 249.962195 
L 134.661403 249.962195 
L 134.661403 249.435508 
L 134.787017 249.435508 
L 134.870259 247.85545 
L 134.911732 247.85545 
L 134.994383 246.275392 
L 135.097149 246.275392 
L 135.138086 245.22202 
L 135.321124 245.22202 
L 135.381712 244.168648 
L 135.50226 244.168648 
L 135.50226 243.115275 
L 135.839358 243.115275 
L 135.917737 241.535217 
L 135.956794 241.535217 
L 136.054058 239.428473 
L 136.073445 239.428473 
L 136.073445 238.901787 
L 136.227776 238.901787 
L 136.227776 238.375101 
L 136.342635 238.375101 
L 136.437776 236.795043 
L 136.456742 236.795043 
L 136.456742 236.268356 
L 136.68274 236.268356 
L 136.701442 235.214984 
L 136.86886 235.214984 
L 136.979586 233.10824 
L 137.107884 233.10824 
L 137.198951 231.528182 
L 137.271464 231.528182 
L 137.37967 229.948123 
L 137.594091 229.948123 
L 137.594091 227.841379 
L 137.823442 227.841379 
L 137.858461 226.788007 
L 137.945701 226.788007 
L 137.945701 226.261321 
L 138.136107 226.261321 
L 138.239095 224.154577 
L 138.324456 224.154577 
L 138.409402 220.467774 
L 138.493936 220.467774 
L 138.578062 217.307658 
L 138.628343 217.307658 
L 138.67848 216.254285 
L 138.811478 216.254285 
L 138.910565 214.674227 
L 139.009092 214.674227 
L 139.041811 213.094169 
L 139.139602 213.094169 
L 139.139602 212.567483 
L 139.253002 212.567483 
L 139.349619 210.987425 
L 139.429726 210.987425 
L 139.525372 207.827308 
L 139.620495 207.827308 
L 139.715103 203.613819 
L 139.8092 203.613819 
L 139.918342 202.033761 
L 139.980403 202.033761 
L 140.088482 197.293586 
L 140.134598 197.293586 
L 140.226464 194.660156 
L 140.272217 194.660156 
L 140.348205 191.50004 
L 140.408758 191.50004 
L 140.499195 187.813237 
L 140.544239 187.813237 
L 140.544239 187.286551 
L 140.678675 187.286551 
L 140.738093 185.706493 
L 140.812083 185.706493 
L 140.900458 182.546376 
L 140.929817 182.546376 
L 141.032186 179.38626 
L 141.090414 179.38626 
L 141.162927 174.119399 
L 141.220721 174.119399 
L 141.321401 168.325852 
L 141.364373 168.325852 
L 141.46423 166.219108 
L 141.492656 166.219108 
L 141.591783 163.058991 
L 141.605898 163.058991 
L 141.704386 160.425561 
L 141.746425 160.425561 
L 141.844124 157.265444 
L 141.858037 157.265444 
L 141.913576 154.105328 
L 141.996555 154.105328 
L 142.106582 149.891839 
L 142.120287 149.891839 
L 142.229539 146.731723 
L 142.256745 146.731723 
L 142.351634 139.884804 
L 142.392144 139.884804 
L 142.499711 136.724687 
L 142.51311 136.724687 
L 142.619936 129.877768 
L 142.659828 129.877768 
L 142.752555 126.717652 
L 142.778958 126.717652 
L 142.871056 122.504163 
L 142.89728 122.504163 
L 143.001786 117.763988 
L 143.027814 117.763988 
L 143.11861 112.497128 
L 143.221802 112.497128 
L 143.311596 107.756953 
L 143.375453 107.756953 
L 143.464461 103.543464 
L 143.527762 103.543464 
L 143.565632 101.963406 
L 143.653678 101.963406 
L 143.691276 97.223231 
L 143.86567 97.223231 
L 143.902815 95.116487 
L 144.013775 95.116487 
L 144.124035 91.95637 
L 144.136243 91.95637 
L 144.245733 90.376312 
L 144.282077 90.376312 
L 144.366588 88.796254 
L 144.414696 88.796254 
L 144.486611 87.742882 
L 144.582038 87.742882 
L 144.688773 85.636137 
L 144.724207 85.636137 
L 144.818346 81.949335 
L 144.923649 81.949335 
L 144.923649 81.422649 
L 145.143889 81.422649 
L 145.212864 79.315904 
L 145.281568 79.315904 
L 145.315819 77.735846 
L 145.531191 77.735846 
L 145.632289 74.57573 
L 145.732804 74.57573 
L 145.743936 73.522358 
L 145.854874 73.522358 
L 145.96511 70.888927 
L 145.987073 70.888927 
L 146.074653 66.675439 
L 146.205204 66.675439 
L 146.291697 65.09538 
L 146.324022 65.09538 
L 146.345539 63.515322 
L 146.927079 63.515322 
L 146.927079 62.46195 
L 167.867253 62.46195 
L 167.867253 61.935264 
L 168.112771 61.935264 
L 168.112771 61.408578 
L 168.436863 61.408578 
L 168.436863 60.881892 
L 168.611679 60.881892 
L 168.611679 60.355206 
L 169.05875 60.355206 
L 169.05875 59.82852 
L 169.172381 59.82852 
L 169.172381 59.301833 
L 169.423227 59.301833 
L 169.474679 57.721775 
L 169.61964 57.721775 
L 169.715615 55.088345 
L 169.73531 55.088345 
L 169.75779 54.034973 
L 169.903212 54.034973 
L 169.983788 50.874856 
L 170.033615 50.874856 
L 170.105336 48.241426 
L 170.184987 48.241426 
L 170.184987 47.188054 
L 171.803727 47.188054 
L 171.858583 46.134681 
L 172.012256 46.134681 
L 172.078757 45.081309 
L 172.130306 45.081309 
L 172.130306 44.554623 
L 172.269459 44.554623 
L 172.361615 41.921193 
L 172.388202 41.921193 
L 172.467718 40.341135 
L 172.542086 40.341135 
L 172.618521 34.547588 
L 172.689877 34.547588 
L 172.739653 30.334099 
L 338.688 30.334099 
L 338.688 30.334099 
" style="fill:none;stroke:#ff0000;stroke-linecap:square;stroke-width:1.5;"/>
   </g>
   <g id="line2d_48">
    <defs>
     <path d="M 0 -6 
L -5.196152 -3 
L -5.196152 3 
L -0 6 
L 5.196152 3 
L 5.196152 -3 
z
" id="mcef707c32b" style="stroke:#ff0000;stroke-linejoin:miter;stroke-width:1.5;"/>
    </defs>
    <g>
     <use style="fill-opacity:0;stroke:#ff0000;stroke-linejoin:miter;stroke-width:1.5;" x="141.292695" xlink:href="#mcef707c32b" y="171.485969"/>
     <use style="fill-opacity:0;stroke:#ff0000;stroke-linejoin:miter;stroke-width:1.5;" x="169.690261" xlink:href="#mcef707c32b" y="56.668403"/>
     <use style="fill-opacity:0;stroke:#ff0000;stroke-linejoin:miter;stroke-width:1.5;" x="172.739653" xlink:href="#mcef707c32b" y="30.334099"/>
     <use style="fill-opacity:0;stroke:#ff0000;stroke-linejoin:miter;stroke-width:1.5;" x="172.739653" xlink:href="#mcef707c32b" y="30.334099"/>
     <use style="fill-opacity:0;stroke:#ff0000;stroke-linejoin:miter;stroke-width:1.5;" x="338.688" xlink:href="#mcef707c32b" y="30.334099"/>
    </g>
   </g>
   <g id="line2d_49">
    <path style="fill:none;stroke:#ff0000;stroke-linecap:square;stroke-width:1.5;"/>
    <g/>
   </g>
   <g id="line2d_50">
    <path clip-path="url(#p29bb14fd44)" d="M 57.6 298.944 
L 57.6 298.944 
L 57.6 298.944 
L 57.6 298.944 
L 338.688 298.944 
" style="fill:none;stroke:#bebebe;stroke-linecap:square;stroke-width:1.5;"/>
   </g>
   <g id="line2d_51">
    <defs>
     <path d="M 0 0 
L -6 -0 
M 0 0 
L 3 4.8 
M 0 0 
L 3 -4.8 
" id="m59f10aa6bd" style="stroke:#bebebe;stroke-width:1.5;"/>
    </defs>
    <g clip-path="url(#p29bb14fd44)">
     <use style="fill-opacity:0;stroke:#bebebe;stroke-width:1.5;" x="57.6" xlink:href="#m59f10aa6bd" y="298.944"/>
    </g>
   </g>
   <g id="line2d_52">
    <path clip-path="url(#p29bb14fd44)" style="fill:none;stroke:#bebebe;stroke-linecap:square;stroke-width:1.5;"/>
    <g clip-path="url(#p29bb14fd44)">
     <use style="fill-opacity:0;stroke:#bebebe;stroke-width:1.5;" x="-1" xlink:href="#m59f10aa6bd" y="567.553901"/>
     <use style="fill-opacity:0;stroke:#bebebe;stroke-width:1.5;" x="338.688" xlink:href="#m59f10aa6bd" y="567.553901"/>
    </g>
   </g>
   <g id="line2d_53">
    <defs>
     <path d="M 0 1.5 
C 0.397805 1.5 0.77937 1.341951 1.06066 1.06066 
C 1.341951 0.77937 1.5 0.397805 1.5 0 
C 1.5 -0.397805 1.341951 -0.77937 1.06066 -1.06066 
C 0.77937 -1.341951 0.397805 -1.5 0 -1.5 
C -0.397805 -1.5 -0.77937 -1.341951 -1.06066 -1.06066 
C -1.341951 -0.77937 -1.5 -0.397805 -1.5 0 
C -1.5 0.397805 -1.341951 0.77937 -1.06066 1.06066 
C -0.77937 1.341951 -0.397805 1.5 0 1.5 
z
" id="mcbcd3dc295" style="stroke:#6495ed;"/>
    </defs>
    <g>
     <use style="fill:#6495ed;stroke:#6495ed;" x="150.716332" xlink:href="#mcbcd3dc295" y="30.334099"/>
     <use style="fill:#6495ed;stroke:#6495ed;" x="150.716332" xlink:href="#mcbcd3dc295" y="30.334099"/>
    </g>
   </g>
   <g id="line2d_54">
    <path d="M 106.382575 298.944 
L 106.382575 298.417314 
L 107.712901 298.417314 
L 107.811151 297.363942 
L 108.856871 297.363942 
L 108.856871 296.31057 
L 109.930396 296.31057 
L 110.016944 295.257197 
L 110.103064 295.257197 
L 110.188761 292.623767 
L 111.104637 292.623767 
L 111.185562 288.936964 
L 111.266113 288.936964 
L 111.266113 288.410278 
L 112.051799 288.410278 
L 112.051799 285.776848 
L 112.803609 285.776848 
L 112.803609 285.250162 
L 112.950158 285.250162 
L 112.950158 283.670104 
L 113.804498 283.670104 
L 113.804498 282.616732 
L 114.485807 282.616732 
L 114.485807 282.090045 
L 114.618932 282.090045 
L 114.618932 281.036673 
L 115.397021 281.036673 
L 115.397021 279.456615 
L 116.141872 279.456615 
L 116.141872 278.403243 
L 117.145424 278.403243 
L 117.145424 277.876557 
L 118.256582 277.876557 
L 118.256582 276.823185 
L 118.576578 276.823185 
L 118.576578 276.296499 
L 118.890808 276.296499 
L 118.942633 275.243126 
L 119.148409 275.243126 
L 119.199476 274.189754 
L 119.552816 274.189754 
L 119.552816 273.136382 
L 119.80089 273.136382 
L 119.80089 272.609696 
L 120.045484 272.609696 
L 120.045484 272.08301 
L 120.944859 272.08301 
L 120.944859 271.556324 
L 121.174025 271.556324 
L 121.174025 271.029638 
L 121.489881 271.029638 
L 121.489881 270.502952 
L 122.233953 270.502952 
L 122.233953 269.976266 
L 122.740699 269.976266 
L 122.740699 268.922893 
L 123.233135 268.922893 
L 123.313873 267.342835 
L 123.712047 267.342835 
L 123.712047 265.762777 
L 123.829748 265.762777 
L 123.907776 264.709405 
L 124.178158 264.709405 
L 124.178158 262.60266 
L 124.482119 262.60266 
L 124.482119 262.075974 
L 124.632135 262.075974 
L 124.669438 261.022602 
L 124.743806 261.022602 
L 124.743806 260.495916 
L 125.074593 260.495916 
L 125.074593 259.96923 
L 125.291682 259.96923 
L 125.363449 257.862486 
L 125.506102 257.862486 
L 125.612332 256.282427 
L 125.961828 256.282427 
L 125.961828 255.755741 
L 126.168212 255.755741 
L 126.168212 255.229055 
L 126.372183 255.229055 
L 126.372183 254.702369 
L 126.540355 254.702369 
L 126.573795 253.648997 
L 126.673734 253.648997 
L 126.673734 253.122311 
L 127.165014 253.122311 
L 127.165014 252.595625 
L 127.453273 252.595625 
L 127.453273 252.068939 
L 128.138476 252.068939 
L 128.138476 251.542253 
L 128.501178 251.542253 
L 128.501178 251.015567 
L 128.650105 251.015567 
L 128.650105 250.488881 
L 128.797771 250.488881 
L 128.797771 249.962195 
L 128.91501 249.962195 
L 129.002426 248.382136 
L 129.233413 248.382136 
L 129.233413 247.85545 
L 129.347769 247.85545 
L 129.347769 247.328764 
L 129.686407 247.328764 
L 129.686407 246.802078 
L 129.79784 246.802078 
L 129.79784 246.275392 
L 130.018593 246.275392 
L 130.018593 244.695334 
L 130.344571 244.695334 
L 130.344571 243.641962 
L 130.478617 243.641962 
L 130.558552 242.061903 
L 130.664567 242.061903 
L 130.664567 241.535217 
L 130.874681 241.535217 
L 130.978796 239.428473 
L 131.159516 239.428473 
L 131.185181 238.375101 
L 131.287464 238.375101 
L 131.287464 236.268356 
L 131.490249 236.268356 
L 131.490249 235.214984 
L 131.665771 235.214984 
L 131.765283 233.634926 
L 131.790072 233.634926 
L 131.790072 233.10824 
L 131.913493 233.10824 
L 131.987128 232.054868 
L 132.084827 232.054868 
L 132.084827 231.528182 
L 132.230358 231.528182 
L 132.230358 231.001496 
L 132.374684 231.001496 
L 132.374684 228.368065 
L 132.494049 228.368065 
L 132.494049 227.841379 
L 132.659801 227.841379 
L 132.659801 225.207949 
L 132.847322 225.207949 
L 132.940331 220.467774 
L 133.216421 220.467774 
L 133.216421 218.887716 
L 133.622529 218.887716 
L 133.711505 217.834344 
L 133.975741 217.834344 
L 133.975741 217.307658 
L 134.214491 217.307658 
L 134.214491 216.780971 
L 134.428735 216.780971 
L 134.513701 215.727599 
L 134.577155 215.727599 
L 134.661403 214.674227 
L 134.973757 214.674227 
L 134.973757 214.147541 
L 135.178927 214.147541 
L 135.178927 213.620855 
L 135.482227 213.620855 
L 135.562224 212.040797 
L 135.621981 212.040797 
L 135.721125 210.460738 
L 135.760625 210.460738 
L 135.819708 209.407366 
L 135.956794 209.407366 
L 135.995765 208.353994 
L 136.189322 208.353994 
L 136.189322 207.827308 
L 136.418789 207.827308 
L 136.456742 206.773936 
L 136.551264 206.773936 
L 136.645276 204.667192 
L 136.68274 204.667192 
L 136.738785 202.560447 
L 136.905847 202.560447 
L 136.997972 200.980389 
L 137.071324 200.980389 
L 137.180776 197.820273 
L 137.307607 197.820273 
L 137.39764 194.660156 
L 137.52291 194.660156 
L 137.61184 189.919981 
L 137.664982 189.919981 
L 137.735587 186.759865 
L 137.788353 186.759865 
L 137.875944 184.126434 
L 137.945701 184.126434 
L 137.997836 180.439632 
L 138.101642 180.439632 
L 138.204833 176.752829 
L 138.256201 176.752829 
L 138.358484 174.646085 
L 138.426341 174.646085 
L 138.510793 172.012655 
L 138.561269 172.012655 
L 138.661784 169.90591 
L 138.711825 169.90591 
L 138.811478 167.799166 
L 138.861092 167.799166 
L 138.959898 160.952247 
L 139.058148 160.952247 
L 139.155847 155.685386 
L 139.204493 155.685386 
L 139.301378 152.52527 
L 139.349619 152.52527 
L 139.429726 150.945211 
L 139.493548 150.945211 
L 139.588845 147.258409 
L 139.715103 147.258409 
L 139.793552 145.678351 
L 139.87165 145.678351 
L 139.980403 142.518234 
L 139.995884 142.518234 
L 140.057671 140.41149 
L 140.165274 140.41149 
L 140.241728 137.778059 
L 140.348205 137.778059 
L 140.423864 135.144629 
L 140.529237 135.144629 
L 140.604116 130.93114 
L 140.708409 130.93114 
L 140.767727 128.29771 
L 140.88576 128.29771 
L 140.88576 127.771024 
L 141.075875 127.771024 
L 141.090414 125.66428 
L 141.249546 125.66428 
L 141.249546 125.137593 
L 141.421504 125.137593 
L 141.478449 120.924105 
L 141.591783 120.924105 
L 141.648175 119.344047 
L 141.774395 119.344047 
L 141.774395 118.817361 
L 142.106582 118.817361 
L 142.161336 117.763988 
L 142.270332 117.763988 
L 142.33811 116.18393 
L 142.499711 116.18393 
L 142.526499 115.130558 
L 142.659828 115.130558 
L 142.659828 114.603872 
L 142.818488 114.603872 
L 142.844792 113.5505 
L 142.988757 113.5505 
L 143.079756 111.970441 
L 143.131543 111.970441 
L 143.131543 111.443755 
L 143.298796 111.443755 
L 143.324386 110.390383 
L 143.451774 110.390383 
L 143.540394 107.756953 
L 143.60342 107.756953 
L 143.60342 106.703581 
L 143.75376 106.703581 
L 143.853271 103.543464 
L 143.86567 103.543464 
L 143.902815 100.910034 
L 144.050606 100.910034 
L 144.160633 99.329976 
L 144.245733 99.329976 
L 144.306265 97.749917 
L 144.390658 97.749917 
L 144.45069 94.589801 
L 144.522457 94.589801 
L 144.59393 91.429684 
L 144.665111 91.429684 
L 144.736002 89.32294 
L 144.806606 89.32294 
L 144.876926 85.109451 
L 144.946964 85.109451 
L 145.016721 79.842591 
L 145.0862 79.842591 
L 145.155404 75.629102 
L 145.224334 75.629102 
L 145.224334 72.995672 
L 145.361382 72.995672 
L 145.361382 71.942299 
L 145.497361 71.942299 
L 145.497361 68.255497 
L 145.632289 68.255497 
L 145.632289 65.09538 
L 145.76618 65.09538 
L 145.76618 63.515322 
L 146.399215 63.515322 
L 146.399215 62.988636 
L 146.665144 62.988636 
L 146.665144 62.46195 
L 146.791364 62.46195 
L 146.791364 61.935264 
L 146.989362 61.935264 
L 147.051423 60.881892 
L 147.429332 60.881892 
L 147.429332 60.355206 
L 147.550159 60.355206 
L 147.620256 59.301833 
L 147.907696 59.301833 
L 147.907696 58.775147 
L 148.025265 58.775147 
L 148.025265 58.248461 
L 148.142046 58.248461 
L 148.142046 57.195089 
L 148.258051 57.195089 
L 148.334961 55.615031 
L 148.373289 55.615031 
L 148.373289 52.454914 
L 148.48777 52.454914 
L 148.563676 50.34817 
L 148.601505 50.34817 
L 148.601505 47.188054 
L 148.714503 47.188054 
L 148.714503 46.134681 
L 148.826773 46.134681 
L 148.826773 44.554623 
L 149.341352 44.554623 
L 149.341352 44.027937 
L 149.458667 44.027937 
L 149.458667 43.501251 
L 149.673197 43.501251 
L 149.779481 42.447879 
L 149.88512 42.447879 
L 149.990124 40.867821 
L 150.198253 40.867821 
L 150.301393 39.287762 
L 150.309961 39.287762 
L 150.412445 35.60096 
L 150.51433 35.60096 
L 150.615623 30.860785 
L 150.716332 30.860785 
L 150.716332 30.334099 
L 338.688 30.334099 
L 338.688 30.334099 
" style="fill:none;stroke:#6495ed;stroke-linecap:square;stroke-width:1.5;"/>
   </g>
   <g id="line2d_55">
    <defs>
     <path d="M -0 6 
L 6 -6 
L -6 -6 
z
" id="mb78fe612ef" style="stroke:#6495ed;stroke-linejoin:miter;stroke-width:1.5;"/>
    </defs>
    <g>
     <use style="fill-opacity:0;stroke:#6495ed;stroke-linejoin:miter;stroke-width:1.5;" x="132.917126" xlink:href="#mb78fe612ef" y="223.101204"/>
     <use style="fill-opacity:0;stroke:#6495ed;stroke-linejoin:miter;stroke-width:1.5;" x="146.665144" xlink:href="#mb78fe612ef" y="62.46195"/>
     <use style="fill-opacity:0;stroke:#6495ed;stroke-linejoin:miter;stroke-width:1.5;" x="150.716332" xlink:href="#mb78fe612ef" y="30.334099"/>
     <use style="fill-opacity:0;stroke:#6495ed;stroke-linejoin:miter;stroke-width:1.5;" x="150.716332" xlink:href="#mb78fe612ef" y="30.334099"/>
     <use style="fill-opacity:0;stroke:#6495ed;stroke-linejoin:miter;stroke-width:1.5;" x="338.688" xlink:href="#mb78fe612ef" y="30.334099"/>
    </g>
   </g>
   <g id="line2d_56">
    <path style="fill:none;stroke:#6495ed;stroke-linecap:square;stroke-width:1.5;"/>
    <g/>
   </g>
   <g id="line2d_57">
    <path d="M 338.688 298.944 
L 369.60768 293.571802 
" style="fill:none;stroke:#bebebe;stroke-linecap:square;stroke-width:1.5;"/>
    <g>
     <use style="fill-opacity:0;stroke:#bebebe;stroke-width:1.5;" x="338.688" xlink:href="#m59f10aa6bd" y="298.944"/>
     <use style="fill-opacity:0;stroke:#bebebe;stroke-width:1.5;" x="369.60768" xlink:href="#m59f10aa6bd" y="293.571802"/>
    </g>
   </g>
   <g id="line2d_58">
    <path d="M 338.688 30.334099 
L 369.60768 229.105426 
" style="fill:none;stroke:#ff0000;stroke-linecap:square;stroke-width:1.5;"/>
    <g>
     <use style="fill-opacity:0;stroke:#ff0000;stroke-linejoin:miter;stroke-width:1.5;" x="338.688" xlink:href="#mcef707c32b" y="30.334099"/>
     <use style="fill-opacity:0;stroke:#ff0000;stroke-linejoin:miter;stroke-width:1.5;" x="369.60768" xlink:href="#mcef707c32b" y="229.105426"/>
    </g>
   </g>
   <g id="line2d_59">
    <path d="M 338.688 30.334099 
L 369.60768 164.63905 
" style="fill:none;stroke:#000080;stroke-linecap:square;stroke-width:1.5;"/>
    <g>
     <use style="fill-opacity:0;stroke:#000080;stroke-width:1.5;" x="338.688" xlink:href="#m289190771e" y="30.334099"/>
     <use style="fill-opacity:0;stroke:#000080;stroke-width:1.5;" x="369.60768" xlink:href="#m289190771e" y="164.63905"/>
    </g>
   </g>
   <g id="line2d_60">
    <path d="M 338.688 30.334099 
L 369.60768 100.172673 
" style="fill:none;stroke:#6495ed;stroke-linecap:square;stroke-width:1.5;"/>
    <g>
     <use style="fill-opacity:0;stroke:#6495ed;stroke-linejoin:miter;stroke-width:1.5;" x="338.688" xlink:href="#mb78fe612ef" y="30.334099"/>
     <use style="fill-opacity:0;stroke:#6495ed;stroke-linejoin:miter;stroke-width:1.5;" x="369.60768" xlink:href="#mb78fe612ef" y="100.172673"/>
    </g>
   </g>
   <g id="line2d_61">
    <path d="M 338.688 298.944 
L 338.688 30.334099 
" style="fill:none;stroke:#000000;stroke-linecap:square;stroke-width:1.5;"/>
   </g>
   <g id="patch_3">
    <path d="M 57.6 298.944 
L 57.6 27.648 
" style="fill:none;stroke:#000000;stroke-linecap:square;stroke-linejoin:miter;stroke-width:0.8;"/>
   </g>
   <g id="patch_4">
    <path d="M 338.688 298.944 
L 338.688 27.648 
" style="fill:none;stroke:#000000;stroke-linecap:square;stroke-linejoin:miter;stroke-width:0.8;"/>
   </g>
   <g id="patch_5">
    <path d="M 57.6 298.944 
L 338.688 298.944 
" style="fill:none;stroke:#000000;stroke-linecap:square;stroke-linejoin:miter;stroke-width:0.8;"/>
   </g>
   <g id="patch_6">
    <path d="M 57.6 27.648 
L 338.688 27.648 
" style="fill:none;stroke:#000000;stroke-linecap:square;stroke-linejoin:miter;stroke-width:0.8;"/>
   </g>
   <g id="text_13">
    <!-- RANDOMSEA -->
    <defs>
     <path d="M 44.390625 34.1875 
Q 47.5625 33.109375 50.5625 29.59375 
Q 53.5625 26.078125 56.59375 19.921875 
L 66.609375 0 
L 56 0 
L 46.6875 18.703125 
Q 43.0625 26.03125 39.671875 28.421875 
Q 36.28125 30.8125 30.421875 30.8125 
L 19.671875 30.8125 
L 19.671875 0 
L 9.8125 0 
L 9.8125 72.90625 
L 32.078125 72.90625 
Q 44.578125 72.90625 50.734375 67.671875 
Q 56.890625 62.453125 56.890625 51.90625 
Q 56.890625 45.015625 53.6875 40.46875 
Q 50.484375 35.9375 44.390625 34.1875 
z
M 19.671875 64.796875 
L 19.671875 38.921875 
L 32.078125 38.921875 
Q 39.203125 38.921875 42.84375 42.21875 
Q 46.484375 45.515625 46.484375 51.90625 
Q 46.484375 58.296875 42.84375 61.546875 
Q 39.203125 64.796875 32.078125 64.796875 
z
" id="DejaVuSans-82"/>
     <path d="M 34.1875 63.1875 
L 20.796875 26.90625 
L 47.609375 26.90625 
z
M 28.609375 72.90625 
L 39.796875 72.90625 
L 67.578125 0 
L 57.328125 0 
L 50.6875 18.703125 
L 17.828125 18.703125 
L 11.1875 0 
L 0.78125 0 
z
" id="DejaVuSans-65"/>
     <path d="M 9.8125 72.90625 
L 23.09375 72.90625 
L 55.421875 11.921875 
L 55.421875 72.90625 
L 64.984375 72.90625 
L 64.984375 0 
L 51.703125 0 
L 19.390625 60.984375 
L 19.390625 0 
L 9.8125 0 
z
" id="DejaVuSans-78"/>
     <path d="M 19.671875 64.796875 
L 19.671875 8.109375 
L 31.59375 8.109375 
Q 46.6875 8.109375 53.6875 14.9375 
Q 60.6875 21.78125 60.6875 36.53125 
Q 60.6875 51.171875 53.6875 57.984375 
Q 46.6875 64.796875 31.59375 64.796875 
z
M 9.8125 72.90625 
L 30.078125 72.90625 
Q 51.265625 72.90625 61.171875 64.09375 
Q 71.09375 55.28125 71.09375 36.53125 
Q 71.09375 17.671875 61.125 8.828125 
Q 51.171875 0 30.078125 0 
L 9.8125 0 
z
" id="DejaVuSans-68"/>
     <path d="M 39.40625 66.21875 
Q 28.65625 66.21875 22.328125 58.203125 
Q 16.015625 50.203125 16.015625 36.375 
Q 16.015625 22.609375 22.328125 14.59375 
Q 28.65625 6.59375 39.40625 6.59375 
Q 50.140625 6.59375 56.421875 14.59375 
Q 62.703125 22.609375 62.703125 36.375 
Q 62.703125 50.203125 56.421875 58.203125 
Q 50.140625 66.21875 39.40625 66.21875 
z
M 39.40625 74.21875 
Q 54.734375 74.21875 63.90625 63.9375 
Q 73.09375 53.65625 73.09375 36.375 
Q 73.09375 19.140625 63.90625 8.859375 
Q 54.734375 -1.421875 39.40625 -1.421875 
Q 24.03125 -1.421875 14.8125 8.828125 
Q 5.609375 19.09375 5.609375 36.375 
Q 5.609375 53.65625 14.8125 63.9375 
Q 24.03125 74.21875 39.40625 74.21875 
z
" id="DejaVuSans-79"/>
     <path d="M 9.8125 72.90625 
L 24.515625 72.90625 
L 43.109375 23.296875 
L 61.8125 72.90625 
L 76.515625 72.90625 
L 76.515625 0 
L 66.890625 0 
L 66.890625 64.015625 
L 48.09375 14.015625 
L 38.1875 14.015625 
L 19.390625 64.015625 
L 19.390625 0 
L 9.8125 0 
z
" id="DejaVuSans-77"/>
     <path d="M 53.515625 70.515625 
L 53.515625 60.890625 
Q 47.90625 63.578125 42.921875 64.890625 
Q 37.9375 66.21875 33.296875 66.21875 
Q 25.25 66.21875 20.875 63.09375 
Q 16.5 59.96875 16.5 54.203125 
Q 16.5 49.359375 19.40625 46.890625 
Q 22.3125 44.4375 30.421875 42.921875 
L 36.375 41.703125 
Q 47.40625 39.59375 52.65625 34.296875 
Q 57.90625 29 57.90625 20.125 
Q 57.90625 9.515625 50.796875 4.046875 
Q 43.703125 -1.421875 29.984375 -1.421875 
Q 24.8125 -1.421875 18.96875 -0.25 
Q 13.140625 0.921875 6.890625 3.21875 
L 6.890625 13.375 
Q 12.890625 10.015625 18.65625 8.296875 
Q 24.421875 6.59375 29.984375 6.59375 
Q 38.421875 6.59375 43.015625 9.90625 
Q 47.609375 13.234375 47.609375 19.390625 
Q 47.609375 24.75 44.3125 27.78125 
Q 41.015625 30.8125 33.5 32.328125 
L 27.484375 33.5 
Q 16.453125 35.6875 11.515625 40.375 
Q 6.59375 45.0625 6.59375 53.421875 
Q 6.59375 63.09375 13.40625 68.65625 
Q 20.21875 74.21875 32.171875 74.21875 
Q 37.3125 74.21875 42.625 73.28125 
Q 47.953125 72.359375 53.515625 70.515625 
z
" id="DejaVuSans-83"/>
     <path d="M 9.8125 72.90625 
L 55.90625 72.90625 
L 55.90625 64.59375 
L 19.671875 64.59375 
L 19.671875 43.015625 
L 54.390625 43.015625 
L 54.390625 34.71875 
L 19.671875 34.71875 
L 19.671875 8.296875 
L 56.78125 8.296875 
L 56.78125 0 
L 9.8125 0 
z
" id="DejaVuSans-69"/>
    </defs>
    <g transform="translate(375.22944 298.262739)scale(0.17 -0.17)">
     <use xlink:href="#DejaVuSans-82"/>
     <use x="69.419922" xlink:href="#DejaVuSans-65"/>
     <use x="137.828125" xlink:href="#DejaVuSans-78"/>
     <use x="212.632812" xlink:href="#DejaVuSans-68"/>
     <use x="289.634766" xlink:href="#DejaVuSans-79"/>
     <use x="368.345703" xlink:href="#DejaVuSans-77"/>
     <use x="454.625" xlink:href="#DejaVuSans-83"/>
     <use x="518.101562" xlink:href="#DejaVuSans-69"/>
     <use x="581.285156" xlink:href="#DejaVuSans-65"/>
    </g>
   </g>
   <g id="text_14">
    <!-- lq-CMA-ES -->
    <defs>
     <path d="M 14.796875 27.296875 
Q 14.796875 17.390625 18.875 11.75 
Q 22.953125 6.109375 30.078125 6.109375 
Q 37.203125 6.109375 41.296875 11.75 
Q 45.40625 17.390625 45.40625 27.296875 
Q 45.40625 37.203125 41.296875 42.84375 
Q 37.203125 48.484375 30.078125 48.484375 
Q 22.953125 48.484375 18.875 42.84375 
Q 14.796875 37.203125 14.796875 27.296875 
z
M 45.40625 8.203125 
Q 42.578125 3.328125 38.25 0.953125 
Q 33.9375 -1.421875 27.875 -1.421875 
Q 17.96875 -1.421875 11.734375 6.484375 
Q 5.515625 14.40625 5.515625 27.296875 
Q 5.515625 40.1875 11.734375 48.09375 
Q 17.96875 56 27.875 56 
Q 33.9375 56 38.25 53.625 
Q 42.578125 51.265625 45.40625 46.390625 
L 45.40625 54.6875 
L 54.390625 54.6875 
L 54.390625 -20.796875 
L 45.40625 -20.796875 
z
" id="DejaVuSans-113"/>
     <path d="M 64.40625 67.28125 
L 64.40625 56.890625 
Q 59.421875 61.53125 53.78125 63.8125 
Q 48.140625 66.109375 41.796875 66.109375 
Q 29.296875 66.109375 22.65625 58.46875 
Q 16.015625 50.828125 16.015625 36.375 
Q 16.015625 21.96875 22.65625 14.328125 
Q 29.296875 6.6875 41.796875 6.6875 
Q 48.140625 6.6875 53.78125 8.984375 
Q 59.421875 11.28125 64.40625 15.921875 
L 64.40625 5.609375 
Q 59.234375 2.09375 53.4375 0.328125 
Q 47.65625 -1.421875 41.21875 -1.421875 
Q 24.65625 -1.421875 15.125 8.703125 
Q 5.609375 18.84375 5.609375 36.375 
Q 5.609375 53.953125 15.125 64.078125 
Q 24.65625 74.21875 41.21875 74.21875 
Q 47.75 74.21875 53.53125 72.484375 
Q 59.328125 70.75 64.40625 67.28125 
z
" id="DejaVuSans-67"/>
    </defs>
    <g transform="translate(375.22944 233.796363)scale(0.17 -0.17)">
     <use xlink:href="#DejaVuSans-108"/>
     <use x="27.783203" xlink:href="#DejaVuSans-113"/>
     <use x="91.259766" xlink:href="#DejaVuSans-45"/>
     <use x="127.34375" xlink:href="#DejaVuSans-67"/>
     <use x="197.167969" xlink:href="#DejaVuSans-77"/>
     <use x="283.447266" xlink:href="#DejaVuSans-65"/>
     <use x="351.824219" xlink:href="#DejaVuSans-45"/>
     <use x="387.908203" xlink:href="#DejaVuSans-69"/>
     <use x="451.091797" xlink:href="#DejaVuSans-83"/>
    </g>
   </g>
   <g id="text_15">
    <!-- CMA-ES  2 -->
    <g transform="translate(375.22944 169.329987)scale(0.17 -0.17)">
     <use xlink:href="#DejaVuSans-67"/>
     <use x="69.824219" xlink:href="#DejaVuSans-77"/>
     <use x="156.103516" xlink:href="#DejaVuSans-65"/>
     <use x="224.480469" xlink:href="#DejaVuSans-45"/>
     <use x="260.564453" xlink:href="#DejaVuSans-69"/>
     <use x="323.748047" xlink:href="#DejaVuSans-83"/>
     <use x="387.224609" xlink:href="#DejaVuSans-32"/>
     <use x="419.011719" xlink:href="#DejaVuSans-32"/>
     <use x="450.798828" xlink:href="#DejaVuSans-50"/>
    </g>
   </g>
   <g id="text_16">
    <!-- SLSQP-11  -->
    <defs>
     <path d="M 9.8125 72.90625 
L 19.671875 72.90625 
L 19.671875 8.296875 
L 55.171875 8.296875 
L 55.171875 0 
L 9.8125 0 
z
" id="DejaVuSans-76"/>
     <path d="M 39.40625 66.21875 
Q 28.65625 66.21875 22.328125 58.203125 
Q 16.015625 50.203125 16.015625 36.375 
Q 16.015625 22.609375 22.328125 14.59375 
Q 28.65625 6.59375 39.40625 6.59375 
Q 50.140625 6.59375 56.421875 14.59375 
Q 62.703125 22.609375 62.703125 36.375 
Q 62.703125 50.203125 56.421875 58.203125 
Q 50.140625 66.21875 39.40625 66.21875 
z
M 53.21875 1.3125 
L 66.21875 -12.890625 
L 54.296875 -12.890625 
L 43.5 -1.21875 
Q 41.890625 -1.3125 41.03125 -1.359375 
Q 40.1875 -1.421875 39.40625 -1.421875 
Q 24.03125 -1.421875 14.8125 8.859375 
Q 5.609375 19.140625 5.609375 36.375 
Q 5.609375 53.65625 14.8125 63.9375 
Q 24.03125 74.21875 39.40625 74.21875 
Q 54.734375 74.21875 63.90625 63.9375 
Q 73.09375 53.65625 73.09375 36.375 
Q 73.09375 23.6875 67.984375 14.640625 
Q 62.890625 5.609375 53.21875 1.3125 
z
" id="DejaVuSans-81"/>
     <path d="M 19.671875 64.796875 
L 19.671875 37.40625 
L 32.078125 37.40625 
Q 38.96875 37.40625 42.71875 40.96875 
Q 46.484375 44.53125 46.484375 51.125 
Q 46.484375 57.671875 42.71875 61.234375 
Q 38.96875 64.796875 32.078125 64.796875 
z
M 9.8125 72.90625 
L 32.078125 72.90625 
Q 44.34375 72.90625 50.609375 67.359375 
Q 56.890625 61.8125 56.890625 51.125 
Q 56.890625 40.328125 50.609375 34.8125 
Q 44.34375 29.296875 32.078125 29.296875 
L 19.671875 29.296875 
L 19.671875 0 
L 9.8125 0 
z
" id="DejaVuSans-80"/>
    </defs>
    <g transform="translate(375.22944 104.863611)scale(0.17 -0.17)">
     <use xlink:href="#DejaVuSans-83"/>
     <use x="63.476562" xlink:href="#DejaVuSans-76"/>
     <use x="119.189453" xlink:href="#DejaVuSans-83"/>
     <use x="182.666016" xlink:href="#DejaVuSans-81"/>
     <use x="261.376953" xlink:href="#DejaVuSans-80"/>
     <use x="321.648438" xlink:href="#DejaVuSans-45"/>
     <use x="357.732422" xlink:href="#DejaVuSans-49"/>
     <use x="421.355469" xlink:href="#DejaVuSans-49"/>
     <use x="484.978516" xlink:href="#DejaVuSans-32"/>
    </g>
   </g>
   <g id="text_17">
    <!-- best 2009 -->
    <defs>
     <path d="M 48.6875 27.296875 
Q 48.6875 37.203125 44.609375 42.84375 
Q 40.53125 48.484375 33.40625 48.484375 
Q 26.265625 48.484375 22.1875 42.84375 
Q 18.109375 37.203125 18.109375 27.296875 
Q 18.109375 17.390625 22.1875 11.75 
Q 26.265625 6.109375 33.40625 6.109375 
Q 40.53125 6.109375 44.609375 11.75 
Q 48.6875 17.390625 48.6875 27.296875 
z
M 18.109375 46.390625 
Q 20.953125 51.265625 25.265625 53.625 
Q 29.59375 56 35.59375 56 
Q 45.5625 56 51.78125 48.09375 
Q 58.015625 40.1875 58.015625 27.296875 
Q 58.015625 14.40625 51.78125 6.484375 
Q 45.5625 -1.421875 35.59375 -1.421875 
Q 29.59375 -1.421875 25.265625 0.953125 
Q 20.953125 3.328125 18.109375 8.203125 
L 18.109375 0 
L 9.078125 0 
L 9.078125 75.984375 
L 18.109375 75.984375 
z
" id="DejaVuSans-98"/>
     <path d="M 10.984375 1.515625 
L 10.984375 10.5 
Q 14.703125 8.734375 18.5 7.8125 
Q 22.3125 6.890625 25.984375 6.890625 
Q 35.75 6.890625 40.890625 13.453125 
Q 46.046875 20.015625 46.78125 33.40625 
Q 43.953125 29.203125 39.59375 26.953125 
Q 35.25 24.703125 29.984375 24.703125 
Q 19.046875 24.703125 12.671875 31.3125 
Q 6.296875 37.9375 6.296875 49.421875 
Q 6.296875 60.640625 12.9375 67.421875 
Q 19.578125 74.21875 30.609375 74.21875 
Q 43.265625 74.21875 49.921875 64.515625 
Q 56.59375 54.828125 56.59375 36.375 
Q 56.59375 19.140625 48.40625 8.859375 
Q 40.234375 -1.421875 26.421875 -1.421875 
Q 22.703125 -1.421875 18.890625 -0.6875 
Q 15.09375 0.046875 10.984375 1.515625 
z
M 30.609375 32.421875 
Q 37.25 32.421875 41.125 36.953125 
Q 45.015625 41.5 45.015625 49.421875 
Q 45.015625 57.28125 41.125 61.84375 
Q 37.25 66.40625 30.609375 66.40625 
Q 23.96875 66.40625 20.09375 61.84375 
Q 16.21875 57.28125 16.21875 49.421875 
Q 16.21875 41.5 20.09375 36.953125 
Q 23.96875 32.421875 30.609375 32.421875 
z
" id="DejaVuSans-57"/>
    </defs>
    <g transform="translate(375.22944 40.397235)scale(0.17 -0.17)">
     <use xlink:href="#DejaVuSans-98"/>
     <use x="63.476562" xlink:href="#DejaVuSans-101"/>
     <use x="125" xlink:href="#DejaVuSans-115"/>
     <use x="177.099609" xlink:href="#DejaVuSans-116"/>
     <use x="216.308594" xlink:href="#DejaVuSans-32"/>
     <use x="248.095703" xlink:href="#DejaVuSans-50"/>
     <use x="311.71875" xlink:href="#DejaVuSans-48"/>
     <use x="375.341797" xlink:href="#DejaVuSans-48"/>
     <use x="438.964844" xlink:href="#DejaVuSans-57"/>
    </g>
   </g>
   <g id="text_18">
    <!-- bbob f8, 10-D -->
    <g transform="translate(60.41088 38.111366)scale(0.102 -0.102)">
     <use xlink:href="#DejaVuSans-98"/>
     <use x="63.476562" xlink:href="#DejaVuSans-98"/>
     <use x="126.953125" xlink:href="#DejaVuSans-111"/>
     <use x="188.134766" xlink:href="#DejaVuSans-98"/>
     <use x="251.611328" xlink:href="#DejaVuSans-32"/>
     <use x="283.398438" xlink:href="#DejaVuSans-102"/>
     <use x="318.603516" xlink:href="#DejaVuSans-56"/>
     <use x="382.226562" xlink:href="#DejaVuSans-44"/>
     <use x="414.013672" xlink:href="#DejaVuSans-32"/>
     <use x="445.800781" xlink:href="#DejaVuSans-49"/>
     <use x="509.423828" xlink:href="#DejaVuSans-48"/>
     <use x="573.046875" xlink:href="#DejaVuSans-45"/>
     <use x="609.130859" xlink:href="#DejaVuSans-68"/>
    </g>
    <!-- 51 targets: 100..1e-08 -->
    <defs>
     <path d="M 10.796875 72.90625 
L 49.515625 72.90625 
L 49.515625 64.59375 
L 19.828125 64.59375 
L 19.828125 46.734375 
Q 21.96875 47.46875 24.109375 47.828125 
Q 26.265625 48.1875 28.421875 48.1875 
Q 40.625 48.1875 47.75 41.5 
Q 54.890625 34.8125 54.890625 23.390625 
Q 54.890625 11.625 47.5625 5.09375 
Q 40.234375 -1.421875 26.90625 -1.421875 
Q 22.3125 -1.421875 17.546875 -0.640625 
Q 12.796875 0.140625 7.71875 1.703125 
L 7.71875 11.625 
Q 12.109375 9.234375 16.796875 8.0625 
Q 21.484375 6.890625 26.703125 6.890625 
Q 35.15625 6.890625 40.078125 11.328125 
Q 45.015625 15.765625 45.015625 23.390625 
Q 45.015625 31 40.078125 35.4375 
Q 35.15625 39.890625 26.703125 39.890625 
Q 22.75 39.890625 18.8125 39.015625 
Q 14.890625 38.140625 10.796875 36.28125 
z
" id="DejaVuSans-53"/>
     <path d="M 11.71875 12.40625 
L 22.015625 12.40625 
L 22.015625 0 
L 11.71875 0 
z
M 11.71875 51.703125 
L 22.015625 51.703125 
L 22.015625 39.3125 
L 11.71875 39.3125 
z
" id="DejaVuSans-58"/>
    </defs>
    <g transform="translate(60.41088 49.533135)scale(0.102 -0.102)">
     <use xlink:href="#DejaVuSans-53"/>
     <use x="63.623047" xlink:href="#DejaVuSans-49"/>
     <use x="127.246094" xlink:href="#DejaVuSans-32"/>
     <use x="159.033203" xlink:href="#DejaVuSans-116"/>
     <use x="198.242188" xlink:href="#DejaVuSans-97"/>
     <use x="259.521484" xlink:href="#DejaVuSans-114"/>
     <use x="300.619141" xlink:href="#DejaVuSans-103"/>
     <use x="364.095703" xlink:href="#DejaVuSans-101"/>
     <use x="425.619141" xlink:href="#DejaVuSans-116"/>
     <use x="464.828125" xlink:href="#DejaVuSans-115"/>
     <use x="516.927734" xlink:href="#DejaVuSans-58"/>
     <use x="550.619141" xlink:href="#DejaVuSans-32"/>
     <use x="582.40625" xlink:href="#DejaVuSans-49"/>
     <use x="646.029297" xlink:href="#DejaVuSans-48"/>
     <use x="709.652344" xlink:href="#DejaVuSans-48"/>
     <use x="773.275391" xlink:href="#DejaVuSans-46"/>
     <use x="805.0625" xlink:href="#DejaVuSans-46"/>
     <use x="836.849609" xlink:href="#DejaVuSans-49"/>
     <use x="900.472656" xlink:href="#DejaVuSans-101"/>
     <use x="961.996094" xlink:href="#DejaVuSans-45"/>
     <use x="998.080078" xlink:href="#DejaVuSans-48"/>
     <use x="1061.703125" xlink:href="#DejaVuSans-56"/>
    </g>
    <!-- 15 instances -->
    <g transform="translate(60.41088 60.954904)scale(0.102 -0.102)">
     <use xlink:href="#DejaVuSans-49"/>
     <use x="63.623047" xlink:href="#DejaVuSans-53"/>
     <use x="127.246094" xlink:href="#DejaVuSans-32"/>
     <use x="159.033203" xlink:href="#DejaVuSans-105"/>
     <use x="186.816406" xlink:href="#DejaVuSans-110"/>
     <use x="250.195312" xlink:href="#DejaVuSans-115"/>
     <use x="302.294922" xlink:href="#DejaVuSans-116"/>
     <use x="341.503906" xlink:href="#DejaVuSans-97"/>
     <use x="402.783203" xlink:href="#DejaVuSans-110"/>
     <use x="466.162109" xlink:href="#DejaVuSans-99"/>
     <use x="521.142578" xlink:href="#DejaVuSans-101"/>
     <use x="582.666016" xlink:href="#DejaVuSans-115"/>
    </g>
   </g>
   <g id="text_19">
    <!-- v2.3.2 -->
    <defs>
     <path d="M 40.578125 39.3125 
Q 47.65625 37.796875 51.625 33 
Q 55.609375 28.21875 55.609375 21.1875 
Q 55.609375 10.40625 48.1875 4.484375 
Q 40.765625 -1.421875 27.09375 -1.421875 
Q 22.515625 -1.421875 17.65625 -0.515625 
Q 12.796875 0.390625 7.625 2.203125 
L 7.625 11.71875 
Q 11.71875 9.328125 16.59375 8.109375 
Q 21.484375 6.890625 26.8125 6.890625 
Q 36.078125 6.890625 40.9375 10.546875 
Q 45.796875 14.203125 45.796875 21.1875 
Q 45.796875 27.640625 41.28125 31.265625 
Q 36.765625 34.90625 28.71875 34.90625 
L 20.21875 34.90625 
L 20.21875 43.015625 
L 29.109375 43.015625 
Q 36.375 43.015625 40.234375 45.921875 
Q 44.09375 48.828125 44.09375 54.296875 
Q 44.09375 59.90625 40.109375 62.90625 
Q 36.140625 65.921875 28.71875 65.921875 
Q 24.65625 65.921875 20.015625 65.03125 
Q 15.375 64.15625 9.8125 62.3125 
L 9.8125 71.09375 
Q 15.4375 72.65625 20.34375 73.4375 
Q 25.25 74.21875 29.59375 74.21875 
Q 40.828125 74.21875 47.359375 69.109375 
Q 53.90625 64.015625 53.90625 55.328125 
Q 53.90625 49.265625 50.4375 45.09375 
Q 46.96875 40.921875 40.578125 39.3125 
z
" id="DejaVuSans-51"/>
    </defs>
    <g style="fill:#808080;" transform="translate(182.46275 294.151352)scale(0.1 -0.1)">
     <use xlink:href="#DejaVuSans-118"/>
     <use x="59.179688" xlink:href="#DejaVuSans-50"/>
     <use x="122.802734" xlink:href="#DejaVuSans-46"/>
     <use x="154.589844" xlink:href="#DejaVuSans-51"/>
     <use x="218.212891" xlink:href="#DejaVuSans-46"/>
     <use x="250" xlink:href="#DejaVuSans-50"/>
    </g>
   </g>
   <g id="text_20">
    <!-- 8 Rosenbrock original -->
    <defs>
     <path d="M 9.078125 75.984375 
L 18.109375 75.984375 
L 18.109375 31.109375 
L 44.921875 54.6875 
L 56.390625 54.6875 
L 27.390625 29.109375 
L 57.625 0 
L 45.90625 0 
L 18.109375 26.703125 
L 18.109375 0 
L 9.078125 0 
z
" id="DejaVuSans-107"/>
    </defs>
    <g transform="translate(89.422125 21.648)scale(0.2 -0.2)">
     <use xlink:href="#DejaVuSans-56"/>
     <use x="63.623047" xlink:href="#DejaVuSans-32"/>
     <use x="95.410156" xlink:href="#DejaVuSans-82"/>
     <use x="164.830078" xlink:href="#DejaVuSans-111"/>
     <use x="226.011719" xlink:href="#DejaVuSans-115"/>
     <use x="278.111328" xlink:href="#DejaVuSans-101"/>
     <use x="339.634766" xlink:href="#DejaVuSans-110"/>
     <use x="403.013672" xlink:href="#DejaVuSans-98"/>
     <use x="466.490234" xlink:href="#DejaVuSans-114"/>
     <use x="507.572266" xlink:href="#DejaVuSans-111"/>
     <use x="568.753906" xlink:href="#DejaVuSans-99"/>
     <use x="623.734375" xlink:href="#DejaVuSans-107"/>
     <use x="681.644531" xlink:href="#DejaVuSans-32"/>
     <use x="713.431641" xlink:href="#DejaVuSans-111"/>
     <use x="774.613281" xlink:href="#DejaVuSans-114"/>
     <use x="815.726562" xlink:href="#DejaVuSans-105"/>
     <use x="843.509766" xlink:href="#DejaVuSans-103"/>
     <use x="906.986328" xlink:href="#DejaVuSans-105"/>
     <use x="934.769531" xlink:href="#DejaVuSans-110"/>
     <use x="998.148438" xlink:href="#DejaVuSans-97"/>
     <use x="1059.427734" xlink:href="#DejaVuSans-108"/>
    </g>
   </g>
  </g>
 </g>
 <defs>
  <clipPath id="p29bb14fd44">
   <rect height="271.296" width="281.088" x="57.6" y="27.648"/>
  </clipPath>
 </defs>
</svg>
