<?xml version="1.0" encoding="utf-8" standalone="no"?>
<!DOCTYPE svg PUBLIC "-//W3C//DTD SVG 1.1//EN"
  "http://www.w3.org/Graphics/SVG/1.1/DTD/svg11.dtd">
<!-- Created with matplotlib (https://matplotlib.org/) -->
<svg height="345.6pt" version="1.1" viewBox="0 0 460.8 345.6" width="460.8pt" xmlns="http://www.w3.org/2000/svg" xmlns:xlink="http://www.w3.org/1999/xlink">
 <defs>
  <style type="text/css">
*{stroke-linecap:butt;stroke-linejoin:round;}
  </style>
 </defs>
 <g id="figure_1">
  <g id="patch_1">
   <path d="M 0 345.6 
L 460.8 345.6 
L 460.8 0 
L 0 0 
z
" style="fill:#ffffff;"/>
  </g>
  <g id="axes_1">
   <g id="patch_2">
    <path d="M 57.6 298.944 
L 338.688 298.944 
L 338.688 27.648 
L 57.6 27.648 
z
" style="fill:#ffffff;"/>
   </g>
   <g id="line2d_1">
    <path d="M 117.245527 298.944 
L 117.245527 293.677139 
L 117.903163 293.677139 
L 117.903163 288.410278 
L 129.567223 288.410278 
L 129.567223 283.143418 
L 131.332025 283.143418 
L 131.332025 277.876557 
L 135.194218 277.876557 
L 135.194218 272.609696 
L 138.632527 272.609696 
L 138.632527 267.342835 
L 142.133981 267.342835 
L 142.133981 262.075974 
L 143.483476 262.075974 
L 143.483476 256.809114 
L 145.61548 256.809114 
L 145.61548 251.542253 
L 147.238848 251.542253 
L 147.238848 246.275392 
L 148.76137 246.275392 
L 148.76137 241.008531 
L 150.072806 241.008531 
L 150.072806 235.74167 
L 150.872533 235.74167 
L 150.872533 230.47481 
L 151.497722 230.47481 
L 151.497722 225.207949 
L 152.045145 225.207949 
L 152.045145 219.941088 
L 152.386839 219.941088 
L 152.386839 214.674227 
L 153.27261 214.674227 
L 153.27261 209.407366 
L 154.11728 209.407366 
L 154.11728 204.140506 
L 154.498668 204.140506 
L 154.498668 198.873645 
L 154.848799 198.873645 
L 154.848799 193.606784 
L 155.153151 193.606784 
L 155.153151 188.339923 
L 155.433138 188.339923 
L 155.433138 183.073062 
L 155.798033 183.073062 
L 155.798033 177.806202 
L 157.010179 177.806202 
L 157.010179 172.539341 
L 157.279327 172.539341 
L 157.279327 167.27248 
L 158.660518 167.27248 
L 158.660518 162.005619 
L 165.417421 162.005619 
L 165.417421 156.738758 
L 165.803907 156.738758 
L 165.803907 151.471897 
L 166.179429 151.471897 
L 166.179429 146.205037 
L 166.536903 146.205037 
L 166.536903 140.938176 
L 166.86815 140.938176 
L 166.86815 135.671315 
L 167.181018 135.671315 
L 167.181018 130.404454 
L 167.457159 130.404454 
L 167.457159 125.137593 
L 167.733726 125.137593 
L 167.733726 119.870733 
L 167.979563 119.870733 
L 167.979563 114.603872 
L 168.231181 114.603872 
L 168.231181 109.337011 
L 168.430803 109.337011 
L 168.430803 104.07015 
L 168.628915 104.07015 
L 168.628915 98.803289 
L 168.839608 98.803289 
L 168.839608 93.536429 
L 169.045591 93.536429 
L 169.045591 88.269568 
L 169.239048 88.269568 
L 169.239048 83.002707 
L 169.40461 83.002707 
L 169.40461 77.735846 
L 169.563646 77.735846 
L 169.563646 72.468985 
L 169.714208 72.468985 
L 169.714208 67.202125 
L 169.873248 67.202125 
L 169.873248 61.935264 
L 170.003182 61.935264 
L 170.003182 56.668403 
L 170.12872 56.668403 
L 170.12872 51.401542 
L 170.251995 51.401542 
L 170.251995 46.134681 
L 170.386599 46.134681 
L 170.386599 40.867821 
L 170.560447 40.867821 
L 170.560447 35.60096 
L 171.193164 35.60096 
L 171.193164 30.334099 
L 338.688 30.334099 
" style="fill:none;stroke:#f5deb3;stroke-linecap:square;stroke-width:4;"/>
   </g>
   <g id="line2d_2">
    <defs>
     <path d="M -0 7.778175 
L 7.778175 0 
L 0 -7.778175 
L -7.778175 -0 
z
" id="m3f8db846c1" style="stroke:#f5deb3;stroke-linejoin:miter;stroke-width:1.5;"/>
    </defs>
    <g>
     <use style="fill:#f5deb3;stroke:#f5deb3;stroke-linejoin:miter;stroke-width:1.5;" x="147.238848" xlink:href="#m3f8db846c1" y="246.275392"/>
     <use style="fill:#f5deb3;stroke:#f5deb3;stroke-linejoin:miter;stroke-width:1.5;" x="167.979563" xlink:href="#m3f8db846c1" y="119.870733"/>
     <use style="fill:#f5deb3;stroke:#f5deb3;stroke-linejoin:miter;stroke-width:1.5;" x="171.193164" xlink:href="#m3f8db846c1" y="35.60096"/>
     <use style="fill:#f5deb3;stroke:#f5deb3;stroke-linejoin:miter;stroke-width:1.5;" x="171.193164" xlink:href="#m3f8db846c1" y="30.334099"/>
     <use style="fill:#f5deb3;stroke:#f5deb3;stroke-linejoin:miter;stroke-width:1.5;" x="338.688" xlink:href="#m3f8db846c1" y="30.334099"/>
    </g>
   </g>
   <g id="line2d_3">
    <path style="fill:none;stroke:#f5deb3;stroke-linecap:square;stroke-width:4;"/>
    <g/>
   </g>
   <g id="line2d_4">
    <path d="M 338.688 30.334099 
L 369.60768 35.706297 
" style="fill:none;stroke:#f5deb3;stroke-linecap:square;stroke-width:4;"/>
    <g>
     <use style="fill:#f5deb3;stroke:#f5deb3;stroke-linejoin:miter;stroke-width:1.5;" x="338.688" xlink:href="#m3f8db846c1" y="30.334099"/>
     <use style="fill:#f5deb3;stroke:#f5deb3;stroke-linejoin:miter;stroke-width:1.5;" x="369.60768" xlink:href="#m3f8db846c1" y="35.706297"/>
    </g>
   </g>
   <g id="matplotlib.axis_1">
    <g id="xtick_1">
     <g id="line2d_5">
      <path clip-path="url(#pbe1e2d4817)" d="M 57.6 298.944 
L 57.6 27.648 
" style="fill:none;stroke:#b0b0b0;stroke-linecap:square;stroke-width:0.8;"/>
     </g>
     <g id="line2d_6">
      <defs>
       <path d="M 0 0 
L 0 3.5 
" id="m5a52a9d44b" style="stroke:#000000;stroke-width:0.8;"/>
      </defs>
      <g>
       <use style="stroke:#000000;stroke-width:0.8;" x="57.6" xlink:href="#m5a52a9d44b" y="298.944"/>
      </g>
     </g>
     <g id="text_1">
      <!-- 0 -->
      <defs>
       <path d="M 31.78125 66.40625 
Q 24.171875 66.40625 20.328125 58.90625 
Q 16.5 51.421875 16.5 36.375 
Q 16.5 21.390625 20.328125 13.890625 
Q 24.171875 6.390625 31.78125 6.390625 
Q 39.453125 6.390625 43.28125 13.890625 
Q 47.125 21.390625 47.125 36.375 
Q 47.125 51.421875 43.28125 58.90625 
Q 39.453125 66.40625 31.78125 66.40625 
z
M 31.78125 74.21875 
Q 44.046875 74.21875 50.515625 64.515625 
Q 56.984375 54.828125 56.984375 36.375 
Q 56.984375 17.96875 50.515625 8.265625 
Q 44.046875 -1.421875 31.78125 -1.421875 
Q 19.53125 -1.421875 13.0625 8.265625 
Q 6.59375 17.96875 6.59375 36.375 
Q 6.59375 54.828125 13.0625 64.515625 
Q 19.53125 74.21875 31.78125 74.21875 
z
" id="DejaVuSans-48"/>
      </defs>
      <g transform="translate(51.2375 321.140875)scale(0.2 -0.2)">
       <use xlink:href="#DejaVuSans-48"/>
      </g>
     </g>
    </g>
    <g id="xtick_2">
     <g id="line2d_7">
      <path clip-path="url(#pbe1e2d4817)" d="M 137.910857 298.944 
L 137.910857 27.648 
" style="fill:none;stroke:#b0b0b0;stroke-linecap:square;stroke-width:0.8;"/>
     </g>
     <g id="line2d_8">
      <g>
       <use style="stroke:#000000;stroke-width:0.8;" x="137.910857" xlink:href="#m5a52a9d44b" y="298.944"/>
      </g>
     </g>
     <g id="text_2">
      <!-- 2 -->
      <defs>
       <path d="M 19.1875 8.296875 
L 53.609375 8.296875 
L 53.609375 0 
L 7.328125 0 
L 7.328125 8.296875 
Q 12.9375 14.109375 22.625 23.890625 
Q 32.328125 33.6875 34.8125 36.53125 
Q 39.546875 41.84375 41.421875 45.53125 
Q 43.3125 49.21875 43.3125 52.78125 
Q 43.3125 58.59375 39.234375 62.25 
Q 35.15625 65.921875 28.609375 65.921875 
Q 23.96875 65.921875 18.8125 64.3125 
Q 13.671875 62.703125 7.8125 59.421875 
L 7.8125 69.390625 
Q 13.765625 71.78125 18.9375 73 
Q 24.125 74.21875 28.421875 74.21875 
Q 39.75 74.21875 46.484375 68.546875 
Q 53.21875 62.890625 53.21875 53.421875 
Q 53.21875 48.921875 51.53125 44.890625 
Q 49.859375 40.875 45.40625 35.40625 
Q 44.1875 33.984375 37.640625 27.21875 
Q 31.109375 20.453125 19.1875 8.296875 
z
" id="DejaVuSans-50"/>
      </defs>
      <g transform="translate(131.548357 321.140875)scale(0.2 -0.2)">
       <use xlink:href="#DejaVuSans-50"/>
      </g>
     </g>
    </g>
    <g id="xtick_3">
     <g id="line2d_9">
      <path clip-path="url(#pbe1e2d4817)" d="M 218.221714 298.944 
L 218.221714 27.648 
" style="fill:none;stroke:#b0b0b0;stroke-linecap:square;stroke-width:0.8;"/>
     </g>
     <g id="line2d_10">
      <g>
       <use style="stroke:#000000;stroke-width:0.8;" x="218.221714" xlink:href="#m5a52a9d44b" y="298.944"/>
      </g>
     </g>
     <g id="text_3">
      <!-- 4 -->
      <defs>
       <path d="M 37.796875 64.3125 
L 12.890625 25.390625 
L 37.796875 25.390625 
z
M 35.203125 72.90625 
L 47.609375 72.90625 
L 47.609375 25.390625 
L 58.015625 25.390625 
L 58.015625 17.1875 
L 47.609375 17.1875 
L 47.609375 0 
L 37.796875 0 
L 37.796875 17.1875 
L 4.890625 17.1875 
L 4.890625 26.703125 
z
" id="DejaVuSans-52"/>
      </defs>
      <g transform="translate(211.859214 321.140875)scale(0.2 -0.2)">
       <use xlink:href="#DejaVuSans-52"/>
      </g>
     </g>
    </g>
    <g id="xtick_4">
     <g id="line2d_11">
      <path clip-path="url(#pbe1e2d4817)" d="M 298.532571 298.944 
L 298.532571 27.648 
" style="fill:none;stroke:#b0b0b0;stroke-linecap:square;stroke-width:0.8;"/>
     </g>
     <g id="line2d_12">
      <g>
       <use style="stroke:#000000;stroke-width:0.8;" x="298.532571" xlink:href="#m5a52a9d44b" y="298.944"/>
      </g>
     </g>
     <g id="text_4">
      <!-- 6 -->
      <defs>
       <path d="M 33.015625 40.375 
Q 26.375 40.375 22.484375 35.828125 
Q 18.609375 31.296875 18.609375 23.390625 
Q 18.609375 15.53125 22.484375 10.953125 
Q 26.375 6.390625 33.015625 6.390625 
Q 39.65625 6.390625 43.53125 10.953125 
Q 47.40625 15.53125 47.40625 23.390625 
Q 47.40625 31.296875 43.53125 35.828125 
Q 39.65625 40.375 33.015625 40.375 
z
M 52.59375 71.296875 
L 52.59375 62.3125 
Q 48.875 64.0625 45.09375 64.984375 
Q 41.3125 65.921875 37.59375 65.921875 
Q 27.828125 65.921875 22.671875 59.328125 
Q 17.53125 52.734375 16.796875 39.40625 
Q 19.671875 43.65625 24.015625 45.921875 
Q 28.375 48.1875 33.59375 48.1875 
Q 44.578125 48.1875 50.953125 41.515625 
Q 57.328125 34.859375 57.328125 23.390625 
Q 57.328125 12.15625 50.6875 5.359375 
Q 44.046875 -1.421875 33.015625 -1.421875 
Q 20.359375 -1.421875 13.671875 8.265625 
Q 6.984375 17.96875 6.984375 36.375 
Q 6.984375 53.65625 15.1875 63.9375 
Q 23.390625 74.21875 37.203125 74.21875 
Q 40.921875 74.21875 44.703125 73.484375 
Q 48.484375 72.75 52.59375 71.296875 
z
" id="DejaVuSans-54"/>
      </defs>
      <g transform="translate(292.170071 321.140875)scale(0.2 -0.2)">
       <use xlink:href="#DejaVuSans-54"/>
      </g>
     </g>
    </g>
    <g id="xtick_5">
     <g id="line2d_13">
      <path clip-path="url(#pbe1e2d4817)" d="M 57.6 298.944 
L 57.6 27.648 
" style="fill:none;stroke:#b0b0b0;stroke-linecap:square;stroke-width:0.8;"/>
     </g>
     <g id="line2d_14">
      <defs>
       <path d="M 0 0 
L 0 2 
" id="md61fa27a26" style="stroke:#000000;stroke-width:0.6;"/>
      </defs>
      <g>
       <use style="stroke:#000000;stroke-width:0.6;" x="57.6" xlink:href="#md61fa27a26" y="298.944"/>
      </g>
     </g>
    </g>
    <g id="xtick_6">
     <g id="line2d_15">
      <path clip-path="url(#pbe1e2d4817)" d="M 97.755429 298.944 
L 97.755429 27.648 
" style="fill:none;stroke:#b0b0b0;stroke-linecap:square;stroke-width:0.8;"/>
     </g>
     <g id="line2d_16">
      <g>
       <use style="stroke:#000000;stroke-width:0.6;" x="97.755429" xlink:href="#md61fa27a26" y="298.944"/>
      </g>
     </g>
    </g>
    <g id="xtick_7">
     <g id="line2d_17">
      <path clip-path="url(#pbe1e2d4817)" d="M 137.910857 298.944 
L 137.910857 27.648 
" style="fill:none;stroke:#b0b0b0;stroke-linecap:square;stroke-width:0.8;"/>
     </g>
     <g id="line2d_18">
      <g>
       <use style="stroke:#000000;stroke-width:0.6;" x="137.910857" xlink:href="#md61fa27a26" y="298.944"/>
      </g>
     </g>
    </g>
    <g id="xtick_8">
     <g id="line2d_19">
      <path clip-path="url(#pbe1e2d4817)" d="M 178.066286 298.944 
L 178.066286 27.648 
" style="fill:none;stroke:#b0b0b0;stroke-linecap:square;stroke-width:0.8;"/>
     </g>
     <g id="line2d_20">
      <g>
       <use style="stroke:#000000;stroke-width:0.6;" x="178.066286" xlink:href="#md61fa27a26" y="298.944"/>
      </g>
     </g>
    </g>
    <g id="xtick_9">
     <g id="line2d_21">
      <path clip-path="url(#pbe1e2d4817)" d="M 218.221714 298.944 
L 218.221714 27.648 
" style="fill:none;stroke:#b0b0b0;stroke-linecap:square;stroke-width:0.8;"/>
     </g>
     <g id="line2d_22">
      <g>
       <use style="stroke:#000000;stroke-width:0.6;" x="218.221714" xlink:href="#md61fa27a26" y="298.944"/>
      </g>
     </g>
    </g>
    <g id="xtick_10">
     <g id="line2d_23">
      <path clip-path="url(#pbe1e2d4817)" d="M 258.377143 298.944 
L 258.377143 27.648 
" style="fill:none;stroke:#b0b0b0;stroke-linecap:square;stroke-width:0.8;"/>
     </g>
     <g id="line2d_24">
      <g>
       <use style="stroke:#000000;stroke-width:0.6;" x="258.377143" xlink:href="#md61fa27a26" y="298.944"/>
      </g>
     </g>
    </g>
    <g id="xtick_11">
     <g id="line2d_25">
      <path clip-path="url(#pbe1e2d4817)" d="M 298.532571 298.944 
L 298.532571 27.648 
" style="fill:none;stroke:#b0b0b0;stroke-linecap:square;stroke-width:0.8;"/>
     </g>
     <g id="line2d_26">
      <g>
       <use style="stroke:#000000;stroke-width:0.6;" x="298.532571" xlink:href="#md61fa27a26" y="298.944"/>
      </g>
     </g>
    </g>
    <g id="xtick_12">
     <g id="line2d_27">
      <path clip-path="url(#pbe1e2d4817)" d="M 338.688 298.944 
L 338.688 27.648 
" style="fill:none;stroke:#b0b0b0;stroke-linecap:square;stroke-width:0.8;"/>
     </g>
     <g id="line2d_28">
      <g>
       <use style="stroke:#000000;stroke-width:0.6;" x="338.688" xlink:href="#md61fa27a26" y="298.944"/>
      </g>
     </g>
    </g>
    <g id="text_5">
     <!-- log10(# f-evals / dimension) -->
     <defs>
      <path d="M 9.421875 75.984375 
L 18.40625 75.984375 
L 18.40625 0 
L 9.421875 0 
z
" id="DejaVuSans-108"/>
      <path d="M 30.609375 48.390625 
Q 23.390625 48.390625 19.1875 42.75 
Q 14.984375 37.109375 14.984375 27.296875 
Q 14.984375 17.484375 19.15625 11.84375 
Q 23.34375 6.203125 30.609375 6.203125 
Q 37.796875 6.203125 41.984375 11.859375 
Q 46.1875 17.53125 46.1875 27.296875 
Q 46.1875 37.015625 41.984375 42.703125 
Q 37.796875 48.390625 30.609375 48.390625 
z
M 30.609375 56 
Q 42.328125 56 49.015625 48.375 
Q 55.71875 40.765625 55.71875 27.296875 
Q 55.71875 13.875 49.015625 6.21875 
Q 42.328125 -1.421875 30.609375 -1.421875 
Q 18.84375 -1.421875 12.171875 6.21875 
Q 5.515625 13.875 5.515625 27.296875 
Q 5.515625 40.765625 12.171875 48.375 
Q 18.84375 56 30.609375 56 
z
" id="DejaVuSans-111"/>
      <path d="M 45.40625 27.984375 
Q 45.40625 37.75 41.375 43.109375 
Q 37.359375 48.484375 30.078125 48.484375 
Q 22.859375 48.484375 18.828125 43.109375 
Q 14.796875 37.75 14.796875 27.984375 
Q 14.796875 18.265625 18.828125 12.890625 
Q 22.859375 7.515625 30.078125 7.515625 
Q 37.359375 7.515625 41.375 12.890625 
Q 45.40625 18.265625 45.40625 27.984375 
z
M 54.390625 6.78125 
Q 54.390625 -7.171875 48.1875 -13.984375 
Q 42 -20.796875 29.203125 -20.796875 
Q 24.46875 -20.796875 20.265625 -20.09375 
Q 16.0625 -19.390625 12.109375 -17.921875 
L 12.109375 -9.1875 
Q 16.0625 -11.328125 19.921875 -12.34375 
Q 23.78125 -13.375 27.78125 -13.375 
Q 36.625 -13.375 41.015625 -8.765625 
Q 45.40625 -4.15625 45.40625 5.171875 
L 45.40625 9.625 
Q 42.625 4.78125 38.28125 2.390625 
Q 33.9375 0 27.875 0 
Q 17.828125 0 11.671875 7.65625 
Q 5.515625 15.328125 5.515625 27.984375 
Q 5.515625 40.671875 11.671875 48.328125 
Q 17.828125 56 27.875 56 
Q 33.9375 56 38.28125 53.609375 
Q 42.625 51.21875 45.40625 46.390625 
L 45.40625 54.6875 
L 54.390625 54.6875 
z
" id="DejaVuSans-103"/>
      <path d="M 12.40625 8.296875 
L 28.515625 8.296875 
L 28.515625 63.921875 
L 10.984375 60.40625 
L 10.984375 69.390625 
L 28.421875 72.90625 
L 38.28125 72.90625 
L 38.28125 8.296875 
L 54.390625 8.296875 
L 54.390625 0 
L 12.40625 0 
z
" id="DejaVuSans-49"/>
      <path d="M 31 75.875 
Q 24.46875 64.65625 21.28125 53.65625 
Q 18.109375 42.671875 18.109375 31.390625 
Q 18.109375 20.125 21.3125 9.0625 
Q 24.515625 -2 31 -13.1875 
L 23.1875 -13.1875 
Q 15.875 -1.703125 12.234375 9.375 
Q 8.59375 20.453125 8.59375 31.390625 
Q 8.59375 42.28125 12.203125 53.3125 
Q 15.828125 64.359375 23.1875 75.875 
z
" id="DejaVuSans-40"/>
      <path d="M 51.125 44 
L 36.921875 44 
L 32.8125 27.6875 
L 47.125 27.6875 
z
M 43.796875 71.78125 
L 38.71875 51.515625 
L 52.984375 51.515625 
L 58.109375 71.78125 
L 65.921875 71.78125 
L 60.890625 51.515625 
L 76.125 51.515625 
L 76.125 44 
L 58.984375 44 
L 54.984375 27.6875 
L 70.515625 27.6875 
L 70.515625 20.21875 
L 53.078125 20.21875 
L 48 0 
L 40.1875 0 
L 45.21875 20.21875 
L 30.90625 20.21875 
L 25.875 0 
L 18.015625 0 
L 23.09375 20.21875 
L 7.71875 20.21875 
L 7.71875 27.6875 
L 24.90625 27.6875 
L 29 44 
L 13.28125 44 
L 13.28125 51.515625 
L 30.90625 51.515625 
L 35.890625 71.78125 
z
" id="DejaVuSans-35"/>
      <path id="DejaVuSans-32"/>
      <path d="M 37.109375 75.984375 
L 37.109375 68.5 
L 28.515625 68.5 
Q 23.6875 68.5 21.796875 66.546875 
Q 19.921875 64.59375 19.921875 59.515625 
L 19.921875 54.6875 
L 34.71875 54.6875 
L 34.71875 47.703125 
L 19.921875 47.703125 
L 19.921875 0 
L 10.890625 0 
L 10.890625 47.703125 
L 2.296875 47.703125 
L 2.296875 54.6875 
L 10.890625 54.6875 
L 10.890625 58.5 
Q 10.890625 67.625 15.140625 71.796875 
Q 19.390625 75.984375 28.609375 75.984375 
z
" id="DejaVuSans-102"/>
      <path d="M 4.890625 31.390625 
L 31.203125 31.390625 
L 31.203125 23.390625 
L 4.890625 23.390625 
z
" id="DejaVuSans-45"/>
      <path d="M 56.203125 29.59375 
L 56.203125 25.203125 
L 14.890625 25.203125 
Q 15.484375 15.921875 20.484375 11.0625 
Q 25.484375 6.203125 34.421875 6.203125 
Q 39.59375 6.203125 44.453125 7.46875 
Q 49.3125 8.734375 54.109375 11.28125 
L 54.109375 2.78125 
Q 49.265625 0.734375 44.1875 -0.34375 
Q 39.109375 -1.421875 33.890625 -1.421875 
Q 20.796875 -1.421875 13.15625 6.1875 
Q 5.515625 13.8125 5.515625 26.8125 
Q 5.515625 40.234375 12.765625 48.109375 
Q 20.015625 56 32.328125 56 
Q 43.359375 56 49.78125 48.890625 
Q 56.203125 41.796875 56.203125 29.59375 
z
M 47.21875 32.234375 
Q 47.125 39.59375 43.09375 43.984375 
Q 39.0625 48.390625 32.421875 48.390625 
Q 24.90625 48.390625 20.390625 44.140625 
Q 15.875 39.890625 15.1875 32.171875 
z
" id="DejaVuSans-101"/>
      <path d="M 2.984375 54.6875 
L 12.5 54.6875 
L 29.59375 8.796875 
L 46.6875 54.6875 
L 56.203125 54.6875 
L 35.6875 0 
L 23.484375 0 
z
" id="DejaVuSans-118"/>
      <path d="M 34.28125 27.484375 
Q 23.390625 27.484375 19.1875 25 
Q 14.984375 22.515625 14.984375 16.5 
Q 14.984375 11.71875 18.140625 8.90625 
Q 21.296875 6.109375 26.703125 6.109375 
Q 34.1875 6.109375 38.703125 11.40625 
Q 43.21875 16.703125 43.21875 25.484375 
L 43.21875 27.484375 
z
M 52.203125 31.203125 
L 52.203125 0 
L 43.21875 0 
L 43.21875 8.296875 
Q 40.140625 3.328125 35.546875 0.953125 
Q 30.953125 -1.421875 24.3125 -1.421875 
Q 15.921875 -1.421875 10.953125 3.296875 
Q 6 8.015625 6 15.921875 
Q 6 25.140625 12.171875 29.828125 
Q 18.359375 34.515625 30.609375 34.515625 
L 43.21875 34.515625 
L 43.21875 35.40625 
Q 43.21875 41.609375 39.140625 45 
Q 35.0625 48.390625 27.6875 48.390625 
Q 23 48.390625 18.546875 47.265625 
Q 14.109375 46.140625 10.015625 43.890625 
L 10.015625 52.203125 
Q 14.9375 54.109375 19.578125 55.046875 
Q 24.21875 56 28.609375 56 
Q 40.484375 56 46.34375 49.84375 
Q 52.203125 43.703125 52.203125 31.203125 
z
" id="DejaVuSans-97"/>
      <path d="M 44.28125 53.078125 
L 44.28125 44.578125 
Q 40.484375 46.53125 36.375 47.5 
Q 32.28125 48.484375 27.875 48.484375 
Q 21.1875 48.484375 17.84375 46.4375 
Q 14.5 44.390625 14.5 40.28125 
Q 14.5 37.15625 16.890625 35.375 
Q 19.28125 33.59375 26.515625 31.984375 
L 29.59375 31.296875 
Q 39.15625 29.25 43.1875 25.515625 
Q 47.21875 21.78125 47.21875 15.09375 
Q 47.21875 7.46875 41.1875 3.015625 
Q 35.15625 -1.421875 24.609375 -1.421875 
Q 20.21875 -1.421875 15.453125 -0.5625 
Q 10.6875 0.296875 5.421875 2 
L 5.421875 11.28125 
Q 10.40625 8.6875 15.234375 7.390625 
Q 20.0625 6.109375 24.8125 6.109375 
Q 31.15625 6.109375 34.5625 8.28125 
Q 37.984375 10.453125 37.984375 14.40625 
Q 37.984375 18.0625 35.515625 20.015625 
Q 33.0625 21.96875 24.703125 23.78125 
L 21.578125 24.515625 
Q 13.234375 26.265625 9.515625 29.90625 
Q 5.8125 33.546875 5.8125 39.890625 
Q 5.8125 47.609375 11.28125 51.796875 
Q 16.75 56 26.8125 56 
Q 31.78125 56 36.171875 55.265625 
Q 40.578125 54.546875 44.28125 53.078125 
z
" id="DejaVuSans-115"/>
      <path d="M 25.390625 72.90625 
L 33.6875 72.90625 
L 8.296875 -9.28125 
L 0 -9.28125 
z
" id="DejaVuSans-47"/>
      <path d="M 45.40625 46.390625 
L 45.40625 75.984375 
L 54.390625 75.984375 
L 54.390625 0 
L 45.40625 0 
L 45.40625 8.203125 
Q 42.578125 3.328125 38.25 0.953125 
Q 33.9375 -1.421875 27.875 -1.421875 
Q 17.96875 -1.421875 11.734375 6.484375 
Q 5.515625 14.40625 5.515625 27.296875 
Q 5.515625 40.1875 11.734375 48.09375 
Q 17.96875 56 27.875 56 
Q 33.9375 56 38.25 53.625 
Q 42.578125 51.265625 45.40625 46.390625 
z
M 14.796875 27.296875 
Q 14.796875 17.390625 18.875 11.75 
Q 22.953125 6.109375 30.078125 6.109375 
Q 37.203125 6.109375 41.296875 11.75 
Q 45.40625 17.390625 45.40625 27.296875 
Q 45.40625 37.203125 41.296875 42.84375 
Q 37.203125 48.484375 30.078125 48.484375 
Q 22.953125 48.484375 18.875 42.84375 
Q 14.796875 37.203125 14.796875 27.296875 
z
" id="DejaVuSans-100"/>
      <path d="M 9.421875 54.6875 
L 18.40625 54.6875 
L 18.40625 0 
L 9.421875 0 
z
M 9.421875 75.984375 
L 18.40625 75.984375 
L 18.40625 64.59375 
L 9.421875 64.59375 
z
" id="DejaVuSans-105"/>
      <path d="M 52 44.1875 
Q 55.375 50.25 60.0625 53.125 
Q 64.75 56 71.09375 56 
Q 79.640625 56 84.28125 50.015625 
Q 88.921875 44.046875 88.921875 33.015625 
L 88.921875 0 
L 79.890625 0 
L 79.890625 32.71875 
Q 79.890625 40.578125 77.09375 44.375 
Q 74.3125 48.1875 68.609375 48.1875 
Q 61.625 48.1875 57.5625 43.546875 
Q 53.515625 38.921875 53.515625 30.90625 
L 53.515625 0 
L 44.484375 0 
L 44.484375 32.71875 
Q 44.484375 40.625 41.703125 44.40625 
Q 38.921875 48.1875 33.109375 48.1875 
Q 26.21875 48.1875 22.15625 43.53125 
Q 18.109375 38.875 18.109375 30.90625 
L 18.109375 0 
L 9.078125 0 
L 9.078125 54.6875 
L 18.109375 54.6875 
L 18.109375 46.1875 
Q 21.1875 51.21875 25.484375 53.609375 
Q 29.78125 56 35.6875 56 
Q 41.65625 56 45.828125 52.96875 
Q 50 49.953125 52 44.1875 
z
" id="DejaVuSans-109"/>
      <path d="M 54.890625 33.015625 
L 54.890625 0 
L 45.90625 0 
L 45.90625 32.71875 
Q 45.90625 40.484375 42.875 44.328125 
Q 39.84375 48.1875 33.796875 48.1875 
Q 26.515625 48.1875 22.3125 43.546875 
Q 18.109375 38.921875 18.109375 30.90625 
L 18.109375 0 
L 9.078125 0 
L 9.078125 54.6875 
L 18.109375 54.6875 
L 18.109375 46.1875 
Q 21.34375 51.125 25.703125 53.5625 
Q 30.078125 56 35.796875 56 
Q 45.21875 56 50.046875 50.171875 
Q 54.890625 44.34375 54.890625 33.015625 
z
" id="DejaVuSans-110"/>
      <path d="M 8.015625 75.875 
L 15.828125 75.875 
Q 23.140625 64.359375 26.78125 53.3125 
Q 30.421875 42.28125 30.421875 31.390625 
Q 30.421875 20.453125 26.78125 9.375 
Q 23.140625 -1.703125 15.828125 -13.1875 
L 8.015625 -13.1875 
Q 14.5 -2 17.703125 9.0625 
Q 20.90625 20.125 20.90625 31.390625 
Q 20.90625 42.671875 17.703125 53.65625 
Q 14.5 64.65625 8.015625 75.875 
z
" id="DejaVuSans-41"/>
     </defs>
     <g transform="translate(77.303219 342.217594)scale(0.17 -0.17)">
      <use xlink:href="#DejaVuSans-108"/>
      <use x="27.783203" xlink:href="#DejaVuSans-111"/>
      <use x="88.964844" xlink:href="#DejaVuSans-103"/>
      <use x="152.441406" xlink:href="#DejaVuSans-49"/>
      <use x="216.064453" xlink:href="#DejaVuSans-48"/>
      <use x="279.6875" xlink:href="#DejaVuSans-40"/>
      <use x="318.701172" xlink:href="#DejaVuSans-35"/>
      <use x="402.490234" xlink:href="#DejaVuSans-32"/>
      <use x="434.277344" xlink:href="#DejaVuSans-102"/>
      <use x="469.404297" xlink:href="#DejaVuSans-45"/>
      <use x="505.488281" xlink:href="#DejaVuSans-101"/>
      <use x="567.011719" xlink:href="#DejaVuSans-118"/>
      <use x="626.191406" xlink:href="#DejaVuSans-97"/>
      <use x="687.470703" xlink:href="#DejaVuSans-108"/>
      <use x="715.253906" xlink:href="#DejaVuSans-115"/>
      <use x="767.353516" xlink:href="#DejaVuSans-32"/>
      <use x="799.140625" xlink:href="#DejaVuSans-47"/>
      <use x="832.832031" xlink:href="#DejaVuSans-32"/>
      <use x="864.619141" xlink:href="#DejaVuSans-100"/>
      <use x="928.095703" xlink:href="#DejaVuSans-105"/>
      <use x="955.878906" xlink:href="#DejaVuSans-109"/>
      <use x="1053.291016" xlink:href="#DejaVuSans-101"/>
      <use x="1114.814453" xlink:href="#DejaVuSans-110"/>
      <use x="1178.193359" xlink:href="#DejaVuSans-115"/>
      <use x="1230.292969" xlink:href="#DejaVuSans-105"/>
      <use x="1258.076172" xlink:href="#DejaVuSans-111"/>
      <use x="1319.257812" xlink:href="#DejaVuSans-110"/>
      <use x="1382.636719" xlink:href="#DejaVuSans-41"/>
     </g>
    </g>
   </g>
   <g id="matplotlib.axis_2">
    <g id="ytick_1">
     <g id="line2d_29">
      <path clip-path="url(#pbe1e2d4817)" d="M 57.6 298.944 
L 338.688 298.944 
" style="fill:none;stroke:#b0b0b0;stroke-linecap:square;stroke-width:0.8;"/>
     </g>
     <g id="line2d_30">
      <defs>
       <path d="M 0 0 
L -3.5 0 
" id="m9c7996473e" style="stroke:#000000;stroke-width:0.8;"/>
      </defs>
      <g>
       <use style="stroke:#000000;stroke-width:0.8;" x="57.6" xlink:href="#m9c7996473e" y="298.944"/>
      </g>
     </g>
     <g id="text_6">
      <!-- 0.0 -->
      <defs>
       <path d="M 10.6875 12.40625 
L 21 12.40625 
L 21 0 
L 10.6875 0 
z
" id="DejaVuSans-46"/>
      </defs>
      <g transform="translate(25.155 305.02275)scale(0.16 -0.16)">
       <use xlink:href="#DejaVuSans-48"/>
       <use x="63.623047" xlink:href="#DejaVuSans-46"/>
       <use x="95.410156" xlink:href="#DejaVuSans-48"/>
      </g>
     </g>
    </g>
    <g id="ytick_2">
     <g id="line2d_31">
      <path clip-path="url(#pbe1e2d4817)" d="M 57.6 245.22202 
L 338.688 245.22202 
" style="fill:none;stroke:#b0b0b0;stroke-linecap:square;stroke-width:0.8;"/>
     </g>
     <g id="line2d_32">
      <g>
       <use style="stroke:#000000;stroke-width:0.8;" x="57.6" xlink:href="#m9c7996473e" y="245.22202"/>
      </g>
     </g>
     <g id="text_7">
      <!-- 0.2 -->
      <g transform="translate(25.155 251.30077)scale(0.16 -0.16)">
       <use xlink:href="#DejaVuSans-48"/>
       <use x="63.623047" xlink:href="#DejaVuSans-46"/>
       <use x="95.410156" xlink:href="#DejaVuSans-50"/>
      </g>
     </g>
    </g>
    <g id="ytick_3">
     <g id="line2d_33">
      <path clip-path="url(#pbe1e2d4817)" d="M 57.6 191.50004 
L 338.688 191.50004 
" style="fill:none;stroke:#b0b0b0;stroke-linecap:square;stroke-width:0.8;"/>
     </g>
     <g id="line2d_34">
      <g>
       <use style="stroke:#000000;stroke-width:0.8;" x="57.6" xlink:href="#m9c7996473e" y="191.50004"/>
      </g>
     </g>
     <g id="text_8">
      <!-- 0.4 -->
      <g transform="translate(25.155 197.57879)scale(0.16 -0.16)">
       <use xlink:href="#DejaVuSans-48"/>
       <use x="63.623047" xlink:href="#DejaVuSans-46"/>
       <use x="95.410156" xlink:href="#DejaVuSans-52"/>
      </g>
     </g>
    </g>
    <g id="ytick_4">
     <g id="line2d_35">
      <path clip-path="url(#pbe1e2d4817)" d="M 57.6 137.778059 
L 338.688 137.778059 
" style="fill:none;stroke:#b0b0b0;stroke-linecap:square;stroke-width:0.8;"/>
     </g>
     <g id="line2d_36">
      <g>
       <use style="stroke:#000000;stroke-width:0.8;" x="57.6" xlink:href="#m9c7996473e" y="137.778059"/>
      </g>
     </g>
     <g id="text_9">
      <!-- 0.6 -->
      <g transform="translate(25.155 143.856809)scale(0.16 -0.16)">
       <use xlink:href="#DejaVuSans-48"/>
       <use x="63.623047" xlink:href="#DejaVuSans-46"/>
       <use x="95.410156" xlink:href="#DejaVuSans-54"/>
      </g>
     </g>
    </g>
    <g id="ytick_5">
     <g id="line2d_37">
      <path clip-path="url(#pbe1e2d4817)" d="M 57.6 84.056079 
L 338.688 84.056079 
" style="fill:none;stroke:#b0b0b0;stroke-linecap:square;stroke-width:0.8;"/>
     </g>
     <g id="line2d_38">
      <g>
       <use style="stroke:#000000;stroke-width:0.8;" x="57.6" xlink:href="#m9c7996473e" y="84.056079"/>
      </g>
     </g>
     <g id="text_10">
      <!-- 0.8 -->
      <defs>
       <path d="M 31.78125 34.625 
Q 24.75 34.625 20.71875 30.859375 
Q 16.703125 27.09375 16.703125 20.515625 
Q 16.703125 13.921875 20.71875 10.15625 
Q 24.75 6.390625 31.78125 6.390625 
Q 38.8125 6.390625 42.859375 10.171875 
Q 46.921875 13.96875 46.921875 20.515625 
Q 46.921875 27.09375 42.890625 30.859375 
Q 38.875 34.625 31.78125 34.625 
z
M 21.921875 38.8125 
Q 15.578125 40.375 12.03125 44.71875 
Q 8.5 49.078125 8.5 55.328125 
Q 8.5 64.0625 14.71875 69.140625 
Q 20.953125 74.21875 31.78125 74.21875 
Q 42.671875 74.21875 48.875 69.140625 
Q 55.078125 64.0625 55.078125 55.328125 
Q 55.078125 49.078125 51.53125 44.71875 
Q 48 40.375 41.703125 38.8125 
Q 48.828125 37.15625 52.796875 32.3125 
Q 56.78125 27.484375 56.78125 20.515625 
Q 56.78125 9.90625 50.3125 4.234375 
Q 43.84375 -1.421875 31.78125 -1.421875 
Q 19.734375 -1.421875 13.25 4.234375 
Q 6.78125 9.90625 6.78125 20.515625 
Q 6.78125 27.484375 10.78125 32.3125 
Q 14.796875 37.15625 21.921875 38.8125 
z
M 18.3125 54.390625 
Q 18.3125 48.734375 21.84375 45.5625 
Q 25.390625 42.390625 31.78125 42.390625 
Q 38.140625 42.390625 41.71875 45.5625 
Q 45.3125 48.734375 45.3125 54.390625 
Q 45.3125 60.0625 41.71875 63.234375 
Q 38.140625 66.40625 31.78125 66.40625 
Q 25.390625 66.40625 21.84375 63.234375 
Q 18.3125 60.0625 18.3125 54.390625 
z
" id="DejaVuSans-56"/>
      </defs>
      <g transform="translate(25.155 90.134829)scale(0.16 -0.16)">
       <use xlink:href="#DejaVuSans-48"/>
       <use x="63.623047" xlink:href="#DejaVuSans-46"/>
       <use x="95.410156" xlink:href="#DejaVuSans-56"/>
      </g>
     </g>
    </g>
    <g id="ytick_6">
     <g id="line2d_39">
      <path clip-path="url(#pbe1e2d4817)" d="M 57.6 30.334099 
L 338.688 30.334099 
" style="fill:none;stroke:#b0b0b0;stroke-linecap:square;stroke-width:0.8;"/>
     </g>
     <g id="line2d_40">
      <g>
       <use style="stroke:#000000;stroke-width:0.8;" x="57.6" xlink:href="#m9c7996473e" y="30.334099"/>
      </g>
     </g>
     <g id="text_11">
      <!-- 1.0 -->
      <g transform="translate(25.155 36.412849)scale(0.16 -0.16)">
       <use xlink:href="#DejaVuSans-49"/>
       <use x="63.623047" xlink:href="#DejaVuSans-46"/>
       <use x="95.410156" xlink:href="#DejaVuSans-48"/>
      </g>
     </g>
    </g>
    <g id="text_12">
     <!-- Fraction of function,target pairs -->
     <defs>
      <path d="M 9.8125 72.90625 
L 51.703125 72.90625 
L 51.703125 64.59375 
L 19.671875 64.59375 
L 19.671875 43.109375 
L 48.578125 43.109375 
L 48.578125 34.8125 
L 19.671875 34.8125 
L 19.671875 0 
L 9.8125 0 
z
" id="DejaVuSans-70"/>
      <path d="M 41.109375 46.296875 
Q 39.59375 47.171875 37.8125 47.578125 
Q 36.03125 48 33.890625 48 
Q 26.265625 48 22.1875 43.046875 
Q 18.109375 38.09375 18.109375 28.8125 
L 18.109375 0 
L 9.078125 0 
L 9.078125 54.6875 
L 18.109375 54.6875 
L 18.109375 46.1875 
Q 20.953125 51.171875 25.484375 53.578125 
Q 30.03125 56 36.53125 56 
Q 37.453125 56 38.578125 55.875 
Q 39.703125 55.765625 41.0625 55.515625 
z
" id="DejaVuSans-114"/>
      <path d="M 48.78125 52.59375 
L 48.78125 44.1875 
Q 44.96875 46.296875 41.140625 47.34375 
Q 37.3125 48.390625 33.40625 48.390625 
Q 24.65625 48.390625 19.8125 42.84375 
Q 14.984375 37.3125 14.984375 27.296875 
Q 14.984375 17.28125 19.8125 11.734375 
Q 24.65625 6.203125 33.40625 6.203125 
Q 37.3125 6.203125 41.140625 7.25 
Q 44.96875 8.296875 48.78125 10.40625 
L 48.78125 2.09375 
Q 45.015625 0.34375 40.984375 -0.53125 
Q 36.96875 -1.421875 32.421875 -1.421875 
Q 20.0625 -1.421875 12.78125 6.34375 
Q 5.515625 14.109375 5.515625 27.296875 
Q 5.515625 40.671875 12.859375 48.328125 
Q 20.21875 56 33.015625 56 
Q 37.15625 56 41.109375 55.140625 
Q 45.0625 54.296875 48.78125 52.59375 
z
" id="DejaVuSans-99"/>
      <path d="M 18.3125 70.21875 
L 18.3125 54.6875 
L 36.8125 54.6875 
L 36.8125 47.703125 
L 18.3125 47.703125 
L 18.3125 18.015625 
Q 18.3125 11.328125 20.140625 9.421875 
Q 21.96875 7.515625 27.59375 7.515625 
L 36.8125 7.515625 
L 36.8125 0 
L 27.59375 0 
Q 17.1875 0 13.234375 3.875 
Q 9.28125 7.765625 9.28125 18.015625 
L 9.28125 47.703125 
L 2.6875 47.703125 
L 2.6875 54.6875 
L 9.28125 54.6875 
L 9.28125 70.21875 
z
" id="DejaVuSans-116"/>
      <path d="M 8.5 21.578125 
L 8.5 54.6875 
L 17.484375 54.6875 
L 17.484375 21.921875 
Q 17.484375 14.15625 20.5 10.265625 
Q 23.53125 6.390625 29.59375 6.390625 
Q 36.859375 6.390625 41.078125 11.03125 
Q 45.3125 15.671875 45.3125 23.6875 
L 45.3125 54.6875 
L 54.296875 54.6875 
L 54.296875 0 
L 45.3125 0 
L 45.3125 8.40625 
Q 42.046875 3.421875 37.71875 1 
Q 33.40625 -1.421875 27.6875 -1.421875 
Q 18.265625 -1.421875 13.375 4.4375 
Q 8.5 10.296875 8.5 21.578125 
z
M 31.109375 56 
z
" id="DejaVuSans-117"/>
      <path d="M 11.71875 12.40625 
L 22.015625 12.40625 
L 22.015625 4 
L 14.015625 -11.625 
L 7.71875 -11.625 
L 11.71875 4 
z
" id="DejaVuSans-44"/>
      <path d="M 18.109375 8.203125 
L 18.109375 -20.796875 
L 9.078125 -20.796875 
L 9.078125 54.6875 
L 18.109375 54.6875 
L 18.109375 46.390625 
Q 20.953125 51.265625 25.265625 53.625 
Q 29.59375 56 35.59375 56 
Q 45.5625 56 51.78125 48.09375 
Q 58.015625 40.1875 58.015625 27.296875 
Q 58.015625 14.40625 51.78125 6.484375 
Q 45.5625 -1.421875 35.59375 -1.421875 
Q 29.59375 -1.421875 25.265625 0.953125 
Q 20.953125 3.328125 18.109375 8.203125 
z
M 48.6875 27.296875 
Q 48.6875 37.203125 44.609375 42.84375 
Q 40.53125 48.484375 33.40625 48.484375 
Q 26.265625 48.484375 22.1875 42.84375 
Q 18.109375 37.203125 18.109375 27.296875 
Q 18.109375 17.390625 22.1875 11.75 
Q 26.265625 6.109375 33.40625 6.109375 
Q 40.53125 6.109375 44.609375 11.75 
Q 48.6875 17.390625 48.6875 27.296875 
z
" id="DejaVuSans-112"/>
     </defs>
     <g transform="translate(17.619531 298.435375)rotate(-90)scale(0.17 -0.17)">
      <use xlink:href="#DejaVuSans-70"/>
      <use x="57.410156" xlink:href="#DejaVuSans-114"/>
      <use x="98.523438" xlink:href="#DejaVuSans-97"/>
      <use x="159.802734" xlink:href="#DejaVuSans-99"/>
      <use x="214.783203" xlink:href="#DejaVuSans-116"/>
      <use x="253.992188" xlink:href="#DejaVuSans-105"/>
      <use x="281.775391" xlink:href="#DejaVuSans-111"/>
      <use x="342.957031" xlink:href="#DejaVuSans-110"/>
      <use x="406.335938" xlink:href="#DejaVuSans-32"/>
      <use x="438.123047" xlink:href="#DejaVuSans-111"/>
      <use x="499.304688" xlink:href="#DejaVuSans-102"/>
      <use x="534.509766" xlink:href="#DejaVuSans-32"/>
      <use x="566.296875" xlink:href="#DejaVuSans-102"/>
      <use x="601.501953" xlink:href="#DejaVuSans-117"/>
      <use x="664.880859" xlink:href="#DejaVuSans-110"/>
      <use x="728.259766" xlink:href="#DejaVuSans-99"/>
      <use x="783.240234" xlink:href="#DejaVuSans-116"/>
      <use x="822.449219" xlink:href="#DejaVuSans-105"/>
      <use x="850.232422" xlink:href="#DejaVuSans-111"/>
      <use x="911.414062" xlink:href="#DejaVuSans-110"/>
      <use x="974.792969" xlink:href="#DejaVuSans-44"/>
      <use x="1006.580078" xlink:href="#DejaVuSans-116"/>
      <use x="1045.789062" xlink:href="#DejaVuSans-97"/>
      <use x="1107.068359" xlink:href="#DejaVuSans-114"/>
      <use x="1148.166016" xlink:href="#DejaVuSans-103"/>
      <use x="1211.642578" xlink:href="#DejaVuSans-101"/>
      <use x="1273.166016" xlink:href="#DejaVuSans-116"/>
      <use x="1312.375" xlink:href="#DejaVuSans-32"/>
      <use x="1344.162109" xlink:href="#DejaVuSans-112"/>
      <use x="1407.638672" xlink:href="#DejaVuSans-97"/>
      <use x="1468.917969" xlink:href="#DejaVuSans-105"/>
      <use x="1496.701172" xlink:href="#DejaVuSans-114"/>
      <use x="1537.814453" xlink:href="#DejaVuSans-115"/>
     </g>
    </g>
   </g>
   <g id="line2d_41">
    <defs>
     <path d="M 0 1.5 
C 0.397805 1.5 0.77937 1.341951 1.06066 1.06066 
C 1.341951 0.77937 1.5 0.397805 1.5 0 
C 1.5 -0.397805 1.341951 -0.77937 1.06066 -1.06066 
C 0.77937 -1.341951 0.397805 -1.5 0 -1.5 
C -0.397805 -1.5 -0.77937 -1.341951 -1.06066 -1.06066 
C -1.341951 -0.77937 -1.5 -0.397805 -1.5 0 
C -1.5 0.397805 -1.341951 0.77937 -1.06066 1.06066 
C -0.77937 1.341951 -0.397805 1.5 0 1.5 
z
" id="m1ae2b71713" style="stroke:#f5deb3;"/>
    </defs>
    <g>
     <use style="fill:#f5deb3;stroke:#f5deb3;" x="171.193164" xlink:href="#m1ae2b71713" y="30.334099"/>
     <use style="fill:#f5deb3;stroke:#f5deb3;" x="171.193164" xlink:href="#m1ae2b71713" y="30.334099"/>
    </g>
   </g>
   <g id="line2d_42">
    <defs>
     <path d="M 0 1.5 
C 0.397805 1.5 0.77937 1.341951 1.06066 1.06066 
C 1.341951 0.77937 1.5 0.397805 1.5 0 
C 1.5 -0.397805 1.341951 -0.77937 1.06066 -1.06066 
C 0.77937 -1.341951 0.397805 -1.5 0 -1.5 
C -0.397805 -1.5 -0.77937 -1.341951 -1.06066 -1.06066 
C -1.341951 -0.77937 -1.5 -0.397805 -1.5 0 
C -1.5 0.397805 -1.341951 0.77937 -1.06066 1.06066 
C -0.77937 1.341951 -0.397805 1.5 0 1.5 
z
" id="m9661a28136" style="stroke:#000080;"/>
    </defs>
    <g>
     <use style="fill:#000080;stroke:#000080;" x="186.649513" xlink:href="#m9661a28136" y="30.334099"/>
     <use style="fill:#000080;stroke:#000080;" x="186.649513" xlink:href="#m9661a28136" y="30.334099"/>
    </g>
   </g>
   <g id="line2d_43">
    <path d="M 133.827601 298.944 
L 133.849627 297.890628 
L 133.992124 297.890628 
L 133.992124 297.363942 
L 134.343353 297.363942 
L 134.343353 296.837256 
L 134.650895 296.837256 
L 134.750473 295.257197 
L 134.792231 295.257197 
L 134.792231 294.730511 
L 134.94794 294.730511 
L 135.050979 293.150453 
L 135.132974 293.150453 
L 135.240011 291.570395 
L 135.290751 291.570395 
L 135.361539 289.990337 
L 135.447112 289.990337 
L 135.477215 288.936964 
L 135.587148 288.936964 
L 135.696392 287.883592 
L 135.863889 287.883592 
L 135.868791 286.83022 
L 136.024936 286.83022 
L 136.024936 286.303534 
L 136.179695 286.303534 
L 136.179695 285.776848 
L 136.328319 285.776848 
L 136.404535 284.723476 
L 136.49934 284.723476 
L 136.54655 283.670104 
L 136.668701 283.670104 
L 136.696768 282.090045 
L 136.887363 282.090045 
L 136.997972 279.983301 
L 137.011749 279.983301 
L 137.107884 278.403243 
L 137.130695 278.403243 
L 137.15803 276.823185 
L 137.294062 276.823185 
L 137.294062 276.296499 
L 137.460387 276.296499 
L 137.562985 274.71644 
L 137.571878 274.71644 
L 137.678242 272.609696 
L 137.775176 272.609696 
L 137.775176 272.08301 
L 137.893409 272.08301 
L 137.893409 271.556324 
L 138.049816 271.556324 
L 138.049816 271.029638 
L 138.204833 271.029638 
L 138.204833 270.502952 
L 138.447493 270.502952 
L 138.477062 269.449579 
L 138.619973 269.449579 
L 138.619973 268.922893 
L 138.749261 268.922893 
L 138.856963 267.342835 
L 138.959898 267.342835 
L 138.996807 265.762777 
L 139.196394 265.762777 
L 139.273175 264.182719 
L 139.820926 264.182719 
L 139.895012 263.129347 
L 140.022943 263.129347 
L 140.022943 262.60266 
L 140.203543 262.60266 
L 140.291245 261.549288 
L 140.596643 261.549288 
L 140.596643 261.022602 
L 141.024894 261.022602 
L 141.024894 260.495916 
L 141.385819 260.495916 
L 141.385819 259.96923 
L 141.641136 259.96923 
L 141.641136 259.442544 
L 141.753422 259.442544 
L 141.753422 258.915858 
L 142.037896 258.915858 
L 142.037896 258.389172 
L 142.559927 258.389172 
L 142.559927 257.862486 
L 143.343554 257.862486 
L 143.343554 257.3358 
L 152.101272 257.3358 
L 152.101272 256.809114 
L 152.579665 256.809114 
L 152.579665 256.282427 
L 153.425516 256.282427 
L 153.425516 255.755741 
L 154.490245 255.755741 
L 154.490245 255.229055 
L 154.776018 255.229055 
L 154.776018 254.702369 
L 155.029433 254.702369 
L 155.029433 254.175683 
L 155.153151 254.175683 
L 155.153151 253.648997 
L 156.132461 253.648997 
L 156.190638 252.595625 
L 156.904868 252.595625 
L 156.904868 252.068939 
L 157.030583 252.068939 
L 157.030583 251.542253 
L 157.574059 251.542253 
L 157.652944 250.488881 
L 157.901343 250.488881 
L 157.901343 249.962195 
L 158.039357 249.962195 
L 158.113432 248.382136 
L 158.222599 248.382136 
L 158.222599 247.85545 
L 158.543386 247.85545 
L 158.543386 247.328764 
L 158.847883 247.328764 
L 158.847883 246.802078 
L 159.048831 246.802078 
L 159.048831 246.275392 
L 159.338324 246.275392 
L 159.419798 245.22202 
L 159.511004 245.22202 
L 159.511004 244.695334 
L 159.741941 244.695334 
L 159.741941 244.168648 
L 159.9403 244.168648 
L 159.976013 243.115275 
L 160.280882 243.115275 
L 160.280882 242.588589 
L 160.424148 242.588589 
L 160.424148 242.061903 
L 160.931074 242.061903 
L 161.030947 240.481845 
L 161.071429 240.481845 
L 161.147513 239.428473 
L 161.374928 239.428473 
L 161.374928 238.901787 
L 161.557895 238.901787 
L 161.61286 237.848415 
L 161.833219 237.848415 
L 161.92257 236.795043 
L 162.118414 236.795043 
L 162.177067 235.74167 
L 162.358289 235.74167 
L 162.358289 235.214984 
L 162.625583 235.214984 
L 162.625583 234.688298 
L 162.775007 234.688298 
L 162.856543 233.634926 
L 162.90237 233.634926 
L 162.994699 231.528182 
L 163.090659 231.528182 
L 163.10917 230.47481 
L 163.208592 230.47481 
L 163.208592 229.948123 
L 163.491439 229.948123 
L 163.59571 228.368065 
L 163.648609 228.368065 
L 163.732122 227.314693 
L 163.765812 227.314693 
L 163.860585 225.207949 
L 163.897958 225.207949 
L 163.897958 224.681263 
L 164.136041 224.681263 
L 164.136041 224.154577 
L 164.418659 224.154577 
L 164.489078 223.101204 
L 164.606445 223.101204 
L 164.701462 220.467774 
L 164.977905 220.467774 
L 165.041506 219.414402 
L 165.147911 219.414402 
L 165.24094 218.36103 
L 165.292712 218.36103 
L 165.356985 217.307658 
L 165.475853 217.307658 
L 165.516191 215.727599 
L 165.649984 215.727599 
L 165.744799 214.147541 
L 165.841738 214.147541 
L 165.841738 213.620855 
L 165.987015 213.620855 
L 166.093885 211.514111 
L 166.423374 211.514111 
L 166.507321 209.407366 
L 166.627869 209.407366 
L 166.697457 207.827308 
L 166.801736 207.827308 
L 166.886369 206.24725 
L 167.132935 206.24725 
L 167.230593 203.613819 
L 167.342228 203.613819 
L 167.395367 202.560447 
L 167.561784 202.560447 
L 167.607113 199.927017 
L 167.757364 199.927017 
L 167.757364 199.400331 
L 167.889148 199.400331 
L 167.981896 197.293586 
L 168.030798 197.293586 
L 168.049392 196.240214 
L 168.147455 196.240214 
L 168.218916 195.186842 
L 168.309168 195.186842 
L 168.411095 193.606784 
L 168.486018 193.606784 
L 168.577907 192.026726 
L 168.82332 192.026726 
L 168.917137 188.866609 
L 169.08066 188.866609 
L 169.117115 186.759865 
L 169.268677 186.759865 
L 169.311945 185.179807 
L 169.433959 185.179807 
L 169.52171 183.599748 
L 169.54731 183.599748 
L 169.566485 182.01969 
L 169.658517 182.01969 
L 169.658517 181.493004 
L 169.797062 181.493004 
L 169.832051 180.439632 
L 169.914348 180.439632 
L 170.012179 179.38626 
L 170.032924 179.38626 
L 170.114969 178.332888 
L 170.358133 178.332888 
L 170.458909 176.226143 
L 170.475761 176.226143 
L 170.555083 174.119399 
L 170.608656 174.119399 
L 170.703344 172.012655 
L 170.79686 172.012655 
L 170.865516 169.90591 
L 170.947679 169.90591 
L 170.947679 169.379224 
L 171.178286 169.379224 
L 171.247394 167.27248 
L 171.301455 167.27248 
L 171.40269 165.692422 
L 171.59141 165.692422 
L 171.680924 162.532305 
L 171.738047 162.532305 
L 171.787486 159.898875 
L 171.869161 159.898875 
L 171.959738 158.845503 
L 171.98509 158.845503 
L 171.98509 158.318817 
L 172.098413 158.318817 
L 172.195138 155.1587 
L 172.348307 155.1587 
L 172.408115 153.051956 
L 172.516333 153.051956 
L 172.626266 151.471897 
L 172.653046 151.471897 
L 172.729591 148.311781 
L 172.798135 148.311781 
L 172.847603 146.731723 
L 172.968327 146.731723 
L 173.055129 143.571606 
L 173.125303 143.571606 
L 173.226872 140.938176 
L 173.251023 140.938176 
L 173.356435 138.831432 
L 173.394091 138.831432 
L 173.464619 136.724687 
L 173.510537 136.724687 
L 173.606516 135.144629 
L 173.689085 135.144629 
L 173.772381 133.037885 
L 173.804141 133.037885 
L 173.914018 131.984513 
L 173.925631 131.984513 
L 174.030352 129.877768 
L 174.050672 129.877768 
L 174.137725 127.244338 
L 174.184085 127.244338 
L 174.184085 126.717652 
L 174.300801 126.717652 
L 174.398458 124.610907 
L 174.419429 124.610907 
L 174.458614 123.557535 
L 174.536721 123.557535 
L 174.621387 120.397419 
L 174.650579 120.397419 
L 174.714629 118.290674 
L 174.776338 118.290674 
L 174.884462 115.657244 
L 174.893877 115.657244 
L 175.001277 112.497128 
L 175.015304 112.497128 
L 175.102852 110.917069 
L 175.140533 110.917069 
L 175.222324 108.283639 
L 175.256163 108.283639 
L 175.352194 105.650209 
L 175.370523 105.650209 
L 175.481104 103.543464 
L 175.48717 103.543464 
L 175.561317 101.963406 
L 175.608064 101.963406 
L 175.707174 99.856662 
L 175.72962 99.856662 
L 175.740584 98.276603 
L 175.845384 98.276603 
L 175.924436 96.696545 
L 175.999695 96.696545 
L 176.083426 94.589801 
L 176.122461 94.589801 
L 176.219668 91.429684 
L 176.245337 91.429684 
L 176.341863 89.32294 
L 176.359661 89.32294 
L 176.450776 86.162824 
L 176.53285 86.162824 
L 176.607905 83.002707 
L 176.692075 83.002707 
L 176.796485 81.422649 
L 176.805392 81.422649 
L 176.837701 79.842591 
L 176.973767 79.842591 
L 177.020586 78.262532 
L 177.109702 78.262532 
L 177.217142 76.682474 
L 177.292961 76.682474 
L 177.383421 74.049044 
L 177.431866 74.049044 
L 177.54184 72.468985 
L 177.585815 72.468985 
L 177.669866 70.888927 
L 177.724194 70.888927 
L 177.799616 69.835555 
L 177.846479 69.835555 
L 177.951244 67.728811 
L 178.055383 67.728811 
L 178.09286 66.148752 
L 178.260089 66.148752 
L 178.36069 65.09538 
L 178.378686 65.09538 
L 178.420176 64.042008 
L 178.502436 64.042008 
L 178.600807 62.46195 
L 178.631646 62.46195 
L 178.731392 60.355206 
L 178.857673 60.355206 
L 178.948679 58.775147 
L 179.092322 58.775147 
L 179.16534 57.195089 
L 179.243351 57.195089 
L 179.267786 56.141717 
L 179.39268 56.141717 
L 179.434651 55.088345 
L 179.722084 55.088345 
L 179.722084 54.561659 
L 179.843778 54.561659 
L 179.950546 53.508287 
L 179.982215 53.508287 
L 180.057054 52.454914 
L 180.099009 52.454914 
L 180.194972 51.401542 
L 180.351324 51.401542 
L 180.365469 50.34817 
L 180.594007 50.34817 
L 180.609087 48.768112 
L 180.71578 48.768112 
L 180.71578 48.241426 
L 180.900194 48.241426 
L 180.934995 47.188054 
L 181.172297 47.188054 
L 181.172297 46.661368 
L 181.37687 46.661368 
L 181.37687 46.134681 
L 181.66228 46.134681 
L 181.66228 45.607995 
L 181.902903 45.607995 
L 181.905003 44.554623 
L 182.263381 44.554623 
L 182.263381 44.027937 
L 182.536104 44.027937 
L 182.536104 43.501251 
L 182.703663 43.501251 
L 182.703663 42.974565 
L 182.866317 42.974565 
L 182.866317 42.447879 
L 183.01467 42.447879 
L 183.11157 41.394507 
L 183.159168 41.394507 
L 183.159168 40.867821 
L 183.271775 40.867821 
L 183.271775 40.341135 
L 183.437892 40.341135 
L 183.437892 39.814448 
L 183.867036 39.814448 
L 183.924775 38.761076 
L 184.052367 38.761076 
L 184.161521 37.181018 
L 184.503037 37.181018 
L 184.503037 36.654332 
L 184.699954 36.654332 
L 184.699954 36.127646 
L 185.053688 36.127646 
L 185.053688 35.60096 
L 185.240184 35.60096 
L 185.240184 35.074274 
L 185.539263 35.074274 
L 185.539263 34.547588 
L 185.689999 34.547588 
L 185.689999 34.020902 
L 185.815976 34.020902 
L 185.815976 33.494215 
L 185.976818 33.494215 
L 185.976818 32.967529 
L 186.092494 32.967529 
L 186.188263 31.914157 
L 186.293031 31.914157 
L 186.293031 31.387471 
L 186.471106 31.387471 
L 186.471106 30.860785 
L 186.649513 30.860785 
L 186.649513 30.334099 
L 338.688 30.334099 
L 338.688 30.334099 
" style="fill:none;stroke:#000080;stroke-linecap:square;stroke-width:1.5;"/>
   </g>
   <g id="line2d_44">
    <defs>
     <path d="M 0 6 
C 1.591219 6 3.117479 5.367802 4.242641 4.242641 
C 5.367802 3.117479 6 1.591219 6 0 
C 6 -1.591219 5.367802 -3.117479 4.242641 -4.242641 
C 3.117479 -5.367802 1.591219 -6 0 -6 
C -1.591219 -6 -3.117479 -5.367802 -4.242641 -4.242641 
C -5.367802 -3.117479 -6 -1.591219 -6 0 
C -6 1.591219 -5.367802 3.117479 -4.242641 4.242641 
C -3.117479 5.367802 -1.591219 6 0 6 
z
" id="m42e2b6a401" style="stroke:#000080;stroke-width:1.5;"/>
    </defs>
    <g>
     <use style="fill-opacity:0;stroke:#000080;stroke-width:1.5;" x="166.886369" xlink:href="#m42e2b6a401" y="206.24725"/>
     <use style="fill-opacity:0;stroke:#000080;stroke-width:1.5;" x="182.536104" xlink:href="#m42e2b6a401" y="44.027937"/>
     <use style="fill-opacity:0;stroke:#000080;stroke-width:1.5;" x="186.649513" xlink:href="#m42e2b6a401" y="30.334099"/>
     <use style="fill-opacity:0;stroke:#000080;stroke-width:1.5;" x="186.649513" xlink:href="#m42e2b6a401" y="30.334099"/>
     <use style="fill-opacity:0;stroke:#000080;stroke-width:1.5;" x="338.688" xlink:href="#m42e2b6a401" y="30.334099"/>
    </g>
   </g>
   <g id="line2d_45">
    <path style="fill:none;stroke:#000080;stroke-linecap:square;stroke-width:1.5;"/>
    <g/>
   </g>
   <g id="line2d_46">
    <defs>
     <path d="M 0 1.5 
C 0.397805 1.5 0.77937 1.341951 1.06066 1.06066 
C 1.341951 0.77937 1.5 0.397805 1.5 0 
C 1.5 -0.397805 1.341951 -0.77937 1.06066 -1.06066 
C 0.77937 -1.341951 0.397805 -1.5 0 -1.5 
C -0.397805 -1.5 -0.77937 -1.341951 -1.06066 -1.06066 
C -1.341951 -0.77937 -1.5 -0.397805 -1.5 0 
C -1.5 0.397805 -1.341951 0.77937 -1.06066 1.06066 
C -0.77937 1.341951 -0.397805 1.5 0 1.5 
z
" id="mf623d15aa0" style="stroke:#ff0000;"/>
    </defs>
    <g>
     <use style="fill:#ff0000;stroke:#ff0000;" x="177.970982" xlink:href="#mf623d15aa0" y="30.334099"/>
     <use style="fill:#ff0000;stroke:#ff0000;" x="177.970982" xlink:href="#mf623d15aa0" y="30.334099"/>
    </g>
   </g>
   <g id="line2d_47">
    <path d="M 123.543933 298.944 
L 123.543933 298.417314 
L 126.953823 298.417314 
L 126.953823 297.890628 
L 127.075976 297.890628 
L 127.165014 296.837256 
L 127.579875 296.837256 
L 127.579875 296.31057 
L 127.969682 296.31057 
L 127.985095 295.257197 
L 128.184228 295.257197 
L 128.275374 294.203825 
L 128.486215 294.203825 
L 128.560901 293.150453 
L 128.92961 293.150453 
L 128.92961 292.623767 
L 129.211887 292.623767 
L 129.211887 292.097081 
L 129.397565 292.097081 
L 129.433047 290.517023 
L 129.79784 290.517023 
L 129.846369 288.936964 
L 130.317637 288.936964 
L 130.425122 287.883592 
L 130.51863 287.883592 
L 130.51863 287.356906 
L 130.638123 287.356906 
L 130.638123 286.83022 
L 130.750231 286.83022 
L 130.750231 286.303534 
L 131.030622 286.303534 
L 131.108073 283.143418 
L 131.197999 283.143418 
L 131.26195 278.929929 
L 131.395487 278.929929 
L 131.496548 276.296499 
L 131.584498 276.296499 
L 131.684473 274.189754 
L 131.703155 274.189754 
L 131.703155 273.663068 
L 131.99937 273.663068 
L 131.99937 273.136382 
L 132.434469 273.136382 
L 132.440436 272.08301 
L 132.61851 272.08301 
L 132.61851 271.556324 
L 132.730358 271.556324 
L 132.771384 270.502952 
L 132.975083 270.502952 
L 132.975083 269.976266 
L 133.199293 269.976266 
L 133.199293 269.449579 
L 133.403728 269.449579 
L 133.403728 268.922893 
L 133.82209 268.922893 
L 133.82209 268.396207 
L 133.937455 268.396207 
L 133.981204 267.342835 
L 134.300504 267.342835 
L 134.300504 266.816149 
L 134.734788 266.816149 
L 134.734788 266.289463 
L 135.854081 266.289463 
L 135.854081 265.762777 
L 136.323544 265.762777 
L 136.323544 265.236091 
L 136.48042 265.236091 
L 136.48042 264.709405 
L 137.491677 264.709405 
L 137.491677 264.182719 
L 138.028177 264.182719 
L 138.028177 263.656033 
L 138.153314 263.656033 
L 138.153314 263.129347 
L 138.54446 263.129347 
L 138.59903 262.075974 
L 139.07039 262.075974 
L 139.07039 261.549288 
L 139.69937 261.549288 
L 139.69937 261.022602 
L 140.19972 261.022602 
L 140.19972 260.495916 
L 140.607852 260.495916 
L 140.611586 259.442544 
L 141.428632 259.442544 
L 141.428632 258.915858 
L 143.044063 258.915858 
L 143.063541 257.862486 
L 143.581387 257.862486 
L 143.581387 257.3358 
L 143.834656 257.3358 
L 143.834656 256.809114 
L 144.750735 256.809114 
L 144.750735 256.282427 
L 145.494539 256.282427 
L 145.562144 255.229055 
L 145.732804 255.229055 
L 145.732804 254.702369 
L 145.945869 254.702369 
L 145.948619 253.648997 
L 146.121002 253.648997 
L 146.121002 253.122311 
L 146.345539 253.122311 
L 146.439364 252.068939 
L 146.54332 252.068939 
L 146.54332 251.542253 
L 146.662505 251.542253 
L 146.662505 251.015567 
L 147.100399 251.015567 
L 147.100399 250.488881 
L 147.300029 250.488881 
L 147.320375 249.435508 
L 148.76137 249.435508 
L 148.76137 248.908822 
L 149.106622 248.908822 
L 149.191307 247.85545 
L 149.566262 247.85545 
L 149.572965 246.802078 
L 149.89828 246.802078 
L 149.89828 246.275392 
L 150.01192 246.275392 
L 150.092331 245.22202 
L 150.527024 245.22202 
L 150.546047 244.168648 
L 150.866312 244.168648 
L 150.909814 243.115275 
L 151.672873 243.115275 
L 151.718363 242.061903 
L 152.287708 242.061903 
L 152.39064 240.481845 
L 152.492968 240.481845 
L 152.492968 239.955159 
L 152.632227 239.955159 
L 152.733151 237.848415 
L 152.959038 237.848415 
L 152.962716 236.795043 
L 153.098289 236.795043 
L 153.121997 235.74167 
L 153.223758 235.74167 
L 153.332133 234.688298 
L 153.48809 234.688298 
L 153.561106 233.634926 
L 153.944287 233.634926 
L 154.022346 232.054868 
L 154.127605 232.054868 
L 154.127605 231.528182 
L 154.239071 231.528182 
L 154.295391 230.47481 
L 154.789273 230.47481 
L 154.881781 228.894751 
L 154.936065 228.894751 
L 154.936065 228.368065 
L 155.123929 228.368065 
L 155.170985 227.314693 
L 155.261495 227.314693 
L 155.261495 226.788007 
L 155.434735 226.788007 
L 155.45866 225.734635 
L 155.644161 225.734635 
L 155.644161 225.207949 
L 155.768307 225.207949 
L 155.768307 224.681263 
L 155.904009 224.681263 
L 155.904009 224.154577 
L 156.066395 224.154577 
L 156.066395 223.627891 
L 156.2745 223.627891 
L 156.37914 222.574518 
L 156.453071 222.574518 
L 156.487665 220.99446 
L 156.753099 220.99446 
L 156.821042 219.414402 
L 156.907802 219.414402 
L 156.910735 218.36103 
L 157.071319 218.36103 
L 157.171299 216.254285 
L 157.376698 216.254285 
L 157.447948 215.200913 
L 157.503322 215.200913 
L 157.54297 214.147541 
L 157.621996 214.147541 
L 157.65997 213.094169 
L 157.755244 213.094169 
L 157.755244 212.567483 
L 157.9318 212.567483 
L 157.9318 212.040797 
L 158.065456 212.040797 
L 158.121643 210.460738 
L 158.371595 210.460738 
L 158.371595 209.934052 
L 158.60205 209.934052 
L 158.648574 208.88068 
L 158.809781 208.88068 
L 158.809781 208.353994 
L 158.966905 208.353994 
L 158.99816 207.300622 
L 159.086415 207.300622 
L 159.1265 205.720564 
L 159.337048 205.720564 
L 159.337048 205.193878 
L 159.563988 205.193878 
L 159.563988 204.667192 
L 159.719484 204.667192 
L 159.728221 203.613819 
L 159.888449 203.613819 
L 159.980933 202.560447 
L 160.027605 202.560447 
L 160.034962 201.507075 
L 160.196054 201.507075 
L 160.250633 200.453703 
L 160.37492 200.453703 
L 160.468454 198.873645 
L 160.543637 198.873645 
L 160.648114 197.293586 
L 160.65758 197.293586 
L 160.717812 195.713528 
L 160.798971 195.713528 
L 160.861056 194.660156 
L 161.066807 194.660156 
L 161.161311 193.606784 
L 161.207225 193.606784 
L 161.266733 190.973354 
L 161.499373 190.973354 
L 161.548904 189.393295 
L 161.61398 189.393295 
L 161.7078 187.286551 
L 161.917067 187.286551 
L 161.97969 186.233179 
L 162.124941 186.233179 
L 162.23228 185.179807 
L 162.283008 185.179807 
L 162.341111 183.599748 
L 162.554634 183.599748 
L 162.554634 183.073062 
L 162.712026 183.073062 
L 162.718335 182.01969 
L 162.868011 182.01969 
L 162.927316 180.439632 
L 162.99263 180.439632 
L 163.072127 179.38626 
L 163.108143 179.38626 
L 163.169711 177.279515 
L 163.235146 177.279515 
L 163.235146 176.752829 
L 163.414845 176.752829 
L 163.46628 175.699457 
L 163.666539 175.699457 
L 163.769771 173.066027 
L 163.778676 173.066027 
L 163.871412 171.485969 
L 163.93231 171.485969 
L 164.02716 169.379224 
L 164.046653 169.379224 
L 164.093347 167.799166 
L 164.431051 167.799166 
L 164.53271 166.219108 
L 164.584735 166.219108 
L 164.641313 165.165736 
L 164.726775 165.165736 
L 164.795964 163.058991 
L 164.945554 163.058991 
L 165.001898 161.478933 
L 165.150654 161.478933 
L 165.251852 159.898875 
L 165.284547 159.898875 
L 165.367825 157.79213 
L 165.43632 157.79213 
L 165.53409 156.212072 
L 165.582324 156.212072 
L 165.582324 155.685386 
L 165.719152 155.685386 
L 165.719152 155.1587 
L 165.842616 155.1587 
L 165.9084 153.578642 
L 165.966085 153.578642 
L 166.02532 151.998584 
L 166.125905 151.998584 
L 166.227632 150.418525 
L 166.278274 150.418525 
L 166.366332 147.785095 
L 166.525921 147.785095 
L 166.623668 146.205037 
L 166.684901 146.205037 
L 166.793417 145.151665 
L 166.886369 145.151665 
L 166.996933 142.518234 
L 167.090446 142.518234 
L 167.184273 140.41149 
L 167.290544 140.41149 
L 167.351096 138.304745 
L 167.405815 138.304745 
L 167.493969 137.251373 
L 167.59758 137.251373 
L 167.687935 135.144629 
L 167.748701 135.144629 
L 167.848464 131.984513 
L 167.986559 131.984513 
L 167.986559 131.457826 
L 168.158231 131.457826 
L 168.26563 129.877768 
L 168.283211 129.877768 
L 168.386049 127.244338 
L 168.423226 127.244338 
L 168.50187 126.190966 
L 168.615427 126.190966 
L 168.66184 125.137593 
L 168.779563 125.137593 
L 168.88469 121.977477 
L 168.914927 121.977477 
L 168.974508 120.924105 
L 169.066057 120.924105 
L 169.123669 119.344047 
L 169.192698 119.344047 
L 169.221681 117.237302 
L 169.315546 117.237302 
L 169.385973 115.130558 
L 169.438249 115.130558 
L 169.503198 112.497128 
L 169.591311 112.497128 
L 169.69308 108.810325 
L 169.783747 108.810325 
L 169.858596 106.703581 
L 169.953963 106.703581 
L 170.035688 104.596836 
L 170.072271 104.596836 
L 170.180876 101.963406 
L 170.191836 101.963406 
L 170.239707 100.910034 
L 170.305145 100.910034 
L 170.369661 98.803289 
L 170.43664 98.803289 
L 170.537636 97.223231 
L 170.598623 97.223231 
L 170.697358 94.589801 
L 170.741872 94.589801 
L 170.839141 90.376312 
L 170.969305 90.376312 
L 170.969305 89.849626 
L 171.092003 89.849626 
L 171.176345 87.216196 
L 171.219009 87.216196 
L 171.301455 85.636137 
L 171.345097 85.636137 
L 171.452451 83.002707 
L 171.520483 83.002707 
L 171.617934 80.369277 
L 171.660792 80.369277 
L 171.757464 76.682474 
L 171.784987 76.682474 
L 171.821824 75.629102 
L 171.900854 75.629102 
L 171.998061 73.522358 
L 172.014107 73.522358 
L 172.068921 70.888927 
L 172.163975 70.888927 
L 172.235993 69.308869 
L 172.275537 69.308869 
L 172.381559 67.202125 
L 172.489941 67.202125 
L 172.512137 65.622066 
L 172.625074 65.622066 
L 172.675629 64.042008 
L 172.802263 64.042008 
L 172.895172 61.935264 
L 172.980587 61.935264 
L 173.002167 60.881892 
L 173.211905 60.881892 
L 173.242402 59.301833 
L 173.375844 59.301833 
L 173.375844 58.775147 
L 173.512235 58.775147 
L 173.611582 57.721775 
L 173.66385 57.721775 
L 173.764013 56.141717 
L 173.939998 56.141717 
L 174.038043 52.9816 
L 174.07919 52.9816 
L 174.13117 51.928228 
L 174.192253 51.928228 
L 174.273728 50.874856 
L 174.315944 50.874856 
L 174.415667 49.294798 
L 174.453252 49.294798 
L 174.509477 47.71474 
L 174.589486 47.71474 
L 174.693481 46.134681 
L 174.735751 46.134681 
L 174.845174 44.027937 
L 174.888124 44.027937 
L 174.997638 41.921193 
L 175.046437 41.921193 
L 175.147235 40.341135 
L 175.289425 40.341135 
L 175.345571 39.287762 
L 175.489192 39.287762 
L 175.489192 38.761076 
L 175.639159 38.761076 
L 175.639159 38.23439 
L 175.823086 38.23439 
L 175.900264 37.181018 
L 176.089775 37.181018 
L 176.089775 36.654332 
L 176.249208 36.654332 
L 176.249208 36.127646 
L 176.421096 36.127646 
L 176.426366 35.074274 
L 176.615014 35.074274 
L 176.615014 34.547588 
L 176.881619 34.547588 
L 176.946825 33.494215 
L 177.121212 33.494215 
L 177.121212 32.967529 
L 177.276547 32.967529 
L 177.276547 32.440843 
L 177.435031 32.440843 
L 177.435031 31.914157 
L 177.613579 31.914157 
L 177.613579 31.387471 
L 177.759728 31.387471 
L 177.759728 30.860785 
L 177.970982 30.860785 
L 177.970982 30.334099 
L 338.688 30.334099 
L 338.688 30.334099 
" style="fill:none;stroke:#ff0000;stroke-linecap:square;stroke-width:1.5;"/>
   </g>
   <g id="line2d_48">
    <defs>
     <path d="M 0 -6 
L -5.196152 -3 
L -5.196152 3 
L -0 6 
L 5.196152 3 
L 5.196152 -3 
z
" id="m426cb62484" style="stroke:#ff0000;stroke-linejoin:miter;stroke-width:1.5;"/>
    </defs>
    <g>
     <use style="fill-opacity:0;stroke:#ff0000;stroke-linejoin:miter;stroke-width:1.5;" x="163.169711" xlink:href="#m426cb62484" y="177.806202"/>
     <use style="fill-opacity:0;stroke:#ff0000;stroke-linejoin:miter;stroke-width:1.5;" x="177.970982" xlink:href="#m426cb62484" y="30.860785"/>
     <use style="fill-opacity:0;stroke:#ff0000;stroke-linejoin:miter;stroke-width:1.5;" x="177.970982" xlink:href="#m426cb62484" y="30.334099"/>
     <use style="fill-opacity:0;stroke:#ff0000;stroke-linejoin:miter;stroke-width:1.5;" x="177.970982" xlink:href="#m426cb62484" y="30.334099"/>
     <use style="fill-opacity:0;stroke:#ff0000;stroke-linejoin:miter;stroke-width:1.5;" x="338.688" xlink:href="#m426cb62484" y="30.334099"/>
    </g>
   </g>
   <g id="line2d_49">
    <path style="fill:none;stroke:#ff0000;stroke-linecap:square;stroke-width:1.5;"/>
    <g/>
   </g>
   <g id="line2d_50">
    <path clip-path="url(#pbe1e2d4817)" d="M 57.6 298.944 
L 57.6 298.944 
L 57.6 298.944 
L 57.6 298.944 
L 338.688 298.944 
" style="fill:none;stroke:#bebebe;stroke-linecap:square;stroke-width:1.5;"/>
   </g>
   <g id="line2d_51">
    <defs>
     <path d="M 0 0 
L -6 -0 
M 0 0 
L 3 4.8 
M 0 0 
L 3 -4.8 
" id="ma3af4d124f" style="stroke:#bebebe;stroke-width:1.5;"/>
    </defs>
    <g clip-path="url(#pbe1e2d4817)">
     <use style="fill-opacity:0;stroke:#bebebe;stroke-width:1.5;" x="57.6" xlink:href="#ma3af4d124f" y="298.944"/>
    </g>
   </g>
   <g id="line2d_52">
    <path clip-path="url(#pbe1e2d4817)" style="fill:none;stroke:#bebebe;stroke-linecap:square;stroke-width:1.5;"/>
    <g clip-path="url(#pbe1e2d4817)">
     <use style="fill-opacity:0;stroke:#bebebe;stroke-width:1.5;" x="-1" xlink:href="#ma3af4d124f" y="567.553901"/>
     <use style="fill-opacity:0;stroke:#bebebe;stroke-width:1.5;" x="338.688" xlink:href="#ma3af4d124f" y="567.553901"/>
    </g>
   </g>
   <g id="line2d_53">
    <defs>
     <path d="M 0 1.5 
C 0.397805 1.5 0.77937 1.341951 1.06066 1.06066 
C 1.341951 0.77937 1.5 0.397805 1.5 0 
C 1.5 -0.397805 1.341951 -0.77937 1.06066 -1.06066 
C 0.77937 -1.341951 0.397805 -1.5 0 -1.5 
C -0.397805 -1.5 -0.77937 -1.341951 -1.06066 -1.06066 
C -1.341951 -0.77937 -1.5 -0.397805 -1.5 0 
C -1.5 0.397805 -1.341951 0.77937 -1.06066 1.06066 
C -0.77937 1.341951 -0.397805 1.5 0 1.5 
z
" id="m5aacc4886f" style="stroke:#6495ed;"/>
    </defs>
    <g>
     <use style="fill:#6495ed;stroke:#6495ed;" x="247.134987" xlink:href="#m5aacc4886f" y="30.334099"/>
     <use style="fill:#6495ed;stroke:#6495ed;" x="247.134987" xlink:href="#m5aacc4886f" y="30.334099"/>
    </g>
   </g>
   <g id="line2d_54">
    <path d="M 121.196777 298.944 
L 121.196777 297.890628 
L 126.030894 297.890628 
L 126.030894 297.363942 
L 126.797858 297.363942 
L 126.797858 296.837256 
L 127.532507 296.837256 
L 127.532507 295.783884 
L 128.237455 295.783884 
L 128.237455 295.257197 
L 128.694536 295.257197 
L 128.731476 293.150453 
L 129.03872 293.150453 
L 129.03872 291.043709 
L 129.340644 291.043709 
L 129.340644 288.936964 
L 129.63743 288.936964 
L 129.63743 287.883592 
L 129.929249 287.883592 
L 129.991152 286.83022 
L 130.874681 286.83022 
L 130.874681 286.303534 
L 133.733678 286.303534 
L 133.805547 285.250162 
L 134.37008 285.250162 
L 134.37008 284.723476 
L 135.153413 284.723476 
L 135.153413 284.19679 
L 135.621981 284.19679 
L 135.621981 283.670104 
L 136.203752 283.670104 
L 136.256562 282.616732 
L 137.189866 282.616732 
L 137.189866 282.090045 
L 137.442482 282.090045 
L 137.442482 281.563359 
L 137.656136 281.563359 
L 137.757592 280.509987 
L 137.989158 280.509987 
L 137.989158 279.983301 
L 139.18424 279.983301 
L 139.261074 278.929929 
L 139.389719 278.929929 
L 139.389719 278.403243 
L 139.695435 278.403243 
L 139.695435 277.876557 
L 140.12692 277.876557 
L 140.12692 277.349871 
L 141.0103 277.349871 
L 141.046761 275.769812 
L 141.126708 275.769812 
L 141.126708 275.243126 
L 141.767407 275.243126 
L 141.871938 274.189754 
L 141.941279 274.189754 
L 141.941279 273.663068 
L 142.405626 273.663068 
L 142.405626 273.136382 
L 142.732726 273.136382 
L 142.808614 271.556324 
L 142.933275 271.556324 
L 142.933275 271.029638 
L 143.327582 271.029638 
L 143.346746 269.976266 
L 143.584537 269.976266 
L 143.584537 269.449579 
L 144.075117 269.449579 
L 144.148442 268.396207 
L 144.495579 268.396207 
L 144.495579 267.869521 
L 144.747789 267.869521 
L 144.747789 267.342835 
L 145.241524 267.342835 
L 145.324371 265.762777 
L 145.378437 265.762777 
L 145.477597 264.709405 
L 145.841045 264.709405 
L 145.841045 264.182719 
L 146.003528 264.182719 
L 146.003528 263.656033 
L 146.1808 263.656033 
L 146.1808 263.129347 
L 146.305173 263.129347 
L 146.305173 262.60266 
L 146.428666 262.60266 
L 146.522046 261.549288 
L 146.966032 261.549288 
L 146.999721 259.96923 
L 147.205618 259.96923 
L 147.205618 259.442544 
L 147.398994 259.442544 
L 147.398994 258.915858 
L 147.645223 258.915858 
L 147.727361 257.862486 
L 147.924891 257.862486 
L 147.924891 257.3358 
L 148.037466 257.3358 
L 148.037466 256.809114 
L 148.178381 256.809114 
L 148.233947 255.755741 
L 148.558941 255.755741 
L 148.665156 254.175683 
L 148.744981 254.175683 
L 148.75903 253.122311 
L 148.954534 253.122311 
L 149.037656 251.542253 
L 149.418147 251.542253 
L 149.528232 249.962195 
L 149.60644 249.962195 
L 149.633173 248.382136 
L 149.902665 248.382136 
L 149.981398 246.275392 
L 150.085825 246.275392 
L 150.18963 244.695334 
L 150.269227 244.695334 
L 150.369816 243.115275 
L 150.461339 243.115275 
L 150.537595 241.535217 
L 150.714239 241.535217 
L 150.714239 241.008531 
L 150.87668 241.008531 
L 150.87668 240.481845 
L 151.0766 240.481845 
L 151.148178 239.428473 
L 151.247895 239.428473 
L 151.308666 238.375101 
L 151.419533 238.375101 
L 151.419533 237.848415 
L 151.567595 237.848415 
L 151.674853 236.268356 
L 151.832551 236.268356 
L 151.928441 235.214984 
L 152.017984 235.214984 
L 152.093541 233.634926 
L 152.228342 233.634926 
L 152.33925 232.054868 
L 152.500524 232.054868 
L 152.577785 230.47481 
L 152.714506 230.47481 
L 152.818666 228.894751 
L 152.872362 228.894751 
L 152.872362 228.368065 
L 153.025137 228.368065 
L 153.13475 225.207949 
L 153.294279 225.207949 
L 153.294279 224.681263 
L 153.434469 224.681263 
L 153.486306 223.101204 
L 153.630278 223.101204 
L 153.658577 220.99446 
L 153.787112 220.99446 
L 153.879842 218.887716 
L 153.935592 218.887716 
L 154.025807 217.834344 
L 154.096611 217.834344 
L 154.096611 217.307658 
L 154.227102 217.307658 
L 154.314123 215.200913 
L 154.441313 215.200913 
L 154.505403 213.094169 
L 154.651255 213.094169 
L 154.689611 212.040797 
L 154.809138 212.040797 
L 154.866947 210.460738 
L 155.073486 210.460738 
L 155.135299 208.353994 
L 155.209833 208.353994 
L 155.217915 207.300622 
L 155.359555 207.300622 
L 155.413973 206.24725 
L 155.480961 206.24725 
L 155.547693 203.613819 
L 155.629961 203.613819 
L 155.629961 203.087133 
L 155.808972 203.087133 
L 155.90867 200.980389 
L 156.153918 200.980389 
L 156.153918 200.453703 
L 156.32614 200.453703 
L 156.392743 199.400331 
L 156.598505 199.400331 
L 156.598505 198.873645 
L 156.72644 198.873645 
L 156.834305 197.820273 
L 156.973685 197.820273 
L 157.016011 196.240214 
L 157.339532 196.240214 
L 157.339532 195.713528 
L 157.637477 195.713528 
L 157.637477 195.186842 
L 157.861114 195.186842 
L 157.861114 194.660156 
L 157.977386 194.660156 
L 158.048977 193.606784 
L 158.222599 193.606784 
L 158.266075 192.553412 
L 158.379686 192.553412 
L 158.464411 187.813237 
L 158.520667 187.813237 
L 158.607374 184.126434 
L 158.655211 184.126434 
L 158.655211 183.599748 
L 158.774233 183.599748 
L 158.884591 182.01969 
L 158.932981 182.01969 
L 158.932981 181.493004 
L 159.120041 181.493004 
L 159.120041 180.966318 
L 159.261595 180.966318 
L 159.269283 179.912946 
L 159.396922 179.912946 
L 159.429956 178.332888 
L 159.536255 178.332888 
L 159.597964 177.279515 
L 159.695748 177.279515 
L 159.76935 176.226143 
L 159.847601 176.226143 
L 159.951391 174.646085 
L 159.980933 174.646085 
L 160.009196 173.592713 
L 160.105929 173.592713 
L 160.214266 170.959282 
L 160.23852 170.959282 
L 160.340016 168.325852 
L 160.367704 168.325852 
L 160.367704 167.799166 
L 160.571004 167.799166 
L 160.586453 166.745794 
L 160.714274 166.745794 
L 160.824769 163.585677 
L 160.885594 163.585677 
L 160.918259 162.532305 
L 161.012409 162.532305 
L 161.065652 160.425561 
L 161.16246 160.425561 
L 161.259877 159.372189 
L 161.354479 159.372189 
L 161.453093 157.79213 
L 161.591568 157.79213 
L 161.591568 157.265444 
L 161.780054 157.265444 
L 161.80001 156.212072 
L 161.939066 156.212072 
L 162.019126 155.1587 
L 162.058472 155.1587 
L 162.169475 153.578642 
L 162.33359 153.578642 
L 162.43004 151.998584 
L 162.470604 151.998584 
L 162.560999 150.418525 
L 162.605493 150.418525 
L 162.672021 147.258409 
L 162.752989 147.258409 
L 162.752989 146.731723 
L 163.043261 146.731723 
L 163.130743 144.624978 
L 163.21881 144.624978 
L 163.321673 143.04492 
L 163.351096 143.04492 
L 163.398677 141.991548 
L 163.479367 141.991548 
L 163.575706 139.884804 
L 163.609699 139.884804 
L 163.704329 137.778059 
L 163.732122 137.778059 
L 163.816224 136.724687 
L 163.916614 136.724687 
L 164.022284 135.671315 
L 164.082658 135.671315 
L 164.082658 135.144629 
L 164.590401 135.144629 
L 164.67987 133.564571 
L 164.908508 133.564571 
L 165.006508 131.457826 
L 165.064493 131.457826 
L 165.064493 130.93114 
L 165.179889 130.93114 
L 165.202694 129.877768 
L 165.295432 129.877768 
L 165.404809 128.29771 
L 165.430922 128.29771 
L 165.522458 126.717652 
L 165.621527 126.717652 
L 165.67307 125.66428 
L 165.773937 125.66428 
L 165.821513 124.084221 
L 165.885623 124.084221 
L 165.923277 122.504163 
L 166.051389 122.504163 
L 166.08522 120.397419 
L 166.303112 120.397419 
L 166.303112 119.870733 
L 166.442913 119.870733 
L 166.442913 119.344047 
L 166.65557 119.344047 
L 166.757598 118.290674 
L 166.872292 118.290674 
L 166.872292 117.763988 
L 167.080626 117.763988 
L 167.080626 117.237302 
L 167.354319 117.237302 
L 167.456358 115.657244 
L 167.557006 115.657244 
L 167.657077 114.603872 
L 167.783329 114.603872 
L 167.891492 113.023814 
L 168.015289 113.023814 
L 168.054037 111.970441 
L 168.178995 111.970441 
L 168.187448 110.917069 
L 168.346509 110.917069 
L 168.346509 110.390383 
L 168.501115 110.390383 
L 168.601179 108.810325 
L 168.659597 108.810325 
L 168.753553 107.756953 
L 168.844047 107.756953 
L 168.947317 105.123522 
L 169.00019 105.123522 
L 169.09598 102.490092 
L 169.157127 102.490092 
L 169.218061 100.910034 
L 169.370905 100.910034 
L 169.443254 99.856662 
L 169.511032 99.856662 
L 169.551573 97.749917 
L 169.639443 97.749917 
L 169.639443 97.223231 
L 169.759896 97.223231 
L 169.804065 95.643173 
L 169.878826 95.643173 
L 169.970616 93.009743 
L 170.087434 93.009743 
L 170.114281 91.95637 
L 170.201421 91.95637 
L 170.289489 90.376312 
L 170.358812 90.376312 
L 170.462281 88.269568 
L 170.518156 88.269568 
L 170.618682 86.68951 
L 170.63271 86.68951 
L 170.717968 84.056079 
L 170.856948 84.056079 
L 170.856948 83.529393 
L 170.968651 83.529393 
L 171.079642 82.476021 
L 171.162748 82.476021 
L 171.24546 81.422649 
L 171.327782 81.422649 
L 171.354709 79.842591 
L 171.552183 79.842591 
L 171.606572 78.262532 
L 175.823086 78.262532 
L 175.823086 77.735846 
L 178.866837 77.735846 
L 178.972288 75.629102 
L 179.025188 75.629102 
L 179.096021 74.049044 
L 179.173934 74.049044 
L 179.173934 73.522358 
L 180.471759 73.522358 
L 180.471759 72.468985 
L 181.791636 72.468985 
L 181.791636 71.942299 
L 183.044846 71.942299 
L 183.086415 70.888927 
L 183.198517 70.888927 
L 183.295695 68.782183 
L 183.326033 68.782183 
L 183.339894 67.728811 
L 183.539803 67.728811 
L 183.539803 67.202125 
L 183.749095 67.202125 
L 183.749095 66.675439 
L 184.093766 66.675439 
L 184.093766 66.148752 
L 186.982127 66.148752 
L 186.982127 65.622066 
L 187.329804 65.622066 
L 187.329804 65.09538 
L 188.062388 65.09538 
L 188.109267 64.042008 
L 188.450535 64.042008 
L 188.450535 63.515322 
L 191.776338 63.515322 
L 191.791031 62.46195 
L 195.108239 62.46195 
L 195.108239 61.935264 
L 195.663749 61.935264 
L 195.73101 59.301833 
L 196.193322 59.301833 
L 196.193322 58.775147 
L 197.788685 58.775147 
L 197.878646 57.195089 
L 198.035837 57.195089 
L 198.035837 56.668403 
L 199.065932 56.668403 
L 199.065932 56.141717 
L 200.891858 56.141717 
L 200.891858 55.615031 
L 204.000845 55.615031 
L 204.000845 55.088345 
L 205.151055 55.088345 
L 205.155113 53.508287 
L 205.548339 53.508287 
L 205.65451 49.294798 
L 205.663022 49.294798 
L 205.663022 48.768112 
L 207.07124 48.768112 
L 207.07124 48.241426 
L 210.561182 48.241426 
L 210.561182 47.71474 
L 210.779656 47.71474 
L 210.782729 45.607995 
L 213.77382 45.607995 
L 213.77382 45.081309 
L 223.039119 45.081309 
L 223.039119 44.554623 
L 223.398196 44.554623 
L 223.398196 44.027937 
L 225.352217 44.027937 
L 225.352217 43.501251 
L 230.629703 43.501251 
L 230.731113 41.921193 
L 230.816677 41.921193 
L 230.867907 39.287762 
L 230.92829 39.287762 
L 230.92829 38.761076 
L 231.045422 38.761076 
L 231.063197 37.707704 
L 231.89321 37.707704 
L 231.89321 37.181018 
L 233.199702 37.181018 
L 233.199702 36.654332 
L 233.662031 36.654332 
L 233.662031 36.127646 
L 234.223265 36.127646 
L 234.223265 35.60096 
L 234.343083 35.60096 
L 234.356311 34.547588 
L 234.615957 34.547588 
L 234.615957 34.020902 
L 234.817018 34.020902 
L 234.817018 33.494215 
L 236.419087 33.494215 
L 236.419087 32.967529 
L 236.964906 32.967529 
L 236.964906 32.440843 
L 243.343281 32.440843 
L 243.343281 31.914157 
L 243.835781 31.914157 
L 243.835781 31.387471 
L 244.58378 31.387471 
L 244.58378 30.860785 
L 247.134987 30.860785 
L 247.134987 30.334099 
L 338.688 30.334099 
L 338.688 30.334099 
" style="fill:none;stroke:#6495ed;stroke-linecap:square;stroke-width:1.5;"/>
   </g>
   <g id="line2d_55">
    <defs>
     <path d="M -0 6 
L 6 -6 
L -6 -6 
z
" id="m246510ad4d" style="stroke:#6495ed;stroke-linejoin:miter;stroke-width:1.5;"/>
    </defs>
    <g>
     <use style="fill-opacity:0;stroke:#6495ed;stroke-linejoin:miter;stroke-width:1.5;" x="155.89313" xlink:href="#m246510ad4d" y="201.507075"/>
     <use style="fill-opacity:0;stroke:#6495ed;stroke-linejoin:miter;stroke-width:1.5;" x="198.035837" xlink:href="#m246510ad4d" y="56.668403"/>
     <use style="fill-opacity:0;stroke:#6495ed;stroke-linejoin:miter;stroke-width:1.5;" x="247.134987" xlink:href="#m246510ad4d" y="30.860785"/>
     <use style="fill-opacity:0;stroke:#6495ed;stroke-linejoin:miter;stroke-width:1.5;" x="247.134987" xlink:href="#m246510ad4d" y="30.334099"/>
     <use style="fill-opacity:0;stroke:#6495ed;stroke-linejoin:miter;stroke-width:1.5;" x="338.688" xlink:href="#m246510ad4d" y="30.334099"/>
    </g>
   </g>
   <g id="line2d_56">
    <path style="fill:none;stroke:#6495ed;stroke-linecap:square;stroke-width:1.5;"/>
    <g/>
   </g>
   <g id="line2d_57">
    <path clip-path="url(#pbe1e2d4817)" d="M 230.507364 43.501251 
" style="fill:none;stroke:#6495ed;stroke-linecap:square;stroke-width:1.5;"/>
    <defs>
     <path d="M -12 12 
L 12 -12 
M -12 -12 
L 12 12 
" id="mad1ebfb6da" style="stroke:#6495ed;"/>
    </defs>
    <g clip-path="url(#pbe1e2d4817)">
     <use style="fill:#6495ed;stroke:#6495ed;" x="230.507364" xlink:href="#mad1ebfb6da" y="43.501251"/>
    </g>
   </g>
   <g id="line2d_58">
    <path d="M 338.688 298.944 
L 369.60768 293.571802 
" style="fill:none;stroke:#bebebe;stroke-linecap:square;stroke-width:1.5;"/>
    <g>
     <use style="fill-opacity:0;stroke:#bebebe;stroke-width:1.5;" x="338.688" xlink:href="#ma3af4d124f" y="298.944"/>
     <use style="fill-opacity:0;stroke:#bebebe;stroke-width:1.5;" x="369.60768" xlink:href="#ma3af4d124f" y="293.571802"/>
    </g>
   </g>
   <g id="line2d_59">
    <path d="M 338.688 30.334099 
L 369.60768 229.105426 
" style="fill:none;stroke:#6495ed;stroke-linecap:square;stroke-width:1.5;"/>
    <g>
     <use style="fill-opacity:0;stroke:#6495ed;stroke-linejoin:miter;stroke-width:1.5;" x="338.688" xlink:href="#m246510ad4d" y="30.334099"/>
     <use style="fill-opacity:0;stroke:#6495ed;stroke-linejoin:miter;stroke-width:1.5;" x="369.60768" xlink:href="#m246510ad4d" y="229.105426"/>
    </g>
   </g>
   <g id="line2d_60">
    <path d="M 338.688 30.334099 
L 369.60768 164.63905 
" style="fill:none;stroke:#000080;stroke-linecap:square;stroke-width:1.5;"/>
    <g>
     <use style="fill-opacity:0;stroke:#000080;stroke-width:1.5;" x="338.688" xlink:href="#m42e2b6a401" y="30.334099"/>
     <use style="fill-opacity:0;stroke:#000080;stroke-width:1.5;" x="369.60768" xlink:href="#m42e2b6a401" y="164.63905"/>
    </g>
   </g>
   <g id="line2d_61">
    <path d="M 338.688 30.334099 
L 369.60768 100.172673 
" style="fill:none;stroke:#ff0000;stroke-linecap:square;stroke-width:1.5;"/>
    <g>
     <use style="fill-opacity:0;stroke:#ff0000;stroke-linejoin:miter;stroke-width:1.5;" x="338.688" xlink:href="#m426cb62484" y="30.334099"/>
     <use style="fill-opacity:0;stroke:#ff0000;stroke-linejoin:miter;stroke-width:1.5;" x="369.60768" xlink:href="#m426cb62484" y="100.172673"/>
    </g>
   </g>
   <g id="line2d_62">
    <path d="M 338.688 298.944 
L 338.688 30.334099 
" style="fill:none;stroke:#000000;stroke-linecap:square;stroke-width:1.5;"/>
   </g>
   <g id="patch_3">
    <path d="M 57.6 298.944 
L 57.6 27.648 
" style="fill:none;stroke:#000000;stroke-linecap:square;stroke-linejoin:miter;stroke-width:0.8;"/>
   </g>
   <g id="patch_4">
    <path d="M 338.688 298.944 
L 338.688 27.648 
" style="fill:none;stroke:#000000;stroke-linecap:square;stroke-linejoin:miter;stroke-width:0.8;"/>
   </g>
   <g id="patch_5">
    <path d="M 57.6 298.944 
L 338.688 298.944 
" style="fill:none;stroke:#000000;stroke-linecap:square;stroke-linejoin:miter;stroke-width:0.8;"/>
   </g>
   <g id="patch_6">
    <path d="M 57.6 27.648 
L 338.688 27.648 
" style="fill:none;stroke:#000000;stroke-linecap:square;stroke-linejoin:miter;stroke-width:0.8;"/>
   </g>
   <g id="text_13">
    <!-- RANDOMSEA -->
    <defs>
     <path d="M 44.390625 34.1875 
Q 47.5625 33.109375 50.5625 29.59375 
Q 53.5625 26.078125 56.59375 19.921875 
L 66.609375 0 
L 56 0 
L 46.6875 18.703125 
Q 43.0625 26.03125 39.671875 28.421875 
Q 36.28125 30.8125 30.421875 30.8125 
L 19.671875 30.8125 
L 19.671875 0 
L 9.8125 0 
L 9.8125 72.90625 
L 32.078125 72.90625 
Q 44.578125 72.90625 50.734375 67.671875 
Q 56.890625 62.453125 56.890625 51.90625 
Q 56.890625 45.015625 53.6875 40.46875 
Q 50.484375 35.9375 44.390625 34.1875 
z
M 19.671875 64.796875 
L 19.671875 38.921875 
L 32.078125 38.921875 
Q 39.203125 38.921875 42.84375 42.21875 
Q 46.484375 45.515625 46.484375 51.90625 
Q 46.484375 58.296875 42.84375 61.546875 
Q 39.203125 64.796875 32.078125 64.796875 
z
" id="DejaVuSans-82"/>
     <path d="M 34.1875 63.1875 
L 20.796875 26.90625 
L 47.609375 26.90625 
z
M 28.609375 72.90625 
L 39.796875 72.90625 
L 67.578125 0 
L 57.328125 0 
L 50.6875 18.703125 
L 17.828125 18.703125 
L 11.1875 0 
L 0.78125 0 
z
" id="DejaVuSans-65"/>
     <path d="M 9.8125 72.90625 
L 23.09375 72.90625 
L 55.421875 11.921875 
L 55.421875 72.90625 
L 64.984375 72.90625 
L 64.984375 0 
L 51.703125 0 
L 19.390625 60.984375 
L 19.390625 0 
L 9.8125 0 
z
" id="DejaVuSans-78"/>
     <path d="M 19.671875 64.796875 
L 19.671875 8.109375 
L 31.59375 8.109375 
Q 46.6875 8.109375 53.6875 14.9375 
Q 60.6875 21.78125 60.6875 36.53125 
Q 60.6875 51.171875 53.6875 57.984375 
Q 46.6875 64.796875 31.59375 64.796875 
z
M 9.8125 72.90625 
L 30.078125 72.90625 
Q 51.265625 72.90625 61.171875 64.09375 
Q 71.09375 55.28125 71.09375 36.53125 
Q 71.09375 17.671875 61.125 8.828125 
Q 51.171875 0 30.078125 0 
L 9.8125 0 
z
" id="DejaVuSans-68"/>
     <path d="M 39.40625 66.21875 
Q 28.65625 66.21875 22.328125 58.203125 
Q 16.015625 50.203125 16.015625 36.375 
Q 16.015625 22.609375 22.328125 14.59375 
Q 28.65625 6.59375 39.40625 6.59375 
Q 50.140625 6.59375 56.421875 14.59375 
Q 62.703125 22.609375 62.703125 36.375 
Q 62.703125 50.203125 56.421875 58.203125 
Q 50.140625 66.21875 39.40625 66.21875 
z
M 39.40625 74.21875 
Q 54.734375 74.21875 63.90625 63.9375 
Q 73.09375 53.65625 73.09375 36.375 
Q 73.09375 19.140625 63.90625 8.859375 
Q 54.734375 -1.421875 39.40625 -1.421875 
Q 24.03125 -1.421875 14.8125 8.828125 
Q 5.609375 19.09375 5.609375 36.375 
Q 5.609375 53.65625 14.8125 63.9375 
Q 24.03125 74.21875 39.40625 74.21875 
z
" id="DejaVuSans-79"/>
     <path d="M 9.8125 72.90625 
L 24.515625 72.90625 
L 43.109375 23.296875 
L 61.8125 72.90625 
L 76.515625 72.90625 
L 76.515625 0 
L 66.890625 0 
L 66.890625 64.015625 
L 48.09375 14.015625 
L 38.1875 14.015625 
L 19.390625 64.015625 
L 19.390625 0 
L 9.8125 0 
z
" id="DejaVuSans-77"/>
     <path d="M 53.515625 70.515625 
L 53.515625 60.890625 
Q 47.90625 63.578125 42.921875 64.890625 
Q 37.9375 66.21875 33.296875 66.21875 
Q 25.25 66.21875 20.875 63.09375 
Q 16.5 59.96875 16.5 54.203125 
Q 16.5 49.359375 19.40625 46.890625 
Q 22.3125 44.4375 30.421875 42.921875 
L 36.375 41.703125 
Q 47.40625 39.59375 52.65625 34.296875 
Q 57.90625 29 57.90625 20.125 
Q 57.90625 9.515625 50.796875 4.046875 
Q 43.703125 -1.421875 29.984375 -1.421875 
Q 24.8125 -1.421875 18.96875 -0.25 
Q 13.140625 0.921875 6.890625 3.21875 
L 6.890625 13.375 
Q 12.890625 10.015625 18.65625 8.296875 
Q 24.421875 6.59375 29.984375 6.59375 
Q 38.421875 6.59375 43.015625 9.90625 
Q 47.609375 13.234375 47.609375 19.390625 
Q 47.609375 24.75 44.3125 27.78125 
Q 41.015625 30.8125 33.5 32.328125 
L 27.484375 33.5 
Q 16.453125 35.6875 11.515625 40.375 
Q 6.59375 45.0625 6.59375 53.421875 
Q 6.59375 63.09375 13.40625 68.65625 
Q 20.21875 74.21875 32.171875 74.21875 
Q 37.3125 74.21875 42.625 73.28125 
Q 47.953125 72.359375 53.515625 70.515625 
z
" id="DejaVuSans-83"/>
     <path d="M 9.8125 72.90625 
L 55.90625 72.90625 
L 55.90625 64.59375 
L 19.671875 64.59375 
L 19.671875 43.015625 
L 54.390625 43.015625 
L 54.390625 34.71875 
L 19.671875 34.71875 
L 19.671875 8.296875 
L 56.78125 8.296875 
L 56.78125 0 
L 9.8125 0 
z
" id="DejaVuSans-69"/>
    </defs>
    <g transform="translate(375.22944 298.262739)scale(0.17 -0.17)">
     <use xlink:href="#DejaVuSans-82"/>
     <use x="69.419922" xlink:href="#DejaVuSans-65"/>
     <use x="137.828125" xlink:href="#DejaVuSans-78"/>
     <use x="212.632812" xlink:href="#DejaVuSans-68"/>
     <use x="289.634766" xlink:href="#DejaVuSans-79"/>
     <use x="368.345703" xlink:href="#DejaVuSans-77"/>
     <use x="454.625" xlink:href="#DejaVuSans-83"/>
     <use x="518.101562" xlink:href="#DejaVuSans-69"/>
     <use x="581.285156" xlink:href="#DejaVuSans-65"/>
    </g>
   </g>
   <g id="text_14">
    <!-- SLSQP-11  -->
    <defs>
     <path d="M 9.8125 72.90625 
L 19.671875 72.90625 
L 19.671875 8.296875 
L 55.171875 8.296875 
L 55.171875 0 
L 9.8125 0 
z
" id="DejaVuSans-76"/>
     <path d="M 39.40625 66.21875 
Q 28.65625 66.21875 22.328125 58.203125 
Q 16.015625 50.203125 16.015625 36.375 
Q 16.015625 22.609375 22.328125 14.59375 
Q 28.65625 6.59375 39.40625 6.59375 
Q 50.140625 6.59375 56.421875 14.59375 
Q 62.703125 22.609375 62.703125 36.375 
Q 62.703125 50.203125 56.421875 58.203125 
Q 50.140625 66.21875 39.40625 66.21875 
z
M 53.21875 1.3125 
L 66.21875 -12.890625 
L 54.296875 -12.890625 
L 43.5 -1.21875 
Q 41.890625 -1.3125 41.03125 -1.359375 
Q 40.1875 -1.421875 39.40625 -1.421875 
Q 24.03125 -1.421875 14.8125 8.859375 
Q 5.609375 19.140625 5.609375 36.375 
Q 5.609375 53.65625 14.8125 63.9375 
Q 24.03125 74.21875 39.40625 74.21875 
Q 54.734375 74.21875 63.90625 63.9375 
Q 73.09375 53.65625 73.09375 36.375 
Q 73.09375 23.6875 67.984375 14.640625 
Q 62.890625 5.609375 53.21875 1.3125 
z
" id="DejaVuSans-81"/>
     <path d="M 19.671875 64.796875 
L 19.671875 37.40625 
L 32.078125 37.40625 
Q 38.96875 37.40625 42.71875 40.96875 
Q 46.484375 44.53125 46.484375 51.125 
Q 46.484375 57.671875 42.71875 61.234375 
Q 38.96875 64.796875 32.078125 64.796875 
z
M 9.8125 72.90625 
L 32.078125 72.90625 
Q 44.34375 72.90625 50.609375 67.359375 
Q 56.890625 61.8125 56.890625 51.125 
Q 56.890625 40.328125 50.609375 34.8125 
Q 44.34375 29.296875 32.078125 29.296875 
L 19.671875 29.296875 
L 19.671875 0 
L 9.8125 0 
z
" id="DejaVuSans-80"/>
    </defs>
    <g transform="translate(375.22944 233.796363)scale(0.17 -0.17)">
     <use xlink:href="#DejaVuSans-83"/>
     <use x="63.476562" xlink:href="#DejaVuSans-76"/>
     <use x="119.189453" xlink:href="#DejaVuSans-83"/>
     <use x="182.666016" xlink:href="#DejaVuSans-81"/>
     <use x="261.376953" xlink:href="#DejaVuSans-80"/>
     <use x="321.648438" xlink:href="#DejaVuSans-45"/>
     <use x="357.732422" xlink:href="#DejaVuSans-49"/>
     <use x="421.355469" xlink:href="#DejaVuSans-49"/>
     <use x="484.978516" xlink:href="#DejaVuSans-32"/>
    </g>
   </g>
   <g id="text_15">
    <!-- CMA-ES  2 -->
    <defs>
     <path d="M 64.40625 67.28125 
L 64.40625 56.890625 
Q 59.421875 61.53125 53.78125 63.8125 
Q 48.140625 66.109375 41.796875 66.109375 
Q 29.296875 66.109375 22.65625 58.46875 
Q 16.015625 50.828125 16.015625 36.375 
Q 16.015625 21.96875 22.65625 14.328125 
Q 29.296875 6.6875 41.796875 6.6875 
Q 48.140625 6.6875 53.78125 8.984375 
Q 59.421875 11.28125 64.40625 15.921875 
L 64.40625 5.609375 
Q 59.234375 2.09375 53.4375 0.328125 
Q 47.65625 -1.421875 41.21875 -1.421875 
Q 24.65625 -1.421875 15.125 8.703125 
Q 5.609375 18.84375 5.609375 36.375 
Q 5.609375 53.953125 15.125 64.078125 
Q 24.65625 74.21875 41.21875 74.21875 
Q 47.75 74.21875 53.53125 72.484375 
Q 59.328125 70.75 64.40625 67.28125 
z
" id="DejaVuSans-67"/>
    </defs>
    <g transform="translate(375.22944 169.329987)scale(0.17 -0.17)">
     <use xlink:href="#DejaVuSans-67"/>
     <use x="69.824219" xlink:href="#DejaVuSans-77"/>
     <use x="156.103516" xlink:href="#DejaVuSans-65"/>
     <use x="224.480469" xlink:href="#DejaVuSans-45"/>
     <use x="260.564453" xlink:href="#DejaVuSans-69"/>
     <use x="323.748047" xlink:href="#DejaVuSans-83"/>
     <use x="387.224609" xlink:href="#DejaVuSans-32"/>
     <use x="419.011719" xlink:href="#DejaVuSans-32"/>
     <use x="450.798828" xlink:href="#DejaVuSans-50"/>
    </g>
   </g>
   <g id="text_16">
    <!-- lq-CMA-ES -->
    <defs>
     <path d="M 14.796875 27.296875 
Q 14.796875 17.390625 18.875 11.75 
Q 22.953125 6.109375 30.078125 6.109375 
Q 37.203125 6.109375 41.296875 11.75 
Q 45.40625 17.390625 45.40625 27.296875 
Q 45.40625 37.203125 41.296875 42.84375 
Q 37.203125 48.484375 30.078125 48.484375 
Q 22.953125 48.484375 18.875 42.84375 
Q 14.796875 37.203125 14.796875 27.296875 
z
M 45.40625 8.203125 
Q 42.578125 3.328125 38.25 0.953125 
Q 33.9375 -1.421875 27.875 -1.421875 
Q 17.96875 -1.421875 11.734375 6.484375 
Q 5.515625 14.40625 5.515625 27.296875 
Q 5.515625 40.1875 11.734375 48.09375 
Q 17.96875 56 27.875 56 
Q 33.9375 56 38.25 53.625 
Q 42.578125 51.265625 45.40625 46.390625 
L 45.40625 54.6875 
L 54.390625 54.6875 
L 54.390625 -20.796875 
L 45.40625 -20.796875 
z
" id="DejaVuSans-113"/>
    </defs>
    <g transform="translate(375.22944 104.863611)scale(0.17 -0.17)">
     <use xlink:href="#DejaVuSans-108"/>
     <use x="27.783203" xlink:href="#DejaVuSans-113"/>
     <use x="91.259766" xlink:href="#DejaVuSans-45"/>
     <use x="127.34375" xlink:href="#DejaVuSans-67"/>
     <use x="197.167969" xlink:href="#DejaVuSans-77"/>
     <use x="283.447266" xlink:href="#DejaVuSans-65"/>
     <use x="351.824219" xlink:href="#DejaVuSans-45"/>
     <use x="387.908203" xlink:href="#DejaVuSans-69"/>
     <use x="451.091797" xlink:href="#DejaVuSans-83"/>
    </g>
   </g>
   <g id="text_17">
    <!-- best 2009 -->
    <defs>
     <path d="M 48.6875 27.296875 
Q 48.6875 37.203125 44.609375 42.84375 
Q 40.53125 48.484375 33.40625 48.484375 
Q 26.265625 48.484375 22.1875 42.84375 
Q 18.109375 37.203125 18.109375 27.296875 
Q 18.109375 17.390625 22.1875 11.75 
Q 26.265625 6.109375 33.40625 6.109375 
Q 40.53125 6.109375 44.609375 11.75 
Q 48.6875 17.390625 48.6875 27.296875 
z
M 18.109375 46.390625 
Q 20.953125 51.265625 25.265625 53.625 
Q 29.59375 56 35.59375 56 
Q 45.5625 56 51.78125 48.09375 
Q 58.015625 40.1875 58.015625 27.296875 
Q 58.015625 14.40625 51.78125 6.484375 
Q 45.5625 -1.421875 35.59375 -1.421875 
Q 29.59375 -1.421875 25.265625 0.953125 
Q 20.953125 3.328125 18.109375 8.203125 
L 18.109375 0 
L 9.078125 0 
L 9.078125 75.984375 
L 18.109375 75.984375 
z
" id="DejaVuSans-98"/>
     <path d="M 10.984375 1.515625 
L 10.984375 10.5 
Q 14.703125 8.734375 18.5 7.8125 
Q 22.3125 6.890625 25.984375 6.890625 
Q 35.75 6.890625 40.890625 13.453125 
Q 46.046875 20.015625 46.78125 33.40625 
Q 43.953125 29.203125 39.59375 26.953125 
Q 35.25 24.703125 29.984375 24.703125 
Q 19.046875 24.703125 12.671875 31.3125 
Q 6.296875 37.9375 6.296875 49.421875 
Q 6.296875 60.640625 12.9375 67.421875 
Q 19.578125 74.21875 30.609375 74.21875 
Q 43.265625 74.21875 49.921875 64.515625 
Q 56.59375 54.828125 56.59375 36.375 
Q 56.59375 19.140625 48.40625 8.859375 
Q 40.234375 -1.421875 26.421875 -1.421875 
Q 22.703125 -1.421875 18.890625 -0.6875 
Q 15.09375 0.046875 10.984375 1.515625 
z
M 30.609375 32.421875 
Q 37.25 32.421875 41.125 36.953125 
Q 45.015625 41.5 45.015625 49.421875 
Q 45.015625 57.28125 41.125 61.84375 
Q 37.25 66.40625 30.609375 66.40625 
Q 23.96875 66.40625 20.09375 61.84375 
Q 16.21875 57.28125 16.21875 49.421875 
Q 16.21875 41.5 20.09375 36.953125 
Q 23.96875 32.421875 30.609375 32.421875 
z
" id="DejaVuSans-57"/>
    </defs>
    <g transform="translate(375.22944 40.397235)scale(0.17 -0.17)">
     <use xlink:href="#DejaVuSans-98"/>
     <use x="63.476562" xlink:href="#DejaVuSans-101"/>
     <use x="125" xlink:href="#DejaVuSans-115"/>
     <use x="177.099609" xlink:href="#DejaVuSans-116"/>
     <use x="216.308594" xlink:href="#DejaVuSans-32"/>
     <use x="248.095703" xlink:href="#DejaVuSans-50"/>
     <use x="311.71875" xlink:href="#DejaVuSans-48"/>
     <use x="375.341797" xlink:href="#DejaVuSans-48"/>
     <use x="438.964844" xlink:href="#DejaVuSans-57"/>
    </g>
   </g>
   <g id="text_18">
    <!-- bbob f12, 40-D -->
    <g transform="translate(60.41088 38.111366)scale(0.102 -0.102)">
     <use xlink:href="#DejaVuSans-98"/>
     <use x="63.476562" xlink:href="#DejaVuSans-98"/>
     <use x="126.953125" xlink:href="#DejaVuSans-111"/>
     <use x="188.134766" xlink:href="#DejaVuSans-98"/>
     <use x="251.611328" xlink:href="#DejaVuSans-32"/>
     <use x="283.398438" xlink:href="#DejaVuSans-102"/>
     <use x="318.603516" xlink:href="#DejaVuSans-49"/>
     <use x="382.226562" xlink:href="#DejaVuSans-50"/>
     <use x="445.849609" xlink:href="#DejaVuSans-44"/>
     <use x="477.636719" xlink:href="#DejaVuSans-32"/>
     <use x="509.423828" xlink:href="#DejaVuSans-52"/>
     <use x="573.046875" xlink:href="#DejaVuSans-48"/>
     <use x="636.669922" xlink:href="#DejaVuSans-45"/>
     <use x="672.753906" xlink:href="#DejaVuSans-68"/>
    </g>
    <!-- 51 targets: 100..1e-08 -->
    <defs>
     <path d="M 10.796875 72.90625 
L 49.515625 72.90625 
L 49.515625 64.59375 
L 19.828125 64.59375 
L 19.828125 46.734375 
Q 21.96875 47.46875 24.109375 47.828125 
Q 26.265625 48.1875 28.421875 48.1875 
Q 40.625 48.1875 47.75 41.5 
Q 54.890625 34.8125 54.890625 23.390625 
Q 54.890625 11.625 47.5625 5.09375 
Q 40.234375 -1.421875 26.90625 -1.421875 
Q 22.3125 -1.421875 17.546875 -0.640625 
Q 12.796875 0.140625 7.71875 1.703125 
L 7.71875 11.625 
Q 12.109375 9.234375 16.796875 8.0625 
Q 21.484375 6.890625 26.703125 6.890625 
Q 35.15625 6.890625 40.078125 11.328125 
Q 45.015625 15.765625 45.015625 23.390625 
Q 45.015625 31 40.078125 35.4375 
Q 35.15625 39.890625 26.703125 39.890625 
Q 22.75 39.890625 18.8125 39.015625 
Q 14.890625 38.140625 10.796875 36.28125 
z
" id="DejaVuSans-53"/>
     <path d="M 11.71875 12.40625 
L 22.015625 12.40625 
L 22.015625 0 
L 11.71875 0 
z
M 11.71875 51.703125 
L 22.015625 51.703125 
L 22.015625 39.3125 
L 11.71875 39.3125 
z
" id="DejaVuSans-58"/>
    </defs>
    <g transform="translate(60.41088 49.533135)scale(0.102 -0.102)">
     <use xlink:href="#DejaVuSans-53"/>
     <use x="63.623047" xlink:href="#DejaVuSans-49"/>
     <use x="127.246094" xlink:href="#DejaVuSans-32"/>
     <use x="159.033203" xlink:href="#DejaVuSans-116"/>
     <use x="198.242188" xlink:href="#DejaVuSans-97"/>
     <use x="259.521484" xlink:href="#DejaVuSans-114"/>
     <use x="300.619141" xlink:href="#DejaVuSans-103"/>
     <use x="364.095703" xlink:href="#DejaVuSans-101"/>
     <use x="425.619141" xlink:href="#DejaVuSans-116"/>
     <use x="464.828125" xlink:href="#DejaVuSans-115"/>
     <use x="516.927734" xlink:href="#DejaVuSans-58"/>
     <use x="550.619141" xlink:href="#DejaVuSans-32"/>
     <use x="582.40625" xlink:href="#DejaVuSans-49"/>
     <use x="646.029297" xlink:href="#DejaVuSans-48"/>
     <use x="709.652344" xlink:href="#DejaVuSans-48"/>
     <use x="773.275391" xlink:href="#DejaVuSans-46"/>
     <use x="805.0625" xlink:href="#DejaVuSans-46"/>
     <use x="836.849609" xlink:href="#DejaVuSans-49"/>
     <use x="900.472656" xlink:href="#DejaVuSans-101"/>
     <use x="961.996094" xlink:href="#DejaVuSans-45"/>
     <use x="998.080078" xlink:href="#DejaVuSans-48"/>
     <use x="1061.703125" xlink:href="#DejaVuSans-56"/>
    </g>
    <!-- 15 instances -->
    <g transform="translate(60.41088 60.954904)scale(0.102 -0.102)">
     <use xlink:href="#DejaVuSans-49"/>
     <use x="63.623047" xlink:href="#DejaVuSans-53"/>
     <use x="127.246094" xlink:href="#DejaVuSans-32"/>
     <use x="159.033203" xlink:href="#DejaVuSans-105"/>
     <use x="186.816406" xlink:href="#DejaVuSans-110"/>
     <use x="250.195312" xlink:href="#DejaVuSans-115"/>
     <use x="302.294922" xlink:href="#DejaVuSans-116"/>
     <use x="341.503906" xlink:href="#DejaVuSans-97"/>
     <use x="402.783203" xlink:href="#DejaVuSans-110"/>
     <use x="466.162109" xlink:href="#DejaVuSans-99"/>
     <use x="521.142578" xlink:href="#DejaVuSans-101"/>
     <use x="582.666016" xlink:href="#DejaVuSans-115"/>
    </g>
   </g>
   <g id="text_19">
    <!-- v2.3.2 -->
    <defs>
     <path d="M 40.578125 39.3125 
Q 47.65625 37.796875 51.625 33 
Q 55.609375 28.21875 55.609375 21.1875 
Q 55.609375 10.40625 48.1875 4.484375 
Q 40.765625 -1.421875 27.09375 -1.421875 
Q 22.515625 -1.421875 17.65625 -0.515625 
Q 12.796875 0.390625 7.625 2.203125 
L 7.625 11.71875 
Q 11.71875 9.328125 16.59375 8.109375 
Q 21.484375 6.890625 26.8125 6.890625 
Q 36.078125 6.890625 40.9375 10.546875 
Q 45.796875 14.203125 45.796875 21.1875 
Q 45.796875 27.640625 41.28125 31.265625 
Q 36.765625 34.90625 28.71875 34.90625 
L 20.21875 34.90625 
L 20.21875 43.015625 
L 29.109375 43.015625 
Q 36.375 43.015625 40.234375 45.921875 
Q 44.09375 48.828125 44.09375 54.296875 
Q 44.09375 59.90625 40.109375 62.90625 
Q 36.140625 65.921875 28.71875 65.921875 
Q 24.65625 65.921875 20.015625 65.03125 
Q 15.375 64.15625 9.8125 62.3125 
L 9.8125 71.09375 
Q 15.4375 72.65625 20.34375 73.4375 
Q 25.25 74.21875 29.59375 74.21875 
Q 40.828125 74.21875 47.359375 69.109375 
Q 53.90625 64.015625 53.90625 55.328125 
Q 53.90625 49.265625 50.4375 45.09375 
Q 46.96875 40.921875 40.578125 39.3125 
z
" id="DejaVuSans-51"/>
    </defs>
    <g style="fill:#808080;" transform="translate(182.46275 294.151352)scale(0.1 -0.1)">
     <use xlink:href="#DejaVuSans-118"/>
     <use x="59.179688" xlink:href="#DejaVuSans-50"/>
     <use x="122.802734" xlink:href="#DejaVuSans-46"/>
     <use x="154.589844" xlink:href="#DejaVuSans-51"/>
     <use x="218.212891" xlink:href="#DejaVuSans-46"/>
     <use x="250" xlink:href="#DejaVuSans-50"/>
    </g>
   </g>
   <g id="text_20">
    <!-- 12 Bent cigar -->
    <defs>
     <path d="M 19.671875 34.8125 
L 19.671875 8.109375 
L 35.5 8.109375 
Q 43.453125 8.109375 47.28125 11.40625 
Q 51.125 14.703125 51.125 21.484375 
Q 51.125 28.328125 47.28125 31.5625 
Q 43.453125 34.8125 35.5 34.8125 
z
M 19.671875 64.796875 
L 19.671875 42.828125 
L 34.28125 42.828125 
Q 41.5 42.828125 45.03125 45.53125 
Q 48.578125 48.25 48.578125 53.8125 
Q 48.578125 59.328125 45.03125 62.0625 
Q 41.5 64.796875 34.28125 64.796875 
z
M 9.8125 72.90625 
L 35.015625 72.90625 
Q 46.296875 72.90625 52.390625 68.21875 
Q 58.5 63.53125 58.5 54.890625 
Q 58.5 48.1875 55.375 44.234375 
Q 52.25 40.28125 46.1875 39.3125 
Q 53.46875 37.75 57.5 32.78125 
Q 61.53125 27.828125 61.53125 20.40625 
Q 61.53125 10.640625 54.890625 5.3125 
Q 48.25 0 35.984375 0 
L 9.8125 0 
z
" id="DejaVuSans-66"/>
    </defs>
    <g transform="translate(130.926812 21.648)scale(0.2 -0.2)">
     <use xlink:href="#DejaVuSans-49"/>
     <use x="63.623047" xlink:href="#DejaVuSans-50"/>
     <use x="127.246094" xlink:href="#DejaVuSans-32"/>
     <use x="159.033203" xlink:href="#DejaVuSans-66"/>
     <use x="227.636719" xlink:href="#DejaVuSans-101"/>
     <use x="289.160156" xlink:href="#DejaVuSans-110"/>
     <use x="352.539062" xlink:href="#DejaVuSans-116"/>
     <use x="391.748047" xlink:href="#DejaVuSans-32"/>
     <use x="423.535156" xlink:href="#DejaVuSans-99"/>
     <use x="478.515625" xlink:href="#DejaVuSans-105"/>
     <use x="506.298828" xlink:href="#DejaVuSans-103"/>
     <use x="569.775391" xlink:href="#DejaVuSans-97"/>
     <use x="631.054688" xlink:href="#DejaVuSans-114"/>
    </g>
   </g>
  </g>
 </g>
 <defs>
  <clipPath id="pbe1e2d4817">
   <rect height="271.296" width="281.088" x="57.6" y="27.648"/>
  </clipPath>
 </defs>
</svg>
