<?xml version="1.0" encoding="utf-8" standalone="no"?>
<!DOCTYPE svg PUBLIC "-//W3C//DTD SVG 1.1//EN"
  "http://www.w3.org/Graphics/SVG/1.1/DTD/svg11.dtd">
<!-- Created with matplotlib (https://matplotlib.org/) -->
<svg height="345.6pt" version="1.1" viewBox="0 0 460.8 345.6" width="460.8pt" xmlns="http://www.w3.org/2000/svg" xmlns:xlink="http://www.w3.org/1999/xlink">
 <defs>
  <style type="text/css">
*{stroke-linecap:butt;stroke-linejoin:round;}
  </style>
 </defs>
 <g id="figure_1">
  <g id="patch_1">
   <path d="M 0 345.6 
L 460.8 345.6 
L 460.8 0 
L 0 0 
z
" style="fill:#ffffff;"/>
  </g>
  <g id="axes_1">
   <g id="patch_2">
    <path d="M 57.6 298.944 
L 338.688 298.944 
L 338.688 27.648 
L 57.6 27.648 
z
" style="fill:#ffffff;"/>
   </g>
   <g id="line2d_1">
    <path d="M 45.512012 298.944 
L 45.512012 283.143418 
L 64.67102 283.143418 
L 64.67102 277.876557 
L 81.775977 277.876557 
L 81.775977 272.609696 
L 95.918017 272.609696 
L 95.918017 267.342835 
L 111.505558 267.342835 
L 111.505558 262.075974 
L 120.571812 262.075974 
L 120.571812 256.809114 
L 143.464461 256.809114 
L 143.464461 251.542253 
L 162.432178 251.542253 
L 162.432178 246.275392 
L 163.287113 246.275392 
L 163.287113 241.008531 
L 177.390674 241.008531 
L 177.390674 235.74167 
L 192.542267 235.74167 
L 192.542267 230.47481 
L 194.017812 230.47481 
L 194.017812 225.207949 
L 199.59173 225.207949 
L 199.59173 219.941088 
L 203.330261 219.941088 
L 203.330261 214.674227 
L 214.187978 214.674227 
L 214.187978 209.407366 
L 217.429694 209.407366 
L 217.429694 204.140506 
L 217.447023 204.140506 
L 217.447023 198.873645 
L 220.833339 198.873645 
L 220.833339 193.606784 
L 220.959002 193.606784 
L 220.959002 188.339923 
L 220.995483 188.339923 
L 220.995483 183.073062 
L 221.085245 183.073062 
L 221.085245 177.806202 
L 221.162027 177.806202 
L 221.162027 172.539341 
L 221.319697 172.539341 
L 221.319697 167.27248 
L 221.483188 167.27248 
L 221.483188 162.005619 
L 221.53302 162.005619 
L 221.53302 156.738758 
L 221.915344 156.738758 
L 221.915344 146.205037 
L 221.91605 146.205037 
L 221.91605 140.938176 
L 221.916755 140.938176 
L 221.916755 130.404454 
L 221.917461 130.404454 
L 221.917461 56.668403 
L 221.918166 56.668403 
L 221.918166 51.401542 
L 221.918872 51.401542 
L 221.918872 30.334099 
L 338.688 30.334099 
" style="fill:none;stroke:#f5deb3;stroke-linecap:square;stroke-width:4;"/>
   </g>
   <g id="line2d_2">
    <defs>
     <path d="M -0 7.778175 
L 7.778175 0 
L 0 -7.778175 
L -7.778175 -0 
z
" id="m7dff7d8749" style="stroke:#f5deb3;stroke-linejoin:miter;stroke-width:1.5;"/>
    </defs>
    <g>
     <use style="fill:#f5deb3;stroke:#f5deb3;stroke-linejoin:miter;stroke-width:1.5;" x="120.571812" xlink:href="#m7dff7d8749" y="256.809114"/>
     <use style="fill:#f5deb3;stroke:#f5deb3;stroke-linejoin:miter;stroke-width:1.5;" x="217.429694" xlink:href="#m7dff7d8749" y="204.140506"/>
     <use style="fill:#f5deb3;stroke:#f5deb3;stroke-linejoin:miter;stroke-width:1.5;" x="221.916755" xlink:href="#m7dff7d8749" y="130.404454"/>
     <use style="fill:#f5deb3;stroke:#f5deb3;stroke-linejoin:miter;stroke-width:1.5;" x="221.918872" xlink:href="#m7dff7d8749" y="30.334099"/>
     <use style="fill:#f5deb3;stroke:#f5deb3;stroke-linejoin:miter;stroke-width:1.5;" x="221.918872" xlink:href="#m7dff7d8749" y="30.334099"/>
     <use style="fill:#f5deb3;stroke:#f5deb3;stroke-linejoin:miter;stroke-width:1.5;" x="338.688" xlink:href="#m7dff7d8749" y="30.334099"/>
    </g>
   </g>
   <g id="line2d_3">
    <path style="fill:none;stroke:#f5deb3;stroke-linecap:square;stroke-width:4;"/>
    <g/>
   </g>
   <g id="line2d_4">
    <path d="M 338.688 30.334099 
L 369.60768 35.706297 
" style="fill:none;stroke:#f5deb3;stroke-linecap:square;stroke-width:4;"/>
    <g>
     <use style="fill:#f5deb3;stroke:#f5deb3;stroke-linejoin:miter;stroke-width:1.5;" x="338.688" xlink:href="#m7dff7d8749" y="30.334099"/>
     <use style="fill:#f5deb3;stroke:#f5deb3;stroke-linejoin:miter;stroke-width:1.5;" x="369.60768" xlink:href="#m7dff7d8749" y="35.706297"/>
    </g>
   </g>
   <g id="matplotlib.axis_1">
    <g id="xtick_1">
     <g id="line2d_5">
      <path clip-path="url(#pbcf7754dc7)" d="M 57.6 298.944 
L 57.6 27.648 
" style="fill:none;stroke:#b0b0b0;stroke-linecap:square;stroke-width:0.8;"/>
     </g>
     <g id="line2d_6">
      <defs>
       <path d="M 0 0 
L 0 3.5 
" id="m2d71380f78" style="stroke:#000000;stroke-width:0.8;"/>
      </defs>
      <g>
       <use style="stroke:#000000;stroke-width:0.8;" x="57.6" xlink:href="#m2d71380f78" y="298.944"/>
      </g>
     </g>
     <g id="text_1">
      <!-- 0 -->
      <defs>
       <path d="M 31.78125 66.40625 
Q 24.171875 66.40625 20.328125 58.90625 
Q 16.5 51.421875 16.5 36.375 
Q 16.5 21.390625 20.328125 13.890625 
Q 24.171875 6.390625 31.78125 6.390625 
Q 39.453125 6.390625 43.28125 13.890625 
Q 47.125 21.390625 47.125 36.375 
Q 47.125 51.421875 43.28125 58.90625 
Q 39.453125 66.40625 31.78125 66.40625 
z
M 31.78125 74.21875 
Q 44.046875 74.21875 50.515625 64.515625 
Q 56.984375 54.828125 56.984375 36.375 
Q 56.984375 17.96875 50.515625 8.265625 
Q 44.046875 -1.421875 31.78125 -1.421875 
Q 19.53125 -1.421875 13.0625 8.265625 
Q 6.59375 17.96875 6.59375 36.375 
Q 6.59375 54.828125 13.0625 64.515625 
Q 19.53125 74.21875 31.78125 74.21875 
z
" id="DejaVuSans-48"/>
      </defs>
      <g transform="translate(51.2375 321.140875)scale(0.2 -0.2)">
       <use xlink:href="#DejaVuSans-48"/>
      </g>
     </g>
    </g>
    <g id="xtick_2">
     <g id="line2d_7">
      <path clip-path="url(#pbcf7754dc7)" d="M 137.910857 298.944 
L 137.910857 27.648 
" style="fill:none;stroke:#b0b0b0;stroke-linecap:square;stroke-width:0.8;"/>
     </g>
     <g id="line2d_8">
      <g>
       <use style="stroke:#000000;stroke-width:0.8;" x="137.910857" xlink:href="#m2d71380f78" y="298.944"/>
      </g>
     </g>
     <g id="text_2">
      <!-- 2 -->
      <defs>
       <path d="M 19.1875 8.296875 
L 53.609375 8.296875 
L 53.609375 0 
L 7.328125 0 
L 7.328125 8.296875 
Q 12.9375 14.109375 22.625 23.890625 
Q 32.328125 33.6875 34.8125 36.53125 
Q 39.546875 41.84375 41.421875 45.53125 
Q 43.3125 49.21875 43.3125 52.78125 
Q 43.3125 58.59375 39.234375 62.25 
Q 35.15625 65.921875 28.609375 65.921875 
Q 23.96875 65.921875 18.8125 64.3125 
Q 13.671875 62.703125 7.8125 59.421875 
L 7.8125 69.390625 
Q 13.765625 71.78125 18.9375 73 
Q 24.125 74.21875 28.421875 74.21875 
Q 39.75 74.21875 46.484375 68.546875 
Q 53.21875 62.890625 53.21875 53.421875 
Q 53.21875 48.921875 51.53125 44.890625 
Q 49.859375 40.875 45.40625 35.40625 
Q 44.1875 33.984375 37.640625 27.21875 
Q 31.109375 20.453125 19.1875 8.296875 
z
" id="DejaVuSans-50"/>
      </defs>
      <g transform="translate(131.548357 321.140875)scale(0.2 -0.2)">
       <use xlink:href="#DejaVuSans-50"/>
      </g>
     </g>
    </g>
    <g id="xtick_3">
     <g id="line2d_9">
      <path clip-path="url(#pbcf7754dc7)" d="M 218.221714 298.944 
L 218.221714 27.648 
" style="fill:none;stroke:#b0b0b0;stroke-linecap:square;stroke-width:0.8;"/>
     </g>
     <g id="line2d_10">
      <g>
       <use style="stroke:#000000;stroke-width:0.8;" x="218.221714" xlink:href="#m2d71380f78" y="298.944"/>
      </g>
     </g>
     <g id="text_3">
      <!-- 4 -->
      <defs>
       <path d="M 37.796875 64.3125 
L 12.890625 25.390625 
L 37.796875 25.390625 
z
M 35.203125 72.90625 
L 47.609375 72.90625 
L 47.609375 25.390625 
L 58.015625 25.390625 
L 58.015625 17.1875 
L 47.609375 17.1875 
L 47.609375 0 
L 37.796875 0 
L 37.796875 17.1875 
L 4.890625 17.1875 
L 4.890625 26.703125 
z
" id="DejaVuSans-52"/>
      </defs>
      <g transform="translate(211.859214 321.140875)scale(0.2 -0.2)">
       <use xlink:href="#DejaVuSans-52"/>
      </g>
     </g>
    </g>
    <g id="xtick_4">
     <g id="line2d_11">
      <path clip-path="url(#pbcf7754dc7)" d="M 298.532571 298.944 
L 298.532571 27.648 
" style="fill:none;stroke:#b0b0b0;stroke-linecap:square;stroke-width:0.8;"/>
     </g>
     <g id="line2d_12">
      <g>
       <use style="stroke:#000000;stroke-width:0.8;" x="298.532571" xlink:href="#m2d71380f78" y="298.944"/>
      </g>
     </g>
     <g id="text_4">
      <!-- 6 -->
      <defs>
       <path d="M 33.015625 40.375 
Q 26.375 40.375 22.484375 35.828125 
Q 18.609375 31.296875 18.609375 23.390625 
Q 18.609375 15.53125 22.484375 10.953125 
Q 26.375 6.390625 33.015625 6.390625 
Q 39.65625 6.390625 43.53125 10.953125 
Q 47.40625 15.53125 47.40625 23.390625 
Q 47.40625 31.296875 43.53125 35.828125 
Q 39.65625 40.375 33.015625 40.375 
z
M 52.59375 71.296875 
L 52.59375 62.3125 
Q 48.875 64.0625 45.09375 64.984375 
Q 41.3125 65.921875 37.59375 65.921875 
Q 27.828125 65.921875 22.671875 59.328125 
Q 17.53125 52.734375 16.796875 39.40625 
Q 19.671875 43.65625 24.015625 45.921875 
Q 28.375 48.1875 33.59375 48.1875 
Q 44.578125 48.1875 50.953125 41.515625 
Q 57.328125 34.859375 57.328125 23.390625 
Q 57.328125 12.15625 50.6875 5.359375 
Q 44.046875 -1.421875 33.015625 -1.421875 
Q 20.359375 -1.421875 13.671875 8.265625 
Q 6.984375 17.96875 6.984375 36.375 
Q 6.984375 53.65625 15.1875 63.9375 
Q 23.390625 74.21875 37.203125 74.21875 
Q 40.921875 74.21875 44.703125 73.484375 
Q 48.484375 72.75 52.59375 71.296875 
z
" id="DejaVuSans-54"/>
      </defs>
      <g transform="translate(292.170071 321.140875)scale(0.2 -0.2)">
       <use xlink:href="#DejaVuSans-54"/>
      </g>
     </g>
    </g>
    <g id="xtick_5">
     <g id="line2d_13">
      <path clip-path="url(#pbcf7754dc7)" d="M 57.6 298.944 
L 57.6 27.648 
" style="fill:none;stroke:#b0b0b0;stroke-linecap:square;stroke-width:0.8;"/>
     </g>
     <g id="line2d_14">
      <defs>
       <path d="M 0 0 
L 0 2 
" id="m0da3190862" style="stroke:#000000;stroke-width:0.6;"/>
      </defs>
      <g>
       <use style="stroke:#000000;stroke-width:0.6;" x="57.6" xlink:href="#m0da3190862" y="298.944"/>
      </g>
     </g>
    </g>
    <g id="xtick_6">
     <g id="line2d_15">
      <path clip-path="url(#pbcf7754dc7)" d="M 97.755429 298.944 
L 97.755429 27.648 
" style="fill:none;stroke:#b0b0b0;stroke-linecap:square;stroke-width:0.8;"/>
     </g>
     <g id="line2d_16">
      <g>
       <use style="stroke:#000000;stroke-width:0.6;" x="97.755429" xlink:href="#m0da3190862" y="298.944"/>
      </g>
     </g>
    </g>
    <g id="xtick_7">
     <g id="line2d_17">
      <path clip-path="url(#pbcf7754dc7)" d="M 137.910857 298.944 
L 137.910857 27.648 
" style="fill:none;stroke:#b0b0b0;stroke-linecap:square;stroke-width:0.8;"/>
     </g>
     <g id="line2d_18">
      <g>
       <use style="stroke:#000000;stroke-width:0.6;" x="137.910857" xlink:href="#m0da3190862" y="298.944"/>
      </g>
     </g>
    </g>
    <g id="xtick_8">
     <g id="line2d_19">
      <path clip-path="url(#pbcf7754dc7)" d="M 178.066286 298.944 
L 178.066286 27.648 
" style="fill:none;stroke:#b0b0b0;stroke-linecap:square;stroke-width:0.8;"/>
     </g>
     <g id="line2d_20">
      <g>
       <use style="stroke:#000000;stroke-width:0.6;" x="178.066286" xlink:href="#m0da3190862" y="298.944"/>
      </g>
     </g>
    </g>
    <g id="xtick_9">
     <g id="line2d_21">
      <path clip-path="url(#pbcf7754dc7)" d="M 218.221714 298.944 
L 218.221714 27.648 
" style="fill:none;stroke:#b0b0b0;stroke-linecap:square;stroke-width:0.8;"/>
     </g>
     <g id="line2d_22">
      <g>
       <use style="stroke:#000000;stroke-width:0.6;" x="218.221714" xlink:href="#m0da3190862" y="298.944"/>
      </g>
     </g>
    </g>
    <g id="xtick_10">
     <g id="line2d_23">
      <path clip-path="url(#pbcf7754dc7)" d="M 258.377143 298.944 
L 258.377143 27.648 
" style="fill:none;stroke:#b0b0b0;stroke-linecap:square;stroke-width:0.8;"/>
     </g>
     <g id="line2d_24">
      <g>
       <use style="stroke:#000000;stroke-width:0.6;" x="258.377143" xlink:href="#m0da3190862" y="298.944"/>
      </g>
     </g>
    </g>
    <g id="xtick_11">
     <g id="line2d_25">
      <path clip-path="url(#pbcf7754dc7)" d="M 298.532571 298.944 
L 298.532571 27.648 
" style="fill:none;stroke:#b0b0b0;stroke-linecap:square;stroke-width:0.8;"/>
     </g>
     <g id="line2d_26">
      <g>
       <use style="stroke:#000000;stroke-width:0.6;" x="298.532571" xlink:href="#m0da3190862" y="298.944"/>
      </g>
     </g>
    </g>
    <g id="xtick_12">
     <g id="line2d_27">
      <path clip-path="url(#pbcf7754dc7)" d="M 338.688 298.944 
L 338.688 27.648 
" style="fill:none;stroke:#b0b0b0;stroke-linecap:square;stroke-width:0.8;"/>
     </g>
     <g id="line2d_28">
      <g>
       <use style="stroke:#000000;stroke-width:0.6;" x="338.688" xlink:href="#m0da3190862" y="298.944"/>
      </g>
     </g>
    </g>
    <g id="text_5">
     <!-- log10(# f-evals / dimension) -->
     <defs>
      <path d="M 9.421875 75.984375 
L 18.40625 75.984375 
L 18.40625 0 
L 9.421875 0 
z
" id="DejaVuSans-108"/>
      <path d="M 30.609375 48.390625 
Q 23.390625 48.390625 19.1875 42.75 
Q 14.984375 37.109375 14.984375 27.296875 
Q 14.984375 17.484375 19.15625 11.84375 
Q 23.34375 6.203125 30.609375 6.203125 
Q 37.796875 6.203125 41.984375 11.859375 
Q 46.1875 17.53125 46.1875 27.296875 
Q 46.1875 37.015625 41.984375 42.703125 
Q 37.796875 48.390625 30.609375 48.390625 
z
M 30.609375 56 
Q 42.328125 56 49.015625 48.375 
Q 55.71875 40.765625 55.71875 27.296875 
Q 55.71875 13.875 49.015625 6.21875 
Q 42.328125 -1.421875 30.609375 -1.421875 
Q 18.84375 -1.421875 12.171875 6.21875 
Q 5.515625 13.875 5.515625 27.296875 
Q 5.515625 40.765625 12.171875 48.375 
Q 18.84375 56 30.609375 56 
z
" id="DejaVuSans-111"/>
      <path d="M 45.40625 27.984375 
Q 45.40625 37.75 41.375 43.109375 
Q 37.359375 48.484375 30.078125 48.484375 
Q 22.859375 48.484375 18.828125 43.109375 
Q 14.796875 37.75 14.796875 27.984375 
Q 14.796875 18.265625 18.828125 12.890625 
Q 22.859375 7.515625 30.078125 7.515625 
Q 37.359375 7.515625 41.375 12.890625 
Q 45.40625 18.265625 45.40625 27.984375 
z
M 54.390625 6.78125 
Q 54.390625 -7.171875 48.1875 -13.984375 
Q 42 -20.796875 29.203125 -20.796875 
Q 24.46875 -20.796875 20.265625 -20.09375 
Q 16.0625 -19.390625 12.109375 -17.921875 
L 12.109375 -9.1875 
Q 16.0625 -11.328125 19.921875 -12.34375 
Q 23.78125 -13.375 27.78125 -13.375 
Q 36.625 -13.375 41.015625 -8.765625 
Q 45.40625 -4.15625 45.40625 5.171875 
L 45.40625 9.625 
Q 42.625 4.78125 38.28125 2.390625 
Q 33.9375 0 27.875 0 
Q 17.828125 0 11.671875 7.65625 
Q 5.515625 15.328125 5.515625 27.984375 
Q 5.515625 40.671875 11.671875 48.328125 
Q 17.828125 56 27.875 56 
Q 33.9375 56 38.28125 53.609375 
Q 42.625 51.21875 45.40625 46.390625 
L 45.40625 54.6875 
L 54.390625 54.6875 
z
" id="DejaVuSans-103"/>
      <path d="M 12.40625 8.296875 
L 28.515625 8.296875 
L 28.515625 63.921875 
L 10.984375 60.40625 
L 10.984375 69.390625 
L 28.421875 72.90625 
L 38.28125 72.90625 
L 38.28125 8.296875 
L 54.390625 8.296875 
L 54.390625 0 
L 12.40625 0 
z
" id="DejaVuSans-49"/>
      <path d="M 31 75.875 
Q 24.46875 64.65625 21.28125 53.65625 
Q 18.109375 42.671875 18.109375 31.390625 
Q 18.109375 20.125 21.3125 9.0625 
Q 24.515625 -2 31 -13.1875 
L 23.1875 -13.1875 
Q 15.875 -1.703125 12.234375 9.375 
Q 8.59375 20.453125 8.59375 31.390625 
Q 8.59375 42.28125 12.203125 53.3125 
Q 15.828125 64.359375 23.1875 75.875 
z
" id="DejaVuSans-40"/>
      <path d="M 51.125 44 
L 36.921875 44 
L 32.8125 27.6875 
L 47.125 27.6875 
z
M 43.796875 71.78125 
L 38.71875 51.515625 
L 52.984375 51.515625 
L 58.109375 71.78125 
L 65.921875 71.78125 
L 60.890625 51.515625 
L 76.125 51.515625 
L 76.125 44 
L 58.984375 44 
L 54.984375 27.6875 
L 70.515625 27.6875 
L 70.515625 20.21875 
L 53.078125 20.21875 
L 48 0 
L 40.1875 0 
L 45.21875 20.21875 
L 30.90625 20.21875 
L 25.875 0 
L 18.015625 0 
L 23.09375 20.21875 
L 7.71875 20.21875 
L 7.71875 27.6875 
L 24.90625 27.6875 
L 29 44 
L 13.28125 44 
L 13.28125 51.515625 
L 30.90625 51.515625 
L 35.890625 71.78125 
z
" id="DejaVuSans-35"/>
      <path id="DejaVuSans-32"/>
      <path d="M 37.109375 75.984375 
L 37.109375 68.5 
L 28.515625 68.5 
Q 23.6875 68.5 21.796875 66.546875 
Q 19.921875 64.59375 19.921875 59.515625 
L 19.921875 54.6875 
L 34.71875 54.6875 
L 34.71875 47.703125 
L 19.921875 47.703125 
L 19.921875 0 
L 10.890625 0 
L 10.890625 47.703125 
L 2.296875 47.703125 
L 2.296875 54.6875 
L 10.890625 54.6875 
L 10.890625 58.5 
Q 10.890625 67.625 15.140625 71.796875 
Q 19.390625 75.984375 28.609375 75.984375 
z
" id="DejaVuSans-102"/>
      <path d="M 4.890625 31.390625 
L 31.203125 31.390625 
L 31.203125 23.390625 
L 4.890625 23.390625 
z
" id="DejaVuSans-45"/>
      <path d="M 56.203125 29.59375 
L 56.203125 25.203125 
L 14.890625 25.203125 
Q 15.484375 15.921875 20.484375 11.0625 
Q 25.484375 6.203125 34.421875 6.203125 
Q 39.59375 6.203125 44.453125 7.46875 
Q 49.3125 8.734375 54.109375 11.28125 
L 54.109375 2.78125 
Q 49.265625 0.734375 44.1875 -0.34375 
Q 39.109375 -1.421875 33.890625 -1.421875 
Q 20.796875 -1.421875 13.15625 6.1875 
Q 5.515625 13.8125 5.515625 26.8125 
Q 5.515625 40.234375 12.765625 48.109375 
Q 20.015625 56 32.328125 56 
Q 43.359375 56 49.78125 48.890625 
Q 56.203125 41.796875 56.203125 29.59375 
z
M 47.21875 32.234375 
Q 47.125 39.59375 43.09375 43.984375 
Q 39.0625 48.390625 32.421875 48.390625 
Q 24.90625 48.390625 20.390625 44.140625 
Q 15.875 39.890625 15.1875 32.171875 
z
" id="DejaVuSans-101"/>
      <path d="M 2.984375 54.6875 
L 12.5 54.6875 
L 29.59375 8.796875 
L 46.6875 54.6875 
L 56.203125 54.6875 
L 35.6875 0 
L 23.484375 0 
z
" id="DejaVuSans-118"/>
      <path d="M 34.28125 27.484375 
Q 23.390625 27.484375 19.1875 25 
Q 14.984375 22.515625 14.984375 16.5 
Q 14.984375 11.71875 18.140625 8.90625 
Q 21.296875 6.109375 26.703125 6.109375 
Q 34.1875 6.109375 38.703125 11.40625 
Q 43.21875 16.703125 43.21875 25.484375 
L 43.21875 27.484375 
z
M 52.203125 31.203125 
L 52.203125 0 
L 43.21875 0 
L 43.21875 8.296875 
Q 40.140625 3.328125 35.546875 0.953125 
Q 30.953125 -1.421875 24.3125 -1.421875 
Q 15.921875 -1.421875 10.953125 3.296875 
Q 6 8.015625 6 15.921875 
Q 6 25.140625 12.171875 29.828125 
Q 18.359375 34.515625 30.609375 34.515625 
L 43.21875 34.515625 
L 43.21875 35.40625 
Q 43.21875 41.609375 39.140625 45 
Q 35.0625 48.390625 27.6875 48.390625 
Q 23 48.390625 18.546875 47.265625 
Q 14.109375 46.140625 10.015625 43.890625 
L 10.015625 52.203125 
Q 14.9375 54.109375 19.578125 55.046875 
Q 24.21875 56 28.609375 56 
Q 40.484375 56 46.34375 49.84375 
Q 52.203125 43.703125 52.203125 31.203125 
z
" id="DejaVuSans-97"/>
      <path d="M 44.28125 53.078125 
L 44.28125 44.578125 
Q 40.484375 46.53125 36.375 47.5 
Q 32.28125 48.484375 27.875 48.484375 
Q 21.1875 48.484375 17.84375 46.4375 
Q 14.5 44.390625 14.5 40.28125 
Q 14.5 37.15625 16.890625 35.375 
Q 19.28125 33.59375 26.515625 31.984375 
L 29.59375 31.296875 
Q 39.15625 29.25 43.1875 25.515625 
Q 47.21875 21.78125 47.21875 15.09375 
Q 47.21875 7.46875 41.1875 3.015625 
Q 35.15625 -1.421875 24.609375 -1.421875 
Q 20.21875 -1.421875 15.453125 -0.5625 
Q 10.6875 0.296875 5.421875 2 
L 5.421875 11.28125 
Q 10.40625 8.6875 15.234375 7.390625 
Q 20.0625 6.109375 24.8125 6.109375 
Q 31.15625 6.109375 34.5625 8.28125 
Q 37.984375 10.453125 37.984375 14.40625 
Q 37.984375 18.0625 35.515625 20.015625 
Q 33.0625 21.96875 24.703125 23.78125 
L 21.578125 24.515625 
Q 13.234375 26.265625 9.515625 29.90625 
Q 5.8125 33.546875 5.8125 39.890625 
Q 5.8125 47.609375 11.28125 51.796875 
Q 16.75 56 26.8125 56 
Q 31.78125 56 36.171875 55.265625 
Q 40.578125 54.546875 44.28125 53.078125 
z
" id="DejaVuSans-115"/>
      <path d="M 25.390625 72.90625 
L 33.6875 72.90625 
L 8.296875 -9.28125 
L 0 -9.28125 
z
" id="DejaVuSans-47"/>
      <path d="M 45.40625 46.390625 
L 45.40625 75.984375 
L 54.390625 75.984375 
L 54.390625 0 
L 45.40625 0 
L 45.40625 8.203125 
Q 42.578125 3.328125 38.25 0.953125 
Q 33.9375 -1.421875 27.875 -1.421875 
Q 17.96875 -1.421875 11.734375 6.484375 
Q 5.515625 14.40625 5.515625 27.296875 
Q 5.515625 40.1875 11.734375 48.09375 
Q 17.96875 56 27.875 56 
Q 33.9375 56 38.25 53.625 
Q 42.578125 51.265625 45.40625 46.390625 
z
M 14.796875 27.296875 
Q 14.796875 17.390625 18.875 11.75 
Q 22.953125 6.109375 30.078125 6.109375 
Q 37.203125 6.109375 41.296875 11.75 
Q 45.40625 17.390625 45.40625 27.296875 
Q 45.40625 37.203125 41.296875 42.84375 
Q 37.203125 48.484375 30.078125 48.484375 
Q 22.953125 48.484375 18.875 42.84375 
Q 14.796875 37.203125 14.796875 27.296875 
z
" id="DejaVuSans-100"/>
      <path d="M 9.421875 54.6875 
L 18.40625 54.6875 
L 18.40625 0 
L 9.421875 0 
z
M 9.421875 75.984375 
L 18.40625 75.984375 
L 18.40625 64.59375 
L 9.421875 64.59375 
z
" id="DejaVuSans-105"/>
      <path d="M 52 44.1875 
Q 55.375 50.25 60.0625 53.125 
Q 64.75 56 71.09375 56 
Q 79.640625 56 84.28125 50.015625 
Q 88.921875 44.046875 88.921875 33.015625 
L 88.921875 0 
L 79.890625 0 
L 79.890625 32.71875 
Q 79.890625 40.578125 77.09375 44.375 
Q 74.3125 48.1875 68.609375 48.1875 
Q 61.625 48.1875 57.5625 43.546875 
Q 53.515625 38.921875 53.515625 30.90625 
L 53.515625 0 
L 44.484375 0 
L 44.484375 32.71875 
Q 44.484375 40.625 41.703125 44.40625 
Q 38.921875 48.1875 33.109375 48.1875 
Q 26.21875 48.1875 22.15625 43.53125 
Q 18.109375 38.875 18.109375 30.90625 
L 18.109375 0 
L 9.078125 0 
L 9.078125 54.6875 
L 18.109375 54.6875 
L 18.109375 46.1875 
Q 21.1875 51.21875 25.484375 53.609375 
Q 29.78125 56 35.6875 56 
Q 41.65625 56 45.828125 52.96875 
Q 50 49.953125 52 44.1875 
z
" id="DejaVuSans-109"/>
      <path d="M 54.890625 33.015625 
L 54.890625 0 
L 45.90625 0 
L 45.90625 32.71875 
Q 45.90625 40.484375 42.875 44.328125 
Q 39.84375 48.1875 33.796875 48.1875 
Q 26.515625 48.1875 22.3125 43.546875 
Q 18.109375 38.921875 18.109375 30.90625 
L 18.109375 0 
L 9.078125 0 
L 9.078125 54.6875 
L 18.109375 54.6875 
L 18.109375 46.1875 
Q 21.34375 51.125 25.703125 53.5625 
Q 30.078125 56 35.796875 56 
Q 45.21875 56 50.046875 50.171875 
Q 54.890625 44.34375 54.890625 33.015625 
z
" id="DejaVuSans-110"/>
      <path d="M 8.015625 75.875 
L 15.828125 75.875 
Q 23.140625 64.359375 26.78125 53.3125 
Q 30.421875 42.28125 30.421875 31.390625 
Q 30.421875 20.453125 26.78125 9.375 
Q 23.140625 -1.703125 15.828125 -13.1875 
L 8.015625 -13.1875 
Q 14.5 -2 17.703125 9.0625 
Q 20.90625 20.125 20.90625 31.390625 
Q 20.90625 42.671875 17.703125 53.65625 
Q 14.5 64.65625 8.015625 75.875 
z
" id="DejaVuSans-41"/>
     </defs>
     <g transform="translate(77.303219 342.217594)scale(0.17 -0.17)">
      <use xlink:href="#DejaVuSans-108"/>
      <use x="27.783203" xlink:href="#DejaVuSans-111"/>
      <use x="88.964844" xlink:href="#DejaVuSans-103"/>
      <use x="152.441406" xlink:href="#DejaVuSans-49"/>
      <use x="216.064453" xlink:href="#DejaVuSans-48"/>
      <use x="279.6875" xlink:href="#DejaVuSans-40"/>
      <use x="318.701172" xlink:href="#DejaVuSans-35"/>
      <use x="402.490234" xlink:href="#DejaVuSans-32"/>
      <use x="434.277344" xlink:href="#DejaVuSans-102"/>
      <use x="469.404297" xlink:href="#DejaVuSans-45"/>
      <use x="505.488281" xlink:href="#DejaVuSans-101"/>
      <use x="567.011719" xlink:href="#DejaVuSans-118"/>
      <use x="626.191406" xlink:href="#DejaVuSans-97"/>
      <use x="687.470703" xlink:href="#DejaVuSans-108"/>
      <use x="715.253906" xlink:href="#DejaVuSans-115"/>
      <use x="767.353516" xlink:href="#DejaVuSans-32"/>
      <use x="799.140625" xlink:href="#DejaVuSans-47"/>
      <use x="832.832031" xlink:href="#DejaVuSans-32"/>
      <use x="864.619141" xlink:href="#DejaVuSans-100"/>
      <use x="928.095703" xlink:href="#DejaVuSans-105"/>
      <use x="955.878906" xlink:href="#DejaVuSans-109"/>
      <use x="1053.291016" xlink:href="#DejaVuSans-101"/>
      <use x="1114.814453" xlink:href="#DejaVuSans-110"/>
      <use x="1178.193359" xlink:href="#DejaVuSans-115"/>
      <use x="1230.292969" xlink:href="#DejaVuSans-105"/>
      <use x="1258.076172" xlink:href="#DejaVuSans-111"/>
      <use x="1319.257812" xlink:href="#DejaVuSans-110"/>
      <use x="1382.636719" xlink:href="#DejaVuSans-41"/>
     </g>
    </g>
   </g>
   <g id="matplotlib.axis_2">
    <g id="ytick_1">
     <g id="line2d_29">
      <path clip-path="url(#pbcf7754dc7)" d="M 57.6 298.944 
L 338.688 298.944 
" style="fill:none;stroke:#b0b0b0;stroke-linecap:square;stroke-width:0.8;"/>
     </g>
     <g id="line2d_30">
      <defs>
       <path d="M 0 0 
L -3.5 0 
" id="me989063f04" style="stroke:#000000;stroke-width:0.8;"/>
      </defs>
      <g>
       <use style="stroke:#000000;stroke-width:0.8;" x="57.6" xlink:href="#me989063f04" y="298.944"/>
      </g>
     </g>
     <g id="text_6">
      <!-- 0.0 -->
      <defs>
       <path d="M 10.6875 12.40625 
L 21 12.40625 
L 21 0 
L 10.6875 0 
z
" id="DejaVuSans-46"/>
      </defs>
      <g transform="translate(25.155 305.02275)scale(0.16 -0.16)">
       <use xlink:href="#DejaVuSans-48"/>
       <use x="63.623047" xlink:href="#DejaVuSans-46"/>
       <use x="95.410156" xlink:href="#DejaVuSans-48"/>
      </g>
     </g>
    </g>
    <g id="ytick_2">
     <g id="line2d_31">
      <path clip-path="url(#pbcf7754dc7)" d="M 57.6 245.22202 
L 338.688 245.22202 
" style="fill:none;stroke:#b0b0b0;stroke-linecap:square;stroke-width:0.8;"/>
     </g>
     <g id="line2d_32">
      <g>
       <use style="stroke:#000000;stroke-width:0.8;" x="57.6" xlink:href="#me989063f04" y="245.22202"/>
      </g>
     </g>
     <g id="text_7">
      <!-- 0.2 -->
      <g transform="translate(25.155 251.30077)scale(0.16 -0.16)">
       <use xlink:href="#DejaVuSans-48"/>
       <use x="63.623047" xlink:href="#DejaVuSans-46"/>
       <use x="95.410156" xlink:href="#DejaVuSans-50"/>
      </g>
     </g>
    </g>
    <g id="ytick_3">
     <g id="line2d_33">
      <path clip-path="url(#pbcf7754dc7)" d="M 57.6 191.50004 
L 338.688 191.50004 
" style="fill:none;stroke:#b0b0b0;stroke-linecap:square;stroke-width:0.8;"/>
     </g>
     <g id="line2d_34">
      <g>
       <use style="stroke:#000000;stroke-width:0.8;" x="57.6" xlink:href="#me989063f04" y="191.50004"/>
      </g>
     </g>
     <g id="text_8">
      <!-- 0.4 -->
      <g transform="translate(25.155 197.57879)scale(0.16 -0.16)">
       <use xlink:href="#DejaVuSans-48"/>
       <use x="63.623047" xlink:href="#DejaVuSans-46"/>
       <use x="95.410156" xlink:href="#DejaVuSans-52"/>
      </g>
     </g>
    </g>
    <g id="ytick_4">
     <g id="line2d_35">
      <path clip-path="url(#pbcf7754dc7)" d="M 57.6 137.778059 
L 338.688 137.778059 
" style="fill:none;stroke:#b0b0b0;stroke-linecap:square;stroke-width:0.8;"/>
     </g>
     <g id="line2d_36">
      <g>
       <use style="stroke:#000000;stroke-width:0.8;" x="57.6" xlink:href="#me989063f04" y="137.778059"/>
      </g>
     </g>
     <g id="text_9">
      <!-- 0.6 -->
      <g transform="translate(25.155 143.856809)scale(0.16 -0.16)">
       <use xlink:href="#DejaVuSans-48"/>
       <use x="63.623047" xlink:href="#DejaVuSans-46"/>
       <use x="95.410156" xlink:href="#DejaVuSans-54"/>
      </g>
     </g>
    </g>
    <g id="ytick_5">
     <g id="line2d_37">
      <path clip-path="url(#pbcf7754dc7)" d="M 57.6 84.056079 
L 338.688 84.056079 
" style="fill:none;stroke:#b0b0b0;stroke-linecap:square;stroke-width:0.8;"/>
     </g>
     <g id="line2d_38">
      <g>
       <use style="stroke:#000000;stroke-width:0.8;" x="57.6" xlink:href="#me989063f04" y="84.056079"/>
      </g>
     </g>
     <g id="text_10">
      <!-- 0.8 -->
      <defs>
       <path d="M 31.78125 34.625 
Q 24.75 34.625 20.71875 30.859375 
Q 16.703125 27.09375 16.703125 20.515625 
Q 16.703125 13.921875 20.71875 10.15625 
Q 24.75 6.390625 31.78125 6.390625 
Q 38.8125 6.390625 42.859375 10.171875 
Q 46.921875 13.96875 46.921875 20.515625 
Q 46.921875 27.09375 42.890625 30.859375 
Q 38.875 34.625 31.78125 34.625 
z
M 21.921875 38.8125 
Q 15.578125 40.375 12.03125 44.71875 
Q 8.5 49.078125 8.5 55.328125 
Q 8.5 64.0625 14.71875 69.140625 
Q 20.953125 74.21875 31.78125 74.21875 
Q 42.671875 74.21875 48.875 69.140625 
Q 55.078125 64.0625 55.078125 55.328125 
Q 55.078125 49.078125 51.53125 44.71875 
Q 48 40.375 41.703125 38.8125 
Q 48.828125 37.15625 52.796875 32.3125 
Q 56.78125 27.484375 56.78125 20.515625 
Q 56.78125 9.90625 50.3125 4.234375 
Q 43.84375 -1.421875 31.78125 -1.421875 
Q 19.734375 -1.421875 13.25 4.234375 
Q 6.78125 9.90625 6.78125 20.515625 
Q 6.78125 27.484375 10.78125 32.3125 
Q 14.796875 37.15625 21.921875 38.8125 
z
M 18.3125 54.390625 
Q 18.3125 48.734375 21.84375 45.5625 
Q 25.390625 42.390625 31.78125 42.390625 
Q 38.140625 42.390625 41.71875 45.5625 
Q 45.3125 48.734375 45.3125 54.390625 
Q 45.3125 60.0625 41.71875 63.234375 
Q 38.140625 66.40625 31.78125 66.40625 
Q 25.390625 66.40625 21.84375 63.234375 
Q 18.3125 60.0625 18.3125 54.390625 
z
" id="DejaVuSans-56"/>
      </defs>
      <g transform="translate(25.155 90.134829)scale(0.16 -0.16)">
       <use xlink:href="#DejaVuSans-48"/>
       <use x="63.623047" xlink:href="#DejaVuSans-46"/>
       <use x="95.410156" xlink:href="#DejaVuSans-56"/>
      </g>
     </g>
    </g>
    <g id="ytick_6">
     <g id="line2d_39">
      <path clip-path="url(#pbcf7754dc7)" d="M 57.6 30.334099 
L 338.688 30.334099 
" style="fill:none;stroke:#b0b0b0;stroke-linecap:square;stroke-width:0.8;"/>
     </g>
     <g id="line2d_40">
      <g>
       <use style="stroke:#000000;stroke-width:0.8;" x="57.6" xlink:href="#me989063f04" y="30.334099"/>
      </g>
     </g>
     <g id="text_11">
      <!-- 1.0 -->
      <g transform="translate(25.155 36.412849)scale(0.16 -0.16)">
       <use xlink:href="#DejaVuSans-49"/>
       <use x="63.623047" xlink:href="#DejaVuSans-46"/>
       <use x="95.410156" xlink:href="#DejaVuSans-48"/>
      </g>
     </g>
    </g>
    <g id="text_12">
     <!-- Fraction of function,target pairs -->
     <defs>
      <path d="M 9.8125 72.90625 
L 51.703125 72.90625 
L 51.703125 64.59375 
L 19.671875 64.59375 
L 19.671875 43.109375 
L 48.578125 43.109375 
L 48.578125 34.8125 
L 19.671875 34.8125 
L 19.671875 0 
L 9.8125 0 
z
" id="DejaVuSans-70"/>
      <path d="M 41.109375 46.296875 
Q 39.59375 47.171875 37.8125 47.578125 
Q 36.03125 48 33.890625 48 
Q 26.265625 48 22.1875 43.046875 
Q 18.109375 38.09375 18.109375 28.8125 
L 18.109375 0 
L 9.078125 0 
L 9.078125 54.6875 
L 18.109375 54.6875 
L 18.109375 46.1875 
Q 20.953125 51.171875 25.484375 53.578125 
Q 30.03125 56 36.53125 56 
Q 37.453125 56 38.578125 55.875 
Q 39.703125 55.765625 41.0625 55.515625 
z
" id="DejaVuSans-114"/>
      <path d="M 48.78125 52.59375 
L 48.78125 44.1875 
Q 44.96875 46.296875 41.140625 47.34375 
Q 37.3125 48.390625 33.40625 48.390625 
Q 24.65625 48.390625 19.8125 42.84375 
Q 14.984375 37.3125 14.984375 27.296875 
Q 14.984375 17.28125 19.8125 11.734375 
Q 24.65625 6.203125 33.40625 6.203125 
Q 37.3125 6.203125 41.140625 7.25 
Q 44.96875 8.296875 48.78125 10.40625 
L 48.78125 2.09375 
Q 45.015625 0.34375 40.984375 -0.53125 
Q 36.96875 -1.421875 32.421875 -1.421875 
Q 20.0625 -1.421875 12.78125 6.34375 
Q 5.515625 14.109375 5.515625 27.296875 
Q 5.515625 40.671875 12.859375 48.328125 
Q 20.21875 56 33.015625 56 
Q 37.15625 56 41.109375 55.140625 
Q 45.0625 54.296875 48.78125 52.59375 
z
" id="DejaVuSans-99"/>
      <path d="M 18.3125 70.21875 
L 18.3125 54.6875 
L 36.8125 54.6875 
L 36.8125 47.703125 
L 18.3125 47.703125 
L 18.3125 18.015625 
Q 18.3125 11.328125 20.140625 9.421875 
Q 21.96875 7.515625 27.59375 7.515625 
L 36.8125 7.515625 
L 36.8125 0 
L 27.59375 0 
Q 17.1875 0 13.234375 3.875 
Q 9.28125 7.765625 9.28125 18.015625 
L 9.28125 47.703125 
L 2.6875 47.703125 
L 2.6875 54.6875 
L 9.28125 54.6875 
L 9.28125 70.21875 
z
" id="DejaVuSans-116"/>
      <path d="M 8.5 21.578125 
L 8.5 54.6875 
L 17.484375 54.6875 
L 17.484375 21.921875 
Q 17.484375 14.15625 20.5 10.265625 
Q 23.53125 6.390625 29.59375 6.390625 
Q 36.859375 6.390625 41.078125 11.03125 
Q 45.3125 15.671875 45.3125 23.6875 
L 45.3125 54.6875 
L 54.296875 54.6875 
L 54.296875 0 
L 45.3125 0 
L 45.3125 8.40625 
Q 42.046875 3.421875 37.71875 1 
Q 33.40625 -1.421875 27.6875 -1.421875 
Q 18.265625 -1.421875 13.375 4.4375 
Q 8.5 10.296875 8.5 21.578125 
z
M 31.109375 56 
z
" id="DejaVuSans-117"/>
      <path d="M 11.71875 12.40625 
L 22.015625 12.40625 
L 22.015625 4 
L 14.015625 -11.625 
L 7.71875 -11.625 
L 11.71875 4 
z
" id="DejaVuSans-44"/>
      <path d="M 18.109375 8.203125 
L 18.109375 -20.796875 
L 9.078125 -20.796875 
L 9.078125 54.6875 
L 18.109375 54.6875 
L 18.109375 46.390625 
Q 20.953125 51.265625 25.265625 53.625 
Q 29.59375 56 35.59375 56 
Q 45.5625 56 51.78125 48.09375 
Q 58.015625 40.1875 58.015625 27.296875 
Q 58.015625 14.40625 51.78125 6.484375 
Q 45.5625 -1.421875 35.59375 -1.421875 
Q 29.59375 -1.421875 25.265625 0.953125 
Q 20.953125 3.328125 18.109375 8.203125 
z
M 48.6875 27.296875 
Q 48.6875 37.203125 44.609375 42.84375 
Q 40.53125 48.484375 33.40625 48.484375 
Q 26.265625 48.484375 22.1875 42.84375 
Q 18.109375 37.203125 18.109375 27.296875 
Q 18.109375 17.390625 22.1875 11.75 
Q 26.265625 6.109375 33.40625 6.109375 
Q 40.53125 6.109375 44.609375 11.75 
Q 48.6875 17.390625 48.6875 27.296875 
z
" id="DejaVuSans-112"/>
     </defs>
     <g transform="translate(17.619531 298.435375)rotate(-90)scale(0.17 -0.17)">
      <use xlink:href="#DejaVuSans-70"/>
      <use x="57.410156" xlink:href="#DejaVuSans-114"/>
      <use x="98.523438" xlink:href="#DejaVuSans-97"/>
      <use x="159.802734" xlink:href="#DejaVuSans-99"/>
      <use x="214.783203" xlink:href="#DejaVuSans-116"/>
      <use x="253.992188" xlink:href="#DejaVuSans-105"/>
      <use x="281.775391" xlink:href="#DejaVuSans-111"/>
      <use x="342.957031" xlink:href="#DejaVuSans-110"/>
      <use x="406.335938" xlink:href="#DejaVuSans-32"/>
      <use x="438.123047" xlink:href="#DejaVuSans-111"/>
      <use x="499.304688" xlink:href="#DejaVuSans-102"/>
      <use x="534.509766" xlink:href="#DejaVuSans-32"/>
      <use x="566.296875" xlink:href="#DejaVuSans-102"/>
      <use x="601.501953" xlink:href="#DejaVuSans-117"/>
      <use x="664.880859" xlink:href="#DejaVuSans-110"/>
      <use x="728.259766" xlink:href="#DejaVuSans-99"/>
      <use x="783.240234" xlink:href="#DejaVuSans-116"/>
      <use x="822.449219" xlink:href="#DejaVuSans-105"/>
      <use x="850.232422" xlink:href="#DejaVuSans-111"/>
      <use x="911.414062" xlink:href="#DejaVuSans-110"/>
      <use x="974.792969" xlink:href="#DejaVuSans-44"/>
      <use x="1006.580078" xlink:href="#DejaVuSans-116"/>
      <use x="1045.789062" xlink:href="#DejaVuSans-97"/>
      <use x="1107.068359" xlink:href="#DejaVuSans-114"/>
      <use x="1148.166016" xlink:href="#DejaVuSans-103"/>
      <use x="1211.642578" xlink:href="#DejaVuSans-101"/>
      <use x="1273.166016" xlink:href="#DejaVuSans-116"/>
      <use x="1312.375" xlink:href="#DejaVuSans-32"/>
      <use x="1344.162109" xlink:href="#DejaVuSans-112"/>
      <use x="1407.638672" xlink:href="#DejaVuSans-97"/>
      <use x="1468.917969" xlink:href="#DejaVuSans-105"/>
      <use x="1496.701172" xlink:href="#DejaVuSans-114"/>
      <use x="1537.814453" xlink:href="#DejaVuSans-115"/>
     </g>
    </g>
   </g>
   <g id="line2d_41">
    <defs>
     <path d="M 0 1.5 
C 0.397805 1.5 0.77937 1.341951 1.06066 1.06066 
C 1.341951 0.77937 1.5 0.397805 1.5 0 
C 1.5 -0.397805 1.341951 -0.77937 1.06066 -1.06066 
C 0.77937 -1.341951 0.397805 -1.5 0 -1.5 
C -0.397805 -1.5 -0.77937 -1.341951 -1.06066 -1.06066 
C -1.341951 -0.77937 -1.5 -0.397805 -1.5 0 
C -1.5 0.397805 -1.341951 0.77937 -1.06066 1.06066 
C -0.77937 1.341951 -0.397805 1.5 0 1.5 
z
" id="m652a9ff6d3" style="stroke:#f5deb3;"/>
    </defs>
    <g>
     <use style="fill:#f5deb3;stroke:#f5deb3;" x="221.918872" xlink:href="#m652a9ff6d3" y="30.334099"/>
     <use style="fill:#f5deb3;stroke:#f5deb3;" x="221.918872" xlink:href="#m652a9ff6d3" y="30.334099"/>
    </g>
   </g>
   <g id="line2d_42">
    <defs>
     <path d="M 0 1.5 
C 0.397805 1.5 0.77937 1.341951 1.06066 1.06066 
C 1.341951 0.77937 1.5 0.397805 1.5 0 
C 1.5 -0.397805 1.341951 -0.77937 1.06066 -1.06066 
C 0.77937 -1.341951 0.397805 -1.5 0 -1.5 
C -0.397805 -1.5 -0.77937 -1.341951 -1.06066 -1.06066 
C -1.341951 -0.77937 -1.5 -0.397805 -1.5 0 
C -1.5 0.397805 -1.341951 0.77937 -1.06066 1.06066 
C -0.77937 1.341951 -0.397805 1.5 0 1.5 
z
" id="m0abf173e0a" style="stroke:#000080;"/>
    </defs>
    <g>
     <use style="fill:#000080;stroke:#000080;" x="333.706296" xlink:href="#m0abf173e0a" y="193.606784"/>
     <use style="fill:#000080;stroke:#000080;" x="333.706296" xlink:href="#m0abf173e0a" y="193.606784"/>
    </g>
   </g>
   <g id="line2d_43">
    <path d="M 45.512012 298.944 
L 45.512012 285.250162 
L 57.6 285.250162 
L 57.6 281.036673 
L 64.67102 281.036673 
L 64.67102 279.456615 
L 69.687988 279.456615 
L 69.687988 278.929929 
L 73.579452 278.929929 
L 73.579452 276.296499 
L 76.759008 276.296499 
L 76.759008 275.243126 
L 79.447285 275.243126 
L 79.447285 274.71644 
L 81.775977 274.71644 
L 81.775977 274.189754 
L 85.66744 274.189754 
L 85.66744 273.136382 
L 88.846997 273.136382 
L 88.846997 271.029638 
L 90.242884 271.029638 
L 90.242884 270.502952 
L 96.86091 270.502952 
L 96.86091 269.976266 
L 97.755429 269.976266 
L 97.755429 269.449579 
L 98.606294 269.449579 
L 98.606294 268.922893 
L 101.646892 268.922893 
L 101.646892 268.396207 
L 104.826449 268.396207 
L 104.826449 267.869521 
L 108.483824 267.869521 
L 108.483824 266.289463 
L 113.73488 266.289463 
L 113.73488 265.236091 
L 115.397021 265.236091 
L 115.397021 264.709405 
L 116.621333 264.709405 
L 116.621333 263.656033 
L 117.202696 263.656033 
L 117.202696 263.129347 
L 119.097192 263.129347 
L 119.097192 262.60266 
L 119.602714 262.60266 
L 119.602714 262.075974 
L 121.712041 262.075974 
L 121.712041 261.549288 
L 124.557288 261.549288 
L 124.557288 261.022602 
L 128.709321 261.022602 
L 128.709321 260.495916 
L 129.002426 260.495916 
L 129.002426 259.96923 
L 133.910056 259.96923 
L 133.910056 257.3358 
L 134.343353 257.3358 
L 134.343353 256.809114 
L 134.766144 256.809114 
L 134.766144 256.282427 
L 135.582166 256.282427 
L 135.582166 255.755741 
L 136.738785 255.755741 
L 136.738785 255.229055 
L 137.198951 255.229055 
L 137.198951 254.702369 
L 138.170504 254.702369 
L 138.170504 254.175683 
L 141.235139 254.175683 
L 141.235139 253.122311 
L 146.052799 253.122311 
L 146.052799 252.068939 
L 148.40198 252.068939 
L 148.40198 251.542253 
L 149.104327 251.542253 
L 149.104327 251.015567 
L 153.925152 251.015567 
L 153.925152 250.488881 
L 163.061823 250.488881 
L 163.061823 249.962195 
L 163.847782 249.962195 
L 163.847782 249.435508 
L 164.768882 249.435508 
L 164.768882 248.908822 
L 165.175324 248.908822 
L 165.175324 248.382136 
L 165.925901 248.382136 
L 165.925901 247.328764 
L 167.576907 247.328764 
L 167.576907 246.802078 
L 168.701418 246.802078 
L 168.701418 245.22202 
L 170.660731 245.22202 
L 170.660731 244.695334 
L 170.819995 244.695334 
L 170.819995 244.168648 
L 173.428822 244.168648 
L 173.428822 243.641962 
L 174.337554 243.641962 
L 174.337554 242.061903 
L 175.906187 242.061903 
L 175.906187 241.535217 
L 177.162587 241.535217 
L 177.162587 241.008531 
L 179.164521 241.008531 
L 179.164521 240.481845 
L 180.654624 240.481845 
L 180.654624 239.955159 
L 182.213959 239.955159 
L 182.213959 238.901787 
L 184.206035 238.901787 
L 184.206035 238.375101 
L 186.773004 238.375101 
L 186.773004 237.848415 
L 191.260695 237.848415 
L 191.260695 237.321729 
L 198.3508 237.321729 
L 198.3508 236.795043 
L 198.51893 236.795043 
L 198.51893 236.268356 
L 199.341242 236.268356 
L 199.356682 235.214984 
L 199.665169 235.214984 
L 199.755907 232.581554 
L 201.455261 232.581554 
L 201.455261 232.054868 
L 202.331411 232.054868 
L 202.331411 231.001496 
L 203.016143 231.001496 
L 203.016143 228.894751 
L 204.839995 228.894751 
L 204.839995 227.314693 
L 206.420841 227.314693 
L 206.420841 226.261321 
L 211.763263 226.261321 
L 211.763263 225.734635 
L 212.382283 225.734635 
L 212.382283 225.207949 
L 212.69512 225.207949 
L 212.69512 224.681263 
L 213.559206 224.681263 
L 213.559206 224.154577 
L 215.06133 224.154577 
L 215.06133 223.627891 
L 223.483074 223.627891 
L 223.483074 222.047832 
L 275.944476 222.047832 
L 275.961536 220.99446 
L 277.084578 220.99446 
L 277.084578 220.467774 
L 277.360499 220.467774 
L 277.360499 219.941088 
L 277.640388 219.941088 
L 277.640388 219.414402 
L 277.971139 219.414402 
L 278.04201 217.834344 
L 278.620899 217.834344 
L 278.620899 217.307658 
L 288.614464 217.307658 
L 288.614464 216.780971 
L 289.090751 216.780971 
L 289.090751 216.254285 
L 289.217712 216.254285 
L 289.217712 215.727599 
L 289.840048 215.727599 
L 289.840048 215.200913 
L 290.168539 215.200913 
L 290.168539 214.674227 
L 290.407318 214.674227 
L 290.407318 214.147541 
L 295.172998 214.147541 
L 295.172998 213.620855 
L 295.888301 213.620855 
L 295.888301 213.094169 
L 296.801765 213.094169 
L 296.894213 211.514111 
L 296.977605 211.514111 
L 296.977605 210.987425 
L 301.046839 210.987425 
L 301.101061 209.934052 
L 301.548209 209.934052 
L 301.548209 209.407366 
L 301.899743 209.407366 
L 301.899743 208.88068 
L 305.775409 208.88068 
L 305.775409 208.353994 
L 307.804172 208.353994 
L 307.804172 207.827308 
L 308.112365 207.827308 
L 308.21411 206.773936 
L 308.627131 206.773936 
L 308.627131 206.24725 
L 310.59849 206.24725 
L 310.59849 205.720564 
L 311.074751 205.720564 
L 311.074751 205.193878 
L 311.269254 205.193878 
L 311.269254 204.667192 
L 311.448361 204.667192 
L 311.448361 204.140506 
L 312.956431 204.140506 
L 312.956431 203.613819 
L 313.236212 203.613819 
L 313.236212 203.087133 
L 313.556066 203.087133 
L 313.556066 202.560447 
L 315.020371 202.560447 
L 315.020371 202.033761 
L 315.752729 202.033761 
L 315.752729 201.507075 
L 317.59594 201.507075 
L 317.59594 200.980389 
L 318.968748 200.980389 
L 318.968748 200.453703 
L 320.573069 200.453703 
L 320.573069 199.927017 
L 320.878912 199.927017 
L 320.878912 199.400331 
L 324.340444 199.400331 
L 324.340444 198.873645 
L 325.483929 198.873645 
L 325.487502 197.820273 
L 326.761535 197.820273 
L 326.761535 197.293586 
L 328.259104 197.293586 
L 328.259104 196.7669 
L 328.43714 196.7669 
L 328.43714 196.240214 
L 330.933976 196.240214 
L 330.933976 195.713528 
L 331.099609 195.713528 
L 331.099609 195.186842 
L 333.062674 195.186842 
L 333.146974 194.13347 
L 333.706296 194.13347 
L 333.706296 193.606784 
L 338.688 193.606784 
L 338.688 193.606784 
" style="fill:none;stroke:#000080;stroke-linecap:square;stroke-width:1.5;"/>
   </g>
   <g id="line2d_44">
    <defs>
     <path d="M 0 6 
C 1.591219 6 3.117479 5.367802 4.242641 4.242641 
C 5.367802 3.117479 6 1.591219 6 0 
C 6 -1.591219 5.367802 -3.117479 4.242641 -4.242641 
C 3.117479 -5.367802 1.591219 -6 0 -6 
C -1.591219 -6 -3.117479 -5.367802 -4.242641 -4.242641 
C -5.367802 -3.117479 -6 -1.591219 -6 0 
C -6 1.591219 -5.367802 3.117479 -4.242641 4.242641 
C -3.117479 5.367802 -1.591219 6 0 6 
z
" id="m2c2ec1d2cc" style="stroke:#000080;stroke-width:1.5;"/>
    </defs>
    <g>
     <use style="fill-opacity:0;stroke:#000080;stroke-width:1.5;" x="104.826449" xlink:href="#m2c2ec1d2cc" y="267.869521"/>
     <use style="fill-opacity:0;stroke:#000080;stroke-width:1.5;" x="199.665169" xlink:href="#m2c2ec1d2cc" y="234.688298"/>
     <use style="fill-opacity:0;stroke:#000080;stroke-width:1.5;" x="223.483074" xlink:href="#m2c2ec1d2cc" y="223.627891"/>
     <use style="fill-opacity:0;stroke:#000080;stroke-width:1.5;" x="315.020371" xlink:href="#m2c2ec1d2cc" y="202.560447"/>
     <use style="fill-opacity:0;stroke:#000080;stroke-width:1.5;" x="333.706296" xlink:href="#m2c2ec1d2cc" y="193.606784"/>
     <use style="fill-opacity:0;stroke:#000080;stroke-width:1.5;" x="338.688" xlink:href="#m2c2ec1d2cc" y="193.606784"/>
    </g>
   </g>
   <g id="line2d_45">
    <path style="fill:none;stroke:#000080;stroke-linecap:square;stroke-width:1.5;"/>
    <g/>
   </g>
   <g id="line2d_46">
    <path clip-path="url(#pbcf7754dc7)" d="M 277.263489 220.467774 
" style="fill:none;stroke:#000080;stroke-linecap:square;stroke-width:1.5;"/>
    <defs>
     <path d="M -12 12 
L 12 -12 
M -12 -12 
L 12 12 
" id="m0abfb810db" style="stroke:#000080;"/>
    </defs>
    <g clip-path="url(#pbcf7754dc7)">
     <use style="fill:#000080;stroke:#000080;" x="277.263489" xlink:href="#m0abfb810db" y="220.467774"/>
    </g>
   </g>
   <g id="line2d_47">
    <defs>
     <path d="M 0 1.5 
C 0.397805 1.5 0.77937 1.341951 1.06066 1.06066 
C 1.341951 0.77937 1.5 0.397805 1.5 0 
C 1.5 -0.397805 1.341951 -0.77937 1.06066 -1.06066 
C 0.77937 -1.341951 0.397805 -1.5 0 -1.5 
C -0.397805 -1.5 -0.77937 -1.341951 -1.06066 -1.06066 
C -1.341951 -0.77937 -1.5 -0.397805 -1.5 0 
C -1.5 0.397805 -1.341951 0.77937 -1.06066 1.06066 
C -0.77937 1.341951 -0.397805 1.5 0 1.5 
z
" id="m0e3517c44b" style="stroke:#ff0000;"/>
    </defs>
    <g>
     <use style="fill:#ff0000;stroke:#ff0000;" x="334.875578" xlink:href="#m0e3517c44b" y="30.334099"/>
     <use style="fill:#ff0000;stroke:#ff0000;" x="334.875578" xlink:href="#m0e3517c44b" y="30.334099"/>
    </g>
   </g>
   <g id="line2d_48">
    <path d="M 45.512012 298.944 
L 45.512012 284.19679 
L 57.6 284.19679 
L 57.6 279.456615 
L 64.67102 279.456615 
L 64.67102 277.876557 
L 69.687988 277.876557 
L 69.687988 275.769812 
L 73.579452 275.769812 
L 73.579452 273.136382 
L 76.759008 273.136382 
L 76.759008 271.029638 
L 83.830028 271.029638 
L 83.830028 269.976266 
L 87.329581 269.976266 
L 87.329581 269.449579 
L 91.535274 269.449579 
L 91.535274 268.396207 
L 92.73846 268.396207 
L 92.73846 267.342835 
L 96.86091 267.342835 
L 96.86091 266.816149 
L 97.755429 266.816149 
L 97.755429 265.762777 
L 100.192776 265.762777 
L 100.192776 265.236091 
L 102.330873 265.236091 
L 102.330873 264.709405 
L 107.009204 264.709405 
L 107.009204 264.182719 
L 107.514726 264.182719 
L 107.514726 263.656033 
L 108.483824 263.656033 
L 108.483824 262.60266 
L 108.948899 262.60266 
L 108.948899 261.022602 
L 114.080224 261.022602 
L 114.080224 260.495916 
L 121.931406 260.495916 
L 121.931406 259.96923 
L 122.148045 259.96923 
L 122.148045 259.442544 
L 124.743806 259.442544 
L 124.743806 258.915858 
L 124.92835 258.915858 
L 124.92835 258.389172 
L 125.822869 258.389172 
L 125.822869 257.862486 
L 125.996395 257.862486 
L 125.996395 257.3358 
L 126.839037 257.3358 
L 126.839037 256.809114 
L 129.853291 256.809114 
L 129.853291 256.282427 
L 131.185181 256.282427 
L 131.185181 255.755741 
L 131.439773 255.755741 
L 131.439773 255.229055 
L 131.690703 255.229055 
L 131.690703 251.015567 
L 132.060454 251.015567 
L 132.060454 250.488881 
L 134.343353 250.488881 
L 134.450015 249.435508 
L 135.076644 249.435508 
L 135.076644 248.908822 
L 138.510793 248.908822 
L 138.510793 247.85545 
L 147.4697 247.85545 
L 147.4697 246.802078 
L 147.769524 246.802078 
L 147.769524 246.275392 
L 160.961329 246.275392 
L 160.961329 245.748706 
L 168.938489 245.748706 
L 168.938489 245.22202 
L 169.403177 245.22202 
L 169.403177 244.695334 
L 170.022555 244.695334 
L 170.022555 244.168648 
L 170.187727 244.168648 
L 170.187727 243.115275 
L 170.51345 243.115275 
L 170.51345 241.535217 
L 171.147196 241.535217 
L 171.147196 241.008531 
L 173.576085 241.008531 
L 173.576085 240.481845 
L 173.844732 240.481845 
L 173.844732 239.955159 
L 175.876553 239.955159 
L 175.876553 239.428473 
L 176.507601 239.428473 
L 176.61217 230.47481 
L 176.659495 230.47481 
L 176.725536 224.681263 
L 176.94078 224.681263 
L 176.94078 224.154577 
L 178.428718 224.154577 
L 178.428718 223.627891 
L 179.870531 223.627891 
L 179.870531 223.101204 
L 183.727364 223.101204 
L 183.727364 222.574518 
L 190.601901 222.574518 
L 190.657055 221.521146 
L 191.12514 221.521146 
L 191.190995 219.941088 
L 191.468138 219.941088 
L 191.54882 216.780971 
L 192.196696 216.780971 
L 192.196696 216.254285 
L 193.165899 216.254285 
L 193.165899 215.727599 
L 193.312018 215.727599 
L 193.322928 213.094169 
L 194.091021 213.094169 
L 194.091021 212.567483 
L 194.83004 212.567483 
L 194.83004 210.460738 
L 195.818504 210.460738 
L 195.818504 209.407366 
L 197.808373 209.407366 
L 197.808373 208.88068 
L 198.203031 208.88068 
L 198.241462 199.927017 
L 201.276465 199.927017 
L 201.276465 199.400331 
L 201.740267 199.400331 
L 201.840936 197.820273 
L 205.595346 197.820273 
L 205.595346 197.293586 
L 206.333133 197.293586 
L 206.333133 196.240214 
L 206.969637 196.240214 
L 206.969637 195.713528 
L 208.426412 195.713528 
L 208.426412 195.186842 
L 209.489687 195.186842 
L 209.489687 194.660156 
L 210.212523 194.660156 
L 210.212523 190.973354 
L 210.414247 190.973354 
L 210.456491 182.01969 
L 214.470292 182.01969 
L 214.470292 181.493004 
L 249.676019 181.493004 
L 249.676019 180.966318 
L 251.838446 180.966318 
L 251.838446 180.439632 
L 263.853909 180.439632 
L 263.853909 179.912946 
L 274.666716 179.912946 
L 274.725277 177.806202 
L 274.832889 177.806202 
L 274.878342 176.226143 
L 275.001999 176.226143 
L 275.048488 175.172771 
L 275.361374 175.172771 
L 275.366674 173.066027 
L 275.576496 173.066027 
L 275.576496 172.539341 
L 275.929886 172.539341 
L 275.929886 172.012655 
L 276.453935 172.012655 
L 276.453935 171.485969 
L 276.59252 171.485969 
L 276.69494 170.432596 
L 276.751582 170.432596 
L 276.856671 165.692422 
L 276.897331 165.692422 
L 276.940843 162.532305 
L 277.090811 162.532305 
L 277.147996 157.79213 
L 277.235124 157.79213 
L 277.273643 156.212072 
L 277.352364 156.212072 
L 277.352688 155.1587 
L 277.484688 155.1587 
L 277.484688 154.632014 
L 278.049604 154.632014 
L 278.133026 153.051956 
L 278.176508 153.051956 
L 278.282985 151.998584 
L 278.351854 151.998584 
L 278.458399 148.838467 
L 278.469395 148.838467 
L 278.577966 145.151665 
L 278.5821 145.151665 
L 278.582236 144.098292 
L 278.735725 144.098292 
L 278.757798 141.991548 
L 282.945311 141.991548 
L 282.945311 141.464862 
L 286.858557 141.464862 
L 286.858557 140.938176 
L 287.830723 140.938176 
L 287.903406 138.831432 
L 288.039119 138.831432 
L 288.147136 137.251373 
L 288.154569 137.251373 
L 288.237833 136.198001 
L 288.275996 136.198001 
L 288.316708 134.617943 
L 288.424301 134.617943 
L 288.424301 134.091257 
L 288.700961 134.091257 
L 288.77257 132.511199 
L 288.852365 132.511199 
L 288.908918 131.457826 
L 288.968985 131.457826 
L 289.00108 130.404454 
L 289.175728 130.404454 
L 289.24962 129.351082 
L 289.354725 129.351082 
L 289.354725 128.824396 
L 289.468983 128.824396 
L 289.492193 127.771024 
L 289.654574 127.771024 
L 289.764065 124.610907 
L 289.766069 124.610907 
L 289.846893 122.504163 
L 289.921502 122.504163 
L 289.982971 120.397419 
L 290.039981 120.397419 
L 290.130987 118.290674 
L 290.271499 118.290674 
L 290.380313 117.237302 
L 290.469634 117.237302 
L 290.57187 115.657244 
L 294.633521 115.657244 
L 294.633521 115.130558 
L 294.836916 115.130558 
L 294.836916 114.603872 
L 295.049715 114.603872 
L 295.049715 114.077186 
L 295.228224 114.077186 
L 295.288349 112.497128 
L 295.592097 112.497128 
L 295.668851 110.917069 
L 295.779794 110.917069 
L 295.86144 107.756953 
L 295.891578 107.756953 
L 295.959864 105.650209 
L 296.013413 105.650209 
L 296.094066 103.543464 
L 296.130971 103.543464 
L 296.242015 100.383348 
L 296.29658 100.383348 
L 296.29658 99.856662 
L 296.467453 99.856662 
L 296.570353 98.276603 
L 296.598998 98.276603 
L 296.661227 97.223231 
L 297.190785 97.223231 
L 297.190785 96.696545 
L 299.82781 96.696545 
L 299.82781 96.169859 
L 300.06293 96.169859 
L 300.106883 95.116487 
L 300.231914 95.116487 
L 300.231914 94.589801 
L 300.411102 94.589801 
L 300.484931 93.009743 
L 300.614047 93.009743 
L 300.65306 91.95637 
L 300.779638 91.95637 
L 300.889879 89.32294 
L 301.07422 89.32294 
L 301.175225 88.269568 
L 301.20569 88.269568 
L 301.221885 87.216196 
L 301.340652 87.216196 
L 301.428754 85.109451 
L 301.848658 85.109451 
L 301.848658 84.582765 
L 304.112992 84.582765 
L 304.120481 83.529393 
L 304.227802 83.529393 
L 304.227802 83.002707 
L 304.382708 83.002707 
L 304.382708 82.476021 
L 304.496907 82.476021 
L 304.600428 80.895963 
L 304.611163 80.895963 
L 304.611163 80.369277 
L 304.766918 80.369277 
L 304.766918 79.842591 
L 304.952797 79.842591 
L 305.001046 78.262532 
L 305.086207 78.262532 
L 305.196405 75.629102 
L 305.301192 75.629102 
L 305.358943 74.57573 
L 305.482463 74.57573 
L 305.482463 74.049044 
L 305.641463 74.049044 
L 305.641463 73.522358 
L 307.671026 73.522358 
L 307.775772 71.942299 
L 307.94122 71.942299 
L 307.97495 70.362241 
L 308.053309 70.362241 
L 308.15444 68.782183 
L 308.193598 68.782183 
L 308.218239 67.728811 
L 308.379066 67.728811 
L 308.470259 66.148752 
L 308.53459 66.148752 
L 308.53459 65.622066 
L 308.658956 65.622066 
L 308.658956 65.09538 
L 308.979926 65.09538 
L 308.979926 64.568694 
L 310.268244 64.568694 
L 310.377607 63.515322 
L 310.399372 63.515322 
L 310.399372 62.988636 
L 310.532663 62.988636 
L 310.532663 62.46195 
L 310.643917 62.46195 
L 310.730962 61.408578 
L 310.769261 61.408578 
L 310.851279 60.355206 
L 310.887129 60.355206 
L 310.997616 58.248461 
L 311.13237 58.248461 
L 311.139252 57.195089 
L 311.375545 57.195089 
L 311.413339 56.141717 
L 311.540274 56.141717 
L 311.540274 55.615031 
L 312.038112 55.615031 
L 312.038112 55.088345 
L 312.278 55.088345 
L 312.278 54.561659 
L 312.582658 54.561659 
L 312.582658 54.034973 
L 312.703479 54.034973 
L 312.762474 52.454914 
L 312.815881 52.454914 
L 312.910455 51.401542 
L 312.967299 51.401542 
L 313.034261 50.34817 
L 313.111334 50.34817 
L 313.157976 48.768112 
L 313.240696 48.768112 
L 313.284639 47.71474 
L 313.540031 47.71474 
L 313.540031 47.188054 
L 313.900622 47.188054 
L 313.933009 46.134681 
L 314.655933 46.134681 
L 314.655933 45.607995 
L 314.968605 45.607995 
L 314.968605 45.081309 
L 315.080824 45.081309 
L 315.167582 44.027937 
L 315.458115 44.027937 
L 315.458115 43.501251 
L 315.589417 43.501251 
L 315.589417 42.974565 
L 316.311509 42.974565 
L 316.311509 42.447879 
L 316.523185 42.447879 
L 316.523185 41.921193 
L 316.73849 41.921193 
L 316.73849 41.394507 
L 316.944005 41.394507 
L 317.024936 40.341135 
L 317.241987 40.341135 
L 317.241987 39.814448 
L 317.486126 39.814448 
L 317.523656 38.761076 
L 317.610508 38.761076 
L 317.610508 38.23439 
L 318.20999 38.23439 
L 318.20999 37.707704 
L 318.321766 37.707704 
L 318.321766 37.181018 
L 319.329328 37.181018 
L 319.329328 36.654332 
L 319.967708 36.654332 
L 319.967708 36.127646 
L 321.390082 36.127646 
L 321.397722 35.074274 
L 321.800987 35.074274 
L 321.800987 34.547588 
L 322.515526 34.547588 
L 322.515526 34.020902 
L 323.723433 34.020902 
L 323.723433 33.494215 
L 324.443386 33.494215 
L 324.443386 32.967529 
L 325.173646 32.967529 
L 325.173646 32.440843 
L 325.660926 32.440843 
L 325.660926 31.914157 
L 329.645818 31.914157 
L 329.645818 31.387471 
L 333.995009 31.387471 
L 333.995009 30.860785 
L 334.875578 30.860785 
L 334.875578 30.334099 
L 338.688 30.334099 
L 338.688 30.334099 
" style="fill:none;stroke:#ff0000;stroke-linecap:square;stroke-width:1.5;"/>
   </g>
   <g id="line2d_49">
    <defs>
     <path d="M 0 -6 
L -5.196152 -3 
L -5.196152 3 
L -0 6 
L 5.196152 3 
L 5.196152 -3 
z
" id="md1de3cb17f" style="stroke:#ff0000;stroke-linejoin:miter;stroke-width:1.5;"/>
    </defs>
    <g>
     <use style="fill-opacity:0;stroke:#ff0000;stroke-linejoin:miter;stroke-width:1.5;" x="97.755429" xlink:href="#md1de3cb17f" y="266.816149"/>
     <use style="fill-opacity:0;stroke:#ff0000;stroke-linejoin:miter;stroke-width:1.5;" x="160.961329" xlink:href="#md1de3cb17f" y="245.748706"/>
     <use style="fill-opacity:0;stroke:#ff0000;stroke-linejoin:miter;stroke-width:1.5;" x="214.470292" xlink:href="#md1de3cb17f" y="182.01969"/>
     <use style="fill-opacity:0;stroke:#ff0000;stroke-linejoin:miter;stroke-width:1.5;" x="296.207856" xlink:href="#md1de3cb17f" y="100.910034"/>
     <use style="fill-opacity:0;stroke:#ff0000;stroke-linejoin:miter;stroke-width:1.5;" x="334.875578" xlink:href="#md1de3cb17f" y="30.334099"/>
     <use style="fill-opacity:0;stroke:#ff0000;stroke-linejoin:miter;stroke-width:1.5;" x="338.688" xlink:href="#md1de3cb17f" y="30.334099"/>
    </g>
   </g>
   <g id="line2d_50">
    <path style="fill:none;stroke:#ff0000;stroke-linecap:square;stroke-width:1.5;"/>
    <g/>
   </g>
   <g id="line2d_51">
    <path clip-path="url(#pbcf7754dc7)" d="M 276.73896 170.432596 
" style="fill:none;stroke:#ff0000;stroke-linecap:square;stroke-width:1.5;"/>
    <defs>
     <path d="M -12 12 
L 12 -12 
M -12 -12 
L 12 12 
" id="mb0892d1f62" style="stroke:#ff0000;"/>
    </defs>
    <g clip-path="url(#pbcf7754dc7)">
     <use style="fill:#ff0000;stroke:#ff0000;" x="276.73896" xlink:href="#mb0892d1f62" y="170.432596"/>
    </g>
   </g>
   <g id="line2d_52">
    <defs>
     <path d="M 0 1.5 
C 0.397805 1.5 0.77937 1.341951 1.06066 1.06066 
C 1.341951 0.77937 1.5 0.397805 1.5 0 
C 1.5 -0.397805 1.341951 -0.77937 1.06066 -1.06066 
C 0.77937 -1.341951 0.397805 -1.5 0 -1.5 
C -0.397805 -1.5 -0.77937 -1.341951 -1.06066 -1.06066 
C -1.341951 -0.77937 -1.5 -0.397805 -1.5 0 
C -1.5 0.397805 -1.341951 0.77937 -1.06066 1.06066 
C -0.77937 1.341951 -0.397805 1.5 0 1.5 
z
" id="m90b61b19d2" style="stroke:#bebebe;"/>
    </defs>
    <g>
     <use style="fill:#bebebe;stroke:#bebebe;" x="346.952012" xlink:href="#m90b61b19d2" y="188.339923"/>
     <use style="fill:#bebebe;stroke:#bebebe;" x="346.952012" xlink:href="#m90b61b19d2" y="188.339923"/>
    </g>
   </g>
   <g id="line2d_53">
    <path d="M 45.512012 298.944 
L 45.512012 284.723476 
L 57.6 284.723476 
L 57.6 283.143418 
L 64.67102 283.143418 
L 64.67102 282.090045 
L 69.687988 282.090045 
L 69.687988 279.983301 
L 76.759008 279.983301 
L 76.759008 278.403243 
L 81.775977 278.403243 
L 81.775977 275.769812 
L 87.329581 275.769812 
L 87.329581 275.243126 
L 90.242884 275.243126 
L 90.242884 274.189754 
L 91.535274 274.189754 
L 91.535274 273.136382 
L 95.918017 273.136382 
L 95.918017 272.08301 
L 97.755429 272.08301 
L 97.755429 271.556324 
L 98.606294 271.556324 
L 98.606294 271.029638 
L 102.330873 271.029638 
L 102.330873 270.502952 
L 102.989037 270.502952 
L 102.989037 269.976266 
L 105.951954 269.976266 
L 105.951954 269.449579 
L 107.009204 269.449579 
L 107.009204 268.396207 
L 107.514726 268.396207 
L 107.514726 267.869521 
L 108.006005 267.869521 
L 108.006005 267.342835 
L 110.274038 267.342835 
L 110.274038 266.816149 
L 116.323218 266.816149 
L 116.323218 266.289463 
L 117.486268 266.289463 
L 117.486268 265.236091 
L 123.790603 265.236091 
L 123.790603 263.656033 
L 125.291682 263.656033 
L 125.291682 263.129347 
L 127.48501 263.129347 
L 127.48501 262.60266 
L 130.664567 262.60266 
L 130.664567 262.075974 
L 133.124876 262.075974 
L 133.124876 261.022602 
L 135.681535 261.022602 
L 135.681535 260.495916 
L 138.256201 260.495916 
L 138.256201 259.96923 
L 139.413734 259.96923 
L 139.413734 259.442544 
L 143.273169 259.442544 
L 143.273169 258.915858 
L 143.40093 258.915858 
L 143.40093 258.389172 
L 144.510517 258.389172 
L 144.510517 257.862486 
L 144.806606 257.862486 
L 144.806606 255.755741 
L 148.209809 255.755741 
L 148.209809 255.229055 
L 157.1279 255.229055 
L 157.1279 254.702369 
L 158.968208 254.702369 
L 158.968208 254.175683 
L 162.043181 254.175683 
L 162.043181 253.648997 
L 166.151824 253.648997 
L 166.151824 253.122311 
L 171.920711 253.122311 
L 171.920711 251.542253 
L 172.385786 251.542253 
L 172.385786 249.962195 
L 173.866933 249.962195 
L 173.866933 249.435508 
L 174.83783 249.435508 
L 174.83783 247.85545 
L 177.490094 247.85545 
L 177.490094 247.328764 
L 177.996389 247.328764 
L 177.996389 246.802078 
L 184.236667 246.802078 
L 184.255021 245.22202 
L 186.511716 245.22202 
L 186.511716 244.695334 
L 187.939809 244.695334 
L 187.939809 244.168648 
L 191.383019 244.168648 
L 191.383019 243.641962 
L 195.032266 243.641962 
L 195.032266 242.588589 
L 200.373335 242.588589 
L 200.373335 241.535217 
L 203.266655 241.535217 
L 203.266655 241.008531 
L 206.934693 241.008531 
L 206.934693 240.481845 
L 209.814652 240.481845 
L 209.814652 238.901787 
L 210.083687 238.901787 
L 210.083687 238.375101 
L 211.253284 238.375101 
L 211.253284 237.848415 
L 212.321238 237.848415 
L 212.321238 237.321729 
L 213.784451 237.321729 
L 213.784451 236.795043 
L 218.497676 236.795043 
L 218.497676 235.74167 
L 225.497313 235.74167 
L 225.497313 234.161612 
L 234.568722 234.161612 
L 234.568722 231.528182 
L 234.97613 231.528182 
L 234.97613 230.47481 
L 240.07697 230.47481 
L 240.07697 229.948123 
L 242.763326 229.948123 
L 242.763326 229.421437 
L 246.753091 229.421437 
L 246.787191 227.314693 
L 249.727356 227.314693 
L 249.727356 226.788007 
L 250.050946 226.788007 
L 250.050946 223.627891 
L 255.206931 223.627891 
L 255.206931 223.101204 
L 256.461564 223.101204 
L 256.461564 222.574518 
L 256.914211 222.574518 
L 256.914211 221.521146 
L 257.335979 221.521146 
L 257.335979 220.99446 
L 259.673693 220.99446 
L 259.673693 220.467774 
L 261.239859 220.467774 
L 261.239859 219.941088 
L 264.781431 219.941088 
L 264.781431 219.414402 
L 268.952487 219.414402 
L 268.952487 218.36103 
L 270.142992 218.36103 
L 270.142992 217.834344 
L 277.850007 217.834344 
L 277.850007 217.307658 
L 278.72685 217.307658 
L 278.72685 216.254285 
L 281.128101 216.254285 
L 281.128101 215.727599 
L 281.289391 215.727599 
L 281.289391 215.200913 
L 282.169474 215.200913 
L 282.169474 213.094169 
L 285.148072 213.094169 
L 285.238083 211.514111 
L 286.226013 211.514111 
L 286.226013 210.460738 
L 286.939992 210.460738 
L 287.024929 208.88068 
L 287.260984 208.88068 
L 287.260984 207.827308 
L 295.908097 207.827308 
L 295.908097 205.193878 
L 296.841874 205.193878 
L 296.841874 204.667192 
L 298.97225 204.667192 
L 298.97225 204.140506 
L 299.58222 204.140506 
L 299.58222 201.507075 
L 303.180947 201.507075 
L 303.180947 200.980389 
L 303.390096 200.980389 
L 303.390096 200.453703 
L 304.291651 200.453703 
L 304.291651 199.927017 
L 305.182041 199.927017 
L 305.182041 199.400331 
L 305.879994 199.400331 
L 305.879994 198.873645 
L 309.357646 198.873645 
L 309.357646 198.346959 
L 310.841785 198.346959 
L 310.841785 197.820273 
L 311.15328 197.820273 
L 311.15328 197.293586 
L 314.277308 197.293586 
L 314.277308 196.7669 
L 315.178492 196.7669 
L 315.178492 196.240214 
L 316.85988 196.240214 
L 316.85988 195.186842 
L 322.088521 195.186842 
L 322.088521 194.660156 
L 324.336159 194.660156 
L 324.336159 194.13347 
L 327.914026 194.13347 
L 327.914026 193.606784 
L 329.958956 193.606784 
L 329.958956 193.080098 
L 330.689016 193.080098 
L 330.689016 192.553412 
L 332.621719 192.553412 
L 332.621719 192.026726 
L 333.212681 192.026726 
L 333.250239 190.973354 
L 338.688 190.973354 
L 338.688 190.973354 
" style="fill:none;stroke:#bebebe;stroke-linecap:square;stroke-width:1.5;"/>
   </g>
   <g id="line2d_54">
    <defs>
     <path d="M 0 0 
L -6 -0 
M 0 0 
L 3 4.8 
M 0 0 
L 3 -4.8 
" id="m0b3ecd187e" style="stroke:#bebebe;stroke-width:1.5;"/>
    </defs>
    <g>
     <use style="fill-opacity:0;stroke:#bebebe;stroke-width:1.5;" x="117.486268" xlink:href="#m0b3ecd187e" y="265.236091"/>
     <use style="fill-opacity:0;stroke:#bebebe;stroke-width:1.5;" x="177.996389" xlink:href="#m0b3ecd187e" y="247.328764"/>
     <use style="fill-opacity:0;stroke:#bebebe;stroke-width:1.5;" x="249.727356" xlink:href="#m0b3ecd187e" y="227.314693"/>
     <use style="fill-opacity:0;stroke:#bebebe;stroke-width:1.5;" x="322.088521" xlink:href="#m0b3ecd187e" y="195.186842"/>
     <use style="fill-opacity:0;stroke:#bebebe;stroke-width:1.5;" x="333.250239" xlink:href="#m0b3ecd187e" y="190.973354"/>
     <use style="fill-opacity:0;stroke:#bebebe;stroke-width:1.5;" x="338.688" xlink:href="#m0b3ecd187e" y="190.973354"/>
    </g>
   </g>
   <g id="line2d_55">
    <path style="fill:none;stroke:#bebebe;stroke-linecap:square;stroke-width:1.5;"/>
    <g/>
   </g>
   <g id="line2d_56">
    <path clip-path="url(#pbcf7754dc7)" d="M 298.532571 204.667192 
" style="fill:none;stroke:#bebebe;stroke-linecap:square;stroke-width:1.5;"/>
    <defs>
     <path d="M -12 12 
L 12 -12 
M -12 -12 
L 12 12 
" id="m29a6c6c4e5" style="stroke:#bebebe;"/>
    </defs>
    <g clip-path="url(#pbcf7754dc7)">
     <use style="fill:#bebebe;stroke:#bebebe;" x="298.532571" xlink:href="#m29a6c6c4e5" y="204.667192"/>
    </g>
   </g>
   <g id="line2d_57">
    <defs>
     <path d="M 0 1.5 
C 0.397805 1.5 0.77937 1.341951 1.06066 1.06066 
C 1.341951 0.77937 1.5 0.397805 1.5 0 
C 1.5 -0.397805 1.341951 -0.77937 1.06066 -1.06066 
C 0.77937 -1.341951 0.397805 -1.5 0 -1.5 
C -0.397805 -1.5 -0.77937 -1.341951 -1.06066 -1.06066 
C -1.341951 -0.77937 -1.5 -0.397805 -1.5 0 
C -1.5 0.397805 -1.341951 0.77937 -1.06066 1.06066 
C -0.77937 1.341951 -0.397805 1.5 0 1.5 
z
" id="m4452c823f9" style="stroke:#6495ed;"/>
    </defs>
    <g>
     <use style="fill:#6495ed;stroke:#6495ed;" x="270.025261" xlink:href="#m4452c823f9" y="30.334099"/>
     <use style="fill:#6495ed;stroke:#6495ed;" x="270.025261" xlink:href="#m4452c823f9" y="30.334099"/>
    </g>
   </g>
   <g id="line2d_58">
    <path d="M 45.512012 298.944 
L 45.512012 285.250162 
L 81.775977 285.250162 
L 81.775977 283.143418 
L 83.830028 283.143418 
L 83.830028 279.983301 
L 85.66744 279.983301 
L 85.66744 278.929929 
L 87.329581 278.929929 
L 87.329581 276.823185 
L 90.242884 276.823185 
L 90.242884 275.769812 
L 92.73846 275.769812 
L 92.73846 275.243126 
L 95.918017 275.243126 
L 95.918017 273.663068 
L 98.606294 273.663068 
L 98.606294 273.136382 
L 100.192776 273.136382 
L 100.192776 272.08301 
L 101.646892 272.08301 
L 101.646892 271.556324 
L 102.989037 271.556324 
L 102.989037 271.029638 
L 105.398279 271.029638 
L 105.398279 269.449579 
L 108.948899 269.449579 
L 108.948899 268.922893 
L 114.751048 268.922893 
L 114.751048 268.396207 
L 116.019919 268.396207 
L 116.019919 267.869521 
L 116.914437 267.869521 
L 116.914437 266.816149 
L 118.838828 266.816149 
L 118.838828 266.289463 
L 120.33454 266.289463 
L 120.33454 265.762777 
L 121.036887 265.762777 
L 121.036887 265.236091 
L 122.148045 265.236091 
L 122.148045 264.182719 
L 124.557288 264.182719 
L 124.557288 263.656033 
L 126.673734 263.656033 
L 126.673734 263.129347 
L 127.165014 263.129347 
L 127.165014 262.60266 
L 127.325746 262.60266 
L 127.325746 262.075974 
L 129.991152 262.075974 
L 129.991152 261.549288 
L 131.312942 261.549288 
L 131.312942 261.022602 
L 132.893889 261.022602 
L 132.893889 260.495916 
L 133.800029 260.495916 
L 133.800029 259.96923 
L 137.997836 259.96923 
L 137.997836 259.442544 
L 140.423864 259.442544 
L 140.423864 258.915858 
L 142.884173 258.915858 
L 142.884173 256.282427 
L 143.40093 256.282427 
L 143.40093 255.755741 
L 144.747789 255.755741 
L 144.747789 255.229055 
L 145.998045 255.229055 
L 145.998045 254.702369 
L 146.161795 254.702369 
L 146.161795 254.175683 
L 146.377764 254.175683 
L 146.484754 252.595625 
L 146.696785 252.595625 
L 146.696785 252.068939 
L 147.419225 252.068939 
L 147.52003 251.015567 
L 148.87334 251.015567 
L 148.919783 248.382136 
L 149.058374 248.382136 
L 149.15016 245.22202 
L 149.332295 245.22202 
L 149.332295 244.695334 
L 149.512548 244.695334 
L 149.512548 234.688298 
L 153.925152 234.688298 
L 153.925152 234.161612 
L 154.063835 234.161612 
L 154.063835 232.581554 
L 157.500487 232.581554 
L 157.500487 232.054868 
L 158.465753 232.054868 
L 158.465753 231.528182 
L 158.784773 231.528182 
L 158.784773 231.001496 
L 160.703658 231.001496 
L 160.703658 229.948123 
L 163.164589 229.948123 
L 163.246367 228.368065 
L 163.327764 228.368065 
L 163.408783 217.834344 
L 163.569701 217.834344 
L 163.649606 216.254285 
L 165.447111 216.254285 
L 165.447111 215.727599 
L 167.954668 215.727599 
L 168.032349 213.620855 
L 168.171308 213.620855 
L 168.171308 213.094169 
L 173.666095 213.094169 
L 173.666095 212.567483 
L 176.286908 212.567483 
L 176.363988 209.934052 
L 178.488398 209.934052 
L 178.488398 209.407366 
L 180.488462 209.407366 
L 180.518792 207.827308 
L 181.711874 207.827308 
L 181.711874 206.773936 
L 185.776513 206.773936 
L 185.776513 205.720564 
L 188.205087 205.720564 
L 188.205087 205.193878 
L 188.902752 205.193878 
L 188.902752 204.667192 
L 189.478662 204.667192 
L 189.478662 204.140506 
L 190.48679 204.140506 
L 190.48679 203.613819 
L 195.235432 203.613819 
L 195.248458 202.560447 
L 198.591644 202.560447 
L 198.591644 201.507075 
L 200.138821 201.507075 
L 200.14128 200.453703 
L 201.744753 200.453703 
L 201.753723 197.820273 
L 203.926189 197.820273 
L 203.926189 195.713528 
L 211.992838 195.713528 
L 211.992838 195.186842 
L 214.281134 195.186842 
L 214.285506 193.080098 
L 216.043841 193.080098 
L 216.043841 192.553412 
L 217.308829 192.553412 
L 217.308829 190.973354 
L 217.5089 190.973354 
L 217.512533 189.919981 
L 219.056794 189.919981 
L 219.056794 189.393295 
L 221.28023 189.393295 
L 221.28023 188.866609 
L 221.926629 188.866609 
L 221.932269 176.752829 
L 222.819279 176.752829 
L 222.824637 165.692422 
L 226.630035 165.692422 
L 226.636494 154.105328 
L 227.974533 154.105328 
L 227.980513 140.41149 
L 230.663166 140.41149 
L 230.672562 134.091257 
L 230.861974 134.091257 
L 230.873797 127.244338 
L 233.569369 127.244338 
L 233.570815 126.190966 
L 237.207801 126.190966 
L 237.214844 125.137593 
L 238.820555 125.137593 
L 238.827512 120.397419 
L 239.164776 120.397419 
L 239.171597 113.5505 
L 240.761842 113.5505 
L 240.765194 109.337011 
L 241.368417 109.337011 
L 241.375815 100.383348 
L 242.669576 100.383348 
L 242.774423 93.009743 
L 244.39332 93.009743 
L 244.39332 92.483056 
L 246.266818 92.483056 
L 246.266818 91.95637 
L 247.241701 91.95637 
L 247.244013 89.849626 
L 247.451298 89.849626 
L 247.458149 84.582765 
L 248.462007 84.582765 
L 248.466318 82.476021 
L 248.856583 82.476021 
L 248.861399 79.315904 
L 249.713318 79.315904 
L 249.783966 72.995672 
L 250.878142 72.995672 
L 250.878142 72.468985 
L 252.895501 72.468985 
L 252.897412 70.362241 
L 253.048971 70.362241 
L 253.053468 67.728811 
L 253.788867 67.728811 
L 253.789775 65.622066 
L 254.077326 65.622066 
L 254.081565 60.355206 
L 254.716201 60.355206 
L 254.7699 56.668403 
L 257.156883 56.668403 
L 257.159501 55.615031 
L 257.277382 55.615031 
L 257.281282 53.508287 
L 257.857728 53.508287 
L 257.863297 49.821484 
L 258.090452 49.821484 
L 258.093288 46.134681 
L 258.600068 46.134681 
L 258.64014 44.554623 
L 259.893854 44.554623 
L 259.893854 44.027937 
L 260.677396 44.027937 
L 260.679994 41.921193 
L 261.159165 41.921193 
L 261.161247 40.341135 
L 261.353736 40.341135 
L 261.353736 39.814448 
L 263.062643 39.814448 
L 263.062643 39.287762 
L 263.440699 39.287762 
L 263.527036 37.707704 
L 263.933347 37.707704 
L 263.933347 37.181018 
L 264.094916 37.181018 
L 264.098685 35.60096 
L 265.970362 35.60096 
L 265.971039 34.547588 
L 266.325416 34.547588 
L 266.32608 33.494215 
L 266.467237 33.494215 
L 266.467237 32.967529 
L 266.785625 32.967529 
L 266.786594 31.914157 
L 268.837612 31.914157 
L 268.85952 30.860785 
L 270.025261 30.860785 
L 270.025261 30.334099 
L 338.688 30.334099 
L 338.688 30.334099 
" style="fill:none;stroke:#6495ed;stroke-linecap:square;stroke-width:1.5;"/>
   </g>
   <g id="line2d_59">
    <defs>
     <path d="M -0 6 
L 6 -6 
L -6 -6 
z
" id="mca452c8d07" style="stroke:#6495ed;stroke-linejoin:miter;stroke-width:1.5;"/>
    </defs>
    <g>
     <use style="fill-opacity:0;stroke:#6495ed;stroke-linejoin:miter;stroke-width:1.5;" x="133.800029" xlink:href="#mca452c8d07" y="259.96923"/>
     <use style="fill-opacity:0;stroke:#6495ed;stroke-linejoin:miter;stroke-width:1.5;" x="214.284413" xlink:href="#mca452c8d07" y="193.606784"/>
     <use style="fill-opacity:0;stroke:#6495ed;stroke-linejoin:miter;stroke-width:1.5;" x="247.243682" xlink:href="#mca452c8d07" y="90.902998"/>
     <use style="fill-opacity:0;stroke:#6495ed;stroke-linejoin:miter;stroke-width:1.5;" x="270.025261" xlink:href="#mca452c8d07" y="30.334099"/>
     <use style="fill-opacity:0;stroke:#6495ed;stroke-linejoin:miter;stroke-width:1.5;" x="270.025261" xlink:href="#mca452c8d07" y="30.334099"/>
     <use style="fill-opacity:0;stroke:#6495ed;stroke-linejoin:miter;stroke-width:1.5;" x="338.688" xlink:href="#mca452c8d07" y="30.334099"/>
    </g>
   </g>
   <g id="line2d_60">
    <path style="fill:none;stroke:#6495ed;stroke-linecap:square;stroke-width:1.5;"/>
    <g/>
   </g>
   <g id="line2d_61">
    <path clip-path="url(#pbcf7754dc7)" d="M 230.50135 140.41149 
" style="fill:none;stroke:#6495ed;stroke-linecap:square;stroke-width:1.5;"/>
    <defs>
     <path d="M -12 12 
L 12 -12 
M -12 -12 
L 12 12 
" id="m9251e59fec" style="stroke:#6495ed;"/>
    </defs>
    <g clip-path="url(#pbcf7754dc7)">
     <use style="fill:#6495ed;stroke:#6495ed;" x="230.50135" xlink:href="#m9251e59fec" y="140.41149"/>
    </g>
   </g>
   <g id="line2d_62">
    <path d="M 338.688 193.606784 
L 369.60768 293.571802 
" style="fill:none;stroke:#000080;stroke-linecap:square;stroke-width:1.5;"/>
    <g>
     <use style="fill-opacity:0;stroke:#000080;stroke-width:1.5;" x="338.688" xlink:href="#m2c2ec1d2cc" y="193.606784"/>
     <use style="fill-opacity:0;stroke:#000080;stroke-width:1.5;" x="369.60768" xlink:href="#m2c2ec1d2cc" y="293.571802"/>
    </g>
   </g>
   <g id="line2d_63">
    <path d="M 338.688 190.973354 
L 369.60768 229.105426 
" style="fill:none;stroke:#bebebe;stroke-linecap:square;stroke-width:1.5;"/>
    <g>
     <use style="fill-opacity:0;stroke:#bebebe;stroke-width:1.5;" x="338.688" xlink:href="#m0b3ecd187e" y="190.973354"/>
     <use style="fill-opacity:0;stroke:#bebebe;stroke-width:1.5;" x="369.60768" xlink:href="#m0b3ecd187e" y="229.105426"/>
    </g>
   </g>
   <g id="line2d_64">
    <path d="M 338.688 30.334099 
L 369.60768 164.63905 
" style="fill:none;stroke:#ff0000;stroke-linecap:square;stroke-width:1.5;"/>
    <g>
     <use style="fill-opacity:0;stroke:#ff0000;stroke-linejoin:miter;stroke-width:1.5;" x="338.688" xlink:href="#md1de3cb17f" y="30.334099"/>
     <use style="fill-opacity:0;stroke:#ff0000;stroke-linejoin:miter;stroke-width:1.5;" x="369.60768" xlink:href="#md1de3cb17f" y="164.63905"/>
    </g>
   </g>
   <g id="line2d_65">
    <path d="M 338.688 30.334099 
L 369.60768 100.172673 
" style="fill:none;stroke:#6495ed;stroke-linecap:square;stroke-width:1.5;"/>
    <g>
     <use style="fill-opacity:0;stroke:#6495ed;stroke-linejoin:miter;stroke-width:1.5;" x="338.688" xlink:href="#mca452c8d07" y="30.334099"/>
     <use style="fill-opacity:0;stroke:#6495ed;stroke-linejoin:miter;stroke-width:1.5;" x="369.60768" xlink:href="#mca452c8d07" y="100.172673"/>
    </g>
   </g>
   <g id="line2d_66">
    <path d="M 338.688 298.944 
L 338.688 30.334099 
" style="fill:none;stroke:#000000;stroke-linecap:square;stroke-width:1.5;"/>
   </g>
   <g id="patch_3">
    <path d="M 57.6 298.944 
L 57.6 27.648 
" style="fill:none;stroke:#000000;stroke-linecap:square;stroke-linejoin:miter;stroke-width:0.8;"/>
   </g>
   <g id="patch_4">
    <path d="M 338.688 298.944 
L 338.688 27.648 
" style="fill:none;stroke:#000000;stroke-linecap:square;stroke-linejoin:miter;stroke-width:0.8;"/>
   </g>
   <g id="patch_5">
    <path d="M 57.6 298.944 
L 338.688 298.944 
" style="fill:none;stroke:#000000;stroke-linecap:square;stroke-linejoin:miter;stroke-width:0.8;"/>
   </g>
   <g id="patch_6">
    <path d="M 57.6 27.648 
L 338.688 27.648 
" style="fill:none;stroke:#000000;stroke-linecap:square;stroke-linejoin:miter;stroke-width:0.8;"/>
   </g>
   <g id="text_13">
    <!-- CMA-ES  2 -->
    <defs>
     <path d="M 64.40625 67.28125 
L 64.40625 56.890625 
Q 59.421875 61.53125 53.78125 63.8125 
Q 48.140625 66.109375 41.796875 66.109375 
Q 29.296875 66.109375 22.65625 58.46875 
Q 16.015625 50.828125 16.015625 36.375 
Q 16.015625 21.96875 22.65625 14.328125 
Q 29.296875 6.6875 41.796875 6.6875 
Q 48.140625 6.6875 53.78125 8.984375 
Q 59.421875 11.28125 64.40625 15.921875 
L 64.40625 5.609375 
Q 59.234375 2.09375 53.4375 0.328125 
Q 47.65625 -1.421875 41.21875 -1.421875 
Q 24.65625 -1.421875 15.125 8.703125 
Q 5.609375 18.84375 5.609375 36.375 
Q 5.609375 53.953125 15.125 64.078125 
Q 24.65625 74.21875 41.21875 74.21875 
Q 47.75 74.21875 53.53125 72.484375 
Q 59.328125 70.75 64.40625 67.28125 
z
" id="DejaVuSans-67"/>
     <path d="M 9.8125 72.90625 
L 24.515625 72.90625 
L 43.109375 23.296875 
L 61.8125 72.90625 
L 76.515625 72.90625 
L 76.515625 0 
L 66.890625 0 
L 66.890625 64.015625 
L 48.09375 14.015625 
L 38.1875 14.015625 
L 19.390625 64.015625 
L 19.390625 0 
L 9.8125 0 
z
" id="DejaVuSans-77"/>
     <path d="M 34.1875 63.1875 
L 20.796875 26.90625 
L 47.609375 26.90625 
z
M 28.609375 72.90625 
L 39.796875 72.90625 
L 67.578125 0 
L 57.328125 0 
L 50.6875 18.703125 
L 17.828125 18.703125 
L 11.1875 0 
L 0.78125 0 
z
" id="DejaVuSans-65"/>
     <path d="M 9.8125 72.90625 
L 55.90625 72.90625 
L 55.90625 64.59375 
L 19.671875 64.59375 
L 19.671875 43.015625 
L 54.390625 43.015625 
L 54.390625 34.71875 
L 19.671875 34.71875 
L 19.671875 8.296875 
L 56.78125 8.296875 
L 56.78125 0 
L 9.8125 0 
z
" id="DejaVuSans-69"/>
     <path d="M 53.515625 70.515625 
L 53.515625 60.890625 
Q 47.90625 63.578125 42.921875 64.890625 
Q 37.9375 66.21875 33.296875 66.21875 
Q 25.25 66.21875 20.875 63.09375 
Q 16.5 59.96875 16.5 54.203125 
Q 16.5 49.359375 19.40625 46.890625 
Q 22.3125 44.4375 30.421875 42.921875 
L 36.375 41.703125 
Q 47.40625 39.59375 52.65625 34.296875 
Q 57.90625 29 57.90625 20.125 
Q 57.90625 9.515625 50.796875 4.046875 
Q 43.703125 -1.421875 29.984375 -1.421875 
Q 24.8125 -1.421875 18.96875 -0.25 
Q 13.140625 0.921875 6.890625 3.21875 
L 6.890625 13.375 
Q 12.890625 10.015625 18.65625 8.296875 
Q 24.421875 6.59375 29.984375 6.59375 
Q 38.421875 6.59375 43.015625 9.90625 
Q 47.609375 13.234375 47.609375 19.390625 
Q 47.609375 24.75 44.3125 27.78125 
Q 41.015625 30.8125 33.5 32.328125 
L 27.484375 33.5 
Q 16.453125 35.6875 11.515625 40.375 
Q 6.59375 45.0625 6.59375 53.421875 
Q 6.59375 63.09375 13.40625 68.65625 
Q 20.21875 74.21875 32.171875 74.21875 
Q 37.3125 74.21875 42.625 73.28125 
Q 47.953125 72.359375 53.515625 70.515625 
z
" id="DejaVuSans-83"/>
    </defs>
    <g transform="translate(375.22944 298.262739)scale(0.17 -0.17)">
     <use xlink:href="#DejaVuSans-67"/>
     <use x="69.824219" xlink:href="#DejaVuSans-77"/>
     <use x="156.103516" xlink:href="#DejaVuSans-65"/>
     <use x="224.480469" xlink:href="#DejaVuSans-45"/>
     <use x="260.564453" xlink:href="#DejaVuSans-69"/>
     <use x="323.748047" xlink:href="#DejaVuSans-83"/>
     <use x="387.224609" xlink:href="#DejaVuSans-32"/>
     <use x="419.011719" xlink:href="#DejaVuSans-32"/>
     <use x="450.798828" xlink:href="#DejaVuSans-50"/>
    </g>
   </g>
   <g id="text_14">
    <!-- RANDOMSEA -->
    <defs>
     <path d="M 44.390625 34.1875 
Q 47.5625 33.109375 50.5625 29.59375 
Q 53.5625 26.078125 56.59375 19.921875 
L 66.609375 0 
L 56 0 
L 46.6875 18.703125 
Q 43.0625 26.03125 39.671875 28.421875 
Q 36.28125 30.8125 30.421875 30.8125 
L 19.671875 30.8125 
L 19.671875 0 
L 9.8125 0 
L 9.8125 72.90625 
L 32.078125 72.90625 
Q 44.578125 72.90625 50.734375 67.671875 
Q 56.890625 62.453125 56.890625 51.90625 
Q 56.890625 45.015625 53.6875 40.46875 
Q 50.484375 35.9375 44.390625 34.1875 
z
M 19.671875 64.796875 
L 19.671875 38.921875 
L 32.078125 38.921875 
Q 39.203125 38.921875 42.84375 42.21875 
Q 46.484375 45.515625 46.484375 51.90625 
Q 46.484375 58.296875 42.84375 61.546875 
Q 39.203125 64.796875 32.078125 64.796875 
z
" id="DejaVuSans-82"/>
     <path d="M 9.8125 72.90625 
L 23.09375 72.90625 
L 55.421875 11.921875 
L 55.421875 72.90625 
L 64.984375 72.90625 
L 64.984375 0 
L 51.703125 0 
L 19.390625 60.984375 
L 19.390625 0 
L 9.8125 0 
z
" id="DejaVuSans-78"/>
     <path d="M 19.671875 64.796875 
L 19.671875 8.109375 
L 31.59375 8.109375 
Q 46.6875 8.109375 53.6875 14.9375 
Q 60.6875 21.78125 60.6875 36.53125 
Q 60.6875 51.171875 53.6875 57.984375 
Q 46.6875 64.796875 31.59375 64.796875 
z
M 9.8125 72.90625 
L 30.078125 72.90625 
Q 51.265625 72.90625 61.171875 64.09375 
Q 71.09375 55.28125 71.09375 36.53125 
Q 71.09375 17.671875 61.125 8.828125 
Q 51.171875 0 30.078125 0 
L 9.8125 0 
z
" id="DejaVuSans-68"/>
     <path d="M 39.40625 66.21875 
Q 28.65625 66.21875 22.328125 58.203125 
Q 16.015625 50.203125 16.015625 36.375 
Q 16.015625 22.609375 22.328125 14.59375 
Q 28.65625 6.59375 39.40625 6.59375 
Q 50.140625 6.59375 56.421875 14.59375 
Q 62.703125 22.609375 62.703125 36.375 
Q 62.703125 50.203125 56.421875 58.203125 
Q 50.140625 66.21875 39.40625 66.21875 
z
M 39.40625 74.21875 
Q 54.734375 74.21875 63.90625 63.9375 
Q 73.09375 53.65625 73.09375 36.375 
Q 73.09375 19.140625 63.90625 8.859375 
Q 54.734375 -1.421875 39.40625 -1.421875 
Q 24.03125 -1.421875 14.8125 8.828125 
Q 5.609375 19.09375 5.609375 36.375 
Q 5.609375 53.65625 14.8125 63.9375 
Q 24.03125 74.21875 39.40625 74.21875 
z
" id="DejaVuSans-79"/>
    </defs>
    <g transform="translate(375.22944 233.796363)scale(0.17 -0.17)">
     <use xlink:href="#DejaVuSans-82"/>
     <use x="69.419922" xlink:href="#DejaVuSans-65"/>
     <use x="137.828125" xlink:href="#DejaVuSans-78"/>
     <use x="212.632812" xlink:href="#DejaVuSans-68"/>
     <use x="289.634766" xlink:href="#DejaVuSans-79"/>
     <use x="368.345703" xlink:href="#DejaVuSans-77"/>
     <use x="454.625" xlink:href="#DejaVuSans-83"/>
     <use x="518.101562" xlink:href="#DejaVuSans-69"/>
     <use x="581.285156" xlink:href="#DejaVuSans-65"/>
    </g>
   </g>
   <g id="text_15">
    <!-- lq-CMA-ES -->
    <defs>
     <path d="M 14.796875 27.296875 
Q 14.796875 17.390625 18.875 11.75 
Q 22.953125 6.109375 30.078125 6.109375 
Q 37.203125 6.109375 41.296875 11.75 
Q 45.40625 17.390625 45.40625 27.296875 
Q 45.40625 37.203125 41.296875 42.84375 
Q 37.203125 48.484375 30.078125 48.484375 
Q 22.953125 48.484375 18.875 42.84375 
Q 14.796875 37.203125 14.796875 27.296875 
z
M 45.40625 8.203125 
Q 42.578125 3.328125 38.25 0.953125 
Q 33.9375 -1.421875 27.875 -1.421875 
Q 17.96875 -1.421875 11.734375 6.484375 
Q 5.515625 14.40625 5.515625 27.296875 
Q 5.515625 40.1875 11.734375 48.09375 
Q 17.96875 56 27.875 56 
Q 33.9375 56 38.25 53.625 
Q 42.578125 51.265625 45.40625 46.390625 
L 45.40625 54.6875 
L 54.390625 54.6875 
L 54.390625 -20.796875 
L 45.40625 -20.796875 
z
" id="DejaVuSans-113"/>
    </defs>
    <g transform="translate(375.22944 169.329987)scale(0.17 -0.17)">
     <use xlink:href="#DejaVuSans-108"/>
     <use x="27.783203" xlink:href="#DejaVuSans-113"/>
     <use x="91.259766" xlink:href="#DejaVuSans-45"/>
     <use x="127.34375" xlink:href="#DejaVuSans-67"/>
     <use x="197.167969" xlink:href="#DejaVuSans-77"/>
     <use x="283.447266" xlink:href="#DejaVuSans-65"/>
     <use x="351.824219" xlink:href="#DejaVuSans-45"/>
     <use x="387.908203" xlink:href="#DejaVuSans-69"/>
     <use x="451.091797" xlink:href="#DejaVuSans-83"/>
    </g>
   </g>
   <g id="text_16">
    <!-- SLSQP-11  -->
    <defs>
     <path d="M 9.8125 72.90625 
L 19.671875 72.90625 
L 19.671875 8.296875 
L 55.171875 8.296875 
L 55.171875 0 
L 9.8125 0 
z
" id="DejaVuSans-76"/>
     <path d="M 39.40625 66.21875 
Q 28.65625 66.21875 22.328125 58.203125 
Q 16.015625 50.203125 16.015625 36.375 
Q 16.015625 22.609375 22.328125 14.59375 
Q 28.65625 6.59375 39.40625 6.59375 
Q 50.140625 6.59375 56.421875 14.59375 
Q 62.703125 22.609375 62.703125 36.375 
Q 62.703125 50.203125 56.421875 58.203125 
Q 50.140625 66.21875 39.40625 66.21875 
z
M 53.21875 1.3125 
L 66.21875 -12.890625 
L 54.296875 -12.890625 
L 43.5 -1.21875 
Q 41.890625 -1.3125 41.03125 -1.359375 
Q 40.1875 -1.421875 39.40625 -1.421875 
Q 24.03125 -1.421875 14.8125 8.859375 
Q 5.609375 19.140625 5.609375 36.375 
Q 5.609375 53.65625 14.8125 63.9375 
Q 24.03125 74.21875 39.40625 74.21875 
Q 54.734375 74.21875 63.90625 63.9375 
Q 73.09375 53.65625 73.09375 36.375 
Q 73.09375 23.6875 67.984375 14.640625 
Q 62.890625 5.609375 53.21875 1.3125 
z
" id="DejaVuSans-81"/>
     <path d="M 19.671875 64.796875 
L 19.671875 37.40625 
L 32.078125 37.40625 
Q 38.96875 37.40625 42.71875 40.96875 
Q 46.484375 44.53125 46.484375 51.125 
Q 46.484375 57.671875 42.71875 61.234375 
Q 38.96875 64.796875 32.078125 64.796875 
z
M 9.8125 72.90625 
L 32.078125 72.90625 
Q 44.34375 72.90625 50.609375 67.359375 
Q 56.890625 61.8125 56.890625 51.125 
Q 56.890625 40.328125 50.609375 34.8125 
Q 44.34375 29.296875 32.078125 29.296875 
L 19.671875 29.296875 
L 19.671875 0 
L 9.8125 0 
z
" id="DejaVuSans-80"/>
    </defs>
    <g transform="translate(375.22944 104.863611)scale(0.17 -0.17)">
     <use xlink:href="#DejaVuSans-83"/>
     <use x="63.476562" xlink:href="#DejaVuSans-76"/>
     <use x="119.189453" xlink:href="#DejaVuSans-83"/>
     <use x="182.666016" xlink:href="#DejaVuSans-81"/>
     <use x="261.376953" xlink:href="#DejaVuSans-80"/>
     <use x="321.648438" xlink:href="#DejaVuSans-45"/>
     <use x="357.732422" xlink:href="#DejaVuSans-49"/>
     <use x="421.355469" xlink:href="#DejaVuSans-49"/>
     <use x="484.978516" xlink:href="#DejaVuSans-32"/>
    </g>
   </g>
   <g id="text_17">
    <!-- best 2009 -->
    <defs>
     <path d="M 48.6875 27.296875 
Q 48.6875 37.203125 44.609375 42.84375 
Q 40.53125 48.484375 33.40625 48.484375 
Q 26.265625 48.484375 22.1875 42.84375 
Q 18.109375 37.203125 18.109375 27.296875 
Q 18.109375 17.390625 22.1875 11.75 
Q 26.265625 6.109375 33.40625 6.109375 
Q 40.53125 6.109375 44.609375 11.75 
Q 48.6875 17.390625 48.6875 27.296875 
z
M 18.109375 46.390625 
Q 20.953125 51.265625 25.265625 53.625 
Q 29.59375 56 35.59375 56 
Q 45.5625 56 51.78125 48.09375 
Q 58.015625 40.1875 58.015625 27.296875 
Q 58.015625 14.40625 51.78125 6.484375 
Q 45.5625 -1.421875 35.59375 -1.421875 
Q 29.59375 -1.421875 25.265625 0.953125 
Q 20.953125 3.328125 18.109375 8.203125 
L 18.109375 0 
L 9.078125 0 
L 9.078125 75.984375 
L 18.109375 75.984375 
z
" id="DejaVuSans-98"/>
     <path d="M 10.984375 1.515625 
L 10.984375 10.5 
Q 14.703125 8.734375 18.5 7.8125 
Q 22.3125 6.890625 25.984375 6.890625 
Q 35.75 6.890625 40.890625 13.453125 
Q 46.046875 20.015625 46.78125 33.40625 
Q 43.953125 29.203125 39.59375 26.953125 
Q 35.25 24.703125 29.984375 24.703125 
Q 19.046875 24.703125 12.671875 31.3125 
Q 6.296875 37.9375 6.296875 49.421875 
Q 6.296875 60.640625 12.9375 67.421875 
Q 19.578125 74.21875 30.609375 74.21875 
Q 43.265625 74.21875 49.921875 64.515625 
Q 56.59375 54.828125 56.59375 36.375 
Q 56.59375 19.140625 48.40625 8.859375 
Q 40.234375 -1.421875 26.421875 -1.421875 
Q 22.703125 -1.421875 18.890625 -0.6875 
Q 15.09375 0.046875 10.984375 1.515625 
z
M 30.609375 32.421875 
Q 37.25 32.421875 41.125 36.953125 
Q 45.015625 41.5 45.015625 49.421875 
Q 45.015625 57.28125 41.125 61.84375 
Q 37.25 66.40625 30.609375 66.40625 
Q 23.96875 66.40625 20.09375 61.84375 
Q 16.21875 57.28125 16.21875 49.421875 
Q 16.21875 41.5 20.09375 36.953125 
Q 23.96875 32.421875 30.609375 32.421875 
z
" id="DejaVuSans-57"/>
    </defs>
    <g transform="translate(375.22944 40.397235)scale(0.17 -0.17)">
     <use xlink:href="#DejaVuSans-98"/>
     <use x="63.476562" xlink:href="#DejaVuSans-101"/>
     <use x="125" xlink:href="#DejaVuSans-115"/>
     <use x="177.099609" xlink:href="#DejaVuSans-116"/>
     <use x="216.308594" xlink:href="#DejaVuSans-32"/>
     <use x="248.095703" xlink:href="#DejaVuSans-50"/>
     <use x="311.71875" xlink:href="#DejaVuSans-48"/>
     <use x="375.341797" xlink:href="#DejaVuSans-48"/>
     <use x="438.964844" xlink:href="#DejaVuSans-57"/>
    </g>
   </g>
   <g id="text_18">
    <!-- bbob f24, 2-D -->
    <g transform="translate(60.41088 38.111366)scale(0.102 -0.102)">
     <use xlink:href="#DejaVuSans-98"/>
     <use x="63.476562" xlink:href="#DejaVuSans-98"/>
     <use x="126.953125" xlink:href="#DejaVuSans-111"/>
     <use x="188.134766" xlink:href="#DejaVuSans-98"/>
     <use x="251.611328" xlink:href="#DejaVuSans-32"/>
     <use x="283.398438" xlink:href="#DejaVuSans-102"/>
     <use x="318.603516" xlink:href="#DejaVuSans-50"/>
     <use x="382.226562" xlink:href="#DejaVuSans-52"/>
     <use x="445.849609" xlink:href="#DejaVuSans-44"/>
     <use x="477.636719" xlink:href="#DejaVuSans-32"/>
     <use x="509.423828" xlink:href="#DejaVuSans-50"/>
     <use x="573.046875" xlink:href="#DejaVuSans-45"/>
     <use x="609.130859" xlink:href="#DejaVuSans-68"/>
    </g>
    <!-- 51 targets: 100..1e-08 -->
    <defs>
     <path d="M 10.796875 72.90625 
L 49.515625 72.90625 
L 49.515625 64.59375 
L 19.828125 64.59375 
L 19.828125 46.734375 
Q 21.96875 47.46875 24.109375 47.828125 
Q 26.265625 48.1875 28.421875 48.1875 
Q 40.625 48.1875 47.75 41.5 
Q 54.890625 34.8125 54.890625 23.390625 
Q 54.890625 11.625 47.5625 5.09375 
Q 40.234375 -1.421875 26.90625 -1.421875 
Q 22.3125 -1.421875 17.546875 -0.640625 
Q 12.796875 0.140625 7.71875 1.703125 
L 7.71875 11.625 
Q 12.109375 9.234375 16.796875 8.0625 
Q 21.484375 6.890625 26.703125 6.890625 
Q 35.15625 6.890625 40.078125 11.328125 
Q 45.015625 15.765625 45.015625 23.390625 
Q 45.015625 31 40.078125 35.4375 
Q 35.15625 39.890625 26.703125 39.890625 
Q 22.75 39.890625 18.8125 39.015625 
Q 14.890625 38.140625 10.796875 36.28125 
z
" id="DejaVuSans-53"/>
     <path d="M 11.71875 12.40625 
L 22.015625 12.40625 
L 22.015625 0 
L 11.71875 0 
z
M 11.71875 51.703125 
L 22.015625 51.703125 
L 22.015625 39.3125 
L 11.71875 39.3125 
z
" id="DejaVuSans-58"/>
    </defs>
    <g transform="translate(60.41088 49.533135)scale(0.102 -0.102)">
     <use xlink:href="#DejaVuSans-53"/>
     <use x="63.623047" xlink:href="#DejaVuSans-49"/>
     <use x="127.246094" xlink:href="#DejaVuSans-32"/>
     <use x="159.033203" xlink:href="#DejaVuSans-116"/>
     <use x="198.242188" xlink:href="#DejaVuSans-97"/>
     <use x="259.521484" xlink:href="#DejaVuSans-114"/>
     <use x="300.619141" xlink:href="#DejaVuSans-103"/>
     <use x="364.095703" xlink:href="#DejaVuSans-101"/>
     <use x="425.619141" xlink:href="#DejaVuSans-116"/>
     <use x="464.828125" xlink:href="#DejaVuSans-115"/>
     <use x="516.927734" xlink:href="#DejaVuSans-58"/>
     <use x="550.619141" xlink:href="#DejaVuSans-32"/>
     <use x="582.40625" xlink:href="#DejaVuSans-49"/>
     <use x="646.029297" xlink:href="#DejaVuSans-48"/>
     <use x="709.652344" xlink:href="#DejaVuSans-48"/>
     <use x="773.275391" xlink:href="#DejaVuSans-46"/>
     <use x="805.0625" xlink:href="#DejaVuSans-46"/>
     <use x="836.849609" xlink:href="#DejaVuSans-49"/>
     <use x="900.472656" xlink:href="#DejaVuSans-101"/>
     <use x="961.996094" xlink:href="#DejaVuSans-45"/>
     <use x="998.080078" xlink:href="#DejaVuSans-48"/>
     <use x="1061.703125" xlink:href="#DejaVuSans-56"/>
    </g>
    <!-- 15 instances -->
    <g transform="translate(60.41088 60.954904)scale(0.102 -0.102)">
     <use xlink:href="#DejaVuSans-49"/>
     <use x="63.623047" xlink:href="#DejaVuSans-53"/>
     <use x="127.246094" xlink:href="#DejaVuSans-32"/>
     <use x="159.033203" xlink:href="#DejaVuSans-105"/>
     <use x="186.816406" xlink:href="#DejaVuSans-110"/>
     <use x="250.195312" xlink:href="#DejaVuSans-115"/>
     <use x="302.294922" xlink:href="#DejaVuSans-116"/>
     <use x="341.503906" xlink:href="#DejaVuSans-97"/>
     <use x="402.783203" xlink:href="#DejaVuSans-110"/>
     <use x="466.162109" xlink:href="#DejaVuSans-99"/>
     <use x="521.142578" xlink:href="#DejaVuSans-101"/>
     <use x="582.666016" xlink:href="#DejaVuSans-115"/>
    </g>
   </g>
   <g id="text_19">
    <!-- v2.3.2 -->
    <defs>
     <path d="M 40.578125 39.3125 
Q 47.65625 37.796875 51.625 33 
Q 55.609375 28.21875 55.609375 21.1875 
Q 55.609375 10.40625 48.1875 4.484375 
Q 40.765625 -1.421875 27.09375 -1.421875 
Q 22.515625 -1.421875 17.65625 -0.515625 
Q 12.796875 0.390625 7.625 2.203125 
L 7.625 11.71875 
Q 11.71875 9.328125 16.59375 8.109375 
Q 21.484375 6.890625 26.8125 6.890625 
Q 36.078125 6.890625 40.9375 10.546875 
Q 45.796875 14.203125 45.796875 21.1875 
Q 45.796875 27.640625 41.28125 31.265625 
Q 36.765625 34.90625 28.71875 34.90625 
L 20.21875 34.90625 
L 20.21875 43.015625 
L 29.109375 43.015625 
Q 36.375 43.015625 40.234375 45.921875 
Q 44.09375 48.828125 44.09375 54.296875 
Q 44.09375 59.90625 40.109375 62.90625 
Q 36.140625 65.921875 28.71875 65.921875 
Q 24.65625 65.921875 20.015625 65.03125 
Q 15.375 64.15625 9.8125 62.3125 
L 9.8125 71.09375 
Q 15.4375 72.65625 20.34375 73.4375 
Q 25.25 74.21875 29.59375 74.21875 
Q 40.828125 74.21875 47.359375 69.109375 
Q 53.90625 64.015625 53.90625 55.328125 
Q 53.90625 49.265625 50.4375 45.09375 
Q 46.96875 40.921875 40.578125 39.3125 
z
" id="DejaVuSans-51"/>
    </defs>
    <g style="fill:#808080;" transform="translate(182.46275 294.151352)scale(0.1 -0.1)">
     <use xlink:href="#DejaVuSans-118"/>
     <use x="59.179688" xlink:href="#DejaVuSans-50"/>
     <use x="122.802734" xlink:href="#DejaVuSans-46"/>
     <use x="154.589844" xlink:href="#DejaVuSans-51"/>
     <use x="218.212891" xlink:href="#DejaVuSans-46"/>
     <use x="250" xlink:href="#DejaVuSans-50"/>
    </g>
   </g>
   <g id="text_20">
    <!-- 24 Lunacek bi-Rastrigin -->
    <defs>
     <path d="M 9.078125 75.984375 
L 18.109375 75.984375 
L 18.109375 31.109375 
L 44.921875 54.6875 
L 56.390625 54.6875 
L 27.390625 29.109375 
L 57.625 0 
L 45.90625 0 
L 18.109375 26.703125 
L 18.109375 0 
L 9.078125 0 
z
" id="DejaVuSans-107"/>
    </defs>
    <g transform="translate(79.9565 21.648)scale(0.2 -0.2)">
     <use xlink:href="#DejaVuSans-50"/>
     <use x="63.623047" xlink:href="#DejaVuSans-52"/>
     <use x="127.246094" xlink:href="#DejaVuSans-32"/>
     <use x="159.033203" xlink:href="#DejaVuSans-76"/>
     <use x="214.730469" xlink:href="#DejaVuSans-117"/>
     <use x="278.109375" xlink:href="#DejaVuSans-110"/>
     <use x="341.488281" xlink:href="#DejaVuSans-97"/>
     <use x="402.767578" xlink:href="#DejaVuSans-99"/>
     <use x="457.748047" xlink:href="#DejaVuSans-101"/>
     <use x="519.271484" xlink:href="#DejaVuSans-107"/>
     <use x="577.181641" xlink:href="#DejaVuSans-32"/>
     <use x="608.96875" xlink:href="#DejaVuSans-98"/>
     <use x="672.445312" xlink:href="#DejaVuSans-105"/>
     <use x="700.228516" xlink:href="#DejaVuSans-45"/>
     <use x="736.3125" xlink:href="#DejaVuSans-82"/>
     <use x="805.763672" xlink:href="#DejaVuSans-97"/>
     <use x="867.042969" xlink:href="#DejaVuSans-115"/>
     <use x="919.142578" xlink:href="#DejaVuSans-116"/>
     <use x="958.351562" xlink:href="#DejaVuSans-114"/>
     <use x="999.464844" xlink:href="#DejaVuSans-105"/>
     <use x="1027.248047" xlink:href="#DejaVuSans-103"/>
     <use x="1090.724609" xlink:href="#DejaVuSans-105"/>
     <use x="1118.507812" xlink:href="#DejaVuSans-110"/>
    </g>
   </g>
  </g>
 </g>
 <defs>
  <clipPath id="pbcf7754dc7">
   <rect height="271.296" width="281.088" x="57.6" y="27.648"/>
  </clipPath>
 </defs>
</svg>
