<?xml version="1.0" encoding="utf-8" standalone="no"?>
<!DOCTYPE svg PUBLIC "-//W3C//DTD SVG 1.1//EN"
  "http://www.w3.org/Graphics/SVG/1.1/DTD/svg11.dtd">
<!-- Created with matplotlib (https://matplotlib.org/) -->
<svg height="345.6pt" version="1.1" viewBox="0 0 460.8 345.6" width="460.8pt" xmlns="http://www.w3.org/2000/svg" xmlns:xlink="http://www.w3.org/1999/xlink">
 <defs>
  <style type="text/css">
*{stroke-linecap:butt;stroke-linejoin:round;}
  </style>
 </defs>
 <g id="figure_1">
  <g id="patch_1">
   <path d="M 0 345.6 
L 460.8 345.6 
L 460.8 0 
L 0 0 
z
" style="fill:#ffffff;"/>
  </g>
  <g id="axes_1">
   <g id="patch_2">
    <path d="M 57.6 298.944 
L 338.688 298.944 
L 338.688 27.648 
L 57.6 27.648 
z
" style="fill:#ffffff;"/>
   </g>
   <g id="line2d_1">
    <path d="M 50.52898 298.944 
L 50.52898 293.677139 
L 69.687988 293.677139 
L 69.687988 288.410278 
L 78.59642 288.410278 
L 78.59642 283.143418 
L 90.684409 283.143418 
L 90.684409 277.876557 
L 98.880934 277.876557 
L 98.880934 272.609696 
L 101.877879 272.609696 
L 101.877879 267.342835 
L 102.772397 267.342835 
L 102.772397 262.075974 
L 138.981779 262.075974 
L 138.981779 256.809114 
L 139.572998 256.809114 
L 139.572998 251.542253 
L 155.382516 251.542253 
L 155.382516 246.275392 
L 155.488919 246.275392 
L 155.488919 241.008531 
L 155.573575 241.008531 
L 155.573575 225.207949 
L 155.657823 225.207949 
L 155.657823 209.407366 
L 155.699795 209.407366 
L 155.699795 204.140506 
L 155.762564 204.140506 
L 155.762564 188.339923 
L 155.804285 188.339923 
L 155.804285 177.806202 
L 155.86668 177.806202 
L 155.86668 172.539341 
L 155.908152 172.539341 
L 155.908152 156.738758 
L 155.928852 156.738758 
L 155.928852 151.471897 
L 155.949527 151.471897 
L 155.949527 146.205037 
L 155.970177 146.205037 
L 155.970177 130.404454 
L 155.990803 130.404454 
L 155.990803 119.870733 
L 156.011405 119.870733 
L 156.011405 93.536429 
L 156.031982 93.536429 
L 156.031982 72.468985 
L 156.073064 72.468985 
L 156.073064 67.202125 
L 156.114049 67.202125 
L 156.114049 61.935264 
L 156.134506 61.935264 
L 156.134506 35.60096 
L 156.175347 35.60096 
L 156.175347 30.334099 
L 338.688 30.334099 
" style="fill:none;stroke:#f5deb3;stroke-linecap:square;stroke-width:4;"/>
   </g>
   <g id="line2d_2">
    <defs>
     <path d="M -0 7.778175 
L 7.778175 0 
L 0 -7.778175 
L -7.778175 -0 
z
" id="md99b17a6f1" style="stroke:#f5deb3;stroke-linejoin:miter;stroke-width:1.5;"/>
    </defs>
    <g>
     <use style="fill:#f5deb3;stroke:#f5deb3;stroke-linejoin:miter;stroke-width:1.5;" x="102.772397" xlink:href="#md99b17a6f1" y="262.075974"/>
     <use style="fill:#f5deb3;stroke:#f5deb3;stroke-linejoin:miter;stroke-width:1.5;" x="155.928852" xlink:href="#md99b17a6f1" y="156.738758"/>
     <use style="fill:#f5deb3;stroke:#f5deb3;stroke-linejoin:miter;stroke-width:1.5;" x="156.175347" xlink:href="#md99b17a6f1" y="35.60096"/>
     <use style="fill:#f5deb3;stroke:#f5deb3;stroke-linejoin:miter;stroke-width:1.5;" x="156.175347" xlink:href="#md99b17a6f1" y="30.334099"/>
     <use style="fill:#f5deb3;stroke:#f5deb3;stroke-linejoin:miter;stroke-width:1.5;" x="156.175347" xlink:href="#md99b17a6f1" y="30.334099"/>
     <use style="fill:#f5deb3;stroke:#f5deb3;stroke-linejoin:miter;stroke-width:1.5;" x="338.688" xlink:href="#md99b17a6f1" y="30.334099"/>
    </g>
   </g>
   <g id="line2d_3">
    <path style="fill:none;stroke:#f5deb3;stroke-linecap:square;stroke-width:4;"/>
    <g/>
   </g>
   <g id="line2d_4">
    <path d="M 338.688 30.334099 
L 369.60768 35.706297 
" style="fill:none;stroke:#f5deb3;stroke-linecap:square;stroke-width:4;"/>
    <g>
     <use style="fill:#f5deb3;stroke:#f5deb3;stroke-linejoin:miter;stroke-width:1.5;" x="338.688" xlink:href="#md99b17a6f1" y="30.334099"/>
     <use style="fill:#f5deb3;stroke:#f5deb3;stroke-linejoin:miter;stroke-width:1.5;" x="369.60768" xlink:href="#md99b17a6f1" y="35.706297"/>
    </g>
   </g>
   <g id="matplotlib.axis_1">
    <g id="xtick_1">
     <g id="line2d_5">
      <path clip-path="url(#p0d48bd3a75)" d="M 57.6 298.944 
L 57.6 27.648 
" style="fill:none;stroke:#b0b0b0;stroke-linecap:square;stroke-width:0.8;"/>
     </g>
     <g id="line2d_6">
      <defs>
       <path d="M 0 0 
L 0 3.5 
" id="m98e4172263" style="stroke:#000000;stroke-width:0.8;"/>
      </defs>
      <g>
       <use style="stroke:#000000;stroke-width:0.8;" x="57.6" xlink:href="#m98e4172263" y="298.944"/>
      </g>
     </g>
     <g id="text_1">
      <!-- 0 -->
      <defs>
       <path d="M 31.78125 66.40625 
Q 24.171875 66.40625 20.328125 58.90625 
Q 16.5 51.421875 16.5 36.375 
Q 16.5 21.390625 20.328125 13.890625 
Q 24.171875 6.390625 31.78125 6.390625 
Q 39.453125 6.390625 43.28125 13.890625 
Q 47.125 21.390625 47.125 36.375 
Q 47.125 51.421875 43.28125 58.90625 
Q 39.453125 66.40625 31.78125 66.40625 
z
M 31.78125 74.21875 
Q 44.046875 74.21875 50.515625 64.515625 
Q 56.984375 54.828125 56.984375 36.375 
Q 56.984375 17.96875 50.515625 8.265625 
Q 44.046875 -1.421875 31.78125 -1.421875 
Q 19.53125 -1.421875 13.0625 8.265625 
Q 6.59375 17.96875 6.59375 36.375 
Q 6.59375 54.828125 13.0625 64.515625 
Q 19.53125 74.21875 31.78125 74.21875 
z
" id="DejaVuSans-48"/>
      </defs>
      <g transform="translate(51.2375 321.140875)scale(0.2 -0.2)">
       <use xlink:href="#DejaVuSans-48"/>
      </g>
     </g>
    </g>
    <g id="xtick_2">
     <g id="line2d_7">
      <path clip-path="url(#p0d48bd3a75)" d="M 137.910857 298.944 
L 137.910857 27.648 
" style="fill:none;stroke:#b0b0b0;stroke-linecap:square;stroke-width:0.8;"/>
     </g>
     <g id="line2d_8">
      <g>
       <use style="stroke:#000000;stroke-width:0.8;" x="137.910857" xlink:href="#m98e4172263" y="298.944"/>
      </g>
     </g>
     <g id="text_2">
      <!-- 2 -->
      <defs>
       <path d="M 19.1875 8.296875 
L 53.609375 8.296875 
L 53.609375 0 
L 7.328125 0 
L 7.328125 8.296875 
Q 12.9375 14.109375 22.625 23.890625 
Q 32.328125 33.6875 34.8125 36.53125 
Q 39.546875 41.84375 41.421875 45.53125 
Q 43.3125 49.21875 43.3125 52.78125 
Q 43.3125 58.59375 39.234375 62.25 
Q 35.15625 65.921875 28.609375 65.921875 
Q 23.96875 65.921875 18.8125 64.3125 
Q 13.671875 62.703125 7.8125 59.421875 
L 7.8125 69.390625 
Q 13.765625 71.78125 18.9375 73 
Q 24.125 74.21875 28.421875 74.21875 
Q 39.75 74.21875 46.484375 68.546875 
Q 53.21875 62.890625 53.21875 53.421875 
Q 53.21875 48.921875 51.53125 44.890625 
Q 49.859375 40.875 45.40625 35.40625 
Q 44.1875 33.984375 37.640625 27.21875 
Q 31.109375 20.453125 19.1875 8.296875 
z
" id="DejaVuSans-50"/>
      </defs>
      <g transform="translate(131.548357 321.140875)scale(0.2 -0.2)">
       <use xlink:href="#DejaVuSans-50"/>
      </g>
     </g>
    </g>
    <g id="xtick_3">
     <g id="line2d_9">
      <path clip-path="url(#p0d48bd3a75)" d="M 218.221714 298.944 
L 218.221714 27.648 
" style="fill:none;stroke:#b0b0b0;stroke-linecap:square;stroke-width:0.8;"/>
     </g>
     <g id="line2d_10">
      <g>
       <use style="stroke:#000000;stroke-width:0.8;" x="218.221714" xlink:href="#m98e4172263" y="298.944"/>
      </g>
     </g>
     <g id="text_3">
      <!-- 4 -->
      <defs>
       <path d="M 37.796875 64.3125 
L 12.890625 25.390625 
L 37.796875 25.390625 
z
M 35.203125 72.90625 
L 47.609375 72.90625 
L 47.609375 25.390625 
L 58.015625 25.390625 
L 58.015625 17.1875 
L 47.609375 17.1875 
L 47.609375 0 
L 37.796875 0 
L 37.796875 17.1875 
L 4.890625 17.1875 
L 4.890625 26.703125 
z
" id="DejaVuSans-52"/>
      </defs>
      <g transform="translate(211.859214 321.140875)scale(0.2 -0.2)">
       <use xlink:href="#DejaVuSans-52"/>
      </g>
     </g>
    </g>
    <g id="xtick_4">
     <g id="line2d_11">
      <path clip-path="url(#p0d48bd3a75)" d="M 298.532571 298.944 
L 298.532571 27.648 
" style="fill:none;stroke:#b0b0b0;stroke-linecap:square;stroke-width:0.8;"/>
     </g>
     <g id="line2d_12">
      <g>
       <use style="stroke:#000000;stroke-width:0.8;" x="298.532571" xlink:href="#m98e4172263" y="298.944"/>
      </g>
     </g>
     <g id="text_4">
      <!-- 6 -->
      <defs>
       <path d="M 33.015625 40.375 
Q 26.375 40.375 22.484375 35.828125 
Q 18.609375 31.296875 18.609375 23.390625 
Q 18.609375 15.53125 22.484375 10.953125 
Q 26.375 6.390625 33.015625 6.390625 
Q 39.65625 6.390625 43.53125 10.953125 
Q 47.40625 15.53125 47.40625 23.390625 
Q 47.40625 31.296875 43.53125 35.828125 
Q 39.65625 40.375 33.015625 40.375 
z
M 52.59375 71.296875 
L 52.59375 62.3125 
Q 48.875 64.0625 45.09375 64.984375 
Q 41.3125 65.921875 37.59375 65.921875 
Q 27.828125 65.921875 22.671875 59.328125 
Q 17.53125 52.734375 16.796875 39.40625 
Q 19.671875 43.65625 24.015625 45.921875 
Q 28.375 48.1875 33.59375 48.1875 
Q 44.578125 48.1875 50.953125 41.515625 
Q 57.328125 34.859375 57.328125 23.390625 
Q 57.328125 12.15625 50.6875 5.359375 
Q 44.046875 -1.421875 33.015625 -1.421875 
Q 20.359375 -1.421875 13.671875 8.265625 
Q 6.984375 17.96875 6.984375 36.375 
Q 6.984375 53.65625 15.1875 63.9375 
Q 23.390625 74.21875 37.203125 74.21875 
Q 40.921875 74.21875 44.703125 73.484375 
Q 48.484375 72.75 52.59375 71.296875 
z
" id="DejaVuSans-54"/>
      </defs>
      <g transform="translate(292.170071 321.140875)scale(0.2 -0.2)">
       <use xlink:href="#DejaVuSans-54"/>
      </g>
     </g>
    </g>
    <g id="xtick_5">
     <g id="line2d_13">
      <path clip-path="url(#p0d48bd3a75)" d="M 57.6 298.944 
L 57.6 27.648 
" style="fill:none;stroke:#b0b0b0;stroke-linecap:square;stroke-width:0.8;"/>
     </g>
     <g id="line2d_14">
      <defs>
       <path d="M 0 0 
L 0 2 
" id="mc7df0e72ab" style="stroke:#000000;stroke-width:0.6;"/>
      </defs>
      <g>
       <use style="stroke:#000000;stroke-width:0.6;" x="57.6" xlink:href="#mc7df0e72ab" y="298.944"/>
      </g>
     </g>
    </g>
    <g id="xtick_6">
     <g id="line2d_15">
      <path clip-path="url(#p0d48bd3a75)" d="M 97.755429 298.944 
L 97.755429 27.648 
" style="fill:none;stroke:#b0b0b0;stroke-linecap:square;stroke-width:0.8;"/>
     </g>
     <g id="line2d_16">
      <g>
       <use style="stroke:#000000;stroke-width:0.6;" x="97.755429" xlink:href="#mc7df0e72ab" y="298.944"/>
      </g>
     </g>
    </g>
    <g id="xtick_7">
     <g id="line2d_17">
      <path clip-path="url(#p0d48bd3a75)" d="M 137.910857 298.944 
L 137.910857 27.648 
" style="fill:none;stroke:#b0b0b0;stroke-linecap:square;stroke-width:0.8;"/>
     </g>
     <g id="line2d_18">
      <g>
       <use style="stroke:#000000;stroke-width:0.6;" x="137.910857" xlink:href="#mc7df0e72ab" y="298.944"/>
      </g>
     </g>
    </g>
    <g id="xtick_8">
     <g id="line2d_19">
      <path clip-path="url(#p0d48bd3a75)" d="M 178.066286 298.944 
L 178.066286 27.648 
" style="fill:none;stroke:#b0b0b0;stroke-linecap:square;stroke-width:0.8;"/>
     </g>
     <g id="line2d_20">
      <g>
       <use style="stroke:#000000;stroke-width:0.6;" x="178.066286" xlink:href="#mc7df0e72ab" y="298.944"/>
      </g>
     </g>
    </g>
    <g id="xtick_9">
     <g id="line2d_21">
      <path clip-path="url(#p0d48bd3a75)" d="M 218.221714 298.944 
L 218.221714 27.648 
" style="fill:none;stroke:#b0b0b0;stroke-linecap:square;stroke-width:0.8;"/>
     </g>
     <g id="line2d_22">
      <g>
       <use style="stroke:#000000;stroke-width:0.6;" x="218.221714" xlink:href="#mc7df0e72ab" y="298.944"/>
      </g>
     </g>
    </g>
    <g id="xtick_10">
     <g id="line2d_23">
      <path clip-path="url(#p0d48bd3a75)" d="M 258.377143 298.944 
L 258.377143 27.648 
" style="fill:none;stroke:#b0b0b0;stroke-linecap:square;stroke-width:0.8;"/>
     </g>
     <g id="line2d_24">
      <g>
       <use style="stroke:#000000;stroke-width:0.6;" x="258.377143" xlink:href="#mc7df0e72ab" y="298.944"/>
      </g>
     </g>
    </g>
    <g id="xtick_11">
     <g id="line2d_25">
      <path clip-path="url(#p0d48bd3a75)" d="M 298.532571 298.944 
L 298.532571 27.648 
" style="fill:none;stroke:#b0b0b0;stroke-linecap:square;stroke-width:0.8;"/>
     </g>
     <g id="line2d_26">
      <g>
       <use style="stroke:#000000;stroke-width:0.6;" x="298.532571" xlink:href="#mc7df0e72ab" y="298.944"/>
      </g>
     </g>
    </g>
    <g id="xtick_12">
     <g id="line2d_27">
      <path clip-path="url(#p0d48bd3a75)" d="M 338.688 298.944 
L 338.688 27.648 
" style="fill:none;stroke:#b0b0b0;stroke-linecap:square;stroke-width:0.8;"/>
     </g>
     <g id="line2d_28">
      <g>
       <use style="stroke:#000000;stroke-width:0.6;" x="338.688" xlink:href="#mc7df0e72ab" y="298.944"/>
      </g>
     </g>
    </g>
    <g id="text_5">
     <!-- log10(# f-evals / dimension) -->
     <defs>
      <path d="M 9.421875 75.984375 
L 18.40625 75.984375 
L 18.40625 0 
L 9.421875 0 
z
" id="DejaVuSans-108"/>
      <path d="M 30.609375 48.390625 
Q 23.390625 48.390625 19.1875 42.75 
Q 14.984375 37.109375 14.984375 27.296875 
Q 14.984375 17.484375 19.15625 11.84375 
Q 23.34375 6.203125 30.609375 6.203125 
Q 37.796875 6.203125 41.984375 11.859375 
Q 46.1875 17.53125 46.1875 27.296875 
Q 46.1875 37.015625 41.984375 42.703125 
Q 37.796875 48.390625 30.609375 48.390625 
z
M 30.609375 56 
Q 42.328125 56 49.015625 48.375 
Q 55.71875 40.765625 55.71875 27.296875 
Q 55.71875 13.875 49.015625 6.21875 
Q 42.328125 -1.421875 30.609375 -1.421875 
Q 18.84375 -1.421875 12.171875 6.21875 
Q 5.515625 13.875 5.515625 27.296875 
Q 5.515625 40.765625 12.171875 48.375 
Q 18.84375 56 30.609375 56 
z
" id="DejaVuSans-111"/>
      <path d="M 45.40625 27.984375 
Q 45.40625 37.75 41.375 43.109375 
Q 37.359375 48.484375 30.078125 48.484375 
Q 22.859375 48.484375 18.828125 43.109375 
Q 14.796875 37.75 14.796875 27.984375 
Q 14.796875 18.265625 18.828125 12.890625 
Q 22.859375 7.515625 30.078125 7.515625 
Q 37.359375 7.515625 41.375 12.890625 
Q 45.40625 18.265625 45.40625 27.984375 
z
M 54.390625 6.78125 
Q 54.390625 -7.171875 48.1875 -13.984375 
Q 42 -20.796875 29.203125 -20.796875 
Q 24.46875 -20.796875 20.265625 -20.09375 
Q 16.0625 -19.390625 12.109375 -17.921875 
L 12.109375 -9.1875 
Q 16.0625 -11.328125 19.921875 -12.34375 
Q 23.78125 -13.375 27.78125 -13.375 
Q 36.625 -13.375 41.015625 -8.765625 
Q 45.40625 -4.15625 45.40625 5.171875 
L 45.40625 9.625 
Q 42.625 4.78125 38.28125 2.390625 
Q 33.9375 0 27.875 0 
Q 17.828125 0 11.671875 7.65625 
Q 5.515625 15.328125 5.515625 27.984375 
Q 5.515625 40.671875 11.671875 48.328125 
Q 17.828125 56 27.875 56 
Q 33.9375 56 38.28125 53.609375 
Q 42.625 51.21875 45.40625 46.390625 
L 45.40625 54.6875 
L 54.390625 54.6875 
z
" id="DejaVuSans-103"/>
      <path d="M 12.40625 8.296875 
L 28.515625 8.296875 
L 28.515625 63.921875 
L 10.984375 60.40625 
L 10.984375 69.390625 
L 28.421875 72.90625 
L 38.28125 72.90625 
L 38.28125 8.296875 
L 54.390625 8.296875 
L 54.390625 0 
L 12.40625 0 
z
" id="DejaVuSans-49"/>
      <path d="M 31 75.875 
Q 24.46875 64.65625 21.28125 53.65625 
Q 18.109375 42.671875 18.109375 31.390625 
Q 18.109375 20.125 21.3125 9.0625 
Q 24.515625 -2 31 -13.1875 
L 23.1875 -13.1875 
Q 15.875 -1.703125 12.234375 9.375 
Q 8.59375 20.453125 8.59375 31.390625 
Q 8.59375 42.28125 12.203125 53.3125 
Q 15.828125 64.359375 23.1875 75.875 
z
" id="DejaVuSans-40"/>
      <path d="M 51.125 44 
L 36.921875 44 
L 32.8125 27.6875 
L 47.125 27.6875 
z
M 43.796875 71.78125 
L 38.71875 51.515625 
L 52.984375 51.515625 
L 58.109375 71.78125 
L 65.921875 71.78125 
L 60.890625 51.515625 
L 76.125 51.515625 
L 76.125 44 
L 58.984375 44 
L 54.984375 27.6875 
L 70.515625 27.6875 
L 70.515625 20.21875 
L 53.078125 20.21875 
L 48 0 
L 40.1875 0 
L 45.21875 20.21875 
L 30.90625 20.21875 
L 25.875 0 
L 18.015625 0 
L 23.09375 20.21875 
L 7.71875 20.21875 
L 7.71875 27.6875 
L 24.90625 27.6875 
L 29 44 
L 13.28125 44 
L 13.28125 51.515625 
L 30.90625 51.515625 
L 35.890625 71.78125 
z
" id="DejaVuSans-35"/>
      <path id="DejaVuSans-32"/>
      <path d="M 37.109375 75.984375 
L 37.109375 68.5 
L 28.515625 68.5 
Q 23.6875 68.5 21.796875 66.546875 
Q 19.921875 64.59375 19.921875 59.515625 
L 19.921875 54.6875 
L 34.71875 54.6875 
L 34.71875 47.703125 
L 19.921875 47.703125 
L 19.921875 0 
L 10.890625 0 
L 10.890625 47.703125 
L 2.296875 47.703125 
L 2.296875 54.6875 
L 10.890625 54.6875 
L 10.890625 58.5 
Q 10.890625 67.625 15.140625 71.796875 
Q 19.390625 75.984375 28.609375 75.984375 
z
" id="DejaVuSans-102"/>
      <path d="M 4.890625 31.390625 
L 31.203125 31.390625 
L 31.203125 23.390625 
L 4.890625 23.390625 
z
" id="DejaVuSans-45"/>
      <path d="M 56.203125 29.59375 
L 56.203125 25.203125 
L 14.890625 25.203125 
Q 15.484375 15.921875 20.484375 11.0625 
Q 25.484375 6.203125 34.421875 6.203125 
Q 39.59375 6.203125 44.453125 7.46875 
Q 49.3125 8.734375 54.109375 11.28125 
L 54.109375 2.78125 
Q 49.265625 0.734375 44.1875 -0.34375 
Q 39.109375 -1.421875 33.890625 -1.421875 
Q 20.796875 -1.421875 13.15625 6.1875 
Q 5.515625 13.8125 5.515625 26.8125 
Q 5.515625 40.234375 12.765625 48.109375 
Q 20.015625 56 32.328125 56 
Q 43.359375 56 49.78125 48.890625 
Q 56.203125 41.796875 56.203125 29.59375 
z
M 47.21875 32.234375 
Q 47.125 39.59375 43.09375 43.984375 
Q 39.0625 48.390625 32.421875 48.390625 
Q 24.90625 48.390625 20.390625 44.140625 
Q 15.875 39.890625 15.1875 32.171875 
z
" id="DejaVuSans-101"/>
      <path d="M 2.984375 54.6875 
L 12.5 54.6875 
L 29.59375 8.796875 
L 46.6875 54.6875 
L 56.203125 54.6875 
L 35.6875 0 
L 23.484375 0 
z
" id="DejaVuSans-118"/>
      <path d="M 34.28125 27.484375 
Q 23.390625 27.484375 19.1875 25 
Q 14.984375 22.515625 14.984375 16.5 
Q 14.984375 11.71875 18.140625 8.90625 
Q 21.296875 6.109375 26.703125 6.109375 
Q 34.1875 6.109375 38.703125 11.40625 
Q 43.21875 16.703125 43.21875 25.484375 
L 43.21875 27.484375 
z
M 52.203125 31.203125 
L 52.203125 0 
L 43.21875 0 
L 43.21875 8.296875 
Q 40.140625 3.328125 35.546875 0.953125 
Q 30.953125 -1.421875 24.3125 -1.421875 
Q 15.921875 -1.421875 10.953125 3.296875 
Q 6 8.015625 6 15.921875 
Q 6 25.140625 12.171875 29.828125 
Q 18.359375 34.515625 30.609375 34.515625 
L 43.21875 34.515625 
L 43.21875 35.40625 
Q 43.21875 41.609375 39.140625 45 
Q 35.0625 48.390625 27.6875 48.390625 
Q 23 48.390625 18.546875 47.265625 
Q 14.109375 46.140625 10.015625 43.890625 
L 10.015625 52.203125 
Q 14.9375 54.109375 19.578125 55.046875 
Q 24.21875 56 28.609375 56 
Q 40.484375 56 46.34375 49.84375 
Q 52.203125 43.703125 52.203125 31.203125 
z
" id="DejaVuSans-97"/>
      <path d="M 44.28125 53.078125 
L 44.28125 44.578125 
Q 40.484375 46.53125 36.375 47.5 
Q 32.28125 48.484375 27.875 48.484375 
Q 21.1875 48.484375 17.84375 46.4375 
Q 14.5 44.390625 14.5 40.28125 
Q 14.5 37.15625 16.890625 35.375 
Q 19.28125 33.59375 26.515625 31.984375 
L 29.59375 31.296875 
Q 39.15625 29.25 43.1875 25.515625 
Q 47.21875 21.78125 47.21875 15.09375 
Q 47.21875 7.46875 41.1875 3.015625 
Q 35.15625 -1.421875 24.609375 -1.421875 
Q 20.21875 -1.421875 15.453125 -0.5625 
Q 10.6875 0.296875 5.421875 2 
L 5.421875 11.28125 
Q 10.40625 8.6875 15.234375 7.390625 
Q 20.0625 6.109375 24.8125 6.109375 
Q 31.15625 6.109375 34.5625 8.28125 
Q 37.984375 10.453125 37.984375 14.40625 
Q 37.984375 18.0625 35.515625 20.015625 
Q 33.0625 21.96875 24.703125 23.78125 
L 21.578125 24.515625 
Q 13.234375 26.265625 9.515625 29.90625 
Q 5.8125 33.546875 5.8125 39.890625 
Q 5.8125 47.609375 11.28125 51.796875 
Q 16.75 56 26.8125 56 
Q 31.78125 56 36.171875 55.265625 
Q 40.578125 54.546875 44.28125 53.078125 
z
" id="DejaVuSans-115"/>
      <path d="M 25.390625 72.90625 
L 33.6875 72.90625 
L 8.296875 -9.28125 
L 0 -9.28125 
z
" id="DejaVuSans-47"/>
      <path d="M 45.40625 46.390625 
L 45.40625 75.984375 
L 54.390625 75.984375 
L 54.390625 0 
L 45.40625 0 
L 45.40625 8.203125 
Q 42.578125 3.328125 38.25 0.953125 
Q 33.9375 -1.421875 27.875 -1.421875 
Q 17.96875 -1.421875 11.734375 6.484375 
Q 5.515625 14.40625 5.515625 27.296875 
Q 5.515625 40.1875 11.734375 48.09375 
Q 17.96875 56 27.875 56 
Q 33.9375 56 38.25 53.625 
Q 42.578125 51.265625 45.40625 46.390625 
z
M 14.796875 27.296875 
Q 14.796875 17.390625 18.875 11.75 
Q 22.953125 6.109375 30.078125 6.109375 
Q 37.203125 6.109375 41.296875 11.75 
Q 45.40625 17.390625 45.40625 27.296875 
Q 45.40625 37.203125 41.296875 42.84375 
Q 37.203125 48.484375 30.078125 48.484375 
Q 22.953125 48.484375 18.875 42.84375 
Q 14.796875 37.203125 14.796875 27.296875 
z
" id="DejaVuSans-100"/>
      <path d="M 9.421875 54.6875 
L 18.40625 54.6875 
L 18.40625 0 
L 9.421875 0 
z
M 9.421875 75.984375 
L 18.40625 75.984375 
L 18.40625 64.59375 
L 9.421875 64.59375 
z
" id="DejaVuSans-105"/>
      <path d="M 52 44.1875 
Q 55.375 50.25 60.0625 53.125 
Q 64.75 56 71.09375 56 
Q 79.640625 56 84.28125 50.015625 
Q 88.921875 44.046875 88.921875 33.015625 
L 88.921875 0 
L 79.890625 0 
L 79.890625 32.71875 
Q 79.890625 40.578125 77.09375 44.375 
Q 74.3125 48.1875 68.609375 48.1875 
Q 61.625 48.1875 57.5625 43.546875 
Q 53.515625 38.921875 53.515625 30.90625 
L 53.515625 0 
L 44.484375 0 
L 44.484375 32.71875 
Q 44.484375 40.625 41.703125 44.40625 
Q 38.921875 48.1875 33.109375 48.1875 
Q 26.21875 48.1875 22.15625 43.53125 
Q 18.109375 38.875 18.109375 30.90625 
L 18.109375 0 
L 9.078125 0 
L 9.078125 54.6875 
L 18.109375 54.6875 
L 18.109375 46.1875 
Q 21.1875 51.21875 25.484375 53.609375 
Q 29.78125 56 35.6875 56 
Q 41.65625 56 45.828125 52.96875 
Q 50 49.953125 52 44.1875 
z
" id="DejaVuSans-109"/>
      <path d="M 54.890625 33.015625 
L 54.890625 0 
L 45.90625 0 
L 45.90625 32.71875 
Q 45.90625 40.484375 42.875 44.328125 
Q 39.84375 48.1875 33.796875 48.1875 
Q 26.515625 48.1875 22.3125 43.546875 
Q 18.109375 38.921875 18.109375 30.90625 
L 18.109375 0 
L 9.078125 0 
L 9.078125 54.6875 
L 18.109375 54.6875 
L 18.109375 46.1875 
Q 21.34375 51.125 25.703125 53.5625 
Q 30.078125 56 35.796875 56 
Q 45.21875 56 50.046875 50.171875 
Q 54.890625 44.34375 54.890625 33.015625 
z
" id="DejaVuSans-110"/>
      <path d="M 8.015625 75.875 
L 15.828125 75.875 
Q 23.140625 64.359375 26.78125 53.3125 
Q 30.421875 42.28125 30.421875 31.390625 
Q 30.421875 20.453125 26.78125 9.375 
Q 23.140625 -1.703125 15.828125 -13.1875 
L 8.015625 -13.1875 
Q 14.5 -2 17.703125 9.0625 
Q 20.90625 20.125 20.90625 31.390625 
Q 20.90625 42.671875 17.703125 53.65625 
Q 14.5 64.65625 8.015625 75.875 
z
" id="DejaVuSans-41"/>
     </defs>
     <g transform="translate(77.303219 342.217594)scale(0.17 -0.17)">
      <use xlink:href="#DejaVuSans-108"/>
      <use x="27.783203" xlink:href="#DejaVuSans-111"/>
      <use x="88.964844" xlink:href="#DejaVuSans-103"/>
      <use x="152.441406" xlink:href="#DejaVuSans-49"/>
      <use x="216.064453" xlink:href="#DejaVuSans-48"/>
      <use x="279.6875" xlink:href="#DejaVuSans-40"/>
      <use x="318.701172" xlink:href="#DejaVuSans-35"/>
      <use x="402.490234" xlink:href="#DejaVuSans-32"/>
      <use x="434.277344" xlink:href="#DejaVuSans-102"/>
      <use x="469.404297" xlink:href="#DejaVuSans-45"/>
      <use x="505.488281" xlink:href="#DejaVuSans-101"/>
      <use x="567.011719" xlink:href="#DejaVuSans-118"/>
      <use x="626.191406" xlink:href="#DejaVuSans-97"/>
      <use x="687.470703" xlink:href="#DejaVuSans-108"/>
      <use x="715.253906" xlink:href="#DejaVuSans-115"/>
      <use x="767.353516" xlink:href="#DejaVuSans-32"/>
      <use x="799.140625" xlink:href="#DejaVuSans-47"/>
      <use x="832.832031" xlink:href="#DejaVuSans-32"/>
      <use x="864.619141" xlink:href="#DejaVuSans-100"/>
      <use x="928.095703" xlink:href="#DejaVuSans-105"/>
      <use x="955.878906" xlink:href="#DejaVuSans-109"/>
      <use x="1053.291016" xlink:href="#DejaVuSans-101"/>
      <use x="1114.814453" xlink:href="#DejaVuSans-110"/>
      <use x="1178.193359" xlink:href="#DejaVuSans-115"/>
      <use x="1230.292969" xlink:href="#DejaVuSans-105"/>
      <use x="1258.076172" xlink:href="#DejaVuSans-111"/>
      <use x="1319.257812" xlink:href="#DejaVuSans-110"/>
      <use x="1382.636719" xlink:href="#DejaVuSans-41"/>
     </g>
    </g>
   </g>
   <g id="matplotlib.axis_2">
    <g id="ytick_1">
     <g id="line2d_29">
      <path clip-path="url(#p0d48bd3a75)" d="M 57.6 298.944 
L 338.688 298.944 
" style="fill:none;stroke:#b0b0b0;stroke-linecap:square;stroke-width:0.8;"/>
     </g>
     <g id="line2d_30">
      <defs>
       <path d="M 0 0 
L -3.5 0 
" id="m17618c8742" style="stroke:#000000;stroke-width:0.8;"/>
      </defs>
      <g>
       <use style="stroke:#000000;stroke-width:0.8;" x="57.6" xlink:href="#m17618c8742" y="298.944"/>
      </g>
     </g>
     <g id="text_6">
      <!-- 0.0 -->
      <defs>
       <path d="M 10.6875 12.40625 
L 21 12.40625 
L 21 0 
L 10.6875 0 
z
" id="DejaVuSans-46"/>
      </defs>
      <g transform="translate(25.155 305.02275)scale(0.16 -0.16)">
       <use xlink:href="#DejaVuSans-48"/>
       <use x="63.623047" xlink:href="#DejaVuSans-46"/>
       <use x="95.410156" xlink:href="#DejaVuSans-48"/>
      </g>
     </g>
    </g>
    <g id="ytick_2">
     <g id="line2d_31">
      <path clip-path="url(#p0d48bd3a75)" d="M 57.6 245.22202 
L 338.688 245.22202 
" style="fill:none;stroke:#b0b0b0;stroke-linecap:square;stroke-width:0.8;"/>
     </g>
     <g id="line2d_32">
      <g>
       <use style="stroke:#000000;stroke-width:0.8;" x="57.6" xlink:href="#m17618c8742" y="245.22202"/>
      </g>
     </g>
     <g id="text_7">
      <!-- 0.2 -->
      <g transform="translate(25.155 251.30077)scale(0.16 -0.16)">
       <use xlink:href="#DejaVuSans-48"/>
       <use x="63.623047" xlink:href="#DejaVuSans-46"/>
       <use x="95.410156" xlink:href="#DejaVuSans-50"/>
      </g>
     </g>
    </g>
    <g id="ytick_3">
     <g id="line2d_33">
      <path clip-path="url(#p0d48bd3a75)" d="M 57.6 191.50004 
L 338.688 191.50004 
" style="fill:none;stroke:#b0b0b0;stroke-linecap:square;stroke-width:0.8;"/>
     </g>
     <g id="line2d_34">
      <g>
       <use style="stroke:#000000;stroke-width:0.8;" x="57.6" xlink:href="#m17618c8742" y="191.50004"/>
      </g>
     </g>
     <g id="text_8">
      <!-- 0.4 -->
      <g transform="translate(25.155 197.57879)scale(0.16 -0.16)">
       <use xlink:href="#DejaVuSans-48"/>
       <use x="63.623047" xlink:href="#DejaVuSans-46"/>
       <use x="95.410156" xlink:href="#DejaVuSans-52"/>
      </g>
     </g>
    </g>
    <g id="ytick_4">
     <g id="line2d_35">
      <path clip-path="url(#p0d48bd3a75)" d="M 57.6 137.778059 
L 338.688 137.778059 
" style="fill:none;stroke:#b0b0b0;stroke-linecap:square;stroke-width:0.8;"/>
     </g>
     <g id="line2d_36">
      <g>
       <use style="stroke:#000000;stroke-width:0.8;" x="57.6" xlink:href="#m17618c8742" y="137.778059"/>
      </g>
     </g>
     <g id="text_9">
      <!-- 0.6 -->
      <g transform="translate(25.155 143.856809)scale(0.16 -0.16)">
       <use xlink:href="#DejaVuSans-48"/>
       <use x="63.623047" xlink:href="#DejaVuSans-46"/>
       <use x="95.410156" xlink:href="#DejaVuSans-54"/>
      </g>
     </g>
    </g>
    <g id="ytick_5">
     <g id="line2d_37">
      <path clip-path="url(#p0d48bd3a75)" d="M 57.6 84.056079 
L 338.688 84.056079 
" style="fill:none;stroke:#b0b0b0;stroke-linecap:square;stroke-width:0.8;"/>
     </g>
     <g id="line2d_38">
      <g>
       <use style="stroke:#000000;stroke-width:0.8;" x="57.6" xlink:href="#m17618c8742" y="84.056079"/>
      </g>
     </g>
     <g id="text_10">
      <!-- 0.8 -->
      <defs>
       <path d="M 31.78125 34.625 
Q 24.75 34.625 20.71875 30.859375 
Q 16.703125 27.09375 16.703125 20.515625 
Q 16.703125 13.921875 20.71875 10.15625 
Q 24.75 6.390625 31.78125 6.390625 
Q 38.8125 6.390625 42.859375 10.171875 
Q 46.921875 13.96875 46.921875 20.515625 
Q 46.921875 27.09375 42.890625 30.859375 
Q 38.875 34.625 31.78125 34.625 
z
M 21.921875 38.8125 
Q 15.578125 40.375 12.03125 44.71875 
Q 8.5 49.078125 8.5 55.328125 
Q 8.5 64.0625 14.71875 69.140625 
Q 20.953125 74.21875 31.78125 74.21875 
Q 42.671875 74.21875 48.875 69.140625 
Q 55.078125 64.0625 55.078125 55.328125 
Q 55.078125 49.078125 51.53125 44.71875 
Q 48 40.375 41.703125 38.8125 
Q 48.828125 37.15625 52.796875 32.3125 
Q 56.78125 27.484375 56.78125 20.515625 
Q 56.78125 9.90625 50.3125 4.234375 
Q 43.84375 -1.421875 31.78125 -1.421875 
Q 19.734375 -1.421875 13.25 4.234375 
Q 6.78125 9.90625 6.78125 20.515625 
Q 6.78125 27.484375 10.78125 32.3125 
Q 14.796875 37.15625 21.921875 38.8125 
z
M 18.3125 54.390625 
Q 18.3125 48.734375 21.84375 45.5625 
Q 25.390625 42.390625 31.78125 42.390625 
Q 38.140625 42.390625 41.71875 45.5625 
Q 45.3125 48.734375 45.3125 54.390625 
Q 45.3125 60.0625 41.71875 63.234375 
Q 38.140625 66.40625 31.78125 66.40625 
Q 25.390625 66.40625 21.84375 63.234375 
Q 18.3125 60.0625 18.3125 54.390625 
z
" id="DejaVuSans-56"/>
      </defs>
      <g transform="translate(25.155 90.134829)scale(0.16 -0.16)">
       <use xlink:href="#DejaVuSans-48"/>
       <use x="63.623047" xlink:href="#DejaVuSans-46"/>
       <use x="95.410156" xlink:href="#DejaVuSans-56"/>
      </g>
     </g>
    </g>
    <g id="ytick_6">
     <g id="line2d_39">
      <path clip-path="url(#p0d48bd3a75)" d="M 57.6 30.334099 
L 338.688 30.334099 
" style="fill:none;stroke:#b0b0b0;stroke-linecap:square;stroke-width:0.8;"/>
     </g>
     <g id="line2d_40">
      <g>
       <use style="stroke:#000000;stroke-width:0.8;" x="57.6" xlink:href="#m17618c8742" y="30.334099"/>
      </g>
     </g>
     <g id="text_11">
      <!-- 1.0 -->
      <g transform="translate(25.155 36.412849)scale(0.16 -0.16)">
       <use xlink:href="#DejaVuSans-49"/>
       <use x="63.623047" xlink:href="#DejaVuSans-46"/>
       <use x="95.410156" xlink:href="#DejaVuSans-48"/>
      </g>
     </g>
    </g>
    <g id="text_12">
     <!-- Fraction of function,target pairs -->
     <defs>
      <path d="M 9.8125 72.90625 
L 51.703125 72.90625 
L 51.703125 64.59375 
L 19.671875 64.59375 
L 19.671875 43.109375 
L 48.578125 43.109375 
L 48.578125 34.8125 
L 19.671875 34.8125 
L 19.671875 0 
L 9.8125 0 
z
" id="DejaVuSans-70"/>
      <path d="M 41.109375 46.296875 
Q 39.59375 47.171875 37.8125 47.578125 
Q 36.03125 48 33.890625 48 
Q 26.265625 48 22.1875 43.046875 
Q 18.109375 38.09375 18.109375 28.8125 
L 18.109375 0 
L 9.078125 0 
L 9.078125 54.6875 
L 18.109375 54.6875 
L 18.109375 46.1875 
Q 20.953125 51.171875 25.484375 53.578125 
Q 30.03125 56 36.53125 56 
Q 37.453125 56 38.578125 55.875 
Q 39.703125 55.765625 41.0625 55.515625 
z
" id="DejaVuSans-114"/>
      <path d="M 48.78125 52.59375 
L 48.78125 44.1875 
Q 44.96875 46.296875 41.140625 47.34375 
Q 37.3125 48.390625 33.40625 48.390625 
Q 24.65625 48.390625 19.8125 42.84375 
Q 14.984375 37.3125 14.984375 27.296875 
Q 14.984375 17.28125 19.8125 11.734375 
Q 24.65625 6.203125 33.40625 6.203125 
Q 37.3125 6.203125 41.140625 7.25 
Q 44.96875 8.296875 48.78125 10.40625 
L 48.78125 2.09375 
Q 45.015625 0.34375 40.984375 -0.53125 
Q 36.96875 -1.421875 32.421875 -1.421875 
Q 20.0625 -1.421875 12.78125 6.34375 
Q 5.515625 14.109375 5.515625 27.296875 
Q 5.515625 40.671875 12.859375 48.328125 
Q 20.21875 56 33.015625 56 
Q 37.15625 56 41.109375 55.140625 
Q 45.0625 54.296875 48.78125 52.59375 
z
" id="DejaVuSans-99"/>
      <path d="M 18.3125 70.21875 
L 18.3125 54.6875 
L 36.8125 54.6875 
L 36.8125 47.703125 
L 18.3125 47.703125 
L 18.3125 18.015625 
Q 18.3125 11.328125 20.140625 9.421875 
Q 21.96875 7.515625 27.59375 7.515625 
L 36.8125 7.515625 
L 36.8125 0 
L 27.59375 0 
Q 17.1875 0 13.234375 3.875 
Q 9.28125 7.765625 9.28125 18.015625 
L 9.28125 47.703125 
L 2.6875 47.703125 
L 2.6875 54.6875 
L 9.28125 54.6875 
L 9.28125 70.21875 
z
" id="DejaVuSans-116"/>
      <path d="M 8.5 21.578125 
L 8.5 54.6875 
L 17.484375 54.6875 
L 17.484375 21.921875 
Q 17.484375 14.15625 20.5 10.265625 
Q 23.53125 6.390625 29.59375 6.390625 
Q 36.859375 6.390625 41.078125 11.03125 
Q 45.3125 15.671875 45.3125 23.6875 
L 45.3125 54.6875 
L 54.296875 54.6875 
L 54.296875 0 
L 45.3125 0 
L 45.3125 8.40625 
Q 42.046875 3.421875 37.71875 1 
Q 33.40625 -1.421875 27.6875 -1.421875 
Q 18.265625 -1.421875 13.375 4.4375 
Q 8.5 10.296875 8.5 21.578125 
z
M 31.109375 56 
z
" id="DejaVuSans-117"/>
      <path d="M 11.71875 12.40625 
L 22.015625 12.40625 
L 22.015625 4 
L 14.015625 -11.625 
L 7.71875 -11.625 
L 11.71875 4 
z
" id="DejaVuSans-44"/>
      <path d="M 18.109375 8.203125 
L 18.109375 -20.796875 
L 9.078125 -20.796875 
L 9.078125 54.6875 
L 18.109375 54.6875 
L 18.109375 46.390625 
Q 20.953125 51.265625 25.265625 53.625 
Q 29.59375 56 35.59375 56 
Q 45.5625 56 51.78125 48.09375 
Q 58.015625 40.1875 58.015625 27.296875 
Q 58.015625 14.40625 51.78125 6.484375 
Q 45.5625 -1.421875 35.59375 -1.421875 
Q 29.59375 -1.421875 25.265625 0.953125 
Q 20.953125 3.328125 18.109375 8.203125 
z
M 48.6875 27.296875 
Q 48.6875 37.203125 44.609375 42.84375 
Q 40.53125 48.484375 33.40625 48.484375 
Q 26.265625 48.484375 22.1875 42.84375 
Q 18.109375 37.203125 18.109375 27.296875 
Q 18.109375 17.390625 22.1875 11.75 
Q 26.265625 6.109375 33.40625 6.109375 
Q 40.53125 6.109375 44.609375 11.75 
Q 48.6875 17.390625 48.6875 27.296875 
z
" id="DejaVuSans-112"/>
     </defs>
     <g transform="translate(17.619531 298.435375)rotate(-90)scale(0.17 -0.17)">
      <use xlink:href="#DejaVuSans-70"/>
      <use x="57.410156" xlink:href="#DejaVuSans-114"/>
      <use x="98.523438" xlink:href="#DejaVuSans-97"/>
      <use x="159.802734" xlink:href="#DejaVuSans-99"/>
      <use x="214.783203" xlink:href="#DejaVuSans-116"/>
      <use x="253.992188" xlink:href="#DejaVuSans-105"/>
      <use x="281.775391" xlink:href="#DejaVuSans-111"/>
      <use x="342.957031" xlink:href="#DejaVuSans-110"/>
      <use x="406.335938" xlink:href="#DejaVuSans-32"/>
      <use x="438.123047" xlink:href="#DejaVuSans-111"/>
      <use x="499.304688" xlink:href="#DejaVuSans-102"/>
      <use x="534.509766" xlink:href="#DejaVuSans-32"/>
      <use x="566.296875" xlink:href="#DejaVuSans-102"/>
      <use x="601.501953" xlink:href="#DejaVuSans-117"/>
      <use x="664.880859" xlink:href="#DejaVuSans-110"/>
      <use x="728.259766" xlink:href="#DejaVuSans-99"/>
      <use x="783.240234" xlink:href="#DejaVuSans-116"/>
      <use x="822.449219" xlink:href="#DejaVuSans-105"/>
      <use x="850.232422" xlink:href="#DejaVuSans-111"/>
      <use x="911.414062" xlink:href="#DejaVuSans-110"/>
      <use x="974.792969" xlink:href="#DejaVuSans-44"/>
      <use x="1006.580078" xlink:href="#DejaVuSans-116"/>
      <use x="1045.789062" xlink:href="#DejaVuSans-97"/>
      <use x="1107.068359" xlink:href="#DejaVuSans-114"/>
      <use x="1148.166016" xlink:href="#DejaVuSans-103"/>
      <use x="1211.642578" xlink:href="#DejaVuSans-101"/>
      <use x="1273.166016" xlink:href="#DejaVuSans-116"/>
      <use x="1312.375" xlink:href="#DejaVuSans-32"/>
      <use x="1344.162109" xlink:href="#DejaVuSans-112"/>
      <use x="1407.638672" xlink:href="#DejaVuSans-97"/>
      <use x="1468.917969" xlink:href="#DejaVuSans-105"/>
      <use x="1496.701172" xlink:href="#DejaVuSans-114"/>
      <use x="1537.814453" xlink:href="#DejaVuSans-115"/>
     </g>
    </g>
   </g>
   <g id="line2d_41">
    <defs>
     <path d="M 0 1.5 
C 0.397805 1.5 0.77937 1.341951 1.06066 1.06066 
C 1.341951 0.77937 1.5 0.397805 1.5 0 
C 1.5 -0.397805 1.341951 -0.77937 1.06066 -1.06066 
C 0.77937 -1.341951 0.397805 -1.5 0 -1.5 
C -0.397805 -1.5 -0.77937 -1.341951 -1.06066 -1.06066 
C -1.341951 -0.77937 -1.5 -0.397805 -1.5 0 
C -1.5 0.397805 -1.341951 0.77937 -1.06066 1.06066 
C -0.77937 1.341951 -0.397805 1.5 0 1.5 
z
" id="m975e646c46" style="stroke:#f5deb3;"/>
    </defs>
    <g>
     <use style="fill:#f5deb3;stroke:#f5deb3;" x="156.175347" xlink:href="#m975e646c46" y="30.334099"/>
     <use style="fill:#f5deb3;stroke:#f5deb3;" x="156.175347" xlink:href="#m975e646c46" y="30.334099"/>
    </g>
   </g>
   <g id="line2d_42">
    <defs>
     <path d="M 0 1.5 
C 0.397805 1.5 0.77937 1.341951 1.06066 1.06066 
C 1.341951 0.77937 1.5 0.397805 1.5 0 
C 1.5 -0.397805 1.341951 -0.77937 1.06066 -1.06066 
C 0.77937 -1.341951 0.397805 -1.5 0 -1.5 
C -0.397805 -1.5 -0.77937 -1.341951 -1.06066 -1.06066 
C -1.341951 -0.77937 -1.5 -0.397805 -1.5 0 
C -1.5 0.397805 -1.341951 0.77937 -1.06066 1.06066 
C -0.77937 1.341951 -0.397805 1.5 0 1.5 
z
" id="m6199dbd986" style="stroke:#000080;"/>
    </defs>
    <g>
     <use style="fill:#000080;stroke:#000080;" x="267.925701" xlink:href="#m6199dbd986" y="30.334099"/>
     <use style="fill:#000080;stroke:#000080;" x="267.925701" xlink:href="#m6199dbd986" y="30.334099"/>
    </g>
   </g>
   <g id="line2d_43">
    <path d="M 38.440992 298.944 
L 38.440992 292.097081 
L 50.52898 292.097081 
L 50.52898 291.043709 
L 62.616969 291.043709 
L 62.616969 289.990337 
L 69.687988 289.990337 
L 69.687988 288.936964 
L 72.376266 288.936964 
L 72.376266 286.303534 
L 76.759008 286.303534 
L 76.759008 284.19679 
L 80.258561 284.19679 
L 80.258561 283.143418 
L 81.775977 283.143418 
L 81.775977 282.616732 
L 85.66744 282.616732 
L 85.66744 280.509987 
L 91.535274 280.509987 
L 91.535274 279.983301 
L 93.121756 279.983301 
L 93.121756 278.929929 
L 95.918017 278.929929 
L 95.918017 278.403243 
L 99.41757 278.403243 
L 99.41757 277.876557 
L 104.434538 277.876557 
L 104.434538 276.296499 
L 105.209745 276.296499 
L 105.209745 275.769812 
L 112.026172 275.769812 
L 112.026172 275.243126 
L 113.022974 275.243126 
L 113.022974 274.189754 
L 114.418861 274.189754 
L 114.418861 273.136382 
L 115.077025 273.136382 
L 115.077025 272.609696 
L 116.719583 272.609696 
L 116.719583 272.08301 
L 117.486268 272.08301 
L 117.486268 271.029638 
L 119.267333 271.029638 
L 119.267333 270.502952 
L 119.43583 270.502952 
L 119.43583 269.449579 
L 120.571812 269.449579 
L 120.571812 268.922893 
L 121.189196 268.922893 
L 121.189196 268.396207 
L 122.782271 268.396207 
L 122.782271 267.342835 
L 123.593547 267.342835 
L 123.593547 266.289463 
L 123.855796 266.289463 
L 123.855796 265.762777 
L 125.351508 265.762777 
L 125.351508 265.236091 
L 126.50685 265.236091 
L 126.50685 264.182719 
L 129.290685 264.182719 
L 129.290685 263.656033 
L 131.270459 263.656033 
L 131.270459 263.129347 
L 132.101058 263.129347 
L 132.101058 262.60266 
L 132.659801 262.60266 
L 132.659801 262.075974 
L 133.124876 262.075974 
L 133.124876 261.549288 
L 133.503183 261.549288 
L 133.503183 261.022602 
L 134.091907 261.022602 
L 134.091907 260.495916 
L 134.591225 260.495916 
L 134.591225 259.442544 
L 135.813153 259.442544 
L 135.813153 258.915858 
L 136.266147 258.915858 
L 136.266147 258.389172 
L 137.016339 258.389172 
L 137.016339 257.862486 
L 137.37967 257.862486 
L 137.37967 257.3358 
L 137.910857 257.3358 
L 137.910857 256.809114 
L 138.761723 256.809114 
L 138.761723 256.282427 
L 139.939053 256.282427 
L 139.939053 255.755741 
L 140.348205 255.755741 
L 140.39868 254.175683 
L 141.47371 254.175683 
L 141.47371 253.648997 
L 141.987354 253.648997 
L 141.987354 252.595625 
L 142.261275 252.595625 
L 142.261275 252.068939 
L 142.884173 252.068939 
L 142.884173 251.542253 
L 143.695448 251.542253 
L 143.778691 250.488881 
L 144.06695 250.488881 
L 144.06695 249.962195 
L 144.269971 249.962195 
L 144.269971 247.85545 
L 145.703082 247.85545 
L 145.703082 246.275392 
L 146.573414 246.275392 
L 146.573414 245.748706 
L 147.50327 245.748706 
L 147.50327 244.168648 
L 148.576295 244.168648 
L 148.576295 242.588589 
L 149.497598 242.588589 
L 149.497598 242.061903 
L 150.344189 242.061903 
L 150.344189 241.535217 
L 159.26971 241.535217 
L 159.26971 241.008531 
L 160.297798 241.008531 
L 160.297798 240.481845 
L 161.540659 240.481845 
L 161.540659 239.955159 
L 161.79373 239.955159 
L 161.79373 239.428473 
L 162.231559 239.428473 
L 162.231559 238.901787 
L 162.46065 238.901787 
L 162.46065 238.375101 
L 162.9377 238.375101 
L 162.951535 237.321729 
L 164.063205 237.321729 
L 164.063205 236.795043 
L 164.282408 236.795043 
L 164.282408 236.268356 
L 164.435497 236.268356 
L 164.435497 235.74167 
L 164.599841 235.74167 
L 164.599841 235.214984 
L 164.973287 235.214984 
L 164.973287 234.688298 
L 165.399101 234.688298 
L 165.423123 232.581554 
L 165.93173 232.581554 
L 166.013141 231.528182 
L 166.07106 231.528182 
L 166.07106 231.001496 
L 166.186323 231.001496 
L 166.186323 230.47481 
L 166.323641 230.47481 
L 166.391896 229.421437 
L 166.606293 229.421437 
L 166.606293 228.368065 
L 166.718084 228.368065 
L 166.807003 225.207949 
L 167.201624 225.207949 
L 167.201624 224.681263 
L 167.320442 224.681263 
L 167.320442 222.047832 
L 167.438457 222.047832 
L 167.438457 221.521146 
L 167.619287 221.521146 
L 167.661564 220.467774 
L 167.954668 220.467774 
L 167.954668 219.941088 
L 168.506396 219.941088 
L 168.60668 218.887716 
L 168.626667 218.887716 
L 168.626667 217.834344 
L 168.86475 217.834344 
L 168.913944 216.254285 
L 169.041203 216.254285 
L 169.138466 213.620855 
L 171.366236 213.620855 
L 171.366236 213.094169 
L 175.737594 213.094169 
L 175.737594 212.567483 
L 178.78935 212.567483 
L 178.822779 211.514111 
L 179.659591 211.514111 
L 179.659591 209.407366 
L 180.402242 209.407366 
L 180.402242 208.88068 
L 180.634567 208.88068 
L 180.634567 208.353994 
L 180.769504 208.353994 
L 180.819217 206.24725 
L 181.095021 206.24725 
L 181.095021 205.720564 
L 181.332822 205.720564 
L 181.332822 205.193878 
L 181.681189 205.193878 
L 181.770731 202.560447 
L 181.855137 202.560447 
L 181.86449 201.507075 
L 182.073625 201.507075 
L 182.174963 199.927017 
L 182.248295 199.927017 
L 182.248295 199.400331 
L 182.461942 199.400331 
L 182.552068 197.820273 
L 182.681928 197.820273 
L 182.784238 196.240214 
L 182.8064 196.240214 
L 182.8064 195.713528 
L 182.92559 195.713528 
L 183.02211 194.13347 
L 183.131146 194.13347 
L 183.239506 192.026726 
L 183.390086 192.026726 
L 183.390086 191.50004 
L 183.539378 191.50004 
L 183.539378 189.919981 
L 183.809106 189.919981 
L 183.809106 189.393295 
L 183.979734 189.393295 
L 183.979734 188.866609 
L 184.15691 188.866609 
L 184.165107 186.759865 
L 184.705715 186.759865 
L 184.705715 186.233179 
L 184.836318 186.233179 
L 184.836318 184.653121 
L 185.2185 184.653121 
L 185.253182 180.966318 
L 188.474394 180.966318 
L 188.474394 179.38626 
L 188.624171 179.38626 
L 188.624171 178.859574 
L 189.062839 178.859574 
L 189.062839 177.279515 
L 189.656017 177.279515 
L 189.656017 176.752829 
L 189.9555 176.752829 
L 189.9555 176.226143 
L 190.174608 176.226143 
L 190.174608 175.172771 
L 190.365172 175.172771 
L 190.365172 174.646085 
L 190.519553 174.646085 
L 190.519553 174.119399 
L 190.647169 174.119399 
L 190.647169 173.066027 
L 190.821479 173.066027 
L 190.930239 171.485969 
L 191.09625 171.485969 
L 191.195103 169.90591 
L 191.24432 169.90591 
L 191.287952 168.852538 
L 191.415495 168.852538 
L 191.44791 167.27248 
L 191.614434 167.27248 
L 191.713059 164.63905 
L 191.850732 164.63905 
L 191.850732 163.585677 
L 192.159168 163.585677 
L 192.166939 162.005619 
L 192.285662 162.005619 
L 192.285662 161.478933 
L 192.429112 161.478933 
L 192.485145 159.898875 
L 192.551136 159.898875 
L 192.551136 159.372189 
L 192.81762 159.372189 
L 192.887338 157.265444 
L 193.065341 157.265444 
L 193.170789 155.685386 
L 193.413578 155.685386 
L 193.461733 152.52527 
L 193.588704 152.52527 
L 193.600635 150.945211 
L 193.823429 150.945211 
L 193.823429 149.365153 
L 194.064329 149.365153 
L 194.064329 148.311781 
L 194.198532 148.311781 
L 194.230771 147.258409 
L 194.459336 147.258409 
L 194.459336 146.731723 
L 194.588291 146.731723 
L 194.588291 145.678351 
L 194.743128 145.678351 
L 194.743128 145.151665 
L 195.129775 145.151665 
L 195.129775 144.624978 
L 199.206854 144.624978 
L 199.300002 143.571606 
L 199.771822 143.571606 
L 199.771822 143.04492 
L 199.908588 143.04492 
L 199.918553 141.991548 
L 200.138001 141.991548 
L 200.188756 140.938176 
L 200.367672 140.938176 
L 200.438728 139.884804 
L 200.517519 139.884804 
L 200.621491 137.251373 
L 200.637432 137.251373 
L 200.637432 136.724687 
L 200.789727 136.724687 
L 200.789727 136.198001 
L 200.907789 136.198001 
L 200.907789 135.671315 
L 201.121407 135.671315 
L 201.121407 134.617943 
L 201.251102 134.617943 
L 201.347745 131.984513 
L 201.382894 131.984513 
L 201.481847 129.877768 
L 201.498537 129.877768 
L 201.506118 126.190966 
L 201.626973 126.190966 
L 201.654051 123.030849 
L 201.826059 123.030849 
L 201.827547 121.450791 
L 202.005229 121.450791 
L 202.097792 118.290674 
L 202.160689 118.290674 
L 202.160689 117.763988 
L 202.358139 117.763988 
L 202.358139 116.710616 
L 202.650184 116.710616 
L 202.716781 115.657244 
L 202.781717 115.657244 
L 202.877267 113.5505 
L 203.037677 113.5505 
L 203.040454 112.497128 
L 203.822299 112.497128 
L 203.822299 111.970441 
L 204.043887 111.970441 
L 204.072697 110.917069 
L 204.287269 110.917069 
L 204.287269 109.337011 
L 204.524752 109.337011 
L 204.613773 106.176895 
L 204.898122 106.176895 
L 204.898122 104.07015 
L 205.17791 104.07015 
L 205.223291 102.490092 
L 205.38909 102.490092 
L 205.38909 101.963406 
L 205.582151 101.963406 
L 205.631281 100.910034 
L 207.599231 100.910034 
L 207.599231 100.383348 
L 209.301653 100.383348 
L 209.301653 99.856662 
L 210.402418 99.856662 
L 210.402418 98.803289 
L 211.292248 98.803289 
L 211.292248 98.276603 
L 211.843896 98.276603 
L 211.843896 97.223231 
L 212.678353 97.223231 
L 212.711074 96.169859 
L 212.855588 96.169859 
L 212.942355 95.116487 
L 212.995778 95.116487 
L 212.995778 94.063115 
L 213.221015 94.063115 
L 213.221015 93.009743 
L 213.367525 93.009743 
L 213.367525 90.902998 
L 213.568317 90.902998 
L 213.568317 90.376312 
L 213.887236 90.376312 
L 213.971998 88.269568 
L 214.13956 88.269568 
L 214.192373 87.216196 
L 221.244585 87.216196 
L 221.244585 86.162824 
L 221.855035 86.162824 
L 221.95434 83.002707 
L 221.993717 83.002707 
L 221.993717 82.476021 
L 222.20779 82.476021 
L 222.20779 81.949335 
L 223.049314 81.949335 
L 223.049314 80.369277 
L 223.26961 80.369277 
L 223.26961 78.789218 
L 223.561786 78.789218 
L 223.614348 77.735846 
L 223.724936 77.735846 
L 223.815014 74.049044 
L 223.847463 74.049044 
L 223.928532 71.415613 
L 224.016316 71.415613 
L 224.127292 69.308869 
L 224.323403 69.308869 
L 224.424712 68.255497 
L 224.546481 68.255497 
L 224.632021 66.148752 
L 224.791885 66.148752 
L 224.830131 64.568694 
L 224.99963 64.568694 
L 224.99963 62.46195 
L 225.166327 62.46195 
L 225.272183 58.775147 
L 225.329898 58.775147 
L 225.40322 56.668403 
L 225.739228 56.668403 
L 225.778092 55.615031 
L 235.606924 55.615031 
L 235.606924 55.088345 
L 251.205295 55.088345 
L 251.205295 52.9816 
L 251.788136 52.9816 
L 251.788136 52.454914 
L 252.507704 52.454914 
L 252.507704 51.401542 
L 252.97397 51.401542 
L 253.028642 49.821484 
L 253.258654 49.821484 
L 253.258654 46.134681 
L 253.655675 46.134681 
L 253.655675 45.081309 
L 254.035956 45.081309 
L 254.087104 43.501251 
L 264.069203 43.501251 
L 264.069203 42.974565 
L 265.221261 42.974565 
L 265.221261 42.447879 
L 265.641439 42.447879 
L 265.678194 40.867821 
L 266.892955 40.867821 
L 266.892955 38.23439 
L 267.076414 38.23439 
L 267.076414 37.707704 
L 267.204223 37.707704 
L 267.204223 36.654332 
L 267.445075 36.654332 
L 267.474255 34.547588 
L 267.587094 34.547588 
L 267.587094 34.020902 
L 267.762718 34.020902 
L 267.828094 32.440843 
L 267.925701 32.440843 
L 267.925701 30.334099 
L 338.688 30.334099 
L 338.688 30.334099 
" style="fill:none;stroke:#000080;stroke-linecap:square;stroke-width:1.5;"/>
   </g>
   <g id="line2d_44">
    <defs>
     <path d="M 0 6 
C 1.591219 6 3.117479 5.367802 4.242641 4.242641 
C 5.367802 3.117479 6 1.591219 6 0 
C 6 -1.591219 5.367802 -3.117479 4.242641 -4.242641 
C 3.117479 -5.367802 1.591219 -6 0 -6 
C -1.591219 -6 -3.117479 -5.367802 -4.242641 -4.242641 
C -5.367802 -3.117479 -6 -1.591219 -6 0 
C -6 1.591219 -5.367802 3.117479 -4.242641 4.242641 
C -3.117479 5.367802 -1.591219 6 0 6 
z
" id="m36ac1a6a79" style="stroke:#000080;stroke-width:1.5;"/>
    </defs>
    <g>
     <use style="fill-opacity:0;stroke:#000080;stroke-width:1.5;" x="72.376266" xlink:href="#m36ac1a6a79" y="286.303534"/>
     <use style="fill-opacity:0;stroke:#000080;stroke-width:1.5;" x="165.423123" xlink:href="#m36ac1a6a79" y="232.581554"/>
     <use style="fill-opacity:0;stroke:#000080;stroke-width:1.5;" x="204.898122" xlink:href="#m36ac1a6a79" y="106.176895"/>
     <use style="fill-opacity:0;stroke:#000080;stroke-width:1.5;" x="254.059129" xlink:href="#m36ac1a6a79" y="44.554623"/>
     <use style="fill-opacity:0;stroke:#000080;stroke-width:1.5;" x="267.925701" xlink:href="#m36ac1a6a79" y="30.334099"/>
     <use style="fill-opacity:0;stroke:#000080;stroke-width:1.5;" x="338.688" xlink:href="#m36ac1a6a79" y="30.334099"/>
    </g>
   </g>
   <g id="line2d_45">
    <path style="fill:none;stroke:#000080;stroke-linecap:square;stroke-width:1.5;"/>
    <g/>
   </g>
   <g id="line2d_46">
    <defs>
     <path d="M 0 1.5 
C 0.397805 1.5 0.77937 1.341951 1.06066 1.06066 
C 1.341951 0.77937 1.5 0.397805 1.5 0 
C 1.5 -0.397805 1.341951 -0.77937 1.06066 -1.06066 
C 0.77937 -1.341951 0.397805 -1.5 0 -1.5 
C -0.397805 -1.5 -0.77937 -1.341951 -1.06066 -1.06066 
C -1.341951 -0.77937 -1.5 -0.397805 -1.5 0 
C -1.5 0.397805 -1.341951 0.77937 -1.06066 1.06066 
C -0.77937 1.341951 -0.397805 1.5 0 1.5 
z
" id="m367ac77c2c" style="stroke:#ff0000;"/>
    </defs>
    <g>
     <use style="fill:#ff0000;stroke:#ff0000;" x="251.295133" xlink:href="#m367ac77c2c" y="30.334099"/>
     <use style="fill:#ff0000;stroke:#ff0000;" x="251.295133" xlink:href="#m367ac77c2c" y="30.334099"/>
    </g>
   </g>
   <g id="line2d_47">
    <path d="M 38.440992 298.944 
L 38.440992 293.150453 
L 50.52898 293.150453 
L 50.52898 289.990337 
L 57.6 289.990337 
L 57.6 288.936964 
L 62.616969 288.936964 
L 62.616969 288.410278 
L 69.687988 288.410278 
L 69.687988 287.356906 
L 72.376266 287.356906 
L 72.376266 286.83022 
L 74.704957 286.83022 
L 74.704957 285.776848 
L 80.258561 285.776848 
L 80.258561 284.723476 
L 81.775977 284.723476 
L 81.775977 283.670104 
L 83.171864 283.670104 
L 83.171864 283.143418 
L 84.464254 283.143418 
L 84.464254 280.509987 
L 85.66744 280.509987 
L 85.66744 279.983301 
L 87.850195 279.983301 
L 87.850195 278.403243 
L 90.684409 278.403243 
L 90.684409 277.349871 
L 93.863965 277.349871 
L 93.863965 276.823185 
L 94.575872 276.823185 
L 94.575872 276.296499 
L 95.259853 276.296499 
L 95.259853 275.769812 
L 95.918017 275.769812 
L 95.918017 274.71644 
L 98.32726 274.71644 
L 98.32726 274.189754 
L 102.330873 274.189754 
L 102.330873 273.663068 
L 104.033617 273.663068 
L 104.033617 273.136382 
L 107.347841 273.136382 
L 107.347841 272.609696 
L 108.948899 272.609696 
L 108.948899 271.556324 
L 111.239304 271.556324 
L 111.239304 271.029638 
L 113.965867 271.029638 
L 113.965867 270.502952 
L 115.077025 270.502952 
L 115.077025 269.976266 
L 115.502395 269.976266 
L 115.502395 269.449579 
L 121.036887 269.449579 
L 121.036887 268.922893 
L 123.327293 268.922893 
L 123.327293 268.396207 
L 124.368753 268.396207 
L 124.368753 266.816149 
L 124.867052 266.816149 
L 124.867052 266.289463 
L 125.470548 266.289463 
L 125.470548 265.762777 
L 125.588781 265.762777 
L 125.588781 265.236091 
L 126.839037 265.236091 
L 126.839037 264.709405 
L 127.48501 264.709405 
L 127.590383 263.656033 
L 127.695124 263.656033 
L 127.799239 262.075974 
L 128.107907 262.075974 
L 128.107907 261.549288 
L 128.610515 261.549288 
L 128.610515 258.915858 
L 129.002426 258.915858 
L 129.002426 258.389172 
L 129.290685 258.389172 
L 129.290685 257.862486 
L 131.099484 257.862486 
L 131.099484 254.702369 
L 131.439773 254.702369 
L 131.439773 254.175683 
L 132.019755 254.175683 
L 132.019755 253.648997 
L 133.946579 253.648997 
L 133.946579 253.122311 
L 134.591225 253.122311 
L 134.661403 250.488881 
L 134.939326 250.488881 
L 135.00812 248.908822 
L 135.144899 248.908822 
L 135.144899 245.748706 
L 135.548916 245.748706 
L 135.548916 243.641962 
L 136.008736 243.641962 
L 136.008736 243.115275 
L 136.582658 243.115275 
L 136.582658 242.588589 
L 136.707671 242.588589 
L 136.707671 241.535217 
L 137.077422 241.535217 
L 137.077422 240.481845 
L 148.449693 240.481845 
L 148.449693 239.955159 
L 150.738632 239.955159 
L 150.738632 239.428473 
L 152.562109 239.428473 
L 152.562109 238.901787 
L 152.687123 238.901787 
L 152.687123 237.848415 
L 155.741666 237.848415 
L 155.741666 237.321729 
L 156.031982 237.321729 
L 156.031982 236.795043 
L 156.317544 236.795043 
L 156.317544 236.268356 
L 156.757045 236.268356 
L 156.757045 235.74167 
L 156.914157 235.74167 
L 157.011638 232.054868 
L 157.1279 232.054868 
L 157.224197 227.841379 
L 157.300853 227.841379 
L 157.396202 223.627891 
L 157.453162 223.627891 
L 157.547684 221.521146 
L 157.604152 221.521146 
L 157.604152 220.99446 
L 158.447857 220.99446 
L 158.447857 220.467774 
L 159.337899 220.467774 
L 159.337899 219.941088 
L 160.313893 219.941088 
L 160.313893 219.414402 
L 165.98992 219.414402 
L 165.98992 218.36103 
L 166.673454 218.36103 
L 166.740356 216.780971 
L 166.784816 216.780971 
L 166.884438 210.987425 
L 166.928532 210.987425 
L 166.983494 209.934052 
L 167.071073 209.934052 
L 167.179933 204.140506 
L 167.309674 204.140506 
L 167.309674 203.613819 
L 168.736192 203.613819 
L 168.736192 203.087133 
L 169.254471 203.087133 
L 169.264103 202.033761 
L 171.340609 202.033761 
L 171.340609 200.453703 
L 172.569992 200.453703 
L 172.60183 198.873645 
L 173.417442 198.873645 
L 173.417442 197.820273 
L 173.666095 197.820273 
L 173.763084 195.186842 
L 173.792818 195.186842 
L 173.903873 189.919981 
L 173.925999 189.919981 
L 174.00689 186.759865 
L 177.606866 186.759865 
L 177.606866 186.233179 
L 178.508246 186.233179 
L 178.508246 185.179807 
L 181.841098 185.179807 
L 181.901854 180.966318 
L 182.013465 180.966318 
L 182.050511 175.699457 
L 182.151983 175.699457 
L 182.26201 172.012655 
L 182.271148 172.012655 
L 182.271148 170.432596 
L 182.443861 170.432596 
L 182.443861 169.90591 
L 182.601439 169.90591 
L 182.673003 166.745794 
L 182.810829 166.745794 
L 182.88154 160.952247 
L 183.00022 160.952247 
L 183.052709 155.685386 
L 184.965949 155.685386 
L 184.965949 154.105328 
L 185.596261 154.105328 
L 185.667834 149.891839 
L 185.750342 149.891839 
L 185.839908 144.098292 
L 185.88452 144.098292 
L 185.895655 142.518234 
L 186.010302 142.518234 
L 186.10588 141.464862 
L 188.728569 141.464862 
L 188.728569 139.358118 
L 192.03436 139.358118 
L 192.03436 138.831432 
L 192.637057 138.831432 
L 192.637057 138.304745 
L 193.129177 138.304745 
L 193.129177 136.198001 
L 193.36529 136.198001 
L 193.36529 135.671315 
L 193.519344 135.671315 
L 193.519344 135.144629 
L 193.726603 135.144629 
L 193.740806 133.037885 
L 193.839906 133.037885 
L 193.893938 128.29771 
L 194.045737 128.29771 
L 194.066652 126.190966 
L 194.375116 126.190966 
L 194.375116 125.66428 
L 194.872226 125.66428 
L 194.892173 124.610907 
L 194.989365 124.610907 
L 195.022375 118.817361 
L 195.199559 118.817361 
L 195.269064 112.497128 
L 195.321012 112.497128 
L 195.364183 111.443755 
L 195.650711 111.443755 
L 195.650711 110.390383 
L 196.156535 110.390383 
L 196.162715 108.283639 
L 196.300154 108.283639 
L 196.389827 101.963406 
L 196.46083 101.963406 
L 196.46083 101.43672 
L 200.784988 101.43672 
L 200.784988 100.910034 
L 202.623189 100.910034 
L 202.623189 100.383348 
L 202.860443 100.383348 
L 202.860443 99.329976 
L 203.023787 99.329976 
L 203.023787 98.276603 
L 203.230989 98.276603 
L 203.230989 97.749917 
L 203.52645 97.749917 
L 203.52645 96.696545 
L 203.884575 96.696545 
L 203.991383 94.589801 
L 204.080546 94.589801 
L 204.131479 92.483056 
L 204.205653 92.483056 
L 204.235494 87.216196 
L 204.417322 87.216196 
L 204.509445 81.949335 
L 204.5324 81.949335 
L 204.617578 80.369277 
L 204.747718 80.369277 
L 204.747718 78.262532 
L 204.870645 78.262532 
L 204.979053 74.57573 
L 204.985263 74.57573 
L 205.062083 71.415613 
L 205.176681 71.415613 
L 205.176681 70.888927 
L 205.333187 70.888927 
L 205.333187 69.835555 
L 205.714843 69.835555 
L 205.719606 66.148752 
L 205.891388 66.148752 
L 205.903173 61.935264 
L 206.084827 61.935264 
L 206.132563 56.141717 
L 206.285368 56.141717 
L 206.285368 55.615031 
L 207.219949 55.615031 
L 207.299513 52.9816 
L 207.349464 52.9816 
L 207.416563 50.34817 
L 207.494162 50.34817 
L 207.589608 44.554623 
L 214.495142 44.554623 
L 214.495142 42.974565 
L 249.175213 42.974565 
L 249.175213 42.447879 
L 249.344646 42.447879 
L 249.344646 41.921193 
L 250.534166 41.921193 
L 250.534166 41.394507 
L 250.687069 41.394507 
L 250.687069 39.814448 
L 251.001251 39.814448 
L 251.095321 38.23439 
L 251.131645 38.23439 
L 251.224403 32.967529 
L 251.284397 32.967529 
L 251.295133 30.334099 
L 338.688 30.334099 
L 338.688 30.334099 
" style="fill:none;stroke:#ff0000;stroke-linecap:square;stroke-width:1.5;"/>
   </g>
   <g id="line2d_48">
    <defs>
     <path d="M 0 -6 
L -5.196152 -3 
L -5.196152 3 
L -0 6 
L 5.196152 3 
L 5.196152 -3 
z
" id="m5f919ebf84" style="stroke:#ff0000;stroke-linejoin:miter;stroke-width:1.5;"/>
    </defs>
    <g>
     <use style="fill-opacity:0;stroke:#ff0000;stroke-linejoin:miter;stroke-width:1.5;" x="135.00812" xlink:href="#m5f919ebf84" y="248.908822"/>
     <use style="fill-opacity:0;stroke:#ff0000;stroke-linejoin:miter;stroke-width:1.5;" x="185.772777" xlink:href="#m5f919ebf84" y="147.258409"/>
     <use style="fill-opacity:0;stroke:#ff0000;stroke-linejoin:miter;stroke-width:1.5;" x="214.495142" xlink:href="#m5f919ebf84" y="44.554623"/>
     <use style="fill-opacity:0;stroke:#ff0000;stroke-linejoin:miter;stroke-width:1.5;" x="251.295133" xlink:href="#m5f919ebf84" y="30.334099"/>
     <use style="fill-opacity:0;stroke:#ff0000;stroke-linejoin:miter;stroke-width:1.5;" x="251.295133" xlink:href="#m5f919ebf84" y="30.334099"/>
     <use style="fill-opacity:0;stroke:#ff0000;stroke-linejoin:miter;stroke-width:1.5;" x="338.688" xlink:href="#m5f919ebf84" y="30.334099"/>
    </g>
   </g>
   <g id="line2d_49">
    <path style="fill:none;stroke:#ff0000;stroke-linecap:square;stroke-width:1.5;"/>
    <g/>
   </g>
   <g id="line2d_50">
    <defs>
     <path d="M 0 1.5 
C 0.397805 1.5 0.77937 1.341951 1.06066 1.06066 
C 1.341951 0.77937 1.5 0.397805 1.5 0 
C 1.5 -0.397805 1.341951 -0.77937 1.06066 -1.06066 
C 0.77937 -1.341951 0.397805 -1.5 0 -1.5 
C -0.397805 -1.5 -0.77937 -1.341951 -1.06066 -1.06066 
C -1.341951 -0.77937 -1.5 -0.397805 -1.5 0 
C -1.5 0.397805 -1.341951 0.77937 -1.06066 1.06066 
C -0.77937 1.341951 -0.397805 1.5 0 1.5 
z
" id="me9d7fd324c" style="stroke:#bebebe;"/>
    </defs>
    <g>
     <use style="fill:#bebebe;stroke:#bebebe;" x="360.054308" xlink:href="#me9d7fd324c" y="214.674227"/>
     <use style="fill:#bebebe;stroke:#bebebe;" x="360.054308" xlink:href="#me9d7fd324c" y="214.674227"/>
    </g>
   </g>
   <g id="line2d_51">
    <path d="M 38.440992 298.944 
L 38.440992 294.730511 
L 50.52898 294.730511 
L 50.52898 292.623767 
L 62.616969 292.623767 
L 62.616969 290.517023 
L 69.687988 290.517023 
L 69.687988 287.883592 
L 80.258561 287.883592 
L 80.258561 286.83022 
L 81.775977 286.83022 
L 81.775977 286.303534 
L 90.684409 286.303534 
L 90.684409 285.776848 
L 92.34655 285.776848 
L 92.34655 285.250162 
L 97.755429 285.250162 
L 97.755429 284.723476 
L 98.880934 284.723476 
L 98.880934 284.19679 
L 103.203018 284.19679 
L 103.203018 283.670104 
L 107.680028 283.670104 
L 107.680028 282.616732 
L 110.694282 282.616732 
L 110.694282 282.090045 
L 114.641021 282.090045 
L 114.641021 281.036673 
L 118.399528 281.036673 
L 118.399528 280.509987 
L 122.219665 280.509987 
L 122.219665 279.983301 
L 122.782271 279.983301 
L 122.782271 279.456615 
L 125.351508 279.456615 
L 125.351508 278.929929 
L 128.411207 278.929929 
L 128.411207 277.876557 
L 131.856005 277.876557 
L 131.856005 277.349871 
L 132.816208 277.349871 
L 132.816208 276.823185 
L 133.946579 276.823185 
L 133.946579 276.296499 
L 134.661403 276.296499 
L 134.661403 275.769812 
L 137.259399 275.769812 
L 137.259399 275.243126 
L 148.76449 275.243126 
L 148.76449 274.189754 
L 153.959927 274.189754 
L 153.959927 273.663068 
L 156.154939 273.663068 
L 156.154939 273.136382 
L 163.061823 273.136382 
L 163.061823 272.609696 
L 166.895472 272.609696 
L 166.895472 272.08301 
L 169.925477 272.08301 
L 169.925477 271.029638 
L 174.398638 271.029638 
L 174.398638 270.502952 
L 176.370396 270.502952 
L 176.370396 269.976266 
L 178.999998 269.976266 
L 178.999998 268.922893 
L 182.466459 268.922893 
L 182.466459 268.396207 
L 183.196243 268.396207 
L 183.196243 267.869521 
L 184.34853 267.869521 
L 184.34853 267.342835 
L 194.020141 267.342835 
L 194.020141 266.816149 
L 194.193921 266.816149 
L 194.193921 266.289463 
L 195.295057 266.289463 
L 195.295057 265.762777 
L 199.067937 265.762777 
L 199.067937 265.236091 
L 202.569074 265.236091 
L 202.569074 264.709405 
L 202.833772 264.709405 
L 202.833772 263.129347 
L 204.775389 263.129347 
L 204.775389 262.60266 
L 206.875741 262.60266 
L 206.875741 262.075974 
L 210.424249 262.075974 
L 210.424249 261.549288 
L 211.243746 261.549288 
L 211.243746 260.495916 
L 212.536383 260.495916 
L 212.536383 259.96923 
L 214.446127 259.96923 
L 214.446127 259.442544 
L 221.757535 259.442544 
L 221.757535 258.389172 
L 222.933456 258.389172 
L 222.933456 257.862486 
L 224.063785 257.862486 
L 224.063785 257.3358 
L 227.328174 257.3358 
L 227.328174 256.282427 
L 233.574793 256.282427 
L 233.574793 255.755741 
L 236.59215 255.755741 
L 236.59215 255.229055 
L 245.535416 255.229055 
L 245.535416 252.068939 
L 245.743219 252.068939 
L 245.743219 251.542253 
L 254.91779 251.542253 
L 254.91779 251.015567 
L 256.671512 251.015567 
L 256.671512 250.488881 
L 259.530094 250.488881 
L 259.530094 249.962195 
L 260.15495 249.962195 
L 260.15495 249.435508 
L 261.712807 249.435508 
L 261.712807 248.908822 
L 267.814903 248.908822 
L 267.814903 248.382136 
L 268.237229 248.382136 
L 268.237229 247.85545 
L 268.541084 247.85545 
L 268.541084 247.328764 
L 269.037692 247.328764 
L 269.037692 246.275392 
L 270.459957 246.275392 
L 270.459957 245.748706 
L 270.973277 245.748706 
L 270.973277 245.22202 
L 273.250746 245.22202 
L 273.250746 244.695334 
L 274.027132 244.695334 
L 274.027132 244.168648 
L 274.518906 244.168648 
L 274.518906 243.641962 
L 282.42211 243.641962 
L 282.42211 242.061903 
L 283.232084 242.061903 
L 283.232084 241.008531 
L 285.873942 241.008531 
L 285.873942 240.481845 
L 289.903296 240.481845 
L 289.903296 239.955159 
L 290.487688 239.955159 
L 290.487688 239.428473 
L 296.103848 239.428473 
L 296.103848 238.901787 
L 298.325017 238.901787 
L 298.325017 238.375101 
L 299.348274 238.375101 
L 299.348274 236.268356 
L 299.907095 236.268356 
L 299.907095 235.214984 
L 304.363074 235.214984 
L 304.363074 233.634926 
L 307.057959 233.634926 
L 307.057959 233.10824 
L 309.448444 233.10824 
L 309.448444 232.581554 
L 310.517092 232.581554 
L 310.517092 231.528182 
L 312.157655 231.528182 
L 312.157655 231.001496 
L 316.918987 231.001496 
L 316.918987 229.948123 
L 319.858973 229.948123 
L 319.858973 228.894751 
L 322.737745 228.894751 
L 322.737745 228.368065 
L 322.916079 228.368065 
L 322.916079 227.314693 
L 324.35882 227.314693 
L 324.35882 226.261321 
L 326.766233 226.261321 
L 326.766233 225.734635 
L 329.918196 225.734635 
L 330.016311 224.154577 
L 330.896914 224.154577 
L 330.896914 223.627891 
L 333.429887 223.627891 
L 333.429887 222.574518 
L 334.900611 222.574518 
L 334.900611 222.047832 
L 335.641186 222.047832 
L 335.641186 221.521146 
L 336.943129 221.521146 
L 336.943129 220.99446 
L 337.603383 220.99446 
L 337.603383 220.467774 
L 338.688 220.467774 
L 338.688 220.467774 
" style="fill:none;stroke:#bebebe;stroke-linecap:square;stroke-width:1.5;"/>
   </g>
   <g id="line2d_52">
    <defs>
     <path d="M 0 0 
L -6 -0 
M 0 0 
L 3 4.8 
M 0 0 
L 3 -4.8 
" id="mcd560124d4" style="stroke:#bebebe;stroke-width:1.5;"/>
    </defs>
    <g>
     <use style="fill-opacity:0;stroke:#bebebe;stroke-width:1.5;" x="92.34655" xlink:href="#mcd560124d4" y="285.250162"/>
     <use style="fill-opacity:0;stroke:#bebebe;stroke-width:1.5;" x="169.925477" xlink:href="#mcd560124d4" y="271.029638"/>
     <use style="fill-opacity:0;stroke:#bebebe;stroke-width:1.5;" x="227.328174" xlink:href="#mcd560124d4" y="256.282427"/>
     <use style="fill-opacity:0;stroke:#bebebe;stroke-width:1.5;" x="290.487688" xlink:href="#mcd560124d4" y="239.428473"/>
     <use style="fill-opacity:0;stroke:#bebebe;stroke-width:1.5;" x="337.603383" xlink:href="#mcd560124d4" y="220.467774"/>
     <use style="fill-opacity:0;stroke:#bebebe;stroke-width:1.5;" x="338.688" xlink:href="#mcd560124d4" y="220.467774"/>
    </g>
   </g>
   <g id="line2d_53">
    <path style="fill:none;stroke:#bebebe;stroke-linecap:square;stroke-width:1.5;"/>
    <g/>
   </g>
   <g id="line2d_54">
    <path clip-path="url(#p0d48bd3a75)" d="M 298.532571 238.375101 
" style="fill:none;stroke:#bebebe;stroke-linecap:square;stroke-width:1.5;"/>
    <defs>
     <path d="M -12 12 
L 12 -12 
M -12 -12 
L 12 12 
" id="md9f64cc259" style="stroke:#bebebe;"/>
    </defs>
    <g clip-path="url(#p0d48bd3a75)">
     <use style="fill:#bebebe;stroke:#bebebe;" x="298.532571" xlink:href="#md9f64cc259" y="238.375101"/>
    </g>
   </g>
   <g id="line2d_55">
    <defs>
     <path d="M 0 1.5 
C 0.397805 1.5 0.77937 1.341951 1.06066 1.06066 
C 1.341951 0.77937 1.5 0.397805 1.5 0 
C 1.5 -0.397805 1.341951 -0.77937 1.06066 -1.06066 
C 0.77937 -1.341951 0.397805 -1.5 0 -1.5 
C -0.397805 -1.5 -0.77937 -1.341951 -1.06066 -1.06066 
C -1.341951 -0.77937 -1.5 -0.397805 -1.5 0 
C -1.5 0.397805 -1.341951 0.77937 -1.06066 1.06066 
C -0.77937 1.341951 -0.397805 1.5 0 1.5 
z
" id="me0290a2ea9" style="stroke:#6495ed;"/>
    </defs>
    <g>
     <use style="fill:#6495ed;stroke:#6495ed;" x="250.895336" xlink:href="#me0290a2ea9" y="30.334099"/>
     <use style="fill:#6495ed;stroke:#6495ed;" x="250.895336" xlink:href="#me0290a2ea9" y="30.334099"/>
    </g>
   </g>
   <g id="line2d_56">
    <path d="M 38.440992 298.944 
L 38.440992 291.570395 
L 76.759008 291.570395 
L 76.759008 289.990337 
L 80.258561 289.990337 
L 80.258561 288.936964 
L 84.464254 288.936964 
L 84.464254 288.410278 
L 87.850195 288.410278 
L 87.850195 287.883592 
L 89.78989 287.883592 
L 89.78989 286.83022 
L 90.684409 286.83022 
L 90.684409 285.250162 
L 92.34655 285.250162 
L 92.34655 284.723476 
L 94.575872 284.723476 
L 94.575872 283.670104 
L 97.755429 283.670104 
L 97.755429 283.143418 
L 99.41757 283.143418 
L 99.41757 282.616732 
L 101.412804 282.616732 
L 101.412804 282.090045 
L 103.623262 282.090045 
L 103.623262 280.509987 
L 104.033617 280.509987 
L 104.033617 279.983301 
L 105.209745 279.983301 
L 105.209745 278.929929 
L 105.951954 278.929929 
L 105.951954 278.403243 
L 106.66386 278.403243 
L 106.66386 277.876557 
L 107.009204 277.876557 
L 107.009204 277.349871 
L 108.640231 277.349871 
L 108.640231 276.823185 
L 110.694282 276.823185 
L 110.694282 276.296499 
L 113.022974 276.296499 
L 113.022974 275.769812 
L 114.418861 275.769812 
L 114.418861 275.243126 
L 115.917635 275.243126 
L 115.917635 274.71644 
L 116.121606 274.71644 
L 116.121606 273.663068 
L 116.914437 273.663068 
L 116.914437 273.136382 
L 118.039942 273.136382 
L 118.039942 272.609696 
L 121.340187 272.609696 
L 121.340187 272.08301 
L 122.920132 272.08301 
L 122.920132 271.556324 
L 126.839037 271.556324 
L 126.839037 271.029638 
L 133.72629 271.029638 
L 133.72629 270.502952 
L 136.008736 270.502952 
L 136.008736 269.976266 
L 137.910857 269.976266 
L 137.910857 269.449579 
L 140.093612 269.449579 
L 140.093612 268.922893 
L 141.987354 268.922893 
L 141.987354 268.396207 
L 142.215919 268.396207 
L 142.215919 267.869521 
L 143.737119 267.869521 
L 143.737119 267.342835 
L 146.179895 267.342835 
L 146.179895 266.816149 
L 148.031773 266.816149 
L 148.031773 266.289463 
L 151.205907 266.289463 
L 151.205907 265.762777 
L 151.394733 265.762777 
L 151.394733 265.236091 
L 151.554972 265.236091 
L 151.554972 264.709405 
L 153.561699 264.709405 
L 153.561699 264.182719 
L 155.0376 264.182719 
L 155.059358 263.129347 
L 157.883783 263.129347 
L 157.883783 262.60266 
L 158.924708 262.60266 
L 158.924708 262.075974 
L 160.883648 262.075974 
L 160.883648 261.549288 
L 161.023225 261.549288 
L 161.023225 261.022602 
L 162.517456 261.022602 
L 162.517456 260.495916 
L 167.08199 260.495916 
L 167.136471 259.442544 
L 167.352708 259.442544 
L 167.352708 258.915858 
L 167.975417 258.915858 
L 168.078792 256.282427 
L 168.51645 256.282427 
L 168.51645 255.755741 
L 170.72284 255.755741 
L 170.72284 255.229055 
L 171.306381 255.229055 
L 171.306381 254.175683 
L 171.527673 254.175683 
L 171.527673 253.122311 
L 172.377733 253.122311 
L 172.474127 252.068939 
L 172.554051 252.068939 
L 172.554051 251.542253 
L 179.954198 251.542253 
L 179.980262 250.488881 
L 181.138942 250.488881 
L 181.138942 249.962195 
L 185.191477 249.962195 
L 185.191477 249.435508 
L 185.486448 249.435508 
L 185.486448 248.908822 
L 185.977095 248.908822 
L 185.977095 248.382136 
L 186.999115 248.382136 
L 187.110216 242.061903 
L 187.127512 242.061903 
L 187.224052 238.375101 
L 187.248104 238.375101 
L 187.343981 236.795043 
L 187.415544 236.795043 
L 187.483428 234.161612 
L 187.858769 234.161612 
L 187.858769 233.634926 
L 188.844884 233.634926 
L 188.844884 233.10824 
L 193.792786 233.10824 
L 193.792786 232.581554 
L 193.924404 232.581554 
L 193.971171 231.528182 
L 195.057517 231.528182 
L 195.162521 223.627891 
L 195.175602 223.627891 
L 195.210437 217.834344 
L 203.972969 217.834344 
L 204.056989 200.453703 
L 206.53824 200.453703 
L 206.58022 187.286551 
L 206.733662 187.286551 
L 206.822178 177.806202 
L 206.845632 177.806202 
L 206.869055 170.959282 
L 209.31522 170.959282 
L 209.396405 154.632014 
L 210.479614 154.632014 
L 210.56639 139.358118 
L 214.014964 139.358118 
L 214.048228 127.244338 
L 214.678444 127.244338 
L 214.7126 115.657244 
L 223.342572 115.657244 
L 223.360332 102.490092 
L 226.197035 102.490092 
L 226.224243 87.216196 
L 230.298945 87.216196 
L 230.312028 74.57573 
L 231.883366 74.57573 
L 231.926072 71.415613 
L 232.654046 71.415613 
L 232.674616 67.728811 
L 233.959771 67.728811 
L 233.959771 66.675439 
L 234.439494 66.675439 
L 234.504285 62.988636 
L 235.036744 62.988636 
L 235.05336 58.248461 
L 235.311405 58.248461 
L 235.320785 57.195089 
L 236.23019 57.195089 
L 236.238881 52.454914 
L 236.420812 52.454914 
L 236.430637 49.821484 
L 239.375768 49.821484 
L 239.385789 46.134681 
L 240.571418 46.134681 
L 240.58529 39.287762 
L 242.492188 39.287762 
L 242.49609 37.707704 
L 243.705354 37.707704 
L 243.710477 36.654332 
L 244.409838 36.654332 
L 244.411133 35.60096 
L 244.673421 35.60096 
L 244.673421 35.074274 
L 245.008816 35.074274 
L 245.008816 34.547588 
L 245.691921 34.547588 
L 245.691921 34.020902 
L 247.58851 34.020902 
L 247.590345 32.967529 
L 248.342999 32.967529 
L 248.342999 32.440843 
L 249.597671 32.440843 
L 249.601902 31.387471 
L 250.414817 31.387471 
L 250.414817 30.860785 
L 250.895336 30.860785 
L 250.895336 30.334099 
L 338.688 30.334099 
L 338.688 30.334099 
" style="fill:none;stroke:#6495ed;stroke-linecap:square;stroke-width:1.5;"/>
   </g>
   <g id="line2d_57">
    <defs>
     <path d="M -0 6 
L 6 -6 
L -6 -6 
z
" id="m1c81356a27" style="stroke:#6495ed;stroke-linejoin:miter;stroke-width:1.5;"/>
    </defs>
    <g>
     <use style="fill-opacity:0;stroke:#6495ed;stroke-linejoin:miter;stroke-width:1.5;" x="99.41757" xlink:href="#m1c81356a27" y="283.143418"/>
     <use style="fill-opacity:0;stroke:#6495ed;stroke-linejoin:miter;stroke-width:1.5;" x="185.977095" xlink:href="#m1c81356a27" y="248.382136"/>
     <use style="fill-opacity:0;stroke:#6495ed;stroke-linejoin:miter;stroke-width:1.5;" x="214.048228" xlink:href="#m1c81356a27" y="127.244338"/>
     <use style="fill-opacity:0;stroke:#6495ed;stroke-linejoin:miter;stroke-width:1.5;" x="243.710477" xlink:href="#m1c81356a27" y="37.181018"/>
     <use style="fill-opacity:0;stroke:#6495ed;stroke-linejoin:miter;stroke-width:1.5;" x="250.895336" xlink:href="#m1c81356a27" y="30.334099"/>
     <use style="fill-opacity:0;stroke:#6495ed;stroke-linejoin:miter;stroke-width:1.5;" x="338.688" xlink:href="#m1c81356a27" y="30.334099"/>
    </g>
   </g>
   <g id="line2d_58">
    <path style="fill:none;stroke:#6495ed;stroke-linecap:square;stroke-width:1.5;"/>
    <g/>
   </g>
   <g id="line2d_59">
    <path clip-path="url(#p0d48bd3a75)" d="M 230.505949 74.57573 
" style="fill:none;stroke:#6495ed;stroke-linecap:square;stroke-width:1.5;"/>
    <defs>
     <path d="M -12 12 
L 12 -12 
M -12 -12 
L 12 12 
" id="m6d83c0c8af" style="stroke:#6495ed;"/>
    </defs>
    <g clip-path="url(#p0d48bd3a75)">
     <use style="fill:#6495ed;stroke:#6495ed;" x="230.505949" xlink:href="#m6d83c0c8af" y="74.57573"/>
    </g>
   </g>
   <g id="line2d_60">
    <path d="M 338.688 220.467774 
L 369.60768 293.571802 
" style="fill:none;stroke:#bebebe;stroke-linecap:square;stroke-width:1.5;"/>
    <g>
     <use style="fill-opacity:0;stroke:#bebebe;stroke-width:1.5;" x="338.688" xlink:href="#mcd560124d4" y="220.467774"/>
     <use style="fill-opacity:0;stroke:#bebebe;stroke-width:1.5;" x="369.60768" xlink:href="#mcd560124d4" y="293.571802"/>
    </g>
   </g>
   <g id="line2d_61">
    <path d="M 338.688 30.334099 
L 369.60768 229.105426 
" style="fill:none;stroke:#000080;stroke-linecap:square;stroke-width:1.5;"/>
    <g>
     <use style="fill-opacity:0;stroke:#000080;stroke-width:1.5;" x="338.688" xlink:href="#m36ac1a6a79" y="30.334099"/>
     <use style="fill-opacity:0;stroke:#000080;stroke-width:1.5;" x="369.60768" xlink:href="#m36ac1a6a79" y="229.105426"/>
    </g>
   </g>
   <g id="line2d_62">
    <path d="M 338.688 30.334099 
L 369.60768 164.63905 
" style="fill:none;stroke:#ff0000;stroke-linecap:square;stroke-width:1.5;"/>
    <g>
     <use style="fill-opacity:0;stroke:#ff0000;stroke-linejoin:miter;stroke-width:1.5;" x="338.688" xlink:href="#m5f919ebf84" y="30.334099"/>
     <use style="fill-opacity:0;stroke:#ff0000;stroke-linejoin:miter;stroke-width:1.5;" x="369.60768" xlink:href="#m5f919ebf84" y="164.63905"/>
    </g>
   </g>
   <g id="line2d_63">
    <path d="M 338.688 30.334099 
L 369.60768 100.172673 
" style="fill:none;stroke:#6495ed;stroke-linecap:square;stroke-width:1.5;"/>
    <g>
     <use style="fill-opacity:0;stroke:#6495ed;stroke-linejoin:miter;stroke-width:1.5;" x="338.688" xlink:href="#m1c81356a27" y="30.334099"/>
     <use style="fill-opacity:0;stroke:#6495ed;stroke-linejoin:miter;stroke-width:1.5;" x="369.60768" xlink:href="#m1c81356a27" y="100.172673"/>
    </g>
   </g>
   <g id="line2d_64">
    <path d="M 338.688 298.944 
L 338.688 30.334099 
" style="fill:none;stroke:#000000;stroke-linecap:square;stroke-width:1.5;"/>
   </g>
   <g id="patch_3">
    <path d="M 57.6 298.944 
L 57.6 27.648 
" style="fill:none;stroke:#000000;stroke-linecap:square;stroke-linejoin:miter;stroke-width:0.8;"/>
   </g>
   <g id="patch_4">
    <path d="M 338.688 298.944 
L 338.688 27.648 
" style="fill:none;stroke:#000000;stroke-linecap:square;stroke-linejoin:miter;stroke-width:0.8;"/>
   </g>
   <g id="patch_5">
    <path d="M 57.6 298.944 
L 338.688 298.944 
" style="fill:none;stroke:#000000;stroke-linecap:square;stroke-linejoin:miter;stroke-width:0.8;"/>
   </g>
   <g id="patch_6">
    <path d="M 57.6 27.648 
L 338.688 27.648 
" style="fill:none;stroke:#000000;stroke-linecap:square;stroke-linejoin:miter;stroke-width:0.8;"/>
   </g>
   <g id="text_13">
    <!-- RANDOMSEA -->
    <defs>
     <path d="M 44.390625 34.1875 
Q 47.5625 33.109375 50.5625 29.59375 
Q 53.5625 26.078125 56.59375 19.921875 
L 66.609375 0 
L 56 0 
L 46.6875 18.703125 
Q 43.0625 26.03125 39.671875 28.421875 
Q 36.28125 30.8125 30.421875 30.8125 
L 19.671875 30.8125 
L 19.671875 0 
L 9.8125 0 
L 9.8125 72.90625 
L 32.078125 72.90625 
Q 44.578125 72.90625 50.734375 67.671875 
Q 56.890625 62.453125 56.890625 51.90625 
Q 56.890625 45.015625 53.6875 40.46875 
Q 50.484375 35.9375 44.390625 34.1875 
z
M 19.671875 64.796875 
L 19.671875 38.921875 
L 32.078125 38.921875 
Q 39.203125 38.921875 42.84375 42.21875 
Q 46.484375 45.515625 46.484375 51.90625 
Q 46.484375 58.296875 42.84375 61.546875 
Q 39.203125 64.796875 32.078125 64.796875 
z
" id="DejaVuSans-82"/>
     <path d="M 34.1875 63.1875 
L 20.796875 26.90625 
L 47.609375 26.90625 
z
M 28.609375 72.90625 
L 39.796875 72.90625 
L 67.578125 0 
L 57.328125 0 
L 50.6875 18.703125 
L 17.828125 18.703125 
L 11.1875 0 
L 0.78125 0 
z
" id="DejaVuSans-65"/>
     <path d="M 9.8125 72.90625 
L 23.09375 72.90625 
L 55.421875 11.921875 
L 55.421875 72.90625 
L 64.984375 72.90625 
L 64.984375 0 
L 51.703125 0 
L 19.390625 60.984375 
L 19.390625 0 
L 9.8125 0 
z
" id="DejaVuSans-78"/>
     <path d="M 19.671875 64.796875 
L 19.671875 8.109375 
L 31.59375 8.109375 
Q 46.6875 8.109375 53.6875 14.9375 
Q 60.6875 21.78125 60.6875 36.53125 
Q 60.6875 51.171875 53.6875 57.984375 
Q 46.6875 64.796875 31.59375 64.796875 
z
M 9.8125 72.90625 
L 30.078125 72.90625 
Q 51.265625 72.90625 61.171875 64.09375 
Q 71.09375 55.28125 71.09375 36.53125 
Q 71.09375 17.671875 61.125 8.828125 
Q 51.171875 0 30.078125 0 
L 9.8125 0 
z
" id="DejaVuSans-68"/>
     <path d="M 39.40625 66.21875 
Q 28.65625 66.21875 22.328125 58.203125 
Q 16.015625 50.203125 16.015625 36.375 
Q 16.015625 22.609375 22.328125 14.59375 
Q 28.65625 6.59375 39.40625 6.59375 
Q 50.140625 6.59375 56.421875 14.59375 
Q 62.703125 22.609375 62.703125 36.375 
Q 62.703125 50.203125 56.421875 58.203125 
Q 50.140625 66.21875 39.40625 66.21875 
z
M 39.40625 74.21875 
Q 54.734375 74.21875 63.90625 63.9375 
Q 73.09375 53.65625 73.09375 36.375 
Q 73.09375 19.140625 63.90625 8.859375 
Q 54.734375 -1.421875 39.40625 -1.421875 
Q 24.03125 -1.421875 14.8125 8.828125 
Q 5.609375 19.09375 5.609375 36.375 
Q 5.609375 53.65625 14.8125 63.9375 
Q 24.03125 74.21875 39.40625 74.21875 
z
" id="DejaVuSans-79"/>
     <path d="M 9.8125 72.90625 
L 24.515625 72.90625 
L 43.109375 23.296875 
L 61.8125 72.90625 
L 76.515625 72.90625 
L 76.515625 0 
L 66.890625 0 
L 66.890625 64.015625 
L 48.09375 14.015625 
L 38.1875 14.015625 
L 19.390625 64.015625 
L 19.390625 0 
L 9.8125 0 
z
" id="DejaVuSans-77"/>
     <path d="M 53.515625 70.515625 
L 53.515625 60.890625 
Q 47.90625 63.578125 42.921875 64.890625 
Q 37.9375 66.21875 33.296875 66.21875 
Q 25.25 66.21875 20.875 63.09375 
Q 16.5 59.96875 16.5 54.203125 
Q 16.5 49.359375 19.40625 46.890625 
Q 22.3125 44.4375 30.421875 42.921875 
L 36.375 41.703125 
Q 47.40625 39.59375 52.65625 34.296875 
Q 57.90625 29 57.90625 20.125 
Q 57.90625 9.515625 50.796875 4.046875 
Q 43.703125 -1.421875 29.984375 -1.421875 
Q 24.8125 -1.421875 18.96875 -0.25 
Q 13.140625 0.921875 6.890625 3.21875 
L 6.890625 13.375 
Q 12.890625 10.015625 18.65625 8.296875 
Q 24.421875 6.59375 29.984375 6.59375 
Q 38.421875 6.59375 43.015625 9.90625 
Q 47.609375 13.234375 47.609375 19.390625 
Q 47.609375 24.75 44.3125 27.78125 
Q 41.015625 30.8125 33.5 32.328125 
L 27.484375 33.5 
Q 16.453125 35.6875 11.515625 40.375 
Q 6.59375 45.0625 6.59375 53.421875 
Q 6.59375 63.09375 13.40625 68.65625 
Q 20.21875 74.21875 32.171875 74.21875 
Q 37.3125 74.21875 42.625 73.28125 
Q 47.953125 72.359375 53.515625 70.515625 
z
" id="DejaVuSans-83"/>
     <path d="M 9.8125 72.90625 
L 55.90625 72.90625 
L 55.90625 64.59375 
L 19.671875 64.59375 
L 19.671875 43.015625 
L 54.390625 43.015625 
L 54.390625 34.71875 
L 19.671875 34.71875 
L 19.671875 8.296875 
L 56.78125 8.296875 
L 56.78125 0 
L 9.8125 0 
z
" id="DejaVuSans-69"/>
    </defs>
    <g transform="translate(375.22944 298.262739)scale(0.17 -0.17)">
     <use xlink:href="#DejaVuSans-82"/>
     <use x="69.419922" xlink:href="#DejaVuSans-65"/>
     <use x="137.828125" xlink:href="#DejaVuSans-78"/>
     <use x="212.632812" xlink:href="#DejaVuSans-68"/>
     <use x="289.634766" xlink:href="#DejaVuSans-79"/>
     <use x="368.345703" xlink:href="#DejaVuSans-77"/>
     <use x="454.625" xlink:href="#DejaVuSans-83"/>
     <use x="518.101562" xlink:href="#DejaVuSans-69"/>
     <use x="581.285156" xlink:href="#DejaVuSans-65"/>
    </g>
   </g>
   <g id="text_14">
    <!-- CMA-ES  2 -->
    <defs>
     <path d="M 64.40625 67.28125 
L 64.40625 56.890625 
Q 59.421875 61.53125 53.78125 63.8125 
Q 48.140625 66.109375 41.796875 66.109375 
Q 29.296875 66.109375 22.65625 58.46875 
Q 16.015625 50.828125 16.015625 36.375 
Q 16.015625 21.96875 22.65625 14.328125 
Q 29.296875 6.6875 41.796875 6.6875 
Q 48.140625 6.6875 53.78125 8.984375 
Q 59.421875 11.28125 64.40625 15.921875 
L 64.40625 5.609375 
Q 59.234375 2.09375 53.4375 0.328125 
Q 47.65625 -1.421875 41.21875 -1.421875 
Q 24.65625 -1.421875 15.125 8.703125 
Q 5.609375 18.84375 5.609375 36.375 
Q 5.609375 53.953125 15.125 64.078125 
Q 24.65625 74.21875 41.21875 74.21875 
Q 47.75 74.21875 53.53125 72.484375 
Q 59.328125 70.75 64.40625 67.28125 
z
" id="DejaVuSans-67"/>
    </defs>
    <g transform="translate(375.22944 233.796363)scale(0.17 -0.17)">
     <use xlink:href="#DejaVuSans-67"/>
     <use x="69.824219" xlink:href="#DejaVuSans-77"/>
     <use x="156.103516" xlink:href="#DejaVuSans-65"/>
     <use x="224.480469" xlink:href="#DejaVuSans-45"/>
     <use x="260.564453" xlink:href="#DejaVuSans-69"/>
     <use x="323.748047" xlink:href="#DejaVuSans-83"/>
     <use x="387.224609" xlink:href="#DejaVuSans-32"/>
     <use x="419.011719" xlink:href="#DejaVuSans-32"/>
     <use x="450.798828" xlink:href="#DejaVuSans-50"/>
    </g>
   </g>
   <g id="text_15">
    <!-- lq-CMA-ES -->
    <defs>
     <path d="M 14.796875 27.296875 
Q 14.796875 17.390625 18.875 11.75 
Q 22.953125 6.109375 30.078125 6.109375 
Q 37.203125 6.109375 41.296875 11.75 
Q 45.40625 17.390625 45.40625 27.296875 
Q 45.40625 37.203125 41.296875 42.84375 
Q 37.203125 48.484375 30.078125 48.484375 
Q 22.953125 48.484375 18.875 42.84375 
Q 14.796875 37.203125 14.796875 27.296875 
z
M 45.40625 8.203125 
Q 42.578125 3.328125 38.25 0.953125 
Q 33.9375 -1.421875 27.875 -1.421875 
Q 17.96875 -1.421875 11.734375 6.484375 
Q 5.515625 14.40625 5.515625 27.296875 
Q 5.515625 40.1875 11.734375 48.09375 
Q 17.96875 56 27.875 56 
Q 33.9375 56 38.25 53.625 
Q 42.578125 51.265625 45.40625 46.390625 
L 45.40625 54.6875 
L 54.390625 54.6875 
L 54.390625 -20.796875 
L 45.40625 -20.796875 
z
" id="DejaVuSans-113"/>
    </defs>
    <g transform="translate(375.22944 169.329987)scale(0.17 -0.17)">
     <use xlink:href="#DejaVuSans-108"/>
     <use x="27.783203" xlink:href="#DejaVuSans-113"/>
     <use x="91.259766" xlink:href="#DejaVuSans-45"/>
     <use x="127.34375" xlink:href="#DejaVuSans-67"/>
     <use x="197.167969" xlink:href="#DejaVuSans-77"/>
     <use x="283.447266" xlink:href="#DejaVuSans-65"/>
     <use x="351.824219" xlink:href="#DejaVuSans-45"/>
     <use x="387.908203" xlink:href="#DejaVuSans-69"/>
     <use x="451.091797" xlink:href="#DejaVuSans-83"/>
    </g>
   </g>
   <g id="text_16">
    <!-- SLSQP-11  -->
    <defs>
     <path d="M 9.8125 72.90625 
L 19.671875 72.90625 
L 19.671875 8.296875 
L 55.171875 8.296875 
L 55.171875 0 
L 9.8125 0 
z
" id="DejaVuSans-76"/>
     <path d="M 39.40625 66.21875 
Q 28.65625 66.21875 22.328125 58.203125 
Q 16.015625 50.203125 16.015625 36.375 
Q 16.015625 22.609375 22.328125 14.59375 
Q 28.65625 6.59375 39.40625 6.59375 
Q 50.140625 6.59375 56.421875 14.59375 
Q 62.703125 22.609375 62.703125 36.375 
Q 62.703125 50.203125 56.421875 58.203125 
Q 50.140625 66.21875 39.40625 66.21875 
z
M 53.21875 1.3125 
L 66.21875 -12.890625 
L 54.296875 -12.890625 
L 43.5 -1.21875 
Q 41.890625 -1.3125 41.03125 -1.359375 
Q 40.1875 -1.421875 39.40625 -1.421875 
Q 24.03125 -1.421875 14.8125 8.859375 
Q 5.609375 19.140625 5.609375 36.375 
Q 5.609375 53.65625 14.8125 63.9375 
Q 24.03125 74.21875 39.40625 74.21875 
Q 54.734375 74.21875 63.90625 63.9375 
Q 73.09375 53.65625 73.09375 36.375 
Q 73.09375 23.6875 67.984375 14.640625 
Q 62.890625 5.609375 53.21875 1.3125 
z
" id="DejaVuSans-81"/>
     <path d="M 19.671875 64.796875 
L 19.671875 37.40625 
L 32.078125 37.40625 
Q 38.96875 37.40625 42.71875 40.96875 
Q 46.484375 44.53125 46.484375 51.125 
Q 46.484375 57.671875 42.71875 61.234375 
Q 38.96875 64.796875 32.078125 64.796875 
z
M 9.8125 72.90625 
L 32.078125 72.90625 
Q 44.34375 72.90625 50.609375 67.359375 
Q 56.890625 61.8125 56.890625 51.125 
Q 56.890625 40.328125 50.609375 34.8125 
Q 44.34375 29.296875 32.078125 29.296875 
L 19.671875 29.296875 
L 19.671875 0 
L 9.8125 0 
z
" id="DejaVuSans-80"/>
    </defs>
    <g transform="translate(375.22944 104.863611)scale(0.17 -0.17)">
     <use xlink:href="#DejaVuSans-83"/>
     <use x="63.476562" xlink:href="#DejaVuSans-76"/>
     <use x="119.189453" xlink:href="#DejaVuSans-83"/>
     <use x="182.666016" xlink:href="#DejaVuSans-81"/>
     <use x="261.376953" xlink:href="#DejaVuSans-80"/>
     <use x="321.648438" xlink:href="#DejaVuSans-45"/>
     <use x="357.732422" xlink:href="#DejaVuSans-49"/>
     <use x="421.355469" xlink:href="#DejaVuSans-49"/>
     <use x="484.978516" xlink:href="#DejaVuSans-32"/>
    </g>
   </g>
   <g id="text_17">
    <!-- best 2009 -->
    <defs>
     <path d="M 48.6875 27.296875 
Q 48.6875 37.203125 44.609375 42.84375 
Q 40.53125 48.484375 33.40625 48.484375 
Q 26.265625 48.484375 22.1875 42.84375 
Q 18.109375 37.203125 18.109375 27.296875 
Q 18.109375 17.390625 22.1875 11.75 
Q 26.265625 6.109375 33.40625 6.109375 
Q 40.53125 6.109375 44.609375 11.75 
Q 48.6875 17.390625 48.6875 27.296875 
z
M 18.109375 46.390625 
Q 20.953125 51.265625 25.265625 53.625 
Q 29.59375 56 35.59375 56 
Q 45.5625 56 51.78125 48.09375 
Q 58.015625 40.1875 58.015625 27.296875 
Q 58.015625 14.40625 51.78125 6.484375 
Q 45.5625 -1.421875 35.59375 -1.421875 
Q 29.59375 -1.421875 25.265625 0.953125 
Q 20.953125 3.328125 18.109375 8.203125 
L 18.109375 0 
L 9.078125 0 
L 9.078125 75.984375 
L 18.109375 75.984375 
z
" id="DejaVuSans-98"/>
     <path d="M 10.984375 1.515625 
L 10.984375 10.5 
Q 14.703125 8.734375 18.5 7.8125 
Q 22.3125 6.890625 25.984375 6.890625 
Q 35.75 6.890625 40.890625 13.453125 
Q 46.046875 20.015625 46.78125 33.40625 
Q 43.953125 29.203125 39.59375 26.953125 
Q 35.25 24.703125 29.984375 24.703125 
Q 19.046875 24.703125 12.671875 31.3125 
Q 6.296875 37.9375 6.296875 49.421875 
Q 6.296875 60.640625 12.9375 67.421875 
Q 19.578125 74.21875 30.609375 74.21875 
Q 43.265625 74.21875 49.921875 64.515625 
Q 56.59375 54.828125 56.59375 36.375 
Q 56.59375 19.140625 48.40625 8.859375 
Q 40.234375 -1.421875 26.421875 -1.421875 
Q 22.703125 -1.421875 18.890625 -0.6875 
Q 15.09375 0.046875 10.984375 1.515625 
z
M 30.609375 32.421875 
Q 37.25 32.421875 41.125 36.953125 
Q 45.015625 41.5 45.015625 49.421875 
Q 45.015625 57.28125 41.125 61.84375 
Q 37.25 66.40625 30.609375 66.40625 
Q 23.96875 66.40625 20.09375 61.84375 
Q 16.21875 57.28125 16.21875 49.421875 
Q 16.21875 41.5 20.09375 36.953125 
Q 23.96875 32.421875 30.609375 32.421875 
z
" id="DejaVuSans-57"/>
    </defs>
    <g transform="translate(375.22944 40.397235)scale(0.17 -0.17)">
     <use xlink:href="#DejaVuSans-98"/>
     <use x="63.476562" xlink:href="#DejaVuSans-101"/>
     <use x="125" xlink:href="#DejaVuSans-115"/>
     <use x="177.099609" xlink:href="#DejaVuSans-116"/>
     <use x="216.308594" xlink:href="#DejaVuSans-32"/>
     <use x="248.095703" xlink:href="#DejaVuSans-50"/>
     <use x="311.71875" xlink:href="#DejaVuSans-48"/>
     <use x="375.341797" xlink:href="#DejaVuSans-48"/>
     <use x="438.964844" xlink:href="#DejaVuSans-57"/>
    </g>
   </g>
   <g id="text_18">
    <!-- bbob f3, 3-D -->
    <defs>
     <path d="M 40.578125 39.3125 
Q 47.65625 37.796875 51.625 33 
Q 55.609375 28.21875 55.609375 21.1875 
Q 55.609375 10.40625 48.1875 4.484375 
Q 40.765625 -1.421875 27.09375 -1.421875 
Q 22.515625 -1.421875 17.65625 -0.515625 
Q 12.796875 0.390625 7.625 2.203125 
L 7.625 11.71875 
Q 11.71875 9.328125 16.59375 8.109375 
Q 21.484375 6.890625 26.8125 6.890625 
Q 36.078125 6.890625 40.9375 10.546875 
Q 45.796875 14.203125 45.796875 21.1875 
Q 45.796875 27.640625 41.28125 31.265625 
Q 36.765625 34.90625 28.71875 34.90625 
L 20.21875 34.90625 
L 20.21875 43.015625 
L 29.109375 43.015625 
Q 36.375 43.015625 40.234375 45.921875 
Q 44.09375 48.828125 44.09375 54.296875 
Q 44.09375 59.90625 40.109375 62.90625 
Q 36.140625 65.921875 28.71875 65.921875 
Q 24.65625 65.921875 20.015625 65.03125 
Q 15.375 64.15625 9.8125 62.3125 
L 9.8125 71.09375 
Q 15.4375 72.65625 20.34375 73.4375 
Q 25.25 74.21875 29.59375 74.21875 
Q 40.828125 74.21875 47.359375 69.109375 
Q 53.90625 64.015625 53.90625 55.328125 
Q 53.90625 49.265625 50.4375 45.09375 
Q 46.96875 40.921875 40.578125 39.3125 
z
" id="DejaVuSans-51"/>
    </defs>
    <g transform="translate(60.41088 38.111366)scale(0.102 -0.102)">
     <use xlink:href="#DejaVuSans-98"/>
     <use x="63.476562" xlink:href="#DejaVuSans-98"/>
     <use x="126.953125" xlink:href="#DejaVuSans-111"/>
     <use x="188.134766" xlink:href="#DejaVuSans-98"/>
     <use x="251.611328" xlink:href="#DejaVuSans-32"/>
     <use x="283.398438" xlink:href="#DejaVuSans-102"/>
     <use x="318.603516" xlink:href="#DejaVuSans-51"/>
     <use x="382.226562" xlink:href="#DejaVuSans-44"/>
     <use x="414.013672" xlink:href="#DejaVuSans-32"/>
     <use x="445.800781" xlink:href="#DejaVuSans-51"/>
     <use x="509.423828" xlink:href="#DejaVuSans-45"/>
     <use x="545.507812" xlink:href="#DejaVuSans-68"/>
    </g>
    <!-- 51 targets: 100..1e-08 -->
    <defs>
     <path d="M 10.796875 72.90625 
L 49.515625 72.90625 
L 49.515625 64.59375 
L 19.828125 64.59375 
L 19.828125 46.734375 
Q 21.96875 47.46875 24.109375 47.828125 
Q 26.265625 48.1875 28.421875 48.1875 
Q 40.625 48.1875 47.75 41.5 
Q 54.890625 34.8125 54.890625 23.390625 
Q 54.890625 11.625 47.5625 5.09375 
Q 40.234375 -1.421875 26.90625 -1.421875 
Q 22.3125 -1.421875 17.546875 -0.640625 
Q 12.796875 0.140625 7.71875 1.703125 
L 7.71875 11.625 
Q 12.109375 9.234375 16.796875 8.0625 
Q 21.484375 6.890625 26.703125 6.890625 
Q 35.15625 6.890625 40.078125 11.328125 
Q 45.015625 15.765625 45.015625 23.390625 
Q 45.015625 31 40.078125 35.4375 
Q 35.15625 39.890625 26.703125 39.890625 
Q 22.75 39.890625 18.8125 39.015625 
Q 14.890625 38.140625 10.796875 36.28125 
z
" id="DejaVuSans-53"/>
     <path d="M 11.71875 12.40625 
L 22.015625 12.40625 
L 22.015625 0 
L 11.71875 0 
z
M 11.71875 51.703125 
L 22.015625 51.703125 
L 22.015625 39.3125 
L 11.71875 39.3125 
z
" id="DejaVuSans-58"/>
    </defs>
    <g transform="translate(60.41088 49.533135)scale(0.102 -0.102)">
     <use xlink:href="#DejaVuSans-53"/>
     <use x="63.623047" xlink:href="#DejaVuSans-49"/>
     <use x="127.246094" xlink:href="#DejaVuSans-32"/>
     <use x="159.033203" xlink:href="#DejaVuSans-116"/>
     <use x="198.242188" xlink:href="#DejaVuSans-97"/>
     <use x="259.521484" xlink:href="#DejaVuSans-114"/>
     <use x="300.619141" xlink:href="#DejaVuSans-103"/>
     <use x="364.095703" xlink:href="#DejaVuSans-101"/>
     <use x="425.619141" xlink:href="#DejaVuSans-116"/>
     <use x="464.828125" xlink:href="#DejaVuSans-115"/>
     <use x="516.927734" xlink:href="#DejaVuSans-58"/>
     <use x="550.619141" xlink:href="#DejaVuSans-32"/>
     <use x="582.40625" xlink:href="#DejaVuSans-49"/>
     <use x="646.029297" xlink:href="#DejaVuSans-48"/>
     <use x="709.652344" xlink:href="#DejaVuSans-48"/>
     <use x="773.275391" xlink:href="#DejaVuSans-46"/>
     <use x="805.0625" xlink:href="#DejaVuSans-46"/>
     <use x="836.849609" xlink:href="#DejaVuSans-49"/>
     <use x="900.472656" xlink:href="#DejaVuSans-101"/>
     <use x="961.996094" xlink:href="#DejaVuSans-45"/>
     <use x="998.080078" xlink:href="#DejaVuSans-48"/>
     <use x="1061.703125" xlink:href="#DejaVuSans-56"/>
    </g>
    <!-- 15 instances -->
    <g transform="translate(60.41088 60.954904)scale(0.102 -0.102)">
     <use xlink:href="#DejaVuSans-49"/>
     <use x="63.623047" xlink:href="#DejaVuSans-53"/>
     <use x="127.246094" xlink:href="#DejaVuSans-32"/>
     <use x="159.033203" xlink:href="#DejaVuSans-105"/>
     <use x="186.816406" xlink:href="#DejaVuSans-110"/>
     <use x="250.195312" xlink:href="#DejaVuSans-115"/>
     <use x="302.294922" xlink:href="#DejaVuSans-116"/>
     <use x="341.503906" xlink:href="#DejaVuSans-97"/>
     <use x="402.783203" xlink:href="#DejaVuSans-110"/>
     <use x="466.162109" xlink:href="#DejaVuSans-99"/>
     <use x="521.142578" xlink:href="#DejaVuSans-101"/>
     <use x="582.666016" xlink:href="#DejaVuSans-115"/>
    </g>
   </g>
   <g id="text_19">
    <!-- v2.3.2 -->
    <g style="fill:#808080;" transform="translate(182.46275 294.151352)scale(0.1 -0.1)">
     <use xlink:href="#DejaVuSans-118"/>
     <use x="59.179688" xlink:href="#DejaVuSans-50"/>
     <use x="122.802734" xlink:href="#DejaVuSans-46"/>
     <use x="154.589844" xlink:href="#DejaVuSans-51"/>
     <use x="218.212891" xlink:href="#DejaVuSans-46"/>
     <use x="250" xlink:href="#DejaVuSans-50"/>
    </g>
   </g>
   <g id="text_20">
    <!-- 3 Rastrigin separable -->
    <g transform="translate(91.511187 21.648)scale(0.2 -0.2)">
     <use xlink:href="#DejaVuSans-51"/>
     <use x="63.623047" xlink:href="#DejaVuSans-32"/>
     <use x="95.410156" xlink:href="#DejaVuSans-82"/>
     <use x="164.861328" xlink:href="#DejaVuSans-97"/>
     <use x="226.140625" xlink:href="#DejaVuSans-115"/>
     <use x="278.240234" xlink:href="#DejaVuSans-116"/>
     <use x="317.449219" xlink:href="#DejaVuSans-114"/>
     <use x="358.5625" xlink:href="#DejaVuSans-105"/>
     <use x="386.345703" xlink:href="#DejaVuSans-103"/>
     <use x="449.822266" xlink:href="#DejaVuSans-105"/>
     <use x="477.605469" xlink:href="#DejaVuSans-110"/>
     <use x="540.984375" xlink:href="#DejaVuSans-32"/>
     <use x="572.771484" xlink:href="#DejaVuSans-115"/>
     <use x="624.871094" xlink:href="#DejaVuSans-101"/>
     <use x="686.394531" xlink:href="#DejaVuSans-112"/>
     <use x="749.871094" xlink:href="#DejaVuSans-97"/>
     <use x="811.150391" xlink:href="#DejaVuSans-114"/>
     <use x="852.263672" xlink:href="#DejaVuSans-97"/>
     <use x="913.542969" xlink:href="#DejaVuSans-98"/>
     <use x="977.019531" xlink:href="#DejaVuSans-108"/>
     <use x="1004.802734" xlink:href="#DejaVuSans-101"/>
    </g>
   </g>
  </g>
 </g>
 <defs>
  <clipPath id="p0d48bd3a75">
   <rect height="271.296" width="281.088" x="57.6" y="27.648"/>
  </clipPath>
 </defs>
</svg>
