<?xml version="1.0" encoding="utf-8" standalone="no"?>
<!DOCTYPE svg PUBLIC "-//W3C//DTD SVG 1.1//EN"
  "http://www.w3.org/Graphics/SVG/1.1/DTD/svg11.dtd">
<!-- Created with matplotlib (https://matplotlib.org/) -->
<svg height="345.6pt" version="1.1" viewBox="0 0 460.8 345.6" width="460.8pt" xmlns="http://www.w3.org/2000/svg" xmlns:xlink="http://www.w3.org/1999/xlink">
 <defs>
  <style type="text/css">
*{stroke-linecap:butt;stroke-linejoin:round;}
  </style>
 </defs>
 <g id="figure_1">
  <g id="patch_1">
   <path d="M 0 345.6 
L 460.8 345.6 
L 460.8 0 
L 0 0 
z
" style="fill:#ffffff;"/>
  </g>
  <g id="axes_1">
   <g id="patch_2">
    <path d="M 57.6 298.944 
L 338.688 298.944 
L 338.688 27.648 
L 57.6 27.648 
z
" style="fill:#ffffff;"/>
   </g>
   <g id="line2d_1">
    <path d="M 29.53256 298.944 
L 29.53256 293.677139 
L 36.60358 293.677139 
L 36.60358 288.410278 
L 59.262141 288.410278 
L 59.262141 283.143418 
L 87.643811 283.143418 
L 87.643811 277.876557 
L 107.213174 277.876557 
L 107.213174 272.609696 
L 112.877038 272.609696 
L 112.877038 267.342835 
L 119.751557 267.342835 
L 119.751557 262.075974 
L 123.553867 262.075974 
L 123.553867 256.809114 
L 127.830353 256.809114 
L 127.830353 251.542253 
L 131.236397 251.542253 
L 131.236397 246.275392 
L 134.787017 246.275392 
L 134.787017 241.008531 
L 138.761723 241.008531 
L 138.761723 235.74167 
L 147.580235 235.74167 
L 147.580235 230.47481 
L 154.754456 230.47481 
L 154.754456 225.207949 
L 162.619242 225.207949 
L 162.619242 219.941088 
L 171.876001 219.941088 
L 171.876001 214.674227 
L 178.339672 214.674227 
L 178.339672 209.407366 
L 179.532325 209.407366 
L 179.532325 204.140506 
L 181.023534 204.140506 
L 181.023534 198.873645 
L 185.07091 198.873645 
L 185.07091 193.606784 
L 186.184157 193.606784 
L 186.184157 188.339923 
L 189.567264 188.339923 
L 189.567264 183.073062 
L 190.407906 183.073062 
L 190.407906 177.806202 
L 192.034621 177.806202 
L 192.034621 172.539341 
L 193.072473 172.539341 
L 193.072473 167.27248 
L 195.730693 167.27248 
L 195.730693 162.005619 
L 196.334447 162.005619 
L 196.334447 156.738758 
L 196.939283 156.738758 
L 196.939283 151.471897 
L 197.169982 151.471897 
L 197.169982 146.205037 
L 197.915981 146.205037 
L 197.915981 140.938176 
L 198.136953 140.938176 
L 198.136953 135.671315 
L 198.249138 135.671315 
L 198.249138 130.404454 
L 198.428558 130.404454 
L 198.428558 125.137593 
L 199.594267 125.137593 
L 199.594267 119.870733 
L 199.873165 119.870733 
L 199.873165 114.603872 
L 200.992614 114.603872 
L 200.992614 109.337011 
L 201.10978 109.337011 
L 201.10978 104.07015 
L 201.236329 104.07015 
L 201.236329 98.803289 
L 201.297189 98.803289 
L 201.297189 93.536429 
L 201.368842 93.536429 
L 201.368842 88.269568 
L 201.527631 88.269568 
L 201.527631 83.002707 
L 201.705232 83.002707 
L 201.705232 77.735846 
L 201.986215 77.735846 
L 201.986215 72.468985 
L 203.098525 72.468985 
L 203.098525 67.202125 
L 203.233735 67.202125 
L 203.233735 61.935264 
L 203.384654 61.935264 
L 203.384654 56.668403 
L 203.503077 56.668403 
L 203.503077 51.401542 
L 203.62916 51.401542 
L 203.62916 46.134681 
L 203.727131 46.134681 
L 203.727131 40.867821 
L 203.822564 40.867821 
L 203.822564 35.60096 
L 203.916686 35.60096 
L 203.916686 30.334099 
L 338.688 30.334099 
" style="fill:none;stroke:#f5deb3;stroke-linecap:square;stroke-width:4;"/>
   </g>
   <g id="line2d_2">
    <defs>
     <path d="M -0 7.778175 
L 7.778175 0 
L 0 -7.778175 
L -7.778175 -0 
z
" id="m6298c2064e" style="stroke:#f5deb3;stroke-linejoin:miter;stroke-width:1.5;"/>
    </defs>
    <g>
     <use style="fill:#f5deb3;stroke:#f5deb3;stroke-linejoin:miter;stroke-width:1.5;" x="107.213174" xlink:href="#m6298c2064e" y="272.609696"/>
     <use style="fill:#f5deb3;stroke:#f5deb3;stroke-linejoin:miter;stroke-width:1.5;" x="179.532325" xlink:href="#m6298c2064e" y="204.140506"/>
     <use style="fill:#f5deb3;stroke:#f5deb3;stroke-linejoin:miter;stroke-width:1.5;" x="200.992614" xlink:href="#m6298c2064e" y="109.337011"/>
     <use style="fill:#f5deb3;stroke:#f5deb3;stroke-linejoin:miter;stroke-width:1.5;" x="203.916686" xlink:href="#m6298c2064e" y="35.60096"/>
     <use style="fill:#f5deb3;stroke:#f5deb3;stroke-linejoin:miter;stroke-width:1.5;" x="203.916686" xlink:href="#m6298c2064e" y="30.334099"/>
     <use style="fill:#f5deb3;stroke:#f5deb3;stroke-linejoin:miter;stroke-width:1.5;" x="338.688" xlink:href="#m6298c2064e" y="30.334099"/>
    </g>
   </g>
   <g id="line2d_3">
    <path style="fill:none;stroke:#f5deb3;stroke-linecap:square;stroke-width:4;"/>
    <g/>
   </g>
   <g id="line2d_4">
    <path d="M 338.688 30.334099 
L 369.60768 35.706297 
" style="fill:none;stroke:#f5deb3;stroke-linecap:square;stroke-width:4;"/>
    <g>
     <use style="fill:#f5deb3;stroke:#f5deb3;stroke-linejoin:miter;stroke-width:1.5;" x="338.688" xlink:href="#m6298c2064e" y="30.334099"/>
     <use style="fill:#f5deb3;stroke:#f5deb3;stroke-linejoin:miter;stroke-width:1.5;" x="369.60768" xlink:href="#m6298c2064e" y="35.706297"/>
    </g>
   </g>
   <g id="matplotlib.axis_1">
    <g id="xtick_1">
     <g id="line2d_5">
      <path clip-path="url(#p73feeeaff8)" d="M 57.6 298.944 
L 57.6 27.648 
" style="fill:none;stroke:#b0b0b0;stroke-linecap:square;stroke-width:0.8;"/>
     </g>
     <g id="line2d_6">
      <defs>
       <path d="M 0 0 
L 0 3.5 
" id="m9fd833165f" style="stroke:#000000;stroke-width:0.8;"/>
      </defs>
      <g>
       <use style="stroke:#000000;stroke-width:0.8;" x="57.6" xlink:href="#m9fd833165f" y="298.944"/>
      </g>
     </g>
     <g id="text_1">
      <!-- 0 -->
      <defs>
       <path d="M 31.78125 66.40625 
Q 24.171875 66.40625 20.328125 58.90625 
Q 16.5 51.421875 16.5 36.375 
Q 16.5 21.390625 20.328125 13.890625 
Q 24.171875 6.390625 31.78125 6.390625 
Q 39.453125 6.390625 43.28125 13.890625 
Q 47.125 21.390625 47.125 36.375 
Q 47.125 51.421875 43.28125 58.90625 
Q 39.453125 66.40625 31.78125 66.40625 
z
M 31.78125 74.21875 
Q 44.046875 74.21875 50.515625 64.515625 
Q 56.984375 54.828125 56.984375 36.375 
Q 56.984375 17.96875 50.515625 8.265625 
Q 44.046875 -1.421875 31.78125 -1.421875 
Q 19.53125 -1.421875 13.0625 8.265625 
Q 6.59375 17.96875 6.59375 36.375 
Q 6.59375 54.828125 13.0625 64.515625 
Q 19.53125 74.21875 31.78125 74.21875 
z
" id="DejaVuSans-48"/>
      </defs>
      <g transform="translate(51.2375 321.140875)scale(0.2 -0.2)">
       <use xlink:href="#DejaVuSans-48"/>
      </g>
     </g>
    </g>
    <g id="xtick_2">
     <g id="line2d_7">
      <path clip-path="url(#p73feeeaff8)" d="M 137.910857 298.944 
L 137.910857 27.648 
" style="fill:none;stroke:#b0b0b0;stroke-linecap:square;stroke-width:0.8;"/>
     </g>
     <g id="line2d_8">
      <g>
       <use style="stroke:#000000;stroke-width:0.8;" x="137.910857" xlink:href="#m9fd833165f" y="298.944"/>
      </g>
     </g>
     <g id="text_2">
      <!-- 2 -->
      <defs>
       <path d="M 19.1875 8.296875 
L 53.609375 8.296875 
L 53.609375 0 
L 7.328125 0 
L 7.328125 8.296875 
Q 12.9375 14.109375 22.625 23.890625 
Q 32.328125 33.6875 34.8125 36.53125 
Q 39.546875 41.84375 41.421875 45.53125 
Q 43.3125 49.21875 43.3125 52.78125 
Q 43.3125 58.59375 39.234375 62.25 
Q 35.15625 65.921875 28.609375 65.921875 
Q 23.96875 65.921875 18.8125 64.3125 
Q 13.671875 62.703125 7.8125 59.421875 
L 7.8125 69.390625 
Q 13.765625 71.78125 18.9375 73 
Q 24.125 74.21875 28.421875 74.21875 
Q 39.75 74.21875 46.484375 68.546875 
Q 53.21875 62.890625 53.21875 53.421875 
Q 53.21875 48.921875 51.53125 44.890625 
Q 49.859375 40.875 45.40625 35.40625 
Q 44.1875 33.984375 37.640625 27.21875 
Q 31.109375 20.453125 19.1875 8.296875 
z
" id="DejaVuSans-50"/>
      </defs>
      <g transform="translate(131.548357 321.140875)scale(0.2 -0.2)">
       <use xlink:href="#DejaVuSans-50"/>
      </g>
     </g>
    </g>
    <g id="xtick_3">
     <g id="line2d_9">
      <path clip-path="url(#p73feeeaff8)" d="M 218.221714 298.944 
L 218.221714 27.648 
" style="fill:none;stroke:#b0b0b0;stroke-linecap:square;stroke-width:0.8;"/>
     </g>
     <g id="line2d_10">
      <g>
       <use style="stroke:#000000;stroke-width:0.8;" x="218.221714" xlink:href="#m9fd833165f" y="298.944"/>
      </g>
     </g>
     <g id="text_3">
      <!-- 4 -->
      <defs>
       <path d="M 37.796875 64.3125 
L 12.890625 25.390625 
L 37.796875 25.390625 
z
M 35.203125 72.90625 
L 47.609375 72.90625 
L 47.609375 25.390625 
L 58.015625 25.390625 
L 58.015625 17.1875 
L 47.609375 17.1875 
L 47.609375 0 
L 37.796875 0 
L 37.796875 17.1875 
L 4.890625 17.1875 
L 4.890625 26.703125 
z
" id="DejaVuSans-52"/>
      </defs>
      <g transform="translate(211.859214 321.140875)scale(0.2 -0.2)">
       <use xlink:href="#DejaVuSans-52"/>
      </g>
     </g>
    </g>
    <g id="xtick_4">
     <g id="line2d_11">
      <path clip-path="url(#p73feeeaff8)" d="M 298.532571 298.944 
L 298.532571 27.648 
" style="fill:none;stroke:#b0b0b0;stroke-linecap:square;stroke-width:0.8;"/>
     </g>
     <g id="line2d_12">
      <g>
       <use style="stroke:#000000;stroke-width:0.8;" x="298.532571" xlink:href="#m9fd833165f" y="298.944"/>
      </g>
     </g>
     <g id="text_4">
      <!-- 6 -->
      <defs>
       <path d="M 33.015625 40.375 
Q 26.375 40.375 22.484375 35.828125 
Q 18.609375 31.296875 18.609375 23.390625 
Q 18.609375 15.53125 22.484375 10.953125 
Q 26.375 6.390625 33.015625 6.390625 
Q 39.65625 6.390625 43.53125 10.953125 
Q 47.40625 15.53125 47.40625 23.390625 
Q 47.40625 31.296875 43.53125 35.828125 
Q 39.65625 40.375 33.015625 40.375 
z
M 52.59375 71.296875 
L 52.59375 62.3125 
Q 48.875 64.0625 45.09375 64.984375 
Q 41.3125 65.921875 37.59375 65.921875 
Q 27.828125 65.921875 22.671875 59.328125 
Q 17.53125 52.734375 16.796875 39.40625 
Q 19.671875 43.65625 24.015625 45.921875 
Q 28.375 48.1875 33.59375 48.1875 
Q 44.578125 48.1875 50.953125 41.515625 
Q 57.328125 34.859375 57.328125 23.390625 
Q 57.328125 12.15625 50.6875 5.359375 
Q 44.046875 -1.421875 33.015625 -1.421875 
Q 20.359375 -1.421875 13.671875 8.265625 
Q 6.984375 17.96875 6.984375 36.375 
Q 6.984375 53.65625 15.1875 63.9375 
Q 23.390625 74.21875 37.203125 74.21875 
Q 40.921875 74.21875 44.703125 73.484375 
Q 48.484375 72.75 52.59375 71.296875 
z
" id="DejaVuSans-54"/>
      </defs>
      <g transform="translate(292.170071 321.140875)scale(0.2 -0.2)">
       <use xlink:href="#DejaVuSans-54"/>
      </g>
     </g>
    </g>
    <g id="xtick_5">
     <g id="line2d_13">
      <path clip-path="url(#p73feeeaff8)" d="M 57.6 298.944 
L 57.6 27.648 
" style="fill:none;stroke:#b0b0b0;stroke-linecap:square;stroke-width:0.8;"/>
     </g>
     <g id="line2d_14">
      <defs>
       <path d="M 0 0 
L 0 2 
" id="m1993c18635" style="stroke:#000000;stroke-width:0.6;"/>
      </defs>
      <g>
       <use style="stroke:#000000;stroke-width:0.6;" x="57.6" xlink:href="#m1993c18635" y="298.944"/>
      </g>
     </g>
    </g>
    <g id="xtick_6">
     <g id="line2d_15">
      <path clip-path="url(#p73feeeaff8)" d="M 97.755429 298.944 
L 97.755429 27.648 
" style="fill:none;stroke:#b0b0b0;stroke-linecap:square;stroke-width:0.8;"/>
     </g>
     <g id="line2d_16">
      <g>
       <use style="stroke:#000000;stroke-width:0.6;" x="97.755429" xlink:href="#m1993c18635" y="298.944"/>
      </g>
     </g>
    </g>
    <g id="xtick_7">
     <g id="line2d_17">
      <path clip-path="url(#p73feeeaff8)" d="M 137.910857 298.944 
L 137.910857 27.648 
" style="fill:none;stroke:#b0b0b0;stroke-linecap:square;stroke-width:0.8;"/>
     </g>
     <g id="line2d_18">
      <g>
       <use style="stroke:#000000;stroke-width:0.6;" x="137.910857" xlink:href="#m1993c18635" y="298.944"/>
      </g>
     </g>
    </g>
    <g id="xtick_8">
     <g id="line2d_19">
      <path clip-path="url(#p73feeeaff8)" d="M 178.066286 298.944 
L 178.066286 27.648 
" style="fill:none;stroke:#b0b0b0;stroke-linecap:square;stroke-width:0.8;"/>
     </g>
     <g id="line2d_20">
      <g>
       <use style="stroke:#000000;stroke-width:0.6;" x="178.066286" xlink:href="#m1993c18635" y="298.944"/>
      </g>
     </g>
    </g>
    <g id="xtick_9">
     <g id="line2d_21">
      <path clip-path="url(#p73feeeaff8)" d="M 218.221714 298.944 
L 218.221714 27.648 
" style="fill:none;stroke:#b0b0b0;stroke-linecap:square;stroke-width:0.8;"/>
     </g>
     <g id="line2d_22">
      <g>
       <use style="stroke:#000000;stroke-width:0.6;" x="218.221714" xlink:href="#m1993c18635" y="298.944"/>
      </g>
     </g>
    </g>
    <g id="xtick_10">
     <g id="line2d_23">
      <path clip-path="url(#p73feeeaff8)" d="M 258.377143 298.944 
L 258.377143 27.648 
" style="fill:none;stroke:#b0b0b0;stroke-linecap:square;stroke-width:0.8;"/>
     </g>
     <g id="line2d_24">
      <g>
       <use style="stroke:#000000;stroke-width:0.6;" x="258.377143" xlink:href="#m1993c18635" y="298.944"/>
      </g>
     </g>
    </g>
    <g id="xtick_11">
     <g id="line2d_25">
      <path clip-path="url(#p73feeeaff8)" d="M 298.532571 298.944 
L 298.532571 27.648 
" style="fill:none;stroke:#b0b0b0;stroke-linecap:square;stroke-width:0.8;"/>
     </g>
     <g id="line2d_26">
      <g>
       <use style="stroke:#000000;stroke-width:0.6;" x="298.532571" xlink:href="#m1993c18635" y="298.944"/>
      </g>
     </g>
    </g>
    <g id="xtick_12">
     <g id="line2d_27">
      <path clip-path="url(#p73feeeaff8)" d="M 338.688 298.944 
L 338.688 27.648 
" style="fill:none;stroke:#b0b0b0;stroke-linecap:square;stroke-width:0.8;"/>
     </g>
     <g id="line2d_28">
      <g>
       <use style="stroke:#000000;stroke-width:0.6;" x="338.688" xlink:href="#m1993c18635" y="298.944"/>
      </g>
     </g>
    </g>
    <g id="text_5">
     <!-- log10(# f-evals / dimension) -->
     <defs>
      <path d="M 9.421875 75.984375 
L 18.40625 75.984375 
L 18.40625 0 
L 9.421875 0 
z
" id="DejaVuSans-108"/>
      <path d="M 30.609375 48.390625 
Q 23.390625 48.390625 19.1875 42.75 
Q 14.984375 37.109375 14.984375 27.296875 
Q 14.984375 17.484375 19.15625 11.84375 
Q 23.34375 6.203125 30.609375 6.203125 
Q 37.796875 6.203125 41.984375 11.859375 
Q 46.1875 17.53125 46.1875 27.296875 
Q 46.1875 37.015625 41.984375 42.703125 
Q 37.796875 48.390625 30.609375 48.390625 
z
M 30.609375 56 
Q 42.328125 56 49.015625 48.375 
Q 55.71875 40.765625 55.71875 27.296875 
Q 55.71875 13.875 49.015625 6.21875 
Q 42.328125 -1.421875 30.609375 -1.421875 
Q 18.84375 -1.421875 12.171875 6.21875 
Q 5.515625 13.875 5.515625 27.296875 
Q 5.515625 40.765625 12.171875 48.375 
Q 18.84375 56 30.609375 56 
z
" id="DejaVuSans-111"/>
      <path d="M 45.40625 27.984375 
Q 45.40625 37.75 41.375 43.109375 
Q 37.359375 48.484375 30.078125 48.484375 
Q 22.859375 48.484375 18.828125 43.109375 
Q 14.796875 37.75 14.796875 27.984375 
Q 14.796875 18.265625 18.828125 12.890625 
Q 22.859375 7.515625 30.078125 7.515625 
Q 37.359375 7.515625 41.375 12.890625 
Q 45.40625 18.265625 45.40625 27.984375 
z
M 54.390625 6.78125 
Q 54.390625 -7.171875 48.1875 -13.984375 
Q 42 -20.796875 29.203125 -20.796875 
Q 24.46875 -20.796875 20.265625 -20.09375 
Q 16.0625 -19.390625 12.109375 -17.921875 
L 12.109375 -9.1875 
Q 16.0625 -11.328125 19.921875 -12.34375 
Q 23.78125 -13.375 27.78125 -13.375 
Q 36.625 -13.375 41.015625 -8.765625 
Q 45.40625 -4.15625 45.40625 5.171875 
L 45.40625 9.625 
Q 42.625 4.78125 38.28125 2.390625 
Q 33.9375 0 27.875 0 
Q 17.828125 0 11.671875 7.65625 
Q 5.515625 15.328125 5.515625 27.984375 
Q 5.515625 40.671875 11.671875 48.328125 
Q 17.828125 56 27.875 56 
Q 33.9375 56 38.28125 53.609375 
Q 42.625 51.21875 45.40625 46.390625 
L 45.40625 54.6875 
L 54.390625 54.6875 
z
" id="DejaVuSans-103"/>
      <path d="M 12.40625 8.296875 
L 28.515625 8.296875 
L 28.515625 63.921875 
L 10.984375 60.40625 
L 10.984375 69.390625 
L 28.421875 72.90625 
L 38.28125 72.90625 
L 38.28125 8.296875 
L 54.390625 8.296875 
L 54.390625 0 
L 12.40625 0 
z
" id="DejaVuSans-49"/>
      <path d="M 31 75.875 
Q 24.46875 64.65625 21.28125 53.65625 
Q 18.109375 42.671875 18.109375 31.390625 
Q 18.109375 20.125 21.3125 9.0625 
Q 24.515625 -2 31 -13.1875 
L 23.1875 -13.1875 
Q 15.875 -1.703125 12.234375 9.375 
Q 8.59375 20.453125 8.59375 31.390625 
Q 8.59375 42.28125 12.203125 53.3125 
Q 15.828125 64.359375 23.1875 75.875 
z
" id="DejaVuSans-40"/>
      <path d="M 51.125 44 
L 36.921875 44 
L 32.8125 27.6875 
L 47.125 27.6875 
z
M 43.796875 71.78125 
L 38.71875 51.515625 
L 52.984375 51.515625 
L 58.109375 71.78125 
L 65.921875 71.78125 
L 60.890625 51.515625 
L 76.125 51.515625 
L 76.125 44 
L 58.984375 44 
L 54.984375 27.6875 
L 70.515625 27.6875 
L 70.515625 20.21875 
L 53.078125 20.21875 
L 48 0 
L 40.1875 0 
L 45.21875 20.21875 
L 30.90625 20.21875 
L 25.875 0 
L 18.015625 0 
L 23.09375 20.21875 
L 7.71875 20.21875 
L 7.71875 27.6875 
L 24.90625 27.6875 
L 29 44 
L 13.28125 44 
L 13.28125 51.515625 
L 30.90625 51.515625 
L 35.890625 71.78125 
z
" id="DejaVuSans-35"/>
      <path id="DejaVuSans-32"/>
      <path d="M 37.109375 75.984375 
L 37.109375 68.5 
L 28.515625 68.5 
Q 23.6875 68.5 21.796875 66.546875 
Q 19.921875 64.59375 19.921875 59.515625 
L 19.921875 54.6875 
L 34.71875 54.6875 
L 34.71875 47.703125 
L 19.921875 47.703125 
L 19.921875 0 
L 10.890625 0 
L 10.890625 47.703125 
L 2.296875 47.703125 
L 2.296875 54.6875 
L 10.890625 54.6875 
L 10.890625 58.5 
Q 10.890625 67.625 15.140625 71.796875 
Q 19.390625 75.984375 28.609375 75.984375 
z
" id="DejaVuSans-102"/>
      <path d="M 4.890625 31.390625 
L 31.203125 31.390625 
L 31.203125 23.390625 
L 4.890625 23.390625 
z
" id="DejaVuSans-45"/>
      <path d="M 56.203125 29.59375 
L 56.203125 25.203125 
L 14.890625 25.203125 
Q 15.484375 15.921875 20.484375 11.0625 
Q 25.484375 6.203125 34.421875 6.203125 
Q 39.59375 6.203125 44.453125 7.46875 
Q 49.3125 8.734375 54.109375 11.28125 
L 54.109375 2.78125 
Q 49.265625 0.734375 44.1875 -0.34375 
Q 39.109375 -1.421875 33.890625 -1.421875 
Q 20.796875 -1.421875 13.15625 6.1875 
Q 5.515625 13.8125 5.515625 26.8125 
Q 5.515625 40.234375 12.765625 48.109375 
Q 20.015625 56 32.328125 56 
Q 43.359375 56 49.78125 48.890625 
Q 56.203125 41.796875 56.203125 29.59375 
z
M 47.21875 32.234375 
Q 47.125 39.59375 43.09375 43.984375 
Q 39.0625 48.390625 32.421875 48.390625 
Q 24.90625 48.390625 20.390625 44.140625 
Q 15.875 39.890625 15.1875 32.171875 
z
" id="DejaVuSans-101"/>
      <path d="M 2.984375 54.6875 
L 12.5 54.6875 
L 29.59375 8.796875 
L 46.6875 54.6875 
L 56.203125 54.6875 
L 35.6875 0 
L 23.484375 0 
z
" id="DejaVuSans-118"/>
      <path d="M 34.28125 27.484375 
Q 23.390625 27.484375 19.1875 25 
Q 14.984375 22.515625 14.984375 16.5 
Q 14.984375 11.71875 18.140625 8.90625 
Q 21.296875 6.109375 26.703125 6.109375 
Q 34.1875 6.109375 38.703125 11.40625 
Q 43.21875 16.703125 43.21875 25.484375 
L 43.21875 27.484375 
z
M 52.203125 31.203125 
L 52.203125 0 
L 43.21875 0 
L 43.21875 8.296875 
Q 40.140625 3.328125 35.546875 0.953125 
Q 30.953125 -1.421875 24.3125 -1.421875 
Q 15.921875 -1.421875 10.953125 3.296875 
Q 6 8.015625 6 15.921875 
Q 6 25.140625 12.171875 29.828125 
Q 18.359375 34.515625 30.609375 34.515625 
L 43.21875 34.515625 
L 43.21875 35.40625 
Q 43.21875 41.609375 39.140625 45 
Q 35.0625 48.390625 27.6875 48.390625 
Q 23 48.390625 18.546875 47.265625 
Q 14.109375 46.140625 10.015625 43.890625 
L 10.015625 52.203125 
Q 14.9375 54.109375 19.578125 55.046875 
Q 24.21875 56 28.609375 56 
Q 40.484375 56 46.34375 49.84375 
Q 52.203125 43.703125 52.203125 31.203125 
z
" id="DejaVuSans-97"/>
      <path d="M 44.28125 53.078125 
L 44.28125 44.578125 
Q 40.484375 46.53125 36.375 47.5 
Q 32.28125 48.484375 27.875 48.484375 
Q 21.1875 48.484375 17.84375 46.4375 
Q 14.5 44.390625 14.5 40.28125 
Q 14.5 37.15625 16.890625 35.375 
Q 19.28125 33.59375 26.515625 31.984375 
L 29.59375 31.296875 
Q 39.15625 29.25 43.1875 25.515625 
Q 47.21875 21.78125 47.21875 15.09375 
Q 47.21875 7.46875 41.1875 3.015625 
Q 35.15625 -1.421875 24.609375 -1.421875 
Q 20.21875 -1.421875 15.453125 -0.5625 
Q 10.6875 0.296875 5.421875 2 
L 5.421875 11.28125 
Q 10.40625 8.6875 15.234375 7.390625 
Q 20.0625 6.109375 24.8125 6.109375 
Q 31.15625 6.109375 34.5625 8.28125 
Q 37.984375 10.453125 37.984375 14.40625 
Q 37.984375 18.0625 35.515625 20.015625 
Q 33.0625 21.96875 24.703125 23.78125 
L 21.578125 24.515625 
Q 13.234375 26.265625 9.515625 29.90625 
Q 5.8125 33.546875 5.8125 39.890625 
Q 5.8125 47.609375 11.28125 51.796875 
Q 16.75 56 26.8125 56 
Q 31.78125 56 36.171875 55.265625 
Q 40.578125 54.546875 44.28125 53.078125 
z
" id="DejaVuSans-115"/>
      <path d="M 25.390625 72.90625 
L 33.6875 72.90625 
L 8.296875 -9.28125 
L 0 -9.28125 
z
" id="DejaVuSans-47"/>
      <path d="M 45.40625 46.390625 
L 45.40625 75.984375 
L 54.390625 75.984375 
L 54.390625 0 
L 45.40625 0 
L 45.40625 8.203125 
Q 42.578125 3.328125 38.25 0.953125 
Q 33.9375 -1.421875 27.875 -1.421875 
Q 17.96875 -1.421875 11.734375 6.484375 
Q 5.515625 14.40625 5.515625 27.296875 
Q 5.515625 40.1875 11.734375 48.09375 
Q 17.96875 56 27.875 56 
Q 33.9375 56 38.25 53.625 
Q 42.578125 51.265625 45.40625 46.390625 
z
M 14.796875 27.296875 
Q 14.796875 17.390625 18.875 11.75 
Q 22.953125 6.109375 30.078125 6.109375 
Q 37.203125 6.109375 41.296875 11.75 
Q 45.40625 17.390625 45.40625 27.296875 
Q 45.40625 37.203125 41.296875 42.84375 
Q 37.203125 48.484375 30.078125 48.484375 
Q 22.953125 48.484375 18.875 42.84375 
Q 14.796875 37.203125 14.796875 27.296875 
z
" id="DejaVuSans-100"/>
      <path d="M 9.421875 54.6875 
L 18.40625 54.6875 
L 18.40625 0 
L 9.421875 0 
z
M 9.421875 75.984375 
L 18.40625 75.984375 
L 18.40625 64.59375 
L 9.421875 64.59375 
z
" id="DejaVuSans-105"/>
      <path d="M 52 44.1875 
Q 55.375 50.25 60.0625 53.125 
Q 64.75 56 71.09375 56 
Q 79.640625 56 84.28125 50.015625 
Q 88.921875 44.046875 88.921875 33.015625 
L 88.921875 0 
L 79.890625 0 
L 79.890625 32.71875 
Q 79.890625 40.578125 77.09375 44.375 
Q 74.3125 48.1875 68.609375 48.1875 
Q 61.625 48.1875 57.5625 43.546875 
Q 53.515625 38.921875 53.515625 30.90625 
L 53.515625 0 
L 44.484375 0 
L 44.484375 32.71875 
Q 44.484375 40.625 41.703125 44.40625 
Q 38.921875 48.1875 33.109375 48.1875 
Q 26.21875 48.1875 22.15625 43.53125 
Q 18.109375 38.875 18.109375 30.90625 
L 18.109375 0 
L 9.078125 0 
L 9.078125 54.6875 
L 18.109375 54.6875 
L 18.109375 46.1875 
Q 21.1875 51.21875 25.484375 53.609375 
Q 29.78125 56 35.6875 56 
Q 41.65625 56 45.828125 52.96875 
Q 50 49.953125 52 44.1875 
z
" id="DejaVuSans-109"/>
      <path d="M 54.890625 33.015625 
L 54.890625 0 
L 45.90625 0 
L 45.90625 32.71875 
Q 45.90625 40.484375 42.875 44.328125 
Q 39.84375 48.1875 33.796875 48.1875 
Q 26.515625 48.1875 22.3125 43.546875 
Q 18.109375 38.921875 18.109375 30.90625 
L 18.109375 0 
L 9.078125 0 
L 9.078125 54.6875 
L 18.109375 54.6875 
L 18.109375 46.1875 
Q 21.34375 51.125 25.703125 53.5625 
Q 30.078125 56 35.796875 56 
Q 45.21875 56 50.046875 50.171875 
Q 54.890625 44.34375 54.890625 33.015625 
z
" id="DejaVuSans-110"/>
      <path d="M 8.015625 75.875 
L 15.828125 75.875 
Q 23.140625 64.359375 26.78125 53.3125 
Q 30.421875 42.28125 30.421875 31.390625 
Q 30.421875 20.453125 26.78125 9.375 
Q 23.140625 -1.703125 15.828125 -13.1875 
L 8.015625 -13.1875 
Q 14.5 -2 17.703125 9.0625 
Q 20.90625 20.125 20.90625 31.390625 
Q 20.90625 42.671875 17.703125 53.65625 
Q 14.5 64.65625 8.015625 75.875 
z
" id="DejaVuSans-41"/>
     </defs>
     <g transform="translate(77.303219 342.217594)scale(0.17 -0.17)">
      <use xlink:href="#DejaVuSans-108"/>
      <use x="27.783203" xlink:href="#DejaVuSans-111"/>
      <use x="88.964844" xlink:href="#DejaVuSans-103"/>
      <use x="152.441406" xlink:href="#DejaVuSans-49"/>
      <use x="216.064453" xlink:href="#DejaVuSans-48"/>
      <use x="279.6875" xlink:href="#DejaVuSans-40"/>
      <use x="318.701172" xlink:href="#DejaVuSans-35"/>
      <use x="402.490234" xlink:href="#DejaVuSans-32"/>
      <use x="434.277344" xlink:href="#DejaVuSans-102"/>
      <use x="469.404297" xlink:href="#DejaVuSans-45"/>
      <use x="505.488281" xlink:href="#DejaVuSans-101"/>
      <use x="567.011719" xlink:href="#DejaVuSans-118"/>
      <use x="626.191406" xlink:href="#DejaVuSans-97"/>
      <use x="687.470703" xlink:href="#DejaVuSans-108"/>
      <use x="715.253906" xlink:href="#DejaVuSans-115"/>
      <use x="767.353516" xlink:href="#DejaVuSans-32"/>
      <use x="799.140625" xlink:href="#DejaVuSans-47"/>
      <use x="832.832031" xlink:href="#DejaVuSans-32"/>
      <use x="864.619141" xlink:href="#DejaVuSans-100"/>
      <use x="928.095703" xlink:href="#DejaVuSans-105"/>
      <use x="955.878906" xlink:href="#DejaVuSans-109"/>
      <use x="1053.291016" xlink:href="#DejaVuSans-101"/>
      <use x="1114.814453" xlink:href="#DejaVuSans-110"/>
      <use x="1178.193359" xlink:href="#DejaVuSans-115"/>
      <use x="1230.292969" xlink:href="#DejaVuSans-105"/>
      <use x="1258.076172" xlink:href="#DejaVuSans-111"/>
      <use x="1319.257812" xlink:href="#DejaVuSans-110"/>
      <use x="1382.636719" xlink:href="#DejaVuSans-41"/>
     </g>
    </g>
   </g>
   <g id="matplotlib.axis_2">
    <g id="ytick_1">
     <g id="line2d_29">
      <path clip-path="url(#p73feeeaff8)" d="M 57.6 298.944 
L 338.688 298.944 
" style="fill:none;stroke:#b0b0b0;stroke-linecap:square;stroke-width:0.8;"/>
     </g>
     <g id="line2d_30">
      <defs>
       <path d="M 0 0 
L -3.5 0 
" id="mffe3abcdbc" style="stroke:#000000;stroke-width:0.8;"/>
      </defs>
      <g>
       <use style="stroke:#000000;stroke-width:0.8;" x="57.6" xlink:href="#mffe3abcdbc" y="298.944"/>
      </g>
     </g>
     <g id="text_6">
      <!-- 0.0 -->
      <defs>
       <path d="M 10.6875 12.40625 
L 21 12.40625 
L 21 0 
L 10.6875 0 
z
" id="DejaVuSans-46"/>
      </defs>
      <g transform="translate(25.155 305.02275)scale(0.16 -0.16)">
       <use xlink:href="#DejaVuSans-48"/>
       <use x="63.623047" xlink:href="#DejaVuSans-46"/>
       <use x="95.410156" xlink:href="#DejaVuSans-48"/>
      </g>
     </g>
    </g>
    <g id="ytick_2">
     <g id="line2d_31">
      <path clip-path="url(#p73feeeaff8)" d="M 57.6 245.22202 
L 338.688 245.22202 
" style="fill:none;stroke:#b0b0b0;stroke-linecap:square;stroke-width:0.8;"/>
     </g>
     <g id="line2d_32">
      <g>
       <use style="stroke:#000000;stroke-width:0.8;" x="57.6" xlink:href="#mffe3abcdbc" y="245.22202"/>
      </g>
     </g>
     <g id="text_7">
      <!-- 0.2 -->
      <g transform="translate(25.155 251.30077)scale(0.16 -0.16)">
       <use xlink:href="#DejaVuSans-48"/>
       <use x="63.623047" xlink:href="#DejaVuSans-46"/>
       <use x="95.410156" xlink:href="#DejaVuSans-50"/>
      </g>
     </g>
    </g>
    <g id="ytick_3">
     <g id="line2d_33">
      <path clip-path="url(#p73feeeaff8)" d="M 57.6 191.50004 
L 338.688 191.50004 
" style="fill:none;stroke:#b0b0b0;stroke-linecap:square;stroke-width:0.8;"/>
     </g>
     <g id="line2d_34">
      <g>
       <use style="stroke:#000000;stroke-width:0.8;" x="57.6" xlink:href="#mffe3abcdbc" y="191.50004"/>
      </g>
     </g>
     <g id="text_8">
      <!-- 0.4 -->
      <g transform="translate(25.155 197.57879)scale(0.16 -0.16)">
       <use xlink:href="#DejaVuSans-48"/>
       <use x="63.623047" xlink:href="#DejaVuSans-46"/>
       <use x="95.410156" xlink:href="#DejaVuSans-52"/>
      </g>
     </g>
    </g>
    <g id="ytick_4">
     <g id="line2d_35">
      <path clip-path="url(#p73feeeaff8)" d="M 57.6 137.778059 
L 338.688 137.778059 
" style="fill:none;stroke:#b0b0b0;stroke-linecap:square;stroke-width:0.8;"/>
     </g>
     <g id="line2d_36">
      <g>
       <use style="stroke:#000000;stroke-width:0.8;" x="57.6" xlink:href="#mffe3abcdbc" y="137.778059"/>
      </g>
     </g>
     <g id="text_9">
      <!-- 0.6 -->
      <g transform="translate(25.155 143.856809)scale(0.16 -0.16)">
       <use xlink:href="#DejaVuSans-48"/>
       <use x="63.623047" xlink:href="#DejaVuSans-46"/>
       <use x="95.410156" xlink:href="#DejaVuSans-54"/>
      </g>
     </g>
    </g>
    <g id="ytick_5">
     <g id="line2d_37">
      <path clip-path="url(#p73feeeaff8)" d="M 57.6 84.056079 
L 338.688 84.056079 
" style="fill:none;stroke:#b0b0b0;stroke-linecap:square;stroke-width:0.8;"/>
     </g>
     <g id="line2d_38">
      <g>
       <use style="stroke:#000000;stroke-width:0.8;" x="57.6" xlink:href="#mffe3abcdbc" y="84.056079"/>
      </g>
     </g>
     <g id="text_10">
      <!-- 0.8 -->
      <defs>
       <path d="M 31.78125 34.625 
Q 24.75 34.625 20.71875 30.859375 
Q 16.703125 27.09375 16.703125 20.515625 
Q 16.703125 13.921875 20.71875 10.15625 
Q 24.75 6.390625 31.78125 6.390625 
Q 38.8125 6.390625 42.859375 10.171875 
Q 46.921875 13.96875 46.921875 20.515625 
Q 46.921875 27.09375 42.890625 30.859375 
Q 38.875 34.625 31.78125 34.625 
z
M 21.921875 38.8125 
Q 15.578125 40.375 12.03125 44.71875 
Q 8.5 49.078125 8.5 55.328125 
Q 8.5 64.0625 14.71875 69.140625 
Q 20.953125 74.21875 31.78125 74.21875 
Q 42.671875 74.21875 48.875 69.140625 
Q 55.078125 64.0625 55.078125 55.328125 
Q 55.078125 49.078125 51.53125 44.71875 
Q 48 40.375 41.703125 38.8125 
Q 48.828125 37.15625 52.796875 32.3125 
Q 56.78125 27.484375 56.78125 20.515625 
Q 56.78125 9.90625 50.3125 4.234375 
Q 43.84375 -1.421875 31.78125 -1.421875 
Q 19.734375 -1.421875 13.25 4.234375 
Q 6.78125 9.90625 6.78125 20.515625 
Q 6.78125 27.484375 10.78125 32.3125 
Q 14.796875 37.15625 21.921875 38.8125 
z
M 18.3125 54.390625 
Q 18.3125 48.734375 21.84375 45.5625 
Q 25.390625 42.390625 31.78125 42.390625 
Q 38.140625 42.390625 41.71875 45.5625 
Q 45.3125 48.734375 45.3125 54.390625 
Q 45.3125 60.0625 41.71875 63.234375 
Q 38.140625 66.40625 31.78125 66.40625 
Q 25.390625 66.40625 21.84375 63.234375 
Q 18.3125 60.0625 18.3125 54.390625 
z
" id="DejaVuSans-56"/>
      </defs>
      <g transform="translate(25.155 90.134829)scale(0.16 -0.16)">
       <use xlink:href="#DejaVuSans-48"/>
       <use x="63.623047" xlink:href="#DejaVuSans-46"/>
       <use x="95.410156" xlink:href="#DejaVuSans-56"/>
      </g>
     </g>
    </g>
    <g id="ytick_6">
     <g id="line2d_39">
      <path clip-path="url(#p73feeeaff8)" d="M 57.6 30.334099 
L 338.688 30.334099 
" style="fill:none;stroke:#b0b0b0;stroke-linecap:square;stroke-width:0.8;"/>
     </g>
     <g id="line2d_40">
      <g>
       <use style="stroke:#000000;stroke-width:0.8;" x="57.6" xlink:href="#mffe3abcdbc" y="30.334099"/>
      </g>
     </g>
     <g id="text_11">
      <!-- 1.0 -->
      <g transform="translate(25.155 36.412849)scale(0.16 -0.16)">
       <use xlink:href="#DejaVuSans-49"/>
       <use x="63.623047" xlink:href="#DejaVuSans-46"/>
       <use x="95.410156" xlink:href="#DejaVuSans-48"/>
      </g>
     </g>
    </g>
    <g id="text_12">
     <!-- Fraction of function,target pairs -->
     <defs>
      <path d="M 9.8125 72.90625 
L 51.703125 72.90625 
L 51.703125 64.59375 
L 19.671875 64.59375 
L 19.671875 43.109375 
L 48.578125 43.109375 
L 48.578125 34.8125 
L 19.671875 34.8125 
L 19.671875 0 
L 9.8125 0 
z
" id="DejaVuSans-70"/>
      <path d="M 41.109375 46.296875 
Q 39.59375 47.171875 37.8125 47.578125 
Q 36.03125 48 33.890625 48 
Q 26.265625 48 22.1875 43.046875 
Q 18.109375 38.09375 18.109375 28.8125 
L 18.109375 0 
L 9.078125 0 
L 9.078125 54.6875 
L 18.109375 54.6875 
L 18.109375 46.1875 
Q 20.953125 51.171875 25.484375 53.578125 
Q 30.03125 56 36.53125 56 
Q 37.453125 56 38.578125 55.875 
Q 39.703125 55.765625 41.0625 55.515625 
z
" id="DejaVuSans-114"/>
      <path d="M 48.78125 52.59375 
L 48.78125 44.1875 
Q 44.96875 46.296875 41.140625 47.34375 
Q 37.3125 48.390625 33.40625 48.390625 
Q 24.65625 48.390625 19.8125 42.84375 
Q 14.984375 37.3125 14.984375 27.296875 
Q 14.984375 17.28125 19.8125 11.734375 
Q 24.65625 6.203125 33.40625 6.203125 
Q 37.3125 6.203125 41.140625 7.25 
Q 44.96875 8.296875 48.78125 10.40625 
L 48.78125 2.09375 
Q 45.015625 0.34375 40.984375 -0.53125 
Q 36.96875 -1.421875 32.421875 -1.421875 
Q 20.0625 -1.421875 12.78125 6.34375 
Q 5.515625 14.109375 5.515625 27.296875 
Q 5.515625 40.671875 12.859375 48.328125 
Q 20.21875 56 33.015625 56 
Q 37.15625 56 41.109375 55.140625 
Q 45.0625 54.296875 48.78125 52.59375 
z
" id="DejaVuSans-99"/>
      <path d="M 18.3125 70.21875 
L 18.3125 54.6875 
L 36.8125 54.6875 
L 36.8125 47.703125 
L 18.3125 47.703125 
L 18.3125 18.015625 
Q 18.3125 11.328125 20.140625 9.421875 
Q 21.96875 7.515625 27.59375 7.515625 
L 36.8125 7.515625 
L 36.8125 0 
L 27.59375 0 
Q 17.1875 0 13.234375 3.875 
Q 9.28125 7.765625 9.28125 18.015625 
L 9.28125 47.703125 
L 2.6875 47.703125 
L 2.6875 54.6875 
L 9.28125 54.6875 
L 9.28125 70.21875 
z
" id="DejaVuSans-116"/>
      <path d="M 8.5 21.578125 
L 8.5 54.6875 
L 17.484375 54.6875 
L 17.484375 21.921875 
Q 17.484375 14.15625 20.5 10.265625 
Q 23.53125 6.390625 29.59375 6.390625 
Q 36.859375 6.390625 41.078125 11.03125 
Q 45.3125 15.671875 45.3125 23.6875 
L 45.3125 54.6875 
L 54.296875 54.6875 
L 54.296875 0 
L 45.3125 0 
L 45.3125 8.40625 
Q 42.046875 3.421875 37.71875 1 
Q 33.40625 -1.421875 27.6875 -1.421875 
Q 18.265625 -1.421875 13.375 4.4375 
Q 8.5 10.296875 8.5 21.578125 
z
M 31.109375 56 
z
" id="DejaVuSans-117"/>
      <path d="M 11.71875 12.40625 
L 22.015625 12.40625 
L 22.015625 4 
L 14.015625 -11.625 
L 7.71875 -11.625 
L 11.71875 4 
z
" id="DejaVuSans-44"/>
      <path d="M 18.109375 8.203125 
L 18.109375 -20.796875 
L 9.078125 -20.796875 
L 9.078125 54.6875 
L 18.109375 54.6875 
L 18.109375 46.390625 
Q 20.953125 51.265625 25.265625 53.625 
Q 29.59375 56 35.59375 56 
Q 45.5625 56 51.78125 48.09375 
Q 58.015625 40.1875 58.015625 27.296875 
Q 58.015625 14.40625 51.78125 6.484375 
Q 45.5625 -1.421875 35.59375 -1.421875 
Q 29.59375 -1.421875 25.265625 0.953125 
Q 20.953125 3.328125 18.109375 8.203125 
z
M 48.6875 27.296875 
Q 48.6875 37.203125 44.609375 42.84375 
Q 40.53125 48.484375 33.40625 48.484375 
Q 26.265625 48.484375 22.1875 42.84375 
Q 18.109375 37.203125 18.109375 27.296875 
Q 18.109375 17.390625 22.1875 11.75 
Q 26.265625 6.109375 33.40625 6.109375 
Q 40.53125 6.109375 44.609375 11.75 
Q 48.6875 17.390625 48.6875 27.296875 
z
" id="DejaVuSans-112"/>
     </defs>
     <g transform="translate(17.619531 298.435375)rotate(-90)scale(0.17 -0.17)">
      <use xlink:href="#DejaVuSans-70"/>
      <use x="57.410156" xlink:href="#DejaVuSans-114"/>
      <use x="98.523438" xlink:href="#DejaVuSans-97"/>
      <use x="159.802734" xlink:href="#DejaVuSans-99"/>
      <use x="214.783203" xlink:href="#DejaVuSans-116"/>
      <use x="253.992188" xlink:href="#DejaVuSans-105"/>
      <use x="281.775391" xlink:href="#DejaVuSans-111"/>
      <use x="342.957031" xlink:href="#DejaVuSans-110"/>
      <use x="406.335938" xlink:href="#DejaVuSans-32"/>
      <use x="438.123047" xlink:href="#DejaVuSans-111"/>
      <use x="499.304688" xlink:href="#DejaVuSans-102"/>
      <use x="534.509766" xlink:href="#DejaVuSans-32"/>
      <use x="566.296875" xlink:href="#DejaVuSans-102"/>
      <use x="601.501953" xlink:href="#DejaVuSans-117"/>
      <use x="664.880859" xlink:href="#DejaVuSans-110"/>
      <use x="728.259766" xlink:href="#DejaVuSans-99"/>
      <use x="783.240234" xlink:href="#DejaVuSans-116"/>
      <use x="822.449219" xlink:href="#DejaVuSans-105"/>
      <use x="850.232422" xlink:href="#DejaVuSans-111"/>
      <use x="911.414062" xlink:href="#DejaVuSans-110"/>
      <use x="974.792969" xlink:href="#DejaVuSans-44"/>
      <use x="1006.580078" xlink:href="#DejaVuSans-116"/>
      <use x="1045.789062" xlink:href="#DejaVuSans-97"/>
      <use x="1107.068359" xlink:href="#DejaVuSans-114"/>
      <use x="1148.166016" xlink:href="#DejaVuSans-103"/>
      <use x="1211.642578" xlink:href="#DejaVuSans-101"/>
      <use x="1273.166016" xlink:href="#DejaVuSans-116"/>
      <use x="1312.375" xlink:href="#DejaVuSans-32"/>
      <use x="1344.162109" xlink:href="#DejaVuSans-112"/>
      <use x="1407.638672" xlink:href="#DejaVuSans-97"/>
      <use x="1468.917969" xlink:href="#DejaVuSans-105"/>
      <use x="1496.701172" xlink:href="#DejaVuSans-114"/>
      <use x="1537.814453" xlink:href="#DejaVuSans-115"/>
     </g>
    </g>
   </g>
   <g id="line2d_41">
    <defs>
     <path d="M 0 1.5 
C 0.397805 1.5 0.77937 1.341951 1.06066 1.06066 
C 1.341951 0.77937 1.5 0.397805 1.5 0 
C 1.5 -0.397805 1.341951 -0.77937 1.06066 -1.06066 
C 0.77937 -1.341951 0.397805 -1.5 0 -1.5 
C -0.397805 -1.5 -0.77937 -1.341951 -1.06066 -1.06066 
C -1.341951 -0.77937 -1.5 -0.397805 -1.5 0 
C -1.5 0.397805 -1.341951 0.77937 -1.06066 1.06066 
C -0.77937 1.341951 -0.397805 1.5 0 1.5 
z
" id="me3687a9669" style="stroke:#f5deb3;"/>
    </defs>
    <g>
     <use style="fill:#f5deb3;stroke:#f5deb3;" x="203.916686" xlink:href="#me3687a9669" y="30.334099"/>
     <use style="fill:#f5deb3;stroke:#f5deb3;" x="203.916686" xlink:href="#me3687a9669" y="30.334099"/>
    </g>
   </g>
   <g id="line2d_42">
    <defs>
     <path d="M 0 1.5 
C 0.397805 1.5 0.77937 1.341951 1.06066 1.06066 
C 1.341951 0.77937 1.5 0.397805 1.5 0 
C 1.5 -0.397805 1.341951 -0.77937 1.06066 -1.06066 
C 0.77937 -1.341951 0.397805 -1.5 0 -1.5 
C -0.397805 -1.5 -0.77937 -1.341951 -1.06066 -1.06066 
C -1.341951 -0.77937 -1.5 -0.397805 -1.5 0 
C -1.5 0.397805 -1.341951 0.77937 -1.06066 1.06066 
C -0.77937 1.341951 -0.397805 1.5 0 1.5 
z
" id="m123ee7681f" style="stroke:#000080;"/>
    </defs>
    <g>
     <use style="fill:#000080;stroke:#000080;" x="205.648862" xlink:href="#m123ee7681f" y="30.334099"/>
     <use style="fill:#000080;stroke:#000080;" x="205.648862" xlink:href="#m123ee7681f" y="30.334099"/>
    </g>
   </g>
   <g id="line2d_43">
    <path d="M 17.444571 298.944 
L 17.444571 290.517023 
L 29.53256 290.517023 
L 29.53256 289.990337 
L 36.60358 289.990337 
L 36.60358 288.936964 
L 41.620548 288.936964 
L 41.620548 288.410278 
L 48.691568 288.410278 
L 48.691568 287.356906 
L 55.762588 287.356906 
L 55.762588 286.83022 
L 57.6 286.83022 
L 57.6 286.303534 
L 59.262141 286.303534 
L 59.262141 285.776848 
L 62.175444 285.776848 
L 62.175444 285.250162 
L 67.850577 285.250162 
L 67.850577 284.723476 
L 69.687988 284.723476 
L 69.687988 284.19679 
L 72.867545 284.19679 
L 72.867545 283.670104 
L 76.759008 283.670104 
L 76.759008 283.143418 
L 80.416384 283.143418 
L 80.416384 282.616732 
L 81.775977 282.616732 
L 81.775977 282.090045 
L 82.626842 282.090045 
L 82.626842 281.563359 
L 83.830028 281.563359 
L 83.830028 281.036673 
L 87.952479 281.036673 
L 87.952479 280.509987 
L 88.553893 280.509987 
L 88.553893 279.983301 
L 89.418828 279.983301 
L 89.418828 279.456615 
L 91.029752 279.456615 
L 91.029752 278.929929 
L 91.284345 278.929929 
L 91.284345 278.403243 
L 92.267099 278.403243 
L 92.267099 277.876557 
L 93.197415 277.876557 
L 93.197415 277.349871 
L 97.928955 277.349871 
L 97.928955 276.823185 
L 98.935347 276.823185 
L 98.935347 276.296499 
L 101.365607 276.296499 
L 101.365607 275.769812 
L 102.330873 275.769812 
L 102.330873 275.243126 
L 103.993014 275.243126 
L 103.993014 274.71644 
L 104.826449 274.71644 
L 104.826449 274.189754 
L 105.171792 274.189754 
L 105.171792 273.136382 
L 105.51043 273.136382 
L 105.51043 272.08301 
L 105.951954 272.08301 
L 105.951954 271.556324 
L 107.314272 271.556324 
L 107.314272 271.029638 
L 108.294265 271.029638 
L 108.294265 270.502952 
L 109.131511 270.502952 
L 109.131511 269.976266 
L 109.843417 269.976266 
L 109.843417 269.449579 
L 110.188761 269.449579 
L 110.188761 268.922893 
L 110.61104 268.922893 
L 110.694282 267.869521 
L 113.095487 267.869521 
L 113.095487 267.342835 
L 113.453595 267.342835 
L 113.453595 266.816149 
L 114.080224 266.816149 
L 114.080224 266.289463 
L 114.418861 266.289463 
L 114.485807 265.236091 
L 115.648856 265.236091 
L 115.648856 264.709405 
L 117.259781 264.709405 
L 117.259781 264.182719 
L 117.486268 264.182719 
L 117.486268 263.656033 
L 117.654224 263.656033 
L 117.654224 263.129347 
L 117.930605 263.129347 
L 118.039942 262.075974 
L 118.523652 262.075974 
L 118.523652 261.549288 
L 119.301163 261.549288 
L 119.301163 261.022602 
L 120.093994 261.022602 
L 120.190611 259.96923 
L 121.08272 259.96923 
L 121.128432 258.915858 
L 122.657258 258.915858 
L 122.657258 258.389172 
L 123.152022 258.389172 
L 123.152022 257.862486 
L 123.313873 257.862486 
L 123.354102 256.809114 
L 124.406624 256.809114 
L 124.406624 255.229055 
L 125.291682 255.229055 
L 125.291682 254.702369 
L 125.612332 254.702369 
L 125.612332 254.175683 
L 125.752972 254.175683 
L 125.752972 253.648997 
L 126.065325 253.648997 
L 126.065325 253.122311 
L 126.405947 253.122311 
L 126.50685 252.068939 
L 126.573795 252.068939 
L 126.573795 251.542253 
L 127.035353 251.542253 
L 127.035353 251.015567 
L 127.165014 251.015567 
L 127.165014 249.962195 
L 127.642832 249.962195 
L 127.642832 249.435508 
L 128.046609 249.435508 
L 128.046609 248.908822 
L 128.411207 248.908822 
L 128.501178 247.85545 
L 129.489668 247.85545 
L 129.489668 247.328764 
L 129.602362 247.328764 
L 129.658437 246.275392 
L 130.344571 246.275392 
L 130.344571 245.748706 
L 130.743656 245.748706 
L 130.822389 244.695334 
L 131.185181 244.695334 
L 131.210808 243.641962 
L 131.414481 243.641962 
L 131.414481 242.588589 
L 131.715598 242.588589 
L 131.740458 241.535217 
L 131.913493 241.535217 
L 131.913493 241.008531 
L 132.446401 241.008531 
L 132.446401 240.481845 
L 132.730358 240.481845 
L 132.80063 239.428473 
L 133.19358 239.428473 
L 133.19358 238.901787 
L 133.622529 238.901787 
L 133.689303 237.848415 
L 133.82209 237.848415 
L 133.82209 237.321729 
L 134.766144 237.321729 
L 134.766144 236.795043 
L 134.911732 236.795043 
L 134.911732 236.268356 
L 135.260324 236.268356 
L 135.260324 235.74167 
L 135.401861 235.74167 
L 135.401861 235.214984 
L 135.542259 235.214984 
L 135.542259 234.688298 
L 135.800036 234.688298 
L 135.800036 234.161612 
L 136.034648 234.161612 
L 136.13148 233.10824 
L 136.494612 233.10824 
L 136.494612 232.581554 
L 136.664018 232.581554 
L 136.664018 232.054868 
L 136.924311 232.054868 
L 136.924311 231.528182 
L 137.162581 231.528182 
L 137.253364 230.47481 
L 137.433523 230.47481 
L 137.433523 229.948123 
L 138.01518 229.948123 
L 138.01518 229.421437 
L 138.69516 229.421437 
L 138.69516 228.894751 
L 138.84457 228.894751 
L 138.84457 228.368065 
L 139.107066 228.368065 
L 139.107066 227.841379 
L 139.715103 227.841379 
L 139.715103 227.314693 
L 140.165274 227.314693 
L 140.165274 226.788007 
L 140.454035 226.788007 
L 140.454035 226.261321 
L 140.767727 226.261321 
L 140.767727 225.734635 
L 140.973763 225.734635 
L 140.973763 224.681263 
L 141.521035 224.681263 
L 141.620002 223.627891 
L 141.80232 223.627891 
L 141.80232 223.101204 
L 142.256745 223.101204 
L 142.256745 222.574518 
L 142.405626 222.574518 
L 142.405626 222.047832 
L 142.659828 222.047832 
L 142.765762 220.99446 
L 143.247504 220.99446 
L 143.247504 220.467774 
L 143.413655 220.467774 
L 143.413655 219.941088 
L 143.716296 219.941088 
L 143.716296 219.414402 
L 144.099593 219.414402 
L 144.18499 218.36103 
L 144.794859 218.36103 
L 144.876926 217.307658 
L 145.178411 217.307658 
L 145.178411 216.780971 
L 145.395476 216.780971 
L 145.395476 216.254285 
L 145.508645 216.254285 
L 145.576196 215.200913 
L 145.888018 215.200913 
L 145.888018 214.674227 
L 146.377764 214.674227 
L 146.377764 214.147541 
L 147.236294 214.147541 
L 147.236294 213.094169 
L 147.690073 213.094169 
L 147.690073 212.567483 
L 148.676918 212.567483 
L 148.676918 212.040797 
L 150.67444 212.040797 
L 150.67444 211.514111 
L 152.428609 211.514111 
L 152.428609 210.987425 
L 153.207444 210.987425 
L 153.207444 210.460738 
L 163.645619 210.460738 
L 163.645619 209.934052 
L 172.120499 209.934052 
L 172.120499 209.407366 
L 172.271891 209.407366 
L 172.271891 208.88068 
L 172.824653 208.88068 
L 172.824653 208.353994 
L 173.209025 208.353994 
L 173.3124 207.300622 
L 173.607642 207.300622 
L 173.661605 206.24725 
L 174.268308 206.24725 
L 174.333234 204.140506 
L 174.445204 204.140506 
L 174.445204 203.613819 
L 174.611823 203.613819 
L 174.681839 201.507075 
L 174.7916 201.507075 
L 174.833633 199.927017 
L 175.017382 199.927017 
L 175.083722 198.873645 
L 175.133313 198.873645 
L 175.180705 197.820273 
L 175.303734 197.820273 
L 175.360852 195.713528 
L 175.615592 195.713528 
L 175.719647 193.606784 
L 175.737594 193.606784 
L 175.838945 192.026726 
L 175.94365 192.026726 
L 176.00264 189.919981 
L 176.100515 189.919981 
L 176.199784 188.339923 
L 176.323564 188.339923 
L 176.323564 187.813237 
L 176.541893 187.813237 
L 176.576117 186.759865 
L 176.753762 186.759865 
L 176.855001 185.179807 
L 176.916581 185.179807 
L 176.987223 183.599748 
L 177.114767 183.599748 
L 177.186447 182.546376 
L 177.276091 182.546376 
L 177.308905 181.493004 
L 177.399735 181.493004 
L 177.50811 179.912946 
L 177.524309 179.912946 
L 177.524309 179.38626 
L 177.703285 179.38626 
L 177.790317 178.332888 
L 177.95958 178.332888 
L 177.95958 177.806202 
L 178.231177 177.806202 
L 178.272588 176.226143 
L 178.559745 176.226143 
L 178.607149 174.646085 
L 178.67296 174.646085 
L 178.67296 174.119399 
L 179.003304 174.119399 
L 179.097254 173.066027 
L 179.246204 173.066027 
L 179.246204 172.539341 
L 179.722084 172.539341 
L 179.722084 172.012655 
L 180.14667 172.012655 
L 180.14667 171.485969 
L 180.937953 171.485969 
L 180.937953 170.959282 
L 182.153363 170.959282 
L 182.153363 170.432596 
L 182.493539 170.432596 
L 182.493539 169.90591 
L 184.269691 169.90591 
L 184.269691 169.379224 
L 188.167995 169.379224 
L 188.167995 168.852538 
L 188.312018 168.852538 
L 188.312018 168.325852 
L 188.424075 168.325852 
L 188.509564 167.27248 
L 188.649854 167.27248 
L 188.710581 166.219108 
L 188.905562 166.219108 
L 188.991525 164.63905 
L 189.085412 164.63905 
L 189.177875 163.058991 
L 189.224843 163.058991 
L 189.334858 159.372189 
L 189.35404 159.372189 
L 189.35404 158.845503 
L 189.508548 158.845503 
L 189.617693 156.738758 
L 189.626683 156.738758 
L 189.715433 154.632014 
L 189.759193 154.632014 
L 189.851709 151.998584 
L 189.896014 151.998584 
L 189.98957 149.891839 
L 190.016836 149.891839 
L 190.124602 147.258409 
L 190.15253 147.258409 
L 190.201297 146.205037 
L 190.350233 146.205037 
L 190.37608 145.151665 
L 190.461963 145.151665 
L 190.527806 144.098292 
L 190.629924 144.098292 
L 190.662138 142.518234 
L 190.752525 142.518234 
L 190.856691 140.41149 
L 190.870923 140.41149 
L 190.952743 138.304745 
L 190.99351 138.304745 
L 191.07393 136.198001 
L 191.111114 136.198001 
L 191.144099 135.144629 
L 191.297482 135.144629 
L 191.396017 132.511199 
L 191.434951 132.511199 
L 191.531102 129.877768 
L 191.581792 129.877768 
L 191.581792 129.351082 
L 191.701892 129.351082 
L 191.8069 126.190966 
L 191.81483 126.190966 
L 191.844929 125.137593 
L 191.969524 125.137593 
L 192.076843 121.977477 
L 192.08387 121.977477 
L 192.171859 118.290674 
L 192.209876 118.290674 
L 192.30263 115.657244 
L 192.324972 115.657244 
L 192.427071 112.497128 
L 192.450018 112.497128 
L 192.557468 107.756953 
L 192.58783 107.756953 
L 192.6703 105.123522 
L 192.714025 105.123522 
L 192.768902 101.963406 
L 192.85351 101.963406 
L 192.930274 99.856662 
L 192.971869 99.856662 
L 193.06362 97.223231 
L 193.086482 97.223231 
L 193.184231 94.063115 
L 193.20474 94.063115 
L 193.285807 91.429684 
L 193.324382 91.429684 
L 193.43382 89.32294 
L 193.435987 89.32294 
L 193.477836 88.269568 
L 193.59133 88.269568 
L 193.676325 85.636137 
L 193.706224 85.636137 
L 193.732522 84.582765 
L 193.868353 84.582765 
L 193.918315 83.002707 
L 194.003133 83.002707 
L 194.102845 80.895963 
L 194.138268 80.895963 
L 194.238592 78.789218 
L 194.279937 78.789218 
L 194.332853 77.20916 
L 194.460018 77.20916 
L 194.539536 76.155788 
L 194.741788 76.155788 
L 194.846039 74.57573 
L 194.936418 74.57573 
L 194.945696 72.995672 
L 195.05664 72.995672 
L 195.155758 71.415613 
L 195.489637 71.415613 
L 195.584416 69.835555 
L 195.703439 69.835555 
L 195.703439 69.308869 
L 195.871984 69.308869 
L 195.871984 68.782183 
L 196.117142 68.782183 
L 196.117142 68.255497 
L 196.295863 68.255497 
L 196.295863 67.728811 
L 196.637683 67.728811 
L 196.703095 66.675439 
L 196.897869 66.675439 
L 196.897869 66.148752 
L 201.510817 66.148752 
L 201.543068 65.09538 
L 201.853869 65.09538 
L 201.853869 64.568694 
L 202.02996 64.568694 
L 202.086798 63.515322 
L 202.14915 63.515322 
L 202.164923 62.46195 
L 202.310578 62.46195 
L 202.385979 61.408578 
L 202.458041 61.408578 
L 202.514791 60.355206 
L 202.627312 60.355206 
L 202.693289 58.775147 
L 202.837986 58.775147 
L 202.837986 58.248461 
L 202.976477 58.248461 
L 203.0374 57.195089 
L 203.152818 57.195089 
L 203.193323 56.141717 
L 203.286787 56.141717 
L 203.394452 54.034973 
L 203.445391 54.034973 
L 203.46735 52.9816 
L 203.620299 52.9816 
L 203.678214 51.401542 
L 203.739939 51.401542 
L 203.830527 48.768112 
L 203.8814 48.768112 
L 203.902025 47.71474 
L 204.03471 47.71474 
L 204.106554 46.134681 
L 204.172639 46.134681 
L 204.255186 44.027937 
L 204.346622 44.027937 
L 204.346622 43.501251 
L 204.474828 43.501251 
L 204.538771 40.867821 
L 204.639758 40.867821 
L 204.740541 37.707704 
L 204.804648 37.707704 
L 204.856515 36.127646 
L 204.922815 36.127646 
L 205.02198 34.020902 
L 205.091358 34.020902 
L 205.183312 32.440843 
L 205.38545 32.440843 
L 205.483113 31.387471 
L 205.557895 31.387471 
L 205.648862 30.334099 
L 338.688 30.334099 
L 338.688 30.334099 
" style="fill:none;stroke:#000080;stroke-linecap:square;stroke-width:1.5;"/>
   </g>
   <g id="line2d_44">
    <defs>
     <path d="M 0 6 
C 1.591219 6 3.117479 5.367802 4.242641 4.242641 
C 5.367802 3.117479 6 1.591219 6 0 
C 6 -1.591219 5.367802 -3.117479 4.242641 -4.242641 
C 3.117479 -5.367802 1.591219 -6 0 -6 
C -1.591219 -6 -3.117479 -5.367802 -4.242641 -4.242641 
C -5.367802 -3.117479 -6 -1.591219 -6 0 
C -6 1.591219 -5.367802 3.117479 -4.242641 4.242641 
C -3.117479 5.367802 -1.591219 6 0 6 
z
" id="m0f6cb1248a" style="stroke:#000080;stroke-width:1.5;"/>
    </defs>
    <g>
     <use style="fill-opacity:0;stroke:#000080;stroke-width:1.5;" x="131.740458" xlink:href="#m0f6cb1248a" y="242.061903"/>
     <use style="fill-opacity:0;stroke:#000080;stroke-width:1.5;" x="188.905562" xlink:href="#m0f6cb1248a" y="166.219108"/>
     <use style="fill-opacity:0;stroke:#000080;stroke-width:1.5;" x="205.648862" xlink:href="#m0f6cb1248a" y="30.860785"/>
     <use style="fill-opacity:0;stroke:#000080;stroke-width:1.5;" x="205.648862" xlink:href="#m0f6cb1248a" y="30.334099"/>
     <use style="fill-opacity:0;stroke:#000080;stroke-width:1.5;" x="205.648862" xlink:href="#m0f6cb1248a" y="30.334099"/>
     <use style="fill-opacity:0;stroke:#000080;stroke-width:1.5;" x="338.688" xlink:href="#m0f6cb1248a" y="30.334099"/>
    </g>
   </g>
   <g id="line2d_45">
    <path style="fill:none;stroke:#000080;stroke-linecap:square;stroke-width:1.5;"/>
    <g/>
   </g>
   <g id="line2d_46">
    <defs>
     <path d="M 0 1.5 
C 0.397805 1.5 0.77937 1.341951 1.06066 1.06066 
C 1.341951 0.77937 1.5 0.397805 1.5 0 
C 1.5 -0.397805 1.341951 -0.77937 1.06066 -1.06066 
C 0.77937 -1.341951 0.397805 -1.5 0 -1.5 
C -0.397805 -1.5 -0.77937 -1.341951 -1.06066 -1.06066 
C -1.341951 -0.77937 -1.5 -0.397805 -1.5 0 
C -1.5 0.397805 -1.341951 0.77937 -1.06066 1.06066 
C -0.77937 1.341951 -0.397805 1.5 0 1.5 
z
" id="m2681effb12" style="stroke:#ff0000;"/>
    </defs>
    <g>
     <use style="fill:#ff0000;stroke:#ff0000;" x="205.296022" xlink:href="#m2681effb12" y="30.334099"/>
     <use style="fill:#ff0000;stroke:#ff0000;" x="205.296022" xlink:href="#m2681effb12" y="30.334099"/>
    </g>
   </g>
   <g id="line2d_47">
    <path d="M 17.444571 298.944 
L 17.444571 291.570395 
L 29.53256 291.570395 
L 29.53256 289.990337 
L 36.60358 289.990337 
L 36.60358 288.936964 
L 41.620548 288.936964 
L 41.620548 288.410278 
L 45.512012 288.410278 
L 45.512012 287.883592 
L 57.6 287.883592 
L 57.6 287.356906 
L 67.850577 287.356906 
L 67.850577 286.83022 
L 73.579452 286.83022 
L 73.579452 286.303534 
L 75.555822 286.303534 
L 75.555822 285.776848 
L 78.421149 285.776848 
L 78.421149 285.250162 
L 78.941764 285.250162 
L 78.941764 284.723476 
L 83.438118 284.723476 
L 83.438118 284.19679 
L 83.830028 284.19679 
L 83.830028 283.143418 
L 84.213325 283.143418 
L 84.213325 282.616732 
L 86.012784 282.616732 
L 86.012784 282.090045 
L 88.255778 282.090045 
L 88.255778 281.563359 
L 88.553893 281.563359 
L 88.553893 281.036673 
L 92.969447 281.036673 
L 92.969447 280.509987 
L 93.422441 280.509987 
L 93.422441 279.456615 
L 94.714831 279.456615 
L 94.714831 278.403243 
L 95.723163 278.403243 
L 95.723163 277.876557 
L 96.110718 277.876557 
L 96.110718 277.349871 
L 96.489848 277.349871 
L 96.489848 276.823185 
L 96.676366 276.823185 
L 96.676366 276.296499 
L 99.731799 276.296499 
L 99.731799 275.769812 
L 101.079711 275.769812 
L 101.079711 275.243126 
L 101.365607 275.243126 
L 101.365607 274.71644 
L 101.506816 274.71644 
L 101.506816 274.189754 
L 101.785851 274.189754 
L 101.785851 273.663068 
L 103.993014 273.663068 
L 103.993014 273.136382 
L 107.414787 273.136382 
L 107.414787 272.609696 
L 108.483824 272.609696 
L 108.483824 272.08301 
L 109.668146 272.08301 
L 109.668146 271.556324 
L 110.016944 271.556324 
L 110.016944 271.029638 
L 110.188761 271.029638 
L 110.274038 269.976266 
L 110.443353 269.976266 
L 110.443353 269.449579 
L 111.104637 269.449579 
L 111.104637 268.922893 
L 111.584648 268.922893 
L 111.663381 267.869521 
L 112.655818 267.869521 
L 112.655818 267.342835 
L 113.73488 267.342835 
L 113.73488 266.816149 
L 114.351658 266.816149 
L 114.351658 266.289463 
L 115.012316 266.289463 
L 115.012316 265.762777 
L 115.397021 265.762777 
L 115.397021 265.236091 
L 115.523393 265.236091 
L 115.523393 264.709405 
L 117.316679 264.709405 
L 117.316679 264.182719 
L 117.486268 264.182719 
L 117.542433 263.129347 
L 117.765302 263.129347 
L 117.765302 262.60266 
L 118.734401 262.60266 
L 118.734401 262.075974 
L 119.250393 262.075974 
L 119.250393 261.549288 
L 120.045484 261.549288 
L 120.045484 261.022602 
L 120.33454 261.022602 
L 120.33454 260.495916 
L 120.47729 260.495916 
L 120.47729 259.96923 
L 121.400219 259.96923 
L 121.445108 258.915858 
L 122.573415 258.915858 
L 122.573415 258.389172 
L 122.740699 258.389172 
L 122.740699 257.862486 
L 123.152022 257.862486 
L 123.152022 257.3358 
L 123.273551 257.3358 
L 123.273551 256.809114 
L 123.985457 256.809114 
L 124.062793 255.755741 
L 124.482119 255.755741 
L 124.482119 255.229055 
L 125.717918 255.229055 
L 125.717918 254.702369 
L 126.030894 254.702369 
L 126.030894 254.175683 
L 126.372183 254.175683 
L 126.372183 253.648997 
L 126.673734 253.648997 
L 126.673734 253.122311 
L 127.067859 253.122311 
L 127.067859 252.595625 
L 127.197279 252.595625 
L 127.197279 252.068939 
L 127.892415 252.068939 
L 127.892415 251.542253 
L 128.679738 251.542253 
L 128.738855 250.488881 
L 129.46138 250.488881 
L 129.546106 249.435508 
L 129.574256 249.435508 
L 129.574256 248.908822 
L 130.290663 248.908822 
L 130.290663 248.382136 
L 130.638123 248.382136 
L 130.638123 247.85545 
L 130.76994 247.85545 
L 130.76994 247.328764 
L 131.159516 247.328764 
L 131.159516 246.802078 
L 132.230358 246.802078 
L 132.230358 246.275392 
L 133.124876 246.275392 
L 133.124876 245.748706 
L 133.667073 245.748706 
L 133.667073 245.22202 
L 134.192921 245.22202 
L 134.192921 244.695334 
L 134.450015 244.695334 
L 134.450015 243.641962 
L 135.701341 243.641962 
L 135.760625 242.588589 
L 136.189322 242.588589 
L 136.189322 242.061903 
L 136.304433 242.061903 
L 136.304433 241.535217 
L 136.79465 241.535217 
L 136.79465 241.008531 
L 138.049816 241.008531 
L 138.049816 240.481845 
L 139.793552 240.481845 
L 139.793552 239.955159 
L 141.249546 239.955159 
L 141.249546 239.428473 
L 142.161336 239.428473 
L 142.161336 238.901787 
L 143.716296 238.901787 
L 143.716296 238.375101 
L 144.282077 238.375101 
L 144.282077 237.848415 
L 166.729224 237.848415 
L 166.729224 237.321729 
L 167.226535 237.321729 
L 167.226535 236.795043 
L 167.513144 236.795043 
L 167.513144 236.268356 
L 168.653615 236.268356 
L 168.653615 235.74167 
L 169.554414 235.74167 
L 169.582803 234.688298 
L 169.816664 234.688298 
L 169.816664 234.161612 
L 170.055714 234.161612 
L 170.055714 233.634926 
L 170.364915 233.634926 
L 170.364915 233.10824 
L 170.548375 233.10824 
L 170.636716 232.054868 
L 170.801489 232.054868 
L 170.891192 230.47481 
L 170.933246 230.47481 
L 171.001368 229.421437 
L 171.188638 229.421437 
L 171.299527 226.788007 
L 171.307238 226.788007 
L 171.307238 226.261321 
L 171.519214 226.261321 
L 171.521752 225.207949 
L 171.640636 225.207949 
L 171.701032 223.627891 
L 171.768729 223.627891 
L 171.871027 221.521146 
L 171.910786 221.521146 
L 171.910786 220.99446 
L 172.022124 220.99446 
L 172.022124 220.467774 
L 172.184146 220.467774 
L 172.269459 218.36103 
L 172.4268 218.36103 
L 172.52532 216.780971 
L 172.68038 216.780971 
L 172.789287 215.727599 
L 172.902209 215.727599 
L 172.902209 215.200913 
L 173.190583 215.200913 
L 173.300944 213.620855 
L 173.39694 213.620855 
L 173.474266 211.514111 
L 173.578341 211.514111 
L 173.618898 210.460738 
L 174.030352 210.460738 
L 174.030352 209.934052 
L 174.37423 209.934052 
L 174.458078 208.353994 
L 174.515891 208.353994 
L 174.515891 207.827308 
L 174.816832 207.827308 
L 174.816832 207.300622 
L 175.172472 207.300622 
L 175.172472 206.773936 
L 175.579427 206.773936 
L 175.687696 205.720564 
L 175.701682 205.720564 
L 175.701682 205.193878 
L 175.925915 205.193878 
L 175.925915 204.667192 
L 176.193961 204.667192 
L 176.193961 204.140506 
L 182.446122 204.140506 
L 182.446122 203.613819 
L 182.61488 203.613819 
L 182.61488 203.087133 
L 182.820568 203.087133 
L 182.820568 202.560447 
L 183.263686 202.560447 
L 183.263686 202.033761 
L 183.435008 202.033761 
L 183.435008 201.507075 
L 184.489468 201.507075 
L 184.489468 200.980389 
L 184.828825 200.980389 
L 184.828825 200.453703 
L 185.283184 200.453703 
L 185.283184 199.927017 
L 185.835813 199.927017 
L 185.835813 199.400331 
L 186.110645 199.400331 
L 186.181967 198.346959 
L 186.371467 198.346959 
L 186.45683 195.713528 
L 186.658306 195.713528 
L 186.72212 192.553412 
L 186.805787 192.553412 
L 186.894312 190.973354 
L 186.936309 190.973354 
L 187.021044 189.919981 
L 187.080427 189.919981 
L 187.163432 188.339923 
L 187.209949 188.339923 
L 187.281035 186.759865 
L 187.415204 186.759865 
L 187.517947 185.179807 
L 187.543285 185.179807 
L 187.582739 184.126434 
L 187.655344 184.126434 
L 187.762688 182.01969 
L 187.767688 182.01969 
L 187.858437 179.912946 
L 187.920988 179.912946 
L 188.003056 177.806202 
L 188.109267 177.806202 
L 188.17288 175.172771 
L 188.230421 175.172771 
L 188.339132 172.539341 
L 188.35944 172.539341 
L 188.465431 169.90591 
L 188.49902 169.90591 
L 188.49902 169.379224 
L 188.665055 169.379224 
L 188.728569 167.27248 
L 188.83893 167.27248 
L 188.932705 165.692422 
L 188.978471 165.692422 
L 189.084485 162.532305 
L 189.133554 162.532305 
L 189.237714 158.845503 
L 189.288186 158.845503 
L 189.395073 156.738758 
L 189.427829 156.738758 
L 189.461432 154.105328 
L 189.541092 154.105328 
L 189.626683 152.52527 
L 189.708278 152.52527 
L 189.790383 149.891839 
L 189.83662 149.891839 
L 189.901323 147.785095 
L 189.978123 147.785095 
L 190.080875 145.678351 
L 190.157762 145.678351 
L 190.203036 144.624978 
L 190.298423 144.624978 
L 190.379524 143.571606 
L 190.411343 143.571606 
L 190.467103 142.518234 
L 190.593401 142.518234 
L 190.624833 141.464862 
L 190.751683 141.464862 
L 190.824835 140.41149 
L 190.898518 140.41149 
L 190.931907 139.358118 
L 191.164683 139.358118 
L 191.205778 138.304745 
L 191.282777 138.304745 
L 191.294216 137.251373 
L 191.408193 137.251373 
L 191.410627 136.198001 
L 191.674742 136.198001 
L 191.674742 135.671315 
L 191.80928 135.671315 
L 191.875766 134.617943 
L 192.051053 134.617943 
L 192.079966 133.564571 
L 192.202124 133.564571 
L 192.308796 131.984513 
L 193.054761 131.984513 
L 193.054761 131.457826 
L 193.29382 131.457826 
L 193.352713 130.404454 
L 193.426593 130.404454 
L 193.526053 128.824396 
L 193.899332 128.824396 
L 193.899332 128.29771 
L 194.122996 128.29771 
L 194.122996 127.771024 
L 194.495404 127.771024 
L 194.540892 126.717652 
L 194.775269 126.717652 
L 194.775269 126.190966 
L 194.89461 126.190966 
L 194.976805 125.137593 
L 195.162957 125.137593 
L 195.170153 124.084221 
L 195.29852 124.084221 
L 195.29852 123.557535 
L 195.665338 123.557535 
L 195.665338 123.030849 
L 195.927806 123.030849 
L 195.927806 122.504163 
L 196.164774 122.504163 
L 196.211045 121.450791 
L 196.356457 121.450791 
L 196.363788 120.397419 
L 196.476411 120.397419 
L 196.476411 119.870733 
L 196.588915 119.870733 
L 196.588915 119.344047 
L 198.414446 119.344047 
L 198.414446 118.817361 
L 198.659238 118.817361 
L 198.659238 118.290674 
L 198.796302 118.290674 
L 198.796302 117.763988 
L 198.921224 117.763988 
L 198.921224 117.237302 
L 199.142916 117.237302 
L 199.142916 116.710616 
L 199.257113 116.710616 
L 199.304647 115.657244 
L 199.503193 115.657244 
L 199.545991 114.077186 
L 199.629754 114.077186 
L 199.689412 112.497128 
L 199.744339 112.497128 
L 199.771487 111.443755 
L 199.962333 111.443755 
L 200.022351 110.390383 
L 200.093017 110.390383 
L 200.163397 108.283639 
L 200.22958 108.283639 
L 200.22958 107.756953 
L 200.345165 107.756953 
L 200.409695 106.176895 
L 200.548135 106.176895 
L 200.582214 105.123522 
L 200.679287 105.123522 
L 200.69454 104.07015 
L 200.921276 104.07015 
L 200.988398 101.43672 
L 201.055263 101.43672 
L 201.096749 100.383348 
L 201.175255 100.383348 
L 201.283376 96.696545 
L 201.291205 96.696545 
L 201.32754 94.063115 
L 201.43381 94.063115 
L 201.517636 92.483056 
L 201.550328 92.483056 
L 201.550328 91.95637 
L 201.71557 91.95637 
L 201.790003 89.849626 
L 201.873474 89.849626 
L 201.929935 87.742882 
L 201.992408 87.742882 
L 202.084159 84.056079 
L 202.113171 84.056079 
L 202.192927 80.369277 
L 202.227433 80.369277 
L 202.333146 76.682474 
L 202.360881 76.682474 
L 202.438221 72.995672 
L 202.490308 72.995672 
L 202.594017 66.675439 
L 202.616221 66.675439 
L 202.722579 63.515322 
L 202.747585 63.515322 
L 202.770441 61.935264 
L 202.876706 61.935264 
L 202.973551 59.301833 
L 203.045312 59.301833 
L 203.15199 55.615031 
L 203.211479 55.615031 
L 203.304846 52.454914 
L 203.327803 52.454914 
L 203.404651 49.821484 
L 203.456374 49.821484 
L 203.505511 47.188054 
L 203.591673 47.188054 
L 203.701086 44.554623 
L 203.704294 44.554623 
L 203.79387 41.921193 
L 203.836894 41.921193 
L 203.939643 39.287762 
L 203.968494 39.287762 
L 204.048081 37.181018 
L 204.134739 37.181018 
L 204.241585 35.60096 
L 204.366318 35.60096 
L 204.457942 34.547588 
L 204.688328 34.547588 
L 204.724667 33.494215 
L 204.851636 33.494215 
L 204.888011 32.440843 
L 205.108752 32.440843 
L 205.183312 31.387471 
L 205.236637 31.387471 
L 205.296022 30.334099 
L 338.688 30.334099 
L 338.688 30.334099 
" style="fill:none;stroke:#ff0000;stroke-linecap:square;stroke-width:1.5;"/>
   </g>
   <g id="line2d_48">
    <defs>
     <path d="M 0 -6 
L -5.196152 -3 
L -5.196152 3 
L -0 6 
L 5.196152 3 
L 5.196152 -3 
z
" id="ma31bd5516a" style="stroke:#ff0000;stroke-linejoin:miter;stroke-width:1.5;"/>
    </defs>
    <g>
     <use style="fill-opacity:0;stroke:#ff0000;stroke-linejoin:miter;stroke-width:1.5;" x="67.850577" xlink:href="#ma31bd5516a" y="286.83022"/>
     <use style="fill-opacity:0;stroke:#ff0000;stroke-linejoin:miter;stroke-width:1.5;" x="144.282077" xlink:href="#ma31bd5516a" y="238.375101"/>
     <use style="fill-opacity:0;stroke:#ff0000;stroke-linejoin:miter;stroke-width:1.5;" x="202.113171" xlink:href="#ma31bd5516a" y="83.529393"/>
     <use style="fill-opacity:0;stroke:#ff0000;stroke-linejoin:miter;stroke-width:1.5;" x="205.296022" xlink:href="#ma31bd5516a" y="30.860785"/>
     <use style="fill-opacity:0;stroke:#ff0000;stroke-linejoin:miter;stroke-width:1.5;" x="205.296022" xlink:href="#ma31bd5516a" y="30.334099"/>
     <use style="fill-opacity:0;stroke:#ff0000;stroke-linejoin:miter;stroke-width:1.5;" x="338.688" xlink:href="#ma31bd5516a" y="30.334099"/>
    </g>
   </g>
   <g id="line2d_49">
    <path style="fill:none;stroke:#ff0000;stroke-linecap:square;stroke-width:1.5;"/>
    <g/>
   </g>
   <g id="line2d_50">
    <defs>
     <path d="M 0 1.5 
C 0.397805 1.5 0.77937 1.341951 1.06066 1.06066 
C 1.341951 0.77937 1.5 0.397805 1.5 0 
C 1.5 -0.397805 1.341951 -0.77937 1.06066 -1.06066 
C 0.77937 -1.341951 0.397805 -1.5 0 -1.5 
C -0.397805 -1.5 -0.77937 -1.341951 -1.06066 -1.06066 
C -1.341951 -0.77937 -1.5 -0.397805 -1.5 0 
C -1.5 0.397805 -1.341951 0.77937 -1.06066 1.06066 
C -0.77937 1.341951 -0.397805 1.5 0 1.5 
z
" id="mb96c37623c" style="stroke:#bebebe;"/>
    </defs>
    <g>
     <use style="fill:#bebebe;stroke:#bebebe;" x="345.233855" xlink:href="#mb96c37623c" y="262.075974"/>
     <use style="fill:#bebebe;stroke:#bebebe;" x="345.233855" xlink:href="#mb96c37623c" y="262.075974"/>
    </g>
   </g>
   <g id="line2d_51">
    <path d="M 17.444571 298.944 
L 17.444571 296.837256 
L 29.53256 296.837256 
L 29.53256 296.31057 
L 36.60358 296.31057 
L 36.60358 295.257197 
L 41.620548 295.257197 
L 41.620548 293.150453 
L 45.512012 293.150453 
L 45.512012 291.043709 
L 51.379845 291.043709 
L 51.379845 289.990337 
L 57.6 289.990337 
L 57.6 288.410278 
L 60.779557 288.410278 
L 60.779557 287.883592 
L 62.175444 287.883592 
L 62.175444 287.356906 
L 63.467834 287.356906 
L 63.467834 286.83022 
L 67.850577 286.83022 
L 67.850577 285.776848 
L 72.125336 285.776848 
L 72.125336 285.250162 
L 74.263433 285.250162 
L 74.263433 284.723476 
L 76.759008 284.723476 
L 76.759008 284.19679 
L 86.351421 284.19679 
L 86.351421 283.670104 
L 99.258306 283.670104 
L 99.258306 283.143418 
L 107.514726 283.143418 
L 107.514726 282.616732 
L 112.506763 282.616732 
L 112.506763 282.090045 
L 123.94666 282.090045 
L 123.94666 281.563359 
L 130.952826 281.563359 
L 130.952826 281.036673 
L 133.33018 281.036673 
L 133.33018 280.509987 
L 138.290362 280.509987 
L 138.290362 279.983301 
L 138.661784 279.983301 
L 138.661784 279.456615 
L 140.211187 279.456615 
L 140.211187 278.929929 
L 140.88576 278.929929 
L 140.88576 278.403243 
L 144.759569 278.403243 
L 144.759569 277.876557 
L 146.183513 277.876557 
L 146.183513 276.823185 
L 150.146453 276.823185 
L 150.146453 276.296499 
L 158.652556 276.296499 
L 158.652556 275.769812 
L 162.707819 275.769812 
L 162.707819 275.243126 
L 166.895472 275.243126 
L 166.895472 274.71644 
L 205.40328 274.71644 
L 205.40328 274.189754 
L 209.597825 274.189754 
L 209.597825 273.663068 
L 210.615822 273.663068 
L 210.615822 273.136382 
L 213.424256 273.136382 
L 213.424256 272.609696 
L 216.936245 272.609696 
L 216.936245 272.08301 
L 227.698511 272.08301 
L 227.698511 271.556324 
L 228.273811 271.556324 
L 228.273811 271.029638 
L 231.631005 271.029638 
L 231.631005 270.502952 
L 232.701041 270.502952 
L 232.701041 269.976266 
L 237.858862 269.976266 
L 237.858862 269.449579 
L 242.368194 269.449579 
L 242.368194 268.922893 
L 245.540514 268.922893 
L 245.540514 268.396207 
L 251.575363 268.396207 
L 251.575363 267.869521 
L 257.840526 267.869521 
L 257.840526 267.342835 
L 288.265332 267.342835 
L 288.265332 266.816149 
L 314.891698 266.816149 
L 314.891698 265.762777 
L 324.97455 265.762777 
L 324.97455 265.236091 
L 328.435758 265.236091 
L 328.435758 264.709405 
L 333.798511 264.709405 
L 333.798511 264.182719 
L 338.688 264.182719 
" style="fill:none;stroke:#bebebe;stroke-linecap:square;stroke-width:1.5;"/>
   </g>
   <g id="line2d_52">
    <defs>
     <path d="M 0 0 
L -6 -0 
M 0 0 
L 3 4.8 
M 0 0 
L 3 -4.8 
" id="m74c6e814f4" style="stroke:#bebebe;stroke-width:1.5;"/>
    </defs>
    <g>
     <use style="fill-opacity:0;stroke:#bebebe;stroke-width:1.5;" x="76.759008" xlink:href="#m74c6e814f4" y="284.723476"/>
     <use style="fill-opacity:0;stroke:#bebebe;stroke-width:1.5;" x="166.895472" xlink:href="#m74c6e814f4" y="275.243126"/>
     <use style="fill-opacity:0;stroke:#bebebe;stroke-width:1.5;" x="216.936245" xlink:href="#m74c6e814f4" y="272.08301"/>
     <use style="fill-opacity:0;stroke:#bebebe;stroke-width:1.5;" x="288.265332" xlink:href="#m74c6e814f4" y="267.342835"/>
     <use style="fill-opacity:0;stroke:#bebebe;stroke-width:1.5;" x="333.798511" xlink:href="#m74c6e814f4" y="264.182719"/>
     <use style="fill-opacity:0;stroke:#bebebe;stroke-width:1.5;" x="338.688" xlink:href="#m74c6e814f4" y="264.182719"/>
    </g>
   </g>
   <g id="line2d_53">
    <path style="fill:none;stroke:#bebebe;stroke-linecap:square;stroke-width:1.5;"/>
    <g/>
   </g>
   <g id="line2d_54">
    <path clip-path="url(#p73feeeaff8)" d="M 298.532571 266.816149 
" style="fill:none;stroke:#bebebe;stroke-linecap:square;stroke-width:1.5;"/>
    <defs>
     <path d="M -12 12 
L 12 -12 
M -12 -12 
L 12 12 
" id="m2dfe90cb80" style="stroke:#bebebe;"/>
    </defs>
    <g clip-path="url(#p73feeeaff8)">
     <use style="fill:#bebebe;stroke:#bebebe;" x="298.532571" xlink:href="#m2dfe90cb80" y="266.816149"/>
    </g>
   </g>
   <g id="line2d_55">
    <defs>
     <path d="M 0 1.5 
C 0.397805 1.5 0.77937 1.341951 1.06066 1.06066 
C 1.341951 0.77937 1.5 0.397805 1.5 0 
C 1.5 -0.397805 1.341951 -0.77937 1.06066 -1.06066 
C 0.77937 -1.341951 0.397805 -1.5 0 -1.5 
C -0.397805 -1.5 -0.77937 -1.341951 -1.06066 -1.06066 
C -1.341951 -0.77937 -1.5 -0.397805 -1.5 0 
C -1.5 0.397805 -1.341951 0.77937 -1.06066 1.06066 
C -0.77937 1.341951 -0.397805 1.5 0 1.5 
z
" id="m517bdc121e" style="stroke:#6495ed;"/>
    </defs>
    <g>
     <use style="fill:#6495ed;stroke:#6495ed;" x="303.440029" xlink:href="#m517bdc121e" y="262.075974"/>
     <use style="fill:#6495ed;stroke:#6495ed;" x="303.440029" xlink:href="#m517bdc121e" y="262.075974"/>
    </g>
   </g>
   <g id="line2d_56">
    <path d="M 17.444571 298.944 
L 17.444571 293.150453 
L 65.796525 293.150453 
L 65.796525 292.623767 
L 66.853775 292.623767 
L 66.853775 292.097081 
L 68.79347 292.097081 
L 68.79347 291.043709 
L 69.687988 291.043709 
L 69.687988 290.517023 
L 78.421149 290.517023 
L 78.421149 289.990337 
L 79.938565 289.990337 
L 79.938565 288.936964 
L 87.329581 288.936964 
L 87.329581 288.410278 
L 95.526106 288.410278 
L 95.526106 287.883592 
L 97.755429 287.883592 
L 97.755429 287.356906 
L 97.928955 287.356906 
L 97.928955 286.83022 
L 98.100772 286.83022 
L 98.100772 286.303534 
L 104.355088 286.303534 
L 104.355088 285.776848 
L 105.621863 285.776848 
L 105.621863 285.250162 
L 115.835374 285.250162 
L 115.835374 284.723476 
L 119.199476 284.723476 
L 119.199476 283.143418 
L 119.250393 283.143418 
L 119.250393 282.616732 
L 121.84399 282.616732 
L 121.84399 282.090045 
L 126.133984 282.090045 
L 126.133984 281.563359 
L 149.867558 281.563359 
L 149.867558 281.036673 
L 153.785358 281.036673 
L 153.785358 280.509987 
L 161.933569 280.509987 
L 161.933569 279.983301 
L 165.168018 279.983301 
L 165.168018 279.456615 
L 165.244578 279.456615 
L 165.244578 278.929929 
L 170.967341 278.929929 
L 170.967341 278.403243 
L 173.250449 278.403243 
L 173.250449 277.876557 
L 173.512801 277.876557 
L 173.512801 277.349871 
L 173.639141 277.349871 
L 173.639141 276.823185 
L 175.160115 276.823185 
L 175.160115 276.296499 
L 175.417783 276.296499 
L 175.417783 275.769812 
L 176.207546 275.769812 
L 176.207546 275.243126 
L 188.545937 275.243126 
L 188.545937 274.71644 
L 192.495822 274.71644 
L 192.495822 274.189754 
L 195.487711 274.189754 
L 195.487711 273.663068 
L 206.393029 273.663068 
L 206.393029 273.136382 
L 209.495153 273.136382 
L 209.495153 272.609696 
L 212.946603 272.609696 
L 212.946603 272.08301 
L 215.902985 272.08301 
L 215.902985 271.556324 
L 234.726941 271.556324 
L 234.726941 271.029638 
L 235.067504 271.029638 
L 235.067504 270.502952 
L 235.075334 270.502952 
L 235.075334 269.976266 
L 235.942081 269.976266 
L 235.942081 269.449579 
L 242.810992 269.449579 
L 242.810992 268.922893 
L 245.558891 268.922893 
L 245.558891 268.396207 
L 251.231235 268.396207 
L 251.231235 267.869521 
L 251.685722 267.869521 
L 251.685722 267.342835 
L 255.871127 267.342835 
L 255.871127 266.816149 
L 255.910988 266.816149 
L 255.910988 266.289463 
L 259.882884 266.289463 
L 259.882884 265.762777 
L 262.823205 265.762777 
L 262.823205 265.236091 
L 262.826678 265.236091 
L 262.826678 264.709405 
L 271.325943 264.709405 
L 271.325943 264.182719 
L 272.916993 264.182719 
L 272.916993 263.656033 
L 279.296726 263.656033 
L 279.296726 263.129347 
L 283.084144 263.129347 
L 283.084144 262.60266 
L 303.440029 262.60266 
L 303.440029 262.075974 
L 338.688 262.075974 
" style="fill:none;stroke:#6495ed;stroke-linecap:square;stroke-width:1.5;"/>
   </g>
   <g id="line2d_57">
    <defs>
     <path d="M -0 6 
L 6 -6 
L -6 -6 
z
" id="m910657eac4" style="stroke:#6495ed;stroke-linejoin:miter;stroke-width:1.5;"/>
    </defs>
    <g>
     <use style="fill-opacity:0;stroke:#6495ed;stroke-linejoin:miter;stroke-width:1.5;" x="119.250393" xlink:href="#m910657eac4" y="282.616732"/>
     <use style="fill-opacity:0;stroke:#6495ed;stroke-linejoin:miter;stroke-width:1.5;" x="206.393029" xlink:href="#m910657eac4" y="273.663068"/>
     <use style="fill-opacity:0;stroke:#6495ed;stroke-linejoin:miter;stroke-width:1.5;" x="279.296726" xlink:href="#m910657eac4" y="263.656033"/>
     <use style="fill-opacity:0;stroke:#6495ed;stroke-linejoin:miter;stroke-width:1.5;" x="303.440029" xlink:href="#m910657eac4" y="262.075974"/>
     <use style="fill-opacity:0;stroke:#6495ed;stroke-linejoin:miter;stroke-width:1.5;" x="303.440029" xlink:href="#m910657eac4" y="262.075974"/>
     <use style="fill-opacity:0;stroke:#6495ed;stroke-linejoin:miter;stroke-width:1.5;" x="338.688" xlink:href="#m910657eac4" y="262.075974"/>
    </g>
   </g>
   <g id="line2d_58">
    <path style="fill:none;stroke:#6495ed;stroke-linecap:square;stroke-width:1.5;"/>
    <g/>
   </g>
   <g id="line2d_59">
    <path clip-path="url(#p73feeeaff8)" d="M 230.519452 271.556324 
" style="fill:none;stroke:#6495ed;stroke-linecap:square;stroke-width:1.5;"/>
    <defs>
     <path d="M -12 12 
L 12 -12 
M -12 -12 
L 12 12 
" id="m4ee0e13a6e" style="stroke:#6495ed;"/>
    </defs>
    <g clip-path="url(#p73feeeaff8)">
     <use style="fill:#6495ed;stroke:#6495ed;" x="230.519452" xlink:href="#m4ee0e13a6e" y="271.556324"/>
    </g>
   </g>
   <g id="line2d_60">
    <path d="M 338.688 264.182719 
L 369.60768 293.571802 
" style="fill:none;stroke:#bebebe;stroke-linecap:square;stroke-width:1.5;"/>
    <g>
     <use style="fill-opacity:0;stroke:#bebebe;stroke-width:1.5;" x="338.688" xlink:href="#m74c6e814f4" y="264.182719"/>
     <use style="fill-opacity:0;stroke:#bebebe;stroke-width:1.5;" x="369.60768" xlink:href="#m74c6e814f4" y="293.571802"/>
    </g>
   </g>
   <g id="line2d_61">
    <path d="M 338.688 262.075974 
L 369.60768 229.105426 
" style="fill:none;stroke:#6495ed;stroke-linecap:square;stroke-width:1.5;"/>
    <g>
     <use style="fill-opacity:0;stroke:#6495ed;stroke-linejoin:miter;stroke-width:1.5;" x="338.688" xlink:href="#m910657eac4" y="262.075974"/>
     <use style="fill-opacity:0;stroke:#6495ed;stroke-linejoin:miter;stroke-width:1.5;" x="369.60768" xlink:href="#m910657eac4" y="229.105426"/>
    </g>
   </g>
   <g id="line2d_62">
    <path d="M 338.688 30.334099 
L 369.60768 164.63905 
" style="fill:none;stroke:#000080;stroke-linecap:square;stroke-width:1.5;"/>
    <g>
     <use style="fill-opacity:0;stroke:#000080;stroke-width:1.5;" x="338.688" xlink:href="#m0f6cb1248a" y="30.334099"/>
     <use style="fill-opacity:0;stroke:#000080;stroke-width:1.5;" x="369.60768" xlink:href="#m0f6cb1248a" y="164.63905"/>
    </g>
   </g>
   <g id="line2d_63">
    <path d="M 338.688 30.334099 
L 369.60768 100.172673 
" style="fill:none;stroke:#ff0000;stroke-linecap:square;stroke-width:1.5;"/>
    <g>
     <use style="fill-opacity:0;stroke:#ff0000;stroke-linejoin:miter;stroke-width:1.5;" x="338.688" xlink:href="#ma31bd5516a" y="30.334099"/>
     <use style="fill-opacity:0;stroke:#ff0000;stroke-linejoin:miter;stroke-width:1.5;" x="369.60768" xlink:href="#ma31bd5516a" y="100.172673"/>
    </g>
   </g>
   <g id="line2d_64">
    <path d="M 338.688 298.944 
L 338.688 30.334099 
" style="fill:none;stroke:#000000;stroke-linecap:square;stroke-width:1.5;"/>
   </g>
   <g id="patch_3">
    <path d="M 57.6 298.944 
L 57.6 27.648 
" style="fill:none;stroke:#000000;stroke-linecap:square;stroke-linejoin:miter;stroke-width:0.8;"/>
   </g>
   <g id="patch_4">
    <path d="M 338.688 298.944 
L 338.688 27.648 
" style="fill:none;stroke:#000000;stroke-linecap:square;stroke-linejoin:miter;stroke-width:0.8;"/>
   </g>
   <g id="patch_5">
    <path d="M 57.6 298.944 
L 338.688 298.944 
" style="fill:none;stroke:#000000;stroke-linecap:square;stroke-linejoin:miter;stroke-width:0.8;"/>
   </g>
   <g id="patch_6">
    <path d="M 57.6 27.648 
L 338.688 27.648 
" style="fill:none;stroke:#000000;stroke-linecap:square;stroke-linejoin:miter;stroke-width:0.8;"/>
   </g>
   <g id="text_13">
    <!-- RANDOMSEA -->
    <defs>
     <path d="M 44.390625 34.1875 
Q 47.5625 33.109375 50.5625 29.59375 
Q 53.5625 26.078125 56.59375 19.921875 
L 66.609375 0 
L 56 0 
L 46.6875 18.703125 
Q 43.0625 26.03125 39.671875 28.421875 
Q 36.28125 30.8125 30.421875 30.8125 
L 19.671875 30.8125 
L 19.671875 0 
L 9.8125 0 
L 9.8125 72.90625 
L 32.078125 72.90625 
Q 44.578125 72.90625 50.734375 67.671875 
Q 56.890625 62.453125 56.890625 51.90625 
Q 56.890625 45.015625 53.6875 40.46875 
Q 50.484375 35.9375 44.390625 34.1875 
z
M 19.671875 64.796875 
L 19.671875 38.921875 
L 32.078125 38.921875 
Q 39.203125 38.921875 42.84375 42.21875 
Q 46.484375 45.515625 46.484375 51.90625 
Q 46.484375 58.296875 42.84375 61.546875 
Q 39.203125 64.796875 32.078125 64.796875 
z
" id="DejaVuSans-82"/>
     <path d="M 34.1875 63.1875 
L 20.796875 26.90625 
L 47.609375 26.90625 
z
M 28.609375 72.90625 
L 39.796875 72.90625 
L 67.578125 0 
L 57.328125 0 
L 50.6875 18.703125 
L 17.828125 18.703125 
L 11.1875 0 
L 0.78125 0 
z
" id="DejaVuSans-65"/>
     <path d="M 9.8125 72.90625 
L 23.09375 72.90625 
L 55.421875 11.921875 
L 55.421875 72.90625 
L 64.984375 72.90625 
L 64.984375 0 
L 51.703125 0 
L 19.390625 60.984375 
L 19.390625 0 
L 9.8125 0 
z
" id="DejaVuSans-78"/>
     <path d="M 19.671875 64.796875 
L 19.671875 8.109375 
L 31.59375 8.109375 
Q 46.6875 8.109375 53.6875 14.9375 
Q 60.6875 21.78125 60.6875 36.53125 
Q 60.6875 51.171875 53.6875 57.984375 
Q 46.6875 64.796875 31.59375 64.796875 
z
M 9.8125 72.90625 
L 30.078125 72.90625 
Q 51.265625 72.90625 61.171875 64.09375 
Q 71.09375 55.28125 71.09375 36.53125 
Q 71.09375 17.671875 61.125 8.828125 
Q 51.171875 0 30.078125 0 
L 9.8125 0 
z
" id="DejaVuSans-68"/>
     <path d="M 39.40625 66.21875 
Q 28.65625 66.21875 22.328125 58.203125 
Q 16.015625 50.203125 16.015625 36.375 
Q 16.015625 22.609375 22.328125 14.59375 
Q 28.65625 6.59375 39.40625 6.59375 
Q 50.140625 6.59375 56.421875 14.59375 
Q 62.703125 22.609375 62.703125 36.375 
Q 62.703125 50.203125 56.421875 58.203125 
Q 50.140625 66.21875 39.40625 66.21875 
z
M 39.40625 74.21875 
Q 54.734375 74.21875 63.90625 63.9375 
Q 73.09375 53.65625 73.09375 36.375 
Q 73.09375 19.140625 63.90625 8.859375 
Q 54.734375 -1.421875 39.40625 -1.421875 
Q 24.03125 -1.421875 14.8125 8.828125 
Q 5.609375 19.09375 5.609375 36.375 
Q 5.609375 53.65625 14.8125 63.9375 
Q 24.03125 74.21875 39.40625 74.21875 
z
" id="DejaVuSans-79"/>
     <path d="M 9.8125 72.90625 
L 24.515625 72.90625 
L 43.109375 23.296875 
L 61.8125 72.90625 
L 76.515625 72.90625 
L 76.515625 0 
L 66.890625 0 
L 66.890625 64.015625 
L 48.09375 14.015625 
L 38.1875 14.015625 
L 19.390625 64.015625 
L 19.390625 0 
L 9.8125 0 
z
" id="DejaVuSans-77"/>
     <path d="M 53.515625 70.515625 
L 53.515625 60.890625 
Q 47.90625 63.578125 42.921875 64.890625 
Q 37.9375 66.21875 33.296875 66.21875 
Q 25.25 66.21875 20.875 63.09375 
Q 16.5 59.96875 16.5 54.203125 
Q 16.5 49.359375 19.40625 46.890625 
Q 22.3125 44.4375 30.421875 42.921875 
L 36.375 41.703125 
Q 47.40625 39.59375 52.65625 34.296875 
Q 57.90625 29 57.90625 20.125 
Q 57.90625 9.515625 50.796875 4.046875 
Q 43.703125 -1.421875 29.984375 -1.421875 
Q 24.8125 -1.421875 18.96875 -0.25 
Q 13.140625 0.921875 6.890625 3.21875 
L 6.890625 13.375 
Q 12.890625 10.015625 18.65625 8.296875 
Q 24.421875 6.59375 29.984375 6.59375 
Q 38.421875 6.59375 43.015625 9.90625 
Q 47.609375 13.234375 47.609375 19.390625 
Q 47.609375 24.75 44.3125 27.78125 
Q 41.015625 30.8125 33.5 32.328125 
L 27.484375 33.5 
Q 16.453125 35.6875 11.515625 40.375 
Q 6.59375 45.0625 6.59375 53.421875 
Q 6.59375 63.09375 13.40625 68.65625 
Q 20.21875 74.21875 32.171875 74.21875 
Q 37.3125 74.21875 42.625 73.28125 
Q 47.953125 72.359375 53.515625 70.515625 
z
" id="DejaVuSans-83"/>
     <path d="M 9.8125 72.90625 
L 55.90625 72.90625 
L 55.90625 64.59375 
L 19.671875 64.59375 
L 19.671875 43.015625 
L 54.390625 43.015625 
L 54.390625 34.71875 
L 19.671875 34.71875 
L 19.671875 8.296875 
L 56.78125 8.296875 
L 56.78125 0 
L 9.8125 0 
z
" id="DejaVuSans-69"/>
    </defs>
    <g transform="translate(375.22944 298.262739)scale(0.17 -0.17)">
     <use xlink:href="#DejaVuSans-82"/>
     <use x="69.419922" xlink:href="#DejaVuSans-65"/>
     <use x="137.828125" xlink:href="#DejaVuSans-78"/>
     <use x="212.632812" xlink:href="#DejaVuSans-68"/>
     <use x="289.634766" xlink:href="#DejaVuSans-79"/>
     <use x="368.345703" xlink:href="#DejaVuSans-77"/>
     <use x="454.625" xlink:href="#DejaVuSans-83"/>
     <use x="518.101562" xlink:href="#DejaVuSans-69"/>
     <use x="581.285156" xlink:href="#DejaVuSans-65"/>
    </g>
   </g>
   <g id="text_14">
    <!-- SLSQP-11  -->
    <defs>
     <path d="M 9.8125 72.90625 
L 19.671875 72.90625 
L 19.671875 8.296875 
L 55.171875 8.296875 
L 55.171875 0 
L 9.8125 0 
z
" id="DejaVuSans-76"/>
     <path d="M 39.40625 66.21875 
Q 28.65625 66.21875 22.328125 58.203125 
Q 16.015625 50.203125 16.015625 36.375 
Q 16.015625 22.609375 22.328125 14.59375 
Q 28.65625 6.59375 39.40625 6.59375 
Q 50.140625 6.59375 56.421875 14.59375 
Q 62.703125 22.609375 62.703125 36.375 
Q 62.703125 50.203125 56.421875 58.203125 
Q 50.140625 66.21875 39.40625 66.21875 
z
M 53.21875 1.3125 
L 66.21875 -12.890625 
L 54.296875 -12.890625 
L 43.5 -1.21875 
Q 41.890625 -1.3125 41.03125 -1.359375 
Q 40.1875 -1.421875 39.40625 -1.421875 
Q 24.03125 -1.421875 14.8125 8.859375 
Q 5.609375 19.140625 5.609375 36.375 
Q 5.609375 53.65625 14.8125 63.9375 
Q 24.03125 74.21875 39.40625 74.21875 
Q 54.734375 74.21875 63.90625 63.9375 
Q 73.09375 53.65625 73.09375 36.375 
Q 73.09375 23.6875 67.984375 14.640625 
Q 62.890625 5.609375 53.21875 1.3125 
z
" id="DejaVuSans-81"/>
     <path d="M 19.671875 64.796875 
L 19.671875 37.40625 
L 32.078125 37.40625 
Q 38.96875 37.40625 42.71875 40.96875 
Q 46.484375 44.53125 46.484375 51.125 
Q 46.484375 57.671875 42.71875 61.234375 
Q 38.96875 64.796875 32.078125 64.796875 
z
M 9.8125 72.90625 
L 32.078125 72.90625 
Q 44.34375 72.90625 50.609375 67.359375 
Q 56.890625 61.8125 56.890625 51.125 
Q 56.890625 40.328125 50.609375 34.8125 
Q 44.34375 29.296875 32.078125 29.296875 
L 19.671875 29.296875 
L 19.671875 0 
L 9.8125 0 
z
" id="DejaVuSans-80"/>
    </defs>
    <g transform="translate(375.22944 233.796363)scale(0.17 -0.17)">
     <use xlink:href="#DejaVuSans-83"/>
     <use x="63.476562" xlink:href="#DejaVuSans-76"/>
     <use x="119.189453" xlink:href="#DejaVuSans-83"/>
     <use x="182.666016" xlink:href="#DejaVuSans-81"/>
     <use x="261.376953" xlink:href="#DejaVuSans-80"/>
     <use x="321.648438" xlink:href="#DejaVuSans-45"/>
     <use x="357.732422" xlink:href="#DejaVuSans-49"/>
     <use x="421.355469" xlink:href="#DejaVuSans-49"/>
     <use x="484.978516" xlink:href="#DejaVuSans-32"/>
    </g>
   </g>
   <g id="text_15">
    <!-- CMA-ES  2 -->
    <defs>
     <path d="M 64.40625 67.28125 
L 64.40625 56.890625 
Q 59.421875 61.53125 53.78125 63.8125 
Q 48.140625 66.109375 41.796875 66.109375 
Q 29.296875 66.109375 22.65625 58.46875 
Q 16.015625 50.828125 16.015625 36.375 
Q 16.015625 21.96875 22.65625 14.328125 
Q 29.296875 6.6875 41.796875 6.6875 
Q 48.140625 6.6875 53.78125 8.984375 
Q 59.421875 11.28125 64.40625 15.921875 
L 64.40625 5.609375 
Q 59.234375 2.09375 53.4375 0.328125 
Q 47.65625 -1.421875 41.21875 -1.421875 
Q 24.65625 -1.421875 15.125 8.703125 
Q 5.609375 18.84375 5.609375 36.375 
Q 5.609375 53.953125 15.125 64.078125 
Q 24.65625 74.21875 41.21875 74.21875 
Q 47.75 74.21875 53.53125 72.484375 
Q 59.328125 70.75 64.40625 67.28125 
z
" id="DejaVuSans-67"/>
    </defs>
    <g transform="translate(375.22944 169.329987)scale(0.17 -0.17)">
     <use xlink:href="#DejaVuSans-67"/>
     <use x="69.824219" xlink:href="#DejaVuSans-77"/>
     <use x="156.103516" xlink:href="#DejaVuSans-65"/>
     <use x="224.480469" xlink:href="#DejaVuSans-45"/>
     <use x="260.564453" xlink:href="#DejaVuSans-69"/>
     <use x="323.748047" xlink:href="#DejaVuSans-83"/>
     <use x="387.224609" xlink:href="#DejaVuSans-32"/>
     <use x="419.011719" xlink:href="#DejaVuSans-32"/>
     <use x="450.798828" xlink:href="#DejaVuSans-50"/>
    </g>
   </g>
   <g id="text_16">
    <!-- lq-CMA-ES -->
    <defs>
     <path d="M 14.796875 27.296875 
Q 14.796875 17.390625 18.875 11.75 
Q 22.953125 6.109375 30.078125 6.109375 
Q 37.203125 6.109375 41.296875 11.75 
Q 45.40625 17.390625 45.40625 27.296875 
Q 45.40625 37.203125 41.296875 42.84375 
Q 37.203125 48.484375 30.078125 48.484375 
Q 22.953125 48.484375 18.875 42.84375 
Q 14.796875 37.203125 14.796875 27.296875 
z
M 45.40625 8.203125 
Q 42.578125 3.328125 38.25 0.953125 
Q 33.9375 -1.421875 27.875 -1.421875 
Q 17.96875 -1.421875 11.734375 6.484375 
Q 5.515625 14.40625 5.515625 27.296875 
Q 5.515625 40.1875 11.734375 48.09375 
Q 17.96875 56 27.875 56 
Q 33.9375 56 38.25 53.625 
Q 42.578125 51.265625 45.40625 46.390625 
L 45.40625 54.6875 
L 54.390625 54.6875 
L 54.390625 -20.796875 
L 45.40625 -20.796875 
z
" id="DejaVuSans-113"/>
    </defs>
    <g transform="translate(375.22944 104.863611)scale(0.17 -0.17)">
     <use xlink:href="#DejaVuSans-108"/>
     <use x="27.783203" xlink:href="#DejaVuSans-113"/>
     <use x="91.259766" xlink:href="#DejaVuSans-45"/>
     <use x="127.34375" xlink:href="#DejaVuSans-67"/>
     <use x="197.167969" xlink:href="#DejaVuSans-77"/>
     <use x="283.447266" xlink:href="#DejaVuSans-65"/>
     <use x="351.824219" xlink:href="#DejaVuSans-45"/>
     <use x="387.908203" xlink:href="#DejaVuSans-69"/>
     <use x="451.091797" xlink:href="#DejaVuSans-83"/>
    </g>
   </g>
   <g id="text_17">
    <!-- best 2009 -->
    <defs>
     <path d="M 48.6875 27.296875 
Q 48.6875 37.203125 44.609375 42.84375 
Q 40.53125 48.484375 33.40625 48.484375 
Q 26.265625 48.484375 22.1875 42.84375 
Q 18.109375 37.203125 18.109375 27.296875 
Q 18.109375 17.390625 22.1875 11.75 
Q 26.265625 6.109375 33.40625 6.109375 
Q 40.53125 6.109375 44.609375 11.75 
Q 48.6875 17.390625 48.6875 27.296875 
z
M 18.109375 46.390625 
Q 20.953125 51.265625 25.265625 53.625 
Q 29.59375 56 35.59375 56 
Q 45.5625 56 51.78125 48.09375 
Q 58.015625 40.1875 58.015625 27.296875 
Q 58.015625 14.40625 51.78125 6.484375 
Q 45.5625 -1.421875 35.59375 -1.421875 
Q 29.59375 -1.421875 25.265625 0.953125 
Q 20.953125 3.328125 18.109375 8.203125 
L 18.109375 0 
L 9.078125 0 
L 9.078125 75.984375 
L 18.109375 75.984375 
z
" id="DejaVuSans-98"/>
     <path d="M 10.984375 1.515625 
L 10.984375 10.5 
Q 14.703125 8.734375 18.5 7.8125 
Q 22.3125 6.890625 25.984375 6.890625 
Q 35.75 6.890625 40.890625 13.453125 
Q 46.046875 20.015625 46.78125 33.40625 
Q 43.953125 29.203125 39.59375 26.953125 
Q 35.25 24.703125 29.984375 24.703125 
Q 19.046875 24.703125 12.671875 31.3125 
Q 6.296875 37.9375 6.296875 49.421875 
Q 6.296875 60.640625 12.9375 67.421875 
Q 19.578125 74.21875 30.609375 74.21875 
Q 43.265625 74.21875 49.921875 64.515625 
Q 56.59375 54.828125 56.59375 36.375 
Q 56.59375 19.140625 48.40625 8.859375 
Q 40.234375 -1.421875 26.421875 -1.421875 
Q 22.703125 -1.421875 18.890625 -0.6875 
Q 15.09375 0.046875 10.984375 1.515625 
z
M 30.609375 32.421875 
Q 37.25 32.421875 41.125 36.953125 
Q 45.015625 41.5 45.015625 49.421875 
Q 45.015625 57.28125 41.125 61.84375 
Q 37.25 66.40625 30.609375 66.40625 
Q 23.96875 66.40625 20.09375 61.84375 
Q 16.21875 57.28125 16.21875 49.421875 
Q 16.21875 41.5 20.09375 36.953125 
Q 23.96875 32.421875 30.609375 32.421875 
z
" id="DejaVuSans-57"/>
    </defs>
    <g transform="translate(375.22944 40.397235)scale(0.17 -0.17)">
     <use xlink:href="#DejaVuSans-98"/>
     <use x="63.476562" xlink:href="#DejaVuSans-101"/>
     <use x="125" xlink:href="#DejaVuSans-115"/>
     <use x="177.099609" xlink:href="#DejaVuSans-116"/>
     <use x="216.308594" xlink:href="#DejaVuSans-32"/>
     <use x="248.095703" xlink:href="#DejaVuSans-50"/>
     <use x="311.71875" xlink:href="#DejaVuSans-48"/>
     <use x="375.341797" xlink:href="#DejaVuSans-48"/>
     <use x="438.964844" xlink:href="#DejaVuSans-57"/>
    </g>
   </g>
   <g id="text_18">
    <!-- bbob f18, 10-D -->
    <g transform="translate(60.41088 38.111366)scale(0.102 -0.102)">
     <use xlink:href="#DejaVuSans-98"/>
     <use x="63.476562" xlink:href="#DejaVuSans-98"/>
     <use x="126.953125" xlink:href="#DejaVuSans-111"/>
     <use x="188.134766" xlink:href="#DejaVuSans-98"/>
     <use x="251.611328" xlink:href="#DejaVuSans-32"/>
     <use x="283.398438" xlink:href="#DejaVuSans-102"/>
     <use x="318.603516" xlink:href="#DejaVuSans-49"/>
     <use x="382.226562" xlink:href="#DejaVuSans-56"/>
     <use x="445.849609" xlink:href="#DejaVuSans-44"/>
     <use x="477.636719" xlink:href="#DejaVuSans-32"/>
     <use x="509.423828" xlink:href="#DejaVuSans-49"/>
     <use x="573.046875" xlink:href="#DejaVuSans-48"/>
     <use x="636.669922" xlink:href="#DejaVuSans-45"/>
     <use x="672.753906" xlink:href="#DejaVuSans-68"/>
    </g>
    <!-- 51 targets: 100..1e-08 -->
    <defs>
     <path d="M 10.796875 72.90625 
L 49.515625 72.90625 
L 49.515625 64.59375 
L 19.828125 64.59375 
L 19.828125 46.734375 
Q 21.96875 47.46875 24.109375 47.828125 
Q 26.265625 48.1875 28.421875 48.1875 
Q 40.625 48.1875 47.75 41.5 
Q 54.890625 34.8125 54.890625 23.390625 
Q 54.890625 11.625 47.5625 5.09375 
Q 40.234375 -1.421875 26.90625 -1.421875 
Q 22.3125 -1.421875 17.546875 -0.640625 
Q 12.796875 0.140625 7.71875 1.703125 
L 7.71875 11.625 
Q 12.109375 9.234375 16.796875 8.0625 
Q 21.484375 6.890625 26.703125 6.890625 
Q 35.15625 6.890625 40.078125 11.328125 
Q 45.015625 15.765625 45.015625 23.390625 
Q 45.015625 31 40.078125 35.4375 
Q 35.15625 39.890625 26.703125 39.890625 
Q 22.75 39.890625 18.8125 39.015625 
Q 14.890625 38.140625 10.796875 36.28125 
z
" id="DejaVuSans-53"/>
     <path d="M 11.71875 12.40625 
L 22.015625 12.40625 
L 22.015625 0 
L 11.71875 0 
z
M 11.71875 51.703125 
L 22.015625 51.703125 
L 22.015625 39.3125 
L 11.71875 39.3125 
z
" id="DejaVuSans-58"/>
    </defs>
    <g transform="translate(60.41088 49.533135)scale(0.102 -0.102)">
     <use xlink:href="#DejaVuSans-53"/>
     <use x="63.623047" xlink:href="#DejaVuSans-49"/>
     <use x="127.246094" xlink:href="#DejaVuSans-32"/>
     <use x="159.033203" xlink:href="#DejaVuSans-116"/>
     <use x="198.242188" xlink:href="#DejaVuSans-97"/>
     <use x="259.521484" xlink:href="#DejaVuSans-114"/>
     <use x="300.619141" xlink:href="#DejaVuSans-103"/>
     <use x="364.095703" xlink:href="#DejaVuSans-101"/>
     <use x="425.619141" xlink:href="#DejaVuSans-116"/>
     <use x="464.828125" xlink:href="#DejaVuSans-115"/>
     <use x="516.927734" xlink:href="#DejaVuSans-58"/>
     <use x="550.619141" xlink:href="#DejaVuSans-32"/>
     <use x="582.40625" xlink:href="#DejaVuSans-49"/>
     <use x="646.029297" xlink:href="#DejaVuSans-48"/>
     <use x="709.652344" xlink:href="#DejaVuSans-48"/>
     <use x="773.275391" xlink:href="#DejaVuSans-46"/>
     <use x="805.0625" xlink:href="#DejaVuSans-46"/>
     <use x="836.849609" xlink:href="#DejaVuSans-49"/>
     <use x="900.472656" xlink:href="#DejaVuSans-101"/>
     <use x="961.996094" xlink:href="#DejaVuSans-45"/>
     <use x="998.080078" xlink:href="#DejaVuSans-48"/>
     <use x="1061.703125" xlink:href="#DejaVuSans-56"/>
    </g>
    <!-- 15 instances -->
    <g transform="translate(60.41088 60.954904)scale(0.102 -0.102)">
     <use xlink:href="#DejaVuSans-49"/>
     <use x="63.623047" xlink:href="#DejaVuSans-53"/>
     <use x="127.246094" xlink:href="#DejaVuSans-32"/>
     <use x="159.033203" xlink:href="#DejaVuSans-105"/>
     <use x="186.816406" xlink:href="#DejaVuSans-110"/>
     <use x="250.195312" xlink:href="#DejaVuSans-115"/>
     <use x="302.294922" xlink:href="#DejaVuSans-116"/>
     <use x="341.503906" xlink:href="#DejaVuSans-97"/>
     <use x="402.783203" xlink:href="#DejaVuSans-110"/>
     <use x="466.162109" xlink:href="#DejaVuSans-99"/>
     <use x="521.142578" xlink:href="#DejaVuSans-101"/>
     <use x="582.666016" xlink:href="#DejaVuSans-115"/>
    </g>
   </g>
   <g id="text_19">
    <!-- v2.3.2 -->
    <defs>
     <path d="M 40.578125 39.3125 
Q 47.65625 37.796875 51.625 33 
Q 55.609375 28.21875 55.609375 21.1875 
Q 55.609375 10.40625 48.1875 4.484375 
Q 40.765625 -1.421875 27.09375 -1.421875 
Q 22.515625 -1.421875 17.65625 -0.515625 
Q 12.796875 0.390625 7.625 2.203125 
L 7.625 11.71875 
Q 11.71875 9.328125 16.59375 8.109375 
Q 21.484375 6.890625 26.8125 6.890625 
Q 36.078125 6.890625 40.9375 10.546875 
Q 45.796875 14.203125 45.796875 21.1875 
Q 45.796875 27.640625 41.28125 31.265625 
Q 36.765625 34.90625 28.71875 34.90625 
L 20.21875 34.90625 
L 20.21875 43.015625 
L 29.109375 43.015625 
Q 36.375 43.015625 40.234375 45.921875 
Q 44.09375 48.828125 44.09375 54.296875 
Q 44.09375 59.90625 40.109375 62.90625 
Q 36.140625 65.921875 28.71875 65.921875 
Q 24.65625 65.921875 20.015625 65.03125 
Q 15.375 64.15625 9.8125 62.3125 
L 9.8125 71.09375 
Q 15.4375 72.65625 20.34375 73.4375 
Q 25.25 74.21875 29.59375 74.21875 
Q 40.828125 74.21875 47.359375 69.109375 
Q 53.90625 64.015625 53.90625 55.328125 
Q 53.90625 49.265625 50.4375 45.09375 
Q 46.96875 40.921875 40.578125 39.3125 
z
" id="DejaVuSans-51"/>
    </defs>
    <g style="fill:#808080;" transform="translate(182.46275 294.151352)scale(0.1 -0.1)">
     <use xlink:href="#DejaVuSans-118"/>
     <use x="59.179688" xlink:href="#DejaVuSans-50"/>
     <use x="122.802734" xlink:href="#DejaVuSans-46"/>
     <use x="154.589844" xlink:href="#DejaVuSans-51"/>
     <use x="218.212891" xlink:href="#DejaVuSans-46"/>
     <use x="250" xlink:href="#DejaVuSans-50"/>
    </g>
   </g>
   <g id="text_20">
    <!-- 18 Schaffer F7, condition 1000 -->
    <defs>
     <path d="M 54.890625 33.015625 
L 54.890625 0 
L 45.90625 0 
L 45.90625 32.71875 
Q 45.90625 40.484375 42.875 44.328125 
Q 39.84375 48.1875 33.796875 48.1875 
Q 26.515625 48.1875 22.3125 43.546875 
Q 18.109375 38.921875 18.109375 30.90625 
L 18.109375 0 
L 9.078125 0 
L 9.078125 75.984375 
L 18.109375 75.984375 
L 18.109375 46.1875 
Q 21.34375 51.125 25.703125 53.5625 
Q 30.078125 56 35.796875 56 
Q 45.21875 56 50.046875 50.171875 
Q 54.890625 44.34375 54.890625 33.015625 
z
" id="DejaVuSans-104"/>
     <path d="M 8.203125 72.90625 
L 55.078125 72.90625 
L 55.078125 68.703125 
L 28.609375 0 
L 18.3125 0 
L 43.21875 64.59375 
L 8.203125 64.59375 
z
" id="DejaVuSans-55"/>
    </defs>
    <g transform="translate(44.111187 21.648)scale(0.2 -0.2)">
     <use xlink:href="#DejaVuSans-49"/>
     <use x="63.623047" xlink:href="#DejaVuSans-56"/>
     <use x="127.246094" xlink:href="#DejaVuSans-32"/>
     <use x="159.033203" xlink:href="#DejaVuSans-83"/>
     <use x="222.509766" xlink:href="#DejaVuSans-99"/>
     <use x="277.490234" xlink:href="#DejaVuSans-104"/>
     <use x="340.869141" xlink:href="#DejaVuSans-97"/>
     <use x="402.148438" xlink:href="#DejaVuSans-102"/>
     <use x="437.353516" xlink:href="#DejaVuSans-102"/>
     <use x="472.558594" xlink:href="#DejaVuSans-101"/>
     <use x="534.082031" xlink:href="#DejaVuSans-114"/>
     <use x="575.195312" xlink:href="#DejaVuSans-32"/>
     <use x="606.982422" xlink:href="#DejaVuSans-70"/>
     <use x="664.501953" xlink:href="#DejaVuSans-55"/>
     <use x="728.125" xlink:href="#DejaVuSans-44"/>
     <use x="759.912109" xlink:href="#DejaVuSans-32"/>
     <use x="791.699219" xlink:href="#DejaVuSans-99"/>
     <use x="846.679688" xlink:href="#DejaVuSans-111"/>
     <use x="907.861328" xlink:href="#DejaVuSans-110"/>
     <use x="971.240234" xlink:href="#DejaVuSans-100"/>
     <use x="1034.716797" xlink:href="#DejaVuSans-105"/>
     <use x="1062.5" xlink:href="#DejaVuSans-116"/>
     <use x="1101.708984" xlink:href="#DejaVuSans-105"/>
     <use x="1129.492188" xlink:href="#DejaVuSans-111"/>
     <use x="1190.673828" xlink:href="#DejaVuSans-110"/>
     <use x="1254.052734" xlink:href="#DejaVuSans-32"/>
     <use x="1285.839844" xlink:href="#DejaVuSans-49"/>
     <use x="1349.462891" xlink:href="#DejaVuSans-48"/>
     <use x="1413.085938" xlink:href="#DejaVuSans-48"/>
     <use x="1476.708984" xlink:href="#DejaVuSans-48"/>
    </g>
   </g>
  </g>
 </g>
 <defs>
  <clipPath id="p73feeeaff8">
   <rect height="271.296" width="281.088" x="57.6" y="27.648"/>
  </clipPath>
 </defs>
</svg>
