<?xml version="1.0" encoding="utf-8" standalone="no"?>
<!DOCTYPE svg PUBLIC "-//W3C//DTD SVG 1.1//EN"
  "http://www.w3.org/Graphics/SVG/1.1/DTD/svg11.dtd">
<!-- Created with matplotlib (https://matplotlib.org/) -->
<svg height="345.6pt" version="1.1" viewBox="0 0 460.8 345.6" width="460.8pt" xmlns="http://www.w3.org/2000/svg" xmlns:xlink="http://www.w3.org/1999/xlink">
 <defs>
  <style type="text/css">
*{stroke-linecap:butt;stroke-linejoin:round;}
  </style>
 </defs>
 <g id="figure_1">
  <g id="patch_1">
   <path d="M 0 345.6 
L 460.8 345.6 
L 460.8 0 
L 0 0 
z
" style="fill:#ffffff;"/>
  </g>
  <g id="axes_1">
   <g id="patch_2">
    <path d="M 57.6 298.944 
L 338.688 298.944 
L 338.688 27.648 
L 57.6 27.648 
z
" style="fill:#ffffff;"/>
   </g>
   <g id="line2d_1">
    <path d="M 38.440992 298.944 
L 38.440992 293.677139 
L 50.52898 293.677139 
L 50.52898 288.410278 
L 57.6 288.410278 
L 57.6 283.143418 
L 74.704957 283.143418 
L 74.704957 277.876557 
L 78.59642 277.876557 
L 78.59642 272.609696 
L 103.203018 272.609696 
L 103.203018 267.342835 
L 110.694282 267.342835 
L 110.694282 262.075974 
L 121.785469 262.075974 
L 121.785469 256.809114 
L 131.523818 256.809114 
L 131.523818 251.542253 
L 134.236034 251.542253 
L 134.236034 246.275392 
L 138.981779 246.275392 
L 138.981779 241.008531 
L 142.306513 241.008531 
L 142.306513 235.74167 
L 144.629556 235.74167 
L 144.629556 230.47481 
L 146.107383 230.47481 
L 146.107383 225.207949 
L 148.193699 225.207949 
L 148.193699 219.941088 
L 149.467659 219.941088 
L 149.467659 214.674227 
L 151.421542 214.674227 
L 151.421542 209.407366 
L 151.76636 209.407366 
L 151.76636 204.140506 
L 152.078714 204.140506 
L 152.078714 198.873645 
L 152.983548 198.873645 
L 152.983548 193.606784 
L 154.77436 193.606784 
L 154.77436 188.339923 
L 163.225959 188.339923 
L 163.225959 183.073062 
L 163.841212 183.073062 
L 163.841212 177.806202 
L 164.308016 177.806202 
L 164.308016 172.539341 
L 165.157053 172.539341 
L 165.157053 167.27248 
L 169.767149 167.27248 
L 169.767149 162.005619 
L 170.237885 162.005619 
L 170.237885 156.738758 
L 170.5984 156.738758 
L 170.5984 151.471897 
L 171.177424 151.471897 
L 171.177424 146.205037 
L 171.687629 146.205037 
L 171.687629 140.938176 
L 172.337411 140.938176 
L 172.337411 135.671315 
L 178.643741 135.671315 
L 178.643741 130.404454 
L 178.889448 130.404454 
L 178.889448 125.137593 
L 178.961385 125.137593 
L 178.961385 119.870733 
L 179.093418 119.870733 
L 179.093418 114.603872 
L 179.213577 114.603872 
L 179.213577 109.337011 
L 179.370713 109.337011 
L 179.370713 104.07015 
L 179.429948 104.07015 
L 179.429948 98.803289 
L 179.494339 98.803289 
L 179.494339 93.536429 
L 179.627729 93.536429 
L 179.627729 88.269568 
L 179.69669 88.269568 
L 179.69669 83.002707 
L 179.812776 83.002707 
L 179.812776 77.735846 
L 179.849552 77.735846 
L 179.849552 72.468985 
L 179.881012 72.468985 
L 179.881012 67.202125 
L 179.907185 67.202125 
L 179.907185 61.935264 
L 180.047846 61.935264 
L 180.047846 56.668403 
L 180.115169 56.668403 
L 180.115169 51.401542 
L 180.202817 51.401542 
L 180.202817 46.134681 
L 180.264422 46.134681 
L 180.264422 40.867821 
L 180.32581 40.867821 
L 180.32581 35.60096 
L 180.386982 35.60096 
L 180.386982 30.334099 
L 338.688 30.334099 
" style="fill:none;stroke:#f5deb3;stroke-linecap:square;stroke-width:4;"/>
   </g>
   <g id="line2d_2">
    <defs>
     <path d="M -0 7.778175 
L 7.778175 0 
L 0 -7.778175 
L -7.778175 -0 
z
" id="m16d80cd4de" style="stroke:#f5deb3;stroke-linejoin:miter;stroke-width:1.5;"/>
    </defs>
    <g>
     <use style="fill:#f5deb3;stroke:#f5deb3;stroke-linejoin:miter;stroke-width:1.5;" x="134.236034" xlink:href="#m16d80cd4de" y="251.542253"/>
     <use style="fill:#f5deb3;stroke:#f5deb3;stroke-linejoin:miter;stroke-width:1.5;" x="178.889448" xlink:href="#m16d80cd4de" y="130.404454"/>
     <use style="fill:#f5deb3;stroke:#f5deb3;stroke-linejoin:miter;stroke-width:1.5;" x="180.264422" xlink:href="#m16d80cd4de" y="46.134681"/>
     <use style="fill:#f5deb3;stroke:#f5deb3;stroke-linejoin:miter;stroke-width:1.5;" x="180.386982" xlink:href="#m16d80cd4de" y="30.334099"/>
     <use style="fill:#f5deb3;stroke:#f5deb3;stroke-linejoin:miter;stroke-width:1.5;" x="180.386982" xlink:href="#m16d80cd4de" y="30.334099"/>
     <use style="fill:#f5deb3;stroke:#f5deb3;stroke-linejoin:miter;stroke-width:1.5;" x="338.688" xlink:href="#m16d80cd4de" y="30.334099"/>
    </g>
   </g>
   <g id="line2d_3">
    <path style="fill:none;stroke:#f5deb3;stroke-linecap:square;stroke-width:4;"/>
    <g/>
   </g>
   <g id="line2d_4">
    <path d="M 338.688 30.334099 
L 369.60768 35.706297 
" style="fill:none;stroke:#f5deb3;stroke-linecap:square;stroke-width:4;"/>
    <g>
     <use style="fill:#f5deb3;stroke:#f5deb3;stroke-linejoin:miter;stroke-width:1.5;" x="338.688" xlink:href="#m16d80cd4de" y="30.334099"/>
     <use style="fill:#f5deb3;stroke:#f5deb3;stroke-linejoin:miter;stroke-width:1.5;" x="369.60768" xlink:href="#m16d80cd4de" y="35.706297"/>
    </g>
   </g>
   <g id="matplotlib.axis_1">
    <g id="xtick_1">
     <g id="line2d_5">
      <path clip-path="url(#p8d6d9a95d3)" d="M 57.6 298.944 
L 57.6 27.648 
" style="fill:none;stroke:#b0b0b0;stroke-linecap:square;stroke-width:0.8;"/>
     </g>
     <g id="line2d_6">
      <defs>
       <path d="M 0 0 
L 0 3.5 
" id="maea6337348" style="stroke:#000000;stroke-width:0.8;"/>
      </defs>
      <g>
       <use style="stroke:#000000;stroke-width:0.8;" x="57.6" xlink:href="#maea6337348" y="298.944"/>
      </g>
     </g>
     <g id="text_1">
      <!-- 0 -->
      <defs>
       <path d="M 31.78125 66.40625 
Q 24.171875 66.40625 20.328125 58.90625 
Q 16.5 51.421875 16.5 36.375 
Q 16.5 21.390625 20.328125 13.890625 
Q 24.171875 6.390625 31.78125 6.390625 
Q 39.453125 6.390625 43.28125 13.890625 
Q 47.125 21.390625 47.125 36.375 
Q 47.125 51.421875 43.28125 58.90625 
Q 39.453125 66.40625 31.78125 66.40625 
z
M 31.78125 74.21875 
Q 44.046875 74.21875 50.515625 64.515625 
Q 56.984375 54.828125 56.984375 36.375 
Q 56.984375 17.96875 50.515625 8.265625 
Q 44.046875 -1.421875 31.78125 -1.421875 
Q 19.53125 -1.421875 13.0625 8.265625 
Q 6.59375 17.96875 6.59375 36.375 
Q 6.59375 54.828125 13.0625 64.515625 
Q 19.53125 74.21875 31.78125 74.21875 
z
" id="DejaVuSans-48"/>
      </defs>
      <g transform="translate(51.2375 321.140875)scale(0.2 -0.2)">
       <use xlink:href="#DejaVuSans-48"/>
      </g>
     </g>
    </g>
    <g id="xtick_2">
     <g id="line2d_7">
      <path clip-path="url(#p8d6d9a95d3)" d="M 137.910857 298.944 
L 137.910857 27.648 
" style="fill:none;stroke:#b0b0b0;stroke-linecap:square;stroke-width:0.8;"/>
     </g>
     <g id="line2d_8">
      <g>
       <use style="stroke:#000000;stroke-width:0.8;" x="137.910857" xlink:href="#maea6337348" y="298.944"/>
      </g>
     </g>
     <g id="text_2">
      <!-- 2 -->
      <defs>
       <path d="M 19.1875 8.296875 
L 53.609375 8.296875 
L 53.609375 0 
L 7.328125 0 
L 7.328125 8.296875 
Q 12.9375 14.109375 22.625 23.890625 
Q 32.328125 33.6875 34.8125 36.53125 
Q 39.546875 41.84375 41.421875 45.53125 
Q 43.3125 49.21875 43.3125 52.78125 
Q 43.3125 58.59375 39.234375 62.25 
Q 35.15625 65.921875 28.609375 65.921875 
Q 23.96875 65.921875 18.8125 64.3125 
Q 13.671875 62.703125 7.8125 59.421875 
L 7.8125 69.390625 
Q 13.765625 71.78125 18.9375 73 
Q 24.125 74.21875 28.421875 74.21875 
Q 39.75 74.21875 46.484375 68.546875 
Q 53.21875 62.890625 53.21875 53.421875 
Q 53.21875 48.921875 51.53125 44.890625 
Q 49.859375 40.875 45.40625 35.40625 
Q 44.1875 33.984375 37.640625 27.21875 
Q 31.109375 20.453125 19.1875 8.296875 
z
" id="DejaVuSans-50"/>
      </defs>
      <g transform="translate(131.548357 321.140875)scale(0.2 -0.2)">
       <use xlink:href="#DejaVuSans-50"/>
      </g>
     </g>
    </g>
    <g id="xtick_3">
     <g id="line2d_9">
      <path clip-path="url(#p8d6d9a95d3)" d="M 218.221714 298.944 
L 218.221714 27.648 
" style="fill:none;stroke:#b0b0b0;stroke-linecap:square;stroke-width:0.8;"/>
     </g>
     <g id="line2d_10">
      <g>
       <use style="stroke:#000000;stroke-width:0.8;" x="218.221714" xlink:href="#maea6337348" y="298.944"/>
      </g>
     </g>
     <g id="text_3">
      <!-- 4 -->
      <defs>
       <path d="M 37.796875 64.3125 
L 12.890625 25.390625 
L 37.796875 25.390625 
z
M 35.203125 72.90625 
L 47.609375 72.90625 
L 47.609375 25.390625 
L 58.015625 25.390625 
L 58.015625 17.1875 
L 47.609375 17.1875 
L 47.609375 0 
L 37.796875 0 
L 37.796875 17.1875 
L 4.890625 17.1875 
L 4.890625 26.703125 
z
" id="DejaVuSans-52"/>
      </defs>
      <g transform="translate(211.859214 321.140875)scale(0.2 -0.2)">
       <use xlink:href="#DejaVuSans-52"/>
      </g>
     </g>
    </g>
    <g id="xtick_4">
     <g id="line2d_11">
      <path clip-path="url(#p8d6d9a95d3)" d="M 298.532571 298.944 
L 298.532571 27.648 
" style="fill:none;stroke:#b0b0b0;stroke-linecap:square;stroke-width:0.8;"/>
     </g>
     <g id="line2d_12">
      <g>
       <use style="stroke:#000000;stroke-width:0.8;" x="298.532571" xlink:href="#maea6337348" y="298.944"/>
      </g>
     </g>
     <g id="text_4">
      <!-- 6 -->
      <defs>
       <path d="M 33.015625 40.375 
Q 26.375 40.375 22.484375 35.828125 
Q 18.609375 31.296875 18.609375 23.390625 
Q 18.609375 15.53125 22.484375 10.953125 
Q 26.375 6.390625 33.015625 6.390625 
Q 39.65625 6.390625 43.53125 10.953125 
Q 47.40625 15.53125 47.40625 23.390625 
Q 47.40625 31.296875 43.53125 35.828125 
Q 39.65625 40.375 33.015625 40.375 
z
M 52.59375 71.296875 
L 52.59375 62.3125 
Q 48.875 64.0625 45.09375 64.984375 
Q 41.3125 65.921875 37.59375 65.921875 
Q 27.828125 65.921875 22.671875 59.328125 
Q 17.53125 52.734375 16.796875 39.40625 
Q 19.671875 43.65625 24.015625 45.921875 
Q 28.375 48.1875 33.59375 48.1875 
Q 44.578125 48.1875 50.953125 41.515625 
Q 57.328125 34.859375 57.328125 23.390625 
Q 57.328125 12.15625 50.6875 5.359375 
Q 44.046875 -1.421875 33.015625 -1.421875 
Q 20.359375 -1.421875 13.671875 8.265625 
Q 6.984375 17.96875 6.984375 36.375 
Q 6.984375 53.65625 15.1875 63.9375 
Q 23.390625 74.21875 37.203125 74.21875 
Q 40.921875 74.21875 44.703125 73.484375 
Q 48.484375 72.75 52.59375 71.296875 
z
" id="DejaVuSans-54"/>
      </defs>
      <g transform="translate(292.170071 321.140875)scale(0.2 -0.2)">
       <use xlink:href="#DejaVuSans-54"/>
      </g>
     </g>
    </g>
    <g id="xtick_5">
     <g id="line2d_13">
      <path clip-path="url(#p8d6d9a95d3)" d="M 57.6 298.944 
L 57.6 27.648 
" style="fill:none;stroke:#b0b0b0;stroke-linecap:square;stroke-width:0.8;"/>
     </g>
     <g id="line2d_14">
      <defs>
       <path d="M 0 0 
L 0 2 
" id="m60ab7e77da" style="stroke:#000000;stroke-width:0.6;"/>
      </defs>
      <g>
       <use style="stroke:#000000;stroke-width:0.6;" x="57.6" xlink:href="#m60ab7e77da" y="298.944"/>
      </g>
     </g>
    </g>
    <g id="xtick_6">
     <g id="line2d_15">
      <path clip-path="url(#p8d6d9a95d3)" d="M 97.755429 298.944 
L 97.755429 27.648 
" style="fill:none;stroke:#b0b0b0;stroke-linecap:square;stroke-width:0.8;"/>
     </g>
     <g id="line2d_16">
      <g>
       <use style="stroke:#000000;stroke-width:0.6;" x="97.755429" xlink:href="#m60ab7e77da" y="298.944"/>
      </g>
     </g>
    </g>
    <g id="xtick_7">
     <g id="line2d_17">
      <path clip-path="url(#p8d6d9a95d3)" d="M 137.910857 298.944 
L 137.910857 27.648 
" style="fill:none;stroke:#b0b0b0;stroke-linecap:square;stroke-width:0.8;"/>
     </g>
     <g id="line2d_18">
      <g>
       <use style="stroke:#000000;stroke-width:0.6;" x="137.910857" xlink:href="#m60ab7e77da" y="298.944"/>
      </g>
     </g>
    </g>
    <g id="xtick_8">
     <g id="line2d_19">
      <path clip-path="url(#p8d6d9a95d3)" d="M 178.066286 298.944 
L 178.066286 27.648 
" style="fill:none;stroke:#b0b0b0;stroke-linecap:square;stroke-width:0.8;"/>
     </g>
     <g id="line2d_20">
      <g>
       <use style="stroke:#000000;stroke-width:0.6;" x="178.066286" xlink:href="#m60ab7e77da" y="298.944"/>
      </g>
     </g>
    </g>
    <g id="xtick_9">
     <g id="line2d_21">
      <path clip-path="url(#p8d6d9a95d3)" d="M 218.221714 298.944 
L 218.221714 27.648 
" style="fill:none;stroke:#b0b0b0;stroke-linecap:square;stroke-width:0.8;"/>
     </g>
     <g id="line2d_22">
      <g>
       <use style="stroke:#000000;stroke-width:0.6;" x="218.221714" xlink:href="#m60ab7e77da" y="298.944"/>
      </g>
     </g>
    </g>
    <g id="xtick_10">
     <g id="line2d_23">
      <path clip-path="url(#p8d6d9a95d3)" d="M 258.377143 298.944 
L 258.377143 27.648 
" style="fill:none;stroke:#b0b0b0;stroke-linecap:square;stroke-width:0.8;"/>
     </g>
     <g id="line2d_24">
      <g>
       <use style="stroke:#000000;stroke-width:0.6;" x="258.377143" xlink:href="#m60ab7e77da" y="298.944"/>
      </g>
     </g>
    </g>
    <g id="xtick_11">
     <g id="line2d_25">
      <path clip-path="url(#p8d6d9a95d3)" d="M 298.532571 298.944 
L 298.532571 27.648 
" style="fill:none;stroke:#b0b0b0;stroke-linecap:square;stroke-width:0.8;"/>
     </g>
     <g id="line2d_26">
      <g>
       <use style="stroke:#000000;stroke-width:0.6;" x="298.532571" xlink:href="#m60ab7e77da" y="298.944"/>
      </g>
     </g>
    </g>
    <g id="xtick_12">
     <g id="line2d_27">
      <path clip-path="url(#p8d6d9a95d3)" d="M 338.688 298.944 
L 338.688 27.648 
" style="fill:none;stroke:#b0b0b0;stroke-linecap:square;stroke-width:0.8;"/>
     </g>
     <g id="line2d_28">
      <g>
       <use style="stroke:#000000;stroke-width:0.6;" x="338.688" xlink:href="#m60ab7e77da" y="298.944"/>
      </g>
     </g>
    </g>
    <g id="text_5">
     <!-- log10(# f-evals / dimension) -->
     <defs>
      <path d="M 9.421875 75.984375 
L 18.40625 75.984375 
L 18.40625 0 
L 9.421875 0 
z
" id="DejaVuSans-108"/>
      <path d="M 30.609375 48.390625 
Q 23.390625 48.390625 19.1875 42.75 
Q 14.984375 37.109375 14.984375 27.296875 
Q 14.984375 17.484375 19.15625 11.84375 
Q 23.34375 6.203125 30.609375 6.203125 
Q 37.796875 6.203125 41.984375 11.859375 
Q 46.1875 17.53125 46.1875 27.296875 
Q 46.1875 37.015625 41.984375 42.703125 
Q 37.796875 48.390625 30.609375 48.390625 
z
M 30.609375 56 
Q 42.328125 56 49.015625 48.375 
Q 55.71875 40.765625 55.71875 27.296875 
Q 55.71875 13.875 49.015625 6.21875 
Q 42.328125 -1.421875 30.609375 -1.421875 
Q 18.84375 -1.421875 12.171875 6.21875 
Q 5.515625 13.875 5.515625 27.296875 
Q 5.515625 40.765625 12.171875 48.375 
Q 18.84375 56 30.609375 56 
z
" id="DejaVuSans-111"/>
      <path d="M 45.40625 27.984375 
Q 45.40625 37.75 41.375 43.109375 
Q 37.359375 48.484375 30.078125 48.484375 
Q 22.859375 48.484375 18.828125 43.109375 
Q 14.796875 37.75 14.796875 27.984375 
Q 14.796875 18.265625 18.828125 12.890625 
Q 22.859375 7.515625 30.078125 7.515625 
Q 37.359375 7.515625 41.375 12.890625 
Q 45.40625 18.265625 45.40625 27.984375 
z
M 54.390625 6.78125 
Q 54.390625 -7.171875 48.1875 -13.984375 
Q 42 -20.796875 29.203125 -20.796875 
Q 24.46875 -20.796875 20.265625 -20.09375 
Q 16.0625 -19.390625 12.109375 -17.921875 
L 12.109375 -9.1875 
Q 16.0625 -11.328125 19.921875 -12.34375 
Q 23.78125 -13.375 27.78125 -13.375 
Q 36.625 -13.375 41.015625 -8.765625 
Q 45.40625 -4.15625 45.40625 5.171875 
L 45.40625 9.625 
Q 42.625 4.78125 38.28125 2.390625 
Q 33.9375 0 27.875 0 
Q 17.828125 0 11.671875 7.65625 
Q 5.515625 15.328125 5.515625 27.984375 
Q 5.515625 40.671875 11.671875 48.328125 
Q 17.828125 56 27.875 56 
Q 33.9375 56 38.28125 53.609375 
Q 42.625 51.21875 45.40625 46.390625 
L 45.40625 54.6875 
L 54.390625 54.6875 
z
" id="DejaVuSans-103"/>
      <path d="M 12.40625 8.296875 
L 28.515625 8.296875 
L 28.515625 63.921875 
L 10.984375 60.40625 
L 10.984375 69.390625 
L 28.421875 72.90625 
L 38.28125 72.90625 
L 38.28125 8.296875 
L 54.390625 8.296875 
L 54.390625 0 
L 12.40625 0 
z
" id="DejaVuSans-49"/>
      <path d="M 31 75.875 
Q 24.46875 64.65625 21.28125 53.65625 
Q 18.109375 42.671875 18.109375 31.390625 
Q 18.109375 20.125 21.3125 9.0625 
Q 24.515625 -2 31 -13.1875 
L 23.1875 -13.1875 
Q 15.875 -1.703125 12.234375 9.375 
Q 8.59375 20.453125 8.59375 31.390625 
Q 8.59375 42.28125 12.203125 53.3125 
Q 15.828125 64.359375 23.1875 75.875 
z
" id="DejaVuSans-40"/>
      <path d="M 51.125 44 
L 36.921875 44 
L 32.8125 27.6875 
L 47.125 27.6875 
z
M 43.796875 71.78125 
L 38.71875 51.515625 
L 52.984375 51.515625 
L 58.109375 71.78125 
L 65.921875 71.78125 
L 60.890625 51.515625 
L 76.125 51.515625 
L 76.125 44 
L 58.984375 44 
L 54.984375 27.6875 
L 70.515625 27.6875 
L 70.515625 20.21875 
L 53.078125 20.21875 
L 48 0 
L 40.1875 0 
L 45.21875 20.21875 
L 30.90625 20.21875 
L 25.875 0 
L 18.015625 0 
L 23.09375 20.21875 
L 7.71875 20.21875 
L 7.71875 27.6875 
L 24.90625 27.6875 
L 29 44 
L 13.28125 44 
L 13.28125 51.515625 
L 30.90625 51.515625 
L 35.890625 71.78125 
z
" id="DejaVuSans-35"/>
      <path id="DejaVuSans-32"/>
      <path d="M 37.109375 75.984375 
L 37.109375 68.5 
L 28.515625 68.5 
Q 23.6875 68.5 21.796875 66.546875 
Q 19.921875 64.59375 19.921875 59.515625 
L 19.921875 54.6875 
L 34.71875 54.6875 
L 34.71875 47.703125 
L 19.921875 47.703125 
L 19.921875 0 
L 10.890625 0 
L 10.890625 47.703125 
L 2.296875 47.703125 
L 2.296875 54.6875 
L 10.890625 54.6875 
L 10.890625 58.5 
Q 10.890625 67.625 15.140625 71.796875 
Q 19.390625 75.984375 28.609375 75.984375 
z
" id="DejaVuSans-102"/>
      <path d="M 4.890625 31.390625 
L 31.203125 31.390625 
L 31.203125 23.390625 
L 4.890625 23.390625 
z
" id="DejaVuSans-45"/>
      <path d="M 56.203125 29.59375 
L 56.203125 25.203125 
L 14.890625 25.203125 
Q 15.484375 15.921875 20.484375 11.0625 
Q 25.484375 6.203125 34.421875 6.203125 
Q 39.59375 6.203125 44.453125 7.46875 
Q 49.3125 8.734375 54.109375 11.28125 
L 54.109375 2.78125 
Q 49.265625 0.734375 44.1875 -0.34375 
Q 39.109375 -1.421875 33.890625 -1.421875 
Q 20.796875 -1.421875 13.15625 6.1875 
Q 5.515625 13.8125 5.515625 26.8125 
Q 5.515625 40.234375 12.765625 48.109375 
Q 20.015625 56 32.328125 56 
Q 43.359375 56 49.78125 48.890625 
Q 56.203125 41.796875 56.203125 29.59375 
z
M 47.21875 32.234375 
Q 47.125 39.59375 43.09375 43.984375 
Q 39.0625 48.390625 32.421875 48.390625 
Q 24.90625 48.390625 20.390625 44.140625 
Q 15.875 39.890625 15.1875 32.171875 
z
" id="DejaVuSans-101"/>
      <path d="M 2.984375 54.6875 
L 12.5 54.6875 
L 29.59375 8.796875 
L 46.6875 54.6875 
L 56.203125 54.6875 
L 35.6875 0 
L 23.484375 0 
z
" id="DejaVuSans-118"/>
      <path d="M 34.28125 27.484375 
Q 23.390625 27.484375 19.1875 25 
Q 14.984375 22.515625 14.984375 16.5 
Q 14.984375 11.71875 18.140625 8.90625 
Q 21.296875 6.109375 26.703125 6.109375 
Q 34.1875 6.109375 38.703125 11.40625 
Q 43.21875 16.703125 43.21875 25.484375 
L 43.21875 27.484375 
z
M 52.203125 31.203125 
L 52.203125 0 
L 43.21875 0 
L 43.21875 8.296875 
Q 40.140625 3.328125 35.546875 0.953125 
Q 30.953125 -1.421875 24.3125 -1.421875 
Q 15.921875 -1.421875 10.953125 3.296875 
Q 6 8.015625 6 15.921875 
Q 6 25.140625 12.171875 29.828125 
Q 18.359375 34.515625 30.609375 34.515625 
L 43.21875 34.515625 
L 43.21875 35.40625 
Q 43.21875 41.609375 39.140625 45 
Q 35.0625 48.390625 27.6875 48.390625 
Q 23 48.390625 18.546875 47.265625 
Q 14.109375 46.140625 10.015625 43.890625 
L 10.015625 52.203125 
Q 14.9375 54.109375 19.578125 55.046875 
Q 24.21875 56 28.609375 56 
Q 40.484375 56 46.34375 49.84375 
Q 52.203125 43.703125 52.203125 31.203125 
z
" id="DejaVuSans-97"/>
      <path d="M 44.28125 53.078125 
L 44.28125 44.578125 
Q 40.484375 46.53125 36.375 47.5 
Q 32.28125 48.484375 27.875 48.484375 
Q 21.1875 48.484375 17.84375 46.4375 
Q 14.5 44.390625 14.5 40.28125 
Q 14.5 37.15625 16.890625 35.375 
Q 19.28125 33.59375 26.515625 31.984375 
L 29.59375 31.296875 
Q 39.15625 29.25 43.1875 25.515625 
Q 47.21875 21.78125 47.21875 15.09375 
Q 47.21875 7.46875 41.1875 3.015625 
Q 35.15625 -1.421875 24.609375 -1.421875 
Q 20.21875 -1.421875 15.453125 -0.5625 
Q 10.6875 0.296875 5.421875 2 
L 5.421875 11.28125 
Q 10.40625 8.6875 15.234375 7.390625 
Q 20.0625 6.109375 24.8125 6.109375 
Q 31.15625 6.109375 34.5625 8.28125 
Q 37.984375 10.453125 37.984375 14.40625 
Q 37.984375 18.0625 35.515625 20.015625 
Q 33.0625 21.96875 24.703125 23.78125 
L 21.578125 24.515625 
Q 13.234375 26.265625 9.515625 29.90625 
Q 5.8125 33.546875 5.8125 39.890625 
Q 5.8125 47.609375 11.28125 51.796875 
Q 16.75 56 26.8125 56 
Q 31.78125 56 36.171875 55.265625 
Q 40.578125 54.546875 44.28125 53.078125 
z
" id="DejaVuSans-115"/>
      <path d="M 25.390625 72.90625 
L 33.6875 72.90625 
L 8.296875 -9.28125 
L 0 -9.28125 
z
" id="DejaVuSans-47"/>
      <path d="M 45.40625 46.390625 
L 45.40625 75.984375 
L 54.390625 75.984375 
L 54.390625 0 
L 45.40625 0 
L 45.40625 8.203125 
Q 42.578125 3.328125 38.25 0.953125 
Q 33.9375 -1.421875 27.875 -1.421875 
Q 17.96875 -1.421875 11.734375 6.484375 
Q 5.515625 14.40625 5.515625 27.296875 
Q 5.515625 40.1875 11.734375 48.09375 
Q 17.96875 56 27.875 56 
Q 33.9375 56 38.25 53.625 
Q 42.578125 51.265625 45.40625 46.390625 
z
M 14.796875 27.296875 
Q 14.796875 17.390625 18.875 11.75 
Q 22.953125 6.109375 30.078125 6.109375 
Q 37.203125 6.109375 41.296875 11.75 
Q 45.40625 17.390625 45.40625 27.296875 
Q 45.40625 37.203125 41.296875 42.84375 
Q 37.203125 48.484375 30.078125 48.484375 
Q 22.953125 48.484375 18.875 42.84375 
Q 14.796875 37.203125 14.796875 27.296875 
z
" id="DejaVuSans-100"/>
      <path d="M 9.421875 54.6875 
L 18.40625 54.6875 
L 18.40625 0 
L 9.421875 0 
z
M 9.421875 75.984375 
L 18.40625 75.984375 
L 18.40625 64.59375 
L 9.421875 64.59375 
z
" id="DejaVuSans-105"/>
      <path d="M 52 44.1875 
Q 55.375 50.25 60.0625 53.125 
Q 64.75 56 71.09375 56 
Q 79.640625 56 84.28125 50.015625 
Q 88.921875 44.046875 88.921875 33.015625 
L 88.921875 0 
L 79.890625 0 
L 79.890625 32.71875 
Q 79.890625 40.578125 77.09375 44.375 
Q 74.3125 48.1875 68.609375 48.1875 
Q 61.625 48.1875 57.5625 43.546875 
Q 53.515625 38.921875 53.515625 30.90625 
L 53.515625 0 
L 44.484375 0 
L 44.484375 32.71875 
Q 44.484375 40.625 41.703125 44.40625 
Q 38.921875 48.1875 33.109375 48.1875 
Q 26.21875 48.1875 22.15625 43.53125 
Q 18.109375 38.875 18.109375 30.90625 
L 18.109375 0 
L 9.078125 0 
L 9.078125 54.6875 
L 18.109375 54.6875 
L 18.109375 46.1875 
Q 21.1875 51.21875 25.484375 53.609375 
Q 29.78125 56 35.6875 56 
Q 41.65625 56 45.828125 52.96875 
Q 50 49.953125 52 44.1875 
z
" id="DejaVuSans-109"/>
      <path d="M 54.890625 33.015625 
L 54.890625 0 
L 45.90625 0 
L 45.90625 32.71875 
Q 45.90625 40.484375 42.875 44.328125 
Q 39.84375 48.1875 33.796875 48.1875 
Q 26.515625 48.1875 22.3125 43.546875 
Q 18.109375 38.921875 18.109375 30.90625 
L 18.109375 0 
L 9.078125 0 
L 9.078125 54.6875 
L 18.109375 54.6875 
L 18.109375 46.1875 
Q 21.34375 51.125 25.703125 53.5625 
Q 30.078125 56 35.796875 56 
Q 45.21875 56 50.046875 50.171875 
Q 54.890625 44.34375 54.890625 33.015625 
z
" id="DejaVuSans-110"/>
      <path d="M 8.015625 75.875 
L 15.828125 75.875 
Q 23.140625 64.359375 26.78125 53.3125 
Q 30.421875 42.28125 30.421875 31.390625 
Q 30.421875 20.453125 26.78125 9.375 
Q 23.140625 -1.703125 15.828125 -13.1875 
L 8.015625 -13.1875 
Q 14.5 -2 17.703125 9.0625 
Q 20.90625 20.125 20.90625 31.390625 
Q 20.90625 42.671875 17.703125 53.65625 
Q 14.5 64.65625 8.015625 75.875 
z
" id="DejaVuSans-41"/>
     </defs>
     <g transform="translate(77.303219 342.217594)scale(0.17 -0.17)">
      <use xlink:href="#DejaVuSans-108"/>
      <use x="27.783203" xlink:href="#DejaVuSans-111"/>
      <use x="88.964844" xlink:href="#DejaVuSans-103"/>
      <use x="152.441406" xlink:href="#DejaVuSans-49"/>
      <use x="216.064453" xlink:href="#DejaVuSans-48"/>
      <use x="279.6875" xlink:href="#DejaVuSans-40"/>
      <use x="318.701172" xlink:href="#DejaVuSans-35"/>
      <use x="402.490234" xlink:href="#DejaVuSans-32"/>
      <use x="434.277344" xlink:href="#DejaVuSans-102"/>
      <use x="469.404297" xlink:href="#DejaVuSans-45"/>
      <use x="505.488281" xlink:href="#DejaVuSans-101"/>
      <use x="567.011719" xlink:href="#DejaVuSans-118"/>
      <use x="626.191406" xlink:href="#DejaVuSans-97"/>
      <use x="687.470703" xlink:href="#DejaVuSans-108"/>
      <use x="715.253906" xlink:href="#DejaVuSans-115"/>
      <use x="767.353516" xlink:href="#DejaVuSans-32"/>
      <use x="799.140625" xlink:href="#DejaVuSans-47"/>
      <use x="832.832031" xlink:href="#DejaVuSans-32"/>
      <use x="864.619141" xlink:href="#DejaVuSans-100"/>
      <use x="928.095703" xlink:href="#DejaVuSans-105"/>
      <use x="955.878906" xlink:href="#DejaVuSans-109"/>
      <use x="1053.291016" xlink:href="#DejaVuSans-101"/>
      <use x="1114.814453" xlink:href="#DejaVuSans-110"/>
      <use x="1178.193359" xlink:href="#DejaVuSans-115"/>
      <use x="1230.292969" xlink:href="#DejaVuSans-105"/>
      <use x="1258.076172" xlink:href="#DejaVuSans-111"/>
      <use x="1319.257812" xlink:href="#DejaVuSans-110"/>
      <use x="1382.636719" xlink:href="#DejaVuSans-41"/>
     </g>
    </g>
   </g>
   <g id="matplotlib.axis_2">
    <g id="ytick_1">
     <g id="line2d_29">
      <path clip-path="url(#p8d6d9a95d3)" d="M 57.6 298.944 
L 338.688 298.944 
" style="fill:none;stroke:#b0b0b0;stroke-linecap:square;stroke-width:0.8;"/>
     </g>
     <g id="line2d_30">
      <defs>
       <path d="M 0 0 
L -3.5 0 
" id="ma66e471cdd" style="stroke:#000000;stroke-width:0.8;"/>
      </defs>
      <g>
       <use style="stroke:#000000;stroke-width:0.8;" x="57.6" xlink:href="#ma66e471cdd" y="298.944"/>
      </g>
     </g>
     <g id="text_6">
      <!-- 0.0 -->
      <defs>
       <path d="M 10.6875 12.40625 
L 21 12.40625 
L 21 0 
L 10.6875 0 
z
" id="DejaVuSans-46"/>
      </defs>
      <g transform="translate(25.155 305.02275)scale(0.16 -0.16)">
       <use xlink:href="#DejaVuSans-48"/>
       <use x="63.623047" xlink:href="#DejaVuSans-46"/>
       <use x="95.410156" xlink:href="#DejaVuSans-48"/>
      </g>
     </g>
    </g>
    <g id="ytick_2">
     <g id="line2d_31">
      <path clip-path="url(#p8d6d9a95d3)" d="M 57.6 245.22202 
L 338.688 245.22202 
" style="fill:none;stroke:#b0b0b0;stroke-linecap:square;stroke-width:0.8;"/>
     </g>
     <g id="line2d_32">
      <g>
       <use style="stroke:#000000;stroke-width:0.8;" x="57.6" xlink:href="#ma66e471cdd" y="245.22202"/>
      </g>
     </g>
     <g id="text_7">
      <!-- 0.2 -->
      <g transform="translate(25.155 251.30077)scale(0.16 -0.16)">
       <use xlink:href="#DejaVuSans-48"/>
       <use x="63.623047" xlink:href="#DejaVuSans-46"/>
       <use x="95.410156" xlink:href="#DejaVuSans-50"/>
      </g>
     </g>
    </g>
    <g id="ytick_3">
     <g id="line2d_33">
      <path clip-path="url(#p8d6d9a95d3)" d="M 57.6 191.50004 
L 338.688 191.50004 
" style="fill:none;stroke:#b0b0b0;stroke-linecap:square;stroke-width:0.8;"/>
     </g>
     <g id="line2d_34">
      <g>
       <use style="stroke:#000000;stroke-width:0.8;" x="57.6" xlink:href="#ma66e471cdd" y="191.50004"/>
      </g>
     </g>
     <g id="text_8">
      <!-- 0.4 -->
      <g transform="translate(25.155 197.57879)scale(0.16 -0.16)">
       <use xlink:href="#DejaVuSans-48"/>
       <use x="63.623047" xlink:href="#DejaVuSans-46"/>
       <use x="95.410156" xlink:href="#DejaVuSans-52"/>
      </g>
     </g>
    </g>
    <g id="ytick_4">
     <g id="line2d_35">
      <path clip-path="url(#p8d6d9a95d3)" d="M 57.6 137.778059 
L 338.688 137.778059 
" style="fill:none;stroke:#b0b0b0;stroke-linecap:square;stroke-width:0.8;"/>
     </g>
     <g id="line2d_36">
      <g>
       <use style="stroke:#000000;stroke-width:0.8;" x="57.6" xlink:href="#ma66e471cdd" y="137.778059"/>
      </g>
     </g>
     <g id="text_9">
      <!-- 0.6 -->
      <g transform="translate(25.155 143.856809)scale(0.16 -0.16)">
       <use xlink:href="#DejaVuSans-48"/>
       <use x="63.623047" xlink:href="#DejaVuSans-46"/>
       <use x="95.410156" xlink:href="#DejaVuSans-54"/>
      </g>
     </g>
    </g>
    <g id="ytick_5">
     <g id="line2d_37">
      <path clip-path="url(#p8d6d9a95d3)" d="M 57.6 84.056079 
L 338.688 84.056079 
" style="fill:none;stroke:#b0b0b0;stroke-linecap:square;stroke-width:0.8;"/>
     </g>
     <g id="line2d_38">
      <g>
       <use style="stroke:#000000;stroke-width:0.8;" x="57.6" xlink:href="#ma66e471cdd" y="84.056079"/>
      </g>
     </g>
     <g id="text_10">
      <!-- 0.8 -->
      <defs>
       <path d="M 31.78125 34.625 
Q 24.75 34.625 20.71875 30.859375 
Q 16.703125 27.09375 16.703125 20.515625 
Q 16.703125 13.921875 20.71875 10.15625 
Q 24.75 6.390625 31.78125 6.390625 
Q 38.8125 6.390625 42.859375 10.171875 
Q 46.921875 13.96875 46.921875 20.515625 
Q 46.921875 27.09375 42.890625 30.859375 
Q 38.875 34.625 31.78125 34.625 
z
M 21.921875 38.8125 
Q 15.578125 40.375 12.03125 44.71875 
Q 8.5 49.078125 8.5 55.328125 
Q 8.5 64.0625 14.71875 69.140625 
Q 20.953125 74.21875 31.78125 74.21875 
Q 42.671875 74.21875 48.875 69.140625 
Q 55.078125 64.0625 55.078125 55.328125 
Q 55.078125 49.078125 51.53125 44.71875 
Q 48 40.375 41.703125 38.8125 
Q 48.828125 37.15625 52.796875 32.3125 
Q 56.78125 27.484375 56.78125 20.515625 
Q 56.78125 9.90625 50.3125 4.234375 
Q 43.84375 -1.421875 31.78125 -1.421875 
Q 19.734375 -1.421875 13.25 4.234375 
Q 6.78125 9.90625 6.78125 20.515625 
Q 6.78125 27.484375 10.78125 32.3125 
Q 14.796875 37.15625 21.921875 38.8125 
z
M 18.3125 54.390625 
Q 18.3125 48.734375 21.84375 45.5625 
Q 25.390625 42.390625 31.78125 42.390625 
Q 38.140625 42.390625 41.71875 45.5625 
Q 45.3125 48.734375 45.3125 54.390625 
Q 45.3125 60.0625 41.71875 63.234375 
Q 38.140625 66.40625 31.78125 66.40625 
Q 25.390625 66.40625 21.84375 63.234375 
Q 18.3125 60.0625 18.3125 54.390625 
z
" id="DejaVuSans-56"/>
      </defs>
      <g transform="translate(25.155 90.134829)scale(0.16 -0.16)">
       <use xlink:href="#DejaVuSans-48"/>
       <use x="63.623047" xlink:href="#DejaVuSans-46"/>
       <use x="95.410156" xlink:href="#DejaVuSans-56"/>
      </g>
     </g>
    </g>
    <g id="ytick_6">
     <g id="line2d_39">
      <path clip-path="url(#p8d6d9a95d3)" d="M 57.6 30.334099 
L 338.688 30.334099 
" style="fill:none;stroke:#b0b0b0;stroke-linecap:square;stroke-width:0.8;"/>
     </g>
     <g id="line2d_40">
      <g>
       <use style="stroke:#000000;stroke-width:0.8;" x="57.6" xlink:href="#ma66e471cdd" y="30.334099"/>
      </g>
     </g>
     <g id="text_11">
      <!-- 1.0 -->
      <g transform="translate(25.155 36.412849)scale(0.16 -0.16)">
       <use xlink:href="#DejaVuSans-49"/>
       <use x="63.623047" xlink:href="#DejaVuSans-46"/>
       <use x="95.410156" xlink:href="#DejaVuSans-48"/>
      </g>
     </g>
    </g>
    <g id="text_12">
     <!-- Fraction of function,target pairs -->
     <defs>
      <path d="M 9.8125 72.90625 
L 51.703125 72.90625 
L 51.703125 64.59375 
L 19.671875 64.59375 
L 19.671875 43.109375 
L 48.578125 43.109375 
L 48.578125 34.8125 
L 19.671875 34.8125 
L 19.671875 0 
L 9.8125 0 
z
" id="DejaVuSans-70"/>
      <path d="M 41.109375 46.296875 
Q 39.59375 47.171875 37.8125 47.578125 
Q 36.03125 48 33.890625 48 
Q 26.265625 48 22.1875 43.046875 
Q 18.109375 38.09375 18.109375 28.8125 
L 18.109375 0 
L 9.078125 0 
L 9.078125 54.6875 
L 18.109375 54.6875 
L 18.109375 46.1875 
Q 20.953125 51.171875 25.484375 53.578125 
Q 30.03125 56 36.53125 56 
Q 37.453125 56 38.578125 55.875 
Q 39.703125 55.765625 41.0625 55.515625 
z
" id="DejaVuSans-114"/>
      <path d="M 48.78125 52.59375 
L 48.78125 44.1875 
Q 44.96875 46.296875 41.140625 47.34375 
Q 37.3125 48.390625 33.40625 48.390625 
Q 24.65625 48.390625 19.8125 42.84375 
Q 14.984375 37.3125 14.984375 27.296875 
Q 14.984375 17.28125 19.8125 11.734375 
Q 24.65625 6.203125 33.40625 6.203125 
Q 37.3125 6.203125 41.140625 7.25 
Q 44.96875 8.296875 48.78125 10.40625 
L 48.78125 2.09375 
Q 45.015625 0.34375 40.984375 -0.53125 
Q 36.96875 -1.421875 32.421875 -1.421875 
Q 20.0625 -1.421875 12.78125 6.34375 
Q 5.515625 14.109375 5.515625 27.296875 
Q 5.515625 40.671875 12.859375 48.328125 
Q 20.21875 56 33.015625 56 
Q 37.15625 56 41.109375 55.140625 
Q 45.0625 54.296875 48.78125 52.59375 
z
" id="DejaVuSans-99"/>
      <path d="M 18.3125 70.21875 
L 18.3125 54.6875 
L 36.8125 54.6875 
L 36.8125 47.703125 
L 18.3125 47.703125 
L 18.3125 18.015625 
Q 18.3125 11.328125 20.140625 9.421875 
Q 21.96875 7.515625 27.59375 7.515625 
L 36.8125 7.515625 
L 36.8125 0 
L 27.59375 0 
Q 17.1875 0 13.234375 3.875 
Q 9.28125 7.765625 9.28125 18.015625 
L 9.28125 47.703125 
L 2.6875 47.703125 
L 2.6875 54.6875 
L 9.28125 54.6875 
L 9.28125 70.21875 
z
" id="DejaVuSans-116"/>
      <path d="M 8.5 21.578125 
L 8.5 54.6875 
L 17.484375 54.6875 
L 17.484375 21.921875 
Q 17.484375 14.15625 20.5 10.265625 
Q 23.53125 6.390625 29.59375 6.390625 
Q 36.859375 6.390625 41.078125 11.03125 
Q 45.3125 15.671875 45.3125 23.6875 
L 45.3125 54.6875 
L 54.296875 54.6875 
L 54.296875 0 
L 45.3125 0 
L 45.3125 8.40625 
Q 42.046875 3.421875 37.71875 1 
Q 33.40625 -1.421875 27.6875 -1.421875 
Q 18.265625 -1.421875 13.375 4.4375 
Q 8.5 10.296875 8.5 21.578125 
z
M 31.109375 56 
z
" id="DejaVuSans-117"/>
      <path d="M 11.71875 12.40625 
L 22.015625 12.40625 
L 22.015625 4 
L 14.015625 -11.625 
L 7.71875 -11.625 
L 11.71875 4 
z
" id="DejaVuSans-44"/>
      <path d="M 18.109375 8.203125 
L 18.109375 -20.796875 
L 9.078125 -20.796875 
L 9.078125 54.6875 
L 18.109375 54.6875 
L 18.109375 46.390625 
Q 20.953125 51.265625 25.265625 53.625 
Q 29.59375 56 35.59375 56 
Q 45.5625 56 51.78125 48.09375 
Q 58.015625 40.1875 58.015625 27.296875 
Q 58.015625 14.40625 51.78125 6.484375 
Q 45.5625 -1.421875 35.59375 -1.421875 
Q 29.59375 -1.421875 25.265625 0.953125 
Q 20.953125 3.328125 18.109375 8.203125 
z
M 48.6875 27.296875 
Q 48.6875 37.203125 44.609375 42.84375 
Q 40.53125 48.484375 33.40625 48.484375 
Q 26.265625 48.484375 22.1875 42.84375 
Q 18.109375 37.203125 18.109375 27.296875 
Q 18.109375 17.390625 22.1875 11.75 
Q 26.265625 6.109375 33.40625 6.109375 
Q 40.53125 6.109375 44.609375 11.75 
Q 48.6875 17.390625 48.6875 27.296875 
z
" id="DejaVuSans-112"/>
     </defs>
     <g transform="translate(17.619531 298.435375)rotate(-90)scale(0.17 -0.17)">
      <use xlink:href="#DejaVuSans-70"/>
      <use x="57.410156" xlink:href="#DejaVuSans-114"/>
      <use x="98.523438" xlink:href="#DejaVuSans-97"/>
      <use x="159.802734" xlink:href="#DejaVuSans-99"/>
      <use x="214.783203" xlink:href="#DejaVuSans-116"/>
      <use x="253.992188" xlink:href="#DejaVuSans-105"/>
      <use x="281.775391" xlink:href="#DejaVuSans-111"/>
      <use x="342.957031" xlink:href="#DejaVuSans-110"/>
      <use x="406.335938" xlink:href="#DejaVuSans-32"/>
      <use x="438.123047" xlink:href="#DejaVuSans-111"/>
      <use x="499.304688" xlink:href="#DejaVuSans-102"/>
      <use x="534.509766" xlink:href="#DejaVuSans-32"/>
      <use x="566.296875" xlink:href="#DejaVuSans-102"/>
      <use x="601.501953" xlink:href="#DejaVuSans-117"/>
      <use x="664.880859" xlink:href="#DejaVuSans-110"/>
      <use x="728.259766" xlink:href="#DejaVuSans-99"/>
      <use x="783.240234" xlink:href="#DejaVuSans-116"/>
      <use x="822.449219" xlink:href="#DejaVuSans-105"/>
      <use x="850.232422" xlink:href="#DejaVuSans-111"/>
      <use x="911.414062" xlink:href="#DejaVuSans-110"/>
      <use x="974.792969" xlink:href="#DejaVuSans-44"/>
      <use x="1006.580078" xlink:href="#DejaVuSans-116"/>
      <use x="1045.789062" xlink:href="#DejaVuSans-97"/>
      <use x="1107.068359" xlink:href="#DejaVuSans-114"/>
      <use x="1148.166016" xlink:href="#DejaVuSans-103"/>
      <use x="1211.642578" xlink:href="#DejaVuSans-101"/>
      <use x="1273.166016" xlink:href="#DejaVuSans-116"/>
      <use x="1312.375" xlink:href="#DejaVuSans-32"/>
      <use x="1344.162109" xlink:href="#DejaVuSans-112"/>
      <use x="1407.638672" xlink:href="#DejaVuSans-97"/>
      <use x="1468.917969" xlink:href="#DejaVuSans-105"/>
      <use x="1496.701172" xlink:href="#DejaVuSans-114"/>
      <use x="1537.814453" xlink:href="#DejaVuSans-115"/>
     </g>
    </g>
   </g>
   <g id="line2d_41">
    <defs>
     <path d="M 0 1.5 
C 0.397805 1.5 0.77937 1.341951 1.06066 1.06066 
C 1.341951 0.77937 1.5 0.397805 1.5 0 
C 1.5 -0.397805 1.341951 -0.77937 1.06066 -1.06066 
C 0.77937 -1.341951 0.397805 -1.5 0 -1.5 
C -0.397805 -1.5 -0.77937 -1.341951 -1.06066 -1.06066 
C -1.341951 -0.77937 -1.5 -0.397805 -1.5 0 
C -1.5 0.397805 -1.341951 0.77937 -1.06066 1.06066 
C -0.77937 1.341951 -0.397805 1.5 0 1.5 
z
" id="m1e9805d5c5" style="stroke:#f5deb3;"/>
    </defs>
    <g>
     <use style="fill:#f5deb3;stroke:#f5deb3;" x="180.386982" xlink:href="#m1e9805d5c5" y="30.334099"/>
     <use style="fill:#f5deb3;stroke:#f5deb3;" x="180.386982" xlink:href="#m1e9805d5c5" y="30.334099"/>
    </g>
   </g>
   <g id="line2d_42">
    <defs>
     <path d="M 0 1.5 
C 0.397805 1.5 0.77937 1.341951 1.06066 1.06066 
C 1.341951 0.77937 1.5 0.397805 1.5 0 
C 1.5 -0.397805 1.341951 -0.77937 1.06066 -1.06066 
C 0.77937 -1.341951 0.397805 -1.5 0 -1.5 
C -0.397805 -1.5 -0.77937 -1.341951 -1.06066 -1.06066 
C -1.341951 -0.77937 -1.5 -0.397805 -1.5 0 
C -1.5 0.397805 -1.341951 0.77937 -1.06066 1.06066 
C -0.77937 1.341951 -0.397805 1.5 0 1.5 
z
" id="m7c9ff036aa" style="stroke:#000080;"/>
    </defs>
    <g>
     <use style="fill:#000080;stroke:#000080;" x="199.08362" xlink:href="#m7c9ff036aa" y="30.334099"/>
     <use style="fill:#000080;stroke:#000080;" x="199.08362" xlink:href="#m7c9ff036aa" y="30.334099"/>
    </g>
   </g>
   <g id="line2d_43">
    <path d="M 38.440992 298.944 
L 38.440992 289.990337 
L 50.52898 289.990337 
L 50.52898 287.356906 
L 57.6 287.356906 
L 57.6 284.19679 
L 62.616969 284.19679 
L 62.616969 283.143418 
L 66.508432 283.143418 
L 66.508432 281.036673 
L 69.687988 281.036673 
L 69.687988 279.456615 
L 72.376266 279.456615 
L 72.376266 277.876557 
L 74.704957 277.876557 
L 74.704957 276.823185 
L 76.759008 276.823185 
L 76.759008 276.296499 
L 80.258561 276.296499 
L 80.258561 274.71644 
L 81.775977 274.71644 
L 81.775977 273.663068 
L 84.464254 273.663068 
L 84.464254 272.08301 
L 91.535274 272.08301 
L 91.535274 271.556324 
L 97.16421 271.556324 
L 97.16421 271.029638 
L 97.755429 271.029638 
L 97.755429 269.976266 
L 99.41757 269.976266 
L 99.41757 269.449579 
L 100.934985 269.449579 
L 100.934985 267.869521 
L 101.412804 267.869521 
L 101.412804 267.342835 
L 109.252198 267.342835 
L 109.252198 266.289463 
L 110.131676 266.289463 
L 110.131676 265.762777 
L 110.415248 265.762777 
L 110.415248 265.236091 
L 111.767808 265.236091 
L 111.767808 264.709405 
L 114.641021 264.709405 
L 114.641021 264.182719 
L 116.719583 264.182719 
L 116.719583 263.129347 
L 117.107138 263.129347 
L 117.107138 262.60266 
L 117.486268 262.60266 
L 117.486268 262.075974 
L 117.857331 262.075974 
L 117.857331 261.549288 
L 120.41399 261.549288 
L 120.41399 261.022602 
L 120.728219 261.022602 
L 120.728219 259.96923 
L 120.883236 259.96923 
L 120.883236 258.915858 
L 121.638301 258.915858 
L 121.638301 258.389172 
L 125.351508 258.389172 
L 125.351508 256.809114 
L 128.005624 256.809114 
L 128.005624 256.282427 
L 128.709321 256.282427 
L 128.709321 255.755741 
L 129.290685 255.755741 
L 129.385722 254.702369 
L 130.752422 254.702369 
L 130.752422 254.175683 
L 131.355321 254.175683 
L 131.355321 251.542253 
L 132.101058 251.542253 
L 132.101058 251.015567 
L 132.659801 251.015567 
L 132.73818 249.962195 
L 133.124876 249.962195 
L 133.124876 249.435508 
L 133.277185 249.435508 
L 133.277185 248.908822 
L 133.57787 248.908822 
L 133.57787 247.85545 
L 134.019394 247.85545 
L 134.019394 247.328764 
L 134.7313 247.328764 
L 134.7313 246.802078 
L 135.144899 246.802078 
L 135.144899 245.748706 
L 135.415281 245.748706 
L 135.415281 244.695334 
L 136.137916 244.695334 
L 136.137916 244.168648 
L 136.266147 244.168648 
L 136.266147 243.641962 
L 136.393441 243.641962 
L 136.393441 242.588589 
L 136.769843 242.588589 
L 136.769843 242.061903 
L 137.439497 242.061903 
L 137.439497 241.535217 
L 137.852629 241.535217 
L 137.852629 240.481845 
L 138.026733 240.481845 
L 138.026733 239.955159 
L 138.313099 239.955159 
L 138.313099 238.375101 
L 138.650644 238.375101 
L 138.650644 236.795043 
L 139.466984 236.795043 
L 139.520072 234.161612 
L 139.625765 234.161612 
L 139.678372 233.10824 
L 140.246813 233.10824 
L 140.297583 231.001496 
L 140.599134 231.001496 
L 140.599134 230.47481 
L 140.79731 230.47481 
L 140.79731 229.948123 
L 140.993259 229.948123 
L 140.993259 228.894751 
L 141.138789 228.894751 
L 141.187031 226.788007 
L 141.378673 226.788007 
L 141.378673 226.261321 
L 141.709062 226.261321 
L 141.709062 225.734635 
L 141.941279 225.734635 
L 141.987354 224.681263 
L 142.07914 224.681263 
L 142.07914 224.154577 
L 142.619936 224.154577 
L 142.664255 220.467774 
L 143.31586 220.467774 
L 143.40093 218.36103 
L 143.569835 218.36103 
L 143.569835 217.307658 
L 143.778691 217.307658 
L 143.778691 216.780971 
L 144.026061 216.780971 
L 144.026061 215.727599 
L 144.148442 215.727599 
L 144.189046 214.147541 
L 144.550287 214.147541 
L 144.550287 213.620855 
L 144.865226 213.620855 
L 144.865226 212.040797 
L 145.136208 212.040797 
L 145.136208 209.934052 
L 145.403044 209.934052 
L 145.403044 208.88068 
L 145.814278 208.88068 
L 145.814278 208.353994 
L 146.034567 208.353994 
L 146.034567 207.827308 
L 146.538004 207.827308 
L 146.538004 207.300622 
L 147.334773 207.300622 
L 147.334773 206.773936 
L 147.736463 206.773936 
L 147.736463 206.24725 
L 147.86833 206.24725 
L 147.86833 205.720564 
L 148.064279 205.720564 
L 148.161434 203.613819 
L 148.193699 203.613819 
L 148.193699 203.087133 
L 148.513109 203.087133 
L 148.513109 202.560447 
L 149.134896 202.560447 
L 149.195872 201.507075 
L 149.735275 201.507075 
L 149.794191 199.400331 
L 149.940618 199.400331 
L 150.027887 198.346959 
L 150.344189 198.346959 
L 150.344189 197.820273 
L 150.457801 197.820273 
L 150.51433 196.240214 
L 150.626842 196.240214 
L 150.626842 195.713528 
L 150.738632 195.713528 
L 150.822008 193.606784 
L 150.904986 193.606784 
L 150.987572 192.553412 
L 151.042412 192.553412 
L 151.042412 192.026726 
L 151.178764 192.026726 
L 151.287083 190.973354 
L 151.394733 190.973354 
L 151.394733 190.446667 
L 151.528368 190.446667 
L 151.528368 189.919981 
L 151.660987 189.919981 
L 151.660987 188.866609 
L 152.885298 188.866609 
L 152.909913 187.813237 
L 153.537988 187.813237 
L 153.537988 187.286551 
L 153.820412 187.286551 
L 153.820412 186.759865 
L 155.594676 186.759865 
L 155.594676 186.233179 
L 156.317544 186.233179 
L 156.317544 185.706493 
L 156.618401 185.706493 
L 156.658127 184.653121 
L 157.089232 184.653121 
L 157.089232 183.599748 
L 157.300853 183.599748 
L 157.300853 183.073062 
L 157.957601 183.073062 
L 157.957601 182.546376 
L 159.080804 182.546376 
L 159.080804 181.493004 
L 159.337899 181.493004 
L 159.337899 180.439632 
L 159.591258 180.439632 
L 159.591258 179.38626 
L 160.005512 179.38626 
L 160.005512 178.859574 
L 160.727241 178.859574 
L 160.727241 177.279515 
L 167.459829 177.279515 
L 167.459829 176.752829 
L 168.344733 176.752829 
L 168.344733 175.699457 
L 168.55661 175.699457 
L 168.55661 175.172771 
L 168.70639 175.172771 
L 168.70639 174.646085 
L 168.86475 174.646085 
L 168.884444 172.539341 
L 169.060699 172.539341 
L 169.138466 170.432596 
L 169.340971 170.432596 
L 169.350555 168.852538 
L 169.701534 168.852538 
L 169.78585 166.745794 
L 169.841835 166.745794 
L 169.851149 165.165736 
L 169.981016 165.165736 
L 170.082381 163.058991 
L 170.119095 163.058991 
L 170.119095 162.532305 
L 170.237885 162.532305 
L 170.319654 158.845503 
L 170.428085 158.845503 
L 170.428085 157.265444 
L 170.571619 157.265444 
L 170.571619 156.738758 
L 170.749391 156.738758 
L 170.749391 156.212072 
L 171.03881 156.212072 
L 171.116915 153.051956 
L 171.160157 153.051956 
L 171.220515 150.945211 
L 171.340609 150.945211 
L 171.340609 148.838467 
L 171.527673 148.838467 
L 171.569909 145.151665 
L 171.762889 145.151665 
L 171.8212 143.571606 
L 171.928978 143.571606 
L 171.970255 142.518234 
L 172.280803 142.518234 
L 172.353551 140.938176 
L 172.434028 140.938176 
L 172.482136 139.358118 
L 172.562023 139.358118 
L 172.641546 137.251373 
L 172.815229 137.251373 
L 172.830933 135.671315 
L 172.948265 135.671315 
L 173.026049 129.877768 
L 173.111214 129.877768 
L 173.172891 126.717652 
L 173.22668 126.717652 
L 173.303236 125.137593 
L 173.432614 125.137593 
L 173.493167 121.977477 
L 173.807666 121.977477 
L 173.903873 120.397419 
L 173.992211 120.397419 
L 174.072796 116.18393 
L 174.160284 116.18393 
L 174.232857 114.077186 
L 174.47737 114.077186 
L 174.569962 113.023814 
L 174.662065 113.023814 
L 174.683251 111.970441 
L 174.823834 111.970441 
L 174.886729 110.917069 
L 174.949398 110.917069 
L 175.039523 107.230267 
L 175.101646 107.230267 
L 175.177275 103.543464 
L 175.313947 103.543464 
L 175.334356 101.963406 
L 175.637655 101.963406 
L 175.730949 99.856662 
L 176.03402 99.856662 
L 176.04055 98.276603 
L 176.421575 98.276603 
L 176.421575 97.749917 
L 176.599529 97.749917 
L 176.599529 97.223231 
L 176.869327 97.223231 
L 176.869327 96.696545 
L 180.962588 96.696545 
L 180.962588 96.169859 
L 182.303092 96.169859 
L 182.303092 94.063115 
L 182.699764 94.063115 
L 182.699764 91.95637 
L 183.725263 91.95637 
L 183.783996 90.376312 
L 183.946572 90.376312 
L 183.946572 89.849626 
L 184.15281 89.849626 
L 184.230545 86.162824 
L 184.989415 86.162824 
L 185.075189 84.056079 
L 185.260879 84.056079 
L 185.318505 81.949335 
L 185.379762 81.949335 
L 185.478849 79.842591 
L 185.633967 79.842591 
L 185.671592 77.20916 
L 185.962316 77.20916 
L 185.962316 76.155788 
L 186.080199 76.155788 
L 186.080199 75.629102 
L 186.411139 75.629102 
L 186.465092 72.995672 
L 186.704063 72.995672 
L 186.704063 71.415613 
L 187.020001 71.415613 
L 187.020001 70.888927 
L 187.217174 70.888927 
L 187.224052 68.782183 
L 191.758187 68.782183 
L 191.758187 68.255497 
L 193.062882 68.255497 
L 193.062882 67.728811 
L 193.832847 67.728811 
L 193.903318 66.675439 
L 194.256061 66.675439 
L 194.256061 65.09538 
L 194.702868 65.09538 
L 194.812248 63.515322 
L 194.856696 63.515322 
L 194.878878 60.881892 
L 194.989365 60.881892 
L 195.077254 59.82852 
L 195.260391 59.82852 
L 195.329654 58.248461 
L 195.433037 58.248461 
L 195.450208 57.195089 
L 195.550747 57.195089 
L 195.550747 56.141717 
L 195.695191 56.141717 
L 195.762752 51.928228 
L 195.813252 51.928228 
L 195.813252 51.401542 
L 195.953462 51.401542 
L 195.959713 49.821484 
L 196.100822 49.821484 
L 196.189467 48.768112 
L 196.261289 48.768112 
L 196.320575 47.188054 
L 196.42435 47.188054 
L 196.529528 42.974565 
L 197.264005 42.974565 
L 197.327691 41.921193 
L 197.51927 41.921193 
L 197.629429 40.341135 
L 197.669144 40.341135 
L 197.697456 38.761076 
L 197.896228 38.761076 
L 198.002186 36.127646 
L 198.334443 36.127646 
L 198.417884 34.547588 
L 198.4775 34.547588 
L 198.4775 33.494215 
L 198.818599 33.494215 
L 198.919114 31.914157 
L 199.08362 31.914157 
L 199.08362 30.334099 
L 338.688 30.334099 
L 338.688 30.334099 
" style="fill:none;stroke:#000080;stroke-linecap:square;stroke-width:1.5;"/>
   </g>
   <g id="line2d_44">
    <defs>
     <path d="M 0 6 
C 1.591219 6 3.117479 5.367802 4.242641 4.242641 
C 5.367802 3.117479 6 1.591219 6 0 
C 6 -1.591219 5.367802 -3.117479 4.242641 -4.242641 
C 3.117479 -5.367802 1.591219 -6 0 -6 
C -1.591219 -6 -3.117479 -5.367802 -4.242641 -4.242641 
C -5.367802 -3.117479 -6 -1.591219 -6 0 
C -6 1.591219 -5.367802 3.117479 -4.242641 4.242641 
C -3.117479 5.367802 -1.591219 6 0 6 
z
" id="md7145773c4" style="stroke:#000080;stroke-width:1.5;"/>
    </defs>
    <g>
     <use style="fill-opacity:0;stroke:#000080;stroke-width:1.5;" x="117.107138" xlink:href="#md7145773c4" y="262.60266"/>
     <use style="fill-opacity:0;stroke:#000080;stroke-width:1.5;" x="160.727241" xlink:href="#md7145773c4" y="177.279515"/>
     <use style="fill-opacity:0;stroke:#000080;stroke-width:1.5;" x="197.669144" xlink:href="#md7145773c4" y="40.341135"/>
     <use style="fill-opacity:0;stroke:#000080;stroke-width:1.5;" x="199.08362" xlink:href="#md7145773c4" y="30.334099"/>
     <use style="fill-opacity:0;stroke:#000080;stroke-width:1.5;" x="199.08362" xlink:href="#md7145773c4" y="30.334099"/>
     <use style="fill-opacity:0;stroke:#000080;stroke-width:1.5;" x="338.688" xlink:href="#md7145773c4" y="30.334099"/>
    </g>
   </g>
   <g id="line2d_45">
    <path style="fill:none;stroke:#000080;stroke-linecap:square;stroke-width:1.5;"/>
    <g/>
   </g>
   <g id="line2d_46">
    <defs>
     <path d="M 0 1.5 
C 0.397805 1.5 0.77937 1.341951 1.06066 1.06066 
C 1.341951 0.77937 1.5 0.397805 1.5 0 
C 1.5 -0.397805 1.341951 -0.77937 1.06066 -1.06066 
C 0.77937 -1.341951 0.397805 -1.5 0 -1.5 
C -0.397805 -1.5 -0.77937 -1.341951 -1.06066 -1.06066 
C -1.341951 -0.77937 -1.5 -0.397805 -1.5 0 
C -1.5 0.397805 -1.341951 0.77937 -1.06066 1.06066 
C -0.77937 1.341951 -0.397805 1.5 0 1.5 
z
" id="m6e4a38913a" style="stroke:#ff0000;"/>
    </defs>
    <g>
     <use style="fill:#ff0000;stroke:#ff0000;" x="195.086018" xlink:href="#m6e4a38913a" y="30.334099"/>
     <use style="fill:#ff0000;stroke:#ff0000;" x="195.086018" xlink:href="#m6e4a38913a" y="30.334099"/>
    </g>
   </g>
   <g id="line2d_47">
    <path d="M 38.440992 298.944 
L 38.440992 290.517023 
L 50.52898 290.517023 
L 50.52898 287.356906 
L 57.6 287.356906 
L 57.6 285.776848 
L 62.616969 285.776848 
L 62.616969 284.723476 
L 66.508432 284.723476 
L 66.508432 283.143418 
L 69.687988 283.143418 
L 69.687988 282.616732 
L 72.376266 282.616732 
L 72.376266 281.036673 
L 74.704957 281.036673 
L 74.704957 279.983301 
L 78.59642 279.983301 
L 78.59642 277.876557 
L 80.258561 277.876557 
L 80.258561 276.296499 
L 83.171864 276.296499 
L 83.171864 275.769812 
L 85.66744 275.769812 
L 85.66744 274.71644 
L 86.792945 274.71644 
L 86.792945 273.136382 
L 88.846997 273.136382 
L 88.846997 272.609696 
L 89.78989 272.609696 
L 89.78989 270.502952 
L 91.535274 270.502952 
L 91.535274 269.449579 
L 93.121756 269.449579 
L 93.121756 268.922893 
L 93.863965 268.922893 
L 93.863965 268.396207 
L 94.575872 268.396207 
L 94.575872 267.869521 
L 95.259853 267.869521 
L 95.259853 266.816149 
L 99.938184 266.816149 
L 99.938184 265.762777 
L 110.694282 265.762777 
L 110.694282 264.709405 
L 113.965867 264.709405 
L 113.965867 263.656033 
L 114.418861 263.656033 
L 114.418861 262.60266 
L 115.291007 262.60266 
L 115.291007 261.549288 
L 118.751849 261.549288 
L 118.751849 260.495916 
L 120.254726 260.495916 
L 120.254726 259.442544 
L 121.189196 259.442544 
L 121.189196 258.389172 
L 121.340187 258.389172 
L 121.340187 257.3358 
L 121.931406 257.3358 
L 121.931406 256.282427 
L 122.782271 256.282427 
L 122.782271 255.755741 
L 124.114161 255.755741 
L 124.114161 255.229055 
L 124.989434 255.229055 
L 124.989434 254.702369 
L 125.23165 254.702369 
L 125.23165 254.175683 
L 125.822869 254.175683 
L 125.822869 251.015567 
L 126.053856 251.015567 
L 126.053856 250.488881 
L 126.729009 250.488881 
L 126.729009 248.908822 
L 127.48501 248.908822 
L 127.590383 244.695334 
L 128.107907 244.695334 
L 128.107907 243.641962 
L 128.807571 243.641962 
L 128.905271 242.061903 
L 129.002426 242.061903 
L 129.002426 239.955159 
L 129.290685 239.955159 
L 129.290685 238.901787 
L 129.667765 238.901787 
L 129.667765 238.375101 
L 129.945319 238.375101 
L 130.036864 235.74167 
L 130.30865 235.74167 
L 130.30865 234.688298 
L 130.576266 234.688298 
L 130.576266 233.634926 
L 130.752422 233.634926 
L 130.839837 232.581554 
L 131.099484 232.581554 
L 131.185181 231.528182 
L 131.523818 231.528182 
L 131.523818 231.001496 
L 131.856005 231.001496 
L 131.856005 229.948123 
L 132.262533 229.948123 
L 132.262533 226.788007 
L 132.422528 226.788007 
L 132.501978 225.734635 
L 132.816208 225.734635 
L 132.816208 224.154577 
L 133.428175 224.154577 
L 133.428175 223.101204 
L 133.57787 223.101204 
L 133.57787 221.521146 
L 134.591225 221.521146 
L 134.591225 220.467774 
L 134.870259 220.467774 
L 134.939326 218.36103 
L 135.00812 218.36103 
L 135.00812 217.834344 
L 135.415281 217.834344 
L 135.415281 216.254285 
L 135.813153 216.254285 
L 135.878591 215.200913 
L 135.943785 215.200913 
L 135.943785 214.674227 
L 136.393441 214.674227 
L 136.393441 213.620855 
L 136.519813 213.620855 
L 136.519813 213.094169 
L 136.645276 213.094169 
L 136.645276 212.567483 
L 136.831795 212.567483 
L 136.831795 209.934052 
L 137.077422 209.934052 
L 137.077422 209.407366 
L 137.259399 209.407366 
L 137.259399 208.353994 
L 137.439497 208.353994 
L 137.499118 207.300622 
L 137.558536 207.300622 
L 137.558536 205.720564 
L 137.676769 205.720564 
L 137.676769 204.667192 
L 137.910857 204.667192 
L 137.910857 204.140506 
L 138.199116 204.140506 
L 138.256201 203.087133 
L 138.313099 203.087133 
L 138.313099 202.560447 
L 138.650644 202.560447 
L 138.650644 200.980389 
L 138.816998 200.980389 
L 138.816998 199.400331 
L 138.981779 199.400331 
L 138.981779 198.346959 
L 139.145019 198.346959 
L 139.145019 196.7669 
L 139.413734 196.7669 
L 139.413734 195.186842 
L 139.990725 195.186842 
L 139.990725 193.080098 
L 140.246813 193.080098 
L 140.297583 191.50004 
L 140.39868 191.50004 
L 140.499195 189.919981 
L 140.698504 189.919981 
L 140.698504 188.866609 
L 140.89556 188.866609 
L 140.89556 188.339923 
L 141.33096 188.339923 
L 141.378673 186.233179 
L 141.47371 186.233179 
L 141.521035 185.179807 
L 141.848763 185.179807 
L 141.848763 184.126434 
L 142.170445 184.126434 
L 142.215919 182.01969 
L 142.619936 182.01969 
L 142.619936 181.493004 
L 143.358447 181.493004 
L 143.358447 180.439632 
L 143.737119 180.439632 
L 143.778691 179.38626 
L 143.861538 179.38626 
L 143.861538 178.859574 
L 144.026061 178.859574 
L 144.026061 178.332888 
L 144.747789 178.332888 
L 144.787023 177.279515 
L 144.94308 177.279515 
L 144.94308 176.752829 
L 145.289185 176.752829 
L 145.289185 175.172771 
L 145.478539 175.172771 
L 145.478539 174.119399 
L 145.628555 174.119399 
L 145.628555 172.539341 
L 146.143677 172.539341 
L 146.252108 171.485969 
L 146.288102 171.485969 
L 146.288102 170.959282 
L 146.502522 170.959282 
L 146.502522 170.432596 
L 146.679213 170.432596 
L 146.679213 169.90591 
L 146.992815 169.90591 
L 146.992815 167.799166 
L 147.4697 167.799166 
L 147.4697 167.27248 
L 147.636905 167.27248 
L 147.636905 166.745794 
L 147.802521 166.745794 
L 147.802521 165.692422 
L 147.96658 165.692422 
L 147.96658 165.165736 
L 148.096724 165.165736 
L 148.096724 164.112363 
L 148.54473 164.112363 
L 148.54473 162.532305 
L 148.79566 162.532305 
L 148.79566 162.005619 
L 149.497598 162.005619 
L 149.497598 161.478933 
L 150.51433 161.478933 
L 150.51433 160.952247 
L 153.081247 160.952247 
L 153.081247 160.425561 
L 162.417924 160.425561 
L 162.417924 159.898875 
L 162.602318 159.898875 
L 162.68677 157.265444 
L 162.840544 157.265444 
L 162.923853 155.685386 
L 163.006766 155.685386 
L 163.116707 154.632014 
L 163.19871 154.632014 
L 163.19871 153.578642 
L 163.388564 153.578642 
L 163.388564 153.051956 
L 163.801742 153.051956 
L 163.880593 151.471897 
L 163.932963 151.471897 
L 163.932963 150.945211 
L 164.050224 150.945211 
L 164.102088 149.891839 
L 164.179597 149.891839 
L 164.231078 148.311781 
L 164.536814 148.311781 
L 164.536814 147.785095 
L 164.687696 147.785095 
L 164.76265 145.151665 
L 164.874481 145.151665 
L 164.874481 144.624978 
L 165.217881 144.624978 
L 165.217881 144.098292 
L 165.459092 144.098292 
L 165.459092 140.938176 
L 165.779524 140.938176 
L 165.849938 138.831432 
L 165.920069 138.831432 
L 165.920069 137.251373 
L 166.209284 137.251373 
L 166.209284 136.724687 
L 166.425924 136.724687 
L 166.527611 131.457826 
L 166.572616 131.457826 
L 166.617505 129.351082 
L 166.751482 129.351082 
L 166.807003 125.66428 
L 167.038282 125.66428 
L 167.147346 123.557535 
L 167.201624 123.557535 
L 167.309674 119.870733 
L 167.395635 119.870733 
L 167.395635 117.763988 
L 167.640438 117.763988 
L 167.745812 110.917069 
L 168.027181 110.917069 
L 168.027181 110.390383 
L 168.171308 110.390383 
L 168.171308 109.863697 
L 168.334579 109.863697 
L 168.334579 109.337011 
L 169.060699 109.337011 
L 169.128764 107.230267 
L 169.54115 107.230267 
L 169.597925 106.176895 
L 169.673338 106.176895 
L 169.75779 105.123522 
L 169.916203 105.123522 
L 169.916203 101.43672 
L 170.201421 101.43672 
L 170.310587 95.643173 
L 170.337772 95.643173 
L 170.41006 94.063115 
L 170.535846 94.063115 
L 170.571619 92.483056 
L 170.767069 92.483056 
L 170.872762 90.902998 
L 170.907851 90.902998 
L 171.003983 88.269568 
L 171.24632 88.269568 
L 171.272086 86.68951 
L 171.459882 86.68951 
L 171.459882 84.582765 
L 171.704381 84.582765 
L 171.704381 84.056079 
L 171.8212 84.056079 
L 171.904165 79.842591 
L 171.937241 79.842591 
L 172.011434 78.262532 
L 172.052516 78.262532 
L 172.13439 75.629102 
L 178.8005 75.629102 
L 178.8005 75.102416 
L 180.432721 75.102416 
L 180.432721 74.57573 
L 180.774482 74.57573 
L 180.863838 72.995672 
L 181.240998 72.995672 
L 181.240998 72.468985 
L 181.380957 72.468985 
L 181.380957 71.415613 
L 181.836415 71.415613 
L 181.845779 69.308869 
L 181.980986 69.308869 
L 181.994913 67.728811 
L 182.128973 67.728811 
L 182.133577 65.622066 
L 182.280281 65.622066 
L 182.280281 65.09538 
L 182.47549 65.09538 
L 182.47549 64.568694 
L 182.632784 64.568694 
L 182.632784 64.042008 
L 182.88154 64.042008 
L 182.88154 62.988636 
L 183.191911 62.988636 
L 183.191911 62.46195 
L 183.552115 62.46195 
L 183.552115 61.935264 
L 183.716857 61.935264 
L 183.775618 60.881892 
L 183.89671 60.881892 
L 183.954868 59.301833 
L 185.7466 59.301833 
L 185.7466 58.248461 
L 185.925313 58.248461 
L 185.925313 57.721775 
L 186.640183 57.721775 
L 186.640183 57.195089 
L 186.831126 57.195089 
L 186.831126 56.141717 
L 187.130969 56.141717 
L 187.22749 53.508287 
L 187.258402 53.508287 
L 187.278979 48.768112 
L 187.675459 48.768112 
L 187.762355 45.607995 
L 187.971131 45.607995 
L 188.076227 42.974565 
L 188.30394 42.974565 
L 188.30394 40.867821 
L 192.339594 40.867821 
L 192.339594 40.341135 
L 193.02101 40.341135 
L 193.02101 39.814448 
L 193.180566 39.814448 
L 193.180566 39.287762 
L 193.548079 39.287762 
L 193.557646 38.23439 
L 193.945464 38.23439 
L 193.945464 36.654332 
L 194.075939 36.654332 
L 194.075939 36.127646 
L 194.588291 36.127646 
L 194.592798 33.494215 
L 194.83893 33.494215 
L 194.843373 31.914157 
L 195.086018 31.914157 
L 195.086018 30.334099 
L 338.688 30.334099 
L 338.688 30.334099 
" style="fill:none;stroke:#ff0000;stroke-linecap:square;stroke-width:1.5;"/>
   </g>
   <g id="line2d_48">
    <defs>
     <path d="M 0 -6 
L -5.196152 -3 
L -5.196152 3 
L -0 6 
L 5.196152 3 
L 5.196152 -3 
z
" id="m1e22532955" style="stroke:#ff0000;stroke-linejoin:miter;stroke-width:1.5;"/>
    </defs>
    <g>
     <use style="fill-opacity:0;stroke:#ff0000;stroke-linejoin:miter;stroke-width:1.5;" x="114.418861" xlink:href="#m1e22532955" y="262.60266"/>
     <use style="fill-opacity:0;stroke:#ff0000;stroke-linejoin:miter;stroke-width:1.5;" x="162.68677" xlink:href="#m1e22532955" y="157.265444"/>
     <use style="fill-opacity:0;stroke:#ff0000;stroke-linejoin:miter;stroke-width:1.5;" x="187.762355" xlink:href="#m1e22532955" y="48.241426"/>
     <use style="fill-opacity:0;stroke:#ff0000;stroke-linejoin:miter;stroke-width:1.5;" x="195.086018" xlink:href="#m1e22532955" y="30.334099"/>
     <use style="fill-opacity:0;stroke:#ff0000;stroke-linejoin:miter;stroke-width:1.5;" x="195.086018" xlink:href="#m1e22532955" y="30.334099"/>
     <use style="fill-opacity:0;stroke:#ff0000;stroke-linejoin:miter;stroke-width:1.5;" x="338.688" xlink:href="#m1e22532955" y="30.334099"/>
    </g>
   </g>
   <g id="line2d_49">
    <path style="fill:none;stroke:#ff0000;stroke-linecap:square;stroke-width:1.5;"/>
    <g/>
   </g>
   <g id="line2d_50">
    <defs>
     <path d="M 0 1.5 
C 0.397805 1.5 0.77937 1.341951 1.06066 1.06066 
C 1.341951 0.77937 1.5 0.397805 1.5 0 
C 1.5 -0.397805 1.341951 -0.77937 1.06066 -1.06066 
C 0.77937 -1.341951 0.397805 -1.5 0 -1.5 
C -0.397805 -1.5 -0.77937 -1.341951 -1.06066 -1.06066 
C -1.341951 -0.77937 -1.5 -0.397805 -1.5 0 
C -1.5 0.397805 -1.341951 0.77937 -1.06066 1.06066 
C -0.77937 1.341951 -0.397805 1.5 0 1.5 
z
" id="m8a100da2bf" style="stroke:#bebebe;"/>
    </defs>
    <g>
     <use style="fill:#bebebe;stroke:#bebebe;" x="374.352924" xlink:href="#m8a100da2bf" y="140.938176"/>
     <use style="fill:#bebebe;stroke:#bebebe;" x="374.352924" xlink:href="#m8a100da2bf" y="140.938176"/>
    </g>
   </g>
   <g id="line2d_51">
    <path d="M 38.440992 298.944 
L 38.440992 291.043709 
L 50.52898 291.043709 
L 50.52898 287.883592 
L 57.6 287.883592 
L 57.6 286.303534 
L 62.616969 286.303534 
L 62.616969 283.670104 
L 66.508432 283.670104 
L 66.508432 282.090045 
L 69.687988 282.090045 
L 69.687988 281.563359 
L 72.376266 281.563359 
L 72.376266 281.036673 
L 74.704957 281.036673 
L 74.704957 278.403243 
L 78.59642 278.403243 
L 78.59642 276.823185 
L 85.66744 276.823185 
L 85.66744 274.189754 
L 89.78989 274.189754 
L 89.78989 272.609696 
L 100.934985 272.609696 
L 100.934985 271.556324 
L 102.330873 271.556324 
L 102.330873 271.029638 
L 104.826449 271.029638 
L 104.826449 268.922893 
L 107.009204 268.922893 
L 107.009204 267.869521 
L 108.326001 267.869521 
L 108.326001 267.342835 
L 113.73488 267.342835 
L 113.73488 266.816149 
L 114.641021 266.816149 
L 114.641021 266.289463 
L 115.711251 266.289463 
L 115.711251 265.762777 
L 115.917635 265.762777 
L 115.917635 264.709405 
L 119.097192 264.709405 
L 119.097192 264.182719 
L 121.189196 264.182719 
L 121.189196 263.129347 
L 122.076131 263.129347 
L 122.076131 261.549288 
L 122.782271 261.549288 
L 122.782271 261.022602 
L 137.077422 261.022602 
L 137.077422 260.495916 
L 137.259399 260.495916 
L 137.259399 259.96923 
L 137.735587 259.96923 
L 137.735587 259.442544 
L 138.426341 259.442544 
L 138.426341 258.389172 
L 139.413734 258.389172 
L 139.413734 256.282427 
L 140.195896 256.282427 
L 140.195896 255.229055 
L 141.941279 255.229055 
L 141.941279 254.175683 
L 145.059213 254.175683 
L 145.059213 253.122311 
L 150.79426 253.122311 
L 150.79426 252.595625 
L 152.385571 252.595625 
L 152.385571 252.068939 
L 154.075343 252.068939 
L 154.075343 251.542253 
L 155.189341 251.542253 
L 155.189341 250.488881 
L 157.453162 250.488881 
L 157.453162 249.962195 
L 158.590511 249.962195 
L 158.590511 249.435508 
L 160.961329 249.435508 
L 160.961329 248.382136 
L 161.100288 248.382136 
L 161.100288 247.85545 
L 165.506937 247.85545 
L 165.506937 247.328764 
L 165.9084 247.328764 
L 165.9084 245.22202 
L 166.807003 245.22202 
L 166.807003 244.695334 
L 167.902688 244.695334 
L 167.902688 243.641962 
L 168.992367 243.641962 
L 168.992367 242.588589 
L 170.986544 242.588589 
L 170.986544 242.061903 
L 172.142557 242.061903 
L 172.142557 241.535217 
L 174.746654 241.535217 
L 174.746654 239.955159 
L 175.85677 239.955159 
L 175.85677 238.901787 
L 176.138213 238.901787 
L 176.138213 238.375101 
L 177.493098 238.375101 
L 177.493098 237.848415 
L 178.92822 237.848415 
L 178.92822 236.795043 
L 181.836415 236.795043 
L 181.836415 236.268356 
L 182.082862 236.268356 
L 182.082862 235.74167 
L 185.233922 235.74167 
L 185.233922 234.688298 
L 191.129263 234.688298 
L 191.129263 233.10824 
L 192.091675 233.10824 
L 192.091675 232.581554 
L 197.205906 232.581554 
L 197.205906 232.054868 
L 201.784335 232.054868 
L 201.784335 231.001496 
L 203.310451 231.001496 
L 203.310451 230.47481 
L 206.932472 230.47481 
L 206.932472 228.368065 
L 210.253422 228.368065 
L 210.253422 227.314693 
L 214.282956 227.314693 
L 214.282956 224.681263 
L 217.693524 224.681263 
L 217.73183 223.627891 
L 221.201517 223.627891 
L 221.201517 223.101204 
L 222.173992 223.101204 
L 222.173992 222.574518 
L 223.493604 222.574518 
L 223.493604 222.047832 
L 224.6662 222.047832 
L 224.707929 220.467774 
L 225.399369 220.467774 
L 225.399369 219.414402 
L 225.773946 219.414402 
L 225.773946 218.36103 
L 226.501242 218.36103 
L 226.501242 217.834344 
L 229.13732 217.834344 
L 229.13732 217.307658 
L 230.80627 217.307658 
L 230.80627 216.780971 
L 232.900296 216.780971 
L 232.900296 216.254285 
L 239.317429 216.254285 
L 239.317429 215.727599 
L 241.357545 215.727599 
L 241.357545 215.200913 
L 241.93842 215.200913 
L 241.93842 214.674227 
L 243.2617 214.674227 
L 243.2617 214.147541 
L 245.211452 214.147541 
L 245.211452 213.620855 
L 245.685543 213.620855 
L 245.685543 212.567483 
L 246.843763 212.567483 
L 246.843763 212.040797 
L 250.031633 212.040797 
L 250.031633 211.514111 
L 260.803619 211.514111 
L 260.803619 210.987425 
L 261.616327 210.987425 
L 261.616327 208.88068 
L 263.752273 208.88068 
L 263.752273 207.827308 
L 264.275096 207.827308 
L 264.275096 206.773936 
L 264.719415 206.773936 
L 264.786162 204.140506 
L 270.889286 204.140506 
L 270.889286 203.087133 
L 272.269508 203.087133 
L 272.269508 202.033761 
L 272.720544 202.033761 
L 272.720544 200.453703 
L 275.247762 200.453703 
L 275.247762 199.927017 
L 276.591221 199.927017 
L 276.591221 199.400331 
L 277.457712 199.400331 
L 277.550136 193.606784 
L 280.755724 193.606784 
L 280.755724 193.080098 
L 281.032136 193.080098 
L 281.116088 190.446667 
L 283.807079 190.446667 
L 283.807079 189.393295 
L 289.46233 189.393295 
L 289.46233 188.339923 
L 291.336667 188.339923 
L 291.336667 186.759865 
L 294.159704 186.759865 
L 294.159704 185.706493 
L 294.496007 185.706493 
L 294.496007 184.653121 
L 296.326968 184.653121 
L 296.326968 184.126434 
L 297.18597 184.126434 
L 297.18597 183.599748 
L 300.515341 183.599748 
L 300.515341 183.073062 
L 300.884983 183.073062 
L 300.884983 182.546376 
L 303.089945 182.546376 
L 303.089945 179.912946 
L 304.001764 179.912946 
L 304.001764 179.38626 
L 307.391157 179.38626 
L 307.391157 178.332888 
L 311.836401 178.332888 
L 311.836401 177.279515 
L 313.047696 177.279515 
L 313.047696 173.592713 
L 319.346605 173.592713 
L 319.346605 172.012655 
L 321.168493 172.012655 
L 321.168493 170.959282 
L 321.71378 170.959282 
L 321.71378 170.432596 
L 323.327063 170.432596 
L 323.327063 168.852538 
L 323.964308 168.852538 
L 323.964308 166.745794 
L 327.611749 166.745794 
L 327.611749 165.165736 
L 328.768121 165.165736 
L 328.768121 164.63905 
L 330.626707 164.63905 
L 330.626707 163.585677 
L 333.196454 163.585677 
L 333.196454 162.532305 
L 335.435717 162.532305 
L 335.435717 161.478933 
L 336.182849 161.478933 
L 336.182849 160.952247 
L 337.419894 160.952247 
L 337.419894 160.425561 
L 338.088197 160.425561 
L 338.088197 159.372189 
L 338.688 159.372189 
L 338.688 159.372189 
" style="fill:none;stroke:#bebebe;stroke-linecap:square;stroke-width:1.5;"/>
   </g>
   <g id="line2d_52">
    <defs>
     <path d="M 0 0 
L -6 -0 
M 0 0 
L 3 4.8 
M 0 0 
L 3 -4.8 
" id="m295bdad384" style="stroke:#bebebe;stroke-width:1.5;"/>
    </defs>
    <g>
     <use style="fill-opacity:0;stroke:#bebebe;stroke-width:1.5;" x="122.782271" xlink:href="#m295bdad384" y="261.549288"/>
     <use style="fill-opacity:0;stroke:#bebebe;stroke-width:1.5;" x="185.233922" xlink:href="#m295bdad384" y="234.688298"/>
     <use style="fill-opacity:0;stroke:#bebebe;stroke-width:1.5;" x="261.616327" xlink:href="#m295bdad384" y="208.88068"/>
     <use style="fill-opacity:0;stroke:#bebebe;stroke-width:1.5;" x="323.964308" xlink:href="#m295bdad384" y="168.852538"/>
     <use style="fill-opacity:0;stroke:#bebebe;stroke-width:1.5;" x="338.088197" xlink:href="#m295bdad384" y="159.372189"/>
     <use style="fill-opacity:0;stroke:#bebebe;stroke-width:1.5;" x="338.688" xlink:href="#m295bdad384" y="159.372189"/>
    </g>
   </g>
   <g id="line2d_53">
    <path style="fill:none;stroke:#bebebe;stroke-linecap:square;stroke-width:1.5;"/>
    <g/>
   </g>
   <g id="line2d_54">
    <path clip-path="url(#p8d6d9a95d3)" d="M 298.532571 183.599748 
" style="fill:none;stroke:#bebebe;stroke-linecap:square;stroke-width:1.5;"/>
    <defs>
     <path d="M -12 12 
L 12 -12 
M -12 -12 
L 12 12 
" id="mfe177bfae1" style="stroke:#bebebe;"/>
    </defs>
    <g clip-path="url(#p8d6d9a95d3)">
     <use style="fill:#bebebe;stroke:#bebebe;" x="298.532571" xlink:href="#mfe177bfae1" y="183.599748"/>
    </g>
   </g>
   <g id="line2d_55">
    <defs>
     <path d="M 0 1.5 
C 0.397805 1.5 0.77937 1.341951 1.06066 1.06066 
C 1.341951 0.77937 1.5 0.397805 1.5 0 
C 1.5 -0.397805 1.341951 -0.77937 1.06066 -1.06066 
C 0.77937 -1.341951 0.397805 -1.5 0 -1.5 
C -0.397805 -1.5 -0.77937 -1.341951 -1.06066 -1.06066 
C -1.341951 -0.77937 -1.5 -0.397805 -1.5 0 
C -1.5 0.397805 -1.341951 0.77937 -1.06066 1.06066 
C -0.77937 1.341951 -0.397805 1.5 0 1.5 
z
" id="mf5b6afe57b" style="stroke:#6495ed;"/>
    </defs>
    <g>
     <use style="fill:#6495ed;stroke:#6495ed;" x="305.745734" xlink:href="#mf5b6afe57b" y="198.873645"/>
     <use style="fill:#6495ed;stroke:#6495ed;" x="305.745734" xlink:href="#mf5b6afe57b" y="198.873645"/>
    </g>
   </g>
   <g id="line2d_56">
    <path d="M 38.440992 298.944 
L 38.440992 291.570395 
L 85.66744 291.570395 
L 85.66744 289.990337 
L 86.792945 289.990337 
L 86.792945 283.670104 
L 87.850195 283.670104 
L 87.850195 281.563359 
L 96.552242 281.563359 
L 96.552242 281.036673 
L 97.755429 281.036673 
L 97.755429 278.929929 
L 98.32726 278.929929 
L 98.32726 278.403243 
L 98.880934 278.403243 
L 98.880934 277.349871 
L 102.772397 277.349871 
L 102.772397 276.823185 
L 107.347841 276.823185 
L 107.347841 276.296499 
L 117.857331 276.296499 
L 117.857331 273.136382 
L 133.72629 273.136382 
L 133.72629 272.609696 
L 136.456742 272.609696 
L 136.456742 272.08301 
L 143.187472 272.08301 
L 143.187472 270.502952 
L 144.148442 270.502952 
L 144.189046 268.922893 
L 145.665858 268.922893 
L 145.665858 268.396207 
L 146.573414 268.396207 
L 146.608752 266.816149 
L 148.733265 266.816149 
L 148.733265 266.289463 
L 150.401087 266.289463 
L 150.401087 265.762777 
L 150.87737 265.762777 
L 150.87737 264.709405 
L 154.730098 264.709405 
L 154.730098 263.656033 
L 156.378132 263.656033 
L 156.378132 263.129347 
L 159.6749 263.129347 
L 159.6749 261.549288 
L 161.510643 261.549288 
L 161.510643 261.022602 
L 162.231559 261.022602 
L 162.231559 258.915858 
L 169.031447 258.915858 
L 169.031447 258.389172 
L 170.802371 258.389172 
L 170.802371 257.3358 
L 173.688525 257.3358 
L 173.770522 255.229055 
L 178.479885 255.229055 
L 178.479885 254.175683 
L 181.046089 254.175683 
L 181.109673 253.122311 
L 193.023476 253.122311 
L 193.023476 252.595625 
L 204.079238 252.595625 
L 204.079238 251.542253 
L 211.337166 251.542253 
L 211.337166 251.015567 
L 211.476365 251.015567 
L 211.476365 250.488881 
L 211.630586 250.488881 
L 211.639915 249.435508 
L 217.607629 249.435508 
L 217.607629 248.908822 
L 221.293396 248.908822 
L 221.293396 248.382136 
L 224.411265 248.382136 
L 224.411265 247.85545 
L 226.464683 247.85545 
L 226.478084 246.802078 
L 230.903179 246.802078 
L 230.903179 246.275392 
L 231.076213 246.275392 
L 231.076213 245.748706 
L 231.63246 245.748706 
L 231.63246 245.22202 
L 232.00827 245.22202 
L 232.094281 243.115275 
L 232.78366 243.115275 
L 232.78366 242.061903 
L 233.444393 242.061903 
L 233.444393 241.535217 
L 235.424926 241.535217 
L 235.424926 241.008531 
L 236.228948 241.008531 
L 236.228948 240.481845 
L 236.850335 240.481845 
L 236.850335 239.955159 
L 238.562271 239.955159 
L 238.562271 239.428473 
L 241.737934 239.428473 
L 241.737934 238.901787 
L 242.705951 238.901787 
L 242.738617 237.848415 
L 243.354118 237.848415 
L 243.354118 237.321729 
L 244.303462 237.321729 
L 244.303462 236.795043 
L 245.075003 236.795043 
L 245.075003 236.268356 
L 245.327565 236.268356 
L 245.327565 235.74167 
L 245.495796 235.74167 
L 245.495796 235.214984 
L 245.848942 235.214984 
L 245.848942 234.688298 
L 246.075204 234.688298 
L 246.075204 234.161612 
L 246.219141 234.161612 
L 246.219141 233.634926 
L 246.415075 233.634926 
L 246.415075 233.10824 
L 246.735875 233.10824 
L 246.735875 232.581554 
L 246.891112 232.581554 
L 246.891112 232.054868 
L 247.021474 232.054868 
L 247.021474 231.528182 
L 247.643352 231.528182 
L 247.643352 231.001496 
L 251.282826 231.001496 
L 251.287366 229.421437 
L 251.425954 229.421437 
L 251.425954 228.894751 
L 252.246611 228.894751 
L 252.246611 228.368065 
L 252.489871 228.368065 
L 252.501029 227.314693 
L 252.970483 227.314693 
L 252.970483 226.788007 
L 253.651102 226.788007 
L 253.651102 226.261321 
L 256.398354 226.261321 
L 256.415471 225.207949 
L 256.709292 225.207949 
L 256.709292 224.681263 
L 257.104685 224.681263 
L 257.104685 224.154577 
L 257.298822 224.154577 
L 257.36277 223.101204 
L 257.687506 223.101204 
L 257.784361 222.047832 
L 258.024881 222.047832 
L 258.072744 220.99446 
L 260.219873 220.99446 
L 260.219873 220.467774 
L 260.606767 220.467774 
L 260.606767 219.941088 
L 261.116616 219.941088 
L 261.120391 218.887716 
L 261.515135 218.887716 
L 261.564158 217.834344 
L 262.199876 217.834344 
L 262.199876 217.307658 
L 263.49293 217.307658 
L 263.49293 216.780971 
L 265.510368 216.780971 
L 265.510368 216.254285 
L 265.812493 216.254285 
L 265.812493 215.727599 
L 266.396196 215.727599 
L 266.396196 215.200913 
L 268.142252 215.200913 
L 268.142252 214.674227 
L 269.452884 214.674227 
L 269.452884 214.147541 
L 269.864138 214.147541 
L 269.864138 213.620855 
L 270.080453 213.620855 
L 270.08782 212.567483 
L 271.741621 212.567483 
L 271.741621 212.040797 
L 273.890465 212.040797 
L 273.890465 211.514111 
L 274.250474 211.514111 
L 274.250474 210.987425 
L 274.994636 210.987425 
L 274.994636 210.460738 
L 276.977155 210.460738 
L 276.977155 209.934052 
L 277.31029 209.934052 
L 277.31029 209.407366 
L 278.141909 209.407366 
L 278.141909 208.88068 
L 278.551862 208.88068 
L 278.551862 208.353994 
L 281.343502 208.353994 
L 281.407389 207.300622 
L 282.011697 207.300622 
L 282.062323 206.24725 
L 282.12706 206.24725 
L 282.12706 205.720564 
L 282.697917 205.720564 
L 282.697917 205.193878 
L 282.862465 205.193878 
L 282.862465 204.667192 
L 283.048345 204.667192 
L 283.048345 204.140506 
L 283.306775 204.140506 
L 283.306775 203.613819 
L 286.794531 203.613819 
L 286.794531 203.087133 
L 288.70569 203.087133 
L 288.70569 202.560447 
L 289.049871 202.560447 
L 289.049871 202.033761 
L 289.708612 202.033761 
L 289.708612 201.507075 
L 292.882954 201.507075 
L 292.882954 200.980389 
L 294.990633 200.980389 
L 294.990633 200.453703 
L 295.788494 200.453703 
L 295.788494 199.927017 
L 300.715958 199.927017 
L 300.715958 199.400331 
L 305.745734 199.400331 
L 305.745734 198.873645 
L 338.688 198.873645 
L 338.688 198.873645 
" style="fill:none;stroke:#6495ed;stroke-linecap:square;stroke-width:1.5;"/>
   </g>
   <g id="line2d_57">
    <defs>
     <path d="M -0 6 
L 6 -6 
L -6 -6 
z
" id="m7e9d658921" style="stroke:#6495ed;stroke-linejoin:miter;stroke-width:1.5;"/>
    </defs>
    <g>
     <use style="fill-opacity:0;stroke:#6495ed;stroke-linejoin:miter;stroke-width:1.5;" x="117.857331" xlink:href="#m7e9d658921" y="273.136382"/>
     <use style="fill-opacity:0;stroke:#6495ed;stroke-linejoin:miter;stroke-width:1.5;" x="211.639915" xlink:href="#m7e9d658921" y="249.962195"/>
     <use style="fill-opacity:0;stroke:#6495ed;stroke-linejoin:miter;stroke-width:1.5;" x="258.072744" xlink:href="#m7e9d658921" y="221.521146"/>
     <use style="fill-opacity:0;stroke:#6495ed;stroke-linejoin:miter;stroke-width:1.5;" x="305.745734" xlink:href="#m7e9d658921" y="198.873645"/>
     <use style="fill-opacity:0;stroke:#6495ed;stroke-linejoin:miter;stroke-width:1.5;" x="305.745734" xlink:href="#m7e9d658921" y="198.873645"/>
     <use style="fill-opacity:0;stroke:#6495ed;stroke-linejoin:miter;stroke-width:1.5;" x="338.688" xlink:href="#m7e9d658921" y="198.873645"/>
    </g>
   </g>
   <g id="line2d_58">
    <path style="fill:none;stroke:#6495ed;stroke-linecap:square;stroke-width:1.5;"/>
    <g/>
   </g>
   <g id="line2d_59">
    <path clip-path="url(#p8d6d9a95d3)" d="M 232.779624 243.115275 
" style="fill:none;stroke:#6495ed;stroke-linecap:square;stroke-width:1.5;"/>
    <defs>
     <path d="M -12 12 
L 12 -12 
M -12 -12 
L 12 12 
" id="m5dbba83607" style="stroke:#6495ed;"/>
    </defs>
    <g clip-path="url(#p8d6d9a95d3)">
     <use style="fill:#6495ed;stroke:#6495ed;" x="232.779624" xlink:href="#m5dbba83607" y="243.115275"/>
    </g>
   </g>
   <g id="line2d_60">
    <path d="M 338.688 198.873645 
L 369.60768 293.571802 
" style="fill:none;stroke:#6495ed;stroke-linecap:square;stroke-width:1.5;"/>
    <g>
     <use style="fill-opacity:0;stroke:#6495ed;stroke-linejoin:miter;stroke-width:1.5;" x="338.688" xlink:href="#m7e9d658921" y="198.873645"/>
     <use style="fill-opacity:0;stroke:#6495ed;stroke-linejoin:miter;stroke-width:1.5;" x="369.60768" xlink:href="#m7e9d658921" y="293.571802"/>
    </g>
   </g>
   <g id="line2d_61">
    <path d="M 338.688 159.372189 
L 369.60768 229.105426 
" style="fill:none;stroke:#bebebe;stroke-linecap:square;stroke-width:1.5;"/>
    <g>
     <use style="fill-opacity:0;stroke:#bebebe;stroke-width:1.5;" x="338.688" xlink:href="#m295bdad384" y="159.372189"/>
     <use style="fill-opacity:0;stroke:#bebebe;stroke-width:1.5;" x="369.60768" xlink:href="#m295bdad384" y="229.105426"/>
    </g>
   </g>
   <g id="line2d_62">
    <path d="M 338.688 30.334099 
L 369.60768 164.63905 
" style="fill:none;stroke:#000080;stroke-linecap:square;stroke-width:1.5;"/>
    <g>
     <use style="fill-opacity:0;stroke:#000080;stroke-width:1.5;" x="338.688" xlink:href="#md7145773c4" y="30.334099"/>
     <use style="fill-opacity:0;stroke:#000080;stroke-width:1.5;" x="369.60768" xlink:href="#md7145773c4" y="164.63905"/>
    </g>
   </g>
   <g id="line2d_63">
    <path d="M 338.688 30.334099 
L 369.60768 100.172673 
" style="fill:none;stroke:#ff0000;stroke-linecap:square;stroke-width:1.5;"/>
    <g>
     <use style="fill-opacity:0;stroke:#ff0000;stroke-linejoin:miter;stroke-width:1.5;" x="338.688" xlink:href="#m1e22532955" y="30.334099"/>
     <use style="fill-opacity:0;stroke:#ff0000;stroke-linejoin:miter;stroke-width:1.5;" x="369.60768" xlink:href="#m1e22532955" y="100.172673"/>
    </g>
   </g>
   <g id="line2d_64">
    <path d="M 338.688 298.944 
L 338.688 30.334099 
" style="fill:none;stroke:#000000;stroke-linecap:square;stroke-width:1.5;"/>
   </g>
   <g id="patch_3">
    <path d="M 57.6 298.944 
L 57.6 27.648 
" style="fill:none;stroke:#000000;stroke-linecap:square;stroke-linejoin:miter;stroke-width:0.8;"/>
   </g>
   <g id="patch_4">
    <path d="M 338.688 298.944 
L 338.688 27.648 
" style="fill:none;stroke:#000000;stroke-linecap:square;stroke-linejoin:miter;stroke-width:0.8;"/>
   </g>
   <g id="patch_5">
    <path d="M 57.6 298.944 
L 338.688 298.944 
" style="fill:none;stroke:#000000;stroke-linecap:square;stroke-linejoin:miter;stroke-width:0.8;"/>
   </g>
   <g id="patch_6">
    <path d="M 57.6 27.648 
L 338.688 27.648 
" style="fill:none;stroke:#000000;stroke-linecap:square;stroke-linejoin:miter;stroke-width:0.8;"/>
   </g>
   <g id="text_13">
    <!-- SLSQP-11  -->
    <defs>
     <path d="M 53.515625 70.515625 
L 53.515625 60.890625 
Q 47.90625 63.578125 42.921875 64.890625 
Q 37.9375 66.21875 33.296875 66.21875 
Q 25.25 66.21875 20.875 63.09375 
Q 16.5 59.96875 16.5 54.203125 
Q 16.5 49.359375 19.40625 46.890625 
Q 22.3125 44.4375 30.421875 42.921875 
L 36.375 41.703125 
Q 47.40625 39.59375 52.65625 34.296875 
Q 57.90625 29 57.90625 20.125 
Q 57.90625 9.515625 50.796875 4.046875 
Q 43.703125 -1.421875 29.984375 -1.421875 
Q 24.8125 -1.421875 18.96875 -0.25 
Q 13.140625 0.921875 6.890625 3.21875 
L 6.890625 13.375 
Q 12.890625 10.015625 18.65625 8.296875 
Q 24.421875 6.59375 29.984375 6.59375 
Q 38.421875 6.59375 43.015625 9.90625 
Q 47.609375 13.234375 47.609375 19.390625 
Q 47.609375 24.75 44.3125 27.78125 
Q 41.015625 30.8125 33.5 32.328125 
L 27.484375 33.5 
Q 16.453125 35.6875 11.515625 40.375 
Q 6.59375 45.0625 6.59375 53.421875 
Q 6.59375 63.09375 13.40625 68.65625 
Q 20.21875 74.21875 32.171875 74.21875 
Q 37.3125 74.21875 42.625 73.28125 
Q 47.953125 72.359375 53.515625 70.515625 
z
" id="DejaVuSans-83"/>
     <path d="M 9.8125 72.90625 
L 19.671875 72.90625 
L 19.671875 8.296875 
L 55.171875 8.296875 
L 55.171875 0 
L 9.8125 0 
z
" id="DejaVuSans-76"/>
     <path d="M 39.40625 66.21875 
Q 28.65625 66.21875 22.328125 58.203125 
Q 16.015625 50.203125 16.015625 36.375 
Q 16.015625 22.609375 22.328125 14.59375 
Q 28.65625 6.59375 39.40625 6.59375 
Q 50.140625 6.59375 56.421875 14.59375 
Q 62.703125 22.609375 62.703125 36.375 
Q 62.703125 50.203125 56.421875 58.203125 
Q 50.140625 66.21875 39.40625 66.21875 
z
M 53.21875 1.3125 
L 66.21875 -12.890625 
L 54.296875 -12.890625 
L 43.5 -1.21875 
Q 41.890625 -1.3125 41.03125 -1.359375 
Q 40.1875 -1.421875 39.40625 -1.421875 
Q 24.03125 -1.421875 14.8125 8.859375 
Q 5.609375 19.140625 5.609375 36.375 
Q 5.609375 53.65625 14.8125 63.9375 
Q 24.03125 74.21875 39.40625 74.21875 
Q 54.734375 74.21875 63.90625 63.9375 
Q 73.09375 53.65625 73.09375 36.375 
Q 73.09375 23.6875 67.984375 14.640625 
Q 62.890625 5.609375 53.21875 1.3125 
z
" id="DejaVuSans-81"/>
     <path d="M 19.671875 64.796875 
L 19.671875 37.40625 
L 32.078125 37.40625 
Q 38.96875 37.40625 42.71875 40.96875 
Q 46.484375 44.53125 46.484375 51.125 
Q 46.484375 57.671875 42.71875 61.234375 
Q 38.96875 64.796875 32.078125 64.796875 
z
M 9.8125 72.90625 
L 32.078125 72.90625 
Q 44.34375 72.90625 50.609375 67.359375 
Q 56.890625 61.8125 56.890625 51.125 
Q 56.890625 40.328125 50.609375 34.8125 
Q 44.34375 29.296875 32.078125 29.296875 
L 19.671875 29.296875 
L 19.671875 0 
L 9.8125 0 
z
" id="DejaVuSans-80"/>
    </defs>
    <g transform="translate(375.22944 298.262739)scale(0.17 -0.17)">
     <use xlink:href="#DejaVuSans-83"/>
     <use x="63.476562" xlink:href="#DejaVuSans-76"/>
     <use x="119.189453" xlink:href="#DejaVuSans-83"/>
     <use x="182.666016" xlink:href="#DejaVuSans-81"/>
     <use x="261.376953" xlink:href="#DejaVuSans-80"/>
     <use x="321.648438" xlink:href="#DejaVuSans-45"/>
     <use x="357.732422" xlink:href="#DejaVuSans-49"/>
     <use x="421.355469" xlink:href="#DejaVuSans-49"/>
     <use x="484.978516" xlink:href="#DejaVuSans-32"/>
    </g>
   </g>
   <g id="text_14">
    <!-- RANDOMSEA -->
    <defs>
     <path d="M 44.390625 34.1875 
Q 47.5625 33.109375 50.5625 29.59375 
Q 53.5625 26.078125 56.59375 19.921875 
L 66.609375 0 
L 56 0 
L 46.6875 18.703125 
Q 43.0625 26.03125 39.671875 28.421875 
Q 36.28125 30.8125 30.421875 30.8125 
L 19.671875 30.8125 
L 19.671875 0 
L 9.8125 0 
L 9.8125 72.90625 
L 32.078125 72.90625 
Q 44.578125 72.90625 50.734375 67.671875 
Q 56.890625 62.453125 56.890625 51.90625 
Q 56.890625 45.015625 53.6875 40.46875 
Q 50.484375 35.9375 44.390625 34.1875 
z
M 19.671875 64.796875 
L 19.671875 38.921875 
L 32.078125 38.921875 
Q 39.203125 38.921875 42.84375 42.21875 
Q 46.484375 45.515625 46.484375 51.90625 
Q 46.484375 58.296875 42.84375 61.546875 
Q 39.203125 64.796875 32.078125 64.796875 
z
" id="DejaVuSans-82"/>
     <path d="M 34.1875 63.1875 
L 20.796875 26.90625 
L 47.609375 26.90625 
z
M 28.609375 72.90625 
L 39.796875 72.90625 
L 67.578125 0 
L 57.328125 0 
L 50.6875 18.703125 
L 17.828125 18.703125 
L 11.1875 0 
L 0.78125 0 
z
" id="DejaVuSans-65"/>
     <path d="M 9.8125 72.90625 
L 23.09375 72.90625 
L 55.421875 11.921875 
L 55.421875 72.90625 
L 64.984375 72.90625 
L 64.984375 0 
L 51.703125 0 
L 19.390625 60.984375 
L 19.390625 0 
L 9.8125 0 
z
" id="DejaVuSans-78"/>
     <path d="M 19.671875 64.796875 
L 19.671875 8.109375 
L 31.59375 8.109375 
Q 46.6875 8.109375 53.6875 14.9375 
Q 60.6875 21.78125 60.6875 36.53125 
Q 60.6875 51.171875 53.6875 57.984375 
Q 46.6875 64.796875 31.59375 64.796875 
z
M 9.8125 72.90625 
L 30.078125 72.90625 
Q 51.265625 72.90625 61.171875 64.09375 
Q 71.09375 55.28125 71.09375 36.53125 
Q 71.09375 17.671875 61.125 8.828125 
Q 51.171875 0 30.078125 0 
L 9.8125 0 
z
" id="DejaVuSans-68"/>
     <path d="M 39.40625 66.21875 
Q 28.65625 66.21875 22.328125 58.203125 
Q 16.015625 50.203125 16.015625 36.375 
Q 16.015625 22.609375 22.328125 14.59375 
Q 28.65625 6.59375 39.40625 6.59375 
Q 50.140625 6.59375 56.421875 14.59375 
Q 62.703125 22.609375 62.703125 36.375 
Q 62.703125 50.203125 56.421875 58.203125 
Q 50.140625 66.21875 39.40625 66.21875 
z
M 39.40625 74.21875 
Q 54.734375 74.21875 63.90625 63.9375 
Q 73.09375 53.65625 73.09375 36.375 
Q 73.09375 19.140625 63.90625 8.859375 
Q 54.734375 -1.421875 39.40625 -1.421875 
Q 24.03125 -1.421875 14.8125 8.828125 
Q 5.609375 19.09375 5.609375 36.375 
Q 5.609375 53.65625 14.8125 63.9375 
Q 24.03125 74.21875 39.40625 74.21875 
z
" id="DejaVuSans-79"/>
     <path d="M 9.8125 72.90625 
L 24.515625 72.90625 
L 43.109375 23.296875 
L 61.8125 72.90625 
L 76.515625 72.90625 
L 76.515625 0 
L 66.890625 0 
L 66.890625 64.015625 
L 48.09375 14.015625 
L 38.1875 14.015625 
L 19.390625 64.015625 
L 19.390625 0 
L 9.8125 0 
z
" id="DejaVuSans-77"/>
     <path d="M 9.8125 72.90625 
L 55.90625 72.90625 
L 55.90625 64.59375 
L 19.671875 64.59375 
L 19.671875 43.015625 
L 54.390625 43.015625 
L 54.390625 34.71875 
L 19.671875 34.71875 
L 19.671875 8.296875 
L 56.78125 8.296875 
L 56.78125 0 
L 9.8125 0 
z
" id="DejaVuSans-69"/>
    </defs>
    <g transform="translate(375.22944 233.796363)scale(0.17 -0.17)">
     <use xlink:href="#DejaVuSans-82"/>
     <use x="69.419922" xlink:href="#DejaVuSans-65"/>
     <use x="137.828125" xlink:href="#DejaVuSans-78"/>
     <use x="212.632812" xlink:href="#DejaVuSans-68"/>
     <use x="289.634766" xlink:href="#DejaVuSans-79"/>
     <use x="368.345703" xlink:href="#DejaVuSans-77"/>
     <use x="454.625" xlink:href="#DejaVuSans-83"/>
     <use x="518.101562" xlink:href="#DejaVuSans-69"/>
     <use x="581.285156" xlink:href="#DejaVuSans-65"/>
    </g>
   </g>
   <g id="text_15">
    <!-- CMA-ES  2 -->
    <defs>
     <path d="M 64.40625 67.28125 
L 64.40625 56.890625 
Q 59.421875 61.53125 53.78125 63.8125 
Q 48.140625 66.109375 41.796875 66.109375 
Q 29.296875 66.109375 22.65625 58.46875 
Q 16.015625 50.828125 16.015625 36.375 
Q 16.015625 21.96875 22.65625 14.328125 
Q 29.296875 6.6875 41.796875 6.6875 
Q 48.140625 6.6875 53.78125 8.984375 
Q 59.421875 11.28125 64.40625 15.921875 
L 64.40625 5.609375 
Q 59.234375 2.09375 53.4375 0.328125 
Q 47.65625 -1.421875 41.21875 -1.421875 
Q 24.65625 -1.421875 15.125 8.703125 
Q 5.609375 18.84375 5.609375 36.375 
Q 5.609375 53.953125 15.125 64.078125 
Q 24.65625 74.21875 41.21875 74.21875 
Q 47.75 74.21875 53.53125 72.484375 
Q 59.328125 70.75 64.40625 67.28125 
z
" id="DejaVuSans-67"/>
    </defs>
    <g transform="translate(375.22944 169.329987)scale(0.17 -0.17)">
     <use xlink:href="#DejaVuSans-67"/>
     <use x="69.824219" xlink:href="#DejaVuSans-77"/>
     <use x="156.103516" xlink:href="#DejaVuSans-65"/>
     <use x="224.480469" xlink:href="#DejaVuSans-45"/>
     <use x="260.564453" xlink:href="#DejaVuSans-69"/>
     <use x="323.748047" xlink:href="#DejaVuSans-83"/>
     <use x="387.224609" xlink:href="#DejaVuSans-32"/>
     <use x="419.011719" xlink:href="#DejaVuSans-32"/>
     <use x="450.798828" xlink:href="#DejaVuSans-50"/>
    </g>
   </g>
   <g id="text_16">
    <!-- lq-CMA-ES -->
    <defs>
     <path d="M 14.796875 27.296875 
Q 14.796875 17.390625 18.875 11.75 
Q 22.953125 6.109375 30.078125 6.109375 
Q 37.203125 6.109375 41.296875 11.75 
Q 45.40625 17.390625 45.40625 27.296875 
Q 45.40625 37.203125 41.296875 42.84375 
Q 37.203125 48.484375 30.078125 48.484375 
Q 22.953125 48.484375 18.875 42.84375 
Q 14.796875 37.203125 14.796875 27.296875 
z
M 45.40625 8.203125 
Q 42.578125 3.328125 38.25 0.953125 
Q 33.9375 -1.421875 27.875 -1.421875 
Q 17.96875 -1.421875 11.734375 6.484375 
Q 5.515625 14.40625 5.515625 27.296875 
Q 5.515625 40.1875 11.734375 48.09375 
Q 17.96875 56 27.875 56 
Q 33.9375 56 38.25 53.625 
Q 42.578125 51.265625 45.40625 46.390625 
L 45.40625 54.6875 
L 54.390625 54.6875 
L 54.390625 -20.796875 
L 45.40625 -20.796875 
z
" id="DejaVuSans-113"/>
    </defs>
    <g transform="translate(375.22944 104.863611)scale(0.17 -0.17)">
     <use xlink:href="#DejaVuSans-108"/>
     <use x="27.783203" xlink:href="#DejaVuSans-113"/>
     <use x="91.259766" xlink:href="#DejaVuSans-45"/>
     <use x="127.34375" xlink:href="#DejaVuSans-67"/>
     <use x="197.167969" xlink:href="#DejaVuSans-77"/>
     <use x="283.447266" xlink:href="#DejaVuSans-65"/>
     <use x="351.824219" xlink:href="#DejaVuSans-45"/>
     <use x="387.908203" xlink:href="#DejaVuSans-69"/>
     <use x="451.091797" xlink:href="#DejaVuSans-83"/>
    </g>
   </g>
   <g id="text_17">
    <!-- best 2009 -->
    <defs>
     <path d="M 48.6875 27.296875 
Q 48.6875 37.203125 44.609375 42.84375 
Q 40.53125 48.484375 33.40625 48.484375 
Q 26.265625 48.484375 22.1875 42.84375 
Q 18.109375 37.203125 18.109375 27.296875 
Q 18.109375 17.390625 22.1875 11.75 
Q 26.265625 6.109375 33.40625 6.109375 
Q 40.53125 6.109375 44.609375 11.75 
Q 48.6875 17.390625 48.6875 27.296875 
z
M 18.109375 46.390625 
Q 20.953125 51.265625 25.265625 53.625 
Q 29.59375 56 35.59375 56 
Q 45.5625 56 51.78125 48.09375 
Q 58.015625 40.1875 58.015625 27.296875 
Q 58.015625 14.40625 51.78125 6.484375 
Q 45.5625 -1.421875 35.59375 -1.421875 
Q 29.59375 -1.421875 25.265625 0.953125 
Q 20.953125 3.328125 18.109375 8.203125 
L 18.109375 0 
L 9.078125 0 
L 9.078125 75.984375 
L 18.109375 75.984375 
z
" id="DejaVuSans-98"/>
     <path d="M 10.984375 1.515625 
L 10.984375 10.5 
Q 14.703125 8.734375 18.5 7.8125 
Q 22.3125 6.890625 25.984375 6.890625 
Q 35.75 6.890625 40.890625 13.453125 
Q 46.046875 20.015625 46.78125 33.40625 
Q 43.953125 29.203125 39.59375 26.953125 
Q 35.25 24.703125 29.984375 24.703125 
Q 19.046875 24.703125 12.671875 31.3125 
Q 6.296875 37.9375 6.296875 49.421875 
Q 6.296875 60.640625 12.9375 67.421875 
Q 19.578125 74.21875 30.609375 74.21875 
Q 43.265625 74.21875 49.921875 64.515625 
Q 56.59375 54.828125 56.59375 36.375 
Q 56.59375 19.140625 48.40625 8.859375 
Q 40.234375 -1.421875 26.421875 -1.421875 
Q 22.703125 -1.421875 18.890625 -0.6875 
Q 15.09375 0.046875 10.984375 1.515625 
z
M 30.609375 32.421875 
Q 37.25 32.421875 41.125 36.953125 
Q 45.015625 41.5 45.015625 49.421875 
Q 45.015625 57.28125 41.125 61.84375 
Q 37.25 66.40625 30.609375 66.40625 
Q 23.96875 66.40625 20.09375 61.84375 
Q 16.21875 57.28125 16.21875 49.421875 
Q 16.21875 41.5 20.09375 36.953125 
Q 23.96875 32.421875 30.609375 32.421875 
z
" id="DejaVuSans-57"/>
    </defs>
    <g transform="translate(375.22944 40.397235)scale(0.17 -0.17)">
     <use xlink:href="#DejaVuSans-98"/>
     <use x="63.476562" xlink:href="#DejaVuSans-101"/>
     <use x="125" xlink:href="#DejaVuSans-115"/>
     <use x="177.099609" xlink:href="#DejaVuSans-116"/>
     <use x="216.308594" xlink:href="#DejaVuSans-32"/>
     <use x="248.095703" xlink:href="#DejaVuSans-50"/>
     <use x="311.71875" xlink:href="#DejaVuSans-48"/>
     <use x="375.341797" xlink:href="#DejaVuSans-48"/>
     <use x="438.964844" xlink:href="#DejaVuSans-57"/>
    </g>
   </g>
   <g id="text_18">
    <!-- bbob f16, 3-D -->
    <defs>
     <path d="M 40.578125 39.3125 
Q 47.65625 37.796875 51.625 33 
Q 55.609375 28.21875 55.609375 21.1875 
Q 55.609375 10.40625 48.1875 4.484375 
Q 40.765625 -1.421875 27.09375 -1.421875 
Q 22.515625 -1.421875 17.65625 -0.515625 
Q 12.796875 0.390625 7.625 2.203125 
L 7.625 11.71875 
Q 11.71875 9.328125 16.59375 8.109375 
Q 21.484375 6.890625 26.8125 6.890625 
Q 36.078125 6.890625 40.9375 10.546875 
Q 45.796875 14.203125 45.796875 21.1875 
Q 45.796875 27.640625 41.28125 31.265625 
Q 36.765625 34.90625 28.71875 34.90625 
L 20.21875 34.90625 
L 20.21875 43.015625 
L 29.109375 43.015625 
Q 36.375 43.015625 40.234375 45.921875 
Q 44.09375 48.828125 44.09375 54.296875 
Q 44.09375 59.90625 40.109375 62.90625 
Q 36.140625 65.921875 28.71875 65.921875 
Q 24.65625 65.921875 20.015625 65.03125 
Q 15.375 64.15625 9.8125 62.3125 
L 9.8125 71.09375 
Q 15.4375 72.65625 20.34375 73.4375 
Q 25.25 74.21875 29.59375 74.21875 
Q 40.828125 74.21875 47.359375 69.109375 
Q 53.90625 64.015625 53.90625 55.328125 
Q 53.90625 49.265625 50.4375 45.09375 
Q 46.96875 40.921875 40.578125 39.3125 
z
" id="DejaVuSans-51"/>
    </defs>
    <g transform="translate(60.41088 38.111366)scale(0.102 -0.102)">
     <use xlink:href="#DejaVuSans-98"/>
     <use x="63.476562" xlink:href="#DejaVuSans-98"/>
     <use x="126.953125" xlink:href="#DejaVuSans-111"/>
     <use x="188.134766" xlink:href="#DejaVuSans-98"/>
     <use x="251.611328" xlink:href="#DejaVuSans-32"/>
     <use x="283.398438" xlink:href="#DejaVuSans-102"/>
     <use x="318.603516" xlink:href="#DejaVuSans-49"/>
     <use x="382.226562" xlink:href="#DejaVuSans-54"/>
     <use x="445.849609" xlink:href="#DejaVuSans-44"/>
     <use x="477.636719" xlink:href="#DejaVuSans-32"/>
     <use x="509.423828" xlink:href="#DejaVuSans-51"/>
     <use x="573.046875" xlink:href="#DejaVuSans-45"/>
     <use x="609.130859" xlink:href="#DejaVuSans-68"/>
    </g>
    <!-- 51 targets: 100..1e-08 -->
    <defs>
     <path d="M 10.796875 72.90625 
L 49.515625 72.90625 
L 49.515625 64.59375 
L 19.828125 64.59375 
L 19.828125 46.734375 
Q 21.96875 47.46875 24.109375 47.828125 
Q 26.265625 48.1875 28.421875 48.1875 
Q 40.625 48.1875 47.75 41.5 
Q 54.890625 34.8125 54.890625 23.390625 
Q 54.890625 11.625 47.5625 5.09375 
Q 40.234375 -1.421875 26.90625 -1.421875 
Q 22.3125 -1.421875 17.546875 -0.640625 
Q 12.796875 0.140625 7.71875 1.703125 
L 7.71875 11.625 
Q 12.109375 9.234375 16.796875 8.0625 
Q 21.484375 6.890625 26.703125 6.890625 
Q 35.15625 6.890625 40.078125 11.328125 
Q 45.015625 15.765625 45.015625 23.390625 
Q 45.015625 31 40.078125 35.4375 
Q 35.15625 39.890625 26.703125 39.890625 
Q 22.75 39.890625 18.8125 39.015625 
Q 14.890625 38.140625 10.796875 36.28125 
z
" id="DejaVuSans-53"/>
     <path d="M 11.71875 12.40625 
L 22.015625 12.40625 
L 22.015625 0 
L 11.71875 0 
z
M 11.71875 51.703125 
L 22.015625 51.703125 
L 22.015625 39.3125 
L 11.71875 39.3125 
z
" id="DejaVuSans-58"/>
    </defs>
    <g transform="translate(60.41088 49.533135)scale(0.102 -0.102)">
     <use xlink:href="#DejaVuSans-53"/>
     <use x="63.623047" xlink:href="#DejaVuSans-49"/>
     <use x="127.246094" xlink:href="#DejaVuSans-32"/>
     <use x="159.033203" xlink:href="#DejaVuSans-116"/>
     <use x="198.242188" xlink:href="#DejaVuSans-97"/>
     <use x="259.521484" xlink:href="#DejaVuSans-114"/>
     <use x="300.619141" xlink:href="#DejaVuSans-103"/>
     <use x="364.095703" xlink:href="#DejaVuSans-101"/>
     <use x="425.619141" xlink:href="#DejaVuSans-116"/>
     <use x="464.828125" xlink:href="#DejaVuSans-115"/>
     <use x="516.927734" xlink:href="#DejaVuSans-58"/>
     <use x="550.619141" xlink:href="#DejaVuSans-32"/>
     <use x="582.40625" xlink:href="#DejaVuSans-49"/>
     <use x="646.029297" xlink:href="#DejaVuSans-48"/>
     <use x="709.652344" xlink:href="#DejaVuSans-48"/>
     <use x="773.275391" xlink:href="#DejaVuSans-46"/>
     <use x="805.0625" xlink:href="#DejaVuSans-46"/>
     <use x="836.849609" xlink:href="#DejaVuSans-49"/>
     <use x="900.472656" xlink:href="#DejaVuSans-101"/>
     <use x="961.996094" xlink:href="#DejaVuSans-45"/>
     <use x="998.080078" xlink:href="#DejaVuSans-48"/>
     <use x="1061.703125" xlink:href="#DejaVuSans-56"/>
    </g>
    <!-- 15 instances -->
    <g transform="translate(60.41088 60.954904)scale(0.102 -0.102)">
     <use xlink:href="#DejaVuSans-49"/>
     <use x="63.623047" xlink:href="#DejaVuSans-53"/>
     <use x="127.246094" xlink:href="#DejaVuSans-32"/>
     <use x="159.033203" xlink:href="#DejaVuSans-105"/>
     <use x="186.816406" xlink:href="#DejaVuSans-110"/>
     <use x="250.195312" xlink:href="#DejaVuSans-115"/>
     <use x="302.294922" xlink:href="#DejaVuSans-116"/>
     <use x="341.503906" xlink:href="#DejaVuSans-97"/>
     <use x="402.783203" xlink:href="#DejaVuSans-110"/>
     <use x="466.162109" xlink:href="#DejaVuSans-99"/>
     <use x="521.142578" xlink:href="#DejaVuSans-101"/>
     <use x="582.666016" xlink:href="#DejaVuSans-115"/>
    </g>
   </g>
   <g id="text_19">
    <!-- v2.3.2 -->
    <g style="fill:#808080;" transform="translate(182.46275 294.151352)scale(0.1 -0.1)">
     <use xlink:href="#DejaVuSans-118"/>
     <use x="59.179688" xlink:href="#DejaVuSans-50"/>
     <use x="122.802734" xlink:href="#DejaVuSans-46"/>
     <use x="154.589844" xlink:href="#DejaVuSans-51"/>
     <use x="218.212891" xlink:href="#DejaVuSans-46"/>
     <use x="250" xlink:href="#DejaVuSans-50"/>
    </g>
   </g>
   <g id="text_20">
    <!-- 16 Weierstrass -->
    <defs>
     <path d="M 3.328125 72.90625 
L 13.28125 72.90625 
L 28.609375 11.28125 
L 43.890625 72.90625 
L 54.984375 72.90625 
L 70.3125 11.28125 
L 85.59375 72.90625 
L 95.609375 72.90625 
L 77.296875 0 
L 64.890625 0 
L 49.515625 63.28125 
L 33.984375 0 
L 21.578125 0 
z
" id="DejaVuSans-87"/>
    </defs>
    <g transform="translate(123.378375 21.648)scale(0.2 -0.2)">
     <use xlink:href="#DejaVuSans-49"/>
     <use x="63.623047" xlink:href="#DejaVuSans-54"/>
     <use x="127.246094" xlink:href="#DejaVuSans-32"/>
     <use x="159.033203" xlink:href="#DejaVuSans-87"/>
     <use x="257.832031" xlink:href="#DejaVuSans-101"/>
     <use x="319.355469" xlink:href="#DejaVuSans-105"/>
     <use x="347.138672" xlink:href="#DejaVuSans-101"/>
     <use x="408.662109" xlink:href="#DejaVuSans-114"/>
     <use x="449.775391" xlink:href="#DejaVuSans-115"/>
     <use x="501.875" xlink:href="#DejaVuSans-116"/>
     <use x="541.083984" xlink:href="#DejaVuSans-114"/>
     <use x="582.197266" xlink:href="#DejaVuSans-97"/>
     <use x="643.476562" xlink:href="#DejaVuSans-115"/>
     <use x="695.576172" xlink:href="#DejaVuSans-115"/>
    </g>
   </g>
  </g>
 </g>
 <defs>
  <clipPath id="p8d6d9a95d3">
   <rect height="271.296" width="281.088" x="57.6" y="27.648"/>
  </clipPath>
 </defs>
</svg>
