<?xml version="1.0" encoding="utf-8" standalone="no"?>
<!DOCTYPE svg PUBLIC "-//W3C//DTD SVG 1.1//EN"
  "http://www.w3.org/Graphics/SVG/1.1/DTD/svg11.dtd">
<!-- Created with matplotlib (https://matplotlib.org/) -->
<svg height="345.6pt" version="1.1" viewBox="0 0 460.8 345.6" width="460.8pt" xmlns="http://www.w3.org/2000/svg" xmlns:xlink="http://www.w3.org/1999/xlink">
 <defs>
  <style type="text/css">
*{stroke-linecap:butt;stroke-linejoin:round;}
  </style>
 </defs>
 <g id="figure_1">
  <g id="patch_1">
   <path d="M 0 345.6 
L 460.8 345.6 
L 460.8 0 
L 0 0 
z
" style="fill:#ffffff;"/>
  </g>
  <g id="axes_1">
   <g id="patch_2">
    <path d="M 57.6 298.944 
L 338.688 298.944 
L 338.688 27.648 
L 57.6 27.648 
z
" style="fill:#ffffff;"/>
   </g>
   <g id="line2d_1">
    <path d="M 64.67102 298.944 
L 64.67102 288.410278 
L 73.579452 288.410278 
L 73.579452 277.876557 
L 85.66744 277.876557 
L 85.66744 272.609696 
L 90.242884 272.609696 
L 90.242884 267.342835 
L 91.535274 267.342835 
L 91.535274 262.075974 
L 93.863965 262.075974 
L 93.863965 256.809114 
L 96.86091 256.809114 
L 96.86091 251.542253 
L 97.755429 251.542253 
L 97.755429 246.275392 
L 100.192776 246.275392 
L 100.192776 241.008531 
L 105.951954 241.008531 
L 105.951954 235.74167 
L 107.514726 235.74167 
L 107.514726 225.207949 
L 109.401893 225.207949 
L 109.401893 219.941088 
L 110.274038 219.941088 
L 110.274038 214.674227 
L 110.694282 214.674227 
L 110.694282 209.407366 
L 112.655818 209.407366 
L 112.655818 204.140506 
L 113.382559 204.140506 
L 113.382559 198.873645 
L 114.418861 198.873645 
L 114.418861 193.606784 
L 115.077025 193.606784 
L 115.077025 188.339923 
L 116.621333 188.339923 
L 116.621333 183.073062 
L 117.202696 183.073062 
L 117.202696 177.806202 
L 117.765302 177.806202 
L 117.765302 172.539341 
L 118.310324 172.539341 
L 118.310324 167.27248 
L 118.838828 167.27248 
L 118.838828 162.005619 
L 119.351785 162.005619 
L 119.351785 156.738758 
L 120.33454 156.738758 
L 120.33454 151.471897 
L 121.036887 151.471897 
L 121.036887 146.205037 
L 121.489881 146.205037 
L 121.489881 140.938176 
L 121.931406 140.938176 
L 121.931406 135.671315 
L 122.782271 135.671315 
L 122.782271 130.404454 
L 123.192626 130.404454 
L 123.192626 125.137593 
L 123.790603 125.137593 
L 123.790603 119.870733 
L 124.178158 119.870733 
L 124.178158 114.603872 
L 124.92835 114.603872 
L 124.92835 109.337011 
L 125.110962 109.337011 
L 125.110962 104.07015 
L 125.822869 104.07015 
L 125.822869 98.803289 
L 126.338353 98.803289 
L 126.338353 93.536429 
L 126.839037 93.536429 
L 126.839037 88.269568 
L 127.002787 88.269568 
L 127.002787 83.002707 
L 127.48501 83.002707 
L 127.48501 77.735846 
L 127.799239 77.735846 
L 127.799239 72.468985 
L 128.709321 72.468985 
L 128.709321 67.202125 
L 129.147151 67.202125 
L 129.147151 61.935264 
L 129.574256 61.935264 
L 129.574256 56.668403 
L 129.714332 56.668403 
L 129.714332 51.401542 
L 129.853291 51.401542 
L 129.853291 46.134681 
L 130.398313 46.134681 
L 130.398313 40.867821 
L 130.796184 40.867821 
L 130.796184 35.60096 
L 131.185181 35.60096 
L 131.185181 30.334099 
L 338.688 30.334099 
" style="fill:none;stroke:#f5deb3;stroke-linecap:square;stroke-width:4;"/>
   </g>
   <g id="line2d_2">
    <defs>
     <path d="M -0 7.778175 
L 7.778175 0 
L 0 -7.778175 
L -7.778175 -0 
z
" id="mc8a1f9eaf3" style="stroke:#f5deb3;stroke-linejoin:miter;stroke-width:1.5;"/>
    </defs>
    <g>
     <use style="fill:#f5deb3;stroke:#f5deb3;stroke-linejoin:miter;stroke-width:1.5;" x="91.535274" xlink:href="#mc8a1f9eaf3" y="262.075974"/>
     <use style="fill:#f5deb3;stroke:#f5deb3;stroke-linejoin:miter;stroke-width:1.5;" x="121.489881" xlink:href="#mc8a1f9eaf3" y="140.938176"/>
     <use style="fill:#f5deb3;stroke:#f5deb3;stroke-linejoin:miter;stroke-width:1.5;" x="131.185181" xlink:href="#mc8a1f9eaf3" y="35.60096"/>
     <use style="fill:#f5deb3;stroke:#f5deb3;stroke-linejoin:miter;stroke-width:1.5;" x="131.185181" xlink:href="#mc8a1f9eaf3" y="30.334099"/>
     <use style="fill:#f5deb3;stroke:#f5deb3;stroke-linejoin:miter;stroke-width:1.5;" x="338.688" xlink:href="#mc8a1f9eaf3" y="30.334099"/>
    </g>
   </g>
   <g id="line2d_3">
    <path style="fill:none;stroke:#f5deb3;stroke-linecap:square;stroke-width:4;"/>
    <g/>
   </g>
   <g id="line2d_4">
    <path d="M 338.688 30.334099 
L 369.60768 35.706297 
" style="fill:none;stroke:#f5deb3;stroke-linecap:square;stroke-width:4;"/>
    <g>
     <use style="fill:#f5deb3;stroke:#f5deb3;stroke-linejoin:miter;stroke-width:1.5;" x="338.688" xlink:href="#mc8a1f9eaf3" y="30.334099"/>
     <use style="fill:#f5deb3;stroke:#f5deb3;stroke-linejoin:miter;stroke-width:1.5;" x="369.60768" xlink:href="#mc8a1f9eaf3" y="35.706297"/>
    </g>
   </g>
   <g id="matplotlib.axis_1">
    <g id="xtick_1">
     <g id="line2d_5">
      <path clip-path="url(#p546eabfa18)" d="M 57.6 298.944 
L 57.6 27.648 
" style="fill:none;stroke:#b0b0b0;stroke-linecap:square;stroke-width:0.8;"/>
     </g>
     <g id="line2d_6">
      <defs>
       <path d="M 0 0 
L 0 3.5 
" id="m7edf0b071b" style="stroke:#000000;stroke-width:0.8;"/>
      </defs>
      <g>
       <use style="stroke:#000000;stroke-width:0.8;" x="57.6" xlink:href="#m7edf0b071b" y="298.944"/>
      </g>
     </g>
     <g id="text_1">
      <!-- 0 -->
      <defs>
       <path d="M 31.78125 66.40625 
Q 24.171875 66.40625 20.328125 58.90625 
Q 16.5 51.421875 16.5 36.375 
Q 16.5 21.390625 20.328125 13.890625 
Q 24.171875 6.390625 31.78125 6.390625 
Q 39.453125 6.390625 43.28125 13.890625 
Q 47.125 21.390625 47.125 36.375 
Q 47.125 51.421875 43.28125 58.90625 
Q 39.453125 66.40625 31.78125 66.40625 
z
M 31.78125 74.21875 
Q 44.046875 74.21875 50.515625 64.515625 
Q 56.984375 54.828125 56.984375 36.375 
Q 56.984375 17.96875 50.515625 8.265625 
Q 44.046875 -1.421875 31.78125 -1.421875 
Q 19.53125 -1.421875 13.0625 8.265625 
Q 6.59375 17.96875 6.59375 36.375 
Q 6.59375 54.828125 13.0625 64.515625 
Q 19.53125 74.21875 31.78125 74.21875 
z
" id="DejaVuSans-48"/>
      </defs>
      <g transform="translate(51.2375 321.140875)scale(0.2 -0.2)">
       <use xlink:href="#DejaVuSans-48"/>
      </g>
     </g>
    </g>
    <g id="xtick_2">
     <g id="line2d_7">
      <path clip-path="url(#p546eabfa18)" d="M 137.910857 298.944 
L 137.910857 27.648 
" style="fill:none;stroke:#b0b0b0;stroke-linecap:square;stroke-width:0.8;"/>
     </g>
     <g id="line2d_8">
      <g>
       <use style="stroke:#000000;stroke-width:0.8;" x="137.910857" xlink:href="#m7edf0b071b" y="298.944"/>
      </g>
     </g>
     <g id="text_2">
      <!-- 2 -->
      <defs>
       <path d="M 19.1875 8.296875 
L 53.609375 8.296875 
L 53.609375 0 
L 7.328125 0 
L 7.328125 8.296875 
Q 12.9375 14.109375 22.625 23.890625 
Q 32.328125 33.6875 34.8125 36.53125 
Q 39.546875 41.84375 41.421875 45.53125 
Q 43.3125 49.21875 43.3125 52.78125 
Q 43.3125 58.59375 39.234375 62.25 
Q 35.15625 65.921875 28.609375 65.921875 
Q 23.96875 65.921875 18.8125 64.3125 
Q 13.671875 62.703125 7.8125 59.421875 
L 7.8125 69.390625 
Q 13.765625 71.78125 18.9375 73 
Q 24.125 74.21875 28.421875 74.21875 
Q 39.75 74.21875 46.484375 68.546875 
Q 53.21875 62.890625 53.21875 53.421875 
Q 53.21875 48.921875 51.53125 44.890625 
Q 49.859375 40.875 45.40625 35.40625 
Q 44.1875 33.984375 37.640625 27.21875 
Q 31.109375 20.453125 19.1875 8.296875 
z
" id="DejaVuSans-50"/>
      </defs>
      <g transform="translate(131.548357 321.140875)scale(0.2 -0.2)">
       <use xlink:href="#DejaVuSans-50"/>
      </g>
     </g>
    </g>
    <g id="xtick_3">
     <g id="line2d_9">
      <path clip-path="url(#p546eabfa18)" d="M 218.221714 298.944 
L 218.221714 27.648 
" style="fill:none;stroke:#b0b0b0;stroke-linecap:square;stroke-width:0.8;"/>
     </g>
     <g id="line2d_10">
      <g>
       <use style="stroke:#000000;stroke-width:0.8;" x="218.221714" xlink:href="#m7edf0b071b" y="298.944"/>
      </g>
     </g>
     <g id="text_3">
      <!-- 4 -->
      <defs>
       <path d="M 37.796875 64.3125 
L 12.890625 25.390625 
L 37.796875 25.390625 
z
M 35.203125 72.90625 
L 47.609375 72.90625 
L 47.609375 25.390625 
L 58.015625 25.390625 
L 58.015625 17.1875 
L 47.609375 17.1875 
L 47.609375 0 
L 37.796875 0 
L 37.796875 17.1875 
L 4.890625 17.1875 
L 4.890625 26.703125 
z
" id="DejaVuSans-52"/>
      </defs>
      <g transform="translate(211.859214 321.140875)scale(0.2 -0.2)">
       <use xlink:href="#DejaVuSans-52"/>
      </g>
     </g>
    </g>
    <g id="xtick_4">
     <g id="line2d_11">
      <path clip-path="url(#p546eabfa18)" d="M 298.532571 298.944 
L 298.532571 27.648 
" style="fill:none;stroke:#b0b0b0;stroke-linecap:square;stroke-width:0.8;"/>
     </g>
     <g id="line2d_12">
      <g>
       <use style="stroke:#000000;stroke-width:0.8;" x="298.532571" xlink:href="#m7edf0b071b" y="298.944"/>
      </g>
     </g>
     <g id="text_4">
      <!-- 6 -->
      <defs>
       <path d="M 33.015625 40.375 
Q 26.375 40.375 22.484375 35.828125 
Q 18.609375 31.296875 18.609375 23.390625 
Q 18.609375 15.53125 22.484375 10.953125 
Q 26.375 6.390625 33.015625 6.390625 
Q 39.65625 6.390625 43.53125 10.953125 
Q 47.40625 15.53125 47.40625 23.390625 
Q 47.40625 31.296875 43.53125 35.828125 
Q 39.65625 40.375 33.015625 40.375 
z
M 52.59375 71.296875 
L 52.59375 62.3125 
Q 48.875 64.0625 45.09375 64.984375 
Q 41.3125 65.921875 37.59375 65.921875 
Q 27.828125 65.921875 22.671875 59.328125 
Q 17.53125 52.734375 16.796875 39.40625 
Q 19.671875 43.65625 24.015625 45.921875 
Q 28.375 48.1875 33.59375 48.1875 
Q 44.578125 48.1875 50.953125 41.515625 
Q 57.328125 34.859375 57.328125 23.390625 
Q 57.328125 12.15625 50.6875 5.359375 
Q 44.046875 -1.421875 33.015625 -1.421875 
Q 20.359375 -1.421875 13.671875 8.265625 
Q 6.984375 17.96875 6.984375 36.375 
Q 6.984375 53.65625 15.1875 63.9375 
Q 23.390625 74.21875 37.203125 74.21875 
Q 40.921875 74.21875 44.703125 73.484375 
Q 48.484375 72.75 52.59375 71.296875 
z
" id="DejaVuSans-54"/>
      </defs>
      <g transform="translate(292.170071 321.140875)scale(0.2 -0.2)">
       <use xlink:href="#DejaVuSans-54"/>
      </g>
     </g>
    </g>
    <g id="xtick_5">
     <g id="line2d_13">
      <path clip-path="url(#p546eabfa18)" d="M 57.6 298.944 
L 57.6 27.648 
" style="fill:none;stroke:#b0b0b0;stroke-linecap:square;stroke-width:0.8;"/>
     </g>
     <g id="line2d_14">
      <defs>
       <path d="M 0 0 
L 0 2 
" id="me9f4b0c66f" style="stroke:#000000;stroke-width:0.6;"/>
      </defs>
      <g>
       <use style="stroke:#000000;stroke-width:0.6;" x="57.6" xlink:href="#me9f4b0c66f" y="298.944"/>
      </g>
     </g>
    </g>
    <g id="xtick_6">
     <g id="line2d_15">
      <path clip-path="url(#p546eabfa18)" d="M 97.755429 298.944 
L 97.755429 27.648 
" style="fill:none;stroke:#b0b0b0;stroke-linecap:square;stroke-width:0.8;"/>
     </g>
     <g id="line2d_16">
      <g>
       <use style="stroke:#000000;stroke-width:0.6;" x="97.755429" xlink:href="#me9f4b0c66f" y="298.944"/>
      </g>
     </g>
    </g>
    <g id="xtick_7">
     <g id="line2d_17">
      <path clip-path="url(#p546eabfa18)" d="M 137.910857 298.944 
L 137.910857 27.648 
" style="fill:none;stroke:#b0b0b0;stroke-linecap:square;stroke-width:0.8;"/>
     </g>
     <g id="line2d_18">
      <g>
       <use style="stroke:#000000;stroke-width:0.6;" x="137.910857" xlink:href="#me9f4b0c66f" y="298.944"/>
      </g>
     </g>
    </g>
    <g id="xtick_8">
     <g id="line2d_19">
      <path clip-path="url(#p546eabfa18)" d="M 178.066286 298.944 
L 178.066286 27.648 
" style="fill:none;stroke:#b0b0b0;stroke-linecap:square;stroke-width:0.8;"/>
     </g>
     <g id="line2d_20">
      <g>
       <use style="stroke:#000000;stroke-width:0.6;" x="178.066286" xlink:href="#me9f4b0c66f" y="298.944"/>
      </g>
     </g>
    </g>
    <g id="xtick_9">
     <g id="line2d_21">
      <path clip-path="url(#p546eabfa18)" d="M 218.221714 298.944 
L 218.221714 27.648 
" style="fill:none;stroke:#b0b0b0;stroke-linecap:square;stroke-width:0.8;"/>
     </g>
     <g id="line2d_22">
      <g>
       <use style="stroke:#000000;stroke-width:0.6;" x="218.221714" xlink:href="#me9f4b0c66f" y="298.944"/>
      </g>
     </g>
    </g>
    <g id="xtick_10">
     <g id="line2d_23">
      <path clip-path="url(#p546eabfa18)" d="M 258.377143 298.944 
L 258.377143 27.648 
" style="fill:none;stroke:#b0b0b0;stroke-linecap:square;stroke-width:0.8;"/>
     </g>
     <g id="line2d_24">
      <g>
       <use style="stroke:#000000;stroke-width:0.6;" x="258.377143" xlink:href="#me9f4b0c66f" y="298.944"/>
      </g>
     </g>
    </g>
    <g id="xtick_11">
     <g id="line2d_25">
      <path clip-path="url(#p546eabfa18)" d="M 298.532571 298.944 
L 298.532571 27.648 
" style="fill:none;stroke:#b0b0b0;stroke-linecap:square;stroke-width:0.8;"/>
     </g>
     <g id="line2d_26">
      <g>
       <use style="stroke:#000000;stroke-width:0.6;" x="298.532571" xlink:href="#me9f4b0c66f" y="298.944"/>
      </g>
     </g>
    </g>
    <g id="xtick_12">
     <g id="line2d_27">
      <path clip-path="url(#p546eabfa18)" d="M 338.688 298.944 
L 338.688 27.648 
" style="fill:none;stroke:#b0b0b0;stroke-linecap:square;stroke-width:0.8;"/>
     </g>
     <g id="line2d_28">
      <g>
       <use style="stroke:#000000;stroke-width:0.6;" x="338.688" xlink:href="#me9f4b0c66f" y="298.944"/>
      </g>
     </g>
    </g>
    <g id="text_5">
     <!-- log10(# f-evals / dimension) -->
     <defs>
      <path d="M 9.421875 75.984375 
L 18.40625 75.984375 
L 18.40625 0 
L 9.421875 0 
z
" id="DejaVuSans-108"/>
      <path d="M 30.609375 48.390625 
Q 23.390625 48.390625 19.1875 42.75 
Q 14.984375 37.109375 14.984375 27.296875 
Q 14.984375 17.484375 19.15625 11.84375 
Q 23.34375 6.203125 30.609375 6.203125 
Q 37.796875 6.203125 41.984375 11.859375 
Q 46.1875 17.53125 46.1875 27.296875 
Q 46.1875 37.015625 41.984375 42.703125 
Q 37.796875 48.390625 30.609375 48.390625 
z
M 30.609375 56 
Q 42.328125 56 49.015625 48.375 
Q 55.71875 40.765625 55.71875 27.296875 
Q 55.71875 13.875 49.015625 6.21875 
Q 42.328125 -1.421875 30.609375 -1.421875 
Q 18.84375 -1.421875 12.171875 6.21875 
Q 5.515625 13.875 5.515625 27.296875 
Q 5.515625 40.765625 12.171875 48.375 
Q 18.84375 56 30.609375 56 
z
" id="DejaVuSans-111"/>
      <path d="M 45.40625 27.984375 
Q 45.40625 37.75 41.375 43.109375 
Q 37.359375 48.484375 30.078125 48.484375 
Q 22.859375 48.484375 18.828125 43.109375 
Q 14.796875 37.75 14.796875 27.984375 
Q 14.796875 18.265625 18.828125 12.890625 
Q 22.859375 7.515625 30.078125 7.515625 
Q 37.359375 7.515625 41.375 12.890625 
Q 45.40625 18.265625 45.40625 27.984375 
z
M 54.390625 6.78125 
Q 54.390625 -7.171875 48.1875 -13.984375 
Q 42 -20.796875 29.203125 -20.796875 
Q 24.46875 -20.796875 20.265625 -20.09375 
Q 16.0625 -19.390625 12.109375 -17.921875 
L 12.109375 -9.1875 
Q 16.0625 -11.328125 19.921875 -12.34375 
Q 23.78125 -13.375 27.78125 -13.375 
Q 36.625 -13.375 41.015625 -8.765625 
Q 45.40625 -4.15625 45.40625 5.171875 
L 45.40625 9.625 
Q 42.625 4.78125 38.28125 2.390625 
Q 33.9375 0 27.875 0 
Q 17.828125 0 11.671875 7.65625 
Q 5.515625 15.328125 5.515625 27.984375 
Q 5.515625 40.671875 11.671875 48.328125 
Q 17.828125 56 27.875 56 
Q 33.9375 56 38.28125 53.609375 
Q 42.625 51.21875 45.40625 46.390625 
L 45.40625 54.6875 
L 54.390625 54.6875 
z
" id="DejaVuSans-103"/>
      <path d="M 12.40625 8.296875 
L 28.515625 8.296875 
L 28.515625 63.921875 
L 10.984375 60.40625 
L 10.984375 69.390625 
L 28.421875 72.90625 
L 38.28125 72.90625 
L 38.28125 8.296875 
L 54.390625 8.296875 
L 54.390625 0 
L 12.40625 0 
z
" id="DejaVuSans-49"/>
      <path d="M 31 75.875 
Q 24.46875 64.65625 21.28125 53.65625 
Q 18.109375 42.671875 18.109375 31.390625 
Q 18.109375 20.125 21.3125 9.0625 
Q 24.515625 -2 31 -13.1875 
L 23.1875 -13.1875 
Q 15.875 -1.703125 12.234375 9.375 
Q 8.59375 20.453125 8.59375 31.390625 
Q 8.59375 42.28125 12.203125 53.3125 
Q 15.828125 64.359375 23.1875 75.875 
z
" id="DejaVuSans-40"/>
      <path d="M 51.125 44 
L 36.921875 44 
L 32.8125 27.6875 
L 47.125 27.6875 
z
M 43.796875 71.78125 
L 38.71875 51.515625 
L 52.984375 51.515625 
L 58.109375 71.78125 
L 65.921875 71.78125 
L 60.890625 51.515625 
L 76.125 51.515625 
L 76.125 44 
L 58.984375 44 
L 54.984375 27.6875 
L 70.515625 27.6875 
L 70.515625 20.21875 
L 53.078125 20.21875 
L 48 0 
L 40.1875 0 
L 45.21875 20.21875 
L 30.90625 20.21875 
L 25.875 0 
L 18.015625 0 
L 23.09375 20.21875 
L 7.71875 20.21875 
L 7.71875 27.6875 
L 24.90625 27.6875 
L 29 44 
L 13.28125 44 
L 13.28125 51.515625 
L 30.90625 51.515625 
L 35.890625 71.78125 
z
" id="DejaVuSans-35"/>
      <path id="DejaVuSans-32"/>
      <path d="M 37.109375 75.984375 
L 37.109375 68.5 
L 28.515625 68.5 
Q 23.6875 68.5 21.796875 66.546875 
Q 19.921875 64.59375 19.921875 59.515625 
L 19.921875 54.6875 
L 34.71875 54.6875 
L 34.71875 47.703125 
L 19.921875 47.703125 
L 19.921875 0 
L 10.890625 0 
L 10.890625 47.703125 
L 2.296875 47.703125 
L 2.296875 54.6875 
L 10.890625 54.6875 
L 10.890625 58.5 
Q 10.890625 67.625 15.140625 71.796875 
Q 19.390625 75.984375 28.609375 75.984375 
z
" id="DejaVuSans-102"/>
      <path d="M 4.890625 31.390625 
L 31.203125 31.390625 
L 31.203125 23.390625 
L 4.890625 23.390625 
z
" id="DejaVuSans-45"/>
      <path d="M 56.203125 29.59375 
L 56.203125 25.203125 
L 14.890625 25.203125 
Q 15.484375 15.921875 20.484375 11.0625 
Q 25.484375 6.203125 34.421875 6.203125 
Q 39.59375 6.203125 44.453125 7.46875 
Q 49.3125 8.734375 54.109375 11.28125 
L 54.109375 2.78125 
Q 49.265625 0.734375 44.1875 -0.34375 
Q 39.109375 -1.421875 33.890625 -1.421875 
Q 20.796875 -1.421875 13.15625 6.1875 
Q 5.515625 13.8125 5.515625 26.8125 
Q 5.515625 40.234375 12.765625 48.109375 
Q 20.015625 56 32.328125 56 
Q 43.359375 56 49.78125 48.890625 
Q 56.203125 41.796875 56.203125 29.59375 
z
M 47.21875 32.234375 
Q 47.125 39.59375 43.09375 43.984375 
Q 39.0625 48.390625 32.421875 48.390625 
Q 24.90625 48.390625 20.390625 44.140625 
Q 15.875 39.890625 15.1875 32.171875 
z
" id="DejaVuSans-101"/>
      <path d="M 2.984375 54.6875 
L 12.5 54.6875 
L 29.59375 8.796875 
L 46.6875 54.6875 
L 56.203125 54.6875 
L 35.6875 0 
L 23.484375 0 
z
" id="DejaVuSans-118"/>
      <path d="M 34.28125 27.484375 
Q 23.390625 27.484375 19.1875 25 
Q 14.984375 22.515625 14.984375 16.5 
Q 14.984375 11.71875 18.140625 8.90625 
Q 21.296875 6.109375 26.703125 6.109375 
Q 34.1875 6.109375 38.703125 11.40625 
Q 43.21875 16.703125 43.21875 25.484375 
L 43.21875 27.484375 
z
M 52.203125 31.203125 
L 52.203125 0 
L 43.21875 0 
L 43.21875 8.296875 
Q 40.140625 3.328125 35.546875 0.953125 
Q 30.953125 -1.421875 24.3125 -1.421875 
Q 15.921875 -1.421875 10.953125 3.296875 
Q 6 8.015625 6 15.921875 
Q 6 25.140625 12.171875 29.828125 
Q 18.359375 34.515625 30.609375 34.515625 
L 43.21875 34.515625 
L 43.21875 35.40625 
Q 43.21875 41.609375 39.140625 45 
Q 35.0625 48.390625 27.6875 48.390625 
Q 23 48.390625 18.546875 47.265625 
Q 14.109375 46.140625 10.015625 43.890625 
L 10.015625 52.203125 
Q 14.9375 54.109375 19.578125 55.046875 
Q 24.21875 56 28.609375 56 
Q 40.484375 56 46.34375 49.84375 
Q 52.203125 43.703125 52.203125 31.203125 
z
" id="DejaVuSans-97"/>
      <path d="M 44.28125 53.078125 
L 44.28125 44.578125 
Q 40.484375 46.53125 36.375 47.5 
Q 32.28125 48.484375 27.875 48.484375 
Q 21.1875 48.484375 17.84375 46.4375 
Q 14.5 44.390625 14.5 40.28125 
Q 14.5 37.15625 16.890625 35.375 
Q 19.28125 33.59375 26.515625 31.984375 
L 29.59375 31.296875 
Q 39.15625 29.25 43.1875 25.515625 
Q 47.21875 21.78125 47.21875 15.09375 
Q 47.21875 7.46875 41.1875 3.015625 
Q 35.15625 -1.421875 24.609375 -1.421875 
Q 20.21875 -1.421875 15.453125 -0.5625 
Q 10.6875 0.296875 5.421875 2 
L 5.421875 11.28125 
Q 10.40625 8.6875 15.234375 7.390625 
Q 20.0625 6.109375 24.8125 6.109375 
Q 31.15625 6.109375 34.5625 8.28125 
Q 37.984375 10.453125 37.984375 14.40625 
Q 37.984375 18.0625 35.515625 20.015625 
Q 33.0625 21.96875 24.703125 23.78125 
L 21.578125 24.515625 
Q 13.234375 26.265625 9.515625 29.90625 
Q 5.8125 33.546875 5.8125 39.890625 
Q 5.8125 47.609375 11.28125 51.796875 
Q 16.75 56 26.8125 56 
Q 31.78125 56 36.171875 55.265625 
Q 40.578125 54.546875 44.28125 53.078125 
z
" id="DejaVuSans-115"/>
      <path d="M 25.390625 72.90625 
L 33.6875 72.90625 
L 8.296875 -9.28125 
L 0 -9.28125 
z
" id="DejaVuSans-47"/>
      <path d="M 45.40625 46.390625 
L 45.40625 75.984375 
L 54.390625 75.984375 
L 54.390625 0 
L 45.40625 0 
L 45.40625 8.203125 
Q 42.578125 3.328125 38.25 0.953125 
Q 33.9375 -1.421875 27.875 -1.421875 
Q 17.96875 -1.421875 11.734375 6.484375 
Q 5.515625 14.40625 5.515625 27.296875 
Q 5.515625 40.1875 11.734375 48.09375 
Q 17.96875 56 27.875 56 
Q 33.9375 56 38.25 53.625 
Q 42.578125 51.265625 45.40625 46.390625 
z
M 14.796875 27.296875 
Q 14.796875 17.390625 18.875 11.75 
Q 22.953125 6.109375 30.078125 6.109375 
Q 37.203125 6.109375 41.296875 11.75 
Q 45.40625 17.390625 45.40625 27.296875 
Q 45.40625 37.203125 41.296875 42.84375 
Q 37.203125 48.484375 30.078125 48.484375 
Q 22.953125 48.484375 18.875 42.84375 
Q 14.796875 37.203125 14.796875 27.296875 
z
" id="DejaVuSans-100"/>
      <path d="M 9.421875 54.6875 
L 18.40625 54.6875 
L 18.40625 0 
L 9.421875 0 
z
M 9.421875 75.984375 
L 18.40625 75.984375 
L 18.40625 64.59375 
L 9.421875 64.59375 
z
" id="DejaVuSans-105"/>
      <path d="M 52 44.1875 
Q 55.375 50.25 60.0625 53.125 
Q 64.75 56 71.09375 56 
Q 79.640625 56 84.28125 50.015625 
Q 88.921875 44.046875 88.921875 33.015625 
L 88.921875 0 
L 79.890625 0 
L 79.890625 32.71875 
Q 79.890625 40.578125 77.09375 44.375 
Q 74.3125 48.1875 68.609375 48.1875 
Q 61.625 48.1875 57.5625 43.546875 
Q 53.515625 38.921875 53.515625 30.90625 
L 53.515625 0 
L 44.484375 0 
L 44.484375 32.71875 
Q 44.484375 40.625 41.703125 44.40625 
Q 38.921875 48.1875 33.109375 48.1875 
Q 26.21875 48.1875 22.15625 43.53125 
Q 18.109375 38.875 18.109375 30.90625 
L 18.109375 0 
L 9.078125 0 
L 9.078125 54.6875 
L 18.109375 54.6875 
L 18.109375 46.1875 
Q 21.1875 51.21875 25.484375 53.609375 
Q 29.78125 56 35.6875 56 
Q 41.65625 56 45.828125 52.96875 
Q 50 49.953125 52 44.1875 
z
" id="DejaVuSans-109"/>
      <path d="M 54.890625 33.015625 
L 54.890625 0 
L 45.90625 0 
L 45.90625 32.71875 
Q 45.90625 40.484375 42.875 44.328125 
Q 39.84375 48.1875 33.796875 48.1875 
Q 26.515625 48.1875 22.3125 43.546875 
Q 18.109375 38.921875 18.109375 30.90625 
L 18.109375 0 
L 9.078125 0 
L 9.078125 54.6875 
L 18.109375 54.6875 
L 18.109375 46.1875 
Q 21.34375 51.125 25.703125 53.5625 
Q 30.078125 56 35.796875 56 
Q 45.21875 56 50.046875 50.171875 
Q 54.890625 44.34375 54.890625 33.015625 
z
" id="DejaVuSans-110"/>
      <path d="M 8.015625 75.875 
L 15.828125 75.875 
Q 23.140625 64.359375 26.78125 53.3125 
Q 30.421875 42.28125 30.421875 31.390625 
Q 30.421875 20.453125 26.78125 9.375 
Q 23.140625 -1.703125 15.828125 -13.1875 
L 8.015625 -13.1875 
Q 14.5 -2 17.703125 9.0625 
Q 20.90625 20.125 20.90625 31.390625 
Q 20.90625 42.671875 17.703125 53.65625 
Q 14.5 64.65625 8.015625 75.875 
z
" id="DejaVuSans-41"/>
     </defs>
     <g transform="translate(77.303219 342.217594)scale(0.17 -0.17)">
      <use xlink:href="#DejaVuSans-108"/>
      <use x="27.783203" xlink:href="#DejaVuSans-111"/>
      <use x="88.964844" xlink:href="#DejaVuSans-103"/>
      <use x="152.441406" xlink:href="#DejaVuSans-49"/>
      <use x="216.064453" xlink:href="#DejaVuSans-48"/>
      <use x="279.6875" xlink:href="#DejaVuSans-40"/>
      <use x="318.701172" xlink:href="#DejaVuSans-35"/>
      <use x="402.490234" xlink:href="#DejaVuSans-32"/>
      <use x="434.277344" xlink:href="#DejaVuSans-102"/>
      <use x="469.404297" xlink:href="#DejaVuSans-45"/>
      <use x="505.488281" xlink:href="#DejaVuSans-101"/>
      <use x="567.011719" xlink:href="#DejaVuSans-118"/>
      <use x="626.191406" xlink:href="#DejaVuSans-97"/>
      <use x="687.470703" xlink:href="#DejaVuSans-108"/>
      <use x="715.253906" xlink:href="#DejaVuSans-115"/>
      <use x="767.353516" xlink:href="#DejaVuSans-32"/>
      <use x="799.140625" xlink:href="#DejaVuSans-47"/>
      <use x="832.832031" xlink:href="#DejaVuSans-32"/>
      <use x="864.619141" xlink:href="#DejaVuSans-100"/>
      <use x="928.095703" xlink:href="#DejaVuSans-105"/>
      <use x="955.878906" xlink:href="#DejaVuSans-109"/>
      <use x="1053.291016" xlink:href="#DejaVuSans-101"/>
      <use x="1114.814453" xlink:href="#DejaVuSans-110"/>
      <use x="1178.193359" xlink:href="#DejaVuSans-115"/>
      <use x="1230.292969" xlink:href="#DejaVuSans-105"/>
      <use x="1258.076172" xlink:href="#DejaVuSans-111"/>
      <use x="1319.257812" xlink:href="#DejaVuSans-110"/>
      <use x="1382.636719" xlink:href="#DejaVuSans-41"/>
     </g>
    </g>
   </g>
   <g id="matplotlib.axis_2">
    <g id="ytick_1">
     <g id="line2d_29">
      <path clip-path="url(#p546eabfa18)" d="M 57.6 298.944 
L 338.688 298.944 
" style="fill:none;stroke:#b0b0b0;stroke-linecap:square;stroke-width:0.8;"/>
     </g>
     <g id="line2d_30">
      <defs>
       <path d="M 0 0 
L -3.5 0 
" id="mcfc6b2e669" style="stroke:#000000;stroke-width:0.8;"/>
      </defs>
      <g>
       <use style="stroke:#000000;stroke-width:0.8;" x="57.6" xlink:href="#mcfc6b2e669" y="298.944"/>
      </g>
     </g>
     <g id="text_6">
      <!-- 0.0 -->
      <defs>
       <path d="M 10.6875 12.40625 
L 21 12.40625 
L 21 0 
L 10.6875 0 
z
" id="DejaVuSans-46"/>
      </defs>
      <g transform="translate(25.155 305.02275)scale(0.16 -0.16)">
       <use xlink:href="#DejaVuSans-48"/>
       <use x="63.623047" xlink:href="#DejaVuSans-46"/>
       <use x="95.410156" xlink:href="#DejaVuSans-48"/>
      </g>
     </g>
    </g>
    <g id="ytick_2">
     <g id="line2d_31">
      <path clip-path="url(#p546eabfa18)" d="M 57.6 245.22202 
L 338.688 245.22202 
" style="fill:none;stroke:#b0b0b0;stroke-linecap:square;stroke-width:0.8;"/>
     </g>
     <g id="line2d_32">
      <g>
       <use style="stroke:#000000;stroke-width:0.8;" x="57.6" xlink:href="#mcfc6b2e669" y="245.22202"/>
      </g>
     </g>
     <g id="text_7">
      <!-- 0.2 -->
      <g transform="translate(25.155 251.30077)scale(0.16 -0.16)">
       <use xlink:href="#DejaVuSans-48"/>
       <use x="63.623047" xlink:href="#DejaVuSans-46"/>
       <use x="95.410156" xlink:href="#DejaVuSans-50"/>
      </g>
     </g>
    </g>
    <g id="ytick_3">
     <g id="line2d_33">
      <path clip-path="url(#p546eabfa18)" d="M 57.6 191.50004 
L 338.688 191.50004 
" style="fill:none;stroke:#b0b0b0;stroke-linecap:square;stroke-width:0.8;"/>
     </g>
     <g id="line2d_34">
      <g>
       <use style="stroke:#000000;stroke-width:0.8;" x="57.6" xlink:href="#mcfc6b2e669" y="191.50004"/>
      </g>
     </g>
     <g id="text_8">
      <!-- 0.4 -->
      <g transform="translate(25.155 197.57879)scale(0.16 -0.16)">
       <use xlink:href="#DejaVuSans-48"/>
       <use x="63.623047" xlink:href="#DejaVuSans-46"/>
       <use x="95.410156" xlink:href="#DejaVuSans-52"/>
      </g>
     </g>
    </g>
    <g id="ytick_4">
     <g id="line2d_35">
      <path clip-path="url(#p546eabfa18)" d="M 57.6 137.778059 
L 338.688 137.778059 
" style="fill:none;stroke:#b0b0b0;stroke-linecap:square;stroke-width:0.8;"/>
     </g>
     <g id="line2d_36">
      <g>
       <use style="stroke:#000000;stroke-width:0.8;" x="57.6" xlink:href="#mcfc6b2e669" y="137.778059"/>
      </g>
     </g>
     <g id="text_9">
      <!-- 0.6 -->
      <g transform="translate(25.155 143.856809)scale(0.16 -0.16)">
       <use xlink:href="#DejaVuSans-48"/>
       <use x="63.623047" xlink:href="#DejaVuSans-46"/>
       <use x="95.410156" xlink:href="#DejaVuSans-54"/>
      </g>
     </g>
    </g>
    <g id="ytick_5">
     <g id="line2d_37">
      <path clip-path="url(#p546eabfa18)" d="M 57.6 84.056079 
L 338.688 84.056079 
" style="fill:none;stroke:#b0b0b0;stroke-linecap:square;stroke-width:0.8;"/>
     </g>
     <g id="line2d_38">
      <g>
       <use style="stroke:#000000;stroke-width:0.8;" x="57.6" xlink:href="#mcfc6b2e669" y="84.056079"/>
      </g>
     </g>
     <g id="text_10">
      <!-- 0.8 -->
      <defs>
       <path d="M 31.78125 34.625 
Q 24.75 34.625 20.71875 30.859375 
Q 16.703125 27.09375 16.703125 20.515625 
Q 16.703125 13.921875 20.71875 10.15625 
Q 24.75 6.390625 31.78125 6.390625 
Q 38.8125 6.390625 42.859375 10.171875 
Q 46.921875 13.96875 46.921875 20.515625 
Q 46.921875 27.09375 42.890625 30.859375 
Q 38.875 34.625 31.78125 34.625 
z
M 21.921875 38.8125 
Q 15.578125 40.375 12.03125 44.71875 
Q 8.5 49.078125 8.5 55.328125 
Q 8.5 64.0625 14.71875 69.140625 
Q 20.953125 74.21875 31.78125 74.21875 
Q 42.671875 74.21875 48.875 69.140625 
Q 55.078125 64.0625 55.078125 55.328125 
Q 55.078125 49.078125 51.53125 44.71875 
Q 48 40.375 41.703125 38.8125 
Q 48.828125 37.15625 52.796875 32.3125 
Q 56.78125 27.484375 56.78125 20.515625 
Q 56.78125 9.90625 50.3125 4.234375 
Q 43.84375 -1.421875 31.78125 -1.421875 
Q 19.734375 -1.421875 13.25 4.234375 
Q 6.78125 9.90625 6.78125 20.515625 
Q 6.78125 27.484375 10.78125 32.3125 
Q 14.796875 37.15625 21.921875 38.8125 
z
M 18.3125 54.390625 
Q 18.3125 48.734375 21.84375 45.5625 
Q 25.390625 42.390625 31.78125 42.390625 
Q 38.140625 42.390625 41.71875 45.5625 
Q 45.3125 48.734375 45.3125 54.390625 
Q 45.3125 60.0625 41.71875 63.234375 
Q 38.140625 66.40625 31.78125 66.40625 
Q 25.390625 66.40625 21.84375 63.234375 
Q 18.3125 60.0625 18.3125 54.390625 
z
" id="DejaVuSans-56"/>
      </defs>
      <g transform="translate(25.155 90.134829)scale(0.16 -0.16)">
       <use xlink:href="#DejaVuSans-48"/>
       <use x="63.623047" xlink:href="#DejaVuSans-46"/>
       <use x="95.410156" xlink:href="#DejaVuSans-56"/>
      </g>
     </g>
    </g>
    <g id="ytick_6">
     <g id="line2d_39">
      <path clip-path="url(#p546eabfa18)" d="M 57.6 30.334099 
L 338.688 30.334099 
" style="fill:none;stroke:#b0b0b0;stroke-linecap:square;stroke-width:0.8;"/>
     </g>
     <g id="line2d_40">
      <g>
       <use style="stroke:#000000;stroke-width:0.8;" x="57.6" xlink:href="#mcfc6b2e669" y="30.334099"/>
      </g>
     </g>
     <g id="text_11">
      <!-- 1.0 -->
      <g transform="translate(25.155 36.412849)scale(0.16 -0.16)">
       <use xlink:href="#DejaVuSans-49"/>
       <use x="63.623047" xlink:href="#DejaVuSans-46"/>
       <use x="95.410156" xlink:href="#DejaVuSans-48"/>
      </g>
     </g>
    </g>
    <g id="text_12">
     <!-- Fraction of function,target pairs -->
     <defs>
      <path d="M 9.8125 72.90625 
L 51.703125 72.90625 
L 51.703125 64.59375 
L 19.671875 64.59375 
L 19.671875 43.109375 
L 48.578125 43.109375 
L 48.578125 34.8125 
L 19.671875 34.8125 
L 19.671875 0 
L 9.8125 0 
z
" id="DejaVuSans-70"/>
      <path d="M 41.109375 46.296875 
Q 39.59375 47.171875 37.8125 47.578125 
Q 36.03125 48 33.890625 48 
Q 26.265625 48 22.1875 43.046875 
Q 18.109375 38.09375 18.109375 28.8125 
L 18.109375 0 
L 9.078125 0 
L 9.078125 54.6875 
L 18.109375 54.6875 
L 18.109375 46.1875 
Q 20.953125 51.171875 25.484375 53.578125 
Q 30.03125 56 36.53125 56 
Q 37.453125 56 38.578125 55.875 
Q 39.703125 55.765625 41.0625 55.515625 
z
" id="DejaVuSans-114"/>
      <path d="M 48.78125 52.59375 
L 48.78125 44.1875 
Q 44.96875 46.296875 41.140625 47.34375 
Q 37.3125 48.390625 33.40625 48.390625 
Q 24.65625 48.390625 19.8125 42.84375 
Q 14.984375 37.3125 14.984375 27.296875 
Q 14.984375 17.28125 19.8125 11.734375 
Q 24.65625 6.203125 33.40625 6.203125 
Q 37.3125 6.203125 41.140625 7.25 
Q 44.96875 8.296875 48.78125 10.40625 
L 48.78125 2.09375 
Q 45.015625 0.34375 40.984375 -0.53125 
Q 36.96875 -1.421875 32.421875 -1.421875 
Q 20.0625 -1.421875 12.78125 6.34375 
Q 5.515625 14.109375 5.515625 27.296875 
Q 5.515625 40.671875 12.859375 48.328125 
Q 20.21875 56 33.015625 56 
Q 37.15625 56 41.109375 55.140625 
Q 45.0625 54.296875 48.78125 52.59375 
z
" id="DejaVuSans-99"/>
      <path d="M 18.3125 70.21875 
L 18.3125 54.6875 
L 36.8125 54.6875 
L 36.8125 47.703125 
L 18.3125 47.703125 
L 18.3125 18.015625 
Q 18.3125 11.328125 20.140625 9.421875 
Q 21.96875 7.515625 27.59375 7.515625 
L 36.8125 7.515625 
L 36.8125 0 
L 27.59375 0 
Q 17.1875 0 13.234375 3.875 
Q 9.28125 7.765625 9.28125 18.015625 
L 9.28125 47.703125 
L 2.6875 47.703125 
L 2.6875 54.6875 
L 9.28125 54.6875 
L 9.28125 70.21875 
z
" id="DejaVuSans-116"/>
      <path d="M 8.5 21.578125 
L 8.5 54.6875 
L 17.484375 54.6875 
L 17.484375 21.921875 
Q 17.484375 14.15625 20.5 10.265625 
Q 23.53125 6.390625 29.59375 6.390625 
Q 36.859375 6.390625 41.078125 11.03125 
Q 45.3125 15.671875 45.3125 23.6875 
L 45.3125 54.6875 
L 54.296875 54.6875 
L 54.296875 0 
L 45.3125 0 
L 45.3125 8.40625 
Q 42.046875 3.421875 37.71875 1 
Q 33.40625 -1.421875 27.6875 -1.421875 
Q 18.265625 -1.421875 13.375 4.4375 
Q 8.5 10.296875 8.5 21.578125 
z
M 31.109375 56 
z
" id="DejaVuSans-117"/>
      <path d="M 11.71875 12.40625 
L 22.015625 12.40625 
L 22.015625 4 
L 14.015625 -11.625 
L 7.71875 -11.625 
L 11.71875 4 
z
" id="DejaVuSans-44"/>
      <path d="M 18.109375 8.203125 
L 18.109375 -20.796875 
L 9.078125 -20.796875 
L 9.078125 54.6875 
L 18.109375 54.6875 
L 18.109375 46.390625 
Q 20.953125 51.265625 25.265625 53.625 
Q 29.59375 56 35.59375 56 
Q 45.5625 56 51.78125 48.09375 
Q 58.015625 40.1875 58.015625 27.296875 
Q 58.015625 14.40625 51.78125 6.484375 
Q 45.5625 -1.421875 35.59375 -1.421875 
Q 29.59375 -1.421875 25.265625 0.953125 
Q 20.953125 3.328125 18.109375 8.203125 
z
M 48.6875 27.296875 
Q 48.6875 37.203125 44.609375 42.84375 
Q 40.53125 48.484375 33.40625 48.484375 
Q 26.265625 48.484375 22.1875 42.84375 
Q 18.109375 37.203125 18.109375 27.296875 
Q 18.109375 17.390625 22.1875 11.75 
Q 26.265625 6.109375 33.40625 6.109375 
Q 40.53125 6.109375 44.609375 11.75 
Q 48.6875 17.390625 48.6875 27.296875 
z
" id="DejaVuSans-112"/>
     </defs>
     <g transform="translate(17.619531 298.435375)rotate(-90)scale(0.17 -0.17)">
      <use xlink:href="#DejaVuSans-70"/>
      <use x="57.410156" xlink:href="#DejaVuSans-114"/>
      <use x="98.523438" xlink:href="#DejaVuSans-97"/>
      <use x="159.802734" xlink:href="#DejaVuSans-99"/>
      <use x="214.783203" xlink:href="#DejaVuSans-116"/>
      <use x="253.992188" xlink:href="#DejaVuSans-105"/>
      <use x="281.775391" xlink:href="#DejaVuSans-111"/>
      <use x="342.957031" xlink:href="#DejaVuSans-110"/>
      <use x="406.335938" xlink:href="#DejaVuSans-32"/>
      <use x="438.123047" xlink:href="#DejaVuSans-111"/>
      <use x="499.304688" xlink:href="#DejaVuSans-102"/>
      <use x="534.509766" xlink:href="#DejaVuSans-32"/>
      <use x="566.296875" xlink:href="#DejaVuSans-102"/>
      <use x="601.501953" xlink:href="#DejaVuSans-117"/>
      <use x="664.880859" xlink:href="#DejaVuSans-110"/>
      <use x="728.259766" xlink:href="#DejaVuSans-99"/>
      <use x="783.240234" xlink:href="#DejaVuSans-116"/>
      <use x="822.449219" xlink:href="#DejaVuSans-105"/>
      <use x="850.232422" xlink:href="#DejaVuSans-111"/>
      <use x="911.414062" xlink:href="#DejaVuSans-110"/>
      <use x="974.792969" xlink:href="#DejaVuSans-44"/>
      <use x="1006.580078" xlink:href="#DejaVuSans-116"/>
      <use x="1045.789062" xlink:href="#DejaVuSans-97"/>
      <use x="1107.068359" xlink:href="#DejaVuSans-114"/>
      <use x="1148.166016" xlink:href="#DejaVuSans-103"/>
      <use x="1211.642578" xlink:href="#DejaVuSans-101"/>
      <use x="1273.166016" xlink:href="#DejaVuSans-116"/>
      <use x="1312.375" xlink:href="#DejaVuSans-32"/>
      <use x="1344.162109" xlink:href="#DejaVuSans-112"/>
      <use x="1407.638672" xlink:href="#DejaVuSans-97"/>
      <use x="1468.917969" xlink:href="#DejaVuSans-105"/>
      <use x="1496.701172" xlink:href="#DejaVuSans-114"/>
      <use x="1537.814453" xlink:href="#DejaVuSans-115"/>
     </g>
    </g>
   </g>
   <g id="line2d_41">
    <defs>
     <path d="M 0 1.5 
C 0.397805 1.5 0.77937 1.341951 1.06066 1.06066 
C 1.341951 0.77937 1.5 0.397805 1.5 0 
C 1.5 -0.397805 1.341951 -0.77937 1.06066 -1.06066 
C 0.77937 -1.341951 0.397805 -1.5 0 -1.5 
C -0.397805 -1.5 -0.77937 -1.341951 -1.06066 -1.06066 
C -1.341951 -0.77937 -1.5 -0.397805 -1.5 0 
C -1.5 0.397805 -1.341951 0.77937 -1.06066 1.06066 
C -0.77937 1.341951 -0.397805 1.5 0 1.5 
z
" id="m4a5563b444" style="stroke:#f5deb3;"/>
    </defs>
    <g>
     <use style="fill:#f5deb3;stroke:#f5deb3;" x="131.185181" xlink:href="#m4a5563b444" y="30.334099"/>
     <use style="fill:#f5deb3;stroke:#f5deb3;" x="131.185181" xlink:href="#m4a5563b444" y="30.334099"/>
    </g>
   </g>
   <g id="line2d_42">
    <defs>
     <path d="M 0 1.5 
C 0.397805 1.5 0.77937 1.341951 1.06066 1.06066 
C 1.341951 0.77937 1.5 0.397805 1.5 0 
C 1.5 -0.397805 1.341951 -0.77937 1.06066 -1.06066 
C 0.77937 -1.341951 0.397805 -1.5 0 -1.5 
C -0.397805 -1.5 -0.77937 -1.341951 -1.06066 -1.06066 
C -1.341951 -0.77937 -1.5 -0.397805 -1.5 0 
C -1.5 0.397805 -1.341951 0.77937 -1.06066 1.06066 
C -0.77937 1.341951 -0.397805 1.5 0 1.5 
z
" id="me8e507ff31" style="stroke:#000080;"/>
    </defs>
    <g>
     <use style="fill:#000080;stroke:#000080;" x="159.456591" xlink:href="#me8e507ff31" y="30.334099"/>
     <use style="fill:#000080;stroke:#000080;" x="159.456591" xlink:href="#me8e507ff31" y="30.334099"/>
    </g>
   </g>
   <g id="line2d_43">
    <path d="M 45.512012 298.944 
L 45.512012 294.730511 
L 57.6 294.730511 
L 57.6 287.356906 
L 73.579452 287.356906 
L 73.579452 286.83022 
L 76.759008 286.83022 
L 76.759008 285.250162 
L 81.775977 285.250162 
L 81.775977 284.723476 
L 83.830028 284.723476 
L 83.830028 279.983301 
L 87.329581 279.983301 
L 87.329581 278.929929 
L 88.846997 278.929929 
L 88.846997 278.403243 
L 90.242884 278.403243 
L 90.242884 275.243126 
L 95.918017 275.243126 
L 95.918017 274.71644 
L 96.86091 274.71644 
L 96.86091 274.189754 
L 97.755429 274.189754 
L 97.755429 273.136382 
L 98.606294 273.136382 
L 98.606294 272.609696 
L 99.41757 272.609696 
L 99.41757 267.869521 
L 100.192776 267.869521 
L 100.192776 267.342835 
L 103.623262 267.342835 
L 103.623262 266.816149 
L 105.398279 266.816149 
L 105.398279 266.289463 
L 106.48859 266.289463 
L 106.48859 265.762777 
L 107.009204 265.762777 
L 107.009204 264.709405 
L 107.514726 264.709405 
L 107.514726 264.182719 
L 108.948899 264.182719 
L 108.948899 261.549288 
L 111.897469 261.549288 
L 111.897469 259.96923 
L 112.280765 259.96923 
L 112.280765 255.229055 
L 113.382559 255.229055 
L 113.382559 254.702369 
L 114.751048 254.702369 
L 114.751048 253.122311 
L 116.621333 253.122311 
L 116.621333 252.595625 
L 117.486268 252.595625 
L 117.486268 250.488881 
L 118.310324 250.488881 
L 118.310324 249.962195 
L 118.838828 249.962195 
L 118.838828 248.908822 
L 119.602714 248.908822 
L 119.602714 248.382136 
L 120.093994 248.382136 
L 120.093994 247.328764 
L 120.8059 247.328764 
L 120.8059 246.802078 
L 121.931406 246.802078 
L 121.931406 246.275392 
L 122.362027 246.275392 
L 122.362027 245.748706 
L 123.593547 245.748706 
L 123.593547 244.168648 
L 123.985457 244.168648 
L 123.985457 240.481845 
L 124.178158 240.481845 
L 124.178158 239.428473 
L 124.743806 239.428473 
L 124.743806 236.795043 
L 124.92835 236.795043 
L 124.92835 235.74167 
L 125.647598 235.74167 
L 125.647598 235.214984 
L 125.996395 235.214984 
L 125.996395 234.161612 
L 126.338353 234.161612 
L 126.338353 233.10824 
L 126.673734 233.10824 
L 126.673734 232.581554 
L 127.48501 232.581554 
L 127.48501 228.894751 
L 128.107907 228.894751 
L 128.107907 228.368065 
L 128.856489 228.368065 
L 128.856489 227.841379 
L 129.002426 227.841379 
L 129.002426 226.261321 
L 129.147151 226.261321 
L 129.147151 225.734635 
L 129.433047 225.734635 
L 129.433047 222.574518 
L 130.127931 222.574518 
L 130.127931 222.047832 
L 130.796184 222.047832 
L 130.796184 221.521146 
L 131.185181 221.521146 
L 131.185181 220.99446 
L 131.565689 220.99446 
L 131.565689 219.941088 
L 132.060454 219.941088 
L 132.060454 219.414402 
L 132.30267 219.414402 
L 132.30267 218.36103 
L 132.422528 218.36103 
L 132.422528 217.834344 
L 132.541568 217.834344 
L 132.541568 216.780971 
L 132.659801 216.780971 
L 132.659801 214.147541 
L 132.777237 214.147541 
L 132.777237 210.987425 
L 132.893889 210.987425 
L 132.893889 209.934052 
L 133.124876 209.934052 
L 133.124876 208.88068 
L 133.239232 208.88068 
L 133.239232 207.300622 
L 133.800029 207.300622 
L 133.800029 206.24725 
L 134.019394 206.24725 
L 134.019394 205.720564 
L 134.55603 205.720564 
L 134.55603 204.140506 
L 134.766144 204.140506 
L 134.870259 200.453703 
L 135.178927 200.453703 
L 135.280614 199.400331 
L 135.482227 199.400331 
L 135.582166 196.240214 
L 136.073445 196.240214 
L 136.073445 194.660156 
L 136.266147 194.660156 
L 136.266147 194.13347 
L 136.551264 194.13347 
L 136.551264 189.393295 
L 136.924311 189.393295 
L 136.924311 185.706493 
L 137.107884 185.706493 
L 137.198951 184.653121 
L 137.37967 184.653121 
L 137.469333 183.599748 
L 137.910857 183.599748 
L 137.997836 182.01969 
L 138.341479 182.01969 
L 138.426341 177.279515 
L 138.761723 177.279515 
L 138.761723 176.752829 
L 138.927025 176.752829 
L 139.009092 175.172771 
L 139.090775 175.172771 
L 139.090775 174.119399 
L 139.253002 174.119399 
L 139.253002 173.066027 
L 139.413734 173.066027 
L 139.413734 172.012655 
L 139.887228 172.012655 
L 139.887228 171.485969 
L 140.11924 171.485969 
L 140.195896 170.432596 
L 140.423864 170.432596 
L 140.423864 169.90591 
L 140.574203 169.90591 
L 140.574203 169.379224 
L 140.723258 169.379224 
L 140.723258 168.852538 
L 140.871049 168.852538 
L 140.944478 166.219108 
L 141.307054 166.219108 
L 141.378673 162.005619 
L 141.521035 162.005619 
L 141.521035 161.478933 
L 141.80232 161.478933 
L 141.80232 159.898875 
L 141.941279 159.898875 
L 142.010346 157.265444 
L 142.07914 157.265444 
L 142.147664 155.1587 
L 142.215919 155.1587 
L 142.283909 154.105328 
L 142.486301 154.105328 
L 142.553247 148.838467 
L 142.686372 148.838467 
L 142.686372 148.311781 
L 142.884173 148.311781 
L 142.949611 146.205037 
L 143.144465 146.205037 
L 143.208936 143.571606 
L 143.464461 143.571606 
L 143.464461 141.991548 
L 144.510517 141.991548 
L 144.510517 140.938176 
L 144.629556 140.938176 
L 144.688773 138.304745 
L 144.747789 138.304745 
L 144.747789 137.778059 
L 144.865226 137.778059 
L 144.865226 137.251373 
L 145.155404 137.251373 
L 145.155404 135.671315 
L 145.270136 135.671315 
L 145.327221 132.511199 
L 145.665858 132.511199 
L 145.665858 131.457826 
L 145.888018 131.457826 
L 145.888018 128.824396 
L 146.107383 128.824396 
L 146.216039 127.244338 
L 146.270114 127.244338 
L 146.270114 124.610907 
L 146.538004 124.610907 
L 146.591092 123.030849 
L 146.749392 123.030849 
L 146.749392 121.977477 
L 146.958248 121.977477 
L 147.061745 119.344047 
L 147.368603 119.344047 
L 147.419225 117.237302 
L 147.818997 117.237302 
L 147.86833 114.077186 
L 148.064279 114.077186 
L 148.064279 113.023814 
L 148.209809 113.023814 
L 148.306159 110.390383 
L 148.54473 110.390383 
L 148.592055 108.810325 
L 148.780082 108.810325 
L 148.826773 107.230267 
L 148.919783 107.230267 
L 149.012299 104.596836 
L 149.058374 104.596836 
L 149.058374 104.07015 
L 149.241465 104.07015 
L 149.241465 103.543464 
L 149.377533 103.543464 
L 149.422654 102.490092 
L 149.512548 102.490092 
L 149.512548 101.43672 
L 149.735275 101.43672 
L 149.735275 99.856662 
L 149.911431 99.856662 
L 149.998846 95.116487 
L 150.085825 95.116487 
L 150.172372 92.483056 
L 150.215485 92.483056 
L 150.215485 91.95637 
L 150.344189 91.95637 
L 150.344189 91.429684 
L 150.47195 91.429684 
L 150.556607 88.796254 
L 150.640855 88.796254 
L 150.682827 84.582765 
L 150.891184 84.582765 
L 150.973835 83.002707 
L 151.015013 83.002707 
L 151.015013 82.476021 
L 151.13797 82.476021 
L 151.13797 81.422649 
L 151.260066 81.422649 
L 151.260066 80.895963 
L 151.421542 80.895963 
L 151.501723 79.842591 
L 151.621307 79.842591 
L 151.660987 78.262532 
L 151.740076 78.262532 
L 151.818809 72.468985 
L 151.858043 72.468985 
L 151.897188 70.888927 
L 152.0141 70.888927 
L 152.091608 68.782183 
L 152.130233 68.782183 
L 152.168773 65.622066 
L 152.436193 65.622066 
L 152.436193 65.09538 
L 152.848312 65.09538 
L 152.848312 64.568694 
L 153.032466 64.568694 
L 153.142033 61.935264 
L 153.287059 61.935264 
L 153.395042 58.775147 
L 153.430889 58.775147 
L 153.502361 56.668403 
L 153.750233 56.668403 
L 153.750233 55.615031 
L 153.994632 55.615031 
L 153.994632 54.034973 
L 154.132765 54.034973 
L 154.235652 51.928228 
L 154.303908 51.928228 
L 154.371897 49.821484 
L 154.473387 49.821484 
L 154.473387 48.768112 
L 154.873541 48.768112 
L 154.873541 47.188054 
L 155.070227 47.188054 
L 155.102793 46.134681 
L 155.264719 46.134681 
L 155.361158 45.081309 
L 155.393186 45.081309 
L 155.425155 44.027937 
L 155.55245 44.027937 
L 155.61575 42.974565 
L 155.741666 42.974565 
L 155.773004 41.394507 
L 155.928852 41.394507 
L 155.928852 38.761076 
L 156.083319 38.761076 
L 156.175347 37.181018 
L 156.236431 37.181018 
L 156.236431 36.654332 
L 156.448553 36.654332 
L 156.448553 36.127646 
L 156.628341 36.127646 
L 156.628341 35.60096 
L 156.835778 35.60096 
L 156.865211 34.547588 
L 156.953214 34.547588 
L 156.953214 34.020902 
L 157.243392 34.020902 
L 157.329512 32.967529 
L 157.358125 32.967529 
L 157.358125 32.440843 
L 157.893028 32.440843 
L 157.893028 31.914157 
L 158.572743 31.914157 
L 158.572743 31.387471 
L 158.863624 31.387471 
L 158.863624 30.860785 
L 159.456591 30.860785 
L 159.456591 30.334099 
L 338.688 30.334099 
L 338.688 30.334099 
" style="fill:none;stroke:#000080;stroke-linecap:square;stroke-width:1.5;"/>
   </g>
   <g id="line2d_44">
    <defs>
     <path d="M 0 6 
C 1.591219 6 3.117479 5.367802 4.242641 4.242641 
C 5.367802 3.117479 6 1.591219 6 0 
C 6 -1.591219 5.367802 -3.117479 4.242641 -4.242641 
C 3.117479 -5.367802 1.591219 -6 0 -6 
C -1.591219 -6 -3.117479 -5.367802 -4.242641 -4.242641 
C -5.367802 -3.117479 -6 -1.591219 -6 0 
C -6 1.591219 -5.367802 3.117479 -4.242641 4.242641 
C -3.117479 5.367802 -1.591219 6 0 6 
z
" id="medd34ee9f3" style="stroke:#000080;stroke-width:1.5;"/>
    </defs>
    <g>
     <use style="fill-opacity:0;stroke:#000080;stroke-width:1.5;" x="136.073445" xlink:href="#medd34ee9f3" y="196.240214"/>
     <use style="fill-opacity:0;stroke:#000080;stroke-width:1.5;" x="153.395042" xlink:href="#medd34ee9f3" y="59.82852"/>
     <use style="fill-opacity:0;stroke:#000080;stroke-width:1.5;" x="159.456591" xlink:href="#medd34ee9f3" y="30.860785"/>
     <use style="fill-opacity:0;stroke:#000080;stroke-width:1.5;" x="159.456591" xlink:href="#medd34ee9f3" y="30.334099"/>
     <use style="fill-opacity:0;stroke:#000080;stroke-width:1.5;" x="159.456591" xlink:href="#medd34ee9f3" y="30.334099"/>
     <use style="fill-opacity:0;stroke:#000080;stroke-width:1.5;" x="338.688" xlink:href="#medd34ee9f3" y="30.334099"/>
    </g>
   </g>
   <g id="line2d_45">
    <path style="fill:none;stroke:#000080;stroke-linecap:square;stroke-width:1.5;"/>
    <g/>
   </g>
   <g id="line2d_46">
    <defs>
     <path d="M 0 1.5 
C 0.397805 1.5 0.77937 1.341951 1.06066 1.06066 
C 1.341951 0.77937 1.5 0.397805 1.5 0 
C 1.5 -0.397805 1.341951 -0.77937 1.06066 -1.06066 
C 0.77937 -1.341951 0.397805 -1.5 0 -1.5 
C -0.397805 -1.5 -0.77937 -1.341951 -1.06066 -1.06066 
C -1.341951 -0.77937 -1.5 -0.397805 -1.5 0 
C -1.5 0.397805 -1.341951 0.77937 -1.06066 1.06066 
C -0.77937 1.341951 -0.397805 1.5 0 1.5 
z
" id="m599930a257" style="stroke:#ff0000;"/>
    </defs>
    <g>
     <use style="fill:#ff0000;stroke:#ff0000;" x="154.337936" xlink:href="#m599930a257" y="30.334099"/>
     <use style="fill:#ff0000;stroke:#ff0000;" x="154.337936" xlink:href="#m599930a257" y="30.334099"/>
    </g>
   </g>
   <g id="line2d_47">
    <path d="M 45.512012 298.944 
L 45.512012 293.677139 
L 57.6 293.677139 
L 57.6 291.570395 
L 64.67102 291.570395 
L 64.67102 284.723476 
L 69.687988 284.723476 
L 69.687988 284.19679 
L 76.759008 284.19679 
L 76.759008 283.143418 
L 79.447285 283.143418 
L 79.447285 278.929929 
L 81.775977 278.929929 
L 81.775977 274.71644 
L 83.830028 274.71644 
L 83.830028 273.136382 
L 85.66744 273.136382 
L 85.66744 270.502952 
L 88.846997 270.502952 
L 88.846997 269.976266 
L 90.242884 269.976266 
L 90.242884 268.396207 
L 93.863965 268.396207 
L 93.863965 267.869521 
L 94.921215 267.869521 
L 94.921215 267.342835 
L 96.86091 267.342835 
L 96.86091 265.762777 
L 97.755429 265.762777 
L 97.755429 264.709405 
L 98.606294 264.709405 
L 98.606294 262.075974 
L 99.41757 262.075974 
L 99.41757 260.495916 
L 100.192776 260.495916 
L 100.192776 259.442544 
L 101.646892 259.442544 
L 101.646892 257.862486 
L 102.989037 257.862486 
L 102.989037 256.809114 
L 105.951954 256.809114 
L 105.951954 256.282427 
L 106.48859 256.282427 
L 106.48859 255.755741 
L 107.009204 255.755741 
L 107.009204 254.702369 
L 107.514726 254.702369 
L 107.514726 254.175683 
L 108.483824 254.175683 
L 108.483824 253.122311 
L 109.843417 253.122311 
L 109.843417 251.015567 
L 110.694282 251.015567 
L 110.694282 249.962195 
L 111.104637 249.962195 
L 111.104637 249.435508 
L 111.505558 249.435508 
L 111.505558 246.275392 
L 112.655818 246.275392 
L 112.655818 245.22202 
L 114.418861 245.22202 
L 114.418861 243.115275 
L 115.397021 243.115275 
L 115.397021 241.535217 
L 116.019919 241.535217 
L 116.019919 239.428473 
L 116.914437 239.428473 
L 116.914437 238.901787 
L 117.202696 238.901787 
L 117.202696 238.375101 
L 117.486268 238.375101 
L 117.486268 236.795043 
L 117.765302 236.795043 
L 117.765302 235.74167 
L 118.838828 235.74167 
L 118.838828 233.634926 
L 119.351785 233.634926 
L 119.351785 233.10824 
L 120.093994 233.10824 
L 120.093994 232.054868 
L 120.33454 232.054868 
L 120.33454 230.47481 
L 120.571812 230.47481 
L 120.571812 229.948123 
L 120.8059 229.948123 
L 120.8059 229.421437 
L 121.712041 229.421437 
L 121.712041 227.841379 
L 122.148045 227.841379 
L 122.148045 227.314693 
L 122.362027 227.314693 
L 122.362027 226.788007 
L 122.782271 226.788007 
L 122.782271 223.101204 
L 123.192626 223.101204 
L 123.192626 222.047832 
L 124.178158 222.047832 
L 124.178158 219.941088 
L 124.557288 219.941088 
L 124.557288 219.414402 
L 125.291682 219.414402 
L 125.291682 218.887716 
L 125.822869 218.887716 
L 125.822869 217.834344 
L 126.168212 217.834344 
L 126.168212 217.307658 
L 126.50685 217.307658 
L 126.50685 216.780971 
L 127.002787 216.780971 
L 127.002787 215.200913 
L 127.165014 215.200913 
L 127.165014 214.674227 
L 127.325746 214.674227 
L 127.325746 214.147541 
L 127.799239 214.147541 
L 127.799239 212.567483 
L 127.954256 212.567483 
L 127.954256 210.987425 
L 128.107907 210.987425 
L 128.107907 207.300622 
L 128.560901 207.300622 
L 128.560901 205.720564 
L 128.856489 205.720564 
L 128.856489 205.193878 
L 129.002426 205.193878 
L 129.002426 203.613819 
L 129.433047 203.613819 
L 129.433047 201.507075 
L 129.574256 201.507075 
L 129.574256 200.980389 
L 129.853291 200.980389 
L 129.853291 199.927017 
L 130.664567 199.927017 
L 130.664567 199.400331 
L 131.056477 199.400331 
L 131.056477 198.346959 
L 131.185181 198.346959 
L 131.185181 197.293586 
L 131.312942 197.293586 
L 131.312942 196.7669 
L 131.439773 196.7669 
L 131.439773 196.240214 
L 131.565689 196.240214 
L 131.565689 193.606784 
L 132.181982 193.606784 
L 132.181982 193.080098 
L 132.30267 193.080098 
L 132.30267 192.553412 
L 132.422528 192.553412 
L 132.422528 192.026726 
L 132.541568 192.026726 
L 132.541568 191.50004 
L 132.893889 191.50004 
L 132.893889 190.973354 
L 133.009765 190.973354 
L 133.009765 190.446667 
L 133.239232 190.446667 
L 133.239232 189.393295 
L 133.352844 189.393295 
L 133.352844 187.813237 
L 133.689303 187.813237 
L 133.689303 187.286551 
L 133.910056 187.286551 
L 133.910056 186.759865 
L 134.450015 186.759865 
L 134.450015 186.233179 
L 134.661403 186.233179 
L 134.766144 184.653121 
L 134.870259 184.653121 
L 134.973757 182.01969 
L 135.076644 182.01969 
L 135.076644 181.493004 
L 135.280614 181.493004 
L 135.381712 179.38626 
L 135.482227 179.38626 
L 135.482227 178.859574 
L 135.97629 178.859574 
L 136.073445 174.119399 
L 136.170062 174.119399 
L 136.170062 173.592713 
L 136.551264 173.592713 
L 136.645276 170.432596 
L 136.738785 170.432596 
L 136.738785 169.90591 
L 137.107884 169.90591 
L 137.198951 168.852538 
L 137.37967 168.852538 
L 137.37967 164.63905 
L 137.910857 164.63905 
L 137.910857 162.532305 
L 138.084384 162.532305 
L 138.170504 159.372189 
L 138.341479 159.372189 
L 138.426341 157.79213 
L 138.84457 157.79213 
L 138.927025 156.212072 
L 139.009092 156.212072 
L 139.009092 155.685386 
L 139.172077 155.685386 
L 139.172077 154.632014 
L 139.413734 154.632014 
L 139.493548 152.52527 
L 139.572998 152.52527 
L 139.572998 149.891839 
L 139.8092 149.891839 
L 139.887228 147.258409 
L 139.964909 147.258409 
L 140.042245 145.151665 
L 140.195896 145.151665 
L 140.195896 144.624978 
L 140.499195 144.624978 
L 140.574203 141.464862 
L 140.723258 141.464862 
L 140.79731 138.831432 
L 140.944478 138.831432 
L 140.944478 137.778059 
L 141.591783 137.778059 
L 141.662245 136.724687 
L 141.80232 136.724687 
L 141.80232 136.198001 
L 141.941279 136.198001 
L 142.010346 131.984513 
L 142.147664 131.984513 
L 142.215919 130.93114 
L 142.283909 130.93114 
L 142.283909 130.404454 
L 142.419098 130.404454 
L 142.486301 128.29771 
L 142.553247 128.29771 
L 142.619936 127.244338 
L 142.752555 127.244338 
L 142.752555 126.190966 
L 142.884173 126.190966 
L 142.949611 123.557535 
L 143.144465 123.557535 
L 143.144465 123.030849 
L 143.337167 123.030849 
L 143.337167 122.504163 
L 143.464461 122.504163 
L 143.464461 121.977477 
L 143.653678 121.977477 
L 143.653678 121.450791 
L 143.778691 121.450791 
L 143.778691 120.924105 
L 144.087359 120.924105 
L 144.087359 119.870733 
L 144.209312 119.870733 
L 144.209312 117.763988 
L 144.45069 117.763988 
L 144.45069 115.657244 
L 144.629556 115.657244 
L 144.629556 112.497128 
L 144.806606 112.497128 
L 144.806606 110.917069 
L 144.981877 110.917069 
L 144.981877 109.337011 
L 145.212864 109.337011 
L 145.270136 108.283639 
L 145.327221 108.283639 
L 145.384119 106.703581 
L 145.665858 106.703581 
L 145.665858 106.176895 
L 145.888018 106.176895 
L 145.943118 101.963406 
L 146.052799 101.963406 
L 146.052799 100.910034 
L 146.216039 100.910034 
L 146.324022 94.063115 
L 146.377764 94.063115 
L 146.377764 92.483056 
L 146.749392 92.483056 
L 146.854132 86.162824 
L 146.906268 86.162824 
L 147.010073 82.476021 
L 147.164632 82.476021 
L 147.266916 79.842591 
L 147.419225 79.842591 
L 147.419225 79.315904 
L 147.620256 79.315904 
L 147.71991 76.682474 
L 147.818997 76.682474 
L 147.86833 74.049044 
L 148.209809 74.049044 
L 148.306159 71.415613 
L 148.40198 71.415613 
L 148.497276 69.308869 
L 148.54473 69.308869 
L 148.54473 68.782183 
L 148.780082 68.782183 
L 148.826773 67.728811 
L 149.058374 67.728811 
L 149.15016 66.148752 
L 149.332295 66.148752 
L 149.377533 64.042008 
L 149.467659 64.042008 
L 149.512548 62.46195 
L 149.60198 62.46195 
L 149.646525 60.881892 
L 149.735275 60.881892 
L 149.735275 59.82852 
L 149.911431 59.82852 
L 149.955193 58.775147 
L 150.085825 58.775147 
L 150.172372 56.141717 
L 150.258492 56.141717 
L 150.258492 55.088345 
L 150.38688 55.088345 
L 150.47195 52.9816 
L 150.598782 52.9816 
L 150.598782 52.454914 
L 150.849711 52.454914 
L 150.932558 50.34817 
L 151.056095 50.34817 
L 151.097081 49.294798 
L 151.260066 49.294798 
L 151.340991 46.661368 
L 151.381313 46.661368 
L 151.381313 43.501251 
L 151.581536 43.501251 
L 151.621307 41.394507 
L 151.936246 41.394507 
L 151.936246 40.341135 
L 152.052897 40.341135 
L 152.052897 39.814448 
L 152.398241 39.814448 
L 152.398241 39.287762 
L 152.587184 39.287762 
L 152.624728 37.707704 
L 152.736878 37.707704 
L 152.736878 36.127646 
L 152.959038 36.127646 
L 152.959038 35.074274 
L 153.142033 35.074274 
L 153.142033 34.547588 
L 153.466662 34.547588 
L 153.502361 33.494215 
L 153.609024 33.494215 
L 153.609024 32.967529 
L 153.994632 32.967529 
L 153.994632 31.914157 
L 154.201424 31.914157 
L 154.201424 31.387471 
L 154.337936 31.387471 
L 154.337936 30.334099 
L 338.688 30.334099 
L 338.688 30.334099 
" style="fill:none;stroke:#ff0000;stroke-linecap:square;stroke-width:1.5;"/>
   </g>
   <g id="line2d_48">
    <defs>
     <path d="M 0 -6 
L -5.196152 -3 
L -5.196152 3 
L -0 6 
L 5.196152 3 
L 5.196152 -3 
z
" id="mc1f6476f62" style="stroke:#ff0000;stroke-linejoin:miter;stroke-width:1.5;"/>
    </defs>
    <g>
     <use style="fill-opacity:0;stroke:#ff0000;stroke-linejoin:miter;stroke-width:1.5;" x="117.765302" xlink:href="#mc1f6476f62" y="236.795043"/>
     <use style="fill-opacity:0;stroke:#ff0000;stroke-linejoin:miter;stroke-width:1.5;" x="150.598782" xlink:href="#mc1f6476f62" y="52.454914"/>
     <use style="fill-opacity:0;stroke:#ff0000;stroke-linejoin:miter;stroke-width:1.5;" x="154.337936" xlink:href="#mc1f6476f62" y="31.387471"/>
     <use style="fill-opacity:0;stroke:#ff0000;stroke-linejoin:miter;stroke-width:1.5;" x="154.337936" xlink:href="#mc1f6476f62" y="30.334099"/>
     <use style="fill-opacity:0;stroke:#ff0000;stroke-linejoin:miter;stroke-width:1.5;" x="154.337936" xlink:href="#mc1f6476f62" y="30.334099"/>
     <use style="fill-opacity:0;stroke:#ff0000;stroke-linejoin:miter;stroke-width:1.5;" x="338.688" xlink:href="#mc1f6476f62" y="30.334099"/>
    </g>
   </g>
   <g id="line2d_49">
    <path style="fill:none;stroke:#ff0000;stroke-linecap:square;stroke-width:1.5;"/>
    <g/>
   </g>
   <g id="line2d_50">
    <defs>
     <path d="M 0 1.5 
C 0.397805 1.5 0.77937 1.341951 1.06066 1.06066 
C 1.341951 0.77937 1.5 0.397805 1.5 0 
C 1.5 -0.397805 1.341951 -0.77937 1.06066 -1.06066 
C 0.77937 -1.341951 0.397805 -1.5 0 -1.5 
C -0.397805 -1.5 -0.77937 -1.341951 -1.06066 -1.06066 
C -1.341951 -0.77937 -1.5 -0.397805 -1.5 0 
C -1.5 0.397805 -1.341951 0.77937 -1.06066 1.06066 
C -0.77937 1.341951 -0.397805 1.5 0 1.5 
z
" id="m598b08a3d4" style="stroke:#bebebe;"/>
    </defs>
    <g>
     <use style="fill:#bebebe;stroke:#bebebe;" x="374.558986" xlink:href="#m598b08a3d4" y="67.202125"/>
     <use style="fill:#bebebe;stroke:#bebebe;" x="374.558986" xlink:href="#m598b08a3d4" y="67.202125"/>
    </g>
   </g>
   <g id="line2d_51">
    <path d="M 45.512012 298.944 
L 45.512012 295.257197 
L 57.6 295.257197 
L 57.6 292.623767 
L 69.687988 292.623767 
L 69.687988 287.883592 
L 73.579452 287.883592 
L 73.579452 286.303534 
L 76.759008 286.303534 
L 76.759008 283.670104 
L 79.447285 283.670104 
L 79.447285 283.143418 
L 81.775977 283.143418 
L 81.775977 282.616732 
L 83.830028 282.616732 
L 83.830028 279.456615 
L 88.846997 279.456615 
L 88.846997 278.929929 
L 90.242884 278.929929 
L 90.242884 276.823185 
L 92.73846 276.823185 
L 92.73846 274.189754 
L 94.921215 274.189754 
L 94.921215 272.609696 
L 95.918017 272.609696 
L 95.918017 271.556324 
L 98.606294 271.556324 
L 98.606294 269.976266 
L 99.41757 269.976266 
L 99.41757 269.449579 
L 100.934985 269.449579 
L 100.934985 265.762777 
L 102.989037 265.762777 
L 102.989037 264.182719 
L 104.23523 264.182719 
L 104.23523 263.129347 
L 108.483824 263.129347 
L 108.483824 262.60266 
L 110.694282 262.60266 
L 110.694282 261.549288 
L 114.080224 261.549288 
L 114.080224 260.495916 
L 115.711251 260.495916 
L 115.711251 258.389172 
L 118.838828 258.389172 
L 118.838828 256.809114 
L 120.093994 256.809114 
L 120.093994 256.282427 
L 120.33454 256.282427 
L 120.33454 255.755741 
L 120.571812 255.755741 
L 120.571812 254.702369 
L 121.931406 254.702369 
L 121.931406 252.068939 
L 122.782271 252.068939 
L 122.782271 251.015567 
L 125.822869 251.015567 
L 125.822869 250.488881 
L 127.954256 250.488881 
L 127.954256 248.908822 
L 128.856489 248.908822 
L 128.856489 248.382136 
L 132.777237 248.382136 
L 132.777237 247.85545 
L 133.124876 247.85545 
L 133.124876 247.328764 
L 134.870259 247.328764 
L 134.870259 246.802078 
L 135.280614 246.802078 
L 135.280614 245.748706 
L 138.84457 245.748706 
L 138.84457 244.695334 
L 143.337167 244.695334 
L 143.337167 244.168648 
L 143.590833 244.168648 
L 143.590833 243.115275 
L 145.497361 243.115275 
L 145.497361 242.061903 
L 146.107383 242.061903 
L 146.216039 240.481845 
L 148.733265 240.481845 
L 148.733265 239.955159 
L 151.461678 239.955159 
L 151.461678 239.428473 
L 153.466662 239.428473 
L 153.466662 238.375101 
L 154.439623 238.375101 
L 154.439623 237.848415 
L 155.329071 237.848415 
L 155.329071 237.321729 
L 157.781772 237.321729 
L 157.781772 235.74167 
L 158.304027 235.74167 
L 158.412011 233.10824 
L 161.306672 233.10824 
L 161.306672 229.421437 
L 163.649606 229.421437 
L 163.649606 226.261321 
L 163.965615 226.261321 
L 163.965615 225.734635 
L 168.46108 225.734635 
L 168.46108 223.627891 
L 169.157854 223.627891 
L 169.157854 223.101204 
L 169.939378 223.101204 
L 170.022555 220.467774 
L 171.095254 220.467774 
L 171.095254 219.941088 
L 171.289242 219.941088 
L 171.289242 216.254285 
L 172.66137 216.254285 
L 172.66137 215.200913 
L 174.196608 215.200913 
L 174.196608 213.620855 
L 174.562857 213.620855 
L 174.562857 213.094169 
L 174.921573 213.094169 
L 174.921573 211.514111 
L 177.579988 211.514111 
L 177.579988 210.987425 
L 181.943792 210.987425 
L 181.943792 207.827308 
L 185.339586 207.827308 
L 185.339586 206.773936 
L 192.130645 206.773936 
L 192.130645 202.560447 
L 192.599203 202.560447 
L 192.599203 200.980389 
L 201.663818 200.980389 
L 201.684087 199.927017 
L 201.863229 199.927017 
L 201.863229 198.873645 
L 211.008421 198.873645 
L 211.008421 197.293586 
L 213.545529 197.293586 
L 213.545529 196.240214 
L 214.81608 196.240214 
L 214.81608 194.13347 
L 217.557881 194.13347 
L 217.557881 193.080098 
L 219.398372 193.080098 
L 219.398372 192.553412 
L 220.335345 192.553412 
L 220.335345 191.50004 
L 221.565443 191.50004 
L 221.565443 190.973354 
L 223.003196 190.973354 
L 223.003196 190.446667 
L 225.1948 190.446667 
L 225.1948 189.919981 
L 232.093887 189.919981 
L 232.093887 189.393295 
L 233.68256 189.393295 
L 233.68256 187.813237 
L 234.39678 187.813237 
L 234.39678 186.759865 
L 236.668211 186.759865 
L 236.668211 185.706493 
L 237.390312 185.706493 
L 237.390312 185.179807 
L 239.449495 185.179807 
L 239.449495 184.126434 
L 239.882149 184.126434 
L 239.882149 183.599748 
L 241.07106 183.599748 
L 241.07106 182.546376 
L 246.299441 182.546376 
L 246.299441 180.966318 
L 246.794985 180.966318 
L 246.794985 179.38626 
L 253.879496 179.38626 
L 253.879496 178.859574 
L 254.100853 178.859574 
L 254.100853 177.806202 
L 255.756327 177.806202 
L 255.756327 177.279515 
L 257.960731 177.279515 
L 258.050695 174.119399 
L 259.314161 174.119399 
L 259.314161 173.066027 
L 261.379447 173.066027 
L 261.379447 172.539341 
L 262.317855 172.539341 
L 262.317855 172.012655 
L 266.137565 172.012655 
L 266.137565 169.90591 
L 268.255813 169.90591 
L 268.255813 169.379224 
L 271.302705 169.379224 
L 271.302705 168.325852 
L 271.92215 168.325852 
L 271.92215 161.478933 
L 273.591417 161.478933 
L 273.591417 159.898875 
L 275.220709 159.898875 
L 275.220709 159.372189 
L 277.374879 159.372189 
L 277.374879 157.79213 
L 278.026531 157.79213 
L 278.026531 157.265444 
L 279.743484 157.265444 
L 279.743484 156.738758 
L 284.462173 156.738758 
L 284.462173 155.685386 
L 285.717738 155.685386 
L 285.717738 154.632014 
L 288.425515 154.632014 
L 288.425515 153.578642 
L 288.719017 153.578642 
L 288.719017 153.051956 
L 289.517917 153.051956 
L 289.517917 151.998584 
L 290.67496 151.998584 
L 290.67496 151.471897 
L 292.819337 151.471897 
L 292.819337 148.311781 
L 293.212032 148.311781 
L 293.212032 147.785095 
L 296.023586 147.785095 
L 296.023586 147.258409 
L 296.54207 147.258409 
L 296.54207 146.731723 
L 298.0917 146.731723 
L 298.0917 143.571606 
L 299.167351 143.571606 
L 299.167351 142.518234 
L 300.165287 142.518234 
L 300.165287 140.938176 
L 300.490037 140.938176 
L 300.490037 140.41149 
L 301.061402 140.41149 
L 301.061402 139.884804 
L 301.963576 139.884804 
L 301.963576 134.617943 
L 306.395157 134.617943 
L 306.395157 134.091257 
L 306.689339 134.091257 
L 306.689339 133.037885 
L 307.996866 133.037885 
L 307.996866 130.93114 
L 309.653693 130.93114 
L 309.653693 130.404454 
L 310.401517 130.404454 
L 310.401517 128.824396 
L 310.940838 128.824396 
L 310.940838 128.29771 
L 311.456018 128.29771 
L 311.456018 126.190966 
L 312.420303 126.190966 
L 312.420303 122.504163 
L 312.591231 122.504163 
L 312.591231 121.977477 
L 317.545858 121.977477 
L 317.545858 119.870733 
L 318.252975 119.870733 
L 318.252975 119.344047 
L 318.911804 119.344047 
L 318.911804 118.290674 
L 322.599371 118.290674 
L 322.599371 115.657244 
L 323.13128 115.657244 
L 323.13128 114.603872 
L 323.631627 114.603872 
L 323.631627 111.443755 
L 325.597388 111.443755 
L 325.657911 109.863697 
L 326.512724 109.863697 
L 326.512724 109.337011 
L 327.342342 109.337011 
L 327.342342 106.176895 
L 329.706859 106.176895 
L 329.706859 105.650209 
L 330.40035 105.650209 
L 330.40035 103.543464 
L 332.405542 103.543464 
L 332.405542 102.490092 
L 333.001286 102.490092 
L 333.001286 99.329976 
L 334.742034 99.329976 
L 334.742034 98.803289 
L 335.264183 98.803289 
L 335.264183 97.749917 
L 336.802149 97.749917 
L 336.802149 97.223231 
L 337.266889 97.223231 
L 337.266889 94.589801 
L 338.644411 94.589801 
L 338.644411 94.063115 
L 338.688 94.063115 
" style="fill:none;stroke:#bebebe;stroke-linecap:square;stroke-width:1.5;"/>
   </g>
   <g id="line2d_52">
    <defs>
     <path d="M 0 0 
L -6 -0 
M 0 0 
L 3 4.8 
M 0 0 
L 3 -4.8 
" id="m42a5f6464d" style="stroke:#bebebe;stroke-width:1.5;"/>
    </defs>
    <g>
     <use style="fill-opacity:0;stroke:#bebebe;stroke-width:1.5;" x="125.822869" xlink:href="#m42a5f6464d" y="250.488881"/>
     <use style="fill-opacity:0;stroke:#bebebe;stroke-width:1.5;" x="181.943792" xlink:href="#m42a5f6464d" y="210.987425"/>
     <use style="fill-opacity:0;stroke:#bebebe;stroke-width:1.5;" x="266.137565" xlink:href="#m42a5f6464d" y="172.012655"/>
     <use style="fill-opacity:0;stroke:#bebebe;stroke-width:1.5;" x="310.401517" xlink:href="#m42a5f6464d" y="130.404454"/>
     <use style="fill-opacity:0;stroke:#bebebe;stroke-width:1.5;" x="338.644411" xlink:href="#m42a5f6464d" y="94.063115"/>
     <use style="fill-opacity:0;stroke:#bebebe;stroke-width:1.5;" x="338.688" xlink:href="#m42a5f6464d" y="94.063115"/>
    </g>
   </g>
   <g id="line2d_53">
    <path style="fill:none;stroke:#bebebe;stroke-linecap:square;stroke-width:1.5;"/>
    <g/>
   </g>
   <g id="line2d_54">
    <path clip-path="url(#p546eabfa18)" d="M 298.532571 143.571606 
" style="fill:none;stroke:#bebebe;stroke-linecap:square;stroke-width:1.5;"/>
    <defs>
     <path d="M -12 12 
L 12 -12 
M -12 -12 
L 12 12 
" id="mf9cd3a14e7" style="stroke:#bebebe;"/>
    </defs>
    <g clip-path="url(#p546eabfa18)">
     <use style="fill:#bebebe;stroke:#bebebe;" x="298.532571" xlink:href="#mf9cd3a14e7" y="143.571606"/>
    </g>
   </g>
   <g id="line2d_55">
    <defs>
     <path d="M 0 1.5 
C 0.397805 1.5 0.77937 1.341951 1.06066 1.06066 
C 1.341951 0.77937 1.5 0.397805 1.5 0 
C 1.5 -0.397805 1.341951 -0.77937 1.06066 -1.06066 
C 0.77937 -1.341951 0.397805 -1.5 0 -1.5 
C -0.397805 -1.5 -0.77937 -1.341951 -1.06066 -1.06066 
C -1.341951 -0.77937 -1.5 -0.397805 -1.5 0 
C -1.5 0.397805 -1.341951 0.77937 -1.06066 1.06066 
C -0.77937 1.341951 -0.397805 1.5 0 1.5 
z
" id="mc04fd01aa7" style="stroke:#6495ed;"/>
    </defs>
    <g>
     <use style="fill:#6495ed;stroke:#6495ed;" x="166.476842" xlink:href="#mc04fd01aa7" y="30.334099"/>
     <use style="fill:#6495ed;stroke:#6495ed;" x="166.476842" xlink:href="#mc04fd01aa7" y="30.334099"/>
    </g>
   </g>
   <g id="line2d_56">
    <path d="M 45.512012 298.944 
L 45.512012 296.31057 
L 81.775977 296.31057 
L 81.775977 294.730511 
L 88.846997 294.730511 
L 88.846997 291.570395 
L 91.535274 291.570395 
L 91.535274 291.043709 
L 92.73846 291.043709 
L 92.73846 290.517023 
L 93.863965 290.517023 
L 93.863965 286.83022 
L 96.86091 286.83022 
L 96.86091 285.776848 
L 98.606294 285.776848 
L 98.606294 280.509987 
L 99.41757 280.509987 
L 99.41757 279.983301 
L 100.192776 279.983301 
L 100.192776 279.456615 
L 101.646892 279.456615 
L 101.646892 276.823185 
L 102.989037 276.823185 
L 102.989037 276.296499 
L 103.623262 276.296499 
L 103.623262 274.71644 
L 104.826449 274.71644 
L 104.826449 271.029638 
L 105.951954 271.029638 
L 105.951954 268.922893 
L 107.009204 268.922893 
L 107.009204 268.396207 
L 107.514726 268.396207 
L 107.514726 266.289463 
L 108.006005 266.289463 
L 108.006005 264.709405 
L 109.401893 264.709405 
L 109.401893 264.182719 
L 110.274038 264.182719 
L 110.274038 263.656033 
L 111.505558 263.656033 
L 111.505558 262.075974 
L 111.897469 262.075974 
L 111.897469 261.022602 
L 112.655818 261.022602 
L 112.655818 257.862486 
L 113.022974 257.862486 
L 113.022974 256.809114 
L 113.382559 256.809114 
L 113.382559 256.282427 
L 114.418861 256.282427 
L 114.418861 255.755741 
L 114.751048 255.755741 
L 114.751048 254.175683 
L 115.711251 254.175683 
L 115.711251 253.648997 
L 116.323218 253.648997 
L 116.323218 251.015567 
L 116.621333 251.015567 
L 116.621333 248.908822 
L 116.914437 248.908822 
L 116.914437 247.85545 
L 117.486268 247.85545 
L 117.486268 245.748706 
L 117.765302 245.748706 
L 117.765302 245.22202 
L 118.039942 245.22202 
L 118.039942 243.641962 
L 118.310324 243.641962 
L 118.310324 243.115275 
L 119.097192 243.115275 
L 119.097192 242.061903 
L 119.351785 242.061903 
L 119.351785 239.955159 
L 119.602714 239.955159 
L 119.602714 238.901787 
L 120.33454 238.901787 
L 120.33454 236.268356 
L 120.571812 236.268356 
L 120.571812 235.74167 
L 120.8059 235.74167 
L 120.8059 234.688298 
L 121.036887 234.688298 
L 121.036887 234.161612 
L 121.489881 234.161612 
L 121.489881 233.634926 
L 121.712041 233.634926 
L 121.712041 233.10824 
L 121.931406 233.10824 
L 121.931406 229.421437 
L 122.148045 229.421437 
L 122.148045 228.368065 
L 122.362027 228.368065 
L 122.362027 227.841379 
L 122.573415 227.841379 
L 122.573415 225.734635 
L 122.988655 225.734635 
L 122.988655 220.467774 
L 123.192626 220.467774 
L 123.192626 213.620855 
L 123.394238 213.620855 
L 123.394238 210.460738 
L 123.790603 210.460738 
L 123.790603 205.193878 
L 124.178158 205.193878 
L 124.178158 201.507075 
L 124.368753 201.507075 
L 124.368753 200.980389 
L 124.743806 200.980389 
L 124.743806 199.927017 
L 125.470548 199.927017 
L 125.470548 198.873645 
L 125.647598 198.873645 
L 125.647598 198.346959 
L 125.822869 198.346959 
L 125.822869 195.713528 
L 125.996395 195.713528 
L 125.996395 195.186842 
L 126.168212 195.186842 
L 126.168212 190.973354 
L 126.338353 190.973354 
L 126.338353 187.813237 
L 126.50685 187.813237 
L 126.50685 187.286551 
L 126.673734 187.286551 
L 126.673734 186.759865 
L 126.839037 186.759865 
L 126.839037 186.233179 
L 127.002787 186.233179 
L 127.002787 184.653121 
L 127.165014 184.653121 
L 127.165014 183.599748 
L 127.325746 183.599748 
L 127.325746 180.439632 
L 127.48501 180.439632 
L 127.48501 179.38626 
L 127.642832 179.38626 
L 127.642832 177.806202 
L 127.954256 177.806202 
L 127.954256 176.226143 
L 128.260216 176.226143 
L 128.260216 175.172771 
L 128.411207 175.172771 
L 128.411207 172.012655 
L 128.560901 172.012655 
L 128.560901 170.959282 
L 128.709321 170.959282 
L 128.709321 169.90591 
L 128.856489 169.90591 
L 128.856489 169.379224 
L 129.147151 169.379224 
L 129.147151 166.745794 
L 129.290685 166.745794 
L 129.290685 165.165736 
L 129.433047 165.165736 
L 129.433047 164.63905 
L 129.714332 164.63905 
L 129.714332 164.112363 
L 129.853291 164.112363 
L 129.853291 163.585677 
L 130.263646 163.585677 
L 130.263646 163.058991 
L 130.398313 163.058991 
L 130.398313 160.425561 
L 130.664567 160.425561 
L 130.664567 159.898875 
L 130.796184 159.898875 
L 130.796184 159.372189 
L 130.926816 159.372189 
L 130.926816 157.265444 
L 131.056477 157.265444 
L 131.056477 154.105328 
L 131.185181 154.105328 
L 131.185181 153.578642 
L 131.312942 153.578642 
L 131.312942 153.051956 
L 131.439773 153.051956 
L 131.439773 151.998584 
L 131.565689 151.998584 
L 131.565689 148.838467 
L 131.814826 148.838467 
L 131.814826 146.731723 
L 131.938072 146.731723 
L 131.938072 145.678351 
L 132.060454 145.678351 
L 132.060454 144.098292 
L 132.181982 144.098292 
L 132.181982 142.518234 
L 132.30267 142.518234 
L 132.30267 141.991548 
L 132.422528 141.991548 
L 132.422528 140.41149 
L 132.777237 140.41149 
L 132.777237 139.884804 
L 132.893889 139.884804 
L 132.893889 139.358118 
L 133.239232 139.358118 
L 133.239232 138.304745 
L 133.352844 138.304745 
L 133.352844 136.724687 
L 133.46572 136.724687 
L 133.46572 135.144629 
L 133.57787 135.144629 
L 133.57787 133.564571 
L 133.800029 133.564571 
L 133.910056 131.457826 
L 134.019394 131.457826 
L 134.12805 129.351082 
L 134.236034 129.351082 
L 134.343353 125.66428 
L 134.450015 125.66428 
L 134.55603 121.977477 
L 134.766144 121.977477 
L 134.870259 119.870733 
L 134.973757 119.870733 
L 135.076644 117.763988 
L 135.178927 117.763988 
L 135.178927 117.237302 
L 135.381712 117.237302 
L 135.381712 116.18393 
L 135.681535 116.18393 
L 135.780341 110.917069 
L 135.97629 110.917069 
L 136.073445 109.863697 
L 136.170062 109.863697 
L 136.170062 107.230267 
L 136.361705 107.230267 
L 136.361705 106.703581 
L 136.551264 106.703581 
L 136.645276 100.383348 
L 136.831795 100.383348 
L 136.924311 99.329976 
L 137.198951 99.329976 
L 137.289545 96.696545 
L 137.37967 96.696545 
L 137.37967 95.116487 
L 137.558536 95.116487 
L 137.647286 94.063115 
L 137.735587 94.063115 
L 137.735587 93.009743 
L 137.910857 93.009743 
L 137.997836 91.429684 
L 138.084384 91.429684 
L 138.084384 87.742882 
L 138.510793 87.742882 
L 138.510793 87.216196 
L 138.761723 87.216196 
L 138.84457 85.109451 
L 138.927025 85.109451 
L 138.927025 84.582765 
L 139.253002 84.582765 
L 139.253002 83.002707 
L 139.493548 83.002707 
L 139.572998 81.422649 
L 139.8092 81.422649 
L 139.8092 80.369277 
L 139.964909 80.369277 
L 140.042245 78.262532 
L 140.11924 78.262532 
L 140.195896 77.20916 
L 140.348205 77.20916 
L 140.423864 75.629102 
L 140.723258 75.629102 
L 140.723258 75.102416 
L 140.871049 75.102416 
L 140.944478 73.522358 
L 141.090414 73.522358 
L 141.090414 72.995672 
L 141.235139 72.995672 
L 141.235139 69.308869 
L 141.662245 69.308869 
L 141.732423 67.202125 
L 142.010346 67.202125 
L 142.07914 64.568694 
L 142.419098 64.568694 
L 142.419098 61.935264 
L 142.686372 61.935264 
L 142.686372 61.408578 
L 142.949611 61.408578 
L 142.949611 60.881892 
L 143.208936 60.881892 
L 143.273169 55.615031 
L 143.464461 55.615031 
L 143.464461 52.9816 
L 143.590833 52.9816 
L 143.653678 51.928228 
L 143.840863 51.928228 
L 143.840863 48.768112 
L 144.209312 48.768112 
L 144.209312 48.241426 
L 144.390658 48.241426 
L 144.390658 47.188054 
L 144.688773 47.188054 
L 144.747789 45.081309 
L 144.865226 45.081309 
L 144.923649 42.974565 
L 145.097753 42.974565 
L 145.097753 41.921193 
L 145.327221 41.921193 
L 145.327221 41.394507 
L 145.440832 41.394507 
L 145.440832 40.867821 
L 145.665858 40.867821 
L 145.665858 40.341135 
L 145.888018 40.341135 
L 145.888018 39.814448 
L 146.161795 39.814448 
L 146.161795 38.761076 
L 146.644018 38.761076 
L 146.644018 38.23439 
L 146.854132 38.23439 
L 146.854132 37.181018 
L 149.998846 37.181018 
L 149.998846 36.654332 
L 150.301393 36.654332 
L 150.301393 36.127646 
L 151.097081 36.127646 
L 151.097081 35.074274 
L 151.340991 35.074274 
L 151.340991 34.547588 
L 160.750792 34.547588 
L 160.750792 34.020902 
L 161.100288 34.020902 
L 161.100288 32.440843 
L 161.215247 32.440843 
L 161.306672 31.387471 
L 166.476842 31.387471 
L 166.476842 30.334099 
L 338.688 30.334099 
L 338.688 30.334099 
" style="fill:none;stroke:#6495ed;stroke-linecap:square;stroke-width:1.5;"/>
   </g>
   <g id="line2d_57">
    <defs>
     <path d="M -0 6 
L 6 -6 
L -6 -6 
z
" id="me04c8b4f38" style="stroke:#6495ed;stroke-linejoin:miter;stroke-width:1.5;"/>
    </defs>
    <g>
     <use style="fill-opacity:0;stroke:#6495ed;stroke-linejoin:miter;stroke-width:1.5;" x="111.897469" xlink:href="#me04c8b4f38" y="261.022602"/>
     <use style="fill-opacity:0;stroke:#6495ed;stroke-linejoin:miter;stroke-width:1.5;" x="136.551264" xlink:href="#me04c8b4f38" y="106.703581"/>
     <use style="fill-opacity:0;stroke:#6495ed;stroke-linejoin:miter;stroke-width:1.5;" x="166.476842" xlink:href="#me04c8b4f38" y="31.387471"/>
     <use style="fill-opacity:0;stroke:#6495ed;stroke-linejoin:miter;stroke-width:1.5;" x="166.476842" xlink:href="#me04c8b4f38" y="30.334099"/>
     <use style="fill-opacity:0;stroke:#6495ed;stroke-linejoin:miter;stroke-width:1.5;" x="166.476842" xlink:href="#me04c8b4f38" y="30.334099"/>
     <use style="fill-opacity:0;stroke:#6495ed;stroke-linejoin:miter;stroke-width:1.5;" x="338.688" xlink:href="#me04c8b4f38" y="30.334099"/>
    </g>
   </g>
   <g id="line2d_58">
    <path style="fill:none;stroke:#6495ed;stroke-linecap:square;stroke-width:1.5;"/>
    <g/>
   </g>
   <g id="line2d_59">
    <path d="M 338.688 94.063115 
L 369.60768 293.571802 
" style="fill:none;stroke:#bebebe;stroke-linecap:square;stroke-width:1.5;"/>
    <g>
     <use style="fill-opacity:0;stroke:#bebebe;stroke-width:1.5;" x="338.688" xlink:href="#m42a5f6464d" y="94.063115"/>
     <use style="fill-opacity:0;stroke:#bebebe;stroke-width:1.5;" x="369.60768" xlink:href="#m42a5f6464d" y="293.571802"/>
    </g>
   </g>
   <g id="line2d_60">
    <path d="M 338.688 30.334099 
L 369.60768 229.105426 
" style="fill:none;stroke:#6495ed;stroke-linecap:square;stroke-width:1.5;"/>
    <g>
     <use style="fill-opacity:0;stroke:#6495ed;stroke-linejoin:miter;stroke-width:1.5;" x="338.688" xlink:href="#me04c8b4f38" y="30.334099"/>
     <use style="fill-opacity:0;stroke:#6495ed;stroke-linejoin:miter;stroke-width:1.5;" x="369.60768" xlink:href="#me04c8b4f38" y="229.105426"/>
    </g>
   </g>
   <g id="line2d_61">
    <path d="M 338.688 30.334099 
L 369.60768 164.63905 
" style="fill:none;stroke:#000080;stroke-linecap:square;stroke-width:1.5;"/>
    <g>
     <use style="fill-opacity:0;stroke:#000080;stroke-width:1.5;" x="338.688" xlink:href="#medd34ee9f3" y="30.334099"/>
     <use style="fill-opacity:0;stroke:#000080;stroke-width:1.5;" x="369.60768" xlink:href="#medd34ee9f3" y="164.63905"/>
    </g>
   </g>
   <g id="line2d_62">
    <path d="M 338.688 30.334099 
L 369.60768 100.172673 
" style="fill:none;stroke:#ff0000;stroke-linecap:square;stroke-width:1.5;"/>
    <g>
     <use style="fill-opacity:0;stroke:#ff0000;stroke-linejoin:miter;stroke-width:1.5;" x="338.688" xlink:href="#mc1f6476f62" y="30.334099"/>
     <use style="fill-opacity:0;stroke:#ff0000;stroke-linejoin:miter;stroke-width:1.5;" x="369.60768" xlink:href="#mc1f6476f62" y="100.172673"/>
    </g>
   </g>
   <g id="line2d_63">
    <path d="M 338.688 298.944 
L 338.688 30.334099 
" style="fill:none;stroke:#000000;stroke-linecap:square;stroke-width:1.5;"/>
   </g>
   <g id="patch_3">
    <path d="M 57.6 298.944 
L 57.6 27.648 
" style="fill:none;stroke:#000000;stroke-linecap:square;stroke-linejoin:miter;stroke-width:0.8;"/>
   </g>
   <g id="patch_4">
    <path d="M 338.688 298.944 
L 338.688 27.648 
" style="fill:none;stroke:#000000;stroke-linecap:square;stroke-linejoin:miter;stroke-width:0.8;"/>
   </g>
   <g id="patch_5">
    <path d="M 57.6 298.944 
L 338.688 298.944 
" style="fill:none;stroke:#000000;stroke-linecap:square;stroke-linejoin:miter;stroke-width:0.8;"/>
   </g>
   <g id="patch_6">
    <path d="M 57.6 27.648 
L 338.688 27.648 
" style="fill:none;stroke:#000000;stroke-linecap:square;stroke-linejoin:miter;stroke-width:0.8;"/>
   </g>
   <g id="text_13">
    <!-- RANDOMSEA -->
    <defs>
     <path d="M 44.390625 34.1875 
Q 47.5625 33.109375 50.5625 29.59375 
Q 53.5625 26.078125 56.59375 19.921875 
L 66.609375 0 
L 56 0 
L 46.6875 18.703125 
Q 43.0625 26.03125 39.671875 28.421875 
Q 36.28125 30.8125 30.421875 30.8125 
L 19.671875 30.8125 
L 19.671875 0 
L 9.8125 0 
L 9.8125 72.90625 
L 32.078125 72.90625 
Q 44.578125 72.90625 50.734375 67.671875 
Q 56.890625 62.453125 56.890625 51.90625 
Q 56.890625 45.015625 53.6875 40.46875 
Q 50.484375 35.9375 44.390625 34.1875 
z
M 19.671875 64.796875 
L 19.671875 38.921875 
L 32.078125 38.921875 
Q 39.203125 38.921875 42.84375 42.21875 
Q 46.484375 45.515625 46.484375 51.90625 
Q 46.484375 58.296875 42.84375 61.546875 
Q 39.203125 64.796875 32.078125 64.796875 
z
" id="DejaVuSans-82"/>
     <path d="M 34.1875 63.1875 
L 20.796875 26.90625 
L 47.609375 26.90625 
z
M 28.609375 72.90625 
L 39.796875 72.90625 
L 67.578125 0 
L 57.328125 0 
L 50.6875 18.703125 
L 17.828125 18.703125 
L 11.1875 0 
L 0.78125 0 
z
" id="DejaVuSans-65"/>
     <path d="M 9.8125 72.90625 
L 23.09375 72.90625 
L 55.421875 11.921875 
L 55.421875 72.90625 
L 64.984375 72.90625 
L 64.984375 0 
L 51.703125 0 
L 19.390625 60.984375 
L 19.390625 0 
L 9.8125 0 
z
" id="DejaVuSans-78"/>
     <path d="M 19.671875 64.796875 
L 19.671875 8.109375 
L 31.59375 8.109375 
Q 46.6875 8.109375 53.6875 14.9375 
Q 60.6875 21.78125 60.6875 36.53125 
Q 60.6875 51.171875 53.6875 57.984375 
Q 46.6875 64.796875 31.59375 64.796875 
z
M 9.8125 72.90625 
L 30.078125 72.90625 
Q 51.265625 72.90625 61.171875 64.09375 
Q 71.09375 55.28125 71.09375 36.53125 
Q 71.09375 17.671875 61.125 8.828125 
Q 51.171875 0 30.078125 0 
L 9.8125 0 
z
" id="DejaVuSans-68"/>
     <path d="M 39.40625 66.21875 
Q 28.65625 66.21875 22.328125 58.203125 
Q 16.015625 50.203125 16.015625 36.375 
Q 16.015625 22.609375 22.328125 14.59375 
Q 28.65625 6.59375 39.40625 6.59375 
Q 50.140625 6.59375 56.421875 14.59375 
Q 62.703125 22.609375 62.703125 36.375 
Q 62.703125 50.203125 56.421875 58.203125 
Q 50.140625 66.21875 39.40625 66.21875 
z
M 39.40625 74.21875 
Q 54.734375 74.21875 63.90625 63.9375 
Q 73.09375 53.65625 73.09375 36.375 
Q 73.09375 19.140625 63.90625 8.859375 
Q 54.734375 -1.421875 39.40625 -1.421875 
Q 24.03125 -1.421875 14.8125 8.828125 
Q 5.609375 19.09375 5.609375 36.375 
Q 5.609375 53.65625 14.8125 63.9375 
Q 24.03125 74.21875 39.40625 74.21875 
z
" id="DejaVuSans-79"/>
     <path d="M 9.8125 72.90625 
L 24.515625 72.90625 
L 43.109375 23.296875 
L 61.8125 72.90625 
L 76.515625 72.90625 
L 76.515625 0 
L 66.890625 0 
L 66.890625 64.015625 
L 48.09375 14.015625 
L 38.1875 14.015625 
L 19.390625 64.015625 
L 19.390625 0 
L 9.8125 0 
z
" id="DejaVuSans-77"/>
     <path d="M 53.515625 70.515625 
L 53.515625 60.890625 
Q 47.90625 63.578125 42.921875 64.890625 
Q 37.9375 66.21875 33.296875 66.21875 
Q 25.25 66.21875 20.875 63.09375 
Q 16.5 59.96875 16.5 54.203125 
Q 16.5 49.359375 19.40625 46.890625 
Q 22.3125 44.4375 30.421875 42.921875 
L 36.375 41.703125 
Q 47.40625 39.59375 52.65625 34.296875 
Q 57.90625 29 57.90625 20.125 
Q 57.90625 9.515625 50.796875 4.046875 
Q 43.703125 -1.421875 29.984375 -1.421875 
Q 24.8125 -1.421875 18.96875 -0.25 
Q 13.140625 0.921875 6.890625 3.21875 
L 6.890625 13.375 
Q 12.890625 10.015625 18.65625 8.296875 
Q 24.421875 6.59375 29.984375 6.59375 
Q 38.421875 6.59375 43.015625 9.90625 
Q 47.609375 13.234375 47.609375 19.390625 
Q 47.609375 24.75 44.3125 27.78125 
Q 41.015625 30.8125 33.5 32.328125 
L 27.484375 33.5 
Q 16.453125 35.6875 11.515625 40.375 
Q 6.59375 45.0625 6.59375 53.421875 
Q 6.59375 63.09375 13.40625 68.65625 
Q 20.21875 74.21875 32.171875 74.21875 
Q 37.3125 74.21875 42.625 73.28125 
Q 47.953125 72.359375 53.515625 70.515625 
z
" id="DejaVuSans-83"/>
     <path d="M 9.8125 72.90625 
L 55.90625 72.90625 
L 55.90625 64.59375 
L 19.671875 64.59375 
L 19.671875 43.015625 
L 54.390625 43.015625 
L 54.390625 34.71875 
L 19.671875 34.71875 
L 19.671875 8.296875 
L 56.78125 8.296875 
L 56.78125 0 
L 9.8125 0 
z
" id="DejaVuSans-69"/>
    </defs>
    <g transform="translate(375.22944 298.262739)scale(0.17 -0.17)">
     <use xlink:href="#DejaVuSans-82"/>
     <use x="69.419922" xlink:href="#DejaVuSans-65"/>
     <use x="137.828125" xlink:href="#DejaVuSans-78"/>
     <use x="212.632812" xlink:href="#DejaVuSans-68"/>
     <use x="289.634766" xlink:href="#DejaVuSans-79"/>
     <use x="368.345703" xlink:href="#DejaVuSans-77"/>
     <use x="454.625" xlink:href="#DejaVuSans-83"/>
     <use x="518.101562" xlink:href="#DejaVuSans-69"/>
     <use x="581.285156" xlink:href="#DejaVuSans-65"/>
    </g>
   </g>
   <g id="text_14">
    <!-- SLSQP-11  -->
    <defs>
     <path d="M 9.8125 72.90625 
L 19.671875 72.90625 
L 19.671875 8.296875 
L 55.171875 8.296875 
L 55.171875 0 
L 9.8125 0 
z
" id="DejaVuSans-76"/>
     <path d="M 39.40625 66.21875 
Q 28.65625 66.21875 22.328125 58.203125 
Q 16.015625 50.203125 16.015625 36.375 
Q 16.015625 22.609375 22.328125 14.59375 
Q 28.65625 6.59375 39.40625 6.59375 
Q 50.140625 6.59375 56.421875 14.59375 
Q 62.703125 22.609375 62.703125 36.375 
Q 62.703125 50.203125 56.421875 58.203125 
Q 50.140625 66.21875 39.40625 66.21875 
z
M 53.21875 1.3125 
L 66.21875 -12.890625 
L 54.296875 -12.890625 
L 43.5 -1.21875 
Q 41.890625 -1.3125 41.03125 -1.359375 
Q 40.1875 -1.421875 39.40625 -1.421875 
Q 24.03125 -1.421875 14.8125 8.859375 
Q 5.609375 19.140625 5.609375 36.375 
Q 5.609375 53.65625 14.8125 63.9375 
Q 24.03125 74.21875 39.40625 74.21875 
Q 54.734375 74.21875 63.90625 63.9375 
Q 73.09375 53.65625 73.09375 36.375 
Q 73.09375 23.6875 67.984375 14.640625 
Q 62.890625 5.609375 53.21875 1.3125 
z
" id="DejaVuSans-81"/>
     <path d="M 19.671875 64.796875 
L 19.671875 37.40625 
L 32.078125 37.40625 
Q 38.96875 37.40625 42.71875 40.96875 
Q 46.484375 44.53125 46.484375 51.125 
Q 46.484375 57.671875 42.71875 61.234375 
Q 38.96875 64.796875 32.078125 64.796875 
z
M 9.8125 72.90625 
L 32.078125 72.90625 
Q 44.34375 72.90625 50.609375 67.359375 
Q 56.890625 61.8125 56.890625 51.125 
Q 56.890625 40.328125 50.609375 34.8125 
Q 44.34375 29.296875 32.078125 29.296875 
L 19.671875 29.296875 
L 19.671875 0 
L 9.8125 0 
z
" id="DejaVuSans-80"/>
    </defs>
    <g transform="translate(375.22944 233.796363)scale(0.17 -0.17)">
     <use xlink:href="#DejaVuSans-83"/>
     <use x="63.476562" xlink:href="#DejaVuSans-76"/>
     <use x="119.189453" xlink:href="#DejaVuSans-83"/>
     <use x="182.666016" xlink:href="#DejaVuSans-81"/>
     <use x="261.376953" xlink:href="#DejaVuSans-80"/>
     <use x="321.648438" xlink:href="#DejaVuSans-45"/>
     <use x="357.732422" xlink:href="#DejaVuSans-49"/>
     <use x="421.355469" xlink:href="#DejaVuSans-49"/>
     <use x="484.978516" xlink:href="#DejaVuSans-32"/>
    </g>
   </g>
   <g id="text_15">
    <!-- CMA-ES  2 -->
    <defs>
     <path d="M 64.40625 67.28125 
L 64.40625 56.890625 
Q 59.421875 61.53125 53.78125 63.8125 
Q 48.140625 66.109375 41.796875 66.109375 
Q 29.296875 66.109375 22.65625 58.46875 
Q 16.015625 50.828125 16.015625 36.375 
Q 16.015625 21.96875 22.65625 14.328125 
Q 29.296875 6.6875 41.796875 6.6875 
Q 48.140625 6.6875 53.78125 8.984375 
Q 59.421875 11.28125 64.40625 15.921875 
L 64.40625 5.609375 
Q 59.234375 2.09375 53.4375 0.328125 
Q 47.65625 -1.421875 41.21875 -1.421875 
Q 24.65625 -1.421875 15.125 8.703125 
Q 5.609375 18.84375 5.609375 36.375 
Q 5.609375 53.953125 15.125 64.078125 
Q 24.65625 74.21875 41.21875 74.21875 
Q 47.75 74.21875 53.53125 72.484375 
Q 59.328125 70.75 64.40625 67.28125 
z
" id="DejaVuSans-67"/>
    </defs>
    <g transform="translate(375.22944 169.329987)scale(0.17 -0.17)">
     <use xlink:href="#DejaVuSans-67"/>
     <use x="69.824219" xlink:href="#DejaVuSans-77"/>
     <use x="156.103516" xlink:href="#DejaVuSans-65"/>
     <use x="224.480469" xlink:href="#DejaVuSans-45"/>
     <use x="260.564453" xlink:href="#DejaVuSans-69"/>
     <use x="323.748047" xlink:href="#DejaVuSans-83"/>
     <use x="387.224609" xlink:href="#DejaVuSans-32"/>
     <use x="419.011719" xlink:href="#DejaVuSans-32"/>
     <use x="450.798828" xlink:href="#DejaVuSans-50"/>
    </g>
   </g>
   <g id="text_16">
    <!-- lq-CMA-ES -->
    <defs>
     <path d="M 14.796875 27.296875 
Q 14.796875 17.390625 18.875 11.75 
Q 22.953125 6.109375 30.078125 6.109375 
Q 37.203125 6.109375 41.296875 11.75 
Q 45.40625 17.390625 45.40625 27.296875 
Q 45.40625 37.203125 41.296875 42.84375 
Q 37.203125 48.484375 30.078125 48.484375 
Q 22.953125 48.484375 18.875 42.84375 
Q 14.796875 37.203125 14.796875 27.296875 
z
M 45.40625 8.203125 
Q 42.578125 3.328125 38.25 0.953125 
Q 33.9375 -1.421875 27.875 -1.421875 
Q 17.96875 -1.421875 11.734375 6.484375 
Q 5.515625 14.40625 5.515625 27.296875 
Q 5.515625 40.1875 11.734375 48.09375 
Q 17.96875 56 27.875 56 
Q 33.9375 56 38.25 53.625 
Q 42.578125 51.265625 45.40625 46.390625 
L 45.40625 54.6875 
L 54.390625 54.6875 
L 54.390625 -20.796875 
L 45.40625 -20.796875 
z
" id="DejaVuSans-113"/>
    </defs>
    <g transform="translate(375.22944 104.863611)scale(0.17 -0.17)">
     <use xlink:href="#DejaVuSans-108"/>
     <use x="27.783203" xlink:href="#DejaVuSans-113"/>
     <use x="91.259766" xlink:href="#DejaVuSans-45"/>
     <use x="127.34375" xlink:href="#DejaVuSans-67"/>
     <use x="197.167969" xlink:href="#DejaVuSans-77"/>
     <use x="283.447266" xlink:href="#DejaVuSans-65"/>
     <use x="351.824219" xlink:href="#DejaVuSans-45"/>
     <use x="387.908203" xlink:href="#DejaVuSans-69"/>
     <use x="451.091797" xlink:href="#DejaVuSans-83"/>
    </g>
   </g>
   <g id="text_17">
    <!-- best 2009 -->
    <defs>
     <path d="M 48.6875 27.296875 
Q 48.6875 37.203125 44.609375 42.84375 
Q 40.53125 48.484375 33.40625 48.484375 
Q 26.265625 48.484375 22.1875 42.84375 
Q 18.109375 37.203125 18.109375 27.296875 
Q 18.109375 17.390625 22.1875 11.75 
Q 26.265625 6.109375 33.40625 6.109375 
Q 40.53125 6.109375 44.609375 11.75 
Q 48.6875 17.390625 48.6875 27.296875 
z
M 18.109375 46.390625 
Q 20.953125 51.265625 25.265625 53.625 
Q 29.59375 56 35.59375 56 
Q 45.5625 56 51.78125 48.09375 
Q 58.015625 40.1875 58.015625 27.296875 
Q 58.015625 14.40625 51.78125 6.484375 
Q 45.5625 -1.421875 35.59375 -1.421875 
Q 29.59375 -1.421875 25.265625 0.953125 
Q 20.953125 3.328125 18.109375 8.203125 
L 18.109375 0 
L 9.078125 0 
L 9.078125 75.984375 
L 18.109375 75.984375 
z
" id="DejaVuSans-98"/>
     <path d="M 10.984375 1.515625 
L 10.984375 10.5 
Q 14.703125 8.734375 18.5 7.8125 
Q 22.3125 6.890625 25.984375 6.890625 
Q 35.75 6.890625 40.890625 13.453125 
Q 46.046875 20.015625 46.78125 33.40625 
Q 43.953125 29.203125 39.59375 26.953125 
Q 35.25 24.703125 29.984375 24.703125 
Q 19.046875 24.703125 12.671875 31.3125 
Q 6.296875 37.9375 6.296875 49.421875 
Q 6.296875 60.640625 12.9375 67.421875 
Q 19.578125 74.21875 30.609375 74.21875 
Q 43.265625 74.21875 49.921875 64.515625 
Q 56.59375 54.828125 56.59375 36.375 
Q 56.59375 19.140625 48.40625 8.859375 
Q 40.234375 -1.421875 26.421875 -1.421875 
Q 22.703125 -1.421875 18.890625 -0.6875 
Q 15.09375 0.046875 10.984375 1.515625 
z
M 30.609375 32.421875 
Q 37.25 32.421875 41.125 36.953125 
Q 45.015625 41.5 45.015625 49.421875 
Q 45.015625 57.28125 41.125 61.84375 
Q 37.25 66.40625 30.609375 66.40625 
Q 23.96875 66.40625 20.09375 61.84375 
Q 16.21875 57.28125 16.21875 49.421875 
Q 16.21875 41.5 20.09375 36.953125 
Q 23.96875 32.421875 30.609375 32.421875 
z
" id="DejaVuSans-57"/>
    </defs>
    <g transform="translate(375.22944 40.397235)scale(0.17 -0.17)">
     <use xlink:href="#DejaVuSans-98"/>
     <use x="63.476562" xlink:href="#DejaVuSans-101"/>
     <use x="125" xlink:href="#DejaVuSans-115"/>
     <use x="177.099609" xlink:href="#DejaVuSans-116"/>
     <use x="216.308594" xlink:href="#DejaVuSans-32"/>
     <use x="248.095703" xlink:href="#DejaVuSans-50"/>
     <use x="311.71875" xlink:href="#DejaVuSans-48"/>
     <use x="375.341797" xlink:href="#DejaVuSans-48"/>
     <use x="438.964844" xlink:href="#DejaVuSans-57"/>
    </g>
   </g>
   <g id="text_18">
    <!-- bbob f6, 2-D -->
    <g transform="translate(60.41088 38.111366)scale(0.102 -0.102)">
     <use xlink:href="#DejaVuSans-98"/>
     <use x="63.476562" xlink:href="#DejaVuSans-98"/>
     <use x="126.953125" xlink:href="#DejaVuSans-111"/>
     <use x="188.134766" xlink:href="#DejaVuSans-98"/>
     <use x="251.611328" xlink:href="#DejaVuSans-32"/>
     <use x="283.398438" xlink:href="#DejaVuSans-102"/>
     <use x="318.603516" xlink:href="#DejaVuSans-54"/>
     <use x="382.226562" xlink:href="#DejaVuSans-44"/>
     <use x="414.013672" xlink:href="#DejaVuSans-32"/>
     <use x="445.800781" xlink:href="#DejaVuSans-50"/>
     <use x="509.423828" xlink:href="#DejaVuSans-45"/>
     <use x="545.507812" xlink:href="#DejaVuSans-68"/>
    </g>
    <!-- 51 targets: 100..1e-08 -->
    <defs>
     <path d="M 10.796875 72.90625 
L 49.515625 72.90625 
L 49.515625 64.59375 
L 19.828125 64.59375 
L 19.828125 46.734375 
Q 21.96875 47.46875 24.109375 47.828125 
Q 26.265625 48.1875 28.421875 48.1875 
Q 40.625 48.1875 47.75 41.5 
Q 54.890625 34.8125 54.890625 23.390625 
Q 54.890625 11.625 47.5625 5.09375 
Q 40.234375 -1.421875 26.90625 -1.421875 
Q 22.3125 -1.421875 17.546875 -0.640625 
Q 12.796875 0.140625 7.71875 1.703125 
L 7.71875 11.625 
Q 12.109375 9.234375 16.796875 8.0625 
Q 21.484375 6.890625 26.703125 6.890625 
Q 35.15625 6.890625 40.078125 11.328125 
Q 45.015625 15.765625 45.015625 23.390625 
Q 45.015625 31 40.078125 35.4375 
Q 35.15625 39.890625 26.703125 39.890625 
Q 22.75 39.890625 18.8125 39.015625 
Q 14.890625 38.140625 10.796875 36.28125 
z
" id="DejaVuSans-53"/>
     <path d="M 11.71875 12.40625 
L 22.015625 12.40625 
L 22.015625 0 
L 11.71875 0 
z
M 11.71875 51.703125 
L 22.015625 51.703125 
L 22.015625 39.3125 
L 11.71875 39.3125 
z
" id="DejaVuSans-58"/>
    </defs>
    <g transform="translate(60.41088 49.533135)scale(0.102 -0.102)">
     <use xlink:href="#DejaVuSans-53"/>
     <use x="63.623047" xlink:href="#DejaVuSans-49"/>
     <use x="127.246094" xlink:href="#DejaVuSans-32"/>
     <use x="159.033203" xlink:href="#DejaVuSans-116"/>
     <use x="198.242188" xlink:href="#DejaVuSans-97"/>
     <use x="259.521484" xlink:href="#DejaVuSans-114"/>
     <use x="300.619141" xlink:href="#DejaVuSans-103"/>
     <use x="364.095703" xlink:href="#DejaVuSans-101"/>
     <use x="425.619141" xlink:href="#DejaVuSans-116"/>
     <use x="464.828125" xlink:href="#DejaVuSans-115"/>
     <use x="516.927734" xlink:href="#DejaVuSans-58"/>
     <use x="550.619141" xlink:href="#DejaVuSans-32"/>
     <use x="582.40625" xlink:href="#DejaVuSans-49"/>
     <use x="646.029297" xlink:href="#DejaVuSans-48"/>
     <use x="709.652344" xlink:href="#DejaVuSans-48"/>
     <use x="773.275391" xlink:href="#DejaVuSans-46"/>
     <use x="805.0625" xlink:href="#DejaVuSans-46"/>
     <use x="836.849609" xlink:href="#DejaVuSans-49"/>
     <use x="900.472656" xlink:href="#DejaVuSans-101"/>
     <use x="961.996094" xlink:href="#DejaVuSans-45"/>
     <use x="998.080078" xlink:href="#DejaVuSans-48"/>
     <use x="1061.703125" xlink:href="#DejaVuSans-56"/>
    </g>
    <!-- 15 instances -->
    <g transform="translate(60.41088 60.954904)scale(0.102 -0.102)">
     <use xlink:href="#DejaVuSans-49"/>
     <use x="63.623047" xlink:href="#DejaVuSans-53"/>
     <use x="127.246094" xlink:href="#DejaVuSans-32"/>
     <use x="159.033203" xlink:href="#DejaVuSans-105"/>
     <use x="186.816406" xlink:href="#DejaVuSans-110"/>
     <use x="250.195312" xlink:href="#DejaVuSans-115"/>
     <use x="302.294922" xlink:href="#DejaVuSans-116"/>
     <use x="341.503906" xlink:href="#DejaVuSans-97"/>
     <use x="402.783203" xlink:href="#DejaVuSans-110"/>
     <use x="466.162109" xlink:href="#DejaVuSans-99"/>
     <use x="521.142578" xlink:href="#DejaVuSans-101"/>
     <use x="582.666016" xlink:href="#DejaVuSans-115"/>
    </g>
   </g>
   <g id="text_19">
    <!-- v2.3.2 -->
    <defs>
     <path d="M 40.578125 39.3125 
Q 47.65625 37.796875 51.625 33 
Q 55.609375 28.21875 55.609375 21.1875 
Q 55.609375 10.40625 48.1875 4.484375 
Q 40.765625 -1.421875 27.09375 -1.421875 
Q 22.515625 -1.421875 17.65625 -0.515625 
Q 12.796875 0.390625 7.625 2.203125 
L 7.625 11.71875 
Q 11.71875 9.328125 16.59375 8.109375 
Q 21.484375 6.890625 26.8125 6.890625 
Q 36.078125 6.890625 40.9375 10.546875 
Q 45.796875 14.203125 45.796875 21.1875 
Q 45.796875 27.640625 41.28125 31.265625 
Q 36.765625 34.90625 28.71875 34.90625 
L 20.21875 34.90625 
L 20.21875 43.015625 
L 29.109375 43.015625 
Q 36.375 43.015625 40.234375 45.921875 
Q 44.09375 48.828125 44.09375 54.296875 
Q 44.09375 59.90625 40.109375 62.90625 
Q 36.140625 65.921875 28.71875 65.921875 
Q 24.65625 65.921875 20.015625 65.03125 
Q 15.375 64.15625 9.8125 62.3125 
L 9.8125 71.09375 
Q 15.4375 72.65625 20.34375 73.4375 
Q 25.25 74.21875 29.59375 74.21875 
Q 40.828125 74.21875 47.359375 69.109375 
Q 53.90625 64.015625 53.90625 55.328125 
Q 53.90625 49.265625 50.4375 45.09375 
Q 46.96875 40.921875 40.578125 39.3125 
z
" id="DejaVuSans-51"/>
    </defs>
    <g style="fill:#808080;" transform="translate(182.46275 294.151352)scale(0.1 -0.1)">
     <use xlink:href="#DejaVuSans-118"/>
     <use x="59.179688" xlink:href="#DejaVuSans-50"/>
     <use x="122.802734" xlink:href="#DejaVuSans-46"/>
     <use x="154.589844" xlink:href="#DejaVuSans-51"/>
     <use x="218.212891" xlink:href="#DejaVuSans-46"/>
     <use x="250" xlink:href="#DejaVuSans-50"/>
    </g>
   </g>
   <g id="text_20">
    <!-- 6 Attractive sector -->
    <g transform="translate(105.226812 21.648)scale(0.2 -0.2)">
     <use xlink:href="#DejaVuSans-54"/>
     <use x="63.623047" xlink:href="#DejaVuSans-32"/>
     <use x="95.410156" xlink:href="#DejaVuSans-65"/>
     <use x="163.802734" xlink:href="#DejaVuSans-116"/>
     <use x="203.011719" xlink:href="#DejaVuSans-116"/>
     <use x="242.220703" xlink:href="#DejaVuSans-114"/>
     <use x="283.333984" xlink:href="#DejaVuSans-97"/>
     <use x="344.613281" xlink:href="#DejaVuSans-99"/>
     <use x="399.59375" xlink:href="#DejaVuSans-116"/>
     <use x="438.802734" xlink:href="#DejaVuSans-105"/>
     <use x="466.585938" xlink:href="#DejaVuSans-118"/>
     <use x="525.765625" xlink:href="#DejaVuSans-101"/>
     <use x="587.289062" xlink:href="#DejaVuSans-32"/>
     <use x="619.076172" xlink:href="#DejaVuSans-115"/>
     <use x="671.175781" xlink:href="#DejaVuSans-101"/>
     <use x="732.699219" xlink:href="#DejaVuSans-99"/>
     <use x="787.679688" xlink:href="#DejaVuSans-116"/>
     <use x="826.888672" xlink:href="#DejaVuSans-111"/>
     <use x="888.070312" xlink:href="#DejaVuSans-114"/>
    </g>
   </g>
  </g>
 </g>
 <defs>
  <clipPath id="p546eabfa18">
   <rect height="271.296" width="281.088" x="57.6" y="27.648"/>
  </clipPath>
 </defs>
</svg>
