<?xml version="1.0" encoding="utf-8" standalone="no"?>
<!DOCTYPE svg PUBLIC "-//W3C//DTD SVG 1.1//EN"
  "http://www.w3.org/Graphics/SVG/1.1/DTD/svg11.dtd">
<!-- Created with matplotlib (https://matplotlib.org/) -->
<svg height="345.6pt" version="1.1" viewBox="0 0 460.8 345.6" width="460.8pt" xmlns="http://www.w3.org/2000/svg" xmlns:xlink="http://www.w3.org/1999/xlink">
 <defs>
  <style type="text/css">
*{stroke-linecap:butt;stroke-linejoin:round;}
  </style>
 </defs>
 <g id="figure_1">
  <g id="patch_1">
   <path d="M 0 345.6 
L 460.8 345.6 
L 460.8 0 
L 0 0 
z
" style="fill:#ffffff;"/>
  </g>
  <g id="axes_1">
   <g id="patch_2">
    <path d="M 57.6 298.944 
L 338.688 298.944 
L 338.688 41.472 
L 57.6 41.472 
z
" style="fill:#ffffff;"/>
   </g>
   <g id="line2d_1">
    <path d="M 17.444571 298.944 
L 17.444571 293.945514 
L 67.850577 293.945514 
L 67.850577 288.947029 
L 76.759008 288.947029 
L 76.759008 283.948543 
L 83.037197 283.948543 
L 83.037197 278.950057 
L 93.197415 278.950057 
L 93.197415 273.951571 
L 97.403108 273.951571 
L 97.403108 268.953086 
L 105.398279 268.953086 
L 105.398279 263.9546 
L 129.88095 263.9546 
L 129.88095 258.956114 
L 134.279041 258.956114 
L 134.279041 253.957628 
L 156.040206 253.957628 
L 156.040206 248.959143 
L 156.107908 248.959143 
L 156.107908 243.960657 
L 169.443254 243.960657 
L 169.443254 238.962171 
L 169.724059 238.962171 
L 169.724059 233.963685 
L 169.830653 233.963685 
L 169.830653 228.9652 
L 169.878129 228.9652 
L 169.878129 223.966714 
L 170.154817 223.966714 
L 170.154817 218.968228 
L 170.2479 218.968228 
L 170.2479 213.969743 
L 170.432588 213.969743 
L 170.432588 208.971257 
L 170.559106 208.971257 
L 170.559106 203.972771 
L 170.671394 203.972771 
L 170.671394 198.974285 
L 170.872762 198.974285 
L 170.872762 193.9758 
L 170.951613 193.9758 
L 170.951613 188.977314 
L 170.990905 188.977314 
L 170.990905 183.978828 
L 171.196397 183.978828 
L 171.196397 178.980342 
L 171.309807 178.980342 
L 171.309807 173.981857 
L 171.335479 173.981857 
L 171.335479 168.983371 
L 171.534438 168.983371 
L 171.534438 163.984885 
L 171.559782 163.984885 
L 171.559782 158.9864 
L 171.577501 158.9864 
L 171.577501 153.987914 
L 171.620458 153.987914 
L 171.620458 148.989428 
L 171.655755 148.989428 
L 171.655755 143.990942 
L 171.890917 143.990942 
L 171.890917 138.992457 
L 171.920711 138.992457 
L 171.920711 133.993971 
L 172.066461 133.993971 
L 172.066461 128.995485 
L 174.789496 128.995485 
L 174.789496 123.996999 
L 174.808425 123.996999 
L 174.808425 118.998514 
L 175.006993 118.998514 
L 175.006993 114.000028 
L 175.058874 114.000028 
L 175.058874 109.001542 
L 175.081653 109.001542 
L 175.081653 104.003056 
L 175.174531 104.003056 
L 175.174531 99.004571 
L 178.534298 99.004571 
L 178.534298 94.006085 
L 178.547874 94.006085 
L 178.547874 89.007599 
L 178.578383 89.007599 
L 178.578383 84.009114 
L 178.597002 84.009114 
L 178.597002 79.010628 
L 178.624047 79.010628 
L 178.624047 74.012142 
L 178.667907 74.012142 
L 178.667907 69.013656 
L 178.679696 69.013656 
L 178.679696 64.015171 
L 183.266275 64.015171 
L 183.266275 59.016685 
L 183.310225 59.016685 
L 183.310225 54.018199 
L 183.341183 54.018199 
L 183.341183 49.019713 
L 183.572899 49.019713 
L 183.572899 44.021228 
L 338.688 44.021228 
" style="fill:none;stroke:#f5deb3;stroke-linecap:square;stroke-width:4;"/>
   </g>
   <g id="line2d_2">
    <defs>
     <path d="M -0 7.778175 
L 7.778175 0 
L 0 -7.778175 
L -7.778175 -0 
z
" id="m05ce5230d9" style="stroke:#f5deb3;stroke-linejoin:miter;stroke-width:1.5;"/>
    </defs>
    <g>
     <use style="fill:#f5deb3;stroke:#f5deb3;stroke-linejoin:miter;stroke-width:1.5;" x="134.279041" xlink:href="#m05ce5230d9" y="258.956114"/>
     <use style="fill:#f5deb3;stroke:#f5deb3;stroke-linejoin:miter;stroke-width:1.5;" x="171.335479" xlink:href="#m05ce5230d9" y="173.981857"/>
     <use style="fill:#f5deb3;stroke:#f5deb3;stroke-linejoin:miter;stroke-width:1.5;" x="178.679696" xlink:href="#m05ce5230d9" y="69.013656"/>
     <use style="fill:#f5deb3;stroke:#f5deb3;stroke-linejoin:miter;stroke-width:1.5;" x="183.572899" xlink:href="#m05ce5230d9" y="44.021228"/>
     <use style="fill:#f5deb3;stroke:#f5deb3;stroke-linejoin:miter;stroke-width:1.5;" x="183.572899" xlink:href="#m05ce5230d9" y="44.021228"/>
     <use style="fill:#f5deb3;stroke:#f5deb3;stroke-linejoin:miter;stroke-width:1.5;" x="338.688" xlink:href="#m05ce5230d9" y="44.021228"/>
    </g>
   </g>
   <g id="line2d_3">
    <path style="fill:none;stroke:#f5deb3;stroke-linecap:square;stroke-width:4;"/>
    <g/>
   </g>
   <g id="line2d_4">
    <path d="M 338.688 44.021228 
L 369.60768 49.119683 
" style="fill:none;stroke:#f5deb3;stroke-linecap:square;stroke-width:4;"/>
    <g>
     <use style="fill:#f5deb3;stroke:#f5deb3;stroke-linejoin:miter;stroke-width:1.5;" x="338.688" xlink:href="#m05ce5230d9" y="44.021228"/>
     <use style="fill:#f5deb3;stroke:#f5deb3;stroke-linejoin:miter;stroke-width:1.5;" x="369.60768" xlink:href="#m05ce5230d9" y="49.119683"/>
    </g>
   </g>
   <g id="matplotlib.axis_1">
    <g id="xtick_1">
     <g id="line2d_5">
      <path clip-path="url(#p973cbcee0b)" d="M 57.6 298.944 
L 57.6 41.472 
" style="fill:none;stroke:#b0b0b0;stroke-linecap:square;stroke-width:0.8;"/>
     </g>
     <g id="line2d_6">
      <defs>
       <path d="M 0 0 
L 0 3.5 
" id="mc2df44d9cc" style="stroke:#000000;stroke-width:0.8;"/>
      </defs>
      <g>
       <use style="stroke:#000000;stroke-width:0.8;" x="57.6" xlink:href="#mc2df44d9cc" y="298.944"/>
      </g>
     </g>
     <g id="text_1">
      <!-- 0 -->
      <defs>
       <path d="M 31.78125 66.40625 
Q 24.171875 66.40625 20.328125 58.90625 
Q 16.5 51.421875 16.5 36.375 
Q 16.5 21.390625 20.328125 13.890625 
Q 24.171875 6.390625 31.78125 6.390625 
Q 39.453125 6.390625 43.28125 13.890625 
Q 47.125 21.390625 47.125 36.375 
Q 47.125 51.421875 43.28125 58.90625 
Q 39.453125 66.40625 31.78125 66.40625 
z
M 31.78125 74.21875 
Q 44.046875 74.21875 50.515625 64.515625 
Q 56.984375 54.828125 56.984375 36.375 
Q 56.984375 17.96875 50.515625 8.265625 
Q 44.046875 -1.421875 31.78125 -1.421875 
Q 19.53125 -1.421875 13.0625 8.265625 
Q 6.59375 17.96875 6.59375 36.375 
Q 6.59375 54.828125 13.0625 64.515625 
Q 19.53125 74.21875 31.78125 74.21875 
z
" id="DejaVuSans-48"/>
      </defs>
      <g transform="translate(51.2375 321.140875)scale(0.2 -0.2)">
       <use xlink:href="#DejaVuSans-48"/>
      </g>
     </g>
    </g>
    <g id="xtick_2">
     <g id="line2d_7">
      <path clip-path="url(#p973cbcee0b)" d="M 137.910857 298.944 
L 137.910857 41.472 
" style="fill:none;stroke:#b0b0b0;stroke-linecap:square;stroke-width:0.8;"/>
     </g>
     <g id="line2d_8">
      <g>
       <use style="stroke:#000000;stroke-width:0.8;" x="137.910857" xlink:href="#mc2df44d9cc" y="298.944"/>
      </g>
     </g>
     <g id="text_2">
      <!-- 2 -->
      <defs>
       <path d="M 19.1875 8.296875 
L 53.609375 8.296875 
L 53.609375 0 
L 7.328125 0 
L 7.328125 8.296875 
Q 12.9375 14.109375 22.625 23.890625 
Q 32.328125 33.6875 34.8125 36.53125 
Q 39.546875 41.84375 41.421875 45.53125 
Q 43.3125 49.21875 43.3125 52.78125 
Q 43.3125 58.59375 39.234375 62.25 
Q 35.15625 65.921875 28.609375 65.921875 
Q 23.96875 65.921875 18.8125 64.3125 
Q 13.671875 62.703125 7.8125 59.421875 
L 7.8125 69.390625 
Q 13.765625 71.78125 18.9375 73 
Q 24.125 74.21875 28.421875 74.21875 
Q 39.75 74.21875 46.484375 68.546875 
Q 53.21875 62.890625 53.21875 53.421875 
Q 53.21875 48.921875 51.53125 44.890625 
Q 49.859375 40.875 45.40625 35.40625 
Q 44.1875 33.984375 37.640625 27.21875 
Q 31.109375 20.453125 19.1875 8.296875 
z
" id="DejaVuSans-50"/>
      </defs>
      <g transform="translate(131.548357 321.140875)scale(0.2 -0.2)">
       <use xlink:href="#DejaVuSans-50"/>
      </g>
     </g>
    </g>
    <g id="xtick_3">
     <g id="line2d_9">
      <path clip-path="url(#p973cbcee0b)" d="M 218.221714 298.944 
L 218.221714 41.472 
" style="fill:none;stroke:#b0b0b0;stroke-linecap:square;stroke-width:0.8;"/>
     </g>
     <g id="line2d_10">
      <g>
       <use style="stroke:#000000;stroke-width:0.8;" x="218.221714" xlink:href="#mc2df44d9cc" y="298.944"/>
      </g>
     </g>
     <g id="text_3">
      <!-- 4 -->
      <defs>
       <path d="M 37.796875 64.3125 
L 12.890625 25.390625 
L 37.796875 25.390625 
z
M 35.203125 72.90625 
L 47.609375 72.90625 
L 47.609375 25.390625 
L 58.015625 25.390625 
L 58.015625 17.1875 
L 47.609375 17.1875 
L 47.609375 0 
L 37.796875 0 
L 37.796875 17.1875 
L 4.890625 17.1875 
L 4.890625 26.703125 
z
" id="DejaVuSans-52"/>
      </defs>
      <g transform="translate(211.859214 321.140875)scale(0.2 -0.2)">
       <use xlink:href="#DejaVuSans-52"/>
      </g>
     </g>
    </g>
    <g id="xtick_4">
     <g id="line2d_11">
      <path clip-path="url(#p973cbcee0b)" d="M 298.532571 298.944 
L 298.532571 41.472 
" style="fill:none;stroke:#b0b0b0;stroke-linecap:square;stroke-width:0.8;"/>
     </g>
     <g id="line2d_12">
      <g>
       <use style="stroke:#000000;stroke-width:0.8;" x="298.532571" xlink:href="#mc2df44d9cc" y="298.944"/>
      </g>
     </g>
     <g id="text_4">
      <!-- 6 -->
      <defs>
       <path d="M 33.015625 40.375 
Q 26.375 40.375 22.484375 35.828125 
Q 18.609375 31.296875 18.609375 23.390625 
Q 18.609375 15.53125 22.484375 10.953125 
Q 26.375 6.390625 33.015625 6.390625 
Q 39.65625 6.390625 43.53125 10.953125 
Q 47.40625 15.53125 47.40625 23.390625 
Q 47.40625 31.296875 43.53125 35.828125 
Q 39.65625 40.375 33.015625 40.375 
z
M 52.59375 71.296875 
L 52.59375 62.3125 
Q 48.875 64.0625 45.09375 64.984375 
Q 41.3125 65.921875 37.59375 65.921875 
Q 27.828125 65.921875 22.671875 59.328125 
Q 17.53125 52.734375 16.796875 39.40625 
Q 19.671875 43.65625 24.015625 45.921875 
Q 28.375 48.1875 33.59375 48.1875 
Q 44.578125 48.1875 50.953125 41.515625 
Q 57.328125 34.859375 57.328125 23.390625 
Q 57.328125 12.15625 50.6875 5.359375 
Q 44.046875 -1.421875 33.015625 -1.421875 
Q 20.359375 -1.421875 13.671875 8.265625 
Q 6.984375 17.96875 6.984375 36.375 
Q 6.984375 53.65625 15.1875 63.9375 
Q 23.390625 74.21875 37.203125 74.21875 
Q 40.921875 74.21875 44.703125 73.484375 
Q 48.484375 72.75 52.59375 71.296875 
z
" id="DejaVuSans-54"/>
      </defs>
      <g transform="translate(292.170071 321.140875)scale(0.2 -0.2)">
       <use xlink:href="#DejaVuSans-54"/>
      </g>
     </g>
    </g>
    <g id="xtick_5">
     <g id="line2d_13">
      <path clip-path="url(#p973cbcee0b)" d="M 57.6 298.944 
L 57.6 41.472 
" style="fill:none;stroke:#b0b0b0;stroke-linecap:square;stroke-width:0.8;"/>
     </g>
     <g id="line2d_14">
      <defs>
       <path d="M 0 0 
L 0 2 
" id="m92224c4e99" style="stroke:#000000;stroke-width:0.6;"/>
      </defs>
      <g>
       <use style="stroke:#000000;stroke-width:0.6;" x="57.6" xlink:href="#m92224c4e99" y="298.944"/>
      </g>
     </g>
    </g>
    <g id="xtick_6">
     <g id="line2d_15">
      <path clip-path="url(#p973cbcee0b)" d="M 97.755429 298.944 
L 97.755429 41.472 
" style="fill:none;stroke:#b0b0b0;stroke-linecap:square;stroke-width:0.8;"/>
     </g>
     <g id="line2d_16">
      <g>
       <use style="stroke:#000000;stroke-width:0.6;" x="97.755429" xlink:href="#m92224c4e99" y="298.944"/>
      </g>
     </g>
    </g>
    <g id="xtick_7">
     <g id="line2d_17">
      <path clip-path="url(#p973cbcee0b)" d="M 137.910857 298.944 
L 137.910857 41.472 
" style="fill:none;stroke:#b0b0b0;stroke-linecap:square;stroke-width:0.8;"/>
     </g>
     <g id="line2d_18">
      <g>
       <use style="stroke:#000000;stroke-width:0.6;" x="137.910857" xlink:href="#m92224c4e99" y="298.944"/>
      </g>
     </g>
    </g>
    <g id="xtick_8">
     <g id="line2d_19">
      <path clip-path="url(#p973cbcee0b)" d="M 178.066286 298.944 
L 178.066286 41.472 
" style="fill:none;stroke:#b0b0b0;stroke-linecap:square;stroke-width:0.8;"/>
     </g>
     <g id="line2d_20">
      <g>
       <use style="stroke:#000000;stroke-width:0.6;" x="178.066286" xlink:href="#m92224c4e99" y="298.944"/>
      </g>
     </g>
    </g>
    <g id="xtick_9">
     <g id="line2d_21">
      <path clip-path="url(#p973cbcee0b)" d="M 218.221714 298.944 
L 218.221714 41.472 
" style="fill:none;stroke:#b0b0b0;stroke-linecap:square;stroke-width:0.8;"/>
     </g>
     <g id="line2d_22">
      <g>
       <use style="stroke:#000000;stroke-width:0.6;" x="218.221714" xlink:href="#m92224c4e99" y="298.944"/>
      </g>
     </g>
    </g>
    <g id="xtick_10">
     <g id="line2d_23">
      <path clip-path="url(#p973cbcee0b)" d="M 258.377143 298.944 
L 258.377143 41.472 
" style="fill:none;stroke:#b0b0b0;stroke-linecap:square;stroke-width:0.8;"/>
     </g>
     <g id="line2d_24">
      <g>
       <use style="stroke:#000000;stroke-width:0.6;" x="258.377143" xlink:href="#m92224c4e99" y="298.944"/>
      </g>
     </g>
    </g>
    <g id="xtick_11">
     <g id="line2d_25">
      <path clip-path="url(#p973cbcee0b)" d="M 298.532571 298.944 
L 298.532571 41.472 
" style="fill:none;stroke:#b0b0b0;stroke-linecap:square;stroke-width:0.8;"/>
     </g>
     <g id="line2d_26">
      <g>
       <use style="stroke:#000000;stroke-width:0.6;" x="298.532571" xlink:href="#m92224c4e99" y="298.944"/>
      </g>
     </g>
    </g>
    <g id="xtick_12">
     <g id="line2d_27">
      <path clip-path="url(#p973cbcee0b)" d="M 338.688 298.944 
L 338.688 41.472 
" style="fill:none;stroke:#b0b0b0;stroke-linecap:square;stroke-width:0.8;"/>
     </g>
     <g id="line2d_28">
      <g>
       <use style="stroke:#000000;stroke-width:0.6;" x="338.688" xlink:href="#m92224c4e99" y="298.944"/>
      </g>
     </g>
    </g>
    <g id="text_5">
     <!-- log10(# f-evals / dimension) -->
     <defs>
      <path d="M 9.421875 75.984375 
L 18.40625 75.984375 
L 18.40625 0 
L 9.421875 0 
z
" id="DejaVuSans-108"/>
      <path d="M 30.609375 48.390625 
Q 23.390625 48.390625 19.1875 42.75 
Q 14.984375 37.109375 14.984375 27.296875 
Q 14.984375 17.484375 19.15625 11.84375 
Q 23.34375 6.203125 30.609375 6.203125 
Q 37.796875 6.203125 41.984375 11.859375 
Q 46.1875 17.53125 46.1875 27.296875 
Q 46.1875 37.015625 41.984375 42.703125 
Q 37.796875 48.390625 30.609375 48.390625 
z
M 30.609375 56 
Q 42.328125 56 49.015625 48.375 
Q 55.71875 40.765625 55.71875 27.296875 
Q 55.71875 13.875 49.015625 6.21875 
Q 42.328125 -1.421875 30.609375 -1.421875 
Q 18.84375 -1.421875 12.171875 6.21875 
Q 5.515625 13.875 5.515625 27.296875 
Q 5.515625 40.765625 12.171875 48.375 
Q 18.84375 56 30.609375 56 
z
" id="DejaVuSans-111"/>
      <path d="M 45.40625 27.984375 
Q 45.40625 37.75 41.375 43.109375 
Q 37.359375 48.484375 30.078125 48.484375 
Q 22.859375 48.484375 18.828125 43.109375 
Q 14.796875 37.75 14.796875 27.984375 
Q 14.796875 18.265625 18.828125 12.890625 
Q 22.859375 7.515625 30.078125 7.515625 
Q 37.359375 7.515625 41.375 12.890625 
Q 45.40625 18.265625 45.40625 27.984375 
z
M 54.390625 6.78125 
Q 54.390625 -7.171875 48.1875 -13.984375 
Q 42 -20.796875 29.203125 -20.796875 
Q 24.46875 -20.796875 20.265625 -20.09375 
Q 16.0625 -19.390625 12.109375 -17.921875 
L 12.109375 -9.1875 
Q 16.0625 -11.328125 19.921875 -12.34375 
Q 23.78125 -13.375 27.78125 -13.375 
Q 36.625 -13.375 41.015625 -8.765625 
Q 45.40625 -4.15625 45.40625 5.171875 
L 45.40625 9.625 
Q 42.625 4.78125 38.28125 2.390625 
Q 33.9375 0 27.875 0 
Q 17.828125 0 11.671875 7.65625 
Q 5.515625 15.328125 5.515625 27.984375 
Q 5.515625 40.671875 11.671875 48.328125 
Q 17.828125 56 27.875 56 
Q 33.9375 56 38.28125 53.609375 
Q 42.625 51.21875 45.40625 46.390625 
L 45.40625 54.6875 
L 54.390625 54.6875 
z
" id="DejaVuSans-103"/>
      <path d="M 12.40625 8.296875 
L 28.515625 8.296875 
L 28.515625 63.921875 
L 10.984375 60.40625 
L 10.984375 69.390625 
L 28.421875 72.90625 
L 38.28125 72.90625 
L 38.28125 8.296875 
L 54.390625 8.296875 
L 54.390625 0 
L 12.40625 0 
z
" id="DejaVuSans-49"/>
      <path d="M 31 75.875 
Q 24.46875 64.65625 21.28125 53.65625 
Q 18.109375 42.671875 18.109375 31.390625 
Q 18.109375 20.125 21.3125 9.0625 
Q 24.515625 -2 31 -13.1875 
L 23.1875 -13.1875 
Q 15.875 -1.703125 12.234375 9.375 
Q 8.59375 20.453125 8.59375 31.390625 
Q 8.59375 42.28125 12.203125 53.3125 
Q 15.828125 64.359375 23.1875 75.875 
z
" id="DejaVuSans-40"/>
      <path d="M 51.125 44 
L 36.921875 44 
L 32.8125 27.6875 
L 47.125 27.6875 
z
M 43.796875 71.78125 
L 38.71875 51.515625 
L 52.984375 51.515625 
L 58.109375 71.78125 
L 65.921875 71.78125 
L 60.890625 51.515625 
L 76.125 51.515625 
L 76.125 44 
L 58.984375 44 
L 54.984375 27.6875 
L 70.515625 27.6875 
L 70.515625 20.21875 
L 53.078125 20.21875 
L 48 0 
L 40.1875 0 
L 45.21875 20.21875 
L 30.90625 20.21875 
L 25.875 0 
L 18.015625 0 
L 23.09375 20.21875 
L 7.71875 20.21875 
L 7.71875 27.6875 
L 24.90625 27.6875 
L 29 44 
L 13.28125 44 
L 13.28125 51.515625 
L 30.90625 51.515625 
L 35.890625 71.78125 
z
" id="DejaVuSans-35"/>
      <path id="DejaVuSans-32"/>
      <path d="M 37.109375 75.984375 
L 37.109375 68.5 
L 28.515625 68.5 
Q 23.6875 68.5 21.796875 66.546875 
Q 19.921875 64.59375 19.921875 59.515625 
L 19.921875 54.6875 
L 34.71875 54.6875 
L 34.71875 47.703125 
L 19.921875 47.703125 
L 19.921875 0 
L 10.890625 0 
L 10.890625 47.703125 
L 2.296875 47.703125 
L 2.296875 54.6875 
L 10.890625 54.6875 
L 10.890625 58.5 
Q 10.890625 67.625 15.140625 71.796875 
Q 19.390625 75.984375 28.609375 75.984375 
z
" id="DejaVuSans-102"/>
      <path d="M 4.890625 31.390625 
L 31.203125 31.390625 
L 31.203125 23.390625 
L 4.890625 23.390625 
z
" id="DejaVuSans-45"/>
      <path d="M 56.203125 29.59375 
L 56.203125 25.203125 
L 14.890625 25.203125 
Q 15.484375 15.921875 20.484375 11.0625 
Q 25.484375 6.203125 34.421875 6.203125 
Q 39.59375 6.203125 44.453125 7.46875 
Q 49.3125 8.734375 54.109375 11.28125 
L 54.109375 2.78125 
Q 49.265625 0.734375 44.1875 -0.34375 
Q 39.109375 -1.421875 33.890625 -1.421875 
Q 20.796875 -1.421875 13.15625 6.1875 
Q 5.515625 13.8125 5.515625 26.8125 
Q 5.515625 40.234375 12.765625 48.109375 
Q 20.015625 56 32.328125 56 
Q 43.359375 56 49.78125 48.890625 
Q 56.203125 41.796875 56.203125 29.59375 
z
M 47.21875 32.234375 
Q 47.125 39.59375 43.09375 43.984375 
Q 39.0625 48.390625 32.421875 48.390625 
Q 24.90625 48.390625 20.390625 44.140625 
Q 15.875 39.890625 15.1875 32.171875 
z
" id="DejaVuSans-101"/>
      <path d="M 2.984375 54.6875 
L 12.5 54.6875 
L 29.59375 8.796875 
L 46.6875 54.6875 
L 56.203125 54.6875 
L 35.6875 0 
L 23.484375 0 
z
" id="DejaVuSans-118"/>
      <path d="M 34.28125 27.484375 
Q 23.390625 27.484375 19.1875 25 
Q 14.984375 22.515625 14.984375 16.5 
Q 14.984375 11.71875 18.140625 8.90625 
Q 21.296875 6.109375 26.703125 6.109375 
Q 34.1875 6.109375 38.703125 11.40625 
Q 43.21875 16.703125 43.21875 25.484375 
L 43.21875 27.484375 
z
M 52.203125 31.203125 
L 52.203125 0 
L 43.21875 0 
L 43.21875 8.296875 
Q 40.140625 3.328125 35.546875 0.953125 
Q 30.953125 -1.421875 24.3125 -1.421875 
Q 15.921875 -1.421875 10.953125 3.296875 
Q 6 8.015625 6 15.921875 
Q 6 25.140625 12.171875 29.828125 
Q 18.359375 34.515625 30.609375 34.515625 
L 43.21875 34.515625 
L 43.21875 35.40625 
Q 43.21875 41.609375 39.140625 45 
Q 35.0625 48.390625 27.6875 48.390625 
Q 23 48.390625 18.546875 47.265625 
Q 14.109375 46.140625 10.015625 43.890625 
L 10.015625 52.203125 
Q 14.9375 54.109375 19.578125 55.046875 
Q 24.21875 56 28.609375 56 
Q 40.484375 56 46.34375 49.84375 
Q 52.203125 43.703125 52.203125 31.203125 
z
" id="DejaVuSans-97"/>
      <path d="M 44.28125 53.078125 
L 44.28125 44.578125 
Q 40.484375 46.53125 36.375 47.5 
Q 32.28125 48.484375 27.875 48.484375 
Q 21.1875 48.484375 17.84375 46.4375 
Q 14.5 44.390625 14.5 40.28125 
Q 14.5 37.15625 16.890625 35.375 
Q 19.28125 33.59375 26.515625 31.984375 
L 29.59375 31.296875 
Q 39.15625 29.25 43.1875 25.515625 
Q 47.21875 21.78125 47.21875 15.09375 
Q 47.21875 7.46875 41.1875 3.015625 
Q 35.15625 -1.421875 24.609375 -1.421875 
Q 20.21875 -1.421875 15.453125 -0.5625 
Q 10.6875 0.296875 5.421875 2 
L 5.421875 11.28125 
Q 10.40625 8.6875 15.234375 7.390625 
Q 20.0625 6.109375 24.8125 6.109375 
Q 31.15625 6.109375 34.5625 8.28125 
Q 37.984375 10.453125 37.984375 14.40625 
Q 37.984375 18.0625 35.515625 20.015625 
Q 33.0625 21.96875 24.703125 23.78125 
L 21.578125 24.515625 
Q 13.234375 26.265625 9.515625 29.90625 
Q 5.8125 33.546875 5.8125 39.890625 
Q 5.8125 47.609375 11.28125 51.796875 
Q 16.75 56 26.8125 56 
Q 31.78125 56 36.171875 55.265625 
Q 40.578125 54.546875 44.28125 53.078125 
z
" id="DejaVuSans-115"/>
      <path d="M 25.390625 72.90625 
L 33.6875 72.90625 
L 8.296875 -9.28125 
L 0 -9.28125 
z
" id="DejaVuSans-47"/>
      <path d="M 45.40625 46.390625 
L 45.40625 75.984375 
L 54.390625 75.984375 
L 54.390625 0 
L 45.40625 0 
L 45.40625 8.203125 
Q 42.578125 3.328125 38.25 0.953125 
Q 33.9375 -1.421875 27.875 -1.421875 
Q 17.96875 -1.421875 11.734375 6.484375 
Q 5.515625 14.40625 5.515625 27.296875 
Q 5.515625 40.1875 11.734375 48.09375 
Q 17.96875 56 27.875 56 
Q 33.9375 56 38.25 53.625 
Q 42.578125 51.265625 45.40625 46.390625 
z
M 14.796875 27.296875 
Q 14.796875 17.390625 18.875 11.75 
Q 22.953125 6.109375 30.078125 6.109375 
Q 37.203125 6.109375 41.296875 11.75 
Q 45.40625 17.390625 45.40625 27.296875 
Q 45.40625 37.203125 41.296875 42.84375 
Q 37.203125 48.484375 30.078125 48.484375 
Q 22.953125 48.484375 18.875 42.84375 
Q 14.796875 37.203125 14.796875 27.296875 
z
" id="DejaVuSans-100"/>
      <path d="M 9.421875 54.6875 
L 18.40625 54.6875 
L 18.40625 0 
L 9.421875 0 
z
M 9.421875 75.984375 
L 18.40625 75.984375 
L 18.40625 64.59375 
L 9.421875 64.59375 
z
" id="DejaVuSans-105"/>
      <path d="M 52 44.1875 
Q 55.375 50.25 60.0625 53.125 
Q 64.75 56 71.09375 56 
Q 79.640625 56 84.28125 50.015625 
Q 88.921875 44.046875 88.921875 33.015625 
L 88.921875 0 
L 79.890625 0 
L 79.890625 32.71875 
Q 79.890625 40.578125 77.09375 44.375 
Q 74.3125 48.1875 68.609375 48.1875 
Q 61.625 48.1875 57.5625 43.546875 
Q 53.515625 38.921875 53.515625 30.90625 
L 53.515625 0 
L 44.484375 0 
L 44.484375 32.71875 
Q 44.484375 40.625 41.703125 44.40625 
Q 38.921875 48.1875 33.109375 48.1875 
Q 26.21875 48.1875 22.15625 43.53125 
Q 18.109375 38.875 18.109375 30.90625 
L 18.109375 0 
L 9.078125 0 
L 9.078125 54.6875 
L 18.109375 54.6875 
L 18.109375 46.1875 
Q 21.1875 51.21875 25.484375 53.609375 
Q 29.78125 56 35.6875 56 
Q 41.65625 56 45.828125 52.96875 
Q 50 49.953125 52 44.1875 
z
" id="DejaVuSans-109"/>
      <path d="M 54.890625 33.015625 
L 54.890625 0 
L 45.90625 0 
L 45.90625 32.71875 
Q 45.90625 40.484375 42.875 44.328125 
Q 39.84375 48.1875 33.796875 48.1875 
Q 26.515625 48.1875 22.3125 43.546875 
Q 18.109375 38.921875 18.109375 30.90625 
L 18.109375 0 
L 9.078125 0 
L 9.078125 54.6875 
L 18.109375 54.6875 
L 18.109375 46.1875 
Q 21.34375 51.125 25.703125 53.5625 
Q 30.078125 56 35.796875 56 
Q 45.21875 56 50.046875 50.171875 
Q 54.890625 44.34375 54.890625 33.015625 
z
" id="DejaVuSans-110"/>
      <path d="M 8.015625 75.875 
L 15.828125 75.875 
Q 23.140625 64.359375 26.78125 53.3125 
Q 30.421875 42.28125 30.421875 31.390625 
Q 30.421875 20.453125 26.78125 9.375 
Q 23.140625 -1.703125 15.828125 -13.1875 
L 8.015625 -13.1875 
Q 14.5 -2 17.703125 9.0625 
Q 20.90625 20.125 20.90625 31.390625 
Q 20.90625 42.671875 17.703125 53.65625 
Q 14.5 64.65625 8.015625 75.875 
z
" id="DejaVuSans-41"/>
     </defs>
     <g transform="translate(77.303219 342.217594)scale(0.17 -0.17)">
      <use xlink:href="#DejaVuSans-108"/>
      <use x="27.783203" xlink:href="#DejaVuSans-111"/>
      <use x="88.964844" xlink:href="#DejaVuSans-103"/>
      <use x="152.441406" xlink:href="#DejaVuSans-49"/>
      <use x="216.064453" xlink:href="#DejaVuSans-48"/>
      <use x="279.6875" xlink:href="#DejaVuSans-40"/>
      <use x="318.701172" xlink:href="#DejaVuSans-35"/>
      <use x="402.490234" xlink:href="#DejaVuSans-32"/>
      <use x="434.277344" xlink:href="#DejaVuSans-102"/>
      <use x="469.404297" xlink:href="#DejaVuSans-45"/>
      <use x="505.488281" xlink:href="#DejaVuSans-101"/>
      <use x="567.011719" xlink:href="#DejaVuSans-118"/>
      <use x="626.191406" xlink:href="#DejaVuSans-97"/>
      <use x="687.470703" xlink:href="#DejaVuSans-108"/>
      <use x="715.253906" xlink:href="#DejaVuSans-115"/>
      <use x="767.353516" xlink:href="#DejaVuSans-32"/>
      <use x="799.140625" xlink:href="#DejaVuSans-47"/>
      <use x="832.832031" xlink:href="#DejaVuSans-32"/>
      <use x="864.619141" xlink:href="#DejaVuSans-100"/>
      <use x="928.095703" xlink:href="#DejaVuSans-105"/>
      <use x="955.878906" xlink:href="#DejaVuSans-109"/>
      <use x="1053.291016" xlink:href="#DejaVuSans-101"/>
      <use x="1114.814453" xlink:href="#DejaVuSans-110"/>
      <use x="1178.193359" xlink:href="#DejaVuSans-115"/>
      <use x="1230.292969" xlink:href="#DejaVuSans-105"/>
      <use x="1258.076172" xlink:href="#DejaVuSans-111"/>
      <use x="1319.257812" xlink:href="#DejaVuSans-110"/>
      <use x="1382.636719" xlink:href="#DejaVuSans-41"/>
     </g>
    </g>
   </g>
   <g id="matplotlib.axis_2">
    <g id="ytick_1">
     <g id="line2d_29">
      <path clip-path="url(#p973cbcee0b)" d="M 57.6 298.944 
L 338.688 298.944 
" style="fill:none;stroke:#b0b0b0;stroke-linecap:square;stroke-width:0.8;"/>
     </g>
     <g id="line2d_30">
      <defs>
       <path d="M 0 0 
L -3.5 0 
" id="m1d3d9b7c9b" style="stroke:#000000;stroke-width:0.8;"/>
      </defs>
      <g>
       <use style="stroke:#000000;stroke-width:0.8;" x="57.6" xlink:href="#m1d3d9b7c9b" y="298.944"/>
      </g>
     </g>
     <g id="text_6">
      <!-- 0.0 -->
      <defs>
       <path d="M 10.6875 12.40625 
L 21 12.40625 
L 21 0 
L 10.6875 0 
z
" id="DejaVuSans-46"/>
      </defs>
      <g transform="translate(25.155 305.02275)scale(0.16 -0.16)">
       <use xlink:href="#DejaVuSans-48"/>
       <use x="63.623047" xlink:href="#DejaVuSans-46"/>
       <use x="95.410156" xlink:href="#DejaVuSans-48"/>
      </g>
     </g>
    </g>
    <g id="ytick_2">
     <g id="line2d_31">
      <path clip-path="url(#p973cbcee0b)" d="M 57.6 247.959446 
L 338.688 247.959446 
" style="fill:none;stroke:#b0b0b0;stroke-linecap:square;stroke-width:0.8;"/>
     </g>
     <g id="line2d_32">
      <g>
       <use style="stroke:#000000;stroke-width:0.8;" x="57.6" xlink:href="#m1d3d9b7c9b" y="247.959446"/>
      </g>
     </g>
     <g id="text_7">
      <!-- 0.2 -->
      <g transform="translate(25.155 254.038196)scale(0.16 -0.16)">
       <use xlink:href="#DejaVuSans-48"/>
       <use x="63.623047" xlink:href="#DejaVuSans-46"/>
       <use x="95.410156" xlink:href="#DejaVuSans-50"/>
      </g>
     </g>
    </g>
    <g id="ytick_3">
     <g id="line2d_33">
      <path clip-path="url(#p973cbcee0b)" d="M 57.6 196.974891 
L 338.688 196.974891 
" style="fill:none;stroke:#b0b0b0;stroke-linecap:square;stroke-width:0.8;"/>
     </g>
     <g id="line2d_34">
      <g>
       <use style="stroke:#000000;stroke-width:0.8;" x="57.6" xlink:href="#m1d3d9b7c9b" y="196.974891"/>
      </g>
     </g>
     <g id="text_8">
      <!-- 0.4 -->
      <g transform="translate(25.155 203.053641)scale(0.16 -0.16)">
       <use xlink:href="#DejaVuSans-48"/>
       <use x="63.623047" xlink:href="#DejaVuSans-46"/>
       <use x="95.410156" xlink:href="#DejaVuSans-52"/>
      </g>
     </g>
    </g>
    <g id="ytick_4">
     <g id="line2d_35">
      <path clip-path="url(#p973cbcee0b)" d="M 57.6 145.990337 
L 338.688 145.990337 
" style="fill:none;stroke:#b0b0b0;stroke-linecap:square;stroke-width:0.8;"/>
     </g>
     <g id="line2d_36">
      <g>
       <use style="stroke:#000000;stroke-width:0.8;" x="57.6" xlink:href="#m1d3d9b7c9b" y="145.990337"/>
      </g>
     </g>
     <g id="text_9">
      <!-- 0.6 -->
      <g transform="translate(25.155 152.069087)scale(0.16 -0.16)">
       <use xlink:href="#DejaVuSans-48"/>
       <use x="63.623047" xlink:href="#DejaVuSans-46"/>
       <use x="95.410156" xlink:href="#DejaVuSans-54"/>
      </g>
     </g>
    </g>
    <g id="ytick_5">
     <g id="line2d_37">
      <path clip-path="url(#p973cbcee0b)" d="M 57.6 95.005782 
L 338.688 95.005782 
" style="fill:none;stroke:#b0b0b0;stroke-linecap:square;stroke-width:0.8;"/>
     </g>
     <g id="line2d_38">
      <g>
       <use style="stroke:#000000;stroke-width:0.8;" x="57.6" xlink:href="#m1d3d9b7c9b" y="95.005782"/>
      </g>
     </g>
     <g id="text_10">
      <!-- 0.8 -->
      <defs>
       <path d="M 31.78125 34.625 
Q 24.75 34.625 20.71875 30.859375 
Q 16.703125 27.09375 16.703125 20.515625 
Q 16.703125 13.921875 20.71875 10.15625 
Q 24.75 6.390625 31.78125 6.390625 
Q 38.8125 6.390625 42.859375 10.171875 
Q 46.921875 13.96875 46.921875 20.515625 
Q 46.921875 27.09375 42.890625 30.859375 
Q 38.875 34.625 31.78125 34.625 
z
M 21.921875 38.8125 
Q 15.578125 40.375 12.03125 44.71875 
Q 8.5 49.078125 8.5 55.328125 
Q 8.5 64.0625 14.71875 69.140625 
Q 20.953125 74.21875 31.78125 74.21875 
Q 42.671875 74.21875 48.875 69.140625 
Q 55.078125 64.0625 55.078125 55.328125 
Q 55.078125 49.078125 51.53125 44.71875 
Q 48 40.375 41.703125 38.8125 
Q 48.828125 37.15625 52.796875 32.3125 
Q 56.78125 27.484375 56.78125 20.515625 
Q 56.78125 9.90625 50.3125 4.234375 
Q 43.84375 -1.421875 31.78125 -1.421875 
Q 19.734375 -1.421875 13.25 4.234375 
Q 6.78125 9.90625 6.78125 20.515625 
Q 6.78125 27.484375 10.78125 32.3125 
Q 14.796875 37.15625 21.921875 38.8125 
z
M 18.3125 54.390625 
Q 18.3125 48.734375 21.84375 45.5625 
Q 25.390625 42.390625 31.78125 42.390625 
Q 38.140625 42.390625 41.71875 45.5625 
Q 45.3125 48.734375 45.3125 54.390625 
Q 45.3125 60.0625 41.71875 63.234375 
Q 38.140625 66.40625 31.78125 66.40625 
Q 25.390625 66.40625 21.84375 63.234375 
Q 18.3125 60.0625 18.3125 54.390625 
z
" id="DejaVuSans-56"/>
      </defs>
      <g transform="translate(25.155 101.084532)scale(0.16 -0.16)">
       <use xlink:href="#DejaVuSans-48"/>
       <use x="63.623047" xlink:href="#DejaVuSans-46"/>
       <use x="95.410156" xlink:href="#DejaVuSans-56"/>
      </g>
     </g>
    </g>
    <g id="ytick_6">
     <g id="line2d_39">
      <path clip-path="url(#p973cbcee0b)" d="M 57.6 44.021228 
L 338.688 44.021228 
" style="fill:none;stroke:#b0b0b0;stroke-linecap:square;stroke-width:0.8;"/>
     </g>
     <g id="line2d_40">
      <g>
       <use style="stroke:#000000;stroke-width:0.8;" x="57.6" xlink:href="#m1d3d9b7c9b" y="44.021228"/>
      </g>
     </g>
     <g id="text_11">
      <!-- 1.0 -->
      <g transform="translate(25.155 50.099978)scale(0.16 -0.16)">
       <use xlink:href="#DejaVuSans-49"/>
       <use x="63.623047" xlink:href="#DejaVuSans-46"/>
       <use x="95.410156" xlink:href="#DejaVuSans-48"/>
      </g>
     </g>
    </g>
    <g id="text_12">
     <!-- Fraction of function,target pairs -->
     <defs>
      <path d="M 9.8125 72.90625 
L 51.703125 72.90625 
L 51.703125 64.59375 
L 19.671875 64.59375 
L 19.671875 43.109375 
L 48.578125 43.109375 
L 48.578125 34.8125 
L 19.671875 34.8125 
L 19.671875 0 
L 9.8125 0 
z
" id="DejaVuSans-70"/>
      <path d="M 41.109375 46.296875 
Q 39.59375 47.171875 37.8125 47.578125 
Q 36.03125 48 33.890625 48 
Q 26.265625 48 22.1875 43.046875 
Q 18.109375 38.09375 18.109375 28.8125 
L 18.109375 0 
L 9.078125 0 
L 9.078125 54.6875 
L 18.109375 54.6875 
L 18.109375 46.1875 
Q 20.953125 51.171875 25.484375 53.578125 
Q 30.03125 56 36.53125 56 
Q 37.453125 56 38.578125 55.875 
Q 39.703125 55.765625 41.0625 55.515625 
z
" id="DejaVuSans-114"/>
      <path d="M 48.78125 52.59375 
L 48.78125 44.1875 
Q 44.96875 46.296875 41.140625 47.34375 
Q 37.3125 48.390625 33.40625 48.390625 
Q 24.65625 48.390625 19.8125 42.84375 
Q 14.984375 37.3125 14.984375 27.296875 
Q 14.984375 17.28125 19.8125 11.734375 
Q 24.65625 6.203125 33.40625 6.203125 
Q 37.3125 6.203125 41.140625 7.25 
Q 44.96875 8.296875 48.78125 10.40625 
L 48.78125 2.09375 
Q 45.015625 0.34375 40.984375 -0.53125 
Q 36.96875 -1.421875 32.421875 -1.421875 
Q 20.0625 -1.421875 12.78125 6.34375 
Q 5.515625 14.109375 5.515625 27.296875 
Q 5.515625 40.671875 12.859375 48.328125 
Q 20.21875 56 33.015625 56 
Q 37.15625 56 41.109375 55.140625 
Q 45.0625 54.296875 48.78125 52.59375 
z
" id="DejaVuSans-99"/>
      <path d="M 18.3125 70.21875 
L 18.3125 54.6875 
L 36.8125 54.6875 
L 36.8125 47.703125 
L 18.3125 47.703125 
L 18.3125 18.015625 
Q 18.3125 11.328125 20.140625 9.421875 
Q 21.96875 7.515625 27.59375 7.515625 
L 36.8125 7.515625 
L 36.8125 0 
L 27.59375 0 
Q 17.1875 0 13.234375 3.875 
Q 9.28125 7.765625 9.28125 18.015625 
L 9.28125 47.703125 
L 2.6875 47.703125 
L 2.6875 54.6875 
L 9.28125 54.6875 
L 9.28125 70.21875 
z
" id="DejaVuSans-116"/>
      <path d="M 8.5 21.578125 
L 8.5 54.6875 
L 17.484375 54.6875 
L 17.484375 21.921875 
Q 17.484375 14.15625 20.5 10.265625 
Q 23.53125 6.390625 29.59375 6.390625 
Q 36.859375 6.390625 41.078125 11.03125 
Q 45.3125 15.671875 45.3125 23.6875 
L 45.3125 54.6875 
L 54.296875 54.6875 
L 54.296875 0 
L 45.3125 0 
L 45.3125 8.40625 
Q 42.046875 3.421875 37.71875 1 
Q 33.40625 -1.421875 27.6875 -1.421875 
Q 18.265625 -1.421875 13.375 4.4375 
Q 8.5 10.296875 8.5 21.578125 
z
M 31.109375 56 
z
" id="DejaVuSans-117"/>
      <path d="M 11.71875 12.40625 
L 22.015625 12.40625 
L 22.015625 4 
L 14.015625 -11.625 
L 7.71875 -11.625 
L 11.71875 4 
z
" id="DejaVuSans-44"/>
      <path d="M 18.109375 8.203125 
L 18.109375 -20.796875 
L 9.078125 -20.796875 
L 9.078125 54.6875 
L 18.109375 54.6875 
L 18.109375 46.390625 
Q 20.953125 51.265625 25.265625 53.625 
Q 29.59375 56 35.59375 56 
Q 45.5625 56 51.78125 48.09375 
Q 58.015625 40.1875 58.015625 27.296875 
Q 58.015625 14.40625 51.78125 6.484375 
Q 45.5625 -1.421875 35.59375 -1.421875 
Q 29.59375 -1.421875 25.265625 0.953125 
Q 20.953125 3.328125 18.109375 8.203125 
z
M 48.6875 27.296875 
Q 48.6875 37.203125 44.609375 42.84375 
Q 40.53125 48.484375 33.40625 48.484375 
Q 26.265625 48.484375 22.1875 42.84375 
Q 18.109375 37.203125 18.109375 27.296875 
Q 18.109375 17.390625 22.1875 11.75 
Q 26.265625 6.109375 33.40625 6.109375 
Q 40.53125 6.109375 44.609375 11.75 
Q 48.6875 17.390625 48.6875 27.296875 
z
" id="DejaVuSans-112"/>
     </defs>
     <g transform="translate(17.619531 305.347375)rotate(-90)scale(0.17 -0.17)">
      <use xlink:href="#DejaVuSans-70"/>
      <use x="57.410156" xlink:href="#DejaVuSans-114"/>
      <use x="98.523438" xlink:href="#DejaVuSans-97"/>
      <use x="159.802734" xlink:href="#DejaVuSans-99"/>
      <use x="214.783203" xlink:href="#DejaVuSans-116"/>
      <use x="253.992188" xlink:href="#DejaVuSans-105"/>
      <use x="281.775391" xlink:href="#DejaVuSans-111"/>
      <use x="342.957031" xlink:href="#DejaVuSans-110"/>
      <use x="406.335938" xlink:href="#DejaVuSans-32"/>
      <use x="438.123047" xlink:href="#DejaVuSans-111"/>
      <use x="499.304688" xlink:href="#DejaVuSans-102"/>
      <use x="534.509766" xlink:href="#DejaVuSans-32"/>
      <use x="566.296875" xlink:href="#DejaVuSans-102"/>
      <use x="601.501953" xlink:href="#DejaVuSans-117"/>
      <use x="664.880859" xlink:href="#DejaVuSans-110"/>
      <use x="728.259766" xlink:href="#DejaVuSans-99"/>
      <use x="783.240234" xlink:href="#DejaVuSans-116"/>
      <use x="822.449219" xlink:href="#DejaVuSans-105"/>
      <use x="850.232422" xlink:href="#DejaVuSans-111"/>
      <use x="911.414062" xlink:href="#DejaVuSans-110"/>
      <use x="974.792969" xlink:href="#DejaVuSans-44"/>
      <use x="1006.580078" xlink:href="#DejaVuSans-116"/>
      <use x="1045.789062" xlink:href="#DejaVuSans-97"/>
      <use x="1107.068359" xlink:href="#DejaVuSans-114"/>
      <use x="1148.166016" xlink:href="#DejaVuSans-103"/>
      <use x="1211.642578" xlink:href="#DejaVuSans-101"/>
      <use x="1273.166016" xlink:href="#DejaVuSans-116"/>
      <use x="1312.375" xlink:href="#DejaVuSans-32"/>
      <use x="1344.162109" xlink:href="#DejaVuSans-112"/>
      <use x="1407.638672" xlink:href="#DejaVuSans-97"/>
      <use x="1468.917969" xlink:href="#DejaVuSans-105"/>
      <use x="1496.701172" xlink:href="#DejaVuSans-114"/>
      <use x="1537.814453" xlink:href="#DejaVuSans-115"/>
     </g>
    </g>
   </g>
   <g id="line2d_41">
    <defs>
     <path d="M 0 1.5 
C 0.397805 1.5 0.77937 1.341951 1.06066 1.06066 
C 1.341951 0.77937 1.5 0.397805 1.5 0 
C 1.5 -0.397805 1.341951 -0.77937 1.06066 -1.06066 
C 0.77937 -1.341951 0.397805 -1.5 0 -1.5 
C -0.397805 -1.5 -0.77937 -1.341951 -1.06066 -1.06066 
C -1.341951 -0.77937 -1.5 -0.397805 -1.5 0 
C -1.5 0.397805 -1.341951 0.77937 -1.06066 1.06066 
C -0.77937 1.341951 -0.397805 1.5 0 1.5 
z
" id="m20f9f9f86f" style="stroke:#f5deb3;"/>
    </defs>
    <g>
     <use style="fill:#f5deb3;stroke:#f5deb3;" x="183.572899" xlink:href="#m20f9f9f86f" y="44.021228"/>
     <use style="fill:#f5deb3;stroke:#f5deb3;" x="183.572899" xlink:href="#m20f9f9f86f" y="44.021228"/>
    </g>
   </g>
   <g id="line2d_42">
    <defs>
     <path d="M 0 1.5 
C 0.397805 1.5 0.77937 1.341951 1.06066 1.06066 
C 1.341951 0.77937 1.5 0.397805 1.5 0 
C 1.5 -0.397805 1.341951 -0.77937 1.06066 -1.06066 
C 0.77937 -1.341951 0.397805 -1.5 0 -1.5 
C -0.397805 -1.5 -0.77937 -1.341951 -1.06066 -1.06066 
C -1.341951 -0.77937 -1.5 -0.397805 -1.5 0 
C -1.5 0.397805 -1.341951 0.77937 -1.06066 1.06066 
C -0.77937 1.341951 -0.397805 1.5 0 1.5 
z
" id="md4ab98b660" style="stroke:#000080;"/>
    </defs>
    <g>
     <use style="fill:#000080;stroke:#000080;" x="299.52566" xlink:href="#md4ab98b660" y="44.021228"/>
     <use style="fill:#000080;stroke:#000080;" x="299.52566" xlink:href="#md4ab98b660" y="44.021228"/>
    </g>
   </g>
   <g id="line2d_43">
    <path d="M 17.444571 298.944 
L 17.444571 293.945514 
L 72.125336 293.945514 
L 72.125336 293.445666 
L 73.579452 293.445666 
L 73.579452 292.945817 
L 76.759008 292.945817 
L 76.759008 292.445969 
L 80.416384 292.445969 
L 80.416384 291.94612 
L 82.206598 291.94612 
L 82.206598 291.446271 
L 83.037197 291.446271 
L 83.037197 290.946423 
L 83.438118 290.946423 
L 83.438118 290.446574 
L 83.830028 290.446574 
L 83.830028 289.946726 
L 86.683608 289.946726 
L 86.683608 289.446877 
L 90.242884 289.446877 
L 90.242884 288.947029 
L 90.509138 288.947029 
L 90.509138 288.44718 
L 93.197415 288.44718 
L 93.197415 287.947331 
L 95.125186 287.947331 
L 95.125186 286.947634 
L 95.723163 286.947634 
L 95.723163 285.947937 
L 98.270913 285.947937 
L 98.270913 285.448089 
L 98.771596 285.448089 
L 98.771596 283.948543 
L 99.258306 283.948543 
L 99.258306 283.448694 
L 99.575392 283.448694 
L 99.575392 282.948846 
L 100.192776 282.948846 
L 100.192776 282.448997 
L 100.493461 282.448997 
L 100.493461 281.949149 
L 101.223245 281.949149 
L 101.223245 281.4493 
L 101.365607 281.4493 
L 101.365607 280.949451 
L 102.464508 280.949451 
L 102.464508 279.949754 
L 102.597126 279.949754 
L 102.597126 279.449906 
L 102.989037 279.449906 
L 102.989037 278.450209 
L 103.623262 278.450209 
L 103.623262 277.95036 
L 103.747386 277.95036 
L 103.747386 277.450511 
L 104.355088 277.450511 
L 104.355088 275.950966 
L 104.592361 275.950966 
L 104.592361 275.451117 
L 104.709797 275.451117 
L 104.709797 274.951268 
L 105.621863 274.951268 
L 105.732589 273.451723 
L 106.275913 273.451723 
L 106.275913 272.951874 
L 110.188761 272.951874 
L 110.188761 271.952177 
L 110.358901 271.952177 
L 110.443353 270.95248 
L 112.128456 270.95248 
L 112.128456 270.452631 
L 112.431755 270.452631 
L 112.431755 269.952783 
L 112.58145 269.952783 
L 112.58145 269.452934 
L 113.594805 269.452934 
L 113.594805 268.953086 
L 113.942906 268.953086 
L 114.0117 267.953388 
L 114.216469 267.953388 
L 114.216469 267.45354 
L 115.586238 267.45354 
L 115.586238 266.953691 
L 116.739166 266.953691 
L 116.739166 266.453843 
L 117.030313 266.453843 
L 117.030313 265.953994 
L 117.145424 265.953994 
L 117.145424 265.454146 
L 117.316679 265.454146 
L 117.316679 264.954297 
L 118.310324 264.954297 
L 118.417314 263.9546 
L 118.734401 263.9546 
L 118.734401 263.454751 
L 118.994305 263.454751 
L 118.994305 262.954903 
L 120.093994 262.954903 
L 120.093994 262.455054 
L 121.712041 262.455054 
L 121.712041 261.955206 
L 124.632135 261.955206 
L 124.632135 261.455357 
L 154.412564 261.455357 
L 154.412564 260.955508 
L 155.128803 260.955508 
L 155.238912 259.455963 
L 155.760475 259.455963 
L 155.760475 258.956114 
L 156.236431 258.956114 
L 156.236431 258.456266 
L 157.116308 258.456266 
L 157.116308 257.956417 
L 157.380981 257.956417 
L 157.38669 256.95672 
L 157.787352 256.95672 
L 157.787352 256.456871 
L 158.884591 256.456871 
L 158.962994 255.457174 
L 159.196108 255.457174 
L 159.196108 254.457477 
L 159.497101 254.457477 
L 159.497101 253.957628 
L 159.936602 253.957628 
L 159.936602 252.957931 
L 160.408554 252.957931 
L 160.408554 251.958234 
L 160.55197 251.958234 
L 160.55197 251.458386 
L 161.044837 251.458386 
L 161.044837 250.458688 
L 161.424813 250.458688 
L 161.424813 249.95884 
L 161.627414 249.95884 
L 161.627414 247.959446 
L 161.765627 247.959446 
L 161.765627 246.959748 
L 162.273306 246.959748 
L 162.307779 245.460203 
L 162.712026 245.460203 
L 162.712026 244.460506 
L 163.045324 244.460506 
L 163.045324 243.460808 
L 181.696302 243.460808 
L 181.727431 242.461111 
L 182.431193 242.461111 
L 182.448835 241.461414 
L 182.691294 241.461414 
L 182.776696 239.961868 
L 182.859032 239.961868 
L 182.859032 239.46202 
L 183.347625 239.46202 
L 183.347625 238.962171 
L 183.68319 238.962171 
L 183.68319 238.462323 
L 192.398727 238.462323 
L 192.398727 237.962474 
L 193.187895 237.962474 
L 193.23765 236.462928 
L 193.381723 236.462928 
L 193.448985 235.463231 
L 193.549035 235.463231 
L 193.612796 234.463534 
L 193.78075 234.463534 
L 193.78075 233.463837 
L 193.937277 233.463837 
L 193.982143 231.964291 
L 194.193691 231.964291 
L 194.295072 229.964897 
L 194.313629 229.964897 
L 194.365074 227.465654 
L 194.599782 227.465654 
L 194.599782 226.965805 
L 194.797332 226.965805 
L 194.827373 224.966411 
L 194.911212 224.966411 
L 194.957616 223.966714 
L 195.02831 223.966714 
L 195.111848 220.467774 
L 195.313445 220.467774 
L 195.421437 217.968531 
L 195.431104 217.968531 
L 195.533889 215.969137 
L 195.787599 215.969137 
L 195.823544 214.469591 
L 195.94971 214.469591 
L 195.94971 213.469894 
L 196.102269 213.469894 
L 196.209196 211.4705 
L 196.226441 211.4705 
L 196.265793 209.471105 
L 196.420495 209.471105 
L 196.420495 208.471408 
L 202.987342 208.471408 
L 202.987342 207.97156 
L 203.108484 207.97156 
L 203.108484 207.471711 
L 203.317968 207.471711 
L 203.413622 206.472014 
L 203.43725 206.472014 
L 203.43725 205.972165 
L 203.615061 205.972165 
L 203.615061 205.472317 
L 203.740739 205.472317 
L 203.802642 204.47262 
L 204.034317 204.47262 
L 204.034317 203.472923 
L 204.182004 203.472923 
L 204.182004 202.973074 
L 204.328837 202.973074 
L 204.403334 199.973983 
L 204.654951 199.973983 
L 204.659885 198.974285 
L 204.775264 198.974285 
L 204.775264 198.474437 
L 204.949339 198.474437 
L 205.012684 196.475043 
L 205.284674 196.475043 
L 205.284674 194.975497 
L 205.508437 194.975497 
L 205.583831 192.976103 
L 205.630204 192.976103 
L 205.630204 192.476254 
L 248.55699 192.476254 
L 248.600424 191.476557 
L 248.709935 191.476557 
L 248.817796 188.477465 
L 248.905733 188.477465 
L 248.929402 187.477768 
L 249.080675 187.477768 
L 249.157272 184.978525 
L 249.282516 184.978525 
L 249.390466 179.98004 
L 249.43572 179.98004 
L 249.498188 175.981251 
L 249.553897 175.981251 
L 249.638813 172.98216 
L 249.669009 172.98216 
L 249.748964 169.48322 
L 249.881743 169.48322 
L 249.991362 166.983977 
L 249.995902 166.983977 
L 250.083918 162.48534 
L 250.119907 162.48534 
L 250.147214 161.485642 
L 250.402534 161.485642 
L 250.512497 157.986702 
L 250.536545 157.986702 
L 250.560231 156.987005 
L 250.86822 156.987005 
L 250.962466 154.487762 
L 251.024971 154.487762 
L 251.134049 152.988217 
L 251.166144 152.988217 
L 251.207048 151.488671 
L 251.69368 151.488671 
L 251.728235 150.488974 
L 260.274656 150.488974 
L 260.349916 148.989428 
L 260.763235 148.989428 
L 260.868121 146.490185 
L 260.957496 146.490185 
L 261.01805 144.990639 
L 261.107527 144.990639 
L 261.171546 143.990942 
L 261.266064 143.990942 
L 261.373647 140.492002 
L 261.382721 140.492002 
L 261.486 136.493214 
L 261.572359 136.493214 
L 261.653581 134.493819 
L 261.691751 134.493819 
L 261.788332 130.994879 
L 261.889458 130.994879 
L 262.000304 127.995788 
L 262.163543 127.995788 
L 262.213005 125.996394 
L 262.304202 125.996394 
L 262.304202 125.496545 
L 262.443486 125.496545 
L 262.521406 124.496848 
L 267.228553 124.496848 
L 267.228553 123.996999 
L 267.557323 123.996999 
L 267.557323 123.497151 
L 267.720582 123.497151 
L 267.826938 122.497454 
L 267.848561 122.497454 
L 267.93151 121.497757 
L 268.05239 121.497757 
L 268.147946 118.998514 
L 268.164619 118.998514 
L 268.271375 117.998817 
L 268.318351 117.998817 
L 268.418742 116.499271 
L 268.429955 116.499271 
L 268.481881 114.499877 
L 268.544569 114.499877 
L 268.633077 112.500482 
L 268.666237 112.500482 
L 268.772012 109.001542 
L 268.801707 109.001542 
L 268.834798 107.501997 
L 268.91899 107.501997 
L 269.020851 104.502905 
L 269.033086 104.502905 
L 269.11092 103.503208 
L 269.149853 103.503208 
L 269.15022 102.503511 
L 272.768838 102.503511 
L 272.796796 101.503814 
L 272.899378 101.503814 
L 272.962836 100.504116 
L 273.077402 100.504116 
L 273.155379 98.504722 
L 273.221711 98.504722 
L 273.287762 96.505328 
L 273.338056 96.505328 
L 273.432996 93.006388 
L 273.463927 93.006388 
L 273.573456 92.006691 
L 273.648474 92.006691 
L 273.698094 90.007296 
L 273.777541 90.007296 
L 273.850466 89.007599 
L 273.937521 89.007599 
L 274.036944 88.007902 
L 274.061296 88.007902 
L 274.061296 87.508054 
L 276.619352 87.508054 
L 276.619352 87.008205 
L 276.810985 87.008205 
L 276.912622 86.008508 
L 276.928117 86.008508 
L 276.951697 85.008811 
L 277.040574 85.008811 
L 277.140368 83.009416 
L 277.153368 83.009416 
L 277.219278 80.510174 
L 277.302311 80.510174 
L 277.320336 79.510476 
L 277.45303 79.510476 
L 277.543381 78.010931 
L 277.6307 78.010931 
L 277.729316 76.011536 
L 277.74822 76.011536 
L 277.850681 75.011839 
L 279.863254 75.011839 
L 279.863254 74.511991 
L 280.038384 74.511991 
L 280.128844 73.012445 
L 280.153396 73.012445 
L 280.153396 72.512596 
L 280.351198 72.512596 
L 280.453234 71.013051 
L 280.466222 71.013051 
L 280.51224 69.513505 
L 280.617701 69.513505 
L 280.707626 68.513808 
L 280.729325 68.513808 
L 280.754811 67.514111 
L 280.841317 67.514111 
L 280.841317 67.014262 
L 282.714867 67.014262 
L 282.730488 66.014565 
L 282.877828 66.014565 
L 282.919754 64.015171 
L 282.993615 64.015171 
L 282.993615 63.515322 
L 283.121038 63.515322 
L 283.141637 62.015776 
L 283.2682 62.015776 
L 283.2682 61.515928 
L 283.401016 61.515928 
L 283.497202 60.516231 
L 285.205662 60.516231 
L 285.279358 59.016685 
L 285.413586 59.016685 
L 285.462731 58.016988 
L 285.559582 58.016988 
L 285.559582 57.517139 
L 286.854455 57.517139 
L 286.854455 57.017291 
L 287.137231 57.017291 
L 287.165111 56.017593 
L 287.492961 56.017593 
L 287.492961 55.517745 
L 287.631462 55.517745 
L 287.667983 54.518048 
L 287.959961 54.518048 
L 287.959961 54.018199 
L 288.666011 54.018199 
L 288.666011 53.518351 
L 289.017574 53.518351 
L 289.125721 52.018805 
L 289.245614 52.018805 
L 289.255101 51.019108 
L 290.011683 51.019108 
L 290.011683 50.519259 
L 290.765358 50.519259 
L 290.875545 49.519562 
L 290.887696 49.519562 
L 290.985068 48.519865 
L 291.075412 48.519865 
L 291.075412 48.020016 
L 292.150489 48.020016 
L 292.150489 47.520168 
L 292.272128 47.520168 
L 292.272128 47.020319 
L 292.497967 47.020319 
L 292.510415 46.020622 
L 294.013904 46.020622 
L 294.013904 45.520773 
L 296.530533 45.520773 
L 296.564245 44.521076 
L 299.52566 44.521076 
L 299.52566 44.021228 
L 338.688 44.021228 
L 338.688 44.021228 
" style="fill:none;stroke:#000080;stroke-linecap:square;stroke-width:1.5;"/>
   </g>
   <g id="line2d_44">
    <defs>
     <path d="M 0 6 
C 1.591219 6 3.117479 5.367802 4.242641 4.242641 
C 5.367802 3.117479 6 1.591219 6 0 
C 6 -1.591219 5.367802 -3.117479 4.242641 -4.242641 
C 3.117479 -5.367802 1.591219 -6 0 -6 
C -1.591219 -6 -3.117479 -5.367802 -4.242641 -4.242641 
C -5.367802 -3.117479 -6 -1.591219 -6 0 
C -6 1.591219 -5.367802 3.117479 -4.242641 4.242641 
C -3.117479 5.367802 -1.591219 6 0 6 
z
" id="m02aa5fd05b" style="stroke:#000080;stroke-width:1.5;"/>
    </defs>
    <g>
     <use style="fill-opacity:0;stroke:#000080;stroke-width:1.5;" x="100.493461" xlink:href="#m02aa5fd05b" y="282.448997"/>
     <use style="fill-opacity:0;stroke:#000080;stroke-width:1.5;" x="161.424813" xlink:href="#m02aa5fd05b" y="250.458688"/>
     <use style="fill-opacity:0;stroke:#000080;stroke-width:1.5;" x="205.630204" xlink:href="#m02aa5fd05b" y="192.476254"/>
     <use style="fill-opacity:0;stroke:#000080;stroke-width:1.5;" x="280.088717" xlink:href="#m02aa5fd05b" y="73.512294"/>
     <use style="fill-opacity:0;stroke:#000080;stroke-width:1.5;" x="299.52566" xlink:href="#m02aa5fd05b" y="44.021228"/>
     <use style="fill-opacity:0;stroke:#000080;stroke-width:1.5;" x="338.688" xlink:href="#m02aa5fd05b" y="44.021228"/>
    </g>
   </g>
   <g id="line2d_45">
    <path style="fill:none;stroke:#000080;stroke-linecap:square;stroke-width:1.5;"/>
    <g/>
   </g>
   <g id="line2d_46">
    <path clip-path="url(#p973cbcee0b)" d="M 248.971381 187.477768 
" style="fill:none;stroke:#000080;stroke-linecap:square;stroke-width:1.5;"/>
    <defs>
     <path d="M -12 12 
L 12 -12 
M -12 -12 
L 12 12 
" id="mc5a09cf743" style="stroke:#000080;"/>
    </defs>
    <g clip-path="url(#p973cbcee0b)">
     <use style="fill:#000080;stroke:#000080;" x="248.971381" xlink:href="#mc5a09cf743" y="187.477768"/>
    </g>
   </g>
   <g id="line2d_47">
    <defs>
     <path d="M 0 1.5 
C 0.397805 1.5 0.77937 1.341951 1.06066 1.06066 
C 1.341951 0.77937 1.5 0.397805 1.5 0 
C 1.5 -0.397805 1.341951 -0.77937 1.06066 -1.06066 
C 0.77937 -1.341951 0.397805 -1.5 0 -1.5 
C -0.397805 -1.5 -0.77937 -1.341951 -1.06066 -1.06066 
C -1.341951 -0.77937 -1.5 -0.397805 -1.5 0 
C -1.5 0.397805 -1.341951 0.77937 -1.06066 1.06066 
C -0.77937 1.341951 -0.397805 1.5 0 1.5 
z
" id="m1dc7f4d258" style="stroke:#ff00ff;"/>
    </defs>
    <g>
     <use style="fill:#ff00ff;stroke:#ff00ff;" x="281.582349" xlink:href="#m1dc7f4d258" y="44.021228"/>
     <use style="fill:#ff00ff;stroke:#ff00ff;" x="281.582349" xlink:href="#m1dc7f4d258" y="44.021228"/>
    </g>
   </g>
   <g id="line2d_48">
    <path d="M 17.444571 298.944 
L 17.444571 293.945514 
L 45.512012 293.945514 
L 45.512012 293.445666 
L 80.881459 293.445666 
L 80.881459 292.945817 
L 85.66744 292.945817 
L 85.66744 292.445969 
L 90.509138 292.445969 
L 90.509138 291.446271 
L 91.029752 291.446271 
L 91.029752 290.946423 
L 93.422441 290.946423 
L 93.422441 290.446574 
L 95.125186 290.446574 
L 95.125186 289.946726 
L 96.301313 289.946726 
L 96.301313 289.446877 
L 97.403108 289.446877 
L 97.403108 288.947029 
L 97.580158 288.947029 
L 97.580158 288.44718 
L 98.100772 288.44718 
L 98.100772 287.947331 
L 98.43941 287.947331 
L 98.43941 287.447483 
L 98.771596 287.447483 
L 98.771596 286.947634 
L 99.097574 286.947634 
L 99.097574 286.447786 
L 100.040467 286.447786 
L 100.040467 285.947937 
L 100.641881 285.947937 
L 100.641881 285.448089 
L 100.789049 285.448089 
L 100.789049 284.94824 
L 102.859376 284.94824 
L 102.859376 283.948543 
L 103.245502 283.948543 
L 103.245502 283.448694 
L 103.623262 283.448694 
L 103.623262 282.448997 
L 103.993014 282.448997 
L 103.993014 281.949149 
L 104.355088 281.949149 
L 104.355088 281.4493 
L 105.057436 281.4493 
L 105.057436 280.949451 
L 105.285403 280.949451 
L 105.285403 280.449603 
L 105.51043 280.449603 
L 105.51043 279.949754 
L 105.842616 279.949754 
L 105.842616 279.449906 
L 106.06061 279.449906 
L 106.06061 278.950057 
L 106.275913 278.950057 
L 106.382575 277.95036 
L 106.698704 277.95036 
L 106.698704 277.450511 
L 107.514726 277.450511 
L 107.514726 276.950663 
L 108.671345 276.950663 
L 108.671345 276.450814 
L 109.491096 276.450814 
L 109.491096 275.451117 
L 109.930396 275.451117 
L 109.930396 274.951268 
L 110.358901 274.951268 
L 110.358901 274.45142 
L 110.694282 274.45142 
L 110.77713 272.951874 
L 111.023335 272.951874 
L 111.023335 272.452026 
L 111.346294 272.452026 
L 111.346294 271.952177 
L 112.051799 271.952177 
L 112.051799 271.452328 
L 112.58145 271.452328 
L 112.58145 270.95248 
L 113.022974 270.95248 
L 113.022974 270.452631 
L 114.284194 270.452631 
L 114.284194 269.452934 
L 114.816733 269.452934 
L 114.816733 268.453237 
L 115.586238 268.453237 
L 115.586238 267.953388 
L 116.262979 267.953388 
L 116.262979 267.45354 
L 116.739166 267.45354 
L 116.739166 266.953691 
L 117.930605 266.953691 
L 117.930605 265.953994 
L 119.996839 265.953994 
L 120.093994 264.954297 
L 120.142369 264.954297 
L 120.142369 264.454448 
L 120.571812 264.454448 
L 120.571812 263.9546 
L 120.852343 263.9546 
L 120.852343 263.454751 
L 121.712041 263.454751 
L 121.712041 262.954903 
L 123.313873 262.954903 
L 123.313873 262.455054 
L 123.434283 262.455054 
L 123.434283 261.955206 
L 123.790603 261.955206 
L 123.790603 261.455357 
L 123.907776 261.455357 
L 123.907776 260.955508 
L 124.139788 260.955508 
L 124.178158 259.455963 
L 124.817858 259.455963 
L 124.817858 258.956114 
L 125.434921 258.956114 
L 125.434921 258.456266 
L 126.168212 258.456266 
L 126.168212 257.956417 
L 126.405947 257.956417 
L 126.405947 256.95672 
L 127.100304 256.95672 
L 127.100304 256.456871 
L 127.325746 256.456871 
L 127.389626 255.457174 
L 128.32077 255.457174 
L 128.32077 254.957326 
L 128.856489 254.957326 
L 128.856489 254.457477 
L 129.376241 254.457477 
L 129.376241 253.957628 
L 129.602362 253.957628 
L 129.602362 253.45778 
L 129.963666 253.45778 
L 129.963666 252.458083 
L 130.127931 252.458083 
L 130.236587 251.458386 
L 130.371462 251.458386 
L 130.371462 250.958537 
L 130.900768 250.958537 
L 130.900768 250.458688 
L 131.133813 250.458688 
L 131.133813 249.95884 
L 131.389151 249.95884 
L 131.414481 248.459294 
L 131.665771 248.459294 
L 131.665771 247.959446 
L 132.636218 247.959446 
L 132.70687 246.959748 
L 132.940331 246.959748 
L 132.940331 246.4599 
L 133.555497 246.4599 
L 133.555497 245.960051 
L 133.689303 245.960051 
L 133.689303 245.460203 
L 134.019394 245.460203 
L 134.019394 244.960354 
L 134.807865 244.960354 
L 134.849486 243.960657 
L 135.056115 243.960657 
L 135.138086 242.461111 
L 136.015217 242.461111 
L 136.015217 241.961263 
L 136.304433 241.961263 
L 136.304433 241.461414 
L 136.513517 241.461414 
L 136.513517 240.961566 
L 136.831795 240.961566 
L 136.831795 240.461717 
L 137.39764 240.461717 
L 137.39764 239.961868 
L 137.980475 239.961868 
L 137.980475 239.46202 
L 138.628343 239.46202 
L 138.711825 238.462323 
L 139.980403 238.462323 
L 139.980403 237.962474 
L 140.149942 237.962474 
L 140.149942 237.462626 
L 140.438956 237.462626 
L 140.438956 236.962777 
L 141.090414 236.962777 
L 141.090414 236.462928 
L 141.506851 236.462928 
L 141.591783 235.463231 
L 141.620002 235.463231 
L 141.620002 234.963383 
L 141.732423 234.963383 
L 141.788363 233.963685 
L 142.256745 233.963685 
L 142.256745 233.463837 
L 142.566605 233.463837 
L 142.566605 232.963988 
L 142.699628 232.963988 
L 142.699628 232.46414 
L 142.910378 232.46414 
L 142.910378 231.964291 
L 154.146519 231.964291 
L 154.146519 231.464443 
L 154.324333 231.464443 
L 154.324333 230.964594 
L 154.453136 230.964594 
L 154.547439 229.465048 
L 155.55879 229.465048 
L 155.55879 228.9652 
L 155.990803 228.9652 
L 155.990803 228.465351 
L 157.528821 228.465351 
L 157.528821 227.965503 
L 157.652944 227.965503 
L 157.652944 226.965805 
L 157.920731 226.965805 
L 157.920731 226.465957 
L 158.179014 226.465957 
L 158.255216 223.966714 
L 158.471118 223.966714 
L 158.471118 222.967017 
L 158.594062 222.967017 
L 158.594062 222.467168 
L 158.826871 222.467168 
L 158.832127 221.467471 
L 159.385473 221.467471 
L 159.385473 220.967623 
L 159.507213 220.967623 
L 159.507213 220.467774 
L 159.638147 220.467774 
L 159.718236 218.968228 
L 160.360486 218.968228 
L 160.437332 217.968531 
L 160.532916 217.968531 
L 160.532916 217.468683 
L 160.675317 217.468683 
L 160.675317 216.968834 
L 166.285986 216.968834 
L 166.285986 216.468985 
L 175.707673 216.468985 
L 175.707673 215.969137 
L 175.981034 215.969137 
L 175.981034 215.469288 
L 178.187935 215.469288 
L 178.187935 214.96944 
L 186.944696 214.96944 
L 186.944696 214.469591 
L 187.171711 214.469591 
L 187.171711 213.969743 
L 188.116129 213.969743 
L 188.116129 213.469894 
L 196.977061 213.469894 
L 196.977061 212.470197 
L 199.088671 212.470197 
L 199.088671 211.970348 
L 203.281038 211.970348 
L 203.281038 211.4705 
L 206.955668 211.4705 
L 206.955668 210.970651 
L 207.725015 210.970651 
L 207.725015 210.470803 
L 215.678047 210.470803 
L 215.678047 209.970954 
L 216.186901 209.970954 
L 216.186901 209.471105 
L 216.302924 209.471105 
L 216.302924 208.471408 
L 216.430939 208.471408 
L 216.430939 206.971863 
L 216.677898 206.971863 
L 216.677898 205.472317 
L 216.79071 205.472317 
L 216.890566 202.973074 
L 216.964757 202.973074 
L 216.964757 201.973377 
L 217.13096 201.973377 
L 217.196186 198.974285 
L 217.244946 198.974285 
L 217.244946 198.474437 
L 217.489814 198.474437 
L 217.508718 194.975497 
L 225.602022 194.975497 
L 225.630895 193.475951 
L 225.944154 193.475951 
L 225.944154 192.976103 
L 226.06236 192.976103 
L 226.069478 191.476557 
L 226.352172 191.476557 
L 226.379285 189.977011 
L 226.587233 189.977011 
L 226.641445 186.478071 
L 226.891132 186.478071 
L 226.944514 184.478677 
L 227.772693 184.478677 
L 227.823548 182.479282 
L 228.035436 182.479282 
L 228.058766 180.979737 
L 230.091662 180.979737 
L 230.136898 177.980645 
L 230.391302 177.980645 
L 230.391302 177.480797 
L 231.319453 177.480797 
L 231.351846 174.481705 
L 231.554206 174.481705 
L 231.554206 173.981857 
L 232.696175 173.981857 
L 232.706362 172.98216 
L 232.900446 172.98216 
L 232.900672 171.982462 
L 233.033719 171.982462 
L 233.048406 170.482917 
L 233.256866 170.482917 
L 233.262093 169.48322 
L 233.455948 169.48322 
L 233.50473 167.483825 
L 233.673359 167.483825 
L 233.755134 164.484734 
L 234.093829 164.484734 
L 234.093829 163.984885 
L 234.341924 163.984885 
L 234.341924 163.485037 
L 234.688861 163.485037 
L 234.688861 162.985188 
L 235.065844 162.985188 
L 235.065844 162.48534 
L 235.436866 162.48534 
L 235.463879 159.986097 
L 235.607717 159.986097 
L 235.619554 158.9864 
L 236.447612 158.9864 
L 236.447612 158.486551 
L 236.783489 158.486551 
L 236.783489 157.986702 
L 236.897533 157.986702 
L 236.897533 157.486854 
L 237.618937 157.486854 
L 237.69258 156.487157 
L 237.803743 156.487157 
L 237.885932 154.987611 
L 238.020491 154.987611 
L 238.03007 153.987914 
L 238.449349 153.987914 
L 238.449349 153.488065 
L 238.632099 153.488065 
L 238.632099 152.988217 
L 238.994442 152.988217 
L 239.007209 150.988822 
L 239.110797 150.988822 
L 239.110797 150.488974 
L 239.268687 150.488974 
L 239.305998 148.989428 
L 240.067405 148.989428 
L 240.067405 148.489579 
L 240.247804 148.489579 
L 240.247804 147.989731 
L 240.503218 147.989731 
L 240.569384 146.490185 
L 240.896977 146.490185 
L 240.906478 145.490488 
L 241.055293 145.490488 
L 241.055293 144.990639 
L 241.56168 144.990639 
L 241.56168 144.490791 
L 241.894888 144.490791 
L 241.990564 142.991245 
L 242.038696 142.991245 
L 242.038696 142.491397 
L 242.16839 142.491397 
L 242.16839 141.991548 
L 242.288222 141.991548 
L 242.288222 141.491699 
L 242.842174 141.491699 
L 242.842174 140.991851 
L 243.187662 140.991851 
L 243.26271 139.992154 
L 243.410075 139.992154 
L 243.441025 138.992457 
L 243.620178 138.992457 
L 243.620178 138.492608 
L 243.76263 138.492608 
L 243.76263 137.992759 
L 243.942476 137.992759 
L 243.942476 137.492911 
L 244.078926 137.492911 
L 244.101241 136.493214 
L 244.19423 136.493214 
L 244.211055 134.493819 
L 244.373945 134.493819 
L 244.373945 133.993971 
L 245.36649 133.993971 
L 245.445485 132.994274 
L 245.500054 132.994274 
L 245.547794 130.994879 
L 245.707627 130.994879 
L 245.796579 129.495334 
L 245.958424 129.495334 
L 245.964039 128.495637 
L 246.349946 128.495637 
L 246.349946 127.995788 
L 246.530613 127.995788 
L 246.551619 126.996091 
L 247.000648 126.996091 
L 247.000648 126.496242 
L 247.145301 126.496242 
L 247.237506 125.496545 
L 247.398652 125.496545 
L 247.398652 124.996697 
L 247.550894 124.996697 
L 247.601563 123.996999 
L 247.894859 123.996999 
L 248.000278 122.497454 
L 248.023724 122.497454 
L 248.023724 121.997605 
L 248.559471 121.997605 
L 248.559471 121.497757 
L 248.675049 121.497757 
L 248.675049 120.997908 
L 248.949895 120.997908 
L 249.019106 119.998211 
L 249.31917 119.998211 
L 249.381968 118.498665 
L 249.444163 118.498665 
L 249.550455 117.498968 
L 249.684318 117.498968 
L 249.684318 116.999119 
L 249.822516 116.999119 
L 249.822516 116.499271 
L 250.024192 116.499271 
L 250.024192 115.999422 
L 250.30983 115.999422 
L 250.332942 114.999725 
L 250.431465 114.999725 
L 250.499132 113.000331 
L 250.618642 113.000331 
L 250.713458 111.000937 
L 250.739635 111.000937 
L 250.842665 109.501391 
L 250.893792 109.501391 
L 250.893792 109.001542 
L 251.156464 109.001542 
L 251.213624 108.001845 
L 251.505677 108.001845 
L 251.505677 107.501997 
L 251.622719 107.501997 
L 251.729486 106.002451 
L 251.761779 106.002451 
L 251.761779 105.502602 
L 252.134402 105.502602 
L 252.134402 105.002754 
L 252.284129 105.002754 
L 252.284129 104.502905 
L 252.428879 104.502905 
L 252.431086 103.503208 
L 252.547703 103.503208 
L 252.619615 102.003662 
L 252.68623 102.003662 
L 252.708861 101.003965 
L 252.806752 101.003965 
L 252.851794 100.004268 
L 253.055764 100.004268 
L 253.055764 99.504419 
L 253.406803 99.504419 
L 253.456383 98.504722 
L 253.807575 98.504722 
L 253.81 97.505025 
L 254.203509 97.505025 
L 254.229455 96.005479 
L 254.575435 96.005479 
L 254.637696 94.505934 
L 254.741245 94.505934 
L 254.741245 94.006085 
L 254.960078 94.006085 
L 254.960078 93.506236 
L 255.15901 93.506236 
L 255.15901 93.006388 
L 255.399338 93.006388 
L 255.460937 92.006691 
L 255.637909 92.006691 
L 255.647885 91.006994 
L 255.788118 91.006994 
L 255.788118 90.507145 
L 256.022922 90.507145 
L 256.022922 90.007296 
L 256.149882 90.007296 
L 256.2065 88.507751 
L 256.273071 88.507751 
L 256.353457 87.008205 
L 256.432577 87.008205 
L 256.523175 86.008508 
L 256.766435 86.008508 
L 256.803978 85.008811 
L 257.224718 85.008811 
L 257.251117 84.009114 
L 257.69484 84.009114 
L 257.69484 83.509265 
L 258.070141 83.509265 
L 258.070141 83.009416 
L 258.270104 83.009416 
L 258.270104 82.509568 
L 258.387115 82.509568 
L 258.387115 82.009719 
L 258.702403 82.009719 
L 258.702403 81.509871 
L 259.355232 81.509871 
L 259.380704 80.510174 
L 259.908587 80.510174 
L 259.952809 79.010628 
L 260.263814 79.010628 
L 260.263814 78.510779 
L 260.580239 78.510779 
L 260.658816 77.511082 
L 260.746984 77.511082 
L 260.804221 76.511385 
L 260.926907 76.511385 
L 261.02815 74.511991 
L 261.041731 74.511991 
L 261.041731 74.012142 
L 261.208412 74.012142 
L 261.305046 73.012445 
L 261.492682 73.012445 
L 261.542845 71.512899 
L 261.636433 71.512899 
L 261.636433 71.013051 
L 261.918335 71.013051 
L 261.918335 70.513202 
L 262.563007 70.513202 
L 262.563007 70.013354 
L 262.683281 70.013354 
L 262.721998 69.013656 
L 262.925441 69.013656 
L 262.925441 68.513808 
L 263.175387 68.513808 
L 263.175387 68.013959 
L 263.700211 68.013959 
L 263.700211 67.514111 
L 263.855577 67.514111 
L 263.855577 67.014262 
L 264.021247 67.014262 
L 264.021247 66.514414 
L 264.739296 66.514414 
L 264.752017 65.514716 
L 264.90621 65.514716 
L 264.90621 65.014868 
L 265.139315 65.014868 
L 265.139315 64.515019 
L 265.277577 64.515019 
L 265.355208 63.015474 
L 265.525642 63.015474 
L 265.525642 62.515625 
L 266.596379 62.515625 
L 266.596379 62.015776 
L 266.764744 62.015776 
L 266.764744 61.515928 
L 267.074416 61.515928 
L 267.074416 61.016079 
L 267.671238 61.016079 
L 267.699841 60.016382 
L 267.875823 60.016382 
L 267.889999 59.016685 
L 268.207715 59.016685 
L 268.237464 58.016988 
L 268.38097 58.016988 
L 268.38097 57.517139 
L 268.747974 57.517139 
L 268.829301 56.517442 
L 269.010419 56.517442 
L 269.010419 56.017593 
L 269.420838 56.017593 
L 269.53145 54.518048 
L 269.629431 54.518048 
L 269.684194 53.518351 
L 269.748901 53.518351 
L 269.748901 53.018502 
L 270.686481 53.018502 
L 270.686481 52.518653 
L 270.984924 52.518653 
L 270.984924 52.018805 
L 271.691007 52.018805 
L 271.761252 51.019108 
L 271.991623 51.019108 
L 271.991623 50.519259 
L 272.111713 50.519259 
L 272.111713 50.019411 
L 273.6172 50.019411 
L 273.725065 49.019713 
L 273.909303 49.019713 
L 273.909303 48.519865 
L 274.682019 48.519865 
L 274.682019 48.020016 
L 274.941393 48.020016 
L 275.047308 47.020319 
L 275.712615 47.020319 
L 275.712615 46.520471 
L 276.034962 46.520471 
L 276.091271 45.520773 
L 276.163211 45.520773 
L 276.163211 45.020925 
L 277.515567 45.020925 
L 277.515567 44.521076 
L 281.582349 44.521076 
L 281.582349 44.021228 
L 338.688 44.021228 
L 338.688 44.021228 
" style="fill:none;stroke:#ff00ff;stroke-linecap:square;stroke-width:1.5;"/>
   </g>
   <g id="line2d_49">
    <defs>
     <path d="M -0 8.485281 
L 5.091169 0 
L 0 -8.485281 
L -5.091169 -0 
z
" id="m832105d278" style="stroke:#ff00ff;stroke-linejoin:miter;stroke-width:1.5;"/>
    </defs>
    <g>
     <use style="fill-opacity:0;stroke:#ff00ff;stroke-linejoin:miter;stroke-width:1.5;" x="85.66744" xlink:href="#m832105d278" y="292.445969"/>
     <use style="fill-opacity:0;stroke:#ff00ff;stroke-linejoin:miter;stroke-width:1.5;" x="159.385473" xlink:href="#m832105d278" y="220.967623"/>
     <use style="fill-opacity:0;stroke:#ff00ff;stroke-linejoin:miter;stroke-width:1.5;" x="228.058766" xlink:href="#m832105d278" y="180.979737"/>
     <use style="fill-opacity:0;stroke:#ff00ff;stroke-linejoin:miter;stroke-width:1.5;" x="271.991623" xlink:href="#m832105d278" y="51.019108"/>
     <use style="fill-opacity:0;stroke:#ff00ff;stroke-linejoin:miter;stroke-width:1.5;" x="281.582349" xlink:href="#m832105d278" y="44.021228"/>
     <use style="fill-opacity:0;stroke:#ff00ff;stroke-linejoin:miter;stroke-width:1.5;" x="338.688" xlink:href="#m832105d278" y="44.021228"/>
    </g>
   </g>
   <g id="line2d_50">
    <path style="fill:none;stroke:#ff00ff;stroke-linecap:square;stroke-width:1.5;"/>
    <g/>
   </g>
   <g id="line2d_51">
    <path clip-path="url(#p973cbcee0b)" d="M 231.282713 177.480797 
" style="fill:none;stroke:#ff00ff;stroke-linecap:square;stroke-width:1.5;"/>
    <defs>
     <path d="M -12 12 
L 12 -12 
M -12 -12 
L 12 12 
" id="mcee55e3c58" style="stroke:#ff00ff;"/>
    </defs>
    <g clip-path="url(#p973cbcee0b)">
     <use style="fill:#ff00ff;stroke:#ff00ff;" x="231.282713" xlink:href="#mcee55e3c58" y="177.480797"/>
    </g>
   </g>
   <g id="line2d_52">
    <path d="M 338.688 44.021228 
L 369.60768 293.845545 
" style="fill:none;stroke:#000080;stroke-linecap:square;stroke-width:1.5;"/>
    <g>
     <use style="fill-opacity:0;stroke:#000080;stroke-width:1.5;" x="338.688" xlink:href="#m02aa5fd05b" y="44.021228"/>
     <use style="fill-opacity:0;stroke:#000080;stroke-width:1.5;" x="369.60768" xlink:href="#m02aa5fd05b" y="293.845545"/>
    </g>
   </g>
   <g id="line2d_53">
    <path d="M 338.688 44.021228 
L 369.60768 171.482614 
" style="fill:none;stroke:#ff00ff;stroke-linecap:square;stroke-width:1.5;"/>
    <g>
     <use style="fill-opacity:0;stroke:#ff00ff;stroke-linejoin:miter;stroke-width:1.5;" x="338.688" xlink:href="#m832105d278" y="44.021228"/>
     <use style="fill-opacity:0;stroke:#ff00ff;stroke-linejoin:miter;stroke-width:1.5;" x="369.60768" xlink:href="#m832105d278" y="171.482614"/>
    </g>
   </g>
   <g id="line2d_54">
    <path d="M 338.688 298.944 
L 338.688 44.021228 
" style="fill:none;stroke:#000000;stroke-linecap:square;stroke-width:1.5;"/>
   </g>
   <g id="patch_3">
    <path d="M 57.6 298.944 
L 57.6 41.472 
" style="fill:none;stroke:#000000;stroke-linecap:square;stroke-linejoin:miter;stroke-width:0.8;"/>
   </g>
   <g id="patch_4">
    <path d="M 338.688 298.944 
L 338.688 41.472 
" style="fill:none;stroke:#000000;stroke-linecap:square;stroke-linejoin:miter;stroke-width:0.8;"/>
   </g>
   <g id="patch_5">
    <path d="M 57.6 298.944 
L 338.688 298.944 
" style="fill:none;stroke:#000000;stroke-linecap:square;stroke-linejoin:miter;stroke-width:0.8;"/>
   </g>
   <g id="patch_6">
    <path d="M 57.6 41.472 
L 338.688 41.472 
" style="fill:none;stroke:#000000;stroke-linecap:square;stroke-linejoin:miter;stroke-width:0.8;"/>
   </g>
   <g id="text_13">
    <!-- CMA-ES  2 -->
    <defs>
     <path d="M 64.40625 67.28125 
L 64.40625 56.890625 
Q 59.421875 61.53125 53.78125 63.8125 
Q 48.140625 66.109375 41.796875 66.109375 
Q 29.296875 66.109375 22.65625 58.46875 
Q 16.015625 50.828125 16.015625 36.375 
Q 16.015625 21.96875 22.65625 14.328125 
Q 29.296875 6.6875 41.796875 6.6875 
Q 48.140625 6.6875 53.78125 8.984375 
Q 59.421875 11.28125 64.40625 15.921875 
L 64.40625 5.609375 
Q 59.234375 2.09375 53.4375 0.328125 
Q 47.65625 -1.421875 41.21875 -1.421875 
Q 24.65625 -1.421875 15.125 8.703125 
Q 5.609375 18.84375 5.609375 36.375 
Q 5.609375 53.953125 15.125 64.078125 
Q 24.65625 74.21875 41.21875 74.21875 
Q 47.75 74.21875 53.53125 72.484375 
Q 59.328125 70.75 64.40625 67.28125 
z
" id="DejaVuSans-67"/>
     <path d="M 9.8125 72.90625 
L 24.515625 72.90625 
L 43.109375 23.296875 
L 61.8125 72.90625 
L 76.515625 72.90625 
L 76.515625 0 
L 66.890625 0 
L 66.890625 64.015625 
L 48.09375 14.015625 
L 38.1875 14.015625 
L 19.390625 64.015625 
L 19.390625 0 
L 9.8125 0 
z
" id="DejaVuSans-77"/>
     <path d="M 34.1875 63.1875 
L 20.796875 26.90625 
L 47.609375 26.90625 
z
M 28.609375 72.90625 
L 39.796875 72.90625 
L 67.578125 0 
L 57.328125 0 
L 50.6875 18.703125 
L 17.828125 18.703125 
L 11.1875 0 
L 0.78125 0 
z
" id="DejaVuSans-65"/>
     <path d="M 9.8125 72.90625 
L 55.90625 72.90625 
L 55.90625 64.59375 
L 19.671875 64.59375 
L 19.671875 43.015625 
L 54.390625 43.015625 
L 54.390625 34.71875 
L 19.671875 34.71875 
L 19.671875 8.296875 
L 56.78125 8.296875 
L 56.78125 0 
L 9.8125 0 
z
" id="DejaVuSans-69"/>
     <path d="M 53.515625 70.515625 
L 53.515625 60.890625 
Q 47.90625 63.578125 42.921875 64.890625 
Q 37.9375 66.21875 33.296875 66.21875 
Q 25.25 66.21875 20.875 63.09375 
Q 16.5 59.96875 16.5 54.203125 
Q 16.5 49.359375 19.40625 46.890625 
Q 22.3125 44.4375 30.421875 42.921875 
L 36.375 41.703125 
Q 47.40625 39.59375 52.65625 34.296875 
Q 57.90625 29 57.90625 20.125 
Q 57.90625 9.515625 50.796875 4.046875 
Q 43.703125 -1.421875 29.984375 -1.421875 
Q 24.8125 -1.421875 18.96875 -0.25 
Q 13.140625 0.921875 6.890625 3.21875 
L 6.890625 13.375 
Q 12.890625 10.015625 18.65625 8.296875 
Q 24.421875 6.59375 29.984375 6.59375 
Q 38.421875 6.59375 43.015625 9.90625 
Q 47.609375 13.234375 47.609375 19.390625 
Q 47.609375 24.75 44.3125 27.78125 
Q 41.015625 30.8125 33.5 32.328125 
L 27.484375 33.5 
Q 16.453125 35.6875 11.515625 40.375 
Q 6.59375 45.0625 6.59375 53.421875 
Q 6.59375 63.09375 13.40625 68.65625 
Q 20.21875 74.21875 32.171875 74.21875 
Q 37.3125 74.21875 42.625 73.28125 
Q 47.953125 72.359375 53.515625 70.515625 
z
" id="DejaVuSans-83"/>
    </defs>
    <g transform="translate(375.22944 298.536482)scale(0.17 -0.17)">
     <use xlink:href="#DejaVuSans-67"/>
     <use x="69.824219" xlink:href="#DejaVuSans-77"/>
     <use x="156.103516" xlink:href="#DejaVuSans-65"/>
     <use x="224.480469" xlink:href="#DejaVuSans-45"/>
     <use x="260.564453" xlink:href="#DejaVuSans-69"/>
     <use x="323.748047" xlink:href="#DejaVuSans-83"/>
     <use x="387.224609" xlink:href="#DejaVuSans-32"/>
     <use x="419.011719" xlink:href="#DejaVuSans-32"/>
     <use x="450.798828" xlink:href="#DejaVuSans-50"/>
    </g>
   </g>
   <g id="text_14">
    <!-- lq-CMA-ES -->
    <defs>
     <path d="M 14.796875 27.296875 
Q 14.796875 17.390625 18.875 11.75 
Q 22.953125 6.109375 30.078125 6.109375 
Q 37.203125 6.109375 41.296875 11.75 
Q 45.40625 17.390625 45.40625 27.296875 
Q 45.40625 37.203125 41.296875 42.84375 
Q 37.203125 48.484375 30.078125 48.484375 
Q 22.953125 48.484375 18.875 42.84375 
Q 14.796875 37.203125 14.796875 27.296875 
z
M 45.40625 8.203125 
Q 42.578125 3.328125 38.25 0.953125 
Q 33.9375 -1.421875 27.875 -1.421875 
Q 17.96875 -1.421875 11.734375 6.484375 
Q 5.515625 14.40625 5.515625 27.296875 
Q 5.515625 40.1875 11.734375 48.09375 
Q 17.96875 56 27.875 56 
Q 33.9375 56 38.25 53.625 
Q 42.578125 51.265625 45.40625 46.390625 
L 45.40625 54.6875 
L 54.390625 54.6875 
L 54.390625 -20.796875 
L 45.40625 -20.796875 
z
" id="DejaVuSans-113"/>
    </defs>
    <g transform="translate(375.22944 176.173551)scale(0.17 -0.17)">
     <use xlink:href="#DejaVuSans-108"/>
     <use x="27.783203" xlink:href="#DejaVuSans-113"/>
     <use x="91.259766" xlink:href="#DejaVuSans-45"/>
     <use x="127.34375" xlink:href="#DejaVuSans-67"/>
     <use x="197.167969" xlink:href="#DejaVuSans-77"/>
     <use x="283.447266" xlink:href="#DejaVuSans-65"/>
     <use x="351.824219" xlink:href="#DejaVuSans-45"/>
     <use x="387.908203" xlink:href="#DejaVuSans-69"/>
     <use x="451.091797" xlink:href="#DejaVuSans-83"/>
    </g>
   </g>
   <g id="text_15">
    <!-- best 2009 -->
    <defs>
     <path d="M 48.6875 27.296875 
Q 48.6875 37.203125 44.609375 42.84375 
Q 40.53125 48.484375 33.40625 48.484375 
Q 26.265625 48.484375 22.1875 42.84375 
Q 18.109375 37.203125 18.109375 27.296875 
Q 18.109375 17.390625 22.1875 11.75 
Q 26.265625 6.109375 33.40625 6.109375 
Q 40.53125 6.109375 44.609375 11.75 
Q 48.6875 17.390625 48.6875 27.296875 
z
M 18.109375 46.390625 
Q 20.953125 51.265625 25.265625 53.625 
Q 29.59375 56 35.59375 56 
Q 45.5625 56 51.78125 48.09375 
Q 58.015625 40.1875 58.015625 27.296875 
Q 58.015625 14.40625 51.78125 6.484375 
Q 45.5625 -1.421875 35.59375 -1.421875 
Q 29.59375 -1.421875 25.265625 0.953125 
Q 20.953125 3.328125 18.109375 8.203125 
L 18.109375 0 
L 9.078125 0 
L 9.078125 75.984375 
L 18.109375 75.984375 
z
" id="DejaVuSans-98"/>
     <path d="M 10.984375 1.515625 
L 10.984375 10.5 
Q 14.703125 8.734375 18.5 7.8125 
Q 22.3125 6.890625 25.984375 6.890625 
Q 35.75 6.890625 40.890625 13.453125 
Q 46.046875 20.015625 46.78125 33.40625 
Q 43.953125 29.203125 39.59375 26.953125 
Q 35.25 24.703125 29.984375 24.703125 
Q 19.046875 24.703125 12.671875 31.3125 
Q 6.296875 37.9375 6.296875 49.421875 
Q 6.296875 60.640625 12.9375 67.421875 
Q 19.578125 74.21875 30.609375 74.21875 
Q 43.265625 74.21875 49.921875 64.515625 
Q 56.59375 54.828125 56.59375 36.375 
Q 56.59375 19.140625 48.40625 8.859375 
Q 40.234375 -1.421875 26.421875 -1.421875 
Q 22.703125 -1.421875 18.890625 -0.6875 
Q 15.09375 0.046875 10.984375 1.515625 
z
M 30.609375 32.421875 
Q 37.25 32.421875 41.125 36.953125 
Q 45.015625 41.5 45.015625 49.421875 
Q 45.015625 57.28125 41.125 61.84375 
Q 37.25 66.40625 30.609375 66.40625 
Q 23.96875 66.40625 20.09375 61.84375 
Q 16.21875 57.28125 16.21875 49.421875 
Q 16.21875 41.5 20.09375 36.953125 
Q 23.96875 32.421875 30.609375 32.421875 
z
" id="DejaVuSans-57"/>
    </defs>
    <g transform="translate(375.22944 53.810621)scale(0.17 -0.17)">
     <use xlink:href="#DejaVuSans-98"/>
     <use x="63.476562" xlink:href="#DejaVuSans-101"/>
     <use x="125" xlink:href="#DejaVuSans-115"/>
     <use x="177.099609" xlink:href="#DejaVuSans-116"/>
     <use x="216.308594" xlink:href="#DejaVuSans-32"/>
     <use x="248.095703" xlink:href="#DejaVuSans-50"/>
     <use x="311.71875" xlink:href="#DejaVuSans-48"/>
     <use x="375.341797" xlink:href="#DejaVuSans-48"/>
     <use x="438.964844" xlink:href="#DejaVuSans-57"/>
    </g>
   </g>
   <g id="text_16">
    <!-- bbob f22, 10-D -->
    <defs>
     <path d="M 19.671875 64.796875 
L 19.671875 8.109375 
L 31.59375 8.109375 
Q 46.6875 8.109375 53.6875 14.9375 
Q 60.6875 21.78125 60.6875 36.53125 
Q 60.6875 51.171875 53.6875 57.984375 
Q 46.6875 64.796875 31.59375 64.796875 
z
M 9.8125 72.90625 
L 30.078125 72.90625 
Q 51.265625 72.90625 61.171875 64.09375 
Q 71.09375 55.28125 71.09375 36.53125 
Q 71.09375 17.671875 61.125 8.828125 
Q 51.171875 0 30.078125 0 
L 9.8125 0 
z
" id="DejaVuSans-68"/>
    </defs>
    <g transform="translate(60.41088 51.797126)scale(0.102 -0.102)">
     <use xlink:href="#DejaVuSans-98"/>
     <use x="63.476562" xlink:href="#DejaVuSans-98"/>
     <use x="126.953125" xlink:href="#DejaVuSans-111"/>
     <use x="188.134766" xlink:href="#DejaVuSans-98"/>
     <use x="251.611328" xlink:href="#DejaVuSans-32"/>
     <use x="283.398438" xlink:href="#DejaVuSans-102"/>
     <use x="318.603516" xlink:href="#DejaVuSans-50"/>
     <use x="382.226562" xlink:href="#DejaVuSans-50"/>
     <use x="445.849609" xlink:href="#DejaVuSans-44"/>
     <use x="477.636719" xlink:href="#DejaVuSans-32"/>
     <use x="509.423828" xlink:href="#DejaVuSans-49"/>
     <use x="573.046875" xlink:href="#DejaVuSans-48"/>
     <use x="636.669922" xlink:href="#DejaVuSans-45"/>
     <use x="672.753906" xlink:href="#DejaVuSans-68"/>
    </g>
    <!-- 51 targets: 100..1e-08 -->
    <defs>
     <path d="M 10.796875 72.90625 
L 49.515625 72.90625 
L 49.515625 64.59375 
L 19.828125 64.59375 
L 19.828125 46.734375 
Q 21.96875 47.46875 24.109375 47.828125 
Q 26.265625 48.1875 28.421875 48.1875 
Q 40.625 48.1875 47.75 41.5 
Q 54.890625 34.8125 54.890625 23.390625 
Q 54.890625 11.625 47.5625 5.09375 
Q 40.234375 -1.421875 26.90625 -1.421875 
Q 22.3125 -1.421875 17.546875 -0.640625 
Q 12.796875 0.140625 7.71875 1.703125 
L 7.71875 11.625 
Q 12.109375 9.234375 16.796875 8.0625 
Q 21.484375 6.890625 26.703125 6.890625 
Q 35.15625 6.890625 40.078125 11.328125 
Q 45.015625 15.765625 45.015625 23.390625 
Q 45.015625 31 40.078125 35.4375 
Q 35.15625 39.890625 26.703125 39.890625 
Q 22.75 39.890625 18.8125 39.015625 
Q 14.890625 38.140625 10.796875 36.28125 
z
" id="DejaVuSans-53"/>
     <path d="M 11.71875 12.40625 
L 22.015625 12.40625 
L 22.015625 0 
L 11.71875 0 
z
M 11.71875 51.703125 
L 22.015625 51.703125 
L 22.015625 39.3125 
L 11.71875 39.3125 
z
" id="DejaVuSans-58"/>
    </defs>
    <g transform="translate(60.41088 63.218895)scale(0.102 -0.102)">
     <use xlink:href="#DejaVuSans-53"/>
     <use x="63.623047" xlink:href="#DejaVuSans-49"/>
     <use x="127.246094" xlink:href="#DejaVuSans-32"/>
     <use x="159.033203" xlink:href="#DejaVuSans-116"/>
     <use x="198.242188" xlink:href="#DejaVuSans-97"/>
     <use x="259.521484" xlink:href="#DejaVuSans-114"/>
     <use x="300.619141" xlink:href="#DejaVuSans-103"/>
     <use x="364.095703" xlink:href="#DejaVuSans-101"/>
     <use x="425.619141" xlink:href="#DejaVuSans-116"/>
     <use x="464.828125" xlink:href="#DejaVuSans-115"/>
     <use x="516.927734" xlink:href="#DejaVuSans-58"/>
     <use x="550.619141" xlink:href="#DejaVuSans-32"/>
     <use x="582.40625" xlink:href="#DejaVuSans-49"/>
     <use x="646.029297" xlink:href="#DejaVuSans-48"/>
     <use x="709.652344" xlink:href="#DejaVuSans-48"/>
     <use x="773.275391" xlink:href="#DejaVuSans-46"/>
     <use x="805.0625" xlink:href="#DejaVuSans-46"/>
     <use x="836.849609" xlink:href="#DejaVuSans-49"/>
     <use x="900.472656" xlink:href="#DejaVuSans-101"/>
     <use x="961.996094" xlink:href="#DejaVuSans-45"/>
     <use x="998.080078" xlink:href="#DejaVuSans-48"/>
     <use x="1061.703125" xlink:href="#DejaVuSans-56"/>
    </g>
    <!-- 15 instances -->
    <g transform="translate(60.41088 74.640664)scale(0.102 -0.102)">
     <use xlink:href="#DejaVuSans-49"/>
     <use x="63.623047" xlink:href="#DejaVuSans-53"/>
     <use x="127.246094" xlink:href="#DejaVuSans-32"/>
     <use x="159.033203" xlink:href="#DejaVuSans-105"/>
     <use x="186.816406" xlink:href="#DejaVuSans-110"/>
     <use x="250.195312" xlink:href="#DejaVuSans-115"/>
     <use x="302.294922" xlink:href="#DejaVuSans-116"/>
     <use x="341.503906" xlink:href="#DejaVuSans-97"/>
     <use x="402.783203" xlink:href="#DejaVuSans-110"/>
     <use x="466.162109" xlink:href="#DejaVuSans-99"/>
     <use x="521.142578" xlink:href="#DejaVuSans-101"/>
     <use x="582.666016" xlink:href="#DejaVuSans-115"/>
    </g>
   </g>
   <g id="text_17">
    <!-- v2.3.1.30 -->
    <defs>
     <path d="M 40.578125 39.3125 
Q 47.65625 37.796875 51.625 33 
Q 55.609375 28.21875 55.609375 21.1875 
Q 55.609375 10.40625 48.1875 4.484375 
Q 40.765625 -1.421875 27.09375 -1.421875 
Q 22.515625 -1.421875 17.65625 -0.515625 
Q 12.796875 0.390625 7.625 2.203125 
L 7.625 11.71875 
Q 11.71875 9.328125 16.59375 8.109375 
Q 21.484375 6.890625 26.8125 6.890625 
Q 36.078125 6.890625 40.9375 10.546875 
Q 45.796875 14.203125 45.796875 21.1875 
Q 45.796875 27.640625 41.28125 31.265625 
Q 36.765625 34.90625 28.71875 34.90625 
L 20.21875 34.90625 
L 20.21875 43.015625 
L 29.109375 43.015625 
Q 36.375 43.015625 40.234375 45.921875 
Q 44.09375 48.828125 44.09375 54.296875 
Q 44.09375 59.90625 40.109375 62.90625 
Q 36.140625 65.921875 28.71875 65.921875 
Q 24.65625 65.921875 20.015625 65.03125 
Q 15.375 64.15625 9.8125 62.3125 
L 9.8125 71.09375 
Q 15.4375 72.65625 20.34375 73.4375 
Q 25.25 74.21875 29.59375 74.21875 
Q 40.828125 74.21875 47.359375 69.109375 
Q 53.90625 64.015625 53.90625 55.328125 
Q 53.90625 49.265625 50.4375 45.09375 
Q 46.96875 40.921875 40.578125 39.3125 
z
" id="DejaVuSans-51"/>
    </defs>
    <g style="fill:#808080;" transform="translate(174.511187 294.289592)scale(0.1 -0.1)">
     <use xlink:href="#DejaVuSans-118"/>
     <use x="59.179688" xlink:href="#DejaVuSans-50"/>
     <use x="122.802734" xlink:href="#DejaVuSans-46"/>
     <use x="154.589844" xlink:href="#DejaVuSans-51"/>
     <use x="218.212891" xlink:href="#DejaVuSans-46"/>
     <use x="250" xlink:href="#DejaVuSans-49"/>
     <use x="313.623047" xlink:href="#DejaVuSans-46"/>
     <use x="345.410156" xlink:href="#DejaVuSans-51"/>
     <use x="409.033203" xlink:href="#DejaVuSans-48"/>
    </g>
   </g>
   <g id="text_18">
    <!-- 22 Gallagher 21 peaks -->
    <defs>
     <path d="M 59.515625 10.40625 
L 59.515625 29.984375 
L 43.40625 29.984375 
L 43.40625 38.09375 
L 69.28125 38.09375 
L 69.28125 6.78125 
Q 63.578125 2.734375 56.6875 0.65625 
Q 49.8125 -1.421875 42 -1.421875 
Q 24.90625 -1.421875 15.25 8.5625 
Q 5.609375 18.5625 5.609375 36.375 
Q 5.609375 54.25 15.25 64.234375 
Q 24.90625 74.21875 42 74.21875 
Q 49.125 74.21875 55.546875 72.453125 
Q 61.96875 70.703125 67.390625 67.28125 
L 67.390625 56.78125 
Q 61.921875 61.421875 55.765625 63.765625 
Q 49.609375 66.109375 42.828125 66.109375 
Q 29.4375 66.109375 22.71875 58.640625 
Q 16.015625 51.171875 16.015625 36.375 
Q 16.015625 21.625 22.71875 14.15625 
Q 29.4375 6.6875 42.828125 6.6875 
Q 48.046875 6.6875 52.140625 7.59375 
Q 56.25 8.5 59.515625 10.40625 
z
" id="DejaVuSans-71"/>
     <path d="M 54.890625 33.015625 
L 54.890625 0 
L 45.90625 0 
L 45.90625 32.71875 
Q 45.90625 40.484375 42.875 44.328125 
Q 39.84375 48.1875 33.796875 48.1875 
Q 26.515625 48.1875 22.3125 43.546875 
Q 18.109375 38.921875 18.109375 30.90625 
L 18.109375 0 
L 9.078125 0 
L 9.078125 75.984375 
L 18.109375 75.984375 
L 18.109375 46.1875 
Q 21.34375 51.125 25.703125 53.5625 
Q 30.078125 56 35.796875 56 
Q 45.21875 56 50.046875 50.171875 
Q 54.890625 44.34375 54.890625 33.015625 
z
" id="DejaVuSans-104"/>
     <path d="M 9.078125 75.984375 
L 18.109375 75.984375 
L 18.109375 31.109375 
L 44.921875 54.6875 
L 56.390625 54.6875 
L 27.390625 29.109375 
L 57.625 0 
L 45.90625 0 
L 18.109375 26.703125 
L 18.109375 0 
L 9.078125 0 
z
" id="DejaVuSans-107"/>
    </defs>
    <g transform="translate(85.019 35.472)scale(0.2 -0.2)">
     <use xlink:href="#DejaVuSans-50"/>
     <use x="63.623047" xlink:href="#DejaVuSans-50"/>
     <use x="127.246094" xlink:href="#DejaVuSans-32"/>
     <use x="159.033203" xlink:href="#DejaVuSans-71"/>
     <use x="236.523438" xlink:href="#DejaVuSans-97"/>
     <use x="297.802734" xlink:href="#DejaVuSans-108"/>
     <use x="325.585938" xlink:href="#DejaVuSans-108"/>
     <use x="353.369141" xlink:href="#DejaVuSans-97"/>
     <use x="414.648438" xlink:href="#DejaVuSans-103"/>
     <use x="478.125" xlink:href="#DejaVuSans-104"/>
     <use x="541.503906" xlink:href="#DejaVuSans-101"/>
     <use x="603.027344" xlink:href="#DejaVuSans-114"/>
     <use x="644.140625" xlink:href="#DejaVuSans-32"/>
     <use x="675.927734" xlink:href="#DejaVuSans-50"/>
     <use x="739.550781" xlink:href="#DejaVuSans-49"/>
     <use x="803.173828" xlink:href="#DejaVuSans-32"/>
     <use x="834.960938" xlink:href="#DejaVuSans-112"/>
     <use x="898.4375" xlink:href="#DejaVuSans-101"/>
     <use x="959.960938" xlink:href="#DejaVuSans-97"/>
     <use x="1021.240234" xlink:href="#DejaVuSans-107"/>
     <use x="1079.150391" xlink:href="#DejaVuSans-115"/>
    </g>
   </g>
  </g>
 </g>
 <defs>
  <clipPath id="p973cbcee0b">
   <rect height="257.472" width="281.088" x="57.6" y="41.472"/>
  </clipPath>
 </defs>
</svg>
