<?xml version="1.0" encoding="utf-8" standalone="no"?>
<!DOCTYPE svg PUBLIC "-//W3C//DTD SVG 1.1//EN"
  "http://www.w3.org/Graphics/SVG/1.1/DTD/svg11.dtd">
<!-- Created with matplotlib (https://matplotlib.org/) -->
<svg height="345.6pt" version="1.1" viewBox="0 0 460.8 345.6" width="460.8pt" xmlns="http://www.w3.org/2000/svg" xmlns:xlink="http://www.w3.org/1999/xlink">
 <defs>
  <style type="text/css">
*{stroke-linecap:butt;stroke-linejoin:round;}
  </style>
 </defs>
 <g id="figure_1">
  <g id="patch_1">
   <path d="M 0 345.6 
L 460.8 345.6 
L 460.8 0 
L 0 0 
z
" style="fill:#ffffff;"/>
  </g>
  <g id="axes_1">
   <g id="patch_2">
    <path d="M 57.6 298.944 
L 338.688 298.944 
L 338.688 41.472 
L 57.6 41.472 
z
" style="fill:#ffffff;"/>
   </g>
   <g id="line2d_1">
    <path d="M 17.444571 298.944 
L 17.444571 283.948543 
L 29.53256 283.948543 
L 29.53256 278.950057 
L 36.60358 278.950057 
L 36.60358 273.951571 
L 74.263433 273.951571 
L 74.263433 268.953086 
L 94.921215 268.953086 
L 94.921215 263.9546 
L 105.398279 263.9546 
L 105.398279 258.956114 
L 112.877038 258.956114 
L 112.877038 253.957628 
L 118.094355 253.957628 
L 118.094355 248.959143 
L 123.152022 248.959143 
L 123.152022 243.960657 
L 128.560901 243.960657 
L 128.560901 238.962171 
L 133.284766 238.962171 
L 133.284766 233.963685 
L 144.111818 233.963685 
L 144.111818 228.9652 
L 147.174888 228.9652 
L 147.174888 223.966714 
L 151.684751 223.966714 
L 151.684751 218.968228 
L 156.782672 218.968228 
L 156.782672 213.969743 
L 159.410906 213.969743 
L 159.410906 208.971257 
L 165.622417 208.971257 
L 165.622417 203.972771 
L 167.458761 203.972771 
L 167.458761 198.974285 
L 170.088811 198.974285 
L 170.088811 193.9758 
L 171.738674 193.9758 
L 171.738674 188.977314 
L 173.82695 188.977314 
L 173.82695 183.978828 
L 175.182762 183.978828 
L 175.182762 178.980342 
L 175.631641 178.980342 
L 175.631641 173.981857 
L 177.804485 173.981857 
L 177.804485 168.983371 
L 178.146322 168.983371 
L 178.146322 163.984885 
L 179.464856 163.984885 
L 179.464856 158.9864 
L 181.699134 158.9864 
L 181.699134 153.987914 
L 185.283184 153.987914 
L 185.283184 148.989428 
L 185.533866 148.989428 
L 185.533866 143.990942 
L 185.741734 143.990942 
L 185.741734 138.992457 
L 187.311852 138.992457 
L 187.311852 133.993971 
L 187.617063 133.993971 
L 187.617063 128.995485 
L 188.490389 128.995485 
L 188.490389 123.996999 
L 190.319165 123.996999 
L 190.319165 118.998514 
L 190.479089 118.998514 
L 190.479089 114.000028 
L 190.635015 114.000028 
L 190.635015 109.001542 
L 191.582595 109.001542 
L 191.582595 104.003056 
L 191.756066 104.003056 
L 191.756066 99.004571 
L 192.329591 99.004571 
L 192.329591 94.006085 
L 192.561266 94.006085 
L 192.561266 89.007599 
L 193.357068 89.007599 
L 193.357068 84.009114 
L 194.784633 84.009114 
L 194.784633 79.010628 
L 194.94967 79.010628 
L 194.94967 74.012142 
L 195.063879 74.012142 
L 195.063879 69.013656 
L 195.170153 69.013656 
L 195.170153 64.015171 
L 195.290728 64.015171 
L 195.290728 59.016685 
L 195.380776 59.016685 
L 195.380776 54.018199 
L 195.471648 54.018199 
L 195.471648 49.019713 
L 195.53517 49.019713 
L 195.53517 44.021228 
L 338.688 44.021228 
" style="fill:none;stroke:#f5deb3;stroke-linecap:square;stroke-width:4;"/>
   </g>
   <g id="line2d_2">
    <defs>
     <path d="M -0 7.778175 
L 7.778175 0 
L 0 -7.778175 
L -7.778175 -0 
z
" id="m6dbf7add32" style="stroke:#f5deb3;stroke-linejoin:miter;stroke-width:1.5;"/>
    </defs>
    <g>
     <use style="fill:#f5deb3;stroke:#f5deb3;stroke-linejoin:miter;stroke-width:1.5;" x="128.560901" xlink:href="#m6dbf7add32" y="238.962171"/>
     <use style="fill:#f5deb3;stroke:#f5deb3;stroke-linejoin:miter;stroke-width:1.5;" x="181.699134" xlink:href="#m6dbf7add32" y="158.9864"/>
     <use style="fill:#f5deb3;stroke:#f5deb3;stroke-linejoin:miter;stroke-width:1.5;" x="194.94967" xlink:href="#m6dbf7add32" y="79.010628"/>
     <use style="fill:#f5deb3;stroke:#f5deb3;stroke-linejoin:miter;stroke-width:1.5;" x="195.53517" xlink:href="#m6dbf7add32" y="44.021228"/>
     <use style="fill:#f5deb3;stroke:#f5deb3;stroke-linejoin:miter;stroke-width:1.5;" x="195.53517" xlink:href="#m6dbf7add32" y="44.021228"/>
     <use style="fill:#f5deb3;stroke:#f5deb3;stroke-linejoin:miter;stroke-width:1.5;" x="338.688" xlink:href="#m6dbf7add32" y="44.021228"/>
    </g>
   </g>
   <g id="line2d_3">
    <path style="fill:none;stroke:#f5deb3;stroke-linecap:square;stroke-width:4;"/>
    <g/>
   </g>
   <g id="line2d_4">
    <path d="M 338.688 44.021228 
L 369.60768 49.119683 
" style="fill:none;stroke:#f5deb3;stroke-linecap:square;stroke-width:4;"/>
    <g>
     <use style="fill:#f5deb3;stroke:#f5deb3;stroke-linejoin:miter;stroke-width:1.5;" x="338.688" xlink:href="#m6dbf7add32" y="44.021228"/>
     <use style="fill:#f5deb3;stroke:#f5deb3;stroke-linejoin:miter;stroke-width:1.5;" x="369.60768" xlink:href="#m6dbf7add32" y="49.119683"/>
    </g>
   </g>
   <g id="matplotlib.axis_1">
    <g id="xtick_1">
     <g id="line2d_5">
      <path clip-path="url(#p3fe3a786a3)" d="M 57.6 298.944 
L 57.6 41.472 
" style="fill:none;stroke:#b0b0b0;stroke-linecap:square;stroke-width:0.8;"/>
     </g>
     <g id="line2d_6">
      <defs>
       <path d="M 0 0 
L 0 3.5 
" id="m2dba56c722" style="stroke:#000000;stroke-width:0.8;"/>
      </defs>
      <g>
       <use style="stroke:#000000;stroke-width:0.8;" x="57.6" xlink:href="#m2dba56c722" y="298.944"/>
      </g>
     </g>
     <g id="text_1">
      <!-- 0 -->
      <defs>
       <path d="M 31.78125 66.40625 
Q 24.171875 66.40625 20.328125 58.90625 
Q 16.5 51.421875 16.5 36.375 
Q 16.5 21.390625 20.328125 13.890625 
Q 24.171875 6.390625 31.78125 6.390625 
Q 39.453125 6.390625 43.28125 13.890625 
Q 47.125 21.390625 47.125 36.375 
Q 47.125 51.421875 43.28125 58.90625 
Q 39.453125 66.40625 31.78125 66.40625 
z
M 31.78125 74.21875 
Q 44.046875 74.21875 50.515625 64.515625 
Q 56.984375 54.828125 56.984375 36.375 
Q 56.984375 17.96875 50.515625 8.265625 
Q 44.046875 -1.421875 31.78125 -1.421875 
Q 19.53125 -1.421875 13.0625 8.265625 
Q 6.59375 17.96875 6.59375 36.375 
Q 6.59375 54.828125 13.0625 64.515625 
Q 19.53125 74.21875 31.78125 74.21875 
z
" id="DejaVuSans-48"/>
      </defs>
      <g transform="translate(51.2375 321.140875)scale(0.2 -0.2)">
       <use xlink:href="#DejaVuSans-48"/>
      </g>
     </g>
    </g>
    <g id="xtick_2">
     <g id="line2d_7">
      <path clip-path="url(#p3fe3a786a3)" d="M 137.910857 298.944 
L 137.910857 41.472 
" style="fill:none;stroke:#b0b0b0;stroke-linecap:square;stroke-width:0.8;"/>
     </g>
     <g id="line2d_8">
      <g>
       <use style="stroke:#000000;stroke-width:0.8;" x="137.910857" xlink:href="#m2dba56c722" y="298.944"/>
      </g>
     </g>
     <g id="text_2">
      <!-- 2 -->
      <defs>
       <path d="M 19.1875 8.296875 
L 53.609375 8.296875 
L 53.609375 0 
L 7.328125 0 
L 7.328125 8.296875 
Q 12.9375 14.109375 22.625 23.890625 
Q 32.328125 33.6875 34.8125 36.53125 
Q 39.546875 41.84375 41.421875 45.53125 
Q 43.3125 49.21875 43.3125 52.78125 
Q 43.3125 58.59375 39.234375 62.25 
Q 35.15625 65.921875 28.609375 65.921875 
Q 23.96875 65.921875 18.8125 64.3125 
Q 13.671875 62.703125 7.8125 59.421875 
L 7.8125 69.390625 
Q 13.765625 71.78125 18.9375 73 
Q 24.125 74.21875 28.421875 74.21875 
Q 39.75 74.21875 46.484375 68.546875 
Q 53.21875 62.890625 53.21875 53.421875 
Q 53.21875 48.921875 51.53125 44.890625 
Q 49.859375 40.875 45.40625 35.40625 
Q 44.1875 33.984375 37.640625 27.21875 
Q 31.109375 20.453125 19.1875 8.296875 
z
" id="DejaVuSans-50"/>
      </defs>
      <g transform="translate(131.548357 321.140875)scale(0.2 -0.2)">
       <use xlink:href="#DejaVuSans-50"/>
      </g>
     </g>
    </g>
    <g id="xtick_3">
     <g id="line2d_9">
      <path clip-path="url(#p3fe3a786a3)" d="M 218.221714 298.944 
L 218.221714 41.472 
" style="fill:none;stroke:#b0b0b0;stroke-linecap:square;stroke-width:0.8;"/>
     </g>
     <g id="line2d_10">
      <g>
       <use style="stroke:#000000;stroke-width:0.8;" x="218.221714" xlink:href="#m2dba56c722" y="298.944"/>
      </g>
     </g>
     <g id="text_3">
      <!-- 4 -->
      <defs>
       <path d="M 37.796875 64.3125 
L 12.890625 25.390625 
L 37.796875 25.390625 
z
M 35.203125 72.90625 
L 47.609375 72.90625 
L 47.609375 25.390625 
L 58.015625 25.390625 
L 58.015625 17.1875 
L 47.609375 17.1875 
L 47.609375 0 
L 37.796875 0 
L 37.796875 17.1875 
L 4.890625 17.1875 
L 4.890625 26.703125 
z
" id="DejaVuSans-52"/>
      </defs>
      <g transform="translate(211.859214 321.140875)scale(0.2 -0.2)">
       <use xlink:href="#DejaVuSans-52"/>
      </g>
     </g>
    </g>
    <g id="xtick_4">
     <g id="line2d_11">
      <path clip-path="url(#p3fe3a786a3)" d="M 298.532571 298.944 
L 298.532571 41.472 
" style="fill:none;stroke:#b0b0b0;stroke-linecap:square;stroke-width:0.8;"/>
     </g>
     <g id="line2d_12">
      <g>
       <use style="stroke:#000000;stroke-width:0.8;" x="298.532571" xlink:href="#m2dba56c722" y="298.944"/>
      </g>
     </g>
     <g id="text_4">
      <!-- 6 -->
      <defs>
       <path d="M 33.015625 40.375 
Q 26.375 40.375 22.484375 35.828125 
Q 18.609375 31.296875 18.609375 23.390625 
Q 18.609375 15.53125 22.484375 10.953125 
Q 26.375 6.390625 33.015625 6.390625 
Q 39.65625 6.390625 43.53125 10.953125 
Q 47.40625 15.53125 47.40625 23.390625 
Q 47.40625 31.296875 43.53125 35.828125 
Q 39.65625 40.375 33.015625 40.375 
z
M 52.59375 71.296875 
L 52.59375 62.3125 
Q 48.875 64.0625 45.09375 64.984375 
Q 41.3125 65.921875 37.59375 65.921875 
Q 27.828125 65.921875 22.671875 59.328125 
Q 17.53125 52.734375 16.796875 39.40625 
Q 19.671875 43.65625 24.015625 45.921875 
Q 28.375 48.1875 33.59375 48.1875 
Q 44.578125 48.1875 50.953125 41.515625 
Q 57.328125 34.859375 57.328125 23.390625 
Q 57.328125 12.15625 50.6875 5.359375 
Q 44.046875 -1.421875 33.015625 -1.421875 
Q 20.359375 -1.421875 13.671875 8.265625 
Q 6.984375 17.96875 6.984375 36.375 
Q 6.984375 53.65625 15.1875 63.9375 
Q 23.390625 74.21875 37.203125 74.21875 
Q 40.921875 74.21875 44.703125 73.484375 
Q 48.484375 72.75 52.59375 71.296875 
z
" id="DejaVuSans-54"/>
      </defs>
      <g transform="translate(292.170071 321.140875)scale(0.2 -0.2)">
       <use xlink:href="#DejaVuSans-54"/>
      </g>
     </g>
    </g>
    <g id="xtick_5">
     <g id="line2d_13">
      <path clip-path="url(#p3fe3a786a3)" d="M 57.6 298.944 
L 57.6 41.472 
" style="fill:none;stroke:#b0b0b0;stroke-linecap:square;stroke-width:0.8;"/>
     </g>
     <g id="line2d_14">
      <defs>
       <path d="M 0 0 
L 0 2 
" id="mf9ba017136" style="stroke:#000000;stroke-width:0.6;"/>
      </defs>
      <g>
       <use style="stroke:#000000;stroke-width:0.6;" x="57.6" xlink:href="#mf9ba017136" y="298.944"/>
      </g>
     </g>
    </g>
    <g id="xtick_6">
     <g id="line2d_15">
      <path clip-path="url(#p3fe3a786a3)" d="M 97.755429 298.944 
L 97.755429 41.472 
" style="fill:none;stroke:#b0b0b0;stroke-linecap:square;stroke-width:0.8;"/>
     </g>
     <g id="line2d_16">
      <g>
       <use style="stroke:#000000;stroke-width:0.6;" x="97.755429" xlink:href="#mf9ba017136" y="298.944"/>
      </g>
     </g>
    </g>
    <g id="xtick_7">
     <g id="line2d_17">
      <path clip-path="url(#p3fe3a786a3)" d="M 137.910857 298.944 
L 137.910857 41.472 
" style="fill:none;stroke:#b0b0b0;stroke-linecap:square;stroke-width:0.8;"/>
     </g>
     <g id="line2d_18">
      <g>
       <use style="stroke:#000000;stroke-width:0.6;" x="137.910857" xlink:href="#mf9ba017136" y="298.944"/>
      </g>
     </g>
    </g>
    <g id="xtick_8">
     <g id="line2d_19">
      <path clip-path="url(#p3fe3a786a3)" d="M 178.066286 298.944 
L 178.066286 41.472 
" style="fill:none;stroke:#b0b0b0;stroke-linecap:square;stroke-width:0.8;"/>
     </g>
     <g id="line2d_20">
      <g>
       <use style="stroke:#000000;stroke-width:0.6;" x="178.066286" xlink:href="#mf9ba017136" y="298.944"/>
      </g>
     </g>
    </g>
    <g id="xtick_9">
     <g id="line2d_21">
      <path clip-path="url(#p3fe3a786a3)" d="M 218.221714 298.944 
L 218.221714 41.472 
" style="fill:none;stroke:#b0b0b0;stroke-linecap:square;stroke-width:0.8;"/>
     </g>
     <g id="line2d_22">
      <g>
       <use style="stroke:#000000;stroke-width:0.6;" x="218.221714" xlink:href="#mf9ba017136" y="298.944"/>
      </g>
     </g>
    </g>
    <g id="xtick_10">
     <g id="line2d_23">
      <path clip-path="url(#p3fe3a786a3)" d="M 258.377143 298.944 
L 258.377143 41.472 
" style="fill:none;stroke:#b0b0b0;stroke-linecap:square;stroke-width:0.8;"/>
     </g>
     <g id="line2d_24">
      <g>
       <use style="stroke:#000000;stroke-width:0.6;" x="258.377143" xlink:href="#mf9ba017136" y="298.944"/>
      </g>
     </g>
    </g>
    <g id="xtick_11">
     <g id="line2d_25">
      <path clip-path="url(#p3fe3a786a3)" d="M 298.532571 298.944 
L 298.532571 41.472 
" style="fill:none;stroke:#b0b0b0;stroke-linecap:square;stroke-width:0.8;"/>
     </g>
     <g id="line2d_26">
      <g>
       <use style="stroke:#000000;stroke-width:0.6;" x="298.532571" xlink:href="#mf9ba017136" y="298.944"/>
      </g>
     </g>
    </g>
    <g id="xtick_12">
     <g id="line2d_27">
      <path clip-path="url(#p3fe3a786a3)" d="M 338.688 298.944 
L 338.688 41.472 
" style="fill:none;stroke:#b0b0b0;stroke-linecap:square;stroke-width:0.8;"/>
     </g>
     <g id="line2d_28">
      <g>
       <use style="stroke:#000000;stroke-width:0.6;" x="338.688" xlink:href="#mf9ba017136" y="298.944"/>
      </g>
     </g>
    </g>
    <g id="text_5">
     <!-- log10(# f-evals / dimension) -->
     <defs>
      <path d="M 9.421875 75.984375 
L 18.40625 75.984375 
L 18.40625 0 
L 9.421875 0 
z
" id="DejaVuSans-108"/>
      <path d="M 30.609375 48.390625 
Q 23.390625 48.390625 19.1875 42.75 
Q 14.984375 37.109375 14.984375 27.296875 
Q 14.984375 17.484375 19.15625 11.84375 
Q 23.34375 6.203125 30.609375 6.203125 
Q 37.796875 6.203125 41.984375 11.859375 
Q 46.1875 17.53125 46.1875 27.296875 
Q 46.1875 37.015625 41.984375 42.703125 
Q 37.796875 48.390625 30.609375 48.390625 
z
M 30.609375 56 
Q 42.328125 56 49.015625 48.375 
Q 55.71875 40.765625 55.71875 27.296875 
Q 55.71875 13.875 49.015625 6.21875 
Q 42.328125 -1.421875 30.609375 -1.421875 
Q 18.84375 -1.421875 12.171875 6.21875 
Q 5.515625 13.875 5.515625 27.296875 
Q 5.515625 40.765625 12.171875 48.375 
Q 18.84375 56 30.609375 56 
z
" id="DejaVuSans-111"/>
      <path d="M 45.40625 27.984375 
Q 45.40625 37.75 41.375 43.109375 
Q 37.359375 48.484375 30.078125 48.484375 
Q 22.859375 48.484375 18.828125 43.109375 
Q 14.796875 37.75 14.796875 27.984375 
Q 14.796875 18.265625 18.828125 12.890625 
Q 22.859375 7.515625 30.078125 7.515625 
Q 37.359375 7.515625 41.375 12.890625 
Q 45.40625 18.265625 45.40625 27.984375 
z
M 54.390625 6.78125 
Q 54.390625 -7.171875 48.1875 -13.984375 
Q 42 -20.796875 29.203125 -20.796875 
Q 24.46875 -20.796875 20.265625 -20.09375 
Q 16.0625 -19.390625 12.109375 -17.921875 
L 12.109375 -9.1875 
Q 16.0625 -11.328125 19.921875 -12.34375 
Q 23.78125 -13.375 27.78125 -13.375 
Q 36.625 -13.375 41.015625 -8.765625 
Q 45.40625 -4.15625 45.40625 5.171875 
L 45.40625 9.625 
Q 42.625 4.78125 38.28125 2.390625 
Q 33.9375 0 27.875 0 
Q 17.828125 0 11.671875 7.65625 
Q 5.515625 15.328125 5.515625 27.984375 
Q 5.515625 40.671875 11.671875 48.328125 
Q 17.828125 56 27.875 56 
Q 33.9375 56 38.28125 53.609375 
Q 42.625 51.21875 45.40625 46.390625 
L 45.40625 54.6875 
L 54.390625 54.6875 
z
" id="DejaVuSans-103"/>
      <path d="M 12.40625 8.296875 
L 28.515625 8.296875 
L 28.515625 63.921875 
L 10.984375 60.40625 
L 10.984375 69.390625 
L 28.421875 72.90625 
L 38.28125 72.90625 
L 38.28125 8.296875 
L 54.390625 8.296875 
L 54.390625 0 
L 12.40625 0 
z
" id="DejaVuSans-49"/>
      <path d="M 31 75.875 
Q 24.46875 64.65625 21.28125 53.65625 
Q 18.109375 42.671875 18.109375 31.390625 
Q 18.109375 20.125 21.3125 9.0625 
Q 24.515625 -2 31 -13.1875 
L 23.1875 -13.1875 
Q 15.875 -1.703125 12.234375 9.375 
Q 8.59375 20.453125 8.59375 31.390625 
Q 8.59375 42.28125 12.203125 53.3125 
Q 15.828125 64.359375 23.1875 75.875 
z
" id="DejaVuSans-40"/>
      <path d="M 51.125 44 
L 36.921875 44 
L 32.8125 27.6875 
L 47.125 27.6875 
z
M 43.796875 71.78125 
L 38.71875 51.515625 
L 52.984375 51.515625 
L 58.109375 71.78125 
L 65.921875 71.78125 
L 60.890625 51.515625 
L 76.125 51.515625 
L 76.125 44 
L 58.984375 44 
L 54.984375 27.6875 
L 70.515625 27.6875 
L 70.515625 20.21875 
L 53.078125 20.21875 
L 48 0 
L 40.1875 0 
L 45.21875 20.21875 
L 30.90625 20.21875 
L 25.875 0 
L 18.015625 0 
L 23.09375 20.21875 
L 7.71875 20.21875 
L 7.71875 27.6875 
L 24.90625 27.6875 
L 29 44 
L 13.28125 44 
L 13.28125 51.515625 
L 30.90625 51.515625 
L 35.890625 71.78125 
z
" id="DejaVuSans-35"/>
      <path id="DejaVuSans-32"/>
      <path d="M 37.109375 75.984375 
L 37.109375 68.5 
L 28.515625 68.5 
Q 23.6875 68.5 21.796875 66.546875 
Q 19.921875 64.59375 19.921875 59.515625 
L 19.921875 54.6875 
L 34.71875 54.6875 
L 34.71875 47.703125 
L 19.921875 47.703125 
L 19.921875 0 
L 10.890625 0 
L 10.890625 47.703125 
L 2.296875 47.703125 
L 2.296875 54.6875 
L 10.890625 54.6875 
L 10.890625 58.5 
Q 10.890625 67.625 15.140625 71.796875 
Q 19.390625 75.984375 28.609375 75.984375 
z
" id="DejaVuSans-102"/>
      <path d="M 4.890625 31.390625 
L 31.203125 31.390625 
L 31.203125 23.390625 
L 4.890625 23.390625 
z
" id="DejaVuSans-45"/>
      <path d="M 56.203125 29.59375 
L 56.203125 25.203125 
L 14.890625 25.203125 
Q 15.484375 15.921875 20.484375 11.0625 
Q 25.484375 6.203125 34.421875 6.203125 
Q 39.59375 6.203125 44.453125 7.46875 
Q 49.3125 8.734375 54.109375 11.28125 
L 54.109375 2.78125 
Q 49.265625 0.734375 44.1875 -0.34375 
Q 39.109375 -1.421875 33.890625 -1.421875 
Q 20.796875 -1.421875 13.15625 6.1875 
Q 5.515625 13.8125 5.515625 26.8125 
Q 5.515625 40.234375 12.765625 48.109375 
Q 20.015625 56 32.328125 56 
Q 43.359375 56 49.78125 48.890625 
Q 56.203125 41.796875 56.203125 29.59375 
z
M 47.21875 32.234375 
Q 47.125 39.59375 43.09375 43.984375 
Q 39.0625 48.390625 32.421875 48.390625 
Q 24.90625 48.390625 20.390625 44.140625 
Q 15.875 39.890625 15.1875 32.171875 
z
" id="DejaVuSans-101"/>
      <path d="M 2.984375 54.6875 
L 12.5 54.6875 
L 29.59375 8.796875 
L 46.6875 54.6875 
L 56.203125 54.6875 
L 35.6875 0 
L 23.484375 0 
z
" id="DejaVuSans-118"/>
      <path d="M 34.28125 27.484375 
Q 23.390625 27.484375 19.1875 25 
Q 14.984375 22.515625 14.984375 16.5 
Q 14.984375 11.71875 18.140625 8.90625 
Q 21.296875 6.109375 26.703125 6.109375 
Q 34.1875 6.109375 38.703125 11.40625 
Q 43.21875 16.703125 43.21875 25.484375 
L 43.21875 27.484375 
z
M 52.203125 31.203125 
L 52.203125 0 
L 43.21875 0 
L 43.21875 8.296875 
Q 40.140625 3.328125 35.546875 0.953125 
Q 30.953125 -1.421875 24.3125 -1.421875 
Q 15.921875 -1.421875 10.953125 3.296875 
Q 6 8.015625 6 15.921875 
Q 6 25.140625 12.171875 29.828125 
Q 18.359375 34.515625 30.609375 34.515625 
L 43.21875 34.515625 
L 43.21875 35.40625 
Q 43.21875 41.609375 39.140625 45 
Q 35.0625 48.390625 27.6875 48.390625 
Q 23 48.390625 18.546875 47.265625 
Q 14.109375 46.140625 10.015625 43.890625 
L 10.015625 52.203125 
Q 14.9375 54.109375 19.578125 55.046875 
Q 24.21875 56 28.609375 56 
Q 40.484375 56 46.34375 49.84375 
Q 52.203125 43.703125 52.203125 31.203125 
z
" id="DejaVuSans-97"/>
      <path d="M 44.28125 53.078125 
L 44.28125 44.578125 
Q 40.484375 46.53125 36.375 47.5 
Q 32.28125 48.484375 27.875 48.484375 
Q 21.1875 48.484375 17.84375 46.4375 
Q 14.5 44.390625 14.5 40.28125 
Q 14.5 37.15625 16.890625 35.375 
Q 19.28125 33.59375 26.515625 31.984375 
L 29.59375 31.296875 
Q 39.15625 29.25 43.1875 25.515625 
Q 47.21875 21.78125 47.21875 15.09375 
Q 47.21875 7.46875 41.1875 3.015625 
Q 35.15625 -1.421875 24.609375 -1.421875 
Q 20.21875 -1.421875 15.453125 -0.5625 
Q 10.6875 0.296875 5.421875 2 
L 5.421875 11.28125 
Q 10.40625 8.6875 15.234375 7.390625 
Q 20.0625 6.109375 24.8125 6.109375 
Q 31.15625 6.109375 34.5625 8.28125 
Q 37.984375 10.453125 37.984375 14.40625 
Q 37.984375 18.0625 35.515625 20.015625 
Q 33.0625 21.96875 24.703125 23.78125 
L 21.578125 24.515625 
Q 13.234375 26.265625 9.515625 29.90625 
Q 5.8125 33.546875 5.8125 39.890625 
Q 5.8125 47.609375 11.28125 51.796875 
Q 16.75 56 26.8125 56 
Q 31.78125 56 36.171875 55.265625 
Q 40.578125 54.546875 44.28125 53.078125 
z
" id="DejaVuSans-115"/>
      <path d="M 25.390625 72.90625 
L 33.6875 72.90625 
L 8.296875 -9.28125 
L 0 -9.28125 
z
" id="DejaVuSans-47"/>
      <path d="M 45.40625 46.390625 
L 45.40625 75.984375 
L 54.390625 75.984375 
L 54.390625 0 
L 45.40625 0 
L 45.40625 8.203125 
Q 42.578125 3.328125 38.25 0.953125 
Q 33.9375 -1.421875 27.875 -1.421875 
Q 17.96875 -1.421875 11.734375 6.484375 
Q 5.515625 14.40625 5.515625 27.296875 
Q 5.515625 40.1875 11.734375 48.09375 
Q 17.96875 56 27.875 56 
Q 33.9375 56 38.25 53.625 
Q 42.578125 51.265625 45.40625 46.390625 
z
M 14.796875 27.296875 
Q 14.796875 17.390625 18.875 11.75 
Q 22.953125 6.109375 30.078125 6.109375 
Q 37.203125 6.109375 41.296875 11.75 
Q 45.40625 17.390625 45.40625 27.296875 
Q 45.40625 37.203125 41.296875 42.84375 
Q 37.203125 48.484375 30.078125 48.484375 
Q 22.953125 48.484375 18.875 42.84375 
Q 14.796875 37.203125 14.796875 27.296875 
z
" id="DejaVuSans-100"/>
      <path d="M 9.421875 54.6875 
L 18.40625 54.6875 
L 18.40625 0 
L 9.421875 0 
z
M 9.421875 75.984375 
L 18.40625 75.984375 
L 18.40625 64.59375 
L 9.421875 64.59375 
z
" id="DejaVuSans-105"/>
      <path d="M 52 44.1875 
Q 55.375 50.25 60.0625 53.125 
Q 64.75 56 71.09375 56 
Q 79.640625 56 84.28125 50.015625 
Q 88.921875 44.046875 88.921875 33.015625 
L 88.921875 0 
L 79.890625 0 
L 79.890625 32.71875 
Q 79.890625 40.578125 77.09375 44.375 
Q 74.3125 48.1875 68.609375 48.1875 
Q 61.625 48.1875 57.5625 43.546875 
Q 53.515625 38.921875 53.515625 30.90625 
L 53.515625 0 
L 44.484375 0 
L 44.484375 32.71875 
Q 44.484375 40.625 41.703125 44.40625 
Q 38.921875 48.1875 33.109375 48.1875 
Q 26.21875 48.1875 22.15625 43.53125 
Q 18.109375 38.875 18.109375 30.90625 
L 18.109375 0 
L 9.078125 0 
L 9.078125 54.6875 
L 18.109375 54.6875 
L 18.109375 46.1875 
Q 21.1875 51.21875 25.484375 53.609375 
Q 29.78125 56 35.6875 56 
Q 41.65625 56 45.828125 52.96875 
Q 50 49.953125 52 44.1875 
z
" id="DejaVuSans-109"/>
      <path d="M 54.890625 33.015625 
L 54.890625 0 
L 45.90625 0 
L 45.90625 32.71875 
Q 45.90625 40.484375 42.875 44.328125 
Q 39.84375 48.1875 33.796875 48.1875 
Q 26.515625 48.1875 22.3125 43.546875 
Q 18.109375 38.921875 18.109375 30.90625 
L 18.109375 0 
L 9.078125 0 
L 9.078125 54.6875 
L 18.109375 54.6875 
L 18.109375 46.1875 
Q 21.34375 51.125 25.703125 53.5625 
Q 30.078125 56 35.796875 56 
Q 45.21875 56 50.046875 50.171875 
Q 54.890625 44.34375 54.890625 33.015625 
z
" id="DejaVuSans-110"/>
      <path d="M 8.015625 75.875 
L 15.828125 75.875 
Q 23.140625 64.359375 26.78125 53.3125 
Q 30.421875 42.28125 30.421875 31.390625 
Q 30.421875 20.453125 26.78125 9.375 
Q 23.140625 -1.703125 15.828125 -13.1875 
L 8.015625 -13.1875 
Q 14.5 -2 17.703125 9.0625 
Q 20.90625 20.125 20.90625 31.390625 
Q 20.90625 42.671875 17.703125 53.65625 
Q 14.5 64.65625 8.015625 75.875 
z
" id="DejaVuSans-41"/>
     </defs>
     <g transform="translate(77.303219 342.217594)scale(0.17 -0.17)">
      <use xlink:href="#DejaVuSans-108"/>
      <use x="27.783203" xlink:href="#DejaVuSans-111"/>
      <use x="88.964844" xlink:href="#DejaVuSans-103"/>
      <use x="152.441406" xlink:href="#DejaVuSans-49"/>
      <use x="216.064453" xlink:href="#DejaVuSans-48"/>
      <use x="279.6875" xlink:href="#DejaVuSans-40"/>
      <use x="318.701172" xlink:href="#DejaVuSans-35"/>
      <use x="402.490234" xlink:href="#DejaVuSans-32"/>
      <use x="434.277344" xlink:href="#DejaVuSans-102"/>
      <use x="469.404297" xlink:href="#DejaVuSans-45"/>
      <use x="505.488281" xlink:href="#DejaVuSans-101"/>
      <use x="567.011719" xlink:href="#DejaVuSans-118"/>
      <use x="626.191406" xlink:href="#DejaVuSans-97"/>
      <use x="687.470703" xlink:href="#DejaVuSans-108"/>
      <use x="715.253906" xlink:href="#DejaVuSans-115"/>
      <use x="767.353516" xlink:href="#DejaVuSans-32"/>
      <use x="799.140625" xlink:href="#DejaVuSans-47"/>
      <use x="832.832031" xlink:href="#DejaVuSans-32"/>
      <use x="864.619141" xlink:href="#DejaVuSans-100"/>
      <use x="928.095703" xlink:href="#DejaVuSans-105"/>
      <use x="955.878906" xlink:href="#DejaVuSans-109"/>
      <use x="1053.291016" xlink:href="#DejaVuSans-101"/>
      <use x="1114.814453" xlink:href="#DejaVuSans-110"/>
      <use x="1178.193359" xlink:href="#DejaVuSans-115"/>
      <use x="1230.292969" xlink:href="#DejaVuSans-105"/>
      <use x="1258.076172" xlink:href="#DejaVuSans-111"/>
      <use x="1319.257812" xlink:href="#DejaVuSans-110"/>
      <use x="1382.636719" xlink:href="#DejaVuSans-41"/>
     </g>
    </g>
   </g>
   <g id="matplotlib.axis_2">
    <g id="ytick_1">
     <g id="line2d_29">
      <path clip-path="url(#p3fe3a786a3)" d="M 57.6 298.944 
L 338.688 298.944 
" style="fill:none;stroke:#b0b0b0;stroke-linecap:square;stroke-width:0.8;"/>
     </g>
     <g id="line2d_30">
      <defs>
       <path d="M 0 0 
L -3.5 0 
" id="me341e5869d" style="stroke:#000000;stroke-width:0.8;"/>
      </defs>
      <g>
       <use style="stroke:#000000;stroke-width:0.8;" x="57.6" xlink:href="#me341e5869d" y="298.944"/>
      </g>
     </g>
     <g id="text_6">
      <!-- 0.0 -->
      <defs>
       <path d="M 10.6875 12.40625 
L 21 12.40625 
L 21 0 
L 10.6875 0 
z
" id="DejaVuSans-46"/>
      </defs>
      <g transform="translate(25.155 305.02275)scale(0.16 -0.16)">
       <use xlink:href="#DejaVuSans-48"/>
       <use x="63.623047" xlink:href="#DejaVuSans-46"/>
       <use x="95.410156" xlink:href="#DejaVuSans-48"/>
      </g>
     </g>
    </g>
    <g id="ytick_2">
     <g id="line2d_31">
      <path clip-path="url(#p3fe3a786a3)" d="M 57.6 247.959446 
L 338.688 247.959446 
" style="fill:none;stroke:#b0b0b0;stroke-linecap:square;stroke-width:0.8;"/>
     </g>
     <g id="line2d_32">
      <g>
       <use style="stroke:#000000;stroke-width:0.8;" x="57.6" xlink:href="#me341e5869d" y="247.959446"/>
      </g>
     </g>
     <g id="text_7">
      <!-- 0.2 -->
      <g transform="translate(25.155 254.038196)scale(0.16 -0.16)">
       <use xlink:href="#DejaVuSans-48"/>
       <use x="63.623047" xlink:href="#DejaVuSans-46"/>
       <use x="95.410156" xlink:href="#DejaVuSans-50"/>
      </g>
     </g>
    </g>
    <g id="ytick_3">
     <g id="line2d_33">
      <path clip-path="url(#p3fe3a786a3)" d="M 57.6 196.974891 
L 338.688 196.974891 
" style="fill:none;stroke:#b0b0b0;stroke-linecap:square;stroke-width:0.8;"/>
     </g>
     <g id="line2d_34">
      <g>
       <use style="stroke:#000000;stroke-width:0.8;" x="57.6" xlink:href="#me341e5869d" y="196.974891"/>
      </g>
     </g>
     <g id="text_8">
      <!-- 0.4 -->
      <g transform="translate(25.155 203.053641)scale(0.16 -0.16)">
       <use xlink:href="#DejaVuSans-48"/>
       <use x="63.623047" xlink:href="#DejaVuSans-46"/>
       <use x="95.410156" xlink:href="#DejaVuSans-52"/>
      </g>
     </g>
    </g>
    <g id="ytick_4">
     <g id="line2d_35">
      <path clip-path="url(#p3fe3a786a3)" d="M 57.6 145.990337 
L 338.688 145.990337 
" style="fill:none;stroke:#b0b0b0;stroke-linecap:square;stroke-width:0.8;"/>
     </g>
     <g id="line2d_36">
      <g>
       <use style="stroke:#000000;stroke-width:0.8;" x="57.6" xlink:href="#me341e5869d" y="145.990337"/>
      </g>
     </g>
     <g id="text_9">
      <!-- 0.6 -->
      <g transform="translate(25.155 152.069087)scale(0.16 -0.16)">
       <use xlink:href="#DejaVuSans-48"/>
       <use x="63.623047" xlink:href="#DejaVuSans-46"/>
       <use x="95.410156" xlink:href="#DejaVuSans-54"/>
      </g>
     </g>
    </g>
    <g id="ytick_5">
     <g id="line2d_37">
      <path clip-path="url(#p3fe3a786a3)" d="M 57.6 95.005782 
L 338.688 95.005782 
" style="fill:none;stroke:#b0b0b0;stroke-linecap:square;stroke-width:0.8;"/>
     </g>
     <g id="line2d_38">
      <g>
       <use style="stroke:#000000;stroke-width:0.8;" x="57.6" xlink:href="#me341e5869d" y="95.005782"/>
      </g>
     </g>
     <g id="text_10">
      <!-- 0.8 -->
      <defs>
       <path d="M 31.78125 34.625 
Q 24.75 34.625 20.71875 30.859375 
Q 16.703125 27.09375 16.703125 20.515625 
Q 16.703125 13.921875 20.71875 10.15625 
Q 24.75 6.390625 31.78125 6.390625 
Q 38.8125 6.390625 42.859375 10.171875 
Q 46.921875 13.96875 46.921875 20.515625 
Q 46.921875 27.09375 42.890625 30.859375 
Q 38.875 34.625 31.78125 34.625 
z
M 21.921875 38.8125 
Q 15.578125 40.375 12.03125 44.71875 
Q 8.5 49.078125 8.5 55.328125 
Q 8.5 64.0625 14.71875 69.140625 
Q 20.953125 74.21875 31.78125 74.21875 
Q 42.671875 74.21875 48.875 69.140625 
Q 55.078125 64.0625 55.078125 55.328125 
Q 55.078125 49.078125 51.53125 44.71875 
Q 48 40.375 41.703125 38.8125 
Q 48.828125 37.15625 52.796875 32.3125 
Q 56.78125 27.484375 56.78125 20.515625 
Q 56.78125 9.90625 50.3125 4.234375 
Q 43.84375 -1.421875 31.78125 -1.421875 
Q 19.734375 -1.421875 13.25 4.234375 
Q 6.78125 9.90625 6.78125 20.515625 
Q 6.78125 27.484375 10.78125 32.3125 
Q 14.796875 37.15625 21.921875 38.8125 
z
M 18.3125 54.390625 
Q 18.3125 48.734375 21.84375 45.5625 
Q 25.390625 42.390625 31.78125 42.390625 
Q 38.140625 42.390625 41.71875 45.5625 
Q 45.3125 48.734375 45.3125 54.390625 
Q 45.3125 60.0625 41.71875 63.234375 
Q 38.140625 66.40625 31.78125 66.40625 
Q 25.390625 66.40625 21.84375 63.234375 
Q 18.3125 60.0625 18.3125 54.390625 
z
" id="DejaVuSans-56"/>
      </defs>
      <g transform="translate(25.155 101.084532)scale(0.16 -0.16)">
       <use xlink:href="#DejaVuSans-48"/>
       <use x="63.623047" xlink:href="#DejaVuSans-46"/>
       <use x="95.410156" xlink:href="#DejaVuSans-56"/>
      </g>
     </g>
    </g>
    <g id="ytick_6">
     <g id="line2d_39">
      <path clip-path="url(#p3fe3a786a3)" d="M 57.6 44.021228 
L 338.688 44.021228 
" style="fill:none;stroke:#b0b0b0;stroke-linecap:square;stroke-width:0.8;"/>
     </g>
     <g id="line2d_40">
      <g>
       <use style="stroke:#000000;stroke-width:0.8;" x="57.6" xlink:href="#me341e5869d" y="44.021228"/>
      </g>
     </g>
     <g id="text_11">
      <!-- 1.0 -->
      <g transform="translate(25.155 50.099978)scale(0.16 -0.16)">
       <use xlink:href="#DejaVuSans-49"/>
       <use x="63.623047" xlink:href="#DejaVuSans-46"/>
       <use x="95.410156" xlink:href="#DejaVuSans-48"/>
      </g>
     </g>
    </g>
    <g id="text_12">
     <!-- Fraction of function,target pairs -->
     <defs>
      <path d="M 9.8125 72.90625 
L 51.703125 72.90625 
L 51.703125 64.59375 
L 19.671875 64.59375 
L 19.671875 43.109375 
L 48.578125 43.109375 
L 48.578125 34.8125 
L 19.671875 34.8125 
L 19.671875 0 
L 9.8125 0 
z
" id="DejaVuSans-70"/>
      <path d="M 41.109375 46.296875 
Q 39.59375 47.171875 37.8125 47.578125 
Q 36.03125 48 33.890625 48 
Q 26.265625 48 22.1875 43.046875 
Q 18.109375 38.09375 18.109375 28.8125 
L 18.109375 0 
L 9.078125 0 
L 9.078125 54.6875 
L 18.109375 54.6875 
L 18.109375 46.1875 
Q 20.953125 51.171875 25.484375 53.578125 
Q 30.03125 56 36.53125 56 
Q 37.453125 56 38.578125 55.875 
Q 39.703125 55.765625 41.0625 55.515625 
z
" id="DejaVuSans-114"/>
      <path d="M 48.78125 52.59375 
L 48.78125 44.1875 
Q 44.96875 46.296875 41.140625 47.34375 
Q 37.3125 48.390625 33.40625 48.390625 
Q 24.65625 48.390625 19.8125 42.84375 
Q 14.984375 37.3125 14.984375 27.296875 
Q 14.984375 17.28125 19.8125 11.734375 
Q 24.65625 6.203125 33.40625 6.203125 
Q 37.3125 6.203125 41.140625 7.25 
Q 44.96875 8.296875 48.78125 10.40625 
L 48.78125 2.09375 
Q 45.015625 0.34375 40.984375 -0.53125 
Q 36.96875 -1.421875 32.421875 -1.421875 
Q 20.0625 -1.421875 12.78125 6.34375 
Q 5.515625 14.109375 5.515625 27.296875 
Q 5.515625 40.671875 12.859375 48.328125 
Q 20.21875 56 33.015625 56 
Q 37.15625 56 41.109375 55.140625 
Q 45.0625 54.296875 48.78125 52.59375 
z
" id="DejaVuSans-99"/>
      <path d="M 18.3125 70.21875 
L 18.3125 54.6875 
L 36.8125 54.6875 
L 36.8125 47.703125 
L 18.3125 47.703125 
L 18.3125 18.015625 
Q 18.3125 11.328125 20.140625 9.421875 
Q 21.96875 7.515625 27.59375 7.515625 
L 36.8125 7.515625 
L 36.8125 0 
L 27.59375 0 
Q 17.1875 0 13.234375 3.875 
Q 9.28125 7.765625 9.28125 18.015625 
L 9.28125 47.703125 
L 2.6875 47.703125 
L 2.6875 54.6875 
L 9.28125 54.6875 
L 9.28125 70.21875 
z
" id="DejaVuSans-116"/>
      <path d="M 8.5 21.578125 
L 8.5 54.6875 
L 17.484375 54.6875 
L 17.484375 21.921875 
Q 17.484375 14.15625 20.5 10.265625 
Q 23.53125 6.390625 29.59375 6.390625 
Q 36.859375 6.390625 41.078125 11.03125 
Q 45.3125 15.671875 45.3125 23.6875 
L 45.3125 54.6875 
L 54.296875 54.6875 
L 54.296875 0 
L 45.3125 0 
L 45.3125 8.40625 
Q 42.046875 3.421875 37.71875 1 
Q 33.40625 -1.421875 27.6875 -1.421875 
Q 18.265625 -1.421875 13.375 4.4375 
Q 8.5 10.296875 8.5 21.578125 
z
M 31.109375 56 
z
" id="DejaVuSans-117"/>
      <path d="M 11.71875 12.40625 
L 22.015625 12.40625 
L 22.015625 4 
L 14.015625 -11.625 
L 7.71875 -11.625 
L 11.71875 4 
z
" id="DejaVuSans-44"/>
      <path d="M 18.109375 8.203125 
L 18.109375 -20.796875 
L 9.078125 -20.796875 
L 9.078125 54.6875 
L 18.109375 54.6875 
L 18.109375 46.390625 
Q 20.953125 51.265625 25.265625 53.625 
Q 29.59375 56 35.59375 56 
Q 45.5625 56 51.78125 48.09375 
Q 58.015625 40.1875 58.015625 27.296875 
Q 58.015625 14.40625 51.78125 6.484375 
Q 45.5625 -1.421875 35.59375 -1.421875 
Q 29.59375 -1.421875 25.265625 0.953125 
Q 20.953125 3.328125 18.109375 8.203125 
z
M 48.6875 27.296875 
Q 48.6875 37.203125 44.609375 42.84375 
Q 40.53125 48.484375 33.40625 48.484375 
Q 26.265625 48.484375 22.1875 42.84375 
Q 18.109375 37.203125 18.109375 27.296875 
Q 18.109375 17.390625 22.1875 11.75 
Q 26.265625 6.109375 33.40625 6.109375 
Q 40.53125 6.109375 44.609375 11.75 
Q 48.6875 17.390625 48.6875 27.296875 
z
" id="DejaVuSans-112"/>
     </defs>
     <g transform="translate(17.619531 305.347375)rotate(-90)scale(0.17 -0.17)">
      <use xlink:href="#DejaVuSans-70"/>
      <use x="57.410156" xlink:href="#DejaVuSans-114"/>
      <use x="98.523438" xlink:href="#DejaVuSans-97"/>
      <use x="159.802734" xlink:href="#DejaVuSans-99"/>
      <use x="214.783203" xlink:href="#DejaVuSans-116"/>
      <use x="253.992188" xlink:href="#DejaVuSans-105"/>
      <use x="281.775391" xlink:href="#DejaVuSans-111"/>
      <use x="342.957031" xlink:href="#DejaVuSans-110"/>
      <use x="406.335938" xlink:href="#DejaVuSans-32"/>
      <use x="438.123047" xlink:href="#DejaVuSans-111"/>
      <use x="499.304688" xlink:href="#DejaVuSans-102"/>
      <use x="534.509766" xlink:href="#DejaVuSans-32"/>
      <use x="566.296875" xlink:href="#DejaVuSans-102"/>
      <use x="601.501953" xlink:href="#DejaVuSans-117"/>
      <use x="664.880859" xlink:href="#DejaVuSans-110"/>
      <use x="728.259766" xlink:href="#DejaVuSans-99"/>
      <use x="783.240234" xlink:href="#DejaVuSans-116"/>
      <use x="822.449219" xlink:href="#DejaVuSans-105"/>
      <use x="850.232422" xlink:href="#DejaVuSans-111"/>
      <use x="911.414062" xlink:href="#DejaVuSans-110"/>
      <use x="974.792969" xlink:href="#DejaVuSans-44"/>
      <use x="1006.580078" xlink:href="#DejaVuSans-116"/>
      <use x="1045.789062" xlink:href="#DejaVuSans-97"/>
      <use x="1107.068359" xlink:href="#DejaVuSans-114"/>
      <use x="1148.166016" xlink:href="#DejaVuSans-103"/>
      <use x="1211.642578" xlink:href="#DejaVuSans-101"/>
      <use x="1273.166016" xlink:href="#DejaVuSans-116"/>
      <use x="1312.375" xlink:href="#DejaVuSans-32"/>
      <use x="1344.162109" xlink:href="#DejaVuSans-112"/>
      <use x="1407.638672" xlink:href="#DejaVuSans-97"/>
      <use x="1468.917969" xlink:href="#DejaVuSans-105"/>
      <use x="1496.701172" xlink:href="#DejaVuSans-114"/>
      <use x="1537.814453" xlink:href="#DejaVuSans-115"/>
     </g>
    </g>
   </g>
   <g id="line2d_41">
    <defs>
     <path d="M 0 1.5 
C 0.397805 1.5 0.77937 1.341951 1.06066 1.06066 
C 1.341951 0.77937 1.5 0.397805 1.5 0 
C 1.5 -0.397805 1.341951 -0.77937 1.06066 -1.06066 
C 0.77937 -1.341951 0.397805 -1.5 0 -1.5 
C -0.397805 -1.5 -0.77937 -1.341951 -1.06066 -1.06066 
C -1.341951 -0.77937 -1.5 -0.397805 -1.5 0 
C -1.5 0.397805 -1.341951 0.77937 -1.06066 1.06066 
C -0.77937 1.341951 -0.397805 1.5 0 1.5 
z
" id="m579ee2f159" style="stroke:#f5deb3;"/>
    </defs>
    <g>
     <use style="fill:#f5deb3;stroke:#f5deb3;" x="195.53517" xlink:href="#m579ee2f159" y="44.021228"/>
     <use style="fill:#f5deb3;stroke:#f5deb3;" x="195.53517" xlink:href="#m579ee2f159" y="44.021228"/>
    </g>
   </g>
   <g id="line2d_42">
    <defs>
     <path d="M 0 1.5 
C 0.397805 1.5 0.77937 1.341951 1.06066 1.06066 
C 1.341951 0.77937 1.5 0.397805 1.5 0 
C 1.5 -0.397805 1.341951 -0.77937 1.06066 -1.06066 
C 0.77937 -1.341951 0.397805 -1.5 0 -1.5 
C -0.397805 -1.5 -0.77937 -1.341951 -1.06066 -1.06066 
C -1.341951 -0.77937 -1.5 -0.397805 -1.5 0 
C -1.5 0.397805 -1.341951 0.77937 -1.06066 1.06066 
C -0.77937 1.341951 -0.397805 1.5 0 1.5 
z
" id="m8ec51f2f68" style="stroke:#000080;"/>
    </defs>
    <g>
     <use style="fill:#000080;stroke:#000080;" x="204.321873" xlink:href="#m8ec51f2f68" y="44.021228"/>
     <use style="fill:#000080;stroke:#000080;" x="204.321873" xlink:href="#m8ec51f2f68" y="44.021228"/>
    </g>
   </g>
   <g id="line2d_43">
    <path d="M 17.444571 298.944 
L 17.444571 277.450511 
L 29.53256 277.450511 
L 29.53256 275.451117 
L 41.620548 275.451117 
L 41.620548 274.951268 
L 48.691568 274.951268 
L 48.691568 273.451723 
L 55.762588 273.451723 
L 55.762588 272.951874 
L 59.262141 272.951874 
L 59.262141 272.452026 
L 62.175444 272.452026 
L 62.175444 271.952177 
L 66.853775 271.952177 
L 66.853775 271.452328 
L 68.79347 271.452328 
L 68.79347 270.95248 
L 71.35013 270.95248 
L 71.35013 270.452631 
L 74.263433 270.452631 
L 74.263433 269.952783 
L 77.884514 269.952783 
L 77.884514 269.452934 
L 78.421149 269.452934 
L 78.421149 268.953086 
L 86.683608 268.953086 
L 86.683608 267.953388 
L 91.029752 267.953388 
L 91.029752 267.45354 
L 91.535274 267.45354 
L 91.535274 266.953691 
L 93.644601 266.953691 
L 93.644601 266.453843 
L 95.526106 266.453843 
L 95.526106 265.953994 
L 97.224242 265.953994 
L 97.224242 265.454146 
L 97.580158 265.454146 
L 97.580158 264.954297 
L 97.928955 264.954297 
L 97.928955 264.454448 
L 99.258306 264.454448 
L 99.258306 263.9546 
L 99.41757 263.9546 
L 99.41757 263.454751 
L 99.731799 263.454751 
L 99.731799 262.954903 
L 100.789049 262.954903 
L 100.789049 262.455054 
L 101.785851 262.455054 
L 101.785851 261.955206 
L 102.464508 261.955206 
L 102.464508 259.955811 
L 104.942325 259.955811 
L 104.942325 259.455963 
L 107.213174 259.455963 
L 107.213174 258.956114 
L 108.294265 258.956114 
L 108.294265 258.456266 
L 108.948899 258.456266 
L 108.948899 257.956417 
L 109.31223 257.956417 
L 109.31223 257.456568 
L 111.426108 257.456568 
L 111.426108 256.95672 
L 112.051799 256.95672 
L 112.051799 256.456871 
L 112.356423 256.456871 
L 112.356423 255.957023 
L 113.73488 255.957023 
L 113.73488 255.457174 
L 115.012316 255.457174 
L 115.012316 254.957326 
L 115.141496 254.957326 
L 115.141496 254.457477 
L 115.397021 254.457477 
L 115.397021 253.957628 
L 116.141872 253.957628 
L 116.141872 253.45778 
L 116.262979 253.45778 
L 116.262979 252.458083 
L 116.443076 252.458083 
L 116.443076 251.958234 
L 116.739166 251.958234 
L 116.739166 251.458386 
L 117.820578 251.458386 
L 117.820578 250.958537 
L 118.094355 250.958537 
L 118.094355 250.458688 
L 119.097192 250.458688 
L 119.097192 249.95884 
L 119.45259 249.95884 
L 119.45259 249.458991 
L 119.850084 249.458991 
L 119.850084 248.959143 
L 120.571812 248.959143 
L 120.571812 248.459294 
L 120.898662 248.459294 
L 120.898662 247.959446 
L 121.310093 247.959446 
L 121.310093 247.459597 
L 122.31944 247.459597 
L 122.31944 246.959748 
L 123.029641 246.959748 
L 123.029641 246.4599 
L 123.633136 246.4599 
L 123.633136 245.960051 
L 123.868806 245.960051 
L 123.868806 245.460203 
L 124.139788 245.460203 
L 124.139788 244.960354 
L 124.330801 244.960354 
L 124.330801 244.460506 
L 124.965026 244.460506 
L 124.965026 243.960657 
L 125.506102 243.960657 
L 125.506102 243.460808 
L 125.822869 243.460808 
L 125.892487 241.961263 
L 126.236468 241.961263 
L 126.236468 241.461414 
L 126.607172 241.461414 
L 126.607172 240.961566 
L 127.035353 240.961566 
L 127.035353 240.461717 
L 127.165014 240.461717 
L 127.165014 239.46202 
L 127.48501 239.46202 
L 127.48501 238.962171 
L 127.923363 238.962171 
L 127.923363 238.462323 
L 128.290519 238.462323 
L 128.290519 237.962474 
L 128.679738 237.962474 
L 128.679738 237.462626 
L 128.856489 237.462626 
L 128.856489 236.962777 
L 129.06046 236.962777 
L 129.06046 236.462928 
L 129.489668 236.462928 
L 129.489668 235.96308 
L 129.770048 235.96308 
L 129.853291 234.463534 
L 130.531948 234.463534 
L 130.531948 233.963685 
L 131.004728 233.963685 
L 131.004728 233.463837 
L 131.790072 233.463837 
L 131.790072 232.963988 
L 132.060454 232.963988 
L 132.060454 232.46414 
L 132.230358 232.46414 
L 132.254495 231.464443 
L 132.517825 231.464443 
L 132.517825 230.964594 
L 132.963507 230.964594 
L 132.963507 230.464745 
L 133.170708 230.464745 
L 133.170708 229.964897 
L 133.420657 229.964897 
L 133.420657 229.465048 
L 133.844123 229.465048 
L 133.953874 228.465351 
L 134.407429 228.465351 
L 134.407429 227.965503 
L 134.953107 227.965503 
L 134.953107 227.465654 
L 135.138086 227.465654 
L 135.138086 226.965805 
L 135.661706 226.965805 
L 135.760625 225.966108 
L 135.780341 225.966108 
L 135.780341 225.46626 
L 136.112156 225.46626 
L 136.112156 224.966411 
L 136.418789 224.966411 
L 136.418789 224.466563 
L 136.626514 224.466563 
L 136.626514 223.966714 
L 136.79465 223.966714 
L 136.79465 223.466865 
L 136.924311 223.466865 
L 136.96118 222.467168 
L 137.126135 222.467168 
L 137.235245 221.467471 
L 137.289545 221.467471 
L 137.289545 220.967623 
L 137.558536 220.967623 
L 137.629572 219.468077 
L 137.858461 219.468077 
L 137.858461 218.968228 
L 138.392446 218.968228 
L 138.493936 217.968531 
L 138.527635 217.968531 
L 138.527635 217.468683 
L 139.009092 217.468683 
L 139.009092 216.968834 
L 139.172077 216.968834 
L 139.172077 216.468985 
L 139.461666 216.468985 
L 139.461666 215.969137 
L 139.652088 215.969137 
L 139.667863 214.96944 
L 140.11924 214.96944 
L 140.11924 214.469591 
L 140.272217 214.469591 
L 140.378508 213.469894 
L 140.871049 213.469894 
L 140.944478 212.470197 
L 141.220721 212.470197 
L 141.220721 211.4705 
L 142.051655 211.4705 
L 142.133981 210.470803 
L 142.405626 210.470803 
L 142.405626 209.471105 
L 142.923465 209.471105 
L 143.027814 207.471711 
L 143.324386 207.471711 
L 143.324386 206.971863 
L 143.989178 206.971863 
L 143.989178 206.472014 
L 144.233601 206.472014 
L 144.233601 205.972165 
L 144.486611 205.972165 
L 144.498568 204.972468 
L 144.888619 204.972468 
L 144.888619 204.47262 
L 145.235796 204.47262 
L 145.235796 203.972771 
L 145.350002 203.972771 
L 145.350002 203.472923 
L 145.954117 203.472923 
L 145.954117 202.973074 
L 146.280909 202.973074 
L 146.280909 202.473225 
L 146.707319 202.473225 
L 146.707319 201.973377 
L 147.358461 201.973377 
L 147.368603 200.97368 
L 147.509976 200.97368 
L 147.509976 200.473831 
L 147.670154 200.473831 
L 147.670154 199.973983 
L 147.907696 199.973983 
L 147.907696 199.474134 
L 148.23877 199.474134 
L 148.23877 198.974285 
L 148.468742 198.974285 
L 148.468742 198.474437 
L 148.592055 198.474437 
L 148.592055 197.974588 
L 149.039959 197.974588 
L 149.039959 197.47474 
L 149.195872 197.47474 
L 149.195872 196.974891 
L 149.752971 196.974891 
L 149.752971 196.475043 
L 150.249899 196.475043 
L 150.249899 195.975194 
L 150.505862 195.975194 
L 150.56505 194.975497 
L 152.0141 194.975497 
L 152.0141 194.475648 
L 152.594699 194.475648 
L 152.594699 193.9758 
L 153.207444 193.9758 
L 153.207444 193.475951 
L 170.228776 193.475951 
L 170.228776 192.976103 
L 171.048375 192.976103 
L 171.048375 192.476254 
L 171.422484 192.476254 
L 171.422484 191.976405 
L 171.962832 191.976405 
L 172.061541 190.976708 
L 172.274322 190.976708 
L 172.322872 189.977011 
L 172.623288 189.977011 
L 172.623288 189.477162 
L 172.782205 189.477162 
L 172.822298 188.477465 
L 173.030705 188.477465 
L 173.111986 186.97792 
L 173.349008 186.97792 
L 173.39694 185.978222 
L 173.605389 185.978222 
L 173.715403 183.47898 
L 173.844732 183.47898 
L 173.844732 182.979131 
L 173.962079 182.979131 
L 174.058903 181.979434 
L 174.104926 181.979434 
L 174.161738 180.479888 
L 174.281312 180.479888 
L 174.305129 179.480191 
L 174.483796 179.480191 
L 174.483796 178.980342 
L 174.599063 178.980342 
L 174.647927 177.980645 
L 174.743137 177.980645 
L 174.829434 176.980948 
L 174.877658 176.980948 
L 174.877658 176.4811 
L 175.004915 176.4811 
L 175.063018 175.481402 
L 175.234124 175.481402 
L 175.330276 174.481705 
L 175.46036 174.481705 
L 175.486665 173.482008 
L 175.605554 173.482008 
L 175.671699 171.982462 
L 175.773432 171.982462 
L 175.846869 170.482917 
L 175.93774 170.482917 
L 175.93774 169.983068 
L 176.053603 169.983068 
L 176.141459 168.483522 
L 176.190077 168.483522 
L 176.244369 167.483825 
L 176.360142 167.483825 
L 176.390886 166.484128 
L 176.488521 166.484128 
L 176.488521 165.98428 
L 176.670834 165.98428 
L 176.691603 164.484734 
L 176.84004 164.484734 
L 176.84004 163.984885 
L 177.053884 163.984885 
L 177.066817 162.985188 
L 177.201114 162.985188 
L 177.201114 162.48534 
L 177.341659 162.48534 
L 177.443166 160.985794 
L 177.689034 160.985794 
L 177.735306 159.986097 
L 177.92621 159.986097 
L 177.987632 158.9864 
L 178.474775 158.9864 
L 178.474775 158.486551 
L 178.603767 158.486551 
L 178.603767 157.986702 
L 178.780424 157.986702 
L 178.780424 157.486854 
L 178.900534 157.486854 
L 178.900534 156.987005 
L 179.049518 156.987005 
L 179.049518 156.487157 
L 179.350203 156.487157 
L 179.421344 155.48746 
L 179.532325 155.48746 
L 179.532325 154.987611 
L 179.854799 154.987611 
L 179.854799 154.487762 
L 180.429168 154.487762 
L 180.429168 153.987914 
L 180.689168 153.987914 
L 180.689168 153.488065 
L 181.129191 153.488065 
L 181.20656 152.488368 
L 181.601157 152.488368 
L 181.67221 151.488671 
L 182.160259 151.488671 
L 182.160259 150.988822 
L 182.503007 150.988822 
L 182.503007 150.488974 
L 182.898733 150.488974 
L 182.898733 149.989125 
L 183.7198 149.989125 
L 183.7198 149.489277 
L 187.004339 149.489277 
L 187.004339 148.989428 
L 187.184122 148.989428 
L 187.184122 148.489579 
L 187.299532 148.489579 
L 187.299532 147.989731 
L 187.817609 147.989731 
L 187.909091 146.990034 
L 188.28292 146.990034 
L 188.3188 145.490488 
L 188.434663 145.490488 
L 188.533502 144.490791 
L 188.55263 144.490791 
L 188.60798 142.991245 
L 188.677397 142.991245 
L 188.781479 140.991851 
L 188.813524 140.991851 
L 188.889631 139.992154 
L 188.93364 139.992154 
L 189.015743 138.492608 
L 189.078922 138.492608 
L 189.078922 137.992759 
L 189.303758 137.992759 
L 189.303758 137.492911 
L 189.466875 137.492911 
L 189.470502 136.493214 
L 189.58349 136.493214 
L 189.659008 133.993971 
L 189.744916 133.993971 
L 189.795724 131.994577 
L 189.864126 131.994577 
L 189.95697 130.495031 
L 189.983407 130.495031 
L 190.080875 127.495939 
L 190.100128 127.495939 
L 190.201297 125.496545 
L 190.269862 125.496545 
L 190.348508 121.997605 
L 190.447393 121.997605 
L 190.531219 119.498362 
L 190.57894 119.498362 
L 190.679068 116.499271 
L 190.694292 116.499271 
L 190.778625 114.999725 
L 190.811405 114.999725 
L 190.893504 113.000331 
L 190.93691 113.000331 
L 191.041641 110.001239 
L 191.053239 110.001239 
L 191.160568 107.002148 
L 191.178666 107.002148 
L 191.208241 105.002754 
L 191.330932 105.002754 
L 191.421982 102.503511 
L 191.449529 102.503511 
L 191.555258 100.004268 
L 191.598656 100.004268 
L 191.70269 96.505328 
L 191.74413 96.505328 
L 191.855214 94.006085 
L 191.920738 94.006085 
L 192.011904 90.007296 
L 192.044795 90.007296 
L 192.054181 89.007599 
L 192.172636 89.007599 
L 192.252449 87.008205 
L 192.389525 87.008205 
L 192.496585 85.008811 
L 192.527053 85.008811 
L 192.547589 84.009114 
L 192.669545 84.009114 
L 192.75163 82.009719 
L 192.821362 82.009719 
L 192.890071 79.010628 
L 192.948855 79.010628 
L 193.045899 78.010931 
L 193.093851 78.010931 
L 193.181299 76.511385 
L 193.251527 76.511385 
L 193.251527 76.011536 
L 193.3694 76.011536 
L 193.3694 75.511688 
L 193.564101 75.511688 
L 193.667773 74.511991 
L 193.92815 74.511991 
L 194.000336 73.512294 
L 194.29576 73.512294 
L 194.395867 72.512596 
L 194.420464 72.512596 
L 194.522575 71.013051 
L 194.591671 71.013051 
L 194.671266 70.013354 
L 202.014507 70.013354 
L 202.118002 69.013656 
L 202.222632 69.013656 
L 202.321865 68.013959 
L 202.401107 68.013959 
L 202.490308 66.514414 
L 202.681389 66.514414 
L 202.768749 64.015171 
L 202.806357 64.015171 
L 202.897294 63.015474 
L 202.924567 63.015474 
L 203.023231 60.016382 
L 203.044896 60.016382 
L 203.138329 58.016988 
L 203.171429 58.016988 
L 203.275286 55.517745 
L 203.303205 55.517745 
L 203.41403 53.018502 
L 203.439693 53.018502 
L 203.547229 49.519562 
L 203.566233 49.519562 
L 203.648074 47.020319 
L 203.74714 47.020319 
L 203.855982 45.020925 
L 204.105378 45.020925 
L 204.105378 44.521076 
L 204.321873 44.521076 
L 204.321873 44.021228 
L 338.688 44.021228 
L 338.688 44.021228 
" style="fill:none;stroke:#000080;stroke-linecap:square;stroke-width:1.5;"/>
   </g>
   <g id="line2d_44">
    <defs>
     <path d="M 0 6 
C 1.591219 6 3.117479 5.367802 4.242641 4.242641 
C 5.367802 3.117479 6 1.591219 6 0 
C 6 -1.591219 5.367802 -3.117479 4.242641 -4.242641 
C 3.117479 -5.367802 1.591219 -6 0 -6 
C -1.591219 -6 -3.117479 -5.367802 -4.242641 -4.242641 
C -5.367802 -3.117479 -6 -1.591219 -6 0 
C -6 1.591219 -5.367802 3.117479 -4.242641 4.242641 
C -3.117479 5.367802 -1.591219 6 0 6 
z
" id="mc8dc9e01a6" style="stroke:#000080;stroke-width:1.5;"/>
    </defs>
    <g>
     <use style="fill-opacity:0;stroke:#000080;stroke-width:1.5;" x="132.254495" xlink:href="#mc8dc9e01a6" y="231.464443"/>
     <use style="fill-opacity:0;stroke:#000080;stroke-width:1.5;" x="177.987632" xlink:href="#mc8dc9e01a6" y="158.9864"/>
     <use style="fill-opacity:0;stroke:#000080;stroke-width:1.5;" x="204.321873" xlink:href="#mc8dc9e01a6" y="44.521076"/>
     <use style="fill-opacity:0;stroke:#000080;stroke-width:1.5;" x="204.321873" xlink:href="#mc8dc9e01a6" y="44.021228"/>
     <use style="fill-opacity:0;stroke:#000080;stroke-width:1.5;" x="204.321873" xlink:href="#mc8dc9e01a6" y="44.021228"/>
     <use style="fill-opacity:0;stroke:#000080;stroke-width:1.5;" x="338.688" xlink:href="#mc8dc9e01a6" y="44.021228"/>
    </g>
   </g>
   <g id="line2d_45">
    <path style="fill:none;stroke:#000080;stroke-linecap:square;stroke-width:1.5;"/>
    <g/>
   </g>
   <g id="line2d_46">
    <defs>
     <path d="M 0 1.5 
C 0.397805 1.5 0.77937 1.341951 1.06066 1.06066 
C 1.341951 0.77937 1.5 0.397805 1.5 0 
C 1.5 -0.397805 1.341951 -0.77937 1.06066 -1.06066 
C 0.77937 -1.341951 0.397805 -1.5 0 -1.5 
C -0.397805 -1.5 -0.77937 -1.341951 -1.06066 -1.06066 
C -1.341951 -0.77937 -1.5 -0.397805 -1.5 0 
C -1.5 0.397805 -1.341951 0.77937 -1.06066 1.06066 
C -0.77937 1.341951 -0.397805 1.5 0 1.5 
z
" id="me31ff780d0" style="stroke:#ff00ff;"/>
    </defs>
    <g>
     <use style="fill:#ff00ff;stroke:#ff00ff;" x="204.880517" xlink:href="#me31ff780d0" y="44.021228"/>
     <use style="fill:#ff00ff;stroke:#ff00ff;" x="204.880517" xlink:href="#me31ff780d0" y="44.021228"/>
    </g>
   </g>
   <g id="line2d_47">
    <path d="M 17.444571 298.944 
L 17.444571 278.950057 
L 29.53256 278.950057 
L 29.53256 276.950663 
L 41.620548 276.950663 
L 41.620548 275.950966 
L 45.512012 275.950966 
L 45.512012 275.451117 
L 48.691568 275.451117 
L 48.691568 274.45142 
L 53.708537 274.45142 
L 53.708537 273.951571 
L 63.467834 273.951571 
L 63.467834 272.951874 
L 72.867545 272.951874 
L 72.867545 272.452026 
L 75.555822 272.452026 
L 75.555822 271.952177 
L 81.334453 271.952177 
L 81.334453 271.452328 
L 83.438118 271.452328 
L 83.438118 270.95248 
L 84.588378 270.95248 
L 84.588378 270.452631 
L 84.955534 270.452631 
L 84.955534 269.952783 
L 85.315119 269.952783 
L 85.315119 269.452934 
L 88.553893 269.452934 
L 88.553893 268.953086 
L 88.846997 268.953086 
L 88.846997 268.453237 
L 89.972502 268.453237 
L 89.972502 267.953388 
L 90.509138 267.953388 
L 90.509138 267.45354 
L 92.267099 267.45354 
L 92.267099 266.953691 
L 92.504372 266.953691 
L 92.504372 266.453843 
L 96.110718 266.453843 
L 96.110718 265.953994 
L 96.301313 265.953994 
L 96.301313 265.454146 
L 96.676366 265.454146 
L 96.676366 264.954297 
L 96.86091 264.954297 
L 96.86091 264.454448 
L 97.043522 264.454448 
L 97.043522 263.9546 
L 97.403108 263.9546 
L 97.403108 263.454751 
L 97.755429 263.454751 
L 97.755429 262.954903 
L 100.493461 262.954903 
L 100.493461 262.455054 
L 101.365607 262.455054 
L 101.365607 261.955206 
L 101.785851 261.955206 
L 101.785851 261.455357 
L 102.330873 261.455357 
L 102.330873 260.955508 
L 102.728744 260.955508 
L 102.728744 260.45566 
L 105.621863 260.45566 
L 105.621863 259.955811 
L 105.842616 259.955811 
L 105.842616 259.455963 
L 108.102622 259.455963 
L 108.102622 258.956114 
L 108.294265 258.956114 
L 108.294265 258.456266 
L 109.040444 258.456266 
L 109.131511 257.456568 
L 109.491096 257.456568 
L 109.491096 256.95672 
L 109.930396 256.95672 
L 110.016944 255.957023 
L 111.819788 255.957023 
L 111.819788 255.457174 
L 112.655818 255.457174 
L 112.655818 254.957326 
L 113.022974 254.957326 
L 113.095487 253.957628 
L 113.594805 253.957628 
L 113.664983 252.458083 
L 114.216469 252.458083 
L 114.216469 251.958234 
L 114.618932 251.958234 
L 114.618932 251.458386 
L 115.141496 251.458386 
L 115.141496 250.958537 
L 115.773423 250.958537 
L 115.773423 249.95884 
L 115.958621 249.95884 
L 115.958621 249.458991 
L 116.502698 249.458991 
L 116.502698 248.959143 
L 117.316679 248.959143 
L 117.316679 248.459294 
L 118.310324 248.459294 
L 118.310324 247.959446 
L 119.702083 247.959446 
L 119.702083 247.459597 
L 120.093994 247.459597 
L 120.093994 246.959748 
L 120.8059 246.959748 
L 120.8059 246.4599 
L 121.036887 246.4599 
L 121.036887 245.960051 
L 121.219499 245.960051 
L 121.310093 244.960354 
L 121.931406 244.960354 
L 122.018385 243.960657 
L 122.40451 243.960657 
L 122.40451 243.460808 
L 122.823744 243.460808 
L 122.823744 242.96096 
L 123.313873 242.96096 
L 123.313873 242.461111 
L 123.672636 242.461111 
L 123.672636 241.961263 
L 125.183475 241.961263 
L 125.291682 240.961566 
L 126.607172 240.961566 
L 126.607172 240.461717 
L 127.132689 240.461717 
L 127.165014 239.46202 
L 127.799239 239.46202 
L 127.799239 238.962171 
L 128.560901 238.962171 
L 128.560901 238.462323 
L 128.797771 238.462323 
L 128.797771 237.462626 
L 128.973336 237.462626 
L 128.973336 236.962777 
L 129.853291 236.962777 
L 129.853291 236.462928 
L 130.344571 236.462928 
L 130.344571 235.96308 
L 130.69097 235.96308 
L 130.69097 235.463231 
L 131.690703 235.463231 
L 131.690703 234.963383 
L 132.011604 234.963383 
L 132.011604 234.463534 
L 132.494049 234.463534 
L 132.494049 233.963685 
L 133.032848 233.963685 
L 133.032848 233.463837 
L 134.106373 233.463837 
L 134.106373 232.963988 
L 134.55603 232.963988 
L 134.55603 232.46414 
L 135.035562 232.46414 
L 135.035562 231.964291 
L 135.482227 231.964291 
L 135.582166 230.964594 
L 136.092812 230.964594 
L 136.092812 230.464745 
L 136.850337 230.464745 
L 136.850337 229.964897 
L 137.089613 229.964897 
L 137.089613 229.465048 
L 138.477062 229.465048 
L 138.477062 228.9652 
L 138.745106 228.9652 
L 138.745106 228.465351 
L 142.792145 228.465351 
L 142.792145 227.965503 
L 143.527762 227.965503 
L 143.527762 227.465654 
L 143.840863 227.465654 
L 143.840863 226.965805 
L 144.546314 226.965805 
L 144.546314 226.465957 
L 145.0862 226.465957 
L 145.0862 225.966108 
L 148.910504 225.966108 
L 148.910504 225.46626 
L 151.047887 225.46626 
L 151.047887 224.966411 
L 166.429323 224.966411 
L 166.429323 224.466563 
L 166.759266 224.466563 
L 166.759266 223.966714 
L 167.20054 223.966714 
L 167.20054 223.466865 
L 167.452352 223.466865 
L 167.452352 222.467168 
L 167.643609 222.467168 
L 167.732149 221.467471 
L 168.044746 221.467471 
L 168.088065 219.967925 
L 168.244969 219.967925 
L 168.324419 218.968228 
L 168.364009 218.968228 
L 168.364009 218.46838 
L 168.626667 218.46838 
L 168.707384 217.468683 
L 168.793666 217.468683 
L 168.867706 216.468985 
L 169.099626 216.468985 
L 169.099626 215.969137 
L 169.224577 215.969137 
L 169.334258 214.96944 
L 169.480386 214.96944 
L 169.571453 213.969743 
L 169.633787 213.969743 
L 169.695899 212.470197 
L 169.752173 212.470197 
L 169.774632 210.970651 
L 169.919913 210.970651 
L 169.919913 210.470803 
L 170.26973 210.470803 
L 170.364915 209.471105 
L 170.408256 209.471105 
L 170.408256 208.971257 
L 170.639386 208.971257 
L 170.639386 208.471408 
L 170.835842 208.471408 
L 170.933246 205.972165 
L 171.066621 205.972165 
L 171.108254 204.972468 
L 171.286669 204.972468 
L 171.371357 202.473225 
L 171.453088 202.473225 
L 171.557249 200.473831 
L 171.628028 200.473831 
L 171.675893 198.974285 
L 171.76122 198.974285 
L 171.863562 197.47474 
L 171.905821 197.47474 
L 171.905821 196.974891 
L 172.093501 196.974891 
L 172.147455 194.975497 
L 172.271891 194.975497 
L 172.373705 193.9758 
L 172.407511 193.9758 
L 172.506141 192.476254 
L 172.534903 192.476254 
L 172.642339 190.976708 
L 172.768032 190.976708 
L 172.768032 190.47686 
L 172.904553 190.47686 
L 173.000419 189.477162 
L 173.026049 189.477162 
L 173.098079 187.977617 
L 173.222844 187.977617 
L 173.222844 186.97792 
L 173.378696 186.97792 
L 173.378696 186.478071 
L 173.706448 186.478071 
L 173.733298 185.478374 
L 173.829174 185.478374 
L 173.878023 184.478677 
L 173.984132 184.478677 
L 174.030352 183.47898 
L 174.124612 183.47898 
L 174.227062 182.479282 
L 174.253123 182.479282 
L 174.346191 180.979737 
L 174.37854 180.979737 
L 174.37854 180.479888 
L 174.532984 180.479888 
L 174.569252 178.480494 
L 174.938273 178.480494 
L 175.036065 177.480797 
L 175.110601 177.480797 
L 175.160115 176.4811 
L 175.236175 176.4811 
L 175.28738 175.481402 
L 175.399504 175.481402 
L 175.399504 174.981554 
L 175.75154 174.981554 
L 175.75154 174.481705 
L 175.919999 174.481705 
L 175.919999 173.981857 
L 176.047731 173.981857 
L 176.073165 172.98216 
L 176.213366 172.98216 
L 176.267585 171.982462 
L 176.566617 171.982462 
L 176.640581 169.983068 
L 176.910992 169.983068 
L 176.929616 168.983371 
L 177.063123 168.983371 
L 177.077894 167.983674 
L 177.239557 167.983674 
L 177.239557 167.483825 
L 177.699723 167.483825 
L 177.699723 166.983977 
L 177.859278 166.983977 
L 177.927968 165.98428 
L 178.387677 165.98428 
L 178.447497 164.984582 
L 178.785445 164.984582 
L 178.795483 163.984885 
L 179.008261 163.984885 
L 179.008261 163.485037 
L 179.120253 163.485037 
L 179.120253 162.985188 
L 179.252722 162.985188 
L 179.252722 162.48534 
L 179.51789 162.48534 
L 179.559561 161.485642 
L 179.641012 161.485642 
L 179.67762 160.485945 
L 179.900384 160.485945 
L 179.900384 159.986097 
L 180.115686 159.986097 
L 180.2131 158.9864 
L 180.313038 158.9864 
L 180.410883 157.986702 
L 181.286487 157.986702 
L 181.374707 156.987005 
L 181.759916 156.987005 
L 181.759916 156.487157 
L 182.248295 156.487157 
L 182.248295 155.987308 
L 187.131314 155.987308 
L 187.131314 155.48746 
L 187.342615 155.48746 
L 187.342615 154.987611 
L 187.499681 154.987611 
L 187.537207 153.987914 
L 187.718627 153.987914 
L 187.74768 152.988217 
L 187.976401 152.988217 
L 188.038531 151.98852 
L 188.170926 151.98852 
L 188.170926 151.488671 
L 188.330421 151.488671 
L 188.379724 150.488974 
L 188.44236 150.488974 
L 188.544981 146.990034 
L 188.6451 146.990034 
L 188.752209 145.490488 
L 188.765434 145.490488 
L 188.867115 141.991548 
L 188.905562 141.991548 
L 189.012019 140.991851 
L 189.045502 140.991851 
L 189.045502 140.492002 
L 189.188937 140.492002 
L 189.268932 137.492911 
L 189.343082 137.492911 
L 189.427829 133.494122 
L 189.556439 133.494122 
L 189.664389 131.494728 
L 189.686795 131.494728 
L 189.796614 129.495334 
L 189.824183 129.495334 
L 189.919008 125.996394 
L 189.98957 125.996394 
L 190.081751 123.996999 
L 190.111496 123.996999 
L 190.183025 122.497454 
L 190.27679 122.497454 
L 190.383827 119.998211 
L 190.419075 119.998211 
L 190.494488 117.998817 
L 190.544014 117.998817 
L 190.617192 116.499271 
L 190.706968 116.499271 
L 190.813084 113.000331 
L 190.823996 113.000331 
L 190.932741 112.000634 
L 190.956075 112.000634 
L 191.002648 109.501391 
L 191.068139 109.501391 
L 191.172087 107.002148 
L 191.198388 107.002148 
L 191.240224 105.002754 
L 191.399264 105.002754 
L 191.443861 103.003359 
L 191.525461 103.003359 
L 191.62352 101.503814 
L 191.710667 101.503814 
L 191.796587 100.004268 
L 191.828302 100.004268 
L 191.901028 98.504722 
L 192.06825 98.504722 
L 192.15554 97.005176 
L 192.191266 97.005176 
L 192.270994 94.006085 
L 192.30263 94.006085 
L 192.409457 92.506539 
L 192.426305 92.506539 
L 192.52477 91.006994 
L 192.554429 91.006994 
L 192.598445 90.007296 
L 192.677092 90.007296 
L 192.744867 88.507751 
L 192.80639 88.507751 
L 192.890071 86.508356 
L 193.090167 86.508356 
L 193.090167 86.008508 
L 193.203276 86.008508 
L 193.203276 85.508659 
L 193.42081 85.508659 
L 193.464859 84.508962 
L 193.62209 84.508962 
L 193.62209 84.009114 
L 193.750978 84.009114 
L 193.750978 83.509265 
L 193.968134 83.509265 
L 194.03178 82.009719 
L 194.107711 82.009719 
L 194.15006 81.010022 
L 194.542926 81.010022 
L 194.542926 80.510174 
L 194.747149 80.510174 
L 194.747149 80.010325 
L 194.87267 80.010325 
L 194.87267 79.510476 
L 195.082294 79.510476 
L 195.149867 78.510779 
L 195.338725 78.510779 
L 195.338725 78.010931 
L 199.585131 78.010931 
L 199.585131 77.511082 
L 199.875662 77.511082 
L 199.937472 76.511385 
L 199.994104 76.511385 
L 200.078709 75.511688 
L 200.222239 75.511688 
L 200.222239 75.011839 
L 200.451294 75.011839 
L 200.451294 74.511991 
L 200.691681 74.511991 
L 200.691681 74.012142 
L 200.893507 74.012142 
L 200.983713 72.012748 
L 201.083708 72.012748 
L 201.158561 71.013051 
L 201.21137 71.013051 
L 201.250641 70.013354 
L 201.322945 70.013354 
L 201.397696 68.513808 
L 201.437007 68.513808 
L 201.43792 67.514111 
L 201.63179 67.514111 
L 201.739818 65.014868 
L 201.75462 65.014868 
L 201.850749 64.015171 
L 202.067432 64.015171 
L 202.177618 62.515625 
L 202.269708 62.515625 
L 202.373002 60.516231 
L 202.408881 60.516231 
L 202.480419 58.516836 
L 202.538811 58.516836 
L 202.581194 57.517139 
L 202.687765 57.517139 
L 202.711548 56.517442 
L 202.852727 56.517442 
L 202.893514 55.517745 
L 203.03365 55.517745 
L 203.129629 53.518351 
L 203.263777 53.518351 
L 203.291714 52.018805 
L 203.428292 52.018805 
L 203.493341 51.019108 
L 203.611837 51.019108 
L 203.696273 48.519865 
L 203.807027 48.519865 
L 203.884972 47.520168 
L 203.91827 47.520168 
L 203.91827 47.020319 
L 204.513911 47.020319 
L 204.581524 46.020622 
L 204.676577 46.020622 
L 204.676577 45.520773 
L 204.791092 45.520773 
L 204.880517 44.021228 
L 338.688 44.021228 
L 338.688 44.021228 
" style="fill:none;stroke:#ff00ff;stroke-linecap:square;stroke-width:1.5;"/>
   </g>
   <g id="line2d_48">
    <defs>
     <path d="M -0 8.485281 
L 5.091169 0 
L 0 -8.485281 
L -5.091169 -0 
z
" id="mb0988acb48" style="stroke:#ff00ff;stroke-linejoin:miter;stroke-width:1.5;"/>
    </defs>
    <g>
     <use style="fill-opacity:0;stroke:#ff00ff;stroke-linejoin:miter;stroke-width:1.5;" x="92.267099" xlink:href="#mb0988acb48" y="267.45354"/>
     <use style="fill-opacity:0;stroke:#ff00ff;stroke-linejoin:miter;stroke-width:1.5;" x="169.633787" xlink:href="#mb0988acb48" y="213.469894"/>
     <use style="fill-opacity:0;stroke:#ff00ff;stroke-linejoin:miter;stroke-width:1.5;" x="195.338725" xlink:href="#mb0988acb48" y="78.010931"/>
     <use style="fill-opacity:0;stroke:#ff00ff;stroke-linejoin:miter;stroke-width:1.5;" x="204.880517" xlink:href="#mb0988acb48" y="44.021228"/>
     <use style="fill-opacity:0;stroke:#ff00ff;stroke-linejoin:miter;stroke-width:1.5;" x="204.880517" xlink:href="#mb0988acb48" y="44.021228"/>
     <use style="fill-opacity:0;stroke:#ff00ff;stroke-linejoin:miter;stroke-width:1.5;" x="338.688" xlink:href="#mb0988acb48" y="44.021228"/>
    </g>
   </g>
   <g id="line2d_49">
    <path style="fill:none;stroke:#ff00ff;stroke-linecap:square;stroke-width:1.5;"/>
    <g/>
   </g>
   <g id="line2d_50">
    <path d="M 338.688 44.021228 
L 369.60768 293.845545 
" style="fill:none;stroke:#ff00ff;stroke-linecap:square;stroke-width:1.5;"/>
    <g>
     <use style="fill-opacity:0;stroke:#ff00ff;stroke-linejoin:miter;stroke-width:1.5;" x="338.688" xlink:href="#mb0988acb48" y="44.021228"/>
     <use style="fill-opacity:0;stroke:#ff00ff;stroke-linejoin:miter;stroke-width:1.5;" x="369.60768" xlink:href="#mb0988acb48" y="293.845545"/>
    </g>
   </g>
   <g id="line2d_51">
    <path d="M 338.688 44.021228 
L 369.60768 171.482614 
" style="fill:none;stroke:#000080;stroke-linecap:square;stroke-width:1.5;"/>
    <g>
     <use style="fill-opacity:0;stroke:#000080;stroke-width:1.5;" x="338.688" xlink:href="#mc8dc9e01a6" y="44.021228"/>
     <use style="fill-opacity:0;stroke:#000080;stroke-width:1.5;" x="369.60768" xlink:href="#mc8dc9e01a6" y="171.482614"/>
    </g>
   </g>
   <g id="line2d_52">
    <path d="M 338.688 298.944 
L 338.688 44.021228 
" style="fill:none;stroke:#000000;stroke-linecap:square;stroke-width:1.5;"/>
   </g>
   <g id="patch_3">
    <path d="M 57.6 298.944 
L 57.6 41.472 
" style="fill:none;stroke:#000000;stroke-linecap:square;stroke-linejoin:miter;stroke-width:0.8;"/>
   </g>
   <g id="patch_4">
    <path d="M 338.688 298.944 
L 338.688 41.472 
" style="fill:none;stroke:#000000;stroke-linecap:square;stroke-linejoin:miter;stroke-width:0.8;"/>
   </g>
   <g id="patch_5">
    <path d="M 57.6 298.944 
L 338.688 298.944 
" style="fill:none;stroke:#000000;stroke-linecap:square;stroke-linejoin:miter;stroke-width:0.8;"/>
   </g>
   <g id="patch_6">
    <path d="M 57.6 41.472 
L 338.688 41.472 
" style="fill:none;stroke:#000000;stroke-linecap:square;stroke-linejoin:miter;stroke-width:0.8;"/>
   </g>
   <g id="text_13">
    <!-- lq-CMA-ES -->
    <defs>
     <path d="M 14.796875 27.296875 
Q 14.796875 17.390625 18.875 11.75 
Q 22.953125 6.109375 30.078125 6.109375 
Q 37.203125 6.109375 41.296875 11.75 
Q 45.40625 17.390625 45.40625 27.296875 
Q 45.40625 37.203125 41.296875 42.84375 
Q 37.203125 48.484375 30.078125 48.484375 
Q 22.953125 48.484375 18.875 42.84375 
Q 14.796875 37.203125 14.796875 27.296875 
z
M 45.40625 8.203125 
Q 42.578125 3.328125 38.25 0.953125 
Q 33.9375 -1.421875 27.875 -1.421875 
Q 17.96875 -1.421875 11.734375 6.484375 
Q 5.515625 14.40625 5.515625 27.296875 
Q 5.515625 40.1875 11.734375 48.09375 
Q 17.96875 56 27.875 56 
Q 33.9375 56 38.25 53.625 
Q 42.578125 51.265625 45.40625 46.390625 
L 45.40625 54.6875 
L 54.390625 54.6875 
L 54.390625 -20.796875 
L 45.40625 -20.796875 
z
" id="DejaVuSans-113"/>
     <path d="M 64.40625 67.28125 
L 64.40625 56.890625 
Q 59.421875 61.53125 53.78125 63.8125 
Q 48.140625 66.109375 41.796875 66.109375 
Q 29.296875 66.109375 22.65625 58.46875 
Q 16.015625 50.828125 16.015625 36.375 
Q 16.015625 21.96875 22.65625 14.328125 
Q 29.296875 6.6875 41.796875 6.6875 
Q 48.140625 6.6875 53.78125 8.984375 
Q 59.421875 11.28125 64.40625 15.921875 
L 64.40625 5.609375 
Q 59.234375 2.09375 53.4375 0.328125 
Q 47.65625 -1.421875 41.21875 -1.421875 
Q 24.65625 -1.421875 15.125 8.703125 
Q 5.609375 18.84375 5.609375 36.375 
Q 5.609375 53.953125 15.125 64.078125 
Q 24.65625 74.21875 41.21875 74.21875 
Q 47.75 74.21875 53.53125 72.484375 
Q 59.328125 70.75 64.40625 67.28125 
z
" id="DejaVuSans-67"/>
     <path d="M 9.8125 72.90625 
L 24.515625 72.90625 
L 43.109375 23.296875 
L 61.8125 72.90625 
L 76.515625 72.90625 
L 76.515625 0 
L 66.890625 0 
L 66.890625 64.015625 
L 48.09375 14.015625 
L 38.1875 14.015625 
L 19.390625 64.015625 
L 19.390625 0 
L 9.8125 0 
z
" id="DejaVuSans-77"/>
     <path d="M 34.1875 63.1875 
L 20.796875 26.90625 
L 47.609375 26.90625 
z
M 28.609375 72.90625 
L 39.796875 72.90625 
L 67.578125 0 
L 57.328125 0 
L 50.6875 18.703125 
L 17.828125 18.703125 
L 11.1875 0 
L 0.78125 0 
z
" id="DejaVuSans-65"/>
     <path d="M 9.8125 72.90625 
L 55.90625 72.90625 
L 55.90625 64.59375 
L 19.671875 64.59375 
L 19.671875 43.015625 
L 54.390625 43.015625 
L 54.390625 34.71875 
L 19.671875 34.71875 
L 19.671875 8.296875 
L 56.78125 8.296875 
L 56.78125 0 
L 9.8125 0 
z
" id="DejaVuSans-69"/>
     <path d="M 53.515625 70.515625 
L 53.515625 60.890625 
Q 47.90625 63.578125 42.921875 64.890625 
Q 37.9375 66.21875 33.296875 66.21875 
Q 25.25 66.21875 20.875 63.09375 
Q 16.5 59.96875 16.5 54.203125 
Q 16.5 49.359375 19.40625 46.890625 
Q 22.3125 44.4375 30.421875 42.921875 
L 36.375 41.703125 
Q 47.40625 39.59375 52.65625 34.296875 
Q 57.90625 29 57.90625 20.125 
Q 57.90625 9.515625 50.796875 4.046875 
Q 43.703125 -1.421875 29.984375 -1.421875 
Q 24.8125 -1.421875 18.96875 -0.25 
Q 13.140625 0.921875 6.890625 3.21875 
L 6.890625 13.375 
Q 12.890625 10.015625 18.65625 8.296875 
Q 24.421875 6.59375 29.984375 6.59375 
Q 38.421875 6.59375 43.015625 9.90625 
Q 47.609375 13.234375 47.609375 19.390625 
Q 47.609375 24.75 44.3125 27.78125 
Q 41.015625 30.8125 33.5 32.328125 
L 27.484375 33.5 
Q 16.453125 35.6875 11.515625 40.375 
Q 6.59375 45.0625 6.59375 53.421875 
Q 6.59375 63.09375 13.40625 68.65625 
Q 20.21875 74.21875 32.171875 74.21875 
Q 37.3125 74.21875 42.625 73.28125 
Q 47.953125 72.359375 53.515625 70.515625 
z
" id="DejaVuSans-83"/>
    </defs>
    <g transform="translate(375.22944 298.536482)scale(0.17 -0.17)">
     <use xlink:href="#DejaVuSans-108"/>
     <use x="27.783203" xlink:href="#DejaVuSans-113"/>
     <use x="91.259766" xlink:href="#DejaVuSans-45"/>
     <use x="127.34375" xlink:href="#DejaVuSans-67"/>
     <use x="197.167969" xlink:href="#DejaVuSans-77"/>
     <use x="283.447266" xlink:href="#DejaVuSans-65"/>
     <use x="351.824219" xlink:href="#DejaVuSans-45"/>
     <use x="387.908203" xlink:href="#DejaVuSans-69"/>
     <use x="451.091797" xlink:href="#DejaVuSans-83"/>
    </g>
   </g>
   <g id="text_14">
    <!-- CMA-ES  2 -->
    <g transform="translate(375.22944 176.173551)scale(0.17 -0.17)">
     <use xlink:href="#DejaVuSans-67"/>
     <use x="69.824219" xlink:href="#DejaVuSans-77"/>
     <use x="156.103516" xlink:href="#DejaVuSans-65"/>
     <use x="224.480469" xlink:href="#DejaVuSans-45"/>
     <use x="260.564453" xlink:href="#DejaVuSans-69"/>
     <use x="323.748047" xlink:href="#DejaVuSans-83"/>
     <use x="387.224609" xlink:href="#DejaVuSans-32"/>
     <use x="419.011719" xlink:href="#DejaVuSans-32"/>
     <use x="450.798828" xlink:href="#DejaVuSans-50"/>
    </g>
   </g>
   <g id="text_15">
    <!-- best 2009 -->
    <defs>
     <path d="M 48.6875 27.296875 
Q 48.6875 37.203125 44.609375 42.84375 
Q 40.53125 48.484375 33.40625 48.484375 
Q 26.265625 48.484375 22.1875 42.84375 
Q 18.109375 37.203125 18.109375 27.296875 
Q 18.109375 17.390625 22.1875 11.75 
Q 26.265625 6.109375 33.40625 6.109375 
Q 40.53125 6.109375 44.609375 11.75 
Q 48.6875 17.390625 48.6875 27.296875 
z
M 18.109375 46.390625 
Q 20.953125 51.265625 25.265625 53.625 
Q 29.59375 56 35.59375 56 
Q 45.5625 56 51.78125 48.09375 
Q 58.015625 40.1875 58.015625 27.296875 
Q 58.015625 14.40625 51.78125 6.484375 
Q 45.5625 -1.421875 35.59375 -1.421875 
Q 29.59375 -1.421875 25.265625 0.953125 
Q 20.953125 3.328125 18.109375 8.203125 
L 18.109375 0 
L 9.078125 0 
L 9.078125 75.984375 
L 18.109375 75.984375 
z
" id="DejaVuSans-98"/>
     <path d="M 10.984375 1.515625 
L 10.984375 10.5 
Q 14.703125 8.734375 18.5 7.8125 
Q 22.3125 6.890625 25.984375 6.890625 
Q 35.75 6.890625 40.890625 13.453125 
Q 46.046875 20.015625 46.78125 33.40625 
Q 43.953125 29.203125 39.59375 26.953125 
Q 35.25 24.703125 29.984375 24.703125 
Q 19.046875 24.703125 12.671875 31.3125 
Q 6.296875 37.9375 6.296875 49.421875 
Q 6.296875 60.640625 12.9375 67.421875 
Q 19.578125 74.21875 30.609375 74.21875 
Q 43.265625 74.21875 49.921875 64.515625 
Q 56.59375 54.828125 56.59375 36.375 
Q 56.59375 19.140625 48.40625 8.859375 
Q 40.234375 -1.421875 26.421875 -1.421875 
Q 22.703125 -1.421875 18.890625 -0.6875 
Q 15.09375 0.046875 10.984375 1.515625 
z
M 30.609375 32.421875 
Q 37.25 32.421875 41.125 36.953125 
Q 45.015625 41.5 45.015625 49.421875 
Q 45.015625 57.28125 41.125 61.84375 
Q 37.25 66.40625 30.609375 66.40625 
Q 23.96875 66.40625 20.09375 61.84375 
Q 16.21875 57.28125 16.21875 49.421875 
Q 16.21875 41.5 20.09375 36.953125 
Q 23.96875 32.421875 30.609375 32.421875 
z
" id="DejaVuSans-57"/>
    </defs>
    <g transform="translate(375.22944 53.810621)scale(0.17 -0.17)">
     <use xlink:href="#DejaVuSans-98"/>
     <use x="63.476562" xlink:href="#DejaVuSans-101"/>
     <use x="125" xlink:href="#DejaVuSans-115"/>
     <use x="177.099609" xlink:href="#DejaVuSans-116"/>
     <use x="216.308594" xlink:href="#DejaVuSans-32"/>
     <use x="248.095703" xlink:href="#DejaVuSans-50"/>
     <use x="311.71875" xlink:href="#DejaVuSans-48"/>
     <use x="375.341797" xlink:href="#DejaVuSans-48"/>
     <use x="438.964844" xlink:href="#DejaVuSans-57"/>
    </g>
   </g>
   <g id="text_16">
    <!-- bbob f17, 10-D -->
    <defs>
     <path d="M 8.203125 72.90625 
L 55.078125 72.90625 
L 55.078125 68.703125 
L 28.609375 0 
L 18.3125 0 
L 43.21875 64.59375 
L 8.203125 64.59375 
z
" id="DejaVuSans-55"/>
     <path d="M 19.671875 64.796875 
L 19.671875 8.109375 
L 31.59375 8.109375 
Q 46.6875 8.109375 53.6875 14.9375 
Q 60.6875 21.78125 60.6875 36.53125 
Q 60.6875 51.171875 53.6875 57.984375 
Q 46.6875 64.796875 31.59375 64.796875 
z
M 9.8125 72.90625 
L 30.078125 72.90625 
Q 51.265625 72.90625 61.171875 64.09375 
Q 71.09375 55.28125 71.09375 36.53125 
Q 71.09375 17.671875 61.125 8.828125 
Q 51.171875 0 30.078125 0 
L 9.8125 0 
z
" id="DejaVuSans-68"/>
    </defs>
    <g transform="translate(60.41088 51.797126)scale(0.102 -0.102)">
     <use xlink:href="#DejaVuSans-98"/>
     <use x="63.476562" xlink:href="#DejaVuSans-98"/>
     <use x="126.953125" xlink:href="#DejaVuSans-111"/>
     <use x="188.134766" xlink:href="#DejaVuSans-98"/>
     <use x="251.611328" xlink:href="#DejaVuSans-32"/>
     <use x="283.398438" xlink:href="#DejaVuSans-102"/>
     <use x="318.603516" xlink:href="#DejaVuSans-49"/>
     <use x="382.226562" xlink:href="#DejaVuSans-55"/>
     <use x="445.849609" xlink:href="#DejaVuSans-44"/>
     <use x="477.636719" xlink:href="#DejaVuSans-32"/>
     <use x="509.423828" xlink:href="#DejaVuSans-49"/>
     <use x="573.046875" xlink:href="#DejaVuSans-48"/>
     <use x="636.669922" xlink:href="#DejaVuSans-45"/>
     <use x="672.753906" xlink:href="#DejaVuSans-68"/>
    </g>
    <!-- 51 targets: 100..1e-08 -->
    <defs>
     <path d="M 10.796875 72.90625 
L 49.515625 72.90625 
L 49.515625 64.59375 
L 19.828125 64.59375 
L 19.828125 46.734375 
Q 21.96875 47.46875 24.109375 47.828125 
Q 26.265625 48.1875 28.421875 48.1875 
Q 40.625 48.1875 47.75 41.5 
Q 54.890625 34.8125 54.890625 23.390625 
Q 54.890625 11.625 47.5625 5.09375 
Q 40.234375 -1.421875 26.90625 -1.421875 
Q 22.3125 -1.421875 17.546875 -0.640625 
Q 12.796875 0.140625 7.71875 1.703125 
L 7.71875 11.625 
Q 12.109375 9.234375 16.796875 8.0625 
Q 21.484375 6.890625 26.703125 6.890625 
Q 35.15625 6.890625 40.078125 11.328125 
Q 45.015625 15.765625 45.015625 23.390625 
Q 45.015625 31 40.078125 35.4375 
Q 35.15625 39.890625 26.703125 39.890625 
Q 22.75 39.890625 18.8125 39.015625 
Q 14.890625 38.140625 10.796875 36.28125 
z
" id="DejaVuSans-53"/>
     <path d="M 11.71875 12.40625 
L 22.015625 12.40625 
L 22.015625 0 
L 11.71875 0 
z
M 11.71875 51.703125 
L 22.015625 51.703125 
L 22.015625 39.3125 
L 11.71875 39.3125 
z
" id="DejaVuSans-58"/>
    </defs>
    <g transform="translate(60.41088 63.218895)scale(0.102 -0.102)">
     <use xlink:href="#DejaVuSans-53"/>
     <use x="63.623047" xlink:href="#DejaVuSans-49"/>
     <use x="127.246094" xlink:href="#DejaVuSans-32"/>
     <use x="159.033203" xlink:href="#DejaVuSans-116"/>
     <use x="198.242188" xlink:href="#DejaVuSans-97"/>
     <use x="259.521484" xlink:href="#DejaVuSans-114"/>
     <use x="300.619141" xlink:href="#DejaVuSans-103"/>
     <use x="364.095703" xlink:href="#DejaVuSans-101"/>
     <use x="425.619141" xlink:href="#DejaVuSans-116"/>
     <use x="464.828125" xlink:href="#DejaVuSans-115"/>
     <use x="516.927734" xlink:href="#DejaVuSans-58"/>
     <use x="550.619141" xlink:href="#DejaVuSans-32"/>
     <use x="582.40625" xlink:href="#DejaVuSans-49"/>
     <use x="646.029297" xlink:href="#DejaVuSans-48"/>
     <use x="709.652344" xlink:href="#DejaVuSans-48"/>
     <use x="773.275391" xlink:href="#DejaVuSans-46"/>
     <use x="805.0625" xlink:href="#DejaVuSans-46"/>
     <use x="836.849609" xlink:href="#DejaVuSans-49"/>
     <use x="900.472656" xlink:href="#DejaVuSans-101"/>
     <use x="961.996094" xlink:href="#DejaVuSans-45"/>
     <use x="998.080078" xlink:href="#DejaVuSans-48"/>
     <use x="1061.703125" xlink:href="#DejaVuSans-56"/>
    </g>
    <!-- 15 instances -->
    <g transform="translate(60.41088 74.640664)scale(0.102 -0.102)">
     <use xlink:href="#DejaVuSans-49"/>
     <use x="63.623047" xlink:href="#DejaVuSans-53"/>
     <use x="127.246094" xlink:href="#DejaVuSans-32"/>
     <use x="159.033203" xlink:href="#DejaVuSans-105"/>
     <use x="186.816406" xlink:href="#DejaVuSans-110"/>
     <use x="250.195312" xlink:href="#DejaVuSans-115"/>
     <use x="302.294922" xlink:href="#DejaVuSans-116"/>
     <use x="341.503906" xlink:href="#DejaVuSans-97"/>
     <use x="402.783203" xlink:href="#DejaVuSans-110"/>
     <use x="466.162109" xlink:href="#DejaVuSans-99"/>
     <use x="521.142578" xlink:href="#DejaVuSans-101"/>
     <use x="582.666016" xlink:href="#DejaVuSans-115"/>
    </g>
   </g>
   <g id="text_17">
    <!-- v2.3.1.30 -->
    <defs>
     <path d="M 40.578125 39.3125 
Q 47.65625 37.796875 51.625 33 
Q 55.609375 28.21875 55.609375 21.1875 
Q 55.609375 10.40625 48.1875 4.484375 
Q 40.765625 -1.421875 27.09375 -1.421875 
Q 22.515625 -1.421875 17.65625 -0.515625 
Q 12.796875 0.390625 7.625 2.203125 
L 7.625 11.71875 
Q 11.71875 9.328125 16.59375 8.109375 
Q 21.484375 6.890625 26.8125 6.890625 
Q 36.078125 6.890625 40.9375 10.546875 
Q 45.796875 14.203125 45.796875 21.1875 
Q 45.796875 27.640625 41.28125 31.265625 
Q 36.765625 34.90625 28.71875 34.90625 
L 20.21875 34.90625 
L 20.21875 43.015625 
L 29.109375 43.015625 
Q 36.375 43.015625 40.234375 45.921875 
Q 44.09375 48.828125 44.09375 54.296875 
Q 44.09375 59.90625 40.109375 62.90625 
Q 36.140625 65.921875 28.71875 65.921875 
Q 24.65625 65.921875 20.015625 65.03125 
Q 15.375 64.15625 9.8125 62.3125 
L 9.8125 71.09375 
Q 15.4375 72.65625 20.34375 73.4375 
Q 25.25 74.21875 29.59375 74.21875 
Q 40.828125 74.21875 47.359375 69.109375 
Q 53.90625 64.015625 53.90625 55.328125 
Q 53.90625 49.265625 50.4375 45.09375 
Q 46.96875 40.921875 40.578125 39.3125 
z
" id="DejaVuSans-51"/>
    </defs>
    <g style="fill:#808080;" transform="translate(174.511187 294.289592)scale(0.1 -0.1)">
     <use xlink:href="#DejaVuSans-118"/>
     <use x="59.179688" xlink:href="#DejaVuSans-50"/>
     <use x="122.802734" xlink:href="#DejaVuSans-46"/>
     <use x="154.589844" xlink:href="#DejaVuSans-51"/>
     <use x="218.212891" xlink:href="#DejaVuSans-46"/>
     <use x="250" xlink:href="#DejaVuSans-49"/>
     <use x="313.623047" xlink:href="#DejaVuSans-46"/>
     <use x="345.410156" xlink:href="#DejaVuSans-51"/>
     <use x="409.033203" xlink:href="#DejaVuSans-48"/>
    </g>
   </g>
   <g id="text_18">
    <!-- 17 Schaffer F7, condition 10 -->
    <defs>
     <path d="M 54.890625 33.015625 
L 54.890625 0 
L 45.90625 0 
L 45.90625 32.71875 
Q 45.90625 40.484375 42.875 44.328125 
Q 39.84375 48.1875 33.796875 48.1875 
Q 26.515625 48.1875 22.3125 43.546875 
Q 18.109375 38.921875 18.109375 30.90625 
L 18.109375 0 
L 9.078125 0 
L 9.078125 75.984375 
L 18.109375 75.984375 
L 18.109375 46.1875 
Q 21.34375 51.125 25.703125 53.5625 
Q 30.078125 56 35.796875 56 
Q 45.21875 56 50.046875 50.171875 
Q 54.890625 44.34375 54.890625 33.015625 
z
" id="DejaVuSans-104"/>
    </defs>
    <g transform="translate(56.836187 35.472)scale(0.2 -0.2)">
     <use xlink:href="#DejaVuSans-49"/>
     <use x="63.623047" xlink:href="#DejaVuSans-55"/>
     <use x="127.246094" xlink:href="#DejaVuSans-32"/>
     <use x="159.033203" xlink:href="#DejaVuSans-83"/>
     <use x="222.509766" xlink:href="#DejaVuSans-99"/>
     <use x="277.490234" xlink:href="#DejaVuSans-104"/>
     <use x="340.869141" xlink:href="#DejaVuSans-97"/>
     <use x="402.148438" xlink:href="#DejaVuSans-102"/>
     <use x="437.353516" xlink:href="#DejaVuSans-102"/>
     <use x="472.558594" xlink:href="#DejaVuSans-101"/>
     <use x="534.082031" xlink:href="#DejaVuSans-114"/>
     <use x="575.195312" xlink:href="#DejaVuSans-32"/>
     <use x="606.982422" xlink:href="#DejaVuSans-70"/>
     <use x="664.501953" xlink:href="#DejaVuSans-55"/>
     <use x="728.125" xlink:href="#DejaVuSans-44"/>
     <use x="759.912109" xlink:href="#DejaVuSans-32"/>
     <use x="791.699219" xlink:href="#DejaVuSans-99"/>
     <use x="846.679688" xlink:href="#DejaVuSans-111"/>
     <use x="907.861328" xlink:href="#DejaVuSans-110"/>
     <use x="971.240234" xlink:href="#DejaVuSans-100"/>
     <use x="1034.716797" xlink:href="#DejaVuSans-105"/>
     <use x="1062.5" xlink:href="#DejaVuSans-116"/>
     <use x="1101.708984" xlink:href="#DejaVuSans-105"/>
     <use x="1129.492188" xlink:href="#DejaVuSans-111"/>
     <use x="1190.673828" xlink:href="#DejaVuSans-110"/>
     <use x="1254.052734" xlink:href="#DejaVuSans-32"/>
     <use x="1285.839844" xlink:href="#DejaVuSans-49"/>
     <use x="1349.462891" xlink:href="#DejaVuSans-48"/>
    </g>
   </g>
  </g>
 </g>
 <defs>
  <clipPath id="p3fe3a786a3">
   <rect height="257.472" width="281.088" x="57.6" y="41.472"/>
  </clipPath>
 </defs>
</svg>
