<?xml version="1.0" encoding="utf-8" standalone="no"?>
<!DOCTYPE svg PUBLIC "-//W3C//DTD SVG 1.1//EN"
  "http://www.w3.org/Graphics/SVG/1.1/DTD/svg11.dtd">
<!-- Created with matplotlib (https://matplotlib.org/) -->
<svg height="345.6pt" version="1.1" viewBox="0 0 460.8 345.6" width="460.8pt" xmlns="http://www.w3.org/2000/svg" xmlns:xlink="http://www.w3.org/1999/xlink">
 <defs>
  <style type="text/css">
*{stroke-linecap:butt;stroke-linejoin:round;}
  </style>
 </defs>
 <g id="figure_1">
  <g id="patch_1">
   <path d="M 0 345.6 
L 460.8 345.6 
L 460.8 0 
L 0 0 
z
" style="fill:#ffffff;"/>
  </g>
  <g id="axes_1">
   <g id="patch_2">
    <path d="M 57.6 298.944 
L 338.688 298.944 
L 338.688 41.472 
L 57.6 41.472 
z
" style="fill:#ffffff;"/>
   </g>
   <g id="line2d_1">
    <path d="M 5.356583 298.944 
L 5.356583 288.947029 
L 24.515591 288.947029 
L 24.515591 283.948543 
L 52.583031 283.948543 
L 52.583031 278.950057 
L 70.538854 278.950057 
L 70.538854 273.951571 
L 80.650472 273.951571 
L 80.650472 268.953086 
L 88.104788 268.953086 
L 88.104788 263.9546 
L 94.294587 263.9546 
L 94.294587 258.956114 
L 97.134116 258.956114 
L 97.134116 253.957628 
L 99.338119 253.957628 
L 99.338119 248.959143 
L 100.86217 248.959143 
L 100.86217 243.960657 
L 101.923711 243.960657 
L 101.923711 238.962171 
L 102.794183 238.962171 
L 102.794183 233.963685 
L 103.498249 233.963685 
L 103.498249 228.9652 
L 104.355088 228.9652 
L 104.355088 223.966714 
L 105.057436 223.966714 
L 105.057436 218.968228 
L 106.168594 218.968228 
L 106.168594 213.969743 
L 107.614095 213.969743 
L 107.614095 208.971257 
L 109.176867 208.971257 
L 109.176867 203.972771 
L 110.443353 203.972771 
L 110.443353 198.974285 
L 111.936179 198.974285 
L 111.936179 193.9758 
L 113.699967 193.9758 
L 113.699967 188.977314 
L 116.621333 188.977314 
L 116.621333 183.978828 
L 119.377041 183.978828 
L 119.377041 178.980342 
L 121.974949 178.980342 
L 121.974949 173.981857 
L 124.594752 173.981857 
L 124.594752 168.983371 
L 127.579875 168.983371 
L 127.579875 163.984885 
L 128.531065 163.984885 
L 128.531065 158.9864 
L 129.262072 158.9864 
L 129.262072 153.987914 
L 130.032298 153.987914 
L 130.032298 148.989428 
L 130.809292 148.989428 
L 130.809292 143.990942 
L 131.52801 143.990942 
L 131.52801 138.992457 
L 132.362702 138.992457 
L 132.362702 133.993971 
L 133.22783 133.993971 
L 133.22783 128.995485 
L 133.83311 128.995485 
L 133.83311 123.996999 
L 134.534878 123.996999 
L 134.534878 118.998514 
L 135.432042 118.998514 
L 135.432042 114.000028 
L 150.064121 114.000028 
L 150.064121 109.001542 
L 169.224577 109.001542 
L 169.224577 104.003056 
L 170.402844 104.003056 
L 170.402844 99.004571 
L 171.031415 99.004571 
L 171.031415 94.006085 
L 171.659533 94.006085 
L 171.659533 89.007599 
L 172.175591 89.007599 
L 172.175591 84.009114 
L 172.719523 84.009114 
L 172.719523 79.010628 
L 173.289481 79.010628 
L 173.289481 74.012142 
L 173.801357 74.012142 
L 173.801357 69.013656 
L 174.263971 69.013656 
L 174.263971 64.015171 
L 174.819983 64.015171 
L 174.819983 59.016685 
L 175.211544 59.016685 
L 175.211544 54.018199 
L 175.660692 54.018199 
L 175.660692 49.019713 
L 176.102467 49.019713 
L 176.102467 44.021228 
L 338.688 44.021228 
" style="fill:none;stroke:#f5deb3;stroke-linecap:square;stroke-width:4;"/>
   </g>
   <g id="line2d_2">
    <defs>
     <path d="M -0 7.778175 
L 7.778175 0 
L 0 -7.778175 
L -7.778175 -0 
z
" id="mf5924be021" style="stroke:#f5deb3;stroke-linejoin:miter;stroke-width:1.5;"/>
    </defs>
    <g>
     <use style="fill:#f5deb3;stroke:#f5deb3;stroke-linejoin:miter;stroke-width:1.5;" x="94.294587" xlink:href="#mf5924be021" y="258.956114"/>
     <use style="fill:#f5deb3;stroke:#f5deb3;stroke-linejoin:miter;stroke-width:1.5;" x="130.032298" xlink:href="#mf5924be021" y="153.987914"/>
     <use style="fill:#f5deb3;stroke:#f5deb3;stroke-linejoin:miter;stroke-width:1.5;" x="172.719523" xlink:href="#mf5924be021" y="79.010628"/>
     <use style="fill:#f5deb3;stroke:#f5deb3;stroke-linejoin:miter;stroke-width:1.5;" x="176.102467" xlink:href="#mf5924be021" y="44.021228"/>
     <use style="fill:#f5deb3;stroke:#f5deb3;stroke-linejoin:miter;stroke-width:1.5;" x="176.102467" xlink:href="#mf5924be021" y="44.021228"/>
     <use style="fill:#f5deb3;stroke:#f5deb3;stroke-linejoin:miter;stroke-width:1.5;" x="338.688" xlink:href="#mf5924be021" y="44.021228"/>
    </g>
   </g>
   <g id="line2d_3">
    <path style="fill:none;stroke:#f5deb3;stroke-linecap:square;stroke-width:4;"/>
    <g/>
   </g>
   <g id="line2d_4">
    <path d="M 338.688 44.021228 
L 369.60768 293.845545 
" style="fill:none;stroke:#f5deb3;stroke-linecap:square;stroke-width:4;"/>
    <g>
     <use style="fill:#f5deb3;stroke:#f5deb3;stroke-linejoin:miter;stroke-width:1.5;" x="338.688" xlink:href="#mf5924be021" y="44.021228"/>
     <use style="fill:#f5deb3;stroke:#f5deb3;stroke-linejoin:miter;stroke-width:1.5;" x="369.60768" xlink:href="#mf5924be021" y="293.845545"/>
    </g>
   </g>
   <g id="matplotlib.axis_1">
    <g id="xtick_1">
     <g id="line2d_5">
      <path clip-path="url(#pa369e79dba)" d="M 57.6 298.944 
L 57.6 41.472 
" style="fill:none;stroke:#b0b0b0;stroke-linecap:square;stroke-width:0.8;"/>
     </g>
     <g id="line2d_6">
      <defs>
       <path d="M 0 0 
L 0 3.5 
" id="m135db895d8" style="stroke:#000000;stroke-width:0.8;"/>
      </defs>
      <g>
       <use style="stroke:#000000;stroke-width:0.8;" x="57.6" xlink:href="#m135db895d8" y="298.944"/>
      </g>
     </g>
     <g id="text_1">
      <!-- 0 -->
      <defs>
       <path d="M 31.78125 66.40625 
Q 24.171875 66.40625 20.328125 58.90625 
Q 16.5 51.421875 16.5 36.375 
Q 16.5 21.390625 20.328125 13.890625 
Q 24.171875 6.390625 31.78125 6.390625 
Q 39.453125 6.390625 43.28125 13.890625 
Q 47.125 21.390625 47.125 36.375 
Q 47.125 51.421875 43.28125 58.90625 
Q 39.453125 66.40625 31.78125 66.40625 
z
M 31.78125 74.21875 
Q 44.046875 74.21875 50.515625 64.515625 
Q 56.984375 54.828125 56.984375 36.375 
Q 56.984375 17.96875 50.515625 8.265625 
Q 44.046875 -1.421875 31.78125 -1.421875 
Q 19.53125 -1.421875 13.0625 8.265625 
Q 6.59375 17.96875 6.59375 36.375 
Q 6.59375 54.828125 13.0625 64.515625 
Q 19.53125 74.21875 31.78125 74.21875 
z
" id="DejaVuSans-48"/>
      </defs>
      <g transform="translate(51.2375 321.140875)scale(0.2 -0.2)">
       <use xlink:href="#DejaVuSans-48"/>
      </g>
     </g>
    </g>
    <g id="xtick_2">
     <g id="line2d_7">
      <path clip-path="url(#pa369e79dba)" d="M 137.910857 298.944 
L 137.910857 41.472 
" style="fill:none;stroke:#b0b0b0;stroke-linecap:square;stroke-width:0.8;"/>
     </g>
     <g id="line2d_8">
      <g>
       <use style="stroke:#000000;stroke-width:0.8;" x="137.910857" xlink:href="#m135db895d8" y="298.944"/>
      </g>
     </g>
     <g id="text_2">
      <!-- 2 -->
      <defs>
       <path d="M 19.1875 8.296875 
L 53.609375 8.296875 
L 53.609375 0 
L 7.328125 0 
L 7.328125 8.296875 
Q 12.9375 14.109375 22.625 23.890625 
Q 32.328125 33.6875 34.8125 36.53125 
Q 39.546875 41.84375 41.421875 45.53125 
Q 43.3125 49.21875 43.3125 52.78125 
Q 43.3125 58.59375 39.234375 62.25 
Q 35.15625 65.921875 28.609375 65.921875 
Q 23.96875 65.921875 18.8125 64.3125 
Q 13.671875 62.703125 7.8125 59.421875 
L 7.8125 69.390625 
Q 13.765625 71.78125 18.9375 73 
Q 24.125 74.21875 28.421875 74.21875 
Q 39.75 74.21875 46.484375 68.546875 
Q 53.21875 62.890625 53.21875 53.421875 
Q 53.21875 48.921875 51.53125 44.890625 
Q 49.859375 40.875 45.40625 35.40625 
Q 44.1875 33.984375 37.640625 27.21875 
Q 31.109375 20.453125 19.1875 8.296875 
z
" id="DejaVuSans-50"/>
      </defs>
      <g transform="translate(131.548357 321.140875)scale(0.2 -0.2)">
       <use xlink:href="#DejaVuSans-50"/>
      </g>
     </g>
    </g>
    <g id="xtick_3">
     <g id="line2d_9">
      <path clip-path="url(#pa369e79dba)" d="M 218.221714 298.944 
L 218.221714 41.472 
" style="fill:none;stroke:#b0b0b0;stroke-linecap:square;stroke-width:0.8;"/>
     </g>
     <g id="line2d_10">
      <g>
       <use style="stroke:#000000;stroke-width:0.8;" x="218.221714" xlink:href="#m135db895d8" y="298.944"/>
      </g>
     </g>
     <g id="text_3">
      <!-- 4 -->
      <defs>
       <path d="M 37.796875 64.3125 
L 12.890625 25.390625 
L 37.796875 25.390625 
z
M 35.203125 72.90625 
L 47.609375 72.90625 
L 47.609375 25.390625 
L 58.015625 25.390625 
L 58.015625 17.1875 
L 47.609375 17.1875 
L 47.609375 0 
L 37.796875 0 
L 37.796875 17.1875 
L 4.890625 17.1875 
L 4.890625 26.703125 
z
" id="DejaVuSans-52"/>
      </defs>
      <g transform="translate(211.859214 321.140875)scale(0.2 -0.2)">
       <use xlink:href="#DejaVuSans-52"/>
      </g>
     </g>
    </g>
    <g id="xtick_4">
     <g id="line2d_11">
      <path clip-path="url(#pa369e79dba)" d="M 298.532571 298.944 
L 298.532571 41.472 
" style="fill:none;stroke:#b0b0b0;stroke-linecap:square;stroke-width:0.8;"/>
     </g>
     <g id="line2d_12">
      <g>
       <use style="stroke:#000000;stroke-width:0.8;" x="298.532571" xlink:href="#m135db895d8" y="298.944"/>
      </g>
     </g>
     <g id="text_4">
      <!-- 6 -->
      <defs>
       <path d="M 33.015625 40.375 
Q 26.375 40.375 22.484375 35.828125 
Q 18.609375 31.296875 18.609375 23.390625 
Q 18.609375 15.53125 22.484375 10.953125 
Q 26.375 6.390625 33.015625 6.390625 
Q 39.65625 6.390625 43.53125 10.953125 
Q 47.40625 15.53125 47.40625 23.390625 
Q 47.40625 31.296875 43.53125 35.828125 
Q 39.65625 40.375 33.015625 40.375 
z
M 52.59375 71.296875 
L 52.59375 62.3125 
Q 48.875 64.0625 45.09375 64.984375 
Q 41.3125 65.921875 37.59375 65.921875 
Q 27.828125 65.921875 22.671875 59.328125 
Q 17.53125 52.734375 16.796875 39.40625 
Q 19.671875 43.65625 24.015625 45.921875 
Q 28.375 48.1875 33.59375 48.1875 
Q 44.578125 48.1875 50.953125 41.515625 
Q 57.328125 34.859375 57.328125 23.390625 
Q 57.328125 12.15625 50.6875 5.359375 
Q 44.046875 -1.421875 33.015625 -1.421875 
Q 20.359375 -1.421875 13.671875 8.265625 
Q 6.984375 17.96875 6.984375 36.375 
Q 6.984375 53.65625 15.1875 63.9375 
Q 23.390625 74.21875 37.203125 74.21875 
Q 40.921875 74.21875 44.703125 73.484375 
Q 48.484375 72.75 52.59375 71.296875 
z
" id="DejaVuSans-54"/>
      </defs>
      <g transform="translate(292.170071 321.140875)scale(0.2 -0.2)">
       <use xlink:href="#DejaVuSans-54"/>
      </g>
     </g>
    </g>
    <g id="xtick_5">
     <g id="line2d_13">
      <path clip-path="url(#pa369e79dba)" d="M 57.6 298.944 
L 57.6 41.472 
" style="fill:none;stroke:#b0b0b0;stroke-linecap:square;stroke-width:0.8;"/>
     </g>
     <g id="line2d_14">
      <defs>
       <path d="M 0 0 
L 0 2 
" id="m6438250da8" style="stroke:#000000;stroke-width:0.6;"/>
      </defs>
      <g>
       <use style="stroke:#000000;stroke-width:0.6;" x="57.6" xlink:href="#m6438250da8" y="298.944"/>
      </g>
     </g>
    </g>
    <g id="xtick_6">
     <g id="line2d_15">
      <path clip-path="url(#pa369e79dba)" d="M 97.755429 298.944 
L 97.755429 41.472 
" style="fill:none;stroke:#b0b0b0;stroke-linecap:square;stroke-width:0.8;"/>
     </g>
     <g id="line2d_16">
      <g>
       <use style="stroke:#000000;stroke-width:0.6;" x="97.755429" xlink:href="#m6438250da8" y="298.944"/>
      </g>
     </g>
    </g>
    <g id="xtick_7">
     <g id="line2d_17">
      <path clip-path="url(#pa369e79dba)" d="M 137.910857 298.944 
L 137.910857 41.472 
" style="fill:none;stroke:#b0b0b0;stroke-linecap:square;stroke-width:0.8;"/>
     </g>
     <g id="line2d_18">
      <g>
       <use style="stroke:#000000;stroke-width:0.6;" x="137.910857" xlink:href="#m6438250da8" y="298.944"/>
      </g>
     </g>
    </g>
    <g id="xtick_8">
     <g id="line2d_19">
      <path clip-path="url(#pa369e79dba)" d="M 178.066286 298.944 
L 178.066286 41.472 
" style="fill:none;stroke:#b0b0b0;stroke-linecap:square;stroke-width:0.8;"/>
     </g>
     <g id="line2d_20">
      <g>
       <use style="stroke:#000000;stroke-width:0.6;" x="178.066286" xlink:href="#m6438250da8" y="298.944"/>
      </g>
     </g>
    </g>
    <g id="xtick_9">
     <g id="line2d_21">
      <path clip-path="url(#pa369e79dba)" d="M 218.221714 298.944 
L 218.221714 41.472 
" style="fill:none;stroke:#b0b0b0;stroke-linecap:square;stroke-width:0.8;"/>
     </g>
     <g id="line2d_22">
      <g>
       <use style="stroke:#000000;stroke-width:0.6;" x="218.221714" xlink:href="#m6438250da8" y="298.944"/>
      </g>
     </g>
    </g>
    <g id="xtick_10">
     <g id="line2d_23">
      <path clip-path="url(#pa369e79dba)" d="M 258.377143 298.944 
L 258.377143 41.472 
" style="fill:none;stroke:#b0b0b0;stroke-linecap:square;stroke-width:0.8;"/>
     </g>
     <g id="line2d_24">
      <g>
       <use style="stroke:#000000;stroke-width:0.6;" x="258.377143" xlink:href="#m6438250da8" y="298.944"/>
      </g>
     </g>
    </g>
    <g id="xtick_11">
     <g id="line2d_25">
      <path clip-path="url(#pa369e79dba)" d="M 298.532571 298.944 
L 298.532571 41.472 
" style="fill:none;stroke:#b0b0b0;stroke-linecap:square;stroke-width:0.8;"/>
     </g>
     <g id="line2d_26">
      <g>
       <use style="stroke:#000000;stroke-width:0.6;" x="298.532571" xlink:href="#m6438250da8" y="298.944"/>
      </g>
     </g>
    </g>
    <g id="xtick_12">
     <g id="line2d_27">
      <path clip-path="url(#pa369e79dba)" d="M 338.688 298.944 
L 338.688 41.472 
" style="fill:none;stroke:#b0b0b0;stroke-linecap:square;stroke-width:0.8;"/>
     </g>
     <g id="line2d_28">
      <g>
       <use style="stroke:#000000;stroke-width:0.6;" x="338.688" xlink:href="#m6438250da8" y="298.944"/>
      </g>
     </g>
    </g>
    <g id="text_5">
     <!-- log10(# f-evals / dimension) -->
     <defs>
      <path d="M 9.421875 75.984375 
L 18.40625 75.984375 
L 18.40625 0 
L 9.421875 0 
z
" id="DejaVuSans-108"/>
      <path d="M 30.609375 48.390625 
Q 23.390625 48.390625 19.1875 42.75 
Q 14.984375 37.109375 14.984375 27.296875 
Q 14.984375 17.484375 19.15625 11.84375 
Q 23.34375 6.203125 30.609375 6.203125 
Q 37.796875 6.203125 41.984375 11.859375 
Q 46.1875 17.53125 46.1875 27.296875 
Q 46.1875 37.015625 41.984375 42.703125 
Q 37.796875 48.390625 30.609375 48.390625 
z
M 30.609375 56 
Q 42.328125 56 49.015625 48.375 
Q 55.71875 40.765625 55.71875 27.296875 
Q 55.71875 13.875 49.015625 6.21875 
Q 42.328125 -1.421875 30.609375 -1.421875 
Q 18.84375 -1.421875 12.171875 6.21875 
Q 5.515625 13.875 5.515625 27.296875 
Q 5.515625 40.765625 12.171875 48.375 
Q 18.84375 56 30.609375 56 
z
" id="DejaVuSans-111"/>
      <path d="M 45.40625 27.984375 
Q 45.40625 37.75 41.375 43.109375 
Q 37.359375 48.484375 30.078125 48.484375 
Q 22.859375 48.484375 18.828125 43.109375 
Q 14.796875 37.75 14.796875 27.984375 
Q 14.796875 18.265625 18.828125 12.890625 
Q 22.859375 7.515625 30.078125 7.515625 
Q 37.359375 7.515625 41.375 12.890625 
Q 45.40625 18.265625 45.40625 27.984375 
z
M 54.390625 6.78125 
Q 54.390625 -7.171875 48.1875 -13.984375 
Q 42 -20.796875 29.203125 -20.796875 
Q 24.46875 -20.796875 20.265625 -20.09375 
Q 16.0625 -19.390625 12.109375 -17.921875 
L 12.109375 -9.1875 
Q 16.0625 -11.328125 19.921875 -12.34375 
Q 23.78125 -13.375 27.78125 -13.375 
Q 36.625 -13.375 41.015625 -8.765625 
Q 45.40625 -4.15625 45.40625 5.171875 
L 45.40625 9.625 
Q 42.625 4.78125 38.28125 2.390625 
Q 33.9375 0 27.875 0 
Q 17.828125 0 11.671875 7.65625 
Q 5.515625 15.328125 5.515625 27.984375 
Q 5.515625 40.671875 11.671875 48.328125 
Q 17.828125 56 27.875 56 
Q 33.9375 56 38.28125 53.609375 
Q 42.625 51.21875 45.40625 46.390625 
L 45.40625 54.6875 
L 54.390625 54.6875 
z
" id="DejaVuSans-103"/>
      <path d="M 12.40625 8.296875 
L 28.515625 8.296875 
L 28.515625 63.921875 
L 10.984375 60.40625 
L 10.984375 69.390625 
L 28.421875 72.90625 
L 38.28125 72.90625 
L 38.28125 8.296875 
L 54.390625 8.296875 
L 54.390625 0 
L 12.40625 0 
z
" id="DejaVuSans-49"/>
      <path d="M 31 75.875 
Q 24.46875 64.65625 21.28125 53.65625 
Q 18.109375 42.671875 18.109375 31.390625 
Q 18.109375 20.125 21.3125 9.0625 
Q 24.515625 -2 31 -13.1875 
L 23.1875 -13.1875 
Q 15.875 -1.703125 12.234375 9.375 
Q 8.59375 20.453125 8.59375 31.390625 
Q 8.59375 42.28125 12.203125 53.3125 
Q 15.828125 64.359375 23.1875 75.875 
z
" id="DejaVuSans-40"/>
      <path d="M 51.125 44 
L 36.921875 44 
L 32.8125 27.6875 
L 47.125 27.6875 
z
M 43.796875 71.78125 
L 38.71875 51.515625 
L 52.984375 51.515625 
L 58.109375 71.78125 
L 65.921875 71.78125 
L 60.890625 51.515625 
L 76.125 51.515625 
L 76.125 44 
L 58.984375 44 
L 54.984375 27.6875 
L 70.515625 27.6875 
L 70.515625 20.21875 
L 53.078125 20.21875 
L 48 0 
L 40.1875 0 
L 45.21875 20.21875 
L 30.90625 20.21875 
L 25.875 0 
L 18.015625 0 
L 23.09375 20.21875 
L 7.71875 20.21875 
L 7.71875 27.6875 
L 24.90625 27.6875 
L 29 44 
L 13.28125 44 
L 13.28125 51.515625 
L 30.90625 51.515625 
L 35.890625 71.78125 
z
" id="DejaVuSans-35"/>
      <path id="DejaVuSans-32"/>
      <path d="M 37.109375 75.984375 
L 37.109375 68.5 
L 28.515625 68.5 
Q 23.6875 68.5 21.796875 66.546875 
Q 19.921875 64.59375 19.921875 59.515625 
L 19.921875 54.6875 
L 34.71875 54.6875 
L 34.71875 47.703125 
L 19.921875 47.703125 
L 19.921875 0 
L 10.890625 0 
L 10.890625 47.703125 
L 2.296875 47.703125 
L 2.296875 54.6875 
L 10.890625 54.6875 
L 10.890625 58.5 
Q 10.890625 67.625 15.140625 71.796875 
Q 19.390625 75.984375 28.609375 75.984375 
z
" id="DejaVuSans-102"/>
      <path d="M 4.890625 31.390625 
L 31.203125 31.390625 
L 31.203125 23.390625 
L 4.890625 23.390625 
z
" id="DejaVuSans-45"/>
      <path d="M 56.203125 29.59375 
L 56.203125 25.203125 
L 14.890625 25.203125 
Q 15.484375 15.921875 20.484375 11.0625 
Q 25.484375 6.203125 34.421875 6.203125 
Q 39.59375 6.203125 44.453125 7.46875 
Q 49.3125 8.734375 54.109375 11.28125 
L 54.109375 2.78125 
Q 49.265625 0.734375 44.1875 -0.34375 
Q 39.109375 -1.421875 33.890625 -1.421875 
Q 20.796875 -1.421875 13.15625 6.1875 
Q 5.515625 13.8125 5.515625 26.8125 
Q 5.515625 40.234375 12.765625 48.109375 
Q 20.015625 56 32.328125 56 
Q 43.359375 56 49.78125 48.890625 
Q 56.203125 41.796875 56.203125 29.59375 
z
M 47.21875 32.234375 
Q 47.125 39.59375 43.09375 43.984375 
Q 39.0625 48.390625 32.421875 48.390625 
Q 24.90625 48.390625 20.390625 44.140625 
Q 15.875 39.890625 15.1875 32.171875 
z
" id="DejaVuSans-101"/>
      <path d="M 2.984375 54.6875 
L 12.5 54.6875 
L 29.59375 8.796875 
L 46.6875 54.6875 
L 56.203125 54.6875 
L 35.6875 0 
L 23.484375 0 
z
" id="DejaVuSans-118"/>
      <path d="M 34.28125 27.484375 
Q 23.390625 27.484375 19.1875 25 
Q 14.984375 22.515625 14.984375 16.5 
Q 14.984375 11.71875 18.140625 8.90625 
Q 21.296875 6.109375 26.703125 6.109375 
Q 34.1875 6.109375 38.703125 11.40625 
Q 43.21875 16.703125 43.21875 25.484375 
L 43.21875 27.484375 
z
M 52.203125 31.203125 
L 52.203125 0 
L 43.21875 0 
L 43.21875 8.296875 
Q 40.140625 3.328125 35.546875 0.953125 
Q 30.953125 -1.421875 24.3125 -1.421875 
Q 15.921875 -1.421875 10.953125 3.296875 
Q 6 8.015625 6 15.921875 
Q 6 25.140625 12.171875 29.828125 
Q 18.359375 34.515625 30.609375 34.515625 
L 43.21875 34.515625 
L 43.21875 35.40625 
Q 43.21875 41.609375 39.140625 45 
Q 35.0625 48.390625 27.6875 48.390625 
Q 23 48.390625 18.546875 47.265625 
Q 14.109375 46.140625 10.015625 43.890625 
L 10.015625 52.203125 
Q 14.9375 54.109375 19.578125 55.046875 
Q 24.21875 56 28.609375 56 
Q 40.484375 56 46.34375 49.84375 
Q 52.203125 43.703125 52.203125 31.203125 
z
" id="DejaVuSans-97"/>
      <path d="M 44.28125 53.078125 
L 44.28125 44.578125 
Q 40.484375 46.53125 36.375 47.5 
Q 32.28125 48.484375 27.875 48.484375 
Q 21.1875 48.484375 17.84375 46.4375 
Q 14.5 44.390625 14.5 40.28125 
Q 14.5 37.15625 16.890625 35.375 
Q 19.28125 33.59375 26.515625 31.984375 
L 29.59375 31.296875 
Q 39.15625 29.25 43.1875 25.515625 
Q 47.21875 21.78125 47.21875 15.09375 
Q 47.21875 7.46875 41.1875 3.015625 
Q 35.15625 -1.421875 24.609375 -1.421875 
Q 20.21875 -1.421875 15.453125 -0.5625 
Q 10.6875 0.296875 5.421875 2 
L 5.421875 11.28125 
Q 10.40625 8.6875 15.234375 7.390625 
Q 20.0625 6.109375 24.8125 6.109375 
Q 31.15625 6.109375 34.5625 8.28125 
Q 37.984375 10.453125 37.984375 14.40625 
Q 37.984375 18.0625 35.515625 20.015625 
Q 33.0625 21.96875 24.703125 23.78125 
L 21.578125 24.515625 
Q 13.234375 26.265625 9.515625 29.90625 
Q 5.8125 33.546875 5.8125 39.890625 
Q 5.8125 47.609375 11.28125 51.796875 
Q 16.75 56 26.8125 56 
Q 31.78125 56 36.171875 55.265625 
Q 40.578125 54.546875 44.28125 53.078125 
z
" id="DejaVuSans-115"/>
      <path d="M 25.390625 72.90625 
L 33.6875 72.90625 
L 8.296875 -9.28125 
L 0 -9.28125 
z
" id="DejaVuSans-47"/>
      <path d="M 45.40625 46.390625 
L 45.40625 75.984375 
L 54.390625 75.984375 
L 54.390625 0 
L 45.40625 0 
L 45.40625 8.203125 
Q 42.578125 3.328125 38.25 0.953125 
Q 33.9375 -1.421875 27.875 -1.421875 
Q 17.96875 -1.421875 11.734375 6.484375 
Q 5.515625 14.40625 5.515625 27.296875 
Q 5.515625 40.1875 11.734375 48.09375 
Q 17.96875 56 27.875 56 
Q 33.9375 56 38.25 53.625 
Q 42.578125 51.265625 45.40625 46.390625 
z
M 14.796875 27.296875 
Q 14.796875 17.390625 18.875 11.75 
Q 22.953125 6.109375 30.078125 6.109375 
Q 37.203125 6.109375 41.296875 11.75 
Q 45.40625 17.390625 45.40625 27.296875 
Q 45.40625 37.203125 41.296875 42.84375 
Q 37.203125 48.484375 30.078125 48.484375 
Q 22.953125 48.484375 18.875 42.84375 
Q 14.796875 37.203125 14.796875 27.296875 
z
" id="DejaVuSans-100"/>
      <path d="M 9.421875 54.6875 
L 18.40625 54.6875 
L 18.40625 0 
L 9.421875 0 
z
M 9.421875 75.984375 
L 18.40625 75.984375 
L 18.40625 64.59375 
L 9.421875 64.59375 
z
" id="DejaVuSans-105"/>
      <path d="M 52 44.1875 
Q 55.375 50.25 60.0625 53.125 
Q 64.75 56 71.09375 56 
Q 79.640625 56 84.28125 50.015625 
Q 88.921875 44.046875 88.921875 33.015625 
L 88.921875 0 
L 79.890625 0 
L 79.890625 32.71875 
Q 79.890625 40.578125 77.09375 44.375 
Q 74.3125 48.1875 68.609375 48.1875 
Q 61.625 48.1875 57.5625 43.546875 
Q 53.515625 38.921875 53.515625 30.90625 
L 53.515625 0 
L 44.484375 0 
L 44.484375 32.71875 
Q 44.484375 40.625 41.703125 44.40625 
Q 38.921875 48.1875 33.109375 48.1875 
Q 26.21875 48.1875 22.15625 43.53125 
Q 18.109375 38.875 18.109375 30.90625 
L 18.109375 0 
L 9.078125 0 
L 9.078125 54.6875 
L 18.109375 54.6875 
L 18.109375 46.1875 
Q 21.1875 51.21875 25.484375 53.609375 
Q 29.78125 56 35.6875 56 
Q 41.65625 56 45.828125 52.96875 
Q 50 49.953125 52 44.1875 
z
" id="DejaVuSans-109"/>
      <path d="M 54.890625 33.015625 
L 54.890625 0 
L 45.90625 0 
L 45.90625 32.71875 
Q 45.90625 40.484375 42.875 44.328125 
Q 39.84375 48.1875 33.796875 48.1875 
Q 26.515625 48.1875 22.3125 43.546875 
Q 18.109375 38.921875 18.109375 30.90625 
L 18.109375 0 
L 9.078125 0 
L 9.078125 54.6875 
L 18.109375 54.6875 
L 18.109375 46.1875 
Q 21.34375 51.125 25.703125 53.5625 
Q 30.078125 56 35.796875 56 
Q 45.21875 56 50.046875 50.171875 
Q 54.890625 44.34375 54.890625 33.015625 
z
" id="DejaVuSans-110"/>
      <path d="M 8.015625 75.875 
L 15.828125 75.875 
Q 23.140625 64.359375 26.78125 53.3125 
Q 30.421875 42.28125 30.421875 31.390625 
Q 30.421875 20.453125 26.78125 9.375 
Q 23.140625 -1.703125 15.828125 -13.1875 
L 8.015625 -13.1875 
Q 14.5 -2 17.703125 9.0625 
Q 20.90625 20.125 20.90625 31.390625 
Q 20.90625 42.671875 17.703125 53.65625 
Q 14.5 64.65625 8.015625 75.875 
z
" id="DejaVuSans-41"/>
     </defs>
     <g transform="translate(77.303219 342.217594)scale(0.17 -0.17)">
      <use xlink:href="#DejaVuSans-108"/>
      <use x="27.783203" xlink:href="#DejaVuSans-111"/>
      <use x="88.964844" xlink:href="#DejaVuSans-103"/>
      <use x="152.441406" xlink:href="#DejaVuSans-49"/>
      <use x="216.064453" xlink:href="#DejaVuSans-48"/>
      <use x="279.6875" xlink:href="#DejaVuSans-40"/>
      <use x="318.701172" xlink:href="#DejaVuSans-35"/>
      <use x="402.490234" xlink:href="#DejaVuSans-32"/>
      <use x="434.277344" xlink:href="#DejaVuSans-102"/>
      <use x="469.404297" xlink:href="#DejaVuSans-45"/>
      <use x="505.488281" xlink:href="#DejaVuSans-101"/>
      <use x="567.011719" xlink:href="#DejaVuSans-118"/>
      <use x="626.191406" xlink:href="#DejaVuSans-97"/>
      <use x="687.470703" xlink:href="#DejaVuSans-108"/>
      <use x="715.253906" xlink:href="#DejaVuSans-115"/>
      <use x="767.353516" xlink:href="#DejaVuSans-32"/>
      <use x="799.140625" xlink:href="#DejaVuSans-47"/>
      <use x="832.832031" xlink:href="#DejaVuSans-32"/>
      <use x="864.619141" xlink:href="#DejaVuSans-100"/>
      <use x="928.095703" xlink:href="#DejaVuSans-105"/>
      <use x="955.878906" xlink:href="#DejaVuSans-109"/>
      <use x="1053.291016" xlink:href="#DejaVuSans-101"/>
      <use x="1114.814453" xlink:href="#DejaVuSans-110"/>
      <use x="1178.193359" xlink:href="#DejaVuSans-115"/>
      <use x="1230.292969" xlink:href="#DejaVuSans-105"/>
      <use x="1258.076172" xlink:href="#DejaVuSans-111"/>
      <use x="1319.257812" xlink:href="#DejaVuSans-110"/>
      <use x="1382.636719" xlink:href="#DejaVuSans-41"/>
     </g>
    </g>
   </g>
   <g id="matplotlib.axis_2">
    <g id="ytick_1">
     <g id="line2d_29">
      <path clip-path="url(#pa369e79dba)" d="M 57.6 298.944 
L 338.688 298.944 
" style="fill:none;stroke:#b0b0b0;stroke-linecap:square;stroke-width:0.8;"/>
     </g>
     <g id="line2d_30">
      <defs>
       <path d="M 0 0 
L -3.5 0 
" id="mf3ed065237" style="stroke:#000000;stroke-width:0.8;"/>
      </defs>
      <g>
       <use style="stroke:#000000;stroke-width:0.8;" x="57.6" xlink:href="#mf3ed065237" y="298.944"/>
      </g>
     </g>
     <g id="text_6">
      <!-- 0.0 -->
      <defs>
       <path d="M 10.6875 12.40625 
L 21 12.40625 
L 21 0 
L 10.6875 0 
z
" id="DejaVuSans-46"/>
      </defs>
      <g transform="translate(25.155 305.02275)scale(0.16 -0.16)">
       <use xlink:href="#DejaVuSans-48"/>
       <use x="63.623047" xlink:href="#DejaVuSans-46"/>
       <use x="95.410156" xlink:href="#DejaVuSans-48"/>
      </g>
     </g>
    </g>
    <g id="ytick_2">
     <g id="line2d_31">
      <path clip-path="url(#pa369e79dba)" d="M 57.6 247.959446 
L 338.688 247.959446 
" style="fill:none;stroke:#b0b0b0;stroke-linecap:square;stroke-width:0.8;"/>
     </g>
     <g id="line2d_32">
      <g>
       <use style="stroke:#000000;stroke-width:0.8;" x="57.6" xlink:href="#mf3ed065237" y="247.959446"/>
      </g>
     </g>
     <g id="text_7">
      <!-- 0.2 -->
      <g transform="translate(25.155 254.038196)scale(0.16 -0.16)">
       <use xlink:href="#DejaVuSans-48"/>
       <use x="63.623047" xlink:href="#DejaVuSans-46"/>
       <use x="95.410156" xlink:href="#DejaVuSans-50"/>
      </g>
     </g>
    </g>
    <g id="ytick_3">
     <g id="line2d_33">
      <path clip-path="url(#pa369e79dba)" d="M 57.6 196.974891 
L 338.688 196.974891 
" style="fill:none;stroke:#b0b0b0;stroke-linecap:square;stroke-width:0.8;"/>
     </g>
     <g id="line2d_34">
      <g>
       <use style="stroke:#000000;stroke-width:0.8;" x="57.6" xlink:href="#mf3ed065237" y="196.974891"/>
      </g>
     </g>
     <g id="text_8">
      <!-- 0.4 -->
      <g transform="translate(25.155 203.053641)scale(0.16 -0.16)">
       <use xlink:href="#DejaVuSans-48"/>
       <use x="63.623047" xlink:href="#DejaVuSans-46"/>
       <use x="95.410156" xlink:href="#DejaVuSans-52"/>
      </g>
     </g>
    </g>
    <g id="ytick_4">
     <g id="line2d_35">
      <path clip-path="url(#pa369e79dba)" d="M 57.6 145.990337 
L 338.688 145.990337 
" style="fill:none;stroke:#b0b0b0;stroke-linecap:square;stroke-width:0.8;"/>
     </g>
     <g id="line2d_36">
      <g>
       <use style="stroke:#000000;stroke-width:0.8;" x="57.6" xlink:href="#mf3ed065237" y="145.990337"/>
      </g>
     </g>
     <g id="text_9">
      <!-- 0.6 -->
      <g transform="translate(25.155 152.069087)scale(0.16 -0.16)">
       <use xlink:href="#DejaVuSans-48"/>
       <use x="63.623047" xlink:href="#DejaVuSans-46"/>
       <use x="95.410156" xlink:href="#DejaVuSans-54"/>
      </g>
     </g>
    </g>
    <g id="ytick_5">
     <g id="line2d_37">
      <path clip-path="url(#pa369e79dba)" d="M 57.6 95.005782 
L 338.688 95.005782 
" style="fill:none;stroke:#b0b0b0;stroke-linecap:square;stroke-width:0.8;"/>
     </g>
     <g id="line2d_38">
      <g>
       <use style="stroke:#000000;stroke-width:0.8;" x="57.6" xlink:href="#mf3ed065237" y="95.005782"/>
      </g>
     </g>
     <g id="text_10">
      <!-- 0.8 -->
      <defs>
       <path d="M 31.78125 34.625 
Q 24.75 34.625 20.71875 30.859375 
Q 16.703125 27.09375 16.703125 20.515625 
Q 16.703125 13.921875 20.71875 10.15625 
Q 24.75 6.390625 31.78125 6.390625 
Q 38.8125 6.390625 42.859375 10.171875 
Q 46.921875 13.96875 46.921875 20.515625 
Q 46.921875 27.09375 42.890625 30.859375 
Q 38.875 34.625 31.78125 34.625 
z
M 21.921875 38.8125 
Q 15.578125 40.375 12.03125 44.71875 
Q 8.5 49.078125 8.5 55.328125 
Q 8.5 64.0625 14.71875 69.140625 
Q 20.953125 74.21875 31.78125 74.21875 
Q 42.671875 74.21875 48.875 69.140625 
Q 55.078125 64.0625 55.078125 55.328125 
Q 55.078125 49.078125 51.53125 44.71875 
Q 48 40.375 41.703125 38.8125 
Q 48.828125 37.15625 52.796875 32.3125 
Q 56.78125 27.484375 56.78125 20.515625 
Q 56.78125 9.90625 50.3125 4.234375 
Q 43.84375 -1.421875 31.78125 -1.421875 
Q 19.734375 -1.421875 13.25 4.234375 
Q 6.78125 9.90625 6.78125 20.515625 
Q 6.78125 27.484375 10.78125 32.3125 
Q 14.796875 37.15625 21.921875 38.8125 
z
M 18.3125 54.390625 
Q 18.3125 48.734375 21.84375 45.5625 
Q 25.390625 42.390625 31.78125 42.390625 
Q 38.140625 42.390625 41.71875 45.5625 
Q 45.3125 48.734375 45.3125 54.390625 
Q 45.3125 60.0625 41.71875 63.234375 
Q 38.140625 66.40625 31.78125 66.40625 
Q 25.390625 66.40625 21.84375 63.234375 
Q 18.3125 60.0625 18.3125 54.390625 
z
" id="DejaVuSans-56"/>
      </defs>
      <g transform="translate(25.155 101.084532)scale(0.16 -0.16)">
       <use xlink:href="#DejaVuSans-48"/>
       <use x="63.623047" xlink:href="#DejaVuSans-46"/>
       <use x="95.410156" xlink:href="#DejaVuSans-56"/>
      </g>
     </g>
    </g>
    <g id="ytick_6">
     <g id="line2d_39">
      <path clip-path="url(#pa369e79dba)" d="M 57.6 44.021228 
L 338.688 44.021228 
" style="fill:none;stroke:#b0b0b0;stroke-linecap:square;stroke-width:0.8;"/>
     </g>
     <g id="line2d_40">
      <g>
       <use style="stroke:#000000;stroke-width:0.8;" x="57.6" xlink:href="#mf3ed065237" y="44.021228"/>
      </g>
     </g>
     <g id="text_11">
      <!-- 1.0 -->
      <g transform="translate(25.155 50.099978)scale(0.16 -0.16)">
       <use xlink:href="#DejaVuSans-49"/>
       <use x="63.623047" xlink:href="#DejaVuSans-46"/>
       <use x="95.410156" xlink:href="#DejaVuSans-48"/>
      </g>
     </g>
    </g>
    <g id="text_12">
     <!-- Fraction of function,target pairs -->
     <defs>
      <path d="M 9.8125 72.90625 
L 51.703125 72.90625 
L 51.703125 64.59375 
L 19.671875 64.59375 
L 19.671875 43.109375 
L 48.578125 43.109375 
L 48.578125 34.8125 
L 19.671875 34.8125 
L 19.671875 0 
L 9.8125 0 
z
" id="DejaVuSans-70"/>
      <path d="M 41.109375 46.296875 
Q 39.59375 47.171875 37.8125 47.578125 
Q 36.03125 48 33.890625 48 
Q 26.265625 48 22.1875 43.046875 
Q 18.109375 38.09375 18.109375 28.8125 
L 18.109375 0 
L 9.078125 0 
L 9.078125 54.6875 
L 18.109375 54.6875 
L 18.109375 46.1875 
Q 20.953125 51.171875 25.484375 53.578125 
Q 30.03125 56 36.53125 56 
Q 37.453125 56 38.578125 55.875 
Q 39.703125 55.765625 41.0625 55.515625 
z
" id="DejaVuSans-114"/>
      <path d="M 48.78125 52.59375 
L 48.78125 44.1875 
Q 44.96875 46.296875 41.140625 47.34375 
Q 37.3125 48.390625 33.40625 48.390625 
Q 24.65625 48.390625 19.8125 42.84375 
Q 14.984375 37.3125 14.984375 27.296875 
Q 14.984375 17.28125 19.8125 11.734375 
Q 24.65625 6.203125 33.40625 6.203125 
Q 37.3125 6.203125 41.140625 7.25 
Q 44.96875 8.296875 48.78125 10.40625 
L 48.78125 2.09375 
Q 45.015625 0.34375 40.984375 -0.53125 
Q 36.96875 -1.421875 32.421875 -1.421875 
Q 20.0625 -1.421875 12.78125 6.34375 
Q 5.515625 14.109375 5.515625 27.296875 
Q 5.515625 40.671875 12.859375 48.328125 
Q 20.21875 56 33.015625 56 
Q 37.15625 56 41.109375 55.140625 
Q 45.0625 54.296875 48.78125 52.59375 
z
" id="DejaVuSans-99"/>
      <path d="M 18.3125 70.21875 
L 18.3125 54.6875 
L 36.8125 54.6875 
L 36.8125 47.703125 
L 18.3125 47.703125 
L 18.3125 18.015625 
Q 18.3125 11.328125 20.140625 9.421875 
Q 21.96875 7.515625 27.59375 7.515625 
L 36.8125 7.515625 
L 36.8125 0 
L 27.59375 0 
Q 17.1875 0 13.234375 3.875 
Q 9.28125 7.765625 9.28125 18.015625 
L 9.28125 47.703125 
L 2.6875 47.703125 
L 2.6875 54.6875 
L 9.28125 54.6875 
L 9.28125 70.21875 
z
" id="DejaVuSans-116"/>
      <path d="M 8.5 21.578125 
L 8.5 54.6875 
L 17.484375 54.6875 
L 17.484375 21.921875 
Q 17.484375 14.15625 20.5 10.265625 
Q 23.53125 6.390625 29.59375 6.390625 
Q 36.859375 6.390625 41.078125 11.03125 
Q 45.3125 15.671875 45.3125 23.6875 
L 45.3125 54.6875 
L 54.296875 54.6875 
L 54.296875 0 
L 45.3125 0 
L 45.3125 8.40625 
Q 42.046875 3.421875 37.71875 1 
Q 33.40625 -1.421875 27.6875 -1.421875 
Q 18.265625 -1.421875 13.375 4.4375 
Q 8.5 10.296875 8.5 21.578125 
z
M 31.109375 56 
z
" id="DejaVuSans-117"/>
      <path d="M 11.71875 12.40625 
L 22.015625 12.40625 
L 22.015625 4 
L 14.015625 -11.625 
L 7.71875 -11.625 
L 11.71875 4 
z
" id="DejaVuSans-44"/>
      <path d="M 18.109375 8.203125 
L 18.109375 -20.796875 
L 9.078125 -20.796875 
L 9.078125 54.6875 
L 18.109375 54.6875 
L 18.109375 46.390625 
Q 20.953125 51.265625 25.265625 53.625 
Q 29.59375 56 35.59375 56 
Q 45.5625 56 51.78125 48.09375 
Q 58.015625 40.1875 58.015625 27.296875 
Q 58.015625 14.40625 51.78125 6.484375 
Q 45.5625 -1.421875 35.59375 -1.421875 
Q 29.59375 -1.421875 25.265625 0.953125 
Q 20.953125 3.328125 18.109375 8.203125 
z
M 48.6875 27.296875 
Q 48.6875 37.203125 44.609375 42.84375 
Q 40.53125 48.484375 33.40625 48.484375 
Q 26.265625 48.484375 22.1875 42.84375 
Q 18.109375 37.203125 18.109375 27.296875 
Q 18.109375 17.390625 22.1875 11.75 
Q 26.265625 6.109375 33.40625 6.109375 
Q 40.53125 6.109375 44.609375 11.75 
Q 48.6875 17.390625 48.6875 27.296875 
z
" id="DejaVuSans-112"/>
     </defs>
     <g transform="translate(17.619531 305.347375)rotate(-90)scale(0.17 -0.17)">
      <use xlink:href="#DejaVuSans-70"/>
      <use x="57.410156" xlink:href="#DejaVuSans-114"/>
      <use x="98.523438" xlink:href="#DejaVuSans-97"/>
      <use x="159.802734" xlink:href="#DejaVuSans-99"/>
      <use x="214.783203" xlink:href="#DejaVuSans-116"/>
      <use x="253.992188" xlink:href="#DejaVuSans-105"/>
      <use x="281.775391" xlink:href="#DejaVuSans-111"/>
      <use x="342.957031" xlink:href="#DejaVuSans-110"/>
      <use x="406.335938" xlink:href="#DejaVuSans-32"/>
      <use x="438.123047" xlink:href="#DejaVuSans-111"/>
      <use x="499.304688" xlink:href="#DejaVuSans-102"/>
      <use x="534.509766" xlink:href="#DejaVuSans-32"/>
      <use x="566.296875" xlink:href="#DejaVuSans-102"/>
      <use x="601.501953" xlink:href="#DejaVuSans-117"/>
      <use x="664.880859" xlink:href="#DejaVuSans-110"/>
      <use x="728.259766" xlink:href="#DejaVuSans-99"/>
      <use x="783.240234" xlink:href="#DejaVuSans-116"/>
      <use x="822.449219" xlink:href="#DejaVuSans-105"/>
      <use x="850.232422" xlink:href="#DejaVuSans-111"/>
      <use x="911.414062" xlink:href="#DejaVuSans-110"/>
      <use x="974.792969" xlink:href="#DejaVuSans-44"/>
      <use x="1006.580078" xlink:href="#DejaVuSans-116"/>
      <use x="1045.789062" xlink:href="#DejaVuSans-97"/>
      <use x="1107.068359" xlink:href="#DejaVuSans-114"/>
      <use x="1148.166016" xlink:href="#DejaVuSans-103"/>
      <use x="1211.642578" xlink:href="#DejaVuSans-101"/>
      <use x="1273.166016" xlink:href="#DejaVuSans-116"/>
      <use x="1312.375" xlink:href="#DejaVuSans-32"/>
      <use x="1344.162109" xlink:href="#DejaVuSans-112"/>
      <use x="1407.638672" xlink:href="#DejaVuSans-97"/>
      <use x="1468.917969" xlink:href="#DejaVuSans-105"/>
      <use x="1496.701172" xlink:href="#DejaVuSans-114"/>
      <use x="1537.814453" xlink:href="#DejaVuSans-115"/>
     </g>
    </g>
   </g>
   <g id="line2d_41">
    <defs>
     <path d="M 0 1.5 
C 0.397805 1.5 0.77937 1.341951 1.06066 1.06066 
C 1.341951 0.77937 1.5 0.397805 1.5 0 
C 1.5 -0.397805 1.341951 -0.77937 1.06066 -1.06066 
C 0.77937 -1.341951 0.397805 -1.5 0 -1.5 
C -0.397805 -1.5 -0.77937 -1.341951 -1.06066 -1.06066 
C -1.341951 -0.77937 -1.5 -0.397805 -1.5 0 
C -1.5 0.397805 -1.341951 0.77937 -1.06066 1.06066 
C -0.77937 1.341951 -0.397805 1.5 0 1.5 
z
" id="m7bfc0ec5c4" style="stroke:#f5deb3;"/>
    </defs>
    <g>
     <use style="fill:#f5deb3;stroke:#f5deb3;" x="176.102467" xlink:href="#m7bfc0ec5c4" y="44.021228"/>
     <use style="fill:#f5deb3;stroke:#f5deb3;" x="176.102467" xlink:href="#m7bfc0ec5c4" y="44.021228"/>
    </g>
   </g>
   <g id="line2d_42">
    <defs>
     <path d="M 0 1.5 
C 0.397805 1.5 0.77937 1.341951 1.06066 1.06066 
C 1.341951 0.77937 1.5 0.397805 1.5 0 
C 1.5 -0.397805 1.341951 -0.77937 1.06066 -1.06066 
C 0.77937 -1.341951 0.397805 -1.5 0 -1.5 
C -0.397805 -1.5 -0.77937 -1.341951 -1.06066 -1.06066 
C -1.341951 -0.77937 -1.5 -0.397805 -1.5 0 
C -1.5 0.397805 -1.341951 0.77937 -1.06066 1.06066 
C -0.77937 1.341951 -0.397805 1.5 0 1.5 
z
" id="m99824fdb52" style="stroke:#000080;"/>
    </defs>
    <g>
     <use style="fill:#000080;stroke:#000080;" x="170.622023" xlink:href="#m99824fdb52" y="44.021228"/>
     <use style="fill:#000080;stroke:#000080;" x="170.622023" xlink:href="#m99824fdb52" y="44.021228"/>
    </g>
   </g>
   <g id="line2d_43">
    <path d="M 5.356583 298.944 
L 5.356583 286.947634 
L 24.515591 286.947634 
L 24.515591 285.947937 
L 29.53256 285.947937 
L 29.53256 284.94824 
L 41.620548 284.94824 
L 41.620548 284.448391 
L 51.379845 284.448391 
L 51.379845 283.448694 
L 53.708537 283.448694 
L 53.708537 282.948846 
L 59.262141 282.948846 
L 59.262141 281.949149 
L 62.833608 281.949149 
L 62.833608 281.4493 
L 66.853775 281.4493 
L 66.853775 280.949451 
L 73.227131 280.949451 
L 73.227131 280.449603 
L 73.579452 280.449603 
L 73.579452 279.949754 
L 74.263433 279.949754 
L 74.263433 279.449906 
L 74.921597 279.449906 
L 74.921597 278.950057 
L 76.759008 278.950057 
L 76.759008 278.450209 
L 83.438118 278.450209 
L 83.438118 277.95036 
L 83.635174 277.95036 
L 83.635174 276.950663 
L 84.772922 276.950663 
L 84.772922 276.450814 
L 85.315119 276.450814 
L 85.315119 275.950966 
L 85.492169 275.950966 
L 85.492169 275.451117 
L 87.798828 275.451117 
L 87.798828 274.951268 
L 89.558903 274.951268 
L 89.558903 274.45142 
L 90.108217 274.45142 
L 90.108217 273.951571 
L 92.147241 273.951571 
L 92.147241 273.451723 
L 92.386139 273.451723 
L 92.386139 272.951874 
L 96.395835 272.951874 
L 96.395835 272.452026 
L 97.842408 272.452026 
L 97.928955 271.452328 
L 98.015075 271.452328 
L 98.015075 270.95248 
L 98.689141 270.95248 
L 98.689141 270.452631 
L 99.575392 270.452631 
L 99.575392 269.952783 
L 99.80948 269.952783 
L 99.80948 269.452934 
L 102.060491 269.452934 
L 102.060491 268.953086 
L 102.530943 268.953086 
L 102.530943 268.453237 
L 102.859376 268.453237 
L 102.859376 267.953388 
L 103.245502 267.953388 
L 103.245502 267.45354 
L 103.623262 267.45354 
L 103.623262 266.953691 
L 104.114542 266.953691 
L 104.114542 266.453843 
L 104.295262 266.453843 
L 104.355088 265.454146 
L 104.474128 265.454146 
L 104.474128 264.954297 
L 105.22869 264.954297 
L 105.22869 263.9546 
L 108.150731 263.9546 
L 108.150731 263.454751 
L 108.577836 263.454751 
L 108.577836 262.954903 
L 109.040444 262.954903 
L 109.040444 262.455054 
L 109.222105 262.455054 
L 109.222105 261.955206 
L 109.624052 261.955206 
L 109.624052 261.455357 
L 109.756002 261.455357 
L 109.756002 260.955508 
L 109.886961 260.955508 
L 109.886961 260.45566 
L 110.060057 260.45566 
L 110.060057 259.955811 
L 110.401178 259.955811 
L 110.401178 259.455963 
L 110.694282 259.455963 
L 110.694282 258.956114 
L 110.982542 258.956114 
L 110.982542 258.456266 
L 111.104637 258.456266 
L 111.104637 257.956417 
L 111.30625 257.956417 
L 111.30625 257.456568 
L 111.974805 257.456568 
L 111.974805 256.95672 
L 112.280765 256.95672 
L 112.280765 256.456871 
L 112.950158 256.456871 
L 112.986604 255.457174 
L 113.095487 255.457174 
L 113.095487 254.957326 
L 113.629929 254.957326 
L 113.629929 254.457477 
L 113.769724 254.457477 
L 113.769724 253.957628 
L 113.977337 253.957628 
L 113.977337 252.957931 
L 114.114385 252.957931 
L 114.114385 252.458083 
L 114.250364 252.458083 
L 114.250364 251.958234 
L 114.718113 251.958234 
L 114.718113 251.458386 
L 115.237757 251.458386 
L 115.301637 250.458688 
L 115.617575 250.458688 
L 115.617575 249.95884 
L 115.804426 249.95884 
L 115.897107 248.959143 
L 116.050487 248.959143 
L 116.081002 247.959446 
L 116.650866 247.959446 
L 116.650866 247.459597 
L 116.797786 247.459597 
L 116.797786 246.959748 
L 116.914437 246.959748 
L 116.914437 246.4599 
L 117.145424 246.4599 
L 117.202696 245.460203 
L 117.259781 245.460203 
L 117.316679 244.460506 
L 117.709852 244.460506 
L 117.820578 242.96096 
L 117.84815 242.96096 
L 117.84815 241.961263 
L 118.310324 241.961263 
L 118.337133 240.961566 
L 118.470564 240.961566 
L 118.470564 240.461717 
L 118.786692 240.461717 
L 118.786692 239.961868 
L 118.968488 239.961868 
L 118.994305 238.962171 
L 119.173961 238.962171 
L 119.250393 237.962474 
L 119.677294 237.962474 
L 119.677294 236.962777 
L 120.021178 236.962777 
L 120.021178 236.462928 
L 120.310634 236.462928 
L 120.310634 235.96308 
L 120.453579 235.96308 
L 120.453579 235.463231 
L 120.665825 235.463231 
L 120.665825 234.963383 
L 120.990934 234.963383 
L 121.08272 233.963685 
L 121.887753 233.963685 
L 121.887753 233.463837 
L 122.040062 233.463837 
L 122.083336 231.964291 
L 122.44689 231.964291 
L 122.44689 231.464443 
L 122.740699 231.464443 
L 122.844443 229.964897 
L 122.906394 229.964897 
L 122.926996 228.9652 
L 123.514096 228.9652 
L 123.514096 228.465351 
L 123.888302 228.465351 
L 123.888302 227.965503 
L 124.062793 227.965503 
L 124.158984 226.965805 
L 124.235556 226.965805 
L 124.235556 226.465957 
L 124.817858 226.465957 
L 124.92835 224.466563 
L 125.074593 224.466563 
L 125.074593 223.966714 
L 125.717918 223.966714 
L 125.717918 222.967017 
L 125.927192 222.967017 
L 125.927192 222.467168 
L 126.185301 222.467168 
L 126.185301 221.96732 
L 126.422805 221.96732 
L 126.422805 221.467471 
L 126.657117 221.467471 
L 126.657117 220.967623 
L 126.822577 220.967623 
L 126.822577 220.467774 
L 127.357715 220.467774 
L 127.40556 219.468077 
L 127.783662 219.468077 
L 127.87692 217.468683 
L 127.954256 217.468683 
L 128.061954 216.468985 
L 128.092603 216.468985 
L 128.092603 215.969137 
L 128.350967 215.969137 
L 128.366047 214.96944 
L 128.531065 214.96944 
L 128.560901 213.969743 
L 128.650105 213.969743 
L 128.650105 213.469894 
L 128.783061 213.469894 
L 128.783061 212.970045 
L 128.973336 212.970045 
L 128.973336 212.470197 
L 129.161557 212.470197 
L 129.175952 211.4705 
L 129.433047 211.4705 
L 129.46138 210.470803 
L 129.79784 210.470803 
L 129.79784 209.970954 
L 130.263646 209.970954 
L 130.304155 208.971257 
L 130.465258 208.971257 
L 130.465258 208.471408 
L 130.677773 208.471408 
L 130.677773 207.97156 
L 131.414481 207.97156 
L 131.490249 206.971863 
L 131.603287 206.971863 
L 131.628308 205.972165 
L 131.814826 205.972165 
L 131.851892 204.972468 
L 132.072645 204.972468 
L 132.072645 204.47262 
L 132.326708 204.47262 
L 132.350712 203.472923 
L 132.541568 203.472923 
L 132.541568 202.973074 
L 133.205004 202.973074 
L 133.216421 201.973377 
L 133.431933 201.973377 
L 133.533096 200.97368 
L 133.888106 200.97368 
L 133.888106 200.473831 
L 134.171324 200.473831 
L 134.214491 199.474134 
L 134.321942 199.474134 
L 134.418085 198.474437 
L 134.61933 198.474437 
L 134.650895 197.47474 
L 135.351444 197.47474 
L 135.351444 196.974891 
L 135.472201 196.974891 
L 135.472201 196.475043 
L 135.691441 196.475043 
L 135.691441 195.975194 
L 135.809875 195.975194 
L 135.888386 194.975497 
L 136.005494 194.975497 
L 136.005494 194.475648 
L 136.150782 194.475648 
L 136.227776 193.475951 
L 136.626514 193.475951 
L 136.710785 192.476254 
L 136.96118 192.476254 
L 136.96118 191.976405 
L 137.37967 191.976405 
L 137.37967 191.476557 
L 137.61184 191.476557 
L 137.61184 190.976708 
L 137.980475 190.976708 
L 137.980475 190.47686 
L 138.136107 190.47686 
L 138.161911 189.477162 
L 138.315939 189.477162 
L 138.315939 188.977314 
L 138.611599 188.977314 
L 138.619973 187.977617 
L 138.761723 187.977617 
L 138.761723 187.477768 
L 139.090775 187.477768 
L 139.188293 186.478071 
L 139.285267 186.478071 
L 139.37369 184.978525 
L 140.506711 184.978525 
L 140.506711 184.478677 
L 140.619053 184.478677 
L 140.708409 182.979131 
L 140.738093 182.979131 
L 140.738093 182.479282 
L 140.966446 182.479282 
L 140.966446 181.979434 
L 141.184622 181.979434 
L 141.184622 181.479585 
L 141.535208 181.479585 
L 141.535208 180.979737 
L 141.683328 180.979737 
L 141.683328 180.479888 
L 142.05853 180.479888 
L 142.127135 178.980342 
L 142.526499 178.980342 
L 142.633244 176.980948 
L 142.719495 176.980948 
L 142.719495 176.4811 
L 143.138005 176.4811 
L 143.138005 175.981251 
L 143.42637 175.981251 
L 143.42637 175.481402 
L 143.553018 175.481402 
L 143.553018 174.981554 
L 143.685015 174.981554 
L 143.685015 174.481705 
L 143.902815 174.481705 
L 143.902815 173.981857 
L 144.093477 173.981857 
L 144.136243 172.98216 
L 144.65919 172.98216 
L 144.700592 171.982462 
L 144.929481 171.982462 
L 145.016721 170.482917 
L 145.132366 170.482917 
L 145.161158 169.48322 
L 145.401152 169.48322 
L 145.401152 168.983371 
L 145.542453 168.983371 
L 145.542453 168.483522 
L 145.910079 168.483522 
L 145.910079 167.983674 
L 146.205204 167.983674 
L 146.205204 167.483825 
L 146.680971 167.483825 
L 146.702052 166.484128 
L 146.916676 166.484128 
L 146.916676 165.98428 
L 147.041095 165.98428 
L 147.041095 165.484431 
L 147.19026 165.484431 
L 147.19026 164.984582 
L 147.429332 164.984582 
L 147.429332 164.484734 
L 147.635241 164.484734 
L 147.739772 162.985188 
L 148.025265 162.985188 
L 148.122637 161.985491 
L 148.224296 161.985491 
L 148.310963 160.985794 
L 148.421081 160.985794 
L 148.502028 159.986097 
L 148.850072 159.986097 
L 148.942958 158.486551 
L 149.141003 158.486551 
L 149.141003 157.986702 
L 149.318701 157.986702 
L 149.318701 157.486854 
L 149.71313 157.486854 
L 149.71313 156.987005 
L 149.902665 156.987005 
L 149.902665 156.487157 
L 150.016276 156.487157 
L 150.016276 155.987308 
L 150.215485 155.987308 
L 150.288534 154.987611 
L 150.352736 154.987611 
L 150.352736 154.487762 
L 150.573489 154.487762 
L 150.573489 153.987914 
L 150.91602 153.987914 
L 150.91602 153.488065 
L 151.174689 153.488065 
L 151.231653 152.488368 
L 151.581536 152.488368 
L 151.676833 150.488974 
L 151.692666 150.488974 
L 151.724287 149.489277 
L 151.814881 149.489277 
L 151.822737 148.489579 
L 152.199544 148.489579 
L 152.199544 147.989731 
L 152.348778 147.989731 
L 152.447563 146.490185 
L 152.692105 146.490185 
L 152.692105 145.990337 
L 152.933264 145.990337 
L 152.933264 145.490488 
L 153.076375 145.490488 
L 153.15659 144.490791 
L 153.477379 144.490791 
L 153.498795 143.491094 
L 153.591292 143.491094 
L 153.669178 142.491397 
L 153.81691 142.491397 
L 153.886821 141.491699 
L 154.001564 141.491699 
L 154.060382 140.492002 
L 154.167129 140.492002 
L 154.167129 139.992154 
L 154.331136 139.992154 
L 154.429481 138.492608 
L 154.621179 138.492608 
L 154.621179 137.992759 
L 154.751137 137.992759 
L 154.751137 137.492911 
L 154.896603 137.492911 
L 154.896603 136.993062 
L 155.196893 136.993062 
L 155.258271 135.993365 
L 155.434735 135.993365 
L 155.539762 134.493819 
L 155.628383 134.493819 
L 155.666226 132.494425 
L 155.779264 132.494425 
L 155.87602 130.994879 
L 155.938158 130.994879 
L 155.938158 130.495031 
L 156.101764 130.495031 
L 156.104836 128.995485 
L 156.583568 128.995485 
L 156.687861 127.495939 
L 156.900466 127.495939 
L 156.900466 126.996091 
L 157.497651 126.996091 
L 157.503322 125.496545 
L 157.621996 125.496545 
L 157.728676 123.497151 
L 157.759435 123.497151 
L 157.85139 121.497757 
L 158.263361 121.497757 
L 158.263361 120.997908 
L 158.647247 120.997908 
L 158.657864 119.998211 
L 158.800572 119.998211 
L 158.866247 118.998514 
L 158.962994 118.998514 
L 159.05402 117.998817 
L 159.08512 117.998817 
L 159.08512 117.498968 
L 159.237226 117.498968 
L 159.280809 115.999422 
L 159.40328 115.999422 
L 159.446449 114.499877 
L 159.683242 114.499877 
L 159.730716 113.500179 
L 159.795473 113.500179 
L 159.89463 110.501088 
L 159.948927 110.501088 
L 159.948927 110.001239 
L 160.259108 110.001239 
L 160.276045 109.001542 
L 160.466062 109.001542 
L 160.4828 107.501997 
L 160.578136 107.501997 
L 160.578136 107.002148 
L 160.731954 107.002148 
L 160.731954 106.502299 
L 160.919424 106.502299 
L 160.982243 104.502905 
L 161.217539 104.502905 
L 161.299832 103.003359 
L 161.381739 103.003359 
L 161.399888 102.003662 
L 161.539909 102.003662 
L 161.539909 101.503814 
L 161.669886 101.503814 
L 161.756743 100.004268 
L 161.907159 100.004268 
L 161.907159 99.504419 
L 162.062839 99.504419 
L 162.062839 99.004571 
L 162.193324 99.004571 
L 162.262519 97.005176 
L 162.309932 97.005176 
L 162.309932 96.505328 
L 162.523835 96.505328 
L 162.557817 95.505631 
L 162.674129 95.505631 
L 162.770815 94.505934 
L 162.887802 94.505934 
L 162.993664 93.506236 
L 163.024679 93.506236 
L 163.024679 93.006388 
L 163.453184 93.006388 
L 163.521581 91.506842 
L 163.942112 91.506842 
L 163.963658 90.507145 
L 164.070989 90.507145 
L 164.086545 89.507448 
L 164.212433 89.507448 
L 164.266383 88.507751 
L 164.389074 88.507751 
L 164.493826 87.008205 
L 164.648843 87.008205 
L 164.667654 86.008508 
L 164.780093 86.008508 
L 164.82114 84.009114 
L 165.098459 84.009114 
L 165.120455 83.009416 
L 165.220917 83.009416 
L 165.289991 82.009719 
L 165.38768 82.009719 
L 165.484825 80.010325 
L 165.568939 80.010325 
L 165.665082 78.510779 
L 165.702328 78.510779 
L 165.702328 78.010931 
L 165.871592 78.010931 
L 165.973065 76.511385 
L 166.141461 76.511385 
L 166.141461 76.011536 
L 166.267128 76.011536 
L 166.376562 74.012142 
L 166.432722 74.012142 
L 166.517469 72.012748 
L 166.547878 72.012748 
L 166.630389 71.013051 
L 166.702476 71.013051 
L 166.702476 70.513202 
L 166.820856 70.513202 
L 166.931835 69.513505 
L 166.933486 69.513505 
L 167.035547 67.014262 
L 167.073257 67.014262 
L 167.125588 66.014565 
L 167.218415 66.014565 
L 167.229781 65.014868 
L 167.487573 65.014868 
L 167.495568 64.015171 
L 167.637267 64.015171 
L 167.667369 63.015474 
L 167.810825 63.015474 
L 167.887585 61.016079 
L 167.934414 61.016079 
L 168.023045 59.516533 
L 168.060229 59.516533 
L 168.120485 58.516836 
L 168.189752 58.516836 
L 168.277098 57.017291 
L 168.353359 57.017291 
L 168.353359 56.517442 
L 168.539553 56.517442 
L 168.583165 55.017896 
L 168.667073 55.017896 
L 168.744627 54.018199 
L 168.802567 54.018199 
L 168.826282 53.018502 
L 168.923766 53.018502 
L 169.004589 51.019108 
L 169.301138 51.019108 
L 169.350076 49.519562 
L 169.49037 49.519562 
L 169.552994 48.020016 
L 169.86976 48.020016 
L 169.969922 46.020622 
L 170.106713 46.020622 
L 170.106713 45.520773 
L 170.351349 45.520773 
L 170.364915 44.521076 
L 170.622023 44.521076 
L 170.622023 44.021228 
L 338.688 44.021228 
L 338.688 44.021228 
" style="fill:none;stroke:#000080;stroke-linecap:square;stroke-width:1.5;"/>
   </g>
   <g id="line2d_44">
    <defs>
     <path d="M 0 6 
C 1.591219 6 3.117479 5.367802 4.242641 4.242641 
C 5.367802 3.117479 6 1.591219 6 0 
C 6 -1.591219 5.367802 -3.117479 4.242641 -4.242641 
C 3.117479 -5.367802 1.591219 -6 0 -6 
C -1.591219 -6 -3.117479 -5.367802 -4.242641 -4.242641 
C -5.367802 -3.117479 -6 -1.591219 -6 0 
C -6 1.591219 -5.367802 3.117479 -4.242641 4.242641 
C -3.117479 5.367802 -1.591219 6 0 6 
z
" id="mba981f6f42" style="stroke:#000080;stroke-width:1.5;"/>
    </defs>
    <g>
     <use style="fill-opacity:0;stroke:#000080;stroke-width:1.5;" x="124.891598" xlink:href="#mba981f6f42" y="225.46626"/>
     <use style="fill-opacity:0;stroke:#000080;stroke-width:1.5;" x="157.497651" xlink:href="#mba981f6f42" y="126.996091"/>
     <use style="fill-opacity:0;stroke:#000080;stroke-width:1.5;" x="170.622023" xlink:href="#mba981f6f42" y="44.521076"/>
     <use style="fill-opacity:0;stroke:#000080;stroke-width:1.5;" x="170.622023" xlink:href="#mba981f6f42" y="44.021228"/>
     <use style="fill-opacity:0;stroke:#000080;stroke-width:1.5;" x="170.622023" xlink:href="#mba981f6f42" y="44.021228"/>
     <use style="fill-opacity:0;stroke:#000080;stroke-width:1.5;" x="338.688" xlink:href="#mba981f6f42" y="44.021228"/>
    </g>
   </g>
   <g id="line2d_45">
    <path style="fill:none;stroke:#000080;stroke-linecap:square;stroke-width:1.5;"/>
    <g/>
   </g>
   <g id="line2d_46">
    <defs>
     <path d="M 0 1.5 
C 0.397805 1.5 0.77937 1.341951 1.06066 1.06066 
C 1.341951 0.77937 1.5 0.397805 1.5 0 
C 1.5 -0.397805 1.341951 -0.77937 1.06066 -1.06066 
C 0.77937 -1.341951 0.397805 -1.5 0 -1.5 
C -0.397805 -1.5 -0.77937 -1.341951 -1.06066 -1.06066 
C -1.341951 -0.77937 -1.5 -0.397805 -1.5 0 
C -1.5 0.397805 -1.341951 0.77937 -1.06066 1.06066 
C -0.77937 1.341951 -0.397805 1.5 0 1.5 
z
" id="mabddb00ccd" style="stroke:#ff00ff;"/>
    </defs>
    <g>
     <use style="fill:#ff00ff;stroke:#ff00ff;" x="163.238207" xlink:href="#mabddb00ccd" y="44.021228"/>
     <use style="fill:#ff00ff;stroke:#ff00ff;" x="163.238207" xlink:href="#mabddb00ccd" y="44.021228"/>
    </g>
   </g>
   <g id="line2d_47">
    <path d="M 5.356583 298.944 
L 5.356583 287.447483 
L 17.444571 287.447483 
L 17.444571 286.447786 
L 29.53256 286.447786 
L 29.53256 285.947937 
L 36.60358 285.947937 
L 36.60358 284.94824 
L 39.291857 284.94824 
L 39.291857 284.448391 
L 70.949209 284.448391 
L 70.949209 283.948543 
L 75.86449 283.948543 
L 75.86449 283.448694 
L 83.635174 283.448694 
L 83.635174 282.948846 
L 84.588378 282.948846 
L 84.588378 282.448997 
L 85.492169 282.448997 
L 85.492169 281.949149 
L 86.351421 281.949149 
L 86.351421 281.4493 
L 86.518305 281.4493 
L 86.518305 280.449603 
L 87.009585 280.449603 
L 87.009585 279.949754 
L 87.487404 279.949754 
L 87.487404 279.449906 
L 87.952479 279.449906 
L 87.952479 278.950057 
L 88.405473 278.950057 
L 88.405473 278.450209 
L 90.376519 278.450209 
L 90.376519 277.95036 
L 91.284345 277.95036 
L 91.284345 277.450511 
L 92.504372 277.450511 
L 92.504372 276.950663 
L 92.73846 276.950663 
L 92.73846 276.450814 
L 92.854336 276.450814 
L 92.854336 275.950966 
L 93.972622 275.950966 
L 93.972622 275.451117 
L 94.294587 275.451117 
L 94.400601 274.45142 
L 95.326798 274.45142 
L 95.326798 273.951571 
L 95.624913 273.951571 
L 95.624913 273.451723 
L 97.580158 273.451723 
L 97.580158 272.951874 
L 98.771596 272.951874 
L 98.853664 271.952177 
L 99.178125 271.952177 
L 99.178125 271.452328 
L 100.268435 271.452328 
L 100.268435 270.95248 
L 100.86217 270.95248 
L 100.86217 270.452631 
L 101.151625 270.452631 
L 101.151625 269.952783 
L 101.506816 269.952783 
L 101.506816 269.452934 
L 102.794183 269.452934 
L 102.794183 268.953086 
L 103.93193 268.953086 
L 103.993014 267.953388 
L 104.592361 267.953388 
L 104.592361 267.45354 
L 105.114708 267.45354 
L 105.114708 266.953691 
L 105.454445 266.953691 
L 105.51043 264.954297 
L 105.842616 264.954297 
L 105.842616 264.454448 
L 107.111487 264.454448 
L 107.213174 263.454751 
L 107.314272 263.454751 
L 107.314272 262.954903 
L 108.102622 262.954903 
L 108.198707 261.455357 
L 108.436627 261.455357 
L 108.436627 260.955508 
L 108.577836 260.955508 
L 108.577836 259.955811 
L 109.535528 259.955811 
L 109.535528 259.455963 
L 109.930396 259.455963 
L 109.930396 258.956114 
L 110.060057 258.956114 
L 110.103064 257.956417 
L 110.485426 257.956417 
L 110.485426 256.95672 
L 110.735755 256.95672 
L 110.735755 256.456871 
L 110.859585 256.456871 
L 110.859585 255.957023 
L 111.064034 255.957023 
L 111.145147 254.957326 
L 111.225884 254.957326 
L 111.30625 253.957628 
L 111.386247 253.957628 
L 111.386247 253.45778 
L 111.74176 253.45778 
L 111.74176 252.957931 
L 112.204777 252.957931 
L 112.242812 251.958234 
L 112.39413 251.958234 
L 112.39413 251.458386 
L 113.489005 251.458386 
L 113.594805 250.458688 
L 113.769724 250.458688 
L 113.769724 249.458991 
L 114.317959 249.458991 
L 114.317959 248.959143 
L 114.751048 248.959143 
L 114.751048 248.459294 
L 115.205729 248.459294 
L 115.237757 247.459597 
L 115.397021 247.459597 
L 115.460322 245.960051 
L 115.617575 245.960051 
L 115.680082 244.960354 
L 115.835374 244.960354 
L 115.927891 243.460808 
L 115.958621 243.460808 
L 116.050487 242.461111 
L 116.232781 242.461111 
L 116.232781 241.961263 
L 116.650866 241.961263 
L 116.680349 240.961566 
L 116.914437 240.961566 
L 116.914437 239.961868 
L 117.030313 239.961868 
L 117.116718 238.962171 
L 117.202696 238.962171 
L 117.288253 237.962474 
L 117.84815 237.962474 
L 117.84815 237.462626 
L 117.985359 237.462626 
L 117.985359 236.462928 
L 118.121498 236.462928 
L 118.121498 235.96308 
L 118.283474 235.96308 
L 118.337133 234.963383 
L 118.602981 234.963383 
L 118.681952 233.963685 
L 118.994305 233.963685 
L 118.994305 233.463837 
L 119.351785 233.463837 
L 119.351785 232.963988 
L 119.477701 232.963988 
L 119.577783 231.964291 
L 119.602714 231.964291 
L 119.602714 231.464443 
L 119.923616 231.464443 
L 119.996839 230.464745 
L 120.166507 230.464745 
L 120.166507 229.964897 
L 120.500969 229.964897 
L 120.500969 227.465654 
L 120.618882 227.465654 
L 120.618882 226.965805 
L 120.990934 226.965805 
L 120.990934 226.465957 
L 121.105591 226.465957 
L 121.151244 225.46626 
L 121.264855 225.46626 
L 121.264855 224.966411 
L 121.400219 224.966411 
L 121.400219 224.466563 
L 121.556827 224.466563 
L 121.556827 223.966714 
L 122.104932 223.966714 
L 122.126502 222.967017 
L 122.510267 222.967017 
L 122.615387 221.467471 
L 122.678156 221.467471 
L 122.761498 220.467774 
L 122.926996 220.467774 
L 122.926996 219.967925 
L 123.172336 219.967925 
L 123.172336 219.468077 
L 123.313873 219.468077 
L 123.354102 218.46838 
L 123.474235 218.46838 
L 123.474235 217.968531 
L 123.613353 217.968531 
L 123.613353 217.468683 
L 123.751369 217.468683 
L 123.751369 216.968834 
L 123.94666 216.968834 
L 123.94666 216.468985 
L 124.062793 216.468985 
L 124.082074 215.469288 
L 124.235556 215.469288 
L 124.330801 214.469591 
L 124.387699 214.469591 
L 124.387699 213.969743 
L 124.57603 213.969743 
L 124.650796 212.970045 
L 124.965026 212.970045 
L 125.019895 211.970348 
L 125.255688 211.970348 
L 125.345535 210.470803 
L 125.770472 210.470803 
L 125.770472 209.970954 
L 125.961828 209.970954 
L 126.048118 208.471408 
L 126.355276 208.471408 
L 126.355276 207.97156 
L 126.623836 207.97156 
L 126.657117 206.971863 
L 126.97016 206.971863 
L 127.067859 205.972165 
L 127.277682 205.972165 
L 127.277682 205.472317 
L 127.642832 205.472317 
L 127.689902 204.47262 
L 127.845889 204.47262 
L 127.938816 203.472923 
L 128.031251 203.472923 
L 128.138476 201.973377 
L 128.335875 201.973377 
L 128.335875 201.473528 
L 128.635269 201.473528 
L 128.635269 200.97368 
L 128.841828 200.97368 
L 128.841828 200.473831 
L 129.219065 200.473831 
L 129.233413 199.474134 
L 129.418863 199.474134 
L 129.418863 198.974285 
L 129.532014 198.974285 
L 129.602362 197.974588 
L 129.811719 197.974588 
L 129.894764 196.974891 
L 129.963666 196.974891 
L 130.073348 195.975194 
L 130.155159 195.975194 
L 130.209487 194.975497 
L 130.384893 194.975497 
L 130.425122 193.9758 
L 130.558552 193.9758 
L 130.558552 193.475951 
L 130.76994 193.475951 
L 130.874681 192.476254 
L 130.900768 192.476254 
L 131.004728 191.476557 
L 131.172353 191.476557 
L 131.274712 190.47686 
L 131.615802 190.47686 
L 131.715598 189.477162 
L 131.987128 189.477162 
L 131.99937 188.477465 
L 132.386657 188.477465 
L 132.386657 187.977617 
L 132.600785 187.977617 
L 132.695115 186.97792 
L 132.718618 186.97792 
L 132.718618 186.478071 
L 132.835661 186.478071 
L 132.847322 185.478374 
L 132.975083 185.478374 
L 133.032848 183.47898 
L 133.090422 183.47898 
L 133.090422 182.979131 
L 133.33018 182.979131 
L 133.33018 182.479282 
L 133.454465 182.479282 
L 133.555497 180.479888 
L 133.733678 180.479888 
L 133.733678 179.98004 
L 134.008491 179.98004 
L 134.008491 179.480191 
L 134.149701 179.480191 
L 134.149701 178.980342 
L 134.311226 178.980342 
L 134.321942 177.480797 
L 134.450015 177.480797 
L 134.524293 175.981251 
L 134.797444 175.981251 
L 134.901373 174.981554 
L 134.963435 174.981554 
L 134.973757 173.981857 
L 135.117629 173.981857 
L 135.209496 172.98216 
L 135.280614 172.98216 
L 135.280614 172.482311 
L 135.492247 172.482311 
L 135.522271 171.482614 
L 135.711236 171.482614 
L 135.731008 170.482917 
L 135.849174 170.482917 
L 135.849174 169.983068 
L 136.024936 169.983068 
L 136.044356 168.983371 
L 136.160425 168.983371 
L 136.246972 167.483825 
L 136.275726 167.483825 
L 136.275726 166.983977 
L 136.475687 166.983977 
L 136.579521 165.98428 
L 136.68274 165.98428 
L 136.68274 165.484431 
L 136.803944 165.484431 
L 136.878114 164.484734 
L 136.933536 164.484734 
L 137.016339 161.985491 
L 137.107884 161.985491 
L 137.107884 161.485642 
L 137.280507 161.485642 
L 137.388657 159.486248 
L 137.647286 159.486248 
L 137.68266 158.486551 
L 137.788353 158.486551 
L 137.875944 157.486854 
L 137.936996 157.486854 
L 138.041164 155.987308 
L 138.161911 155.987308 
L 138.256201 154.987611 
L 138.426341 154.987611 
L 138.426341 154.487762 
L 138.54446 154.487762 
L 138.645071 151.488671 
L 138.711825 151.488671 
L 138.711825 150.988822 
L 138.861092 150.988822 
L 138.951686 149.489277 
L 139.033637 149.489277 
L 139.033637 148.989428 
L 139.147727 148.989428 
L 139.204493 147.989731 
L 139.421732 147.989731 
L 139.517421 146.490185 
L 139.620495 146.490185 
L 139.730821 144.990639 
L 139.770054 144.990639 
L 139.824833 143.990942 
L 139.918342 143.990942 
L 139.980403 142.491397 
L 140.165274 142.491397 
L 140.2646 140.492002 
L 140.333034 140.492002 
L 140.423864 138.992457 
L 140.491677 138.992457 
L 140.529237 137.492911 
L 140.686113 137.492911 
L 140.752916 135.993365 
L 140.937149 135.993365 
L 140.973763 134.993668 
L 141.054044 134.993668 
L 141.155689 133.993971 
L 141.170161 133.993971 
L 141.249546 132.994274 
L 141.400102 132.994274 
L 141.499755 129.995182 
L 141.535208 129.995182 
L 141.577657 128.995485 
L 141.774395 128.995485 
L 141.774395 128.495637 
L 141.968939 128.495637 
L 142.072273 126.496242 
L 142.209106 126.496242 
L 142.297475 123.996999 
L 142.344874 123.996999 
L 142.452732 121.997605 
L 142.499711 121.997605 
L 142.559927 120.997908 
L 142.666468 120.997908 
L 142.726112 119.998211 
L 142.831645 119.998211 
L 142.831645 119.498362 
L 143.001786 119.498362 
L 143.099194 118.498665 
L 143.176731 118.498665 
L 143.228231 116.999119 
L 143.540394 116.999119 
L 143.584537 115.499574 
L 143.678752 115.499574 
L 143.75376 114.499877 
L 143.797366 114.499877 
L 143.87806 113.500179 
L 144.093477 113.500179 
L 144.178904 112.500482 
L 144.276025 112.500482 
L 144.276025 112.000634 
L 144.528424 112.000634 
L 144.528424 111.500785 
L 144.812477 111.500785 
L 144.871077 110.501088 
L 144.993499 110.501088 
L 145.0862 109.001542 
L 145.315819 109.001542 
L 145.332919 108.001845 
L 145.564956 108.001845 
L 145.564956 107.501997 
L 146.178086 107.501997 
L 146.178086 107.002148 
L 146.340162 107.002148 
L 146.340162 106.502299 
L 146.538004 106.502299 
L 146.559258 105.502602 
L 146.702052 105.502602 
L 146.812312 104.003056 
L 146.953057 104.003056 
L 146.953057 103.503208 
L 147.220962 103.503208 
L 147.220962 103.003359 
L 147.459617 103.003359 
L 147.459617 102.503511 
L 147.833811 102.503511 
L 147.937163 100.504116 
L 148.425853 100.504116 
L 148.48777 99.504419 
L 148.587329 99.504419 
L 148.596781 98.504722 
L 148.76605 98.504722 
L 148.775406 97.505025 
L 148.882639 97.505025 
L 148.975352 96.505328 
L 149.072173 96.505328 
L 149.177602 95.505631 
L 149.305096 95.505631 
L 149.359452 94.505934 
L 149.422654 94.505934 
L 149.422654 94.006085 
L 149.89828 94.006085 
L 150.007563 92.506539 
L 150.055431 92.506539 
L 150.155097 91.506842 
L 150.314243 91.506842 
L 150.403927 90.007296 
L 150.83725 90.007296 
L 150.882897 88.507751 
L 151.023238 88.507751 
L 151.023238 88.007902 
L 151.345027 88.007902 
L 151.437608 87.008205 
L 151.525705 87.008205 
L 151.525705 86.508356 
L 151.696621 86.508356 
L 151.696621 86.008508 
L 151.998557 86.008508 
L 152.010216 85.008811 
L 152.295354 85.008811 
L 152.295354 84.508962 
L 152.451351 84.508962 
L 152.451351 84.009114 
L 152.579665 84.009114 
L 152.635976 83.009416 
L 152.848312 83.009416 
L 152.848312 82.509568 
L 153.039792 82.509568 
L 153.039792 82.009719 
L 153.189299 82.009719 
L 153.232815 81.010022 
L 153.498795 81.010022 
L 153.498795 80.510174 
L 153.879842 80.510174 
L 153.879842 80.010325 
L 154.025807 80.010325 
L 154.119001 79.010628 
L 154.399019 79.010628 
L 154.503719 77.511082 
L 154.697938 77.511082 
L 154.731206 76.511385 
L 154.86035 76.511385 
L 154.9492 75.011839 
L 155.112551 75.011839 
L 155.183944 74.012142 
L 155.34833 74.012142 
L 155.34833 73.512294 
L 155.542935 73.512294 
L 155.647315 72.512596 
L 155.83551 72.512596 
L 155.83551 72.012748 
L 156.027868 72.012748 
L 156.086395 70.513202 
L 156.199806 70.513202 
L 156.227282 69.513505 
L 156.430472 69.513505 
L 156.469624 67.514111 
L 156.619396 67.514111 
L 156.661102 66.514414 
L 156.818094 66.514414 
L 156.874032 65.514716 
L 156.938578 65.514716 
L 156.938578 65.014868 
L 157.066959 65.014868 
L 157.15106 63.515322 
L 157.182854 63.515322 
L 157.182854 63.015474 
L 157.455057 63.015474 
L 157.455057 62.515625 
L 157.593813 62.515625 
L 157.641697 61.016079 
L 157.770607 61.016079 
L 157.770607 60.516231 
L 157.8958 60.516231 
L 157.951154 59.516533 
L 158.0201 59.516533 
L 158.086033 58.516836 
L 158.257931 58.516836 
L 158.257931 58.016988 
L 158.75841 58.016988 
L 158.842632 57.017291 
L 159.103236 57.017291 
L 159.103236 56.517442 
L 159.298723 56.517442 
L 159.367648 55.517745 
L 159.451521 55.517745 
L 159.451521 55.017896 
L 159.867418 55.017896 
L 159.887213 54.018199 
L 160.123015 54.018199 
L 160.203341 52.518653 
L 160.360486 52.518653 
L 160.384537 51.518956 
L 160.597141 51.518956 
L 160.675317 50.519259 
L 160.898434 50.519259 
L 160.996172 48.519865 
L 161.040208 48.519865 
L 161.040208 48.020016 
L 161.311231 48.020016 
L 161.415753 46.520471 
L 161.467781 46.520471 
L 161.467781 46.020622 
L 161.840959 46.020622 
L 161.856428 45.020925 
L 162.355069 45.020925 
L 162.355069 44.521076 
L 163.238207 44.521076 
L 163.238207 44.021228 
L 338.688 44.021228 
L 338.688 44.021228 
" style="fill:none;stroke:#ff00ff;stroke-linecap:square;stroke-width:1.5;"/>
   </g>
   <g id="line2d_48">
    <defs>
     <path d="M -0 8.485281 
L 5.091169 0 
L 0 -8.485281 
L -5.091169 -0 
z
" id="m7939a4f309" style="stroke:#ff00ff;stroke-linejoin:miter;stroke-width:1.5;"/>
    </defs>
    <g>
     <use style="fill-opacity:0;stroke:#ff00ff;stroke-linejoin:miter;stroke-width:1.5;" x="91.284345" xlink:href="#m7939a4f309" y="277.450511"/>
     <use style="fill-opacity:0;stroke:#ff00ff;stroke-linejoin:miter;stroke-width:1.5;" x="143.87806" xlink:href="#m7939a4f309" y="113.500179"/>
     <use style="fill-opacity:0;stroke:#ff00ff;stroke-linejoin:miter;stroke-width:1.5;" x="163.238207" xlink:href="#m7939a4f309" y="44.521076"/>
     <use style="fill-opacity:0;stroke:#ff00ff;stroke-linejoin:miter;stroke-width:1.5;" x="163.238207" xlink:href="#m7939a4f309" y="44.021228"/>
     <use style="fill-opacity:0;stroke:#ff00ff;stroke-linejoin:miter;stroke-width:1.5;" x="163.238207" xlink:href="#m7939a4f309" y="44.021228"/>
     <use style="fill-opacity:0;stroke:#ff00ff;stroke-linejoin:miter;stroke-width:1.5;" x="338.688" xlink:href="#m7939a4f309" y="44.021228"/>
    </g>
   </g>
   <g id="line2d_49">
    <path style="fill:none;stroke:#ff00ff;stroke-linecap:square;stroke-width:1.5;"/>
    <g/>
   </g>
   <g id="line2d_50">
    <path d="M 338.688 44.021228 
L 369.60768 171.482614 
" style="fill:none;stroke:#000080;stroke-linecap:square;stroke-width:1.5;"/>
    <g>
     <use style="fill-opacity:0;stroke:#000080;stroke-width:1.5;" x="338.688" xlink:href="#mba981f6f42" y="44.021228"/>
     <use style="fill-opacity:0;stroke:#000080;stroke-width:1.5;" x="369.60768" xlink:href="#mba981f6f42" y="171.482614"/>
    </g>
   </g>
   <g id="line2d_51">
    <path d="M 338.688 44.021228 
L 369.60768 49.119683 
" style="fill:none;stroke:#ff00ff;stroke-linecap:square;stroke-width:1.5;"/>
    <g>
     <use style="fill-opacity:0;stroke:#ff00ff;stroke-linejoin:miter;stroke-width:1.5;" x="338.688" xlink:href="#m7939a4f309" y="44.021228"/>
     <use style="fill-opacity:0;stroke:#ff00ff;stroke-linejoin:miter;stroke-width:1.5;" x="369.60768" xlink:href="#m7939a4f309" y="49.119683"/>
    </g>
   </g>
   <g id="line2d_52">
    <path d="M 338.688 298.944 
L 338.688 44.021228 
" style="fill:none;stroke:#000000;stroke-linecap:square;stroke-width:1.5;"/>
   </g>
   <g id="patch_3">
    <path d="M 57.6 298.944 
L 57.6 41.472 
" style="fill:none;stroke:#000000;stroke-linecap:square;stroke-linejoin:miter;stroke-width:0.8;"/>
   </g>
   <g id="patch_4">
    <path d="M 338.688 298.944 
L 338.688 41.472 
" style="fill:none;stroke:#000000;stroke-linecap:square;stroke-linejoin:miter;stroke-width:0.8;"/>
   </g>
   <g id="patch_5">
    <path d="M 57.6 298.944 
L 338.688 298.944 
" style="fill:none;stroke:#000000;stroke-linecap:square;stroke-linejoin:miter;stroke-width:0.8;"/>
   </g>
   <g id="patch_6">
    <path d="M 57.6 41.472 
L 338.688 41.472 
" style="fill:none;stroke:#000000;stroke-linecap:square;stroke-linejoin:miter;stroke-width:0.8;"/>
   </g>
   <g id="text_13">
    <!-- best 2009 -->
    <defs>
     <path d="M 48.6875 27.296875 
Q 48.6875 37.203125 44.609375 42.84375 
Q 40.53125 48.484375 33.40625 48.484375 
Q 26.265625 48.484375 22.1875 42.84375 
Q 18.109375 37.203125 18.109375 27.296875 
Q 18.109375 17.390625 22.1875 11.75 
Q 26.265625 6.109375 33.40625 6.109375 
Q 40.53125 6.109375 44.609375 11.75 
Q 48.6875 17.390625 48.6875 27.296875 
z
M 18.109375 46.390625 
Q 20.953125 51.265625 25.265625 53.625 
Q 29.59375 56 35.59375 56 
Q 45.5625 56 51.78125 48.09375 
Q 58.015625 40.1875 58.015625 27.296875 
Q 58.015625 14.40625 51.78125 6.484375 
Q 45.5625 -1.421875 35.59375 -1.421875 
Q 29.59375 -1.421875 25.265625 0.953125 
Q 20.953125 3.328125 18.109375 8.203125 
L 18.109375 0 
L 9.078125 0 
L 9.078125 75.984375 
L 18.109375 75.984375 
z
" id="DejaVuSans-98"/>
     <path d="M 10.984375 1.515625 
L 10.984375 10.5 
Q 14.703125 8.734375 18.5 7.8125 
Q 22.3125 6.890625 25.984375 6.890625 
Q 35.75 6.890625 40.890625 13.453125 
Q 46.046875 20.015625 46.78125 33.40625 
Q 43.953125 29.203125 39.59375 26.953125 
Q 35.25 24.703125 29.984375 24.703125 
Q 19.046875 24.703125 12.671875 31.3125 
Q 6.296875 37.9375 6.296875 49.421875 
Q 6.296875 60.640625 12.9375 67.421875 
Q 19.578125 74.21875 30.609375 74.21875 
Q 43.265625 74.21875 49.921875 64.515625 
Q 56.59375 54.828125 56.59375 36.375 
Q 56.59375 19.140625 48.40625 8.859375 
Q 40.234375 -1.421875 26.421875 -1.421875 
Q 22.703125 -1.421875 18.890625 -0.6875 
Q 15.09375 0.046875 10.984375 1.515625 
z
M 30.609375 32.421875 
Q 37.25 32.421875 41.125 36.953125 
Q 45.015625 41.5 45.015625 49.421875 
Q 45.015625 57.28125 41.125 61.84375 
Q 37.25 66.40625 30.609375 66.40625 
Q 23.96875 66.40625 20.09375 61.84375 
Q 16.21875 57.28125 16.21875 49.421875 
Q 16.21875 41.5 20.09375 36.953125 
Q 23.96875 32.421875 30.609375 32.421875 
z
" id="DejaVuSans-57"/>
    </defs>
    <g transform="translate(375.22944 298.536482)scale(0.17 -0.17)">
     <use xlink:href="#DejaVuSans-98"/>
     <use x="63.476562" xlink:href="#DejaVuSans-101"/>
     <use x="125" xlink:href="#DejaVuSans-115"/>
     <use x="177.099609" xlink:href="#DejaVuSans-116"/>
     <use x="216.308594" xlink:href="#DejaVuSans-32"/>
     <use x="248.095703" xlink:href="#DejaVuSans-50"/>
     <use x="311.71875" xlink:href="#DejaVuSans-48"/>
     <use x="375.341797" xlink:href="#DejaVuSans-48"/>
     <use x="438.964844" xlink:href="#DejaVuSans-57"/>
    </g>
   </g>
   <g id="text_14">
    <!-- CMA-ES  2 -->
    <defs>
     <path d="M 64.40625 67.28125 
L 64.40625 56.890625 
Q 59.421875 61.53125 53.78125 63.8125 
Q 48.140625 66.109375 41.796875 66.109375 
Q 29.296875 66.109375 22.65625 58.46875 
Q 16.015625 50.828125 16.015625 36.375 
Q 16.015625 21.96875 22.65625 14.328125 
Q 29.296875 6.6875 41.796875 6.6875 
Q 48.140625 6.6875 53.78125 8.984375 
Q 59.421875 11.28125 64.40625 15.921875 
L 64.40625 5.609375 
Q 59.234375 2.09375 53.4375 0.328125 
Q 47.65625 -1.421875 41.21875 -1.421875 
Q 24.65625 -1.421875 15.125 8.703125 
Q 5.609375 18.84375 5.609375 36.375 
Q 5.609375 53.953125 15.125 64.078125 
Q 24.65625 74.21875 41.21875 74.21875 
Q 47.75 74.21875 53.53125 72.484375 
Q 59.328125 70.75 64.40625 67.28125 
z
" id="DejaVuSans-67"/>
     <path d="M 9.8125 72.90625 
L 24.515625 72.90625 
L 43.109375 23.296875 
L 61.8125 72.90625 
L 76.515625 72.90625 
L 76.515625 0 
L 66.890625 0 
L 66.890625 64.015625 
L 48.09375 14.015625 
L 38.1875 14.015625 
L 19.390625 64.015625 
L 19.390625 0 
L 9.8125 0 
z
" id="DejaVuSans-77"/>
     <path d="M 34.1875 63.1875 
L 20.796875 26.90625 
L 47.609375 26.90625 
z
M 28.609375 72.90625 
L 39.796875 72.90625 
L 67.578125 0 
L 57.328125 0 
L 50.6875 18.703125 
L 17.828125 18.703125 
L 11.1875 0 
L 0.78125 0 
z
" id="DejaVuSans-65"/>
     <path d="M 9.8125 72.90625 
L 55.90625 72.90625 
L 55.90625 64.59375 
L 19.671875 64.59375 
L 19.671875 43.015625 
L 54.390625 43.015625 
L 54.390625 34.71875 
L 19.671875 34.71875 
L 19.671875 8.296875 
L 56.78125 8.296875 
L 56.78125 0 
L 9.8125 0 
z
" id="DejaVuSans-69"/>
     <path d="M 53.515625 70.515625 
L 53.515625 60.890625 
Q 47.90625 63.578125 42.921875 64.890625 
Q 37.9375 66.21875 33.296875 66.21875 
Q 25.25 66.21875 20.875 63.09375 
Q 16.5 59.96875 16.5 54.203125 
Q 16.5 49.359375 19.40625 46.890625 
Q 22.3125 44.4375 30.421875 42.921875 
L 36.375 41.703125 
Q 47.40625 39.59375 52.65625 34.296875 
Q 57.90625 29 57.90625 20.125 
Q 57.90625 9.515625 50.796875 4.046875 
Q 43.703125 -1.421875 29.984375 -1.421875 
Q 24.8125 -1.421875 18.96875 -0.25 
Q 13.140625 0.921875 6.890625 3.21875 
L 6.890625 13.375 
Q 12.890625 10.015625 18.65625 8.296875 
Q 24.421875 6.59375 29.984375 6.59375 
Q 38.421875 6.59375 43.015625 9.90625 
Q 47.609375 13.234375 47.609375 19.390625 
Q 47.609375 24.75 44.3125 27.78125 
Q 41.015625 30.8125 33.5 32.328125 
L 27.484375 33.5 
Q 16.453125 35.6875 11.515625 40.375 
Q 6.59375 45.0625 6.59375 53.421875 
Q 6.59375 63.09375 13.40625 68.65625 
Q 20.21875 74.21875 32.171875 74.21875 
Q 37.3125 74.21875 42.625 73.28125 
Q 47.953125 72.359375 53.515625 70.515625 
z
" id="DejaVuSans-83"/>
    </defs>
    <g transform="translate(375.22944 176.173551)scale(0.17 -0.17)">
     <use xlink:href="#DejaVuSans-67"/>
     <use x="69.824219" xlink:href="#DejaVuSans-77"/>
     <use x="156.103516" xlink:href="#DejaVuSans-65"/>
     <use x="224.480469" xlink:href="#DejaVuSans-45"/>
     <use x="260.564453" xlink:href="#DejaVuSans-69"/>
     <use x="323.748047" xlink:href="#DejaVuSans-83"/>
     <use x="387.224609" xlink:href="#DejaVuSans-32"/>
     <use x="419.011719" xlink:href="#DejaVuSans-32"/>
     <use x="450.798828" xlink:href="#DejaVuSans-50"/>
    </g>
   </g>
   <g id="text_15">
    <!-- lq-CMA-ES -->
    <defs>
     <path d="M 14.796875 27.296875 
Q 14.796875 17.390625 18.875 11.75 
Q 22.953125 6.109375 30.078125 6.109375 
Q 37.203125 6.109375 41.296875 11.75 
Q 45.40625 17.390625 45.40625 27.296875 
Q 45.40625 37.203125 41.296875 42.84375 
Q 37.203125 48.484375 30.078125 48.484375 
Q 22.953125 48.484375 18.875 42.84375 
Q 14.796875 37.203125 14.796875 27.296875 
z
M 45.40625 8.203125 
Q 42.578125 3.328125 38.25 0.953125 
Q 33.9375 -1.421875 27.875 -1.421875 
Q 17.96875 -1.421875 11.734375 6.484375 
Q 5.515625 14.40625 5.515625 27.296875 
Q 5.515625 40.1875 11.734375 48.09375 
Q 17.96875 56 27.875 56 
Q 33.9375 56 38.25 53.625 
Q 42.578125 51.265625 45.40625 46.390625 
L 45.40625 54.6875 
L 54.390625 54.6875 
L 54.390625 -20.796875 
L 45.40625 -20.796875 
z
" id="DejaVuSans-113"/>
    </defs>
    <g transform="translate(375.22944 53.810621)scale(0.17 -0.17)">
     <use xlink:href="#DejaVuSans-108"/>
     <use x="27.783203" xlink:href="#DejaVuSans-113"/>
     <use x="91.259766" xlink:href="#DejaVuSans-45"/>
     <use x="127.34375" xlink:href="#DejaVuSans-67"/>
     <use x="197.167969" xlink:href="#DejaVuSans-77"/>
     <use x="283.447266" xlink:href="#DejaVuSans-65"/>
     <use x="351.824219" xlink:href="#DejaVuSans-45"/>
     <use x="387.908203" xlink:href="#DejaVuSans-69"/>
     <use x="451.091797" xlink:href="#DejaVuSans-83"/>
    </g>
   </g>
   <g id="text_16">
    <!-- bbob f14, 20-D -->
    <defs>
     <path d="M 19.671875 64.796875 
L 19.671875 8.109375 
L 31.59375 8.109375 
Q 46.6875 8.109375 53.6875 14.9375 
Q 60.6875 21.78125 60.6875 36.53125 
Q 60.6875 51.171875 53.6875 57.984375 
Q 46.6875 64.796875 31.59375 64.796875 
z
M 9.8125 72.90625 
L 30.078125 72.90625 
Q 51.265625 72.90625 61.171875 64.09375 
Q 71.09375 55.28125 71.09375 36.53125 
Q 71.09375 17.671875 61.125 8.828125 
Q 51.171875 0 30.078125 0 
L 9.8125 0 
z
" id="DejaVuSans-68"/>
    </defs>
    <g transform="translate(60.41088 51.797126)scale(0.102 -0.102)">
     <use xlink:href="#DejaVuSans-98"/>
     <use x="63.476562" xlink:href="#DejaVuSans-98"/>
     <use x="126.953125" xlink:href="#DejaVuSans-111"/>
     <use x="188.134766" xlink:href="#DejaVuSans-98"/>
     <use x="251.611328" xlink:href="#DejaVuSans-32"/>
     <use x="283.398438" xlink:href="#DejaVuSans-102"/>
     <use x="318.603516" xlink:href="#DejaVuSans-49"/>
     <use x="382.226562" xlink:href="#DejaVuSans-52"/>
     <use x="445.849609" xlink:href="#DejaVuSans-44"/>
     <use x="477.636719" xlink:href="#DejaVuSans-32"/>
     <use x="509.423828" xlink:href="#DejaVuSans-50"/>
     <use x="573.046875" xlink:href="#DejaVuSans-48"/>
     <use x="636.669922" xlink:href="#DejaVuSans-45"/>
     <use x="672.753906" xlink:href="#DejaVuSans-68"/>
    </g>
    <!-- 51 targets: 100..1e-08 -->
    <defs>
     <path d="M 10.796875 72.90625 
L 49.515625 72.90625 
L 49.515625 64.59375 
L 19.828125 64.59375 
L 19.828125 46.734375 
Q 21.96875 47.46875 24.109375 47.828125 
Q 26.265625 48.1875 28.421875 48.1875 
Q 40.625 48.1875 47.75 41.5 
Q 54.890625 34.8125 54.890625 23.390625 
Q 54.890625 11.625 47.5625 5.09375 
Q 40.234375 -1.421875 26.90625 -1.421875 
Q 22.3125 -1.421875 17.546875 -0.640625 
Q 12.796875 0.140625 7.71875 1.703125 
L 7.71875 11.625 
Q 12.109375 9.234375 16.796875 8.0625 
Q 21.484375 6.890625 26.703125 6.890625 
Q 35.15625 6.890625 40.078125 11.328125 
Q 45.015625 15.765625 45.015625 23.390625 
Q 45.015625 31 40.078125 35.4375 
Q 35.15625 39.890625 26.703125 39.890625 
Q 22.75 39.890625 18.8125 39.015625 
Q 14.890625 38.140625 10.796875 36.28125 
z
" id="DejaVuSans-53"/>
     <path d="M 11.71875 12.40625 
L 22.015625 12.40625 
L 22.015625 0 
L 11.71875 0 
z
M 11.71875 51.703125 
L 22.015625 51.703125 
L 22.015625 39.3125 
L 11.71875 39.3125 
z
" id="DejaVuSans-58"/>
    </defs>
    <g transform="translate(60.41088 63.218895)scale(0.102 -0.102)">
     <use xlink:href="#DejaVuSans-53"/>
     <use x="63.623047" xlink:href="#DejaVuSans-49"/>
     <use x="127.246094" xlink:href="#DejaVuSans-32"/>
     <use x="159.033203" xlink:href="#DejaVuSans-116"/>
     <use x="198.242188" xlink:href="#DejaVuSans-97"/>
     <use x="259.521484" xlink:href="#DejaVuSans-114"/>
     <use x="300.619141" xlink:href="#DejaVuSans-103"/>
     <use x="364.095703" xlink:href="#DejaVuSans-101"/>
     <use x="425.619141" xlink:href="#DejaVuSans-116"/>
     <use x="464.828125" xlink:href="#DejaVuSans-115"/>
     <use x="516.927734" xlink:href="#DejaVuSans-58"/>
     <use x="550.619141" xlink:href="#DejaVuSans-32"/>
     <use x="582.40625" xlink:href="#DejaVuSans-49"/>
     <use x="646.029297" xlink:href="#DejaVuSans-48"/>
     <use x="709.652344" xlink:href="#DejaVuSans-48"/>
     <use x="773.275391" xlink:href="#DejaVuSans-46"/>
     <use x="805.0625" xlink:href="#DejaVuSans-46"/>
     <use x="836.849609" xlink:href="#DejaVuSans-49"/>
     <use x="900.472656" xlink:href="#DejaVuSans-101"/>
     <use x="961.996094" xlink:href="#DejaVuSans-45"/>
     <use x="998.080078" xlink:href="#DejaVuSans-48"/>
     <use x="1061.703125" xlink:href="#DejaVuSans-56"/>
    </g>
    <!-- 15 instances -->
    <g transform="translate(60.41088 74.640664)scale(0.102 -0.102)">
     <use xlink:href="#DejaVuSans-49"/>
     <use x="63.623047" xlink:href="#DejaVuSans-53"/>
     <use x="127.246094" xlink:href="#DejaVuSans-32"/>
     <use x="159.033203" xlink:href="#DejaVuSans-105"/>
     <use x="186.816406" xlink:href="#DejaVuSans-110"/>
     <use x="250.195312" xlink:href="#DejaVuSans-115"/>
     <use x="302.294922" xlink:href="#DejaVuSans-116"/>
     <use x="341.503906" xlink:href="#DejaVuSans-97"/>
     <use x="402.783203" xlink:href="#DejaVuSans-110"/>
     <use x="466.162109" xlink:href="#DejaVuSans-99"/>
     <use x="521.142578" xlink:href="#DejaVuSans-101"/>
     <use x="582.666016" xlink:href="#DejaVuSans-115"/>
    </g>
   </g>
   <g id="text_17">
    <!-- v2.3.1.30 -->
    <defs>
     <path d="M 40.578125 39.3125 
Q 47.65625 37.796875 51.625 33 
Q 55.609375 28.21875 55.609375 21.1875 
Q 55.609375 10.40625 48.1875 4.484375 
Q 40.765625 -1.421875 27.09375 -1.421875 
Q 22.515625 -1.421875 17.65625 -0.515625 
Q 12.796875 0.390625 7.625 2.203125 
L 7.625 11.71875 
Q 11.71875 9.328125 16.59375 8.109375 
Q 21.484375 6.890625 26.8125 6.890625 
Q 36.078125 6.890625 40.9375 10.546875 
Q 45.796875 14.203125 45.796875 21.1875 
Q 45.796875 27.640625 41.28125 31.265625 
Q 36.765625 34.90625 28.71875 34.90625 
L 20.21875 34.90625 
L 20.21875 43.015625 
L 29.109375 43.015625 
Q 36.375 43.015625 40.234375 45.921875 
Q 44.09375 48.828125 44.09375 54.296875 
Q 44.09375 59.90625 40.109375 62.90625 
Q 36.140625 65.921875 28.71875 65.921875 
Q 24.65625 65.921875 20.015625 65.03125 
Q 15.375 64.15625 9.8125 62.3125 
L 9.8125 71.09375 
Q 15.4375 72.65625 20.34375 73.4375 
Q 25.25 74.21875 29.59375 74.21875 
Q 40.828125 74.21875 47.359375 69.109375 
Q 53.90625 64.015625 53.90625 55.328125 
Q 53.90625 49.265625 50.4375 45.09375 
Q 46.96875 40.921875 40.578125 39.3125 
z
" id="DejaVuSans-51"/>
    </defs>
    <g style="fill:#808080;" transform="translate(174.511187 294.289592)scale(0.1 -0.1)">
     <use xlink:href="#DejaVuSans-118"/>
     <use x="59.179688" xlink:href="#DejaVuSans-50"/>
     <use x="122.802734" xlink:href="#DejaVuSans-46"/>
     <use x="154.589844" xlink:href="#DejaVuSans-51"/>
     <use x="218.212891" xlink:href="#DejaVuSans-46"/>
     <use x="250" xlink:href="#DejaVuSans-49"/>
     <use x="313.623047" xlink:href="#DejaVuSans-46"/>
     <use x="345.410156" xlink:href="#DejaVuSans-51"/>
     <use x="409.033203" xlink:href="#DejaVuSans-48"/>
    </g>
   </g>
   <g id="text_18">
    <!-- 14 Sum of different powers -->
    <defs>
     <path d="M 4.203125 54.6875 
L 13.1875 54.6875 
L 24.421875 12.015625 
L 35.59375 54.6875 
L 46.1875 54.6875 
L 57.421875 12.015625 
L 68.609375 54.6875 
L 77.59375 54.6875 
L 63.28125 0 
L 52.6875 0 
L 40.921875 44.828125 
L 29.109375 0 
L 18.5 0 
z
" id="DejaVuSans-119"/>
    </defs>
    <g transform="translate(61.683062 35.472)scale(0.2 -0.2)">
     <use xlink:href="#DejaVuSans-49"/>
     <use x="63.623047" xlink:href="#DejaVuSans-52"/>
     <use x="127.246094" xlink:href="#DejaVuSans-32"/>
     <use x="159.033203" xlink:href="#DejaVuSans-83"/>
     <use x="222.509766" xlink:href="#DejaVuSans-117"/>
     <use x="285.888672" xlink:href="#DejaVuSans-109"/>
     <use x="383.300781" xlink:href="#DejaVuSans-32"/>
     <use x="415.087891" xlink:href="#DejaVuSans-111"/>
     <use x="476.269531" xlink:href="#DejaVuSans-102"/>
     <use x="511.474609" xlink:href="#DejaVuSans-32"/>
     <use x="543.261719" xlink:href="#DejaVuSans-100"/>
     <use x="606.738281" xlink:href="#DejaVuSans-105"/>
     <use x="634.521484" xlink:href="#DejaVuSans-102"/>
     <use x="669.726562" xlink:href="#DejaVuSans-102"/>
     <use x="704.931641" xlink:href="#DejaVuSans-101"/>
     <use x="766.455078" xlink:href="#DejaVuSans-114"/>
     <use x="807.537109" xlink:href="#DejaVuSans-101"/>
     <use x="869.060547" xlink:href="#DejaVuSans-110"/>
     <use x="932.439453" xlink:href="#DejaVuSans-116"/>
     <use x="971.648438" xlink:href="#DejaVuSans-32"/>
     <use x="1003.435547" xlink:href="#DejaVuSans-112"/>
     <use x="1066.912109" xlink:href="#DejaVuSans-111"/>
     <use x="1128.09375" xlink:href="#DejaVuSans-119"/>
     <use x="1209.880859" xlink:href="#DejaVuSans-101"/>
     <use x="1271.404297" xlink:href="#DejaVuSans-114"/>
     <use x="1312.517578" xlink:href="#DejaVuSans-115"/>
    </g>
   </g>
  </g>
 </g>
 <defs>
  <clipPath id="pa369e79dba">
   <rect height="257.472" width="281.088" x="57.6" y="41.472"/>
  </clipPath>
 </defs>
</svg>
