<?xml version="1.0" encoding="utf-8" standalone="no"?>
<!DOCTYPE svg PUBLIC "-//W3C//DTD SVG 1.1//EN"
  "http://www.w3.org/Graphics/SVG/1.1/DTD/svg11.dtd">
<!-- Created with matplotlib (https://matplotlib.org/) -->
<svg height="345.6pt" version="1.1" viewBox="0 0 460.8 345.6" width="460.8pt" xmlns="http://www.w3.org/2000/svg" xmlns:xlink="http://www.w3.org/1999/xlink">
 <defs>
  <style type="text/css">
*{stroke-linecap:butt;stroke-linejoin:round;}
  </style>
 </defs>
 <g id="figure_1">
  <g id="patch_1">
   <path d="M 0 345.6 
L 460.8 345.6 
L 460.8 0 
L 0 0 
z
" style="fill:#ffffff;"/>
  </g>
  <g id="axes_1">
   <g id="patch_2">
    <path d="M 57.6 298.944 
L 338.688 298.944 
L 338.688 41.472 
L 57.6 41.472 
z
" style="fill:#ffffff;"/>
   </g>
   <g id="line2d_1">
    <path d="M 38.440992 298.944 
L 38.440992 293.945514 
L 50.52898 293.945514 
L 50.52898 288.947029 
L 66.508432 288.947029 
L 66.508432 283.948543 
L 83.171864 283.948543 
L 83.171864 278.950057 
L 95.259853 278.950057 
L 95.259853 273.951571 
L 102.772397 273.951571 
L 102.772397 268.953086 
L 108.640231 268.953086 
L 108.640231 263.9546 
L 112.026172 263.9546 
L 112.026172 258.956114 
L 116.121606 258.956114 
L 116.121606 253.957628 
L 121.638301 253.957628 
L 121.638301 248.959143 
L 125.23165 248.959143 
L 125.23165 243.960657 
L 129.385722 243.960657 
L 129.385722 238.962171 
L 146.819289 238.962171 
L 146.819289 233.963685 
L 153.537988 233.963685 
L 153.537988 228.9652 
L 155.720743 228.9652 
L 155.720743 223.966714 
L 163.33453 223.966714 
L 163.33453 218.968228 
L 164.076176 218.968228 
L 164.076176 213.969743 
L 167.59811 213.969743 
L 167.59811 208.971257 
L 168.77585 208.971257 
L 168.77585 203.972771 
L 176.912855 203.972771 
L 176.912855 198.974285 
L 178.547874 198.974285 
L 178.547874 193.9758 
L 179.521099 193.9758 
L 179.521099 188.977314 
L 179.901953 188.977314 
L 179.901953 183.978828 
L 180.140994 183.978828 
L 180.140994 178.980342 
L 180.407326 178.980342 
L 180.407326 173.981857 
L 180.868789 173.981857 
L 180.868789 168.983371 
L 181.657549 168.983371 
L 181.657549 163.984885 
L 181.775431 163.984885 
L 181.775431 158.9864 
L 182.031998 158.9864 
L 182.031998 153.987914 
L 182.384967 153.987914 
L 182.384967 148.989428 
L 182.832957 148.989428 
L 182.832957 143.990942 
L 183.243826 143.990942 
L 183.243826 138.992457 
L 183.338605 138.992457 
L 183.338605 133.993971 
L 183.725263 133.993971 
L 183.725263 128.995485 
L 184.733501 128.995485 
L 184.733501 123.996999 
L 186.036086 123.996999 
L 186.036086 118.998514 
L 187.316641 118.998514 
L 187.316641 114.000028 
L 187.469872 114.000028 
L 187.469872 109.001542 
L 187.631848 109.001542 
L 187.631848 104.003056 
L 187.732324 104.003056 
L 187.732324 99.004571 
L 187.762355 99.004571 
L 187.762355 94.006085 
L 187.974425 94.006085 
L 187.974425 89.007599 
L 188.278065 89.007599 
L 188.278065 84.009114 
L 188.416691 84.009114 
L 188.416691 79.010628 
L 188.573327 79.010628 
L 188.573327 74.012142 
L 188.72226 74.012142 
L 188.72226 69.013656 
L 188.841751 69.013656 
L 188.841751 64.015171 
L 188.926157 64.015171 
L 188.926157 59.016685 
L 189.062839 59.016685 
L 189.062839 54.018199 
L 189.161575 54.018199 
L 189.161575 49.019713 
L 189.247514 49.019713 
L 189.247514 44.021228 
L 338.688 44.021228 
" style="fill:none;stroke:#f5deb3;stroke-linecap:square;stroke-width:4;"/>
   </g>
   <g id="line2d_2">
    <defs>
     <path d="M -0 7.778175 
L 7.778175 0 
L 0 -7.778175 
L -7.778175 -0 
z
" id="md769d8428b" style="stroke:#f5deb3;stroke-linejoin:miter;stroke-width:1.5;"/>
    </defs>
    <g>
     <use style="fill:#f5deb3;stroke:#f5deb3;stroke-linejoin:miter;stroke-width:1.5;" x="112.026172" xlink:href="#md769d8428b" y="258.956114"/>
     <use style="fill:#f5deb3;stroke:#f5deb3;stroke-linejoin:miter;stroke-width:1.5;" x="179.521099" xlink:href="#md769d8428b" y="193.9758"/>
     <use style="fill:#f5deb3;stroke:#f5deb3;stroke-linejoin:miter;stroke-width:1.5;" x="188.278065" xlink:href="#md769d8428b" y="84.009114"/>
     <use style="fill:#f5deb3;stroke:#f5deb3;stroke-linejoin:miter;stroke-width:1.5;" x="189.247514" xlink:href="#md769d8428b" y="44.021228"/>
     <use style="fill:#f5deb3;stroke:#f5deb3;stroke-linejoin:miter;stroke-width:1.5;" x="189.247514" xlink:href="#md769d8428b" y="44.021228"/>
     <use style="fill:#f5deb3;stroke:#f5deb3;stroke-linejoin:miter;stroke-width:1.5;" x="338.688" xlink:href="#md769d8428b" y="44.021228"/>
    </g>
   </g>
   <g id="line2d_3">
    <path style="fill:none;stroke:#f5deb3;stroke-linecap:square;stroke-width:4;"/>
    <g/>
   </g>
   <g id="line2d_4">
    <path d="M 338.688 44.021228 
L 369.60768 49.119683 
" style="fill:none;stroke:#f5deb3;stroke-linecap:square;stroke-width:4;"/>
    <g>
     <use style="fill:#f5deb3;stroke:#f5deb3;stroke-linejoin:miter;stroke-width:1.5;" x="338.688" xlink:href="#md769d8428b" y="44.021228"/>
     <use style="fill:#f5deb3;stroke:#f5deb3;stroke-linejoin:miter;stroke-width:1.5;" x="369.60768" xlink:href="#md769d8428b" y="49.119683"/>
    </g>
   </g>
   <g id="matplotlib.axis_1">
    <g id="xtick_1">
     <g id="line2d_5">
      <path clip-path="url(#p4583a3e4f2)" d="M 57.6 298.944 
L 57.6 41.472 
" style="fill:none;stroke:#b0b0b0;stroke-linecap:square;stroke-width:0.8;"/>
     </g>
     <g id="line2d_6">
      <defs>
       <path d="M 0 0 
L 0 3.5 
" id="meea402f3d8" style="stroke:#000000;stroke-width:0.8;"/>
      </defs>
      <g>
       <use style="stroke:#000000;stroke-width:0.8;" x="57.6" xlink:href="#meea402f3d8" y="298.944"/>
      </g>
     </g>
     <g id="text_1">
      <!-- 0 -->
      <defs>
       <path d="M 31.78125 66.40625 
Q 24.171875 66.40625 20.328125 58.90625 
Q 16.5 51.421875 16.5 36.375 
Q 16.5 21.390625 20.328125 13.890625 
Q 24.171875 6.390625 31.78125 6.390625 
Q 39.453125 6.390625 43.28125 13.890625 
Q 47.125 21.390625 47.125 36.375 
Q 47.125 51.421875 43.28125 58.90625 
Q 39.453125 66.40625 31.78125 66.40625 
z
M 31.78125 74.21875 
Q 44.046875 74.21875 50.515625 64.515625 
Q 56.984375 54.828125 56.984375 36.375 
Q 56.984375 17.96875 50.515625 8.265625 
Q 44.046875 -1.421875 31.78125 -1.421875 
Q 19.53125 -1.421875 13.0625 8.265625 
Q 6.59375 17.96875 6.59375 36.375 
Q 6.59375 54.828125 13.0625 64.515625 
Q 19.53125 74.21875 31.78125 74.21875 
z
" id="DejaVuSans-48"/>
      </defs>
      <g transform="translate(51.2375 321.140875)scale(0.2 -0.2)">
       <use xlink:href="#DejaVuSans-48"/>
      </g>
     </g>
    </g>
    <g id="xtick_2">
     <g id="line2d_7">
      <path clip-path="url(#p4583a3e4f2)" d="M 137.910857 298.944 
L 137.910857 41.472 
" style="fill:none;stroke:#b0b0b0;stroke-linecap:square;stroke-width:0.8;"/>
     </g>
     <g id="line2d_8">
      <g>
       <use style="stroke:#000000;stroke-width:0.8;" x="137.910857" xlink:href="#meea402f3d8" y="298.944"/>
      </g>
     </g>
     <g id="text_2">
      <!-- 2 -->
      <defs>
       <path d="M 19.1875 8.296875 
L 53.609375 8.296875 
L 53.609375 0 
L 7.328125 0 
L 7.328125 8.296875 
Q 12.9375 14.109375 22.625 23.890625 
Q 32.328125 33.6875 34.8125 36.53125 
Q 39.546875 41.84375 41.421875 45.53125 
Q 43.3125 49.21875 43.3125 52.78125 
Q 43.3125 58.59375 39.234375 62.25 
Q 35.15625 65.921875 28.609375 65.921875 
Q 23.96875 65.921875 18.8125 64.3125 
Q 13.671875 62.703125 7.8125 59.421875 
L 7.8125 69.390625 
Q 13.765625 71.78125 18.9375 73 
Q 24.125 74.21875 28.421875 74.21875 
Q 39.75 74.21875 46.484375 68.546875 
Q 53.21875 62.890625 53.21875 53.421875 
Q 53.21875 48.921875 51.53125 44.890625 
Q 49.859375 40.875 45.40625 35.40625 
Q 44.1875 33.984375 37.640625 27.21875 
Q 31.109375 20.453125 19.1875 8.296875 
z
" id="DejaVuSans-50"/>
      </defs>
      <g transform="translate(131.548357 321.140875)scale(0.2 -0.2)">
       <use xlink:href="#DejaVuSans-50"/>
      </g>
     </g>
    </g>
    <g id="xtick_3">
     <g id="line2d_9">
      <path clip-path="url(#p4583a3e4f2)" d="M 218.221714 298.944 
L 218.221714 41.472 
" style="fill:none;stroke:#b0b0b0;stroke-linecap:square;stroke-width:0.8;"/>
     </g>
     <g id="line2d_10">
      <g>
       <use style="stroke:#000000;stroke-width:0.8;" x="218.221714" xlink:href="#meea402f3d8" y="298.944"/>
      </g>
     </g>
     <g id="text_3">
      <!-- 4 -->
      <defs>
       <path d="M 37.796875 64.3125 
L 12.890625 25.390625 
L 37.796875 25.390625 
z
M 35.203125 72.90625 
L 47.609375 72.90625 
L 47.609375 25.390625 
L 58.015625 25.390625 
L 58.015625 17.1875 
L 47.609375 17.1875 
L 47.609375 0 
L 37.796875 0 
L 37.796875 17.1875 
L 4.890625 17.1875 
L 4.890625 26.703125 
z
" id="DejaVuSans-52"/>
      </defs>
      <g transform="translate(211.859214 321.140875)scale(0.2 -0.2)">
       <use xlink:href="#DejaVuSans-52"/>
      </g>
     </g>
    </g>
    <g id="xtick_4">
     <g id="line2d_11">
      <path clip-path="url(#p4583a3e4f2)" d="M 298.532571 298.944 
L 298.532571 41.472 
" style="fill:none;stroke:#b0b0b0;stroke-linecap:square;stroke-width:0.8;"/>
     </g>
     <g id="line2d_12">
      <g>
       <use style="stroke:#000000;stroke-width:0.8;" x="298.532571" xlink:href="#meea402f3d8" y="298.944"/>
      </g>
     </g>
     <g id="text_4">
      <!-- 6 -->
      <defs>
       <path d="M 33.015625 40.375 
Q 26.375 40.375 22.484375 35.828125 
Q 18.609375 31.296875 18.609375 23.390625 
Q 18.609375 15.53125 22.484375 10.953125 
Q 26.375 6.390625 33.015625 6.390625 
Q 39.65625 6.390625 43.53125 10.953125 
Q 47.40625 15.53125 47.40625 23.390625 
Q 47.40625 31.296875 43.53125 35.828125 
Q 39.65625 40.375 33.015625 40.375 
z
M 52.59375 71.296875 
L 52.59375 62.3125 
Q 48.875 64.0625 45.09375 64.984375 
Q 41.3125 65.921875 37.59375 65.921875 
Q 27.828125 65.921875 22.671875 59.328125 
Q 17.53125 52.734375 16.796875 39.40625 
Q 19.671875 43.65625 24.015625 45.921875 
Q 28.375 48.1875 33.59375 48.1875 
Q 44.578125 48.1875 50.953125 41.515625 
Q 57.328125 34.859375 57.328125 23.390625 
Q 57.328125 12.15625 50.6875 5.359375 
Q 44.046875 -1.421875 33.015625 -1.421875 
Q 20.359375 -1.421875 13.671875 8.265625 
Q 6.984375 17.96875 6.984375 36.375 
Q 6.984375 53.65625 15.1875 63.9375 
Q 23.390625 74.21875 37.203125 74.21875 
Q 40.921875 74.21875 44.703125 73.484375 
Q 48.484375 72.75 52.59375 71.296875 
z
" id="DejaVuSans-54"/>
      </defs>
      <g transform="translate(292.170071 321.140875)scale(0.2 -0.2)">
       <use xlink:href="#DejaVuSans-54"/>
      </g>
     </g>
    </g>
    <g id="xtick_5">
     <g id="line2d_13">
      <path clip-path="url(#p4583a3e4f2)" d="M 57.6 298.944 
L 57.6 41.472 
" style="fill:none;stroke:#b0b0b0;stroke-linecap:square;stroke-width:0.8;"/>
     </g>
     <g id="line2d_14">
      <defs>
       <path d="M 0 0 
L 0 2 
" id="m58e15a8bc0" style="stroke:#000000;stroke-width:0.6;"/>
      </defs>
      <g>
       <use style="stroke:#000000;stroke-width:0.6;" x="57.6" xlink:href="#m58e15a8bc0" y="298.944"/>
      </g>
     </g>
    </g>
    <g id="xtick_6">
     <g id="line2d_15">
      <path clip-path="url(#p4583a3e4f2)" d="M 97.755429 298.944 
L 97.755429 41.472 
" style="fill:none;stroke:#b0b0b0;stroke-linecap:square;stroke-width:0.8;"/>
     </g>
     <g id="line2d_16">
      <g>
       <use style="stroke:#000000;stroke-width:0.6;" x="97.755429" xlink:href="#m58e15a8bc0" y="298.944"/>
      </g>
     </g>
    </g>
    <g id="xtick_7">
     <g id="line2d_17">
      <path clip-path="url(#p4583a3e4f2)" d="M 137.910857 298.944 
L 137.910857 41.472 
" style="fill:none;stroke:#b0b0b0;stroke-linecap:square;stroke-width:0.8;"/>
     </g>
     <g id="line2d_18">
      <g>
       <use style="stroke:#000000;stroke-width:0.6;" x="137.910857" xlink:href="#m58e15a8bc0" y="298.944"/>
      </g>
     </g>
    </g>
    <g id="xtick_8">
     <g id="line2d_19">
      <path clip-path="url(#p4583a3e4f2)" d="M 178.066286 298.944 
L 178.066286 41.472 
" style="fill:none;stroke:#b0b0b0;stroke-linecap:square;stroke-width:0.8;"/>
     </g>
     <g id="line2d_20">
      <g>
       <use style="stroke:#000000;stroke-width:0.6;" x="178.066286" xlink:href="#m58e15a8bc0" y="298.944"/>
      </g>
     </g>
    </g>
    <g id="xtick_9">
     <g id="line2d_21">
      <path clip-path="url(#p4583a3e4f2)" d="M 218.221714 298.944 
L 218.221714 41.472 
" style="fill:none;stroke:#b0b0b0;stroke-linecap:square;stroke-width:0.8;"/>
     </g>
     <g id="line2d_22">
      <g>
       <use style="stroke:#000000;stroke-width:0.6;" x="218.221714" xlink:href="#m58e15a8bc0" y="298.944"/>
      </g>
     </g>
    </g>
    <g id="xtick_10">
     <g id="line2d_23">
      <path clip-path="url(#p4583a3e4f2)" d="M 258.377143 298.944 
L 258.377143 41.472 
" style="fill:none;stroke:#b0b0b0;stroke-linecap:square;stroke-width:0.8;"/>
     </g>
     <g id="line2d_24">
      <g>
       <use style="stroke:#000000;stroke-width:0.6;" x="258.377143" xlink:href="#m58e15a8bc0" y="298.944"/>
      </g>
     </g>
    </g>
    <g id="xtick_11">
     <g id="line2d_25">
      <path clip-path="url(#p4583a3e4f2)" d="M 298.532571 298.944 
L 298.532571 41.472 
" style="fill:none;stroke:#b0b0b0;stroke-linecap:square;stroke-width:0.8;"/>
     </g>
     <g id="line2d_26">
      <g>
       <use style="stroke:#000000;stroke-width:0.6;" x="298.532571" xlink:href="#m58e15a8bc0" y="298.944"/>
      </g>
     </g>
    </g>
    <g id="xtick_12">
     <g id="line2d_27">
      <path clip-path="url(#p4583a3e4f2)" d="M 338.688 298.944 
L 338.688 41.472 
" style="fill:none;stroke:#b0b0b0;stroke-linecap:square;stroke-width:0.8;"/>
     </g>
     <g id="line2d_28">
      <g>
       <use style="stroke:#000000;stroke-width:0.6;" x="338.688" xlink:href="#m58e15a8bc0" y="298.944"/>
      </g>
     </g>
    </g>
    <g id="text_5">
     <!-- log10(# f-evals / dimension) -->
     <defs>
      <path d="M 9.421875 75.984375 
L 18.40625 75.984375 
L 18.40625 0 
L 9.421875 0 
z
" id="DejaVuSans-108"/>
      <path d="M 30.609375 48.390625 
Q 23.390625 48.390625 19.1875 42.75 
Q 14.984375 37.109375 14.984375 27.296875 
Q 14.984375 17.484375 19.15625 11.84375 
Q 23.34375 6.203125 30.609375 6.203125 
Q 37.796875 6.203125 41.984375 11.859375 
Q 46.1875 17.53125 46.1875 27.296875 
Q 46.1875 37.015625 41.984375 42.703125 
Q 37.796875 48.390625 30.609375 48.390625 
z
M 30.609375 56 
Q 42.328125 56 49.015625 48.375 
Q 55.71875 40.765625 55.71875 27.296875 
Q 55.71875 13.875 49.015625 6.21875 
Q 42.328125 -1.421875 30.609375 -1.421875 
Q 18.84375 -1.421875 12.171875 6.21875 
Q 5.515625 13.875 5.515625 27.296875 
Q 5.515625 40.765625 12.171875 48.375 
Q 18.84375 56 30.609375 56 
z
" id="DejaVuSans-111"/>
      <path d="M 45.40625 27.984375 
Q 45.40625 37.75 41.375 43.109375 
Q 37.359375 48.484375 30.078125 48.484375 
Q 22.859375 48.484375 18.828125 43.109375 
Q 14.796875 37.75 14.796875 27.984375 
Q 14.796875 18.265625 18.828125 12.890625 
Q 22.859375 7.515625 30.078125 7.515625 
Q 37.359375 7.515625 41.375 12.890625 
Q 45.40625 18.265625 45.40625 27.984375 
z
M 54.390625 6.78125 
Q 54.390625 -7.171875 48.1875 -13.984375 
Q 42 -20.796875 29.203125 -20.796875 
Q 24.46875 -20.796875 20.265625 -20.09375 
Q 16.0625 -19.390625 12.109375 -17.921875 
L 12.109375 -9.1875 
Q 16.0625 -11.328125 19.921875 -12.34375 
Q 23.78125 -13.375 27.78125 -13.375 
Q 36.625 -13.375 41.015625 -8.765625 
Q 45.40625 -4.15625 45.40625 5.171875 
L 45.40625 9.625 
Q 42.625 4.78125 38.28125 2.390625 
Q 33.9375 0 27.875 0 
Q 17.828125 0 11.671875 7.65625 
Q 5.515625 15.328125 5.515625 27.984375 
Q 5.515625 40.671875 11.671875 48.328125 
Q 17.828125 56 27.875 56 
Q 33.9375 56 38.28125 53.609375 
Q 42.625 51.21875 45.40625 46.390625 
L 45.40625 54.6875 
L 54.390625 54.6875 
z
" id="DejaVuSans-103"/>
      <path d="M 12.40625 8.296875 
L 28.515625 8.296875 
L 28.515625 63.921875 
L 10.984375 60.40625 
L 10.984375 69.390625 
L 28.421875 72.90625 
L 38.28125 72.90625 
L 38.28125 8.296875 
L 54.390625 8.296875 
L 54.390625 0 
L 12.40625 0 
z
" id="DejaVuSans-49"/>
      <path d="M 31 75.875 
Q 24.46875 64.65625 21.28125 53.65625 
Q 18.109375 42.671875 18.109375 31.390625 
Q 18.109375 20.125 21.3125 9.0625 
Q 24.515625 -2 31 -13.1875 
L 23.1875 -13.1875 
Q 15.875 -1.703125 12.234375 9.375 
Q 8.59375 20.453125 8.59375 31.390625 
Q 8.59375 42.28125 12.203125 53.3125 
Q 15.828125 64.359375 23.1875 75.875 
z
" id="DejaVuSans-40"/>
      <path d="M 51.125 44 
L 36.921875 44 
L 32.8125 27.6875 
L 47.125 27.6875 
z
M 43.796875 71.78125 
L 38.71875 51.515625 
L 52.984375 51.515625 
L 58.109375 71.78125 
L 65.921875 71.78125 
L 60.890625 51.515625 
L 76.125 51.515625 
L 76.125 44 
L 58.984375 44 
L 54.984375 27.6875 
L 70.515625 27.6875 
L 70.515625 20.21875 
L 53.078125 20.21875 
L 48 0 
L 40.1875 0 
L 45.21875 20.21875 
L 30.90625 20.21875 
L 25.875 0 
L 18.015625 0 
L 23.09375 20.21875 
L 7.71875 20.21875 
L 7.71875 27.6875 
L 24.90625 27.6875 
L 29 44 
L 13.28125 44 
L 13.28125 51.515625 
L 30.90625 51.515625 
L 35.890625 71.78125 
z
" id="DejaVuSans-35"/>
      <path id="DejaVuSans-32"/>
      <path d="M 37.109375 75.984375 
L 37.109375 68.5 
L 28.515625 68.5 
Q 23.6875 68.5 21.796875 66.546875 
Q 19.921875 64.59375 19.921875 59.515625 
L 19.921875 54.6875 
L 34.71875 54.6875 
L 34.71875 47.703125 
L 19.921875 47.703125 
L 19.921875 0 
L 10.890625 0 
L 10.890625 47.703125 
L 2.296875 47.703125 
L 2.296875 54.6875 
L 10.890625 54.6875 
L 10.890625 58.5 
Q 10.890625 67.625 15.140625 71.796875 
Q 19.390625 75.984375 28.609375 75.984375 
z
" id="DejaVuSans-102"/>
      <path d="M 4.890625 31.390625 
L 31.203125 31.390625 
L 31.203125 23.390625 
L 4.890625 23.390625 
z
" id="DejaVuSans-45"/>
      <path d="M 56.203125 29.59375 
L 56.203125 25.203125 
L 14.890625 25.203125 
Q 15.484375 15.921875 20.484375 11.0625 
Q 25.484375 6.203125 34.421875 6.203125 
Q 39.59375 6.203125 44.453125 7.46875 
Q 49.3125 8.734375 54.109375 11.28125 
L 54.109375 2.78125 
Q 49.265625 0.734375 44.1875 -0.34375 
Q 39.109375 -1.421875 33.890625 -1.421875 
Q 20.796875 -1.421875 13.15625 6.1875 
Q 5.515625 13.8125 5.515625 26.8125 
Q 5.515625 40.234375 12.765625 48.109375 
Q 20.015625 56 32.328125 56 
Q 43.359375 56 49.78125 48.890625 
Q 56.203125 41.796875 56.203125 29.59375 
z
M 47.21875 32.234375 
Q 47.125 39.59375 43.09375 43.984375 
Q 39.0625 48.390625 32.421875 48.390625 
Q 24.90625 48.390625 20.390625 44.140625 
Q 15.875 39.890625 15.1875 32.171875 
z
" id="DejaVuSans-101"/>
      <path d="M 2.984375 54.6875 
L 12.5 54.6875 
L 29.59375 8.796875 
L 46.6875 54.6875 
L 56.203125 54.6875 
L 35.6875 0 
L 23.484375 0 
z
" id="DejaVuSans-118"/>
      <path d="M 34.28125 27.484375 
Q 23.390625 27.484375 19.1875 25 
Q 14.984375 22.515625 14.984375 16.5 
Q 14.984375 11.71875 18.140625 8.90625 
Q 21.296875 6.109375 26.703125 6.109375 
Q 34.1875 6.109375 38.703125 11.40625 
Q 43.21875 16.703125 43.21875 25.484375 
L 43.21875 27.484375 
z
M 52.203125 31.203125 
L 52.203125 0 
L 43.21875 0 
L 43.21875 8.296875 
Q 40.140625 3.328125 35.546875 0.953125 
Q 30.953125 -1.421875 24.3125 -1.421875 
Q 15.921875 -1.421875 10.953125 3.296875 
Q 6 8.015625 6 15.921875 
Q 6 25.140625 12.171875 29.828125 
Q 18.359375 34.515625 30.609375 34.515625 
L 43.21875 34.515625 
L 43.21875 35.40625 
Q 43.21875 41.609375 39.140625 45 
Q 35.0625 48.390625 27.6875 48.390625 
Q 23 48.390625 18.546875 47.265625 
Q 14.109375 46.140625 10.015625 43.890625 
L 10.015625 52.203125 
Q 14.9375 54.109375 19.578125 55.046875 
Q 24.21875 56 28.609375 56 
Q 40.484375 56 46.34375 49.84375 
Q 52.203125 43.703125 52.203125 31.203125 
z
" id="DejaVuSans-97"/>
      <path d="M 44.28125 53.078125 
L 44.28125 44.578125 
Q 40.484375 46.53125 36.375 47.5 
Q 32.28125 48.484375 27.875 48.484375 
Q 21.1875 48.484375 17.84375 46.4375 
Q 14.5 44.390625 14.5 40.28125 
Q 14.5 37.15625 16.890625 35.375 
Q 19.28125 33.59375 26.515625 31.984375 
L 29.59375 31.296875 
Q 39.15625 29.25 43.1875 25.515625 
Q 47.21875 21.78125 47.21875 15.09375 
Q 47.21875 7.46875 41.1875 3.015625 
Q 35.15625 -1.421875 24.609375 -1.421875 
Q 20.21875 -1.421875 15.453125 -0.5625 
Q 10.6875 0.296875 5.421875 2 
L 5.421875 11.28125 
Q 10.40625 8.6875 15.234375 7.390625 
Q 20.0625 6.109375 24.8125 6.109375 
Q 31.15625 6.109375 34.5625 8.28125 
Q 37.984375 10.453125 37.984375 14.40625 
Q 37.984375 18.0625 35.515625 20.015625 
Q 33.0625 21.96875 24.703125 23.78125 
L 21.578125 24.515625 
Q 13.234375 26.265625 9.515625 29.90625 
Q 5.8125 33.546875 5.8125 39.890625 
Q 5.8125 47.609375 11.28125 51.796875 
Q 16.75 56 26.8125 56 
Q 31.78125 56 36.171875 55.265625 
Q 40.578125 54.546875 44.28125 53.078125 
z
" id="DejaVuSans-115"/>
      <path d="M 25.390625 72.90625 
L 33.6875 72.90625 
L 8.296875 -9.28125 
L 0 -9.28125 
z
" id="DejaVuSans-47"/>
      <path d="M 45.40625 46.390625 
L 45.40625 75.984375 
L 54.390625 75.984375 
L 54.390625 0 
L 45.40625 0 
L 45.40625 8.203125 
Q 42.578125 3.328125 38.25 0.953125 
Q 33.9375 -1.421875 27.875 -1.421875 
Q 17.96875 -1.421875 11.734375 6.484375 
Q 5.515625 14.40625 5.515625 27.296875 
Q 5.515625 40.1875 11.734375 48.09375 
Q 17.96875 56 27.875 56 
Q 33.9375 56 38.25 53.625 
Q 42.578125 51.265625 45.40625 46.390625 
z
M 14.796875 27.296875 
Q 14.796875 17.390625 18.875 11.75 
Q 22.953125 6.109375 30.078125 6.109375 
Q 37.203125 6.109375 41.296875 11.75 
Q 45.40625 17.390625 45.40625 27.296875 
Q 45.40625 37.203125 41.296875 42.84375 
Q 37.203125 48.484375 30.078125 48.484375 
Q 22.953125 48.484375 18.875 42.84375 
Q 14.796875 37.203125 14.796875 27.296875 
z
" id="DejaVuSans-100"/>
      <path d="M 9.421875 54.6875 
L 18.40625 54.6875 
L 18.40625 0 
L 9.421875 0 
z
M 9.421875 75.984375 
L 18.40625 75.984375 
L 18.40625 64.59375 
L 9.421875 64.59375 
z
" id="DejaVuSans-105"/>
      <path d="M 52 44.1875 
Q 55.375 50.25 60.0625 53.125 
Q 64.75 56 71.09375 56 
Q 79.640625 56 84.28125 50.015625 
Q 88.921875 44.046875 88.921875 33.015625 
L 88.921875 0 
L 79.890625 0 
L 79.890625 32.71875 
Q 79.890625 40.578125 77.09375 44.375 
Q 74.3125 48.1875 68.609375 48.1875 
Q 61.625 48.1875 57.5625 43.546875 
Q 53.515625 38.921875 53.515625 30.90625 
L 53.515625 0 
L 44.484375 0 
L 44.484375 32.71875 
Q 44.484375 40.625 41.703125 44.40625 
Q 38.921875 48.1875 33.109375 48.1875 
Q 26.21875 48.1875 22.15625 43.53125 
Q 18.109375 38.875 18.109375 30.90625 
L 18.109375 0 
L 9.078125 0 
L 9.078125 54.6875 
L 18.109375 54.6875 
L 18.109375 46.1875 
Q 21.1875 51.21875 25.484375 53.609375 
Q 29.78125 56 35.6875 56 
Q 41.65625 56 45.828125 52.96875 
Q 50 49.953125 52 44.1875 
z
" id="DejaVuSans-109"/>
      <path d="M 54.890625 33.015625 
L 54.890625 0 
L 45.90625 0 
L 45.90625 32.71875 
Q 45.90625 40.484375 42.875 44.328125 
Q 39.84375 48.1875 33.796875 48.1875 
Q 26.515625 48.1875 22.3125 43.546875 
Q 18.109375 38.921875 18.109375 30.90625 
L 18.109375 0 
L 9.078125 0 
L 9.078125 54.6875 
L 18.109375 54.6875 
L 18.109375 46.1875 
Q 21.34375 51.125 25.703125 53.5625 
Q 30.078125 56 35.796875 56 
Q 45.21875 56 50.046875 50.171875 
Q 54.890625 44.34375 54.890625 33.015625 
z
" id="DejaVuSans-110"/>
      <path d="M 8.015625 75.875 
L 15.828125 75.875 
Q 23.140625 64.359375 26.78125 53.3125 
Q 30.421875 42.28125 30.421875 31.390625 
Q 30.421875 20.453125 26.78125 9.375 
Q 23.140625 -1.703125 15.828125 -13.1875 
L 8.015625 -13.1875 
Q 14.5 -2 17.703125 9.0625 
Q 20.90625 20.125 20.90625 31.390625 
Q 20.90625 42.671875 17.703125 53.65625 
Q 14.5 64.65625 8.015625 75.875 
z
" id="DejaVuSans-41"/>
     </defs>
     <g transform="translate(77.303219 342.217594)scale(0.17 -0.17)">
      <use xlink:href="#DejaVuSans-108"/>
      <use x="27.783203" xlink:href="#DejaVuSans-111"/>
      <use x="88.964844" xlink:href="#DejaVuSans-103"/>
      <use x="152.441406" xlink:href="#DejaVuSans-49"/>
      <use x="216.064453" xlink:href="#DejaVuSans-48"/>
      <use x="279.6875" xlink:href="#DejaVuSans-40"/>
      <use x="318.701172" xlink:href="#DejaVuSans-35"/>
      <use x="402.490234" xlink:href="#DejaVuSans-32"/>
      <use x="434.277344" xlink:href="#DejaVuSans-102"/>
      <use x="469.404297" xlink:href="#DejaVuSans-45"/>
      <use x="505.488281" xlink:href="#DejaVuSans-101"/>
      <use x="567.011719" xlink:href="#DejaVuSans-118"/>
      <use x="626.191406" xlink:href="#DejaVuSans-97"/>
      <use x="687.470703" xlink:href="#DejaVuSans-108"/>
      <use x="715.253906" xlink:href="#DejaVuSans-115"/>
      <use x="767.353516" xlink:href="#DejaVuSans-32"/>
      <use x="799.140625" xlink:href="#DejaVuSans-47"/>
      <use x="832.832031" xlink:href="#DejaVuSans-32"/>
      <use x="864.619141" xlink:href="#DejaVuSans-100"/>
      <use x="928.095703" xlink:href="#DejaVuSans-105"/>
      <use x="955.878906" xlink:href="#DejaVuSans-109"/>
      <use x="1053.291016" xlink:href="#DejaVuSans-101"/>
      <use x="1114.814453" xlink:href="#DejaVuSans-110"/>
      <use x="1178.193359" xlink:href="#DejaVuSans-115"/>
      <use x="1230.292969" xlink:href="#DejaVuSans-105"/>
      <use x="1258.076172" xlink:href="#DejaVuSans-111"/>
      <use x="1319.257812" xlink:href="#DejaVuSans-110"/>
      <use x="1382.636719" xlink:href="#DejaVuSans-41"/>
     </g>
    </g>
   </g>
   <g id="matplotlib.axis_2">
    <g id="ytick_1">
     <g id="line2d_29">
      <path clip-path="url(#p4583a3e4f2)" d="M 57.6 298.944 
L 338.688 298.944 
" style="fill:none;stroke:#b0b0b0;stroke-linecap:square;stroke-width:0.8;"/>
     </g>
     <g id="line2d_30">
      <defs>
       <path d="M 0 0 
L -3.5 0 
" id="m07b72d199f" style="stroke:#000000;stroke-width:0.8;"/>
      </defs>
      <g>
       <use style="stroke:#000000;stroke-width:0.8;" x="57.6" xlink:href="#m07b72d199f" y="298.944"/>
      </g>
     </g>
     <g id="text_6">
      <!-- 0.0 -->
      <defs>
       <path d="M 10.6875 12.40625 
L 21 12.40625 
L 21 0 
L 10.6875 0 
z
" id="DejaVuSans-46"/>
      </defs>
      <g transform="translate(25.155 305.02275)scale(0.16 -0.16)">
       <use xlink:href="#DejaVuSans-48"/>
       <use x="63.623047" xlink:href="#DejaVuSans-46"/>
       <use x="95.410156" xlink:href="#DejaVuSans-48"/>
      </g>
     </g>
    </g>
    <g id="ytick_2">
     <g id="line2d_31">
      <path clip-path="url(#p4583a3e4f2)" d="M 57.6 247.959446 
L 338.688 247.959446 
" style="fill:none;stroke:#b0b0b0;stroke-linecap:square;stroke-width:0.8;"/>
     </g>
     <g id="line2d_32">
      <g>
       <use style="stroke:#000000;stroke-width:0.8;" x="57.6" xlink:href="#m07b72d199f" y="247.959446"/>
      </g>
     </g>
     <g id="text_7">
      <!-- 0.2 -->
      <g transform="translate(25.155 254.038196)scale(0.16 -0.16)">
       <use xlink:href="#DejaVuSans-48"/>
       <use x="63.623047" xlink:href="#DejaVuSans-46"/>
       <use x="95.410156" xlink:href="#DejaVuSans-50"/>
      </g>
     </g>
    </g>
    <g id="ytick_3">
     <g id="line2d_33">
      <path clip-path="url(#p4583a3e4f2)" d="M 57.6 196.974891 
L 338.688 196.974891 
" style="fill:none;stroke:#b0b0b0;stroke-linecap:square;stroke-width:0.8;"/>
     </g>
     <g id="line2d_34">
      <g>
       <use style="stroke:#000000;stroke-width:0.8;" x="57.6" xlink:href="#m07b72d199f" y="196.974891"/>
      </g>
     </g>
     <g id="text_8">
      <!-- 0.4 -->
      <g transform="translate(25.155 203.053641)scale(0.16 -0.16)">
       <use xlink:href="#DejaVuSans-48"/>
       <use x="63.623047" xlink:href="#DejaVuSans-46"/>
       <use x="95.410156" xlink:href="#DejaVuSans-52"/>
      </g>
     </g>
    </g>
    <g id="ytick_4">
     <g id="line2d_35">
      <path clip-path="url(#p4583a3e4f2)" d="M 57.6 145.990337 
L 338.688 145.990337 
" style="fill:none;stroke:#b0b0b0;stroke-linecap:square;stroke-width:0.8;"/>
     </g>
     <g id="line2d_36">
      <g>
       <use style="stroke:#000000;stroke-width:0.8;" x="57.6" xlink:href="#m07b72d199f" y="145.990337"/>
      </g>
     </g>
     <g id="text_9">
      <!-- 0.6 -->
      <g transform="translate(25.155 152.069087)scale(0.16 -0.16)">
       <use xlink:href="#DejaVuSans-48"/>
       <use x="63.623047" xlink:href="#DejaVuSans-46"/>
       <use x="95.410156" xlink:href="#DejaVuSans-54"/>
      </g>
     </g>
    </g>
    <g id="ytick_5">
     <g id="line2d_37">
      <path clip-path="url(#p4583a3e4f2)" d="M 57.6 95.005782 
L 338.688 95.005782 
" style="fill:none;stroke:#b0b0b0;stroke-linecap:square;stroke-width:0.8;"/>
     </g>
     <g id="line2d_38">
      <g>
       <use style="stroke:#000000;stroke-width:0.8;" x="57.6" xlink:href="#m07b72d199f" y="95.005782"/>
      </g>
     </g>
     <g id="text_10">
      <!-- 0.8 -->
      <defs>
       <path d="M 31.78125 34.625 
Q 24.75 34.625 20.71875 30.859375 
Q 16.703125 27.09375 16.703125 20.515625 
Q 16.703125 13.921875 20.71875 10.15625 
Q 24.75 6.390625 31.78125 6.390625 
Q 38.8125 6.390625 42.859375 10.171875 
Q 46.921875 13.96875 46.921875 20.515625 
Q 46.921875 27.09375 42.890625 30.859375 
Q 38.875 34.625 31.78125 34.625 
z
M 21.921875 38.8125 
Q 15.578125 40.375 12.03125 44.71875 
Q 8.5 49.078125 8.5 55.328125 
Q 8.5 64.0625 14.71875 69.140625 
Q 20.953125 74.21875 31.78125 74.21875 
Q 42.671875 74.21875 48.875 69.140625 
Q 55.078125 64.0625 55.078125 55.328125 
Q 55.078125 49.078125 51.53125 44.71875 
Q 48 40.375 41.703125 38.8125 
Q 48.828125 37.15625 52.796875 32.3125 
Q 56.78125 27.484375 56.78125 20.515625 
Q 56.78125 9.90625 50.3125 4.234375 
Q 43.84375 -1.421875 31.78125 -1.421875 
Q 19.734375 -1.421875 13.25 4.234375 
Q 6.78125 9.90625 6.78125 20.515625 
Q 6.78125 27.484375 10.78125 32.3125 
Q 14.796875 37.15625 21.921875 38.8125 
z
M 18.3125 54.390625 
Q 18.3125 48.734375 21.84375 45.5625 
Q 25.390625 42.390625 31.78125 42.390625 
Q 38.140625 42.390625 41.71875 45.5625 
Q 45.3125 48.734375 45.3125 54.390625 
Q 45.3125 60.0625 41.71875 63.234375 
Q 38.140625 66.40625 31.78125 66.40625 
Q 25.390625 66.40625 21.84375 63.234375 
Q 18.3125 60.0625 18.3125 54.390625 
z
" id="DejaVuSans-56"/>
      </defs>
      <g transform="translate(25.155 101.084532)scale(0.16 -0.16)">
       <use xlink:href="#DejaVuSans-48"/>
       <use x="63.623047" xlink:href="#DejaVuSans-46"/>
       <use x="95.410156" xlink:href="#DejaVuSans-56"/>
      </g>
     </g>
    </g>
    <g id="ytick_6">
     <g id="line2d_39">
      <path clip-path="url(#p4583a3e4f2)" d="M 57.6 44.021228 
L 338.688 44.021228 
" style="fill:none;stroke:#b0b0b0;stroke-linecap:square;stroke-width:0.8;"/>
     </g>
     <g id="line2d_40">
      <g>
       <use style="stroke:#000000;stroke-width:0.8;" x="57.6" xlink:href="#m07b72d199f" y="44.021228"/>
      </g>
     </g>
     <g id="text_11">
      <!-- 1.0 -->
      <g transform="translate(25.155 50.099978)scale(0.16 -0.16)">
       <use xlink:href="#DejaVuSans-49"/>
       <use x="63.623047" xlink:href="#DejaVuSans-46"/>
       <use x="95.410156" xlink:href="#DejaVuSans-48"/>
      </g>
     </g>
    </g>
    <g id="text_12">
     <!-- Fraction of function,target pairs -->
     <defs>
      <path d="M 9.8125 72.90625 
L 51.703125 72.90625 
L 51.703125 64.59375 
L 19.671875 64.59375 
L 19.671875 43.109375 
L 48.578125 43.109375 
L 48.578125 34.8125 
L 19.671875 34.8125 
L 19.671875 0 
L 9.8125 0 
z
" id="DejaVuSans-70"/>
      <path d="M 41.109375 46.296875 
Q 39.59375 47.171875 37.8125 47.578125 
Q 36.03125 48 33.890625 48 
Q 26.265625 48 22.1875 43.046875 
Q 18.109375 38.09375 18.109375 28.8125 
L 18.109375 0 
L 9.078125 0 
L 9.078125 54.6875 
L 18.109375 54.6875 
L 18.109375 46.1875 
Q 20.953125 51.171875 25.484375 53.578125 
Q 30.03125 56 36.53125 56 
Q 37.453125 56 38.578125 55.875 
Q 39.703125 55.765625 41.0625 55.515625 
z
" id="DejaVuSans-114"/>
      <path d="M 48.78125 52.59375 
L 48.78125 44.1875 
Q 44.96875 46.296875 41.140625 47.34375 
Q 37.3125 48.390625 33.40625 48.390625 
Q 24.65625 48.390625 19.8125 42.84375 
Q 14.984375 37.3125 14.984375 27.296875 
Q 14.984375 17.28125 19.8125 11.734375 
Q 24.65625 6.203125 33.40625 6.203125 
Q 37.3125 6.203125 41.140625 7.25 
Q 44.96875 8.296875 48.78125 10.40625 
L 48.78125 2.09375 
Q 45.015625 0.34375 40.984375 -0.53125 
Q 36.96875 -1.421875 32.421875 -1.421875 
Q 20.0625 -1.421875 12.78125 6.34375 
Q 5.515625 14.109375 5.515625 27.296875 
Q 5.515625 40.671875 12.859375 48.328125 
Q 20.21875 56 33.015625 56 
Q 37.15625 56 41.109375 55.140625 
Q 45.0625 54.296875 48.78125 52.59375 
z
" id="DejaVuSans-99"/>
      <path d="M 18.3125 70.21875 
L 18.3125 54.6875 
L 36.8125 54.6875 
L 36.8125 47.703125 
L 18.3125 47.703125 
L 18.3125 18.015625 
Q 18.3125 11.328125 20.140625 9.421875 
Q 21.96875 7.515625 27.59375 7.515625 
L 36.8125 7.515625 
L 36.8125 0 
L 27.59375 0 
Q 17.1875 0 13.234375 3.875 
Q 9.28125 7.765625 9.28125 18.015625 
L 9.28125 47.703125 
L 2.6875 47.703125 
L 2.6875 54.6875 
L 9.28125 54.6875 
L 9.28125 70.21875 
z
" id="DejaVuSans-116"/>
      <path d="M 8.5 21.578125 
L 8.5 54.6875 
L 17.484375 54.6875 
L 17.484375 21.921875 
Q 17.484375 14.15625 20.5 10.265625 
Q 23.53125 6.390625 29.59375 6.390625 
Q 36.859375 6.390625 41.078125 11.03125 
Q 45.3125 15.671875 45.3125 23.6875 
L 45.3125 54.6875 
L 54.296875 54.6875 
L 54.296875 0 
L 45.3125 0 
L 45.3125 8.40625 
Q 42.046875 3.421875 37.71875 1 
Q 33.40625 -1.421875 27.6875 -1.421875 
Q 18.265625 -1.421875 13.375 4.4375 
Q 8.5 10.296875 8.5 21.578125 
z
M 31.109375 56 
z
" id="DejaVuSans-117"/>
      <path d="M 11.71875 12.40625 
L 22.015625 12.40625 
L 22.015625 4 
L 14.015625 -11.625 
L 7.71875 -11.625 
L 11.71875 4 
z
" id="DejaVuSans-44"/>
      <path d="M 18.109375 8.203125 
L 18.109375 -20.796875 
L 9.078125 -20.796875 
L 9.078125 54.6875 
L 18.109375 54.6875 
L 18.109375 46.390625 
Q 20.953125 51.265625 25.265625 53.625 
Q 29.59375 56 35.59375 56 
Q 45.5625 56 51.78125 48.09375 
Q 58.015625 40.1875 58.015625 27.296875 
Q 58.015625 14.40625 51.78125 6.484375 
Q 45.5625 -1.421875 35.59375 -1.421875 
Q 29.59375 -1.421875 25.265625 0.953125 
Q 20.953125 3.328125 18.109375 8.203125 
z
M 48.6875 27.296875 
Q 48.6875 37.203125 44.609375 42.84375 
Q 40.53125 48.484375 33.40625 48.484375 
Q 26.265625 48.484375 22.1875 42.84375 
Q 18.109375 37.203125 18.109375 27.296875 
Q 18.109375 17.390625 22.1875 11.75 
Q 26.265625 6.109375 33.40625 6.109375 
Q 40.53125 6.109375 44.609375 11.75 
Q 48.6875 17.390625 48.6875 27.296875 
z
" id="DejaVuSans-112"/>
     </defs>
     <g transform="translate(17.619531 305.347375)rotate(-90)scale(0.17 -0.17)">
      <use xlink:href="#DejaVuSans-70"/>
      <use x="57.410156" xlink:href="#DejaVuSans-114"/>
      <use x="98.523438" xlink:href="#DejaVuSans-97"/>
      <use x="159.802734" xlink:href="#DejaVuSans-99"/>
      <use x="214.783203" xlink:href="#DejaVuSans-116"/>
      <use x="253.992188" xlink:href="#DejaVuSans-105"/>
      <use x="281.775391" xlink:href="#DejaVuSans-111"/>
      <use x="342.957031" xlink:href="#DejaVuSans-110"/>
      <use x="406.335938" xlink:href="#DejaVuSans-32"/>
      <use x="438.123047" xlink:href="#DejaVuSans-111"/>
      <use x="499.304688" xlink:href="#DejaVuSans-102"/>
      <use x="534.509766" xlink:href="#DejaVuSans-32"/>
      <use x="566.296875" xlink:href="#DejaVuSans-102"/>
      <use x="601.501953" xlink:href="#DejaVuSans-117"/>
      <use x="664.880859" xlink:href="#DejaVuSans-110"/>
      <use x="728.259766" xlink:href="#DejaVuSans-99"/>
      <use x="783.240234" xlink:href="#DejaVuSans-116"/>
      <use x="822.449219" xlink:href="#DejaVuSans-105"/>
      <use x="850.232422" xlink:href="#DejaVuSans-111"/>
      <use x="911.414062" xlink:href="#DejaVuSans-110"/>
      <use x="974.792969" xlink:href="#DejaVuSans-44"/>
      <use x="1006.580078" xlink:href="#DejaVuSans-116"/>
      <use x="1045.789062" xlink:href="#DejaVuSans-97"/>
      <use x="1107.068359" xlink:href="#DejaVuSans-114"/>
      <use x="1148.166016" xlink:href="#DejaVuSans-103"/>
      <use x="1211.642578" xlink:href="#DejaVuSans-101"/>
      <use x="1273.166016" xlink:href="#DejaVuSans-116"/>
      <use x="1312.375" xlink:href="#DejaVuSans-32"/>
      <use x="1344.162109" xlink:href="#DejaVuSans-112"/>
      <use x="1407.638672" xlink:href="#DejaVuSans-97"/>
      <use x="1468.917969" xlink:href="#DejaVuSans-105"/>
      <use x="1496.701172" xlink:href="#DejaVuSans-114"/>
      <use x="1537.814453" xlink:href="#DejaVuSans-115"/>
     </g>
    </g>
   </g>
   <g id="line2d_41">
    <defs>
     <path d="M 0 1.5 
C 0.397805 1.5 0.77937 1.341951 1.06066 1.06066 
C 1.341951 0.77937 1.5 0.397805 1.5 0 
C 1.5 -0.397805 1.341951 -0.77937 1.06066 -1.06066 
C 0.77937 -1.341951 0.397805 -1.5 0 -1.5 
C -0.397805 -1.5 -0.77937 -1.341951 -1.06066 -1.06066 
C -1.341951 -0.77937 -1.5 -0.397805 -1.5 0 
C -1.5 0.397805 -1.341951 0.77937 -1.06066 1.06066 
C -0.77937 1.341951 -0.397805 1.5 0 1.5 
z
" id="m1bca5a4001" style="stroke:#f5deb3;"/>
    </defs>
    <g>
     <use style="fill:#f5deb3;stroke:#f5deb3;" x="189.247514" xlink:href="#m1bca5a4001" y="44.021228"/>
     <use style="fill:#f5deb3;stroke:#f5deb3;" x="189.247514" xlink:href="#m1bca5a4001" y="44.021228"/>
    </g>
   </g>
   <g id="line2d_42">
    <defs>
     <path d="M 0 1.5 
C 0.397805 1.5 0.77937 1.341951 1.06066 1.06066 
C 1.341951 0.77937 1.5 0.397805 1.5 0 
C 1.5 -0.397805 1.341951 -0.77937 1.06066 -1.06066 
C 0.77937 -1.341951 0.397805 -1.5 0 -1.5 
C -0.397805 -1.5 -0.77937 -1.341951 -1.06066 -1.06066 
C -1.341951 -0.77937 -1.5 -0.397805 -1.5 0 
C -1.5 0.397805 -1.341951 0.77937 -1.06066 1.06066 
C -0.77937 1.341951 -0.397805 1.5 0 1.5 
z
" id="m8b89ad68fb" style="stroke:#000080;"/>
    </defs>
    <g>
     <use style="fill:#000080;stroke:#000080;" x="190.946912" xlink:href="#m8b89ad68fb" y="44.021228"/>
     <use style="fill:#000080;stroke:#000080;" x="190.946912" xlink:href="#m8b89ad68fb" y="44.021228"/>
    </g>
   </g>
   <g id="line2d_43">
    <path d="M 38.440992 298.944 
L 38.440992 287.947331 
L 50.52898 287.947331 
L 50.52898 287.447483 
L 57.6 287.447483 
L 57.6 286.447786 
L 62.616969 286.447786 
L 62.616969 283.948543 
L 66.508432 283.948543 
L 66.508432 281.4493 
L 69.687988 281.4493 
L 69.687988 280.449603 
L 74.704957 280.449603 
L 74.704957 279.949754 
L 78.59642 279.949754 
L 78.59642 277.95036 
L 85.66744 277.95036 
L 85.66744 276.950663 
L 89.78989 276.950663 
L 89.78989 275.950966 
L 91.535274 275.950966 
L 91.535274 274.951268 
L 93.863965 274.951268 
L 93.863965 274.45142 
L 94.575872 274.45142 
L 94.575872 273.951571 
L 95.259853 273.951571 
L 95.259853 273.451723 
L 98.32726 273.451723 
L 98.32726 272.951874 
L 101.412804 272.951874 
L 101.412804 272.452026 
L 101.877879 272.452026 
L 101.877879 271.952177 
L 103.203018 271.952177 
L 103.203018 270.452631 
L 104.033617 270.452631 
L 104.033617 269.952783 
L 105.209745 269.952783 
L 105.209745 269.452934 
L 105.584798 269.452934 
L 105.584798 268.953086 
L 107.680028 268.953086 
L 107.680028 267.953388 
L 109.843417 267.953388 
L 109.843417 267.45354 
L 113.022974 267.45354 
L 113.022974 266.953691 
L 114.641021 266.953691 
L 114.641021 266.453843 
L 115.502395 266.453843 
L 115.502395 265.953994 
L 115.711251 265.953994 
L 115.711251 265.454146 
L 116.522527 265.454146 
L 116.522527 264.954297 
L 116.719583 264.954297 
L 116.719583 264.454448 
L 117.857331 264.454448 
L 117.857331 263.454751 
L 118.576578 263.454751 
L 118.576578 262.954903 
L 118.751849 262.954903 
L 118.751849 261.455357 
L 119.602714 261.455357 
L 119.602714 260.45566 
L 119.768017 260.45566 
L 119.768017 259.955811 
L 119.931767 259.955811 
L 119.931767 258.956114 
L 121.036887 258.956114 
L 121.036887 257.956417 
L 121.189196 257.956417 
L 121.189196 257.456568 
L 121.340187 257.456568 
L 121.340187 256.95672 
L 121.785469 256.95672 
L 121.785469 256.456871 
L 122.219665 256.456871 
L 122.219665 255.957023 
L 122.643312 255.957023 
L 122.643312 255.457174 
L 123.056911 255.457174 
L 123.056911 254.957326 
L 123.327293 254.957326 
L 123.327293 254.457477 
L 123.593547 254.457477 
L 123.593547 253.957628 
L 124.241922 253.957628 
L 124.241922 253.45778 
L 124.368753 253.45778 
L 124.368753 252.957931 
L 125.470548 252.957931 
L 125.470548 252.458083 
L 125.588781 252.458083 
L 125.588781 251.458386 
L 127.378995 251.458386 
L 127.378995 250.458688 
L 128.005624 250.458688 
L 128.107907 249.458991 
L 128.610515 249.458991 
L 128.610515 248.959143 
L 128.807571 248.959143 
L 128.905271 247.959446 
L 129.574256 247.959446 
L 129.667765 246.959748 
L 129.945319 246.959748 
L 129.945319 245.960051 
L 130.576266 245.960051 
L 130.576266 245.460203 
L 131.185181 245.460203 
L 131.185181 244.460506 
L 131.355321 244.460506 
L 131.355321 243.960657 
L 131.60746 243.960657 
L 131.690703 242.96096 
L 132.262533 242.96096 
L 132.262533 242.461111 
L 132.659801 242.461111 
L 132.659801 241.961263 
L 132.971225 241.961263 
L 132.971225 241.461414 
L 133.503183 241.461414 
L 133.503183 240.961566 
L 134.236034 240.961566 
L 134.236034 239.961868 
L 134.520763 239.961868 
L 134.520763 239.46202 
L 134.800918 239.46202 
L 134.800918 238.462323 
L 135.144899 238.462323 
L 135.144899 237.962474 
L 135.943785 237.962474 
L 135.943785 237.462626 
L 136.073445 237.462626 
L 136.073445 236.962777 
L 136.582658 236.962777 
L 136.645276 235.96308 
L 137.016339 235.96308 
L 137.016339 235.463231 
L 137.259399 235.463231 
L 137.259399 234.963383 
L 137.558536 234.963383 
L 137.558536 234.463534 
L 138.141844 234.463534 
L 138.141844 233.963685 
L 139.036363 233.963685 
L 139.036363 233.463837 
L 139.199094 233.463837 
L 139.253002 232.46414 
L 139.730821 232.46414 
L 139.783113 231.464443 
L 139.887228 231.464443 
L 139.939053 228.9652 
L 140.79731 228.9652 
L 140.79731 228.465351 
L 141.378673 228.465351 
L 141.378673 227.965503 
L 141.848763 227.965503 
L 141.895083 226.965805 
L 142.486301 226.965805 
L 142.486301 226.465957 
L 142.796538 226.465957 
L 142.796538 225.966108 
L 143.058132 225.966108 
L 143.058132 225.46626 
L 143.31586 225.46626 
L 143.358447 224.466563 
L 143.943994 224.466563 
L 144.026061 222.967017 
L 144.390658 222.967017 
L 144.390658 222.467168 
L 145.020588 222.467168 
L 145.020588 221.96732 
L 145.553708 221.96732 
L 145.553708 221.467471 
L 145.665858 221.467471 
L 145.665858 220.967623 
L 146.071013 220.967623 
L 146.071013 220.467774 
L 146.288102 220.467774 
L 146.288102 219.967925 
L 146.466968 219.967925 
L 146.466968 219.468077 
L 146.644018 219.468077 
L 146.749392 216.968834 
L 146.784375 216.968834 
L 146.854132 215.469288 
L 147.198794 215.469288 
L 147.198794 214.96944 
L 147.636905 214.96944 
L 147.70334 213.969743 
L 147.999207 213.969743 
L 147.999207 213.469894 
L 148.322166 213.469894 
L 148.322166 212.970045 
L 148.607802 212.970045 
L 148.607802 212.470197 
L 148.826773 212.470197 
L 148.888835 211.4705 
L 148.981515 211.4705 
L 149.012299 209.970954 
L 149.705742 209.970954 
L 149.705742 209.471105 
L 149.998846 209.471105 
L 149.998846 208.971257 
L 150.201126 208.971257 
L 150.229833 207.97156 
L 150.372662 207.97156 
L 150.401087 206.971863 
L 150.710752 206.971863 
L 150.710752 206.472014 
L 150.960087 206.472014 
L 150.960087 205.972165 
L 151.205907 205.972165 
L 151.205907 205.472317 
L 152.130233 205.472317 
L 152.130233 204.972468 
L 152.334802 204.972468 
L 152.436193 203.472923 
L 153.275019 203.472923 
L 153.275019 202.973074 
L 153.632638 202.973074 
L 153.632638 202.473225 
L 154.006185 202.473225 
L 154.029268 201.473528 
L 154.46214 201.473528 
L 154.46214 200.97368 
L 155.059358 200.97368 
L 155.059358 199.973983 
L 155.488919 199.973983 
L 155.488919 199.474134 
L 156.598505 199.474134 
L 156.598505 198.974285 
L 156.737306 198.974285 
L 156.737306 198.474437 
L 157.566527 198.474437 
L 157.566527 196.974891 
L 157.697862 196.974891 
L 157.697862 195.975194 
L 157.957601 195.975194 
L 158.049435 194.475648 
L 158.661402 194.475648 
L 158.661402 193.9758 
L 159.405822 193.9758 
L 159.507213 192.976103 
L 159.557689 192.976103 
L 159.557689 192.476254 
L 159.874019 192.476254 
L 159.874019 191.476557 
L 160.664283 191.476557 
L 160.727241 190.47686 
L 160.852479 190.47686 
L 160.852479 189.977011 
L 161.177012 189.977011 
L 161.177012 189.477162 
L 161.495615 189.477162 
L 161.495615 188.977314 
L 161.734513 188.977314 
L 161.838011 187.977617 
L 162.101361 187.977617 
L 162.101361 187.477768 
L 162.317821 187.477768 
L 162.317821 186.478071 
L 162.44642 186.478071 
L 162.44642 185.978222 
L 163.748975 185.978222 
L 163.748975 184.978525 
L 164.320806 184.978525 
L 164.320806 184.478677 
L 164.76265 184.478677 
L 164.76265 183.978828 
L 165.193576 183.978828 
L 165.193576 183.47898 
L 165.435121 183.47898 
L 165.435121 182.979131 
L 166.140309 182.979131 
L 166.140309 182.479282 
L 166.335035 182.479282 
L 166.335035 181.979434 
L 166.448573 181.979434 
L 166.448573 181.479585 
L 166.873397 181.479585 
L 166.873397 180.479888 
L 167.288118 180.479888 
L 167.288118 179.98004 
L 167.438457 179.98004 
L 167.438457 179.480191 
L 167.629866 179.480191 
L 167.629866 178.980342 
L 167.819196 178.980342 
L 167.913096 177.480797 
L 167.965045 177.480797 
L 167.965045 176.980948 
L 168.140524 176.980948 
L 168.140524 175.481402 
L 168.476198 175.481402 
L 168.476198 174.981554 
L 168.913944 174.981554 
L 168.913944 173.981857 
L 169.031447 173.981857 
L 169.031447 173.482008 
L 169.206229 173.482008 
L 169.292968 171.982462 
L 169.388841 171.982462 
L 169.446113 170.482917 
L 169.66393 170.482917 
L 169.66393 169.983068 
L 170.027164 169.983068 
L 170.100748 167.983674 
L 170.219663 167.983674 
L 170.219663 166.983977 
L 170.346825 166.983977 
L 170.382987 165.98428 
L 170.802371 165.98428 
L 170.846398 164.484734 
L 170.986544 164.484734 
L 171.082245 162.985188 
L 171.116915 162.985188 
L 171.177424 160.985794 
L 171.272086 160.985794 
L 171.280666 159.986097 
L 171.721118 159.986097 
L 171.829514 158.486551 
L 171.937241 158.486551 
L 172.011434 156.987005 
L 172.142557 156.987005 
L 172.248373 154.487762 
L 172.296995 154.487762 
L 172.296995 153.488065 
L 172.409924 153.488065 
L 172.425997 152.488368 
L 172.585918 152.488368 
L 172.689086 150.488974 
L 172.830933 150.488974 
L 172.924861 148.489579 
L 172.994977 148.489579 
L 173.064812 145.490488 
L 173.149788 145.490488 
L 173.203648 144.490791 
L 173.333764 144.490791 
L 173.349008 141.491699 
L 173.493167 141.491699 
L 173.51582 139.492305 
L 173.628647 139.492305 
L 173.643636 138.492608 
L 173.822502 138.492608 
L 173.852135 135.993365 
L 174.028886 135.993365 
L 174.123884 134.493819 
L 174.182087 134.493819 
L 174.261802 131.994577 
L 174.348349 131.994577 
L 174.355542 130.495031 
L 174.48451 130.495031 
L 174.548638 128.995485 
L 174.640854 128.995485 
L 174.69736 126.996091 
L 174.774759 126.996091 
L 174.844824 124.996697 
L 174.893703 124.996697 
L 174.935491 123.996999 
L 175.018766 123.996999 
L 175.018766 122.997302 
L 175.279879 122.997302 
L 175.313947 121.997605 
L 175.442801 121.997605 
L 175.476552 119.998211 
L 175.577416 119.998211 
L 175.671032 118.998514 
L 175.717652 118.998514 
L 175.790662 115.999422 
L 175.85017 115.999422 
L 175.948902 112.500482 
L 176.020952 112.500482 
L 176.079681 110.501088 
L 176.151193 110.501088 
L 176.261139 108.001845 
L 176.267585 108.001845 
L 176.363988 106.002451 
L 176.447109 106.002451 
L 176.54887 104.502905 
L 176.574218 104.502905 
L 176.605851 103.003359 
L 176.850639 103.003359 
L 176.93768 100.504116 
L 176.981038 100.504116 
L 177.092038 98.504722 
L 177.110469 98.504722 
L 177.220651 97.005176 
L 177.257224 97.005176 
L 177.299796 95.505631 
L 177.475067 95.505631 
L 177.576999 94.006085 
L 177.600896 94.006085 
L 177.690222 91.006994 
L 177.743598 91.006994 
L 177.743598 90.507145 
L 177.855749 90.507145 
L 177.879268 89.507448 
L 178.043018 89.507448 
L 178.153265 87.508054 
L 178.159048 87.508054 
L 178.222537 86.508356 
L 178.291535 86.508356 
L 178.291535 86.008508 
L 178.428718 86.008508 
L 178.474207 85.008811 
L 178.593054 85.008811 
L 178.593054 84.508962 
L 178.92822 84.508962 
L 178.994487 82.009719 
L 179.27877 82.009719 
L 179.27877 81.010022 
L 179.617095 81.010022 
L 179.617095 80.510174 
L 179.891486 80.510174 
L 179.917643 79.510476 
L 180.11 79.510476 
L 180.11 79.010628 
L 180.315593 79.010628 
L 180.397157 78.010931 
L 180.61951 78.010931 
L 180.674658 77.011234 
L 180.784433 77.011234 
L 180.784433 76.511385 
L 180.992105 76.511385 
L 180.992105 76.011536 
L 182.434813 76.011536 
L 182.47549 74.012142 
L 183.183243 74.012142 
L 183.183243 73.512294 
L 184.299805 73.512294 
L 184.368791 72.512596 
L 184.701742 72.512596 
L 184.701742 72.012748 
L 185.249332 72.012748 
L 185.249332 71.512899 
L 185.611353 71.512899 
L 185.611353 70.513202 
L 186.335324 70.513202 
L 186.335324 70.013354 
L 186.873275 70.013354 
L 186.939804 67.514111 
L 187.148244 67.514111 
L 187.186189 66.014565 
L 187.33715 66.014565 
L 187.33715 65.514716 
L 187.520651 65.514716 
L 187.625129 63.515322 
L 187.678809 63.515322 
L 187.678809 63.015474 
L 187.964542 63.015474 
L 188.046733 61.515928 
L 188.294241 61.515928 
L 188.294241 61.016079 
L 188.483993 61.016079 
L 188.544662 59.516533 
L 188.601945 59.516533 
L 188.681193 57.517139 
L 188.731723 57.517139 
L 188.760082 55.517745 
L 188.885568 55.517745 
L 188.929275 54.518048 
L 189.031869 54.518048 
L 189.121531 53.018502 
L 189.223003 53.018502 
L 189.311691 50.519259 
L 189.351301 50.519259 
L 189.427223 49.019713 
L 189.548015 49.019713 
L 189.656017 48.020016 
L 189.754435 48.020016 
L 189.754435 47.520168 
L 190.028843 47.520168 
L 190.028843 47.020319 
L 190.330678 47.020319 
L 190.330678 46.520471 
L 190.58206 46.520471 
L 190.58206 46.020622 
L 190.76544 46.020622 
L 190.855016 44.521076 
L 190.946912 44.521076 
L 190.946912 44.021228 
L 338.688 44.021228 
L 338.688 44.021228 
" style="fill:none;stroke:#000080;stroke-linecap:square;stroke-width:1.5;"/>
   </g>
   <g id="line2d_44">
    <defs>
     <path d="M 0 6 
C 1.591219 6 3.117479 5.367802 4.242641 4.242641 
C 5.367802 3.117479 6 1.591219 6 0 
C 6 -1.591219 5.367802 -3.117479 4.242641 -4.242641 
C 3.117479 -5.367802 1.591219 -6 0 -6 
C -1.591219 -6 -3.117479 -5.367802 -4.242641 -4.242641 
C -5.367802 -3.117479 -6 -1.591219 -6 0 
C -6 1.591219 -5.367802 3.117479 -4.242641 4.242641 
C -3.117479 5.367802 -1.591219 6 0 6 
z
" id="m38fd71a706" style="stroke:#000080;stroke-width:1.5;"/>
    </defs>
    <g>
     <use style="fill-opacity:0;stroke:#000080;stroke-width:1.5;" x="123.593547" xlink:href="#m38fd71a706" y="253.957628"/>
     <use style="fill-opacity:0;stroke:#000080;stroke-width:1.5;" x="170.027164" xlink:href="#m38fd71a706" y="169.983068"/>
     <use style="fill-opacity:0;stroke:#000080;stroke-width:1.5;" x="190.946912" xlink:href="#m38fd71a706" y="44.521076"/>
     <use style="fill-opacity:0;stroke:#000080;stroke-width:1.5;" x="190.946912" xlink:href="#m38fd71a706" y="44.021228"/>
     <use style="fill-opacity:0;stroke:#000080;stroke-width:1.5;" x="190.946912" xlink:href="#m38fd71a706" y="44.021228"/>
     <use style="fill-opacity:0;stroke:#000080;stroke-width:1.5;" x="338.688" xlink:href="#m38fd71a706" y="44.021228"/>
    </g>
   </g>
   <g id="line2d_45">
    <path style="fill:none;stroke:#000080;stroke-linecap:square;stroke-width:1.5;"/>
    <g/>
   </g>
   <g id="line2d_46">
    <defs>
     <path d="M 0 1.5 
C 0.397805 1.5 0.77937 1.341951 1.06066 1.06066 
C 1.341951 0.77937 1.5 0.397805 1.5 0 
C 1.5 -0.397805 1.341951 -0.77937 1.06066 -1.06066 
C 0.77937 -1.341951 0.397805 -1.5 0 -1.5 
C -0.397805 -1.5 -0.77937 -1.341951 -1.06066 -1.06066 
C -1.341951 -0.77937 -1.5 -0.397805 -1.5 0 
C -1.5 0.397805 -1.341951 0.77937 -1.06066 1.06066 
C -0.77937 1.341951 -0.397805 1.5 0 1.5 
z
" id="mf0c7156af3" style="stroke:#ff00ff;"/>
    </defs>
    <g>
     <use style="fill:#ff00ff;stroke:#ff00ff;" x="192.609305" xlink:href="#mf0c7156af3" y="44.021228"/>
     <use style="fill:#ff00ff;stroke:#ff00ff;" x="192.609305" xlink:href="#mf0c7156af3" y="44.021228"/>
    </g>
   </g>
   <g id="line2d_47">
    <path d="M 38.440992 298.944 
L 38.440992 287.947331 
L 50.52898 287.947331 
L 50.52898 284.448391 
L 57.6 284.448391 
L 57.6 283.448694 
L 62.616969 283.448694 
L 62.616969 281.949149 
L 66.508432 281.949149 
L 66.508432 279.449906 
L 76.759008 279.449906 
L 76.759008 278.950057 
L 80.258561 278.950057 
L 80.258561 277.450511 
L 81.775977 277.450511 
L 81.775977 276.950663 
L 84.464254 276.950663 
L 84.464254 275.451117 
L 85.66744 275.451117 
L 85.66744 274.951268 
L 86.792945 274.951268 
L 86.792945 272.951874 
L 87.850195 272.951874 
L 87.850195 272.452026 
L 88.846997 272.452026 
L 88.846997 271.952177 
L 89.78989 271.952177 
L 89.78989 271.452328 
L 92.34655 271.452328 
L 92.34655 270.452631 
L 93.863965 270.452631 
L 93.863965 269.452934 
L 96.552242 269.452934 
L 96.552242 268.453237 
L 98.880934 268.453237 
L 98.880934 267.953388 
L 101.412804 267.953388 
L 101.412804 267.45354 
L 102.330873 267.45354 
L 102.330873 266.453843 
L 102.772397 266.453843 
L 102.772397 265.953994 
L 103.623262 265.953994 
L 103.623262 265.454146 
L 104.826449 265.454146 
L 104.826449 263.9546 
L 105.209745 263.9546 
L 105.209745 263.454751 
L 105.584798 263.454751 
L 105.584798 262.954903 
L 106.66386 262.954903 
L 106.66386 262.455054 
L 108.948899 262.455054 
L 108.948899 261.455357 
L 109.843417 261.455357 
L 109.843417 260.955508 
L 110.131676 260.955508 
L 110.131676 259.955811 
L 110.694282 259.955811 
L 110.694282 259.455963 
L 111.239304 259.455963 
L 111.239304 258.956114 
L 111.767808 258.956114 
L 111.767808 258.456266 
L 112.779064 258.456266 
L 112.779064 257.456568 
L 115.077025 257.456568 
L 115.077025 256.456871 
L 116.522527 256.456871 
L 116.522527 255.957023 
L 118.751849 255.957023 
L 118.751849 254.457477 
L 119.267333 254.457477 
L 119.267333 253.957628 
L 120.254726 253.957628 
L 120.254726 253.45778 
L 120.41399 253.45778 
L 120.41399 252.957931 
L 121.489881 252.957931 
L 121.489881 252.458083 
L 121.638301 252.458083 
L 121.638301 251.958234 
L 122.076131 251.958234 
L 122.076131 251.458386 
L 122.643312 251.458386 
L 122.643312 250.458688 
L 122.782271 250.458688 
L 122.782271 249.95884 
L 123.192626 249.95884 
L 123.192626 249.458991 
L 123.327293 249.458991 
L 123.327293 248.959143 
L 124.743806 248.959143 
L 124.743806 248.459294 
L 124.867052 248.459294 
L 124.867052 247.459597 
L 125.351508 247.459597 
L 125.351508 246.959748 
L 125.822869 246.959748 
L 125.822869 246.4599 
L 126.168212 246.4599 
L 126.168212 245.960051 
L 126.3947 245.960051 
L 126.3947 245.460203 
L 126.618283 245.460203 
L 126.618283 244.960354 
L 127.378995 244.960354 
L 127.48501 243.960657 
L 129.002426 243.960657 
L 129.099042 242.96096 
L 129.480244 242.96096 
L 129.480244 242.461111 
L 131.185181 242.461111 
L 131.185181 241.461414 
L 132.816208 241.461414 
L 132.816208 240.961566 
L 133.503183 240.961566 
L 133.503183 240.461717 
L 134.091907 240.461717 
L 134.164119 238.962171 
L 134.307653 238.962171 
L 134.307653 238.462323 
L 134.450015 238.462323 
L 134.450015 237.962474 
L 136.266147 237.962474 
L 136.266147 237.462626 
L 136.519813 237.462626 
L 136.519813 236.962777 
L 136.831795 236.962777 
L 136.831795 236.462928 
L 137.968891 236.462928 
L 137.968891 235.96308 
L 138.313099 235.96308 
L 138.313099 235.463231 
L 138.538853 235.463231 
L 138.538853 234.963383 
L 139.466984 234.963383 
L 139.466984 234.463534 
L 140.093612 234.463534 
L 140.195896 233.463837 
L 141.041904 233.463837 
L 141.041904 232.963988 
L 141.378673 232.963988 
L 141.378673 232.46414 
L 142.215919 232.46414 
L 142.215919 231.964291 
L 142.441528 231.964291 
L 142.441528 231.464443 
L 143.101352 231.464443 
L 143.101352 230.964594 
L 143.40093 230.964594 
L 143.40093 229.964897 
L 144.550287 229.964897 
L 144.550287 229.465048 
L 144.787023 229.465048 
L 144.787023 228.9652 
L 144.981877 228.9652 
L 144.981877 228.465351 
L 145.516164 228.465351 
L 145.516164 227.965503 
L 147.198794 227.965503 
L 147.198794 227.465654 
L 148.258051 227.465654 
L 148.258051 226.965805 
L 149.764758 226.965805 
L 149.852909 225.966108 
L 151.975216 225.966108 
L 151.975216 225.46626 
L 158.067744 225.46626 
L 158.159001 224.466563 
L 158.447857 224.466563 
L 158.447857 223.966714 
L 158.854881 223.966714 
L 158.854881 223.466865 
L 160.680044 223.466865 
L 160.680044 222.967017 
L 161.023225 222.967017 
L 161.023225 222.467168 
L 161.39006 222.467168 
L 161.39006 221.96732 
L 161.764147 221.96732 
L 161.764147 221.467471 
L 162.588203 221.467471 
L 162.602318 219.967925 
L 162.784783 219.967925 
L 162.784783 218.46838 
L 163.841212 218.46838 
L 163.919885 216.968834 
L 164.011225 216.968834 
L 164.11503 215.469288 
L 164.498889 215.469288 
L 164.574657 214.469591 
L 164.837283 214.469591 
L 164.837283 213.969743 
L 165.096013 213.969743 
L 165.18141 212.970045 
L 165.254276 212.970045 
L 165.254276 212.470197 
L 165.435121 212.470197 
L 165.435121 210.970651 
L 165.673366 210.970651 
L 165.708824 209.970954 
L 166.013141 209.970954 
L 166.013141 208.971257 
L 166.255117 208.971257 
L 166.335035 207.471711 
L 166.459886 207.471711 
L 166.550128 205.972165 
L 166.628709 205.972165 
L 166.628709 205.472317 
L 166.862349 205.472317 
L 166.906499 203.472923 
L 167.016388 203.472923 
L 167.016388 202.473225 
L 167.201624 202.473225 
L 167.298899 200.97368 
L 167.449146 200.97368 
L 167.513144 198.474437 
L 167.661564 198.474437 
L 167.661564 197.974588 
L 167.819196 197.974588 
L 167.819196 197.47474 
L 167.965045 197.47474 
L 168.047843 195.475345 
L 168.140524 195.475345 
L 168.212269 193.475951 
L 168.253135 193.475951 
L 168.283721 192.476254 
L 168.415645 192.476254 
L 168.415645 191.976405 
L 168.55661 191.976405 
L 168.55661 191.476557 
L 168.696445 191.476557 
L 168.795644 187.477768 
L 168.933583 187.477768 
L 169.002145 183.978828 
L 169.196565 183.978828 
L 169.292968 182.979131 
L 169.369709 182.979131 
L 169.407953 181.479585 
L 169.493697 181.479585 
L 169.522184 180.479888 
L 169.60737 180.479888 
L 169.616809 179.480191 
L 169.776502 179.480191 
L 169.776502 178.980342 
L 169.888352 178.980342 
L 169.94401 177.980645 
L 170.219663 177.980645 
L 170.24699 175.981251 
L 170.373953 175.981251 
L 170.464079 171.482614 
L 170.508968 171.482614 
L 170.58055 170.482917 
L 170.65184 170.482917 
L 170.705117 168.483522 
L 170.872762 168.483522 
L 170.942869 167.483825 
L 170.986544 167.483825 
L 171.090919 165.98428 
L 171.099589 165.98428 
L 171.151517 164.484734 
L 171.229121 164.484734 
L 171.280666 163.485037 
L 171.391826 163.485037 
L 171.476854 161.485642 
L 171.51075 161.485642 
L 171.569909 158.486551 
L 171.721118 158.486551 
L 171.771231 156.487157 
L 171.837825 156.487157 
L 171.895887 153.488065 
L 171.962007 153.488065 
L 172.036094 151.488671 
L 172.142557 151.488671 
L 172.215882 150.488974 
L 172.272701 150.488974 
L 172.272701 149.489277 
L 172.393836 149.489277 
L 172.482136 148.489579 
L 172.514135 148.489579 
L 172.514135 147.989731 
L 172.649478 147.989731 
L 172.712807 146.490185 
L 172.799511 146.490185 
L 172.885786 142.991245 
L 172.924861 142.991245 
L 172.971637 139.992154 
L 173.049317 139.992154 
L 173.134368 137.492911 
L 173.203648 137.492911 
L 173.310873 135.493517 
L 173.326137 135.493517 
L 173.417442 132.994274 
L 173.447772 132.994274 
L 173.55351 128.495637 
L 173.568564 128.495637 
L 173.666095 126.496242 
L 173.718386 126.496242 
L 173.733298 124.996697 
L 173.837325 124.996697 
L 173.940735 121.997605 
L 174.043535 121.997605 
L 174.116595 118.998514 
L 174.189349 118.998514 
L 174.196608 117.998817 
L 174.305129 117.998817 
L 174.398638 115.999422 
L 174.47737 115.999422 
L 174.505913 114.499877 
L 174.612532 114.499877 
L 174.619617 113.500179 
L 174.823834 113.500179 
L 174.928533 111.500785 
L 174.977178 111.500785 
L 175.067161 110.501088 
L 175.115421 110.501088 
L 175.170413 107.501997 
L 175.273058 107.501997 
L 175.286698 105.502602 
L 175.46306 105.502602 
L 175.564001 104.502905 
L 175.577416 104.502905 
L 175.671032 102.503511 
L 175.843568 102.503511 
L 175.922628 101.003965 
L 176.001331 101.003965 
L 176.105719 99.004571 
L 176.190077 99.004571 
L 176.286908 96.505328 
L 176.312639 96.505328 
L 176.312639 96.005479 
L 176.453486 96.005479 
L 176.536182 95.005782 
L 176.580549 95.005782 
L 176.650041 94.006085 
L 176.719257 94.006085 
L 176.719257 93.506236 
L 176.869327 93.506236 
L 176.919065 92.506539 
L 177.232851 92.506539 
L 177.232851 92.006691 
L 177.38463 92.006691 
L 177.48709 90.507145 
L 177.529105 90.507145 
L 177.529105 90.007296 
L 178.187935 90.007296 
L 178.187935 89.507448 
L 178.343106 89.507448 
L 178.411629 88.507751 
L 178.485561 88.507751 
L 178.485561 88.007902 
L 178.917151 88.007902 
L 179.022024 86.008508 
L 179.033027 86.008508 
L 179.044023 85.008811 
L 179.654285 85.008811 
L 179.654285 84.508962 
L 179.786461 84.508962 
L 179.839052 83.509265 
L 179.948981 83.509265 
L 179.948981 83.009416 
L 180.202817 83.009416 
L 180.274668 81.010022 
L 180.634567 81.010022 
L 180.634567 80.510174 
L 181.265209 80.510174 
L 181.265209 80.010325 
L 181.452911 80.010325 
L 181.452911 79.010628 
L 181.572179 79.010628 
L 181.614916 77.511082 
L 181.831732 77.511082 
L 181.836415 76.511385 
L 182.101321 76.511385 
L 182.101321 76.011536 
L 182.916789 76.011536 
L 182.916789 75.511688 
L 183.131146 75.511688 
L 183.131146 75.011839 
L 183.68319 75.011839 
L 183.68319 74.511991 
L 183.817468 74.511991 
L 183.917503 73.012445 
L 184.049996 73.012445 
L 184.049996 72.012748 
L 184.717629 72.012748 
L 184.717629 71.013051 
L 184.942451 71.013051 
L 185.040151 69.513505 
L 185.075189 69.513505 
L 185.075189 69.013656 
L 185.206924 69.013656 
L 185.310832 67.014262 
L 185.345331 67.014262 
L 185.345331 66.514414 
L 185.68662 66.514414 
L 185.68662 65.514716 
L 185.806375 65.514716 
L 185.836186 64.515019 
L 186.295479 64.515019 
L 186.382296 63.515322 
L 186.540346 63.515322 
L 186.625955 62.015776 
L 186.675701 62.015776 
L 186.74652 61.016079 
L 186.869766 61.016079 
L 186.974717 59.516533 
L 187.124054 59.516533 
L 187.168952 58.016988 
L 187.364457 58.016988 
L 187.452913 56.017593 
L 187.540922 56.017593 
L 187.540922 55.017896 
L 187.835545 55.017896 
L 187.934858 53.518351 
L 188.245669 53.518351 
L 188.245669 53.018502 
L 188.525526 53.018502 
L 188.554223 51.518956 
L 188.693839 51.518956 
L 188.693839 51.019108 
L 188.854281 51.019108 
L 188.951088 49.019713 
L 188.975984 49.019713 
L 188.975984 48.519865 
L 189.81974 48.519865 
L 189.81974 48.020016 
L 190.020058 48.020016 
L 190.020058 47.020319 
L 191.309728 47.020319 
L 191.309728 46.520471 
L 192.122858 46.520471 
L 192.187645 45.520773 
L 192.472426 45.520773 
L 192.472426 44.521076 
L 192.609305 44.521076 
L 192.609305 44.021228 
L 338.688 44.021228 
L 338.688 44.021228 
" style="fill:none;stroke:#ff00ff;stroke-linecap:square;stroke-width:1.5;"/>
   </g>
   <g id="line2d_48">
    <defs>
     <path d="M -0 8.485281 
L 5.091169 0 
L 0 -8.485281 
L -5.091169 -0 
z
" id="me6bc8f79d9" style="stroke:#ff00ff;stroke-linejoin:miter;stroke-width:1.5;"/>
    </defs>
    <g>
     <use style="fill-opacity:0;stroke:#ff00ff;stroke-linejoin:miter;stroke-width:1.5;" x="66.508432" xlink:href="#me6bc8f79d9" y="281.949149"/>
     <use style="fill-opacity:0;stroke:#ff00ff;stroke-linejoin:miter;stroke-width:1.5;" x="149.852909" xlink:href="#me6bc8f79d9" y="226.465957"/>
     <use style="fill-opacity:0;stroke:#ff00ff;stroke-linejoin:miter;stroke-width:1.5;" x="184.049996" xlink:href="#me6bc8f79d9" y="72.012748"/>
     <use style="fill-opacity:0;stroke:#ff00ff;stroke-linejoin:miter;stroke-width:1.5;" x="192.609305" xlink:href="#me6bc8f79d9" y="44.021228"/>
     <use style="fill-opacity:0;stroke:#ff00ff;stroke-linejoin:miter;stroke-width:1.5;" x="192.609305" xlink:href="#me6bc8f79d9" y="44.021228"/>
     <use style="fill-opacity:0;stroke:#ff00ff;stroke-linejoin:miter;stroke-width:1.5;" x="338.688" xlink:href="#me6bc8f79d9" y="44.021228"/>
    </g>
   </g>
   <g id="line2d_49">
    <path style="fill:none;stroke:#ff00ff;stroke-linecap:square;stroke-width:1.5;"/>
    <g/>
   </g>
   <g id="line2d_50">
    <path d="M 338.688 44.021228 
L 369.60768 293.845545 
" style="fill:none;stroke:#ff00ff;stroke-linecap:square;stroke-width:1.5;"/>
    <g>
     <use style="fill-opacity:0;stroke:#ff00ff;stroke-linejoin:miter;stroke-width:1.5;" x="338.688" xlink:href="#me6bc8f79d9" y="44.021228"/>
     <use style="fill-opacity:0;stroke:#ff00ff;stroke-linejoin:miter;stroke-width:1.5;" x="369.60768" xlink:href="#me6bc8f79d9" y="293.845545"/>
    </g>
   </g>
   <g id="line2d_51">
    <path d="M 338.688 44.021228 
L 369.60768 171.482614 
" style="fill:none;stroke:#000080;stroke-linecap:square;stroke-width:1.5;"/>
    <g>
     <use style="fill-opacity:0;stroke:#000080;stroke-width:1.5;" x="338.688" xlink:href="#m38fd71a706" y="44.021228"/>
     <use style="fill-opacity:0;stroke:#000080;stroke-width:1.5;" x="369.60768" xlink:href="#m38fd71a706" y="171.482614"/>
    </g>
   </g>
   <g id="line2d_52">
    <path d="M 338.688 298.944 
L 338.688 44.021228 
" style="fill:none;stroke:#000000;stroke-linecap:square;stroke-width:1.5;"/>
   </g>
   <g id="patch_3">
    <path d="M 57.6 298.944 
L 57.6 41.472 
" style="fill:none;stroke:#000000;stroke-linecap:square;stroke-linejoin:miter;stroke-width:0.8;"/>
   </g>
   <g id="patch_4">
    <path d="M 338.688 298.944 
L 338.688 41.472 
" style="fill:none;stroke:#000000;stroke-linecap:square;stroke-linejoin:miter;stroke-width:0.8;"/>
   </g>
   <g id="patch_5">
    <path d="M 57.6 298.944 
L 338.688 298.944 
" style="fill:none;stroke:#000000;stroke-linecap:square;stroke-linejoin:miter;stroke-width:0.8;"/>
   </g>
   <g id="patch_6">
    <path d="M 57.6 41.472 
L 338.688 41.472 
" style="fill:none;stroke:#000000;stroke-linecap:square;stroke-linejoin:miter;stroke-width:0.8;"/>
   </g>
   <g id="text_13">
    <!-- lq-CMA-ES -->
    <defs>
     <path d="M 14.796875 27.296875 
Q 14.796875 17.390625 18.875 11.75 
Q 22.953125 6.109375 30.078125 6.109375 
Q 37.203125 6.109375 41.296875 11.75 
Q 45.40625 17.390625 45.40625 27.296875 
Q 45.40625 37.203125 41.296875 42.84375 
Q 37.203125 48.484375 30.078125 48.484375 
Q 22.953125 48.484375 18.875 42.84375 
Q 14.796875 37.203125 14.796875 27.296875 
z
M 45.40625 8.203125 
Q 42.578125 3.328125 38.25 0.953125 
Q 33.9375 -1.421875 27.875 -1.421875 
Q 17.96875 -1.421875 11.734375 6.484375 
Q 5.515625 14.40625 5.515625 27.296875 
Q 5.515625 40.1875 11.734375 48.09375 
Q 17.96875 56 27.875 56 
Q 33.9375 56 38.25 53.625 
Q 42.578125 51.265625 45.40625 46.390625 
L 45.40625 54.6875 
L 54.390625 54.6875 
L 54.390625 -20.796875 
L 45.40625 -20.796875 
z
" id="DejaVuSans-113"/>
     <path d="M 64.40625 67.28125 
L 64.40625 56.890625 
Q 59.421875 61.53125 53.78125 63.8125 
Q 48.140625 66.109375 41.796875 66.109375 
Q 29.296875 66.109375 22.65625 58.46875 
Q 16.015625 50.828125 16.015625 36.375 
Q 16.015625 21.96875 22.65625 14.328125 
Q 29.296875 6.6875 41.796875 6.6875 
Q 48.140625 6.6875 53.78125 8.984375 
Q 59.421875 11.28125 64.40625 15.921875 
L 64.40625 5.609375 
Q 59.234375 2.09375 53.4375 0.328125 
Q 47.65625 -1.421875 41.21875 -1.421875 
Q 24.65625 -1.421875 15.125 8.703125 
Q 5.609375 18.84375 5.609375 36.375 
Q 5.609375 53.953125 15.125 64.078125 
Q 24.65625 74.21875 41.21875 74.21875 
Q 47.75 74.21875 53.53125 72.484375 
Q 59.328125 70.75 64.40625 67.28125 
z
" id="DejaVuSans-67"/>
     <path d="M 9.8125 72.90625 
L 24.515625 72.90625 
L 43.109375 23.296875 
L 61.8125 72.90625 
L 76.515625 72.90625 
L 76.515625 0 
L 66.890625 0 
L 66.890625 64.015625 
L 48.09375 14.015625 
L 38.1875 14.015625 
L 19.390625 64.015625 
L 19.390625 0 
L 9.8125 0 
z
" id="DejaVuSans-77"/>
     <path d="M 34.1875 63.1875 
L 20.796875 26.90625 
L 47.609375 26.90625 
z
M 28.609375 72.90625 
L 39.796875 72.90625 
L 67.578125 0 
L 57.328125 0 
L 50.6875 18.703125 
L 17.828125 18.703125 
L 11.1875 0 
L 0.78125 0 
z
" id="DejaVuSans-65"/>
     <path d="M 9.8125 72.90625 
L 55.90625 72.90625 
L 55.90625 64.59375 
L 19.671875 64.59375 
L 19.671875 43.015625 
L 54.390625 43.015625 
L 54.390625 34.71875 
L 19.671875 34.71875 
L 19.671875 8.296875 
L 56.78125 8.296875 
L 56.78125 0 
L 9.8125 0 
z
" id="DejaVuSans-69"/>
     <path d="M 53.515625 70.515625 
L 53.515625 60.890625 
Q 47.90625 63.578125 42.921875 64.890625 
Q 37.9375 66.21875 33.296875 66.21875 
Q 25.25 66.21875 20.875 63.09375 
Q 16.5 59.96875 16.5 54.203125 
Q 16.5 49.359375 19.40625 46.890625 
Q 22.3125 44.4375 30.421875 42.921875 
L 36.375 41.703125 
Q 47.40625 39.59375 52.65625 34.296875 
Q 57.90625 29 57.90625 20.125 
Q 57.90625 9.515625 50.796875 4.046875 
Q 43.703125 -1.421875 29.984375 -1.421875 
Q 24.8125 -1.421875 18.96875 -0.25 
Q 13.140625 0.921875 6.890625 3.21875 
L 6.890625 13.375 
Q 12.890625 10.015625 18.65625 8.296875 
Q 24.421875 6.59375 29.984375 6.59375 
Q 38.421875 6.59375 43.015625 9.90625 
Q 47.609375 13.234375 47.609375 19.390625 
Q 47.609375 24.75 44.3125 27.78125 
Q 41.015625 30.8125 33.5 32.328125 
L 27.484375 33.5 
Q 16.453125 35.6875 11.515625 40.375 
Q 6.59375 45.0625 6.59375 53.421875 
Q 6.59375 63.09375 13.40625 68.65625 
Q 20.21875 74.21875 32.171875 74.21875 
Q 37.3125 74.21875 42.625 73.28125 
Q 47.953125 72.359375 53.515625 70.515625 
z
" id="DejaVuSans-83"/>
    </defs>
    <g transform="translate(375.22944 298.536482)scale(0.17 -0.17)">
     <use xlink:href="#DejaVuSans-108"/>
     <use x="27.783203" xlink:href="#DejaVuSans-113"/>
     <use x="91.259766" xlink:href="#DejaVuSans-45"/>
     <use x="127.34375" xlink:href="#DejaVuSans-67"/>
     <use x="197.167969" xlink:href="#DejaVuSans-77"/>
     <use x="283.447266" xlink:href="#DejaVuSans-65"/>
     <use x="351.824219" xlink:href="#DejaVuSans-45"/>
     <use x="387.908203" xlink:href="#DejaVuSans-69"/>
     <use x="451.091797" xlink:href="#DejaVuSans-83"/>
    </g>
   </g>
   <g id="text_14">
    <!-- CMA-ES  2 -->
    <g transform="translate(375.22944 176.173551)scale(0.17 -0.17)">
     <use xlink:href="#DejaVuSans-67"/>
     <use x="69.824219" xlink:href="#DejaVuSans-77"/>
     <use x="156.103516" xlink:href="#DejaVuSans-65"/>
     <use x="224.480469" xlink:href="#DejaVuSans-45"/>
     <use x="260.564453" xlink:href="#DejaVuSans-69"/>
     <use x="323.748047" xlink:href="#DejaVuSans-83"/>
     <use x="387.224609" xlink:href="#DejaVuSans-32"/>
     <use x="419.011719" xlink:href="#DejaVuSans-32"/>
     <use x="450.798828" xlink:href="#DejaVuSans-50"/>
    </g>
   </g>
   <g id="text_15">
    <!-- best 2009 -->
    <defs>
     <path d="M 48.6875 27.296875 
Q 48.6875 37.203125 44.609375 42.84375 
Q 40.53125 48.484375 33.40625 48.484375 
Q 26.265625 48.484375 22.1875 42.84375 
Q 18.109375 37.203125 18.109375 27.296875 
Q 18.109375 17.390625 22.1875 11.75 
Q 26.265625 6.109375 33.40625 6.109375 
Q 40.53125 6.109375 44.609375 11.75 
Q 48.6875 17.390625 48.6875 27.296875 
z
M 18.109375 46.390625 
Q 20.953125 51.265625 25.265625 53.625 
Q 29.59375 56 35.59375 56 
Q 45.5625 56 51.78125 48.09375 
Q 58.015625 40.1875 58.015625 27.296875 
Q 58.015625 14.40625 51.78125 6.484375 
Q 45.5625 -1.421875 35.59375 -1.421875 
Q 29.59375 -1.421875 25.265625 0.953125 
Q 20.953125 3.328125 18.109375 8.203125 
L 18.109375 0 
L 9.078125 0 
L 9.078125 75.984375 
L 18.109375 75.984375 
z
" id="DejaVuSans-98"/>
     <path d="M 10.984375 1.515625 
L 10.984375 10.5 
Q 14.703125 8.734375 18.5 7.8125 
Q 22.3125 6.890625 25.984375 6.890625 
Q 35.75 6.890625 40.890625 13.453125 
Q 46.046875 20.015625 46.78125 33.40625 
Q 43.953125 29.203125 39.59375 26.953125 
Q 35.25 24.703125 29.984375 24.703125 
Q 19.046875 24.703125 12.671875 31.3125 
Q 6.296875 37.9375 6.296875 49.421875 
Q 6.296875 60.640625 12.9375 67.421875 
Q 19.578125 74.21875 30.609375 74.21875 
Q 43.265625 74.21875 49.921875 64.515625 
Q 56.59375 54.828125 56.59375 36.375 
Q 56.59375 19.140625 48.40625 8.859375 
Q 40.234375 -1.421875 26.421875 -1.421875 
Q 22.703125 -1.421875 18.890625 -0.6875 
Q 15.09375 0.046875 10.984375 1.515625 
z
M 30.609375 32.421875 
Q 37.25 32.421875 41.125 36.953125 
Q 45.015625 41.5 45.015625 49.421875 
Q 45.015625 57.28125 41.125 61.84375 
Q 37.25 66.40625 30.609375 66.40625 
Q 23.96875 66.40625 20.09375 61.84375 
Q 16.21875 57.28125 16.21875 49.421875 
Q 16.21875 41.5 20.09375 36.953125 
Q 23.96875 32.421875 30.609375 32.421875 
z
" id="DejaVuSans-57"/>
    </defs>
    <g transform="translate(375.22944 53.810621)scale(0.17 -0.17)">
     <use xlink:href="#DejaVuSans-98"/>
     <use x="63.476562" xlink:href="#DejaVuSans-101"/>
     <use x="125" xlink:href="#DejaVuSans-115"/>
     <use x="177.099609" xlink:href="#DejaVuSans-116"/>
     <use x="216.308594" xlink:href="#DejaVuSans-32"/>
     <use x="248.095703" xlink:href="#DejaVuSans-50"/>
     <use x="311.71875" xlink:href="#DejaVuSans-48"/>
     <use x="375.341797" xlink:href="#DejaVuSans-48"/>
     <use x="438.964844" xlink:href="#DejaVuSans-57"/>
    </g>
   </g>
   <g id="text_16">
    <!-- bbob f18, 3-D -->
    <defs>
     <path d="M 40.578125 39.3125 
Q 47.65625 37.796875 51.625 33 
Q 55.609375 28.21875 55.609375 21.1875 
Q 55.609375 10.40625 48.1875 4.484375 
Q 40.765625 -1.421875 27.09375 -1.421875 
Q 22.515625 -1.421875 17.65625 -0.515625 
Q 12.796875 0.390625 7.625 2.203125 
L 7.625 11.71875 
Q 11.71875 9.328125 16.59375 8.109375 
Q 21.484375 6.890625 26.8125 6.890625 
Q 36.078125 6.890625 40.9375 10.546875 
Q 45.796875 14.203125 45.796875 21.1875 
Q 45.796875 27.640625 41.28125 31.265625 
Q 36.765625 34.90625 28.71875 34.90625 
L 20.21875 34.90625 
L 20.21875 43.015625 
L 29.109375 43.015625 
Q 36.375 43.015625 40.234375 45.921875 
Q 44.09375 48.828125 44.09375 54.296875 
Q 44.09375 59.90625 40.109375 62.90625 
Q 36.140625 65.921875 28.71875 65.921875 
Q 24.65625 65.921875 20.015625 65.03125 
Q 15.375 64.15625 9.8125 62.3125 
L 9.8125 71.09375 
Q 15.4375 72.65625 20.34375 73.4375 
Q 25.25 74.21875 29.59375 74.21875 
Q 40.828125 74.21875 47.359375 69.109375 
Q 53.90625 64.015625 53.90625 55.328125 
Q 53.90625 49.265625 50.4375 45.09375 
Q 46.96875 40.921875 40.578125 39.3125 
z
" id="DejaVuSans-51"/>
     <path d="M 19.671875 64.796875 
L 19.671875 8.109375 
L 31.59375 8.109375 
Q 46.6875 8.109375 53.6875 14.9375 
Q 60.6875 21.78125 60.6875 36.53125 
Q 60.6875 51.171875 53.6875 57.984375 
Q 46.6875 64.796875 31.59375 64.796875 
z
M 9.8125 72.90625 
L 30.078125 72.90625 
Q 51.265625 72.90625 61.171875 64.09375 
Q 71.09375 55.28125 71.09375 36.53125 
Q 71.09375 17.671875 61.125 8.828125 
Q 51.171875 0 30.078125 0 
L 9.8125 0 
z
" id="DejaVuSans-68"/>
    </defs>
    <g transform="translate(60.41088 51.797126)scale(0.102 -0.102)">
     <use xlink:href="#DejaVuSans-98"/>
     <use x="63.476562" xlink:href="#DejaVuSans-98"/>
     <use x="126.953125" xlink:href="#DejaVuSans-111"/>
     <use x="188.134766" xlink:href="#DejaVuSans-98"/>
     <use x="251.611328" xlink:href="#DejaVuSans-32"/>
     <use x="283.398438" xlink:href="#DejaVuSans-102"/>
     <use x="318.603516" xlink:href="#DejaVuSans-49"/>
     <use x="382.226562" xlink:href="#DejaVuSans-56"/>
     <use x="445.849609" xlink:href="#DejaVuSans-44"/>
     <use x="477.636719" xlink:href="#DejaVuSans-32"/>
     <use x="509.423828" xlink:href="#DejaVuSans-51"/>
     <use x="573.046875" xlink:href="#DejaVuSans-45"/>
     <use x="609.130859" xlink:href="#DejaVuSans-68"/>
    </g>
    <!-- 51 targets: 100..1e-08 -->
    <defs>
     <path d="M 10.796875 72.90625 
L 49.515625 72.90625 
L 49.515625 64.59375 
L 19.828125 64.59375 
L 19.828125 46.734375 
Q 21.96875 47.46875 24.109375 47.828125 
Q 26.265625 48.1875 28.421875 48.1875 
Q 40.625 48.1875 47.75 41.5 
Q 54.890625 34.8125 54.890625 23.390625 
Q 54.890625 11.625 47.5625 5.09375 
Q 40.234375 -1.421875 26.90625 -1.421875 
Q 22.3125 -1.421875 17.546875 -0.640625 
Q 12.796875 0.140625 7.71875 1.703125 
L 7.71875 11.625 
Q 12.109375 9.234375 16.796875 8.0625 
Q 21.484375 6.890625 26.703125 6.890625 
Q 35.15625 6.890625 40.078125 11.328125 
Q 45.015625 15.765625 45.015625 23.390625 
Q 45.015625 31 40.078125 35.4375 
Q 35.15625 39.890625 26.703125 39.890625 
Q 22.75 39.890625 18.8125 39.015625 
Q 14.890625 38.140625 10.796875 36.28125 
z
" id="DejaVuSans-53"/>
     <path d="M 11.71875 12.40625 
L 22.015625 12.40625 
L 22.015625 0 
L 11.71875 0 
z
M 11.71875 51.703125 
L 22.015625 51.703125 
L 22.015625 39.3125 
L 11.71875 39.3125 
z
" id="DejaVuSans-58"/>
    </defs>
    <g transform="translate(60.41088 63.218895)scale(0.102 -0.102)">
     <use xlink:href="#DejaVuSans-53"/>
     <use x="63.623047" xlink:href="#DejaVuSans-49"/>
     <use x="127.246094" xlink:href="#DejaVuSans-32"/>
     <use x="159.033203" xlink:href="#DejaVuSans-116"/>
     <use x="198.242188" xlink:href="#DejaVuSans-97"/>
     <use x="259.521484" xlink:href="#DejaVuSans-114"/>
     <use x="300.619141" xlink:href="#DejaVuSans-103"/>
     <use x="364.095703" xlink:href="#DejaVuSans-101"/>
     <use x="425.619141" xlink:href="#DejaVuSans-116"/>
     <use x="464.828125" xlink:href="#DejaVuSans-115"/>
     <use x="516.927734" xlink:href="#DejaVuSans-58"/>
     <use x="550.619141" xlink:href="#DejaVuSans-32"/>
     <use x="582.40625" xlink:href="#DejaVuSans-49"/>
     <use x="646.029297" xlink:href="#DejaVuSans-48"/>
     <use x="709.652344" xlink:href="#DejaVuSans-48"/>
     <use x="773.275391" xlink:href="#DejaVuSans-46"/>
     <use x="805.0625" xlink:href="#DejaVuSans-46"/>
     <use x="836.849609" xlink:href="#DejaVuSans-49"/>
     <use x="900.472656" xlink:href="#DejaVuSans-101"/>
     <use x="961.996094" xlink:href="#DejaVuSans-45"/>
     <use x="998.080078" xlink:href="#DejaVuSans-48"/>
     <use x="1061.703125" xlink:href="#DejaVuSans-56"/>
    </g>
    <!-- 15 instances -->
    <g transform="translate(60.41088 74.640664)scale(0.102 -0.102)">
     <use xlink:href="#DejaVuSans-49"/>
     <use x="63.623047" xlink:href="#DejaVuSans-53"/>
     <use x="127.246094" xlink:href="#DejaVuSans-32"/>
     <use x="159.033203" xlink:href="#DejaVuSans-105"/>
     <use x="186.816406" xlink:href="#DejaVuSans-110"/>
     <use x="250.195312" xlink:href="#DejaVuSans-115"/>
     <use x="302.294922" xlink:href="#DejaVuSans-116"/>
     <use x="341.503906" xlink:href="#DejaVuSans-97"/>
     <use x="402.783203" xlink:href="#DejaVuSans-110"/>
     <use x="466.162109" xlink:href="#DejaVuSans-99"/>
     <use x="521.142578" xlink:href="#DejaVuSans-101"/>
     <use x="582.666016" xlink:href="#DejaVuSans-115"/>
    </g>
   </g>
   <g id="text_17">
    <!-- v2.3.1.30 -->
    <g style="fill:#808080;" transform="translate(174.511187 294.289592)scale(0.1 -0.1)">
     <use xlink:href="#DejaVuSans-118"/>
     <use x="59.179688" xlink:href="#DejaVuSans-50"/>
     <use x="122.802734" xlink:href="#DejaVuSans-46"/>
     <use x="154.589844" xlink:href="#DejaVuSans-51"/>
     <use x="218.212891" xlink:href="#DejaVuSans-46"/>
     <use x="250" xlink:href="#DejaVuSans-49"/>
     <use x="313.623047" xlink:href="#DejaVuSans-46"/>
     <use x="345.410156" xlink:href="#DejaVuSans-51"/>
     <use x="409.033203" xlink:href="#DejaVuSans-48"/>
    </g>
   </g>
   <g id="text_18">
    <!-- 18 Schaffer F7, condition 1000 -->
    <defs>
     <path d="M 54.890625 33.015625 
L 54.890625 0 
L 45.90625 0 
L 45.90625 32.71875 
Q 45.90625 40.484375 42.875 44.328125 
Q 39.84375 48.1875 33.796875 48.1875 
Q 26.515625 48.1875 22.3125 43.546875 
Q 18.109375 38.921875 18.109375 30.90625 
L 18.109375 0 
L 9.078125 0 
L 9.078125 75.984375 
L 18.109375 75.984375 
L 18.109375 46.1875 
Q 21.34375 51.125 25.703125 53.5625 
Q 30.078125 56 35.796875 56 
Q 45.21875 56 50.046875 50.171875 
Q 54.890625 44.34375 54.890625 33.015625 
z
" id="DejaVuSans-104"/>
     <path d="M 8.203125 72.90625 
L 55.078125 72.90625 
L 55.078125 68.703125 
L 28.609375 0 
L 18.3125 0 
L 43.21875 64.59375 
L 8.203125 64.59375 
z
" id="DejaVuSans-55"/>
    </defs>
    <g transform="translate(44.111187 35.472)scale(0.2 -0.2)">
     <use xlink:href="#DejaVuSans-49"/>
     <use x="63.623047" xlink:href="#DejaVuSans-56"/>
     <use x="127.246094" xlink:href="#DejaVuSans-32"/>
     <use x="159.033203" xlink:href="#DejaVuSans-83"/>
     <use x="222.509766" xlink:href="#DejaVuSans-99"/>
     <use x="277.490234" xlink:href="#DejaVuSans-104"/>
     <use x="340.869141" xlink:href="#DejaVuSans-97"/>
     <use x="402.148438" xlink:href="#DejaVuSans-102"/>
     <use x="437.353516" xlink:href="#DejaVuSans-102"/>
     <use x="472.558594" xlink:href="#DejaVuSans-101"/>
     <use x="534.082031" xlink:href="#DejaVuSans-114"/>
     <use x="575.195312" xlink:href="#DejaVuSans-32"/>
     <use x="606.982422" xlink:href="#DejaVuSans-70"/>
     <use x="664.501953" xlink:href="#DejaVuSans-55"/>
     <use x="728.125" xlink:href="#DejaVuSans-44"/>
     <use x="759.912109" xlink:href="#DejaVuSans-32"/>
     <use x="791.699219" xlink:href="#DejaVuSans-99"/>
     <use x="846.679688" xlink:href="#DejaVuSans-111"/>
     <use x="907.861328" xlink:href="#DejaVuSans-110"/>
     <use x="971.240234" xlink:href="#DejaVuSans-100"/>
     <use x="1034.716797" xlink:href="#DejaVuSans-105"/>
     <use x="1062.5" xlink:href="#DejaVuSans-116"/>
     <use x="1101.708984" xlink:href="#DejaVuSans-105"/>
     <use x="1129.492188" xlink:href="#DejaVuSans-111"/>
     <use x="1190.673828" xlink:href="#DejaVuSans-110"/>
     <use x="1254.052734" xlink:href="#DejaVuSans-32"/>
     <use x="1285.839844" xlink:href="#DejaVuSans-49"/>
     <use x="1349.462891" xlink:href="#DejaVuSans-48"/>
     <use x="1413.085938" xlink:href="#DejaVuSans-48"/>
     <use x="1476.708984" xlink:href="#DejaVuSans-48"/>
    </g>
   </g>
  </g>
 </g>
 <defs>
  <clipPath id="p4583a3e4f2">
   <rect height="257.472" width="281.088" x="57.6" y="41.472"/>
  </clipPath>
 </defs>
</svg>
