<?xml version="1.0" encoding="utf-8" standalone="no"?>
<!DOCTYPE svg PUBLIC "-//W3C//DTD SVG 1.1//EN"
  "http://www.w3.org/Graphics/SVG/1.1/DTD/svg11.dtd">
<!-- Created with matplotlib (https://matplotlib.org/) -->
<svg height="345.6pt" version="1.1" viewBox="0 0 460.8 345.6" width="460.8pt" xmlns="http://www.w3.org/2000/svg" xmlns:xlink="http://www.w3.org/1999/xlink">
 <defs>
  <style type="text/css">
*{stroke-linecap:butt;stroke-linejoin:round;}
  </style>
 </defs>
 <g id="figure_1">
  <g id="patch_1">
   <path d="M 0 345.6 
L 460.8 345.6 
L 460.8 0 
L 0 0 
z
" style="fill:#ffffff;"/>
  </g>
  <g id="axes_1">
   <g id="patch_2">
    <path d="M 57.6 298.944 
L 338.688 298.944 
L 338.688 41.472 
L 57.6 41.472 
z
" style="fill:#ffffff;"/>
   </g>
   <g id="matplotlib.axis_1">
    <g id="xtick_1">
     <g id="line2d_1">
      <path clip-path="url(#pb7440660b6)" d="M 57.6 298.944 
L 57.6 41.472 
" style="fill:none;stroke:#b0b0b0;stroke-linecap:square;stroke-width:0.8;"/>
     </g>
     <g id="line2d_2">
      <defs>
       <path d="M 0 0 
L 0 3.5 
" id="m96dbb670bc" style="stroke:#000000;stroke-width:0.8;"/>
      </defs>
      <g>
       <use style="stroke:#000000;stroke-width:0.8;" x="57.6" xlink:href="#m96dbb670bc" y="298.944"/>
      </g>
     </g>
     <g id="text_1">
      <!-- 0 -->
      <defs>
       <path d="M 31.78125 66.40625 
Q 24.171875 66.40625 20.328125 58.90625 
Q 16.5 51.421875 16.5 36.375 
Q 16.5 21.390625 20.328125 13.890625 
Q 24.171875 6.390625 31.78125 6.390625 
Q 39.453125 6.390625 43.28125 13.890625 
Q 47.125 21.390625 47.125 36.375 
Q 47.125 51.421875 43.28125 58.90625 
Q 39.453125 66.40625 31.78125 66.40625 
z
M 31.78125 74.21875 
Q 44.046875 74.21875 50.515625 64.515625 
Q 56.984375 54.828125 56.984375 36.375 
Q 56.984375 17.96875 50.515625 8.265625 
Q 44.046875 -1.421875 31.78125 -1.421875 
Q 19.53125 -1.421875 13.0625 8.265625 
Q 6.59375 17.96875 6.59375 36.375 
Q 6.59375 54.828125 13.0625 64.515625 
Q 19.53125 74.21875 31.78125 74.21875 
z
" id="DejaVuSans-48"/>
      </defs>
      <g transform="translate(51.2375 321.140875)scale(0.2 -0.2)">
       <use xlink:href="#DejaVuSans-48"/>
      </g>
     </g>
    </g>
    <g id="xtick_2">
     <g id="line2d_3">
      <path clip-path="url(#pb7440660b6)" d="M 137.910857 298.944 
L 137.910857 41.472 
" style="fill:none;stroke:#b0b0b0;stroke-linecap:square;stroke-width:0.8;"/>
     </g>
     <g id="line2d_4">
      <g>
       <use style="stroke:#000000;stroke-width:0.8;" x="137.910857" xlink:href="#m96dbb670bc" y="298.944"/>
      </g>
     </g>
     <g id="text_2">
      <!-- 2 -->
      <defs>
       <path d="M 19.1875 8.296875 
L 53.609375 8.296875 
L 53.609375 0 
L 7.328125 0 
L 7.328125 8.296875 
Q 12.9375 14.109375 22.625 23.890625 
Q 32.328125 33.6875 34.8125 36.53125 
Q 39.546875 41.84375 41.421875 45.53125 
Q 43.3125 49.21875 43.3125 52.78125 
Q 43.3125 58.59375 39.234375 62.25 
Q 35.15625 65.921875 28.609375 65.921875 
Q 23.96875 65.921875 18.8125 64.3125 
Q 13.671875 62.703125 7.8125 59.421875 
L 7.8125 69.390625 
Q 13.765625 71.78125 18.9375 73 
Q 24.125 74.21875 28.421875 74.21875 
Q 39.75 74.21875 46.484375 68.546875 
Q 53.21875 62.890625 53.21875 53.421875 
Q 53.21875 48.921875 51.53125 44.890625 
Q 49.859375 40.875 45.40625 35.40625 
Q 44.1875 33.984375 37.640625 27.21875 
Q 31.109375 20.453125 19.1875 8.296875 
z
" id="DejaVuSans-50"/>
      </defs>
      <g transform="translate(131.548357 321.140875)scale(0.2 -0.2)">
       <use xlink:href="#DejaVuSans-50"/>
      </g>
     </g>
    </g>
    <g id="xtick_3">
     <g id="line2d_5">
      <path clip-path="url(#pb7440660b6)" d="M 218.221714 298.944 
L 218.221714 41.472 
" style="fill:none;stroke:#b0b0b0;stroke-linecap:square;stroke-width:0.8;"/>
     </g>
     <g id="line2d_6">
      <g>
       <use style="stroke:#000000;stroke-width:0.8;" x="218.221714" xlink:href="#m96dbb670bc" y="298.944"/>
      </g>
     </g>
     <g id="text_3">
      <!-- 4 -->
      <defs>
       <path d="M 37.796875 64.3125 
L 12.890625 25.390625 
L 37.796875 25.390625 
z
M 35.203125 72.90625 
L 47.609375 72.90625 
L 47.609375 25.390625 
L 58.015625 25.390625 
L 58.015625 17.1875 
L 47.609375 17.1875 
L 47.609375 0 
L 37.796875 0 
L 37.796875 17.1875 
L 4.890625 17.1875 
L 4.890625 26.703125 
z
" id="DejaVuSans-52"/>
      </defs>
      <g transform="translate(211.859214 321.140875)scale(0.2 -0.2)">
       <use xlink:href="#DejaVuSans-52"/>
      </g>
     </g>
    </g>
    <g id="xtick_4">
     <g id="line2d_7">
      <path clip-path="url(#pb7440660b6)" d="M 298.532571 298.944 
L 298.532571 41.472 
" style="fill:none;stroke:#b0b0b0;stroke-linecap:square;stroke-width:0.8;"/>
     </g>
     <g id="line2d_8">
      <g>
       <use style="stroke:#000000;stroke-width:0.8;" x="298.532571" xlink:href="#m96dbb670bc" y="298.944"/>
      </g>
     </g>
     <g id="text_4">
      <!-- 6 -->
      <defs>
       <path d="M 33.015625 40.375 
Q 26.375 40.375 22.484375 35.828125 
Q 18.609375 31.296875 18.609375 23.390625 
Q 18.609375 15.53125 22.484375 10.953125 
Q 26.375 6.390625 33.015625 6.390625 
Q 39.65625 6.390625 43.53125 10.953125 
Q 47.40625 15.53125 47.40625 23.390625 
Q 47.40625 31.296875 43.53125 35.828125 
Q 39.65625 40.375 33.015625 40.375 
z
M 52.59375 71.296875 
L 52.59375 62.3125 
Q 48.875 64.0625 45.09375 64.984375 
Q 41.3125 65.921875 37.59375 65.921875 
Q 27.828125 65.921875 22.671875 59.328125 
Q 17.53125 52.734375 16.796875 39.40625 
Q 19.671875 43.65625 24.015625 45.921875 
Q 28.375 48.1875 33.59375 48.1875 
Q 44.578125 48.1875 50.953125 41.515625 
Q 57.328125 34.859375 57.328125 23.390625 
Q 57.328125 12.15625 50.6875 5.359375 
Q 44.046875 -1.421875 33.015625 -1.421875 
Q 20.359375 -1.421875 13.671875 8.265625 
Q 6.984375 17.96875 6.984375 36.375 
Q 6.984375 53.65625 15.1875 63.9375 
Q 23.390625 74.21875 37.203125 74.21875 
Q 40.921875 74.21875 44.703125 73.484375 
Q 48.484375 72.75 52.59375 71.296875 
z
" id="DejaVuSans-54"/>
      </defs>
      <g transform="translate(292.170071 321.140875)scale(0.2 -0.2)">
       <use xlink:href="#DejaVuSans-54"/>
      </g>
     </g>
    </g>
    <g id="xtick_5">
     <g id="line2d_9">
      <path clip-path="url(#pb7440660b6)" d="M 57.6 298.944 
L 57.6 41.472 
" style="fill:none;stroke:#b0b0b0;stroke-linecap:square;stroke-width:0.8;"/>
     </g>
     <g id="line2d_10">
      <defs>
       <path d="M 0 0 
L 0 2 
" id="m0b0164b6ed" style="stroke:#000000;stroke-width:0.6;"/>
      </defs>
      <g>
       <use style="stroke:#000000;stroke-width:0.6;" x="57.6" xlink:href="#m0b0164b6ed" y="298.944"/>
      </g>
     </g>
    </g>
    <g id="xtick_6">
     <g id="line2d_11">
      <path clip-path="url(#pb7440660b6)" d="M 97.755429 298.944 
L 97.755429 41.472 
" style="fill:none;stroke:#b0b0b0;stroke-linecap:square;stroke-width:0.8;"/>
     </g>
     <g id="line2d_12">
      <g>
       <use style="stroke:#000000;stroke-width:0.6;" x="97.755429" xlink:href="#m0b0164b6ed" y="298.944"/>
      </g>
     </g>
    </g>
    <g id="xtick_7">
     <g id="line2d_13">
      <path clip-path="url(#pb7440660b6)" d="M 137.910857 298.944 
L 137.910857 41.472 
" style="fill:none;stroke:#b0b0b0;stroke-linecap:square;stroke-width:0.8;"/>
     </g>
     <g id="line2d_14">
      <g>
       <use style="stroke:#000000;stroke-width:0.6;" x="137.910857" xlink:href="#m0b0164b6ed" y="298.944"/>
      </g>
     </g>
    </g>
    <g id="xtick_8">
     <g id="line2d_15">
      <path clip-path="url(#pb7440660b6)" d="M 178.066286 298.944 
L 178.066286 41.472 
" style="fill:none;stroke:#b0b0b0;stroke-linecap:square;stroke-width:0.8;"/>
     </g>
     <g id="line2d_16">
      <g>
       <use style="stroke:#000000;stroke-width:0.6;" x="178.066286" xlink:href="#m0b0164b6ed" y="298.944"/>
      </g>
     </g>
    </g>
    <g id="xtick_9">
     <g id="line2d_17">
      <path clip-path="url(#pb7440660b6)" d="M 218.221714 298.944 
L 218.221714 41.472 
" style="fill:none;stroke:#b0b0b0;stroke-linecap:square;stroke-width:0.8;"/>
     </g>
     <g id="line2d_18">
      <g>
       <use style="stroke:#000000;stroke-width:0.6;" x="218.221714" xlink:href="#m0b0164b6ed" y="298.944"/>
      </g>
     </g>
    </g>
    <g id="xtick_10">
     <g id="line2d_19">
      <path clip-path="url(#pb7440660b6)" d="M 258.377143 298.944 
L 258.377143 41.472 
" style="fill:none;stroke:#b0b0b0;stroke-linecap:square;stroke-width:0.8;"/>
     </g>
     <g id="line2d_20">
      <g>
       <use style="stroke:#000000;stroke-width:0.6;" x="258.377143" xlink:href="#m0b0164b6ed" y="298.944"/>
      </g>
     </g>
    </g>
    <g id="xtick_11">
     <g id="line2d_21">
      <path clip-path="url(#pb7440660b6)" d="M 298.532571 298.944 
L 298.532571 41.472 
" style="fill:none;stroke:#b0b0b0;stroke-linecap:square;stroke-width:0.8;"/>
     </g>
     <g id="line2d_22">
      <g>
       <use style="stroke:#000000;stroke-width:0.6;" x="298.532571" xlink:href="#m0b0164b6ed" y="298.944"/>
      </g>
     </g>
    </g>
    <g id="xtick_12">
     <g id="line2d_23">
      <path clip-path="url(#pb7440660b6)" d="M 338.688 298.944 
L 338.688 41.472 
" style="fill:none;stroke:#b0b0b0;stroke-linecap:square;stroke-width:0.8;"/>
     </g>
     <g id="line2d_24">
      <g>
       <use style="stroke:#000000;stroke-width:0.6;" x="338.688" xlink:href="#m0b0164b6ed" y="298.944"/>
      </g>
     </g>
    </g>
    <g id="text_5">
     <!-- log10(# f-evals / dimension) -->
     <defs>
      <path d="M 9.421875 75.984375 
L 18.40625 75.984375 
L 18.40625 0 
L 9.421875 0 
z
" id="DejaVuSans-108"/>
      <path d="M 30.609375 48.390625 
Q 23.390625 48.390625 19.1875 42.75 
Q 14.984375 37.109375 14.984375 27.296875 
Q 14.984375 17.484375 19.15625 11.84375 
Q 23.34375 6.203125 30.609375 6.203125 
Q 37.796875 6.203125 41.984375 11.859375 
Q 46.1875 17.53125 46.1875 27.296875 
Q 46.1875 37.015625 41.984375 42.703125 
Q 37.796875 48.390625 30.609375 48.390625 
z
M 30.609375 56 
Q 42.328125 56 49.015625 48.375 
Q 55.71875 40.765625 55.71875 27.296875 
Q 55.71875 13.875 49.015625 6.21875 
Q 42.328125 -1.421875 30.609375 -1.421875 
Q 18.84375 -1.421875 12.171875 6.21875 
Q 5.515625 13.875 5.515625 27.296875 
Q 5.515625 40.765625 12.171875 48.375 
Q 18.84375 56 30.609375 56 
z
" id="DejaVuSans-111"/>
      <path d="M 45.40625 27.984375 
Q 45.40625 37.75 41.375 43.109375 
Q 37.359375 48.484375 30.078125 48.484375 
Q 22.859375 48.484375 18.828125 43.109375 
Q 14.796875 37.75 14.796875 27.984375 
Q 14.796875 18.265625 18.828125 12.890625 
Q 22.859375 7.515625 30.078125 7.515625 
Q 37.359375 7.515625 41.375 12.890625 
Q 45.40625 18.265625 45.40625 27.984375 
z
M 54.390625 6.78125 
Q 54.390625 -7.171875 48.1875 -13.984375 
Q 42 -20.796875 29.203125 -20.796875 
Q 24.46875 -20.796875 20.265625 -20.09375 
Q 16.0625 -19.390625 12.109375 -17.921875 
L 12.109375 -9.1875 
Q 16.0625 -11.328125 19.921875 -12.34375 
Q 23.78125 -13.375 27.78125 -13.375 
Q 36.625 -13.375 41.015625 -8.765625 
Q 45.40625 -4.15625 45.40625 5.171875 
L 45.40625 9.625 
Q 42.625 4.78125 38.28125 2.390625 
Q 33.9375 0 27.875 0 
Q 17.828125 0 11.671875 7.65625 
Q 5.515625 15.328125 5.515625 27.984375 
Q 5.515625 40.671875 11.671875 48.328125 
Q 17.828125 56 27.875 56 
Q 33.9375 56 38.28125 53.609375 
Q 42.625 51.21875 45.40625 46.390625 
L 45.40625 54.6875 
L 54.390625 54.6875 
z
" id="DejaVuSans-103"/>
      <path d="M 12.40625 8.296875 
L 28.515625 8.296875 
L 28.515625 63.921875 
L 10.984375 60.40625 
L 10.984375 69.390625 
L 28.421875 72.90625 
L 38.28125 72.90625 
L 38.28125 8.296875 
L 54.390625 8.296875 
L 54.390625 0 
L 12.40625 0 
z
" id="DejaVuSans-49"/>
      <path d="M 31 75.875 
Q 24.46875 64.65625 21.28125 53.65625 
Q 18.109375 42.671875 18.109375 31.390625 
Q 18.109375 20.125 21.3125 9.0625 
Q 24.515625 -2 31 -13.1875 
L 23.1875 -13.1875 
Q 15.875 -1.703125 12.234375 9.375 
Q 8.59375 20.453125 8.59375 31.390625 
Q 8.59375 42.28125 12.203125 53.3125 
Q 15.828125 64.359375 23.1875 75.875 
z
" id="DejaVuSans-40"/>
      <path d="M 51.125 44 
L 36.921875 44 
L 32.8125 27.6875 
L 47.125 27.6875 
z
M 43.796875 71.78125 
L 38.71875 51.515625 
L 52.984375 51.515625 
L 58.109375 71.78125 
L 65.921875 71.78125 
L 60.890625 51.515625 
L 76.125 51.515625 
L 76.125 44 
L 58.984375 44 
L 54.984375 27.6875 
L 70.515625 27.6875 
L 70.515625 20.21875 
L 53.078125 20.21875 
L 48 0 
L 40.1875 0 
L 45.21875 20.21875 
L 30.90625 20.21875 
L 25.875 0 
L 18.015625 0 
L 23.09375 20.21875 
L 7.71875 20.21875 
L 7.71875 27.6875 
L 24.90625 27.6875 
L 29 44 
L 13.28125 44 
L 13.28125 51.515625 
L 30.90625 51.515625 
L 35.890625 71.78125 
z
" id="DejaVuSans-35"/>
      <path id="DejaVuSans-32"/>
      <path d="M 37.109375 75.984375 
L 37.109375 68.5 
L 28.515625 68.5 
Q 23.6875 68.5 21.796875 66.546875 
Q 19.921875 64.59375 19.921875 59.515625 
L 19.921875 54.6875 
L 34.71875 54.6875 
L 34.71875 47.703125 
L 19.921875 47.703125 
L 19.921875 0 
L 10.890625 0 
L 10.890625 47.703125 
L 2.296875 47.703125 
L 2.296875 54.6875 
L 10.890625 54.6875 
L 10.890625 58.5 
Q 10.890625 67.625 15.140625 71.796875 
Q 19.390625 75.984375 28.609375 75.984375 
z
" id="DejaVuSans-102"/>
      <path d="M 4.890625 31.390625 
L 31.203125 31.390625 
L 31.203125 23.390625 
L 4.890625 23.390625 
z
" id="DejaVuSans-45"/>
      <path d="M 56.203125 29.59375 
L 56.203125 25.203125 
L 14.890625 25.203125 
Q 15.484375 15.921875 20.484375 11.0625 
Q 25.484375 6.203125 34.421875 6.203125 
Q 39.59375 6.203125 44.453125 7.46875 
Q 49.3125 8.734375 54.109375 11.28125 
L 54.109375 2.78125 
Q 49.265625 0.734375 44.1875 -0.34375 
Q 39.109375 -1.421875 33.890625 -1.421875 
Q 20.796875 -1.421875 13.15625 6.1875 
Q 5.515625 13.8125 5.515625 26.8125 
Q 5.515625 40.234375 12.765625 48.109375 
Q 20.015625 56 32.328125 56 
Q 43.359375 56 49.78125 48.890625 
Q 56.203125 41.796875 56.203125 29.59375 
z
M 47.21875 32.234375 
Q 47.125 39.59375 43.09375 43.984375 
Q 39.0625 48.390625 32.421875 48.390625 
Q 24.90625 48.390625 20.390625 44.140625 
Q 15.875 39.890625 15.1875 32.171875 
z
" id="DejaVuSans-101"/>
      <path d="M 2.984375 54.6875 
L 12.5 54.6875 
L 29.59375 8.796875 
L 46.6875 54.6875 
L 56.203125 54.6875 
L 35.6875 0 
L 23.484375 0 
z
" id="DejaVuSans-118"/>
      <path d="M 34.28125 27.484375 
Q 23.390625 27.484375 19.1875 25 
Q 14.984375 22.515625 14.984375 16.5 
Q 14.984375 11.71875 18.140625 8.90625 
Q 21.296875 6.109375 26.703125 6.109375 
Q 34.1875 6.109375 38.703125 11.40625 
Q 43.21875 16.703125 43.21875 25.484375 
L 43.21875 27.484375 
z
M 52.203125 31.203125 
L 52.203125 0 
L 43.21875 0 
L 43.21875 8.296875 
Q 40.140625 3.328125 35.546875 0.953125 
Q 30.953125 -1.421875 24.3125 -1.421875 
Q 15.921875 -1.421875 10.953125 3.296875 
Q 6 8.015625 6 15.921875 
Q 6 25.140625 12.171875 29.828125 
Q 18.359375 34.515625 30.609375 34.515625 
L 43.21875 34.515625 
L 43.21875 35.40625 
Q 43.21875 41.609375 39.140625 45 
Q 35.0625 48.390625 27.6875 48.390625 
Q 23 48.390625 18.546875 47.265625 
Q 14.109375 46.140625 10.015625 43.890625 
L 10.015625 52.203125 
Q 14.9375 54.109375 19.578125 55.046875 
Q 24.21875 56 28.609375 56 
Q 40.484375 56 46.34375 49.84375 
Q 52.203125 43.703125 52.203125 31.203125 
z
" id="DejaVuSans-97"/>
      <path d="M 44.28125 53.078125 
L 44.28125 44.578125 
Q 40.484375 46.53125 36.375 47.5 
Q 32.28125 48.484375 27.875 48.484375 
Q 21.1875 48.484375 17.84375 46.4375 
Q 14.5 44.390625 14.5 40.28125 
Q 14.5 37.15625 16.890625 35.375 
Q 19.28125 33.59375 26.515625 31.984375 
L 29.59375 31.296875 
Q 39.15625 29.25 43.1875 25.515625 
Q 47.21875 21.78125 47.21875 15.09375 
Q 47.21875 7.46875 41.1875 3.015625 
Q 35.15625 -1.421875 24.609375 -1.421875 
Q 20.21875 -1.421875 15.453125 -0.5625 
Q 10.6875 0.296875 5.421875 2 
L 5.421875 11.28125 
Q 10.40625 8.6875 15.234375 7.390625 
Q 20.0625 6.109375 24.8125 6.109375 
Q 31.15625 6.109375 34.5625 8.28125 
Q 37.984375 10.453125 37.984375 14.40625 
Q 37.984375 18.0625 35.515625 20.015625 
Q 33.0625 21.96875 24.703125 23.78125 
L 21.578125 24.515625 
Q 13.234375 26.265625 9.515625 29.90625 
Q 5.8125 33.546875 5.8125 39.890625 
Q 5.8125 47.609375 11.28125 51.796875 
Q 16.75 56 26.8125 56 
Q 31.78125 56 36.171875 55.265625 
Q 40.578125 54.546875 44.28125 53.078125 
z
" id="DejaVuSans-115"/>
      <path d="M 25.390625 72.90625 
L 33.6875 72.90625 
L 8.296875 -9.28125 
L 0 -9.28125 
z
" id="DejaVuSans-47"/>
      <path d="M 45.40625 46.390625 
L 45.40625 75.984375 
L 54.390625 75.984375 
L 54.390625 0 
L 45.40625 0 
L 45.40625 8.203125 
Q 42.578125 3.328125 38.25 0.953125 
Q 33.9375 -1.421875 27.875 -1.421875 
Q 17.96875 -1.421875 11.734375 6.484375 
Q 5.515625 14.40625 5.515625 27.296875 
Q 5.515625 40.1875 11.734375 48.09375 
Q 17.96875 56 27.875 56 
Q 33.9375 56 38.25 53.625 
Q 42.578125 51.265625 45.40625 46.390625 
z
M 14.796875 27.296875 
Q 14.796875 17.390625 18.875 11.75 
Q 22.953125 6.109375 30.078125 6.109375 
Q 37.203125 6.109375 41.296875 11.75 
Q 45.40625 17.390625 45.40625 27.296875 
Q 45.40625 37.203125 41.296875 42.84375 
Q 37.203125 48.484375 30.078125 48.484375 
Q 22.953125 48.484375 18.875 42.84375 
Q 14.796875 37.203125 14.796875 27.296875 
z
" id="DejaVuSans-100"/>
      <path d="M 9.421875 54.6875 
L 18.40625 54.6875 
L 18.40625 0 
L 9.421875 0 
z
M 9.421875 75.984375 
L 18.40625 75.984375 
L 18.40625 64.59375 
L 9.421875 64.59375 
z
" id="DejaVuSans-105"/>
      <path d="M 52 44.1875 
Q 55.375 50.25 60.0625 53.125 
Q 64.75 56 71.09375 56 
Q 79.640625 56 84.28125 50.015625 
Q 88.921875 44.046875 88.921875 33.015625 
L 88.921875 0 
L 79.890625 0 
L 79.890625 32.71875 
Q 79.890625 40.578125 77.09375 44.375 
Q 74.3125 48.1875 68.609375 48.1875 
Q 61.625 48.1875 57.5625 43.546875 
Q 53.515625 38.921875 53.515625 30.90625 
L 53.515625 0 
L 44.484375 0 
L 44.484375 32.71875 
Q 44.484375 40.625 41.703125 44.40625 
Q 38.921875 48.1875 33.109375 48.1875 
Q 26.21875 48.1875 22.15625 43.53125 
Q 18.109375 38.875 18.109375 30.90625 
L 18.109375 0 
L 9.078125 0 
L 9.078125 54.6875 
L 18.109375 54.6875 
L 18.109375 46.1875 
Q 21.1875 51.21875 25.484375 53.609375 
Q 29.78125 56 35.6875 56 
Q 41.65625 56 45.828125 52.96875 
Q 50 49.953125 52 44.1875 
z
" id="DejaVuSans-109"/>
      <path d="M 54.890625 33.015625 
L 54.890625 0 
L 45.90625 0 
L 45.90625 32.71875 
Q 45.90625 40.484375 42.875 44.328125 
Q 39.84375 48.1875 33.796875 48.1875 
Q 26.515625 48.1875 22.3125 43.546875 
Q 18.109375 38.921875 18.109375 30.90625 
L 18.109375 0 
L 9.078125 0 
L 9.078125 54.6875 
L 18.109375 54.6875 
L 18.109375 46.1875 
Q 21.34375 51.125 25.703125 53.5625 
Q 30.078125 56 35.796875 56 
Q 45.21875 56 50.046875 50.171875 
Q 54.890625 44.34375 54.890625 33.015625 
z
" id="DejaVuSans-110"/>
      <path d="M 8.015625 75.875 
L 15.828125 75.875 
Q 23.140625 64.359375 26.78125 53.3125 
Q 30.421875 42.28125 30.421875 31.390625 
Q 30.421875 20.453125 26.78125 9.375 
Q 23.140625 -1.703125 15.828125 -13.1875 
L 8.015625 -13.1875 
Q 14.5 -2 17.703125 9.0625 
Q 20.90625 20.125 20.90625 31.390625 
Q 20.90625 42.671875 17.703125 53.65625 
Q 14.5 64.65625 8.015625 75.875 
z
" id="DejaVuSans-41"/>
     </defs>
     <g transform="translate(77.303219 342.217594)scale(0.17 -0.17)">
      <use xlink:href="#DejaVuSans-108"/>
      <use x="27.783203" xlink:href="#DejaVuSans-111"/>
      <use x="88.964844" xlink:href="#DejaVuSans-103"/>
      <use x="152.441406" xlink:href="#DejaVuSans-49"/>
      <use x="216.064453" xlink:href="#DejaVuSans-48"/>
      <use x="279.6875" xlink:href="#DejaVuSans-40"/>
      <use x="318.701172" xlink:href="#DejaVuSans-35"/>
      <use x="402.490234" xlink:href="#DejaVuSans-32"/>
      <use x="434.277344" xlink:href="#DejaVuSans-102"/>
      <use x="469.404297" xlink:href="#DejaVuSans-45"/>
      <use x="505.488281" xlink:href="#DejaVuSans-101"/>
      <use x="567.011719" xlink:href="#DejaVuSans-118"/>
      <use x="626.191406" xlink:href="#DejaVuSans-97"/>
      <use x="687.470703" xlink:href="#DejaVuSans-108"/>
      <use x="715.253906" xlink:href="#DejaVuSans-115"/>
      <use x="767.353516" xlink:href="#DejaVuSans-32"/>
      <use x="799.140625" xlink:href="#DejaVuSans-47"/>
      <use x="832.832031" xlink:href="#DejaVuSans-32"/>
      <use x="864.619141" xlink:href="#DejaVuSans-100"/>
      <use x="928.095703" xlink:href="#DejaVuSans-105"/>
      <use x="955.878906" xlink:href="#DejaVuSans-109"/>
      <use x="1053.291016" xlink:href="#DejaVuSans-101"/>
      <use x="1114.814453" xlink:href="#DejaVuSans-110"/>
      <use x="1178.193359" xlink:href="#DejaVuSans-115"/>
      <use x="1230.292969" xlink:href="#DejaVuSans-105"/>
      <use x="1258.076172" xlink:href="#DejaVuSans-111"/>
      <use x="1319.257812" xlink:href="#DejaVuSans-110"/>
      <use x="1382.636719" xlink:href="#DejaVuSans-41"/>
     </g>
    </g>
   </g>
   <g id="matplotlib.axis_2">
    <g id="ytick_1">
     <g id="line2d_25">
      <path clip-path="url(#pb7440660b6)" d="M 57.6 298.944 
L 338.688 298.944 
" style="fill:none;stroke:#b0b0b0;stroke-linecap:square;stroke-width:0.8;"/>
     </g>
     <g id="line2d_26">
      <defs>
       <path d="M 0 0 
L -3.5 0 
" id="m68c3344700" style="stroke:#000000;stroke-width:0.8;"/>
      </defs>
      <g>
       <use style="stroke:#000000;stroke-width:0.8;" x="57.6" xlink:href="#m68c3344700" y="298.944"/>
      </g>
     </g>
     <g id="text_6">
      <!-- 0.0 -->
      <defs>
       <path d="M 10.6875 12.40625 
L 21 12.40625 
L 21 0 
L 10.6875 0 
z
" id="DejaVuSans-46"/>
      </defs>
      <g transform="translate(25.155 305.02275)scale(0.16 -0.16)">
       <use xlink:href="#DejaVuSans-48"/>
       <use x="63.623047" xlink:href="#DejaVuSans-46"/>
       <use x="95.410156" xlink:href="#DejaVuSans-48"/>
      </g>
     </g>
    </g>
    <g id="ytick_2">
     <g id="line2d_27">
      <path clip-path="url(#pb7440660b6)" d="M 57.6 247.959446 
L 338.688 247.959446 
" style="fill:none;stroke:#b0b0b0;stroke-linecap:square;stroke-width:0.8;"/>
     </g>
     <g id="line2d_28">
      <g>
       <use style="stroke:#000000;stroke-width:0.8;" x="57.6" xlink:href="#m68c3344700" y="247.959446"/>
      </g>
     </g>
     <g id="text_7">
      <!-- 0.2 -->
      <g transform="translate(25.155 254.038196)scale(0.16 -0.16)">
       <use xlink:href="#DejaVuSans-48"/>
       <use x="63.623047" xlink:href="#DejaVuSans-46"/>
       <use x="95.410156" xlink:href="#DejaVuSans-50"/>
      </g>
     </g>
    </g>
    <g id="ytick_3">
     <g id="line2d_29">
      <path clip-path="url(#pb7440660b6)" d="M 57.6 196.974891 
L 338.688 196.974891 
" style="fill:none;stroke:#b0b0b0;stroke-linecap:square;stroke-width:0.8;"/>
     </g>
     <g id="line2d_30">
      <g>
       <use style="stroke:#000000;stroke-width:0.8;" x="57.6" xlink:href="#m68c3344700" y="196.974891"/>
      </g>
     </g>
     <g id="text_8">
      <!-- 0.4 -->
      <g transform="translate(25.155 203.053641)scale(0.16 -0.16)">
       <use xlink:href="#DejaVuSans-48"/>
       <use x="63.623047" xlink:href="#DejaVuSans-46"/>
       <use x="95.410156" xlink:href="#DejaVuSans-52"/>
      </g>
     </g>
    </g>
    <g id="ytick_4">
     <g id="line2d_31">
      <path clip-path="url(#pb7440660b6)" d="M 57.6 145.990337 
L 338.688 145.990337 
" style="fill:none;stroke:#b0b0b0;stroke-linecap:square;stroke-width:0.8;"/>
     </g>
     <g id="line2d_32">
      <g>
       <use style="stroke:#000000;stroke-width:0.8;" x="57.6" xlink:href="#m68c3344700" y="145.990337"/>
      </g>
     </g>
     <g id="text_9">
      <!-- 0.6 -->
      <g transform="translate(25.155 152.069087)scale(0.16 -0.16)">
       <use xlink:href="#DejaVuSans-48"/>
       <use x="63.623047" xlink:href="#DejaVuSans-46"/>
       <use x="95.410156" xlink:href="#DejaVuSans-54"/>
      </g>
     </g>
    </g>
    <g id="ytick_5">
     <g id="line2d_33">
      <path clip-path="url(#pb7440660b6)" d="M 57.6 95.005782 
L 338.688 95.005782 
" style="fill:none;stroke:#b0b0b0;stroke-linecap:square;stroke-width:0.8;"/>
     </g>
     <g id="line2d_34">
      <g>
       <use style="stroke:#000000;stroke-width:0.8;" x="57.6" xlink:href="#m68c3344700" y="95.005782"/>
      </g>
     </g>
     <g id="text_10">
      <!-- 0.8 -->
      <defs>
       <path d="M 31.78125 34.625 
Q 24.75 34.625 20.71875 30.859375 
Q 16.703125 27.09375 16.703125 20.515625 
Q 16.703125 13.921875 20.71875 10.15625 
Q 24.75 6.390625 31.78125 6.390625 
Q 38.8125 6.390625 42.859375 10.171875 
Q 46.921875 13.96875 46.921875 20.515625 
Q 46.921875 27.09375 42.890625 30.859375 
Q 38.875 34.625 31.78125 34.625 
z
M 21.921875 38.8125 
Q 15.578125 40.375 12.03125 44.71875 
Q 8.5 49.078125 8.5 55.328125 
Q 8.5 64.0625 14.71875 69.140625 
Q 20.953125 74.21875 31.78125 74.21875 
Q 42.671875 74.21875 48.875 69.140625 
Q 55.078125 64.0625 55.078125 55.328125 
Q 55.078125 49.078125 51.53125 44.71875 
Q 48 40.375 41.703125 38.8125 
Q 48.828125 37.15625 52.796875 32.3125 
Q 56.78125 27.484375 56.78125 20.515625 
Q 56.78125 9.90625 50.3125 4.234375 
Q 43.84375 -1.421875 31.78125 -1.421875 
Q 19.734375 -1.421875 13.25 4.234375 
Q 6.78125 9.90625 6.78125 20.515625 
Q 6.78125 27.484375 10.78125 32.3125 
Q 14.796875 37.15625 21.921875 38.8125 
z
M 18.3125 54.390625 
Q 18.3125 48.734375 21.84375 45.5625 
Q 25.390625 42.390625 31.78125 42.390625 
Q 38.140625 42.390625 41.71875 45.5625 
Q 45.3125 48.734375 45.3125 54.390625 
Q 45.3125 60.0625 41.71875 63.234375 
Q 38.140625 66.40625 31.78125 66.40625 
Q 25.390625 66.40625 21.84375 63.234375 
Q 18.3125 60.0625 18.3125 54.390625 
z
" id="DejaVuSans-56"/>
      </defs>
      <g transform="translate(25.155 101.084532)scale(0.16 -0.16)">
       <use xlink:href="#DejaVuSans-48"/>
       <use x="63.623047" xlink:href="#DejaVuSans-46"/>
       <use x="95.410156" xlink:href="#DejaVuSans-56"/>
      </g>
     </g>
    </g>
    <g id="ytick_6">
     <g id="line2d_35">
      <path clip-path="url(#pb7440660b6)" d="M 57.6 44.021228 
L 338.688 44.021228 
" style="fill:none;stroke:#b0b0b0;stroke-linecap:square;stroke-width:0.8;"/>
     </g>
     <g id="line2d_36">
      <g>
       <use style="stroke:#000000;stroke-width:0.8;" x="57.6" xlink:href="#m68c3344700" y="44.021228"/>
      </g>
     </g>
     <g id="text_11">
      <!-- 1.0 -->
      <g transform="translate(25.155 50.099978)scale(0.16 -0.16)">
       <use xlink:href="#DejaVuSans-49"/>
       <use x="63.623047" xlink:href="#DejaVuSans-46"/>
       <use x="95.410156" xlink:href="#DejaVuSans-48"/>
      </g>
     </g>
    </g>
    <g id="text_12">
     <!-- Fraction of function,target pairs -->
     <defs>
      <path d="M 9.8125 72.90625 
L 51.703125 72.90625 
L 51.703125 64.59375 
L 19.671875 64.59375 
L 19.671875 43.109375 
L 48.578125 43.109375 
L 48.578125 34.8125 
L 19.671875 34.8125 
L 19.671875 0 
L 9.8125 0 
z
" id="DejaVuSans-70"/>
      <path d="M 41.109375 46.296875 
Q 39.59375 47.171875 37.8125 47.578125 
Q 36.03125 48 33.890625 48 
Q 26.265625 48 22.1875 43.046875 
Q 18.109375 38.09375 18.109375 28.8125 
L 18.109375 0 
L 9.078125 0 
L 9.078125 54.6875 
L 18.109375 54.6875 
L 18.109375 46.1875 
Q 20.953125 51.171875 25.484375 53.578125 
Q 30.03125 56 36.53125 56 
Q 37.453125 56 38.578125 55.875 
Q 39.703125 55.765625 41.0625 55.515625 
z
" id="DejaVuSans-114"/>
      <path d="M 48.78125 52.59375 
L 48.78125 44.1875 
Q 44.96875 46.296875 41.140625 47.34375 
Q 37.3125 48.390625 33.40625 48.390625 
Q 24.65625 48.390625 19.8125 42.84375 
Q 14.984375 37.3125 14.984375 27.296875 
Q 14.984375 17.28125 19.8125 11.734375 
Q 24.65625 6.203125 33.40625 6.203125 
Q 37.3125 6.203125 41.140625 7.25 
Q 44.96875 8.296875 48.78125 10.40625 
L 48.78125 2.09375 
Q 45.015625 0.34375 40.984375 -0.53125 
Q 36.96875 -1.421875 32.421875 -1.421875 
Q 20.0625 -1.421875 12.78125 6.34375 
Q 5.515625 14.109375 5.515625 27.296875 
Q 5.515625 40.671875 12.859375 48.328125 
Q 20.21875 56 33.015625 56 
Q 37.15625 56 41.109375 55.140625 
Q 45.0625 54.296875 48.78125 52.59375 
z
" id="DejaVuSans-99"/>
      <path d="M 18.3125 70.21875 
L 18.3125 54.6875 
L 36.8125 54.6875 
L 36.8125 47.703125 
L 18.3125 47.703125 
L 18.3125 18.015625 
Q 18.3125 11.328125 20.140625 9.421875 
Q 21.96875 7.515625 27.59375 7.515625 
L 36.8125 7.515625 
L 36.8125 0 
L 27.59375 0 
Q 17.1875 0 13.234375 3.875 
Q 9.28125 7.765625 9.28125 18.015625 
L 9.28125 47.703125 
L 2.6875 47.703125 
L 2.6875 54.6875 
L 9.28125 54.6875 
L 9.28125 70.21875 
z
" id="DejaVuSans-116"/>
      <path d="M 8.5 21.578125 
L 8.5 54.6875 
L 17.484375 54.6875 
L 17.484375 21.921875 
Q 17.484375 14.15625 20.5 10.265625 
Q 23.53125 6.390625 29.59375 6.390625 
Q 36.859375 6.390625 41.078125 11.03125 
Q 45.3125 15.671875 45.3125 23.6875 
L 45.3125 54.6875 
L 54.296875 54.6875 
L 54.296875 0 
L 45.3125 0 
L 45.3125 8.40625 
Q 42.046875 3.421875 37.71875 1 
Q 33.40625 -1.421875 27.6875 -1.421875 
Q 18.265625 -1.421875 13.375 4.4375 
Q 8.5 10.296875 8.5 21.578125 
z
M 31.109375 56 
z
" id="DejaVuSans-117"/>
      <path d="M 11.71875 12.40625 
L 22.015625 12.40625 
L 22.015625 4 
L 14.015625 -11.625 
L 7.71875 -11.625 
L 11.71875 4 
z
" id="DejaVuSans-44"/>
      <path d="M 18.109375 8.203125 
L 18.109375 -20.796875 
L 9.078125 -20.796875 
L 9.078125 54.6875 
L 18.109375 54.6875 
L 18.109375 46.390625 
Q 20.953125 51.265625 25.265625 53.625 
Q 29.59375 56 35.59375 56 
Q 45.5625 56 51.78125 48.09375 
Q 58.015625 40.1875 58.015625 27.296875 
Q 58.015625 14.40625 51.78125 6.484375 
Q 45.5625 -1.421875 35.59375 -1.421875 
Q 29.59375 -1.421875 25.265625 0.953125 
Q 20.953125 3.328125 18.109375 8.203125 
z
M 48.6875 27.296875 
Q 48.6875 37.203125 44.609375 42.84375 
Q 40.53125 48.484375 33.40625 48.484375 
Q 26.265625 48.484375 22.1875 42.84375 
Q 18.109375 37.203125 18.109375 27.296875 
Q 18.109375 17.390625 22.1875 11.75 
Q 26.265625 6.109375 33.40625 6.109375 
Q 40.53125 6.109375 44.609375 11.75 
Q 48.6875 17.390625 48.6875 27.296875 
z
" id="DejaVuSans-112"/>
     </defs>
     <g transform="translate(17.619531 305.347375)rotate(-90)scale(0.17 -0.17)">
      <use xlink:href="#DejaVuSans-70"/>
      <use x="57.410156" xlink:href="#DejaVuSans-114"/>
      <use x="98.523438" xlink:href="#DejaVuSans-97"/>
      <use x="159.802734" xlink:href="#DejaVuSans-99"/>
      <use x="214.783203" xlink:href="#DejaVuSans-116"/>
      <use x="253.992188" xlink:href="#DejaVuSans-105"/>
      <use x="281.775391" xlink:href="#DejaVuSans-111"/>
      <use x="342.957031" xlink:href="#DejaVuSans-110"/>
      <use x="406.335938" xlink:href="#DejaVuSans-32"/>
      <use x="438.123047" xlink:href="#DejaVuSans-111"/>
      <use x="499.304688" xlink:href="#DejaVuSans-102"/>
      <use x="534.509766" xlink:href="#DejaVuSans-32"/>
      <use x="566.296875" xlink:href="#DejaVuSans-102"/>
      <use x="601.501953" xlink:href="#DejaVuSans-117"/>
      <use x="664.880859" xlink:href="#DejaVuSans-110"/>
      <use x="728.259766" xlink:href="#DejaVuSans-99"/>
      <use x="783.240234" xlink:href="#DejaVuSans-116"/>
      <use x="822.449219" xlink:href="#DejaVuSans-105"/>
      <use x="850.232422" xlink:href="#DejaVuSans-111"/>
      <use x="911.414062" xlink:href="#DejaVuSans-110"/>
      <use x="974.792969" xlink:href="#DejaVuSans-44"/>
      <use x="1006.580078" xlink:href="#DejaVuSans-116"/>
      <use x="1045.789062" xlink:href="#DejaVuSans-97"/>
      <use x="1107.068359" xlink:href="#DejaVuSans-114"/>
      <use x="1148.166016" xlink:href="#DejaVuSans-103"/>
      <use x="1211.642578" xlink:href="#DejaVuSans-101"/>
      <use x="1273.166016" xlink:href="#DejaVuSans-116"/>
      <use x="1312.375" xlink:href="#DejaVuSans-32"/>
      <use x="1344.162109" xlink:href="#DejaVuSans-112"/>
      <use x="1407.638672" xlink:href="#DejaVuSans-97"/>
      <use x="1468.917969" xlink:href="#DejaVuSans-105"/>
      <use x="1496.701172" xlink:href="#DejaVuSans-114"/>
      <use x="1537.814453" xlink:href="#DejaVuSans-115"/>
     </g>
    </g>
   </g>
   <g id="line2d_37">
    <defs>
     <path d="M 0 1.5 
C 0.397805 1.5 0.77937 1.341951 1.06066 1.06066 
C 1.341951 0.77937 1.5 0.397805 1.5 0 
C 1.5 -0.397805 1.341951 -0.77937 1.06066 -1.06066 
C 0.77937 -1.341951 0.397805 -1.5 0 -1.5 
C -0.397805 -1.5 -0.77937 -1.341951 -1.06066 -1.06066 
C -1.341951 -0.77937 -1.5 -0.397805 -1.5 0 
C -1.5 0.397805 -1.341951 0.77937 -1.06066 1.06066 
C -0.77937 1.341951 -0.397805 1.5 0 1.5 
z
" id="m127b93f183" style="stroke:#000080;"/>
    </defs>
    <g>
     <use style="fill:#000080;stroke:#000080;" x="156.953214" xlink:href="#m127b93f183" y="44.021228"/>
     <use style="fill:#000080;stroke:#000080;" x="156.953214" xlink:href="#m127b93f183" y="44.021228"/>
    </g>
   </g>
   <g id="line2d_38">
    <path d="M 117.486268 298.944 
L 117.486268 298.444151 
L 117.857331 298.444151 
L 117.857331 297.444454 
L 122.782271 297.444454 
L 122.782271 295.44506 
L 123.192626 295.44506 
L 123.192626 294.945211 
L 123.985457 294.945211 
L 123.985457 293.945514 
L 125.822869 293.945514 
L 125.822869 293.445666 
L 126.168212 293.445666 
L 126.168212 292.445969 
L 126.948374 292.445969 
L 126.948374 290.946423 
L 127.272333 290.946423 
L 127.272333 288.947029 
L 127.590383 288.947029 
L 127.590383 287.447483 
L 128.005624 287.447483 
L 128.005624 285.947937 
L 128.310692 285.947937 
L 128.411207 283.448694 
L 128.807571 283.448694 
L 128.807571 282.948846 
L 129.290685 282.948846 
L 129.290685 281.949149 
L 131.77355 281.949149 
L 131.77355 280.949451 
L 131.938072 280.949451 
L 131.938072 279.449906 
L 132.101058 279.449906 
L 132.101058 278.450209 
L 132.262533 278.450209 
L 132.262533 277.450511 
L 132.501978 277.450511 
L 132.501978 276.450814 
L 133.04822 276.450814 
L 133.04822 274.951268 
L 133.503183 274.951268 
L 133.503183 273.951571 
L 134.37898 273.951571 
L 134.37898 270.95248 
L 134.591225 270.95248 
L 134.591225 269.952783 
L 135.548916 269.952783 
L 135.548916 269.452934 
L 135.747468 269.452934 
L 135.747468 268.453237 
L 136.008736 268.453237 
L 136.008736 267.953388 
L 136.707671 267.953388 
L 136.707671 267.45354 
L 137.439497 267.45354 
L 137.439497 266.953691 
L 137.735587 266.953691 
L 137.735587 266.453843 
L 137.852629 266.453843 
L 137.852629 265.953994 
L 138.761723 265.953994 
L 138.872098 264.954297 
L 139.145019 264.954297 
L 139.199094 262.954903 
L 139.306744 262.954903 
L 139.306744 261.955206 
L 139.572998 261.955206 
L 139.678372 259.955811 
L 139.783113 259.955811 
L 139.783113 259.455963 
L 139.939053 259.455963 
L 140.042245 258.456266 
L 140.348205 258.456266 
L 140.39868 254.457477 
L 140.499195 254.457477 
L 140.499195 253.957628 
L 140.79731 253.957628 
L 140.89556 250.958537 
L 141.041904 250.958537 
L 141.041904 248.959143 
L 141.283115 248.959143 
L 141.283115 247.459597 
L 141.521035 247.459597 
L 141.615302 242.461111 
L 141.848763 242.461111 
L 141.941279 238.962171 
L 142.07914 238.962171 
L 142.07914 237.962474 
L 142.215919 237.962474 
L 142.306513 236.462928 
L 142.441528 236.462928 
L 142.53096 234.963383 
L 142.664255 234.963383 
L 142.708461 233.963685 
L 142.796538 233.963685 
L 142.796538 233.463837 
L 143.058132 233.463837 
L 143.144465 229.964897 
L 143.31586 229.964897 
L 143.40093 225.966108 
L 143.44331 225.966108 
L 143.44331 225.46626 
L 143.653678 225.46626 
L 143.653678 223.966714 
L 143.902815 223.966714 
L 143.943994 222.467168 
L 144.026061 222.467168 
L 144.06695 221.467471 
L 144.189046 221.467471 
L 144.189046 219.967925 
L 144.510517 219.967925 
L 144.550287 216.968834 
L 144.629556 216.968834 
L 144.629556 215.469288 
L 144.865226 215.469288 
L 144.865226 212.970045 
L 144.981877 212.970045 
L 145.020588 211.970348 
L 145.097753 211.970348 
L 145.174578 207.97156 
L 145.212864 207.97156 
L 145.289185 202.473225 
L 145.365173 202.473225 
L 145.440832 199.474134 
L 145.478539 199.474134 
L 145.478539 198.474437 
L 145.777292 198.474437 
L 145.851187 195.975194 
L 145.924771 195.975194 
L 146.034567 191.476557 
L 146.179895 191.476557 
L 146.179895 190.976708 
L 146.324022 190.976708 
L 146.359869 188.477465 
L 146.502522 188.477465 
L 146.538004 182.979131 
L 146.644018 182.979131 
L 146.644018 180.479888 
L 146.854132 180.479888 
L 146.888907 178.980342 
L 147.130404 178.980342 
L 147.130404 177.980645 
L 147.300877 177.980645 
L 147.402367 175.481402 
L 147.50327 175.481402 
L 147.570215 172.98216 
L 147.736463 172.98216 
L 147.835457 167.483825 
L 147.96658 167.483825 
L 147.999207 165.98428 
L 148.161434 165.98428 
L 148.258051 163.984885 
L 148.290138 163.984885 
L 148.386046 161.985491 
L 148.449693 161.985491 
L 148.54473 157.486854 
L 148.639252 157.486854 
L 148.733265 155.48746 
L 148.76449 155.48746 
L 148.857832 152.988217 
L 148.888835 152.988217 
L 148.981515 148.989428 
L 149.012299 148.989428 
L 149.073705 146.990034 
L 149.165411 146.990034 
L 149.256637 142.991245 
L 149.286939 142.991245 
L 149.31719 139.992154 
L 149.407627 139.992154 
L 149.497598 137.492911 
L 149.616841 137.492911 
L 149.676158 133.993971 
L 149.852909 133.993971 
L 149.940618 127.495939 
L 149.998846 127.495939 
L 150.05688 124.496848 
L 150.143571 124.496848 
L 150.229833 121.997605 
L 150.372662 121.997605 
L 150.457801 119.498362 
L 150.570677 119.498362 
L 150.626842 113.000331 
L 150.710752 113.000331 
L 150.766468 107.501997 
L 150.822008 107.501997 
L 150.87737 105.002754 
L 150.960087 105.002754 
L 150.987572 104.003056 
L 151.097081 104.003056 
L 151.205907 101.503814 
L 151.287083 101.503814 
L 151.367883 99.004571 
L 151.44831 99.004571 
L 151.501723 96.505328 
L 151.581536 96.505328 
L 151.660987 93.506236 
L 151.713753 93.506236 
L 151.713753 93.006388 
L 151.844975 93.006388 
L 151.923236 87.008205 
L 152.027042 87.008205 
L 152.130233 86.008508 
L 152.25837 86.008508 
L 152.309362 84.508962 
L 152.486669 84.508962 
L 152.486669 84.009114 
L 152.612222 84.009114 
L 152.662192 82.009719 
L 152.860649 82.009719 
L 152.934492 80.510174 
L 153.008024 80.510174 
L 153.105587 78.510779 
L 153.129893 78.510779 
L 153.178403 76.511385 
L 153.250915 76.511385 
L 153.347132 73.012445 
L 153.371104 73.012445 
L 153.418948 70.013354 
L 153.514245 70.013354 
L 153.585377 69.013656 
L 153.632638 69.013656 
L 153.632638 68.013959 
L 153.843742 68.013959 
L 153.936752 66.514414 
L 154.05232 66.514414 
L 154.121296 64.015171 
L 154.439623 64.015171 
L 154.484627 58.016988 
L 154.596634 58.016988 
L 154.685723 54.018199 
L 154.862549 54.018199 
L 154.862549 51.518956 
L 155.531298 51.518956 
L 155.573575 49.019713 
L 155.720743 49.019713 
L 155.720743 46.520471 
L 155.908152 46.520471 
L 155.928852 45.520773 
L 156.297301 45.520773 
L 156.357959 44.521076 
L 156.953214 44.521076 
L 156.953214 44.021228 
L 338.688 44.021228 
L 338.688 44.021228 
" style="fill:none;stroke:#000080;stroke-linecap:square;stroke-width:1.5;"/>
   </g>
   <g id="line2d_39">
    <defs>
     <path d="M 0 6 
C 1.591219 6 3.117479 5.367802 4.242641 4.242641 
C 5.367802 3.117479 6 1.591219 6 0 
C 6 -1.591219 5.367802 -3.117479 4.242641 -4.242641 
C 3.117479 -5.367802 1.591219 -6 0 -6 
C -1.591219 -6 -3.117479 -5.367802 -4.242641 -4.242641 
C -5.367802 -3.117479 -6 -1.591219 -6 0 
C -6 1.591219 -5.367802 3.117479 -4.242641 4.242641 
C -3.117479 5.367802 -1.591219 6 0 6 
z
" id="m2f6d7c74f9" style="stroke:#000080;stroke-width:1.5;"/>
    </defs>
    <g>
     <use style="fill-opacity:0;stroke:#000080;stroke-width:1.5;" x="149.073705" xlink:href="#m2f6d7c74f9" y="148.489579"/>
     <use style="fill-opacity:0;stroke:#000080;stroke-width:1.5;" x="156.953214" xlink:href="#m2f6d7c74f9" y="44.521076"/>
     <use style="fill-opacity:0;stroke:#000080;stroke-width:1.5;" x="156.953214" xlink:href="#m2f6d7c74f9" y="44.021228"/>
     <use style="fill-opacity:0;stroke:#000080;stroke-width:1.5;" x="156.953214" xlink:href="#m2f6d7c74f9" y="44.021228"/>
     <use style="fill-opacity:0;stroke:#000080;stroke-width:1.5;" x="338.688" xlink:href="#m2f6d7c74f9" y="44.021228"/>
    </g>
   </g>
   <g id="line2d_40">
    <path style="fill:none;stroke:#000080;stroke-linecap:square;stroke-width:1.5;"/>
    <g/>
   </g>
   <g id="line2d_41">
    <defs>
     <path d="M 0 1.5 
C 0.397805 1.5 0.77937 1.341951 1.06066 1.06066 
C 1.341951 0.77937 1.5 0.397805 1.5 0 
C 1.5 -0.397805 1.341951 -0.77937 1.06066 -1.06066 
C 0.77937 -1.341951 0.397805 -1.5 0 -1.5 
C -0.397805 -1.5 -0.77937 -1.341951 -1.06066 -1.06066 
C -1.341951 -0.77937 -1.5 -0.397805 -1.5 0 
C -1.5 0.397805 -1.341951 0.77937 -1.06066 1.06066 
C -0.77937 1.341951 -0.397805 1.5 0 1.5 
z
" id="m19a70b9394" style="stroke:#ff00ff;"/>
    </defs>
    <g>
     <use style="fill:#ff00ff;stroke:#ff00ff;" x="137.138292" xlink:href="#m19a70b9394" y="44.021228"/>
     <use style="fill:#ff00ff;stroke:#ff00ff;" x="137.138292" xlink:href="#m19a70b9394" y="44.021228"/>
    </g>
   </g>
   <g id="line2d_42">
    <path d="M 111.239304 298.944 
L 111.239304 297.944303 
L 111.767808 297.944303 
L 111.767808 297.444454 
L 112.779064 297.444454 
L 112.779064 293.945514 
L 113.26352 293.945514 
L 113.26352 293.445666 
L 113.73488 293.445666 
L 113.73488 291.94612 
L 113.965867 291.94612 
L 113.965867 290.946423 
L 114.641021 290.946423 
L 114.641021 288.44718 
L 115.077025 288.44718 
L 115.077025 287.947331 
L 115.291007 287.947331 
L 115.291007 286.447786 
L 115.502395 286.447786 
L 115.502395 284.448391 
L 115.917635 284.448391 
L 115.917635 283.948543 
L 116.522527 283.948543 
L 116.522527 283.448694 
L 116.914437 283.448694 
L 116.914437 280.449603 
L 117.107138 280.449603 
L 117.107138 279.949754 
L 117.297733 279.949754 
L 117.297733 277.450511 
L 117.486268 277.450511 
L 117.486268 274.951268 
L 117.857331 274.951268 
L 117.857331 274.45142 
L 118.220662 274.45142 
L 118.220662 273.951571 
L 118.751849 273.951571 
L 118.751849 272.951874 
L 119.43583 272.951874 
L 119.43583 272.452026 
L 120.571812 272.452026 
L 120.571812 271.952177 
L 120.728219 271.952177 
L 120.728219 269.952783 
L 121.189196 269.952783 
L 121.189196 268.953086 
L 122.362027 268.953086 
L 122.362027 268.453237 
L 123.593547 268.453237 
L 123.593547 266.453843 
L 123.985457 266.453843 
L 123.985457 264.954297 
L 124.241922 264.954297 
L 124.241922 263.454751 
L 124.494669 263.454751 
L 124.494669 262.455054 
L 124.619683 262.455054 
L 124.619683 261.455357 
L 124.867052 261.455357 
L 124.867052 260.45566 
L 125.110962 260.45566 
L 125.110962 259.955811 
L 125.23165 259.955811 
L 125.23165 259.455963 
L 125.351508 259.455963 
L 125.351508 257.456568 
L 125.470548 257.456568 
L 125.470548 256.95672 
L 125.706218 256.95672 
L 125.706218 255.957023 
L 125.822869 255.957023 
L 125.822869 254.957326 
L 125.938745 254.957326 
L 125.938745 253.957628 
L 126.053856 253.957628 
L 126.053856 253.45778 
L 126.168212 253.45778 
L 126.168212 250.958537 
L 126.281824 250.958537 
L 126.281824 247.459597 
L 126.3947 247.459597 
L 126.3947 242.96096 
L 126.618283 242.96096 
L 126.729009 241.961263 
L 126.948374 241.961263 
L 126.948374 237.962474 
L 127.165014 237.962474 
L 127.272333 230.964594 
L 127.378995 230.964594 
L 127.48501 224.966411 
L 127.590383 224.966411 
L 127.590383 222.467168 
L 128.005624 222.467168 
L 128.107907 217.968531 
L 128.310692 217.968531 
L 128.411207 211.970348 
L 128.511146 211.970348 
L 128.610515 208.471408 
L 128.807571 208.471408 
L 128.905271 206.472014 
L 129.002426 206.472014 
L 129.002426 204.47262 
L 129.195127 204.47262 
L 129.290685 197.974588 
L 129.385722 197.974588 
L 129.480244 196.475043 
L 129.574256 196.475043 
L 129.667765 194.475648 
L 129.760775 194.475648 
L 129.853291 187.477768 
L 130.036864 187.477768 
L 130.127931 179.480191 
L 130.218525 179.480191 
L 130.30865 175.981251 
L 130.398313 175.981251 
L 130.487516 170.482917 
L 130.576266 170.482917 
L 130.664567 156.487157 
L 130.752422 156.487157 
L 130.839837 152.488368 
L 130.926816 152.488368 
L 131.013364 150.488974 
L 131.099484 150.488974 
L 131.185181 145.490488 
L 131.270459 145.490488 
L 131.355321 134.993668 
L 131.439773 134.993668 
L 131.523818 133.993971 
L 131.60746 133.993971 
L 131.690703 132.494425 
L 131.77355 132.494425 
L 131.856005 128.995485 
L 132.019755 128.995485 
L 132.101058 125.996394 
L 132.181982 125.996394 
L 132.262533 118.998514 
L 132.342714 118.998514 
L 132.422528 115.499574 
L 132.501978 115.499574 
L 132.501978 114.000028 
L 132.659801 114.000028 
L 132.73818 110.501088 
L 132.816208 110.501088 
L 132.893889 106.502299 
L 132.971225 106.502299 
L 133.04822 105.502602 
L 133.124876 105.502602 
L 133.201197 98.004874 
L 133.277185 98.004874 
L 133.277185 96.005479 
L 133.428175 96.005479 
L 133.503183 91.006994 
L 133.57787 91.006994 
L 133.652238 88.507751 
L 133.72629 88.507751 
L 133.800029 83.509265 
L 133.873458 83.509265 
L 133.946579 78.010931 
L 134.019394 78.010931 
L 134.091907 73.012445 
L 134.236034 73.012445 
L 134.236034 69.513505 
L 134.450015 69.513505 
L 134.520763 64.015171 
L 134.800918 64.015171 
L 134.800918 61.016079 
L 134.939326 61.016079 
L 135.00812 57.517139 
L 135.212889 57.517139 
L 135.212889 57.017291 
L 135.415281 57.017291 
L 135.482227 55.517745 
L 135.548916 55.517745 
L 135.548916 53.518351 
L 135.681535 53.518351 
L 135.747468 50.519259 
L 135.878591 50.519259 
L 135.943785 49.019713 
L 136.266147 49.019713 
L 136.266147 48.020016 
L 136.519813 48.020016 
L 136.519813 47.520168 
L 136.707671 47.520168 
L 136.769843 45.520773 
L 137.138292 45.520773 
L 137.138292 44.021228 
L 338.688 44.021228 
L 338.688 44.021228 
" style="fill:none;stroke:#ff00ff;stroke-linecap:square;stroke-width:1.5;"/>
   </g>
   <g id="line2d_43">
    <defs>
     <path d="M -0 8.485281 
L 5.091169 0 
L 0 -8.485281 
L -5.091169 -0 
z
" id="m7139edd283" style="stroke:#ff00ff;stroke-linejoin:miter;stroke-width:1.5;"/>
    </defs>
    <g>
     <use style="fill-opacity:0;stroke:#ff00ff;stroke-linejoin:miter;stroke-width:1.5;" x="131.185181" xlink:href="#m7139edd283" y="145.490488"/>
     <use style="fill-opacity:0;stroke:#ff00ff;stroke-linejoin:miter;stroke-width:1.5;" x="137.138292" xlink:href="#m7139edd283" y="45.520773"/>
     <use style="fill-opacity:0;stroke:#ff00ff;stroke-linejoin:miter;stroke-width:1.5;" x="137.138292" xlink:href="#m7139edd283" y="44.021228"/>
     <use style="fill-opacity:0;stroke:#ff00ff;stroke-linejoin:miter;stroke-width:1.5;" x="137.138292" xlink:href="#m7139edd283" y="44.021228"/>
     <use style="fill-opacity:0;stroke:#ff00ff;stroke-linejoin:miter;stroke-width:1.5;" x="338.688" xlink:href="#m7139edd283" y="44.021228"/>
    </g>
   </g>
   <g id="line2d_44">
    <path style="fill:none;stroke:#ff00ff;stroke-linecap:square;stroke-width:1.5;"/>
    <g/>
   </g>
   <g id="line2d_45">
    <defs>
     <path d="M 0 1.5 
C 0.397805 1.5 0.77937 1.341951 1.06066 1.06066 
C 1.341951 0.77937 1.5 0.397805 1.5 0 
C 1.5 -0.397805 1.341951 -0.77937 1.06066 -1.06066 
C 0.77937 -1.341951 0.397805 -1.5 0 -1.5 
C -0.397805 -1.5 -0.77937 -1.341951 -1.06066 -1.06066 
C -1.341951 -0.77937 -1.5 -0.397805 -1.5 0 
C -1.5 0.397805 -1.341951 0.77937 -1.06066 1.06066 
C -0.77937 1.341951 -0.397805 1.5 0 1.5 
z
" id="m05480bdc1c" style="stroke:#ffa500;"/>
    </defs>
    <g>
     <use style="fill:#ffa500;stroke:#ffa500;" x="142.441528" xlink:href="#m05480bdc1c" y="44.021228"/>
     <use style="fill:#ffa500;stroke:#ffa500;" x="142.441528" xlink:href="#m05480bdc1c" y="44.021228"/>
    </g>
   </g>
   <g id="line2d_46">
    <path d="M 118.039942 298.944 
L 118.039942 297.444454 
L 118.751849 297.444454 
L 118.751849 296.944606 
L 118.925375 296.944606 
L 118.925375 295.944909 
L 119.602714 295.944909 
L 119.602714 295.44506 
L 120.41399 295.44506 
L 120.41399 293.945514 
L 120.571812 293.945514 
L 120.571812 292.945817 
L 121.036887 292.945817 
L 121.036887 290.946423 
L 121.189196 290.946423 
L 121.189196 289.946726 
L 121.340187 289.946726 
L 121.340187 286.447786 
L 121.489881 286.447786 
L 121.489881 285.448089 
L 122.076131 285.448089 
L 122.076131 284.448391 
L 122.219665 284.448391 
L 122.219665 283.948543 
L 122.503236 283.948543 
L 122.503236 282.448997 
L 122.920132 282.448997 
L 122.920132 281.949149 
L 123.056911 281.949149 
L 123.056911 278.950057 
L 123.327293 278.950057 
L 123.327293 278.450209 
L 123.985457 278.450209 
L 123.985457 277.95036 
L 124.867052 277.95036 
L 124.867052 277.450511 
L 124.989434 277.450511 
L 124.989434 276.950663 
L 125.588781 276.950663 
L 125.588781 275.950966 
L 125.706218 275.950966 
L 125.706218 273.951571 
L 125.822869 273.951571 
L 125.822869 273.451723 
L 126.053856 273.451723 
L 126.053856 272.452026 
L 126.168212 272.452026 
L 126.168212 270.95248 
L 126.50685 270.95248 
L 126.50685 270.452631 
L 126.618283 270.452631 
L 126.618283 269.452934 
L 126.839037 269.452934 
L 126.948374 265.454146 
L 127.272333 265.454146 
L 127.378995 262.455054 
L 127.48501 262.455054 
L 127.590383 256.456871 
L 128.005624 256.456871 
L 128.107907 254.457477 
L 128.209594 254.457477 
L 128.310692 251.458386 
L 128.411207 251.458386 
L 128.411207 249.95884 
L 128.709321 249.95884 
L 128.807571 246.4599 
L 128.905271 246.4599 
L 128.905271 240.961566 
L 129.195127 240.961566 
L 129.195127 239.961868 
L 129.385722 239.961868 
L 129.480244 235.96308 
L 129.574256 235.96308 
L 129.667765 230.464745 
L 129.760775 230.464745 
L 129.853291 227.965503 
L 130.036864 227.965503 
L 130.127931 218.46838 
L 130.218525 218.46838 
L 130.218525 216.468985 
L 130.487516 216.468985 
L 130.487516 214.96944 
L 130.664567 214.96944 
L 130.752422 207.97156 
L 130.926816 207.97156 
L 130.926816 206.472014 
L 131.185181 206.472014 
L 131.270459 203.472923 
L 131.439773 203.472923 
L 131.523818 198.474437 
L 131.60746 198.474437 
L 131.60746 196.974891 
L 131.856005 196.974891 
L 131.938072 190.976708 
L 132.019755 190.976708 
L 132.101058 187.977617 
L 132.181982 187.977617 
L 132.181982 186.478071 
L 132.422528 186.478071 
L 132.501978 181.479585 
L 132.581068 181.479585 
L 132.659801 178.480494 
L 132.73818 178.480494 
L 132.816208 176.980948 
L 132.971225 176.980948 
L 133.04822 171.482614 
L 133.352844 171.482614 
L 133.352844 170.982765 
L 133.503183 170.982765 
L 133.57787 166.484128 
L 133.652238 166.484128 
L 133.72629 160.985794 
L 133.873458 160.985794 
L 133.873458 158.9864 
L 134.019394 158.9864 
L 134.091907 152.988217 
L 134.236034 152.988217 
L 134.307653 151.488671 
L 134.520763 151.488671 
L 134.591225 149.489277 
L 134.661403 149.489277 
L 134.7313 146.490185 
L 134.800918 146.490185 
L 134.870259 142.991245 
L 135.00812 142.991245 
L 135.076644 130.994879 
L 135.280614 130.994879 
L 135.348078 125.996394 
L 135.482227 125.996394 
L 135.548916 120.997908 
L 135.615352 120.997908 
L 135.615352 118.498665 
L 135.878591 118.498665 
L 135.943785 111.000937 
L 136.073445 111.000937 
L 136.137916 109.501391 
L 136.266147 109.501391 
L 136.32991 106.002451 
L 136.393441 106.002451 
L 136.456742 101.503814 
L 136.519813 101.503814 
L 136.582658 96.005479 
L 136.645276 96.005479 
L 136.645276 95.005782 
L 136.831795 95.005782 
L 136.893527 93.506236 
L 136.955041 93.506236 
L 136.955041 91.506842 
L 137.077422 91.506842 
L 137.077422 90.007296 
L 137.319638 90.007296 
L 137.37967 88.007902 
L 137.439497 88.007902 
L 137.439497 87.508054 
L 137.558536 87.508054 
L 137.617753 86.508356 
L 137.676769 86.508356 
L 137.735587 82.009719 
L 137.852629 82.009719 
L 137.852629 80.010325 
L 138.141844 80.010325 
L 138.141844 77.511082 
L 138.256201 77.511082 
L 138.256201 76.011536 
L 138.482688 76.011536 
L 138.538853 72.012748 
L 138.594838 72.012748 
L 138.650644 69.513505 
L 138.872098 69.513505 
L 138.872098 67.014262 
L 139.253002 67.014262 
L 139.253002 64.515019 
L 139.625765 64.515019 
L 139.625765 63.015474 
L 140.144829 63.015474 
L 140.246813 62.015776 
L 140.348205 62.015776 
L 140.348205 55.017896 
L 140.599134 55.017896 
L 140.698504 50.519259 
L 140.89556 50.519259 
L 140.89556 49.019713 
L 141.187031 49.019713 
L 141.283115 47.020319 
L 141.378673 47.020319 
L 141.426256 46.020622 
L 142.033307 46.020622 
L 142.033307 44.521076 
L 142.441528 44.521076 
L 142.441528 44.021228 
L 338.688 44.021228 
L 338.688 44.021228 
" style="fill:none;stroke:#ffa500;stroke-linecap:square;stroke-width:1.5;"/>
   </g>
   <g id="line2d_47">
    <defs>
     <path d="M 0 -6 
L -1.347084 -1.854102 
L -5.706339 -1.854102 
L -2.179628 0.708204 
L -3.526712 4.854102 
L -0 2.291796 
L 3.526712 4.854102 
L 2.179628 0.708204 
L 5.706339 -1.854102 
L 1.347084 -1.854102 
z
" id="mdd25e36c9c" style="stroke:#ffa500;stroke-linejoin:bevel;stroke-width:1.5;"/>
    </defs>
    <g>
     <use style="fill-opacity:0;stroke:#ffa500;stroke-linejoin:bevel;stroke-width:1.5;" x="137.617753" xlink:href="#mdd25e36c9c" y="86.508356"/>
     <use style="fill-opacity:0;stroke:#ffa500;stroke-linejoin:bevel;stroke-width:1.5;" x="142.441528" xlink:href="#mdd25e36c9c" y="44.521076"/>
     <use style="fill-opacity:0;stroke:#ffa500;stroke-linejoin:bevel;stroke-width:1.5;" x="142.441528" xlink:href="#mdd25e36c9c" y="44.021228"/>
     <use style="fill-opacity:0;stroke:#ffa500;stroke-linejoin:bevel;stroke-width:1.5;" x="142.441528" xlink:href="#mdd25e36c9c" y="44.021228"/>
     <use style="fill-opacity:0;stroke:#ffa500;stroke-linejoin:bevel;stroke-width:1.5;" x="338.688" xlink:href="#mdd25e36c9c" y="44.021228"/>
    </g>
   </g>
   <g id="line2d_48">
    <path style="fill:none;stroke:#ffa500;stroke-linecap:square;stroke-width:1.5;"/>
    <g/>
   </g>
   <g id="line2d_49">
    <defs>
     <path d="M 0 1.5 
C 0.397805 1.5 0.77937 1.341951 1.06066 1.06066 
C 1.341951 0.77937 1.5 0.397805 1.5 0 
C 1.5 -0.397805 1.341951 -0.77937 1.06066 -1.06066 
C 0.77937 -1.341951 0.397805 -1.5 0 -1.5 
C -0.397805 -1.5 -0.77937 -1.341951 -1.06066 -1.06066 
C -1.341951 -0.77937 -1.5 -0.397805 -1.5 0 
C -1.5 0.397805 -1.341951 0.77937 -1.06066 1.06066 
C -0.77937 1.341951 -0.397805 1.5 0 1.5 
z
" id="md72faa0075" style="stroke:#6495ed;"/>
    </defs>
    <g>
     <use style="fill:#6495ed;stroke:#6495ed;" x="124.619683" xlink:href="#md72faa0075" y="44.021228"/>
     <use style="fill:#6495ed;stroke:#6495ed;" x="124.619683" xlink:href="#md72faa0075" y="44.021228"/>
    </g>
   </g>
   <g id="line2d_50">
    <path d="M 97.16421 298.944 
L 97.16421 298.444151 
L 98.32726 298.444151 
L 98.32726 295.944909 
L 99.41757 295.944909 
L 99.41757 295.44506 
L 100.443706 295.44506 
L 100.443706 292.445969 
L 101.877879 292.445969 
L 101.877879 290.946423 
L 102.772397 290.946423 
L 102.772397 288.947029 
L 103.203018 288.947029 
L 103.203018 288.44718 
L 103.623262 288.44718 
L 103.623262 286.947634 
L 104.033617 286.947634 
L 104.033617 284.448391 
L 104.826449 284.448391 
L 104.826449 283.948543 
L 105.209745 283.948543 
L 105.209745 281.949149 
L 105.951954 281.949149 
L 105.951954 280.449603 
L 106.311539 280.449603 
L 106.311539 274.951268 
L 106.66386 274.951268 
L 106.66386 270.95248 
L 107.347841 270.95248 
L 107.347841 269.952783 
L 107.680028 269.952783 
L 107.680028 265.953994 
L 108.006005 265.953994 
L 108.006005 264.954297 
L 108.948899 264.954297 
L 108.948899 264.454448 
L 109.252198 264.454448 
L 109.252198 262.455054 
L 109.550313 262.455054 
L 109.550313 261.955206 
L 109.843417 261.955206 
L 109.843417 261.455357 
L 110.131676 261.455357 
L 110.131676 259.955811 
L 110.415248 259.955811 
L 110.415248 257.456568 
L 110.694282 257.456568 
L 110.694282 256.95672 
L 110.968922 256.95672 
L 110.968922 255.957023 
L 111.239304 255.957023 
L 111.239304 254.957326 
L 111.505558 254.957326 
L 111.505558 251.458386 
L 111.767808 251.458386 
L 111.767808 247.459597 
L 112.026172 247.459597 
L 112.026172 246.4599 
L 112.280765 246.4599 
L 112.280765 245.460203 
L 112.531694 245.460203 
L 112.531694 244.460506 
L 112.779064 244.460506 
L 112.779064 242.96096 
L 113.022974 242.96096 
L 113.022974 241.961263 
L 113.26352 241.961263 
L 113.26352 238.962171 
L 113.500792 238.962171 
L 113.500792 236.962777 
L 113.73488 236.962777 
L 113.73488 234.463534 
L 113.965867 234.463534 
L 113.965867 228.9652 
L 114.193835 228.9652 
L 114.193835 227.465654 
L 114.418861 227.465654 
L 114.418861 224.966411 
L 114.641021 224.966411 
L 114.641021 222.967017 
L 114.860386 222.967017 
L 114.860386 212.470197 
L 115.077025 212.470197 
L 115.077025 207.97156 
L 115.291007 207.97156 
L 115.291007 206.472014 
L 115.502395 206.472014 
L 115.502395 205.972165 
L 115.711251 205.972165 
L 115.711251 201.473528 
L 115.917635 201.473528 
L 115.917635 197.974588 
L 116.121606 197.974588 
L 116.121606 194.475648 
L 116.522527 194.475648 
L 116.522527 191.976405 
L 116.719583 191.976405 
L 116.719583 189.977011 
L 116.914437 189.977011 
L 116.914437 181.979434 
L 117.107138 181.979434 
L 117.107138 175.481402 
L 117.297733 175.481402 
L 117.297733 169.983068 
L 117.486268 169.983068 
L 117.486268 167.483825 
L 117.672786 167.483825 
L 117.672786 165.484431 
L 117.857331 165.484431 
L 117.857331 157.986702 
L 118.039942 157.986702 
L 118.039942 152.988217 
L 118.220662 152.988217 
L 118.220662 151.98852 
L 118.399528 151.98852 
L 118.399528 147.989731 
L 118.576578 147.989731 
L 118.576578 146.490185 
L 118.751849 146.490185 
L 118.751849 140.991851 
L 118.925375 140.991851 
L 118.925375 139.992154 
L 119.097192 139.992154 
L 119.097192 137.492911 
L 119.267333 137.492911 
L 119.267333 133.993971 
L 119.43583 133.993971 
L 119.43583 130.994879 
L 119.602714 130.994879 
L 119.602714 126.496242 
L 119.768017 126.496242 
L 119.768017 121.497757 
L 119.931767 121.497757 
L 119.931767 116.499271 
L 120.093994 116.499271 
L 120.093994 104.502905 
L 120.254726 104.502905 
L 120.254726 100.504116 
L 120.41399 100.504116 
L 120.41399 98.504722 
L 120.728219 98.504722 
L 120.728219 97.505025 
L 120.883236 97.505025 
L 120.883236 94.505934 
L 121.036887 94.505934 
L 121.036887 91.506842 
L 121.189196 91.506842 
L 121.189196 84.009114 
L 121.340187 84.009114 
L 121.340187 83.009416 
L 121.489881 83.009416 
L 121.489881 77.511082 
L 121.638301 77.511082 
L 121.638301 75.011839 
L 121.785469 75.011839 
L 121.785469 74.012142 
L 121.931406 74.012142 
L 121.931406 69.513505 
L 122.076131 69.513505 
L 122.076131 68.513808 
L 122.219665 68.513808 
L 122.219665 66.014565 
L 122.362027 66.014565 
L 122.362027 63.015474 
L 122.503236 63.015474 
L 122.503236 60.516231 
L 122.782271 60.516231 
L 122.782271 58.516836 
L 122.920132 58.516836 
L 122.920132 58.016988 
L 123.056911 58.016988 
L 123.056911 54.018199 
L 123.460928 54.018199 
L 123.460928 49.519562 
L 123.593547 49.519562 
L 123.593547 48.519865 
L 123.725164 48.519865 
L 123.725164 48.020016 
L 123.985457 48.020016 
L 123.985457 46.520471 
L 124.114161 46.520471 
L 124.114161 45.520773 
L 124.241922 45.520773 
L 124.241922 45.020925 
L 124.619683 45.020925 
L 124.619683 44.021228 
L 338.688 44.021228 
L 338.688 44.021228 
" style="fill:none;stroke:#6495ed;stroke-linecap:square;stroke-width:1.5;"/>
   </g>
   <g id="line2d_51">
    <defs>
     <path d="M -0 6 
L 6 -6 
L -6 -6 
z
" id="mf9c2c2f821" style="stroke:#6495ed;stroke-linejoin:miter;stroke-width:1.5;"/>
    </defs>
    <g>
     <use style="fill-opacity:0;stroke:#6495ed;stroke-linejoin:miter;stroke-width:1.5;" x="119.768017" xlink:href="#mf9c2c2f821" y="121.497757"/>
     <use style="fill-opacity:0;stroke:#6495ed;stroke-linejoin:miter;stroke-width:1.5;" x="124.619683" xlink:href="#mf9c2c2f821" y="45.020925"/>
     <use style="fill-opacity:0;stroke:#6495ed;stroke-linejoin:miter;stroke-width:1.5;" x="124.619683" xlink:href="#mf9c2c2f821" y="44.021228"/>
     <use style="fill-opacity:0;stroke:#6495ed;stroke-linejoin:miter;stroke-width:1.5;" x="124.619683" xlink:href="#mf9c2c2f821" y="44.021228"/>
     <use style="fill-opacity:0;stroke:#6495ed;stroke-linejoin:miter;stroke-width:1.5;" x="338.688" xlink:href="#mf9c2c2f821" y="44.021228"/>
    </g>
   </g>
   <g id="line2d_52">
    <path style="fill:none;stroke:#6495ed;stroke-linecap:square;stroke-width:1.5;"/>
    <g/>
   </g>
   <g id="line2d_53">
    <defs>
     <path d="M 0 1.5 
C 0.397805 1.5 0.77937 1.341951 1.06066 1.06066 
C 1.341951 0.77937 1.5 0.397805 1.5 0 
C 1.5 -0.397805 1.341951 -0.77937 1.06066 -1.06066 
C 0.77937 -1.341951 0.397805 -1.5 0 -1.5 
C -0.397805 -1.5 -0.77937 -1.341951 -1.06066 -1.06066 
C -1.341951 -0.77937 -1.5 -0.397805 -1.5 0 
C -1.5 0.397805 -1.341951 0.77937 -1.06066 1.06066 
C -0.77937 1.341951 -0.397805 1.5 0 1.5 
z
" id="mfcb9f0dd28" style="stroke:#ff0000;"/>
    </defs>
    <g>
     <use style="fill:#ff0000;stroke:#ff0000;" x="127.590383" xlink:href="#mfcb9f0dd28" y="44.021228"/>
     <use style="fill:#ff0000;stroke:#ff0000;" x="127.590383" xlink:href="#mfcb9f0dd28" y="44.021228"/>
    </g>
   </g>
   <g id="line2d_54">
    <path d="M 95.259853 298.944 
L 95.259853 296.944606 
L 95.918017 296.944606 
L 95.918017 295.944909 
L 96.552242 295.944909 
L 96.552242 293.945514 
L 97.16421 293.945514 
L 97.16421 290.946423 
L 97.755429 290.946423 
L 97.755429 289.446877 
L 98.32726 289.446877 
L 98.32726 285.448089 
L 98.880934 285.448089 
L 98.880934 280.949451 
L 99.41757 280.949451 
L 99.41757 277.450511 
L 99.938184 277.450511 
L 99.938184 274.951268 
L 100.443706 274.951268 
L 100.443706 271.952177 
L 100.934985 271.952177 
L 100.934985 269.952783 
L 101.877879 269.952783 
L 101.877879 269.452934 
L 102.330873 269.452934 
L 102.330873 268.953086 
L 103.203018 268.953086 
L 103.203018 264.954297 
L 103.623262 264.954297 
L 103.623262 261.955206 
L 104.033617 261.955206 
L 104.033617 260.955508 
L 104.434538 260.955508 
L 104.434538 257.956417 
L 104.826449 257.956417 
L 104.826449 255.957023 
L 105.209745 255.957023 
L 105.209745 253.957628 
L 105.584798 253.957628 
L 105.584798 253.45778 
L 105.951954 253.45778 
L 105.951954 251.958234 
L 106.311539 251.958234 
L 106.311539 250.458688 
L 106.66386 250.458688 
L 106.66386 248.459294 
L 107.009204 248.459294 
L 107.009204 242.461111 
L 107.347841 242.461111 
L 107.347841 235.463231 
L 107.680028 235.463231 
L 107.680028 234.463534 
L 108.006005 234.463534 
L 108.006005 232.963988 
L 108.326001 232.963988 
L 108.326001 231.964291 
L 108.640231 231.964291 
L 108.640231 229.964897 
L 108.948899 229.964897 
L 108.948899 228.9652 
L 109.252198 228.9652 
L 109.252198 228.465351 
L 109.550313 228.465351 
L 109.550313 227.465654 
L 109.843417 227.465654 
L 109.843417 223.966714 
L 110.131676 223.966714 
L 110.131676 216.968834 
L 110.415248 216.968834 
L 110.415248 214.469591 
L 110.694282 214.469591 
L 110.694282 213.969743 
L 110.968922 213.969743 
L 110.968922 209.970954 
L 111.239304 209.970954 
L 111.239304 207.97156 
L 111.505558 207.97156 
L 111.505558 206.472014 
L 111.767808 206.472014 
L 111.767808 205.472317 
L 112.026172 205.472317 
L 112.026172 195.475345 
L 112.280765 195.475345 
L 112.280765 188.977314 
L 112.531694 188.977314 
L 112.531694 182.979131 
L 112.779064 182.979131 
L 112.779064 176.980948 
L 113.022974 176.980948 
L 113.022974 175.981251 
L 113.26352 175.981251 
L 113.26352 170.982765 
L 113.500792 170.982765 
L 113.500792 168.483522 
L 113.73488 168.483522 
L 113.73488 164.984582 
L 113.965867 164.984582 
L 113.965867 158.9864 
L 114.193835 158.9864 
L 114.193835 155.987308 
L 114.418861 155.987308 
L 114.418861 149.489277 
L 114.641021 149.489277 
L 114.641021 137.992759 
L 115.077025 137.992759 
L 115.077025 134.493819 
L 115.291007 134.493819 
L 115.291007 125.496545 
L 115.502395 125.496545 
L 115.502395 123.497151 
L 115.711251 123.497151 
L 115.711251 121.997605 
L 115.917635 121.997605 
L 115.917635 119.998211 
L 116.121606 119.998211 
L 116.121606 115.499574 
L 116.323218 115.499574 
L 116.323218 110.001239 
L 116.719583 110.001239 
L 116.719583 107.501997 
L 116.914437 107.501997 
L 116.914437 104.502905 
L 117.107138 104.502905 
L 117.107138 100.004268 
L 117.297733 100.004268 
L 117.297733 97.005176 
L 117.486268 97.005176 
L 117.486268 90.007296 
L 117.672786 90.007296 
L 117.672786 84.508962 
L 117.857331 84.508962 
L 117.857331 81.509871 
L 118.039942 81.509871 
L 118.039942 78.510779 
L 118.220662 78.510779 
L 118.220662 71.512899 
L 118.399528 71.512899 
L 118.399528 68.513808 
L 118.576578 68.513808 
L 118.576578 67.514111 
L 118.751849 67.514111 
L 118.751849 65.514716 
L 118.925375 65.514716 
L 118.925375 63.515322 
L 119.097192 63.515322 
L 119.097192 61.515928 
L 119.43583 61.515928 
L 119.43583 59.016685 
L 119.602714 59.016685 
L 119.602714 57.517139 
L 119.931767 57.517139 
L 119.931767 55.017896 
L 120.254726 55.017896 
L 120.254726 53.518351 
L 120.41399 53.518351 
L 120.41399 52.518653 
L 120.728219 52.518653 
L 120.728219 51.518956 
L 121.340187 51.518956 
L 121.340187 51.019108 
L 121.489881 51.019108 
L 121.489881 50.519259 
L 121.785469 50.519259 
L 121.785469 48.020016 
L 122.643312 48.020016 
L 122.643312 47.520168 
L 123.327293 47.520168 
L 123.327293 47.020319 
L 124.368753 47.020319 
L 124.368753 46.520471 
L 124.494669 46.520471 
L 124.494669 46.020622 
L 126.281824 46.020622 
L 126.281824 45.020925 
L 127.590383 45.020925 
L 127.590383 44.021228 
L 338.688 44.021228 
L 338.688 44.021228 
" style="fill:none;stroke:#ff0000;stroke-linecap:square;stroke-width:1.5;"/>
   </g>
   <g id="line2d_55">
    <defs>
     <path d="M 0 -6 
L -5.196152 -3 
L -5.196152 3 
L -0 6 
L 5.196152 3 
L 5.196152 -3 
z
" id="m0d8b8d0177" style="stroke:#ff0000;stroke-linejoin:miter;stroke-width:1.5;"/>
    </defs>
    <g>
     <use style="fill-opacity:0;stroke:#ff0000;stroke-linejoin:miter;stroke-width:1.5;" x="112.026172" xlink:href="#m0d8b8d0177" y="195.475345"/>
     <use style="fill-opacity:0;stroke:#ff0000;stroke-linejoin:miter;stroke-width:1.5;" x="127.590383" xlink:href="#m0d8b8d0177" y="45.020925"/>
     <use style="fill-opacity:0;stroke:#ff0000;stroke-linejoin:miter;stroke-width:1.5;" x="127.590383" xlink:href="#m0d8b8d0177" y="44.021228"/>
     <use style="fill-opacity:0;stroke:#ff0000;stroke-linejoin:miter;stroke-width:1.5;" x="127.590383" xlink:href="#m0d8b8d0177" y="44.021228"/>
     <use style="fill-opacity:0;stroke:#ff0000;stroke-linejoin:miter;stroke-width:1.5;" x="338.688" xlink:href="#m0d8b8d0177" y="44.021228"/>
    </g>
   </g>
   <g id="line2d_56">
    <path style="fill:none;stroke:#ff0000;stroke-linecap:square;stroke-width:1.5;"/>
    <g/>
   </g>
   <g id="line2d_57">
    <defs>
     <path d="M 0 1.5 
C 0.397805 1.5 0.77937 1.341951 1.06066 1.06066 
C 1.341951 0.77937 1.5 0.397805 1.5 0 
C 1.5 -0.397805 1.341951 -0.77937 1.06066 -1.06066 
C 0.77937 -1.341951 0.397805 -1.5 0 -1.5 
C -0.397805 -1.5 -0.77937 -1.341951 -1.06066 -1.06066 
C -1.341951 -0.77937 -1.5 -0.397805 -1.5 0 
C -1.5 0.397805 -1.341951 0.77937 -1.06066 1.06066 
C -0.77937 1.341951 -0.397805 1.5 0 1.5 
z
" id="m9d81152d13" style="stroke:#9acd32;"/>
    </defs>
    <g>
     <use style="fill:#9acd32;stroke:#9acd32;" x="122.503236" xlink:href="#m9d81152d13" y="44.021228"/>
     <use style="fill:#9acd32;stroke:#9acd32;" x="122.503236" xlink:href="#m9d81152d13" y="44.021228"/>
    </g>
   </g>
   <g id="line2d_58">
    <path d="M 93.121756 298.944 
L 93.121756 298.444151 
L 95.918017 298.444151 
L 95.918017 296.944606 
L 96.552242 296.944606 
L 96.552242 290.446574 
L 99.41757 290.446574 
L 99.41757 275.950966 
L 99.938184 275.950966 
L 99.938184 274.45142 
L 100.934985 274.45142 
L 100.934985 271.452328 
L 101.412804 271.452328 
L 101.412804 266.953691 
L 101.877879 266.953691 
L 101.877879 259.455963 
L 102.330873 259.455963 
L 102.330873 256.95672 
L 103.203018 256.95672 
L 103.203018 252.957931 
L 103.623262 252.957931 
L 103.623262 251.458386 
L 104.033617 251.458386 
L 104.033617 243.960657 
L 104.434538 243.960657 
L 104.434538 232.46414 
L 105.209745 232.46414 
L 105.209745 231.464443 
L 105.584798 231.464443 
L 105.584798 229.465048 
L 105.951954 229.465048 
L 105.951954 222.967017 
L 106.311539 222.967017 
L 106.311539 213.469894 
L 106.66386 213.469894 
L 106.66386 212.470197 
L 107.009204 212.470197 
L 107.009204 210.970651 
L 107.347841 210.970651 
L 107.347841 210.470803 
L 107.680028 210.470803 
L 107.680028 198.474437 
L 108.006005 198.474437 
L 108.006005 180.479888 
L 108.640231 180.479888 
L 108.640231 177.480797 
L 108.948899 177.480797 
L 108.948899 176.4811 
L 109.252198 176.4811 
L 109.252198 174.981554 
L 109.550313 174.981554 
L 109.550313 163.984885 
L 109.843417 163.984885 
L 109.843417 161.485642 
L 110.131676 161.485642 
L 110.131676 157.486854 
L 110.415248 157.486854 
L 110.415248 156.487157 
L 110.694282 156.487157 
L 110.694282 151.488671 
L 110.968922 151.488671 
L 110.968922 146.990034 
L 111.239304 146.990034 
L 111.239304 141.491699 
L 111.505558 141.491699 
L 111.505558 138.492608 
L 111.767808 138.492608 
L 111.767808 136.493214 
L 112.026172 136.493214 
L 112.026172 132.994274 
L 112.280765 132.994274 
L 112.280765 127.995788 
L 112.531694 127.995788 
L 112.531694 123.497151 
L 112.779064 123.497151 
L 112.779064 120.997908 
L 113.022974 120.997908 
L 113.022974 119.998211 
L 113.26352 119.998211 
L 113.26352 116.999119 
L 113.500792 116.999119 
L 113.500792 114.000028 
L 113.73488 114.000028 
L 113.73488 107.002148 
L 113.965867 107.002148 
L 113.965867 102.003662 
L 114.193835 102.003662 
L 114.193835 101.003965 
L 114.418861 101.003965 
L 114.418861 99.504419 
L 114.860386 99.504419 
L 114.860386 93.006388 
L 115.077025 93.006388 
L 115.077025 91.006994 
L 115.291007 91.006994 
L 115.291007 89.507448 
L 115.711251 89.507448 
L 115.711251 89.007599 
L 115.917635 89.007599 
L 115.917635 84.508962 
L 116.121606 84.508962 
L 116.121606 77.511082 
L 116.323218 77.511082 
L 116.323218 76.511385 
L 116.914437 76.511385 
L 116.914437 75.011839 
L 117.107138 75.011839 
L 117.107138 68.013959 
L 117.297733 68.013959 
L 117.297733 67.514111 
L 118.039942 67.514111 
L 118.039942 66.514414 
L 118.220662 66.514414 
L 118.220662 65.514716 
L 119.097192 65.514716 
L 119.097192 59.016685 
L 119.931767 59.016685 
L 119.931767 55.517745 
L 120.093994 55.517745 
L 120.093994 54.018199 
L 120.728219 54.018199 
L 120.728219 51.019108 
L 120.883236 51.019108 
L 120.883236 50.019411 
L 121.489881 50.019411 
L 121.489881 49.019713 
L 121.785469 49.019713 
L 121.785469 45.520773 
L 122.503236 45.520773 
L 122.503236 44.021228 
L 338.688 44.021228 
L 338.688 44.021228 
" style="fill:none;stroke:#9acd32;stroke-linecap:square;stroke-width:1.5;"/>
   </g>
   <g id="line2d_59">
    <defs>
     <path d="M 0 -6 
L -6 6 
L 6 6 
z
" id="m8eeab82859" style="stroke:#9acd32;stroke-linejoin:miter;stroke-width:1.5;"/>
    </defs>
    <g>
     <use style="fill-opacity:0;stroke:#9acd32;stroke-linejoin:miter;stroke-width:1.5;" x="112.779064" xlink:href="#m8eeab82859" y="120.997908"/>
     <use style="fill-opacity:0;stroke:#9acd32;stroke-linejoin:miter;stroke-width:1.5;" x="122.503236" xlink:href="#m8eeab82859" y="45.520773"/>
     <use style="fill-opacity:0;stroke:#9acd32;stroke-linejoin:miter;stroke-width:1.5;" x="122.503236" xlink:href="#m8eeab82859" y="44.021228"/>
     <use style="fill-opacity:0;stroke:#9acd32;stroke-linejoin:miter;stroke-width:1.5;" x="122.503236" xlink:href="#m8eeab82859" y="44.021228"/>
     <use style="fill-opacity:0;stroke:#9acd32;stroke-linejoin:miter;stroke-width:1.5;" x="338.688" xlink:href="#m8eeab82859" y="44.021228"/>
    </g>
   </g>
   <g id="line2d_60">
    <path style="fill:none;stroke:#9acd32;stroke-linecap:square;stroke-width:1.5;"/>
    <g/>
   </g>
   <g id="line2d_61">
    <path d="M 338.688 44.021228 
L 369.60768 293.845545 
" style="fill:none;stroke:#000080;stroke-linecap:square;stroke-width:1.5;"/>
    <g>
     <use style="fill-opacity:0;stroke:#000080;stroke-width:1.5;" x="338.688" xlink:href="#m2f6d7c74f9" y="44.021228"/>
     <use style="fill-opacity:0;stroke:#000080;stroke-width:1.5;" x="369.60768" xlink:href="#m2f6d7c74f9" y="293.845545"/>
    </g>
   </g>
   <g id="line2d_62">
    <path d="M 338.688 44.021228 
L 369.60768 244.900372 
" style="fill:none;stroke:#ffa500;stroke-linecap:square;stroke-width:1.5;"/>
    <g>
     <use style="fill-opacity:0;stroke:#ffa500;stroke-linejoin:bevel;stroke-width:1.5;" x="338.688" xlink:href="#mdd25e36c9c" y="44.021228"/>
     <use style="fill-opacity:0;stroke:#ffa500;stroke-linejoin:bevel;stroke-width:1.5;" x="369.60768" xlink:href="#mdd25e36c9c" y="244.900372"/>
    </g>
   </g>
   <g id="line2d_63">
    <path d="M 338.688 44.021228 
L 369.60768 195.9552 
" style="fill:none;stroke:#ff00ff;stroke-linecap:square;stroke-width:1.5;"/>
    <g>
     <use style="fill-opacity:0;stroke:#ff00ff;stroke-linejoin:miter;stroke-width:1.5;" x="338.688" xlink:href="#m7139edd283" y="44.021228"/>
     <use style="fill-opacity:0;stroke:#ff00ff;stroke-linejoin:miter;stroke-width:1.5;" x="369.60768" xlink:href="#m7139edd283" y="195.9552"/>
    </g>
   </g>
   <g id="line2d_64">
    <path d="M 338.688 44.021228 
L 369.60768 147.010028 
" style="fill:none;stroke:#ff0000;stroke-linecap:square;stroke-width:1.5;"/>
    <g>
     <use style="fill-opacity:0;stroke:#ff0000;stroke-linejoin:miter;stroke-width:1.5;" x="338.688" xlink:href="#m0d8b8d0177" y="44.021228"/>
     <use style="fill-opacity:0;stroke:#ff0000;stroke-linejoin:miter;stroke-width:1.5;" x="369.60768" xlink:href="#m0d8b8d0177" y="147.010028"/>
    </g>
   </g>
   <g id="line2d_65">
    <path d="M 338.688 44.021228 
L 369.60768 98.064855 
" style="fill:none;stroke:#6495ed;stroke-linecap:square;stroke-width:1.5;"/>
    <g>
     <use style="fill-opacity:0;stroke:#6495ed;stroke-linejoin:miter;stroke-width:1.5;" x="338.688" xlink:href="#mf9c2c2f821" y="44.021228"/>
     <use style="fill-opacity:0;stroke:#6495ed;stroke-linejoin:miter;stroke-width:1.5;" x="369.60768" xlink:href="#mf9c2c2f821" y="98.064855"/>
    </g>
   </g>
   <g id="line2d_66">
    <path d="M 338.688 44.021228 
L 369.60768 49.119683 
" style="fill:none;stroke:#9acd32;stroke-linecap:square;stroke-width:1.5;"/>
    <g>
     <use style="fill-opacity:0;stroke:#9acd32;stroke-linejoin:miter;stroke-width:1.5;" x="338.688" xlink:href="#m8eeab82859" y="44.021228"/>
     <use style="fill-opacity:0;stroke:#9acd32;stroke-linejoin:miter;stroke-width:1.5;" x="369.60768" xlink:href="#m8eeab82859" y="49.119683"/>
    </g>
   </g>
   <g id="line2d_67">
    <path d="M 338.688 298.944 
L 338.688 44.021228 
" style="fill:none;stroke:#000000;stroke-linecap:square;stroke-width:1.5;"/>
   </g>
   <g id="patch_3">
    <path d="M 57.6 298.944 
L 57.6 41.472 
" style="fill:none;stroke:#000000;stroke-linecap:square;stroke-linejoin:miter;stroke-width:0.8;"/>
   </g>
   <g id="patch_4">
    <path d="M 338.688 298.944 
L 338.688 41.472 
" style="fill:none;stroke:#000000;stroke-linecap:square;stroke-linejoin:miter;stroke-width:0.8;"/>
   </g>
   <g id="patch_5">
    <path d="M 57.6 298.944 
L 338.688 298.944 
" style="fill:none;stroke:#000000;stroke-linecap:square;stroke-linejoin:miter;stroke-width:0.8;"/>
   </g>
   <g id="patch_6">
    <path d="M 57.6 41.472 
L 338.688 41.472 
" style="fill:none;stroke:#000000;stroke-linecap:square;stroke-linejoin:miter;stroke-width:0.8;"/>
   </g>
   <g id="text_13">
    <!-- CMA-ES  2 -->
    <defs>
     <path d="M 64.40625 67.28125 
L 64.40625 56.890625 
Q 59.421875 61.53125 53.78125 63.8125 
Q 48.140625 66.109375 41.796875 66.109375 
Q 29.296875 66.109375 22.65625 58.46875 
Q 16.015625 50.828125 16.015625 36.375 
Q 16.015625 21.96875 22.65625 14.328125 
Q 29.296875 6.6875 41.796875 6.6875 
Q 48.140625 6.6875 53.78125 8.984375 
Q 59.421875 11.28125 64.40625 15.921875 
L 64.40625 5.609375 
Q 59.234375 2.09375 53.4375 0.328125 
Q 47.65625 -1.421875 41.21875 -1.421875 
Q 24.65625 -1.421875 15.125 8.703125 
Q 5.609375 18.84375 5.609375 36.375 
Q 5.609375 53.953125 15.125 64.078125 
Q 24.65625 74.21875 41.21875 74.21875 
Q 47.75 74.21875 53.53125 72.484375 
Q 59.328125 70.75 64.40625 67.28125 
z
" id="DejaVuSans-67"/>
     <path d="M 9.8125 72.90625 
L 24.515625 72.90625 
L 43.109375 23.296875 
L 61.8125 72.90625 
L 76.515625 72.90625 
L 76.515625 0 
L 66.890625 0 
L 66.890625 64.015625 
L 48.09375 14.015625 
L 38.1875 14.015625 
L 19.390625 64.015625 
L 19.390625 0 
L 9.8125 0 
z
" id="DejaVuSans-77"/>
     <path d="M 34.1875 63.1875 
L 20.796875 26.90625 
L 47.609375 26.90625 
z
M 28.609375 72.90625 
L 39.796875 72.90625 
L 67.578125 0 
L 57.328125 0 
L 50.6875 18.703125 
L 17.828125 18.703125 
L 11.1875 0 
L 0.78125 0 
z
" id="DejaVuSans-65"/>
     <path d="M 9.8125 72.90625 
L 55.90625 72.90625 
L 55.90625 64.59375 
L 19.671875 64.59375 
L 19.671875 43.015625 
L 54.390625 43.015625 
L 54.390625 34.71875 
L 19.671875 34.71875 
L 19.671875 8.296875 
L 56.78125 8.296875 
L 56.78125 0 
L 9.8125 0 
z
" id="DejaVuSans-69"/>
     <path d="M 53.515625 70.515625 
L 53.515625 60.890625 
Q 47.90625 63.578125 42.921875 64.890625 
Q 37.9375 66.21875 33.296875 66.21875 
Q 25.25 66.21875 20.875 63.09375 
Q 16.5 59.96875 16.5 54.203125 
Q 16.5 49.359375 19.40625 46.890625 
Q 22.3125 44.4375 30.421875 42.921875 
L 36.375 41.703125 
Q 47.40625 39.59375 52.65625 34.296875 
Q 57.90625 29 57.90625 20.125 
Q 57.90625 9.515625 50.796875 4.046875 
Q 43.703125 -1.421875 29.984375 -1.421875 
Q 24.8125 -1.421875 18.96875 -0.25 
Q 13.140625 0.921875 6.890625 3.21875 
L 6.890625 13.375 
Q 12.890625 10.015625 18.65625 8.296875 
Q 24.421875 6.59375 29.984375 6.59375 
Q 38.421875 6.59375 43.015625 9.90625 
Q 47.609375 13.234375 47.609375 19.390625 
Q 47.609375 24.75 44.3125 27.78125 
Q 41.015625 30.8125 33.5 32.328125 
L 27.484375 33.5 
Q 16.453125 35.6875 11.515625 40.375 
Q 6.59375 45.0625 6.59375 53.421875 
Q 6.59375 63.09375 13.40625 68.65625 
Q 20.21875 74.21875 32.171875 74.21875 
Q 37.3125 74.21875 42.625 73.28125 
Q 47.953125 72.359375 53.515625 70.515625 
z
" id="DejaVuSans-83"/>
    </defs>
    <g transform="translate(375.22944 298.536482)scale(0.17 -0.17)">
     <use xlink:href="#DejaVuSans-67"/>
     <use x="69.824219" xlink:href="#DejaVuSans-77"/>
     <use x="156.103516" xlink:href="#DejaVuSans-65"/>
     <use x="224.480469" xlink:href="#DejaVuSans-45"/>
     <use x="260.564453" xlink:href="#DejaVuSans-69"/>
     <use x="323.748047" xlink:href="#DejaVuSans-83"/>
     <use x="387.224609" xlink:href="#DejaVuSans-32"/>
     <use x="419.011719" xlink:href="#DejaVuSans-32"/>
     <use x="450.798828" xlink:href="#DejaVuSans-50"/>
    </g>
   </g>
   <g id="text_14">
    <!-- IPOPsaACM -->
    <defs>
     <path d="M 9.8125 72.90625 
L 19.671875 72.90625 
L 19.671875 0 
L 9.8125 0 
z
" id="DejaVuSans-73"/>
     <path d="M 19.671875 64.796875 
L 19.671875 37.40625 
L 32.078125 37.40625 
Q 38.96875 37.40625 42.71875 40.96875 
Q 46.484375 44.53125 46.484375 51.125 
Q 46.484375 57.671875 42.71875 61.234375 
Q 38.96875 64.796875 32.078125 64.796875 
z
M 9.8125 72.90625 
L 32.078125 72.90625 
Q 44.34375 72.90625 50.609375 67.359375 
Q 56.890625 61.8125 56.890625 51.125 
Q 56.890625 40.328125 50.609375 34.8125 
Q 44.34375 29.296875 32.078125 29.296875 
L 19.671875 29.296875 
L 19.671875 0 
L 9.8125 0 
z
" id="DejaVuSans-80"/>
     <path d="M 39.40625 66.21875 
Q 28.65625 66.21875 22.328125 58.203125 
Q 16.015625 50.203125 16.015625 36.375 
Q 16.015625 22.609375 22.328125 14.59375 
Q 28.65625 6.59375 39.40625 6.59375 
Q 50.140625 6.59375 56.421875 14.59375 
Q 62.703125 22.609375 62.703125 36.375 
Q 62.703125 50.203125 56.421875 58.203125 
Q 50.140625 66.21875 39.40625 66.21875 
z
M 39.40625 74.21875 
Q 54.734375 74.21875 63.90625 63.9375 
Q 73.09375 53.65625 73.09375 36.375 
Q 73.09375 19.140625 63.90625 8.859375 
Q 54.734375 -1.421875 39.40625 -1.421875 
Q 24.03125 -1.421875 14.8125 8.828125 
Q 5.609375 19.09375 5.609375 36.375 
Q 5.609375 53.65625 14.8125 63.9375 
Q 24.03125 74.21875 39.40625 74.21875 
z
" id="DejaVuSans-79"/>
    </defs>
    <g transform="translate(375.22944 249.59131)scale(0.17 -0.17)">
     <use xlink:href="#DejaVuSans-73"/>
     <use x="29.492188" xlink:href="#DejaVuSans-80"/>
     <use x="89.794922" xlink:href="#DejaVuSans-79"/>
     <use x="168.505859" xlink:href="#DejaVuSans-80"/>
     <use x="228.792969" xlink:href="#DejaVuSans-115"/>
     <use x="280.892578" xlink:href="#DejaVuSans-97"/>
     <use x="342.171875" xlink:href="#DejaVuSans-65"/>
     <use x="410.564453" xlink:href="#DejaVuSans-67"/>
     <use x="480.388672" xlink:href="#DejaVuSans-77"/>
    </g>
   </g>
   <g id="text_15">
    <!-- lmm-CMA-E -->
    <g transform="translate(375.22944 200.646137)scale(0.17 -0.17)">
     <use xlink:href="#DejaVuSans-108"/>
     <use x="27.783203" xlink:href="#DejaVuSans-109"/>
     <use x="125.195312" xlink:href="#DejaVuSans-109"/>
     <use x="222.607422" xlink:href="#DejaVuSans-45"/>
     <use x="258.691406" xlink:href="#DejaVuSans-67"/>
     <use x="328.515625" xlink:href="#DejaVuSans-77"/>
     <use x="414.794922" xlink:href="#DejaVuSans-65"/>
     <use x="483.171875" xlink:href="#DejaVuSans-45"/>
     <use x="519.255859" xlink:href="#DejaVuSans-69"/>
    </g>
   </g>
   <g id="text_16">
    <!-- lq-CMA-ES -->
    <defs>
     <path d="M 14.796875 27.296875 
Q 14.796875 17.390625 18.875 11.75 
Q 22.953125 6.109375 30.078125 6.109375 
Q 37.203125 6.109375 41.296875 11.75 
Q 45.40625 17.390625 45.40625 27.296875 
Q 45.40625 37.203125 41.296875 42.84375 
Q 37.203125 48.484375 30.078125 48.484375 
Q 22.953125 48.484375 18.875 42.84375 
Q 14.796875 37.203125 14.796875 27.296875 
z
M 45.40625 8.203125 
Q 42.578125 3.328125 38.25 0.953125 
Q 33.9375 -1.421875 27.875 -1.421875 
Q 17.96875 -1.421875 11.734375 6.484375 
Q 5.515625 14.40625 5.515625 27.296875 
Q 5.515625 40.1875 11.734375 48.09375 
Q 17.96875 56 27.875 56 
Q 33.9375 56 38.25 53.625 
Q 42.578125 51.265625 45.40625 46.390625 
L 45.40625 54.6875 
L 54.390625 54.6875 
L 54.390625 -20.796875 
L 45.40625 -20.796875 
z
" id="DejaVuSans-113"/>
    </defs>
    <g transform="translate(375.22944 151.700965)scale(0.17 -0.17)">
     <use xlink:href="#DejaVuSans-108"/>
     <use x="27.783203" xlink:href="#DejaVuSans-113"/>
     <use x="91.259766" xlink:href="#DejaVuSans-45"/>
     <use x="127.34375" xlink:href="#DejaVuSans-67"/>
     <use x="197.167969" xlink:href="#DejaVuSans-77"/>
     <use x="283.447266" xlink:href="#DejaVuSans-65"/>
     <use x="351.824219" xlink:href="#DejaVuSans-45"/>
     <use x="387.908203" xlink:href="#DejaVuSans-69"/>
     <use x="451.091797" xlink:href="#DejaVuSans-83"/>
    </g>
   </g>
   <g id="text_17">
    <!-- DTS5-CMA -->
    <defs>
     <path d="M 19.671875 64.796875 
L 19.671875 8.109375 
L 31.59375 8.109375 
Q 46.6875 8.109375 53.6875 14.9375 
Q 60.6875 21.78125 60.6875 36.53125 
Q 60.6875 51.171875 53.6875 57.984375 
Q 46.6875 64.796875 31.59375 64.796875 
z
M 9.8125 72.90625 
L 30.078125 72.90625 
Q 51.265625 72.90625 61.171875 64.09375 
Q 71.09375 55.28125 71.09375 36.53125 
Q 71.09375 17.671875 61.125 8.828125 
Q 51.171875 0 30.078125 0 
L 9.8125 0 
z
" id="DejaVuSans-68"/>
     <path d="M -0.296875 72.90625 
L 61.375 72.90625 
L 61.375 64.59375 
L 35.5 64.59375 
L 35.5 0 
L 25.59375 0 
L 25.59375 64.59375 
L -0.296875 64.59375 
z
" id="DejaVuSans-84"/>
     <path d="M 10.796875 72.90625 
L 49.515625 72.90625 
L 49.515625 64.59375 
L 19.828125 64.59375 
L 19.828125 46.734375 
Q 21.96875 47.46875 24.109375 47.828125 
Q 26.265625 48.1875 28.421875 48.1875 
Q 40.625 48.1875 47.75 41.5 
Q 54.890625 34.8125 54.890625 23.390625 
Q 54.890625 11.625 47.5625 5.09375 
Q 40.234375 -1.421875 26.90625 -1.421875 
Q 22.3125 -1.421875 17.546875 -0.640625 
Q 12.796875 0.140625 7.71875 1.703125 
L 7.71875 11.625 
Q 12.109375 9.234375 16.796875 8.0625 
Q 21.484375 6.890625 26.703125 6.890625 
Q 35.15625 6.890625 40.078125 11.328125 
Q 45.015625 15.765625 45.015625 23.390625 
Q 45.015625 31 40.078125 35.4375 
Q 35.15625 39.890625 26.703125 39.890625 
Q 22.75 39.890625 18.8125 39.015625 
Q 14.890625 38.140625 10.796875 36.28125 
z
" id="DejaVuSans-53"/>
    </defs>
    <g transform="translate(375.22944 102.755793)scale(0.17 -0.17)">
     <use xlink:href="#DejaVuSans-68"/>
     <use x="77.001953" xlink:href="#DejaVuSans-84"/>
     <use x="138.085938" xlink:href="#DejaVuSans-83"/>
     <use x="201.5625" xlink:href="#DejaVuSans-53"/>
     <use x="265.185547" xlink:href="#DejaVuSans-45"/>
     <use x="301.269531" xlink:href="#DejaVuSans-67"/>
     <use x="371.09375" xlink:href="#DejaVuSans-77"/>
     <use x="457.373047" xlink:href="#DejaVuSans-65"/>
    </g>
   </g>
   <g id="text_18">
    <!-- SLSQP+CMA -->
    <defs>
     <path d="M 9.8125 72.90625 
L 19.671875 72.90625 
L 19.671875 8.296875 
L 55.171875 8.296875 
L 55.171875 0 
L 9.8125 0 
z
" id="DejaVuSans-76"/>
     <path d="M 39.40625 66.21875 
Q 28.65625 66.21875 22.328125 58.203125 
Q 16.015625 50.203125 16.015625 36.375 
Q 16.015625 22.609375 22.328125 14.59375 
Q 28.65625 6.59375 39.40625 6.59375 
Q 50.140625 6.59375 56.421875 14.59375 
Q 62.703125 22.609375 62.703125 36.375 
Q 62.703125 50.203125 56.421875 58.203125 
Q 50.140625 66.21875 39.40625 66.21875 
z
M 53.21875 1.3125 
L 66.21875 -12.890625 
L 54.296875 -12.890625 
L 43.5 -1.21875 
Q 41.890625 -1.3125 41.03125 -1.359375 
Q 40.1875 -1.421875 39.40625 -1.421875 
Q 24.03125 -1.421875 14.8125 8.859375 
Q 5.609375 19.140625 5.609375 36.375 
Q 5.609375 53.65625 14.8125 63.9375 
Q 24.03125 74.21875 39.40625 74.21875 
Q 54.734375 74.21875 63.90625 63.9375 
Q 73.09375 53.65625 73.09375 36.375 
Q 73.09375 23.6875 67.984375 14.640625 
Q 62.890625 5.609375 53.21875 1.3125 
z
" id="DejaVuSans-81"/>
     <path d="M 46 62.703125 
L 46 35.5 
L 73.1875 35.5 
L 73.1875 27.203125 
L 46 27.203125 
L 46 0 
L 37.796875 0 
L 37.796875 27.203125 
L 10.59375 27.203125 
L 10.59375 35.5 
L 37.796875 35.5 
L 37.796875 62.703125 
z
" id="DejaVuSans-43"/>
    </defs>
    <g transform="translate(375.22944 53.810621)scale(0.17 -0.17)">
     <use xlink:href="#DejaVuSans-83"/>
     <use x="63.476562" xlink:href="#DejaVuSans-76"/>
     <use x="119.189453" xlink:href="#DejaVuSans-83"/>
     <use x="182.666016" xlink:href="#DejaVuSans-81"/>
     <use x="261.376953" xlink:href="#DejaVuSans-80"/>
     <use x="321.679688" xlink:href="#DejaVuSans-43"/>
     <use x="405.46875" xlink:href="#DejaVuSans-67"/>
     <use x="475.292969" xlink:href="#DejaVuSans-77"/>
     <use x="561.572266" xlink:href="#DejaVuSans-65"/>
    </g>
   </g>
   <g id="text_19">
    <!-- bbob f2, 3-D -->
    <defs>
     <path d="M 48.6875 27.296875 
Q 48.6875 37.203125 44.609375 42.84375 
Q 40.53125 48.484375 33.40625 48.484375 
Q 26.265625 48.484375 22.1875 42.84375 
Q 18.109375 37.203125 18.109375 27.296875 
Q 18.109375 17.390625 22.1875 11.75 
Q 26.265625 6.109375 33.40625 6.109375 
Q 40.53125 6.109375 44.609375 11.75 
Q 48.6875 17.390625 48.6875 27.296875 
z
M 18.109375 46.390625 
Q 20.953125 51.265625 25.265625 53.625 
Q 29.59375 56 35.59375 56 
Q 45.5625 56 51.78125 48.09375 
Q 58.015625 40.1875 58.015625 27.296875 
Q 58.015625 14.40625 51.78125 6.484375 
Q 45.5625 -1.421875 35.59375 -1.421875 
Q 29.59375 -1.421875 25.265625 0.953125 
Q 20.953125 3.328125 18.109375 8.203125 
L 18.109375 0 
L 9.078125 0 
L 9.078125 75.984375 
L 18.109375 75.984375 
z
" id="DejaVuSans-98"/>
     <path d="M 40.578125 39.3125 
Q 47.65625 37.796875 51.625 33 
Q 55.609375 28.21875 55.609375 21.1875 
Q 55.609375 10.40625 48.1875 4.484375 
Q 40.765625 -1.421875 27.09375 -1.421875 
Q 22.515625 -1.421875 17.65625 -0.515625 
Q 12.796875 0.390625 7.625 2.203125 
L 7.625 11.71875 
Q 11.71875 9.328125 16.59375 8.109375 
Q 21.484375 6.890625 26.8125 6.890625 
Q 36.078125 6.890625 40.9375 10.546875 
Q 45.796875 14.203125 45.796875 21.1875 
Q 45.796875 27.640625 41.28125 31.265625 
Q 36.765625 34.90625 28.71875 34.90625 
L 20.21875 34.90625 
L 20.21875 43.015625 
L 29.109375 43.015625 
Q 36.375 43.015625 40.234375 45.921875 
Q 44.09375 48.828125 44.09375 54.296875 
Q 44.09375 59.90625 40.109375 62.90625 
Q 36.140625 65.921875 28.71875 65.921875 
Q 24.65625 65.921875 20.015625 65.03125 
Q 15.375 64.15625 9.8125 62.3125 
L 9.8125 71.09375 
Q 15.4375 72.65625 20.34375 73.4375 
Q 25.25 74.21875 29.59375 74.21875 
Q 40.828125 74.21875 47.359375 69.109375 
Q 53.90625 64.015625 53.90625 55.328125 
Q 53.90625 49.265625 50.4375 45.09375 
Q 46.96875 40.921875 40.578125 39.3125 
z
" id="DejaVuSans-51"/>
    </defs>
    <g transform="translate(60.41088 51.797126)scale(0.102 -0.102)">
     <use xlink:href="#DejaVuSans-98"/>
     <use x="63.476562" xlink:href="#DejaVuSans-98"/>
     <use x="126.953125" xlink:href="#DejaVuSans-111"/>
     <use x="188.134766" xlink:href="#DejaVuSans-98"/>
     <use x="251.611328" xlink:href="#DejaVuSans-32"/>
     <use x="283.398438" xlink:href="#DejaVuSans-102"/>
     <use x="318.603516" xlink:href="#DejaVuSans-50"/>
     <use x="382.226562" xlink:href="#DejaVuSans-44"/>
     <use x="414.013672" xlink:href="#DejaVuSans-32"/>
     <use x="445.800781" xlink:href="#DejaVuSans-51"/>
     <use x="509.423828" xlink:href="#DejaVuSans-45"/>
     <use x="545.507812" xlink:href="#DejaVuSans-68"/>
    </g>
    <!-- 51 targets: 100..1e-08 -->
    <defs>
     <path d="M 11.71875 12.40625 
L 22.015625 12.40625 
L 22.015625 0 
L 11.71875 0 
z
M 11.71875 51.703125 
L 22.015625 51.703125 
L 22.015625 39.3125 
L 11.71875 39.3125 
z
" id="DejaVuSans-58"/>
    </defs>
    <g transform="translate(60.41088 63.218895)scale(0.102 -0.102)">
     <use xlink:href="#DejaVuSans-53"/>
     <use x="63.623047" xlink:href="#DejaVuSans-49"/>
     <use x="127.246094" xlink:href="#DejaVuSans-32"/>
     <use x="159.033203" xlink:href="#DejaVuSans-116"/>
     <use x="198.242188" xlink:href="#DejaVuSans-97"/>
     <use x="259.521484" xlink:href="#DejaVuSans-114"/>
     <use x="300.619141" xlink:href="#DejaVuSans-103"/>
     <use x="364.095703" xlink:href="#DejaVuSans-101"/>
     <use x="425.619141" xlink:href="#DejaVuSans-116"/>
     <use x="464.828125" xlink:href="#DejaVuSans-115"/>
     <use x="516.927734" xlink:href="#DejaVuSans-58"/>
     <use x="550.619141" xlink:href="#DejaVuSans-32"/>
     <use x="582.40625" xlink:href="#DejaVuSans-49"/>
     <use x="646.029297" xlink:href="#DejaVuSans-48"/>
     <use x="709.652344" xlink:href="#DejaVuSans-48"/>
     <use x="773.275391" xlink:href="#DejaVuSans-46"/>
     <use x="805.0625" xlink:href="#DejaVuSans-46"/>
     <use x="836.849609" xlink:href="#DejaVuSans-49"/>
     <use x="900.472656" xlink:href="#DejaVuSans-101"/>
     <use x="961.996094" xlink:href="#DejaVuSans-45"/>
     <use x="998.080078" xlink:href="#DejaVuSans-48"/>
     <use x="1061.703125" xlink:href="#DejaVuSans-56"/>
    </g>
    <!-- 30, 15 instances -->
    <g transform="translate(60.41088 74.640664)scale(0.102 -0.102)">
     <use xlink:href="#DejaVuSans-51"/>
     <use x="63.623047" xlink:href="#DejaVuSans-48"/>
     <use x="127.246094" xlink:href="#DejaVuSans-44"/>
     <use x="159.033203" xlink:href="#DejaVuSans-32"/>
     <use x="190.820312" xlink:href="#DejaVuSans-49"/>
     <use x="254.443359" xlink:href="#DejaVuSans-53"/>
     <use x="318.066406" xlink:href="#DejaVuSans-32"/>
     <use x="349.853516" xlink:href="#DejaVuSans-105"/>
     <use x="377.636719" xlink:href="#DejaVuSans-110"/>
     <use x="441.015625" xlink:href="#DejaVuSans-115"/>
     <use x="493.115234" xlink:href="#DejaVuSans-116"/>
     <use x="532.324219" xlink:href="#DejaVuSans-97"/>
     <use x="593.603516" xlink:href="#DejaVuSans-110"/>
     <use x="656.982422" xlink:href="#DejaVuSans-99"/>
     <use x="711.962891" xlink:href="#DejaVuSans-101"/>
     <use x="773.486328" xlink:href="#DejaVuSans-115"/>
    </g>
   </g>
   <g id="text_20">
    <!-- v2.3.17 -->
    <defs>
     <path d="M 8.203125 72.90625 
L 55.078125 72.90625 
L 55.078125 68.703125 
L 28.609375 0 
L 18.3125 0 
L 43.21875 64.59375 
L 8.203125 64.59375 
z
" id="DejaVuSans-55"/>
    </defs>
    <g style="fill:#808080;" transform="translate(179.2815 294.289592)scale(0.1 -0.1)">
     <use xlink:href="#DejaVuSans-118"/>
     <use x="59.179688" xlink:href="#DejaVuSans-50"/>
     <use x="122.802734" xlink:href="#DejaVuSans-46"/>
     <use x="154.589844" xlink:href="#DejaVuSans-51"/>
     <use x="218.212891" xlink:href="#DejaVuSans-46"/>
     <use x="250" xlink:href="#DejaVuSans-49"/>
     <use x="313.623047" xlink:href="#DejaVuSans-55"/>
    </g>
   </g>
   <g id="text_21">
    <!-- 2 Ellipsoid separable -->
    <g transform="translate(94.611187 35.472)scale(0.2 -0.2)">
     <use xlink:href="#DejaVuSans-50"/>
     <use x="63.623047" xlink:href="#DejaVuSans-32"/>
     <use x="95.410156" xlink:href="#DejaVuSans-69"/>
     <use x="158.59375" xlink:href="#DejaVuSans-108"/>
     <use x="186.376953" xlink:href="#DejaVuSans-108"/>
     <use x="214.160156" xlink:href="#DejaVuSans-105"/>
     <use x="241.943359" xlink:href="#DejaVuSans-112"/>
     <use x="305.419922" xlink:href="#DejaVuSans-115"/>
     <use x="357.519531" xlink:href="#DejaVuSans-111"/>
     <use x="418.701172" xlink:href="#DejaVuSans-105"/>
     <use x="446.484375" xlink:href="#DejaVuSans-100"/>
     <use x="509.960938" xlink:href="#DejaVuSans-32"/>
     <use x="541.748047" xlink:href="#DejaVuSans-115"/>
     <use x="593.847656" xlink:href="#DejaVuSans-101"/>
     <use x="655.371094" xlink:href="#DejaVuSans-112"/>
     <use x="718.847656" xlink:href="#DejaVuSans-97"/>
     <use x="780.126953" xlink:href="#DejaVuSans-114"/>
     <use x="821.240234" xlink:href="#DejaVuSans-97"/>
     <use x="882.519531" xlink:href="#DejaVuSans-98"/>
     <use x="945.996094" xlink:href="#DejaVuSans-108"/>
     <use x="973.779297" xlink:href="#DejaVuSans-101"/>
    </g>
   </g>
  </g>
 </g>
 <defs>
  <clipPath id="pb7440660b6">
   <rect height="257.472" width="281.088" x="57.6" y="41.472"/>
  </clipPath>
 </defs>
</svg>
