<?xml version="1.0" encoding="utf-8" standalone="no"?>
<!DOCTYPE svg PUBLIC "-//W3C//DTD SVG 1.1//EN"
  "http://www.w3.org/Graphics/SVG/1.1/DTD/svg11.dtd">
<!-- Created with matplotlib (https://matplotlib.org/) -->
<svg height="345.6pt" version="1.1" viewBox="0 0 460.8 345.6" width="460.8pt" xmlns="http://www.w3.org/2000/svg" xmlns:xlink="http://www.w3.org/1999/xlink">
 <defs>
  <style type="text/css">
*{stroke-linecap:butt;stroke-linejoin:round;}
  </style>
 </defs>
 <g id="figure_1">
  <g id="patch_1">
   <path d="M 0 345.6 
L 460.8 345.6 
L 460.8 0 
L 0 0 
z
" style="fill:#ffffff;"/>
  </g>
  <g id="axes_1">
   <g id="patch_2">
    <path d="M 57.6 298.944 
L 338.688 298.944 
L 338.688 41.472 
L 57.6 41.472 
z
" style="fill:#ffffff;"/>
   </g>
   <g id="matplotlib.axis_1">
    <g id="xtick_1">
     <g id="line2d_1">
      <path clip-path="url(#p9e250c0e45)" d="M 57.6 298.944 
L 57.6 41.472 
" style="fill:none;stroke:#b0b0b0;stroke-linecap:square;stroke-width:0.8;"/>
     </g>
     <g id="line2d_2">
      <defs>
       <path d="M 0 0 
L 0 3.5 
" id="m18d1a549f8" style="stroke:#000000;stroke-width:0.8;"/>
      </defs>
      <g>
       <use style="stroke:#000000;stroke-width:0.8;" x="57.6" xlink:href="#m18d1a549f8" y="298.944"/>
      </g>
     </g>
     <g id="text_1">
      <!-- 0 -->
      <defs>
       <path d="M 31.78125 66.40625 
Q 24.171875 66.40625 20.328125 58.90625 
Q 16.5 51.421875 16.5 36.375 
Q 16.5 21.390625 20.328125 13.890625 
Q 24.171875 6.390625 31.78125 6.390625 
Q 39.453125 6.390625 43.28125 13.890625 
Q 47.125 21.390625 47.125 36.375 
Q 47.125 51.421875 43.28125 58.90625 
Q 39.453125 66.40625 31.78125 66.40625 
z
M 31.78125 74.21875 
Q 44.046875 74.21875 50.515625 64.515625 
Q 56.984375 54.828125 56.984375 36.375 
Q 56.984375 17.96875 50.515625 8.265625 
Q 44.046875 -1.421875 31.78125 -1.421875 
Q 19.53125 -1.421875 13.0625 8.265625 
Q 6.59375 17.96875 6.59375 36.375 
Q 6.59375 54.828125 13.0625 64.515625 
Q 19.53125 74.21875 31.78125 74.21875 
z
" id="DejaVuSans-48"/>
      </defs>
      <g transform="translate(51.2375 321.140875)scale(0.2 -0.2)">
       <use xlink:href="#DejaVuSans-48"/>
      </g>
     </g>
    </g>
    <g id="xtick_2">
     <g id="line2d_3">
      <path clip-path="url(#p9e250c0e45)" d="M 137.910857 298.944 
L 137.910857 41.472 
" style="fill:none;stroke:#b0b0b0;stroke-linecap:square;stroke-width:0.8;"/>
     </g>
     <g id="line2d_4">
      <g>
       <use style="stroke:#000000;stroke-width:0.8;" x="137.910857" xlink:href="#m18d1a549f8" y="298.944"/>
      </g>
     </g>
     <g id="text_2">
      <!-- 2 -->
      <defs>
       <path d="M 19.1875 8.296875 
L 53.609375 8.296875 
L 53.609375 0 
L 7.328125 0 
L 7.328125 8.296875 
Q 12.9375 14.109375 22.625 23.890625 
Q 32.328125 33.6875 34.8125 36.53125 
Q 39.546875 41.84375 41.421875 45.53125 
Q 43.3125 49.21875 43.3125 52.78125 
Q 43.3125 58.59375 39.234375 62.25 
Q 35.15625 65.921875 28.609375 65.921875 
Q 23.96875 65.921875 18.8125 64.3125 
Q 13.671875 62.703125 7.8125 59.421875 
L 7.8125 69.390625 
Q 13.765625 71.78125 18.9375 73 
Q 24.125 74.21875 28.421875 74.21875 
Q 39.75 74.21875 46.484375 68.546875 
Q 53.21875 62.890625 53.21875 53.421875 
Q 53.21875 48.921875 51.53125 44.890625 
Q 49.859375 40.875 45.40625 35.40625 
Q 44.1875 33.984375 37.640625 27.21875 
Q 31.109375 20.453125 19.1875 8.296875 
z
" id="DejaVuSans-50"/>
      </defs>
      <g transform="translate(131.548357 321.140875)scale(0.2 -0.2)">
       <use xlink:href="#DejaVuSans-50"/>
      </g>
     </g>
    </g>
    <g id="xtick_3">
     <g id="line2d_5">
      <path clip-path="url(#p9e250c0e45)" d="M 218.221714 298.944 
L 218.221714 41.472 
" style="fill:none;stroke:#b0b0b0;stroke-linecap:square;stroke-width:0.8;"/>
     </g>
     <g id="line2d_6">
      <g>
       <use style="stroke:#000000;stroke-width:0.8;" x="218.221714" xlink:href="#m18d1a549f8" y="298.944"/>
      </g>
     </g>
     <g id="text_3">
      <!-- 4 -->
      <defs>
       <path d="M 37.796875 64.3125 
L 12.890625 25.390625 
L 37.796875 25.390625 
z
M 35.203125 72.90625 
L 47.609375 72.90625 
L 47.609375 25.390625 
L 58.015625 25.390625 
L 58.015625 17.1875 
L 47.609375 17.1875 
L 47.609375 0 
L 37.796875 0 
L 37.796875 17.1875 
L 4.890625 17.1875 
L 4.890625 26.703125 
z
" id="DejaVuSans-52"/>
      </defs>
      <g transform="translate(211.859214 321.140875)scale(0.2 -0.2)">
       <use xlink:href="#DejaVuSans-52"/>
      </g>
     </g>
    </g>
    <g id="xtick_4">
     <g id="line2d_7">
      <path clip-path="url(#p9e250c0e45)" d="M 298.532571 298.944 
L 298.532571 41.472 
" style="fill:none;stroke:#b0b0b0;stroke-linecap:square;stroke-width:0.8;"/>
     </g>
     <g id="line2d_8">
      <g>
       <use style="stroke:#000000;stroke-width:0.8;" x="298.532571" xlink:href="#m18d1a549f8" y="298.944"/>
      </g>
     </g>
     <g id="text_4">
      <!-- 6 -->
      <defs>
       <path d="M 33.015625 40.375 
Q 26.375 40.375 22.484375 35.828125 
Q 18.609375 31.296875 18.609375 23.390625 
Q 18.609375 15.53125 22.484375 10.953125 
Q 26.375 6.390625 33.015625 6.390625 
Q 39.65625 6.390625 43.53125 10.953125 
Q 47.40625 15.53125 47.40625 23.390625 
Q 47.40625 31.296875 43.53125 35.828125 
Q 39.65625 40.375 33.015625 40.375 
z
M 52.59375 71.296875 
L 52.59375 62.3125 
Q 48.875 64.0625 45.09375 64.984375 
Q 41.3125 65.921875 37.59375 65.921875 
Q 27.828125 65.921875 22.671875 59.328125 
Q 17.53125 52.734375 16.796875 39.40625 
Q 19.671875 43.65625 24.015625 45.921875 
Q 28.375 48.1875 33.59375 48.1875 
Q 44.578125 48.1875 50.953125 41.515625 
Q 57.328125 34.859375 57.328125 23.390625 
Q 57.328125 12.15625 50.6875 5.359375 
Q 44.046875 -1.421875 33.015625 -1.421875 
Q 20.359375 -1.421875 13.671875 8.265625 
Q 6.984375 17.96875 6.984375 36.375 
Q 6.984375 53.65625 15.1875 63.9375 
Q 23.390625 74.21875 37.203125 74.21875 
Q 40.921875 74.21875 44.703125 73.484375 
Q 48.484375 72.75 52.59375 71.296875 
z
" id="DejaVuSans-54"/>
      </defs>
      <g transform="translate(292.170071 321.140875)scale(0.2 -0.2)">
       <use xlink:href="#DejaVuSans-54"/>
      </g>
     </g>
    </g>
    <g id="xtick_5">
     <g id="line2d_9">
      <path clip-path="url(#p9e250c0e45)" d="M 57.6 298.944 
L 57.6 41.472 
" style="fill:none;stroke:#b0b0b0;stroke-linecap:square;stroke-width:0.8;"/>
     </g>
     <g id="line2d_10">
      <defs>
       <path d="M 0 0 
L 0 2 
" id="mce38f9231f" style="stroke:#000000;stroke-width:0.6;"/>
      </defs>
      <g>
       <use style="stroke:#000000;stroke-width:0.6;" x="57.6" xlink:href="#mce38f9231f" y="298.944"/>
      </g>
     </g>
    </g>
    <g id="xtick_6">
     <g id="line2d_11">
      <path clip-path="url(#p9e250c0e45)" d="M 97.755429 298.944 
L 97.755429 41.472 
" style="fill:none;stroke:#b0b0b0;stroke-linecap:square;stroke-width:0.8;"/>
     </g>
     <g id="line2d_12">
      <g>
       <use style="stroke:#000000;stroke-width:0.6;" x="97.755429" xlink:href="#mce38f9231f" y="298.944"/>
      </g>
     </g>
    </g>
    <g id="xtick_7">
     <g id="line2d_13">
      <path clip-path="url(#p9e250c0e45)" d="M 137.910857 298.944 
L 137.910857 41.472 
" style="fill:none;stroke:#b0b0b0;stroke-linecap:square;stroke-width:0.8;"/>
     </g>
     <g id="line2d_14">
      <g>
       <use style="stroke:#000000;stroke-width:0.6;" x="137.910857" xlink:href="#mce38f9231f" y="298.944"/>
      </g>
     </g>
    </g>
    <g id="xtick_8">
     <g id="line2d_15">
      <path clip-path="url(#p9e250c0e45)" d="M 178.066286 298.944 
L 178.066286 41.472 
" style="fill:none;stroke:#b0b0b0;stroke-linecap:square;stroke-width:0.8;"/>
     </g>
     <g id="line2d_16">
      <g>
       <use style="stroke:#000000;stroke-width:0.6;" x="178.066286" xlink:href="#mce38f9231f" y="298.944"/>
      </g>
     </g>
    </g>
    <g id="xtick_9">
     <g id="line2d_17">
      <path clip-path="url(#p9e250c0e45)" d="M 218.221714 298.944 
L 218.221714 41.472 
" style="fill:none;stroke:#b0b0b0;stroke-linecap:square;stroke-width:0.8;"/>
     </g>
     <g id="line2d_18">
      <g>
       <use style="stroke:#000000;stroke-width:0.6;" x="218.221714" xlink:href="#mce38f9231f" y="298.944"/>
      </g>
     </g>
    </g>
    <g id="xtick_10">
     <g id="line2d_19">
      <path clip-path="url(#p9e250c0e45)" d="M 258.377143 298.944 
L 258.377143 41.472 
" style="fill:none;stroke:#b0b0b0;stroke-linecap:square;stroke-width:0.8;"/>
     </g>
     <g id="line2d_20">
      <g>
       <use style="stroke:#000000;stroke-width:0.6;" x="258.377143" xlink:href="#mce38f9231f" y="298.944"/>
      </g>
     </g>
    </g>
    <g id="xtick_11">
     <g id="line2d_21">
      <path clip-path="url(#p9e250c0e45)" d="M 298.532571 298.944 
L 298.532571 41.472 
" style="fill:none;stroke:#b0b0b0;stroke-linecap:square;stroke-width:0.8;"/>
     </g>
     <g id="line2d_22">
      <g>
       <use style="stroke:#000000;stroke-width:0.6;" x="298.532571" xlink:href="#mce38f9231f" y="298.944"/>
      </g>
     </g>
    </g>
    <g id="xtick_12">
     <g id="line2d_23">
      <path clip-path="url(#p9e250c0e45)" d="M 338.688 298.944 
L 338.688 41.472 
" style="fill:none;stroke:#b0b0b0;stroke-linecap:square;stroke-width:0.8;"/>
     </g>
     <g id="line2d_24">
      <g>
       <use style="stroke:#000000;stroke-width:0.6;" x="338.688" xlink:href="#mce38f9231f" y="298.944"/>
      </g>
     </g>
    </g>
    <g id="text_5">
     <!-- log10(# f-evals / dimension) -->
     <defs>
      <path d="M 9.421875 75.984375 
L 18.40625 75.984375 
L 18.40625 0 
L 9.421875 0 
z
" id="DejaVuSans-108"/>
      <path d="M 30.609375 48.390625 
Q 23.390625 48.390625 19.1875 42.75 
Q 14.984375 37.109375 14.984375 27.296875 
Q 14.984375 17.484375 19.15625 11.84375 
Q 23.34375 6.203125 30.609375 6.203125 
Q 37.796875 6.203125 41.984375 11.859375 
Q 46.1875 17.53125 46.1875 27.296875 
Q 46.1875 37.015625 41.984375 42.703125 
Q 37.796875 48.390625 30.609375 48.390625 
z
M 30.609375 56 
Q 42.328125 56 49.015625 48.375 
Q 55.71875 40.765625 55.71875 27.296875 
Q 55.71875 13.875 49.015625 6.21875 
Q 42.328125 -1.421875 30.609375 -1.421875 
Q 18.84375 -1.421875 12.171875 6.21875 
Q 5.515625 13.875 5.515625 27.296875 
Q 5.515625 40.765625 12.171875 48.375 
Q 18.84375 56 30.609375 56 
z
" id="DejaVuSans-111"/>
      <path d="M 45.40625 27.984375 
Q 45.40625 37.75 41.375 43.109375 
Q 37.359375 48.484375 30.078125 48.484375 
Q 22.859375 48.484375 18.828125 43.109375 
Q 14.796875 37.75 14.796875 27.984375 
Q 14.796875 18.265625 18.828125 12.890625 
Q 22.859375 7.515625 30.078125 7.515625 
Q 37.359375 7.515625 41.375 12.890625 
Q 45.40625 18.265625 45.40625 27.984375 
z
M 54.390625 6.78125 
Q 54.390625 -7.171875 48.1875 -13.984375 
Q 42 -20.796875 29.203125 -20.796875 
Q 24.46875 -20.796875 20.265625 -20.09375 
Q 16.0625 -19.390625 12.109375 -17.921875 
L 12.109375 -9.1875 
Q 16.0625 -11.328125 19.921875 -12.34375 
Q 23.78125 -13.375 27.78125 -13.375 
Q 36.625 -13.375 41.015625 -8.765625 
Q 45.40625 -4.15625 45.40625 5.171875 
L 45.40625 9.625 
Q 42.625 4.78125 38.28125 2.390625 
Q 33.9375 0 27.875 0 
Q 17.828125 0 11.671875 7.65625 
Q 5.515625 15.328125 5.515625 27.984375 
Q 5.515625 40.671875 11.671875 48.328125 
Q 17.828125 56 27.875 56 
Q 33.9375 56 38.28125 53.609375 
Q 42.625 51.21875 45.40625 46.390625 
L 45.40625 54.6875 
L 54.390625 54.6875 
z
" id="DejaVuSans-103"/>
      <path d="M 12.40625 8.296875 
L 28.515625 8.296875 
L 28.515625 63.921875 
L 10.984375 60.40625 
L 10.984375 69.390625 
L 28.421875 72.90625 
L 38.28125 72.90625 
L 38.28125 8.296875 
L 54.390625 8.296875 
L 54.390625 0 
L 12.40625 0 
z
" id="DejaVuSans-49"/>
      <path d="M 31 75.875 
Q 24.46875 64.65625 21.28125 53.65625 
Q 18.109375 42.671875 18.109375 31.390625 
Q 18.109375 20.125 21.3125 9.0625 
Q 24.515625 -2 31 -13.1875 
L 23.1875 -13.1875 
Q 15.875 -1.703125 12.234375 9.375 
Q 8.59375 20.453125 8.59375 31.390625 
Q 8.59375 42.28125 12.203125 53.3125 
Q 15.828125 64.359375 23.1875 75.875 
z
" id="DejaVuSans-40"/>
      <path d="M 51.125 44 
L 36.921875 44 
L 32.8125 27.6875 
L 47.125 27.6875 
z
M 43.796875 71.78125 
L 38.71875 51.515625 
L 52.984375 51.515625 
L 58.109375 71.78125 
L 65.921875 71.78125 
L 60.890625 51.515625 
L 76.125 51.515625 
L 76.125 44 
L 58.984375 44 
L 54.984375 27.6875 
L 70.515625 27.6875 
L 70.515625 20.21875 
L 53.078125 20.21875 
L 48 0 
L 40.1875 0 
L 45.21875 20.21875 
L 30.90625 20.21875 
L 25.875 0 
L 18.015625 0 
L 23.09375 20.21875 
L 7.71875 20.21875 
L 7.71875 27.6875 
L 24.90625 27.6875 
L 29 44 
L 13.28125 44 
L 13.28125 51.515625 
L 30.90625 51.515625 
L 35.890625 71.78125 
z
" id="DejaVuSans-35"/>
      <path id="DejaVuSans-32"/>
      <path d="M 37.109375 75.984375 
L 37.109375 68.5 
L 28.515625 68.5 
Q 23.6875 68.5 21.796875 66.546875 
Q 19.921875 64.59375 19.921875 59.515625 
L 19.921875 54.6875 
L 34.71875 54.6875 
L 34.71875 47.703125 
L 19.921875 47.703125 
L 19.921875 0 
L 10.890625 0 
L 10.890625 47.703125 
L 2.296875 47.703125 
L 2.296875 54.6875 
L 10.890625 54.6875 
L 10.890625 58.5 
Q 10.890625 67.625 15.140625 71.796875 
Q 19.390625 75.984375 28.609375 75.984375 
z
" id="DejaVuSans-102"/>
      <path d="M 4.890625 31.390625 
L 31.203125 31.390625 
L 31.203125 23.390625 
L 4.890625 23.390625 
z
" id="DejaVuSans-45"/>
      <path d="M 56.203125 29.59375 
L 56.203125 25.203125 
L 14.890625 25.203125 
Q 15.484375 15.921875 20.484375 11.0625 
Q 25.484375 6.203125 34.421875 6.203125 
Q 39.59375 6.203125 44.453125 7.46875 
Q 49.3125 8.734375 54.109375 11.28125 
L 54.109375 2.78125 
Q 49.265625 0.734375 44.1875 -0.34375 
Q 39.109375 -1.421875 33.890625 -1.421875 
Q 20.796875 -1.421875 13.15625 6.1875 
Q 5.515625 13.8125 5.515625 26.8125 
Q 5.515625 40.234375 12.765625 48.109375 
Q 20.015625 56 32.328125 56 
Q 43.359375 56 49.78125 48.890625 
Q 56.203125 41.796875 56.203125 29.59375 
z
M 47.21875 32.234375 
Q 47.125 39.59375 43.09375 43.984375 
Q 39.0625 48.390625 32.421875 48.390625 
Q 24.90625 48.390625 20.390625 44.140625 
Q 15.875 39.890625 15.1875 32.171875 
z
" id="DejaVuSans-101"/>
      <path d="M 2.984375 54.6875 
L 12.5 54.6875 
L 29.59375 8.796875 
L 46.6875 54.6875 
L 56.203125 54.6875 
L 35.6875 0 
L 23.484375 0 
z
" id="DejaVuSans-118"/>
      <path d="M 34.28125 27.484375 
Q 23.390625 27.484375 19.1875 25 
Q 14.984375 22.515625 14.984375 16.5 
Q 14.984375 11.71875 18.140625 8.90625 
Q 21.296875 6.109375 26.703125 6.109375 
Q 34.1875 6.109375 38.703125 11.40625 
Q 43.21875 16.703125 43.21875 25.484375 
L 43.21875 27.484375 
z
M 52.203125 31.203125 
L 52.203125 0 
L 43.21875 0 
L 43.21875 8.296875 
Q 40.140625 3.328125 35.546875 0.953125 
Q 30.953125 -1.421875 24.3125 -1.421875 
Q 15.921875 -1.421875 10.953125 3.296875 
Q 6 8.015625 6 15.921875 
Q 6 25.140625 12.171875 29.828125 
Q 18.359375 34.515625 30.609375 34.515625 
L 43.21875 34.515625 
L 43.21875 35.40625 
Q 43.21875 41.609375 39.140625 45 
Q 35.0625 48.390625 27.6875 48.390625 
Q 23 48.390625 18.546875 47.265625 
Q 14.109375 46.140625 10.015625 43.890625 
L 10.015625 52.203125 
Q 14.9375 54.109375 19.578125 55.046875 
Q 24.21875 56 28.609375 56 
Q 40.484375 56 46.34375 49.84375 
Q 52.203125 43.703125 52.203125 31.203125 
z
" id="DejaVuSans-97"/>
      <path d="M 44.28125 53.078125 
L 44.28125 44.578125 
Q 40.484375 46.53125 36.375 47.5 
Q 32.28125 48.484375 27.875 48.484375 
Q 21.1875 48.484375 17.84375 46.4375 
Q 14.5 44.390625 14.5 40.28125 
Q 14.5 37.15625 16.890625 35.375 
Q 19.28125 33.59375 26.515625 31.984375 
L 29.59375 31.296875 
Q 39.15625 29.25 43.1875 25.515625 
Q 47.21875 21.78125 47.21875 15.09375 
Q 47.21875 7.46875 41.1875 3.015625 
Q 35.15625 -1.421875 24.609375 -1.421875 
Q 20.21875 -1.421875 15.453125 -0.5625 
Q 10.6875 0.296875 5.421875 2 
L 5.421875 11.28125 
Q 10.40625 8.6875 15.234375 7.390625 
Q 20.0625 6.109375 24.8125 6.109375 
Q 31.15625 6.109375 34.5625 8.28125 
Q 37.984375 10.453125 37.984375 14.40625 
Q 37.984375 18.0625 35.515625 20.015625 
Q 33.0625 21.96875 24.703125 23.78125 
L 21.578125 24.515625 
Q 13.234375 26.265625 9.515625 29.90625 
Q 5.8125 33.546875 5.8125 39.890625 
Q 5.8125 47.609375 11.28125 51.796875 
Q 16.75 56 26.8125 56 
Q 31.78125 56 36.171875 55.265625 
Q 40.578125 54.546875 44.28125 53.078125 
z
" id="DejaVuSans-115"/>
      <path d="M 25.390625 72.90625 
L 33.6875 72.90625 
L 8.296875 -9.28125 
L 0 -9.28125 
z
" id="DejaVuSans-47"/>
      <path d="M 45.40625 46.390625 
L 45.40625 75.984375 
L 54.390625 75.984375 
L 54.390625 0 
L 45.40625 0 
L 45.40625 8.203125 
Q 42.578125 3.328125 38.25 0.953125 
Q 33.9375 -1.421875 27.875 -1.421875 
Q 17.96875 -1.421875 11.734375 6.484375 
Q 5.515625 14.40625 5.515625 27.296875 
Q 5.515625 40.1875 11.734375 48.09375 
Q 17.96875 56 27.875 56 
Q 33.9375 56 38.25 53.625 
Q 42.578125 51.265625 45.40625 46.390625 
z
M 14.796875 27.296875 
Q 14.796875 17.390625 18.875 11.75 
Q 22.953125 6.109375 30.078125 6.109375 
Q 37.203125 6.109375 41.296875 11.75 
Q 45.40625 17.390625 45.40625 27.296875 
Q 45.40625 37.203125 41.296875 42.84375 
Q 37.203125 48.484375 30.078125 48.484375 
Q 22.953125 48.484375 18.875 42.84375 
Q 14.796875 37.203125 14.796875 27.296875 
z
" id="DejaVuSans-100"/>
      <path d="M 9.421875 54.6875 
L 18.40625 54.6875 
L 18.40625 0 
L 9.421875 0 
z
M 9.421875 75.984375 
L 18.40625 75.984375 
L 18.40625 64.59375 
L 9.421875 64.59375 
z
" id="DejaVuSans-105"/>
      <path d="M 52 44.1875 
Q 55.375 50.25 60.0625 53.125 
Q 64.75 56 71.09375 56 
Q 79.640625 56 84.28125 50.015625 
Q 88.921875 44.046875 88.921875 33.015625 
L 88.921875 0 
L 79.890625 0 
L 79.890625 32.71875 
Q 79.890625 40.578125 77.09375 44.375 
Q 74.3125 48.1875 68.609375 48.1875 
Q 61.625 48.1875 57.5625 43.546875 
Q 53.515625 38.921875 53.515625 30.90625 
L 53.515625 0 
L 44.484375 0 
L 44.484375 32.71875 
Q 44.484375 40.625 41.703125 44.40625 
Q 38.921875 48.1875 33.109375 48.1875 
Q 26.21875 48.1875 22.15625 43.53125 
Q 18.109375 38.875 18.109375 30.90625 
L 18.109375 0 
L 9.078125 0 
L 9.078125 54.6875 
L 18.109375 54.6875 
L 18.109375 46.1875 
Q 21.1875 51.21875 25.484375 53.609375 
Q 29.78125 56 35.6875 56 
Q 41.65625 56 45.828125 52.96875 
Q 50 49.953125 52 44.1875 
z
" id="DejaVuSans-109"/>
      <path d="M 54.890625 33.015625 
L 54.890625 0 
L 45.90625 0 
L 45.90625 32.71875 
Q 45.90625 40.484375 42.875 44.328125 
Q 39.84375 48.1875 33.796875 48.1875 
Q 26.515625 48.1875 22.3125 43.546875 
Q 18.109375 38.921875 18.109375 30.90625 
L 18.109375 0 
L 9.078125 0 
L 9.078125 54.6875 
L 18.109375 54.6875 
L 18.109375 46.1875 
Q 21.34375 51.125 25.703125 53.5625 
Q 30.078125 56 35.796875 56 
Q 45.21875 56 50.046875 50.171875 
Q 54.890625 44.34375 54.890625 33.015625 
z
" id="DejaVuSans-110"/>
      <path d="M 8.015625 75.875 
L 15.828125 75.875 
Q 23.140625 64.359375 26.78125 53.3125 
Q 30.421875 42.28125 30.421875 31.390625 
Q 30.421875 20.453125 26.78125 9.375 
Q 23.140625 -1.703125 15.828125 -13.1875 
L 8.015625 -13.1875 
Q 14.5 -2 17.703125 9.0625 
Q 20.90625 20.125 20.90625 31.390625 
Q 20.90625 42.671875 17.703125 53.65625 
Q 14.5 64.65625 8.015625 75.875 
z
" id="DejaVuSans-41"/>
     </defs>
     <g transform="translate(77.303219 342.217594)scale(0.17 -0.17)">
      <use xlink:href="#DejaVuSans-108"/>
      <use x="27.783203" xlink:href="#DejaVuSans-111"/>
      <use x="88.964844" xlink:href="#DejaVuSans-103"/>
      <use x="152.441406" xlink:href="#DejaVuSans-49"/>
      <use x="216.064453" xlink:href="#DejaVuSans-48"/>
      <use x="279.6875" xlink:href="#DejaVuSans-40"/>
      <use x="318.701172" xlink:href="#DejaVuSans-35"/>
      <use x="402.490234" xlink:href="#DejaVuSans-32"/>
      <use x="434.277344" xlink:href="#DejaVuSans-102"/>
      <use x="469.404297" xlink:href="#DejaVuSans-45"/>
      <use x="505.488281" xlink:href="#DejaVuSans-101"/>
      <use x="567.011719" xlink:href="#DejaVuSans-118"/>
      <use x="626.191406" xlink:href="#DejaVuSans-97"/>
      <use x="687.470703" xlink:href="#DejaVuSans-108"/>
      <use x="715.253906" xlink:href="#DejaVuSans-115"/>
      <use x="767.353516" xlink:href="#DejaVuSans-32"/>
      <use x="799.140625" xlink:href="#DejaVuSans-47"/>
      <use x="832.832031" xlink:href="#DejaVuSans-32"/>
      <use x="864.619141" xlink:href="#DejaVuSans-100"/>
      <use x="928.095703" xlink:href="#DejaVuSans-105"/>
      <use x="955.878906" xlink:href="#DejaVuSans-109"/>
      <use x="1053.291016" xlink:href="#DejaVuSans-101"/>
      <use x="1114.814453" xlink:href="#DejaVuSans-110"/>
      <use x="1178.193359" xlink:href="#DejaVuSans-115"/>
      <use x="1230.292969" xlink:href="#DejaVuSans-105"/>
      <use x="1258.076172" xlink:href="#DejaVuSans-111"/>
      <use x="1319.257812" xlink:href="#DejaVuSans-110"/>
      <use x="1382.636719" xlink:href="#DejaVuSans-41"/>
     </g>
    </g>
   </g>
   <g id="matplotlib.axis_2">
    <g id="ytick_1">
     <g id="line2d_25">
      <path clip-path="url(#p9e250c0e45)" d="M 57.6 298.944 
L 338.688 298.944 
" style="fill:none;stroke:#b0b0b0;stroke-linecap:square;stroke-width:0.8;"/>
     </g>
     <g id="line2d_26">
      <defs>
       <path d="M 0 0 
L -3.5 0 
" id="m102dff3118" style="stroke:#000000;stroke-width:0.8;"/>
      </defs>
      <g>
       <use style="stroke:#000000;stroke-width:0.8;" x="57.6" xlink:href="#m102dff3118" y="298.944"/>
      </g>
     </g>
     <g id="text_6">
      <!-- 0.0 -->
      <defs>
       <path d="M 10.6875 12.40625 
L 21 12.40625 
L 21 0 
L 10.6875 0 
z
" id="DejaVuSans-46"/>
      </defs>
      <g transform="translate(25.155 305.02275)scale(0.16 -0.16)">
       <use xlink:href="#DejaVuSans-48"/>
       <use x="63.623047" xlink:href="#DejaVuSans-46"/>
       <use x="95.410156" xlink:href="#DejaVuSans-48"/>
      </g>
     </g>
    </g>
    <g id="ytick_2">
     <g id="line2d_27">
      <path clip-path="url(#p9e250c0e45)" d="M 57.6 247.959446 
L 338.688 247.959446 
" style="fill:none;stroke:#b0b0b0;stroke-linecap:square;stroke-width:0.8;"/>
     </g>
     <g id="line2d_28">
      <g>
       <use style="stroke:#000000;stroke-width:0.8;" x="57.6" xlink:href="#m102dff3118" y="247.959446"/>
      </g>
     </g>
     <g id="text_7">
      <!-- 0.2 -->
      <g transform="translate(25.155 254.038196)scale(0.16 -0.16)">
       <use xlink:href="#DejaVuSans-48"/>
       <use x="63.623047" xlink:href="#DejaVuSans-46"/>
       <use x="95.410156" xlink:href="#DejaVuSans-50"/>
      </g>
     </g>
    </g>
    <g id="ytick_3">
     <g id="line2d_29">
      <path clip-path="url(#p9e250c0e45)" d="M 57.6 196.974891 
L 338.688 196.974891 
" style="fill:none;stroke:#b0b0b0;stroke-linecap:square;stroke-width:0.8;"/>
     </g>
     <g id="line2d_30">
      <g>
       <use style="stroke:#000000;stroke-width:0.8;" x="57.6" xlink:href="#m102dff3118" y="196.974891"/>
      </g>
     </g>
     <g id="text_8">
      <!-- 0.4 -->
      <g transform="translate(25.155 203.053641)scale(0.16 -0.16)">
       <use xlink:href="#DejaVuSans-48"/>
       <use x="63.623047" xlink:href="#DejaVuSans-46"/>
       <use x="95.410156" xlink:href="#DejaVuSans-52"/>
      </g>
     </g>
    </g>
    <g id="ytick_4">
     <g id="line2d_31">
      <path clip-path="url(#p9e250c0e45)" d="M 57.6 145.990337 
L 338.688 145.990337 
" style="fill:none;stroke:#b0b0b0;stroke-linecap:square;stroke-width:0.8;"/>
     </g>
     <g id="line2d_32">
      <g>
       <use style="stroke:#000000;stroke-width:0.8;" x="57.6" xlink:href="#m102dff3118" y="145.990337"/>
      </g>
     </g>
     <g id="text_9">
      <!-- 0.6 -->
      <g transform="translate(25.155 152.069087)scale(0.16 -0.16)">
       <use xlink:href="#DejaVuSans-48"/>
       <use x="63.623047" xlink:href="#DejaVuSans-46"/>
       <use x="95.410156" xlink:href="#DejaVuSans-54"/>
      </g>
     </g>
    </g>
    <g id="ytick_5">
     <g id="line2d_33">
      <path clip-path="url(#p9e250c0e45)" d="M 57.6 95.005782 
L 338.688 95.005782 
" style="fill:none;stroke:#b0b0b0;stroke-linecap:square;stroke-width:0.8;"/>
     </g>
     <g id="line2d_34">
      <g>
       <use style="stroke:#000000;stroke-width:0.8;" x="57.6" xlink:href="#m102dff3118" y="95.005782"/>
      </g>
     </g>
     <g id="text_10">
      <!-- 0.8 -->
      <defs>
       <path d="M 31.78125 34.625 
Q 24.75 34.625 20.71875 30.859375 
Q 16.703125 27.09375 16.703125 20.515625 
Q 16.703125 13.921875 20.71875 10.15625 
Q 24.75 6.390625 31.78125 6.390625 
Q 38.8125 6.390625 42.859375 10.171875 
Q 46.921875 13.96875 46.921875 20.515625 
Q 46.921875 27.09375 42.890625 30.859375 
Q 38.875 34.625 31.78125 34.625 
z
M 21.921875 38.8125 
Q 15.578125 40.375 12.03125 44.71875 
Q 8.5 49.078125 8.5 55.328125 
Q 8.5 64.0625 14.71875 69.140625 
Q 20.953125 74.21875 31.78125 74.21875 
Q 42.671875 74.21875 48.875 69.140625 
Q 55.078125 64.0625 55.078125 55.328125 
Q 55.078125 49.078125 51.53125 44.71875 
Q 48 40.375 41.703125 38.8125 
Q 48.828125 37.15625 52.796875 32.3125 
Q 56.78125 27.484375 56.78125 20.515625 
Q 56.78125 9.90625 50.3125 4.234375 
Q 43.84375 -1.421875 31.78125 -1.421875 
Q 19.734375 -1.421875 13.25 4.234375 
Q 6.78125 9.90625 6.78125 20.515625 
Q 6.78125 27.484375 10.78125 32.3125 
Q 14.796875 37.15625 21.921875 38.8125 
z
M 18.3125 54.390625 
Q 18.3125 48.734375 21.84375 45.5625 
Q 25.390625 42.390625 31.78125 42.390625 
Q 38.140625 42.390625 41.71875 45.5625 
Q 45.3125 48.734375 45.3125 54.390625 
Q 45.3125 60.0625 41.71875 63.234375 
Q 38.140625 66.40625 31.78125 66.40625 
Q 25.390625 66.40625 21.84375 63.234375 
Q 18.3125 60.0625 18.3125 54.390625 
z
" id="DejaVuSans-56"/>
      </defs>
      <g transform="translate(25.155 101.084532)scale(0.16 -0.16)">
       <use xlink:href="#DejaVuSans-48"/>
       <use x="63.623047" xlink:href="#DejaVuSans-46"/>
       <use x="95.410156" xlink:href="#DejaVuSans-56"/>
      </g>
     </g>
    </g>
    <g id="ytick_6">
     <g id="line2d_35">
      <path clip-path="url(#p9e250c0e45)" d="M 57.6 44.021228 
L 338.688 44.021228 
" style="fill:none;stroke:#b0b0b0;stroke-linecap:square;stroke-width:0.8;"/>
     </g>
     <g id="line2d_36">
      <g>
       <use style="stroke:#000000;stroke-width:0.8;" x="57.6" xlink:href="#m102dff3118" y="44.021228"/>
      </g>
     </g>
     <g id="text_11">
      <!-- 1.0 -->
      <g transform="translate(25.155 50.099978)scale(0.16 -0.16)">
       <use xlink:href="#DejaVuSans-49"/>
       <use x="63.623047" xlink:href="#DejaVuSans-46"/>
       <use x="95.410156" xlink:href="#DejaVuSans-48"/>
      </g>
     </g>
    </g>
    <g id="text_12">
     <!-- Fraction of function,target pairs -->
     <defs>
      <path d="M 9.8125 72.90625 
L 51.703125 72.90625 
L 51.703125 64.59375 
L 19.671875 64.59375 
L 19.671875 43.109375 
L 48.578125 43.109375 
L 48.578125 34.8125 
L 19.671875 34.8125 
L 19.671875 0 
L 9.8125 0 
z
" id="DejaVuSans-70"/>
      <path d="M 41.109375 46.296875 
Q 39.59375 47.171875 37.8125 47.578125 
Q 36.03125 48 33.890625 48 
Q 26.265625 48 22.1875 43.046875 
Q 18.109375 38.09375 18.109375 28.8125 
L 18.109375 0 
L 9.078125 0 
L 9.078125 54.6875 
L 18.109375 54.6875 
L 18.109375 46.1875 
Q 20.953125 51.171875 25.484375 53.578125 
Q 30.03125 56 36.53125 56 
Q 37.453125 56 38.578125 55.875 
Q 39.703125 55.765625 41.0625 55.515625 
z
" id="DejaVuSans-114"/>
      <path d="M 48.78125 52.59375 
L 48.78125 44.1875 
Q 44.96875 46.296875 41.140625 47.34375 
Q 37.3125 48.390625 33.40625 48.390625 
Q 24.65625 48.390625 19.8125 42.84375 
Q 14.984375 37.3125 14.984375 27.296875 
Q 14.984375 17.28125 19.8125 11.734375 
Q 24.65625 6.203125 33.40625 6.203125 
Q 37.3125 6.203125 41.140625 7.25 
Q 44.96875 8.296875 48.78125 10.40625 
L 48.78125 2.09375 
Q 45.015625 0.34375 40.984375 -0.53125 
Q 36.96875 -1.421875 32.421875 -1.421875 
Q 20.0625 -1.421875 12.78125 6.34375 
Q 5.515625 14.109375 5.515625 27.296875 
Q 5.515625 40.671875 12.859375 48.328125 
Q 20.21875 56 33.015625 56 
Q 37.15625 56 41.109375 55.140625 
Q 45.0625 54.296875 48.78125 52.59375 
z
" id="DejaVuSans-99"/>
      <path d="M 18.3125 70.21875 
L 18.3125 54.6875 
L 36.8125 54.6875 
L 36.8125 47.703125 
L 18.3125 47.703125 
L 18.3125 18.015625 
Q 18.3125 11.328125 20.140625 9.421875 
Q 21.96875 7.515625 27.59375 7.515625 
L 36.8125 7.515625 
L 36.8125 0 
L 27.59375 0 
Q 17.1875 0 13.234375 3.875 
Q 9.28125 7.765625 9.28125 18.015625 
L 9.28125 47.703125 
L 2.6875 47.703125 
L 2.6875 54.6875 
L 9.28125 54.6875 
L 9.28125 70.21875 
z
" id="DejaVuSans-116"/>
      <path d="M 8.5 21.578125 
L 8.5 54.6875 
L 17.484375 54.6875 
L 17.484375 21.921875 
Q 17.484375 14.15625 20.5 10.265625 
Q 23.53125 6.390625 29.59375 6.390625 
Q 36.859375 6.390625 41.078125 11.03125 
Q 45.3125 15.671875 45.3125 23.6875 
L 45.3125 54.6875 
L 54.296875 54.6875 
L 54.296875 0 
L 45.3125 0 
L 45.3125 8.40625 
Q 42.046875 3.421875 37.71875 1 
Q 33.40625 -1.421875 27.6875 -1.421875 
Q 18.265625 -1.421875 13.375 4.4375 
Q 8.5 10.296875 8.5 21.578125 
z
M 31.109375 56 
z
" id="DejaVuSans-117"/>
      <path d="M 11.71875 12.40625 
L 22.015625 12.40625 
L 22.015625 4 
L 14.015625 -11.625 
L 7.71875 -11.625 
L 11.71875 4 
z
" id="DejaVuSans-44"/>
      <path d="M 18.109375 8.203125 
L 18.109375 -20.796875 
L 9.078125 -20.796875 
L 9.078125 54.6875 
L 18.109375 54.6875 
L 18.109375 46.390625 
Q 20.953125 51.265625 25.265625 53.625 
Q 29.59375 56 35.59375 56 
Q 45.5625 56 51.78125 48.09375 
Q 58.015625 40.1875 58.015625 27.296875 
Q 58.015625 14.40625 51.78125 6.484375 
Q 45.5625 -1.421875 35.59375 -1.421875 
Q 29.59375 -1.421875 25.265625 0.953125 
Q 20.953125 3.328125 18.109375 8.203125 
z
M 48.6875 27.296875 
Q 48.6875 37.203125 44.609375 42.84375 
Q 40.53125 48.484375 33.40625 48.484375 
Q 26.265625 48.484375 22.1875 42.84375 
Q 18.109375 37.203125 18.109375 27.296875 
Q 18.109375 17.390625 22.1875 11.75 
Q 26.265625 6.109375 33.40625 6.109375 
Q 40.53125 6.109375 44.609375 11.75 
Q 48.6875 17.390625 48.6875 27.296875 
z
" id="DejaVuSans-112"/>
     </defs>
     <g transform="translate(17.619531 305.347375)rotate(-90)scale(0.17 -0.17)">
      <use xlink:href="#DejaVuSans-70"/>
      <use x="57.410156" xlink:href="#DejaVuSans-114"/>
      <use x="98.523438" xlink:href="#DejaVuSans-97"/>
      <use x="159.802734" xlink:href="#DejaVuSans-99"/>
      <use x="214.783203" xlink:href="#DejaVuSans-116"/>
      <use x="253.992188" xlink:href="#DejaVuSans-105"/>
      <use x="281.775391" xlink:href="#DejaVuSans-111"/>
      <use x="342.957031" xlink:href="#DejaVuSans-110"/>
      <use x="406.335938" xlink:href="#DejaVuSans-32"/>
      <use x="438.123047" xlink:href="#DejaVuSans-111"/>
      <use x="499.304688" xlink:href="#DejaVuSans-102"/>
      <use x="534.509766" xlink:href="#DejaVuSans-32"/>
      <use x="566.296875" xlink:href="#DejaVuSans-102"/>
      <use x="601.501953" xlink:href="#DejaVuSans-117"/>
      <use x="664.880859" xlink:href="#DejaVuSans-110"/>
      <use x="728.259766" xlink:href="#DejaVuSans-99"/>
      <use x="783.240234" xlink:href="#DejaVuSans-116"/>
      <use x="822.449219" xlink:href="#DejaVuSans-105"/>
      <use x="850.232422" xlink:href="#DejaVuSans-111"/>
      <use x="911.414062" xlink:href="#DejaVuSans-110"/>
      <use x="974.792969" xlink:href="#DejaVuSans-44"/>
      <use x="1006.580078" xlink:href="#DejaVuSans-116"/>
      <use x="1045.789062" xlink:href="#DejaVuSans-97"/>
      <use x="1107.068359" xlink:href="#DejaVuSans-114"/>
      <use x="1148.166016" xlink:href="#DejaVuSans-103"/>
      <use x="1211.642578" xlink:href="#DejaVuSans-101"/>
      <use x="1273.166016" xlink:href="#DejaVuSans-116"/>
      <use x="1312.375" xlink:href="#DejaVuSans-32"/>
      <use x="1344.162109" xlink:href="#DejaVuSans-112"/>
      <use x="1407.638672" xlink:href="#DejaVuSans-97"/>
      <use x="1468.917969" xlink:href="#DejaVuSans-105"/>
      <use x="1496.701172" xlink:href="#DejaVuSans-114"/>
      <use x="1537.814453" xlink:href="#DejaVuSans-115"/>
     </g>
    </g>
   </g>
   <g id="line2d_37">
    <defs>
     <path d="M 0 1.5 
C 0.397805 1.5 0.77937 1.341951 1.06066 1.06066 
C 1.341951 0.77937 1.5 0.397805 1.5 0 
C 1.5 -0.397805 1.341951 -0.77937 1.06066 -1.06066 
C 0.77937 -1.341951 0.397805 -1.5 0 -1.5 
C -0.397805 -1.5 -0.77937 -1.341951 -1.06066 -1.06066 
C -1.341951 -0.77937 -1.5 -0.397805 -1.5 0 
C -1.5 0.397805 -1.341951 0.77937 -1.06066 1.06066 
C -0.77937 1.341951 -0.397805 1.5 0 1.5 
z
" id="m92d20f06c6" style="stroke:#000080;"/>
    </defs>
    <g>
     <use style="fill:#000080;stroke:#000080;" x="186.541776" xlink:href="#m92d20f06c6" y="44.021228"/>
     <use style="fill:#000080;stroke:#000080;" x="186.541776" xlink:href="#m92d20f06c6" y="44.021228"/>
    </g>
   </g>
   <g id="line2d_38">
    <path d="M 133.827601 298.944 
L 133.849627 297.444454 
L 134.343353 297.444454 
L 134.343353 296.944606 
L 134.734788 296.944606 
L 134.792231 295.44506 
L 134.880637 295.44506 
L 134.94794 293.945514 
L 135.014985 293.945514 
L 135.014985 292.945817 
L 135.194218 292.945817 
L 135.240011 290.946423 
L 135.863889 290.946423 
L 135.863889 290.446574 
L 135.981161 290.446574 
L 136.073445 287.947331 
L 136.179695 287.947331 
L 136.179695 286.947634 
L 136.404535 286.947634 
L 136.49934 284.94824 
L 136.621821 284.94824 
L 136.724791 283.448694 
L 136.891986 283.448694 
L 136.997972 281.949149 
L 137.048434 281.949149 
L 137.139812 279.949754 
L 137.253364 279.949754 
L 137.294062 278.950057 
L 137.460387 278.950057 
L 137.562985 277.450511 
L 137.571878 277.450511 
L 137.678242 272.452026 
L 137.717962 272.452026 
L 137.805906 270.452631 
L 137.893409 270.452631 
L 137.893409 269.952783 
L 138.019513 269.952783 
L 138.084384 268.453237 
L 138.179093 268.453237 
L 138.204833 267.45354 
L 138.447493 267.45354 
L 138.447493 266.453843 
L 138.848702 266.453843 
L 138.848702 265.454146 
L 139.196394 265.454146 
L 139.269142 262.954903 
L 139.663921 262.954903 
L 139.663921 262.455054 
L 140.022943 262.455054 
L 140.022943 261.455357 
L 140.203543 261.455357 
L 140.203543 260.955508 
L 140.446497 260.955508 
L 140.502953 259.955811 
L 141.097679 259.955811 
L 141.097679 258.956114 
L 142.559927 258.956114 
L 142.559927 257.956417 
L 143.247504 257.956417 
L 143.247504 257.456568 
L 144.724207 257.456568 
L 144.724207 256.95672 
L 152.579665 256.95672 
L 152.579665 256.456871 
L 154.776018 256.456871 
L 154.776018 255.957023 
L 155.029433 255.957023 
L 155.029433 255.457174 
L 155.183944 255.457174 
L 155.183944 254.957326 
L 156.132461 254.957326 
L 156.190638 253.957628 
L 157.030583 253.957628 
L 157.030583 253.45778 
L 157.652944 253.45778 
L 157.652944 252.458083 
L 157.801293 252.458083 
L 157.801293 251.958234 
L 158.076434 251.958234 
L 158.076434 251.458386 
L 158.222599 251.458386 
L 158.222599 250.958537 
L 158.414702 250.958537 
L 158.414702 249.458991 
L 158.543386 249.458991 
L 158.543386 248.959143 
L 158.847883 248.959143 
L 158.847883 247.959446 
L 159.46166 247.959446 
L 159.511004 246.959748 
L 159.741941 246.959748 
L 159.841403 245.460203 
L 159.9403 245.460203 
L 159.976013 244.460506 
L 160.280882 244.460506 
L 160.382133 242.461111 
L 160.866901 242.461111 
L 160.866901 241.961263 
L 161.374928 241.961263 
L 161.374928 240.961566 
L 161.700001 240.961566 
L 161.775616 239.961868 
L 161.833219 239.961868 
L 161.92257 238.962171 
L 162.03881 238.962171 
L 162.03881 237.962474 
L 162.271149 237.962474 
L 162.358289 235.96308 
L 162.499369 235.96308 
L 162.527023 234.963383 
L 162.775007 234.963383 
L 162.775007 234.463534 
L 162.963632 234.463534 
L 163.036037 233.463837 
L 163.090659 233.463837 
L 163.10917 232.46414 
L 163.208592 232.46414 
L 163.208592 231.964291 
L 163.592711 231.964291 
L 163.59571 230.464745 
L 163.732122 230.464745 
L 163.840883 227.965503 
L 163.908762 227.965503 
L 163.908762 226.965805 
L 164.136041 226.965805 
L 164.136041 226.465957 
L 164.418659 226.465957 
L 164.418659 225.966108 
L 164.606445 225.966108 
L 164.701462 222.467168 
L 164.762338 222.467168 
L 164.762338 221.96732 
L 165.024016 221.96732 
L 165.041506 220.467774 
L 165.24094 220.467774 
L 165.24094 218.46838 
L 165.356985 218.46838 
L 165.426423 216.968834 
L 165.504548 216.968834 
L 165.516191 215.969137 
L 165.649984 215.969137 
L 165.744799 214.469591 
L 165.844374 214.469591 
L 165.882116 212.970045 
L 166.093885 212.970045 
L 166.122446 211.4705 
L 166.423374 211.4705 
L 166.501399 208.471408 
L 166.627869 208.471408 
L 166.668984 206.472014 
L 166.801736 206.472014 
L 166.801736 205.972165 
L 166.984591 205.972165 
L 167.010909 204.972468 
L 167.15577 204.972468 
L 167.255733 201.473528 
L 167.342228 201.473528 
L 167.395367 200.473831 
L 167.539474 200.473831 
L 167.539474 199.474134 
L 167.757364 199.474134 
L 167.757364 198.474437 
L 167.873511 198.474437 
L 167.873511 197.974588 
L 168.025372 197.974588 
L 168.030798 195.475345 
L 168.218916 195.475345 
L 168.309168 193.9758 
L 168.338134 193.9758 
L 168.411095 192.476254 
L 168.486018 192.476254 
L 168.577907 190.47686 
L 168.85588 190.47686 
L 168.889118 188.977314 
L 168.97157 188.977314 
L 168.97157 188.477465 
L 169.089416 188.477465 
L 169.089416 187.977617 
L 169.268677 187.977617 
L 169.334978 185.978222 
L 169.451116 185.978222 
L 169.451116 185.478374 
L 169.566485 185.478374 
L 169.658517 184.478677 
L 169.797062 184.478677 
L 169.797062 183.978828 
L 170.012179 183.978828 
L 170.090878 181.479585 
L 170.430562 181.479585 
L 170.528906 178.980342 
L 170.555083 178.980342 
L 170.596616 177.480797 
L 170.686045 177.480797 
L 170.703344 175.981251 
L 170.884612 175.981251 
L 170.884612 175.481402 
L 171.119946 175.481402 
L 171.178286 174.481705 
L 171.233207 174.481705 
L 171.301455 172.98216 
L 171.40269 172.98216 
L 171.40269 171.982462 
L 171.557882 171.982462 
L 171.616041 169.983068 
L 171.680924 169.983068 
L 171.780611 166.983977 
L 171.869161 166.983977 
L 171.959738 165.98428 
L 171.995591 165.98428 
L 172.105164 162.48534 
L 172.139495 162.48534 
L 172.181091 160.985794 
L 172.351333 160.985794 
L 172.440651 158.486551 
L 172.516333 158.486551 
L 172.626266 156.487157 
L 172.653046 156.487157 
L 172.729591 153.488065 
L 172.847603 153.488065 
L 172.847603 152.988217 
L 172.968327 152.988217 
L 173.055129 150.988822 
L 173.125303 150.988822 
L 173.18943 149.489277 
L 173.326709 149.489277 
L 173.431097 143.990942 
L 173.453831 143.990942 
L 173.510537 142.991245 
L 173.578905 142.991245 
L 173.606516 138.992457 
L 173.731062 138.992457 
L 173.804141 135.993365 
L 173.914018 135.993365 
L 173.941103 133.993971 
L 174.030352 133.993971 
L 174.137725 131.494728 
L 174.156829 131.494728 
L 174.261259 129.995182 
L 174.300801 129.995182 
L 174.32243 128.995485 
L 174.493966 128.995485 
L 174.585228 126.996091 
L 174.61076 126.996091 
L 174.697713 124.496848 
L 174.776338 124.496848 
L 174.884462 122.997302 
L 174.972667 122.997302 
L 175.02465 119.998211 
L 175.140533 119.998211 
L 175.230021 116.499271 
L 175.260772 116.499271 
L 175.352194 113.500179 
L 175.387816 113.500179 
L 175.474529 110.501088 
L 175.533108 110.501088 
L 175.634648 108.501694 
L 175.707174 108.501694 
L 175.785859 105.502602 
L 175.849345 105.502602 
L 175.959892 103.503208 
L 176.006075 103.503208 
L 176.103443 101.503814 
L 176.129283 101.503814 
L 176.193475 99.504419 
L 176.25066 99.504419 
L 176.345713 98.004874 
L 176.416304 98.004874 
L 176.501402 95.005782 
L 176.527613 95.005782 
L 176.62354 91.506842 
L 176.692075 91.506842 
L 176.692075 90.507145 
L 176.805392 90.507145 
L 176.837701 88.007902 
L 177.016419 88.007902 
L 177.123053 86.508356 
L 177.192407 86.508356 
L 177.292961 83.509265 
L 177.321195 83.509265 
L 177.357558 82.009719 
L 177.446329 82.009719 
L 177.54184 80.010325 
L 178.055383 80.010325 
L 178.055383 79.510476 
L 178.260089 79.510476 
L 178.260089 79.010628 
L 178.473923 79.010628 
L 178.564407 77.511082 
L 178.631646 77.511082 
L 178.731392 74.511991 
L 178.831822 74.511991 
L 178.880989 72.012748 
L 178.948679 72.012748 
L 178.948679 71.013051 
L 179.101363 71.013051 
L 179.101363 70.513202 
L 179.243351 70.513202 
L 179.267786 69.513505 
L 179.39268 69.513505 
L 179.434651 67.014262 
L 179.591547 67.014262 
L 179.591547 66.514414 
L 179.722084 66.514414 
L 179.740709 65.014868 
L 179.843778 65.014868 
L 179.843778 64.515019 
L 180.099009 64.515019 
L 180.194972 62.515625 
L 180.329512 62.515625 
L 180.365469 60.516231 
L 180.470619 60.516231 
L 180.470619 60.016382 
L 180.594007 60.016382 
L 180.594007 59.016685 
L 180.900194 59.016685 
L 180.900194 58.516836 
L 181.263636 58.516836 
L 181.263636 58.016988 
L 181.37687 58.016988 
L 181.37687 57.517139 
L 181.621792 57.517139 
L 181.66228 56.017593 
L 181.905003 56.017593 
L 181.905003 55.517745 
L 182.242119 55.517745 
L 182.242119 55.017896 
L 182.536104 55.017896 
L 182.536104 54.018199 
L 182.87724 54.018199 
L 182.87724 53.518351 
L 183.11157 53.518351 
L 183.11157 53.018502 
L 183.271775 53.018502 
L 183.271775 52.518653 
L 183.437892 52.518653 
L 183.437892 51.518956 
L 183.859845 51.518956 
L 183.924775 49.019713 
L 184.076477 49.019713 
L 184.076477 48.519865 
L 184.699954 48.519865 
L 184.699954 48.020016 
L 185.240184 48.020016 
L 185.240184 47.520168 
L 185.400102 47.520168 
L 185.400102 46.520471 
L 185.539263 46.520471 
L 185.539263 46.020622 
L 185.689999 46.020622 
L 185.689999 45.520773 
L 186.188263 45.520773 
L 186.188263 45.020925 
L 186.372551 45.020925 
L 186.372551 44.521076 
L 186.541776 44.521076 
L 186.541776 44.021228 
L 338.688 44.021228 
L 338.688 44.021228 
" style="fill:none;stroke:#000080;stroke-linecap:square;stroke-width:1.5;"/>
   </g>
   <g id="line2d_39">
    <defs>
     <path d="M 0 6 
C 1.591219 6 3.117479 5.367802 4.242641 4.242641 
C 5.367802 3.117479 6 1.591219 6 0 
C 6 -1.591219 5.367802 -3.117479 4.242641 -4.242641 
C 3.117479 -5.367802 1.591219 -6 0 -6 
C -1.591219 -6 -3.117479 -5.367802 -4.242641 -4.242641 
C -5.367802 -3.117479 -6 -1.591219 -6 0 
C -6 1.591219 -5.367802 3.117479 -4.242641 4.242641 
C -3.117479 5.367802 -1.591219 6 0 6 
z
" id="mfc7bc059e4" style="stroke:#000080;stroke-width:1.5;"/>
    </defs>
    <g>
     <use style="fill-opacity:0;stroke:#000080;stroke-width:1.5;" x="163.036037" xlink:href="#mfc7bc059e4" y="233.963685"/>
     <use style="fill-opacity:0;stroke:#000080;stroke-width:1.5;" x="175.150842" xlink:href="#mfc7bc059e4" y="119.498362"/>
     <use style="fill-opacity:0;stroke:#000080;stroke-width:1.5;" x="186.541776" xlink:href="#mfc7bc059e4" y="44.521076"/>
     <use style="fill-opacity:0;stroke:#000080;stroke-width:1.5;" x="186.541776" xlink:href="#mfc7bc059e4" y="44.021228"/>
     <use style="fill-opacity:0;stroke:#000080;stroke-width:1.5;" x="338.688" xlink:href="#mfc7bc059e4" y="44.021228"/>
    </g>
   </g>
   <g id="line2d_40">
    <path style="fill:none;stroke:#000080;stroke-linecap:square;stroke-width:1.5;"/>
    <g/>
   </g>
   <g id="line2d_41">
    <defs>
     <path d="M 0 1.5 
C 0.397805 1.5 0.77937 1.341951 1.06066 1.06066 
C 1.341951 0.77937 1.5 0.397805 1.5 0 
C 1.5 -0.397805 1.341951 -0.77937 1.06066 -1.06066 
C 0.77937 -1.341951 0.397805 -1.5 0 -1.5 
C -0.397805 -1.5 -0.77937 -1.341951 -1.06066 -1.06066 
C -1.341951 -0.77937 -1.5 -0.397805 -1.5 0 
C -1.5 0.397805 -1.341951 0.77937 -1.06066 1.06066 
C -0.77937 1.341951 -0.397805 1.5 0 1.5 
z
" id="m873be967f1" style="stroke:#ff0000;"/>
    </defs>
    <g>
     <use style="fill:#ff0000;stroke:#ff0000;" x="177.435031" xlink:href="#m873be967f1" y="44.021228"/>
     <use style="fill:#ff0000;stroke:#ff0000;" x="177.435031" xlink:href="#m873be967f1" y="44.021228"/>
    </g>
   </g>
   <g id="line2d_42">
    <path d="M 123.543933 298.944 
L 123.543933 298.444151 
L 124.130182 298.444151 
L 124.130182 297.944303 
L 126.953823 297.944303 
L 126.953823 297.444454 
L 127.165014 297.444454 
L 127.165014 296.944606 
L 127.579875 296.944606 
L 127.579875 295.44506 
L 127.969682 295.44506 
L 127.985095 293.445666 
L 128.275374 293.445666 
L 128.275374 292.945817 
L 128.486215 292.945817 
L 128.560901 291.446271 
L 128.92961 291.446271 
L 128.92961 290.946423 
L 129.211887 290.946423 
L 129.211887 290.446574 
L 129.433047 290.446574 
L 129.433047 289.446877 
L 129.658437 289.446877 
L 129.658437 288.44718 
L 129.825588 288.44718 
L 129.825588 287.947331 
L 130.121117 287.947331 
L 130.121117 287.447483 
L 130.317637 287.447483 
L 130.317637 286.947634 
L 130.638123 286.947634 
L 130.638123 284.94824 
L 130.939826 284.94824 
L 131.030622 282.448997 
L 131.204405 282.448997 
L 131.26195 278.450209 
L 131.477644 278.450209 
L 131.584498 277.450511 
L 131.597027 277.450511 
L 131.703155 275.451117 
L 131.99937 275.451117 
L 132.054355 274.45142 
L 132.434469 274.45142 
L 132.517825 272.452026 
L 132.730358 272.452026 
L 132.730358 271.952177 
L 132.975083 271.952177 
L 132.975083 271.452328 
L 133.403728 271.452328 
L 133.403728 270.95248 
L 133.521885 270.95248 
L 133.521885 270.452631 
L 134.300504 270.452631 
L 134.300504 269.952783 
L 134.629858 269.952783 
L 134.629858 268.953086 
L 135.467186 268.953086 
L 135.467186 267.953388 
L 136.323544 267.953388 
L 136.323544 266.953691 
L 137.932643 266.953691 
L 138.028177 265.953994 
L 138.153314 265.953994 
L 138.153314 265.454146 
L 138.54446 265.454146 
L 138.54446 264.954297 
L 138.819757 264.954297 
L 138.819757 264.454448 
L 140.19972 264.454448 
L 140.19972 263.9546 
L 140.611586 263.9546 
L 140.611586 262.455054 
L 141.428632 262.455054 
L 141.428632 261.955206 
L 143.044063 261.955206 
L 143.044063 261.455357 
L 143.247504 261.455357 
L 143.289191 260.45566 
L 143.581387 260.45566 
L 143.581387 259.955811 
L 143.763113 259.955811 
L 143.834656 258.456266 
L 145.494539 258.456266 
L 145.494539 257.456568 
L 145.945869 257.456568 
L 145.945869 256.95672 
L 146.345539 256.95672 
L 146.345539 255.957023 
L 146.54332 255.957023 
L 146.54332 255.457174 
L 146.662505 255.457174 
L 146.662505 254.957326 
L 147.300029 254.957326 
L 147.320375 253.45778 
L 147.843681 253.45778 
L 147.843681 252.957931 
L 148.76137 252.957931 
L 148.829105 251.958234 
L 149.106622 251.958234 
L 149.191307 250.958537 
L 149.566262 250.958537 
L 149.572965 249.95884 
L 149.770648 249.95884 
L 149.770648 249.458991 
L 149.89828 249.458991 
L 149.89828 248.959143 
L 150.092331 248.959143 
L 150.092331 247.959446 
L 150.541822 247.959446 
L 150.546047 246.4599 
L 151.672873 246.4599 
L 151.744022 244.460506 
L 152.344968 244.460506 
L 152.39064 243.460808 
L 152.632227 243.460808 
L 152.733151 240.461717 
L 152.959038 240.461717 
L 152.959038 239.961868 
L 153.121997 239.961868 
L 153.121997 239.46202 
L 153.48809 239.46202 
L 153.561106 236.962777 
L 153.944287 236.962777 
L 153.944287 236.462928 
L 154.239071 236.462928 
L 154.295391 233.963685 
L 154.554156 233.963685 
L 154.554156 233.463837 
L 154.79093 233.463837 
L 154.881781 230.464745 
L 154.936065 230.464745 
L 154.936065 229.964897 
L 155.170985 229.964897 
L 155.261495 228.465351 
L 155.434735 228.465351 
L 155.45866 226.965805 
L 155.557205 226.965805 
L 155.644161 225.46626 
L 155.683543 225.46626 
L 155.787087 223.966714 
L 156.133995 223.966714 
L 156.133995 223.466865 
L 156.356445 223.466865 
L 156.453071 221.96732 
L 156.471128 221.96732 
L 156.471128 221.467471 
L 156.81367 221.467471 
L 156.910735 218.46838 
L 157.071319 218.46838 
L 157.10906 216.968834 
L 157.312322 216.968834 
L 157.312322 216.468985 
L 157.503322 216.468985 
L 157.503322 215.969137 
L 157.9318 215.969137 
L 157.9318 215.469288 
L 158.053098 215.469288 
L 158.121643 213.469894 
L 158.371595 213.469894 
L 158.371595 212.970045 
L 158.648574 212.970045 
L 158.663171 211.970348 
L 158.966905 211.970348 
L 159.003364 210.470803 
L 159.086415 210.470803 
L 159.086415 209.970954 
L 159.337048 209.970954 
L 159.354904 208.971257 
L 159.563988 208.971257 
L 159.563988 207.97156 
L 159.719484 207.97156 
L 159.719484 206.971863 
L 159.980933 206.971863 
L 160.034962 205.472317 
L 160.112033 205.472317 
L 160.112033 204.972468 
L 160.250633 204.972468 
L 160.250633 204.47262 
L 160.37492 204.47262 
L 160.468454 203.472923 
L 160.543637 203.472923 
L 160.57457 202.473225 
L 160.65758 202.473225 
L 160.65758 201.973377 
L 160.798971 201.973377 
L 160.798971 201.473528 
L 161.059872 201.473528 
L 161.066807 200.473831 
L 161.220975 200.473831 
L 161.266733 197.974588 
L 161.403289 197.974588 
L 161.501628 196.974891 
L 161.53316 196.974891 
L 161.548904 195.975194 
L 161.663187 195.975194 
L 161.724501 194.475648 
L 161.917067 194.475648 
L 162.013654 192.976103 
L 162.077022 192.976103 
L 162.124941 191.476557 
L 162.23228 191.476557 
L 162.341111 189.977011 
L 162.453536 189.977011 
L 162.554634 186.97792 
L 162.593851 186.97792 
L 162.593851 186.478071 
L 162.868011 186.478071 
L 162.90757 183.978828 
L 163.072127 183.978828 
L 163.13998 182.479282 
L 163.235146 182.479282 
L 163.333854 181.479585 
L 163.414845 181.479585 
L 163.46628 180.479888 
L 163.537636 180.479888 
L 163.537636 179.98004 
L 163.666539 179.98004 
L 163.769771 177.980645 
L 163.778676 177.980645 
L 163.871412 175.481402 
L 164.046653 175.481402 
L 164.093347 173.482008 
L 164.191193 173.482008 
L 164.287532 172.482311 
L 164.358482 172.482311 
L 164.358482 171.982462 
L 164.53271 171.982462 
L 164.584735 170.482917 
L 164.644137 170.482917 
L 164.75018 168.983371 
L 164.795964 168.983371 
L 164.795964 168.483522 
L 164.945554 168.483522 
L 165.001898 166.484128 
L 165.147911 166.484128 
L 165.251852 163.485037 
L 165.284547 163.485037 
L 165.292712 162.48534 
L 165.43632 162.48534 
L 165.43632 161.985491 
L 165.568046 161.985491 
L 165.642874 160.485945 
L 165.719152 160.485945 
L 165.719152 159.986097 
L 165.842616 159.986097 
L 165.849645 158.9864 
L 166.169082 158.9864 
L 166.278274 155.48746 
L 166.354389 155.48746 
L 166.366332 153.987914 
L 166.516624 153.987914 
L 166.57402 151.98852 
L 166.793417 151.98852 
L 166.886369 149.489277 
L 166.972241 149.489277 
L 166.972241 148.989428 
L 167.184273 148.989428 
L 167.184273 148.489579 
L 167.351096 148.489579 
L 167.405815 147.489882 
L 167.493969 147.489882 
L 167.493969 146.990034 
L 167.652325 146.990034 
L 167.687935 145.990337 
L 167.843764 145.990337 
L 167.93909 143.990942 
L 167.986559 143.990942 
L 167.986559 143.491094 
L 168.189752 143.491094 
L 168.283211 142.491397 
L 168.311457 142.491397 
L 168.386049 139.992154 
L 168.423226 139.992154 
L 168.441406 138.492608 
L 168.567387 138.492608 
L 168.663335 136.493214 
L 168.72676 136.493214 
L 168.805533 132.494425 
L 168.843307 132.494425 
L 168.914927 130.994879 
L 169.051441 130.994879 
L 169.145497 129.495334 
L 169.192698 129.495334 
L 169.221681 127.995788 
L 169.349358 127.995788 
L 169.385973 126.496242 
L 169.49821 126.496242 
L 169.595563 124.996697 
L 169.639443 124.996697 
L 169.640856 123.497151 
L 169.783747 123.497151 
L 169.858596 121.497757 
L 169.990025 121.497757 
L 170.094321 118.998514 
L 170.112217 118.998514 
L 170.209632 116.499271 
L 170.239707 116.499271 
L 170.343204 113.500179 
L 170.369661 113.500179 
L 170.43664 112.500482 
L 170.495962 112.500482 
L 170.537636 109.001542 
L 170.613335 109.001542 
L 170.697358 107.501997 
L 170.741872 107.501997 
L 170.839141 105.002754 
L 170.935215 105.002754 
L 170.952924 104.003056 
L 171.063364 104.003056 
L 171.129683 102.503511 
L 171.176345 102.503511 
L 171.25255 101.003965 
L 171.301455 101.003965 
L 171.392465 99.504419 
L 171.569276 99.504419 
L 171.662051 97.505025 
L 171.734913 97.505025 
L 171.845508 94.006085 
L 171.907062 94.006085 
L 171.928772 92.506539 
L 172.031987 92.506539 
L 172.031987 90.507145 
L 172.163975 90.507145 
L 172.273714 88.007902 
L 172.275537 88.007902 
L 172.275537 87.508054 
L 172.472525 87.508054 
L 172.511537 86.008508 
L 172.618521 86.008508 
L 172.675035 83.009416 
L 172.87111 83.009416 
L 172.980587 79.010628 
L 173.002167 79.010628 
L 173.002167 78.010931 
L 173.15364 78.010931 
L 173.242402 76.011536 
L 173.27801 76.011536 
L 173.375844 74.012142 
L 173.494111 74.012142 
L 173.494111 73.012445 
L 173.605389 73.012445 
L 173.66385 71.013051 
L 173.748942 71.013051 
L 173.841399 68.513808 
L 173.86416 68.513808 
L 173.939998 67.514111 
L 174.002855 67.514111 
L 174.038043 65.514716 
L 174.13117 65.514716 
L 174.23521 64.515019 
L 174.298637 64.515019 
L 174.35698 62.015776 
L 174.453788 62.015776 
L 174.453788 61.515928 
L 174.613949 61.515928 
L 174.685015 59.516533 
L 174.735751 59.516533 
L 174.845174 57.517139 
L 174.886554 57.517139 
L 174.943488 56.017593 
L 175.046437 56.017593 
L 175.093548 54.018199 
L 175.221811 54.018199 
L 175.289425 52.518653 
L 175.345571 52.518653 
L 175.345571 52.018805 
L 175.489192 52.018805 
L 175.489192 51.518956 
L 175.639159 51.518956 
L 175.639159 51.019108 
L 175.823086 51.019108 
L 175.910628 49.519562 
L 176.080495 49.519562 
L 176.080495 49.019713 
L 176.249208 49.019713 
L 176.338493 47.520168 
L 176.426366 47.520168 
L 176.426366 47.020319 
L 176.946825 47.020319 
L 176.946825 46.020622 
L 177.121212 46.020622 
L 177.121212 45.520773 
L 177.276547 45.520773 
L 177.276547 45.020925 
L 177.435031 45.020925 
L 177.435031 44.021228 
L 338.688 44.021228 
L 338.688 44.021228 
" style="fill:none;stroke:#ff0000;stroke-linecap:square;stroke-width:1.5;"/>
   </g>
   <g id="line2d_43">
    <defs>
     <path d="M 0 -6 
L -5.196152 -3 
L -5.196152 3 
L -0 6 
L 5.196152 3 
L 5.196152 -3 
z
" id="md02d37ac06" style="stroke:#ff0000;stroke-linejoin:miter;stroke-width:1.5;"/>
    </defs>
    <g>
     <use style="fill-opacity:0;stroke:#ff0000;stroke-linejoin:miter;stroke-width:1.5;" x="168.72676" xlink:href="#md02d37ac06" y="135.993365"/>
     <use style="fill-opacity:0;stroke:#ff0000;stroke-linejoin:miter;stroke-width:1.5;" x="177.435031" xlink:href="#md02d37ac06" y="45.020925"/>
     <use style="fill-opacity:0;stroke:#ff0000;stroke-linejoin:miter;stroke-width:1.5;" x="177.435031" xlink:href="#md02d37ac06" y="44.021228"/>
     <use style="fill-opacity:0;stroke:#ff0000;stroke-linejoin:miter;stroke-width:1.5;" x="177.435031" xlink:href="#md02d37ac06" y="44.021228"/>
     <use style="fill-opacity:0;stroke:#ff0000;stroke-linejoin:miter;stroke-width:1.5;" x="338.688" xlink:href="#md02d37ac06" y="44.021228"/>
    </g>
   </g>
   <g id="line2d_44">
    <path style="fill:none;stroke:#ff0000;stroke-linecap:square;stroke-width:1.5;"/>
    <g/>
   </g>
   <g id="line2d_45">
    <defs>
     <path d="M 0 1.5 
C 0.397805 1.5 0.77937 1.341951 1.06066 1.06066 
C 1.341951 0.77937 1.5 0.397805 1.5 0 
C 1.5 -0.397805 1.341951 -0.77937 1.06066 -1.06066 
C 0.77937 -1.341951 0.397805 -1.5 0 -1.5 
C -0.397805 -1.5 -0.77937 -1.341951 -1.06066 -1.06066 
C -1.341951 -0.77937 -1.5 -0.397805 -1.5 0 
C -1.5 0.397805 -1.341951 0.77937 -1.06066 1.06066 
C -0.77937 1.341951 -0.397805 1.5 0 1.5 
z
" id="m8d0d44597e" style="stroke:#9acd32;"/>
    </defs>
    <g>
     <use style="fill:#9acd32;stroke:#9acd32;" x="189.167959" xlink:href="#m8d0d44597e" y="44.021228"/>
     <use style="fill:#9acd32;stroke:#9acd32;" x="189.167959" xlink:href="#m8d0d44597e" y="44.021228"/>
    </g>
   </g>
   <g id="line2d_46">
    <path d="M 121.196777 298.944 
L 121.196777 298.444151 
L 126.030894 298.444151 
L 126.030894 297.944303 
L 126.797858 297.944303 
L 126.797858 296.444757 
L 128.237455 296.444757 
L 128.237455 295.944909 
L 128.694536 295.944909 
L 128.731476 293.445666 
L 129.03872 293.445666 
L 129.03872 291.446271 
L 129.340644 291.446271 
L 129.340644 290.446574 
L 129.63743 290.446574 
L 129.63743 289.446877 
L 130.874681 289.446877 
L 130.874681 288.44718 
L 133.153535 288.44718 
L 133.153535 287.947331 
L 133.805547 287.947331 
L 133.805547 287.447483 
L 134.37008 287.447483 
L 134.37008 286.947634 
L 135.577182 286.947634 
L 135.621981 285.947937 
L 136.203752 285.947937 
L 136.203752 285.448089 
L 137.189866 285.448089 
L 137.189866 284.94824 
L 137.602968 284.94824 
L 137.656136 283.948543 
L 138.311679 283.948543 
L 138.311679 282.948846 
L 139.261074 282.948846 
L 139.261074 282.448997 
L 139.389719 282.448997 
L 139.389719 281.4493 
L 140.088482 281.4493 
L 140.088482 280.949451 
L 140.506711 280.949451 
L 140.506711 279.949754 
L 141.01395 279.949754 
L 141.01395 279.449906 
L 141.126708 279.449906 
L 141.126708 278.950057 
L 141.767407 278.950057 
L 141.767407 278.450209 
L 141.941279 278.450209 
L 141.941279 277.95036 
L 143.327582 277.95036 
L 143.327582 277.450511 
L 144.075117 277.450511 
L 144.075117 276.450814 
L 144.426702 276.450814 
L 144.495579 275.451117 
L 144.712404 275.451117 
L 144.747789 274.45142 
L 145.241524 274.45142 
L 145.272995 272.951874 
L 145.378437 272.951874 
L 145.477597 270.95248 
L 145.832743 270.95248 
L 145.841045 268.953086 
L 146.305173 268.953086 
L 146.305173 268.453237 
L 146.428666 268.453237 
L 146.428666 267.953388 
L 146.864572 267.953388 
L 146.966032 266.953691 
L 146.999721 266.953691 
L 146.999721 266.453843 
L 147.12355 266.453843 
L 147.12355 265.953994 
L 147.398994 265.953994 
L 147.406583 264.954297 
L 147.645223 264.954297 
L 147.645223 264.454448 
L 147.924891 264.454448 
L 147.949426 263.454751 
L 148.061843 263.454751 
L 148.061843 262.954903 
L 148.178381 262.954903 
L 148.178381 262.455054 
L 148.344551 262.455054 
L 148.344551 261.955206 
L 148.558941 261.955206 
L 148.665156 260.955508 
L 149.037656 260.955508 
L 149.037656 260.45566 
L 149.173031 260.45566 
L 149.173031 259.955811 
L 149.418147 259.955811 
L 149.418147 258.956114 
L 149.530471 258.956114 
L 149.530471 258.456266 
L 149.902665 258.456266 
L 149.979215 256.95672 
L 150.111834 256.95672 
L 150.111834 256.456871 
L 150.369816 256.456871 
L 150.461339 253.957628 
L 150.495272 253.957628 
L 150.537595 252.458083 
L 150.615623 252.458083 
L 150.714239 251.458386 
L 151.0766 251.458386 
L 151.0766 250.958537 
L 151.227591 250.958537 
L 151.247895 249.458991 
L 151.419533 249.458991 
L 151.519713 248.459294 
L 151.567595 248.459294 
L 151.674853 247.459597 
L 151.740076 247.459597 
L 151.832551 245.960051 
L 151.928441 245.960051 
L 152.039328 243.960657 
L 152.483519 243.960657 
L 152.577785 240.961566 
L 152.662192 240.961566 
L 152.740604 239.46202 
L 152.787111 239.46202 
L 152.787111 237.962474 
L 153.025137 237.962474 
L 153.028802 235.463231 
L 153.294279 235.463231 
L 153.294279 234.963383 
L 153.454149 234.963383 
L 153.486306 233.463837 
L 153.639127 233.463837 
L 153.649739 232.46414 
L 153.787112 232.46414 
L 153.879842 227.465654 
L 153.935592 227.465654 
L 154.025807 225.966108 
L 154.096611 225.966108 
L 154.096611 225.46626 
L 154.227102 225.46626 
L 154.298798 223.466865 
L 154.441313 223.466865 
L 154.505403 221.467471 
L 154.654594 221.467471 
L 154.689611 220.467774 
L 154.809138 220.467774 
L 154.809138 219.468077 
L 155.073486 219.468077 
L 155.135299 216.968834 
L 155.209833 216.968834 
L 155.217915 214.96944 
L 155.359555 214.96944 
L 155.413973 212.970045 
L 155.480961 212.970045 
L 155.480961 212.470197 
L 155.614171 212.470197 
L 155.614171 211.970348 
L 155.808972 211.970348 
L 155.89313 210.970651 
L 156.348874 210.970651 
L 156.392743 209.471105 
L 156.598505 209.471105 
L 156.598505 208.971257 
L 156.72644 208.971257 
L 156.834305 207.471711 
L 157.016011 207.471711 
L 157.016011 206.971863 
L 157.145273 206.971863 
L 157.145273 206.472014 
L 157.339532 206.472014 
L 157.339532 205.472317 
L 157.68524 205.472317 
L 157.68524 204.972468 
L 157.977386 204.972468 
L 158.004956 203.972771 
L 158.379686 203.972771 
L 158.407973 199.973983 
L 162.491916 199.973983 
L 162.491916 198.974285 
L 162.860714 198.974285 
L 162.860714 198.474437 
L 163.006077 198.474437 
L 163.056669 196.974891 
L 163.134849 196.974891 
L 163.22698 193.475951 
L 163.301352 193.475951 
L 163.365282 192.476254 
L 163.45016 192.476254 
L 163.52961 190.47686 
L 163.607701 190.47686 
L 163.607701 189.977011 
L 163.770761 189.977011 
L 163.770761 189.477162 
L 164.275038 189.477162 
L 164.275038 188.977314 
L 169.156401 188.977314 
L 169.156401 188.477465 
L 169.572872 188.477465 
L 169.572872 187.977617 
L 169.902515 187.977617 
L 169.902515 187.477768 
L 170.676723 187.477768 
L 170.731916 186.478071 
L 171.343815 186.478071 
L 171.343815 185.978222 
L 171.634333 185.978222 
L 171.733033 184.978525 
L 171.825566 184.978525 
L 171.825566 184.478677 
L 171.938067 184.478677 
L 171.938067 183.978828 
L 172.185367 183.978828 
L 172.205513 182.979131 
L 172.753848 182.979131 
L 172.753848 181.979434 
L 173.098659 181.979434 
L 173.202112 180.479888 
L 173.343865 180.479888 
L 173.378696 178.980342 
L 173.517895 178.980342 
L 173.625648 177.480797 
L 173.945521 177.480797 
L 173.945521 176.4811 
L 174.453252 176.4811 
L 174.511615 174.481705 
L 174.78897 174.481705 
L 174.78897 173.981857 
L 175.065089 173.981857 
L 175.115249 170.982765 
L 175.202811 170.982765 
L 175.202811 170.482917 
L 175.381714 170.482917 
L 175.484137 169.48322 
L 175.622113 169.48322 
L 175.710168 166.983977 
L 175.982999 166.983977 
L 175.998223 165.98428 
L 176.193961 165.98428 
L 176.240496 163.485037 
L 176.448863 163.485037 
L 176.518086 162.48534 
L 176.688301 162.48534 
L 176.76504 159.986097 
L 176.952867 159.986097 
L 177.002522 158.486551 
L 177.158913 158.486551 
L 177.224922 156.987005 
L 177.285212 156.987005 
L 177.393393 154.987611 
L 177.451749 154.987611 
L 177.497753 151.488671 
L 177.585367 151.488671 
L 177.585367 150.988822 
L 177.731307 150.988822 
L 177.829252 147.489882 
L 177.930165 147.489882 
L 178.030935 145.490488 
L 178.061489 145.490488 
L 178.091119 144.490791 
L 178.219512 144.490791 
L 178.29842 141.491699 
L 178.358976 141.491699 
L 178.376544 139.992154 
L 178.577537 139.992154 
L 178.654002 138.492608 
L 178.748171 138.492608 
L 178.790465 137.492911 
L 178.878077 137.492911 
L 178.926699 135.493517 
L 178.993385 135.493517 
L 179.097254 133.993971 
L 179.112042 133.993971 
L 179.17107 130.994879 
L 179.246611 130.994879 
L 179.356277 128.995485 
L 179.380959 128.995485 
L 179.403586 127.495939 
L 179.506252 127.495939 
L 179.613903 124.496848 
L 179.625469 124.496848 
L 179.660519 123.497151 
L 179.739125 123.497151 
L 179.790542 121.997605 
L 179.85716 121.997605 
L 179.927442 119.498362 
L 180.005247 119.498362 
L 180.036427 118.498665 
L 180.193429 118.498665 
L 180.274284 115.999422 
L 180.368908 115.999422 
L 180.463401 113.500179 
L 180.544152 113.500179 
L 180.567209 112.500482 
L 180.674532 112.500482 
L 180.72776 110.001239 
L 180.791644 110.001239 
L 180.886106 108.501694 
L 180.940542 108.501694 
L 181.029053 107.002148 
L 181.096609 107.002148 
L 181.175946 104.502905 
L 181.310756 104.502905 
L 181.336798 102.503511 
L 181.494389 102.503511 
L 181.494389 102.003662 
L 181.61788 102.003662 
L 181.649149 100.504116 
L 181.734852 100.504116 
L 181.837352 99.004571 
L 181.88435 99.004571 
L 181.902903 98.004874 
L 182.009641 98.004874 
L 182.055483 96.505328 
L 182.165775 96.505328 
L 182.165775 96.005479 
L 182.402656 96.005479 
L 182.509091 93.506236 
L 182.555663 93.506236 
L 182.653129 90.007296 
L 182.691629 90.007296 
L 182.691629 89.507448 
L 182.87029 89.507448 
L 182.970297 88.507751 
L 182.999563 88.507751 
L 183.055002 86.008508 
L 183.1406 86.008508 
L 183.251708 82.009719 
L 183.286325 82.009719 
L 183.373372 79.010628 
L 183.398117 79.010628 
L 183.472142 78.010931 
L 183.556677 78.010931 
L 183.657898 77.011234 
L 183.692034 77.011234 
L 183.787451 74.012142 
L 183.810047 74.012142 
L 183.921035 70.513202 
L 183.930382 70.513202 
L 184.037824 68.013959 
L 184.089754 68.013959 
L 184.185787 64.015171 
L 184.254716 64.015171 
L 184.334028 59.516533 
L 184.39358 59.516533 
L 184.488865 58.016988 
L 184.540674 58.016988 
L 184.603122 56.517442 
L 184.752033 56.517442 
L 184.752033 56.017593 
L 185.21416 56.017593 
L 185.21416 55.517745 
L 185.400675 55.517745 
L 185.506285 54.018199 
L 185.872913 54.018199 
L 185.95409 53.018502 
L 186.124384 53.018502 
L 186.226259 50.519259 
L 186.346536 50.519259 
L 186.346536 50.019411 
L 186.622842 50.019411 
L 186.622842 49.519562 
L 186.829016 49.519562 
L 186.829016 49.019713 
L 187.03617 49.019713 
L 187.03617 48.519865 
L 187.605461 48.519865 
L 187.605461 48.020016 
L 187.771687 48.020016 
L 187.771687 47.520168 
L 188.191431 47.520168 
L 188.191431 46.520471 
L 188.307171 46.520471 
L 188.307171 45.520773 
L 188.661256 45.520773 
L 188.661256 45.020925 
L 188.96144 45.020925 
L 188.96144 44.521076 
L 189.167959 44.521076 
L 189.167959 44.021228 
L 338.688 44.021228 
L 338.688 44.021228 
" style="fill:none;stroke:#9acd32;stroke-linecap:square;stroke-width:1.5;"/>
   </g>
   <g id="line2d_47">
    <defs>
     <path d="M 0 -6 
L -6 6 
L 6 6 
z
" id="m9c3d2495f3" style="stroke:#9acd32;stroke-linejoin:miter;stroke-width:1.5;"/>
    </defs>
    <g>
     <use style="fill-opacity:0;stroke:#9acd32;stroke-linejoin:miter;stroke-width:1.5;" x="150.435846" xlink:href="#m9c3d2495f3" y="254.957326"/>
     <use style="fill-opacity:0;stroke:#9acd32;stroke-linejoin:miter;stroke-width:1.5;" x="180.699292" xlink:href="#m9c3d2495f3" y="110.501088"/>
     <use style="fill-opacity:0;stroke:#9acd32;stroke-linejoin:miter;stroke-width:1.5;" x="189.167959" xlink:href="#m9c3d2495f3" y="44.521076"/>
     <use style="fill-opacity:0;stroke:#9acd32;stroke-linejoin:miter;stroke-width:1.5;" x="189.167959" xlink:href="#m9c3d2495f3" y="44.021228"/>
     <use style="fill-opacity:0;stroke:#9acd32;stroke-linejoin:miter;stroke-width:1.5;" x="338.688" xlink:href="#m9c3d2495f3" y="44.021228"/>
    </g>
   </g>
   <g id="line2d_48">
    <path style="fill:none;stroke:#9acd32;stroke-linecap:square;stroke-width:1.5;"/>
    <g/>
   </g>
   <g id="line2d_49">
    <path d="M 338.688 44.021228 
L 369.60768 293.845545 
" style="fill:none;stroke:#9acd32;stroke-linecap:square;stroke-width:1.5;"/>
    <g>
     <use style="fill-opacity:0;stroke:#9acd32;stroke-linejoin:miter;stroke-width:1.5;" x="338.688" xlink:href="#m9c3d2495f3" y="44.021228"/>
     <use style="fill-opacity:0;stroke:#9acd32;stroke-linejoin:miter;stroke-width:1.5;" x="369.60768" xlink:href="#m9c3d2495f3" y="293.845545"/>
    </g>
   </g>
   <g id="line2d_50">
    <path d="M 338.688 44.021228 
L 369.60768 171.482614 
" style="fill:none;stroke:#000080;stroke-linecap:square;stroke-width:1.5;"/>
    <g>
     <use style="fill-opacity:0;stroke:#000080;stroke-width:1.5;" x="338.688" xlink:href="#mfc7bc059e4" y="44.021228"/>
     <use style="fill-opacity:0;stroke:#000080;stroke-width:1.5;" x="369.60768" xlink:href="#mfc7bc059e4" y="171.482614"/>
    </g>
   </g>
   <g id="line2d_51">
    <path d="M 338.688 44.021228 
L 369.60768 49.119683 
" style="fill:none;stroke:#ff0000;stroke-linecap:square;stroke-width:1.5;"/>
    <g>
     <use style="fill-opacity:0;stroke:#ff0000;stroke-linejoin:miter;stroke-width:1.5;" x="338.688" xlink:href="#md02d37ac06" y="44.021228"/>
     <use style="fill-opacity:0;stroke:#ff0000;stroke-linejoin:miter;stroke-width:1.5;" x="369.60768" xlink:href="#md02d37ac06" y="49.119683"/>
    </g>
   </g>
   <g id="line2d_52">
    <path d="M 338.688 298.944 
L 338.688 44.021228 
" style="fill:none;stroke:#000000;stroke-linecap:square;stroke-width:1.5;"/>
   </g>
   <g id="patch_3">
    <path d="M 57.6 298.944 
L 57.6 41.472 
" style="fill:none;stroke:#000000;stroke-linecap:square;stroke-linejoin:miter;stroke-width:0.8;"/>
   </g>
   <g id="patch_4">
    <path d="M 338.688 298.944 
L 338.688 41.472 
" style="fill:none;stroke:#000000;stroke-linecap:square;stroke-linejoin:miter;stroke-width:0.8;"/>
   </g>
   <g id="patch_5">
    <path d="M 57.6 298.944 
L 338.688 298.944 
" style="fill:none;stroke:#000000;stroke-linecap:square;stroke-linejoin:miter;stroke-width:0.8;"/>
   </g>
   <g id="patch_6">
    <path d="M 57.6 41.472 
L 338.688 41.472 
" style="fill:none;stroke:#000000;stroke-linecap:square;stroke-linejoin:miter;stroke-width:0.8;"/>
   </g>
   <g id="text_13">
    <!-- SLSQP+CMA -->
    <defs>
     <path d="M 53.515625 70.515625 
L 53.515625 60.890625 
Q 47.90625 63.578125 42.921875 64.890625 
Q 37.9375 66.21875 33.296875 66.21875 
Q 25.25 66.21875 20.875 63.09375 
Q 16.5 59.96875 16.5 54.203125 
Q 16.5 49.359375 19.40625 46.890625 
Q 22.3125 44.4375 30.421875 42.921875 
L 36.375 41.703125 
Q 47.40625 39.59375 52.65625 34.296875 
Q 57.90625 29 57.90625 20.125 
Q 57.90625 9.515625 50.796875 4.046875 
Q 43.703125 -1.421875 29.984375 -1.421875 
Q 24.8125 -1.421875 18.96875 -0.25 
Q 13.140625 0.921875 6.890625 3.21875 
L 6.890625 13.375 
Q 12.890625 10.015625 18.65625 8.296875 
Q 24.421875 6.59375 29.984375 6.59375 
Q 38.421875 6.59375 43.015625 9.90625 
Q 47.609375 13.234375 47.609375 19.390625 
Q 47.609375 24.75 44.3125 27.78125 
Q 41.015625 30.8125 33.5 32.328125 
L 27.484375 33.5 
Q 16.453125 35.6875 11.515625 40.375 
Q 6.59375 45.0625 6.59375 53.421875 
Q 6.59375 63.09375 13.40625 68.65625 
Q 20.21875 74.21875 32.171875 74.21875 
Q 37.3125 74.21875 42.625 73.28125 
Q 47.953125 72.359375 53.515625 70.515625 
z
" id="DejaVuSans-83"/>
     <path d="M 9.8125 72.90625 
L 19.671875 72.90625 
L 19.671875 8.296875 
L 55.171875 8.296875 
L 55.171875 0 
L 9.8125 0 
z
" id="DejaVuSans-76"/>
     <path d="M 39.40625 66.21875 
Q 28.65625 66.21875 22.328125 58.203125 
Q 16.015625 50.203125 16.015625 36.375 
Q 16.015625 22.609375 22.328125 14.59375 
Q 28.65625 6.59375 39.40625 6.59375 
Q 50.140625 6.59375 56.421875 14.59375 
Q 62.703125 22.609375 62.703125 36.375 
Q 62.703125 50.203125 56.421875 58.203125 
Q 50.140625 66.21875 39.40625 66.21875 
z
M 53.21875 1.3125 
L 66.21875 -12.890625 
L 54.296875 -12.890625 
L 43.5 -1.21875 
Q 41.890625 -1.3125 41.03125 -1.359375 
Q 40.1875 -1.421875 39.40625 -1.421875 
Q 24.03125 -1.421875 14.8125 8.859375 
Q 5.609375 19.140625 5.609375 36.375 
Q 5.609375 53.65625 14.8125 63.9375 
Q 24.03125 74.21875 39.40625 74.21875 
Q 54.734375 74.21875 63.90625 63.9375 
Q 73.09375 53.65625 73.09375 36.375 
Q 73.09375 23.6875 67.984375 14.640625 
Q 62.890625 5.609375 53.21875 1.3125 
z
" id="DejaVuSans-81"/>
     <path d="M 19.671875 64.796875 
L 19.671875 37.40625 
L 32.078125 37.40625 
Q 38.96875 37.40625 42.71875 40.96875 
Q 46.484375 44.53125 46.484375 51.125 
Q 46.484375 57.671875 42.71875 61.234375 
Q 38.96875 64.796875 32.078125 64.796875 
z
M 9.8125 72.90625 
L 32.078125 72.90625 
Q 44.34375 72.90625 50.609375 67.359375 
Q 56.890625 61.8125 56.890625 51.125 
Q 56.890625 40.328125 50.609375 34.8125 
Q 44.34375 29.296875 32.078125 29.296875 
L 19.671875 29.296875 
L 19.671875 0 
L 9.8125 0 
z
" id="DejaVuSans-80"/>
     <path d="M 46 62.703125 
L 46 35.5 
L 73.1875 35.5 
L 73.1875 27.203125 
L 46 27.203125 
L 46 0 
L 37.796875 0 
L 37.796875 27.203125 
L 10.59375 27.203125 
L 10.59375 35.5 
L 37.796875 35.5 
L 37.796875 62.703125 
z
" id="DejaVuSans-43"/>
     <path d="M 64.40625 67.28125 
L 64.40625 56.890625 
Q 59.421875 61.53125 53.78125 63.8125 
Q 48.140625 66.109375 41.796875 66.109375 
Q 29.296875 66.109375 22.65625 58.46875 
Q 16.015625 50.828125 16.015625 36.375 
Q 16.015625 21.96875 22.65625 14.328125 
Q 29.296875 6.6875 41.796875 6.6875 
Q 48.140625 6.6875 53.78125 8.984375 
Q 59.421875 11.28125 64.40625 15.921875 
L 64.40625 5.609375 
Q 59.234375 2.09375 53.4375 0.328125 
Q 47.65625 -1.421875 41.21875 -1.421875 
Q 24.65625 -1.421875 15.125 8.703125 
Q 5.609375 18.84375 5.609375 36.375 
Q 5.609375 53.953125 15.125 64.078125 
Q 24.65625 74.21875 41.21875 74.21875 
Q 47.75 74.21875 53.53125 72.484375 
Q 59.328125 70.75 64.40625 67.28125 
z
" id="DejaVuSans-67"/>
     <path d="M 9.8125 72.90625 
L 24.515625 72.90625 
L 43.109375 23.296875 
L 61.8125 72.90625 
L 76.515625 72.90625 
L 76.515625 0 
L 66.890625 0 
L 66.890625 64.015625 
L 48.09375 14.015625 
L 38.1875 14.015625 
L 19.390625 64.015625 
L 19.390625 0 
L 9.8125 0 
z
" id="DejaVuSans-77"/>
     <path d="M 34.1875 63.1875 
L 20.796875 26.90625 
L 47.609375 26.90625 
z
M 28.609375 72.90625 
L 39.796875 72.90625 
L 67.578125 0 
L 57.328125 0 
L 50.6875 18.703125 
L 17.828125 18.703125 
L 11.1875 0 
L 0.78125 0 
z
" id="DejaVuSans-65"/>
    </defs>
    <g transform="translate(375.22944 298.536482)scale(0.17 -0.17)">
     <use xlink:href="#DejaVuSans-83"/>
     <use x="63.476562" xlink:href="#DejaVuSans-76"/>
     <use x="119.189453" xlink:href="#DejaVuSans-83"/>
     <use x="182.666016" xlink:href="#DejaVuSans-81"/>
     <use x="261.376953" xlink:href="#DejaVuSans-80"/>
     <use x="321.679688" xlink:href="#DejaVuSans-43"/>
     <use x="405.46875" xlink:href="#DejaVuSans-67"/>
     <use x="475.292969" xlink:href="#DejaVuSans-77"/>
     <use x="561.572266" xlink:href="#DejaVuSans-65"/>
    </g>
   </g>
   <g id="text_14">
    <!-- CMA-ES  2 -->
    <defs>
     <path d="M 9.8125 72.90625 
L 55.90625 72.90625 
L 55.90625 64.59375 
L 19.671875 64.59375 
L 19.671875 43.015625 
L 54.390625 43.015625 
L 54.390625 34.71875 
L 19.671875 34.71875 
L 19.671875 8.296875 
L 56.78125 8.296875 
L 56.78125 0 
L 9.8125 0 
z
" id="DejaVuSans-69"/>
    </defs>
    <g transform="translate(375.22944 176.173551)scale(0.17 -0.17)">
     <use xlink:href="#DejaVuSans-67"/>
     <use x="69.824219" xlink:href="#DejaVuSans-77"/>
     <use x="156.103516" xlink:href="#DejaVuSans-65"/>
     <use x="224.480469" xlink:href="#DejaVuSans-45"/>
     <use x="260.564453" xlink:href="#DejaVuSans-69"/>
     <use x="323.748047" xlink:href="#DejaVuSans-83"/>
     <use x="387.224609" xlink:href="#DejaVuSans-32"/>
     <use x="419.011719" xlink:href="#DejaVuSans-32"/>
     <use x="450.798828" xlink:href="#DejaVuSans-50"/>
    </g>
   </g>
   <g id="text_15">
    <!-- lq-CMA-ES -->
    <defs>
     <path d="M 14.796875 27.296875 
Q 14.796875 17.390625 18.875 11.75 
Q 22.953125 6.109375 30.078125 6.109375 
Q 37.203125 6.109375 41.296875 11.75 
Q 45.40625 17.390625 45.40625 27.296875 
Q 45.40625 37.203125 41.296875 42.84375 
Q 37.203125 48.484375 30.078125 48.484375 
Q 22.953125 48.484375 18.875 42.84375 
Q 14.796875 37.203125 14.796875 27.296875 
z
M 45.40625 8.203125 
Q 42.578125 3.328125 38.25 0.953125 
Q 33.9375 -1.421875 27.875 -1.421875 
Q 17.96875 -1.421875 11.734375 6.484375 
Q 5.515625 14.40625 5.515625 27.296875 
Q 5.515625 40.1875 11.734375 48.09375 
Q 17.96875 56 27.875 56 
Q 33.9375 56 38.25 53.625 
Q 42.578125 51.265625 45.40625 46.390625 
L 45.40625 54.6875 
L 54.390625 54.6875 
L 54.390625 -20.796875 
L 45.40625 -20.796875 
z
" id="DejaVuSans-113"/>
    </defs>
    <g transform="translate(375.22944 53.810621)scale(0.17 -0.17)">
     <use xlink:href="#DejaVuSans-108"/>
     <use x="27.783203" xlink:href="#DejaVuSans-113"/>
     <use x="91.259766" xlink:href="#DejaVuSans-45"/>
     <use x="127.34375" xlink:href="#DejaVuSans-67"/>
     <use x="197.167969" xlink:href="#DejaVuSans-77"/>
     <use x="283.447266" xlink:href="#DejaVuSans-65"/>
     <use x="351.824219" xlink:href="#DejaVuSans-45"/>
     <use x="387.908203" xlink:href="#DejaVuSans-69"/>
     <use x="451.091797" xlink:href="#DejaVuSans-83"/>
    </g>
   </g>
   <g id="text_16">
    <!-- bbob f12, 40-D -->
    <defs>
     <path d="M 48.6875 27.296875 
Q 48.6875 37.203125 44.609375 42.84375 
Q 40.53125 48.484375 33.40625 48.484375 
Q 26.265625 48.484375 22.1875 42.84375 
Q 18.109375 37.203125 18.109375 27.296875 
Q 18.109375 17.390625 22.1875 11.75 
Q 26.265625 6.109375 33.40625 6.109375 
Q 40.53125 6.109375 44.609375 11.75 
Q 48.6875 17.390625 48.6875 27.296875 
z
M 18.109375 46.390625 
Q 20.953125 51.265625 25.265625 53.625 
Q 29.59375 56 35.59375 56 
Q 45.5625 56 51.78125 48.09375 
Q 58.015625 40.1875 58.015625 27.296875 
Q 58.015625 14.40625 51.78125 6.484375 
Q 45.5625 -1.421875 35.59375 -1.421875 
Q 29.59375 -1.421875 25.265625 0.953125 
Q 20.953125 3.328125 18.109375 8.203125 
L 18.109375 0 
L 9.078125 0 
L 9.078125 75.984375 
L 18.109375 75.984375 
z
" id="DejaVuSans-98"/>
     <path d="M 19.671875 64.796875 
L 19.671875 8.109375 
L 31.59375 8.109375 
Q 46.6875 8.109375 53.6875 14.9375 
Q 60.6875 21.78125 60.6875 36.53125 
Q 60.6875 51.171875 53.6875 57.984375 
Q 46.6875 64.796875 31.59375 64.796875 
z
M 9.8125 72.90625 
L 30.078125 72.90625 
Q 51.265625 72.90625 61.171875 64.09375 
Q 71.09375 55.28125 71.09375 36.53125 
Q 71.09375 17.671875 61.125 8.828125 
Q 51.171875 0 30.078125 0 
L 9.8125 0 
z
" id="DejaVuSans-68"/>
    </defs>
    <g transform="translate(60.41088 51.797126)scale(0.102 -0.102)">
     <use xlink:href="#DejaVuSans-98"/>
     <use x="63.476562" xlink:href="#DejaVuSans-98"/>
     <use x="126.953125" xlink:href="#DejaVuSans-111"/>
     <use x="188.134766" xlink:href="#DejaVuSans-98"/>
     <use x="251.611328" xlink:href="#DejaVuSans-32"/>
     <use x="283.398438" xlink:href="#DejaVuSans-102"/>
     <use x="318.603516" xlink:href="#DejaVuSans-49"/>
     <use x="382.226562" xlink:href="#DejaVuSans-50"/>
     <use x="445.849609" xlink:href="#DejaVuSans-44"/>
     <use x="477.636719" xlink:href="#DejaVuSans-32"/>
     <use x="509.423828" xlink:href="#DejaVuSans-52"/>
     <use x="573.046875" xlink:href="#DejaVuSans-48"/>
     <use x="636.669922" xlink:href="#DejaVuSans-45"/>
     <use x="672.753906" xlink:href="#DejaVuSans-68"/>
    </g>
    <!-- 51 targets: 100..1e-08 -->
    <defs>
     <path d="M 10.796875 72.90625 
L 49.515625 72.90625 
L 49.515625 64.59375 
L 19.828125 64.59375 
L 19.828125 46.734375 
Q 21.96875 47.46875 24.109375 47.828125 
Q 26.265625 48.1875 28.421875 48.1875 
Q 40.625 48.1875 47.75 41.5 
Q 54.890625 34.8125 54.890625 23.390625 
Q 54.890625 11.625 47.5625 5.09375 
Q 40.234375 -1.421875 26.90625 -1.421875 
Q 22.3125 -1.421875 17.546875 -0.640625 
Q 12.796875 0.140625 7.71875 1.703125 
L 7.71875 11.625 
Q 12.109375 9.234375 16.796875 8.0625 
Q 21.484375 6.890625 26.703125 6.890625 
Q 35.15625 6.890625 40.078125 11.328125 
Q 45.015625 15.765625 45.015625 23.390625 
Q 45.015625 31 40.078125 35.4375 
Q 35.15625 39.890625 26.703125 39.890625 
Q 22.75 39.890625 18.8125 39.015625 
Q 14.890625 38.140625 10.796875 36.28125 
z
" id="DejaVuSans-53"/>
     <path d="M 11.71875 12.40625 
L 22.015625 12.40625 
L 22.015625 0 
L 11.71875 0 
z
M 11.71875 51.703125 
L 22.015625 51.703125 
L 22.015625 39.3125 
L 11.71875 39.3125 
z
" id="DejaVuSans-58"/>
    </defs>
    <g transform="translate(60.41088 63.218895)scale(0.102 -0.102)">
     <use xlink:href="#DejaVuSans-53"/>
     <use x="63.623047" xlink:href="#DejaVuSans-49"/>
     <use x="127.246094" xlink:href="#DejaVuSans-32"/>
     <use x="159.033203" xlink:href="#DejaVuSans-116"/>
     <use x="198.242188" xlink:href="#DejaVuSans-97"/>
     <use x="259.521484" xlink:href="#DejaVuSans-114"/>
     <use x="300.619141" xlink:href="#DejaVuSans-103"/>
     <use x="364.095703" xlink:href="#DejaVuSans-101"/>
     <use x="425.619141" xlink:href="#DejaVuSans-116"/>
     <use x="464.828125" xlink:href="#DejaVuSans-115"/>
     <use x="516.927734" xlink:href="#DejaVuSans-58"/>
     <use x="550.619141" xlink:href="#DejaVuSans-32"/>
     <use x="582.40625" xlink:href="#DejaVuSans-49"/>
     <use x="646.029297" xlink:href="#DejaVuSans-48"/>
     <use x="709.652344" xlink:href="#DejaVuSans-48"/>
     <use x="773.275391" xlink:href="#DejaVuSans-46"/>
     <use x="805.0625" xlink:href="#DejaVuSans-46"/>
     <use x="836.849609" xlink:href="#DejaVuSans-49"/>
     <use x="900.472656" xlink:href="#DejaVuSans-101"/>
     <use x="961.996094" xlink:href="#DejaVuSans-45"/>
     <use x="998.080078" xlink:href="#DejaVuSans-48"/>
     <use x="1061.703125" xlink:href="#DejaVuSans-56"/>
    </g>
    <!-- 15 instances -->
    <g transform="translate(60.41088 74.640664)scale(0.102 -0.102)">
     <use xlink:href="#DejaVuSans-49"/>
     <use x="63.623047" xlink:href="#DejaVuSans-53"/>
     <use x="127.246094" xlink:href="#DejaVuSans-32"/>
     <use x="159.033203" xlink:href="#DejaVuSans-105"/>
     <use x="186.816406" xlink:href="#DejaVuSans-110"/>
     <use x="250.195312" xlink:href="#DejaVuSans-115"/>
     <use x="302.294922" xlink:href="#DejaVuSans-116"/>
     <use x="341.503906" xlink:href="#DejaVuSans-97"/>
     <use x="402.783203" xlink:href="#DejaVuSans-110"/>
     <use x="466.162109" xlink:href="#DejaVuSans-99"/>
     <use x="521.142578" xlink:href="#DejaVuSans-101"/>
     <use x="582.666016" xlink:href="#DejaVuSans-115"/>
    </g>
   </g>
   <g id="text_17">
    <!-- v2.3.17 -->
    <defs>
     <path d="M 40.578125 39.3125 
Q 47.65625 37.796875 51.625 33 
Q 55.609375 28.21875 55.609375 21.1875 
Q 55.609375 10.40625 48.1875 4.484375 
Q 40.765625 -1.421875 27.09375 -1.421875 
Q 22.515625 -1.421875 17.65625 -0.515625 
Q 12.796875 0.390625 7.625 2.203125 
L 7.625 11.71875 
Q 11.71875 9.328125 16.59375 8.109375 
Q 21.484375 6.890625 26.8125 6.890625 
Q 36.078125 6.890625 40.9375 10.546875 
Q 45.796875 14.203125 45.796875 21.1875 
Q 45.796875 27.640625 41.28125 31.265625 
Q 36.765625 34.90625 28.71875 34.90625 
L 20.21875 34.90625 
L 20.21875 43.015625 
L 29.109375 43.015625 
Q 36.375 43.015625 40.234375 45.921875 
Q 44.09375 48.828125 44.09375 54.296875 
Q 44.09375 59.90625 40.109375 62.90625 
Q 36.140625 65.921875 28.71875 65.921875 
Q 24.65625 65.921875 20.015625 65.03125 
Q 15.375 64.15625 9.8125 62.3125 
L 9.8125 71.09375 
Q 15.4375 72.65625 20.34375 73.4375 
Q 25.25 74.21875 29.59375 74.21875 
Q 40.828125 74.21875 47.359375 69.109375 
Q 53.90625 64.015625 53.90625 55.328125 
Q 53.90625 49.265625 50.4375 45.09375 
Q 46.96875 40.921875 40.578125 39.3125 
z
" id="DejaVuSans-51"/>
     <path d="M 8.203125 72.90625 
L 55.078125 72.90625 
L 55.078125 68.703125 
L 28.609375 0 
L 18.3125 0 
L 43.21875 64.59375 
L 8.203125 64.59375 
z
" id="DejaVuSans-55"/>
    </defs>
    <g style="fill:#808080;" transform="translate(179.2815 294.289592)scale(0.1 -0.1)">
     <use xlink:href="#DejaVuSans-118"/>
     <use x="59.179688" xlink:href="#DejaVuSans-50"/>
     <use x="122.802734" xlink:href="#DejaVuSans-46"/>
     <use x="154.589844" xlink:href="#DejaVuSans-51"/>
     <use x="218.212891" xlink:href="#DejaVuSans-46"/>
     <use x="250" xlink:href="#DejaVuSans-49"/>
     <use x="313.623047" xlink:href="#DejaVuSans-55"/>
    </g>
   </g>
   <g id="text_18">
    <!-- 12 Bent cigar -->
    <defs>
     <path d="M 19.671875 34.8125 
L 19.671875 8.109375 
L 35.5 8.109375 
Q 43.453125 8.109375 47.28125 11.40625 
Q 51.125 14.703125 51.125 21.484375 
Q 51.125 28.328125 47.28125 31.5625 
Q 43.453125 34.8125 35.5 34.8125 
z
M 19.671875 64.796875 
L 19.671875 42.828125 
L 34.28125 42.828125 
Q 41.5 42.828125 45.03125 45.53125 
Q 48.578125 48.25 48.578125 53.8125 
Q 48.578125 59.328125 45.03125 62.0625 
Q 41.5 64.796875 34.28125 64.796875 
z
M 9.8125 72.90625 
L 35.015625 72.90625 
Q 46.296875 72.90625 52.390625 68.21875 
Q 58.5 63.53125 58.5 54.890625 
Q 58.5 48.1875 55.375 44.234375 
Q 52.25 40.28125 46.1875 39.3125 
Q 53.46875 37.75 57.5 32.78125 
Q 61.53125 27.828125 61.53125 20.40625 
Q 61.53125 10.640625 54.890625 5.3125 
Q 48.25 0 35.984375 0 
L 9.8125 0 
z
" id="DejaVuSans-66"/>
    </defs>
    <g transform="translate(130.926812 35.472)scale(0.2 -0.2)">
     <use xlink:href="#DejaVuSans-49"/>
     <use x="63.623047" xlink:href="#DejaVuSans-50"/>
     <use x="127.246094" xlink:href="#DejaVuSans-32"/>
     <use x="159.033203" xlink:href="#DejaVuSans-66"/>
     <use x="227.636719" xlink:href="#DejaVuSans-101"/>
     <use x="289.160156" xlink:href="#DejaVuSans-110"/>
     <use x="352.539062" xlink:href="#DejaVuSans-116"/>
     <use x="391.748047" xlink:href="#DejaVuSans-32"/>
     <use x="423.535156" xlink:href="#DejaVuSans-99"/>
     <use x="478.515625" xlink:href="#DejaVuSans-105"/>
     <use x="506.298828" xlink:href="#DejaVuSans-103"/>
     <use x="569.775391" xlink:href="#DejaVuSans-97"/>
     <use x="631.054688" xlink:href="#DejaVuSans-114"/>
    </g>
   </g>
  </g>
 </g>
 <defs>
  <clipPath id="p9e250c0e45">
   <rect height="257.472" width="281.088" x="57.6" y="41.472"/>
  </clipPath>
 </defs>
</svg>
